<?xml version="1.0" encoding="utf-8"?>
<!-- Generator: Adobe Illustrator 19.0.0, SVG Export Plug-In . SVG Version: 6.00 Build 0)  -->
<svg version="1.1" id="Layer_1" xmlns="http://www.w3.org/2000/svg" xmlns:xlink="http://www.w3.org/1999/xlink" x="0px" y="0px"
	 viewBox="-1133 3865.3 249 66" style="enable-background:new -1133 3865.3 249 66;" xml:space="preserve">
<style type="text/css">
	.st0{fill:#0080CC;}
	.st1{fill:#323232;}
	.st2{fill:#858585;}
</style>
<path class="st0" d="M-1123.7,3901.4c-1.1-1.5-2-3.3-2.8-5.1c-0.7-1.7-1.3-3.4-1.6-5.2c-0.3-1.8-0.3-3.6-0.1-5.5
	c0.2-1.7,0.7-3.3,1.5-4.7c0.9-1.5,2-2.6,3.3-3.5c2.4-1.6,5.2-2.2,5.2-2.2s-2.6,0.1-5.2,0.7c-1.3,0.3-2.5,0.7-3.7,1.4
	c-0.8,0.5-1.6,1.1-2.2,1.8c-0.6,0.7-1.2,1.5-1.6,2.5c-2.3,5-1.3,11.3,1.1,16.3c0.5,1,1.1,2,1.8,2.9c0.6,0.8,1.4,1.4,2.1,2
	c0.6,0.5,1.3,1,1.9,1.4c2,1.2,4.2,1.7,4.2,1.7S-1121.8,3903.9-1123.7,3901.4L-1123.7,3901.4z M-1062.5,3897.1l-4.5-1l0.8-8.2
	l-4.6,2.1l0.1-6.2l-5.3,2.1l-2-6.1l-3.6,3.4l-2.6-3.7l-2.7,2.4l-3.3-4.5l-2.1,4.5l-4.4-4l-1.3,5.4l-5.7-2.8l0.1,5.8l-5-0.6l0.6,4.7
	l-4.6-0.1l1.3,5.6l-4.8,1.2l2,4.5l-5.3,1.4l2.9,3.8l-5.1,2l4.6,4.4l-4,5.1l5,2.6l-1.8,5.1l4.4,1.8v3.1h35.7v-2l28.1,0
	C-1060.1,3920.7-1070,3914.4-1062.5,3897.1z M-1080.1,3926.5v2h-5.1v-2.2h-2.8v2.2h-5.2v-2.8h-4.6v2.8h-5v-2.2h-3.2v2.2h-4.8v-2.3
	l-3.8-1.5l1.7-4.8l-4.2-2.2l3.6-4.5l-3.4-3.3l4.5-1.8l-2.6-3.5l4.6-1.2l-2-4.5l4.2-1.1l-1.1-4.8l4.2,0.1l-0.5-4.4l4.6,0.6l-0.1-4.5
	l4.8,2.4l1.1-4.4l3.9,3.5l1.7-3.7l2.4,3.3l2.7-2.4l2.7,3.8l2.8-2.7l1.6,4.9l4.2-1.7l-0.1,6.4l4.3-2l-0.6,6.1l3.8,0.9
	c-2.1,5.8-2.6,11.9,0.4,17.7c2,3.8,5.3,7,8.8,9.8C-1056.8,3926.5-1080.1,3926.5-1080.1,3926.5z M-1104,3865.9c-0.9,1.6-2,3.4-2.9,5
	c0.5,0,1,0,1.5,0.1c1.6-1.8,2-3.7,1.7-5.7c-5.3,0.3-8.1,2.9-9.3,7.3c0.7,0.8,1.3,1.6,2,2.4C-1110.5,3870.1-1108,3867.2-1104,3865.9z
	 M-1108,3876.9c1.7-0.6,3.6-1.4,5.7-1.7c-1.7-0.3-3.5-0.7-5.3,0.1c-1.8,0.8-3.6,1.3-5.4,1.4
	C-1111.7,3877.4-1109.8,3877.6-1108,3876.9z M-1075.5,3912.9c-1.1,0-1.9,0.9-1.9,1.9c0,1.1,0.9,1.9,1.9,1.9c1.1,0,1.9-0.9,1.9-1.9
	C-1073.5,3913.8-1074.4,3912.9-1075.5,3912.9C-1075.4,3912.9-1075.4,3912.9-1075.5,3912.9z M-1071.3,3914.1c-0.7,0-1.3,0.6-1.3,1.3
	c0,0.7,0.6,1.3,1.3,1.3c0.7,0,1.3-0.6,1.3-1.3S-1070.6,3914.1-1071.3,3914.1z"/>
<g>
	<path class="st1" d="M-925.5,3905.6c-0.1-0.3-0.2-0.6-0.3-0.9c-0.1-0.3-0.3-0.6-0.5-0.8c-0.2-0.2-0.4-0.5-0.7-0.6
		c-0.3-0.2-0.6-0.3-1-0.5l0-0.1c0.5-0.2,1-0.6,1.3-1.1c0.3-0.5,0.6-1.1,0.7-1.7l1.1-4c0-0.1,0-0.2,0-0.3c0-0.1-0.1-0.2-0.3-0.2h-1.7
		c-0.1,0-0.2,0-0.3,0.1c-0.1,0-0.2,0.1-0.2,0.3l-1.2,3.8c-0.1,0.5-0.3,0.8-0.5,1.1c-0.2,0.3-0.4,0.5-0.7,0.7
		c-0.3,0.2-0.5,0.3-0.8,0.3c-0.3,0.1-0.6,0.1-0.9,0.1h-2.1v-5.9c0-0.2,0-0.3-0.1-0.4c-0.1-0.1-0.2-0.1-0.4-0.1h-1.7
		c-0.2,0-0.3,0-0.4,0.1c-0.1,0.1-0.1,0.2-0.1,0.4v5.9h-2.1c-0.3,0-0.6,0-0.9-0.1c-0.3-0.1-0.6-0.2-0.8-0.3c-0.3-0.2-0.5-0.4-0.7-0.7
		c-0.2-0.3-0.4-0.7-0.5-1.1l-1.2-3.8c0-0.2-0.1-0.3-0.2-0.3c-0.1,0-0.2-0.1-0.3-0.1h-1.7c-0.2,0-0.3,0.1-0.3,0.2
		c0,0.1-0.1,0.2,0,0.3l1.2,4c0.2,0.7,0.4,1.2,0.7,1.7c0.3,0.5,0.7,0.9,1.3,1.1l0,0.1c-0.8,0.2-1.4,0.6-1.7,1.1
		c-0.3,0.5-0.6,1.1-0.8,1.7l-1.6,5.3c0,0.1,0,0.2,0,0.3c0,0.1,0.2,0.2,0.4,0.2h1.8c0.1,0,0.2,0,0.3,0c0.1,0,0.2-0.1,0.2-0.3l1.5-5.1
		c0.2-0.8,0.6-1.3,1.2-1.7c0.6-0.3,1.2-0.5,1.8-0.5h2.4v7.1c0,0.2,0,0.3,0.1,0.4c0.1,0.1,0.2,0.1,0.4,0.1h1.7c0.2,0,0.3,0,0.4-0.1
		c0.1-0.1,0.1-0.2,0.1-0.4v-7.1h2.4c0.6,0,1.2,0.2,1.8,0.5c0.6,0.3,1,0.9,1.2,1.7l1.5,5.1c0,0.2,0.1,0.3,0.2,0.3c0.1,0,0.2,0,0.3,0
		h1.8c0.2,0,0.3-0.1,0.4-0.2c0-0.1,0-0.2,0-0.3L-925.5,3905.6z M-949.7,3895.4c-0.1-0.1-0.2-0.1-0.4-0.1h-1.7c-0.2,0-0.3,0-0.4,0.1
		c-0.1,0.1-0.1,0.2-0.1,0.4v15.2c0,0.2,0,0.3,0.1,0.4c0.1,0.1,0.2,0.1,0.4,0.1h1.7c0.2,0,0.3,0,0.4-0.1c0.1-0.1,0.1-0.2,0.1-0.4
		v-15.2C-949.6,3895.6-949.7,3895.5-949.7,3895.4z M-890.2,3910.9l-1.6-5.3c-0.2-0.7-0.5-1.2-0.8-1.7c-0.3-0.5-0.9-0.9-1.7-1.1
		l0-0.1c0.6-0.2,1-0.6,1.3-1.1c0.3-0.5,0.5-1.1,0.7-1.7l1.2-4c0-0.1,0-0.2,0-0.3c0-0.1-0.1-0.2-0.3-0.2h-1.7c-0.1,0-0.2,0-0.3,0.1
		c-0.1,0-0.2,0.1-0.2,0.3l-1.2,3.8c-0.1,0.5-0.3,0.8-0.5,1.1c-0.2,0.3-0.4,0.5-0.7,0.7c-0.3,0.2-0.5,0.3-0.8,0.3
		c-0.3,0.1-0.6,0.1-0.9,0.1h-2.6v-5.9c0-0.2,0-0.3-0.1-0.4c-0.1-0.1-0.2-0.1-0.4-0.1h-1.7c-0.2,0-0.3,0-0.4,0.1
		c-0.1,0.1-0.1,0.2-0.1,0.4v15.2c0,0.2,0,0.3,0.1,0.4c0.1,0.1,0.2,0.1,0.4,0.1h1.7c0.2,0,0.3,0,0.4-0.1c0.1-0.1,0.1-0.2,0.1-0.4
		v-7.1h3c0.6,0,1.2,0.2,1.8,0.5c0.6,0.3,1,0.9,1.2,1.7l1.5,5.1c0,0.2,0.1,0.3,0.2,0.3c0.1,0,0.2,0,0.3,0h1.8c0.2,0,0.3-0.1,0.4-0.2
		C-890.2,3911.1-890.2,3911-890.2,3910.9z M-913.8,3895c-0.8,0-1.8,0.1-2.8,0.2c-1,0.1-1.9,0.4-2.7,0.7c-0.2,0.1-0.3,0.1-0.3,0.2
		c0,0.1,0,0.2,0,0.3l0.4,1.3c0,0.2,0.1,0.3,0.2,0.3c0.1,0,0.2,0,0.4-0.1c0.5-0.2,1.2-0.3,2-0.4c0.8-0.1,1.6-0.2,2.3-0.2
		c0.8,0,1.4,0.1,1.9,0.2c0.5,0.2,0.9,0.4,1.1,0.7c0.3,0.3,0.4,0.6,0.5,1c0.1,0.4,0.1,0.8,0.1,1.3v0.7h-3.7c-1.2,0-2.3,0.2-3.1,0.5
		c-0.8,0.3-1.5,0.7-2.1,1.2c-0.5,0.5-0.9,1.1-1.1,1.8c-0.2,0.7-0.4,1.3-0.4,2c0,0.7,0.1,1.3,0.3,1.9c0.2,0.6,0.5,1.2,1,1.6
		c0.5,0.5,1.2,0.8,2,1.1c0.8,0.3,1.9,0.4,3.3,0.4c1,0,2-0.1,3.1-0.2c1.1-0.1,2.1-0.4,3-0.8c0.3-0.1,0.5-0.4,0.5-0.8v-9.6
		c0-1.7-0.5-3.1-1.4-4C-910.2,3895.5-911.7,3895-913.8,3895z M-910.6,3909c-0.3,0.1-0.7,0.2-1,0.3c-0.4,0.1-0.7,0.1-1.1,0.2
		c-0.4,0.1-0.7,0.1-1,0.1c-0.3,0-0.5,0-0.7,0c-0.6,0-1.1,0-1.5-0.1c-0.5-0.1-0.9-0.2-1.2-0.5c-0.3-0.2-0.6-0.5-0.8-0.9
		c-0.2-0.4-0.3-0.8-0.3-1.4c0-0.7,0.1-1.3,0.4-1.7c0.3-0.4,0.7-0.7,1.1-0.9c0.4-0.2,0.9-0.3,1.4-0.4c0.5-0.1,0.9-0.1,1.3-0.1h3.6
		V3909z"/>
	<g>
		<g>
			<path class="st0" d="M-947.9,3893c0.9,0,1.7-0.7,1.7-1.7c0-0.9-0.8-1.7-1.7-1.7c-0.9,0-1.7,0.8-1.7,1.7
				C-949.6,3892.3-948.8,3893-947.9,3893z"/>
			<path class="st0" d="M-953.3,3893.1c1.4,0,2.5-1.1,2.5-2.5c0-1.4-1.1-2.5-2.5-2.5c-1.4,0-2.5,1.1-2.5,2.5
				C-955.8,3892-954.6,3893.1-953.3,3893.1z"/>
		</g>
	</g>
	<path class="st2" d="M-983.1,3895.4h-1.5c-0.2,0-0.4,0-0.4,0.1c-0.1,0.1-0.1,0.2-0.1,0.4v5.8h-7.9v-5.8c0-0.2,0-0.4-0.1-0.4
		c-0.1-0.1-0.2-0.1-0.4-0.1h-1.5c-0.2,0-0.4,0-0.5,0.1c-0.1,0.1-0.2,0.2-0.2,0.4v15c0,0.2,0.1,0.4,0.2,0.4c0.1,0.1,0.3,0.1,0.5,0.1
		h1.5c0.2,0,0.3,0,0.4-0.1c0.1-0.1,0.1-0.2,0.1-0.4v-6.9h7.9v6.9c0,0.2,0,0.4,0.1,0.4c0.1,0.1,0.2,0.1,0.4,0.1h1.5
		c0.2,0,0.4,0,0.4-0.1c0.1-0.1,0.1-0.2,0.1-0.4v-15c0-0.2,0-0.4-0.1-0.4C-982.7,3895.4-982.9,3895.4-983.1,3895.4z M-1032.2,3895.4
		h-12.3c-0.2,0-0.4,0.1-0.4,0.2c-0.1,0.1-0.1,0.2-0.1,0.4v1.2c0,0.2,0,0.3,0.1,0.4c0.1,0.1,0.2,0.1,0.4,0.1h4.7v13.2
		c0,0.2,0,0.4,0.1,0.4c0.1,0.1,0.2,0.1,0.4,0.1h1.5c0.2,0,0.3,0,0.4-0.1c0.1-0.1,0.1-0.2,0.1-0.4v-13.2h5c0.2,0,0.4,0,0.5-0.1
		c0.1-0.1,0.1-0.2,0.1-0.4v-1.2c0-0.2,0-0.3-0.1-0.4C-1031.8,3895.4-1032,3895.4-1032.2,3895.4z M-965.8,3897.2
		c-1.2-1.5-3-2.2-5.3-2.2c-1,0-2,0.2-2.8,0.6c-0.9,0.4-1.6,0.9-2.3,1.6c-0.6,0.7-1.1,1.6-1.5,2.6c-0.4,1-0.5,2.2-0.5,3.6
		c0,2.8,0.6,4.8,1.8,6.2c1.2,1.4,3,2.1,5.3,2.1c2.3,0,4.1-0.7,5.4-2.2c1.2-1.4,1.8-3.5,1.8-6.3
		C-964,3900.7-964.6,3898.7-965.8,3897.2z M-966.8,3905.7c-0.1,0.7-0.4,1.4-0.7,2c-0.3,0.6-0.8,1-1.4,1.4c-0.6,0.3-1.3,0.5-2.2,0.5
		c-0.9,0-1.6-0.2-2.1-0.5c-0.6-0.3-1-0.7-1.4-1.3c-0.3-0.5-0.6-1.2-0.7-2c-0.1-0.8-0.2-1.6-0.2-2.5c0-0.8,0.1-1.6,0.3-2.3
		c0.2-0.7,0.5-1.4,0.8-1.9c0.4-0.6,0.8-1,1.4-1.3c0.6-0.3,1.2-0.5,2-0.5c0.9,0,1.6,0.2,2.2,0.5c0.6,0.3,1,0.8,1.3,1.4
		c0.3,0.6,0.6,1.2,0.7,2c0.1,0.7,0.2,1.5,0.2,2.3C-966.6,3904.2-966.7,3905-966.8,3905.7z M-1004.7,3902.8l4.7-7
		c0-0.1,0.1-0.1,0-0.2c0-0.1-0.1-0.2-0.3-0.2h-2c-0.2,0-0.3,0-0.4,0.1c-0.1,0.1-0.2,0.2-0.3,0.3l-3.3,5.3l-3.3-5.3
		c-0.1-0.1-0.1-0.2-0.2-0.3c-0.1-0.1-0.2-0.1-0.4-0.1h-2.1c-0.2,0-0.3,0.1-0.3,0.2c0,0.1,0,0.2,0.1,0.3l4.6,7.1l-5.3,8.1
		c-0.2,0.3-0.1,0.5,0.2,0.5h2c0.2,0,0.4,0,0.4-0.1c0.1-0.1,0.2-0.2,0.3-0.3l3.9-6.2l3.8,6.2c0.1,0.1,0.1,0.2,0.2,0.3
		c0.1,0.1,0.2,0.1,0.5,0.1h2.2c0.2,0,0.2-0.1,0.2-0.2s0-0.2-0.1-0.3L-1004.7,3902.8z M-1017.1,3896.9c-0.5-0.6-1.2-1.1-2.1-1.4
		c-0.8-0.3-1.9-0.5-3-0.5c-1,0-2,0.2-2.8,0.6c-0.9,0.4-1.6,0.9-2.2,1.6c-0.6,0.7-1.1,1.6-1.5,2.6c-0.4,1.1-0.5,2.3-0.5,3.6
		c0,1.4,0.2,2.7,0.5,3.7c0.3,1,0.8,1.9,1.5,2.6c0.6,0.7,1.4,1.2,2.3,1.5c0.9,0.3,1.9,0.5,3.1,0.5c0.8,0,1.6-0.1,2.5-0.2
		c0.8-0.2,1.6-0.5,2.4-0.9c0.3-0.1,0.3-0.3,0.2-0.6l-0.6-1.3c-0.1-0.2-0.3-0.3-0.6-0.2c-0.4,0.2-1,0.4-1.6,0.6
		c-0.7,0.2-1.3,0.3-2,0.3c-0.7,0-1.3-0.1-1.9-0.3c-0.6-0.2-1.1-0.5-1.5-0.9c-0.4-0.4-0.8-1-1.1-1.6c-0.3-0.7-0.4-1.5-0.4-2.4h8.8
		c0.3,0,0.6,0,0.9-0.1c0.3-0.1,0.5-0.2,0.7-0.4c0.2-0.2,0.4-0.4,0.5-0.7c0.1-0.3,0.2-0.7,0.2-1.2c0-1-0.1-1.9-0.4-2.7
		C-1016.2,3898.2-1016.6,3897.5-1017.1,3896.9z M-1026.5,3902c0-0.6,0.2-1.2,0.4-1.8c0.2-0.6,0.5-1.1,0.8-1.5
		c0.4-0.4,0.8-0.8,1.3-1.1c0.5-0.3,1.1-0.4,1.8-0.4c0.8,0,1.5,0.1,2,0.4c0.5,0.3,1,0.6,1.3,1c0.3,0.4,0.5,0.9,0.7,1.5
		c0.1,0.6,0.2,1.2,0.2,1.8H-1026.5z"/>
</g>
</svg>
