<svg width="377" height="264" viewBox="0 0 377 264" fill="none" xmlns="http://www.w3.org/2000/svg">
<path fill-rule="evenodd" clip-rule="evenodd" d="M245 1H5C2.79086 1 1 2.79086 1 5V186C1 188.209 2.79086 190 5 190H245C247.209 190 249 188.209 249 186V5C249 2.79086 247.209 1 245 1ZM5 0C2.23858 0 0 2.23857 0 5V186C0 188.761 2.23857 191 5 191H245C247.761 191 250 188.761 250 186V5C250 2.23858 247.761 0 245 0H5Z" fill="#E6E6E6"/>
<path d="M0 5C0 2.23858 2.23858 0 5 0H245C247.761 0 250 2.23858 250 5V35H0V5Z" fill="#0FA7F0"/>
<path d="M21 58C21 56.3431 22.3431 55 24 55H226C227.657 55 229 56.3431 229 58V67C229 68.6569 227.657 70 226 70H24C22.3431 70 21 68.6569 21 67V58Z" fill="#E6E6E6"/>
<path d="M26 61C26 59.8954 26.8954 59 28 59H69C70.1046 59 71 59.8954 71 61V64C71 65.1046 70.1046 66 69 66H28C26.8954 66 26 65.1046 26 64V61Z" fill="#B3B3B3"/>
<path d="M77 61C77 59.8954 77.8954 59 79 59H120C121.105 59 122 59.8954 122 61V64C122 65.1046 121.105 66 120 66H79C77.8954 66 77 65.1046 77 64V61Z" fill="#B3B3B3"/>
<path d="M128 61C128 59.8954 128.895 59 130 59H171C172.105 59 173 59.8954 173 61V64C173 65.1046 172.105 66 171 66H130C128.895 66 128 65.1046 128 64V61Z" fill="#B3B3B3"/>
<path d="M179 61C179 59.8954 179.895 59 181 59H222C223.105 59 224 59.8954 224 61V64C224 65.1046 223.105 66 222 66H181C179.895 66 179 65.1046 179 64V61Z" fill="#B3B3B3"/>
<path fill-rule="evenodd" clip-rule="evenodd" d="M229 88H21V87H229V88Z" fill="#E1E1E9"/>
<path d="M26 77C26 75.8954 26.8954 75 28 75H69C70.1046 75 71 75.8954 71 77V80C71 81.1046 70.1046 82 69 82H28C26.8954 82 26 81.1046 26 80V77Z" fill="#B3B3B3"/>
<path d="M77 77C77 75.8954 77.8954 75 79 75H120C121.105 75 122 75.8954 122 77V80C122 81.1046 121.105 82 120 82H79C77.8954 82 77 81.1046 77 80V77Z" fill="#E6E6E6"/>
<path d="M128 77C128 75.8954 128.895 75 130 75H171C172.105 75 173 75.8954 173 77V80C173 81.1046 172.105 82 171 82H130C128.895 82 128 81.1046 128 80V77Z" fill="#E6E6E6"/>
<path d="M179 77C179 75.8954 179.895 75 181 75H222C223.105 75 224 75.8954 224 77V80C224 81.1046 223.105 82 222 82H181C179.895 82 179 81.1046 179 80V77Z" fill="#E6E6E6"/>
<path fill-rule="evenodd" clip-rule="evenodd" d="M229 106H21V105H229V106Z" fill="#E1E1E9"/>
<path d="M26 95C26 93.8954 26.8954 93 28 93H69C70.1046 93 71 93.8954 71 95V98C71 99.1046 70.1046 100 69 100H28C26.8954 100 26 99.1046 26 98V95Z" fill="#B3B3B3"/>
<path d="M77 95C77 93.8954 77.8954 93 79 93H120C121.105 93 122 93.8954 122 95V98C122 99.1046 121.105 100 120 100H79C77.8954 100 77 99.1046 77 98V95Z" fill="#E6E6E6"/>
<path d="M128 95C128 93.8954 128.895 93 130 93H171C172.105 93 173 93.8954 173 95V98C173 99.1046 172.105 100 171 100H130C128.895 100 128 99.1046 128 98V95Z" fill="#E6E6E6"/>
<path d="M179 95C179 93.8954 179.895 93 181 93H222C223.105 93 224 93.8954 224 95V98C224 99.1046 223.105 100 222 100H181C179.895 100 179 99.1046 179 98V95Z" fill="#E6E6E6"/>
<path fill-rule="evenodd" clip-rule="evenodd" d="M229 124H21V123H229V124Z" fill="#E1E1E9"/>
<path d="M26 113C26 111.895 26.8954 111 28 111H69C70.1046 111 71 111.895 71 113V116C71 117.105 70.1046 118 69 118H28C26.8954 118 26 117.105 26 116V113Z" fill="#B3B3B3"/>
<path d="M77 113C77 111.895 77.8954 111 79 111H120C121.105 111 122 111.895 122 113V116C122 117.105 121.105 118 120 118H79C77.8954 118 77 117.105 77 116V113Z" fill="#E6E6E6"/>
<path d="M128 113C128 111.895 128.895 111 130 111H171C172.105 111 173 111.895 173 113V116C173 117.105 172.105 118 171 118H130C128.895 118 128 117.105 128 116V113Z" fill="#E6E6E6"/>
<path d="M179 113C179 111.895 179.895 111 181 111H222C223.105 111 224 111.895 224 113V116C224 117.105 223.105 118 222 118H181C179.895 118 179 117.105 179 116V113Z" fill="#E6E6E6"/>
<path fill-rule="evenodd" clip-rule="evenodd" d="M229 142H21V141H229V142Z" fill="#E1E1E9"/>
<path d="M26 131C26 129.895 26.8954 129 28 129H69C70.1046 129 71 129.895 71 131V134C71 135.105 70.1046 136 69 136H28C26.8954 136 26 135.105 26 134V131Z" fill="#B3B3B3"/>
<path d="M77 131C77 129.895 77.8954 129 79 129H120C121.105 129 122 129.895 122 131V134C122 135.105 121.105 136 120 136H79C77.8954 136 77 135.105 77 134V131Z" fill="#E6E6E6"/>
<path d="M128 131C128 129.895 128.895 129 130 129H171C172.105 129 173 129.895 173 131V134C173 135.105 172.105 136 171 136H130C128.895 136 128 135.105 128 134V131Z" fill="#E6E6E6"/>
<path d="M179 131C179 129.895 179.895 129 181 129H222C223.105 129 224 129.895 224 131V134C224 135.105 223.105 136 222 136H181C179.895 136 179 135.105 179 134V131Z" fill="#E6E6E6"/>
<path fill-rule="evenodd" clip-rule="evenodd" d="M229 160H21V159H229V160Z" fill="#E1E1E9"/>
<path d="M26 149C26 147.895 26.8954 147 28 147H69C70.1046 147 71 147.895 71 149V152C71 153.105 70.1046 154 69 154H28C26.8954 154 26 153.105 26 152V149Z" fill="#B3B3B3"/>
<path d="M77 149C77 147.895 77.8954 147 79 147H120C121.105 147 122 147.895 122 149V152C122 153.105 121.105 154 120 154H79C77.8954 154 77 153.105 77 152V149Z" fill="#E6E6E6"/>
<path d="M128 149C128 147.895 128.895 147 130 147H171C172.105 147 173 147.895 173 149V152C173 153.105 172.105 154 171 154H130C128.895 154 128 153.105 128 152V149Z" fill="#E6E6E6"/>
<path d="M179 149C179 147.895 179.895 147 181 147H222C223.105 147 224 147.895 224 149V152C224 153.105 223.105 154 222 154H181C179.895 154 179 153.105 179 152V149Z" fill="#E6E6E6"/>
<path d="M26 167C26 165.895 26.8954 165 28 165H69C70.1046 165 71 165.895 71 167V170C71 171.105 70.1046 172 69 172H28C26.8954 172 26 171.105 26 170V167Z" fill="#B3B3B3"/>
<path d="M77 167C77 165.895 77.8954 165 79 165H120C121.105 165 122 165.895 122 167V170C122 171.105 121.105 172 120 172H79C77.8954 172 77 171.105 77 170V167Z" fill="#E6E6E6"/>
<path d="M128 167C128 165.895 128.895 165 130 165H171C172.105 165 173 165.895 173 167V170C173 171.105 172.105 172 171 172H130C128.895 172 128 171.105 128 170V167Z" fill="#E6E6E6"/>
<path d="M179 167C179 165.895 179.895 165 181 165H222C223.105 165 224 165.895 224 167V170C224 171.105 223.105 172 222 172H181C179.895 172 179 171.105 179 170V167Z" fill="#E6E6E6"/>
<path d="M13.208 11.8H22.472V13.96H19.032V23H16.648V13.96H13.208V11.8ZM28.9018 21.016C28.9018 21.3573 29.0831 21.528 29.4458 21.528C29.5951 21.528 29.7338 21.5067 29.8618 21.464V22.92C29.4564 23.0693 29.0458 23.144 28.6298 23.144C27.8191 23.144 27.2538 22.856 26.9338 22.28C26.1338 22.9093 25.2111 23.224 24.1658 23.224C23.4084 23.224 22.7684 23.016 22.2458 22.6C21.7338 22.1733 21.4778 21.5973 21.4778 20.872C21.4778 20.264 21.6591 19.7573 22.0218 19.352C22.3844 18.9467 22.8058 18.6747 23.2858 18.536C23.7658 18.3867 24.2884 18.312 24.8538 18.312C25.4831 18.312 26.0911 18.3813 26.6778 18.52V18.248C26.6778 17.8533 26.5231 17.5387 26.2138 17.304C25.9044 17.0693 25.4564 16.952 24.8698 16.952C24.0164 16.952 23.1098 17.144 22.1497 17.528V15.608C23.1738 15.2667 24.1658 15.096 25.1258 15.096C27.6431 15.096 28.9018 16.2533 28.9018 18.568V21.016ZM25.3658 19.64C24.9071 19.64 24.5231 19.7253 24.2138 19.896C23.9044 20.0667 23.7498 20.3333 23.7498 20.696C23.7498 20.9733 23.8618 21.2027 24.0858 21.384C24.3204 21.5547 24.6084 21.64 24.9498 21.64C25.6218 21.64 26.1978 21.432 26.6778 21.016V19.816C26.1871 19.6987 25.7498 19.64 25.3658 19.64ZM38.9094 19.496C38.9094 20.68 38.5307 21.5973 37.7734 22.248C37.016 22.8987 36.0347 23.224 34.8294 23.224C33.6134 23.224 32.6267 22.8453 31.8694 22.088C31.112 21.32 30.7334 20.152 30.7334 18.584C30.7334 16.0987 31.5174 14.3653 33.0854 13.384C33.704 13 34.3707 12.728 35.0854 12.568C35.8107 12.408 36.44 12.2747 36.9734 12.168C37.5174 12.0613 37.9387 11.864 38.2374 11.576V13.608C37.8747 13.9067 37.2614 14.1253 36.3974 14.264C35.544 14.392 34.8827 14.5787 34.4134 14.824C34.008 15.048 33.688 15.3627 33.4534 15.768C33.2187 16.1627 33.0694 16.5733 33.0054 17C33.5814 16.2 34.4134 15.8 35.5014 15.8C36.4827 15.8 37.2934 16.1307 37.9334 16.792C38.584 17.4533 38.9094 18.3547 38.9094 19.496ZM33.0054 19.512C33.0054 20.0133 33.1547 20.4613 33.4534 20.856C33.752 21.2507 34.2107 21.448 34.8294 21.448C35.448 21.448 35.9014 21.256 36.1894 20.872C36.488 20.4773 36.6374 20.024 36.6374 19.512C36.6374 19 36.488 18.552 36.1894 18.168C35.9014 17.7733 35.448 17.576 34.8294 17.576C34.2214 17.576 33.7627 17.7787 33.4534 18.184C33.1547 18.5787 33.0054 19.0213 33.0054 19.512ZM43.6958 17.08C43.6318 18.0187 43.5411 18.8293 43.4238 19.512C43.3171 20.184 43.1571 20.8133 42.9438 21.4C42.7304 21.976 42.4424 22.4133 42.0798 22.712C41.7171 23.0107 41.2798 23.16 40.7678 23.16C40.3731 23.16 39.9678 23.0853 39.5518 22.936V21.176C39.7118 21.24 39.8664 21.272 40.0158 21.272C40.5704 21.272 40.9598 20.776 41.1838 19.784C41.4078 18.792 41.5624 17.304 41.6478 15.32H47.8878V23H45.6638V17.08H43.6958ZM51.7081 23H49.7721V15.32H51.9961V19.64L55.4201 15.32H57.3401V23H55.1321V18.68L51.7081 23ZM67.8493 25.032H65.8013V23H59.2253V15.32H61.4493V21.128H64.4733V15.32H66.6973V21.176H67.8493V25.032ZM76.1049 21.016C76.1049 21.3573 76.2862 21.528 76.6489 21.528C76.7982 21.528 76.9369 21.5067 77.0649 21.464V22.92C76.6595 23.0693 76.2489 23.144 75.8329 23.144C75.0222 23.144 74.4569 22.856 74.1369 22.28C73.3369 22.9093 72.4142 23.224 71.3689 23.224C70.6115 23.224 69.9715 23.016 69.4489 22.6C68.9369 22.1733 68.6809 21.5973 68.6809 20.872C68.6809 20.264 68.8622 19.7573 69.2249 19.352C69.5875 18.9467 70.0089 18.6747 70.4889 18.536C70.9689 18.3867 71.4915 18.312 72.0569 18.312C72.6862 18.312 73.2942 18.3813 73.8809 18.52V18.248C73.8809 17.8533 73.7262 17.5387 73.4169 17.304C73.1075 17.0693 72.6595 16.952 72.0729 16.952C71.2195 16.952 70.3129 17.144 69.3529 17.528V15.608C70.3769 15.2667 71.3689 15.096 72.3289 15.096C74.8462 15.096 76.1049 16.2533 76.1049 18.568V21.016ZM72.5689 19.64C72.1102 19.64 71.7262 19.7253 71.4169 19.896C71.1075 20.0667 70.9529 20.3333 70.9529 20.696C70.9529 20.9733 71.0649 21.2027 71.2889 21.384C71.5235 21.5547 71.8115 21.64 72.1529 21.64C72.8249 21.64 73.4009 21.432 73.8809 21.016V19.816C73.3902 19.6987 72.9529 19.64 72.5689 19.64Z" fill="white"/>
<rect x="127.5" y="73.5" width="249" height="190" rx="4.5" fill="white" stroke="#E6E6E6"/>
<path opacity="0.6" d="M311 184C311 216.585 284.585 243 252 243C219.415 243 193 216.585 193 184C193 151.415 219.415 125 252 125C284.585 125 311 151.415 311 184Z" fill="#FFE264"/>
<path d="M311 184C311 197.931 306.07 211.412 297.084 222.058C288.098 232.703 275.635 239.825 261.902 242.163C248.169 244.501 234.051 241.904 222.049 234.832C210.046 227.76 200.934 216.669 196.324 203.523C191.714 190.377 191.905 176.024 196.862 163.005C201.819 149.986 211.223 139.141 223.409 132.39C235.595 125.64 249.777 123.419 263.443 126.12C277.109 128.822 289.379 136.273 298.079 147.153L252 184H311Z" fill="#F28100"/>
<path d="M311 184C311 196.75 306.87 209.156 299.228 219.362C291.586 229.568 280.844 237.024 268.61 240.613C256.376 244.203 243.308 243.733 231.364 239.273C219.42 234.814 209.241 226.605 202.353 215.877C195.464 205.148 192.236 192.477 193.153 179.76C194.069 167.043 199.08 154.965 207.435 145.335C215.791 135.705 227.041 129.04 239.501 126.339C251.962 123.638 264.962 125.046 276.555 130.353L252 184H311Z" fill="#0FA7F0"/>
<path d="M127 78C127 75.2386 129.239 73 132 73H372C374.761 73 377 75.2386 377 78V108H127V78Z" fill="#0FA7F0"/>
<path d="M143.6 96H141.2V84.8H149.024V86.96H143.6V96ZM150.506 89.44C151.135 88.544 152.063 88.096 153.29 88.096C154.452 88.096 155.364 88.496 156.026 89.296C156.698 90.0853 157.034 91.04 157.034 92.16C157.034 93.28 156.698 94.24 156.026 95.04C155.364 95.8293 154.452 96.224 153.29 96.224C152.234 96.224 151.391 95.8773 150.762 95.184V99.52H148.538V88.32H150.506V89.44ZM154.218 93.728C154.58 93.3013 154.762 92.7787 154.762 92.16C154.762 91.5413 154.58 91.024 154.218 90.608C153.855 90.1813 153.364 89.968 152.746 89.968C152.287 89.968 151.876 90.0907 151.514 90.336C151.162 90.5813 150.906 90.8853 150.746 91.248V93.072C150.906 93.4347 151.162 93.7387 151.514 93.984C151.876 94.2293 152.287 94.352 152.746 94.352C153.364 94.352 153.855 94.144 154.218 93.728ZM165.355 94.016C165.355 94.3573 165.536 94.528 165.899 94.528C166.048 94.528 166.187 94.5067 166.315 94.464V95.92C165.91 96.0693 165.499 96.144 165.083 96.144C164.272 96.144 163.707 95.856 163.387 95.28C162.587 95.9093 161.664 96.224 160.619 96.224C159.862 96.224 159.222 96.016 158.699 95.6C158.187 95.1733 157.931 94.5973 157.931 93.872C157.931 93.264 158.112 92.7573 158.475 92.352C158.838 91.9467 159.259 91.6747 159.739 91.536C160.219 91.3867 160.742 91.312 161.307 91.312C161.936 91.312 162.544 91.3813 163.131 91.52V91.248C163.131 90.8533 162.976 90.5387 162.667 90.304C162.358 90.0693 161.91 89.952 161.323 89.952C160.47 89.952 159.563 90.144 158.603 90.528V88.608C159.627 88.2667 160.619 88.096 161.579 88.096C164.096 88.096 165.355 89.2533 165.355 91.568V94.016ZM161.819 92.64C161.36 92.64 160.976 92.7253 160.667 92.896C160.358 93.0667 160.203 93.3333 160.203 93.696C160.203 93.9733 160.315 94.2027 160.539 94.384C160.774 94.5547 161.062 94.64 161.403 94.64C162.075 94.64 162.651 94.432 163.131 94.016V92.816C162.64 92.6987 162.203 92.64 161.819 92.64ZM173.603 99.52H171.491V96.224C170.189 96.1707 169.123 95.7813 168.291 95.056C167.469 94.32 167.059 93.3547 167.059 92.16C167.059 90.9653 167.469 90.0053 168.291 89.28C169.123 88.544 170.189 88.1493 171.491 88.096V84.8H173.603V88.096C174.904 88.1493 175.965 88.544 176.787 89.28C177.619 90.0053 178.035 90.9653 178.035 92.16C178.035 93.3547 177.619 94.32 176.787 95.056C175.965 95.7813 174.904 96.1707 173.603 96.224V99.52ZM169.859 90.64C169.475 91.0453 169.283 91.552 169.283 92.16C169.283 92.768 169.475 93.28 169.859 93.696C170.243 94.1013 170.792 94.3253 171.507 94.368V89.952C170.792 89.9947 170.243 90.224 169.859 90.64ZM173.619 89.952V94.368C174.333 94.3253 174.883 94.1013 175.267 93.696C175.651 93.28 175.843 92.768 175.843 92.16C175.843 91.552 175.651 91.0453 175.267 90.64C174.883 90.224 174.333 89.9947 173.619 89.952ZM181.411 96H179.475V88.32H181.699V92.64L185.123 88.32H187.043V96H184.835V91.68L181.411 96ZM191.152 96H188.928V88.32H191.152V91.184H192.08L194.032 88.32H196.528L193.888 92.112L196.752 96H194.256L192.048 92.96H191.152V96Z" fill="white"/>
</svg>
