<svg width="465" height="216" viewBox="0 0 465 216" fill="none" xmlns="http://www.w3.org/2000/svg">
<path d="M0.5 4.99999C0.5 2.51471 2.51472 0.5 5 0.5H460C462.485 0.5 464.5 2.51472 464.5 5V211C464.5 213.485 462.485 215.5 460 215.5H5C2.51471 215.5 0.5 213.485 0.5 211V4.99999Z" fill="white" stroke="#E6E6E6"/>
<path d="M0 5C0 2.23858 2.23858 0 5 0H460C462.761 0 465 2.23858 465 5V36H0V5Z" fill="#0FA7F0"/>
<path d="M19.64 20.44C19.16 21.464 18.616 22.184 18.008 22.6C17.4107 23.016 16.728 23.224 15.96 23.224C15.4587 23.224 14.8933 23.1333 14.264 22.952V20.92C14.68 21.0587 15.112 21.128 15.56 21.128C15.9653 21.128 16.3067 21.0587 16.584 20.92C16.872 20.7707 17.1067 20.504 17.288 20.12L17.48 19.72L13.016 11.8H15.672L18.616 17.56L21.064 11.8H23.704L19.64 20.44ZM25.6211 23H23.3971V15.32H30.9491V23H28.7251V17.192H25.6211V23ZM34.8026 16.44C35.432 15.544 36.36 15.096 37.5866 15.096C38.7493 15.096 39.6613 15.496 40.3226 16.296C40.9946 17.0853 41.3306 18.04 41.3306 19.16C41.3306 20.28 40.9946 21.24 40.3226 22.04C39.6613 22.8293 38.7493 23.224 37.5866 23.224C36.5306 23.224 35.688 22.8773 35.0586 22.184V26.52H32.8346V15.32H34.8026V16.44ZM38.5146 20.728C38.8773 20.3013 39.0586 19.7787 39.0586 19.16C39.0586 18.5413 38.8773 18.024 38.5146 17.608C38.152 17.1813 37.6613 16.968 37.0426 16.968C36.584 16.968 36.1733 17.0907 35.8106 17.336C35.4586 17.5813 35.2026 17.8853 35.0426 18.248V20.072C35.2026 20.4347 35.4586 20.7387 35.8106 20.984C36.1733 21.2293 36.584 21.352 37.0426 21.352C37.6613 21.352 38.152 21.144 38.5146 20.728ZM49.6518 21.016C49.6518 21.3573 49.8331 21.528 50.1958 21.528C50.3451 21.528 50.4838 21.5067 50.6118 21.464V22.92C50.2064 23.0693 49.7958 23.144 49.3798 23.144C48.5691 23.144 48.0038 22.856 47.6838 22.28C46.8838 22.9093 45.9611 23.224 44.9158 23.224C44.1584 23.224 43.5184 23.016 42.9958 22.6C42.4838 22.1733 42.2278 21.5973 42.2278 20.872C42.2278 20.264 42.4091 19.7573 42.7718 19.352C43.1344 18.9467 43.5558 18.6747 44.0358 18.536C44.5158 18.3867 45.0384 18.312 45.6038 18.312C46.2331 18.312 46.8411 18.3813 47.4278 18.52V18.248C47.4278 17.8533 47.2731 17.5387 46.9638 17.304C46.6544 17.0693 46.2064 16.952 45.6198 16.952C44.7664 16.952 43.8598 17.144 42.8997 17.528V15.608C43.9238 15.2667 44.9158 15.096 45.8758 15.096C48.3931 15.096 49.6518 16.2533 49.6518 18.568V21.016ZM46.1158 19.64C45.6571 19.64 45.2731 19.7253 44.9638 19.896C44.6544 20.0667 44.4998 20.3333 44.4998 20.696C44.4998 20.9733 44.6118 21.2027 44.8358 21.384C45.0704 21.5547 45.3584 21.64 45.6998 21.64C46.3718 21.64 46.9478 21.432 47.4278 21.016V19.816C46.9371 19.6987 46.4998 19.64 46.1158 19.64ZM56.5074 23H51.8034V15.32H56.3794C57.2327 15.32 57.8674 15.5173 58.2834 15.912C58.6994 16.296 58.9074 16.776 58.9074 17.352C58.9074 18.2267 58.5127 18.8133 57.7234 19.112C58.63 19.4107 59.0834 20.0133 59.0834 20.92C59.0834 21.528 58.8807 22.0293 58.4754 22.424C58.07 22.808 57.414 23 56.5074 23ZM54.0274 19.816V21.48H55.8514C56.534 21.48 56.8754 21.208 56.8754 20.664C56.8754 20.0987 56.534 19.816 55.8514 19.816H54.0274ZM54.0114 16.84V18.472H55.7074C56.3474 18.472 56.6674 18.2053 56.6674 17.672C56.6674 17.1173 56.342 16.84 55.6914 16.84H54.0114ZM63.9926 17.08C63.9286 18.0187 63.838 18.8293 63.7206 19.512C63.614 20.184 63.454 20.8133 63.2406 21.4C63.0273 21.976 62.7393 22.4133 62.3766 22.712C62.014 23.0107 61.5766 23.16 61.0646 23.16C60.67 23.16 60.2646 23.0853 59.8486 22.936V21.176C60.0086 21.24 60.1633 21.272 60.3126 21.272C60.8673 21.272 61.2566 20.776 61.4806 19.784C61.7046 18.792 61.8593 17.304 61.9446 15.32H68.1846V23H65.9606V17.08H63.9926ZM69.637 19.16C69.637 18.4667 69.7597 17.8533 70.005 17.32C70.2503 16.776 70.5703 16.3493 70.965 16.04C71.3703 15.7307 71.7917 15.496 72.229 15.336C72.677 15.176 73.1303 15.096 73.589 15.096C74.357 15.096 75.0183 15.24 75.573 15.528C76.1383 15.816 76.5543 16.1893 76.821 16.648C77.0877 17.096 77.269 17.608 77.365 18.184C77.4717 18.7493 77.445 19.3147 77.285 19.88H71.877C71.9943 20.4133 72.3037 20.8133 72.805 21.08C73.3063 21.336 73.8983 21.464 74.581 21.464C75.4237 21.464 76.197 21.3093 76.901 21V22.744C76.1437 23.064 75.205 23.224 74.085 23.224C72.805 23.224 71.7437 22.8667 70.901 22.152C70.0583 21.4373 69.637 20.44 69.637 19.16ZM75.285 18.44C75.3383 18.088 75.237 17.7253 74.981 17.352C74.725 16.9787 74.2877 16.792 73.669 16.792C73.1783 16.792 72.757 16.9413 72.405 17.24C72.053 17.528 71.8717 17.928 71.861 18.44H75.285ZM81.0118 23H78.7878V15.32H81.0118V18.232H84.1158V15.32H86.3398V23H84.1158V20.088H81.0118V23ZM90.1613 23H88.2253V15.32H90.4493V19.64L93.8733 15.32H95.7933V23H93.5853V18.68L90.1613 23ZM97.2464 19.16C97.2464 18.4667 97.369 17.8533 97.6144 17.32C97.8597 16.776 98.1797 16.3493 98.5744 16.04C98.9797 15.7307 99.401 15.496 99.8384 15.336C100.286 15.176 100.74 15.096 101.198 15.096C101.966 15.096 102.628 15.24 103.182 15.528C103.748 15.816 104.164 16.1893 104.43 16.648C104.697 17.096 104.878 17.608 104.974 18.184C105.081 18.7493 105.054 19.3147 104.894 19.88H99.4864C99.6037 20.4133 99.913 20.8133 100.414 21.08C100.916 21.336 101.508 21.464 102.19 21.464C103.033 21.464 103.806 21.3093 104.51 21V22.744C103.753 23.064 102.814 23.224 101.694 23.224C100.414 23.224 99.353 22.8667 98.5104 22.152C97.6677 21.4373 97.2464 20.44 97.2464 19.16ZM102.894 18.44C102.948 18.088 102.846 17.7253 102.59 17.352C102.334 16.9787 101.897 16.792 101.278 16.792C100.788 16.792 100.366 16.9413 100.014 17.24C99.6624 17.528 99.481 17.928 99.4704 18.44H102.894ZM112.168 23H109.944V15.32H112.168V18.184H113.096L115.048 15.32H117.544L114.904 19.112L117.768 23H115.272L113.064 19.96H112.168V23ZM119.103 22.152C118.282 21.4373 117.871 20.44 117.871 19.16C117.871 17.88 118.282 16.8827 119.103 16.168C119.925 15.4533 120.927 15.096 122.111 15.096C123.306 15.096 124.309 15.4533 125.119 16.168C125.941 16.8827 126.351 17.88 126.351 19.16C126.351 20.44 125.941 21.4373 125.119 22.152C124.309 22.8667 123.306 23.224 122.111 23.224C120.927 23.224 119.925 22.8667 119.103 22.152ZM123.567 20.664C123.919 20.2693 124.095 19.768 124.095 19.16C124.095 18.552 123.919 18.056 123.567 17.672C123.215 17.2773 122.73 17.08 122.111 17.08C121.493 17.08 121.007 17.2773 120.655 17.672C120.314 18.056 120.143 18.552 120.143 19.16C120.143 19.768 120.314 20.2693 120.655 20.664C121.007 21.048 121.493 21.24 122.111 21.24C122.73 21.24 123.215 21.048 123.567 20.664ZM130.027 23H127.803V15.32H130.027V18.232H133.131V15.32H135.355V23H133.131V20.088H130.027V23ZM143.337 26.52H141.225V23.224C139.924 23.1707 138.857 22.7813 138.025 22.056C137.204 21.32 136.793 20.3547 136.793 19.16C136.793 17.9653 137.204 17.0053 138.025 16.28C138.857 15.544 139.924 15.1493 141.225 15.096V11.8H143.337V15.096C144.638 15.1493 145.7 15.544 146.521 16.28C147.353 17.0053 147.769 17.9653 147.769 19.16C147.769 20.3547 147.353 21.32 146.521 22.056C145.7 22.7813 144.638 23.1707 143.337 23.224V26.52ZM139.593 17.64C139.209 18.0453 139.017 18.552 139.017 19.16C139.017 19.768 139.209 20.28 139.593 20.696C139.977 21.1013 140.526 21.3253 141.241 21.368V16.952C140.526 16.9947 139.977 17.224 139.593 17.64ZM143.353 16.952V21.368C144.068 21.3253 144.617 21.1013 145.001 20.696C145.385 20.28 145.577 19.768 145.577 19.16C145.577 18.552 145.385 18.0453 145.001 17.64C144.617 17.224 144.068 16.9947 143.353 16.952ZM151.146 23H149.21V15.32H151.434V19.64L154.858 15.32H156.778V23H154.57V18.68L151.146 23ZM160.887 23H158.663V15.32H164.519V17.192H160.887V23ZM169.406 20.504L171.31 15.32H173.614L170.206 23.928C169.448 25.7947 168.344 26.728 166.894 26.728C166.584 26.728 166.184 26.6693 165.694 26.552V24.712C166.046 24.7867 166.35 24.824 166.606 24.824C167.416 24.824 168.024 24.264 168.43 23.144L168.446 23.112L164.814 15.32H167.166L169.406 20.504ZM176.693 16.44C177.323 15.544 178.251 15.096 179.477 15.096C180.64 15.096 181.552 15.496 182.213 16.296C182.885 17.0853 183.221 18.04 183.221 19.16C183.221 20.28 182.885 21.24 182.213 22.04C181.552 22.8293 180.64 23.224 179.477 23.224C178.421 23.224 177.579 22.8773 176.949 22.184V26.52H174.725V15.32H176.693V16.44ZM180.405 20.728C180.768 20.3013 180.949 19.7787 180.949 19.16C180.949 18.5413 180.768 18.024 180.405 17.608C180.043 17.1813 179.552 16.968 178.933 16.968C178.475 16.968 178.064 17.0907 177.701 17.336C177.349 17.5813 177.093 17.8853 176.933 18.248V20.072C177.093 20.4347 177.349 20.7387 177.701 20.984C178.064 21.2293 178.475 21.352 178.933 21.352C179.552 21.352 180.043 21.144 180.405 20.728ZM191.542 21.016C191.542 21.3573 191.724 21.528 192.086 21.528C192.236 21.528 192.374 21.5067 192.502 21.464V22.92C192.097 23.0693 191.686 23.144 191.27 23.144C190.46 23.144 189.894 22.856 189.574 22.28C188.774 22.9093 187.852 23.224 186.806 23.224C186.049 23.224 185.409 23.016 184.886 22.6C184.374 22.1733 184.118 21.5973 184.118 20.872C184.118 20.264 184.3 19.7573 184.662 19.352C185.025 18.9467 185.446 18.6747 185.926 18.536C186.406 18.3867 186.929 18.312 187.494 18.312C188.124 18.312 188.732 18.3813 189.318 18.52V18.248C189.318 17.8533 189.164 17.5387 188.854 17.304C188.545 17.0693 188.097 16.952 187.51 16.952C186.657 16.952 185.75 17.144 184.79 17.528V15.608C185.814 15.2667 186.806 15.096 187.766 15.096C190.284 15.096 191.542 16.2533 191.542 18.568V21.016ZM188.006 19.64C187.548 19.64 187.164 19.7253 186.854 19.896C186.545 20.0667 186.39 20.3333 186.39 20.696C186.39 20.9733 186.502 21.2027 186.726 21.384C186.961 21.5547 187.249 21.64 187.59 21.64C188.262 21.64 188.838 21.432 189.318 21.016V19.816C188.828 19.6987 188.39 19.64 188.006 19.64ZM202.318 25.032H200.27V23H193.694V15.32H195.918V21.128H198.942V15.32H201.166V21.176H202.318V25.032ZM205.646 23H203.71V15.32H205.934V19.64L209.358 15.32H211.278V23H209.07V18.68L205.646 23ZM214.987 23H212.491L214.507 20.424C213.995 20.2 213.605 19.8747 213.339 19.448C213.072 19.0213 212.939 18.5413 212.939 18.008C212.939 17.2507 213.205 16.616 213.739 16.104C214.283 15.5813 215.04 15.32 216.011 15.32H220.171V23H217.947V20.712H216.699L214.987 23ZM215.195 18.072C215.195 18.3813 215.301 18.6213 215.515 18.792C215.739 18.9627 216.053 19.048 216.459 19.048H217.947V17.08H216.459C215.616 17.08 215.195 17.4107 215.195 18.072ZM224.213 23H222.053V15.32H224.181L226.565 19.128L228.965 15.32H231.077V23H228.933V18.472L227.125 21.336H226.021L224.213 18.472V23ZM234.896 23H232.96V15.32H235.184V19.64L238.608 15.32H240.528V23H238.32V18.68L234.896 23Z" fill="white"/>
<line x1="23" y1="124.5" x2="443" y2="124.5" stroke="#E6E6E6"/>
<line x1="23" y1="162.5" x2="443" y2="162.5" stroke="#E6E6E6"/>
<path d="M26.6 68H24.2V56.8H26.6V61.248H28.408L31.24 56.8H33.912L30.28 62.256L34.12 68H31.464L28.408 63.424H26.6V68ZM35.1815 67.152C34.3602 66.4373 33.9495 65.44 33.9495 64.16C33.9495 62.88 34.3602 61.8827 35.1815 61.168C36.0028 60.4533 37.0055 60.096 38.1895 60.096C39.3842 60.096 40.3868 60.4533 41.1975 61.168C42.0188 61.8827 42.4295 62.88 42.4295 64.16C42.4295 65.44 42.0188 66.4373 41.1975 67.152C40.3868 67.8667 39.3842 68.224 38.1895 68.224C37.0055 68.224 36.0028 67.8667 35.1815 67.152ZM39.6455 65.664C39.9975 65.2693 40.1735 64.768 40.1735 64.16C40.1735 63.552 39.9975 63.056 39.6455 62.672C39.2935 62.2773 38.8082 62.08 38.1895 62.08C37.5708 62.08 37.0855 62.2773 36.7335 62.672C36.3922 63.056 36.2215 63.552 36.2215 64.16C36.2215 64.768 36.3922 65.2693 36.7335 65.664C37.0855 66.048 37.5708 66.24 38.1895 66.24C38.8082 66.24 39.2935 66.048 39.6455 65.664ZM46.1055 68H43.8815V60.32H46.1055V63.232H49.2095V60.32H51.4335V68H49.2095V65.088H46.1055V68ZM59.415 71.52H57.303V68.224C56.0017 68.1707 54.935 67.7813 54.103 67.056C53.2817 66.32 52.871 65.3547 52.871 64.16C52.871 62.9653 53.2817 62.0053 54.103 61.28C54.935 60.544 56.0017 60.1493 57.303 60.096V56.8H59.415V60.096C60.7163 60.1493 61.7777 60.544 62.599 61.28C63.431 62.0053 63.847 62.9653 63.847 64.16C63.847 65.3547 63.431 66.32 62.599 67.056C61.7777 67.7813 60.7163 68.1707 59.415 68.224V71.52ZM55.671 62.64C55.287 63.0453 55.095 63.552 55.095 64.16C55.095 64.768 55.287 65.28 55.671 65.696C56.055 66.1013 56.6043 66.3253 57.319 66.368V61.952C56.6043 61.9947 56.055 62.224 55.671 62.64ZM59.431 61.952V66.368C60.1457 66.3253 60.695 66.1013 61.079 65.696C61.463 65.28 61.655 64.768 61.655 64.16C61.655 63.552 61.463 63.0453 61.079 62.64C60.695 62.224 60.1457 61.9947 59.431 61.952ZM67.2238 68H65.2878V60.32H67.5118V64.64L70.9358 60.32H72.8558V68H70.6478V63.68L67.2238 68ZM76.9649 68H74.7409V60.32H80.5969V62.192H76.9649V68ZM85.4838 65.504L87.3878 60.32H89.6918L86.2838 68.928C85.5264 70.7947 84.4224 71.728 82.9718 71.728C82.6624 71.728 82.2624 71.6693 81.7718 71.552V69.712C82.1238 69.7867 82.4278 69.824 82.6838 69.824C83.4944 69.824 84.1024 69.264 84.5078 68.144L84.5238 68.112L80.8918 60.32H83.2438L85.4838 65.504ZM92.7714 61.44C93.4007 60.544 94.3287 60.096 95.5554 60.096C96.718 60.096 97.63 60.496 98.2914 61.296C98.9634 62.0853 99.2994 63.04 99.2994 64.16C99.2994 65.28 98.9634 66.24 98.2914 67.04C97.63 67.8293 96.718 68.224 95.5554 68.224C94.4994 68.224 93.6567 67.8773 93.0274 67.184V71.52H90.8034V60.32H92.7714V61.44ZM96.4834 65.728C96.846 65.3013 97.0274 64.7787 97.0274 64.16C97.0274 63.5413 96.846 63.024 96.4834 62.608C96.1207 62.1813 95.63 61.968 95.0114 61.968C94.5527 61.968 94.142 62.0907 93.7794 62.336C93.4274 62.5813 93.1714 62.8853 93.0114 63.248V65.072C93.1714 65.4347 93.4274 65.7387 93.7794 65.984C94.142 66.2293 94.5527 66.352 95.0114 66.352C95.63 66.352 96.1207 66.144 96.4834 65.728ZM107.621 66.016C107.621 66.3573 107.802 66.528 108.165 66.528C108.314 66.528 108.453 66.5067 108.581 66.464V67.92C108.175 68.0693 107.765 68.144 107.349 68.144C106.538 68.144 105.973 67.856 105.653 67.28C104.853 67.9093 103.93 68.224 102.885 68.224C102.127 68.224 101.487 68.016 100.965 67.6C100.453 67.1733 100.197 66.5973 100.197 65.872C100.197 65.264 100.378 64.7573 100.741 64.352C101.103 63.9467 101.525 63.6747 102.005 63.536C102.485 63.3867 103.007 63.312 103.573 63.312C104.202 63.312 104.81 63.3813 105.397 63.52V63.248C105.397 62.8533 105.242 62.5387 104.933 62.304C104.623 62.0693 104.175 61.952 103.589 61.952C102.735 61.952 101.829 62.144 100.868 62.528V60.608C101.893 60.2667 102.885 60.096 103.845 60.096C106.362 60.096 107.621 61.2533 107.621 63.568V66.016ZM104.085 64.64C103.626 64.64 103.242 64.7253 102.933 64.896C102.623 65.0667 102.469 65.3333 102.469 65.696C102.469 65.9733 102.581 66.2027 102.805 66.384C103.039 66.5547 103.327 66.64 103.669 66.64C104.341 66.64 104.917 66.432 105.397 66.016V64.816C104.906 64.6987 104.469 64.64 104.085 64.64ZM118.396 70.032H116.348V68H109.772V60.32H111.996V66.128H115.02V60.32H117.244V66.176H118.396V70.032ZM121.724 68H119.788V60.32H122.012V64.64L125.436 60.32H127.356V68H125.148V63.68L121.724 68ZM131.177 68H129.241V60.32H131.465V64.64L134.889 60.32H136.809V68H134.601V63.68L131.177 68Z" fill="#454545"/>
<path d="M389.96 64.592C389.714 63.8987 389.592 63.168 389.592 62.4C389.592 61.632 389.714 60.9013 389.96 60.208C390.216 59.5147 390.584 58.896 391.064 58.352C391.554 57.808 392.184 57.376 392.952 57.056C393.72 56.736 394.584 56.576 395.544 56.576C396.504 56.576 397.368 56.736 398.136 57.056C398.904 57.376 399.528 57.808 400.008 58.352C400.498 58.896 400.866 59.5147 401.112 60.208C401.368 60.9013 401.496 61.632 401.496 62.4C401.496 63.168 401.368 63.8987 401.112 64.592C400.866 65.2853 400.498 65.904 400.008 66.448C399.528 66.992 398.904 67.424 398.136 67.744C397.368 68.064 396.504 68.224 395.544 68.224C394.584 68.224 393.72 68.064 392.952 67.744C392.184 67.424 391.554 66.992 391.064 66.448C390.584 65.904 390.216 65.2853 389.96 64.592ZM398.12 64.976C398.728 64.2933 399.032 63.4347 399.032 62.4C399.032 61.3653 398.728 60.5067 398.12 59.824C397.512 59.1413 396.653 58.8 395.544 58.8C394.424 58.8 393.56 59.1413 392.952 59.824C392.344 60.5067 392.04 61.3653 392.04 62.4C392.04 63.4347 392.344 64.2933 392.952 64.976C393.56 65.6587 394.424 66 395.544 66C396.653 66 397.512 65.6587 398.12 64.976ZM410.878 64.496C410.878 65.68 410.499 66.5973 409.742 67.248C408.985 67.8987 408.003 68.224 406.798 68.224C405.582 68.224 404.595 67.8453 403.838 67.088C403.081 66.32 402.702 65.152 402.702 63.584C402.702 61.0987 403.486 59.3653 405.054 58.384C405.673 58 406.339 57.728 407.054 57.568C407.779 57.408 408.409 57.2747 408.942 57.168C409.486 57.0613 409.907 56.864 410.206 56.576V58.608C409.843 58.9067 409.23 59.1253 408.366 59.264C407.513 59.392 406.851 59.5787 406.382 59.824C405.977 60.048 405.657 60.3627 405.422 60.768C405.187 61.1627 405.038 61.5733 404.974 62C405.55 61.2 406.382 60.8 407.47 60.8C408.451 60.8 409.262 61.1307 409.902 61.792C410.553 62.4533 410.878 63.3547 410.878 64.496ZM404.974 64.512C404.974 65.0133 405.123 65.4613 405.422 65.856C405.721 66.2507 406.179 66.448 406.798 66.448C407.417 66.448 407.87 66.256 408.158 65.872C408.457 65.4773 408.606 65.024 408.606 64.512C408.606 64 408.457 63.552 408.158 63.168C407.87 62.7733 407.417 62.576 406.798 62.576C406.19 62.576 405.731 62.7787 405.422 63.184C405.123 63.5787 404.974 64.0213 404.974 64.512ZM424.638 70.032H422.59V68H412.35V60.32H414.574V66.128H416.814V60.32H419.022V66.128H421.278V60.32H423.486V66.176H424.638V70.032ZM432.902 66.016C432.902 66.3573 433.083 66.528 433.446 66.528C433.595 66.528 433.734 66.5067 433.862 66.464V67.92C433.456 68.0693 433.046 68.144 432.63 68.144C431.819 68.144 431.254 67.856 430.934 67.28C430.134 67.9093 429.211 68.224 428.166 68.224C427.408 68.224 426.768 68.016 426.246 67.6C425.734 67.1733 425.478 66.5973 425.478 65.872C425.478 65.264 425.659 64.7573 426.022 64.352C426.384 63.9467 426.806 63.6747 427.286 63.536C427.766 63.3867 428.288 63.312 428.854 63.312C429.483 63.312 430.091 63.3813 430.678 63.52V63.248C430.678 62.8533 430.523 62.5387 430.214 62.304C429.904 62.0693 429.456 61.952 428.87 61.952C428.016 61.952 427.11 62.144 426.15 62.528V60.608C427.174 60.2667 428.166 60.096 429.126 60.096C431.643 60.096 432.902 61.2533 432.902 63.568V66.016ZM429.366 64.64C428.907 64.64 428.523 64.7253 428.214 64.896C427.904 65.0667 427.75 65.3333 427.75 65.696C427.75 65.9733 427.862 66.2027 428.086 66.384C428.32 66.5547 428.608 66.64 428.95 66.64C429.622 66.64 430.198 66.432 430.678 66.016V64.816C430.187 64.6987 429.75 64.64 429.366 64.64ZM436.877 68H434.381L436.397 65.424C435.885 65.2 435.496 64.8747 435.229 64.448C434.963 64.0213 434.829 63.5413 434.829 63.008C434.829 62.2507 435.096 61.616 435.629 61.104C436.173 60.5813 436.931 60.32 437.901 60.32H442.061V68H439.837V65.712H438.589L436.877 68ZM437.085 63.072C437.085 63.3813 437.192 63.6213 437.405 63.792C437.629 63.9627 437.944 64.048 438.349 64.048H439.837V62.08H438.349C437.507 62.08 437.085 62.4107 437.085 63.072Z" fill="#454545"/>
<path d="M24.568 110H23.112L27.992 98.8H29.48L34.344 110H32.904L31.752 107.296H25.72L24.568 110ZM28.552 100.608L26.248 106.048H31.224L28.904 100.608C28.8827 100.555 28.824 100.411 28.728 100.176C28.632 100.421 28.5733 100.565 28.552 100.608ZM36.9328 110H35.6528V102.32H36.9328V105.568H41.3808V102.32H42.6608V110H41.3808V106.752H36.9328V110ZM51.2678 108.4C51.2678 108.795 51.4651 108.992 51.8598 108.992C52.0304 108.992 52.2278 108.955 52.4518 108.88V109.92C52.1318 110.037 51.8118 110.096 51.4918 110.096C50.7558 110.096 50.2864 109.787 50.0838 109.168C49.2624 109.851 48.2651 110.192 47.0918 110.192C46.3451 110.192 45.7051 109.995 45.1718 109.6C44.6491 109.195 44.3878 108.613 44.3878 107.856C44.3878 106.949 44.7238 106.293 45.3958 105.888C46.0784 105.472 46.8998 105.264 47.8598 105.264C48.5638 105.264 49.2731 105.344 49.9878 105.504V105.232C49.9878 104.645 49.7958 104.181 49.4118 103.84C49.0278 103.488 48.4891 103.312 47.7958 103.312C46.8251 103.312 45.8918 103.504 44.9958 103.888V102.64C45.9984 102.299 46.9744 102.128 47.9238 102.128C48.9691 102.128 49.7851 102.411 50.3718 102.976C50.9691 103.531 51.2678 104.336 51.2678 105.392V108.4ZM45.6998 107.792C45.6998 108.219 45.8598 108.544 46.1798 108.768C46.5104 108.981 46.9051 109.088 47.3638 109.088C48.4198 109.088 49.2944 108.715 49.9878 107.968V106.56C49.2624 106.411 48.6118 106.336 48.0358 106.336C47.3851 106.336 46.8304 106.453 46.3718 106.688C45.9238 106.912 45.6998 107.28 45.6998 107.792ZM56.5446 103.504C56.4913 104.347 56.4273 105.083 56.3526 105.712C56.278 106.341 56.1713 106.949 56.0326 107.536C55.894 108.112 55.7233 108.581 55.5206 108.944C55.3286 109.307 55.0833 109.595 54.7846 109.808C54.486 110.021 54.1446 110.128 53.7606 110.128C53.4513 110.128 53.142 110.069 52.8326 109.952V108.944C53.0033 109.008 53.174 109.04 53.3446 109.04C53.9846 109.04 54.4486 108.48 54.7366 107.36C55.0353 106.229 55.222 104.549 55.2966 102.32H60.9446V110H59.6646V103.504H56.5446ZM64.397 110H63.309V102.32H64.589V107.936L69.293 102.32H70.381V110H69.101V104.384L64.397 110ZM78.4905 107.936C78.4905 108.651 78.1812 109.205 77.5625 109.6C76.9545 109.995 76.1118 110.192 75.0345 110.192C73.9572 110.192 73.0132 109.995 72.2025 109.6V108.384C72.9812 108.8 73.8718 109.008 74.8745 109.008C76.4318 109.008 77.2105 108.603 77.2105 107.792C77.2105 107.056 76.6452 106.688 75.5145 106.688H73.8345V105.504H75.5145C76.5385 105.504 77.0505 105.173 77.0505 104.512C77.0505 104.107 76.8585 103.803 76.4745 103.6C76.0905 103.397 75.5785 103.296 74.9385 103.296C74.0105 103.296 73.1412 103.499 72.3305 103.904V102.704C73.1945 102.309 74.1118 102.112 75.0825 102.112C76.1278 102.112 76.9278 102.315 77.4825 102.72C78.0478 103.115 78.3305 103.653 78.3305 104.336C78.3305 104.795 78.2025 105.173 77.9465 105.472C77.6905 105.771 77.3438 105.968 76.9065 106.064C77.3652 106.181 77.7438 106.405 78.0425 106.736C78.3412 107.067 78.4905 107.467 78.4905 107.936ZM90.5959 108.4C90.5959 108.795 90.7932 108.992 91.1879 108.992C91.3585 108.992 91.5559 108.955 91.7799 108.88V109.92C91.4599 110.037 91.1399 110.096 90.8199 110.096C90.0839 110.096 89.6145 109.787 89.4119 109.168C88.5905 109.851 87.5932 110.192 86.4199 110.192C85.6732 110.192 85.0332 109.995 84.4999 109.6C83.9772 109.195 83.7159 108.613 83.7159 107.856C83.7159 106.949 84.0519 106.293 84.7239 105.888C85.4065 105.472 86.2279 105.264 87.1879 105.264C87.8919 105.264 88.6012 105.344 89.3159 105.504V105.232C89.3159 104.645 89.1239 104.181 88.7399 103.84C88.3559 103.488 87.8172 103.312 87.1239 103.312C86.1532 103.312 85.2199 103.504 84.3239 103.888V102.64C85.3265 102.299 86.3025 102.128 87.2519 102.128C88.2972 102.128 89.1132 102.411 89.6999 102.976C90.2972 103.531 90.5959 104.336 90.5959 105.392V108.4ZM85.0279 107.792C85.0279 108.219 85.1879 108.544 85.5079 108.768C85.8385 108.981 86.2332 109.088 86.6919 109.088C87.7479 109.088 88.6225 108.715 89.3159 107.968V106.56C88.5905 106.411 87.9399 106.336 87.3639 106.336C86.7132 106.336 86.1585 106.453 85.6999 106.688C85.2519 106.912 85.0279 107.28 85.0279 107.792ZM94.4328 110H93.1528V102.32H94.4328V105.568H98.8808V102.32H100.161V110H98.8808V106.752H94.4328V110ZM108.768 108.4C108.768 108.795 108.965 108.992 109.36 108.992C109.53 108.992 109.728 108.955 109.952 108.88V109.92C109.632 110.037 109.312 110.096 108.992 110.096C108.256 110.096 107.786 109.787 107.584 109.168C106.762 109.851 105.765 110.192 104.592 110.192C103.845 110.192 103.205 109.995 102.672 109.6C102.149 109.195 101.888 108.613 101.888 107.856C101.888 106.949 102.224 106.293 102.896 105.888C103.578 105.472 104.4 105.264 105.36 105.264C106.064 105.264 106.773 105.344 107.488 105.504V105.232C107.488 104.645 107.296 104.181 106.912 103.84C106.528 103.488 105.989 103.312 105.296 103.312C104.325 103.312 103.392 103.504 102.496 103.888V102.64C103.498 102.299 104.474 102.128 105.424 102.128C106.469 102.128 107.285 102.411 107.872 102.976C108.469 103.531 108.768 104.336 108.768 105.392V108.4ZM103.2 107.792C103.2 108.219 103.36 108.544 103.68 108.768C104.01 108.981 104.405 109.088 104.864 109.088C105.92 109.088 106.794 108.715 107.488 107.968V106.56C106.762 106.411 106.112 106.336 105.536 106.336C104.885 106.336 104.33 106.453 103.872 106.688C103.424 106.912 103.2 107.28 103.2 107.792ZM114.045 103.504C113.991 104.347 113.927 105.083 113.853 105.712C113.778 106.341 113.671 106.949 113.533 107.536C113.394 108.112 113.223 108.581 113.021 108.944C112.829 109.307 112.583 109.595 112.285 109.808C111.986 110.021 111.645 110.128 111.261 110.128C110.951 110.128 110.642 110.069 110.333 109.952V108.944C110.503 109.008 110.674 109.04 110.845 109.04C111.485 109.04 111.949 108.48 112.237 107.36C112.535 106.229 112.722 104.549 112.797 102.32H118.445V110H117.165V103.504H114.045ZM121.497 109.12C120.686 108.395 120.281 107.408 120.281 106.16C120.281 104.912 120.686 103.931 121.497 103.216C122.308 102.491 123.268 102.128 124.377 102.128C125.497 102.128 126.457 102.491 127.257 103.216C128.068 103.931 128.473 104.912 128.473 106.16C128.473 107.408 128.068 108.395 127.257 109.12C126.457 109.835 125.497 110.192 124.377 110.192C123.268 110.192 122.308 109.835 121.497 109.12ZM126.393 108.224C126.926 107.712 127.193 107.024 127.193 106.16C127.193 105.296 126.926 104.613 126.393 104.112C125.86 103.6 125.188 103.344 124.377 103.344C123.566 103.344 122.894 103.6 122.361 104.112C121.828 104.613 121.561 105.296 121.561 106.16C121.561 107.024 121.828 107.712 122.361 108.224C122.894 108.725 123.566 108.976 124.377 108.976C125.188 108.976 125.86 108.725 126.393 108.224ZM131.589 110H130.309V102.32H135.925V103.504H131.589V110ZM137.794 109.12C136.983 108.395 136.578 107.408 136.578 106.16C136.578 104.912 136.983 103.931 137.794 103.216C138.605 102.491 139.565 102.128 140.674 102.128C141.794 102.128 142.754 102.491 143.554 103.216C144.365 103.931 144.77 104.912 144.77 106.16C144.77 107.408 144.365 108.395 143.554 109.12C142.754 109.835 141.794 110.192 140.674 110.192C139.565 110.192 138.605 109.835 137.794 109.12ZM142.69 108.224C143.223 107.712 143.49 107.024 143.49 106.16C143.49 105.296 143.223 104.613 142.69 104.112C142.157 103.6 141.485 103.344 140.674 103.344C139.863 103.344 139.191 103.6 138.658 104.112C138.125 104.613 137.858 105.296 137.858 106.16C137.858 107.024 138.125 107.712 138.658 108.224C139.191 108.725 139.863 108.976 140.674 108.976C141.485 108.976 142.157 108.725 142.69 108.224ZM150.942 110H146.606V102.32H150.814C151.507 102.32 152.073 102.501 152.51 102.864C152.958 103.227 153.182 103.739 153.182 104.4C153.182 104.784 153.086 105.131 152.894 105.44C152.702 105.749 152.457 105.968 152.158 106.096C152.51 106.213 152.809 106.427 153.054 106.736C153.299 107.045 153.422 107.424 153.422 107.872C153.422 108.523 153.209 109.04 152.782 109.424C152.366 109.808 151.753 110 150.942 110ZM147.886 106.672V108.88H150.766C151.683 108.88 152.142 108.517 152.142 107.792C152.142 107.045 151.699 106.672 150.814 106.672H147.886ZM147.886 103.44V105.568H150.686C151.486 105.568 151.886 105.221 151.886 104.528C151.886 104.133 151.769 103.856 151.534 103.696C151.299 103.525 151.017 103.44 150.686 103.44H147.886Z" fill="#454545"/>
<path d="M24.568 148H23.112L27.992 136.8H29.48L34.344 148H32.904L31.752 145.296H25.72L24.568 148ZM28.552 138.608L26.248 144.048H31.224L28.904 138.608C28.8827 138.555 28.824 138.411 28.728 138.176C28.632 138.421 28.5733 138.565 28.552 138.608ZM36.9328 148H35.6528V140.32H36.9328V143.568H41.3808V140.32H42.6608V148H41.3808V144.752H36.9328V148ZM51.2678 146.4C51.2678 146.795 51.4651 146.992 51.8598 146.992C52.0304 146.992 52.2278 146.955 52.4518 146.88V147.92C52.1318 148.037 51.8118 148.096 51.4918 148.096C50.7558 148.096 50.2864 147.787 50.0838 147.168C49.2624 147.851 48.2651 148.192 47.0918 148.192C46.3451 148.192 45.7051 147.995 45.1718 147.6C44.6491 147.195 44.3878 146.613 44.3878 145.856C44.3878 144.949 44.7238 144.293 45.3958 143.888C46.0784 143.472 46.8998 143.264 47.8598 143.264C48.5638 143.264 49.2731 143.344 49.9878 143.504V143.232C49.9878 142.645 49.7958 142.181 49.4118 141.84C49.0278 141.488 48.4891 141.312 47.7958 141.312C46.8251 141.312 45.8918 141.504 44.9958 141.888V140.64C45.9984 140.299 46.9744 140.128 47.9238 140.128C48.9691 140.128 49.7851 140.411 50.3718 140.976C50.9691 141.531 51.2678 142.336 51.2678 143.392V146.4ZM45.6998 145.792C45.6998 146.219 45.8598 146.544 46.1798 146.768C46.5104 146.981 46.9051 147.088 47.3638 147.088C48.4198 147.088 49.2944 146.715 49.9878 145.968V144.56C49.2624 144.411 48.6118 144.336 48.0358 144.336C47.3851 144.336 46.8304 144.453 46.3718 144.688C45.9238 144.912 45.6998 145.28 45.6998 145.792ZM56.5446 141.504C56.4913 142.347 56.4273 143.083 56.3526 143.712C56.278 144.341 56.1713 144.949 56.0326 145.536C55.894 146.112 55.7233 146.581 55.5206 146.944C55.3286 147.307 55.0833 147.595 54.7846 147.808C54.486 148.021 54.1446 148.128 53.7606 148.128C53.4513 148.128 53.142 148.069 52.8326 147.952V146.944C53.0033 147.008 53.174 147.04 53.3446 147.04C53.9846 147.04 54.4486 146.48 54.7366 145.36C55.0353 144.229 55.222 142.549 55.2966 140.32H60.9446V148H59.6646V141.504H56.5446ZM64.397 148H63.309V140.32H64.589V145.936L69.293 140.32H70.381V148H69.101V142.384L64.397 148ZM78.4905 145.936C78.4905 146.651 78.1812 147.205 77.5625 147.6C76.9545 147.995 76.1118 148.192 75.0345 148.192C73.9572 148.192 73.0132 147.995 72.2025 147.6V146.384C72.9812 146.8 73.8718 147.008 74.8745 147.008C76.4318 147.008 77.2105 146.603 77.2105 145.792C77.2105 145.056 76.6452 144.688 75.5145 144.688H73.8345V143.504H75.5145C76.5385 143.504 77.0505 143.173 77.0505 142.512C77.0505 142.107 76.8585 141.803 76.4745 141.6C76.0905 141.397 75.5785 141.296 74.9385 141.296C74.0105 141.296 73.1412 141.499 72.3305 141.904V140.704C73.1945 140.309 74.1118 140.112 75.0825 140.112C76.1278 140.112 76.9278 140.315 77.4825 140.72C78.0478 141.115 78.3305 141.653 78.3305 142.336C78.3305 142.795 78.2025 143.173 77.9465 143.472C77.6905 143.771 77.3438 143.968 76.9065 144.064C77.3652 144.181 77.7438 144.405 78.0425 144.736C78.3412 145.067 78.4905 145.467 78.4905 145.936ZM85.5079 141.6C86.3719 140.619 87.4065 140.128 88.6119 140.128C89.7105 140.128 90.6225 140.512 91.3479 141.28C92.0839 142.048 92.4519 143.008 92.4519 144.16C92.4519 145.312 92.0839 146.272 91.3479 147.04C90.6225 147.808 89.7105 148.192 88.6119 148.192C87.3959 148.192 86.4039 147.744 85.6359 146.848V151.52H84.3559V140.32H85.5079V141.6ZM90.3879 146.224C90.9105 145.701 91.1719 145.013 91.1719 144.16C91.1719 143.307 90.9105 142.619 90.3879 142.096C89.8759 141.573 89.2359 141.312 88.4679 141.312C87.8172 141.312 87.2412 141.493 86.7399 141.856C86.2385 142.219 85.8705 142.667 85.6359 143.2V145.12C85.8705 145.653 86.2385 146.101 86.7399 146.464C87.2412 146.827 87.8172 147.008 88.4679 147.008C89.2359 147.008 89.8759 146.747 90.3879 146.224ZM97.9414 148H94.2934V140.32H95.5734V143.008H97.9414C98.8587 143.008 99.584 143.243 100.117 143.712C100.651 144.181 100.917 144.779 100.917 145.504C100.917 146.229 100.651 146.827 100.117 147.296C99.584 147.765 98.8587 148 97.9414 148ZM95.5734 144.16V146.848H97.7814C98.3574 146.848 98.8054 146.736 99.1254 146.512C99.456 146.288 99.6214 145.952 99.6214 145.504C99.6214 145.056 99.456 144.72 99.1254 144.496C98.8054 144.272 98.3574 144.16 97.7814 144.16H95.5734ZM103.685 148H102.405V140.32H103.685V148ZM107.339 148H106.059V140.32H107.339V143.568H111.787V140.32H113.067V148H111.787V144.752H107.339V148ZM116.714 148H115.434V140.32H116.714V143.52H118.266L120.698 140.32H122.186L119.274 144.144L122.538 148H121.034L118.218 144.704H116.714V148ZM129.987 146.4C129.987 146.795 130.184 146.992 130.579 146.992C130.749 146.992 130.947 146.955 131.171 146.88V147.92C130.851 148.037 130.531 148.096 130.211 148.096C129.475 148.096 129.005 147.787 128.803 147.168C127.981 147.851 126.984 148.192 125.811 148.192C125.064 148.192 124.424 147.995 123.891 147.6C123.368 147.195 123.107 146.613 123.107 145.856C123.107 144.949 123.443 144.293 124.115 143.888C124.797 143.472 125.619 143.264 126.579 143.264C127.283 143.264 127.992 143.344 128.707 143.504V143.232C128.707 142.645 128.515 142.181 128.131 141.84C127.747 141.488 127.208 141.312 126.515 141.312C125.544 141.312 124.611 141.504 123.715 141.888V140.64C124.717 140.299 125.693 140.128 126.643 140.128C127.688 140.128 128.504 140.411 129.091 140.976C129.688 141.531 129.987 142.336 129.987 143.392V146.4ZM124.419 145.792C124.419 146.219 124.579 146.544 124.899 146.768C125.229 146.981 125.624 147.088 126.083 147.088C127.139 147.088 128.013 146.715 128.707 145.968V144.56C127.981 144.411 127.331 144.336 126.755 144.336C126.104 144.336 125.549 144.453 125.091 144.688C124.643 144.912 124.419 145.28 124.419 145.792Z" fill="#454545"/>
<path d="M23.72 183.48C23.72 182.243 24.0133 181.171 24.6 180.264C25.1867 179.347 25.9173 178.675 26.792 178.248C27.6667 177.821 28.6053 177.608 29.608 177.608C30.76 177.608 31.8107 177.859 32.76 178.36V179.704C31.9493 179.16 30.9733 178.888 29.832 178.888C28.552 178.888 27.4427 179.283 26.504 180.072C25.5653 180.851 25.0907 181.987 25.08 183.48C25.08 184.429 25.32 185.251 25.8 185.944C26.2907 186.637 26.888 187.139 27.592 187.448C28.3067 187.757 29.0693 187.912 29.88 187.912C31.0853 187.912 32.072 187.64 32.84 187.096V188.44C31.8693 188.941 30.7867 189.192 29.592 189.192C28.8773 189.192 28.1733 189.069 27.48 188.824C26.7867 188.568 26.1573 188.211 25.592 187.752C25.0267 187.283 24.5733 186.68 24.232 185.944C23.8907 185.197 23.72 184.376 23.72 183.48ZM38.9419 189H34.6059V181.32H38.8139C39.5072 181.32 40.0725 181.501 40.5099 181.864C40.9579 182.227 41.1819 182.739 41.1819 183.4C41.1819 183.784 41.0859 184.131 40.8939 184.44C40.7019 184.749 40.4565 184.968 40.1579 185.096C40.5099 185.213 40.8085 185.427 41.0539 185.736C41.2992 186.045 41.4219 186.424 41.4219 186.872C41.4219 187.523 41.2085 188.04 40.7819 188.424C40.3659 188.808 39.7525 189 38.9419 189ZM35.8859 185.672V187.88H38.7659C39.6832 187.88 40.1419 187.517 40.1419 186.792C40.1419 186.045 39.6992 185.672 38.8139 185.672H35.8859ZM35.8859 182.44V184.568H38.6859C39.4859 184.568 39.8859 184.221 39.8859 183.528C39.8859 183.133 39.7685 182.856 39.5339 182.696C39.2992 182.525 39.0165 182.44 38.6859 182.44H35.8859ZM44.0595 188.12C43.2488 187.395 42.8435 186.408 42.8435 185.16C42.8435 183.912 43.2488 182.931 44.0595 182.216C44.8702 181.491 45.8302 181.128 46.9395 181.128C48.0595 181.128 49.0195 181.491 49.8195 182.216C50.6302 182.931 51.0355 183.912 51.0355 185.16C51.0355 186.408 50.6302 187.395 49.8195 188.12C49.0195 188.835 48.0595 189.192 46.9395 189.192C45.8302 189.192 44.8702 188.835 44.0595 188.12ZM48.9555 187.224C49.4888 186.712 49.7555 186.024 49.7555 185.16C49.7555 184.296 49.4888 183.613 48.9555 183.112C48.4222 182.6 47.7502 182.344 46.9395 182.344C46.1288 182.344 45.4568 182.6 44.9235 183.112C44.3902 183.613 44.1235 184.296 44.1235 185.16C44.1235 186.024 44.3902 186.712 44.9235 187.224C45.4568 187.725 46.1288 187.976 46.9395 187.976C47.7502 187.976 48.4222 187.725 48.9555 187.224ZM53.1484 191.08H51.9004V187.848H52.9244C53.831 186.248 54.2684 184.072 54.2364 181.32H59.9644V187.848H61.0844V191.08H59.8364V189H53.1484V191.08ZM55.4684 182.472C55.415 184.573 55.031 186.365 54.3164 187.848H58.6844V182.472H55.4684ZM64.0734 189H62.7934V181.32H64.0734V184.52H65.6254L68.0574 181.32H69.5454L66.6334 185.144L69.8974 189H68.3934L65.5774 185.704H64.0734V189ZM77.3459 187.4C77.3459 187.795 77.5432 187.992 77.9379 187.992C78.1085 187.992 78.3059 187.955 78.5299 187.88V188.92C78.2099 189.037 77.8899 189.096 77.5699 189.096C76.8339 189.096 76.3645 188.787 76.1619 188.168C75.3405 188.851 74.3432 189.192 73.1699 189.192C72.4232 189.192 71.7832 188.995 71.2499 188.6C70.7272 188.195 70.4659 187.613 70.4659 186.856C70.4659 185.949 70.8019 185.293 71.4739 184.888C72.1565 184.472 72.9779 184.264 73.9379 184.264C74.6419 184.264 75.3512 184.344 76.0659 184.504V184.232C76.0659 183.645 75.8739 183.181 75.4899 182.84C75.1059 182.488 74.5672 182.312 73.8739 182.312C72.9032 182.312 71.9699 182.504 71.0739 182.888V181.64C72.0765 181.299 73.0525 181.128 74.0019 181.128C75.0472 181.128 75.8632 181.411 76.4499 181.976C77.0472 182.531 77.3459 183.336 77.3459 184.392V187.4ZM71.7779 186.792C71.7779 187.219 71.9379 187.544 72.2579 187.768C72.5885 187.981 72.9832 188.088 73.4419 188.088C74.4979 188.088 75.3725 187.715 76.0659 186.968V185.56C75.3405 185.411 74.6899 185.336 74.1139 185.336C73.4632 185.336 72.9085 185.453 72.4499 185.688C72.0019 185.912 71.7779 186.28 71.7779 186.792ZM91.7911 191.08H90.5431V189H83.8871V181.32H85.1671V187.816H89.3751V181.32H90.6551V187.816H91.7911V191.08ZM92.8123 185.16C92.8123 183.901 93.1963 182.915 93.9643 182.2C94.7429 181.485 95.6336 181.128 96.6363 181.128C97.5749 181.128 98.3483 181.363 98.9563 181.832C99.5749 182.301 99.9803 182.883 100.172 183.576C100.364 184.259 100.375 184.973 100.204 185.72H94.0923C94.1669 186.477 94.5029 187.048 95.1003 187.432C95.6976 187.816 96.4176 188.008 97.2603 188.008C98.1989 188.008 99.0416 187.8 99.7883 187.384V188.632C99.0736 189.005 98.1669 189.192 97.0683 189.192C95.8523 189.192 94.8389 188.845 94.0283 188.152C93.2176 187.459 92.8123 186.461 92.8123 185.16ZM99.0683 184.6C99.1003 184.376 99.0843 184.141 99.0203 183.896C98.9563 183.651 98.8389 183.405 98.6683 183.16C98.5083 182.915 98.2576 182.712 97.9163 182.552C97.5749 182.392 97.1749 182.312 96.7163 182.312C96.0229 182.312 95.4203 182.515 94.9083 182.92C94.4069 183.325 94.1349 183.885 94.0923 184.6H99.0683ZM103.355 189H102.075V181.32H103.355V184.568H107.803V181.32H109.083V189H107.803V185.752H103.355V189Z" fill="#454545"/>
<rect x="427.5" y="136.5" width="15" height="15" rx="2.5" stroke="#E6E6E6"/>
<rect x="427.5" y="177.5" width="15" height="15" rx="2.5" stroke="#E6E6E6"/>
<rect x="427" y="96" width="16" height="16" rx="3" fill="#454545"/>
<path d="M431.922 104L434.383 106.462L438.691 102.154" stroke="white" stroke-linecap="round" stroke-linejoin="round"/>
</svg>
