<svg width="432" height="342" viewBox="0 0 432 342" fill="none" xmlns="http://www.w3.org/2000/svg">
<rect width="432" height="342" rx="15" fill="white"/>
<path d="M112.553 50.3H115.472V65H112.322V55.949L108.437 61.85H106.61L102.725 55.928V65H99.575V50.3H102.494L107.534 57.944L112.553 50.3ZM127.136 62.396C127.136 62.844 127.374 63.068 127.85 63.068C128.046 63.068 128.228 63.04 128.396 62.984V64.895C127.864 65.091 127.325 65.189 126.779 65.189C125.715 65.189 124.973 64.811 124.553 64.055C123.503 64.881 122.292 65.294 120.92 65.294C119.926 65.294 119.086 65.021 118.4 64.475C117.728 63.915 117.392 63.159 117.392 62.207C117.392 61.409 117.63 60.744 118.106 60.212C118.582 59.68 119.135 59.323 119.765 59.141C120.395 58.945 121.081 58.847 121.823 58.847C122.649 58.847 123.447 58.938 124.217 59.12V58.763C124.217 58.245 124.014 57.832 123.608 57.524C123.202 57.216 122.614 57.062 121.844 57.062C120.724 57.062 119.534 57.314 118.274 57.818V55.298C119.618 54.85 120.92 54.626 122.18 54.626C125.484 54.626 127.136 56.145 127.136 59.183V62.396ZM122.495 60.59C121.893 60.59 121.389 60.702 120.983 60.926C120.577 61.15 120.374 61.5 120.374 61.976C120.374 62.34 120.521 62.641 120.815 62.879C121.123 63.103 121.501 63.215 121.949 63.215C122.831 63.215 123.587 62.942 124.217 62.396V60.821C123.573 60.667 122.999 60.59 122.495 60.59ZM132.879 65H129.96V54.92H137.646V57.377H132.879V65ZM148.054 62.396C148.054 62.844 148.292 63.068 148.768 63.068C148.964 63.068 149.146 63.04 149.314 62.984V64.895C148.782 65.091 148.243 65.189 147.697 65.189C146.633 65.189 145.891 64.811 145.471 64.055C144.421 64.881 143.21 65.294 141.838 65.294C140.844 65.294 140.004 65.021 139.318 64.475C138.646 63.915 138.31 63.159 138.31 62.207C138.31 61.409 138.548 60.744 139.024 60.212C139.5 59.68 140.053 59.323 140.683 59.141C141.313 58.945 141.999 58.847 142.741 58.847C143.567 58.847 144.365 58.938 145.135 59.12V58.763C145.135 58.245 144.932 57.832 144.526 57.524C144.12 57.216 143.532 57.062 142.762 57.062C141.642 57.062 140.452 57.314 139.192 57.818V55.298C140.536 54.85 141.838 54.626 143.098 54.626C146.402 54.626 148.054 56.145 148.054 59.183V62.396ZM143.413 60.59C142.811 60.59 142.307 60.702 141.901 60.926C141.495 61.15 141.292 61.5 141.292 61.976C141.292 62.34 141.439 62.641 141.733 62.879C142.041 63.103 142.419 63.215 142.867 63.215C143.749 63.215 144.505 62.942 145.135 62.396V60.821C144.491 60.667 143.917 60.59 143.413 60.59ZM159.152 62.207C159.152 63.061 158.732 63.789 157.892 64.391C157.052 64.979 155.82 65.273 154.196 65.273C152.684 65.273 151.403 65 150.353 64.454V62.123C150.759 62.347 151.291 62.55 151.949 62.732C152.607 62.9 153.23 62.984 153.818 62.984C155.386 62.984 156.17 62.606 156.17 61.85C156.17 61.458 155.995 61.199 155.645 61.073C155.309 60.933 154.84 60.863 154.238 60.863H152.369V58.931H154.238C155.386 58.931 155.96 58.616 155.96 57.986C155.96 57.272 155.302 56.915 153.986 56.915C153.426 56.915 152.817 56.999 152.159 57.167C151.501 57.335 150.962 57.531 150.542 57.755V55.445C151.592 54.885 152.859 54.605 154.343 54.605C155.953 54.605 157.122 54.899 157.85 55.487C158.578 56.061 158.942 56.768 158.942 57.608C158.942 58.182 158.781 58.658 158.459 59.036C158.151 59.414 157.745 59.673 157.241 59.813C158.515 60.205 159.152 61.003 159.152 62.207ZM163.652 65H161.111V54.92H164.03V60.59L168.524 54.92H171.044V65H168.146V59.33L163.652 65ZM176.437 65H173.518V54.92H176.437V58.742H180.511V54.92H183.43V65H180.511V61.178H176.437V65Z" fill="black"/>
<path d="M151.696 125H149.932V110.3H151.696V116.663H155.035L159.466 110.3H161.482L156.484 117.461L161.923 125H159.907L155.098 118.343H151.696V125ZM171.587 122.9C171.587 123.418 171.846 123.677 172.364 123.677C172.588 123.677 172.847 123.628 173.141 123.53V124.895C172.721 125.049 172.301 125.126 171.881 125.126C170.915 125.126 170.299 124.72 170.033 123.908C168.955 124.804 167.646 125.252 166.106 125.252C165.126 125.252 164.286 124.993 163.586 124.475C162.9 123.943 162.557 123.18 162.557 122.186C162.557 120.996 162.998 120.135 163.88 119.603C164.776 119.057 165.854 118.784 167.114 118.784C168.038 118.784 168.969 118.889 169.907 119.099V118.742C169.907 117.972 169.655 117.363 169.151 116.915C168.647 116.453 167.94 116.222 167.03 116.222C165.756 116.222 164.531 116.474 163.355 116.978V115.34C164.671 114.892 165.952 114.668 167.198 114.668C168.57 114.668 169.641 115.039 170.411 115.781C171.195 116.509 171.587 117.566 171.587 118.952V122.9ZM164.279 122.102C164.279 122.662 164.489 123.089 164.909 123.383C165.343 123.663 165.861 123.803 166.463 123.803C167.849 123.803 168.997 123.313 169.907 122.333V120.485C168.955 120.289 168.101 120.191 167.345 120.191C166.491 120.191 165.763 120.345 165.161 120.653C164.573 120.947 164.279 121.43 164.279 122.102ZM178.671 125H176.991V116.474H173.274V114.92H182.367V116.474H178.671V125ZM183.253 119.96C183.253 118.308 183.757 117.013 184.765 116.075C185.787 115.137 186.956 114.668 188.272 114.668C189.504 114.668 190.519 114.976 191.317 115.592C192.129 116.208 192.661 116.971 192.913 117.881C193.165 118.777 193.179 119.715 192.955 120.695H184.933C185.031 121.689 185.472 122.438 186.256 122.942C187.04 123.446 187.985 123.698 189.091 123.698C190.323 123.698 191.429 123.425 192.409 122.879V124.517C191.471 125.007 190.281 125.252 188.839 125.252C187.243 125.252 185.913 124.797 184.849 123.887C183.785 122.977 183.253 121.668 183.253 119.96ZM191.464 119.225C191.506 118.931 191.485 118.623 191.401 118.301C191.317 117.979 191.163 117.657 190.939 117.335C190.729 117.013 190.4 116.747 189.952 116.537C189.504 116.327 188.979 116.222 188.377 116.222C187.467 116.222 186.676 116.488 186.004 117.02C185.346 117.552 184.989 118.287 184.933 119.225H191.464ZM197.089 125H195.409V114.92H202.78V116.474H197.089V125ZM205.233 123.845C204.169 122.893 203.637 121.598 203.637 119.96C203.637 118.322 204.169 117.034 205.233 116.096C206.297 115.144 207.557 114.668 209.013 114.668C210.483 114.668 211.743 115.144 212.793 116.096C213.857 117.034 214.389 118.322 214.389 119.96C214.389 121.598 213.857 122.893 212.793 123.845C211.743 124.783 210.483 125.252 209.013 125.252C207.557 125.252 206.297 124.783 205.233 123.845ZM211.659 122.669C212.359 121.997 212.709 121.094 212.709 119.96C212.709 118.826 212.359 117.93 211.659 117.272C210.959 116.6 210.077 116.264 209.013 116.264C207.949 116.264 207.067 116.6 206.367 117.272C205.667 117.93 205.317 118.826 205.317 119.96C205.317 121.094 205.667 121.997 206.367 122.669C207.067 123.327 207.949 123.656 209.013 123.656C210.077 123.656 210.959 123.327 211.659 122.669ZM218.311 116.6C219.445 115.312 220.803 114.668 222.385 114.668C223.827 114.668 225.024 115.172 225.976 116.18C226.942 117.188 227.425 118.448 227.425 119.96C227.425 121.472 226.942 122.732 225.976 123.74C225.024 124.748 223.827 125.252 222.385 125.252C220.789 125.252 219.487 124.664 218.479 123.488V129.62H216.799V114.92H218.311V116.6ZM224.716 122.669C225.402 121.983 225.745 121.08 225.745 119.96C225.745 118.84 225.402 117.937 224.716 117.251C224.044 116.565 223.204 116.222 222.196 116.222C221.342 116.222 220.586 116.46 219.928 116.936C219.27 117.412 218.787 118 218.479 118.7V121.22C218.787 121.92 219.27 122.508 219.928 122.984C220.586 123.46 221.342 123.698 222.196 123.698C223.204 123.698 224.044 123.355 224.716 122.669ZM231.27 125H229.842V114.92H231.522V122.291L237.696 114.92H239.124V125H237.444V117.629L231.27 125ZM243.237 125H241.263L244.182 121.304C243.412 121.08 242.817 120.688 242.397 120.128C241.977 119.568 241.767 118.924 241.767 118.196C241.767 117.272 242.103 116.495 242.775 115.865C243.447 115.235 244.371 114.92 245.547 114.92H250.503V125H248.823V121.472H245.988L243.237 125ZM244.035 116.894C243.643 117.202 243.447 117.636 243.447 118.196C243.447 118.756 243.643 119.19 244.035 119.498C244.441 119.806 244.994 119.96 245.694 119.96H248.823V116.432H245.694C244.994 116.432 244.441 116.586 244.035 116.894ZM261.864 110.72H263.166V123.32H265.833V125H258.399V123.32H261.402V112.589L258.399 113.723V112.043L261.864 110.72Z" fill="black"/>
<path d="M152.725 175H149.575V160.3H152.725V166.138H155.098L158.815 160.3H162.322L157.555 167.461L162.595 175H159.109L155.098 168.994H152.725V175ZM172.624 172.396C172.624 172.844 172.862 173.068 173.338 173.068C173.534 173.068 173.716 173.04 173.884 172.984V174.895C173.352 175.091 172.813 175.189 172.267 175.189C171.203 175.189 170.461 174.811 170.041 174.055C168.991 174.881 167.78 175.294 166.408 175.294C165.414 175.294 164.574 175.021 163.888 174.475C163.216 173.915 162.88 173.159 162.88 172.207C162.88 171.409 163.118 170.744 163.594 170.212C164.07 169.68 164.623 169.323 165.253 169.141C165.883 168.945 166.569 168.847 167.311 168.847C168.137 168.847 168.935 168.938 169.705 169.12V168.763C169.705 168.245 169.502 167.832 169.096 167.524C168.69 167.216 168.102 167.062 167.332 167.062C166.212 167.062 165.022 167.314 163.762 167.818V165.298C165.106 164.85 166.408 164.626 167.668 164.626C170.972 164.626 172.624 166.145 172.624 169.183V172.396ZM167.983 170.59C167.381 170.59 166.877 170.702 166.471 170.926C166.065 171.15 165.862 171.5 165.862 171.976C165.862 172.34 166.009 172.641 166.303 172.879C166.611 173.103 166.989 173.215 167.437 173.215C168.319 173.215 169.075 172.942 169.705 172.396V170.821C169.061 170.667 168.487 170.59 167.983 170.59ZM180.287 175H177.389V167.377H174.176V164.92H183.5V167.377H180.287V175ZM184.233 169.96C184.233 169.05 184.394 168.245 184.716 167.545C185.038 166.831 185.458 166.271 185.976 165.865C186.508 165.459 187.061 165.151 187.635 164.941C188.223 164.731 188.818 164.626 189.42 164.626C190.428 164.626 191.296 164.815 192.024 165.193C192.766 165.571 193.312 166.061 193.662 166.663C194.012 167.251 194.25 167.923 194.376 168.679C194.516 169.421 194.481 170.163 194.271 170.905H187.173C187.327 171.605 187.733 172.13 188.391 172.48C189.049 172.816 189.826 172.984 190.722 172.984C191.828 172.984 192.843 172.781 193.767 172.375V174.664C192.773 175.084 191.541 175.294 190.071 175.294C188.391 175.294 186.998 174.825 185.892 173.887C184.786 172.949 184.233 171.64 184.233 169.96ZM191.646 169.015C191.716 168.553 191.583 168.077 191.247 167.587C190.911 167.097 190.337 166.852 189.525 166.852C188.881 166.852 188.328 167.048 187.866 167.44C187.404 167.818 187.166 168.343 187.152 169.015H191.646ZM199.162 175H196.243V164.92H203.929V167.377H199.162V175ZM206.275 173.887C205.197 172.949 204.658 171.64 204.658 169.96C204.658 168.28 205.197 166.971 206.275 166.033C207.353 165.095 208.669 164.626 210.223 164.626C211.791 164.626 213.107 165.095 214.171 166.033C215.249 166.971 215.788 168.28 215.788 169.96C215.788 171.64 215.249 172.949 214.171 173.887C213.107 174.825 211.791 175.294 210.223 175.294C208.669 175.294 207.353 174.825 206.275 173.887ZM212.134 171.934C212.596 171.416 212.827 170.758 212.827 169.96C212.827 169.162 212.596 168.511 212.134 168.007C211.672 167.489 211.035 167.23 210.223 167.23C209.411 167.23 208.774 167.489 208.312 168.007C207.864 168.511 207.64 169.162 207.64 169.96C207.64 170.758 207.864 171.416 208.312 171.934C208.774 172.438 209.411 172.69 210.223 172.69C211.035 172.69 211.672 172.438 212.134 171.934ZM220.277 166.39C221.103 165.214 222.321 164.626 223.931 164.626C225.457 164.626 226.654 165.151 227.522 166.201C228.404 167.237 228.845 168.49 228.845 169.96C228.845 171.43 228.404 172.69 227.522 173.74C226.654 174.776 225.457 175.294 223.931 175.294C222.545 175.294 221.439 174.839 220.613 173.929V179.62H217.694V164.92H220.277V166.39ZM225.149 172.018C225.625 171.458 225.863 170.772 225.863 169.96C225.863 169.148 225.625 168.469 225.149 167.923C224.673 167.363 224.029 167.083 223.217 167.083C222.615 167.083 222.076 167.244 221.6 167.566C221.138 167.888 220.802 168.287 220.592 168.763V171.157C220.802 171.633 221.138 172.032 221.6 172.354C222.076 172.676 222.615 172.837 223.217 172.837C224.029 172.837 224.673 172.564 225.149 172.018ZM233.299 175H230.758V164.92H233.677V170.59L238.171 164.92H240.691V175H237.793V169.33L233.299 175ZM245.559 175H242.283L244.929 171.619C244.257 171.325 243.746 170.898 243.396 170.338C243.046 169.778 242.871 169.148 242.871 168.448C242.871 167.454 243.221 166.621 243.921 165.949C244.635 165.263 245.629 164.92 246.903 164.92H252.363V175H249.444V171.997H247.806L245.559 175ZM245.832 168.532C245.832 168.938 245.972 169.253 246.252 169.477C246.546 169.701 246.959 169.813 247.491 169.813H249.444V167.23H247.491C246.385 167.23 245.832 167.664 245.832 168.532ZM259.573 161.938C260.987 160.93 262.625 160.426 264.487 160.426C266.013 160.426 267.259 160.783 268.225 161.497C269.205 162.211 269.695 163.261 269.695 164.647C269.695 165.725 269.345 166.649 268.645 167.419C267.959 168.175 267.021 168.903 265.831 169.603C264.431 170.429 263.57 170.989 263.248 171.283C262.87 171.647 262.674 171.99 262.66 172.312L269.8 172.291V175H259.09V173.593C259.09 172.823 259.202 172.13 259.426 171.514C259.664 170.898 260.042 170.345 260.56 169.855C261.092 169.365 261.533 169.001 261.883 168.763C262.233 168.511 262.765 168.175 263.479 167.755C263.521 167.727 263.556 167.706 263.584 167.692C263.612 167.678 263.647 167.657 263.689 167.629C263.731 167.601 263.766 167.58 263.794 167.566C263.878 167.51 264.053 167.412 264.319 167.272C264.599 167.118 264.781 167.013 264.865 166.957C264.949 166.901 265.096 166.81 265.306 166.684C265.516 166.544 265.663 166.439 265.747 166.369C265.831 166.285 265.936 166.173 266.062 166.033C266.202 165.893 266.3 165.767 266.356 165.655C266.412 165.543 266.461 165.41 266.503 165.256C266.545 165.102 266.566 164.941 266.566 164.773C266.566 164.255 266.356 163.863 265.936 163.597C265.516 163.317 264.935 163.177 264.193 163.177C262.597 163.177 261.057 163.744 259.573 164.878V161.938Z" fill="black"/>
<path d="M159.294 215.3H171.39V216.98H166.224V230H164.46V216.98H159.294V215.3ZM171.731 228.845C170.667 227.893 170.135 226.598 170.135 224.96C170.135 223.322 170.667 222.034 171.731 221.096C172.795 220.144 174.055 219.668 175.511 219.668C176.981 219.668 178.241 220.144 179.291 221.096C180.355 222.034 180.887 223.322 180.887 224.96C180.887 226.598 180.355 227.893 179.291 228.845C178.241 229.783 176.981 230.252 175.511 230.252C174.055 230.252 172.795 229.783 171.731 228.845ZM178.157 227.669C178.857 226.997 179.207 226.094 179.207 224.96C179.207 223.826 178.857 222.93 178.157 222.272C177.457 221.6 176.575 221.264 175.511 221.264C174.447 221.264 173.565 221.6 172.865 222.272C172.165 222.93 171.815 223.826 171.815 224.96C171.815 226.094 172.165 226.997 172.865 227.669C173.565 228.327 174.447 228.656 175.511 228.656C176.575 228.656 177.457 228.327 178.157 227.669ZM188.988 230H183.297V219.92H188.82C189.73 219.92 190.472 220.158 191.046 220.634C191.634 221.11 191.928 221.782 191.928 222.65C191.928 223.154 191.802 223.609 191.55 224.015C191.298 224.421 190.976 224.708 190.584 224.876C191.046 225.03 191.438 225.31 191.76 225.716C192.082 226.122 192.243 226.619 192.243 227.207C192.243 228.061 191.963 228.74 191.403 229.244C190.857 229.748 190.052 230 188.988 230ZM184.977 225.632V228.53H188.757C189.961 228.53 190.563 228.054 190.563 227.102C190.563 226.122 189.982 225.632 188.82 225.632H184.977ZM184.977 221.39V224.183H188.652C189.702 224.183 190.227 223.728 190.227 222.818C190.227 222.3 190.073 221.936 189.765 221.726C189.457 221.502 189.086 221.39 188.652 221.39H184.977ZM202.992 227.9C202.992 228.418 203.251 228.677 203.769 228.677C203.993 228.677 204.252 228.628 204.546 228.53V229.895C204.126 230.049 203.706 230.126 203.286 230.126C202.32 230.126 201.704 229.72 201.438 228.908C200.36 229.804 199.051 230.252 197.511 230.252C196.531 230.252 195.691 229.993 194.991 229.475C194.305 228.943 193.962 228.18 193.962 227.186C193.962 225.996 194.403 225.135 195.285 224.603C196.181 224.057 197.259 223.784 198.519 223.784C199.443 223.784 200.374 223.889 201.312 224.099V223.742C201.312 222.972 201.06 222.363 200.556 221.915C200.052 221.453 199.345 221.222 198.435 221.222C197.161 221.222 195.936 221.474 194.76 221.978V220.34C196.076 219.892 197.357 219.668 198.603 219.668C199.975 219.668 201.046 220.039 201.816 220.781C202.6 221.509 202.992 222.566 202.992 223.952V227.9ZM195.684 227.102C195.684 227.662 195.894 228.089 196.314 228.383C196.748 228.663 197.266 228.803 197.868 228.803C199.254 228.803 200.402 228.313 201.312 227.333V225.485C200.36 225.289 199.506 225.191 198.75 225.191C197.896 225.191 197.168 225.345 196.566 225.653C195.978 225.947 195.684 226.43 195.684 227.102ZM207.86 221.6C208.994 220.312 210.352 219.668 211.934 219.668C213.376 219.668 214.573 220.172 215.525 221.18C216.491 222.188 216.974 223.448 216.974 224.96C216.974 226.472 216.491 227.732 215.525 228.74C214.573 229.748 213.376 230.252 211.934 230.252C210.338 230.252 209.036 229.664 208.028 228.488V234.62H206.348V219.92H207.86V221.6ZM214.265 227.669C214.951 226.983 215.294 226.08 215.294 224.96C215.294 223.84 214.951 222.937 214.265 222.251C213.593 221.565 212.753 221.222 211.745 221.222C210.891 221.222 210.135 221.46 209.477 221.936C208.819 222.412 208.336 223 208.028 223.7V226.22C208.336 226.92 208.819 227.508 209.477 227.984C210.135 228.46 210.891 228.698 211.745 228.698C212.753 228.698 213.593 228.355 214.265 227.669ZM227.644 215.72H228.946V228.32H231.613V230H224.179V228.32H227.182V217.589L224.179 218.723V217.043L227.644 215.72Z" fill="black"/>
<path d="M159.294 262.3H171.39V263.98H166.224V277H164.46V263.98H159.294V262.3ZM171.731 275.845C170.667 274.893 170.135 273.598 170.135 271.96C170.135 270.322 170.667 269.034 171.731 268.096C172.795 267.144 174.055 266.668 175.511 266.668C176.981 266.668 178.241 267.144 179.291 268.096C180.355 269.034 180.887 270.322 180.887 271.96C180.887 273.598 180.355 274.893 179.291 275.845C178.241 276.783 176.981 277.252 175.511 277.252C174.055 277.252 172.795 276.783 171.731 275.845ZM178.157 274.669C178.857 273.997 179.207 273.094 179.207 271.96C179.207 270.826 178.857 269.93 178.157 269.272C177.457 268.6 176.575 268.264 175.511 268.264C174.447 268.264 173.565 268.6 172.865 269.272C172.165 269.93 171.815 270.826 171.815 271.96C171.815 273.094 172.165 273.997 172.865 274.669C173.565 275.327 174.447 275.656 175.511 275.656C176.575 275.656 177.457 275.327 178.157 274.669ZM188.988 277H183.297V266.92H188.82C189.73 266.92 190.472 267.158 191.046 267.634C191.634 268.11 191.928 268.782 191.928 269.65C191.928 270.154 191.802 270.609 191.55 271.015C191.298 271.421 190.976 271.708 190.584 271.876C191.046 272.03 191.438 272.31 191.76 272.716C192.082 273.122 192.243 273.619 192.243 274.207C192.243 275.061 191.963 275.74 191.403 276.244C190.857 276.748 190.052 277 188.988 277ZM184.977 272.632V275.53H188.757C189.961 275.53 190.563 275.054 190.563 274.102C190.563 273.122 189.982 272.632 188.82 272.632H184.977ZM184.977 268.39V271.183H188.652C189.702 271.183 190.227 270.728 190.227 269.818C190.227 269.3 190.073 268.936 189.765 268.726C189.457 268.502 189.086 268.39 188.652 268.39H184.977ZM202.992 274.9C202.992 275.418 203.251 275.677 203.769 275.677C203.993 275.677 204.252 275.628 204.546 275.53V276.895C204.126 277.049 203.706 277.126 203.286 277.126C202.32 277.126 201.704 276.72 201.438 275.908C200.36 276.804 199.051 277.252 197.511 277.252C196.531 277.252 195.691 276.993 194.991 276.475C194.305 275.943 193.962 275.18 193.962 274.186C193.962 272.996 194.403 272.135 195.285 271.603C196.181 271.057 197.259 270.784 198.519 270.784C199.443 270.784 200.374 270.889 201.312 271.099V270.742C201.312 269.972 201.06 269.363 200.556 268.915C200.052 268.453 199.345 268.222 198.435 268.222C197.161 268.222 195.936 268.474 194.76 268.978V267.34C196.076 266.892 197.357 266.668 198.603 266.668C199.975 266.668 201.046 267.039 201.816 267.781C202.6 268.509 202.992 269.566 202.992 270.952V274.9ZM195.684 274.102C195.684 274.662 195.894 275.089 196.314 275.383C196.748 275.663 197.266 275.803 197.868 275.803C199.254 275.803 200.402 275.313 201.312 274.333V272.485C200.36 272.289 199.506 272.191 198.75 272.191C197.896 272.191 197.168 272.345 196.566 272.653C195.978 272.947 195.684 273.43 195.684 274.102ZM207.86 268.6C208.994 267.312 210.352 266.668 211.934 266.668C213.376 266.668 214.573 267.172 215.525 268.18C216.491 269.188 216.974 270.448 216.974 271.96C216.974 273.472 216.491 274.732 215.525 275.74C214.573 276.748 213.376 277.252 211.934 277.252C210.338 277.252 209.036 276.664 208.028 275.488V281.62H206.348V266.92H207.86V268.6ZM214.265 274.669C214.951 273.983 215.294 273.08 215.294 271.96C215.294 270.84 214.951 269.937 214.265 269.251C213.593 268.565 212.753 268.222 211.745 268.222C210.891 268.222 210.135 268.46 209.477 268.936C208.819 269.412 208.336 270 208.028 270.7V273.22C208.336 273.92 208.819 274.508 209.477 274.984C210.135 275.46 210.891 275.698 211.745 275.698C212.753 275.698 213.593 275.355 214.265 274.669ZM224.494 263.854C225.824 262.93 227.35 262.468 229.072 262.468C230.556 262.468 231.739 262.804 232.621 263.476C233.503 264.148 233.944 265.086 233.944 266.29C233.944 266.864 233.832 267.403 233.608 267.907C233.398 268.411 233.076 268.873 232.642 269.293C232.222 269.713 231.809 270.07 231.403 270.364C231.011 270.644 230.514 270.959 229.912 271.309C229.842 271.351 229.625 271.477 229.261 271.687C228.911 271.897 228.687 272.03 228.589 272.086C228.505 272.142 228.309 272.268 228.001 272.464C227.707 272.646 227.511 272.779 227.413 272.863C227.329 272.947 227.175 273.08 226.951 273.262C226.741 273.444 226.594 273.598 226.51 273.724C226.44 273.85 226.342 274.011 226.216 274.207C226.104 274.389 226.027 274.571 225.985 274.753C225.943 274.935 225.922 275.131 225.922 275.341L234.049 275.32V277H223.99V276.16C223.99 275.376 224.116 274.669 224.368 274.039C224.62 273.395 224.977 272.849 225.439 272.401C225.915 271.939 226.384 271.554 226.846 271.246C227.308 270.924 227.847 270.581 228.463 270.217C228.603 270.147 228.708 270.091 228.778 270.049C230.052 269.307 230.885 268.74 231.277 268.348C231.879 267.732 232.18 267.039 232.18 266.269C232.18 265.569 231.893 265.037 231.319 264.673C230.759 264.295 229.961 264.106 228.925 264.106C227.413 264.106 225.936 264.61 224.494 265.618V263.854Z" fill="black"/>
<rect x="52.5" y="44.5" width="28" height="28" rx="2.5" stroke="#E6E6E6"/>
<path d="M66.5 73V168.5H95M95 117.5H67.5" stroke="#CDCDCD" stroke-dasharray="5 5"/>
<path d="M116.5 183V272.5H148.5" stroke="#CDCDCD" stroke-dasharray="5 5"/>
<path d="M117 222.5H148.5" stroke="#CDCDCD" stroke-dasharray="5 5"/>
<path d="M61 58.5H72" stroke="#0FA7F0"/>
<rect x="102.5" y="103.5" width="28" height="28" rx="2.5" stroke="#E6E6E6"/>
<path d="M111 117.5H122" stroke="#0FA7F0"/>
<line x1="116.5" y1="112" x2="116.5" y2="123" stroke="#0FA7F0"/>
<rect x="102.5" y="153.5" width="28" height="28" rx="2.5" stroke="#E6E6E6"/>
<path d="M111 167.5H122" stroke="#0FA7F0"/>
<rect x="252.5" y="212.5" width="86" height="23" rx="11.5" fill="#FFE6E4" stroke="#F64810"/>
<path d="M268.816 218.6H270.184V227H268.816V223.424H264.388V227H263.02V218.6H264.388V222.164H268.816V218.6ZM276.817 225.668C276.817 225.948 276.957 226.088 277.237 226.088C277.333 226.088 277.461 226.064 277.621 226.016V226.94C277.381 227.036 277.109 227.084 276.805 227.084C276.229 227.084 275.845 226.86 275.653 226.412C275.037 226.908 274.313 227.156 273.481 227.156C272.921 227.156 272.445 227.004 272.053 226.7C271.661 226.388 271.465 225.952 271.465 225.392C271.465 224.72 271.717 224.232 272.221 223.928C272.725 223.616 273.329 223.46 274.033 223.46C274.497 223.46 274.997 223.516 275.533 223.628V223.424C275.533 223.056 275.401 222.76 275.137 222.536C274.873 222.312 274.501 222.2 274.021 222.2C273.309 222.2 272.617 222.348 271.945 222.644V221.468C272.697 221.212 273.433 221.084 274.153 221.084C274.993 221.084 275.645 221.292 276.109 221.708C276.581 222.124 276.817 222.756 276.817 223.604V225.668ZM274.285 224.36C273.861 224.36 273.505 224.436 273.217 224.588C272.929 224.74 272.785 224.98 272.785 225.308C272.785 225.58 272.889 225.792 273.097 225.944C273.305 226.088 273.561 226.16 273.865 226.16C274.521 226.16 275.077 225.932 275.533 225.476V224.504C275.069 224.408 274.653 224.36 274.285 224.36ZM279.729 222.14C280.313 221.436 281.053 221.084 281.949 221.084C282.797 221.084 283.485 221.38 284.013 221.972C284.541 222.556 284.805 223.272 284.805 224.12C284.805 224.968 284.541 225.688 284.013 226.28C283.485 226.864 282.797 227.156 281.949 227.156C281.085 227.156 280.393 226.856 279.873 226.256V229.64H278.589V221.24H279.729V222.14ZM282.993 225.5C283.329 225.14 283.497 224.68 283.497 224.12C283.497 223.56 283.329 223.104 282.993 222.752C282.657 222.392 282.229 222.212 281.709 222.212C281.285 222.212 280.909 222.328 280.581 222.56C280.261 222.792 280.025 223.076 279.873 223.412V224.816C280.025 225.16 280.261 225.448 280.581 225.68C280.909 225.912 281.285 226.028 281.709 226.028C282.229 226.028 282.657 225.852 282.993 225.5ZM288.423 225.584L290.139 221.24H291.483L288.783 227.78C288.231 229.116 287.459 229.784 286.467 229.784C286.235 229.784 285.983 229.752 285.711 229.688V228.596C285.887 228.652 286.083 228.68 286.299 228.68C286.915 228.68 287.391 228.232 287.727 227.336L287.847 227.048L285.111 221.24H286.479L288.423 225.584ZM300.625 227H292.441V221.24H293.725V225.872H295.897V221.24H297.181V225.872H299.341V221.24H300.625V227ZM301.878 224.12C301.878 223.624 301.966 223.176 302.142 222.776C302.318 222.368 302.55 222.048 302.838 221.816C303.126 221.576 303.438 221.396 303.774 221.276C304.11 221.148 304.45 221.084 304.794 221.084C305.234 221.084 305.63 221.152 305.982 221.288C306.342 221.424 306.63 221.608 306.846 221.84C307.062 222.072 307.238 222.34 307.374 222.644C307.51 222.948 307.582 223.268 307.59 223.604C307.598 223.932 307.57 224.264 307.506 224.6H303.174C303.238 225.088 303.478 225.456 303.894 225.704C304.31 225.944 304.806 226.064 305.382 226.064C306.038 226.064 306.646 225.928 307.206 225.656V226.76C306.654 227.024 305.966 227.156 305.142 227.156C304.206 227.156 303.426 226.892 302.802 226.364C302.186 225.836 301.878 225.088 301.878 224.12ZM306.354 223.64C306.402 223.312 306.302 222.984 306.054 222.656C305.814 222.32 305.414 222.152 304.854 222.152C304.398 222.152 304.006 222.284 303.678 222.548C303.358 222.812 303.186 223.176 303.162 223.64H306.354ZM310.072 227H308.788V221.24H310.072V223.556H312.952V221.24H314.236V227H312.952V224.684H310.072V227ZM316.947 227H315.843V221.24H317.127V225.008L320.211 221.24H321.315V227H320.031V223.232L316.947 227ZM322.561 224.12C322.561 223.624 322.649 223.176 322.825 222.776C323.001 222.368 323.233 222.048 323.521 221.816C323.809 221.576 324.121 221.396 324.457 221.276C324.793 221.148 325.133 221.084 325.477 221.084C325.917 221.084 326.313 221.152 326.665 221.288C327.025 221.424 327.313 221.608 327.529 221.84C327.745 222.072 327.921 222.34 328.057 222.644C328.193 222.948 328.265 223.268 328.273 223.604C328.281 223.932 328.253 224.264 328.189 224.6H323.857C323.921 225.088 324.161 225.456 324.577 225.704C324.993 225.944 325.489 226.064 326.065 226.064C326.721 226.064 327.329 225.928 327.889 225.656V226.76C327.337 227.024 326.649 227.156 325.825 227.156C324.889 227.156 324.109 226.892 323.485 226.364C322.869 225.836 322.561 225.088 322.561 224.12ZM327.037 223.64C327.085 223.312 326.985 222.984 326.737 222.656C326.497 222.32 326.097 222.152 325.537 222.152C325.081 222.152 324.689 222.284 324.361 222.548C324.041 222.812 323.869 223.176 323.845 223.64H327.037Z" fill="#F64810"/>
<rect x="282" y="157" width="25" height="25" rx="12.5" fill="#F64810"/>
<path d="M291.792 165.512C292.6 164.96 293.504 164.684 294.504 164.684C295.36 164.684 296.052 164.884 296.58 165.284C297.108 165.676 297.372 166.24 297.372 166.976C297.372 167.592 297.168 168.12 296.76 168.56C296.36 168.992 295.812 169.416 295.116 169.832C295.06 169.864 294.956 169.924 294.804 170.012C294.66 170.1 294.556 170.164 294.492 170.204C294.436 170.236 294.344 170.292 294.216 170.372C294.088 170.452 293.992 170.512 293.928 170.552C293.872 170.592 293.792 170.652 293.688 170.732C293.592 170.804 293.52 170.868 293.472 170.924C293.424 170.972 293.368 171.036 293.304 171.116C293.24 171.188 293.192 171.256 293.16 171.32C293.136 171.384 293.112 171.456 293.088 171.536C293.064 171.616 293.052 171.696 293.052 171.776L297.432 171.764V173H291.516V172.376C291.516 171.928 291.576 171.532 291.696 171.188C291.824 170.836 292.044 170.516 292.356 170.228C292.676 169.932 292.924 169.724 293.1 169.604C293.276 169.476 293.588 169.28 294.036 169.016C294.076 168.984 294.108 168.96 294.132 168.944C294.164 168.928 294.196 168.912 294.228 168.896C294.9 168.504 295.332 168.22 295.524 168.044C295.844 167.732 296.004 167.384 296.004 167C296.004 166.648 295.86 166.38 295.572 166.196C295.292 166.012 294.896 165.92 294.384 165.92C293.496 165.92 292.632 166.224 291.792 166.832V165.512Z" fill="white"/>
<rect x="252.5" y="258.5" width="86" height="23" rx="11.5" fill="#FFE6E4" stroke="#F64810"/>
<path d="M268.816 264.6H270.184V273H268.816V269.424H264.388V273H263.02V264.6H264.388V268.164H268.816V264.6ZM276.817 271.668C276.817 271.948 276.957 272.088 277.237 272.088C277.333 272.088 277.461 272.064 277.621 272.016V272.94C277.381 273.036 277.109 273.084 276.805 273.084C276.229 273.084 275.845 272.86 275.653 272.412C275.037 272.908 274.313 273.156 273.481 273.156C272.921 273.156 272.445 273.004 272.053 272.7C271.661 272.388 271.465 271.952 271.465 271.392C271.465 270.72 271.717 270.232 272.221 269.928C272.725 269.616 273.329 269.46 274.033 269.46C274.497 269.46 274.997 269.516 275.533 269.628V269.424C275.533 269.056 275.401 268.76 275.137 268.536C274.873 268.312 274.501 268.2 274.021 268.2C273.309 268.2 272.617 268.348 271.945 268.644V267.468C272.697 267.212 273.433 267.084 274.153 267.084C274.993 267.084 275.645 267.292 276.109 267.708C276.581 268.124 276.817 268.756 276.817 269.604V271.668ZM274.285 270.36C273.861 270.36 273.505 270.436 273.217 270.588C272.929 270.74 272.785 270.98 272.785 271.308C272.785 271.58 272.889 271.792 273.097 271.944C273.305 272.088 273.561 272.16 273.865 272.16C274.521 272.16 275.077 271.932 275.533 271.476V270.504C275.069 270.408 274.653 270.36 274.285 270.36ZM279.729 268.14C280.313 267.436 281.053 267.084 281.949 267.084C282.797 267.084 283.485 267.38 284.013 267.972C284.541 268.556 284.805 269.272 284.805 270.12C284.805 270.968 284.541 271.688 284.013 272.28C283.485 272.864 282.797 273.156 281.949 273.156C281.085 273.156 280.393 272.856 279.873 272.256V275.64H278.589V267.24H279.729V268.14ZM282.993 271.5C283.329 271.14 283.497 270.68 283.497 270.12C283.497 269.56 283.329 269.104 282.993 268.752C282.657 268.392 282.229 268.212 281.709 268.212C281.285 268.212 280.909 268.328 280.581 268.56C280.261 268.792 280.025 269.076 279.873 269.412V270.816C280.025 271.16 280.261 271.448 280.581 271.68C280.909 271.912 281.285 272.028 281.709 272.028C282.229 272.028 282.657 271.852 282.993 271.5ZM288.423 271.584L290.139 267.24H291.483L288.783 273.78C288.231 275.116 287.459 275.784 286.467 275.784C286.235 275.784 285.983 275.752 285.711 275.688V274.596C285.887 274.652 286.083 274.68 286.299 274.68C286.915 274.68 287.391 274.232 287.727 273.336L287.847 273.048L285.111 267.24H286.479L288.423 271.584ZM300.625 273H292.441V267.24H293.725V271.872H295.897V267.24H297.181V271.872H299.341V267.24H300.625V273ZM301.878 270.12C301.878 269.624 301.966 269.176 302.142 268.776C302.318 268.368 302.55 268.048 302.838 267.816C303.126 267.576 303.438 267.396 303.774 267.276C304.11 267.148 304.45 267.084 304.794 267.084C305.234 267.084 305.63 267.152 305.982 267.288C306.342 267.424 306.63 267.608 306.846 267.84C307.062 268.072 307.238 268.34 307.374 268.644C307.51 268.948 307.582 269.268 307.59 269.604C307.598 269.932 307.57 270.264 307.506 270.6H303.174C303.238 271.088 303.478 271.456 303.894 271.704C304.31 271.944 304.806 272.064 305.382 272.064C306.038 272.064 306.646 271.928 307.206 271.656V272.76C306.654 273.024 305.966 273.156 305.142 273.156C304.206 273.156 303.426 272.892 302.802 272.364C302.186 271.836 301.878 271.088 301.878 270.12ZM306.354 269.64C306.402 269.312 306.302 268.984 306.054 268.656C305.814 268.32 305.414 268.152 304.854 268.152C304.398 268.152 304.006 268.284 303.678 268.548C303.358 268.812 303.186 269.176 303.162 269.64H306.354ZM310.072 273H308.788V267.24H310.072V269.556H312.952V267.24H314.236V273H312.952V270.684H310.072V273ZM316.947 273H315.843V267.24H317.127V271.008L320.211 267.24H321.315V273H320.031V269.232L316.947 273ZM322.561 270.12C322.561 269.624 322.649 269.176 322.825 268.776C323.001 268.368 323.233 268.048 323.521 267.816C323.809 267.576 324.121 267.396 324.457 267.276C324.793 267.148 325.133 267.084 325.477 267.084C325.917 267.084 326.313 267.152 326.665 267.288C327.025 267.424 327.313 267.608 327.529 267.84C327.745 268.072 327.921 268.34 328.057 268.644C328.193 268.948 328.265 269.268 328.273 269.604C328.281 269.932 328.253 270.264 328.189 270.6H323.857C323.921 271.088 324.161 271.456 324.577 271.704C324.993 271.944 325.489 272.064 326.065 272.064C326.721 272.064 327.329 271.928 327.889 271.656V272.76C327.337 273.024 326.649 273.156 325.825 273.156C324.889 273.156 324.109 272.892 323.485 272.364C322.869 271.836 322.561 271.088 322.561 270.12ZM327.037 269.64C327.085 269.312 326.985 268.984 326.737 268.656C326.497 268.32 326.097 268.152 325.537 268.152C325.081 268.152 324.689 268.284 324.361 268.548C324.041 268.812 323.869 269.176 323.845 269.64H327.037Z" fill="#F64810"/>
<circle cx="199" cy="60" r="3" fill="#F64810"/>
</svg>
