<svg width="332" height="203" viewBox="0 0 332 203" fill="none" xmlns="http://www.w3.org/2000/svg">
<path d="M211 116.5H137C133.41 116.5 130.5 113.59 130.5 110V7C130.5 3.41015 133.41 0.5 137 0.5H187.011C188.721 0.5 190.361 1.17345 191.578 2.37449L215.567 26.0584C216.804 27.2797 217.5 28.9456 217.5 30.6839V110C217.5 113.59 214.59 116.5 211 116.5Z" fill="white" stroke="#E6E6E6"/>
<path d="M217 30H194.548C190.932 30 188 27.0682 188 23.4516V1" stroke="#E6E6E6"/>
<path d="M115 37C115 33.134 118.134 30 122 30H160C163.866 30 167 33.134 167 37V56C167 59.866 163.866 63 160 63H122C118.134 63 115 59.866 115 56V37Z" fill="#37376D"/>
<path d="M125.576 46.528C125.576 45.5467 125.747 44.6667 126.088 43.888C126.44 43.0987 126.899 42.4693 127.464 42C128.04 41.5307 128.68 41.1787 129.384 40.944C130.088 40.6987 130.824 40.576 131.592 40.576C132.765 40.576 133.832 40.816 134.792 41.296V43.584C134.035 42.9973 133.101 42.704 131.992 42.704C130.904 42.704 129.971 43.0293 129.192 43.68C128.424 44.32 128.04 45.2693 128.04 46.528C128.04 47.1253 128.152 47.6587 128.376 48.128C128.6 48.5867 128.899 48.9547 129.272 49.232C129.656 49.5093 130.077 49.7227 130.536 49.872C131.005 50.0107 131.491 50.08 131.992 50.08C133.229 50.08 134.189 49.7707 134.872 49.152V51.504C133.88 51.984 132.797 52.224 131.624 52.224C130.856 52.224 130.12 52.1067 129.416 51.872C128.712 51.6373 128.067 51.296 127.48 50.848C126.904 50.4 126.44 49.8027 126.088 49.056C125.747 48.3093 125.576 47.4667 125.576 46.528ZM136.173 43.76C136.173 42.7253 136.562 41.936 137.341 41.392C138.119 40.848 139.095 40.576 140.269 40.576C141.677 40.576 142.887 40.864 143.901 41.44V43.68C142.951 42.9973 141.799 42.6667 140.445 42.688C139.229 42.7093 138.621 43.056 138.621 43.728C138.621 44.0267 138.77 44.288 139.069 44.512C139.378 44.736 139.757 44.9173 140.205 45.056C140.663 45.184 141.154 45.3547 141.677 45.568C142.21 45.7707 142.701 45.9947 143.149 46.24C143.607 46.4747 143.986 46.8267 144.285 47.296C144.594 47.7653 144.749 48.3093 144.749 48.928C144.749 49.536 144.631 50.0587 144.397 50.496C144.173 50.9333 143.853 51.2747 143.437 51.52C143.021 51.7653 142.562 51.9413 142.061 52.048C141.559 52.1653 140.999 52.224 140.381 52.224C138.823 52.224 137.442 51.888 136.237 51.216V48.928C137.431 49.7173 138.754 50.112 140.205 50.112C141.602 50.112 142.301 49.7547 142.301 49.04C142.301 48.72 142.146 48.4427 141.837 48.208C141.538 47.9627 141.159 47.7707 140.701 47.632C140.253 47.4827 139.762 47.3067 139.229 47.104C138.706 46.8907 138.215 46.6667 137.757 46.432C137.309 46.1867 136.93 45.8347 136.621 45.376C136.322 44.9173 136.173 44.3787 136.173 43.76ZM151.74 52H149.276L144.924 40.8H147.516L150.508 49.184L153.516 40.8H156.108L151.74 52Z" fill="white"/>
<path d="M325 116.5H251C247.41 116.5 244.5 113.59 244.5 110V7C244.5 3.41015 247.41 0.5 251 0.5H301.011C302.721 0.5 304.361 1.17345 305.578 2.37449L329.567 26.0584C330.804 27.2797 331.5 28.9456 331.5 30.6839V110C331.5 113.59 328.59 116.5 325 116.5Z" fill="white" stroke="#E6E6E6"/>
<path d="M331 30H308.548C304.932 30 302 27.0682 302 23.4516V1" stroke="#E6E6E6"/>
<path d="M229 37C229 33.134 232.134 30 236 30H283C286.866 30 290 33.134 290 37V56C290 59.866 286.866 63 283 63H236C232.134 63 229 59.866 229 56V37Z" fill="#3FB761"/>
<path d="M240.2 40.8H248.088V42.912H242.6V45.296H247.608V47.392H242.6V49.888H248.184V52H240.2V40.8ZM254.683 44.32H257.195L254.427 48.128L257.355 52H254.843L253.147 49.648L251.435 52H248.923L251.851 48.128L249.067 44.32H251.579L253.147 46.624L254.683 44.32ZM257.465 48.272C257.465 47.568 257.588 46.9387 257.833 46.384C258.089 45.8293 258.425 45.392 258.841 45.072C259.257 44.7413 259.716 44.496 260.217 44.336C260.718 44.1653 261.246 44.08 261.801 44.08C262.686 44.08 263.476 44.2667 264.169 44.64V46.592C263.572 46.208 262.889 46.016 262.121 46.016C261.449 46.016 260.884 46.192 260.425 46.544C259.966 46.896 259.737 47.4347 259.737 48.16C259.737 48.8533 259.966 49.3867 260.425 49.76C260.884 50.1227 261.438 50.304 262.089 50.304C262.91 50.304 263.63 50.1173 264.249 49.744V51.712C263.449 52.0533 262.585 52.224 261.657 52.224C260.505 52.224 259.518 51.888 258.697 51.216C257.876 50.5333 257.465 49.552 257.465 48.272ZM265.309 48.16C265.309 47.4667 265.432 46.8533 265.677 46.32C265.922 45.776 266.242 45.3493 266.637 45.04C267.042 44.7307 267.464 44.496 267.901 44.336C268.349 44.176 268.802 44.096 269.261 44.096C270.029 44.096 270.69 44.24 271.245 44.528C271.81 44.816 272.226 45.1893 272.493 45.648C272.76 46.096 272.941 46.608 273.037 47.184C273.144 47.7493 273.117 48.3147 272.957 48.88H267.549C267.666 49.4133 267.976 49.8133 268.477 50.08C268.978 50.336 269.57 50.464 270.253 50.464C271.096 50.464 271.869 50.3093 272.573 50V51.744C271.816 52.064 270.877 52.224 269.757 52.224C268.477 52.224 267.416 51.8667 266.573 51.152C265.73 50.4373 265.309 49.44 265.309 48.16ZM270.957 47.44C271.01 47.088 270.909 46.7253 270.653 46.352C270.397 45.9787 269.96 45.792 269.341 45.792C268.85 45.792 268.429 45.9413 268.077 46.24C267.725 46.528 267.544 46.928 267.533 47.44H270.957ZM274.523 40.32H276.747V52H274.523V40.32Z" fill="white"/>
<path d="M96 116.5H22C18.4101 116.5 15.5 113.59 15.5 110V7C15.5 3.41015 18.4101 0.5 22 0.5H72.011C73.7205 0.5 75.3612 1.17345 76.5777 2.37449L100.567 26.0584C101.804 27.2797 102.5 28.9456 102.5 30.6839V110C102.5 113.59 99.5899 116.5 96 116.5Z" fill="white" stroke="#E6E6E6"/>
<path d="M102 30H79.5484C75.9318 30 73 27.0682 73 23.4516V1" stroke="#E6E6E6"/>
<path d="M0 37C0 33.134 3.13401 30 7 30H58C61.866 30 65 33.134 65 37V56C65 59.866 61.866 63 58 63H7C3.13401 63 0 59.866 0 56V37Z" fill="#0FA7F0"/>
<path d="M17.624 40.8H20.024V52H17.624V47.488H12.6V52H10.2V40.8H12.6V45.312H17.624V40.8ZM21.4268 40.8H30.6908V42.96H27.2508V52H24.8668V42.96H21.4268V40.8ZM41.9943 40.8H44.2183V52H41.8183V45.104L38.8583 49.6H37.4663L34.5063 45.088V52H32.1063V40.8H34.3303L38.1703 46.624L41.9943 40.8ZM46.6219 40.8H49.0219V49.84H54.5099V52H46.6219V40.8Z" fill="white"/>
<path d="M153 202.5H79C75.4101 202.5 72.5 199.59 72.5 196V93C72.5 89.4101 75.4101 86.5 79 86.5H129.011C130.721 86.5 132.361 87.1735 133.578 88.3745L157.567 112.058C158.804 113.28 159.5 114.946 159.5 116.684V196C159.5 199.59 156.59 202.5 153 202.5Z" fill="white" stroke="#E6E6E6"/>
<path d="M159 116H136.548C132.932 116 130 113.068 130 109.452V87" stroke="#E6E6E6"/>
<path d="M57 123C57 119.134 60.134 116 64 116H101C104.866 116 108 119.134 108 123V142C108 145.866 104.866 149 101 149H64C60.134 149 57 145.866 57 142V123Z" fill="#F64810"/>
<path d="M67.2 126.8H71.424C74.6453 126.8 76.256 128.053 76.256 130.56C76.256 133.067 74.6453 134.32 71.424 134.32H69.6V138H67.2V126.8ZM71.536 132.208C73.0507 132.208 73.808 131.659 73.808 130.56C73.808 129.461 73.0507 128.912 71.536 128.912H69.6V132.208H71.536ZM77.8563 126.8H82.0483C83.9683 126.8 85.4243 127.312 86.4163 128.336C87.4189 129.349 87.9203 130.704 87.9203 132.4C87.9203 134.096 87.4189 135.456 86.4163 136.48C85.4243 137.493 83.9683 138 82.0483 138H77.8563V126.8ZM84.5923 135.008C85.1789 134.421 85.4722 133.552 85.4722 132.4C85.4722 131.248 85.1789 130.379 84.5923 129.792C84.0163 129.205 83.1683 128.912 82.0483 128.912H80.2563V135.888H82.0483C83.1683 135.888 84.0163 135.595 84.5923 135.008ZM89.7313 126.8H97.6353V128.96H92.1313V131.568H97.1713V133.728H92.1313V138H89.7313V126.8Z" fill="white"/>
<path d="M268 202.5H194C190.41 202.5 187.5 199.59 187.5 196V93C187.5 89.4101 190.41 86.5 194 86.5H244.011C245.721 86.5 247.361 87.1735 248.578 88.3745L272.567 112.058C273.804 113.28 274.5 114.946 274.5 116.684V196C274.5 199.59 271.59 202.5 268 202.5Z" fill="white" stroke="#E6E6E6"/>
<path d="M274 116H251.548C247.932 116 245 113.068 245 109.452V87" stroke="#E6E6E6"/>
<path d="M172 123C172 119.134 175.134 116 179 116H216C219.866 116 223 119.134 223 123V142C223 145.866 219.866 149 216 149H179C175.134 149 172 145.866 172 142V123Z" fill="#F28100"/>
<path d="M182.2 126.8H186.424C189.645 126.8 191.256 128.053 191.256 130.56C191.256 133.067 189.645 134.32 186.424 134.32H184.6V138H182.2V126.8ZM186.536 132.208C188.051 132.208 188.808 131.659 188.808 130.56C188.808 129.461 188.051 128.912 186.536 128.912H184.6V132.208H186.536ZM195.256 138H192.856V126.8H195.112L200.328 134.112C200.296 133.653 200.28 133.141 200.28 132.576V126.8H202.68V138H200.424L195.208 130.688C195.24 131.147 195.256 131.659 195.256 132.224V138ZM204.467 132.4C204.467 131.419 204.638 130.549 204.979 129.792C205.32 129.024 205.779 128.411 206.355 127.952C206.942 127.493 207.592 127.152 208.307 126.928C209.022 126.693 209.774 126.576 210.563 126.576C211.779 126.576 212.926 126.816 214.003 127.296V129.584C213.128 129.008 212.088 128.72 210.883 128.72C209.774 128.72 208.835 129.029 208.067 129.648C207.299 130.256 206.915 131.173 206.915 132.4C206.915 133.104 207.032 133.712 207.267 134.224C207.512 134.736 207.832 135.125 208.227 135.392C208.622 135.648 209.027 135.835 209.443 135.952C209.859 136.069 210.296 136.128 210.755 136.128C211.214 136.128 211.624 136.059 211.987 135.92V131.92H214.275V137.472C213.102 137.973 211.886 138.224 210.627 138.224C209.987 138.224 209.368 138.155 208.771 138.016C208.184 137.877 207.624 137.659 207.091 137.36C206.568 137.051 206.115 136.677 205.731 136.24C205.347 135.792 205.038 135.243 204.803 134.592C204.579 133.931 204.467 133.2 204.467 132.4Z" fill="white"/>
</svg>
