<svg width="465" height="216" viewBox="0 0 465 216" fill="none" xmlns="http://www.w3.org/2000/svg">
<path d="M0.5 4.99999C0.5 2.51471 2.51472 0.5 5 0.5H460C462.485 0.5 464.5 2.51472 464.5 5V211C464.5 213.485 462.485 215.5 460 215.5H5C2.51471 215.5 0.5 213.485 0.5 211V4.99999Z" fill="white" stroke="#E6E6E6"/>
<path d="M0 5C0 2.23858 2.23858 0 5 0H460C462.761 0 465 2.23858 465 5V36H0V5Z" fill="#0FA7F0"/>
<path d="M22.392 19.96C22.392 20.5573 22.2587 21.08 21.992 21.528C21.7253 21.9653 21.3627 22.3013 20.904 22.536C20.4453 22.7707 19.9547 22.9413 19.432 23.048C18.92 23.1653 18.3653 23.224 17.768 23.224C16.36 23.224 14.9787 22.984 13.624 22.504V20.2C14.84 20.7973 16.1627 21.0853 17.592 21.064C19.1813 21.064 19.976 20.5787 19.976 19.608C19.976 18.7333 19.304 18.296 17.96 18.296H15.432L15.448 16.184H17.8C18.344 16.184 18.7707 16.088 19.08 15.896C19.3893 15.6933 19.544 15.4 19.544 15.016C19.544 14.1627 18.8027 13.736 17.32 13.736C16.2107 13.7147 15.0427 14.0027 13.816 14.6V12.312C14.9893 11.8213 16.2267 11.576 17.528 11.576C18.8827 11.576 19.9547 11.8373 20.744 12.36C21.544 12.872 21.944 13.6293 21.944 14.632C21.944 15.2293 21.784 15.7413 21.464 16.168C21.144 16.584 20.7067 16.888 20.152 17.08C20.8027 17.2613 21.336 17.592 21.752 18.072C22.1787 18.552 22.392 19.1813 22.392 19.96ZM30.7924 21.016C30.7924 21.3573 30.9737 21.528 31.3364 21.528C31.4857 21.528 31.6244 21.5067 31.7524 21.464V22.92C31.347 23.0693 30.9364 23.144 30.5204 23.144C29.7097 23.144 29.1444 22.856 28.8244 22.28C28.0244 22.9093 27.1017 23.224 26.0564 23.224C25.299 23.224 24.659 23.016 24.1364 22.6C23.6244 22.1733 23.3684 21.5973 23.3684 20.872C23.3684 20.264 23.5497 19.7573 23.9124 19.352C24.275 18.9467 24.6964 18.6747 25.1764 18.536C25.6564 18.3867 26.179 18.312 26.7444 18.312C27.3737 18.312 27.9817 18.3813 28.5684 18.52V18.248C28.5684 17.8533 28.4137 17.5387 28.1044 17.304C27.795 17.0693 27.347 16.952 26.7604 16.952C25.907 16.952 25.0004 17.144 24.0404 17.528V15.608C25.0644 15.2667 26.0564 15.096 27.0164 15.096C29.5337 15.096 30.7924 16.2533 30.7924 18.568V21.016ZM27.2564 19.64C26.7977 19.64 26.4137 19.7253 26.1044 19.896C25.795 20.0667 25.6404 20.3333 25.6404 20.696C25.6404 20.9733 25.7524 21.2027 25.9764 21.384C26.211 21.5547 26.499 21.64 26.8404 21.64C27.5124 21.64 28.0884 21.432 28.5684 21.016V19.816C28.0777 19.6987 27.6404 19.64 27.2564 19.64ZM35.168 23H32.944V15.32H38.8V17.192H35.168V23ZM41.9589 16.44C42.5882 15.544 43.5162 15.096 44.7429 15.096C45.9055 15.096 46.8175 15.496 47.4789 16.296C48.1509 17.0853 48.4869 18.04 48.4869 19.16C48.4869 20.28 48.1509 21.24 47.4789 22.04C46.8175 22.8293 45.9055 23.224 44.7429 23.224C43.6869 23.224 42.8442 22.8773 42.2149 22.184V26.52H39.9909V15.32H41.9589V16.44ZM45.6709 20.728C46.0335 20.3013 46.2149 19.7787 46.2149 19.16C46.2149 18.5413 46.0335 18.024 45.6709 17.608C45.3082 17.1813 44.8175 16.968 44.1989 16.968C43.7402 16.968 43.3295 17.0907 42.9669 17.336C42.6149 17.5813 42.3589 17.8853 42.1989 18.248V20.072C42.3589 20.4347 42.6149 20.7387 42.9669 20.984C43.3295 21.2293 43.7402 21.352 44.1989 21.352C44.8175 21.352 45.3082 21.144 45.6709 20.728ZM53.2963 20.504L55.2003 15.32H57.5043L54.0963 23.928C53.3389 25.7947 52.2349 26.728 50.7843 26.728C50.4749 26.728 50.0749 26.6693 49.5843 26.552V24.712C49.9363 24.7867 50.2403 24.824 50.4963 24.824C51.3069 24.824 51.9149 24.264 52.3203 23.144L52.3363 23.112L48.7043 15.32H51.0563L53.2963 20.504ZM64.7324 20.872C64.7324 21.5227 64.4124 22.0773 63.7724 22.536C63.1324 22.984 62.1937 23.208 60.9564 23.208C59.8044 23.208 58.8284 23 58.0284 22.584V20.808C58.3377 20.9787 58.743 21.1333 59.2444 21.272C59.7457 21.4 60.2204 21.464 60.6684 21.464C61.863 21.464 62.4604 21.176 62.4604 20.6C62.4604 20.3013 62.327 20.104 62.0604 20.008C61.8044 19.9013 61.447 19.848 60.9884 19.848H59.5644V18.376H60.9884C61.863 18.376 62.3004 18.136 62.3004 17.656C62.3004 17.112 61.799 16.84 60.7964 16.84C60.3697 16.84 59.9057 16.904 59.4044 17.032C58.903 17.16 58.4924 17.3093 58.1724 17.48V15.72C58.9724 15.2933 59.9377 15.08 61.0684 15.08C62.295 15.08 63.1857 15.304 63.7404 15.752C64.295 16.1893 64.5724 16.728 64.5724 17.368C64.5724 17.8053 64.4497 18.168 64.2044 18.456C63.9697 18.744 63.6604 18.9413 63.2764 19.048C64.247 19.3467 64.7324 19.9547 64.7324 20.872ZM68.4493 23H66.2253V15.32H68.4493V18.184H69.3773L71.3293 15.32H73.8253L71.1853 19.112L74.0493 23H71.5533L69.3453 19.96H68.4493V23ZM81.7611 21.016C81.7611 21.3573 81.9425 21.528 82.3051 21.528C82.4545 21.528 82.5931 21.5067 82.7211 21.464V22.92C82.3158 23.0693 81.9051 23.144 81.4891 23.144C80.6785 23.144 80.1131 22.856 79.7931 22.28C78.9931 22.9093 78.0705 23.224 77.0251 23.224C76.2678 23.224 75.6278 23.016 75.1051 22.6C74.5931 22.1733 74.3371 21.5973 74.3371 20.872C74.3371 20.264 74.5185 19.7573 74.8811 19.352C75.2438 18.9467 75.6651 18.6747 76.1451 18.536C76.6251 18.3867 77.1478 18.312 77.7131 18.312C78.3425 18.312 78.9505 18.3813 79.5371 18.52V18.248C79.5371 17.8533 79.3825 17.5387 79.0731 17.304C78.7638 17.0693 78.3158 16.952 77.7291 16.952C76.8758 16.952 75.9691 17.144 75.0091 17.528V15.608C76.0331 15.2667 77.0251 15.096 77.9851 15.096C80.5025 15.096 81.7611 16.2533 81.7611 18.568V21.016ZM78.2251 19.64C77.7665 19.64 77.3825 19.7253 77.0731 19.896C76.7638 20.0667 76.6091 20.3333 76.6091 20.696C76.6091 20.9733 76.7211 21.2027 76.9451 21.384C77.1798 21.5547 77.4678 21.64 77.8091 21.64C78.4811 21.64 79.0571 21.432 79.5371 21.016V19.816C79.0465 19.6987 78.6091 19.64 78.2251 19.64ZM89.6836 23H87.4596V15.32H89.6836V18.184H90.6116L92.5636 15.32H95.0596L92.4196 19.112L95.2836 23H92.7876L90.5796 19.96H89.6836V23ZM96.619 22.152C95.7977 21.4373 95.387 20.44 95.387 19.16C95.387 17.88 95.7977 16.8827 96.619 16.168C97.4403 15.4533 98.443 15.096 99.627 15.096C100.822 15.096 101.824 15.4533 102.635 16.168C103.456 16.8827 103.867 17.88 103.867 19.16C103.867 20.44 103.456 21.4373 102.635 22.152C101.824 22.8667 100.822 23.224 99.627 23.224C98.443 23.224 97.4403 22.8667 96.619 22.152ZM101.083 20.664C101.435 20.2693 101.611 19.768 101.611 19.16C101.611 18.552 101.435 18.056 101.083 17.672C100.731 17.2773 100.246 17.08 99.627 17.08C99.0083 17.08 98.523 17.2773 98.171 17.672C97.8297 18.056 97.659 18.552 97.659 19.16C97.659 19.768 97.8297 20.2693 98.171 20.664C98.523 21.048 99.0083 21.24 99.627 21.24C100.246 21.24 100.731 21.048 101.083 20.664ZM107.543 23H105.319V15.32H107.543V18.232H110.647V15.32H112.871V23H110.647V20.088H107.543V23ZM120.853 26.52H118.741V23.224C117.439 23.1707 116.373 22.7813 115.541 22.056C114.719 21.32 114.309 20.3547 114.309 19.16C114.309 17.9653 114.719 17.0053 115.541 16.28C116.373 15.544 117.439 15.1493 118.741 15.096V11.8H120.853V15.096C122.154 15.1493 123.215 15.544 124.037 16.28C124.869 17.0053 125.285 17.9653 125.285 19.16C125.285 20.3547 124.869 21.32 124.037 22.056C123.215 22.7813 122.154 23.1707 120.853 23.224V26.52ZM117.109 17.64C116.725 18.0453 116.533 18.552 116.533 19.16C116.533 19.768 116.725 20.28 117.109 20.696C117.493 21.1013 118.042 21.3253 118.757 21.368V16.952C118.042 16.9947 117.493 17.224 117.109 17.64ZM120.869 16.952V21.368C121.583 21.3253 122.133 21.1013 122.517 20.696C122.901 20.28 123.093 19.768 123.093 19.16C123.093 18.552 122.901 18.0453 122.517 17.64C122.133 17.224 121.583 16.9947 120.869 16.952ZM128.661 23H126.725V15.32H128.949V19.64L132.373 15.32H134.293V23H132.085V18.68L128.661 23ZM138.402 23H136.178V15.32H142.034V17.192H138.402V23ZM146.921 20.504L148.825 15.32H151.129L147.721 23.928C146.964 25.7947 145.86 26.728 144.409 26.728C144.1 26.728 143.7 26.6693 143.209 26.552V24.712C143.561 24.7867 143.865 24.824 144.121 24.824C144.932 24.824 145.54 24.264 145.945 23.144L145.961 23.112L142.329 15.32H144.681L146.921 20.504ZM154.209 16.44C154.838 15.544 155.766 15.096 156.993 15.096C158.156 15.096 159.068 15.496 159.729 16.296C160.401 17.0853 160.737 18.04 160.737 19.16C160.737 20.28 160.401 21.24 159.729 22.04C159.068 22.8293 158.156 23.224 156.993 23.224C155.937 23.224 155.094 22.8773 154.465 22.184V26.52H152.241V15.32H154.209V16.44ZM157.921 20.728C158.284 20.3013 158.465 19.7787 158.465 19.16C158.465 18.5413 158.284 18.024 157.921 17.608C157.558 17.1813 157.068 16.968 156.449 16.968C155.99 16.968 155.58 17.0907 155.217 17.336C154.865 17.5813 154.609 17.8853 154.449 18.248V20.072C154.609 20.4347 154.865 20.7387 155.217 20.984C155.58 21.2293 155.99 21.352 156.449 21.352C157.068 21.352 157.558 21.144 157.921 20.728ZM169.058 21.016C169.058 21.3573 169.239 21.528 169.602 21.528C169.751 21.528 169.89 21.5067 170.018 21.464V22.92C169.613 23.0693 169.202 23.144 168.786 23.144C167.975 23.144 167.41 22.856 167.09 22.28C166.29 22.9093 165.367 23.224 164.322 23.224C163.565 23.224 162.925 23.016 162.402 22.6C161.89 22.1733 161.634 21.5973 161.634 20.872C161.634 20.264 161.815 19.7573 162.178 19.352C162.541 18.9467 162.962 18.6747 163.442 18.536C163.922 18.3867 164.445 18.312 165.01 18.312C165.639 18.312 166.247 18.3813 166.834 18.52V18.248C166.834 17.8533 166.679 17.5387 166.37 17.304C166.061 17.0693 165.613 16.952 165.026 16.952C164.173 16.952 163.266 17.144 162.306 17.528V15.608C163.33 15.2667 164.322 15.096 165.282 15.096C167.799 15.096 169.058 16.2533 169.058 18.568V21.016ZM165.522 19.64C165.063 19.64 164.679 19.7253 164.37 19.896C164.061 20.0667 163.906 20.3333 163.906 20.696C163.906 20.9733 164.018 21.2027 164.242 21.384C164.477 21.5547 164.765 21.64 165.106 21.64C165.778 21.64 166.354 21.432 166.834 21.016V19.816C166.343 19.6987 165.906 19.64 165.522 19.64ZM179.834 25.032H177.786V23H171.21V15.32H173.434V21.128H176.458V15.32H178.682V21.176H179.834V25.032ZM183.161 23H181.225V15.32H183.449V19.64L186.873 15.32H188.793V23H186.585V18.68L183.161 23ZM196.918 13.752C196.225 14.1787 195.409 14.392 194.47 14.392C193.532 14.392 192.716 14.1787 192.022 13.752V12.088C192.758 12.4933 193.574 12.696 194.47 12.696C195.366 12.696 196.182 12.4933 196.918 12.088V13.752ZM192.614 23H190.678V15.32H192.902V19.64L196.326 15.32H198.246V23H196.038V18.68L192.614 23Z" fill="white"/>
<line x1="23" y1="162.5" x2="443" y2="162.5" stroke="#E6E6E6"/>
<path d="M26.6 115H24.2V103.8H26.6V108.248H28.408L31.24 103.8H33.912L30.28 109.256L34.12 115H31.464L28.408 110.424H26.6V115ZM35.1815 114.152C34.3602 113.437 33.9495 112.44 33.9495 111.16C33.9495 109.88 34.3602 108.883 35.1815 108.168C36.0028 107.453 37.0055 107.096 38.1895 107.096C39.3842 107.096 40.3868 107.453 41.1975 108.168C42.0188 108.883 42.4295 109.88 42.4295 111.16C42.4295 112.44 42.0188 113.437 41.1975 114.152C40.3868 114.867 39.3842 115.224 38.1895 115.224C37.0055 115.224 36.0028 114.867 35.1815 114.152ZM39.6455 112.664C39.9975 112.269 40.1735 111.768 40.1735 111.16C40.1735 110.552 39.9975 110.056 39.6455 109.672C39.2935 109.277 38.8082 109.08 38.1895 109.08C37.5708 109.08 37.0855 109.277 36.7335 109.672C36.3922 110.056 36.2215 110.552 36.2215 111.16C36.2215 111.768 36.3922 112.269 36.7335 112.664C37.0855 113.048 37.5708 113.24 38.1895 113.24C38.8082 113.24 39.2935 113.048 39.6455 112.664ZM46.1055 115H43.8815V107.32H46.1055V110.232H49.2095V107.32H51.4335V115H49.2095V112.088H46.1055V115ZM59.415 118.52H57.303V115.224C56.0017 115.171 54.935 114.781 54.103 114.056C53.2817 113.32 52.871 112.355 52.871 111.16C52.871 109.965 53.2817 109.005 54.103 108.28C54.935 107.544 56.0017 107.149 57.303 107.096V103.8H59.415V107.096C60.7163 107.149 61.7777 107.544 62.599 108.28C63.431 109.005 63.847 109.965 63.847 111.16C63.847 112.355 63.431 113.32 62.599 114.056C61.7777 114.781 60.7163 115.171 59.415 115.224V118.52ZM55.671 109.64C55.287 110.045 55.095 110.552 55.095 111.16C55.095 111.768 55.287 112.28 55.671 112.696C56.055 113.101 56.6043 113.325 57.319 113.368V108.952C56.6043 108.995 56.055 109.224 55.671 109.64ZM59.431 108.952V113.368C60.1457 113.325 60.695 113.101 61.079 112.696C61.463 112.28 61.655 111.768 61.655 111.16C61.655 110.552 61.463 110.045 61.079 109.64C60.695 109.224 60.1457 108.995 59.431 108.952ZM67.2238 115H65.2878V107.32H67.5118V111.64L70.9358 107.32H72.8558V115H70.6478V110.68L67.2238 115ZM76.9649 115H74.7409V107.32H80.5969V109.192H76.9649V115ZM85.4838 112.504L87.3878 107.32H89.6918L86.2838 115.928C85.5264 117.795 84.4224 118.728 82.9718 118.728C82.6624 118.728 82.2624 118.669 81.7718 118.552V116.712C82.1238 116.787 82.4278 116.824 82.6838 116.824C83.4944 116.824 84.1024 116.264 84.5078 115.144L84.5238 115.112L80.8918 107.32H83.2438L85.4838 112.504ZM92.7714 108.44C93.4007 107.544 94.3287 107.096 95.5554 107.096C96.718 107.096 97.63 107.496 98.2914 108.296C98.9634 109.085 99.2994 110.04 99.2994 111.16C99.2994 112.28 98.9634 113.24 98.2914 114.04C97.63 114.829 96.718 115.224 95.5554 115.224C94.4994 115.224 93.6567 114.877 93.0274 114.184V118.52H90.8034V107.32H92.7714V108.44ZM96.4834 112.728C96.846 112.301 97.0274 111.779 97.0274 111.16C97.0274 110.541 96.846 110.024 96.4834 109.608C96.1207 109.181 95.63 108.968 95.0114 108.968C94.5527 108.968 94.142 109.091 93.7794 109.336C93.4274 109.581 93.1714 109.885 93.0114 110.248V112.072C93.1714 112.435 93.4274 112.739 93.7794 112.984C94.142 113.229 94.5527 113.352 95.0114 113.352C95.63 113.352 96.1207 113.144 96.4834 112.728ZM107.621 113.016C107.621 113.357 107.802 113.528 108.165 113.528C108.314 113.528 108.453 113.507 108.581 113.464V114.92C108.175 115.069 107.765 115.144 107.349 115.144C106.538 115.144 105.973 114.856 105.653 114.28C104.853 114.909 103.93 115.224 102.885 115.224C102.127 115.224 101.487 115.016 100.965 114.6C100.453 114.173 100.197 113.597 100.197 112.872C100.197 112.264 100.378 111.757 100.741 111.352C101.103 110.947 101.525 110.675 102.005 110.536C102.485 110.387 103.007 110.312 103.573 110.312C104.202 110.312 104.81 110.381 105.397 110.52V110.248C105.397 109.853 105.242 109.539 104.933 109.304C104.623 109.069 104.175 108.952 103.589 108.952C102.735 108.952 101.829 109.144 100.868 109.528V107.608C101.893 107.267 102.885 107.096 103.845 107.096C106.362 107.096 107.621 108.253 107.621 110.568V113.016ZM104.085 111.64C103.626 111.64 103.242 111.725 102.933 111.896C102.623 112.067 102.469 112.333 102.469 112.696C102.469 112.973 102.581 113.203 102.805 113.384C103.039 113.555 103.327 113.64 103.669 113.64C104.341 113.64 104.917 113.432 105.397 113.016V111.816C104.906 111.699 104.469 111.64 104.085 111.64ZM118.396 117.032H116.348V115H109.772V107.32H111.996V113.128H115.02V107.32H117.244V113.176H118.396V117.032ZM121.724 115H119.788V107.32H122.012V111.64L125.436 107.32H127.356V115H125.148V110.68L121.724 115ZM131.177 115H129.241V107.32H131.465V111.64L134.889 107.32H136.809V115H134.601V110.68L131.177 115Z" fill="#454545"/>
<path d="M82 80H244" stroke="#E6E6E6"/>
<path d="M315 80H443" stroke="#E6E6E6"/>
<path d="M25.816 70H24.472V58.8H33.608V70H32.264V60.08H25.816V70ZM36.7783 69.12C35.9676 68.3947 35.5623 67.408 35.5623 66.16C35.5623 64.912 35.9676 63.9307 36.7783 63.216C37.5889 62.4907 38.5489 62.128 39.6583 62.128C40.7783 62.128 41.7383 62.4907 42.5383 63.216C43.3489 63.9307 43.7543 64.912 43.7543 66.16C43.7543 67.408 43.3489 68.3947 42.5383 69.12C41.7383 69.8347 40.7783 70.192 39.6583 70.192C38.5489 70.192 37.5889 69.8347 36.7783 69.12ZM41.6743 68.224C42.2076 67.712 42.4743 67.024 42.4743 66.16C42.4743 65.296 42.2076 64.6133 41.6743 64.112C41.1409 63.6 40.4689 63.344 39.6583 63.344C38.8476 63.344 38.1756 63.6 37.6423 64.112C37.1089 64.6133 36.8423 65.296 36.8423 66.16C36.8423 67.024 37.1089 67.712 37.6423 68.224C38.1756 68.7253 38.8476 68.976 39.6583 68.976C40.4689 68.976 41.1409 68.7253 41.6743 68.224ZM46.6783 70H45.5903V62.32H46.8703V67.936L51.5743 62.32H52.6623V70H51.3823V64.384L46.6783 70ZM54.4998 66.192C54.4998 65.52 54.6224 64.9173 54.8678 64.384C55.1131 63.8507 55.4331 63.424 55.8278 63.104C56.2331 62.784 56.6758 62.544 57.1558 62.384C57.6464 62.2133 58.1478 62.128 58.6598 62.128C59.6091 62.128 60.3984 62.336 61.0278 62.752V64C60.4411 63.5413 59.7051 63.312 58.8198 63.312C57.9878 63.312 57.2731 63.552 56.6758 64.032C56.0784 64.512 55.7798 65.2213 55.7798 66.16C55.7798 67.088 56.0731 67.7973 56.6598 68.288C57.2571 68.768 57.9664 69.008 58.7878 69.008C59.6411 69.008 60.4144 68.8 61.1078 68.384V69.664C60.3824 70.016 59.5504 70.192 58.6118 70.192C57.5024 70.192 56.5371 69.8453 55.7158 69.152C54.9051 68.4587 54.4998 67.472 54.4998 66.192ZM64.2609 70H62.9809V62.32H64.2609V65.52H65.8129L68.2449 62.32H69.7329L66.8209 66.144L70.0849 70H68.5809L65.7649 66.704H64.2609V70Z" fill="#454545"/>
<path d="M267.224 58.8H276.44V60.08H272.504V70H271.16V60.08H267.224V58.8ZM275.484 66.16C275.484 64.9013 275.868 63.9147 276.636 63.2C277.415 62.4853 278.305 62.128 279.308 62.128C280.247 62.128 281.02 62.3627 281.628 62.832C282.247 63.3013 282.652 63.8827 282.844 64.576C283.036 65.2587 283.047 65.9733 282.876 66.72H276.764C276.839 67.4773 277.175 68.048 277.772 68.432C278.369 68.816 279.089 69.008 279.932 69.008C280.871 69.008 281.713 68.8 282.46 68.384V69.632C281.745 70.0053 280.839 70.192 279.74 70.192C278.524 70.192 277.511 69.8453 276.7 69.152C275.889 68.4587 275.484 67.4613 275.484 66.16ZM281.74 65.6C281.772 65.376 281.756 65.1413 281.692 64.896C281.628 64.6507 281.511 64.4053 281.34 64.16C281.18 63.9147 280.929 63.712 280.588 63.552C280.247 63.392 279.847 63.312 279.388 63.312C278.695 63.312 278.092 63.5147 277.58 63.92C277.079 64.3253 276.807 64.8853 276.764 65.6H281.74ZM286.027 70H284.747V62.32H290.363V63.504H286.027V70ZM292.913 70H291.825V62.32H293.105V67.936L297.809 62.32H298.897V70H297.617V64.384L292.913 70Z" fill="#454545"/>
<path d="M109.8 70H108.456V62V61.04L101.72 70H100.472V58.8H101.816V66.784V67.744L108.552 58.8H109.8V70ZM111.75 66.192C111.75 65.52 111.872 64.9173 112.118 64.384C112.363 63.8507 112.683 63.424 113.078 63.104C113.483 62.784 113.926 62.544 114.406 62.384C114.896 62.2133 115.398 62.128 115.91 62.128C116.859 62.128 117.648 62.336 118.278 62.752V64C117.691 63.5413 116.955 63.312 116.07 63.312C115.238 63.312 114.523 63.552 113.926 64.032C113.328 64.512 113.03 65.2213 113.03 66.16C113.03 67.088 113.323 67.7973 113.91 68.288C114.507 68.768 115.216 69.008 116.038 69.008C116.891 69.008 117.664 68.8 118.358 68.384V69.664C117.632 70.016 116.8 70.192 115.862 70.192C114.752 70.192 113.787 69.8453 112.966 69.152C112.155 68.4587 111.75 67.472 111.75 66.192ZM121.511 70H120.231V62.32H121.511V65.52H123.063L125.495 62.32H126.983L124.071 66.144L127.335 70H125.831L123.015 66.704H121.511V70ZM134.783 68.4C134.783 68.7947 134.981 68.992 135.375 68.992C135.546 68.992 135.743 68.9547 135.967 68.88V69.92C135.647 70.0373 135.327 70.096 135.007 70.096C134.271 70.096 133.802 69.7867 133.599 69.168C132.778 69.8507 131.781 70.192 130.607 70.192C129.861 70.192 129.221 69.9947 128.687 69.6C128.165 69.1947 127.903 68.6133 127.903 67.856C127.903 66.9493 128.239 66.2933 128.911 65.888C129.594 65.472 130.415 65.264 131.375 65.264C132.079 65.264 132.789 65.344 133.503 65.504V65.232C133.503 64.6453 133.311 64.1813 132.927 63.84C132.543 63.488 132.005 63.312 131.311 63.312C130.341 63.312 129.407 63.504 128.511 63.888V62.64C129.514 62.2987 130.49 62.128 131.439 62.128C132.485 62.128 133.301 62.4107 133.887 62.976C134.485 63.5307 134.783 64.336 134.783 65.392V68.4ZM129.215 67.792C129.215 68.2187 129.375 68.544 129.695 68.768C130.026 68.9813 130.421 69.088 130.879 69.088C131.935 69.088 132.81 68.7147 133.503 67.968V66.56C132.778 66.4107 132.127 66.336 131.551 66.336C130.901 66.336 130.346 66.4533 129.887 66.688C129.439 66.912 129.215 67.28 129.215 67.792ZM140.181 70H138.901V63.504H136.069V62.32H142.997V63.504H140.181V70ZM148.098 70H144.45V62.32H145.73V65.008H148.098C149.015 65.008 149.74 65.2427 150.274 65.712C150.807 66.1813 151.074 66.7787 151.074 67.504C151.074 68.2293 150.807 68.8267 150.274 69.296C149.74 69.7653 149.015 70 148.098 70ZM145.73 66.16V68.848H147.938C148.514 68.848 148.962 68.736 149.282 68.512C149.612 68.288 149.778 67.952 149.778 67.504C149.778 67.056 149.612 66.72 149.282 66.496C148.962 66.272 148.514 66.16 147.938 66.16H145.73ZM153.851 68.736C154.011 68.8747 154.091 69.072 154.091 69.328C154.091 69.584 154.011 69.7867 153.851 69.936C153.691 70.0747 153.494 70.144 153.259 70.144C153.025 70.144 152.822 70.0747 152.651 69.936C152.491 69.7867 152.411 69.584 152.411 69.328C152.411 69.072 152.491 68.8747 152.651 68.736C152.822 68.5973 153.025 68.528 153.259 68.528C153.494 68.528 153.691 68.5973 153.851 68.736ZM157.289 68.736C157.449 68.8747 157.529 69.072 157.529 69.328C157.529 69.584 157.449 69.7867 157.289 69.936C157.129 70.0747 156.931 70.144 156.697 70.144C156.462 70.144 156.259 70.0747 156.089 69.936C155.929 69.7867 155.849 69.584 155.849 69.328C155.849 69.072 155.929 68.8747 156.089 68.736C156.259 68.5973 156.462 68.528 156.697 68.528C156.931 68.528 157.129 68.5973 157.289 68.736ZM160.726 68.736C160.886 68.8747 160.966 69.072 160.966 69.328C160.966 69.584 160.886 69.7867 160.726 69.936C160.566 70.0747 160.369 70.144 160.134 70.144C159.9 70.144 159.697 70.0747 159.526 69.936C159.366 69.7867 159.286 69.584 159.286 69.328C159.286 69.072 159.366 68.8747 159.526 68.736C159.697 68.5973 159.9 68.528 160.134 68.528C160.369 68.528 160.566 68.5973 160.726 68.736Z" fill="#9F9F9F"/>
<path d="M316.472 58.8H321.064C322.237 58.8 323.165 59.0453 323.848 59.536C324.531 60.016 324.872 60.7147 324.872 61.632C324.872 62.2933 324.696 62.8373 324.344 63.264C323.992 63.68 323.571 63.9627 323.08 64.112C323.677 64.272 324.2 64.5813 324.648 65.04C325.096 65.488 325.32 66.1173 325.32 66.928C325.32 67.4187 325.224 67.8507 325.032 68.224C324.851 68.5973 324.616 68.896 324.328 69.12C324.051 69.3333 323.72 69.5093 323.336 69.648C322.963 69.7867 322.6 69.8827 322.248 69.936C321.907 69.9787 321.555 70 321.192 70H316.472V58.8ZM323.96 66.784C323.96 65.4933 323.069 64.848 321.288 64.848H317.816V68.72H320.92C321.261 68.72 321.549 68.7147 321.784 68.704C322.019 68.6827 322.285 68.64 322.584 68.576C322.883 68.5013 323.123 68.4 323.304 68.272C323.485 68.1333 323.64 67.9413 323.768 67.696C323.896 67.44 323.96 67.136 323.96 66.784ZM323.512 61.824C323.512 61.1947 323.293 60.7467 322.856 60.48C322.429 60.2133 321.795 60.08 320.952 60.08H317.816V63.568H321.32C321.96 63.568 322.483 63.4293 322.888 63.152C323.304 62.864 323.512 62.4213 323.512 61.824ZM330.816 70H327.168V62.32H328.448V65.008H330.816C331.734 65.008 332.459 65.2427 332.992 65.712C333.526 66.1813 333.792 66.7787 333.792 67.504C333.792 68.2293 333.526 68.8267 332.992 69.296C332.459 69.7653 331.734 70 330.816 70ZM328.448 66.16V68.848H330.656C331.232 68.848 331.68 68.736 332 68.512C332.331 68.288 332.496 67.952 332.496 67.504C332.496 67.056 332.331 66.72 332 66.496C331.68 66.272 331.232 66.16 330.656 66.16H328.448ZM336.56 70H335.28V62.32H336.56V70ZM346.438 66.384C346.438 67.568 346.075 68.5013 345.35 69.184C344.635 69.856 343.691 70.192 342.518 70.192C341.323 70.192 340.358 69.7973 339.622 69.008C338.897 68.2187 338.534 67.1147 338.534 65.696C338.534 64.4587 338.747 63.392 339.174 62.496C339.601 61.6 340.177 60.928 340.902 60.48C341.393 60.1813 341.899 59.9467 342.422 59.776C342.955 59.5947 343.393 59.4827 343.734 59.44C344.086 59.3973 344.449 59.312 344.822 59.184C345.195 59.0453 345.505 58.8533 345.75 58.608V59.952C345.451 60.1653 345.083 60.3253 344.646 60.432C344.209 60.528 343.723 60.6453 343.19 60.784C342.657 60.9227 342.145 61.136 341.654 61.424C341.174 61.712 340.801 62.0747 340.534 62.512C340.267 62.9493 340.033 63.472 339.83 64.08C340.107 63.6533 340.502 63.3067 341.014 63.04C341.526 62.7733 342.075 62.64 342.662 62.64C343.697 62.64 344.582 62.9867 345.318 63.68C346.065 64.3733 346.438 65.2747 346.438 66.384ZM339.814 66.416C339.814 67.152 340.059 67.7653 340.55 68.256C341.041 68.736 341.686 68.976 342.486 68.976C343.307 68.976 343.958 68.736 344.438 68.256C344.918 67.776 345.158 67.1627 345.158 66.416C345.158 65.6693 344.918 65.056 344.438 64.576C343.958 64.096 343.307 63.856 342.486 63.856C341.718 63.856 341.078 64.1173 340.566 64.64C340.065 65.152 339.814 65.744 339.814 66.416ZM349.445 63.6C350.309 62.6187 351.344 62.128 352.549 62.128C353.648 62.128 354.56 62.512 355.285 63.28C356.021 64.048 356.389 65.008 356.389 66.16C356.389 67.312 356.021 68.272 355.285 69.04C354.56 69.808 353.648 70.192 352.549 70.192C351.333 70.192 350.341 69.744 349.573 68.848V73.52H348.293V62.32H349.445V63.6ZM354.325 68.224C354.848 67.7013 355.109 67.0133 355.109 66.16C355.109 65.3067 354.848 64.6187 354.325 64.096C353.813 63.5733 353.173 63.312 352.405 63.312C351.755 63.312 351.179 63.4933 350.677 63.856C350.176 64.2187 349.808 64.6667 349.573 65.2V67.12C349.808 67.6533 350.176 68.1013 350.677 68.464C351.179 68.8267 351.755 69.008 352.405 69.008C353.173 69.008 353.813 68.7467 354.325 68.224ZM364.471 68.4C364.471 68.7947 364.668 68.992 365.063 68.992C365.234 68.992 365.431 68.9547 365.655 68.88V69.92C365.335 70.0373 365.015 70.096 364.695 70.096C363.959 70.096 363.49 69.7867 363.287 69.168C362.466 69.8507 361.468 70.192 360.295 70.192C359.548 70.192 358.908 69.9947 358.375 69.6C357.852 69.1947 357.591 68.6133 357.591 67.856C357.591 66.9493 357.927 66.2933 358.599 65.888C359.282 65.472 360.103 65.264 361.063 65.264C361.767 65.264 362.476 65.344 363.191 65.504V65.232C363.191 64.6453 362.999 64.1813 362.615 63.84C362.231 63.488 361.692 63.312 360.999 63.312C360.028 63.312 359.095 63.504 358.199 63.888V62.64C359.202 62.2987 360.178 62.128 361.127 62.128C362.172 62.128 362.988 62.4107 363.575 62.976C364.172 63.5307 364.471 64.336 364.471 65.392V68.4ZM358.903 67.792C358.903 68.2187 359.063 68.544 359.383 68.768C359.714 68.9813 360.108 69.088 360.567 69.088C361.623 69.088 362.498 68.7147 363.191 67.968V66.56C362.466 66.4107 361.815 66.336 361.239 66.336C360.588 66.336 360.034 66.4533 359.575 66.688C359.127 66.912 358.903 67.28 358.903 67.792ZM369.868 70H368.588V63.504H365.756V62.32H372.684V63.504H369.868V70ZM377.785 70H374.137V62.32H375.417V65.008H377.785C378.702 65.008 379.428 65.2427 379.961 65.712C380.494 66.1813 380.761 66.7787 380.761 67.504C380.761 68.2293 380.494 68.8267 379.961 69.296C379.428 69.7653 378.702 70 377.785 70ZM375.417 66.16V68.848H377.625C378.201 68.848 378.649 68.736 378.969 68.512C379.3 68.288 379.465 67.952 379.465 67.504C379.465 67.056 379.3 66.72 378.969 66.496C378.649 66.272 378.201 66.16 377.625 66.16H375.417ZM383.539 68.736C383.699 68.8747 383.779 69.072 383.779 69.328C383.779 69.584 383.699 69.7867 383.539 69.936C383.379 70.0747 383.181 70.144 382.947 70.144C382.712 70.144 382.509 70.0747 382.339 69.936C382.179 69.7867 382.099 69.584 382.099 69.328C382.099 69.072 382.179 68.8747 382.339 68.736C382.509 68.5973 382.712 68.528 382.947 68.528C383.181 68.528 383.379 68.5973 383.539 68.736ZM386.976 68.736C387.136 68.8747 387.216 69.072 387.216 69.328C387.216 69.584 387.136 69.7867 386.976 69.936C386.816 70.0747 386.619 70.144 386.384 70.144C386.15 70.144 385.947 70.0747 385.776 69.936C385.616 69.7867 385.536 69.584 385.536 69.328C385.536 69.072 385.616 68.8747 385.776 68.736C385.947 68.5973 386.15 68.528 386.384 68.528C386.619 68.528 386.816 68.5973 386.976 68.736ZM390.414 68.736C390.574 68.8747 390.654 69.072 390.654 69.328C390.654 69.584 390.574 69.7867 390.414 69.936C390.254 70.0747 390.056 70.144 389.822 70.144C389.587 70.144 389.384 70.0747 389.214 69.936C389.054 69.7867 388.974 69.584 388.974 69.328C388.974 69.072 389.054 68.8747 389.214 68.736C389.384 68.5973 389.587 68.528 389.822 68.528C390.056 68.528 390.254 68.5973 390.414 68.736Z" fill="#9F9F9F"/>
<path d="M389.96 111.592C389.714 110.899 389.592 110.168 389.592 109.4C389.592 108.632 389.714 107.901 389.96 107.208C390.216 106.515 390.584 105.896 391.064 105.352C391.554 104.808 392.184 104.376 392.952 104.056C393.72 103.736 394.584 103.576 395.544 103.576C396.504 103.576 397.368 103.736 398.136 104.056C398.904 104.376 399.528 104.808 400.008 105.352C400.498 105.896 400.866 106.515 401.112 107.208C401.368 107.901 401.496 108.632 401.496 109.4C401.496 110.168 401.368 110.899 401.112 111.592C400.866 112.285 400.498 112.904 400.008 113.448C399.528 113.992 398.904 114.424 398.136 114.744C397.368 115.064 396.504 115.224 395.544 115.224C394.584 115.224 393.72 115.064 392.952 114.744C392.184 114.424 391.554 113.992 391.064 113.448C390.584 112.904 390.216 112.285 389.96 111.592ZM398.12 111.976C398.728 111.293 399.032 110.435 399.032 109.4C399.032 108.365 398.728 107.507 398.12 106.824C397.512 106.141 396.653 105.8 395.544 105.8C394.424 105.8 393.56 106.141 392.952 106.824C392.344 107.507 392.04 108.365 392.04 109.4C392.04 110.435 392.344 111.293 392.952 111.976C393.56 112.659 394.424 113 395.544 113C396.653 113 397.512 112.659 398.12 111.976ZM410.878 111.496C410.878 112.68 410.499 113.597 409.742 114.248C408.985 114.899 408.003 115.224 406.798 115.224C405.582 115.224 404.595 114.845 403.838 114.088C403.081 113.32 402.702 112.152 402.702 110.584C402.702 108.099 403.486 106.365 405.054 105.384C405.673 105 406.339 104.728 407.054 104.568C407.779 104.408 408.409 104.275 408.942 104.168C409.486 104.061 409.907 103.864 410.206 103.576V105.608C409.843 105.907 409.23 106.125 408.366 106.264C407.513 106.392 406.851 106.579 406.382 106.824C405.977 107.048 405.657 107.363 405.422 107.768C405.187 108.163 405.038 108.573 404.974 109C405.55 108.2 406.382 107.8 407.47 107.8C408.451 107.8 409.262 108.131 409.902 108.792C410.553 109.453 410.878 110.355 410.878 111.496ZM404.974 111.512C404.974 112.013 405.123 112.461 405.422 112.856C405.721 113.251 406.179 113.448 406.798 113.448C407.417 113.448 407.87 113.256 408.158 112.872C408.457 112.477 408.606 112.024 408.606 111.512C408.606 111 408.457 110.552 408.158 110.168C407.87 109.773 407.417 109.576 406.798 109.576C406.19 109.576 405.731 109.779 405.422 110.184C405.123 110.579 404.974 111.021 404.974 111.512ZM424.638 117.032H422.59V115H412.35V107.32H414.574V113.128H416.814V107.32H419.022V113.128H421.278V107.32H423.486V113.176H424.638V117.032ZM432.902 113.016C432.902 113.357 433.083 113.528 433.446 113.528C433.595 113.528 433.734 113.507 433.862 113.464V114.92C433.456 115.069 433.046 115.144 432.63 115.144C431.819 115.144 431.254 114.856 430.934 114.28C430.134 114.909 429.211 115.224 428.166 115.224C427.408 115.224 426.768 115.016 426.246 114.6C425.734 114.173 425.478 113.597 425.478 112.872C425.478 112.264 425.659 111.757 426.022 111.352C426.384 110.947 426.806 110.675 427.286 110.536C427.766 110.387 428.288 110.312 428.854 110.312C429.483 110.312 430.091 110.381 430.678 110.52V110.248C430.678 109.853 430.523 109.539 430.214 109.304C429.904 109.069 429.456 108.952 428.87 108.952C428.016 108.952 427.11 109.144 426.15 109.528V107.608C427.174 107.267 428.166 107.096 429.126 107.096C431.643 107.096 432.902 108.253 432.902 110.568V113.016ZM429.366 111.64C428.907 111.64 428.523 111.725 428.214 111.896C427.904 112.067 427.75 112.333 427.75 112.696C427.75 112.973 427.862 113.203 428.086 113.384C428.32 113.555 428.608 113.64 428.95 113.64C429.622 113.64 430.198 113.432 430.678 113.016V111.816C430.187 111.699 429.75 111.64 429.366 111.64ZM436.877 115H434.381L436.397 112.424C435.885 112.2 435.496 111.875 435.229 111.448C434.963 111.021 434.829 110.541 434.829 110.008C434.829 109.251 435.096 108.616 435.629 108.104C436.173 107.581 436.931 107.32 437.901 107.32H442.061V115H439.837V112.712H438.589L436.877 115ZM437.085 110.072C437.085 110.381 437.192 110.621 437.405 110.792C437.629 110.963 437.944 111.048 438.349 111.048H439.837V109.08H438.349C437.507 109.08 437.085 109.411 437.085 110.072Z" fill="#454545"/>
<path d="M24.568 148H23.112L27.992 136.8H29.48L34.344 148H32.904L31.752 145.296H25.72L24.568 148ZM28.552 138.608L26.248 144.048H31.224L28.904 138.608C28.8827 138.555 28.824 138.411 28.728 138.176C28.632 138.421 28.5733 138.565 28.552 138.608ZM36.9328 148H35.6528V140.32H36.9328V143.568H41.3808V140.32H42.6608V148H41.3808V144.752H36.9328V148ZM51.2678 146.4C51.2678 146.795 51.4651 146.992 51.8598 146.992C52.0304 146.992 52.2278 146.955 52.4518 146.88V147.92C52.1318 148.037 51.8118 148.096 51.4918 148.096C50.7558 148.096 50.2864 147.787 50.0838 147.168C49.2624 147.851 48.2651 148.192 47.0918 148.192C46.3451 148.192 45.7051 147.995 45.1718 147.6C44.6491 147.195 44.3878 146.613 44.3878 145.856C44.3878 144.949 44.7238 144.293 45.3958 143.888C46.0784 143.472 46.8998 143.264 47.8598 143.264C48.5638 143.264 49.2731 143.344 49.9878 143.504V143.232C49.9878 142.645 49.7958 142.181 49.4118 141.84C49.0278 141.488 48.4891 141.312 47.7958 141.312C46.8251 141.312 45.8918 141.504 44.9958 141.888V140.64C45.9984 140.299 46.9744 140.128 47.9238 140.128C48.9691 140.128 49.7851 140.411 50.3718 140.976C50.9691 141.531 51.2678 142.336 51.2678 143.392V146.4ZM45.6998 145.792C45.6998 146.219 45.8598 146.544 46.1798 146.768C46.5104 146.981 46.9051 147.088 47.3638 147.088C48.4198 147.088 49.2944 146.715 49.9878 145.968V144.56C49.2624 144.411 48.6118 144.336 48.0358 144.336C47.3851 144.336 46.8304 144.453 46.3718 144.688C45.9238 144.912 45.6998 145.28 45.6998 145.792ZM56.5446 141.504C56.4913 142.347 56.4273 143.083 56.3526 143.712C56.278 144.341 56.1713 144.949 56.0326 145.536C55.894 146.112 55.7233 146.581 55.5206 146.944C55.3286 147.307 55.0833 147.595 54.7846 147.808C54.486 148.021 54.1446 148.128 53.7606 148.128C53.4513 148.128 53.142 148.069 52.8326 147.952V146.944C53.0033 147.008 53.174 147.04 53.3446 147.04C53.9846 147.04 54.4486 146.48 54.7366 145.36C55.0353 144.229 55.222 142.549 55.2966 140.32H60.9446V148H59.6646V141.504H56.5446ZM64.397 148H63.309V140.32H64.589V145.936L69.293 140.32H70.381V148H69.101V142.384L64.397 148ZM78.4905 145.936C78.4905 146.651 78.1812 147.205 77.5625 147.6C76.9545 147.995 76.1118 148.192 75.0345 148.192C73.9572 148.192 73.0132 147.995 72.2025 147.6V146.384C72.9812 146.8 73.8718 147.008 74.8745 147.008C76.4318 147.008 77.2105 146.603 77.2105 145.792C77.2105 145.056 76.6452 144.688 75.5145 144.688H73.8345V143.504H75.5145C76.5385 143.504 77.0505 143.173 77.0505 142.512C77.0505 142.107 76.8585 141.803 76.4745 141.6C76.0905 141.397 75.5785 141.296 74.9385 141.296C74.0105 141.296 73.1412 141.499 72.3305 141.904V140.704C73.1945 140.309 74.1118 140.112 75.0825 140.112C76.1278 140.112 76.9278 140.315 77.4825 140.72C78.0478 141.115 78.3305 141.653 78.3305 142.336C78.3305 142.795 78.2025 143.173 77.9465 143.472C77.6905 143.771 77.3438 143.968 76.9065 144.064C77.3652 144.181 77.7438 144.405 78.0425 144.736C78.3412 145.067 78.4905 145.467 78.4905 145.936ZM90.5959 146.4C90.5959 146.795 90.7932 146.992 91.1879 146.992C91.3585 146.992 91.5559 146.955 91.7799 146.88V147.92C91.4599 148.037 91.1399 148.096 90.8199 148.096C90.0839 148.096 89.6145 147.787 89.4119 147.168C88.5905 147.851 87.5932 148.192 86.4199 148.192C85.6732 148.192 85.0332 147.995 84.4999 147.6C83.9772 147.195 83.7159 146.613 83.7159 145.856C83.7159 144.949 84.0519 144.293 84.7239 143.888C85.4065 143.472 86.2279 143.264 87.1879 143.264C87.8919 143.264 88.6012 143.344 89.3159 143.504V143.232C89.3159 142.645 89.1239 142.181 88.7399 141.84C88.3559 141.488 87.8172 141.312 87.1239 141.312C86.1532 141.312 85.2199 141.504 84.3239 141.888V140.64C85.3265 140.299 86.3025 140.128 87.2519 140.128C88.2972 140.128 89.1132 140.411 89.6999 140.976C90.2972 141.531 90.5959 142.336 90.5959 143.392V146.4ZM85.0279 145.792C85.0279 146.219 85.1879 146.544 85.5079 146.768C85.8385 146.981 86.2332 147.088 86.6919 147.088C87.7479 147.088 88.6225 146.715 89.3159 145.968V144.56C88.5905 144.411 87.9399 144.336 87.3639 144.336C86.7132 144.336 86.1585 144.453 85.6999 144.688C85.2519 144.912 85.0279 145.28 85.0279 145.792ZM94.4328 148H93.1528V140.32H94.4328V143.568H98.8808V140.32H100.161V148H98.8808V144.752H94.4328V148ZM108.768 146.4C108.768 146.795 108.965 146.992 109.36 146.992C109.53 146.992 109.728 146.955 109.952 146.88V147.92C109.632 148.037 109.312 148.096 108.992 148.096C108.256 148.096 107.786 147.787 107.584 147.168C106.762 147.851 105.765 148.192 104.592 148.192C103.845 148.192 103.205 147.995 102.672 147.6C102.149 147.195 101.888 146.613 101.888 145.856C101.888 144.949 102.224 144.293 102.896 143.888C103.578 143.472 104.4 143.264 105.36 143.264C106.064 143.264 106.773 143.344 107.488 143.504V143.232C107.488 142.645 107.296 142.181 106.912 141.84C106.528 141.488 105.989 141.312 105.296 141.312C104.325 141.312 103.392 141.504 102.496 141.888V140.64C103.498 140.299 104.474 140.128 105.424 140.128C106.469 140.128 107.285 140.411 107.872 140.976C108.469 141.531 108.768 142.336 108.768 143.392V146.4ZM103.2 145.792C103.2 146.219 103.36 146.544 103.68 146.768C104.01 146.981 104.405 147.088 104.864 147.088C105.92 147.088 106.794 146.715 107.488 145.968V144.56C106.762 144.411 106.112 144.336 105.536 144.336C104.885 144.336 104.33 144.453 103.872 144.688C103.424 144.912 103.2 145.28 103.2 145.792ZM114.045 141.504C113.991 142.347 113.927 143.083 113.853 143.712C113.778 144.341 113.671 144.949 113.533 145.536C113.394 146.112 113.223 146.581 113.021 146.944C112.829 147.307 112.583 147.595 112.285 147.808C111.986 148.021 111.645 148.128 111.261 148.128C110.951 148.128 110.642 148.069 110.333 147.952V146.944C110.503 147.008 110.674 147.04 110.845 147.04C111.485 147.04 111.949 146.48 112.237 145.36C112.535 144.229 112.722 142.549 112.797 140.32H118.445V148H117.165V141.504H114.045ZM121.497 147.12C120.686 146.395 120.281 145.408 120.281 144.16C120.281 142.912 120.686 141.931 121.497 141.216C122.308 140.491 123.268 140.128 124.377 140.128C125.497 140.128 126.457 140.491 127.257 141.216C128.068 141.931 128.473 142.912 128.473 144.16C128.473 145.408 128.068 146.395 127.257 147.12C126.457 147.835 125.497 148.192 124.377 148.192C123.268 148.192 122.308 147.835 121.497 147.12ZM126.393 146.224C126.926 145.712 127.193 145.024 127.193 144.16C127.193 143.296 126.926 142.613 126.393 142.112C125.86 141.6 125.188 141.344 124.377 141.344C123.566 141.344 122.894 141.6 122.361 142.112C121.828 142.613 121.561 143.296 121.561 144.16C121.561 145.024 121.828 145.712 122.361 146.224C122.894 146.725 123.566 146.976 124.377 146.976C125.188 146.976 125.86 146.725 126.393 146.224ZM131.589 148H130.309V140.32H135.925V141.504H131.589V148ZM137.794 147.12C136.983 146.395 136.578 145.408 136.578 144.16C136.578 142.912 136.983 141.931 137.794 141.216C138.605 140.491 139.565 140.128 140.674 140.128C141.794 140.128 142.754 140.491 143.554 141.216C144.365 141.931 144.77 142.912 144.77 144.16C144.77 145.408 144.365 146.395 143.554 147.12C142.754 147.835 141.794 148.192 140.674 148.192C139.565 148.192 138.605 147.835 137.794 147.12ZM142.69 146.224C143.223 145.712 143.49 145.024 143.49 144.16C143.49 143.296 143.223 142.613 142.69 142.112C142.157 141.6 141.485 141.344 140.674 141.344C139.863 141.344 139.191 141.6 138.658 142.112C138.125 142.613 137.858 143.296 137.858 144.16C137.858 145.024 138.125 145.712 138.658 146.224C139.191 146.725 139.863 146.976 140.674 146.976C141.485 146.976 142.157 146.725 142.69 146.224ZM150.942 148H146.606V140.32H150.814C151.507 140.32 152.073 140.501 152.51 140.864C152.958 141.227 153.182 141.739 153.182 142.4C153.182 142.784 153.086 143.131 152.894 143.44C152.702 143.749 152.457 143.968 152.158 144.096C152.51 144.213 152.809 144.427 153.054 144.736C153.299 145.045 153.422 145.424 153.422 145.872C153.422 146.523 153.209 147.04 152.782 147.424C152.366 147.808 151.753 148 150.942 148ZM147.886 144.672V146.88H150.766C151.683 146.88 152.142 146.517 152.142 145.792C152.142 145.045 151.699 144.672 150.814 144.672H147.886ZM147.886 141.44V143.568H150.686C151.486 143.568 151.886 143.221 151.886 142.528C151.886 142.133 151.769 141.856 151.534 141.696C151.299 141.525 151.017 141.44 150.686 141.44H147.886Z" fill="#454545"/>
<path d="M24.568 186H23.112L27.992 174.8H29.48L34.344 186H32.904L31.752 183.296H25.72L24.568 186ZM28.552 176.608L26.248 182.048H31.224L28.904 176.608C28.8827 176.555 28.824 176.411 28.728 176.176C28.632 176.421 28.5733 176.565 28.552 176.608ZM36.9328 186H35.6528V178.32H36.9328V181.568H41.3808V178.32H42.6608V186H41.3808V182.752H36.9328V186ZM51.2678 184.4C51.2678 184.795 51.4651 184.992 51.8598 184.992C52.0304 184.992 52.2278 184.955 52.4518 184.88V185.92C52.1318 186.037 51.8118 186.096 51.4918 186.096C50.7558 186.096 50.2864 185.787 50.0838 185.168C49.2624 185.851 48.2651 186.192 47.0918 186.192C46.3451 186.192 45.7051 185.995 45.1718 185.6C44.6491 185.195 44.3878 184.613 44.3878 183.856C44.3878 182.949 44.7238 182.293 45.3958 181.888C46.0784 181.472 46.8998 181.264 47.8598 181.264C48.5638 181.264 49.2731 181.344 49.9878 181.504V181.232C49.9878 180.645 49.7958 180.181 49.4118 179.84C49.0278 179.488 48.4891 179.312 47.7958 179.312C46.8251 179.312 45.8918 179.504 44.9958 179.888V178.64C45.9984 178.299 46.9744 178.128 47.9238 178.128C48.9691 178.128 49.7851 178.411 50.3718 178.976C50.9691 179.531 51.2678 180.336 51.2678 181.392V184.4ZM45.6998 183.792C45.6998 184.219 45.8598 184.544 46.1798 184.768C46.5104 184.981 46.9051 185.088 47.3638 185.088C48.4198 185.088 49.2944 184.715 49.9878 183.968V182.56C49.2624 182.411 48.6118 182.336 48.0358 182.336C47.3851 182.336 46.8304 182.453 46.3718 182.688C45.9238 182.912 45.6998 183.28 45.6998 183.792ZM56.5446 179.504C56.4913 180.347 56.4273 181.083 56.3526 181.712C56.278 182.341 56.1713 182.949 56.0326 183.536C55.894 184.112 55.7233 184.581 55.5206 184.944C55.3286 185.307 55.0833 185.595 54.7846 185.808C54.486 186.021 54.1446 186.128 53.7606 186.128C53.4513 186.128 53.142 186.069 52.8326 185.952V184.944C53.0033 185.008 53.174 185.04 53.3446 185.04C53.9846 185.04 54.4486 184.48 54.7366 183.36C55.0353 182.229 55.222 180.549 55.2966 178.32H60.9446V186H59.6646V179.504H56.5446ZM64.397 186H63.309V178.32H64.589V183.936L69.293 178.32H70.381V186H69.101V180.384L64.397 186ZM78.4905 183.936C78.4905 184.651 78.1812 185.205 77.5625 185.6C76.9545 185.995 76.1118 186.192 75.0345 186.192C73.9572 186.192 73.0132 185.995 72.2025 185.6V184.384C72.9812 184.8 73.8718 185.008 74.8745 185.008C76.4318 185.008 77.2105 184.603 77.2105 183.792C77.2105 183.056 76.6452 182.688 75.5145 182.688H73.8345V181.504H75.5145C76.5385 181.504 77.0505 181.173 77.0505 180.512C77.0505 180.107 76.8585 179.803 76.4745 179.6C76.0905 179.397 75.5785 179.296 74.9385 179.296C74.0105 179.296 73.1412 179.499 72.3305 179.904V178.704C73.1945 178.309 74.1118 178.112 75.0825 178.112C76.1278 178.112 76.9278 178.315 77.4825 178.72C78.0478 179.115 78.3305 179.653 78.3305 180.336C78.3305 180.795 78.2025 181.173 77.9465 181.472C77.6905 181.771 77.3438 181.968 76.9065 182.064C77.3652 182.181 77.7438 182.405 78.0425 182.736C78.3412 183.067 78.4905 183.467 78.4905 183.936ZM85.5079 179.6C86.3719 178.619 87.4065 178.128 88.6119 178.128C89.7105 178.128 90.6225 178.512 91.3479 179.28C92.0839 180.048 92.4519 181.008 92.4519 182.16C92.4519 183.312 92.0839 184.272 91.3479 185.04C90.6225 185.808 89.7105 186.192 88.6119 186.192C87.3959 186.192 86.4039 185.744 85.6359 184.848V189.52H84.3559V178.32H85.5079V179.6ZM90.3879 184.224C90.9105 183.701 91.1719 183.013 91.1719 182.16C91.1719 181.307 90.9105 180.619 90.3879 180.096C89.8759 179.573 89.2359 179.312 88.4679 179.312C87.8172 179.312 87.2412 179.493 86.7399 179.856C86.2385 180.219 85.8705 180.667 85.6359 181.2V183.12C85.8705 183.653 86.2385 184.101 86.7399 184.464C87.2412 184.827 87.8172 185.008 88.4679 185.008C89.2359 185.008 89.8759 184.747 90.3879 184.224ZM97.9414 186H94.2934V178.32H95.5734V181.008H97.9414C98.8587 181.008 99.584 181.243 100.117 181.712C100.651 182.181 100.917 182.779 100.917 183.504C100.917 184.229 100.651 184.827 100.117 185.296C99.584 185.765 98.8587 186 97.9414 186ZM95.5734 182.16V184.848H97.7814C98.3574 184.848 98.8054 184.736 99.1254 184.512C99.456 184.288 99.6214 183.952 99.6214 183.504C99.6214 183.056 99.456 182.72 99.1254 182.496C98.8054 182.272 98.3574 182.16 97.7814 182.16H95.5734ZM103.685 186H102.405V178.32H103.685V186ZM107.339 186H106.059V178.32H107.339V181.568H111.787V178.32H113.067V186H111.787V182.752H107.339V186ZM116.714 186H115.434V178.32H116.714V181.52H118.266L120.698 178.32H122.186L119.274 182.144L122.538 186H121.034L118.218 182.704H116.714V186ZM129.987 184.4C129.987 184.795 130.184 184.992 130.579 184.992C130.749 184.992 130.947 184.955 131.171 184.88V185.92C130.851 186.037 130.531 186.096 130.211 186.096C129.475 186.096 129.005 185.787 128.803 185.168C127.981 185.851 126.984 186.192 125.811 186.192C125.064 186.192 124.424 185.995 123.891 185.6C123.368 185.195 123.107 184.613 123.107 183.856C123.107 182.949 123.443 182.293 124.115 181.888C124.797 181.472 125.619 181.264 126.579 181.264C127.283 181.264 127.992 181.344 128.707 181.504V181.232C128.707 180.645 128.515 180.181 128.131 179.84C127.747 179.488 127.208 179.312 126.515 179.312C125.544 179.312 124.611 179.504 123.715 179.888V178.64C124.717 178.299 125.693 178.128 126.643 178.128C127.688 178.128 128.504 178.411 129.091 178.976C129.688 179.531 129.987 180.336 129.987 181.392V184.4ZM124.419 183.792C124.419 184.219 124.579 184.544 124.899 184.768C125.229 184.981 125.624 185.088 126.083 185.088C127.139 185.088 128.013 184.715 128.707 183.968V182.56C127.981 182.411 127.331 182.336 126.755 182.336C126.104 182.336 125.549 182.453 125.091 182.688C124.643 182.912 124.419 183.28 124.419 183.792Z" fill="#454545"/>
<rect x="427.5" y="134.5" width="15" height="15" rx="2.5" stroke="#E6E6E6"/>
<rect x="427" y="174" width="16" height="16" rx="3" fill="#454545"/>
<path d="M431.922 182L434.383 184.462L438.691 180.154" stroke="white" stroke-linecap="round" stroke-linejoin="round"/>
<path fill-rule="evenodd" clip-rule="evenodd" d="M86.3571 58.8571C83.8719 58.8571 81.8571 60.8719 81.8571 63.3571C81.8571 65.8424 83.8719 67.8571 86.3571 67.8571C87.5988 67.8571 88.7222 67.3549 89.5368 66.5414C90.353 65.7264 90.8571 64.6011 90.8571 63.3571C90.8571 60.8719 88.8424 58.8571 86.3571 58.8571ZM81 63.3571C81 60.3985 83.3985 58 86.3571 58C89.3158 58 91.7143 60.3985 91.7143 63.3571C91.7143 64.6832 91.2321 65.8972 90.4341 66.8325L92.8742 69.2681C93.0417 69.4353 93.042 69.7067 92.8748 69.8742C92.7075 70.0417 92.4362 70.042 92.2686 69.8748L89.8277 67.4383C88.893 68.2337 87.6809 68.7143 86.3571 68.7143C83.3985 68.7143 81 66.3158 81 63.3571Z" fill="#9F9F9F" stroke="#9F9F9F" stroke-width="0.5"/>
</svg>
