<svg width="619" height="323" viewBox="0 0 619 323" fill="none" xmlns="http://www.w3.org/2000/svg">
<rect width="619" height="323" rx="20" fill="white"/>
<path d="M55 277H568" stroke="#37376D"/>
<path d="M66 289L66 37" stroke="#37376D"/>
<path d="M67 186H568" stroke="#DDDDE6" stroke-dasharray="7 7"/>
<path d="M67 127H568" stroke="#DDDDE6" stroke-dasharray="7 7"/>
<path d="M67 66.5H568" stroke="#DDDDE6" stroke-dasharray="7 7"/>
<path d="M44.2455 133.108C43.2375 133.108 42.3675 132.964 41.6355 132.676C40.9155 132.388 40.3575 131.974 39.9615 131.434C39.5775 130.882 39.3855 130.234 39.3855 129.49C39.3855 128.77 39.5715 128.158 39.9435 127.654C40.3275 127.138 40.8795 126.742 41.5995 126.466C42.3315 126.19 43.2135 126.052 44.2455 126.052C45.2655 126.052 46.1415 126.19 46.8735 126.466C47.6055 126.742 48.1635 127.138 48.5475 127.654C48.9435 128.158 49.1415 128.77 49.1415 129.49C49.1415 130.234 48.9435 130.882 48.5475 131.434C48.1515 131.974 47.5875 132.388 46.8555 132.676C46.1235 132.964 45.2535 133.108 44.2455 133.108ZM44.2455 132.01C45.3615 132.01 46.2315 131.782 46.8555 131.326C47.4915 130.87 47.8095 130.252 47.8095 129.472C47.8095 128.692 47.4915 128.08 46.8555 127.636C46.2315 127.18 45.3615 126.952 44.2455 126.952C43.1295 126.952 42.2595 127.18 41.6355 127.636C41.0115 128.08 40.6995 128.692 40.6995 129.472C40.6995 130.252 41.0115 130.87 41.6355 131.326C42.2595 131.782 43.1295 132.01 44.2455 132.01ZM44.2455 126.79C43.3095 126.79 42.5115 126.664 41.8515 126.412C41.2035 126.16 40.7055 125.8 40.3575 125.332C40.0095 124.852 39.8355 124.282 39.8355 123.622C39.8355 122.926 40.0155 122.332 40.3755 121.84C40.7475 121.336 41.2635 120.952 41.9235 120.688C42.5835 120.424 43.3575 120.292 44.2455 120.292C45.1335 120.292 45.9075 120.424 46.5675 120.688C47.2395 120.952 47.7615 121.336 48.1335 121.84C48.5055 122.332 48.6915 122.926 48.6915 123.622C48.6915 124.282 48.5175 124.852 48.1695 125.332C47.8215 125.8 47.3115 126.16 46.6395 126.412C45.9795 126.664 45.1815 126.79 44.2455 126.79ZM44.2455 125.926C45.2295 125.926 45.9975 125.722 46.5495 125.314C47.1015 124.906 47.3775 124.36 47.3775 123.676C47.3775 122.956 47.0895 122.398 46.5135 122.002C45.9495 121.594 45.1935 121.39 44.2455 121.39C43.2975 121.39 42.5415 121.594 41.9775 122.002C41.4135 122.398 41.1315 122.95 41.1315 123.658C41.1315 124.354 41.4015 124.906 41.9415 125.314C42.4935 125.722 43.2615 125.926 44.2455 125.926Z" fill="#454545"/>
<path d="M43.8913 60.292C45.0073 60.292 45.9493 60.544 46.7173 61.048C47.4853 61.54 48.0673 62.254 48.4633 63.19C48.8593 64.126 49.0573 65.26 49.0573 66.592C49.0573 68.008 48.8113 69.202 48.3193 70.174C47.8393 71.146 47.1673 71.878 46.3033 72.37C45.4393 72.862 44.4373 73.108 43.2973 73.108C42.7333 73.108 42.1933 73.054 41.6772 72.946C41.1733 72.838 40.7173 72.664 40.3093 72.424L40.8313 71.38C41.1553 71.596 41.5273 71.752 41.9473 71.848C42.3793 71.932 42.8233 71.974 43.2793 71.974C44.6353 71.974 45.7153 71.542 46.5193 70.678C47.3353 69.814 47.7433 68.524 47.7433 66.808C47.7433 66.532 47.7253 66.202 47.6893 65.818C47.6653 65.434 47.5993 65.05 47.4913 64.666L47.9413 65.008C47.8213 65.632 47.5633 66.166 47.1673 66.61C46.7833 67.042 46.3033 67.372 45.7273 67.6C45.1633 67.828 44.5333 67.942 43.8373 67.942C43.0093 67.942 42.2713 67.786 41.6233 67.474C40.9873 67.162 40.4893 66.724 40.1293 66.16C39.7693 65.596 39.5893 64.93 39.5893 64.162C39.5893 63.37 39.7753 62.686 40.1473 62.11C40.5193 61.534 41.0293 61.09 41.6772 60.778C42.3373 60.454 43.0753 60.292 43.8913 60.292ZM43.9453 61.39C43.3453 61.39 42.8113 61.504 42.3433 61.732C41.8873 61.948 41.5273 62.26 41.2633 62.668C40.9993 63.076 40.8673 63.562 40.8673 64.126C40.8673 64.954 41.1493 65.614 41.7133 66.106C42.2893 66.598 43.0633 66.844 44.0353 66.844C44.6833 66.844 45.2473 66.724 45.7273 66.484C46.2193 66.244 46.5973 65.914 46.8613 65.494C47.1373 65.074 47.2753 64.606 47.2753 64.09C47.2753 63.622 47.1493 63.184 46.8973 62.776C46.6453 62.368 46.2733 62.038 45.7813 61.786C45.2893 61.522 44.6773 61.39 43.9453 61.39Z" fill="#454545"/>
<path d="M42.5504 191L47.9864 178.976L48.3824 179.552H40.5884L41.2544 178.922V181.91H39.9764V178.4H49.2284V179.318L43.9544 191H42.5504Z" fill="#454545"/>
<path d="M45.1333 249.108C44.0173 249.108 43.0753 248.862 42.3073 248.37C41.5393 247.866 40.9573 247.146 40.5613 246.21C40.1653 245.262 39.9673 244.128 39.9673 242.808C39.9673 241.38 40.2073 240.186 40.6873 239.226C41.1793 238.254 41.8573 237.522 42.7213 237.03C43.5853 236.538 44.5873 236.292 45.7273 236.292C46.2913 236.292 46.8313 236.346 47.3473 236.454C47.8633 236.562 48.3193 236.736 48.7153 236.976L48.1933 238.02C47.8693 237.804 47.4973 237.654 47.0773 237.57C46.6573 237.474 46.2133 237.426 45.7453 237.426C44.3893 237.426 43.3033 237.858 42.4873 238.722C41.6833 239.586 41.2812 240.876 41.2812 242.592C41.2812 242.856 41.2933 243.186 41.3173 243.582C41.3533 243.966 41.4253 244.35 41.5333 244.734L41.0833 244.392C41.2153 243.768 41.4733 243.24 41.8573 242.808C42.2413 242.364 42.7213 242.028 43.2973 241.8C43.8733 241.572 44.5033 241.458 45.1873 241.458C46.0273 241.458 46.7653 241.614 47.4013 241.926C48.0373 242.238 48.5353 242.676 48.8953 243.24C49.2553 243.804 49.4353 244.47 49.4353 245.238C49.4353 246.018 49.2493 246.702 48.8773 247.29C48.5053 247.866 47.9893 248.316 47.3293 248.64C46.6813 248.952 45.9493 249.108 45.1333 249.108ZM45.0793 248.01C45.6793 248.01 46.2073 247.902 46.6633 247.686C47.1313 247.458 47.4973 247.14 47.7613 246.732C48.0253 246.312 48.1573 245.826 48.1573 245.274C48.1573 244.446 47.8693 243.786 47.2933 243.294C46.7293 242.802 45.9613 242.556 44.9893 242.556C44.3413 242.556 43.7773 242.676 43.2973 242.916C42.8173 243.156 42.4393 243.486 42.1633 243.906C41.8873 244.314 41.7493 244.782 41.7493 245.31C41.7493 245.766 41.8753 246.204 42.1273 246.624C42.3793 247.032 42.7513 247.368 43.2433 247.632C43.7473 247.884 44.3593 248.01 45.0793 248.01Z" fill="#454545"/>
<path d="M66.5 258.5H111.5L139.5 230.5H161.5L210.5 181.5H236.5L280 138H318.5L348 108.5H414.5L432 91H501H569" stroke="#CBCBDD" stroke-width="2"/>
<path d="M66.5 258H91.5L106 243.5L119 230.5H211L222.5 219H244L261.5 201.5H293L327 167.5H381L394 180.5H422.5L435.5 167.5H469.5L489 187L529 147H569.5" stroke="#CBCBDD" stroke-width="2"/>
<path d="M66.5 237H92L99 230H188.5L203 215.5H263.5L274.5 226.5H338L349 215.5H400L409.5 206H431H460L472.5 218.5H501.5L514 206H568" stroke="#CBCBDD" stroke-width="2"/>
<rect x="196" y="37" width="35" height="240" fill="#F28100" fill-opacity="0.1"/>
<path d="M196 37V277" stroke="#F28100" stroke-width="2"/>
<path d="M231 37V277" stroke="#F28100" stroke-width="2"/>
<rect x="386" y="37" width="103" height="240" fill="#F28100" fill-opacity="0.1"/>
<path d="M386 37V277" stroke="#F28100" stroke-width="2"/>
<path d="M489 37V277" stroke="#F28100" stroke-width="2"/>
<mask id="mask0_122_722" style="mask-type:alpha" maskUnits="userSpaceOnUse" x="66" y="90" width="504" height="170">
<path d="M66.5 258.5H111.5L139.5 230.5H161.5L210.5 181.5H236.5L280 138H318.5L348 108.5H414.5L432 91H569M66.5 258H91.5L119 230.5H211L222.5 219H244L261.5 201.5H293L327 167.5H381L394 180.5H422.5L435.5 167.5H469.5L489 187L529 147H569.5M66.5 237H92L99 230H188.5L203 215.5H263.5L274.5 226.5H338L349 215.5H400L409.5 206H460L472.5 218.5H501.5L514 206H568" stroke="#CBCBDD" stroke-width="2"/>
</mask>
<g mask="url(#mask0_122_722)">
<path d="M231 37H196V277H231V37Z" fill="#F28100"/>
<path d="M489 37H386V277H489V37Z" fill="#F28100"/>
</g>
<rect x="195" y="23" width="37" height="29" rx="14.5" fill="#F28100"/>
<path d="M204.546 42.1374C203.989 42.1374 203.435 42.0649 202.886 41.9198C202.336 41.7671 201.87 41.5534 201.489 41.2785L202.21 39.8584C202.515 40.0798 202.87 40.2554 203.275 40.3852C203.68 40.515 204.088 40.5799 204.501 40.5799C204.966 40.5799 205.333 40.4883 205.6 40.305C205.867 40.1218 206.001 39.8699 206.001 39.5492C206.001 39.2438 205.882 39.0033 205.646 38.8277C205.409 38.6521 205.027 38.5643 204.501 38.5643H203.653V37.3389L205.886 34.8079L206.092 35.4721H201.889V33.9833H207.501V35.1858L205.279 37.7168L204.34 37.1785H204.878C205.863 37.1785 206.608 37.4 207.112 37.8428C207.616 38.2856 207.868 38.8544 207.868 39.5492C207.868 39.9997 207.749 40.4234 207.513 40.8204C207.276 41.2098 206.913 41.5266 206.425 41.771C205.936 42.0153 205.31 42.1374 204.546 42.1374ZM208.599 42V40.7975L211.692 37.8771C211.936 37.6557 212.115 37.4572 212.23 37.2816C212.344 37.106 212.421 36.9457 212.459 36.8006C212.505 36.6556 212.528 36.5219 212.528 36.3998C212.528 36.0791 212.417 35.8348 212.196 35.6668C211.982 35.4912 211.665 35.4034 211.245 35.4034C210.909 35.4034 210.596 35.4683 210.306 35.5981C210.023 35.7279 209.783 35.9302 209.584 36.2051L208.233 35.3347C208.538 34.8766 208.966 34.514 209.516 34.2467C210.065 33.9795 210.699 33.8459 211.417 33.8459C212.012 33.8459 212.531 33.9452 212.974 34.1437C213.425 34.3345 213.772 34.6056 214.016 34.9568C214.268 35.308 214.394 35.7279 214.394 36.2165C214.394 36.4761 214.36 36.7357 214.291 36.9953C214.23 37.2473 214.1 37.5145 213.902 37.797C213.711 38.0795 213.429 38.3963 213.054 38.7475L210.489 41.164L210.134 40.4883H214.658V42H208.599ZM216.692 42L222.166 33.9833H223.529L218.055 42H216.692ZM217.39 38.3123C217.001 38.3123 216.657 38.2245 216.36 38.0489C216.062 37.8657 215.825 37.6099 215.65 37.2816C215.482 36.9457 215.398 36.5525 215.398 36.102C215.398 35.6516 215.482 35.2622 215.65 34.9339C215.825 34.6056 216.062 34.3498 216.36 34.1666C216.657 33.9833 217.001 33.8917 217.39 33.8917C217.78 33.8917 218.123 33.9833 218.421 34.1666C218.719 34.3498 218.952 34.6056 219.12 34.9339C219.288 35.2622 219.372 35.6516 219.372 36.102C219.372 36.5525 219.288 36.9457 219.12 37.2816C218.952 37.6099 218.719 37.8657 218.421 38.0489C218.123 38.2245 217.78 38.3123 217.39 38.3123ZM217.39 37.3732C217.642 37.3732 217.845 37.2702 217.997 37.064C218.15 36.8502 218.226 36.5296 218.226 36.102C218.226 35.6745 218.15 35.3576 217.997 35.1515C217.845 34.9377 217.642 34.8308 217.39 34.8308C217.146 34.8308 216.944 34.9377 216.783 35.1515C216.631 35.3576 216.554 35.6745 216.554 36.102C216.554 36.5219 216.631 36.8388 216.783 37.0526C216.944 37.2663 217.146 37.3732 217.39 37.3732ZM222.83 42.0916C222.449 42.0916 222.105 42.0038 221.8 41.8282C221.502 41.645 221.269 41.3892 221.101 41.0609C220.933 40.725 220.849 40.3318 220.849 39.8813C220.849 39.4308 220.933 39.0415 221.101 38.7132C221.269 38.3849 221.502 38.1291 221.8 37.9459C222.105 37.7626 222.449 37.671 222.83 37.671C223.227 37.671 223.575 37.7626 223.872 37.9459C224.17 38.1291 224.403 38.3849 224.571 38.7132C224.739 39.0415 224.823 39.4308 224.823 39.8813C224.823 40.3318 224.739 40.725 224.571 41.0609C224.403 41.3892 224.17 41.645 223.872 41.8282C223.575 42.0038 223.227 42.0916 222.83 42.0916ZM222.83 41.1525C223.082 41.1525 223.285 41.0495 223.437 40.8433C223.59 40.6295 223.666 40.3089 223.666 39.8813C223.666 39.4614 223.59 39.1445 223.437 38.9308C223.285 38.717 223.082 38.6101 222.83 38.6101C222.586 38.6101 222.384 38.717 222.223 38.9308C222.071 39.1369 221.994 39.4538 221.994 39.8813C221.994 40.3089 222.071 40.6295 222.223 40.8433C222.384 41.0495 222.586 41.1525 222.83 41.1525Z" fill="white"/>
<rect x="386" y="23" width="103" height="29" rx="14.5" fill="#F28100"/>
<path d="M428.768 42.1374C428.096 42.1374 427.508 42.0382 427.004 41.8397C426.5 41.6335 426.107 41.3472 425.825 40.9807C425.542 40.6066 425.401 40.1714 425.401 39.6752C425.401 39.1789 425.538 38.759 425.813 38.4154C426.096 38.0642 426.489 37.8008 426.993 37.6252C427.497 37.442 428.088 37.3503 428.768 37.3503C429.455 37.3503 430.051 37.442 430.554 37.6252C431.066 37.8008 431.459 38.0642 431.734 38.4154C432.016 38.759 432.158 39.1789 432.158 39.6752C432.158 40.1714 432.016 40.6066 431.734 40.9807C431.452 41.3472 431.054 41.6335 430.543 41.8397C430.039 42.0382 429.447 42.1374 428.768 42.1374ZM428.768 40.7746C429.234 40.7746 429.6 40.6715 429.867 40.4654C430.142 40.2592 430.28 39.9767 430.28 39.6179C430.28 39.2591 430.142 38.9804 429.867 38.7819C429.6 38.5757 429.234 38.4727 428.768 38.4727C428.31 38.4727 427.947 38.5757 427.68 38.7819C427.413 38.9804 427.279 39.2591 427.279 39.6179C427.279 39.9767 427.413 40.2592 427.68 40.4654C427.947 40.6715 428.31 40.7746 428.768 40.7746ZM428.768 38.2894C428.149 38.2894 427.607 38.2054 427.142 38.0375C426.684 37.8695 426.325 37.6252 426.065 37.3045C425.813 36.9762 425.687 36.5868 425.687 36.1364C425.687 35.663 425.817 35.2584 426.077 34.9224C426.336 34.5789 426.699 34.3155 427.165 34.1322C427.63 33.9413 428.165 33.8459 428.768 33.8459C429.386 33.8459 429.925 33.9413 430.383 34.1322C430.848 34.3155 431.211 34.5789 431.471 34.9224C431.738 35.2584 431.871 35.663 431.871 36.1364C431.871 36.5868 431.742 36.9762 431.482 37.3045C431.23 37.6252 430.871 37.8695 430.406 38.0375C429.94 38.2054 429.394 38.2894 428.768 38.2894ZM428.768 37.2015C429.157 37.2015 429.463 37.1137 429.684 36.938C429.913 36.7624 430.028 36.5219 430.028 36.2165C430.028 35.8959 429.909 35.6477 429.673 35.4721C429.444 35.2965 429.142 35.2087 428.768 35.2087C428.401 35.2087 428.104 35.2965 427.875 35.4721C427.646 35.6477 427.531 35.8959 427.531 36.2165C427.531 36.5219 427.642 36.7624 427.863 36.938C428.085 37.1137 428.386 37.2015 428.768 37.2015ZM435.733 42.1374C435.175 42.1374 434.622 42.0649 434.072 41.9198C433.53 41.7671 433.064 41.5534 432.675 41.2785L433.408 39.8584C433.713 40.0798 434.064 40.2554 434.461 40.3852C434.866 40.515 435.275 40.5799 435.687 40.5799C436.153 40.5799 436.519 40.4883 436.786 40.305C437.054 40.1218 437.187 39.866 437.187 39.5377C437.187 39.3316 437.134 39.1484 437.027 38.988C436.92 38.8277 436.729 38.7055 436.454 38.6215C436.187 38.5376 435.809 38.4956 435.32 38.4956H433.27L433.683 33.9833H438.573V35.4721H434.347L435.309 34.6247L435.023 37.8428L434.061 36.9953H435.756C436.55 36.9953 437.187 37.106 437.668 37.3274C438.157 37.5412 438.512 37.8352 438.733 38.2093C438.955 38.5834 439.065 39.0071 439.065 39.4805C439.065 39.9538 438.947 40.3928 438.71 40.7975C438.474 41.1945 438.107 41.519 437.611 41.771C437.122 42.0153 436.496 42.1374 435.733 42.1374ZM440.863 42L446.337 33.9833H447.7L442.226 42H440.863ZM441.561 38.3123C441.172 38.3123 440.829 38.2245 440.531 38.0489C440.233 37.8657 439.996 37.6099 439.821 37.2816C439.653 36.9457 439.569 36.5525 439.569 36.102C439.569 35.6516 439.653 35.2622 439.821 34.9339C439.996 34.6056 440.233 34.3498 440.531 34.1666C440.829 33.9833 441.172 33.8917 441.561 33.8917C441.951 33.8917 442.294 33.9833 442.592 34.1666C442.89 34.3498 443.123 34.6056 443.291 34.9339C443.459 35.2622 443.543 35.6516 443.543 36.102C443.543 36.5525 443.459 36.9457 443.291 37.2816C443.123 37.6099 442.89 37.8657 442.592 38.0489C442.294 38.2245 441.951 38.3123 441.561 38.3123ZM441.561 37.3732C441.813 37.3732 442.016 37.2702 442.168 37.064C442.321 36.8502 442.398 36.5296 442.398 36.102C442.398 35.6745 442.321 35.3576 442.168 35.1515C442.016 34.9377 441.813 34.8308 441.561 34.8308C441.317 34.8308 441.115 34.9377 440.955 35.1515C440.802 35.3576 440.725 35.6745 440.725 36.102C440.725 36.5219 440.802 36.8388 440.955 37.0526C441.115 37.2663 441.317 37.3732 441.561 37.3732ZM447.001 42.0916C446.62 42.0916 446.276 42.0038 445.971 41.8282C445.673 41.645 445.44 41.3892 445.272 41.0609C445.104 40.725 445.02 40.3318 445.02 39.8813C445.02 39.4308 445.104 39.0415 445.272 38.7132C445.44 38.3849 445.673 38.1291 445.971 37.9459C446.276 37.7626 446.62 37.671 447.001 37.671C447.398 37.671 447.746 37.7626 448.044 37.9459C448.341 38.1291 448.574 38.3849 448.742 38.7132C448.91 39.0415 448.994 39.4308 448.994 39.8813C448.994 40.3318 448.91 40.725 448.742 41.0609C448.574 41.3892 448.341 41.645 448.044 41.8282C447.746 42.0038 447.398 42.0916 447.001 42.0916ZM447.001 41.1525C447.253 41.1525 447.456 41.0495 447.608 40.8433C447.761 40.6295 447.837 40.3089 447.837 39.8813C447.837 39.4614 447.761 39.1445 447.608 38.9308C447.456 38.717 447.253 38.6101 447.001 38.6101C446.757 38.6101 446.555 38.717 446.394 38.9308C446.242 39.1369 446.165 39.4538 446.165 39.8813C446.165 40.3089 446.242 40.6295 446.394 40.8433C446.555 41.0495 446.757 41.1525 447.001 41.1525Z" fill="white"/>
</svg>
