<svg width="619" height="323" viewBox="0 0 619 323" fill="none" xmlns="http://www.w3.org/2000/svg">
<rect width="619" height="323" rx="20" fill="white"/>
<g clip-path="url(#clip0_122_531)">
<g clip-path="url(#clip1_122_531)">
<rect x="24" y="25" width="156.333" height="48" fill="#F9F9FB"/>
<path d="M40.68 55V43.8H42.28V55H40.68ZM48.3211 55.096C47.4678 55.096 46.8065 54.8667 46.3371 54.408C45.8678 53.9493 45.6331 53.2933 45.6331 52.44V44.664H47.1691V52.376C47.1691 52.8347 47.2811 53.1867 47.5051 53.432C47.7398 53.6773 48.0705 53.8 48.4971 53.8C48.9771 53.8 49.3771 53.6667 49.6971 53.4L50.1771 54.504C49.9425 54.7067 49.6598 54.856 49.3291 54.952C49.0091 55.048 48.6731 55.096 48.3211 55.096ZM44.1931 47.784V46.52H49.6011V47.784H44.1931ZM55.5289 55.096C54.6222 55.096 53.8222 54.9093 53.1289 54.536C52.4462 54.1627 51.9129 53.6507 51.5289 53C51.1555 52.3493 50.9689 51.6027 50.9689 50.76C50.9689 49.9173 51.1502 49.1707 51.5129 48.52C51.8862 47.8693 52.3929 47.3627 53.0329 47C53.6835 46.6267 54.4142 46.44 55.2249 46.44C56.0462 46.44 56.7715 46.6213 57.4009 46.984C58.0302 47.3467 58.5209 47.8587 58.8729 48.52C59.2355 49.1707 59.4169 49.9333 59.4169 50.808C59.4169 50.872 59.4115 50.9467 59.4009 51.032C59.4009 51.1173 59.3955 51.1973 59.3849 51.272H52.1689V50.168H58.5849L57.9609 50.552C57.9715 50.008 57.8595 49.5227 57.6249 49.096C57.3902 48.6693 57.0649 48.3387 56.6489 48.104C56.2435 47.8587 55.7689 47.736 55.2249 47.736C54.6915 47.736 54.2169 47.8587 53.8009 48.104C53.3849 48.3387 53.0595 48.6747 52.8249 49.112C52.5902 49.5387 52.4729 50.0293 52.4729 50.584V50.84C52.4729 51.4053 52.6009 51.912 52.8569 52.36C53.1235 52.7973 53.4915 53.1387 53.9609 53.384C54.4302 53.6293 54.9689 53.752 55.5769 53.752C56.0782 53.752 56.5315 53.6667 56.9369 53.496C57.3529 53.3253 57.7155 53.0693 58.0249 52.728L58.8729 53.72C58.4889 54.168 58.0089 54.5093 57.4329 54.744C56.8675 54.9787 56.2329 55.096 55.5289 55.096ZM72.1578 46.44C72.8404 46.44 73.4431 46.5733 73.9658 46.84C74.4884 47.1067 74.8938 47.512 75.1818 48.056C75.4804 48.6 75.6298 49.288 75.6298 50.12V55H74.0938V50.296C74.0938 49.4747 73.9018 48.856 73.5178 48.44C73.1338 48.024 72.5951 47.816 71.9018 47.816C71.3898 47.816 70.9418 47.9227 70.5578 48.136C70.1738 48.3493 69.8751 48.664 69.6618 49.08C69.4591 49.496 69.3578 50.0133 69.3578 50.632V55H67.8218V50.296C67.8218 49.4747 67.6298 48.856 67.2458 48.44C66.8724 48.024 66.3338 47.816 65.6298 47.816C65.1284 47.816 64.6858 47.9227 64.3018 48.136C63.9178 48.3493 63.6191 48.664 63.4058 49.08C63.1924 49.496 63.0858 50.0133 63.0858 50.632V55H61.5498V46.52H63.0218V48.776L62.7818 48.2C63.0484 47.6453 63.4591 47.2133 64.0138 46.904C64.5684 46.5947 65.2138 46.44 65.9498 46.44C66.7604 46.44 67.4591 46.6427 68.0458 47.048C68.6324 47.4427 69.0164 48.0453 69.1978 48.856L68.5738 48.6C68.8298 47.9493 69.2778 47.4267 69.9178 47.032C70.5578 46.6373 71.3044 46.44 72.1578 46.44ZM80.888 55.096C80.184 55.096 79.512 55 78.872 54.808C78.2427 54.616 77.7467 54.3813 77.384 54.104L78.024 52.888C78.3867 53.1333 78.8347 53.3413 79.368 53.512C79.9013 53.6827 80.4453 53.768 81 53.768C81.7147 53.768 82.2267 53.6667 82.536 53.464C82.856 53.2613 83.016 52.9787 83.016 52.616C83.016 52.3493 82.92 52.1413 82.728 51.992C82.536 51.8427 82.28 51.7307 81.96 51.656C81.6507 51.5813 81.304 51.5173 80.92 51.464C80.536 51.4 80.152 51.3253 79.768 51.24C79.384 51.144 79.032 51.016 78.712 50.856C78.392 50.6853 78.136 50.456 77.944 50.168C77.752 49.8693 77.656 49.4747 77.656 48.984C77.656 48.472 77.8 48.024 78.088 47.64C78.376 47.256 78.7813 46.9627 79.304 46.76C79.8373 46.5467 80.4667 46.44 81.192 46.44C81.7467 46.44 82.3067 46.5093 82.872 46.648C83.448 46.776 83.9173 46.9627 84.28 47.208L83.624 48.424C83.24 48.168 82.84 47.992 82.424 47.896C82.008 47.8 81.592 47.752 81.176 47.752C80.504 47.752 80.0027 47.864 79.672 48.088C79.3413 48.3013 79.176 48.5787 79.176 48.92C79.176 49.208 79.272 49.432 79.464 49.592C79.6667 49.7413 79.9227 49.8587 80.232 49.944C80.552 50.0293 80.904 50.104 81.288 50.168C81.672 50.2213 82.056 50.296 82.44 50.392C82.824 50.4773 83.1707 50.6 83.48 50.76C83.8 50.92 84.056 51.144 84.248 51.432C84.4507 51.72 84.552 52.104 84.552 52.584C84.552 53.096 84.4027 53.5387 84.104 53.912C83.8053 54.2853 83.384 54.5787 82.84 54.792C82.296 54.9947 81.6453 55.096 80.888 55.096Z" fill="#454545"/>
<rect x="24" y="25" width="156.333" height="48" stroke="#DDDDE6" stroke-width="2"/>
<rect x="180.333" y="25" width="156.333" height="48" fill="#F9F9FB"/>
<path d="M242.188 55.128C241.335 55.128 240.545 54.9893 239.82 54.712C239.105 54.424 238.481 54.024 237.948 53.512C237.425 52.9893 237.015 52.3813 236.716 51.688C236.417 50.9947 236.268 50.232 236.268 49.4C236.268 48.568 236.417 47.8053 236.716 47.112C237.015 46.4187 237.431 45.816 237.964 45.304C238.497 44.7813 239.121 44.3813 239.836 44.104C240.561 43.816 241.351 43.672 242.204 43.672C243.068 43.672 243.863 43.8213 244.588 44.12C245.324 44.408 245.948 44.84 246.46 45.416L245.42 46.424C244.993 45.976 244.513 45.6453 243.98 45.432C243.447 45.208 242.876 45.096 242.268 45.096C241.639 45.096 241.052 45.2027 240.508 45.416C239.975 45.6293 239.511 45.928 239.116 46.312C238.721 46.696 238.412 47.1547 238.188 47.688C237.975 48.2107 237.868 48.7813 237.868 49.4C237.868 50.0187 237.975 50.5947 238.188 51.128C238.412 51.6507 238.721 52.104 239.116 52.488C239.511 52.872 239.975 53.1707 240.508 53.384C241.052 53.5973 241.639 53.704 242.268 53.704C242.876 53.704 243.447 53.5973 243.98 53.384C244.513 53.16 244.993 52.8187 245.42 52.36L246.46 53.368C245.948 53.944 245.324 54.3813 244.588 54.68C243.863 54.9787 243.063 55.128 242.188 55.128ZM251.791 55.096C250.938 55.096 250.18 54.9093 249.519 54.536C248.858 54.1627 248.335 53.6507 247.951 53C247.567 52.3387 247.375 51.592 247.375 50.76C247.375 49.9173 247.567 49.1707 247.951 48.52C248.335 47.8693 248.858 47.3627 249.519 47C250.18 46.6267 250.938 46.44 251.791 46.44C252.634 46.44 253.386 46.6267 254.047 47C254.719 47.3627 255.242 47.8693 255.615 48.52C255.999 49.16 256.191 49.9067 256.191 50.76C256.191 51.6027 255.999 52.3493 255.615 53C255.242 53.6507 254.719 54.1627 254.047 54.536C253.386 54.9093 252.634 55.096 251.791 55.096ZM251.791 53.752C252.335 53.752 252.82 53.6293 253.247 53.384C253.684 53.1387 254.026 52.792 254.271 52.344C254.516 51.8853 254.639 51.3573 254.639 50.76C254.639 50.152 254.516 49.6293 254.271 49.192C254.026 48.744 253.684 48.3973 253.247 48.152C252.82 47.9067 252.335 47.784 251.791 47.784C251.247 47.784 250.762 47.9067 250.335 48.152C249.908 48.3973 249.567 48.744 249.311 49.192C249.055 49.6293 248.927 50.152 248.927 50.76C248.927 51.3573 249.055 51.8853 249.311 52.344C249.567 52.792 249.908 53.1387 250.335 53.384C250.762 53.6293 251.247 53.752 251.791 53.752ZM263.501 55V53.208L263.421 52.872V49.816C263.421 49.1653 263.229 48.664 262.845 48.312C262.472 47.9493 261.907 47.768 261.149 47.768C260.648 47.768 260.157 47.8533 259.677 48.024C259.197 48.184 258.792 48.4027 258.461 48.68L257.821 47.528C258.259 47.176 258.781 46.9093 259.389 46.728C260.008 46.536 260.653 46.44 261.325 46.44C262.488 46.44 263.384 46.7227 264.013 47.288C264.643 47.8533 264.957 48.7173 264.957 49.88V55H263.501ZM260.717 55.096C260.088 55.096 259.533 54.9893 259.053 54.776C258.584 54.5627 258.221 54.2693 257.965 53.896C257.709 53.512 257.581 53.08 257.581 52.6C257.581 52.1413 257.688 51.7253 257.901 51.352C258.125 50.9787 258.483 50.68 258.973 50.456C259.475 50.232 260.147 50.12 260.989 50.12H263.677V51.224H261.053C260.285 51.224 259.768 51.352 259.501 51.608C259.235 51.864 259.101 52.1733 259.101 52.536C259.101 52.952 259.267 53.288 259.597 53.544C259.928 53.7893 260.387 53.912 260.973 53.912C261.549 53.912 262.051 53.784 262.477 53.528C262.915 53.272 263.229 52.8987 263.421 52.408L263.725 53.464C263.523 53.9653 263.165 54.3653 262.653 54.664C262.141 54.952 261.496 55.096 260.717 55.096ZM270.232 55.096C269.528 55.096 268.856 55 268.216 54.808C267.586 54.616 267.09 54.3813 266.728 54.104L267.368 52.888C267.73 53.1333 268.178 53.3413 268.712 53.512C269.245 53.6827 269.789 53.768 270.344 53.768C271.058 53.768 271.57 53.6667 271.88 53.464C272.2 53.2613 272.36 52.9787 272.36 52.616C272.36 52.3493 272.264 52.1413 272.072 51.992C271.88 51.8427 271.624 51.7307 271.304 51.656C270.994 51.5813 270.648 51.5173 270.264 51.464C269.88 51.4 269.496 51.3253 269.112 51.24C268.728 51.144 268.376 51.016 268.056 50.856C267.736 50.6853 267.48 50.456 267.288 50.168C267.096 49.8693 267 49.4747 267 48.984C267 48.472 267.144 48.024 267.432 47.64C267.72 47.256 268.125 46.9627 268.648 46.76C269.181 46.5467 269.81 46.44 270.536 46.44C271.09 46.44 271.65 46.5093 272.216 46.648C272.792 46.776 273.261 46.9627 273.624 47.208L272.968 48.424C272.584 48.168 272.184 47.992 271.768 47.896C271.352 47.8 270.936 47.752 270.52 47.752C269.848 47.752 269.346 47.864 269.016 48.088C268.685 48.3013 268.52 48.5787 268.52 48.92C268.52 49.208 268.616 49.432 268.808 49.592C269.01 49.7413 269.266 49.8587 269.576 49.944C269.896 50.0293 270.248 50.104 270.632 50.168C271.016 50.2213 271.4 50.296 271.784 50.392C272.168 50.4773 272.514 50.6 272.824 50.76C273.144 50.92 273.4 51.144 273.592 51.432C273.794 51.72 273.896 52.104 273.896 52.584C273.896 53.096 273.746 53.5387 273.448 53.912C273.149 54.2853 272.728 54.5787 272.184 54.792C271.64 54.9947 270.989 55.096 270.232 55.096ZM278.727 55.096C277.874 55.096 277.213 54.8667 276.743 54.408C276.274 53.9493 276.039 53.2933 276.039 52.44V44.664H277.575V52.376C277.575 52.8347 277.687 53.1867 277.911 53.432C278.146 53.6773 278.477 53.8 278.903 53.8C279.383 53.8 279.783 53.6667 280.103 53.4L280.583 54.504C280.349 54.7067 280.066 54.856 279.735 54.952C279.415 55.048 279.079 55.096 278.727 55.096ZM274.599 47.784V46.52H280.007V47.784H274.599Z" fill="#454545"/>
<rect x="180.333" y="25" width="156.333" height="48" stroke="#DDDDE6" stroke-width="2"/>
<rect x="336.667" y="25" width="98" height="48" fill="#F9F9FB"/>
<path d="M359.847 55V43.8H364.215C365.196 43.8 366.033 43.9547 366.727 44.264C367.42 44.5733 367.953 45.0213 368.327 45.608C368.7 46.1947 368.887 46.8933 368.887 47.704C368.887 48.5147 368.7 49.2133 368.327 49.8C367.953 50.376 367.42 50.824 366.727 51.144C366.033 51.4533 365.196 51.608 364.215 51.608H360.727L361.447 50.856V55H359.847ZM361.447 51.016L360.727 50.216H364.167C365.191 50.216 365.964 49.9973 366.487 49.56C367.02 49.1227 367.287 48.504 367.287 47.704C367.287 46.904 367.02 46.2853 366.487 45.848C365.964 45.4107 365.191 45.192 364.167 45.192H360.727L361.447 44.392V51.016ZM370.857 55V46.52H372.329V48.824L372.185 48.248C372.42 47.6613 372.814 47.2133 373.369 46.904C373.924 46.5947 374.606 46.44 375.417 46.44V47.928C375.353 47.9173 375.289 47.912 375.225 47.912C375.172 47.912 375.118 47.912 375.065 47.912C374.244 47.912 373.593 48.1573 373.113 48.648C372.633 49.1387 372.393 49.848 372.393 50.776V55H370.857ZM380.864 55.096C380.011 55.096 379.253 54.9093 378.592 54.536C377.931 54.1627 377.408 53.6507 377.024 53C376.64 52.3387 376.448 51.592 376.448 50.76C376.448 49.9173 376.64 49.1707 377.024 48.52C377.408 47.8693 377.931 47.3627 378.592 47C379.253 46.6267 380.011 46.44 380.864 46.44C381.707 46.44 382.459 46.6267 383.12 47C383.792 47.3627 384.315 47.8693 384.688 48.52C385.072 49.16 385.264 49.9067 385.264 50.76C385.264 51.6027 385.072 52.3493 384.688 53C384.315 53.6507 383.792 54.1627 383.12 54.536C382.459 54.9093 381.707 55.096 380.864 55.096ZM380.864 53.752C381.408 53.752 381.893 53.6293 382.32 53.384C382.757 53.1387 383.099 52.792 383.344 52.344C383.589 51.8853 383.712 51.3573 383.712 50.76C383.712 50.152 383.589 49.6293 383.344 49.192C383.099 48.744 382.757 48.3973 382.32 48.152C381.893 47.9067 381.408 47.784 380.864 47.784C380.32 47.784 379.835 47.9067 379.408 48.152C378.981 48.3973 378.64 48.744 378.384 49.192C378.128 49.6293 378 50.152 378 50.76C378 51.3573 378.128 51.8853 378.384 52.344C378.64 52.792 378.981 53.1387 379.408 53.384C379.835 53.6293 380.32 53.752 380.864 53.752ZM397.996 46.44C398.679 46.44 399.282 46.5733 399.804 46.84C400.327 47.1067 400.732 47.512 401.02 48.056C401.319 48.6 401.468 49.288 401.468 50.12V55H399.932V50.296C399.932 49.4747 399.74 48.856 399.356 48.44C398.972 48.024 398.434 47.816 397.74 47.816C397.228 47.816 396.78 47.9227 396.396 48.136C396.012 48.3493 395.714 48.664 395.5 49.08C395.298 49.496 395.196 50.0133 395.196 50.632V55H393.66V50.296C393.66 49.4747 393.468 48.856 393.084 48.44C392.711 48.024 392.172 47.816 391.468 47.816C390.967 47.816 390.524 47.9227 390.14 48.136C389.756 48.3493 389.458 48.664 389.244 49.08C389.031 49.496 388.924 50.0133 388.924 50.632V55H387.388V46.52H388.86V48.776L388.62 48.2C388.887 47.6453 389.298 47.2133 389.852 46.904C390.407 46.5947 391.052 46.44 391.788 46.44C392.599 46.44 393.298 46.6427 393.884 47.048C394.471 47.4427 394.855 48.0453 395.036 48.856L394.412 48.6C394.668 47.9493 395.116 47.4267 395.756 47.032C396.396 46.6373 397.143 46.44 397.996 46.44ZM407.927 55.096C407.073 55.096 406.316 54.9093 405.655 54.536C404.993 54.1627 404.471 53.6507 404.087 53C403.703 52.3387 403.511 51.592 403.511 50.76C403.511 49.9173 403.703 49.1707 404.087 48.52C404.471 47.8693 404.993 47.3627 405.655 47C406.316 46.6267 407.073 46.44 407.927 46.44C408.769 46.44 409.521 46.6267 410.183 47C410.855 47.3627 411.377 47.8693 411.751 48.52C412.135 49.16 412.327 49.9067 412.327 50.76C412.327 51.6027 412.135 52.3493 411.751 53C411.377 53.6507 410.855 54.1627 410.183 54.536C409.521 54.9093 408.769 55.096 407.927 55.096ZM407.927 53.752C408.471 53.752 408.956 53.6293 409.383 53.384C409.82 53.1387 410.161 52.792 410.407 52.344C410.652 51.8853 410.775 51.3573 410.775 50.76C410.775 50.152 410.652 49.6293 410.407 49.192C410.161 48.744 409.82 48.3973 409.383 48.152C408.956 47.9067 408.471 47.784 407.927 47.784C407.383 47.784 406.897 47.9067 406.471 48.152C406.044 48.3973 405.703 48.744 405.447 49.192C405.191 49.6293 405.063 50.152 405.063 50.76C405.063 51.3573 405.191 51.8853 405.447 52.344C405.703 52.792 406.044 53.1387 406.471 53.384C406.897 53.6293 407.383 53.752 407.927 53.752Z" fill="#454545"/>
<rect x="336.667" y="25" width="98" height="48" stroke="#DDDDE6" stroke-width="2"/>
<rect x="434.667" y="25" width="156.333" height="48" fill="#F9F9FB"/>
<path d="M487.013 55V43.8H491.381C492.363 43.8 493.2 43.9547 493.893 44.264C494.587 44.5733 495.12 45.0213 495.493 45.608C495.867 46.1947 496.053 46.8933 496.053 47.704C496.053 48.5147 495.867 49.2133 495.493 49.8C495.12 50.376 494.587 50.8187 493.893 51.128C493.2 51.4373 492.363 51.592 491.381 51.592H487.893L488.613 50.856V55H487.013ZM494.501 55L491.653 50.936H493.365L496.245 55H494.501ZM488.613 51.016L487.893 50.232H491.333C492.357 50.232 493.131 50.0133 493.653 49.576C494.187 49.128 494.453 48.504 494.453 47.704C494.453 46.904 494.187 46.2853 493.653 45.848C493.131 45.4107 492.357 45.192 491.333 45.192H487.893L488.613 44.392V51.016ZM503.6 55V53.208L503.52 52.872V49.816C503.52 49.1653 503.328 48.664 502.944 48.312C502.571 47.9493 502.006 47.768 501.248 47.768C500.747 47.768 500.256 47.8533 499.776 48.024C499.296 48.184 498.891 48.4027 498.56 48.68L497.92 47.528C498.358 47.176 498.88 46.9093 499.488 46.728C500.107 46.536 500.752 46.44 501.424 46.44C502.587 46.44 503.483 46.7227 504.112 47.288C504.742 47.8533 505.056 48.7173 505.056 49.88V55H503.6ZM500.816 55.096C500.187 55.096 499.632 54.9893 499.152 54.776C498.683 54.5627 498.32 54.2693 498.064 53.896C497.808 53.512 497.68 53.08 497.68 52.6C497.68 52.1413 497.787 51.7253 498 51.352C498.224 50.9787 498.582 50.68 499.072 50.456C499.574 50.232 500.246 50.12 501.088 50.12H503.776V51.224H501.152C500.384 51.224 499.867 51.352 499.6 51.608C499.334 51.864 499.2 52.1733 499.2 52.536C499.2 52.952 499.366 53.288 499.696 53.544C500.027 53.7893 500.486 53.912 501.072 53.912C501.648 53.912 502.15 53.784 502.576 53.528C503.014 53.272 503.328 52.8987 503.52 52.408L503.824 53.464C503.622 53.9653 503.264 54.3653 502.752 54.664C502.24 54.952 501.595 55.096 500.816 55.096ZM510.811 55.096C509.957 55.096 509.296 54.8667 508.827 54.408C508.357 53.9493 508.123 53.2933 508.123 52.44V44.664H509.659V52.376C509.659 52.8347 509.771 53.1867 509.995 53.432C510.229 53.6773 510.56 53.8 510.987 53.8C511.467 53.8 511.867 53.6667 512.187 53.4L512.667 54.504C512.432 54.7067 512.149 54.856 511.819 54.952C511.499 55.048 511.163 55.096 510.811 55.096ZM506.683 47.784V46.52H512.091V47.784H506.683ZM514.524 55V46.52H516.06V55H514.524ZM515.292 44.888C514.993 44.888 514.742 44.792 514.54 44.6C514.348 44.408 514.252 44.1733 514.252 43.896C514.252 43.608 514.348 43.368 514.54 43.176C514.742 42.984 514.993 42.888 515.292 42.888C515.59 42.888 515.836 42.984 516.028 43.176C516.23 43.3573 516.332 43.5867 516.332 43.864C516.332 44.152 516.236 44.3973 516.044 44.6C515.852 44.792 515.601 44.888 515.292 44.888ZM523.52 46.44C524.214 46.44 524.822 46.5733 525.344 46.84C525.878 47.1067 526.294 47.512 526.592 48.056C526.891 48.6 527.04 49.288 527.04 50.12V55H525.504V50.296C525.504 49.4747 525.302 48.856 524.896 48.44C524.502 48.024 523.942 47.816 523.216 47.816C522.672 47.816 522.198 47.9227 521.792 48.136C521.387 48.3493 521.072 48.664 520.848 49.08C520.635 49.496 520.528 50.0133 520.528 50.632V55H518.992V46.52H520.464V48.808L520.224 48.2C520.502 47.6453 520.928 47.2133 521.504 46.904C522.08 46.5947 522.752 46.44 523.52 46.44ZM533.595 58.2C532.816 58.2 532.059 58.088 531.323 57.864C530.598 57.6507 530.006 57.3413 529.547 56.936L530.283 55.752C530.678 56.0933 531.163 56.36 531.739 56.552C532.315 56.7547 532.918 56.856 533.547 56.856C534.55 56.856 535.286 56.6213 535.755 56.152C536.224 55.6827 536.459 54.968 536.459 54.008V52.216L536.619 50.536L536.539 48.84V46.52H537.995V53.848C537.995 55.3413 537.622 56.44 536.875 57.144C536.128 57.848 535.035 58.2 533.595 58.2ZM533.403 54.648C532.582 54.648 531.846 54.4773 531.195 54.136C530.555 53.784 530.043 53.2987 529.659 52.68C529.286 52.0613 529.099 51.3467 529.099 50.536C529.099 49.7147 529.286 49 529.659 48.392C530.043 47.7733 530.555 47.2933 531.195 46.952C531.846 46.6107 532.582 46.44 533.403 46.44C534.128 46.44 534.79 46.5893 535.387 46.888C535.984 47.176 536.459 47.624 536.811 48.232C537.174 48.84 537.355 49.608 537.355 50.536C537.355 51.4533 537.174 52.216 536.811 52.824C536.459 53.432 535.984 53.8907 535.387 54.2C534.79 54.4987 534.128 54.648 533.403 54.648ZM533.579 53.304C534.144 53.304 534.646 53.1867 535.083 52.952C535.52 52.7173 535.862 52.392 536.107 51.976C536.363 51.56 536.491 51.08 536.491 50.536C536.491 49.992 536.363 49.512 536.107 49.096C535.862 48.68 535.52 48.36 535.083 48.136C534.646 47.9013 534.144 47.784 533.579 47.784C533.014 47.784 532.507 47.9013 532.059 48.136C531.622 48.36 531.275 48.68 531.019 49.096C530.774 49.512 530.651 49.992 530.651 50.536C530.651 51.08 530.774 51.56 531.019 51.976C531.275 52.392 531.622 52.7173 532.059 52.952C532.507 53.1867 533.014 53.304 533.579 53.304Z" fill="#454545"/>
<rect x="434.667" y="25" width="156.333" height="48" stroke="#DDDDE6" stroke-width="2"/>
</g>
<g clip-path="url(#clip2_122_531)">
<rect x="24" y="73" width="156.333" height="56" fill="white"/>
<path d="M41.052 107V94.4H42.15L47.91 104.228H47.334L53.04 94.4H54.138V107H52.86V96.398H53.166L47.91 105.398H47.28L41.988 96.398H42.33V107H41.052ZM58.0454 110.582C57.6014 110.582 57.1754 110.51 56.7674 110.366C56.3714 110.222 56.0294 110.006 55.7414 109.718L56.3354 108.764C56.5754 108.992 56.8334 109.166 57.1094 109.286C57.3974 109.418 57.7154 109.484 58.0634 109.484C58.4834 109.484 58.8434 109.364 59.1434 109.124C59.4554 108.896 59.7494 108.488 60.0254 107.9L60.6374 106.514L60.7814 106.316L64.6694 97.55H65.9294L61.1954 108.134C60.9314 108.746 60.6374 109.232 60.3134 109.592C60.0014 109.952 59.6594 110.204 59.2874 110.348C58.9154 110.504 58.5014 110.582 58.0454 110.582ZM60.5654 107.27L56.2094 97.55H57.5414L61.3934 106.226L60.5654 107.27ZM72.4402 107V97.55H73.7182V107H72.4402ZM73.0882 95.462C72.8242 95.462 72.6022 95.372 72.4222 95.192C72.2422 95.012 72.1522 94.796 72.1522 94.544C72.1522 94.292 72.2422 94.082 72.4222 93.914C72.6022 93.734 72.8242 93.644 73.0882 93.644C73.3522 93.644 73.5742 93.728 73.7542 93.896C73.9342 94.064 74.0242 94.274 74.0242 94.526C74.0242 94.79 73.9342 95.012 73.7542 95.192C73.5862 95.372 73.3642 95.462 73.0882 95.462ZM80.2622 107.09C79.3742 107.09 78.6902 106.85 78.2102 106.37C77.7302 105.89 77.4902 105.212 77.4902 104.336V95.462H78.7682V104.264C78.7682 104.816 78.9062 105.242 79.1822 105.542C79.4702 105.842 79.8782 105.992 80.4062 105.992C80.9702 105.992 81.4382 105.83 81.8102 105.506L82.2602 106.424C82.0082 106.652 81.7022 106.82 81.3422 106.928C80.9942 107.036 80.6342 107.09 80.2622 107.09ZM75.7982 98.612V97.55H81.6482V98.612H75.7982ZM88.2667 107.09C87.2827 107.09 86.4187 106.886 85.6747 106.478C84.9307 106.058 84.3487 105.488 83.9287 104.768C83.5087 104.036 83.2987 103.202 83.2987 102.266C83.2987 101.33 83.4967 100.502 83.8927 99.782C84.3007 99.062 84.8527 98.498 85.5487 98.09C86.2567 97.67 87.0487 97.46 87.9247 97.46C88.8127 97.46 89.5987 97.664 90.2827 98.072C90.9787 98.468 91.5247 99.032 91.9207 99.764C92.3167 100.484 92.5147 101.318 92.5147 102.266C92.5147 102.326 92.5087 102.392 92.4967 102.464C92.4967 102.524 92.4967 102.59 92.4967 102.662H84.2707V101.708H91.8127L91.3087 102.086C91.3087 101.402 91.1587 100.796 90.8587 100.268C90.5707 99.728 90.1747 99.308 89.6707 99.008C89.1667 98.708 88.5847 98.558 87.9247 98.558C87.2767 98.558 86.6947 98.708 86.1787 99.008C85.6627 99.308 85.2607 99.728 84.9727 100.268C84.6847 100.808 84.5407 101.426 84.5407 102.122V102.32C84.5407 103.04 84.6967 103.676 85.0087 104.228C85.3327 104.768 85.7767 105.194 86.3407 105.506C86.9167 105.806 87.5707 105.956 88.3027 105.956C88.8787 105.956 89.4127 105.854 89.9047 105.65C90.4087 105.446 90.8407 105.134 91.2007 104.714L91.9207 105.542C91.5007 106.046 90.9727 106.43 90.3367 106.694C89.7127 106.958 89.0227 107.09 88.2667 107.09ZM106.924 97.46C107.692 97.46 108.358 97.61 108.922 97.91C109.498 98.198 109.942 98.642 110.254 99.242C110.578 99.842 110.74 100.598 110.74 101.51V107H109.462V101.636C109.462 100.64 109.222 99.89 108.742 99.386C108.274 98.87 107.608 98.612 106.744 98.612C106.096 98.612 105.532 98.75 105.052 99.026C104.584 99.29 104.218 99.68 103.954 100.196C103.702 100.7 103.576 101.312 103.576 102.032V107H102.298V101.636C102.298 100.64 102.058 99.89 101.578 99.386C101.098 98.87 100.426 98.612 99.562 98.612C98.926 98.612 98.368 98.75 97.888 99.026C97.408 99.29 97.036 99.68 96.772 100.196C96.52 100.7 96.394 101.312 96.394 102.032V107H95.116V97.55H96.34V100.106L96.142 99.656C96.43 98.972 96.892 98.438 97.528 98.054C98.176 97.658 98.938 97.46 99.814 97.46C100.738 97.46 101.524 97.694 102.172 98.162C102.82 98.618 103.24 99.308 103.432 100.232L102.928 100.034C103.204 99.266 103.69 98.648 104.386 98.18C105.094 97.7 105.94 97.46 106.924 97.46ZM120.267 107V94.94L120.843 95.552H117.297V94.4H121.563V107H120.267Z" fill="#454545"/>
<rect x="24" y="73" width="156.333" height="56" stroke="#DDDDE6" stroke-width="2"/>
<rect x="180.333" y="73" width="156.333" height="56" fill="white"/>
<path d="M238.988 107V95.12L239.762 95.966H236.144V94.4H240.77V107H238.988ZM252.428 107.144C251.54 107.144 250.676 107.006 249.836 106.73C249.008 106.454 248.33 106.082 247.802 105.614L248.63 104.192C249.05 104.588 249.596 104.912 250.268 105.164C250.94 105.416 251.654 105.542 252.41 105.542C253.37 105.542 254.108 105.338 254.624 104.93C255.14 104.522 255.398 103.976 255.398 103.292C255.398 102.824 255.284 102.416 255.056 102.068C254.828 101.72 254.432 101.456 253.868 101.276C253.316 101.084 252.554 100.988 251.582 100.988H248.72L249.386 94.4H256.496V95.966H250.052L250.988 95.084L250.466 100.286L249.53 99.422H251.96C253.22 99.422 254.234 99.584 255.002 99.908C255.77 100.232 256.328 100.682 256.676 101.258C257.024 101.822 257.198 102.476 257.198 103.22C257.198 103.94 257.024 104.6 256.676 105.2C256.328 105.788 255.8 106.262 255.092 106.622C254.396 106.97 253.508 107.144 252.428 107.144ZM262.676 107.144C261.788 107.144 260.924 107.006 260.084 106.73C259.256 106.454 258.578 106.082 258.05 105.614L258.878 104.192C259.298 104.588 259.844 104.912 260.516 105.164C261.188 105.416 261.902 105.542 262.658 105.542C263.618 105.542 264.356 105.338 264.872 104.93C265.388 104.522 265.646 103.976 265.646 103.292C265.646 102.824 265.532 102.416 265.304 102.068C265.076 101.72 264.68 101.456 264.116 101.276C263.564 101.084 262.802 100.988 261.83 100.988H258.968L259.634 94.4H266.744V95.966H260.3L261.236 95.084L260.714 100.286L259.778 99.422H262.208C263.468 99.422 264.482 99.584 265.25 99.908C266.018 100.232 266.576 100.682 266.924 101.258C267.272 101.822 267.446 102.476 267.446 103.22C267.446 103.94 267.272 104.6 266.924 105.2C266.576 105.788 266.048 106.262 265.34 106.622C264.644 106.97 263.756 107.144 262.676 107.144ZM274.092 107.144C273.108 107.144 272.226 106.892 271.446 106.388C270.678 105.884 270.066 105.152 269.61 104.192C269.166 103.232 268.944 102.068 268.944 100.7C268.944 99.332 269.166 98.168 269.61 97.208C270.066 96.248 270.678 95.516 271.446 95.012C272.226 94.508 273.108 94.256 274.092 94.256C275.064 94.256 275.94 94.508 276.72 95.012C277.5 95.516 278.112 96.248 278.556 97.208C279 98.168 279.222 99.332 279.222 100.7C279.222 102.068 279 103.232 278.556 104.192C278.112 105.152 277.5 105.884 276.72 106.388C275.94 106.892 275.064 107.144 274.092 107.144ZM274.092 105.542C274.752 105.542 275.328 105.362 275.82 105.002C276.324 104.642 276.714 104.102 276.99 103.382C277.278 102.662 277.422 101.768 277.422 100.7C277.422 99.632 277.278 98.738 276.99 98.018C276.714 97.298 276.324 96.758 275.82 96.398C275.328 96.038 274.752 95.858 274.092 95.858C273.432 95.858 272.85 96.038 272.346 96.398C271.842 96.758 271.446 97.298 271.158 98.018C270.882 98.738 270.744 99.632 270.744 100.7C270.744 101.768 270.882 102.662 271.158 103.382C271.446 104.102 271.842 104.642 272.346 105.002C272.85 105.362 273.432 105.542 274.092 105.542Z" fill="#454545"/>
<rect x="180.333" y="73" width="156.333" height="56" stroke="#DDDDE6" stroke-width="2"/>
<rect x="336.667" y="73" width="98" height="56" fill="white"/>
<rect x="362.667" y="86.5" width="46" height="29" rx="14.5" fill="#F82C2C" fill-opacity="0.1"/>
<path d="M374.521 106.14C373.755 106.14 373.023 106.033 372.323 105.818C371.623 105.594 371.067 105.309 370.657 104.964L371.287 103.55C371.679 103.858 372.164 104.115 372.743 104.32C373.321 104.525 373.914 104.628 374.521 104.628C375.034 104.628 375.449 104.572 375.767 104.46C376.084 104.348 376.317 104.199 376.467 104.012C376.616 103.816 376.691 103.597 376.691 103.354C376.691 103.055 376.583 102.817 376.369 102.64C376.154 102.453 375.874 102.309 375.529 102.206C375.193 102.094 374.815 101.991 374.395 101.898C373.984 101.805 373.569 101.697 373.149 101.576C372.738 101.445 372.36 101.282 372.015 101.086C371.679 100.881 371.403 100.61 371.189 100.274C370.974 99.938 370.867 99.5087 370.867 98.986C370.867 98.454 371.007 97.9687 371.287 97.53C371.576 97.082 372.01 96.7273 372.589 96.466C373.177 96.1953 373.919 96.06 374.815 96.06C375.403 96.06 375.986 96.1347 376.565 96.284C377.143 96.4333 377.647 96.648 378.077 96.928L377.503 98.342C377.064 98.0807 376.611 97.8893 376.145 97.768C375.678 97.6373 375.23 97.572 374.801 97.572C374.297 97.572 373.886 97.6327 373.569 97.754C373.261 97.8753 373.032 98.034 372.883 98.23C372.743 98.426 372.673 98.65 372.673 98.902C372.673 99.2007 372.775 99.4433 372.981 99.63C373.195 99.8073 373.471 99.9473 373.807 100.05C374.152 100.153 374.535 100.255 374.955 100.358C375.375 100.451 375.79 100.559 376.201 100.68C376.621 100.801 376.999 100.96 377.335 101.156C377.68 101.352 377.955 101.618 378.161 101.954C378.375 102.29 378.483 102.715 378.483 103.228C378.483 103.751 378.338 104.236 378.049 104.684C377.769 105.123 377.335 105.477 376.747 105.748C376.159 106.009 375.417 106.14 374.521 106.14ZM384.725 106V104.488L384.627 104.166V101.52C384.627 101.007 384.473 100.61 384.165 100.33C383.857 100.041 383.391 99.896 382.765 99.896C382.345 99.896 381.93 99.9613 381.519 100.092C381.118 100.223 380.777 100.405 380.497 100.638L379.811 99.364C380.213 99.056 380.689 98.8273 381.239 98.678C381.799 98.5193 382.378 98.44 382.975 98.44C384.058 98.44 384.893 98.7013 385.481 99.224C386.079 99.7373 386.377 100.535 386.377 101.618V106H384.725ZM382.373 106.098C381.813 106.098 381.323 106.005 380.903 105.818C380.483 105.622 380.157 105.356 379.923 105.02C379.699 104.675 379.587 104.287 379.587 103.858C379.587 103.438 379.685 103.06 379.881 102.724C380.087 102.388 380.418 102.122 380.875 101.926C381.333 101.73 381.939 101.632 382.695 101.632H384.865V102.794H382.821C382.224 102.794 381.823 102.892 381.617 103.088C381.412 103.275 381.309 103.508 381.309 103.788C381.309 104.105 381.435 104.357 381.687 104.544C381.939 104.731 382.289 104.824 382.737 104.824C383.167 104.824 383.549 104.726 383.885 104.53C384.231 104.334 384.478 104.045 384.627 103.662L384.921 104.712C384.753 105.151 384.45 105.491 384.011 105.734C383.582 105.977 383.036 106.098 382.373 106.098ZM388.623 106V95.612H390.373V106H388.623ZM396.184 106.098C395.353 106.098 394.625 105.935 394 105.608C393.384 105.272 392.903 104.815 392.558 104.236C392.222 103.657 392.054 102.999 392.054 102.262C392.054 101.515 392.217 100.857 392.544 100.288C392.88 99.7093 393.337 99.2567 393.916 98.93C394.504 98.6033 395.171 98.44 395.918 98.44C396.646 98.44 397.295 98.5987 397.864 98.916C398.433 99.2333 398.881 99.6813 399.208 100.26C399.535 100.839 399.698 101.52 399.698 102.304C399.698 102.379 399.693 102.463 399.684 102.556C399.684 102.649 399.679 102.738 399.67 102.822H393.44V101.66H398.746L398.06 102.024C398.069 101.595 397.981 101.217 397.794 100.89C397.607 100.563 397.351 100.307 397.024 100.12C396.707 99.9333 396.338 99.84 395.918 99.84C395.489 99.84 395.111 99.9333 394.784 100.12C394.467 100.307 394.215 100.568 394.028 100.904C393.851 101.231 393.762 101.618 393.762 102.066V102.346C393.762 102.794 393.865 103.191 394.07 103.536C394.275 103.881 394.565 104.147 394.938 104.334C395.311 104.521 395.741 104.614 396.226 104.614C396.646 104.614 397.024 104.549 397.36 104.418C397.696 104.287 397.995 104.082 398.256 103.802L399.194 104.88C398.858 105.272 398.433 105.575 397.92 105.79C397.416 105.995 396.837 106.098 396.184 106.098Z" fill="#F82C2C"/>
<rect x="362.667" y="86.5" width="46" height="29" rx="14.5" stroke="#F82C2C"/>
<rect x="336.667" y="73" width="98" height="56" stroke="#DDDDE6" stroke-width="2"/>
<rect x="434.667" y="73" width="156.333" height="56" fill="white"/>
<path d="M466.833 91L469.808 96.9064L476.344 97.9098L471.646 102.564L472.711 109.09L466.833 106.06L460.955 109.09L462.021 102.564L457.323 97.9098L463.859 96.9064L466.833 91Z" fill="#F28100"/>
<path d="M489.833 91L492.808 96.9064L499.344 97.9098L494.646 102.564L495.711 109.09L489.833 106.06L483.955 109.09L485.021 102.564L480.323 97.9098L486.859 96.9064L489.833 91Z" fill="#F28100"/>
<path d="M512.833 91L515.808 96.9064L522.344 97.9098L517.646 102.564L518.711 109.09L512.833 106.06L506.955 109.09L508.021 102.564L503.323 97.9098L509.859 96.9064L512.833 91Z" fill="#F28100"/>
<path d="M535.833 91L538.808 96.9064L545.344 97.9098L540.646 102.564L541.711 109.09L535.833 106.06L529.955 109.09L531.021 102.564L526.323 97.9098L532.859 96.9064L535.833 91Z" fill="#F28100"/>
<path d="M558.833 91L561.808 96.9064L568.344 97.9098L563.646 102.564L564.711 109.09L558.833 106.06L552.955 109.09L554.021 102.564L549.323 97.9098L555.859 96.9064L558.833 91Z" fill="#F28100"/>
<rect x="434.667" y="73" width="156.333" height="56" stroke="#DDDDE6" stroke-width="2"/>
</g>
<rect x="24" y="73" width="567" height="56" stroke="#DDDDE6" stroke-width="2"/>
<g clip-path="url(#clip3_122_531)">
<rect x="24" y="129" width="156.333" height="56" fill="white"/>
<path d="M41.052 163V150.4H42.15L47.91 160.228H47.334L53.04 150.4H54.138V163H52.86V152.398H53.166L47.91 161.398H47.28L41.988 152.398H42.33V163H41.052ZM58.0454 166.582C57.6014 166.582 57.1754 166.51 56.7674 166.366C56.3714 166.222 56.0294 166.006 55.7414 165.718L56.3354 164.764C56.5754 164.992 56.8334 165.166 57.1094 165.286C57.3974 165.418 57.7154 165.484 58.0634 165.484C58.4834 165.484 58.8434 165.364 59.1434 165.124C59.4554 164.896 59.7494 164.488 60.0254 163.9L60.6374 162.514L60.7814 162.316L64.6694 153.55H65.9294L61.1954 164.134C60.9314 164.746 60.6374 165.232 60.3134 165.592C60.0014 165.952 59.6594 166.204 59.2874 166.348C58.9154 166.504 58.5014 166.582 58.0454 166.582ZM60.5654 163.27L56.2094 153.55H57.5414L61.3934 162.226L60.5654 163.27ZM72.4402 163V153.55H73.7182V163H72.4402ZM73.0882 151.462C72.8242 151.462 72.6022 151.372 72.4222 151.192C72.2422 151.012 72.1522 150.796 72.1522 150.544C72.1522 150.292 72.2422 150.082 72.4222 149.914C72.6022 149.734 72.8242 149.644 73.0882 149.644C73.3522 149.644 73.5742 149.728 73.7542 149.896C73.9342 150.064 74.0242 150.274 74.0242 150.526C74.0242 150.79 73.9342 151.012 73.7542 151.192C73.5862 151.372 73.3642 151.462 73.0882 151.462ZM80.2622 163.09C79.3742 163.09 78.6902 162.85 78.2102 162.37C77.7302 161.89 77.4902 161.212 77.4902 160.336V151.462H78.7682V160.264C78.7682 160.816 78.9062 161.242 79.1822 161.542C79.4702 161.842 79.8782 161.992 80.4062 161.992C80.9702 161.992 81.4382 161.83 81.8102 161.506L82.2602 162.424C82.0082 162.652 81.7022 162.82 81.3422 162.928C80.9942 163.036 80.6342 163.09 80.2622 163.09ZM75.7982 154.612V153.55H81.6482V154.612H75.7982ZM88.2667 163.09C87.2827 163.09 86.4187 162.886 85.6747 162.478C84.9307 162.058 84.3487 161.488 83.9287 160.768C83.5087 160.036 83.2987 159.202 83.2987 158.266C83.2987 157.33 83.4967 156.502 83.8927 155.782C84.3007 155.062 84.8527 154.498 85.5487 154.09C86.2567 153.67 87.0487 153.46 87.9247 153.46C88.8127 153.46 89.5987 153.664 90.2827 154.072C90.9787 154.468 91.5247 155.032 91.9207 155.764C92.3167 156.484 92.5147 157.318 92.5147 158.266C92.5147 158.326 92.5087 158.392 92.4967 158.464C92.4967 158.524 92.4967 158.59 92.4967 158.662H84.2707V157.708H91.8127L91.3087 158.086C91.3087 157.402 91.1587 156.796 90.8587 156.268C90.5707 155.728 90.1747 155.308 89.6707 155.008C89.1667 154.708 88.5847 154.558 87.9247 154.558C87.2767 154.558 86.6947 154.708 86.1787 155.008C85.6627 155.308 85.2607 155.728 84.9727 156.268C84.6847 156.808 84.5407 157.426 84.5407 158.122V158.32C84.5407 159.04 84.6967 159.676 85.0087 160.228C85.3327 160.768 85.7767 161.194 86.3407 161.506C86.9167 161.806 87.5707 161.956 88.3027 161.956C88.8787 161.956 89.4127 161.854 89.9047 161.65C90.4087 161.446 90.8407 161.134 91.2007 160.714L91.9207 161.542C91.5007 162.046 90.9727 162.43 90.3367 162.694C89.7127 162.958 89.0227 163.09 88.2667 163.09ZM106.924 153.46C107.692 153.46 108.358 153.61 108.922 153.91C109.498 154.198 109.942 154.642 110.254 155.242C110.578 155.842 110.74 156.598 110.74 157.51V163H109.462V157.636C109.462 156.64 109.222 155.89 108.742 155.386C108.274 154.87 107.608 154.612 106.744 154.612C106.096 154.612 105.532 154.75 105.052 155.026C104.584 155.29 104.218 155.68 103.954 156.196C103.702 156.7 103.576 157.312 103.576 158.032V163H102.298V157.636C102.298 156.64 102.058 155.89 101.578 155.386C101.098 154.87 100.426 154.612 99.562 154.612C98.926 154.612 98.368 154.75 97.888 155.026C97.408 155.29 97.036 155.68 96.772 156.196C96.52 156.7 96.394 157.312 96.394 158.032V163H95.116V153.55H96.34V156.106L96.142 155.656C96.43 154.972 96.892 154.438 97.528 154.054C98.176 153.658 98.938 153.46 99.814 153.46C100.738 153.46 101.524 153.694 102.172 154.162C102.82 154.618 103.24 155.308 103.432 156.232L102.928 156.034C103.204 155.266 103.69 154.648 104.386 154.18C105.094 153.7 105.94 153.46 106.924 153.46ZM117.837 163V162.082L123.075 156.952C123.555 156.484 123.915 156.076 124.155 155.728C124.395 155.368 124.557 155.032 124.641 154.72C124.725 154.408 124.767 154.114 124.767 153.838C124.767 153.106 124.515 152.53 124.011 152.11C123.519 151.69 122.787 151.48 121.815 151.48C121.071 151.48 120.411 151.594 119.835 151.822C119.271 152.05 118.785 152.404 118.377 152.884L117.459 152.092C117.951 151.516 118.581 151.072 119.349 150.76C120.117 150.448 120.975 150.292 121.923 150.292C122.775 150.292 123.513 150.43 124.137 150.706C124.761 150.97 125.241 151.36 125.577 151.876C125.925 152.392 126.099 152.998 126.099 153.694C126.099 154.102 126.039 154.504 125.919 154.9C125.811 155.296 125.607 155.716 125.307 156.16C125.019 156.592 124.593 157.084 124.029 157.636L119.223 162.352L118.863 161.848H126.675V163H117.837Z" fill="#454545"/>
<rect x="24" y="129" width="156.333" height="56" stroke="#DDDDE6" stroke-width="2"/>
<rect x="180.333" y="129" width="156.333" height="56" fill="white"/>
<path d="M237.988 163V151.12L238.762 151.966H235.144V150.4H239.77V163H237.988ZM252.652 163.144C251.536 163.144 250.582 162.898 249.79 162.406C248.998 161.914 248.392 161.206 247.972 160.282C247.564 159.346 247.36 158.206 247.36 156.862C247.36 155.434 247.612 154.228 248.116 153.244C248.62 152.26 249.322 151.516 250.222 151.012C251.122 150.508 252.154 150.256 253.318 150.256C253.918 150.256 254.488 150.316 255.028 150.436C255.58 150.556 256.054 150.742 256.45 150.994L255.766 152.398C255.442 152.17 255.07 152.014 254.65 151.93C254.242 151.846 253.81 151.804 253.354 151.804C252.07 151.804 251.05 152.206 250.294 153.01C249.538 153.802 249.16 154.984 249.16 156.556C249.16 156.808 249.172 157.108 249.196 157.456C249.22 157.804 249.28 158.146 249.376 158.482L248.764 157.87C248.944 157.318 249.226 156.856 249.61 156.484C250.006 156.1 250.474 155.818 251.014 155.638C251.566 155.446 252.16 155.35 252.796 155.35C253.636 155.35 254.38 155.506 255.028 155.818C255.676 156.13 256.186 156.574 256.558 157.15C256.93 157.714 257.116 158.386 257.116 159.166C257.116 159.97 256.918 160.672 256.522 161.272C256.126 161.872 255.592 162.334 254.92 162.658C254.248 162.982 253.492 163.144 252.652 163.144ZM252.58 161.686C253.132 161.686 253.612 161.584 254.02 161.38C254.44 161.176 254.77 160.894 255.01 160.534C255.25 160.162 255.37 159.73 255.37 159.238C255.37 158.494 255.112 157.906 254.596 157.474C254.08 157.03 253.378 156.808 252.49 156.808C251.914 156.808 251.41 156.916 250.978 157.132C250.546 157.348 250.204 157.642 249.952 158.014C249.712 158.374 249.592 158.788 249.592 159.256C249.592 159.688 249.706 160.09 249.934 160.462C250.162 160.822 250.498 161.116 250.942 161.344C251.386 161.572 251.932 161.686 252.58 161.686ZM263.383 163.144C262.363 163.144 261.481 162.994 260.737 162.694C259.993 162.394 259.417 161.968 259.009 161.416C258.601 160.852 258.397 160.192 258.397 159.436C258.397 158.692 258.589 158.062 258.973 157.546C259.369 157.018 259.939 156.622 260.683 156.358C261.427 156.082 262.327 155.944 263.383 155.944C264.439 155.944 265.339 156.082 266.083 156.358C266.839 156.622 267.415 157.018 267.811 157.546C268.207 158.074 268.405 158.704 268.405 159.436C268.405 160.192 268.201 160.852 267.793 161.416C267.385 161.968 266.803 162.394 266.047 162.694C265.291 162.994 264.403 163.144 263.383 163.144ZM263.383 161.686C264.391 161.686 265.177 161.482 265.741 161.074C266.317 160.654 266.605 160.09 266.605 159.382C266.605 158.686 266.317 158.14 265.741 157.744C265.177 157.336 264.391 157.132 263.383 157.132C262.387 157.132 261.607 157.336 261.043 157.744C260.479 158.14 260.197 158.686 260.197 159.382C260.197 160.09 260.479 160.654 261.043 161.074C261.607 161.482 262.387 161.686 263.383 161.686ZM263.383 156.916C262.423 156.916 261.607 156.79 260.935 156.538C260.263 156.274 259.747 155.902 259.387 155.422C259.027 154.93 258.847 154.348 258.847 153.676C258.847 152.968 259.033 152.362 259.405 151.858C259.789 151.342 260.323 150.946 261.007 150.67C261.691 150.394 262.483 150.256 263.383 150.256C264.295 150.256 265.093 150.394 265.777 150.67C266.461 150.946 266.995 151.342 267.379 151.858C267.763 152.362 267.955 152.968 267.955 153.676C267.955 154.348 267.775 154.93 267.415 155.422C267.055 155.902 266.533 156.274 265.849 156.538C265.165 156.79 264.343 156.916 263.383 156.916ZM263.383 155.764C264.259 155.764 264.943 155.584 265.435 155.224C265.939 154.864 266.191 154.372 266.191 153.748C266.191 153.112 265.933 152.614 265.417 152.254C264.901 151.894 264.223 151.714 263.383 151.714C262.543 151.714 261.871 151.894 261.367 152.254C260.875 152.614 260.629 153.112 260.629 153.748C260.629 154.372 260.869 154.864 261.349 155.224C261.841 155.584 262.519 155.764 263.383 155.764ZM275.201 163.144C274.217 163.144 273.335 162.892 272.555 162.388C271.787 161.884 271.175 161.152 270.719 160.192C270.275 159.232 270.053 158.068 270.053 156.7C270.053 155.332 270.275 154.168 270.719 153.208C271.175 152.248 271.787 151.516 272.555 151.012C273.335 150.508 274.217 150.256 275.201 150.256C276.173 150.256 277.049 150.508 277.829 151.012C278.609 151.516 279.221 152.248 279.665 153.208C280.109 154.168 280.331 155.332 280.331 156.7C280.331 158.068 280.109 159.232 279.665 160.192C279.221 161.152 278.609 161.884 277.829 162.388C277.049 162.892 276.173 163.144 275.201 163.144ZM275.201 161.542C275.861 161.542 276.437 161.362 276.929 161.002C277.433 160.642 277.823 160.102 278.099 159.382C278.387 158.662 278.531 157.768 278.531 156.7C278.531 155.632 278.387 154.738 278.099 154.018C277.823 153.298 277.433 152.758 276.929 152.398C276.437 152.038 275.861 151.858 275.201 151.858C274.541 151.858 273.959 152.038 273.455 152.398C272.951 152.758 272.555 153.298 272.267 154.018C271.991 154.738 271.853 155.632 271.853 156.7C271.853 157.768 271.991 158.662 272.267 159.382C272.555 160.102 272.951 160.642 273.455 161.002C273.959 161.362 274.541 161.542 275.201 161.542Z" fill="#454545"/>
<rect x="180.333" y="129" width="156.333" height="56" stroke="#DDDDE6" stroke-width="2"/>
<rect x="336.667" y="129" width="98" height="56" fill="white"/>
<rect x="365.167" y="142.5" width="41" height="29" rx="14.5" fill="#F28100" fill-opacity="0.1"/>
<path d="M378.561 162.14C377.795 162.14 377.091 162.019 376.447 161.776C375.812 161.524 375.257 161.174 374.781 160.726C374.305 160.269 373.936 159.732 373.675 159.116C373.413 158.5 373.283 157.828 373.283 157.1C373.283 156.372 373.413 155.7 373.675 155.084C373.936 154.468 374.305 153.936 374.781 153.488C375.266 153.031 375.831 152.681 376.475 152.438C377.119 152.186 377.823 152.06 378.589 152.06C379.419 152.06 380.166 152.195 380.829 152.466C381.501 152.737 382.065 153.133 382.523 153.656L381.375 154.776C380.992 154.393 380.577 154.113 380.129 153.936C379.69 153.749 379.205 153.656 378.673 153.656C378.159 153.656 377.683 153.74 377.245 153.908C376.806 154.076 376.428 154.314 376.111 154.622C375.793 154.93 375.546 155.294 375.369 155.714C375.201 156.134 375.117 156.596 375.117 157.1C375.117 157.595 375.201 158.052 375.369 158.472C375.546 158.892 375.793 159.261 376.111 159.578C376.428 159.886 376.801 160.124 377.231 160.292C377.66 160.46 378.136 160.544 378.659 160.544C379.144 160.544 379.611 160.469 380.059 160.32C380.516 160.161 380.95 159.9 381.361 159.536L382.397 160.894C381.883 161.305 381.286 161.617 380.605 161.832C379.933 162.037 379.251 162.14 378.561 162.14ZM380.675 160.656V156.988H382.397V160.894L380.675 160.656ZM384.629 162V154.524H386.379V162H384.629ZM385.511 153.292C385.184 153.292 384.914 153.189 384.699 152.984C384.494 152.779 384.391 152.531 384.391 152.242C384.391 151.943 384.494 151.696 384.699 151.5C384.914 151.295 385.184 151.192 385.511 151.192C385.838 151.192 386.104 151.29 386.309 151.486C386.524 151.673 386.631 151.911 386.631 152.2C386.631 152.508 386.528 152.769 386.323 152.984C386.118 153.189 385.847 153.292 385.511 153.292ZM388.914 162V154.104C388.914 153.32 389.143 152.695 389.6 152.228C390.067 151.752 390.729 151.514 391.588 151.514C391.896 151.514 392.185 151.547 392.456 151.612C392.736 151.677 392.969 151.78 393.156 151.92L392.68 153.236C392.549 153.133 392.4 153.059 392.232 153.012C392.064 152.956 391.891 152.928 391.714 152.928C391.35 152.928 391.075 153.031 390.888 153.236C390.701 153.432 390.608 153.731 390.608 154.132V154.972L390.664 155.756V162H388.914ZM387.682 155.98V154.58H392.666V155.98H387.682ZM396.658 162.098C395.837 162.098 395.202 161.888 394.754 161.468C394.306 161.039 394.082 160.409 394.082 159.578V152.872H395.832V159.536C395.832 159.891 395.921 160.166 396.098 160.362C396.285 160.558 396.541 160.656 396.868 160.656C397.26 160.656 397.587 160.553 397.848 160.348L398.338 161.594C398.133 161.762 397.881 161.888 397.582 161.972C397.283 162.056 396.975 162.098 396.658 162.098ZM392.85 155.98V154.58H397.834V155.98H392.85Z" fill="#F28100"/>
<rect x="365.167" y="142.5" width="41" height="29" rx="14.5" stroke="#F28100"/>
<rect x="336.667" y="129" width="98" height="56" stroke="#DDDDE6" stroke-width="2"/>
<rect x="434.667" y="129" width="156.333" height="56" fill="white"/>
<path d="M466.833 147L469.808 152.906L476.344 153.91L471.646 158.564L472.711 165.09L466.833 162.06L460.955 165.09L462.021 158.564L457.323 153.91L463.859 152.906L466.833 147Z" fill="#F28100"/>
<path d="M489.833 147L492.808 152.906L499.344 153.91L494.646 158.564L495.711 165.09L489.833 162.06L483.955 165.09L485.021 158.564L480.323 153.91L486.859 152.906L489.833 147Z" fill="#F28100"/>
<path d="M512.833 147L515.808 152.906L522.344 153.91L517.646 158.564L518.711 165.09L512.833 162.06L506.955 165.09L508.021 158.564L503.323 153.91L509.859 152.906L512.833 147Z" fill="#D5D5E4"/>
<path d="M535.833 147L538.808 152.906L545.344 153.91L540.646 158.564L541.711 165.09L535.833 162.06L529.955 165.09L531.021 158.564L526.323 153.91L532.859 152.906L535.833 147Z" fill="#D5D5E4"/>
<path d="M558.833 147L561.808 152.906L568.344 153.91L563.646 158.564L564.711 165.09L558.833 162.06L552.955 165.09L554.021 158.564L549.323 153.91L555.859 152.906L558.833 147Z" fill="#D5D5E4"/>
<rect x="434.667" y="129" width="156.333" height="56" stroke="#DDDDE6" stroke-width="2"/>
</g>
<rect x="24" y="129" width="567" height="56" stroke="#DDDDE6" stroke-width="2"/>
<g clip-path="url(#clip4_122_531)">
<rect x="24" y="185" width="156.333" height="57" fill="white"/>
<path d="M46.524 219.608C45.576 219.608 44.7 219.452 43.896 219.14C43.092 218.816 42.396 218.366 41.808 217.79C41.22 217.214 40.758 216.536 40.422 215.756C40.098 214.976 39.936 214.124 39.936 213.2C39.936 212.276 40.098 211.424 40.422 210.644C40.758 209.864 41.22 209.186 41.808 208.61C42.408 208.034 43.11 207.59 43.914 207.278C44.718 206.954 45.594 206.792 46.542 206.792C47.454 206.792 48.312 206.948 49.116 207.26C49.92 207.56 50.598 208.016 51.15 208.628L50.304 209.474C49.788 208.946 49.218 208.568 48.594 208.34C47.97 208.1 47.298 207.98 46.578 207.98C45.822 207.98 45.12 208.112 44.472 208.376C43.824 208.628 43.26 208.994 42.78 209.474C42.3 209.942 41.922 210.494 41.646 211.13C41.382 211.754 41.25 212.444 41.25 213.2C41.25 213.956 41.382 214.652 41.646 215.288C41.922 215.912 42.3 216.464 42.78 216.944C43.26 217.412 43.824 217.778 44.472 218.042C45.12 218.294 45.822 218.42 46.578 218.42C47.298 218.42 47.97 218.3 48.594 218.06C49.218 217.82 49.788 217.436 50.304 216.908L51.15 217.754C50.598 218.366 49.92 218.828 49.116 219.14C48.312 219.452 47.448 219.608 46.524 219.608ZM57.1496 219.59C56.2376 219.59 55.4156 219.386 54.6836 218.978C53.9636 218.558 53.3936 217.988 52.9736 217.268C52.5536 216.536 52.3436 215.702 52.3436 214.766C52.3436 213.818 52.5536 212.984 52.9736 212.264C53.3936 211.544 53.9636 210.98 54.6836 210.572C55.4036 210.164 56.2256 209.96 57.1496 209.96C58.0856 209.96 58.9136 210.164 59.6336 210.572C60.3656 210.98 60.9356 211.544 61.3436 212.264C61.7636 212.984 61.9736 213.818 61.9736 214.766C61.9736 215.702 61.7636 216.536 61.3436 217.268C60.9356 217.988 60.3656 218.558 59.6336 218.978C58.9016 219.386 58.0736 219.59 57.1496 219.59ZM57.1496 218.456C57.8336 218.456 58.4396 218.306 58.9676 218.006C59.4956 217.694 59.9096 217.262 60.2096 216.71C60.5216 216.146 60.6776 215.498 60.6776 214.766C60.6776 214.022 60.5216 213.374 60.2096 212.822C59.9096 212.27 59.4956 211.844 58.9676 211.544C58.4396 211.232 57.8396 211.076 57.1676 211.076C56.4956 211.076 55.8956 211.232 55.3676 211.544C54.8396 211.844 54.4196 212.27 54.1076 212.822C53.7956 213.374 53.6396 214.022 53.6396 214.766C53.6396 215.498 53.7956 216.146 54.1076 216.71C54.4196 217.262 54.8396 217.694 55.3676 218.006C55.8956 218.306 56.4896 218.456 57.1496 218.456ZM76.3908 209.96C77.1588 209.96 77.8248 210.11 78.3888 210.41C78.9648 210.698 79.4088 211.142 79.7208 211.742C80.0448 212.342 80.2068 213.098 80.2068 214.01V219.5H78.9288V214.136C78.9288 213.14 78.6888 212.39 78.2088 211.886C77.7408 211.37 77.0748 211.112 76.2108 211.112C75.5628 211.112 74.9988 211.25 74.5188 211.526C74.0508 211.79 73.6848 212.18 73.4208 212.696C73.1688 213.2 73.0428 213.812 73.0428 214.532V219.5H71.7648V214.136C71.7648 213.14 71.5248 212.39 71.0448 211.886C70.5648 211.37 69.8928 211.112 69.0288 211.112C68.3928 211.112 67.8348 211.25 67.3548 211.526C66.8748 211.79 66.5028 212.18 66.2388 212.696C65.9868 213.2 65.8608 213.812 65.8608 214.532V219.5H64.5828V210.05H65.8068V212.606L65.6088 212.156C65.8968 211.472 66.3588 210.938 66.9948 210.554C67.6428 210.158 68.4048 209.96 69.2808 209.96C70.2048 209.96 70.9908 210.194 71.6388 210.662C72.2868 211.118 72.7068 211.808 72.8988 212.732L72.3948 212.534C72.6708 211.766 73.1568 211.148 73.8528 210.68C74.5608 210.2 75.4068 209.96 76.3908 209.96ZM88.5506 219.59C87.7346 219.59 86.9966 219.404 86.3366 219.032C85.6766 218.648 85.1486 218.102 84.7526 217.394C84.3686 216.674 84.1766 215.798 84.1766 214.766C84.1766 213.734 84.3686 212.864 84.7526 212.156C85.1366 211.436 85.6586 210.89 86.3186 210.518C86.9786 210.146 87.7226 209.96 88.5506 209.96C89.4506 209.96 90.2546 210.164 90.9626 210.572C91.6826 210.968 92.2466 211.532 92.6546 212.264C93.0626 212.984 93.2666 213.818 93.2666 214.766C93.2666 215.726 93.0626 216.566 92.6546 217.286C92.2466 218.006 91.6826 218.57 90.9626 218.978C90.2546 219.386 89.4506 219.59 88.5506 219.59ZM83.6726 222.992V210.05H84.8966V212.894L84.7706 214.784L84.9506 216.692V222.992H83.6726ZM88.4606 218.456C89.1326 218.456 89.7326 218.306 90.2606 218.006C90.7886 217.694 91.2086 217.262 91.5206 216.71C91.8326 216.146 91.9886 215.498 91.9886 214.766C91.9886 214.034 91.8326 213.392 91.5206 212.84C91.2086 212.288 90.7886 211.856 90.2606 211.544C89.7326 211.232 89.1326 211.076 88.4606 211.076C87.7886 211.076 87.1826 211.232 86.6426 211.544C86.1146 211.856 85.6946 212.288 85.3826 212.84C85.0826 213.392 84.9326 214.034 84.9326 214.766C84.9326 215.498 85.0826 216.146 85.3826 216.71C85.6946 217.262 86.1146 217.694 86.6426 218.006C87.1826 218.306 87.7886 218.456 88.4606 218.456ZM99.8858 219.59C98.9018 219.59 98.0378 219.386 97.2938 218.978C96.5498 218.558 95.9678 217.988 95.5478 217.268C95.1278 216.536 94.9178 215.702 94.9178 214.766C94.9178 213.83 95.1158 213.002 95.5118 212.282C95.9198 211.562 96.4718 210.998 97.1678 210.59C97.8758 210.17 98.6678 209.96 99.5438 209.96C100.432 209.96 101.218 210.164 101.902 210.572C102.598 210.968 103.144 211.532 103.54 212.264C103.936 212.984 104.134 213.818 104.134 214.766C104.134 214.826 104.128 214.892 104.116 214.964C104.116 215.024 104.116 215.09 104.116 215.162H95.8898V214.208H103.432L102.928 214.586C102.928 213.902 102.778 213.296 102.478 212.768C102.19 212.228 101.794 211.808 101.29 211.508C100.786 211.208 100.204 211.058 99.5438 211.058C98.8958 211.058 98.3138 211.208 97.7978 211.508C97.2818 211.808 96.8798 212.228 96.5918 212.768C96.3038 213.308 96.1598 213.926 96.1598 214.622V214.82C96.1598 215.54 96.3158 216.176 96.6278 216.728C96.9518 217.268 97.3958 217.694 97.9598 218.006C98.5358 218.306 99.1898 218.456 99.9218 218.456C100.498 218.456 101.032 218.354 101.524 218.15C102.028 217.946 102.46 217.634 102.82 217.214L103.54 218.042C103.12 218.546 102.592 218.93 101.956 219.194C101.332 219.458 100.642 219.59 99.8858 219.59ZM109.723 219.59C108.835 219.59 108.151 219.35 107.671 218.87C107.191 218.39 106.951 217.712 106.951 216.836V207.962H108.229V216.764C108.229 217.316 108.367 217.742 108.643 218.042C108.931 218.342 109.339 218.492 109.867 218.492C110.431 218.492 110.899 218.33 111.271 218.006L111.721 218.924C111.469 219.152 111.163 219.32 110.803 219.428C110.455 219.536 110.095 219.59 109.723 219.59ZM105.259 211.112V210.05H111.109V211.112H105.259ZM114.048 219.5V210.05H115.326V219.5H114.048ZM114.696 207.962C114.432 207.962 114.21 207.872 114.03 207.692C113.85 207.512 113.76 207.296 113.76 207.044C113.76 206.792 113.85 206.582 114.03 206.414C114.21 206.234 114.432 206.144 114.696 206.144C114.96 206.144 115.182 206.228 115.362 206.396C115.542 206.564 115.632 206.774 115.632 207.026C115.632 207.29 115.542 207.512 115.362 207.692C115.194 207.872 114.972 207.962 114.696 207.962ZM121.87 219.59C120.982 219.59 120.298 219.35 119.818 218.87C119.338 218.39 119.098 217.712 119.098 216.836V207.962H120.376V216.764C120.376 217.316 120.514 217.742 120.79 218.042C121.078 218.342 121.486 218.492 122.014 218.492C122.578 218.492 123.046 218.33 123.418 218.006L123.868 218.924C123.616 219.152 123.31 219.32 122.95 219.428C122.602 219.536 122.242 219.59 121.87 219.59ZM117.406 211.112V210.05H123.256V211.112H117.406ZM129.712 219.59C128.8 219.59 127.978 219.386 127.246 218.978C126.526 218.558 125.956 217.988 125.536 217.268C125.116 216.536 124.906 215.702 124.906 214.766C124.906 213.818 125.116 212.984 125.536 212.264C125.956 211.544 126.526 210.98 127.246 210.572C127.966 210.164 128.788 209.96 129.712 209.96C130.648 209.96 131.476 210.164 132.196 210.572C132.928 210.98 133.498 211.544 133.906 212.264C134.326 212.984 134.536 213.818 134.536 214.766C134.536 215.702 134.326 216.536 133.906 217.268C133.498 217.988 132.928 218.558 132.196 218.978C131.464 219.386 130.636 219.59 129.712 219.59ZM129.712 218.456C130.396 218.456 131.002 218.306 131.53 218.006C132.058 217.694 132.472 217.262 132.772 216.71C133.084 216.146 133.24 215.498 133.24 214.766C133.24 214.022 133.084 213.374 132.772 212.822C132.472 212.27 132.058 211.844 131.53 211.544C131.002 211.232 130.402 211.076 129.73 211.076C129.058 211.076 128.458 211.232 127.93 211.544C127.402 211.844 126.982 212.27 126.67 212.822C126.358 213.374 126.202 214.022 126.202 214.766C126.202 215.498 126.358 216.146 126.67 216.71C126.982 217.262 127.402 217.694 127.93 218.006C128.458 218.306 129.052 218.456 129.712 218.456ZM137.145 219.5V210.05H138.369V212.624L138.243 212.174C138.507 211.454 138.951 210.908 139.575 210.536C140.199 210.152 140.973 209.96 141.897 209.96V211.202C141.849 211.202 141.801 211.202 141.753 211.202C141.705 211.19 141.657 211.184 141.609 211.184C140.613 211.184 139.833 211.49 139.269 212.102C138.705 212.702 138.423 213.56 138.423 214.676V219.5H137.145ZM150.431 219.5V207.44L151.007 208.052H147.461V206.9H151.727V219.5H150.431Z" fill="#454545"/>
<rect x="24" y="185" width="156.333" height="57" stroke="#DDDDE6" stroke-width="2"/>
<rect x="180.333" y="185" width="156.333" height="57" fill="white"/>
<path d="M234.166 219.5V218.276L239.296 213.326C239.752 212.894 240.088 212.516 240.304 212.192C240.532 211.856 240.682 211.55 240.754 211.274C240.838 210.986 240.88 210.71 240.88 210.446C240.88 209.798 240.652 209.288 240.196 208.916C239.74 208.544 239.074 208.358 238.198 208.358C237.526 208.358 236.92 208.472 236.38 208.7C235.84 208.916 235.372 209.258 234.976 209.726L233.752 208.664C234.232 208.052 234.874 207.584 235.678 207.26C236.494 206.924 237.388 206.756 238.36 206.756C239.236 206.756 239.998 206.9 240.646 207.188C241.294 207.464 241.792 207.866 242.14 208.394C242.5 208.922 242.68 209.546 242.68 210.266C242.68 210.674 242.626 211.076 242.518 211.472C242.41 211.868 242.206 212.288 241.906 212.732C241.606 213.176 241.174 213.674 240.61 214.226L236.038 218.636L235.606 217.934H243.22V219.5H234.166ZM254.682 219.644C253.698 219.644 252.816 219.392 252.036 218.888C251.268 218.384 250.656 217.652 250.2 216.692C249.756 215.732 249.534 214.568 249.534 213.2C249.534 211.832 249.756 210.668 250.2 209.708C250.656 208.748 251.268 208.016 252.036 207.512C252.816 207.008 253.698 206.756 254.682 206.756C255.654 206.756 256.53 207.008 257.31 207.512C258.09 208.016 258.702 208.748 259.146 209.708C259.59 210.668 259.812 211.832 259.812 213.2C259.812 214.568 259.59 215.732 259.146 216.692C258.702 217.652 258.09 218.384 257.31 218.888C256.53 219.392 255.654 219.644 254.682 219.644ZM254.682 218.042C255.342 218.042 255.918 217.862 256.41 217.502C256.914 217.142 257.304 216.602 257.58 215.882C257.868 215.162 258.012 214.268 258.012 213.2C258.012 212.132 257.868 211.238 257.58 210.518C257.304 209.798 256.914 209.258 256.41 208.898C255.918 208.538 255.342 208.358 254.682 208.358C254.022 208.358 253.44 208.538 252.936 208.898C252.432 209.258 252.036 209.798 251.748 210.518C251.472 211.238 251.334 212.132 251.334 213.2C251.334 214.268 251.472 215.162 251.748 215.882C252.036 216.602 252.432 217.142 252.936 217.502C253.44 217.862 254.022 218.042 254.682 218.042ZM265.608 219.644C264.72 219.644 263.856 219.506 263.016 219.23C262.188 218.954 261.51 218.582 260.982 218.114L261.81 216.692C262.23 217.088 262.776 217.412 263.448 217.664C264.12 217.916 264.834 218.042 265.59 218.042C266.55 218.042 267.288 217.838 267.804 217.43C268.32 217.022 268.578 216.476 268.578 215.792C268.578 215.324 268.464 214.916 268.236 214.568C268.008 214.22 267.612 213.956 267.048 213.776C266.496 213.584 265.734 213.488 264.762 213.488H261.9L262.566 206.9H269.676V208.466H263.232L264.168 207.584L263.646 212.786L262.71 211.922H265.14C266.4 211.922 267.414 212.084 268.182 212.408C268.95 212.732 269.508 213.182 269.856 213.758C270.204 214.322 270.378 214.976 270.378 215.72C270.378 216.44 270.204 217.1 269.856 217.7C269.508 218.288 268.98 218.762 268.272 219.122C267.576 219.47 266.688 219.644 265.608 219.644ZM277.024 219.644C276.04 219.644 275.158 219.392 274.378 218.888C273.61 218.384 272.998 217.652 272.542 216.692C272.098 215.732 271.876 214.568 271.876 213.2C271.876 211.832 272.098 210.668 272.542 209.708C272.998 208.748 273.61 208.016 274.378 207.512C275.158 207.008 276.04 206.756 277.024 206.756C277.996 206.756 278.872 207.008 279.652 207.512C280.432 208.016 281.044 208.748 281.488 209.708C281.932 210.668 282.154 211.832 282.154 213.2C282.154 214.568 281.932 215.732 281.488 216.692C281.044 217.652 280.432 218.384 279.652 218.888C278.872 219.392 277.996 219.644 277.024 219.644ZM277.024 218.042C277.684 218.042 278.26 217.862 278.752 217.502C279.256 217.142 279.646 216.602 279.922 215.882C280.21 215.162 280.354 214.268 280.354 213.2C280.354 212.132 280.21 211.238 279.922 210.518C279.646 209.798 279.256 209.258 278.752 208.898C278.26 208.538 277.684 208.358 277.024 208.358C276.364 208.358 275.782 208.538 275.278 208.898C274.774 209.258 274.378 209.798 274.09 210.518C273.814 211.238 273.676 212.132 273.676 213.2C273.676 214.268 273.814 215.162 274.09 215.882C274.378 216.602 274.774 217.142 275.278 217.502C275.782 217.862 276.364 218.042 277.024 218.042Z" fill="#454545"/>
<rect x="180.333" y="185" width="156.333" height="57" stroke="#DDDDE6" stroke-width="2"/>
<rect x="336.667" y="185" width="98" height="57" fill="white"/>
<rect x="362.667" y="199" width="46" height="29" rx="14.5" fill="#F82C2C" fill-opacity="0.1"/>
<path d="M374.521 218.64C373.755 218.64 373.023 218.533 372.323 218.318C371.623 218.094 371.067 217.809 370.657 217.464L371.287 216.05C371.679 216.358 372.164 216.615 372.743 216.82C373.321 217.025 373.914 217.128 374.521 217.128C375.034 217.128 375.449 217.072 375.767 216.96C376.084 216.848 376.317 216.699 376.467 216.512C376.616 216.316 376.691 216.097 376.691 215.854C376.691 215.555 376.583 215.317 376.369 215.14C376.154 214.953 375.874 214.809 375.529 214.706C375.193 214.594 374.815 214.491 374.395 214.398C373.984 214.305 373.569 214.197 373.149 214.076C372.738 213.945 372.36 213.782 372.015 213.586C371.679 213.381 371.403 213.11 371.189 212.774C370.974 212.438 370.867 212.009 370.867 211.486C370.867 210.954 371.007 210.469 371.287 210.03C371.576 209.582 372.01 209.227 372.589 208.966C373.177 208.695 373.919 208.56 374.815 208.56C375.403 208.56 375.986 208.635 376.565 208.784C377.143 208.933 377.647 209.148 378.077 209.428L377.503 210.842C377.064 210.581 376.611 210.389 376.145 210.268C375.678 210.137 375.23 210.072 374.801 210.072C374.297 210.072 373.886 210.133 373.569 210.254C373.261 210.375 373.032 210.534 372.883 210.73C372.743 210.926 372.673 211.15 372.673 211.402C372.673 211.701 372.775 211.943 372.981 212.13C373.195 212.307 373.471 212.447 373.807 212.55C374.152 212.653 374.535 212.755 374.955 212.858C375.375 212.951 375.79 213.059 376.201 213.18C376.621 213.301 376.999 213.46 377.335 213.656C377.68 213.852 377.955 214.118 378.161 214.454C378.375 214.79 378.483 215.215 378.483 215.728C378.483 216.251 378.338 216.736 378.049 217.184C377.769 217.623 377.335 217.977 376.747 218.248C376.159 218.509 375.417 218.64 374.521 218.64ZM384.725 218.5V216.988L384.627 216.666V214.02C384.627 213.507 384.473 213.11 384.165 212.83C383.857 212.541 383.391 212.396 382.765 212.396C382.345 212.396 381.93 212.461 381.519 212.592C381.118 212.723 380.777 212.905 380.497 213.138L379.811 211.864C380.213 211.556 380.689 211.327 381.239 211.178C381.799 211.019 382.378 210.94 382.975 210.94C384.058 210.94 384.893 211.201 385.481 211.724C386.079 212.237 386.377 213.035 386.377 214.118V218.5H384.725ZM382.373 218.598C381.813 218.598 381.323 218.505 380.903 218.318C380.483 218.122 380.157 217.856 379.923 217.52C379.699 217.175 379.587 216.787 379.587 216.358C379.587 215.938 379.685 215.56 379.881 215.224C380.087 214.888 380.418 214.622 380.875 214.426C381.333 214.23 381.939 214.132 382.695 214.132H384.865V215.294H382.821C382.224 215.294 381.823 215.392 381.617 215.588C381.412 215.775 381.309 216.008 381.309 216.288C381.309 216.605 381.435 216.857 381.687 217.044C381.939 217.231 382.289 217.324 382.737 217.324C383.167 217.324 383.549 217.226 383.885 217.03C384.231 216.834 384.478 216.545 384.627 216.162L384.921 217.212C384.753 217.651 384.45 217.991 384.011 218.234C383.582 218.477 383.036 218.598 382.373 218.598ZM388.623 218.5V208.112H390.373V218.5H388.623ZM396.184 218.598C395.353 218.598 394.625 218.435 394 218.108C393.384 217.772 392.903 217.315 392.558 216.736C392.222 216.157 392.054 215.499 392.054 214.762C392.054 214.015 392.217 213.357 392.544 212.788C392.88 212.209 393.337 211.757 393.916 211.43C394.504 211.103 395.171 210.94 395.918 210.94C396.646 210.94 397.295 211.099 397.864 211.416C398.433 211.733 398.881 212.181 399.208 212.76C399.535 213.339 399.698 214.02 399.698 214.804C399.698 214.879 399.693 214.963 399.684 215.056C399.684 215.149 399.679 215.238 399.67 215.322H393.44V214.16H398.746L398.06 214.524C398.069 214.095 397.981 213.717 397.794 213.39C397.607 213.063 397.351 212.807 397.024 212.62C396.707 212.433 396.338 212.34 395.918 212.34C395.489 212.34 395.111 212.433 394.784 212.62C394.467 212.807 394.215 213.068 394.028 213.404C393.851 213.731 393.762 214.118 393.762 214.566V214.846C393.762 215.294 393.865 215.691 394.07 216.036C394.275 216.381 394.565 216.647 394.938 216.834C395.311 217.021 395.741 217.114 396.226 217.114C396.646 217.114 397.024 217.049 397.36 216.918C397.696 216.787 397.995 216.582 398.256 216.302L399.194 217.38C398.858 217.772 398.433 218.075 397.92 218.29C397.416 218.495 396.837 218.598 396.184 218.598Z" fill="#F82C2C"/>
<rect x="362.667" y="199" width="46" height="29" rx="14.5" stroke="#F82C2C"/>
<rect x="336.667" y="185" width="98" height="57" stroke="#DDDDE6" stroke-width="2"/>
<rect x="434.667" y="185" width="156.333" height="57" fill="white"/>
<path d="M466.833 203.5L469.808 209.406L476.344 210.41L471.646 215.064L472.711 221.59L466.833 218.56L460.955 221.59L462.021 215.064L457.323 210.41L463.859 209.406L466.833 203.5Z" fill="#F28100"/>
<path d="M489.833 203.5L492.808 209.406L499.344 210.41L494.646 215.064L495.711 221.59L489.833 218.56L483.955 221.59L485.021 215.064L480.323 210.41L486.859 209.406L489.833 203.5Z" fill="#F28100"/>
<path d="M512.833 203.5L515.808 209.406L522.344 210.41L517.646 215.064L518.711 221.59L512.833 218.56L506.955 221.59L508.021 215.064L503.323 210.41L509.859 209.406L512.833 203.5Z" fill="#F28100"/>
<path d="M535.833 203.5L538.808 209.406L545.344 210.41L540.646 215.064L541.711 221.59L535.833 218.56L529.955 221.59L531.021 215.064L526.323 210.41L532.859 209.406L535.833 203.5Z" fill="#D5D5E4"/>
<path d="M558.833 203.5L561.808 209.406L568.344 210.41L563.646 215.064L564.711 221.59L558.833 218.56L552.955 221.59L554.021 215.064L549.323 210.41L555.859 209.406L558.833 203.5Z" fill="#D5D5E4"/>
<rect x="434.667" y="185" width="156.333" height="57" stroke="#DDDDE6" stroke-width="2"/>
</g>
<rect x="24" y="185" width="567" height="57" stroke="#DDDDE6" stroke-width="2"/>
<g clip-path="url(#clip5_122_531)">
<rect x="24" y="242" width="156.333" height="56" fill="white"/>
<path d="M46.524 276.108C45.576 276.108 44.7 275.952 43.896 275.64C43.092 275.316 42.396 274.866 41.808 274.29C41.22 273.714 40.758 273.036 40.422 272.256C40.098 271.476 39.936 270.624 39.936 269.7C39.936 268.776 40.098 267.924 40.422 267.144C40.758 266.364 41.22 265.686 41.808 265.11C42.408 264.534 43.11 264.09 43.914 263.778C44.718 263.454 45.594 263.292 46.542 263.292C47.454 263.292 48.312 263.448 49.116 263.76C49.92 264.06 50.598 264.516 51.15 265.128L50.304 265.974C49.788 265.446 49.218 265.068 48.594 264.84C47.97 264.6 47.298 264.48 46.578 264.48C45.822 264.48 45.12 264.612 44.472 264.876C43.824 265.128 43.26 265.494 42.78 265.974C42.3 266.442 41.922 266.994 41.646 267.63C41.382 268.254 41.25 268.944 41.25 269.7C41.25 270.456 41.382 271.152 41.646 271.788C41.922 272.412 42.3 272.964 42.78 273.444C43.26 273.912 43.824 274.278 44.472 274.542C45.12 274.794 45.822 274.92 46.578 274.92C47.298 274.92 47.97 274.8 48.594 274.56C49.218 274.32 49.788 273.936 50.304 273.408L51.15 274.254C50.598 274.866 49.92 275.328 49.116 275.64C48.312 275.952 47.448 276.108 46.524 276.108ZM57.1496 276.09C56.2376 276.09 55.4156 275.886 54.6836 275.478C53.9636 275.058 53.3936 274.488 52.9736 273.768C52.5536 273.036 52.3436 272.202 52.3436 271.266C52.3436 270.318 52.5536 269.484 52.9736 268.764C53.3936 268.044 53.9636 267.48 54.6836 267.072C55.4036 266.664 56.2256 266.46 57.1496 266.46C58.0856 266.46 58.9136 266.664 59.6336 267.072C60.3656 267.48 60.9356 268.044 61.3436 268.764C61.7636 269.484 61.9736 270.318 61.9736 271.266C61.9736 272.202 61.7636 273.036 61.3436 273.768C60.9356 274.488 60.3656 275.058 59.6336 275.478C58.9016 275.886 58.0736 276.09 57.1496 276.09ZM57.1496 274.956C57.8336 274.956 58.4396 274.806 58.9676 274.506C59.4956 274.194 59.9096 273.762 60.2096 273.21C60.5216 272.646 60.6776 271.998 60.6776 271.266C60.6776 270.522 60.5216 269.874 60.2096 269.322C59.9096 268.77 59.4956 268.344 58.9676 268.044C58.4396 267.732 57.8396 267.576 57.1676 267.576C56.4956 267.576 55.8956 267.732 55.3676 268.044C54.8396 268.344 54.4196 268.77 54.1076 269.322C53.7956 269.874 53.6396 270.522 53.6396 271.266C53.6396 271.998 53.7956 272.646 54.1076 273.21C54.4196 273.762 54.8396 274.194 55.3676 274.506C55.8956 274.806 56.4896 274.956 57.1496 274.956ZM76.3908 266.46C77.1588 266.46 77.8248 266.61 78.3888 266.91C78.9648 267.198 79.4088 267.642 79.7208 268.242C80.0448 268.842 80.2068 269.598 80.2068 270.51V276H78.9288V270.636C78.9288 269.64 78.6888 268.89 78.2088 268.386C77.7408 267.87 77.0748 267.612 76.2108 267.612C75.5628 267.612 74.9988 267.75 74.5188 268.026C74.0508 268.29 73.6848 268.68 73.4208 269.196C73.1688 269.7 73.0428 270.312 73.0428 271.032V276H71.7648V270.636C71.7648 269.64 71.5248 268.89 71.0448 268.386C70.5648 267.87 69.8928 267.612 69.0288 267.612C68.3928 267.612 67.8348 267.75 67.3548 268.026C66.8748 268.29 66.5028 268.68 66.2388 269.196C65.9868 269.7 65.8608 270.312 65.8608 271.032V276H64.5828V266.55H65.8068V269.106L65.6088 268.656C65.8968 267.972 66.3588 267.438 66.9948 267.054C67.6428 266.658 68.4048 266.46 69.2808 266.46C70.2048 266.46 70.9908 266.694 71.6388 267.162C72.2868 267.618 72.7068 268.308 72.8988 269.232L72.3948 269.034C72.6708 268.266 73.1568 267.648 73.8528 267.18C74.5608 266.7 75.4068 266.46 76.3908 266.46ZM88.5506 276.09C87.7346 276.09 86.9966 275.904 86.3366 275.532C85.6766 275.148 85.1486 274.602 84.7526 273.894C84.3686 273.174 84.1766 272.298 84.1766 271.266C84.1766 270.234 84.3686 269.364 84.7526 268.656C85.1366 267.936 85.6586 267.39 86.3186 267.018C86.9786 266.646 87.7226 266.46 88.5506 266.46C89.4506 266.46 90.2546 266.664 90.9626 267.072C91.6826 267.468 92.2466 268.032 92.6546 268.764C93.0626 269.484 93.2666 270.318 93.2666 271.266C93.2666 272.226 93.0626 273.066 92.6546 273.786C92.2466 274.506 91.6826 275.07 90.9626 275.478C90.2546 275.886 89.4506 276.09 88.5506 276.09ZM83.6726 279.492V266.55H84.8966V269.394L84.7706 271.284L84.9506 273.192V279.492H83.6726ZM88.4606 274.956C89.1326 274.956 89.7326 274.806 90.2606 274.506C90.7886 274.194 91.2086 273.762 91.5206 273.21C91.8326 272.646 91.9886 271.998 91.9886 271.266C91.9886 270.534 91.8326 269.892 91.5206 269.34C91.2086 268.788 90.7886 268.356 90.2606 268.044C89.7326 267.732 89.1326 267.576 88.4606 267.576C87.7886 267.576 87.1826 267.732 86.6426 268.044C86.1146 268.356 85.6946 268.788 85.3826 269.34C85.0826 269.892 84.9326 270.534 84.9326 271.266C84.9326 271.998 85.0826 272.646 85.3826 273.21C85.6946 273.762 86.1146 274.194 86.6426 274.506C87.1826 274.806 87.7886 274.956 88.4606 274.956ZM99.8858 276.09C98.9018 276.09 98.0378 275.886 97.2938 275.478C96.5498 275.058 95.9678 274.488 95.5478 273.768C95.1278 273.036 94.9178 272.202 94.9178 271.266C94.9178 270.33 95.1158 269.502 95.5118 268.782C95.9198 268.062 96.4718 267.498 97.1678 267.09C97.8758 266.67 98.6678 266.46 99.5438 266.46C100.432 266.46 101.218 266.664 101.902 267.072C102.598 267.468 103.144 268.032 103.54 268.764C103.936 269.484 104.134 270.318 104.134 271.266C104.134 271.326 104.128 271.392 104.116 271.464C104.116 271.524 104.116 271.59 104.116 271.662H95.8898V270.708H103.432L102.928 271.086C102.928 270.402 102.778 269.796 102.478 269.268C102.19 268.728 101.794 268.308 101.29 268.008C100.786 267.708 100.204 267.558 99.5438 267.558C98.8958 267.558 98.3138 267.708 97.7978 268.008C97.2818 268.308 96.8798 268.728 96.5918 269.268C96.3038 269.808 96.1598 270.426 96.1598 271.122V271.32C96.1598 272.04 96.3158 272.676 96.6278 273.228C96.9518 273.768 97.3958 274.194 97.9598 274.506C98.5358 274.806 99.1898 274.956 99.9218 274.956C100.498 274.956 101.032 274.854 101.524 274.65C102.028 274.446 102.46 274.134 102.82 273.714L103.54 274.542C103.12 275.046 102.592 275.43 101.956 275.694C101.332 275.958 100.642 276.09 99.8858 276.09ZM109.723 276.09C108.835 276.09 108.151 275.85 107.671 275.37C107.191 274.89 106.951 274.212 106.951 273.336V264.462H108.229V273.264C108.229 273.816 108.367 274.242 108.643 274.542C108.931 274.842 109.339 274.992 109.867 274.992C110.431 274.992 110.899 274.83 111.271 274.506L111.721 275.424C111.469 275.652 111.163 275.82 110.803 275.928C110.455 276.036 110.095 276.09 109.723 276.09ZM105.259 267.612V266.55H111.109V267.612H105.259ZM114.048 276V266.55H115.326V276H114.048ZM114.696 264.462C114.432 264.462 114.21 264.372 114.03 264.192C113.85 264.012 113.76 263.796 113.76 263.544C113.76 263.292 113.85 263.082 114.03 262.914C114.21 262.734 114.432 262.644 114.696 262.644C114.96 262.644 115.182 262.728 115.362 262.896C115.542 263.064 115.632 263.274 115.632 263.526C115.632 263.79 115.542 264.012 115.362 264.192C115.194 264.372 114.972 264.462 114.696 264.462ZM121.87 276.09C120.982 276.09 120.298 275.85 119.818 275.37C119.338 274.89 119.098 274.212 119.098 273.336V264.462H120.376V273.264C120.376 273.816 120.514 274.242 120.79 274.542C121.078 274.842 121.486 274.992 122.014 274.992C122.578 274.992 123.046 274.83 123.418 274.506L123.868 275.424C123.616 275.652 123.31 275.82 122.95 275.928C122.602 276.036 122.242 276.09 121.87 276.09ZM117.406 267.612V266.55H123.256V267.612H117.406ZM129.712 276.09C128.8 276.09 127.978 275.886 127.246 275.478C126.526 275.058 125.956 274.488 125.536 273.768C125.116 273.036 124.906 272.202 124.906 271.266C124.906 270.318 125.116 269.484 125.536 268.764C125.956 268.044 126.526 267.48 127.246 267.072C127.966 266.664 128.788 266.46 129.712 266.46C130.648 266.46 131.476 266.664 132.196 267.072C132.928 267.48 133.498 268.044 133.906 268.764C134.326 269.484 134.536 270.318 134.536 271.266C134.536 272.202 134.326 273.036 133.906 273.768C133.498 274.488 132.928 275.058 132.196 275.478C131.464 275.886 130.636 276.09 129.712 276.09ZM129.712 274.956C130.396 274.956 131.002 274.806 131.53 274.506C132.058 274.194 132.472 273.762 132.772 273.21C133.084 272.646 133.24 271.998 133.24 271.266C133.24 270.522 133.084 269.874 132.772 269.322C132.472 268.77 132.058 268.344 131.53 268.044C131.002 267.732 130.402 267.576 129.73 267.576C129.058 267.576 128.458 267.732 127.93 268.044C127.402 268.344 126.982 268.77 126.67 269.322C126.358 269.874 126.202 270.522 126.202 271.266C126.202 271.998 126.358 272.646 126.67 273.21C126.982 273.762 127.402 274.194 127.93 274.506C128.458 274.806 129.052 274.956 129.712 274.956ZM137.145 276V266.55H138.369V269.124L138.243 268.674C138.507 267.954 138.951 267.408 139.575 267.036C140.199 266.652 140.973 266.46 141.897 266.46V267.702C141.849 267.702 141.801 267.702 141.753 267.702C141.705 267.69 141.657 267.684 141.609 267.684C140.613 267.684 139.833 267.99 139.269 268.602C138.705 269.202 138.423 270.06 138.423 271.176V276H137.145ZM148.001 276V275.082L153.239 269.952C153.719 269.484 154.079 269.076 154.319 268.728C154.559 268.368 154.721 268.032 154.805 267.72C154.889 267.408 154.931 267.114 154.931 266.838C154.931 266.106 154.679 265.53 154.175 265.11C153.683 264.69 152.951 264.48 151.979 264.48C151.235 264.48 150.575 264.594 149.999 264.822C149.435 265.05 148.949 265.404 148.541 265.884L147.623 265.092C148.115 264.516 148.745 264.072 149.513 263.76C150.281 263.448 151.139 263.292 152.087 263.292C152.939 263.292 153.677 263.43 154.301 263.706C154.925 263.97 155.405 264.36 155.741 264.876C156.089 265.392 156.263 265.998 156.263 266.694C156.263 267.102 156.203 267.504 156.083 267.9C155.975 268.296 155.771 268.716 155.471 269.16C155.183 269.592 154.757 270.084 154.193 270.636L149.387 275.352L149.027 274.848H156.839V276H148.001Z" fill="#454545"/>
<rect x="24" y="242" width="156.333" height="56" stroke="#DDDDE6" stroke-width="2"/>
<rect x="180.333" y="242" width="156.333" height="56" fill="white"/>
<path d="M238.488 276V264.12L239.262 264.966H235.644V263.4H240.27V276H238.488ZM251.928 276.144C251.04 276.144 250.176 276.006 249.336 275.73C248.508 275.454 247.83 275.082 247.302 274.614L248.13 273.192C248.55 273.588 249.096 273.912 249.768 274.164C250.44 274.416 251.154 274.542 251.91 274.542C252.87 274.542 253.608 274.338 254.124 273.93C254.64 273.522 254.898 272.976 254.898 272.292C254.898 271.824 254.784 271.416 254.556 271.068C254.328 270.72 253.932 270.456 253.368 270.276C252.816 270.084 252.054 269.988 251.082 269.988H248.22L248.886 263.4H255.996V264.966H249.552L250.488 264.084L249.966 269.286L249.03 268.422H251.46C252.72 268.422 253.734 268.584 254.502 268.908C255.27 269.232 255.828 269.682 256.176 270.258C256.524 270.822 256.698 271.476 256.698 272.22C256.698 272.94 256.524 273.6 256.176 274.2C255.828 274.788 255.3 275.262 254.592 275.622C253.896 275.97 253.008 276.144 251.928 276.144ZM263.344 276.144C262.36 276.144 261.478 275.892 260.698 275.388C259.93 274.884 259.318 274.152 258.862 273.192C258.418 272.232 258.196 271.068 258.196 269.7C258.196 268.332 258.418 267.168 258.862 266.208C259.318 265.248 259.93 264.516 260.698 264.012C261.478 263.508 262.36 263.256 263.344 263.256C264.316 263.256 265.192 263.508 265.972 264.012C266.752 264.516 267.364 265.248 267.808 266.208C268.252 267.168 268.474 268.332 268.474 269.7C268.474 271.068 268.252 272.232 267.808 273.192C267.364 274.152 266.752 274.884 265.972 275.388C265.192 275.892 264.316 276.144 263.344 276.144ZM263.344 274.542C264.004 274.542 264.58 274.362 265.072 274.002C265.576 273.642 265.966 273.102 266.242 272.382C266.53 271.662 266.674 270.768 266.674 269.7C266.674 268.632 266.53 267.738 266.242 267.018C265.966 266.298 265.576 265.758 265.072 265.398C264.58 265.038 264.004 264.858 263.344 264.858C262.684 264.858 262.102 265.038 261.598 265.398C261.094 265.758 260.698 266.298 260.41 267.018C260.134 267.738 259.996 268.632 259.996 269.7C259.996 270.768 260.134 271.662 260.41 272.382C260.698 273.102 261.094 273.642 261.598 274.002C262.102 274.362 262.684 274.542 263.344 274.542ZM275.35 276.144C274.366 276.144 273.484 275.892 272.704 275.388C271.936 274.884 271.324 274.152 270.868 273.192C270.424 272.232 270.202 271.068 270.202 269.7C270.202 268.332 270.424 267.168 270.868 266.208C271.324 265.248 271.936 264.516 272.704 264.012C273.484 263.508 274.366 263.256 275.35 263.256C276.322 263.256 277.198 263.508 277.978 264.012C278.758 264.516 279.37 265.248 279.814 266.208C280.258 267.168 280.48 268.332 280.48 269.7C280.48 271.068 280.258 272.232 279.814 273.192C279.37 274.152 278.758 274.884 277.978 275.388C277.198 275.892 276.322 276.144 275.35 276.144ZM275.35 274.542C276.01 274.542 276.586 274.362 277.078 274.002C277.582 273.642 277.972 273.102 278.248 272.382C278.536 271.662 278.68 270.768 278.68 269.7C278.68 268.632 278.536 267.738 278.248 267.018C277.972 266.298 277.582 265.758 277.078 265.398C276.586 265.038 276.01 264.858 275.35 264.858C274.69 264.858 274.108 265.038 273.604 265.398C273.1 265.758 272.704 266.298 272.416 267.018C272.14 267.738 272.002 268.632 272.002 269.7C272.002 270.768 272.14 271.662 272.416 272.382C272.704 273.102 273.1 273.642 273.604 274.002C274.108 274.362 274.69 274.542 275.35 274.542Z" fill="#454545"/>
<rect x="180.333" y="242" width="156.333" height="56" stroke="#DDDDE6" stroke-width="2"/>
<rect x="336.667" y="242" width="98" height="56" fill="white"/>
<rect x="358.667" y="255.5" width="54" height="29" rx="14.5" fill="#DDDDE6"/>
<path d="M367.483 275V265.2H368.981L375.127 272.746H374.385V265.2H376.191V275H374.693L368.547 267.454H369.289V275H367.483ZM382.009 275.098C381.243 275.098 380.562 274.935 379.965 274.608C379.367 274.272 378.896 273.815 378.551 273.236C378.205 272.657 378.033 271.999 378.033 271.262C378.033 270.515 378.205 269.857 378.551 269.288C378.896 268.709 379.367 268.257 379.965 267.93C380.562 267.603 381.243 267.44 382.009 267.44C382.783 267.44 383.469 267.603 384.067 267.93C384.673 268.257 385.145 268.705 385.481 269.274C385.826 269.843 385.999 270.506 385.999 271.262C385.999 271.999 385.826 272.657 385.481 273.236C385.145 273.815 384.673 274.272 384.067 274.608C383.469 274.935 382.783 275.098 382.009 275.098ZM382.009 273.6C382.438 273.6 382.821 273.507 383.157 273.32C383.493 273.133 383.754 272.863 383.941 272.508C384.137 272.153 384.235 271.738 384.235 271.262C384.235 270.777 384.137 270.361 383.941 270.016C383.754 269.661 383.493 269.391 383.157 269.204C382.821 269.017 382.443 268.924 382.023 268.924C381.593 268.924 381.211 269.017 380.875 269.204C380.548 269.391 380.287 269.661 380.091 270.016C379.895 270.361 379.797 270.777 379.797 271.262C379.797 271.738 379.895 272.153 380.091 272.508C380.287 272.863 380.548 273.133 380.875 273.32C381.211 273.507 381.589 273.6 382.009 273.6ZM391.914 267.44C392.511 267.44 393.043 267.557 393.51 267.79C393.986 268.023 394.359 268.383 394.63 268.868C394.901 269.344 395.036 269.96 395.036 270.716V275H393.286V270.94C393.286 270.277 393.127 269.783 392.81 269.456C392.502 269.129 392.068 268.966 391.508 268.966C391.097 268.966 390.733 269.05 390.416 269.218C390.099 269.386 389.851 269.638 389.674 269.974C389.506 270.301 389.422 270.716 389.422 271.22V275H387.672V267.524H389.338V269.54L389.044 268.924C389.305 268.448 389.683 268.084 390.178 267.832C390.682 267.571 391.261 267.44 391.914 267.44ZM400.784 275.098C399.953 275.098 399.225 274.935 398.6 274.608C397.984 274.272 397.503 273.815 397.158 273.236C396.822 272.657 396.654 271.999 396.654 271.262C396.654 270.515 396.817 269.857 397.144 269.288C397.48 268.709 397.937 268.257 398.516 267.93C399.104 267.603 399.771 267.44 400.518 267.44C401.246 267.44 401.894 267.599 402.464 267.916C403.033 268.233 403.481 268.681 403.808 269.26C404.134 269.839 404.298 270.52 404.298 271.304C404.298 271.379 404.293 271.463 404.284 271.556C404.284 271.649 404.279 271.738 404.27 271.822H398.04V270.66H403.346L402.66 271.024C402.669 270.595 402.58 270.217 402.394 269.89C402.207 269.563 401.95 269.307 401.624 269.12C401.306 268.933 400.938 268.84 400.518 268.84C400.088 268.84 399.71 268.933 399.384 269.12C399.066 269.307 398.814 269.568 398.628 269.904C398.45 270.231 398.362 270.618 398.362 271.066V271.346C398.362 271.794 398.464 272.191 398.67 272.536C398.875 272.881 399.164 273.147 399.538 273.334C399.911 273.521 400.34 273.614 400.826 273.614C401.246 273.614 401.624 273.549 401.96 273.418C402.296 273.287 402.594 273.082 402.856 272.802L403.794 273.88C403.458 274.272 403.033 274.575 402.52 274.79C402.016 274.995 401.437 275.098 400.784 275.098Z" fill="#636370"/>
<rect x="358.667" y="255.5" width="54" height="29" rx="14.5" stroke="#636370"/>
<rect x="336.667" y="242" width="98" height="56" stroke="#DDDDE6" stroke-width="2"/>
<rect x="434.667" y="242" width="156.333" height="56" fill="white"/>
<path d="M466.833 260L469.808 265.906L476.344 266.91L471.646 271.564L472.711 278.09L466.833 275.06L460.955 278.09L462.021 271.564L457.323 266.91L463.859 265.906L466.833 260Z" fill="#F28100"/>
<path d="M489.833 260L492.808 265.906L499.344 266.91L494.646 271.564L495.711 278.09L489.833 275.06L483.955 278.09L485.021 271.564L480.323 266.91L486.859 265.906L489.833 260Z" fill="#F28100"/>
<path d="M512.833 260L515.808 265.906L522.344 266.91L517.646 271.564L518.711 278.09L512.833 275.06L506.955 278.09L508.021 271.564L503.323 266.91L509.859 265.906L512.833 260Z" fill="#F28100"/>
<path d="M535.833 260L538.808 265.906L545.344 266.91L540.646 271.564L541.711 278.09L535.833 275.06L529.955 278.09L531.021 271.564L526.323 266.91L532.859 265.906L535.833 260Z" fill="#F28100"/>
<path d="M558.833 260L561.808 265.906L568.344 266.91L563.646 271.564L564.711 278.09L558.833 275.06L552.955 278.09L554.021 271.564L549.323 266.91L555.859 265.906L558.833 260Z" fill="#D5D5E4"/>
<rect x="434.667" y="242" width="156.333" height="56" stroke="#DDDDE6" stroke-width="2"/>
</g>
<rect x="24" y="242" width="567" height="56" stroke="#DDDDE6" stroke-width="2"/>
</g>
<rect x="24" y="25" width="567" height="273" rx="15" stroke="#DDDDE6" stroke-width="2"/>
<defs>
<clipPath id="clip0_122_531">
<rect x="24" y="25" width="567" height="273" rx="15" fill="white"/>
</clipPath>
<clipPath id="clip1_122_531">
<rect width="567" height="48" fill="white" transform="translate(24 25)"/>
</clipPath>
<clipPath id="clip2_122_531">
<rect x="24" y="73" width="567" height="56" fill="white"/>
</clipPath>
<clipPath id="clip3_122_531">
<rect x="24" y="129" width="567" height="56" fill="white"/>
</clipPath>
<clipPath id="clip4_122_531">
<rect x="24" y="185" width="567" height="57" fill="white"/>
</clipPath>
<clipPath id="clip5_122_531">
<rect x="24" y="242" width="567" height="56" fill="white"/>
</clipPath>
</defs>
</svg>
