<svg width="619" height="323" viewBox="0 0 619 323" fill="none" xmlns="http://www.w3.org/2000/svg">
<rect width="619" height="323" rx="20" fill="white"/>
<g clip-path="url(#clip0_122_873)">
<g clip-path="url(#clip1_122_873)">
<rect x="24" y="25" width="181" height="48" fill="#F9F9FB"/>
<path d="M40.68 55V43.8H42.28V55H40.68ZM48.3211 55.096C47.4678 55.096 46.8065 54.8667 46.3371 54.408C45.8678 53.9493 45.6331 53.2933 45.6331 52.44V44.664H47.1691V52.376C47.1691 52.8347 47.2811 53.1867 47.5051 53.432C47.7398 53.6773 48.0705 53.8 48.4971 53.8C48.9771 53.8 49.3771 53.6667 49.6971 53.4L50.1771 54.504C49.9425 54.7067 49.6598 54.856 49.3291 54.952C49.0091 55.048 48.6731 55.096 48.3211 55.096ZM44.1931 47.784V46.52H49.6011V47.784H44.1931ZM55.5289 55.096C54.6222 55.096 53.8222 54.9093 53.1289 54.536C52.4462 54.1627 51.9129 53.6507 51.5289 53C51.1555 52.3493 50.9689 51.6027 50.9689 50.76C50.9689 49.9173 51.1502 49.1707 51.5129 48.52C51.8862 47.8693 52.3929 47.3627 53.0329 47C53.6835 46.6267 54.4142 46.44 55.2249 46.44C56.0462 46.44 56.7715 46.6213 57.4009 46.984C58.0302 47.3467 58.5209 47.8587 58.8729 48.52C59.2355 49.1707 59.4169 49.9333 59.4169 50.808C59.4169 50.872 59.4115 50.9467 59.4009 51.032C59.4009 51.1173 59.3955 51.1973 59.3849 51.272H52.1689V50.168H58.5849L57.9609 50.552C57.9715 50.008 57.8595 49.5227 57.6249 49.096C57.3902 48.6693 57.0649 48.3387 56.6489 48.104C56.2435 47.8587 55.7689 47.736 55.2249 47.736C54.6915 47.736 54.2169 47.8587 53.8009 48.104C53.3849 48.3387 53.0595 48.6747 52.8249 49.112C52.5902 49.5387 52.4729 50.0293 52.4729 50.584V50.84C52.4729 51.4053 52.6009 51.912 52.8569 52.36C53.1235 52.7973 53.4915 53.1387 53.9609 53.384C54.4302 53.6293 54.9689 53.752 55.5769 53.752C56.0782 53.752 56.5315 53.6667 56.9369 53.496C57.3529 53.3253 57.7155 53.0693 58.0249 52.728L58.8729 53.72C58.4889 54.168 58.0089 54.5093 57.4329 54.744C56.8675 54.9787 56.2329 55.096 55.5289 55.096ZM72.1578 46.44C72.8404 46.44 73.4431 46.5733 73.9658 46.84C74.4884 47.1067 74.8938 47.512 75.1818 48.056C75.4804 48.6 75.6298 49.288 75.6298 50.12V55H74.0938V50.296C74.0938 49.4747 73.9018 48.856 73.5178 48.44C73.1338 48.024 72.5951 47.816 71.9018 47.816C71.3898 47.816 70.9418 47.9227 70.5578 48.136C70.1738 48.3493 69.8751 48.664 69.6618 49.08C69.4591 49.496 69.3578 50.0133 69.3578 50.632V55H67.8218V50.296C67.8218 49.4747 67.6298 48.856 67.2458 48.44C66.8724 48.024 66.3338 47.816 65.6298 47.816C65.1284 47.816 64.6858 47.9227 64.3018 48.136C63.9178 48.3493 63.6191 48.664 63.4058 49.08C63.1924 49.496 63.0858 50.0133 63.0858 50.632V55H61.5498V46.52H63.0218V48.776L62.7818 48.2C63.0484 47.6453 63.4591 47.2133 64.0138 46.904C64.5684 46.5947 65.2138 46.44 65.9498 46.44C66.7604 46.44 67.4591 46.6427 68.0458 47.048C68.6324 47.4427 69.0164 48.0453 69.1978 48.856L68.5738 48.6C68.8298 47.9493 69.2778 47.4267 69.9178 47.032C70.5578 46.6373 71.3044 46.44 72.1578 46.44ZM80.888 55.096C80.184 55.096 79.512 55 78.872 54.808C78.2427 54.616 77.7467 54.3813 77.384 54.104L78.024 52.888C78.3867 53.1333 78.8347 53.3413 79.368 53.512C79.9013 53.6827 80.4453 53.768 81 53.768C81.7147 53.768 82.2267 53.6667 82.536 53.464C82.856 53.2613 83.016 52.9787 83.016 52.616C83.016 52.3493 82.92 52.1413 82.728 51.992C82.536 51.8427 82.28 51.7307 81.96 51.656C81.6507 51.5813 81.304 51.5173 80.92 51.464C80.536 51.4 80.152 51.3253 79.768 51.24C79.384 51.144 79.032 51.016 78.712 50.856C78.392 50.6853 78.136 50.456 77.944 50.168C77.752 49.8693 77.656 49.4747 77.656 48.984C77.656 48.472 77.8 48.024 78.088 47.64C78.376 47.256 78.7813 46.9627 79.304 46.76C79.8373 46.5467 80.4667 46.44 81.192 46.44C81.7467 46.44 82.3067 46.5093 82.872 46.648C83.448 46.776 83.9173 46.9627 84.28 47.208L83.624 48.424C83.24 48.168 82.84 47.992 82.424 47.896C82.008 47.8 81.592 47.752 81.176 47.752C80.504 47.752 80.0027 47.864 79.672 48.088C79.3413 48.3013 79.176 48.5787 79.176 48.92C79.176 49.208 79.272 49.432 79.464 49.592C79.6667 49.7413 79.9227 49.8587 80.232 49.944C80.552 50.0293 80.904 50.104 81.288 50.168C81.672 50.2213 82.056 50.296 82.44 50.392C82.824 50.4773 83.1707 50.6 83.48 50.76C83.8 50.92 84.056 51.144 84.248 51.432C84.4507 51.72 84.552 52.104 84.552 52.584C84.552 53.096 84.4027 53.5387 84.104 53.912C83.8053 54.2853 83.384 54.5787 82.84 54.792C82.296 54.9947 81.6453 55.096 80.888 55.096Z" fill="#454545"/>
<rect x="24" y="25" width="181" height="48" stroke="#DDDDE6" stroke-width="2"/>
<rect x="205" y="25" width="105" height="48" fill="#F9F9FB"/>
<path d="M225.68 55V43.8H230.048C231.029 43.8 231.867 43.9547 232.56 44.264C233.253 44.5733 233.787 45.0213 234.16 45.608C234.533 46.1947 234.72 46.8933 234.72 47.704C234.72 48.5147 234.533 49.2133 234.16 49.8C233.787 50.376 233.253 50.8187 232.56 51.128C231.867 51.4373 231.029 51.592 230.048 51.592H226.56L227.28 50.856V55H225.68ZM233.168 55L230.32 50.936H232.032L234.912 55H233.168ZM227.28 51.016L226.56 50.232H230C231.024 50.232 231.797 50.0133 232.32 49.576C232.853 49.128 233.12 48.504 233.12 47.704C233.12 46.904 232.853 46.2853 232.32 45.848C231.797 45.4107 231.024 45.192 230 45.192H226.56L227.28 44.392V51.016ZM240.857 55.096C239.95 55.096 239.15 54.9093 238.457 54.536C237.774 54.1627 237.241 53.6507 236.857 53C236.484 52.3493 236.297 51.6027 236.297 50.76C236.297 49.9173 236.478 49.1707 236.841 48.52C237.214 47.8693 237.721 47.3627 238.361 47C239.012 46.6267 239.742 46.44 240.553 46.44C241.374 46.44 242.1 46.6213 242.729 46.984C243.358 47.3467 243.849 47.8587 244.201 48.52C244.564 49.1707 244.745 49.9333 244.745 50.808C244.745 50.872 244.74 50.9467 244.729 51.032C244.729 51.1173 244.724 51.1973 244.713 51.272H237.497V50.168H243.913L243.289 50.552C243.3 50.008 243.188 49.5227 242.953 49.096C242.718 48.6693 242.393 48.3387 241.977 48.104C241.572 47.8587 241.097 47.736 240.553 47.736C240.02 47.736 239.545 47.8587 239.129 48.104C238.713 48.3387 238.388 48.6747 238.153 49.112C237.918 49.5387 237.801 50.0293 237.801 50.584V50.84C237.801 51.4053 237.929 51.912 238.185 52.36C238.452 52.7973 238.82 53.1387 239.289 53.384C239.758 53.6293 240.297 53.752 240.905 53.752C241.406 53.752 241.86 53.6667 242.265 53.496C242.681 53.3253 243.044 53.0693 243.353 52.728L244.201 53.72C243.817 54.168 243.337 54.5093 242.761 54.744C242.196 54.9787 241.561 55.096 240.857 55.096ZM248.946 55L245.234 46.52H246.834L250.13 54.2H249.362L252.722 46.52H254.226L250.514 55H248.946ZM255.659 55V46.52H257.195V55H255.659ZM256.427 44.888C256.128 44.888 255.878 44.792 255.675 44.6C255.483 44.408 255.387 44.1733 255.387 43.896C255.387 43.608 255.483 43.368 255.675 43.176C255.878 42.984 256.128 42.888 256.427 42.888C256.726 42.888 256.971 42.984 257.163 43.176C257.366 43.3573 257.467 43.5867 257.467 43.864C257.467 44.152 257.371 44.3973 257.179 44.6C256.987 44.792 256.736 44.888 256.427 44.888ZM263.904 55.096C262.997 55.096 262.197 54.9093 261.504 54.536C260.821 54.1627 260.288 53.6507 259.904 53C259.531 52.3493 259.344 51.6027 259.344 50.76C259.344 49.9173 259.525 49.1707 259.888 48.52C260.261 47.8693 260.768 47.3627 261.408 47C262.059 46.6267 262.789 46.44 263.6 46.44C264.421 46.44 265.147 46.6213 265.776 46.984C266.405 47.3467 266.896 47.8587 267.248 48.52C267.611 49.1707 267.792 49.9333 267.792 50.808C267.792 50.872 267.787 50.9467 267.776 51.032C267.776 51.1173 267.771 51.1973 267.76 51.272H260.544V50.168H266.96L266.336 50.552C266.347 50.008 266.235 49.5227 266 49.096C265.765 48.6693 265.44 48.3387 265.024 48.104C264.619 47.8587 264.144 47.736 263.6 47.736C263.067 47.736 262.592 47.8587 262.176 48.104C261.76 48.3387 261.435 48.6747 261.2 49.112C260.965 49.5387 260.848 50.0293 260.848 50.584V50.84C260.848 51.4053 260.976 51.912 261.232 52.36C261.499 52.7973 261.867 53.1387 262.336 53.384C262.805 53.6293 263.344 53.752 263.952 53.752C264.453 53.752 264.907 53.6667 265.312 53.496C265.728 53.3253 266.091 53.0693 266.4 52.728L267.248 53.72C266.864 54.168 266.384 54.5093 265.808 54.744C265.243 54.9787 264.608 55.096 263.904 55.096ZM271.561 55L268.409 46.52H269.865L272.665 54.2H271.977L274.889 46.52H276.185L279.033 54.2H278.361L281.225 46.52H282.601L279.433 55H277.961L275.289 47.992H275.737L273.033 55H271.561ZM286.482 55.096C285.778 55.096 285.106 55 284.466 54.808C283.836 54.616 283.34 54.3813 282.978 54.104L283.618 52.888C283.98 53.1333 284.428 53.3413 284.962 53.512C285.495 53.6827 286.039 53.768 286.594 53.768C287.308 53.768 287.82 53.6667 288.13 53.464C288.45 53.2613 288.61 52.9787 288.61 52.616C288.61 52.3493 288.514 52.1413 288.322 51.992C288.13 51.8427 287.874 51.7307 287.554 51.656C287.244 51.5813 286.898 51.5173 286.514 51.464C286.13 51.4 285.746 51.3253 285.362 51.24C284.978 51.144 284.626 51.016 284.306 50.856C283.986 50.6853 283.73 50.456 283.538 50.168C283.346 49.8693 283.25 49.4747 283.25 48.984C283.25 48.472 283.394 48.024 283.682 47.64C283.97 47.256 284.375 46.9627 284.898 46.76C285.431 46.5467 286.06 46.44 286.786 46.44C287.34 46.44 287.9 46.5093 288.466 46.648C289.042 46.776 289.511 46.9627 289.874 47.208L289.218 48.424C288.834 48.168 288.434 47.992 288.018 47.896C287.602 47.8 287.186 47.752 286.77 47.752C286.098 47.752 285.596 47.864 285.266 48.088C284.935 48.3013 284.77 48.5787 284.77 48.92C284.77 49.208 284.866 49.432 285.058 49.592C285.26 49.7413 285.516 49.8587 285.826 49.944C286.146 50.0293 286.498 50.104 286.882 50.168C287.266 50.2213 287.65 50.296 288.034 50.392C288.418 50.4773 288.764 50.6 289.074 50.76C289.394 50.92 289.65 51.144 289.842 51.432C290.044 51.72 290.146 52.104 290.146 52.584C290.146 53.096 289.996 53.5387 289.698 53.912C289.399 54.2853 288.978 54.5787 288.434 54.792C287.89 54.9947 287.239 55.096 286.482 55.096Z" fill="#454545"/>
<rect x="205" y="25" width="105" height="48" stroke="#DDDDE6" stroke-width="2"/>
<rect x="310" y="25" width="100" height="48" fill="#F9F9FB"/>
<path d="M334.18 55V43.8H338.548C339.529 43.8 340.367 43.9547 341.06 44.264C341.753 44.5733 342.287 45.0213 342.66 45.608C343.033 46.1947 343.22 46.8933 343.22 47.704C343.22 48.5147 343.033 49.2133 342.66 49.8C342.287 50.376 341.753 50.8187 341.06 51.128C340.367 51.4373 339.529 51.592 338.548 51.592H335.06L335.78 50.856V55H334.18ZM341.668 55L338.82 50.936H340.532L343.412 55H341.668ZM335.78 51.016L335.06 50.232H338.5C339.524 50.232 340.297 50.0133 340.82 49.576C341.353 49.128 341.62 48.504 341.62 47.704C341.62 46.904 341.353 46.2853 340.82 45.848C340.297 45.4107 339.524 45.192 338.5 45.192H335.06L335.78 44.392V51.016ZM350.767 55V53.208L350.687 52.872V49.816C350.687 49.1653 350.495 48.664 350.111 48.312C349.738 47.9493 349.172 47.768 348.415 47.768C347.914 47.768 347.423 47.8533 346.943 48.024C346.463 48.184 346.058 48.4027 345.727 48.68L345.087 47.528C345.524 47.176 346.047 46.9093 346.655 46.728C347.274 46.536 347.919 46.44 348.591 46.44C349.754 46.44 350.65 46.7227 351.279 47.288C351.908 47.8533 352.223 48.7173 352.223 49.88V55H350.767ZM347.983 55.096C347.354 55.096 346.799 54.9893 346.319 54.776C345.85 54.5627 345.487 54.2693 345.231 53.896C344.975 53.512 344.847 53.08 344.847 52.6C344.847 52.1413 344.954 51.7253 345.167 51.352C345.391 50.9787 345.748 50.68 346.239 50.456C346.74 50.232 347.412 50.12 348.255 50.12H350.943V51.224H348.319C347.551 51.224 347.034 51.352 346.767 51.608C346.5 51.864 346.367 52.1733 346.367 52.536C346.367 52.952 346.532 53.288 346.863 53.544C347.194 53.7893 347.652 53.912 348.239 53.912C348.815 53.912 349.316 53.784 349.743 53.528C350.18 53.272 350.495 52.8987 350.687 52.408L350.991 53.464C350.788 53.9653 350.431 54.3653 349.919 54.664C349.407 54.952 348.762 55.096 347.983 55.096ZM357.977 55.096C357.124 55.096 356.463 54.8667 355.993 54.408C355.524 53.9493 355.289 53.2933 355.289 52.44V44.664H356.825V52.376C356.825 52.8347 356.937 53.1867 357.161 53.432C357.396 53.6773 357.727 53.8 358.153 53.8C358.633 53.8 359.033 53.6667 359.353 53.4L359.833 54.504C359.599 54.7067 359.316 54.856 358.985 54.952C358.665 55.048 358.329 55.096 357.977 55.096ZM353.849 47.784V46.52H359.257V47.784H353.849ZM361.69 55V46.52H363.226V55H361.69ZM362.458 44.888C362.16 44.888 361.909 44.792 361.706 44.6C361.514 44.408 361.418 44.1733 361.418 43.896C361.418 43.608 361.514 43.368 361.706 43.176C361.909 42.984 362.16 42.888 362.458 42.888C362.757 42.888 363.002 42.984 363.194 43.176C363.397 43.3573 363.498 43.5867 363.498 43.864C363.498 44.152 363.402 44.3973 363.21 44.6C363.018 44.792 362.768 44.888 362.458 44.888ZM370.687 46.44C371.38 46.44 371.988 46.5733 372.511 46.84C373.044 47.1067 373.46 47.512 373.759 48.056C374.058 48.6 374.207 49.288 374.207 50.12V55H372.671V50.296C372.671 49.4747 372.468 48.856 372.063 48.44C371.668 48.024 371.108 47.816 370.383 47.816C369.839 47.816 369.364 47.9227 368.959 48.136C368.554 48.3493 368.239 48.664 368.015 49.08C367.802 49.496 367.695 50.0133 367.695 50.632V55H366.159V46.52H367.631V48.808L367.391 48.2C367.668 47.6453 368.095 47.2133 368.671 46.904C369.247 46.5947 369.919 46.44 370.687 46.44ZM380.762 58.2C379.983 58.2 379.226 58.088 378.49 57.864C377.764 57.6507 377.172 57.3413 376.714 56.936L377.45 55.752C377.844 56.0933 378.33 56.36 378.906 56.552C379.482 56.7547 380.084 56.856 380.714 56.856C381.716 56.856 382.452 56.6213 382.922 56.152C383.391 55.6827 383.626 54.968 383.626 54.008V52.216L383.786 50.536L383.706 48.84V46.52H385.162V53.848C385.162 55.3413 384.788 56.44 384.042 57.144C383.295 57.848 382.202 58.2 380.762 58.2ZM380.57 54.648C379.748 54.648 379.012 54.4773 378.362 54.136C377.722 53.784 377.21 53.2987 376.826 52.68C376.452 52.0613 376.266 51.3467 376.266 50.536C376.266 49.7147 376.452 49 376.826 48.392C377.21 47.7733 377.722 47.2933 378.362 46.952C379.012 46.6107 379.748 46.44 380.57 46.44C381.295 46.44 381.956 46.5893 382.554 46.888C383.151 47.176 383.626 47.624 383.978 48.232C384.34 48.84 384.522 49.608 384.522 50.536C384.522 51.4533 384.34 52.216 383.978 52.824C383.626 53.432 383.151 53.8907 382.554 54.2C381.956 54.4987 381.295 54.648 380.57 54.648ZM380.746 53.304C381.311 53.304 381.812 53.1867 382.25 52.952C382.687 52.7173 383.028 52.392 383.274 51.976C383.53 51.56 383.658 51.08 383.658 50.536C383.658 49.992 383.53 49.512 383.274 49.096C383.028 48.68 382.687 48.36 382.25 48.136C381.812 47.9013 381.311 47.784 380.746 47.784C380.18 47.784 379.674 47.9013 379.226 48.136C378.788 48.36 378.442 48.68 378.186 49.096C377.94 49.512 377.818 49.992 377.818 50.536C377.818 51.08 377.94 51.56 378.186 51.976C378.442 52.392 378.788 52.7173 379.226 52.952C379.674 53.1867 380.18 53.304 380.746 53.304Z" fill="#454545"/>
<rect x="310" y="25" width="100" height="48" stroke="#DDDDE6" stroke-width="2"/>
<rect x="410" y="25" width="181" height="48" fill="#F9F9FB"/>
<path d="M468.68 55V43.8H473.048C474.029 43.8 474.867 43.9547 475.56 44.264C476.253 44.5733 476.787 45.0213 477.16 45.608C477.533 46.1947 477.72 46.8933 477.72 47.704C477.72 48.5147 477.533 49.2133 477.16 49.8C476.787 50.376 476.253 50.824 475.56 51.144C474.867 51.4533 474.029 51.608 473.048 51.608H469.56L470.28 50.856V55H468.68ZM470.28 51.016L469.56 50.216H473C474.024 50.216 474.797 49.9973 475.32 49.56C475.853 49.1227 476.12 48.504 476.12 47.704C476.12 46.904 475.853 46.2853 475.32 45.848C474.797 45.4107 474.024 45.192 473 45.192H469.56L470.28 44.392V51.016ZM483.447 55.096C482.594 55.096 481.837 54.9093 481.175 54.536C480.514 54.1627 479.991 53.6507 479.607 53C479.223 52.3387 479.031 51.592 479.031 50.76C479.031 49.9173 479.223 49.1707 479.607 48.52C479.991 47.8693 480.514 47.3627 481.175 47C481.837 46.6267 482.594 46.44 483.447 46.44C484.29 46.44 485.042 46.6267 485.703 47C486.375 47.3627 486.898 47.8693 487.271 48.52C487.655 49.16 487.847 49.9067 487.847 50.76C487.847 51.6027 487.655 52.3493 487.271 53C486.898 53.6507 486.375 54.1627 485.703 54.536C485.042 54.9093 484.29 55.096 483.447 55.096ZM483.447 53.752C483.991 53.752 484.477 53.6293 484.903 53.384C485.341 53.1387 485.682 52.792 485.927 52.344C486.173 51.8853 486.295 51.3573 486.295 50.76C486.295 50.152 486.173 49.6293 485.927 49.192C485.682 48.744 485.341 48.3973 484.903 48.152C484.477 47.9067 483.991 47.784 483.447 47.784C482.903 47.784 482.418 47.9067 481.991 48.152C481.565 48.3973 481.223 48.744 480.967 49.192C480.711 49.6293 480.583 50.152 480.583 50.76C480.583 51.3573 480.711 51.8853 480.967 52.344C481.223 52.792 481.565 53.1387 481.991 53.384C482.418 53.6293 482.903 53.752 483.447 53.752ZM492.404 55.096C491.7 55.096 491.028 55 490.388 54.808C489.758 54.616 489.262 54.3813 488.9 54.104L489.54 52.888C489.902 53.1333 490.35 53.3413 490.884 53.512C491.417 53.6827 491.961 53.768 492.516 53.768C493.23 53.768 493.742 53.6667 494.052 53.464C494.372 53.2613 494.532 52.9787 494.532 52.616C494.532 52.3493 494.436 52.1413 494.244 51.992C494.052 51.8427 493.796 51.7307 493.476 51.656C493.166 51.5813 492.82 51.5173 492.436 51.464C492.052 51.4 491.668 51.3253 491.284 51.24C490.9 51.144 490.548 51.016 490.228 50.856C489.908 50.6853 489.652 50.456 489.46 50.168C489.268 49.8693 489.172 49.4747 489.172 48.984C489.172 48.472 489.316 48.024 489.604 47.64C489.892 47.256 490.297 46.9627 490.82 46.76C491.353 46.5467 491.982 46.44 492.708 46.44C493.262 46.44 493.822 46.5093 494.388 46.648C494.964 46.776 495.433 46.9627 495.796 47.208L495.14 48.424C494.756 48.168 494.356 47.992 493.94 47.896C493.524 47.8 493.108 47.752 492.692 47.752C492.02 47.752 491.518 47.864 491.188 48.088C490.857 48.3013 490.692 48.5787 490.692 48.92C490.692 49.208 490.788 49.432 490.98 49.592C491.182 49.7413 491.438 49.8587 491.748 49.944C492.068 50.0293 492.42 50.104 492.804 50.168C493.188 50.2213 493.572 50.296 493.956 50.392C494.34 50.4773 494.686 50.6 494.996 50.76C495.316 50.92 495.572 51.144 495.764 51.432C495.966 51.72 496.068 52.104 496.068 52.584C496.068 53.096 495.918 53.5387 495.62 53.912C495.321 54.2853 494.9 54.5787 494.356 54.792C493.812 54.9947 493.161 55.096 492.404 55.096ZM497.987 55V46.52H499.523V55H497.987ZM498.755 44.888C498.457 44.888 498.206 44.792 498.003 44.6C497.811 44.408 497.715 44.1733 497.715 43.896C497.715 43.608 497.811 43.368 498.003 43.176C498.206 42.984 498.457 42.888 498.755 42.888C499.054 42.888 499.299 42.984 499.491 43.176C499.694 43.3573 499.795 43.5867 499.795 43.864C499.795 44.152 499.699 44.3973 499.507 44.6C499.315 44.792 499.065 44.888 498.755 44.888ZM505.368 55.096C504.515 55.096 503.853 54.8667 503.384 54.408C502.915 53.9493 502.68 53.2933 502.68 52.44V44.664H504.216V52.376C504.216 52.8347 504.328 53.1867 504.552 53.432C504.787 53.6773 505.117 53.8 505.544 53.8C506.024 53.8 506.424 53.6667 506.744 53.4L507.224 54.504C506.989 54.7067 506.707 54.856 506.376 54.952C506.056 55.048 505.72 55.096 505.368 55.096ZM501.24 47.784V46.52H506.648V47.784H501.24ZM509.081 55V46.52H510.617V55H509.081ZM509.849 44.888C509.55 44.888 509.3 44.792 509.097 44.6C508.905 44.408 508.809 44.1733 508.809 43.896C508.809 43.608 508.905 43.368 509.097 43.176C509.3 42.984 509.55 42.888 509.849 42.888C510.148 42.888 510.393 42.984 510.585 43.176C510.788 43.3573 510.889 43.5867 510.889 43.864C510.889 44.152 510.793 44.3973 510.601 44.6C510.409 44.792 510.158 44.888 509.849 44.888ZM517.182 55.096C516.328 55.096 515.571 54.9093 514.91 54.536C514.248 54.1627 513.726 53.6507 513.342 53C512.958 52.3387 512.766 51.592 512.766 50.76C512.766 49.9173 512.958 49.1707 513.342 48.52C513.726 47.8693 514.248 47.3627 514.91 47C515.571 46.6267 516.328 46.44 517.182 46.44C518.024 46.44 518.776 46.6267 519.438 47C520.11 47.3627 520.632 47.8693 521.006 48.52C521.39 49.16 521.582 49.9067 521.582 50.76C521.582 51.6027 521.39 52.3493 521.006 53C520.632 53.6507 520.11 54.1627 519.438 54.536C518.776 54.9093 518.024 55.096 517.182 55.096ZM517.182 53.752C517.726 53.752 518.211 53.6293 518.638 53.384C519.075 53.1387 519.416 52.792 519.662 52.344C519.907 51.8853 520.03 51.3573 520.03 50.76C520.03 50.152 519.907 49.6293 519.662 49.192C519.416 48.744 519.075 48.3973 518.638 48.152C518.211 47.9067 517.726 47.784 517.182 47.784C516.638 47.784 516.152 47.9067 515.726 48.152C515.299 48.3973 514.958 48.744 514.702 49.192C514.446 49.6293 514.318 50.152 514.318 50.76C514.318 51.3573 514.446 51.8853 514.702 52.344C514.958 52.792 515.299 53.1387 515.726 53.384C516.152 53.6293 516.638 53.752 517.182 53.752ZM528.234 46.44C528.927 46.44 529.535 46.5733 530.058 46.84C530.591 47.1067 531.007 47.512 531.306 48.056C531.605 48.6 531.754 49.288 531.754 50.12V55H530.218V50.296C530.218 49.4747 530.015 48.856 529.61 48.44C529.215 48.024 528.655 47.816 527.93 47.816C527.386 47.816 526.911 47.9227 526.506 48.136C526.101 48.3493 525.786 48.664 525.562 49.08C525.349 49.496 525.242 50.0133 525.242 50.632V55H523.706V46.52H525.178V48.808L524.938 48.2C525.215 47.6453 525.642 47.2133 526.218 46.904C526.794 46.5947 527.466 46.44 528.234 46.44Z" fill="#454545"/>
<rect x="410" y="25" width="181" height="48" stroke="#DDDDE6" stroke-width="2"/>
</g>
<g clip-path="url(#clip2_122_873)">
<rect x="24" y="73" width="181" height="56" fill="white"/>
<path d="M41.052 107V94.4H42.15L47.91 104.228H47.334L53.04 94.4H54.138V107H52.86V96.398H53.166L47.91 105.398H47.28L41.988 96.398H42.33V107H41.052ZM58.0454 110.582C57.6014 110.582 57.1754 110.51 56.7674 110.366C56.3714 110.222 56.0294 110.006 55.7414 109.718L56.3354 108.764C56.5754 108.992 56.8334 109.166 57.1094 109.286C57.3974 109.418 57.7154 109.484 58.0634 109.484C58.4834 109.484 58.8434 109.364 59.1434 109.124C59.4554 108.896 59.7494 108.488 60.0254 107.9L60.6374 106.514L60.7814 106.316L64.6694 97.55H65.9294L61.1954 108.134C60.9314 108.746 60.6374 109.232 60.3134 109.592C60.0014 109.952 59.6594 110.204 59.2874 110.348C58.9154 110.504 58.5014 110.582 58.0454 110.582ZM60.5654 107.27L56.2094 97.55H57.5414L61.3934 106.226L60.5654 107.27ZM72.4402 107V97.55H73.7182V107H72.4402ZM73.0882 95.462C72.8242 95.462 72.6022 95.372 72.4222 95.192C72.2422 95.012 72.1522 94.796 72.1522 94.544C72.1522 94.292 72.2422 94.082 72.4222 93.914C72.6022 93.734 72.8242 93.644 73.0882 93.644C73.3522 93.644 73.5742 93.728 73.7542 93.896C73.9342 94.064 74.0242 94.274 74.0242 94.526C74.0242 94.79 73.9342 95.012 73.7542 95.192C73.5862 95.372 73.3642 95.462 73.0882 95.462ZM80.2622 107.09C79.3742 107.09 78.6902 106.85 78.2102 106.37C77.7302 105.89 77.4902 105.212 77.4902 104.336V95.462H78.7682V104.264C78.7682 104.816 78.9062 105.242 79.1822 105.542C79.4702 105.842 79.8782 105.992 80.4062 105.992C80.9702 105.992 81.4382 105.83 81.8102 105.506L82.2602 106.424C82.0082 106.652 81.7022 106.82 81.3422 106.928C80.9942 107.036 80.6342 107.09 80.2622 107.09ZM75.7982 98.612V97.55H81.6482V98.612H75.7982ZM88.2667 107.09C87.2827 107.09 86.4187 106.886 85.6747 106.478C84.9307 106.058 84.3487 105.488 83.9287 104.768C83.5087 104.036 83.2987 103.202 83.2987 102.266C83.2987 101.33 83.4967 100.502 83.8927 99.782C84.3007 99.062 84.8527 98.498 85.5487 98.09C86.2567 97.67 87.0487 97.46 87.9247 97.46C88.8127 97.46 89.5987 97.664 90.2827 98.072C90.9787 98.468 91.5247 99.032 91.9207 99.764C92.3167 100.484 92.5147 101.318 92.5147 102.266C92.5147 102.326 92.5087 102.392 92.4967 102.464C92.4967 102.524 92.4967 102.59 92.4967 102.662H84.2707V101.708H91.8127L91.3087 102.086C91.3087 101.402 91.1587 100.796 90.8587 100.268C90.5707 99.728 90.1747 99.308 89.6707 99.008C89.1667 98.708 88.5847 98.558 87.9247 98.558C87.2767 98.558 86.6947 98.708 86.1787 99.008C85.6627 99.308 85.2607 99.728 84.9727 100.268C84.6847 100.808 84.5407 101.426 84.5407 102.122V102.32C84.5407 103.04 84.6967 103.676 85.0087 104.228C85.3327 104.768 85.7767 105.194 86.3407 105.506C86.9167 105.806 87.5707 105.956 88.3027 105.956C88.8787 105.956 89.4127 105.854 89.9047 105.65C90.4087 105.446 90.8407 105.134 91.2007 104.714L91.9207 105.542C91.5007 106.046 90.9727 106.43 90.3367 106.694C89.7127 106.958 89.0227 107.09 88.2667 107.09ZM106.924 97.46C107.692 97.46 108.358 97.61 108.922 97.91C109.498 98.198 109.942 98.642 110.254 99.242C110.578 99.842 110.74 100.598 110.74 101.51V107H109.462V101.636C109.462 100.64 109.222 99.89 108.742 99.386C108.274 98.87 107.608 98.612 106.744 98.612C106.096 98.612 105.532 98.75 105.052 99.026C104.584 99.29 104.218 99.68 103.954 100.196C103.702 100.7 103.576 101.312 103.576 102.032V107H102.298V101.636C102.298 100.64 102.058 99.89 101.578 99.386C101.098 98.87 100.426 98.612 99.562 98.612C98.926 98.612 98.368 98.75 97.888 99.026C97.408 99.29 97.036 99.68 96.772 100.196C96.52 100.7 96.394 101.312 96.394 102.032V107H95.116V97.55H96.34V100.106L96.142 99.656C96.43 98.972 96.892 98.438 97.528 98.054C98.176 97.658 98.938 97.46 99.814 97.46C100.738 97.46 101.524 97.694 102.172 98.162C102.82 98.618 103.24 99.308 103.432 100.232L102.928 100.034C103.204 99.266 103.69 98.648 104.386 98.18C105.094 97.7 105.94 97.46 106.924 97.46ZM120.267 107V94.94L120.843 95.552H117.297V94.4H121.563V107H120.267Z" fill="#454545"/>
<rect x="24" y="73" width="181" height="56" stroke="#DDDDE6" stroke-width="2"/>
<rect x="205" y="73" width="105" height="56" fill="white"/>
<path d="M245.716 107.144C244.828 107.144 243.964 107.006 243.124 106.73C242.296 106.454 241.618 106.082 241.09 105.614L241.918 104.192C242.338 104.588 242.884 104.912 243.556 105.164C244.228 105.416 244.948 105.542 245.716 105.542C246.652 105.542 247.378 105.344 247.894 104.948C248.422 104.54 248.686 103.994 248.686 103.31C248.686 102.65 248.434 102.122 247.93 101.726C247.438 101.318 246.652 101.114 245.572 101.114H244.564V99.854L248.308 95.246L248.56 95.966H241.666V94.4H249.982V95.624L246.256 100.214L245.32 99.656H245.914C247.438 99.656 248.578 99.998 249.334 100.682C250.102 101.366 250.486 102.236 250.486 103.292C250.486 104 250.312 104.648 249.964 105.236C249.616 105.824 249.088 106.292 248.38 106.64C247.684 106.976 246.796 107.144 245.716 107.144ZM257.457 107.144C256.341 107.144 255.387 106.898 254.595 106.406C253.803 105.914 253.197 105.206 252.777 104.282C252.369 103.346 252.165 102.206 252.165 100.862C252.165 99.434 252.417 98.228 252.921 97.244C253.425 96.26 254.127 95.516 255.027 95.012C255.927 94.508 256.959 94.256 258.123 94.256C258.723 94.256 259.293 94.316 259.833 94.436C260.385 94.556 260.859 94.742 261.255 94.994L260.571 96.398C260.247 96.17 259.875 96.014 259.455 95.93C259.047 95.846 258.615 95.804 258.159 95.804C256.875 95.804 255.855 96.206 255.099 97.01C254.343 97.802 253.965 98.984 253.965 100.556C253.965 100.808 253.977 101.108 254.001 101.456C254.025 101.804 254.085 102.146 254.181 102.482L253.569 101.87C253.749 101.318 254.031 100.856 254.415 100.484C254.811 100.1 255.279 99.818 255.819 99.638C256.371 99.446 256.965 99.35 257.601 99.35C258.441 99.35 259.185 99.506 259.833 99.818C260.481 100.13 260.991 100.574 261.363 101.15C261.735 101.714 261.921 102.386 261.921 103.166C261.921 103.97 261.723 104.672 261.327 105.272C260.931 105.872 260.397 106.334 259.725 106.658C259.053 106.982 258.297 107.144 257.457 107.144ZM257.385 105.686C257.937 105.686 258.417 105.584 258.825 105.38C259.245 105.176 259.575 104.894 259.815 104.534C260.055 104.162 260.175 103.73 260.175 103.238C260.175 102.494 259.917 101.906 259.401 101.474C258.885 101.03 258.183 100.808 257.295 100.808C256.719 100.808 256.215 100.916 255.783 101.132C255.351 101.348 255.009 101.642 254.757 102.014C254.517 102.374 254.397 102.788 254.397 103.256C254.397 103.688 254.511 104.09 254.739 104.462C254.967 104.822 255.303 105.116 255.747 105.344C256.191 105.572 256.737 105.686 257.385 105.686ZM267.36 94.256C268.5 94.256 269.46 94.502 270.24 94.994C271.032 95.486 271.632 96.2 272.04 97.136C272.448 98.06 272.652 99.194 272.652 100.538C272.652 101.966 272.4 103.172 271.896 104.156C271.392 105.14 270.696 105.884 269.808 106.388C268.92 106.892 267.882 107.144 266.694 107.144C266.106 107.144 265.536 107.084 264.984 106.964C264.444 106.844 263.97 106.658 263.562 106.406L264.246 105.002C264.582 105.218 264.954 105.374 265.362 105.47C265.782 105.554 266.22 105.596 266.676 105.596C267.948 105.596 268.962 105.2 269.718 104.408C270.474 103.604 270.852 102.416 270.852 100.844C270.852 100.592 270.84 100.292 270.816 99.944C270.792 99.596 270.738 99.254 270.654 98.918L271.248 99.53C271.08 100.082 270.798 100.55 270.402 100.934C270.018 101.306 269.55 101.588 268.998 101.78C268.458 101.96 267.864 102.05 267.216 102.05C266.388 102.05 265.65 101.894 265.002 101.582C264.354 101.27 263.844 100.832 263.472 100.268C263.1 99.692 262.914 99.014 262.914 98.234C262.914 97.418 263.106 96.716 263.49 96.128C263.886 95.528 264.42 95.066 265.092 94.742C265.776 94.418 266.532 94.256 267.36 94.256ZM267.432 95.714C266.892 95.714 266.412 95.816 265.992 96.02C265.572 96.224 265.242 96.506 265.002 96.866C264.774 97.226 264.66 97.658 264.66 98.162C264.66 98.906 264.918 99.5 265.434 99.944C265.95 100.376 266.646 100.592 267.522 100.592C268.098 100.592 268.602 100.484 269.034 100.268C269.478 100.052 269.82 99.758 270.06 99.386C270.312 99.014 270.438 98.6 270.438 98.144C270.438 97.7 270.324 97.298 270.096 96.938C269.868 96.578 269.532 96.284 269.088 96.056C268.644 95.828 268.092 95.714 267.432 95.714Z" fill="#454545"/>
<rect x="205" y="73" width="105" height="56" stroke="#DDDDE6" stroke-width="2"/>
<rect x="310" y="73" width="100" height="56" fill="white"/>
<path d="M344 91L346.974 96.9064L353.511 97.9098L348.812 102.564L349.878 109.09L344 106.06L338.122 109.09L339.188 102.564L334.489 97.9098L341.026 96.9064L344 91Z" fill="#F28100"/>
<path d="M357.684 103.904V102.644L364.128 94.4H366.072L359.682 102.644L358.764 102.356H368.826V103.904H357.684ZM364.686 107V103.904L364.74 102.356V99.62H366.432V107H364.686ZM371.445 107.108C371.109 107.108 370.821 106.994 370.581 106.766C370.341 106.526 370.221 106.226 370.221 105.866C370.221 105.506 370.341 105.212 370.581 104.984C370.821 104.756 371.109 104.642 371.445 104.642C371.769 104.642 372.045 104.756 372.273 104.984C372.513 105.212 372.633 105.506 372.633 105.866C372.633 106.226 372.513 106.526 372.273 106.766C372.045 106.994 371.769 107.108 371.445 107.108ZM379.424 107.144C378.404 107.144 377.522 106.994 376.778 106.694C376.034 106.394 375.458 105.968 375.05 105.416C374.642 104.852 374.438 104.192 374.438 103.436C374.438 102.692 374.63 102.062 375.014 101.546C375.41 101.018 375.98 100.622 376.724 100.358C377.468 100.082 378.368 99.944 379.424 99.944C380.48 99.944 381.38 100.082 382.124 100.358C382.88 100.622 383.456 101.018 383.852 101.546C384.248 102.074 384.446 102.704 384.446 103.436C384.446 104.192 384.242 104.852 383.834 105.416C383.426 105.968 382.844 106.394 382.088 106.694C381.332 106.994 380.444 107.144 379.424 107.144ZM379.424 105.686C380.432 105.686 381.218 105.482 381.782 105.074C382.358 104.654 382.646 104.09 382.646 103.382C382.646 102.686 382.358 102.14 381.782 101.744C381.218 101.336 380.432 101.132 379.424 101.132C378.428 101.132 377.648 101.336 377.084 101.744C376.52 102.14 376.238 102.686 376.238 103.382C376.238 104.09 376.52 104.654 377.084 105.074C377.648 105.482 378.428 105.686 379.424 105.686ZM379.424 100.916C378.464 100.916 377.648 100.79 376.976 100.538C376.304 100.274 375.788 99.902 375.428 99.422C375.068 98.93 374.888 98.348 374.888 97.676C374.888 96.968 375.074 96.362 375.446 95.858C375.83 95.342 376.364 94.946 377.048 94.67C377.732 94.394 378.524 94.256 379.424 94.256C380.336 94.256 381.134 94.394 381.818 94.67C382.502 94.946 383.036 95.342 383.42 95.858C383.804 96.362 383.996 96.968 383.996 97.676C383.996 98.348 383.816 98.93 383.456 99.422C383.096 99.902 382.574 100.274 381.89 100.538C381.206 100.79 380.384 100.916 379.424 100.916ZM379.424 99.764C380.3 99.764 380.984 99.584 381.476 99.224C381.98 98.864 382.232 98.372 382.232 97.748C382.232 97.112 381.974 96.614 381.458 96.254C380.942 95.894 380.264 95.714 379.424 95.714C378.584 95.714 377.912 95.894 377.408 96.254C376.916 96.614 376.67 97.112 376.67 97.748C376.67 98.372 376.91 98.864 377.39 99.224C377.882 99.584 378.56 99.764 379.424 99.764Z" fill="#454545"/>
<rect x="310" y="73" width="100" height="56" stroke="#DDDDE6" stroke-width="2"/>
<rect x="410" y="73" width="181" height="56" fill="white"/>
<g clip-path="url(#clip3_122_873)">
<rect x="455.5" y="98.5" width="90" height="5" rx="2.5" fill="#DDDDE6"/>
<rect x="455.375" y="99" width="83" height="5" rx="2.5" fill="#80DA39"/>
</g>
<rect x="410" y="73" width="181" height="56" stroke="#DDDDE6" stroke-width="2"/>
</g>
<rect x="24" y="73" width="567" height="56" stroke="#DDDDE6" stroke-width="2"/>
<g clip-path="url(#clip4_122_873)">
<rect x="24" y="129" width="181" height="56" fill="white"/>
<path d="M41.052 163V150.4H42.15L47.91 160.228H47.334L53.04 150.4H54.138V163H52.86V152.398H53.166L47.91 161.398H47.28L41.988 152.398H42.33V163H41.052ZM58.0454 166.582C57.6014 166.582 57.1754 166.51 56.7674 166.366C56.3714 166.222 56.0294 166.006 55.7414 165.718L56.3354 164.764C56.5754 164.992 56.8334 165.166 57.1094 165.286C57.3974 165.418 57.7154 165.484 58.0634 165.484C58.4834 165.484 58.8434 165.364 59.1434 165.124C59.4554 164.896 59.7494 164.488 60.0254 163.9L60.6374 162.514L60.7814 162.316L64.6694 153.55H65.9294L61.1954 164.134C60.9314 164.746 60.6374 165.232 60.3134 165.592C60.0014 165.952 59.6594 166.204 59.2874 166.348C58.9154 166.504 58.5014 166.582 58.0454 166.582ZM60.5654 163.27L56.2094 153.55H57.5414L61.3934 162.226L60.5654 163.27ZM72.4402 163V153.55H73.7182V163H72.4402ZM73.0882 151.462C72.8242 151.462 72.6022 151.372 72.4222 151.192C72.2422 151.012 72.1522 150.796 72.1522 150.544C72.1522 150.292 72.2422 150.082 72.4222 149.914C72.6022 149.734 72.8242 149.644 73.0882 149.644C73.3522 149.644 73.5742 149.728 73.7542 149.896C73.9342 150.064 74.0242 150.274 74.0242 150.526C74.0242 150.79 73.9342 151.012 73.7542 151.192C73.5862 151.372 73.3642 151.462 73.0882 151.462ZM80.2622 163.09C79.3742 163.09 78.6902 162.85 78.2102 162.37C77.7302 161.89 77.4902 161.212 77.4902 160.336V151.462H78.7682V160.264C78.7682 160.816 78.9062 161.242 79.1822 161.542C79.4702 161.842 79.8782 161.992 80.4062 161.992C80.9702 161.992 81.4382 161.83 81.8102 161.506L82.2602 162.424C82.0082 162.652 81.7022 162.82 81.3422 162.928C80.9942 163.036 80.6342 163.09 80.2622 163.09ZM75.7982 154.612V153.55H81.6482V154.612H75.7982ZM88.2667 163.09C87.2827 163.09 86.4187 162.886 85.6747 162.478C84.9307 162.058 84.3487 161.488 83.9287 160.768C83.5087 160.036 83.2987 159.202 83.2987 158.266C83.2987 157.33 83.4967 156.502 83.8927 155.782C84.3007 155.062 84.8527 154.498 85.5487 154.09C86.2567 153.67 87.0487 153.46 87.9247 153.46C88.8127 153.46 89.5987 153.664 90.2827 154.072C90.9787 154.468 91.5247 155.032 91.9207 155.764C92.3167 156.484 92.5147 157.318 92.5147 158.266C92.5147 158.326 92.5087 158.392 92.4967 158.464C92.4967 158.524 92.4967 158.59 92.4967 158.662H84.2707V157.708H91.8127L91.3087 158.086C91.3087 157.402 91.1587 156.796 90.8587 156.268C90.5707 155.728 90.1747 155.308 89.6707 155.008C89.1667 154.708 88.5847 154.558 87.9247 154.558C87.2767 154.558 86.6947 154.708 86.1787 155.008C85.6627 155.308 85.2607 155.728 84.9727 156.268C84.6847 156.808 84.5407 157.426 84.5407 158.122V158.32C84.5407 159.04 84.6967 159.676 85.0087 160.228C85.3327 160.768 85.7767 161.194 86.3407 161.506C86.9167 161.806 87.5707 161.956 88.3027 161.956C88.8787 161.956 89.4127 161.854 89.9047 161.65C90.4087 161.446 90.8407 161.134 91.2007 160.714L91.9207 161.542C91.5007 162.046 90.9727 162.43 90.3367 162.694C89.7127 162.958 89.0227 163.09 88.2667 163.09ZM106.924 153.46C107.692 153.46 108.358 153.61 108.922 153.91C109.498 154.198 109.942 154.642 110.254 155.242C110.578 155.842 110.74 156.598 110.74 157.51V163H109.462V157.636C109.462 156.64 109.222 155.89 108.742 155.386C108.274 154.87 107.608 154.612 106.744 154.612C106.096 154.612 105.532 154.75 105.052 155.026C104.584 155.29 104.218 155.68 103.954 156.196C103.702 156.7 103.576 157.312 103.576 158.032V163H102.298V157.636C102.298 156.64 102.058 155.89 101.578 155.386C101.098 154.87 100.426 154.612 99.562 154.612C98.926 154.612 98.368 154.75 97.888 155.026C97.408 155.29 97.036 155.68 96.772 156.196C96.52 156.7 96.394 157.312 96.394 158.032V163H95.116V153.55H96.34V156.106L96.142 155.656C96.43 154.972 96.892 154.438 97.528 154.054C98.176 153.658 98.938 153.46 99.814 153.46C100.738 153.46 101.524 153.694 102.172 154.162C102.82 154.618 103.24 155.308 103.432 156.232L102.928 156.034C103.204 155.266 103.69 154.648 104.386 154.18C105.094 153.7 105.94 153.46 106.924 153.46ZM117.837 163V162.082L123.075 156.952C123.555 156.484 123.915 156.076 124.155 155.728C124.395 155.368 124.557 155.032 124.641 154.72C124.725 154.408 124.767 154.114 124.767 153.838C124.767 153.106 124.515 152.53 124.011 152.11C123.519 151.69 122.787 151.48 121.815 151.48C121.071 151.48 120.411 151.594 119.835 151.822C119.271 152.05 118.785 152.404 118.377 152.884L117.459 152.092C117.951 151.516 118.581 151.072 119.349 150.76C120.117 150.448 120.975 150.292 121.923 150.292C122.775 150.292 123.513 150.43 124.137 150.706C124.761 150.97 125.241 151.36 125.577 151.876C125.925 152.392 126.099 152.998 126.099 153.694C126.099 154.102 126.039 154.504 125.919 154.9C125.811 155.296 125.607 155.716 125.307 156.16C125.019 156.592 124.593 157.084 124.029 157.636L119.223 162.352L118.863 161.848H126.675V163H117.837Z" fill="#454545"/>
<rect x="24" y="129" width="181" height="56" stroke="#DDDDE6" stroke-width="2"/>
<rect x="205" y="129" width="105" height="56" fill="white"/>
<path d="M247.432 163.144C246.544 163.144 245.68 163.006 244.84 162.73C244.012 162.454 243.334 162.082 242.806 161.614L243.634 160.192C244.054 160.588 244.6 160.912 245.272 161.164C245.944 161.416 246.658 161.542 247.414 161.542C248.374 161.542 249.112 161.338 249.628 160.93C250.144 160.522 250.402 159.976 250.402 159.292C250.402 158.824 250.288 158.416 250.06 158.068C249.832 157.72 249.436 157.456 248.872 157.276C248.32 157.084 247.558 156.988 246.586 156.988H243.724L244.39 150.4H251.5V151.966H245.056L245.992 151.084L245.47 156.286L244.534 155.422H246.964C248.224 155.422 249.238 155.584 250.006 155.908C250.774 156.232 251.332 156.682 251.68 157.258C252.028 157.822 252.202 158.476 252.202 159.22C252.202 159.94 252.028 160.6 251.68 161.2C251.332 161.788 250.804 162.262 250.096 162.622C249.4 162.97 248.512 163.144 247.432 163.144ZM255.824 163V151.12L256.598 151.966H252.98V150.4H257.606V163H255.824ZM265.51 163.144C264.526 163.144 263.644 162.892 262.864 162.388C262.096 161.884 261.484 161.152 261.028 160.192C260.584 159.232 260.362 158.068 260.362 156.7C260.362 155.332 260.584 154.168 261.028 153.208C261.484 152.248 262.096 151.516 262.864 151.012C263.644 150.508 264.526 150.256 265.51 150.256C266.482 150.256 267.358 150.508 268.138 151.012C268.918 151.516 269.53 152.248 269.974 153.208C270.418 154.168 270.64 155.332 270.64 156.7C270.64 158.068 270.418 159.232 269.974 160.192C269.53 161.152 268.918 161.884 268.138 162.388C267.358 162.892 266.482 163.144 265.51 163.144ZM265.51 161.542C266.17 161.542 266.746 161.362 267.238 161.002C267.742 160.642 268.132 160.102 268.408 159.382C268.696 158.662 268.84 157.768 268.84 156.7C268.84 155.632 268.696 154.738 268.408 154.018C268.132 153.298 267.742 152.758 267.238 152.398C266.746 152.038 266.17 151.858 265.51 151.858C264.85 151.858 264.268 152.038 263.764 152.398C263.26 152.758 262.864 153.298 262.576 154.018C262.3 154.738 262.162 155.632 262.162 156.7C262.162 157.768 262.3 158.662 262.576 159.382C262.864 160.102 263.26 160.642 263.764 161.002C264.268 161.362 264.85 161.542 265.51 161.542Z" fill="#454545"/>
<rect x="205" y="129" width="105" height="56" stroke="#DDDDE6" stroke-width="2"/>
<rect x="310" y="129" width="100" height="56" fill="white"/>
<path d="M344.5 147L347.474 152.906L354.011 153.91L349.312 158.564L350.378 165.09L344.5 162.06L338.622 165.09L339.688 158.564L334.989 153.91L341.526 152.906L344.5 147Z" fill="#F28100"/>
<path d="M358.184 159.904V158.644L364.628 150.4H366.572L360.182 158.644L359.264 158.356H369.326V159.904H358.184ZM365.186 163V159.904L365.24 158.356V155.62H366.932V163H365.186ZM371.945 163.108C371.609 163.108 371.321 162.994 371.081 162.766C370.841 162.526 370.721 162.226 370.721 161.866C370.721 161.506 370.841 161.212 371.081 160.984C371.321 160.756 371.609 160.642 371.945 160.642C372.269 160.642 372.545 160.756 372.773 160.984C373.013 161.212 373.133 161.506 373.133 161.866C373.133 162.226 373.013 162.526 372.773 162.766C372.545 162.994 372.269 163.108 371.945 163.108ZM379.916 163.144C378.8 163.144 377.846 162.898 377.054 162.406C376.262 161.914 375.656 161.206 375.236 160.282C374.828 159.346 374.624 158.206 374.624 156.862C374.624 155.434 374.876 154.228 375.38 153.244C375.884 152.26 376.586 151.516 377.486 151.012C378.386 150.508 379.418 150.256 380.582 150.256C381.182 150.256 381.752 150.316 382.292 150.436C382.844 150.556 383.318 150.742 383.714 150.994L383.03 152.398C382.706 152.17 382.334 152.014 381.914 151.93C381.506 151.846 381.074 151.804 380.618 151.804C379.334 151.804 378.314 152.206 377.558 153.01C376.802 153.802 376.424 154.984 376.424 156.556C376.424 156.808 376.436 157.108 376.46 157.456C376.484 157.804 376.544 158.146 376.64 158.482L376.028 157.87C376.208 157.318 376.49 156.856 376.874 156.484C377.27 156.1 377.738 155.818 378.278 155.638C378.83 155.446 379.424 155.35 380.06 155.35C380.9 155.35 381.644 155.506 382.292 155.818C382.94 156.13 383.45 156.574 383.822 157.15C384.194 157.714 384.38 158.386 384.38 159.166C384.38 159.97 384.182 160.672 383.786 161.272C383.39 161.872 382.856 162.334 382.184 162.658C381.512 162.982 380.756 163.144 379.916 163.144ZM379.844 161.686C380.396 161.686 380.876 161.584 381.284 161.38C381.704 161.176 382.034 160.894 382.274 160.534C382.514 160.162 382.634 159.73 382.634 159.238C382.634 158.494 382.376 157.906 381.86 157.474C381.344 157.03 380.642 156.808 379.754 156.808C379.178 156.808 378.674 156.916 378.242 157.132C377.81 157.348 377.468 157.642 377.216 158.014C376.976 158.374 376.856 158.788 376.856 159.256C376.856 159.688 376.97 160.09 377.198 160.462C377.426 160.822 377.762 161.116 378.206 161.344C378.65 161.572 379.196 161.686 379.844 161.686Z" fill="#454545"/>
<rect x="310" y="129" width="100" height="56" stroke="#DDDDE6" stroke-width="2"/>
<rect x="410" y="129" width="181" height="56" fill="white"/>
<g clip-path="url(#clip5_122_873)">
<rect x="455.5" y="154.5" width="90" height="5" rx="2.5" fill="#DDDDE6"/>
<rect x="455.375" y="155" width="70" height="5" rx="2.5" fill="#80DA39"/>
</g>
<rect x="410" y="129" width="181" height="56" stroke="#DDDDE6" stroke-width="2"/>
</g>
<rect x="24" y="129" width="567" height="56" stroke="#DDDDE6" stroke-width="2"/>
<g clip-path="url(#clip6_122_873)">
<rect x="24" y="185" width="181" height="57" fill="white"/>
<path d="M46.524 219.608C45.576 219.608 44.7 219.452 43.896 219.14C43.092 218.816 42.396 218.366 41.808 217.79C41.22 217.214 40.758 216.536 40.422 215.756C40.098 214.976 39.936 214.124 39.936 213.2C39.936 212.276 40.098 211.424 40.422 210.644C40.758 209.864 41.22 209.186 41.808 208.61C42.408 208.034 43.11 207.59 43.914 207.278C44.718 206.954 45.594 206.792 46.542 206.792C47.454 206.792 48.312 206.948 49.116 207.26C49.92 207.56 50.598 208.016 51.15 208.628L50.304 209.474C49.788 208.946 49.218 208.568 48.594 208.34C47.97 208.1 47.298 207.98 46.578 207.98C45.822 207.98 45.12 208.112 44.472 208.376C43.824 208.628 43.26 208.994 42.78 209.474C42.3 209.942 41.922 210.494 41.646 211.13C41.382 211.754 41.25 212.444 41.25 213.2C41.25 213.956 41.382 214.652 41.646 215.288C41.922 215.912 42.3 216.464 42.78 216.944C43.26 217.412 43.824 217.778 44.472 218.042C45.12 218.294 45.822 218.42 46.578 218.42C47.298 218.42 47.97 218.3 48.594 218.06C49.218 217.82 49.788 217.436 50.304 216.908L51.15 217.754C50.598 218.366 49.92 218.828 49.116 219.14C48.312 219.452 47.448 219.608 46.524 219.608ZM57.1496 219.59C56.2376 219.59 55.4156 219.386 54.6836 218.978C53.9636 218.558 53.3936 217.988 52.9736 217.268C52.5536 216.536 52.3436 215.702 52.3436 214.766C52.3436 213.818 52.5536 212.984 52.9736 212.264C53.3936 211.544 53.9636 210.98 54.6836 210.572C55.4036 210.164 56.2256 209.96 57.1496 209.96C58.0856 209.96 58.9136 210.164 59.6336 210.572C60.3656 210.98 60.9356 211.544 61.3436 212.264C61.7636 212.984 61.9736 213.818 61.9736 214.766C61.9736 215.702 61.7636 216.536 61.3436 217.268C60.9356 217.988 60.3656 218.558 59.6336 218.978C58.9016 219.386 58.0736 219.59 57.1496 219.59ZM57.1496 218.456C57.8336 218.456 58.4396 218.306 58.9676 218.006C59.4956 217.694 59.9096 217.262 60.2096 216.71C60.5216 216.146 60.6776 215.498 60.6776 214.766C60.6776 214.022 60.5216 213.374 60.2096 212.822C59.9096 212.27 59.4956 211.844 58.9676 211.544C58.4396 211.232 57.8396 211.076 57.1676 211.076C56.4956 211.076 55.8956 211.232 55.3676 211.544C54.8396 211.844 54.4196 212.27 54.1076 212.822C53.7956 213.374 53.6396 214.022 53.6396 214.766C53.6396 215.498 53.7956 216.146 54.1076 216.71C54.4196 217.262 54.8396 217.694 55.3676 218.006C55.8956 218.306 56.4896 218.456 57.1496 218.456ZM76.3908 209.96C77.1588 209.96 77.8248 210.11 78.3888 210.41C78.9648 210.698 79.4088 211.142 79.7208 211.742C80.0448 212.342 80.2068 213.098 80.2068 214.01V219.5H78.9288V214.136C78.9288 213.14 78.6888 212.39 78.2088 211.886C77.7408 211.37 77.0748 211.112 76.2108 211.112C75.5628 211.112 74.9988 211.25 74.5188 211.526C74.0508 211.79 73.6848 212.18 73.4208 212.696C73.1688 213.2 73.0428 213.812 73.0428 214.532V219.5H71.7648V214.136C71.7648 213.14 71.5248 212.39 71.0448 211.886C70.5648 211.37 69.8928 211.112 69.0288 211.112C68.3928 211.112 67.8348 211.25 67.3548 211.526C66.8748 211.79 66.5028 212.18 66.2388 212.696C65.9868 213.2 65.8608 213.812 65.8608 214.532V219.5H64.5828V210.05H65.8068V212.606L65.6088 212.156C65.8968 211.472 66.3588 210.938 66.9948 210.554C67.6428 210.158 68.4048 209.96 69.2808 209.96C70.2048 209.96 70.9908 210.194 71.6388 210.662C72.2868 211.118 72.7068 211.808 72.8988 212.732L72.3948 212.534C72.6708 211.766 73.1568 211.148 73.8528 210.68C74.5608 210.2 75.4068 209.96 76.3908 209.96ZM88.5506 219.59C87.7346 219.59 86.9966 219.404 86.3366 219.032C85.6766 218.648 85.1486 218.102 84.7526 217.394C84.3686 216.674 84.1766 215.798 84.1766 214.766C84.1766 213.734 84.3686 212.864 84.7526 212.156C85.1366 211.436 85.6586 210.89 86.3186 210.518C86.9786 210.146 87.7226 209.96 88.5506 209.96C89.4506 209.96 90.2546 210.164 90.9626 210.572C91.6826 210.968 92.2466 211.532 92.6546 212.264C93.0626 212.984 93.2666 213.818 93.2666 214.766C93.2666 215.726 93.0626 216.566 92.6546 217.286C92.2466 218.006 91.6826 218.57 90.9626 218.978C90.2546 219.386 89.4506 219.59 88.5506 219.59ZM83.6726 222.992V210.05H84.8966V212.894L84.7706 214.784L84.9506 216.692V222.992H83.6726ZM88.4606 218.456C89.1326 218.456 89.7326 218.306 90.2606 218.006C90.7886 217.694 91.2086 217.262 91.5206 216.71C91.8326 216.146 91.9886 215.498 91.9886 214.766C91.9886 214.034 91.8326 213.392 91.5206 212.84C91.2086 212.288 90.7886 211.856 90.2606 211.544C89.7326 211.232 89.1326 211.076 88.4606 211.076C87.7886 211.076 87.1826 211.232 86.6426 211.544C86.1146 211.856 85.6946 212.288 85.3826 212.84C85.0826 213.392 84.9326 214.034 84.9326 214.766C84.9326 215.498 85.0826 216.146 85.3826 216.71C85.6946 217.262 86.1146 217.694 86.6426 218.006C87.1826 218.306 87.7886 218.456 88.4606 218.456ZM99.8858 219.59C98.9018 219.59 98.0378 219.386 97.2938 218.978C96.5498 218.558 95.9678 217.988 95.5478 217.268C95.1278 216.536 94.9178 215.702 94.9178 214.766C94.9178 213.83 95.1158 213.002 95.5118 212.282C95.9198 211.562 96.4718 210.998 97.1678 210.59C97.8758 210.17 98.6678 209.96 99.5438 209.96C100.432 209.96 101.218 210.164 101.902 210.572C102.598 210.968 103.144 211.532 103.54 212.264C103.936 212.984 104.134 213.818 104.134 214.766C104.134 214.826 104.128 214.892 104.116 214.964C104.116 215.024 104.116 215.09 104.116 215.162H95.8898V214.208H103.432L102.928 214.586C102.928 213.902 102.778 213.296 102.478 212.768C102.19 212.228 101.794 211.808 101.29 211.508C100.786 211.208 100.204 211.058 99.5438 211.058C98.8958 211.058 98.3138 211.208 97.7978 211.508C97.2818 211.808 96.8798 212.228 96.5918 212.768C96.3038 213.308 96.1598 213.926 96.1598 214.622V214.82C96.1598 215.54 96.3158 216.176 96.6278 216.728C96.9518 217.268 97.3958 217.694 97.9598 218.006C98.5358 218.306 99.1898 218.456 99.9218 218.456C100.498 218.456 101.032 218.354 101.524 218.15C102.028 217.946 102.46 217.634 102.82 217.214L103.54 218.042C103.12 218.546 102.592 218.93 101.956 219.194C101.332 219.458 100.642 219.59 99.8858 219.59ZM109.723 219.59C108.835 219.59 108.151 219.35 107.671 218.87C107.191 218.39 106.951 217.712 106.951 216.836V207.962H108.229V216.764C108.229 217.316 108.367 217.742 108.643 218.042C108.931 218.342 109.339 218.492 109.867 218.492C110.431 218.492 110.899 218.33 111.271 218.006L111.721 218.924C111.469 219.152 111.163 219.32 110.803 219.428C110.455 219.536 110.095 219.59 109.723 219.59ZM105.259 211.112V210.05H111.109V211.112H105.259ZM114.048 219.5V210.05H115.326V219.5H114.048ZM114.696 207.962C114.432 207.962 114.21 207.872 114.03 207.692C113.85 207.512 113.76 207.296 113.76 207.044C113.76 206.792 113.85 206.582 114.03 206.414C114.21 206.234 114.432 206.144 114.696 206.144C114.96 206.144 115.182 206.228 115.362 206.396C115.542 206.564 115.632 206.774 115.632 207.026C115.632 207.29 115.542 207.512 115.362 207.692C115.194 207.872 114.972 207.962 114.696 207.962ZM121.87 219.59C120.982 219.59 120.298 219.35 119.818 218.87C119.338 218.39 119.098 217.712 119.098 216.836V207.962H120.376V216.764C120.376 217.316 120.514 217.742 120.79 218.042C121.078 218.342 121.486 218.492 122.014 218.492C122.578 218.492 123.046 218.33 123.418 218.006L123.868 218.924C123.616 219.152 123.31 219.32 122.95 219.428C122.602 219.536 122.242 219.59 121.87 219.59ZM117.406 211.112V210.05H123.256V211.112H117.406ZM129.712 219.59C128.8 219.59 127.978 219.386 127.246 218.978C126.526 218.558 125.956 217.988 125.536 217.268C125.116 216.536 124.906 215.702 124.906 214.766C124.906 213.818 125.116 212.984 125.536 212.264C125.956 211.544 126.526 210.98 127.246 210.572C127.966 210.164 128.788 209.96 129.712 209.96C130.648 209.96 131.476 210.164 132.196 210.572C132.928 210.98 133.498 211.544 133.906 212.264C134.326 212.984 134.536 213.818 134.536 214.766C134.536 215.702 134.326 216.536 133.906 217.268C133.498 217.988 132.928 218.558 132.196 218.978C131.464 219.386 130.636 219.59 129.712 219.59ZM129.712 218.456C130.396 218.456 131.002 218.306 131.53 218.006C132.058 217.694 132.472 217.262 132.772 216.71C133.084 216.146 133.24 215.498 133.24 214.766C133.24 214.022 133.084 213.374 132.772 212.822C132.472 212.27 132.058 211.844 131.53 211.544C131.002 211.232 130.402 211.076 129.73 211.076C129.058 211.076 128.458 211.232 127.93 211.544C127.402 211.844 126.982 212.27 126.67 212.822C126.358 213.374 126.202 214.022 126.202 214.766C126.202 215.498 126.358 216.146 126.67 216.71C126.982 217.262 127.402 217.694 127.93 218.006C128.458 218.306 129.052 218.456 129.712 218.456ZM137.145 219.5V210.05H138.369V212.624L138.243 212.174C138.507 211.454 138.951 210.908 139.575 210.536C140.199 210.152 140.973 209.96 141.897 209.96V211.202C141.849 211.202 141.801 211.202 141.753 211.202C141.705 211.19 141.657 211.184 141.609 211.184C140.613 211.184 139.833 211.49 139.269 212.102C138.705 212.702 138.423 213.56 138.423 214.676V219.5H137.145ZM150.431 219.5V207.44L151.007 208.052H147.461V206.9H151.727V219.5H150.431Z" fill="#454545"/>
<rect x="24" y="185" width="181" height="57" stroke="#DDDDE6" stroke-width="2"/>
<rect x="205" y="185" width="105" height="57" fill="white"/>
<path d="M247.716 219.644C246.828 219.644 245.964 219.506 245.124 219.23C244.296 218.954 243.618 218.582 243.09 218.114L243.918 216.692C244.338 217.088 244.884 217.412 245.556 217.664C246.228 217.916 246.948 218.042 247.716 218.042C248.652 218.042 249.378 217.844 249.894 217.448C250.422 217.04 250.686 216.494 250.686 215.81C250.686 215.15 250.434 214.622 249.93 214.226C249.438 213.818 248.652 213.614 247.572 213.614H246.564V212.354L250.308 207.746L250.56 208.466H243.666V206.9H251.982V208.124L248.256 212.714L247.32 212.156H247.914C249.438 212.156 250.578 212.498 251.334 213.182C252.102 213.866 252.486 214.736 252.486 215.792C252.486 216.5 252.312 217.148 251.964 217.736C251.616 218.324 251.088 218.792 250.38 219.14C249.684 219.476 248.796 219.644 247.716 219.644ZM259.457 219.644C258.341 219.644 257.387 219.398 256.595 218.906C255.803 218.414 255.197 217.706 254.777 216.782C254.369 215.846 254.165 214.706 254.165 213.362C254.165 211.934 254.417 210.728 254.921 209.744C255.425 208.76 256.127 208.016 257.027 207.512C257.927 207.008 258.959 206.756 260.123 206.756C260.723 206.756 261.293 206.816 261.833 206.936C262.385 207.056 262.859 207.242 263.255 207.494L262.571 208.898C262.247 208.67 261.875 208.514 261.455 208.43C261.047 208.346 260.615 208.304 260.159 208.304C258.875 208.304 257.855 208.706 257.099 209.51C256.343 210.302 255.965 211.484 255.965 213.056C255.965 213.308 255.977 213.608 256.001 213.956C256.025 214.304 256.085 214.646 256.181 214.982L255.569 214.37C255.749 213.818 256.031 213.356 256.415 212.984C256.811 212.6 257.279 212.318 257.819 212.138C258.371 211.946 258.965 211.85 259.601 211.85C260.441 211.85 261.185 212.006 261.833 212.318C262.481 212.63 262.991 213.074 263.363 213.65C263.735 214.214 263.921 214.886 263.921 215.666C263.921 216.47 263.723 217.172 263.327 217.772C262.931 218.372 262.397 218.834 261.725 219.158C261.053 219.482 260.297 219.644 259.457 219.644ZM259.385 218.186C259.937 218.186 260.417 218.084 260.825 217.88C261.245 217.676 261.575 217.394 261.815 217.034C262.055 216.662 262.175 216.23 262.175 215.738C262.175 214.994 261.917 214.406 261.401 213.974C260.885 213.53 260.183 213.308 259.295 213.308C258.719 213.308 258.215 213.416 257.783 213.632C257.351 213.848 257.009 214.142 256.757 214.514C256.517 214.874 256.397 215.288 256.397 215.756C256.397 216.188 256.511 216.59 256.739 216.962C256.967 217.322 257.303 217.616 257.747 217.844C258.191 218.072 258.737 218.186 259.385 218.186ZM267.398 219.5V207.62L268.172 208.466H264.554V206.9H269.18V219.5H267.398Z" fill="#454545"/>
<rect x="205" y="185" width="105" height="57" stroke="#DDDDE6" stroke-width="2"/>
<rect x="310" y="185" width="100" height="57" fill="white"/>
<path d="M345 203.5L347.974 209.406L354.511 210.41L349.812 215.064L350.878 221.59L345 218.56L339.122 221.59L340.188 215.064L335.489 210.41L342.026 209.406L345 203.5Z" fill="#F28100"/>
<path d="M362.716 219.644C361.828 219.644 360.964 219.506 360.124 219.23C359.296 218.954 358.618 218.582 358.09 218.114L358.918 216.692C359.338 217.088 359.884 217.412 360.556 217.664C361.228 217.916 361.948 218.042 362.716 218.042C363.652 218.042 364.378 217.844 364.894 217.448C365.422 217.04 365.686 216.494 365.686 215.81C365.686 215.15 365.434 214.622 364.93 214.226C364.438 213.818 363.652 213.614 362.572 213.614H361.564V212.354L365.308 207.746L365.56 208.466H358.666V206.9H366.982V208.124L363.256 212.714L362.32 212.156H362.914C364.438 212.156 365.578 212.498 366.334 213.182C367.102 213.866 367.486 214.736 367.486 215.792C367.486 216.5 367.312 217.148 366.964 217.736C366.616 218.324 366.088 218.792 365.38 219.14C364.684 219.476 363.796 219.644 362.716 219.644ZM370.353 219.608C370.017 219.608 369.729 219.494 369.489 219.266C369.249 219.026 369.129 218.726 369.129 218.366C369.129 218.006 369.249 217.712 369.489 217.484C369.729 217.256 370.017 217.142 370.353 217.142C370.677 217.142 370.953 217.256 371.181 217.484C371.421 217.712 371.541 218.006 371.541 218.366C371.541 218.726 371.421 219.026 371.181 219.266C370.953 219.494 370.677 219.608 370.353 219.608ZM372.905 216.404V215.144L379.349 206.9H381.293L374.903 215.144L373.985 214.856H384.047V216.404H372.905ZM379.907 219.5V216.404L379.961 214.856V212.12H381.653V219.5H379.907Z" fill="#454545"/>
<rect x="310" y="185" width="100" height="57" stroke="#DDDDE6" stroke-width="2"/>
<rect x="410" y="185" width="181" height="57" fill="white"/>
<g clip-path="url(#clip7_122_873)">
<rect x="455.5" y="211" width="90" height="5" rx="2.5" fill="#DDDDE6"/>
<rect x="455.375" y="212" width="49" height="5" rx="2.5" fill="#F28100"/>
</g>
<rect x="410" y="185" width="181" height="57" stroke="#DDDDE6" stroke-width="2"/>
</g>
<rect x="24" y="185" width="567" height="57" stroke="#DDDDE6" stroke-width="2"/>
<g clip-path="url(#clip8_122_873)">
<rect x="24" y="242" width="181" height="56" fill="white"/>
<path d="M46.524 276.108C45.576 276.108 44.7 275.952 43.896 275.64C43.092 275.316 42.396 274.866 41.808 274.29C41.22 273.714 40.758 273.036 40.422 272.256C40.098 271.476 39.936 270.624 39.936 269.7C39.936 268.776 40.098 267.924 40.422 267.144C40.758 266.364 41.22 265.686 41.808 265.11C42.408 264.534 43.11 264.09 43.914 263.778C44.718 263.454 45.594 263.292 46.542 263.292C47.454 263.292 48.312 263.448 49.116 263.76C49.92 264.06 50.598 264.516 51.15 265.128L50.304 265.974C49.788 265.446 49.218 265.068 48.594 264.84C47.97 264.6 47.298 264.48 46.578 264.48C45.822 264.48 45.12 264.612 44.472 264.876C43.824 265.128 43.26 265.494 42.78 265.974C42.3 266.442 41.922 266.994 41.646 267.63C41.382 268.254 41.25 268.944 41.25 269.7C41.25 270.456 41.382 271.152 41.646 271.788C41.922 272.412 42.3 272.964 42.78 273.444C43.26 273.912 43.824 274.278 44.472 274.542C45.12 274.794 45.822 274.92 46.578 274.92C47.298 274.92 47.97 274.8 48.594 274.56C49.218 274.32 49.788 273.936 50.304 273.408L51.15 274.254C50.598 274.866 49.92 275.328 49.116 275.64C48.312 275.952 47.448 276.108 46.524 276.108ZM57.1496 276.09C56.2376 276.09 55.4156 275.886 54.6836 275.478C53.9636 275.058 53.3936 274.488 52.9736 273.768C52.5536 273.036 52.3436 272.202 52.3436 271.266C52.3436 270.318 52.5536 269.484 52.9736 268.764C53.3936 268.044 53.9636 267.48 54.6836 267.072C55.4036 266.664 56.2256 266.46 57.1496 266.46C58.0856 266.46 58.9136 266.664 59.6336 267.072C60.3656 267.48 60.9356 268.044 61.3436 268.764C61.7636 269.484 61.9736 270.318 61.9736 271.266C61.9736 272.202 61.7636 273.036 61.3436 273.768C60.9356 274.488 60.3656 275.058 59.6336 275.478C58.9016 275.886 58.0736 276.09 57.1496 276.09ZM57.1496 274.956C57.8336 274.956 58.4396 274.806 58.9676 274.506C59.4956 274.194 59.9096 273.762 60.2096 273.21C60.5216 272.646 60.6776 271.998 60.6776 271.266C60.6776 270.522 60.5216 269.874 60.2096 269.322C59.9096 268.77 59.4956 268.344 58.9676 268.044C58.4396 267.732 57.8396 267.576 57.1676 267.576C56.4956 267.576 55.8956 267.732 55.3676 268.044C54.8396 268.344 54.4196 268.77 54.1076 269.322C53.7956 269.874 53.6396 270.522 53.6396 271.266C53.6396 271.998 53.7956 272.646 54.1076 273.21C54.4196 273.762 54.8396 274.194 55.3676 274.506C55.8956 274.806 56.4896 274.956 57.1496 274.956ZM76.3908 266.46C77.1588 266.46 77.8248 266.61 78.3888 266.91C78.9648 267.198 79.4088 267.642 79.7208 268.242C80.0448 268.842 80.2068 269.598 80.2068 270.51V276H78.9288V270.636C78.9288 269.64 78.6888 268.89 78.2088 268.386C77.7408 267.87 77.0748 267.612 76.2108 267.612C75.5628 267.612 74.9988 267.75 74.5188 268.026C74.0508 268.29 73.6848 268.68 73.4208 269.196C73.1688 269.7 73.0428 270.312 73.0428 271.032V276H71.7648V270.636C71.7648 269.64 71.5248 268.89 71.0448 268.386C70.5648 267.87 69.8928 267.612 69.0288 267.612C68.3928 267.612 67.8348 267.75 67.3548 268.026C66.8748 268.29 66.5028 268.68 66.2388 269.196C65.9868 269.7 65.8608 270.312 65.8608 271.032V276H64.5828V266.55H65.8068V269.106L65.6088 268.656C65.8968 267.972 66.3588 267.438 66.9948 267.054C67.6428 266.658 68.4048 266.46 69.2808 266.46C70.2048 266.46 70.9908 266.694 71.6388 267.162C72.2868 267.618 72.7068 268.308 72.8988 269.232L72.3948 269.034C72.6708 268.266 73.1568 267.648 73.8528 267.18C74.5608 266.7 75.4068 266.46 76.3908 266.46ZM88.5506 276.09C87.7346 276.09 86.9966 275.904 86.3366 275.532C85.6766 275.148 85.1486 274.602 84.7526 273.894C84.3686 273.174 84.1766 272.298 84.1766 271.266C84.1766 270.234 84.3686 269.364 84.7526 268.656C85.1366 267.936 85.6586 267.39 86.3186 267.018C86.9786 266.646 87.7226 266.46 88.5506 266.46C89.4506 266.46 90.2546 266.664 90.9626 267.072C91.6826 267.468 92.2466 268.032 92.6546 268.764C93.0626 269.484 93.2666 270.318 93.2666 271.266C93.2666 272.226 93.0626 273.066 92.6546 273.786C92.2466 274.506 91.6826 275.07 90.9626 275.478C90.2546 275.886 89.4506 276.09 88.5506 276.09ZM83.6726 279.492V266.55H84.8966V269.394L84.7706 271.284L84.9506 273.192V279.492H83.6726ZM88.4606 274.956C89.1326 274.956 89.7326 274.806 90.2606 274.506C90.7886 274.194 91.2086 273.762 91.5206 273.21C91.8326 272.646 91.9886 271.998 91.9886 271.266C91.9886 270.534 91.8326 269.892 91.5206 269.34C91.2086 268.788 90.7886 268.356 90.2606 268.044C89.7326 267.732 89.1326 267.576 88.4606 267.576C87.7886 267.576 87.1826 267.732 86.6426 268.044C86.1146 268.356 85.6946 268.788 85.3826 269.34C85.0826 269.892 84.9326 270.534 84.9326 271.266C84.9326 271.998 85.0826 272.646 85.3826 273.21C85.6946 273.762 86.1146 274.194 86.6426 274.506C87.1826 274.806 87.7886 274.956 88.4606 274.956ZM99.8858 276.09C98.9018 276.09 98.0378 275.886 97.2938 275.478C96.5498 275.058 95.9678 274.488 95.5478 273.768C95.1278 273.036 94.9178 272.202 94.9178 271.266C94.9178 270.33 95.1158 269.502 95.5118 268.782C95.9198 268.062 96.4718 267.498 97.1678 267.09C97.8758 266.67 98.6678 266.46 99.5438 266.46C100.432 266.46 101.218 266.664 101.902 267.072C102.598 267.468 103.144 268.032 103.54 268.764C103.936 269.484 104.134 270.318 104.134 271.266C104.134 271.326 104.128 271.392 104.116 271.464C104.116 271.524 104.116 271.59 104.116 271.662H95.8898V270.708H103.432L102.928 271.086C102.928 270.402 102.778 269.796 102.478 269.268C102.19 268.728 101.794 268.308 101.29 268.008C100.786 267.708 100.204 267.558 99.5438 267.558C98.8958 267.558 98.3138 267.708 97.7978 268.008C97.2818 268.308 96.8798 268.728 96.5918 269.268C96.3038 269.808 96.1598 270.426 96.1598 271.122V271.32C96.1598 272.04 96.3158 272.676 96.6278 273.228C96.9518 273.768 97.3958 274.194 97.9598 274.506C98.5358 274.806 99.1898 274.956 99.9218 274.956C100.498 274.956 101.032 274.854 101.524 274.65C102.028 274.446 102.46 274.134 102.82 273.714L103.54 274.542C103.12 275.046 102.592 275.43 101.956 275.694C101.332 275.958 100.642 276.09 99.8858 276.09ZM109.723 276.09C108.835 276.09 108.151 275.85 107.671 275.37C107.191 274.89 106.951 274.212 106.951 273.336V264.462H108.229V273.264C108.229 273.816 108.367 274.242 108.643 274.542C108.931 274.842 109.339 274.992 109.867 274.992C110.431 274.992 110.899 274.83 111.271 274.506L111.721 275.424C111.469 275.652 111.163 275.82 110.803 275.928C110.455 276.036 110.095 276.09 109.723 276.09ZM105.259 267.612V266.55H111.109V267.612H105.259ZM114.048 276V266.55H115.326V276H114.048ZM114.696 264.462C114.432 264.462 114.21 264.372 114.03 264.192C113.85 264.012 113.76 263.796 113.76 263.544C113.76 263.292 113.85 263.082 114.03 262.914C114.21 262.734 114.432 262.644 114.696 262.644C114.96 262.644 115.182 262.728 115.362 262.896C115.542 263.064 115.632 263.274 115.632 263.526C115.632 263.79 115.542 264.012 115.362 264.192C115.194 264.372 114.972 264.462 114.696 264.462ZM121.87 276.09C120.982 276.09 120.298 275.85 119.818 275.37C119.338 274.89 119.098 274.212 119.098 273.336V264.462H120.376V273.264C120.376 273.816 120.514 274.242 120.79 274.542C121.078 274.842 121.486 274.992 122.014 274.992C122.578 274.992 123.046 274.83 123.418 274.506L123.868 275.424C123.616 275.652 123.31 275.82 122.95 275.928C122.602 276.036 122.242 276.09 121.87 276.09ZM117.406 267.612V266.55H123.256V267.612H117.406ZM129.712 276.09C128.8 276.09 127.978 275.886 127.246 275.478C126.526 275.058 125.956 274.488 125.536 273.768C125.116 273.036 124.906 272.202 124.906 271.266C124.906 270.318 125.116 269.484 125.536 268.764C125.956 268.044 126.526 267.48 127.246 267.072C127.966 266.664 128.788 266.46 129.712 266.46C130.648 266.46 131.476 266.664 132.196 267.072C132.928 267.48 133.498 268.044 133.906 268.764C134.326 269.484 134.536 270.318 134.536 271.266C134.536 272.202 134.326 273.036 133.906 273.768C133.498 274.488 132.928 275.058 132.196 275.478C131.464 275.886 130.636 276.09 129.712 276.09ZM129.712 274.956C130.396 274.956 131.002 274.806 131.53 274.506C132.058 274.194 132.472 273.762 132.772 273.21C133.084 272.646 133.24 271.998 133.24 271.266C133.24 270.522 133.084 269.874 132.772 269.322C132.472 268.77 132.058 268.344 131.53 268.044C131.002 267.732 130.402 267.576 129.73 267.576C129.058 267.576 128.458 267.732 127.93 268.044C127.402 268.344 126.982 268.77 126.67 269.322C126.358 269.874 126.202 270.522 126.202 271.266C126.202 271.998 126.358 272.646 126.67 273.21C126.982 273.762 127.402 274.194 127.93 274.506C128.458 274.806 129.052 274.956 129.712 274.956ZM137.145 276V266.55H138.369V269.124L138.243 268.674C138.507 267.954 138.951 267.408 139.575 267.036C140.199 266.652 140.973 266.46 141.897 266.46V267.702C141.849 267.702 141.801 267.702 141.753 267.702C141.705 267.69 141.657 267.684 141.609 267.684C140.613 267.684 139.833 267.99 139.269 268.602C138.705 269.202 138.423 270.06 138.423 271.176V276H137.145ZM148.001 276V275.082L153.239 269.952C153.719 269.484 154.079 269.076 154.319 268.728C154.559 268.368 154.721 268.032 154.805 267.72C154.889 267.408 154.931 267.114 154.931 266.838C154.931 266.106 154.679 265.53 154.175 265.11C153.683 264.69 152.951 264.48 151.979 264.48C151.235 264.48 150.575 264.594 149.999 264.822C149.435 265.05 148.949 265.404 148.541 265.884L147.623 265.092C148.115 264.516 148.745 264.072 149.513 263.76C150.281 263.448 151.139 263.292 152.087 263.292C152.939 263.292 153.677 263.43 154.301 263.706C154.925 263.97 155.405 264.36 155.741 264.876C156.089 265.392 156.263 265.998 156.263 266.694C156.263 267.102 156.203 267.504 156.083 267.9C155.975 268.296 155.771 268.716 155.471 269.16C155.183 269.592 154.757 270.084 154.193 270.636L149.387 275.352L149.027 274.848H156.839V276H148.001Z" fill="#454545"/>
<rect x="24" y="242" width="181" height="56" stroke="#DDDDE6" stroke-width="2"/>
<rect x="205" y="242" width="105" height="56" fill="white"/>
<path d="M241.684 272.904V271.644L248.128 263.4H250.072L243.682 271.644L242.764 271.356H252.826V272.904H241.684ZM248.686 276V272.904L248.74 271.356V268.62H250.432V276H248.686ZM257.546 276.144C256.658 276.144 255.794 276.006 254.954 275.73C254.126 275.454 253.448 275.082 252.92 274.614L253.748 273.192C254.168 273.588 254.714 273.912 255.386 274.164C256.058 274.416 256.778 274.542 257.546 274.542C258.482 274.542 259.208 274.344 259.724 273.948C260.252 273.54 260.516 272.994 260.516 272.31C260.516 271.65 260.264 271.122 259.76 270.726C259.268 270.318 258.482 270.114 257.402 270.114H256.394V268.854L260.138 264.246L260.39 264.966H253.496V263.4H261.812V264.624L258.086 269.214L257.15 268.656H257.744C259.268 268.656 260.408 268.998 261.164 269.682C261.932 270.366 262.316 271.236 262.316 272.292C262.316 273 262.142 273.648 261.794 274.236C261.446 274.824 260.918 275.292 260.21 275.64C259.514 275.976 258.626 276.144 257.546 276.144ZM263.709 276V274.776L268.839 269.826C269.295 269.394 269.631 269.016 269.847 268.692C270.075 268.356 270.225 268.05 270.297 267.774C270.381 267.486 270.423 267.21 270.423 266.946C270.423 266.298 270.195 265.788 269.739 265.416C269.283 265.044 268.617 264.858 267.741 264.858C267.069 264.858 266.463 264.972 265.923 265.2C265.383 265.416 264.915 265.758 264.519 266.226L263.295 265.164C263.775 264.552 264.417 264.084 265.221 263.76C266.037 263.424 266.931 263.256 267.903 263.256C268.779 263.256 269.541 263.4 270.189 263.688C270.837 263.964 271.335 264.366 271.683 264.894C272.043 265.422 272.223 266.046 272.223 266.766C272.223 267.174 272.169 267.576 272.061 267.972C271.953 268.368 271.749 268.788 271.449 269.232C271.149 269.676 270.717 270.174 270.153 270.726L265.581 275.136L265.149 274.434H272.763V276H263.709Z" fill="#454545"/>
<rect x="205" y="242" width="105" height="56" stroke="#DDDDE6" stroke-width="2"/>
<rect x="310" y="242" width="100" height="56" fill="white"/>
<path d="M347.5 260L350.474 265.906L357.011 266.91L352.312 271.564L353.378 278.09L347.5 275.06L341.622 278.09L342.688 271.564L337.989 266.91L344.526 265.906L347.5 260Z" fill="#F28100"/>
<path d="M361.166 276V274.776L366.296 269.826C366.752 269.394 367.088 269.016 367.304 268.692C367.532 268.356 367.682 268.05 367.754 267.774C367.838 267.486 367.88 267.21 367.88 266.946C367.88 266.298 367.652 265.788 367.196 265.416C366.74 265.044 366.074 264.858 365.198 264.858C364.526 264.858 363.92 264.972 363.38 265.2C362.84 265.416 362.372 265.758 361.976 266.226L360.752 265.164C361.232 264.552 361.874 264.084 362.678 263.76C363.494 263.424 364.388 263.256 365.36 263.256C366.236 263.256 366.998 263.4 367.646 263.688C368.294 263.964 368.792 264.366 369.14 264.894C369.5 265.422 369.68 266.046 369.68 266.766C369.68 267.174 369.626 267.576 369.518 267.972C369.41 268.368 369.206 268.788 368.906 269.232C368.606 269.676 368.174 270.174 367.61 270.726L363.038 275.136L362.606 274.434H370.22V276H361.166ZM373.064 276.108C372.728 276.108 372.44 275.994 372.2 275.766C371.96 275.526 371.84 275.226 371.84 274.866C371.84 274.506 371.96 274.212 372.2 273.984C372.44 273.756 372.728 273.642 373.064 273.642C373.388 273.642 373.664 273.756 373.892 273.984C374.132 274.212 374.252 274.506 374.252 274.866C374.252 275.226 374.132 275.526 373.892 275.766C373.664 275.994 373.388 276.108 373.064 276.108ZM377.849 276V264.12L378.623 264.966H375.005V263.4H379.631V276H377.849Z" fill="#454545"/>
<rect x="310" y="242" width="100" height="56" stroke="#DDDDE6" stroke-width="2"/>
<rect x="410" y="242" width="181" height="56" fill="white"/>
<g clip-path="url(#clip9_122_873)">
<rect x="455.5" y="267.5" width="90" height="5" rx="2.5" fill="#DDDDE6"/>
<rect x="455.375" y="269" width="15" height="5" rx="2.5" fill="#F82C2C"/>
</g>
<rect x="410" y="242" width="181" height="56" stroke="#DDDDE6" stroke-width="2"/>
</g>
<rect x="24" y="242" width="567" height="56" stroke="#DDDDE6" stroke-width="2"/>
</g>
<rect x="24" y="25" width="567" height="273" rx="15" stroke="#DDDDE6" stroke-width="2"/>
<defs>
<clipPath id="clip0_122_873">
<rect x="24" y="25" width="567" height="273" rx="15" fill="white"/>
</clipPath>
<clipPath id="clip1_122_873">
<rect width="567" height="48" fill="white" transform="translate(24 25)"/>
</clipPath>
<clipPath id="clip2_122_873">
<rect x="24" y="73" width="567" height="56" fill="white"/>
</clipPath>
<clipPath id="clip3_122_873">
<rect x="455.5" y="98.5" width="90" height="5" rx="2.5" fill="white"/>
</clipPath>
<clipPath id="clip4_122_873">
<rect x="24" y="129" width="567" height="56" fill="white"/>
</clipPath>
<clipPath id="clip5_122_873">
<rect x="455.5" y="154.5" width="90" height="5" rx="2.5" fill="white"/>
</clipPath>
<clipPath id="clip6_122_873">
<rect x="24" y="185" width="567" height="57" fill="white"/>
</clipPath>
<clipPath id="clip7_122_873">
<rect x="455.5" y="211" width="90" height="5" rx="2.5" fill="white"/>
</clipPath>
<clipPath id="clip8_122_873">
<rect x="24" y="242" width="567" height="56" fill="white"/>
</clipPath>
<clipPath id="clip9_122_873">
<rect x="455.5" y="267.5" width="90" height="5" rx="2.5" fill="white"/>
</clipPath>
</defs>
</svg>
