<svg width="80" height="80" viewBox="0 0 80 80" fill="none" xmlns="http://www.w3.org/2000/svg">
<path d="M79.6805 70.8678C80.1227 70.2923 80.1041 69.4644 79.6359 68.9089L76.2012 64.8428C75.6443 64.1833 74.6583 64.1005 73.9992 64.6574C73.3401 65.2143 73.2569 66.2002 73.8139 66.8594L75.0769 68.3547H68.0274V55.1689C68.0274 54.3059 67.3278 53.6063 66.4648 53.6063C65.6018 53.6063 64.9022 54.3059 64.9022 55.1689V68.3549H58.0781V30.3408H64.9022V41.1757C64.9022 42.0387 65.6018 42.7383 66.4648 42.7383C67.3278 42.7383 68.0274 42.0387 68.0274 41.1757V28.7782C68.0274 27.9152 67.3278 27.2156 66.4648 27.2156H56.5155C55.6524 27.2156 54.9529 27.9152 54.9529 28.7782V68.3547H48.3521V35.8344C48.3521 34.9714 47.6526 34.2718 46.7896 34.2718H36.6225C35.7595 34.2718 35.0599 34.9714 35.0599 35.8344V68.3549H29.0275V35.8344C29.0275 34.9714 28.328 34.2718 27.4649 34.2718H17.0695C16.2065 34.2718 15.5069 34.9714 15.5069 35.8344V68.3549H9.37682V6.30828L10.8721 7.57132C11.5313 8.12823 12.5172 8.04526 13.0741 7.386C13.631 6.72674 13.548 5.7409 12.8888 5.18399L8.82257 1.74909C8.24909 1.26625 7.3792 1.26625 6.80588 1.74909L2.73954 5.18399C2.08028 5.7409 1.99731 6.72674 2.55422 7.386C3.10269 8.03541 4.10587 8.12073 4.75623 7.57132L6.25147 6.30828V68.3547H1.56259C0.699574 68.3547 0 69.0543 0 69.9173C0 70.7803 0.699574 71.4799 1.56259 71.4799H6.25163V77.0502C6.25163 77.9132 6.9512 78.6128 7.81422 78.6128C8.67725 78.6128 9.37682 77.9132 9.37682 77.0502V71.4799H75.0769L73.8139 72.9751C73.2569 73.6344 73.3399 74.6202 73.9992 75.1771C74.6498 75.7267 75.6521 75.6419 76.2012 74.9918L79.6359 70.9256C79.6508 70.9064 79.6656 70.8872 79.6805 70.8678ZM18.6321 68.3547V37.397H25.9024V68.3549H18.6321V68.3547ZM38.1851 68.3547V37.397H45.2268V68.3549H38.1851V68.3547Z" fill="#0FA7F0"/>
<path d="M16.2878 27.5781H35.2108C35.7916 27.5781 36.3791 27.5648 36.9546 27.5388C46.3447 27.1274 55.2139 23.4281 62.099 17.0838L65.3062 20.2923C66.268 21.2541 67.9739 20.5492 67.9739 19.1875V5.07872C67.9739 4.21711 67.2765 3.51816 66.4149 3.51613L52.2745 3.48316C50.9125 3.47972 50.2015 5.18623 51.1658 6.15066L54.3343 9.31898C49.4182 13.9694 43.7571 17.6384 37.4844 20.2365C30.7299 23.0342 23.5982 24.4529 16.2875 24.4529C15.4244 24.4529 14.7249 25.1524 14.7249 26.0155C14.7249 26.8785 15.4247 27.5781 16.2878 27.5781ZM38.6807 23.1239C45.8163 20.1682 52.2034 15.9005 57.6646 10.4394C58.2664 9.83745 58.2664 8.83145 57.6646 8.22938L56.0524 6.6171L64.8488 6.63757V15.4142L63.2278 13.7927C62.6184 13.183 61.6304 13.182 61.0199 13.7903C54.5434 20.2428 45.9483 24.0166 36.8157 24.4168C36.2849 24.4408 35.7449 24.4529 35.2108 24.4529H35.1603C36.3438 24.0486 37.5175 23.6056 38.6807 23.1239Z" fill="#0FA7F0"/>
<path d="M67.9077 47.4628C67.6515 46.8479 67.0153 46.4529 66.3501 46.5028C65.6722 46.5535 65.0908 47.0545 64.9409 47.7178C64.6326 49.0829 66.219 50.1382 67.3642 49.3379C67.9581 48.9229 68.1814 48.1307 67.9077 47.4628Z" fill="#0FA7F0"/>
</svg>
