<svg width="80" height="80" viewBox="0 0 80 80" fill="none" xmlns="http://www.w3.org/2000/svg">
<g clip-path="url(#clip0_88_6140)">
<path d="M75.2686 3.92163H55.0233C52.4144 3.92163 50.2917 6.04413 50.2917 8.65304V21.7044C50.2917 21.9663 50.2752 22.2255 50.2458 22.4819C44.9192 17.9213 38.0066 15.1623 30.4609 15.1623C17.7234 15.1623 6.01531 23.3902 1.74891 35.4024C0.585781 38.6773 0 42.1488 0 45.6232C0 59.4763 9.72969 71.9144 23.2009 75.2094C24.0395 75.4141 24.8848 74.9012 25.09 74.0629C25.295 73.2246 24.7817 72.379 23.9434 72.1738C11.8542 69.2171 3.125 58.0527 3.125 45.6232C3.125 38.8448 5.57687 32.444 10.0586 27.4305L18.4858 35.8565C16.2339 38.6074 15.0094 42.0213 15.0094 45.6233C15.0094 54.1424 21.9409 61.0733 30.4609 61.0733C38.4534 61.0733 45.048 54.974 45.8339 47.1858H57.7525C57.4378 52.8691 55.4067 58.1951 51.828 62.6724C48.0366 67.4159 42.7159 70.8018 36.8461 72.2063C36.0069 72.4071 35.4892 73.2504 35.6902 74.0896C35.8617 74.8066 36.5022 75.2888 37.2084 75.2888C37.3288 75.2888 37.4511 75.2748 37.5733 75.2455C44.1162 73.6799 50.0456 69.9077 54.2691 64.6235C58.6213 59.1782 60.9219 52.608 60.9219 45.6233C60.9219 37.674 57.8597 30.4273 52.8547 24.9976C53.2237 23.9541 53.4167 22.8443 53.4167 21.7048V20.1835C53.9186 20.3652 54.4595 20.4648 55.0233 20.4648H75.2686C77.8775 20.4648 80 18.3423 80 15.7332V8.65304C80 6.04413 77.8775 3.92163 75.2686 3.92163ZM51.4891 28.1766C55.203 32.6458 57.4223 38.2577 57.7511 44.0607H45.8339C45.105 36.8635 39.2205 30.9788 32.0233 30.2501V18.3329C38.3408 18.6909 44.4148 21.2929 49.0486 25.5993C48.8322 25.9024 48.5908 26.1908 48.322 26.4596L45.995 28.7865C45.3848 29.3966 45.3847 30.386 45.995 30.9962C46.5972 31.5984 47.6025 31.5985 48.2047 30.9962L50.5317 28.6693C50.7833 28.4177 51.0183 28.154 51.2388 27.881C51.3228 27.9793 51.4062 28.0777 51.4891 28.1766ZM21.6159 32.949C21.3008 33.1693 20.993 33.4029 20.6953 33.6465L12.2684 25.2207C16.8539 21.1208 22.7586 18.6771 28.8984 18.3326V30.2491C26.2902 30.5084 23.7625 31.4441 21.6159 32.949ZM30.4609 57.9482C23.6641 57.9482 18.1344 52.4193 18.1344 45.6232C18.1344 38.9019 23.7377 33.2966 30.4609 33.2966C37.2578 33.2966 42.7875 38.8263 42.7875 45.6232C42.7875 52.4191 37.2578 57.9482 30.4609 57.9482ZM76.875 15.733C76.875 16.6188 76.1544 17.3396 75.2686 17.3396H55.0233C54.1375 17.3396 53.4167 16.619 53.4167 15.733V8.65304C53.4167 7.76726 54.1373 7.04663 55.0233 7.04663H75.2686C76.1544 7.04663 76.875 7.76726 76.875 8.65304V15.733Z" fill="#0FA7F0"/>
<path d="M71.7917 10.5994H59.1369C58.2739 10.5994 57.5744 11.2989 57.5744 12.1619C57.5744 13.0248 58.2739 13.7244 59.1369 13.7244H71.7917C72.6547 13.7244 73.3542 13.0248 73.3542 12.1619C73.3542 11.2989 72.6547 10.5994 71.7917 10.5994Z" fill="#0FA7F0"/>
<path d="M31.9026 73.9224C31.3649 72.632 29.4668 72.6766 28.9904 73.9935C28.7646 74.6174 28.9746 75.3451 29.4995 75.7518C30.0078 76.1456 30.7195 76.187 31.2699 75.8554C31.922 75.4627 32.1949 74.6242 31.9026 73.9224Z" fill="#0FA7F0"/>
</g>
<defs>
<clipPath id="clip0_88_6140">
<rect width="80" height="80" fill="white"/>
</clipPath>
</defs>
</svg>
