<svg width="64" height="80" viewBox="0 0 64 80" fill="none" xmlns="http://www.w3.org/2000/svg">
<path d="M59.6027 23.8297H52.0685C52.0946 23.8128 52.1185 23.7934 52.1456 23.7778L54.1682 22.61C56.4504 21.2927 57.2598 18.2858 55.9396 15.9991L52.1681 9.46656C50.8337 7.15562 47.8682 6.36078 45.5571 7.69516L43.5329 8.86375C42.3006 9.575 40.6107 8.59813 40.6107 7.17656V4.83969C40.6107 2.17109 38.4398 0 35.7712 0H28.2284C25.5598 0 23.3888 2.17109 23.3888 4.83953V7.17672C23.3888 8.59781 21.6992 9.57547 20.4665 8.86406L18.4423 7.69547C16.1312 6.36141 13.1656 7.15609 11.8313 9.46703L8.05994 15.9994C6.72572 18.3103 7.52025 21.2761 9.83134 22.6105L11.854 23.7783C11.881 23.7939 11.9049 23.8131 11.9309 23.83H4.3965C2.10994 23.83 0.249626 25.6895 0.249626 27.9753V64.8066C0.249626 67.0931 2.10994 68.9534 4.3965 68.9534H23.9676L23.3017 74.6677C23.1584 75.9245 22.0973 76.8713 20.8329 76.8713C20.799 76.8728 20.7662 76.8711 20.7327 76.8753H19.1631C18.3001 76.8753 17.6006 77.575 17.6006 78.4378C17.6006 79.3006 18.3001 80.0003 19.1631 80.0003H44.8363C45.6993 80.0003 46.3988 79.3006 46.3988 78.4378C46.3988 77.575 45.6993 76.8753 44.8363 76.8753H43.2665C43.2332 76.8716 43.1998 76.8711 43.1663 76.8713C41.902 76.8713 40.8409 75.9244 40.6976 74.6677C40.6974 74.6664 40.0318 68.9534 40.0318 68.9534H59.6027C61.8893 68.9534 63.7496 67.0931 63.7496 64.8066V27.975C63.7496 25.6892 61.8893 23.8297 59.6027 23.8297ZM25.8627 76.875C26.1429 76.3083 26.3309 75.6858 26.4062 75.0252L27.1137 68.9533H36.8859L37.5932 75.0241C37.6688 75.6852 37.857 76.3083 38.1373 76.8752H25.8627V76.875ZM28.292 26.7094H35.7073C36.5702 26.7094 37.2698 26.0097 37.2698 25.1469V18.0259C39.6771 19.7208 41.1857 22.5205 41.1857 25.5508C41.1857 27.3611 40.6588 29.1125 39.6613 30.6169C38.691 32.0827 37.3301 33.2348 35.7256 33.9486C35.032 34.2573 34.6606 35.0198 34.8452 35.7562L37.4773 46.2523C37.3941 47.1191 36.6474 47.8061 35.7713 47.8061H28.2276C27.3537 47.8061 26.6035 47.1194 26.5218 46.2531L29.1542 35.7562C29.339 35.0192 28.967 34.2563 28.2724 33.9481C24.9562 32.4759 22.8134 29.1797 22.8134 25.5508C22.8134 22.5203 24.322 19.7208 26.7293 18.0259V25.1469C26.7295 26.0098 27.4292 26.7094 28.292 26.7094ZM11.3938 19.9039C10.5751 19.4312 10.2935 18.3805 10.7662 17.5617L14.5377 11.0294C15.0104 10.2105 16.0612 9.92891 16.8799 10.4016L18.9042 11.5702C22.1893 13.4673 26.514 10.9603 26.514 7.17656V4.83953C26.514 3.89406 27.2831 3.125 28.2285 3.125H35.7713C36.7168 3.125 37.486 3.89422 37.486 4.83969V7.17688C37.486 10.9609 41.8104 13.4672 45.0957 11.5703L47.1198 10.4017C47.9387 9.92937 48.9893 10.2106 49.462 11.0294L53.2335 17.5619C53.7009 18.3714 53.4135 19.4377 52.606 19.9039L50.5834 21.0717C49.0677 21.9467 48.1473 23.5197 48.0935 25.3016C47.9873 27.1356 49.0031 28.9484 50.5834 29.8616L52.606 31.0284C53.414 31.4942 53.7017 32.56 53.2337 33.3705L49.4621 39.903C48.9954 40.7114 47.9298 40.9975 47.1201 40.5298L45.0957 39.3614C43.1871 38.2588 40.7691 38.5917 39.1448 40.0528L38.1787 36.2003C39.8157 35.2498 41.2137 33.9342 42.267 32.3433C43.6043 30.3262 44.3112 27.9777 44.3112 25.5511C44.3112 20.4098 41.0704 15.7641 36.2468 13.9913C35.7676 13.815 35.2324 13.8842 34.8135 14.1766C34.3948 14.4688 34.1452 14.9472 34.1452 15.4578V23.5848H29.8549V15.4575C29.8549 14.9467 29.6054 14.4684 29.1867 14.1762C28.7681 13.8837 28.2329 13.8145 27.7534 13.9909C22.9298 15.7639 19.689 20.4095 19.689 25.5508C19.689 29.9675 22.0577 34.0164 25.8215 36.2005L24.8556 40.0522C23.2287 38.5886 20.8127 38.2589 18.9049 39.3606L16.8788 40.5298C16.0756 40.9945 15.0024 40.7064 14.5381 39.9023L10.7668 33.3692C10.2988 32.5602 10.587 31.4939 11.3943 31.028L13.4177 29.8605C14.999 28.9466 16.0054 27.1397 15.907 25.3072C15.8551 23.5228 14.9343 21.9473 13.417 21.0714L11.3938 19.9039ZM60.6246 64.8063C60.6246 65.3697 60.1662 65.8281 59.6027 65.8281H4.3965C3.83306 65.8281 3.37463 65.3697 3.37463 64.8063V60.7513H24.852C25.7149 60.7513 26.4145 60.0516 26.4145 59.1888C26.4145 58.3259 25.7149 57.6263 24.852 57.6263H3.37463V27.975C3.37463 27.4123 3.83306 26.9547 4.3965 26.9547H12.1281C12.0323 27.037 11.9843 27.0786 11.8538 27.1539L9.83103 28.3219C7.54916 29.6389 6.7415 32.6492 8.05994 34.9328L11.8309 41.4656C13.1477 43.747 16.1559 44.5564 18.4423 43.2367L20.4665 42.0681C21.6988 41.3569 23.3888 42.3339 23.3888 43.7555V46.0925C23.3888 48.7261 25.5965 50.933 28.2279 50.933H35.7718C38.4032 50.933 40.6109 48.7262 40.6109 46.0925V43.7555C40.6109 42.3342 42.3006 41.3567 43.5332 42.0681L45.5571 43.2367C47.8418 44.5558 50.851 43.7481 52.1684 41.4659L55.9404 34.933C57.2607 32.6459 56.4499 29.6391 54.1679 28.3217L52.1457 27.1542C52.0196 27.0814 51.9657 27.0361 51.8713 26.9548H59.6029C60.1663 26.9548 60.6248 27.4127 60.6248 27.9752V57.6264H38.6554C37.7924 57.6264 37.0929 58.3261 37.0929 59.1889C37.0929 60.0517 37.7924 60.7514 38.6554 60.7514H60.6246V64.8063Z" fill="#0FA7F0"/>
<path d="M33.2861 58.5905C32.7493 57.3031 30.8457 57.3416 30.3742 58.6625C30.1509 59.2877 30.3567 60.0122 30.8831 60.42C31.3918 60.8142 32.1029 60.8566 32.6536 60.5239C33.3072 60.1291 33.5745 59.2947 33.2861 58.5905Z" fill="#0FA7F0"/>
</svg>
