<svg width="80" height="75" viewBox="0 0 80 75" fill="none" xmlns="http://www.w3.org/2000/svg">
<path d="M74.9672 0H45.9781C45.1153 0 44.4156 0.699688 44.4156 1.5625C44.4156 2.42531 45.1153 3.125 45.9781 3.125H74.9672C76.0191 3.125 76.875 3.98016 76.875 5.03125V46.4422H3.125V5.03125C3.125 3.98 3.98094 3.125 5.03281 3.125H32.2406C33.1034 3.125 33.8031 2.42531 33.8031 1.5625C33.8031 0.699688 33.1034 0 32.2406 0H5.03281C2.25766 0 0 2.25703 0 5.03125V55.1172C0 57.8923 2.25766 60.15 5.03281 60.15H30.5973L29.6339 68.4177C29.4106 70.3759 27.7569 71.8516 25.7862 71.8516C25.7847 71.8516 25.7833 71.8516 25.7819 71.8516C25.7686 71.8542 25.7395 71.852 25.7183 71.8528C25.7017 71.8534 25.6853 71.8559 25.6688 71.857H23.5445C22.6817 71.857 21.982 72.5567 21.982 73.4195C21.982 74.2823 22.6817 74.982 23.5445 74.982H56.4556C57.3184 74.982 58.0181 74.2823 58.0181 73.4195C58.0181 72.5567 57.3184 71.857 56.4556 71.857H54.3314C54.3148 71.8558 54.2983 71.8534 54.2819 71.8528C54.2612 71.852 54.2405 71.8516 54.22 71.8516C54.2172 71.8516 54.2159 71.8516 54.2139 71.8516C52.2434 71.8514 50.5895 70.3761 50.3662 68.4177C50.3661 68.4164 50.3659 68.415 50.3658 68.4139L49.4028 60.15H74.9672C77.7423 60.15 80 57.8923 80 55.1172V5.03125C80 2.25703 77.7423 0 74.9672 0ZM47.2616 68.7741C47.3916 69.9117 47.7891 70.9594 48.3866 71.8569H31.6141C32.2116 70.9595 32.6087 69.9123 32.7383 68.7753L33.7434 60.1498H46.2566L47.2616 68.7741ZM76.875 55.1172C76.875 56.1691 76.0191 57.025 74.9672 57.025H5.03281C3.98094 57.025 3.125 56.1691 3.125 55.1172V49.5672H76.875V55.1172Z" fill="#0FA7F0"/>
<path d="M67.9151 36.1496C70.7387 33.326 72.2937 29.5726 72.2937 25.5809C72.2937 17.3389 65.5884 10.6335 57.3463 10.6335C49.1054 10.6335 42.4009 17.3389 42.4009 25.5809C42.4009 33.8218 49.1054 40.5264 57.3463 40.5264C61.3392 40.5265 65.0926 38.9721 67.9151 36.1496ZM69.1556 26.1271C69.0481 28.527 68.1976 30.8556 66.7362 32.761L58.909 24.9337V13.8651C64.6999 14.6353 69.1688 19.7381 69.1688 25.581C69.1688 25.7637 69.1637 25.9457 69.1556 26.1271ZM45.5259 25.5809C45.5259 19.5921 50.0024 14.6325 55.7838 13.865V25.5809C55.7838 25.9953 55.9485 26.3926 56.2415 26.6857L64.5262 34.9704C62.4746 36.5456 59.977 37.4014 57.3463 37.4014C50.8287 37.4015 45.5259 32.0987 45.5259 25.5809Z" fill="#0FA7F0"/>
<path d="M25.4287 25.5799V37.3283H21.0429V13.7922C21.0429 12.9294 20.3432 12.2297 19.4804 12.2297H11.7585C10.8957 12.2297 10.196 12.9294 10.196 13.7922V37.3283H9.04649C8.18368 37.3283 7.48399 38.028 7.48399 38.8908C7.48399 39.7536 8.18368 40.4533 9.04649 40.4533H37.3163C38.1791 40.4533 38.8788 39.7536 38.8788 38.8908C38.8788 38.028 38.1791 37.3283 37.3163 37.3283H36.2757V25.5799C36.2757 24.7171 35.576 24.0174 34.7132 24.0174H26.9913C26.1284 24.0174 25.4287 24.7169 25.4287 25.5799ZM13.321 37.3283V15.3547H17.9179V37.3283H13.321ZM28.5537 27.1424H33.1506V37.3283H28.5537V27.1424Z" fill="#0FA7F0"/>
<path d="M37.7496 2.15945C38.0771 2.94507 39.0024 3.33179 39.7904 3.00476C40.576 2.67867 40.9618 1.75054 40.6356 0.96398C40.3096 0.178355 39.381 -0.207739 38.5949 0.118667C37.8101 0.444605 37.4218 1.37351 37.7496 2.15945Z" fill="#0FA7F0"/>
</svg>
