<svg width="80" height="80" viewBox="0 0 80 80" fill="none" xmlns="http://www.w3.org/2000/svg">
<path d="M72.7058 52.7747C70.6508 51.5881 68.1225 51.942 66.4659 53.4755L62.7944 51.3556C64.5155 47.938 65.4866 44.0805 65.4866 40C65.4866 35.9195 64.5155 32.062 62.7944 28.6444L66.4684 26.5231C68.1501 28.0789 70.7205 28.3714 72.7059 27.2253C75.2317 25.767 76.1001 22.5258 74.642 20C73.1837 17.4742 69.9425 16.6059 67.4167 18.0639C65.3619 19.2503 64.4041 21.6169 64.9036 23.8183L61.2195 25.9452C56.9166 19.5164 49.7523 15.158 41.5633 14.7063V10.3428C43.7195 9.67484 45.2901 7.66203 45.2901 5.28922C45.2901 2.37281 42.9173 0 40.0008 0C37.0842 0 34.7114 2.37281 34.7114 5.28938C34.7114 7.66219 36.282 9.675 38.4383 10.343V14.7256C30.3225 15.2706 23.2426 19.6542 19.002 26.0722L15.0981 23.8183C15.5977 21.617 14.64 19.2505 12.585 18.0641C10.0594 16.6059 6.81796 17.4742 5.35968 20C3.9014 22.5258 4.76999 25.767 7.29578 27.2253C9.27437 28.3798 11.8573 28.0734 13.5333 26.5231L17.4433 28.7805C15.7647 32.1645 14.8189 35.9736 14.8189 40C14.8189 44.0264 15.7647 47.8355 17.4433 51.2194L13.5358 53.4755C11.8792 51.9422 9.35093 51.5881 7.29593 52.7747C4.76999 54.233 3.90156 57.4742 5.35968 60C6.7989 62.4928 10.0887 63.3772 12.585 61.9361C14.6398 60.7497 15.5977 58.3831 15.0981 56.1817L19.002 53.9278C23.2425 60.3459 30.3225 64.7294 38.4383 65.2744V69.657C36.282 70.325 34.7114 72.3377 34.7114 74.7106C34.7114 77.6272 37.0842 80 40.0008 80C42.9173 80 45.2901 77.6272 45.2901 74.7106C45.2901 72.3378 43.7195 70.3252 41.5633 69.657V65.2937C49.7523 64.842 56.9166 60.4836 61.2195 54.0548L64.9034 56.1817C64.4039 58.3831 65.3616 60.7495 67.4166 61.9361C69.9126 63.3772 73.2026 62.4927 74.6419 60C76.1 57.4742 75.2316 54.233 72.7058 52.7747ZM68.9789 20.7703C70.0122 20.1739 71.3387 20.5291 71.9355 21.5625C72.5322 22.5959 72.1767 23.9223 71.1433 24.5191C70.1095 25.1156 68.7833 24.7603 68.1867 23.7269C67.5901 22.6934 67.9455 21.367 68.9789 20.7703ZM40.0008 3.125C41.1942 3.125 42.1651 4.09594 42.1651 5.28938C42.1651 6.48281 41.1942 7.45359 40.0008 7.45359C38.8073 7.45359 37.8364 6.48266 37.8364 5.28922C37.8364 4.09578 38.8073 3.125 40.0008 3.125ZM8.85827 24.5191C7.82484 23.9223 7.46937 22.5959 8.06609 21.5625C8.66281 20.5289 9.98921 20.1737 11.0226 20.7703C12.0561 21.367 12.4116 22.6934 11.8148 23.7269C11.2183 24.7603 9.89187 25.1156 8.85827 24.5191ZM11.0226 59.2297C9.98937 59.8263 8.66281 59.4711 8.06609 58.4375C7.46937 57.4041 7.82484 56.0777 8.85827 55.4809C9.89187 54.8845 11.2183 55.2397 11.8148 56.2731C12.4116 57.3067 12.0561 58.633 11.0226 59.2297ZM40.0008 76.875C38.8073 76.875 37.8364 75.9041 37.8364 74.7106C37.8364 73.5172 38.8073 72.5462 40.0008 72.5462C41.1942 72.5462 42.1651 73.5172 42.1651 74.7106C42.1651 75.9041 41.1942 76.875 40.0008 76.875ZM40.1526 62.2087C27.9067 62.2087 17.9439 52.2459 17.9439 40C17.9439 27.7541 27.9067 17.7913 40.1526 17.7913C52.3986 17.7913 62.3614 27.7541 62.3614 40C62.3614 52.2459 52.3986 62.2087 40.1526 62.2087ZM71.9355 58.4375C71.3386 59.4709 70.0122 59.8264 68.9789 59.2297C67.9455 58.633 67.59 57.3066 68.1867 56.2731C68.7834 55.2398 70.1097 54.8842 71.1433 55.4809C72.1767 56.0777 72.5322 57.4041 71.9355 58.4375Z" fill="#0FA7F0"/>
<path d="M50.8252 24.5813H29.4801C28.6171 24.5813 27.9176 25.281 27.9176 26.1438V33.1522C27.9176 34.015 28.6171 34.7147 29.4801 34.7147C30.3431 34.7147 31.0426 34.015 31.0426 33.1522V27.7063H49.2627V52.2938H31.0426V46.9C31.0426 46.0372 30.3431 45.3375 29.4801 45.3375C28.6171 45.3375 27.9176 46.0372 27.9176 46.9V53.8563C27.9176 54.7191 28.6171 55.4188 29.4801 55.4188H50.8252C51.6882 55.4188 52.3877 54.7191 52.3877 53.8563V26.1438C52.3877 25.281 51.6882 24.5813 50.8252 24.5813Z" fill="#0FA7F0"/>
<path d="M36.5845 34.4153H43.8581C44.7211 34.4153 45.4206 33.7156 45.4206 32.8528C45.4206 31.99 44.7211 31.2903 43.8581 31.2903H36.5845C35.7216 31.2903 35.022 31.99 35.022 32.8528C35.022 33.7156 35.7216 34.4153 36.5845 34.4153Z" fill="#0FA7F0"/>
<path d="M36.5845 41.4785H43.8581C44.7211 41.4785 45.4206 40.7788 45.4206 39.916C45.4206 39.0532 44.7211 38.3535 43.8581 38.3535H36.5845C35.7216 38.3535 35.022 39.0532 35.022 39.916C35.022 40.7788 35.7216 41.4785 36.5845 41.4785Z" fill="#0FA7F0"/>
<path d="M36.5845 48.5417H43.8581C44.7211 48.5417 45.4206 47.8421 45.4206 46.9792C45.4206 46.1164 44.7211 45.4167 43.8581 45.4167H36.5845C35.7216 45.4167 35.022 46.1164 35.022 46.9792C35.022 47.8421 35.7216 48.5417 36.5845 48.5417Z" fill="#0FA7F0"/>
<path d="M28.1806 40.8671C28.9507 42.0111 30.7765 41.6285 31.0185 40.2669C31.2734 38.8332 29.5049 37.8711 28.4312 38.8425C27.8645 39.3552 27.7571 40.2318 28.1806 40.8671Z" fill="#0FA7F0"/>
</svg>
