<svg width="80" height="73" viewBox="0 0 80 73" fill="none" xmlns="http://www.w3.org/2000/svg">
<path d="M74.8275 0H5.1725C2.32031 0 0 2.32031 0 5.17234V67.2219C0 70.0739 2.32031 72.3944 5.1725 72.3944H74.8277C77.6797 72.3944 80.0002 70.0741 80.0002 67.2219V5.17234C80 2.32031 77.6797 0 74.8275 0ZM3.125 5.17234C3.125 4.04344 4.04344 3.12484 5.1725 3.12484H74.8277C75.9566 3.12484 76.8752 4.04328 76.8752 5.17234V11.5742H3.125V5.17234ZM76.875 67.222C76.875 68.3509 75.9566 69.2695 74.8275 69.2695H5.1725C4.04359 69.2695 3.125 68.3511 3.125 67.222V14.6992H76.875V67.222Z" fill="#0FA7F0"/>
<path d="M7.94047 5.96269C7.27157 6.08769 6.75954 6.66972 6.69063 7.34097C6.62126 8.01769 7.02266 8.67644 7.64829 8.93612C8.98266 9.48987 10.3047 8.00581 9.61469 6.74331C9.29313 6.15487 8.59907 5.82894 7.94047 5.96269Z" fill="#0FA7F0"/>
<path d="M15.0766 6.19563C13.898 5.41032 12.3247 6.54797 12.7038 7.91031C12.8825 8.5525 13.4666 9.02032 14.133 9.05453C14.7986 9.08875 15.4268 8.675 15.6654 8.05532C15.9232 7.38578 15.6815 6.59125 15.0766 6.19563Z" fill="#0FA7F0"/>
<path d="M21.7797 6.89733C21.2555 5.61748 19.3788 5.64998 18.8821 6.92842C18.3674 8.25311 19.8213 9.53624 21.0726 8.87092C21.7718 8.4992 22.0844 7.62889 21.7797 6.89733Z" fill="#0FA7F0"/>
<path d="M59.0198 44.6834C62.2332 44.6834 65.2548 43.4315 67.5273 41.159C69.8007 38.8874 71.0526 35.8659 71.0526 32.6504C71.0526 29.437 69.8007 26.4154 67.5273 24.142C65.2537 21.8701 62.2323 20.6191 59.0198 20.6191C55.8054 20.6191 52.7838 21.8704 50.5118 24.1424C48.2388 26.4154 46.9869 29.437 46.9869 32.6504C46.9869 39.2854 52.3849 44.6834 59.0198 44.6834ZM66.1838 27.3546C67.3158 28.8788 67.9277 30.7179 67.9277 32.6505C67.9277 34.4668 67.3685 36.2591 66.3255 37.7465L60.5823 32.0034V23.8827C62.8129 24.2754 64.8338 25.537 66.1838 27.3546ZM52.7215 26.3523C54.029 25.0448 55.6724 24.1965 57.4573 23.8826V32.6505C57.4573 33.0649 57.6219 33.4624 57.9149 33.7554L64.1154 39.9559C62.6313 40.9959 60.8691 41.5584 59.0198 41.5584C54.1079 41.5584 50.1119 37.5623 50.1119 32.6505C50.1119 30.2718 51.0387 28.0351 52.7215 26.3523Z" fill="#0FA7F0"/>
<path d="M48.5494 53.5986H69.4901C70.353 53.5986 71.0526 52.8991 71.0526 52.0361C71.0526 51.1732 70.353 50.4736 69.4901 50.4736H48.5494C47.6865 50.4736 46.9869 51.1732 46.9869 52.0361C46.9869 52.8991 47.6865 53.5986 48.5494 53.5986Z" fill="#0FA7F0"/>
<path d="M9.53125 53.5986H38.5938C39.4567 53.5986 40.1562 52.899 40.1562 52.0361C40.1562 51.1731 39.4567 50.4736 38.5938 50.4736H36.5345V27.3857C36.5345 26.5228 35.835 25.8232 34.972 25.8232H27.2273C26.3644 25.8232 25.6648 26.5228 25.6648 27.3857V50.4736H21.6744V37.3678C21.6744 36.5048 20.9748 35.8053 20.1119 35.8053H12.367C11.5041 35.8053 10.8045 36.5048 10.8045 37.3678V50.4736H9.53125C8.66828 50.4736 7.96875 51.1731 7.96875 52.0361C7.96875 52.899 8.66828 53.5986 9.53125 53.5986ZM28.7898 28.9482H33.4095V50.4736H28.7898V28.9482ZM13.9295 38.9303H18.5494V50.4736H13.9295V38.9303Z" fill="#0FA7F0"/>
<path d="M69.4898 59.2693H16.7767C15.9138 59.2693 15.2142 59.9688 15.2142 60.8318C15.2142 61.6948 15.9138 62.3943 16.7767 62.3943H69.4898C70.3528 62.3943 71.0523 61.6948 71.0523 60.8318C71.0523 59.9688 70.3528 59.2693 69.4898 59.2693Z" fill="#0FA7F0"/>
<path d="M8.08875 61.4301C8.34547 62.0464 8.97953 62.4374 9.64562 62.3896C10.2967 62.3429 10.8619 61.8767 11.0356 61.2481C11.403 59.9182 9.91468 58.7851 8.72828 59.4926C8.06937 59.8854 7.79922 60.7237 8.08875 61.4301Z" fill="#0FA7F0"/>
</svg>
