<svg width="619" height="323" viewBox="0 0 619 323" fill="none" xmlns="http://www.w3.org/2000/svg">
<path d="M0 15C0 6.71574 6.71573 0 15 0H604C612.284 0 619 6.71573 619 15V308C619 316.284 612.284 323 604 323H15C6.71572 323 0 316.284 0 308V15Z" fill="white"/>
<path d="M36.89 54V41.4H38.366L46.7 51.75H45.926V41.4H47.726V54H46.25L37.916 43.65H38.69V54H36.89ZM57.1674 54V51.984L57.0774 51.606V48.168C57.0774 47.436 56.8614 46.872 56.4294 46.476C56.0094 46.068 55.3734 45.864 54.5214 45.864C53.9574 45.864 53.4054 45.96 52.8654 46.152C52.3254 46.332 51.8694 46.578 51.4974 46.89L50.7774 45.594C51.2694 45.198 51.8574 44.898 52.5414 44.694C53.2374 44.478 53.9634 44.37 54.7194 44.37C56.0274 44.37 57.0354 44.688 57.7434 45.324C58.4514 45.96 58.8054 46.932 58.8054 48.24V54H57.1674ZM54.0354 54.108C53.3274 54.108 52.7034 53.988 52.1634 53.748C51.6354 53.508 51.2274 53.178 50.9394 52.758C50.6514 52.326 50.5074 51.84 50.5074 51.3C50.5074 50.784 50.6274 50.316 50.8674 49.896C51.1194 49.476 51.5214 49.14 52.0734 48.888C52.6374 48.636 53.3934 48.51 54.3414 48.51H57.3654V49.752H54.4134C53.5494 49.752 52.9674 49.896 52.6674 50.184C52.3674 50.472 52.2174 50.82 52.2174 51.228C52.2174 51.696 52.4034 52.074 52.7754 52.362C53.1474 52.638 53.6634 52.776 54.3234 52.776C54.9714 52.776 55.5354 52.632 56.0154 52.344C56.5074 52.056 56.8614 51.636 57.0774 51.084L57.4194 52.272C57.1914 52.836 56.7894 53.286 56.2134 53.622C55.6374 53.946 54.9114 54.108 54.0354 54.108ZM73.9372 44.37C74.7052 44.37 75.3832 44.52 75.9712 44.82C76.5592 45.12 77.0152 45.576 77.3392 46.188C77.6752 46.8 77.8432 47.574 77.8432 48.51V54H76.1152V48.708C76.1152 47.784 75.8992 47.088 75.4672 46.62C75.0352 46.152 74.4292 45.918 73.6492 45.918C73.0732 45.918 72.5692 46.038 72.1372 46.278C71.7052 46.518 71.3692 46.872 71.1292 47.34C70.9012 47.808 70.7872 48.39 70.7872 49.086V54H69.0592V48.708C69.0592 47.784 68.8432 47.088 68.4112 46.62C67.9912 46.152 67.3852 45.918 66.5932 45.918C66.0292 45.918 65.5312 46.038 65.0992 46.278C64.6672 46.518 64.3312 46.872 64.0912 47.34C63.8512 47.808 63.7312 48.39 63.7312 49.086V54H62.0032V44.46H63.6592V46.998L63.3892 46.35C63.6892 45.726 64.1512 45.24 64.7752 44.892C65.3992 44.544 66.1252 44.37 66.9532 44.37C67.8652 44.37 68.6512 44.598 69.3112 45.054C69.9712 45.498 70.4032 46.176 70.6072 47.088L69.9052 46.8C70.1932 46.068 70.6972 45.48 71.4172 45.036C72.1372 44.592 72.9772 44.37 73.9372 44.37ZM85.2708 54.108C84.2508 54.108 83.3508 53.898 82.5708 53.478C81.8028 53.058 81.2028 52.482 80.7708 51.75C80.3508 51.018 80.1408 50.178 80.1408 49.23C80.1408 48.282 80.3448 47.442 80.7528 46.71C81.1728 45.978 81.7428 45.408 82.4628 45C83.1948 44.58 84.0168 44.37 84.9288 44.37C85.8528 44.37 86.6688 44.574 87.3768 44.982C88.0848 45.39 88.6368 45.966 89.0328 46.71C89.4408 47.442 89.6448 48.3 89.6448 49.284C89.6448 49.356 89.6388 49.44 89.6268 49.536C89.6268 49.632 89.6208 49.722 89.6088 49.806H81.4908V48.564H88.7088L88.0068 48.996C88.0188 48.384 87.8928 47.838 87.6288 47.358C87.3648 46.878 86.9988 46.506 86.5308 46.242C86.0748 45.966 85.5408 45.828 84.9288 45.828C84.3288 45.828 83.7948 45.966 83.3268 46.242C82.8588 46.506 82.4928 46.884 82.2288 47.376C81.9648 47.856 81.8328 48.408 81.8328 49.032V49.32C81.8328 49.956 81.9768 50.526 82.2648 51.03C82.5648 51.522 82.9788 51.906 83.5068 52.182C84.0348 52.458 84.6408 52.596 85.3248 52.596C85.8888 52.596 86.3988 52.5 86.8548 52.308C87.3228 52.116 87.7308 51.828 88.0788 51.444L89.0328 52.56C88.6008 53.064 88.0608 53.448 87.4128 53.712C86.7768 53.976 86.0628 54.108 85.2708 54.108Z" fill="#37376D"/>
<path d="M38.24 79.034H44.9V80.168H38.24V79.034ZM38.384 84.848H45.962V86H37.052V73.4H45.692V74.552H38.384V84.848ZM53.647 76.46C54.415 76.46 55.087 76.61 55.663 76.91C56.251 77.198 56.707 77.642 57.031 78.242C57.367 78.842 57.535 79.598 57.535 80.51V86H56.257V80.636C56.257 79.64 56.005 78.89 55.501 78.386C55.009 77.87 54.313 77.612 53.413 77.612C52.741 77.612 52.153 77.75 51.649 78.026C51.157 78.29 50.773 78.68 50.497 79.196C50.233 79.7 50.101 80.312 50.101 81.032V86H48.823V76.55H50.047V79.142L49.849 78.656C50.149 77.972 50.629 77.438 51.289 77.054C51.949 76.658 52.735 76.46 53.647 76.46ZM63.9751 86.09C63.0871 86.09 62.4031 85.85 61.9231 85.37C61.4431 84.89 61.2031 84.212 61.2031 83.336V74.462H62.4811V83.264C62.4811 83.816 62.6191 84.242 62.8951 84.542C63.1831 84.842 63.5911 84.992 64.1191 84.992C64.6831 84.992 65.1511 84.83 65.5231 84.506L65.9731 85.424C65.7211 85.652 65.4151 85.82 65.0551 85.928C64.7071 86.036 64.3471 86.09 63.9751 86.09ZM59.5111 77.612V76.55H65.3611V77.612H59.5111ZM71.9796 86.09C70.9956 86.09 70.1316 85.886 69.3876 85.478C68.6436 85.058 68.0616 84.488 67.6416 83.768C67.2216 83.036 67.0116 82.202 67.0116 81.266C67.0116 80.33 67.2096 79.502 67.6056 78.782C68.0136 78.062 68.5656 77.498 69.2616 77.09C69.9696 76.67 70.7616 76.46 71.6376 76.46C72.5256 76.46 73.3116 76.664 73.9956 77.072C74.6916 77.468 75.2376 78.032 75.6336 78.764C76.0296 79.484 76.2276 80.318 76.2276 81.266C76.2276 81.326 76.2216 81.392 76.2096 81.464C76.2096 81.524 76.2096 81.59 76.2096 81.662H67.9836V80.708H75.5256L75.0216 81.086C75.0216 80.402 74.8716 79.796 74.5716 79.268C74.2836 78.728 73.8876 78.308 73.3836 78.008C72.8796 77.708 72.2976 77.558 71.6376 77.558C70.9896 77.558 70.4076 77.708 69.8916 78.008C69.3756 78.308 68.9736 78.728 68.6856 79.268C68.3976 79.808 68.2536 80.426 68.2536 81.122V81.32C68.2536 82.04 68.4096 82.676 68.7216 83.228C69.0456 83.768 69.4896 84.194 70.0536 84.506C70.6296 84.806 71.2836 84.956 72.0156 84.956C72.5916 84.956 73.1256 84.854 73.6176 84.65C74.1216 84.446 74.5536 84.134 74.9136 83.714L75.6336 84.542C75.2136 85.046 74.6856 85.43 74.0496 85.694C73.4256 85.958 72.7356 86.09 71.9796 86.09ZM78.8289 86V76.55H80.0529V79.124L79.9269 78.674C80.1909 77.954 80.6349 77.408 81.2589 77.036C81.8829 76.652 82.6569 76.46 83.5809 76.46V77.702C83.5329 77.702 83.4849 77.702 83.4369 77.702C83.3889 77.69 83.3409 77.684 83.2929 77.684C82.2969 77.684 81.5169 77.99 80.9529 78.602C80.3889 79.202 80.1069 80.06 80.1069 81.176V86H78.8289ZM93.7524 86.09C92.8644 86.09 92.1804 85.85 91.7004 85.37C91.2204 84.89 90.9804 84.212 90.9804 83.336V74.462H92.2584V83.264C92.2584 83.816 92.3964 84.242 92.6724 84.542C92.9604 84.842 93.3684 84.992 93.8964 84.992C94.4604 84.992 94.9284 84.83 95.3004 84.506L95.7504 85.424C95.4984 85.652 95.1924 85.82 94.8324 85.928C94.4844 86.036 94.1244 86.09 93.7524 86.09ZM89.2884 77.612V76.55H95.1384V77.612H89.2884ZM101.757 86.09C100.773 86.09 99.9089 85.886 99.1649 85.478C98.4209 85.058 97.8389 84.488 97.4189 83.768C96.9989 83.036 96.7889 82.202 96.7889 81.266C96.7889 80.33 96.9869 79.502 97.3829 78.782C97.7909 78.062 98.3429 77.498 99.0389 77.09C99.7469 76.67 100.539 76.46 101.415 76.46C102.303 76.46 103.089 76.664 103.773 77.072C104.469 77.468 105.015 78.032 105.411 78.764C105.807 79.484 106.005 80.318 106.005 81.266C106.005 81.326 105.999 81.392 105.987 81.464C105.987 81.524 105.987 81.59 105.987 81.662H97.7609V80.708H105.303L104.799 81.086C104.799 80.402 104.649 79.796 104.349 79.268C104.061 78.728 103.665 78.308 103.161 78.008C102.657 77.708 102.075 77.558 101.415 77.558C100.767 77.558 100.185 77.708 99.6689 78.008C99.1529 78.308 98.7509 78.728 98.4629 79.268C98.1749 79.808 98.0309 80.426 98.0309 81.122V81.32C98.0309 82.04 98.1869 82.676 98.4989 83.228C98.8229 83.768 99.2669 84.194 99.8309 84.506C100.407 84.806 101.061 84.956 101.793 84.956C102.369 84.956 102.903 84.854 103.395 84.65C103.899 84.446 104.331 84.134 104.691 83.714L105.411 84.542C104.991 85.046 104.463 85.43 103.827 85.694C103.203 85.958 102.513 86.09 101.757 86.09ZM106.903 86L110.899 80.816L110.881 81.446L107.083 76.55H108.523L111.637 80.6L111.097 80.582L114.211 76.55H115.615L111.781 81.5L111.799 80.816L115.831 86H114.373L111.079 81.68L111.583 81.752L108.343 86H106.903ZM120.946 86.09C120.058 86.09 119.374 85.85 118.894 85.37C118.414 84.89 118.174 84.212 118.174 83.336V74.462H119.452V83.264C119.452 83.816 119.59 84.242 119.866 84.542C120.154 84.842 120.562 84.992 121.09 84.992C121.654 84.992 122.122 84.83 122.494 84.506L122.944 85.424C122.692 85.652 122.386 85.82 122.026 85.928C121.678 86.036 121.318 86.09 120.946 86.09ZM116.482 77.612V76.55H122.332V77.612H116.482ZM130.197 86V75.362C130.197 74.522 130.443 73.844 130.935 73.328C131.427 72.812 132.135 72.554 133.059 72.554C133.419 72.554 133.767 72.602 134.103 72.698C134.439 72.794 134.721 72.944 134.949 73.148L134.517 74.102C134.337 73.946 134.127 73.832 133.887 73.76C133.647 73.676 133.389 73.634 133.113 73.634C132.573 73.634 132.159 73.784 131.871 74.084C131.583 74.384 131.439 74.828 131.439 75.416V76.856L131.475 77.45V86H130.197ZM128.505 77.612V76.55H134.355V77.612H128.505ZM139.775 86.09C138.863 86.09 138.041 85.886 137.309 85.478C136.589 85.058 136.019 84.488 135.599 83.768C135.179 83.036 134.969 82.202 134.969 81.266C134.969 80.318 135.179 79.484 135.599 78.764C136.019 78.044 136.589 77.48 137.309 77.072C138.029 76.664 138.851 76.46 139.775 76.46C140.711 76.46 141.539 76.664 142.259 77.072C142.991 77.48 143.561 78.044 143.969 78.764C144.389 79.484 144.599 80.318 144.599 81.266C144.599 82.202 144.389 83.036 143.969 83.768C143.561 84.488 142.991 85.058 142.259 85.478C141.527 85.886 140.699 86.09 139.775 86.09ZM139.775 84.956C140.459 84.956 141.065 84.806 141.593 84.506C142.121 84.194 142.535 83.762 142.835 83.21C143.147 82.646 143.303 81.998 143.303 81.266C143.303 80.522 143.147 79.874 142.835 79.322C142.535 78.77 142.121 78.344 141.593 78.044C141.065 77.732 140.465 77.576 139.793 77.576C139.121 77.576 138.521 77.732 137.993 78.044C137.465 78.344 137.045 78.77 136.733 79.322C136.421 79.874 136.265 80.522 136.265 81.266C136.265 81.998 136.421 82.646 136.733 83.21C137.045 83.762 137.465 84.194 137.993 84.506C138.521 84.806 139.115 84.956 139.775 84.956ZM147.208 86V76.55H148.432V79.124L148.306 78.674C148.57 77.954 149.014 77.408 149.638 77.036C150.262 76.652 151.036 76.46 151.96 76.46V77.702C151.912 77.702 151.864 77.702 151.816 77.702C151.768 77.69 151.72 77.684 151.672 77.684C150.676 77.684 149.896 77.99 149.332 78.602C148.768 79.202 148.486 80.06 148.486 81.176V86H147.208ZM161.681 86.09C160.901 86.09 160.163 85.982 159.467 85.766C158.771 85.538 158.225 85.256 157.829 84.92L158.405 83.912C158.789 84.2 159.281 84.452 159.881 84.668C160.481 84.872 161.111 84.974 161.771 84.974C162.671 84.974 163.319 84.836 163.715 84.56C164.111 84.272 164.309 83.894 164.309 83.426C164.309 83.078 164.195 82.808 163.967 82.616C163.751 82.412 163.463 82.262 163.103 82.166C162.743 82.058 162.341 81.968 161.897 81.896C161.453 81.824 161.009 81.74 160.565 81.644C160.133 81.548 159.737 81.41 159.377 81.23C159.017 81.038 158.723 80.78 158.495 80.456C158.279 80.132 158.171 79.7 158.171 79.16C158.171 78.644 158.315 78.182 158.603 77.774C158.891 77.366 159.311 77.048 159.863 76.82C160.427 76.58 161.111 76.46 161.915 76.46C162.527 76.46 163.139 76.544 163.751 76.712C164.363 76.868 164.867 77.078 165.263 77.342L164.705 78.368C164.285 78.08 163.835 77.876 163.355 77.756C162.875 77.624 162.395 77.558 161.915 77.558C161.063 77.558 160.433 77.708 160.025 78.008C159.629 78.296 159.431 78.668 159.431 79.124C159.431 79.484 159.539 79.766 159.755 79.97C159.983 80.174 160.277 80.336 160.637 80.456C161.009 80.564 161.411 80.654 161.843 80.726C162.287 80.798 162.725 80.888 163.157 80.996C163.601 81.092 164.003 81.23 164.363 81.41C164.735 81.578 165.029 81.824 165.245 82.148C165.473 82.46 165.587 82.874 165.587 83.39C165.587 83.942 165.431 84.422 165.119 84.83C164.819 85.226 164.375 85.538 163.787 85.766C163.211 85.982 162.509 86.09 161.681 86.09ZM171.946 86.09C170.962 86.09 170.098 85.886 169.354 85.478C168.61 85.058 168.028 84.488 167.608 83.768C167.188 83.036 166.978 82.202 166.978 81.266C166.978 80.33 167.176 79.502 167.572 78.782C167.98 78.062 168.532 77.498 169.228 77.09C169.936 76.67 170.728 76.46 171.604 76.46C172.492 76.46 173.278 76.664 173.962 77.072C174.658 77.468 175.204 78.032 175.6 78.764C175.996 79.484 176.194 80.318 176.194 81.266C176.194 81.326 176.188 81.392 176.176 81.464C176.176 81.524 176.176 81.59 176.176 81.662H167.95V80.708H175.492L174.988 81.086C174.988 80.402 174.838 79.796 174.538 79.268C174.25 78.728 173.854 78.308 173.35 78.008C172.846 77.708 172.264 77.558 171.604 77.558C170.956 77.558 170.374 77.708 169.858 78.008C169.342 78.308 168.94 78.728 168.652 79.268C168.364 79.808 168.22 80.426 168.22 81.122V81.32C168.22 82.04 168.376 82.676 168.688 83.228C169.012 83.768 169.456 84.194 170.02 84.506C170.596 84.806 171.25 84.956 171.982 84.956C172.558 84.956 173.092 84.854 173.584 84.65C174.088 84.446 174.52 84.134 174.88 83.714L175.6 84.542C175.18 85.046 174.652 85.43 174.016 85.694C173.392 85.958 172.702 86.09 171.946 86.09ZM184.454 86V83.912L184.4 83.57V80.078C184.4 79.274 184.172 78.656 183.716 78.224C183.272 77.792 182.606 77.576 181.718 77.576C181.106 77.576 180.524 77.678 179.972 77.882C179.42 78.086 178.952 78.356 178.568 78.692L177.992 77.738C178.472 77.33 179.048 77.018 179.72 76.802C180.392 76.574 181.1 76.46 181.844 76.46C183.068 76.46 184.01 76.766 184.67 77.378C185.342 77.978 185.678 78.896 185.678 80.132V86H184.454ZM181.196 86.09C180.488 86.09 179.87 85.976 179.342 85.748C178.826 85.508 178.43 85.184 178.154 84.776C177.878 84.356 177.74 83.876 177.74 83.336C177.74 82.844 177.854 82.4 178.082 82.004C178.322 81.596 178.706 81.272 179.234 81.032C179.774 80.78 180.494 80.654 181.394 80.654H184.652V81.608H181.43C180.518 81.608 179.882 81.77 179.522 82.094C179.174 82.418 179 82.82 179 83.3C179 83.84 179.21 84.272 179.63 84.596C180.05 84.92 180.638 85.082 181.394 85.082C182.114 85.082 182.732 84.92 183.248 84.596C183.776 84.26 184.16 83.78 184.4 83.156L184.688 84.038C184.448 84.662 184.028 85.16 183.428 85.532C182.84 85.904 182.096 86.09 181.196 86.09ZM189.149 86V76.55H190.373V79.124L190.247 78.674C190.511 77.954 190.955 77.408 191.579 77.036C192.203 76.652 192.977 76.46 193.901 76.46V77.702C193.853 77.702 193.805 77.702 193.757 77.702C193.709 77.69 193.661 77.684 193.613 77.684C192.617 77.684 191.837 77.99 191.273 78.602C190.709 79.202 190.427 80.06 190.427 81.176V86H189.149ZM200.069 86.09C199.133 86.09 198.293 85.886 197.549 85.478C196.817 85.058 196.241 84.488 195.821 83.768C195.401 83.036 195.191 82.202 195.191 81.266C195.191 80.318 195.401 79.484 195.821 78.764C196.241 78.044 196.817 77.48 197.549 77.072C198.293 76.664 199.133 76.46 200.069 76.46C200.873 76.46 201.599 76.616 202.247 76.928C202.895 77.24 203.405 77.708 203.777 78.332L202.823 78.98C202.499 78.5 202.097 78.146 201.617 77.918C201.137 77.69 200.615 77.576 200.051 77.576C199.379 77.576 198.773 77.732 198.233 78.044C197.693 78.344 197.267 78.77 196.955 79.322C196.643 79.874 196.487 80.522 196.487 81.266C196.487 82.01 196.643 82.658 196.955 83.21C197.267 83.762 197.693 84.194 198.233 84.506C198.773 84.806 199.379 84.956 200.051 84.956C200.615 84.956 201.137 84.842 201.617 84.614C202.097 84.386 202.499 84.038 202.823 83.57L203.777 84.218C203.405 84.83 202.895 85.298 202.247 85.622C201.599 85.934 200.873 86.09 200.069 86.09ZM210.971 76.46C211.739 76.46 212.411 76.61 212.987 76.91C213.575 77.198 214.031 77.642 214.355 78.242C214.691 78.842 214.859 79.598 214.859 80.51V86H213.581V80.636C213.581 79.64 213.329 78.89 212.825 78.386C212.333 77.87 211.637 77.612 210.737 77.612C210.065 77.612 209.477 77.75 208.973 78.026C208.481 78.29 208.097 78.68 207.821 79.196C207.557 79.7 207.425 80.312 207.425 81.032V86H206.147V72.644H207.425V79.142L207.173 78.656C207.473 77.972 207.953 77.438 208.613 77.054C209.273 76.658 210.059 76.46 210.971 76.46ZM218.437 86.09C218.173 86.09 217.945 85.994 217.753 85.802C217.573 85.61 217.483 85.376 217.483 85.1C217.483 84.812 217.573 84.578 217.753 84.398C217.945 84.218 218.173 84.128 218.437 84.128C218.701 84.128 218.923 84.218 219.103 84.398C219.295 84.578 219.391 84.812 219.391 85.1C219.391 85.376 219.295 85.61 219.103 85.802C218.923 85.994 218.701 86.09 218.437 86.09ZM222.252 86.09C221.988 86.09 221.76 85.994 221.568 85.802C221.388 85.61 221.298 85.376 221.298 85.1C221.298 84.812 221.388 84.578 221.568 84.398C221.76 84.218 221.988 84.128 222.252 84.128C222.516 84.128 222.738 84.218 222.918 84.398C223.11 84.578 223.206 84.812 223.206 85.1C223.206 85.376 223.11 85.61 222.918 85.802C222.738 85.994 222.516 86.09 222.252 86.09ZM226.066 86.09C225.802 86.09 225.574 85.994 225.382 85.802C225.202 85.61 225.112 85.376 225.112 85.1C225.112 84.812 225.202 84.578 225.382 84.398C225.574 84.218 225.802 84.128 226.066 84.128C226.33 84.128 226.552 84.218 226.732 84.398C226.924 84.578 227.02 84.812 227.02 85.1C227.02 85.376 226.924 85.61 226.732 85.802C226.552 85.994 226.33 86.09 226.066 86.09Z" fill="#9B9BB6"/>
<path d="M38.24 170.034H44.9V171.168H38.24V170.034ZM38.384 175.848H45.962V177H37.052V164.4H45.692V165.552H38.384V175.848ZM53.647 167.46C54.415 167.46 55.087 167.61 55.663 167.91C56.251 168.198 56.707 168.642 57.031 169.242C57.367 169.842 57.535 170.598 57.535 171.51V177H56.257V171.636C56.257 170.64 56.005 169.89 55.501 169.386C55.009 168.87 54.313 168.612 53.413 168.612C52.741 168.612 52.153 168.75 51.649 169.026C51.157 169.29 50.773 169.68 50.497 170.196C50.233 170.7 50.101 171.312 50.101 172.032V177H48.823V167.55H50.047V170.142L49.849 169.656C50.149 168.972 50.629 168.438 51.289 168.054C51.949 167.658 52.735 167.46 53.647 167.46ZM63.9751 177.09C63.0871 177.09 62.4031 176.85 61.9231 176.37C61.4431 175.89 61.2031 175.212 61.2031 174.336V165.462H62.4811V174.264C62.4811 174.816 62.6191 175.242 62.8951 175.542C63.1831 175.842 63.5911 175.992 64.1191 175.992C64.6831 175.992 65.1511 175.83 65.5231 175.506L65.9731 176.424C65.7211 176.652 65.4151 176.82 65.0551 176.928C64.7071 177.036 64.3471 177.09 63.9751 177.09ZM59.5111 168.612V167.55H65.3611V168.612H59.5111ZM71.9796 177.09C70.9956 177.09 70.1316 176.886 69.3876 176.478C68.6436 176.058 68.0616 175.488 67.6416 174.768C67.2216 174.036 67.0116 173.202 67.0116 172.266C67.0116 171.33 67.2096 170.502 67.6056 169.782C68.0136 169.062 68.5656 168.498 69.2616 168.09C69.9696 167.67 70.7616 167.46 71.6376 167.46C72.5256 167.46 73.3116 167.664 73.9956 168.072C74.6916 168.468 75.2376 169.032 75.6336 169.764C76.0296 170.484 76.2276 171.318 76.2276 172.266C76.2276 172.326 76.2216 172.392 76.2096 172.464C76.2096 172.524 76.2096 172.59 76.2096 172.662H67.9836V171.708H75.5256L75.0216 172.086C75.0216 171.402 74.8716 170.796 74.5716 170.268C74.2836 169.728 73.8876 169.308 73.3836 169.008C72.8796 168.708 72.2976 168.558 71.6376 168.558C70.9896 168.558 70.4076 168.708 69.8916 169.008C69.3756 169.308 68.9736 169.728 68.6856 170.268C68.3976 170.808 68.2536 171.426 68.2536 172.122V172.32C68.2536 173.04 68.4096 173.676 68.7216 174.228C69.0456 174.768 69.4896 175.194 70.0536 175.506C70.6296 175.806 71.2836 175.956 72.0156 175.956C72.5916 175.956 73.1256 175.854 73.6176 175.65C74.1216 175.446 74.5536 175.134 74.9136 174.714L75.6336 175.542C75.2136 176.046 74.6856 176.43 74.0496 176.694C73.4256 176.958 72.7356 177.09 71.9796 177.09ZM78.8289 177V167.55H80.0529V170.124L79.9269 169.674C80.1909 168.954 80.6349 168.408 81.2589 168.036C81.8829 167.652 82.6569 167.46 83.5809 167.46V168.702C83.5329 168.702 83.4849 168.702 83.4369 168.702C83.3889 168.69 83.3409 168.684 83.2929 168.684C82.2969 168.684 81.5169 168.99 80.9529 169.602C80.3889 170.202 80.1069 171.06 80.1069 172.176V177H78.8289ZM93.7524 177.09C92.8644 177.09 92.1804 176.85 91.7004 176.37C91.2204 175.89 90.9804 175.212 90.9804 174.336V165.462H92.2584V174.264C92.2584 174.816 92.3964 175.242 92.6724 175.542C92.9604 175.842 93.3684 175.992 93.8964 175.992C94.4604 175.992 94.9284 175.83 95.3004 175.506L95.7504 176.424C95.4984 176.652 95.1924 176.82 94.8324 176.928C94.4844 177.036 94.1244 177.09 93.7524 177.09ZM89.2884 168.612V167.55H95.1384V168.612H89.2884ZM101.757 177.09C100.773 177.09 99.9089 176.886 99.1649 176.478C98.4209 176.058 97.8389 175.488 97.4189 174.768C96.9989 174.036 96.7889 173.202 96.7889 172.266C96.7889 171.33 96.9869 170.502 97.3829 169.782C97.7909 169.062 98.3429 168.498 99.0389 168.09C99.7469 167.67 100.539 167.46 101.415 167.46C102.303 167.46 103.089 167.664 103.773 168.072C104.469 168.468 105.015 169.032 105.411 169.764C105.807 170.484 106.005 171.318 106.005 172.266C106.005 172.326 105.999 172.392 105.987 172.464C105.987 172.524 105.987 172.59 105.987 172.662H97.7609V171.708H105.303L104.799 172.086C104.799 171.402 104.649 170.796 104.349 170.268C104.061 169.728 103.665 169.308 103.161 169.008C102.657 168.708 102.075 168.558 101.415 168.558C100.767 168.558 100.185 168.708 99.6689 169.008C99.1529 169.308 98.7509 169.728 98.4629 170.268C98.1749 170.808 98.0309 171.426 98.0309 172.122V172.32C98.0309 173.04 98.1869 173.676 98.4989 174.228C98.8229 174.768 99.2669 175.194 99.8309 175.506C100.407 175.806 101.061 175.956 101.793 175.956C102.369 175.956 102.903 175.854 103.395 175.65C103.899 175.446 104.331 175.134 104.691 174.714L105.411 175.542C104.991 176.046 104.463 176.43 103.827 176.694C103.203 176.958 102.513 177.09 101.757 177.09ZM106.903 177L110.899 171.816L110.881 172.446L107.083 167.55H108.523L111.637 171.6L111.097 171.582L114.211 167.55H115.615L111.781 172.5L111.799 171.816L115.831 177H114.373L111.079 172.68L111.583 172.752L108.343 177H106.903ZM120.946 177.09C120.058 177.09 119.374 176.85 118.894 176.37C118.414 175.89 118.174 175.212 118.174 174.336V165.462H119.452V174.264C119.452 174.816 119.59 175.242 119.866 175.542C120.154 175.842 120.562 175.992 121.09 175.992C121.654 175.992 122.122 175.83 122.494 175.506L122.944 176.424C122.692 176.652 122.386 176.82 122.026 176.928C121.678 177.036 121.318 177.09 120.946 177.09ZM116.482 168.612V167.55H122.332V168.612H116.482ZM130.197 177V166.362C130.197 165.522 130.443 164.844 130.935 164.328C131.427 163.812 132.135 163.554 133.059 163.554C133.419 163.554 133.767 163.602 134.103 163.698C134.439 163.794 134.721 163.944 134.949 164.148L134.517 165.102C134.337 164.946 134.127 164.832 133.887 164.76C133.647 164.676 133.389 164.634 133.113 164.634C132.573 164.634 132.159 164.784 131.871 165.084C131.583 165.384 131.439 165.828 131.439 166.416V167.856L131.475 168.45V177H130.197ZM128.505 168.612V167.55H134.355V168.612H128.505ZM139.775 177.09C138.863 177.09 138.041 176.886 137.309 176.478C136.589 176.058 136.019 175.488 135.599 174.768C135.179 174.036 134.969 173.202 134.969 172.266C134.969 171.318 135.179 170.484 135.599 169.764C136.019 169.044 136.589 168.48 137.309 168.072C138.029 167.664 138.851 167.46 139.775 167.46C140.711 167.46 141.539 167.664 142.259 168.072C142.991 168.48 143.561 169.044 143.969 169.764C144.389 170.484 144.599 171.318 144.599 172.266C144.599 173.202 144.389 174.036 143.969 174.768C143.561 175.488 142.991 176.058 142.259 176.478C141.527 176.886 140.699 177.09 139.775 177.09ZM139.775 175.956C140.459 175.956 141.065 175.806 141.593 175.506C142.121 175.194 142.535 174.762 142.835 174.21C143.147 173.646 143.303 172.998 143.303 172.266C143.303 171.522 143.147 170.874 142.835 170.322C142.535 169.77 142.121 169.344 141.593 169.044C141.065 168.732 140.465 168.576 139.793 168.576C139.121 168.576 138.521 168.732 137.993 169.044C137.465 169.344 137.045 169.77 136.733 170.322C136.421 170.874 136.265 171.522 136.265 172.266C136.265 172.998 136.421 173.646 136.733 174.21C137.045 174.762 137.465 175.194 137.993 175.506C138.521 175.806 139.115 175.956 139.775 175.956ZM147.208 177V167.55H148.432V170.124L148.306 169.674C148.57 168.954 149.014 168.408 149.638 168.036C150.262 167.652 151.036 167.46 151.96 167.46V168.702C151.912 168.702 151.864 168.702 151.816 168.702C151.768 168.69 151.72 168.684 151.672 168.684C150.676 168.684 149.896 168.99 149.332 169.602C148.768 170.202 148.486 171.06 148.486 172.176V177H147.208ZM161.681 177.09C160.901 177.09 160.163 176.982 159.467 176.766C158.771 176.538 158.225 176.256 157.829 175.92L158.405 174.912C158.789 175.2 159.281 175.452 159.881 175.668C160.481 175.872 161.111 175.974 161.771 175.974C162.671 175.974 163.319 175.836 163.715 175.56C164.111 175.272 164.309 174.894 164.309 174.426C164.309 174.078 164.195 173.808 163.967 173.616C163.751 173.412 163.463 173.262 163.103 173.166C162.743 173.058 162.341 172.968 161.897 172.896C161.453 172.824 161.009 172.74 160.565 172.644C160.133 172.548 159.737 172.41 159.377 172.23C159.017 172.038 158.723 171.78 158.495 171.456C158.279 171.132 158.171 170.7 158.171 170.16C158.171 169.644 158.315 169.182 158.603 168.774C158.891 168.366 159.311 168.048 159.863 167.82C160.427 167.58 161.111 167.46 161.915 167.46C162.527 167.46 163.139 167.544 163.751 167.712C164.363 167.868 164.867 168.078 165.263 168.342L164.705 169.368C164.285 169.08 163.835 168.876 163.355 168.756C162.875 168.624 162.395 168.558 161.915 168.558C161.063 168.558 160.433 168.708 160.025 169.008C159.629 169.296 159.431 169.668 159.431 170.124C159.431 170.484 159.539 170.766 159.755 170.97C159.983 171.174 160.277 171.336 160.637 171.456C161.009 171.564 161.411 171.654 161.843 171.726C162.287 171.798 162.725 171.888 163.157 171.996C163.601 172.092 164.003 172.23 164.363 172.41C164.735 172.578 165.029 172.824 165.245 173.148C165.473 173.46 165.587 173.874 165.587 174.39C165.587 174.942 165.431 175.422 165.119 175.83C164.819 176.226 164.375 176.538 163.787 176.766C163.211 176.982 162.509 177.09 161.681 177.09ZM171.946 177.09C170.962 177.09 170.098 176.886 169.354 176.478C168.61 176.058 168.028 175.488 167.608 174.768C167.188 174.036 166.978 173.202 166.978 172.266C166.978 171.33 167.176 170.502 167.572 169.782C167.98 169.062 168.532 168.498 169.228 168.09C169.936 167.67 170.728 167.46 171.604 167.46C172.492 167.46 173.278 167.664 173.962 168.072C174.658 168.468 175.204 169.032 175.6 169.764C175.996 170.484 176.194 171.318 176.194 172.266C176.194 172.326 176.188 172.392 176.176 172.464C176.176 172.524 176.176 172.59 176.176 172.662H167.95V171.708H175.492L174.988 172.086C174.988 171.402 174.838 170.796 174.538 170.268C174.25 169.728 173.854 169.308 173.35 169.008C172.846 168.708 172.264 168.558 171.604 168.558C170.956 168.558 170.374 168.708 169.858 169.008C169.342 169.308 168.94 169.728 168.652 170.268C168.364 170.808 168.22 171.426 168.22 172.122V172.32C168.22 173.04 168.376 173.676 168.688 174.228C169.012 174.768 169.456 175.194 170.02 175.506C170.596 175.806 171.25 175.956 171.982 175.956C172.558 175.956 173.092 175.854 173.584 175.65C174.088 175.446 174.52 175.134 174.88 174.714L175.6 175.542C175.18 176.046 174.652 176.43 174.016 176.694C173.392 176.958 172.702 177.09 171.946 177.09ZM184.454 177V174.912L184.4 174.57V171.078C184.4 170.274 184.172 169.656 183.716 169.224C183.272 168.792 182.606 168.576 181.718 168.576C181.106 168.576 180.524 168.678 179.972 168.882C179.42 169.086 178.952 169.356 178.568 169.692L177.992 168.738C178.472 168.33 179.048 168.018 179.72 167.802C180.392 167.574 181.1 167.46 181.844 167.46C183.068 167.46 184.01 167.766 184.67 168.378C185.342 168.978 185.678 169.896 185.678 171.132V177H184.454ZM181.196 177.09C180.488 177.09 179.87 176.976 179.342 176.748C178.826 176.508 178.43 176.184 178.154 175.776C177.878 175.356 177.74 174.876 177.74 174.336C177.74 173.844 177.854 173.4 178.082 173.004C178.322 172.596 178.706 172.272 179.234 172.032C179.774 171.78 180.494 171.654 181.394 171.654H184.652V172.608H181.43C180.518 172.608 179.882 172.77 179.522 173.094C179.174 173.418 179 173.82 179 174.3C179 174.84 179.21 175.272 179.63 175.596C180.05 175.92 180.638 176.082 181.394 176.082C182.114 176.082 182.732 175.92 183.248 175.596C183.776 175.26 184.16 174.78 184.4 174.156L184.688 175.038C184.448 175.662 184.028 176.16 183.428 176.532C182.84 176.904 182.096 177.09 181.196 177.09ZM189.149 177V167.55H190.373V170.124L190.247 169.674C190.511 168.954 190.955 168.408 191.579 168.036C192.203 167.652 192.977 167.46 193.901 167.46V168.702C193.853 168.702 193.805 168.702 193.757 168.702C193.709 168.69 193.661 168.684 193.613 168.684C192.617 168.684 191.837 168.99 191.273 169.602C190.709 170.202 190.427 171.06 190.427 172.176V177H189.149ZM200.069 177.09C199.133 177.09 198.293 176.886 197.549 176.478C196.817 176.058 196.241 175.488 195.821 174.768C195.401 174.036 195.191 173.202 195.191 172.266C195.191 171.318 195.401 170.484 195.821 169.764C196.241 169.044 196.817 168.48 197.549 168.072C198.293 167.664 199.133 167.46 200.069 167.46C200.873 167.46 201.599 167.616 202.247 167.928C202.895 168.24 203.405 168.708 203.777 169.332L202.823 169.98C202.499 169.5 202.097 169.146 201.617 168.918C201.137 168.69 200.615 168.576 200.051 168.576C199.379 168.576 198.773 168.732 198.233 169.044C197.693 169.344 197.267 169.77 196.955 170.322C196.643 170.874 196.487 171.522 196.487 172.266C196.487 173.01 196.643 173.658 196.955 174.21C197.267 174.762 197.693 175.194 198.233 175.506C198.773 175.806 199.379 175.956 200.051 175.956C200.615 175.956 201.137 175.842 201.617 175.614C202.097 175.386 202.499 175.038 202.823 174.57L203.777 175.218C203.405 175.83 202.895 176.298 202.247 176.622C201.599 176.934 200.873 177.09 200.069 177.09ZM210.971 167.46C211.739 167.46 212.411 167.61 212.987 167.91C213.575 168.198 214.031 168.642 214.355 169.242C214.691 169.842 214.859 170.598 214.859 171.51V177H213.581V171.636C213.581 170.64 213.329 169.89 212.825 169.386C212.333 168.87 211.637 168.612 210.737 168.612C210.065 168.612 209.477 168.75 208.973 169.026C208.481 169.29 208.097 169.68 207.821 170.196C207.557 170.7 207.425 171.312 207.425 172.032V177H206.147V163.644H207.425V170.142L207.173 169.656C207.473 168.972 207.953 168.438 208.613 168.054C209.273 167.658 210.059 167.46 210.971 167.46ZM218.437 177.09C218.173 177.09 217.945 176.994 217.753 176.802C217.573 176.61 217.483 176.376 217.483 176.1C217.483 175.812 217.573 175.578 217.753 175.398C217.945 175.218 218.173 175.128 218.437 175.128C218.701 175.128 218.923 175.218 219.103 175.398C219.295 175.578 219.391 175.812 219.391 176.1C219.391 176.376 219.295 176.61 219.103 176.802C218.923 176.994 218.701 177.09 218.437 177.09ZM222.252 177.09C221.988 177.09 221.76 176.994 221.568 176.802C221.388 176.61 221.298 176.376 221.298 176.1C221.298 175.812 221.388 175.578 221.568 175.398C221.76 175.218 221.988 175.128 222.252 175.128C222.516 175.128 222.738 175.218 222.918 175.398C223.11 175.578 223.206 175.812 223.206 176.1C223.206 176.376 223.11 176.61 222.918 176.802C222.738 176.994 222.516 177.09 222.252 177.09ZM226.066 177.09C225.802 177.09 225.574 176.994 225.382 176.802C225.202 176.61 225.112 176.376 225.112 176.1C225.112 175.812 225.202 175.578 225.382 175.398C225.574 175.218 225.802 175.128 226.066 175.128C226.33 175.128 226.552 175.218 226.732 175.398C226.924 175.578 227.02 175.812 227.02 176.1C227.02 176.376 226.924 176.61 226.732 176.802C226.552 176.994 226.33 177.09 226.066 177.09Z" fill="#9B9BB6"/>
<path d="M336.524 86.108C335.576 86.108 334.7 85.952 333.896 85.64C333.092 85.316 332.396 84.866 331.808 84.29C331.22 83.714 330.758 83.036 330.422 82.256C330.098 81.476 329.936 80.624 329.936 79.7C329.936 78.776 330.098 77.924 330.422 77.144C330.758 76.364 331.22 75.686 331.808 75.11C332.408 74.534 333.11 74.09 333.914 73.778C334.718 73.454 335.594 73.292 336.542 73.292C337.454 73.292 338.312 73.448 339.116 73.76C339.92 74.06 340.598 74.516 341.15 75.128L340.304 75.974C339.788 75.446 339.218 75.068 338.594 74.84C337.97 74.6 337.298 74.48 336.578 74.48C335.822 74.48 335.12 74.612 334.472 74.876C333.824 75.128 333.26 75.494 332.78 75.974C332.3 76.442 331.922 76.994 331.646 77.63C331.382 78.254 331.25 78.944 331.25 79.7C331.25 80.456 331.382 81.152 331.646 81.788C331.922 82.412 332.3 82.964 332.78 83.444C333.26 83.912 333.824 84.278 334.472 84.542C335.12 84.794 335.822 84.92 336.578 84.92C337.298 84.92 337.97 84.8 338.594 84.56C339.218 84.32 339.788 83.936 340.304 83.408L341.15 84.254C340.598 84.866 339.92 85.328 339.116 85.64C338.312 85.952 337.448 86.108 336.524 86.108ZM348.544 76.46C349.312 76.46 349.984 76.61 350.56 76.91C351.148 77.198 351.604 77.642 351.928 78.242C352.264 78.842 352.432 79.598 352.432 80.51V86H351.154V80.636C351.154 79.64 350.902 78.89 350.398 78.386C349.906 77.87 349.21 77.612 348.31 77.612C347.638 77.612 347.05 77.75 346.546 78.026C346.054 78.29 345.67 78.68 345.394 79.196C345.13 79.7 344.998 80.312 344.998 81.032V86H343.72V72.644H344.998V79.142L344.746 78.656C345.046 77.972 345.526 77.438 346.186 77.054C346.846 76.658 347.632 76.46 348.544 76.46ZM359.736 86.09C358.824 86.09 358.002 85.886 357.27 85.478C356.55 85.058 355.98 84.488 355.56 83.768C355.14 83.036 354.93 82.202 354.93 81.266C354.93 80.318 355.14 79.484 355.56 78.764C355.98 78.044 356.55 77.48 357.27 77.072C357.99 76.664 358.812 76.46 359.736 76.46C360.672 76.46 361.5 76.664 362.22 77.072C362.952 77.48 363.522 78.044 363.93 78.764C364.35 79.484 364.56 80.318 364.56 81.266C364.56 82.202 364.35 83.036 363.93 83.768C363.522 84.488 362.952 85.058 362.22 85.478C361.488 85.886 360.66 86.09 359.736 86.09ZM359.736 84.956C360.42 84.956 361.026 84.806 361.554 84.506C362.082 84.194 362.496 83.762 362.796 83.21C363.108 82.646 363.264 81.998 363.264 81.266C363.264 80.522 363.108 79.874 362.796 79.322C362.496 78.77 362.082 78.344 361.554 78.044C361.026 77.732 360.426 77.576 359.754 77.576C359.082 77.576 358.482 77.732 357.954 78.044C357.426 78.344 357.006 78.77 356.694 79.322C356.382 79.874 356.226 80.522 356.226 81.266C356.226 81.998 356.382 82.646 356.694 83.21C357.006 83.762 357.426 84.194 357.954 84.506C358.482 84.806 359.076 84.956 359.736 84.956ZM371.021 86.09C370.109 86.09 369.287 85.886 368.555 85.478C367.835 85.058 367.265 84.488 366.845 83.768C366.425 83.036 366.215 82.202 366.215 81.266C366.215 80.318 366.425 79.484 366.845 78.764C367.265 78.044 367.835 77.48 368.555 77.072C369.275 76.664 370.097 76.46 371.021 76.46C371.957 76.46 372.785 76.664 373.505 77.072C374.237 77.48 374.807 78.044 375.215 78.764C375.635 79.484 375.845 80.318 375.845 81.266C375.845 82.202 375.635 83.036 375.215 83.768C374.807 84.488 374.237 85.058 373.505 85.478C372.773 85.886 371.945 86.09 371.021 86.09ZM371.021 84.956C371.705 84.956 372.311 84.806 372.839 84.506C373.367 84.194 373.781 83.762 374.081 83.21C374.393 82.646 374.549 81.998 374.549 81.266C374.549 80.522 374.393 79.874 374.081 79.322C373.781 78.77 373.367 78.344 372.839 78.044C372.311 77.732 371.711 77.576 371.039 77.576C370.367 77.576 369.767 77.732 369.239 78.044C368.711 78.344 368.291 78.77 367.979 79.322C367.667 79.874 367.511 80.522 367.511 81.266C367.511 81.998 367.667 82.646 367.979 83.21C368.291 83.762 368.711 84.194 369.239 84.506C369.767 84.806 370.361 84.956 371.021 84.956ZM380.992 86.09C380.212 86.09 379.474 85.982 378.778 85.766C378.082 85.538 377.536 85.256 377.14 84.92L377.716 83.912C378.1 84.2 378.592 84.452 379.192 84.668C379.792 84.872 380.422 84.974 381.082 84.974C381.982 84.974 382.63 84.836 383.026 84.56C383.422 84.272 383.62 83.894 383.62 83.426C383.62 83.078 383.506 82.808 383.278 82.616C383.062 82.412 382.774 82.262 382.414 82.166C382.054 82.058 381.652 81.968 381.208 81.896C380.764 81.824 380.32 81.74 379.876 81.644C379.444 81.548 379.048 81.41 378.688 81.23C378.328 81.038 378.034 80.78 377.806 80.456C377.59 80.132 377.482 79.7 377.482 79.16C377.482 78.644 377.626 78.182 377.914 77.774C378.202 77.366 378.622 77.048 379.174 76.82C379.738 76.58 380.422 76.46 381.226 76.46C381.838 76.46 382.45 76.544 383.062 76.712C383.674 76.868 384.178 77.078 384.574 77.342L384.016 78.368C383.596 78.08 383.146 77.876 382.666 77.756C382.186 77.624 381.706 77.558 381.226 77.558C380.374 77.558 379.744 77.708 379.336 78.008C378.94 78.296 378.742 78.668 378.742 79.124C378.742 79.484 378.85 79.766 379.066 79.97C379.294 80.174 379.588 80.336 379.948 80.456C380.32 80.564 380.722 80.654 381.154 80.726C381.598 80.798 382.036 80.888 382.468 80.996C382.912 81.092 383.314 81.23 383.674 81.41C384.046 81.578 384.34 81.824 384.556 82.148C384.784 82.46 384.898 82.874 384.898 83.39C384.898 83.942 384.742 84.422 384.43 84.83C384.13 85.226 383.686 85.538 383.098 85.766C382.522 85.982 381.82 86.09 380.992 86.09ZM391.257 86.09C390.273 86.09 389.409 85.886 388.665 85.478C387.921 85.058 387.339 84.488 386.919 83.768C386.499 83.036 386.289 82.202 386.289 81.266C386.289 80.33 386.487 79.502 386.883 78.782C387.291 78.062 387.843 77.498 388.539 77.09C389.247 76.67 390.039 76.46 390.915 76.46C391.803 76.46 392.589 76.664 393.273 77.072C393.969 77.468 394.515 78.032 394.911 78.764C395.307 79.484 395.505 80.318 395.505 81.266C395.505 81.326 395.499 81.392 395.487 81.464C395.487 81.524 395.487 81.59 395.487 81.662H387.261V80.708H394.803L394.299 81.086C394.299 80.402 394.149 79.796 393.849 79.268C393.561 78.728 393.165 78.308 392.661 78.008C392.157 77.708 391.575 77.558 390.915 77.558C390.267 77.558 389.685 77.708 389.169 78.008C388.653 78.308 388.251 78.728 387.963 79.268C387.675 79.808 387.531 80.426 387.531 81.122V81.32C387.531 82.04 387.687 82.676 387.999 83.228C388.323 83.768 388.767 84.194 389.331 84.506C389.907 84.806 390.561 84.956 391.293 84.956C391.869 84.956 392.403 84.854 392.895 84.65C393.399 84.446 393.831 84.134 394.191 83.714L394.911 84.542C394.491 85.046 393.963 85.43 393.327 85.694C392.703 85.958 392.013 86.09 391.257 86.09Z" fill="#9B9BB6"/>
<path d="M336.524 177.108C335.576 177.108 334.7 176.952 333.896 176.64C333.092 176.316 332.396 175.866 331.808 175.29C331.22 174.714 330.758 174.036 330.422 173.256C330.098 172.476 329.936 171.624 329.936 170.7C329.936 169.776 330.098 168.924 330.422 168.144C330.758 167.364 331.22 166.686 331.808 166.11C332.408 165.534 333.11 165.09 333.914 164.778C334.718 164.454 335.594 164.292 336.542 164.292C337.454 164.292 338.312 164.448 339.116 164.76C339.92 165.06 340.598 165.516 341.15 166.128L340.304 166.974C339.788 166.446 339.218 166.068 338.594 165.84C337.97 165.6 337.298 165.48 336.578 165.48C335.822 165.48 335.12 165.612 334.472 165.876C333.824 166.128 333.26 166.494 332.78 166.974C332.3 167.442 331.922 167.994 331.646 168.63C331.382 169.254 331.25 169.944 331.25 170.7C331.25 171.456 331.382 172.152 331.646 172.788C331.922 173.412 332.3 173.964 332.78 174.444C333.26 174.912 333.824 175.278 334.472 175.542C335.12 175.794 335.822 175.92 336.578 175.92C337.298 175.92 337.97 175.8 338.594 175.56C339.218 175.32 339.788 174.936 340.304 174.408L341.15 175.254C340.598 175.866 339.92 176.328 339.116 176.64C338.312 176.952 337.448 177.108 336.524 177.108ZM348.544 167.46C349.312 167.46 349.984 167.61 350.56 167.91C351.148 168.198 351.604 168.642 351.928 169.242C352.264 169.842 352.432 170.598 352.432 171.51V177H351.154V171.636C351.154 170.64 350.902 169.89 350.398 169.386C349.906 168.87 349.21 168.612 348.31 168.612C347.638 168.612 347.05 168.75 346.546 169.026C346.054 169.29 345.67 169.68 345.394 170.196C345.13 170.7 344.998 171.312 344.998 172.032V177H343.72V163.644H344.998V170.142L344.746 169.656C345.046 168.972 345.526 168.438 346.186 168.054C346.846 167.658 347.632 167.46 348.544 167.46ZM359.736 177.09C358.824 177.09 358.002 176.886 357.27 176.478C356.55 176.058 355.98 175.488 355.56 174.768C355.14 174.036 354.93 173.202 354.93 172.266C354.93 171.318 355.14 170.484 355.56 169.764C355.98 169.044 356.55 168.48 357.27 168.072C357.99 167.664 358.812 167.46 359.736 167.46C360.672 167.46 361.5 167.664 362.22 168.072C362.952 168.48 363.522 169.044 363.93 169.764C364.35 170.484 364.56 171.318 364.56 172.266C364.56 173.202 364.35 174.036 363.93 174.768C363.522 175.488 362.952 176.058 362.22 176.478C361.488 176.886 360.66 177.09 359.736 177.09ZM359.736 175.956C360.42 175.956 361.026 175.806 361.554 175.506C362.082 175.194 362.496 174.762 362.796 174.21C363.108 173.646 363.264 172.998 363.264 172.266C363.264 171.522 363.108 170.874 362.796 170.322C362.496 169.77 362.082 169.344 361.554 169.044C361.026 168.732 360.426 168.576 359.754 168.576C359.082 168.576 358.482 168.732 357.954 169.044C357.426 169.344 357.006 169.77 356.694 170.322C356.382 170.874 356.226 171.522 356.226 172.266C356.226 172.998 356.382 173.646 356.694 174.21C357.006 174.762 357.426 175.194 357.954 175.506C358.482 175.806 359.076 175.956 359.736 175.956ZM371.021 177.09C370.109 177.09 369.287 176.886 368.555 176.478C367.835 176.058 367.265 175.488 366.845 174.768C366.425 174.036 366.215 173.202 366.215 172.266C366.215 171.318 366.425 170.484 366.845 169.764C367.265 169.044 367.835 168.48 368.555 168.072C369.275 167.664 370.097 167.46 371.021 167.46C371.957 167.46 372.785 167.664 373.505 168.072C374.237 168.48 374.807 169.044 375.215 169.764C375.635 170.484 375.845 171.318 375.845 172.266C375.845 173.202 375.635 174.036 375.215 174.768C374.807 175.488 374.237 176.058 373.505 176.478C372.773 176.886 371.945 177.09 371.021 177.09ZM371.021 175.956C371.705 175.956 372.311 175.806 372.839 175.506C373.367 175.194 373.781 174.762 374.081 174.21C374.393 173.646 374.549 172.998 374.549 172.266C374.549 171.522 374.393 170.874 374.081 170.322C373.781 169.77 373.367 169.344 372.839 169.044C372.311 168.732 371.711 168.576 371.039 168.576C370.367 168.576 369.767 168.732 369.239 169.044C368.711 169.344 368.291 169.77 367.979 170.322C367.667 170.874 367.511 171.522 367.511 172.266C367.511 172.998 367.667 173.646 367.979 174.21C368.291 174.762 368.711 175.194 369.239 175.506C369.767 175.806 370.361 175.956 371.021 175.956ZM380.992 177.09C380.212 177.09 379.474 176.982 378.778 176.766C378.082 176.538 377.536 176.256 377.14 175.92L377.716 174.912C378.1 175.2 378.592 175.452 379.192 175.668C379.792 175.872 380.422 175.974 381.082 175.974C381.982 175.974 382.63 175.836 383.026 175.56C383.422 175.272 383.62 174.894 383.62 174.426C383.62 174.078 383.506 173.808 383.278 173.616C383.062 173.412 382.774 173.262 382.414 173.166C382.054 173.058 381.652 172.968 381.208 172.896C380.764 172.824 380.32 172.74 379.876 172.644C379.444 172.548 379.048 172.41 378.688 172.23C378.328 172.038 378.034 171.78 377.806 171.456C377.59 171.132 377.482 170.7 377.482 170.16C377.482 169.644 377.626 169.182 377.914 168.774C378.202 168.366 378.622 168.048 379.174 167.82C379.738 167.58 380.422 167.46 381.226 167.46C381.838 167.46 382.45 167.544 383.062 167.712C383.674 167.868 384.178 168.078 384.574 168.342L384.016 169.368C383.596 169.08 383.146 168.876 382.666 168.756C382.186 168.624 381.706 168.558 381.226 168.558C380.374 168.558 379.744 168.708 379.336 169.008C378.94 169.296 378.742 169.668 378.742 170.124C378.742 170.484 378.85 170.766 379.066 170.97C379.294 171.174 379.588 171.336 379.948 171.456C380.32 171.564 380.722 171.654 381.154 171.726C381.598 171.798 382.036 171.888 382.468 171.996C382.912 172.092 383.314 172.23 383.674 172.41C384.046 172.578 384.34 172.824 384.556 173.148C384.784 173.46 384.898 173.874 384.898 174.39C384.898 174.942 384.742 175.422 384.43 175.83C384.13 176.226 383.686 176.538 383.098 176.766C382.522 176.982 381.82 177.09 380.992 177.09ZM391.257 177.09C390.273 177.09 389.409 176.886 388.665 176.478C387.921 176.058 387.339 175.488 386.919 174.768C386.499 174.036 386.289 173.202 386.289 172.266C386.289 171.33 386.487 170.502 386.883 169.782C387.291 169.062 387.843 168.498 388.539 168.09C389.247 167.67 390.039 167.46 390.915 167.46C391.803 167.46 392.589 167.664 393.273 168.072C393.969 168.468 394.515 169.032 394.911 169.764C395.307 170.484 395.505 171.318 395.505 172.266C395.505 172.326 395.499 172.392 395.487 172.464C395.487 172.524 395.487 172.59 395.487 172.662H387.261V171.708H394.803L394.299 172.086C394.299 171.402 394.149 170.796 393.849 170.268C393.561 169.728 393.165 169.308 392.661 169.008C392.157 168.708 391.575 168.558 390.915 168.558C390.267 168.558 389.685 168.708 389.169 169.008C388.653 169.308 388.251 169.728 387.963 170.268C387.675 170.808 387.531 171.426 387.531 172.122V172.32C387.531 173.04 387.687 173.676 387.999 174.228C388.323 174.768 388.767 175.194 389.331 175.506C389.907 175.806 390.561 175.956 391.293 175.956C391.869 175.956 392.403 175.854 392.895 175.65C393.399 175.446 393.831 175.134 394.191 174.714L394.911 175.542C394.491 176.046 393.963 176.43 393.327 176.694C392.703 176.958 392.013 177.09 391.257 177.09Z" fill="#9B9BB6"/>
<path d="M42.524 269.108C41.576 269.108 40.7 268.952 39.896 268.64C39.092 268.316 38.396 267.866 37.808 267.29C37.22 266.714 36.758 266.036 36.422 265.256C36.098 264.476 35.936 263.624 35.936 262.7C35.936 261.776 36.098 260.924 36.422 260.144C36.758 259.364 37.22 258.686 37.808 258.11C38.408 257.534 39.11 257.09 39.914 256.778C40.718 256.454 41.594 256.292 42.542 256.292C43.454 256.292 44.312 256.448 45.116 256.76C45.92 257.06 46.598 257.516 47.15 258.128L46.304 258.974C45.788 258.446 45.218 258.068 44.594 257.84C43.97 257.6 43.298 257.48 42.578 257.48C41.822 257.48 41.12 257.612 40.472 257.876C39.824 258.128 39.26 258.494 38.78 258.974C38.3 259.442 37.922 259.994 37.646 260.63C37.382 261.254 37.25 261.944 37.25 262.7C37.25 263.456 37.382 264.152 37.646 264.788C37.922 265.412 38.3 265.964 38.78 266.444C39.26 266.912 39.824 267.278 40.472 267.542C41.12 267.794 41.822 267.92 42.578 267.92C43.298 267.92 43.97 267.8 44.594 267.56C45.218 267.32 45.788 266.936 46.304 266.408L47.15 267.254C46.598 267.866 45.92 268.328 45.116 268.64C44.312 268.952 43.448 269.108 42.524 269.108ZM54.5435 259.46C55.3115 259.46 55.9835 259.61 56.5595 259.91C57.1475 260.198 57.6035 260.642 57.9275 261.242C58.2635 261.842 58.4315 262.598 58.4315 263.51V269H57.1535V263.636C57.1535 262.64 56.9015 261.89 56.3975 261.386C55.9055 260.87 55.2095 260.612 54.3095 260.612C53.6375 260.612 53.0495 260.75 52.5455 261.026C52.0535 261.29 51.6695 261.68 51.3935 262.196C51.1295 262.7 50.9975 263.312 50.9975 264.032V269H49.7195V255.644H50.9975V262.142L50.7455 261.656C51.0455 260.972 51.5255 260.438 52.1855 260.054C52.8455 259.658 53.6315 259.46 54.5435 259.46ZM65.7356 269.09C64.8236 269.09 64.0016 268.886 63.2696 268.478C62.5496 268.058 61.9796 267.488 61.5596 266.768C61.1396 266.036 60.9296 265.202 60.9296 264.266C60.9296 263.318 61.1396 262.484 61.5596 261.764C61.9796 261.044 62.5496 260.48 63.2696 260.072C63.9896 259.664 64.8116 259.46 65.7356 259.46C66.6716 259.46 67.4996 259.664 68.2196 260.072C68.9516 260.48 69.5216 261.044 69.9296 261.764C70.3496 262.484 70.5596 263.318 70.5596 264.266C70.5596 265.202 70.3496 266.036 69.9296 266.768C69.5216 267.488 68.9516 268.058 68.2196 268.478C67.4876 268.886 66.6596 269.09 65.7356 269.09ZM65.7356 267.956C66.4196 267.956 67.0256 267.806 67.5536 267.506C68.0816 267.194 68.4956 266.762 68.7956 266.21C69.1076 265.646 69.2636 264.998 69.2636 264.266C69.2636 263.522 69.1076 262.874 68.7956 262.322C68.4956 261.77 68.0816 261.344 67.5536 261.044C67.0256 260.732 66.4256 260.576 65.7536 260.576C65.0816 260.576 64.4816 260.732 63.9536 261.044C63.4256 261.344 63.0056 261.77 62.6936 262.322C62.3816 262.874 62.2256 263.522 62.2256 264.266C62.2256 264.998 62.3816 265.646 62.6936 266.21C63.0056 266.762 63.4256 267.194 63.9536 267.506C64.4816 267.806 65.0756 267.956 65.7356 267.956ZM77.0207 269.09C76.1087 269.09 75.2867 268.886 74.5547 268.478C73.8347 268.058 73.2647 267.488 72.8447 266.768C72.4247 266.036 72.2147 265.202 72.2147 264.266C72.2147 263.318 72.4247 262.484 72.8447 261.764C73.2647 261.044 73.8347 260.48 74.5547 260.072C75.2747 259.664 76.0967 259.46 77.0207 259.46C77.9567 259.46 78.7847 259.664 79.5047 260.072C80.2367 260.48 80.8067 261.044 81.2147 261.764C81.6347 262.484 81.8447 263.318 81.8447 264.266C81.8447 265.202 81.6347 266.036 81.2147 266.768C80.8067 267.488 80.2367 268.058 79.5047 268.478C78.7727 268.886 77.9447 269.09 77.0207 269.09ZM77.0207 267.956C77.7047 267.956 78.3107 267.806 78.8387 267.506C79.3667 267.194 79.7807 266.762 80.0807 266.21C80.3927 265.646 80.5487 264.998 80.5487 264.266C80.5487 263.522 80.3927 262.874 80.0807 262.322C79.7807 261.77 79.3667 261.344 78.8387 261.044C78.3107 260.732 77.7107 260.576 77.0387 260.576C76.3667 260.576 75.7667 260.732 75.2387 261.044C74.7107 261.344 74.2907 261.77 73.9787 262.322C73.6667 262.874 73.5107 263.522 73.5107 264.266C73.5107 264.998 73.6667 265.646 73.9787 266.21C74.2907 266.762 74.7107 267.194 75.2387 267.506C75.7667 267.806 76.3607 267.956 77.0207 267.956ZM86.9919 269.09C86.2119 269.09 85.4739 268.982 84.7779 268.766C84.0819 268.538 83.5359 268.256 83.1399 267.92L83.7159 266.912C84.0999 267.2 84.5919 267.452 85.1919 267.668C85.7919 267.872 86.4219 267.974 87.0819 267.974C87.9819 267.974 88.6299 267.836 89.0259 267.56C89.4219 267.272 89.6199 266.894 89.6199 266.426C89.6199 266.078 89.5059 265.808 89.2779 265.616C89.0619 265.412 88.7739 265.262 88.4139 265.166C88.0539 265.058 87.6519 264.968 87.2079 264.896C86.7639 264.824 86.3199 264.74 85.8759 264.644C85.4439 264.548 85.0479 264.41 84.6879 264.23C84.3279 264.038 84.0339 263.78 83.8059 263.456C83.5899 263.132 83.4819 262.7 83.4819 262.16C83.4819 261.644 83.6259 261.182 83.9139 260.774C84.2019 260.366 84.6219 260.048 85.1739 259.82C85.7379 259.58 86.4219 259.46 87.2259 259.46C87.8379 259.46 88.4499 259.544 89.0619 259.712C89.6739 259.868 90.1779 260.078 90.5739 260.342L90.0159 261.368C89.5959 261.08 89.1459 260.876 88.6659 260.756C88.1859 260.624 87.7059 260.558 87.2259 260.558C86.3739 260.558 85.7439 260.708 85.3359 261.008C84.9399 261.296 84.7419 261.668 84.7419 262.124C84.7419 262.484 84.8499 262.766 85.0659 262.97C85.2939 263.174 85.5879 263.336 85.9479 263.456C86.3199 263.564 86.7219 263.654 87.1539 263.726C87.5979 263.798 88.0359 263.888 88.4679 263.996C88.9119 264.092 89.3139 264.23 89.6739 264.41C90.0459 264.578 90.3399 264.824 90.5559 265.148C90.7839 265.46 90.8979 265.874 90.8979 266.39C90.8979 266.942 90.7419 267.422 90.4299 267.83C90.1299 268.226 89.6859 268.538 89.0979 268.766C88.5219 268.982 87.8199 269.09 86.9919 269.09ZM97.2569 269.09C96.2729 269.09 95.4089 268.886 94.6649 268.478C93.9209 268.058 93.3389 267.488 92.9189 266.768C92.4989 266.036 92.2889 265.202 92.2889 264.266C92.2889 263.33 92.4869 262.502 92.8829 261.782C93.2909 261.062 93.8429 260.498 94.5389 260.09C95.2469 259.67 96.0389 259.46 96.9149 259.46C97.8029 259.46 98.5889 259.664 99.2729 260.072C99.9689 260.468 100.515 261.032 100.911 261.764C101.307 262.484 101.505 263.318 101.505 264.266C101.505 264.326 101.499 264.392 101.487 264.464C101.487 264.524 101.487 264.59 101.487 264.662H93.2609V263.708H100.803L100.299 264.086C100.299 263.402 100.149 262.796 99.8489 262.268C99.5609 261.728 99.1649 261.308 98.6609 261.008C98.1569 260.708 97.5749 260.558 96.9149 260.558C96.2669 260.558 95.6849 260.708 95.1689 261.008C94.6529 261.308 94.2509 261.728 93.9629 262.268C93.6749 262.808 93.5309 263.426 93.5309 264.122V264.32C93.5309 265.04 93.6869 265.676 93.9989 266.228C94.3229 266.768 94.7669 267.194 95.3309 267.506C95.9069 267.806 96.5609 267.956 97.2929 267.956C97.8689 267.956 98.4029 267.854 98.8949 267.65C99.3989 267.446 99.8309 267.134 100.191 266.714L100.911 267.542C100.491 268.046 99.9629 268.43 99.3269 268.694C98.7029 268.958 98.0129 269.09 97.2569 269.09Z" fill="#9B9BB6"/>
<path d="M332.24 262.502H338.9V263.654H332.24V262.502ZM332.384 269H331.052V256.4H339.692V257.552H332.384V269ZM341.997 269V259.55H343.221V262.124L343.095 261.674C343.359 260.954 343.803 260.408 344.427 260.036C345.051 259.652 345.825 259.46 346.749 259.46V260.702C346.701 260.702 346.653 260.702 346.605 260.702C346.557 260.69 346.509 260.684 346.461 260.684C345.465 260.684 344.685 260.99 344.121 261.602C343.557 262.202 343.275 263.06 343.275 264.176V269H341.997ZM352.845 269.09C351.933 269.09 351.111 268.886 350.379 268.478C349.659 268.058 349.089 267.488 348.669 266.768C348.249 266.036 348.039 265.202 348.039 264.266C348.039 263.318 348.249 262.484 348.669 261.764C349.089 261.044 349.659 260.48 350.379 260.072C351.099 259.664 351.921 259.46 352.845 259.46C353.781 259.46 354.609 259.664 355.329 260.072C356.061 260.48 356.631 261.044 357.039 261.764C357.459 262.484 357.669 263.318 357.669 264.266C357.669 265.202 357.459 266.036 357.039 266.768C356.631 267.488 356.061 268.058 355.329 268.478C354.597 268.886 353.769 269.09 352.845 269.09ZM352.845 267.956C353.529 267.956 354.135 267.806 354.663 267.506C355.191 267.194 355.605 266.762 355.905 266.21C356.217 265.646 356.373 264.998 356.373 264.266C356.373 263.522 356.217 262.874 355.905 262.322C355.605 261.77 355.191 261.344 354.663 261.044C354.135 260.732 353.535 260.576 352.863 260.576C352.191 260.576 351.591 260.732 351.063 261.044C350.535 261.344 350.115 261.77 349.803 262.322C349.491 262.874 349.335 263.522 349.335 264.266C349.335 264.998 349.491 265.646 349.803 266.21C350.115 266.762 350.535 267.194 351.063 267.506C351.591 267.806 352.185 267.956 352.845 267.956ZM372.086 259.46C372.854 259.46 373.52 259.61 374.084 259.91C374.66 260.198 375.104 260.642 375.416 261.242C375.74 261.842 375.902 262.598 375.902 263.51V269H374.624V263.636C374.624 262.64 374.384 261.89 373.904 261.386C373.436 260.87 372.77 260.612 371.906 260.612C371.258 260.612 370.694 260.75 370.214 261.026C369.746 261.29 369.38 261.68 369.116 262.196C368.864 262.7 368.738 263.312 368.738 264.032V269H367.46V263.636C367.46 262.64 367.22 261.89 366.74 261.386C366.26 260.87 365.588 260.612 364.724 260.612C364.088 260.612 363.53 260.75 363.05 261.026C362.57 261.29 362.198 261.68 361.934 262.196C361.682 262.7 361.556 263.312 361.556 264.032V269H360.278V259.55H361.502V262.106L361.304 261.656C361.592 260.972 362.054 260.438 362.69 260.054C363.338 259.658 364.1 259.46 364.976 259.46C365.9 259.46 366.686 259.694 367.334 260.162C367.982 260.618 368.402 261.308 368.594 262.232L368.09 262.034C368.366 261.266 368.852 260.648 369.548 260.18C370.256 259.7 371.102 259.46 372.086 259.46Z" fill="#9B9BB6"/>
<path d="M473.5 269V257.552H469.072V256.4H479.26V257.552H474.832V269H473.5ZM483.986 269.09C483.074 269.09 482.252 268.886 481.52 268.478C480.8 268.058 480.23 267.488 479.81 266.768C479.39 266.036 479.18 265.202 479.18 264.266C479.18 263.318 479.39 262.484 479.81 261.764C480.23 261.044 480.8 260.48 481.52 260.072C482.24 259.664 483.062 259.46 483.986 259.46C484.922 259.46 485.75 259.664 486.47 260.072C487.202 260.48 487.772 261.044 488.18 261.764C488.6 262.484 488.81 263.318 488.81 264.266C488.81 265.202 488.6 266.036 488.18 266.768C487.772 267.488 487.202 268.058 486.47 268.478C485.738 268.886 484.91 269.09 483.986 269.09ZM483.986 267.956C484.67 267.956 485.276 267.806 485.804 267.506C486.332 267.194 486.746 266.762 487.046 266.21C487.358 265.646 487.514 264.998 487.514 264.266C487.514 263.522 487.358 262.874 487.046 262.322C486.746 261.77 486.332 261.344 485.804 261.044C485.276 260.732 484.676 260.576 484.004 260.576C483.332 260.576 482.732 260.732 482.204 261.044C481.676 261.344 481.256 261.77 480.944 262.322C480.632 262.874 480.476 263.522 480.476 264.266C480.476 264.998 480.632 265.646 480.944 266.21C481.256 266.762 481.676 267.194 482.204 267.506C482.732 267.806 483.326 267.956 483.986 267.956Z" fill="#9B9BB6"/>
<path d="M42.524 146.144C41.564 146.144 40.676 145.988 39.86 145.676C39.056 145.352 38.354 144.902 37.754 144.326C37.166 143.738 36.704 143.054 36.368 142.274C36.032 141.494 35.864 140.636 35.864 139.7C35.864 138.764 36.032 137.906 36.368 137.126C36.704 136.346 37.172 135.668 37.772 135.092C38.372 134.504 39.074 134.054 39.878 133.742C40.694 133.418 41.582 133.256 42.542 133.256C43.514 133.256 44.408 133.424 45.224 133.76C46.052 134.084 46.754 134.57 47.33 135.218L46.16 136.352C45.68 135.848 45.14 135.476 44.54 135.236C43.94 134.984 43.298 134.858 42.614 134.858C41.906 134.858 41.246 134.978 40.634 135.218C40.034 135.458 39.512 135.794 39.068 136.226C38.624 136.658 38.276 137.174 38.024 137.774C37.784 138.362 37.664 139.004 37.664 139.7C37.664 140.396 37.784 141.044 38.024 141.644C38.276 142.232 38.624 142.742 39.068 143.174C39.512 143.606 40.034 143.942 40.634 144.182C41.246 144.422 41.906 144.542 42.614 144.542C43.298 144.542 43.94 144.422 44.54 144.182C45.14 143.93 45.68 143.546 46.16 143.03L47.33 144.164C46.754 144.812 46.052 145.304 45.224 145.64C44.408 145.976 43.508 146.144 42.524 146.144ZM55.4448 146V143.984L55.3548 143.606V140.168C55.3548 139.436 55.1388 138.872 54.7068 138.476C54.2868 138.068 53.6508 137.864 52.7988 137.864C52.2348 137.864 51.6828 137.96 51.1428 138.152C50.6028 138.332 50.1468 138.578 49.7748 138.89L49.0548 137.594C49.5468 137.198 50.1348 136.898 50.8188 136.694C51.5148 136.478 52.2408 136.37 52.9968 136.37C54.3048 136.37 55.3128 136.688 56.0208 137.324C56.7288 137.96 57.0828 138.932 57.0828 140.24V146H55.4448ZM52.3128 146.108C51.6048 146.108 50.9808 145.988 50.4408 145.748C49.9128 145.508 49.5048 145.178 49.2168 144.758C48.9288 144.326 48.7848 143.84 48.7848 143.3C48.7848 142.784 48.9048 142.316 49.1448 141.896C49.3968 141.476 49.7988 141.14 50.3508 140.888C50.9148 140.636 51.6708 140.51 52.6188 140.51H55.6428V141.752H52.6908C51.8268 141.752 51.2448 141.896 50.9448 142.184C50.6448 142.472 50.4948 142.82 50.4948 143.228C50.4948 143.696 50.6808 144.074 51.0528 144.362C51.4248 144.638 51.9408 144.776 52.6008 144.776C53.2488 144.776 53.8128 144.632 54.2928 144.344C54.7848 144.056 55.1388 143.636 55.3548 143.084L55.6968 144.272C55.4688 144.836 55.0668 145.286 54.4908 145.622C53.9148 145.946 53.1888 146.108 52.3128 146.108ZM63.5566 146.108C62.5966 146.108 61.8526 145.85 61.3246 145.334C60.7966 144.818 60.5326 144.08 60.5326 143.12V134.372H62.2606V143.048C62.2606 143.564 62.3866 143.96 62.6386 144.236C62.9026 144.512 63.2746 144.65 63.7546 144.65C64.2946 144.65 64.7446 144.5 65.1046 144.2L65.6446 145.442C65.3806 145.67 65.0626 145.838 64.6906 145.946C64.3306 146.054 63.9526 146.108 63.5566 146.108ZM58.9126 137.882V136.46H64.9966V137.882H58.9126ZM71.6653 146.108C70.6453 146.108 69.7453 145.898 68.9653 145.478C68.1973 145.058 67.5973 144.482 67.1653 143.75C66.7453 143.018 66.5353 142.178 66.5353 141.23C66.5353 140.282 66.7393 139.442 67.1473 138.71C67.5673 137.978 68.1373 137.408 68.8573 137C69.5893 136.58 70.4113 136.37 71.3233 136.37C72.2473 136.37 73.0633 136.574 73.7713 136.982C74.4793 137.39 75.0313 137.966 75.4273 138.71C75.8353 139.442 76.0393 140.3 76.0393 141.284C76.0393 141.356 76.0333 141.44 76.0213 141.536C76.0213 141.632 76.0153 141.722 76.0033 141.806H67.8853V140.564H75.1033L74.4013 140.996C74.4133 140.384 74.2873 139.838 74.0233 139.358C73.7593 138.878 73.3933 138.506 72.9253 138.242C72.4693 137.966 71.9353 137.828 71.3233 137.828C70.7233 137.828 70.1893 137.966 69.7213 138.242C69.2533 138.506 68.8873 138.884 68.6233 139.376C68.3593 139.856 68.2273 140.408 68.2273 141.032V141.32C68.2273 141.956 68.3713 142.526 68.6593 143.03C68.9593 143.522 69.3733 143.906 69.9013 144.182C70.4293 144.458 71.0353 144.596 71.7193 144.596C72.2833 144.596 72.7933 144.5 73.2493 144.308C73.7173 144.116 74.1253 143.828 74.4733 143.444L75.4273 144.56C74.9953 145.064 74.4553 145.448 73.8073 145.712C73.1713 145.976 72.4573 146.108 71.6653 146.108ZM82.6148 149.6C81.7388 149.6 80.8868 149.474 80.0588 149.222C79.2428 148.982 78.5768 148.634 78.0608 148.178L78.8888 146.846C79.3328 147.23 79.8788 147.53 80.5268 147.746C81.1748 147.974 81.8528 148.088 82.5608 148.088C83.6888 148.088 84.5168 147.824 85.0448 147.296C85.5728 146.768 85.8368 145.964 85.8368 144.884V142.868L86.0168 140.978L85.9268 139.07V136.46H87.5648V144.704C87.5648 146.384 87.1448 147.62 86.3048 148.412C85.4648 149.204 84.2348 149.6 82.6148 149.6ZM82.3988 145.604C81.4748 145.604 80.6468 145.412 79.9148 145.028C79.1948 144.632 78.6188 144.086 78.1868 143.39C77.7668 142.694 77.5568 141.89 77.5568 140.978C77.5568 140.054 77.7668 139.25 78.1868 138.566C78.6188 137.87 79.1948 137.33 79.9148 136.946C80.6468 136.562 81.4748 136.37 82.3988 136.37C83.2148 136.37 83.9588 136.538 84.6308 136.874C85.3028 137.198 85.8368 137.702 86.2328 138.386C86.6408 139.07 86.8448 139.934 86.8448 140.978C86.8448 142.01 86.6408 142.868 86.2328 143.552C85.8368 144.236 85.3028 144.752 84.6308 145.1C83.9588 145.436 83.2148 145.604 82.3988 145.604ZM82.5968 144.092C83.2328 144.092 83.7968 143.96 84.2888 143.696C84.7808 143.432 85.1648 143.066 85.4408 142.598C85.7288 142.13 85.8728 141.59 85.8728 140.978C85.8728 140.366 85.7288 139.826 85.4408 139.358C85.1648 138.89 84.7808 138.53 84.2888 138.278C83.7968 138.014 83.2328 137.882 82.5968 137.882C81.9608 137.882 81.3908 138.014 80.8868 138.278C80.3948 138.53 80.0048 138.89 79.7168 139.358C79.4408 139.826 79.3028 140.366 79.3028 140.978C79.3028 141.59 79.4408 142.13 79.7168 142.598C80.0048 143.066 80.3948 143.432 80.8868 143.696C81.3908 143.96 81.9608 144.092 82.5968 144.092ZM94.9525 146.108C93.9925 146.108 93.1405 145.898 92.3965 145.478C91.6525 145.058 91.0645 144.482 90.6325 143.75C90.2005 143.006 89.9845 142.166 89.9845 141.23C89.9845 140.282 90.2005 139.442 90.6325 138.71C91.0645 137.978 91.6525 137.408 92.3965 137C93.1405 136.58 93.9925 136.37 94.9525 136.37C95.9005 136.37 96.7465 136.58 97.4905 137C98.2465 137.408 98.8345 137.978 99.2545 138.71C99.6865 139.43 99.9025 140.27 99.9025 141.23C99.9025 142.178 99.6865 143.018 99.2545 143.75C98.8345 144.482 98.2465 145.058 97.4905 145.478C96.7465 145.898 95.9005 146.108 94.9525 146.108ZM94.9525 144.596C95.5645 144.596 96.1105 144.458 96.5905 144.182C97.0825 143.906 97.4665 143.516 97.7425 143.012C98.0185 142.496 98.1565 141.902 98.1565 141.23C98.1565 140.546 98.0185 139.958 97.7425 139.466C97.4665 138.962 97.0825 138.572 96.5905 138.296C96.1105 138.02 95.5645 137.882 94.9525 137.882C94.3405 137.882 93.7945 138.02 93.3145 138.296C92.8345 138.572 92.4505 138.962 92.1625 139.466C91.8745 139.958 91.7305 140.546 91.7305 141.23C91.7305 141.902 91.8745 142.496 92.1625 143.012C92.4505 143.516 92.8345 143.906 93.3145 144.182C93.7945 144.458 94.3405 144.596 94.9525 144.596ZM102.292 146V136.46H103.948V139.052L103.786 138.404C104.05 137.744 104.494 137.24 105.118 136.892C105.742 136.544 106.51 136.37 107.422 136.37V138.044C107.35 138.032 107.278 138.026 107.206 138.026C107.146 138.026 107.086 138.026 107.026 138.026C106.102 138.026 105.37 138.302 104.83 138.854C104.29 139.406 104.02 140.204 104.02 141.248V146H102.292ZM110.353 149.6C109.897 149.6 109.453 149.522 109.021 149.366C108.589 149.222 108.217 149.006 107.905 148.718L108.643 147.422C108.883 147.65 109.147 147.824 109.435 147.944C109.723 148.064 110.029 148.124 110.353 148.124C110.773 148.124 111.121 148.016 111.397 147.8C111.673 147.584 111.931 147.2 112.171 146.648L112.765 145.334L112.945 145.118L116.689 136.46H118.381L113.755 146.954C113.479 147.626 113.167 148.154 112.819 148.538C112.483 148.922 112.111 149.192 111.703 149.348C111.295 149.516 110.845 149.6 110.353 149.6ZM112.621 146.306L108.265 136.46H110.065L113.773 144.956L112.621 146.306Z" fill="#37376D"/>
<path d="M36.89 238V225.4H38.366L44.018 234.922H43.226L48.806 225.4H50.282L50.3 238H48.572L48.554 228.118H48.968L44 236.47H43.172L38.168 228.118H38.618V238H36.89ZM59.7514 238V235.984L59.6614 235.606V232.168C59.6614 231.436 59.4454 230.872 59.0134 230.476C58.5934 230.068 57.9574 229.864 57.1054 229.864C56.5414 229.864 55.9894 229.96 55.4494 230.152C54.9094 230.332 54.4534 230.578 54.0814 230.89L53.3614 229.594C53.8534 229.198 54.4414 228.898 55.1254 228.694C55.8214 228.478 56.5474 228.37 57.3034 228.37C58.6114 228.37 59.6194 228.688 60.3274 229.324C61.0354 229.96 61.3894 230.932 61.3894 232.24V238H59.7514ZM56.6194 238.108C55.9114 238.108 55.2874 237.988 54.7474 237.748C54.2194 237.508 53.8114 237.178 53.5234 236.758C53.2354 236.326 53.0914 235.84 53.0914 235.3C53.0914 234.784 53.2114 234.316 53.4514 233.896C53.7034 233.476 54.1054 233.14 54.6574 232.888C55.2214 232.636 55.9774 232.51 56.9254 232.51H59.9494V233.752H56.9974C56.1334 233.752 55.5514 233.896 55.2514 234.184C54.9514 234.472 54.8014 234.82 54.8014 235.228C54.8014 235.696 54.9874 236.074 55.3594 236.362C55.7314 236.638 56.2474 236.776 56.9074 236.776C57.5554 236.776 58.1194 236.632 58.5994 236.344C59.0914 236.056 59.4454 235.636 59.6614 235.084L60.0034 236.272C59.7754 236.836 59.3734 237.286 58.7974 237.622C58.2214 237.946 57.4954 238.108 56.6194 238.108ZM69.6812 228.37C70.4612 228.37 71.1452 228.52 71.7332 228.82C72.3332 229.12 72.8012 229.576 73.1372 230.188C73.4732 230.8 73.6412 231.574 73.6412 232.51V238H71.9132V232.708C71.9132 231.784 71.6852 231.088 71.2292 230.62C70.7852 230.152 70.1552 229.918 69.3392 229.918C68.7272 229.918 68.1932 230.038 67.7372 230.278C67.2812 230.518 66.9272 230.872 66.6752 231.34C66.4352 231.808 66.3152 232.39 66.3152 233.086V238H64.5872V228.46H66.2432V231.034L65.9732 230.35C66.2852 229.726 66.7652 229.24 67.4132 228.892C68.0612 228.544 68.8172 228.37 69.6812 228.37ZM80.8532 238.108C80.0372 238.108 79.3172 237.958 78.6932 237.658C78.0812 237.358 77.6012 236.902 77.2532 236.29C76.9172 235.666 76.7492 234.886 76.7492 233.95V228.46H78.4772V233.752C78.4772 234.688 78.6992 235.39 79.1432 235.858C79.5992 236.326 80.2352 236.56 81.0512 236.56C81.6512 236.56 82.1732 236.44 82.6172 236.2C83.0612 235.948 83.4032 235.588 83.6432 235.12C83.8832 234.64 84.0032 234.064 84.0032 233.392V228.46H85.7312V238H84.0932V235.426L84.3632 236.11C84.0512 236.746 83.5832 237.238 82.9592 237.586C82.3352 237.934 81.6332 238.108 80.8532 238.108ZM89.2728 238V227.614C89.2728 226.678 89.5428 225.934 90.0828 225.382C90.6348 224.818 91.4148 224.536 92.4228 224.536C92.7948 224.536 93.1488 224.584 93.4848 224.68C93.8328 224.764 94.1268 224.902 94.3668 225.094L93.8448 226.408C93.6648 226.264 93.4608 226.156 93.2328 226.084C93.0048 226 92.7648 225.958 92.5128 225.958C92.0088 225.958 91.6248 226.102 91.3608 226.39C91.0968 226.666 90.9648 227.08 90.9648 227.632V228.91L91.0008 229.702V238H89.2728ZM87.6528 229.882V228.46H93.7368V229.882H87.6528ZM101.113 238V235.984L101.023 235.606V232.168C101.023 231.436 100.807 230.872 100.375 230.476C99.9547 230.068 99.3187 229.864 98.4667 229.864C97.9027 229.864 97.3507 229.96 96.8107 230.152C96.2707 230.332 95.8147 230.578 95.4427 230.89L94.7227 229.594C95.2147 229.198 95.8027 228.898 96.4867 228.694C97.1827 228.478 97.9087 228.37 98.6647 228.37C99.9727 228.37 100.981 228.688 101.689 229.324C102.397 229.96 102.751 230.932 102.751 232.24V238H101.113ZM97.9807 238.108C97.2727 238.108 96.6487 237.988 96.1087 237.748C95.5807 237.508 95.1727 237.178 94.8847 236.758C94.5967 236.326 94.4527 235.84 94.4527 235.3C94.4527 234.784 94.5727 234.316 94.8127 233.896C95.0647 233.476 95.4667 233.14 96.0187 232.888C96.5827 232.636 97.3387 232.51 98.2867 232.51H101.311V233.752H98.3587C97.4947 233.752 96.9127 233.896 96.6127 234.184C96.3127 234.472 96.1627 234.82 96.1627 235.228C96.1627 235.696 96.3487 236.074 96.7207 236.362C97.0927 236.638 97.6087 236.776 98.2687 236.776C98.9167 236.776 99.4807 236.632 99.9607 236.344C100.453 236.056 100.807 235.636 101.023 235.084L101.365 236.272C101.137 236.836 100.735 237.286 100.159 237.622C99.5827 237.946 98.8567 238.108 97.9807 238.108ZM110.107 238.108C109.135 238.108 108.265 237.898 107.497 237.478C106.741 237.058 106.147 236.482 105.715 235.75C105.283 235.018 105.067 234.178 105.067 233.23C105.067 232.282 105.283 231.442 105.715 230.71C106.147 229.978 106.741 229.408 107.497 229C108.265 228.58 109.135 228.37 110.107 228.37C110.971 228.37 111.739 228.544 112.411 228.892C113.095 229.228 113.623 229.732 113.995 230.404L112.681 231.25C112.369 230.782 111.985 230.44 111.529 230.224C111.085 229.996 110.605 229.882 110.089 229.882C109.465 229.882 108.907 230.02 108.415 230.296C107.923 230.572 107.533 230.962 107.245 231.466C106.957 231.958 106.813 232.546 106.813 233.23C106.813 233.914 106.957 234.508 107.245 235.012C107.533 235.516 107.923 235.906 108.415 236.182C108.907 236.458 109.465 236.596 110.089 236.596C110.605 236.596 111.085 236.488 111.529 236.272C111.985 236.044 112.369 235.696 112.681 235.228L113.995 236.056C113.623 236.716 113.095 237.226 112.411 237.586C111.739 237.934 110.971 238.108 110.107 238.108ZM119.631 238.108C118.671 238.108 117.927 237.85 117.399 237.334C116.871 236.818 116.607 236.08 116.607 235.12V226.372H118.335V235.048C118.335 235.564 118.461 235.96 118.713 236.236C118.977 236.512 119.349 236.65 119.829 236.65C120.369 236.65 120.819 236.5 121.179 236.2L121.719 237.442C121.455 237.67 121.137 237.838 120.765 237.946C120.405 238.054 120.027 238.108 119.631 238.108ZM114.987 229.882V228.46H121.071V229.882H114.987ZM127.822 238.108C127.006 238.108 126.286 237.958 125.662 237.658C125.05 237.358 124.57 236.902 124.222 236.29C123.886 235.666 123.718 234.886 123.718 233.95V228.46H125.446V233.752C125.446 234.688 125.668 235.39 126.112 235.858C126.568 236.326 127.204 236.56 128.02 236.56C128.62 236.56 129.142 236.44 129.586 236.2C130.03 235.948 130.372 235.588 130.612 235.12C130.852 234.64 130.972 234.064 130.972 233.392V228.46H132.7V238H131.062V235.426L131.332 236.11C131.02 236.746 130.552 237.238 129.928 237.586C129.304 237.934 128.602 238.108 127.822 238.108ZM135.99 238V228.46H137.646V231.052L137.484 230.404C137.748 229.744 138.192 229.24 138.816 228.892C139.44 228.544 140.208 228.37 141.12 228.37V230.044C141.048 230.032 140.976 230.026 140.904 230.026C140.844 230.026 140.784 230.026 140.724 230.026C139.8 230.026 139.068 230.302 138.528 230.854C137.988 231.406 137.718 232.204 137.718 233.248V238H135.99ZM147.409 238.108C146.389 238.108 145.489 237.898 144.709 237.478C143.941 237.058 143.341 236.482 142.909 235.75C142.489 235.018 142.279 234.178 142.279 233.23C142.279 232.282 142.483 231.442 142.891 230.71C143.311 229.978 143.881 229.408 144.601 229C145.333 228.58 146.155 228.37 147.067 228.37C147.991 228.37 148.807 228.574 149.515 228.982C150.223 229.39 150.775 229.966 151.171 230.71C151.579 231.442 151.783 232.3 151.783 233.284C151.783 233.356 151.777 233.44 151.765 233.536C151.765 233.632 151.759 233.722 151.747 233.806H143.629V232.564H150.847L150.145 232.996C150.157 232.384 150.031 231.838 149.767 231.358C149.503 230.878 149.137 230.506 148.669 230.242C148.213 229.966 147.679 229.828 147.067 229.828C146.467 229.828 145.933 229.966 145.465 230.242C144.997 230.506 144.631 230.884 144.367 231.376C144.103 231.856 143.971 232.408 143.971 233.032V233.32C143.971 233.956 144.115 234.526 144.403 235.03C144.703 235.522 145.117 235.906 145.645 236.182C146.173 236.458 146.779 236.596 147.463 236.596C148.027 236.596 148.537 236.5 148.993 236.308C149.461 236.116 149.869 235.828 150.217 235.444L151.171 236.56C150.739 237.064 150.199 237.448 149.551 237.712C148.915 237.976 148.201 238.108 147.409 238.108ZM154.183 238V228.46H155.839V231.052L155.677 230.404C155.941 229.744 156.385 229.24 157.009 228.892C157.633 228.544 158.401 228.37 159.313 228.37V230.044C159.241 230.032 159.169 230.026 159.097 230.026C159.037 230.026 158.977 230.026 158.917 230.026C157.993 230.026 157.261 230.302 156.721 230.854C156.181 231.406 155.911 232.204 155.911 233.248V238H154.183Z" fill="#37376D"/>
<path d="M330.89 238V225.4H336.2C337.544 225.4 338.726 225.664 339.746 226.192C340.778 226.72 341.576 227.458 342.14 228.406C342.716 229.354 343.004 230.452 343.004 231.7C343.004 232.948 342.716 234.046 342.14 234.994C341.576 235.942 340.778 236.68 339.746 237.208C338.726 237.736 337.544 238 336.2 238H330.89ZM332.69 236.434H336.092C337.136 236.434 338.036 236.236 338.792 235.84C339.56 235.444 340.154 234.892 340.574 234.184C340.994 233.464 341.204 232.636 341.204 231.7C341.204 230.752 340.994 229.924 340.574 229.216C340.154 228.508 339.56 227.956 338.792 227.56C338.036 227.164 337.136 226.966 336.092 226.966H332.69V236.434ZM349.757 238.108C348.737 238.108 347.837 237.898 347.057 237.478C346.289 237.058 345.689 236.482 345.257 235.75C344.837 235.018 344.627 234.178 344.627 233.23C344.627 232.282 344.831 231.442 345.239 230.71C345.659 229.978 346.229 229.408 346.949 229C347.681 228.58 348.503 228.37 349.415 228.37C350.339 228.37 351.155 228.574 351.863 228.982C352.571 229.39 353.123 229.966 353.519 230.71C353.927 231.442 354.131 232.3 354.131 233.284C354.131 233.356 354.125 233.44 354.113 233.536C354.113 233.632 354.107 233.722 354.095 233.806H345.977V232.564H353.195L352.493 232.996C352.505 232.384 352.379 231.838 352.115 231.358C351.851 230.878 351.485 230.506 351.017 230.242C350.561 229.966 350.027 229.828 349.415 229.828C348.815 229.828 348.281 229.966 347.813 230.242C347.345 230.506 346.979 230.884 346.715 231.376C346.451 231.856 346.319 232.408 346.319 233.032V233.32C346.319 233.956 346.463 234.526 346.751 235.03C347.051 235.522 347.465 235.906 347.993 236.182C348.521 236.458 349.127 236.596 349.811 236.596C350.375 236.596 350.885 236.5 351.341 236.308C351.809 236.116 352.217 235.828 352.565 235.444L353.519 236.56C353.087 237.064 352.547 237.448 351.899 237.712C351.263 237.976 350.549 238.108 349.757 238.108ZM358.857 238L354.681 228.46H356.481L360.189 237.1H359.325L363.105 228.46H364.797L360.621 238H358.857ZM366.409 238V228.46H368.137V238H366.409ZM367.273 226.624C366.937 226.624 366.655 226.516 366.427 226.3C366.211 226.084 366.103 225.82 366.103 225.508C366.103 225.184 366.211 224.914 366.427 224.698C366.655 224.482 366.937 224.374 367.273 224.374C367.609 224.374 367.885 224.482 368.101 224.698C368.329 224.902 368.443 225.16 368.443 225.472C368.443 225.796 368.335 226.072 368.119 226.3C367.903 226.516 367.621 226.624 367.273 226.624ZM377.359 238V235.984L377.269 235.606V232.168C377.269 231.436 377.053 230.872 376.621 230.476C376.201 230.068 375.565 229.864 374.713 229.864C374.149 229.864 373.597 229.96 373.057 230.152C372.517 230.332 372.061 230.578 371.689 230.89L370.969 229.594C371.461 229.198 372.049 228.898 372.733 228.694C373.429 228.478 374.155 228.37 374.911 228.37C376.219 228.37 377.227 228.688 377.935 229.324C378.643 229.96 378.997 230.932 378.997 232.24V238H377.359ZM374.227 238.108C373.519 238.108 372.895 237.988 372.355 237.748C371.827 237.508 371.419 237.178 371.131 236.758C370.843 236.326 370.699 235.84 370.699 235.3C370.699 234.784 370.819 234.316 371.059 233.896C371.311 233.476 371.713 233.14 372.265 232.888C372.829 232.636 373.585 232.51 374.533 232.51H377.557V233.752H374.605C373.741 233.752 373.159 233.896 372.859 234.184C372.559 234.472 372.409 234.82 372.409 235.228C372.409 235.696 372.595 236.074 372.967 236.362C373.339 236.638 373.855 236.776 374.515 236.776C375.163 236.776 375.727 236.632 376.207 236.344C376.699 236.056 377.053 235.636 377.269 235.084L377.611 236.272C377.383 236.836 376.981 237.286 376.405 237.622C375.829 237.946 375.103 238.108 374.227 238.108ZM385.471 238.108C384.511 238.108 383.767 237.85 383.239 237.334C382.711 236.818 382.447 236.08 382.447 235.12V226.372H384.175V235.048C384.175 235.564 384.301 235.96 384.553 236.236C384.817 236.512 385.189 236.65 385.669 236.65C386.209 236.65 386.659 236.5 387.019 236.2L387.559 237.442C387.295 237.67 386.977 237.838 386.605 237.946C386.245 238.054 385.867 238.108 385.471 238.108ZM380.827 229.882V228.46H386.911V229.882H380.827ZM389.648 238V228.46H391.376V238H389.648ZM390.512 226.624C390.176 226.624 389.894 226.516 389.666 226.3C389.45 226.084 389.342 225.82 389.342 225.508C389.342 225.184 389.45 224.914 389.666 224.698C389.894 224.482 390.176 224.374 390.512 224.374C390.848 224.374 391.124 224.482 391.34 224.698C391.568 224.902 391.682 225.16 391.682 225.472C391.682 225.796 391.574 226.072 391.358 226.3C391.142 226.516 390.86 226.624 390.512 226.624ZM398.761 238.108C397.801 238.108 396.949 237.898 396.205 237.478C395.461 237.058 394.873 236.482 394.441 235.75C394.009 235.006 393.793 234.166 393.793 233.23C393.793 232.282 394.009 231.442 394.441 230.71C394.873 229.978 395.461 229.408 396.205 229C396.949 228.58 397.801 228.37 398.761 228.37C399.709 228.37 400.555 228.58 401.299 229C402.055 229.408 402.643 229.978 403.063 230.71C403.495 231.43 403.711 232.27 403.711 233.23C403.711 234.178 403.495 235.018 403.063 235.75C402.643 236.482 402.055 237.058 401.299 237.478C400.555 237.898 399.709 238.108 398.761 238.108ZM398.761 236.596C399.373 236.596 399.919 236.458 400.399 236.182C400.891 235.906 401.275 235.516 401.551 235.012C401.827 234.496 401.965 233.902 401.965 233.23C401.965 232.546 401.827 231.958 401.551 231.466C401.275 230.962 400.891 230.572 400.399 230.296C399.919 230.02 399.373 229.882 398.761 229.882C398.149 229.882 397.603 230.02 397.123 230.296C396.643 230.572 396.259 230.962 395.971 231.466C395.683 231.958 395.539 232.546 395.539 233.23C395.539 233.902 395.683 234.496 395.971 235.012C396.259 235.516 396.643 235.906 397.123 236.182C397.603 236.458 398.149 236.596 398.761 236.596ZM411.195 228.37C411.975 228.37 412.659 228.52 413.247 228.82C413.847 229.12 414.315 229.576 414.651 230.188C414.987 230.8 415.155 231.574 415.155 232.51V238H413.427V232.708C413.427 231.784 413.199 231.088 412.743 230.62C412.299 230.152 411.669 229.918 410.853 229.918C410.241 229.918 409.707 230.038 409.251 230.278C408.795 230.518 408.441 230.872 408.189 231.34C407.949 231.808 407.829 232.39 407.829 233.086V238H406.101V228.46H407.757V231.034L407.487 230.35C407.799 229.726 408.279 229.24 408.927 228.892C409.575 228.544 410.331 228.37 411.195 228.37Z" fill="#37376D"/>
<path d="M330.89 146V133.4H336.2C337.544 133.4 338.726 133.664 339.746 134.192C340.778 134.72 341.576 135.458 342.14 136.406C342.716 137.354 343.004 138.452 343.004 139.7C343.004 140.948 342.716 142.046 342.14 142.994C341.576 143.942 340.778 144.68 339.746 145.208C338.726 145.736 337.544 146 336.2 146H330.89ZM332.69 144.434H336.092C337.136 144.434 338.036 144.236 338.792 143.84C339.56 143.444 340.154 142.892 340.574 142.184C340.994 141.464 341.204 140.636 341.204 139.7C341.204 138.752 340.994 137.924 340.574 137.216C340.154 136.508 339.56 135.956 338.792 135.56C338.036 135.164 337.136 134.966 336.092 134.966H332.69V144.434ZM349.757 146.108C348.737 146.108 347.837 145.898 347.057 145.478C346.289 145.058 345.689 144.482 345.257 143.75C344.837 143.018 344.627 142.178 344.627 141.23C344.627 140.282 344.831 139.442 345.239 138.71C345.659 137.978 346.229 137.408 346.949 137C347.681 136.58 348.503 136.37 349.415 136.37C350.339 136.37 351.155 136.574 351.863 136.982C352.571 137.39 353.123 137.966 353.519 138.71C353.927 139.442 354.131 140.3 354.131 141.284C354.131 141.356 354.125 141.44 354.113 141.536C354.113 141.632 354.107 141.722 354.095 141.806H345.977V140.564H353.195L352.493 140.996C352.505 140.384 352.379 139.838 352.115 139.358C351.851 138.878 351.485 138.506 351.017 138.242C350.561 137.966 350.027 137.828 349.415 137.828C348.815 137.828 348.281 137.966 347.813 138.242C347.345 138.506 346.979 138.884 346.715 139.376C346.451 139.856 346.319 140.408 346.319 141.032V141.32C346.319 141.956 346.463 142.526 346.751 143.03C347.051 143.522 347.465 143.906 347.993 144.182C348.521 144.458 349.127 144.596 349.811 144.596C350.375 144.596 350.885 144.5 351.341 144.308C351.809 144.116 352.217 143.828 352.565 143.444L353.519 144.56C353.087 145.064 352.547 145.448 351.899 145.712C351.263 145.976 350.549 146.108 349.757 146.108ZM358.857 146L354.681 136.46H356.481L360.189 145.1H359.325L363.105 136.46H364.797L360.621 146H358.857ZM366.409 146V136.46H368.137V146H366.409ZM367.273 134.624C366.937 134.624 366.655 134.516 366.427 134.3C366.211 134.084 366.103 133.82 366.103 133.508C366.103 133.184 366.211 132.914 366.427 132.698C366.655 132.482 366.937 132.374 367.273 132.374C367.609 132.374 367.885 132.482 368.101 132.698C368.329 132.902 368.443 133.16 368.443 133.472C368.443 133.796 368.335 134.072 368.119 134.3C367.903 134.516 367.621 134.624 367.273 134.624ZM377.359 146V143.984L377.269 143.606V140.168C377.269 139.436 377.053 138.872 376.621 138.476C376.201 138.068 375.565 137.864 374.713 137.864C374.149 137.864 373.597 137.96 373.057 138.152C372.517 138.332 372.061 138.578 371.689 138.89L370.969 137.594C371.461 137.198 372.049 136.898 372.733 136.694C373.429 136.478 374.155 136.37 374.911 136.37C376.219 136.37 377.227 136.688 377.935 137.324C378.643 137.96 378.997 138.932 378.997 140.24V146H377.359ZM374.227 146.108C373.519 146.108 372.895 145.988 372.355 145.748C371.827 145.508 371.419 145.178 371.131 144.758C370.843 144.326 370.699 143.84 370.699 143.3C370.699 142.784 370.819 142.316 371.059 141.896C371.311 141.476 371.713 141.14 372.265 140.888C372.829 140.636 373.585 140.51 374.533 140.51H377.557V141.752H374.605C373.741 141.752 373.159 141.896 372.859 142.184C372.559 142.472 372.409 142.82 372.409 143.228C372.409 143.696 372.595 144.074 372.967 144.362C373.339 144.638 373.855 144.776 374.515 144.776C375.163 144.776 375.727 144.632 376.207 144.344C376.699 144.056 377.053 143.636 377.269 143.084L377.611 144.272C377.383 144.836 376.981 145.286 376.405 145.622C375.829 145.946 375.103 146.108 374.227 146.108ZM385.471 146.108C384.511 146.108 383.767 145.85 383.239 145.334C382.711 144.818 382.447 144.08 382.447 143.12V134.372H384.175V143.048C384.175 143.564 384.301 143.96 384.553 144.236C384.817 144.512 385.189 144.65 385.669 144.65C386.209 144.65 386.659 144.5 387.019 144.2L387.559 145.442C387.295 145.67 386.977 145.838 386.605 145.946C386.245 146.054 385.867 146.108 385.471 146.108ZM380.827 137.882V136.46H386.911V137.882H380.827ZM389.648 146V136.46H391.376V146H389.648ZM390.512 134.624C390.176 134.624 389.894 134.516 389.666 134.3C389.45 134.084 389.342 133.82 389.342 133.508C389.342 133.184 389.45 132.914 389.666 132.698C389.894 132.482 390.176 132.374 390.512 132.374C390.848 132.374 391.124 132.482 391.34 132.698C391.568 132.902 391.682 133.16 391.682 133.472C391.682 133.796 391.574 134.072 391.358 134.3C391.142 134.516 390.86 134.624 390.512 134.624ZM398.761 146.108C397.801 146.108 396.949 145.898 396.205 145.478C395.461 145.058 394.873 144.482 394.441 143.75C394.009 143.006 393.793 142.166 393.793 141.23C393.793 140.282 394.009 139.442 394.441 138.71C394.873 137.978 395.461 137.408 396.205 137C396.949 136.58 397.801 136.37 398.761 136.37C399.709 136.37 400.555 136.58 401.299 137C402.055 137.408 402.643 137.978 403.063 138.71C403.495 139.43 403.711 140.27 403.711 141.23C403.711 142.178 403.495 143.018 403.063 143.75C402.643 144.482 402.055 145.058 401.299 145.478C400.555 145.898 399.709 146.108 398.761 146.108ZM398.761 144.596C399.373 144.596 399.919 144.458 400.399 144.182C400.891 143.906 401.275 143.516 401.551 143.012C401.827 142.496 401.965 141.902 401.965 141.23C401.965 140.546 401.827 139.958 401.551 139.466C401.275 138.962 400.891 138.572 400.399 138.296C399.919 138.02 399.373 137.882 398.761 137.882C398.149 137.882 397.603 138.02 397.123 138.296C396.643 138.572 396.259 138.962 395.971 139.466C395.683 139.958 395.539 140.546 395.539 141.23C395.539 141.902 395.683 142.496 395.971 143.012C396.259 143.516 396.643 143.906 397.123 144.182C397.603 144.458 398.149 144.596 398.761 144.596ZM411.195 136.37C411.975 136.37 412.659 136.52 413.247 136.82C413.847 137.12 414.315 137.576 414.651 138.188C414.987 138.8 415.155 139.574 415.155 140.51V146H413.427V140.708C413.427 139.784 413.199 139.088 412.743 138.62C412.299 138.152 411.669 137.918 410.853 137.918C410.241 137.918 409.707 138.038 409.251 138.278C408.795 138.518 408.441 138.872 408.189 139.34C407.949 139.808 407.829 140.39 407.829 141.086V146H406.101V136.46H407.757V139.034L407.487 138.35C407.799 137.726 408.279 137.24 408.927 136.892C409.575 136.544 410.331 136.37 411.195 136.37ZM420.567 149.492C419.883 148.4 419.355 147.14 418.983 145.712C418.611 144.272 418.425 142.724 418.425 141.068C418.425 139.412 418.611 137.864 418.983 136.424C419.355 134.972 419.883 133.712 420.567 132.644H422.205C421.485 133.916 420.957 135.248 420.621 136.64C420.285 138.02 420.117 139.496 420.117 141.068C420.117 142.64 420.285 144.122 420.621 145.514C420.957 146.894 421.485 148.22 422.205 149.492H420.567ZM425.371 146L433.975 133.4H435.361L426.757 146H425.371ZM426.379 140.168C425.803 140.168 425.293 140.024 424.849 139.736C424.405 139.448 424.057 139.046 423.805 138.53C423.565 138.014 423.445 137.414 423.445 136.73C423.445 136.046 423.565 135.446 423.805 134.93C424.057 134.414 424.405 134.012 424.849 133.724C425.293 133.436 425.803 133.292 426.379 133.292C426.967 133.292 427.477 133.436 427.909 133.724C428.353 134.012 428.695 134.414 428.935 134.93C429.175 135.446 429.295 136.046 429.295 136.73C429.295 137.414 429.175 138.014 428.935 138.53C428.695 139.046 428.353 139.448 427.909 139.736C427.477 140.024 426.967 140.168 426.379 140.168ZM426.379 139.142C426.931 139.142 427.363 138.932 427.675 138.512C427.987 138.08 428.143 137.486 428.143 136.73C428.143 135.974 427.987 135.386 427.675 134.966C427.363 134.534 426.931 134.318 426.379 134.318C425.839 134.318 425.407 134.534 425.083 134.966C424.771 135.386 424.615 135.974 424.615 136.73C424.615 137.474 424.771 138.062 425.083 138.494C425.407 138.926 425.839 139.142 426.379 139.142ZM434.353 146.108C433.777 146.108 433.267 145.964 432.823 145.676C432.379 145.388 432.037 144.986 431.797 144.47C431.557 143.954 431.437 143.354 431.437 142.67C431.437 141.986 431.557 141.386 431.797 140.87C432.037 140.354 432.379 139.952 432.823 139.664C433.267 139.376 433.777 139.232 434.353 139.232C434.941 139.232 435.451 139.376 435.883 139.664C436.327 139.952 436.669 140.354 436.909 140.87C437.161 141.386 437.287 141.986 437.287 142.67C437.287 143.354 437.161 143.954 436.909 144.47C436.669 144.986 436.327 145.388 435.883 145.676C435.451 145.964 434.941 146.108 434.353 146.108ZM434.353 145.082C434.893 145.082 435.319 144.872 435.631 144.452C435.955 144.02 436.117 143.426 436.117 142.67C436.117 141.926 435.955 141.338 435.631 140.906C435.319 140.474 434.893 140.258 434.353 140.258C433.813 140.258 433.381 140.474 433.057 140.906C432.745 141.326 432.589 141.914 432.589 142.67C432.589 143.426 432.745 144.02 433.057 144.452C433.381 144.872 433.813 145.082 434.353 145.082ZM439.812 149.492H438.174C438.906 148.22 439.44 146.894 439.776 145.514C440.112 144.122 440.28 142.64 440.28 141.068C440.28 139.496 440.112 138.02 439.776 136.64C439.44 135.248 438.906 133.916 438.174 132.644H439.812C440.52 133.712 441.054 134.972 441.414 136.424C441.786 137.864 441.972 139.412 441.972 141.068C441.972 142.724 441.786 144.272 441.414 145.712C441.054 147.14 440.52 148.4 439.812 149.492Z" fill="#37376D"/>
<path d="M328.982 54L334.688 41.4H336.47L342.194 54H340.304L335.21 42.408H335.93L330.836 54H328.982ZM331.412 50.85L331.898 49.41H338.99L339.512 50.85H331.412ZM345.831 54L341.655 44.46H343.455L347.163 53.1H346.299L350.079 44.46H351.771L347.595 54H345.831ZM359.007 54V51.984L358.917 51.606V48.168C358.917 47.436 358.701 46.872 358.269 46.476C357.849 46.068 357.213 45.864 356.361 45.864C355.797 45.864 355.245 45.96 354.705 46.152C354.165 46.332 353.709 46.578 353.337 46.89L352.617 45.594C353.109 45.198 353.697 44.898 354.381 44.694C355.077 44.478 355.803 44.37 356.559 44.37C357.867 44.37 358.875 44.688 359.583 45.324C360.291 45.96 360.645 46.932 360.645 48.24V54H359.007ZM355.875 54.108C355.167 54.108 354.543 53.988 354.003 53.748C353.475 53.508 353.067 53.178 352.779 52.758C352.491 52.326 352.347 51.84 352.347 51.3C352.347 50.784 352.467 50.316 352.707 49.896C352.959 49.476 353.361 49.14 353.913 48.888C354.477 48.636 355.233 48.51 356.181 48.51H359.205V49.752H356.253C355.389 49.752 354.807 49.896 354.507 50.184C354.207 50.472 354.057 50.82 354.057 51.228C354.057 51.696 354.243 52.074 354.615 52.362C354.987 52.638 355.503 52.776 356.163 52.776C356.811 52.776 357.375 52.632 357.855 52.344C358.347 52.056 358.701 51.636 358.917 51.084L359.259 52.272C359.031 52.836 358.629 53.286 358.053 53.622C357.477 53.946 356.751 54.108 355.875 54.108ZM363.843 54V44.46H365.571V54H363.843ZM364.707 42.624C364.371 42.624 364.089 42.516 363.861 42.3C363.645 42.084 363.537 41.82 363.537 41.508C363.537 41.184 363.645 40.914 363.861 40.698C364.089 40.482 364.371 40.374 364.707 40.374C365.043 40.374 365.319 40.482 365.535 40.698C365.763 40.902 365.877 41.16 365.877 41.472C365.877 41.796 365.769 42.072 365.553 42.3C365.337 42.516 365.055 42.624 364.707 42.624ZM368.87 54V40.644H370.598V54H368.87ZM379.82 54V51.984L379.73 51.606V48.168C379.73 47.436 379.514 46.872 379.082 46.476C378.662 46.068 378.026 45.864 377.174 45.864C376.61 45.864 376.058 45.96 375.518 46.152C374.978 46.332 374.522 46.578 374.15 46.89L373.43 45.594C373.922 45.198 374.51 44.898 375.194 44.694C375.89 44.478 376.616 44.37 377.372 44.37C378.68 44.37 379.688 44.688 380.396 45.324C381.104 45.96 381.458 46.932 381.458 48.24V54H379.82ZM376.688 54.108C375.98 54.108 375.356 53.988 374.816 53.748C374.288 53.508 373.88 53.178 373.592 52.758C373.304 52.326 373.16 51.84 373.16 51.3C373.16 50.784 373.28 50.316 373.52 49.896C373.772 49.476 374.174 49.14 374.726 48.888C375.29 48.636 376.046 48.51 376.994 48.51H380.018V49.752H377.066C376.202 49.752 375.62 49.896 375.32 50.184C375.02 50.472 374.87 50.82 374.87 51.228C374.87 51.696 375.056 52.074 375.428 52.362C375.8 52.638 376.316 52.776 376.976 52.776C377.624 52.776 378.188 52.632 378.668 52.344C379.16 52.056 379.514 51.636 379.73 51.084L380.072 52.272C379.844 52.836 379.442 53.286 378.866 53.622C378.29 53.946 377.564 54.108 376.688 54.108ZM389.714 54.108C388.898 54.108 388.16 53.928 387.5 53.568C386.852 53.196 386.336 52.65 385.952 51.93C385.58 51.21 385.394 50.31 385.394 49.23C385.394 48.15 385.586 47.25 385.97 46.53C386.366 45.81 386.888 45.27 387.536 44.91C388.196 44.55 388.922 44.37 389.714 44.37C390.65 44.37 391.478 44.574 392.198 44.982C392.918 45.39 393.488 45.96 393.908 46.692C394.328 47.412 394.538 48.258 394.538 49.23C394.538 50.202 394.328 51.054 393.908 51.786C393.488 52.518 392.918 53.088 392.198 53.496C391.478 53.904 390.65 54.108 389.714 54.108ZM384.656 54V40.644H386.384V46.998L386.204 49.212L386.312 51.426V54H384.656ZM389.57 52.596C390.182 52.596 390.728 52.458 391.208 52.182C391.7 51.906 392.084 51.516 392.36 51.012C392.648 50.496 392.792 49.902 392.792 49.23C392.792 48.546 392.648 47.958 392.36 47.466C392.084 46.962 391.7 46.572 391.208 46.296C390.728 46.02 390.182 45.882 389.57 45.882C388.97 45.882 388.424 46.02 387.932 46.296C387.452 46.572 387.068 46.962 386.78 47.466C386.504 47.958 386.366 48.546 386.366 49.23C386.366 49.902 386.504 50.496 386.78 51.012C387.068 51.516 387.452 51.906 387.932 52.182C388.424 52.458 388.97 52.596 389.57 52.596ZM396.925 54V44.46H398.653V54H396.925ZM397.789 42.624C397.453 42.624 397.171 42.516 396.943 42.3C396.727 42.084 396.619 41.82 396.619 41.508C396.619 41.184 396.727 40.914 396.943 40.698C397.171 40.482 397.453 40.374 397.789 40.374C398.125 40.374 398.401 40.482 398.617 40.698C398.845 40.902 398.959 41.16 398.959 41.472C398.959 41.796 398.851 42.072 398.635 42.3C398.419 42.516 398.137 42.624 397.789 42.624ZM401.952 54V40.644H403.68V54H401.952ZM406.98 54V44.46H408.708V54H406.98ZM407.844 42.624C407.508 42.624 407.226 42.516 406.998 42.3C406.782 42.084 406.674 41.82 406.674 41.508C406.674 41.184 406.782 40.914 406.998 40.698C407.226 40.482 407.508 40.374 407.844 40.374C408.18 40.374 408.456 40.482 408.672 40.698C408.9 40.902 409.014 41.16 409.014 41.472C409.014 41.796 408.906 42.072 408.69 42.3C408.474 42.516 408.192 42.624 407.844 42.624ZM415.283 54.108C414.323 54.108 413.579 53.85 413.051 53.334C412.523 52.818 412.259 52.08 412.259 51.12V42.372H413.987V51.048C413.987 51.564 414.113 51.96 414.365 52.236C414.629 52.512 415.001 52.65 415.481 52.65C416.021 52.65 416.471 52.5 416.831 52.2L417.371 53.442C417.107 53.67 416.789 53.838 416.417 53.946C416.057 54.054 415.679 54.108 415.283 54.108ZM410.639 45.882V44.46H416.723V45.882H410.639ZM419.698 57.6C419.242 57.6 418.798 57.522 418.366 57.366C417.934 57.222 417.562 57.006 417.25 56.718L417.988 55.422C418.228 55.65 418.492 55.824 418.78 55.944C419.068 56.064 419.374 56.124 419.698 56.124C420.118 56.124 420.466 56.016 420.742 55.8C421.018 55.584 421.276 55.2 421.516 54.648L422.11 53.334L422.29 53.118L426.034 44.46H427.726L423.1 54.954C422.824 55.626 422.512 56.154 422.164 56.538C421.828 56.922 421.456 57.192 421.048 57.348C420.64 57.516 420.19 57.6 419.698 57.6ZM421.966 54.306L417.61 44.46H419.41L423.118 52.956L421.966 54.306Z" fill="#37376D"/>
<path fill-rule="evenodd" clip-rule="evenodd" d="M287 103H36V102H287V103Z" fill="black"/>
<path fill-rule="evenodd" clip-rule="evenodd" d="M287 194H36V193H287V194Z" fill="black"/>
<path fill-rule="evenodd" clip-rule="evenodd" d="M440 285H329V284H440V285Z" fill="black"/>
<path fill-rule="evenodd" clip-rule="evenodd" d="M580 285H469V284H580V285Z" fill="black"/>
<path fill-rule="evenodd" clip-rule="evenodd" d="M580 194H329V193H580V194Z" fill="black"/>
<path d="M576.165 172.75L572 169L580.33 169L576.165 172.75Z" fill="#000C2C"/>
<path fill-rule="evenodd" clip-rule="evenodd" d="M581 103H330V102H581V103Z" fill="black"/>
<path d="M576.165 84.75L572 81L580.33 81L576.165 84.75Z" fill="#000C2C"/>
<path fill-rule="evenodd" clip-rule="evenodd" d="M287 285H36V284H287V285Z" fill="black"/>
<path d="M283.165 265.75L279 262L287.33 262L283.165 265.75Z" fill="#000C2C"/>
</svg>
