<svg width="619" height="323" viewBox="0 0 619 323" fill="none" xmlns="http://www.w3.org/2000/svg">
<path d="M0 15C0 6.71574 6.71573 0 15 0H604C612.284 0 619 6.71573 619 15V308C619 316.284 612.284 323 604 323H15C6.71572 323 0 316.284 0 308V15Z" fill="white"/>
<path d="M37.89 49V36.4H43.2C44.544 36.4 45.726 36.664 46.746 37.192C47.778 37.72 48.576 38.458 49.14 39.406C49.716 40.354 50.004 41.452 50.004 42.7C50.004 43.948 49.716 45.046 49.14 45.994C48.576 46.942 47.778 47.68 46.746 48.208C45.726 48.736 44.544 49 43.2 49H37.89ZM39.69 47.434H43.092C44.136 47.434 45.036 47.236 45.792 46.84C46.56 46.444 47.154 45.892 47.574 45.184C47.994 44.464 48.204 43.636 48.204 42.7C48.204 41.752 47.994 40.924 47.574 40.216C47.154 39.508 46.56 38.956 45.792 38.56C45.036 38.164 44.136 37.966 43.092 37.966H39.69V47.434ZM58.4311 49V46.984L58.3411 46.606V43.168C58.3411 42.436 58.1251 41.872 57.6931 41.476C57.2731 41.068 56.6371 40.864 55.7851 40.864C55.2211 40.864 54.6691 40.96 54.1291 41.152C53.5891 41.332 53.1331 41.578 52.7611 41.89L52.0411 40.594C52.5331 40.198 53.1211 39.898 53.8051 39.694C54.5011 39.478 55.2271 39.37 55.9831 39.37C57.2911 39.37 58.2991 39.688 59.0071 40.324C59.7151 40.96 60.0691 41.932 60.0691 43.24V49H58.4311ZM55.2991 49.108C54.5911 49.108 53.9671 48.988 53.4271 48.748C52.8991 48.508 52.4911 48.178 52.2031 47.758C51.9151 47.326 51.7711 46.84 51.7711 46.3C51.7711 45.784 51.8911 45.316 52.1311 44.896C52.3831 44.476 52.7851 44.14 53.3371 43.888C53.9011 43.636 54.6571 43.51 55.6051 43.51H58.6291V44.752H55.6771C54.8131 44.752 54.2311 44.896 53.9311 45.184C53.6311 45.472 53.4811 45.82 53.4811 46.228C53.4811 46.696 53.6671 47.074 54.0391 47.362C54.4111 47.638 54.9271 47.776 55.5871 47.776C56.2351 47.776 56.7991 47.632 57.2791 47.344C57.7711 47.056 58.1251 46.636 58.3411 46.084L58.6831 47.272C58.4551 47.836 58.0531 48.286 57.4771 48.622C56.9011 48.946 56.1751 49.108 55.2991 49.108ZM63.5051 52.6C63.0491 52.6 62.6051 52.522 62.1731 52.366C61.7411 52.222 61.3691 52.006 61.0571 51.718L61.7951 50.422C62.0351 50.65 62.2991 50.824 62.5871 50.944C62.8751 51.064 63.1811 51.124 63.5051 51.124C63.9251 51.124 64.2731 51.016 64.5491 50.8C64.8251 50.584 65.0831 50.2 65.3231 49.648L65.9171 48.334L66.0971 48.118L69.8411 39.46H71.5331L66.9071 49.954C66.6311 50.626 66.3191 51.154 65.9711 51.538C65.6351 51.922 65.2631 52.192 64.8551 52.348C64.4471 52.516 63.9971 52.6 63.5051 52.6ZM65.7731 49.306L61.4171 39.46H63.2171L66.9251 47.956L65.7731 49.306ZM75.7588 49.108C74.9668 49.108 74.2108 49 73.4908 48.784C72.7828 48.568 72.2248 48.304 71.8168 47.992L72.5368 46.624C72.9448 46.9 73.4488 47.134 74.0488 47.326C74.6488 47.518 75.2608 47.614 75.8848 47.614C76.6888 47.614 77.2648 47.5 77.6128 47.272C77.9728 47.044 78.1528 46.726 78.1528 46.318C78.1528 46.018 78.0448 45.784 77.8288 45.616C77.6128 45.448 77.3248 45.322 76.9648 45.238C76.6168 45.154 76.2268 45.082 75.7948 45.022C75.3628 44.95 74.9308 44.866 74.4988 44.77C74.0668 44.662 73.6708 44.518 73.3108 44.338C72.9508 44.146 72.6628 43.888 72.4468 43.564C72.2308 43.228 72.1228 42.784 72.1228 42.232C72.1228 41.656 72.2848 41.152 72.6088 40.72C72.9328 40.288 73.3888 39.958 73.9768 39.73C74.5768 39.49 75.2848 39.37 76.1008 39.37C76.7248 39.37 77.3548 39.448 77.9908 39.604C78.6388 39.748 79.1668 39.958 79.5748 40.234L78.8368 41.602C78.4048 41.314 77.9548 41.116 77.4868 41.008C77.0188 40.9 76.5508 40.846 76.0828 40.846C75.3268 40.846 74.7628 40.972 74.3908 41.224C74.0188 41.464 73.8328 41.776 73.8328 42.16C73.8328 42.484 73.9408 42.736 74.1568 42.916C74.3848 43.084 74.6728 43.216 75.0208 43.312C75.3808 43.408 75.7768 43.492 76.2088 43.564C76.6408 43.624 77.0728 43.708 77.5048 43.816C77.9368 43.912 78.3268 44.05 78.6748 44.23C79.0348 44.41 79.3228 44.662 79.5388 44.986C79.7668 45.31 79.8808 45.742 79.8808 46.282C79.8808 46.858 79.7128 47.356 79.3768 47.776C79.0408 48.196 78.5668 48.526 77.9548 48.766C77.3428 48.994 76.6108 49.108 75.7588 49.108Z" fill="#37376D"/>
<path d="M42.524 140.144C41.564 140.144 40.676 139.988 39.86 139.676C39.056 139.352 38.354 138.902 37.754 138.326C37.166 137.738 36.704 137.054 36.368 136.274C36.032 135.494 35.864 134.636 35.864 133.7C35.864 132.764 36.032 131.906 36.368 131.126C36.704 130.346 37.172 129.668 37.772 129.092C38.372 128.504 39.074 128.054 39.878 127.742C40.694 127.418 41.582 127.256 42.542 127.256C43.514 127.256 44.408 127.424 45.224 127.76C46.052 128.084 46.754 128.57 47.33 129.218L46.16 130.352C45.68 129.848 45.14 129.476 44.54 129.236C43.94 128.984 43.298 128.858 42.614 128.858C41.906 128.858 41.246 128.978 40.634 129.218C40.034 129.458 39.512 129.794 39.068 130.226C38.624 130.658 38.276 131.174 38.024 131.774C37.784 132.362 37.664 133.004 37.664 133.7C37.664 134.396 37.784 135.044 38.024 135.644C38.276 136.232 38.624 136.742 39.068 137.174C39.512 137.606 40.034 137.942 40.634 138.182C41.246 138.422 41.906 138.542 42.614 138.542C43.298 138.542 43.94 138.422 44.54 138.182C45.14 137.93 45.68 137.546 46.16 137.03L47.33 138.164C46.754 138.812 46.052 139.304 45.224 139.64C44.408 139.976 43.508 140.144 42.524 140.144ZM49.6458 140V126.644H51.3738V140H49.6458ZM58.7592 140.108C57.7992 140.108 56.9472 139.898 56.2032 139.478C55.4592 139.058 54.8712 138.482 54.4392 137.75C54.0072 137.006 53.7912 136.166 53.7912 135.23C53.7912 134.282 54.0072 133.442 54.4392 132.71C54.8712 131.978 55.4592 131.408 56.2032 131C56.9472 130.58 57.7992 130.37 58.7592 130.37C59.7072 130.37 60.5532 130.58 61.2972 131C62.0532 131.408 62.6412 131.978 63.0612 132.71C63.4932 133.43 63.7092 134.27 63.7092 135.23C63.7092 136.178 63.4932 137.018 63.0612 137.75C62.6412 138.482 62.0532 139.058 61.2972 139.478C60.5532 139.898 59.7072 140.108 58.7592 140.108ZM58.7592 138.596C59.3712 138.596 59.9172 138.458 60.3972 138.182C60.8892 137.906 61.2732 137.516 61.5492 137.012C61.8252 136.496 61.9632 135.902 61.9632 135.23C61.9632 134.546 61.8252 133.958 61.5492 133.466C61.2732 132.962 60.8892 132.572 60.3972 132.296C59.9172 132.02 59.3712 131.882 58.7592 131.882C58.1472 131.882 57.6012 132.02 57.1212 132.296C56.6412 132.572 56.2572 132.962 55.9692 133.466C55.6812 133.958 55.5372 134.546 55.5372 135.23C55.5372 135.902 55.6812 136.496 55.9692 137.012C56.2572 137.516 56.6412 137.906 57.1212 138.182C57.6012 138.458 58.1472 138.596 58.7592 138.596ZM70.2569 140.108C69.2849 140.108 68.4149 139.898 67.6469 139.478C66.8909 139.058 66.2969 138.482 65.8649 137.75C65.4329 137.018 65.2169 136.178 65.2169 135.23C65.2169 134.282 65.4329 133.442 65.8649 132.71C66.2969 131.978 66.8909 131.408 67.6469 131C68.4149 130.58 69.2849 130.37 70.2569 130.37C71.1209 130.37 71.8889 130.544 72.5609 130.892C73.2449 131.228 73.7729 131.732 74.1449 132.404L72.8309 133.25C72.5189 132.782 72.1349 132.44 71.6789 132.224C71.2349 131.996 70.7549 131.882 70.2389 131.882C69.6149 131.882 69.0569 132.02 68.5649 132.296C68.0729 132.572 67.6829 132.962 67.3949 133.466C67.1069 133.958 66.9629 134.546 66.9629 135.23C66.9629 135.914 67.1069 136.508 67.3949 137.012C67.6829 137.516 68.0729 137.906 68.5649 138.182C69.0569 138.458 69.6149 138.596 70.2389 138.596C70.7549 138.596 71.2349 138.488 71.6789 138.272C72.1349 138.044 72.5189 137.696 72.8309 137.228L74.1449 138.056C73.7729 138.716 73.2449 139.226 72.5609 139.586C71.8889 139.934 71.1209 140.108 70.2569 140.108ZM77.6631 137.696L77.6991 135.482L83.1891 130.46H85.2771L81.0651 134.6L80.1291 135.392L77.6631 137.696ZM76.2591 140V126.644H77.9871V140H76.2591ZM83.5491 140L79.8051 135.356L80.9211 133.97L85.6731 140H83.5491Z" fill="#37376D"/>
<path d="M39.89 232V219.4H41.366L47.018 228.922H46.226L51.806 219.4H53.282L53.3 232H51.572L51.554 222.118H51.968L47 230.47H46.172L41.168 222.118H41.618V232H39.89ZM56.8294 232V222.46H58.5574V232H56.8294ZM57.6934 220.624C57.3574 220.624 57.0754 220.516 56.8474 220.3C56.6314 220.084 56.5234 219.82 56.5234 219.508C56.5234 219.184 56.6314 218.914 56.8474 218.698C57.0754 218.482 57.3574 218.374 57.6934 218.374C58.0294 218.374 58.3054 218.482 58.5214 218.698C58.7494 218.902 58.8634 219.16 58.8634 219.472C58.8634 219.796 58.7554 220.072 58.5394 220.3C58.3234 220.516 58.0414 220.624 57.6934 220.624ZM66.9508 222.37C67.7308 222.37 68.4148 222.52 69.0028 222.82C69.6028 223.12 70.0708 223.576 70.4068 224.188C70.7428 224.8 70.9108 225.574 70.9108 226.51V232H69.1828V226.708C69.1828 225.784 68.9548 225.088 68.4988 224.62C68.0548 224.152 67.4248 223.918 66.6088 223.918C65.9968 223.918 65.4628 224.038 65.0068 224.278C64.5508 224.518 64.1968 224.872 63.9448 225.34C63.7048 225.808 63.5848 226.39 63.5848 227.086V232H61.8568V222.46H63.5128V225.034L63.2428 224.35C63.5548 223.726 64.0348 223.24 64.6828 222.892C65.3308 222.544 66.0868 222.37 66.9508 222.37ZM78.1227 232.108C77.3067 232.108 76.5867 231.958 75.9627 231.658C75.3507 231.358 74.8707 230.902 74.5227 230.29C74.1867 229.666 74.0187 228.886 74.0187 227.95V222.46H75.7467V227.752C75.7467 228.688 75.9687 229.39 76.4127 229.858C76.8687 230.326 77.5047 230.56 78.3207 230.56C78.9207 230.56 79.4427 230.44 79.8867 230.2C80.3307 229.948 80.6727 229.588 80.9127 229.12C81.1527 228.64 81.2727 228.064 81.2727 227.392V222.46H83.0007V232H81.3627V229.426L81.6327 230.11C81.3207 230.746 80.8527 231.238 80.2287 231.586C79.6047 231.934 78.9027 232.108 78.1227 232.108ZM89.5663 232.108C88.6063 232.108 87.8623 231.85 87.3343 231.334C86.8063 230.818 86.5423 230.08 86.5423 229.12V220.372H88.2703V229.048C88.2703 229.564 88.3963 229.96 88.6483 230.236C88.9123 230.512 89.2843 230.65 89.7643 230.65C90.3043 230.65 90.7543 230.5 91.1143 230.2L91.6543 231.442C91.3903 231.67 91.0723 231.838 90.7003 231.946C90.3403 232.054 89.9623 232.108 89.5663 232.108ZM84.9223 223.882V222.46H91.0063V223.882H84.9223ZM97.6751 232.108C96.6551 232.108 95.7551 231.898 94.9751 231.478C94.2071 231.058 93.6071 230.482 93.1751 229.75C92.7551 229.018 92.5451 228.178 92.5451 227.23C92.5451 226.282 92.7491 225.442 93.1571 224.71C93.5771 223.978 94.1471 223.408 94.8671 223C95.5991 222.58 96.4211 222.37 97.3331 222.37C98.2571 222.37 99.0731 222.574 99.7811 222.982C100.489 223.39 101.041 223.966 101.437 224.71C101.845 225.442 102.049 226.3 102.049 227.284C102.049 227.356 102.043 227.44 102.031 227.536C102.031 227.632 102.025 227.722 102.013 227.806H93.8951V226.564H101.113L100.411 226.996C100.423 226.384 100.297 225.838 100.033 225.358C99.7691 224.878 99.4031 224.506 98.9351 224.242C98.4791 223.966 97.9451 223.828 97.3331 223.828C96.7331 223.828 96.1991 223.966 95.7311 224.242C95.2631 224.506 94.8971 224.884 94.6331 225.376C94.3691 225.856 94.2371 226.408 94.2371 227.032V227.32C94.2371 227.956 94.3811 228.526 94.6691 229.03C94.9691 229.522 95.3831 229.906 95.9111 230.182C96.4391 230.458 97.0451 230.596 97.7291 230.596C98.2931 230.596 98.8031 230.5 99.2591 230.308C99.7271 230.116 100.135 229.828 100.483 229.444L101.437 230.56C101.005 231.064 100.465 231.448 99.8171 231.712C99.1811 231.976 98.4671 232.108 97.6751 232.108ZM107.185 232.108C106.393 232.108 105.637 232 104.917 231.784C104.209 231.568 103.651 231.304 103.243 230.992L103.963 229.624C104.371 229.9 104.875 230.134 105.475 230.326C106.075 230.518 106.687 230.614 107.311 230.614C108.115 230.614 108.691 230.5 109.039 230.272C109.399 230.044 109.579 229.726 109.579 229.318C109.579 229.018 109.471 228.784 109.255 228.616C109.039 228.448 108.751 228.322 108.391 228.238C108.043 228.154 107.653 228.082 107.221 228.022C106.789 227.95 106.357 227.866 105.925 227.77C105.493 227.662 105.097 227.518 104.737 227.338C104.377 227.146 104.089 226.888 103.873 226.564C103.657 226.228 103.549 225.784 103.549 225.232C103.549 224.656 103.711 224.152 104.035 223.72C104.359 223.288 104.815 222.958 105.403 222.73C106.003 222.49 106.711 222.37 107.527 222.37C108.151 222.37 108.781 222.448 109.417 222.604C110.065 222.748 110.593 222.958 111.001 223.234L110.263 224.602C109.831 224.314 109.381 224.116 108.913 224.008C108.445 223.9 107.977 223.846 107.509 223.846C106.753 223.846 106.189 223.972 105.817 224.224C105.445 224.464 105.259 224.776 105.259 225.16C105.259 225.484 105.367 225.736 105.583 225.916C105.811 226.084 106.099 226.216 106.447 226.312C106.807 226.408 107.203 226.492 107.635 226.564C108.067 226.624 108.499 226.708 108.931 226.816C109.363 226.912 109.753 227.05 110.101 227.23C110.461 227.41 110.749 227.662 110.965 227.986C111.193 228.31 111.307 228.742 111.307 229.282C111.307 229.858 111.139 230.356 110.803 230.776C110.467 231.196 109.993 231.526 109.381 231.766C108.769 231.994 108.037 232.108 107.185 232.108Z" fill="#37376D"/>
<path fill-rule="evenodd" clip-rule="evenodd" d="M357 103H36V102H357V103Z" fill="black"/>
<path fill-rule="evenodd" clip-rule="evenodd" d="M357 194H36V193H357V194Z" fill="black"/>
<path d="M45.1795 258.874C45.1795 259.498 45.0115 260.062 44.6755 260.566C44.3515 261.058 43.9255 261.394 43.3975 261.574C44.0215 261.766 44.5555 262.12 44.9995 262.636C45.4555 263.14 45.6835 263.818 45.6835 264.67C45.6835 265.81 45.2575 266.686 44.4055 267.298C43.5655 267.91 42.4975 268.216 41.2015 268.216C39.5575 268.216 38.1355 267.946 36.9355 267.406V265.912C38.0995 266.512 39.4795 266.806 41.0755 266.794C43.1755 266.794 44.2255 266.062 44.2255 264.598C44.2255 263.134 43.2295 262.402 41.2375 262.402H39.3655V260.962L41.0755 260.98C41.9395 260.98 42.5935 260.8 43.0375 260.44C43.4935 260.068 43.7215 259.588 43.7215 259C43.7215 258.364 43.4695 257.866 42.9655 257.506C42.4615 257.134 41.7475 256.948 40.8235 256.948C39.5515 256.948 38.3275 257.26 37.1515 257.884V256.408C38.2795 255.832 39.5695 255.544 41.0215 255.544C42.2695 255.544 43.2715 255.85 44.0275 256.462C44.7955 257.074 45.1795 257.878 45.1795 258.874Z" fill="#37376D"/>
<path d="M48.85 266.47C47.938 265.306 47.482 263.776 47.482 261.88C47.482 259.984 47.938 258.454 48.85 257.29C49.762 256.126 51.106 255.544 52.882 255.544C54.67 255.544 56.02 256.126 56.932 257.29C57.844 258.442 58.3 259.972 58.3 261.88C58.3 263.788 57.844 265.324 56.932 266.488C56.02 267.64 54.67 268.216 52.882 268.216C51.106 268.216 49.762 267.634 48.85 266.47ZM55.798 265.516C56.446 264.664 56.77 263.452 56.77 261.88C56.77 260.308 56.446 259.102 55.798 258.262C55.162 257.41 54.19 256.984 52.882 256.984C51.574 256.984 50.602 257.41 49.966 258.262C49.33 259.102 49.012 260.308 49.012 261.88C49.012 263.452 49.33 264.664 49.966 265.516C50.602 266.356 51.574 266.776 52.882 266.776C54.19 266.776 55.162 266.356 55.798 265.516Z" fill="#37376D"/>
<path fill-rule="evenodd" clip-rule="evenodd" d="M357 285H36V284H357V285Z" fill="black"/>
<path d="M353.165 269.75L349 266L357.33 266L353.165 269.75Z" fill="#000C2C"/>
<path d="M353.165 255L357.33 258.75H349L353.165 255Z" fill="#000C2C"/>
<path d="M35 168.5C35 160.492 41.4919 154 49.5 154H94.5C102.508 154 109 160.492 109 168.5C109 176.508 102.508 183 94.5 183H49.5C41.4919 183 35 176.508 35 168.5Z" fill="#DDDDE6"/>
<rect x="35" y="154" width="74" height="29" rx="14.5" fill="#DDDDE6"/>
<path d="M47.988 174.5V162.62L48.762 163.466H45.144V161.9H49.77V174.5H47.988ZM57.6741 174.644C56.6901 174.644 55.8081 174.392 55.0281 173.888C54.2601 173.384 53.6481 172.652 53.1921 171.692C52.7481 170.732 52.5261 169.568 52.5261 168.2C52.5261 166.832 52.7481 165.668 53.1921 164.708C53.6481 163.748 54.2601 163.016 55.0281 162.512C55.8081 162.008 56.6901 161.756 57.6741 161.756C58.6461 161.756 59.5221 162.008 60.3021 162.512C61.0821 163.016 61.6941 163.748 62.1381 164.708C62.5821 165.668 62.8041 166.832 62.8041 168.2C62.8041 169.568 62.5821 170.732 62.1381 171.692C61.6941 172.652 61.0821 173.384 60.3021 173.888C59.5221 174.392 58.6461 174.644 57.6741 174.644ZM57.6741 173.042C58.3341 173.042 58.9101 172.862 59.4021 172.502C59.9061 172.142 60.2961 171.602 60.5721 170.882C60.8601 170.162 61.0041 169.268 61.0041 168.2C61.0041 167.132 60.8601 166.238 60.5721 165.518C60.2961 164.798 59.9061 164.258 59.4021 163.898C58.9101 163.538 58.3341 163.358 57.6741 163.358C57.0141 163.358 56.4321 163.538 55.9281 163.898C55.4241 164.258 55.0281 164.798 54.7401 165.518C54.4641 166.238 54.3261 167.132 54.3261 168.2C54.3261 169.268 54.4641 170.162 54.7401 170.882C55.0281 171.602 55.4241 172.142 55.9281 172.502C56.4321 172.862 57.0141 173.042 57.6741 173.042Z" fill="#37376D"/>
<path d="M99 168.5C99 174.299 94.299 179 88.5 179C82.701 179 78 174.299 78 168.5C78 162.701 82.701 158 88.5 158C94.299 158 99 162.701 99 168.5Z" fill="#AFAFBD"/>
<path fill-rule="evenodd" clip-rule="evenodd" d="M88.5005 167.793L85.672 164.964L84.9648 165.671L87.7934 168.5L84.9648 171.329L85.672 172.036L88.5005 169.207L91.3288 172.035L92.0359 171.328L89.2076 168.5L92.0359 165.672L91.3288 164.965L88.5005 167.793Z" fill="#37376D"/>
<rect x="35" y="64" width="74" height="29" rx="14.5" fill="#DDDDE6"/>
<path d="M46.89 84.5V71.9H48.366L54.018 81.422H53.226L58.806 71.9H60.282L60.3 84.5H58.572L58.554 74.618H58.968L54 82.97H53.172L48.168 74.618H48.618V84.5H46.89ZM67.9154 84.608C66.9554 84.608 66.1034 84.398 65.3594 83.978C64.6154 83.558 64.0274 82.982 63.5954 82.25C63.1634 81.506 62.9474 80.666 62.9474 79.73C62.9474 78.782 63.1634 77.942 63.5954 77.21C64.0274 76.478 64.6154 75.908 65.3594 75.5C66.1034 75.08 66.9554 74.87 67.9154 74.87C68.8634 74.87 69.7094 75.08 70.4534 75.5C71.2094 75.908 71.7974 76.478 72.2174 77.21C72.6494 77.93 72.8654 78.77 72.8654 79.73C72.8654 80.678 72.6494 81.518 72.2174 82.25C71.7974 82.982 71.2094 83.558 70.4534 83.978C69.7094 84.398 68.8634 84.608 67.9154 84.608ZM67.9154 83.096C68.5274 83.096 69.0734 82.958 69.5534 82.682C70.0454 82.406 70.4294 82.016 70.7054 81.512C70.9814 80.996 71.1194 80.402 71.1194 79.73C71.1194 79.046 70.9814 78.458 70.7054 77.966C70.4294 77.462 70.0454 77.072 69.5534 76.796C69.0734 76.52 68.5274 76.382 67.9154 76.382C67.3034 76.382 66.7574 76.52 66.2774 76.796C65.7974 77.072 65.4134 77.462 65.1254 77.966C64.8374 78.458 64.6934 79.046 64.6934 79.73C64.6934 80.402 64.8374 80.996 65.1254 81.512C65.4134 82.016 65.7974 82.406 66.2774 82.682C66.7574 82.958 67.3034 83.096 67.9154 83.096Z" fill="#37376D"/>
<path d="M99 78.5C99 84.299 94.299 89 88.5 89C82.701 89 78 84.299 78 78.5C78 72.701 82.701 68 88.5 68C94.299 68 99 72.701 99 78.5Z" fill="#AFAFBD"/>
<path fill-rule="evenodd" clip-rule="evenodd" d="M88.5005 77.7929L85.672 74.9644L84.9648 75.6715L87.7934 78.5L84.9648 81.3285L85.672 82.0356L88.5005 79.2071L91.3288 82.0354L92.0359 81.3283L89.2076 78.5L92.0359 75.6717L91.3288 74.9645L88.5005 77.7929Z" fill="#37376D"/>
<rect x="119" y="64" width="74" height="29" rx="14.5" fill="#DDDDE6"/>
<path d="M133.392 84.5V73.466H129.072V71.9H139.494V73.466H135.174V84.5H133.392ZM144.988 84.608C144.172 84.608 143.452 84.458 142.828 84.158C142.216 83.858 141.736 83.402 141.388 82.79C141.052 82.166 140.884 81.386 140.884 80.45V74.96H142.612V80.252C142.612 81.188 142.834 81.89 143.278 82.358C143.734 82.826 144.37 83.06 145.186 83.06C145.786 83.06 146.308 82.94 146.752 82.7C147.196 82.448 147.538 82.088 147.778 81.62C148.018 81.14 148.138 80.564 148.138 79.892V74.96H149.866V84.5H148.228V81.926L148.498 82.61C148.186 83.246 147.718 83.738 147.094 84.086C146.47 84.434 145.768 84.608 144.988 84.608Z" fill="#37376D"/>
<path d="M183 78.5C183 84.299 178.299 89 172.5 89C166.701 89 162 84.299 162 78.5C162 72.701 166.701 68 172.5 68C178.299 68 183 72.701 183 78.5Z" fill="#AFAFBD"/>
<path fill-rule="evenodd" clip-rule="evenodd" d="M172.5 77.7929L169.672 74.9644L168.965 75.6715L171.793 78.5L168.965 81.3285L169.672 82.0356L172.5 79.2071L175.329 82.0354L176.036 81.3283L173.208 78.5L176.036 75.6717L175.329 74.9645L172.5 77.7929Z" fill="#37376D"/>
<rect x="203" y="64" width="74" height="29" rx="14.5" fill="#DDDDE6"/>
<path d="M217.788 84.5L213.576 71.9H215.43L219.3 83.528H218.364L222.378 71.9H224.034L227.958 83.528H227.058L230.982 71.9H232.692L228.48 84.5H226.59L222.918 73.718H223.404L219.714 84.5H217.788ZM238.169 84.608C237.149 84.608 236.249 84.398 235.469 83.978C234.701 83.558 234.101 82.982 233.669 82.25C233.249 81.518 233.039 80.678 233.039 79.73C233.039 78.782 233.243 77.942 233.651 77.21C234.071 76.478 234.641 75.908 235.361 75.5C236.093 75.08 236.915 74.87 237.827 74.87C238.751 74.87 239.567 75.074 240.275 75.482C240.983 75.89 241.535 76.466 241.931 77.21C242.339 77.942 242.543 78.8 242.543 79.784C242.543 79.856 242.537 79.94 242.525 80.036C242.525 80.132 242.519 80.222 242.507 80.306H234.389V79.064H241.607L240.905 79.496C240.917 78.884 240.791 78.338 240.527 77.858C240.263 77.378 239.897 77.006 239.429 76.742C238.973 76.466 238.439 76.328 237.827 76.328C237.227 76.328 236.693 76.466 236.225 76.742C235.757 77.006 235.391 77.384 235.127 77.876C234.863 78.356 234.731 78.908 234.731 79.532V79.82C234.731 80.456 234.875 81.026 235.163 81.53C235.463 82.022 235.877 82.406 236.405 82.682C236.933 82.958 237.539 83.096 238.223 83.096C238.787 83.096 239.297 83 239.753 82.808C240.221 82.616 240.629 82.328 240.977 81.944L241.931 83.06C241.499 83.564 240.959 83.948 240.311 84.212C239.675 84.476 238.961 84.608 238.169 84.608Z" fill="#37376D"/>
<path d="M267 78.5C267 84.299 262.299 89 256.5 89C250.701 89 246 84.299 246 78.5C246 72.701 250.701 68 256.5 68C262.299 68 267 72.701 267 78.5Z" fill="#AFAFBD"/>
<path fill-rule="evenodd" clip-rule="evenodd" d="M256.5 77.7929L253.672 74.9644L252.965 75.6715L255.793 78.5L252.965 81.3285L253.672 82.0356L256.5 79.2071L259.329 82.0354L260.036 81.3283L257.208 78.5L260.036 75.6717L259.329 74.9645L256.5 77.7929Z" fill="#37376D"/>
<rect x="287" y="64" width="74" height="29" rx="14.5" fill="#DDDDE6"/>
<path d="M301.392 84.5V73.466H297.072V71.9H307.494V73.466H303.174V84.5H301.392ZM314.296 74.87C315.076 74.87 315.76 75.02 316.348 75.32C316.948 75.62 317.416 76.076 317.752 76.688C318.088 77.3 318.256 78.074 318.256 79.01V84.5H316.528V79.208C316.528 78.284 316.3 77.588 315.844 77.12C315.4 76.652 314.77 76.418 313.954 76.418C313.342 76.418 312.808 76.538 312.352 76.778C311.896 77.018 311.542 77.372 311.29 77.84C311.05 78.308 310.93 78.89 310.93 79.586V84.5H309.202V71.144H310.93V77.534L310.588 76.85C310.9 76.226 311.38 75.74 312.028 75.392C312.676 75.044 313.432 74.87 314.296 74.87Z" fill="#37376D"/>
<path d="M351 78.5C351 84.299 346.299 89 340.5 89C334.701 89 330 84.299 330 78.5C330 72.701 334.701 68 340.5 68C346.299 68 351 72.701 351 78.5Z" fill="#AFAFBD"/>
<path fill-rule="evenodd" clip-rule="evenodd" d="M340.5 77.7929L337.672 74.9644L336.965 75.6715L339.793 78.5L336.965 81.3285L337.672 82.0356L340.5 79.2071L343.329 82.0354L344.036 81.3283L341.208 78.5L344.036 75.6717L343.329 74.9645L340.5 77.7929Z" fill="#37376D"/>
<path d="M119 168.5C119 160.492 125.492 154 133.5 154H178.5C186.508 154 193 160.492 193 168.5C193 176.508 186.508 183 178.5 183H133.5C125.492 183 119 176.508 119 168.5Z" fill="#DDDDE6"/>
<path d="M135.923 161.76H137.039V172.56H139.325V174H132.953V172.56H135.527V163.362L132.953 164.334V162.894L135.923 161.76Z" fill="#37376D"/>
<path d="M140.957 162.732C142.097 161.94 143.406 161.544 144.882 161.544C146.154 161.544 147.168 161.832 147.924 162.408C148.679 162.984 149.057 163.788 149.057 164.82C149.057 165.312 148.962 165.774 148.77 166.206C148.59 166.638 148.313 167.034 147.941 167.394C147.582 167.754 147.227 168.06 146.879 168.312C146.543 168.552 146.117 168.822 145.601 169.122C145.542 169.158 145.356 169.266 145.043 169.446C144.743 169.626 144.551 169.74 144.467 169.788C144.395 169.836 144.227 169.944 143.964 170.112C143.712 170.268 143.543 170.382 143.459 170.454C143.387 170.526 143.255 170.64 143.063 170.796C142.883 170.952 142.757 171.084 142.685 171.192C142.625 171.3 142.541 171.438 142.433 171.606C142.337 171.762 142.271 171.918 142.235 172.074C142.199 172.23 142.181 172.398 142.181 172.578L149.147 172.56V174H140.525V173.28C140.525 172.608 140.634 172.002 140.85 171.462C141.066 170.91 141.372 170.442 141.767 170.058C142.175 169.662 142.577 169.332 142.973 169.068C143.369 168.792 143.832 168.498 144.359 168.186C144.479 168.126 144.569 168.078 144.629 168.042C145.721 167.406 146.435 166.92 146.771 166.584C147.287 166.056 147.545 165.462 147.545 164.802C147.545 164.202 147.299 163.746 146.807 163.434C146.328 163.11 145.643 162.948 144.755 162.948C143.459 162.948 142.193 163.38 140.957 164.244V162.732Z" fill="#37376D"/>
<path d="M188 168.5C188 174.299 183.299 179 177.5 179C171.701 179 167 174.299 167 168.5C167 162.701 171.701 158 177.5 158C183.299 158 188 162.701 188 168.5Z" fill="#AFAFBD"/>
<path fill-rule="evenodd" clip-rule="evenodd" d="M177.5 167.793L174.672 164.964L173.965 165.671L176.793 168.5L173.965 171.329L174.672 172.036L177.5 169.207L180.329 172.035L181.036 171.328L178.208 168.5L181.036 165.672L180.329 164.965L177.5 167.793Z" fill="#37376D"/>
<path d="M203 168.5C203 160.492 209.492 154 217.5 154H262.5C270.508 154 277 160.492 277 168.5C277 176.508 270.508 183 262.5 183H217.5C209.492 183 203 176.508 203 168.5Z" fill="#DDDDE6"/>
<path d="M219.923 161.76H221.039V172.56H223.325V174H216.953V172.56H219.527V163.362L216.953 164.334V162.894L219.923 161.76Z" fill="#37376D"/>
<path d="M230.861 161.76H232.5V169.878H234.803V171.282H232.5V174H231.005V171.282H224.183V169.932L230.861 161.76ZM231.005 169.878V163.794L226.037 169.878H231.005Z" fill="#37376D"/>
<path d="M272 168.5C272 174.299 267.299 179 261.5 179C255.701 179 251 174.299 251 168.5C251 162.701 255.701 158 261.5 158C267.299 158 272 162.701 272 168.5Z" fill="#AFAFBD"/>
<path fill-rule="evenodd" clip-rule="evenodd" d="M261.5 167.793L258.672 164.964L257.965 165.671L260.793 168.5L257.965 171.329L258.672 172.036L261.5 169.207L264.329 172.035L265.036 171.328L262.208 168.5L265.036 165.672L264.329 164.965L261.5 167.793Z" fill="#37376D"/>
<path d="M287 168.5C287 160.492 293.492 154 301.5 154H346.5C354.508 154 361 160.492 361 168.5C361 176.508 354.508 183 346.5 183H301.5C293.492 183 287 176.508 287 168.5Z" fill="#DDDDE6"/>
<path d="M303.923 161.76H305.039V172.56H307.325V174H300.953V172.56H303.527V163.362L300.953 164.334V162.894L303.923 161.76Z" fill="#37376D"/>
<path d="M310.2 167.538C311.364 166.758 312.641 166.368 314.033 166.368C315.149 166.368 316.128 166.71 316.968 167.394C317.808 168.066 318.227 169.002 318.227 170.202C318.227 171.462 317.808 172.446 316.968 173.154C316.14 173.862 315.095 174.216 313.835 174.216C312.108 174.216 310.811 173.682 309.947 172.614C309.095 171.534 308.669 170.022 308.669 168.078C308.669 165.918 309.179 164.292 310.2 163.2C311.231 162.096 312.575 161.544 314.231 161.544C315.299 161.544 316.29 161.778 317.201 162.246V163.686C316.313 163.218 315.335 162.984 314.267 162.984C313.139 162.984 312.198 163.35 311.441 164.082C310.697 164.802 310.283 165.954 310.2 167.538ZM310.217 169.05C310.445 171.558 311.615 172.812 313.727 172.812C314.615 172.812 315.33 172.608 315.87 172.2C316.422 171.792 316.698 171.15 316.698 170.274C316.698 169.386 316.416 168.75 315.852 168.366C315.288 167.97 314.556 167.772 313.656 167.772C312.323 167.772 311.177 168.198 310.217 169.05Z" fill="#37376D"/>
<path d="M356 168.5C356 174.299 351.299 179 345.5 179C339.701 179 335 174.299 335 168.5C335 162.701 339.701 158 345.5 158C351.299 158 356 162.701 356 168.5Z" fill="#AFAFBD"/>
<path fill-rule="evenodd" clip-rule="evenodd" d="M345.5 167.793L342.672 164.964L341.965 165.671L344.793 168.5L341.965 171.329L342.672 172.036L345.5 169.207L348.329 172.035L349.036 171.328L346.208 168.5L349.036 165.672L348.329 164.965L345.5 167.793Z" fill="#37376D"/>
<rect x="423" y="57" width="134" height="32" rx="5" fill="#E8F7FF"/>
<path d="M435.68 79V67.8H436.992L442.016 76.264H441.312L446.272 67.8H447.584L447.6 79H446.064L446.048 70.216H446.416L442 77.64H441.264L436.816 70.216H437.216V79H435.68ZM456.001 79V77.208L455.921 76.872V73.816C455.921 73.1653 455.729 72.664 455.345 72.312C454.972 71.9493 454.407 71.768 453.649 71.768C453.148 71.768 452.657 71.8533 452.177 72.024C451.697 72.184 451.292 72.4027 450.961 72.68L450.321 71.528C450.759 71.176 451.281 70.9093 451.889 70.728C452.508 70.536 453.153 70.44 453.825 70.44C454.988 70.44 455.884 70.7227 456.513 71.288C457.143 71.8533 457.457 72.7173 457.457 73.88V79H456.001ZM453.217 79.096C452.588 79.096 452.033 78.9893 451.553 78.776C451.084 78.5627 450.721 78.2693 450.465 77.896C450.209 77.512 450.081 77.08 450.081 76.6C450.081 76.1413 450.188 75.7253 450.401 75.352C450.625 74.9787 450.983 74.68 451.473 74.456C451.975 74.232 452.647 74.12 453.489 74.12H456.177V75.224H453.553C452.785 75.224 452.268 75.352 452.001 75.608C451.735 75.864 451.601 76.1733 451.601 76.536C451.601 76.952 451.767 77.288 452.097 77.544C452.428 77.7893 452.887 77.912 453.473 77.912C454.049 77.912 454.551 77.784 454.977 77.528C455.415 77.272 455.729 76.8987 455.921 76.408L456.225 77.464C456.023 77.9653 455.665 78.3653 455.153 78.664C454.641 78.952 453.996 79.096 453.217 79.096ZM464.828 70.44C465.521 70.44 466.129 70.5733 466.652 70.84C467.185 71.1067 467.601 71.512 467.9 72.056C468.198 72.6 468.348 73.288 468.348 74.12V79H466.812V74.296C466.812 73.4747 466.609 72.856 466.204 72.44C465.809 72.024 465.249 71.816 464.524 71.816C463.98 71.816 463.505 71.9227 463.1 72.136C462.694 72.3493 462.38 72.664 462.156 73.08C461.942 73.496 461.836 74.0133 461.836 74.632V79H460.3V70.52H461.772V72.808L461.532 72.2C461.809 71.6453 462.236 71.2133 462.812 70.904C463.388 70.5947 464.06 70.44 464.828 70.44ZM474.758 79.096C474.033 79.096 473.393 78.9627 472.838 78.696C472.294 78.4293 471.868 78.024 471.558 77.48C471.26 76.9253 471.11 76.232 471.11 75.4V70.52H472.646V75.224C472.646 76.056 472.844 76.68 473.238 77.096C473.644 77.512 474.209 77.72 474.934 77.72C475.468 77.72 475.932 77.6133 476.326 77.4C476.721 77.176 477.025 76.856 477.238 76.44C477.452 76.0133 477.558 75.5013 477.558 74.904V70.52H479.094V79H477.638V76.712L477.878 77.32C477.601 77.8853 477.185 78.3227 476.63 78.632C476.076 78.9413 475.452 79.096 474.758 79.096ZM482.243 79V69.768C482.243 68.936 482.483 68.2747 482.963 67.784C483.453 67.2827 484.147 67.032 485.043 67.032C485.373 67.032 485.688 67.0747 485.987 67.16C486.296 67.2347 486.557 67.3573 486.771 67.528L486.307 68.696C486.147 68.568 485.965 68.472 485.763 68.408C485.56 68.3333 485.347 68.296 485.123 68.296C484.675 68.296 484.333 68.424 484.099 68.68C483.864 68.9253 483.747 69.2933 483.747 69.784V70.92L483.779 71.624V79H482.243ZM480.803 71.784V70.52H486.211V71.784H480.803ZM492.767 79V77.208L492.687 76.872V73.816C492.687 73.1653 492.495 72.664 492.111 72.312C491.738 71.9493 491.172 71.768 490.415 71.768C489.914 71.768 489.423 71.8533 488.943 72.024C488.463 72.184 488.058 72.4027 487.727 72.68L487.087 71.528C487.524 71.176 488.047 70.9093 488.655 70.728C489.274 70.536 489.919 70.44 490.591 70.44C491.754 70.44 492.65 70.7227 493.279 71.288C493.908 71.8533 494.223 72.7173 494.223 73.88V79H492.767ZM489.983 79.096C489.354 79.096 488.799 78.9893 488.319 78.776C487.85 78.5627 487.487 78.2693 487.231 77.896C486.975 77.512 486.847 77.08 486.847 76.6C486.847 76.1413 486.954 75.7253 487.167 75.352C487.391 74.9787 487.748 74.68 488.239 74.456C488.74 74.232 489.412 74.12 490.255 74.12H492.943V75.224H490.319C489.551 75.224 489.034 75.352 488.767 75.608C488.5 75.864 488.367 76.1733 488.367 76.536C488.367 76.952 488.532 77.288 488.863 77.544C489.194 77.7893 489.652 77.912 490.239 77.912C490.815 77.912 491.316 77.784 491.743 77.528C492.18 77.272 492.495 76.8987 492.687 76.408L492.991 77.464C492.788 77.9653 492.431 78.3653 491.919 78.664C491.407 78.952 490.762 79.096 489.983 79.096ZM500.761 79.096C499.897 79.096 499.124 78.9093 498.441 78.536C497.769 78.1627 497.241 77.6507 496.857 77C496.473 76.3493 496.281 75.6027 496.281 74.76C496.281 73.9173 496.473 73.1707 496.857 72.52C497.241 71.8693 497.769 71.3627 498.441 71C499.124 70.6267 499.897 70.44 500.761 70.44C501.529 70.44 502.212 70.5947 502.809 70.904C503.417 71.2027 503.887 71.6507 504.217 72.248L503.049 73C502.772 72.584 502.431 72.28 502.025 72.088C501.631 71.8853 501.204 71.784 500.745 71.784C500.191 71.784 499.695 71.9067 499.257 72.152C498.82 72.3973 498.473 72.744 498.217 73.192C497.961 73.6293 497.833 74.152 497.833 74.76C497.833 75.368 497.961 75.896 498.217 76.344C498.473 76.792 498.82 77.1387 499.257 77.384C499.695 77.6293 500.191 77.752 500.745 77.752C501.204 77.752 501.631 77.656 502.025 77.464C502.431 77.2613 502.772 76.952 503.049 76.536L504.217 77.272C503.887 77.8587 503.417 78.312 502.809 78.632C502.212 78.9413 501.529 79.096 500.761 79.096ZM509.227 79.096C508.374 79.096 507.713 78.8667 507.243 78.408C506.774 77.9493 506.539 77.2933 506.539 76.44V68.664H508.075V76.376C508.075 76.8347 508.187 77.1867 508.411 77.432C508.646 77.6773 508.977 77.8 509.403 77.8C509.883 77.8 510.283 77.6667 510.603 77.4L511.083 78.504C510.849 78.7067 510.566 78.856 510.235 78.952C509.915 79.048 509.579 79.096 509.227 79.096ZM505.099 71.784V70.52H510.507V71.784H505.099ZM516.508 79.096C515.783 79.096 515.143 78.9627 514.588 78.696C514.044 78.4293 513.618 78.024 513.308 77.48C513.01 76.9253 512.86 76.232 512.86 75.4V70.52H514.396V75.224C514.396 76.056 514.594 76.68 514.988 77.096C515.394 77.512 515.959 77.72 516.684 77.72C517.218 77.72 517.682 77.6133 518.076 77.4C518.471 77.176 518.775 76.856 518.988 76.44C519.202 76.0133 519.308 75.5013 519.308 74.904V70.52H520.844V79H519.388V76.712L519.628 77.32C519.351 77.8853 518.935 78.3227 518.38 78.632C517.826 78.9413 517.202 79.096 516.508 79.096ZM523.769 79V70.52H525.241V72.824L525.097 72.248C525.331 71.6613 525.726 71.2133 526.281 70.904C526.835 70.5947 527.518 70.44 528.329 70.44V71.928C528.265 71.9173 528.201 71.912 528.137 71.912C528.083 71.912 528.03 71.912 527.977 71.912C527.155 71.912 526.505 72.1573 526.025 72.648C525.545 73.1387 525.305 73.848 525.305 74.776V79H523.769ZM533.92 79.096C533.013 79.096 532.213 78.9093 531.52 78.536C530.837 78.1627 530.304 77.6507 529.92 77C529.546 76.3493 529.36 75.6027 529.36 74.76C529.36 73.9173 529.541 73.1707 529.904 72.52C530.277 71.8693 530.784 71.3627 531.424 71C532.074 70.6267 532.805 70.44 533.616 70.44C534.437 70.44 535.162 70.6213 535.792 70.984C536.421 71.3467 536.912 71.8587 537.264 72.52C537.626 73.1707 537.808 73.9333 537.808 74.808C537.808 74.872 537.802 74.9467 537.792 75.032C537.792 75.1173 537.786 75.1973 537.776 75.272H530.56V74.168H536.976L536.352 74.552C536.362 74.008 536.25 73.5227 536.016 73.096C535.781 72.6693 535.456 72.3387 535.04 72.104C534.634 71.8587 534.16 71.736 533.616 71.736C533.082 71.736 532.608 71.8587 532.192 72.104C531.776 72.3387 531.45 72.6747 531.216 73.112C530.981 73.5387 530.864 74.0293 530.864 74.584V74.84C530.864 75.4053 530.992 75.912 531.248 76.36C531.514 76.7973 531.882 77.1387 532.352 77.384C532.821 77.6293 533.36 77.752 533.968 77.752C534.469 77.752 534.922 77.6667 535.328 77.496C535.744 77.3253 536.106 77.0693 536.416 76.728L537.264 77.72C536.88 78.168 536.4 78.5093 535.824 78.744C535.258 78.9787 534.624 79.096 533.92 79.096ZM539.94 79V70.52H541.412V72.824L541.268 72.248C541.503 71.6613 541.898 71.2133 542.452 70.904C543.007 70.5947 543.69 70.44 544.5 70.44V71.928C544.436 71.9173 544.372 71.912 544.308 71.912C544.255 71.912 544.202 71.912 544.148 71.912C543.327 71.912 542.676 72.1573 542.196 72.648C541.716 73.1387 541.476 73.848 541.476 74.776V79H539.94Z" fill="#37376D"/>
<rect x="423" y="97" width="74" height="32" rx="5" fill="#ECFFDE"/>
<path d="M438.944 119.128C438.091 119.128 437.275 119 436.496 118.744C435.717 118.477 435.104 118.136 434.656 117.72L435.248 116.472C435.675 116.845 436.219 117.155 436.88 117.4C437.541 117.645 438.229 117.768 438.944 117.768C439.595 117.768 440.123 117.693 440.528 117.544C440.933 117.395 441.232 117.192 441.424 116.936C441.616 116.669 441.712 116.371 441.712 116.04C441.712 115.656 441.584 115.347 441.328 115.112C441.083 114.877 440.757 114.691 440.352 114.552C439.957 114.403 439.52 114.275 439.04 114.168C438.56 114.061 438.075 113.939 437.584 113.8C437.104 113.651 436.661 113.464 436.256 113.24C435.861 113.016 435.541 112.717 435.296 112.344C435.051 111.96 434.928 111.469 434.928 110.872C434.928 110.296 435.077 109.768 435.376 109.288C435.685 108.797 436.155 108.408 436.784 108.12C437.424 107.821 438.235 107.672 439.216 107.672C439.867 107.672 440.512 107.757 441.152 107.928C441.792 108.099 442.347 108.344 442.816 108.664L442.288 109.944C441.808 109.624 441.301 109.395 440.768 109.256C440.235 109.107 439.717 109.032 439.216 109.032C438.587 109.032 438.069 109.112 437.664 109.272C437.259 109.432 436.96 109.645 436.768 109.912C436.587 110.179 436.496 110.477 436.496 110.808C436.496 111.203 436.619 111.517 436.864 111.752C437.12 111.987 437.445 112.173 437.84 112.312C438.245 112.451 438.688 112.579 439.168 112.696C439.648 112.803 440.128 112.925 440.608 113.064C441.099 113.203 441.541 113.384 441.936 113.608C442.341 113.832 442.667 114.131 442.912 114.504C443.157 114.877 443.28 115.357 443.28 115.944C443.28 116.509 443.125 117.037 442.816 117.528C442.507 118.008 442.027 118.397 441.376 118.696C440.736 118.984 439.925 119.128 438.944 119.128ZM448.306 119.096C447.452 119.096 446.791 118.867 446.322 118.408C445.852 117.949 445.618 117.293 445.618 116.44V108.664H447.154V116.376C447.154 116.835 447.266 117.187 447.49 117.432C447.724 117.677 448.055 117.8 448.482 117.8C448.962 117.8 449.362 117.667 449.682 117.4L450.162 118.504C449.927 118.707 449.644 118.856 449.314 118.952C448.994 119.048 448.658 119.096 448.306 119.096ZM444.178 111.784V110.52H449.586V111.784H444.178ZM457.283 119V117.208L457.203 116.872V113.816C457.203 113.165 457.011 112.664 456.627 112.312C456.253 111.949 455.688 111.768 454.931 111.768C454.429 111.768 453.939 111.853 453.459 112.024C452.979 112.184 452.573 112.403 452.243 112.68L451.603 111.528C452.04 111.176 452.563 110.909 453.171 110.728C453.789 110.536 454.435 110.44 455.107 110.44C456.269 110.44 457.165 110.723 457.795 111.288C458.424 111.853 458.739 112.717 458.739 113.88V119H457.283ZM454.499 119.096C453.869 119.096 453.315 118.989 452.835 118.776C452.365 118.563 452.003 118.269 451.747 117.896C451.491 117.512 451.363 117.08 451.363 116.6C451.363 116.141 451.469 115.725 451.683 115.352C451.907 114.979 452.264 114.68 452.755 114.456C453.256 114.232 453.928 114.12 454.771 114.12H457.459V115.224H454.835C454.067 115.224 453.549 115.352 453.283 115.608C453.016 115.864 452.883 116.173 452.883 116.536C452.883 116.952 453.048 117.288 453.379 117.544C453.709 117.789 454.168 117.912 454.755 117.912C455.331 117.912 455.832 117.784 456.259 117.528C456.696 117.272 457.011 116.899 457.203 116.408L457.507 117.464C457.304 117.965 456.947 118.365 456.435 118.664C455.923 118.952 455.277 119.096 454.499 119.096ZM464.493 119.096C463.64 119.096 462.978 118.867 462.509 118.408C462.04 117.949 461.805 117.293 461.805 116.44V108.664H463.341V116.376C463.341 116.835 463.453 117.187 463.677 117.432C463.912 117.677 464.242 117.8 464.669 117.8C465.149 117.8 465.549 117.667 465.869 117.4L466.349 118.504C466.114 118.707 465.832 118.856 465.501 118.952C465.181 119.048 464.845 119.096 464.493 119.096ZM460.365 111.784V110.52H465.773V111.784H460.365ZM471.774 119.096C471.049 119.096 470.409 118.963 469.854 118.696C469.31 118.429 468.883 118.024 468.574 117.48C468.275 116.925 468.126 116.232 468.126 115.4V110.52H469.662V115.224C469.662 116.056 469.859 116.68 470.254 117.096C470.659 117.512 471.225 117.72 471.95 117.72C472.483 117.72 472.947 117.613 473.342 117.4C473.737 117.176 474.041 116.856 474.254 116.44C474.467 116.013 474.574 115.501 474.574 114.904V110.52H476.11V119H474.654V116.712L474.894 117.32C474.617 117.885 474.201 118.323 473.646 118.632C473.091 118.941 472.467 119.096 471.774 119.096ZM481.466 119.096C480.762 119.096 480.09 119 479.45 118.808C478.821 118.616 478.325 118.381 477.962 118.104L478.602 116.888C478.965 117.133 479.413 117.341 479.946 117.512C480.479 117.683 481.023 117.768 481.578 117.768C482.293 117.768 482.805 117.667 483.114 117.464C483.434 117.261 483.594 116.979 483.594 116.616C483.594 116.349 483.498 116.141 483.306 115.992C483.114 115.843 482.858 115.731 482.538 115.656C482.229 115.581 481.882 115.517 481.498 115.464C481.114 115.4 480.73 115.325 480.346 115.24C479.962 115.144 479.61 115.016 479.29 114.856C478.97 114.685 478.714 114.456 478.522 114.168C478.33 113.869 478.234 113.475 478.234 112.984C478.234 112.472 478.378 112.024 478.666 111.64C478.954 111.256 479.359 110.963 479.882 110.76C480.415 110.547 481.045 110.44 481.77 110.44C482.325 110.44 482.885 110.509 483.45 110.648C484.026 110.776 484.495 110.963 484.858 111.208L484.202 112.424C483.818 112.168 483.418 111.992 483.002 111.896C482.586 111.8 482.17 111.752 481.754 111.752C481.082 111.752 480.581 111.864 480.25 112.088C479.919 112.301 479.754 112.579 479.754 112.92C479.754 113.208 479.85 113.432 480.042 113.592C480.245 113.741 480.501 113.859 480.81 113.944C481.13 114.029 481.482 114.104 481.866 114.168C482.25 114.221 482.634 114.296 483.018 114.392C483.402 114.477 483.749 114.6 484.058 114.76C484.378 114.92 484.634 115.144 484.826 115.432C485.029 115.72 485.13 116.104 485.13 116.584C485.13 117.096 484.981 117.539 484.682 117.912C484.383 118.285 483.962 118.579 483.418 118.792C482.874 118.995 482.223 119.096 481.466 119.096Z" fill="#37376D"/>
<rect x="423" y="177" width="122" height="32" rx="5" fill="#E8F7FF"/>
<path d="M440.688 199.128C439.835 199.128 439.045 198.989 438.32 198.712C437.605 198.424 436.981 198.024 436.448 197.512C435.925 196.989 435.515 196.381 435.216 195.688C434.917 194.995 434.768 194.232 434.768 193.4C434.768 192.568 434.917 191.805 435.216 191.112C435.515 190.419 435.931 189.816 436.464 189.304C436.997 188.781 437.621 188.381 438.336 188.104C439.061 187.816 439.851 187.672 440.704 187.672C441.568 187.672 442.363 187.821 443.088 188.12C443.824 188.408 444.448 188.84 444.96 189.416L443.92 190.424C443.493 189.976 443.013 189.645 442.48 189.432C441.947 189.208 441.376 189.096 440.768 189.096C440.139 189.096 439.552 189.203 439.008 189.416C438.475 189.629 438.011 189.928 437.616 190.312C437.221 190.696 436.912 191.155 436.688 191.688C436.475 192.211 436.368 192.781 436.368 193.4C436.368 194.019 436.475 194.595 436.688 195.128C436.912 195.651 437.221 196.104 437.616 196.488C438.011 196.872 438.475 197.171 439.008 197.384C439.552 197.597 440.139 197.704 440.768 197.704C441.376 197.704 441.947 197.597 442.48 197.384C443.013 197.16 443.493 196.819 443.92 196.36L444.96 197.368C444.448 197.944 443.824 198.381 443.088 198.68C442.363 198.979 441.563 199.128 440.688 199.128ZM450.291 199.096C449.438 199.096 448.68 198.909 448.019 198.536C447.358 198.163 446.835 197.651 446.451 197C446.067 196.339 445.875 195.592 445.875 194.76C445.875 193.917 446.067 193.171 446.451 192.52C446.835 191.869 447.358 191.363 448.019 191C448.68 190.627 449.438 190.44 450.291 190.44C451.134 190.44 451.886 190.627 452.547 191C453.219 191.363 453.742 191.869 454.115 192.52C454.499 193.16 454.691 193.907 454.691 194.76C454.691 195.603 454.499 196.349 454.115 197C453.742 197.651 453.219 198.163 452.547 198.536C451.886 198.909 451.134 199.096 450.291 199.096ZM450.291 197.752C450.835 197.752 451.32 197.629 451.747 197.384C452.184 197.139 452.526 196.792 452.771 196.344C453.016 195.885 453.139 195.357 453.139 194.76C453.139 194.152 453.016 193.629 452.771 193.192C452.526 192.744 452.184 192.397 451.747 192.152C451.32 191.907 450.835 191.784 450.291 191.784C449.747 191.784 449.262 191.907 448.835 192.152C448.408 192.397 448.067 192.744 447.811 193.192C447.555 193.629 447.427 194.152 447.427 194.76C447.427 195.357 447.555 195.885 447.811 196.344C448.067 196.792 448.408 197.139 448.835 197.384C449.262 197.629 449.747 197.752 450.291 197.752ZM462.001 199V197.208L461.921 196.872V193.816C461.921 193.165 461.729 192.664 461.345 192.312C460.972 191.949 460.407 191.768 459.649 191.768C459.148 191.768 458.657 191.853 458.177 192.024C457.697 192.184 457.292 192.403 456.961 192.68L456.321 191.528C456.759 191.176 457.281 190.909 457.889 190.728C458.508 190.536 459.153 190.44 459.825 190.44C460.988 190.44 461.884 190.723 462.513 191.288C463.143 191.853 463.457 192.717 463.457 193.88V199H462.001ZM459.217 199.096C458.588 199.096 458.033 198.989 457.553 198.776C457.084 198.563 456.721 198.269 456.465 197.896C456.209 197.512 456.081 197.08 456.081 196.6C456.081 196.141 456.188 195.725 456.401 195.352C456.625 194.979 456.983 194.68 457.473 194.456C457.975 194.232 458.647 194.12 459.489 194.12H462.177V195.224H459.553C458.785 195.224 458.268 195.352 458.001 195.608C457.735 195.864 457.601 196.173 457.601 196.536C457.601 196.952 457.767 197.288 458.097 197.544C458.428 197.789 458.887 197.912 459.473 197.912C460.049 197.912 460.551 197.784 460.977 197.528C461.415 197.272 461.729 196.899 461.921 196.408L462.225 197.464C462.023 197.965 461.665 198.365 461.153 198.664C460.641 198.952 459.996 199.096 459.217 199.096ZM468.732 199.096C468.028 199.096 467.356 199 466.716 198.808C466.086 198.616 465.59 198.381 465.228 198.104L465.868 196.888C466.23 197.133 466.678 197.341 467.212 197.512C467.745 197.683 468.289 197.768 468.844 197.768C469.558 197.768 470.07 197.667 470.38 197.464C470.7 197.261 470.86 196.979 470.86 196.616C470.86 196.349 470.764 196.141 470.572 195.992C470.38 195.843 470.124 195.731 469.804 195.656C469.494 195.581 469.148 195.517 468.764 195.464C468.38 195.4 467.996 195.325 467.612 195.24C467.228 195.144 466.876 195.016 466.556 194.856C466.236 194.685 465.98 194.456 465.788 194.168C465.596 193.869 465.5 193.475 465.5 192.984C465.5 192.472 465.644 192.024 465.932 191.64C466.22 191.256 466.625 190.963 467.148 190.76C467.681 190.547 468.31 190.44 469.036 190.44C469.59 190.44 470.15 190.509 470.716 190.648C471.292 190.776 471.761 190.963 472.124 191.208L471.468 192.424C471.084 192.168 470.684 191.992 470.268 191.896C469.852 191.8 469.436 191.752 469.02 191.752C468.348 191.752 467.846 191.864 467.516 192.088C467.185 192.301 467.02 192.579 467.02 192.92C467.02 193.208 467.116 193.432 467.308 193.592C467.51 193.741 467.766 193.859 468.076 193.944C468.396 194.029 468.748 194.104 469.132 194.168C469.516 194.221 469.9 194.296 470.284 194.392C470.668 194.477 471.014 194.6 471.324 194.76C471.644 194.92 471.9 195.144 472.092 195.432C472.294 195.72 472.396 196.104 472.396 196.584C472.396 197.096 472.246 197.539 471.948 197.912C471.649 198.285 471.228 198.579 470.684 198.792C470.14 198.995 469.489 199.096 468.732 199.096ZM477.227 199.096C476.374 199.096 475.713 198.867 475.243 198.408C474.774 197.949 474.539 197.293 474.539 196.44V188.664H476.075V196.376C476.075 196.835 476.187 197.187 476.411 197.432C476.646 197.677 476.977 197.8 477.403 197.8C477.883 197.8 478.283 197.667 478.603 197.4L479.083 198.504C478.849 198.707 478.566 198.856 478.235 198.952C477.915 199.048 477.579 199.096 477.227 199.096ZM473.099 191.784V190.52H478.507V191.784H473.099ZM488.949 202.2C488.171 202.2 487.413 202.088 486.677 201.864C485.952 201.651 485.36 201.341 484.901 200.936L485.637 199.752C486.032 200.093 486.517 200.36 487.093 200.552C487.669 200.755 488.272 200.856 488.901 200.856C489.904 200.856 490.64 200.621 491.109 200.152C491.579 199.683 491.813 198.968 491.813 198.008V196.216L491.973 194.536L491.893 192.84V190.52H493.349V197.848C493.349 199.341 492.976 200.44 492.229 201.144C491.483 201.848 490.389 202.2 488.949 202.2ZM488.757 198.648C487.936 198.648 487.2 198.477 486.549 198.136C485.909 197.784 485.397 197.299 485.013 196.68C484.64 196.061 484.453 195.347 484.453 194.536C484.453 193.715 484.64 193 485.013 192.392C485.397 191.773 485.909 191.293 486.549 190.952C487.2 190.611 487.936 190.44 488.757 190.44C489.483 190.44 490.144 190.589 490.741 190.888C491.339 191.176 491.813 191.624 492.165 192.232C492.528 192.84 492.709 193.608 492.709 194.536C492.709 195.453 492.528 196.216 492.165 196.824C491.813 197.432 491.339 197.891 490.741 198.2C490.144 198.499 489.483 198.648 488.757 198.648ZM488.933 197.304C489.499 197.304 490 197.187 490.437 196.952C490.875 196.717 491.216 196.392 491.461 195.976C491.717 195.56 491.845 195.08 491.845 194.536C491.845 193.992 491.717 193.512 491.461 193.096C491.216 192.68 490.875 192.36 490.437 192.136C490 191.901 489.499 191.784 488.933 191.784C488.368 191.784 487.861 191.901 487.413 192.136C486.976 192.36 486.629 192.68 486.373 193.096C486.128 193.512 486.005 193.992 486.005 194.536C486.005 195.08 486.128 195.56 486.373 195.976C486.629 196.392 486.976 196.717 487.413 196.952C487.861 197.187 488.368 197.304 488.933 197.304ZM496.284 199V190.52H497.756V192.824L497.612 192.248C497.847 191.661 498.241 191.213 498.796 190.904C499.351 190.595 500.033 190.44 500.844 190.44V191.928C500.78 191.917 500.716 191.912 500.652 191.912C500.599 191.912 500.545 191.912 500.492 191.912C499.671 191.912 499.02 192.157 498.54 192.648C498.06 193.139 497.82 193.848 497.82 194.776V199H496.284ZM506.291 199.096C505.438 199.096 504.68 198.909 504.019 198.536C503.358 198.163 502.835 197.651 502.451 197C502.067 196.339 501.875 195.592 501.875 194.76C501.875 193.917 502.067 193.171 502.451 192.52C502.835 191.869 503.358 191.363 504.019 191C504.68 190.627 505.438 190.44 506.291 190.44C507.134 190.44 507.886 190.627 508.547 191C509.219 191.363 509.742 191.869 510.115 192.52C510.499 193.16 510.691 193.907 510.691 194.76C510.691 195.603 510.499 196.349 510.115 197C509.742 197.651 509.219 198.163 508.547 198.536C507.886 198.909 507.134 199.096 506.291 199.096ZM506.291 197.752C506.835 197.752 507.32 197.629 507.747 197.384C508.184 197.139 508.526 196.792 508.771 196.344C509.016 195.885 509.139 195.357 509.139 194.76C509.139 194.152 509.016 193.629 508.771 193.192C508.526 192.744 508.184 192.397 507.747 192.152C507.32 191.907 506.835 191.784 506.291 191.784C505.747 191.784 505.262 191.907 504.835 192.152C504.408 192.397 504.067 192.744 503.811 193.192C503.555 193.629 503.427 194.152 503.427 194.76C503.427 195.357 503.555 195.885 503.811 196.344C504.067 196.792 504.408 197.139 504.835 197.384C505.262 197.629 505.747 197.752 506.291 197.752ZM516.383 199.096C515.658 199.096 515.018 198.963 514.463 198.696C513.919 198.429 513.493 198.024 513.183 197.48C512.885 196.925 512.735 196.232 512.735 195.4V190.52H514.271V195.224C514.271 196.056 514.469 196.68 514.863 197.096C515.269 197.512 515.834 197.72 516.559 197.72C517.093 197.72 517.557 197.613 517.951 197.4C518.346 197.176 518.65 196.856 518.863 196.44C519.077 196.013 519.183 195.501 519.183 194.904V190.52H520.719V199H519.263V196.712L519.503 197.32C519.226 197.885 518.81 198.323 518.255 198.632C517.701 198.941 517.077 199.096 516.383 199.096ZM528.14 199.096C527.436 199.096 526.79 198.936 526.204 198.616C525.628 198.285 525.164 197.8 524.812 197.16C524.47 196.52 524.299 195.72 524.299 194.76C524.299 193.8 524.465 193 524.796 192.36C525.137 191.72 525.596 191.24 526.172 190.92C526.758 190.6 527.414 190.44 528.14 190.44C528.972 190.44 529.708 190.621 530.348 190.984C530.988 191.347 531.494 191.853 531.868 192.504C532.241 193.144 532.428 193.896 532.428 194.76C532.428 195.624 532.241 196.381 531.868 197.032C531.494 197.683 530.988 198.189 530.348 198.552C529.708 198.915 528.972 199.096 528.14 199.096ZM523.644 202.104V190.52H525.116V192.808L525.02 194.776L525.18 196.744V202.104H523.644ZM528.012 197.752C528.556 197.752 529.041 197.629 529.468 197.384C529.905 197.139 530.246 196.792 530.492 196.344C530.748 195.885 530.876 195.357 530.876 194.76C530.876 194.152 530.748 193.629 530.492 193.192C530.246 192.744 529.905 192.397 529.468 192.152C529.041 191.907 528.556 191.784 528.012 191.784C527.478 191.784 526.993 191.907 526.556 192.152C526.129 192.397 525.788 192.744 525.532 193.192C525.286 193.629 525.164 194.152 525.164 194.76C525.164 195.357 525.286 195.885 525.532 196.344C525.788 196.792 526.129 197.139 526.556 197.384C526.993 197.629 527.478 197.752 528.012 197.752Z" fill="#37376D"/>
<rect x="423" y="217" width="131" height="32" rx="5" fill="#E8F7FF"/>
<path d="M440.688 239.128C439.835 239.128 439.045 238.989 438.32 238.712C437.605 238.424 436.981 238.024 436.448 237.512C435.925 236.989 435.515 236.381 435.216 235.688C434.917 234.995 434.768 234.232 434.768 233.4C434.768 232.568 434.917 231.805 435.216 231.112C435.515 230.419 435.931 229.816 436.464 229.304C436.997 228.781 437.621 228.381 438.336 228.104C439.061 227.816 439.851 227.672 440.704 227.672C441.568 227.672 442.363 227.821 443.088 228.12C443.824 228.408 444.448 228.84 444.96 229.416L443.92 230.424C443.493 229.976 443.013 229.645 442.48 229.432C441.947 229.208 441.376 229.096 440.768 229.096C440.139 229.096 439.552 229.203 439.008 229.416C438.475 229.629 438.011 229.928 437.616 230.312C437.221 230.696 436.912 231.155 436.688 231.688C436.475 232.211 436.368 232.781 436.368 233.4C436.368 234.019 436.475 234.595 436.688 235.128C436.912 235.651 437.221 236.104 437.616 236.488C438.011 236.872 438.475 237.171 439.008 237.384C439.552 237.597 440.139 237.704 440.768 237.704C441.376 237.704 441.947 237.597 442.48 237.384C443.013 237.16 443.493 236.819 443.92 236.36L444.96 237.368C444.448 237.944 443.824 238.381 443.088 238.68C442.363 238.979 441.563 239.128 440.688 239.128ZM450.291 239.096C449.438 239.096 448.68 238.909 448.019 238.536C447.358 238.163 446.835 237.651 446.451 237C446.067 236.339 445.875 235.592 445.875 234.76C445.875 233.917 446.067 233.171 446.451 232.52C446.835 231.869 447.358 231.363 448.019 231C448.68 230.627 449.438 230.44 450.291 230.44C451.134 230.44 451.886 230.627 452.547 231C453.219 231.363 453.742 231.869 454.115 232.52C454.499 233.16 454.691 233.907 454.691 234.76C454.691 235.603 454.499 236.349 454.115 237C453.742 237.651 453.219 238.163 452.547 238.536C451.886 238.909 451.134 239.096 450.291 239.096ZM450.291 237.752C450.835 237.752 451.32 237.629 451.747 237.384C452.184 237.139 452.526 236.792 452.771 236.344C453.016 235.885 453.139 235.357 453.139 234.76C453.139 234.152 453.016 233.629 452.771 233.192C452.526 232.744 452.184 232.397 451.747 232.152C451.32 231.907 450.835 231.784 450.291 231.784C449.747 231.784 449.262 231.907 448.835 232.152C448.408 232.397 448.067 232.744 447.811 233.192C447.555 233.629 447.427 234.152 447.427 234.76C447.427 235.357 447.555 235.885 447.811 236.344C448.067 236.792 448.408 237.139 448.835 237.384C449.262 237.629 449.747 237.752 450.291 237.752ZM460.383 239.096C459.658 239.096 459.018 238.963 458.463 238.696C457.919 238.429 457.493 238.024 457.183 237.48C456.885 236.925 456.735 236.232 456.735 235.4V230.52H458.271V235.224C458.271 236.056 458.469 236.68 458.863 237.096C459.269 237.512 459.834 237.72 460.559 237.72C461.093 237.72 461.557 237.613 461.951 237.4C462.346 237.176 462.65 236.856 462.863 236.44C463.077 236.013 463.183 235.501 463.183 234.904V230.52H464.719V239H463.263V236.712L463.503 237.32C463.226 237.885 462.81 238.323 462.255 238.632C461.701 238.941 461.077 239.096 460.383 239.096ZM472.172 230.44C472.865 230.44 473.473 230.573 473.996 230.84C474.529 231.107 474.945 231.512 475.244 232.056C475.542 232.6 475.692 233.288 475.692 234.12V239H474.156V234.296C474.156 233.475 473.953 232.856 473.548 232.44C473.153 232.024 472.593 231.816 471.868 231.816C471.324 231.816 470.849 231.923 470.444 232.136C470.038 232.349 469.724 232.664 469.5 233.08C469.286 233.496 469.18 234.013 469.18 234.632V239H467.644V230.52H469.116V232.808L468.876 232.2C469.153 231.645 469.58 231.213 470.156 230.904C470.732 230.595 471.404 230.44 472.172 230.44ZM481.446 239.096C480.593 239.096 479.931 238.867 479.462 238.408C478.993 237.949 478.758 237.293 478.758 236.44V228.664H480.294V236.376C480.294 236.835 480.406 237.187 480.63 237.432C480.865 237.677 481.195 237.8 481.622 237.8C482.102 237.8 482.502 237.667 482.822 237.4L483.302 238.504C483.067 238.707 482.785 238.856 482.454 238.952C482.134 239.048 481.798 239.096 481.446 239.096ZM477.318 231.784V230.52H482.726V231.784H477.318ZM488.654 239.096C487.747 239.096 486.947 238.909 486.254 238.536C485.571 238.163 485.038 237.651 484.654 237C484.281 236.349 484.094 235.603 484.094 234.76C484.094 233.917 484.275 233.171 484.638 232.52C485.011 231.869 485.518 231.363 486.158 231C486.809 230.627 487.539 230.44 488.35 230.44C489.171 230.44 489.897 230.621 490.526 230.984C491.155 231.347 491.646 231.859 491.998 232.52C492.361 233.171 492.542 233.933 492.542 234.808C492.542 234.872 492.537 234.947 492.526 235.032C492.526 235.117 492.521 235.197 492.51 235.272H485.294V234.168H491.71L491.086 234.552C491.097 234.008 490.985 233.523 490.75 233.096C490.515 232.669 490.19 232.339 489.774 232.104C489.369 231.859 488.894 231.736 488.35 231.736C487.817 231.736 487.342 231.859 486.926 232.104C486.51 232.339 486.185 232.675 485.95 233.112C485.715 233.539 485.598 234.029 485.598 234.584V234.84C485.598 235.405 485.726 235.912 485.982 236.36C486.249 236.797 486.617 237.139 487.086 237.384C487.555 237.629 488.094 237.752 488.702 237.752C489.203 237.752 489.657 237.667 490.062 237.496C490.478 237.325 490.841 237.069 491.15 236.728L491.998 237.72C491.614 238.168 491.134 238.509 490.558 238.744C489.993 238.979 489.358 239.096 488.654 239.096ZM494.675 239V230.52H496.147V232.824L496.003 232.248C496.237 231.661 496.632 231.213 497.187 230.904C497.741 230.595 498.424 230.44 499.235 230.44V231.928C499.171 231.917 499.107 231.912 499.043 231.912C498.989 231.912 498.936 231.912 498.883 231.912C498.061 231.912 497.411 232.157 496.931 232.648C496.451 233.139 496.211 233.848 496.211 234.776V239H494.675ZM505.624 239.096C504.92 239.096 504.275 238.936 503.688 238.616C503.112 238.285 502.648 237.8 502.296 237.16C501.955 236.52 501.784 235.72 501.784 234.76C501.784 233.8 501.949 233 502.28 232.36C502.621 231.72 503.08 231.24 503.656 230.92C504.243 230.6 504.899 230.44 505.624 230.44C506.456 230.44 507.192 230.621 507.832 230.984C508.472 231.347 508.979 231.853 509.352 232.504C509.725 233.144 509.912 233.896 509.912 234.76C509.912 235.624 509.725 236.381 509.352 237.032C508.979 237.683 508.472 238.189 507.832 238.552C507.192 238.915 506.456 239.096 505.624 239.096ZM501.128 242.104V230.52H502.6V232.808L502.504 234.776L502.664 236.744V242.104H501.128ZM505.496 237.752C506.04 237.752 506.525 237.629 506.952 237.384C507.389 237.139 507.731 236.792 507.976 236.344C508.232 235.885 508.36 235.357 508.36 234.76C508.36 234.152 508.232 233.629 507.976 233.192C507.731 232.744 507.389 232.397 506.952 232.152C506.525 231.907 506.04 231.784 505.496 231.784C504.963 231.784 504.477 231.907 504.04 232.152C503.613 232.397 503.272 232.744 503.016 233.192C502.771 233.629 502.648 234.152 502.648 234.76C502.648 235.357 502.771 235.885 503.016 236.344C503.272 236.792 503.613 237.139 504.04 237.384C504.477 237.629 504.963 237.752 505.496 237.752ZM517.22 239V237.208L517.14 236.872V233.816C517.14 233.165 516.948 232.664 516.564 232.312C516.191 231.949 515.625 231.768 514.868 231.768C514.367 231.768 513.876 231.853 513.396 232.024C512.916 232.184 512.511 232.403 512.18 232.68L511.54 231.528C511.977 231.176 512.5 230.909 513.108 230.728C513.727 230.536 514.372 230.44 515.044 230.44C516.207 230.44 517.103 230.723 517.732 231.288C518.361 231.853 518.676 232.717 518.676 233.88V239H517.22ZM514.436 239.096C513.807 239.096 513.252 238.989 512.772 238.776C512.303 238.563 511.94 238.269 511.684 237.896C511.428 237.512 511.3 237.08 511.3 236.6C511.3 236.141 511.407 235.725 511.62 235.352C511.844 234.979 512.201 234.68 512.692 234.456C513.193 234.232 513.865 234.12 514.708 234.12H517.396V235.224H514.772C514.004 235.224 513.487 235.352 513.22 235.608C512.953 235.864 512.82 236.173 512.82 236.536C512.82 236.952 512.985 237.288 513.316 237.544C513.647 237.789 514.105 237.912 514.692 237.912C515.268 237.912 515.769 237.784 516.196 237.528C516.633 237.272 516.948 236.899 517.14 236.408L517.444 237.464C517.241 237.965 516.884 238.365 516.372 238.664C515.86 238.952 515.215 239.096 514.436 239.096ZM521.519 239V230.52H522.991V232.824L522.847 232.248C523.081 231.661 523.476 231.213 524.031 230.904C524.585 230.595 525.268 230.44 526.079 230.44V231.928C526.015 231.917 525.951 231.912 525.887 231.912C525.833 231.912 525.78 231.912 525.727 231.912C524.905 231.912 524.255 232.157 523.775 232.648C523.295 233.139 523.055 233.848 523.055 234.776V239H521.519ZM531.227 239.096C530.374 239.096 529.713 238.867 529.243 238.408C528.774 237.949 528.539 237.293 528.539 236.44V228.664H530.075V236.376C530.075 236.835 530.187 237.187 530.411 237.432C530.646 237.677 530.977 237.8 531.403 237.8C531.883 237.8 532.283 237.667 532.603 237.4L533.083 238.504C532.849 238.707 532.566 238.856 532.235 238.952C531.915 239.048 531.579 239.096 531.227 239.096ZM527.099 231.784V230.52H532.507V231.784H527.099ZM535.152 242.2C534.747 242.2 534.352 242.131 533.968 241.992C533.584 241.864 533.253 241.672 532.976 241.416L533.632 240.264C533.845 240.467 534.08 240.621 534.336 240.728C534.592 240.835 534.864 240.888 535.152 240.888C535.525 240.888 535.835 240.792 536.08 240.6C536.325 240.408 536.555 240.067 536.768 239.576L537.296 238.408L537.456 238.216L540.784 230.52H542.288L538.176 239.848C537.931 240.445 537.653 240.915 537.344 241.256C537.045 241.597 536.715 241.837 536.352 241.976C535.989 242.125 535.589 242.2 535.152 242.2ZM537.168 239.272L533.296 230.52H534.896L538.192 238.072L537.168 239.272Z" fill="#37376D"/>
<rect x="423" y="137" width="42" height="32" rx="5" fill="#FFECD7"/>
<path d="M440.736 159.128C439.883 159.128 439.088 158.984 438.352 158.696C437.627 158.408 436.997 158.008 436.464 157.496C435.931 156.973 435.515 156.365 435.216 155.672C434.917 154.979 434.768 154.221 434.768 153.4C434.768 152.579 434.917 151.821 435.216 151.128C435.515 150.435 435.931 149.832 436.464 149.32C436.997 148.797 437.627 148.392 438.352 148.104C439.077 147.816 439.872 147.672 440.736 147.672C441.589 147.672 442.373 147.816 443.088 148.104C443.813 148.381 444.443 148.781 444.976 149.304C445.52 149.816 445.936 150.419 446.224 151.112C446.523 151.805 446.672 152.568 446.672 153.4C446.672 154.232 446.523 154.995 446.224 155.688C445.936 156.381 445.52 156.989 444.976 157.512C444.443 158.024 443.813 158.424 443.088 158.712C442.373 158.989 441.589 159.128 440.736 159.128ZM440.736 157.704C441.355 157.704 441.925 157.597 442.448 157.384C442.981 157.171 443.44 156.872 443.824 156.488C444.219 156.093 444.523 155.635 444.736 155.112C444.96 154.589 445.072 154.019 445.072 153.4C445.072 152.781 444.96 152.211 444.736 151.688C444.523 151.165 444.219 150.712 443.824 150.328C443.44 149.933 442.981 149.629 442.448 149.416C441.925 149.203 441.355 149.096 440.736 149.096C440.107 149.096 439.525 149.203 438.992 149.416C438.469 149.629 438.011 149.933 437.616 150.328C437.221 150.712 436.912 151.165 436.688 151.688C436.475 152.211 436.368 152.781 436.368 153.4C436.368 154.019 436.475 154.589 436.688 155.112C436.912 155.635 437.221 156.093 437.616 156.488C438.011 156.872 438.469 157.171 438.992 157.384C439.525 157.597 440.107 157.704 440.736 157.704ZM448.894 159V150.52H450.366V152.824L450.222 152.248C450.456 151.661 450.851 151.213 451.406 150.904C451.96 150.595 452.643 150.44 453.454 150.44V151.928C453.39 151.917 453.326 151.912 453.262 151.912C453.208 151.912 453.155 151.912 453.102 151.912C452.28 151.912 451.63 152.157 451.15 152.648C450.67 153.139 450.43 153.848 450.43 154.776V159H448.894Z" fill="#37376D"/>
<rect x="504" y="97" width="77" height="32" rx="5" fill="#ECFFDE"/>
<path d="M518.136 112.632H523.896V113.992H518.136V112.632ZM518.28 117.608H524.808V119H516.68V107.8H524.584V109.192H518.28V117.608ZM530.569 119.096C529.748 119.096 529.012 118.915 528.361 118.552C527.721 118.189 527.215 117.683 526.841 117.032C526.468 116.381 526.281 115.624 526.281 114.76C526.281 113.896 526.468 113.144 526.841 112.504C527.215 111.853 527.721 111.347 528.361 110.984C529.012 110.621 529.748 110.44 530.569 110.44C531.305 110.44 531.961 110.6 532.537 110.92C533.113 111.24 533.567 111.72 533.897 112.36C534.239 113 534.409 113.8 534.409 114.76C534.409 115.72 534.233 116.52 533.881 117.16C533.54 117.8 533.081 118.285 532.505 118.616C531.929 118.936 531.284 119.096 530.569 119.096ZM530.697 117.752C531.231 117.752 531.711 117.629 532.137 117.384C532.575 117.139 532.916 116.792 533.161 116.344C533.417 115.885 533.545 115.357 533.545 114.76C533.545 114.152 533.417 113.629 533.161 113.192C532.916 112.744 532.575 112.397 532.137 112.152C531.711 111.907 531.231 111.784 530.697 111.784C530.153 111.784 529.668 111.907 529.241 112.152C528.815 112.397 528.473 112.744 528.217 113.192C527.961 113.629 527.833 114.152 527.833 114.76C527.833 115.357 527.961 115.885 528.217 116.344C528.473 116.792 528.815 117.139 529.241 117.384C529.668 117.629 530.153 117.752 530.697 117.752ZM533.529 122.104V116.744L533.689 114.776L533.593 112.808V110.52H535.065V122.104H533.529ZM541.54 119.096C540.814 119.096 540.174 118.963 539.62 118.696C539.076 118.429 538.649 118.024 538.34 117.48C538.041 116.925 537.892 116.232 537.892 115.4V110.52H539.428V115.224C539.428 116.056 539.625 116.68 540.02 117.096C540.425 117.512 540.99 117.72 541.716 117.72C542.249 117.72 542.713 117.613 543.108 117.4C543.502 117.176 543.806 116.856 544.02 116.44C544.233 116.013 544.34 115.501 544.34 114.904V110.52H545.876V119H544.42V116.712L544.66 117.32C544.382 117.885 543.966 118.323 543.412 118.632C542.857 118.941 542.233 119.096 541.54 119.096ZM554.064 119V117.208L553.984 116.872V113.816C553.984 113.165 553.792 112.664 553.408 112.312C553.034 111.949 552.469 111.768 551.712 111.768C551.21 111.768 550.72 111.853 550.24 112.024C549.76 112.184 549.354 112.403 549.024 112.68L548.384 111.528C548.821 111.176 549.344 110.909 549.952 110.728C550.57 110.536 551.216 110.44 551.888 110.44C553.05 110.44 553.946 110.723 554.576 111.288C555.205 111.853 555.52 112.717 555.52 113.88V119H554.064ZM551.28 119.096C550.65 119.096 550.096 118.989 549.616 118.776C549.146 118.563 548.784 118.269 548.528 117.896C548.272 117.512 548.144 117.08 548.144 116.6C548.144 116.141 548.25 115.725 548.464 115.352C548.688 114.979 549.045 114.68 549.536 114.456C550.037 114.232 550.709 114.12 551.552 114.12H554.24V115.224H551.616C550.848 115.224 550.33 115.352 550.064 115.608C549.797 115.864 549.664 116.173 549.664 116.536C549.664 116.952 549.829 117.288 550.16 117.544C550.49 117.789 550.949 117.912 551.536 117.912C552.112 117.912 552.613 117.784 553.04 117.528C553.477 117.272 553.792 116.899 553.984 116.408L554.288 117.464C554.085 117.965 553.728 118.365 553.216 118.664C552.704 118.952 552.058 119.096 551.28 119.096ZM558.362 119V107.128H559.898V119H558.362ZM565.263 119.096C564.559 119.096 563.887 119 563.247 118.808C562.618 118.616 562.122 118.381 561.759 118.104L562.399 116.888C562.762 117.133 563.21 117.341 563.743 117.512C564.276 117.683 564.82 117.768 565.375 117.768C566.09 117.768 566.602 117.667 566.911 117.464C567.231 117.261 567.391 116.979 567.391 116.616C567.391 116.349 567.295 116.141 567.103 115.992C566.911 115.843 566.655 115.731 566.335 115.656C566.026 115.581 565.679 115.517 565.295 115.464C564.911 115.4 564.527 115.325 564.143 115.24C563.759 115.144 563.407 115.016 563.087 114.856C562.767 114.685 562.511 114.456 562.319 114.168C562.127 113.869 562.031 113.475 562.031 112.984C562.031 112.472 562.175 112.024 562.463 111.64C562.751 111.256 563.156 110.963 563.679 110.76C564.212 110.547 564.842 110.44 565.567 110.44C566.122 110.44 566.682 110.509 567.247 110.648C567.823 110.776 568.292 110.963 568.655 111.208L567.999 112.424C567.615 112.168 567.215 111.992 566.799 111.896C566.383 111.8 565.967 111.752 565.551 111.752C564.879 111.752 564.378 111.864 564.047 112.088C563.716 112.301 563.551 112.579 563.551 112.92C563.551 113.208 563.647 113.432 563.839 113.592C564.042 113.741 564.298 113.859 564.607 113.944C564.927 114.029 565.279 114.104 565.663 114.168C566.047 114.221 566.431 114.296 566.815 114.392C567.199 114.477 567.546 114.6 567.855 114.76C568.175 114.92 568.431 115.144 568.623 115.432C568.826 115.72 568.927 116.104 568.927 116.584C568.927 117.096 568.778 117.539 568.479 117.912C568.18 118.285 567.759 118.579 567.215 118.792C566.671 118.995 566.02 119.096 565.263 119.096Z" fill="#37376D"/>
<path fill-rule="evenodd" clip-rule="evenodd" d="M407.272 73.5646L402.707 69L402 69.7071L406.565 74.2717L402 78.8363L402.707 79.5434L407.272 74.9788L411.836 79.5431L412.543 78.836L407.979 74.2717L412.543 69.7074L411.836 69.0003L407.272 73.5646Z" fill="#F28100"/>
<path fill-rule="evenodd" clip-rule="evenodd" d="M407.272 230.565L402.707 226L402 226.707L406.565 231.272L402 235.836L402.707 236.543L407.272 231.979L411.836 236.543L412.543 235.836L407.979 231.272L412.543 226.707L411.836 226L407.272 230.565Z" fill="#F28100"/>
<path fill-rule="evenodd" clip-rule="evenodd" d="M407.272 112.565L402.707 108L402 108.707L406.565 113.272L402 117.836L402.707 118.543L407.272 113.979L411.836 118.543L412.543 117.836L407.979 113.272L412.543 108.707L411.836 108L407.272 112.565Z" fill="#F28100"/>
<path fill-rule="evenodd" clip-rule="evenodd" d="M407.272 269.565L402.707 265L402 265.707L406.565 270.272L402 274.836L402.707 275.543L407.272 270.979L411.836 275.543L412.543 274.836L407.979 270.272L412.543 265.707L411.836 265L407.272 269.565Z" fill="#F28100"/>
<path fill-rule="evenodd" clip-rule="evenodd" d="M407.272 191.565L402.707 187L402 187.707L406.565 192.272L402 196.836L402.707 197.543L407.272 192.979L411.836 197.543L412.543 196.836L407.979 192.272L412.543 187.707L411.836 187L407.272 191.565Z" fill="#F28100"/>
<path fill-rule="evenodd" clip-rule="evenodd" d="M407.272 151.565L402.707 147L402 147.707L406.565 152.272L402 156.836L402.707 157.543L407.272 152.979L411.836 157.543L412.543 156.836L407.979 152.272L412.543 147.707L411.836 147L407.272 151.565Z" fill="#F28100"/>
</svg>
