<svg width="619" height="323" viewBox="0 0 619 323" fill="none" xmlns="http://www.w3.org/2000/svg">
<path d="M0 15C0 6.71574 6.71573 0 15 0H604C612.284 0 619 6.71573 619 15V308C619 316.284 612.284 323 604 323H15C6.71572 323 0 316.284 0 308V15Z" fill="white"/>
<path d="M62 74L289 74" stroke="black"/>
<path d="M63.89 58V45.4H65.366L71.018 54.922H70.226L75.806 45.4H77.282L77.3 58H75.572L75.554 48.118H75.968L71 56.47H70.172L65.168 48.118H65.618V58H63.89ZM81.2434 61.6C80.7874 61.6 80.3434 61.522 79.9114 61.366C79.4794 61.222 79.1074 61.006 78.7954 60.718L79.5334 59.422C79.7734 59.65 80.0374 59.824 80.3254 59.944C80.6134 60.064 80.9194 60.124 81.2434 60.124C81.6634 60.124 82.0114 60.016 82.2874 59.8C82.5634 59.584 82.8214 59.2 83.0614 58.648L83.6554 57.334L83.8354 57.118L87.5794 48.46H89.2714L84.6454 58.954C84.3694 59.626 84.0574 60.154 83.7094 60.538C83.3734 60.922 83.0014 61.192 82.5934 61.348C82.1854 61.516 81.7354 61.6 81.2434 61.6ZM83.5114 58.306L79.1554 48.46H80.9554L84.6634 56.956L83.5114 58.306ZM95.7181 58V48.46H97.4461V58H95.7181ZM96.5821 46.624C96.2461 46.624 95.9641 46.516 95.7361 46.3C95.5201 46.084 95.4121 45.82 95.4121 45.508C95.4121 45.184 95.5201 44.914 95.7361 44.698C95.9641 44.482 96.2461 44.374 96.5821 44.374C96.9181 44.374 97.1941 44.482 97.4101 44.698C97.6381 44.902 97.7521 45.16 97.7521 45.472C97.7521 45.796 97.6441 46.072 97.4281 46.3C97.2121 46.516 96.9301 46.624 96.5821 46.624ZM104.021 58.108C103.061 58.108 102.317 57.85 101.789 57.334C101.261 56.818 100.997 56.08 100.997 55.12V46.372H102.725V55.048C102.725 55.564 102.851 55.96 103.103 56.236C103.367 56.512 103.739 56.65 104.219 56.65C104.759 56.65 105.209 56.5 105.569 56.2L106.109 57.442C105.845 57.67 105.527 57.838 105.155 57.946C104.795 58.054 104.417 58.108 104.021 58.108ZM99.3774 49.882V48.46H105.461V49.882H99.3774ZM112.13 58.108C111.11 58.108 110.21 57.898 109.43 57.478C108.662 57.058 108.062 56.482 107.63 55.75C107.21 55.018 107 54.178 107 53.23C107 52.282 107.204 51.442 107.612 50.71C108.032 49.978 108.602 49.408 109.322 49C110.054 48.58 110.876 48.37 111.788 48.37C112.712 48.37 113.528 48.574 114.236 48.982C114.944 49.39 115.496 49.966 115.892 50.71C116.3 51.442 116.504 52.3 116.504 53.284C116.504 53.356 116.498 53.44 116.486 53.536C116.486 53.632 116.48 53.722 116.468 53.806H108.35V52.564H115.568L114.866 52.996C114.878 52.384 114.752 51.838 114.488 51.358C114.224 50.878 113.858 50.506 113.39 50.242C112.934 49.966 112.4 49.828 111.788 49.828C111.188 49.828 110.654 49.966 110.186 50.242C109.718 50.506 109.352 50.884 109.088 51.376C108.824 51.856 108.692 52.408 108.692 53.032V53.32C108.692 53.956 108.836 54.526 109.124 55.03C109.424 55.522 109.838 55.906 110.366 56.182C110.894 56.458 111.5 56.596 112.184 56.596C112.748 56.596 113.258 56.5 113.714 56.308C114.182 56.116 114.59 55.828 114.938 55.444L115.892 56.56C115.46 57.064 114.92 57.448 114.272 57.712C113.636 57.976 112.922 58.108 112.13 58.108ZM130.838 48.37C131.606 48.37 132.284 48.52 132.872 48.82C133.46 49.12 133.916 49.576 134.24 50.188C134.576 50.8 134.744 51.574 134.744 52.51V58H133.016V52.708C133.016 51.784 132.8 51.088 132.368 50.62C131.936 50.152 131.33 49.918 130.55 49.918C129.974 49.918 129.47 50.038 129.038 50.278C128.606 50.518 128.27 50.872 128.03 51.34C127.802 51.808 127.688 52.39 127.688 53.086V58H125.96V52.708C125.96 51.784 125.744 51.088 125.312 50.62C124.892 50.152 124.286 49.918 123.494 49.918C122.93 49.918 122.432 50.038 122 50.278C121.568 50.518 121.232 50.872 120.992 51.34C120.752 51.808 120.632 52.39 120.632 53.086V58H118.904V48.46H120.56V50.998L120.29 50.35C120.59 49.726 121.052 49.24 121.676 48.892C122.3 48.544 123.026 48.37 123.854 48.37C124.766 48.37 125.552 48.598 126.212 49.054C126.872 49.498 127.304 50.176 127.508 51.088L126.806 50.8C127.094 50.068 127.598 49.48 128.318 49.036C129.038 48.592 129.878 48.37 130.838 48.37Z" fill="#37376D"/>
<path d="M285.165 55.75L281 52L289.33 52L285.165 55.75Z" fill="#000C2C"/>
<path d="M329 74L556 74" stroke="black"/>
<path d="M336.524 58.144C335.564 58.144 334.676 57.988 333.86 57.676C333.056 57.352 332.354 56.902 331.754 56.326C331.166 55.738 330.704 55.054 330.368 54.274C330.032 53.494 329.864 52.636 329.864 51.7C329.864 50.764 330.032 49.906 330.368 49.126C330.704 48.346 331.172 47.668 331.772 47.092C332.372 46.504 333.074 46.054 333.878 45.742C334.694 45.418 335.582 45.256 336.542 45.256C337.514 45.256 338.408 45.424 339.224 45.76C340.052 46.084 340.754 46.57 341.33 47.218L340.16 48.352C339.68 47.848 339.14 47.476 338.54 47.236C337.94 46.984 337.298 46.858 336.614 46.858C335.906 46.858 335.246 46.978 334.634 47.218C334.034 47.458 333.512 47.794 333.068 48.226C332.624 48.658 332.276 49.174 332.024 49.774C331.784 50.362 331.664 51.004 331.664 51.7C331.664 52.396 331.784 53.044 332.024 53.644C332.276 54.232 332.624 54.742 333.068 55.174C333.512 55.606 334.034 55.942 334.634 56.182C335.246 56.422 335.906 56.542 336.614 56.542C337.298 56.542 337.94 56.422 338.54 56.182C339.14 55.93 339.68 55.546 340.16 55.03L341.33 56.164C340.754 56.812 340.052 57.304 339.224 57.64C338.408 57.976 337.508 58.144 336.524 58.144ZM347.328 58.108C346.368 58.108 345.516 57.898 344.772 57.478C344.028 57.058 343.44 56.482 343.008 55.75C342.576 55.006 342.36 54.166 342.36 53.23C342.36 52.282 342.576 51.442 343.008 50.71C343.44 49.978 344.028 49.408 344.772 49C345.516 48.58 346.368 48.37 347.328 48.37C348.276 48.37 349.122 48.58 349.866 49C350.622 49.408 351.21 49.978 351.63 50.71C352.062 51.43 352.278 52.27 352.278 53.23C352.278 54.178 352.062 55.018 351.63 55.75C351.21 56.482 350.622 57.058 349.866 57.478C349.122 57.898 348.276 58.108 347.328 58.108ZM347.328 56.596C347.94 56.596 348.486 56.458 348.966 56.182C349.458 55.906 349.842 55.516 350.118 55.012C350.394 54.496 350.532 53.902 350.532 53.23C350.532 52.546 350.394 51.958 350.118 51.466C349.842 50.962 349.458 50.572 348.966 50.296C348.486 50.02 347.94 49.882 347.328 49.882C346.716 49.882 346.17 50.02 345.69 50.296C345.21 50.572 344.826 50.962 344.538 51.466C344.25 51.958 344.106 52.546 344.106 53.23C344.106 53.902 344.25 54.496 344.538 55.012C344.826 55.516 345.21 55.906 345.69 56.182C346.17 56.458 346.716 56.596 347.328 56.596ZM366.601 48.37C367.369 48.37 368.047 48.52 368.635 48.82C369.223 49.12 369.679 49.576 370.003 50.188C370.339 50.8 370.507 51.574 370.507 52.51V58H368.779V52.708C368.779 51.784 368.563 51.088 368.131 50.62C367.699 50.152 367.093 49.918 366.313 49.918C365.737 49.918 365.233 50.038 364.801 50.278C364.369 50.518 364.033 50.872 363.793 51.34C363.565 51.808 363.451 52.39 363.451 53.086V58H361.723V52.708C361.723 51.784 361.507 51.088 361.075 50.62C360.655 50.152 360.049 49.918 359.257 49.918C358.693 49.918 358.195 50.038 357.763 50.278C357.331 50.518 356.995 50.872 356.755 51.34C356.515 51.808 356.395 52.39 356.395 53.086V58H354.667V48.46H356.323V50.998L356.053 50.35C356.353 49.726 356.815 49.24 357.439 48.892C358.063 48.544 358.789 48.37 359.617 48.37C360.529 48.37 361.315 48.598 361.975 49.054C362.635 49.498 363.067 50.176 363.271 51.088L362.569 50.8C362.857 50.068 363.361 49.48 364.081 49.036C364.801 48.592 365.641 48.37 366.601 48.37ZM378.745 58.108C377.953 58.108 377.227 57.928 376.567 57.568C375.919 57.196 375.397 56.65 375.001 55.93C374.617 55.21 374.425 54.31 374.425 53.23C374.425 52.15 374.611 51.25 374.983 50.53C375.367 49.81 375.883 49.27 376.531 48.91C377.191 48.55 377.929 48.37 378.745 48.37C379.681 48.37 380.509 48.574 381.229 48.982C381.949 49.39 382.519 49.96 382.939 50.692C383.359 51.412 383.569 52.258 383.569 53.23C383.569 54.202 383.359 55.054 382.939 55.786C382.519 56.518 381.949 57.088 381.229 57.496C380.509 57.904 379.681 58.108 378.745 58.108ZM373.687 61.492V48.46H375.343V51.034L375.235 53.248L375.415 55.462V61.492H373.687ZM378.601 56.596C379.213 56.596 379.759 56.458 380.239 56.182C380.731 55.906 381.115 55.516 381.391 55.012C381.679 54.496 381.823 53.902 381.823 53.23C381.823 52.546 381.679 51.958 381.391 51.466C381.115 50.962 380.731 50.572 380.239 50.296C379.759 50.02 379.213 49.882 378.601 49.882C378.001 49.882 377.455 50.02 376.963 50.296C376.483 50.572 376.099 50.962 375.811 51.466C375.535 51.958 375.397 52.546 375.397 53.23C375.397 53.902 375.535 54.496 375.811 55.012C376.099 55.516 376.483 55.906 376.963 56.182C377.455 56.458 378.001 56.596 378.601 56.596ZM390.204 58.108C389.184 58.108 388.284 57.898 387.504 57.478C386.736 57.058 386.136 56.482 385.704 55.75C385.284 55.018 385.074 54.178 385.074 53.23C385.074 52.282 385.278 51.442 385.686 50.71C386.106 49.978 386.676 49.408 387.396 49C388.128 48.58 388.95 48.37 389.862 48.37C390.786 48.37 391.602 48.574 392.31 48.982C393.018 49.39 393.57 49.966 393.966 50.71C394.374 51.442 394.578 52.3 394.578 53.284C394.578 53.356 394.572 53.44 394.56 53.536C394.56 53.632 394.554 53.722 394.542 53.806H386.424V52.564H393.642L392.94 52.996C392.952 52.384 392.826 51.838 392.562 51.358C392.298 50.878 391.932 50.506 391.464 50.242C391.008 49.966 390.474 49.828 389.862 49.828C389.262 49.828 388.728 49.966 388.26 50.242C387.792 50.506 387.426 50.884 387.162 51.376C386.898 51.856 386.766 52.408 386.766 53.032V53.32C386.766 53.956 386.91 54.526 387.198 55.03C387.498 55.522 387.912 55.906 388.44 56.182C388.968 56.458 389.574 56.596 390.258 56.596C390.822 56.596 391.332 56.5 391.788 56.308C392.256 56.116 392.664 55.828 393.012 55.444L393.966 56.56C393.534 57.064 392.994 57.448 392.346 57.712C391.71 57.976 390.996 58.108 390.204 58.108ZM400.254 58.108C399.294 58.108 398.55 57.85 398.022 57.334C397.494 56.818 397.23 56.08 397.23 55.12V46.372H398.958V55.048C398.958 55.564 399.084 55.96 399.336 56.236C399.6 56.512 399.972 56.65 400.452 56.65C400.992 56.65 401.442 56.5 401.802 56.2L402.342 57.442C402.078 57.67 401.76 57.838 401.388 57.946C401.028 58.054 400.65 58.108 400.254 58.108ZM395.61 49.882V48.46H401.694V49.882H395.61ZM404.431 58V48.46H406.159V58H404.431ZM405.295 46.624C404.959 46.624 404.677 46.516 404.449 46.3C404.233 46.084 404.125 45.82 404.125 45.508C404.125 45.184 404.233 44.914 404.449 44.698C404.677 44.482 404.959 44.374 405.295 44.374C405.631 44.374 405.907 44.482 406.123 44.698C406.351 44.902 406.465 45.16 406.465 45.472C406.465 45.796 406.357 46.072 406.141 46.3C405.925 46.516 405.643 46.624 405.295 46.624ZM412.734 58.108C411.774 58.108 411.03 57.85 410.502 57.334C409.974 56.818 409.71 56.08 409.71 55.12V46.372H411.438V55.048C411.438 55.564 411.564 55.96 411.816 56.236C412.08 56.512 412.452 56.65 412.932 56.65C413.472 56.65 413.922 56.5 414.282 56.2L414.822 57.442C414.558 57.67 414.24 57.838 413.868 57.946C413.508 58.054 413.13 58.108 412.734 58.108ZM408.09 49.882V48.46H414.174V49.882H408.09ZM420.681 58.108C419.721 58.108 418.869 57.898 418.125 57.478C417.381 57.058 416.793 56.482 416.361 55.75C415.929 55.006 415.713 54.166 415.713 53.23C415.713 52.282 415.929 51.442 416.361 50.71C416.793 49.978 417.381 49.408 418.125 49C418.869 48.58 419.721 48.37 420.681 48.37C421.629 48.37 422.475 48.58 423.219 49C423.975 49.408 424.563 49.978 424.983 50.71C425.415 51.43 425.631 52.27 425.631 53.23C425.631 54.178 425.415 55.018 424.983 55.75C424.563 56.482 423.975 57.058 423.219 57.478C422.475 57.898 421.629 58.108 420.681 58.108ZM420.681 56.596C421.293 56.596 421.839 56.458 422.319 56.182C422.811 55.906 423.195 55.516 423.471 55.012C423.747 54.496 423.885 53.902 423.885 53.23C423.885 52.546 423.747 51.958 423.471 51.466C423.195 50.962 422.811 50.572 422.319 50.296C421.839 50.02 421.293 49.882 420.681 49.882C420.069 49.882 419.523 50.02 419.043 50.296C418.563 50.572 418.179 50.962 417.891 51.466C417.603 51.958 417.459 52.546 417.459 53.23C417.459 53.902 417.603 54.496 417.891 55.012C418.179 55.516 418.563 55.906 419.043 56.182C419.523 56.458 420.069 56.596 420.681 56.596ZM428.021 58V48.46H429.677V51.052L429.515 50.404C429.779 49.744 430.223 49.24 430.847 48.892C431.471 48.544 432.239 48.37 433.151 48.37V50.044C433.079 50.032 433.007 50.026 432.935 50.026C432.875 50.026 432.815 50.026 432.755 50.026C431.831 50.026 431.099 50.302 430.559 50.854C430.019 51.406 429.749 52.204 429.749 53.248V58H428.021Z" fill="#37376D"/>
<path d="M552.165 55.75L548 52L556.33 52L552.165 55.75Z" fill="#000C2C"/>
<circle opacity="0.6" cx="144" cy="193" r="82" fill="#FFE264"/>
<path d="M226 193C226 212.362 219.149 231.099 206.66 245.894C194.171 260.689 176.849 270.587 157.762 273.837C138.675 277.086 119.054 273.477 102.373 263.648C85.6917 253.819 73.0264 238.405 66.6195 220.134C60.2127 201.863 60.4776 181.915 67.3674 163.82C74.2572 145.726 87.3273 130.654 104.264 121.271C121.2 111.889 140.91 108.802 159.904 112.557C178.898 116.312 195.951 126.667 208.042 141.789L144 193H226Z" fill="#F28100"/>
<path d="M226 193C226 210.72 220.26 227.963 209.639 242.148C199.018 256.332 184.089 266.695 167.085 271.683C150.082 276.672 131.92 276.019 115.32 269.821C98.7188 263.623 84.5723 252.214 74.9984 237.303C65.4246 222.392 60.9385 204.781 62.212 187.107C63.4855 169.433 70.45 152.647 82.0627 139.262C93.6753 125.878 109.311 116.615 126.629 112.861C143.947 109.107 162.015 111.064 178.127 118.439L144 193H226Z" fill="#0FA7F0"/>
<circle opacity="0.6" cx="283.5" cy="257.5" r="17.5" fill="#FFE264"/>
<path d="M301 257.5C301 261.632 299.538 265.631 296.873 268.788C294.207 271.946 290.511 274.058 286.437 274.752C282.364 275.445 278.176 274.675 274.616 272.577C271.056 270.48 268.353 267.19 266.986 263.291C265.619 259.392 265.675 255.134 267.145 251.273C268.616 247.411 271.405 244.194 275.02 242.192C278.634 240.19 282.841 239.531 286.894 240.332C290.948 241.134 294.587 243.344 297.168 246.571L283.5 257.5H301Z" fill="#F28100"/>
<path d="M301 257.5C301 259.798 300.547 262.074 299.668 264.197C298.788 266.32 297.499 268.249 295.874 269.874C294.249 271.499 292.32 272.788 290.197 273.668C288.074 274.547 285.798 275 283.5 275C281.202 275 278.926 274.547 276.803 273.668C274.68 272.788 272.751 271.499 271.126 269.874C269.501 268.249 268.212 266.32 267.332 264.197C266.453 262.074 266 259.798 266 257.5L283.5 257.5H301Z" fill="#0FA7F0"/>
<path opacity="0.6" d="M348.246 268.33C350.884 264.982 352.209 260.787 351.973 256.532C351.737 252.276 349.957 248.253 346.965 245.217C343.974 242.182 339.978 240.342 335.726 240.043C331.475 239.744 327.26 241.008 323.874 243.595C320.488 246.183 318.162 249.918 317.334 254.099C316.505 258.279 317.231 262.619 319.375 266.302C321.519 269.986 324.933 272.761 328.977 274.106C333.021 275.451 337.417 275.274 341.34 273.608L334.5 257.5L348.246 268.33Z" fill="#FFE264"/>
<path d="M352 257.5C352 261.959 350.298 266.25 347.241 269.497C344.184 272.743 340.003 274.7 335.552 274.968C331.101 275.236 326.716 273.795 323.291 270.939C319.867 268.083 317.662 264.027 317.127 259.601C316.591 255.174 317.766 250.709 320.411 247.119C323.056 243.529 326.972 241.085 331.359 240.284C335.745 239.484 340.272 240.388 344.015 242.813C347.757 245.237 350.433 248.999 351.496 253.329L334.5 257.5H352Z" fill="#F28100"/>
<path d="M352 257.5C352 260.961 350.974 264.345 349.051 267.222C347.128 270.1 344.395 272.343 341.197 273.668C337.999 274.992 334.481 275.339 331.086 274.664C327.691 273.989 324.573 272.322 322.126 269.874C319.678 267.427 318.011 264.309 317.336 260.914C316.661 257.519 317.008 254.001 318.332 250.803C319.657 247.605 321.9 244.872 324.778 242.949C327.655 241.026 331.039 240 334.5 240V257.5H352Z" fill="#0FA7F0"/>
<path opacity="0.6" d="M501.246 268.33C503.884 264.982 505.209 260.787 504.973 256.532C504.737 252.276 502.957 248.253 499.965 245.217C496.974 242.182 492.978 240.342 488.726 240.043C484.475 239.744 480.26 241.008 476.874 243.595C473.488 246.183 471.162 249.918 470.334 254.099C469.505 258.279 470.231 262.619 472.375 266.302C474.519 269.986 477.933 272.761 481.977 274.106C486.021 275.451 490.417 275.274 494.34 273.608L487.5 257.5L501.246 268.33Z" fill="#FFE264"/>
<path d="M505 257.5C505 261.549 503.596 265.472 501.028 268.602C498.459 271.732 494.885 273.874 490.914 274.664C486.943 275.454 482.821 274.842 479.251 272.934C475.68 271.025 472.881 267.937 471.332 264.197C469.783 260.456 469.578 256.294 470.754 252.42C471.929 248.546 474.411 245.199 477.778 242.949C481.144 240.7 485.186 239.687 489.215 240.084C493.245 240.481 497.011 242.263 499.874 245.126L487.5 257.5H505Z" fill="#F28100"/>
<path d="M505 257.5C505 260.961 503.974 264.345 502.051 267.222C500.128 270.1 497.395 272.343 494.197 273.668C490.999 274.992 487.481 275.339 484.086 274.664C480.691 273.989 477.573 272.322 475.126 269.874C472.678 267.427 471.011 264.309 470.336 260.914C469.661 257.519 470.008 254.001 471.332 250.803C472.657 247.605 474.9 244.872 477.778 242.949C480.655 241.026 484.039 240 487.5 240V257.5H505Z" fill="#0FA7F0"/>
<path opacity="0.6" d="M450.246 268.33C452.884 264.982 454.209 260.787 453.973 256.532C453.737 252.276 451.957 248.253 448.965 245.217C445.974 242.182 441.978 240.342 437.726 240.043C433.475 239.744 429.26 241.008 425.874 243.595C422.488 246.183 420.162 249.918 419.334 254.099C418.505 258.279 419.231 262.619 421.375 266.302C423.519 269.986 426.933 272.761 430.977 274.106C435.021 275.451 439.417 275.274 443.34 273.608L436.5 257.5L450.246 268.33Z" fill="#FFE264"/>
<path d="M454 257.5C454 261.176 452.842 264.76 450.691 267.741C448.539 270.722 445.504 272.95 442.014 274.109C438.525 275.267 434.76 275.297 431.252 274.195C427.745 273.092 424.674 270.913 422.475 267.967C420.276 265.02 419.061 261.456 419.002 257.78C418.943 254.104 420.044 250.503 422.147 247.488C424.251 244.472 427.25 242.196 430.72 240.982C434.191 239.768 437.955 239.677 441.48 240.723L436.5 257.5H454Z" fill="#F28100"/>
<path d="M454 257.5C454 260.961 452.974 264.345 451.051 267.222C449.128 270.1 446.395 272.343 443.197 273.668C439.999 274.992 436.481 275.339 433.086 274.664C429.691 273.989 426.573 272.322 424.126 269.874C421.678 267.427 420.011 264.309 419.336 260.914C418.661 257.519 419.008 254.001 420.332 250.803C421.657 247.605 423.9 244.872 426.778 242.949C429.655 241.026 433.039 240 436.5 240V257.5H454Z" fill="#0FA7F0"/>
<path opacity="0.6" d="M399.246 268.33C401.884 264.982 403.209 260.787 402.973 256.532C402.737 252.276 400.957 248.253 397.965 245.217C394.974 242.182 390.978 240.342 386.726 240.043C382.475 239.744 378.26 241.008 374.874 243.595C371.488 246.183 369.162 249.918 368.334 254.099C367.505 258.279 368.231 262.619 370.375 266.302C372.519 269.986 375.933 272.761 379.977 274.106C384.021 275.451 388.417 275.274 392.34 273.608L385.5 257.5L399.246 268.33Z" fill="#FFE264"/>
<path d="M403 257.5C403 260.961 401.974 264.345 400.051 267.222C398.128 270.1 395.395 272.343 392.197 273.668C388.999 274.992 385.481 275.339 382.086 274.664C378.691 273.989 375.573 272.322 373.126 269.874C370.678 267.427 369.011 264.309 368.336 260.914C367.661 257.519 368.008 254.001 369.332 250.803C370.657 247.605 372.9 244.872 375.778 242.949C378.655 241.026 382.039 240 385.5 240V257.5H403Z" fill="#F28100"/>
<path d="M399.845 267.524C397.862 270.361 395.083 272.547 391.858 273.804C388.633 275.062 385.108 275.335 381.728 274.589C378.349 273.843 375.266 272.111 372.87 269.613C370.474 267.115 368.873 263.963 368.269 260.555C367.664 257.147 368.084 253.636 369.475 250.467C370.866 247.298 373.166 244.612 376.083 242.75C379.001 240.887 382.405 239.932 385.865 240.004C389.326 240.076 392.687 241.173 395.524 243.155L385.5 257.5L399.845 267.524Z" fill="#0FA7F0"/>
<path opacity="0.6" d="M553.379 266.711C555.623 263.088 556.467 258.77 555.753 254.568C555.039 250.366 552.816 246.569 549.501 243.89C546.187 241.211 542.009 239.833 537.75 240.016C533.492 240.198 529.447 241.929 526.374 244.882C523.301 247.835 521.412 251.808 521.06 256.055C520.708 260.303 521.918 264.533 524.464 267.951C527.009 271.369 530.714 273.742 534.884 274.622C539.054 275.503 543.402 274.831 547.112 272.734L538.5 257.5L553.379 266.711Z" fill="#FFE264"/>
<path d="M553.901 265.81C552.258 268.856 549.748 271.346 546.689 272.966C543.63 274.585 540.16 275.261 536.717 274.909C533.273 274.556 530.012 273.19 527.345 270.984C524.678 268.778 522.726 265.83 521.734 262.514C520.742 259.198 520.756 255.662 521.774 252.354C522.791 249.046 524.767 246.114 527.451 243.929C530.135 241.743 533.407 240.403 536.853 240.077C540.299 239.752 543.764 240.455 546.81 242.099L538.5 257.5L553.901 265.81Z" fill="#F28100"/>
<path d="M538.5 275C535.039 275 531.655 273.974 528.778 272.051C525.9 270.128 523.657 267.395 522.332 264.197C521.008 260.999 520.661 257.481 521.336 254.086C522.012 250.691 523.678 247.573 526.126 245.126C528.573 242.678 531.691 241.011 535.086 240.336C538.481 239.661 541.999 240.008 545.197 241.332C548.395 242.657 551.128 244.9 553.051 247.778C554.974 250.655 556 254.039 556 257.5L538.5 257.5V275Z" fill="#0FA7F0"/>
<path d="M266 178C266 176.895 266.895 176 268 176H277C278.105 176 279 176.895 279 178V211C279 212.105 278.105 213 277 213H268C266.895 213 266 212.105 266 211V178Z" fill="#0FA7F0"/>
<path d="M358 178C358 176.895 358.895 176 360 176H369C370.105 176 371 176.895 371 178V211C371 212.105 370.105 213 369 213H360C358.895 213 358 212.105 358 211V178Z" fill="#0FA7F0"/>
<path d="M289 178C289 176.895 289.895 176 291 176H300C301.105 176 302 176.895 302 178V211C302 212.105 301.105 213 300 213H291C289.895 213 289 212.105 289 211V178Z" fill="#0FA7F0"/>
<path d="M381 178C381 176.895 381.895 176 383 176H392C393.105 176 394 176.895 394 178V211C394 212.105 393.105 213 392 213H383C381.895 213 381 212.105 381 211V178Z" fill="#0FA7F0"/>
<path d="M450 178C450 176.895 450.895 176 452 176H461C462.105 176 463 176.895 463 178V211C463 212.105 462.105 213 461 213H452C450.895 213 450 212.105 450 211V178Z" fill="#0FA7F0"/>
<path d="M519 178C519 176.895 519.895 176 521 176H530C531.105 176 532 176.895 532 178V211C532 212.105 531.105 213 530 213H521C519.895 213 519 212.105 519 211V178Z" fill="#0FA7F0"/>
<path d="M542 178C542 176.895 542.895 176 544 176H553C554.105 176 555 176.895 555 178V211C555 212.105 554.105 213 553 213H544C542.895 213 542 212.105 542 211V178Z" fill="#0FA7F0"/>
<path d="M312 167C312 165.895 312.895 165 314 165H323C324.105 165 325 165.895 325 167V211C325 212.105 324.105 213 323 213H314C312.895 213 312 212.105 312 211V167Z" fill="#0FA7F0"/>
<path d="M404 167C404 165.895 404.895 165 406 165H415C416.105 165 417 165.895 417 167V211C417 212.105 416.105 213 415 213H406C404.895 213 404 212.105 404 211V167Z" fill="#0FA7F0"/>
<path d="M473 167C473 165.895 473.895 165 475 165H484C485.105 165 486 165.895 486 167V211C486 212.105 485.105 213 484 213H475C473.895 213 473 212.105 473 211V167Z" fill="#0FA7F0"/>
<path d="M496 167C496 165.895 496.895 165 498 165H507C508.105 165 509 165.895 509 167V211C509 212.105 508.105 213 507 213H498C496.895 213 496 212.105 496 211V167Z" fill="#0FA7F0"/>
<path d="M335 136C335 134.895 335.895 134 337 134H346C347.105 134 348 134.895 348 136V211C348 212.105 347.105 213 346 213H337C335.895 213 335 212.105 335 211V136Z" fill="#0FA7F0"/>
<path d="M427 136C427 134.895 427.895 134 429 134H438C439.105 134 440 134.895 440 136V211C440 212.105 439.105 213 438 213H429C427.895 213 427 212.105 427 211V136Z" fill="#0FA7F0"/>
<path d="M266 134C266 132.895 266.895 132 268 132H277C278.105 132 279 132.895 279 134V173C279 174.105 278.105 175 277 175H268C266.895 175 266 174.105 266 173V134Z" fill="#FFEEA2"/>
<path d="M358 134C358 132.895 358.895 132 360 132H369C370.105 132 371 132.895 371 134V173C371 174.105 370.105 175 369 175H360C358.895 175 358 174.105 358 173V134Z" fill="#FFEEA2"/>
<path d="M289 167C289 165.895 289.895 165 291 165H300C301.105 165 302 165.895 302 167V173C302 174.105 301.105 175 300 175H291C289.895 175 289 174.105 289 173V167Z" fill="#FFEEA2"/>
<path d="M381 167C381 165.895 381.895 165 383 165H392C393.105 165 394 165.895 394 167V173C394 174.105 393.105 175 392 175H383C381.895 175 381 174.105 381 173V167Z" fill="#FFEEA2"/>
<path d="M450 167C450 165.895 450.895 165 452 165H461C462.105 165 463 165.895 463 167V173C463 174.105 462.105 175 461 175H452C450.895 175 450 174.105 450 173V167Z" fill="#FFEEA2"/>
<path d="M519 167C519 165.895 519.895 165 521 165H530C531.105 165 532 165.895 532 167V173C532 174.105 531.105 175 530 175H521C519.895 175 519 174.105 519 173V167Z" fill="#FFEEA2"/>
<path d="M542 167C542 165.895 542.895 165 544 165H553C554.105 165 555 165.895 555 167V173C555 174.105 554.105 175 553 175H544C542.895 175 542 174.105 542 173V167Z" fill="#FFEEA2"/>
<path d="M312 125C312 123.895 312.895 123 314 123H323C324.105 123 325 123.895 325 125V162C325 163.105 324.105 164 323 164H314C312.895 164 312 163.105 312 162V125Z" fill="#FFEEA2"/>
<path d="M404 125C404 123.895 404.895 123 406 123H415C416.105 123 417 123.895 417 125V162C417 163.105 416.105 164 415 164H406C404.895 164 404 163.105 404 162V125Z" fill="#FFEEA2"/>
<path d="M473 125C473 123.895 473.895 123 475 123H484C485.105 123 486 123.895 486 125V162C486 163.105 485.105 164 484 164H475C473.895 164 473 163.105 473 162V125Z" fill="#FFEEA2"/>
<path d="M496 147C496 145.895 496.895 145 498 145H507C508.105 145 509 145.895 509 147V162C509 163.105 508.105 164 507 164H498C496.895 164 496 163.105 496 162V147Z" fill="#FFEEA2"/>
<path d="M335 125C335 123.895 335.895 123 337 123H346C347.105 123 348 123.895 348 125V131C348 132.105 347.105 133 346 133H337C335.895 133 335 132.105 335 131V125Z" fill="#FFEEA2"/>
<path d="M427 125C427 123.895 427.895 123 429 123H438C439.105 123 440 123.895 440 125V131C440 132.105 439.105 133 438 133H429C427.895 133 427 132.105 427 131V125Z" fill="#FFEEA2"/>
<rect x="266" y="111" width="13" height="20" rx="2" fill="#F28100"/>
<rect x="358" y="111" width="13" height="20" rx="2" fill="#F28100"/>
<rect x="289" y="111" width="13" height="53" rx="2" fill="#F28100"/>
<rect x="381" y="111" width="13" height="53" rx="2" fill="#F28100"/>
<rect x="450" y="111" width="13" height="53" rx="2" fill="#F28100"/>
<rect x="519" y="111" width="13" height="53" rx="2" fill="#F28100"/>
<rect x="542" y="111" width="13" height="53" rx="2" fill="#F28100"/>
<rect x="312" y="111" width="13" height="11" rx="2" fill="#F28100"/>
<rect x="404" y="111" width="13" height="11" rx="2" fill="#F28100"/>
<rect x="473" y="111" width="13" height="11" rx="2" fill="#F28100"/>
<rect x="496" y="111" width="13" height="33" rx="2" fill="#F28100"/>
<rect x="335" y="111" width="13" height="11" rx="2" fill="#F28100"/>
<rect x="427" y="111" width="13" height="11" rx="2" fill="#F28100"/>
</svg>
