<svg width="200" height="200" viewBox="0 0 200 200" fill="none" xmlns="http://www.w3.org/2000/svg">
<rect width="200" height="200" rx="15" fill="white"/>
<path d="M21.254 147V139.3H24.136C24.7887 139.3 25.3497 139.406 25.819 139.619C26.2883 139.824 26.6477 140.125 26.897 140.521C27.1537 140.91 27.282 141.383 27.282 141.94C27.282 142.483 27.1537 142.952 26.897 143.348C26.6477 143.737 26.2883 144.037 25.819 144.25C25.3497 144.463 24.7887 144.569 24.136 144.569H21.705L22.068 144.184V147H21.254ZM22.068 144.25L21.705 143.854H24.114C24.884 143.854 25.467 143.689 25.863 143.359C26.2663 143.022 26.468 142.549 26.468 141.94C26.468 141.324 26.2663 140.847 25.863 140.51C25.467 140.173 24.884 140.004 24.114 140.004H21.705L22.068 139.619V144.25ZM28.7374 147V141.225H29.4854V142.798L29.4084 142.523C29.5698 142.083 29.8411 141.749 30.2224 141.522C30.6038 141.287 31.0768 141.17 31.6414 141.17V141.929C31.6121 141.929 31.5828 141.929 31.5534 141.929C31.5241 141.922 31.4948 141.918 31.4654 141.918C30.8568 141.918 30.3801 142.105 30.0354 142.479C29.6908 142.846 29.5184 143.37 29.5184 144.052V147H28.7374ZM35.3668 147.055C34.8095 147.055 34.3072 146.93 33.8598 146.681C33.4198 146.424 33.0715 146.076 32.8148 145.636C32.5582 145.189 32.4298 144.679 32.4298 144.107C32.4298 143.528 32.5582 143.018 32.8148 142.578C33.0715 142.138 33.4198 141.793 33.8598 141.544C34.2998 141.295 34.8022 141.17 35.3668 141.17C35.9388 141.17 36.4448 141.295 36.8848 141.544C37.3322 141.793 37.6805 142.138 37.9298 142.578C38.1865 143.018 38.3148 143.528 38.3148 144.107C38.3148 144.679 38.1865 145.189 37.9298 145.636C37.6805 146.076 37.3322 146.424 36.8848 146.681C36.4375 146.93 35.9315 147.055 35.3668 147.055ZM35.3668 146.362C35.7848 146.362 36.1552 146.27 36.4778 146.087C36.8005 145.896 37.0535 145.632 37.2368 145.295C37.4275 144.95 37.5228 144.554 37.5228 144.107C37.5228 143.652 37.4275 143.256 37.2368 142.919C37.0535 142.582 36.8005 142.321 36.4778 142.138C36.1552 141.947 35.7885 141.852 35.3778 141.852C34.9672 141.852 34.6005 141.947 34.2778 142.138C33.9552 142.321 33.6985 142.582 33.5078 142.919C33.3172 143.256 33.2218 143.652 33.2218 144.107C33.2218 144.554 33.3172 144.95 33.5078 145.295C33.6985 145.632 33.9552 145.896 34.2778 146.087C34.6005 146.27 34.9635 146.362 35.3668 146.362ZM42.2083 147.055C41.6583 147.055 41.1633 146.93 40.7233 146.681C40.2906 146.432 39.9496 146.087 39.7003 145.647C39.451 145.2 39.3263 144.686 39.3263 144.107C39.3263 143.52 39.451 143.007 39.7003 142.567C39.9496 142.127 40.2906 141.786 40.7233 141.544C41.1633 141.295 41.6583 141.17 42.2083 141.17C42.7143 141.17 43.1653 141.284 43.5613 141.511C43.9646 141.738 44.2836 142.072 44.5183 142.512C44.7603 142.945 44.8813 143.476 44.8813 144.107C44.8813 144.73 44.764 145.262 44.5293 145.702C44.2946 146.142 43.9756 146.479 43.5723 146.714C43.1763 146.941 42.7216 147.055 42.2083 147.055ZM42.2633 146.362C42.674 146.362 43.0406 146.27 43.3633 146.087C43.6933 145.896 43.95 145.632 44.1333 145.295C44.324 144.95 44.4193 144.554 44.4193 144.107C44.4193 143.652 44.324 143.256 44.1333 142.919C43.95 142.582 43.6933 142.321 43.3633 142.138C43.0406 141.947 42.674 141.852 42.2633 141.852C41.86 141.852 41.497 141.947 41.1743 142.138C40.8516 142.321 40.595 142.582 40.4043 142.919C40.2136 143.256 40.1183 143.652 40.1183 144.107C40.1183 144.554 40.2136 144.95 40.4043 145.295C40.595 145.632 40.8516 145.896 41.1743 146.087C41.497 146.27 41.86 146.362 42.2633 146.362ZM44.4413 147V145.262L44.5183 144.096L44.4083 142.93V138.838H45.1893V147H44.4413ZM49.7514 147.055C49.2601 147.055 48.8311 146.963 48.4644 146.78C48.0977 146.597 47.8117 146.322 47.6064 145.955C47.4084 145.588 47.3094 145.13 47.3094 144.58V141.225H48.0904V144.492C48.0904 145.108 48.2407 145.574 48.5414 145.889C48.8494 146.197 49.2784 146.351 49.8284 146.351C50.2317 146.351 50.5801 146.27 50.8734 146.109C51.1741 145.94 51.4014 145.698 51.5554 145.383C51.7167 145.068 51.7974 144.69 51.7974 144.25V141.225H52.5784V147H51.8304V145.416L51.9514 145.702C51.7681 146.127 51.4821 146.461 51.0934 146.703C50.7121 146.938 50.2647 147.055 49.7514 147.055ZM57.153 147.055C56.581 147.055 56.0677 146.93 55.613 146.681C55.1657 146.424 54.8137 146.076 54.557 145.636C54.3003 145.189 54.172 144.679 54.172 144.107C54.172 143.528 54.3003 143.018 54.557 142.578C54.8137 142.138 55.1657 141.793 55.613 141.544C56.0677 141.295 56.581 141.17 57.153 141.17C57.6443 141.17 58.088 141.265 58.484 141.456C58.88 141.647 59.1917 141.933 59.419 142.314L58.836 142.71C58.638 142.417 58.3923 142.2 58.099 142.061C57.8057 141.922 57.4867 141.852 57.142 141.852C56.7313 141.852 56.361 141.947 56.031 142.138C55.701 142.321 55.4407 142.582 55.25 142.919C55.0593 143.256 54.964 143.652 54.964 144.107C54.964 144.562 55.0593 144.958 55.25 145.295C55.4407 145.632 55.701 145.896 56.031 146.087C56.361 146.27 56.7313 146.362 57.142 146.362C57.4867 146.362 57.8057 146.292 58.099 146.153C58.3923 146.014 58.638 145.801 58.836 145.515L59.419 145.911C59.1917 146.285 58.88 146.571 58.484 146.769C58.088 146.96 57.6443 147.055 57.153 147.055ZM62.8437 147.055C62.301 147.055 61.883 146.908 61.5897 146.615C61.2964 146.322 61.1497 145.907 61.1497 145.372V139.949H61.9307V145.328C61.9307 145.665 62.015 145.926 62.1837 146.109C62.3597 146.292 62.609 146.384 62.9317 146.384C63.2764 146.384 63.5624 146.285 63.7897 146.087L64.0647 146.648C63.9107 146.787 63.7237 146.89 63.5037 146.956C63.291 147.022 63.071 147.055 62.8437 147.055ZM60.1157 141.874V141.225H63.6907V141.874H60.1157ZM70.2794 147.066C69.7294 147.066 69.205 146.978 68.7064 146.802C68.2077 146.619 67.8117 146.377 67.5184 146.076L67.9034 145.449C68.1454 145.706 68.4754 145.918 68.8934 146.087C69.3187 146.256 69.777 146.34 70.2684 146.34C70.921 146.34 71.416 146.197 71.7534 145.911C72.098 145.618 72.2704 145.236 72.2704 144.767C72.2704 144.437 72.1897 144.155 72.0284 143.92C71.8744 143.678 71.6104 143.491 71.2364 143.359C70.8624 143.227 70.349 143.161 69.6964 143.161H68.0574L68.4534 139.3H72.6664V140.004H68.7724L69.1794 139.619L68.8384 142.853L68.4314 142.457H69.8724C70.6497 142.457 71.273 142.552 71.7424 142.743C72.2117 142.934 72.549 143.201 72.7544 143.546C72.967 143.883 73.0734 144.279 73.0734 144.734C73.0734 145.167 72.9707 145.563 72.7654 145.922C72.56 146.274 72.252 146.553 71.8414 146.758C71.4307 146.963 70.91 147.066 70.2794 147.066Z" fill="#636370"/>
<path d="M21.254 175V167.3H24.136C24.7887 167.3 25.3497 167.406 25.819 167.619C26.2883 167.824 26.6477 168.125 26.897 168.521C27.1537 168.91 27.282 169.383 27.282 169.94C27.282 170.483 27.1537 170.952 26.897 171.348C26.6477 171.737 26.2883 172.037 25.819 172.25C25.3497 172.463 24.7887 172.569 24.136 172.569H21.705L22.068 172.184V175H21.254ZM22.068 172.25L21.705 171.854H24.114C24.884 171.854 25.467 171.689 25.863 171.359C26.2663 171.022 26.468 170.549 26.468 169.94C26.468 169.324 26.2663 168.847 25.863 168.51C25.467 168.173 24.884 168.004 24.114 168.004H21.705L22.068 167.619V172.25ZM28.7374 175V169.225H29.4854V170.798L29.4084 170.523C29.5698 170.083 29.8411 169.749 30.2224 169.522C30.6038 169.287 31.0768 169.17 31.6414 169.17V169.929C31.6121 169.929 31.5828 169.929 31.5534 169.929C31.5241 169.922 31.4948 169.918 31.4654 169.918C30.8568 169.918 30.3801 170.105 30.0354 170.479C29.6908 170.846 29.5184 171.37 29.5184 172.052V175H28.7374ZM35.3668 175.055C34.8095 175.055 34.3072 174.93 33.8598 174.681C33.4198 174.424 33.0715 174.076 32.8148 173.636C32.5582 173.189 32.4298 172.679 32.4298 172.107C32.4298 171.528 32.5582 171.018 32.8148 170.578C33.0715 170.138 33.4198 169.793 33.8598 169.544C34.2998 169.295 34.8022 169.17 35.3668 169.17C35.9388 169.17 36.4448 169.295 36.8848 169.544C37.3322 169.793 37.6805 170.138 37.9298 170.578C38.1865 171.018 38.3148 171.528 38.3148 172.107C38.3148 172.679 38.1865 173.189 37.9298 173.636C37.6805 174.076 37.3322 174.424 36.8848 174.681C36.4375 174.93 35.9315 175.055 35.3668 175.055ZM35.3668 174.362C35.7848 174.362 36.1552 174.27 36.4778 174.087C36.8005 173.896 37.0535 173.632 37.2368 173.295C37.4275 172.95 37.5228 172.554 37.5228 172.107C37.5228 171.652 37.4275 171.256 37.2368 170.919C37.0535 170.582 36.8005 170.321 36.4778 170.138C36.1552 169.947 35.7885 169.852 35.3778 169.852C34.9672 169.852 34.6005 169.947 34.2778 170.138C33.9552 170.321 33.6985 170.582 33.5078 170.919C33.3172 171.256 33.2218 171.652 33.2218 172.107C33.2218 172.554 33.3172 172.95 33.5078 173.295C33.6985 173.632 33.9552 173.896 34.2778 174.087C34.6005 174.27 34.9635 174.362 35.3668 174.362ZM42.2083 175.055C41.6583 175.055 41.1633 174.93 40.7233 174.681C40.2906 174.432 39.9496 174.087 39.7003 173.647C39.451 173.2 39.3263 172.686 39.3263 172.107C39.3263 171.52 39.451 171.007 39.7003 170.567C39.9496 170.127 40.2906 169.786 40.7233 169.544C41.1633 169.295 41.6583 169.17 42.2083 169.17C42.7143 169.17 43.1653 169.284 43.5613 169.511C43.9646 169.738 44.2836 170.072 44.5183 170.512C44.7603 170.945 44.8813 171.476 44.8813 172.107C44.8813 172.73 44.764 173.262 44.5293 173.702C44.2946 174.142 43.9756 174.479 43.5723 174.714C43.1763 174.941 42.7216 175.055 42.2083 175.055ZM42.2633 174.362C42.674 174.362 43.0406 174.27 43.3633 174.087C43.6933 173.896 43.95 173.632 44.1333 173.295C44.324 172.95 44.4193 172.554 44.4193 172.107C44.4193 171.652 44.324 171.256 44.1333 170.919C43.95 170.582 43.6933 170.321 43.3633 170.138C43.0406 169.947 42.674 169.852 42.2633 169.852C41.86 169.852 41.497 169.947 41.1743 170.138C40.8516 170.321 40.595 170.582 40.4043 170.919C40.2136 171.256 40.1183 171.652 40.1183 172.107C40.1183 172.554 40.2136 172.95 40.4043 173.295C40.595 173.632 40.8516 173.896 41.1743 174.087C41.497 174.27 41.86 174.362 42.2633 174.362ZM44.4413 175V173.262L44.5183 172.096L44.4083 170.93V166.838H45.1893V175H44.4413ZM49.7514 175.055C49.2601 175.055 48.8311 174.963 48.4644 174.78C48.0977 174.597 47.8117 174.322 47.6064 173.955C47.4084 173.588 47.3094 173.13 47.3094 172.58V169.225H48.0904V172.492C48.0904 173.108 48.2407 173.574 48.5414 173.889C48.8494 174.197 49.2784 174.351 49.8284 174.351C50.2317 174.351 50.5801 174.27 50.8734 174.109C51.1741 173.94 51.4014 173.698 51.5554 173.383C51.7167 173.068 51.7974 172.69 51.7974 172.25V169.225H52.5784V175H51.8304V173.416L51.9514 173.702C51.7681 174.127 51.4821 174.461 51.0934 174.703C50.7121 174.938 50.2647 175.055 49.7514 175.055ZM57.153 175.055C56.581 175.055 56.0677 174.93 55.613 174.681C55.1657 174.424 54.8137 174.076 54.557 173.636C54.3003 173.189 54.172 172.679 54.172 172.107C54.172 171.528 54.3003 171.018 54.557 170.578C54.8137 170.138 55.1657 169.793 55.613 169.544C56.0677 169.295 56.581 169.17 57.153 169.17C57.6443 169.17 58.088 169.265 58.484 169.456C58.88 169.647 59.1917 169.933 59.419 170.314L58.836 170.71C58.638 170.417 58.3923 170.2 58.099 170.061C57.8057 169.922 57.4867 169.852 57.142 169.852C56.7313 169.852 56.361 169.947 56.031 170.138C55.701 170.321 55.4407 170.582 55.25 170.919C55.0593 171.256 54.964 171.652 54.964 172.107C54.964 172.562 55.0593 172.958 55.25 173.295C55.4407 173.632 55.701 173.896 56.031 174.087C56.361 174.27 56.7313 174.362 57.142 174.362C57.4867 174.362 57.8057 174.292 58.099 174.153C58.3923 174.014 58.638 173.801 58.836 173.515L59.419 173.911C59.1917 174.285 58.88 174.571 58.484 174.769C58.088 174.96 57.6443 175.055 57.153 175.055ZM62.8437 175.055C62.301 175.055 61.883 174.908 61.5897 174.615C61.2964 174.322 61.1497 173.907 61.1497 173.372V167.949H61.9307V173.328C61.9307 173.665 62.015 173.926 62.1837 174.109C62.3597 174.292 62.609 174.384 62.9317 174.384C63.2764 174.384 63.5624 174.285 63.7897 174.087L64.0647 174.648C63.9107 174.787 63.7237 174.89 63.5037 174.956C63.291 175.022 63.071 175.055 62.8437 175.055ZM60.1157 169.874V169.225H63.6907V169.874H60.1157ZM71.0054 175.066C70.3234 175.066 69.7477 174.916 69.2784 174.615C68.809 174.307 68.4534 173.867 68.2114 173.295C67.9694 172.716 67.8484 172.023 67.8484 171.216C67.8484 170.343 67.995 169.614 68.2884 169.027C68.589 168.433 69.0034 167.986 69.5314 167.685C70.0594 167.384 70.6717 167.234 71.3684 167.234C71.713 167.234 72.043 167.267 72.3584 167.333C72.6737 167.399 72.9524 167.505 73.1944 167.652L72.8754 168.29C72.6774 168.158 72.45 168.066 72.1934 168.015C71.9367 167.956 71.6654 167.927 71.3794 167.927C70.5507 167.927 69.887 168.191 69.3884 168.719C68.897 169.247 68.6514 170.035 68.6514 171.084C68.6514 171.245 68.6587 171.447 68.6734 171.689C68.6954 171.924 68.7394 172.158 68.8054 172.393L68.5304 172.184C68.611 171.803 68.7687 171.48 69.0034 171.216C69.238 170.945 69.5314 170.739 69.8834 170.6C70.2354 170.461 70.6204 170.391 71.0384 170.391C71.5517 170.391 72.0027 170.486 72.3914 170.677C72.78 170.868 73.0844 171.135 73.3044 171.48C73.5244 171.825 73.6344 172.232 73.6344 172.701C73.6344 173.178 73.5207 173.596 73.2934 173.955C73.066 174.307 72.7507 174.582 72.3474 174.78C71.9514 174.971 71.504 175.066 71.0054 175.066ZM70.9724 174.395C71.339 174.395 71.6617 174.329 71.9404 174.197C72.2264 174.058 72.45 173.863 72.6114 173.614C72.7727 173.357 72.8534 173.06 72.8534 172.723C72.8534 172.217 72.6774 171.814 72.3254 171.513C71.9807 171.212 71.5114 171.062 70.9174 171.062C70.5214 171.062 70.1767 171.135 69.8834 171.282C69.59 171.429 69.359 171.63 69.1904 171.887C69.0217 172.136 68.9374 172.422 68.9374 172.745C68.9374 173.024 69.0144 173.291 69.1684 173.548C69.3224 173.797 69.5497 174.003 69.8504 174.164C70.1584 174.318 70.5324 174.395 70.9724 174.395Z" fill="#636370"/>
<path d="M21.254 119V111.3H24.136C24.7887 111.3 25.3497 111.406 25.819 111.619C26.2883 111.824 26.6477 112.125 26.897 112.521C27.1537 112.91 27.282 113.383 27.282 113.94C27.282 114.483 27.1537 114.952 26.897 115.348C26.6477 115.737 26.2883 116.037 25.819 116.25C25.3497 116.463 24.7887 116.569 24.136 116.569H21.705L22.068 116.184V119H21.254ZM22.068 116.25L21.705 115.854H24.114C24.884 115.854 25.467 115.689 25.863 115.359C26.2663 115.022 26.468 114.549 26.468 113.94C26.468 113.324 26.2663 112.847 25.863 112.51C25.467 112.173 24.884 112.004 24.114 112.004H21.705L22.068 111.619V116.25ZM28.7374 119V113.225H29.4854V114.798L29.4084 114.523C29.5698 114.083 29.8411 113.749 30.2224 113.522C30.6038 113.287 31.0768 113.17 31.6414 113.17V113.929C31.6121 113.929 31.5828 113.929 31.5534 113.929C31.5241 113.922 31.4948 113.918 31.4654 113.918C30.8568 113.918 30.3801 114.105 30.0354 114.479C29.6908 114.846 29.5184 115.37 29.5184 116.052V119H28.7374ZM35.3668 119.055C34.8095 119.055 34.3072 118.93 33.8598 118.681C33.4198 118.424 33.0715 118.076 32.8148 117.636C32.5582 117.189 32.4298 116.679 32.4298 116.107C32.4298 115.528 32.5582 115.018 32.8148 114.578C33.0715 114.138 33.4198 113.793 33.8598 113.544C34.2998 113.295 34.8022 113.17 35.3668 113.17C35.9388 113.17 36.4448 113.295 36.8848 113.544C37.3322 113.793 37.6805 114.138 37.9298 114.578C38.1865 115.018 38.3148 115.528 38.3148 116.107C38.3148 116.679 38.1865 117.189 37.9298 117.636C37.6805 118.076 37.3322 118.424 36.8848 118.681C36.4375 118.93 35.9315 119.055 35.3668 119.055ZM35.3668 118.362C35.7848 118.362 36.1552 118.27 36.4778 118.087C36.8005 117.896 37.0535 117.632 37.2368 117.295C37.4275 116.95 37.5228 116.554 37.5228 116.107C37.5228 115.652 37.4275 115.256 37.2368 114.919C37.0535 114.582 36.8005 114.321 36.4778 114.138C36.1552 113.947 35.7885 113.852 35.3778 113.852C34.9672 113.852 34.6005 113.947 34.2778 114.138C33.9552 114.321 33.6985 114.582 33.5078 114.919C33.3172 115.256 33.2218 115.652 33.2218 116.107C33.2218 116.554 33.3172 116.95 33.5078 117.295C33.6985 117.632 33.9552 117.896 34.2778 118.087C34.6005 118.27 34.9635 118.362 35.3668 118.362ZM42.2083 119.055C41.6583 119.055 41.1633 118.93 40.7233 118.681C40.2906 118.432 39.9496 118.087 39.7003 117.647C39.451 117.2 39.3263 116.686 39.3263 116.107C39.3263 115.52 39.451 115.007 39.7003 114.567C39.9496 114.127 40.2906 113.786 40.7233 113.544C41.1633 113.295 41.6583 113.17 42.2083 113.17C42.7143 113.17 43.1653 113.284 43.5613 113.511C43.9646 113.738 44.2836 114.072 44.5183 114.512C44.7603 114.945 44.8813 115.476 44.8813 116.107C44.8813 116.73 44.764 117.262 44.5293 117.702C44.2946 118.142 43.9756 118.479 43.5723 118.714C43.1763 118.941 42.7216 119.055 42.2083 119.055ZM42.2633 118.362C42.674 118.362 43.0406 118.27 43.3633 118.087C43.6933 117.896 43.95 117.632 44.1333 117.295C44.324 116.95 44.4193 116.554 44.4193 116.107C44.4193 115.652 44.324 115.256 44.1333 114.919C43.95 114.582 43.6933 114.321 43.3633 114.138C43.0406 113.947 42.674 113.852 42.2633 113.852C41.86 113.852 41.497 113.947 41.1743 114.138C40.8516 114.321 40.595 114.582 40.4043 114.919C40.2136 115.256 40.1183 115.652 40.1183 116.107C40.1183 116.554 40.2136 116.95 40.4043 117.295C40.595 117.632 40.8516 117.896 41.1743 118.087C41.497 118.27 41.86 118.362 42.2633 118.362ZM44.4413 119V117.262L44.5183 116.096L44.4083 114.93V110.838H45.1893V119H44.4413ZM49.7514 119.055C49.2601 119.055 48.8311 118.963 48.4644 118.78C48.0977 118.597 47.8117 118.322 47.6064 117.955C47.4084 117.588 47.3094 117.13 47.3094 116.58V113.225H48.0904V116.492C48.0904 117.108 48.2407 117.574 48.5414 117.889C48.8494 118.197 49.2784 118.351 49.8284 118.351C50.2317 118.351 50.5801 118.27 50.8734 118.109C51.1741 117.94 51.4014 117.698 51.5554 117.383C51.7167 117.068 51.7974 116.69 51.7974 116.25V113.225H52.5784V119H51.8304V117.416L51.9514 117.702C51.7681 118.127 51.4821 118.461 51.0934 118.703C50.7121 118.938 50.2647 119.055 49.7514 119.055ZM57.153 119.055C56.581 119.055 56.0677 118.93 55.613 118.681C55.1657 118.424 54.8137 118.076 54.557 117.636C54.3003 117.189 54.172 116.679 54.172 116.107C54.172 115.528 54.3003 115.018 54.557 114.578C54.8137 114.138 55.1657 113.793 55.613 113.544C56.0677 113.295 56.581 113.17 57.153 113.17C57.6443 113.17 58.088 113.265 58.484 113.456C58.88 113.647 59.1917 113.933 59.419 114.314L58.836 114.71C58.638 114.417 58.3923 114.2 58.099 114.061C57.8057 113.922 57.4867 113.852 57.142 113.852C56.7313 113.852 56.361 113.947 56.031 114.138C55.701 114.321 55.4407 114.582 55.25 114.919C55.0593 115.256 54.964 115.652 54.964 116.107C54.964 116.562 55.0593 116.958 55.25 117.295C55.4407 117.632 55.701 117.896 56.031 118.087C56.361 118.27 56.7313 118.362 57.142 118.362C57.4867 118.362 57.8057 118.292 58.099 118.153C58.3923 118.014 58.638 117.801 58.836 117.515L59.419 117.911C59.1917 118.285 58.88 118.571 58.484 118.769C58.088 118.96 57.6443 119.055 57.153 119.055ZM62.8437 119.055C62.301 119.055 61.883 118.908 61.5897 118.615C61.2964 118.322 61.1497 117.907 61.1497 117.372V111.949H61.9307V117.328C61.9307 117.665 62.015 117.926 62.1837 118.109C62.3597 118.292 62.609 118.384 62.9317 118.384C63.2764 118.384 63.5624 118.285 63.7897 118.087L64.0647 118.648C63.9107 118.787 63.7237 118.89 63.5037 118.956C63.291 119.022 63.071 119.055 62.8437 119.055ZM60.1157 113.874V113.225H63.6907V113.874H60.1157ZM67.7164 116.976V116.404L71.7974 111.3H72.6774L68.6294 116.404L68.2004 116.272H74.3934V116.976H67.7164ZM72.0614 119V116.976L72.0834 116.272V114.49H72.8534V119H72.0614Z" fill="#636370"/>
<path d="M21.254 91V83.3H24.136C24.7887 83.3 25.3497 83.4063 25.819 83.619C26.2883 83.8243 26.6477 84.125 26.897 84.521C27.1537 84.9097 27.282 85.3827 27.282 85.94C27.282 86.4827 27.1537 86.952 26.897 87.348C26.6477 87.7367 26.2883 88.0373 25.819 88.25C25.3497 88.4627 24.7887 88.569 24.136 88.569H21.705L22.068 88.184V91H21.254ZM22.068 88.25L21.705 87.854H24.114C24.884 87.854 25.467 87.689 25.863 87.359C26.2663 87.0217 26.468 86.5487 26.468 85.94C26.468 85.324 26.2663 84.8473 25.863 84.51C25.467 84.1727 24.884 84.004 24.114 84.004H21.705L22.068 83.619V88.25ZM28.7374 91V85.225H29.4854V86.798L29.4084 86.523C29.5698 86.083 29.8411 85.7493 30.2224 85.522C30.6038 85.2873 31.0768 85.17 31.6414 85.17V85.929C31.6121 85.929 31.5828 85.929 31.5534 85.929C31.5241 85.9217 31.4948 85.918 31.4654 85.918C30.8568 85.918 30.3801 86.105 30.0354 86.479C29.6908 86.8457 29.5184 87.37 29.5184 88.052V91H28.7374ZM35.3668 91.055C34.8095 91.055 34.3072 90.9303 33.8598 90.681C33.4198 90.4243 33.0715 90.076 32.8148 89.636C32.5582 89.1887 32.4298 88.679 32.4298 88.107C32.4298 87.5277 32.5582 87.018 32.8148 86.578C33.0715 86.138 33.4198 85.7933 33.8598 85.544C34.2998 85.2947 34.8022 85.17 35.3668 85.17C35.9388 85.17 36.4448 85.2947 36.8848 85.544C37.3322 85.7933 37.6805 86.138 37.9298 86.578C38.1865 87.018 38.3148 87.5277 38.3148 88.107C38.3148 88.679 38.1865 89.1887 37.9298 89.636C37.6805 90.076 37.3322 90.4243 36.8848 90.681C36.4375 90.9303 35.9315 91.055 35.3668 91.055ZM35.3668 90.362C35.7848 90.362 36.1552 90.2703 36.4778 90.087C36.8005 89.8963 37.0535 89.6323 37.2368 89.295C37.4275 88.9503 37.5228 88.5543 37.5228 88.107C37.5228 87.6523 37.4275 87.2563 37.2368 86.919C37.0535 86.5817 36.8005 86.3213 36.4778 86.138C36.1552 85.9473 35.7885 85.852 35.3778 85.852C34.9672 85.852 34.6005 85.9473 34.2778 86.138C33.9552 86.3213 33.6985 86.5817 33.5078 86.919C33.3172 87.2563 33.2218 87.6523 33.2218 88.107C33.2218 88.5543 33.3172 88.9503 33.5078 89.295C33.6985 89.6323 33.9552 89.8963 34.2778 90.087C34.6005 90.2703 34.9635 90.362 35.3668 90.362ZM42.2083 91.055C41.6583 91.055 41.1633 90.9303 40.7233 90.681C40.2906 90.4317 39.9496 90.087 39.7003 89.647C39.451 89.1997 39.3263 88.6863 39.3263 88.107C39.3263 87.5203 39.451 87.007 39.7003 86.567C39.9496 86.127 40.2906 85.786 40.7233 85.544C41.1633 85.2947 41.6583 85.17 42.2083 85.17C42.7143 85.17 43.1653 85.2837 43.5613 85.511C43.9646 85.7383 44.2836 86.072 44.5183 86.512C44.7603 86.9447 44.8813 87.4763 44.8813 88.107C44.8813 88.7303 44.764 89.262 44.5293 89.702C44.2946 90.142 43.9756 90.4793 43.5723 90.714C43.1763 90.9413 42.7216 91.055 42.2083 91.055ZM42.2633 90.362C42.674 90.362 43.0406 90.2703 43.3633 90.087C43.6933 89.8963 43.95 89.6323 44.1333 89.295C44.324 88.9503 44.4193 88.5543 44.4193 88.107C44.4193 87.6523 44.324 87.2563 44.1333 86.919C43.95 86.5817 43.6933 86.3213 43.3633 86.138C43.0406 85.9473 42.674 85.852 42.2633 85.852C41.86 85.852 41.497 85.9473 41.1743 86.138C40.8516 86.3213 40.595 86.5817 40.4043 86.919C40.2136 87.2563 40.1183 87.6523 40.1183 88.107C40.1183 88.5543 40.2136 88.9503 40.4043 89.295C40.595 89.6323 40.8516 89.8963 41.1743 90.087C41.497 90.2703 41.86 90.362 42.2633 90.362ZM44.4413 91V89.262L44.5183 88.096L44.4083 86.93V82.838H45.1893V91H44.4413ZM49.7514 91.055C49.2601 91.055 48.8311 90.9633 48.4644 90.78C48.0977 90.5967 47.8117 90.3217 47.6064 89.955C47.4084 89.5883 47.3094 89.13 47.3094 88.58V85.225H48.0904V88.492C48.0904 89.108 48.2407 89.5737 48.5414 89.889C48.8494 90.197 49.2784 90.351 49.8284 90.351C50.2317 90.351 50.5801 90.2703 50.8734 90.109C51.1741 89.9403 51.4014 89.6983 51.5554 89.383C51.7167 89.0677 51.7974 88.69 51.7974 88.25V85.225H52.5784V91H51.8304V89.416L51.9514 89.702C51.7681 90.1273 51.4821 90.461 51.0934 90.703C50.7121 90.9377 50.2647 91.055 49.7514 91.055ZM57.153 91.055C56.581 91.055 56.0677 90.9303 55.613 90.681C55.1657 90.4243 54.8137 90.076 54.557 89.636C54.3003 89.1887 54.172 88.679 54.172 88.107C54.172 87.5277 54.3003 87.018 54.557 86.578C54.8137 86.138 55.1657 85.7933 55.613 85.544C56.0677 85.2947 56.581 85.17 57.153 85.17C57.6443 85.17 58.088 85.2653 58.484 85.456C58.88 85.6467 59.1917 85.9327 59.419 86.314L58.836 86.71C58.638 86.4167 58.3923 86.2003 58.099 86.061C57.8057 85.9217 57.4867 85.852 57.142 85.852C56.7313 85.852 56.361 85.9473 56.031 86.138C55.701 86.3213 55.4407 86.5817 55.25 86.919C55.0593 87.2563 54.964 87.6523 54.964 88.107C54.964 88.5617 55.0593 88.9577 55.25 89.295C55.4407 89.6323 55.701 89.8963 56.031 90.087C56.361 90.2703 56.7313 90.362 57.142 90.362C57.4867 90.362 57.8057 90.2923 58.099 90.153C58.3923 90.0137 58.638 89.801 58.836 89.515L59.419 89.911C59.1917 90.285 58.88 90.571 58.484 90.769C58.088 90.9597 57.6443 91.055 57.153 91.055ZM62.8437 91.055C62.301 91.055 61.883 90.9083 61.5897 90.615C61.2964 90.3217 61.1497 89.9073 61.1497 89.372V83.949H61.9307V89.328C61.9307 89.6653 62.015 89.9257 62.1837 90.109C62.3597 90.2923 62.609 90.384 62.9317 90.384C63.2764 90.384 63.5624 90.285 63.7897 90.087L64.0647 90.648C63.9107 90.7873 63.7237 90.89 63.5037 90.956C63.291 91.022 63.071 91.055 62.8437 91.055ZM60.1157 85.874V85.225H63.6907V85.874H60.1157ZM70.1474 91.066C69.59 91.066 69.062 90.978 68.5634 90.802C68.072 90.6187 67.676 90.3767 67.3754 90.076L67.7604 89.449C68.0097 89.7057 68.3434 89.9183 68.7614 90.087C69.1867 90.2557 69.6487 90.34 70.1474 90.34C70.7854 90.34 71.273 90.2007 71.6104 89.922C71.955 89.6433 72.1274 89.2693 72.1274 88.8C72.1274 88.3307 71.9587 87.9567 71.6214 87.678C71.2914 87.3993 70.767 87.26 70.0484 87.26H69.4984V86.677L71.8744 83.696L71.9844 84.004H67.6944V83.3H72.6444V83.861L70.2684 86.842L69.8834 86.589H70.1804C71.1044 86.589 71.7937 86.7943 72.2484 87.205C72.7104 87.6157 72.9414 88.1437 72.9414 88.789C72.9414 89.2217 72.8387 89.6103 72.6334 89.955C72.428 90.2997 72.1164 90.571 71.6984 90.769C71.2877 90.967 70.7707 91.066 70.1474 91.066Z" fill="#636370"/>
<path d="M21.254 63V55.3H24.136C24.7887 55.3 25.3497 55.4063 25.819 55.619C26.2883 55.8243 26.6477 56.125 26.897 56.521C27.1537 56.9097 27.282 57.3827 27.282 57.94C27.282 58.4827 27.1537 58.952 26.897 59.348C26.6477 59.7367 26.2883 60.0373 25.819 60.25C25.3497 60.4627 24.7887 60.569 24.136 60.569H21.705L22.068 60.184V63H21.254ZM22.068 60.25L21.705 59.854H24.114C24.884 59.854 25.467 59.689 25.863 59.359C26.2663 59.0217 26.468 58.5487 26.468 57.94C26.468 57.324 26.2663 56.8473 25.863 56.51C25.467 56.1727 24.884 56.004 24.114 56.004H21.705L22.068 55.619V60.25ZM28.7374 63V57.225H29.4854V58.798L29.4084 58.523C29.5698 58.083 29.8411 57.7493 30.2224 57.522C30.6038 57.2873 31.0768 57.17 31.6414 57.17V57.929C31.6121 57.929 31.5828 57.929 31.5534 57.929C31.5241 57.9217 31.4948 57.918 31.4654 57.918C30.8568 57.918 30.3801 58.105 30.0354 58.479C29.6908 58.8457 29.5184 59.37 29.5184 60.052V63H28.7374ZM35.3668 63.055C34.8095 63.055 34.3072 62.9303 33.8598 62.681C33.4198 62.4243 33.0715 62.076 32.8148 61.636C32.5582 61.1887 32.4298 60.679 32.4298 60.107C32.4298 59.5277 32.5582 59.018 32.8148 58.578C33.0715 58.138 33.4198 57.7933 33.8598 57.544C34.2998 57.2947 34.8022 57.17 35.3668 57.17C35.9388 57.17 36.4448 57.2947 36.8848 57.544C37.3322 57.7933 37.6805 58.138 37.9298 58.578C38.1865 59.018 38.3148 59.5277 38.3148 60.107C38.3148 60.679 38.1865 61.1887 37.9298 61.636C37.6805 62.076 37.3322 62.4243 36.8848 62.681C36.4375 62.9303 35.9315 63.055 35.3668 63.055ZM35.3668 62.362C35.7848 62.362 36.1552 62.2703 36.4778 62.087C36.8005 61.8963 37.0535 61.6323 37.2368 61.295C37.4275 60.9503 37.5228 60.5543 37.5228 60.107C37.5228 59.6523 37.4275 59.2563 37.2368 58.919C37.0535 58.5817 36.8005 58.3213 36.4778 58.138C36.1552 57.9473 35.7885 57.852 35.3778 57.852C34.9672 57.852 34.6005 57.9473 34.2778 58.138C33.9552 58.3213 33.6985 58.5817 33.5078 58.919C33.3172 59.2563 33.2218 59.6523 33.2218 60.107C33.2218 60.5543 33.3172 60.9503 33.5078 61.295C33.6985 61.6323 33.9552 61.8963 34.2778 62.087C34.6005 62.2703 34.9635 62.362 35.3668 62.362ZM42.2083 63.055C41.6583 63.055 41.1633 62.9303 40.7233 62.681C40.2906 62.4317 39.9496 62.087 39.7003 61.647C39.451 61.1997 39.3263 60.6863 39.3263 60.107C39.3263 59.5203 39.451 59.007 39.7003 58.567C39.9496 58.127 40.2906 57.786 40.7233 57.544C41.1633 57.2947 41.6583 57.17 42.2083 57.17C42.7143 57.17 43.1653 57.2837 43.5613 57.511C43.9646 57.7383 44.2836 58.072 44.5183 58.512C44.7603 58.9447 44.8813 59.4763 44.8813 60.107C44.8813 60.7303 44.764 61.262 44.5293 61.702C44.2946 62.142 43.9756 62.4793 43.5723 62.714C43.1763 62.9413 42.7216 63.055 42.2083 63.055ZM42.2633 62.362C42.674 62.362 43.0406 62.2703 43.3633 62.087C43.6933 61.8963 43.95 61.6323 44.1333 61.295C44.324 60.9503 44.4193 60.5543 44.4193 60.107C44.4193 59.6523 44.324 59.2563 44.1333 58.919C43.95 58.5817 43.6933 58.3213 43.3633 58.138C43.0406 57.9473 42.674 57.852 42.2633 57.852C41.86 57.852 41.497 57.9473 41.1743 58.138C40.8516 58.3213 40.595 58.5817 40.4043 58.919C40.2136 59.2563 40.1183 59.6523 40.1183 60.107C40.1183 60.5543 40.2136 60.9503 40.4043 61.295C40.595 61.6323 40.8516 61.8963 41.1743 62.087C41.497 62.2703 41.86 62.362 42.2633 62.362ZM44.4413 63V61.262L44.5183 60.096L44.4083 58.93V54.838H45.1893V63H44.4413ZM49.7514 63.055C49.2601 63.055 48.8311 62.9633 48.4644 62.78C48.0977 62.5967 47.8117 62.3217 47.6064 61.955C47.4084 61.5883 47.3094 61.13 47.3094 60.58V57.225H48.0904V60.492C48.0904 61.108 48.2407 61.5737 48.5414 61.889C48.8494 62.197 49.2784 62.351 49.8284 62.351C50.2317 62.351 50.5801 62.2703 50.8734 62.109C51.1741 61.9403 51.4014 61.6983 51.5554 61.383C51.7167 61.0677 51.7974 60.69 51.7974 60.25V57.225H52.5784V63H51.8304V61.416L51.9514 61.702C51.7681 62.1273 51.4821 62.461 51.0934 62.703C50.7121 62.9377 50.2647 63.055 49.7514 63.055ZM57.153 63.055C56.581 63.055 56.0677 62.9303 55.613 62.681C55.1657 62.4243 54.8137 62.076 54.557 61.636C54.3003 61.1887 54.172 60.679 54.172 60.107C54.172 59.5277 54.3003 59.018 54.557 58.578C54.8137 58.138 55.1657 57.7933 55.613 57.544C56.0677 57.2947 56.581 57.17 57.153 57.17C57.6443 57.17 58.088 57.2653 58.484 57.456C58.88 57.6467 59.1917 57.9327 59.419 58.314L58.836 58.71C58.638 58.4167 58.3923 58.2003 58.099 58.061C57.8057 57.9217 57.4867 57.852 57.142 57.852C56.7313 57.852 56.361 57.9473 56.031 58.138C55.701 58.3213 55.4407 58.5817 55.25 58.919C55.0593 59.2563 54.964 59.6523 54.964 60.107C54.964 60.5617 55.0593 60.9577 55.25 61.295C55.4407 61.6323 55.701 61.8963 56.031 62.087C56.361 62.2703 56.7313 62.362 57.142 62.362C57.4867 62.362 57.8057 62.2923 58.099 62.153C58.3923 62.0137 58.638 61.801 58.836 61.515L59.419 61.911C59.1917 62.285 58.88 62.571 58.484 62.769C58.088 62.9597 57.6443 63.055 57.153 63.055ZM62.8437 63.055C62.301 63.055 61.883 62.9083 61.5897 62.615C61.2964 62.3217 61.1497 61.9073 61.1497 61.372V55.949H61.9307V61.328C61.9307 61.6653 62.015 61.9257 62.1837 62.109C62.3597 62.2923 62.609 62.384 62.9317 62.384C63.2764 62.384 63.5624 62.285 63.7897 62.087L64.0647 62.648C63.9107 62.7873 63.7237 62.89 63.5037 62.956C63.291 63.022 63.071 63.055 62.8437 63.055ZM60.1157 57.874V57.225H63.6907V57.874H60.1157ZM67.7054 63V62.439L70.9064 59.304C71.1997 59.018 71.4197 58.7687 71.5664 58.556C71.713 58.336 71.812 58.1307 71.8634 57.94C71.9147 57.7493 71.9404 57.5697 71.9404 57.401C71.9404 56.9537 71.7864 56.6017 71.4784 56.345C71.1777 56.0883 70.7304 55.96 70.1364 55.96C69.6817 55.96 69.2784 56.0297 68.9264 56.169C68.5817 56.3083 68.2847 56.5247 68.0354 56.818L67.4744 56.334C67.775 55.982 68.16 55.7107 68.6294 55.52C69.0987 55.3293 69.623 55.234 70.2024 55.234C70.723 55.234 71.174 55.3183 71.5554 55.487C71.9367 55.6483 72.23 55.8867 72.4354 56.202C72.648 56.5173 72.7544 56.8877 72.7544 57.313C72.7544 57.5623 72.7177 57.808 72.6444 58.05C72.5784 58.292 72.4537 58.5487 72.2704 58.82C72.0944 59.084 71.834 59.3847 71.4894 59.722L68.5524 62.604L68.3324 62.296H73.1064V63H67.7054Z" fill="#636370"/>
<path d="M21.254 35V27.3H24.136C24.7887 27.3 25.3497 27.4063 25.819 27.619C26.2883 27.8243 26.6477 28.125 26.897 28.521C27.1537 28.9097 27.282 29.3827 27.282 29.94C27.282 30.4827 27.1537 30.952 26.897 31.348C26.6477 31.7367 26.2883 32.0373 25.819 32.25C25.3497 32.4627 24.7887 32.569 24.136 32.569H21.705L22.068 32.184V35H21.254ZM22.068 32.25L21.705 31.854H24.114C24.884 31.854 25.467 31.689 25.863 31.359C26.2663 31.0217 26.468 30.5487 26.468 29.94C26.468 29.324 26.2663 28.8473 25.863 28.51C25.467 28.1727 24.884 28.004 24.114 28.004H21.705L22.068 27.619V32.25ZM28.7374 35V29.225H29.4854V30.798L29.4084 30.523C29.5698 30.083 29.8411 29.7493 30.2224 29.522C30.6038 29.2873 31.0768 29.17 31.6414 29.17V29.929C31.6121 29.929 31.5828 29.929 31.5534 29.929C31.5241 29.9217 31.4948 29.918 31.4654 29.918C30.8568 29.918 30.3801 30.105 30.0354 30.479C29.6908 30.8457 29.5184 31.37 29.5184 32.052V35H28.7374ZM35.3668 35.055C34.8095 35.055 34.3072 34.9303 33.8598 34.681C33.4198 34.4243 33.0715 34.076 32.8148 33.636C32.5582 33.1887 32.4298 32.679 32.4298 32.107C32.4298 31.5277 32.5582 31.018 32.8148 30.578C33.0715 30.138 33.4198 29.7933 33.8598 29.544C34.2998 29.2947 34.8022 29.17 35.3668 29.17C35.9388 29.17 36.4448 29.2947 36.8848 29.544C37.3322 29.7933 37.6805 30.138 37.9298 30.578C38.1865 31.018 38.3148 31.5277 38.3148 32.107C38.3148 32.679 38.1865 33.1887 37.9298 33.636C37.6805 34.076 37.3322 34.4243 36.8848 34.681C36.4375 34.9303 35.9315 35.055 35.3668 35.055ZM35.3668 34.362C35.7848 34.362 36.1552 34.2703 36.4778 34.087C36.8005 33.8963 37.0535 33.6323 37.2368 33.295C37.4275 32.9503 37.5228 32.5543 37.5228 32.107C37.5228 31.6523 37.4275 31.2563 37.2368 30.919C37.0535 30.5817 36.8005 30.3213 36.4778 30.138C36.1552 29.9473 35.7885 29.852 35.3778 29.852C34.9672 29.852 34.6005 29.9473 34.2778 30.138C33.9552 30.3213 33.6985 30.5817 33.5078 30.919C33.3172 31.2563 33.2218 31.6523 33.2218 32.107C33.2218 32.5543 33.3172 32.9503 33.5078 33.295C33.6985 33.6323 33.9552 33.8963 34.2778 34.087C34.6005 34.2703 34.9635 34.362 35.3668 34.362ZM42.2083 35.055C41.6583 35.055 41.1633 34.9303 40.7233 34.681C40.2906 34.4317 39.9496 34.087 39.7003 33.647C39.451 33.1997 39.3263 32.6863 39.3263 32.107C39.3263 31.5203 39.451 31.007 39.7003 30.567C39.9496 30.127 40.2906 29.786 40.7233 29.544C41.1633 29.2947 41.6583 29.17 42.2083 29.17C42.7143 29.17 43.1653 29.2837 43.5613 29.511C43.9646 29.7383 44.2836 30.072 44.5183 30.512C44.7603 30.9447 44.8813 31.4763 44.8813 32.107C44.8813 32.7303 44.764 33.262 44.5293 33.702C44.2946 34.142 43.9756 34.4793 43.5723 34.714C43.1763 34.9413 42.7216 35.055 42.2083 35.055ZM42.2633 34.362C42.674 34.362 43.0406 34.2703 43.3633 34.087C43.6933 33.8963 43.95 33.6323 44.1333 33.295C44.324 32.9503 44.4193 32.5543 44.4193 32.107C44.4193 31.6523 44.324 31.2563 44.1333 30.919C43.95 30.5817 43.6933 30.3213 43.3633 30.138C43.0406 29.9473 42.674 29.852 42.2633 29.852C41.86 29.852 41.497 29.9473 41.1743 30.138C40.8516 30.3213 40.595 30.5817 40.4043 30.919C40.2136 31.2563 40.1183 31.6523 40.1183 32.107C40.1183 32.5543 40.2136 32.9503 40.4043 33.295C40.595 33.6323 40.8516 33.8963 41.1743 34.087C41.497 34.2703 41.86 34.362 42.2633 34.362ZM44.4413 35V33.262L44.5183 32.096L44.4083 30.93V26.838H45.1893V35H44.4413ZM49.7514 35.055C49.2601 35.055 48.8311 34.9633 48.4644 34.78C48.0977 34.5967 47.8117 34.3217 47.6064 33.955C47.4084 33.5883 47.3094 33.13 47.3094 32.58V29.225H48.0904V32.492C48.0904 33.108 48.2407 33.5737 48.5414 33.889C48.8494 34.197 49.2784 34.351 49.8284 34.351C50.2317 34.351 50.5801 34.2703 50.8734 34.109C51.1741 33.9403 51.4014 33.6983 51.5554 33.383C51.7167 33.0677 51.7974 32.69 51.7974 32.25V29.225H52.5784V35H51.8304V33.416L51.9514 33.702C51.7681 34.1273 51.4821 34.461 51.0934 34.703C50.7121 34.9377 50.2647 35.055 49.7514 35.055ZM57.153 35.055C56.581 35.055 56.0677 34.9303 55.613 34.681C55.1657 34.4243 54.8137 34.076 54.557 33.636C54.3003 33.1887 54.172 32.679 54.172 32.107C54.172 31.5277 54.3003 31.018 54.557 30.578C54.8137 30.138 55.1657 29.7933 55.613 29.544C56.0677 29.2947 56.581 29.17 57.153 29.17C57.6443 29.17 58.088 29.2653 58.484 29.456C58.88 29.6467 59.1917 29.9327 59.419 30.314L58.836 30.71C58.638 30.4167 58.3923 30.2003 58.099 30.061C57.8057 29.9217 57.4867 29.852 57.142 29.852C56.7313 29.852 56.361 29.9473 56.031 30.138C55.701 30.3213 55.4407 30.5817 55.25 30.919C55.0593 31.2563 54.964 31.6523 54.964 32.107C54.964 32.5617 55.0593 32.9577 55.25 33.295C55.4407 33.6323 55.701 33.8963 56.031 34.087C56.361 34.2703 56.7313 34.362 57.142 34.362C57.4867 34.362 57.8057 34.2923 58.099 34.153C58.3923 34.0137 58.638 33.801 58.836 33.515L59.419 33.911C59.1917 34.285 58.88 34.571 58.484 34.769C58.088 34.9597 57.6443 35.055 57.153 35.055ZM62.8437 35.055C62.301 35.055 61.883 34.9083 61.5897 34.615C61.2964 34.3217 61.1497 33.9073 61.1497 33.372V27.949H61.9307V33.328C61.9307 33.6653 62.015 33.9257 62.1837 34.109C62.3597 34.2923 62.609 34.384 62.9317 34.384C63.2764 34.384 63.5624 34.285 63.7897 34.087L64.0647 34.648C63.9107 34.7873 63.7237 34.89 63.5037 34.956C63.291 35.022 63.071 35.055 62.8437 35.055ZM60.1157 29.874V29.225H63.6907V29.874H60.1157ZM69.1904 35V27.63L69.5424 28.004H67.3754V27.3H69.9824V35H69.1904Z" fill="#636370"/>
<rect width="38" height="20" transform="translate(142 49)" fill="#FEDBDB"/>
<path d="M151.97 64.32V53.98H152.52V64.32H151.97ZM152.201 63.066C151.629 63.066 151.079 62.9743 150.551 62.791C150.03 62.6003 149.627 62.3583 149.341 62.065L149.66 61.438C149.931 61.702 150.294 61.9257 150.749 62.109C151.211 62.285 151.695 62.373 152.201 62.373C152.685 62.373 153.077 62.3143 153.378 62.197C153.686 62.0723 153.909 61.9073 154.049 61.702C154.195 61.4967 154.269 61.2693 154.269 61.02C154.269 60.7193 154.181 60.4773 154.005 60.294C153.836 60.1107 153.612 59.9677 153.334 59.865C153.055 59.755 152.747 59.6597 152.41 59.579C152.072 59.4983 151.735 59.414 151.398 59.326C151.06 59.2307 150.749 59.106 150.463 58.952C150.184 58.798 149.957 58.5963 149.781 58.347C149.612 58.0903 149.528 57.7567 149.528 57.346C149.528 56.9647 149.627 56.6163 149.825 56.301C150.03 55.9783 150.342 55.7217 150.76 55.531C151.178 55.333 151.713 55.234 152.366 55.234C152.798 55.234 153.227 55.2963 153.653 55.421C154.078 55.5383 154.445 55.7033 154.753 55.916L154.478 56.565C154.148 56.345 153.796 56.1837 153.422 56.081C153.055 55.9783 152.699 55.927 152.355 55.927C151.893 55.927 151.511 55.9893 151.211 56.114C150.91 56.2387 150.686 56.4073 150.54 56.62C150.4 56.8253 150.331 57.06 150.331 57.324C150.331 57.6247 150.415 57.8667 150.584 58.05C150.76 58.2333 150.987 58.3763 151.266 58.479C151.552 58.5817 151.863 58.6733 152.201 58.754C152.538 58.8347 152.872 58.9227 153.202 59.018C153.539 59.1133 153.847 59.238 154.126 59.392C154.412 59.5387 154.639 59.7367 154.808 59.986C154.984 60.2353 155.072 60.5617 155.072 60.965C155.072 61.339 154.969 61.6873 154.764 62.01C154.558 62.3253 154.243 62.582 153.818 62.78C153.4 62.9707 152.861 63.066 152.201 63.066ZM157.398 63V55.63L157.75 56.004H155.583V55.3H158.19V63H157.398ZM163.187 63.066C162.505 63.066 161.93 62.9157 161.46 62.615C160.991 62.307 160.635 61.867 160.393 61.295C160.151 60.7157 160.03 60.0227 160.03 59.216C160.03 58.3433 160.177 57.6137 160.47 57.027C160.771 56.433 161.185 55.9857 161.713 55.685C162.241 55.3843 162.854 55.234 163.55 55.234C163.895 55.234 164.225 55.267 164.54 55.333C164.856 55.399 165.134 55.5053 165.376 55.652L165.057 56.29C164.859 56.158 164.632 56.0663 164.375 56.015C164.119 55.9563 163.847 55.927 163.561 55.927C162.733 55.927 162.069 56.191 161.57 56.719C161.079 57.247 160.833 58.0353 160.833 59.084C160.833 59.2453 160.841 59.447 160.855 59.689C160.877 59.9237 160.921 60.1583 160.987 60.393L160.712 60.184C160.793 59.8027 160.951 59.48 161.185 59.216C161.42 58.9447 161.713 58.7393 162.065 58.6C162.417 58.4607 162.802 58.391 163.22 58.391C163.734 58.391 164.185 58.4863 164.573 58.677C164.962 58.8677 165.266 59.1353 165.486 59.48C165.706 59.8247 165.816 60.2317 165.816 60.701C165.816 61.1777 165.703 61.5957 165.475 61.955C165.248 62.307 164.933 62.582 164.529 62.78C164.133 62.9707 163.686 63.066 163.187 63.066ZM163.154 62.395C163.521 62.395 163.844 62.329 164.122 62.197C164.408 62.0577 164.632 61.8633 164.793 61.614C164.955 61.3573 165.035 61.0603 165.035 60.723C165.035 60.217 164.859 59.8137 164.507 59.513C164.163 59.2123 163.693 59.062 163.099 59.062C162.703 59.062 162.359 59.1353 162.065 59.282C161.772 59.4287 161.541 59.6303 161.372 59.887C161.204 60.1363 161.119 60.4223 161.119 60.745C161.119 61.0237 161.196 61.2913 161.35 61.548C161.504 61.7973 161.732 62.0027 162.032 62.164C162.34 62.318 162.714 62.395 163.154 62.395ZM169.66 63.066C169.044 63.066 168.512 62.978 168.065 62.802C167.625 62.626 167.284 62.373 167.042 62.043C166.807 61.7057 166.69 61.3097 166.69 60.855C166.69 60.415 166.803 60.041 167.031 59.733C167.265 59.4177 167.603 59.1757 168.043 59.007C168.49 58.8383 169.029 58.754 169.66 58.754C170.283 58.754 170.818 58.8383 171.266 59.007C171.713 59.1757 172.054 59.4177 172.289 59.733C172.531 60.041 172.652 60.415 172.652 60.855C172.652 61.3097 172.531 61.7057 172.289 62.043C172.047 62.373 171.702 62.626 171.255 62.802C170.807 62.978 170.276 63.066 169.66 63.066ZM169.66 62.395C170.342 62.395 170.873 62.2557 171.255 61.977C171.643 61.6983 171.838 61.3207 171.838 60.844C171.838 60.3673 171.643 59.9933 171.255 59.722C170.873 59.4433 170.342 59.304 169.66 59.304C168.978 59.304 168.446 59.4433 168.065 59.722C167.683 59.9933 167.493 60.3673 167.493 60.844C167.493 61.3207 167.683 61.6983 168.065 61.977C168.446 62.2557 168.978 62.395 169.66 62.395ZM169.66 59.205C169.088 59.205 168.6 59.128 168.197 58.974C167.801 58.82 167.496 58.6 167.284 58.314C167.071 58.0207 166.965 57.6723 166.965 57.269C166.965 56.8437 167.075 56.4807 167.295 56.18C167.522 55.872 167.837 55.6373 168.241 55.476C168.644 55.3147 169.117 55.234 169.66 55.234C170.202 55.234 170.675 55.3147 171.079 55.476C171.489 55.6373 171.808 55.872 172.036 56.18C172.263 56.4807 172.377 56.8437 172.377 57.269C172.377 57.6723 172.27 58.0207 172.058 58.314C171.845 58.6 171.533 58.82 171.123 58.974C170.719 59.128 170.232 59.205 169.66 59.205ZM169.66 58.677C170.261 58.677 170.73 58.5523 171.068 58.303C171.405 58.0537 171.574 57.72 171.574 57.302C171.574 56.862 171.398 56.521 171.046 56.279C170.701 56.0297 170.239 55.905 169.66 55.905C169.08 55.905 168.618 56.0297 168.274 56.279C167.929 56.521 167.757 56.8583 167.757 57.291C167.757 57.7163 167.922 58.0537 168.252 58.303C168.589 58.5523 169.058 58.677 169.66 58.677Z" fill="#F82C2C"/>
<rect width="38" height="20" transform="translate(142 133)" fill="#FEDBDB"/>
<path d="M154.295 148.32V137.98H154.845V148.32H154.295ZM154.526 147.066C153.954 147.066 153.404 146.974 152.876 146.791C152.356 146.6 151.952 146.358 151.666 146.065L151.985 145.438C152.257 145.702 152.62 145.926 153.074 146.109C153.536 146.285 154.02 146.373 154.526 146.373C155.01 146.373 155.403 146.314 155.703 146.197C156.011 146.072 156.235 145.907 156.374 145.702C156.521 145.497 156.594 145.269 156.594 145.02C156.594 144.719 156.506 144.477 156.33 144.294C156.162 144.111 155.938 143.968 155.659 143.865C155.381 143.755 155.073 143.66 154.735 143.579C154.398 143.498 154.061 143.414 153.723 143.326C153.386 143.231 153.074 143.106 152.788 142.952C152.51 142.798 152.282 142.596 152.106 142.347C151.938 142.09 151.853 141.757 151.853 141.346C151.853 140.965 151.952 140.616 152.15 140.301C152.356 139.978 152.667 139.722 153.085 139.531C153.503 139.333 154.039 139.234 154.691 139.234C155.124 139.234 155.553 139.296 155.978 139.421C156.404 139.538 156.77 139.703 157.078 139.916L156.803 140.565C156.473 140.345 156.121 140.184 155.747 140.081C155.381 139.978 155.025 139.927 154.68 139.927C154.218 139.927 153.837 139.989 153.536 140.114C153.236 140.239 153.012 140.407 152.865 140.62C152.726 140.825 152.656 141.06 152.656 141.324C152.656 141.625 152.741 141.867 152.909 142.05C153.085 142.233 153.313 142.376 153.591 142.479C153.877 142.582 154.189 142.673 154.526 142.754C154.864 142.835 155.197 142.923 155.527 143.018C155.865 143.113 156.173 143.238 156.451 143.392C156.737 143.539 156.965 143.737 157.133 143.986C157.309 144.235 157.397 144.562 157.397 144.965C157.397 145.339 157.295 145.687 157.089 146.01C156.884 146.325 156.569 146.582 156.143 146.78C155.725 146.971 155.186 147.066 154.526 147.066ZM158.346 147V146.439L161.547 143.304C161.84 143.018 162.06 142.769 162.207 142.556C162.354 142.336 162.453 142.131 162.504 141.94C162.555 141.749 162.581 141.57 162.581 141.401C162.581 140.954 162.427 140.602 162.119 140.345C161.818 140.088 161.371 139.96 160.777 139.96C160.322 139.96 159.919 140.03 159.567 140.169C159.222 140.308 158.925 140.525 158.676 140.818L158.115 140.334C158.416 139.982 158.801 139.711 159.27 139.52C159.739 139.329 160.264 139.234 160.843 139.234C161.364 139.234 161.815 139.318 162.196 139.487C162.577 139.648 162.871 139.887 163.076 140.202C163.289 140.517 163.395 140.888 163.395 141.313C163.395 141.562 163.358 141.808 163.285 142.05C163.219 142.292 163.094 142.549 162.911 142.82C162.735 143.084 162.475 143.385 162.13 143.722L159.193 146.604L158.973 146.296H163.747V147H158.346ZM167.876 147.066C167.194 147.066 166.619 146.916 166.149 146.615C165.68 146.307 165.324 145.867 165.082 145.295C164.84 144.716 164.719 144.023 164.719 143.216C164.719 142.343 164.866 141.614 165.159 141.027C165.46 140.433 165.874 139.986 166.402 139.685C166.93 139.384 167.543 139.234 168.239 139.234C168.584 139.234 168.914 139.267 169.229 139.333C169.545 139.399 169.823 139.505 170.065 139.652L169.746 140.29C169.548 140.158 169.321 140.066 169.064 140.015C168.808 139.956 168.536 139.927 168.25 139.927C167.422 139.927 166.758 140.191 166.259 140.719C165.768 141.247 165.522 142.035 165.522 143.084C165.522 143.245 165.53 143.447 165.544 143.689C165.566 143.924 165.61 144.158 165.676 144.393L165.401 144.184C165.482 143.803 165.64 143.48 165.874 143.216C166.109 142.945 166.402 142.739 166.754 142.6C167.106 142.461 167.491 142.391 167.909 142.391C168.423 142.391 168.874 142.486 169.262 142.677C169.651 142.868 169.955 143.135 170.175 143.48C170.395 143.825 170.505 144.232 170.505 144.701C170.505 145.178 170.392 145.596 170.164 145.955C169.937 146.307 169.622 146.582 169.218 146.78C168.822 146.971 168.375 147.066 167.876 147.066ZM167.843 146.395C168.21 146.395 168.533 146.329 168.811 146.197C169.097 146.058 169.321 145.863 169.482 145.614C169.644 145.357 169.724 145.06 169.724 144.723C169.724 144.217 169.548 143.814 169.196 143.513C168.852 143.212 168.382 143.062 167.788 143.062C167.392 143.062 167.048 143.135 166.754 143.282C166.461 143.429 166.23 143.63 166.061 143.887C165.893 144.136 165.808 144.422 165.808 144.745C165.808 145.024 165.885 145.291 166.039 145.548C166.193 145.797 166.421 146.003 166.721 146.164C167.029 146.318 167.403 146.395 167.843 146.395Z" fill="#F82C2C"/>
<rect width="38" height="20" transform="translate(142 161)" fill="#F3FCEC"/>
<path d="M154.483 176.32V165.98H155.033V176.32H154.483ZM154.714 175.066C154.142 175.066 153.592 174.974 153.064 174.791C152.544 174.6 152.14 174.358 151.854 174.065L152.173 173.438C152.445 173.702 152.808 173.926 153.262 174.109C153.724 174.285 154.208 174.373 154.714 174.373C155.198 174.373 155.591 174.314 155.891 174.197C156.199 174.072 156.423 173.907 156.562 173.702C156.709 173.497 156.782 173.269 156.782 173.02C156.782 172.719 156.694 172.477 156.518 172.294C156.35 172.111 156.126 171.968 155.847 171.865C155.569 171.755 155.261 171.66 154.923 171.579C154.586 171.498 154.249 171.414 153.911 171.326C153.574 171.231 153.262 171.106 152.976 170.952C152.698 170.798 152.47 170.596 152.294 170.347C152.126 170.09 152.041 169.757 152.041 169.346C152.041 168.965 152.14 168.616 152.338 168.301C152.544 167.978 152.855 167.722 153.273 167.531C153.691 167.333 154.227 167.234 154.879 167.234C155.312 167.234 155.741 167.296 156.166 167.421C156.592 167.538 156.958 167.703 157.266 167.916L156.991 168.565C156.661 168.345 156.309 168.184 155.935 168.081C155.569 167.978 155.213 167.927 154.868 167.927C154.406 167.927 154.025 167.989 153.724 168.114C153.424 168.239 153.2 168.407 153.053 168.62C152.914 168.825 152.844 169.06 152.844 169.324C152.844 169.625 152.929 169.867 153.097 170.05C153.273 170.233 153.501 170.376 153.779 170.479C154.065 170.582 154.377 170.673 154.714 170.754C155.052 170.835 155.385 170.923 155.715 171.018C156.053 171.113 156.361 171.238 156.639 171.392C156.925 171.539 157.153 171.737 157.321 171.986C157.497 172.235 157.585 172.562 157.585 172.965C157.585 173.339 157.483 173.687 157.277 174.01C157.072 174.325 156.757 174.582 156.331 174.78C155.913 174.971 155.374 175.066 154.714 175.066ZM161.108 175.066C160.558 175.066 160.034 174.978 159.535 174.802C159.036 174.619 158.64 174.377 158.347 174.076L158.732 173.449C158.974 173.706 159.304 173.918 159.722 174.087C160.147 174.256 160.606 174.34 161.097 174.34C161.75 174.34 162.245 174.197 162.582 173.911C162.927 173.618 163.099 173.236 163.099 172.767C163.099 172.437 163.018 172.155 162.857 171.92C162.703 171.678 162.439 171.491 162.065 171.359C161.691 171.227 161.178 171.161 160.525 171.161H158.886L159.282 167.3H163.495V168.004H159.601L160.008 167.619L159.667 170.853L159.26 170.457H160.701C161.478 170.457 162.102 170.552 162.571 170.743C163.04 170.934 163.378 171.201 163.583 171.546C163.796 171.883 163.902 172.279 163.902 172.734C163.902 173.167 163.799 173.563 163.594 173.922C163.389 174.274 163.081 174.553 162.67 174.758C162.259 174.963 161.739 175.066 161.108 175.066ZM166.11 175L169.432 167.652L169.674 168.004H164.911L165.318 167.619V169.445H164.537V167.3H170.191V167.861L166.968 175H166.11Z" fill="#63C714"/>
<rect width="38" height="20" transform="translate(142 105)" fill="#F3FCEC"/>
<path d="M152.587 120.32V109.98H153.137V120.32H152.587ZM152.818 119.066C152.246 119.066 151.696 118.974 151.168 118.791C150.648 118.6 150.244 118.358 149.958 118.065L150.277 117.438C150.549 117.702 150.912 117.926 151.366 118.109C151.828 118.285 152.312 118.373 152.818 118.373C153.302 118.373 153.695 118.314 153.995 118.197C154.303 118.072 154.527 117.907 154.666 117.702C154.813 117.497 154.886 117.269 154.886 117.02C154.886 116.719 154.798 116.477 154.622 116.294C154.454 116.111 154.23 115.968 153.951 115.865C153.673 115.755 153.365 115.66 153.027 115.579C152.69 115.498 152.353 115.414 152.015 115.326C151.678 115.231 151.366 115.106 151.08 114.952C150.802 114.798 150.574 114.596 150.398 114.347C150.23 114.09 150.145 113.757 150.145 113.346C150.145 112.965 150.244 112.616 150.442 112.301C150.648 111.978 150.959 111.722 151.377 111.531C151.795 111.333 152.331 111.234 152.983 111.234C153.416 111.234 153.845 111.296 154.27 111.421C154.696 111.538 155.062 111.703 155.37 111.916L155.095 112.565C154.765 112.345 154.413 112.184 154.039 112.081C153.673 111.978 153.317 111.927 152.972 111.927C152.51 111.927 152.129 111.989 151.828 112.114C151.528 112.239 151.304 112.407 151.157 112.62C151.018 112.825 150.948 113.06 150.948 113.324C150.948 113.625 151.033 113.867 151.201 114.05C151.377 114.233 151.605 114.376 151.883 114.479C152.169 114.582 152.481 114.673 152.818 114.754C153.156 114.835 153.489 114.923 153.819 115.018C154.157 115.113 154.465 115.238 154.743 115.392C155.029 115.539 155.257 115.737 155.425 115.986C155.601 116.235 155.689 116.562 155.689 116.965C155.689 117.339 155.587 117.687 155.381 118.01C155.176 118.325 154.861 118.582 154.435 118.78C154.017 118.971 153.478 119.066 152.818 119.066ZM158.016 119V111.63L158.368 112.004H156.201V111.3H158.808V119H158.016ZM160.505 119V118.439L163.706 115.304C164 115.018 164.22 114.769 164.366 114.556C164.513 114.336 164.612 114.131 164.663 113.94C164.715 113.749 164.74 113.57 164.74 113.401C164.74 112.954 164.586 112.602 164.278 112.345C163.978 112.088 163.53 111.96 162.936 111.96C162.482 111.96 162.078 112.03 161.726 112.169C161.382 112.308 161.085 112.525 160.835 112.818L160.274 112.334C160.575 111.982 160.96 111.711 161.429 111.52C161.899 111.329 162.423 111.234 163.002 111.234C163.523 111.234 163.974 111.318 164.355 111.487C164.737 111.648 165.03 111.887 165.235 112.202C165.448 112.517 165.554 112.888 165.554 113.313C165.554 113.562 165.518 113.808 165.444 114.05C165.378 114.292 165.254 114.549 165.07 114.82C164.894 115.084 164.634 115.385 164.289 115.722L161.352 118.604L161.132 118.296H165.906V119H160.505ZM169.331 119.066C168.781 119.066 168.257 118.978 167.758 118.802C167.259 118.619 166.863 118.377 166.57 118.076L166.955 117.449C167.197 117.706 167.527 117.918 167.945 118.087C168.37 118.256 168.829 118.34 169.32 118.34C169.973 118.34 170.468 118.197 170.805 117.911C171.15 117.618 171.322 117.236 171.322 116.767C171.322 116.437 171.241 116.155 171.08 115.92C170.926 115.678 170.662 115.491 170.288 115.359C169.914 115.227 169.401 115.161 168.748 115.161H167.109L167.505 111.3H171.718V112.004H167.824L168.231 111.619L167.89 114.853L167.483 114.457H168.924C169.701 114.457 170.325 114.552 170.794 114.743C171.263 114.934 171.601 115.201 171.806 115.546C172.019 115.883 172.125 116.279 172.125 116.734C172.125 117.167 172.022 117.563 171.817 117.922C171.612 118.274 171.304 118.553 170.893 118.758C170.482 118.963 169.962 119.066 169.331 119.066Z" fill="#63C714"/>
<rect width="38" height="20" transform="translate(142 77)" fill="#F3FCEC"/>
<path d="M151.97 92.32V81.98H152.52V92.32H151.97ZM152.201 91.066C151.629 91.066 151.079 90.9743 150.551 90.791C150.03 90.6003 149.627 90.3583 149.341 90.065L149.66 89.438C149.931 89.702 150.294 89.9257 150.749 90.109C151.211 90.285 151.695 90.373 152.201 90.373C152.685 90.373 153.077 90.3143 153.378 90.197C153.686 90.0723 153.909 89.9073 154.049 89.702C154.195 89.4967 154.269 89.2693 154.269 89.02C154.269 88.7193 154.181 88.4773 154.005 88.294C153.836 88.1107 153.612 87.9677 153.334 87.865C153.055 87.755 152.747 87.6597 152.41 87.579C152.072 87.4983 151.735 87.414 151.398 87.326C151.06 87.2307 150.749 87.106 150.463 86.952C150.184 86.798 149.957 86.5963 149.781 86.347C149.612 86.0903 149.528 85.7567 149.528 85.346C149.528 84.9647 149.627 84.6163 149.825 84.301C150.03 83.9783 150.342 83.7217 150.76 83.531C151.178 83.333 151.713 83.234 152.366 83.234C152.798 83.234 153.227 83.2963 153.653 83.421C154.078 83.5383 154.445 83.7033 154.753 83.916L154.478 84.565C154.148 84.345 153.796 84.1837 153.422 84.081C153.055 83.9783 152.699 83.927 152.355 83.927C151.893 83.927 151.511 83.9893 151.211 84.114C150.91 84.2387 150.686 84.4073 150.54 84.62C150.4 84.8253 150.331 85.06 150.331 85.324C150.331 85.6247 150.415 85.8667 150.584 86.05C150.76 86.2333 150.987 86.3763 151.266 86.479C151.552 86.5817 151.863 86.6733 152.201 86.754C152.538 86.8347 152.872 86.9227 153.202 87.018C153.539 87.1133 153.847 87.238 154.126 87.392C154.412 87.5387 154.639 87.7367 154.808 87.986C154.984 88.2353 155.072 88.5617 155.072 88.965C155.072 89.339 154.969 89.6873 154.764 90.01C154.558 90.3253 154.243 90.582 153.818 90.78C153.4 90.9707 152.861 91.066 152.201 91.066ZM157.398 91V83.63L157.75 84.004H155.583V83.3H158.19V91H157.398ZM162.956 91.066C162.34 91.066 161.809 90.978 161.361 90.802C160.921 90.626 160.58 90.373 160.338 90.043C160.104 89.7057 159.986 89.3097 159.986 88.855C159.986 88.415 160.1 88.041 160.327 87.733C160.562 87.4177 160.899 87.1757 161.339 87.007C161.787 86.8383 162.326 86.754 162.956 86.754C163.58 86.754 164.115 86.8383 164.562 87.007C165.01 87.1757 165.351 87.4177 165.585 87.733C165.827 88.041 165.948 88.415 165.948 88.855C165.948 89.3097 165.827 89.7057 165.585 90.043C165.343 90.373 164.999 90.626 164.551 90.802C164.104 90.978 163.572 91.066 162.956 91.066ZM162.956 90.395C163.638 90.395 164.17 90.2557 164.551 89.977C164.94 89.6983 165.134 89.3207 165.134 88.844C165.134 88.3673 164.94 87.9933 164.551 87.722C164.17 87.4433 163.638 87.304 162.956 87.304C162.274 87.304 161.743 87.4433 161.361 87.722C160.98 87.9933 160.789 88.3673 160.789 88.844C160.789 89.3207 160.98 89.6983 161.361 89.977C161.743 90.2557 162.274 90.395 162.956 90.395ZM162.956 87.205C162.384 87.205 161.897 87.128 161.493 86.974C161.097 86.82 160.793 86.6 160.58 86.314C160.368 86.0207 160.261 85.6723 160.261 85.269C160.261 84.8437 160.371 84.4807 160.591 84.18C160.819 83.872 161.134 83.6373 161.537 83.476C161.941 83.3147 162.414 83.234 162.956 83.234C163.499 83.234 163.972 83.3147 164.375 83.476C164.786 83.6373 165.105 83.872 165.332 84.18C165.56 84.4807 165.673 84.8437 165.673 85.269C165.673 85.6723 165.567 86.0207 165.354 86.314C165.142 86.6 164.83 86.82 164.419 86.974C164.016 87.128 163.528 87.205 162.956 87.205ZM162.956 86.677C163.558 86.677 164.027 86.5523 164.364 86.303C164.702 86.0537 164.87 85.72 164.87 85.302C164.87 84.862 164.694 84.521 164.342 84.279C163.998 84.0297 163.536 83.905 162.956 83.905C162.377 83.905 161.915 84.0297 161.57 84.279C161.226 84.521 161.053 84.8583 161.053 85.291C161.053 85.7163 161.218 86.0537 161.548 86.303C161.886 86.5523 162.355 86.677 162.956 86.677ZM169.443 83.234C170.125 83.234 170.701 83.388 171.17 83.696C171.639 83.9967 171.995 84.433 172.237 85.005C172.479 85.577 172.6 86.27 172.6 87.084C172.6 87.9493 172.45 88.679 172.149 89.273C171.856 89.867 171.445 90.3143 170.917 90.615C170.389 90.9157 169.777 91.066 169.08 91.066C168.735 91.066 168.405 91.033 168.09 90.967C167.782 90.901 167.503 90.7947 167.254 90.648L167.573 90.01C167.771 90.142 167.998 90.2373 168.255 90.296C168.519 90.3473 168.79 90.373 169.069 90.373C169.898 90.373 170.558 90.109 171.049 89.581C171.548 89.053 171.797 88.2647 171.797 87.216C171.797 87.0473 171.786 86.8457 171.764 86.611C171.749 86.3763 171.709 86.1417 171.643 85.907L171.918 86.116C171.845 86.4973 171.687 86.8237 171.445 87.095C171.21 87.359 170.917 87.5607 170.565 87.7C170.22 87.8393 169.835 87.909 169.41 87.909C168.904 87.909 168.453 87.8137 168.057 87.623C167.668 87.4323 167.364 87.1647 167.144 86.82C166.924 86.4753 166.814 86.0683 166.814 85.599C166.814 85.115 166.928 84.697 167.155 84.345C167.382 83.993 167.694 83.7217 168.09 83.531C168.493 83.333 168.944 83.234 169.443 83.234ZM169.476 83.905C169.109 83.905 168.783 83.9747 168.497 84.114C168.218 84.246 167.998 84.4367 167.837 84.686C167.676 84.9353 167.595 85.2323 167.595 85.577C167.595 86.083 167.767 86.4863 168.112 86.787C168.464 87.0877 168.937 87.238 169.531 87.238C169.927 87.238 170.272 87.1647 170.565 87.018C170.866 86.8713 171.097 86.6697 171.258 86.413C171.427 86.1563 171.511 85.8703 171.511 85.555C171.511 85.269 171.434 85.0013 171.28 84.752C171.126 84.5027 170.899 84.301 170.598 84.147C170.297 83.9857 169.923 83.905 169.476 83.905Z" fill="#63C714"/>
<path d="M106.295 148.32V137.98H106.845V148.32H106.295ZM106.526 147.066C105.954 147.066 105.404 146.974 104.876 146.791C104.356 146.6 103.952 146.358 103.666 146.065L103.985 145.438C104.257 145.702 104.62 145.926 105.074 146.109C105.536 146.285 106.02 146.373 106.526 146.373C107.01 146.373 107.403 146.314 107.703 146.197C108.011 146.072 108.235 145.907 108.374 145.702C108.521 145.497 108.594 145.269 108.594 145.02C108.594 144.719 108.506 144.477 108.33 144.294C108.162 144.111 107.938 143.968 107.659 143.865C107.381 143.755 107.073 143.66 106.735 143.579C106.398 143.498 106.061 143.414 105.723 143.326C105.386 143.231 105.074 143.106 104.788 142.952C104.51 142.798 104.282 142.596 104.106 142.347C103.938 142.09 103.853 141.757 103.853 141.346C103.853 140.965 103.952 140.616 104.15 140.301C104.356 139.978 104.667 139.722 105.085 139.531C105.503 139.333 106.039 139.234 106.691 139.234C107.124 139.234 107.553 139.296 107.978 139.421C108.404 139.538 108.77 139.703 109.078 139.916L108.803 140.565C108.473 140.345 108.121 140.184 107.747 140.081C107.381 139.978 107.025 139.927 106.68 139.927C106.218 139.927 105.837 139.989 105.536 140.114C105.236 140.239 105.012 140.407 104.865 140.62C104.726 140.825 104.656 141.06 104.656 141.324C104.656 141.625 104.741 141.867 104.909 142.05C105.085 142.233 105.313 142.376 105.591 142.479C105.877 142.582 106.189 142.673 106.526 142.754C106.864 142.835 107.197 142.923 107.527 143.018C107.865 143.113 108.173 143.238 108.451 143.392C108.737 143.539 108.965 143.737 109.133 143.986C109.309 144.235 109.397 144.562 109.397 144.965C109.397 145.339 109.295 145.687 109.089 146.01C108.884 146.325 108.569 146.582 108.143 146.78C107.725 146.971 107.186 147.066 106.526 147.066ZM112.92 147.066C112.37 147.066 111.846 146.978 111.347 146.802C110.848 146.619 110.452 146.377 110.159 146.076L110.544 145.449C110.786 145.706 111.116 145.918 111.534 146.087C111.959 146.256 112.418 146.34 112.909 146.34C113.562 146.34 114.057 146.197 114.394 145.911C114.739 145.618 114.911 145.236 114.911 144.767C114.911 144.437 114.83 144.155 114.669 143.92C114.515 143.678 114.251 143.491 113.877 143.359C113.503 143.227 112.99 143.161 112.337 143.161H110.698L111.094 139.3H115.307V140.004H111.413L111.82 139.619L111.479 142.853L111.072 142.457H112.513C113.29 142.457 113.914 142.552 114.383 142.743C114.852 142.934 115.19 143.201 115.395 143.546C115.608 143.883 115.714 144.279 115.714 144.734C115.714 145.167 115.611 145.563 115.406 145.922C115.201 146.274 114.893 146.553 114.482 146.758C114.071 146.963 113.551 147.066 112.92 147.066ZM119.117 139.234C119.799 139.234 120.375 139.388 120.844 139.696C121.314 139.997 121.669 140.433 121.911 141.005C122.153 141.577 122.274 142.27 122.274 143.084C122.274 143.949 122.124 144.679 121.823 145.273C121.53 145.867 121.119 146.314 120.591 146.615C120.063 146.916 119.451 147.066 118.754 147.066C118.41 147.066 118.08 147.033 117.764 146.967C117.456 146.901 117.178 146.795 116.928 146.648L117.247 146.01C117.445 146.142 117.673 146.237 117.929 146.296C118.193 146.347 118.465 146.373 118.743 146.373C119.572 146.373 120.232 146.109 120.723 145.581C121.222 145.053 121.471 144.265 121.471 143.216C121.471 143.047 121.46 142.846 121.438 142.611C121.424 142.376 121.383 142.142 121.317 141.907L121.592 142.116C121.519 142.497 121.361 142.824 121.119 143.095C120.885 143.359 120.591 143.561 120.239 143.7C119.895 143.839 119.51 143.909 119.084 143.909C118.578 143.909 118.127 143.814 117.731 143.623C117.343 143.432 117.038 143.165 116.818 142.82C116.598 142.475 116.488 142.068 116.488 141.599C116.488 141.115 116.602 140.697 116.829 140.345C117.057 139.993 117.368 139.722 117.764 139.531C118.168 139.333 118.619 139.234 119.117 139.234ZM119.15 139.905C118.784 139.905 118.457 139.975 118.171 140.114C117.893 140.246 117.673 140.437 117.511 140.686C117.35 140.935 117.269 141.232 117.269 141.577C117.269 142.083 117.442 142.486 117.786 142.787C118.138 143.088 118.611 143.238 119.205 143.238C119.601 143.238 119.946 143.165 120.239 143.018C120.54 142.871 120.771 142.67 120.932 142.413C121.101 142.156 121.185 141.87 121.185 141.555C121.185 141.269 121.108 141.001 120.954 140.752C120.8 140.503 120.573 140.301 120.272 140.147C119.972 139.986 119.598 139.905 119.15 139.905Z" fill="#636370"/>
<path d="M104.297 64.32V53.98H104.847V64.32H104.297ZM104.528 63.066C103.956 63.066 103.406 62.9743 102.878 62.791C102.358 62.6003 101.954 62.3583 101.668 62.065L101.987 61.438C102.259 61.702 102.622 61.9257 103.076 62.109C103.538 62.285 104.022 62.373 104.528 62.373C105.012 62.373 105.405 62.3143 105.705 62.197C106.013 62.0723 106.237 61.9073 106.376 61.702C106.523 61.4967 106.596 61.2693 106.596 61.02C106.596 60.7193 106.508 60.4773 106.332 60.294C106.164 60.1107 105.94 59.9677 105.661 59.865C105.383 59.755 105.075 59.6597 104.737 59.579C104.4 59.4983 104.063 59.414 103.725 59.326C103.388 59.2307 103.076 59.106 102.79 58.952C102.512 58.798 102.284 58.5963 102.108 58.347C101.94 58.0903 101.855 57.7567 101.855 57.346C101.855 56.9647 101.954 56.6163 102.152 56.301C102.358 55.9783 102.669 55.7217 103.087 55.531C103.505 55.333 104.041 55.234 104.693 55.234C105.126 55.234 105.555 55.2963 105.98 55.421C106.406 55.5383 106.772 55.7033 107.08 55.916L106.805 56.565C106.475 56.345 106.123 56.1837 105.749 56.081C105.383 55.9783 105.027 55.927 104.682 55.927C104.22 55.927 103.839 55.9893 103.538 56.114C103.238 56.2387 103.014 56.4073 102.867 56.62C102.728 56.8253 102.658 57.06 102.658 57.324C102.658 57.6247 102.743 57.8667 102.911 58.05C103.087 58.2333 103.315 58.3763 103.593 58.479C103.879 58.5817 104.191 58.6733 104.528 58.754C104.866 58.8347 105.199 58.9227 105.529 59.018C105.867 59.1133 106.175 59.238 106.453 59.392C106.739 59.5387 106.967 59.7367 107.135 59.986C107.311 60.2353 107.399 60.5617 107.399 60.965C107.399 61.339 107.297 61.6873 107.091 62.01C106.886 62.3253 106.571 62.582 106.145 62.78C105.727 62.9707 105.188 63.066 104.528 63.066ZM108.348 63V62.439L111.549 59.304C111.842 59.018 112.062 58.7687 112.209 58.556C112.356 58.336 112.455 58.1307 112.506 57.94C112.557 57.7493 112.583 57.5697 112.583 57.401C112.583 56.9537 112.429 56.6017 112.121 56.345C111.82 56.0883 111.373 55.96 110.779 55.96C110.324 55.96 109.921 56.0297 109.569 56.169C109.224 56.3083 108.927 56.5247 108.678 56.818L108.117 56.334C108.418 55.982 108.803 55.7107 109.272 55.52C109.741 55.3293 110.266 55.234 110.845 55.234C111.366 55.234 111.817 55.3183 112.198 55.487C112.579 55.6483 112.873 55.8867 113.078 56.202C113.291 56.5173 113.397 56.8877 113.397 57.313C113.397 57.5623 113.36 57.808 113.287 58.05C113.221 58.292 113.096 58.5487 112.913 58.82C112.737 59.084 112.477 59.3847 112.132 59.722L109.195 62.604L108.975 62.296H113.749V63H108.348ZM116.085 63V55.63L116.437 56.004H114.27V55.3H116.877V63H116.085ZM121.116 55.234C121.798 55.234 122.373 55.388 122.843 55.696C123.312 55.9967 123.668 56.433 123.91 57.005C124.152 57.577 124.273 58.27 124.273 59.084C124.273 59.9493 124.122 60.679 123.822 61.273C123.528 61.867 123.118 62.3143 122.59 62.615C122.062 62.9157 121.449 63.066 120.753 63.066C120.408 63.066 120.078 63.033 119.763 62.967C119.455 62.901 119.176 62.7947 118.927 62.648L119.246 62.01C119.444 62.142 119.671 62.2373 119.928 62.296C120.192 62.3473 120.463 62.373 120.742 62.373C121.57 62.373 122.23 62.109 122.722 61.581C123.22 61.053 123.47 60.2647 123.47 59.216C123.47 59.0473 123.459 58.8457 123.437 58.611C123.422 58.3763 123.382 58.1417 123.316 57.907L123.591 58.116C123.517 58.4973 123.36 58.8237 123.118 59.095C122.883 59.359 122.59 59.5607 122.238 59.7C121.893 59.8393 121.508 59.909 121.083 59.909C120.577 59.909 120.126 59.8137 119.73 59.623C119.341 59.4323 119.037 59.1647 118.817 58.82C118.597 58.4753 118.487 58.0683 118.487 57.599C118.487 57.115 118.6 56.697 118.828 56.345C119.055 55.993 119.367 55.7217 119.763 55.531C120.166 55.333 120.617 55.234 121.116 55.234ZM121.149 55.905C120.782 55.905 120.456 55.9747 120.17 56.114C119.891 56.246 119.671 56.4367 119.51 56.686C119.348 56.9353 119.268 57.2323 119.268 57.577C119.268 58.083 119.44 58.4863 119.785 58.787C120.137 59.0877 120.61 59.238 121.204 59.238C121.6 59.238 121.944 59.1647 122.238 59.018C122.538 58.8713 122.769 58.6697 122.931 58.413C123.099 58.1563 123.184 57.8703 123.184 57.555C123.184 57.269 123.107 57.0013 122.953 56.752C122.799 56.5027 122.571 56.301 122.271 56.147C121.97 55.9857 121.596 55.905 121.149 55.905Z" fill="#636370"/>
<path d="M103.884 92.32V81.98H104.434V92.32H103.884ZM104.115 91.066C103.543 91.066 102.993 90.9743 102.465 90.791C101.944 90.6003 101.541 90.3583 101.255 90.065L101.574 89.438C101.845 89.702 102.208 89.9257 102.663 90.109C103.125 90.285 103.609 90.373 104.115 90.373C104.599 90.373 104.991 90.3143 105.292 90.197C105.6 90.0723 105.823 89.9073 105.963 89.702C106.109 89.4967 106.183 89.2693 106.183 89.02C106.183 88.7193 106.095 88.4773 105.919 88.294C105.75 88.1107 105.526 87.9677 105.248 87.865C104.969 87.755 104.661 87.6597 104.324 87.579C103.986 87.4983 103.649 87.414 103.312 87.326C102.974 87.2307 102.663 87.106 102.377 86.952C102.098 86.798 101.871 86.5963 101.695 86.347C101.526 86.0903 101.442 85.7567 101.442 85.346C101.442 84.9647 101.541 84.6163 101.739 84.301C101.944 83.9783 102.256 83.7217 102.674 83.531C103.092 83.333 103.627 83.234 104.28 83.234C104.712 83.234 105.141 83.2963 105.567 83.421C105.992 83.5383 106.359 83.7033 106.667 83.916L106.392 84.565C106.062 84.345 105.71 84.1837 105.336 84.081C104.969 83.9783 104.613 83.927 104.269 83.927C103.807 83.927 103.425 83.9893 103.125 84.114C102.824 84.2387 102.6 84.4073 102.454 84.62C102.314 84.8253 102.245 85.06 102.245 85.324C102.245 85.6247 102.329 85.8667 102.498 86.05C102.674 86.2333 102.901 86.3763 103.18 86.479C103.466 86.5817 103.777 86.6733 104.115 86.754C104.452 86.8347 104.786 86.9227 105.116 87.018C105.453 87.1133 105.761 87.238 106.04 87.392C106.326 87.5387 106.553 87.7367 106.722 87.986C106.898 88.2353 106.986 88.5617 106.986 88.965C106.986 89.339 106.883 89.6873 106.678 90.01C106.472 90.3253 106.157 90.582 105.732 90.78C105.314 90.9707 104.775 91.066 104.115 91.066ZM109.312 91V83.63L109.664 84.004H107.497V83.3H110.104V91H109.312ZM111.813 88.976V88.404L115.894 83.3H116.774L112.726 88.404L112.297 88.272H118.49V88.976H111.813ZM116.158 91V88.976L116.18 88.272V86.49H116.95V91H116.158ZM121.529 83.234C122.211 83.234 122.787 83.388 123.256 83.696C123.725 83.9967 124.081 84.433 124.323 85.005C124.565 85.577 124.686 86.27 124.686 87.084C124.686 87.9493 124.536 88.679 124.235 89.273C123.942 89.867 123.531 90.3143 123.003 90.615C122.475 90.9157 121.863 91.066 121.166 91.066C120.821 91.066 120.491 91.033 120.176 90.967C119.868 90.901 119.589 90.7947 119.34 90.648L119.659 90.01C119.857 90.142 120.084 90.2373 120.341 90.296C120.605 90.3473 120.876 90.373 121.155 90.373C121.984 90.373 122.644 90.109 123.135 89.581C123.634 89.053 123.883 88.2647 123.883 87.216C123.883 87.0473 123.872 86.8457 123.85 86.611C123.835 86.3763 123.795 86.1417 123.729 85.907L124.004 86.116C123.931 86.4973 123.773 86.8237 123.531 87.095C123.296 87.359 123.003 87.5607 122.651 87.7C122.306 87.8393 121.921 87.909 121.496 87.909C120.99 87.909 120.539 87.8137 120.143 87.623C119.754 87.4323 119.45 87.1647 119.23 86.82C119.01 86.4753 118.9 86.0683 118.9 85.599C118.9 85.115 119.014 84.697 119.241 84.345C119.468 83.993 119.78 83.7217 120.176 83.531C120.579 83.333 121.03 83.234 121.529 83.234ZM121.562 83.905C121.195 83.905 120.869 83.9747 120.583 84.114C120.304 84.246 120.084 84.4367 119.923 84.686C119.762 84.9353 119.681 85.2323 119.681 85.577C119.681 86.083 119.853 86.4863 120.198 86.787C120.55 87.0877 121.023 87.238 121.617 87.238C122.013 87.238 122.358 87.1647 122.651 87.018C122.952 86.8713 123.183 86.6697 123.344 86.413C123.513 86.1563 123.597 85.8703 123.597 85.555C123.597 85.269 123.52 85.0013 123.366 84.752C123.212 84.5027 122.985 84.301 122.684 84.147C122.383 83.9857 122.009 83.905 121.562 83.905Z" fill="#636370"/>
<path d="M106.113 120.32V109.98H106.663V120.32H106.113ZM106.344 119.066C105.772 119.066 105.222 118.974 104.694 118.791C104.173 118.6 103.77 118.358 103.484 118.065L103.803 117.438C104.074 117.702 104.437 117.926 104.892 118.109C105.354 118.285 105.838 118.373 106.344 118.373C106.828 118.373 107.22 118.314 107.521 118.197C107.829 118.072 108.052 117.907 108.192 117.702C108.338 117.497 108.412 117.269 108.412 117.02C108.412 116.719 108.324 116.477 108.148 116.294C107.979 116.111 107.755 115.968 107.477 115.865C107.198 115.755 106.89 115.66 106.553 115.579C106.215 115.498 105.878 115.414 105.541 115.326C105.203 115.231 104.892 115.106 104.606 114.952C104.327 114.798 104.1 114.596 103.924 114.347C103.755 114.09 103.671 113.757 103.671 113.346C103.671 112.965 103.77 112.616 103.968 112.301C104.173 111.978 104.485 111.722 104.903 111.531C105.321 111.333 105.856 111.234 106.509 111.234C106.941 111.234 107.37 111.296 107.796 111.421C108.221 111.538 108.588 111.703 108.896 111.916L108.621 112.565C108.291 112.345 107.939 112.184 107.565 112.081C107.198 111.978 106.842 111.927 106.498 111.927C106.036 111.927 105.654 111.989 105.354 112.114C105.053 112.239 104.829 112.407 104.683 112.62C104.543 112.825 104.474 113.06 104.474 113.324C104.474 113.625 104.558 113.867 104.727 114.05C104.903 114.233 105.13 114.376 105.409 114.479C105.695 114.582 106.006 114.673 106.344 114.754C106.681 114.835 107.015 114.923 107.345 115.018C107.682 115.113 107.99 115.238 108.269 115.392C108.555 115.539 108.782 115.737 108.951 115.986C109.127 116.235 109.215 116.562 109.215 116.965C109.215 117.339 109.112 117.687 108.907 118.01C108.701 118.325 108.386 118.582 107.961 118.78C107.543 118.971 107.004 119.066 106.344 119.066ZM112.597 111.234C113.279 111.234 113.855 111.388 114.324 111.696C114.793 111.997 115.149 112.433 115.391 113.005C115.633 113.577 115.754 114.27 115.754 115.084C115.754 115.949 115.604 116.679 115.303 117.273C115.01 117.867 114.599 118.314 114.071 118.615C113.543 118.916 112.931 119.066 112.234 119.066C111.889 119.066 111.559 119.033 111.244 118.967C110.936 118.901 110.657 118.795 110.408 118.648L110.727 118.01C110.925 118.142 111.152 118.237 111.409 118.296C111.673 118.347 111.944 118.373 112.223 118.373C113.052 118.373 113.712 118.109 114.203 117.581C114.702 117.053 114.951 116.265 114.951 115.216C114.951 115.047 114.94 114.846 114.918 114.611C114.903 114.376 114.863 114.142 114.797 113.907L115.072 114.116C114.999 114.497 114.841 114.824 114.599 115.095C114.364 115.359 114.071 115.561 113.719 115.7C113.374 115.839 112.989 115.909 112.564 115.909C112.058 115.909 111.607 115.814 111.211 115.623C110.822 115.432 110.518 115.165 110.298 114.82C110.078 114.475 109.968 114.068 109.968 113.599C109.968 113.115 110.082 112.697 110.309 112.345C110.536 111.993 110.848 111.722 111.244 111.531C111.647 111.333 112.098 111.234 112.597 111.234ZM112.63 111.905C112.263 111.905 111.937 111.975 111.651 112.114C111.372 112.246 111.152 112.437 110.991 112.686C110.83 112.935 110.749 113.232 110.749 113.577C110.749 114.083 110.921 114.486 111.266 114.787C111.618 115.088 112.091 115.238 112.685 115.238C113.081 115.238 113.426 115.165 113.719 115.018C114.02 114.871 114.251 114.67 114.412 114.413C114.581 114.156 114.665 113.87 114.665 113.555C114.665 113.269 114.588 113.001 114.434 112.752C114.28 112.503 114.053 112.301 113.752 112.147C113.451 111.986 113.077 111.905 112.63 111.905ZM119.3 111.234C119.982 111.234 120.558 111.388 121.027 111.696C121.496 111.997 121.852 112.433 122.094 113.005C122.336 113.577 122.457 114.27 122.457 115.084C122.457 115.949 122.307 116.679 122.006 117.273C121.713 117.867 121.302 118.314 120.774 118.615C120.246 118.916 119.634 119.066 118.937 119.066C118.592 119.066 118.262 119.033 117.947 118.967C117.639 118.901 117.36 118.795 117.111 118.648L117.43 118.01C117.628 118.142 117.855 118.237 118.112 118.296C118.376 118.347 118.647 118.373 118.926 118.373C119.755 118.373 120.415 118.109 120.906 117.581C121.405 117.053 121.654 116.265 121.654 115.216C121.654 115.047 121.643 114.846 121.621 114.611C121.606 114.376 121.566 114.142 121.5 113.907L121.775 114.116C121.702 114.497 121.544 114.824 121.302 115.095C121.067 115.359 120.774 115.561 120.422 115.7C120.077 115.839 119.692 115.909 119.267 115.909C118.761 115.909 118.31 115.814 117.914 115.623C117.525 115.432 117.221 115.165 117.001 114.82C116.781 114.475 116.671 114.068 116.671 113.599C116.671 113.115 116.785 112.697 117.012 112.345C117.239 111.993 117.551 111.722 117.947 111.531C118.35 111.333 118.801 111.234 119.3 111.234ZM119.333 111.905C118.966 111.905 118.64 111.975 118.354 112.114C118.075 112.246 117.855 112.437 117.694 112.686C117.533 112.935 117.452 113.232 117.452 113.577C117.452 114.083 117.624 114.486 117.969 114.787C118.321 115.088 118.794 115.238 119.388 115.238C119.784 115.238 120.129 115.165 120.422 115.018C120.723 114.871 120.954 114.67 121.115 114.413C121.284 114.156 121.368 113.87 121.368 113.555C121.368 113.269 121.291 113.001 121.137 112.752C120.983 112.503 120.756 112.301 120.455 112.147C120.154 111.986 119.78 111.905 119.333 111.905Z" fill="#636370"/>
<path d="M106.349 176.32V165.98H106.899V176.32H106.349ZM106.58 175.066C106.008 175.066 105.458 174.974 104.93 174.791C104.409 174.6 104.006 174.358 103.72 174.065L104.039 173.438C104.31 173.702 104.673 173.926 105.128 174.109C105.59 174.285 106.074 174.373 106.58 174.373C107.064 174.373 107.456 174.314 107.757 174.197C108.065 174.072 108.289 173.907 108.428 173.702C108.575 173.497 108.648 173.269 108.648 173.02C108.648 172.719 108.56 172.477 108.384 172.294C108.215 172.111 107.992 171.968 107.713 171.865C107.434 171.755 107.126 171.66 106.789 171.579C106.452 171.498 106.114 171.414 105.777 171.326C105.44 171.231 105.128 171.106 104.842 170.952C104.563 170.798 104.336 170.596 104.16 170.347C103.991 170.09 103.907 169.757 103.907 169.346C103.907 168.965 104.006 168.616 104.204 168.301C104.409 167.978 104.721 167.722 105.139 167.531C105.557 167.333 106.092 167.234 106.745 167.234C107.178 167.234 107.607 167.296 108.032 167.421C108.457 167.538 108.824 167.703 109.132 167.916L108.857 168.565C108.527 168.345 108.175 168.184 107.801 168.081C107.434 167.978 107.079 167.927 106.734 167.927C106.272 167.927 105.891 167.989 105.59 168.114C105.289 168.239 105.066 168.407 104.919 168.62C104.78 168.825 104.71 169.06 104.71 169.324C104.71 169.625 104.794 169.867 104.963 170.05C105.139 170.233 105.366 170.376 105.645 170.479C105.931 170.582 106.243 170.673 106.58 170.754C106.917 170.835 107.251 170.923 107.581 171.018C107.918 171.113 108.226 171.238 108.505 171.392C108.791 171.539 109.018 171.737 109.187 171.986C109.363 172.235 109.451 172.562 109.451 172.965C109.451 173.339 109.348 173.687 109.143 174.01C108.938 174.325 108.622 174.582 108.197 174.78C107.779 174.971 107.24 175.066 106.58 175.066ZM112.756 175.066C112.198 175.066 111.67 174.978 111.172 174.802C110.68 174.619 110.284 174.377 109.984 174.076L110.369 173.449C110.618 173.706 110.952 173.918 111.37 174.087C111.795 174.256 112.257 174.34 112.756 174.34C113.394 174.34 113.881 174.201 114.219 173.922C114.563 173.643 114.736 173.269 114.736 172.8C114.736 172.331 114.567 171.957 114.23 171.678C113.9 171.399 113.375 171.26 112.657 171.26H112.107V170.677L114.483 167.696L114.593 168.004H110.303V167.3H115.253V167.861L112.877 170.842L112.492 170.589H112.789C113.713 170.589 114.402 170.794 114.857 171.205C115.319 171.616 115.55 172.144 115.55 172.789C115.55 173.222 115.447 173.61 115.242 173.955C115.036 174.3 114.725 174.571 114.307 174.769C113.896 174.967 113.379 175.066 112.756 175.066ZM119.064 167.234C119.746 167.234 120.321 167.388 120.791 167.696C121.26 167.997 121.616 168.433 121.858 169.005C122.1 169.577 122.221 170.27 122.221 171.084C122.221 171.949 122.07 172.679 121.77 173.273C121.476 173.867 121.066 174.314 120.538 174.615C120.01 174.916 119.397 175.066 118.701 175.066C118.356 175.066 118.026 175.033 117.711 174.967C117.403 174.901 117.124 174.795 116.875 174.648L117.194 174.01C117.392 174.142 117.619 174.237 117.876 174.296C118.14 174.347 118.411 174.373 118.69 174.373C119.518 174.373 120.178 174.109 120.67 173.581C121.168 173.053 121.418 172.265 121.418 171.216C121.418 171.047 121.407 170.846 121.385 170.611C121.37 170.376 121.33 170.142 121.264 169.907L121.539 170.116C121.465 170.497 121.308 170.824 121.066 171.095C120.831 171.359 120.538 171.561 120.186 171.7C119.841 171.839 119.456 171.909 119.031 171.909C118.525 171.909 118.074 171.814 117.678 171.623C117.289 171.432 116.985 171.165 116.765 170.82C116.545 170.475 116.435 170.068 116.435 169.599C116.435 169.115 116.548 168.697 116.776 168.345C117.003 167.993 117.315 167.722 117.711 167.531C118.114 167.333 118.565 167.234 119.064 167.234ZM119.097 167.905C118.73 167.905 118.404 167.975 118.118 168.114C117.839 168.246 117.619 168.437 117.458 168.686C117.296 168.935 117.216 169.232 117.216 169.577C117.216 170.083 117.388 170.486 117.733 170.787C118.085 171.088 118.558 171.238 119.152 171.238C119.548 171.238 119.892 171.165 120.186 171.018C120.486 170.871 120.717 170.67 120.879 170.413C121.047 170.156 121.132 169.87 121.132 169.555C121.132 169.269 121.055 169.001 120.901 168.752C120.747 168.503 120.519 168.301 120.219 168.147C119.918 167.986 119.544 167.905 119.097 167.905Z" fill="#636370"/>
<path d="M104.125 36.32V25.98H104.675V36.32H104.125ZM104.356 35.066C103.784 35.066 103.234 34.9743 102.706 34.791C102.186 34.6003 101.782 34.3583 101.496 34.065L101.815 33.438C102.087 33.702 102.45 33.9257 102.904 34.109C103.366 34.285 103.85 34.373 104.356 34.373C104.84 34.373 105.233 34.3143 105.533 34.197C105.841 34.0723 106.065 33.9073 106.204 33.702C106.351 33.4967 106.424 33.2693 106.424 33.02C106.424 32.7193 106.336 32.4773 106.16 32.294C105.992 32.1107 105.768 31.9677 105.489 31.865C105.211 31.755 104.903 31.6597 104.565 31.579C104.228 31.4983 103.891 31.414 103.553 31.326C103.216 31.2307 102.904 31.106 102.618 30.952C102.34 30.798 102.112 30.5963 101.936 30.347C101.768 30.0903 101.683 29.7567 101.683 29.346C101.683 28.9647 101.782 28.6163 101.98 28.301C102.186 27.9783 102.497 27.7217 102.915 27.531C103.333 27.333 103.869 27.234 104.521 27.234C104.954 27.234 105.383 27.2963 105.808 27.421C106.234 27.5383 106.6 27.7033 106.908 27.916L106.633 28.565C106.303 28.345 105.951 28.1837 105.577 28.081C105.211 27.9783 104.855 27.927 104.51 27.927C104.048 27.927 103.667 27.9893 103.366 28.114C103.066 28.2387 102.842 28.4073 102.695 28.62C102.556 28.8253 102.486 29.06 102.486 29.324C102.486 29.6247 102.571 29.8667 102.739 30.05C102.915 30.2333 103.143 30.3763 103.421 30.479C103.707 30.5817 104.019 30.6733 104.356 30.754C104.694 30.8347 105.027 30.9227 105.357 31.018C105.695 31.1133 106.003 31.238 106.281 31.392C106.567 31.5387 106.795 31.7367 106.963 31.986C107.139 32.2353 107.227 32.5617 107.227 32.965C107.227 33.339 107.125 33.6873 106.919 34.01C106.714 34.3253 106.399 34.582 105.973 34.78C105.555 34.9707 105.016 35.066 104.356 35.066ZM109.554 35V27.63L109.906 28.004H107.739V27.3H110.346V35H109.554ZM114.584 27.234C115.266 27.234 115.842 27.388 116.311 27.696C116.781 27.9967 117.136 28.433 117.378 29.005C117.62 29.577 117.741 30.27 117.741 31.084C117.741 31.9493 117.591 32.679 117.29 33.273C116.997 33.867 116.586 34.3143 116.058 34.615C115.53 34.9157 114.918 35.066 114.221 35.066C113.877 35.066 113.547 35.033 113.231 34.967C112.923 34.901 112.645 34.7947 112.395 34.648L112.714 34.01C112.912 34.142 113.14 34.2373 113.396 34.296C113.66 34.3473 113.932 34.373 114.21 34.373C115.039 34.373 115.699 34.109 116.19 33.581C116.689 33.053 116.938 32.2647 116.938 31.216C116.938 31.0473 116.927 30.8457 116.905 30.611C116.891 30.3763 116.85 30.1417 116.784 29.907L117.059 30.116C116.986 30.4973 116.828 30.8237 116.586 31.095C116.352 31.359 116.058 31.5607 115.706 31.7C115.362 31.8393 114.977 31.909 114.551 31.909C114.045 31.909 113.594 31.8137 113.198 31.623C112.81 31.4323 112.505 31.1647 112.285 30.82C112.065 30.4753 111.955 30.0683 111.955 29.599C111.955 29.115 112.069 28.697 112.296 28.345C112.524 27.993 112.835 27.7217 113.231 27.531C113.635 27.333 114.086 27.234 114.584 27.234ZM114.617 27.905C114.251 27.905 113.924 27.9747 113.638 28.114C113.36 28.246 113.14 28.4367 112.978 28.686C112.817 28.9353 112.736 29.2323 112.736 29.577C112.736 30.083 112.909 30.4863 113.253 30.787C113.605 31.0877 114.078 31.238 114.672 31.238C115.068 31.238 115.413 31.1647 115.706 31.018C116.007 30.8713 116.238 30.6697 116.399 30.413C116.568 30.1563 116.652 29.8703 116.652 29.555C116.652 29.269 116.575 29.0013 116.421 28.752C116.267 28.5027 116.04 28.301 115.739 28.147C115.439 27.9857 115.065 27.905 114.617 27.905ZM121.287 27.234C121.969 27.234 122.545 27.388 123.014 27.696C123.484 27.9967 123.839 28.433 124.081 29.005C124.323 29.577 124.444 30.27 124.444 31.084C124.444 31.9493 124.294 32.679 123.993 33.273C123.7 33.867 123.289 34.3143 122.761 34.615C122.233 34.9157 121.621 35.066 120.924 35.066C120.58 35.066 120.25 35.033 119.934 34.967C119.626 34.901 119.348 34.7947 119.098 34.648L119.417 34.01C119.615 34.142 119.843 34.2373 120.099 34.296C120.363 34.3473 120.635 34.373 120.913 34.373C121.742 34.373 122.402 34.109 122.893 33.581C123.392 33.053 123.641 32.2647 123.641 31.216C123.641 31.0473 123.63 30.8457 123.608 30.611C123.594 30.3763 123.553 30.1417 123.487 29.907L123.762 30.116C123.689 30.4973 123.531 30.8237 123.289 31.095C123.055 31.359 122.761 31.5607 122.409 31.7C122.065 31.8393 121.68 31.909 121.254 31.909C120.748 31.909 120.297 31.8137 119.901 31.623C119.513 31.4323 119.208 31.1647 118.988 30.82C118.768 30.4753 118.658 30.0683 118.658 29.599C118.658 29.115 118.772 28.697 118.999 28.345C119.227 27.993 119.538 27.7217 119.934 27.531C120.338 27.333 120.789 27.234 121.287 27.234ZM121.32 27.905C120.954 27.905 120.627 27.9747 120.341 28.114C120.063 28.246 119.843 28.4367 119.681 28.686C119.52 28.9353 119.439 29.2323 119.439 29.577C119.439 30.083 119.612 30.4863 119.956 30.787C120.308 31.0877 120.781 31.238 121.375 31.238C121.771 31.238 122.116 31.1647 122.409 31.018C122.71 30.8713 122.941 30.6697 123.102 30.413C123.271 30.1563 123.355 29.8703 123.355 29.555C123.355 29.269 123.278 29.0013 123.124 28.752C122.97 28.5027 122.743 28.301 122.442 28.147C122.142 27.9857 121.768 27.905 121.32 27.905Z" fill="#636370"/>
<path d="M151.433 36.32V25.98H151.983V36.32H151.433ZM151.664 35.066C151.092 35.066 150.542 34.9743 150.014 34.791C149.493 34.6003 149.09 34.3583 148.804 34.065L149.123 33.438C149.394 33.702 149.757 33.9257 150.212 34.109C150.674 34.285 151.158 34.373 151.664 34.373C152.148 34.373 152.54 34.3143 152.841 34.197C153.149 34.0723 153.372 33.9073 153.512 33.702C153.658 33.4967 153.732 33.2693 153.732 33.02C153.732 32.7193 153.644 32.4773 153.468 32.294C153.299 32.1107 153.075 31.9677 152.797 31.865C152.518 31.755 152.21 31.6597 151.873 31.579C151.535 31.4983 151.198 31.414 150.861 31.326C150.523 31.2307 150.212 31.106 149.926 30.952C149.647 30.798 149.42 30.5963 149.244 30.347C149.075 30.0903 148.991 29.7567 148.991 29.346C148.991 28.9647 149.09 28.6163 149.288 28.301C149.493 27.9783 149.805 27.7217 150.223 27.531C150.641 27.333 151.176 27.234 151.829 27.234C152.261 27.234 152.69 27.2963 153.116 27.421C153.541 27.5383 153.908 27.7033 154.216 27.916L153.941 28.565C153.611 28.345 153.259 28.1837 152.885 28.081C152.518 27.9783 152.162 27.927 151.818 27.927C151.356 27.927 150.974 27.9893 150.674 28.114C150.373 28.2387 150.149 28.4073 150.003 28.62C149.863 28.8253 149.794 29.06 149.794 29.324C149.794 29.6247 149.878 29.8667 150.047 30.05C150.223 30.2333 150.45 30.3763 150.729 30.479C151.015 30.5817 151.326 30.6733 151.664 30.754C152.001 30.8347 152.335 30.9227 152.665 31.018C153.002 31.1133 153.31 31.238 153.589 31.392C153.875 31.5387 154.102 31.7367 154.271 31.986C154.447 32.2353 154.535 32.5617 154.535 32.965C154.535 33.339 154.432 33.6873 154.227 34.01C154.021 34.3253 153.706 34.582 153.281 34.78C152.863 34.9707 152.324 35.066 151.664 35.066ZM155.483 35V34.439L158.684 31.304C158.978 31.018 159.198 30.7687 159.344 30.556C159.491 30.336 159.59 30.1307 159.641 29.94C159.693 29.7493 159.718 29.5697 159.718 29.401C159.718 28.9537 159.564 28.6017 159.256 28.345C158.956 28.0883 158.508 27.96 157.914 27.96C157.46 27.96 157.056 28.0297 156.704 28.169C156.36 28.3083 156.063 28.5247 155.813 28.818L155.252 28.334C155.553 27.982 155.938 27.7107 156.407 27.52C156.877 27.3293 157.401 27.234 157.98 27.234C158.501 27.234 158.952 27.3183 159.333 27.487C159.715 27.6483 160.008 27.8867 160.213 28.202C160.426 28.5173 160.532 28.8877 160.532 29.313C160.532 29.5623 160.496 29.808 160.422 30.05C160.356 30.292 160.232 30.5487 160.048 30.82C159.872 31.084 159.612 31.3847 159.267 31.722L156.33 34.604L156.11 34.296H160.884V35H155.483ZM164.309 35.066C163.759 35.066 163.235 34.978 162.736 34.802C162.237 34.6187 161.841 34.3767 161.548 34.076L161.933 33.449C162.175 33.7057 162.505 33.9183 162.923 34.087C163.348 34.2557 163.807 34.34 164.298 34.34C164.951 34.34 165.446 34.197 165.783 33.911C166.128 33.6177 166.3 33.2363 166.3 32.767C166.3 32.437 166.219 32.1547 166.058 31.92C165.904 31.678 165.64 31.491 165.266 31.359C164.892 31.227 164.379 31.161 163.726 31.161H162.087L162.483 27.3H166.696V28.004H162.802L163.209 27.619L162.868 30.853L162.461 30.457H163.902C164.679 30.457 165.303 30.5523 165.772 30.743C166.241 30.9337 166.579 31.2013 166.784 31.546C166.997 31.8833 167.103 32.2793 167.103 32.734C167.103 33.1667 167 33.5627 166.795 33.922C166.59 34.274 166.282 34.5527 165.871 34.758C165.46 34.9633 164.94 35.066 164.309 35.066ZM170.486 35.066C169.936 35.066 169.412 34.978 168.913 34.802C168.414 34.6187 168.018 34.3767 167.725 34.076L168.11 33.449C168.352 33.7057 168.682 33.9183 169.1 34.087C169.525 34.2557 169.984 34.34 170.475 34.34C171.128 34.34 171.623 34.197 171.96 33.911C172.305 33.6177 172.477 33.2363 172.477 32.767C172.477 32.437 172.396 32.1547 172.235 31.92C172.081 31.678 171.817 31.491 171.443 31.359C171.069 31.227 170.556 31.161 169.903 31.161H168.264L168.66 27.3H172.873V28.004H168.979L169.386 27.619L169.045 30.853L168.638 30.457H170.079C170.856 30.457 171.48 30.5523 171.949 30.743C172.418 30.9337 172.756 31.2013 172.961 31.546C173.174 31.8833 173.28 32.2793 173.28 32.734C173.28 33.1667 173.177 33.5627 172.972 33.922C172.767 34.274 172.459 34.5527 172.048 34.758C171.637 34.9633 171.117 35.066 170.486 35.066Z" fill="#636370"/>
</svg>
