<svg width="200" height="200" viewBox="0 0 200 200" fill="none" xmlns="http://www.w3.org/2000/svg">
<rect width="200" height="200" rx="15" fill="white"/>
<rect x="20" y="115" width="65" height="65" rx="15" fill="#F3F3FC"/>
<rect x="41" y="129" width="22" height="36" rx="4" fill="#E4E4EA" stroke="#AEAEBD" stroke-width="1.2"/>
<rect x="43" y="131" width="18" height="27" rx="2" fill="#E4E4EA" stroke="#AEAEBD" stroke-width="1.2"/>
<path d="M49.5 161.5H54.5" stroke="#AEAEBD" stroke-width="1.2" stroke-linecap="round" stroke-linejoin="round"/>
<rect x="56" y="106" width="33.8835" height="22.8195" rx="11.4098" fill="#FB4C67"/>
<path d="M63.2204 119.588V118.608L66.187 114.617H67.7152L64.8116 118.608L64.1014 118.402H69.0546V119.588H63.2204ZM66.6095 120.91V119.588L66.6544 118.402V117.224H68.0298V120.91H66.6095ZM71.4781 121.018C71.0407 121.018 70.6062 120.961 70.1747 120.847C69.7432 120.727 69.3776 120.559 69.078 120.343L69.6443 119.229C69.884 119.402 70.1627 119.54 70.4803 119.642C70.7979 119.744 71.1186 119.795 71.4422 119.795C71.8078 119.795 72.0954 119.723 72.3052 119.579C72.5149 119.435 72.6198 119.238 72.6198 118.986C72.6198 118.746 72.5269 118.557 72.3411 118.42C72.1554 118.282 71.8557 118.213 71.4422 118.213H70.777V117.251L72.5299 115.264L72.6917 115.786H69.3926V114.617H73.7974V115.561L72.0535 117.548L71.3163 117.125H71.7388C72.5119 117.125 73.0963 117.299 73.4918 117.646C73.8873 117.994 74.0851 118.441 74.0851 118.986C74.0851 119.34 73.9922 119.672 73.8064 119.984C73.6206 120.289 73.336 120.538 72.9524 120.73C72.5689 120.922 72.0774 121.018 71.4781 121.018ZM75.5776 120.91L79.8746 114.617H80.9444L76.6474 120.91H75.5776ZM76.126 118.015C75.8204 118.015 75.5507 117.946 75.3169 117.808C75.0832 117.664 74.8974 117.464 74.7596 117.206C74.6278 116.942 74.5618 116.634 74.5618 116.28C74.5618 115.926 74.6278 115.621 74.7596 115.363C74.8974 115.105 75.0832 114.905 75.3169 114.761C75.5507 114.617 75.8204 114.545 76.126 114.545C76.4316 114.545 76.7013 114.617 76.9351 114.761C77.1688 114.905 77.3516 115.105 77.4834 115.363C77.6153 115.621 77.6812 115.926 77.6812 116.28C77.6812 116.634 77.6153 116.942 77.4834 117.206C77.3516 117.464 77.1688 117.664 76.9351 117.808C76.7013 117.946 76.4316 118.015 76.126 118.015ZM76.126 117.278C76.3238 117.278 76.4826 117.197 76.6024 117.035C76.7223 116.867 76.7822 116.616 76.7822 116.28C76.7822 115.944 76.7223 115.696 76.6024 115.534C76.4826 115.366 76.3238 115.282 76.126 115.282C75.9342 115.282 75.7754 115.366 75.6496 115.534C75.5297 115.696 75.4698 115.944 75.4698 116.28C75.4698 116.61 75.5297 116.858 75.6496 117.026C75.7754 117.194 75.9342 117.278 76.126 117.278ZM80.396 120.982C80.0964 120.982 79.8267 120.913 79.587 120.775C79.3532 120.631 79.1704 120.43 79.0386 120.173C78.9068 119.909 78.8408 119.6 78.8408 119.247C78.8408 118.893 78.9068 118.587 79.0386 118.33C79.1704 118.072 79.3532 117.871 79.587 117.727C79.8267 117.584 80.0964 117.512 80.396 117.512C80.7077 117.512 80.9803 117.584 81.2141 117.727C81.4478 117.871 81.6306 118.072 81.7624 118.33C81.8943 118.587 81.9602 118.893 81.9602 119.247C81.9602 119.6 81.8943 119.909 81.7624 120.173C81.6306 120.43 81.4478 120.631 81.2141 120.775C80.9803 120.913 80.7077 120.982 80.396 120.982ZM80.396 120.244C80.5938 120.244 80.7526 120.164 80.8725 120.002C80.9923 119.834 81.0523 119.582 81.0523 119.247C81.0523 118.917 80.9923 118.668 80.8725 118.5C80.7526 118.333 80.5938 118.249 80.396 118.249C80.2042 118.249 80.0454 118.333 79.9196 118.5C79.7997 118.662 79.7398 118.911 79.7398 119.247C79.7398 119.582 79.7997 119.834 79.9196 120.002C80.0454 120.164 80.2042 120.244 80.396 120.244Z" fill="white"/>
<rect x="105" y="115" width="65" height="65" rx="15" fill="#F3F3FC"/>
<rect x="113" y="127" width="13" height="20" rx="4" fill="#E4E4EA" stroke="#AEAEBD" stroke-width="1.2"/>
<circle cx="119.5" cy="133.5" r="3.5" stroke="#AEAEBD" stroke-width="1.2"/>
<circle cx="119.5" cy="140.5" r="1.5" stroke="#AEAEBD" stroke-width="1.2"/>
<path d="M119.273 147V171M119.273 171H122M119.273 171H116" stroke="#AEAEBD" stroke-width="1.2" stroke-linecap="round" stroke-linejoin="round"/>
<rect x="150" y="127" width="13" height="20" rx="4" fill="#E4E4EA" stroke="#AEAEBD" stroke-width="1.2"/>
<circle cx="156.5" cy="133.5" r="3.5" stroke="#AEAEBD" stroke-width="1.2"/>
<circle cx="156.5" cy="140.5" r="1.5" stroke="#AEAEBD" stroke-width="1.2"/>
<path d="M156.273 147V171M156.273 171H159M156.273 171H153" stroke="#AEAEBD" stroke-width="1.2" stroke-linecap="round" stroke-linejoin="round"/>
<rect x="141" y="106" width="33.8835" height="22.8195" rx="11.4098" fill="#FFE6CA"/>
<path d="M151.106 121.018C150.531 121.018 150.03 120.898 149.605 120.658C149.185 120.418 148.862 120.068 148.634 119.606C148.406 119.145 148.292 118.575 148.292 117.898C148.292 117.173 148.427 116.559 148.697 116.055C148.973 115.552 149.35 115.168 149.83 114.905C150.315 114.641 150.872 114.509 151.502 114.509C151.837 114.509 152.158 114.545 152.463 114.617C152.769 114.689 153.033 114.797 153.255 114.941L152.715 116.01C152.541 115.891 152.356 115.81 152.158 115.768C151.96 115.72 151.753 115.696 151.538 115.696C150.992 115.696 150.561 115.861 150.243 116.19C149.925 116.52 149.767 117.008 149.767 117.655C149.767 117.763 149.767 117.883 149.767 118.015C149.773 118.147 149.791 118.279 149.821 118.411L149.416 118.033C149.53 117.799 149.677 117.605 149.857 117.449C150.036 117.287 150.249 117.167 150.495 117.089C150.746 117.005 151.022 116.963 151.322 116.963C151.729 116.963 152.095 117.044 152.419 117.206C152.742 117.368 153 117.596 153.192 117.889C153.389 118.183 153.488 118.527 153.488 118.923C153.488 119.348 153.38 119.72 153.165 120.038C152.955 120.349 152.67 120.592 152.311 120.766C151.957 120.934 151.556 121.018 151.106 121.018ZM151.025 119.93C151.229 119.93 151.409 119.894 151.565 119.822C151.726 119.744 151.852 119.633 151.942 119.489C152.032 119.345 152.077 119.181 152.077 118.995C152.077 118.707 151.978 118.48 151.78 118.312C151.589 118.138 151.331 118.051 151.007 118.051C150.791 118.051 150.603 118.093 150.441 118.177C150.279 118.255 150.15 118.366 150.054 118.509C149.964 118.647 149.919 118.809 149.919 118.995C149.919 119.175 149.964 119.337 150.054 119.48C150.144 119.618 150.27 119.729 150.432 119.813C150.594 119.891 150.791 119.93 151.025 119.93ZM156.623 121.018C156.096 121.018 155.634 120.94 155.239 120.784C154.843 120.622 154.535 120.397 154.313 120.11C154.091 119.816 153.98 119.474 153.98 119.085C153.98 118.695 154.088 118.366 154.304 118.096C154.526 117.82 154.834 117.614 155.23 117.476C155.625 117.332 156.09 117.26 156.623 117.26C157.162 117.26 157.63 117.332 158.025 117.476C158.427 117.614 158.736 117.82 158.951 118.096C159.173 118.366 159.284 118.695 159.284 119.085C159.284 119.474 159.173 119.816 158.951 120.11C158.73 120.397 158.418 120.622 158.016 120.784C157.621 120.94 157.156 121.018 156.623 121.018ZM156.623 119.948C156.989 119.948 157.276 119.867 157.486 119.705C157.702 119.543 157.81 119.322 157.81 119.04C157.81 118.758 157.702 118.539 157.486 118.384C157.276 118.222 156.989 118.141 156.623 118.141C156.264 118.141 155.979 118.222 155.769 118.384C155.559 118.539 155.454 118.758 155.454 119.04C155.454 119.322 155.559 119.543 155.769 119.705C155.979 119.867 156.264 119.948 156.623 119.948ZM156.623 117.997C156.138 117.997 155.712 117.931 155.347 117.799C154.987 117.667 154.705 117.476 154.502 117.224C154.304 116.966 154.205 116.661 154.205 116.307C154.205 115.935 154.307 115.618 154.511 115.354C154.714 115.084 154.999 114.878 155.365 114.734C155.73 114.584 156.15 114.509 156.623 114.509C157.109 114.509 157.531 114.584 157.891 114.734C158.256 114.878 158.541 115.084 158.745 115.354C158.954 115.618 159.059 115.935 159.059 116.307C159.059 116.661 158.957 116.966 158.754 117.224C158.556 117.476 158.274 117.667 157.909 117.799C157.543 117.931 157.115 117.997 156.623 117.997ZM156.623 117.143C156.929 117.143 157.168 117.074 157.342 116.936C157.522 116.798 157.612 116.61 157.612 116.37C157.612 116.118 157.519 115.923 157.333 115.786C157.153 115.648 156.917 115.579 156.623 115.579C156.335 115.579 156.102 115.648 155.922 115.786C155.742 115.923 155.652 116.118 155.652 116.37C155.652 116.61 155.739 116.798 155.913 116.936C156.087 117.074 156.323 117.143 156.623 117.143ZM160.771 120.91L165.068 114.617H166.138L161.841 120.91H160.771ZM161.319 118.015C161.013 118.015 160.744 117.946 160.51 117.808C160.276 117.664 160.091 117.464 159.953 117.206C159.821 116.942 159.755 116.634 159.755 116.28C159.755 115.926 159.821 115.621 159.953 115.363C160.091 115.105 160.276 114.905 160.51 114.761C160.744 114.617 161.013 114.545 161.319 114.545C161.625 114.545 161.894 114.617 162.128 114.761C162.362 114.905 162.545 115.105 162.677 115.363C162.808 115.621 162.874 115.926 162.874 116.28C162.874 116.634 162.808 116.942 162.677 117.206C162.545 117.464 162.362 117.664 162.128 117.808C161.894 117.946 161.625 118.015 161.319 118.015ZM161.319 117.278C161.517 117.278 161.676 117.197 161.796 117.035C161.915 116.867 161.975 116.616 161.975 116.28C161.975 115.944 161.915 115.696 161.796 115.534C161.676 115.366 161.517 115.282 161.319 115.282C161.127 115.282 160.969 115.366 160.843 115.534C160.723 115.696 160.663 115.944 160.663 116.28C160.663 116.61 160.723 116.858 160.843 117.026C160.969 117.194 161.127 117.278 161.319 117.278ZM165.589 120.982C165.29 120.982 165.02 120.913 164.78 120.775C164.546 120.631 164.364 120.43 164.232 120.173C164.1 119.909 164.034 119.6 164.034 119.247C164.034 118.893 164.1 118.587 164.232 118.33C164.364 118.072 164.546 117.871 164.78 117.727C165.02 117.584 165.29 117.512 165.589 117.512C165.901 117.512 166.173 117.584 166.407 117.727C166.641 117.871 166.824 118.072 166.956 118.33C167.087 118.587 167.153 118.893 167.153 119.247C167.153 119.6 167.087 119.909 166.956 120.173C166.824 120.43 166.641 120.631 166.407 120.775C166.173 120.913 165.901 120.982 165.589 120.982ZM165.589 120.244C165.787 120.244 165.946 120.164 166.066 120.002C166.185 119.834 166.245 119.582 166.245 119.247C166.245 118.917 166.185 118.668 166.066 118.5C165.946 118.333 165.787 118.249 165.589 118.249C165.397 118.249 165.239 118.333 165.113 118.5C164.993 118.662 164.933 118.911 164.933 119.247C164.933 119.582 164.993 119.834 165.113 120.002C165.239 120.164 165.397 120.244 165.589 120.244Z" fill="#F28100"/>
<rect x="126" y="150" width="23" height="21" rx="2" fill="#E4E4EA" stroke="#AEAEBD" stroke-width="1.2"/>
<rect x="126" y="150" width="23" height="8" rx="2" fill="#E4E4EA" stroke="#AEAEBD" stroke-width="1.2"/>
<rect x="128" y="154" width="9" height="2" rx="1" fill="#E4E4EA" stroke="#AEAEBD" stroke-width="1.2"/>
<circle cx="130.5" cy="162.5" r="1.5" stroke="#AEAEBD" stroke-width="1.2"/>
<circle cx="135.5" cy="162.5" r="1.5" stroke="#AEAEBD" stroke-width="1.2"/>
<rect x="20" y="30" width="65" height="65" rx="15" fill="#F3F3FC"/>
<path d="M34 74.1862L36.5098 69.833V50.7377C36.5098 49.778 37.2878 49 38.2474 49H65.8933C66.853 49 67.6309 49.778 67.6309 50.7377V69.833L70 74.1862V76H34V74.1862Z" fill="#E4E4EA"/>
<path d="M34 74.1862V76H70V74.1862M34 74.1862L36.5098 69.833M34 74.1862H70M70 74.1862L67.6309 69.833M36.5098 69.833V50.7377C36.5098 49.778 37.2878 49 38.2474 49H65.8933C66.853 49 67.6309 49.778 67.6309 50.7377V69.833M36.5098 69.833H67.6309" stroke="#AEAEBD" stroke-width="1.2" stroke-linejoin="round"/>
<rect x="56" y="21" width="33.8835" height="22.8195" rx="11.4098" fill="#80DA39"/>
<path d="M65.5038 29.5091C66.0851 29.5091 66.5855 29.629 67.005 29.8687C67.4245 30.1084 67.7482 30.459 67.9759 30.9205C68.2036 31.376 68.3175 31.9453 68.3175 32.6285C68.3175 33.3537 68.1797 33.9679 67.904 34.4713C67.6343 34.9748 67.2597 35.3583 66.7803 35.622C66.3009 35.8857 65.7435 36.0175 65.1082 36.0175C64.7786 36.0175 64.461 35.9816 64.1554 35.9097C63.8497 35.8378 63.586 35.7299 63.3643 35.586L63.9036 34.5163C64.0774 34.6362 64.2632 34.7201 64.461 34.768C64.6588 34.81 64.8655 34.8309 65.0813 34.8309C65.6206 34.8309 66.0491 34.6661 66.3668 34.3365C66.6904 34.0069 66.8522 33.5185 66.8522 32.8712C66.8522 32.7633 66.8492 32.6435 66.8432 32.5116C66.8372 32.3798 66.8222 32.2479 66.7983 32.1161L67.1938 32.4937C67.0919 32.7274 66.9481 32.9252 66.7623 33.087C66.5765 33.2428 66.3608 33.3626 66.1151 33.4465C65.8694 33.5245 65.5937 33.5634 65.288 33.5634C64.8865 33.5634 64.5209 33.4825 64.1913 33.3207C63.8677 33.1589 63.607 32.9311 63.4092 32.6375C63.2175 32.3438 63.1216 31.9992 63.1216 31.6037C63.1216 31.1722 63.2264 30.8006 63.4362 30.489C63.6519 30.1774 63.9396 29.9376 64.2992 29.7698C64.6648 29.596 65.0663 29.5091 65.5038 29.5091ZM65.5937 30.5969C65.3839 30.5969 65.2011 30.6358 65.0453 30.7137C64.8895 30.7857 64.7666 30.8935 64.6767 31.0374C64.5869 31.1752 64.5419 31.34 64.5419 31.5318C64.5419 31.8194 64.6378 32.0502 64.8296 32.224C65.0273 32.3918 65.288 32.4757 65.6117 32.4757C65.8214 32.4757 66.0072 32.4367 66.169 32.3588C66.3368 32.2749 66.4657 32.161 66.5556 32.0172C66.6454 31.8734 66.6904 31.7116 66.6904 31.5318C66.6904 31.352 66.6454 31.1932 66.5556 31.0553C66.4717 30.9115 66.3488 30.8006 66.187 30.7227C66.0252 30.6388 65.8274 30.5969 65.5937 30.5969ZM71.713 36.0175C71.1976 36.0175 70.7361 35.8917 70.3286 35.64C69.9211 35.3823 69.6005 35.0107 69.3667 34.5253C69.133 34.0399 69.0161 33.4525 69.0161 32.7633C69.0161 32.0741 69.133 31.4868 69.3667 31.0014C69.6005 30.516 69.9211 30.1474 70.3286 29.8957C70.7361 29.638 71.1976 29.5091 71.713 29.5091C72.2344 29.5091 72.6959 29.638 73.0974 29.8957C73.5049 30.1474 73.8255 30.516 74.0593 31.0014C74.293 31.4868 74.4099 32.0741 74.4099 32.7633C74.4099 33.4525 74.293 34.0399 74.0593 34.5253C73.8255 35.0107 73.5049 35.3823 73.0974 35.64C72.6959 35.8917 72.2344 36.0175 71.713 36.0175ZM71.713 34.786C71.9587 34.786 72.1715 34.7171 72.3513 34.5792C72.537 34.4414 72.6809 34.2226 72.7828 33.923C72.8906 33.6233 72.9446 33.2368 72.9446 32.7633C72.9446 32.2899 72.8906 31.9033 72.7828 31.6037C72.6809 31.304 72.537 31.0853 72.3513 30.9475C72.1715 30.8096 71.9587 30.7407 71.713 30.7407C71.4733 30.7407 71.2605 30.8096 71.0747 30.9475C70.895 31.0853 70.7511 31.304 70.6432 31.6037C70.5414 31.9033 70.4904 32.2899 70.4904 32.7633C70.4904 33.2368 70.5414 33.6233 70.6432 33.923C70.7511 34.2226 70.895 34.4414 71.0747 34.5792C71.2605 34.7171 71.4733 34.786 71.713 34.786ZM76.0254 35.9097L80.3223 29.617H81.3921L77.0951 35.9097H76.0254ZM76.5737 33.015C76.2681 33.015 75.9984 32.9461 75.7647 32.8083C75.5309 32.6645 75.3452 32.4637 75.2073 32.206C75.0755 31.9423 75.0095 31.6337 75.0095 31.2801C75.0095 30.9265 75.0755 30.6208 75.2073 30.3631C75.3452 30.1054 75.5309 29.9047 75.7647 29.7608C75.9984 29.617 76.2681 29.5451 76.5737 29.5451C76.8794 29.5451 77.1491 29.617 77.3828 29.7608C77.6165 29.9047 77.7993 30.1054 77.9311 30.3631C78.063 30.6208 78.1289 30.9265 78.1289 31.2801C78.1289 31.6337 78.063 31.9423 77.9311 32.206C77.7993 32.4637 77.6165 32.6645 77.3828 32.8083C77.1491 32.9461 76.8794 33.015 76.5737 33.015ZM76.5737 32.2779C76.7715 32.2779 76.9303 32.197 77.0502 32.0352C77.17 31.8674 77.23 31.6157 77.23 31.2801C77.23 30.9445 77.17 30.6958 77.0502 30.5339C76.9303 30.3661 76.7715 30.2822 76.5737 30.2822C76.3819 30.2822 76.2231 30.3661 76.0973 30.5339C75.9774 30.6958 75.9175 30.9445 75.9175 31.2801C75.9175 31.6097 75.9774 31.8584 76.0973 32.0262C76.2231 32.194 76.3819 32.2779 76.5737 32.2779ZM80.8437 35.9816C80.5441 35.9816 80.2744 35.9127 80.0347 35.7748C79.801 35.631 79.6182 35.4302 79.4863 35.1725C79.3545 34.9088 79.2886 34.6002 79.2886 34.2466C79.2886 33.893 79.3545 33.5874 79.4863 33.3297C79.6182 33.072 79.801 32.8712 80.0347 32.7274C80.2744 32.5836 80.5441 32.5116 80.8437 32.5116C81.1554 32.5116 81.4281 32.5836 81.6618 32.7274C81.8955 32.8712 82.0783 33.072 82.2101 33.3297C82.342 33.5874 82.4079 33.893 82.4079 34.2466C82.4079 34.6002 82.342 34.9088 82.2101 35.1725C82.0783 35.4302 81.8955 35.631 81.6618 35.7748C81.4281 35.9127 81.1554 35.9816 80.8437 35.9816ZM80.8437 35.2444C81.0415 35.2444 81.2003 35.1635 81.3202 35.0017C81.44 34.8339 81.5 34.5822 81.5 34.2466C81.5 33.917 81.44 33.6683 81.3202 33.5005C81.2003 33.3327 81.0415 33.2488 80.8437 33.2488C80.652 33.2488 80.4931 33.3327 80.3673 33.5005C80.2474 33.6623 80.1875 33.911 80.1875 34.2466C80.1875 34.5822 80.2474 34.8339 80.3673 35.0017C80.4931 35.1635 80.652 35.2444 80.8437 35.2444Z" fill="white"/>
<rect x="105" y="30" width="65" height="65" rx="15" fill="#F3F3FC"/>
<rect x="141" y="21" width="33.8835" height="22.8195" rx="11.4098" fill="#FFE6CA"/>
<path d="M149.299 35.9097L151.834 30.1744L152.212 30.8036H148.823L149.47 30.1204V31.8284H148.175V29.617H153.219V30.5609L150.881 35.9097H149.299ZM156.078 29.5091C156.66 29.5091 157.16 29.629 157.58 29.8687C157.999 30.1084 158.323 30.459 158.55 30.9205C158.778 31.376 158.892 31.9453 158.892 32.6285C158.892 33.3537 158.754 33.9679 158.479 34.4713C158.209 34.9748 157.834 35.3583 157.355 35.622C156.875 35.8857 156.318 36.0175 155.683 36.0175C155.353 36.0175 155.036 35.9816 154.73 35.9097C154.424 35.8378 154.161 35.7299 153.939 35.586L154.478 34.5163C154.652 34.6362 154.838 34.7201 155.036 34.768C155.233 34.81 155.44 34.8309 155.656 34.8309C156.195 34.8309 156.624 34.6661 156.941 34.3365C157.265 34.0069 157.427 33.5185 157.427 32.8712C157.427 32.7633 157.424 32.6435 157.418 32.5116C157.412 32.3798 157.397 32.2479 157.373 32.1161L157.768 32.4937C157.666 32.7274 157.523 32.9252 157.337 33.087C157.151 33.2428 156.935 33.3626 156.69 33.4465C156.444 33.5245 156.168 33.5634 155.863 33.5634C155.461 33.5634 155.095 33.4825 154.766 33.3207C154.442 33.1589 154.182 32.9311 153.984 32.6375C153.792 32.3438 153.696 31.9992 153.696 31.6037C153.696 31.1722 153.801 30.8006 154.011 30.489C154.226 30.1774 154.514 29.9376 154.874 29.7698C155.239 29.596 155.641 29.5091 156.078 29.5091ZM156.168 30.5969C155.958 30.5969 155.776 30.6358 155.62 30.7137C155.464 30.7857 155.341 30.8935 155.251 31.0374C155.161 31.1752 155.116 31.34 155.116 31.5318C155.116 31.8194 155.212 32.0502 155.404 32.224C155.602 32.3918 155.863 32.4757 156.186 32.4757C156.396 32.4757 156.582 32.4367 156.744 32.3588C156.911 32.2749 157.04 32.161 157.13 32.0172C157.22 31.8734 157.265 31.7116 157.265 31.5318C157.265 31.352 157.22 31.1932 157.13 31.0553C157.046 30.9115 156.923 30.8006 156.762 30.7227C156.6 30.6388 156.402 30.5969 156.168 30.5969ZM160.499 35.9097L164.796 29.617H165.865L161.568 35.9097H160.499ZM161.047 33.015C160.741 33.015 160.472 32.9461 160.238 32.8083C160.004 32.6645 159.818 32.4637 159.681 32.206C159.549 31.9423 159.483 31.6337 159.483 31.2801C159.483 30.9265 159.549 30.6208 159.681 30.3631C159.818 30.1054 160.004 29.9047 160.238 29.7608C160.472 29.617 160.741 29.5451 161.047 29.5451C161.353 29.5451 161.622 29.617 161.856 29.7608C162.09 29.9047 162.273 30.1054 162.404 30.3631C162.536 30.6208 162.602 30.9265 162.602 31.2801C162.602 31.6337 162.536 31.9423 162.404 32.206C162.273 32.4637 162.09 32.6645 161.856 32.8083C161.622 32.9461 161.353 33.015 161.047 33.015ZM161.047 32.2779C161.245 32.2779 161.404 32.197 161.523 32.0352C161.643 31.8674 161.703 31.6157 161.703 31.2801C161.703 30.9445 161.643 30.6958 161.523 30.5339C161.404 30.3661 161.245 30.2822 161.047 30.2822C160.855 30.2822 160.696 30.3661 160.571 30.5339C160.451 30.6958 160.391 30.9445 160.391 31.2801C160.391 31.6097 160.451 31.8584 160.571 32.0262C160.696 32.194 160.855 32.2779 161.047 32.2779ZM165.317 35.9816C165.017 35.9816 164.748 35.9127 164.508 35.7748C164.274 35.631 164.091 35.4302 163.96 35.1725C163.828 34.9088 163.762 34.6002 163.762 34.2466C163.762 33.893 163.828 33.5874 163.96 33.3297C164.091 33.072 164.274 32.8712 164.508 32.7274C164.748 32.5836 165.017 32.5116 165.317 32.5116C165.629 32.5116 165.901 32.5836 166.135 32.7274C166.369 32.8712 166.552 33.072 166.683 33.3297C166.815 33.5874 166.881 33.893 166.881 34.2466C166.881 34.6002 166.815 34.9088 166.683 35.1725C166.552 35.4302 166.369 35.631 166.135 35.7748C165.901 35.9127 165.629 35.9816 165.317 35.9816ZM165.317 35.2444C165.515 35.2444 165.674 35.1635 165.793 35.0017C165.913 34.8339 165.973 34.5822 165.973 34.2466C165.973 33.917 165.913 33.6683 165.793 33.5005C165.674 33.3327 165.515 33.2488 165.317 33.2488C165.125 33.2488 164.966 33.3327 164.841 33.5005C164.721 33.6623 164.661 33.911 164.661 34.2466C164.661 34.5822 164.721 34.8339 164.841 35.0017C164.966 35.1635 165.125 35.2444 165.317 35.2444Z" fill="#F28100"/>
<rect x="123" y="43" width="29" height="38" rx="4" fill="#E4E4EA" stroke="#AEAEBD" stroke-width="1.2"/>
<path d="M123 47C123 44.7909 124.791 43 127 43H148C150.209 43 152 44.7909 152 47V51C152 52.1046 151.105 53 150 53H125C123.895 53 123 52.1046 123 51V47Z" fill="#E4E4EA" stroke="#AEAEBD" stroke-width="1.2"/>
<path d="M126 48C126 46.8954 126.895 46 128 46H134C135.105 46 136 46.8954 136 48V48C136 49.1046 135.105 50 134 50H128C126.895 50 126 49.1046 126 48V48Z" fill="#E4E4EA" stroke="#AEAEBD" stroke-width="1.2"/>
<path d="M141 48.5C141 47.6716 141.672 47 142.5 47V47C143.328 47 144 47.6716 144 48.5V48.5C144 49.3284 143.328 50 142.5 50V50C141.672 50 141 49.3284 141 48.5V48.5Z" fill="#E4E4EA" stroke="#AEAEBD" stroke-width="1.2"/>
<path d="M146 48.5C146 47.6716 146.672 47 147.5 47V47C148.328 47 149 47.6716 149 48.5V48.5C149 49.3284 148.328 50 147.5 50V50C146.672 50 146 49.3284 146 48.5V48.5Z" fill="#E4E4EA" stroke="#AEAEBD" stroke-width="1.2"/>
<circle cx="137.5" cy="66.5" r="9.9" stroke="#AEAEBD" stroke-width="1.2"/>
</svg>
