<svg width="200" height="200" viewBox="0 0 200 200" fill="none" xmlns="http://www.w3.org/2000/svg">
<rect width="200" height="200" rx="15" fill="white"/>
<g clip-path="url(#clip0_184_210)">
<rect x="37" y="37" width="126" height="126" rx="5" fill="white"/>
<rect x="36.4" y="36.4" width="81.2" height="92.2" fill="#0FA7F0" fill-opacity="0.04" stroke="#DDDDE6" stroke-width="1.2"/>
<rect x="0.6" y="-0.6" width="46.2" height="92.2" transform="matrix(-1 0 0 1 164.2 37)" fill="#F2E800" fill-opacity="0.1" stroke="#DDDDE6" stroke-width="1.2"/>
<rect x="-0.6" y="0.6" width="81.2" height="35.2" transform="matrix(1 0 0 -1 37 164.2)" fill="#FFD7D7" stroke="#DDDDE6" stroke-width="1.2"/>
<rect x="163.6" y="163.6" width="46.2" height="35.2" transform="rotate(-180 163.6 163.6)" fill="#B4B4B4" fill-opacity="0.1" stroke="#DDDDE6" stroke-width="1.2"/>
<path d="M51.762 149.072C51.282 149.072 50.838 148.994 50.43 148.838C50.028 148.676 49.677 148.451 49.377 148.163C49.083 147.869 48.852 147.527 48.684 147.137C48.516 146.747 48.432 146.318 48.432 145.85C48.432 145.382 48.516 144.953 48.684 144.563C48.852 144.173 49.086 143.834 49.386 143.546C49.686 143.252 50.037 143.027 50.439 142.871C50.847 142.709 51.291 142.628 51.771 142.628C52.257 142.628 52.704 142.712 53.112 142.88C53.526 143.042 53.877 143.285 54.165 143.609L53.58 144.176C53.34 143.924 53.07 143.738 52.77 143.618C52.47 143.492 52.149 143.429 51.807 143.429C51.453 143.429 51.123 143.489 50.817 143.609C50.517 143.729 50.256 143.897 50.034 144.113C49.812 144.329 49.638 144.587 49.512 144.887C49.392 145.181 49.332 145.502 49.332 145.85C49.332 146.198 49.392 146.522 49.512 146.822C49.638 147.116 49.812 147.371 50.034 147.587C50.256 147.803 50.517 147.971 50.817 148.091C51.123 148.211 51.453 148.271 51.807 148.271C52.149 148.271 52.47 148.211 52.77 148.091C53.07 147.965 53.34 147.773 53.58 147.515L54.165 148.082C53.877 148.406 53.526 148.652 53.112 148.82C52.704 148.988 52.254 149.072 51.762 149.072ZM57.1638 149.054C56.6838 149.054 56.2578 148.949 55.8858 148.739C55.5138 148.529 55.2198 148.241 55.0038 147.875C54.7878 147.503 54.6798 147.083 54.6798 146.615C54.6798 146.141 54.7878 145.721 55.0038 145.355C55.2198 144.989 55.5138 144.704 55.8858 144.5C56.2578 144.29 56.6838 144.185 57.1638 144.185C57.6378 144.185 58.0608 144.29 58.4328 144.5C58.8108 144.704 59.1048 144.989 59.3148 145.355C59.5308 145.715 59.6388 146.135 59.6388 146.615C59.6388 147.089 59.5308 147.509 59.3148 147.875C59.1048 148.241 58.8108 148.529 58.4328 148.739C58.0608 148.949 57.6378 149.054 57.1638 149.054ZM57.1638 148.298C57.4698 148.298 57.7428 148.229 57.9828 148.091C58.2288 147.953 58.4208 147.758 58.5588 147.506C58.6968 147.248 58.7658 146.951 58.7658 146.615C58.7658 146.273 58.6968 145.979 58.5588 145.733C58.4208 145.481 58.2288 145.286 57.9828 145.148C57.7428 145.01 57.4698 144.941 57.1638 144.941C56.8578 144.941 56.5848 145.01 56.3448 145.148C56.1048 145.286 55.9128 145.481 55.7688 145.733C55.6248 145.979 55.5528 146.273 55.5528 146.615C55.5528 146.951 55.6248 147.248 55.7688 147.506C55.9128 147.758 56.1048 147.953 56.3448 148.091C56.5848 148.229 56.8578 148.298 57.1638 148.298ZM66.8006 144.185C67.1846 144.185 67.5236 144.26 67.8176 144.41C68.1116 144.56 68.3396 144.788 68.5016 145.094C68.6696 145.4 68.7536 145.787 68.7536 146.255V149H67.8896V146.354C67.8896 145.892 67.7816 145.544 67.5656 145.31C67.3496 145.076 67.0466 144.959 66.6566 144.959C66.3686 144.959 66.1166 145.019 65.9006 145.139C65.6846 145.259 65.5166 145.436 65.3966 145.67C65.2826 145.904 65.2256 146.195 65.2256 146.543V149H64.3616V146.354C64.3616 145.892 64.2536 145.544 64.0376 145.31C63.8276 145.076 63.5246 144.959 63.1286 144.959C62.8466 144.959 62.5976 145.019 62.3816 145.139C62.1656 145.259 61.9976 145.436 61.8776 145.67C61.7576 145.904 61.6976 146.195 61.6976 146.543V149H60.8336V144.23H61.6616V145.499L61.5266 145.175C61.6766 144.863 61.9076 144.62 62.2196 144.446C62.5316 144.272 62.8946 144.185 63.3086 144.185C63.7646 144.185 64.1576 144.299 64.4876 144.527C64.8176 144.749 65.0336 145.088 65.1356 145.544L64.7846 145.4C64.9286 145.034 65.1806 144.74 65.5406 144.518C65.9006 144.296 66.3206 144.185 66.8006 144.185ZM72.8724 149.054C72.4764 149.054 72.1134 148.964 71.7834 148.784C71.4594 148.598 71.1984 148.325 71.0004 147.965C70.8084 147.605 70.7124 147.155 70.7124 146.615C70.7124 146.075 70.8054 145.625 70.9914 145.265C71.1834 144.905 71.4414 144.635 71.7654 144.455C72.0954 144.275 72.4644 144.185 72.8724 144.185C73.3404 144.185 73.7544 144.287 74.1144 144.491C74.4744 144.695 74.7594 144.98 74.9694 145.346C75.1794 145.706 75.2844 146.129 75.2844 146.615C75.2844 147.101 75.1794 147.527 74.9694 147.893C74.7594 148.259 74.4744 148.544 74.1144 148.748C73.7544 148.952 73.3404 149.054 72.8724 149.054ZM70.3434 150.746V144.23H71.1714V145.517L71.1174 146.624L71.2074 147.731V150.746H70.3434ZM72.8004 148.298C73.1064 148.298 73.3794 148.229 73.6194 148.091C73.8654 147.953 74.0574 147.758 74.1954 147.506C74.3394 147.248 74.4114 146.951 74.4114 146.615C74.4114 146.273 74.3394 145.979 74.1954 145.733C74.0574 145.481 73.8654 145.286 73.6194 145.148C73.3794 145.01 73.1064 144.941 72.8004 144.941C72.5004 144.941 72.2274 145.01 71.9814 145.148C71.7414 145.286 71.5494 145.481 71.4054 145.733C71.2674 145.979 71.1984 146.273 71.1984 146.615C71.1984 146.951 71.2674 147.248 71.4054 147.506C71.5494 147.758 71.7414 147.953 71.9814 148.091C72.2274 148.229 72.5004 148.298 72.8004 148.298ZM78.6022 149.054C78.0922 149.054 77.6422 148.949 77.2522 148.739C76.8682 148.529 76.5682 148.241 76.3522 147.875C76.1422 147.509 76.0372 147.089 76.0372 146.615C76.0372 146.141 76.1392 145.721 76.3432 145.355C76.5532 144.989 76.8382 144.704 77.1982 144.5C77.5642 144.29 77.9752 144.185 78.4312 144.185C78.8932 144.185 79.3012 144.287 79.6552 144.491C80.0092 144.695 80.2852 144.983 80.4832 145.355C80.6872 145.721 80.7892 146.15 80.7892 146.642C80.7892 146.678 80.7862 146.72 80.7802 146.768C80.7802 146.816 80.7772 146.861 80.7712 146.903H76.7122V146.282H80.3212L79.9702 146.498C79.9762 146.192 79.9132 145.919 79.7812 145.679C79.6492 145.439 79.4662 145.253 79.2322 145.121C79.0042 144.983 78.7372 144.914 78.4312 144.914C78.1312 144.914 77.8642 144.983 77.6302 145.121C77.3962 145.253 77.2132 145.442 77.0812 145.688C76.9492 145.928 76.8832 146.204 76.8832 146.516V146.66C76.8832 146.978 76.9552 147.263 77.0992 147.515C77.2492 147.761 77.4562 147.953 77.7202 148.091C77.9842 148.229 78.2872 148.298 78.6292 148.298C78.9112 148.298 79.1662 148.25 79.3942 148.154C79.6282 148.058 79.8322 147.914 80.0062 147.722L80.4832 148.28C80.2672 148.532 79.9972 148.724 79.6732 148.856C79.3552 148.988 78.9982 149.054 78.6022 149.054ZM83.6269 149.054C83.1469 149.054 82.7749 148.925 82.5109 148.667C82.2469 148.409 82.1149 148.04 82.1149 147.56V143.186H82.9789V147.524C82.9789 147.782 83.0419 147.98 83.1679 148.118C83.2999 148.256 83.4859 148.325 83.7259 148.325C83.9959 148.325 84.2209 148.25 84.4009 148.1L84.6709 148.721C84.5389 148.835 84.3799 148.919 84.1939 148.973C84.0139 149.027 83.8249 149.054 83.6269 149.054ZM81.3049 144.941V144.23H84.3469V144.941H81.3049ZM85.7155 149V144.23H86.5795V149H85.7155ZM86.1475 143.312C85.9795 143.312 85.8385 143.258 85.7245 143.15C85.6165 143.042 85.5625 142.91 85.5625 142.754C85.5625 142.592 85.6165 142.457 85.7245 142.349C85.8385 142.241 85.9795 142.187 86.1475 142.187C86.3155 142.187 86.4535 142.241 86.5615 142.349C86.6755 142.451 86.7325 142.58 86.7325 142.736C86.7325 142.898 86.6785 143.036 86.5705 143.15C86.4625 143.258 86.3215 143.312 86.1475 143.312ZM89.8672 149.054C89.3872 149.054 89.0152 148.925 88.7512 148.667C88.4872 148.409 88.3552 148.04 88.3552 147.56V143.186H89.2192V147.524C89.2192 147.782 89.2822 147.98 89.4082 148.118C89.5402 148.256 89.7262 148.325 89.9662 148.325C90.2362 148.325 90.4612 148.25 90.6412 148.1L90.9112 148.721C90.7792 148.835 90.6202 148.919 90.4342 148.973C90.2542 149.027 90.0652 149.054 89.8672 149.054ZM87.5452 144.941V144.23H90.5872V144.941H87.5452ZM93.8405 149.054C93.3605 149.054 92.9345 148.949 92.5625 148.739C92.1905 148.529 91.8965 148.241 91.6805 147.875C91.4645 147.503 91.3565 147.083 91.3565 146.615C91.3565 146.141 91.4645 145.721 91.6805 145.355C91.8965 144.989 92.1905 144.704 92.5625 144.5C92.9345 144.29 93.3605 144.185 93.8405 144.185C94.3145 144.185 94.7375 144.29 95.1095 144.5C95.4875 144.704 95.7815 144.989 95.9915 145.355C96.2075 145.715 96.3155 146.135 96.3155 146.615C96.3155 147.089 96.2075 147.509 95.9915 147.875C95.7815 148.241 95.4875 148.529 95.1095 148.739C94.7375 148.949 94.3145 149.054 93.8405 149.054ZM93.8405 148.298C94.1465 148.298 94.4195 148.229 94.6595 148.091C94.9055 147.953 95.0975 147.758 95.2355 147.506C95.3735 147.248 95.4425 146.951 95.4425 146.615C95.4425 146.273 95.3735 145.979 95.2355 145.733C95.0975 145.481 94.9055 145.286 94.6595 145.148C94.4195 145.01 94.1465 144.941 93.8405 144.941C93.5345 144.941 93.2615 145.01 93.0215 145.148C92.7815 145.286 92.5895 145.481 92.4455 145.733C92.3015 145.979 92.2295 146.273 92.2295 146.615C92.2295 146.951 92.3015 147.248 92.4455 147.506C92.5895 147.758 92.7815 147.953 93.0215 148.091C93.2615 148.229 93.5345 148.298 93.8405 148.298ZM97.5104 149V144.23H98.3384V145.526L98.2574 145.202C98.3894 144.872 98.6114 144.62 98.9234 144.446C99.2354 144.272 99.6194 144.185 100.075 144.185V145.022C100.039 145.016 100.003 145.013 99.9674 145.013C99.9374 145.013 99.9074 145.013 99.8774 145.013C99.4154 145.013 99.0494 145.151 98.7794 145.427C98.5094 145.703 98.3744 146.102 98.3744 146.624V149H97.5104ZM104.294 149V143.06L104.681 143.483H102.872V142.7H105.185V149H104.294Z" fill="#BA2E2E"/>
<path d="M51.762 116.072C51.282 116.072 50.838 115.994 50.43 115.838C50.028 115.676 49.677 115.451 49.377 115.163C49.083 114.869 48.852 114.527 48.684 114.137C48.516 113.747 48.432 113.318 48.432 112.85C48.432 112.382 48.516 111.953 48.684 111.563C48.852 111.173 49.086 110.834 49.386 110.546C49.686 110.252 50.037 110.027 50.439 109.871C50.847 109.709 51.291 109.628 51.771 109.628C52.257 109.628 52.704 109.712 53.112 109.88C53.526 110.042 53.877 110.285 54.165 110.609L53.58 111.176C53.34 110.924 53.07 110.738 52.77 110.618C52.47 110.492 52.149 110.429 51.807 110.429C51.453 110.429 51.123 110.489 50.817 110.609C50.517 110.729 50.256 110.897 50.034 111.113C49.812 111.329 49.638 111.587 49.512 111.887C49.392 112.181 49.332 112.502 49.332 112.85C49.332 113.198 49.392 113.522 49.512 113.822C49.638 114.116 49.812 114.371 50.034 114.587C50.256 114.803 50.517 114.971 50.817 115.091C51.123 115.211 51.453 115.271 51.807 115.271C52.149 115.271 52.47 115.211 52.77 115.091C53.07 114.965 53.34 114.773 53.58 114.515L54.165 115.082C53.877 115.406 53.526 115.652 53.112 115.82C52.704 115.988 52.254 116.072 51.762 116.072ZM57.1638 116.054C56.6838 116.054 56.2578 115.949 55.8858 115.739C55.5138 115.529 55.2198 115.241 55.0038 114.875C54.7878 114.503 54.6798 114.083 54.6798 113.615C54.6798 113.141 54.7878 112.721 55.0038 112.355C55.2198 111.989 55.5138 111.704 55.8858 111.5C56.2578 111.29 56.6838 111.185 57.1638 111.185C57.6378 111.185 58.0608 111.29 58.4328 111.5C58.8108 111.704 59.1048 111.989 59.3148 112.355C59.5308 112.715 59.6388 113.135 59.6388 113.615C59.6388 114.089 59.5308 114.509 59.3148 114.875C59.1048 115.241 58.8108 115.529 58.4328 115.739C58.0608 115.949 57.6378 116.054 57.1638 116.054ZM57.1638 115.298C57.4698 115.298 57.7428 115.229 57.9828 115.091C58.2288 114.953 58.4208 114.758 58.5588 114.506C58.6968 114.248 58.7658 113.951 58.7658 113.615C58.7658 113.273 58.6968 112.979 58.5588 112.733C58.4208 112.481 58.2288 112.286 57.9828 112.148C57.7428 112.01 57.4698 111.941 57.1638 111.941C56.8578 111.941 56.5848 112.01 56.3448 112.148C56.1048 112.286 55.9128 112.481 55.7688 112.733C55.6248 112.979 55.5528 113.273 55.5528 113.615C55.5528 113.951 55.6248 114.248 55.7688 114.506C55.9128 114.758 56.1048 114.953 56.3448 115.091C56.5848 115.229 56.8578 115.298 57.1638 115.298ZM66.8006 111.185C67.1846 111.185 67.5236 111.26 67.8176 111.41C68.1116 111.56 68.3396 111.788 68.5016 112.094C68.6696 112.4 68.7536 112.787 68.7536 113.255V116H67.8896V113.354C67.8896 112.892 67.7816 112.544 67.5656 112.31C67.3496 112.076 67.0466 111.959 66.6566 111.959C66.3686 111.959 66.1166 112.019 65.9006 112.139C65.6846 112.259 65.5166 112.436 65.3966 112.67C65.2826 112.904 65.2256 113.195 65.2256 113.543V116H64.3616V113.354C64.3616 112.892 64.2536 112.544 64.0376 112.31C63.8276 112.076 63.5246 111.959 63.1286 111.959C62.8466 111.959 62.5976 112.019 62.3816 112.139C62.1656 112.259 61.9976 112.436 61.8776 112.67C61.7576 112.904 61.6976 113.195 61.6976 113.543V116H60.8336V111.23H61.6616V112.499L61.5266 112.175C61.6766 111.863 61.9076 111.62 62.2196 111.446C62.5316 111.272 62.8946 111.185 63.3086 111.185C63.7646 111.185 64.1576 111.299 64.4876 111.527C64.8176 111.749 65.0336 112.088 65.1356 112.544L64.7846 112.4C64.9286 112.034 65.1806 111.74 65.5406 111.518C65.9006 111.296 66.3206 111.185 66.8006 111.185ZM72.8724 116.054C72.4764 116.054 72.1134 115.964 71.7834 115.784C71.4594 115.598 71.1984 115.325 71.0004 114.965C70.8084 114.605 70.7124 114.155 70.7124 113.615C70.7124 113.075 70.8054 112.625 70.9914 112.265C71.1834 111.905 71.4414 111.635 71.7654 111.455C72.0954 111.275 72.4644 111.185 72.8724 111.185C73.3404 111.185 73.7544 111.287 74.1144 111.491C74.4744 111.695 74.7594 111.98 74.9694 112.346C75.1794 112.706 75.2844 113.129 75.2844 113.615C75.2844 114.101 75.1794 114.527 74.9694 114.893C74.7594 115.259 74.4744 115.544 74.1144 115.748C73.7544 115.952 73.3404 116.054 72.8724 116.054ZM70.3434 117.746V111.23H71.1714V112.517L71.1174 113.624L71.2074 114.731V117.746H70.3434ZM72.8004 115.298C73.1064 115.298 73.3794 115.229 73.6194 115.091C73.8654 114.953 74.0574 114.758 74.1954 114.506C74.3394 114.248 74.4114 113.951 74.4114 113.615C74.4114 113.273 74.3394 112.979 74.1954 112.733C74.0574 112.481 73.8654 112.286 73.6194 112.148C73.3794 112.01 73.1064 111.941 72.8004 111.941C72.5004 111.941 72.2274 112.01 71.9814 112.148C71.7414 112.286 71.5494 112.481 71.4054 112.733C71.2674 112.979 71.1984 113.273 71.1984 113.615C71.1984 113.951 71.2674 114.248 71.4054 114.506C71.5494 114.758 71.7414 114.953 71.9814 115.091C72.2274 115.229 72.5004 115.298 72.8004 115.298ZM78.6022 116.054C78.0922 116.054 77.6422 115.949 77.2522 115.739C76.8682 115.529 76.5682 115.241 76.3522 114.875C76.1422 114.509 76.0372 114.089 76.0372 113.615C76.0372 113.141 76.1392 112.721 76.3432 112.355C76.5532 111.989 76.8382 111.704 77.1982 111.5C77.5642 111.29 77.9752 111.185 78.4312 111.185C78.8932 111.185 79.3012 111.287 79.6552 111.491C80.0092 111.695 80.2852 111.983 80.4832 112.355C80.6872 112.721 80.7892 113.15 80.7892 113.642C80.7892 113.678 80.7862 113.72 80.7802 113.768C80.7802 113.816 80.7772 113.861 80.7712 113.903H76.7122V113.282H80.3212L79.9702 113.498C79.9762 113.192 79.9132 112.919 79.7812 112.679C79.6492 112.439 79.4662 112.253 79.2322 112.121C79.0042 111.983 78.7372 111.914 78.4312 111.914C78.1312 111.914 77.8642 111.983 77.6302 112.121C77.3962 112.253 77.2132 112.442 77.0812 112.688C76.9492 112.928 76.8832 113.204 76.8832 113.516V113.66C76.8832 113.978 76.9552 114.263 77.0992 114.515C77.2492 114.761 77.4562 114.953 77.7202 115.091C77.9842 115.229 78.2872 115.298 78.6292 115.298C78.9112 115.298 79.1662 115.25 79.3942 115.154C79.6282 115.058 79.8322 114.914 80.0062 114.722L80.4832 115.28C80.2672 115.532 79.9972 115.724 79.6732 115.856C79.3552 115.988 78.9982 116.054 78.6022 116.054ZM83.6269 116.054C83.1469 116.054 82.7749 115.925 82.5109 115.667C82.2469 115.409 82.1149 115.04 82.1149 114.56V110.186H82.9789V114.524C82.9789 114.782 83.0419 114.98 83.1679 115.118C83.2999 115.256 83.4859 115.325 83.7259 115.325C83.9959 115.325 84.2209 115.25 84.4009 115.1L84.6709 115.721C84.5389 115.835 84.3799 115.919 84.1939 115.973C84.0139 116.027 83.8249 116.054 83.6269 116.054ZM81.3049 111.941V111.23H84.3469V111.941H81.3049ZM85.7155 116V111.23H86.5795V116H85.7155ZM86.1475 110.312C85.9795 110.312 85.8385 110.258 85.7245 110.15C85.6165 110.042 85.5625 109.91 85.5625 109.754C85.5625 109.592 85.6165 109.457 85.7245 109.349C85.8385 109.241 85.9795 109.187 86.1475 109.187C86.3155 109.187 86.4535 109.241 86.5615 109.349C86.6755 109.451 86.7325 109.58 86.7325 109.736C86.7325 109.898 86.6785 110.036 86.5705 110.15C86.4625 110.258 86.3215 110.312 86.1475 110.312ZM89.8672 116.054C89.3872 116.054 89.0152 115.925 88.7512 115.667C88.4872 115.409 88.3552 115.04 88.3552 114.56V110.186H89.2192V114.524C89.2192 114.782 89.2822 114.98 89.4082 115.118C89.5402 115.256 89.7262 115.325 89.9662 115.325C90.2362 115.325 90.4612 115.25 90.6412 115.1L90.9112 115.721C90.7792 115.835 90.6202 115.919 90.4342 115.973C90.2542 116.027 90.0652 116.054 89.8672 116.054ZM87.5452 111.941V111.23H90.5872V111.941H87.5452ZM93.8405 116.054C93.3605 116.054 92.9345 115.949 92.5625 115.739C92.1905 115.529 91.8965 115.241 91.6805 114.875C91.4645 114.503 91.3565 114.083 91.3565 113.615C91.3565 113.141 91.4645 112.721 91.6805 112.355C91.8965 111.989 92.1905 111.704 92.5625 111.5C92.9345 111.29 93.3605 111.185 93.8405 111.185C94.3145 111.185 94.7375 111.29 95.1095 111.5C95.4875 111.704 95.7815 111.989 95.9915 112.355C96.2075 112.715 96.3155 113.135 96.3155 113.615C96.3155 114.089 96.2075 114.509 95.9915 114.875C95.7815 115.241 95.4875 115.529 95.1095 115.739C94.7375 115.949 94.3145 116.054 93.8405 116.054ZM93.8405 115.298C94.1465 115.298 94.4195 115.229 94.6595 115.091C94.9055 114.953 95.0975 114.758 95.2355 114.506C95.3735 114.248 95.4425 113.951 95.4425 113.615C95.4425 113.273 95.3735 112.979 95.2355 112.733C95.0975 112.481 94.9055 112.286 94.6595 112.148C94.4195 112.01 94.1465 111.941 93.8405 111.941C93.5345 111.941 93.2615 112.01 93.0215 112.148C92.7815 112.286 92.5895 112.481 92.4455 112.733C92.3015 112.979 92.2295 113.273 92.2295 113.615C92.2295 113.951 92.3015 114.248 92.4455 114.506C92.5895 114.758 92.7815 114.953 93.0215 115.091C93.2615 115.229 93.5345 115.298 93.8405 115.298ZM97.5104 116V111.23H98.3384V112.526L98.2574 112.202C98.3894 111.872 98.6114 111.62 98.9234 111.446C99.2354 111.272 99.6194 111.185 100.075 111.185V112.022C100.039 112.016 100.003 112.013 99.9674 112.013C99.9374 112.013 99.9074 112.013 99.8774 112.013C99.4154 112.013 99.0494 112.151 98.7794 112.427C98.5094 112.703 98.3744 113.102 98.3744 113.624V116H97.5104ZM103.133 116V115.388L105.698 112.913C105.926 112.697 106.094 112.508 106.202 112.346C106.316 112.178 106.391 112.025 106.427 111.887C106.469 111.743 106.49 111.605 106.49 111.473C106.49 111.149 106.376 110.894 106.148 110.708C105.92 110.522 105.587 110.429 105.149 110.429C104.813 110.429 104.51 110.486 104.24 110.6C103.97 110.708 103.736 110.879 103.538 111.113L102.926 110.582C103.166 110.276 103.487 110.042 103.889 109.88C104.297 109.712 104.744 109.628 105.23 109.628C105.668 109.628 106.049 109.7 106.373 109.844C106.697 109.982 106.946 110.183 107.12 110.447C107.3 110.711 107.39 111.023 107.39 111.383C107.39 111.587 107.363 111.788 107.309 111.986C107.255 112.184 107.153 112.394 107.003 112.616C106.853 112.838 106.637 113.087 106.355 113.363L104.069 115.568L103.853 115.217H107.66V116H103.133Z" fill="#274F63"/>
<path d="M125.762 116.072C125.282 116.072 124.838 115.994 124.43 115.838C124.028 115.676 123.677 115.451 123.377 115.163C123.083 114.869 122.852 114.527 122.684 114.137C122.516 113.747 122.432 113.318 122.432 112.85C122.432 112.382 122.516 111.953 122.684 111.563C122.852 111.173 123.086 110.834 123.386 110.546C123.686 110.252 124.037 110.027 124.439 109.871C124.847 109.709 125.291 109.628 125.771 109.628C126.257 109.628 126.704 109.712 127.112 109.88C127.526 110.042 127.877 110.285 128.165 110.609L127.58 111.176C127.34 110.924 127.07 110.738 126.77 110.618C126.47 110.492 126.149 110.429 125.807 110.429C125.453 110.429 125.123 110.489 124.817 110.609C124.517 110.729 124.256 110.897 124.034 111.113C123.812 111.329 123.638 111.587 123.512 111.887C123.392 112.181 123.332 112.502 123.332 112.85C123.332 113.198 123.392 113.522 123.512 113.822C123.638 114.116 123.812 114.371 124.034 114.587C124.256 114.803 124.517 114.971 124.817 115.091C125.123 115.211 125.453 115.271 125.807 115.271C126.149 115.271 126.47 115.211 126.77 115.091C127.07 114.965 127.34 114.773 127.58 114.515L128.165 115.082C127.877 115.406 127.526 115.652 127.112 115.82C126.704 115.988 126.254 116.072 125.762 116.072ZM131.164 116.054C130.684 116.054 130.258 115.949 129.886 115.739C129.514 115.529 129.22 115.241 129.004 114.875C128.788 114.503 128.68 114.083 128.68 113.615C128.68 113.141 128.788 112.721 129.004 112.355C129.22 111.989 129.514 111.704 129.886 111.5C130.258 111.29 130.684 111.185 131.164 111.185C131.638 111.185 132.061 111.29 132.433 111.5C132.811 111.704 133.105 111.989 133.315 112.355C133.531 112.715 133.639 113.135 133.639 113.615C133.639 114.089 133.531 114.509 133.315 114.875C133.105 115.241 132.811 115.529 132.433 115.739C132.061 115.949 131.638 116.054 131.164 116.054ZM131.164 115.298C131.47 115.298 131.743 115.229 131.983 115.091C132.229 114.953 132.421 114.758 132.559 114.506C132.697 114.248 132.766 113.951 132.766 113.615C132.766 113.273 132.697 112.979 132.559 112.733C132.421 112.481 132.229 112.286 131.983 112.148C131.743 112.01 131.47 111.941 131.164 111.941C130.858 111.941 130.585 112.01 130.345 112.148C130.105 112.286 129.913 112.481 129.769 112.733C129.625 112.979 129.553 113.273 129.553 113.615C129.553 113.951 129.625 114.248 129.769 114.506C129.913 114.758 130.105 114.953 130.345 115.091C130.585 115.229 130.858 115.298 131.164 115.298ZM140.801 111.185C141.185 111.185 141.524 111.26 141.818 111.41C142.112 111.56 142.34 111.788 142.502 112.094C142.67 112.4 142.754 112.787 142.754 113.255V116H141.89V113.354C141.89 112.892 141.782 112.544 141.566 112.31C141.35 112.076 141.047 111.959 140.657 111.959C140.369 111.959 140.117 112.019 139.901 112.139C139.685 112.259 139.517 112.436 139.397 112.67C139.283 112.904 139.226 113.195 139.226 113.543V116H138.362V113.354C138.362 112.892 138.254 112.544 138.038 112.31C137.828 112.076 137.525 111.959 137.129 111.959C136.847 111.959 136.598 112.019 136.382 112.139C136.166 112.259 135.998 112.436 135.878 112.67C135.758 112.904 135.698 113.195 135.698 113.543V116H134.834V111.23H135.662V112.499L135.527 112.175C135.677 111.863 135.908 111.62 136.22 111.446C136.532 111.272 136.895 111.185 137.309 111.185C137.765 111.185 138.158 111.299 138.488 111.527C138.818 111.749 139.034 112.088 139.136 112.544L138.785 112.4C138.929 112.034 139.181 111.74 139.541 111.518C139.901 111.296 140.321 111.185 140.801 111.185ZM146.872 116.054C146.476 116.054 146.113 115.964 145.783 115.784C145.459 115.598 145.198 115.325 145 114.965C144.808 114.605 144.712 114.155 144.712 113.615C144.712 113.075 144.805 112.625 144.991 112.265C145.183 111.905 145.441 111.635 145.765 111.455C146.095 111.275 146.464 111.185 146.872 111.185C147.34 111.185 147.754 111.287 148.114 111.491C148.474 111.695 148.759 111.98 148.969 112.346C149.179 112.706 149.284 113.129 149.284 113.615C149.284 114.101 149.179 114.527 148.969 114.893C148.759 115.259 148.474 115.544 148.114 115.748C147.754 115.952 147.34 116.054 146.872 116.054ZM144.343 117.746V111.23H145.171V112.517L145.117 113.624L145.207 114.731V117.746H144.343ZM146.8 115.298C147.106 115.298 147.379 115.229 147.619 115.091C147.865 114.953 148.057 114.758 148.195 114.506C148.339 114.248 148.411 113.951 148.411 113.615C148.411 113.273 148.339 112.979 148.195 112.733C148.057 112.481 147.865 112.286 147.619 112.148C147.379 112.01 147.106 111.941 146.8 111.941C146.5 111.941 146.227 112.01 145.981 112.148C145.741 112.286 145.549 112.481 145.405 112.733C145.267 112.979 145.198 113.273 145.198 113.615C145.198 113.951 145.267 114.248 145.405 114.506C145.549 114.758 145.741 114.953 145.981 115.091C146.227 115.229 146.5 115.298 146.8 115.298ZM154.434 116.072C153.99 116.072 153.558 116.003 153.138 115.865C152.724 115.727 152.385 115.541 152.121 115.307L152.535 114.596C152.745 114.794 153.018 114.956 153.354 115.082C153.69 115.208 154.05 115.271 154.434 115.271C154.902 115.271 155.265 115.172 155.523 114.974C155.787 114.77 155.919 114.497 155.919 114.155C155.919 113.825 155.793 113.561 155.541 113.363C155.295 113.159 154.902 113.057 154.362 113.057H153.858V112.427L155.73 110.123L155.856 110.483H152.409V109.7H156.567V110.312L154.704 112.607L154.236 112.328H154.533C155.295 112.328 155.865 112.499 156.243 112.841C156.627 113.183 156.819 113.618 156.819 114.146C156.819 114.5 156.732 114.824 156.558 115.118C156.384 115.412 156.12 115.646 155.766 115.82C155.418 115.988 154.974 116.072 154.434 116.072Z" fill="#74712E"/>
<path d="M133.466 149V146.588L133.673 147.146L130.964 142.7H131.927L134.204 146.453H133.682L135.968 142.7H136.859L134.159 147.146L134.357 146.588V149H133.466ZM139.153 149.054C138.673 149.054 138.247 148.949 137.875 148.739C137.503 148.529 137.209 148.241 136.993 147.875C136.777 147.503 136.669 147.083 136.669 146.615C136.669 146.141 136.777 145.721 136.993 145.355C137.209 144.989 137.503 144.704 137.875 144.5C138.247 144.29 138.673 144.185 139.153 144.185C139.627 144.185 140.05 144.29 140.422 144.5C140.8 144.704 141.094 144.989 141.304 145.355C141.52 145.715 141.628 146.135 141.628 146.615C141.628 147.089 141.52 147.509 141.304 147.875C141.094 148.241 140.8 148.529 140.422 148.739C140.05 148.949 139.627 149.054 139.153 149.054ZM139.153 148.298C139.459 148.298 139.732 148.229 139.972 148.091C140.218 147.953 140.41 147.758 140.548 147.506C140.686 147.248 140.755 146.951 140.755 146.615C140.755 146.273 140.686 145.979 140.548 145.733C140.41 145.481 140.218 145.286 139.972 145.148C139.732 145.01 139.459 144.941 139.153 144.941C138.847 144.941 138.574 145.01 138.334 145.148C138.094 145.286 137.902 145.481 137.758 145.733C137.614 145.979 137.542 146.273 137.542 146.615C137.542 146.951 137.614 147.248 137.758 147.506C137.902 147.758 138.094 147.953 138.334 148.091C138.574 148.229 138.847 148.298 139.153 148.298ZM144.83 149.054C144.422 149.054 144.062 148.979 143.75 148.829C143.444 148.679 143.204 148.451 143.03 148.145C142.862 147.833 142.778 147.443 142.778 146.975V144.23H143.642V146.876C143.642 147.344 143.753 147.695 143.975 147.929C144.203 148.163 144.521 148.28 144.929 148.28C145.229 148.28 145.49 148.22 145.712 148.1C145.934 147.974 146.105 147.794 146.225 147.56C146.345 147.32 146.405 147.032 146.405 146.696V144.23H147.269V149H146.45V147.713L146.585 148.055C146.429 148.373 146.195 148.619 145.883 148.793C145.571 148.967 145.22 149.054 144.83 149.054Z" fill="#454545"/>
<circle cx="49" cy="88" r="1" fill="#52BEF3"/>
<circle cx="68" cy="74" r="1" fill="#52BEF3"/>
<circle cx="82" cy="82" r="1" fill="#52BEF3"/>
<circle cx="104" cy="55" r="1" fill="#52BEF3"/>
<circle cx="126" cy="94" r="1" fill="#F28100"/>
<circle cx="62" cy="135" r="1" fill="#F13434"/>
<circle cx="79" cy="133" r="1" fill="#F13434"/>
<circle cx="86" cy="135" r="1" fill="#F13434"/>
<circle cx="134" cy="80" r="1" fill="#F28100"/>
<circle cx="139" cy="88" r="1" fill="#F28100"/>
<circle cx="153" cy="48" r="1" fill="#F28100"/>
</g>
<rect x="36.4" y="36.4" width="127.2" height="127.2" rx="5.6" stroke="#DDDDE6" stroke-width="1.2"/>
<path d="M16.8919 158.903V158.156H19.3129V158.903H16.8919ZM21.16 161V155.06L21.547 155.483H19.738V154.7H22.051V161H21.16ZM26.0031 161.072C25.5111 161.072 25.0701 160.946 24.6801 160.694C24.2961 160.442 23.9901 160.076 23.7621 159.596C23.5401 159.116 23.4291 158.534 23.4291 157.85C23.4291 157.166 23.5401 156.584 23.7621 156.104C23.9901 155.624 24.2961 155.258 24.6801 155.006C25.0701 154.754 25.5111 154.628 26.0031 154.628C26.4891 154.628 26.9271 154.754 27.3171 155.006C27.7071 155.258 28.0131 155.624 28.2351 156.104C28.4571 156.584 28.5681 157.166 28.5681 157.85C28.5681 158.534 28.4571 159.116 28.2351 159.596C28.0131 160.076 27.7071 160.442 27.3171 160.694C26.9271 160.946 26.4891 161.072 26.0031 161.072ZM26.0031 160.271C26.3331 160.271 26.6211 160.181 26.8671 160.001C27.1191 159.821 27.3141 159.551 27.4521 159.191C27.5961 158.831 27.6681 158.384 27.6681 157.85C27.6681 157.316 27.5961 156.869 27.4521 156.509C27.3141 156.149 27.1191 155.879 26.8671 155.699C26.6211 155.519 26.3331 155.429 26.0031 155.429C25.6731 155.429 25.3821 155.519 25.1301 155.699C24.8781 155.879 24.6801 156.149 24.5361 156.509C24.3981 156.869 24.3291 157.316 24.3291 157.85C24.3291 158.384 24.3981 158.831 24.5361 159.191C24.6801 159.551 24.8781 159.821 25.1301 160.001C25.3821 160.181 25.6731 160.271 26.0031 160.271Z" fill="#DDDDE6"/>
<path d="M88.513 176.903V176.156H90.934V176.903H88.513ZM92.7811 179V173.06L93.1681 173.483H91.3591V172.7H93.6721V179H92.7811ZM97.6242 179.072C97.1322 179.072 96.6912 178.946 96.3012 178.694C95.9172 178.442 95.6112 178.076 95.3832 177.596C95.1612 177.116 95.0502 176.534 95.0502 175.85C95.0502 175.166 95.1612 174.584 95.3832 174.104C95.6112 173.624 95.9172 173.258 96.3012 173.006C96.6912 172.754 97.1322 172.628 97.6242 172.628C98.1102 172.628 98.5482 172.754 98.9382 173.006C99.3282 173.258 99.6342 173.624 99.8562 174.104C100.078 174.584 100.189 175.166 100.189 175.85C100.189 176.534 100.078 177.116 99.8562 177.596C99.6342 178.076 99.3282 178.442 98.9382 178.694C98.5482 178.946 98.1102 179.072 97.6242 179.072ZM97.6242 178.271C97.9542 178.271 98.2422 178.181 98.4882 178.001C98.7402 177.821 98.9352 177.551 99.0732 177.191C99.2172 176.831 99.2892 176.384 99.2892 175.85C99.2892 175.316 99.2172 174.869 99.0732 174.509C98.9352 174.149 98.7402 173.879 98.4882 173.699C98.2422 173.519 97.9542 173.429 97.6242 173.429C97.2942 173.429 97.0032 173.519 96.7512 173.699C96.4992 173.879 96.3012 174.149 96.1572 174.509C96.0192 174.869 95.9502 175.316 95.9502 175.85C95.9502 176.384 96.0192 176.831 96.1572 177.191C96.3012 177.551 96.4992 177.821 96.7512 178.001C97.0032 178.181 97.2942 178.271 97.6242 178.271Z" fill="#DDDDE6"/>
<path d="M26.0031 132.072C25.5111 132.072 25.0701 131.946 24.6801 131.694C24.2961 131.442 23.9901 131.076 23.7621 130.596C23.5401 130.116 23.4291 129.534 23.4291 128.85C23.4291 128.166 23.5401 127.584 23.7621 127.104C23.9901 126.624 24.2961 126.258 24.6801 126.006C25.0701 125.754 25.5111 125.628 26.0031 125.628C26.4891 125.628 26.9271 125.754 27.3171 126.006C27.7071 126.258 28.0131 126.624 28.2351 127.104C28.4571 127.584 28.5681 128.166 28.5681 128.85C28.5681 129.534 28.4571 130.116 28.2351 130.596C28.0131 131.076 27.7071 131.442 27.3171 131.694C26.9271 131.946 26.4891 132.072 26.0031 132.072ZM26.0031 131.271C26.3331 131.271 26.6211 131.181 26.8671 131.001C27.1191 130.821 27.3141 130.551 27.4521 130.191C27.5961 129.831 27.6681 129.384 27.6681 128.85C27.6681 128.316 27.5961 127.869 27.4521 127.509C27.3141 127.149 27.1191 126.879 26.8671 126.699C26.6211 126.519 26.3331 126.429 26.0031 126.429C25.6731 126.429 25.3821 126.519 25.1301 126.699C24.8781 126.879 24.6801 127.149 24.5361 127.509C24.3981 127.869 24.3291 128.316 24.3291 128.85C24.3291 129.384 24.3981 129.831 24.5361 130.191C24.6801 130.551 24.8781 130.821 25.1301 131.001C25.3821 131.181 25.6731 131.271 26.0031 131.271Z" fill="#DDDDE6"/>
<path d="M64.513 176.903V176.156H66.934V176.903H64.513ZM68.7811 179V173.06L69.1681 173.483H67.3591V172.7H69.6721V179H68.7811ZM73.0842 179.072C72.6402 179.072 72.2082 179.003 71.7882 178.865C71.3742 178.727 71.0352 178.541 70.7712 178.307L71.1852 177.596C71.3952 177.794 71.6682 177.956 72.0042 178.082C72.3402 178.208 72.6972 178.271 73.0752 178.271C73.5552 178.271 73.9242 178.169 74.1822 177.965C74.4402 177.761 74.5692 177.488 74.5692 177.146C74.5692 176.912 74.5122 176.708 74.3982 176.534C74.2842 176.36 74.0862 176.228 73.8042 176.138C73.5282 176.042 73.1472 175.994 72.6612 175.994H71.2302L71.5632 172.7H75.1182V173.483H71.8962L72.3642 173.042L72.1032 175.643L71.6352 175.211H72.8502C73.4802 175.211 73.9872 175.292 74.3712 175.454C74.7552 175.616 75.0342 175.841 75.2082 176.129C75.3822 176.411 75.4692 176.738 75.4692 177.11C75.4692 177.47 75.3822 177.8 75.2082 178.1C75.0342 178.394 74.7702 178.631 74.4162 178.811C74.0682 178.985 73.6242 179.072 73.0842 179.072Z" fill="#DDDDE6"/>
<path d="M21.16 103V97.06L21.547 97.483H19.738V96.7H22.051V103H21.16ZM26.0031 103.072C25.5111 103.072 25.0701 102.946 24.6801 102.694C24.2961 102.442 23.9901 102.076 23.7621 101.596C23.5401 101.116 23.4291 100.534 23.4291 99.85C23.4291 99.166 23.5401 98.584 23.7621 98.104C23.9901 97.624 24.2961 97.258 24.6801 97.006C25.0701 96.754 25.5111 96.628 26.0031 96.628C26.4891 96.628 26.9271 96.754 27.3171 97.006C27.7071 97.258 28.0131 97.624 28.2351 98.104C28.4571 98.584 28.5681 99.166 28.5681 99.85C28.5681 100.534 28.4571 101.116 28.2351 101.596C28.0131 102.076 27.7071 102.442 27.3171 102.694C26.9271 102.946 26.4891 103.072 26.0031 103.072ZM26.0031 102.271C26.3331 102.271 26.6211 102.181 26.8671 102.001C27.1191 101.821 27.3141 101.551 27.4521 101.191C27.5961 100.831 27.6681 100.384 27.6681 99.85C27.6681 99.316 27.5961 98.869 27.4521 98.509C27.3141 98.149 27.1191 97.879 26.8671 97.699C26.6211 97.519 26.3331 97.429 26.0031 97.429C25.6731 97.429 25.3821 97.519 25.1301 97.699C24.8781 97.879 24.6801 98.149 24.5361 98.509C24.3981 98.869 24.3291 99.316 24.3291 99.85C24.3291 100.384 24.3981 100.831 24.5361 101.191C24.6801 101.551 24.8781 101.821 25.1301 102.001C25.3821 102.181 25.6731 102.271 26.0031 102.271Z" fill="#DDDDE6"/>
<path d="M116.006 179.072C115.514 179.072 115.073 178.946 114.683 178.694C114.299 178.442 113.993 178.076 113.765 177.596C113.543 177.116 113.432 176.534 113.432 175.85C113.432 175.166 113.543 174.584 113.765 174.104C113.993 173.624 114.299 173.258 114.683 173.006C115.073 172.754 115.514 172.628 116.006 172.628C116.492 172.628 116.93 172.754 117.32 173.006C117.71 173.258 118.016 173.624 118.238 174.104C118.46 174.584 118.571 175.166 118.571 175.85C118.571 176.534 118.46 177.116 118.238 177.596C118.016 178.076 117.71 178.442 117.32 178.694C116.93 178.946 116.492 179.072 116.006 179.072ZM116.006 178.271C116.336 178.271 116.624 178.181 116.87 178.001C117.122 177.821 117.317 177.551 117.455 177.191C117.599 176.831 117.671 176.384 117.671 175.85C117.671 175.316 117.599 174.869 117.455 174.509C117.317 174.149 117.122 173.879 116.87 173.699C116.624 173.519 116.336 173.429 116.006 173.429C115.676 173.429 115.385 173.519 115.133 173.699C114.881 173.879 114.683 174.149 114.539 174.509C114.401 174.869 114.332 175.316 114.332 175.85C114.332 176.384 114.401 176.831 114.539 177.191C114.683 177.551 114.881 177.821 115.133 178.001C115.385 178.181 115.676 178.271 116.006 178.271Z" fill="#DDDDE6"/>
<path d="M21.995 74V68.06L22.382 68.483H20.573V67.7H22.886V74H21.995ZM26.298 74.072C25.854 74.072 25.422 74.003 25.002 73.865C24.588 73.727 24.249 73.541 23.985 73.307L24.399 72.596C24.609 72.794 24.882 72.956 25.218 73.082C25.554 73.208 25.911 73.271 26.289 73.271C26.769 73.271 27.138 73.169 27.396 72.965C27.654 72.761 27.783 72.488 27.783 72.146C27.783 71.912 27.726 71.708 27.612 71.534C27.498 71.36 27.3 71.228 27.018 71.138C26.742 71.042 26.361 70.994 25.875 70.994H24.444L24.777 67.7H28.332V68.483H25.11L25.578 68.042L25.317 70.643L24.849 70.211H26.064C26.694 70.211 27.201 70.292 27.585 70.454C27.969 70.616 28.248 70.841 28.422 71.129C28.596 71.411 28.683 71.738 28.683 72.11C28.683 72.47 28.596 72.8 28.422 73.1C28.248 73.394 27.984 73.631 27.63 73.811C27.282 73.985 26.838 74.072 26.298 74.072Z" fill="#DDDDE6"/>
<path d="M37.513 176.903V176.156H39.934V176.903H37.513ZM40.6641 179V178.388L43.2291 175.913C43.4571 175.697 43.6251 175.508 43.7331 175.346C43.8471 175.178 43.9221 175.025 43.9581 174.887C44.0001 174.743 44.0211 174.605 44.0211 174.473C44.0211 174.149 43.9071 173.894 43.6791 173.708C43.4511 173.522 43.1181 173.429 42.6801 173.429C42.3441 173.429 42.0411 173.486 41.7711 173.6C41.5011 173.708 41.2671 173.879 41.0691 174.113L40.4571 173.582C40.6971 173.276 41.0181 173.042 41.4201 172.88C41.8281 172.712 42.2751 172.628 42.7611 172.628C43.1991 172.628 43.5801 172.7 43.9041 172.844C44.2281 172.982 44.4771 173.183 44.6511 173.447C44.8311 173.711 44.9211 174.023 44.9211 174.383C44.9211 174.587 44.8941 174.788 44.8401 174.986C44.7861 175.184 44.6841 175.394 44.5341 175.616C44.3841 175.838 44.1681 176.087 43.8861 176.363L41.6001 178.568L41.3841 178.217H45.1911V179H40.6641ZM48.4962 179.072C48.0042 179.072 47.5632 178.946 47.1732 178.694C46.7892 178.442 46.4832 178.076 46.2552 177.596C46.0332 177.116 45.9222 176.534 45.9222 175.85C45.9222 175.166 46.0332 174.584 46.2552 174.104C46.4832 173.624 46.7892 173.258 47.1732 173.006C47.5632 172.754 48.0042 172.628 48.4962 172.628C48.9822 172.628 49.4202 172.754 49.8102 173.006C50.2002 173.258 50.5062 173.624 50.7282 174.104C50.9502 174.584 51.0612 175.166 51.0612 175.85C51.0612 176.534 50.9502 177.116 50.7282 177.596C50.5062 178.076 50.2002 178.442 49.8102 178.694C49.4202 178.946 48.9822 179.072 48.4962 179.072ZM48.4962 178.271C48.8262 178.271 49.1142 178.181 49.3602 178.001C49.6122 177.821 49.8072 177.551 49.9452 177.191C50.0892 176.831 50.1612 176.384 50.1612 175.85C50.1612 175.316 50.0892 174.869 49.9452 174.509C49.8072 174.149 49.6122 173.879 49.3602 173.699C49.1142 173.519 48.8262 173.429 48.4962 173.429C48.1662 173.429 47.8752 173.519 47.6232 173.699C47.3712 173.879 47.1732 174.149 47.0292 174.509C46.8912 174.869 46.8222 175.316 46.8222 175.85C46.8222 176.384 46.8912 176.831 47.0292 177.191C47.1732 177.551 47.3712 177.821 47.6232 178.001C47.8752 178.181 48.1662 178.271 48.4962 178.271Z" fill="#DDDDE6"/>
<path d="M18.1709 45V44.388L20.7359 41.913C20.9639 41.697 21.1319 41.508 21.2399 41.346C21.3539 41.178 21.4289 41.025 21.4649 40.887C21.5069 40.743 21.5279 40.605 21.5279 40.473C21.5279 40.149 21.4139 39.894 21.1859 39.708C20.9579 39.522 20.6249 39.429 20.1869 39.429C19.8509 39.429 19.5479 39.486 19.2779 39.6C19.0079 39.708 18.7739 39.879 18.5759 40.113L17.9639 39.582C18.2039 39.276 18.5249 39.042 18.9269 38.88C19.3349 38.712 19.7819 38.628 20.2679 38.628C20.7059 38.628 21.0869 38.7 21.4109 38.844C21.7349 38.982 21.9839 39.183 22.1579 39.447C22.3379 39.711 22.4279 40.023 22.4279 40.383C22.4279 40.587 22.4009 40.788 22.3469 40.986C22.2929 41.184 22.1909 41.394 22.0409 41.616C21.8909 41.838 21.6749 42.087 21.3929 42.363L19.1069 44.568L18.8909 44.217H22.6979V45H18.1709ZM26.0031 45.072C25.5111 45.072 25.0701 44.946 24.6801 44.694C24.2961 44.442 23.9901 44.076 23.7621 43.596C23.5401 43.116 23.4291 42.534 23.4291 41.85C23.4291 41.166 23.5401 40.584 23.7621 40.104C23.9901 39.624 24.2961 39.258 24.6801 39.006C25.0701 38.754 25.5111 38.628 26.0031 38.628C26.4891 38.628 26.9271 38.754 27.3171 39.006C27.7071 39.258 28.0131 39.624 28.2351 40.104C28.4571 40.584 28.5681 41.166 28.5681 41.85C28.5681 42.534 28.4571 43.116 28.2351 43.596C28.0131 44.076 27.7071 44.442 27.3171 44.694C26.9271 44.946 26.4891 45.072 26.0031 45.072ZM26.0031 44.271C26.3331 44.271 26.6211 44.181 26.8671 44.001C27.1191 43.821 27.3141 43.551 27.4521 43.191C27.5961 42.831 27.6681 42.384 27.6681 41.85C27.6681 41.316 27.5961 40.869 27.4521 40.509C27.3141 40.149 27.1191 39.879 26.8671 39.699C26.6211 39.519 26.3331 39.429 26.0031 39.429C25.6731 39.429 25.3821 39.519 25.1301 39.699C24.8781 39.879 24.6801 40.149 24.5361 40.509C24.3981 40.869 24.3291 41.316 24.3291 41.85C24.3291 42.384 24.3981 42.831 24.5361 43.191C24.6801 43.551 24.8781 43.821 25.1301 44.001C25.3821 44.181 25.6731 44.271 26.0031 44.271Z" fill="#DDDDE6"/>
<path d="M155.494 179V173.06L155.881 173.483H154.072V172.7H156.385V179H155.494ZM160.337 179.072C159.845 179.072 159.404 178.946 159.014 178.694C158.63 178.442 158.324 178.076 158.096 177.596C157.874 177.116 157.763 176.534 157.763 175.85C157.763 175.166 157.874 174.584 158.096 174.104C158.324 173.624 158.63 173.258 159.014 173.006C159.404 172.754 159.845 172.628 160.337 172.628C160.823 172.628 161.261 172.754 161.651 173.006C162.041 173.258 162.347 173.624 162.569 174.104C162.791 174.584 162.902 175.166 162.902 175.85C162.902 176.534 162.791 177.116 162.569 177.596C162.347 178.076 162.041 178.442 161.651 178.694C161.261 178.946 160.823 179.072 160.337 179.072ZM160.337 178.271C160.667 178.271 160.955 178.181 161.201 178.001C161.453 177.821 161.648 177.551 161.786 177.191C161.93 176.831 162.002 176.384 162.002 175.85C162.002 175.316 161.93 174.869 161.786 174.509C161.648 174.149 161.453 173.879 161.201 173.699C160.955 173.519 160.667 173.429 160.337 173.429C160.007 173.429 159.716 173.519 159.464 173.699C159.212 173.879 159.014 174.149 158.87 174.509C158.732 174.869 158.663 175.316 158.663 175.85C158.663 176.384 158.732 176.831 158.87 177.191C159.014 177.551 159.212 177.821 159.464 178.001C159.716 178.181 160.007 178.271 160.337 178.271Z" fill="#DDDDE6"/>
<defs>
<clipPath id="clip0_184_210">
<rect x="37" y="37" width="126" height="126" rx="5" fill="white"/>
</clipPath>
</defs>
</svg>
