<svg width="619" height="323" viewBox="0 0 619 323" fill="none" xmlns="http://www.w3.org/2000/svg">
<path d="M0 20C0 8.95431 8.9543 0 20 0H599C610.046 0 619 8.9543 619 20V303C619 314.046 610.046 323 599 323H20C8.95431 323 0 314.046 0 303V20Z" fill="white"/>
<path d="M55 233H568" stroke="#37376D"/>
<path d="M66 245L66 38" stroke="#37376D"/>
<path d="M67 186H568" stroke="#DDDDE6" stroke-dasharray="7 7"/>
<path d="M67 127H568" stroke="#DDDDE6" stroke-dasharray="7 7"/>
<path d="M67 66.5H568" stroke="#DDDDE6" stroke-dasharray="7 7"/>
<rect x="88" y="265" width="14" height="14" rx="2" fill="#F28100"/>
<path d="M118.524 278.108C117.576 278.108 116.7 277.952 115.896 277.64C115.092 277.316 114.396 276.866 113.808 276.29C113.22 275.714 112.758 275.036 112.422 274.256C112.098 273.476 111.936 272.624 111.936 271.7C111.936 270.776 112.098 269.924 112.422 269.144C112.758 268.364 113.22 267.686 113.808 267.11C114.408 266.534 115.11 266.09 115.914 265.778C116.718 265.454 117.594 265.292 118.542 265.292C119.454 265.292 120.312 265.448 121.116 265.76C121.92 266.06 122.598 266.516 123.15 267.128L122.304 267.974C121.788 267.446 121.218 267.068 120.594 266.84C119.97 266.6 119.298 266.48 118.578 266.48C117.822 266.48 117.12 266.612 116.472 266.876C115.824 267.128 115.26 267.494 114.78 267.974C114.3 268.442 113.922 268.994 113.646 269.63C113.382 270.254 113.25 270.944 113.25 271.7C113.25 272.456 113.382 273.152 113.646 273.788C113.922 274.412 114.3 274.964 114.78 275.444C115.26 275.912 115.824 276.278 116.472 276.542C117.12 276.794 117.822 276.92 118.578 276.92C119.298 276.92 119.97 276.8 120.594 276.56C121.218 276.32 121.788 275.936 122.304 275.408L123.15 276.254C122.598 276.866 121.92 277.328 121.116 277.64C120.312 277.952 119.448 278.108 118.524 278.108ZM129.15 278.09C128.238 278.09 127.416 277.886 126.684 277.478C125.964 277.058 125.394 276.488 124.974 275.768C124.554 275.036 124.344 274.202 124.344 273.266C124.344 272.318 124.554 271.484 124.974 270.764C125.394 270.044 125.964 269.48 126.684 269.072C127.404 268.664 128.226 268.46 129.15 268.46C130.086 268.46 130.914 268.664 131.634 269.072C132.366 269.48 132.936 270.044 133.344 270.764C133.764 271.484 133.974 272.318 133.974 273.266C133.974 274.202 133.764 275.036 133.344 275.768C132.936 276.488 132.366 277.058 131.634 277.478C130.902 277.886 130.074 278.09 129.15 278.09ZM129.15 276.956C129.834 276.956 130.44 276.806 130.968 276.506C131.496 276.194 131.91 275.762 132.21 275.21C132.522 274.646 132.678 273.998 132.678 273.266C132.678 272.522 132.522 271.874 132.21 271.322C131.91 270.77 131.496 270.344 130.968 270.044C130.44 269.732 129.84 269.576 129.168 269.576C128.496 269.576 127.896 269.732 127.368 270.044C126.84 270.344 126.42 270.77 126.108 271.322C125.796 271.874 125.64 272.522 125.64 273.266C125.64 273.998 125.796 274.646 126.108 275.21C126.42 275.762 126.84 276.194 127.368 276.506C127.896 276.806 128.49 276.956 129.15 276.956ZM148.391 268.46C149.159 268.46 149.825 268.61 150.389 268.91C150.965 269.198 151.409 269.642 151.721 270.242C152.045 270.842 152.207 271.598 152.207 272.51V278H150.929V272.636C150.929 271.64 150.689 270.89 150.209 270.386C149.741 269.87 149.075 269.612 148.211 269.612C147.563 269.612 146.999 269.75 146.519 270.026C146.051 270.29 145.685 270.68 145.421 271.196C145.169 271.7 145.043 272.312 145.043 273.032V278H143.765V272.636C143.765 271.64 143.525 270.89 143.045 270.386C142.565 269.87 141.893 269.612 141.029 269.612C140.393 269.612 139.835 269.75 139.355 270.026C138.875 270.29 138.503 270.68 138.239 271.196C137.987 271.7 137.861 272.312 137.861 273.032V278H136.583V268.55H137.807V271.106L137.609 270.656C137.897 269.972 138.359 269.438 138.995 269.054C139.643 268.658 140.405 268.46 141.281 268.46C142.205 268.46 142.991 268.694 143.639 269.162C144.287 269.618 144.707 270.308 144.899 271.232L144.395 271.034C144.671 270.266 145.157 269.648 145.853 269.18C146.561 268.7 147.407 268.46 148.391 268.46ZM160.551 278.09C159.735 278.09 158.997 277.904 158.337 277.532C157.677 277.148 157.149 276.602 156.753 275.894C156.369 275.174 156.177 274.298 156.177 273.266C156.177 272.234 156.369 271.364 156.753 270.656C157.137 269.936 157.659 269.39 158.319 269.018C158.979 268.646 159.723 268.46 160.551 268.46C161.451 268.46 162.255 268.664 162.963 269.072C163.683 269.468 164.247 270.032 164.655 270.764C165.063 271.484 165.267 272.318 165.267 273.266C165.267 274.226 165.063 275.066 164.655 275.786C164.247 276.506 163.683 277.07 162.963 277.478C162.255 277.886 161.451 278.09 160.551 278.09ZM155.673 281.492V268.55H156.897V271.394L156.771 273.284L156.951 275.192V281.492H155.673ZM160.461 276.956C161.133 276.956 161.733 276.806 162.261 276.506C162.789 276.194 163.209 275.762 163.521 275.21C163.833 274.646 163.989 273.998 163.989 273.266C163.989 272.534 163.833 271.892 163.521 271.34C163.209 270.788 162.789 270.356 162.261 270.044C161.733 269.732 161.133 269.576 160.461 269.576C159.789 269.576 159.183 269.732 158.643 270.044C158.115 270.356 157.695 270.788 157.383 271.34C157.083 271.892 156.933 272.534 156.933 273.266C156.933 273.998 157.083 274.646 157.383 275.21C157.695 275.762 158.115 276.194 158.643 276.506C159.183 276.806 159.789 276.956 160.461 276.956ZM171.886 278.09C170.902 278.09 170.038 277.886 169.294 277.478C168.55 277.058 167.968 276.488 167.548 275.768C167.128 275.036 166.918 274.202 166.918 273.266C166.918 272.33 167.116 271.502 167.512 270.782C167.92 270.062 168.472 269.498 169.168 269.09C169.876 268.67 170.668 268.46 171.544 268.46C172.432 268.46 173.218 268.664 173.902 269.072C174.598 269.468 175.144 270.032 175.54 270.764C175.936 271.484 176.134 272.318 176.134 273.266C176.134 273.326 176.128 273.392 176.116 273.464C176.116 273.524 176.116 273.59 176.116 273.662H167.89V272.708H175.432L174.928 273.086C174.928 272.402 174.778 271.796 174.478 271.268C174.19 270.728 173.794 270.308 173.29 270.008C172.786 269.708 172.204 269.558 171.544 269.558C170.896 269.558 170.314 269.708 169.798 270.008C169.282 270.308 168.88 270.728 168.592 271.268C168.304 271.808 168.16 272.426 168.16 273.122V273.32C168.16 274.04 168.316 274.676 168.628 275.228C168.952 275.768 169.396 276.194 169.96 276.506C170.536 276.806 171.19 276.956 171.922 276.956C172.498 276.956 173.032 276.854 173.524 276.65C174.028 276.446 174.46 276.134 174.82 275.714L175.54 276.542C175.12 277.046 174.592 277.43 173.956 277.694C173.332 277.958 172.642 278.09 171.886 278.09ZM181.723 278.09C180.835 278.09 180.151 277.85 179.671 277.37C179.191 276.89 178.951 276.212 178.951 275.336V266.462H180.229V275.264C180.229 275.816 180.367 276.242 180.643 276.542C180.931 276.842 181.339 276.992 181.867 276.992C182.431 276.992 182.899 276.83 183.271 276.506L183.721 277.424C183.469 277.652 183.163 277.82 182.803 277.928C182.455 278.036 182.095 278.09 181.723 278.09ZM177.259 269.612V268.55H183.109V269.612H177.259ZM186.048 278V268.55H187.326V278H186.048ZM186.696 266.462C186.432 266.462 186.21 266.372 186.03 266.192C185.85 266.012 185.76 265.796 185.76 265.544C185.76 265.292 185.85 265.082 186.03 264.914C186.21 264.734 186.432 264.644 186.696 264.644C186.96 264.644 187.182 264.728 187.362 264.896C187.542 265.064 187.632 265.274 187.632 265.526C187.632 265.79 187.542 266.012 187.362 266.192C187.194 266.372 186.972 266.462 186.696 266.462ZM193.87 278.09C192.982 278.09 192.298 277.85 191.818 277.37C191.338 276.89 191.098 276.212 191.098 275.336V266.462H192.376V275.264C192.376 275.816 192.514 276.242 192.79 276.542C193.078 276.842 193.486 276.992 194.014 276.992C194.578 276.992 195.046 276.83 195.418 276.506L195.868 277.424C195.616 277.652 195.31 277.82 194.95 277.928C194.602 278.036 194.242 278.09 193.87 278.09ZM189.406 269.612V268.55H195.256V269.612H189.406ZM201.712 278.09C200.8 278.09 199.978 277.886 199.246 277.478C198.526 277.058 197.956 276.488 197.536 275.768C197.116 275.036 196.906 274.202 196.906 273.266C196.906 272.318 197.116 271.484 197.536 270.764C197.956 270.044 198.526 269.48 199.246 269.072C199.966 268.664 200.788 268.46 201.712 268.46C202.648 268.46 203.476 268.664 204.196 269.072C204.928 269.48 205.498 270.044 205.906 270.764C206.326 271.484 206.536 272.318 206.536 273.266C206.536 274.202 206.326 275.036 205.906 275.768C205.498 276.488 204.928 277.058 204.196 277.478C203.464 277.886 202.636 278.09 201.712 278.09ZM201.712 276.956C202.396 276.956 203.002 276.806 203.53 276.506C204.058 276.194 204.472 275.762 204.772 275.21C205.084 274.646 205.24 273.998 205.24 273.266C205.24 272.522 205.084 271.874 204.772 271.322C204.472 270.77 204.058 270.344 203.53 270.044C203.002 269.732 202.402 269.576 201.73 269.576C201.058 269.576 200.458 269.732 199.93 270.044C199.402 270.344 198.982 270.77 198.67 271.322C198.358 271.874 198.202 272.522 198.202 273.266C198.202 273.998 198.358 274.646 198.67 275.21C198.982 275.762 199.402 276.194 199.93 276.506C200.458 276.806 201.052 276.956 201.712 276.956ZM209.145 278V268.55H210.369V271.124L210.243 270.674C210.507 269.954 210.951 269.408 211.575 269.036C212.199 268.652 212.973 268.46 213.897 268.46V269.702C213.849 269.702 213.801 269.702 213.753 269.702C213.705 269.69 213.657 269.684 213.609 269.684C212.613 269.684 211.833 269.99 211.269 270.602C210.705 271.202 210.423 272.06 210.423 273.176V278H209.145ZM222.431 278V265.94L223.007 266.552H219.461V265.4H223.727V278H222.431Z" fill="#454545"/>
<rect x="241" y="265" width="14" height="14" rx="2" fill="#80DA39"/>
<path d="M271.524 278.108C270.576 278.108 269.7 277.952 268.896 277.64C268.092 277.316 267.396 276.866 266.808 276.29C266.22 275.714 265.758 275.036 265.422 274.256C265.098 273.476 264.936 272.624 264.936 271.7C264.936 270.776 265.098 269.924 265.422 269.144C265.758 268.364 266.22 267.686 266.808 267.11C267.408 266.534 268.11 266.09 268.914 265.778C269.718 265.454 270.594 265.292 271.542 265.292C272.454 265.292 273.312 265.448 274.116 265.76C274.92 266.06 275.598 266.516 276.15 267.128L275.304 267.974C274.788 267.446 274.218 267.068 273.594 266.84C272.97 266.6 272.298 266.48 271.578 266.48C270.822 266.48 270.12 266.612 269.472 266.876C268.824 267.128 268.26 267.494 267.78 267.974C267.3 268.442 266.922 268.994 266.646 269.63C266.382 270.254 266.25 270.944 266.25 271.7C266.25 272.456 266.382 273.152 266.646 273.788C266.922 274.412 267.3 274.964 267.78 275.444C268.26 275.912 268.824 276.278 269.472 276.542C270.12 276.794 270.822 276.92 271.578 276.92C272.298 276.92 272.97 276.8 273.594 276.56C274.218 276.32 274.788 275.936 275.304 275.408L276.15 276.254C275.598 276.866 274.92 277.328 274.116 277.64C273.312 277.952 272.448 278.108 271.524 278.108ZM282.15 278.09C281.238 278.09 280.416 277.886 279.684 277.478C278.964 277.058 278.394 276.488 277.974 275.768C277.554 275.036 277.344 274.202 277.344 273.266C277.344 272.318 277.554 271.484 277.974 270.764C278.394 270.044 278.964 269.48 279.684 269.072C280.404 268.664 281.226 268.46 282.15 268.46C283.086 268.46 283.914 268.664 284.634 269.072C285.366 269.48 285.936 270.044 286.344 270.764C286.764 271.484 286.974 272.318 286.974 273.266C286.974 274.202 286.764 275.036 286.344 275.768C285.936 276.488 285.366 277.058 284.634 277.478C283.902 277.886 283.074 278.09 282.15 278.09ZM282.15 276.956C282.834 276.956 283.44 276.806 283.968 276.506C284.496 276.194 284.91 275.762 285.21 275.21C285.522 274.646 285.678 273.998 285.678 273.266C285.678 272.522 285.522 271.874 285.21 271.322C284.91 270.77 284.496 270.344 283.968 270.044C283.44 269.732 282.84 269.576 282.168 269.576C281.496 269.576 280.896 269.732 280.368 270.044C279.84 270.344 279.42 270.77 279.108 271.322C278.796 271.874 278.64 272.522 278.64 273.266C278.64 273.998 278.796 274.646 279.108 275.21C279.42 275.762 279.84 276.194 280.368 276.506C280.896 276.806 281.49 276.956 282.15 276.956ZM301.391 268.46C302.159 268.46 302.825 268.61 303.389 268.91C303.965 269.198 304.409 269.642 304.721 270.242C305.045 270.842 305.207 271.598 305.207 272.51V278H303.929V272.636C303.929 271.64 303.689 270.89 303.209 270.386C302.741 269.87 302.075 269.612 301.211 269.612C300.563 269.612 299.999 269.75 299.519 270.026C299.051 270.29 298.685 270.68 298.421 271.196C298.169 271.7 298.043 272.312 298.043 273.032V278H296.765V272.636C296.765 271.64 296.525 270.89 296.045 270.386C295.565 269.87 294.893 269.612 294.029 269.612C293.393 269.612 292.835 269.75 292.355 270.026C291.875 270.29 291.503 270.68 291.239 271.196C290.987 271.7 290.861 272.312 290.861 273.032V278H289.583V268.55H290.807V271.106L290.609 270.656C290.897 269.972 291.359 269.438 291.995 269.054C292.643 268.658 293.405 268.46 294.281 268.46C295.205 268.46 295.991 268.694 296.639 269.162C297.287 269.618 297.707 270.308 297.899 271.232L297.395 271.034C297.671 270.266 298.157 269.648 298.853 269.18C299.561 268.7 300.407 268.46 301.391 268.46ZM313.551 278.09C312.735 278.09 311.997 277.904 311.337 277.532C310.677 277.148 310.149 276.602 309.753 275.894C309.369 275.174 309.177 274.298 309.177 273.266C309.177 272.234 309.369 271.364 309.753 270.656C310.137 269.936 310.659 269.39 311.319 269.018C311.979 268.646 312.723 268.46 313.551 268.46C314.451 268.46 315.255 268.664 315.963 269.072C316.683 269.468 317.247 270.032 317.655 270.764C318.063 271.484 318.267 272.318 318.267 273.266C318.267 274.226 318.063 275.066 317.655 275.786C317.247 276.506 316.683 277.07 315.963 277.478C315.255 277.886 314.451 278.09 313.551 278.09ZM308.673 281.492V268.55H309.897V271.394L309.771 273.284L309.951 275.192V281.492H308.673ZM313.461 276.956C314.133 276.956 314.733 276.806 315.261 276.506C315.789 276.194 316.209 275.762 316.521 275.21C316.833 274.646 316.989 273.998 316.989 273.266C316.989 272.534 316.833 271.892 316.521 271.34C316.209 270.788 315.789 270.356 315.261 270.044C314.733 269.732 314.133 269.576 313.461 269.576C312.789 269.576 312.183 269.732 311.643 270.044C311.115 270.356 310.695 270.788 310.383 271.34C310.083 271.892 309.933 272.534 309.933 273.266C309.933 273.998 310.083 274.646 310.383 275.21C310.695 275.762 311.115 276.194 311.643 276.506C312.183 276.806 312.789 276.956 313.461 276.956ZM324.886 278.09C323.902 278.09 323.038 277.886 322.294 277.478C321.55 277.058 320.968 276.488 320.548 275.768C320.128 275.036 319.918 274.202 319.918 273.266C319.918 272.33 320.116 271.502 320.512 270.782C320.92 270.062 321.472 269.498 322.168 269.09C322.876 268.67 323.668 268.46 324.544 268.46C325.432 268.46 326.218 268.664 326.902 269.072C327.598 269.468 328.144 270.032 328.54 270.764C328.936 271.484 329.134 272.318 329.134 273.266C329.134 273.326 329.128 273.392 329.116 273.464C329.116 273.524 329.116 273.59 329.116 273.662H320.89V272.708H328.432L327.928 273.086C327.928 272.402 327.778 271.796 327.478 271.268C327.19 270.728 326.794 270.308 326.29 270.008C325.786 269.708 325.204 269.558 324.544 269.558C323.896 269.558 323.314 269.708 322.798 270.008C322.282 270.308 321.88 270.728 321.592 271.268C321.304 271.808 321.16 272.426 321.16 273.122V273.32C321.16 274.04 321.316 274.676 321.628 275.228C321.952 275.768 322.396 276.194 322.96 276.506C323.536 276.806 324.19 276.956 324.922 276.956C325.498 276.956 326.032 276.854 326.524 276.65C327.028 276.446 327.46 276.134 327.82 275.714L328.54 276.542C328.12 277.046 327.592 277.43 326.956 277.694C326.332 277.958 325.642 278.09 324.886 278.09ZM334.723 278.09C333.835 278.09 333.151 277.85 332.671 277.37C332.191 276.89 331.951 276.212 331.951 275.336V266.462H333.229V275.264C333.229 275.816 333.367 276.242 333.643 276.542C333.931 276.842 334.339 276.992 334.867 276.992C335.431 276.992 335.899 276.83 336.271 276.506L336.721 277.424C336.469 277.652 336.163 277.82 335.803 277.928C335.455 278.036 335.095 278.09 334.723 278.09ZM330.259 269.612V268.55H336.109V269.612H330.259ZM339.048 278V268.55H340.326V278H339.048ZM339.696 266.462C339.432 266.462 339.21 266.372 339.03 266.192C338.85 266.012 338.76 265.796 338.76 265.544C338.76 265.292 338.85 265.082 339.03 264.914C339.21 264.734 339.432 264.644 339.696 264.644C339.96 264.644 340.182 264.728 340.362 264.896C340.542 265.064 340.632 265.274 340.632 265.526C340.632 265.79 340.542 266.012 340.362 266.192C340.194 266.372 339.972 266.462 339.696 266.462ZM346.87 278.09C345.982 278.09 345.298 277.85 344.818 277.37C344.338 276.89 344.098 276.212 344.098 275.336V266.462H345.376V275.264C345.376 275.816 345.514 276.242 345.79 276.542C346.078 276.842 346.486 276.992 347.014 276.992C347.578 276.992 348.046 276.83 348.418 276.506L348.868 277.424C348.616 277.652 348.31 277.82 347.95 277.928C347.602 278.036 347.242 278.09 346.87 278.09ZM342.406 269.612V268.55H348.256V269.612H342.406ZM354.712 278.09C353.8 278.09 352.978 277.886 352.246 277.478C351.526 277.058 350.956 276.488 350.536 275.768C350.116 275.036 349.906 274.202 349.906 273.266C349.906 272.318 350.116 271.484 350.536 270.764C350.956 270.044 351.526 269.48 352.246 269.072C352.966 268.664 353.788 268.46 354.712 268.46C355.648 268.46 356.476 268.664 357.196 269.072C357.928 269.48 358.498 270.044 358.906 270.764C359.326 271.484 359.536 272.318 359.536 273.266C359.536 274.202 359.326 275.036 358.906 275.768C358.498 276.488 357.928 277.058 357.196 277.478C356.464 277.886 355.636 278.09 354.712 278.09ZM354.712 276.956C355.396 276.956 356.002 276.806 356.53 276.506C357.058 276.194 357.472 275.762 357.772 275.21C358.084 274.646 358.24 273.998 358.24 273.266C358.24 272.522 358.084 271.874 357.772 271.322C357.472 270.77 357.058 270.344 356.53 270.044C356.002 269.732 355.402 269.576 354.73 269.576C354.058 269.576 353.458 269.732 352.93 270.044C352.402 270.344 351.982 270.77 351.67 271.322C351.358 271.874 351.202 272.522 351.202 273.266C351.202 273.998 351.358 274.646 351.67 275.21C351.982 275.762 352.402 276.194 352.93 276.506C353.458 276.806 354.052 276.956 354.712 276.956ZM362.145 278V268.55H363.369V271.124L363.243 270.674C363.507 269.954 363.951 269.408 364.575 269.036C365.199 268.652 365.973 268.46 366.897 268.46V269.702C366.849 269.702 366.801 269.702 366.753 269.702C366.705 269.69 366.657 269.684 366.609 269.684C365.613 269.684 364.833 269.99 364.269 270.602C363.705 271.202 363.423 272.06 363.423 273.176V278H362.145ZM373.001 278V277.082L378.239 271.952C378.719 271.484 379.079 271.076 379.319 270.728C379.559 270.368 379.721 270.032 379.805 269.72C379.889 269.408 379.931 269.114 379.931 268.838C379.931 268.106 379.679 267.53 379.175 267.11C378.683 266.69 377.951 266.48 376.979 266.48C376.235 266.48 375.575 266.594 374.999 266.822C374.435 267.05 373.949 267.404 373.541 267.884L372.623 267.092C373.115 266.516 373.745 266.072 374.513 265.76C375.281 265.448 376.139 265.292 377.087 265.292C377.939 265.292 378.677 265.43 379.301 265.706C379.925 265.97 380.405 266.36 380.741 266.876C381.089 267.392 381.263 267.998 381.263 268.694C381.263 269.102 381.203 269.504 381.083 269.9C380.975 270.296 380.771 270.716 380.471 271.16C380.183 271.592 379.757 272.084 379.193 272.636L374.387 277.352L374.027 276.848H381.839V278H373.001Z" fill="#454545"/>
<rect x="398" y="265" width="14" height="14" rx="2" fill="#0FA7F0"/>
<path d="M423.052 278V265.4H424.15L429.91 275.228H429.334L435.04 265.4H436.138V278H434.86V267.398H435.166L429.91 276.398H429.28L423.988 267.398H424.33V278H423.052ZM440.045 281.582C439.601 281.582 439.175 281.51 438.767 281.366C438.371 281.222 438.029 281.006 437.741 280.718L438.335 279.764C438.575 279.992 438.833 280.166 439.109 280.286C439.397 280.418 439.715 280.484 440.063 280.484C440.483 280.484 440.843 280.364 441.143 280.124C441.455 279.896 441.749 279.488 442.025 278.9L442.637 277.514L442.781 277.316L446.669 268.55H447.929L443.195 279.134C442.931 279.746 442.637 280.232 442.313 280.592C442.001 280.952 441.659 281.204 441.287 281.348C440.915 281.504 440.501 281.582 440.045 281.582ZM442.565 278.27L438.209 268.55H439.541L443.393 277.226L442.565 278.27ZM454.44 278V268.55H455.718V278H454.44ZM455.088 266.462C454.824 266.462 454.602 266.372 454.422 266.192C454.242 266.012 454.152 265.796 454.152 265.544C454.152 265.292 454.242 265.082 454.422 264.914C454.602 264.734 454.824 264.644 455.088 264.644C455.352 264.644 455.574 264.728 455.754 264.896C455.934 265.064 456.024 265.274 456.024 265.526C456.024 265.79 455.934 266.012 455.754 266.192C455.586 266.372 455.364 266.462 455.088 266.462ZM462.262 278.09C461.374 278.09 460.69 277.85 460.21 277.37C459.73 276.89 459.49 276.212 459.49 275.336V266.462H460.768V275.264C460.768 275.816 460.906 276.242 461.182 276.542C461.47 276.842 461.878 276.992 462.406 276.992C462.97 276.992 463.438 276.83 463.81 276.506L464.26 277.424C464.008 277.652 463.702 277.82 463.342 277.928C462.994 278.036 462.634 278.09 462.262 278.09ZM457.798 269.612V268.55H463.648V269.612H457.798ZM470.267 278.09C469.283 278.09 468.419 277.886 467.675 277.478C466.931 277.058 466.349 276.488 465.929 275.768C465.509 275.036 465.299 274.202 465.299 273.266C465.299 272.33 465.497 271.502 465.893 270.782C466.301 270.062 466.853 269.498 467.549 269.09C468.257 268.67 469.049 268.46 469.925 268.46C470.813 268.46 471.599 268.664 472.283 269.072C472.979 269.468 473.525 270.032 473.921 270.764C474.317 271.484 474.515 272.318 474.515 273.266C474.515 273.326 474.509 273.392 474.497 273.464C474.497 273.524 474.497 273.59 474.497 273.662H466.271V272.708H473.813L473.309 273.086C473.309 272.402 473.159 271.796 472.859 271.268C472.571 270.728 472.175 270.308 471.671 270.008C471.167 269.708 470.585 269.558 469.925 269.558C469.277 269.558 468.695 269.708 468.179 270.008C467.663 270.308 467.261 270.728 466.973 271.268C466.685 271.808 466.541 272.426 466.541 273.122V273.32C466.541 274.04 466.697 274.676 467.009 275.228C467.333 275.768 467.777 276.194 468.341 276.506C468.917 276.806 469.571 276.956 470.303 276.956C470.879 276.956 471.413 276.854 471.905 276.65C472.409 276.446 472.841 276.134 473.201 275.714L473.921 276.542C473.501 277.046 472.973 277.43 472.337 277.694C471.713 277.958 471.023 278.09 470.267 278.09ZM488.924 268.46C489.692 268.46 490.358 268.61 490.922 268.91C491.498 269.198 491.942 269.642 492.254 270.242C492.578 270.842 492.74 271.598 492.74 272.51V278H491.462V272.636C491.462 271.64 491.222 270.89 490.742 270.386C490.274 269.87 489.608 269.612 488.744 269.612C488.096 269.612 487.532 269.75 487.052 270.026C486.584 270.29 486.218 270.68 485.954 271.196C485.702 271.7 485.576 272.312 485.576 273.032V278H484.298V272.636C484.298 271.64 484.058 270.89 483.578 270.386C483.098 269.87 482.426 269.612 481.562 269.612C480.926 269.612 480.368 269.75 479.888 270.026C479.408 270.29 479.036 270.68 478.772 271.196C478.52 271.7 478.394 272.312 478.394 273.032V278H477.116V268.55H478.34V271.106L478.142 270.656C478.43 269.972 478.892 269.438 479.528 269.054C480.176 268.658 480.938 268.46 481.814 268.46C482.738 268.46 483.524 268.694 484.172 269.162C484.82 269.618 485.24 270.308 485.432 271.232L484.928 271.034C485.204 270.266 485.69 269.648 486.386 269.18C487.094 268.7 487.94 268.46 488.924 268.46Z" fill="#454545"/>
<path d="M39.6597 122.712C39.6597 121.848 40.0377 121.104 40.7937 120.48C41.5497 119.856 42.6597 119.544 44.1237 119.544C45.4797 119.544 46.5717 119.874 47.3997 120.534C48.2277 121.194 48.6537 121.986 48.6777 122.91C48.7137 124.17 48.1557 125.202 47.0037 126.006C48.4077 126.702 49.1097 127.662 49.1097 128.886C49.1097 129.822 48.6957 130.614 47.8677 131.262C47.0517 131.898 45.8397 132.216 44.2317 132.216C42.6357 132.216 41.3997 131.868 40.5237 131.172C39.6597 130.476 39.2277 129.63 39.2277 128.634C39.2277 128.034 39.4017 127.44 39.7497 126.852C40.1097 126.252 40.6317 125.748 41.3157 125.34C40.2117 124.668 39.6597 123.792 39.6597 122.712ZM44.3037 126.492C43.6797 126.324 43.1097 126.144 42.5937 125.952C41.9937 126.24 41.5317 126.612 41.2077 127.068C40.8957 127.524 40.7397 127.992 40.7397 128.472C40.7397 129.204 41.0397 129.78 41.6397 130.2C42.2517 130.608 43.1277 130.812 44.2677 130.812C45.2277 130.812 46.0197 130.644 46.6437 130.308C47.2797 129.96 47.5977 129.51 47.5977 128.958C47.5977 128.49 47.4297 128.094 47.0937 127.77C46.7697 127.434 46.4517 127.206 46.1397 127.086C45.8277 126.966 45.3117 126.798 44.5917 126.582C44.4597 126.546 44.3637 126.516 44.3037 126.492ZM47.1657 123.18C47.1657 122.544 46.8957 122.016 46.3557 121.596C45.8157 121.164 45.0597 120.948 44.0877 120.948C43.1997 120.948 42.4917 121.116 41.9637 121.452C41.4357 121.776 41.1717 122.19 41.1717 122.694C41.1717 123.042 41.2437 123.348 41.3877 123.612C41.5437 123.864 41.7717 124.08 42.0717 124.26C42.3837 124.428 42.6657 124.566 42.9177 124.674C43.1697 124.77 43.5057 124.878 43.9257 124.998C43.9737 125.01 44.0097 125.022 44.0337 125.034C44.0577 125.034 44.0877 125.04 44.1237 125.052C44.1597 125.064 44.1957 125.076 44.2317 125.088C44.2677 125.1 44.4717 125.16 44.8437 125.268C45.2277 125.364 45.5217 125.442 45.7257 125.502C46.6857 124.878 47.1657 124.104 47.1657 123.18Z" fill="#454545"/>
<path d="M39.5219 63.558C39.5219 62.298 39.9359 61.314 40.7639 60.606C41.6039 59.898 42.6539 59.544 43.9139 59.544C45.6419 59.544 46.9319 60.084 47.7839 61.164C48.6479 62.232 49.0799 63.738 49.0799 65.682C49.0799 67.842 48.5639 69.474 47.5319 70.578C46.5119 71.67 45.1739 72.216 43.5179 72.216C42.4499 72.216 41.4599 71.982 40.5479 71.514V70.074C41.4359 70.542 42.4139 70.776 43.4819 70.776C44.6099 70.776 45.5459 70.416 46.2899 69.696C47.0459 68.964 47.4659 67.806 47.5499 66.222C46.3739 67.002 45.0959 67.392 43.7159 67.392C42.5999 67.392 41.6219 67.056 40.7819 66.384C39.9419 65.7 39.5219 64.758 39.5219 63.558ZM44.0219 60.948C43.1339 60.948 42.4139 61.152 41.8619 61.56C41.3219 61.968 41.0519 62.61 41.0519 63.486C41.0519 64.374 41.3339 65.016 41.8979 65.412C42.4619 65.796 43.1939 65.988 44.0939 65.988C45.4259 65.988 46.5719 65.562 47.5319 64.71C47.3039 62.202 46.1339 60.948 44.0219 60.948Z" fill="#454545"/>
<path d="M40.8005 177.76H49.6205V179.128L44.5085 190H42.8885L47.9645 179.2H40.8005V177.76Z" fill="#454545"/>
<path d="M66.5 215.5H111.5L139.5 187.5H161.5L210.5 138.5H236.5L280 95H318.5L348 65.5H414.5L432 48H501H569" stroke="#F28100" stroke-width="2"/>
<path d="M66.5 201.5H91.5L106 187L119 174H211L222.5 162.5H244L261.5 145H293L327 111H381L394 124H422.5L435.5 111H469.5L489 130.5L529 90.5H569.5" stroke="#80DA39" stroke-width="2"/>
<path d="M66.5 167H92L99 160H208.5L223 145.5H263.5L274.5 156.5H338L349 145.5H400L409.5 136H431H460L472.5 148.5H501.5L514 136H568" stroke="#0FA7F0" stroke-width="2"/>
</svg>
