<svg width="619" height="323" viewBox="0 0 619 323" fill="none" xmlns="http://www.w3.org/2000/svg">
<rect width="619" height="323" rx="20" fill="white"/>
<path d="M305.381 74.6667L397.543 141.626L362.34 249.969H248.422L213.219 141.626L305.381 74.6667Z" stroke="#DDDDE6" stroke-width="1.7619"/>
<path d="M305.381 74.6667L397.543 141.626L362.34 249.969H248.422L213.219 141.626L305.381 74.6667Z" stroke="#DDDDE6" stroke-width="0.880952"/>
<path d="M305.381 108.143L365.705 151.971L342.663 222.886H268.099L245.057 151.971L305.381 108.143Z" stroke="#DDDDE6" stroke-width="0.880952" stroke-linecap="round" stroke-dasharray="6.17 6.17"/>
<path d="M308.998 101.976L360.881 154.655V232.357L263.101 224.016L212.881 141.924L308.998 101.976Z" fill="#0FA7F0" fill-opacity="0.1" stroke="#0FA7F0" stroke-width="1.7619" stroke-linecap="round"/>
<path d="M305.381 140.772L345.901 162.054L330.424 196.488H280.338L264.861 162.054L305.381 140.772Z" stroke="#DDDDE6" stroke-width="0.880952" stroke-linecap="round" stroke-dasharray="6.17 6.17"/>
<path d="M276.412 64L278.632 52.9H282.612C283.87 52.9 284.842 53.1749 285.53 53.7246C286.227 54.2743 286.576 55.046 286.576 56.0397C286.576 56.9911 286.365 57.7999 285.942 58.4659C285.53 59.1213 284.938 59.6234 284.166 59.9723C283.394 60.3211 282.48 60.4956 281.423 60.4956H277.76L278.394 59.9406L277.569 64H276.412ZM278.362 60.0357L277.95 59.4649H281.438C282.696 59.4649 283.669 59.1847 284.356 58.6244C285.054 58.0641 285.403 57.2396 285.403 56.1507C285.403 55.4213 285.154 54.8663 284.657 54.4857C284.161 54.1051 283.447 53.9149 282.517 53.9149H279.092L279.71 53.3281L278.362 60.0357ZM293.28 55.5957C294.031 55.5957 294.644 55.7437 295.12 56.0397C295.606 56.3251 295.939 56.7427 296.119 57.2924C296.309 57.8421 296.325 58.4976 296.166 59.2587L295.215 64H294.089L295.04 59.2429C295.209 58.4183 295.12 57.7734 294.771 57.3083C294.432 56.8431 293.83 56.6106 292.963 56.6106C292.075 56.6106 291.335 56.8537 290.743 57.34C290.162 57.8263 289.77 58.5557 289.57 59.5283L288.682 64H287.556L289.903 52.234H291.028L289.855 58.0694L289.57 57.6571C289.971 56.9383 290.489 56.415 291.124 56.0873C291.768 55.7596 292.487 55.5957 293.28 55.5957ZM301.982 64.0793C301.211 64.0793 300.539 63.9366 299.968 63.6511C299.408 63.3551 298.969 62.9429 298.652 62.4143C298.346 61.8857 298.192 61.262 298.192 60.5431C298.192 59.5917 298.399 58.746 298.811 58.006C299.223 57.2554 299.794 56.6687 300.523 56.2459C301.253 55.8124 302.083 55.5957 303.013 55.5957C303.785 55.5957 304.451 55.7384 305.011 56.0239C305.582 56.3093 306.021 56.7163 306.327 57.2449C306.644 57.7734 306.803 58.3971 306.803 59.116C306.803 60.0674 306.597 60.9184 306.184 61.669C305.772 62.409 305.201 62.9957 304.472 63.4291C303.753 63.8626 302.923 64.0793 301.982 64.0793ZM302.062 63.0803C302.759 63.0803 303.378 62.9164 303.917 62.5887C304.467 62.2504 304.895 61.7853 305.201 61.1933C305.518 60.6013 305.677 59.93 305.677 59.1794C305.677 58.3549 305.434 57.7153 304.948 57.2607C304.472 56.8061 303.801 56.5789 302.934 56.5789C302.247 56.5789 301.628 56.748 301.078 57.0863C300.529 57.4246 300.095 57.8897 299.778 58.4817C299.472 59.0631 299.318 59.7344 299.318 60.4956C299.318 61.3096 299.556 61.9439 300.032 62.3984C300.518 62.853 301.195 63.0803 302.062 63.0803ZM310.861 64.0793C310.386 64.0793 309.979 63.9789 309.64 63.778C309.302 63.5666 309.064 63.2706 308.927 62.89C308.8 62.5094 308.789 62.0549 308.895 61.5263L310.417 53.8356H311.543L310.021 61.4787C309.915 61.9967 309.952 62.3984 310.132 62.6839C310.322 62.9693 310.666 63.112 311.163 63.112C311.395 63.112 311.623 63.0803 311.845 63.0169C312.067 62.9429 312.267 62.8319 312.447 62.6839L312.717 63.5401C312.452 63.741 312.156 63.8837 311.829 63.9683C311.501 64.0423 311.179 64.0793 310.861 64.0793ZM308.388 56.6106L308.562 55.675H313.716L313.525 56.6106H308.388ZM318.072 64.0793C317.3 64.0793 316.629 63.9366 316.058 63.6511C315.498 63.3551 315.059 62.9429 314.742 62.4143C314.435 61.8857 314.282 61.262 314.282 60.5431C314.282 59.5917 314.488 58.746 314.9 58.006C315.313 57.2554 315.883 56.6687 316.613 56.2459C317.342 55.8124 318.172 55.5957 319.102 55.5957C319.874 55.5957 320.54 55.7384 321.1 56.0239C321.671 56.3093 322.11 56.7163 322.417 57.2449C322.734 57.7734 322.892 58.3971 322.892 59.116C322.892 60.0674 322.686 60.9184 322.274 61.669C321.862 62.409 321.291 62.9957 320.561 63.4291C319.842 63.8626 319.013 64.0793 318.072 64.0793ZM318.151 63.0803C318.849 63.0803 319.467 62.9164 320.006 62.5887C320.556 62.2504 320.984 61.7853 321.291 61.1933C321.608 60.6013 321.766 59.93 321.766 59.1794C321.766 58.3549 321.523 57.7153 321.037 57.2607C320.561 56.8061 319.89 56.5789 319.023 56.5789C318.336 56.5789 317.718 56.748 317.168 57.0863C316.618 57.4246 316.185 57.8897 315.868 58.4817C315.561 59.0631 315.408 59.7344 315.408 60.4956C315.408 61.3096 315.646 61.9439 316.121 62.3984C316.608 62.853 317.284 63.0803 318.151 63.0803Z" fill="#454545"/>
<rect x="286.881" y="94.0476" width="43.1667" height="29.0714" rx="14.5357" fill="#0FA7F0"/>
<path d="M299.232 113.221C298.56 113.221 297.972 113.121 297.468 112.923C296.965 112.717 296.571 112.43 296.289 112.064C296.006 111.69 295.865 111.255 295.865 110.758C295.865 110.262 296.003 109.842 296.277 109.499C296.56 109.147 296.953 108.884 297.457 108.708C297.961 108.525 298.553 108.434 299.232 108.434C299.919 108.434 300.515 108.525 301.019 108.708C301.53 108.884 301.923 109.147 302.198 109.499C302.481 109.842 302.622 110.262 302.622 110.758C302.622 111.255 302.481 111.69 302.198 112.064C301.916 112.43 301.519 112.717 301.007 112.923C300.503 113.121 299.912 113.221 299.232 113.221ZM299.232 111.858C299.698 111.858 300.064 111.755 300.332 111.549C300.606 111.342 300.744 111.06 300.744 110.701C300.744 110.342 300.606 110.064 300.332 109.865C300.064 109.659 299.698 109.556 299.232 109.556C298.774 109.556 298.411 109.659 298.144 109.865C297.877 110.064 297.743 110.342 297.743 110.701C297.743 111.06 297.877 111.342 298.144 111.549C298.411 111.755 298.774 111.858 299.232 111.858ZM299.232 109.373C298.614 109.373 298.072 109.289 297.606 109.121C297.148 108.953 296.789 108.708 296.529 108.388C296.277 108.059 296.151 107.67 296.151 107.22C296.151 106.746 296.281 106.342 296.541 106.006C296.8 105.662 297.163 105.399 297.629 105.215C298.095 105.025 298.629 104.929 299.232 104.929C299.851 104.929 300.389 105.025 300.847 105.215C301.313 105.399 301.675 105.662 301.935 106.006C302.202 106.342 302.336 106.746 302.336 107.22C302.336 107.67 302.206 108.059 301.946 108.388C301.694 108.708 301.336 108.953 300.87 109.121C300.404 109.289 299.858 109.373 299.232 109.373ZM299.232 108.285C299.622 108.285 299.927 108.197 300.148 108.021C300.377 107.846 300.492 107.605 300.492 107.3C300.492 106.979 300.374 106.731 300.137 106.555C299.908 106.38 299.606 106.292 299.232 106.292C298.866 106.292 298.568 106.38 298.339 106.555C298.11 106.731 297.995 106.979 297.995 107.3C297.995 107.605 298.106 107.846 298.327 108.021C298.549 108.197 298.85 108.285 299.232 108.285ZM306.907 113.221C306.25 113.221 305.663 113.06 305.143 112.74C304.624 112.411 304.216 111.938 303.918 111.32C303.62 110.701 303.471 109.953 303.471 109.075C303.471 108.197 303.62 107.449 303.918 106.83C304.216 106.212 304.624 105.742 305.143 105.422C305.663 105.093 306.25 104.929 306.907 104.929C307.571 104.929 308.159 105.093 308.671 105.422C309.19 105.742 309.598 106.212 309.896 106.83C310.194 107.449 310.343 108.197 310.343 109.075C310.343 109.953 310.194 110.701 309.896 111.32C309.598 111.938 309.19 112.411 308.671 112.74C308.159 113.06 307.571 113.221 306.907 113.221ZM306.907 111.652C307.22 111.652 307.491 111.564 307.72 111.388C307.957 111.213 308.14 110.934 308.27 110.552C308.407 110.171 308.476 109.678 308.476 109.075C308.476 108.472 308.407 107.979 308.27 107.598C308.14 107.216 307.957 106.937 307.72 106.762C307.491 106.586 307.22 106.498 306.907 106.498C306.602 106.498 306.331 106.586 306.094 106.762C305.865 106.937 305.682 107.216 305.544 107.598C305.414 107.979 305.349 108.472 305.349 109.075C305.349 109.678 305.414 110.171 305.544 110.552C305.682 110.934 305.865 111.213 306.094 111.388C306.331 111.564 306.602 111.652 306.907 111.652ZM312.401 113.083L317.875 105.067H319.238L313.764 113.083H312.401ZM313.099 109.396C312.71 109.396 312.366 109.308 312.069 109.132C311.771 108.949 311.534 108.693 311.359 108.365C311.191 108.029 311.107 107.636 311.107 107.185C311.107 106.735 311.191 106.345 311.359 106.017C311.534 105.689 311.771 105.433 312.069 105.25C312.366 105.067 312.71 104.975 313.099 104.975C313.489 104.975 313.832 105.067 314.13 105.25C314.428 105.433 314.661 105.689 314.829 106.017C314.997 106.345 315.081 106.735 315.081 107.185C315.081 107.636 314.997 108.029 314.829 108.365C314.661 108.693 314.428 108.949 314.13 109.132C313.832 109.308 313.489 109.396 313.099 109.396ZM313.099 108.456C313.351 108.456 313.554 108.353 313.706 108.147C313.859 107.933 313.935 107.613 313.935 107.185C313.935 106.758 313.859 106.441 313.706 106.235C313.554 106.021 313.351 105.914 313.099 105.914C312.855 105.914 312.653 106.021 312.492 106.235C312.34 106.441 312.263 106.758 312.263 107.185C312.263 107.605 312.34 107.922 312.492 108.136C312.653 108.35 312.855 108.456 313.099 108.456ZM318.539 113.175C318.158 113.175 317.814 113.087 317.509 112.911C317.211 112.728 316.978 112.472 316.81 112.144C316.642 111.808 316.558 111.415 316.558 110.965C316.558 110.514 316.642 110.125 316.81 109.796C316.978 109.468 317.211 109.212 317.509 109.029C317.814 108.846 318.158 108.754 318.539 108.754C318.936 108.754 319.284 108.846 319.581 109.029C319.879 109.212 320.112 109.468 320.28 109.796C320.448 110.125 320.532 110.514 320.532 110.965C320.532 111.415 320.448 111.808 320.28 112.144C320.112 112.472 319.879 112.728 319.581 112.911C319.284 113.087 318.936 113.175 318.539 113.175ZM318.539 112.236C318.791 112.236 318.994 112.133 319.146 111.927C319.299 111.713 319.375 111.392 319.375 110.965C319.375 110.545 319.299 110.228 319.146 110.014C318.994 109.8 318.791 109.693 318.539 109.693C318.295 109.693 318.093 109.8 317.932 110.014C317.78 110.22 317.703 110.537 317.703 110.965C317.703 111.392 317.78 111.713 317.932 111.927C318.093 112.133 318.295 112.236 318.539 112.236Z" fill="white"/>
<rect x="335.333" y="138.095" width="43.1667" height="29.0714" rx="14.5357" fill="#0FA7F0"/>
<path d="M347.948 157.268C347.215 157.268 346.577 157.116 346.035 156.81C345.501 156.505 345.089 156.058 344.799 155.47C344.508 154.882 344.363 154.157 344.363 153.294C344.363 152.37 344.535 151.588 344.879 150.947C345.23 150.305 345.711 149.817 346.322 149.481C346.94 149.145 347.65 148.977 348.452 148.977C348.879 148.977 349.288 149.023 349.677 149.114C350.067 149.206 350.403 149.343 350.685 149.526L349.998 150.889C349.776 150.737 349.54 150.634 349.288 150.58C349.036 150.519 348.772 150.488 348.498 150.488C347.803 150.488 347.253 150.698 346.848 151.118C346.444 151.538 346.242 152.161 346.242 152.985C346.242 153.123 346.242 153.275 346.242 153.443C346.249 153.611 346.272 153.779 346.31 153.947L345.795 153.466C345.94 153.168 346.127 152.92 346.356 152.722C346.585 152.516 346.856 152.363 347.169 152.264C347.49 152.157 347.841 152.103 348.223 152.103C348.742 152.103 349.208 152.206 349.62 152.412C350.032 152.619 350.361 152.909 350.605 153.283C350.857 153.657 350.983 154.096 350.983 154.6C350.983 155.142 350.845 155.615 350.571 156.02C350.303 156.417 349.941 156.726 349.483 156.948C349.032 157.161 348.521 157.268 347.948 157.268ZM347.845 155.883C348.104 155.883 348.333 155.837 348.532 155.745C348.738 155.646 348.898 155.505 349.013 155.321C349.128 155.138 349.185 154.928 349.185 154.692C349.185 154.325 349.059 154.035 348.807 153.821C348.563 153.6 348.234 153.489 347.822 153.489C347.547 153.489 347.307 153.542 347.1 153.649C346.894 153.749 346.73 153.89 346.608 154.073C346.493 154.249 346.436 154.455 346.436 154.692C346.436 154.921 346.493 155.127 346.608 155.31C346.723 155.486 346.883 155.627 347.089 155.734C347.295 155.833 347.547 155.883 347.845 155.883ZM355.091 157.268C354.434 157.268 353.846 157.108 353.327 156.787C352.808 156.459 352.4 155.986 352.102 155.367C351.804 154.749 351.655 154.001 351.655 153.123C351.655 152.245 351.804 151.496 352.102 150.878C352.4 150.259 352.808 149.79 353.327 149.469C353.846 149.141 354.434 148.977 355.091 148.977C355.755 148.977 356.343 149.141 356.855 149.469C357.374 149.79 357.782 150.259 358.08 150.878C358.378 151.496 358.527 152.245 358.527 153.123C358.527 154.001 358.378 154.749 358.08 155.367C357.782 155.986 357.374 156.459 356.855 156.787C356.343 157.108 355.755 157.268 355.091 157.268ZM355.091 155.699C355.404 155.699 355.675 155.612 355.904 155.436C356.141 155.26 356.324 154.982 356.454 154.6C356.591 154.218 356.66 153.726 356.66 153.123C356.66 152.519 356.591 152.027 356.454 151.645C356.324 151.263 356.141 150.985 355.904 150.809C355.675 150.634 355.404 150.546 355.091 150.546C354.786 150.546 354.515 150.634 354.278 150.809C354.049 150.985 353.866 151.263 353.728 151.645C353.598 152.027 353.533 152.519 353.533 153.123C353.533 153.726 353.598 154.218 353.728 154.6C353.866 154.982 354.049 155.26 354.278 155.436C354.515 155.612 354.786 155.699 355.091 155.699ZM360.585 157.131L366.059 149.114H367.422L361.948 157.131H360.585ZM361.283 153.443C360.894 153.443 360.55 153.355 360.253 153.18C359.955 152.997 359.718 152.741 359.543 152.412C359.375 152.077 359.291 151.683 359.291 151.233C359.291 150.782 359.375 150.393 359.543 150.065C359.718 149.736 359.955 149.481 360.253 149.297C360.55 149.114 360.894 149.023 361.283 149.023C361.673 149.023 362.016 149.114 362.314 149.297C362.612 149.481 362.845 149.736 363.013 150.065C363.181 150.393 363.265 150.782 363.265 151.233C363.265 151.683 363.181 152.077 363.013 152.412C362.845 152.741 362.612 152.997 362.314 153.18C362.016 153.355 361.673 153.443 361.283 153.443ZM361.283 152.504C361.535 152.504 361.738 152.401 361.89 152.195C362.043 151.981 362.119 151.66 362.119 151.233C362.119 150.805 362.043 150.488 361.89 150.282C361.738 150.069 361.535 149.962 361.283 149.962C361.039 149.962 360.837 150.069 360.676 150.282C360.524 150.488 360.447 150.805 360.447 151.233C360.447 151.653 360.524 151.97 360.676 152.183C360.837 152.397 361.039 152.504 361.283 152.504ZM366.723 157.222C366.342 157.222 365.998 157.135 365.693 156.959C365.395 156.776 365.162 156.52 364.994 156.192C364.826 155.856 364.742 155.463 364.742 155.012C364.742 154.562 364.826 154.172 364.994 153.844C365.162 153.516 365.395 153.26 365.693 153.077C365.998 152.893 366.342 152.802 366.723 152.802C367.12 152.802 367.468 152.893 367.765 153.077C368.063 153.26 368.296 153.516 368.464 153.844C368.632 154.172 368.716 154.562 368.716 155.012C368.716 155.463 368.632 155.856 368.464 156.192C368.296 156.52 368.063 156.776 367.765 156.959C367.468 157.135 367.12 157.222 366.723 157.222ZM366.723 156.283C366.975 156.283 367.178 156.18 367.33 155.974C367.483 155.76 367.559 155.44 367.559 155.012C367.559 154.592 367.483 154.275 367.33 154.062C367.178 153.848 366.975 153.741 366.723 153.741C366.479 153.741 366.277 153.848 366.116 154.062C365.964 154.268 365.887 154.585 365.887 155.012C365.887 155.44 365.964 155.76 366.116 155.974C366.277 156.18 366.479 156.283 366.723 156.283Z" fill="white"/>
<rect x="241.071" y="205.928" width="43.1667" height="29.0714" rx="14.5357" fill="#0FA7F0"/>
<path d="M253.686 225.102C252.953 225.102 252.315 224.949 251.773 224.643C251.239 224.338 250.827 223.891 250.537 223.304C250.246 222.716 250.101 221.99 250.101 221.128C250.101 220.204 250.273 219.421 250.617 218.78C250.968 218.138 251.449 217.65 252.06 217.314C252.678 216.978 253.388 216.81 254.19 216.81C254.617 216.81 255.026 216.856 255.415 216.947C255.805 217.039 256.141 217.176 256.423 217.36L255.736 218.723C255.515 218.57 255.278 218.467 255.026 218.413C254.774 218.352 254.511 218.322 254.236 218.322C253.541 218.322 252.991 218.532 252.587 218.952C252.182 219.372 251.98 219.994 251.98 220.818C251.98 220.956 251.98 221.108 251.98 221.276C251.987 221.444 252.01 221.612 252.048 221.78L251.533 221.299C251.678 221.002 251.865 220.753 252.094 220.555C252.323 220.349 252.594 220.196 252.907 220.097C253.228 219.99 253.579 219.937 253.961 219.937C254.48 219.937 254.946 220.04 255.358 220.246C255.77 220.452 256.099 220.742 256.343 221.116C256.595 221.49 256.721 221.929 256.721 222.433C256.721 222.975 256.583 223.449 256.309 223.853C256.041 224.25 255.679 224.559 255.221 224.781C254.77 224.995 254.259 225.102 253.686 225.102ZM253.583 223.716C253.842 223.716 254.072 223.67 254.27 223.578C254.476 223.479 254.637 223.338 254.751 223.155C254.866 222.971 254.923 222.761 254.923 222.525C254.923 222.158 254.797 221.868 254.545 221.654C254.301 221.433 253.972 221.322 253.56 221.322C253.285 221.322 253.045 221.376 252.838 221.483C252.632 221.582 252.468 221.723 252.346 221.906C252.232 222.082 252.174 222.288 252.174 222.525C252.174 222.754 252.232 222.96 252.346 223.143C252.461 223.319 252.621 223.46 252.827 223.567C253.033 223.666 253.285 223.716 253.583 223.716ZM260.829 225.102C260.172 225.102 259.585 224.941 259.065 224.621C258.546 224.292 258.138 223.819 257.84 223.2C257.542 222.582 257.393 221.834 257.393 220.956C257.393 220.078 257.542 219.33 257.84 218.711C258.138 218.093 258.546 217.623 259.065 217.302C259.585 216.974 260.172 216.81 260.829 216.81C261.493 216.81 262.081 216.974 262.593 217.302C263.112 217.623 263.52 218.093 263.818 218.711C264.116 219.33 264.265 220.078 264.265 220.956C264.265 221.834 264.116 222.582 263.818 223.2C263.52 223.819 263.112 224.292 262.593 224.621C262.081 224.941 261.493 225.102 260.829 225.102ZM260.829 223.533C261.142 223.533 261.413 223.445 261.642 223.269C261.879 223.094 262.062 222.815 262.192 222.433C262.329 222.051 262.398 221.559 262.398 220.956C262.398 220.353 262.329 219.86 262.192 219.478C262.062 219.097 261.879 218.818 261.642 218.642C261.413 218.467 261.142 218.379 260.829 218.379C260.524 218.379 260.253 218.467 260.016 218.642C259.787 218.818 259.604 219.097 259.466 219.478C259.336 219.86 259.272 220.353 259.272 220.956C259.272 221.559 259.336 222.051 259.466 222.433C259.604 222.815 259.787 223.094 260.016 223.269C260.253 223.445 260.524 223.533 260.829 223.533ZM266.323 224.964L271.797 216.947H273.16L267.686 224.964H266.323ZM267.021 221.276C266.632 221.276 266.289 221.189 265.991 221.013C265.693 220.83 265.456 220.574 265.281 220.246C265.113 219.91 265.029 219.517 265.029 219.066C265.029 218.616 265.113 218.226 265.281 217.898C265.456 217.57 265.693 217.314 265.991 217.131C266.289 216.947 266.632 216.856 267.021 216.856C267.411 216.856 267.754 216.947 268.052 217.131C268.35 217.314 268.583 217.57 268.751 217.898C268.919 218.226 269.003 218.616 269.003 219.066C269.003 219.517 268.919 219.91 268.751 220.246C268.583 220.574 268.35 220.83 268.052 221.013C267.754 221.189 267.411 221.276 267.021 221.276ZM267.021 220.337C267.273 220.337 267.476 220.234 267.628 220.028C267.781 219.814 267.857 219.494 267.857 219.066C267.857 218.639 267.781 218.322 267.628 218.116C267.476 217.902 267.273 217.795 267.021 217.795C266.777 217.795 266.575 217.902 266.414 218.116C266.262 218.322 266.185 218.639 266.185 219.066C266.185 219.486 266.262 219.803 266.414 220.017C266.575 220.23 266.777 220.337 267.021 220.337ZM272.461 225.056C272.08 225.056 271.736 224.968 271.431 224.792C271.133 224.609 270.9 224.353 270.732 224.025C270.564 223.689 270.48 223.296 270.48 222.845C270.48 222.395 270.564 222.006 270.732 221.677C270.9 221.349 271.133 221.093 271.431 220.91C271.736 220.727 272.08 220.635 272.461 220.635C272.858 220.635 273.206 220.727 273.504 220.91C273.801 221.093 274.034 221.349 274.202 221.677C274.37 222.006 274.454 222.395 274.454 222.845C274.454 223.296 274.37 223.689 274.202 224.025C274.034 224.353 273.801 224.609 273.504 224.792C273.206 224.968 272.858 225.056 272.461 225.056ZM272.461 224.117C272.713 224.117 272.916 224.014 273.068 223.807C273.221 223.594 273.297 223.273 273.297 222.845C273.297 222.426 273.221 222.109 273.068 221.895C272.916 221.681 272.713 221.574 272.461 221.574C272.217 221.574 272.015 221.681 271.854 221.895C271.702 222.101 271.625 222.418 271.625 222.845C271.625 223.273 271.702 223.594 271.854 223.807C272.015 224.014 272.217 224.117 272.461 224.117Z" fill="white"/>
<rect x="338.857" y="214.738" width="43.1667" height="29.0714" rx="14.5357" fill="#0FA7F0"/>
<path d="M350.704 225.62C351.445 225.62 352.083 225.772 352.617 226.078C353.151 226.383 353.564 226.83 353.854 227.418C354.144 227.998 354.289 228.723 354.289 229.594C354.289 230.517 354.113 231.3 353.762 231.941C353.419 232.583 352.941 233.071 352.331 233.407C351.72 233.743 351.01 233.911 350.201 233.911C349.781 233.911 349.376 233.865 348.987 233.774C348.597 233.682 348.261 233.545 347.979 233.361L348.666 231.999C348.887 232.151 349.124 232.258 349.376 232.319C349.628 232.373 349.891 232.399 350.166 232.399C350.853 232.399 351.399 232.189 351.804 231.77C352.216 231.35 352.422 230.727 352.422 229.903C352.422 229.765 352.418 229.613 352.411 229.445C352.403 229.277 352.384 229.109 352.354 228.941L352.857 229.422C352.728 229.72 352.544 229.971 352.308 230.178C352.071 230.376 351.796 230.529 351.483 230.636C351.17 230.735 350.819 230.785 350.43 230.785C349.918 230.785 349.452 230.682 349.032 230.475C348.62 230.269 348.288 229.979 348.036 229.605C347.792 229.231 347.67 228.792 347.67 228.288C347.67 227.738 347.803 227.265 348.07 226.868C348.345 226.471 348.712 226.165 349.17 225.952C349.636 225.73 350.147 225.62 350.704 225.62ZM350.819 227.005C350.552 227.005 350.319 227.055 350.12 227.154C349.922 227.246 349.765 227.383 349.651 227.566C349.536 227.742 349.479 227.952 349.479 228.196C349.479 228.563 349.601 228.857 349.845 229.078C350.097 229.292 350.43 229.399 350.842 229.399C351.109 229.399 351.346 229.349 351.552 229.25C351.766 229.143 351.93 228.998 352.044 228.815C352.159 228.632 352.216 228.425 352.216 228.196C352.216 227.967 352.159 227.765 352.044 227.589C351.937 227.406 351.781 227.265 351.575 227.166C351.369 227.059 351.117 227.005 350.819 227.005ZM358.615 233.911C357.958 233.911 357.37 233.751 356.851 233.43C356.332 233.102 355.923 232.628 355.626 232.01C355.328 231.392 355.179 230.643 355.179 229.765C355.179 228.887 355.328 228.139 355.626 227.521C355.923 226.902 356.332 226.433 356.851 226.112C357.37 225.784 357.958 225.62 358.615 225.62C359.279 225.62 359.867 225.784 360.378 226.112C360.898 226.433 361.306 226.902 361.604 227.521C361.902 228.139 362.051 228.887 362.051 229.765C362.051 230.643 361.902 231.392 361.604 232.01C361.306 232.628 360.898 233.102 360.378 233.43C359.867 233.751 359.279 233.911 358.615 233.911ZM358.615 232.342C358.928 232.342 359.199 232.254 359.428 232.079C359.665 231.903 359.848 231.624 359.978 231.243C360.115 230.861 360.184 230.369 360.184 229.765C360.184 229.162 360.115 228.67 359.978 228.288C359.848 227.906 359.665 227.628 359.428 227.452C359.199 227.276 358.928 227.189 358.615 227.189C358.309 227.189 358.038 227.276 357.802 227.452C357.573 227.628 357.389 227.906 357.252 228.288C357.122 228.67 357.057 229.162 357.057 229.765C357.057 230.369 357.122 230.861 357.252 231.243C357.389 231.624 357.573 231.903 357.802 232.079C358.038 232.254 358.309 232.342 358.615 232.342ZM364.109 233.774L369.583 225.757H370.946L365.471 233.774H364.109ZM364.807 230.086C364.418 230.086 364.074 229.998 363.777 229.823C363.479 229.639 363.242 229.384 363.066 229.055C362.898 228.719 362.815 228.326 362.815 227.876C362.815 227.425 362.898 227.036 363.066 226.708C363.242 226.379 363.479 226.123 363.777 225.94C364.074 225.757 364.418 225.665 364.807 225.665C365.197 225.665 365.54 225.757 365.838 225.94C366.136 226.123 366.369 226.379 366.537 226.708C366.704 227.036 366.788 227.425 366.788 227.876C366.788 228.326 366.704 228.719 366.537 229.055C366.369 229.384 366.136 229.639 365.838 229.823C365.54 229.998 365.197 230.086 364.807 230.086ZM364.807 229.147C365.059 229.147 365.261 229.044 365.414 228.838C365.567 228.624 365.643 228.303 365.643 227.876C365.643 227.448 365.567 227.131 365.414 226.925C365.261 226.711 365.059 226.604 364.807 226.604C364.563 226.604 364.361 226.711 364.2 226.925C364.048 227.131 363.971 227.448 363.971 227.876C363.971 228.296 364.048 228.612 364.2 228.826C364.361 229.04 364.563 229.147 364.807 229.147ZM370.247 233.865C369.865 233.865 369.522 233.777 369.216 233.602C368.919 233.419 368.686 233.163 368.518 232.835C368.35 232.499 368.266 232.105 368.266 231.655C368.266 231.205 368.35 230.815 368.518 230.487C368.686 230.159 368.919 229.903 369.216 229.72C369.522 229.536 369.865 229.445 370.247 229.445C370.644 229.445 370.992 229.536 371.289 229.72C371.587 229.903 371.82 230.159 371.988 230.487C372.156 230.815 372.24 231.205 372.24 231.655C372.24 232.105 372.156 232.499 371.988 232.835C371.82 233.163 371.587 233.419 371.289 233.602C370.992 233.777 370.644 233.865 370.247 233.865ZM370.247 232.926C370.499 232.926 370.701 232.823 370.854 232.617C371.007 232.403 371.083 232.083 371.083 231.655C371.083 231.235 371.007 230.918 370.854 230.704C370.701 230.491 370.499 230.384 370.247 230.384C370.003 230.384 369.8 230.491 369.64 230.704C369.487 230.911 369.411 231.227 369.411 231.655C369.411 232.083 369.487 232.403 369.64 232.617C369.8 232.823 370.003 232.926 370.247 232.926Z" fill="white"/>
<rect x="198.786" y="128.405" width="48.4524" height="29.0714" rx="14.5357" fill="#0FA7F0"/>
<path d="M209.195 147.44V140.111L209.997 140.913H207.592V139.424H211.051V147.44H209.195ZM215.879 147.578C215.222 147.578 214.635 147.418 214.115 147.097C213.596 146.769 213.188 146.295 212.89 145.677C212.592 145.058 212.443 144.31 212.443 143.432C212.443 142.554 212.592 141.806 212.89 141.187C213.188 140.569 213.596 140.099 214.115 139.779C214.635 139.45 215.222 139.286 215.879 139.286C216.543 139.286 217.131 139.45 217.643 139.779C218.162 140.099 218.57 140.569 218.868 141.187C219.166 141.806 219.315 142.554 219.315 143.432C219.315 144.31 219.166 145.058 218.868 145.677C218.57 146.295 218.162 146.769 217.643 147.097C217.131 147.418 216.543 147.578 215.879 147.578ZM215.879 146.009C216.192 146.009 216.463 145.921 216.692 145.745C216.929 145.57 217.112 145.291 217.242 144.909C217.379 144.528 217.448 144.035 217.448 143.432C217.448 142.829 217.379 142.336 217.242 141.955C217.112 141.573 216.929 141.294 216.692 141.119C216.463 140.943 216.192 140.855 215.879 140.855C215.574 140.855 215.303 140.943 215.066 141.119C214.837 141.294 214.654 141.573 214.516 141.955C214.386 142.336 214.322 142.829 214.322 143.432C214.322 144.035 214.386 144.528 214.516 144.909C214.654 145.291 214.837 145.57 215.066 145.745C215.303 145.921 215.574 146.009 215.879 146.009ZM223.652 147.578C222.995 147.578 222.407 147.418 221.888 147.097C221.369 146.769 220.961 146.295 220.663 145.677C220.365 145.058 220.216 144.31 220.216 143.432C220.216 142.554 220.365 141.806 220.663 141.187C220.961 140.569 221.369 140.099 221.888 139.779C222.407 139.45 222.995 139.286 223.652 139.286C224.316 139.286 224.904 139.45 225.416 139.779C225.935 140.099 226.343 140.569 226.641 141.187C226.939 141.806 227.088 142.554 227.088 143.432C227.088 144.31 226.939 145.058 226.641 145.677C226.343 146.295 225.935 146.769 225.416 147.097C224.904 147.418 224.316 147.578 223.652 147.578ZM223.652 146.009C223.965 146.009 224.236 145.921 224.465 145.745C224.702 145.57 224.885 145.291 225.015 144.909C225.152 144.528 225.221 144.035 225.221 143.432C225.221 142.829 225.152 142.336 225.015 141.955C224.885 141.573 224.702 141.294 224.465 141.119C224.236 140.943 223.965 140.855 223.652 140.855C223.346 140.855 223.075 140.943 222.839 141.119C222.61 141.294 222.426 141.573 222.289 141.955C222.159 142.336 222.094 142.829 222.094 143.432C222.094 144.035 222.159 144.528 222.289 144.909C222.426 145.291 222.61 145.57 222.839 145.745C223.075 145.921 223.346 146.009 223.652 146.009ZM229.146 147.44L234.62 139.424H235.983L230.509 147.44H229.146ZM229.844 143.753C229.455 143.753 229.111 143.665 228.814 143.489C228.516 143.306 228.279 143.05 228.104 142.722C227.936 142.386 227.852 141.993 227.852 141.542C227.852 141.092 227.936 140.703 228.104 140.374C228.279 140.046 228.516 139.79 228.814 139.607C229.111 139.424 229.455 139.332 229.844 139.332C230.234 139.332 230.577 139.424 230.875 139.607C231.173 139.79 231.406 140.046 231.574 140.374C231.742 140.703 231.826 141.092 231.826 141.542C231.826 141.993 231.742 142.386 231.574 142.722C231.406 143.05 231.173 143.306 230.875 143.489C230.577 143.665 230.234 143.753 229.844 143.753ZM229.844 142.814C230.096 142.814 230.299 142.711 230.451 142.504C230.604 142.291 230.68 141.97 230.68 141.542C230.68 141.115 230.604 140.798 230.451 140.592C230.299 140.378 230.096 140.271 229.844 140.271C229.6 140.271 229.398 140.378 229.237 140.592C229.085 140.798 229.008 141.115 229.008 141.542C229.008 141.962 229.085 142.279 229.237 142.493C229.398 142.707 229.6 142.814 229.844 142.814ZM235.284 147.532C234.902 147.532 234.559 147.444 234.253 147.269C233.956 147.085 233.723 146.83 233.555 146.501C233.387 146.165 233.303 145.772 233.303 145.322C233.303 144.871 233.387 144.482 233.555 144.154C233.723 143.825 233.956 143.57 234.253 143.386C234.559 143.203 234.902 143.111 235.284 143.111C235.681 143.111 236.029 143.203 236.326 143.386C236.624 143.57 236.857 143.825 237.025 144.154C237.193 144.482 237.277 144.871 237.277 145.322C237.277 145.772 237.193 146.165 237.025 146.501C236.857 146.83 236.624 147.085 236.326 147.269C236.029 147.444 235.681 147.532 235.284 147.532ZM235.284 146.593C235.536 146.593 235.738 146.49 235.891 146.284C236.044 146.07 236.12 145.749 236.12 145.322C236.12 144.902 236.044 144.585 235.891 144.371C235.738 144.157 235.536 144.051 235.284 144.051C235.04 144.051 234.838 144.157 234.677 144.371C234.525 144.577 234.448 144.894 234.448 145.322C234.448 145.749 234.525 146.07 234.677 146.284C234.838 146.49 235.04 146.593 235.284 146.593Z" fill="white"/>
<path d="M411.71 146.81L408.999 135.71H410.204L412.725 146.144H412.011L418.751 135.71H419.988L412.852 146.81H411.71ZM419.11 146.81L420.759 138.485H421.885L420.236 146.81H419.11ZM421.806 136.645C421.584 136.645 421.399 136.571 421.251 136.423C421.113 136.275 421.045 136.101 421.045 135.9C421.045 135.667 421.124 135.466 421.283 135.297C421.452 135.128 421.663 135.044 421.917 135.044C422.139 135.044 422.324 135.112 422.472 135.25C422.62 135.387 422.694 135.562 422.694 135.773C422.694 136.027 422.609 136.238 422.44 136.407C422.271 136.566 422.06 136.645 421.806 136.645ZM426.921 146.889C426.212 146.889 425.583 146.746 425.034 146.461C424.484 146.175 424.056 145.768 423.749 145.24C423.443 144.711 423.289 144.082 423.289 143.353C423.289 142.644 423.406 141.989 423.638 141.386C423.871 140.784 424.198 140.261 424.621 139.817C425.044 139.362 425.541 139.013 426.112 138.77C426.693 138.527 427.322 138.405 427.999 138.405C428.728 138.405 429.347 138.537 429.854 138.802C430.362 139.055 430.753 139.431 431.028 139.928C431.302 140.414 431.44 141.006 431.44 141.704C431.44 142.454 431.334 143.147 431.123 143.781C430.922 144.415 430.621 144.965 430.219 145.43C429.817 145.895 429.336 146.255 428.776 146.508C428.226 146.762 427.608 146.889 426.921 146.889ZM427.158 145.89C427.856 145.89 428.475 145.726 429.014 145.398C429.563 145.06 429.992 144.595 430.298 144.003C430.615 143.411 430.774 142.74 430.774 141.989C430.774 141.164 430.531 140.525 430.044 140.07C429.569 139.616 428.897 139.388 428.031 139.388C427.343 139.388 426.725 139.558 426.175 139.896C425.626 140.234 425.192 140.699 424.875 141.291C424.568 141.873 424.415 142.544 424.415 143.305C424.415 144.119 424.653 144.753 425.129 145.208C425.615 145.663 426.292 145.89 427.158 145.89ZM429.902 146.81L430.377 144.415L430.853 142.734L431.012 140.99L432.201 135.044H433.327L430.98 146.81H429.902ZM437.921 146.889C437.128 146.889 436.436 146.746 435.844 146.461C435.263 146.165 434.813 145.752 434.496 145.224C434.19 144.695 434.036 144.066 434.036 143.337C434.036 142.385 434.237 141.54 434.639 140.8C435.041 140.06 435.59 139.478 436.288 139.055C436.986 138.622 437.773 138.405 438.651 138.405C439.391 138.405 440.03 138.548 440.569 138.833C441.109 139.108 441.526 139.51 441.822 140.039C442.129 140.567 442.282 141.201 442.282 141.941C442.282 142.111 442.271 142.285 442.25 142.465C442.229 142.634 442.203 142.798 442.171 142.956H434.861L435.004 142.116H441.648L441.188 142.433C441.294 141.767 441.246 141.207 441.045 140.752C440.844 140.298 440.532 139.954 440.11 139.721C439.697 139.478 439.2 139.357 438.619 139.357C437.942 139.357 437.34 139.526 436.811 139.864C436.283 140.192 435.87 140.652 435.574 141.244C435.278 141.825 435.13 142.507 435.13 143.289C435.13 144.124 435.368 144.769 435.844 145.224C436.33 145.668 437.054 145.89 438.016 145.89C438.577 145.89 439.095 145.8 439.57 145.62C440.046 145.43 440.437 145.171 440.744 144.843L441.251 145.652C440.86 146.043 440.369 146.35 439.777 146.572C439.195 146.783 438.577 146.889 437.921 146.889ZM447.396 146.889C446.624 146.889 445.953 146.746 445.382 146.461C444.822 146.165 444.383 145.752 444.066 145.224C443.76 144.695 443.606 144.072 443.606 143.353C443.606 142.401 443.812 141.556 444.225 140.816C444.637 140.065 445.208 139.478 445.937 139.055C446.667 138.622 447.497 138.405 448.427 138.405C449.199 138.405 449.865 138.548 450.425 138.833C450.996 139.119 451.434 139.526 451.741 140.054C452.058 140.583 452.217 141.207 452.217 141.926C452.217 142.877 452.011 143.728 451.598 144.479C451.186 145.219 450.615 145.805 449.886 146.239C449.167 146.672 448.337 146.889 447.396 146.889ZM447.475 145.89C448.173 145.89 448.792 145.726 449.331 145.398C449.88 145.06 450.309 144.595 450.615 144.003C450.932 143.411 451.091 142.74 451.091 141.989C451.091 141.164 450.848 140.525 450.361 140.07C449.886 139.616 449.214 139.388 448.348 139.388C447.66 139.388 447.042 139.558 446.492 139.896C445.943 140.234 445.509 140.699 445.192 141.291C444.885 141.873 444.732 142.544 444.732 143.305C444.732 144.119 444.97 144.753 445.446 145.208C445.932 145.663 446.609 145.89 447.475 145.89Z" fill="#454545"/>
<path d="M93.5847 144.019L93.7591 142.576L101.767 135.71H103.305L97.3111 140.863L96.6134 141.434L93.5847 144.019ZM91.9831 146.81L94.2031 135.71H95.3607L93.1407 146.81H91.9831ZM100.039 146.81L96.2646 141.291L97.0574 140.514L101.355 146.81H100.039ZM106.437 146.889C105.644 146.889 104.952 146.746 104.36 146.461C103.779 146.165 103.329 145.752 103.012 145.224C102.706 144.695 102.552 144.066 102.552 143.337C102.552 142.385 102.753 141.54 103.155 140.8C103.557 140.06 104.106 139.478 104.804 139.055C105.502 138.622 106.289 138.405 107.167 138.405C107.907 138.405 108.546 138.548 109.085 138.833C109.625 139.108 110.042 139.51 110.338 140.039C110.645 140.567 110.798 141.201 110.798 141.941C110.798 142.111 110.787 142.285 110.766 142.465C110.745 142.634 110.719 142.798 110.687 142.956H103.377L103.52 142.116H110.164L109.704 142.433C109.81 141.767 109.762 141.207 109.561 140.752C109.36 140.298 109.048 139.954 108.626 139.721C108.213 139.478 107.716 139.357 107.135 139.357C106.458 139.357 105.856 139.526 105.327 139.864C104.799 140.192 104.386 140.652 104.09 141.244C103.794 141.825 103.646 142.507 103.646 143.289C103.646 144.124 103.884 144.769 104.36 145.224C104.846 145.668 105.57 145.89 106.532 145.89C107.093 145.89 107.611 145.8 108.086 145.62C108.562 145.43 108.953 145.171 109.26 144.843L109.767 145.652C109.376 146.043 108.885 146.35 108.293 146.572C107.711 146.783 107.093 146.889 106.437 146.889ZM111.619 149.965C111.227 149.965 110.852 149.896 110.493 149.759C110.133 149.632 109.848 149.452 109.636 149.22L110.239 148.395C110.419 148.586 110.63 148.734 110.873 148.839C111.116 148.945 111.391 148.998 111.698 148.998C112.057 148.998 112.385 148.897 112.681 148.697C112.988 148.506 113.305 148.157 113.632 147.65L114.473 146.366L114.616 146.207L119.563 138.485H120.721L114.631 147.888C114.283 148.416 113.955 148.829 113.648 149.125C113.342 149.431 113.025 149.648 112.697 149.775C112.38 149.902 112.02 149.965 111.619 149.965ZM114.283 147.047L112.142 138.485H113.284L115.155 146.128L114.283 147.047ZM124.982 146.81L126.853 137.422C127.011 136.64 127.328 136.037 127.804 135.614C128.29 135.181 128.925 134.964 129.707 134.964C130.045 134.964 130.362 135.012 130.658 135.107C130.954 135.202 131.198 135.334 131.388 135.503L130.88 136.328C130.584 136.053 130.193 135.916 129.707 135.916C129.221 135.916 128.83 136.048 128.534 136.312C128.248 136.566 128.047 136.978 127.931 137.549L127.677 138.77L127.614 139.262L126.107 146.81H124.982ZM124.966 139.42L125.14 138.485H130.294L130.103 139.42H124.966ZM133.831 146.889C133.038 146.889 132.346 146.746 131.754 146.461C131.172 146.165 130.723 145.752 130.406 145.224C130.099 144.695 129.946 144.066 129.946 143.337C129.946 142.385 130.147 141.54 130.549 140.8C130.95 140.06 131.5 139.478 132.198 139.055C132.896 138.622 133.683 138.405 134.561 138.405C135.301 138.405 135.94 138.548 136.479 138.833C137.018 139.108 137.436 139.51 137.732 140.039C138.039 140.567 138.192 141.201 138.192 141.941C138.192 142.111 138.181 142.285 138.16 142.465C138.139 142.634 138.113 142.798 138.081 142.956H130.771L130.913 142.116H137.558L137.098 142.433C137.203 141.767 137.156 141.207 136.955 140.752C136.754 140.298 136.442 139.954 136.019 139.721C135.607 139.478 135.11 139.357 134.529 139.357C133.852 139.357 133.25 139.526 132.721 139.864C132.193 140.192 131.78 140.652 131.484 141.244C131.188 141.825 131.04 142.507 131.04 143.289C131.04 144.124 131.278 144.769 131.754 145.224C132.24 145.668 132.964 145.89 133.926 145.89C134.487 145.89 135.005 145.8 135.48 145.62C135.956 145.43 136.347 145.171 136.654 144.843L137.161 145.652C136.77 146.043 136.278 146.35 135.686 146.572C135.105 146.783 134.487 146.889 133.831 146.889ZM143.147 146.889C142.439 146.889 141.81 146.746 141.26 146.461C140.711 146.175 140.283 145.768 139.976 145.24C139.669 144.711 139.516 144.082 139.516 143.353C139.516 142.644 139.632 141.989 139.865 141.386C140.098 140.784 140.425 140.261 140.848 139.817C141.271 139.362 141.768 139.013 142.339 138.77C142.92 138.527 143.549 138.405 144.226 138.405C144.955 138.405 145.574 138.537 146.081 138.802C146.588 139.055 146.98 139.431 147.254 139.928C147.529 140.414 147.667 141.006 147.667 141.704C147.667 142.708 147.482 143.601 147.112 144.383C146.742 145.166 146.218 145.779 145.542 146.223C144.865 146.667 144.067 146.889 143.147 146.889ZM143.385 145.89C144.083 145.89 144.701 145.726 145.241 145.398C145.79 145.06 146.218 144.595 146.525 144.003C146.842 143.411 147.001 142.74 147.001 141.989C147.001 141.164 146.758 140.525 146.271 140.07C145.796 139.616 145.124 139.388 144.257 139.388C143.57 139.388 142.952 139.558 142.402 139.896C141.852 140.234 141.419 140.699 141.102 141.291C140.795 141.873 140.642 142.544 140.642 143.305C140.642 144.119 140.88 144.753 141.356 145.208C141.842 145.663 142.518 145.89 143.385 145.89ZM146.129 146.81L146.604 144.415L147.08 142.734L147.239 140.99L147.746 138.485H148.872L147.207 146.81H146.129ZM152.991 146.889C152.515 146.889 152.108 146.788 151.77 146.588C151.431 146.376 151.193 146.08 151.056 145.7C150.929 145.319 150.919 144.864 151.024 144.336L152.547 136.645H153.672L152.15 144.288C152.044 144.806 152.081 145.208 152.261 145.493C152.451 145.779 152.795 145.922 153.292 145.922C153.524 145.922 153.752 145.89 153.974 145.826C154.196 145.752 154.397 145.641 154.576 145.493L154.846 146.35C154.582 146.551 154.286 146.693 153.958 146.778C153.63 146.852 153.308 146.889 152.991 146.889ZM150.517 139.42L150.691 138.485H155.845L155.655 139.42H150.517ZM160.273 146.889C159.543 146.889 158.936 146.741 158.449 146.445C157.974 146.149 157.646 145.726 157.466 145.176C157.286 144.627 157.265 143.976 157.403 143.226L158.354 138.485H159.48L158.529 143.226C158.37 144.05 158.46 144.701 158.798 145.176C159.136 145.641 159.728 145.874 160.574 145.874C161.452 145.874 162.181 145.631 162.762 145.145C163.354 144.658 163.751 143.929 163.952 142.956L164.84 138.485H165.966L164.301 146.81H163.222L163.698 144.415L163.936 144.812C163.545 145.53 163.027 146.059 162.382 146.397C161.748 146.725 161.045 146.889 160.273 146.889ZM167.438 146.81L169.088 138.485H170.166L169.69 140.942L169.563 140.514C169.933 139.785 170.42 139.251 171.022 138.913C171.635 138.574 172.396 138.405 173.306 138.405L173.099 139.499C173.047 139.499 172.994 139.499 172.941 139.499C172.899 139.489 172.846 139.484 172.782 139.484C171.894 139.484 171.16 139.743 170.578 140.261C170.007 140.768 169.616 141.54 169.405 142.576L168.564 146.81H167.438ZM177.407 146.889C176.614 146.889 175.922 146.746 175.33 146.461C174.749 146.165 174.299 145.752 173.982 145.224C173.676 144.695 173.522 144.066 173.522 143.337C173.522 142.385 173.723 141.54 174.125 140.8C174.527 140.06 175.076 139.478 175.774 139.055C176.472 138.622 177.259 138.405 178.137 138.405C178.877 138.405 179.516 138.548 180.055 138.833C180.595 139.108 181.012 139.51 181.308 140.039C181.615 140.567 181.768 141.201 181.768 141.941C181.768 142.111 181.757 142.285 181.736 142.465C181.715 142.634 181.689 142.798 181.657 142.956H174.347L174.49 142.116H181.134L180.674 142.433C180.78 141.767 180.732 141.207 180.531 140.752C180.33 140.298 180.018 139.954 179.596 139.721C179.183 139.478 178.686 139.357 178.105 139.357C177.428 139.357 176.826 139.526 176.297 139.864C175.769 140.192 175.356 140.652 175.06 141.244C174.764 141.825 174.616 142.507 174.616 143.289C174.616 144.124 174.854 144.769 175.33 145.224C175.816 145.668 176.54 145.89 177.502 145.89C178.063 145.89 178.581 145.8 179.056 145.62C179.532 145.43 179.923 145.171 180.23 144.843L180.737 145.652C180.346 146.043 179.855 146.35 179.263 146.572C178.681 146.783 178.063 146.889 177.407 146.889ZM185.598 146.889C184.921 146.889 184.282 146.794 183.679 146.603C183.076 146.413 182.611 146.17 182.284 145.874L182.823 144.986C183.14 145.271 183.557 145.499 184.075 145.668C184.593 145.826 185.138 145.906 185.709 145.906C186.502 145.906 187.109 145.774 187.532 145.509C187.966 145.245 188.182 144.88 188.182 144.415C188.182 144.098 188.066 143.86 187.834 143.702C187.612 143.532 187.321 143.406 186.961 143.321C186.602 143.226 186.221 143.136 185.82 143.051C185.418 142.967 185.037 142.861 184.678 142.734C184.319 142.597 184.023 142.391 183.79 142.116C183.568 141.841 183.457 141.471 183.457 141.006C183.457 140.477 183.605 140.017 183.901 139.626C184.208 139.235 184.63 138.934 185.17 138.722C185.709 138.511 186.343 138.405 187.072 138.405C187.601 138.405 188.124 138.474 188.642 138.611C189.16 138.749 189.578 138.939 189.895 139.182L189.419 140.086C189.092 139.832 188.711 139.653 188.278 139.547C187.844 139.431 187.411 139.373 186.977 139.373C186.206 139.373 185.608 139.515 185.185 139.801C184.773 140.076 184.567 140.44 184.567 140.895C184.567 141.212 184.678 141.455 184.9 141.624C185.133 141.793 185.429 141.926 185.788 142.021C186.147 142.116 186.528 142.206 186.93 142.29C187.342 142.364 187.723 142.47 188.071 142.607C188.431 142.745 188.722 142.946 188.944 143.21C189.176 143.464 189.292 143.823 189.292 144.288C189.292 144.838 189.139 145.308 188.833 145.7C188.526 146.08 188.093 146.376 187.532 146.588C186.983 146.788 186.338 146.889 185.598 146.889Z" fill="#454545"/>
<path d="M373.908 268.476C373.369 268.476 372.835 268.418 372.307 268.302C371.789 268.175 371.318 268.006 370.896 267.794C370.473 267.572 370.134 267.329 369.881 267.065L370.452 266.145C370.705 266.409 371.017 266.642 371.387 266.843C371.768 267.044 372.185 267.202 372.64 267.318C373.094 267.424 373.549 267.477 374.004 267.477C374.659 267.477 375.23 267.392 375.716 267.223C376.213 267.054 376.599 266.806 376.874 266.478C377.149 266.15 377.286 265.754 377.286 265.289C377.286 264.919 377.18 264.623 376.969 264.401C376.757 264.168 376.483 263.983 376.144 263.846C375.806 263.698 375.431 263.566 375.018 263.449C374.606 263.333 374.194 263.206 373.782 263.069C373.369 262.931 372.989 262.762 372.64 262.561C372.302 262.36 372.027 262.096 371.815 261.768C371.614 261.441 371.514 261.028 371.514 260.532C371.514 259.834 371.704 259.237 372.085 258.74C372.465 258.232 372.989 257.846 373.655 257.582C374.321 257.318 375.087 257.186 375.954 257.186C376.609 257.186 377.238 257.265 377.841 257.424C378.454 257.582 378.972 257.82 379.395 258.137L378.903 259.089C378.502 258.793 378.042 258.571 377.524 258.423C377.006 258.264 376.461 258.185 375.891 258.185C375.246 258.185 374.68 258.275 374.194 258.454C373.708 258.634 373.327 258.893 373.052 259.231C372.788 259.559 372.656 259.955 372.656 260.421C372.656 260.791 372.756 261.092 372.957 261.324C373.168 261.557 373.443 261.747 373.782 261.895C374.13 262.043 374.511 262.181 374.923 262.308C375.336 262.424 375.748 262.551 376.16 262.688C376.572 262.815 376.948 262.979 377.286 263.18C377.635 263.37 377.915 263.624 378.126 263.941C378.338 264.247 378.444 264.644 378.444 265.13C378.444 265.838 378.248 266.446 377.857 266.954C377.466 267.451 376.927 267.831 376.239 268.095C375.563 268.349 374.786 268.476 373.908 268.476ZM385.916 259.977C386.667 259.977 387.28 260.125 387.755 260.421C388.242 260.706 388.575 261.124 388.754 261.673C388.945 262.223 388.961 262.878 388.802 263.64L387.851 268.381H386.725L387.676 263.624C387.845 262.799 387.755 262.154 387.407 261.689C387.068 261.224 386.466 260.991 385.599 260.991C384.711 260.991 383.971 261.235 383.379 261.721C382.797 262.207 382.406 262.937 382.205 263.909L381.317 268.381H380.192L382.538 256.615H383.664L382.491 262.45L382.205 262.038C382.607 261.319 383.125 260.796 383.759 260.468C384.404 260.14 385.123 259.977 385.916 259.977ZM394.618 268.46C393.846 268.46 393.175 268.317 392.604 268.032C392.044 267.736 391.605 267.324 391.288 266.795C390.982 266.267 390.828 265.643 390.828 264.924C390.828 263.973 391.034 263.127 391.447 262.387C391.859 261.636 392.43 261.05 393.159 260.627C393.889 260.193 394.719 259.977 395.649 259.977C396.421 259.977 397.087 260.119 397.647 260.405C398.218 260.69 398.656 261.097 398.963 261.626C399.28 262.154 399.439 262.778 399.439 263.497C399.439 264.448 399.233 265.299 398.82 266.05C398.408 266.79 397.837 267.377 397.108 267.81C396.389 268.243 395.559 268.46 394.618 268.46ZM394.697 267.461C395.395 267.461 396.014 267.297 396.553 266.97C397.102 266.631 397.531 266.166 397.837 265.574C398.154 264.982 398.313 264.311 398.313 263.56C398.313 262.736 398.07 262.096 397.583 261.642C397.108 261.187 396.436 260.96 395.57 260.96C394.882 260.96 394.264 261.129 393.714 261.467C393.165 261.805 392.731 262.271 392.414 262.863C392.107 263.444 391.954 264.115 391.954 264.876C391.954 265.69 392.192 266.325 392.668 266.779C393.154 267.234 393.831 267.461 394.697 267.461ZM400.849 268.381L402.498 260.056H403.577L403.101 262.514L402.974 262.086C403.344 261.356 403.83 260.822 404.433 260.484C405.046 260.146 405.807 259.977 406.716 259.977L406.51 261.071C406.457 261.071 406.405 261.071 406.352 261.071C406.309 261.06 406.257 261.055 406.193 261.055C405.305 261.055 404.57 261.314 403.989 261.832C403.418 262.339 403.027 263.111 402.816 264.147L401.975 268.381H400.849ZM410.094 268.46C409.619 268.46 409.212 268.36 408.873 268.159C408.535 267.947 408.297 267.651 408.16 267.271C408.033 266.89 408.022 266.436 408.128 265.907L409.65 258.216H410.776L409.254 265.86C409.148 266.378 409.185 266.779 409.365 267.065C409.555 267.35 409.899 267.493 410.396 267.493C410.628 267.493 410.855 267.461 411.077 267.398C411.299 267.324 411.5 267.213 411.68 267.065L411.95 267.921C411.685 268.122 411.389 268.265 411.062 268.349C410.734 268.423 410.411 268.46 410.094 268.46ZM407.621 260.991L407.795 260.056H412.949L412.758 260.991H407.621ZM421.59 268.46C420.882 268.46 420.253 268.317 419.703 268.032C419.153 267.747 418.725 267.34 418.419 266.811C418.112 266.282 417.959 265.653 417.959 264.924C417.959 264.216 418.075 263.56 418.308 262.958C418.54 262.355 418.868 261.832 419.291 261.388C419.714 260.933 420.211 260.584 420.781 260.341C421.363 260.098 421.992 259.977 422.668 259.977C423.398 259.977 424.016 260.109 424.524 260.373C425.031 260.627 425.422 261.002 425.697 261.499C425.972 261.985 426.109 262.577 426.109 263.275C426.109 264.025 426.004 264.718 425.792 265.352C425.591 265.986 425.29 266.536 424.888 267.001C424.487 267.466 424.006 267.826 423.445 268.08C422.896 268.333 422.277 268.46 421.59 268.46ZM421.828 267.461C422.526 267.461 423.144 267.297 423.683 266.97C424.233 266.631 424.661 266.166 424.968 265.574C425.285 264.982 425.443 264.311 425.443 263.56C425.443 262.736 425.2 262.096 424.714 261.642C424.238 261.187 423.567 260.96 422.7 260.96C422.013 260.96 421.395 261.129 420.845 261.467C420.295 261.805 419.862 262.271 419.545 262.863C419.238 263.444 419.085 264.115 419.085 264.876C419.085 265.69 419.323 266.325 419.798 266.779C420.285 267.234 420.961 267.461 421.828 267.461ZM424.571 268.381L425.047 265.986L425.523 264.306L425.681 262.561L426.871 256.615H427.996L425.65 268.381H424.571ZM432.591 268.46C431.798 268.46 431.106 268.317 430.514 268.032C429.932 267.736 429.483 267.324 429.166 266.795C428.859 266.267 428.706 265.638 428.706 264.908C428.706 263.957 428.907 263.111 429.308 262.371C429.71 261.631 430.26 261.05 430.958 260.627C431.655 260.193 432.443 259.977 433.32 259.977C434.06 259.977 434.7 260.119 435.239 260.405C435.778 260.68 436.196 261.081 436.492 261.61C436.798 262.138 436.952 262.773 436.952 263.513C436.952 263.682 436.941 263.856 436.92 264.036C436.899 264.205 436.872 264.369 436.841 264.528H429.53L429.673 263.687H436.317L435.857 264.004C435.963 263.338 435.916 262.778 435.715 262.323C435.514 261.869 435.202 261.525 434.779 261.293C434.367 261.05 433.87 260.928 433.289 260.928C432.612 260.928 432.009 261.097 431.481 261.435C430.952 261.763 430.54 262.223 430.244 262.815C429.948 263.396 429.8 264.078 429.8 264.861C429.8 265.696 430.038 266.341 430.514 266.795C431 267.239 431.724 267.461 432.686 267.461C433.246 267.461 433.764 267.371 434.24 267.192C434.716 267.001 435.107 266.742 435.413 266.415L435.921 267.223C435.53 267.614 435.038 267.921 434.446 268.143C433.865 268.354 433.246 268.46 432.591 268.46ZM440.781 268.46C440.105 268.46 439.465 268.365 438.863 268.175C438.26 267.984 437.795 267.741 437.467 267.445L438.006 266.557C438.323 266.843 438.741 267.07 439.259 267.239C439.777 267.398 440.321 267.477 440.892 267.477C441.685 267.477 442.293 267.345 442.716 267.081C443.149 266.816 443.366 266.452 443.366 265.986C443.366 265.669 443.25 265.431 443.017 265.273C442.795 265.104 442.504 264.977 442.145 264.892C441.786 264.797 441.405 264.707 441.003 264.623C440.602 264.538 440.221 264.432 439.862 264.306C439.502 264.168 439.206 263.962 438.974 263.687C438.752 263.412 438.641 263.042 438.641 262.577C438.641 262.049 438.789 261.589 439.085 261.198C439.391 260.806 439.814 260.505 440.353 260.294C440.892 260.082 441.527 259.977 442.256 259.977C442.785 259.977 443.308 260.045 443.826 260.183C444.344 260.32 444.761 260.51 445.079 260.754L444.603 261.657C444.275 261.404 443.895 261.224 443.461 261.118C443.028 261.002 442.594 260.944 442.161 260.944C441.389 260.944 440.792 261.087 440.369 261.372C439.957 261.647 439.751 262.012 439.751 262.466C439.751 262.783 439.862 263.026 440.084 263.196C440.316 263.365 440.612 263.497 440.972 263.592C441.331 263.687 441.712 263.777 442.113 263.862C442.526 263.936 442.906 264.041 443.255 264.179C443.614 264.316 443.905 264.517 444.127 264.781C444.36 265.035 444.476 265.394 444.476 265.86C444.476 266.409 444.323 266.88 444.016 267.271C443.71 267.651 443.276 267.947 442.716 268.159C442.166 268.36 441.521 268.46 440.781 268.46ZM449.872 268.46C449.079 268.46 448.392 268.317 447.81 268.032C447.24 267.736 446.796 267.324 446.478 266.795C446.172 266.267 446.019 265.643 446.019 264.924C446.019 263.973 446.225 263.127 446.637 262.387C447.049 261.636 447.62 261.05 448.35 260.627C449.09 260.193 449.93 259.977 450.871 259.977C451.643 259.977 452.303 260.119 452.853 260.405C453.413 260.68 453.847 261.092 454.153 261.642L453.202 262.197C452.969 261.774 452.647 261.462 452.235 261.261C451.833 261.06 451.347 260.96 450.776 260.96C450.078 260.96 449.454 261.129 448.905 261.467C448.355 261.805 447.921 262.271 447.604 262.863C447.298 263.444 447.144 264.115 447.144 264.876C447.144 265.69 447.382 266.325 447.858 266.779C448.344 267.234 449.031 267.461 449.919 267.461C450.459 267.461 450.955 267.361 451.41 267.16C451.875 266.948 452.256 266.647 452.552 266.256L453.36 266.874C453.001 267.371 452.509 267.762 451.886 268.048C451.262 268.323 450.591 268.46 449.872 268.46ZM455.033 268.381L456.682 260.056H457.76L457.285 262.514L457.158 262.086C457.528 261.356 458.014 260.822 458.617 260.484C459.23 260.146 459.991 259.977 460.9 259.977L460.694 261.071C460.641 261.071 460.588 261.071 460.535 261.071C460.493 261.06 460.44 261.055 460.377 261.055C459.489 261.055 458.754 261.314 458.173 261.832C457.602 262.339 457.211 263.111 456.999 264.147L456.159 268.381H455.033ZM461.274 268.381L462.923 260.056H464.049L462.4 268.381H461.274ZM463.969 258.216C463.747 258.216 463.562 258.142 463.414 257.994C463.277 257.846 463.208 257.672 463.208 257.471C463.208 257.239 463.288 257.038 463.446 256.869C463.615 256.699 463.827 256.615 464.08 256.615C464.302 256.615 464.487 256.684 464.635 256.821C464.783 256.958 464.857 257.133 464.857 257.344C464.857 257.598 464.773 257.809 464.604 257.979C464.435 258.137 464.223 258.216 463.969 258.216ZM470.162 268.46C469.444 268.46 468.825 268.333 468.307 268.08C467.8 267.815 467.409 267.44 467.134 266.954C466.869 266.457 466.732 265.86 466.721 265.162C466.721 264.136 466.906 263.238 467.276 262.466C467.646 261.684 468.17 261.076 468.846 260.643C469.523 260.199 470.321 259.977 471.241 259.977C471.96 259.977 472.589 260.119 473.128 260.405C473.677 260.68 474.106 261.081 474.412 261.61C474.729 262.138 474.888 262.767 474.888 263.497C474.888 264.216 474.772 264.876 474.539 265.479C474.306 266.082 473.973 266.605 473.54 267.049C473.117 267.493 472.62 267.842 472.049 268.095C471.479 268.339 470.85 268.46 470.162 268.46ZM464.914 271.457L467.181 260.056H468.26L467.784 262.45L467.324 264.115L467.15 265.86L466.04 271.457H464.914ZM470.147 267.461C470.844 267.461 471.463 267.297 472.002 266.97C472.541 266.631 472.964 266.166 473.27 265.574C473.588 264.982 473.746 264.311 473.746 263.56C473.746 262.736 473.508 262.096 473.033 261.642C472.557 261.187 471.88 260.96 471.003 260.96C470.316 260.96 469.697 261.129 469.148 261.467C468.608 261.805 468.18 262.271 467.863 262.863C467.557 263.444 467.403 264.115 467.403 264.876C467.403 265.69 467.641 266.325 468.117 266.779C468.593 267.234 469.269 267.461 470.147 267.461ZM478.927 268.46C478.452 268.46 478.045 268.36 477.706 268.159C477.368 267.947 477.13 267.651 476.993 267.271C476.866 266.89 476.855 266.436 476.961 265.907L478.483 258.216H479.609L478.087 265.86C477.981 266.378 478.018 266.779 478.198 267.065C478.388 267.35 478.732 267.493 479.229 267.493C479.461 267.493 479.688 267.461 479.91 267.398C480.132 267.324 480.333 267.213 480.513 267.065L480.783 267.921C480.518 268.122 480.222 268.265 479.895 268.349C479.567 268.423 479.244 268.46 478.927 268.46ZM476.454 260.991L476.628 260.056H481.782L481.591 260.991H476.454ZM482.721 268.381L484.37 260.056H485.496L483.847 268.381H482.721ZM485.417 258.216C485.195 258.216 485.01 258.142 484.862 257.994C484.724 257.846 484.656 257.672 484.656 257.471C484.656 257.239 484.735 257.038 484.893 256.869C485.063 256.699 485.274 256.615 485.528 256.615C485.75 256.615 485.935 256.684 486.083 256.821C486.231 256.958 486.305 257.133 486.305 257.344C486.305 257.598 486.22 257.809 486.051 257.979C485.882 258.137 485.67 258.216 485.417 258.216ZM490.69 268.46C489.918 268.46 489.247 268.317 488.676 268.032C488.116 267.736 487.677 267.324 487.36 266.795C487.054 266.267 486.9 265.643 486.9 264.924C486.9 263.973 487.106 263.127 487.519 262.387C487.931 261.636 488.502 261.05 489.231 260.627C489.961 260.193 490.791 259.977 491.721 259.977C492.493 259.977 493.159 260.119 493.719 260.405C494.29 260.69 494.728 261.097 495.035 261.626C495.352 262.154 495.511 262.778 495.511 263.497C495.511 264.448 495.305 265.299 494.892 266.05C494.48 266.79 493.909 267.377 493.18 267.81C492.461 268.243 491.631 268.46 490.69 268.46ZM490.769 267.461C491.467 267.461 492.086 267.297 492.625 266.97C493.174 266.631 493.603 266.166 493.909 265.574C494.226 264.982 494.385 264.311 494.385 263.56C494.385 262.736 494.142 262.096 493.655 261.642C493.18 261.187 492.508 260.96 491.642 260.96C490.954 260.96 490.336 261.129 489.786 261.467C489.237 261.805 488.803 262.271 488.486 262.863C488.179 263.444 488.026 264.115 488.026 264.876C488.026 265.69 488.264 266.325 488.74 266.779C489.226 267.234 489.903 267.461 490.769 267.461ZM502.646 259.977C503.396 259.977 504.009 260.125 504.485 260.421C504.971 260.706 505.304 261.124 505.484 261.673C505.674 262.223 505.69 262.878 505.532 263.64L504.58 268.381H503.454L504.406 263.624C504.575 262.799 504.485 262.154 504.136 261.689C503.798 261.224 503.195 260.991 502.329 260.991C501.441 260.991 500.701 261.235 500.109 261.721C499.527 262.207 499.136 262.937 498.935 263.909L498.047 268.381H496.921L498.57 260.056H499.649L499.173 262.45L498.935 262.038C499.337 261.319 499.855 260.796 500.489 260.468C501.134 260.14 501.853 259.977 502.646 259.977Z" fill="#454545"/>
<path d="M132.816 268.381L135.036 257.281H139.032C140.29 257.281 141.263 257.556 141.95 258.105C142.648 258.655 142.997 259.427 142.997 260.421C142.997 261.361 142.785 262.165 142.362 262.831C141.95 263.486 141.358 263.988 140.586 264.337C139.815 264.686 138.9 264.861 137.843 264.861H134.18L134.799 264.321L133.99 268.381H132.816ZM140.412 268.381L138.144 264.353H139.397L141.681 268.381H140.412ZM134.767 264.417L134.37 263.846H137.859C139.117 263.846 140.09 263.566 140.777 263.005C141.474 262.445 141.823 261.62 141.823 260.532C141.823 259.802 141.575 259.247 141.078 258.867C140.581 258.486 139.873 258.296 138.953 258.296H135.512L136.115 257.725L134.767 264.417ZM144.038 268.381L145.687 260.056H146.813L145.164 268.381H144.038ZM146.734 258.216C146.512 258.216 146.327 258.142 146.179 257.994C146.041 257.846 145.972 257.672 145.972 257.471C145.972 257.239 146.052 257.038 146.21 256.869C146.379 256.699 146.591 256.615 146.845 256.615C147.067 256.615 147.252 256.684 147.4 256.821C147.548 256.958 147.622 257.133 147.622 257.344C147.622 257.598 147.537 257.809 147.368 257.979C147.199 258.137 146.987 258.216 146.734 258.216ZM152.07 268.46C151.278 268.46 150.59 268.317 150.009 268.032C149.438 267.736 148.994 267.324 148.677 266.795C148.37 266.267 148.217 265.643 148.217 264.924C148.217 263.973 148.423 263.127 148.836 262.387C149.248 261.636 149.819 261.05 150.548 260.627C151.288 260.193 152.129 259.977 153.069 259.977C153.841 259.977 154.502 260.119 155.052 260.405C155.612 260.68 156.045 261.092 156.352 261.642L155.4 262.197C155.168 261.774 154.845 261.462 154.433 261.261C154.031 261.06 153.545 260.96 152.974 260.96C152.277 260.96 151.653 261.129 151.103 261.467C150.553 261.805 150.12 262.271 149.803 262.863C149.496 263.444 149.343 264.115 149.343 264.876C149.343 265.69 149.581 266.325 150.057 266.779C150.543 267.234 151.23 267.461 152.118 267.461C152.657 267.461 153.154 267.361 153.609 267.16C154.074 266.948 154.454 266.647 154.75 266.256L155.559 266.874C155.2 267.371 154.708 267.762 154.084 268.048C153.461 268.323 152.789 268.46 152.07 268.46ZM162.832 259.977C163.583 259.977 164.196 260.125 164.671 260.421C165.158 260.706 165.491 261.124 165.67 261.673C165.861 262.223 165.877 262.878 165.718 263.64L164.767 268.381H163.641L164.592 263.624C164.761 262.799 164.671 262.154 164.323 261.689C163.984 261.224 163.382 260.991 162.515 260.991C161.627 260.991 160.887 261.235 160.295 261.721C159.713 262.207 159.322 262.937 159.121 263.909L158.233 268.381H157.108L159.454 256.615H160.58L159.407 262.45L159.121 262.038C159.523 261.319 160.041 260.796 160.675 260.468C161.32 260.14 162.039 259.977 162.832 259.977ZM175.748 268.46C174.955 268.46 174.268 268.317 173.686 268.032C173.115 267.736 172.671 267.324 172.354 266.795C172.048 266.267 171.894 265.643 171.894 264.924C171.894 263.973 172.101 263.127 172.513 262.387C172.925 261.636 173.496 261.05 174.225 260.627C174.965 260.193 175.806 259.977 176.747 259.977C177.518 259.977 178.179 260.119 178.729 260.405C179.289 260.68 179.723 261.092 180.029 261.642L179.078 262.197C178.845 261.774 178.523 261.462 178.11 261.261C177.709 261.06 177.222 260.96 176.652 260.96C175.954 260.96 175.33 261.129 174.78 261.467C174.231 261.805 173.797 262.271 173.48 262.863C173.174 263.444 173.02 264.115 173.02 264.876C173.02 265.69 173.258 266.325 173.734 266.779C174.22 267.234 174.907 267.461 175.795 267.461C176.334 267.461 176.831 267.361 177.286 267.16C177.751 266.948 178.132 266.647 178.428 266.256L179.236 266.874C178.877 267.371 178.385 267.762 177.762 268.048C177.138 268.323 176.467 268.46 175.748 268.46ZM184.48 268.46C183.708 268.46 183.037 268.317 182.466 268.032C181.906 267.736 181.467 267.324 181.15 266.795C180.843 266.267 180.69 265.643 180.69 264.924C180.69 263.973 180.896 263.127 181.309 262.387C181.721 261.636 182.292 261.05 183.021 260.627C183.751 260.193 184.58 259.977 185.511 259.977C186.282 259.977 186.948 260.119 187.509 260.405C188.08 260.69 188.518 261.097 188.825 261.626C189.142 262.154 189.301 262.778 189.301 263.497C189.301 264.448 189.094 265.299 188.682 266.05C188.27 266.79 187.699 267.377 186.97 267.81C186.251 268.243 185.421 268.46 184.48 268.46ZM184.559 267.461C185.257 267.461 185.875 267.297 186.415 266.97C186.964 266.631 187.392 266.166 187.699 265.574C188.016 264.982 188.175 264.311 188.175 263.56C188.175 262.736 187.932 262.096 187.445 261.642C186.97 261.187 186.298 260.96 185.431 260.96C184.744 260.96 184.126 261.129 183.576 261.467C183.026 261.805 182.593 262.271 182.276 262.863C181.969 263.444 181.816 264.115 181.816 264.876C181.816 265.69 182.054 266.325 182.53 266.779C183.016 267.234 183.692 267.461 184.559 267.461ZM196.436 259.977C197.186 259.977 197.799 260.125 198.275 260.421C198.761 260.706 199.094 261.124 199.274 261.673C199.464 262.223 199.48 262.878 199.322 263.64L198.37 268.381H197.244L198.196 263.624C198.365 262.799 198.275 262.154 197.926 261.689C197.588 261.224 196.985 260.991 196.118 260.991C195.23 260.991 194.49 261.235 193.898 261.721C193.317 262.207 192.926 262.937 192.725 263.909L191.837 268.381H190.711L192.36 260.056H193.439L192.963 262.45L192.725 262.038C193.127 261.319 193.645 260.796 194.279 260.468C194.924 260.14 195.643 259.977 196.436 259.977ZM204.075 268.46C203.6 268.46 203.193 268.36 202.854 268.159C202.516 267.947 202.278 267.651 202.141 267.271C202.014 266.89 202.003 266.436 202.109 265.907L203.631 258.216H204.757L203.235 265.86C203.129 266.378 203.166 266.779 203.346 267.065C203.536 267.35 203.88 267.493 204.377 267.493C204.609 267.493 204.836 267.461 205.058 267.398C205.28 267.324 205.481 267.213 205.661 267.065L205.931 267.921C205.666 268.122 205.37 268.265 205.043 268.349C204.715 268.423 204.392 268.46 204.075 268.46ZM201.602 260.991L201.776 260.056H206.93L206.739 260.991H201.602ZM211.381 268.46C210.588 268.46 209.895 268.317 209.303 268.032C208.722 267.736 208.273 267.324 207.955 266.795C207.649 266.267 207.496 265.638 207.496 264.908C207.496 263.957 207.696 263.111 208.098 262.371C208.5 261.631 209.05 261.05 209.747 260.627C210.445 260.193 211.233 259.977 212.11 259.977C212.85 259.977 213.49 260.119 214.029 260.405C214.568 260.68 214.985 261.081 215.281 261.61C215.588 262.138 215.741 262.773 215.741 263.513C215.741 263.682 215.731 263.856 215.71 264.036C215.688 264.205 215.662 264.369 215.63 264.528H208.32L208.463 263.687H215.107L214.647 264.004C214.753 263.338 214.705 262.778 214.504 262.323C214.304 261.869 213.992 261.525 213.569 261.293C213.157 261.05 212.66 260.928 212.078 260.928C211.402 260.928 210.799 261.097 210.271 261.435C209.742 261.763 209.33 262.223 209.034 262.815C208.738 263.396 208.59 264.078 208.59 264.861C208.59 265.696 208.828 266.341 209.303 266.795C209.79 267.239 210.514 267.461 211.476 267.461C212.036 267.461 212.554 267.371 213.03 267.192C213.505 267.001 213.897 266.742 214.203 266.415L214.711 267.223C214.319 267.614 213.828 267.921 213.236 268.143C212.654 268.354 212.036 268.46 211.381 268.46ZM222.869 259.977C223.62 259.977 224.233 260.125 224.709 260.421C225.195 260.706 225.528 261.124 225.708 261.673C225.898 262.223 225.914 262.878 225.755 263.64L224.804 268.381H223.678L224.629 263.624C224.799 262.799 224.709 262.154 224.36 261.689C224.022 261.224 223.419 260.991 222.552 260.991C221.664 260.991 220.924 261.235 220.332 261.721C219.751 262.207 219.36 262.937 219.159 263.909L218.271 268.381H217.145L218.794 260.056H219.872L219.397 262.45L219.159 262.038C219.56 261.319 220.078 260.796 220.713 260.468C221.358 260.14 222.076 259.977 222.869 259.977ZM230.509 268.46C230.033 268.46 229.626 268.36 229.288 268.159C228.95 267.947 228.712 267.651 228.574 267.271C228.448 266.89 228.437 266.436 228.543 265.907L230.065 258.216H231.191L229.669 265.86C229.563 266.378 229.6 266.779 229.78 267.065C229.97 267.35 230.313 267.493 230.81 267.493C231.043 267.493 231.27 267.461 231.492 267.398C231.714 267.324 231.915 267.213 232.095 267.065L232.364 267.921C232.1 268.122 231.804 268.265 231.476 268.349C231.149 268.423 230.826 268.46 230.509 268.46ZM228.035 260.991L228.21 260.056H233.363L233.173 260.991H228.035Z" fill="#454545"/>
</svg>
