<svg width="619" height="323" viewBox="0 0 619 323" fill="none" xmlns="http://www.w3.org/2000/svg">
<rect width="619" height="323" rx="20" fill="white"/>
<g clip-path="url(#clip0_122_371)">
<g clip-path="url(#clip1_122_371)">
<rect x="24" y="27" width="156.333" height="48" fill="#F9F9FB"/>
<path d="M40.68 57V45.8H42.28V57H40.68ZM48.3211 57.096C47.4678 57.096 46.8065 56.8667 46.3371 56.408C45.8678 55.9493 45.6331 55.2933 45.6331 54.44V46.664H47.1691V54.376C47.1691 54.8347 47.2811 55.1867 47.5051 55.432C47.7398 55.6773 48.0705 55.8 48.4971 55.8C48.9771 55.8 49.3771 55.6667 49.6971 55.4L50.1771 56.504C49.9425 56.7067 49.6598 56.856 49.3291 56.952C49.0091 57.048 48.6731 57.096 48.3211 57.096ZM44.1931 49.784V48.52H49.6011V49.784H44.1931ZM55.5289 57.096C54.6222 57.096 53.8222 56.9093 53.1289 56.536C52.4462 56.1627 51.9129 55.6507 51.5289 55C51.1555 54.3493 50.9689 53.6027 50.9689 52.76C50.9689 51.9173 51.1502 51.1707 51.5129 50.52C51.8862 49.8693 52.3929 49.3627 53.0329 49C53.6835 48.6267 54.4142 48.44 55.2249 48.44C56.0462 48.44 56.7715 48.6213 57.4009 48.984C58.0302 49.3467 58.5209 49.8587 58.8729 50.52C59.2355 51.1707 59.4169 51.9333 59.4169 52.808C59.4169 52.872 59.4115 52.9467 59.4009 53.032C59.4009 53.1173 59.3955 53.1973 59.3849 53.272H52.1689V52.168H58.5849L57.9609 52.552C57.9715 52.008 57.8595 51.5227 57.6249 51.096C57.3902 50.6693 57.0649 50.3387 56.6489 50.104C56.2435 49.8587 55.7689 49.736 55.2249 49.736C54.6915 49.736 54.2169 49.8587 53.8009 50.104C53.3849 50.3387 53.0595 50.6747 52.8249 51.112C52.5902 51.5387 52.4729 52.0293 52.4729 52.584V52.84C52.4729 53.4053 52.6009 53.912 52.8569 54.36C53.1235 54.7973 53.4915 55.1387 53.9609 55.384C54.4302 55.6293 54.9689 55.752 55.5769 55.752C56.0782 55.752 56.5315 55.6667 56.9369 55.496C57.3529 55.3253 57.7155 55.0693 58.0249 54.728L58.8729 55.72C58.4889 56.168 58.0089 56.5093 57.4329 56.744C56.8675 56.9787 56.2329 57.096 55.5289 57.096ZM72.1578 48.44C72.8404 48.44 73.4431 48.5733 73.9658 48.84C74.4884 49.1067 74.8938 49.512 75.1818 50.056C75.4804 50.6 75.6298 51.288 75.6298 52.12V57H74.0938V52.296C74.0938 51.4747 73.9018 50.856 73.5178 50.44C73.1338 50.024 72.5951 49.816 71.9018 49.816C71.3898 49.816 70.9418 49.9227 70.5578 50.136C70.1738 50.3493 69.8751 50.664 69.6618 51.08C69.4591 51.496 69.3578 52.0133 69.3578 52.632V57H67.8218V52.296C67.8218 51.4747 67.6298 50.856 67.2458 50.44C66.8724 50.024 66.3338 49.816 65.6298 49.816C65.1284 49.816 64.6858 49.9227 64.3018 50.136C63.9178 50.3493 63.6191 50.664 63.4058 51.08C63.1924 51.496 63.0858 52.0133 63.0858 52.632V57H61.5498V48.52H63.0218V50.776L62.7818 50.2C63.0484 49.6453 63.4591 49.2133 64.0138 48.904C64.5684 48.5947 65.2138 48.44 65.9498 48.44C66.7604 48.44 67.4591 48.6427 68.0458 49.048C68.6324 49.4427 69.0164 50.0453 69.1978 50.856L68.5738 50.6C68.8298 49.9493 69.2778 49.4267 69.9178 49.032C70.5578 48.6373 71.3044 48.44 72.1578 48.44ZM80.888 57.096C80.184 57.096 79.512 57 78.872 56.808C78.2427 56.616 77.7467 56.3813 77.384 56.104L78.024 54.888C78.3867 55.1333 78.8347 55.3413 79.368 55.512C79.9013 55.6827 80.4453 55.768 81 55.768C81.7147 55.768 82.2267 55.6667 82.536 55.464C82.856 55.2613 83.016 54.9787 83.016 54.616C83.016 54.3493 82.92 54.1413 82.728 53.992C82.536 53.8427 82.28 53.7307 81.96 53.656C81.6507 53.5813 81.304 53.5173 80.92 53.464C80.536 53.4 80.152 53.3253 79.768 53.24C79.384 53.144 79.032 53.016 78.712 52.856C78.392 52.6853 78.136 52.456 77.944 52.168C77.752 51.8693 77.656 51.4747 77.656 50.984C77.656 50.472 77.8 50.024 78.088 49.64C78.376 49.256 78.7813 48.9627 79.304 48.76C79.8373 48.5467 80.4667 48.44 81.192 48.44C81.7467 48.44 82.3067 48.5093 82.872 48.648C83.448 48.776 83.9173 48.9627 84.28 49.208L83.624 50.424C83.24 50.168 82.84 49.992 82.424 49.896C82.008 49.8 81.592 49.752 81.176 49.752C80.504 49.752 80.0027 49.864 79.672 50.088C79.3413 50.3013 79.176 50.5787 79.176 50.92C79.176 51.208 79.272 51.432 79.464 51.592C79.6667 51.7413 79.9227 51.8587 80.232 51.944C80.552 52.0293 80.904 52.104 81.288 52.168C81.672 52.2213 82.056 52.296 82.44 52.392C82.824 52.4773 83.1707 52.6 83.48 52.76C83.8 52.92 84.056 53.144 84.248 53.432C84.4507 53.72 84.552 54.104 84.552 54.584C84.552 55.096 84.4027 55.5387 84.104 55.912C83.8053 56.2853 83.384 56.5787 82.84 56.792C82.296 56.9947 81.6453 57.096 80.888 57.096Z" fill="#454545"/>
<rect x="24" y="27" width="156.333" height="48" stroke="#DDDDE6" stroke-width="2"/>
<rect x="180.333" y="27" width="156.333" height="48" fill="#F9F9FB"/>
<path d="M240.444 57.128C239.591 57.128 238.775 57 237.996 56.744C237.217 56.4773 236.604 56.136 236.156 55.72L236.748 54.472C237.175 54.8453 237.719 55.1547 238.38 55.4C239.041 55.6453 239.729 55.768 240.444 55.768C241.095 55.768 241.623 55.6933 242.028 55.544C242.433 55.3947 242.732 55.192 242.924 54.936C243.116 54.6693 243.212 54.3707 243.212 54.04C243.212 53.656 243.084 53.3467 242.828 53.112C242.583 52.8773 242.257 52.6907 241.852 52.552C241.457 52.4027 241.02 52.2747 240.54 52.168C240.06 52.0613 239.575 51.9387 239.084 51.8C238.604 51.6507 238.161 51.464 237.756 51.24C237.361 51.016 237.041 50.7173 236.796 50.344C236.551 49.96 236.428 49.4693 236.428 48.872C236.428 48.296 236.577 47.768 236.876 47.288C237.185 46.7973 237.655 46.408 238.284 46.12C238.924 45.8213 239.735 45.672 240.716 45.672C241.367 45.672 242.012 45.7573 242.652 45.928C243.292 46.0987 243.847 46.344 244.316 46.664L243.788 47.944C243.308 47.624 242.801 47.3947 242.268 47.256C241.735 47.1067 241.217 47.032 240.716 47.032C240.087 47.032 239.569 47.112 239.164 47.272C238.759 47.432 238.46 47.6453 238.268 47.912C238.087 48.1787 237.996 48.4773 237.996 48.808C237.996 49.2027 238.119 49.5173 238.364 49.752C238.62 49.9867 238.945 50.1733 239.34 50.312C239.745 50.4507 240.188 50.5787 240.668 50.696C241.148 50.8027 241.628 50.9253 242.108 51.064C242.599 51.2027 243.041 51.384 243.436 51.608C243.841 51.832 244.167 52.1307 244.412 52.504C244.657 52.8773 244.78 53.3573 244.78 53.944C244.78 54.5093 244.625 55.0373 244.316 55.528C244.007 56.008 243.527 56.3973 242.876 56.696C242.236 56.984 241.425 57.128 240.444 57.128ZM249.806 57.096C248.952 57.096 248.291 56.8667 247.822 56.408C247.352 55.9493 247.118 55.2933 247.118 54.44V46.664H248.654V54.376C248.654 54.8347 248.766 55.1867 248.99 55.432C249.224 55.6773 249.555 55.8 249.982 55.8C250.462 55.8 250.862 55.6667 251.182 55.4L251.662 56.504C251.427 56.7067 251.144 56.856 250.814 56.952C250.494 57.048 250.158 57.096 249.806 57.096ZM245.678 49.784V48.52H251.086V49.784H245.678ZM256.869 57.096C256.016 57.096 255.259 56.9093 254.597 56.536C253.936 56.1627 253.413 55.6507 253.029 55C252.645 54.3387 252.453 53.592 252.453 52.76C252.453 51.9173 252.645 51.1707 253.029 50.52C253.413 49.8693 253.936 49.3627 254.597 49C255.259 48.6267 256.016 48.44 256.869 48.44C257.712 48.44 258.464 48.6267 259.125 49C259.797 49.3627 260.32 49.8693 260.693 50.52C261.077 51.16 261.269 51.9067 261.269 52.76C261.269 53.6027 261.077 54.3493 260.693 55C260.32 55.6507 259.797 56.1627 259.125 56.536C258.464 56.9093 257.712 57.096 256.869 57.096ZM256.869 55.752C257.413 55.752 257.899 55.6293 258.325 55.384C258.763 55.1387 259.104 54.792 259.349 54.344C259.595 53.8853 259.717 53.3573 259.717 52.76C259.717 52.152 259.595 51.6293 259.349 51.192C259.104 50.744 258.763 50.3973 258.325 50.152C257.899 49.9067 257.413 49.784 256.869 49.784C256.325 49.784 255.84 49.9067 255.413 50.152C254.987 50.3973 254.645 50.744 254.389 51.192C254.133 51.6293 254.005 52.152 254.005 52.76C254.005 53.3573 254.133 53.8853 254.389 54.344C254.645 54.792 254.987 55.1387 255.413 55.384C255.84 55.6293 256.325 55.752 256.869 55.752ZM267.09 57.096C266.226 57.096 265.452 56.9093 264.77 56.536C264.098 56.1627 263.57 55.6507 263.186 55C262.802 54.3493 262.61 53.6027 262.61 52.76C262.61 51.9173 262.802 51.1707 263.186 50.52C263.57 49.8693 264.098 49.3627 264.77 49C265.452 48.6267 266.226 48.44 267.09 48.44C267.858 48.44 268.54 48.5947 269.138 48.904C269.746 49.2027 270.215 49.6507 270.546 50.248L269.378 51C269.1 50.584 268.759 50.28 268.354 50.088C267.959 49.8853 267.532 49.784 267.074 49.784C266.519 49.784 266.023 49.9067 265.586 50.152C265.148 50.3973 264.802 50.744 264.546 51.192C264.29 51.6293 264.162 52.152 264.162 52.76C264.162 53.368 264.29 53.896 264.546 54.344C264.802 54.792 265.148 55.1387 265.586 55.384C266.023 55.6293 266.519 55.752 267.074 55.752C267.532 55.752 267.959 55.656 268.354 55.464C268.759 55.2613 269.1 54.952 269.378 54.536L270.546 55.272C270.215 55.8587 269.746 56.312 269.138 56.632C268.54 56.9413 267.858 57.096 267.09 57.096ZM273.673 54.952L273.705 52.984L278.585 48.52H280.441L276.697 52.2L275.865 52.904L273.673 54.952ZM272.425 57V45.128H273.961V57H272.425ZM278.905 57L275.577 52.872L276.569 51.64L280.793 57H278.905Z" fill="#454545"/>
<rect x="180.333" y="27" width="156.333" height="48" stroke="#DDDDE6" stroke-width="2"/>
<rect x="336.667" y="27" width="98" height="48" fill="#F9F9FB"/>
<path d="M357.651 57L362.723 45.8H364.307L369.395 57H367.715L363.187 46.696H363.827L359.299 57H357.651ZM359.811 54.2L360.243 52.92H366.547L367.011 54.2H359.811ZM374.459 57.096C373.595 57.096 372.822 56.9093 372.139 56.536C371.467 56.1627 370.939 55.6507 370.555 55C370.171 54.3493 369.979 53.6027 369.979 52.76C369.979 51.9173 370.171 51.1707 370.555 50.52C370.939 49.8693 371.467 49.3627 372.139 49C372.822 48.6267 373.595 48.44 374.459 48.44C375.227 48.44 375.91 48.5947 376.507 48.904C377.115 49.2027 377.585 49.6507 377.915 50.248L376.747 51C376.47 50.584 376.129 50.28 375.723 50.088C375.329 49.8853 374.902 49.784 374.443 49.784C373.889 49.784 373.393 49.9067 372.955 50.152C372.518 50.3973 372.171 50.744 371.915 51.192C371.659 51.6293 371.531 52.152 371.531 52.76C371.531 53.368 371.659 53.896 371.915 54.344C372.171 54.792 372.518 55.1387 372.955 55.384C373.393 55.6293 373.889 55.752 374.443 55.752C374.902 55.752 375.329 55.656 375.723 55.464C376.129 55.2613 376.47 54.952 376.747 54.536L377.915 55.272C377.585 55.8587 377.115 56.312 376.507 56.632C375.91 56.9413 375.227 57.096 374.459 57.096ZM383.475 57.096C382.611 57.096 381.838 56.9093 381.155 56.536C380.483 56.1627 379.955 55.6507 379.571 55C379.187 54.3493 378.995 53.6027 378.995 52.76C378.995 51.9173 379.187 51.1707 379.571 50.52C379.955 49.8693 380.483 49.3627 381.155 49C381.838 48.6267 382.611 48.44 383.475 48.44C384.243 48.44 384.926 48.5947 385.523 48.904C386.131 49.2027 386.6 49.6507 386.931 50.248L385.763 51C385.486 50.584 385.144 50.28 384.739 50.088C384.344 49.8853 383.918 49.784 383.459 49.784C382.904 49.784 382.408 49.9067 381.971 50.152C381.534 50.3973 381.187 50.744 380.931 51.192C380.675 51.6293 380.547 52.152 380.547 52.76C380.547 53.368 380.675 53.896 380.931 54.344C381.187 54.792 381.534 55.1387 381.971 55.384C382.408 55.6293 382.904 55.752 383.459 55.752C383.918 55.752 384.344 55.656 384.739 55.464C385.144 55.2613 385.486 54.952 385.763 54.536L386.931 55.272C386.6 55.8587 386.131 56.312 385.523 56.632C384.926 56.9413 384.243 57.096 383.475 57.096ZM392.571 57.096C391.664 57.096 390.864 56.9093 390.171 56.536C389.488 56.1627 388.955 55.6507 388.571 55C388.197 54.3493 388.011 53.6027 388.011 52.76C388.011 51.9173 388.192 51.1707 388.555 50.52C388.928 49.8693 389.435 49.3627 390.075 49C390.725 48.6267 391.456 48.44 392.267 48.44C393.088 48.44 393.813 48.6213 394.443 48.984C395.072 49.3467 395.563 49.8587 395.915 50.52C396.277 51.1707 396.459 51.9333 396.459 52.808C396.459 52.872 396.453 52.9467 396.443 53.032C396.443 53.1173 396.437 53.1973 396.427 53.272H389.211V52.168H395.627L395.003 52.552C395.013 52.008 394.901 51.5227 394.667 51.096C394.432 50.6693 394.107 50.3387 393.691 50.104C393.285 49.8587 392.811 49.736 392.267 49.736C391.733 49.736 391.259 49.8587 390.843 50.104C390.427 50.3387 390.101 50.6747 389.867 51.112C389.632 51.5387 389.515 52.0293 389.515 52.584V52.84C389.515 53.4053 389.643 53.912 389.899 54.36C390.165 54.7973 390.533 55.1387 391.003 55.384C391.472 55.6293 392.011 55.752 392.619 55.752C393.12 55.752 393.573 55.6667 393.979 55.496C394.395 55.3253 394.757 55.0693 395.067 54.728L395.915 55.72C395.531 56.168 395.051 56.5093 394.475 56.744C393.909 56.9787 393.275 57.096 392.571 57.096ZM401.023 57.096C400.319 57.096 399.647 57 399.007 56.808C398.378 56.616 397.882 56.3813 397.519 56.104L398.159 54.888C398.522 55.1333 398.97 55.3413 399.503 55.512C400.037 55.6827 400.581 55.768 401.135 55.768C401.85 55.768 402.362 55.6667 402.671 55.464C402.991 55.2613 403.151 54.9787 403.151 54.616C403.151 54.3493 403.055 54.1413 402.863 53.992C402.671 53.8427 402.415 53.7307 402.095 53.656C401.786 53.5813 401.439 53.5173 401.055 53.464C400.671 53.4 400.287 53.3253 399.903 53.24C399.519 53.144 399.167 53.016 398.847 52.856C398.527 52.6853 398.271 52.456 398.079 52.168C397.887 51.8693 397.791 51.4747 397.791 50.984C397.791 50.472 397.935 50.024 398.223 49.64C398.511 49.256 398.917 48.9627 399.439 48.76C399.973 48.5467 400.602 48.44 401.327 48.44C401.882 48.44 402.442 48.5093 403.007 48.648C403.583 48.776 404.053 48.9627 404.415 49.208L403.759 50.424C403.375 50.168 402.975 49.992 402.559 49.896C402.143 49.8 401.727 49.752 401.311 49.752C400.639 49.752 400.138 49.864 399.807 50.088C399.477 50.3013 399.311 50.5787 399.311 50.92C399.311 51.208 399.407 51.432 399.599 51.592C399.802 51.7413 400.058 51.8587 400.367 51.944C400.687 52.0293 401.039 52.104 401.423 52.168C401.807 52.2213 402.191 52.296 402.575 52.392C402.959 52.4773 403.306 52.6 403.615 52.76C403.935 52.92 404.191 53.144 404.383 53.432C404.586 53.72 404.687 54.104 404.687 54.584C404.687 55.096 404.538 55.5387 404.239 55.912C403.941 56.2853 403.519 56.5787 402.975 56.792C402.431 56.9947 401.781 57.096 401.023 57.096ZM409.039 57.096C408.335 57.096 407.663 57 407.023 56.808C406.394 56.616 405.898 56.3813 405.535 56.104L406.175 54.888C406.538 55.1333 406.986 55.3413 407.519 55.512C408.052 55.6827 408.596 55.768 409.151 55.768C409.866 55.768 410.378 55.6667 410.687 55.464C411.007 55.2613 411.167 54.9787 411.167 54.616C411.167 54.3493 411.071 54.1413 410.879 53.992C410.687 53.8427 410.431 53.7307 410.111 53.656C409.802 53.5813 409.455 53.5173 409.071 53.464C408.687 53.4 408.303 53.3253 407.919 53.24C407.535 53.144 407.183 53.016 406.863 52.856C406.543 52.6853 406.287 52.456 406.095 52.168C405.903 51.8693 405.807 51.4747 405.807 50.984C405.807 50.472 405.951 50.024 406.239 49.64C406.527 49.256 406.932 48.9627 407.455 48.76C407.988 48.5467 408.618 48.44 409.343 48.44C409.898 48.44 410.458 48.5093 411.023 48.648C411.599 48.776 412.068 48.9627 412.431 49.208L411.775 50.424C411.391 50.168 410.991 49.992 410.575 49.896C410.159 49.8 409.743 49.752 409.327 49.752C408.655 49.752 408.154 49.864 407.823 50.088C407.492 50.3013 407.327 50.5787 407.327 50.92C407.327 51.208 407.423 51.432 407.615 51.592C407.818 51.7413 408.074 51.8587 408.383 51.944C408.703 52.0293 409.055 52.104 409.439 52.168C409.823 52.2213 410.207 52.296 410.591 52.392C410.975 52.4773 411.322 52.6 411.631 52.76C411.951 52.92 412.207 53.144 412.399 53.432C412.602 53.72 412.703 54.104 412.703 54.584C412.703 55.096 412.554 55.5387 412.255 55.912C411.956 56.2853 411.535 56.5787 410.991 56.792C410.447 56.9947 409.796 57.096 409.039 57.096Z" fill="#454545"/>
<rect x="336.667" y="27" width="98" height="48" stroke="#DDDDE6" stroke-width="2"/>
<rect x="434.667" y="27" width="156.333" height="48" fill="#F9F9FB"/>
<path d="M487.013 57V45.8H491.381C492.363 45.8 493.2 45.9547 493.893 46.264C494.587 46.5733 495.12 47.0213 495.493 47.608C495.867 48.1947 496.053 48.8933 496.053 49.704C496.053 50.5147 495.867 51.2133 495.493 51.8C495.12 52.376 494.587 52.8187 493.893 53.128C493.2 53.4373 492.363 53.592 491.381 53.592H487.893L488.613 52.856V57H487.013ZM494.501 57L491.653 52.936H493.365L496.245 57H494.501ZM488.613 53.016L487.893 52.232H491.333C492.357 52.232 493.131 52.0133 493.653 51.576C494.187 51.128 494.453 50.504 494.453 49.704C494.453 48.904 494.187 48.2853 493.653 47.848C493.131 47.4107 492.357 47.192 491.333 47.192H487.893L488.613 46.392V53.016ZM503.6 57V55.208L503.52 54.872V51.816C503.52 51.1653 503.328 50.664 502.944 50.312C502.571 49.9493 502.006 49.768 501.248 49.768C500.747 49.768 500.256 49.8533 499.776 50.024C499.296 50.184 498.891 50.4027 498.56 50.68L497.92 49.528C498.358 49.176 498.88 48.9093 499.488 48.728C500.107 48.536 500.752 48.44 501.424 48.44C502.587 48.44 503.483 48.7227 504.112 49.288C504.742 49.8533 505.056 50.7173 505.056 51.88V57H503.6ZM500.816 57.096C500.187 57.096 499.632 56.9893 499.152 56.776C498.683 56.5627 498.32 56.2693 498.064 55.896C497.808 55.512 497.68 55.08 497.68 54.6C497.68 54.1413 497.787 53.7253 498 53.352C498.224 52.9787 498.582 52.68 499.072 52.456C499.574 52.232 500.246 52.12 501.088 52.12H503.776V53.224H501.152C500.384 53.224 499.867 53.352 499.6 53.608C499.334 53.864 499.2 54.1733 499.2 54.536C499.2 54.952 499.366 55.288 499.696 55.544C500.027 55.7893 500.486 55.912 501.072 55.912C501.648 55.912 502.15 55.784 502.576 55.528C503.014 55.272 503.328 54.8987 503.52 54.408L503.824 55.464C503.622 55.9653 503.264 56.3653 502.752 56.664C502.24 56.952 501.595 57.096 500.816 57.096ZM510.811 57.096C509.957 57.096 509.296 56.8667 508.827 56.408C508.357 55.9493 508.123 55.2933 508.123 54.44V46.664H509.659V54.376C509.659 54.8347 509.771 55.1867 509.995 55.432C510.229 55.6773 510.56 55.8 510.987 55.8C511.467 55.8 511.867 55.6667 512.187 55.4L512.667 56.504C512.432 56.7067 512.149 56.856 511.819 56.952C511.499 57.048 511.163 57.096 510.811 57.096ZM506.683 49.784V48.52H512.091V49.784H506.683ZM514.524 57V48.52H516.06V57H514.524ZM515.292 46.888C514.993 46.888 514.742 46.792 514.54 46.6C514.348 46.408 514.252 46.1733 514.252 45.896C514.252 45.608 514.348 45.368 514.54 45.176C514.742 44.984 514.993 44.888 515.292 44.888C515.59 44.888 515.836 44.984 516.028 45.176C516.23 45.3573 516.332 45.5867 516.332 45.864C516.332 46.152 516.236 46.3973 516.044 46.6C515.852 46.792 515.601 46.888 515.292 46.888ZM523.52 48.44C524.214 48.44 524.822 48.5733 525.344 48.84C525.878 49.1067 526.294 49.512 526.592 50.056C526.891 50.6 527.04 51.288 527.04 52.12V57H525.504V52.296C525.504 51.4747 525.302 50.856 524.896 50.44C524.502 50.024 523.942 49.816 523.216 49.816C522.672 49.816 522.198 49.9227 521.792 50.136C521.387 50.3493 521.072 50.664 520.848 51.08C520.635 51.496 520.528 52.0133 520.528 52.632V57H518.992V48.52H520.464V50.808L520.224 50.2C520.502 49.6453 520.928 49.2133 521.504 48.904C522.08 48.5947 522.752 48.44 523.52 48.44ZM533.595 60.2C532.816 60.2 532.059 60.088 531.323 59.864C530.598 59.6507 530.006 59.3413 529.547 58.936L530.283 57.752C530.678 58.0933 531.163 58.36 531.739 58.552C532.315 58.7547 532.918 58.856 533.547 58.856C534.55 58.856 535.286 58.6213 535.755 58.152C536.224 57.6827 536.459 56.968 536.459 56.008V54.216L536.619 52.536L536.539 50.84V48.52H537.995V55.848C537.995 57.3413 537.622 58.44 536.875 59.144C536.128 59.848 535.035 60.2 533.595 60.2ZM533.403 56.648C532.582 56.648 531.846 56.4773 531.195 56.136C530.555 55.784 530.043 55.2987 529.659 54.68C529.286 54.0613 529.099 53.3467 529.099 52.536C529.099 51.7147 529.286 51 529.659 50.392C530.043 49.7733 530.555 49.2933 531.195 48.952C531.846 48.6107 532.582 48.44 533.403 48.44C534.128 48.44 534.79 48.5893 535.387 48.888C535.984 49.176 536.459 49.624 536.811 50.232C537.174 50.84 537.355 51.608 537.355 52.536C537.355 53.4533 537.174 54.216 536.811 54.824C536.459 55.432 535.984 55.8907 535.387 56.2C534.79 56.4987 534.128 56.648 533.403 56.648ZM533.579 55.304C534.144 55.304 534.646 55.1867 535.083 54.952C535.52 54.7173 535.862 54.392 536.107 53.976C536.363 53.56 536.491 53.08 536.491 52.536C536.491 51.992 536.363 51.512 536.107 51.096C535.862 50.68 535.52 50.36 535.083 50.136C534.646 49.9013 534.144 49.784 533.579 49.784C533.014 49.784 532.507 49.9013 532.059 50.136C531.622 50.36 531.275 50.68 531.019 51.096C530.774 51.512 530.651 51.992 530.651 52.536C530.651 53.08 530.774 53.56 531.019 53.976C531.275 54.392 531.622 54.7173 532.059 54.952C532.507 55.1867 533.014 55.304 533.579 55.304Z" fill="#454545"/>
<rect x="434.667" y="27" width="156.333" height="48" stroke="#DDDDE6" stroke-width="2"/>
</g>
<g clip-path="url(#clip2_122_371)">
<rect x="24" y="75" width="156.333" height="55" fill="white"/>
<path d="M41.052 108.5V95.9H42.384V108.5H41.052ZM49.2016 108.59C48.3136 108.59 47.6296 108.35 47.1496 107.87C46.6696 107.39 46.4296 106.712 46.4296 105.836V96.962H47.7076V105.764C47.7076 106.316 47.8456 106.742 48.1216 107.042C48.4096 107.342 48.8176 107.492 49.3456 107.492C49.9096 107.492 50.3776 107.33 50.7496 107.006L51.1996 107.924C50.9476 108.152 50.6416 108.32 50.2816 108.428C49.9336 108.536 49.5736 108.59 49.2016 108.59ZM44.7376 100.112V99.05H50.5876V100.112H44.7376ZM57.2062 108.59C56.2222 108.59 55.3582 108.386 54.6142 107.978C53.8702 107.558 53.2882 106.988 52.8682 106.268C52.4482 105.536 52.2382 104.702 52.2382 103.766C52.2382 102.83 52.4362 102.002 52.8322 101.282C53.2402 100.562 53.7922 99.998 54.4882 99.59C55.1962 99.17 55.9882 98.96 56.8642 98.96C57.7522 98.96 58.5382 99.164 59.2222 99.572C59.9182 99.968 60.4642 100.532 60.8602 101.264C61.2562 101.984 61.4542 102.818 61.4542 103.766C61.4542 103.826 61.4482 103.892 61.4362 103.964C61.4362 104.024 61.4362 104.09 61.4362 104.162H53.2102V103.208H60.7522L60.2482 103.586C60.2482 102.902 60.0982 102.296 59.7982 101.768C59.5102 101.228 59.1142 100.808 58.6102 100.508C58.1062 100.208 57.5242 100.058 56.8642 100.058C56.2162 100.058 55.6342 100.208 55.1182 100.508C54.6022 100.808 54.2002 101.228 53.9122 101.768C53.6242 102.308 53.4802 102.926 53.4802 103.622V103.82C53.4802 104.54 53.6362 105.176 53.9482 105.728C54.2722 106.268 54.7162 106.694 55.2802 107.006C55.8562 107.306 56.5102 107.456 57.2422 107.456C57.8182 107.456 58.3522 107.354 58.8442 107.15C59.3482 106.946 59.7802 106.634 60.1402 106.214L60.8602 107.042C60.4402 107.546 59.9122 107.93 59.2762 108.194C58.6522 108.458 57.9622 108.59 57.2062 108.59ZM75.8634 98.96C76.6314 98.96 77.2974 99.11 77.8614 99.41C78.4374 99.698 78.8814 100.142 79.1934 100.742C79.5174 101.342 79.6794 102.098 79.6794 103.01V108.5H78.4014V103.136C78.4014 102.14 78.1614 101.39 77.6814 100.886C77.2134 100.37 76.5474 100.112 75.6834 100.112C75.0354 100.112 74.4714 100.25 73.9914 100.526C73.5234 100.79 73.1574 101.18 72.8934 101.696C72.6414 102.2 72.5154 102.812 72.5154 103.532V108.5H71.2374V103.136C71.2374 102.14 70.9974 101.39 70.5174 100.886C70.0374 100.37 69.3654 100.112 68.5014 100.112C67.8654 100.112 67.3074 100.25 66.8274 100.526C66.3474 100.79 65.9754 101.18 65.7114 101.696C65.4594 102.2 65.3334 102.812 65.3334 103.532V108.5H64.0554V99.05H65.2794V101.606L65.0814 101.156C65.3694 100.472 65.8314 99.938 66.4674 99.554C67.1154 99.158 67.8774 98.96 68.7534 98.96C69.6774 98.96 70.4634 99.194 71.1114 99.662C71.7594 100.118 72.1794 100.808 72.3714 101.732L71.8674 101.534C72.1434 100.766 72.6294 100.148 73.3254 99.68C74.0334 99.2 74.8794 98.96 75.8634 98.96ZM92.6802 98.96C93.4482 98.96 94.1202 99.11 94.6962 99.41C95.2842 99.698 95.7402 100.142 96.0642 100.742C96.4002 101.342 96.5682 102.098 96.5682 103.01V108.5H95.2902V103.136C95.2902 102.14 95.0382 101.39 94.5342 100.886C94.0422 100.37 93.3462 100.112 92.4462 100.112C91.7742 100.112 91.1862 100.25 90.6822 100.526C90.1902 100.79 89.8062 101.18 89.5302 101.696C89.2662 102.2 89.1342 102.812 89.1342 103.532V108.5H87.8562V99.05H89.0802V101.642L88.8822 101.156C89.1822 100.472 89.6622 99.938 90.3222 99.554C90.9822 99.158 91.7682 98.96 92.6802 98.96ZM105.942 108.5V106.412L105.888 106.07V102.578C105.888 101.774 105.66 101.156 105.204 100.724C104.76 100.292 104.094 100.076 103.206 100.076C102.594 100.076 102.012 100.178 101.46 100.382C100.908 100.586 100.44 100.856 100.056 101.192L99.4803 100.238C99.9603 99.83 100.536 99.518 101.208 99.302C101.88 99.074 102.588 98.96 103.332 98.96C104.556 98.96 105.498 99.266 106.158 99.878C106.83 100.478 107.166 101.396 107.166 102.632V108.5H105.942ZM102.684 108.59C101.976 108.59 101.358 108.476 100.83 108.248C100.314 108.008 99.9183 107.684 99.6423 107.276C99.3663 106.856 99.2283 106.376 99.2283 105.836C99.2283 105.344 99.3423 104.9 99.5703 104.504C99.8103 104.096 100.194 103.772 100.722 103.532C101.262 103.28 101.982 103.154 102.882 103.154H106.14V104.108H102.918C102.006 104.108 101.37 104.27 101.01 104.594C100.662 104.918 100.488 105.32 100.488 105.8C100.488 106.34 100.698 106.772 101.118 107.096C101.538 107.42 102.126 107.582 102.882 107.582C103.602 107.582 104.22 107.42 104.736 107.096C105.264 106.76 105.648 106.28 105.888 105.656L106.176 106.538C105.936 107.162 105.516 107.66 104.916 108.032C104.328 108.404 103.584 108.59 102.684 108.59ZM122.445 98.96C123.213 98.96 123.879 99.11 124.443 99.41C125.019 99.698 125.463 100.142 125.775 100.742C126.099 101.342 126.261 102.098 126.261 103.01V108.5H124.983V103.136C124.983 102.14 124.743 101.39 124.263 100.886C123.795 100.37 123.129 100.112 122.265 100.112C121.617 100.112 121.053 100.25 120.573 100.526C120.105 100.79 119.739 101.18 119.475 101.696C119.223 102.2 119.097 102.812 119.097 103.532V108.5H117.819V103.136C117.819 102.14 117.579 101.39 117.099 100.886C116.619 100.37 115.947 100.112 115.083 100.112C114.447 100.112 113.889 100.25 113.409 100.526C112.929 100.79 112.557 101.18 112.293 101.696C112.041 102.2 111.915 102.812 111.915 103.532V108.5H110.637V99.05H111.861V101.606L111.663 101.156C111.951 100.472 112.413 99.938 113.049 99.554C113.697 99.158 114.459 98.96 115.335 98.96C116.259 98.96 117.045 99.194 117.693 99.662C118.341 100.118 118.761 100.808 118.953 101.732L118.449 101.534C118.725 100.766 119.211 100.148 119.907 99.68C120.615 99.2 121.461 98.96 122.445 98.96ZM133.741 108.59C132.757 108.59 131.893 108.386 131.149 107.978C130.405 107.558 129.823 106.988 129.403 106.268C128.983 105.536 128.773 104.702 128.773 103.766C128.773 102.83 128.971 102.002 129.367 101.282C129.775 100.562 130.327 99.998 131.023 99.59C131.731 99.17 132.523 98.96 133.399 98.96C134.287 98.96 135.073 99.164 135.757 99.572C136.453 99.968 136.999 100.532 137.395 101.264C137.791 101.984 137.989 102.818 137.989 103.766C137.989 103.826 137.983 103.892 137.971 103.964C137.971 104.024 137.971 104.09 137.971 104.162H129.745V103.208H137.287L136.783 103.586C136.783 102.902 136.633 102.296 136.333 101.768C136.045 101.228 135.649 100.808 135.145 100.508C134.641 100.208 134.059 100.058 133.399 100.058C132.751 100.058 132.169 100.208 131.653 100.508C131.137 100.808 130.735 101.228 130.447 101.768C130.159 102.308 130.015 102.926 130.015 103.622V103.82C130.015 104.54 130.171 105.176 130.483 105.728C130.807 106.268 131.251 106.694 131.815 107.006C132.391 107.306 133.045 107.456 133.777 107.456C134.353 107.456 134.887 107.354 135.379 107.15C135.883 106.946 136.315 106.634 136.675 106.214L137.395 107.042C136.975 107.546 136.447 107.93 135.811 108.194C135.187 108.458 134.497 108.59 133.741 108.59ZM146.652 108.5V96.44L147.228 97.052H143.682V95.9H147.948V108.5H146.652Z" fill="#454545"/>
<rect x="24" y="75" width="156.333" height="55" stroke="#DDDDE6" stroke-width="2"/>
<rect x="180.333" y="75" width="156.333" height="55" fill="white"/>
<path d="M200.89 108.5V95.9H202.366L210.7 106.25H209.926V95.9H211.726V108.5H210.25L201.916 98.15H202.69V108.5H200.89ZM219.331 108.608C218.371 108.608 217.519 108.398 216.775 107.978C216.031 107.558 215.443 106.982 215.011 106.25C214.579 105.506 214.363 104.666 214.363 103.73C214.363 102.782 214.579 101.942 215.011 101.21C215.443 100.478 216.031 99.908 216.775 99.5C217.519 99.08 218.371 98.87 219.331 98.87C220.279 98.87 221.125 99.08 221.869 99.5C222.625 99.908 223.213 100.478 223.633 101.21C224.065 101.93 224.281 102.77 224.281 103.73C224.281 104.678 224.065 105.518 223.633 106.25C223.213 106.982 222.625 107.558 221.869 107.978C221.125 108.398 220.279 108.608 219.331 108.608ZM219.331 107.096C219.943 107.096 220.489 106.958 220.969 106.682C221.461 106.406 221.845 106.016 222.121 105.512C222.397 104.996 222.535 104.402 222.535 103.73C222.535 103.046 222.397 102.458 222.121 101.966C221.845 101.462 221.461 101.072 220.969 100.796C220.489 100.52 219.943 100.382 219.331 100.382C218.719 100.382 218.173 100.52 217.693 100.796C217.213 101.072 216.829 101.462 216.541 101.966C216.253 102.458 216.109 103.046 216.109 103.73C216.109 104.402 216.253 104.996 216.541 105.512C216.829 106.016 217.213 106.406 217.693 106.682C218.173 106.958 218.719 107.096 219.331 107.096ZM229.947 108.608C228.987 108.608 228.243 108.35 227.715 107.834C227.187 107.318 226.923 106.58 226.923 105.62V96.872H228.651V105.548C228.651 106.064 228.777 106.46 229.029 106.736C229.293 107.012 229.665 107.15 230.145 107.15C230.685 107.15 231.135 107 231.495 106.7L232.035 107.942C231.771 108.17 231.453 108.338 231.081 108.446C230.721 108.554 230.343 108.608 229.947 108.608ZM225.303 100.382V98.96H231.387V100.382H225.303ZM244.88 108.5V106.484L244.79 106.106V102.668C244.79 101.936 244.574 101.372 244.142 100.976C243.722 100.568 243.086 100.364 242.234 100.364C241.67 100.364 241.118 100.46 240.578 100.652C240.038 100.832 239.582 101.078 239.21 101.39L238.49 100.094C238.982 99.698 239.57 99.398 240.254 99.194C240.95 98.978 241.676 98.87 242.432 98.87C243.74 98.87 244.748 99.188 245.456 99.824C246.164 100.46 246.518 101.432 246.518 102.74V108.5H244.88ZM241.748 108.608C241.04 108.608 240.416 108.488 239.876 108.248C239.348 108.008 238.94 107.678 238.652 107.258C238.364 106.826 238.22 106.34 238.22 105.8C238.22 105.284 238.34 104.816 238.58 104.396C238.832 103.976 239.234 103.64 239.786 103.388C240.35 103.136 241.106 103.01 242.054 103.01H245.078V104.252H242.126C241.262 104.252 240.68 104.396 240.38 104.684C240.08 104.972 239.93 105.32 239.93 105.728C239.93 106.196 240.116 106.574 240.488 106.862C240.86 107.138 241.376 107.276 242.036 107.276C242.684 107.276 243.248 107.132 243.728 106.844C244.22 106.556 244.574 106.136 244.79 105.584L245.132 106.772C244.904 107.336 244.502 107.786 243.926 108.122C243.35 108.446 242.624 108.608 241.748 108.608ZM252.042 108.5L247.866 98.96H249.666L253.374 107.6H252.51L256.29 98.96H257.982L253.806 108.5H252.042ZM265.218 108.5V106.484L265.128 106.106V102.668C265.128 101.936 264.912 101.372 264.48 100.976C264.06 100.568 263.424 100.364 262.572 100.364C262.008 100.364 261.456 100.46 260.916 100.652C260.376 100.832 259.92 101.078 259.548 101.39L258.828 100.094C259.32 99.698 259.908 99.398 260.592 99.194C261.288 98.978 262.014 98.87 262.77 98.87C264.078 98.87 265.086 99.188 265.794 99.824C266.502 100.46 266.856 101.432 266.856 102.74V108.5H265.218ZM262.086 108.608C261.378 108.608 260.754 108.488 260.214 108.248C259.686 108.008 259.278 107.678 258.99 107.258C258.702 106.826 258.558 106.34 258.558 105.8C258.558 105.284 258.678 104.816 258.918 104.396C259.17 103.976 259.572 103.64 260.124 103.388C260.688 103.136 261.444 103.01 262.392 103.01H265.416V104.252H262.464C261.6 104.252 261.018 104.396 260.718 104.684C260.418 104.972 260.268 105.32 260.268 105.728C260.268 106.196 260.454 106.574 260.826 106.862C261.198 107.138 261.714 107.276 262.374 107.276C263.022 107.276 263.586 107.132 264.066 106.844C264.558 106.556 264.912 106.136 265.128 105.584L265.47 106.772C265.242 107.336 264.84 107.786 264.264 108.122C263.688 108.446 262.962 108.608 262.086 108.608ZM270.054 108.5V98.96H271.782V108.5H270.054ZM270.918 97.124C270.582 97.124 270.3 97.016 270.072 96.8C269.856 96.584 269.748 96.32 269.748 96.008C269.748 95.684 269.856 95.414 270.072 95.198C270.3 94.982 270.582 94.874 270.918 94.874C271.254 94.874 271.53 94.982 271.746 95.198C271.974 95.402 272.088 95.66 272.088 95.972C272.088 96.296 271.98 96.572 271.764 96.8C271.548 97.016 271.266 97.124 270.918 97.124ZM275.081 108.5V95.144H276.809V108.5H275.081ZM286.031 108.5V106.484L285.941 106.106V102.668C285.941 101.936 285.725 101.372 285.293 100.976C284.873 100.568 284.237 100.364 283.385 100.364C282.821 100.364 282.269 100.46 281.729 100.652C281.189 100.832 280.733 101.078 280.361 101.39L279.641 100.094C280.133 99.698 280.721 99.398 281.405 99.194C282.101 98.978 282.827 98.87 283.583 98.87C284.891 98.87 285.899 99.188 286.607 99.824C287.315 100.46 287.669 101.432 287.669 102.74V108.5H286.031ZM282.899 108.608C282.191 108.608 281.567 108.488 281.027 108.248C280.499 108.008 280.091 107.678 279.803 107.258C279.515 106.826 279.371 106.34 279.371 105.8C279.371 105.284 279.491 104.816 279.731 104.396C279.983 103.976 280.385 103.64 280.937 103.388C281.501 103.136 282.257 103.01 283.205 103.01H286.229V104.252H283.277C282.413 104.252 281.831 104.396 281.531 104.684C281.231 104.972 281.081 105.32 281.081 105.728C281.081 106.196 281.267 106.574 281.639 106.862C282.011 107.138 282.527 107.276 283.187 107.276C283.835 107.276 284.399 107.132 284.879 106.844C285.371 106.556 285.725 106.136 285.941 105.584L286.283 106.772C286.055 107.336 285.653 107.786 285.077 108.122C284.501 108.446 283.775 108.608 282.899 108.608ZM295.925 108.608C295.109 108.608 294.371 108.428 293.711 108.068C293.063 107.696 292.547 107.15 292.163 106.43C291.791 105.71 291.605 104.81 291.605 103.73C291.605 102.65 291.797 101.75 292.181 101.03C292.577 100.31 293.099 99.77 293.747 99.41C294.407 99.05 295.133 98.87 295.925 98.87C296.861 98.87 297.689 99.074 298.409 99.482C299.129 99.89 299.699 100.46 300.119 101.192C300.539 101.912 300.749 102.758 300.749 103.73C300.749 104.702 300.539 105.554 300.119 106.286C299.699 107.018 299.129 107.588 298.409 107.996C297.689 108.404 296.861 108.608 295.925 108.608ZM290.867 108.5V95.144H292.595V101.498L292.415 103.712L292.523 105.926V108.5H290.867ZM295.781 107.096C296.393 107.096 296.939 106.958 297.419 106.682C297.911 106.406 298.295 106.016 298.571 105.512C298.859 104.996 299.003 104.402 299.003 103.73C299.003 103.046 298.859 102.458 298.571 101.966C298.295 101.462 297.911 101.072 297.419 100.796C296.939 100.52 296.393 100.382 295.781 100.382C295.181 100.382 294.635 100.52 294.143 100.796C293.663 101.072 293.279 101.462 292.991 101.966C292.715 102.458 292.577 103.046 292.577 103.73C292.577 104.402 292.715 104.996 292.991 105.512C293.279 106.016 293.663 106.406 294.143 106.682C294.635 106.958 295.181 107.096 295.781 107.096ZM303.136 108.5V95.144H304.864V108.5H303.136ZM312.411 108.608C311.391 108.608 310.491 108.398 309.711 107.978C308.943 107.558 308.343 106.982 307.911 106.25C307.491 105.518 307.281 104.678 307.281 103.73C307.281 102.782 307.485 101.942 307.893 101.21C308.313 100.478 308.883 99.908 309.603 99.5C310.335 99.08 311.157 98.87 312.069 98.87C312.993 98.87 313.809 99.074 314.517 99.482C315.225 99.89 315.777 100.466 316.173 101.21C316.581 101.942 316.785 102.8 316.785 103.784C316.785 103.856 316.779 103.94 316.767 104.036C316.767 104.132 316.761 104.222 316.749 104.306H308.631V103.064H315.849L315.147 103.496C315.159 102.884 315.033 102.338 314.769 101.858C314.505 101.378 314.139 101.006 313.671 100.742C313.215 100.466 312.681 100.328 312.069 100.328C311.469 100.328 310.935 100.466 310.467 100.742C309.999 101.006 309.633 101.384 309.369 101.876C309.105 102.356 308.973 102.908 308.973 103.532V103.82C308.973 104.456 309.117 105.026 309.405 105.53C309.705 106.022 310.119 106.406 310.647 106.682C311.175 106.958 311.781 107.096 312.465 107.096C313.029 107.096 313.539 107 313.995 106.808C314.463 106.616 314.871 106.328 315.219 105.944L316.173 107.06C315.741 107.564 315.201 107.948 314.553 108.212C313.917 108.476 313.203 108.608 312.411 108.608Z" fill="#454545"/>
<rect x="180.333" y="75" width="156.333" height="55" stroke="#DDDDE6" stroke-width="2"/>
<rect x="336.667" y="75" width="98" height="55" fill="white"/>
<g clip-path="url(#clip3_122_371)">
<circle cx="385.667" cy="102.5" r="12" fill="#F82C2C" fill-opacity="0.1" stroke="#F82C2C"/>
<path d="M381.917 98.75L385.667 102.5M389.417 106.25L385.667 102.5M385.667 102.5L389.417 98.75M385.667 102.5L381.917 106.25" stroke="#F82C2C" stroke-width="2"/>
</g>
<rect x="336.667" y="75" width="98" height="55" stroke="#DDDDE6" stroke-width="2"/>
<rect x="434.667" y="75" width="156.333" height="55" fill="white"/>
<path d="M466.833 92.5L469.808 98.4064L476.344 99.4098L471.646 104.064L472.711 110.59L466.833 107.56L460.955 110.59L462.021 104.064L457.323 99.4098L463.859 98.4064L466.833 92.5Z" fill="#F28100"/>
<path d="M489.833 92.5L492.808 98.4064L499.344 99.4098L494.646 104.064L495.711 110.59L489.833 107.56L483.955 110.59L485.021 104.064L480.323 99.4098L486.859 98.4064L489.833 92.5Z" fill="#F28100"/>
<path d="M512.833 92.5L515.808 98.4064L522.344 99.4098L517.646 104.064L518.711 110.59L512.833 107.56L506.955 110.59L508.021 104.064L503.323 99.4098L509.859 98.4064L512.833 92.5Z" fill="#F28100"/>
<path d="M535.833 92.5L538.808 98.4064L545.344 99.4098L540.646 104.064L541.711 110.59L535.833 107.56L529.955 110.59L531.021 104.064L526.323 99.4098L532.859 98.4064L535.833 92.5Z" fill="#F28100"/>
<path d="M558.833 92.5L561.808 98.4064L568.344 99.4098L563.646 104.064L564.711 110.59L558.833 107.56L552.955 110.59L554.021 104.064L549.323 99.4098L555.859 98.4064L558.833 92.5Z" fill="#F28100"/>
<rect x="434.667" y="75" width="156.333" height="55" stroke="#DDDDE6" stroke-width="2"/>
</g>
<rect x="24" y="75" width="567" height="55" stroke="#DDDDE6" stroke-width="2"/>
<g clip-path="url(#clip4_122_371)">
<rect x="24" y="130" width="156.333" height="55" fill="white"/>
<path d="M41.052 163.5V150.9H42.384V163.5H41.052ZM49.2016 163.59C48.3136 163.59 47.6296 163.35 47.1496 162.87C46.6696 162.39 46.4296 161.712 46.4296 160.836V151.962H47.7076V160.764C47.7076 161.316 47.8456 161.742 48.1216 162.042C48.4096 162.342 48.8176 162.492 49.3456 162.492C49.9096 162.492 50.3776 162.33 50.7496 162.006L51.1996 162.924C50.9476 163.152 50.6416 163.32 50.2816 163.428C49.9336 163.536 49.5736 163.59 49.2016 163.59ZM44.7376 155.112V154.05H50.5876V155.112H44.7376ZM57.2062 163.59C56.2222 163.59 55.3582 163.386 54.6142 162.978C53.8702 162.558 53.2882 161.988 52.8682 161.268C52.4482 160.536 52.2382 159.702 52.2382 158.766C52.2382 157.83 52.4362 157.002 52.8322 156.282C53.2402 155.562 53.7922 154.998 54.4882 154.59C55.1962 154.17 55.9882 153.96 56.8642 153.96C57.7522 153.96 58.5382 154.164 59.2222 154.572C59.9182 154.968 60.4642 155.532 60.8602 156.264C61.2562 156.984 61.4542 157.818 61.4542 158.766C61.4542 158.826 61.4482 158.892 61.4362 158.964C61.4362 159.024 61.4362 159.09 61.4362 159.162H53.2102V158.208H60.7522L60.2482 158.586C60.2482 157.902 60.0982 157.296 59.7982 156.768C59.5102 156.228 59.1142 155.808 58.6102 155.508C58.1062 155.208 57.5242 155.058 56.8642 155.058C56.2162 155.058 55.6342 155.208 55.1182 155.508C54.6022 155.808 54.2002 156.228 53.9122 156.768C53.6242 157.308 53.4802 157.926 53.4802 158.622V158.82C53.4802 159.54 53.6362 160.176 53.9482 160.728C54.2722 161.268 54.7162 161.694 55.2802 162.006C55.8562 162.306 56.5102 162.456 57.2422 162.456C57.8182 162.456 58.3522 162.354 58.8442 162.15C59.3482 161.946 59.7802 161.634 60.1402 161.214L60.8602 162.042C60.4402 162.546 59.9122 162.93 59.2762 163.194C58.6522 163.458 57.9622 163.59 57.2062 163.59ZM75.8634 153.96C76.6314 153.96 77.2974 154.11 77.8614 154.41C78.4374 154.698 78.8814 155.142 79.1934 155.742C79.5174 156.342 79.6794 157.098 79.6794 158.01V163.5H78.4014V158.136C78.4014 157.14 78.1614 156.39 77.6814 155.886C77.2134 155.37 76.5474 155.112 75.6834 155.112C75.0354 155.112 74.4714 155.25 73.9914 155.526C73.5234 155.79 73.1574 156.18 72.8934 156.696C72.6414 157.2 72.5154 157.812 72.5154 158.532V163.5H71.2374V158.136C71.2374 157.14 70.9974 156.39 70.5174 155.886C70.0374 155.37 69.3654 155.112 68.5014 155.112C67.8654 155.112 67.3074 155.25 66.8274 155.526C66.3474 155.79 65.9754 156.18 65.7114 156.696C65.4594 157.2 65.3334 157.812 65.3334 158.532V163.5H64.0554V154.05H65.2794V156.606L65.0814 156.156C65.3694 155.472 65.8314 154.938 66.4674 154.554C67.1154 154.158 67.8774 153.96 68.7534 153.96C69.6774 153.96 70.4634 154.194 71.1114 154.662C71.7594 155.118 72.1794 155.808 72.3714 156.732L71.8674 156.534C72.1434 155.766 72.6294 155.148 73.3254 154.68C74.0334 154.2 74.8794 153.96 75.8634 153.96ZM92.6802 153.96C93.4482 153.96 94.1202 154.11 94.6962 154.41C95.2842 154.698 95.7402 155.142 96.0642 155.742C96.4002 156.342 96.5682 157.098 96.5682 158.01V163.5H95.2902V158.136C95.2902 157.14 95.0382 156.39 94.5342 155.886C94.0422 155.37 93.3462 155.112 92.4462 155.112C91.7742 155.112 91.1862 155.25 90.6822 155.526C90.1902 155.79 89.8062 156.18 89.5302 156.696C89.2662 157.2 89.1342 157.812 89.1342 158.532V163.5H87.8562V154.05H89.0802V156.642L88.8822 156.156C89.1822 155.472 89.6622 154.938 90.3222 154.554C90.9822 154.158 91.7682 153.96 92.6802 153.96ZM105.942 163.5V161.412L105.888 161.07V157.578C105.888 156.774 105.66 156.156 105.204 155.724C104.76 155.292 104.094 155.076 103.206 155.076C102.594 155.076 102.012 155.178 101.46 155.382C100.908 155.586 100.44 155.856 100.056 156.192L99.4803 155.238C99.9603 154.83 100.536 154.518 101.208 154.302C101.88 154.074 102.588 153.96 103.332 153.96C104.556 153.96 105.498 154.266 106.158 154.878C106.83 155.478 107.166 156.396 107.166 157.632V163.5H105.942ZM102.684 163.59C101.976 163.59 101.358 163.476 100.83 163.248C100.314 163.008 99.9183 162.684 99.6423 162.276C99.3663 161.856 99.2283 161.376 99.2283 160.836C99.2283 160.344 99.3423 159.9 99.5703 159.504C99.8103 159.096 100.194 158.772 100.722 158.532C101.262 158.28 101.982 158.154 102.882 158.154H106.14V159.108H102.918C102.006 159.108 101.37 159.27 101.01 159.594C100.662 159.918 100.488 160.32 100.488 160.8C100.488 161.34 100.698 161.772 101.118 162.096C101.538 162.42 102.126 162.582 102.882 162.582C103.602 162.582 104.22 162.42 104.736 162.096C105.264 161.76 105.648 161.28 105.888 160.656L106.176 161.538C105.936 162.162 105.516 162.66 104.916 163.032C104.328 163.404 103.584 163.59 102.684 163.59ZM122.445 153.96C123.213 153.96 123.879 154.11 124.443 154.41C125.019 154.698 125.463 155.142 125.775 155.742C126.099 156.342 126.261 157.098 126.261 158.01V163.5H124.983V158.136C124.983 157.14 124.743 156.39 124.263 155.886C123.795 155.37 123.129 155.112 122.265 155.112C121.617 155.112 121.053 155.25 120.573 155.526C120.105 155.79 119.739 156.18 119.475 156.696C119.223 157.2 119.097 157.812 119.097 158.532V163.5H117.819V158.136C117.819 157.14 117.579 156.39 117.099 155.886C116.619 155.37 115.947 155.112 115.083 155.112C114.447 155.112 113.889 155.25 113.409 155.526C112.929 155.79 112.557 156.18 112.293 156.696C112.041 157.2 111.915 157.812 111.915 158.532V163.5H110.637V154.05H111.861V156.606L111.663 156.156C111.951 155.472 112.413 154.938 113.049 154.554C113.697 154.158 114.459 153.96 115.335 153.96C116.259 153.96 117.045 154.194 117.693 154.662C118.341 155.118 118.761 155.808 118.953 156.732L118.449 156.534C118.725 155.766 119.211 155.148 119.907 154.68C120.615 154.2 121.461 153.96 122.445 153.96ZM133.741 163.59C132.757 163.59 131.893 163.386 131.149 162.978C130.405 162.558 129.823 161.988 129.403 161.268C128.983 160.536 128.773 159.702 128.773 158.766C128.773 157.83 128.971 157.002 129.367 156.282C129.775 155.562 130.327 154.998 131.023 154.59C131.731 154.17 132.523 153.96 133.399 153.96C134.287 153.96 135.073 154.164 135.757 154.572C136.453 154.968 136.999 155.532 137.395 156.264C137.791 156.984 137.989 157.818 137.989 158.766C137.989 158.826 137.983 158.892 137.971 158.964C137.971 159.024 137.971 159.09 137.971 159.162H129.745V158.208H137.287L136.783 158.586C136.783 157.902 136.633 157.296 136.333 156.768C136.045 156.228 135.649 155.808 135.145 155.508C134.641 155.208 134.059 155.058 133.399 155.058C132.751 155.058 132.169 155.208 131.653 155.508C131.137 155.808 130.735 156.228 130.447 156.768C130.159 157.308 130.015 157.926 130.015 158.622V158.82C130.015 159.54 130.171 160.176 130.483 160.728C130.807 161.268 131.251 161.694 131.815 162.006C132.391 162.306 133.045 162.456 133.777 162.456C134.353 162.456 134.887 162.354 135.379 162.15C135.883 161.946 136.315 161.634 136.675 161.214L137.395 162.042C136.975 162.546 136.447 162.93 135.811 163.194C135.187 163.458 134.497 163.59 133.741 163.59ZM144.222 163.5V162.582L149.46 157.452C149.94 156.984 150.3 156.576 150.54 156.228C150.78 155.868 150.942 155.532 151.026 155.22C151.11 154.908 151.152 154.614 151.152 154.338C151.152 153.606 150.9 153.03 150.396 152.61C149.904 152.19 149.172 151.98 148.2 151.98C147.456 151.98 146.796 152.094 146.22 152.322C145.656 152.55 145.17 152.904 144.762 153.384L143.844 152.592C144.336 152.016 144.966 151.572 145.734 151.26C146.502 150.948 147.36 150.792 148.308 150.792C149.16 150.792 149.898 150.93 150.522 151.206C151.146 151.47 151.626 151.86 151.962 152.376C152.31 152.892 152.484 153.498 152.484 154.194C152.484 154.602 152.424 155.004 152.304 155.4C152.196 155.796 151.992 156.216 151.692 156.66C151.404 157.092 150.978 157.584 150.414 158.136L145.608 162.852L145.248 162.348H153.06V163.5H144.222Z" fill="#454545"/>
<rect x="24" y="130" width="156.333" height="55" stroke="#DDDDE6" stroke-width="2"/>
<rect x="180.333" y="130" width="156.333" height="55" fill="white"/>
<path d="M224.39 163.5V150.9H226.19V163.5H224.39ZM234.804 153.87C235.584 153.87 236.268 154.02 236.856 154.32C237.456 154.62 237.924 155.076 238.26 155.688C238.596 156.3 238.764 157.074 238.764 158.01V163.5H237.036V158.208C237.036 157.284 236.808 156.588 236.352 156.12C235.908 155.652 235.278 155.418 234.462 155.418C233.85 155.418 233.316 155.538 232.86 155.778C232.404 156.018 232.05 156.372 231.798 156.84C231.558 157.308 231.438 157.89 231.438 158.586V163.5H229.71V153.96H231.366V156.534L231.096 155.85C231.408 155.226 231.888 154.74 232.536 154.392C233.184 154.044 233.94 153.87 234.804 153.87ZM249.532 163.608C248.74 163.608 247.984 163.5 247.264 163.284C246.556 163.068 245.998 162.804 245.59 162.492L246.31 161.124C246.718 161.4 247.222 161.634 247.822 161.826C248.422 162.018 249.034 162.114 249.658 162.114C250.462 162.114 251.038 162 251.386 161.772C251.746 161.544 251.926 161.226 251.926 160.818C251.926 160.518 251.818 160.284 251.602 160.116C251.386 159.948 251.098 159.822 250.738 159.738C250.39 159.654 250 159.582 249.568 159.522C249.136 159.45 248.704 159.366 248.272 159.27C247.84 159.162 247.444 159.018 247.084 158.838C246.724 158.646 246.436 158.388 246.22 158.064C246.004 157.728 245.896 157.284 245.896 156.732C245.896 156.156 246.058 155.652 246.382 155.22C246.706 154.788 247.162 154.458 247.75 154.23C248.35 153.99 249.058 153.87 249.874 153.87C250.498 153.87 251.128 153.948 251.764 154.104C252.412 154.248 252.94 154.458 253.348 154.734L252.61 156.102C252.178 155.814 251.728 155.616 251.26 155.508C250.792 155.4 250.324 155.346 249.856 155.346C249.1 155.346 248.536 155.472 248.164 155.724C247.792 155.964 247.606 156.276 247.606 156.66C247.606 156.984 247.714 157.236 247.93 157.416C248.158 157.584 248.446 157.716 248.794 157.812C249.154 157.908 249.55 157.992 249.982 158.064C250.414 158.124 250.846 158.208 251.278 158.316C251.71 158.412 252.1 158.55 252.448 158.73C252.808 158.91 253.096 159.162 253.312 159.486C253.54 159.81 253.654 160.242 253.654 160.782C253.654 161.358 253.486 161.856 253.15 162.276C252.814 162.696 252.34 163.026 251.728 163.266C251.116 163.494 250.384 163.608 249.532 163.608ZM259.09 163.608C258.13 163.608 257.386 163.35 256.858 162.834C256.33 162.318 256.066 161.58 256.066 160.62V151.872H257.794V160.548C257.794 161.064 257.92 161.46 258.172 161.736C258.436 162.012 258.808 162.15 259.288 162.15C259.828 162.15 260.278 162 260.638 161.7L261.178 162.942C260.914 163.17 260.596 163.338 260.224 163.446C259.864 163.554 259.486 163.608 259.09 163.608ZM254.446 155.382V153.96H260.53V155.382H254.446ZM267.037 163.608C266.077 163.608 265.225 163.398 264.481 162.978C263.737 162.558 263.149 161.982 262.717 161.25C262.285 160.506 262.069 159.666 262.069 158.73C262.069 157.782 262.285 156.942 262.717 156.21C263.149 155.478 263.737 154.908 264.481 154.5C265.225 154.08 266.077 153.87 267.037 153.87C267.985 153.87 268.831 154.08 269.575 154.5C270.331 154.908 270.919 155.478 271.339 156.21C271.771 156.93 271.987 157.77 271.987 158.73C271.987 159.678 271.771 160.518 271.339 161.25C270.919 161.982 270.331 162.558 269.575 162.978C268.831 163.398 267.985 163.608 267.037 163.608ZM267.037 162.096C267.649 162.096 268.195 161.958 268.675 161.682C269.167 161.406 269.551 161.016 269.827 160.512C270.103 159.996 270.241 159.402 270.241 158.73C270.241 158.046 270.103 157.458 269.827 156.966C269.551 156.462 269.167 156.072 268.675 155.796C268.195 155.52 267.649 155.382 267.037 155.382C266.425 155.382 265.879 155.52 265.399 155.796C264.919 156.072 264.535 156.462 264.247 156.966C263.959 157.458 263.815 158.046 263.815 158.73C263.815 159.402 263.959 159.996 264.247 160.512C264.535 161.016 264.919 161.406 265.399 161.682C265.879 161.958 266.425 162.096 267.037 162.096ZM278.534 163.608C277.562 163.608 276.692 163.398 275.924 162.978C275.168 162.558 274.574 161.982 274.142 161.25C273.71 160.518 273.494 159.678 273.494 158.73C273.494 157.782 273.71 156.942 274.142 156.21C274.574 155.478 275.168 154.908 275.924 154.5C276.692 154.08 277.562 153.87 278.534 153.87C279.398 153.87 280.166 154.044 280.838 154.392C281.522 154.728 282.05 155.232 282.422 155.904L281.108 156.75C280.796 156.282 280.412 155.94 279.956 155.724C279.512 155.496 279.032 155.382 278.516 155.382C277.892 155.382 277.334 155.52 276.842 155.796C276.35 156.072 275.96 156.462 275.672 156.966C275.384 157.458 275.24 158.046 275.24 158.73C275.24 159.414 275.384 160.008 275.672 160.512C275.96 161.016 276.35 161.406 276.842 161.682C277.334 161.958 277.892 162.096 278.516 162.096C279.032 162.096 279.512 161.988 279.956 161.772C280.412 161.544 280.796 161.196 281.108 160.728L282.422 161.556C282.05 162.216 281.522 162.726 280.838 163.086C280.166 163.434 279.398 163.608 278.534 163.608ZM285.94 161.196L285.976 158.982L291.466 153.96H293.554L289.342 158.1L288.406 158.892L285.94 161.196ZM284.536 163.5V150.144H286.264V163.5H284.536ZM291.826 163.5L288.082 158.856L289.198 157.47L293.95 163.5H291.826Z" fill="#454545"/>
<rect x="180.333" y="130" width="156.333" height="55" stroke="#DDDDE6" stroke-width="2"/>
<rect x="336.667" y="130" width="98" height="55" fill="white"/>
<g clip-path="url(#clip5_122_371)">
<circle cx="385.667" cy="157.5" r="12" fill="#80DA39" fill-opacity="0.1" stroke="#80DA39"/>
<path d="M381.167 157L384.667 160.5L391.167 154" stroke="#80DA39" stroke-width="2"/>
</g>
<rect x="336.667" y="130" width="98" height="55" stroke="#DDDDE6" stroke-width="2"/>
<rect x="434.667" y="130" width="156.333" height="55" fill="white"/>
<path d="M466.833 147.5L469.808 153.406L476.344 154.41L471.646 159.064L472.711 165.59L466.833 162.56L460.955 165.59L462.021 159.064L457.323 154.41L463.859 153.406L466.833 147.5Z" fill="#F28100"/>
<path d="M489.833 147.5L492.808 153.406L499.344 154.41L494.646 159.064L495.711 165.59L489.833 162.56L483.955 165.59L485.021 159.064L480.323 154.41L486.859 153.406L489.833 147.5Z" fill="#F28100"/>
<path d="M512.833 147.5L515.808 153.406L522.344 154.41L517.646 159.064L518.711 165.59L512.833 162.56L506.955 165.59L508.021 159.064L503.323 154.41L509.859 153.406L512.833 147.5Z" fill="#D5D5E4"/>
<path d="M535.833 147.5L538.808 153.406L545.344 154.41L540.646 159.064L541.711 165.59L535.833 162.56L529.955 165.59L531.021 159.064L526.323 154.41L532.859 153.406L535.833 147.5Z" fill="#D5D5E4"/>
<path d="M558.833 147.5L561.808 153.406L568.344 154.41L563.646 159.064L564.711 165.59L558.833 162.56L552.955 165.59L554.021 159.064L549.323 154.41L555.859 153.406L558.833 147.5Z" fill="#D5D5E4"/>
<rect x="434.667" y="130" width="156.333" height="55" stroke="#DDDDE6" stroke-width="2"/>
</g>
<rect x="24" y="130" width="567" height="55" stroke="#DDDDE6" stroke-width="2"/>
<g clip-path="url(#clip6_122_371)">
<rect x="24" y="185" width="156.333" height="55" fill="white"/>
<path d="M41.052 218.5V205.9H42.384V218.5H41.052ZM49.2016 218.59C48.3136 218.59 47.6296 218.35 47.1496 217.87C46.6696 217.39 46.4296 216.712 46.4296 215.836V206.962H47.7076V215.764C47.7076 216.316 47.8456 216.742 48.1216 217.042C48.4096 217.342 48.8176 217.492 49.3456 217.492C49.9096 217.492 50.3776 217.33 50.7496 217.006L51.1996 217.924C50.9476 218.152 50.6416 218.32 50.2816 218.428C49.9336 218.536 49.5736 218.59 49.2016 218.59ZM44.7376 210.112V209.05H50.5876V210.112H44.7376ZM57.2062 218.59C56.2222 218.59 55.3582 218.386 54.6142 217.978C53.8702 217.558 53.2882 216.988 52.8682 216.268C52.4482 215.536 52.2382 214.702 52.2382 213.766C52.2382 212.83 52.4362 212.002 52.8322 211.282C53.2402 210.562 53.7922 209.998 54.4882 209.59C55.1962 209.17 55.9882 208.96 56.8642 208.96C57.7522 208.96 58.5382 209.164 59.2222 209.572C59.9182 209.968 60.4642 210.532 60.8602 211.264C61.2562 211.984 61.4542 212.818 61.4542 213.766C61.4542 213.826 61.4482 213.892 61.4362 213.964C61.4362 214.024 61.4362 214.09 61.4362 214.162H53.2102V213.208H60.7522L60.2482 213.586C60.2482 212.902 60.0982 212.296 59.7982 211.768C59.5102 211.228 59.1142 210.808 58.6102 210.508C58.1062 210.208 57.5242 210.058 56.8642 210.058C56.2162 210.058 55.6342 210.208 55.1182 210.508C54.6022 210.808 54.2002 211.228 53.9122 211.768C53.6242 212.308 53.4802 212.926 53.4802 213.622V213.82C53.4802 214.54 53.6362 215.176 53.9482 215.728C54.2722 216.268 54.7162 216.694 55.2802 217.006C55.8562 217.306 56.5102 217.456 57.2422 217.456C57.8182 217.456 58.3522 217.354 58.8442 217.15C59.3482 216.946 59.7802 216.634 60.1402 216.214L60.8602 217.042C60.4402 217.546 59.9122 217.93 59.2762 218.194C58.6522 218.458 57.9622 218.59 57.2062 218.59ZM75.8634 208.96C76.6314 208.96 77.2974 209.11 77.8614 209.41C78.4374 209.698 78.8814 210.142 79.1934 210.742C79.5174 211.342 79.6794 212.098 79.6794 213.01V218.5H78.4014V213.136C78.4014 212.14 78.1614 211.39 77.6814 210.886C77.2134 210.37 76.5474 210.112 75.6834 210.112C75.0354 210.112 74.4714 210.25 73.9914 210.526C73.5234 210.79 73.1574 211.18 72.8934 211.696C72.6414 212.2 72.5154 212.812 72.5154 213.532V218.5H71.2374V213.136C71.2374 212.14 70.9974 211.39 70.5174 210.886C70.0374 210.37 69.3654 210.112 68.5014 210.112C67.8654 210.112 67.3074 210.25 66.8274 210.526C66.3474 210.79 65.9754 211.18 65.7114 211.696C65.4594 212.2 65.3334 212.812 65.3334 213.532V218.5H64.0554V209.05H65.2794V211.606L65.0814 211.156C65.3694 210.472 65.8314 209.938 66.4674 209.554C67.1154 209.158 67.8774 208.96 68.7534 208.96C69.6774 208.96 70.4634 209.194 71.1114 209.662C71.7594 210.118 72.1794 210.808 72.3714 211.732L71.8674 211.534C72.1434 210.766 72.6294 210.148 73.3254 209.68C74.0334 209.2 74.8794 208.96 75.8634 208.96ZM92.6802 208.96C93.4482 208.96 94.1202 209.11 94.6962 209.41C95.2842 209.698 95.7402 210.142 96.0642 210.742C96.4002 211.342 96.5682 212.098 96.5682 213.01V218.5H95.2902V213.136C95.2902 212.14 95.0382 211.39 94.5342 210.886C94.0422 210.37 93.3462 210.112 92.4462 210.112C91.7742 210.112 91.1862 210.25 90.6822 210.526C90.1902 210.79 89.8062 211.18 89.5302 211.696C89.2662 212.2 89.1342 212.812 89.1342 213.532V218.5H87.8562V209.05H89.0802V211.642L88.8822 211.156C89.1822 210.472 89.6622 209.938 90.3222 209.554C90.9822 209.158 91.7682 208.96 92.6802 208.96ZM105.942 218.5V216.412L105.888 216.07V212.578C105.888 211.774 105.66 211.156 105.204 210.724C104.76 210.292 104.094 210.076 103.206 210.076C102.594 210.076 102.012 210.178 101.46 210.382C100.908 210.586 100.44 210.856 100.056 211.192L99.4803 210.238C99.9603 209.83 100.536 209.518 101.208 209.302C101.88 209.074 102.588 208.96 103.332 208.96C104.556 208.96 105.498 209.266 106.158 209.878C106.83 210.478 107.166 211.396 107.166 212.632V218.5H105.942ZM102.684 218.59C101.976 218.59 101.358 218.476 100.83 218.248C100.314 218.008 99.9183 217.684 99.6423 217.276C99.3663 216.856 99.2283 216.376 99.2283 215.836C99.2283 215.344 99.3423 214.9 99.5703 214.504C99.8103 214.096 100.194 213.772 100.722 213.532C101.262 213.28 101.982 213.154 102.882 213.154H106.14V214.108H102.918C102.006 214.108 101.37 214.27 101.01 214.594C100.662 214.918 100.488 215.32 100.488 215.8C100.488 216.34 100.698 216.772 101.118 217.096C101.538 217.42 102.126 217.582 102.882 217.582C103.602 217.582 104.22 217.42 104.736 217.096C105.264 216.76 105.648 216.28 105.888 215.656L106.176 216.538C105.936 217.162 105.516 217.66 104.916 218.032C104.328 218.404 103.584 218.59 102.684 218.59ZM122.445 208.96C123.213 208.96 123.879 209.11 124.443 209.41C125.019 209.698 125.463 210.142 125.775 210.742C126.099 211.342 126.261 212.098 126.261 213.01V218.5H124.983V213.136C124.983 212.14 124.743 211.39 124.263 210.886C123.795 210.37 123.129 210.112 122.265 210.112C121.617 210.112 121.053 210.25 120.573 210.526C120.105 210.79 119.739 211.18 119.475 211.696C119.223 212.2 119.097 212.812 119.097 213.532V218.5H117.819V213.136C117.819 212.14 117.579 211.39 117.099 210.886C116.619 210.37 115.947 210.112 115.083 210.112C114.447 210.112 113.889 210.25 113.409 210.526C112.929 210.79 112.557 211.18 112.293 211.696C112.041 212.2 111.915 212.812 111.915 213.532V218.5H110.637V209.05H111.861V211.606L111.663 211.156C111.951 210.472 112.413 209.938 113.049 209.554C113.697 209.158 114.459 208.96 115.335 208.96C116.259 208.96 117.045 209.194 117.693 209.662C118.341 210.118 118.761 210.808 118.953 211.732L118.449 211.534C118.725 210.766 119.211 210.148 119.907 209.68C120.615 209.2 121.461 208.96 122.445 208.96ZM133.741 218.59C132.757 218.59 131.893 218.386 131.149 217.978C130.405 217.558 129.823 216.988 129.403 216.268C128.983 215.536 128.773 214.702 128.773 213.766C128.773 212.83 128.971 212.002 129.367 211.282C129.775 210.562 130.327 209.998 131.023 209.59C131.731 209.17 132.523 208.96 133.399 208.96C134.287 208.96 135.073 209.164 135.757 209.572C136.453 209.968 136.999 210.532 137.395 211.264C137.791 211.984 137.989 212.818 137.989 213.766C137.989 213.826 137.983 213.892 137.971 213.964C137.971 214.024 137.971 214.09 137.971 214.162H129.745V213.208H137.287L136.783 213.586C136.783 212.902 136.633 212.296 136.333 211.768C136.045 211.228 135.649 210.808 135.145 210.508C134.641 210.208 134.059 210.058 133.399 210.058C132.751 210.058 132.169 210.208 131.653 210.508C131.137 210.808 130.735 211.228 130.447 211.768C130.159 212.308 130.015 212.926 130.015 213.622V213.82C130.015 214.54 130.171 215.176 130.483 215.728C130.807 216.268 131.251 216.694 131.815 217.006C132.391 217.306 133.045 217.456 133.777 217.456C134.353 217.456 134.887 217.354 135.379 217.15C135.883 216.946 136.315 216.634 136.675 216.214L137.395 217.042C136.975 217.546 136.447 217.93 135.811 218.194C135.187 218.458 134.497 218.59 133.741 218.59ZM148.218 218.608C147.306 218.608 146.442 218.464 145.626 218.176C144.822 217.876 144.174 217.48 143.682 216.988L144.312 215.962C144.72 216.382 145.266 216.73 145.95 217.006C146.646 217.282 147.402 217.42 148.218 217.42C149.262 217.42 150.06 217.192 150.612 216.736C151.176 216.28 151.458 215.668 151.458 214.9C151.458 214.132 151.182 213.52 150.63 213.064C150.09 212.608 149.232 212.38 148.056 212.38H147.156V211.426L151.044 206.548L151.224 207.052H144.204V205.9H152.304V206.818L148.416 211.696L147.786 211.282H148.272C149.784 211.282 150.912 211.618 151.656 212.29C152.412 212.962 152.79 213.826 152.79 214.882C152.79 215.59 152.622 216.226 152.286 216.79C151.95 217.354 151.44 217.798 150.756 218.122C150.084 218.446 149.238 218.608 148.218 218.608Z" fill="#454545"/>
<rect x="24" y="185" width="156.333" height="55" stroke="#DDDDE6" stroke-width="2"/>
<rect x="180.333" y="185" width="156.333" height="55" fill="white"/>
<path d="M219.028 211.336H225.508V212.866H219.028V211.336ZM219.19 216.934H226.534V218.5H217.39V205.9H226.282V207.466H219.19V216.934ZM227.6 218.5L231.704 213.172L231.686 214.054L227.78 208.96H229.706L232.694 212.884H231.956L234.944 208.96H236.834L232.874 214.09L232.892 213.172L237.032 218.5H235.07L231.92 214.324L232.622 214.432L229.526 218.5H227.6ZM243.975 218.608C243.183 218.608 242.457 218.428 241.797 218.068C241.149 217.696 240.627 217.15 240.231 216.43C239.847 215.71 239.655 214.81 239.655 213.73C239.655 212.65 239.841 211.75 240.213 211.03C240.597 210.31 241.113 209.77 241.761 209.41C242.421 209.05 243.159 208.87 243.975 208.87C244.911 208.87 245.739 209.074 246.459 209.482C247.179 209.89 247.749 210.46 248.169 211.192C248.589 211.912 248.799 212.758 248.799 213.73C248.799 214.702 248.589 215.554 248.169 216.286C247.749 217.018 247.179 217.588 246.459 217.996C245.739 218.404 244.911 218.608 243.975 218.608ZM238.917 221.992V208.96H240.573V211.534L240.465 213.748L240.645 215.962V221.992H238.917ZM243.831 217.096C244.443 217.096 244.989 216.958 245.469 216.682C245.961 216.406 246.345 216.016 246.621 215.512C246.909 214.996 247.053 214.402 247.053 213.73C247.053 213.046 246.909 212.458 246.621 211.966C246.345 211.462 245.961 211.072 245.469 210.796C244.989 210.52 244.443 210.382 243.831 210.382C243.231 210.382 242.685 210.52 242.193 210.796C241.713 211.072 241.329 211.462 241.041 211.966C240.765 212.458 240.627 213.046 240.627 213.73C240.627 214.402 240.765 214.996 241.041 215.512C241.329 216.016 241.713 216.406 242.193 216.682C242.685 216.958 243.231 217.096 243.831 217.096ZM255.435 218.608C254.415 218.608 253.515 218.398 252.735 217.978C251.967 217.558 251.367 216.982 250.935 216.25C250.515 215.518 250.305 214.678 250.305 213.73C250.305 212.782 250.509 211.942 250.917 211.21C251.337 210.478 251.907 209.908 252.627 209.5C253.359 209.08 254.181 208.87 255.093 208.87C256.017 208.87 256.833 209.074 257.541 209.482C258.249 209.89 258.801 210.466 259.197 211.21C259.605 211.942 259.809 212.8 259.809 213.784C259.809 213.856 259.803 213.94 259.791 214.036C259.791 214.132 259.785 214.222 259.773 214.306H251.655V213.064H258.873L258.171 213.496C258.183 212.884 258.057 212.338 257.793 211.858C257.529 211.378 257.163 211.006 256.695 210.742C256.239 210.466 255.705 210.328 255.093 210.328C254.493 210.328 253.959 210.466 253.491 210.742C253.023 211.006 252.657 211.384 252.393 211.876C252.129 212.356 251.997 212.908 251.997 213.532V213.82C251.997 214.456 252.141 215.026 252.429 215.53C252.729 216.022 253.143 216.406 253.671 216.682C254.199 216.958 254.805 217.096 255.489 217.096C256.053 217.096 256.563 217 257.019 216.808C257.487 216.616 257.895 216.328 258.243 215.944L259.197 217.06C258.765 217.564 258.225 217.948 257.577 218.212C256.941 218.476 256.227 218.608 255.435 218.608ZM266.366 218.608C265.394 218.608 264.524 218.398 263.756 217.978C263 217.558 262.406 216.982 261.974 216.25C261.542 215.518 261.326 214.678 261.326 213.73C261.326 212.782 261.542 211.942 261.974 211.21C262.406 210.478 263 209.908 263.756 209.5C264.524 209.08 265.394 208.87 266.366 208.87C267.23 208.87 267.998 209.044 268.67 209.392C269.354 209.728 269.882 210.232 270.254 210.904L268.94 211.75C268.628 211.282 268.244 210.94 267.788 210.724C267.344 210.496 266.864 210.382 266.348 210.382C265.724 210.382 265.166 210.52 264.674 210.796C264.182 211.072 263.792 211.462 263.504 211.966C263.216 212.458 263.072 213.046 263.072 213.73C263.072 214.414 263.216 215.008 263.504 215.512C263.792 216.016 264.182 216.406 264.674 216.682C265.166 216.958 265.724 217.096 266.348 217.096C266.864 217.096 267.344 216.988 267.788 216.772C268.244 216.544 268.628 216.196 268.94 215.728L270.254 216.556C269.882 217.216 269.354 217.726 268.67 218.086C267.998 218.434 267.23 218.608 266.366 218.608ZM275.891 218.608C274.931 218.608 274.187 218.35 273.659 217.834C273.131 217.318 272.867 216.58 272.867 215.62V206.872H274.595V215.548C274.595 216.064 274.721 216.46 274.973 216.736C275.237 217.012 275.609 217.15 276.089 217.15C276.629 217.15 277.079 217 277.439 216.7L277.979 217.942C277.715 218.17 277.397 218.338 277.025 218.446C276.665 218.554 276.287 218.608 275.891 218.608ZM271.247 210.382V208.96H277.331V210.382H271.247ZM283.999 218.608C282.979 218.608 282.079 218.398 281.299 217.978C280.531 217.558 279.931 216.982 279.499 216.25C279.079 215.518 278.869 214.678 278.869 213.73C278.869 212.782 279.073 211.942 279.481 211.21C279.901 210.478 280.471 209.908 281.191 209.5C281.923 209.08 282.745 208.87 283.657 208.87C284.581 208.87 285.397 209.074 286.105 209.482C286.813 209.89 287.365 210.466 287.761 211.21C288.169 211.942 288.373 212.8 288.373 213.784C288.373 213.856 288.367 213.94 288.355 214.036C288.355 214.132 288.349 214.222 288.337 214.306H280.219V213.064H287.437L286.735 213.496C286.747 212.884 286.621 212.338 286.357 211.858C286.093 211.378 285.727 211.006 285.259 210.742C284.803 210.466 284.269 210.328 283.657 210.328C283.057 210.328 282.523 210.466 282.055 210.742C281.587 211.006 281.221 211.384 280.957 211.876C280.693 212.356 280.561 212.908 280.561 213.532V213.82C280.561 214.456 280.705 215.026 280.993 215.53C281.293 216.022 281.707 216.406 282.235 216.682C282.763 216.958 283.369 217.096 284.053 217.096C284.617 217.096 285.127 217 285.583 216.808C286.051 216.616 286.459 216.328 286.807 215.944L287.761 217.06C287.329 217.564 286.789 217.948 286.141 218.212C285.505 218.476 284.791 218.608 283.999 218.608ZM294.715 218.608C293.791 218.608 292.963 218.404 292.231 217.996C291.511 217.588 290.941 217.018 290.521 216.286C290.101 215.554 289.891 214.702 289.891 213.73C289.891 212.758 290.101 211.912 290.521 211.192C290.941 210.46 291.511 209.89 292.231 209.482C292.963 209.074 293.791 208.87 294.715 208.87C295.519 208.87 296.245 209.05 296.893 209.41C297.541 209.77 298.057 210.31 298.441 211.03C298.837 211.75 299.035 212.65 299.035 213.73C299.035 214.81 298.843 215.71 298.459 216.43C298.087 217.15 297.577 217.696 296.929 218.068C296.281 218.428 295.543 218.608 294.715 218.608ZM294.859 217.096C295.459 217.096 295.999 216.958 296.479 216.682C296.971 216.406 297.355 216.016 297.631 215.512C297.919 214.996 298.063 214.402 298.063 213.73C298.063 213.046 297.919 212.458 297.631 211.966C297.355 211.462 296.971 211.072 296.479 210.796C295.999 210.52 295.459 210.382 294.859 210.382C294.247 210.382 293.701 210.52 293.221 210.796C292.741 211.072 292.357 211.462 292.069 211.966C291.781 212.458 291.637 213.046 291.637 213.73C291.637 214.402 291.781 214.996 292.069 215.512C292.357 216.016 292.741 216.406 293.221 216.682C293.701 216.958 294.247 217.096 294.859 217.096ZM298.117 218.5V215.926L298.225 213.712L298.045 211.498V205.144H299.773V218.5H298.117Z" fill="#454545"/>
<rect x="180.333" y="185" width="156.333" height="55" stroke="#DDDDE6" stroke-width="2"/>
<rect x="336.667" y="185" width="98" height="55" fill="white"/>
<g clip-path="url(#clip7_122_371)">
<circle cx="385.667" cy="212.5" r="12" fill="#80DA39" fill-opacity="0.1" stroke="#80DA39"/>
<path d="M381.167 212L384.667 215.5L391.167 209" stroke="#80DA39" stroke-width="2"/>
</g>
<rect x="336.667" y="185" width="98" height="55" stroke="#DDDDE6" stroke-width="2"/>
<rect x="434.667" y="185" width="156.333" height="55" fill="white"/>
<path d="M466.833 202.5L469.808 208.406L476.344 209.41L471.646 214.064L472.711 220.59L466.833 217.56L460.955 220.59L462.021 214.064L457.323 209.41L463.859 208.406L466.833 202.5Z" fill="#F28100"/>
<path d="M489.833 202.5L492.808 208.406L499.344 209.41L494.646 214.064L495.711 220.59L489.833 217.56L483.955 220.59L485.021 214.064L480.323 209.41L486.859 208.406L489.833 202.5Z" fill="#F28100"/>
<path d="M512.833 202.5L515.808 208.406L522.344 209.41L517.646 214.064L518.711 220.59L512.833 217.56L506.955 220.59L508.021 214.064L503.323 209.41L509.859 208.406L512.833 202.5Z" fill="#F28100"/>
<path d="M535.833 202.5L538.808 208.406L545.344 209.41L540.646 214.064L541.711 220.59L535.833 217.56L529.955 220.59L531.021 214.064L526.323 209.41L532.859 208.406L535.833 202.5Z" fill="#D5D5E4"/>
<path d="M558.833 202.5L561.808 208.406L568.344 209.41L563.646 214.064L564.711 220.59L558.833 217.56L552.955 220.59L554.021 214.064L549.323 209.41L555.859 208.406L558.833 202.5Z" fill="#D5D5E4"/>
<rect x="434.667" y="185" width="156.333" height="55" stroke="#DDDDE6" stroke-width="2"/>
</g>
<rect x="24" y="185" width="567" height="55" stroke="#DDDDE6" stroke-width="2"/>
<g clip-path="url(#clip8_122_371)">
<rect x="24" y="240" width="156.333" height="55" fill="white"/>
<path d="M41.052 273.5V260.9H42.384V273.5H41.052ZM49.2016 273.59C48.3136 273.59 47.6296 273.35 47.1496 272.87C46.6696 272.39 46.4296 271.712 46.4296 270.836V261.962H47.7076V270.764C47.7076 271.316 47.8456 271.742 48.1216 272.042C48.4096 272.342 48.8176 272.492 49.3456 272.492C49.9096 272.492 50.3776 272.33 50.7496 272.006L51.1996 272.924C50.9476 273.152 50.6416 273.32 50.2816 273.428C49.9336 273.536 49.5736 273.59 49.2016 273.59ZM44.7376 265.112V264.05H50.5876V265.112H44.7376ZM57.2062 273.59C56.2222 273.59 55.3582 273.386 54.6142 272.978C53.8702 272.558 53.2882 271.988 52.8682 271.268C52.4482 270.536 52.2382 269.702 52.2382 268.766C52.2382 267.83 52.4362 267.002 52.8322 266.282C53.2402 265.562 53.7922 264.998 54.4882 264.59C55.1962 264.17 55.9882 263.96 56.8642 263.96C57.7522 263.96 58.5382 264.164 59.2222 264.572C59.9182 264.968 60.4642 265.532 60.8602 266.264C61.2562 266.984 61.4542 267.818 61.4542 268.766C61.4542 268.826 61.4482 268.892 61.4362 268.964C61.4362 269.024 61.4362 269.09 61.4362 269.162H53.2102V268.208H60.7522L60.2482 268.586C60.2482 267.902 60.0982 267.296 59.7982 266.768C59.5102 266.228 59.1142 265.808 58.6102 265.508C58.1062 265.208 57.5242 265.058 56.8642 265.058C56.2162 265.058 55.6342 265.208 55.1182 265.508C54.6022 265.808 54.2002 266.228 53.9122 266.768C53.6242 267.308 53.4802 267.926 53.4802 268.622V268.82C53.4802 269.54 53.6362 270.176 53.9482 270.728C54.2722 271.268 54.7162 271.694 55.2802 272.006C55.8562 272.306 56.5102 272.456 57.2422 272.456C57.8182 272.456 58.3522 272.354 58.8442 272.15C59.3482 271.946 59.7802 271.634 60.1402 271.214L60.8602 272.042C60.4402 272.546 59.9122 272.93 59.2762 273.194C58.6522 273.458 57.9622 273.59 57.2062 273.59ZM75.8634 263.96C76.6314 263.96 77.2974 264.11 77.8614 264.41C78.4374 264.698 78.8814 265.142 79.1934 265.742C79.5174 266.342 79.6794 267.098 79.6794 268.01V273.5H78.4014V268.136C78.4014 267.14 78.1614 266.39 77.6814 265.886C77.2134 265.37 76.5474 265.112 75.6834 265.112C75.0354 265.112 74.4714 265.25 73.9914 265.526C73.5234 265.79 73.1574 266.18 72.8934 266.696C72.6414 267.2 72.5154 267.812 72.5154 268.532V273.5H71.2374V268.136C71.2374 267.14 70.9974 266.39 70.5174 265.886C70.0374 265.37 69.3654 265.112 68.5014 265.112C67.8654 265.112 67.3074 265.25 66.8274 265.526C66.3474 265.79 65.9754 266.18 65.7114 266.696C65.4594 267.2 65.3334 267.812 65.3334 268.532V273.5H64.0554V264.05H65.2794V266.606L65.0814 266.156C65.3694 265.472 65.8314 264.938 66.4674 264.554C67.1154 264.158 67.8774 263.96 68.7534 263.96C69.6774 263.96 70.4634 264.194 71.1114 264.662C71.7594 265.118 72.1794 265.808 72.3714 266.732L71.8674 266.534C72.1434 265.766 72.6294 265.148 73.3254 264.68C74.0334 264.2 74.8794 263.96 75.8634 263.96ZM92.6802 263.96C93.4482 263.96 94.1202 264.11 94.6962 264.41C95.2842 264.698 95.7402 265.142 96.0642 265.742C96.4002 266.342 96.5682 267.098 96.5682 268.01V273.5H95.2902V268.136C95.2902 267.14 95.0382 266.39 94.5342 265.886C94.0422 265.37 93.3462 265.112 92.4462 265.112C91.7742 265.112 91.1862 265.25 90.6822 265.526C90.1902 265.79 89.8062 266.18 89.5302 266.696C89.2662 267.2 89.1342 267.812 89.1342 268.532V273.5H87.8562V264.05H89.0802V266.642L88.8822 266.156C89.1822 265.472 89.6622 264.938 90.3222 264.554C90.9822 264.158 91.7682 263.96 92.6802 263.96ZM105.942 273.5V271.412L105.888 271.07V267.578C105.888 266.774 105.66 266.156 105.204 265.724C104.76 265.292 104.094 265.076 103.206 265.076C102.594 265.076 102.012 265.178 101.46 265.382C100.908 265.586 100.44 265.856 100.056 266.192L99.4803 265.238C99.9603 264.83 100.536 264.518 101.208 264.302C101.88 264.074 102.588 263.96 103.332 263.96C104.556 263.96 105.498 264.266 106.158 264.878C106.83 265.478 107.166 266.396 107.166 267.632V273.5H105.942ZM102.684 273.59C101.976 273.59 101.358 273.476 100.83 273.248C100.314 273.008 99.9183 272.684 99.6423 272.276C99.3663 271.856 99.2283 271.376 99.2283 270.836C99.2283 270.344 99.3423 269.9 99.5703 269.504C99.8103 269.096 100.194 268.772 100.722 268.532C101.262 268.28 101.982 268.154 102.882 268.154H106.14V269.108H102.918C102.006 269.108 101.37 269.27 101.01 269.594C100.662 269.918 100.488 270.32 100.488 270.8C100.488 271.34 100.698 271.772 101.118 272.096C101.538 272.42 102.126 272.582 102.882 272.582C103.602 272.582 104.22 272.42 104.736 272.096C105.264 271.76 105.648 271.28 105.888 270.656L106.176 271.538C105.936 272.162 105.516 272.66 104.916 273.032C104.328 273.404 103.584 273.59 102.684 273.59ZM122.445 263.96C123.213 263.96 123.879 264.11 124.443 264.41C125.019 264.698 125.463 265.142 125.775 265.742C126.099 266.342 126.261 267.098 126.261 268.01V273.5H124.983V268.136C124.983 267.14 124.743 266.39 124.263 265.886C123.795 265.37 123.129 265.112 122.265 265.112C121.617 265.112 121.053 265.25 120.573 265.526C120.105 265.79 119.739 266.18 119.475 266.696C119.223 267.2 119.097 267.812 119.097 268.532V273.5H117.819V268.136C117.819 267.14 117.579 266.39 117.099 265.886C116.619 265.37 115.947 265.112 115.083 265.112C114.447 265.112 113.889 265.25 113.409 265.526C112.929 265.79 112.557 266.18 112.293 266.696C112.041 267.2 111.915 267.812 111.915 268.532V273.5H110.637V264.05H111.861V266.606L111.663 266.156C111.951 265.472 112.413 264.938 113.049 264.554C113.697 264.158 114.459 263.96 115.335 263.96C116.259 263.96 117.045 264.194 117.693 264.662C118.341 265.118 118.761 265.808 118.953 266.732L118.449 266.534C118.725 265.766 119.211 265.148 119.907 264.68C120.615 264.2 121.461 263.96 122.445 263.96ZM133.741 273.59C132.757 273.59 131.893 273.386 131.149 272.978C130.405 272.558 129.823 271.988 129.403 271.268C128.983 270.536 128.773 269.702 128.773 268.766C128.773 267.83 128.971 267.002 129.367 266.282C129.775 265.562 130.327 264.998 131.023 264.59C131.731 264.17 132.523 263.96 133.399 263.96C134.287 263.96 135.073 264.164 135.757 264.572C136.453 264.968 136.999 265.532 137.395 266.264C137.791 266.984 137.989 267.818 137.989 268.766C137.989 268.826 137.983 268.892 137.971 268.964C137.971 269.024 137.971 269.09 137.971 269.162H129.745V268.208H137.287L136.783 268.586C136.783 267.902 136.633 267.296 136.333 266.768C136.045 266.228 135.649 265.808 135.145 265.508C134.641 265.208 134.059 265.058 133.399 265.058C132.751 265.058 132.169 265.208 131.653 265.508C131.137 265.808 130.735 266.228 130.447 266.768C130.159 267.308 130.015 267.926 130.015 268.622V268.82C130.015 269.54 130.171 270.176 130.483 270.728C130.807 271.268 131.251 271.694 131.815 272.006C132.391 272.306 133.045 272.456 133.777 272.456C134.353 272.456 134.887 272.354 135.379 272.15C135.883 271.946 136.315 271.634 136.675 271.214L137.395 272.042C136.975 272.546 136.447 272.93 135.811 273.194C135.187 273.458 134.497 273.59 133.741 273.59ZM144.24 270.188V269.252L150.918 260.9H152.358L145.734 269.252L145.032 269.036H155.166V270.188H144.24ZM151.35 273.5V270.188L151.386 269.036V266.12H152.646V273.5H151.35Z" fill="#454545"/>
<rect x="24" y="240" width="156.333" height="55" stroke="#DDDDE6" stroke-width="2"/>
<rect x="180.333" y="240" width="156.333" height="55" fill="white"/>
<path d="M224.39 273.5V260.9H226.19V273.5H224.39ZM234.804 263.87C235.584 263.87 236.268 264.02 236.856 264.32C237.456 264.62 237.924 265.076 238.26 265.688C238.596 266.3 238.764 267.074 238.764 268.01V273.5H237.036V268.208C237.036 267.284 236.808 266.588 236.352 266.12C235.908 265.652 235.278 265.418 234.462 265.418C233.85 265.418 233.316 265.538 232.86 265.778C232.404 266.018 232.05 266.372 231.798 266.84C231.558 267.308 231.438 267.89 231.438 268.586V273.5H229.71V263.96H231.366V266.534L231.096 265.85C231.408 265.226 231.888 264.74 232.536 264.392C233.184 264.044 233.94 263.87 234.804 263.87ZM249.532 273.608C248.74 273.608 247.984 273.5 247.264 273.284C246.556 273.068 245.998 272.804 245.59 272.492L246.31 271.124C246.718 271.4 247.222 271.634 247.822 271.826C248.422 272.018 249.034 272.114 249.658 272.114C250.462 272.114 251.038 272 251.386 271.772C251.746 271.544 251.926 271.226 251.926 270.818C251.926 270.518 251.818 270.284 251.602 270.116C251.386 269.948 251.098 269.822 250.738 269.738C250.39 269.654 250 269.582 249.568 269.522C249.136 269.45 248.704 269.366 248.272 269.27C247.84 269.162 247.444 269.018 247.084 268.838C246.724 268.646 246.436 268.388 246.22 268.064C246.004 267.728 245.896 267.284 245.896 266.732C245.896 266.156 246.058 265.652 246.382 265.22C246.706 264.788 247.162 264.458 247.75 264.23C248.35 263.99 249.058 263.87 249.874 263.87C250.498 263.87 251.128 263.948 251.764 264.104C252.412 264.248 252.94 264.458 253.348 264.734L252.61 266.102C252.178 265.814 251.728 265.616 251.26 265.508C250.792 265.4 250.324 265.346 249.856 265.346C249.1 265.346 248.536 265.472 248.164 265.724C247.792 265.964 247.606 266.276 247.606 266.66C247.606 266.984 247.714 267.236 247.93 267.416C248.158 267.584 248.446 267.716 248.794 267.812C249.154 267.908 249.55 267.992 249.982 268.064C250.414 268.124 250.846 268.208 251.278 268.316C251.71 268.412 252.1 268.55 252.448 268.73C252.808 268.91 253.096 269.162 253.312 269.486C253.54 269.81 253.654 270.242 253.654 270.782C253.654 271.358 253.486 271.856 253.15 272.276C252.814 272.696 252.34 273.026 251.728 273.266C251.116 273.494 250.384 273.608 249.532 273.608ZM259.09 273.608C258.13 273.608 257.386 273.35 256.858 272.834C256.33 272.318 256.066 271.58 256.066 270.62V261.872H257.794V270.548C257.794 271.064 257.92 271.46 258.172 271.736C258.436 272.012 258.808 272.15 259.288 272.15C259.828 272.15 260.278 272 260.638 271.7L261.178 272.942C260.914 273.17 260.596 273.338 260.224 273.446C259.864 273.554 259.486 273.608 259.09 273.608ZM254.446 265.382V263.96H260.53V265.382H254.446ZM267.037 273.608C266.077 273.608 265.225 273.398 264.481 272.978C263.737 272.558 263.149 271.982 262.717 271.25C262.285 270.506 262.069 269.666 262.069 268.73C262.069 267.782 262.285 266.942 262.717 266.21C263.149 265.478 263.737 264.908 264.481 264.5C265.225 264.08 266.077 263.87 267.037 263.87C267.985 263.87 268.831 264.08 269.575 264.5C270.331 264.908 270.919 265.478 271.339 266.21C271.771 266.93 271.987 267.77 271.987 268.73C271.987 269.678 271.771 270.518 271.339 271.25C270.919 271.982 270.331 272.558 269.575 272.978C268.831 273.398 267.985 273.608 267.037 273.608ZM267.037 272.096C267.649 272.096 268.195 271.958 268.675 271.682C269.167 271.406 269.551 271.016 269.827 270.512C270.103 269.996 270.241 269.402 270.241 268.73C270.241 268.046 270.103 267.458 269.827 266.966C269.551 266.462 269.167 266.072 268.675 265.796C268.195 265.52 267.649 265.382 267.037 265.382C266.425 265.382 265.879 265.52 265.399 265.796C264.919 266.072 264.535 266.462 264.247 266.966C263.959 267.458 263.815 268.046 263.815 268.73C263.815 269.402 263.959 269.996 264.247 270.512C264.535 271.016 264.919 271.406 265.399 271.682C265.879 271.958 266.425 272.096 267.037 272.096ZM278.534 273.608C277.562 273.608 276.692 273.398 275.924 272.978C275.168 272.558 274.574 271.982 274.142 271.25C273.71 270.518 273.494 269.678 273.494 268.73C273.494 267.782 273.71 266.942 274.142 266.21C274.574 265.478 275.168 264.908 275.924 264.5C276.692 264.08 277.562 263.87 278.534 263.87C279.398 263.87 280.166 264.044 280.838 264.392C281.522 264.728 282.05 265.232 282.422 265.904L281.108 266.75C280.796 266.282 280.412 265.94 279.956 265.724C279.512 265.496 279.032 265.382 278.516 265.382C277.892 265.382 277.334 265.52 276.842 265.796C276.35 266.072 275.96 266.462 275.672 266.966C275.384 267.458 275.24 268.046 275.24 268.73C275.24 269.414 275.384 270.008 275.672 270.512C275.96 271.016 276.35 271.406 276.842 271.682C277.334 271.958 277.892 272.096 278.516 272.096C279.032 272.096 279.512 271.988 279.956 271.772C280.412 271.544 280.796 271.196 281.108 270.728L282.422 271.556C282.05 272.216 281.522 272.726 280.838 273.086C280.166 273.434 279.398 273.608 278.534 273.608ZM285.94 271.196L285.976 268.982L291.466 263.96H293.554L289.342 268.1L288.406 268.892L285.94 271.196ZM284.536 273.5V260.144H286.264V273.5H284.536ZM291.826 273.5L288.082 268.856L289.198 267.47L293.95 273.5H291.826Z" fill="#454545"/>
<rect x="180.333" y="240" width="156.333" height="55" stroke="#DDDDE6" stroke-width="2"/>
<rect x="336.667" y="240" width="98" height="55" fill="white"/>
<g clip-path="url(#clip9_122_371)">
<circle cx="385.667" cy="267.5" r="12" fill="#80DA39" fill-opacity="0.1" stroke="#80DA39"/>
<path d="M381.167 267L384.667 270.5L391.167 264" stroke="#80DA39" stroke-width="2"/>
</g>
<rect x="336.667" y="240" width="98" height="55" stroke="#DDDDE6" stroke-width="2"/>
<rect x="434.667" y="240" width="156.333" height="55" fill="white"/>
<path d="M466.833 257.5L469.808 263.406L476.344 264.41L471.646 269.064L472.711 275.59L466.833 272.56L460.955 275.59L462.021 269.064L457.323 264.41L463.859 263.406L466.833 257.5Z" fill="#F28100"/>
<path d="M489.833 257.5L492.808 263.406L499.344 264.41L494.646 269.064L495.711 275.59L489.833 272.56L483.955 275.59L485.021 269.064L480.323 264.41L486.859 263.406L489.833 257.5Z" fill="#F28100"/>
<path d="M512.833 257.5L515.808 263.406L522.344 264.41L517.646 269.064L518.711 275.59L512.833 272.56L506.955 275.59L508.021 269.064L503.323 264.41L509.859 263.406L512.833 257.5Z" fill="#F28100"/>
<path d="M535.833 257.5L538.808 263.406L545.344 264.41L540.646 269.064L541.711 275.59L535.833 272.56L529.955 275.59L531.021 269.064L526.323 264.41L532.859 263.406L535.833 257.5Z" fill="#F28100"/>
<path d="M558.833 257.5L561.808 263.406L568.344 264.41L563.646 269.064L564.711 275.59L558.833 272.56L552.955 275.59L554.021 269.064L549.323 264.41L555.859 263.406L558.833 257.5Z" fill="#D5D5E4"/>
<rect x="434.667" y="240" width="156.333" height="55" stroke="#DDDDE6" stroke-width="2"/>
</g>
<rect x="24" y="240" width="567" height="55" stroke="#DDDDE6" stroke-width="2"/>
</g>
<rect x="24" y="27" width="567" height="268" rx="15" stroke="#DDDDE6" stroke-width="2"/>
<defs>
<clipPath id="clip0_122_371">
<rect x="24" y="27" width="567" height="268" rx="15" fill="white"/>
</clipPath>
<clipPath id="clip1_122_371">
<rect width="567" height="48" fill="white" transform="translate(24 27)"/>
</clipPath>
<clipPath id="clip2_122_371">
<rect x="24" y="75" width="567" height="55" fill="white"/>
</clipPath>
<clipPath id="clip3_122_371">
<rect width="25" height="25" fill="white" transform="translate(373.167 90)"/>
</clipPath>
<clipPath id="clip4_122_371">
<rect x="24" y="130" width="567" height="55" fill="white"/>
</clipPath>
<clipPath id="clip5_122_371">
<rect width="25" height="25" fill="white" transform="translate(373.167 145)"/>
</clipPath>
<clipPath id="clip6_122_371">
<rect x="24" y="185" width="567" height="55" fill="white"/>
</clipPath>
<clipPath id="clip7_122_371">
<rect width="25" height="25" fill="white" transform="translate(373.167 200)"/>
</clipPath>
<clipPath id="clip8_122_371">
<rect x="24" y="240" width="567" height="55" fill="white"/>
</clipPath>
<clipPath id="clip9_122_371">
<rect width="25" height="25" fill="white" transform="translate(373.167 255)"/>
</clipPath>
</defs>
</svg>
