<svg width="719" height="423" viewBox="0 0 719 423" fill="none" xmlns="http://www.w3.org/2000/svg">
<g filter="url(#filter0_i_1_2)">
<path d="M50 61C50 52.7157 56.7157 46 65 46H654C662.284 46 669 52.7157 669 61V354C669 362.284 662.284 369 654 369H65C56.7157 369 50 362.284 50 354V61Z" fill="white"/>
</g>
<path d="M385.524 94.144C384.564 94.144 383.676 93.988 382.86 93.676C382.056 93.352 381.354 92.902 380.754 92.326C380.166 91.738 379.704 91.054 379.368 90.274C379.032 89.494 378.864 88.636 378.864 87.7C378.864 86.764 379.032 85.906 379.368 85.126C379.704 84.346 380.172 83.668 380.772 83.092C381.372 82.504 382.074 82.054 382.878 81.742C383.694 81.418 384.582 81.256 385.542 81.256C386.514 81.256 387.408 81.424 388.224 81.76C389.052 82.084 389.754 82.57 390.33 83.218L389.16 84.352C388.68 83.848 388.14 83.476 387.54 83.236C386.94 82.984 386.298 82.858 385.614 82.858C384.906 82.858 384.246 82.978 383.634 83.218C383.034 83.458 382.512 83.794 382.068 84.226C381.624 84.658 381.276 85.174 381.024 85.774C380.784 86.362 380.664 87.004 380.664 87.7C380.664 88.396 380.784 89.044 381.024 89.644C381.276 90.232 381.624 90.742 382.068 91.174C382.512 91.606 383.034 91.942 383.634 92.182C384.246 92.422 384.906 92.542 385.614 92.542C386.298 92.542 386.94 92.422 387.54 92.182C388.14 91.93 388.68 91.546 389.16 91.03L390.33 92.164C389.754 92.812 389.052 93.304 388.224 93.64C387.408 93.976 386.508 94.144 385.524 94.144Z" fill="#37376D"/>
<path d="M398.445 94V91.984L398.355 91.606V88.168C398.355 87.436 398.139 86.872 397.707 86.476C397.287 86.068 396.651 85.864 395.799 85.864C395.235 85.864 394.683 85.96 394.143 86.152C393.603 86.332 393.147 86.578 392.775 86.89L392.055 85.594C392.547 85.198 393.135 84.898 393.819 84.694C394.515 84.478 395.241 84.37 395.997 84.37C397.305 84.37 398.313 84.688 399.021 85.324C399.729 85.96 400.083 86.932 400.083 88.24V94H398.445ZM395.313 94.108C394.605 94.108 393.981 93.988 393.441 93.748C392.913 93.508 392.505 93.178 392.217 92.758C391.929 92.326 391.785 91.84 391.785 91.3C391.785 90.784 391.905 90.316 392.145 89.896C392.397 89.476 392.799 89.14 393.351 88.888C393.915 88.636 394.671 88.51 395.619 88.51H398.643V89.752H395.691C394.827 89.752 394.245 89.896 393.945 90.184C393.645 90.472 393.495 90.82 393.495 91.228C393.495 91.696 393.681 92.074 394.053 92.362C394.425 92.638 394.941 92.776 395.601 92.776C396.249 92.776 396.813 92.632 397.293 92.344C397.785 92.056 398.139 91.636 398.355 91.084L398.697 92.272C398.469 92.836 398.067 93.286 397.491 93.622C396.915 93.946 396.189 94.108 395.313 94.108Z" fill="#37376D"/>
<path d="M406.557 94.108C405.597 94.108 404.853 93.85 404.325 93.334C403.797 92.818 403.533 92.08 403.533 91.12V82.372H405.261V91.048C405.261 91.564 405.387 91.96 405.639 92.236C405.903 92.512 406.275 92.65 406.755 92.65C407.295 92.65 407.745 92.5 408.105 92.2L408.645 93.442C408.381 93.67 408.063 93.838 407.691 93.946C407.331 94.054 406.953 94.108 406.557 94.108ZM401.913 85.882V84.46H407.997V85.882H401.913Z" fill="#37376D"/>
<path d="M414.665 94.108C413.645 94.108 412.745 93.898 411.965 93.478C411.197 93.058 410.597 92.482 410.165 91.75C409.745 91.018 409.535 90.178 409.535 89.23C409.535 88.282 409.739 87.442 410.147 86.71C410.567 85.978 411.137 85.408 411.857 85C412.589 84.58 413.411 84.37 414.323 84.37C415.247 84.37 416.063 84.574 416.771 84.982C417.479 85.39 418.031 85.966 418.427 86.71C418.835 87.442 419.039 88.3 419.039 89.284C419.039 89.356 419.033 89.44 419.021 89.536C419.021 89.632 419.015 89.722 419.003 89.806H410.885V88.564H418.103L417.401 88.996C417.413 88.384 417.287 87.838 417.023 87.358C416.759 86.878 416.393 86.506 415.925 86.242C415.469 85.966 414.935 85.828 414.323 85.828C413.723 85.828 413.189 85.966 412.721 86.242C412.253 86.506 411.887 86.884 411.623 87.376C411.359 87.856 411.227 88.408 411.227 89.032V89.32C411.227 89.956 411.371 90.526 411.659 91.03C411.959 91.522 412.373 91.906 412.901 92.182C413.429 92.458 414.035 92.596 414.719 92.596C415.283 92.596 415.793 92.5 416.249 92.308C416.717 92.116 417.125 91.828 417.473 91.444L418.427 92.56C417.995 93.064 417.455 93.448 416.807 93.712C416.171 93.976 415.457 94.108 414.665 94.108Z" fill="#37376D"/>
<path d="M425.615 97.6C424.739 97.6 423.887 97.474 423.059 97.222C422.243 96.982 421.577 96.634 421.061 96.178L421.889 94.846C422.333 95.23 422.879 95.53 423.527 95.746C424.175 95.974 424.853 96.088 425.561 96.088C426.689 96.088 427.517 95.824 428.045 95.296C428.573 94.768 428.837 93.964 428.837 92.884V90.868L429.017 88.978L428.927 87.07V84.46H430.565V92.704C430.565 94.384 430.145 95.62 429.305 96.412C428.465 97.204 427.235 97.6 425.615 97.6ZM425.399 93.604C424.475 93.604 423.647 93.412 422.915 93.028C422.195 92.632 421.619 92.086 421.187 91.39C420.767 90.694 420.557 89.89 420.557 88.978C420.557 88.054 420.767 87.25 421.187 86.566C421.619 85.87 422.195 85.33 422.915 84.946C423.647 84.562 424.475 84.37 425.399 84.37C426.215 84.37 426.959 84.538 427.631 84.874C428.303 85.198 428.837 85.702 429.233 86.386C429.641 87.07 429.845 87.934 429.845 88.978C429.845 90.01 429.641 90.868 429.233 91.552C428.837 92.236 428.303 92.752 427.631 93.1C426.959 93.436 426.215 93.604 425.399 93.604ZM425.597 92.092C426.233 92.092 426.797 91.96 427.289 91.696C427.781 91.432 428.165 91.066 428.441 90.598C428.729 90.13 428.873 89.59 428.873 88.978C428.873 88.366 428.729 87.826 428.441 87.358C428.165 86.89 427.781 86.53 427.289 86.278C426.797 86.014 426.233 85.882 425.597 85.882C424.961 85.882 424.391 86.014 423.887 86.278C423.395 86.53 423.005 86.89 422.717 87.358C422.441 87.826 422.303 88.366 422.303 88.978C422.303 89.59 422.441 90.13 422.717 90.598C423.005 91.066 423.395 91.432 423.887 91.696C424.391 91.96 424.961 92.092 425.597 92.092Z" fill="#37376D"/>
<path d="M437.953 94.108C436.993 94.108 436.141 93.898 435.397 93.478C434.653 93.058 434.065 92.482 433.633 91.75C433.201 91.006 432.985 90.166 432.985 89.23C432.985 88.282 433.201 87.442 433.633 86.71C434.065 85.978 434.653 85.408 435.397 85C436.141 84.58 436.993 84.37 437.953 84.37C438.901 84.37 439.747 84.58 440.491 85C441.247 85.408 441.835 85.978 442.255 86.71C442.687 87.43 442.903 88.27 442.903 89.23C442.903 90.178 442.687 91.018 442.255 91.75C441.835 92.482 441.247 93.058 440.491 93.478C439.747 93.898 438.901 94.108 437.953 94.108ZM437.953 92.596C438.565 92.596 439.111 92.458 439.591 92.182C440.083 91.906 440.467 91.516 440.743 91.012C441.019 90.496 441.157 89.902 441.157 89.23C441.157 88.546 441.019 87.958 440.743 87.466C440.467 86.962 440.083 86.572 439.591 86.296C439.111 86.02 438.565 85.882 437.953 85.882C437.341 85.882 436.795 86.02 436.315 86.296C435.835 86.572 435.451 86.962 435.163 87.466C434.875 87.958 434.731 88.546 434.731 89.23C434.731 89.902 434.875 90.496 435.163 91.012C435.451 91.516 435.835 91.906 436.315 92.182C436.795 92.458 437.341 92.596 437.953 92.596Z" fill="#37376D"/>
<path d="M445.292 94V84.46H446.948V87.052L446.786 86.404C447.05 85.744 447.494 85.24 448.118 84.892C448.742 84.544 449.51 84.37 450.422 84.37V86.044C450.35 86.032 450.278 86.026 450.206 86.026C450.146 86.026 450.086 86.026 450.026 86.026C449.102 86.026 448.37 86.302 447.83 86.854C447.29 87.406 447.02 88.204 447.02 89.248V94H445.292Z" fill="#37376D"/>
<path d="M453.353 97.6C452.897 97.6 452.453 97.522 452.021 97.366C451.589 97.222 451.217 97.006 450.905 96.718L451.643 95.422C451.883 95.65 452.147 95.824 452.435 95.944C452.723 96.064 453.029 96.124 453.353 96.124C453.773 96.124 454.121 96.016 454.397 95.8C454.673 95.584 454.931 95.2 455.171 94.648L455.765 93.334L455.945 93.118L459.689 84.46H461.381L456.755 94.954C456.479 95.626 456.167 96.154 455.819 96.538C455.483 96.922 455.111 97.192 454.703 97.348C454.295 97.516 453.845 97.6 453.353 97.6ZM455.621 94.306L451.265 84.46H453.065L456.773 92.956L455.621 94.306Z" fill="#37376D"/>
<path d="M384.392 132V120.966H380.072V119.4H390.494V120.966H386.174V132H384.392Z" fill="#9B9BB6"/>
<path d="M395.304 132.108C394.344 132.108 393.492 131.898 392.748 131.478C392.004 131.058 391.416 130.482 390.984 129.75C390.552 129.006 390.336 128.166 390.336 127.23C390.336 126.282 390.552 125.442 390.984 124.71C391.416 123.978 392.004 123.408 392.748 123C393.492 122.58 394.344 122.37 395.304 122.37C396.252 122.37 397.098 122.58 397.842 123C398.598 123.408 399.186 123.978 399.606 124.71C400.038 125.43 400.254 126.27 400.254 127.23C400.254 128.178 400.038 129.018 399.606 129.75C399.186 130.482 398.598 131.058 397.842 131.478C397.098 131.898 396.252 132.108 395.304 132.108ZM395.304 130.596C395.916 130.596 396.462 130.458 396.942 130.182C397.434 129.906 397.818 129.516 398.094 129.012C398.37 128.496 398.508 127.902 398.508 127.23C398.508 126.546 398.37 125.958 398.094 125.466C397.818 124.962 397.434 124.572 396.942 124.296C396.462 124.02 395.916 123.882 395.304 123.882C394.692 123.882 394.146 124.02 393.666 124.296C393.186 124.572 392.802 124.962 392.514 125.466C392.226 125.958 392.082 126.546 392.082 127.23C392.082 127.902 392.226 128.496 392.514 129.012C392.802 129.516 393.186 129.906 393.666 130.182C394.146 130.458 394.692 130.596 395.304 130.596Z" fill="#9B9BB6"/>
<path d="M411.636 132.108C410.664 132.108 409.794 131.898 409.026 131.478C408.27 131.058 407.676 130.482 407.244 129.75C406.812 129.018 406.596 128.178 406.596 127.23C406.596 126.282 406.812 125.442 407.244 124.71C407.676 123.978 408.27 123.408 409.026 123C409.794 122.58 410.664 122.37 411.636 122.37C412.5 122.37 413.268 122.544 413.94 122.892C414.624 123.228 415.152 123.732 415.524 124.404L414.21 125.25C413.898 124.782 413.514 124.44 413.058 124.224C412.614 123.996 412.134 123.882 411.618 123.882C410.994 123.882 410.436 124.02 409.944 124.296C409.452 124.572 409.062 124.962 408.774 125.466C408.486 125.958 408.342 126.546 408.342 127.23C408.342 127.914 408.486 128.508 408.774 129.012C409.062 129.516 409.452 129.906 409.944 130.182C410.436 130.458 410.994 130.596 411.618 130.596C412.134 130.596 412.614 130.488 413.058 130.272C413.514 130.044 413.898 129.696 414.21 129.228L415.524 130.056C415.152 130.716 414.624 131.226 413.94 131.586C413.268 131.934 412.5 132.108 411.636 132.108Z" fill="#9B9BB6"/>
<path d="M422.732 122.37C423.512 122.37 424.196 122.52 424.784 122.82C425.384 123.12 425.852 123.576 426.188 124.188C426.524 124.8 426.692 125.574 426.692 126.51V132H424.964V126.708C424.964 125.784 424.736 125.088 424.28 124.62C423.836 124.152 423.206 123.918 422.39 123.918C421.778 123.918 421.244 124.038 420.788 124.278C420.332 124.518 419.978 124.872 419.726 125.34C419.486 125.808 419.366 126.39 419.366 127.086V132H417.638V118.644H419.366V125.034L419.024 124.35C419.336 123.726 419.816 123.24 420.464 122.892C421.112 122.544 421.868 122.37 422.732 122.37Z" fill="#9B9BB6"/>
<path d="M433.976 132.108C433.016 132.108 432.164 131.898 431.42 131.478C430.676 131.058 430.088 130.482 429.656 129.75C429.224 129.006 429.008 128.166 429.008 127.23C429.008 126.282 429.224 125.442 429.656 124.71C430.088 123.978 430.676 123.408 431.42 123C432.164 122.58 433.016 122.37 433.976 122.37C434.924 122.37 435.77 122.58 436.514 123C437.27 123.408 437.858 123.978 438.278 124.71C438.71 125.43 438.926 126.27 438.926 127.23C438.926 128.178 438.71 129.018 438.278 129.75C437.858 130.482 437.27 131.058 436.514 131.478C435.77 131.898 434.924 132.108 433.976 132.108ZM433.976 130.596C434.588 130.596 435.134 130.458 435.614 130.182C436.106 129.906 436.49 129.516 436.766 129.012C437.042 128.496 437.18 127.902 437.18 127.23C437.18 126.546 437.042 125.958 436.766 125.466C436.49 124.962 436.106 124.572 435.614 124.296C435.134 124.02 434.588 123.882 433.976 123.882C433.364 123.882 432.818 124.02 432.338 124.296C431.858 124.572 431.474 124.962 431.186 125.466C430.898 125.958 430.754 126.546 430.754 127.23C430.754 127.902 430.898 128.496 431.186 129.012C431.474 129.516 431.858 129.906 432.338 130.182C432.818 130.458 433.364 130.596 433.976 130.596Z" fill="#9B9BB6"/>
<path d="M445.402 132.108C444.442 132.108 443.59 131.898 442.846 131.478C442.102 131.058 441.514 130.482 441.082 129.75C440.65 129.006 440.434 128.166 440.434 127.23C440.434 126.282 440.65 125.442 441.082 124.71C441.514 123.978 442.102 123.408 442.846 123C443.59 122.58 444.442 122.37 445.402 122.37C446.35 122.37 447.196 122.58 447.94 123C448.696 123.408 449.284 123.978 449.704 124.71C450.136 125.43 450.352 126.27 450.352 127.23C450.352 128.178 450.136 129.018 449.704 129.75C449.284 130.482 448.696 131.058 447.94 131.478C447.196 131.898 446.35 132.108 445.402 132.108ZM445.402 130.596C446.014 130.596 446.56 130.458 447.04 130.182C447.532 129.906 447.916 129.516 448.192 129.012C448.468 128.496 448.606 127.902 448.606 127.23C448.606 126.546 448.468 125.958 448.192 125.466C447.916 124.962 447.532 124.572 447.04 124.296C446.56 124.02 446.014 123.882 445.402 123.882C444.79 123.882 444.244 124.02 443.764 124.296C443.284 124.572 442.9 124.962 442.612 125.466C442.324 125.958 442.18 126.546 442.18 127.23C442.18 127.902 442.324 128.496 442.612 129.012C442.9 129.516 443.284 129.906 443.764 130.182C444.244 130.458 444.79 130.596 445.402 130.596Z" fill="#9B9BB6"/>
<path d="M455.478 132.108C454.686 132.108 453.93 132 453.21 131.784C452.502 131.568 451.944 131.304 451.536 130.992L452.256 129.624C452.664 129.9 453.168 130.134 453.768 130.326C454.368 130.518 454.98 130.614 455.604 130.614C456.408 130.614 456.984 130.5 457.332 130.272C457.692 130.044 457.872 129.726 457.872 129.318C457.872 129.018 457.764 128.784 457.548 128.616C457.332 128.448 457.044 128.322 456.684 128.238C456.336 128.154 455.946 128.082 455.514 128.022C455.082 127.95 454.65 127.866 454.218 127.77C453.786 127.662 453.39 127.518 453.03 127.338C452.67 127.146 452.382 126.888 452.166 126.564C451.95 126.228 451.842 125.784 451.842 125.232C451.842 124.656 452.004 124.152 452.328 123.72C452.652 123.288 453.108 122.958 453.696 122.73C454.296 122.49 455.004 122.37 455.82 122.37C456.444 122.37 457.074 122.448 457.71 122.604C458.358 122.748 458.886 122.958 459.294 123.234L458.556 124.602C458.124 124.314 457.674 124.116 457.206 124.008C456.738 123.9 456.27 123.846 455.802 123.846C455.046 123.846 454.482 123.972 454.11 124.224C453.738 124.464 453.552 124.776 453.552 125.16C453.552 125.484 453.66 125.736 453.876 125.916C454.104 126.084 454.392 126.216 454.74 126.312C455.1 126.408 455.496 126.492 455.928 126.564C456.36 126.624 456.792 126.708 457.224 126.816C457.656 126.912 458.046 127.05 458.394 127.23C458.754 127.41 459.042 127.662 459.258 127.986C459.486 128.31 459.6 128.742 459.6 129.282C459.6 129.858 459.432 130.356 459.096 130.776C458.76 131.196 458.286 131.526 457.674 131.766C457.062 131.994 456.33 132.108 455.478 132.108Z" fill="#9B9BB6"/>
<path d="M466.007 132.108C464.987 132.108 464.087 131.898 463.307 131.478C462.539 131.058 461.939 130.482 461.507 129.75C461.087 129.018 460.877 128.178 460.877 127.23C460.877 126.282 461.081 125.442 461.489 124.71C461.909 123.978 462.479 123.408 463.199 123C463.931 122.58 464.753 122.37 465.665 122.37C466.589 122.37 467.405 122.574 468.113 122.982C468.821 123.39 469.373 123.966 469.769 124.71C470.177 125.442 470.381 126.3 470.381 127.284C470.381 127.356 470.375 127.44 470.363 127.536C470.363 127.632 470.357 127.722 470.345 127.806H462.227V126.564H469.445L468.743 126.996C468.755 126.384 468.629 125.838 468.365 125.358C468.101 124.878 467.735 124.506 467.267 124.242C466.811 123.966 466.277 123.828 465.665 123.828C465.065 123.828 464.531 123.966 464.063 124.242C463.595 124.506 463.229 124.884 462.965 125.376C462.701 125.856 462.569 126.408 462.569 127.032V127.32C462.569 127.956 462.713 128.526 463.001 129.03C463.301 129.522 463.715 129.906 464.243 130.182C464.771 130.458 465.377 130.596 466.061 130.596C466.625 130.596 467.135 130.5 467.591 130.308C468.059 130.116 468.467 129.828 468.815 129.444L469.769 130.56C469.337 131.064 468.797 131.448 468.149 131.712C467.513 131.976 466.799 132.108 466.007 132.108Z" fill="#9B9BB6"/>
<path fill-rule="evenodd" clip-rule="evenodd" d="M631 147H380V146H631V147Z" fill="black"/>
<path d="M626.165 128.75L622 125H630.33L626.165 128.75Z" fill="#000C2C"/>
<path d="M381.89 186V173.4H387.2C388.544 173.4 389.726 173.664 390.746 174.192C391.778 174.72 392.576 175.458 393.14 176.406C393.716 177.354 394.004 178.452 394.004 179.7C394.004 180.948 393.716 182.046 393.14 182.994C392.576 183.942 391.778 184.68 390.746 185.208C389.726 185.736 388.544 186 387.2 186H381.89ZM383.69 184.434H387.092C388.136 184.434 389.036 184.236 389.792 183.84C390.56 183.444 391.154 182.892 391.574 182.184C391.994 181.464 392.204 180.636 392.204 179.7C392.204 178.752 391.994 177.924 391.574 177.216C391.154 176.508 390.56 175.956 389.792 175.56C389.036 175.164 388.136 174.966 387.092 174.966H383.69V184.434Z" fill="#37376D"/>
<path d="M400.757 186.108C399.737 186.108 398.837 185.898 398.057 185.478C397.289 185.058 396.689 184.482 396.257 183.75C395.837 183.018 395.627 182.178 395.627 181.23C395.627 180.282 395.831 179.442 396.239 178.71C396.659 177.978 397.229 177.408 397.949 177C398.681 176.58 399.503 176.37 400.415 176.37C401.339 176.37 402.155 176.574 402.863 176.982C403.571 177.39 404.123 177.966 404.519 178.71C404.927 179.442 405.131 180.3 405.131 181.284C405.131 181.356 405.125 181.44 405.113 181.536C405.113 181.632 405.107 181.722 405.095 181.806H396.977V180.564H404.195L403.493 180.996C403.505 180.384 403.379 179.838 403.115 179.358C402.851 178.878 402.485 178.506 402.017 178.242C401.561 177.966 401.027 177.828 400.415 177.828C399.815 177.828 399.281 177.966 398.813 178.242C398.345 178.506 397.979 178.884 397.715 179.376C397.451 179.856 397.319 180.408 397.319 181.032V181.32C397.319 181.956 397.463 182.526 397.751 183.03C398.051 183.522 398.465 183.906 398.993 184.182C399.521 184.458 400.127 184.596 400.811 184.596C401.375 184.596 401.885 184.5 402.341 184.308C402.809 184.116 403.217 183.828 403.565 183.444L404.519 184.56C404.087 185.064 403.547 185.448 402.899 185.712C402.263 185.976 401.549 186.108 400.757 186.108Z" fill="#37376D"/>
<path d="M410.807 186.108C409.847 186.108 409.103 185.85 408.575 185.334C408.047 184.818 407.783 184.08 407.783 183.12V174.372H409.511V183.048C409.511 183.564 409.637 183.96 409.889 184.236C410.153 184.512 410.525 184.65 411.005 184.65C411.545 184.65 411.995 184.5 412.355 184.2L412.895 185.442C412.631 185.67 412.313 185.838 411.941 185.946C411.581 186.054 411.203 186.108 410.807 186.108ZM406.163 177.882V176.46H412.247V177.882H406.163Z" fill="#37376D"/>
<path d="M420.906 186V183.984L420.816 183.606V180.168C420.816 179.436 420.6 178.872 420.168 178.476C419.748 178.068 419.112 177.864 418.26 177.864C417.696 177.864 417.144 177.96 416.604 178.152C416.064 178.332 415.608 178.578 415.236 178.89L414.516 177.594C415.008 177.198 415.596 176.898 416.28 176.694C416.976 176.478 417.702 176.37 418.458 176.37C419.766 176.37 420.774 176.688 421.482 177.324C422.19 177.96 422.544 178.932 422.544 180.24V186H420.906ZM417.774 186.108C417.066 186.108 416.442 185.988 415.902 185.748C415.374 185.508 414.966 185.178 414.678 184.758C414.39 184.326 414.246 183.84 414.246 183.3C414.246 182.784 414.366 182.316 414.606 181.896C414.858 181.476 415.26 181.14 415.812 180.888C416.376 180.636 417.132 180.51 418.08 180.51H421.104V181.752H418.152C417.288 181.752 416.706 181.896 416.406 182.184C416.106 182.472 415.956 182.82 415.956 183.228C415.956 183.696 416.142 184.074 416.514 184.362C416.886 184.638 417.402 184.776 418.062 184.776C418.71 184.776 419.274 184.632 419.754 184.344C420.246 184.056 420.6 183.636 420.816 183.084L421.158 184.272C420.93 184.836 420.528 185.286 419.952 185.622C419.376 185.946 418.65 186.108 417.774 186.108Z" fill="#37376D"/>
<path d="M425.742 186V176.46H427.47V186H425.742ZM426.606 174.624C426.27 174.624 425.988 174.516 425.76 174.3C425.544 174.084 425.436 173.82 425.436 173.508C425.436 173.184 425.544 172.914 425.76 172.698C425.988 172.482 426.27 172.374 426.606 172.374C426.942 172.374 427.218 172.482 427.434 172.698C427.662 172.902 427.776 173.16 427.776 173.472C427.776 173.796 427.668 174.072 427.452 174.3C427.236 174.516 426.954 174.624 426.606 174.624Z" fill="#37376D"/>
<path d="M430.769 186V172.644H432.497V186H430.769Z" fill="#37376D"/>
<path d="M438.532 186.108C437.74 186.108 436.984 186 436.264 185.784C435.556 185.568 434.998 185.304 434.59 184.992L435.31 183.624C435.718 183.9 436.222 184.134 436.822 184.326C437.422 184.518 438.034 184.614 438.658 184.614C439.462 184.614 440.038 184.5 440.386 184.272C440.746 184.044 440.926 183.726 440.926 183.318C440.926 183.018 440.818 182.784 440.602 182.616C440.386 182.448 440.098 182.322 439.738 182.238C439.39 182.154 439 182.082 438.568 182.022C438.136 181.95 437.704 181.866 437.272 181.77C436.84 181.662 436.444 181.518 436.084 181.338C435.724 181.146 435.436 180.888 435.22 180.564C435.004 180.228 434.896 179.784 434.896 179.232C434.896 178.656 435.058 178.152 435.382 177.72C435.706 177.288 436.162 176.958 436.75 176.73C437.35 176.49 438.058 176.37 438.874 176.37C439.498 176.37 440.128 176.448 440.764 176.604C441.412 176.748 441.94 176.958 442.348 177.234L441.61 178.602C441.178 178.314 440.728 178.116 440.26 178.008C439.792 177.9 439.324 177.846 438.856 177.846C438.1 177.846 437.536 177.972 437.164 178.224C436.792 178.464 436.606 178.776 436.606 179.16C436.606 179.484 436.714 179.736 436.93 179.916C437.158 180.084 437.446 180.216 437.794 180.312C438.154 180.408 438.55 180.492 438.982 180.564C439.414 180.624 439.846 180.708 440.278 180.816C440.71 180.912 441.1 181.05 441.448 181.23C441.808 181.41 442.096 181.662 442.312 181.986C442.54 182.31 442.654 182.742 442.654 183.282C442.654 183.858 442.486 184.356 442.15 184.776C441.814 185.196 441.34 185.526 440.728 185.766C440.116 185.994 439.384 186.108 438.532 186.108Z" fill="#37376D"/>
<path d="M384.392 223V211.966H380.072V210.4H390.494V211.966H386.174V223H384.392Z" fill="#9B9BB6"/>
<path d="M395.304 223.108C394.344 223.108 393.492 222.898 392.748 222.478C392.004 222.058 391.416 221.482 390.984 220.75C390.552 220.006 390.336 219.166 390.336 218.23C390.336 217.282 390.552 216.442 390.984 215.71C391.416 214.978 392.004 214.408 392.748 214C393.492 213.58 394.344 213.37 395.304 213.37C396.252 213.37 397.098 213.58 397.842 214C398.598 214.408 399.186 214.978 399.606 215.71C400.038 216.43 400.254 217.27 400.254 218.23C400.254 219.178 400.038 220.018 399.606 220.75C399.186 221.482 398.598 222.058 397.842 222.478C397.098 222.898 396.252 223.108 395.304 223.108ZM395.304 221.596C395.916 221.596 396.462 221.458 396.942 221.182C397.434 220.906 397.818 220.516 398.094 220.012C398.37 219.496 398.508 218.902 398.508 218.23C398.508 217.546 398.37 216.958 398.094 216.466C397.818 215.962 397.434 215.572 396.942 215.296C396.462 215.02 395.916 214.882 395.304 214.882C394.692 214.882 394.146 215.02 393.666 215.296C393.186 215.572 392.802 215.962 392.514 216.466C392.226 216.958 392.082 217.546 392.082 218.23C392.082 218.902 392.226 219.496 392.514 220.012C392.802 220.516 393.186 220.906 393.666 221.182C394.146 221.458 394.692 221.596 395.304 221.596Z" fill="#9B9BB6"/>
<path d="M411.636 223.108C410.664 223.108 409.794 222.898 409.026 222.478C408.27 222.058 407.676 221.482 407.244 220.75C406.812 220.018 406.596 219.178 406.596 218.23C406.596 217.282 406.812 216.442 407.244 215.71C407.676 214.978 408.27 214.408 409.026 214C409.794 213.58 410.664 213.37 411.636 213.37C412.5 213.37 413.268 213.544 413.94 213.892C414.624 214.228 415.152 214.732 415.524 215.404L414.21 216.25C413.898 215.782 413.514 215.44 413.058 215.224C412.614 214.996 412.134 214.882 411.618 214.882C410.994 214.882 410.436 215.02 409.944 215.296C409.452 215.572 409.062 215.962 408.774 216.466C408.486 216.958 408.342 217.546 408.342 218.23C408.342 218.914 408.486 219.508 408.774 220.012C409.062 220.516 409.452 220.906 409.944 221.182C410.436 221.458 410.994 221.596 411.618 221.596C412.134 221.596 412.614 221.488 413.058 221.272C413.514 221.044 413.898 220.696 414.21 220.228L415.524 221.056C415.152 221.716 414.624 222.226 413.94 222.586C413.268 222.934 412.5 223.108 411.636 223.108Z" fill="#9B9BB6"/>
<path d="M422.732 213.37C423.512 213.37 424.196 213.52 424.784 213.82C425.384 214.12 425.852 214.576 426.188 215.188C426.524 215.8 426.692 216.574 426.692 217.51V223H424.964V217.708C424.964 216.784 424.736 216.088 424.28 215.62C423.836 215.152 423.206 214.918 422.39 214.918C421.778 214.918 421.244 215.038 420.788 215.278C420.332 215.518 419.978 215.872 419.726 216.34C419.486 216.808 419.366 217.39 419.366 218.086V223H417.638V209.644H419.366V216.034L419.024 215.35C419.336 214.726 419.816 214.24 420.464 213.892C421.112 213.544 421.868 213.37 422.732 213.37Z" fill="#9B9BB6"/>
<path d="M433.976 223.108C433.016 223.108 432.164 222.898 431.42 222.478C430.676 222.058 430.088 221.482 429.656 220.75C429.224 220.006 429.008 219.166 429.008 218.23C429.008 217.282 429.224 216.442 429.656 215.71C430.088 214.978 430.676 214.408 431.42 214C432.164 213.58 433.016 213.37 433.976 213.37C434.924 213.37 435.77 213.58 436.514 214C437.27 214.408 437.858 214.978 438.278 215.71C438.71 216.43 438.926 217.27 438.926 218.23C438.926 219.178 438.71 220.018 438.278 220.75C437.858 221.482 437.27 222.058 436.514 222.478C435.77 222.898 434.924 223.108 433.976 223.108ZM433.976 221.596C434.588 221.596 435.134 221.458 435.614 221.182C436.106 220.906 436.49 220.516 436.766 220.012C437.042 219.496 437.18 218.902 437.18 218.23C437.18 217.546 437.042 216.958 436.766 216.466C436.49 215.962 436.106 215.572 435.614 215.296C435.134 215.02 434.588 214.882 433.976 214.882C433.364 214.882 432.818 215.02 432.338 215.296C431.858 215.572 431.474 215.962 431.186 216.466C430.898 216.958 430.754 217.546 430.754 218.23C430.754 218.902 430.898 219.496 431.186 220.012C431.474 220.516 431.858 220.906 432.338 221.182C432.818 221.458 433.364 221.596 433.976 221.596Z" fill="#9B9BB6"/>
<path d="M445.402 223.108C444.442 223.108 443.59 222.898 442.846 222.478C442.102 222.058 441.514 221.482 441.082 220.75C440.65 220.006 440.434 219.166 440.434 218.23C440.434 217.282 440.65 216.442 441.082 215.71C441.514 214.978 442.102 214.408 442.846 214C443.59 213.58 444.442 213.37 445.402 213.37C446.35 213.37 447.196 213.58 447.94 214C448.696 214.408 449.284 214.978 449.704 215.71C450.136 216.43 450.352 217.27 450.352 218.23C450.352 219.178 450.136 220.018 449.704 220.75C449.284 221.482 448.696 222.058 447.94 222.478C447.196 222.898 446.35 223.108 445.402 223.108ZM445.402 221.596C446.014 221.596 446.56 221.458 447.04 221.182C447.532 220.906 447.916 220.516 448.192 220.012C448.468 219.496 448.606 218.902 448.606 218.23C448.606 217.546 448.468 216.958 448.192 216.466C447.916 215.962 447.532 215.572 447.04 215.296C446.56 215.02 446.014 214.882 445.402 214.882C444.79 214.882 444.244 215.02 443.764 215.296C443.284 215.572 442.9 215.962 442.612 216.466C442.324 216.958 442.18 217.546 442.18 218.23C442.18 218.902 442.324 219.496 442.612 220.012C442.9 220.516 443.284 220.906 443.764 221.182C444.244 221.458 444.79 221.596 445.402 221.596Z" fill="#9B9BB6"/>
<path d="M455.478 223.108C454.686 223.108 453.93 223 453.21 222.784C452.502 222.568 451.944 222.304 451.536 221.992L452.256 220.624C452.664 220.9 453.168 221.134 453.768 221.326C454.368 221.518 454.98 221.614 455.604 221.614C456.408 221.614 456.984 221.5 457.332 221.272C457.692 221.044 457.872 220.726 457.872 220.318C457.872 220.018 457.764 219.784 457.548 219.616C457.332 219.448 457.044 219.322 456.684 219.238C456.336 219.154 455.946 219.082 455.514 219.022C455.082 218.95 454.65 218.866 454.218 218.77C453.786 218.662 453.39 218.518 453.03 218.338C452.67 218.146 452.382 217.888 452.166 217.564C451.95 217.228 451.842 216.784 451.842 216.232C451.842 215.656 452.004 215.152 452.328 214.72C452.652 214.288 453.108 213.958 453.696 213.73C454.296 213.49 455.004 213.37 455.82 213.37C456.444 213.37 457.074 213.448 457.71 213.604C458.358 213.748 458.886 213.958 459.294 214.234L458.556 215.602C458.124 215.314 457.674 215.116 457.206 215.008C456.738 214.9 456.27 214.846 455.802 214.846C455.046 214.846 454.482 214.972 454.11 215.224C453.738 215.464 453.552 215.776 453.552 216.16C453.552 216.484 453.66 216.736 453.876 216.916C454.104 217.084 454.392 217.216 454.74 217.312C455.1 217.408 455.496 217.492 455.928 217.564C456.36 217.624 456.792 217.708 457.224 217.816C457.656 217.912 458.046 218.05 458.394 218.23C458.754 218.41 459.042 218.662 459.258 218.986C459.486 219.31 459.6 219.742 459.6 220.282C459.6 220.858 459.432 221.356 459.096 221.776C458.76 222.196 458.286 222.526 457.674 222.766C457.062 222.994 456.33 223.108 455.478 223.108Z" fill="#9B9BB6"/>
<path d="M466.007 223.108C464.987 223.108 464.087 222.898 463.307 222.478C462.539 222.058 461.939 221.482 461.507 220.75C461.087 220.018 460.877 219.178 460.877 218.23C460.877 217.282 461.081 216.442 461.489 215.71C461.909 214.978 462.479 214.408 463.199 214C463.931 213.58 464.753 213.37 465.665 213.37C466.589 213.37 467.405 213.574 468.113 213.982C468.821 214.39 469.373 214.966 469.769 215.71C470.177 216.442 470.381 217.3 470.381 218.284C470.381 218.356 470.375 218.44 470.363 218.536C470.363 218.632 470.357 218.722 470.345 218.806H462.227V217.564H469.445L468.743 217.996C468.755 217.384 468.629 216.838 468.365 216.358C468.101 215.878 467.735 215.506 467.267 215.242C466.811 214.966 466.277 214.828 465.665 214.828C465.065 214.828 464.531 214.966 464.063 215.242C463.595 215.506 463.229 215.884 462.965 216.376C462.701 216.856 462.569 217.408 462.569 218.032V218.32C462.569 218.956 462.713 219.526 463.001 220.03C463.301 220.522 463.715 220.906 464.243 221.182C464.771 221.458 465.377 221.596 466.061 221.596C466.625 221.596 467.135 221.5 467.591 221.308C468.059 221.116 468.467 220.828 468.815 220.444L469.769 221.56C469.337 222.064 468.797 222.448 468.149 222.712C467.513 222.976 466.799 223.108 466.007 223.108Z" fill="#9B9BB6"/>
<path fill-rule="evenodd" clip-rule="evenodd" d="M631 238H380V237H631V238Z" fill="black"/>
<path d="M626.165 219.75L622 216H630.33L626.165 219.75Z" fill="#000C2C"/>
<path fill-rule="evenodd" clip-rule="evenodd" d="M337 147H86V146H337V147Z" fill="black"/>
<path d="M332.165 128.75L328 125H336.33L332.165 128.75Z" fill="#000C2C"/>
<path d="M92.562 184.144C91.602 184.144 90.684 184 89.808 183.712C88.932 183.412 88.242 183.028 87.738 182.56L88.404 181.156C88.884 181.576 89.496 181.924 90.24 182.2C90.984 182.476 91.758 182.614 92.562 182.614C93.294 182.614 93.888 182.53 94.344 182.362C94.8 182.194 95.136 181.966 95.352 181.678C95.568 181.378 95.676 181.042 95.676 180.67C95.676 180.238 95.532 179.89 95.244 179.626C94.968 179.362 94.602 179.152 94.146 178.996C93.702 178.828 93.21 178.684 92.67 178.564C92.13 178.444 91.584 178.306 91.032 178.15C90.492 177.982 89.994 177.772 89.538 177.52C89.094 177.268 88.734 176.932 88.458 176.512C88.182 176.08 88.044 175.528 88.044 174.856C88.044 174.208 88.212 173.614 88.548 173.074C88.896 172.522 89.424 172.084 90.132 171.76C90.852 171.424 91.764 171.256 92.868 171.256C93.6 171.256 94.326 171.352 95.046 171.544C95.766 171.736 96.39 172.012 96.918 172.372L96.324 173.812C95.784 173.452 95.214 173.194 94.614 173.038C94.014 172.87 93.432 172.786 92.868 172.786C92.16 172.786 91.578 172.876 91.122 173.056C90.666 173.236 90.33 173.476 90.114 173.776C89.91 174.076 89.808 174.412 89.808 174.784C89.808 175.228 89.946 175.582 90.222 175.846C90.51 176.11 90.876 176.32 91.32 176.476C91.776 176.632 92.274 176.776 92.814 176.908C93.354 177.028 93.894 177.166 94.434 177.322C94.986 177.478 95.484 177.682 95.928 177.934C96.384 178.186 96.75 178.522 97.026 178.942C97.302 179.362 97.44 179.902 97.44 180.562C97.44 181.198 97.266 181.792 96.918 182.344C96.57 182.884 96.03 183.322 95.298 183.658C94.578 183.982 93.666 184.144 92.562 184.144Z" fill="#37376D"/>
<path d="M104.066 184.108C103.046 184.108 102.146 183.898 101.366 183.478C100.598 183.058 99.9977 182.482 99.5657 181.75C99.1457 181.018 98.9357 180.178 98.9357 179.23C98.9357 178.282 99.1397 177.442 99.5477 176.71C99.9677 175.978 100.538 175.408 101.258 175C101.99 174.58 102.812 174.37 103.724 174.37C104.648 174.37 105.464 174.574 106.172 174.982C106.88 175.39 107.432 175.966 107.828 176.71C108.236 177.442 108.44 178.3 108.44 179.284C108.44 179.356 108.434 179.44 108.422 179.536C108.422 179.632 108.416 179.722 108.404 179.806H100.286V178.564H107.504L106.802 178.996C106.814 178.384 106.688 177.838 106.424 177.358C106.16 176.878 105.794 176.506 105.326 176.242C104.87 175.966 104.336 175.828 103.724 175.828C103.124 175.828 102.59 175.966 102.122 176.242C101.654 176.506 101.288 176.884 101.024 177.376C100.76 177.856 100.628 178.408 100.628 179.032V179.32C100.628 179.956 100.772 180.526 101.06 181.03C101.36 181.522 101.774 181.906 102.302 182.182C102.83 182.458 103.436 182.596 104.12 182.596C104.684 182.596 105.194 182.5 105.65 182.308C106.118 182.116 106.526 181.828 106.874 181.444L107.828 182.56C107.396 183.064 106.856 183.448 106.208 183.712C105.572 183.976 104.858 184.108 104.066 184.108Z" fill="#37376D"/>
<path d="M115.015 187.6C114.139 187.6 113.287 187.474 112.459 187.222C111.643 186.982 110.977 186.634 110.461 186.178L111.289 184.846C111.733 185.23 112.279 185.53 112.927 185.746C113.575 185.974 114.253 186.088 114.961 186.088C116.089 186.088 116.917 185.824 117.445 185.296C117.973 184.768 118.237 183.964 118.237 182.884V180.868L118.417 178.978L118.327 177.07V174.46H119.965V182.704C119.965 184.384 119.545 185.62 118.705 186.412C117.865 187.204 116.635 187.6 115.015 187.6ZM114.799 183.604C113.875 183.604 113.047 183.412 112.315 183.028C111.595 182.632 111.019 182.086 110.587 181.39C110.167 180.694 109.957 179.89 109.957 178.978C109.957 178.054 110.167 177.25 110.587 176.566C111.019 175.87 111.595 175.33 112.315 174.946C113.047 174.562 113.875 174.37 114.799 174.37C115.615 174.37 116.359 174.538 117.031 174.874C117.703 175.198 118.237 175.702 118.633 176.386C119.041 177.07 119.245 177.934 119.245 178.978C119.245 180.01 119.041 180.868 118.633 181.552C118.237 182.236 117.703 182.752 117.031 183.1C116.359 183.436 115.615 183.604 114.799 183.604ZM114.997 182.092C115.633 182.092 116.197 181.96 116.689 181.696C117.181 181.432 117.565 181.066 117.841 180.598C118.129 180.13 118.273 179.59 118.273 178.978C118.273 178.366 118.129 177.826 117.841 177.358C117.565 176.89 117.181 176.53 116.689 176.278C116.197 176.014 115.633 175.882 114.997 175.882C114.361 175.882 113.791 176.014 113.287 176.278C112.795 176.53 112.405 176.89 112.117 177.358C111.841 177.826 111.703 178.366 111.703 178.978C111.703 179.59 111.841 180.13 112.117 180.598C112.405 181.066 112.795 181.432 113.287 181.696C113.791 181.96 114.361 182.092 114.997 182.092Z" fill="#37376D"/>
<path d="M135.201 174.37C135.969 174.37 136.647 174.52 137.235 174.82C137.823 175.12 138.279 175.576 138.603 176.188C138.939 176.8 139.107 177.574 139.107 178.51V184H137.379V178.708C137.379 177.784 137.163 177.088 136.731 176.62C136.299 176.152 135.693 175.918 134.913 175.918C134.337 175.918 133.833 176.038 133.401 176.278C132.969 176.518 132.633 176.872 132.393 177.34C132.165 177.808 132.051 178.39 132.051 179.086V184H130.323V178.708C130.323 177.784 130.107 177.088 129.675 176.62C129.255 176.152 128.649 175.918 127.857 175.918C127.293 175.918 126.795 176.038 126.363 176.278C125.931 176.518 125.595 176.872 125.355 177.34C125.115 177.808 124.995 178.39 124.995 179.086V184H123.267V174.46H124.923V176.998L124.653 176.35C124.953 175.726 125.415 175.24 126.039 174.892C126.663 174.544 127.389 174.37 128.217 174.37C129.129 174.37 129.915 174.598 130.575 175.054C131.235 175.498 131.667 176.176 131.871 177.088L131.169 176.8C131.457 176.068 131.961 175.48 132.681 175.036C133.401 174.592 134.241 174.37 135.201 174.37Z" fill="#37376D"/>
<path d="M146.534 184.108C145.514 184.108 144.614 183.898 143.834 183.478C143.066 183.058 142.466 182.482 142.034 181.75C141.614 181.018 141.404 180.178 141.404 179.23C141.404 178.282 141.608 177.442 142.016 176.71C142.436 175.978 143.006 175.408 143.726 175C144.458 174.58 145.28 174.37 146.192 174.37C147.116 174.37 147.932 174.574 148.64 174.982C149.348 175.39 149.9 175.966 150.296 176.71C150.704 177.442 150.908 178.3 150.908 179.284C150.908 179.356 150.902 179.44 150.89 179.536C150.89 179.632 150.884 179.722 150.872 179.806H142.754V178.564H149.972L149.27 178.996C149.282 178.384 149.156 177.838 148.892 177.358C148.628 176.878 148.262 176.506 147.794 176.242C147.338 175.966 146.804 175.828 146.192 175.828C145.592 175.828 145.058 175.966 144.59 176.242C144.122 176.506 143.756 176.884 143.492 177.376C143.228 177.856 143.096 178.408 143.096 179.032V179.32C143.096 179.956 143.24 180.526 143.528 181.03C143.828 181.522 144.242 181.906 144.77 182.182C145.298 182.458 145.904 182.596 146.588 182.596C147.152 182.596 147.662 182.5 148.118 182.308C148.586 182.116 148.994 181.828 149.342 181.444L150.296 182.56C149.864 183.064 149.324 183.448 148.676 183.712C148.04 183.976 147.326 184.108 146.534 184.108Z" fill="#37376D"/>
<path d="M158.402 174.37C159.182 174.37 159.866 174.52 160.454 174.82C161.054 175.12 161.522 175.576 161.858 176.188C162.194 176.8 162.362 177.574 162.362 178.51V184H160.634V178.708C160.634 177.784 160.406 177.088 159.95 176.62C159.506 176.152 158.876 175.918 158.06 175.918C157.448 175.918 156.914 176.038 156.458 176.278C156.002 176.518 155.648 176.872 155.396 177.34C155.156 177.808 155.036 178.39 155.036 179.086V184H153.308V174.46H154.964V177.034L154.694 176.35C155.006 175.726 155.486 175.24 156.134 174.892C156.782 174.544 157.538 174.37 158.402 174.37Z" fill="#37376D"/>
<path d="M168.836 184.108C167.876 184.108 167.132 183.85 166.604 183.334C166.076 182.818 165.812 182.08 165.812 181.12V172.372H167.54V181.048C167.54 181.564 167.666 181.96 167.918 182.236C168.182 182.512 168.554 182.65 169.034 182.65C169.574 182.65 170.024 182.5 170.384 182.2L170.924 183.442C170.66 183.67 170.342 183.838 169.97 183.946C169.61 184.054 169.232 184.108 168.836 184.108ZM164.192 175.882V174.46H170.276V175.882H164.192Z" fill="#37376D"/>
<path d="M90.392 223V211.966H86.072V210.4H96.494V211.966H92.174V223H90.392Z" fill="#9B9BB6"/>
<path d="M101.304 223.108C100.344 223.108 99.4921 222.898 98.7481 222.478C98.0041 222.058 97.4161 221.482 96.9841 220.75C96.5521 220.006 96.3361 219.166 96.3361 218.23C96.3361 217.282 96.5521 216.442 96.9841 215.71C97.4161 214.978 98.0041 214.408 98.7481 214C99.4921 213.58 100.344 213.37 101.304 213.37C102.252 213.37 103.098 213.58 103.842 214C104.598 214.408 105.186 214.978 105.606 215.71C106.038 216.43 106.254 217.27 106.254 218.23C106.254 219.178 106.038 220.018 105.606 220.75C105.186 221.482 104.598 222.058 103.842 222.478C103.098 222.898 102.252 223.108 101.304 223.108ZM101.304 221.596C101.916 221.596 102.462 221.458 102.942 221.182C103.434 220.906 103.818 220.516 104.094 220.012C104.37 219.496 104.508 218.902 104.508 218.23C104.508 217.546 104.37 216.958 104.094 216.466C103.818 215.962 103.434 215.572 102.942 215.296C102.462 215.02 101.916 214.882 101.304 214.882C100.692 214.882 100.146 215.02 99.6661 215.296C99.1861 215.572 98.8021 215.962 98.5141 216.466C98.2261 216.958 98.0821 217.546 98.0821 218.23C98.0821 218.902 98.2261 219.496 98.5141 220.012C98.8021 220.516 99.1861 220.906 99.6661 221.182C100.146 221.458 100.692 221.596 101.304 221.596Z" fill="#9B9BB6"/>
<path d="M117.636 223.108C116.664 223.108 115.794 222.898 115.026 222.478C114.27 222.058 113.676 221.482 113.244 220.75C112.812 220.018 112.596 219.178 112.596 218.23C112.596 217.282 112.812 216.442 113.244 215.71C113.676 214.978 114.27 214.408 115.026 214C115.794 213.58 116.664 213.37 117.636 213.37C118.5 213.37 119.268 213.544 119.94 213.892C120.624 214.228 121.152 214.732 121.524 215.404L120.21 216.25C119.898 215.782 119.514 215.44 119.058 215.224C118.614 214.996 118.134 214.882 117.618 214.882C116.994 214.882 116.436 215.02 115.944 215.296C115.452 215.572 115.062 215.962 114.774 216.466C114.486 216.958 114.342 217.546 114.342 218.23C114.342 218.914 114.486 219.508 114.774 220.012C115.062 220.516 115.452 220.906 115.944 221.182C116.436 221.458 116.994 221.596 117.618 221.596C118.134 221.596 118.614 221.488 119.058 221.272C119.514 221.044 119.898 220.696 120.21 220.228L121.524 221.056C121.152 221.716 120.624 222.226 119.94 222.586C119.268 222.934 118.5 223.108 117.636 223.108Z" fill="#9B9BB6"/>
<path d="M128.732 213.37C129.512 213.37 130.196 213.52 130.784 213.82C131.384 214.12 131.852 214.576 132.188 215.188C132.524 215.8 132.692 216.574 132.692 217.51V223H130.964V217.708C130.964 216.784 130.736 216.088 130.28 215.62C129.836 215.152 129.206 214.918 128.39 214.918C127.778 214.918 127.244 215.038 126.788 215.278C126.332 215.518 125.978 215.872 125.726 216.34C125.486 216.808 125.366 217.39 125.366 218.086V223H123.638V209.644H125.366V216.034L125.024 215.35C125.336 214.726 125.816 214.24 126.464 213.892C127.112 213.544 127.868 213.37 128.732 213.37Z" fill="#9B9BB6"/>
<path d="M139.976 223.108C139.016 223.108 138.164 222.898 137.42 222.478C136.676 222.058 136.088 221.482 135.656 220.75C135.224 220.006 135.008 219.166 135.008 218.23C135.008 217.282 135.224 216.442 135.656 215.71C136.088 214.978 136.676 214.408 137.42 214C138.164 213.58 139.016 213.37 139.976 213.37C140.924 213.37 141.77 213.58 142.514 214C143.27 214.408 143.858 214.978 144.278 215.71C144.71 216.43 144.926 217.27 144.926 218.23C144.926 219.178 144.71 220.018 144.278 220.75C143.858 221.482 143.27 222.058 142.514 222.478C141.77 222.898 140.924 223.108 139.976 223.108ZM139.976 221.596C140.588 221.596 141.134 221.458 141.614 221.182C142.106 220.906 142.49 220.516 142.766 220.012C143.042 219.496 143.18 218.902 143.18 218.23C143.18 217.546 143.042 216.958 142.766 216.466C142.49 215.962 142.106 215.572 141.614 215.296C141.134 215.02 140.588 214.882 139.976 214.882C139.364 214.882 138.818 215.02 138.338 215.296C137.858 215.572 137.474 215.962 137.186 216.466C136.898 216.958 136.754 217.546 136.754 218.23C136.754 218.902 136.898 219.496 137.186 220.012C137.474 220.516 137.858 220.906 138.338 221.182C138.818 221.458 139.364 221.596 139.976 221.596Z" fill="#9B9BB6"/>
<path d="M151.402 223.108C150.442 223.108 149.59 222.898 148.846 222.478C148.102 222.058 147.514 221.482 147.082 220.75C146.65 220.006 146.434 219.166 146.434 218.23C146.434 217.282 146.65 216.442 147.082 215.71C147.514 214.978 148.102 214.408 148.846 214C149.59 213.58 150.442 213.37 151.402 213.37C152.35 213.37 153.196 213.58 153.94 214C154.696 214.408 155.284 214.978 155.704 215.71C156.136 216.43 156.352 217.27 156.352 218.23C156.352 219.178 156.136 220.018 155.704 220.75C155.284 221.482 154.696 222.058 153.94 222.478C153.196 222.898 152.35 223.108 151.402 223.108ZM151.402 221.596C152.014 221.596 152.56 221.458 153.04 221.182C153.532 220.906 153.916 220.516 154.192 220.012C154.468 219.496 154.606 218.902 154.606 218.23C154.606 217.546 154.468 216.958 154.192 216.466C153.916 215.962 153.532 215.572 153.04 215.296C152.56 215.02 152.014 214.882 151.402 214.882C150.79 214.882 150.244 215.02 149.764 215.296C149.284 215.572 148.9 215.962 148.612 216.466C148.324 216.958 148.18 217.546 148.18 218.23C148.18 218.902 148.324 219.496 148.612 220.012C148.9 220.516 149.284 220.906 149.764 221.182C150.244 221.458 150.79 221.596 151.402 221.596Z" fill="#9B9BB6"/>
<path d="M161.478 223.108C160.686 223.108 159.93 223 159.21 222.784C158.502 222.568 157.944 222.304 157.536 221.992L158.256 220.624C158.664 220.9 159.168 221.134 159.768 221.326C160.368 221.518 160.98 221.614 161.604 221.614C162.408 221.614 162.984 221.5 163.332 221.272C163.692 221.044 163.872 220.726 163.872 220.318C163.872 220.018 163.764 219.784 163.548 219.616C163.332 219.448 163.044 219.322 162.684 219.238C162.336 219.154 161.946 219.082 161.514 219.022C161.082 218.95 160.65 218.866 160.218 218.77C159.786 218.662 159.39 218.518 159.03 218.338C158.67 218.146 158.382 217.888 158.166 217.564C157.95 217.228 157.842 216.784 157.842 216.232C157.842 215.656 158.004 215.152 158.328 214.72C158.652 214.288 159.108 213.958 159.696 213.73C160.296 213.49 161.004 213.37 161.82 213.37C162.444 213.37 163.074 213.448 163.71 213.604C164.358 213.748 164.886 213.958 165.294 214.234L164.556 215.602C164.124 215.314 163.674 215.116 163.206 215.008C162.738 214.9 162.27 214.846 161.802 214.846C161.046 214.846 160.482 214.972 160.11 215.224C159.738 215.464 159.552 215.776 159.552 216.16C159.552 216.484 159.66 216.736 159.876 216.916C160.104 217.084 160.392 217.216 160.74 217.312C161.1 217.408 161.496 217.492 161.928 217.564C162.36 217.624 162.792 217.708 163.224 217.816C163.656 217.912 164.046 218.05 164.394 218.23C164.754 218.41 165.042 218.662 165.258 218.986C165.486 219.31 165.6 219.742 165.6 220.282C165.6 220.858 165.432 221.356 165.096 221.776C164.76 222.196 164.286 222.526 163.674 222.766C163.062 222.994 162.33 223.108 161.478 223.108Z" fill="#9B9BB6"/>
<path d="M172.007 223.108C170.987 223.108 170.087 222.898 169.307 222.478C168.539 222.058 167.939 221.482 167.507 220.75C167.087 220.018 166.877 219.178 166.877 218.23C166.877 217.282 167.081 216.442 167.489 215.71C167.909 214.978 168.479 214.408 169.199 214C169.931 213.58 170.753 213.37 171.665 213.37C172.589 213.37 173.405 213.574 174.113 213.982C174.821 214.39 175.373 214.966 175.769 215.71C176.177 216.442 176.381 217.3 176.381 218.284C176.381 218.356 176.375 218.44 176.363 218.536C176.363 218.632 176.357 218.722 176.345 218.806H168.227V217.564H175.445L174.743 217.996C174.755 217.384 174.629 216.838 174.365 216.358C174.101 215.878 173.735 215.506 173.267 215.242C172.811 214.966 172.277 214.828 171.665 214.828C171.065 214.828 170.531 214.966 170.063 215.242C169.595 215.506 169.229 215.884 168.965 216.376C168.701 216.856 168.569 217.408 168.569 218.032V218.32C168.569 218.956 168.713 219.526 169.001 220.03C169.301 220.522 169.715 220.906 170.243 221.182C170.771 221.458 171.377 221.596 172.061 221.596C172.625 221.596 173.135 221.5 173.591 221.308C174.059 221.116 174.467 220.828 174.815 220.444L175.769 221.56C175.337 222.064 174.797 222.448 174.149 222.712C173.513 222.976 172.799 223.108 172.007 223.108Z" fill="#9B9BB6"/>
<path fill-rule="evenodd" clip-rule="evenodd" d="M337 238H86V237H337V238Z" fill="black"/>
<path d="M332.165 219.75L328 216H336.33L332.165 219.75Z" fill="#000C2C"/>
<path fill-rule="evenodd" clip-rule="evenodd" d="M630 329.5H87V328.5H630V329.5Z" fill="black"/>
<path d="M154.5 289H100.5C92.4919 289 86 295.492 86 303.5C86 311.508 92.4919 318 100.5 318H154.5C162.508 318 169 311.508 169 303.5C169 295.492 162.508 289 154.5 289Z" fill="#DDDDE6"/>
<path d="M154.5 314C160.299 314 165 309.299 165 303.5C165 297.701 160.299 293 154.5 293C148.701 293 144 297.701 144 303.5C144 309.299 148.701 314 154.5 314Z" fill="#AFAFBD"/>
<path fill-rule="evenodd" clip-rule="evenodd" d="M154.5 302.793L151.672 299.964L150.965 300.671L153.793 303.5L150.965 306.329L151.672 307.036L154.5 304.207L157.329 307.035L158.036 306.328L155.208 303.5L158.036 300.672L157.329 299.965L154.5 302.793Z" fill="#37376D"/>
<path d="M175 303.5C175 295.492 181.492 289 189.5 289H375.5C383.508 289 390 295.492 390 303.5C390 311.508 383.508 318 375.5 318H189.5C181.492 318 175 311.508 175 303.5Z" fill="#DDDDE6"/>
<path d="M374.5 314C380.299 314 385 309.299 385 303.5C385 297.701 380.299 293 374.5 293C368.701 293 364 297.701 364 303.5C364 309.299 368.701 314 374.5 314Z" fill="#AFAFBD"/>
<path fill-rule="evenodd" clip-rule="evenodd" d="M374.5 302.793L371.672 299.964L370.965 300.671L373.793 303.5L370.965 306.329L371.672 307.036L374.5 304.207L377.329 307.035L378.036 306.328L375.208 303.5L378.036 300.672L377.329 299.965L374.5 302.793Z" fill="#37376D"/>
<path d="M396 303.5C396 295.492 402.492 289 410.5 289H465.5C473.508 289 480 295.492 480 303.5C480 311.508 473.508 318 465.5 318H410.5C402.492 318 396 311.508 396 303.5Z" fill="#DDDDE6"/>
<path d="M465.5 314C471.299 314 476 309.299 476 303.5C476 297.701 471.299 293 465.5 293C459.701 293 455 297.701 455 303.5C455 309.299 459.701 314 465.5 314Z" fill="#AFAFBD"/>
<path fill-rule="evenodd" clip-rule="evenodd" d="M465.5 302.793L462.672 299.964L461.965 300.671L464.793 303.5L461.965 306.329L462.672 307.036L465.5 304.207L468.329 307.035L469.036 306.328L466.208 303.5L469.036 300.672L468.329 299.965L465.5 302.793Z" fill="#37376D"/>
<path d="M88.89 94V81.4H94.542C95.994 81.4 97.11 81.694 97.89 82.282C98.67 82.858 99.06 83.65 99.06 84.658C99.06 85.342 98.904 85.918 98.592 86.386C98.292 86.854 97.884 87.214 97.368 87.466C96.852 87.718 96.294 87.844 95.694 87.844L96.018 87.304C96.738 87.304 97.374 87.43 97.926 87.682C98.478 87.934 98.916 88.306 99.24 88.798C99.564 89.278 99.726 89.878 99.726 90.598C99.726 91.678 99.318 92.518 98.502 93.118C97.698 93.706 96.498 94 94.902 94H88.89ZM90.69 92.542H94.83C95.826 92.542 96.588 92.374 97.116 92.038C97.644 91.702 97.908 91.174 97.908 90.454C97.908 89.722 97.644 89.188 97.116 88.852C96.588 88.516 95.826 88.348 94.83 88.348H90.528V86.89H94.38C95.292 86.89 96 86.722 96.504 86.386C97.008 86.05 97.26 85.546 97.26 84.874C97.26 84.202 97.008 83.698 96.504 83.362C96 83.026 95.292 82.858 94.38 82.858H90.69V92.542Z" fill="#37376D"/>
<path d="M102.261 94V84.46H103.917V87.052L103.755 86.404C104.019 85.744 104.463 85.24 105.087 84.892C105.711 84.544 106.479 84.37 107.391 84.37V86.044C107.319 86.032 107.247 86.026 107.175 86.026C107.115 86.026 107.055 86.026 106.995 86.026C106.071 86.026 105.339 86.302 104.799 86.854C104.259 87.406 103.989 88.204 103.989 89.248V94H102.261Z" fill="#37376D"/>
<path d="M114.74 94V91.984L114.65 91.606V88.168C114.65 87.436 114.434 86.872 114.002 86.476C113.582 86.068 112.946 85.864 112.094 85.864C111.53 85.864 110.978 85.96 110.438 86.152C109.898 86.332 109.442 86.578 109.07 86.89L108.35 85.594C108.842 85.198 109.43 84.898 110.114 84.694C110.81 84.478 111.536 84.37 112.292 84.37C113.6 84.37 114.608 84.688 115.316 85.324C116.024 85.96 116.378 86.932 116.378 88.24V94H114.74ZM111.608 94.108C110.9 94.108 110.276 93.988 109.736 93.748C109.208 93.508 108.8 93.178 108.512 92.758C108.224 92.326 108.08 91.84 108.08 91.3C108.08 90.784 108.2 90.316 108.44 89.896C108.692 89.476 109.094 89.14 109.646 88.888C110.21 88.636 110.966 88.51 111.914 88.51H114.938V89.752H111.986C111.122 89.752 110.54 89.896 110.24 90.184C109.94 90.472 109.79 90.82 109.79 91.228C109.79 91.696 109.976 92.074 110.348 92.362C110.72 92.638 111.236 92.776 111.896 92.776C112.544 92.776 113.108 92.632 113.588 92.344C114.08 92.056 114.434 91.636 114.65 91.084L114.992 92.272C114.764 92.836 114.362 93.286 113.786 93.622C113.21 93.946 112.484 94.108 111.608 94.108Z" fill="#37376D"/>
<path d="M124.669 84.37C125.449 84.37 126.134 84.52 126.722 84.82C127.322 85.12 127.789 85.576 128.125 86.188C128.461 86.8 128.63 87.574 128.63 88.51V94H126.902V88.708C126.902 87.784 126.673 87.088 126.217 86.62C125.773 86.152 125.143 85.918 124.327 85.918C123.715 85.918 123.181 86.038 122.725 86.278C122.269 86.518 121.916 86.872 121.664 87.34C121.424 87.808 121.304 88.39 121.304 89.086V94H119.576V84.46H121.231V87.034L120.962 86.35C121.274 85.726 121.754 85.24 122.402 84.892C123.05 84.544 123.805 84.37 124.669 84.37Z" fill="#37376D"/>
<path d="M135.769 94.108C134.845 94.108 134.017 93.904 133.285 93.496C132.565 93.088 131.995 92.518 131.575 91.786C131.155 91.054 130.945 90.202 130.945 89.23C130.945 88.258 131.155 87.412 131.575 86.692C131.995 85.96 132.565 85.39 133.285 84.982C134.017 84.574 134.845 84.37 135.769 84.37C136.573 84.37 137.299 84.55 137.947 84.91C138.595 85.27 139.111 85.81 139.495 86.53C139.891 87.25 140.089 88.15 140.089 89.23C140.089 90.31 139.897 91.21 139.513 91.93C139.141 92.65 138.631 93.196 137.983 93.568C137.335 93.928 136.597 94.108 135.769 94.108ZM135.913 92.596C136.513 92.596 137.053 92.458 137.533 92.182C138.025 91.906 138.409 91.516 138.685 91.012C138.973 90.496 139.117 89.902 139.117 89.23C139.117 88.546 138.973 87.958 138.685 87.466C138.409 86.962 138.025 86.572 137.533 86.296C137.053 86.02 136.513 85.882 135.913 85.882C135.301 85.882 134.755 86.02 134.275 86.296C133.795 86.572 133.411 86.962 133.123 87.466C132.835 87.958 132.691 88.546 132.691 89.23C132.691 89.902 132.835 90.496 133.123 91.012C133.411 91.516 133.795 91.906 134.275 92.182C134.755 92.458 135.301 92.596 135.913 92.596ZM139.171 94V91.426L139.279 89.212L139.099 86.998V80.644H140.827V94H139.171Z" fill="#37376D"/>
<path d="M91.256 278L87.512 266.8H89.16L92.6 277.136H91.768L95.336 266.8H96.808L100.296 277.136H99.496L102.984 266.8H104.504L100.76 278H99.08L95.816 268.416H96.248L92.968 278H91.256Z" fill="#37376D"/>
<path d="M106.237 278V269.52H107.773V278H106.237ZM107.005 267.888C106.707 267.888 106.456 267.792 106.253 267.6C106.061 267.408 105.965 267.173 105.965 266.896C105.965 266.608 106.061 266.368 106.253 266.176C106.456 265.984 106.707 265.888 107.005 265.888C107.304 265.888 107.549 265.984 107.741 266.176C107.944 266.357 108.045 266.587 108.045 266.864C108.045 267.152 107.949 267.397 107.757 267.6C107.565 267.792 107.315 267.888 107.005 267.888Z" fill="#37376D"/>
<path d="M113.618 278.096C112.765 278.096 112.103 277.867 111.634 277.408C111.165 276.949 110.93 276.293 110.93 275.44V267.664H112.466V275.376C112.466 275.835 112.578 276.187 112.802 276.432C113.037 276.677 113.367 276.8 113.794 276.8C114.274 276.8 114.674 276.667 114.994 276.4L115.474 277.504C115.239 277.707 114.957 277.856 114.626 277.952C114.306 278.048 113.97 278.096 113.618 278.096ZM109.49 270.784V269.52H114.898V270.784H109.49Z" fill="#37376D"/>
<path d="M121.859 269.44C122.552 269.44 123.16 269.573 123.683 269.84C124.216 270.107 124.632 270.512 124.931 271.056C125.23 271.6 125.379 272.288 125.379 273.12V278H123.843V273.296C123.843 272.475 123.64 271.856 123.235 271.44C122.84 271.024 122.28 270.816 121.555 270.816C121.011 270.816 120.536 270.923 120.131 271.136C119.726 271.349 119.411 271.664 119.187 272.08C118.974 272.496 118.867 273.013 118.867 273.632V278H117.331V266.128H118.867V271.808L118.563 271.2C118.84 270.645 119.267 270.213 119.843 269.904C120.419 269.595 121.091 269.44 121.859 269.44Z" fill="#37376D"/>
<path d="M135.43 278.096C134.577 278.096 133.916 277.867 133.446 277.408C132.977 276.949 132.742 276.293 132.742 275.44V267.664H134.278V275.376C134.278 275.835 134.39 276.187 134.614 276.432C134.849 276.677 135.18 276.8 135.606 276.8C136.086 276.8 136.486 276.667 136.806 276.4L137.286 277.504C137.052 277.707 136.769 277.856 136.438 277.952C136.118 278.048 135.782 278.096 135.43 278.096ZM131.302 270.784V269.52H136.71V270.784H131.302Z" fill="#37376D"/>
<path d="M144.407 278V276.208L144.327 275.872V272.816C144.327 272.165 144.135 271.664 143.751 271.312C143.378 270.949 142.813 270.768 142.055 270.768C141.554 270.768 141.063 270.853 140.583 271.024C140.103 271.184 139.698 271.403 139.367 271.68L138.727 270.528C139.165 270.176 139.687 269.909 140.295 269.728C140.914 269.536 141.559 269.44 142.231 269.44C143.394 269.44 144.29 269.723 144.919 270.288C145.549 270.853 145.863 271.717 145.863 272.88V278H144.407ZM141.623 278.096C140.994 278.096 140.439 277.989 139.959 277.776C139.49 277.563 139.127 277.269 138.871 276.896C138.615 276.512 138.487 276.08 138.487 275.6C138.487 275.141 138.594 274.725 138.807 274.352C139.031 273.979 139.389 273.68 139.879 273.456C140.381 273.232 141.053 273.12 141.895 273.12H144.583V274.224H141.959C141.191 274.224 140.674 274.352 140.407 274.608C140.141 274.864 140.007 275.173 140.007 275.536C140.007 275.952 140.173 276.288 140.503 276.544C140.834 276.789 141.293 276.912 141.879 276.912C142.455 276.912 142.957 276.784 143.383 276.528C143.821 276.272 144.135 275.899 144.327 275.408L144.631 276.464C144.429 276.965 144.071 277.365 143.559 277.664C143.047 277.952 142.402 278.096 141.623 278.096Z" fill="#37376D"/>
<path d="M152.418 281.2C151.639 281.2 150.882 281.088 150.146 280.864C149.421 280.651 148.829 280.341 148.37 279.936L149.106 278.752C149.501 279.093 149.986 279.36 150.562 279.552C151.138 279.755 151.741 279.856 152.37 279.856C153.373 279.856 154.109 279.621 154.578 279.152C155.047 278.683 155.282 277.968 155.282 277.008V275.216L155.442 273.536L155.362 271.84V269.52H156.818V276.848C156.818 278.341 156.445 279.44 155.698 280.144C154.951 280.848 153.858 281.2 152.418 281.2ZM152.226 277.648C151.405 277.648 150.669 277.477 150.018 277.136C149.378 276.784 148.866 276.299 148.482 275.68C148.109 275.061 147.922 274.347 147.922 273.536C147.922 272.715 148.109 272 148.482 271.392C148.866 270.773 149.378 270.293 150.018 269.952C150.669 269.611 151.405 269.44 152.226 269.44C152.951 269.44 153.613 269.589 154.21 269.888C154.807 270.176 155.282 270.624 155.634 271.232C155.997 271.84 156.178 272.608 156.178 273.536C156.178 274.453 155.997 275.216 155.634 275.824C155.282 276.432 154.807 276.891 154.21 277.2C153.613 277.499 152.951 277.648 152.226 277.648ZM152.402 276.304C152.967 276.304 153.469 276.187 153.906 275.952C154.343 275.717 154.685 275.392 154.93 274.976C155.186 274.56 155.314 274.08 155.314 273.536C155.314 272.992 155.186 272.512 154.93 272.096C154.685 271.68 154.343 271.36 153.906 271.136C153.469 270.901 152.967 270.784 152.402 270.784C151.837 270.784 151.33 270.901 150.882 271.136C150.445 271.36 150.098 271.68 149.842 272.096C149.597 272.512 149.474 272.992 149.474 273.536C149.474 274.08 149.597 274.56 149.842 274.976C150.098 275.392 150.445 275.717 150.882 275.952C151.33 276.187 151.837 276.304 152.402 276.304Z" fill="#37376D"/>
<path d="M97.89 310V297.4H99.366L107.7 307.75H106.926V297.4H108.726V310H107.25L98.916 299.65H99.69V310H97.89Z" fill="#37376D"/>
<path d="M116.493 310.108C115.473 310.108 114.573 309.898 113.793 309.478C113.025 309.058 112.425 308.482 111.993 307.75C111.573 307.018 111.363 306.178 111.363 305.23C111.363 304.282 111.567 303.442 111.975 302.71C112.395 301.978 112.965 301.408 113.685 301C114.417 300.58 115.239 300.37 116.151 300.37C117.075 300.37 117.891 300.574 118.599 300.982C119.307 301.39 119.859 301.966 120.255 302.71C120.663 303.442 120.867 304.3 120.867 305.284C120.867 305.356 120.861 305.44 120.849 305.536C120.849 305.632 120.843 305.722 120.831 305.806H112.713V304.564H119.931L119.229 304.996C119.241 304.384 119.115 303.838 118.851 303.358C118.587 302.878 118.221 302.506 117.753 302.242C117.297 301.966 116.763 301.828 116.151 301.828C115.551 301.828 115.017 301.966 114.549 302.242C114.081 302.506 113.715 302.884 113.451 303.376C113.187 303.856 113.055 304.408 113.055 305.032V305.32C113.055 305.956 113.199 306.526 113.487 307.03C113.787 307.522 114.201 307.906 114.729 308.182C115.257 308.458 115.863 308.596 116.547 308.596C117.111 308.596 117.621 308.5 118.077 308.308C118.545 308.116 118.953 307.828 119.301 307.444L120.255 308.56C119.823 309.064 119.283 309.448 118.635 309.712C117.999 309.976 117.285 310.108 116.493 310.108Z" fill="#37376D"/>
<path d="M125.107 310L121.561 300.46H123.199L126.349 309.1H125.575L128.851 300.46H130.309L133.513 309.1H132.757L135.979 300.46H137.527L133.963 310H132.307L129.301 302.116H129.805L126.763 310H125.107Z" fill="#37376D"/>
<path d="M191.89 310V297.4H196.804C197.908 297.4 198.85 297.574 199.63 297.922C200.41 298.27 201.01 298.774 201.43 299.434C201.85 300.094 202.06 300.88 202.06 301.792C202.06 302.704 201.85 303.49 201.43 304.15C201.01 304.798 200.41 305.302 199.63 305.662C198.85 306.01 197.908 306.184 196.804 306.184H192.88L193.69 305.338V310H191.89ZM193.69 305.518L192.88 304.618H196.75C197.902 304.618 198.772 304.372 199.36 303.88C199.96 303.388 200.26 302.692 200.26 301.792C200.26 300.892 199.96 300.196 199.36 299.704C198.772 299.212 197.902 298.966 196.75 298.966H192.88L193.69 298.066V305.518Z" fill="#37376D"/>
<path d="M204.277 310V300.46H205.933V303.052L205.771 302.404C206.035 301.744 206.479 301.24 207.103 300.892C207.727 300.544 208.495 300.37 209.407 300.37V302.044C209.335 302.032 209.263 302.026 209.191 302.026C209.131 302.026 209.071 302.026 209.011 302.026C208.087 302.026 207.355 302.302 206.815 302.854C206.275 303.406 206.005 304.204 206.005 305.248V310H204.277Z" fill="#37376D"/>
<path d="M215.535 310.108C214.575 310.108 213.723 309.898 212.979 309.478C212.235 309.058 211.647 308.482 211.215 307.75C210.783 307.006 210.567 306.166 210.567 305.23C210.567 304.282 210.783 303.442 211.215 302.71C211.647 301.978 212.235 301.408 212.979 301C213.723 300.58 214.575 300.37 215.535 300.37C216.483 300.37 217.329 300.58 218.073 301C218.829 301.408 219.417 301.978 219.837 302.71C220.269 303.43 220.485 304.27 220.485 305.23C220.485 306.178 220.269 307.018 219.837 307.75C219.417 308.482 218.829 309.058 218.073 309.478C217.329 309.898 216.483 310.108 215.535 310.108ZM215.535 308.596C216.147 308.596 216.693 308.458 217.173 308.182C217.665 307.906 218.049 307.516 218.325 307.012C218.601 306.496 218.739 305.902 218.739 305.23C218.739 304.546 218.601 303.958 218.325 303.466C218.049 302.962 217.665 302.572 217.173 302.296C216.693 302.02 216.147 301.882 215.535 301.882C214.923 301.882 214.377 302.02 213.897 302.296C213.417 302.572 213.033 302.962 212.745 303.466C212.457 303.958 212.313 304.546 212.313 305.23C212.313 305.902 212.457 306.496 212.745 307.012C213.033 307.516 213.417 307.906 213.897 308.182C214.377 308.458 214.923 308.596 215.535 308.596Z" fill="#37376D"/>
<path d="M226.816 310.108C225.892 310.108 225.064 309.904 224.332 309.496C223.612 309.088 223.042 308.518 222.622 307.786C222.202 307.054 221.992 306.202 221.992 305.23C221.992 304.258 222.202 303.412 222.622 302.692C223.042 301.96 223.612 301.39 224.332 300.982C225.064 300.574 225.892 300.37 226.816 300.37C227.62 300.37 228.346 300.55 228.994 300.91C229.642 301.27 230.158 301.81 230.542 302.53C230.938 303.25 231.136 304.15 231.136 305.23C231.136 306.31 230.944 307.21 230.56 307.93C230.188 308.65 229.678 309.196 229.03 309.568C228.382 309.928 227.644 310.108 226.816 310.108ZM226.96 308.596C227.56 308.596 228.1 308.458 228.58 308.182C229.072 307.906 229.456 307.516 229.732 307.012C230.02 306.496 230.164 305.902 230.164 305.23C230.164 304.546 230.02 303.958 229.732 303.466C229.456 302.962 229.072 302.572 228.58 302.296C228.1 302.02 227.56 301.882 226.96 301.882C226.348 301.882 225.802 302.02 225.322 302.296C224.842 302.572 224.458 302.962 224.17 303.466C223.882 303.958 223.738 304.546 223.738 305.23C223.738 305.902 223.882 306.496 224.17 307.012C224.458 307.516 224.842 307.906 225.322 308.182C225.802 308.458 226.348 308.596 226.96 308.596ZM230.218 310V307.426L230.326 305.212L230.146 302.998V296.644H231.874V310H230.218Z" fill="#37376D"/>
<path d="M239.158 310.108C238.342 310.108 237.622 309.958 236.998 309.658C236.386 309.358 235.906 308.902 235.558 308.29C235.222 307.666 235.054 306.886 235.054 305.95V300.46H236.782V305.752C236.782 306.688 237.004 307.39 237.448 307.858C237.904 308.326 238.54 308.56 239.356 308.56C239.956 308.56 240.478 308.44 240.922 308.2C241.366 307.948 241.708 307.588 241.948 307.12C242.188 306.64 242.308 306.064 242.308 305.392V300.46H244.036V310H242.398V307.426L242.668 308.11C242.356 308.746 241.888 309.238 241.264 309.586C240.64 309.934 239.938 310.108 239.158 310.108Z" fill="#37376D"/>
<path d="M251.484 310.108C250.512 310.108 249.642 309.898 248.874 309.478C248.118 309.058 247.524 308.482 247.092 307.75C246.66 307.018 246.444 306.178 246.444 305.23C246.444 304.282 246.66 303.442 247.092 302.71C247.524 301.978 248.118 301.408 248.874 301C249.642 300.58 250.512 300.37 251.484 300.37C252.348 300.37 253.116 300.544 253.788 300.892C254.472 301.228 255 301.732 255.372 302.404L254.058 303.25C253.746 302.782 253.362 302.44 252.906 302.224C252.462 301.996 251.982 301.882 251.466 301.882C250.842 301.882 250.284 302.02 249.792 302.296C249.3 302.572 248.91 302.962 248.622 303.466C248.334 303.958 248.19 304.546 248.19 305.23C248.19 305.914 248.334 306.508 248.622 307.012C248.91 307.516 249.3 307.906 249.792 308.182C250.284 308.458 250.842 308.596 251.466 308.596C251.982 308.596 252.462 308.488 252.906 308.272C253.362 308.044 253.746 307.696 254.058 307.228L255.372 308.056C255 308.716 254.472 309.226 253.788 309.586C253.116 309.934 252.348 310.108 251.484 310.108Z" fill="#37376D"/>
<path d="M261.008 310.108C260.048 310.108 259.304 309.85 258.776 309.334C258.248 308.818 257.984 308.08 257.984 307.12V298.372H259.712V307.048C259.712 307.564 259.838 307.96 260.09 308.236C260.354 308.512 260.726 308.65 261.206 308.65C261.746 308.65 262.196 308.5 262.556 308.2L263.096 309.442C262.832 309.67 262.514 309.838 262.142 309.946C261.782 310.054 261.404 310.108 261.008 310.108ZM256.364 301.882V300.46H262.448V301.882H256.364Z" fill="#37376D"/>
<path d="M270.271 310V297.4H275.923C277.375 297.4 278.491 297.694 279.271 298.282C280.051 298.858 280.441 299.65 280.441 300.658C280.441 301.342 280.285 301.918 279.973 302.386C279.673 302.854 279.265 303.214 278.749 303.466C278.233 303.718 277.675 303.844 277.075 303.844L277.399 303.304C278.119 303.304 278.755 303.43 279.307 303.682C279.859 303.934 280.297 304.306 280.621 304.798C280.945 305.278 281.107 305.878 281.107 306.598C281.107 307.678 280.699 308.518 279.883 309.118C279.079 309.706 277.879 310 276.283 310H270.271ZM272.071 308.542H276.211C277.207 308.542 277.969 308.374 278.497 308.038C279.025 307.702 279.289 307.174 279.289 306.454C279.289 305.722 279.025 305.188 278.497 304.852C277.969 304.516 277.207 304.348 276.211 304.348H271.909V302.89H275.761C276.673 302.89 277.381 302.722 277.885 302.386C278.389 302.05 278.641 301.546 278.641 300.874C278.641 300.202 278.389 299.698 277.885 299.362C277.381 299.026 276.673 298.858 275.761 298.858H272.071V308.542Z" fill="#37376D"/>
<path d="M287.89 310.108C286.87 310.108 285.97 309.898 285.19 309.478C284.422 309.058 283.822 308.482 283.39 307.75C282.97 307.018 282.76 306.178 282.76 305.23C282.76 304.282 282.964 303.442 283.372 302.71C283.792 301.978 284.362 301.408 285.082 301C285.814 300.58 286.636 300.37 287.548 300.37C288.472 300.37 289.288 300.574 289.996 300.982C290.704 301.39 291.256 301.966 291.652 302.71C292.06 303.442 292.264 304.3 292.264 305.284C292.264 305.356 292.258 305.44 292.246 305.536C292.246 305.632 292.24 305.722 292.228 305.806H284.11V304.564H291.328L290.626 304.996C290.638 304.384 290.512 303.838 290.248 303.358C289.984 302.878 289.618 302.506 289.15 302.242C288.694 301.966 288.16 301.828 287.548 301.828C286.948 301.828 286.414 301.966 285.946 302.242C285.478 302.506 285.112 302.884 284.848 303.376C284.584 303.856 284.452 304.408 284.452 305.032V305.32C284.452 305.956 284.596 306.526 284.884 307.03C285.184 307.522 285.598 307.906 286.126 308.182C286.654 308.458 287.26 308.596 287.944 308.596C288.508 308.596 289.018 308.5 289.474 308.308C289.942 308.116 290.35 307.828 290.698 307.444L291.652 308.56C291.22 309.064 290.68 309.448 290.032 309.712C289.396 309.976 288.682 310.108 287.89 310.108Z" fill="#37376D"/>
<path d="M297.399 310.108C296.607 310.108 295.851 310 295.131 309.784C294.423 309.568 293.865 309.304 293.457 308.992L294.177 307.624C294.585 307.9 295.089 308.134 295.689 308.326C296.289 308.518 296.901 308.614 297.525 308.614C298.329 308.614 298.905 308.5 299.253 308.272C299.613 308.044 299.793 307.726 299.793 307.318C299.793 307.018 299.685 306.784 299.469 306.616C299.253 306.448 298.965 306.322 298.605 306.238C298.257 306.154 297.867 306.082 297.435 306.022C297.003 305.95 296.571 305.866 296.139 305.77C295.707 305.662 295.311 305.518 294.951 305.338C294.591 305.146 294.303 304.888 294.087 304.564C293.871 304.228 293.763 303.784 293.763 303.232C293.763 302.656 293.925 302.152 294.249 301.72C294.573 301.288 295.029 300.958 295.617 300.73C296.217 300.49 296.925 300.37 297.741 300.37C298.365 300.37 298.995 300.448 299.631 300.604C300.279 300.748 300.807 300.958 301.215 301.234L300.477 302.602C300.045 302.314 299.595 302.116 299.127 302.008C298.659 301.9 298.191 301.846 297.723 301.846C296.967 301.846 296.403 301.972 296.031 302.224C295.659 302.464 295.473 302.776 295.473 303.16C295.473 303.484 295.581 303.736 295.797 303.916C296.025 304.084 296.313 304.216 296.661 304.312C297.021 304.408 297.417 304.492 297.849 304.564C298.281 304.624 298.713 304.708 299.145 304.816C299.577 304.912 299.967 305.05 300.315 305.23C300.675 305.41 300.963 305.662 301.179 305.986C301.407 306.31 301.521 306.742 301.521 307.282C301.521 307.858 301.353 308.356 301.017 308.776C300.681 309.196 300.207 309.526 299.595 309.766C298.983 309.994 298.251 310.108 297.399 310.108Z" fill="#37376D"/>
<path d="M306.957 310.108C305.997 310.108 305.253 309.85 304.725 309.334C304.197 308.818 303.933 308.08 303.933 307.12V298.372H305.661V307.048C305.661 307.564 305.787 307.96 306.039 308.236C306.303 308.512 306.675 308.65 307.155 308.65C307.695 308.65 308.145 308.5 308.505 308.2L309.045 309.442C308.781 309.67 308.463 309.838 308.091 309.946C307.731 310.054 307.353 310.108 306.957 310.108ZM302.313 301.882V300.46H308.397V301.882H302.313Z" fill="#37376D"/>
<path d="M313.87 310.108C313.078 310.108 312.322 310 311.602 309.784C310.894 309.568 310.336 309.304 309.928 308.992L310.648 307.624C311.056 307.9 311.56 308.134 312.16 308.326C312.76 308.518 313.372 308.614 313.996 308.614C314.8 308.614 315.376 308.5 315.724 308.272C316.084 308.044 316.264 307.726 316.264 307.318C316.264 307.018 316.156 306.784 315.94 306.616C315.724 306.448 315.436 306.322 315.076 306.238C314.728 306.154 314.338 306.082 313.906 306.022C313.474 305.95 313.042 305.866 312.61 305.77C312.178 305.662 311.782 305.518 311.422 305.338C311.062 305.146 310.774 304.888 310.558 304.564C310.342 304.228 310.234 303.784 310.234 303.232C310.234 302.656 310.396 302.152 310.72 301.72C311.044 301.288 311.5 300.958 312.088 300.73C312.688 300.49 313.396 300.37 314.212 300.37C314.836 300.37 315.466 300.448 316.102 300.604C316.75 300.748 317.278 300.958 317.686 301.234L316.948 302.602C316.516 302.314 316.066 302.116 315.598 302.008C315.13 301.9 314.662 301.846 314.194 301.846C313.438 301.846 312.874 301.972 312.502 302.224C312.13 302.464 311.944 302.776 311.944 303.16C311.944 303.484 312.052 303.736 312.268 303.916C312.496 304.084 312.784 304.216 313.132 304.312C313.492 304.408 313.888 304.492 314.32 304.564C314.752 304.624 315.184 304.708 315.616 304.816C316.048 304.912 316.438 305.05 316.786 305.23C317.146 305.41 317.434 305.662 317.65 305.986C317.878 306.31 317.992 306.742 317.992 307.282C317.992 307.858 317.824 308.356 317.488 308.776C317.152 309.196 316.678 309.526 316.066 309.766C315.454 309.994 314.722 310.108 313.87 310.108Z" fill="#37376D"/>
<path d="M324.4 310.108C323.38 310.108 322.48 309.898 321.7 309.478C320.932 309.058 320.332 308.482 319.9 307.75C319.48 307.018 319.27 306.178 319.27 305.23C319.27 304.282 319.474 303.442 319.882 302.71C320.302 301.978 320.872 301.408 321.592 301C322.324 300.58 323.146 300.37 324.058 300.37C324.982 300.37 325.798 300.574 326.506 300.982C327.214 301.39 327.766 301.966 328.162 302.71C328.57 303.442 328.774 304.3 328.774 305.284C328.774 305.356 328.768 305.44 328.756 305.536C328.756 305.632 328.75 305.722 328.738 305.806H320.62V304.564H327.838L327.136 304.996C327.148 304.384 327.022 303.838 326.758 303.358C326.494 302.878 326.128 302.506 325.66 302.242C325.204 301.966 324.67 301.828 324.058 301.828C323.458 301.828 322.924 301.966 322.456 302.242C321.988 302.506 321.622 302.884 321.358 303.376C321.094 303.856 320.962 304.408 320.962 305.032V305.32C320.962 305.956 321.106 306.526 321.394 307.03C321.694 307.522 322.108 307.906 322.636 308.182C323.164 308.458 323.77 308.596 324.454 308.596C325.018 308.596 325.528 308.5 325.984 308.308C326.452 308.116 326.86 307.828 327.208 307.444L328.162 308.56C327.73 309.064 327.19 309.448 326.542 309.712C325.906 309.976 325.192 310.108 324.4 310.108Z" fill="#37376D"/>
<path d="M331.173 310V296.644H332.901V310H331.173Z" fill="#37376D"/>
<path d="M336.201 310V296.644H337.929V310H336.201Z" fill="#37376D"/>
<path d="M345.476 310.108C344.456 310.108 343.556 309.898 342.776 309.478C342.008 309.058 341.408 308.482 340.976 307.75C340.556 307.018 340.346 306.178 340.346 305.23C340.346 304.282 340.55 303.442 340.958 302.71C341.378 301.978 341.948 301.408 342.668 301C343.4 300.58 344.222 300.37 345.134 300.37C346.058 300.37 346.874 300.574 347.582 300.982C348.29 301.39 348.842 301.966 349.238 302.71C349.646 303.442 349.85 304.3 349.85 305.284C349.85 305.356 349.844 305.44 349.832 305.536C349.832 305.632 349.826 305.722 349.814 305.806H341.696V304.564H348.914L348.212 304.996C348.224 304.384 348.098 303.838 347.834 303.358C347.57 302.878 347.204 302.506 346.736 302.242C346.28 301.966 345.746 301.828 345.134 301.828C344.534 301.828 344 301.966 343.532 302.242C343.064 302.506 342.698 302.884 342.434 303.376C342.17 303.856 342.038 304.408 342.038 305.032V305.32C342.038 305.956 342.182 306.526 342.47 307.03C342.77 307.522 343.184 307.906 343.712 308.182C344.24 308.458 344.846 308.596 345.53 308.596C346.094 308.596 346.604 308.5 347.06 308.308C347.528 308.116 347.936 307.828 348.284 307.444L349.238 308.56C348.806 309.064 348.266 309.448 347.618 309.712C346.982 309.976 346.268 310.108 345.476 310.108Z" fill="#37376D"/>
<path d="M352.249 310V300.46H353.905V303.052L353.743 302.404C354.007 301.744 354.451 301.24 355.075 300.892C355.699 300.544 356.467 300.37 357.379 300.37V302.044C357.307 302.032 357.235 302.026 357.163 302.026C357.103 302.026 357.043 302.026 356.983 302.026C356.059 302.026 355.327 302.302 354.787 302.854C354.247 303.406 353.977 304.204 353.977 305.248V310H352.249Z" fill="#37376D"/>
<path d="M413.562 310.144C412.602 310.144 411.684 310 410.808 309.712C409.932 309.412 409.242 309.028 408.738 308.56L409.404 307.156C409.884 307.576 410.496 307.924 411.24 308.2C411.984 308.476 412.758 308.614 413.562 308.614C414.294 308.614 414.888 308.53 415.344 308.362C415.8 308.194 416.136 307.966 416.352 307.678C416.568 307.378 416.676 307.042 416.676 306.67C416.676 306.238 416.532 305.89 416.244 305.626C415.968 305.362 415.602 305.152 415.146 304.996C414.702 304.828 414.21 304.684 413.67 304.564C413.13 304.444 412.584 304.306 412.032 304.15C411.492 303.982 410.994 303.772 410.538 303.52C410.094 303.268 409.734 302.932 409.458 302.512C409.182 302.08 409.044 301.528 409.044 300.856C409.044 300.208 409.212 299.614 409.548 299.074C409.896 298.522 410.424 298.084 411.132 297.76C411.852 297.424 412.764 297.256 413.868 297.256C414.6 297.256 415.326 297.352 416.046 297.544C416.766 297.736 417.39 298.012 417.918 298.372L417.324 299.812C416.784 299.452 416.214 299.194 415.614 299.038C415.014 298.87 414.432 298.786 413.868 298.786C413.16 298.786 412.578 298.876 412.122 299.056C411.666 299.236 411.33 299.476 411.114 299.776C410.91 300.076 410.808 300.412 410.808 300.784C410.808 301.228 410.946 301.582 411.222 301.846C411.51 302.11 411.876 302.32 412.32 302.476C412.776 302.632 413.274 302.776 413.814 302.908C414.354 303.028 414.894 303.166 415.434 303.322C415.986 303.478 416.484 303.682 416.928 303.934C417.384 304.186 417.75 304.522 418.026 304.942C418.302 305.362 418.44 305.902 418.44 306.562C418.44 307.198 418.266 307.792 417.918 308.344C417.57 308.884 417.03 309.322 416.298 309.658C415.578 309.982 414.666 310.144 413.562 310.144Z" fill="#37376D"/>
<path d="M426.74 310V307.984L426.65 307.606V304.168C426.65 303.436 426.434 302.872 426.002 302.476C425.582 302.068 424.946 301.864 424.094 301.864C423.53 301.864 422.978 301.96 422.438 302.152C421.898 302.332 421.442 302.578 421.07 302.89L420.35 301.594C420.842 301.198 421.43 300.898 422.114 300.694C422.81 300.478 423.536 300.37 424.292 300.37C425.6 300.37 426.608 300.688 427.316 301.324C428.024 301.96 428.378 302.932 428.378 304.24V310H426.74ZM423.608 310.108C422.9 310.108 422.276 309.988 421.736 309.748C421.208 309.508 420.8 309.178 420.512 308.758C420.224 308.326 420.08 307.84 420.08 307.3C420.08 306.784 420.2 306.316 420.44 305.896C420.692 305.476 421.094 305.14 421.646 304.888C422.21 304.636 422.966 304.51 423.914 304.51H426.938V305.752H423.986C423.122 305.752 422.54 305.896 422.24 306.184C421.94 306.472 421.79 306.82 421.79 307.228C421.79 307.696 421.976 308.074 422.348 308.362C422.72 308.638 423.236 308.776 423.896 308.776C424.544 308.776 425.108 308.632 425.588 308.344C426.08 308.056 426.434 307.636 426.65 307.084L426.992 308.272C426.764 308.836 426.362 309.286 425.786 309.622C425.21 309.946 424.484 310.108 423.608 310.108Z" fill="#37376D"/>
<path d="M431.576 310V296.644H433.304V310H431.576Z" fill="#37376D"/>
<path d="M440.851 310.108C439.831 310.108 438.931 309.898 438.151 309.478C437.383 309.058 436.783 308.482 436.351 307.75C435.931 307.018 435.721 306.178 435.721 305.23C435.721 304.282 435.925 303.442 436.333 302.71C436.753 301.978 437.323 301.408 438.043 301C438.775 300.58 439.597 300.37 440.509 300.37C441.433 300.37 442.249 300.574 442.957 300.982C443.665 301.39 444.217 301.966 444.613 302.71C445.021 303.442 445.225 304.3 445.225 305.284C445.225 305.356 445.219 305.44 445.207 305.536C445.207 305.632 445.201 305.722 445.189 305.806H437.071V304.564H444.289L443.587 304.996C443.599 304.384 443.473 303.838 443.209 303.358C442.945 302.878 442.579 302.506 442.111 302.242C441.655 301.966 441.121 301.828 440.509 301.828C439.909 301.828 439.375 301.966 438.907 302.242C438.439 302.506 438.073 302.884 437.809 303.376C437.545 303.856 437.413 304.408 437.413 305.032V305.32C437.413 305.956 437.557 306.526 437.845 307.03C438.145 307.522 438.559 307.906 439.087 308.182C439.615 308.458 440.221 308.596 440.905 308.596C441.469 308.596 441.979 308.5 442.435 308.308C442.903 308.116 443.311 307.828 443.659 307.444L444.613 308.56C444.181 309.064 443.641 309.448 442.993 309.712C442.357 309.976 441.643 310.108 440.851 310.108Z" fill="#37376D"/>
<path d="M92.392 129V117.966H88.072V116.4H98.494V117.966H94.174V129H92.392Z" fill="#9B9BB6"/>
<path d="M103.304 129.108C102.344 129.108 101.492 128.898 100.748 128.478C100.004 128.058 99.4161 127.482 98.9841 126.75C98.5521 126.006 98.3361 125.166 98.3361 124.23C98.3361 123.282 98.5521 122.442 98.9841 121.71C99.4161 120.978 100.004 120.408 100.748 120C101.492 119.58 102.344 119.37 103.304 119.37C104.252 119.37 105.098 119.58 105.842 120C106.598 120.408 107.186 120.978 107.606 121.71C108.038 122.43 108.254 123.27 108.254 124.23C108.254 125.178 108.038 126.018 107.606 126.75C107.186 127.482 106.598 128.058 105.842 128.478C105.098 128.898 104.252 129.108 103.304 129.108ZM103.304 127.596C103.916 127.596 104.462 127.458 104.942 127.182C105.434 126.906 105.818 126.516 106.094 126.012C106.37 125.496 106.508 124.902 106.508 124.23C106.508 123.546 106.37 122.958 106.094 122.466C105.818 121.962 105.434 121.572 104.942 121.296C104.462 121.02 103.916 120.882 103.304 120.882C102.692 120.882 102.146 121.02 101.666 121.296C101.186 121.572 100.802 121.962 100.514 122.466C100.226 122.958 100.082 123.546 100.082 124.23C100.082 124.902 100.226 125.496 100.514 126.012C100.802 126.516 101.186 126.906 101.666 127.182C102.146 127.458 102.692 127.596 103.304 127.596Z" fill="#9B9BB6"/>
<path d="M119.636 129.108C118.664 129.108 117.794 128.898 117.026 128.478C116.27 128.058 115.676 127.482 115.244 126.75C114.812 126.018 114.596 125.178 114.596 124.23C114.596 123.282 114.812 122.442 115.244 121.71C115.676 120.978 116.27 120.408 117.026 120C117.794 119.58 118.664 119.37 119.636 119.37C120.5 119.37 121.268 119.544 121.94 119.892C122.624 120.228 123.152 120.732 123.524 121.404L122.21 122.25C121.898 121.782 121.514 121.44 121.058 121.224C120.614 120.996 120.134 120.882 119.618 120.882C118.994 120.882 118.436 121.02 117.944 121.296C117.452 121.572 117.062 121.962 116.774 122.466C116.486 122.958 116.342 123.546 116.342 124.23C116.342 124.914 116.486 125.508 116.774 126.012C117.062 126.516 117.452 126.906 117.944 127.182C118.436 127.458 118.994 127.596 119.618 127.596C120.134 127.596 120.614 127.488 121.058 127.272C121.514 127.044 121.898 126.696 122.21 126.228L123.524 127.056C123.152 127.716 122.624 128.226 121.94 128.586C121.268 128.934 120.5 129.108 119.636 129.108Z" fill="#9B9BB6"/>
<path d="M130.732 119.37C131.512 119.37 132.196 119.52 132.784 119.82C133.384 120.12 133.852 120.576 134.188 121.188C134.524 121.8 134.692 122.574 134.692 123.51V129H132.964V123.708C132.964 122.784 132.736 122.088 132.28 121.62C131.836 121.152 131.206 120.918 130.39 120.918C129.778 120.918 129.244 121.038 128.788 121.278C128.332 121.518 127.978 121.872 127.726 122.34C127.486 122.808 127.366 123.39 127.366 124.086V129H125.638V115.644H127.366V122.034L127.024 121.35C127.336 120.726 127.816 120.24 128.464 119.892C129.112 119.544 129.868 119.37 130.732 119.37Z" fill="#9B9BB6"/>
<path d="M141.976 129.108C141.016 129.108 140.164 128.898 139.42 128.478C138.676 128.058 138.088 127.482 137.656 126.75C137.224 126.006 137.008 125.166 137.008 124.23C137.008 123.282 137.224 122.442 137.656 121.71C138.088 120.978 138.676 120.408 139.42 120C140.164 119.58 141.016 119.37 141.976 119.37C142.924 119.37 143.77 119.58 144.514 120C145.27 120.408 145.858 120.978 146.278 121.71C146.71 122.43 146.926 123.27 146.926 124.23C146.926 125.178 146.71 126.018 146.278 126.75C145.858 127.482 145.27 128.058 144.514 128.478C143.77 128.898 142.924 129.108 141.976 129.108ZM141.976 127.596C142.588 127.596 143.134 127.458 143.614 127.182C144.106 126.906 144.49 126.516 144.766 126.012C145.042 125.496 145.18 124.902 145.18 124.23C145.18 123.546 145.042 122.958 144.766 122.466C144.49 121.962 144.106 121.572 143.614 121.296C143.134 121.02 142.588 120.882 141.976 120.882C141.364 120.882 140.818 121.02 140.338 121.296C139.858 121.572 139.474 121.962 139.186 122.466C138.898 122.958 138.754 123.546 138.754 124.23C138.754 124.902 138.898 125.496 139.186 126.012C139.474 126.516 139.858 126.906 140.338 127.182C140.818 127.458 141.364 127.596 141.976 127.596Z" fill="#9B9BB6"/>
<path d="M153.402 129.108C152.442 129.108 151.59 128.898 150.846 128.478C150.102 128.058 149.514 127.482 149.082 126.75C148.65 126.006 148.434 125.166 148.434 124.23C148.434 123.282 148.65 122.442 149.082 121.71C149.514 120.978 150.102 120.408 150.846 120C151.59 119.58 152.442 119.37 153.402 119.37C154.35 119.37 155.196 119.58 155.94 120C156.696 120.408 157.284 120.978 157.704 121.71C158.136 122.43 158.352 123.27 158.352 124.23C158.352 125.178 158.136 126.018 157.704 126.75C157.284 127.482 156.696 128.058 155.94 128.478C155.196 128.898 154.35 129.108 153.402 129.108ZM153.402 127.596C154.014 127.596 154.56 127.458 155.04 127.182C155.532 126.906 155.916 126.516 156.192 126.012C156.468 125.496 156.606 124.902 156.606 124.23C156.606 123.546 156.468 122.958 156.192 122.466C155.916 121.962 155.532 121.572 155.04 121.296C154.56 121.02 154.014 120.882 153.402 120.882C152.79 120.882 152.244 121.02 151.764 121.296C151.284 121.572 150.9 121.962 150.612 122.466C150.324 122.958 150.18 123.546 150.18 124.23C150.18 124.902 150.324 125.496 150.612 126.012C150.9 126.516 151.284 126.906 151.764 127.182C152.244 127.458 152.79 127.596 153.402 127.596Z" fill="#9B9BB6"/>
<path d="M163.478 129.108C162.686 129.108 161.93 129 161.21 128.784C160.502 128.568 159.944 128.304 159.536 127.992L160.256 126.624C160.664 126.9 161.168 127.134 161.768 127.326C162.368 127.518 162.98 127.614 163.604 127.614C164.408 127.614 164.984 127.5 165.332 127.272C165.692 127.044 165.872 126.726 165.872 126.318C165.872 126.018 165.764 125.784 165.548 125.616C165.332 125.448 165.044 125.322 164.684 125.238C164.336 125.154 163.946 125.082 163.514 125.022C163.082 124.95 162.65 124.866 162.218 124.77C161.786 124.662 161.39 124.518 161.03 124.338C160.67 124.146 160.382 123.888 160.166 123.564C159.95 123.228 159.842 122.784 159.842 122.232C159.842 121.656 160.004 121.152 160.328 120.72C160.652 120.288 161.108 119.958 161.696 119.73C162.296 119.49 163.004 119.37 163.82 119.37C164.444 119.37 165.074 119.448 165.71 119.604C166.358 119.748 166.886 119.958 167.294 120.234L166.556 121.602C166.124 121.314 165.674 121.116 165.206 121.008C164.738 120.9 164.27 120.846 163.802 120.846C163.046 120.846 162.482 120.972 162.11 121.224C161.738 121.464 161.552 121.776 161.552 122.16C161.552 122.484 161.66 122.736 161.876 122.916C162.104 123.084 162.392 123.216 162.74 123.312C163.1 123.408 163.496 123.492 163.928 123.564C164.36 123.624 164.792 123.708 165.224 123.816C165.656 123.912 166.046 124.05 166.394 124.23C166.754 124.41 167.042 124.662 167.258 124.986C167.486 125.31 167.6 125.742 167.6 126.282C167.6 126.858 167.432 127.356 167.096 127.776C166.76 128.196 166.286 128.526 165.674 128.766C165.062 128.994 164.33 129.108 163.478 129.108Z" fill="#9B9BB6"/>
<path d="M174.007 129.108C172.987 129.108 172.087 128.898 171.307 128.478C170.539 128.058 169.939 127.482 169.507 126.75C169.087 126.018 168.877 125.178 168.877 124.23C168.877 123.282 169.081 122.442 169.489 121.71C169.909 120.978 170.479 120.408 171.199 120C171.931 119.58 172.753 119.37 173.665 119.37C174.589 119.37 175.405 119.574 176.113 119.982C176.821 120.39 177.373 120.966 177.769 121.71C178.177 122.442 178.381 123.3 178.381 124.284C178.381 124.356 178.375 124.44 178.363 124.536C178.363 124.632 178.357 124.722 178.345 124.806H170.227V123.564H177.445L176.743 123.996C176.755 123.384 176.629 122.838 176.365 122.358C176.101 121.878 175.735 121.506 175.267 121.242C174.811 120.966 174.277 120.828 173.665 120.828C173.065 120.828 172.531 120.966 172.063 121.242C171.595 121.506 171.229 121.884 170.965 122.376C170.701 122.856 170.569 123.408 170.569 124.032V124.32C170.569 124.956 170.713 125.526 171.001 126.03C171.301 126.522 171.715 126.906 172.243 127.182C172.771 127.458 173.377 127.596 174.061 127.596C174.625 127.596 175.135 127.5 175.591 127.308C176.059 127.116 176.467 126.828 176.815 126.444L177.769 127.56C177.337 128.064 176.797 128.448 176.149 128.712C175.513 128.976 174.799 129.108 174.007 129.108Z" fill="#9B9BB6"/>
<defs>
<filter id="filter0_i_1_2" x="50" y="46" width="619" height="327" filterUnits="userSpaceOnUse" color-interpolation-filters="sRGB">
<feFlood flood-opacity="0" result="BackgroundImageFix"/>
<feBlend mode="normal" in="SourceGraphic" in2="BackgroundImageFix" result="shape"/>
<feColorMatrix in="SourceAlpha" type="matrix" values="0 0 0 0 0 0 0 0 0 0 0 0 0 0 0 0 0 0 127 0" result="hardAlpha"/>
<feOffset dy="4"/>
<feGaussianBlur stdDeviation="25"/>
<feComposite in2="hardAlpha" operator="arithmetic" k2="-1" k3="1"/>
<feColorMatrix type="matrix" values="0 0 0 0 0 0 0 0 0 0 0 0 0 0 0 0 0 0 0.1 0"/>
<feBlend mode="normal" in2="shape" result="effect1_innerShadow_1_2"/>
</filter>
</defs>
</svg>
