<svg width="24" height="24" viewBox="0 0 24 24" fill="none" xmlns="http://www.w3.org/2000/svg">
<path fill-rule="evenodd" clip-rule="evenodd" d="M12 14.5C13.3807 14.5 14.5 13.3807 14.5 12C14.5 10.6193 13.3807 9.5 12 9.5C10.6193 9.5 9.5 10.6193 9.5 12C9.5 13.3807 10.6193 14.5 12 14.5ZM16 12C16 14.2091 14.2091 16 12 16C9.79086 16 8 14.2091 8 12C8 9.79086 9.79086 8 12 8C14.2091 8 16 9.79086 16 12Z" fill="white"/>
<path fill-rule="evenodd" clip-rule="evenodd" d="M10.904 2.84189L10.5164 4.00455C10.1896 4.9849 9.47255 5.67937 8.72139 6.09762C8.65734 6.13329 8.59392 6.16997 8.53115 6.20765C7.79249 6.65109 6.83117 6.92568 5.81755 6.71826L4.61578 6.47233C4.40493 6.42918 4.19013 6.5258 4.08252 6.71218L3.46154 7.78775C3.35393 7.97413 3.37766 8.20846 3.52045 8.36949L4.33548 9.2886C5.01953 10.06 5.26449 11.0268 5.25084 11.8882C5.24966 11.9627 5.24966 12.0373 5.25084 12.1118C5.26448 12.9732 5.01952 13.9399 4.33548 14.7113L3.52045 15.6304C3.37767 15.7915 3.35394 16.0258 3.46154 16.2122L4.08252 17.2878C4.19013 17.4741 4.40493 17.5707 4.61578 17.5276L5.81747 17.2817C6.8311 17.0743 7.79243 17.3489 8.5311 17.7923C8.59388 17.83 8.65732 17.8667 8.72139 17.9024C9.47255 18.3206 10.1896 19.0151 10.5164 19.9955L10.904 21.1581C10.972 21.3623 11.1631 21.5 11.3783 21.5H12.6203C12.8355 21.5 13.0266 21.3623 13.0946 21.1581L13.4822 19.9955C13.809 19.0151 14.526 18.3206 15.2772 17.9024C15.3413 17.8667 15.4047 17.83 15.4675 17.7923C16.2062 17.3489 17.1675 17.0743 18.1811 17.2817L19.3828 17.5276C19.5936 17.5707 19.8084 17.4741 19.916 17.2878L20.537 16.2122C20.6446 16.0258 20.6209 15.7915 20.4781 15.6304L19.6631 14.7114C18.9791 13.94 18.7341 12.9732 18.7478 12.1118C18.7489 12.0373 18.7489 11.9627 18.7478 11.8882C18.7341 11.0267 18.9791 10.06 19.6631 9.28855L20.4781 8.36949C20.6209 8.20846 20.6446 7.97414 20.537 7.78775L19.916 6.71218C19.8084 6.5258 19.5936 6.42919 19.3828 6.47233L18.181 6.71825C17.1674 6.92567 16.2061 6.65108 15.4674 6.20765C15.4047 6.16997 15.3413 6.13329 15.2772 6.09762C14.526 5.67937 13.809 4.9849 13.4822 4.00455L13.0946 2.84189C13.0266 2.63771 12.8355 2.5 12.6203 2.5H11.3783C11.1631 2.5 10.972 2.63771 10.904 2.84189ZM9.0934 3.53021C8.91116 4.07694 8.49518 4.50673 7.99167 4.78709C7.91335 4.83069 7.83582 4.87554 7.7591 4.9216C7.2644 5.21857 6.68355 5.36439 6.11827 5.24871L4.9165 5.00278C4.07311 4.8302 3.21392 5.21665 2.78349 5.96218L2.1625 7.03775C1.73207 7.78328 1.82699 8.72059 2.39815 9.36469L3.21318 10.2838C3.59509 10.7145 3.76015 11.2889 3.75103 11.8644C3.7496 11.9548 3.74959 12.0452 3.75103 12.1355C3.76014 12.7111 3.59509 13.2854 3.21317 13.7161L2.39815 14.6352C1.82699 15.2793 1.73207 16.2167 2.1625 16.9622L2.78349 18.0378C3.21392 18.7833 4.07311 19.1697 4.9165 18.9971L6.11819 18.7512C6.68348 18.6356 7.26434 18.7814 7.75904 19.0784C7.83578 19.1244 7.91333 19.1693 7.99167 19.2129C8.49518 19.4933 8.91116 19.9231 9.0934 20.4698L9.48095 21.6325C9.75318 22.4491 10.5175 23 11.3783 23H12.6203C13.4811 23 14.2454 22.4491 14.5176 21.6325L14.9052 20.4698C15.0874 19.9231 15.5034 19.4933 16.0069 19.2129C16.0853 19.1693 16.1628 19.1244 16.2396 19.0784C16.7343 18.7814 17.3151 18.6356 17.8804 18.7512L19.0821 18.9971C19.9254 19.1697 20.7846 18.7833 21.2151 18.0378L21.836 16.9622C22.2665 16.2167 22.1716 15.2793 21.6004 14.6352L20.7854 13.7162C20.4035 13.2855 20.2385 12.7111 20.2476 12.1356C20.249 12.0452 20.249 11.9548 20.2476 11.8644C20.2385 11.2888 20.4035 10.7144 20.7854 10.2838L21.6004 9.36469C22.1716 8.72059 22.2665 7.78328 21.836 7.03775L21.2151 5.96218C20.7846 5.21666 19.9254 4.8302 19.0821 5.00279L17.8803 5.2487C17.315 5.36438 16.7342 5.21857 16.2395 4.92159C16.1628 4.87554 16.0852 4.83069 16.0069 4.78709C15.5034 4.50673 15.0874 4.07694 14.9052 3.53021L14.5176 2.36754C14.2454 1.55086 13.4811 1 12.6203 1H11.3783C10.5175 1 9.75318 1.55086 9.48095 2.36754L9.0934 3.53021Z" fill="white"/>
</svg>
