<svg width="24" height="24" viewBox="0 0 24 24" fill="none" xmlns="http://www.w3.org/2000/svg">
<path fill-rule="evenodd" clip-rule="evenodd" d="M5.03972 19.3478C5.57383 18.9027 6.3438 18.883 6.9 19.3002L8 20.1252L9.1 19.3002C9.63333 18.9002 10.3667 18.9002 10.9 19.3002L12 20.1252L13.1 19.3002C13.6333 18.9002 14.3667 18.9002 14.9 19.3002L16 20.1252L17.1 19.3002C17.6562 18.883 18.4262 18.9027 18.9603 19.3478L19.5 19.7976V4.20273L18.9603 4.6525C18.4262 5.09759 17.6562 5.11732 17.1 4.70017L16 3.87517L14.9 4.70017C14.3667 5.10017 13.6333 5.10017 13.1 4.70017L12 3.87517L10.9 4.70017C10.3667 5.10017 9.63333 5.10017 9.1 4.70017L8 3.87517L6.9 4.70017C6.3438 5.11732 5.57383 5.09759 5.03972 4.6525L4.5 4.20273V19.7976L5.03972 19.3478ZM6 3.50017L4.64018 2.36699C3.98886 1.82422 3 2.28738 3 3.13521V20.8651C3 21.713 3.98886 22.1761 4.64018 21.6334L6 20.5002L7.4 21.5502C7.75556 21.8168 8.24444 21.8168 8.6 21.5502L10 20.5002L11.4 21.5502C11.7556 21.8168 12.2444 21.8168 12.6 21.5502L14 20.5002L15.4 21.5502C15.7556 21.8168 16.2444 21.8168 16.6 21.5502L18 20.5002L19.3598 21.6334C20.0111 22.1761 21 21.713 21 20.8651V3.13521C21 2.28737 20.0111 1.82422 19.3598 2.36699L18 3.50017L16.6 2.45017C16.2444 2.1835 15.7556 2.1835 15.4 2.45017L14 3.50017L12.6 2.45017C12.2444 2.1835 11.7556 2.1835 11.4 2.45017L10 3.50017L8.6 2.45017C8.24444 2.1835 7.75556 2.1835 7.4 2.45017L6 3.50017Z" fill="white"/>
<path fill-rule="evenodd" clip-rule="evenodd" d="M7.25 10C7.25 9.58579 7.58579 9.25 8 9.25H16C16.4142 9.25 16.75 9.58579 16.75 10C16.75 10.4142 16.4142 10.75 16 10.75H8C7.58579 10.75 7.25 10.4142 7.25 10Z" fill="white"/>
<path fill-rule="evenodd" clip-rule="evenodd" d="M7.25 14C7.25 13.5858 7.58579 13.25 8 13.25H12C12.4142 13.25 12.75 13.5858 12.75 14C12.75 14.4142 12.4142 14.75 12 14.75H8C7.58579 14.75 7.25 14.4142 7.25 14Z" fill="white"/>
</svg>
