<svg width="555" height="466" viewBox="0 0 555 466" fill="none" xmlns="http://www.w3.org/2000/svg">
<g clip-path="url(#clip0_982_998)">
<path d="M0 323.182C0 326.127 2.20822 329.071 5.88859 332.016L214.198 452.013C222.294 456.43 235.544 456.43 243.641 452.013L548.375 275.33C552.056 273.122 554.264 270.177 554.264 267.232V278.275C554.264 281.22 552.056 284.165 548.375 286.373L243.641 463.055C235.544 467.473 222.294 467.473 214.198 463.055L5.88859 342.322C2.20822 340.114 0 337.169 0 334.225V323.182Z" fill="url(#paint0_linear_982_998)"/>
<path d="M5.88902 332.016L214.198 452.013C222.295 456.43 235.544 456.43 243.641 452.013L548.376 275.33C556.473 270.913 556.473 262.815 548.376 258.398L340.067 138.401C331.97 133.984 318.721 133.984 310.624 138.401L5.88902 315.084C-2.2078 319.501 -2.2078 326.863 5.88902 332.016Z" fill="#E1F5FF"/>
<path d="M19.875 311.403L250.266 443.915L549.848 270.913L318.721 137.665L19.875 311.403Z" fill="url(#paint1_linear_982_998)"/>
<path d="M421.035 189.933L448.27 205.393C449.006 206.129 449.006 206.866 448.27 206.866C447.534 207.602 446.062 206.866 445.326 206.866L418.091 191.406C417.355 190.67 417.355 189.933 418.091 189.933C418.827 189.197 420.299 189.197 421.035 189.933Z" fill="#C1DFEE"/>
<path d="M277.499 276.802L340.801 312.875C342.273 313.611 344.481 313.611 345.954 312.875C347.426 312.139 347.426 310.667 345.954 309.93L282.651 273.858C281.179 273.122 278.971 273.122 277.499 273.858C276.026 274.594 276.026 276.066 277.499 276.802Z" fill="#65CDFF"/>
<path d="M214.198 253.981L277.5 290.054C278.972 290.79 281.181 290.79 282.653 290.054C284.125 289.318 284.125 287.845 282.653 287.109L219.35 250.3C217.878 249.564 215.67 249.564 214.198 250.3C212.726 251.773 212.726 252.509 214.198 253.981Z" fill="#65CDFF"/>
<path d="M372.455 325.39L354.053 315.084C352.581 314.348 350.373 314.348 348.901 315.084C347.429 315.82 347.429 317.292 348.901 318.029L367.303 328.335C368.775 329.071 370.983 329.071 372.455 328.335C373.927 326.863 373.927 326.127 372.455 325.39Z" fill="#65CDFF"/>
<path d="M211.252 246.619L192.85 235.577C191.378 234.84 189.17 234.84 187.698 235.577C186.226 236.313 186.226 237.785 187.698 238.521L206.1 248.828C207.572 249.564 209.78 249.564 211.252 248.828C212.724 248.828 212.724 247.355 211.252 246.619Z" fill="#65CDFF"/>
<path d="M273.08 269.441L203.889 229.687C202.417 228.951 200.209 228.951 198.737 229.687C197.265 230.424 197.265 231.896 198.737 232.632L267.928 272.386C269.4 273.122 271.608 273.122 273.08 272.386C274.553 271.649 274.553 270.177 273.08 269.441Z" fill="#65CDFF"/>
<path d="M357.729 330.543L288.538 290.79C287.066 290.054 284.858 290.054 283.385 290.79C281.913 291.526 281.913 292.998 283.385 293.735L352.576 333.488C354.048 334.224 356.257 334.224 357.729 333.488C359.201 332.752 359.201 331.28 357.729 330.543Z" fill="#65CDFF"/>
<path d="M479.918 271.649L450.475 254.717C446.795 252.509 446.795 248.828 450.475 246.619C454.155 244.411 460.78 244.411 465.197 246.619L494.64 263.551C498.32 265.76 498.32 269.441 494.64 271.649C490.959 273.858 484.335 273.858 479.918 271.649Z" fill="#97DEFF"/>
<path d="M246.585 315.82L228.184 304.778C225.975 303.305 225.975 301.097 228.184 299.624C230.392 298.152 234.808 298.152 237.016 299.624L255.418 310.667C257.627 312.139 257.627 314.348 255.418 315.82C253.21 317.292 248.794 317.292 246.585 315.82Z" fill="#97DEFF"/>
<path d="M259.835 307.722L241.434 297.416C239.225 295.943 239.225 293.735 241.434 292.262C243.642 290.79 248.058 290.79 250.266 292.262L268.668 303.305C270.877 304.777 270.877 306.986 268.668 308.458C266.46 309.195 262.044 309.194 259.835 307.722Z" fill="#97DEFF"/>
<path d="M231.129 399.745L253.947 412.996L351.845 354.838L329.027 342.323L231.129 399.745Z" fill="#0475AC"/>
<path d="M198.742 380.604L221.56 393.855L298.112 350.421L275.294 337.169L198.742 380.604Z" fill="#0475AC"/>
<path d="M166.352 362.936L189.17 376.187L238.487 348.212L215.669 334.961L166.352 362.936Z" fill="#0475AC"/>
<path d="M145.004 272.386C140.587 270.177 133.963 270.913 130.282 273.122C126.602 276.067 127.338 279.748 131.754 281.956C136.171 284.165 142.795 283.428 146.476 281.22C150.156 278.275 149.42 274.594 145.004 272.386Z" fill="#97DEFF"/>
<path d="M150.894 267.969C142.061 263.552 128.812 264.288 121.451 269.441C114.09 274.594 115.563 281.956 124.395 286.373C133.228 290.79 146.478 290.054 153.838 284.901C161.199 279.748 159.727 272.386 150.894 267.969ZM128.076 284.165C121.451 281.22 120.715 275.33 125.868 271.65C131.02 267.969 140.589 267.233 147.214 270.177C153.838 273.122 154.575 279.011 149.422 282.692C144.27 287.109 134.701 287.109 128.076 284.165Z" fill="#97DEFF"/>
<path d="M182.545 296.679C176.656 295.943 171.504 298.152 170.032 301.096C168.559 304.041 172.24 307.722 178.128 308.458C184.017 309.194 189.17 306.986 190.642 304.041C191.378 301.096 187.697 297.415 182.545 296.679Z" fill="#97DEFF"/>
<path d="M184.754 290.79C173.713 289.318 161.936 293.735 159.728 300.36C157.519 306.986 164.88 313.612 175.921 315.084C186.962 316.556 198.74 312.139 200.948 305.514C203.156 298.888 195.795 292.262 184.754 290.79ZM177.393 311.403C169.297 310.667 163.408 305.514 165.616 301.097C167.088 296.68 175.185 292.999 184.018 294.471C192.115 295.207 197.267 300.36 195.795 304.777C193.587 309.195 185.49 312.139 177.393 311.403Z" fill="#97DEFF"/>
<path d="M142.061 320.237C136.172 319.501 131.019 321.709 129.547 324.654C128.075 327.599 131.756 331.28 137.644 332.016C143.533 332.752 148.685 330.543 150.157 327.599C151.63 323.918 147.949 320.973 142.061 320.237Z" fill="#97DEFF"/>
<path d="M144.27 314.348C133.229 312.875 121.452 317.292 119.243 323.918C117.035 330.544 124.396 337.169 135.437 338.641C146.478 340.114 158.255 335.697 160.463 329.071C163.408 321.709 156.047 315.82 144.27 314.348ZM136.909 334.961C128.812 334.224 123.66 329.071 125.132 324.654C126.604 320.237 134.701 316.556 143.534 318.029C151.631 318.765 157.519 323.918 155.311 328.335C153.103 332.752 145.006 335.697 136.909 334.961Z" fill="#97DEFF"/>
<path d="M99.3706 295.207C93.482 294.471 88.3295 295.943 86.1212 299.624C84.6491 302.569 87.5934 306.25 93.482 306.986C99.3706 307.722 104.523 306.25 106.731 302.569C108.94 299.624 105.259 296.679 99.3706 295.207Z" fill="#97DEFF"/>
<path d="M102.314 289.318C91.2725 287.846 79.4953 291.526 76.5511 298.152C73.6068 304.778 80.2314 311.403 91.2725 312.876C102.314 314.348 114.091 310.667 117.035 304.041C119.979 298.152 113.355 291.526 102.314 289.318ZM92.7447 309.931C84.6479 308.458 79.4954 304.041 81.7036 298.888C83.9118 294.471 92.0086 291.526 100.105 292.263C108.202 293.735 113.355 298.152 111.147 303.305C109.674 308.458 100.842 311.403 92.7447 309.931Z" fill="#97DEFF"/>
<path d="M183.28 262.079L161.198 248.828C159.725 248.092 160.462 247.356 161.198 246.62C162.67 245.883 164.142 245.883 164.878 246.62L186.96 259.871C187.696 260.607 187.696 261.343 186.96 262.079C186.224 262.815 184.752 262.815 183.28 262.079Z" fill="#97DEFF"/>
<path d="M177.392 265.76L155.31 252.509C154.574 251.773 154.574 251.036 155.31 250.3C156.782 249.564 158.254 249.564 158.99 250.3L181.072 263.551C181.809 264.288 182.545 265.024 181.072 265.76C180.336 266.496 178.864 266.496 177.392 265.76Z" fill="#97DEFF"/>
<path d="M171.502 269.441L149.42 256.19C147.948 255.454 148.684 254.718 149.42 253.981C150.892 253.245 152.365 253.245 153.101 253.981L175.183 267.233C176.655 267.969 176.655 268.705 175.183 269.441C174.447 270.177 172.239 270.177 171.502 269.441Z" fill="#0475AC"/>
<path d="M230.392 289.318L208.31 276.067C207.574 275.331 207.574 274.594 208.31 273.858C209.782 273.122 211.254 273.122 211.99 273.858L234.072 287.109C234.809 287.846 235.545 288.582 234.072 289.318C233.336 289.318 231.128 289.318 230.392 289.318Z" fill="#0475AC"/>
<path d="M223.764 292.263L201.682 279.012C200.21 278.275 200.21 277.539 201.682 276.803C202.418 276.067 204.627 276.067 205.363 276.803L227.445 290.054C228.181 290.79 228.917 291.527 227.445 292.263C226.709 292.999 225.237 292.999 223.764 292.263Z" fill="#0475AC"/>
<path d="M217.877 295.943L195.794 282.692C195.058 281.956 195.058 281.22 195.794 280.484C196.53 279.748 198.739 279.748 199.475 280.484L221.557 293.735C223.029 294.471 223.029 295.207 221.557 295.943C220.821 296.68 218.613 296.68 217.877 295.943Z" fill="#97DEFF"/>
<path d="M459.311 278.275L440.909 267.969C439.437 267.232 437.229 267.232 435.756 267.969C434.284 268.705 434.284 270.177 435.756 270.913L454.158 281.22C455.63 281.956 457.839 281.956 459.311 281.22C460.783 279.747 460.783 279.011 459.311 278.275Z" fill="#65CDFF"/>
<path d="M432.074 262.079L418.089 253.981C416.617 253.245 414.408 253.245 412.936 253.981C411.464 254.718 411.464 256.19 412.936 256.926L426.922 265.024C428.394 265.76 430.602 265.76 432.074 265.024C433.546 264.288 433.546 262.815 432.074 262.079Z" fill="#65CDFF"/>
<path d="M443.854 287.109L425.452 276.803C423.98 276.066 421.772 276.066 420.299 276.803C418.827 277.539 418.827 279.011 420.299 279.747L438.701 290.054C440.173 290.79 442.382 290.79 443.854 290.054C444.59 289.318 444.59 287.845 443.854 287.109Z" fill="#65CDFF"/>
<path d="M412.94 304.778L394.538 294.471C393.066 293.735 390.858 293.735 389.385 294.471C387.913 295.207 387.913 296.68 389.385 297.416L407.787 307.722C409.259 308.458 411.468 308.458 412.94 307.722C413.676 306.986 413.676 305.514 412.94 304.778Z" fill="#65CDFF"/>
<path d="M404.106 156.806V223.798C404.106 234.84 396.745 245.883 383.496 253.981V183.308C383.496 183.308 404.106 167.848 404.106 156.806Z" fill="url(#paint2_linear_982_998)"/>
<path d="M364.356 153.125C364.356 152.389 364.356 151.653 364.356 150.916C364.356 150.18 364.356 149.444 363.62 148.708C360.675 139.874 349.634 136.193 341.537 134.721C331.968 133.248 322.399 133.984 312.831 136.929C311.358 137.665 309.886 138.401 308.414 139.138V211.283C309.886 210.547 311.358 209.811 312.831 209.074C321.663 205.394 331.232 204.657 340.801 206.866C348.898 208.338 358.467 212.019 362.884 219.381C362.884 220.117 363.62 220.853 363.62 221.589C363.62 221.589 363.62 222.326 364.356 222.326V153.125Z" fill="url(#paint3_linear_982_998)"/>
<path d="M383.496 228.951L354.789 212.755V168.584L383.496 184.78V228.951Z" fill="url(#paint4_linear_982_998)"/>
<path d="M308.416 218.645L280.445 202.449V125.15L308.416 141.346V218.645Z" fill="#FF9821"/>
<path d="M383.496 125.15C410.73 144.291 411.467 168.585 383.496 184.781L354.789 168.585C368.038 161.223 368.038 148.708 354.789 141.346C342.276 133.984 320.929 133.984 308.416 141.346L280.445 125.15C309.152 108.218 354.789 104.537 383.496 125.15Z" fill="url(#paint5_linear_982_998)"/>
<path d="M272.348 209.074C287.805 221.589 309.888 229.687 329.762 229.687H330.498V266.496C330.498 266.496 329.026 266.496 328.289 266.496C308.415 265.76 285.597 260.607 270.876 246.619C269.404 245.883 268.667 244.411 267.195 242.938V202.449C267.931 205.393 270.14 206.866 272.348 209.074Z" fill="url(#paint6_linear_982_998)"/>
<path d="M329.761 203.185V229.687H329.025C309.887 229.687 287.069 221.589 271.611 209.074C269.403 207.602 267.931 205.394 265.723 203.921L301.79 193.615C307.679 198.768 318.72 202.449 329.761 203.185Z" fill="url(#paint7_linear_982_998)"/>
<path d="M333.442 240.73C349.636 241.466 367.301 237.049 381.287 229.687C382.023 228.951 382.759 228.951 383.495 228.215V253.981C368.774 262.079 351.844 265.76 334.914 266.496C333.442 266.496 331.97 266.496 329.762 266.496V240.73C331.97 240.73 331.97 240.73 333.442 240.73Z" fill="url(#paint8_linear_982_998)"/>
<path d="M354.788 212.019L383.495 228.215C382.759 228.951 382.023 228.951 381.287 229.687C367.301 237.049 349.636 241.466 333.442 240.73C331.97 240.73 331.234 240.73 329.762 240.73V217.172C335.65 217.172 340.803 216.436 346.691 214.964C349.636 214.228 352.58 213.491 354.788 212.019Z" fill="url(#paint9_linear_982_998)"/>
<path opacity="0.8" d="M212.348 74.0389C213.083 84.7547 218.969 95.4704 230.005 105.421C232.212 107.717 249.133 119.198 260.168 123.791C280.032 130.679 302.103 136.037 326.382 136.037C358.017 136.037 386.709 129.148 408.78 115.371C424.966 105.421 435.266 93.1742 438.209 80.1622C435.266 67.1502 424.966 49.5458 406.573 39.5954C361.695 15.1023 289.596 15.1023 244.719 39.5954C226.326 49.5458 216.026 61.7923 212.348 74.0389Z" fill="url(#paint10_linear_982_998)"/>
<path d="M405.579 24.5227C360.679 0.965078 287.807 0.965078 243.643 24.5227C217.144 38.5101 206.839 57.6507 211.992 75.3189C215.672 62.8039 225.977 51.0251 243.643 41.4548C287.807 17.8971 360.679 17.8971 405.579 41.4548C423.981 51.0251 434.286 67.9572 437.231 80.4722C442.383 62.0678 432.078 38.5101 405.579 24.5227Z" fill="url(#paint11_linear_982_998)"/>
<path d="M200.442 72.8813L199.477 90.5496C199.477 100.856 203.157 112.635 206.101 117.788C209.782 123.678 214.934 129.567 226.711 138.401L229.656 119.261C229.656 119.261 204.122 88.3411 200.442 72.8813Z" fill="url(#paint12_linear_982_998)"/>
<path d="M245.117 122.941C259.839 128.831 264.991 130.303 270.88 131.775C281.185 134.72 292.226 136.929 303.267 138.401C322.405 140.61 341.543 139.873 360.681 136.929C379.083 133.248 397.485 128.095 413.678 117.788C437.969 103.065 449.746 75.0898 449.746 75.0898V88.341C449.746 107.482 437.233 126.622 413.678 141.346C404.845 147.235 394.54 150.916 384.235 154.597C375.402 157.542 365.833 159.75 356.264 161.223C346.695 162.695 337.126 163.431 327.558 163.431C307.684 163.431 270.88 161.223 245.117 147.235V122.941Z" fill="url(#paint13_linear_982_998)"/>
<path d="M245.115 147.235L193.59 175.946V158.278L245.115 130.303V147.235Z" fill="url(#paint14_linear_982_998)"/>
<path d="M184.02 143.554L189.908 160.487L245.114 130.303C310.624 155.333 370.982 148.708 413.675 123.678C437.229 109.69 449.742 92.0221 449.742 73.6177C449.742 64.7835 447.534 56.6856 442.382 47.8515C441.645 46.3791 440.173 44.1706 438.701 41.9621C437.965 41.2259 437.229 39.7535 435.757 39.0173C435.021 38.2812 433.549 36.8088 432.813 36.0726C430.604 33.8641 428.396 31.6556 426.188 30.1832C424.716 29.447 423.98 27.9747 422.508 27.2385C421.771 26.5023 421.035 26.5023 420.299 25.7662C418.827 25.03 417.355 23.5576 415.883 22.8214C415.147 22.0853 414.411 22.0853 413.675 21.3491C364.358 -7.36181 284.862 -7.36181 236.281 21.3491C235.545 21.3491 234.809 22.0853 234.073 22.8214C232.6 23.5576 231.128 24.2938 230.392 25.03C226.712 27.2385 223.768 30.1832 220.823 32.3918C219.351 33.1279 218.615 34.6003 217.879 35.3365C217.143 36.0726 215.671 37.545 214.935 38.2812C214.199 39.0173 209.782 44.9068 209.782 44.9068C209.046 45.6429 209.046 46.3791 208.31 47.1153C208.31 47.8515 206.838 50.06 206.102 50.7962C206.102 51.5324 205.366 52.2685 205.366 52.2685C205.366 53.0047 204.63 53.0047 204.63 53.7409C204.63 54.4771 203.894 55.2132 203.894 55.9494C203.894 56.6856 203.894 56.6856 203.157 57.4218C203.157 58.158 202.421 61.1027 201.685 61.1027C201.685 62.575 200.949 63.3112 200.949 64.7835C200.949 65.5197 200.949 66.2559 200.949 66.2559C200.949 67.7282 200.949 69.2006 200.949 71.4091C200.949 71.4091 200.949 71.4091 200.949 72.1453V72.8815C200.949 86.8689 206.102 106.746 228.92 119.997L184.02 143.554ZM229.656 103.801C218.615 94.2306 212.726 83.188 211.99 72.8815V72.1453C211.99 70.673 211.99 69.9368 211.99 69.2006V68.4644V67.7282C211.99 66.9921 211.99 66.2559 212.726 65.5197C212.726 65.5197 213.462 63.3112 213.462 62.575V61.8388C213.462 61.1027 214.199 60.3665 214.199 59.6303C214.199 59.6303 214.199 58.8941 214.935 58.158C214.935 58.158 215.671 57.4218 215.671 56.6856C216.407 55.9494 217.143 53.7409 217.143 53.7409C217.143 53.0047 217.879 53.0047 217.879 52.2685C218.615 51.5324 221.559 47.1153 223.031 46.3791C223.768 45.6429 224.504 44.9068 225.24 44.1706C225.976 43.4344 226.712 42.6982 228.184 41.9621C231.128 39.7535 234.073 37.545 237.017 35.3365C238.489 34.6003 239.225 33.8641 240.697 33.1279C241.433 33.1279 241.433 32.3918 242.169 32.3918L242.905 31.6556C264.252 19.1406 293.695 12.515 325.346 12.515C356.997 12.515 386.44 19.1406 407.786 32.3918C408.522 33.1279 409.258 33.1279 409.994 33.8641C411.466 34.6003 412.203 35.3365 413.675 36.0726C414.411 36.0726 415.147 37.545 415.147 37.545C416.619 38.2812 417.355 39.0173 418.827 39.7535C421.035 41.2259 423.244 43.4344 424.716 44.9068C425.452 45.6429 426.188 46.3791 426.924 47.8515C427.66 48.5876 428.396 49.3238 429.132 50.7962C430.604 52.2685 431.34 54.4771 432.813 55.9494C436.493 62.575 438.701 68.4644 437.965 75.09C437.229 89.8136 426.924 103.801 407.786 114.844C386.44 127.359 356.997 134.72 325.346 134.72C301.791 134.72 278.973 129.567 259.099 122.942C248.794 117.788 231.864 106.009 229.656 103.801Z" fill="#E1F5FF"/>
<path d="M194.325 146.499C199.478 152.389 203.158 159.751 203.894 167.112C203.894 168.585 203.894 170.057 203.894 170.793C203.894 176.683 201.686 180.364 198.742 182.572L104.524 237.049C107.469 234.841 109.677 231.16 109.677 225.27C109.677 217.172 105.996 209.074 101.58 203.185C99.3718 200.24 96.4275 197.296 92.7471 195.087C89.8028 192.879 85.3864 191.406 81.706 192.142C80.9699 192.142 80.2339 192.879 78.7617 192.879L172.979 137.665C181.076 134.721 189.909 141.346 194.325 146.499Z" fill="url(#paint15_linear_982_998)"/>
<path d="M92.7474 194.351C102.316 200.24 110.413 213.492 110.413 225.27C110.413 236.313 102.316 241.466 92.7474 235.577C83.1785 229.687 75.0817 216.436 75.0817 204.657C74.3456 193.615 82.4424 189.198 92.7474 194.351Z" fill="url(#paint16_linear_982_998)"/>
</g>
<defs>
<linearGradient id="paint0_linear_982_998" x1="0" y1="366.519" x2="554.715" y2="366.519" gradientUnits="userSpaceOnUse">
<stop offset="8e-08" stop-color="#DCF4FF"/>
<stop offset="1" stop-color="#8CDAFF"/>
</linearGradient>
<linearGradient id="paint1_linear_982_998" x1="19.6174" y1="290.935" x2="549.627" y2="290.935" gradientUnits="userSpaceOnUse">
<stop stop-color="#0FA7F0"/>
<stop offset="0.828125" stop-color="#35BCFC"/>
<stop offset="1" stop-color="#3DC0FF"/>
</linearGradient>
<linearGradient id="paint2_linear_982_998" x1="393.801" y1="156.806" x2="393.801" y2="253.981" gradientUnits="userSpaceOnUse">
<stop stop-color="#E18214"/>
<stop offset="1" stop-color="#FF9821"/>
</linearGradient>
<linearGradient id="paint3_linear_982_998" x1="336.385" y1="133.984" x2="336.385" y2="222.326" gradientUnits="userSpaceOnUse">
<stop stop-color="#E18214"/>
<stop offset="1" stop-color="#FF9821"/>
</linearGradient>
<linearGradient id="paint4_linear_982_998" x1="369.142" y1="168.584" x2="369.142" y2="228.951" gradientUnits="userSpaceOnUse">
<stop stop-color="#E18214"/>
<stop offset="1" stop-color="#FF9821"/>
</linearGradient>
<linearGradient id="paint5_linear_982_998" x1="342.322" y1="111.037" x2="342.322" y2="184.781" gradientUnits="userSpaceOnUse">
<stop stop-color="#FFE885"/>
<stop offset="1" stop-color="#FFE264"/>
</linearGradient>
<linearGradient id="paint6_linear_982_998" x1="298.847" y1="202.449" x2="298.847" y2="266.496" gradientUnits="userSpaceOnUse">
<stop stop-color="#E18214"/>
<stop offset="1" stop-color="#FF9821"/>
</linearGradient>
<linearGradient id="paint7_linear_982_998" x1="297.742" y1="193.615" x2="297.742" y2="229.687" gradientUnits="userSpaceOnUse">
<stop stop-color="#FFE885"/>
<stop offset="1" stop-color="#FFE264"/>
</linearGradient>
<linearGradient id="paint8_linear_982_998" x1="356.628" y1="228.215" x2="356.628" y2="266.496" gradientUnits="userSpaceOnUse">
<stop stop-color="#E18214"/>
<stop offset="1" stop-color="#FF9821"/>
</linearGradient>
<linearGradient id="paint9_linear_982_998" x1="356.628" y1="212.019" x2="356.628" y2="240.81" gradientUnits="userSpaceOnUse">
<stop stop-color="#FFE885"/>
<stop offset="1" stop-color="#FFE264"/>
</linearGradient>
<linearGradient id="paint10_linear_982_998" x1="437.476" y1="78.4814" x2="212.382" y2="78.4814" gradientUnits="userSpaceOnUse">
<stop stop-color="#BAE9FF"/>
<stop offset="1" stop-color="#BDEAFF"/>
</linearGradient>
<linearGradient id="paint11_linear_982_998" x1="210.585" y1="43.6795" x2="438.477" y2="43.6795" gradientUnits="userSpaceOnUse">
<stop offset="8e-08" stop-color="#AEE5FF"/>
<stop offset="1" stop-color="#A3E2FF"/>
</linearGradient>
<linearGradient id="paint12_linear_982_998" x1="199.711" y1="105.568" x2="229.304" y2="105.568" gradientUnits="userSpaceOnUse">
<stop offset="8e-08" stop-color="#AEE5FF"/>
<stop offset="1" stop-color="#C4ECFF"/>
</linearGradient>
<linearGradient id="paint13_linear_982_998" x1="245.209" y1="119.145" x2="450.196" y2="119.145" gradientUnits="userSpaceOnUse">
<stop offset="8e-08" stop-color="#C4ECFF"/>
<stop offset="1" stop-color="#ADE4FF"/>
</linearGradient>
<linearGradient id="paint14_linear_982_998" x1="193.797" y1="153.031" x2="245.192" y2="153.031" gradientUnits="userSpaceOnUse">
<stop offset="8e-08" stop-color="#C3ECFF"/>
<stop offset="1" stop-color="#AEE5FF"/>
</linearGradient>
<linearGradient id="paint15_linear_982_998" x1="141.328" y1="136.939" x2="141.328" y2="237.049" gradientUnits="userSpaceOnUse">
<stop stop-color="#FFA33A"/>
<stop offset="1" stop-color="#FF8800"/>
</linearGradient>
<linearGradient id="paint16_linear_982_998" x1="92.7242" y1="192.208" x2="92.7242" y2="238.041" gradientUnits="userSpaceOnUse">
<stop stop-color="#B96300"/>
<stop offset="1" stop-color="#DF7700"/>
</linearGradient>
<clipPath id="clip0_982_998">
<rect width="555" height="466" fill="white"/>
</clipPath>
</defs>
</svg>
