<svg width="358" height="126" viewBox="0 0 358 126" fill="none" xmlns="http://www.w3.org/2000/svg">
<rect x="54.5" y="37.5" width="303" height="43" rx="4.5" fill="white" stroke="#DDDDE6"/>
<g filter="url(#filter0_d_1102_136)">
<circle cx="63" cy="59" r="43" fill="#F28100"/>
</g>
<rect x="113" y="45" width="8" height="28" fill="#F28100"/>
<rect x="125" y="45" width="8" height="28" fill="#F28100"/>
<rect x="137" y="45" width="8" height="28" fill="#F28100"/>
<rect x="149" y="45" width="8" height="28" fill="#F28100"/>
<rect x="161" y="45" width="8" height="28" fill="#F28100"/>
<rect x="173" y="45" width="8" height="28" fill="#F28100"/>
<rect x="185" y="45" width="8" height="28" fill="#F28100"/>
<rect x="197" y="45" width="8" height="28" fill="#F28100"/>
<rect x="209" y="45" width="8" height="28" fill="#F28100"/>
<rect x="221" y="45" width="8" height="28" fill="#F28100"/>
<rect x="233" y="45" width="8" height="28" fill="#F28100"/>
<rect x="245" y="45" width="8" height="28" fill="#F28100"/>
<rect x="257" y="45" width="8" height="28" fill="#F28100"/>
<rect x="269" y="45" width="8" height="28" fill="#F28100"/>
<rect x="281" y="45" width="8" height="28" fill="#F28100"/>
<rect x="293" y="45" width="8" height="28" fill="#F28100"/>
<rect x="305" y="45" width="8" height="28" fill="#F28100"/>
<rect x="317" y="45" width="8" height="28" fill="#F28100"/>
<rect x="329" y="45" width="8" height="28" fill="#F28100"/>
<rect x="341" y="45" width="8" height="28" fill="#F28100"/>
<path d="M82.55 53.25H81.285C80.8092 53.2509 80.3835 52.954 80.2201 52.5071C80.0798 52.1391 79.9291 51.7791 79.767 51.4226C79.5655 50.9891 79.6575 50.4758 79.997 50.1392L80.8986 49.2365C82.2371 47.8863 82.2346 45.7087 80.8928 44.3616L77.643 41.1117C76.2941 39.7708 74.1158 39.7708 72.7669 41.1117L71.8653 42.0122C71.5281 42.3504 71.0156 42.4423 70.5819 42.2422C70.2255 42.08 69.8655 41.9294 69.4963 41.7822C69.0471 41.6199 68.7483 41.1927 68.75 40.715V39.45C68.75 37.5446 67.2054 36 65.3 36H60.7C58.7946 36 57.25 37.5446 57.25 39.45V40.715C57.2509 41.1908 56.954 41.6165 56.5071 41.7799C56.1391 41.9202 55.7792 42.0708 55.4227 42.233C54.989 42.4335 54.4763 42.3417 54.1392 42.003L53.2365 41.1014C51.8878 39.7614 49.7103 39.7614 48.3616 41.1014L45.1118 44.3616C43.7709 45.7105 43.7709 47.8888 45.1118 49.2376L46.0122 50.1392C46.3517 50.4758 46.4437 50.9891 46.2422 51.4226C46.08 51.7791 45.9294 52.1391 45.788 52.5082C45.6234 52.9578 45.1937 53.2549 44.715 53.25H43.45C41.5446 53.25 40 54.7946 40 56.7V61.3C40 63.2054 41.5446 64.75 43.45 64.75H44.715C45.1908 64.7491 45.6165 65.046 45.7799 65.4929C45.9202 65.8609 46.0708 66.2208 46.233 66.5774C46.4345 67.0109 46.3425 67.5242 46.003 67.8608L45.1014 68.7635C43.7614 70.1122 43.7614 72.2897 45.1014 73.6383L48.3513 76.8882C49.7001 78.2291 51.8785 78.2291 53.2273 76.8882L54.1289 75.9878C54.4661 75.6496 54.9786 75.5577 55.4123 75.7578C55.7688 75.9199 56.1287 76.0706 56.4979 76.2178C56.9494 76.3782 57.2509 76.8059 57.25 77.285V78.55C57.25 80.4554 58.7946 82 60.7 82H65.3C67.2054 82 68.75 80.4554 68.75 78.55V77.285C68.7491 76.8092 69.046 76.3835 69.4929 76.2201C69.8609 76.0798 70.2208 75.9291 70.5774 75.767C71.011 75.5665 71.5237 75.6583 71.8608 75.997L72.7635 76.8986C74.114 78.2365 76.291 78.2339 77.6383 76.8928L80.8882 73.643C82.2291 72.2941 82.2291 70.1158 80.8882 68.7669L79.9878 67.8653C79.6483 67.5288 79.5563 67.0155 79.7578 66.5819C79.9199 66.2254 80.0706 65.8655 80.2178 65.4963C80.3801 65.0471 80.8073 64.7483 81.285 64.75H82.55C84.4554 64.75 86 63.2054 86 61.3V56.7C86 54.7946 84.4554 53.25 82.55 53.25ZM83.7 61.3C83.7 61.9351 83.1851 62.45 82.55 62.45H81.285C79.8554 62.4553 78.576 63.3389 78.065 64.6741C77.9431 64.9961 77.8113 65.3131 77.6694 65.6252C77.0782 66.9304 77.3524 68.4651 78.3594 69.4846L79.2587 70.385C79.7081 70.8338 79.7085 71.562 79.2596 72.0114C79.2593 72.0117 79.259 72.012 79.2587 72.0122L76.0088 75.2621C75.5597 75.7111 74.8318 75.7111 74.3827 75.2621L73.4811 74.3617C72.4621 73.3539 70.9268 73.0794 69.6217 73.6717C69.31 73.8131 68.9927 73.9454 68.673 74.0673C67.3388 74.5782 66.4557 75.8564 66.45 77.285V78.55C66.45 79.1851 65.9351 79.7 65.3 79.7H60.7C60.0649 79.7 59.55 79.1851 59.55 78.55V77.285C59.5447 75.8554 58.661 74.576 57.3259 74.065C57.0039 73.9431 56.6869 73.8113 56.3748 73.6694C55.0696 73.0784 53.5351 73.3529 52.5155 74.3594L51.615 75.2587C51.1662 75.7081 50.438 75.7085 49.9886 75.2596C49.9883 75.2593 49.988 75.259 49.9878 75.2587L46.7379 72.0122C46.2889 71.5632 46.2889 70.8352 46.7379 70.3862L47.6383 69.4846C48.6453 68.4651 48.9195 66.9304 48.3283 65.6252C48.1868 65.3135 48.0546 64.9961 47.9327 64.6764C47.423 63.3408 46.1444 62.4563 44.715 62.45H43.45C42.8149 62.45 42.3 61.9351 42.3 61.3V56.7C42.3 56.0649 42.8149 55.55 43.45 55.55H44.715C46.1446 55.5447 47.424 54.6611 47.935 53.3259C48.0569 53.0039 48.1887 52.6869 48.3306 52.3748C48.9218 51.0696 48.6474 49.5349 47.6406 48.5154L46.7367 47.615C46.2873 47.1662 46.2869 46.438 46.7358 45.9886C46.7361 45.9883 46.7364 45.988 46.7367 45.9877L49.9866 42.7378C50.4357 42.2889 51.1636 42.2889 51.6127 42.7378L52.5143 43.6383C53.5333 44.6461 55.0686 44.9206 56.3737 44.3283C56.6854 44.1869 57.0027 44.0546 57.3224 43.9327C58.6585 43.4234 59.5435 42.1447 59.55 40.715V39.45C59.55 38.8149 60.0649 38.3 60.7 38.3H65.3C65.9351 38.3 66.45 38.8149 66.45 39.45V40.715C66.4553 42.1446 67.3389 43.424 68.6741 43.935C68.9961 44.0569 69.3131 44.1887 69.6251 44.3306C70.9303 44.9228 72.4655 44.6484 73.4846 43.6406L74.385 42.7413C74.8358 42.2954 75.5615 42.2954 76.0122 42.7413L79.2621 45.9912C79.7111 46.4403 79.7111 47.1682 79.2621 47.6173L78.3617 48.5189C77.3549 49.5384 77.0805 51.0731 77.6717 52.3783C77.8131 52.69 77.9454 53.0074 78.0673 53.3271C78.5782 54.6612 79.8564 55.5443 81.285 55.55H82.55C83.1851 55.55 83.7 56.0649 83.7 56.7V61.3Z" fill="white"/>
<path d="M73.3275 58.5399C73.316 58.2639 73.2964 57.9891 73.2631 57.7154C73.2263 57.421 73.1826 57.1289 73.1216 56.8425C73.0814 56.6551 73.0285 56.4699 72.9779 56.2836C72.9135 56.0467 72.841 55.8133 72.7605 55.5833C72.7042 55.4234 72.6455 55.2647 72.5857 55.1072C72.4377 54.7389 72.2683 54.3794 72.0786 54.0308C72.0636 54.0043 72.0544 53.9756 72.0395 53.9491C71.7404 53.4167 71.3939 52.912 71.0045 52.4415C70.9711 52.4001 70.9332 52.361 70.8987 52.3207C70.74 52.1333 70.5767 51.9516 70.4053 51.7779C70.3156 51.6848 70.2213 51.5974 70.127 51.5077C70.012 51.4007 69.897 51.2949 69.782 51.1937C69.6425 51.0725 69.5003 50.9552 69.3554 50.8418L69.1668 50.7015C67.3873 49.3687 65.2237 48.6488 63.0005 48.6499C62.8855 48.6499 62.7705 48.6672 62.6555 48.6718C62.4105 48.6787 62.1644 48.6925 61.9172 48.7178C61.7872 48.7316 61.6561 48.7465 61.5262 48.7649C61.1513 48.8142 60.7793 48.8838 60.4118 48.9731C54.8745 50.4039 51.5455 56.053 52.9764 61.5904C53.9194 65.2394 56.7702 68.0879 60.4199 69.0279C60.4383 69.0279 60.4578 69.0337 60.4774 69.0383C60.8746 69.1373 61.2769 69.2142 61.6826 69.2683C61.9505 69.3016 62.2185 69.3085 62.4876 69.3212C62.667 69.3304 62.8326 69.3568 63.02 69.3568C63.3478 69.3568 63.6882 69.335 64.0355 69.3005C64.0723 69.3005 64.1091 69.2901 64.1505 69.2855C64.4299 69.2545 64.7128 69.2131 65.0015 69.1556C65.1165 69.1337 65.2234 69.105 65.3338 69.0797C65.5362 69.0325 65.7375 68.9831 65.9445 68.9221C66.1055 68.8738 66.2619 68.8175 66.4194 68.7623C66.577 68.7071 66.7403 68.6473 66.9036 68.5852C67.0669 68.5231 67.2037 68.4518 67.3521 68.3828C67.5453 68.2942 67.7373 68.2068 67.9271 68.1033H67.934C69.0072 67.5287 69.9985 66.8129 70.8814 65.9747C71.1199 65.7521 71.3274 65.4983 71.4978 65.2203C72.3954 63.7813 72.9851 62.172 73.2297 60.4938C73.2619 60.2718 73.2907 60.0499 73.3079 59.8233C73.324 59.6152 73.3355 59.4082 73.3401 59.2012C73.3401 59.1356 73.3493 59.0735 73.3493 59.008C73.3505 58.8458 73.3344 58.6963 73.3275 58.5399ZM71.0355 59.2932C71.0355 59.3886 71.0275 59.4841 71.0217 59.5784C71.001 59.8567 70.9654 60.135 70.9182 60.4144C70.4884 62.8054 69.0039 64.8754 66.8771 66.0494C66.7345 66.1242 66.5942 66.1943 66.4539 66.2587L66.3585 66.3047C65.6903 66.608 64.9851 66.8215 64.2609 66.9395C64.2103 66.9476 64.1585 66.9568 64.1068 66.9637C63.963 66.9844 63.8216 67.0016 63.6813 67.0143C63.4961 67.0304 63.3098 67.0396 63.1201 67.043C63.0396 67.043 62.9602 67.043 62.8797 67.043C62.6076 67.0399 62.3359 67.023 62.0655 66.9924L61.9275 66.9763C61.6113 66.9349 61.2976 66.8758 60.988 66.7992C56.681 65.6968 54.0831 61.3116 55.1854 57.0045C55.9138 54.1585 58.1347 51.9353 60.9799 51.2041V51.2029C61.6406 51.0363 62.3191 50.9512 63.0005 50.9499C63.3293 50.9518 63.6577 50.9741 63.9837 51.0166C64.0711 51.027 64.1574 51.0431 64.2436 51.0557C64.492 51.0948 64.7381 51.1443 64.9808 51.2064C65.0601 51.2271 65.1395 51.2455 65.2177 51.2673C65.8292 51.4438 66.4179 51.6917 66.9714 52.0056C67.06 52.0574 67.1462 52.1114 67.2336 52.1655C67.4153 52.2805 67.5913 52.3955 67.7649 52.5266C67.8581 52.5944 67.9524 52.6611 68.0421 52.7336C68.2678 52.9138 68.4838 53.1057 68.6895 53.3086C68.7712 53.3914 68.8459 53.4822 68.9253 53.5685C69.0575 53.7122 69.1863 53.8594 69.3094 54.0147C69.3945 54.1216 69.4761 54.232 69.5566 54.3436C69.6716 54.5092 69.7866 54.6817 69.8901 54.8565C69.9476 54.9519 70.0051 55.0451 70.0638 55.1428C70.2121 55.4158 70.3442 55.6973 70.4594 55.9858C70.5054 56.1008 70.5445 56.2158 70.5859 56.3308C70.6606 56.5424 70.725 56.7563 70.7814 56.9725C70.8101 57.0875 70.8423 57.1898 70.8665 57.3014C70.9336 57.6121 70.9824 57.9267 71.0125 58.2432C71.0194 58.3272 71.0194 58.4123 71.0252 58.4962C71.0413 58.7607 71.0459 59.0264 71.0355 59.2932Z" fill="white"/>
<defs>
<filter id="filter0_d_1102_136" x="0" y="0" width="126" height="126" filterUnits="userSpaceOnUse" color-interpolation-filters="sRGB">
<feFlood flood-opacity="0" result="BackgroundImageFix"/>
<feColorMatrix in="SourceAlpha" type="matrix" values="0 0 0 0 0 0 0 0 0 0 0 0 0 0 0 0 0 0 127 0" result="hardAlpha"/>
<feOffset dy="4"/>
<feGaussianBlur stdDeviation="10"/>
<feComposite in2="hardAlpha" operator="out"/>
<feColorMatrix type="matrix" values="0 0 0 0 0.94902 0 0 0 0 0.505882 0 0 0 0 0 0 0 0 0.2 0"/>
<feBlend mode="normal" in2="BackgroundImageFix" result="effect1_dropShadow_1102_136"/>
<feBlend mode="normal" in="SourceGraphic" in2="effect1_dropShadow_1102_136" result="shape"/>
</filter>
</defs>
</svg>
