<svg width="74" height="74" viewBox="0 0 74 74" fill="none" xmlns="http://www.w3.org/2000/svg">
<path d="M3.7 69.0668H11.1C13.045 69.0585 14.6515 67.5458 14.7766 65.6048C15.0269 65.5975 15.2767 65.6304 15.5166 65.7022L40.6383 73.7386C42.5572 74.3115 44.6346 73.922 46.2155 72.6928L72.52 51.6077C73.4516 50.8632 73.9958 49.7367 74 48.5441C73.996 47.8806 73.8265 47.2286 73.5067 46.6472C72.457 44.7683 70.0843 44.094 68.2033 45.1401L67.8333 45.3473V3.7001C67.8333 1.65665 66.1768 0.000104378 64.1333 0.000104378H29.896C29.206 -0.00453435 28.5237 0.145496 27.8992 0.439171L27.8807 0.446571H27.8733C27.3269 0.684035 26.8302 1.02255 26.4094 1.44434L19.9467 7.907C19.5361 8.31452 19.2053 8.79512 18.9711 9.3241C18.9711 9.33644 18.9637 9.35 18.9576 9.36234C18.9514 9.37467 18.9415 9.40797 18.9329 9.43017C18.6479 10.0464 18.5002 10.7172 18.5 11.3961V45.6692L14.71 47.3058C14.3373 45.6103 12.836 44.4019 11.1 44.4001H3.7C1.65655 44.4001 0 46.0567 0 48.1001V65.3668C0 67.4102 1.65655 69.0668 3.7 69.0668ZM69.4083 47.2898C70.097 46.9083 70.9646 47.1532 71.352 47.8386C71.4699 48.0552 71.5322 48.2976 71.5333 48.5441C71.532 48.9859 71.3296 49.4031 70.9833 49.6775L44.6911 70.7564C43.7485 71.4837 42.515 71.7165 41.3722 71.383L16.2652 63.3515C15.8016 63.2073 15.3188 63.1341 14.8333 63.1344H14.8V49.9501L20.1835 47.624L20.2427 47.5981L20.6559 47.4193C22.2136 46.8627 23.8865 46.7075 25.5201 46.9679L49.4961 51.0626C49.522 51.0626 49.5553 51.0712 49.5874 51.0749L51.6384 51.4227C52.3303 51.5369 52.8403 52.1312 52.8483 52.8324C52.852 53.2077 52.706 53.569 52.4426 53.8363C52.1709 54.1091 51.8026 54.2638 51.4177 54.2668H29.415C28.7339 54.2668 28.1817 54.819 28.1817 55.5001C28.1817 56.1813 28.7339 56.7334 29.415 56.7334H33.9956L41.1736 61.1907C42.2973 61.8253 43.6704 61.8286 44.7971 61.1993L69.4083 47.2898ZM47.6856 56.7334L43.5909 59.0472C43.2294 59.249 42.7907 59.256 42.423 59.0657L38.6699 56.7334H47.6856ZM64.1333 2.46677C64.8145 2.46677 65.3667 3.01895 65.3667 3.7001V46.7434L55.294 52.4365C55.1154 50.6853 53.7812 49.2732 52.043 48.9955L49.934 48.6378L49.8452 48.6267L25.9185 44.5407C24.2694 44.2812 22.5847 44.3593 20.9667 44.7701V11.3961C20.9715 11.2968 20.9827 11.198 21 11.1001H25.9C27.9435 11.1001 29.6 9.44356 29.6 7.4001V2.49884C29.6979 2.48187 29.7968 2.47115 29.896 2.46677H64.1333ZM27.1333 4.2107V7.4001C27.1333 8.08125 26.5812 8.63344 25.9 8.63344H22.7106L27.1333 4.2107ZM2.46667 48.1001C2.46667 47.419 3.01885 46.8668 3.7 46.8668H11.1C11.7812 46.8668 12.3333 47.419 12.3333 48.1001V49.067C12.3333 49.0954 12.321 49.1213 12.321 49.1497L12.3333 64.591V65.3668C12.3333 66.0479 11.7812 66.6001 11.1 66.6001H3.7C3.01885 66.6001 2.46667 66.0479 2.46667 65.3668V48.1001Z" fill="#0FA7F0"/>
<path d="M53.0357 28.3667C48.2676 28.3667 44.4023 32.232 44.4023 37C44.4023 41.7681 48.2676 45.6334 53.0357 45.6334C57.8037 45.6334 61.669 41.7681 61.669 37C61.6636 32.2342 57.8015 28.3721 53.0357 28.3667ZM59.079 35.7667H54.269V30.9567C56.6891 31.4556 58.5801 33.3467 59.079 35.7667ZM53.0357 43.1667C49.8675 43.1699 47.2124 40.7719 46.894 37.6198C46.5756 34.4677 48.6976 31.5871 51.8023 30.9567V37C51.8023 37.6812 52.3545 38.2334 53.0357 38.2334H59.079C58.4889 41.1026 55.965 43.163 53.0357 43.1667Z" fill="#0FA7F0"/>
<path d="M6.16693 51.8002H8.6336C9.31475 51.8002 9.86693 51.248 9.86693 50.5668C9.86693 49.8857 9.31475 49.3335 8.6336 49.3335H6.16693C5.48578 49.3335 4.93359 49.8857 4.93359 50.5668C4.93359 51.248 5.48578 51.8002 6.16693 51.8002Z" fill="#0FA7F0"/>
<path d="M6.16693 64.1334H8.6336C9.31475 64.1334 9.86693 63.5812 9.86693 62.9001C9.86693 62.2189 9.31475 61.6667 8.6336 61.6667H6.16693C5.48578 61.6667 4.93359 62.2189 4.93359 62.9001C4.93359 63.5812 5.48578 64.1334 6.16693 64.1334Z" fill="#0FA7F0"/>
<path d="M29.6003 27.1332H27.1336V23.4332C27.1336 22.7521 26.5814 22.1999 25.9003 22.1999C25.2191 22.1999 24.6669 22.7521 24.6669 23.4332V27.1332C23.9858 27.1332 23.4336 27.6854 23.4336 28.3665C23.4336 29.0477 23.9858 29.5999 24.6669 29.5999H38.2336C38.9147 29.5999 39.4669 29.0477 39.4669 28.3665C39.4669 27.6854 38.9147 27.1332 38.2336 27.1332H37.0003V23.4332C37.0003 22.7521 36.4481 22.1999 35.7669 22.1999C35.0858 22.1999 34.5336 22.7521 34.5336 23.4332V27.1332H32.0669V17.2665C32.0669 16.5854 31.5147 16.0332 30.8336 16.0332C30.1524 16.0332 29.6003 16.5854 29.6003 17.2665V27.1332Z" fill="#0FA7F0"/>
<path d="M34.5341 8.63317H59.2008C59.8819 8.63317 60.4341 8.08099 60.4341 7.39984C60.4341 6.71869 59.8819 6.1665 59.2008 6.1665H34.5341C33.853 6.1665 33.3008 6.71869 33.3008 7.39984C33.3008 8.08099 33.853 8.63317 34.5341 8.63317Z" fill="#0FA7F0"/>
<path d="M34.5341 13.5665H44.4008C45.0819 13.5665 45.6341 13.0143 45.6341 12.3332C45.6341 11.652 45.0819 11.0999 44.4008 11.0999H34.5341C33.853 11.0999 33.3008 11.652 33.3008 12.3332C33.3008 13.0143 33.853 13.5665 34.5341 13.5665Z" fill="#0FA7F0"/>
<path d="M45.6357 17.2668C44.9545 17.2668 44.4023 17.819 44.4023 18.5002C44.4023 19.1813 44.9545 19.7335 45.6357 19.7335H60.4357C61.1168 19.7335 61.669 19.1813 61.669 18.5002C61.669 17.819 61.1168 17.2668 60.4357 17.2668H45.6357Z" fill="#0FA7F0"/>
<path d="M60.4357 22.2H45.6357C44.9545 22.2 44.4023 22.7521 44.4023 23.4333C44.4023 24.1144 44.9545 24.6666 45.6357 24.6666H60.4357C61.1168 24.6666 61.669 24.1144 61.669 23.4333C61.669 22.7521 61.1168 22.2 60.4357 22.2Z" fill="#0FA7F0"/>
<path d="M38.2336 33.3H24.6669C23.9858 33.3 23.4336 33.8522 23.4336 34.5334C23.4336 35.2145 23.9858 35.7667 24.6669 35.7667H38.2336C38.9147 35.7667 39.4669 35.2145 39.4669 34.5334C39.4669 33.8522 38.9147 33.3 38.2336 33.3Z" fill="#0FA7F0"/>
<path d="M38.2336 38.2334H24.6669C23.9858 38.2334 23.4336 38.7856 23.4336 39.4667C23.4336 40.1479 23.9858 40.7001 24.6669 40.7001H38.2336C38.9147 40.7001 39.4669 40.1479 39.4669 39.4667C39.4669 38.7856 38.9147 38.2334 38.2336 38.2334Z" fill="#0FA7F0"/>
</svg>
