<svg width="80" height="80" viewBox="0 0 80 80" fill="none" xmlns="http://www.w3.org/2000/svg">
<path d="M72.5 11.25H56.25V13.75H72.5C73.4946 13.75 74.4484 14.1451 75.1516 14.8483C75.8549 15.5516 76.25 16.5054 76.25 17.5V51.25H3.75V17.5C3.75 16.5054 4.14509 15.5516 4.84835 14.8483C5.55161 14.1451 6.50544 13.75 7.5 13.75H23.75V11.25H7.5C5.84301 11.252 4.25445 11.9111 3.08277 13.0828C1.9111 14.2544 1.25198 15.843 1.25 17.5V57.5C1.25198 59.157 1.9111 60.7456 3.08277 61.9172C4.25445 63.0889 5.84301 63.748 7.5 63.75H31.25V68.75H28.75C27.4239 68.75 26.1521 69.2768 25.2145 70.2145C24.2768 71.1521 23.75 72.4239 23.75 73.75V77.5C23.75 77.8315 23.8817 78.1495 24.1161 78.3839C24.3505 78.6183 24.6685 78.75 25 78.75H55C55.3315 78.75 55.6495 78.6183 55.8839 78.3839C56.1183 78.1495 56.25 77.8315 56.25 77.5V73.75C56.25 72.4239 55.7232 71.1521 54.7855 70.2145C53.8479 69.2768 52.5761 68.75 51.25 68.75H48.75V63.75H72.5C74.157 63.748 75.7456 63.0889 76.9172 61.9172C78.0889 60.7456 78.748 59.157 78.75 57.5V17.5C78.748 15.843 78.0889 14.2544 76.9172 13.0828C75.7456 11.9111 74.157 11.252 72.5 11.25ZM53.75 73.75V76.25H26.25V73.75C26.25 73.087 26.5134 72.4511 26.9822 71.9822C27.4511 71.5134 28.087 71.25 28.75 71.25H51.25C51.913 71.25 52.5489 71.5134 53.0178 71.9822C53.4866 72.4511 53.75 73.087 53.75 73.75ZM46.25 68.75H33.75V63.75H46.25V68.75ZM72.5 61.25H7.5C6.50544 61.25 5.55161 60.8549 4.84835 60.1516C4.14509 59.4484 3.75 58.4946 3.75 57.5V53.75H76.25V57.5C76.25 58.4946 75.8549 59.4484 75.1516 60.1516C74.4484 60.8549 73.4946 61.25 72.5 61.25Z" fill="#0FA7F0"/>
<path d="M33.75 56.25H46.25V58.75H33.75V56.25Z" fill="#0FA7F0"/>
<path d="M37.5 48.75V40.625C37.5 39.4647 37.0391 38.3519 36.2186 37.5314C35.3981 36.7109 34.2853 36.25 33.125 36.25C31.9647 36.25 30.8519 36.7109 30.0314 37.5314C29.2109 38.3519 28.75 39.4647 28.75 40.625V48.75H31.25V45H35V48.75H37.5ZM31.25 42.5V40.625C31.25 40.1277 31.4475 39.6508 31.7992 39.2992C32.1508 38.9475 32.6277 38.75 33.125 38.75C33.6223 38.75 34.0992 38.9475 34.4508 39.2992C34.8025 39.6508 35 40.1277 35 40.625V42.5H31.25Z" fill="#0FA7F0"/>
<path d="M40 36.25C39.6685 36.25 39.3505 36.3817 39.1161 36.6161C38.8817 36.8505 38.75 37.1685 38.75 37.5V48.75H41.25V43.75H43.75C44.7446 43.75 45.6984 43.3549 46.4016 42.6516C47.1049 41.9484 47.5 40.9946 47.5 40C47.5 39.0054 47.1049 38.0516 46.4016 37.3483C45.6984 36.6451 44.7446 36.25 43.75 36.25H40ZM45 40C45 40.3315 44.8683 40.6495 44.6339 40.8839C44.3995 41.1183 44.0815 41.25 43.75 41.25H41.25V38.75H43.75C44.0815 38.75 44.3995 38.8817 44.6339 39.1161C44.8683 39.3505 45 39.6685 45 40Z" fill="#0FA7F0"/>
<path d="M48.75 36.25H51.25V48.75H48.75V36.25Z" fill="#0FA7F0"/>
<path d="M23.75 20C23.7489 20.3143 23.8663 20.6175 24.0787 20.8491C24.2911 21.0808 24.583 21.2239 24.8963 21.25L28.175 21.5225C28.35 22.0358 28.5588 22.5369 28.8 23.0225L26.675 25.5338C26.4726 25.7732 26.3676 26.08 26.3808 26.3933C26.394 26.7065 26.5244 27.0034 26.7463 27.225L30.2813 30.76C30.5029 30.9818 30.7997 31.1123 31.113 31.1255C31.4263 31.1387 31.733 31.0337 31.9725 30.8313L34.4825 28.7063C34.9681 28.9477 35.4692 29.1564 35.9825 29.3313L36.25 32.6038C36.2761 32.917 36.4192 33.2089 36.6509 33.4213C36.8825 33.6337 37.1857 33.7511 37.5 33.75H42.5C42.8143 33.7511 43.1175 33.6337 43.3491 33.4213C43.5808 33.2089 43.7239 32.917 43.75 32.6038L44.0225 29.325C44.5358 29.1502 45.0369 28.9414 45.5225 28.7L48.0325 30.825C48.272 31.0274 48.5788 31.1324 48.892 31.1192C49.2053 31.106 49.5022 30.9756 49.7238 30.7538L53.2588 27.2188C53.4806 26.9972 53.611 26.7003 53.6242 26.387C53.6374 26.0738 53.5324 25.767 53.33 25.5275L51.205 23.0163C51.4462 22.5306 51.655 22.0295 51.83 21.5163L55.1038 21.25C55.417 21.2239 55.7089 21.0808 55.9213 20.8491C56.1337 20.6175 56.2511 20.3143 56.25 20V15C56.2511 14.6857 56.1337 14.3825 55.9213 14.1509C55.7089 13.9192 55.417 13.7761 55.1038 13.75L51.825 13.4775C51.6502 12.9642 51.4414 12.4631 51.2 11.9775L53.325 9.46751C53.5274 9.22804 53.6324 8.92125 53.6192 8.60799C53.606 8.29472 53.4756 7.99785 53.2538 7.77626L49.7225 4.24251C49.5009 4.02068 49.204 3.89024 48.8908 3.87704C48.5775 3.86384 48.2707 3.96886 48.0313 4.17126L45.5213 6.29626C45.0357 6.05486 44.5346 5.84607 44.0213 5.67126L43.75 2.39626C43.7239 2.08304 43.5808 1.79114 43.3491 1.57871C43.1175 1.36628 42.8143 1.24892 42.5 1.25001H37.5C37.1857 1.24892 36.8825 1.36628 36.6509 1.57871C36.4192 1.79114 36.2761 2.08304 36.25 2.39626L35.9813 5.67501C35.4679 5.84982 34.9668 6.05861 34.4813 6.30001L31.9713 4.17501C31.7318 3.97261 31.425 3.86759 31.1117 3.88079C30.7985 3.89399 30.5016 4.02443 30.28 4.24626L26.7425 7.77751C26.5207 7.9991 26.3902 8.29597 26.377 8.60924C26.3638 8.9225 26.4689 9.22929 26.6713 9.46876L28.7963 11.9788C28.5549 12.4643 28.3461 12.9654 28.1713 13.4788L24.8963 13.75C24.583 13.7761 24.2911 13.9192 24.0787 14.1509C23.8663 14.3825 23.7489 14.6857 23.75 15V20ZM26.25 16.15L29.23 15.9C29.4878 15.8787 29.7327 15.7779 29.9309 15.6116C30.129 15.4452 30.2706 15.2215 30.3363 14.9713C30.5646 14.0881 30.9141 13.2409 31.375 12.4538C31.5059 12.2303 31.5641 11.9718 31.5417 11.7139C31.5194 11.4559 31.4174 11.2113 31.25 11.0138L29.3225 8.73126L31.2313 6.82251L33.5138 8.75001C33.7113 8.91741 33.9559 9.01935 34.2139 9.04175C34.4718 9.06414 34.7303 9.00588 34.9538 8.87501C35.7411 8.41274 36.5888 8.0619 37.4725 7.83251C37.7228 7.7669 37.9465 7.62525 38.1128 7.42711C38.2792 7.22897 38.38 6.98409 38.4013 6.72626L38.65 3.75001H41.35L41.6 6.73001C41.6213 6.98784 41.7221 7.23272 41.8884 7.43086C42.0548 7.629 42.2785 7.77065 42.5288 7.83626C43.4125 8.06565 44.2602 8.41649 45.0475 8.87876C45.2712 9.00883 45.5297 9.0663 45.7874 9.04324C46.0451 9.02018 46.2893 8.91773 46.4863 8.75001L48.7688 6.81876L50.6775 8.72751L48.75 11.0138C48.5826 11.2113 48.4807 11.4559 48.4583 11.7139C48.4359 11.9718 48.4941 12.2303 48.625 12.4538C49.0873 13.2411 49.4381 14.0888 49.6675 14.9725C49.7331 15.2228 49.8748 15.4465 50.0729 15.6128C50.271 15.7792 50.5159 15.88 50.7738 15.9013L53.7538 16.1513V18.8513L50.7738 19.1013C50.5158 19.1226 50.2708 19.2236 50.0726 19.3902C49.8744 19.5568 49.7329 19.7808 49.6675 20.0313C49.4377 20.9149 49.0869 21.7625 48.625 22.55C48.4944 22.7733 48.4363 23.0316 48.4587 23.2893C48.4811 23.5469 48.5829 23.7913 48.75 23.9888L50.6813 26.2713L48.7725 28.1813L46.4863 26.25C46.2887 26.0826 46.0441 25.9807 45.7862 25.9583C45.5282 25.9359 45.2697 25.9941 45.0463 26.125C44.2589 26.5873 43.4112 26.9381 42.5275 27.1675C42.2773 27.2331 42.0535 27.3748 41.8872 27.5729C41.7208 27.771 41.6201 28.0159 41.5988 28.2738L41.35 31.25H38.65L38.4 28.27C38.3787 28.0122 38.2779 27.7673 38.1116 27.5692C37.9452 27.371 37.7215 27.2294 37.4713 27.1638C36.5875 26.9344 35.7399 26.5835 34.9525 26.1213C34.7291 25.9904 34.4706 25.9321 34.2126 25.9545C33.9547 25.9769 33.71 26.0788 33.5125 26.2463L31.23 28.1775L29.3213 26.2675L31.25 23.985C31.4171 23.7876 31.5189 23.5432 31.5413 23.2855C31.5637 23.0278 31.5056 22.7695 31.375 22.5463C30.9131 21.7587 30.5623 20.9111 30.3325 20.0275C30.2671 19.777 30.1256 19.553 29.9274 19.3864C29.7292 19.2198 29.4843 19.1189 29.2263 19.0975L26.25 18.85V16.15Z" fill="#0FA7F0"/>
<path d="M40 25C41.4834 25 42.9334 24.5601 44.1668 23.736C45.4001 22.9119 46.3614 21.7406 46.9291 20.3701C47.4967 18.9997 47.6453 17.4917 47.3559 16.0368C47.0665 14.582 46.3522 13.2456 45.3033 12.1967C44.2544 11.1478 42.918 10.4335 41.4632 10.1441C40.0083 9.85472 38.5003 10.0032 37.1299 10.5709C35.7594 11.1386 34.5881 12.0999 33.764 13.3332C32.9399 14.5666 32.5 16.0166 32.5 17.5C32.502 19.4885 33.2928 21.395 34.6989 22.8011C36.105 24.2072 38.0115 24.998 40 25ZM40 12.5C40.9889 12.5 41.9556 12.7932 42.7778 13.3427C43.6001 13.8921 44.241 14.673 44.6194 15.5866C44.9978 16.5002 45.0968 17.5055 44.9039 18.4755C44.711 19.4454 44.2348 20.3363 43.5355 21.0355C42.8363 21.7348 41.9454 22.211 40.9754 22.4039C40.0055 22.5969 39.0002 22.4978 38.0866 22.1194C37.173 21.741 36.3921 21.1001 35.8427 20.2779C35.2932 19.4556 35 18.4889 35 17.5C35 16.1739 35.5268 14.9022 36.4645 13.9645C37.4021 13.0268 38.6739 12.5 40 12.5Z" fill="#0FA7F0"/>
</svg>
