<svg width="74" height="74" viewBox="0 0 74 74" xmlns="http://www.w3.org/2000/svg">
<path d="M60.4341 22.2C65.2022 22.2 69.0675 18.3347 69.0675 13.5667C69.0675 8.79863 65.2022 4.93335 60.4341 4.93335C55.6661 4.93335 51.8008 8.79863 51.8008 13.5667C51.8069 18.3322 55.6686 22.1939 60.4341 22.2ZM66.4775 12.3334H61.6674V7.52335C64.0875 8.02222 65.9786 9.91331 66.4775 12.3334ZM59.2008 7.52335V13.5667C59.2008 14.2478 59.753 14.8 60.4341 14.8H66.4775C65.8594 17.8239 63.101 19.9251 60.0216 19.7178C56.9422 19.5106 54.4902 17.0586 54.283 13.9792C54.0757 10.8998 56.1769 8.14142 59.2008 7.52335Z" fill="#0FA7F0"/>
<path d="M69.0667 0H4.93333C2.20873 0 0 2.20873 0 4.93333V54.2667C0 56.9913 2.20873 59.2 4.93333 59.2H22.2V62.1847L14.1833 66.7628C14.126 66.8019 14.072 66.8456 14.0218 66.8935C13.9787 66.924 13.9376 66.9569 13.8984 66.9922C13.8052 67.0903 13.7289 67.2033 13.6727 67.3264C13.6727 67.3375 13.6592 67.3449 13.6542 67.356C13.5981 67.4957 13.568 67.6446 13.5654 67.7951C13.5654 67.8087 13.558 67.8198 13.558 67.8333V71.5333C13.558 72.8956 14.6624 74 16.0247 74H57.9667C59.329 74 60.4333 72.8956 60.4333 71.5333V67.8333C60.4333 67.8198 60.4259 67.8087 60.4259 67.7951C60.4234 67.6446 60.3933 67.4957 60.3371 67.356C60.3371 67.3449 60.3223 67.3363 60.3174 67.3252C60.2617 67.2025 60.1858 67.0899 60.0929 66.9922C60.0538 66.9569 60.0126 66.924 59.9696 66.8935C59.9194 66.8456 59.8654 66.8019 59.808 66.7628L51.8 62.1847V59.2H69.0667C71.7913 59.2 74 56.9913 74 54.2667V4.93333C74 2.20873 71.7913 0 69.0667 0ZM27.1333 46.8667V27.1333H46.8667V46.8667H27.1333ZM2.46667 46.8667V27.1333H24.6667V46.8667H2.46667ZM46.8667 24.6667H27.1333V2.46667H46.8667V24.6667ZM49.3333 27.1333H71.5333V46.8667H49.3333V27.1333ZM71.5333 4.93333V24.6667H49.3333V2.46667H69.0667C70.429 2.46667 71.5333 3.57103 71.5333 4.93333ZM4.93333 2.46667H24.6667V24.6667H2.46667V4.93333C2.46667 3.57103 3.57103 2.46667 4.93333 2.46667ZM16.0333 71.5333V69.0667H57.9667V71.5333H16.0333ZM19.4447 66.6L23.7614 64.1333H50.2386L54.5553 66.6H19.4447ZM49.3333 61.6667H24.6667V59.2H49.3333V61.6667ZM71.5333 54.2667C71.5333 55.629 70.429 56.7333 69.0667 56.7333H4.93333C3.57103 56.7333 2.46667 55.629 2.46667 54.2667V49.3333H71.5333V54.2667Z" fill="#0FA7F0"/>
<path d="M39.4674 51.8H34.5341C33.853 51.8 33.3008 52.3522 33.3008 53.0334C33.3008 53.7145 33.853 54.2667 34.5341 54.2667H39.4674C40.1486 54.2667 40.7008 53.7145 40.7008 53.0334C40.7008 52.3522 40.1486 51.8 39.4674 51.8Z" fill="#0FA7F0"/>
<path d="M6.16693 20.9665H20.9669C21.6481 20.9665 22.2003 20.4143 22.2003 19.7332C22.2003 19.052 21.6481 18.4998 20.9669 18.4998H19.7336V13.5665C19.7336 12.8854 19.1814 12.3332 18.5003 12.3332C17.8191 12.3332 17.2669 12.8854 17.2669 13.5665V18.4998H14.8003V7.39984C14.8003 6.71869 14.2481 6.1665 13.5669 6.1665C12.8858 6.1665 12.3336 6.71869 12.3336 7.39984V18.4998H9.86693V13.5665C9.86693 12.8854 9.31475 12.3332 8.63359 12.3332C7.95244 12.3332 7.40026 12.8854 7.40026 13.5665V18.4998H6.16693C5.48578 18.4998 4.93359 19.052 4.93359 19.7332C4.93359 20.4143 5.48578 20.9665 6.16693 20.9665Z" fill="#0FA7F0"/>
<path d="M43.1643 41.9334V37.0001C43.1643 36.3189 42.6121 35.7668 41.931 35.7668C41.2498 35.7668 40.6976 36.3189 40.6976 37.0001V41.9334H38.231V35.7668C38.231 35.0856 37.6788 34.5334 36.9977 34.5334C36.3165 34.5334 35.7643 35.0856 35.7643 35.7668V41.9334H33.2977V30.8334C33.2977 30.1523 32.7455 29.6001 32.0643 29.6001C31.3832 29.6001 30.831 30.1523 30.831 30.8334V41.9334C30.1498 41.9334 29.5977 42.4856 29.5977 43.1668C29.5977 43.8479 30.1498 44.4001 30.831 44.4001H43.1643C43.8455 44.4001 44.3976 43.8479 44.3976 43.1668C44.3976 42.4856 43.8455 41.9334 43.1643 41.9334Z" fill="#0FA7F0"/>
<path d="M32.0693 22.2C32.7504 22.2 33.3026 21.6478 33.3026 20.9667V19.7334H37.0026C37.6838 19.7334 38.2359 19.1812 38.2359 18.5C38.2359 17.8189 37.6838 17.2667 37.0026 17.2667H33.3026V14.8H41.9359C42.6171 14.8 43.1693 14.2478 43.1693 13.5667C43.1693 12.8855 42.6171 12.3334 41.9359 12.3334H33.3026V9.86668H40.7026C41.3838 9.86668 41.9359 9.3145 41.9359 8.63335C41.9359 7.9522 41.3838 7.40002 40.7026 7.40002H33.3026V6.16668C33.3026 5.48553 32.7504 4.93335 32.0693 4.93335C31.3881 4.93335 30.8359 5.48553 30.8359 6.16668V20.9667C30.8359 21.6478 31.3881 22.2 32.0693 22.2Z" fill="#0FA7F0"/>
<path d="M66.6 30.8334H57.9667C57.9667 30.1523 57.4145 29.6001 56.7333 29.6001C56.0522 29.6001 55.5 30.1523 55.5 30.8334V43.1668C55.5 43.8479 56.0522 44.4001 56.7333 44.4001C57.4145 44.4001 57.9667 43.8479 57.9667 43.1668H65.3667C66.0478 43.1668 66.6 42.6146 66.6 41.9334C66.6 41.2523 66.0478 40.7001 65.3667 40.7001H57.9667V38.2334H61.6667C62.3478 38.2334 62.9 37.6812 62.9 37.0001C62.9 36.3189 62.3478 35.7668 61.6667 35.7668H57.9667V33.3001H66.6C67.2811 33.3001 67.8333 32.7479 67.8333 32.0668C67.8333 31.3856 67.2811 30.8334 66.6 30.8334Z" fill="#0FA7F0"/>
<path d="M21.6799 31.0642C21.126 30.669 20.3566 30.797 19.9606 31.3503L14.772 38.6122L12.0833 35.0269C11.837 34.7147 11.461 34.5328 11.0633 34.5336C10.6629 34.5444 10.2927 34.7491 10.0705 35.0824L5.13717 42.4824C4.75913 43.0491 4.91209 43.815 5.47881 44.193C6.04552 44.5711 6.8114 44.4181 7.18944 43.8514L11.1558 37.9006L13.81 41.4402C14.0429 41.7508 14.4084 41.9336 14.7966 41.9336H14.8114C15.2038 41.9281 15.5702 41.7362 15.7981 41.4168L21.9648 32.7834C22.3603 32.2299 22.2328 31.4606 21.6799 31.0642Z" fill="#0FA7F0"/>
</svg>
