<svg width="80" height="80" viewBox="0 0 80 80" fill="none" xmlns="http://www.w3.org/2000/svg">
<path d="M72.5 13.75H71.25V5C71.25 4.00544 70.8549 3.05161 70.1516 2.34835C69.4484 1.64509 68.4946 1.25 67.5 1.25H12.5C11.5054 1.25 10.5516 1.64509 9.84835 2.34835C9.14509 3.05161 8.75 4.00544 8.75 5V13.75H7.5C5.84301 13.752 4.25445 14.4111 3.08277 15.5828C1.9111 16.7544 1.25198 18.343 1.25 20V57.5C1.25198 59.157 1.9111 60.7456 3.08277 61.9172C4.25445 63.0889 5.84301 63.748 7.5 63.75H31.25V68.75H28.75C27.4239 68.75 26.1521 69.2768 25.2145 70.2145C24.2768 71.1521 23.75 72.4239 23.75 73.75V77.5C23.75 77.8315 23.8817 78.1495 24.1161 78.3839C24.3505 78.6183 24.6685 78.75 25 78.75H55C55.3315 78.75 55.6495 78.6183 55.8839 78.3839C56.1183 78.1495 56.25 77.8315 56.25 77.5V73.75C56.25 72.4239 55.7232 71.1521 54.7855 70.2145C53.8479 69.2768 52.5761 68.75 51.25 68.75H48.75V63.75H72.5C74.157 63.748 75.7456 63.0889 76.9172 61.9172C78.0889 60.7456 78.748 59.157 78.75 57.5V20C78.748 18.343 78.0889 16.7544 76.9172 15.5828C75.7456 14.4111 74.157 13.752 72.5 13.75ZM11.25 13.75H24.8C24.6887 13.9288 24.6248 14.1331 24.6143 14.3435C24.6038 14.5539 24.647 14.7635 24.74 14.9525L25.815 17.1025C25.2045 18.1935 24.7237 19.3522 24.3825 20.555L22.105 21.3138C21.856 21.3967 21.6394 21.5559 21.4859 21.7688C21.3325 21.9817 21.2499 22.2375 21.25 22.5V27.5C21.2499 27.7625 21.3325 28.0183 21.4859 28.2312C21.6394 28.4441 21.856 28.6033 22.105 28.6862L24.3825 29.445C24.7237 30.6478 25.2045 31.8065 25.815 32.8975L24.74 35.0475C24.6227 35.2821 24.5822 35.5476 24.6241 35.8065C24.6661 36.0653 24.7884 36.3045 24.9738 36.49L28.51 40.0262C28.6955 40.2116 28.9347 40.3339 29.1935 40.3759C29.4524 40.4178 29.7179 40.3773 29.9525 40.26L32.1025 39.1863C33.1936 39.7954 34.3518 40.2757 35.5537 40.6175L36.315 42.895C36.3979 43.1438 36.5569 43.3602 36.7696 43.5137C36.9822 43.6671 37.2378 43.7498 37.5 43.75H42.5C42.7622 43.7498 43.0178 43.6671 43.2304 43.5137C43.4431 43.3602 43.6021 43.1438 43.685 42.895L44.4463 40.6175C45.6482 40.2757 46.8064 39.7954 47.8975 39.1863L50.0475 40.26C50.2821 40.3773 50.5476 40.4178 50.8065 40.3759C51.0653 40.3339 51.3045 40.2116 51.49 40.0262L55.0262 36.49C55.2116 36.3045 55.3339 36.0653 55.3759 35.8065C55.4178 35.5476 55.3773 35.2821 55.26 35.0475L54.185 32.8975C54.7955 31.8065 55.2763 30.6478 55.6175 29.445L57.895 28.6862C58.144 28.6033 58.3606 28.4441 58.5141 28.2312C58.6675 28.0183 58.7501 27.7625 58.75 27.5V22.5C58.7501 22.2375 58.6675 21.9817 58.5141 21.7688C58.3606 21.5559 58.144 21.3967 57.895 21.3138L55.6175 20.555C55.2763 19.3522 54.7955 18.1935 54.185 17.1025L55.26 14.9525C55.353 14.7635 55.3962 14.5539 55.3857 14.3435C55.3752 14.1331 55.3113 13.9288 55.2 13.75H68.75V45C68.75 45.3315 68.6183 45.6495 68.3839 45.8839C68.1495 46.1183 67.8315 46.25 67.5 46.25H12.5C12.1685 46.25 11.8505 46.1183 11.6161 45.8839C11.3817 45.6495 11.25 45.3315 11.25 45V13.75ZM52.625 14.64L51.6488 16.59C51.5535 16.7806 51.5085 16.9924 51.5182 17.2053C51.5278 17.4181 51.5917 17.625 51.7038 17.8062C52.4697 19.0451 53.0314 20.399 53.3675 21.8162C53.4168 22.0232 53.5181 22.2141 53.6618 22.3709C53.8055 22.5278 53.9869 22.6453 54.1888 22.7125L56.25 23.4013V26.5987L54.185 27.2875C53.9832 27.3547 53.8018 27.4722 53.6581 27.6291C53.5144 27.7859 53.4131 27.9768 53.3638 28.1838C53.0277 29.601 52.4659 30.9549 51.7 32.1937C51.5879 32.375 51.524 32.5819 51.5144 32.7947C51.5048 33.0076 51.5497 33.2194 51.645 33.41L52.6213 35.36L50.36 37.625L48.41 36.65C48.2197 36.5548 48.0082 36.5097 47.7955 36.5191C47.5829 36.5286 47.3762 36.5921 47.195 36.7038C45.9558 37.4687 44.6019 38.0299 43.185 38.3662C42.9781 38.4156 42.7872 38.5169 42.6303 38.6606C42.4735 38.8043 42.3559 38.9857 42.2887 39.1875L41.5987 41.25H38.4013L37.7113 39.1838C37.6441 38.9819 37.5265 38.8006 37.3697 38.6568C37.2128 38.5131 37.0219 38.4118 36.815 38.3625C35.3981 38.0262 34.0442 37.4649 32.805 36.7C32.6238 36.5883 32.4171 36.5248 32.2045 36.5154C31.9919 36.506 31.7803 36.551 31.59 36.6462L29.64 37.6213L27.375 35.36L28.3512 33.41C28.4465 33.2194 28.4915 33.0076 28.4818 32.7947C28.4722 32.5819 28.4083 32.375 28.2962 32.1937C27.5303 30.9549 26.9686 29.601 26.6325 28.1838C26.5832 27.9768 26.4819 27.7859 26.3382 27.6291C26.1944 27.4722 26.0131 27.3547 25.8113 27.2875L23.75 26.5987V23.4013L25.815 22.7125C26.0168 22.6453 26.1982 22.5278 26.3419 22.3709C26.4856 22.2141 26.5869 22.0232 26.6362 21.8162C26.9723 20.399 27.5341 19.0451 28.3 17.8062C28.4121 17.625 28.476 17.4181 28.4856 17.2053C28.4952 16.9924 28.4503 16.7806 28.355 16.59L27.3787 14.64L29.64 12.375L31.59 13.35C31.7803 13.4452 31.9919 13.4903 32.2045 13.4809C32.4171 13.4714 32.6238 13.4079 32.805 13.2963C34.0442 12.5313 35.3981 11.9701 36.815 11.6337C37.0219 11.5844 37.2128 11.4831 37.3697 11.3394C37.5265 11.1957 37.6441 11.0143 37.7113 10.8125L38.4013 8.75H41.5987L42.2887 10.8162C42.3559 11.0181 42.4735 11.1994 42.6303 11.3432C42.7872 11.4869 42.9781 11.5882 43.185 11.6375C44.6019 11.9738 45.9558 12.5351 47.195 13.3C47.3762 13.4117 47.5829 13.4752 47.7955 13.4846C48.0082 13.494 48.2197 13.449 48.41 13.3537L50.36 12.3787L52.625 14.64ZM12.5 3.75H67.5C67.8315 3.75 68.1495 3.8817 68.3839 4.11612C68.6183 4.35054 68.75 4.66848 68.75 5V11.25H52.7663L51.49 9.97375C51.3045 9.78839 51.0653 9.66608 50.8065 9.62413C50.5476 9.58218 50.2821 9.62271 50.0475 9.74L47.8975 10.8138C46.8064 10.2046 45.6482 9.7243 44.4463 9.3825L43.685 7.105C43.6021 6.85619 43.4431 6.63975 43.2304 6.48631C43.0178 6.33287 42.7622 6.2502 42.5 6.25H37.5C37.2378 6.2502 36.9822 6.33287 36.7696 6.48631C36.5569 6.63975 36.3979 6.85619 36.315 7.105L35.5537 9.3825C34.3518 9.7243 33.1936 10.2046 32.1025 10.8138L29.9525 9.74C29.7179 9.62271 29.4524 9.58218 29.1935 9.62413C28.9347 9.66608 28.6955 9.78839 28.51 9.97375L27.2338 11.25H11.25V5C11.25 4.66848 11.3817 4.35054 11.6161 4.11612C11.8505 3.8817 12.1685 3.75 12.5 3.75ZM7.5 16.25H8.75V45C8.75 45.9946 9.14509 46.9484 9.84835 47.6516C10.5516 48.3549 11.5054 48.75 12.5 48.75H67.5C68.4946 48.75 69.4484 48.3549 70.1516 47.6516C70.8549 46.9484 71.25 45.9946 71.25 45V16.25H72.5C73.4946 16.25 74.4484 16.6451 75.1516 17.3483C75.8549 18.0516 76.25 19.0054 76.25 20V51.25H3.75V20C3.75 19.0054 4.14509 18.0516 4.84835 17.3483C5.55161 16.6451 6.50544 16.25 7.5 16.25ZM53.75 73.75V76.25H26.25V73.75C26.25 73.087 26.5134 72.4511 26.9822 71.9822C27.4511 71.5134 28.087 71.25 28.75 71.25H51.25C51.913 71.25 52.5489 71.5134 53.0178 71.9822C53.4866 72.4511 53.75 73.087 53.75 73.75ZM46.25 68.75H33.75V63.75H46.25V68.75ZM72.5 61.25H7.5C6.50544 61.25 5.55161 60.8549 4.84835 60.1516C4.14509 59.4484 3.75 58.4946 3.75 57.5V53.75H76.25V57.5C76.25 58.4946 75.8549 59.4484 75.1516 60.1516C74.4484 60.8549 73.4946 61.25 72.5 61.25Z" fill="#0FA7F0"/>
<path d="M33.75 56.25H46.25V58.75H33.75V56.25Z" fill="#0FA7F0"/>
<path d="M40 16.25C38.2694 16.25 36.5777 16.7632 35.1388 17.7246C33.6998 18.6861 32.5783 20.0527 31.9161 21.6515C31.2538 23.2504 31.0805 25.0097 31.4181 26.707C31.7558 28.4044 32.5891 29.9635 33.8128 31.1872C35.0365 32.4109 36.5956 33.2442 38.293 33.5819C39.9903 33.9195 41.7496 33.7462 43.3485 33.0839C44.9473 32.4217 46.3139 31.3002 47.2754 29.8612C48.2368 28.4223 48.75 26.7306 48.75 25C48.7474 22.6802 47.8246 20.4561 46.1843 18.8157C44.5439 17.1754 42.3198 16.2526 40 16.25ZM40 31.25C38.7639 31.25 37.5555 30.8834 36.5277 30.1967C35.4999 29.5099 34.6988 28.5338 34.2258 27.3918C33.7527 26.2497 33.6289 24.9931 33.8701 23.7807C34.1113 22.5683 34.7065 21.4547 35.5806 20.5806C36.4547 19.7065 37.5683 19.1112 38.7807 18.8701C39.9931 18.6289 41.2497 18.7527 42.3918 19.2258C43.5338 19.6988 44.5099 20.4999 45.1967 21.5277C45.8834 22.5555 46.25 23.7639 46.25 25C46.248 26.657 45.5889 28.2456 44.4172 29.4172C43.2456 30.5889 41.657 31.248 40 31.25Z" fill="#0FA7F0"/>
<path d="M63.75 6.25H66.25V8.75H63.75V6.25Z" fill="#0FA7F0"/>
<path d="M58.75 6.25H61.25V8.75H58.75V6.25Z" fill="#0FA7F0"/>
<path d="M53.75 6.25H56.25V8.75H53.75V6.25Z" fill="#0FA7F0"/>
<path d="M23.75 6.25H26.25V8.75H23.75V6.25Z" fill="#0FA7F0"/>
<path d="M18.75 6.25H21.25V8.75H18.75V6.25Z" fill="#0FA7F0"/>
<path d="M13.75 6.25H16.25V8.75H13.75V6.25Z" fill="#0FA7F0"/>
</svg>
