<svg width="35" height="35" viewBox="0 0 35 35" fill="none" xmlns="http://www.w3.org/2000/svg">
<path d="M17.5 0C7.85065 0 0 7.85065 0 17.5C0 27.1493 7.85065 35 17.5 35C27.1501 35 35 27.1493 35 17.5C35 7.85065 27.1501 0 17.5 0ZM17.5 33.4783C8.68913 33.4783 1.52174 26.3109 1.52174 17.5C1.52174 8.68913 8.68913 1.52174 17.5 1.52174C26.3101 1.52174 33.4783 8.68913 33.4783 17.5C33.4783 26.3109 26.3101 33.4783 17.5 33.4783Z" fill="#F64810"/>
<path d="M13.6941 15.9784C13.6941 14.7199 12.67 13.6958 11.4115 13.6958C10.153 13.6958 9.12891 14.7199 9.12891 15.9784C9.12891 17.2369 10.153 18.261 11.4115 18.261C12.67 18.261 13.6941 17.2369 13.6941 15.9784ZM10.6506 15.9784C10.6506 15.5592 10.9923 15.2175 11.4115 15.2175C11.8308 15.2175 12.1724 15.5592 12.1724 15.9784C12.1724 16.3976 11.8308 16.7393 11.4115 16.7393C10.9923 16.7393 10.6506 16.3976 10.6506 15.9784Z" fill="#F64810"/>
<path d="M23.5873 13.6958C22.3288 13.6958 21.3047 14.7199 21.3047 15.9784C21.3047 17.2369 22.3288 18.261 23.5873 18.261C24.8458 18.261 25.8699 17.2369 25.8699 15.9784C25.8699 14.7199 24.8458 13.6958 23.5873 13.6958ZM23.5873 16.7393C23.1673 16.7393 22.8264 16.3976 22.8264 15.9784C22.8264 15.5592 23.1673 15.2175 23.5873 15.2175C24.0073 15.2175 24.3482 15.5592 24.3482 15.9784C24.3482 16.3976 24.0073 16.7393 23.5873 16.7393Z" fill="#F64810"/>
<path d="M20.5435 10.6521C20.6577 10.6521 20.7741 10.6262 20.8829 10.5722L23.9264 9.05046C24.3022 8.86253 24.4544 8.40525 24.2665 8.02938C24.0778 7.65351 23.6205 7.50057 23.2454 7.68927L20.2019 9.21101C19.826 9.39894 19.6738 9.85622 19.8618 10.2321C19.9957 10.4984 20.2643 10.6521 20.5435 10.6521Z" fill="#F64810"/>
<path d="M11.0733 9.0506L14.1168 10.5723C14.2256 10.6264 14.342 10.6522 14.4561 10.6522C14.7354 10.6522 15.004 10.4985 15.1379 10.2315C15.3258 9.8556 15.1736 9.39831 14.7978 9.21038L11.7543 7.68864C11.3769 7.49995 10.9211 7.65364 10.7332 8.02875C10.5445 8.40538 10.6975 8.8619 11.0733 9.0506Z" fill="#F64810"/>
<path d="M17.4998 21.3047C14.6617 21.3047 11.9591 22.5069 10.0843 24.6015C9.80431 24.915 9.83094 25.3951 10.1444 25.6759C10.2897 25.806 10.4708 25.8699 10.6519 25.8699C10.8612 25.8699 11.0689 25.7847 11.2195 25.6165C12.8052 23.8429 15.0939 22.8264 17.4998 22.8264C19.8988 22.8264 22.189 23.8437 23.7815 25.6173C24.0623 25.9308 24.5439 25.9551 24.8559 25.6751C25.1686 25.3943 25.1944 24.9135 24.9137 24.6008C23.032 22.5061 20.331 21.3047 17.4998 21.3047Z" fill="#F64810"/>
</svg>
