<svg width="54" height="54" viewBox="0 0 54 54" fill="none" xmlns="http://www.w3.org/2000/svg">
<path d="M46.55 21.25H45.285C44.8092 21.2509 44.3835 20.954 44.2201 20.5071C44.0798 20.1391 43.9291 19.7791 43.767 19.4226C43.5655 18.9891 43.6575 18.4758 43.997 18.1392L44.8986 17.2365C46.2371 15.8863 46.2346 13.7087 44.8928 12.3616L41.643 9.11175C40.2941 7.77085 38.1158 7.77085 36.7669 9.11175L35.8653 10.0122C35.5281 10.3504 35.0156 10.4423 34.5819 10.2422C34.2255 10.08 33.8655 9.9294 33.4963 9.7822C33.0471 9.61991 32.7483 9.19268 32.75 8.715V7.45C32.75 5.54459 31.2054 4 29.3 4H24.7C22.7946 4 21.25 5.54459 21.25 7.45V8.715C21.2509 9.19081 20.954 9.61646 20.5071 9.7799C20.1391 9.9202 19.7792 10.0708 19.4227 10.233C18.989 10.4335 18.4763 10.3417 18.1392 10.003L17.2365 9.1014C15.8878 7.76136 13.7103 7.76136 12.3616 9.1014L9.11175 12.3616C7.77085 13.7105 7.77085 15.8888 9.11175 17.2376L10.0122 18.1392C10.3517 18.4758 10.4437 18.9891 10.2422 19.4226C10.08 19.7791 9.9294 20.1391 9.78795 20.5082C9.62336 20.9578 9.19369 21.2549 8.715 21.25H7.45C5.54459 21.25 4 22.7946 4 24.7V29.3C4 31.2054 5.54459 32.75 7.45 32.75H8.715C9.19081 32.7491 9.61646 33.046 9.7799 33.4929C9.9202 33.8609 10.0708 34.2208 10.233 34.5774C10.4345 35.0109 10.3425 35.5242 10.003 35.8608L9.1014 36.7635C7.76136 38.1122 7.76136 40.2897 9.1014 41.6383L12.3513 44.8882C13.7001 46.2291 15.8785 46.2291 17.2273 44.8882L18.1289 43.9878C18.4661 43.6496 18.9786 43.5577 19.4123 43.7578C19.7688 43.9199 20.1287 44.0706 20.4979 44.2178C20.9494 44.3782 21.2509 44.8059 21.25 45.285V46.55C21.25 48.4554 22.7946 50 24.7 50H29.3C31.2054 50 32.75 48.4554 32.75 46.55V45.285C32.7491 44.8092 33.046 44.3835 33.4929 44.2201C33.8609 44.0798 34.2208 43.9291 34.5774 43.767C35.011 43.5665 35.5237 43.6583 35.8608 43.997L36.7635 44.8986C38.114 46.2365 40.291 46.2339 41.6383 44.8928L44.8882 41.643C46.2291 40.2941 46.2291 38.1158 44.8882 36.7669L43.9878 35.8653C43.6483 35.5288 43.5563 35.0155 43.7578 34.5819C43.9199 34.2254 44.0706 33.8655 44.2178 33.4963C44.3801 33.0471 44.8073 32.7483 45.285 32.75H46.55C48.4554 32.75 50 31.2054 50 29.3V24.7C50 22.7946 48.4554 21.25 46.55 21.25ZM47.7 29.3C47.7 29.9351 47.1851 30.45 46.55 30.45H45.285C43.8554 30.4553 42.576 31.3389 42.065 32.6741C41.9431 32.9961 41.8113 33.3131 41.6694 33.6252C41.0782 34.9304 41.3524 36.4651 42.3594 37.4846L43.2587 38.385C43.7081 38.8338 43.7085 39.562 43.2596 40.0114C43.2593 40.0117 43.259 40.012 43.2587 40.0122L40.0088 43.2621C39.5597 43.7111 38.8318 43.7111 38.3827 43.2621L37.4811 42.3617C36.4621 41.3539 34.9268 41.0794 33.6217 41.6717C33.31 41.8131 32.9927 41.9454 32.673 42.0673C31.3388 42.5782 30.4557 43.8564 30.45 45.285V46.55C30.45 47.1851 29.9351 47.7 29.3 47.7H24.7C24.0649 47.7 23.55 47.1851 23.55 46.55V45.285C23.5447 43.8554 22.661 42.576 21.3259 42.065C21.0039 41.9431 20.6869 41.8113 20.3748 41.6694C19.0696 41.0784 17.5351 41.3529 16.5155 42.3594L15.615 43.2587C15.1662 43.7081 14.438 43.7085 13.9886 43.2596C13.9883 43.2593 13.988 43.259 13.9878 43.2587L10.7379 40.0122C10.2889 39.5632 10.2889 38.8352 10.7379 38.3862L11.6383 37.4846C12.6453 36.4651 12.9195 34.9304 12.3283 33.6252C12.1868 33.3135 12.0546 32.9961 11.9327 32.6764C11.423 31.3408 10.1444 30.4563 8.715 30.45H7.45C6.81491 30.45 6.3 29.9351 6.3 29.3V24.7C6.3 24.0649 6.81491 23.55 7.45 23.55H8.715C10.1446 23.5447 11.424 22.6611 11.935 21.3259C12.0569 21.0039 12.1887 20.6869 12.3306 20.3748C12.9218 19.0696 12.6474 17.5349 11.6406 16.5154L10.7367 15.615C10.2873 15.1662 10.2869 14.438 10.7358 13.9886C10.7361 13.9883 10.7364 13.988 10.7367 13.9877L13.9866 10.7378C14.4357 10.2889 15.1636 10.2889 15.6127 10.7378L16.5143 11.6383C17.5333 12.6461 19.0686 12.9206 20.3737 12.3283C20.6854 12.1869 21.0027 12.0546 21.3224 11.9327C22.6585 11.4234 23.5435 10.1447 23.55 8.715V7.45C23.55 6.81491 24.0649 6.3 24.7 6.3H29.3C29.9351 6.3 30.45 6.81491 30.45 7.45V8.715C30.4553 10.1446 31.3389 11.424 32.6741 11.935C32.9961 12.0569 33.3131 12.1887 33.6251 12.3306C34.9303 12.9228 36.4655 12.6484 37.4846 11.6406L38.385 10.7413C38.8358 10.2954 39.5615 10.2954 40.0122 10.7413L43.2621 13.9912C43.7111 14.4403 43.7111 15.1682 43.2621 15.6173L42.3617 16.5189C41.3549 17.5384 41.0805 19.0731 41.6717 20.3783C41.8131 20.69 41.9454 21.0074 42.0673 21.3271C42.5782 22.6612 43.8564 23.5443 45.285 23.55H46.55C47.1851 23.55 47.7 24.0649 47.7 24.7V29.3Z" fill="white"/>
<path d="M37.3275 26.5399C37.316 26.2639 37.2964 25.9891 37.2631 25.7154C37.2263 25.421 37.1826 25.1289 37.1216 24.8425C37.0814 24.6551 37.0285 24.4699 36.9779 24.2836C36.9135 24.0467 36.841 23.8133 36.7605 23.5833C36.7042 23.4234 36.6455 23.2647 36.5857 23.1072C36.4377 22.7389 36.2683 22.3794 36.0786 22.0308C36.0636 22.0043 36.0544 21.9756 36.0395 21.9491C35.7404 21.4167 35.3939 20.912 35.0045 20.4415C34.9711 20.4001 34.9332 20.361 34.8987 20.3207C34.74 20.1333 34.5767 19.9516 34.4053 19.7779C34.3156 19.6848 34.2213 19.5974 34.127 19.5077C34.012 19.4007 33.897 19.2949 33.782 19.1937C33.6425 19.0725 33.5003 18.9552 33.3554 18.8418L33.1668 18.7015C31.3873 17.3687 29.2237 16.6488 27.0005 16.6499C26.8855 16.6499 26.7705 16.6672 26.6555 16.6718C26.4105 16.6787 26.1644 16.6925 25.9172 16.7178C25.7872 16.7316 25.6561 16.7465 25.5262 16.7649C25.1513 16.8142 24.7793 16.8838 24.4118 16.9731C18.8745 18.4039 15.5455 24.053 16.9764 29.5904C17.9194 33.2394 20.7702 36.0879 24.4199 37.0279C24.4383 37.0279 24.4578 37.0337 24.4774 37.0383C24.8746 37.1373 25.2769 37.2142 25.6826 37.2683C25.9505 37.3016 26.2185 37.3085 26.4876 37.3212C26.667 37.3304 26.8326 37.3568 27.02 37.3568C27.3478 37.3568 27.6882 37.335 28.0355 37.3005C28.0723 37.3005 28.1091 37.2901 28.1505 37.2855C28.4299 37.2545 28.7128 37.2131 29.0015 37.1556C29.1165 37.1337 29.2234 37.105 29.3338 37.0797C29.5362 37.0325 29.7375 36.9831 29.9445 36.9221C30.1055 36.8738 30.2619 36.8175 30.4194 36.7623C30.577 36.7071 30.7403 36.6473 30.9036 36.5852C31.0669 36.5231 31.2037 36.4518 31.3521 36.3828C31.5453 36.2942 31.7373 36.2068 31.9271 36.1033H31.934C33.0072 35.5287 33.9985 34.8129 34.8814 33.9747C35.1199 33.7521 35.3274 33.4983 35.4978 33.2203C36.3954 31.7813 36.9851 30.172 37.2297 28.4938C37.2619 28.2718 37.2907 28.0499 37.3079 27.8233C37.324 27.6152 37.3355 27.4082 37.3401 27.2012C37.3401 27.1356 37.3493 27.0735 37.3493 27.008C37.3505 26.8458 37.3344 26.6963 37.3275 26.5399ZM35.0355 27.2932C35.0355 27.3886 35.0275 27.4841 35.0217 27.5784C35.001 27.8567 34.9654 28.135 34.9182 28.4144C34.4884 30.8054 33.0039 32.8754 30.8771 34.0494C30.7345 34.1242 30.5942 34.1943 30.4539 34.2587L30.3585 34.3047C29.6903 34.608 28.9851 34.8215 28.2609 34.9395C28.2103 34.9476 28.1585 34.9568 28.1068 34.9637C27.963 34.9844 27.8216 35.0016 27.6813 35.0143C27.4961 35.0304 27.3098 35.0396 27.1201 35.043C27.0396 35.043 26.9602 35.043 26.8797 35.043C26.6076 35.0399 26.3359 35.023 26.0655 34.9924L25.9275 34.9763C25.6113 34.9349 25.2976 34.8758 24.988 34.7992C20.681 33.6968 18.0831 29.3116 19.1854 25.0045C19.9138 22.1585 22.1347 19.9353 24.9799 19.2041V19.2029C25.6406 19.0363 26.3191 18.9512 27.0005 18.9499C27.3293 18.9518 27.6577 18.9741 27.9837 19.0166C28.0711 19.027 28.1574 19.0431 28.2436 19.0557C28.492 19.0948 28.7381 19.1443 28.9808 19.2064C29.0601 19.2271 29.1395 19.2455 29.2177 19.2673C29.8292 19.4438 30.4179 19.6917 30.9714 20.0056C31.06 20.0574 31.1462 20.1114 31.2336 20.1655C31.4153 20.2805 31.5913 20.3955 31.7649 20.5266C31.8581 20.5944 31.9524 20.6611 32.0421 20.7336C32.2678 20.9138 32.4838 21.1057 32.6895 21.3086C32.7712 21.3914 32.8459 21.4822 32.9253 21.5685C33.0575 21.7122 33.1863 21.8594 33.3094 22.0147C33.3945 22.1216 33.4761 22.232 33.5566 22.3436C33.6716 22.5092 33.7866 22.6817 33.8901 22.8565C33.9476 22.9519 34.0051 23.0451 34.0638 23.1428C34.2121 23.4158 34.3442 23.6973 34.4594 23.9858C34.5054 24.1008 34.5445 24.2158 34.5859 24.3308C34.6606 24.5424 34.725 24.7563 34.7814 24.9725C34.8101 25.0875 34.8423 25.1898 34.8665 25.3014C34.9336 25.6121 34.9824 25.9267 35.0125 26.2432C35.0194 26.3272 35.0194 26.4123 35.0252 26.4962C35.0413 26.7607 35.0459 27.0264 35.0355 27.2932Z" fill="white"/>
</svg>
