<svg width="446" height="202" viewBox="0 0 446 202" fill="none" xmlns="http://www.w3.org/2000/svg">
<path d="M0.5 5C0.5 2.51472 2.51472 0.5 5 0.5H201C203.485 0.5 205.5 2.51472 205.5 5V197C205.5 199.485 203.485 201.5 201 201.5H5C2.51472 201.5 0.5 199.485 0.5 197V5Z" fill="white" stroke="#E6E6E6"/>
<path d="M236.5 5C236.5 2.51472 238.515 0.5 241 0.5H441C443.485 0.5 445.5 2.51472 445.5 5V197C445.5 199.485 443.485 201.5 441 201.5H241C238.515 201.5 236.5 199.485 236.5 197V5Z" fill="white" stroke="#E6E6E6"/>
<path d="M29.05 29.08H31.822C32.482 29.08 33.082 29.146 33.622 29.278C34.174 29.398 34.684 29.602 35.152 29.89C35.62 30.166 35.986 30.574 36.25 31.114C36.514 31.654 36.646 32.296 36.646 33.04C36.646 35.68 35.038 37 31.822 37H26.35V24.4H35.62V26.83H29.05V29.08ZM29.05 34.624H31.84C32.476 34.624 32.974 34.516 33.334 34.3C33.706 34.072 33.892 33.652 33.892 33.04C33.892 32.428 33.706 32.014 33.334 31.798C32.974 31.57 32.476 31.456 31.84 31.456H29.05V34.624ZM37.7225 32.68C37.7225 31.9 37.8605 31.21 38.1365 30.61C38.4125 29.998 38.7725 29.518 39.2165 29.17C39.6725 28.822 40.1465 28.558 40.6385 28.378C41.1425 28.198 41.6525 28.108 42.1685 28.108C43.0325 28.108 43.7765 28.27 44.4005 28.594C45.0365 28.918 45.5045 29.338 45.8045 29.854C46.1045 30.358 46.3085 30.934 46.4165 31.582C46.5365 32.218 46.5065 32.854 46.3265 33.49H40.2425C40.3745 34.09 40.7225 34.54 41.2865 34.84C41.8505 35.128 42.5165 35.272 43.2845 35.272C44.2325 35.272 45.1025 35.098 45.8945 34.75V36.712C45.0425 37.072 43.9865 37.252 42.7265 37.252C41.2865 37.252 40.0925 36.85 39.1445 36.046C38.1965 35.242 37.7225 34.12 37.7225 32.68ZM44.0765 31.87C44.1365 31.474 44.0225 31.066 43.7345 30.646C43.4465 30.226 42.9545 30.016 42.2585 30.016C41.7065 30.016 41.2325 30.184 40.8365 30.52C40.4405 30.844 40.2365 31.294 40.2245 31.87H44.0765ZM55.1091 34.606C55.1091 35.338 54.7491 35.962 54.0291 36.478C53.3091 36.982 52.2531 37.234 50.8611 37.234C49.5651 37.234 48.4671 37 47.5671 36.532V34.534C47.9151 34.726 48.3711 34.9 48.9351 35.056C49.4991 35.2 50.0331 35.272 50.5371 35.272C51.8811 35.272 52.5531 34.948 52.5531 34.3C52.5531 33.964 52.4031 33.742 52.1031 33.634C51.8151 33.514 51.4131 33.454 50.8971 33.454H49.2951V31.798H50.8971C51.8811 31.798 52.3731 31.528 52.3731 30.988C52.3731 30.376 51.8091 30.07 50.6811 30.07C50.2011 30.07 49.6791 30.142 49.1151 30.286C48.5511 30.43 48.0891 30.598 47.7291 30.79V28.81C48.6291 28.33 49.7151 28.09 50.9871 28.09C52.3671 28.09 53.3691 28.342 53.9931 28.846C54.6171 29.338 54.9291 29.944 54.9291 30.664C54.9291 31.156 54.7911 31.564 54.5151 31.888C54.2511 32.212 53.9031 32.434 53.4711 32.554C54.5631 32.89 55.1091 33.574 55.1091 34.606ZM64.9368 34.192L67.0788 28.36H69.6708L65.8368 38.044C64.9848 40.144 63.7428 41.194 62.1108 41.194C61.7628 41.194 61.3128 41.128 60.7608 40.996V38.926C61.1568 39.01 61.4988 39.052 61.7868 39.052C62.6988 39.052 63.3828 38.422 63.8388 37.162L63.8568 37.126L59.7708 28.36H62.4168L64.9368 34.192ZM70.0487 32.806C70.0487 32.014 70.1867 31.306 70.4627 30.682C70.7507 30.058 71.1287 29.566 71.5967 29.206C72.0647 28.834 72.5807 28.558 73.1447 28.378C73.7087 28.186 74.3027 28.09 74.9267 28.09C75.9227 28.09 76.8107 28.3 77.5907 28.72V30.916C76.9187 30.484 76.1507 30.268 75.2867 30.268C74.5307 30.268 73.8947 30.466 73.3787 30.862C72.8627 31.258 72.6047 31.864 72.6047 32.68C72.6047 33.46 72.8627 34.06 73.3787 34.48C73.8947 34.888 74.5187 35.092 75.2507 35.092C76.1747 35.092 76.9847 34.882 77.6807 34.462V36.676C76.7807 37.06 75.8087 37.252 74.7647 37.252C73.4687 37.252 72.3587 36.874 71.4347 36.118C70.5107 35.35 70.0487 34.246 70.0487 32.806ZM83.2456 30.34C83.1736 31.396 83.0716 32.308 82.9396 33.076C82.8196 33.832 82.6396 34.54 82.3996 35.2C82.1596 35.848 81.8356 36.34 81.4276 36.676C81.0196 37.012 80.5276 37.18 79.9516 37.18C79.5076 37.18 79.0516 37.096 78.5836 36.928V34.948C78.7636 35.02 78.9376 35.056 79.1056 35.056C79.7296 35.056 80.1676 34.498 80.4196 33.382C80.6716 32.266 80.8456 30.592 80.9416 28.36H87.9616V37H85.4596V30.34H83.2456ZM90.9815 36.046C90.0575 35.242 89.5955 34.12 89.5955 32.68C89.5955 31.24 90.0575 30.118 90.9815 29.314C91.9055 28.51 93.0335 28.108 94.3655 28.108C95.7095 28.108 96.8375 28.51 97.7495 29.314C98.6735 30.118 99.1355 31.24 99.1355 32.68C99.1355 34.12 98.6735 35.242 97.7495 36.046C96.8375 36.85 95.7095 37.252 94.3655 37.252C93.0335 37.252 91.9055 36.85 90.9815 36.046ZM96.0035 34.372C96.3995 33.928 96.5975 33.364 96.5975 32.68C96.5975 31.996 96.3995 31.438 96.0035 31.006C95.6075 30.562 95.0615 30.34 94.3655 30.34C93.6695 30.34 93.1235 30.562 92.7275 31.006C92.3435 31.438 92.1515 31.996 92.1515 32.68C92.1515 33.364 92.3435 33.928 92.7275 34.372C93.1235 34.804 93.6695 35.02 94.3655 35.02C95.0615 35.02 95.6075 34.804 96.0035 34.372ZM106.061 37H100.769V28.36H105.917C106.877 28.36 107.591 28.582 108.059 29.026C108.527 29.458 108.761 29.998 108.761 30.646C108.761 31.63 108.317 32.29 107.429 32.626C108.449 32.962 108.959 33.64 108.959 34.66C108.959 35.344 108.731 35.908 108.275 36.352C107.819 36.784 107.081 37 106.061 37ZM103.271 33.418V35.29H105.323C106.091 35.29 106.475 34.984 106.475 34.372C106.475 33.736 106.091 33.418 105.323 33.418H103.271ZM103.253 30.07V31.906H105.161C105.881 31.906 106.241 31.606 106.241 31.006C106.241 30.382 105.875 30.07 105.143 30.07H103.253ZM113.15 37H110.648V28.36H113.15V31.636H116.642V28.36H119.144V37H116.642V33.724H113.15V37ZM122.165 36.046C121.241 35.242 120.779 34.12 120.779 32.68C120.779 31.24 121.241 30.118 122.165 29.314C123.089 28.51 124.217 28.108 125.549 28.108C126.893 28.108 128.021 28.51 128.933 29.314C129.857 30.118 130.319 31.24 130.319 32.68C130.319 34.12 129.857 35.242 128.933 36.046C128.021 36.85 126.893 37.252 125.549 37.252C124.217 37.252 123.089 36.85 122.165 36.046ZM127.187 34.372C127.583 33.928 127.781 33.364 127.781 32.68C127.781 31.996 127.583 31.438 127.187 31.006C126.791 30.562 126.245 30.34 125.549 30.34C124.853 30.34 124.307 30.562 123.911 31.006C123.527 31.438 123.335 31.996 123.335 32.68C123.335 33.364 123.527 33.928 123.911 34.372C124.307 34.804 124.853 35.02 125.549 35.02C126.245 35.02 126.791 34.804 127.187 34.372ZM134.455 37H131.953V28.36H138.541V30.466H134.455V37ZM140.552 36.046C139.628 35.242 139.166 34.12 139.166 32.68C139.166 31.24 139.628 30.118 140.552 29.314C141.476 28.51 142.604 28.108 143.936 28.108C145.28 28.108 146.408 28.51 147.32 29.314C148.244 30.118 148.706 31.24 148.706 32.68C148.706 34.12 148.244 35.242 147.32 36.046C146.408 36.85 145.28 37.252 143.936 37.252C142.604 37.252 141.476 36.85 140.552 36.046ZM145.574 34.372C145.97 33.928 146.168 33.364 146.168 32.68C146.168 31.996 145.97 31.438 145.574 31.006C145.178 30.562 144.632 30.34 143.936 30.34C143.24 30.34 142.694 30.562 142.298 31.006C141.914 31.438 141.722 31.996 141.722 32.68C141.722 33.364 141.914 33.928 142.298 34.372C142.694 34.804 143.24 35.02 143.936 35.02C144.632 35.02 145.178 34.804 145.574 34.372ZM32.92 63.96H30.544V60.252C29.08 60.192 27.88 59.754 26.944 58.938C26.02 58.11 25.558 57.024 25.558 55.68C25.558 54.336 26.02 53.256 26.944 52.44C27.88 51.612 29.08 51.168 30.544 51.108V47.4H32.92V51.108C34.384 51.168 35.578 51.612 36.502 52.44C37.438 53.256 37.906 54.336 37.906 55.68C37.906 57.024 37.438 58.11 36.502 58.938C35.578 59.754 34.384 60.192 32.92 60.252V63.96ZM28.708 53.97C28.276 54.426 28.06 54.996 28.06 55.68C28.06 56.364 28.276 56.94 28.708 57.408C29.14 57.864 29.758 58.116 30.562 58.164V53.196C29.758 53.244 29.14 53.502 28.708 53.97ZM32.938 53.196V58.164C33.742 58.116 34.36 57.864 34.792 57.408C35.224 56.94 35.44 56.364 35.44 55.68C35.44 54.996 35.224 54.426 34.792 53.97C34.36 53.502 33.742 53.244 32.938 53.196ZM40.4268 59.046C39.5028 58.242 39.0408 57.12 39.0408 55.68C39.0408 54.24 39.5028 53.118 40.4268 52.314C41.3508 51.51 42.4788 51.108 43.8108 51.108C45.1548 51.108 46.2828 51.51 47.1948 52.314C48.1188 53.118 48.5808 54.24 48.5808 55.68C48.5808 57.12 48.1188 58.242 47.1948 59.046C46.2828 59.85 45.1548 60.252 43.8108 60.252C42.4788 60.252 41.3508 59.85 40.4268 59.046ZM45.4488 57.372C45.8448 56.928 46.0428 56.364 46.0428 55.68C46.0428 54.996 45.8448 54.438 45.4488 54.006C45.0528 53.562 44.5068 53.34 43.8108 53.34C43.1148 53.34 42.5688 53.562 42.1728 54.006C41.7888 54.438 41.5968 54.996 41.5968 55.68C41.5968 56.364 41.7888 56.928 42.1728 57.372C42.5688 57.804 43.1148 58.02 43.8108 58.02C44.5068 58.02 45.0528 57.804 45.4488 57.372ZM52.4283 52.62C53.1363 51.612 54.1803 51.108 55.5603 51.108C56.8683 51.108 57.8943 51.558 58.6383 52.458C59.3943 53.346 59.7723 54.42 59.7723 55.68C59.7723 56.94 59.3943 58.02 58.6383 58.92C57.8943 59.808 56.8683 60.252 55.5603 60.252C54.3723 60.252 53.4243 59.862 52.7163 59.082V63.96H50.2143V51.36H52.4283V52.62ZM56.6043 57.444C57.0123 56.964 57.2163 56.376 57.2163 55.68C57.2163 54.984 57.0123 54.402 56.6043 53.934C56.1963 53.454 55.6443 53.214 54.9483 53.214C54.4323 53.214 53.9703 53.352 53.5623 53.628C53.1663 53.904 52.8783 54.246 52.6983 54.654V56.706C52.8783 57.114 53.1663 57.456 53.5623 57.732C53.9703 58.008 54.4323 58.146 54.9483 58.146C55.6443 58.146 56.1963 57.912 56.6043 57.444ZM63.8416 60H61.4116V51.36H63.8056L66.4876 55.644L69.1876 51.36H71.5636V60H69.1516V54.906L67.1176 58.128H65.8756L63.8416 54.906V60ZM81.4031 57.768C81.4031 58.152 81.6071 58.344 82.0151 58.344C82.1831 58.344 82.3391 58.32 82.4831 58.272V59.91C82.0271 60.078 81.5651 60.162 81.0971 60.162C80.1851 60.162 79.5491 59.838 79.1891 59.19C78.2891 59.898 77.2511 60.252 76.0751 60.252C75.2231 60.252 74.5031 60.018 73.9151 59.55C73.3391 59.07 73.0511 58.422 73.0511 57.606C73.0511 56.922 73.2551 56.352 73.6631 55.896C74.0711 55.44 74.5451 55.134 75.0851 54.978C75.6251 54.81 76.2131 54.726 76.8491 54.726C77.5571 54.726 78.2411 54.804 78.9011 54.96V54.654C78.9011 54.21 78.7271 53.856 78.3791 53.592C78.0311 53.328 77.5271 53.196 76.8671 53.196C75.9071 53.196 74.8871 53.412 73.8071 53.844V51.684C74.9591 51.3 76.0751 51.108 77.1551 51.108C79.9871 51.108 81.4031 52.41 81.4031 55.014V57.768ZM77.4251 56.22C76.9091 56.22 76.4771 56.316 76.1291 56.508C75.7811 56.7 75.6071 57 75.6071 57.408C75.6071 57.72 75.7331 57.978 75.9851 58.182C76.2491 58.374 76.5731 58.47 76.9571 58.47C77.7131 58.47 78.3611 58.236 78.9011 57.768V56.418C78.3491 56.286 77.8571 56.22 77.4251 56.22ZM87.9713 60H85.4873V53.466H82.7333V51.36H90.7253V53.466H87.9713V60ZM94.2459 60H92.0679V51.36H94.5699V56.22L98.4219 51.36H100.582V60H98.0979V55.14L94.2459 60ZM104.917 52.62C105.625 51.612 106.669 51.108 108.049 51.108C109.357 51.108 110.383 51.558 111.127 52.458C111.883 53.346 112.261 54.42 112.261 55.68C112.261 56.94 111.883 58.02 111.127 58.92C110.383 59.808 109.357 60.252 108.049 60.252C106.861 60.252 105.913 59.862 105.205 59.082V63.96H102.703V51.36H104.917V52.62ZM109.093 57.444C109.501 56.964 109.705 56.376 109.705 55.68C109.705 54.984 109.501 54.402 109.093 53.934C108.685 53.454 108.133 53.214 107.437 53.214C106.921 53.214 106.459 53.352 106.051 53.628C105.655 53.904 105.367 54.246 105.187 54.654V56.706C105.367 57.114 105.655 57.456 106.051 57.732C106.459 58.008 106.921 58.146 107.437 58.146C108.133 58.146 108.685 57.912 109.093 57.444ZM114.8 59.046C113.876 58.242 113.414 57.12 113.414 55.68C113.414 54.24 113.876 53.118 114.8 52.314C115.724 51.51 116.852 51.108 118.184 51.108C119.528 51.108 120.656 51.51 121.568 52.314C122.492 53.118 122.954 54.24 122.954 55.68C122.954 57.12 122.492 58.242 121.568 59.046C120.656 59.85 119.528 60.252 118.184 60.252C116.852 60.252 115.724 59.85 114.8 59.046ZM119.822 57.372C120.218 56.928 120.416 56.364 120.416 55.68C120.416 54.996 120.218 54.438 119.822 54.006C119.426 53.562 118.88 53.34 118.184 53.34C117.488 53.34 116.942 53.562 116.546 54.006C116.162 54.438 115.97 54.996 115.97 55.68C115.97 56.364 116.162 56.928 116.546 57.372C116.942 57.804 117.488 58.02 118.184 58.02C118.88 58.02 119.426 57.804 119.822 57.372ZM129.879 60H124.587V51.36H129.735C130.695 51.36 131.409 51.582 131.877 52.026C132.345 52.458 132.579 52.998 132.579 53.646C132.579 54.63 132.135 55.29 131.247 55.626C132.267 55.962 132.777 56.64 132.777 57.66C132.777 58.344 132.549 58.908 132.093 59.352C131.637 59.784 130.899 60 129.879 60ZM127.089 56.418V58.29H129.141C129.909 58.29 130.293 57.984 130.293 57.372C130.293 56.736 129.909 56.418 129.141 56.418H127.089ZM127.071 53.07V54.906H128.979C129.699 54.906 130.059 54.606 130.059 54.006C130.059 53.382 129.693 53.07 128.961 53.07H127.071ZM142.188 57.768C142.188 58.152 142.392 58.344 142.8 58.344C142.968 58.344 143.124 58.32 143.268 58.272V59.91C142.812 60.078 142.35 60.162 141.882 60.162C140.97 60.162 140.334 59.838 139.974 59.19C139.074 59.898 138.036 60.252 136.86 60.252C136.008 60.252 135.288 60.018 134.7 59.55C134.124 59.07 133.836 58.422 133.836 57.606C133.836 56.922 134.04 56.352 134.448 55.896C134.856 55.44 135.33 55.134 135.87 54.978C136.41 54.81 136.998 54.726 137.634 54.726C138.342 54.726 139.026 54.804 139.686 54.96V54.654C139.686 54.21 139.512 53.856 139.164 53.592C138.816 53.328 138.312 53.196 137.652 53.196C136.692 53.196 135.672 53.412 134.592 53.844V51.684C135.744 51.3 136.86 51.108 137.94 51.108C140.772 51.108 142.188 52.41 142.188 55.014V57.768ZM138.21 56.22C137.694 56.22 137.262 56.316 136.914 56.508C136.566 56.7 136.392 57 136.392 57.408C136.392 57.72 136.518 57.978 136.77 58.182C137.034 58.374 137.358 58.47 137.742 58.47C138.498 58.47 139.146 58.236 139.686 57.768V56.418C139.134 56.286 138.642 56.22 138.21 56.22ZM147.111 60H144.609V51.36H147.111V54.636H150.603V51.36H153.105V60H150.603V56.724H147.111V60ZM157.404 60H155.226V51.36H157.728V56.22L161.58 51.36H163.74V60H161.256V55.14L157.404 60ZM167.913 60H165.105L167.373 57.102C166.797 56.85 166.359 56.484 166.059 56.004C165.759 55.524 165.609 54.984 165.609 54.384C165.609 53.532 165.909 52.818 166.509 52.242C167.121 51.654 167.973 51.36 169.065 51.36H173.745V60H171.243V57.426H169.839L167.913 60ZM168.147 54.456C168.147 54.804 168.267 55.074 168.507 55.266C168.759 55.458 169.113 55.554 169.569 55.554H171.243V53.34H169.569C168.621 53.34 168.147 53.712 168.147 54.456Z" fill="#454545"/>
<path d="M261.648 30.844C261.648 29.74 261.84 28.75 262.224 27.874C262.62 26.986 263.136 26.278 263.772 25.75C264.42 25.222 265.14 24.826 265.932 24.562C266.724 24.286 267.552 24.148 268.416 24.148C269.736 24.148 270.936 24.418 272.016 24.958V27.532C271.164 26.872 270.114 26.542 268.866 26.542C267.642 26.542 266.592 26.908 265.716 27.64C264.852 28.36 264.42 29.428 264.42 30.844C264.42 31.516 264.546 32.116 264.798 32.644C265.05 33.16 265.386 33.574 265.806 33.886C266.238 34.198 266.712 34.438 267.228 34.606C267.756 34.762 268.302 34.84 268.866 34.84C270.258 34.84 271.338 34.492 272.106 33.796V36.442C270.99 36.982 269.772 37.252 268.452 37.252C267.588 37.252 266.76 37.12 265.968 36.856C265.176 36.592 264.45 36.208 263.79 35.704C263.142 35.2 262.62 34.528 262.224 33.688C261.84 32.848 261.648 31.9 261.648 30.844ZM281.988 34.192L284.13 28.36H286.722L282.888 38.044C282.036 40.144 280.794 41.194 279.162 41.194C278.814 41.194 278.364 41.128 277.812 40.996V38.926C278.208 39.01 278.55 39.052 278.838 39.052C279.75 39.052 280.434 38.422 280.89 37.162L280.908 37.126L276.822 28.36H279.468L281.988 34.192ZM287.099 32.806C287.099 32.014 287.237 31.306 287.513 30.682C287.801 30.058 288.179 29.566 288.647 29.206C289.115 28.834 289.631 28.558 290.195 28.378C290.759 28.186 291.353 28.09 291.977 28.09C292.973 28.09 293.861 28.3 294.641 28.72V30.916C293.969 30.484 293.201 30.268 292.337 30.268C291.581 30.268 290.945 30.466 290.429 30.862C289.913 31.258 289.655 31.864 289.655 32.68C289.655 33.46 289.913 34.06 290.429 34.48C290.945 34.888 291.569 35.092 292.301 35.092C293.225 35.092 294.035 34.882 294.731 34.462V36.676C293.831 37.06 292.859 37.252 291.815 37.252C290.519 37.252 289.409 36.874 288.485 36.118C287.561 35.35 287.099 34.246 287.099 32.806ZM300.296 30.34C300.224 31.396 300.122 32.308 299.99 33.076C299.87 33.832 299.69 34.54 299.45 35.2C299.21 35.848 298.886 36.34 298.478 36.676C298.07 37.012 297.578 37.18 297.002 37.18C296.558 37.18 296.102 37.096 295.634 36.928V34.948C295.814 35.02 295.988 35.056 296.156 35.056C296.78 35.056 297.218 34.498 297.47 33.382C297.722 32.266 297.896 30.592 297.992 28.36H305.012V37H302.51V30.34H300.296ZM308.032 36.046C307.108 35.242 306.646 34.12 306.646 32.68C306.646 31.24 307.108 30.118 308.032 29.314C308.956 28.51 310.084 28.108 311.416 28.108C312.76 28.108 313.888 28.51 314.8 29.314C315.724 30.118 316.186 31.24 316.186 32.68C316.186 34.12 315.724 35.242 314.8 36.046C313.888 36.85 312.76 37.252 311.416 37.252C310.084 37.252 308.956 36.85 308.032 36.046ZM313.054 34.372C313.45 33.928 313.648 33.364 313.648 32.68C313.648 31.996 313.45 31.438 313.054 31.006C312.658 30.562 312.112 30.34 311.416 30.34C310.72 30.34 310.174 30.562 309.778 31.006C309.394 31.438 309.202 31.996 309.202 32.68C309.202 33.364 309.394 33.928 309.778 34.372C310.174 34.804 310.72 35.02 311.416 35.02C312.112 35.02 312.658 34.804 313.054 34.372ZM323.112 37H317.82V28.36H322.968C323.928 28.36 324.642 28.582 325.11 29.026C325.578 29.458 325.812 29.998 325.812 30.646C325.812 31.63 325.368 32.29 324.48 32.626C325.5 32.962 326.01 33.64 326.01 34.66C326.01 35.344 325.782 35.908 325.326 36.352C324.87 36.784 324.132 37 323.112 37ZM320.322 33.418V35.29H322.374C323.142 35.29 323.526 34.984 323.526 34.372C323.526 33.736 323.142 33.418 322.374 33.418H320.322ZM320.304 30.07V31.906H322.212C322.932 31.906 323.292 31.606 323.292 31.006C323.292 30.382 322.926 30.07 322.194 30.07H320.304ZM330.201 37H327.699V28.36H330.201V31.636H333.693V28.36H336.195V37H333.693V33.724H330.201V37ZM342.816 37H338.316V28.36H340.818V31.06H342.816C343.908 31.06 344.76 31.342 345.372 31.906C345.996 32.458 346.308 33.166 346.308 34.03C346.308 34.894 345.996 35.608 345.372 36.172C344.76 36.724 343.908 37 342.816 37ZM340.8 32.86V35.2H342.204C342.696 35.2 343.074 35.098 343.338 34.894C343.602 34.69 343.734 34.402 343.734 34.03C343.734 33.658 343.602 33.37 343.338 33.166C343.074 32.962 342.696 32.86 342.204 32.86H340.8ZM350.214 37H347.712V28.36H350.214V37ZM354.773 37H352.343V28.36H354.737L357.419 32.644L360.119 28.36H362.495V37H360.083V31.906L358.049 35.128H356.807L354.773 31.906V37ZM268.92 63.96H266.544V60.252C265.08 60.192 263.88 59.754 262.944 58.938C262.02 58.11 261.558 57.024 261.558 55.68C261.558 54.336 262.02 53.256 262.944 52.44C263.88 51.612 265.08 51.168 266.544 51.108V47.4H268.92V51.108C270.384 51.168 271.578 51.612 272.502 52.44C273.438 53.256 273.906 54.336 273.906 55.68C273.906 57.024 273.438 58.11 272.502 58.938C271.578 59.754 270.384 60.192 268.92 60.252V63.96ZM264.708 53.97C264.276 54.426 264.06 54.996 264.06 55.68C264.06 56.364 264.276 56.94 264.708 57.408C265.14 57.864 265.758 58.116 266.562 58.164V53.196C265.758 53.244 265.14 53.502 264.708 53.97ZM268.938 53.196V58.164C269.742 58.116 270.36 57.864 270.792 57.408C271.224 56.94 271.44 56.364 271.44 55.68C271.44 54.996 271.224 54.426 270.792 53.97C270.36 53.502 269.742 53.244 268.938 53.196ZM276.427 59.046C275.503 58.242 275.041 57.12 275.041 55.68C275.041 54.24 275.503 53.118 276.427 52.314C277.351 51.51 278.479 51.108 279.811 51.108C281.155 51.108 282.283 51.51 283.195 52.314C284.119 53.118 284.581 54.24 284.581 55.68C284.581 57.12 284.119 58.242 283.195 59.046C282.283 59.85 281.155 60.252 279.811 60.252C278.479 60.252 277.351 59.85 276.427 59.046ZM281.449 57.372C281.845 56.928 282.043 56.364 282.043 55.68C282.043 54.996 281.845 54.438 281.449 54.006C281.053 53.562 280.507 53.34 279.811 53.34C279.115 53.34 278.569 53.562 278.173 54.006C277.789 54.438 277.597 54.996 277.597 55.68C277.597 56.364 277.789 56.928 278.173 57.372C278.569 57.804 279.115 58.02 279.811 58.02C280.507 58.02 281.053 57.804 281.449 57.372ZM288.428 52.62C289.136 51.612 290.18 51.108 291.56 51.108C292.868 51.108 293.894 51.558 294.638 52.458C295.394 53.346 295.772 54.42 295.772 55.68C295.772 56.94 295.394 58.02 294.638 58.92C293.894 59.808 292.868 60.252 291.56 60.252C290.372 60.252 289.424 59.862 288.716 59.082V63.96H286.214V51.36H288.428V52.62ZM292.604 57.444C293.012 56.964 293.216 56.376 293.216 55.68C293.216 54.984 293.012 54.402 292.604 53.934C292.196 53.454 291.644 53.214 290.948 53.214C290.432 53.214 289.97 53.352 289.562 53.628C289.166 53.904 288.878 54.246 288.698 54.654V56.706C288.878 57.114 289.166 57.456 289.562 57.732C289.97 58.008 290.432 58.146 290.948 58.146C291.644 58.146 292.196 57.912 292.604 57.444ZM299.842 60H297.412V51.36H299.806L302.488 55.644L305.188 51.36H307.564V60H305.152V54.906L303.118 58.128H301.876L299.842 54.906V60ZM317.403 57.768C317.403 58.152 317.607 58.344 318.015 58.344C318.183 58.344 318.339 58.32 318.483 58.272V59.91C318.027 60.078 317.565 60.162 317.097 60.162C316.185 60.162 315.549 59.838 315.189 59.19C314.289 59.898 313.251 60.252 312.075 60.252C311.223 60.252 310.503 60.018 309.915 59.55C309.339 59.07 309.051 58.422 309.051 57.606C309.051 56.922 309.255 56.352 309.663 55.896C310.071 55.44 310.545 55.134 311.085 54.978C311.625 54.81 312.213 54.726 312.849 54.726C313.557 54.726 314.241 54.804 314.901 54.96V54.654C314.901 54.21 314.727 53.856 314.379 53.592C314.031 53.328 313.527 53.196 312.867 53.196C311.907 53.196 310.887 53.412 309.807 53.844V51.684C310.959 51.3 312.075 51.108 313.155 51.108C315.987 51.108 317.403 52.41 317.403 55.014V57.768ZM313.425 56.22C312.909 56.22 312.477 56.316 312.129 56.508C311.781 56.7 311.607 57 311.607 57.408C311.607 57.72 311.733 57.978 311.985 58.182C312.249 58.374 312.573 58.47 312.957 58.47C313.713 58.47 314.361 58.236 314.901 57.768V56.418C314.349 56.286 313.857 56.22 313.425 56.22ZM323.971 60H321.487V53.466H318.733V51.36H326.725V53.466H323.971V60ZM330.246 60H328.068V51.36H330.57V56.22L334.422 51.36H336.582V60H334.098V55.14L330.246 60ZM340.917 52.62C341.625 51.612 342.669 51.108 344.049 51.108C345.357 51.108 346.383 51.558 347.127 52.458C347.883 53.346 348.261 54.42 348.261 55.68C348.261 56.94 347.883 58.02 347.127 58.92C346.383 59.808 345.357 60.252 344.049 60.252C342.861 60.252 341.913 59.862 341.205 59.082V63.96H338.703V51.36H340.917V52.62ZM345.093 57.444C345.501 56.964 345.705 56.376 345.705 55.68C345.705 54.984 345.501 54.402 345.093 53.934C344.685 53.454 344.133 53.214 343.437 53.214C342.921 53.214 342.459 53.352 342.051 53.628C341.655 53.904 341.367 54.246 341.187 54.654V56.706C341.367 57.114 341.655 57.456 342.051 57.732C342.459 58.008 342.921 58.146 343.437 58.146C344.133 58.146 344.685 57.912 345.093 57.444ZM350.8 59.046C349.876 58.242 349.414 57.12 349.414 55.68C349.414 54.24 349.876 53.118 350.8 52.314C351.724 51.51 352.852 51.108 354.184 51.108C355.528 51.108 356.656 51.51 357.568 52.314C358.492 53.118 358.954 54.24 358.954 55.68C358.954 57.12 358.492 58.242 357.568 59.046C356.656 59.85 355.528 60.252 354.184 60.252C352.852 60.252 351.724 59.85 350.8 59.046ZM355.822 57.372C356.218 56.928 356.416 56.364 356.416 55.68C356.416 54.996 356.218 54.438 355.822 54.006C355.426 53.562 354.88 53.34 354.184 53.34C353.488 53.34 352.942 53.562 352.546 54.006C352.162 54.438 351.97 54.996 351.97 55.68C351.97 56.364 352.162 56.928 352.546 57.372C352.942 57.804 353.488 58.02 354.184 58.02C354.88 58.02 355.426 57.804 355.822 57.372ZM365.879 60H360.587V51.36H365.735C366.695 51.36 367.409 51.582 367.877 52.026C368.345 52.458 368.579 52.998 368.579 53.646C368.579 54.63 368.135 55.29 367.247 55.626C368.267 55.962 368.777 56.64 368.777 57.66C368.777 58.344 368.549 58.908 368.093 59.352C367.637 59.784 366.899 60 365.879 60ZM363.089 56.418V58.29H365.141C365.909 58.29 366.293 57.984 366.293 57.372C366.293 56.736 365.909 56.418 365.141 56.418H363.089ZM363.071 53.07V54.906H364.979C365.699 54.906 366.059 54.606 366.059 54.006C366.059 53.382 365.693 53.07 364.961 53.07H363.071ZM378.188 57.768C378.188 58.152 378.392 58.344 378.8 58.344C378.968 58.344 379.124 58.32 379.268 58.272V59.91C378.812 60.078 378.35 60.162 377.882 60.162C376.97 60.162 376.334 59.838 375.974 59.19C375.074 59.898 374.036 60.252 372.86 60.252C372.008 60.252 371.288 60.018 370.7 59.55C370.124 59.07 369.836 58.422 369.836 57.606C369.836 56.922 370.04 56.352 370.448 55.896C370.856 55.44 371.33 55.134 371.87 54.978C372.41 54.81 372.998 54.726 373.634 54.726C374.342 54.726 375.026 54.804 375.686 54.96V54.654C375.686 54.21 375.512 53.856 375.164 53.592C374.816 53.328 374.312 53.196 373.652 53.196C372.692 53.196 371.672 53.412 370.592 53.844V51.684C371.744 51.3 372.86 51.108 373.94 51.108C376.772 51.108 378.188 52.41 378.188 55.014V57.768ZM374.21 56.22C373.694 56.22 373.262 56.316 372.914 56.508C372.566 56.7 372.392 57 372.392 57.408C372.392 57.72 372.518 57.978 372.77 58.182C373.034 58.374 373.358 58.47 373.742 58.47C374.498 58.47 375.146 58.236 375.686 57.768V56.418C375.134 56.286 374.642 56.22 374.21 56.22ZM383.111 60H380.609V51.36H383.111V54.636H386.603V51.36H389.105V60H386.603V56.724H383.111V60ZM393.404 60H391.226V51.36H393.728V56.22L397.58 51.36H399.74V60H397.256V55.14L393.404 60ZM401.375 55.68C401.375 54.9 401.513 54.21 401.789 53.61C402.065 52.998 402.425 52.518 402.869 52.17C403.325 51.822 403.799 51.558 404.291 51.378C404.795 51.198 405.305 51.108 405.821 51.108C406.685 51.108 407.429 51.27 408.053 51.594C408.689 51.918 409.157 52.338 409.457 52.854C409.757 53.358 409.961 53.934 410.069 54.582C410.189 55.218 410.159 55.854 409.979 56.49H403.895C404.027 57.09 404.375 57.54 404.939 57.84C405.503 58.128 406.169 58.272 406.937 58.272C407.885 58.272 408.755 58.098 409.547 57.75V59.712C408.695 60.072 407.639 60.252 406.379 60.252C404.939 60.252 403.745 59.85 402.797 59.046C401.849 58.242 401.375 57.12 401.375 55.68ZM407.729 54.87C407.789 54.474 407.675 54.066 407.387 53.646C407.099 53.226 406.607 53.016 405.911 53.016C405.359 53.016 404.885 53.184 404.489 53.52C404.093 53.844 403.889 54.294 403.877 54.87H407.729ZM414.099 60H411.669V51.36H414.063L416.745 55.644L419.445 51.36H421.821V60H419.409V54.906L417.375 58.128H416.133L414.099 54.906V60Z" fill="#454545"/>
<path d="M25 82C25 80.3431 26.2267 79 27.7399 79H180.26C181.773 79 183 80.3431 183 82V91C183 92.6569 181.773 94 180.26 94H27.7399C26.2267 94 25 92.6569 25 91V82Z" fill="#E6E6E6"/>
<path d="M261 82C261 80.3431 262.227 79 263.74 79H416.26C417.773 79 419 80.3431 419 82V91C419 92.6569 417.773 94 416.26 94H263.74C262.227 94 261 92.6569 261 91V82Z" fill="#E6E6E6"/>
<path d="M30 85C30 83.8954 30.8954 83 32 83H73C74.1046 83 75 83.8954 75 85V88C75 89.1046 74.1046 90 73 90H32C30.8954 90 30 89.1046 30 88V85Z" fill="#B3B3B3"/>
<path d="M266 85C266 83.8954 266.895 83 268 83H309C310.105 83 311 83.8954 311 85V88C311 89.1046 310.105 90 309 90H268C266.895 90 266 89.1046 266 88V85Z" fill="#B3B3B3"/>
<path d="M81 85C81 83.8954 81.8954 83 83 83H124C125.105 83 126 83.8954 126 85V88C126 89.1046 125.105 90 124 90H83C81.8954 90 81 89.1046 81 88V85Z" fill="#B3B3B3"/>
<path d="M317 85C317 83.8954 317.895 83 319 83H360C361.105 83 362 83.8954 362 85V88C362 89.1046 361.105 90 360 90H319C317.895 90 317 89.1046 317 88V85Z" fill="#B3B3B3"/>
<path d="M132 85C132 83.8954 132.895 83 134 83H175C176.105 83 177 83.8954 177 85V88C177 89.1046 176.105 90 175 90H134C132.895 90 132 89.1046 132 88V85Z" fill="#B3B3B3"/>
<path d="M368 85C368 83.8954 368.895 83 370 83H411C412.105 83 413 83.8954 413 85V88C413 89.1046 412.105 90 411 90H370C368.895 90 368 89.1046 368 88V85Z" fill="#B3B3B3"/>
<path fill-rule="evenodd" clip-rule="evenodd" d="M183 112H25V111H183V112Z" fill="#E1E1E9"/>
<path d="M30 101C30 99.8954 30.8954 99 32 99H73C74.1046 99 75 99.8954 75 101V104C75 105.105 74.1046 106 73 106H32C30.8954 106 30 105.105 30 104V101Z" fill="#B3B3B3"/>
<path d="M81 101C81 99.8954 81.8954 99 83 99H124C125.105 99 126 99.8954 126 101V104C126 105.105 125.105 106 124 106H83C81.8954 106 81 105.105 81 104V101Z" fill="#E6E6E6"/>
<path d="M132 101C132 99.8954 132.895 99 134 99H175C176.105 99 177 99.8954 177 101V104C177 105.105 176.105 106 175 106H134C132.895 106 132 105.105 132 104V101Z" fill="#E6E6E6"/>
<path fill-rule="evenodd" clip-rule="evenodd" d="M419 112H261V111H419V112Z" fill="#E1E1E9"/>
<path d="M266 101C266 99.8954 266.895 99 268 99H309C310.105 99 311 99.8954 311 101V104C311 105.105 310.105 106 309 106H268C266.895 106 266 105.105 266 104V101Z" fill="#B3B3B3"/>
<path d="M317 101C317 99.8954 317.895 99 319 99H360C361.105 99 362 99.8954 362 101V104C362 105.105 361.105 106 360 106H319C317.895 106 317 105.105 317 104V101Z" fill="#F28100"/>
<path d="M368 101C368 99.8954 368.895 99 370 99H411C412.105 99 413 99.8954 413 101V104C413 105.105 412.105 106 411 106H370C368.895 106 368 105.105 368 104V101Z" fill="#F64810"/>
<path fill-rule="evenodd" clip-rule="evenodd" d="M183 129H25V128.154H183V129Z" fill="#E1E1E9"/>
<path d="M30 119.692C30 118.758 30.8954 118 32 118H73C74.1046 118 75 118.758 75 119.692V122.231C75 123.165 74.1046 123.923 73 123.923H32C30.8954 123.923 30 123.165 30 122.231V119.692Z" fill="#B3B3B3"/>
<path d="M81 119.692C81 118.758 81.8954 118 83 118H124C125.105 118 126 118.758 126 119.692V122.231C126 123.165 125.105 123.923 124 123.923H83C81.8954 123.923 81 123.165 81 122.231V119.692Z" fill="#E6E6E6"/>
<path d="M132 119.692C132 118.758 132.895 118 134 118H175C176.105 118 177 118.758 177 119.692V122.231C177 123.165 176.105 123.923 175 123.923H134C132.895 123.923 132 123.165 132 122.231V119.692Z" fill="#E6E6E6"/>
<path fill-rule="evenodd" clip-rule="evenodd" d="M419 129H261V128.154H419V129Z" fill="#E1E1E9"/>
<path d="M266 119.692C266 118.758 266.895 118 268 118H309C310.105 118 311 118.758 311 119.692V122.231C311 123.165 310.105 123.923 309 123.923H268C266.895 123.923 266 123.165 266 122.231V119.692Z" fill="#B3B3B3"/>
<path d="M317 119.692C317 118.758 317.895 118 319 118H360C361.105 118 362 118.758 362 119.692V122.231C362 123.165 361.105 123.923 360 123.923H319C317.895 123.923 317 123.165 317 122.231V119.692Z" fill="#F28100"/>
<path d="M368 119.692C368 118.758 368.895 118 370 118H411C412.105 118 413 118.758 413 119.692V122.231C413 123.165 412.105 123.923 411 123.923H370C368.895 123.923 368 123.165 368 122.231V119.692Z" fill="#F64810"/>
<path fill-rule="evenodd" clip-rule="evenodd" d="M183 146H25V145.154H183V146Z" fill="#E1E1E9"/>
<path d="M30 136.692C30 135.758 30.8954 135 32 135H73C74.1046 135 75 135.758 75 136.692V139.231C75 140.165 74.1046 140.923 73 140.923H32C30.8954 140.923 30 140.165 30 139.231V136.692Z" fill="#B3B3B3"/>
<path d="M81 136.692C81 135.758 81.8954 135 83 135H124C125.105 135 126 135.758 126 136.692V139.231C126 140.165 125.105 140.923 124 140.923H83C81.8954 140.923 81 140.165 81 139.231V136.692Z" fill="#E6E6E6"/>
<path d="M132 136.692C132 135.758 132.895 135 134 135H175C176.105 135 177 135.758 177 136.692V139.231C177 140.165 176.105 140.923 175 140.923H134C132.895 140.923 132 140.165 132 139.231V136.692Z" fill="#E6E6E6"/>
<path fill-rule="evenodd" clip-rule="evenodd" d="M419 146H261V145.154H419V146Z" fill="#E1E1E9"/>
<path d="M266 136.692C266 135.758 266.895 135 268 135H309C310.105 135 311 135.758 311 136.692V139.231C311 140.165 310.105 140.923 309 140.923H268C266.895 140.923 266 140.165 266 139.231V136.692Z" fill="#B3B3B3"/>
<path d="M317 136.692C317 135.758 317.895 135 319 135H360C361.105 135 362 135.758 362 136.692V139.231C362 140.165 361.105 140.923 360 140.923H319C317.895 140.923 317 140.165 317 139.231V136.692Z" fill="#F28100"/>
<path d="M368 136.692C368 135.758 368.895 135 370 135H411C412.105 135 413 135.758 413 136.692V139.231C413 140.165 412.105 140.923 411 140.923H370C368.895 140.923 368 140.165 368 139.231V136.692Z" fill="#F64810"/>
<path fill-rule="evenodd" clip-rule="evenodd" d="M183 163H25V162.154H183V163Z" fill="#E1E1E9"/>
<path d="M30 153.692C30 152.758 30.8954 152 32 152H73C74.1046 152 75 152.758 75 153.692V156.231C75 157.165 74.1046 157.923 73 157.923H32C30.8954 157.923 30 157.165 30 156.231V153.692Z" fill="#B3B3B3"/>
<path d="M81 153.692C81 152.758 81.8954 152 83 152H124C125.105 152 126 152.758 126 153.692V156.231C126 157.165 125.105 157.923 124 157.923H83C81.8954 157.923 81 157.165 81 156.231V153.692Z" fill="#E6E6E6"/>
<path d="M132 153.692C132 152.758 132.895 152 134 152H175C176.105 152 177 152.758 177 153.692V156.231C177 157.165 176.105 157.923 175 157.923H134C132.895 157.923 132 157.165 132 156.231V153.692Z" fill="#E6E6E6"/>
<path fill-rule="evenodd" clip-rule="evenodd" d="M419 163H261V162.154H419V163Z" fill="#E1E1E9"/>
<path d="M266 153.692C266 152.758 266.895 152 268 152H309C310.105 152 311 152.758 311 153.692V156.231C311 157.165 310.105 157.923 309 157.923H268C266.895 157.923 266 157.165 266 156.231V153.692Z" fill="#B3B3B3"/>
<path d="M317 153.692C317 152.758 317.895 152 319 152H360C361.105 152 362 152.758 362 153.692V156.231C362 157.165 361.105 157.923 360 157.923H319C317.895 157.923 317 157.165 317 156.231V153.692Z" fill="#F28100"/>
<path d="M368 153.692C368 152.758 368.895 152 370 152H411C412.105 152 413 152.758 413 153.692V156.231C413 157.165 412.105 157.923 411 157.923H370C368.895 157.923 368 157.165 368 156.231V153.692Z" fill="#F64810"/>
</svg>
