<svg width="465" height="216" viewBox="0 0 465 216" fill="none" xmlns="http://www.w3.org/2000/svg">
<rect x="0.5" y="0.5" width="464" height="215" rx="4.5" fill="white" stroke="#E6E6E6"/>
<path d="M0 5C0 2.23858 2.23858 0 5 0H460C462.761 0 465 2.23858 465 5V36H0V5Z" fill="#0FA7F0"/>
<path d="M13.576 17.528C13.576 16.5467 13.7467 15.6667 14.088 14.888C14.44 14.0987 14.8987 13.4693 15.464 13C16.04 12.5307 16.68 12.1787 17.384 11.944C18.088 11.6987 18.824 11.576 19.592 11.576C20.7653 11.576 21.832 11.816 22.792 12.296V14.584C22.0347 13.9973 21.1013 13.704 19.992 13.704C18.904 13.704 17.9707 14.0293 17.192 14.68C16.424 15.32 16.04 16.2693 16.04 17.528C16.04 18.1253 16.152 18.6587 16.376 19.128C16.6 19.5867 16.8987 19.9547 17.272 20.232C17.656 20.5093 18.0773 20.7227 18.536 20.872C19.0053 21.0107 19.4907 21.08 19.992 21.08C21.2293 21.08 22.1893 20.7707 22.872 20.152V22.504C21.88 22.984 20.7973 23.224 19.624 23.224C18.856 23.224 18.12 23.1067 17.416 22.872C16.712 22.6373 16.0667 22.296 15.48 21.848C14.904 21.4 14.44 20.8027 14.088 20.056C13.7467 19.3093 13.576 18.4667 13.576 17.528ZM25.1034 22.152C24.282 21.4373 23.8714 20.44 23.8714 19.16C23.8714 17.88 24.282 16.8827 25.1034 16.168C25.9247 15.4533 26.9274 15.096 28.1114 15.096C29.306 15.096 30.3087 15.4533 31.1194 16.168C31.9407 16.8827 32.3514 17.88 32.3514 19.16C32.3514 20.44 31.9407 21.4373 31.1194 22.152C30.3087 22.8667 29.306 23.224 28.1114 23.224C26.9274 23.224 25.9247 22.8667 25.1034 22.152ZM29.5674 20.664C29.9194 20.2693 30.0954 19.768 30.0954 19.16C30.0954 18.552 29.9194 18.056 29.5674 17.672C29.2154 17.2773 28.73 17.08 28.1114 17.08C27.4927 17.08 27.0074 17.2773 26.6554 17.672C26.314 18.056 26.1434 18.552 26.1434 19.16C26.1434 19.768 26.314 20.2693 26.6554 20.664C27.0074 21.048 27.4927 21.24 28.1114 21.24C28.73 21.24 29.2154 21.048 29.5674 20.664ZM40.0136 20.872C40.0136 21.5227 39.6936 22.0773 39.0536 22.536C38.4136 22.984 37.475 23.208 36.2376 23.208C35.0856 23.208 34.1096 23 33.3096 22.584V20.808C33.619 20.9787 34.0243 21.1333 34.5256 21.272C35.027 21.4 35.5016 21.464 35.9496 21.464C37.1443 21.464 37.7416 21.176 37.7416 20.6C37.7416 20.3013 37.6083 20.104 37.3416 20.008C37.0856 19.9013 36.7283 19.848 36.2696 19.848H34.8456V18.376H36.2696C37.1443 18.376 37.5816 18.136 37.5816 17.656C37.5816 17.112 37.0803 16.84 36.0776 16.84C35.651 16.84 35.187 16.904 34.6856 17.032C34.1843 17.16 33.7736 17.3093 33.4536 17.48V15.72C34.2536 15.2933 35.219 15.08 36.3496 15.08C37.5763 15.08 38.467 15.304 39.0216 15.752C39.5763 16.1893 39.8536 16.728 39.8536 17.368C39.8536 17.8053 39.731 18.168 39.4856 18.456C39.251 18.744 38.9416 18.9413 38.5576 19.048C39.5283 19.3467 40.0136 19.9547 40.0136 20.872ZM42.8528 25.032H40.8048V21.304H41.8768C42.6768 19.9173 43.0501 17.9227 42.9968 15.32H49.3168V21.304H50.4688V25.032H48.4208V23H42.8528V25.032ZM45.0448 17.016C44.9808 18.7653 44.6928 20.1947 44.1808 21.304H47.1088V17.016H45.0448ZM58.7143 21.016C58.7143 21.3573 58.8956 21.528 59.2583 21.528C59.4076 21.528 59.5463 21.5067 59.6743 21.464V22.92C59.2689 23.0693 58.8583 23.144 58.4423 23.144C57.6316 23.144 57.0663 22.856 56.7463 22.28C55.9463 22.9093 55.0236 23.224 53.9783 23.224C53.2209 23.224 52.5809 23.016 52.0583 22.6C51.5463 22.1733 51.2903 21.5973 51.2903 20.872C51.2903 20.264 51.4716 19.7573 51.8343 19.352C52.1969 18.9467 52.6183 18.6747 53.0983 18.536C53.5783 18.3867 54.1009 18.312 54.6663 18.312C55.2956 18.312 55.9036 18.3813 56.4903 18.52V18.248C56.4903 17.8533 56.3356 17.5387 56.0263 17.304C55.7169 17.0693 55.2689 16.952 54.6823 16.952C53.8289 16.952 52.9223 17.144 51.9622 17.528V15.608C52.9863 15.2667 53.9783 15.096 54.9383 15.096C57.4556 15.096 58.7143 16.2533 58.7143 18.568V21.016ZM55.1783 19.64C54.7196 19.64 54.3356 19.7253 54.0263 19.896C53.7169 20.0667 53.5623 20.3333 53.5623 20.696C53.5623 20.9733 53.6743 21.2027 53.8983 21.384C54.1329 21.5547 54.4209 21.64 54.7623 21.64C55.4343 21.64 56.0103 21.432 56.4903 21.016V19.816C55.9996 19.6987 55.5623 19.64 55.1783 19.64ZM63.0899 23H60.8659V15.32H63.0899V18.232H66.1939V15.32H68.4179V23H66.1939V20.088H63.0899V23ZM72.2394 23H70.3034V15.32H72.5274V19.64L75.9514 15.32H77.8714V23H75.6634V18.68L72.2394 23ZM79.3245 19.16C79.3245 18.4667 79.4472 17.8533 79.6925 17.32C79.9378 16.776 80.2578 16.3493 80.6525 16.04C81.0578 15.7307 81.4792 15.496 81.9165 15.336C82.3645 15.176 82.8178 15.096 83.2765 15.096C84.0445 15.096 84.7058 15.24 85.2605 15.528C85.8258 15.816 86.2418 16.1893 86.5085 16.648C86.7752 17.096 86.9565 17.608 87.0525 18.184C87.1592 18.7493 87.1325 19.3147 86.9725 19.88H81.5645C81.6818 20.4133 81.9912 20.8133 82.4925 21.08C82.9938 21.336 83.5858 21.464 84.2685 21.464C85.1112 21.464 85.8845 21.3093 86.5885 21V22.744C85.8312 23.064 84.8925 23.224 83.7725 23.224C82.4925 23.224 81.4312 22.8667 80.5885 22.152C79.7458 21.4373 79.3245 20.44 79.3245 19.16ZM84.9725 18.44C85.0258 18.088 84.9245 17.7253 84.6685 17.352C84.4125 16.9787 83.9752 16.792 83.3565 16.792C82.8658 16.792 82.4445 16.9413 82.0925 17.24C81.7405 17.528 81.5592 17.928 81.5485 18.44H84.9725ZM94.2461 23H92.0221V15.32H94.2461V18.232H97.3501V15.32H99.5741V23H97.3501V20.088H94.2461V23ZM102.26 22.152C101.438 21.4373 101.028 20.44 101.028 19.16C101.028 17.88 101.438 16.8827 102.26 16.168C103.081 15.4533 104.084 15.096 105.268 15.096C106.462 15.096 107.465 15.4533 108.276 16.168C109.097 16.8827 109.508 17.88 109.508 19.16C109.508 20.44 109.097 21.4373 108.276 22.152C107.465 22.8667 106.462 23.224 105.268 23.224C104.084 23.224 103.081 22.8667 102.26 22.152ZM106.724 20.664C107.076 20.2693 107.252 19.768 107.252 19.16C107.252 18.552 107.076 18.056 106.724 17.672C106.372 17.2773 105.886 17.08 105.268 17.08C104.649 17.08 104.164 17.2773 103.812 17.672C103.47 18.056 103.3 18.552 103.3 19.16C103.3 19.768 103.47 20.2693 103.812 20.664C104.164 21.048 104.649 21.24 105.268 21.24C105.886 21.24 106.372 21.048 106.724 20.664ZM115.664 23H110.96V15.32H115.536C116.389 15.32 117.024 15.5173 117.44 15.912C117.856 16.296 118.064 16.776 118.064 17.352C118.064 18.2267 117.669 18.8133 116.88 19.112C117.786 19.4107 118.24 20.0133 118.24 20.92C118.24 21.528 118.037 22.0293 117.632 22.424C117.226 22.808 116.57 23 115.664 23ZM113.184 19.816V21.48H115.008C115.69 21.48 116.032 21.208 116.032 20.664C116.032 20.0987 115.69 19.816 115.008 19.816H113.184ZM113.168 16.84V18.472H114.864C115.504 18.472 115.824 18.2053 115.824 17.672C115.824 17.1173 115.498 16.84 114.848 16.84H113.168ZM120.541 22.152C119.72 21.4373 119.309 20.44 119.309 19.16C119.309 17.88 119.72 16.8827 120.541 16.168C121.362 15.4533 122.365 15.096 123.549 15.096C124.744 15.096 125.746 15.4533 126.557 16.168C127.378 16.8827 127.789 17.88 127.789 19.16C127.789 20.44 127.378 21.4373 126.557 22.152C125.746 22.8667 124.744 23.224 123.549 23.224C122.365 23.224 121.362 22.8667 120.541 22.152ZM125.005 20.664C125.357 20.2693 125.533 19.768 125.533 19.16C125.533 18.552 125.357 18.056 125.005 17.672C124.653 17.2773 124.168 17.08 123.549 17.08C122.93 17.08 122.445 17.2773 122.093 17.672C121.752 18.056 121.581 18.552 121.581 19.16C121.581 19.768 121.752 20.2693 122.093 20.664C122.445 21.048 122.93 21.24 123.549 21.24C124.168 21.24 124.653 21.048 125.005 20.664ZM135.481 13.752C134.788 14.1787 133.972 14.392 133.033 14.392C132.094 14.392 131.278 14.1787 130.585 13.752V12.088C131.321 12.4933 132.137 12.696 133.033 12.696C133.929 12.696 134.745 12.4933 135.481 12.088V13.752ZM131.177 23H129.241V15.32H131.465V19.64L134.889 15.32H136.809V23H134.601V18.68L131.177 23ZM144.465 23H142.241V15.32H144.465V18.184H145.393L147.345 15.32H149.841L147.201 19.112L150.065 23H147.569L145.361 19.96H144.465V23ZM151.4 22.152C150.579 21.4373 150.168 20.44 150.168 19.16C150.168 17.88 150.579 16.8827 151.4 16.168C152.222 15.4533 153.224 15.096 154.408 15.096C155.603 15.096 156.606 15.4533 157.416 16.168C158.238 16.8827 158.648 17.88 158.648 19.16C158.648 20.44 158.238 21.4373 157.416 22.152C156.606 22.8667 155.603 23.224 154.408 23.224C153.224 23.224 152.222 22.8667 151.4 22.152ZM155.864 20.664C156.216 20.2693 156.392 19.768 156.392 19.16C156.392 18.552 156.216 18.056 155.864 17.672C155.512 17.2773 155.027 17.08 154.408 17.08C153.79 17.08 153.304 17.2773 152.952 17.672C152.611 18.056 152.44 18.552 152.44 19.16C152.44 19.768 152.611 20.2693 152.952 20.664C153.304 21.048 153.79 21.24 154.408 21.24C155.027 21.24 155.512 21.048 155.864 20.664ZM162.324 23H160.1V15.32H162.324V18.232H165.428V15.32H167.652V23H165.428V20.088H162.324V23ZM175.634 26.52H173.522V23.224C172.22 23.1707 171.154 22.7813 170.322 22.056C169.5 21.32 169.09 20.3547 169.09 19.16C169.09 17.9653 169.5 17.0053 170.322 16.28C171.154 15.544 172.22 15.1493 173.522 15.096V11.8H175.634V15.096C176.935 15.1493 177.996 15.544 178.818 16.28C179.65 17.0053 180.066 17.9653 180.066 19.16C180.066 20.3547 179.65 21.32 178.818 22.056C177.996 22.7813 176.935 23.1707 175.634 23.224V26.52ZM171.89 17.64C171.506 18.0453 171.314 18.552 171.314 19.16C171.314 19.768 171.506 20.28 171.89 20.696C172.274 21.1013 172.823 21.3253 173.538 21.368V16.952C172.823 16.9947 172.274 17.224 171.89 17.64ZM175.65 16.952V21.368C176.364 21.3253 176.914 21.1013 177.298 20.696C177.682 20.28 177.874 19.768 177.874 19.16C177.874 18.552 177.682 18.0453 177.298 17.64C176.914 17.224 176.364 16.9947 175.65 16.952ZM183.443 23H181.507V15.32H183.731V19.64L187.155 15.32H189.075V23H186.867V18.68L183.443 23ZM193.184 23H190.96V15.32H196.816V17.192H193.184V23ZM201.703 20.504L203.607 15.32H205.911L202.503 23.928C201.745 25.7947 200.641 26.728 199.191 26.728C198.881 26.728 198.481 26.6693 197.991 26.552V24.712C198.343 24.7867 198.647 24.824 198.903 24.824C199.713 24.824 200.321 24.264 200.727 23.144L200.743 23.112L197.111 15.32H199.463L201.703 20.504ZM208.99 16.44C209.619 15.544 210.547 15.096 211.774 15.096C212.937 15.096 213.849 15.496 214.51 16.296C215.182 17.0853 215.518 18.04 215.518 19.16C215.518 20.28 215.182 21.24 214.51 22.04C213.849 22.8293 212.937 23.224 211.774 23.224C210.718 23.224 209.875 22.8773 209.246 22.184V26.52H207.022V15.32H208.99V16.44ZM212.702 20.728C213.065 20.3013 213.246 19.7787 213.246 19.16C213.246 18.5413 213.065 18.024 212.702 17.608C212.339 17.1813 211.849 16.968 211.23 16.968C210.771 16.968 210.361 17.0907 209.998 17.336C209.646 17.5813 209.39 17.8853 209.23 18.248V20.072C209.39 20.4347 209.646 20.7387 209.998 20.984C210.361 21.2293 210.771 21.352 211.23 21.352C211.849 21.352 212.339 21.144 212.702 20.728ZM223.839 21.016C223.839 21.3573 224.021 21.528 224.383 21.528C224.533 21.528 224.671 21.5067 224.799 21.464V22.92C224.394 23.0693 223.983 23.144 223.567 23.144C222.757 23.144 222.191 22.856 221.871 22.28C221.071 22.9093 220.149 23.224 219.103 23.224C218.346 23.224 217.706 23.016 217.183 22.6C216.671 22.1733 216.415 21.5973 216.415 20.872C216.415 20.264 216.597 19.7573 216.959 19.352C217.322 18.9467 217.743 18.6747 218.223 18.536C218.703 18.3867 219.226 18.312 219.791 18.312C220.421 18.312 221.029 18.3813 221.615 18.52V18.248C221.615 17.8533 221.461 17.5387 221.151 17.304C220.842 17.0693 220.394 16.952 219.807 16.952C218.954 16.952 218.047 17.144 217.087 17.528V15.608C218.111 15.2667 219.103 15.096 220.063 15.096C222.581 15.096 223.839 16.2533 223.839 18.568V21.016ZM220.303 19.64C219.845 19.64 219.461 19.7253 219.151 19.896C218.842 20.0667 218.687 20.3333 218.687 20.696C218.687 20.9733 218.799 21.2027 219.023 21.384C219.258 21.5547 219.546 21.64 219.887 21.64C220.559 21.64 221.135 21.432 221.615 21.016V19.816C221.125 19.6987 220.687 19.64 220.303 19.64ZM234.615 25.032H232.567V23H225.991V15.32H228.215V21.128H231.239V15.32H233.463V21.176H234.615V25.032ZM237.943 23H236.007V15.32H238.231V19.64L241.655 15.32H243.575V23H241.367V18.68L237.943 23ZM247.396 23H245.46V15.32H247.684V19.64L251.108 15.32H253.028V23H250.82V18.68L247.396 23Z" fill="white"/>
<line x1="23" y1="114.5" x2="443" y2="114.5" stroke="#E6E6E6"/>
<path d="M31.624 56.8H34.024V68H31.624V63.488H26.6V68H24.2V56.8H26.6V61.312H31.624V56.8ZM42.9018 66.016C42.9018 66.3573 43.0831 66.528 43.4458 66.528C43.5951 66.528 43.7338 66.5067 43.8618 66.464V67.92C43.4564 68.0693 43.0458 68.144 42.6298 68.144C41.8191 68.144 41.2538 67.856 40.9338 67.28C40.1338 67.9093 39.2111 68.224 38.1658 68.224C37.4084 68.224 36.7684 68.016 36.2458 67.6C35.7338 67.1733 35.4778 66.5973 35.4778 65.872C35.4778 65.264 35.6591 64.7573 36.0218 64.352C36.3844 63.9467 36.8058 63.6747 37.2858 63.536C37.7658 63.3867 38.2884 63.312 38.8538 63.312C39.4831 63.312 40.0911 63.3813 40.6778 63.52V63.248C40.6778 62.8533 40.5231 62.5387 40.2138 62.304C39.9044 62.0693 39.4564 61.952 38.8698 61.952C38.0164 61.952 37.1098 62.144 36.1497 62.528V60.608C37.1738 60.2667 38.1658 60.096 39.1258 60.096C41.6431 60.096 42.9018 61.2533 42.9018 63.568V66.016ZM39.3658 64.64C38.9071 64.64 38.5231 64.7253 38.2138 64.896C37.9044 65.0667 37.7498 65.3333 37.7498 65.696C37.7498 65.9733 37.8618 66.2027 38.0858 66.384C38.3204 66.5547 38.6084 66.64 38.9498 66.64C39.6218 66.64 40.1978 66.432 40.6778 66.016V64.816C40.1871 64.6987 39.7498 64.64 39.3658 64.64ZM51.3574 65.872C51.3574 66.5227 51.0374 67.0773 50.3974 67.536C49.7574 67.984 48.8187 68.208 47.5814 68.208C46.4294 68.208 45.4534 68 44.6534 67.584V65.808C44.9627 65.9787 45.368 66.1333 45.8694 66.272C46.3707 66.4 46.8454 66.464 47.2934 66.464C48.488 66.464 49.0854 66.176 49.0854 65.6C49.0854 65.3013 48.952 65.104 48.6854 65.008C48.4294 64.9013 48.072 64.848 47.6134 64.848H46.1894V63.376H47.6134C48.488 63.376 48.9254 63.136 48.9254 62.656C48.9254 62.112 48.424 61.84 47.4214 61.84C46.9947 61.84 46.5307 61.904 46.0294 62.032C45.528 62.16 45.1174 62.3093 44.7974 62.48V60.72C45.5974 60.2933 46.5627 60.08 47.6934 60.08C48.92 60.08 49.8107 60.304 50.3654 60.752C50.92 61.1893 51.1974 61.728 51.1974 62.368C51.1974 62.8053 51.0747 63.168 50.8294 63.456C50.5947 63.744 50.2854 63.9413 49.9014 64.048C50.872 64.3467 51.3574 64.9547 51.3574 65.872ZM57.5543 68H52.8503V60.32H57.4263C58.2796 60.32 58.9143 60.5173 59.3303 60.912C59.7463 61.296 59.9543 61.776 59.9543 62.352C59.9543 63.2267 59.5596 63.8133 58.7703 64.112C59.6769 64.4107 60.1302 65.0133 60.1302 65.92C60.1302 66.528 59.9276 67.0293 59.5223 67.424C59.1169 67.808 58.4609 68 57.5543 68ZM55.0743 64.816V66.48H56.8983C57.5809 66.48 57.9223 66.208 57.9223 65.664C57.9223 65.0987 57.5809 64.816 56.8983 64.816H55.0743ZM55.0583 61.84V63.472H56.7543C57.3943 63.472 57.7143 63.2053 57.7143 62.672C57.7143 62.1173 57.3889 61.84 56.7383 61.84H55.0583ZM68.4955 66.016C68.4955 66.3573 68.6768 66.528 69.0395 66.528C69.1888 66.528 69.3275 66.5067 69.4555 66.464V67.92C69.0502 68.0693 68.6395 68.144 68.2235 68.144C67.4128 68.144 66.8475 67.856 66.5275 67.28C65.7275 67.9093 64.8048 68.224 63.7595 68.224C63.0022 68.224 62.3622 68.016 61.8395 67.6C61.3275 67.1733 61.0715 66.5973 61.0715 65.872C61.0715 65.264 61.2528 64.7573 61.6155 64.352C61.9782 63.9467 62.3995 63.6747 62.8795 63.536C63.3595 63.3867 63.8822 63.312 64.4475 63.312C65.0768 63.312 65.6848 63.3813 66.2715 63.52V63.248C66.2715 62.8533 66.1168 62.5387 65.8075 62.304C65.4982 62.0693 65.0502 61.952 64.4635 61.952C63.6102 61.952 62.7035 62.144 61.7435 62.528V60.608C62.7675 60.2667 63.7595 60.096 64.7195 60.096C67.2368 60.096 68.4955 61.2533 68.4955 63.568V66.016ZM64.9595 64.64C64.5008 64.64 64.1168 64.7253 63.8075 64.896C63.4982 65.0667 63.3435 65.3333 63.3435 65.696C63.3435 65.9733 63.4555 66.2027 63.6795 66.384C63.9142 66.5547 64.2022 66.64 64.5435 66.64C65.2155 66.64 65.7915 66.432 66.2715 66.016V64.816C65.7808 64.6987 65.3435 64.64 64.9595 64.64ZM72.8711 68H70.6471V60.32H72.8711V63.232H75.9751V60.32H78.1991V68H75.9751V65.088H72.8711V68ZM82.0206 68H80.0846V60.32H82.3086V64.64L85.7326 60.32H87.6526V68H85.4446V63.68L82.0206 68ZM89.1058 64.16C89.1058 63.4667 89.2284 62.8533 89.4738 62.32C89.7191 61.776 90.0391 61.3493 90.4338 61.04C90.8391 60.7307 91.2604 60.496 91.6978 60.336C92.1458 60.176 92.5991 60.096 93.0578 60.096C93.8258 60.096 94.4871 60.24 95.0418 60.528C95.6071 60.816 96.0231 61.1893 96.2898 61.648C96.5564 62.096 96.7378 62.608 96.8338 63.184C96.9404 63.7493 96.9138 64.3147 96.7538 64.88H91.3458C91.4631 65.4133 91.7724 65.8133 92.2738 66.08C92.7751 66.336 93.3671 66.464 94.0498 66.464C94.8924 66.464 95.6658 66.3093 96.3698 66V67.744C95.6124 68.064 94.6738 68.224 93.5538 68.224C92.2738 68.224 91.2124 67.8667 90.3698 67.152C89.5271 66.4373 89.1058 65.44 89.1058 64.16ZM94.7538 63.44C94.8071 63.088 94.7058 62.7253 94.4498 62.352C94.1938 61.9787 93.7564 61.792 93.1378 61.792C92.6471 61.792 92.2258 61.9413 91.8738 62.24C91.5218 62.528 91.3404 62.928 91.3298 63.44H94.7538Z" fill="#454545"/>
<path d="M104.699 60.88L103.659 62.848L101.963 61.664L103.371 60.224L101.387 59.824L102.091 57.872L103.915 58.784L103.659 56.8H105.739L105.483 58.784L107.307 57.872L108.011 59.824L106.027 60.224L107.435 61.664L105.739 62.848L104.699 60.88Z" fill="#F64810"/>
<path d="M24.568 101H23.112L27.992 89.8H29.48L34.344 101H32.904L31.752 98.296H25.72L24.568 101ZM28.552 91.608L26.248 97.048H31.224L28.904 91.608C28.8827 91.5547 28.824 91.4107 28.728 91.176C28.632 91.4213 28.5733 91.5653 28.552 91.608ZM36.9328 101H35.6528V93.32H36.9328V96.568H41.3808V93.32H42.6608V101H41.3808V97.752H36.9328V101ZM51.2678 99.4C51.2678 99.7947 51.4651 99.992 51.8598 99.992C52.0304 99.992 52.2278 99.9547 52.4518 99.88V100.92C52.1318 101.037 51.8118 101.096 51.4918 101.096C50.7558 101.096 50.2864 100.787 50.0838 100.168C49.2624 100.851 48.2651 101.192 47.0918 101.192C46.3451 101.192 45.7051 100.995 45.1718 100.6C44.6491 100.195 44.3878 99.6133 44.3878 98.856C44.3878 97.9493 44.7238 97.2933 45.3958 96.888C46.0784 96.472 46.8998 96.264 47.8598 96.264C48.5638 96.264 49.2731 96.344 49.9878 96.504V96.232C49.9878 95.6453 49.7958 95.1813 49.4118 94.84C49.0278 94.488 48.4891 94.312 47.7958 94.312C46.8251 94.312 45.8918 94.504 44.9958 94.888V93.64C45.9984 93.2987 46.9744 93.128 47.9238 93.128C48.9691 93.128 49.7851 93.4107 50.3718 93.976C50.9691 94.5307 51.2678 95.336 51.2678 96.392V99.4ZM45.6998 98.792C45.6998 99.2187 45.8598 99.544 46.1798 99.768C46.5104 99.9813 46.9051 100.088 47.3638 100.088C48.4198 100.088 49.2944 99.7147 49.9878 98.968V97.56C49.2624 97.4107 48.6118 97.336 48.0358 97.336C47.3851 97.336 46.8304 97.4533 46.3718 97.688C45.9238 97.912 45.6998 98.28 45.6998 98.792ZM56.5446 94.504C56.4913 95.3467 56.4273 96.0827 56.3526 96.712C56.278 97.3413 56.1713 97.9493 56.0326 98.536C55.894 99.112 55.7233 99.5813 55.5206 99.944C55.3286 100.307 55.0833 100.595 54.7846 100.808C54.486 101.021 54.1446 101.128 53.7606 101.128C53.4513 101.128 53.142 101.069 52.8326 100.952V99.944C53.0033 100.008 53.174 100.04 53.3446 100.04C53.9846 100.04 54.4486 99.48 54.7366 98.36C55.0353 97.2293 55.222 95.5493 55.2966 93.32H60.9446V101H59.6646V94.504H56.5446ZM64.397 101H63.309V93.32H64.589V98.936L69.293 93.32H70.381V101H69.101V95.384L64.397 101ZM78.4905 98.936C78.4905 99.6507 78.1812 100.205 77.5625 100.6C76.9545 100.995 76.1118 101.192 75.0345 101.192C73.9572 101.192 73.0132 100.995 72.2025 100.6V99.384C72.9812 99.8 73.8718 100.008 74.8745 100.008C76.4318 100.008 77.2105 99.6027 77.2105 98.792C77.2105 98.056 76.6452 97.688 75.5145 97.688H73.8345V96.504H75.5145C76.5385 96.504 77.0505 96.1733 77.0505 95.512C77.0505 95.1067 76.8585 94.8027 76.4745 94.6C76.0905 94.3973 75.5785 94.296 74.9385 94.296C74.0105 94.296 73.1412 94.4987 72.3305 94.904V93.704C73.1945 93.3093 74.1118 93.112 75.0825 93.112C76.1278 93.112 76.9278 93.3147 77.4825 93.72C78.0478 94.1147 78.3305 94.6533 78.3305 95.336C78.3305 95.7947 78.2025 96.1733 77.9465 96.472C77.6905 96.7707 77.3438 96.968 76.9065 97.064C77.3652 97.1813 77.7438 97.4053 78.0425 97.736C78.3412 98.0667 78.4905 98.4667 78.4905 98.936ZM90.5959 99.4C90.5959 99.7947 90.7932 99.992 91.1879 99.992C91.3585 99.992 91.5559 99.9547 91.7799 99.88V100.92C91.4599 101.037 91.1399 101.096 90.8199 101.096C90.0839 101.096 89.6145 100.787 89.4119 100.168C88.5905 100.851 87.5932 101.192 86.4199 101.192C85.6732 101.192 85.0332 100.995 84.4999 100.6C83.9772 100.195 83.7159 99.6133 83.7159 98.856C83.7159 97.9493 84.0519 97.2933 84.7239 96.888C85.4065 96.472 86.2279 96.264 87.1879 96.264C87.8919 96.264 88.6012 96.344 89.3159 96.504V96.232C89.3159 95.6453 89.1239 95.1813 88.7399 94.84C88.3559 94.488 87.8172 94.312 87.1239 94.312C86.1532 94.312 85.2199 94.504 84.3239 94.888V93.64C85.3265 93.2987 86.3025 93.128 87.2519 93.128C88.2972 93.128 89.1132 93.4107 89.6999 93.976C90.2972 94.5307 90.5959 95.336 90.5959 96.392V99.4ZM85.0279 98.792C85.0279 99.2187 85.1879 99.544 85.5079 99.768C85.8385 99.9813 86.2332 100.088 86.6919 100.088C87.7479 100.088 88.6225 99.7147 89.3159 98.968V97.56C88.5905 97.4107 87.9399 97.336 87.3639 97.336C86.7132 97.336 86.1585 97.4533 85.6999 97.688C85.2519 97.912 85.0279 98.28 85.0279 98.792ZM94.4328 101H93.1528V93.32H94.4328V96.568H98.8808V93.32H100.161V101H98.8808V97.752H94.4328V101ZM108.768 99.4C108.768 99.7947 108.965 99.992 109.36 99.992C109.53 99.992 109.728 99.9547 109.952 99.88V100.92C109.632 101.037 109.312 101.096 108.992 101.096C108.256 101.096 107.786 100.787 107.584 100.168C106.762 100.851 105.765 101.192 104.592 101.192C103.845 101.192 103.205 100.995 102.672 100.6C102.149 100.195 101.888 99.6133 101.888 98.856C101.888 97.9493 102.224 97.2933 102.896 96.888C103.578 96.472 104.4 96.264 105.36 96.264C106.064 96.264 106.773 96.344 107.488 96.504V96.232C107.488 95.6453 107.296 95.1813 106.912 94.84C106.528 94.488 105.989 94.312 105.296 94.312C104.325 94.312 103.392 94.504 102.496 94.888V93.64C103.498 93.2987 104.474 93.128 105.424 93.128C106.469 93.128 107.285 93.4107 107.872 93.976C108.469 94.5307 108.768 95.336 108.768 96.392V99.4ZM103.2 98.792C103.2 99.2187 103.36 99.544 103.68 99.768C104.01 99.9813 104.405 100.088 104.864 100.088C105.92 100.088 106.794 99.7147 107.488 98.968V97.56C106.762 97.4107 106.112 97.336 105.536 97.336C104.885 97.336 104.33 97.4533 103.872 97.688C103.424 97.912 103.2 98.28 103.2 98.792ZM114.045 94.504C113.991 95.3467 113.927 96.0827 113.853 96.712C113.778 97.3413 113.671 97.9493 113.533 98.536C113.394 99.112 113.223 99.5813 113.021 99.944C112.829 100.307 112.583 100.595 112.285 100.808C111.986 101.021 111.645 101.128 111.261 101.128C110.951 101.128 110.642 101.069 110.333 100.952V99.944C110.503 100.008 110.674 100.04 110.845 100.04C111.485 100.04 111.949 99.48 112.237 98.36C112.535 97.2293 112.722 95.5493 112.797 93.32H118.445V101H117.165V94.504H114.045ZM121.497 100.12C120.686 99.3947 120.281 98.408 120.281 97.16C120.281 95.912 120.686 94.9307 121.497 94.216C122.308 93.4907 123.268 93.128 124.377 93.128C125.497 93.128 126.457 93.4907 127.257 94.216C128.068 94.9307 128.473 95.912 128.473 97.16C128.473 98.408 128.068 99.3947 127.257 100.12C126.457 100.835 125.497 101.192 124.377 101.192C123.268 101.192 122.308 100.835 121.497 100.12ZM126.393 99.224C126.926 98.712 127.193 98.024 127.193 97.16C127.193 96.296 126.926 95.6133 126.393 95.112C125.86 94.6 125.188 94.344 124.377 94.344C123.566 94.344 122.894 94.6 122.361 95.112C121.828 95.6133 121.561 96.296 121.561 97.16C121.561 98.024 121.828 98.712 122.361 99.224C122.894 99.7253 123.566 99.976 124.377 99.976C125.188 99.976 125.86 99.7253 126.393 99.224ZM131.589 101H130.309V93.32H135.925V94.504H131.589V101ZM137.794 100.12C136.983 99.3947 136.578 98.408 136.578 97.16C136.578 95.912 136.983 94.9307 137.794 94.216C138.605 93.4907 139.565 93.128 140.674 93.128C141.794 93.128 142.754 93.4907 143.554 94.216C144.365 94.9307 144.77 95.912 144.77 97.16C144.77 98.408 144.365 99.3947 143.554 100.12C142.754 100.835 141.794 101.192 140.674 101.192C139.565 101.192 138.605 100.835 137.794 100.12ZM142.69 99.224C143.223 98.712 143.49 98.024 143.49 97.16C143.49 96.296 143.223 95.6133 142.69 95.112C142.157 94.6 141.485 94.344 140.674 94.344C139.863 94.344 139.191 94.6 138.658 95.112C138.125 95.6133 137.858 96.296 137.858 97.16C137.858 98.024 138.125 98.712 138.658 99.224C139.191 99.7253 139.863 99.976 140.674 99.976C141.485 99.976 142.157 99.7253 142.69 99.224ZM150.942 101H146.606V93.32H150.814C151.507 93.32 152.073 93.5013 152.51 93.864C152.958 94.2267 153.182 94.7387 153.182 95.4C153.182 95.784 153.086 96.1307 152.894 96.44C152.702 96.7493 152.457 96.968 152.158 97.096C152.51 97.2133 152.809 97.4267 153.054 97.736C153.299 98.0453 153.422 98.424 153.422 98.872C153.422 99.5227 153.209 100.04 152.782 100.424C152.366 100.808 151.753 101 150.942 101ZM147.886 97.672V99.88H150.766C151.683 99.88 152.142 99.5173 152.142 98.792C152.142 98.0453 151.699 97.672 150.814 97.672H147.886ZM147.886 94.44V96.568H150.686C151.486 96.568 151.886 96.2213 151.886 95.528C151.886 95.1333 151.769 94.856 151.534 94.696C151.299 94.5253 151.017 94.44 150.686 94.44H147.886Z" fill="#454545"/>
<path d="M44.088 143.528C43.8427 142.845 43.72 142.136 43.72 141.4C43.72 140.664 43.8427 139.955 44.088 139.272C44.344 138.589 44.7067 137.976 45.176 137.432C45.6453 136.877 46.2587 136.435 47.016 136.104C47.7733 135.773 48.6267 135.608 49.576 135.608C50.5253 135.608 51.3787 135.773 52.136 136.104C52.8933 136.435 53.5067 136.877 53.976 137.432C54.4453 137.976 54.8027 138.589 55.048 139.272C55.304 139.955 55.432 140.664 55.432 141.4C55.432 142.136 55.304 142.845 55.048 143.528C54.8027 144.211 54.4453 144.829 53.976 145.384C53.5067 145.928 52.8933 146.365 52.136 146.696C51.3787 147.027 50.5253 147.192 49.576 147.192C48.6267 147.192 47.7733 147.027 47.016 146.696C46.2587 146.365 45.6453 145.928 45.176 145.384C44.7067 144.829 44.344 144.211 44.088 143.528ZM53.784 143.08C53.976 142.547 54.072 141.987 54.072 141.4C54.072 140.813 53.976 140.253 53.784 139.72C53.6027 139.187 53.3307 138.707 52.968 138.28C52.616 137.853 52.1467 137.517 51.56 137.272C50.9733 137.016 50.312 136.888 49.576 136.888C48.84 136.888 48.1787 137.016 47.592 137.272C47.0053 137.517 46.5307 137.853 46.168 138.28C45.816 138.707 45.544 139.187 45.352 139.72C45.1707 140.253 45.08 140.813 45.08 141.4C45.08 141.987 45.1707 142.547 45.352 143.08C45.544 143.613 45.816 144.093 46.168 144.52C46.5307 144.947 47.0053 145.288 47.592 145.544C48.1787 145.789 48.84 145.912 49.576 145.912C50.312 145.912 50.9733 145.789 51.56 145.544C52.1467 145.288 52.616 144.947 52.968 144.52C53.3307 144.093 53.6027 143.613 53.784 143.08ZM64.8443 143.384C64.8443 144.568 64.4816 145.501 63.7563 146.184C63.0416 146.856 62.0976 147.192 60.9243 147.192C59.7296 147.192 58.7643 146.797 58.0283 146.008C57.3029 145.219 56.9403 144.115 56.9403 142.696C56.9403 141.459 57.1536 140.392 57.5803 139.496C58.0069 138.6 58.5829 137.928 59.3083 137.48C59.7989 137.181 60.3056 136.947 60.8283 136.776C61.3616 136.595 61.7989 136.483 62.1403 136.44C62.4923 136.397 62.8549 136.312 63.2283 136.184C63.6016 136.045 63.9109 135.853 64.1562 135.608V136.952C63.8576 137.165 63.4896 137.325 63.0523 137.432C62.6149 137.528 62.1296 137.645 61.5963 137.784C61.0629 137.923 60.5509 138.136 60.0603 138.424C59.5803 138.712 59.2069 139.075 58.9403 139.512C58.6736 139.949 58.4389 140.472 58.2363 141.08C58.5136 140.653 58.9083 140.307 59.4203 140.04C59.9323 139.773 60.4816 139.64 61.0683 139.64C62.1029 139.64 62.9883 139.987 63.7243 140.68C64.4709 141.373 64.8443 142.275 64.8443 143.384ZM58.2203 143.416C58.2203 144.152 58.4656 144.765 58.9563 145.256C59.4469 145.736 60.0923 145.976 60.8923 145.976C61.7136 145.976 62.3643 145.736 62.8443 145.256C63.3243 144.776 63.5643 144.163 63.5643 143.416C63.5643 142.669 63.3243 142.056 62.8443 141.576C62.3643 141.096 61.7136 140.856 60.8923 140.856C60.1243 140.856 59.4843 141.117 58.9723 141.64C58.4709 142.152 58.2203 142.744 58.2203 143.416ZM78.5396 149.08H77.2916V147H66.6996V139.32H67.9796V145.816H71.4196V139.32H72.6996V145.816H76.1396V139.32H77.4196V145.816H78.5396V149.08ZM86.4865 145.4C86.4865 145.795 86.6838 145.992 87.0785 145.992C87.2492 145.992 87.4465 145.955 87.6705 145.88V146.92C87.3505 147.037 87.0305 147.096 86.7105 147.096C85.9745 147.096 85.5052 146.787 85.3025 146.168C84.4812 146.851 83.4838 147.192 82.3105 147.192C81.5638 147.192 80.9238 146.995 80.3905 146.6C79.8678 146.195 79.6065 145.613 79.6065 144.856C79.6065 143.949 79.9425 143.293 80.6145 142.888C81.2972 142.472 82.1185 142.264 83.0785 142.264C83.7825 142.264 84.4918 142.344 85.2065 142.504V142.232C85.2065 141.645 85.0145 141.181 84.6305 140.84C84.2465 140.488 83.7078 140.312 83.0145 140.312C82.0438 140.312 81.1105 140.504 80.2145 140.888V139.64C81.2172 139.299 82.1932 139.128 83.1425 139.128C84.1878 139.128 85.0038 139.411 85.5905 139.976C86.1878 140.531 86.4865 141.336 86.4865 142.392V145.4ZM80.9185 144.792C80.9185 145.219 81.0785 145.544 81.3985 145.768C81.7292 145.981 82.1238 146.088 82.5825 146.088C83.6385 146.088 84.5132 145.715 85.2065 144.968V143.56C84.4812 143.411 83.8305 143.336 83.2545 143.336C82.6038 143.336 82.0492 143.453 81.5905 143.688C81.1425 143.912 80.9185 144.28 80.9185 144.792ZM89.8114 147H88.3074L90.5314 144.184C89.9447 144.013 89.4914 143.715 89.1714 143.288C88.8514 142.861 88.6914 142.371 88.6914 141.816C88.6914 141.112 88.9474 140.52 89.4594 140.04C89.9714 139.56 90.6754 139.32 91.5714 139.32H95.3474V147H94.0674V144.312H91.9074L89.8114 147ZM90.4194 140.824C90.1207 141.059 89.9714 141.389 89.9714 141.816C89.9714 142.243 90.1207 142.573 90.4194 142.808C90.7287 143.043 91.15 143.16 91.6834 143.16H94.0674V140.472H91.6834C91.15 140.472 90.7287 140.589 90.4194 140.824Z" fill="#454545"/>
<path d="M139.816 147H138.472V135.8H147.608V147H146.264V137.08H139.816V147ZM150.778 146.12C149.968 145.395 149.562 144.408 149.562 143.16C149.562 141.912 149.968 140.931 150.778 140.216C151.589 139.491 152.549 139.128 153.658 139.128C154.778 139.128 155.738 139.491 156.538 140.216C157.349 140.931 157.754 141.912 157.754 143.16C157.754 144.408 157.349 145.395 156.538 146.12C155.738 146.835 154.778 147.192 153.658 147.192C152.549 147.192 151.589 146.835 150.778 146.12ZM155.674 145.224C156.208 144.712 156.474 144.024 156.474 143.16C156.474 142.296 156.208 141.613 155.674 141.112C155.141 140.6 154.469 140.344 153.658 140.344C152.848 140.344 152.176 140.6 151.642 141.112C151.109 141.613 150.842 142.296 150.842 143.16C150.842 144.024 151.109 144.712 151.642 145.224C152.176 145.725 152.848 145.976 153.658 145.976C154.469 145.976 155.141 145.725 155.674 145.224ZM166.807 145.544L169.399 139.32H170.759L166.983 148.152C166.247 149.859 165.281 150.712 164.087 150.712C163.799 150.712 163.521 150.675 163.255 150.6V149.496C163.479 149.56 163.703 149.592 163.927 149.592C164.748 149.592 165.409 148.968 165.911 147.72L166.199 147.016L162.551 139.32H163.911L166.807 145.544ZM173.4 147H172.184V139.32H173.576L176.376 143.576L179.176 139.32H180.568V147H179.352V141.208L176.856 145H175.896L173.4 141.208V147ZM183.622 146.12C182.811 145.395 182.406 144.408 182.406 143.16C182.406 141.912 182.811 140.931 183.622 140.216C184.433 139.491 185.393 139.128 186.502 139.128C187.622 139.128 188.582 139.491 189.382 140.216C190.193 140.931 190.598 141.912 190.598 143.16C190.598 144.408 190.193 145.395 189.382 146.12C188.582 146.835 187.622 147.192 186.502 147.192C185.393 147.192 184.433 146.835 183.622 146.12ZM188.518 145.224C189.051 144.712 189.318 144.024 189.318 143.16C189.318 142.296 189.051 141.613 188.518 141.112C187.985 140.6 187.313 140.344 186.502 140.344C185.691 140.344 185.019 140.6 184.486 141.112C183.953 141.613 183.686 142.296 183.686 143.16C183.686 144.024 183.953 144.712 184.486 145.224C185.019 145.725 185.691 145.976 186.502 145.976C187.313 145.976 187.985 145.725 188.518 145.224ZM194.951 140.504C194.898 141.347 194.834 142.083 194.759 142.712C194.684 143.341 194.578 143.949 194.439 144.536C194.3 145.112 194.13 145.581 193.927 145.944C193.735 146.307 193.49 146.595 193.191 146.808C192.892 147.021 192.551 147.128 192.167 147.128C191.858 147.128 191.548 147.069 191.239 146.952V145.944C191.41 146.008 191.58 146.04 191.751 146.04C192.391 146.04 192.855 145.48 193.143 144.36C193.442 143.229 193.628 141.549 193.703 139.32H199.351V147H198.071V140.504H194.951ZM207.715 147H206.435V144.328C205.742 144.595 204.979 144.728 204.147 144.728C203.23 144.728 202.505 144.499 201.971 144.04C201.449 143.581 201.187 142.893 201.187 141.976V139.32H202.467V141.88C202.467 142.499 202.638 142.931 202.979 143.176C203.331 143.421 203.849 143.544 204.531 143.544C205.246 143.544 205.881 143.432 206.435 143.208V139.32H207.715V147ZM216.33 145.4C216.33 145.795 216.528 145.992 216.922 145.992C217.093 145.992 217.29 145.955 217.514 145.88V146.92C217.194 147.037 216.874 147.096 216.554 147.096C215.818 147.096 215.349 146.787 215.146 146.168C214.325 146.851 213.328 147.192 212.154 147.192C211.408 147.192 210.768 146.995 210.234 146.6C209.712 146.195 209.45 145.613 209.45 144.856C209.45 143.949 209.786 143.293 210.458 142.888C211.141 142.472 211.962 142.264 212.922 142.264C213.626 142.264 214.336 142.344 215.05 142.504V142.232C215.05 141.645 214.858 141.181 214.474 140.84C214.09 140.488 213.552 140.312 212.858 140.312C211.888 140.312 210.954 140.504 210.058 140.888V139.64C211.061 139.299 212.037 139.128 212.986 139.128C214.032 139.128 214.848 139.411 215.434 139.976C216.032 140.531 216.33 141.336 216.33 142.392V145.4ZM210.762 144.792C210.762 145.219 210.922 145.544 211.242 145.768C211.573 145.981 211.968 146.088 212.426 146.088C213.482 146.088 214.357 145.715 215.05 144.968V143.56C214.325 143.411 213.674 143.336 213.098 143.336C212.448 143.336 211.893 143.453 211.434 143.688C210.986 143.912 210.762 144.28 210.762 144.792ZM220.167 147H218.887V139.32H220.167V142.568H224.615V139.32H225.895V147H224.615V143.752H220.167V147ZM229.35 147H228.262V139.32H229.542V144.936L234.246 139.32H235.334V147H234.054V141.384L229.35 147ZM247.812 140.216C248.622 140.931 249.028 141.912 249.028 143.16C249.028 144.408 248.622 145.395 247.812 146.12C247.012 146.835 246.052 147.192 244.932 147.192C243.918 147.192 243.017 146.888 242.228 146.28C241.449 145.661 240.996 144.819 240.868 143.752H238.98V147H237.7V139.32H238.98V142.568H240.868C240.996 141.501 241.449 140.664 242.228 140.056C243.017 139.437 243.918 139.128 244.932 139.128C246.052 139.128 247.012 139.491 247.812 140.216ZM242.916 141.112C242.382 141.613 242.116 142.296 242.116 143.16C242.116 144.024 242.382 144.712 242.916 145.224C243.449 145.725 244.121 145.976 244.932 145.976C245.742 145.976 246.414 145.725 246.948 145.224C247.481 144.712 247.748 144.024 247.748 143.16C247.748 142.296 247.481 141.613 246.948 141.112C246.414 140.6 245.742 140.344 244.932 140.344C244.121 140.344 243.449 140.6 242.916 141.112Z" fill="#454545"/>
<rect x="23.5" y="135.5" width="12" height="12" rx="2.5" stroke="#E6E6E6"/>
<rect x="117.5" y="135.5" width="12" height="12" rx="2.5" stroke="#E6E6E6"/>
<path d="M23 171C23 169.343 24.3431 168 26 168H103C104.657 168 106 169.343 106 171V193C106 194.657 104.657 196 103 196H26C24.3431 196 23 194.657 23 193V171Z" fill="#0FA7F0"/>
<path d="M33.468 181.554C33.468 180.757 33.6067 180.042 33.884 179.409C34.17 178.768 34.5427 178.256 35.002 177.875C35.47 177.494 35.99 177.208 36.562 177.017C37.134 176.818 37.732 176.718 38.356 176.718C39.3093 176.718 40.176 176.913 40.956 177.303V179.162C40.3407 178.685 39.5823 178.447 38.681 178.447C37.797 178.447 37.0387 178.711 36.406 179.24C35.782 179.76 35.47 180.531 35.47 181.554C35.47 182.039 35.561 182.473 35.743 182.854C35.925 183.227 36.1677 183.526 36.471 183.751C36.783 183.976 37.1253 184.15 37.498 184.271C37.8793 184.384 38.2737 184.44 38.681 184.44C39.6863 184.44 40.4663 184.189 41.021 183.686V185.597C40.215 185.987 39.3353 186.182 38.382 186.182C37.758 186.182 37.16 186.087 36.588 185.896C36.016 185.705 35.4917 185.428 35.015 185.064C34.547 184.7 34.17 184.215 33.884 183.608C33.6067 183.001 33.468 182.317 33.468 181.554ZM42.1713 183.231C41.972 182.668 41.8723 182.074 41.8723 181.45C41.8723 180.826 41.972 180.232 42.1713 179.669C42.3793 179.106 42.6783 178.603 43.0683 178.161C43.467 177.719 43.9783 177.368 44.6023 177.108C45.2263 176.848 45.9283 176.718 46.7083 176.718C47.4883 176.718 48.1903 176.848 48.8143 177.108C49.4383 177.368 49.9453 177.719 50.3353 178.161C50.734 178.603 51.033 179.106 51.2323 179.669C51.4403 180.232 51.5443 180.826 51.5443 181.45C51.5443 182.074 51.4403 182.668 51.2323 183.231C51.033 183.794 50.734 184.297 50.3353 184.739C49.9453 185.181 49.4383 185.532 48.8143 185.792C48.1903 186.052 47.4883 186.182 46.7083 186.182C45.9283 186.182 45.2263 186.052 44.6023 185.792C43.9783 185.532 43.467 185.181 43.0683 184.739C42.6783 184.297 42.3793 183.794 42.1713 183.231ZM48.8013 183.543C49.2953 182.988 49.5423 182.291 49.5423 181.45C49.5423 180.609 49.2953 179.912 48.8013 179.357C48.3073 178.802 47.6096 178.525 46.7083 178.525C45.7983 178.525 45.0963 178.802 44.6023 179.357C44.1083 179.912 43.8613 180.609 43.8613 181.45C43.8613 182.291 44.1083 182.988 44.6023 183.543C45.0963 184.098 45.7983 184.375 46.7083 184.375C47.6096 184.375 48.3073 184.098 48.8013 183.543ZM59.5216 183.53C59.5216 184.015 59.4133 184.44 59.1966 184.804C58.98 185.159 58.6853 185.432 58.3126 185.623C57.94 185.814 57.5413 185.952 57.1166 186.039C56.7006 186.134 56.25 186.182 55.7646 186.182C54.6206 186.182 53.4983 185.987 52.3976 185.597V183.725C53.3856 184.21 54.4603 184.444 55.6216 184.427C56.913 184.427 57.5586 184.033 57.5586 183.244C57.5586 182.533 57.0126 182.178 55.9206 182.178H53.8666L53.8796 180.462H55.7906C56.2326 180.462 56.5793 180.384 56.8306 180.228C57.082 180.063 57.2076 179.825 57.2076 179.513C57.2076 178.82 56.6053 178.473 55.4006 178.473C54.4993 178.456 53.5503 178.69 52.5536 179.175V177.316C53.507 176.917 54.5123 176.718 55.5696 176.718C56.6703 176.718 57.5413 176.93 58.1826 177.355C58.8326 177.771 59.1576 178.386 59.1576 179.201C59.1576 179.686 59.0276 180.102 58.7676 180.449C58.5076 180.787 58.1523 181.034 57.7016 181.19C58.2303 181.337 58.6636 181.606 59.0016 181.996C59.3483 182.386 59.5216 182.897 59.5216 183.53ZM61.8269 187.976H60.1109V184.284H61.1769C62.1389 182.559 62.6199 180.098 62.6199 176.9H68.8079V184.284H69.9649V187.976H68.2489V186H61.8269V187.976ZM64.4399 178.655C64.2752 181.194 63.8766 183.071 63.2439 184.284H66.8579V178.655H64.4399ZM72.4036 186H70.3886L74.1066 176.9H76.2126L79.9176 186H77.9026L77.2396 184.297H73.0796L72.4036 186ZM74.9516 179.422L73.6906 182.685H76.6286L75.3546 179.422C75.2679 179.179 75.2029 178.941 75.1596 178.707C75.1076 178.976 75.0383 179.214 74.9516 179.422ZM79.1006 176.9H86.6276V178.655H83.8326V186H81.8956V178.655H79.1006V176.9ZM91.2097 186H87.7777V176.9H89.7277V179.89H91.2097C93.8271 179.907 95.1357 180.926 95.1357 182.945C95.1357 184.982 93.8271 186 91.2097 186ZM89.7277 181.606V184.284H91.3007C92.5314 184.284 93.1467 183.838 93.1467 182.945C93.1467 182.052 92.5314 181.606 91.3007 181.606H89.7277Z" fill="white"/>
</svg>
