<svg width="390" height="262" viewBox="0 0 390 262" fill="none" xmlns="http://www.w3.org/2000/svg">
<rect x="0.5" y="0.5" width="389" height="261" rx="4.5" fill="white" stroke="#E6E6E6"/>
<rect x="27.5" y="114.5" width="335" height="116" rx="2.5" fill="white" stroke="#E6E6E6"/>
<path d="M27.5 117C27.5 115.619 28.6193 114.5 30 114.5H360C361.381 114.5 362.5 115.619 362.5 117V143.5H27.5V117Z" fill="#F8F8F8" stroke="#E6E6E6"/>
<path d="M27.5 143.5H362.5V172.5H27.5V143.5Z" fill="white" stroke="#E6E6E6"/>
<path d="M27.5 172.5H362.5V201.5H27.5V172.5Z" fill="white" stroke="#E6E6E6"/>
<rect x="38" y="122" width="13" height="13" rx="3" fill="#454545"/>
<path d="M42 128.5L44 130.5L47.5 127" stroke="white" stroke-linecap="round" stroke-linejoin="round"/>
<rect x="38" y="151" width="13" height="13" rx="3" fill="#454545"/>
<path d="M42 157.5L44 159.5L47.5 156" stroke="white" stroke-linecap="round" stroke-linejoin="round"/>
<rect x="38" y="180" width="13" height="13" rx="3" fill="#454545"/>
<path d="M42 186.5L44 188.5L47.5 185" stroke="white" stroke-linecap="round" stroke-linejoin="round"/>
<rect x="38" y="208" width="13" height="13" rx="3" fill="#454545"/>
<path d="M42 214.5L44 216.5L47.5 213" stroke="white" stroke-linecap="round" stroke-linejoin="round"/>
<path d="M88.5 72C88.5 69.5147 90.5147 67.5 93 67.5H174C176.485 67.5 178.5 69.5147 178.5 72V88C178.5 90.4853 176.485 92.5 174 92.5H93C90.5147 92.5 88.5 90.4853 88.5 88V72Z" fill="white" stroke="#E6E6E6"/>
<path d="M189.5 72C189.5 69.5147 191.515 67.5 194 67.5H275C277.485 67.5 279.5 69.5147 279.5 72V88C279.5 90.4853 277.485 92.5 275 92.5H194C191.515 92.5 189.5 90.4853 189.5 88V72Z" fill="white" stroke="#E6E6E6"/>
<path d="M300.5 72C300.5 69.5147 302.515 67.5 305 67.5H331.5V92.5H305C302.515 92.5 300.5 90.4853 300.5 88V72Z" fill="#F8F8F8" stroke="#E6E6E6"/>
<path d="M362.5 72C362.5 69.5147 360.485 67.5 358 67.5H331.5V92.5H358C360.485 92.5 362.5 90.4853 362.5 88V72Z" fill="white" stroke="#E6E6E6"/>
<path d="M25.648 30.844C25.648 29.74 25.84 28.75 26.224 27.874C26.62 26.986 27.136 26.278 27.772 25.75C28.42 25.222 29.14 24.826 29.932 24.562C30.724 24.286 31.552 24.148 32.416 24.148C33.736 24.148 34.936 24.418 36.016 24.958V27.532C35.164 26.872 34.114 26.542 32.866 26.542C31.642 26.542 30.592 26.908 29.716 27.64C28.852 28.36 28.42 29.428 28.42 30.844C28.42 31.516 28.546 32.116 28.798 32.644C29.05 33.16 29.386 33.574 29.806 33.886C30.238 34.198 30.712 34.438 31.228 34.606C31.756 34.762 32.302 34.84 32.866 34.84C34.258 34.84 35.338 34.492 36.106 33.796V36.442C34.99 36.982 33.772 37.252 32.452 37.252C31.588 37.252 30.76 37.12 29.968 36.856C29.176 36.592 28.45 36.208 27.79 35.704C27.142 35.2 26.62 34.528 26.224 33.688C25.84 32.848 25.648 31.9 25.648 30.844ZM41.8639 37H39.3799V30.466H36.6259V28.36H44.6179V30.466H41.8639V37ZM53.5594 34.768C53.5594 35.152 53.7634 35.344 54.1714 35.344C54.3394 35.344 54.4954 35.32 54.6394 35.272V36.91C54.1834 37.078 53.7214 37.162 53.2534 37.162C52.3414 37.162 51.7054 36.838 51.3454 36.19C50.4454 36.898 49.4074 37.252 48.2314 37.252C47.3794 37.252 46.6594 37.018 46.0714 36.55C45.4954 36.07 45.2074 35.422 45.2074 34.606C45.2074 33.922 45.4114 33.352 45.8194 32.896C46.2274 32.44 46.7014 32.134 47.2414 31.978C47.7814 31.81 48.3694 31.726 49.0054 31.726C49.7134 31.726 50.3974 31.804 51.0574 31.96V31.654C51.0574 31.21 50.8834 30.856 50.5354 30.592C50.1874 30.328 49.6834 30.196 49.0234 30.196C48.0634 30.196 47.0434 30.412 45.9634 30.844V28.684C47.1154 28.3 48.2314 28.108 49.3114 28.108C52.1434 28.108 53.5594 29.41 53.5594 32.014V34.768ZM49.5814 33.22C49.0654 33.22 48.6334 33.316 48.2854 33.508C47.9374 33.7 47.7634 34 47.7634 34.408C47.7634 34.72 47.8894 34.978 48.1414 35.182C48.4054 35.374 48.7294 35.47 49.1134 35.47C49.8694 35.47 50.5174 35.236 51.0574 34.768V33.418C50.5054 33.286 50.0134 33.22 49.5814 33.22ZM60.1276 37H57.6436V30.466H54.8896V28.36H62.8816V30.466H60.1276V37ZM68.3821 34.192L70.5241 28.36H73.1161L69.2821 38.044C68.4301 40.144 67.1881 41.194 65.5561 41.194C65.2081 41.194 64.7581 41.128 64.2061 40.996V38.926C64.6021 39.01 64.9441 39.052 65.2321 39.052C66.1441 39.052 66.8281 38.422 67.2841 37.162L67.3021 37.126L63.2161 28.36H65.8621L68.3821 34.192ZM73.494 32.806C73.494 32.014 73.632 31.306 73.908 30.682C74.196 30.058 74.574 29.566 75.042 29.206C75.51 28.834 76.026 28.558 76.59 28.378C77.154 28.186 77.748 28.09 78.372 28.09C79.368 28.09 80.256 28.3 81.036 28.72V30.916C80.364 30.484 79.596 30.268 78.732 30.268C77.976 30.268 77.34 30.466 76.824 30.862C76.308 31.258 76.05 31.864 76.05 32.68C76.05 33.46 76.308 34.06 76.824 34.48C77.34 34.888 77.964 35.092 78.696 35.092C79.62 35.092 80.43 34.882 81.126 34.462V36.676C80.226 37.06 79.254 37.252 78.21 37.252C76.914 37.252 75.804 36.874 74.88 36.118C73.956 35.35 73.494 34.246 73.494 32.806Z" fill="#454545"/>
<path d="M31.162 78.481H30.07V77.298C28.6313 77.2547 27.4873 76.8993 26.638 76.232C25.7973 75.5647 25.377 74.6373 25.377 73.45C25.377 72.2627 25.7973 71.3353 26.638 70.668C27.4873 70.0007 28.6313 69.6453 30.07 69.602V68.419H31.162V69.602C32.6007 69.6453 33.7403 70.0007 34.581 70.668C35.4303 71.3353 35.855 72.2627 35.855 73.45C35.855 74.6373 35.4303 75.5647 34.581 76.232C33.7403 76.8993 32.6007 77.2547 31.162 77.298V78.481ZM27.392 71.409C26.7853 71.903 26.482 72.5833 26.482 73.45C26.482 74.3167 26.7853 75.0013 27.392 75.504C27.9987 75.998 28.8913 76.2667 30.07 76.31V70.59C28.8913 70.6333 27.9987 70.9063 27.392 71.409ZM31.162 70.59V76.31C32.3407 76.2667 33.2333 75.998 33.84 75.504C34.4467 75.0013 34.75 74.3167 34.75 73.45C34.75 72.5833 34.4467 71.903 33.84 71.409C33.2333 70.9063 32.3407 70.6333 31.162 70.59ZM38.0814 78H37.1974V71.76H38.2374V76.323L42.0594 71.76H42.9434V78H41.9034V73.437L38.0814 78ZM47.0753 72.722C47.032 73.4067 46.98 74.0047 46.9193 74.516C46.8587 75.0273 46.772 75.5213 46.6593 75.998C46.5467 76.466 46.408 76.8473 46.2433 77.142C46.0873 77.4367 45.888 77.6707 45.6453 77.844C45.4027 78.0173 45.1253 78.104 44.8133 78.104C44.562 78.104 44.3107 78.0563 44.0593 77.961V77.142C44.198 77.194 44.3367 77.22 44.4753 77.22C44.9953 77.22 45.3723 76.765 45.6063 75.855C45.849 74.9363 46.0007 73.5713 46.0613 71.76H50.6503V78H49.6103V72.722H47.0753ZM55.5354 78H52.5714V71.76H53.6114V73.944H55.5354C56.2807 73.944 56.87 74.1347 57.3034 74.516C57.7367 74.8973 57.9534 75.3827 57.9534 75.972C57.9534 76.5613 57.7367 77.0467 57.3034 77.428C56.87 77.8093 56.2807 78 55.5354 78ZM53.6114 74.88V77.064H55.4054C55.8734 77.064 56.2374 76.973 56.4974 76.791C56.766 76.609 56.9004 76.336 56.9004 75.972C56.9004 75.608 56.766 75.335 56.4974 75.153C56.2374 74.971 55.8734 74.88 55.4054 74.88H53.6114ZM61.0874 78H60.0474V72.722H57.7464V71.76H63.3754V72.722H61.0874V78ZM65.4918 72.8C66.1938 72.0027 67.0344 71.604 68.0138 71.604C68.9064 71.604 69.6474 71.916 70.2368 72.54C70.8348 73.164 71.1338 73.944 71.1338 74.88C71.1338 75.816 70.8348 76.596 70.2368 77.22C69.6474 77.844 68.9064 78.156 68.0138 78.156C67.0258 78.156 66.2198 77.792 65.5958 77.064V80.86H64.5558V71.76H65.4918V72.8ZM69.4568 76.557C69.8814 76.1323 70.0938 75.5733 70.0938 74.88C70.0938 74.1867 69.8814 73.6277 69.4568 73.203C69.0408 72.7783 68.5208 72.566 67.8968 72.566C67.3681 72.566 66.9001 72.7133 66.4928 73.008C66.0854 73.3027 65.7864 73.6667 65.5958 74.1V75.66C65.7864 76.0933 66.0854 76.4573 66.4928 76.752C66.9001 77.0467 67.3681 77.194 67.8968 77.194C68.5208 77.194 69.0408 76.9817 69.4568 76.557ZM27.002 93H25.962V86.76H31.656V93H30.616V87.722H27.002V93ZM34.1382 92.285C33.4795 91.6957 33.1502 90.894 33.1502 89.88C33.1502 88.866 33.4795 88.0687 34.1382 87.488C34.7969 86.8987 35.5769 86.604 36.4782 86.604C37.3882 86.604 38.1682 86.8987 38.8182 87.488C39.4769 88.0687 39.8062 88.866 39.8062 89.88C39.8062 90.894 39.4769 91.6957 38.8182 92.285C38.1682 92.8657 37.3882 93.156 36.4782 93.156C35.5769 93.156 34.7969 92.8657 34.1382 92.285ZM38.1162 91.557C38.5495 91.141 38.7662 90.582 38.7662 89.88C38.7662 89.178 38.5495 88.6233 38.1162 88.216C37.6829 87.8 37.1369 87.592 36.4782 87.592C35.8195 87.592 35.2735 87.8 34.8402 88.216C34.4069 88.6233 34.1902 89.178 34.1902 89.88C34.1902 90.582 34.4069 91.141 34.8402 91.557C35.2735 91.9643 35.8195 92.168 36.4782 92.168C37.1369 92.168 37.6829 91.9643 38.1162 91.557ZM42.3249 87.449C42.4549 87.5617 42.5199 87.722 42.5199 87.93C42.5199 88.138 42.4549 88.3027 42.3249 88.424C42.1949 88.5367 42.0303 88.593 41.8309 88.593C41.6403 88.593 41.4799 88.5367 41.3499 88.424C41.2199 88.3027 41.1549 88.138 41.1549 87.93C41.1549 87.722 41.2199 87.5617 41.3499 87.449C41.4799 87.3277 41.6403 87.267 41.8309 87.267C42.0303 87.267 42.1949 87.3277 42.3249 87.449ZM42.3249 91.973C42.4549 92.0857 42.5199 92.246 42.5199 92.454C42.5199 92.662 42.4549 92.8267 42.3249 92.948C42.1949 93.0607 42.0303 93.117 41.8309 93.117C41.6403 93.117 41.4799 93.0607 41.3499 92.948C41.2199 92.8267 41.1549 92.662 41.1549 92.454C41.1549 92.246 41.2199 92.0857 41.3499 91.973C41.4799 91.8603 41.6403 91.804 41.8309 91.804C42.0303 91.804 42.1949 91.8603 42.3249 91.973Z" fill="#8E8E8E"/>
<path d="M102.468 75.6H104.268V84H102.468V80.616H98.7V84H96.9V75.6H98.7V78.984H102.468V75.6ZM107.06 84H105.2L108.632 75.6H110.576L113.996 84H112.136L111.524 82.428H107.684L107.06 84ZM109.412 77.928L108.248 80.94H110.96L109.784 77.928C109.704 77.704 109.644 77.484 109.604 77.268C109.556 77.516 109.492 77.736 109.412 77.928ZM121.079 81.72C121.079 82.168 120.979 82.56 120.779 82.896C120.579 83.224 120.307 83.476 119.963 83.652C119.619 83.828 119.251 83.956 118.859 84.036C118.475 84.124 118.059 84.168 117.611 84.168C116.555 84.168 115.519 83.988 114.503 83.628V81.9C115.415 82.348 116.407 82.564 117.479 82.548C118.671 82.548 119.267 82.184 119.267 81.456C119.267 80.8 118.763 80.472 117.755 80.472H115.859L115.871 78.888H117.635C118.043 78.888 118.363 78.816 118.595 78.672C118.827 78.52 118.943 78.3 118.943 78.012C118.943 77.372 118.387 77.052 117.275 77.052C116.443 77.036 115.567 77.252 114.647 77.7V75.984C115.527 75.616 116.455 75.432 117.431 75.432C118.447 75.432 119.251 75.628 119.843 76.02C120.443 76.404 120.743 76.972 120.743 77.724C120.743 78.172 120.623 78.556 120.383 78.876C120.143 79.188 119.815 79.416 119.399 79.56C119.887 79.696 120.287 79.944 120.599 80.304C120.919 80.664 121.079 81.136 121.079 81.72ZM122.423 75.6H126.095C127.015 75.6 127.727 75.78 128.231 76.14C128.743 76.492 128.999 77.02 128.999 77.724C128.999 78.66 128.575 79.272 127.727 79.56C128.191 79.696 128.575 79.936 128.879 80.28C129.183 80.616 129.335 81.072 129.335 81.648C129.335 82.104 129.235 82.496 129.035 82.824C128.835 83.144 128.563 83.384 128.219 83.544C127.883 83.704 127.535 83.82 127.175 83.892C126.823 83.964 126.443 84 126.035 84H122.423V75.6ZM127.535 81.456C127.535 80.736 127.059 80.376 126.107 80.376H124.211V82.536H126.011C126.483 82.536 126.855 82.46 127.127 82.308C127.399 82.156 127.535 81.872 127.535 81.456ZM127.211 78.036C127.211 77.396 126.787 77.076 125.939 77.076H124.223V78.996H126.035C126.387 78.996 126.671 78.916 126.887 78.756C127.103 78.588 127.211 78.348 127.211 78.036ZM131.388 84H129.528L132.96 75.6H134.904L138.324 84H136.464L135.852 82.428H132.012L131.388 84ZM133.74 77.928L132.576 80.94H135.288L134.112 77.928C134.032 77.704 133.972 77.484 133.932 77.268C133.884 77.516 133.82 77.736 133.74 77.928ZM144.831 75.6H146.631V84H144.831V80.616H141.063V84H139.263V75.6H141.063V78.984H144.831V75.6ZM155.795 84H153.995V79.668C153.995 79.244 154.007 78.86 154.031 78.516L150.119 84H148.427V75.6H150.227V79.932C150.227 80.356 150.215 80.74 150.191 81.084L154.103 75.6H155.795V84ZM169.231 78.156C169.423 78.676 169.519 79.224 169.519 79.8C169.519 80.376 169.423 80.924 169.231 81.444C169.047 81.964 168.771 82.428 168.403 82.836C168.043 83.244 167.575 83.568 166.999 83.808C166.423 84.048 165.775 84.168 165.055 84.168C163.815 84.168 162.819 83.828 162.067 83.148C161.323 82.468 160.875 81.62 160.723 80.604H159.391V84H157.591V75.6H159.391V78.984H160.723C160.875 77.968 161.323 77.124 162.067 76.452C162.819 75.772 163.815 75.432 165.055 75.432C165.775 75.432 166.423 75.552 166.999 75.792C167.575 76.032 168.043 76.356 168.403 76.764C168.771 77.172 169.047 77.636 169.231 78.156ZM163.123 77.868C162.667 78.38 162.439 79.024 162.439 79.8C162.439 80.576 162.667 81.22 163.123 81.732C163.579 82.244 164.227 82.5 165.067 82.5C165.899 82.5 166.543 82.244 166.999 81.732C167.455 81.22 167.683 80.576 167.683 79.8C167.683 79.024 167.455 78.38 166.999 77.868C166.543 77.356 165.899 77.1 165.067 77.1C164.227 77.1 163.579 77.356 163.123 77.868Z" fill="#454545"/>
<path d="M205.044 81.72C205.044 82.168 204.944 82.56 204.744 82.896C204.544 83.224 204.272 83.476 203.928 83.652C203.584 83.828 203.216 83.956 202.824 84.036C202.44 84.124 202.024 84.168 201.576 84.168C200.52 84.168 199.484 83.988 198.468 83.628V81.9C199.38 82.348 200.372 82.564 201.444 82.548C202.636 82.548 203.232 82.184 203.232 81.456C203.232 80.8 202.728 80.472 201.72 80.472H199.824L199.836 78.888H201.6C202.008 78.888 202.328 78.816 202.56 78.672C202.792 78.52 202.908 78.3 202.908 78.012C202.908 77.372 202.352 77.052 201.24 77.052C200.408 77.036 199.532 77.252 198.612 77.7V75.984C199.492 75.616 200.42 75.432 201.396 75.432C202.412 75.432 203.216 75.628 203.808 76.02C204.408 76.404 204.708 76.972 204.708 77.724C204.708 78.172 204.588 78.556 204.348 78.876C204.108 79.188 203.78 79.416 203.364 79.56C203.852 79.696 204.252 79.944 204.564 80.304C204.884 80.664 205.044 81.136 205.044 81.72ZM211.956 75.6H213.756V84H211.956V80.616H208.188V84H206.388V75.6H208.188V78.984H211.956V75.6ZM216.548 84H214.688L218.12 75.6H220.064L223.484 84H221.624L221.012 82.428H217.172L216.548 84ZM218.9 77.928L217.736 80.94H220.448L219.272 77.928C219.192 77.704 219.132 77.484 219.092 77.268C219.044 77.516 218.98 77.736 218.9 77.928ZM230.226 84H228.426V80.988C227.682 81.228 226.974 81.348 226.302 81.348C225.342 81.34 224.59 81.092 224.046 80.604C223.502 80.116 223.23 79.4 223.23 78.456V75.6H225.03V78.396C225.03 78.836 225.186 79.164 225.498 79.38C225.81 79.596 226.23 79.704 226.758 79.704C227.318 79.704 227.874 79.592 228.426 79.368V75.6H230.226V84ZM232.029 75.6H237.945V77.184H233.829V78.972H237.585V80.544H233.829V82.416H238.017V84H232.029V75.6ZM245.003 75.6H246.803V84H245.003V80.616H241.235V84H239.435V75.6H241.235V78.984H245.003V75.6ZM255.967 84H254.167V79.668C254.167 79.244 254.179 78.86 254.203 78.516L250.291 84H248.599V75.6H250.399V79.932C250.399 80.356 250.387 80.74 250.363 81.084L254.275 75.6H255.967V84ZM269.403 78.156C269.595 78.676 269.691 79.224 269.691 79.8C269.691 80.376 269.595 80.924 269.403 81.444C269.219 81.964 268.943 82.428 268.575 82.836C268.215 83.244 267.747 83.568 267.171 83.808C266.595 84.048 265.947 84.168 265.227 84.168C263.987 84.168 262.991 83.828 262.239 83.148C261.495 82.468 261.047 81.62 260.895 80.604H259.563V84H257.763V75.6H259.563V78.984H260.895C261.047 77.968 261.495 77.124 262.239 76.452C262.991 75.772 263.987 75.432 265.227 75.432C265.947 75.432 266.595 75.552 267.171 75.792C267.747 76.032 268.215 76.356 268.575 76.764C268.943 77.172 269.219 77.636 269.403 78.156ZM263.295 77.868C262.839 78.38 262.611 79.024 262.611 79.8C262.611 80.576 262.839 81.22 263.295 81.732C263.751 82.244 264.399 82.5 265.239 82.5C266.071 82.5 266.715 82.244 267.171 81.732C267.627 81.22 267.855 80.576 267.855 79.8C267.855 79.024 267.627 78.38 267.171 77.868C266.715 77.356 266.071 77.1 265.239 77.1C264.399 77.1 263.751 77.356 263.295 77.868Z" fill="#454545"/>
<path d="M308.896 84H307.036L310.468 75.6H312.412L315.832 84H313.972L313.36 82.428H309.52L308.896 84ZM311.248 77.928L310.084 80.94H312.796L311.62 77.928C311.54 77.704 311.48 77.484 311.44 77.268C311.392 77.516 311.328 77.736 311.248 77.928ZM318.127 84H316.051L318.391 80.916C317.143 80.5 316.519 79.664 316.519 78.408C316.519 77.464 316.839 76.76 317.479 76.296C318.119 75.832 318.923 75.6 319.891 75.6H323.311V84H321.511V81.144H320.251L318.127 84ZM318.775 77.496C318.503 77.696 318.367 78 318.367 78.408C318.367 78.816 318.503 79.124 318.775 79.332C319.055 79.54 319.431 79.644 319.903 79.644H321.511V77.184H319.903C319.431 77.184 319.055 77.288 318.775 77.496Z" fill="#454545"/>
<path d="M340.256 84H338.18L340.52 80.916C339.272 80.5 338.648 79.664 338.648 78.408C338.648 77.464 338.968 76.76 339.608 76.296C340.248 75.832 341.052 75.6 342.02 75.6H345.44V84H343.64V81.144H342.38L340.256 84ZM340.904 77.496C340.632 77.696 340.496 78 340.496 78.408C340.496 78.816 340.632 79.124 340.904 79.332C341.184 79.54 341.56 79.644 342.032 79.644H343.64V77.184H342.032C341.56 77.184 341.184 77.288 340.904 77.496ZM348.24 84H346.38L349.812 75.6H351.756L355.176 84H353.316L352.704 82.428H348.864L348.24 84ZM350.592 77.928L349.428 80.94H352.14L350.964 77.928C350.884 77.704 350.824 77.484 350.784 77.268C350.736 77.516 350.672 77.736 350.592 77.928Z" fill="#8E8E8E"/>
<path d="M58.9 124.6H62.572C63.492 124.6 64.204 124.78 64.708 125.14C65.22 125.492 65.476 126.02 65.476 126.724C65.476 127.66 65.052 128.272 64.204 128.56C64.668 128.696 65.052 128.936 65.356 129.28C65.66 129.616 65.812 130.072 65.812 130.648C65.812 131.104 65.712 131.496 65.512 131.824C65.312 132.144 65.04 132.384 64.696 132.544C64.36 132.704 64.012 132.82 63.652 132.892C63.3 132.964 62.92 133 62.512 133H58.9V124.6ZM64.012 130.456C64.012 129.736 63.536 129.376 62.584 129.376H60.688V131.536H62.488C62.96 131.536 63.332 131.46 63.604 131.308C63.876 131.156 64.012 130.872 64.012 130.456ZM63.688 127.036C63.688 126.396 63.264 126.076 62.416 126.076H60.7V127.996H62.512C62.864 127.996 63.148 127.916 63.364 127.756C63.58 127.588 63.688 127.348 63.688 127.036ZM69.8877 133H66.8877V127.24H68.5557V129.04H69.8877C70.6157 129.04 71.1837 129.228 71.5917 129.604C72.0077 129.972 72.2157 130.444 72.2157 131.02C72.2157 131.596 72.0077 132.072 71.5917 132.448C71.1837 132.816 70.6157 133 69.8877 133ZM68.5437 130.24V131.8H69.4797C69.8077 131.8 70.0597 131.732 70.2357 131.596C70.4117 131.46 70.4997 131.268 70.4997 131.02C70.4997 130.772 70.4117 130.58 70.2357 130.444C70.0597 130.308 69.8077 130.24 69.4797 130.24H68.5437ZM74.8197 133H73.1517V127.24H74.8197V133ZM82.1313 130.372C82.1313 131.26 81.8473 131.948 81.2793 132.436C80.7113 132.924 79.9753 133.168 79.0713 133.168C78.1593 133.168 77.4193 132.884 76.8513 132.316C76.2833 131.74 75.9993 130.864 75.9993 129.688C75.9993 127.824 76.5873 126.524 77.7633 125.788C78.2273 125.5 78.7273 125.296 79.2633 125.176C79.8073 125.056 80.2793 124.956 80.6793 124.876C81.0873 124.796 81.4033 124.648 81.6273 124.432V125.956C81.3553 126.18 80.8953 126.344 80.2473 126.448C79.6073 126.544 79.1113 126.684 78.7593 126.868C78.4553 127.036 78.2153 127.272 78.0393 127.576C77.8633 127.872 77.7513 128.18 77.7033 128.5C78.1353 127.9 78.7593 127.6 79.5753 127.6C80.3113 127.6 80.9193 127.848 81.3993 128.344C81.8873 128.84 82.1313 129.516 82.1313 130.372ZM77.7033 130.384C77.7033 130.76 77.8153 131.096 78.0393 131.392C78.2633 131.688 78.6073 131.836 79.0713 131.836C79.5353 131.836 79.8753 131.692 80.0913 131.404C80.3153 131.108 80.4273 130.768 80.4273 130.384C80.4273 130 80.3153 129.664 80.0913 129.376C79.8753 129.08 79.5353 128.932 79.0713 128.932C78.6153 128.932 78.2713 129.084 78.0393 129.388C77.8153 129.684 77.7033 130.016 77.7033 130.384ZM84.7113 128.08C85.1833 127.408 85.8793 127.072 86.7993 127.072C87.6713 127.072 88.3553 127.372 88.8513 127.972C89.3553 128.564 89.6073 129.28 89.6073 130.12C89.6073 130.96 89.3553 131.68 88.8513 132.28C88.3553 132.872 87.6713 133.168 86.7993 133.168C86.0073 133.168 85.3753 132.908 84.9033 132.388V135.64H83.2353V127.24H84.7113V128.08ZM87.4953 131.296C87.7673 130.976 87.9033 130.584 87.9033 130.12C87.9033 129.656 87.7673 129.268 87.4953 128.956C87.2233 128.636 86.8553 128.476 86.3913 128.476C86.0473 128.476 85.7393 128.568 85.4673 128.752C85.2033 128.936 85.0113 129.164 84.8913 129.436V130.804C85.0113 131.076 85.2033 131.304 85.4673 131.488C85.7393 131.672 86.0473 131.764 86.3913 131.764C86.8553 131.764 87.2233 131.608 87.4953 131.296ZM95.8482 131.512C95.8482 131.768 95.9842 131.896 96.2562 131.896C96.3682 131.896 96.4722 131.88 96.5682 131.848V132.94C96.2642 133.052 95.9562 133.108 95.6442 133.108C95.0362 133.108 94.6122 132.892 94.3722 132.46C93.7722 132.932 93.0802 133.168 92.2962 133.168C91.7282 133.168 91.2482 133.012 90.8562 132.7C90.4722 132.38 90.2802 131.948 90.2802 131.404C90.2802 130.948 90.4162 130.568 90.6882 130.264C90.9602 129.96 91.2762 129.756 91.6362 129.652C91.9962 129.54 92.3882 129.484 92.8122 129.484C93.2842 129.484 93.7402 129.536 94.1802 129.64V129.436C94.1802 129.14 94.0642 128.904 93.8322 128.728C93.6002 128.552 93.2642 128.464 92.8242 128.464C92.1842 128.464 91.5042 128.608 90.7842 128.896V127.456C91.5522 127.2 92.2962 127.072 93.0162 127.072C94.9042 127.072 95.8482 127.94 95.8482 129.676V131.512ZM93.1962 130.48C92.8522 130.48 92.5642 130.544 92.3322 130.672C92.1002 130.8 91.9842 131 91.9842 131.272C91.9842 131.48 92.0682 131.652 92.2362 131.788C92.4122 131.916 92.6282 131.98 92.8842 131.98C93.3882 131.98 93.8202 131.824 94.1802 131.512V130.612C93.8122 130.524 93.4842 130.48 93.1962 130.48ZM100.227 133H98.571V128.644H96.735V127.24H102.063V128.644H100.227V133ZM105.958 133H102.958V127.24H104.626V129.04H105.958C106.686 129.04 107.254 129.228 107.662 129.604C108.078 129.972 108.286 130.444 108.286 131.02C108.286 131.596 108.078 132.072 107.662 132.448C107.254 132.816 106.686 133 105.958 133ZM104.614 130.24V131.8H105.55C105.878 131.8 106.13 131.732 106.306 131.596C106.482 131.46 106.57 131.268 106.57 131.02C106.57 130.772 106.482 130.58 106.306 130.444C106.13 130.308 105.878 130.24 105.55 130.24H104.614ZM115.451 133H111.923V127.24H115.355C115.995 127.24 116.471 127.388 116.783 127.684C117.095 127.972 117.251 128.332 117.251 128.764C117.251 129.42 116.955 129.86 116.363 130.084C117.043 130.308 117.383 130.76 117.383 131.44C117.383 131.896 117.231 132.272 116.927 132.568C116.623 132.856 116.131 133 115.451 133ZM113.591 130.612V131.86H114.959C115.471 131.86 115.727 131.656 115.727 131.248C115.727 130.824 115.471 130.612 114.959 130.612H113.591ZM113.579 128.38V129.604H114.851C115.331 129.604 115.571 129.404 115.571 129.004C115.571 128.588 115.327 128.38 114.839 128.38H113.579ZM118.185 130.204C118.185 129.676 118.277 129.204 118.461 128.788C118.653 128.372 118.905 128.044 119.217 127.804C119.529 127.556 119.873 127.372 120.249 127.252C120.625 127.124 121.021 127.06 121.437 127.06C122.101 127.06 122.693 127.2 123.213 127.48V128.944C122.765 128.656 122.253 128.512 121.677 128.512C121.173 128.512 120.749 128.644 120.405 128.908C120.061 129.172 119.889 129.576 119.889 130.12C119.889 130.64 120.061 131.04 120.405 131.32C120.749 131.592 121.165 131.728 121.653 131.728C122.269 131.728 122.809 131.588 123.273 131.308V132.784C122.673 133.04 122.025 133.168 121.329 133.168C120.465 133.168 119.725 132.916 119.109 132.412C118.493 131.9 118.185 131.164 118.185 130.204ZM124.032 130.12C124.032 129.6 124.124 129.14 124.308 128.74C124.492 128.332 124.732 128.012 125.028 127.78C125.332 127.548 125.648 127.372 125.976 127.252C126.312 127.132 126.652 127.072 126.996 127.072C127.572 127.072 128.068 127.18 128.484 127.396C128.908 127.612 129.22 127.892 129.42 128.236C129.62 128.572 129.756 128.956 129.828 129.388C129.908 129.812 129.888 130.236 129.768 130.66H125.712C125.8 131.06 126.032 131.36 126.408 131.56C126.784 131.752 127.228 131.848 127.74 131.848C128.372 131.848 128.952 131.732 129.48 131.5V132.808C128.912 133.048 128.208 133.168 127.368 133.168C126.408 133.168 125.612 132.9 124.98 132.364C124.348 131.828 124.032 131.08 124.032 130.12ZM128.268 129.58C128.308 129.316 128.232 129.044 128.04 128.764C127.848 128.484 127.52 128.344 127.056 128.344C126.688 128.344 126.372 128.456 126.108 128.68C125.844 128.896 125.708 129.196 125.7 129.58H128.268Z" fill="#454545"/>
<path d="M242.12 126.916C242.12 127.332 242.008 127.708 241.784 128.044C241.568 128.372 241.284 128.596 240.932 128.716C241.348 128.844 241.704 129.08 242 129.424C242.304 129.76 242.456 130.212 242.456 130.78C242.456 131.54 242.172 132.124 241.604 132.532C241.044 132.94 240.332 133.144 239.468 133.144C238.372 133.144 237.424 132.964 236.624 132.604V131.608C237.4 132.008 238.32 132.204 239.384 132.196C240.784 132.196 241.484 131.708 241.484 130.732C241.484 129.756 240.82 129.268 239.492 129.268H238.244V128.308L239.384 128.32C239.96 128.32 240.396 128.2 240.692 127.96C240.996 127.712 241.148 127.392 241.148 127C241.148 126.576 240.98 126.244 240.644 126.004C240.308 125.756 239.832 125.632 239.216 125.632C238.368 125.632 237.552 125.84 236.768 126.256V125.272C237.52 124.888 238.38 124.696 239.348 124.696C240.18 124.696 240.848 124.9 241.352 125.308C241.864 125.716 242.12 126.252 242.12 126.916ZM247.735 133H246.919V127.24H247.879V131.452L251.407 127.24H252.223V133H251.263V128.788L247.735 133ZM258.305 131.452C258.305 131.988 258.073 132.404 257.609 132.7C257.153 132.996 256.521 133.144 255.713 133.144C254.905 133.144 254.197 132.996 253.589 132.7V131.788C254.173 132.1 254.841 132.256 255.593 132.256C256.761 132.256 257.345 131.952 257.345 131.344C257.345 130.792 256.921 130.516 256.073 130.516H254.813V129.628H256.073C256.841 129.628 257.225 129.38 257.225 128.884C257.225 128.58 257.081 128.352 256.793 128.2C256.505 128.048 256.121 127.972 255.641 127.972C254.945 127.972 254.293 128.124 253.685 128.428V127.528C254.333 127.232 255.021 127.084 255.749 127.084C256.533 127.084 257.133 127.236 257.549 127.54C257.973 127.836 258.185 128.24 258.185 128.752C258.185 129.096 258.089 129.38 257.897 129.604C257.705 129.828 257.445 129.976 257.117 130.048C257.461 130.136 257.745 130.304 257.969 130.552C258.193 130.8 258.305 131.1 258.305 131.452ZM267.936 126.916C267.936 127.332 267.824 127.708 267.6 128.044C267.384 128.372 267.1 128.596 266.748 128.716C267.164 128.844 267.52 129.08 267.816 129.424C268.12 129.76 268.272 130.212 268.272 130.78C268.272 131.54 267.988 132.124 267.42 132.532C266.86 132.94 266.148 133.144 265.284 133.144C264.188 133.144 263.24 132.964 262.44 132.604V131.608C263.216 132.008 264.136 132.204 265.2 132.196C266.6 132.196 267.3 131.708 267.3 130.732C267.3 129.756 266.636 129.268 265.308 129.268H264.06V128.308L265.2 128.32C265.776 128.32 266.212 128.2 266.508 127.96C266.812 127.712 266.964 127.392 266.964 127C266.964 126.576 266.796 126.244 266.46 126.004C266.124 125.756 265.648 125.632 265.032 125.632C264.184 125.632 263.368 125.84 262.584 126.256V125.272C263.336 124.888 264.196 124.696 265.164 124.696C265.996 124.696 266.664 124.9 267.168 125.308C267.68 125.716 267.936 126.252 267.936 126.916Z" fill="#8E8E8E"/>
<path d="M288.112 133H287.104V124.6H293.956V133H292.948V125.56H288.112V133ZM296.334 132.34C295.726 131.796 295.422 131.056 295.422 130.12C295.422 129.184 295.726 128.448 296.334 127.912C296.942 127.368 297.662 127.096 298.494 127.096C299.334 127.096 300.054 127.368 300.654 127.912C301.262 128.448 301.566 129.184 301.566 130.12C301.566 131.056 301.262 131.796 300.654 132.34C300.054 132.876 299.334 133.144 298.494 133.144C297.662 133.144 296.942 132.876 296.334 132.34ZM300.006 131.668C300.406 131.284 300.606 130.768 300.606 130.12C300.606 129.472 300.406 128.96 300.006 128.584C299.606 128.2 299.102 128.008 298.494 128.008C297.886 128.008 297.382 128.2 296.982 128.584C296.582 128.96 296.382 129.472 296.382 130.12C296.382 130.768 296.582 131.284 296.982 131.668C297.382 132.044 297.886 132.232 298.494 132.232C299.102 132.232 299.606 132.044 300.006 131.668ZM303.759 133H302.943V127.24H303.903V131.452L307.431 127.24H308.247V133H307.287V128.788L303.759 133ZM309.625 130.144C309.625 129.64 309.717 129.188 309.901 128.788C310.085 128.388 310.325 128.068 310.621 127.828C310.925 127.588 311.257 127.408 311.617 127.288C311.985 127.16 312.361 127.096 312.745 127.096C313.457 127.096 314.049 127.252 314.521 127.564V128.5C314.081 128.156 313.529 127.984 312.865 127.984C312.241 127.984 311.705 128.164 311.257 128.524C310.809 128.884 310.585 129.416 310.585 130.12C310.585 130.816 310.805 131.348 311.245 131.716C311.693 132.076 312.225 132.256 312.841 132.256C313.481 132.256 314.061 132.1 314.581 131.788V132.748C314.037 133.012 313.413 133.144 312.709 133.144C311.877 133.144 311.153 132.884 310.537 132.364C309.929 131.844 309.625 131.104 309.625 130.144ZM316.946 133H315.986V127.24H316.946V129.64H318.11L319.934 127.24H321.05L318.866 130.108L321.314 133H320.186L318.074 130.528H316.946V133Z" fill="#8E8E8E"/>
<path d="M58.9 153.6H62.572C63.492 153.6 64.204 153.78 64.708 154.14C65.22 154.492 65.476 155.02 65.476 155.724C65.476 156.66 65.052 157.272 64.204 157.56C64.668 157.696 65.052 157.936 65.356 158.28C65.66 158.616 65.812 159.072 65.812 159.648C65.812 160.104 65.712 160.496 65.512 160.824C65.312 161.144 65.04 161.384 64.696 161.544C64.36 161.704 64.012 161.82 63.652 161.892C63.3 161.964 62.92 162 62.512 162H58.9V153.6ZM64.012 159.456C64.012 158.736 63.536 158.376 62.584 158.376H60.688V160.536H62.488C62.96 160.536 63.332 160.46 63.604 160.308C63.876 160.156 64.012 159.872 64.012 159.456ZM63.688 156.036C63.688 155.396 63.264 155.076 62.416 155.076H60.7V156.996H62.512C62.864 156.996 63.148 156.916 63.364 156.756C63.58 156.588 63.688 156.348 63.688 156.036ZM69.8877 162H66.8877V156.24H68.5557V158.04H69.8877C70.6157 158.04 71.1837 158.228 71.5917 158.604C72.0077 158.972 72.2157 159.444 72.2157 160.02C72.2157 160.596 72.0077 161.072 71.5917 161.448C71.1837 161.816 70.6157 162 69.8877 162ZM68.5437 159.24V160.8H69.4797C69.8077 160.8 70.0597 160.732 70.2357 160.596C70.4117 160.46 70.4997 160.268 70.4997 160.02C70.4997 159.772 70.4117 159.58 70.2357 159.444C70.0597 159.308 69.8077 159.24 69.4797 159.24H68.5437ZM74.8197 162H73.1517V156.24H74.8197V162ZM84.5913 162H76.2393V156.24H77.9073V160.596H79.5873V156.24H81.2433V160.596H82.9353V156.24H84.5913V162ZM85.6887 159.12C85.6887 158.6 85.7807 158.14 85.9647 157.74C86.1487 157.332 86.3887 157.012 86.6847 156.78C86.9887 156.548 87.3047 156.372 87.6327 156.252C87.9687 156.132 88.3087 156.072 88.6527 156.072C89.2287 156.072 89.7247 156.18 90.1407 156.396C90.5647 156.612 90.8767 156.892 91.0767 157.236C91.2767 157.572 91.4127 157.956 91.4847 158.388C91.5647 158.812 91.5447 159.236 91.4247 159.66H87.3687C87.4567 160.06 87.6887 160.36 88.0647 160.56C88.4407 160.752 88.8847 160.848 89.3967 160.848C90.0287 160.848 90.6087 160.732 91.1367 160.5V161.808C90.5687 162.048 89.8647 162.168 89.0247 162.168C88.0647 162.168 87.2687 161.9 86.6367 161.364C86.0047 160.828 85.6887 160.08 85.6887 159.12ZM89.9247 158.58C89.9647 158.316 89.8887 158.044 89.6967 157.764C89.5047 157.484 89.1767 157.344 88.7127 157.344C88.3447 157.344 88.0287 157.456 87.7647 157.68C87.5007 157.896 87.3647 158.196 87.3567 158.58H89.9247Z" fill="#454545"/>
<path d="M64.468 182.6H66.268V191H64.468V187.616H60.7V191H58.9V182.6H60.7V185.984H64.468V182.6ZM69.3241 191H67.8721V185.24H69.5401V188.48L72.1081 185.24H73.5481V191H71.8921V187.76L69.3241 191ZM83.6739 191H81.8859L80.4579 188.852H79.8099V191H78.1419V188.852H77.4939L76.0659 191H74.2779L76.2699 188.108L74.4459 185.24H76.2219L77.6019 187.532H78.1419V185.24H79.8099V187.532H80.3499L81.7299 185.24H83.5059L81.6819 188.108L83.6739 191ZM83.802 188.12C83.802 187.6 83.894 187.14 84.078 186.74C84.262 186.332 84.502 186.012 84.798 185.78C85.102 185.548 85.418 185.372 85.746 185.252C86.082 185.132 86.422 185.072 86.766 185.072C87.342 185.072 87.838 185.18 88.254 185.396C88.678 185.612 88.99 185.892 89.19 186.236C89.39 186.572 89.526 186.956 89.598 187.388C89.678 187.812 89.658 188.236 89.538 188.66H85.482C85.57 189.06 85.802 189.36 86.178 189.56C86.554 189.752 86.998 189.848 87.51 189.848C88.142 189.848 88.722 189.732 89.25 189.5V190.808C88.682 191.048 87.978 191.168 87.138 191.168C86.178 191.168 85.382 190.9 84.75 190.364C84.118 189.828 83.802 189.08 83.802 188.12ZM88.038 187.58C88.078 187.316 88.002 187.044 87.81 186.764C87.618 186.484 87.29 186.344 86.826 186.344C86.458 186.344 86.142 186.456 85.878 186.68C85.614 186.896 85.478 187.196 85.47 187.58H88.038Z" fill="#454545"/>
<path d="M58.9 210.6H62.068C64.484 210.6 65.692 211.54 65.692 213.42C65.692 215.3 64.484 216.24 62.068 216.24H60.7V219H58.9V210.6ZM62.152 214.656C63.288 214.656 63.856 214.244 63.856 213.42C63.856 212.596 63.288 212.184 62.152 212.184H60.7V214.656H62.152ZM71.6607 217.512C71.6607 217.768 71.7967 217.896 72.0687 217.896C72.1807 217.896 72.2847 217.88 72.3807 217.848V218.94C72.0767 219.052 71.7687 219.108 71.4567 219.108C70.8487 219.108 70.4247 218.892 70.1847 218.46C69.5847 218.932 68.8927 219.168 68.1087 219.168C67.5407 219.168 67.0607 219.012 66.6687 218.7C66.2847 218.38 66.0927 217.948 66.0927 217.404C66.0927 216.948 66.2287 216.568 66.5007 216.264C66.7727 215.96 67.0887 215.756 67.4487 215.652C67.8087 215.54 68.2007 215.484 68.6247 215.484C69.0967 215.484 69.5527 215.536 69.9927 215.64V215.436C69.9927 215.14 69.8767 214.904 69.6447 214.728C69.4127 214.552 69.0767 214.464 68.6367 214.464C67.9967 214.464 67.3167 214.608 66.5967 214.896V213.456C67.3647 213.2 68.1087 213.072 68.8287 213.072C70.7167 213.072 71.6607 213.94 71.6607 215.676V217.512ZM69.0087 216.48C68.6647 216.48 68.3767 216.544 68.1447 216.672C67.9127 216.8 67.7967 217 67.7967 217.272C67.7967 217.48 67.8807 217.652 68.0487 217.788C68.2247 217.916 68.4407 217.98 68.6967 217.98C69.2007 217.98 69.6327 217.824 69.9927 217.512V216.612C69.6247 216.524 69.2967 216.48 69.0087 216.48ZM76.8024 219H73.2744V213.24H76.7064C77.3464 213.24 77.8224 213.388 78.1344 213.684C78.4464 213.972 78.6024 214.332 78.6024 214.764C78.6024 215.42 78.3064 215.86 77.7144 216.084C78.3944 216.308 78.7344 216.76 78.7344 217.44C78.7344 217.896 78.5824 218.272 78.2784 218.568C77.9744 218.856 77.4824 219 76.8024 219ZM74.9424 216.612V217.86H76.3104C76.8224 217.86 77.0784 217.656 77.0784 217.248C77.0784 216.824 76.8224 216.612 76.3104 216.612H74.9424ZM74.9304 214.38V215.604H76.2024C76.6824 215.604 76.9224 215.404 76.9224 215.004C76.9224 214.588 76.6784 214.38 76.1904 214.38H74.9304ZM81.5283 219H79.8603V213.24H81.5283V215.424H83.8563V213.24H85.5243V219H83.8563V216.816H81.5283V219ZM87.5385 218.364C86.9225 217.828 86.6145 217.08 86.6145 216.12C86.6145 215.16 86.9225 214.412 87.5385 213.876C88.1545 213.34 88.9065 213.072 89.7945 213.072C90.6905 213.072 91.4425 213.34 92.0505 213.876C92.6665 214.412 92.9745 215.16 92.9745 216.12C92.9745 217.08 92.6665 217.828 92.0505 218.364C91.4425 218.9 90.6905 219.168 89.7945 219.168C88.9065 219.168 88.1545 218.9 87.5385 218.364ZM90.8865 217.248C91.1505 216.952 91.2825 216.576 91.2825 216.12C91.2825 215.664 91.1505 215.292 90.8865 215.004C90.6225 214.708 90.2585 214.56 89.7945 214.56C89.3305 214.56 88.9665 214.708 88.7025 215.004C88.4465 215.292 88.3185 215.664 88.3185 216.12C88.3185 216.576 88.4465 216.952 88.7025 217.248C88.9665 217.536 89.3305 217.68 89.7945 217.68C90.2585 217.68 90.6225 217.536 90.8865 217.248Z" fill="#454545"/>
<line x1="277.5" y1="115" x2="277.5" y2="143" stroke="#E6E6E6"/>
</svg>
