<svg width="1028" height="573" viewBox="0 0 1028 573" fill="none" xmlns="http://www.w3.org/2000/svg">
<path d="M20 45C20 36.7157 26.7157 30 35 30H973C981.284 30 988 36.7157 988 45V528C988 536.284 981.284 543 973 543H35C26.7158 543 20 536.284 20 528V45Z" fill="white"/>
<circle opacity="0.6" cx="784" cy="228" r="53" fill="#FFE264"/>
<path d="M837 228C837 240.514 832.572 252.625 824.5 262.187C816.427 271.75 805.232 278.148 792.895 280.248C780.558 282.349 767.876 280.016 757.095 273.663C746.313 267.31 738.127 257.347 733.986 245.538C729.845 233.729 730.016 220.835 734.469 209.14C738.922 197.445 747.37 187.703 758.317 181.639C769.264 175.574 782.003 173.579 794.28 176.006C806.556 178.434 817.578 185.127 825.393 194.9L784 228H837Z" fill="#F28100"/>
<path d="M837 228C837 239.453 833.29 250.598 826.425 259.766C819.561 268.934 809.911 275.632 798.921 278.856C787.931 282.081 776.192 281.658 765.463 277.652C754.733 273.647 745.589 266.273 739.401 256.635C733.213 246.997 730.314 235.615 731.137 224.191C731.96 212.767 736.462 201.918 743.967 193.267C751.473 184.616 761.579 178.629 772.772 176.203C783.966 173.777 795.644 175.042 806.058 179.808L784 228H837Z" fill="#0FA7F0"/>
<path d="M610.5 120C610.5 117.515 612.515 115.5 615 115.5H953C955.485 115.5 957.5 117.515 957.5 120V301C957.5 303.485 955.485 305.5 953 305.5H615C612.515 305.5 610.5 303.485 610.5 301V120Z" stroke="#E6E6E6"/>
<path d="M610 120C610 117.239 612.239 115 615 115H953C955.761 115 958 117.239 958 120V150H610V120Z" fill="#0FA7F0"/>
<path d="M626.138 139.385H624.578V135.44H625.838C626.958 133.4 627.518 130.42 627.518 126.5H634.283V135.44H635.618V139.385H634.058V137H626.138V139.385ZM629.198 128.075C628.988 131.475 628.488 133.93 627.698 135.44H632.573V128.075H629.198ZM637.573 136.19C636.813 135.52 636.433 134.59 636.433 133.4C636.433 132.21 636.813 131.28 637.573 130.61C638.343 129.94 639.263 129.605 640.333 129.605C641.413 129.605 642.333 129.94 643.093 130.61C643.853 131.28 644.233 132.21 644.233 133.4C644.233 134.59 643.853 135.52 643.093 136.19C642.333 136.86 641.413 137.195 640.333 137.195C639.263 137.195 638.343 136.86 637.573 136.19ZM641.968 135.095C642.388 134.665 642.598 134.1 642.598 133.4C642.598 132.7 642.388 132.14 641.968 131.72C641.548 131.29 641.003 131.075 640.333 131.075C639.653 131.075 639.103 131.29 638.683 131.72C638.263 132.14 638.053 132.7 638.053 133.4C638.053 134.1 638.263 134.665 638.683 135.095C639.103 135.515 639.653 135.725 640.333 135.725C641.003 135.725 641.548 135.515 641.968 135.095ZM648.508 131.165C648.448 132.105 648.368 132.91 648.268 133.58C648.168 134.25 648.018 134.87 647.818 135.44C647.618 136 647.353 136.425 647.023 136.715C646.703 136.995 646.308 137.135 645.838 137.135C645.528 137.135 645.198 137.07 644.848 136.94V135.68C645.018 135.74 645.173 135.77 645.313 135.77C645.883 135.77 646.283 135.275 646.513 134.285C646.753 133.285 646.913 131.79 646.993 129.8H652.543V137H650.938V131.165H648.508ZM655.749 137H653.904L655.884 134.465C655.374 134.285 654.979 133.995 654.699 133.595C654.419 133.195 654.279 132.74 654.279 132.23C654.279 131.54 654.524 130.965 655.014 130.505C655.514 130.035 656.194 129.8 657.054 129.8H660.774V137H659.169V134.645H657.534L655.749 137ZM656.289 131.435C656.039 131.625 655.914 131.895 655.914 132.245C655.914 132.595 656.039 132.87 656.289 133.07C656.539 133.26 656.884 133.355 657.324 133.355H659.169V131.135H657.324C656.884 131.135 656.539 131.235 656.289 131.435ZM667.932 137H666.327V129.8H667.932V132.695H671.532V129.8H673.137V137H671.532V134.105H667.932V137ZM681.28 135.335C681.28 135.685 681.455 135.86 681.805 135.86C681.925 135.86 682.085 135.83 682.285 135.77V136.925C681.985 137.045 681.645 137.105 681.265 137.105C680.545 137.105 680.065 136.825 679.825 136.265C679.055 136.885 678.15 137.195 677.11 137.195C676.41 137.195 675.815 137.005 675.325 136.625C674.835 136.235 674.59 135.69 674.59 134.99C674.59 134.15 674.905 133.54 675.535 133.16C676.165 132.77 676.92 132.575 677.8 132.575C678.38 132.575 679.005 132.645 679.675 132.785V132.53C679.675 132.07 679.51 131.7 679.18 131.42C678.85 131.14 678.385 131 677.785 131C676.895 131 676.03 131.185 675.19 131.555V130.085C676.13 129.765 677.05 129.605 677.95 129.605C679 129.605 679.815 129.865 680.395 130.385C680.985 130.905 681.28 131.695 681.28 132.755V135.335ZM678.115 133.7C677.585 133.7 677.14 133.795 676.78 133.985C676.42 134.175 676.24 134.475 676.24 134.885C676.24 135.225 676.37 135.49 676.63 135.68C676.89 135.86 677.21 135.95 677.59 135.95C678.41 135.95 679.105 135.665 679.675 135.095V133.88C679.095 133.76 678.575 133.7 678.115 133.7ZM684.92 130.925C685.65 130.045 686.575 129.605 687.695 129.605C688.755 129.605 689.615 129.975 690.275 130.715C690.935 131.445 691.265 132.34 691.265 133.4C691.265 134.46 690.935 135.36 690.275 136.1C689.615 136.83 688.755 137.195 687.695 137.195C686.615 137.195 685.75 136.82 685.1 136.07V140.3H683.495V129.8H684.92V130.925ZM689 135.125C689.42 134.675 689.63 134.1 689.63 133.4C689.63 132.7 689.42 132.13 689 131.69C688.58 131.24 688.045 131.015 687.395 131.015C686.865 131.015 686.395 131.16 685.985 131.45C685.585 131.74 685.29 132.095 685.1 132.515V134.27C685.29 134.7 685.585 135.06 685.985 135.35C686.395 135.64 686.865 135.785 687.395 135.785C688.045 135.785 688.58 135.565 689 135.125ZM695.787 135.23L697.932 129.8H699.612L696.237 137.975C695.547 139.645 694.582 140.48 693.342 140.48C693.052 140.48 692.737 140.44 692.397 140.36V138.995C692.617 139.065 692.862 139.1 693.132 139.1C693.902 139.1 694.497 138.54 694.917 137.42L695.067 137.06L691.647 129.8H693.357L695.787 135.23ZM711.039 137H700.809V129.8H702.414V135.59H705.129V129.8H706.734V135.59H709.434V129.8H711.039V137ZM712.605 133.4C712.605 132.78 712.715 132.22 712.935 131.72C713.155 131.21 713.445 130.81 713.805 130.52C714.165 130.22 714.555 129.995 714.975 129.845C715.395 129.685 715.82 129.605 716.25 129.605C716.8 129.605 717.295 129.69 717.735 129.86C718.185 130.03 718.545 130.26 718.815 130.55C719.085 130.84 719.305 131.175 719.475 131.555C719.645 131.935 719.735 132.335 719.745 132.755C719.755 133.165 719.72 133.58 719.64 134H714.225C714.305 134.61 714.605 135.07 715.125 135.38C715.645 135.68 716.265 135.83 716.985 135.83C717.805 135.83 718.565 135.66 719.265 135.32V136.7C718.575 137.03 717.715 137.195 716.685 137.195C715.515 137.195 714.54 136.865 713.76 136.205C712.99 135.545 712.605 134.61 712.605 133.4ZM718.2 132.8C718.26 132.39 718.135 131.98 717.825 131.57C717.525 131.15 717.025 130.94 716.325 130.94C715.755 130.94 715.265 131.105 714.855 131.435C714.455 131.765 714.24 132.22 714.21 132.8H718.2ZM722.849 137H721.244V129.8H722.849V132.695H726.449V129.8H728.054V137H726.449V134.105H722.849V137ZM731.442 137H730.062V129.8H731.667V134.51L735.522 129.8H736.902V137H735.297V132.29L731.442 137ZM744.52 128.18C743.92 128.59 743.19 128.795 742.33 128.795C741.47 128.795 740.74 128.59 740.14 128.18V126.875C740.81 127.295 741.54 127.505 742.33 127.505C743.12 127.505 743.85 127.295 744.52 126.875V128.18ZM740.29 137H738.91V129.8H740.515V134.51L744.37 129.8H745.75V137H744.145V132.29L740.29 137Z" fill="white"/>
<path d="M105.5 120C105.5 117.515 107.515 115.5 110 115.5H294C296.485 115.5 298.5 117.515 298.5 120V301C298.5 303.485 296.485 305.5 294 305.5H110C107.515 305.5 105.5 303.485 105.5 301V120Z" stroke="#E6E6E6"/>
<path d="M105 120C105 117.239 107.239 115 110 115H294C296.761 115 299 117.239 299 120V150H105V120Z" fill="#0FA7F0"/>
<path d="M120.993 137H119.283V126.5H128.103V137H126.393V128.075H120.993V137ZM130.895 136.19C130.135 135.52 129.755 134.59 129.755 133.4C129.755 132.21 130.135 131.28 130.895 130.61C131.665 129.94 132.585 129.605 133.655 129.605C134.735 129.605 135.655 129.94 136.415 130.61C137.175 131.28 137.555 132.21 137.555 133.4C137.555 134.59 137.175 135.52 136.415 136.19C135.655 136.86 134.735 137.195 133.655 137.195C132.585 137.195 131.665 136.86 130.895 136.19ZM135.29 135.095C135.71 134.665 135.92 134.1 135.92 133.4C135.92 132.7 135.71 132.14 135.29 131.72C134.87 131.29 134.325 131.075 133.655 131.075C132.975 131.075 132.425 131.29 132.005 131.72C131.585 132.14 131.375 132.7 131.375 133.4C131.375 134.1 131.585 134.665 132.005 135.095C132.425 135.515 132.975 135.725 133.655 135.725C134.325 135.725 134.87 135.515 135.29 135.095ZM140.491 137H139.111V129.8H140.716V134.51L144.571 129.8H145.951V137H144.346V132.29L140.491 137ZM147.509 133.46C147.509 132.21 147.904 131.255 148.694 130.595C149.484 129.935 150.414 129.605 151.484 129.605C152.344 129.605 153.084 129.79 153.704 130.16V131.63C153.144 131.23 152.479 131.03 151.709 131.03C150.999 131.03 150.394 131.23 149.894 131.63C149.394 132.02 149.144 132.61 149.144 133.4C149.144 134.17 149.389 134.76 149.879 135.17C150.379 135.57 150.979 135.77 151.679 135.77C152.439 135.77 153.139 135.585 153.779 135.215V136.7C153.089 137.03 152.294 137.195 151.394 137.195C150.344 137.195 149.434 136.875 148.664 136.235C147.894 135.585 147.509 134.66 147.509 133.46ZM156.99 137H155.385V129.8H156.99V132.65H158.175L160.245 129.8H162.075L159.465 133.37L162.36 137H160.515L158.145 134.015H156.99V137ZM170.303 137H168.698V131.21H166.208V129.8H172.778V131.21H170.303V137ZM174.532 136.19C173.772 135.52 173.392 134.59 173.392 133.4C173.392 132.21 173.772 131.28 174.532 130.61C175.302 129.94 176.222 129.605 177.292 129.605C178.372 129.605 179.292 129.94 180.052 130.61C180.812 131.28 181.192 132.21 181.192 133.4C181.192 134.59 180.812 135.52 180.052 136.19C179.292 136.86 178.372 137.195 177.292 137.195C176.222 137.195 175.302 136.86 174.532 136.19ZM178.927 135.095C179.347 134.665 179.557 134.1 179.557 133.4C179.557 132.7 179.347 132.14 178.927 131.72C178.507 131.29 177.962 131.075 177.292 131.075C176.612 131.075 176.062 131.29 175.642 131.72C175.222 132.14 175.012 132.7 175.012 133.4C175.012 134.1 175.222 134.665 175.642 135.095C176.062 135.515 176.612 135.725 177.292 135.725C177.962 135.725 178.507 135.515 178.927 135.095ZM186.979 137H182.749V129.8H186.859C187.569 129.8 188.124 129.98 188.524 130.34C188.934 130.69 189.139 131.15 189.139 131.72C189.139 132.51 188.799 133.055 188.119 133.355C188.479 133.465 188.774 133.665 189.004 133.955C189.234 134.245 189.349 134.6 189.349 135.02C189.349 135.61 189.149 136.09 188.749 136.46C188.359 136.82 187.769 137 186.979 137ZM184.354 133.94V135.785H186.589C187.349 135.785 187.729 135.48 187.729 134.87C187.729 134.25 187.359 133.94 186.619 133.94H184.354ZM184.354 131.015V132.8H186.499C187.179 132.8 187.519 132.51 187.519 131.93C187.519 131.61 187.419 131.38 187.219 131.24C187.029 131.09 186.789 131.015 186.499 131.015H184.354ZM197.101 135.335C197.101 135.685 197.276 135.86 197.626 135.86C197.746 135.86 197.906 135.83 198.106 135.77V136.925C197.806 137.045 197.466 137.105 197.086 137.105C196.366 137.105 195.886 136.825 195.646 136.265C194.876 136.885 193.971 137.195 192.931 137.195C192.231 137.195 191.636 137.005 191.146 136.625C190.656 136.235 190.411 135.69 190.411 134.99C190.411 134.15 190.726 133.54 191.356 133.16C191.986 132.77 192.741 132.575 193.621 132.575C194.201 132.575 194.826 132.645 195.496 132.785V132.53C195.496 132.07 195.331 131.7 195.001 131.42C194.671 131.14 194.206 131 193.606 131C192.716 131 191.851 131.185 191.011 131.555V130.085C191.951 129.765 192.871 129.605 193.771 129.605C194.821 129.605 195.636 129.865 196.216 130.385C196.806 130.905 197.101 131.695 197.101 132.755V135.335ZM193.936 133.7C193.406 133.7 192.961 133.795 192.601 133.985C192.241 134.175 192.061 134.475 192.061 134.885C192.061 135.225 192.191 135.49 192.451 135.68C192.711 135.86 193.031 135.95 193.411 135.95C194.231 135.95 194.926 135.665 195.496 135.095V133.88C194.916 133.76 194.396 133.7 193.936 133.7ZM200.741 130.925C201.471 130.045 202.396 129.605 203.516 129.605C204.576 129.605 205.436 129.975 206.096 130.715C206.756 131.445 207.086 132.34 207.086 133.4C207.086 134.46 206.756 135.36 206.096 136.1C205.436 136.83 204.576 137.195 203.516 137.195C202.436 137.195 201.571 136.82 200.921 136.07V140.3H199.316V129.8H200.741V130.925ZM204.821 135.125C205.241 134.675 205.451 134.1 205.451 133.4C205.451 132.7 205.241 132.13 204.821 131.69C204.401 131.24 203.866 131.015 203.216 131.015C202.686 131.015 202.216 131.16 201.806 131.45C201.406 131.74 201.111 132.095 200.921 132.515V134.27C201.111 134.7 201.406 135.06 201.806 135.35C202.216 135.64 202.686 135.785 203.216 135.785C203.866 135.785 204.401 135.565 204.821 135.125ZM214.782 135.335C214.782 135.685 214.957 135.86 215.307 135.86C215.427 135.86 215.587 135.83 215.787 135.77V136.925C215.487 137.045 215.147 137.105 214.767 137.105C214.047 137.105 213.567 136.825 213.327 136.265C212.557 136.885 211.652 137.195 210.612 137.195C209.912 137.195 209.317 137.005 208.827 136.625C208.337 136.235 208.092 135.69 208.092 134.99C208.092 134.15 208.407 133.54 209.037 133.16C209.667 132.77 210.422 132.575 211.302 132.575C211.882 132.575 212.507 132.645 213.177 132.785V132.53C213.177 132.07 213.012 131.7 212.682 131.42C212.352 131.14 211.887 131 211.287 131C210.397 131 209.532 131.185 208.692 131.555V130.085C209.632 129.765 210.552 129.605 211.452 129.605C212.502 129.605 213.317 129.865 213.897 130.385C214.487 130.905 214.782 131.695 214.782 132.755V135.335ZM211.617 133.7C211.087 133.7 210.642 133.795 210.282 133.985C209.922 134.175 209.742 134.475 209.742 134.885C209.742 135.225 209.872 135.49 210.132 135.68C210.392 135.86 210.712 135.95 211.092 135.95C211.912 135.95 212.607 135.665 213.177 135.095V133.88C212.597 133.76 212.077 133.7 211.617 133.7Z" fill="white"/>
<path d="M126 183.5H278" stroke="#E6E6E6"/>
<path d="M126 203.5H278" stroke="#E6E6E6"/>
<path d="M126 192C126 190.895 126.895 190 128 190H276C277.105 190 278 190.895 278 192V195C278 196.105 277.105 197 276 197H128C126.895 197 126 196.105 126 195V192Z" fill="#E6E6E6"/>
<path d="M126 223.5H278" stroke="#E6E6E6"/>
<path d="M126 212C126 210.895 126.895 210 128 210H276C277.105 210 278 210.895 278 212V215C278 216.105 277.105 217 276 217H128C126.895 217 126 216.105 126 215V212Z" fill="#E6E6E6"/>
<path d="M126 243.5H278" stroke="#E6E6E6"/>
<path d="M126 232C126 230.895 126.895 230 128 230H276C277.105 230 278 230.895 278 232V235C278 236.105 277.105 237 276 237H128C126.895 237 126 236.105 126 235V232Z" fill="#E6E6E6"/>
<path d="M126 263.5H278" stroke="#E6E6E6"/>
<path d="M126 252C126 250.895 126.895 250 128 250H276C277.105 250 278 250.895 278 252V255C278 256.105 277.105 257 276 257H128C126.895 257 126 256.105 126 255V252Z" fill="#E6E6E6"/>
<path d="M126 283.5H278" stroke="#E6E6E6"/>
<path d="M126 272C126 270.895 126.895 270 128 270H276C277.105 270 278 270.895 278 272V275C278 276.105 277.105 277 276 277H128C126.895 277 126 276.105 126 275V272Z" fill="#E6E6E6"/>
<rect x="126" y="170" width="104" height="7" rx="2" fill="#B3B3B3"/>
<path d="M108.086 511.621C106.864 511.114 105.886 510.136 105.379 508.914L105.841 508.722C105.622 508.193 105.5 507.611 105.5 507V503.542H105V496.625H105.5V489.708H105V482.792H105.5V475.875H105V468.958H105.5V462.042H105V455.125H105.5V448.208H105V441.292H105.5V434.375H105V427.458H105.5V420.542H105V413.625H105.5V406.708H105V399.792H105.5V392.875H105V385.958H105.5V379.042H105V372.125H105.5V365.208H105V358.292H105.5V351.375H105V344.458H105.5V341C105.5 340.389 105.622 339.807 105.841 339.278L105.379 339.086C105.886 337.864 106.864 336.886 108.086 336.379L108.278 336.841C108.807 336.622 109.389 336.5 110 336.5H113.539V336H120.615V336.5H127.692V336H134.769V336.5H141.846V336H148.923V336.5H156V336H163.077V336.5H170.154V336H177.231V336.5H184.308V336H191.385V336.5H198.462V336H205.538V336.5H212.615V336H219.692V336.5H226.769V336H233.846V336.5H240.923V336H248V336.5H255.077V336H262.154V336.5H269.231V336H276.308V336.5H283.385V336H290.462V336.5H294C294.611 336.5 295.193 336.622 295.722 336.841L295.914 336.379C297.136 336.886 298.114 337.864 298.621 339.086L298.159 339.278C298.378 339.807 298.5 340.389 298.5 341V344.458H299V351.375H298.5V358.292H299V365.208H298.5V372.125H299V379.042H298.5V385.958H299V392.875H298.5V399.792H299V406.708H298.5V413.625H299V420.542H298.5V427.458H299V434.375H298.5V441.292H299V448.208H298.5V455.125H299V462.042H298.5V468.958H299V475.875H298.5V482.792H299V489.708H298.5V496.625H299V503.542H298.5V507C298.5 507.611 298.378 508.193 298.159 508.722L298.621 508.914C298.114 510.136 297.136 511.114 295.914 511.621L295.722 511.159C295.193 511.378 294.611 511.5 294 511.5H290.461V512H283.385V511.5H276.308V512H269.231V511.5H262.154V512H255.077V511.5H248V512H240.923V511.5H233.846V512H226.769V511.5H219.692V512H212.615V511.5H205.538V512H198.462V511.5H191.385V512H184.308V511.5H177.231V512H170.154V511.5H163.077V512H156V511.5H148.923V512H141.846V511.5H134.769V512H127.692V511.5H120.615V512H113.538V511.5H110C109.389 511.5 108.807 511.378 108.278 511.159L108.086 511.621Z" stroke="#E6E6E6" stroke-dasharray="7 7"/>
<path d="M329.5 120C329.5 117.515 331.515 115.5 334 115.5H574C576.485 115.5 578.5 117.515 578.5 120V301C578.5 303.485 576.485 305.5 574 305.5H334C331.515 305.5 329.5 303.485 329.5 301V120Z" stroke="#E6E6E6"/>
<path d="M329 120C329 117.239 331.239 115 334 115H574C576.761 115 579 117.239 579 120V150H329V120Z" fill="#0FA7F0"/>
<path d="M343.901 131.84C343.901 130.94 344.061 130.13 344.381 129.41C344.701 128.69 345.126 128.11 345.656 127.67C346.186 127.22 346.776 126.88 347.426 126.65C348.076 126.42 348.756 126.305 349.466 126.305C350.536 126.305 351.531 126.535 352.451 126.995V128.66C351.701 128.14 350.801 127.88 349.751 127.88C348.641 127.88 347.681 128.215 346.871 128.885C346.061 129.555 345.651 130.54 345.641 131.84C345.641 132.66 345.851 133.365 346.271 133.955C346.691 134.545 347.206 134.97 347.816 135.23C348.426 135.49 349.081 135.62 349.781 135.62C350.901 135.62 351.816 135.35 352.526 134.81V136.505C351.586 136.965 350.571 137.195 349.481 137.195C348.781 137.195 348.106 137.085 347.456 136.865C346.806 136.635 346.211 136.305 345.671 135.875C345.131 135.445 344.701 134.88 344.381 134.18C344.061 133.48 343.901 132.7 343.901 131.84ZM358.292 137H354.062V129.8H358.172C358.882 129.8 359.437 129.98 359.837 130.34C360.247 130.69 360.452 131.15 360.452 131.72C360.452 132.51 360.112 133.055 359.432 133.355C359.792 133.465 360.087 133.665 360.317 133.955C360.547 134.245 360.662 134.6 360.662 135.02C360.662 135.61 360.462 136.09 360.062 136.46C359.672 136.82 359.082 137 358.292 137ZM355.667 133.94V135.785H357.902C358.662 135.785 359.042 135.48 359.042 134.87C359.042 134.25 358.672 133.94 357.932 133.94H355.667ZM355.667 131.015V132.8H357.812C358.492 132.8 358.832 132.51 358.832 131.93C358.832 131.61 358.732 131.38 358.532 131.24C358.342 131.09 358.102 131.015 357.812 131.015H355.667ZM362.969 136.19C362.209 135.52 361.829 134.59 361.829 133.4C361.829 132.21 362.209 131.28 362.969 130.61C363.739 129.94 364.659 129.605 365.729 129.605C366.809 129.605 367.729 129.94 368.489 130.61C369.249 131.28 369.629 132.21 369.629 133.4C369.629 134.59 369.249 135.52 368.489 136.19C367.729 136.86 366.809 137.195 365.729 137.195C364.659 137.195 363.739 136.86 362.969 136.19ZM367.364 135.095C367.784 134.665 367.994 134.1 367.994 133.4C367.994 132.7 367.784 132.14 367.364 131.72C366.944 131.29 366.399 131.075 365.729 131.075C365.049 131.075 364.499 131.29 364.079 131.72C363.659 132.14 363.449 132.7 363.449 133.4C363.449 134.1 363.659 134.665 364.079 135.095C364.499 135.515 365.049 135.725 365.729 135.725C366.399 135.725 366.944 135.515 367.364 135.095ZM371.88 138.935H370.365V135.68H371.355C372.145 134.28 372.525 132.32 372.495 129.8H378.12V135.68H379.185V138.935H377.67V137H371.88V138.935ZM373.995 131.12C373.935 132.92 373.615 134.44 373.035 135.68H376.5V131.12H373.995ZM382.254 137H380.649V129.8H382.254V132.65H383.439L385.509 129.8H387.339L384.729 133.37L387.624 137H385.779L383.409 134.015H382.254V137ZM394.738 135.335C394.738 135.685 394.913 135.86 395.263 135.86C395.383 135.86 395.543 135.83 395.743 135.77V136.925C395.443 137.045 395.103 137.105 394.723 137.105C394.003 137.105 393.523 136.825 393.283 136.265C392.513 136.885 391.608 137.195 390.568 137.195C389.868 137.195 389.273 137.005 388.783 136.625C388.293 136.235 388.048 135.69 388.048 134.99C388.048 134.15 388.363 133.54 388.993 133.16C389.623 132.77 390.378 132.575 391.258 132.575C391.838 132.575 392.463 132.645 393.133 132.785V132.53C393.133 132.07 392.968 131.7 392.638 131.42C392.308 131.14 391.843 131 391.243 131C390.353 131 389.488 131.185 388.648 131.555V130.085C389.588 129.765 390.508 129.605 391.408 129.605C392.458 129.605 393.273 129.865 393.853 130.385C394.443 130.905 394.738 131.695 394.738 132.755V135.335ZM391.573 133.7C391.043 133.7 390.598 133.795 390.238 133.985C389.878 134.175 389.698 134.475 389.698 134.885C389.698 135.225 389.828 135.49 390.088 135.68C390.348 135.86 390.668 135.95 391.048 135.95C391.868 135.95 392.563 135.665 393.133 135.095V133.88C392.553 133.76 392.033 133.7 391.573 133.7ZM402.102 137H400.497V129.8H407.307V137H405.702V131.21H402.102V137ZM410.006 136.19C409.246 135.52 408.866 134.59 408.866 133.4C408.866 132.21 409.246 131.28 410.006 130.61C410.776 129.94 411.696 129.605 412.766 129.605C413.846 129.605 414.766 129.94 415.526 130.61C416.286 131.28 416.666 132.21 416.666 133.4C416.666 134.59 416.286 135.52 415.526 136.19C414.766 136.86 413.846 137.195 412.766 137.195C411.696 137.195 410.776 136.86 410.006 136.19ZM414.401 135.095C414.821 134.665 415.031 134.1 415.031 133.4C415.031 132.7 414.821 132.14 414.401 131.72C413.981 131.29 413.436 131.075 412.766 131.075C412.086 131.075 411.536 131.29 411.116 131.72C410.696 132.14 410.486 132.7 410.486 133.4C410.486 134.1 410.696 134.665 411.116 135.095C411.536 135.515 412.086 135.725 412.766 135.725C413.436 135.725 413.981 135.515 414.401 135.095ZM423.372 137H421.767V129.8H423.372V132.695H426.972V129.8H428.577V137H426.972V134.105H423.372V137ZM436.72 135.335C436.72 135.685 436.895 135.86 437.245 135.86C437.365 135.86 437.525 135.83 437.725 135.77V136.925C437.425 137.045 437.085 137.105 436.705 137.105C435.985 137.105 435.505 136.825 435.265 136.265C434.495 136.885 433.59 137.195 432.55 137.195C431.85 137.195 431.255 137.005 430.765 136.625C430.275 136.235 430.03 135.69 430.03 134.99C430.03 134.15 430.345 133.54 430.975 133.16C431.605 132.77 432.36 132.575 433.24 132.575C433.82 132.575 434.445 132.645 435.115 132.785V132.53C435.115 132.07 434.95 131.7 434.62 131.42C434.29 131.14 433.825 131 433.225 131C432.335 131 431.47 131.185 430.63 131.555V130.085C431.57 129.765 432.49 129.605 433.39 129.605C434.44 129.605 435.255 129.865 435.835 130.385C436.425 130.905 436.72 131.695 436.72 132.755V135.335ZM433.555 133.7C433.025 133.7 432.58 133.795 432.22 133.985C431.86 134.175 431.68 134.475 431.68 134.885C431.68 135.225 431.81 135.49 432.07 135.68C432.33 135.86 432.65 135.95 433.03 135.95C433.85 135.95 434.545 135.665 435.115 135.095V133.88C434.535 133.76 434.015 133.7 433.555 133.7ZM440.36 130.925C441.09 130.045 442.015 129.605 443.135 129.605C444.195 129.605 445.055 129.975 445.715 130.715C446.375 131.445 446.705 132.34 446.705 133.4C446.705 134.46 446.375 135.36 445.715 136.1C445.055 136.83 444.195 137.195 443.135 137.195C442.055 137.195 441.19 136.82 440.54 136.07V140.3H438.935V129.8H440.36V130.925ZM444.44 135.125C444.86 134.675 445.07 134.1 445.07 133.4C445.07 132.7 444.86 132.13 444.44 131.69C444.02 131.24 443.485 131.015 442.835 131.015C442.305 131.015 441.835 131.16 441.425 131.45C441.025 131.74 440.73 132.095 440.54 132.515V134.27C440.73 134.7 441.025 135.06 441.425 135.35C441.835 135.64 442.305 135.785 442.835 135.785C443.485 135.785 444.02 135.565 444.44 135.125ZM451.227 135.23L453.372 129.8H455.052L451.677 137.975C450.987 139.645 450.022 140.48 448.782 140.48C448.492 140.48 448.177 140.44 447.837 140.36V138.995C448.057 139.065 448.302 139.1 448.572 139.1C449.342 139.1 449.937 138.54 450.357 137.42L450.507 137.06L447.087 129.8H448.797L451.227 135.23ZM466.479 137H456.249V129.8H457.854V135.59H460.569V129.8H462.174V135.59H464.874V129.8H466.479V137ZM468.045 133.4C468.045 132.78 468.155 132.22 468.375 131.72C468.595 131.21 468.885 130.81 469.245 130.52C469.605 130.22 469.995 129.995 470.415 129.845C470.835 129.685 471.26 129.605 471.69 129.605C472.24 129.605 472.735 129.69 473.175 129.86C473.625 130.03 473.985 130.26 474.255 130.55C474.525 130.84 474.745 131.175 474.915 131.555C475.085 131.935 475.175 132.335 475.185 132.755C475.195 133.165 475.16 133.58 475.08 134H469.665C469.745 134.61 470.045 135.07 470.565 135.38C471.085 135.68 471.705 135.83 472.425 135.83C473.245 135.83 474.005 135.66 474.705 135.32V136.7C474.015 137.03 473.155 137.195 472.125 137.195C470.955 137.195 469.98 136.865 469.2 136.205C468.43 135.545 468.045 134.61 468.045 133.4ZM473.64 132.8C473.7 132.39 473.575 131.98 473.265 131.57C472.965 131.15 472.465 130.94 471.765 130.94C471.195 130.94 470.705 131.105 470.295 131.435C469.895 131.765 469.68 132.22 469.65 132.8H473.64ZM478.289 137H476.684V129.8H478.289V132.695H481.889V129.8H483.494V137H481.889V134.105H478.289V137ZM486.882 137H485.502V129.8H487.107V134.51L490.962 129.8H492.342V137H490.737V132.29L486.882 137ZM495.55 137H493.705L495.685 134.465C495.175 134.285 494.78 133.995 494.5 133.595C494.22 133.195 494.08 132.74 494.08 132.23C494.08 131.54 494.325 130.965 494.815 130.505C495.315 130.035 495.995 129.8 496.855 129.8H500.575V137H498.97V134.645H497.335L495.55 137ZM496.09 131.435C495.84 131.625 495.715 131.895 495.715 132.245C495.715 132.595 495.84 132.87 496.09 133.07C496.34 133.26 496.685 133.355 497.125 133.355H498.97V131.135H497.125C496.685 131.135 496.34 131.235 496.09 131.435ZM504.127 137H502.582V129.8H504.202L506.647 133.595L509.107 129.8H510.727V137H509.182V132.125L507.127 135.275H506.167L504.127 132.125V137Z" fill="white"/>
<path d="M350 173C350 171.343 351.343 170 353 170H555C556.657 170 558 171.343 558 173V182C558 183.657 556.657 185 555 185H353C351.343 185 350 183.657 350 182V173Z" fill="#E6E6E6"/>
<path d="M355 176C355 174.895 355.895 174 357 174H398C399.105 174 400 174.895 400 176V179C400 180.105 399.105 181 398 181H357C355.895 181 355 180.105 355 179V176Z" fill="#B3B3B3"/>
<path d="M406 176C406 174.895 406.895 174 408 174H449C450.105 174 451 174.895 451 176V179C451 180.105 450.105 181 449 181H408C406.895 181 406 180.105 406 179V176Z" fill="#B3B3B3"/>
<path d="M457 176C457 174.895 457.895 174 459 174H500C501.105 174 502 174.895 502 176V179C502 180.105 501.105 181 500 181H459C457.895 181 457 180.105 457 179V176Z" fill="#B3B3B3"/>
<path d="M508 176C508 174.895 508.895 174 510 174H551C552.105 174 553 174.895 553 176V179C553 180.105 552.105 181 551 181H510C508.895 181 508 180.105 508 179V176Z" fill="#B3B3B3"/>
<line x1="350" y1="202.5" x2="558" y2="202.5" stroke="#E1E1E9"/>
<path d="M355 192C355 190.895 355.895 190 357 190H398C399.105 190 400 190.895 400 192V195C400 196.105 399.105 197 398 197H357C355.895 197 355 196.105 355 195V192Z" fill="#B3B3B3"/>
<path d="M406 192C406 190.895 406.895 190 408 190H449C450.105 190 451 190.895 451 192V195C451 196.105 450.105 197 449 197H408C406.895 197 406 196.105 406 195V192Z" fill="#E6E6E6"/>
<path d="M457 192C457 190.895 457.895 190 459 190H500C501.105 190 502 190.895 502 192V195C502 196.105 501.105 197 500 197H459C457.895 197 457 196.105 457 195V192Z" fill="#E6E6E6"/>
<path d="M508 192C508 190.895 508.895 190 510 190H551C552.105 190 553 190.895 553 192V195C553 196.105 552.105 197 551 197H510C508.895 197 508 196.105 508 195V192Z" fill="#E6E6E6"/>
<line x1="350" y1="220.5" x2="558" y2="220.5" stroke="#E1E1E9"/>
<path d="M355 210C355 208.895 355.895 208 357 208H398C399.105 208 400 208.895 400 210V213C400 214.105 399.105 215 398 215H357C355.895 215 355 214.105 355 213V210Z" fill="#B3B3B3"/>
<path d="M406 210C406 208.895 406.895 208 408 208H449C450.105 208 451 208.895 451 210V213C451 214.105 450.105 215 449 215H408C406.895 215 406 214.105 406 213V210Z" fill="#E6E6E6"/>
<path d="M457 210C457 208.895 457.895 208 459 208H500C501.105 208 502 208.895 502 210V213C502 214.105 501.105 215 500 215H459C457.895 215 457 214.105 457 213V210Z" fill="#E6E6E6"/>
<path d="M508 210C508 208.895 508.895 208 510 208H551C552.105 208 553 208.895 553 210V213C553 214.105 552.105 215 551 215H510C508.895 215 508 214.105 508 213V210Z" fill="#E6E6E6"/>
<line x1="350" y1="238.5" x2="558" y2="238.5" stroke="#E1E1E9"/>
<path d="M355 228C355 226.895 355.895 226 357 226H398C399.105 226 400 226.895 400 228V231C400 232.105 399.105 233 398 233H357C355.895 233 355 232.105 355 231V228Z" fill="#B3B3B3"/>
<path d="M406 228C406 226.895 406.895 226 408 226H449C450.105 226 451 226.895 451 228V231C451 232.105 450.105 233 449 233H408C406.895 233 406 232.105 406 231V228Z" fill="#E6E6E6"/>
<path d="M457 228C457 226.895 457.895 226 459 226H500C501.105 226 502 226.895 502 228V231C502 232.105 501.105 233 500 233H459C457.895 233 457 232.105 457 231V228Z" fill="#E6E6E6"/>
<path d="M508 228C508 226.895 508.895 226 510 226H551C552.105 226 553 226.895 553 228V231C553 232.105 552.105 233 551 233H510C508.895 233 508 232.105 508 231V228Z" fill="#E6E6E6"/>
<line x1="350" y1="256.5" x2="558" y2="256.5" stroke="#E1E1E9"/>
<path d="M355 246C355 244.895 355.895 244 357 244H398C399.105 244 400 244.895 400 246V249C400 250.105 399.105 251 398 251H357C355.895 251 355 250.105 355 249V246Z" fill="#B3B3B3"/>
<path d="M406 246C406 244.895 406.895 244 408 244H449C450.105 244 451 244.895 451 246V249C451 250.105 450.105 251 449 251H408C406.895 251 406 250.105 406 249V246Z" fill="#E6E6E6"/>
<path d="M457 246C457 244.895 457.895 244 459 244H500C501.105 244 502 244.895 502 246V249C502 250.105 501.105 251 500 251H459C457.895 251 457 250.105 457 249V246Z" fill="#E6E6E6"/>
<path d="M508 246C508 244.895 508.895 244 510 244H551C552.105 244 553 244.895 553 246V249C553 250.105 552.105 251 551 251H510C508.895 251 508 250.105 508 249V246Z" fill="#E6E6E6"/>
<line x1="350" y1="274.5" x2="558" y2="274.5" stroke="#E1E1E9"/>
<path d="M355 264C355 262.895 355.895 262 357 262H398C399.105 262 400 262.895 400 264V267C400 268.105 399.105 269 398 269H357C355.895 269 355 268.105 355 267V264Z" fill="#B3B3B3"/>
<path d="M406 264C406 262.895 406.895 262 408 262H449C450.105 262 451 262.895 451 264V267C451 268.105 450.105 269 449 269H408C406.895 269 406 268.105 406 267V264Z" fill="#E6E6E6"/>
<path d="M457 264C457 262.895 457.895 262 459 262H500C501.105 262 502 262.895 502 264V267C502 268.105 501.105 269 500 269H459C457.895 269 457 268.105 457 267V264Z" fill="#E6E6E6"/>
<path d="M508 264C508 262.895 508.895 262 510 262H551C552.105 262 553 262.895 553 264V267C553 268.105 552.105 269 551 269H510C508.895 269 508 268.105 508 267V264Z" fill="#E6E6E6"/>
<path d="M355 282C355 280.895 355.895 280 357 280H398C399.105 280 400 280.895 400 282V285C400 286.105 399.105 287 398 287H357C355.895 287 355 286.105 355 285V282Z" fill="#B3B3B3"/>
<path d="M406 282C406 280.895 406.895 280 408 280H449C450.105 280 451 280.895 451 282V285C451 286.105 450.105 287 449 287H408C406.895 287 406 286.105 406 285V282Z" fill="#E6E6E6"/>
<path d="M457 282C457 280.895 457.895 280 459 280H500C501.105 280 502 280.895 502 282V285C502 286.105 501.105 287 500 287H459C457.895 287 457 286.105 457 285V282Z" fill="#E6E6E6"/>
<path d="M508 282C508 280.895 508.895 280 510 280H551C552.105 280 553 280.895 553 282V285C553 286.105 552.105 287 551 287H510C508.895 287 508 286.105 508 285V282Z" fill="#E6E6E6"/>
<rect x="329.5" y="366.5" width="628" height="145" rx="4.5" stroke="#E6E6E6"/>
<path d="M329 341C329 338.239 331.239 336 334 336H953C955.761 336 958 338.239 958 341V371H329V341Z" fill="#0FA7F0"/>
<path d="M345.319 357H343.504L347.944 346.5H349.819L354.244 357H352.444L351.514 354.735H346.249L345.319 357ZM348.679 348.75L346.834 353.235H350.914L349.069 348.75C348.989 348.53 348.924 348.335 348.874 348.165C348.824 348.335 348.759 348.53 348.679 348.75ZM356.937 357H355.332V349.8H356.937V352.695H360.537V349.8H362.142V357H360.537V354.105H356.937V357ZM370.285 355.335C370.285 355.685 370.46 355.86 370.81 355.86C370.93 355.86 371.09 355.83 371.29 355.77V356.925C370.99 357.045 370.65 357.105 370.27 357.105C369.55 357.105 369.07 356.825 368.83 356.265C368.06 356.885 367.155 357.195 366.115 357.195C365.415 357.195 364.82 357.005 364.33 356.625C363.84 356.235 363.595 355.69 363.595 354.99C363.595 354.15 363.91 353.54 364.54 353.16C365.17 352.77 365.925 352.575 366.805 352.575C367.385 352.575 368.01 352.645 368.68 352.785V352.53C368.68 352.07 368.515 351.7 368.185 351.42C367.855 351.14 367.39 351 366.79 351C365.9 351 365.035 351.185 364.195 351.555V350.085C365.135 349.765 366.055 349.605 366.955 349.605C368.005 349.605 368.82 349.865 369.4 350.385C369.99 350.905 370.285 351.695 370.285 352.755V355.335ZM367.12 353.7C366.59 353.7 366.145 353.795 365.785 353.985C365.425 354.175 365.245 354.475 365.245 354.885C365.245 355.225 365.375 355.49 365.635 355.68C365.895 355.86 366.215 355.95 366.595 355.95C367.415 355.95 368.11 355.665 368.68 355.095V353.88C368.1 353.76 367.58 353.7 367.12 353.7ZM375.365 351.165C375.305 352.105 375.225 352.91 375.125 353.58C375.025 354.25 374.875 354.87 374.675 355.44C374.475 356 374.21 356.425 373.88 356.715C373.56 356.995 373.165 357.135 372.695 357.135C372.385 357.135 372.055 357.07 371.705 356.94V355.68C371.875 355.74 372.03 355.77 372.17 355.77C372.74 355.77 373.14 355.275 373.37 354.285C373.61 353.285 373.77 351.79 373.85 349.8H379.4V357H377.795V351.165H375.365ZM382.786 357H381.406V349.8H383.011V354.51L386.866 349.8H388.246V357H386.641V352.29L382.786 357ZM395.894 355.035C395.894 355.685 395.599 356.21 395.009 356.61C394.429 357 393.599 357.195 392.519 357.195C391.469 357.195 390.569 357 389.819 356.61V355.23C390.529 355.63 391.359 355.83 392.309 355.83C393.619 355.83 394.274 355.5 394.274 354.84C394.274 354.25 393.774 353.955 392.774 353.955H391.304V352.725H392.774C393.674 352.725 394.124 352.455 394.124 351.915C394.124 351.605 393.969 351.37 393.659 351.21C393.349 351.04 392.929 350.955 392.399 350.955C391.499 350.955 390.684 351.15 389.954 351.54V350.16C390.744 349.78 391.624 349.59 392.594 349.59C393.644 349.59 394.429 349.785 394.949 350.175C395.479 350.565 395.744 351.075 395.744 351.705C395.744 352.115 395.629 352.46 395.399 352.74C395.169 353.02 394.859 353.21 394.469 353.31C394.899 353.43 395.244 353.64 395.504 353.94C395.764 354.23 395.894 354.595 395.894 355.035ZM402.654 357H401.049V349.8H402.654V352.695H406.254V349.8H407.859V357H406.254V354.105H402.654V357ZM410.558 356.19C409.798 355.52 409.418 354.59 409.418 353.4C409.418 352.21 409.798 351.28 410.558 350.61C411.328 349.94 412.248 349.605 413.318 349.605C414.398 349.605 415.318 349.94 416.078 350.61C416.838 351.28 417.218 352.21 417.218 353.4C417.218 354.59 416.838 355.52 416.078 356.19C415.318 356.86 414.398 357.195 413.318 357.195C412.248 357.195 411.328 356.86 410.558 356.19ZM414.953 355.095C415.373 354.665 415.583 354.1 415.583 353.4C415.583 352.7 415.373 352.14 414.953 351.72C414.533 351.29 413.988 351.075 413.318 351.075C412.638 351.075 412.088 351.29 411.668 351.72C411.248 352.14 411.038 352.7 411.038 353.4C411.038 354.1 411.248 354.665 411.668 355.095C412.088 355.515 412.638 355.725 413.318 355.725C413.988 355.725 414.533 355.515 414.953 355.095ZM423.004 357H418.774V349.8H422.884C423.594 349.8 424.149 349.98 424.549 350.34C424.959 350.69 425.164 351.15 425.164 351.72C425.164 352.51 424.824 353.055 424.144 353.355C424.504 353.465 424.799 353.665 425.029 353.955C425.259 354.245 425.374 354.6 425.374 355.02C425.374 355.61 425.174 356.09 424.774 356.46C424.384 356.82 423.794 357 423.004 357ZM420.379 353.94V355.785H422.614C423.374 355.785 423.754 355.48 423.754 354.87C423.754 354.25 423.384 353.94 422.644 353.94H420.379ZM420.379 351.015V352.8H422.524C423.204 352.8 423.544 352.51 423.544 351.93C423.544 351.61 423.444 351.38 423.244 351.24C423.054 351.09 422.814 351.015 422.524 351.015H420.379ZM428.372 357H426.992V349.8H428.597V354.51L432.452 349.8H433.832V357H432.227V352.29L428.372 357ZM437.444 357H435.839V349.8H437.444V352.695H441.044V349.8H442.649V357H441.044V354.105H437.444V357ZM445.348 356.19C444.588 355.52 444.208 354.59 444.208 353.4C444.208 352.21 444.588 351.28 445.348 350.61C446.118 349.94 447.038 349.605 448.108 349.605C449.188 349.605 450.108 349.94 450.868 350.61C451.628 351.28 452.008 352.21 452.008 353.4C452.008 354.59 451.628 355.52 450.868 356.19C450.108 356.86 449.188 357.195 448.108 357.195C447.038 357.195 446.118 356.86 445.348 356.19ZM449.743 355.095C450.163 354.665 450.373 354.1 450.373 353.4C450.373 352.7 450.163 352.14 449.743 351.72C449.323 351.29 448.778 351.075 448.108 351.075C447.428 351.075 446.878 351.29 446.458 351.72C446.038 352.14 445.828 352.7 445.828 353.4C445.828 354.1 446.038 354.665 446.458 355.095C446.878 355.515 447.428 355.725 448.108 355.725C448.778 355.725 449.323 355.515 449.743 355.095ZM455.169 357H453.564V349.8H455.169V352.65H456.354L458.424 349.8H460.254L457.644 353.37L460.539 357H458.694L456.324 354.015H455.169V357Z" fill="white"/>
<path d="M349 456C349 454.895 349.895 454 351 454H360C361.105 454 362 454.895 362 456V489C362 490.105 361.105 491 360 491H351C349.895 491 349 490.105 349 489V456Z" fill="#0FA7F0"/>
<path d="M533 456C533 454.895 533.895 454 535 454H544C545.105 454 546 454.895 546 456V489C546 490.105 545.105 491 544 491H535C533.895 491 533 490.105 533 489V456Z" fill="#0FA7F0"/>
<path d="M372 456C372 454.895 372.895 454 374 454H383C384.105 454 385 454.895 385 456V489C385 490.105 384.105 491 383 491H374C372.895 491 372 490.105 372 489V456Z" fill="#0FA7F0"/>
<path d="M556 456C556 454.895 556.895 454 558 454H567C568.105 454 569 454.895 569 456V489C569 490.105 568.105 491 567 491H558C556.895 491 556 490.105 556 489V456Z" fill="#0FA7F0"/>
<path d="M487 456C487 454.895 487.895 454 489 454H498C499.105 454 500 454.895 500 456V489C500 490.105 499.105 491 498 491H489C487.895 491 487 490.105 487 489V456Z" fill="#0FA7F0"/>
<path d="M671 456C671 454.895 671.895 454 673 454H682C683.105 454 684 454.895 684 456V489C684 490.105 683.105 491 682 491H673C671.895 491 671 490.105 671 489V456Z" fill="#0FA7F0"/>
<path d="M510 474C510 472.895 510.895 472 512 472H521C522.105 472 523 472.895 523 474V489C523 490.105 522.105 491 521 491H512C510.895 491 510 490.105 510 489V474Z" fill="#0FA7F0"/>
<path d="M694 474C694 472.895 694.895 472 696 472H705C706.105 472 707 472.895 707 474V489C707 490.105 706.105 491 705 491H696C694.895 491 694 490.105 694 489V474Z" fill="#0FA7F0"/>
<path d="M878 474C878 472.895 878.895 472 880 472H889C890.105 472 891 472.895 891 474V489C891 490.105 890.105 491 889 491H880C878.895 491 878 490.105 878 489V474Z" fill="#0FA7F0"/>
<path d="M901 474C901 472.895 901.895 472 903 472H912C913.105 472 914 472.895 914 474V489C914 490.105 913.105 491 912 491H903C901.895 491 901 490.105 901 489V474Z" fill="#0FA7F0"/>
<path d="M395 445C395 443.895 395.895 443 397 443H406C407.105 443 408 443.895 408 445V489C408 490.105 407.105 491 406 491H397C395.895 491 395 490.105 395 489V445Z" fill="#0FA7F0"/>
<path d="M579 445C579 443.895 579.895 443 581 443H590C591.105 443 592 443.895 592 445V489C592 490.105 591.105 491 590 491H581C579.895 491 579 490.105 579 489V445Z" fill="#0FA7F0"/>
<path d="M717 445C717 443.895 717.895 443 719 443H728C729.105 443 730 443.895 730 445V489C730 490.105 729.105 491 728 491H719C717.895 491 717 490.105 717 489V445Z" fill="#0FA7F0"/>
<path d="M464 445C464 443.895 464.895 443 466 443H475C476.105 443 477 443.895 477 445V489C477 490.105 476.105 491 475 491H466C464.895 491 464 490.105 464 489V445Z" fill="#0FA7F0"/>
<path d="M648 445C648 443.895 648.895 443 650 443H659C660.105 443 661 443.895 661 445V489C661 490.105 660.105 491 659 491H650C648.895 491 648 490.105 648 489V445Z" fill="#0FA7F0"/>
<path d="M786 445C786 443.895 786.895 443 788 443H797C798.105 443 799 443.895 799 445V489C799 490.105 798.105 491 797 491H788C786.895 491 786 490.105 786 489V445Z" fill="#0FA7F0"/>
<path d="M809 485C809 483.895 809.895 483 811 483H820C821.105 483 822 483.895 822 485V489C822 490.105 821.105 491 820 491H811C809.895 491 809 490.105 809 489V485Z" fill="#0FA7F0"/>
<path d="M418 414C418 412.895 418.895 412 420 412H429C430.105 412 431 412.895 431 414V489C431 490.105 430.105 491 429 491H420C418.895 491 418 490.105 418 489V414Z" fill="#0FA7F0"/>
<path d="M602 414C602 412.895 602.895 412 604 412H613C614.105 412 615 412.895 615 414V489C615 490.105 614.105 491 613 491H604C602.895 491 602 490.105 602 489V414Z" fill="#0FA7F0"/>
<path d="M740 414C740 412.895 740.895 412 742 412H751C752.105 412 753 412.895 753 414V489C753 490.105 752.105 491 751 491H742C740.895 491 740 490.105 740 489V414Z" fill="#0FA7F0"/>
<path d="M832 414C832 412.895 832.895 412 834 412H843C844.105 412 845 412.895 845 414V489C845 490.105 844.105 491 843 491H834C832.895 491 832 490.105 832 489V414Z" fill="#0FA7F0"/>
<path d="M855 437C855 435.895 855.895 435 857 435H866C867.105 435 868 435.895 868 437V489C868 490.105 867.105 491 866 491H857C855.895 491 855 490.105 855 489V437Z" fill="#0FA7F0"/>
<path d="M441 414C441 412.895 441.895 412 443 412H452C453.105 412 454 412.895 454 414V489C454 490.105 453.105 491 452 491H443C441.895 491 441 490.105 441 489V414Z" fill="#0FA7F0"/>
<path d="M625 414C625 412.895 625.895 412 627 412H636C637.105 412 638 412.895 638 414V489C638 490.105 637.105 491 636 491H627C625.895 491 625 490.105 625 489V414Z" fill="#0FA7F0"/>
<path d="M924 414C924 412.895 924.895 412 926 412H935C936.105 412 937 412.895 937 414V489C937 490.105 936.105 491 935 491H926C924.895 491 924 490.105 924 489V414Z" fill="#0FA7F0"/>
<path d="M763 414C763 412.895 763.895 412 765 412H774C775.105 412 776 412.895 776 414V489C776 490.105 775.105 491 774 491H765C763.895 491 763 490.105 763 489V414Z" fill="#0FA7F0"/>
<path d="M349 412C349 410.895 349.895 410 351 410H360C361.105 410 362 410.895 362 412V451C362 452.105 361.105 453 360 453H351C349.895 453 349 452.105 349 451V412Z" fill="#FFEEA2"/>
<path d="M533 412C533 410.895 533.895 410 535 410H544C545.105 410 546 410.895 546 412V451C546 452.105 545.105 453 544 453H535C533.895 453 533 452.105 533 451V412Z" fill="#FFEEA2"/>
<path d="M372 445C372 443.895 372.895 443 374 443H383C384.105 443 385 443.895 385 445V451C385 452.105 384.105 453 383 453H374C372.895 453 372 452.105 372 451V445Z" fill="#FFEEA2"/>
<path d="M556 445C556 443.895 556.895 443 558 443H567C568.105 443 569 443.895 569 445V451C569 452.105 568.105 453 567 453H558C556.895 453 556 452.105 556 451V445Z" fill="#FFEEA2"/>
<path d="M487 445C487 443.895 487.895 443 489 443H498C499.105 443 500 443.895 500 445V451C500 452.105 499.105 453 498 453H489C487.895 453 487 452.105 487 451V445Z" fill="#FFEEA2"/>
<path d="M671 445C671 443.895 671.895 443 673 443H682C683.105 443 684 443.895 684 445V451C684 452.105 683.105 453 682 453H673C671.895 453 671 452.105 671 451V445Z" fill="#FFEEA2"/>
<path d="M694 445C694 443.895 694.895 443 696 443H705C706.105 443 707 443.895 707 445V469C707 470.105 706.105 471 705 471H696C694.895 471 694 470.105 694 469V445Z" fill="#FFEEA2"/>
<path d="M510 445C510 443.895 510.895 443 512 443H521C522.105 443 523 443.895 523 445V469C523 470.105 522.105 471 521 471H512C510.895 471 510 470.105 510 469V445Z" fill="#FFEEA2"/>
<path d="M878 445C878 443.895 878.895 443 880 443H889C890.105 443 891 443.895 891 445V469C891 470.105 890.105 471 889 471H880C878.895 471 878 470.105 878 469V445Z" fill="#FFEEA2"/>
<path d="M901 445C901 443.895 901.895 443 903 443H912C913.105 443 914 443.895 914 445V469C914 470.105 913.105 471 912 471H903C901.895 471 901 470.105 901 469V445Z" fill="#FFEEA2"/>
<path d="M395 403C395 401.895 395.895 401 397 401H406C407.105 401 408 401.895 408 403V440C408 441.105 407.105 442 406 442H397C395.895 442 395 441.105 395 440V403Z" fill="#FFEEA2"/>
<path d="M579 403C579 401.895 579.895 401 581 401H590C591.105 401 592 401.895 592 403V440C592 441.105 591.105 442 590 442H581C579.895 442 579 441.105 579 440V403Z" fill="#FFEEA2"/>
<path d="M717 403C717 401.895 717.895 401 719 401H728C729.105 401 730 401.895 730 403V440C730 441.105 729.105 442 728 442H719C717.895 442 717 441.105 717 440V403Z" fill="#FFEEA2"/>
<path d="M464 403C464 401.895 464.895 401 466 401H475C476.105 401 477 401.895 477 403V440C477 441.105 476.105 442 475 442H466C464.895 442 464 441.105 464 440V403Z" fill="#FFEEA2"/>
<path d="M648 403C648 401.895 648.895 401 650 401H659C660.105 401 661 401.895 661 403V440C661 441.105 660.105 442 659 442H650C648.895 442 648 441.105 648 440V403Z" fill="#FFEEA2"/>
<path d="M786 403C786 401.895 786.895 401 788 401H797C798.105 401 799 401.895 799 403V440C799 441.105 798.105 442 797 442H788C786.895 442 786 441.105 786 440V403Z" fill="#FFEEA2"/>
<path d="M809 462C809 460.895 809.895 460 811 460H820C821.105 460 822 460.895 822 462V480C822 481.105 821.105 482 820 482H811C809.895 482 809 481.105 809 480V462Z" fill="#FFEEA2"/>
<path d="M418 403C418 401.895 418.895 401 420 401H429C430.105 401 431 401.895 431 403V409C431 410.105 430.105 411 429 411H420C418.895 411 418 410.105 418 409V403Z" fill="#FFEEA2"/>
<path d="M602 403C602 401.895 602.895 401 604 401H613C614.105 401 615 401.895 615 403V409C615 410.105 614.105 411 613 411H604C602.895 411 602 410.105 602 409V403Z" fill="#FFEEA2"/>
<path d="M740 403C740 401.895 740.895 401 742 401H751C752.105 401 753 401.895 753 403V409C753 410.105 752.105 411 751 411H742C740.895 411 740 410.105 740 409V403Z" fill="#FFEEA2"/>
<path d="M832 403C832 401.895 832.895 401 834 401H843C844.105 401 845 401.895 845 403V409C845 410.105 844.105 411 843 411H834C832.895 411 832 410.105 832 409V403Z" fill="#FFEEA2"/>
<path d="M855 403C855 401.895 855.895 401 857 401H866C867.105 401 868 401.895 868 403V432C868 433.105 867.105 434 866 434H857C855.895 434 855 433.105 855 432V403Z" fill="#FFEEA2"/>
<path d="M441 408C441 406.895 441.895 406 443 406H452C453.105 406 454 406.895 454 408V409C454 410.105 453.105 411 452 411H443C441.895 411 441 410.105 441 409V408Z" fill="#FFEEA2"/>
<path d="M625 408C625 406.895 625.895 406 627 406H636C637.105 406 638 406.895 638 408V409C638 410.105 637.105 411 636 411H627C625.895 411 625 410.105 625 409V408Z" fill="#FFEEA2"/>
<path d="M924 408C924 406.895 924.895 406 926 406H935C936.105 406 937 406.895 937 408V409C937 410.105 936.105 411 935 411H926C924.895 411 924 410.105 924 409V408Z" fill="#FFEEA2"/>
<path d="M763 408C763 406.895 763.895 406 765 406H774C775.105 406 776 406.895 776 408V409C776 410.105 775.105 411 774 411H765C763.895 411 763 410.105 763 409V408Z" fill="#FFEEA2"/>
<rect x="349" y="389" width="13" height="20" rx="2" fill="#F28100"/>
<rect x="533" y="389" width="13" height="20" rx="2" fill="#F28100"/>
<rect x="372" y="389" width="13" height="53" rx="2" fill="#F28100"/>
<rect x="556" y="389" width="13" height="53" rx="2" fill="#F28100"/>
<rect x="487" y="389" width="13" height="53" rx="2" fill="#F28100"/>
<rect x="694" y="389" width="13" height="53" rx="2" fill="#F28100"/>
<rect x="671" y="389" width="13" height="53" rx="2" fill="#F28100"/>
<rect x="510" y="389" width="13" height="53" rx="2" fill="#F28100"/>
<rect x="878" y="389" width="13" height="53" rx="2" fill="#F28100"/>
<rect x="901" y="389" width="13" height="53" rx="2" fill="#F28100"/>
<rect x="395" y="389" width="13" height="11" rx="2" fill="#F28100"/>
<rect x="579" y="389" width="13" height="11" rx="2" fill="#F28100"/>
<rect x="717" y="389" width="13" height="11" rx="2" fill="#F28100"/>
<rect x="464" y="389" width="13" height="11" rx="2" fill="#F28100"/>
<rect x="648" y="389" width="13" height="11" rx="2" fill="#F28100"/>
<rect x="786" y="389" width="13" height="11" rx="2" fill="#F28100"/>
<rect x="809" y="389" width="13" height="70" rx="2" fill="#F28100"/>
<rect x="418" y="389" width="13" height="11" rx="2" fill="#F28100"/>
<rect x="602" y="389" width="13" height="11" rx="2" fill="#F28100"/>
<rect x="740" y="389" width="13" height="11" rx="2" fill="#F28100"/>
<rect x="832" y="389" width="13" height="11" rx="2" fill="#F28100"/>
<rect x="855" y="389" width="13" height="11" rx="2" fill="#F28100"/>
<rect x="441" y="389" width="13" height="16" rx="2" fill="#F28100"/>
<rect x="625" y="389" width="13" height="16" rx="2" fill="#F28100"/>
<rect x="924" y="389" width="13" height="16" rx="2" fill="#F28100"/>
<rect x="763" y="389" width="13" height="16" rx="2" fill="#F28100"/>
<g filter="url(#filter0_d_1114_147)">
<path d="M20 85H75V543H35C26.7157 543 20 536.284 20 528V85Z" fill="white"/>
</g>
<path d="M46 123V117H50V123H55V115H58L48 106L38 115H41V123H46Z" fill="#747474"/>
<path d="M53.832 141.667L49.6654 145.417V154.584L53.832 150.834V141.667ZM43.4154 144.167C41.7904 144.167 40.0404 144.5 38.832 145.417V157.634C38.832 157.842 39.0404 158.05 39.2487 158.05C39.332 158.05 39.3737 157.992 39.457 157.992C40.582 157.45 42.207 157.084 43.4154 157.084C45.0404 157.084 46.7904 157.417 47.9987 158.334C49.1237 157.625 51.1654 157.084 52.582 157.084C53.957 157.084 55.3737 157.342 56.5404 157.967C56.6237 158.009 56.6654 157.992 56.7487 157.992C56.957 157.992 57.1654 157.784 57.1654 157.575V145.417C56.6654 145.042 56.1237 144.792 55.4987 144.584V155.834C54.582 155.542 53.582 155.417 52.582 155.417C51.1654 155.417 49.1237 155.959 47.9987 156.667V145.417C46.7904 144.5 45.0404 144.167 43.4154 144.167Z" fill="#747474"/>
<line x1="20" y1="487.5" x2="75" y2="487.5" stroke="#E1E1E9"/>
<path d="M39.3117 502.406L39.8322 507.224L39.919 508.138H37.8945L37.9958 507.224L38.5019 502.406L38.5453 502H39.2683L39.3117 502.406Z" fill="#F28100"/>
<path d="M55.4093 502.406L55.9154 507.224L56.0167 508.138H53.9922L54.079 507.224L54.5995 502.406L54.6429 502H55.3659L55.4093 502.406Z" fill="#F28100"/>
<path d="M45.9953 517.366C45.5904 517.729 45.2 518.034 44.7951 518.338C44.3902 518.643 43.9853 518.948 43.5515 519.238C42.6983 519.818 41.8307 520.355 40.8329 520.805C40.3702 521.008 39.8207 520.805 39.6182 520.341C39.4303 519.92 39.5893 519.427 39.9653 519.194L39.9942 519.18C40.7462 518.716 41.4547 518.121 42.1488 517.482C42.4959 517.163 42.8285 516.829 43.1611 516.495C43.4792 516.162 43.8262 515.799 44.101 515.48C44.5926 514.914 45.4314 514.856 45.9953 515.335C46.5593 515.828 46.6171 516.67 46.1399 517.235C46.0965 517.279 46.0532 517.323 45.9953 517.366Z" fill="#37376D"/>
<path d="M49.146 514.681C49.5798 514.783 50.1004 514.812 50.6065 514.812C51.1271 514.812 51.6622 514.768 52.1827 514.696C53.2383 514.551 54.294 514.275 55.2484 513.84L55.2628 513.825C55.7255 513.607 56.275 513.825 56.4775 514.289C56.6655 514.725 56.5064 515.218 56.116 515.45C55.017 516.118 53.8457 516.582 52.631 516.916C52.0237 517.075 51.4019 517.206 50.7656 517.279C50.1293 517.351 49.4642 517.395 48.7556 517.337H48.7411C48.0036 517.279 47.4541 516.626 47.512 515.886C47.5698 515.146 48.2206 514.594 48.958 514.652C49.0303 514.652 49.0882 514.667 49.146 514.681Z" fill="#37376D"/>
<path d="M56.2184 507.833C56.2184 510.924 52.0971 513.434 46.9926 513.434C41.888 513.434 37.7812 510.924 37.7812 507.833C37.7812 504.743 41.9169 502.232 47.007 502.232C52.0971 502.232 56.2184 504.743 56.2184 507.833Z" fill="#0FA7F0"/>
<path d="M53.0366 507.833C53.0366 509.545 50.3325 511.025 47.0066 511.025C43.6807 511.025 40.9766 509.545 40.9766 507.833C40.9766 506.121 43.6807 504.641 47.0066 504.641C50.3325 504.655 53.0366 506.135 53.0366 507.833Z" fill="white"/>
<path d="M49.0904 507.834C49.0904 508.994 48.1649 509.923 47.0081 509.923C45.8513 509.923 44.9258 508.994 44.9258 507.834C44.9258 506.673 45.8513 505.744 47.0081 505.744C48.1505 505.744 49.0904 506.687 49.0904 507.834Z" fill="#37376D"/>
<path d="M52.9204 522.329L50.679 516.133C50.332 515.219 49.4644 514.609 48.4955 514.609H45.8203C44.5333 514.609 43.4922 515.654 43.4922 516.946V522.314H52.9204V522.329Z" fill="#0FA7F0"/>
<path d="M37 519.268C37.5061 518.818 38.2725 518.6 38.9811 518.731C39.6897 518.847 40.3693 519.297 40.7597 519.921C41.1646 520.545 41.2658 521.343 41.0779 522.039C40.8899 522.736 40.3838 523.345 39.7475 523.606L39.0245 522.475C39.2414 522.213 39.3426 521.938 39.3715 521.662C39.386 521.386 39.3281 521.14 39.1835 520.922C39.0534 520.704 38.8509 520.545 38.5907 520.443C38.3304 520.342 38.0412 520.327 37.7086 520.4L37 519.268Z" fill="#F28100"/>
<path d="M57.5629 512.65C57.3171 512.882 57.1725 513.129 57.1002 513.39C57.0424 513.651 57.0713 513.912 57.158 514.145C57.2593 514.377 57.4328 514.58 57.6642 514.711C57.8955 514.841 58.1847 514.914 58.5173 514.885L59.0524 516.118C58.4739 516.495 57.6931 516.568 57.0134 516.336C56.3338 516.104 55.7265 515.552 55.4517 514.87C55.1625 514.188 55.1625 513.376 55.4806 512.723C55.7843 512.055 56.3772 511.547 57.0424 511.388L57.5629 512.65Z" fill="#F28100"/>
<path d="M46.7302 522.329H43.4766V526H46.7302V522.329Z" fill="#37376D"/>
<path d="M50.9827 526H54.2508L52.9204 522.329H49.6523L50.9827 526Z" fill="#37376D"/>
<path d="M54.9762 184.095H53.7619V180.857C53.7619 179.959 53.0333 179.238 52.1429 179.238H48.9048V178.024C48.9048 177.487 48.6915 176.972 48.312 176.593C47.9325 176.213 47.4177 176 46.881 176C46.3442 176 45.8294 176.213 45.4499 176.593C45.0704 176.972 44.8571 177.487 44.8571 178.024V179.238H41.619C41.1896 179.238 40.7778 179.409 40.4742 179.712C40.1706 180.016 40 180.428 40 180.857V183.933H41.2143C42.4286 183.933 43.4 184.905 43.4 186.119C43.4 187.333 42.4286 188.305 41.2143 188.305H40V191.381C40 191.81 40.1706 192.222 40.4742 192.526C40.7778 192.829 41.1896 193 41.619 193H44.6952V191.786C44.6952 190.571 45.6667 189.6 46.881 189.6C48.0952 189.6 49.0667 190.571 49.0667 191.786V193H52.1429C52.5723 193 52.9841 192.829 53.2877 192.526C53.5913 192.222 53.7619 191.81 53.7619 191.381V188.143H54.9762C55.5129 188.143 56.0277 187.93 56.4072 187.55C56.7868 187.171 57 186.656 57 186.119C57 185.582 56.7868 185.068 56.4072 184.688C56.0277 184.308 55.5129 184.095 54.9762 184.095Z" fill="#747474"/>
<path d="M42 222.5L39 225.44V217H42V222.5ZM47 220.66L45.43 219.32L44 220.64V213H47V220.66ZM52 219L49 222V209H52V219ZM54.81 218.81L53 217H58V222L56.21 220.21L49 227.36L45.53 224.34L41.75 228H39L45.47 221.66L49 224.64" fill="#747474"/>
<path d="M50.763 252.325L49.953 253.153C49.305 253.801 48.9 254.35 48.9 255.7H47.1V255.25C47.1 254.251 47.505 253.351 48.153 252.703L49.269 251.569C49.602 251.245 49.8 250.795 49.8 250.3C49.8 249.301 48.99 248.5 48 248.5C47.5226 248.5 47.0648 248.69 46.7272 249.027C46.3896 249.365 46.2 249.823 46.2 250.3H44.4C44.4 249.345 44.7793 248.43 45.4544 247.754C46.1295 247.079 47.0452 246.7 48 246.7C48.9548 246.7 49.8705 247.079 50.5456 247.754C51.2207 248.43 51.6 249.345 51.6 250.3C51.6 251.092 51.276 251.803 50.763 252.325ZM48.9 259.3H47.1V257.5H48.9V259.3ZM48 244C46.8181 244 45.6478 244.233 44.5558 244.685C43.4639 245.137 42.4718 245.8 41.636 246.636C39.9482 248.324 39 250.613 39 253C39 255.387 39.9482 257.676 41.636 259.364C42.4718 260.2 43.4639 260.863 44.5558 261.315C45.6478 261.767 46.8181 262 48 262C50.3869 262 52.6761 261.052 54.364 259.364C56.0518 257.676 57 255.387 57 253C57 248.023 52.95 244 48 244Z" fill="#747474"/>
<path d="M20 45C20 36.7157 26.7157 30 35 30H75V85H20V45Z" fill="#0FA7F0"/>
<g filter="url(#filter1_d_1114_147)">
<path d="M75 85L75 30L973 30C981.284 30 988 36.7157 988 45L988 85L75 85Z" fill="white"/>
</g>
<rect x="39" y="51" width="18" height="2" fill="white"/>
<rect x="39" y="56" width="18" height="2" fill="white"/>
<rect x="39" y="61" width="18" height="2" fill="white"/>
<path d="M106.615 49.7H111.365C115.152 49.7 117.046 51.1567 117.046 54.07C117.046 56.9833 115.152 58.44 111.365 58.44H108.781V63H106.615V49.7ZM113.93 55.951C114.538 55.5963 114.842 54.9693 114.842 54.07C114.842 53.1707 114.538 52.55 113.93 52.208C113.335 51.8533 112.518 51.676 111.479 51.676H108.781V56.464H111.479C112.518 56.464 113.335 56.293 113.93 55.951ZM120.547 55.381C120.901 54.811 121.427 54.3677 122.124 54.051C122.82 53.7343 123.574 53.614 124.385 53.69V55.685C123.574 55.571 122.839 55.6787 122.181 56.008C121.522 56.3373 121.053 56.825 120.775 57.471V63H118.742V53.88H120.547V55.381ZM127.993 63H125.96V53.88H127.993V63ZM128.221 50.916C128.221 51.3087 128.101 51.6127 127.86 51.828C127.632 52.0307 127.341 52.132 126.986 52.132C126.632 52.132 126.334 52.0307 126.093 51.828C125.853 51.6127 125.732 51.3087 125.732 50.916C125.732 50.536 125.853 50.2447 126.093 50.042C126.334 49.8267 126.632 49.719 126.986 49.719C127.341 49.719 127.632 49.8267 127.86 50.042C128.101 50.2447 128.221 50.536 128.221 50.916ZM130.01 58.516C130.01 56.9327 130.51 55.723 131.511 54.887C132.511 54.051 133.689 53.633 135.045 53.633C136.134 53.633 137.071 53.8673 137.857 54.336V56.198C137.147 55.6913 136.305 55.438 135.33 55.438C134.43 55.438 133.664 55.6913 133.031 56.198C132.397 56.692 132.081 57.4393 132.081 58.44C132.081 59.4153 132.391 60.1627 133.012 60.682C133.645 61.1887 134.405 61.442 135.292 61.442C136.254 61.442 137.141 61.2077 137.952 60.739V62.62C137.078 63.038 136.071 63.247 134.931 63.247C133.601 63.247 132.448 62.8417 131.473 62.031C130.497 61.2077 130.01 60.036 130.01 58.516ZM139.268 58.44C139.268 57.6547 139.408 56.9453 139.686 56.312C139.965 55.666 140.332 55.1593 140.788 54.792C141.244 54.412 141.738 54.127 142.27 53.937C142.802 53.7343 143.341 53.633 143.885 53.633C144.582 53.633 145.209 53.7407 145.766 53.956C146.336 54.1713 146.792 54.4627 147.134 54.83C147.476 55.1973 147.755 55.6217 147.97 56.103C148.186 56.5843 148.3 57.091 148.312 57.623C148.325 58.1423 148.281 58.668 148.179 59.2H141.32C141.422 59.9727 141.802 60.5553 142.46 60.948C143.119 61.328 143.904 61.518 144.816 61.518C145.855 61.518 146.818 61.3027 147.704 60.872V62.62C146.83 63.038 145.741 63.247 144.436 63.247C142.954 63.247 141.719 62.829 140.731 61.993C139.756 61.157 139.268 59.9727 139.268 58.44ZM146.355 57.68C146.431 57.1607 146.273 56.6413 145.88 56.122C145.5 55.59 144.867 55.324 143.98 55.324C143.258 55.324 142.638 55.533 142.118 55.951C141.612 56.369 141.339 56.9453 141.301 57.68H146.355ZM152.053 55.381C152.407 54.811 152.933 54.3677 153.63 54.051C154.326 53.7343 155.08 53.614 155.891 53.69V55.685C155.08 55.571 154.345 55.6787 153.687 56.008C153.028 56.3373 152.559 56.825 152.281 57.471V63H150.248V53.88H152.053V55.381ZM157.409 51.144C158.689 50.27 160.12 49.833 161.703 49.833C163.059 49.833 164.154 50.1497 164.99 50.783C165.826 51.4037 166.244 52.2967 166.244 53.462C166.244 54.4373 165.921 55.2733 165.275 55.97C164.642 56.654 163.774 57.3253 162.672 57.984C162.584 58.0347 162.419 58.1297 162.178 58.269C161.95 58.4083 161.786 58.5097 161.684 58.573C161.596 58.6237 161.45 58.7123 161.247 58.839C161.045 58.9657 160.893 59.0607 160.791 59.124C160.703 59.1873 160.576 59.2823 160.411 59.409C160.259 59.523 160.145 59.6243 160.069 59.713C159.993 59.789 159.905 59.8903 159.803 60.017C159.702 60.131 159.626 60.2387 159.575 60.34C159.537 60.4413 159.499 60.5553 159.461 60.682C159.423 60.8087 159.404 60.9353 159.404 61.062L166.339 61.043V63H156.972V62.012C156.972 61.3027 157.067 60.6757 157.257 60.131C157.46 59.5737 157.808 59.067 158.302 58.611C158.809 58.1423 159.202 57.813 159.48 57.623C159.759 57.4203 160.253 57.11 160.962 56.692C161.026 56.6413 161.076 56.6033 161.114 56.578C161.165 56.5527 161.216 56.5273 161.266 56.502C162.33 55.8813 163.014 55.4317 163.318 55.153C163.825 54.659 164.078 54.108 164.078 53.5C164.078 52.9427 163.85 52.5183 163.394 52.227C162.951 51.9357 162.324 51.79 161.513 51.79C160.107 51.79 158.739 52.2713 157.409 53.234V51.144ZM174.604 50.08H176.827V58.478H179.05V60.359H176.827V63H174.737V60.359H167.726V58.516L174.604 50.08ZM174.737 58.478V52.835L170.139 58.478H174.737ZM186.094 64.121H184.612L190.35 48.579H191.832L186.094 64.121ZM198.461 49.7H203.116C205.396 49.7 207.131 50.308 208.322 51.524C209.512 52.74 210.108 54.3487 210.108 56.35C210.108 58.3513 209.512 59.96 208.322 61.176C207.131 62.392 205.396 63 203.116 63H198.461V49.7ZM206.669 59.827C207.492 59.0163 207.904 57.8573 207.904 56.35C207.904 54.8427 207.492 53.69 206.669 52.892C205.858 52.0813 204.667 51.676 203.097 51.676H200.627V61.024H203.097C204.667 61.024 205.858 60.625 206.669 59.827ZM219.843 60.891C219.843 61.3343 220.064 61.556 220.508 61.556C220.66 61.556 220.862 61.518 221.116 61.442V62.905C220.736 63.057 220.305 63.133 219.824 63.133C218.912 63.133 218.304 62.7783 218 62.069C217.024 62.8543 215.878 63.247 214.561 63.247C213.674 63.247 212.92 63.0063 212.3 62.525C211.679 62.031 211.369 61.3407 211.369 60.454C211.369 59.39 211.768 58.6173 212.566 58.136C213.364 57.642 214.32 57.395 215.435 57.395C216.169 57.395 216.961 57.4837 217.81 57.661V57.338C217.81 56.7553 217.601 56.2867 217.183 55.932C216.765 55.5773 216.176 55.4 215.416 55.4C214.288 55.4 213.193 55.6343 212.129 56.103V54.241C213.319 53.8357 214.485 53.633 215.625 53.633C216.955 53.633 217.987 53.9623 218.722 54.621C219.469 55.2797 219.843 56.2803 219.843 57.623V60.891ZM215.834 58.82C215.162 58.82 214.599 58.9403 214.143 59.181C213.687 59.4217 213.459 59.8017 213.459 60.321C213.459 60.7517 213.623 61.0873 213.953 61.328C214.282 61.556 214.687 61.67 215.169 61.67C216.207 61.67 217.088 61.309 217.81 60.587V59.048C217.075 58.896 216.416 58.82 215.834 58.82ZM222.043 56.35C222.043 55.4253 222.391 54.7413 223.088 54.298C223.797 53.8547 224.659 53.633 225.672 53.633C226.85 53.633 227.946 53.8927 228.959 54.412V56.198C228.579 55.9447 228.091 55.7357 227.496 55.571C226.901 55.3937 226.337 55.305 225.805 55.305C225.336 55.305 224.937 55.3873 224.608 55.552C224.279 55.704 224.114 55.951 224.114 56.293C224.114 56.6097 224.304 56.8757 224.684 57.091C225.064 57.2937 225.52 57.471 226.052 57.623C226.597 57.7623 227.135 57.9333 227.667 58.136C228.199 58.326 228.655 58.6237 229.035 59.029C229.415 59.4343 229.605 59.9473 229.605 60.568C229.605 61.5053 229.238 62.1893 228.503 62.62C227.768 63.038 226.825 63.247 225.672 63.247C224.241 63.247 223.05 62.9557 222.1 62.373V60.568C223.075 61.214 224.234 61.537 225.577 61.537C226.894 61.537 227.553 61.2267 227.553 60.606C227.553 60.302 227.363 60.0487 226.983 59.846C226.603 59.6307 226.141 59.4533 225.596 59.314C225.064 59.162 224.526 58.991 223.981 58.801C223.449 58.5983 222.993 58.2943 222.613 57.889C222.233 57.471 222.043 56.958 222.043 56.35ZM231.443 49.7H233.476V54.887C234.287 54.051 235.268 53.633 236.421 53.633C237.561 53.633 238.473 53.9813 239.157 54.678C239.841 55.362 240.183 56.255 240.183 57.357V63H238.15V57.623C238.15 56.9137 237.954 56.3753 237.561 56.008C237.168 55.628 236.655 55.438 236.022 55.438C235.021 55.438 234.173 55.9447 233.476 56.958V63H231.443V49.7ZM242.613 49.7H244.646V55.058C245.495 54.108 246.59 53.633 247.933 53.633C249.276 53.633 250.365 54.1017 251.201 55.039C252.037 55.9637 252.455 57.0973 252.455 58.44C252.455 59.7827 252.037 60.9227 251.201 61.86C250.365 62.7847 249.276 63.247 247.933 63.247C246.502 63.247 245.33 62.6833 244.418 61.556V63H242.613V49.7ZM249.586 60.625C250.118 60.055 250.384 59.3267 250.384 58.44C250.384 57.5533 250.118 56.8313 249.586 56.274C249.054 55.704 248.376 55.419 247.553 55.419C246.882 55.419 246.286 55.6027 245.767 55.97C245.26 56.3373 244.887 56.787 244.646 57.319V59.542C244.887 60.0867 245.26 60.5427 245.767 60.91C246.286 61.2773 246.882 61.461 247.553 61.461C248.376 61.461 249.054 61.1823 249.586 60.625ZM255.306 61.974C254.344 61.1253 253.862 59.9473 253.862 58.44C253.862 56.9327 254.344 55.7547 255.306 54.906C256.282 54.0573 257.447 53.633 258.802 53.633C260.17 53.633 261.336 54.0573 262.298 54.906C263.261 55.7547 263.742 56.9327 263.742 58.44C263.742 59.9473 263.261 61.1253 262.298 61.974C261.336 62.8227 260.17 63.247 258.802 63.247C257.447 63.247 256.282 62.8227 255.306 61.974ZM260.873 60.587C261.405 60.0423 261.671 59.3267 261.671 58.44C261.671 57.5533 261.405 56.844 260.873 56.312C260.341 55.7673 259.651 55.495 258.802 55.495C257.941 55.495 257.244 55.7673 256.712 56.312C256.18 56.844 255.914 57.5533 255.914 58.44C255.914 59.3267 256.18 60.0423 256.712 60.587C257.244 61.119 257.941 61.385 258.802 61.385C259.651 61.385 260.341 61.119 260.873 60.587ZM273.484 60.891C273.484 61.3343 273.706 61.556 274.149 61.556C274.301 61.556 274.504 61.518 274.757 61.442V62.905C274.377 63.057 273.947 63.133 273.465 63.133C272.553 63.133 271.945 62.7783 271.641 62.069C270.666 62.8543 269.52 63.247 268.202 63.247C267.316 63.247 266.562 63.0063 265.941 62.525C265.321 62.031 265.01 61.3407 265.01 60.454C265.01 59.39 265.409 58.6173 266.207 58.136C267.005 57.642 267.962 57.395 269.076 57.395C269.811 57.395 270.603 57.4837 271.451 57.661V57.338C271.451 56.7553 271.242 56.2867 270.824 55.932C270.406 55.5773 269.817 55.4 269.057 55.4C267.93 55.4 266.834 55.6343 265.77 56.103V54.241C266.961 53.8357 268.126 53.633 269.266 53.633C270.596 53.633 271.629 53.9623 272.363 54.621C273.111 55.2797 273.484 56.2803 273.484 57.623V60.891ZM269.475 58.82C268.804 58.82 268.24 58.9403 267.784 59.181C267.328 59.4217 267.1 59.8017 267.1 60.321C267.1 60.7517 267.265 61.0873 267.594 61.328C267.924 61.556 268.329 61.67 268.81 61.67C269.849 61.67 270.729 61.309 271.451 60.587V59.048C270.717 58.896 270.058 58.82 269.475 58.82ZM277.965 55.381C278.319 54.811 278.845 54.3677 279.542 54.051C280.238 53.7343 280.992 53.614 281.803 53.69V55.685C280.992 55.571 280.257 55.6787 279.599 56.008C278.94 56.3373 278.471 56.825 278.193 57.471V63H276.16V53.88H277.965V55.381ZM290.357 49.7H292.39V63H290.566V61.556C289.679 62.6833 288.514 63.247 287.07 63.247C285.727 63.247 284.638 62.7847 283.802 61.86C282.966 60.9227 282.548 59.7827 282.548 58.44C282.548 57.0973 282.966 55.9637 283.802 55.039C284.638 54.1017 285.727 53.633 287.07 53.633C288.438 53.633 289.533 54.108 290.357 55.058V49.7ZM290.338 57.319C290.097 56.787 289.717 56.3373 289.198 55.97C288.691 55.6027 288.102 55.419 287.431 55.419C286.607 55.419 285.93 55.704 285.398 56.274C284.866 56.8313 284.6 57.5533 284.6 58.44C284.6 59.3267 284.866 60.055 285.398 60.625C285.93 61.1823 286.607 61.461 287.431 61.461C288.102 61.461 288.691 61.2773 289.198 60.91C289.717 60.5427 290.097 60.0867 290.338 59.542V57.319Z" fill="#454545"/>
<path d="M859.832 56C859.832 60.5558 863.526 64.25 868.082 64.25C870.273 64.25 872.372 63.3883 873.949 61.8667L872.574 60.4917C871.41 61.7292 869.787 62.4167 868.082 62.4167C862.362 62.4167 859.502 55.505 863.545 51.4625C867.587 47.42 874.499 50.2892 874.499 56H871.749L875.415 59.6667H875.507L879.082 56H876.332C876.332 51.4442 872.638 47.75 868.082 47.75C863.526 47.75 859.832 51.4442 859.832 56Z" fill="#454545"/>
<path d="M955.499 59.3337V49.3337H940.499V59.3337H955.499ZM955.499 47.667C955.941 47.667 956.365 47.8426 956.677 48.1551C956.99 48.4677 957.165 48.8916 957.165 49.3337V59.3337C957.165 59.7757 956.99 60.1996 956.677 60.5122C956.365 60.8247 955.941 61.0003 955.499 61.0003H949.665V62.667H951.332V64.3337H944.665V62.667H946.332V61.0003H940.499C939.574 61.0003 938.832 60.2503 938.832 59.3337V49.3337C938.832 48.4087 939.574 47.667 940.499 47.667H955.499ZM942.165 51.0003H949.665V55.167H942.165V51.0003ZM950.499 51.0003H953.832V52.667H950.499V51.0003ZM953.832 53.5003V57.667H950.499V53.5003H953.832ZM942.165 56.0003H945.499V57.667H942.165V56.0003ZM946.332 56.0003H949.665V57.667H946.332V56.0003Z" fill="#454545"/>
<path d="M915.585 57.0837H909.085V63.5837H906.918V57.0837H900.418V54.917H906.918V48.417H909.085V54.917H915.585V57.0837Z" fill="#454545"/>
<mask id="path-170-outside-1_1114_147" maskUnits="userSpaceOnUse" x="566" y="233" width="25" height="12" fill="black">
<rect fill="white" x="566" y="233" width="25" height="12"/>
<path fill-rule="evenodd" clip-rule="evenodd" d="M574.176 243L568 239L574.176 235V238.307H582.824V235L589 239L582.824 243V239.693H574.176V243Z"/>
</mask>
<path fill-rule="evenodd" clip-rule="evenodd" d="M574.176 243L568 239L574.176 235V238.307H582.824V235L589 239L582.824 243V239.693H574.176V243Z" fill="white"/>
<path d="M568 239L567.456 238.161L566.16 239L567.456 239.839L568 239ZM574.176 243L573.633 243.839L575.176 244.839V243H574.176ZM574.176 235H575.176V233.161L573.633 234.161L574.176 235ZM574.176 238.307H573.176V239.307H574.176V238.307ZM582.824 238.307V239.307H583.824V238.307H582.824ZM582.824 235L583.367 234.161L581.824 233.161V235H582.824ZM589 239L589.544 239.839L590.84 239L589.544 238.161L589 239ZM582.824 243H581.824V244.839L583.367 243.839L582.824 243ZM582.824 239.693H583.824V238.693H582.824V239.693ZM574.176 239.693V238.693H573.176V239.693H574.176ZM567.456 239.839L573.633 243.839L574.72 242.161L568.544 238.161L567.456 239.839ZM573.633 234.161L567.456 238.161L568.544 239.839L574.72 235.839L573.633 234.161ZM575.176 238.307V235H573.176V238.307H575.176ZM582.824 237.307H574.176V239.307H582.824V237.307ZM581.824 235V238.307H583.824V235H581.824ZM589.544 238.161L583.367 234.161L582.28 235.839L588.456 239.839L589.544 238.161ZM583.367 243.839L589.544 239.839L588.456 238.161L582.28 242.161L583.367 243.839ZM581.824 239.693V243H583.824V239.693H581.824ZM574.176 240.693H582.824V238.693H574.176V240.693ZM575.176 243V239.693H573.176V243H575.176Z" fill="#454545" mask="url(#path-170-outside-1_1114_147)"/>
<line x1="165.5" y1="336" x2="165.5" y2="512" stroke="#E6E6E6" stroke-dasharray="7 7"/>
<line x1="171.5" y1="336" x2="171.5" y2="512" stroke="#E6E6E6" stroke-dasharray="7 7"/>
<line x1="298" y1="388" x2="106" y2="388" stroke="#E6E6E6" stroke-dasharray="7 7"/>
<line x1="298" y1="394" x2="106" y2="394" stroke="#E6E6E6" stroke-dasharray="7 7"/>
<line x1="232.5" y1="338" x2="232.5" y2="514" stroke="#E6E6E6" stroke-dasharray="7 7"/>
<line x1="238.5" y1="338" x2="238.5" y2="514" stroke="#E6E6E6" stroke-dasharray="7 7"/>
<line x1="298" y1="455" x2="106" y2="455" stroke="#E6E6E6" stroke-dasharray="7 7"/>
<line x1="298" y1="461" x2="106" y2="461" stroke="#E6E6E6" stroke-dasharray="7 7"/>
<defs>
<filter id="filter0_d_1114_147" x="0" y="55" width="115" height="518" filterUnits="userSpaceOnUse" color-interpolation-filters="sRGB">
<feFlood flood-opacity="0" result="BackgroundImageFix"/>
<feColorMatrix in="SourceAlpha" type="matrix" values="0 0 0 0 0 0 0 0 0 0 0 0 0 0 0 0 0 0 127 0" result="hardAlpha"/>
<feOffset dx="10"/>
<feGaussianBlur stdDeviation="15"/>
<feComposite in2="hardAlpha" operator="out"/>
<feColorMatrix type="matrix" values="0 0 0 0 0 0 0 0 0 0 0 0 0 0 0 0 0 0 0.1 0"/>
<feBlend mode="normal" in2="BackgroundImageFix" result="effect1_dropShadow_1114_147"/>
<feBlend mode="normal" in="SourceGraphic" in2="effect1_dropShadow_1114_147" result="shape"/>
</filter>
<filter id="filter1_d_1114_147" x="55" y="0" width="973" height="115" filterUnits="userSpaceOnUse" color-interpolation-filters="sRGB">
<feFlood flood-opacity="0" result="BackgroundImageFix"/>
<feColorMatrix in="SourceAlpha" type="matrix" values="0 0 0 0 0 0 0 0 0 0 0 0 0 0 0 0 0 0 127 0" result="hardAlpha"/>
<feOffset dx="10"/>
<feGaussianBlur stdDeviation="15"/>
<feComposite in2="hardAlpha" operator="out"/>
<feColorMatrix type="matrix" values="0 0 0 0 0 0 0 0 0 0 0 0 0 0 0 0 0 0 0.1 0"/>
<feBlend mode="normal" in2="BackgroundImageFix" result="effect1_dropShadow_1114_147"/>
<feBlend mode="normal" in="SourceGraphic" in2="effect1_dropShadow_1114_147" result="shape"/>
</filter>
</defs>
</svg>
