<svg width="533" height="348" viewBox="0 0 533 348" fill="none" xmlns="http://www.w3.org/2000/svg">
<path d="M0 15C0 6.71573 6.71573 0 15 0H518C526.284 0 533 6.71573 533 15V333C533 341.284 526.284 348 518 348H15C6.71572 348 0 341.284 0 333V15Z" fill="white"/>
<path d="M55.725 72H52.575V57.3H65.364V72H62.235V60.135H55.725V72ZM68.998 70.887C67.92 69.949 67.381 68.64 67.381 66.96C67.381 65.28 67.92 63.971 68.998 63.033C70.076 62.095 71.392 61.626 72.946 61.626C74.514 61.626 75.83 62.095 76.894 63.033C77.972 63.971 78.511 65.28 78.511 66.96C78.511 68.64 77.972 69.949 76.894 70.887C75.83 71.825 74.514 72.294 72.946 72.294C71.392 72.294 70.076 71.825 68.998 70.887ZM74.857 68.934C75.319 68.416 75.55 67.758 75.55 66.96C75.55 66.162 75.319 65.511 74.857 65.007C74.395 64.489 73.758 64.23 72.946 64.23C72.134 64.23 71.497 64.489 71.035 65.007C70.587 65.511 70.363 66.162 70.363 66.96C70.363 67.758 70.587 68.416 71.035 68.934C71.497 69.438 72.134 69.69 72.946 69.69C73.758 69.69 74.395 69.438 74.857 68.934ZM84.7052 64.23C84.6212 65.462 84.5022 66.526 84.3482 67.422C84.2082 68.304 83.9982 69.13 83.7182 69.9C83.4382 70.656 83.0602 71.23 82.5842 71.622C82.1082 72.014 81.5342 72.21 80.8622 72.21C80.3442 72.21 79.8122 72.112 79.2662 71.916V69.606C79.4762 69.69 79.6792 69.732 79.8752 69.732C80.6032 69.732 81.1142 69.081 81.4082 67.779C81.7022 66.477 81.9052 64.524 82.0172 61.92H90.2072V72H87.2882V64.23H84.7052ZM95.0744 72H91.7984L94.4444 68.619C93.7724 68.325 93.2614 67.898 92.9114 67.338C92.5614 66.778 92.3864 66.148 92.3864 65.448C92.3864 64.454 92.7364 63.621 93.4364 62.949C94.1504 62.263 95.1444 61.92 96.4184 61.92H101.878V72H98.9594V68.997H97.3214L95.0744 72ZM95.3474 65.532C95.3474 65.938 95.4874 66.253 95.7674 66.477C96.0614 66.701 96.4744 66.813 97.0064 66.813H98.9594V64.23H97.0064C95.9004 64.23 95.3474 64.664 95.3474 65.532Z" fill="black"/>
<rect x="51.5" y="96.5" width="129" height="195" rx="2.5" fill="white" stroke="#E6E6E6"/>
<rect x="200.5" y="96.5" width="129" height="87" rx="2.5" fill="white" stroke="#E6E6E6"/>
<rect x="200.5" y="204.5" width="129" height="87" rx="2.5" fill="white" stroke="#E6E6E6"/>
<rect x="350.5" y="204.5" width="129" height="87" rx="2.5" fill="white" stroke="#E6E6E6"/>
<rect x="350.5" y="96.5" width="129" height="87" rx="2.5" fill="white" stroke="#E6E6E6"/>
<path d="M51.5 99C51.5 97.6193 52.6193 96.5 54 96.5H178C179.381 96.5 180.5 97.6193 180.5 99V125.5H51.5V99Z" fill="#F8F8F8" stroke="#E6E6E6"/>
<path d="M200.5 99C200.5 97.6193 201.619 96.5 203 96.5H327C328.381 96.5 329.5 97.6193 329.5 99V125.5H200.5V99Z" fill="#F8F8F8" stroke="#E6E6E6"/>
<path d="M200.5 207C200.5 205.619 201.619 204.5 203 204.5H327C328.381 204.5 329.5 205.619 329.5 207V233.5H200.5V207Z" fill="#F8F8F8" stroke="#E6E6E6"/>
<path d="M350.5 207C350.5 205.619 351.619 204.5 353 204.5H477C478.381 204.5 479.5 205.619 479.5 207V233.5H350.5V207Z" fill="#F8F8F8" stroke="#E6E6E6"/>
<path d="M350.5 99C350.5 97.6193 351.619 96.5 353 96.5H477C478.381 96.5 479.5 97.6193 479.5 99V125.5H350.5V99Z" fill="#F8F8F8" stroke="#E6E6E6"/>
<path d="M51.5 125.5H180.5V154.5H51.5V125.5Z" fill="white" stroke="#E6E6E6"/>
<path d="M51.5 154.5H180.5V183.5H51.5V154.5Z" fill="white" stroke="#E6E6E6"/>
<path d="M51.5 183.5H180.5V212.5H51.5V183.5Z" fill="white" stroke="#E6E6E6"/>
<path d="M51.5 212.5H180.5V241.5H51.5V212.5Z" fill="white" stroke="#E6E6E6"/>
<path d="M51.5 241.5H180.5V270.5H51.5V241.5Z" fill="white" stroke="#E6E6E6"/>
<path d="M62.104 106.6H65.548C66.428 106.6 67.124 106.784 67.636 107.152C68.148 107.512 68.404 108.036 68.404 108.724C68.404 109.22 68.272 109.628 68.008 109.948C67.744 110.26 67.428 110.472 67.06 110.584C67.508 110.704 67.9 110.936 68.236 111.28C68.572 111.616 68.74 112.088 68.74 112.696C68.74 113.064 68.668 113.388 68.524 113.668C68.388 113.948 68.212 114.172 67.996 114.34C67.788 114.5 67.54 114.632 67.252 114.736C66.972 114.84 66.7 114.912 66.436 114.952C66.18 114.984 65.916 115 65.644 115H62.104V106.6ZM67.72 112.588C67.72 111.62 67.052 111.136 65.716 111.136H63.112V114.04H65.44C65.696 114.04 65.912 114.036 66.088 114.028C66.264 114.012 66.464 113.98 66.688 113.932C66.912 113.876 67.092 113.8 67.228 113.704C67.364 113.6 67.48 113.456 67.576 113.272C67.672 113.08 67.72 112.852 67.72 112.588ZM67.384 108.868C67.384 108.396 67.22 108.06 66.892 107.86C66.572 107.66 66.096 107.56 65.464 107.56H63.112V110.176H65.74C66.22 110.176 66.612 110.072 66.916 109.864C67.228 109.648 67.384 109.316 67.384 108.868ZM69.8006 112.144C69.8006 111.64 69.8926 111.188 70.0766 110.788C70.2606 110.388 70.5006 110.068 70.7966 109.828C71.1006 109.588 71.4326 109.408 71.7926 109.288C72.1606 109.16 72.5366 109.096 72.9206 109.096C73.6326 109.096 74.2246 109.252 74.6966 109.564V110.5C74.2566 110.156 73.7046 109.984 73.0406 109.984C72.4166 109.984 71.8806 110.164 71.4326 110.524C70.9846 110.884 70.7606 111.416 70.7606 112.12C70.7606 112.816 70.9806 113.348 71.4206 113.716C71.8686 114.076 72.4006 114.256 73.0166 114.256C73.6566 114.256 74.2366 114.1 74.7566 113.788V114.748C74.2126 115.012 73.5886 115.144 72.8846 115.144C72.0526 115.144 71.3286 114.884 70.7126 114.364C70.1046 113.844 69.8006 113.104 69.8006 112.144ZM75.66 112.12C75.66 111.176 75.948 110.436 76.524 109.9C77.108 109.364 77.776 109.096 78.528 109.096C79.232 109.096 79.812 109.272 80.268 109.624C80.732 109.976 81.036 110.412 81.18 110.932C81.324 111.444 81.332 111.98 81.204 112.54H76.62C76.676 113.108 76.928 113.536 77.376 113.824C77.824 114.112 78.364 114.256 78.996 114.256C79.7 114.256 80.332 114.1 80.892 113.788V114.724C80.356 115.004 79.676 115.144 78.852 115.144C77.94 115.144 77.18 114.884 76.572 114.364C75.964 113.844 75.66 113.096 75.66 112.12ZM80.352 111.7C80.376 111.532 80.364 111.356 80.316 111.172C80.268 110.988 80.18 110.804 80.052 110.62C79.932 110.436 79.744 110.284 79.488 110.164C79.232 110.044 78.932 109.984 78.588 109.984C78.068 109.984 77.616 110.136 77.232 110.44C76.856 110.744 76.652 111.164 76.62 111.7H80.352ZM86.555 115H85.595V109.24H90.851V115H89.891V110.128H86.555V115ZM93.1423 114.34C92.5343 113.796 92.2303 113.056 92.2303 112.12C92.2303 111.184 92.5343 110.448 93.1423 109.912C93.7503 109.368 94.4703 109.096 95.3023 109.096C96.1423 109.096 96.8623 109.368 97.4623 109.912C98.0703 110.448 98.3743 111.184 98.3743 112.12C98.3743 113.056 98.0703 113.796 97.4623 114.34C96.8623 114.876 96.1423 115.144 95.3023 115.144C94.4703 115.144 93.7503 114.876 93.1423 114.34ZM96.8143 113.668C97.2143 113.284 97.4143 112.768 97.4143 112.12C97.4143 111.472 97.2143 110.96 96.8143 110.584C96.4143 110.2 95.9103 110.008 95.3023 110.008C94.6943 110.008 94.1903 110.2 93.7903 110.584C93.3903 110.96 93.1903 111.472 93.1903 112.12C93.1903 112.768 93.3903 113.284 93.7903 113.668C94.1903 114.044 94.6943 114.232 95.3023 114.232C95.9103 114.232 96.4143 114.044 96.8143 113.668ZM101.639 110.128C101.599 110.76 101.551 111.312 101.495 111.784C101.439 112.256 101.359 112.712 101.255 113.152C101.151 113.584 101.023 113.936 100.871 114.208C100.727 114.48 100.543 114.696 100.319 114.856C100.095 115.016 99.8389 115.096 99.5509 115.096C99.3189 115.096 99.0869 115.052 98.8549 114.964V114.208C98.9829 114.256 99.1109 114.28 99.2389 114.28C99.7189 114.28 100.067 113.86 100.283 113.02C100.507 112.172 100.647 110.912 100.703 109.24H104.939V115H103.979V110.128H101.639ZM107.288 115H106.16L107.828 112.888C107.388 112.76 107.048 112.536 106.808 112.216C106.568 111.896 106.448 111.528 106.448 111.112C106.448 110.584 106.64 110.14 107.024 109.78C107.408 109.42 107.936 109.24 108.608 109.24H111.44V115H110.48V112.984H108.86L107.288 115ZM107.744 110.368C107.52 110.544 107.408 110.792 107.408 111.112C107.408 111.432 107.52 111.68 107.744 111.856C107.976 112.032 108.292 112.12 108.692 112.12H110.48V110.104H108.692C108.292 110.104 107.976 110.192 107.744 110.368Z" fill="#8E8E8E"/>
<path d="M215.688 115.444H214.68V114.352C213.352 114.312 212.296 113.984 211.512 113.368C210.736 112.752 210.348 111.896 210.348 110.8C210.348 109.704 210.736 108.848 211.512 108.232C212.296 107.616 213.352 107.288 214.68 107.248V106.156H215.688V107.248C217.016 107.288 218.068 107.616 218.844 108.232C219.628 108.848 220.02 109.704 220.02 110.8C220.02 111.896 219.628 112.752 218.844 113.368C218.068 113.984 217.016 114.312 215.688 114.352V115.444ZM212.208 108.916C211.648 109.372 211.368 110 211.368 110.8C211.368 111.6 211.648 112.232 212.208 112.696C212.768 113.152 213.592 113.4 214.68 113.44V108.16C213.592 108.2 212.768 108.452 212.208 108.916ZM215.688 108.16V113.44C216.776 113.4 217.6 113.152 218.16 112.696C218.72 112.232 219 111.6 219 110.8C219 110 218.72 109.372 218.16 108.916C217.6 108.452 216.776 108.2 215.688 108.16ZM222.075 115H221.259V109.24H222.219V113.452L225.747 109.24H226.563V115H225.603V110.788L222.075 115ZM230.377 110.128C230.337 110.76 230.289 111.312 230.233 111.784C230.177 112.256 230.097 112.712 229.993 113.152C229.889 113.584 229.761 113.936 229.609 114.208C229.465 114.48 229.281 114.696 229.057 114.856C228.833 115.016 228.577 115.096 228.289 115.096C228.057 115.096 227.825 115.052 227.593 114.964V114.208C227.721 114.256 227.849 114.28 227.977 114.28C228.457 114.28 228.805 113.86 229.021 113.02C229.245 112.172 229.385 110.912 229.441 109.24H233.677V115H232.717V110.128H230.377ZM238.187 115H235.451V109.24H236.411V111.256H238.187C238.875 111.256 239.419 111.432 239.819 111.784C240.219 112.136 240.419 112.584 240.419 113.128C240.419 113.672 240.219 114.12 239.819 114.472C239.419 114.824 238.875 115 238.187 115ZM236.411 112.12V114.136H238.067C238.499 114.136 238.835 114.052 239.075 113.884C239.323 113.716 239.447 113.464 239.447 113.128C239.447 112.792 239.323 112.54 239.075 112.372C238.835 112.204 238.499 112.12 238.067 112.12H236.411ZM243.311 115H242.351V110.128H240.227V109.24H245.423V110.128H243.311V115ZM247.377 110.2C248.025 109.464 248.801 109.096 249.705 109.096C250.529 109.096 251.213 109.384 251.757 109.96C252.309 110.536 252.585 111.256 252.585 112.12C252.585 112.984 252.309 113.704 251.757 114.28C251.213 114.856 250.529 115.144 249.705 115.144C248.793 115.144 248.049 114.808 247.473 114.136V117.64H246.513V109.24H247.377V110.2ZM251.037 113.668C251.429 113.276 251.625 112.76 251.625 112.12C251.625 111.48 251.429 110.964 251.037 110.572C250.653 110.18 250.173 109.984 249.597 109.984C249.109 109.984 248.677 110.12 248.301 110.392C247.925 110.664 247.649 111 247.473 111.4V112.84C247.649 113.24 247.925 113.576 248.301 113.848C248.677 114.12 249.109 114.256 249.597 114.256C250.173 114.256 250.653 114.06 251.037 113.668ZM256.702 115H253.966V109.24H254.926V111.256H256.702C257.39 111.256 257.934 111.432 258.334 111.784C258.734 112.136 258.934 112.584 258.934 113.128C258.934 113.672 258.734 114.12 258.334 114.472C257.934 114.824 257.39 115 256.702 115ZM254.926 112.12V114.136H256.582C257.014 114.136 257.35 114.052 257.59 113.884C257.838 113.716 257.962 113.464 257.962 113.128C257.962 112.792 257.838 112.54 257.59 112.372C257.35 112.204 257.014 112.12 256.582 112.12H254.926ZM261.01 115H260.05V109.24H261.01V115Z" fill="#8E8E8E"/>
<path d="M210.54 218.86C210.54 217.932 210.76 217.128 211.2 216.448C211.64 215.76 212.188 215.256 212.844 214.936C213.5 214.616 214.204 214.456 214.956 214.456C215.82 214.456 216.608 214.644 217.32 215.02V216.028C216.712 215.62 215.98 215.416 215.124 215.416C214.164 215.416 213.332 215.712 212.628 216.304C211.924 216.888 211.568 217.74 211.56 218.86C211.56 219.572 211.74 220.188 212.1 220.708C212.468 221.228 212.916 221.604 213.444 221.836C213.98 222.068 214.552 222.184 215.16 222.184C216.064 222.184 216.804 221.98 217.38 221.572V222.58C216.652 222.956 215.84 223.144 214.944 223.144C214.408 223.144 213.88 223.052 213.36 222.868C212.84 222.676 212.368 222.408 211.944 222.064C211.52 221.712 211.18 221.26 210.924 220.708C210.668 220.148 210.54 219.532 210.54 218.86ZM220.683 223H219.723V218.128H217.599V217.24H222.795V218.128H220.683V223ZM224.748 218.2C225.396 217.464 226.172 217.096 227.076 217.096C227.9 217.096 228.584 217.384 229.128 217.96C229.68 218.536 229.956 219.256 229.956 220.12C229.956 220.984 229.68 221.704 229.128 222.28C228.584 222.856 227.9 223.144 227.076 223.144C226.164 223.144 225.42 222.808 224.844 222.136V225.64H223.884V217.24H224.748V218.2ZM228.408 221.668C228.8 221.276 228.996 220.76 228.996 220.12C228.996 219.48 228.8 218.964 228.408 218.572C228.024 218.18 227.544 217.984 226.968 217.984C226.48 217.984 226.048 218.12 225.672 218.392C225.296 218.664 225.02 219 224.844 219.4V220.84C225.02 221.24 225.296 221.576 225.672 221.848C226.048 222.12 226.48 222.256 226.968 222.256C227.544 222.256 228.024 222.06 228.408 221.668ZM231.853 222.34C231.245 221.796 230.941 221.056 230.941 220.12C230.941 219.184 231.245 218.448 231.853 217.912C232.461 217.368 233.181 217.096 234.013 217.096C234.853 217.096 235.573 217.368 236.173 217.912C236.781 218.448 237.085 219.184 237.085 220.12C237.085 221.056 236.781 221.796 236.173 222.34C235.573 222.876 234.853 223.144 234.013 223.144C233.181 223.144 232.461 222.876 231.853 222.34ZM235.525 221.668C235.925 221.284 236.125 220.768 236.125 220.12C236.125 219.472 235.925 218.96 235.525 218.584C235.125 218.2 234.621 218.008 234.013 218.008C233.405 218.008 232.901 218.2 232.501 218.584C232.101 218.96 231.901 219.472 231.901 220.12C231.901 220.768 232.101 221.284 232.501 221.668C232.901 222.044 233.405 222.232 234.013 222.232C234.621 222.232 235.125 222.044 235.525 221.668ZM239.422 223H238.462V217.24H239.422V219.64H240.586L242.41 217.24H243.526L241.342 220.108L243.79 223H242.662L240.55 220.528H239.422V223ZM245.559 223H244.743V217.24H245.703V221.452L249.231 217.24H250.047V223H249.087V218.788L245.559 223Z" fill="#8E8E8E"/>
<path d="M366.768 220.732C366.768 221.164 366.668 221.544 366.468 221.872C366.276 222.192 366.012 222.444 365.676 222.628C365.348 222.804 364.996 222.932 364.62 223.012C364.252 223.1 363.86 223.144 363.444 223.144C362.364 223.144 361.368 222.968 360.456 222.616V221.608C361.304 222.008 362.276 222.2 363.372 222.184C364.948 222.184 365.736 221.668 365.736 220.636C365.736 219.628 364.984 219.124 363.48 219.124H361.764V218.164H363.372C363.988 218.164 364.48 218.048 364.848 217.816C365.216 217.576 365.4 217.236 365.4 216.796C365.4 215.876 364.672 215.416 363.216 215.416C362.336 215.408 361.464 215.604 360.6 216.004V214.996C361.424 214.636 362.324 214.456 363.3 214.456C364.228 214.456 364.98 214.648 365.556 215.032C366.132 215.408 366.42 215.956 366.42 216.676C366.42 217.164 366.292 217.576 366.036 217.912C365.78 218.24 365.448 218.472 365.04 218.608C365.496 218.704 365.896 218.928 366.24 219.28C366.592 219.632 366.768 220.116 366.768 220.732ZM369.102 223H368.142V217.24H369.102V219.676H372.438V217.24H373.398V223H372.438V220.564H369.102V223ZM379.853 221.8C379.853 222.096 380.001 222.244 380.297 222.244C380.425 222.244 380.573 222.216 380.741 222.16V222.94C380.501 223.028 380.261 223.072 380.021 223.072C379.469 223.072 379.117 222.84 378.965 222.376C378.349 222.888 377.601 223.144 376.721 223.144C376.161 223.144 375.681 222.996 375.281 222.7C374.889 222.396 374.693 221.96 374.693 221.392C374.693 220.712 374.945 220.22 375.449 219.916C375.961 219.604 376.577 219.448 377.297 219.448C377.825 219.448 378.357 219.508 378.893 219.628V219.424C378.893 218.984 378.749 218.636 378.461 218.38C378.173 218.116 377.769 217.984 377.249 217.984C376.521 217.984 375.821 218.128 375.149 218.416V217.48C375.901 217.224 376.633 217.096 377.345 217.096C378.129 217.096 378.741 217.308 379.181 217.732C379.629 218.148 379.853 218.752 379.853 219.544V221.8ZM375.677 221.344C375.677 221.664 375.797 221.908 376.037 222.076C376.285 222.236 376.581 222.316 376.925 222.316C377.717 222.316 378.373 222.036 378.893 221.476V220.42C378.349 220.308 377.861 220.252 377.429 220.252C376.941 220.252 376.525 220.34 376.181 220.516C375.845 220.684 375.677 220.96 375.677 221.344ZM386.165 223H385.205V220.996C384.685 221.196 384.113 221.296 383.489 221.296C382.801 221.296 382.257 221.124 381.857 220.78C381.465 220.436 381.269 219.92 381.269 219.232V217.24H382.229V219.16C382.229 219.624 382.357 219.948 382.613 220.132C382.877 220.316 383.265 220.408 383.777 220.408C384.313 220.408 384.789 220.324 385.205 220.156V217.24H386.165V223ZM387.551 220.12C387.551 219.176 387.839 218.436 388.415 217.9C388.999 217.364 389.667 217.096 390.419 217.096C391.123 217.096 391.703 217.272 392.159 217.624C392.623 217.976 392.927 218.412 393.071 218.932C393.215 219.444 393.223 219.98 393.095 220.54H388.511C388.567 221.108 388.819 221.536 389.267 221.824C389.715 222.112 390.255 222.256 390.887 222.256C391.591 222.256 392.223 222.1 392.783 221.788V222.724C392.247 223.004 391.567 223.144 390.743 223.144C389.831 223.144 389.071 222.884 388.463 222.364C387.855 221.844 387.551 221.096 387.551 220.12ZM392.243 219.7C392.267 219.532 392.255 219.356 392.207 219.172C392.159 218.988 392.071 218.804 391.943 218.62C391.823 218.436 391.635 218.284 391.379 218.164C391.123 218.044 390.823 217.984 390.479 217.984C389.959 217.984 389.507 218.136 389.123 218.44C388.747 218.744 388.543 219.164 388.511 219.7H392.243ZM395.457 223H394.497V217.24H395.457V219.676H398.793V217.24H399.753V223H398.793V220.564H395.457V223ZM402.345 223H401.529V217.24H402.489V221.452L406.017 217.24H406.833V223H405.873V218.788L402.345 223ZM409.183 223H408.055L409.723 220.888C409.283 220.76 408.943 220.536 408.703 220.216C408.463 219.896 408.343 219.528 408.343 219.112C408.343 218.584 408.535 218.14 408.919 217.78C409.303 217.42 409.831 217.24 410.503 217.24H413.335V223H412.375V220.984H410.755L409.183 223ZM409.639 218.368C409.415 218.544 409.303 218.792 409.303 219.112C409.303 219.432 409.415 219.68 409.639 219.856C409.871 220.032 410.187 220.12 410.587 220.12H412.375V218.104H410.587C410.187 218.104 409.871 218.192 409.639 218.368Z" fill="#8E8E8E"/>
<path d="M462.085 213.167H467.918C468.227 213.167 468.524 213.289 468.743 213.508C468.962 213.727 469.085 214.024 469.085 214.333V223.667C469.085 223.976 468.962 224.273 468.743 224.491C468.524 224.71 468.227 224.833 467.918 224.833H462.085C461.775 224.833 461.478 224.71 461.26 224.491C461.041 224.273 460.918 223.976 460.918 223.667V214.333C460.918 214.024 461.041 213.727 461.26 213.508C461.478 213.289 461.775 213.167 462.085 213.167ZM462.085 214.333V216.667H467.918V214.333H462.085ZM462.085 217.833V219H463.251V217.833H462.085ZM464.418 217.833V219H465.585V217.833H464.418ZM466.751 217.833V219H467.918V217.833H466.751ZM462.085 220.167V221.333H463.251V220.167H462.085ZM464.418 220.167V221.333H465.585V220.167H464.418ZM466.751 220.167V221.333H467.918V220.167H466.751ZM462.085 222.5V223.667H463.251V222.5H462.085ZM464.418 222.5V223.667H465.585V222.5H464.418ZM466.751 222.5V223.667H467.918V222.5H466.751Z" fill="#8E8E8E"/>
<path d="M212.112 173H211.104V164.6H217.956V173H216.948V165.56H212.112V173ZM219.422 170.12C219.422 169.176 219.71 168.436 220.286 167.9C220.87 167.364 221.538 167.096 222.29 167.096C222.994 167.096 223.574 167.272 224.03 167.624C224.494 167.976 224.798 168.412 224.942 168.932C225.086 169.444 225.094 169.98 224.966 170.54H220.382C220.438 171.108 220.69 171.536 221.138 171.824C221.586 172.112 222.126 172.256 222.758 172.256C223.462 172.256 224.094 172.1 224.654 171.788V172.724C224.118 173.004 223.438 173.144 222.614 173.144C221.702 173.144 220.942 172.884 220.334 172.364C219.726 171.844 219.422 171.096 219.422 170.12ZM224.114 169.7C224.138 169.532 224.126 169.356 224.078 169.172C224.03 168.988 223.942 168.804 223.814 168.62C223.694 168.436 223.506 168.284 223.25 168.164C222.994 168.044 222.694 167.984 222.35 167.984C221.83 167.984 221.378 168.136 220.994 168.44C220.618 168.744 220.414 169.164 220.382 169.7H224.114ZM227.232 168.2C227.88 167.464 228.656 167.096 229.56 167.096C230.384 167.096 231.068 167.384 231.612 167.96C232.164 168.536 232.44 169.256 232.44 170.12C232.44 170.984 232.164 171.704 231.612 172.28C231.068 172.856 230.384 173.144 229.56 173.144C228.648 173.144 227.904 172.808 227.328 172.136V175.64H226.368V167.24H227.232V168.2ZM230.892 171.668C231.284 171.276 231.48 170.76 231.48 170.12C231.48 169.48 231.284 168.964 230.892 168.572C230.508 168.18 230.028 167.984 229.452 167.984C228.964 167.984 228.532 168.12 228.156 168.392C227.78 168.664 227.504 169 227.328 169.4V170.84C227.504 171.24 227.78 171.576 228.156 171.848C228.532 172.12 228.964 172.256 229.452 172.256C230.028 172.256 230.508 172.06 230.892 171.668ZM233.426 170.12C233.426 169.176 233.714 168.436 234.29 167.9C234.874 167.364 235.542 167.096 236.294 167.096C236.998 167.096 237.578 167.272 238.034 167.624C238.498 167.976 238.802 168.412 238.946 168.932C239.09 169.444 239.098 169.98 238.97 170.54H234.386C234.442 171.108 234.694 171.536 235.142 171.824C235.59 172.112 236.13 172.256 236.762 172.256C237.466 172.256 238.098 172.1 238.658 171.788V172.724C238.122 173.004 237.442 173.144 236.618 173.144C235.706 173.144 234.946 172.884 234.338 172.364C233.73 171.844 233.426 171.096 233.426 170.12ZM238.118 169.7C238.142 169.532 238.13 169.356 238.082 169.172C238.034 168.988 237.946 168.804 237.818 168.62C237.698 168.436 237.51 168.284 237.254 168.164C236.998 168.044 236.698 167.984 236.354 167.984C235.834 167.984 235.382 168.136 234.998 168.44C234.622 168.744 234.418 169.164 234.386 169.7H238.118ZM242.655 173H241.695V168.128H239.571V167.24H244.767V168.128H242.655V173ZM246.316 173H245.188L246.856 170.888C246.416 170.76 246.076 170.536 245.836 170.216C245.596 169.896 245.476 169.528 245.476 169.112C245.476 168.584 245.668 168.14 246.052 167.78C246.436 167.42 246.964 167.24 247.636 167.24H250.468V173H249.508V170.984H247.888L246.316 173ZM246.772 168.368C246.548 168.544 246.436 168.792 246.436 169.112C246.436 169.432 246.548 169.68 246.772 169.856C247.004 170.032 247.32 170.12 247.72 170.12H249.508V168.104H247.72C247.32 168.104 247.004 168.192 246.772 168.368ZM253.203 173H252.243V167.24H253.203V169.676H256.539V167.24H257.499V173H256.539V170.564H253.203V173ZM260.091 173H259.275V167.24H260.235V171.452L263.763 167.24H264.579V173H263.619V168.788L260.091 173ZM268.753 173H267.793V168.128H265.669V167.24H270.865V168.128H268.753V173ZM271.371 170.12C271.371 169.176 271.659 168.436 272.235 167.9C272.819 167.364 273.487 167.096 274.239 167.096C274.943 167.096 275.523 167.272 275.979 167.624C276.443 167.976 276.747 168.412 276.891 168.932C277.035 169.444 277.043 169.98 276.915 170.54H272.331C272.387 171.108 272.639 171.536 273.087 171.824C273.535 172.112 274.075 172.256 274.707 172.256C275.411 172.256 276.043 172.1 276.603 171.788V172.724C276.067 173.004 275.387 173.144 274.563 173.144C273.651 173.144 272.891 172.884 272.283 172.364C271.675 171.844 271.371 171.096 271.371 170.12ZM276.063 169.7C276.087 169.532 276.075 169.356 276.027 169.172C275.979 168.988 275.891 168.804 275.763 168.62C275.643 168.436 275.455 168.284 275.199 168.164C274.943 168.044 274.643 167.984 274.299 167.984C273.779 167.984 273.327 168.136 272.943 168.44C272.567 168.744 272.363 169.164 272.331 169.7H276.063ZM282.266 173H281.306V167.24H286.562V173H285.602V168.128H282.266V173ZM288.853 172.34C288.245 171.796 287.941 171.056 287.941 170.12C287.941 169.184 288.245 168.448 288.853 167.912C289.461 167.368 290.181 167.096 291.013 167.096C291.853 167.096 292.573 167.368 293.173 167.912C293.781 168.448 294.085 169.184 294.085 170.12C294.085 171.056 293.781 171.796 293.173 172.34C292.573 172.876 291.853 173.144 291.013 173.144C290.181 173.144 289.461 172.876 288.853 172.34ZM292.525 171.668C292.925 171.284 293.125 170.768 293.125 170.12C293.125 169.472 292.925 168.96 292.525 168.584C292.125 168.2 291.621 168.008 291.013 168.008C290.405 168.008 289.901 168.2 289.501 168.584C289.101 168.96 288.901 169.472 288.901 170.12C288.901 170.768 289.101 171.284 289.501 171.668C289.901 172.044 290.405 172.232 291.013 172.232C291.621 172.232 292.125 172.044 292.525 171.668ZM297.35 168.128C297.31 168.76 297.262 169.312 297.206 169.784C297.15 170.256 297.07 170.712 296.966 171.152C296.862 171.584 296.734 171.936 296.582 172.208C296.438 172.48 296.254 172.696 296.03 172.856C295.806 173.016 295.55 173.096 295.262 173.096C295.03 173.096 294.798 173.052 294.566 172.964V172.208C294.694 172.256 294.822 172.28 294.95 172.28C295.43 172.28 295.778 171.86 295.994 171.02C296.218 170.172 296.358 168.912 296.414 167.24H300.65V173H299.69V168.128H297.35ZM302.027 170.12C302.027 169.176 302.315 168.436 302.891 167.9C303.475 167.364 304.143 167.096 304.895 167.096C305.599 167.096 306.179 167.272 306.635 167.624C307.099 167.976 307.403 168.412 307.547 168.932C307.691 169.444 307.699 169.98 307.571 170.54H302.987C303.043 171.108 303.295 171.536 303.743 171.824C304.191 172.112 304.731 172.256 305.363 172.256C306.067 172.256 306.699 172.1 307.259 171.788V172.724C306.723 173.004 306.043 173.144 305.219 173.144C304.307 173.144 303.547 172.884 302.939 172.364C302.331 171.844 302.027 171.096 302.027 170.12ZM306.719 169.7C306.743 169.532 306.731 169.356 306.683 169.172C306.635 168.988 306.547 168.804 306.419 168.62C306.299 168.436 306.111 168.284 305.855 168.164C305.599 168.044 305.299 167.984 304.955 167.984C304.435 167.984 303.983 168.136 303.599 168.44C303.223 168.744 303.019 169.164 302.987 169.7H306.719Z" fill="#8E8E8E"/>
<path d="M212.112 281H211.104V272.6H217.956V281H216.948V273.56H212.112V281ZM219.422 278.12C219.422 277.176 219.71 276.436 220.286 275.9C220.87 275.364 221.538 275.096 222.29 275.096C222.994 275.096 223.574 275.272 224.03 275.624C224.494 275.976 224.798 276.412 224.942 276.932C225.086 277.444 225.094 277.98 224.966 278.54H220.382C220.438 279.108 220.69 279.536 221.138 279.824C221.586 280.112 222.126 280.256 222.758 280.256C223.462 280.256 224.094 280.1 224.654 279.788V280.724C224.118 281.004 223.438 281.144 222.614 281.144C221.702 281.144 220.942 280.884 220.334 280.364C219.726 279.844 219.422 279.096 219.422 278.12ZM224.114 277.7C224.138 277.532 224.126 277.356 224.078 277.172C224.03 276.988 223.942 276.804 223.814 276.62C223.694 276.436 223.506 276.284 223.25 276.164C222.994 276.044 222.694 275.984 222.35 275.984C221.83 275.984 221.378 276.136 220.994 276.44C220.618 276.744 220.414 277.164 220.382 277.7H224.114ZM227.232 276.2C227.88 275.464 228.656 275.096 229.56 275.096C230.384 275.096 231.068 275.384 231.612 275.96C232.164 276.536 232.44 277.256 232.44 278.12C232.44 278.984 232.164 279.704 231.612 280.28C231.068 280.856 230.384 281.144 229.56 281.144C228.648 281.144 227.904 280.808 227.328 280.136V283.64H226.368V275.24H227.232V276.2ZM230.892 279.668C231.284 279.276 231.48 278.76 231.48 278.12C231.48 277.48 231.284 276.964 230.892 276.572C230.508 276.18 230.028 275.984 229.452 275.984C228.964 275.984 228.532 276.12 228.156 276.392C227.78 276.664 227.504 277 227.328 277.4V278.84C227.504 279.24 227.78 279.576 228.156 279.848C228.532 280.12 228.964 280.256 229.452 280.256C230.028 280.256 230.508 280.06 230.892 279.668ZM233.426 278.12C233.426 277.176 233.714 276.436 234.29 275.9C234.874 275.364 235.542 275.096 236.294 275.096C236.998 275.096 237.578 275.272 238.034 275.624C238.498 275.976 238.802 276.412 238.946 276.932C239.09 277.444 239.098 277.98 238.97 278.54H234.386C234.442 279.108 234.694 279.536 235.142 279.824C235.59 280.112 236.13 280.256 236.762 280.256C237.466 280.256 238.098 280.1 238.658 279.788V280.724C238.122 281.004 237.442 281.144 236.618 281.144C235.706 281.144 234.946 280.884 234.338 280.364C233.73 279.844 233.426 279.096 233.426 278.12ZM238.118 277.7C238.142 277.532 238.13 277.356 238.082 277.172C238.034 276.988 237.946 276.804 237.818 276.62C237.698 276.436 237.51 276.284 237.254 276.164C236.998 276.044 236.698 275.984 236.354 275.984C235.834 275.984 235.382 276.136 234.998 276.44C234.622 276.744 234.418 277.164 234.386 277.7H238.118ZM242.655 281H241.695V276.128H239.571V275.24H244.767V276.128H242.655V281ZM246.316 281H245.188L246.856 278.888C246.416 278.76 246.076 278.536 245.836 278.216C245.596 277.896 245.476 277.528 245.476 277.112C245.476 276.584 245.668 276.14 246.052 275.78C246.436 275.42 246.964 275.24 247.636 275.24H250.468V281H249.508V278.984H247.888L246.316 281ZM246.772 276.368C246.548 276.544 246.436 276.792 246.436 277.112C246.436 277.432 246.548 277.68 246.772 277.856C247.004 278.032 247.32 278.12 247.72 278.12H249.508V276.104H247.72C247.32 276.104 247.004 276.192 246.772 276.368ZM253.203 281H252.243V275.24H253.203V277.676H256.539V275.24H257.499V281H256.539V278.564H253.203V281ZM260.091 281H259.275V275.24H260.235V279.452L263.763 275.24H264.579V281H263.619V276.788L260.091 281ZM268.753 281H267.793V276.128H265.669V275.24H270.865V276.128H268.753V281ZM271.371 278.12C271.371 277.176 271.659 276.436 272.235 275.9C272.819 275.364 273.487 275.096 274.239 275.096C274.943 275.096 275.523 275.272 275.979 275.624C276.443 275.976 276.747 276.412 276.891 276.932C277.035 277.444 277.043 277.98 276.915 278.54H272.331C272.387 279.108 272.639 279.536 273.087 279.824C273.535 280.112 274.075 280.256 274.707 280.256C275.411 280.256 276.043 280.1 276.603 279.788V280.724C276.067 281.004 275.387 281.144 274.563 281.144C273.651 281.144 272.891 280.884 272.283 280.364C271.675 279.844 271.371 279.096 271.371 278.12ZM276.063 277.7C276.087 277.532 276.075 277.356 276.027 277.172C275.979 276.988 275.891 276.804 275.763 276.62C275.643 276.436 275.455 276.284 275.199 276.164C274.943 276.044 274.643 275.984 274.299 275.984C273.779 275.984 273.327 276.136 272.943 276.44C272.567 276.744 272.363 277.164 272.331 277.7H276.063ZM282.266 281H281.306V275.24H286.562V281H285.602V276.128H282.266V281ZM288.853 280.34C288.245 279.796 287.941 279.056 287.941 278.12C287.941 277.184 288.245 276.448 288.853 275.912C289.461 275.368 290.181 275.096 291.013 275.096C291.853 275.096 292.573 275.368 293.173 275.912C293.781 276.448 294.085 277.184 294.085 278.12C294.085 279.056 293.781 279.796 293.173 280.34C292.573 280.876 291.853 281.144 291.013 281.144C290.181 281.144 289.461 280.876 288.853 280.34ZM292.525 279.668C292.925 279.284 293.125 278.768 293.125 278.12C293.125 277.472 292.925 276.96 292.525 276.584C292.125 276.2 291.621 276.008 291.013 276.008C290.405 276.008 289.901 276.2 289.501 276.584C289.101 276.96 288.901 277.472 288.901 278.12C288.901 278.768 289.101 279.284 289.501 279.668C289.901 280.044 290.405 280.232 291.013 280.232C291.621 280.232 292.125 280.044 292.525 279.668ZM297.35 276.128C297.31 276.76 297.262 277.312 297.206 277.784C297.15 278.256 297.07 278.712 296.966 279.152C296.862 279.584 296.734 279.936 296.582 280.208C296.438 280.48 296.254 280.696 296.03 280.856C295.806 281.016 295.55 281.096 295.262 281.096C295.03 281.096 294.798 281.052 294.566 280.964V280.208C294.694 280.256 294.822 280.28 294.95 280.28C295.43 280.28 295.778 279.86 295.994 279.02C296.218 278.172 296.358 276.912 296.414 275.24H300.65V281H299.69V276.128H297.35ZM302.027 278.12C302.027 277.176 302.315 276.436 302.891 275.9C303.475 275.364 304.143 275.096 304.895 275.096C305.599 275.096 306.179 275.272 306.635 275.624C307.099 275.976 307.403 276.412 307.547 276.932C307.691 277.444 307.699 277.98 307.571 278.54H302.987C303.043 279.108 303.295 279.536 303.743 279.824C304.191 280.112 304.731 280.256 305.363 280.256C306.067 280.256 306.699 280.1 307.259 279.788V280.724C306.723 281.004 306.043 281.144 305.219 281.144C304.307 281.144 303.547 280.884 302.939 280.364C302.331 279.844 302.027 279.096 302.027 278.12ZM306.719 277.7C306.743 277.532 306.731 277.356 306.683 277.172C306.635 276.988 306.547 276.804 306.419 276.62C306.299 276.436 306.111 276.284 305.855 276.164C305.599 276.044 305.299 275.984 304.955 275.984C304.435 275.984 303.983 276.136 303.599 276.44C303.223 276.744 303.019 277.164 302.987 277.7H306.719Z" fill="#8E8E8E"/>
<path d="M363.112 173H362.104V164.6H368.956V173H367.948V165.56H363.112V173ZM370.422 170.12C370.422 169.176 370.71 168.436 371.286 167.9C371.87 167.364 372.538 167.096 373.29 167.096C373.994 167.096 374.574 167.272 375.03 167.624C375.494 167.976 375.798 168.412 375.942 168.932C376.086 169.444 376.094 169.98 375.966 170.54H371.382C371.438 171.108 371.69 171.536 372.138 171.824C372.586 172.112 373.126 172.256 373.758 172.256C374.462 172.256 375.094 172.1 375.654 171.788V172.724C375.118 173.004 374.438 173.144 373.614 173.144C372.702 173.144 371.942 172.884 371.334 172.364C370.726 171.844 370.422 171.096 370.422 170.12ZM375.114 169.7C375.138 169.532 375.126 169.356 375.078 169.172C375.03 168.988 374.942 168.804 374.814 168.62C374.694 168.436 374.506 168.284 374.25 168.164C373.994 168.044 373.694 167.984 373.35 167.984C372.83 167.984 372.378 168.136 371.994 168.44C371.618 168.744 371.414 169.164 371.382 169.7H375.114ZM378.232 168.2C378.88 167.464 379.656 167.096 380.56 167.096C381.384 167.096 382.068 167.384 382.612 167.96C383.164 168.536 383.44 169.256 383.44 170.12C383.44 170.984 383.164 171.704 382.612 172.28C382.068 172.856 381.384 173.144 380.56 173.144C379.648 173.144 378.904 172.808 378.328 172.136V175.64H377.368V167.24H378.232V168.2ZM381.892 171.668C382.284 171.276 382.48 170.76 382.48 170.12C382.48 169.48 382.284 168.964 381.892 168.572C381.508 168.18 381.028 167.984 380.452 167.984C379.964 167.984 379.532 168.12 379.156 168.392C378.78 168.664 378.504 169 378.328 169.4V170.84C378.504 171.24 378.78 171.576 379.156 171.848C379.532 172.12 379.964 172.256 380.452 172.256C381.028 172.256 381.508 172.06 381.892 171.668ZM384.426 170.12C384.426 169.176 384.714 168.436 385.29 167.9C385.874 167.364 386.542 167.096 387.294 167.096C387.998 167.096 388.578 167.272 389.034 167.624C389.498 167.976 389.802 168.412 389.946 168.932C390.09 169.444 390.098 169.98 389.97 170.54H385.386C385.442 171.108 385.694 171.536 386.142 171.824C386.59 172.112 387.13 172.256 387.762 172.256C388.466 172.256 389.098 172.1 389.658 171.788V172.724C389.122 173.004 388.442 173.144 387.618 173.144C386.706 173.144 385.946 172.884 385.338 172.364C384.73 171.844 384.426 171.096 384.426 170.12ZM389.118 169.7C389.142 169.532 389.13 169.356 389.082 169.172C389.034 168.988 388.946 168.804 388.818 168.62C388.698 168.436 388.51 168.284 388.254 168.164C387.998 168.044 387.698 167.984 387.354 167.984C386.834 167.984 386.382 168.136 385.998 168.44C385.622 168.744 385.418 169.164 385.386 169.7H389.118ZM393.655 173H392.695V168.128H390.571V167.24H395.767V168.128H393.655V173ZM397.316 173H396.188L397.856 170.888C397.416 170.76 397.076 170.536 396.836 170.216C396.596 169.896 396.476 169.528 396.476 169.112C396.476 168.584 396.668 168.14 397.052 167.78C397.436 167.42 397.964 167.24 398.636 167.24H401.468V173H400.508V170.984H398.888L397.316 173ZM397.772 168.368C397.548 168.544 397.436 168.792 397.436 169.112C397.436 169.432 397.548 169.68 397.772 169.856C398.004 170.032 398.32 170.12 398.72 170.12H400.508V168.104H398.72C398.32 168.104 398.004 168.192 397.772 168.368ZM404.203 173H403.243V167.24H404.203V169.676H407.539V167.24H408.499V173H407.539V170.564H404.203V173ZM411.091 173H410.275V167.24H411.235V171.452L414.763 167.24H415.579V173H414.619V168.788L411.091 173ZM419.753 173H418.793V168.128H416.669V167.24H421.865V168.128H419.753V173ZM422.371 170.12C422.371 169.176 422.659 168.436 423.235 167.9C423.819 167.364 424.487 167.096 425.239 167.096C425.943 167.096 426.523 167.272 426.979 167.624C427.443 167.976 427.747 168.412 427.891 168.932C428.035 169.444 428.043 169.98 427.915 170.54H423.331C423.387 171.108 423.639 171.536 424.087 171.824C424.535 172.112 425.075 172.256 425.707 172.256C426.411 172.256 427.043 172.1 427.603 171.788V172.724C427.067 173.004 426.387 173.144 425.563 173.144C424.651 173.144 423.891 172.884 423.283 172.364C422.675 171.844 422.371 171.096 422.371 170.12ZM427.063 169.7C427.087 169.532 427.075 169.356 427.027 169.172C426.979 168.988 426.891 168.804 426.763 168.62C426.643 168.436 426.455 168.284 426.199 168.164C425.943 168.044 425.643 167.984 425.299 167.984C424.779 167.984 424.327 168.136 423.943 168.44C423.567 168.744 423.363 169.164 423.331 169.7H427.063ZM433.266 173H432.306V167.24H437.562V173H436.602V168.128H433.266V173ZM439.853 172.34C439.245 171.796 438.941 171.056 438.941 170.12C438.941 169.184 439.245 168.448 439.853 167.912C440.461 167.368 441.181 167.096 442.013 167.096C442.853 167.096 443.573 167.368 444.173 167.912C444.781 168.448 445.085 169.184 445.085 170.12C445.085 171.056 444.781 171.796 444.173 172.34C443.573 172.876 442.853 173.144 442.013 173.144C441.181 173.144 440.461 172.876 439.853 172.34ZM443.525 171.668C443.925 171.284 444.125 170.768 444.125 170.12C444.125 169.472 443.925 168.96 443.525 168.584C443.125 168.2 442.621 168.008 442.013 168.008C441.405 168.008 440.901 168.2 440.501 168.584C440.101 168.96 439.901 169.472 439.901 170.12C439.901 170.768 440.101 171.284 440.501 171.668C440.901 172.044 441.405 172.232 442.013 172.232C442.621 172.232 443.125 172.044 443.525 171.668ZM448.35 168.128C448.31 168.76 448.262 169.312 448.206 169.784C448.15 170.256 448.07 170.712 447.966 171.152C447.862 171.584 447.734 171.936 447.582 172.208C447.438 172.48 447.254 172.696 447.03 172.856C446.806 173.016 446.55 173.096 446.262 173.096C446.03 173.096 445.798 173.052 445.566 172.964V172.208C445.694 172.256 445.822 172.28 445.95 172.28C446.43 172.28 446.778 171.86 446.994 171.02C447.218 170.172 447.358 168.912 447.414 167.24H451.65V173H450.69V168.128H448.35ZM453.027 170.12C453.027 169.176 453.315 168.436 453.891 167.9C454.475 167.364 455.143 167.096 455.895 167.096C456.599 167.096 457.179 167.272 457.635 167.624C458.099 167.976 458.403 168.412 458.547 168.932C458.691 169.444 458.699 169.98 458.571 170.54H453.987C454.043 171.108 454.295 171.536 454.743 171.824C455.191 172.112 455.731 172.256 456.363 172.256C457.067 172.256 457.699 172.1 458.259 171.788V172.724C457.723 173.004 457.043 173.144 456.219 173.144C455.307 173.144 454.547 172.884 453.939 172.364C453.331 171.844 453.027 171.096 453.027 170.12ZM457.719 169.7C457.743 169.532 457.731 169.356 457.683 169.172C457.635 168.988 457.547 168.804 457.419 168.62C457.299 168.436 457.111 168.284 456.855 168.164C456.599 168.044 456.299 167.984 455.955 167.984C455.435 167.984 454.983 168.136 454.599 168.44C454.223 168.744 454.019 169.164 453.987 169.7H457.719Z" fill="#8E8E8E"/>
<path d="M362.112 115H361.104V106.6H362.112V110.236H364.02L366.552 106.6H367.704L364.848 110.692L367.956 115H366.804L364.056 111.196H362.112V115ZM368.986 114.34C368.378 113.796 368.074 113.056 368.074 112.12C368.074 111.184 368.378 110.448 368.986 109.912C369.594 109.368 370.314 109.096 371.146 109.096C371.986 109.096 372.706 109.368 373.306 109.912C373.914 110.448 374.218 111.184 374.218 112.12C374.218 113.056 373.914 113.796 373.306 114.34C372.706 114.876 371.986 115.144 371.146 115.144C370.314 115.144 369.594 114.876 368.986 114.34ZM372.658 113.668C373.058 113.284 373.258 112.768 373.258 112.12C373.258 111.472 373.058 110.96 372.658 110.584C372.258 110.2 371.754 110.008 371.146 110.008C370.538 110.008 370.034 110.2 369.634 110.584C369.234 110.96 369.034 111.472 369.034 112.12C369.034 112.768 369.234 113.284 369.634 113.668C370.034 114.044 370.538 114.232 371.146 114.232C371.754 114.232 372.258 114.044 372.658 113.668ZM377.483 110.128C377.443 110.76 377.395 111.312 377.339 111.784C377.283 112.256 377.203 112.712 377.099 113.152C376.995 113.584 376.867 113.936 376.715 114.208C376.571 114.48 376.387 114.696 376.163 114.856C375.939 115.016 375.683 115.096 375.395 115.096C375.163 115.096 374.931 115.052 374.699 114.964V114.208C374.827 114.256 374.955 114.28 375.083 114.28C375.563 114.28 375.911 113.86 376.127 113.02C376.351 112.172 376.491 110.912 376.547 109.24H380.783V115H379.823V110.128H377.483ZM383.072 114.34C382.464 113.796 382.16 113.056 382.16 112.12C382.16 111.184 382.464 110.448 383.072 109.912C383.68 109.368 384.4 109.096 385.232 109.096C386.072 109.096 386.792 109.368 387.392 109.912C388 110.448 388.304 111.184 388.304 112.12C388.304 113.056 388 113.796 387.392 114.34C386.792 114.876 386.072 115.144 385.232 115.144C384.4 115.144 383.68 114.876 383.072 114.34ZM386.744 113.668C387.144 113.284 387.344 112.768 387.344 112.12C387.344 111.472 387.144 110.96 386.744 110.584C386.344 110.2 385.84 110.008 385.232 110.008C384.624 110.008 384.12 110.2 383.72 110.584C383.32 110.96 383.12 111.472 383.12 112.12C383.12 112.768 383.32 113.284 383.72 113.668C384.12 114.044 384.624 114.232 385.232 114.232C385.84 114.232 386.344 114.044 386.744 113.668ZM390.641 115H389.681V109.24H390.641V111.676H393.977V109.24H394.937V115H393.977V112.564H390.641V115ZM397.672 115H396.712V109.24H397.672V111.64H398.836L400.66 109.24H401.776L399.592 112.108L402.04 115H400.912L398.8 112.528H397.672V115ZM403.809 115H402.993V109.24H403.953V113.452L407.481 109.24H408.297V115H407.337V110.788L403.809 115Z" fill="#8E8E8E"/>
<path d="M380.044 140.72C380.044 141.168 379.944 141.56 379.744 141.896C379.544 142.224 379.272 142.476 378.928 142.652C378.584 142.828 378.216 142.956 377.824 143.036C377.44 143.124 377.024 143.168 376.576 143.168C375.52 143.168 374.484 142.988 373.468 142.628V140.9C374.38 141.348 375.372 141.564 376.444 141.548C377.636 141.548 378.232 141.184 378.232 140.456C378.232 139.8 377.728 139.472 376.72 139.472H374.824L374.836 137.888H376.6C377.008 137.888 377.328 137.816 377.56 137.672C377.792 137.52 377.908 137.3 377.908 137.012C377.908 136.372 377.352 136.052 376.24 136.052C375.408 136.036 374.532 136.252 373.612 136.7V134.984C374.492 134.616 375.42 134.432 376.396 134.432C377.412 134.432 378.216 134.628 378.808 135.02C379.408 135.404 379.708 135.972 379.708 136.724C379.708 137.172 379.588 137.556 379.348 137.876C379.108 138.188 378.78 138.416 378.364 138.56C378.852 138.696 379.252 138.944 379.564 139.304C379.884 139.664 380.044 140.136 380.044 140.72ZM382.794 143H381.126V137.24H382.794V139.424H385.122V137.24H386.79V143H385.122V140.816H382.794V143ZM393.352 141.512C393.352 141.768 393.488 141.896 393.76 141.896C393.872 141.896 393.976 141.88 394.072 141.848V142.94C393.768 143.052 393.46 143.108 393.148 143.108C392.54 143.108 392.116 142.892 391.876 142.46C391.276 142.932 390.584 143.168 389.8 143.168C389.232 143.168 388.752 143.012 388.36 142.7C387.976 142.38 387.784 141.948 387.784 141.404C387.784 140.948 387.92 140.568 388.192 140.264C388.464 139.96 388.78 139.756 389.14 139.652C389.5 139.54 389.892 139.484 390.316 139.484C390.788 139.484 391.244 139.536 391.684 139.64V139.436C391.684 139.14 391.568 138.904 391.336 138.728C391.104 138.552 390.768 138.464 390.328 138.464C389.688 138.464 389.008 138.608 388.288 138.896V137.456C389.056 137.2 389.8 137.072 390.52 137.072C392.408 137.072 393.352 137.94 393.352 139.676V141.512ZM390.7 140.48C390.356 140.48 390.068 140.544 389.836 140.672C389.604 140.8 389.488 141 389.488 141.272C389.488 141.48 389.572 141.652 389.74 141.788C389.916 141.916 390.132 141.98 390.388 141.98C390.892 141.98 391.324 141.824 391.684 141.512V140.612C391.316 140.524 390.988 140.48 390.7 140.48ZM399.913 143H398.257V141.2C397.825 141.36 397.333 141.44 396.781 141.44C396.125 141.44 395.585 141.26 395.161 140.9C394.745 140.54 394.537 140.004 394.537 139.292V137.24H396.205V139.136C396.205 139.736 396.549 140.036 397.237 140.036C397.637 140.036 397.977 139.976 398.257 139.856V137.24H399.913V143ZM401.005 140.12C401.005 139.6 401.097 139.14 401.281 138.74C401.465 138.332 401.705 138.012 402.001 137.78C402.305 137.548 402.621 137.372 402.949 137.252C403.285 137.132 403.625 137.072 403.969 137.072C404.545 137.072 405.041 137.18 405.457 137.396C405.881 137.612 406.193 137.892 406.393 138.236C406.593 138.572 406.729 138.956 406.801 139.388C406.881 139.812 406.861 140.236 406.741 140.66H402.685C402.773 141.06 403.005 141.36 403.381 141.56C403.757 141.752 404.201 141.848 404.713 141.848C405.345 141.848 405.925 141.732 406.453 141.5V142.808C405.885 143.048 405.181 143.168 404.341 143.168C403.381 143.168 402.585 142.9 401.953 142.364C401.321 141.828 401.005 141.08 401.005 140.12ZM405.241 139.58C405.281 139.316 405.205 139.044 405.013 138.764C404.821 138.484 404.493 138.344 404.029 138.344C403.661 138.344 403.345 138.456 403.081 138.68C402.817 138.896 402.681 139.196 402.673 139.58H405.241ZM409.536 143H407.868V137.24H409.536V139.424H411.864V137.24H413.532V143H411.864V140.816H409.536V143ZM416.398 143H414.946V137.24H416.614V140.48L419.182 137.24H420.622V143H418.966V139.76L416.398 143ZM423.404 143H421.532L423.044 141.068C422.66 140.9 422.368 140.656 422.168 140.336C421.968 140.016 421.868 139.656 421.868 139.256C421.868 138.688 422.068 138.212 422.468 137.828C422.876 137.436 423.444 137.24 424.172 137.24H427.292V143H425.624V141.284H424.688L423.404 143ZM423.56 139.304C423.56 139.536 423.64 139.716 423.8 139.844C423.968 139.972 424.204 140.036 424.508 140.036H425.624V138.56H424.508C423.876 138.56 423.56 138.808 423.56 139.304Z" fill="#454545"/>
<path d="M212.7 252H210.9V243.6H212.7V246.936H214.056L216.18 243.6H218.184L215.46 247.692L218.34 252H216.348L214.056 248.568H212.7V252ZM224.071 250.512C224.071 250.768 224.207 250.896 224.479 250.896C224.591 250.896 224.695 250.88 224.791 250.848V251.94C224.487 252.052 224.179 252.108 223.867 252.108C223.259 252.108 222.835 251.892 222.595 251.46C221.995 251.932 221.303 252.168 220.519 252.168C219.951 252.168 219.471 252.012 219.079 251.7C218.695 251.38 218.503 250.948 218.503 250.404C218.503 249.948 218.639 249.568 218.911 249.264C219.183 248.96 219.499 248.756 219.859 248.652C220.219 248.54 220.611 248.484 221.035 248.484C221.507 248.484 221.963 248.536 222.403 248.64V248.436C222.403 248.14 222.287 247.904 222.055 247.728C221.823 247.552 221.487 247.464 221.047 247.464C220.407 247.464 219.727 247.608 219.007 247.896V246.456C219.775 246.2 220.519 246.072 221.239 246.072C223.127 246.072 224.071 246.94 224.071 248.676V250.512ZM221.419 249.48C221.075 249.48 220.787 249.544 220.555 249.672C220.323 249.8 220.207 250 220.207 250.272C220.207 250.48 220.291 250.652 220.459 250.788C220.635 250.916 220.851 250.98 221.107 250.98C221.611 250.98 222.043 250.824 222.403 250.512V249.612C222.035 249.524 221.707 249.48 221.419 249.48ZM228.45 252H226.794V247.644H224.958V246.24H230.286V247.644H228.45V252ZM230.704 249.12C230.704 248.6 230.796 248.14 230.98 247.74C231.164 247.332 231.404 247.012 231.7 246.78C232.004 246.548 232.32 246.372 232.648 246.252C232.984 246.132 233.324 246.072 233.668 246.072C234.244 246.072 234.74 246.18 235.156 246.396C235.58 246.612 235.892 246.892 236.092 247.236C236.292 247.572 236.428 247.956 236.5 248.388C236.58 248.812 236.56 249.236 236.44 249.66H232.384C232.472 250.06 232.704 250.36 233.08 250.56C233.456 250.752 233.9 250.848 234.412 250.848C235.044 250.848 235.624 250.732 236.152 250.5V251.808C235.584 252.048 234.88 252.168 234.04 252.168C233.08 252.168 232.284 251.9 231.652 251.364C231.02 250.828 230.704 250.08 230.704 249.12ZM234.94 248.58C234.98 248.316 234.904 248.044 234.712 247.764C234.52 247.484 234.192 247.344 233.728 247.344C233.36 247.344 233.044 247.456 232.78 247.68C232.516 247.896 232.38 248.196 232.372 248.58H234.94ZM239.235 252H237.567V246.24H241.959V247.644H239.235V252ZM243.3 251.364C242.684 250.828 242.376 250.08 242.376 249.12C242.376 248.16 242.684 247.412 243.3 246.876C243.916 246.34 244.668 246.072 245.556 246.072C246.452 246.072 247.204 246.34 247.812 246.876C248.428 247.412 248.736 248.16 248.736 249.12C248.736 250.08 248.428 250.828 247.812 251.364C247.204 251.9 246.452 252.168 245.556 252.168C244.668 252.168 243.916 251.9 243.3 251.364ZM246.648 250.248C246.912 249.952 247.044 249.576 247.044 249.12C247.044 248.664 246.912 248.292 246.648 248.004C246.384 247.708 246.02 247.56 245.556 247.56C245.092 247.56 244.728 247.708 244.464 248.004C244.208 248.292 244.08 248.664 244.08 249.12C244.08 249.576 244.208 249.952 244.464 250.248C244.728 250.536 245.092 250.68 245.556 250.68C246.02 250.68 246.384 250.536 246.648 250.248ZM251.301 247.08C251.773 246.408 252.469 246.072 253.389 246.072C254.261 246.072 254.945 246.372 255.441 246.972C255.945 247.564 256.197 248.28 256.197 249.12C256.197 249.96 255.945 250.68 255.441 251.28C254.945 251.872 254.261 252.168 253.389 252.168C252.597 252.168 251.965 251.908 251.493 251.388V254.64H249.825V246.24H251.301V247.08ZM254.085 250.296C254.357 249.976 254.493 249.584 254.493 249.12C254.493 248.656 254.357 248.268 254.085 247.956C253.813 247.636 253.445 247.476 252.981 247.476C252.637 247.476 252.329 247.568 252.057 247.752C251.793 247.936 251.601 248.164 251.481 248.436V249.804C251.601 250.076 251.793 250.304 252.057 250.488C252.329 250.672 252.637 250.764 252.981 250.764C253.445 250.764 253.813 250.608 254.085 250.296ZM258.742 252H257.29V246.24H258.958V249.48L261.526 246.24H262.966V252H261.31V248.76L258.742 252ZM265.748 252H263.876L265.388 250.068C265.004 249.9 264.712 249.656 264.512 249.336C264.312 249.016 264.212 248.656 264.212 248.256C264.212 247.688 264.412 247.212 264.812 246.828C265.22 246.436 265.788 246.24 266.516 246.24H269.636V252H267.968V250.284H267.032L265.748 252ZM265.904 248.304C265.904 248.536 265.984 248.716 266.144 248.844C266.312 248.972 266.548 249.036 266.852 249.036H267.968V247.56H266.852C266.22 247.56 265.904 247.808 265.904 248.304Z" fill="#454545"/>
<path d="M368.316 243.6H369.984V252H368.184V246.828L365.964 250.2H364.92L362.7 246.816V252H360.9V243.6H362.568L365.448 247.968L368.316 243.6ZM373.275 252H371.607V246.24H373.275V252ZM373.419 244.332C373.419 244.644 373.327 244.88 373.143 245.04C372.959 245.2 372.723 245.28 372.435 245.28C372.155 245.28 371.923 245.2 371.739 245.04C371.555 244.88 371.463 244.644 371.463 244.332C371.463 244.028 371.555 243.796 371.739 243.636C371.923 243.476 372.155 243.396 372.435 243.396C372.715 243.396 372.947 243.476 373.131 243.636C373.323 243.796 373.419 244.028 373.419 244.332ZM376.188 246.972C376.708 246.372 377.348 246.072 378.108 246.072C378.844 246.072 379.416 246.296 379.824 246.744C380.24 247.184 380.448 247.748 380.448 248.436V252H378.78V248.652C378.78 248.276 378.676 247.992 378.468 247.8C378.268 247.608 378 247.512 377.664 247.512C377.144 247.512 376.716 247.756 376.38 248.244V252H374.712V246.24H376.188V246.972ZM383.302 250.44C383.494 250.608 383.59 250.852 383.59 251.172C383.59 251.492 383.494 251.736 383.302 251.904C383.11 252.072 382.87 252.156 382.582 252.156C382.294 252.156 382.05 252.072 381.85 251.904C381.658 251.736 381.562 251.492 381.562 251.172C381.562 250.852 381.658 250.608 381.85 250.44C382.05 250.272 382.294 250.188 382.582 250.188C382.87 250.188 383.11 250.272 383.302 250.44ZM393.358 253.824H391.774V252H384.97V243.6H386.77V250.38H390.49V243.6H392.29V250.38H393.358V253.824ZM393.958 249.12C393.958 248.6 394.05 248.14 394.234 247.74C394.418 247.332 394.658 247.012 394.954 246.78C395.258 246.548 395.574 246.372 395.902 246.252C396.238 246.132 396.578 246.072 396.922 246.072C397.498 246.072 397.994 246.18 398.41 246.396C398.834 246.612 399.146 246.892 399.346 247.236C399.546 247.572 399.682 247.956 399.754 248.388C399.834 248.812 399.814 249.236 399.694 249.66H395.638C395.726 250.06 395.958 250.36 396.334 250.56C396.71 250.752 397.154 250.848 397.666 250.848C398.298 250.848 398.878 250.732 399.406 250.5V251.808C398.838 252.048 398.134 252.168 397.294 252.168C396.334 252.168 395.538 251.9 394.906 251.364C394.274 250.828 393.958 250.08 393.958 249.12ZM398.194 248.58C398.234 248.316 398.158 248.044 397.966 247.764C397.774 247.484 397.446 247.344 396.982 247.344C396.614 247.344 396.298 247.456 396.034 247.68C395.77 247.896 395.634 248.196 395.626 248.58H398.194ZM402.489 252H400.821V246.24H402.489V248.424H404.817V246.24H406.485V252H404.817V249.816H402.489V252ZM413.047 250.512C413.047 250.768 413.183 250.896 413.455 250.896C413.567 250.896 413.671 250.88 413.767 250.848V251.94C413.463 252.052 413.155 252.108 412.843 252.108C412.235 252.108 411.811 251.892 411.571 251.46C410.971 251.932 410.279 252.168 409.495 252.168C408.927 252.168 408.447 252.012 408.055 251.7C407.671 251.38 407.479 250.948 407.479 250.404C407.479 249.948 407.615 249.568 407.887 249.264C408.159 248.96 408.475 248.756 408.835 248.652C409.195 248.54 409.587 248.484 410.011 248.484C410.483 248.484 410.939 248.536 411.379 248.64V248.436C411.379 248.14 411.263 247.904 411.031 247.728C410.799 247.552 410.463 247.464 410.023 247.464C409.383 247.464 408.703 247.608 407.983 247.896V246.456C408.751 246.2 409.495 246.072 410.215 246.072C412.103 246.072 413.047 246.94 413.047 248.676V250.512ZM410.395 249.48C410.051 249.48 409.763 249.544 409.531 249.672C409.299 249.8 409.183 250 409.183 250.272C409.183 250.48 409.267 250.652 409.435 250.788C409.611 250.916 409.827 250.98 410.083 250.98C410.587 250.98 411.019 250.824 411.379 250.512V249.612C411.011 249.524 410.683 249.48 410.395 249.48Z" fill="#454545"/>
<path d="M452 245H447.415L450.415 248L447.415 251H452V252H446V251L449 248L446 245V244H452V245Z" fill="#8E8E8E"/>
<path d="M367 136H362.415L365.415 139L362.415 142H367V143H361V142L364 139L361 136V135H367V136Z" fill="#8E8E8E"/>
<path d="M84.112 144H83.104V135.6H84.112V139.236H86.02L88.552 135.6H89.704L86.848 139.692L89.956 144H88.804L86.056 140.196H84.112V144ZM90.986 143.34C90.378 142.796 90.074 142.056 90.074 141.12C90.074 140.184 90.378 139.448 90.986 138.912C91.594 138.368 92.314 138.096 93.146 138.096C93.986 138.096 94.706 138.368 95.306 138.912C95.914 139.448 96.218 140.184 96.218 141.12C96.218 142.056 95.914 142.796 95.306 143.34C94.706 143.876 93.986 144.144 93.146 144.144C92.314 144.144 91.594 143.876 90.986 143.34ZM94.658 142.668C95.058 142.284 95.258 141.768 95.258 141.12C95.258 140.472 95.058 139.96 94.658 139.584C94.258 139.2 93.754 139.008 93.146 139.008C92.538 139.008 92.034 139.2 91.634 139.584C91.234 139.96 91.034 140.472 91.034 141.12C91.034 141.768 91.234 142.284 91.634 142.668C92.034 143.044 92.538 143.232 93.146 143.232C93.754 143.232 94.258 143.044 94.658 142.668ZM98.555 144H97.595V138.24H98.555V140.676H101.891V138.24H102.851V144H101.891V141.564H98.555V144ZM107.026 144H106.066V139.128H103.942V138.24H109.138V139.128H107.026V144ZM111.092 139.2C111.74 138.464 112.516 138.096 113.42 138.096C114.244 138.096 114.928 138.384 115.472 138.96C116.024 139.536 116.3 140.256 116.3 141.12C116.3 141.984 116.024 142.704 115.472 143.28C114.928 143.856 114.244 144.144 113.42 144.144C112.508 144.144 111.764 143.808 111.188 143.136V146.64H110.228V138.24H111.092V139.2ZM114.752 142.668C115.144 142.276 115.34 141.76 115.34 141.12C115.34 140.48 115.144 139.964 114.752 139.572C114.368 139.18 113.888 138.984 113.312 138.984C112.824 138.984 112.392 139.12 112.016 139.392C111.64 139.664 111.364 140 111.188 140.4V141.84C111.364 142.24 111.64 142.576 112.016 142.848C112.392 143.12 112.824 143.256 113.312 143.256C113.888 143.256 114.368 143.06 114.752 142.668ZM122.361 142.8C122.361 143.096 122.509 143.244 122.805 143.244C122.933 143.244 123.081 143.216 123.249 143.16V143.94C123.009 144.028 122.769 144.072 122.529 144.072C121.977 144.072 121.625 143.84 121.473 143.376C120.857 143.888 120.109 144.144 119.229 144.144C118.669 144.144 118.189 143.996 117.789 143.7C117.397 143.396 117.201 142.96 117.201 142.392C117.201 141.712 117.453 141.22 117.957 140.916C118.469 140.604 119.085 140.448 119.805 140.448C120.333 140.448 120.865 140.508 121.401 140.628V140.424C121.401 139.984 121.257 139.636 120.969 139.38C120.681 139.116 120.277 138.984 119.757 138.984C119.029 138.984 118.329 139.128 117.657 139.416V138.48C118.409 138.224 119.141 138.096 119.853 138.096C120.637 138.096 121.249 138.308 121.689 138.732C122.137 139.148 122.361 139.752 122.361 140.544V142.8ZM118.185 142.344C118.185 142.664 118.305 142.908 118.545 143.076C118.793 143.236 119.089 143.316 119.433 143.316C120.225 143.316 120.881 143.036 121.401 142.476V141.42C120.857 141.308 120.369 141.252 119.937 141.252C119.449 141.252 119.033 141.34 118.689 141.516C118.353 141.684 118.185 141.96 118.185 142.344ZM125.239 144H124.279V138.24H128.491V139.128H125.239V144ZM128.98 141.12C128.98 140.176 129.268 139.436 129.844 138.9C130.428 138.364 131.096 138.096 131.848 138.096C132.552 138.096 133.132 138.272 133.588 138.624C134.052 138.976 134.356 139.412 134.5 139.932C134.644 140.444 134.652 140.98 134.524 141.54H129.94C129.996 142.108 130.248 142.536 130.696 142.824C131.144 143.112 131.684 143.256 132.316 143.256C133.02 143.256 133.652 143.1 134.212 142.788V143.724C133.676 144.004 132.996 144.144 132.172 144.144C131.26 144.144 130.5 143.884 129.892 143.364C129.284 142.844 128.98 142.096 128.98 141.12ZM133.672 140.7C133.696 140.532 133.684 140.356 133.636 140.172C133.588 139.988 133.5 139.804 133.372 139.62C133.252 139.436 133.064 139.284 132.808 139.164C132.552 139.044 132.252 138.984 131.908 138.984C131.388 138.984 130.936 139.136 130.552 139.44C130.176 139.744 129.972 140.164 129.94 140.7H133.672ZM136.887 144H135.927V138.24H136.887V140.676H140.223V138.24H141.183V144H140.223V141.564H136.887V144ZM145.358 144H144.398V139.128H142.274V138.24H147.47V139.128H145.358V144Z" fill="#454545"/>
<path fill-rule="evenodd" clip-rule="evenodd" d="M170 138H161V137H170V138Z" fill="#E6E6E6"/>
<path fill-rule="evenodd" clip-rule="evenodd" d="M170 141H161V140H170V141Z" fill="#E6E6E6"/>
<path fill-rule="evenodd" clip-rule="evenodd" d="M170 144H161V143H170V144Z" fill="#E6E6E6"/>
<path d="M82.816 170.396C82.632 169.884 82.54 169.352 82.54 168.8C82.54 168.248 82.632 167.716 82.816 167.204C83.008 166.692 83.28 166.232 83.632 165.824C83.984 165.408 84.444 165.076 85.012 164.828C85.58 164.58 86.22 164.456 86.932 164.456C87.644 164.456 88.284 164.58 88.852 164.828C89.42 165.076 89.88 165.408 90.232 165.824C90.584 166.232 90.852 166.692 91.036 167.204C91.228 167.716 91.324 168.248 91.324 168.8C91.324 169.352 91.228 169.884 91.036 170.396C90.852 170.908 90.584 171.372 90.232 171.788C89.88 172.196 89.42 172.524 88.852 172.772C88.284 173.02 87.644 173.144 86.932 173.144C86.22 173.144 85.58 173.02 85.012 172.772C84.444 172.524 83.984 172.196 83.632 171.788C83.28 171.372 83.008 170.908 82.816 170.396ZM90.088 170.06C90.232 169.66 90.304 169.24 90.304 168.8C90.304 168.36 90.232 167.94 90.088 167.54C89.952 167.14 89.748 166.78 89.476 166.46C89.212 166.14 88.86 165.888 88.42 165.704C87.98 165.512 87.484 165.416 86.932 165.416C86.38 165.416 85.884 165.512 85.444 165.704C85.004 165.888 84.648 166.14 84.376 166.46C84.112 166.78 83.908 167.14 83.764 167.54C83.628 167.94 83.56 168.36 83.56 168.8C83.56 169.24 83.628 169.66 83.764 170.06C83.908 170.46 84.112 170.82 84.376 171.14C84.648 171.46 85.004 171.716 85.444 171.908C85.884 172.092 86.38 172.184 86.932 172.184C87.484 172.184 87.98 172.092 88.42 171.908C88.86 171.716 89.212 171.46 89.476 171.14C89.748 170.82 89.952 170.46 90.088 170.06ZM95.1552 173H94.1952V168.128H92.0712V167.24H97.2672V168.128H95.1552V173ZM102.665 171.452C102.665 171.988 102.433 172.404 101.969 172.7C101.513 172.996 100.881 173.144 100.073 173.144C99.2648 173.144 98.5568 172.996 97.9488 172.7V171.788C98.5328 172.1 99.2008 172.256 99.9528 172.256C101.121 172.256 101.705 171.952 101.705 171.344C101.705 170.792 101.281 170.516 100.433 170.516H99.1728V169.628H100.433C101.201 169.628 101.585 169.38 101.585 168.884C101.585 168.58 101.441 168.352 101.153 168.2C100.865 168.048 100.481 167.972 100.001 167.972C99.3048 167.972 98.6528 168.124 98.0448 168.428V167.528C98.6928 167.232 99.3808 167.084 100.109 167.084C100.893 167.084 101.493 167.236 101.909 167.54C102.333 167.836 102.545 168.24 102.545 168.752C102.545 169.096 102.449 169.38 102.257 169.604C102.065 169.828 101.805 169.976 101.477 170.048C101.821 170.136 102.105 170.304 102.329 170.552C102.553 170.8 102.665 171.1 102.665 171.452ZM106.812 173H104.076V167.24H105.036V169.256H106.812C107.5 169.256 108.044 169.432 108.444 169.784C108.844 170.136 109.044 170.584 109.044 171.128C109.044 171.672 108.844 172.12 108.444 172.472C108.044 172.824 107.5 173 106.812 173ZM105.036 170.12V172.136H106.692C107.124 172.136 107.46 172.052 107.7 171.884C107.948 171.716 108.072 171.464 108.072 171.128C108.072 170.792 107.948 170.54 107.7 170.372C107.46 170.204 107.124 170.12 106.692 170.12H105.036ZM111.12 173H110.16V167.24H111.12V173ZM116.152 173H112.9V167.24H116.056C116.576 167.24 117 167.376 117.328 167.648C117.664 167.92 117.832 168.304 117.832 168.8C117.832 169.088 117.76 169.348 117.616 169.58C117.472 169.812 117.288 169.976 117.064 170.072C117.328 170.16 117.552 170.32 117.736 170.552C117.92 170.784 118.012 171.068 118.012 171.404C118.012 171.892 117.852 172.28 117.532 172.568C117.22 172.856 116.76 173 116.152 173ZM113.86 170.504V172.16H116.02C116.708 172.16 117.052 171.888 117.052 171.344C117.052 170.784 116.72 170.504 116.056 170.504H113.86ZM113.86 168.08V169.676H115.96C116.56 169.676 116.86 169.416 116.86 168.896C116.86 168.6 116.772 168.392 116.596 168.272C116.42 168.144 116.208 168.08 115.96 168.08H113.86ZM122.21 173H119.474V167.24H120.434V169.256H122.21C122.898 169.256 123.442 169.432 123.842 169.784C124.242 170.136 124.442 170.584 124.442 171.128C124.442 171.672 124.242 172.12 123.842 172.472C123.442 172.824 122.898 173 122.21 173ZM120.434 170.12V172.136H122.09C122.522 172.136 122.858 172.052 123.098 171.884C123.346 171.716 123.47 171.464 123.47 171.128C123.47 170.792 123.346 170.54 123.098 170.372C122.858 170.204 122.522 170.12 122.09 170.12H120.434ZM126.518 173H125.558V167.24H126.518V173Z" fill="#454545"/>
<path d="M153 165H148.415L151.415 168L148.415 171H153V172H147V171L150 168L147 165V164H153V165Z" fill="#8E8E8E"/>
<path d="M153 195H148.415L151.415 198L148.415 201H153V202H147V201L150 198L147 195V194H153V195Z" fill="#8E8E8E"/>
<path d="M153 224H148.415L151.415 227L148.415 230H153V231H147V230L150 227L147 224V223H153V224Z" fill="#8E8E8E"/>
<path d="M153 253H148.415L151.415 256L148.415 259H153V260H147V259L150 256L147 253V252H153V253Z" fill="#8E8E8E"/>
<path fill-rule="evenodd" clip-rule="evenodd" d="M170 166H161V165H170V166Z" fill="#E6E6E6"/>
<path fill-rule="evenodd" clip-rule="evenodd" d="M170 169H161V168H170V169Z" fill="#E6E6E6"/>
<path fill-rule="evenodd" clip-rule="evenodd" d="M170 172H161V171H170V172Z" fill="#E6E6E6"/>
<path fill-rule="evenodd" clip-rule="evenodd" d="M170 196H161V195H170V196Z" fill="#E6E6E6"/>
<path fill-rule="evenodd" clip-rule="evenodd" d="M170 199H161V198H170V199Z" fill="#E6E6E6"/>
<path fill-rule="evenodd" clip-rule="evenodd" d="M170 202H161V201H170V202Z" fill="#E6E6E6"/>
<path fill-rule="evenodd" clip-rule="evenodd" d="M170 225H161V224H170V225Z" fill="#E6E6E6"/>
<path fill-rule="evenodd" clip-rule="evenodd" d="M170 228H161V227H170V228Z" fill="#E6E6E6"/>
<path fill-rule="evenodd" clip-rule="evenodd" d="M170 231H161V230H170V231Z" fill="#E6E6E6"/>
<path fill-rule="evenodd" clip-rule="evenodd" d="M170 254H161V253H170V254Z" fill="#E6E6E6"/>
<path fill-rule="evenodd" clip-rule="evenodd" d="M170 257H161V256H170V257Z" fill="#E6E6E6"/>
<path fill-rule="evenodd" clip-rule="evenodd" d="M170 260H161V259H170V260Z" fill="#E6E6E6"/>
<path d="M84.112 201H83.104V192.6H89.956V201H88.948V193.56H84.112V201ZM92.3337 200.34C91.7257 199.796 91.4217 199.056 91.4217 198.12C91.4217 197.184 91.7257 196.448 92.3337 195.912C92.9417 195.368 93.6617 195.096 94.4937 195.096C95.3337 195.096 96.0537 195.368 96.6537 195.912C97.2617 196.448 97.5657 197.184 97.5657 198.12C97.5657 199.056 97.2617 199.796 96.6537 200.34C96.0537 200.876 95.3337 201.144 94.4937 201.144C93.6617 201.144 92.9417 200.876 92.3337 200.34ZM96.0057 199.668C96.4057 199.284 96.6057 198.768 96.6057 198.12C96.6057 197.472 96.4057 196.96 96.0057 196.584C95.6057 196.2 95.1017 196.008 94.4937 196.008C93.8857 196.008 93.3817 196.2 92.9817 196.584C92.5817 196.96 92.3817 197.472 92.3817 198.12C92.3817 198.768 92.5817 199.284 92.9817 199.668C93.3817 200.044 93.8857 200.232 94.4937 200.232C95.1017 200.232 95.6057 200.044 96.0057 199.668ZM103.157 199.452C103.157 199.988 102.925 200.404 102.461 200.7C102.005 200.996 101.373 201.144 100.565 201.144C99.7569 201.144 99.0489 200.996 98.4409 200.7V199.788C99.0249 200.1 99.6929 200.256 100.445 200.256C101.613 200.256 102.197 199.952 102.197 199.344C102.197 198.792 101.773 198.516 100.925 198.516H99.6649V197.628H100.925C101.693 197.628 102.077 197.38 102.077 196.884C102.077 196.58 101.933 196.352 101.645 196.2C101.357 196.048 100.973 195.972 100.493 195.972C99.7969 195.972 99.1449 196.124 98.5369 196.428V195.528C99.1849 195.232 99.8729 195.084 100.601 195.084C101.385 195.084 101.985 195.236 102.401 195.54C102.825 195.836 103.037 196.24 103.037 196.752C103.037 197.096 102.941 197.38 102.749 197.604C102.557 197.828 102.297 197.976 101.969 198.048C102.313 198.136 102.597 198.304 102.821 198.552C103.045 198.8 103.157 199.1 103.157 199.452ZM105.384 201H104.568V195.24H105.528V199.452L109.056 195.24H109.872V201H108.912V196.788L105.384 201ZM117.574 202.56H116.638V201H111.646V195.24H112.606V200.112H115.762V195.24H116.722V200.112H117.574V202.56ZM119.669 201H118.853V195.24H119.813V199.452L123.341 195.24H124.157V201H123.197V196.788L119.669 201ZM126.507 201H125.379L127.047 198.888C126.607 198.76 126.267 198.536 126.027 198.216C125.787 197.896 125.667 197.528 125.667 197.112C125.667 196.584 125.859 196.14 126.243 195.78C126.627 195.42 127.155 195.24 127.827 195.24H130.659V201H129.699V198.984H128.079L126.507 201ZM126.963 196.368C126.739 196.544 126.627 196.792 126.627 197.112C126.627 197.432 126.739 197.68 126.963 197.856C127.195 198.032 127.511 198.12 127.911 198.12H129.699V196.104H127.911C127.511 196.104 127.195 196.192 126.963 196.368Z" fill="#454545"/>
<path d="M83.104 221.6H85.972C88.348 221.6 89.536 222.504 89.536 224.312C89.536 226.12 88.348 227.024 85.972 227.024H84.112V230H83.104V221.6ZM88.516 224.312C88.516 223.968 88.452 223.68 88.324 223.448C88.196 223.208 88.012 223.028 87.772 222.908C87.54 222.78 87.284 222.692 87.004 222.644C86.724 222.588 86.396 222.56 86.02 222.56H84.112V226.064H86.02C86.796 226.064 87.404 225.936 87.844 225.68C88.292 225.424 88.516 224.968 88.516 224.312ZM90.1326 227.12C90.1326 226.176 90.4206 225.436 90.9966 224.9C91.5806 224.364 92.2486 224.096 93.0006 224.096C93.7046 224.096 94.2846 224.272 94.7406 224.624C95.2046 224.976 95.5086 225.412 95.6526 225.932C95.7966 226.444 95.8046 226.98 95.6766 227.54H91.0926C91.1486 228.108 91.4006 228.536 91.8486 228.824C92.2966 229.112 92.8366 229.256 93.4686 229.256C94.1726 229.256 94.8046 229.1 95.3646 228.788V229.724C94.8286 230.004 94.1486 230.144 93.3246 230.144C92.4126 230.144 91.6526 229.884 91.0446 229.364C90.4366 228.844 90.1326 228.096 90.1326 227.12ZM94.8246 226.7C94.8486 226.532 94.8366 226.356 94.7886 226.172C94.7406 225.988 94.6526 225.804 94.5246 225.62C94.4046 225.436 94.2166 225.284 93.9606 225.164C93.7046 225.044 93.4046 224.984 93.0606 224.984C92.5406 224.984 92.0886 225.136 91.7046 225.44C91.3286 225.744 91.1246 226.164 91.0926 226.7H94.8246ZM101.411 222.848C100.939 223.184 100.379 223.352 99.7314 223.352C99.0834 223.352 98.5234 223.184 98.0514 222.848V221.984C98.5874 222.336 99.1474 222.512 99.7314 222.512C100.315 222.512 100.875 222.336 101.411 221.984V222.848ZM97.8954 230H97.0794V224.24H98.0394V228.452L101.567 224.24H102.383V230H101.423V225.788L97.8954 230ZM106.558 230H105.598V225.128H103.474V224.24H108.67V225.128H106.558V230ZM110.575 230H109.759V224.24H110.719V228.452L114.247 224.24H115.063V230H114.103V225.788L110.575 230ZM117.797 230H116.837V224.24H117.797V226.676H121.133V224.24H122.093V230H121.133V227.564H117.797V230ZM124.828 230H123.868V224.24H128.08V225.128H124.828V230Z" fill="#454545"/>
<path d="M91.024 260.98H90.064L90.076 259H83.104V250.6H84.112V258.04H88.972V250.6H89.98V258.04H91.024V260.98ZM91.7147 256.12C91.7147 255.176 92.0027 254.436 92.5787 253.9C93.1627 253.364 93.8307 253.096 94.5827 253.096C95.2867 253.096 95.8667 253.272 96.3227 253.624C96.7867 253.976 97.0907 254.412 97.2347 254.932C97.3787 255.444 97.3867 255.98 97.2587 256.54H92.6747C92.7307 257.108 92.9827 257.536 93.4307 257.824C93.8787 258.112 94.4187 258.256 95.0507 258.256C95.7547 258.256 96.3867 258.1 96.9467 257.788V258.724C96.4107 259.004 95.7307 259.144 94.9067 259.144C93.9947 259.144 93.2347 258.884 92.6267 258.364C92.0187 257.844 91.7147 257.096 91.7147 256.12ZM96.4067 255.7C96.4307 255.532 96.4187 255.356 96.3707 255.172C96.3227 254.988 96.2347 254.804 96.1067 254.62C95.9867 254.436 95.7987 254.284 95.5427 254.164C95.2867 254.044 94.9867 253.984 94.6427 253.984C94.1227 253.984 93.6707 254.136 93.2867 254.44C92.9107 254.744 92.7067 255.164 92.6747 255.7H96.4067ZM99.6214 259H98.6614V253.24H99.6214V255.676H102.957V253.24H103.917V259H102.957V256.564H99.6214V259ZM110.373 257.8C110.373 258.096 110.521 258.244 110.817 258.244C110.945 258.244 111.093 258.216 111.261 258.16V258.94C111.021 259.028 110.781 259.072 110.541 259.072C109.989 259.072 109.637 258.84 109.485 258.376C108.869 258.888 108.121 259.144 107.241 259.144C106.681 259.144 106.201 258.996 105.801 258.7C105.409 258.396 105.213 257.96 105.213 257.392C105.213 256.712 105.465 256.22 105.969 255.916C106.481 255.604 107.097 255.448 107.817 255.448C108.345 255.448 108.877 255.508 109.413 255.628V255.424C109.413 254.984 109.269 254.636 108.981 254.38C108.693 254.116 108.289 253.984 107.769 253.984C107.041 253.984 106.341 254.128 105.669 254.416V253.48C106.421 253.224 107.153 253.096 107.865 253.096C108.649 253.096 109.261 253.308 109.701 253.732C110.149 254.148 110.373 254.752 110.373 255.544V257.8ZM106.197 257.344C106.197 257.664 106.317 257.908 106.557 258.076C106.805 258.236 107.101 258.316 107.445 258.316C108.237 258.316 108.893 258.036 109.413 257.476V256.42C108.869 256.308 108.381 256.252 107.949 256.252C107.461 256.252 107.045 256.34 106.701 256.516C106.365 256.684 106.197 256.96 106.197 257.344Z" fill="#454545"/>
<rect x="60" y="249" width="13" height="13" rx="3" fill="#454545"/>
<path d="M64 255.5L66 257.5L69.5 254" stroke="white" stroke-linecap="round" stroke-linejoin="round"/>
<rect x="60.5" y="162.5" width="12" height="12" rx="2.5" stroke="#E6E6E6"/>
<path d="M64 168.5L66 170.5L69.5 167" stroke="white" stroke-linecap="round" stroke-linejoin="round"/>
<rect x="60.5" y="133.5" width="12" height="12" rx="2.5" stroke="#E6E6E6"/>
<path d="M64 139.5L66 141.5L69.5 138" stroke="white" stroke-linecap="round" stroke-linejoin="round"/>
<rect x="60.5" y="191.5" width="12" height="12" rx="2.5" stroke="#E6E6E6"/>
<path d="M64 197.5L66 199.5L69.5 196" stroke="white" stroke-linecap="round" stroke-linejoin="round"/>
<rect x="60.5" y="220.5" width="12" height="12" rx="2.5" stroke="#E6E6E6"/>
<path d="M64 226.5L66 228.5L69.5 225" stroke="white" stroke-linecap="round" stroke-linejoin="round"/>
<line x1="350" y1="153.5" x2="480" y2="153.5" stroke="#E6E6E6"/>
<line x1="200" y1="262.5" x2="330" y2="262.5" stroke="#E6E6E6"/>
<line x1="350" y1="262.5" x2="480" y2="262.5" stroke="#E6E6E6"/>
<path fill-rule="evenodd" clip-rule="evenodd" d="M469 137H460V136H469V137Z" fill="#E6E6E6"/>
<path fill-rule="evenodd" clip-rule="evenodd" d="M469 140H460V139H469V140Z" fill="#E6E6E6"/>
<path fill-rule="evenodd" clip-rule="evenodd" d="M469 143H460V142H469V143Z" fill="#E6E6E6"/>
<path fill-rule="evenodd" clip-rule="evenodd" d="M319 246H310V245H319V246Z" fill="#E6E6E6"/>
<path fill-rule="evenodd" clip-rule="evenodd" d="M319 249H310V248H319V249Z" fill="#E6E6E6"/>
<path fill-rule="evenodd" clip-rule="evenodd" d="M319 252H310V251H319V252Z" fill="#E6E6E6"/>
<path fill-rule="evenodd" clip-rule="evenodd" d="M469 246H460V245H469V246Z" fill="#E6E6E6"/>
<path fill-rule="evenodd" clip-rule="evenodd" d="M469 249H460V248H469V249Z" fill="#E6E6E6"/>
<path fill-rule="evenodd" clip-rule="evenodd" d="M469 252H460V251H469V252Z" fill="#E6E6E6"/>
<rect x="351" y="262" width="128" height="2" fill="#454545"/>
<rect x="355.5" y="269.5" width="127" height="25" rx="1.5" fill="white" stroke="#E6E6E6"/>
<path d="M372.316 277.6H373.984V286H372.184V280.828L369.964 284.2H368.92L366.7 280.816V286H364.9V277.6H366.568L369.448 281.968L372.316 277.6ZM380.649 284.512C380.649 284.768 380.785 284.896 381.057 284.896C381.169 284.896 381.273 284.88 381.369 284.848V285.94C381.065 286.052 380.757 286.108 380.445 286.108C379.837 286.108 379.413 285.892 379.173 285.46C378.573 285.932 377.881 286.168 377.097 286.168C376.529 286.168 376.049 286.012 375.657 285.7C375.273 285.38 375.081 284.948 375.081 284.404C375.081 283.948 375.217 283.568 375.489 283.264C375.761 282.96 376.077 282.756 376.437 282.652C376.797 282.54 377.189 282.484 377.613 282.484C378.085 282.484 378.541 282.536 378.981 282.64V282.436C378.981 282.14 378.865 281.904 378.633 281.728C378.401 281.552 378.065 281.464 377.625 281.464C376.985 281.464 376.305 281.608 375.585 281.896V280.456C376.353 280.2 377.097 280.072 377.817 280.072C379.705 280.072 380.649 280.94 380.649 282.676V284.512ZM377.997 283.48C377.653 283.48 377.365 283.544 377.133 283.672C376.901 283.8 376.785 284 376.785 284.272C376.785 284.48 376.869 284.652 377.037 284.788C377.213 284.916 377.429 284.98 377.685 284.98C378.189 284.98 378.621 284.824 378.981 284.512V283.612C378.613 283.524 378.285 283.48 377.997 283.48ZM385.793 280.24H387.677L385.601 283.096L387.797 286H385.913L384.641 284.236L383.357 286H381.473L383.669 283.096L381.581 280.24H383.465L384.641 281.968L385.793 280.24ZM390.033 284.44C390.225 284.608 390.321 284.852 390.321 285.172C390.321 285.492 390.225 285.736 390.033 285.904C389.841 286.072 389.601 286.156 389.312 286.156C389.025 286.156 388.781 286.072 388.581 285.904C388.389 285.736 388.293 285.492 388.293 285.172C388.293 284.852 388.389 284.608 388.581 284.44C388.781 284.272 389.025 284.188 389.312 284.188C389.601 284.188 389.841 284.272 390.033 284.44ZM400.089 287.824H398.505V286H391.701V277.6H393.501V284.38H397.221V277.6H399.021V284.38H400.089V287.824ZM400.689 283.12C400.689 282.6 400.781 282.14 400.965 281.74C401.149 281.332 401.389 281.012 401.685 280.78C401.989 280.548 402.305 280.372 402.633 280.252C402.969 280.132 403.309 280.072 403.653 280.072C404.229 280.072 404.725 280.18 405.141 280.396C405.565 280.612 405.877 280.892 406.077 281.236C406.277 281.572 406.413 281.956 406.485 282.388C406.565 282.812 406.545 283.236 406.425 283.66H402.369C402.457 284.06 402.689 284.36 403.065 284.56C403.441 284.752 403.885 284.848 404.397 284.848C405.029 284.848 405.609 284.732 406.137 284.5V285.808C405.569 286.048 404.865 286.168 404.025 286.168C403.065 286.168 402.269 285.9 401.637 285.364C401.005 284.828 400.689 284.08 400.689 283.12ZM404.925 282.58C404.965 282.316 404.889 282.044 404.697 281.764C404.505 281.484 404.177 281.344 403.713 281.344C403.345 281.344 403.029 281.456 402.765 281.68C402.501 281.896 402.365 282.196 402.357 282.58H404.925ZM409.22 286H407.552V280.24H409.22V282.424H411.548V280.24H413.216V286H411.548V283.816H409.22V286ZM419.778 284.512C419.778 284.768 419.914 284.896 420.186 284.896C420.298 284.896 420.402 284.88 420.498 284.848V285.94C420.194 286.052 419.886 286.108 419.574 286.108C418.966 286.108 418.542 285.892 418.302 285.46C417.702 285.932 417.01 286.168 416.226 286.168C415.658 286.168 415.178 286.012 414.786 285.7C414.402 285.38 414.21 284.948 414.21 284.404C414.21 283.948 414.346 283.568 414.618 283.264C414.89 282.96 415.206 282.756 415.566 282.652C415.926 282.54 416.318 282.484 416.742 282.484C417.214 282.484 417.67 282.536 418.11 282.64V282.436C418.11 282.14 417.994 281.904 417.762 281.728C417.53 281.552 417.194 281.464 416.754 281.464C416.114 281.464 415.434 281.608 414.714 281.896V280.456C415.482 280.2 416.226 280.072 416.946 280.072C418.834 280.072 419.778 280.94 419.778 282.676V284.512ZM417.126 283.48C416.782 283.48 416.494 283.544 416.262 283.672C416.03 283.8 415.914 284 415.914 284.272C415.914 284.48 415.998 284.652 416.166 284.788C416.342 284.916 416.558 284.98 416.814 284.98C417.318 284.98 417.75 284.824 418.11 284.512V283.612C417.742 283.524 417.414 283.48 417.126 283.48Z" fill="#454545"/>
<path fill-rule="evenodd" clip-rule="evenodd" d="M461.851 284L459 282L461.851 280V281.654H468.149V280L471 282L468.149 284V282.346H461.851V284Z" fill="white"/>
<path fill-rule="evenodd" clip-rule="evenodd" d="M467 285.149L465 288L463 285.149L464.654 285.149L464.654 278.851L463 278.851L465 276L467 278.851L465.346 278.851L465.346 285.149L467 285.149Z" fill="white"/>
<path d="M461.996 291.309L460.246 293.059C460.075 293.23 459.799 293.23 459.627 293.059C459.456 292.888 459.456 292.612 459.627 292.44L460.631 291.437H456.437V295.631L457.44 294.628C457.611 294.457 457.888 294.457 458.059 294.628C458.23 294.799 458.23 295.076 458.059 295.247L456.309 296.997C456.143 297.162 455.865 297.172 455.69 296.997L453.94 295.247C453.768 295.076 453.768 294.799 453.94 294.628C454.111 294.457 454.387 294.457 454.558 294.628L455.562 295.631V291.437H451.368L452.371 292.44C452.542 292.612 452.542 292.888 452.371 293.059C452.2 293.23 451.924 293.23 451.752 293.059L450.002 291.309C449.833 291.14 449.832 290.861 450.002 290.69L451.752 288.94C451.924 288.769 452.2 288.769 452.371 288.94C452.542 289.111 452.542 289.388 452.371 289.559L451.368 290.562H455.562V286.368L454.559 287.372C454.388 287.543 454.111 287.543 453.94 287.372C453.769 287.201 453.769 286.924 453.94 286.753L455.69 285.003C455.859 284.834 456.138 284.832 456.309 285.003L458.059 286.753C458.23 286.924 458.23 287.201 458.059 287.372C457.973 287.457 457.861 287.5 457.749 287.5C457.637 287.5 457.525 287.457 457.44 287.372L456.437 286.368V290.562H460.631L459.627 289.559C459.456 289.388 459.456 289.112 459.627 288.94C459.799 288.769 460.075 288.769 460.246 288.94L461.996 290.69C462.167 290.861 462.165 291.14 461.996 291.309Z" fill="#454545"/>
<path d="M392.5 54C392.5 52.6193 393.619 51.5 395 51.5H477C478.381 51.5 479.5 52.6193 479.5 54V76C479.5 77.3807 478.381 78.5 477 78.5H395C393.619 78.5 392.5 77.3807 392.5 76V54Z" stroke="#E6E6E6"/>
<path d="M404.649 66.657C404.48 66.1803 404.396 65.678 404.396 65.15C404.396 64.622 404.48 64.1197 404.649 63.643C404.825 63.1663 405.078 62.741 405.408 62.367C405.745 61.993 406.178 61.696 406.706 61.476C407.234 61.256 407.828 61.146 408.488 61.146C409.148 61.146 409.742 61.256 410.27 61.476C410.798 61.696 411.227 61.993 411.557 62.367C411.894 62.741 412.147 63.1663 412.316 63.643C412.492 64.1197 412.58 64.622 412.58 65.15C412.58 65.678 412.492 66.1803 412.316 66.657C412.147 67.1337 411.894 67.559 411.557 67.933C411.227 68.307 410.798 68.604 410.27 68.824C409.742 69.044 409.148 69.154 408.488 69.154C407.828 69.154 407.234 69.044 406.706 68.824C406.178 68.604 405.745 68.307 405.408 67.933C405.078 67.559 404.825 67.1337 404.649 66.657ZM410.259 66.921C410.677 66.4517 410.886 65.8613 410.886 65.15C410.886 64.4387 410.677 63.8483 410.259 63.379C409.841 62.9097 409.251 62.675 408.488 62.675C407.718 62.675 407.124 62.9097 406.706 63.379C406.288 63.8483 406.079 64.4387 406.079 65.15C406.079 65.8613 406.288 66.4517 406.706 66.921C407.124 67.3903 407.718 67.625 408.488 67.625C409.251 67.625 409.841 67.3903 410.259 66.921ZM412.876 61.3H419.245V62.785H416.88V69H415.241V62.785H412.876V61.3ZM427.017 61.3H428.546V69H426.896V64.259L424.861 67.35H423.904L421.869 64.248V69H420.219V61.3H421.748L424.388 65.304L427.017 61.3ZM430.198 61.3H435.621V62.752H431.848V64.391H435.291V65.832H431.848V67.548H435.687V69H430.198V61.3ZM442.091 61.3H443.741V69H442.091V65.898H438.637V69H436.987V61.3H438.637V64.402H442.091V61.3ZM452.142 69H450.492V65.029C450.492 64.6403 450.503 64.2883 450.525 63.973L446.939 69H445.388V61.3H447.038V65.271C447.038 65.6597 447.027 66.0117 447.005 66.327L450.591 61.3H452.142V69ZM453.106 61.3H459.475V62.785H457.11V69H455.471V62.785H453.106V61.3ZM463.352 69H460.448V61.3H462.098V63.83H463.352C465.567 63.8447 466.674 64.7063 466.674 66.415C466.674 68.1383 465.567 69 463.352 69ZM462.098 65.282V67.548H463.429C464.47 67.548 464.991 67.1703 464.991 66.415C464.991 65.6597 464.47 65.282 463.429 65.282H462.098Z" fill="#454545"/>
<path d="M150.5 54C150.5 52.6193 151.619 51.5 153 51.5H276C277.381 51.5 278.5 52.6193 278.5 54V76C278.5 77.3807 277.381 78.5 276 78.5H153C151.619 78.5 150.5 77.3807 150.5 76V54Z" stroke="#E6E6E6"/>
<path d="M161.287 71.145H160.247V67.96H161.352C162.34 66.1747 162.834 63.488 162.834 59.9H168.424V67.96H169.568V71.145H168.528V69H161.287V71.145ZM163.952 60.94C163.761 64.1813 163.302 66.5213 162.574 67.96H167.332V60.94H163.952ZM171.296 68.285C170.638 67.6957 170.308 66.894 170.308 65.88C170.308 64.866 170.638 64.0687 171.296 63.488C171.955 62.8987 172.735 62.604 173.636 62.604C174.546 62.604 175.326 62.8987 175.976 63.488C176.635 64.0687 176.964 64.866 176.964 65.88C176.964 66.894 176.635 67.6957 175.976 68.285C175.326 68.8657 174.546 69.156 173.636 69.156C172.735 69.156 171.955 68.8657 171.296 68.285ZM175.274 67.557C175.708 67.141 175.924 66.582 175.924 65.88C175.924 65.178 175.708 64.6233 175.274 64.216C174.841 63.8 174.295 63.592 173.636 63.592C172.978 63.592 172.432 63.8 171.998 64.216C171.565 64.6233 171.348 65.178 171.348 65.88C171.348 66.582 171.565 67.141 171.998 67.557C172.432 67.9643 172.978 68.168 173.636 68.168C174.295 68.168 174.841 67.9643 175.274 67.557ZM184.553 66.062C184.553 67.024 184.258 67.7823 183.669 68.337C183.088 68.883 182.321 69.156 181.368 69.156C180.397 69.156 179.613 68.8353 179.015 68.194C178.426 67.5527 178.131 66.6557 178.131 65.503C178.131 64.4977 178.304 63.631 178.651 62.903C178.998 62.175 179.466 61.629 180.055 61.265C180.454 61.0223 180.865 60.8317 181.29 60.693C181.723 60.5457 182.079 60.4547 182.356 60.42C182.642 60.3853 182.937 60.316 183.24 60.212C183.543 60.0993 183.795 59.9433 183.994 59.744V60.836C183.751 61.0093 183.452 61.1393 183.097 61.226C182.742 61.304 182.347 61.3993 181.914 61.512C181.481 61.6247 181.065 61.798 180.666 62.032C180.276 62.266 179.973 62.5607 179.756 62.916C179.539 63.2713 179.349 63.696 179.184 64.19C179.409 63.8433 179.73 63.5617 180.146 63.345C180.562 63.1283 181.008 63.02 181.485 63.02C182.326 63.02 183.045 63.3017 183.643 63.865C184.25 64.4283 184.553 65.1607 184.553 66.062ZM179.171 66.088C179.171 66.686 179.37 67.1843 179.769 67.583C180.168 67.973 180.692 68.168 181.342 68.168C182.009 68.168 182.538 67.973 182.928 67.583C183.318 67.193 183.513 66.6947 183.513 66.088C183.513 65.4813 183.318 64.983 182.928 64.593C182.538 64.203 182.009 64.008 181.342 64.008C180.718 64.008 180.198 64.2203 179.782 64.645C179.375 65.061 179.171 65.542 179.171 66.088ZM191.131 67.7C191.131 68.0207 191.291 68.181 191.612 68.181C191.75 68.181 191.911 68.1507 192.093 68.09V68.935C191.833 69.0303 191.573 69.078 191.313 69.078C190.715 69.078 190.333 68.8267 190.169 68.324C189.501 68.8787 188.691 69.156 187.738 69.156C187.131 69.156 186.611 68.9957 186.178 68.675C185.753 68.3457 185.541 67.8733 185.541 67.258C185.541 66.5213 185.814 65.9883 186.36 65.659C186.914 65.321 187.582 65.152 188.362 65.152C188.934 65.152 189.51 65.217 190.091 65.347V65.126C190.091 64.6493 189.935 64.2723 189.623 63.995C189.311 63.709 188.873 63.566 188.31 63.566C187.521 63.566 186.763 63.722 186.035 64.034V63.02C186.849 62.7427 187.642 62.604 188.414 62.604C189.263 62.604 189.926 62.8337 190.403 63.293C190.888 63.7437 191.131 64.398 191.131 65.256V67.7ZM186.607 67.206C186.607 67.5527 186.737 67.817 186.997 67.999C187.265 68.1723 187.586 68.259 187.959 68.259C188.817 68.259 189.527 67.9557 190.091 67.349V66.205C189.501 66.0837 188.973 66.023 188.505 66.023C187.976 66.023 187.525 66.1183 187.153 66.309C186.789 66.491 186.607 66.79 186.607 67.206ZM196.731 69H193.208V62.76H196.627C197.19 62.76 197.65 62.9073 198.005 63.202C198.369 63.4967 198.551 63.9127 198.551 64.45C198.551 64.762 198.473 65.0437 198.317 65.295C198.161 65.5463 197.962 65.724 197.719 65.828C198.005 65.9233 198.248 66.0967 198.447 66.348C198.646 66.5993 198.746 66.907 198.746 67.271C198.746 67.7997 198.573 68.22 198.226 68.532C197.888 68.844 197.39 69 196.731 69ZM194.248 66.296V68.09H196.588C197.333 68.09 197.706 67.7953 197.706 67.206C197.706 66.5993 197.346 66.296 196.627 66.296H194.248ZM194.248 63.67V65.399H196.523C197.173 65.399 197.498 65.1173 197.498 64.554C197.498 64.2333 197.403 64.008 197.212 63.878C197.021 63.7393 196.792 63.67 196.523 63.67H194.248ZM201.214 69H200.33V62.76H201.37V67.323L205.192 62.76H206.076V69H205.036V64.437L201.214 69ZM210.598 69H209.558V63.722H207.257V62.76H212.886V63.722H210.598V69ZM217.03 69H214.066V62.76H215.106V64.944H217.03C217.776 64.944 218.365 65.1347 218.798 65.516C219.232 65.8973 219.448 66.3827 219.448 66.972C219.448 67.5613 219.232 68.0467 218.798 68.428C218.365 68.8093 217.776 69 217.03 69ZM215.106 65.88V68.064H216.9C217.368 68.064 217.732 67.973 217.992 67.791C218.261 67.609 218.395 67.336 218.395 66.972C218.395 66.608 218.261 66.335 217.992 66.153C217.732 65.971 217.368 65.88 216.9 65.88H215.106ZM225.06 69H224.02V62.76H229.714V69H228.674V63.722H225.06V69ZM232.196 68.285C231.537 67.6957 231.208 66.894 231.208 65.88C231.208 64.866 231.537 64.0687 232.196 63.488C232.854 62.8987 233.634 62.604 234.536 62.604C235.446 62.604 236.226 62.8987 236.876 63.488C237.534 64.0687 237.864 64.866 237.864 65.88C237.864 66.894 237.534 67.6957 236.876 68.285C236.226 68.8657 235.446 69.156 234.536 69.156C233.634 69.156 232.854 68.8657 232.196 68.285ZM236.174 67.557C236.607 67.141 236.824 66.582 236.824 65.88C236.824 65.178 236.607 64.6233 236.174 64.216C235.74 63.8 235.194 63.592 234.536 63.592C233.877 63.592 233.331 63.8 232.898 64.216C232.464 64.6233 232.248 65.178 232.248 65.88C232.248 66.582 232.464 67.141 232.898 67.557C233.331 67.9643 233.877 68.168 234.536 68.168C235.194 68.168 235.74 67.9643 236.174 67.557ZM241.401 63.722C241.357 64.4067 241.305 65.0047 241.245 65.516C241.184 66.0273 241.097 66.5213 240.985 66.998C240.872 67.466 240.733 67.8473 240.569 68.142C240.413 68.4367 240.213 68.6707 239.971 68.844C239.728 69.0173 239.451 69.104 239.139 69.104C238.887 69.104 238.636 69.0563 238.385 68.961V68.142C238.523 68.194 238.662 68.22 238.801 68.22C239.321 68.22 239.698 67.765 239.932 66.855C240.174 65.9363 240.326 64.5713 240.387 62.76H244.976V69H243.936V63.722H241.401ZM246.468 65.88C246.468 64.8573 246.78 64.0557 247.404 63.475C248.036 62.8943 248.76 62.604 249.575 62.604C250.337 62.604 250.966 62.7947 251.46 63.176C251.962 63.5573 252.292 64.0297 252.448 64.593C252.604 65.1477 252.612 65.7283 252.474 66.335H247.508C247.568 66.9503 247.841 67.414 248.327 67.726C248.812 68.038 249.397 68.194 250.082 68.194C250.844 68.194 251.529 68.025 252.136 67.687V68.701C251.555 69.0043 250.818 69.156 249.926 69.156C248.938 69.156 248.114 68.8743 247.456 68.311C246.797 67.7477 246.468 66.9373 246.468 65.88ZM251.551 65.425C251.577 65.243 251.564 65.0523 251.512 64.853C251.46 64.6537 251.364 64.4543 251.226 64.255C251.096 64.0557 250.892 63.891 250.615 63.761C250.337 63.631 250.012 63.566 249.64 63.566C249.076 63.566 248.587 63.7307 248.171 64.06C247.763 64.3893 247.542 64.8443 247.508 65.425H251.551Z" fill="#454545"/>
<path d="M262.085 59.1665H267.918C268.227 59.1665 268.524 59.2894 268.743 59.5082C268.962 59.727 269.085 60.0238 269.085 60.3332V69.6665C269.085 69.9759 268.962 70.2727 268.743 70.4915C268.524 70.7103 268.227 70.8332 267.918 70.8332H262.085C261.775 70.8332 261.478 70.7103 261.26 70.4915C261.041 70.2727 260.918 69.9759 260.918 69.6665V60.3332C260.918 60.0238 261.041 59.727 261.26 59.5082C261.478 59.2894 261.775 59.1665 262.085 59.1665ZM262.085 60.3332V62.6665H267.918V60.3332H262.085ZM262.085 63.8332V64.9998H263.251V63.8332H262.085ZM264.418 63.8332V64.9998H265.585V63.8332H264.418ZM266.751 63.8332V64.9998H267.918V63.8332H266.751ZM262.085 66.1665V67.3332H263.251V66.1665H262.085ZM264.418 66.1665V67.3332H265.585V66.1665H264.418ZM266.751 66.1665V67.3332H267.918V66.1665H266.751ZM262.085 68.4998V69.6665H263.251V68.4998H262.085ZM264.418 68.4998V69.6665H265.585V68.4998H264.418ZM266.751 68.4998V69.6665H267.918V68.4998H266.751Z" fill="#8E8E8E"/>
<path d="M289 54C289 52.3431 290.343 51 292 51H379C380.657 51 382 52.3431 382 54V76C382 77.6569 380.657 79 379 79H292C290.343 79 289 77.6569 289 76V54Z" fill="#454545"/>
<path d="M302.475 69H300.825V61.3H307.524V69H305.885V62.785H302.475V69ZM309.172 61.3H312.076C314.29 61.3 315.398 62.1617 315.398 63.885C315.398 65.6083 314.29 66.47 312.076 66.47H310.822V69H309.172V61.3ZM312.153 65.018C313.194 65.018 313.715 64.6403 313.715 63.885C313.715 63.1297 313.194 62.752 312.153 62.752H310.822V65.018H312.153ZM323.263 69H321.613V65.029C321.613 64.6403 321.624 64.2883 321.646 63.973L318.06 69H316.509V61.3H318.159V65.271C318.159 65.6597 318.148 66.0117 318.126 66.327L321.712 61.3H323.263V69ZM331.707 61.3H333.236V69H331.586V64.259L329.551 67.35H328.594L326.559 64.248V69H324.909V61.3H326.438L329.078 65.304L331.707 61.3ZM334.888 61.3H340.311V62.752H336.538V64.391H339.981V65.832H336.538V67.548H340.377V69H334.888V61.3ZM346.782 61.3H348.432V69H346.782V65.898H343.328V69H341.678V61.3H343.328V64.402H346.782V61.3ZM356.832 69H355.182V65.029C355.182 64.6403 355.193 64.2883 355.215 63.973L351.629 69H350.078V61.3H351.728V65.271C351.728 65.6597 351.717 66.0117 351.695 66.327L355.281 61.3H356.832V69ZM357.796 61.3H364.165V62.785H361.8V69H360.161V62.785H357.796V61.3ZM368.042 69H365.138V61.3H366.788V63.83H368.042C370.257 63.8447 371.364 64.7063 371.364 66.415C371.364 68.1383 370.257 69 368.042 69ZM366.788 65.282V67.548H368.119C369.161 67.548 369.681 67.1703 369.681 66.415C369.681 65.6597 369.161 65.282 368.119 65.282H366.788Z" fill="white"/>
</svg>
