<svg width="24" height="24" viewBox="0 0 24 24" fill="none" xmlns="http://www.w3.org/2000/svg">
<path d="M16.0303 2.96967C15.7374 2.67678 15.2626 2.67678 14.9697 2.96967C14.6768 3.26256 14.6768 3.73743 14.9697 4.03033L16.1855 5.24615H10C6.27208 5.24615 3.25 8.26823 3.25 11.9962V12.9962C3.25 13.4104 3.58579 13.7462 4 13.7462C4.41421 13.7462 4.75 13.4104 4.75 12.9962V11.9962C4.75 9.09666 7.10051 6.74615 10 6.74615H16.1902L14.9697 7.9667C14.6768 8.25959 14.6768 8.73447 14.9697 9.02736C15.2626 9.32025 15.7374 9.32025 16.0303 9.02735L18.1753 6.88238C18.6634 6.39423 18.6634 5.60278 18.1753 5.11463L16.0303 2.96967Z" fill="white"/>
<path d="M13.9984 18.75C17.7263 18.75 20.7484 15.7279 20.7484 12V11C20.7484 10.5858 20.4126 10.25 19.9984 10.25C19.5842 10.25 19.2484 10.5858 19.2484 11V12C19.2484 14.8995 16.8979 17.25 13.9984 17.25H7.80816L9.02874 16.0294C9.32163 15.7365 9.32162 15.2616 9.02873 14.9687C8.73583 14.6758 8.26096 14.6758 7.96807 14.9687L5.82314 17.1137C5.33499 17.6019 5.335 18.3933 5.82314 18.8815L7.96807 21.0264C8.26096 21.3193 8.73584 21.3193 9.02873 21.0264C9.32163 20.7335 9.32163 20.2587 9.02874 19.9658L7.81298 18.75H13.9984Z" fill="white"/>
</svg>
