<svg width="74" height="45" viewBox="0 0 74 45" fill="none" xmlns="http://www.w3.org/2000/svg">
<path d="M6.83824 1.5943L8.88102 20.4981L9.22149 24.0853H1.27734L1.67455 20.4981L3.66059 1.5943L3.83082 0H6.66801L6.83824 1.5943Z" fill="#F28100"/>
<path d="M69.9945 1.5943L71.9805 20.4981L72.3777 24.0853H64.4336L64.7741 20.4981L66.8168 1.5943L66.9871 0H69.8243L69.9945 1.5943Z" fill="#F28100"/>
<path d="M73.1727 22.8897C73.1727 35.0177 57.0007 44.8682 36.9701 44.8682C16.9395 44.8682 0.824219 35.0177 0.824219 22.8897C0.824219 10.7616 17.053 0.911133 37.0268 0.911133C57.0007 0.911133 73.1727 10.7616 73.1727 22.8897Z" fill="#0FA7F0"/>
<path d="M60.6877 22.8894C60.6877 29.6082 50.0766 35.416 37.0255 35.416C23.9744 35.416 13.3633 29.6082 13.3633 22.8894C13.3633 16.1706 23.9744 10.3628 37.0255 10.3628C50.0766 10.4197 60.6877 16.2275 60.6877 22.8894Z" fill="white"/>
<path d="M45.1977 22.8897C45.1977 27.4448 41.5661 31.0889 37.0266 31.0889C32.4871 31.0889 28.8555 27.4448 28.8555 22.8897C28.8555 18.3345 32.4871 14.6904 37.0266 14.6904C41.5093 14.6904 45.1977 18.3915 45.1977 22.8897Z" fill="#37376D"/>
</svg>
