<svg width="619" height="323" fill="none" xmlns="http://www.w3.org/2000/svg"><rect width="619" height="323" rx="20" fill="#fff"/><g clip-path="url(#clip0_122_531)"><g clip-path="url(#clip1_122_531)"><path fill="#F9F9FB" d="M24 25h156.333v48H24z"/><path d="M40.68 55V43.8h1.6V55h-1.6zm7.641.096c-.853 0-1.514-.23-1.984-.688-.47-.459-.704-1.115-.704-1.968v-7.776h1.536v7.712c0 .459.112.81.336 1.056.235.245.566.368.992.368.48 0 .88-.133 1.2-.4l.48 1.104a2.227 2.227 0 01-.848.448 3.49 3.49 0 01-1.008.144zm-4.128-7.312V46.52h5.408v1.264h-5.408zm11.336 7.312c-.907 0-1.707-.187-2.4-.56a4.105 4.105 0 01-1.6-1.536c-.373-.65-.56-1.397-.56-2.24 0-.843.181-1.59.544-2.24a4 4 0 011.52-1.52c.65-.373 1.381-.56 2.192-.56.821 0 1.547.181 2.176.544.63.363 1.12.875 1.472 1.536.363.65.544 1.413.544 2.288 0 .064-.006.139-.016.224 0 .085-.006.165-.016.24h-7.216v-1.104h6.416l-.624.384c.01-.544-.102-1.03-.336-1.456a2.496 2.496 0 00-.976-.992c-.406-.245-.88-.368-1.424-.368a2.75 2.75 0 00-1.424.368 2.47 2.47 0 00-.976 1.008c-.235.427-.352.917-.352 1.472v.256c0 .565.128 1.072.384 1.52a2.77 2.77 0 001.104 1.024c.47.245 1.008.368 1.616.368.501 0 .955-.085 1.36-.256.416-.17.779-.427 1.088-.768l.848.992c-.384.448-.864.79-1.44 1.024-.566.235-1.2.352-1.904.352zm16.629-8.656c.682 0 1.285.133 1.808.4a2.79 2.79 0 011.216 1.216c.298.544.448 1.232.448 2.064V55h-1.536v-4.704c0-.821-.192-1.44-.576-1.856-.384-.416-.923-.624-1.616-.624-.512 0-.96.107-1.344.32a2.193 2.193 0 00-.896.944c-.203.416-.304.933-.304 1.552V55h-1.536v-4.704c0-.821-.192-1.44-.576-1.856-.374-.416-.912-.624-1.616-.624-.502 0-.944.107-1.328.32a2.193 2.193 0 00-.896.944c-.214.416-.32.933-.32 1.552V55H61.55v-8.48h1.472v2.256l-.24-.576a2.891 2.891 0 011.232-1.296c.554-.31 1.2-.464 1.936-.464.81 0 1.51.203 2.096.608.586.395.97.997 1.152 1.808l-.624-.256c.256-.65.704-1.173 1.344-1.568.64-.395 1.386-.592 2.24-.592zm8.73 8.656a6.979 6.979 0 01-2.016-.288c-.63-.192-1.125-.427-1.488-.704l.64-1.216c.363.245.81.453 1.344.624a5.34 5.34 0 001.632.256c.715 0 1.227-.101 1.536-.304.32-.203.48-.485.48-.848 0-.267-.096-.475-.288-.624-.192-.15-.448-.261-.768-.336-.31-.075-.656-.139-1.04-.192a21.961 21.961 0 01-1.152-.224 5.143 5.143 0 01-1.056-.384c-.32-.17-.576-.4-.768-.688-.192-.299-.288-.693-.288-1.184 0-.512.144-.96.432-1.344.288-.384.693-.677 1.216-.88.533-.213 1.163-.32 1.888-.32.555 0 1.115.07 1.68.208.576.128 1.045.315 1.408.56l-.656 1.216a3.624 3.624 0 00-1.2-.528 5.534 5.534 0 00-1.248-.144c-.672 0-1.173.112-1.504.336-.33.213-.496.49-.496.832 0 .288.096.512.288.672.203.15.459.267.768.352.32.085.672.16 1.056.224.384.053.768.128 1.152.224.384.085.73.208 1.04.368.32.16.576.384.768.672.203.288.304.672.304 1.152 0 .512-.15.955-.448 1.328-.299.373-.72.667-1.264.88-.544.203-1.195.304-1.952.304z" fill="#454545"/><path stroke="#DDDDE6" stroke-width="2" d="M24 25h156.333v48H24z"/><path fill="#F9F9FB" d="M180.333 25h156.333v48H180.333z"/><path d="M242.188 55.128a6.577 6.577 0 01-2.368-.416 5.8 5.8 0 01-1.872-1.2 5.797 5.797 0 01-1.232-1.824c-.299-.693-.448-1.456-.448-2.288 0-.832.149-1.595.448-2.288a5.498 5.498 0 011.248-1.808 5.464 5.464 0 011.872-1.2 6.36 6.36 0 012.368-.432 6.2 6.2 0 012.384.448c.736.288 1.36.72 1.872 1.296l-1.04 1.008a4.068 4.068 0 00-1.44-.992 4.375 4.375 0 00-1.712-.336 4.78 4.78 0 00-1.76.32 4.226 4.226 0 00-1.392.896 4.118 4.118 0 00-.928 1.376 4.494 4.494 0 00-.32 1.712c0 .619.107 1.195.32 1.728a4.159 4.159 0 002.32 2.256 4.78 4.78 0 001.76.32c.608 0 1.179-.107 1.712-.32a4.164 4.164 0 001.44-1.024l1.04 1.008a4.964 4.964 0 01-1.872 1.312c-.725.299-1.525.448-2.4.448zm9.603-.032c-.853 0-1.611-.187-2.272-.56A4.17 4.17 0 01247.951 53c-.384-.661-.576-1.408-.576-2.24 0-.843.192-1.59.576-2.24a4.053 4.053 0 011.568-1.52c.661-.373 1.419-.56 2.272-.56.843 0 1.595.187 2.256.56a3.91 3.91 0 011.568 1.52c.384.64.576 1.387.576 2.24 0 .843-.192 1.59-.576 2.24a4.018 4.018 0 01-1.568 1.536c-.661.373-1.413.56-2.256.56zm0-1.344a2.87 2.87 0 001.456-.368 2.597 2.597 0 001.024-1.04c.245-.459.368-.987.368-1.584 0-.608-.123-1.13-.368-1.568a2.597 2.597 0 00-1.024-1.04 2.87 2.87 0 00-1.456-.368 2.87 2.87 0 00-1.456.368 2.738 2.738 0 00-1.024 1.04c-.256.437-.384.96-.384 1.568 0 .597.128 1.125.384 1.584.256.448.597.795 1.024 1.04a2.87 2.87 0 001.456.368zM263.501 55v-1.792l-.08-.336v-3.056c0-.65-.192-1.152-.576-1.504-.373-.363-.938-.544-1.696-.544-.501 0-.992.085-1.472.256a3.69 3.69 0 00-1.216.656l-.64-1.152c.438-.352.96-.619 1.568-.8a6.496 6.496 0 011.936-.288c1.163 0 2.059.283 2.688.848.63.565.944 1.43.944 2.592V55h-1.456zm-2.784.096c-.629 0-1.184-.107-1.664-.32-.469-.213-.832-.507-1.088-.88a2.284 2.284 0 01-.384-1.296c0-.459.107-.875.32-1.248.224-.373.582-.672 1.072-.896.502-.224 1.174-.336 2.016-.336h2.688v1.104h-2.624c-.768 0-1.285.128-1.552.384-.266.256-.4.565-.4.928 0 .416.166.752.496 1.008.331.245.79.368 1.376.368.576 0 1.078-.128 1.504-.384a2.17 2.17 0 00.944-1.12l.304 1.056c-.202.501-.56.901-1.072 1.2-.512.288-1.157.432-1.936.432zm9.515 0a6.979 6.979 0 01-2.016-.288c-.63-.192-1.126-.427-1.488-.704l.64-1.216c.362.245.81.453 1.344.624a5.32 5.32 0 001.632.256c.714 0 1.226-.101 1.536-.304.32-.203.48-.485.48-.848 0-.267-.096-.475-.288-.624-.192-.15-.448-.261-.768-.336-.31-.075-.656-.139-1.04-.192a21.961 21.961 0 01-1.152-.224 5.143 5.143 0 01-1.056-.384c-.32-.17-.576-.4-.768-.688-.192-.299-.288-.693-.288-1.184 0-.512.144-.96.432-1.344.288-.384.693-.677 1.216-.88.533-.213 1.162-.32 1.888-.32.554 0 1.114.07 1.68.208.576.128 1.045.315 1.408.56l-.656 1.216a3.624 3.624 0 00-1.2-.528 5.534 5.534 0 00-1.248-.144c-.672 0-1.174.112-1.504.336-.331.213-.496.49-.496.832 0 .288.096.512.288.672.202.15.458.267.768.352.32.085.672.16 1.056.224.384.053.768.128 1.152.224.384.085.73.208 1.04.368.32.16.576.384.768.672.202.288.304.672.304 1.152 0 .512-.15.955-.448 1.328-.299.373-.72.667-1.264.88-.544.203-1.195.304-1.952.304zm8.495 0c-.853 0-1.514-.23-1.984-.688-.469-.459-.704-1.115-.704-1.968v-7.776h1.536v7.712c0 .459.112.81.336 1.056.235.245.566.368.992.368.48 0 .88-.133 1.2-.4l.48 1.104a2.22 2.22 0 01-.848.448 3.49 3.49 0 01-1.008.144zm-4.128-7.312V46.52h5.408v1.264h-5.408z" fill="#454545"/><path stroke="#DDDDE6" stroke-width="2" d="M180.333 25h156.333v48H180.333z"/><path fill="#F9F9FB" d="M336.667 25h98v48h-98z"/><path d="M359.847 55V43.8h4.368c.981 0 1.818.155 2.512.464.693.31 1.226.757 1.6 1.344.373.587.56 1.285.56 2.096 0 .81-.187 1.51-.56 2.096-.374.576-.907 1.024-1.6 1.344-.694.31-1.531.464-2.512.464h-3.488l.72-.752V55h-1.6zm1.6-3.984l-.72-.8h3.44c1.024 0 1.797-.219 2.32-.656.533-.437.8-1.056.8-1.856s-.267-1.419-.8-1.856c-.523-.437-1.296-.656-2.32-.656h-3.44l.72-.8v6.624zm9.41 3.984v-8.48h1.472v2.304l-.144-.576a2.605 2.605 0 011.184-1.344c.555-.31 1.237-.464 2.048-.464v1.488a1.162 1.162 0 00-.192-.016h-.16c-.821 0-1.472.245-1.952.736-.48.49-.72 1.2-.72 2.128V55h-1.536zm10.007.096c-.853 0-1.611-.187-2.272-.56A4.17 4.17 0 01377.024 53c-.384-.661-.576-1.408-.576-2.24 0-.843.192-1.59.576-2.24a4.053 4.053 0 011.568-1.52c.661-.373 1.419-.56 2.272-.56.843 0 1.595.187 2.256.56a3.91 3.91 0 011.568 1.52c.384.64.576 1.387.576 2.24 0 .843-.192 1.59-.576 2.24a4.018 4.018 0 01-1.568 1.536c-.661.373-1.413.56-2.256.56zm0-1.344a2.87 2.87 0 001.456-.368 2.597 2.597 0 001.024-1.04c.245-.459.368-.987.368-1.584 0-.608-.123-1.13-.368-1.568a2.597 2.597 0 00-1.024-1.04 2.87 2.87 0 00-1.456-.368 2.87 2.87 0 00-1.456.368 2.738 2.738 0 00-1.024 1.04c-.256.437-.384.96-.384 1.568 0 .597.128 1.125.384 1.584.256.448.597.795 1.024 1.04a2.87 2.87 0 001.456.368zm17.132-7.312c.683 0 1.286.133 1.808.4a2.79 2.79 0 011.216 1.216c.299.544.448 1.232.448 2.064V55h-1.536v-4.704c0-.821-.192-1.44-.576-1.856-.384-.416-.922-.624-1.616-.624-.512 0-.96.107-1.344.32a2.197 2.197 0 00-.896.944c-.202.416-.304.933-.304 1.552V55h-1.536v-4.704c0-.821-.192-1.44-.576-1.856-.373-.416-.912-.624-1.616-.624-.501 0-.944.107-1.328.32a2.197 2.197 0 00-.896.944c-.213.416-.32.933-.32 1.552V55h-1.536v-8.48h1.472v2.256l-.24-.576a2.897 2.897 0 011.232-1.296c.555-.31 1.2-.464 1.936-.464.811 0 1.51.203 2.096.608.587.395.971.997 1.152 1.808l-.624-.256c.256-.65.704-1.173 1.344-1.568.64-.395 1.387-.592 2.24-.592zm9.931 8.656c-.854 0-1.611-.187-2.272-.56A4.163 4.163 0 01404.087 53c-.384-.661-.576-1.408-.576-2.24 0-.843.192-1.59.576-2.24a4.046 4.046 0 011.568-1.52c.661-.373 1.418-.56 2.272-.56.842 0 1.594.187 2.256.56.672.363 1.194.87 1.568 1.52.384.64.576 1.387.576 2.24 0 .843-.192 1.59-.576 2.24a4.025 4.025 0 01-1.568 1.536c-.662.373-1.414.56-2.256.56zm0-1.344a2.87 2.87 0 001.456-.368 2.603 2.603 0 001.024-1.04c.245-.459.368-.987.368-1.584 0-.608-.123-1.13-.368-1.568a2.603 2.603 0 00-1.024-1.04 2.87 2.87 0 00-1.456-.368 2.87 2.87 0 00-1.456.368 2.738 2.738 0 00-1.024 1.04c-.256.437-.384.96-.384 1.568 0 .597.128 1.125.384 1.584.256.448.597.795 1.024 1.04a2.87 2.87 0 001.456.368z" fill="#454545"/><path stroke="#DDDDE6" stroke-width="2" d="M336.667 25h98v48h-98z"/><path fill="#F9F9FB" d="M434.667 25H591v48H434.667z"/><path d="M487.013 55V43.8h4.368c.982 0 1.819.155 2.512.464.694.31 1.227.757 1.6 1.344.374.587.56 1.285.56 2.096 0 .81-.186 1.51-.56 2.096-.373.576-.906 1.019-1.6 1.328-.693.31-1.53.464-2.512.464h-3.488l.72-.736V55h-1.6zm7.488 0l-2.848-4.064h1.712l2.88 4.064h-1.744zm-5.888-3.984l-.72-.784h3.44c1.024 0 1.798-.219 2.32-.656.534-.448.8-1.072.8-1.872s-.266-1.419-.8-1.856c-.522-.437-1.296-.656-2.32-.656h-3.44l.72-.8v6.624zM503.6 55v-1.792l-.08-.336v-3.056c0-.65-.192-1.152-.576-1.504-.373-.363-.938-.544-1.696-.544-.501 0-.992.085-1.472.256a3.69 3.69 0 00-1.216.656l-.64-1.152c.438-.352.96-.619 1.568-.8a6.496 6.496 0 011.936-.288c1.163 0 2.059.283 2.688.848.63.565.944 1.43.944 2.592V55H503.6zm-2.784.096c-.629 0-1.184-.107-1.664-.32-.469-.213-.832-.507-1.088-.88a2.284 2.284 0 01-.384-1.296c0-.459.107-.875.32-1.248.224-.373.582-.672 1.072-.896.502-.224 1.174-.336 2.016-.336h2.688v1.104h-2.624c-.768 0-1.285.128-1.552.384-.266.256-.4.565-.4.928 0 .416.166.752.496 1.008.331.245.79.368 1.376.368.576 0 1.078-.128 1.504-.384a2.17 2.17 0 00.944-1.12l.304 1.056c-.202.501-.56.901-1.072 1.2-.512.288-1.157.432-1.936.432zm9.995 0c-.854 0-1.515-.23-1.984-.688-.47-.459-.704-1.115-.704-1.968v-7.776h1.536v7.712c0 .459.112.81.336 1.056.234.245.565.368.992.368.48 0 .88-.133 1.2-.4l.48 1.104a2.235 2.235 0 01-.848.448 3.49 3.49 0 01-1.008.144zm-4.128-7.312V46.52h5.408v1.264h-5.408zM514.524 55v-8.48h1.536V55h-1.536zm.768-10.112a1.05 1.05 0 01-.752-.288.958.958 0 01-.288-.704c0-.288.096-.528.288-.72a1.05 1.05 0 01.752-.288c.298 0 .544.096.736.288.202.181.304.41.304.688 0 .288-.096.533-.288.736-.192.192-.443.288-.752.288zm8.228 1.552c.694 0 1.302.133 1.824.4.534.267.95.672 1.248 1.216.299.544.448 1.232.448 2.064V55h-1.536v-4.704c0-.821-.202-1.44-.608-1.856-.394-.416-.954-.624-1.68-.624-.544 0-1.018.107-1.424.32a2.24 2.24 0 00-.944.944c-.213.416-.32.933-.32 1.552V55h-1.536v-8.48h1.472v2.288l-.24-.608a2.948 2.948 0 011.28-1.296c.576-.31 1.248-.464 2.016-.464zm10.075 11.76a7.759 7.759 0 01-2.272-.336c-.725-.213-1.317-.523-1.776-.928l.736-1.184c.395.341.88.608 1.456.8a5.408 5.408 0 001.808.304c1.003 0 1.739-.235 2.208-.704.469-.47.704-1.184.704-2.144v-1.792l.16-1.68-.08-1.696v-2.32h1.456v7.328c0 1.493-.373 2.592-1.12 3.296-.747.704-1.84 1.056-3.28 1.056zm-.192-3.552c-.821 0-1.557-.17-2.208-.512a4.108 4.108 0 01-1.536-1.456c-.373-.619-.56-1.333-.56-2.144 0-.821.187-1.536.56-2.144a3.985 3.985 0 011.536-1.44c.651-.341 1.387-.512 2.208-.512.725 0 1.387.15 1.984.448a3.262 3.262 0 011.424 1.344c.363.608.544 1.376.544 2.304 0 .917-.181 1.68-.544 2.288a3.466 3.466 0 01-1.424 1.376 4.373 4.373 0 01-1.984.448zm.176-1.344c.565 0 1.067-.117 1.504-.352a2.58 2.58 0 001.024-.976c.256-.416.384-.896.384-1.44 0-.544-.128-1.024-.384-1.44a2.47 2.47 0 00-1.024-.96c-.437-.235-.939-.352-1.504-.352-.565 0-1.072.117-1.52.352a2.58 2.58 0 00-1.04.96c-.245.416-.368.896-.368 1.44 0 .544.123 1.024.368 1.44.256.416.603.741 1.04.976.448.235.955.352 1.52.352z" fill="#454545"/><path stroke="#DDDDE6" stroke-width="2" d="M434.667 25H591v48H434.667z"/></g><g clip-path="url(#clip2_122_531)"><path fill="#fff" d="M24 73h156.333v56H24z"/><path d="M41.052 107V94.4h1.098l5.76 9.828h-.576L53.04 94.4h1.098V107H52.86V96.398h.306l-5.256 9h-.63l-5.292-9h.342V107h-1.278zm16.993 3.582c-.444 0-.87-.072-1.278-.216a2.77 2.77 0 01-1.026-.648l.594-.954c.24.228.498.402.774.522.288.132.606.198.954.198.42 0 .78-.12 1.08-.36.312-.228.606-.636.882-1.224l.612-1.386.144-.198 3.888-8.766h1.26l-4.734 10.584c-.264.612-.558 1.098-.882 1.458-.312.36-.654.612-1.026.756a3.182 3.182 0 01-1.242.234zm2.52-3.312l-4.356-9.72h1.332l3.852 8.676-.828 1.044zM72.44 107v-9.45h1.278V107H72.44zm.648-11.538a.905.905 0 01-.666-.27.884.884 0 01-.27-.648c0-.252.09-.462.27-.63.18-.18.402-.27.666-.27a.94.94 0 01.666.252c.18.168.27.378.27.63 0 .264-.09.486-.27.666-.168.18-.39.27-.666.27zm7.174 11.628c-.888 0-1.572-.24-2.052-.72s-.72-1.158-.72-2.034v-8.874h1.278v8.802c0 .552.138.978.414 1.278.288.3.696.45 1.224.45.564 0 1.032-.162 1.404-.486l.45.918a2.354 2.354 0 01-.918.504 3.623 3.623 0 01-1.08.162zm-4.464-8.478V97.55h5.85v1.062h-5.85zm12.469 8.478c-.984 0-1.848-.204-2.592-.612a4.597 4.597 0 01-1.746-1.71c-.42-.732-.63-1.566-.63-2.502 0-.936.198-1.764.594-2.484.408-.72.96-1.284 1.656-1.692.708-.42 1.5-.63 2.376-.63.888 0 1.674.204 2.358.612.696.396 1.242.96 1.638 1.692.396.72.594 1.554.594 2.502 0 .06-.006.126-.018.198v.198H84.27v-.954h7.542l-.504.378c0-.684-.15-1.29-.45-1.818a3.166 3.166 0 00-1.188-1.26c-.504-.3-1.086-.45-1.746-.45-.648 0-1.23.15-1.746.45-.516.3-.918.72-1.206 1.26-.288.54-.432 1.158-.432 1.854v.198c0 .72.156 1.356.468 1.908.324.54.768.966 1.332 1.278.576.3 1.23.45 1.962.45.576 0 1.11-.102 1.602-.306a3.332 3.332 0 001.296-.936l.72.828c-.42.504-.948.888-1.584 1.152a5.26 5.26 0 01-2.07.396zm18.657-9.63c.768 0 1.434.15 1.998.45a2.98 2.98 0 011.332 1.332c.324.6.486 1.356.486 2.268V107h-1.278v-5.364c0-.996-.24-1.746-.72-2.25-.468-.516-1.134-.774-1.998-.774-.648 0-1.212.138-1.692.414a2.73 2.73 0 00-1.098 1.17c-.252.504-.378 1.116-.378 1.836V107h-1.278v-5.364c0-.996-.24-1.746-.72-2.25-.48-.516-1.152-.774-2.016-.774-.636 0-1.194.138-1.674.414a2.7 2.7 0 00-1.116 1.17c-.252.504-.378 1.116-.378 1.836V107h-1.278v-9.45h1.224v2.556l-.198-.45a3.342 3.342 0 011.386-1.602c.648-.396 1.41-.594 2.286-.594.924 0 1.71.234 2.358.702.648.456 1.068 1.146 1.26 2.07l-.504-.198a3.693 3.693 0 011.458-1.854c.708-.48 1.554-.72 2.538-.72zm13.343 9.54V94.94l.576.612h-3.546V94.4h4.266V107h-1.296z" fill="#454545"/><path stroke="#DDDDE6" stroke-width="2" d="M24 73h156.333v56H24z"/><path fill="#fff" d="M180.333 73h156.333v56H180.333z"/><path d="M238.988 107V95.12l.774.846h-3.618V94.4h4.626V107h-1.782zm13.44.144a8.251 8.251 0 01-2.592-.414c-.828-.276-1.506-.648-2.034-1.116l.828-1.422c.42.396.966.72 1.638.972a6.05 6.05 0 002.142.378c.96 0 1.698-.204 2.214-.612.516-.408.774-.954.774-1.638 0-.468-.114-.876-.342-1.224-.228-.348-.624-.612-1.188-.792-.552-.192-1.314-.288-2.286-.288h-2.862l.666-6.588h7.11v1.566h-6.444l.936-.882-.522 5.202-.936-.864h2.43c1.26 0 2.274.162 3.042.486.768.324 1.326.774 1.674 1.35.348.564.522 1.218.522 1.962 0 .72-.174 1.38-.522 1.98-.348.588-.876 1.062-1.584 1.422-.696.348-1.584.522-2.664.522zm10.248 0a8.251 8.251 0 01-2.592-.414c-.828-.276-1.506-.648-2.034-1.116l.828-1.422c.42.396.966.72 1.638.972a6.05 6.05 0 002.142.378c.96 0 1.698-.204 2.214-.612.516-.408.774-.954.774-1.638 0-.468-.114-.876-.342-1.224-.228-.348-.624-.612-1.188-.792-.552-.192-1.314-.288-2.286-.288h-2.862l.666-6.588h7.11v1.566H260.3l.936-.882-.522 5.202-.936-.864h2.43c1.26 0 2.274.162 3.042.486.768.324 1.326.774 1.674 1.35.348.564.522 1.218.522 1.962 0 .72-.174 1.38-.522 1.98-.348.588-.876 1.062-1.584 1.422-.696.348-1.584.522-2.664.522zm11.416 0c-.984 0-1.866-.252-2.646-.756-.768-.504-1.38-1.236-1.836-2.196-.444-.96-.666-2.124-.666-3.492 0-1.368.222-2.532.666-3.492.456-.96 1.068-1.692 1.836-2.196.78-.504 1.662-.756 2.646-.756.972 0 1.848.252 2.628.756s1.392 1.236 1.836 2.196c.444.96.666 2.124.666 3.492 0 1.368-.222 2.532-.666 3.492-.444.96-1.056 1.692-1.836 2.196-.78.504-1.656.756-2.628.756zm0-1.602c.66 0 1.236-.18 1.728-.54.504-.36.894-.9 1.17-1.62.288-.72.432-1.614.432-2.682 0-1.068-.144-1.962-.432-2.682-.276-.72-.666-1.26-1.17-1.62-.492-.36-1.068-.54-1.728-.54-.66 0-1.242.18-1.746.54-.504.36-.9.9-1.188 1.62-.276.72-.414 1.614-.414 2.682 0 1.068.138 1.962.414 2.682.288.72.684 1.26 1.188 1.62.504.36 1.086.54 1.746.54z" fill="#454545"/><path stroke="#DDDDE6" stroke-width="2" d="M180.333 73h156.333v56H180.333z"/><path fill="#fff" d="M336.667 73h98v56h-98z"/><rect x="362.667" y="86.5" width="46" height="29" rx="14.5" fill="#F82C2C" fill-opacity=".1"/><path d="M374.521 106.14a7.44 7.44 0 01-2.198-.322c-.7-.224-1.256-.509-1.666-.854l.63-1.414c.392.308.877.565 1.456.77a5.284 5.284 0 001.778.308c.513 0 .928-.056 1.246-.168.317-.112.55-.261.7-.448a1.06 1.06 0 00.224-.658.88.88 0 00-.322-.714c-.215-.187-.495-.331-.84-.434a11.387 11.387 0 00-1.134-.308 22.212 22.212 0 01-1.246-.322 5.939 5.939 0 01-1.134-.49 2.533 2.533 0 01-.826-.812c-.215-.336-.322-.765-.322-1.288 0-.532.14-1.017.42-1.456.289-.448.723-.803 1.302-1.064.588-.27 1.33-.406 2.226-.406a6.98 6.98 0 011.75.224c.578.15 1.082.364 1.512.644l-.574 1.414a5.22 5.22 0 00-1.358-.574 4.984 4.984 0 00-1.344-.196c-.504 0-.915.06-1.232.182-.308.121-.537.28-.686.476-.14.196-.21.42-.21.672 0 .299.102.541.308.728.214.177.49.317.826.42.345.103.728.205 1.148.308.42.093.835.201 1.246.322.42.121.798.28 1.134.476.345.196.62.462.826.798.214.336.322.761.322 1.274 0 .523-.145 1.008-.434 1.456-.28.439-.714.793-1.302 1.064-.588.261-1.33.392-2.226.392zm10.204-.14v-1.512l-.098-.322v-2.646c0-.513-.154-.91-.462-1.19-.308-.289-.774-.434-1.4-.434-.42 0-.835.065-1.246.196a3.068 3.068 0 00-1.022.546l-.686-1.274a4.074 4.074 0 011.428-.686 6.338 6.338 0 011.736-.238c1.083 0 1.918.261 2.506.784.598.513.896 1.311.896 2.394V106h-1.652zm-2.352.098c-.56 0-1.05-.093-1.47-.28a2.396 2.396 0 01-.98-.798 2.09 2.09 0 01-.336-1.162c0-.42.098-.798.294-1.134.206-.336.537-.602.994-.798.458-.196 1.064-.294 1.82-.294h2.17v1.162h-2.044c-.597 0-.998.098-1.204.294a.908.908 0 00-.308.7c0 .317.126.569.378.756.252.187.602.28 1.05.28.43 0 .812-.098 1.148-.294.346-.196.593-.485.742-.868l.294 1.05a1.938 1.938 0 01-.91 1.022c-.429.243-.975.364-1.638.364zm6.25-.098V95.612h1.75V106h-1.75zm7.561.098c-.831 0-1.559-.163-2.184-.49a3.707 3.707 0 01-1.442-1.372c-.336-.579-.504-1.237-.504-1.974 0-.747.163-1.405.49-1.974a3.614 3.614 0 011.372-1.358c.588-.327 1.255-.49 2.002-.49.728 0 1.377.159 1.946.476a3.45 3.45 0 011.344 1.344c.327.579.49 1.26.49 2.044 0 .075-.005.159-.014.252a2.5 2.5 0 01-.014.266h-6.23v-1.162h5.306l-.686.364a2.15 2.15 0 00-.266-1.134 2.034 2.034 0 00-.77-.77 2.14 2.14 0 00-1.106-.28c-.429 0-.807.093-1.134.28a2.044 2.044 0 00-.756.784c-.177.327-.266.714-.266 1.162v.28c0 .448.103.845.308 1.19.205.345.495.611.868.798.373.187.803.28 1.288.28a3.1 3.1 0 001.134-.196c.336-.131.635-.336.896-.616l.938 1.078a3.354 3.354 0 01-1.274.91c-.504.205-1.083.308-1.736.308z" fill="#F82C2C"/><rect x="362.667" y="86.5" width="46" height="29" rx="14.5" stroke="#F82C2C"/><path stroke="#DDDDE6" stroke-width="2" d="M336.667 73h98v56h-98z"/><path fill="#fff" d="M434.667 73H591v56H434.667z"/><path d="M466.833 91l2.975 5.906 6.536 1.004-4.698 4.654 1.065 6.526-5.878-3.03-5.878 3.03 1.066-6.526-4.698-4.654 6.536-1.004L466.833 91zm23 0l2.975 5.906 6.536 1.004-4.698 4.654 1.065 6.526-5.878-3.03-5.878 3.03 1.066-6.526-4.698-4.654 6.536-1.004L489.833 91zm23 0l2.975 5.906 6.536 1.004-4.698 4.654 1.065 6.526-5.878-3.03-5.878 3.03 1.066-6.526-4.698-4.654 6.536-1.004L512.833 91zm23 0l2.975 5.906 6.536 1.004-4.698 4.654 1.065 6.526-5.878-3.03-5.878 3.03 1.066-6.526-4.698-4.654 6.536-1.004L535.833 91zm23 0l2.975 5.906 6.536 1.004-4.698 4.654 1.065 6.526-5.878-3.03-5.878 3.03 1.066-6.526-4.698-4.654 6.536-1.004L558.833 91z" fill="#F28100"/><path stroke="#DDDDE6" stroke-width="2" d="M434.667 73H591v56H434.667z"/></g><path stroke="#DDDDE6" stroke-width="2" d="M24 73h567v56H24z"/><g clip-path="url(#clip3_122_531)"><path fill="#fff" d="M24 129h156.333v56H24z"/><path d="M41.052 163v-12.6h1.098l5.76 9.828h-.576l5.706-9.828h1.098V163H52.86v-10.602h.306l-5.256 9h-.63l-5.292-9h.342V163h-1.278zm16.993 3.582c-.444 0-.87-.072-1.278-.216a2.77 2.77 0 01-1.026-.648l.594-.954c.24.228.498.402.774.522.288.132.606.198.954.198.42 0 .78-.12 1.08-.36.312-.228.606-.636.882-1.224l.612-1.386.144-.198 3.888-8.766h1.26l-4.734 10.584c-.264.612-.558 1.098-.882 1.458-.312.36-.654.612-1.026.756a3.182 3.182 0 01-1.242.234zm2.52-3.312l-4.356-9.72h1.332l3.852 8.676-.828 1.044zM72.44 163v-9.45h1.278V163H72.44zm.648-11.538a.905.905 0 01-.666-.27.884.884 0 01-.27-.648c0-.252.09-.462.27-.63.18-.18.402-.27.666-.27a.94.94 0 01.666.252c.18.168.27.378.27.63 0 .264-.09.486-.27.666-.168.18-.39.27-.666.27zm7.174 11.628c-.888 0-1.572-.24-2.052-.72s-.72-1.158-.72-2.034v-8.874h1.278v8.802c0 .552.138.978.414 1.278.288.3.696.45 1.224.45.564 0 1.032-.162 1.404-.486l.45.918a2.354 2.354 0 01-.918.504 3.623 3.623 0 01-1.08.162zm-4.464-8.478v-1.062h5.85v1.062h-5.85zm12.469 8.478c-.984 0-1.848-.204-2.592-.612a4.597 4.597 0 01-1.746-1.71c-.42-.732-.63-1.566-.63-2.502 0-.936.198-1.764.594-2.484.408-.72.96-1.284 1.656-1.692.708-.42 1.5-.63 2.376-.63.888 0 1.674.204 2.358.612.696.396 1.242.96 1.638 1.692.396.72.594 1.554.594 2.502 0 .06-.006.126-.018.198v.198H84.27v-.954h7.542l-.504.378c0-.684-.15-1.29-.45-1.818a3.166 3.166 0 00-1.188-1.26c-.504-.3-1.086-.45-1.746-.45-.648 0-1.23.15-1.746.45-.516.3-.918.72-1.206 1.26-.288.54-.432 1.158-.432 1.854v.198c0 .72.156 1.356.468 1.908.324.54.768.966 1.332 1.278.576.3 1.23.45 1.962.45.576 0 1.11-.102 1.602-.306a3.332 3.332 0 001.296-.936l.72.828c-.42.504-.948.888-1.584 1.152a5.26 5.26 0 01-2.07.396zm18.657-9.63c.768 0 1.434.15 1.998.45a2.98 2.98 0 011.332 1.332c.324.6.486 1.356.486 2.268V163h-1.278v-5.364c0-.996-.24-1.746-.72-2.25-.468-.516-1.134-.774-1.998-.774-.648 0-1.212.138-1.692.414a2.73 2.73 0 00-1.098 1.17c-.252.504-.378 1.116-.378 1.836V163h-1.278v-5.364c0-.996-.24-1.746-.72-2.25-.48-.516-1.152-.774-2.016-.774-.636 0-1.194.138-1.674.414a2.7 2.7 0 00-1.116 1.17c-.252.504-.378 1.116-.378 1.836V163h-1.278v-9.45h1.224v2.556l-.198-.45a3.342 3.342 0 011.386-1.602c.648-.396 1.41-.594 2.286-.594.924 0 1.71.234 2.358.702.648.456 1.068 1.146 1.26 2.07l-.504-.198a3.693 3.693 0 011.458-1.854c.708-.48 1.554-.72 2.538-.72zm10.913 9.54v-.918l5.238-5.13c.48-.468.84-.876 1.08-1.224.24-.36.402-.696.486-1.008.084-.312.126-.606.126-.882 0-.732-.252-1.308-.756-1.728-.492-.42-1.224-.63-2.196-.63-.744 0-1.404.114-1.98.342a3.725 3.725 0 00-1.458 1.062l-.918-.792c.492-.576 1.122-1.02 1.89-1.332.768-.312 1.626-.468 2.574-.468.852 0 1.59.138 2.214.414.624.264 1.104.654 1.44 1.17.348.516.522 1.122.522 1.818 0 .408-.06.81-.18 1.206-.108.396-.312.816-.612 1.26-.288.432-.714.924-1.278 1.476l-4.806 4.716-.36-.504h7.812V163h-8.838z" fill="#454545"/><path stroke="#DDDDE6" stroke-width="2" d="M24 129h156.333v56H24z"/><path fill="#fff" d="M180.333 129h156.333v56H180.333z"/><path d="M237.988 163v-11.88l.774.846h-3.618V150.4h4.626V163h-1.782zm14.664.144c-1.116 0-2.07-.246-2.862-.738-.792-.492-1.398-1.2-1.818-2.124-.408-.936-.612-2.076-.612-3.42 0-1.428.252-2.634.756-3.618s1.206-1.728 2.106-2.232c.9-.504 1.932-.756 3.096-.756.6 0 1.17.06 1.71.18.552.12 1.026.306 1.422.558l-.684 1.404a2.904 2.904 0 00-1.116-.468 6.417 6.417 0 00-1.296-.126c-1.284 0-2.304.402-3.06 1.206-.756.792-1.134 1.974-1.134 3.546 0 .252.012.552.036.9.024.348.084.69.18 1.026l-.612-.612a3.33 3.33 0 01.846-1.386 3.643 3.643 0 011.404-.846 5.388 5.388 0 011.782-.288c.84 0 1.584.156 2.232.468a3.677 3.677 0 011.53 1.332c.372.564.558 1.236.558 2.016 0 .804-.198 1.506-.594 2.106-.396.6-.93 1.062-1.602 1.386-.672.324-1.428.486-2.268.486zm-.072-1.458c.552 0 1.032-.102 1.44-.306.42-.204.75-.486.99-.846.24-.372.36-.804.36-1.296 0-.744-.258-1.332-.774-1.764-.516-.444-1.218-.666-2.106-.666-.576 0-1.08.108-1.512.324-.432.216-.774.51-1.026.882-.24.36-.36.774-.36 1.242 0 .432.114.834.342 1.206.228.36.564.654 1.008.882.444.228.99.342 1.638.342zm10.803 1.458c-1.02 0-1.902-.15-2.646-.45-.744-.3-1.32-.726-1.728-1.278-.408-.564-.612-1.224-.612-1.98 0-.744.192-1.374.576-1.89.396-.528.966-.924 1.71-1.188.744-.276 1.644-.414 2.7-.414 1.056 0 1.956.138 2.7.414.756.264 1.332.66 1.728 1.188.396.528.594 1.158.594 1.89 0 .756-.204 1.416-.612 1.98-.408.552-.99.978-1.746 1.278-.756.3-1.644.45-2.664.45zm0-1.458c1.008 0 1.794-.204 2.358-.612.576-.42.864-.984.864-1.692 0-.696-.288-1.242-.864-1.638-.564-.408-1.35-.612-2.358-.612-.996 0-1.776.204-2.34.612-.564.396-.846.942-.846 1.638 0 .708.282 1.272.846 1.692.564.408 1.344.612 2.34.612zm0-4.77c-.96 0-1.776-.126-2.448-.378-.672-.264-1.188-.636-1.548-1.116-.36-.492-.54-1.074-.54-1.746 0-.708.186-1.314.558-1.818.384-.516.918-.912 1.602-1.188.684-.276 1.476-.414 2.376-.414.912 0 1.71.138 2.394.414.684.276 1.218.672 1.602 1.188.384.504.576 1.11.576 1.818 0 .672-.18 1.254-.54 1.746-.36.48-.882.852-1.566 1.116-.684.252-1.506.378-2.466.378zm0-1.152c.876 0 1.56-.18 2.052-.54.504-.36.756-.852.756-1.476 0-.636-.258-1.134-.774-1.494-.516-.36-1.194-.54-2.034-.54-.84 0-1.512.18-2.016.54-.492.36-.738.858-.738 1.494 0 .624.24 1.116.72 1.476.492.36 1.17.54 2.034.54zm11.818 7.38c-.984 0-1.866-.252-2.646-.756-.768-.504-1.38-1.236-1.836-2.196-.444-.96-.666-2.124-.666-3.492 0-1.368.222-2.532.666-3.492.456-.96 1.068-1.692 1.836-2.196.78-.504 1.662-.756 2.646-.756.972 0 1.848.252 2.628.756s1.392 1.236 1.836 2.196c.444.96.666 2.124.666 3.492 0 1.368-.222 2.532-.666 3.492-.444.96-1.056 1.692-1.836 2.196-.78.504-1.656.756-2.628.756zm0-1.602c.66 0 1.236-.18 1.728-.54.504-.36.894-.9 1.17-1.62.288-.72.432-1.614.432-2.682 0-1.068-.144-1.962-.432-2.682-.276-.72-.666-1.26-1.17-1.62-.492-.36-1.068-.54-1.728-.54-.66 0-1.242.18-1.746.54-.504.36-.9.9-1.188 1.62-.276.72-.414 1.614-.414 2.682 0 1.068.138 1.962.414 2.682.288.72.684 1.26 1.188 1.62.504.36 1.086.54 1.746.54z" fill="#454545"/><path stroke="#DDDDE6" stroke-width="2" d="M180.333 129h156.333v56H180.333z"/><path fill="#fff" d="M336.667 129h98v56h-98z"/><rect x="365.167" y="142.5" width="41" height="29" rx="14.5" fill="#F28100" fill-opacity=".1"/><path d="M378.561 162.14a5.94 5.94 0 01-2.114-.364 5.205 5.205 0 01-1.666-1.05 4.809 4.809 0 01-1.106-1.61 5.097 5.097 0 01-.392-2.016c0-.728.13-1.4.392-2.016a4.665 4.665 0 011.106-1.596 5.033 5.033 0 011.694-1.05 5.75 5.75 0 012.114-.378c.83 0 1.577.135 2.24.406a4.4 4.4 0 011.694 1.19l-1.148 1.12a3.67 3.67 0 00-1.246-.84 3.677 3.677 0 00-1.456-.28c-.514 0-.99.084-1.428.252a3.296 3.296 0 00-1.134.714 3.269 3.269 0 00-.742 1.092 3.7 3.7 0 00-.252 1.386c0 .495.084.952.252 1.372.177.42.424.789.742 1.106.317.308.69.546 1.12.714.429.168.905.252 1.428.252.485 0 .952-.075 1.4-.224.457-.159.891-.42 1.302-.784l1.036 1.358a5.476 5.476 0 01-1.792.938 6.973 6.973 0 01-2.044.308zm2.114-1.484v-3.668h1.722v3.906l-1.722-.238zm3.954 1.344v-7.476h1.75V162h-1.75zm.882-8.708a1.13 1.13 0 01-.812-.308 1.013 1.013 0 01-.308-.742c0-.299.103-.546.308-.742a1.13 1.13 0 01.812-.308c.327 0 .593.098.798.294a.904.904 0 01.322.714c0 .308-.103.569-.308.784-.205.205-.476.308-.812.308zm3.403 8.708v-7.896c0-.784.229-1.409.686-1.876.467-.476 1.129-.714 1.988-.714.308 0 .597.033.868.098.28.065.513.168.7.308l-.476 1.316a1.267 1.267 0 00-.448-.224 1.629 1.629 0 00-.518-.084c-.364 0-.639.103-.826.308-.187.196-.28.495-.28.896v.84l.056.784V162h-1.75zm-1.232-6.02v-1.4h4.984v1.4h-4.984zm8.976 6.118c-.821 0-1.456-.21-1.904-.63-.448-.429-.672-1.059-.672-1.89v-6.706h1.75v6.664c0 .355.089.63.266.826.187.196.443.294.77.294.392 0 .719-.103.98-.308l.49 1.246a2.051 2.051 0 01-.756.378 3.4 3.4 0 01-.924.126zm-3.808-6.118v-1.4h4.984v1.4h-4.984z" fill="#F28100"/><rect x="365.167" y="142.5" width="41" height="29" rx="14.5" stroke="#F28100"/><path stroke="#DDDDE6" stroke-width="2" d="M336.667 129h98v56h-98z"/><path fill="#fff" d="M434.667 129H591v56H434.667z"/><path d="M466.833 147l2.975 5.906 6.536 1.004-4.698 4.654 1.065 6.526-5.878-3.03-5.878 3.03 1.066-6.526-4.698-4.654 6.536-1.004 2.974-5.906zm23 0l2.975 5.906 6.536 1.004-4.698 4.654 1.065 6.526-5.878-3.03-5.878 3.03 1.066-6.526-4.698-4.654 6.536-1.004 2.974-5.906z" fill="#F28100"/><path d="M512.833 147l2.975 5.906 6.536 1.004-4.698 4.654 1.065 6.526-5.878-3.03-5.878 3.03 1.066-6.526-4.698-4.654 6.536-1.004 2.974-5.906zm23 0l2.975 5.906 6.536 1.004-4.698 4.654 1.065 6.526-5.878-3.03-5.878 3.03 1.066-6.526-4.698-4.654 6.536-1.004 2.974-5.906zm23 0l2.975 5.906 6.536 1.004-4.698 4.654 1.065 6.526-5.878-3.03-5.878 3.03 1.066-6.526-4.698-4.654 6.536-1.004 2.974-5.906z" fill="#D5D5E4"/><path stroke="#DDDDE6" stroke-width="2" d="M434.667 129H591v56H434.667z"/></g><path stroke="#DDDDE6" stroke-width="2" d="M24 129h567v56H24z"/><g clip-path="url(#clip4_122_531)"><path fill="#fff" d="M24 185h156.333v57H24z"/><path d="M46.524 219.608a7.203 7.203 0 01-2.628-.468 6.326 6.326 0 01-2.088-1.35 6.31 6.31 0 01-1.386-2.034 6.598 6.598 0 01-.486-2.556c0-.924.162-1.776.486-2.556a6.31 6.31 0 011.386-2.034 6.293 6.293 0 012.106-1.332 6.966 6.966 0 012.628-.486c.912 0 1.77.156 2.574.468.804.3 1.482.756 2.034 1.368l-.846.846c-.516-.528-1.086-.906-1.71-1.134a5.568 5.568 0 00-2.016-.36c-.756 0-1.458.132-2.106.396a4.85 4.85 0 00-1.692 1.098 5.15 5.15 0 00-1.134 1.656 5.26 5.26 0 00-.396 2.07c0 .756.132 1.452.396 2.088a5.425 5.425 0 001.134 1.656c.48.468 1.044.834 1.692 1.098a5.76 5.76 0 002.106.378c.72 0 1.392-.12 2.016-.36a4.79 4.79 0 001.71-1.152l.846.846a5.253 5.253 0 01-2.034 1.386 7.102 7.102 0 01-2.592.468zm10.626-.018c-.912 0-1.734-.204-2.466-.612-.72-.42-1.29-.99-1.71-1.71-.42-.732-.63-1.566-.63-2.502 0-.948.21-1.782.63-2.502.42-.72.99-1.284 1.71-1.692.72-.408 1.542-.612 2.466-.612.936 0 1.764.204 2.484.612a4.374 4.374 0 011.71 1.692c.42.72.63 1.554.63 2.502 0 .936-.21 1.77-.63 2.502a4.5 4.5 0 01-1.71 1.71c-.732.408-1.56.612-2.484.612zm0-1.134c.684 0 1.29-.15 1.818-.45a3.31 3.31 0 001.242-1.296c.312-.564.468-1.212.468-1.944 0-.744-.156-1.392-.468-1.944a3.185 3.185 0 00-1.242-1.278c-.528-.312-1.128-.468-1.8-.468-.672 0-1.272.156-1.8.468-.528.3-.948.726-1.26 1.278-.312.552-.468 1.2-.468 1.944 0 .732.156 1.38.468 1.944a3.44 3.44 0 001.26 1.296c.528.3 1.122.45 1.782.45zm19.24-8.496c.769 0 1.435.15 1.999.45a2.98 2.98 0 011.332 1.332c.324.6.486 1.356.486 2.268v5.49h-1.278v-5.364c0-.996-.24-1.746-.72-2.25-.468-.516-1.134-.774-1.998-.774-.648 0-1.212.138-1.692.414a2.73 2.73 0 00-1.098 1.17c-.252.504-.378 1.116-.378 1.836v4.968h-1.278v-5.364c0-.996-.24-1.746-.72-2.25-.48-.516-1.152-.774-2.016-.774-.636 0-1.194.138-1.674.414a2.7 2.7 0 00-1.116 1.17c-.252.504-.378 1.116-.378 1.836v4.968h-1.278v-9.45h1.224v2.556l-.198-.45a3.342 3.342 0 011.386-1.602c.648-.396 1.41-.594 2.286-.594.924 0 1.71.234 2.358.702.648.456 1.068 1.146 1.26 2.07l-.504-.198a3.693 3.693 0 011.458-1.854c.708-.48 1.554-.72 2.538-.72zm12.16 9.63c-.815 0-1.553-.186-2.213-.558a4.247 4.247 0 01-1.584-1.638c-.384-.72-.576-1.596-.576-2.628s.192-1.902.576-2.61c.384-.72.906-1.266 1.566-1.638.66-.372 1.404-.558 2.232-.558.9 0 1.704.204 2.412.612.72.396 1.284.96 1.692 1.692.408.72.612 1.554.612 2.502 0 .96-.204 1.8-.612 2.52a4.408 4.408 0 01-1.692 1.692c-.708.408-1.512.612-2.412.612zm-4.877 3.402V210.05h1.224v2.844l-.126 1.89.18 1.908v6.3h-1.278zm4.788-4.536c.672 0 1.272-.15 1.8-.45a3.44 3.44 0 001.26-1.296c.312-.564.468-1.212.468-1.944s-.156-1.374-.468-1.926a3.44 3.44 0 00-1.26-1.296c-.528-.312-1.128-.468-1.8-.468-.672 0-1.278.156-1.818.468a3.44 3.44 0 00-1.26 1.296c-.3.552-.45 1.194-.45 1.926s.15 1.38.45 1.944a3.44 3.44 0 001.26 1.296c.54.3 1.146.45 1.818.45zm11.425 1.134c-.984 0-1.848-.204-2.592-.612a4.597 4.597 0 01-1.746-1.71c-.42-.732-.63-1.566-.63-2.502 0-.936.198-1.764.594-2.484.408-.72.96-1.284 1.656-1.692.708-.42 1.5-.63 2.376-.63.888 0 1.674.204 2.358.612.696.396 1.242.96 1.638 1.692.396.72.594 1.554.594 2.502 0 .06-.006.126-.018.198v.198H95.89v-.954h7.542l-.504.378c0-.684-.15-1.29-.45-1.818a3.166 3.166 0 00-1.188-1.26c-.504-.3-1.086-.45-1.746-.45-.648 0-1.23.15-1.746.45-.516.3-.918.72-1.206 1.26-.288.54-.432 1.158-.432 1.854v.198c0 .72.156 1.356.468 1.908.324.54.768.966 1.332 1.278.576.3 1.23.45 1.962.45.576 0 1.11-.102 1.602-.306a3.332 3.332 0 001.296-.936l.72.828c-.42.504-.948.888-1.584 1.152a5.26 5.26 0 01-2.07.396zm9.837 0c-.888 0-1.572-.24-2.052-.72s-.72-1.158-.72-2.034v-8.874h1.278v8.802c0 .552.138.978.414 1.278.288.3.696.45 1.224.45.564 0 1.032-.162 1.404-.486l.45.918a2.354 2.354 0 01-.918.504 3.623 3.623 0 01-1.08.162zm-4.464-8.478v-1.062h5.85v1.062h-5.85zm8.789 8.388v-9.45h1.278v9.45h-1.278zm.648-11.538a.905.905 0 01-.666-.27.884.884 0 01-.27-.648c0-.252.09-.462.27-.63.18-.18.402-.27.666-.27a.94.94 0 01.666.252c.18.168.27.378.27.63 0 .264-.09.486-.27.666-.168.18-.39.27-.666.27zm7.174 11.628c-.888 0-1.572-.24-2.052-.72s-.72-1.158-.72-2.034v-8.874h1.278v8.802c0 .552.138.978.414 1.278.288.3.696.45 1.224.45.564 0 1.032-.162 1.404-.486l.45.918a2.354 2.354 0 01-.918.504 3.623 3.623 0 01-1.08.162zm-4.464-8.478v-1.062h5.85v1.062h-5.85zm12.306 8.478c-.912 0-1.734-.204-2.466-.612-.72-.42-1.29-.99-1.71-1.71-.42-.732-.63-1.566-.63-2.502 0-.948.21-1.782.63-2.502.42-.72.99-1.284 1.71-1.692.72-.408 1.542-.612 2.466-.612.936 0 1.764.204 2.484.612a4.374 4.374 0 011.71 1.692c.42.72.63 1.554.63 2.502 0 .936-.21 1.77-.63 2.502a4.5 4.5 0 01-1.71 1.71c-.732.408-1.56.612-2.484.612zm0-1.134c.684 0 1.29-.15 1.818-.45a3.31 3.31 0 001.242-1.296c.312-.564.468-1.212.468-1.944 0-.744-.156-1.392-.468-1.944a3.185 3.185 0 00-1.242-1.278c-.528-.312-1.128-.468-1.8-.468-.672 0-1.272.156-1.8.468-.528.3-.948.726-1.26 1.278-.312.552-.468 1.2-.468 1.944 0 .732.156 1.38.468 1.944a3.44 3.44 0 001.26 1.296c.528.3 1.122.45 1.782.45zm7.433 1.044v-9.45h1.224v2.574l-.126-.45c.264-.72.708-1.266 1.332-1.638.624-.384 1.398-.576 2.322-.576v1.242h-.144a.592.592 0 00-.144-.018c-.996 0-1.776.306-2.34.918-.564.6-.846 1.458-.846 2.574v4.824h-1.278zm13.286 0v-12.06l.576.612h-3.546V206.9h4.266v12.6h-1.296z" fill="#454545"/><path stroke="#DDDDE6" stroke-width="2" d="M24 185h156.333v57H24z"/><path fill="#fff" d="M180.333 185h156.333v57H180.333z"/><path d="M234.166 219.5v-1.224l5.13-4.95c.456-.432.792-.81 1.008-1.134.228-.336.378-.642.45-.918.084-.288.126-.564.126-.828 0-.648-.228-1.158-.684-1.53-.456-.372-1.122-.558-1.998-.558-.672 0-1.278.114-1.818.342a3.548 3.548 0 00-1.404 1.026l-1.224-1.062c.48-.612 1.122-1.08 1.926-1.404.816-.336 1.71-.504 2.682-.504.876 0 1.638.144 2.286.432.648.276 1.146.678 1.494 1.206.36.528.54 1.152.54 1.872 0 .408-.054.81-.162 1.206-.108.396-.312.816-.612 1.26-.3.444-.732.942-1.296 1.494l-4.572 4.41-.432-.702h7.614v1.566h-9.054zm20.516.144c-.984 0-1.866-.252-2.646-.756-.768-.504-1.38-1.236-1.836-2.196-.444-.96-.666-2.124-.666-3.492 0-1.368.222-2.532.666-3.492.456-.96 1.068-1.692 1.836-2.196.78-.504 1.662-.756 2.646-.756.972 0 1.848.252 2.628.756s1.392 1.236 1.836 2.196c.444.96.666 2.124.666 3.492 0 1.368-.222 2.532-.666 3.492-.444.96-1.056 1.692-1.836 2.196-.78.504-1.656.756-2.628.756zm0-1.602c.66 0 1.236-.18 1.728-.54.504-.36.894-.9 1.17-1.62.288-.72.432-1.614.432-2.682 0-1.068-.144-1.962-.432-2.682-.276-.72-.666-1.26-1.17-1.62-.492-.36-1.068-.54-1.728-.54-.66 0-1.242.18-1.746.54-.504.36-.9.9-1.188 1.62-.276.72-.414 1.614-.414 2.682 0 1.068.138 1.962.414 2.682.288.72.684 1.26 1.188 1.62.504.36 1.086.54 1.746.54zm10.926 1.602a8.251 8.251 0 01-2.592-.414c-.828-.276-1.506-.648-2.034-1.116l.828-1.422c.42.396.966.72 1.638.972a6.05 6.05 0 002.142.378c.96 0 1.698-.204 2.214-.612.516-.408.774-.954.774-1.638 0-.468-.114-.876-.342-1.224-.228-.348-.624-.612-1.188-.792-.552-.192-1.314-.288-2.286-.288H261.9l.666-6.588h7.11v1.566h-6.444l.936-.882-.522 5.202-.936-.864h2.43c1.26 0 2.274.162 3.042.486.768.324 1.326.774 1.674 1.35.348.564.522 1.218.522 1.962 0 .72-.174 1.38-.522 1.98-.348.588-.876 1.062-1.584 1.422-.696.348-1.584.522-2.664.522zm11.416 0c-.984 0-1.866-.252-2.646-.756-.768-.504-1.38-1.236-1.836-2.196-.444-.96-.666-2.124-.666-3.492 0-1.368.222-2.532.666-3.492.456-.96 1.068-1.692 1.836-2.196.78-.504 1.662-.756 2.646-.756.972 0 1.848.252 2.628.756s1.392 1.236 1.836 2.196c.444.96.666 2.124.666 3.492 0 1.368-.222 2.532-.666 3.492-.444.96-1.056 1.692-1.836 2.196-.78.504-1.656.756-2.628.756zm0-1.602c.66 0 1.236-.18 1.728-.54.504-.36.894-.9 1.17-1.62.288-.72.432-1.614.432-2.682 0-1.068-.144-1.962-.432-2.682-.276-.72-.666-1.26-1.17-1.62-.492-.36-1.068-.54-1.728-.54-.66 0-1.242.18-1.746.54-.504.36-.9.9-1.188 1.62-.276.72-.414 1.614-.414 2.682 0 1.068.138 1.962.414 2.682.288.72.684 1.26 1.188 1.62.504.36 1.086.54 1.746.54z" fill="#454545"/><path stroke="#DDDDE6" stroke-width="2" d="M180.333 185h156.333v57H180.333z"/><path fill="#fff" d="M336.667 185h98v57h-98z"/><rect x="362.667" y="199" width="46" height="29" rx="14.5" fill="#F82C2C" fill-opacity=".1"/><path d="M374.521 218.64a7.44 7.44 0 01-2.198-.322c-.7-.224-1.256-.509-1.666-.854l.63-1.414c.392.308.877.565 1.456.77a5.284 5.284 0 001.778.308c.513 0 .928-.056 1.246-.168.317-.112.55-.261.7-.448a1.06 1.06 0 00.224-.658.88.88 0 00-.322-.714c-.215-.187-.495-.331-.84-.434a11.387 11.387 0 00-1.134-.308 22.212 22.212 0 01-1.246-.322 5.939 5.939 0 01-1.134-.49 2.533 2.533 0 01-.826-.812c-.215-.336-.322-.765-.322-1.288 0-.532.14-1.017.42-1.456.289-.448.723-.803 1.302-1.064.588-.271 1.33-.406 2.226-.406.588 0 1.171.075 1.75.224a5.07 5.07 0 011.512.644l-.574 1.414a5.22 5.22 0 00-1.358-.574 4.972 4.972 0 00-1.344-.196c-.504 0-.915.061-1.232.182-.308.121-.537.28-.686.476-.14.196-.21.42-.21.672 0 .299.102.541.308.728.214.177.49.317.826.42.345.103.728.205 1.148.308.42.093.835.201 1.246.322.42.121.798.28 1.134.476.345.196.62.462.826.798.214.336.322.761.322 1.274 0 .523-.145 1.008-.434 1.456-.28.439-.714.793-1.302 1.064-.588.261-1.33.392-2.226.392zm10.204-.14v-1.512l-.098-.322v-2.646c0-.513-.154-.91-.462-1.19-.308-.289-.774-.434-1.4-.434-.42 0-.835.065-1.246.196a3.068 3.068 0 00-1.022.546l-.686-1.274a4.069 4.069 0 011.428-.686 6.326 6.326 0 011.736-.238c1.083 0 1.918.261 2.506.784.598.513.896 1.311.896 2.394v4.382h-1.652zm-2.352.098c-.56 0-1.05-.093-1.47-.28a2.396 2.396 0 01-.98-.798 2.09 2.09 0 01-.336-1.162c0-.42.098-.798.294-1.134.206-.336.537-.602.994-.798.458-.196 1.064-.294 1.82-.294h2.17v1.162h-2.044c-.597 0-.998.098-1.204.294a.908.908 0 00-.308.7c0 .317.126.569.378.756.252.187.602.28 1.05.28.43 0 .812-.098 1.148-.294.346-.196.593-.485.742-.868l.294 1.05a1.938 1.938 0 01-.91 1.022c-.429.243-.975.364-1.638.364zm6.25-.098v-10.388h1.75V218.5h-1.75zm7.561.098c-.831 0-1.559-.163-2.184-.49a3.707 3.707 0 01-1.442-1.372c-.336-.579-.504-1.237-.504-1.974 0-.747.163-1.405.49-1.974a3.614 3.614 0 011.372-1.358c.588-.327 1.255-.49 2.002-.49.728 0 1.377.159 1.946.476a3.446 3.446 0 011.344 1.344c.327.579.49 1.26.49 2.044 0 .075-.005.159-.014.252a2.5 2.5 0 01-.014.266h-6.23v-1.162h5.306l-.686.364a2.15 2.15 0 00-.266-1.134 2.034 2.034 0 00-.77-.77 2.137 2.137 0 00-1.106-.28c-.429 0-.807.093-1.134.28a2.044 2.044 0 00-.756.784c-.177.327-.266.714-.266 1.162v.28c0 .448.103.845.308 1.19.205.345.495.611.868.798.373.187.803.28 1.288.28a3.1 3.1 0 001.134-.196c.336-.131.635-.336.896-.616l.938 1.078a3.354 3.354 0 01-1.274.91c-.504.205-1.083.308-1.736.308z" fill="#F82C2C"/><rect x="362.667" y="199" width="46" height="29" rx="14.5" stroke="#F82C2C"/><path stroke="#DDDDE6" stroke-width="2" d="M336.667 185h98v57h-98z"/><path fill="#fff" d="M434.667 185H591v57H434.667z"/><path d="M466.833 203.5l2.975 5.906 6.536 1.004-4.698 4.654 1.065 6.526-5.878-3.03-5.878 3.03 1.066-6.526-4.698-4.654 6.536-1.004 2.974-5.906zm23 0l2.975 5.906 6.536 1.004-4.698 4.654 1.065 6.526-5.878-3.03-5.878 3.03 1.066-6.526-4.698-4.654 6.536-1.004 2.974-5.906zm23 0l2.975 5.906 6.536 1.004-4.698 4.654 1.065 6.526-5.878-3.03-5.878 3.03 1.066-6.526-4.698-4.654 6.536-1.004 2.974-5.906z" fill="#F28100"/><path d="M535.833 203.5l2.975 5.906 6.536 1.004-4.698 4.654 1.065 6.526-5.878-3.03-5.878 3.03 1.066-6.526-4.698-4.654 6.536-1.004 2.974-5.906zm23 0l2.975 5.906 6.536 1.004-4.698 4.654 1.065 6.526-5.878-3.03-5.878 3.03 1.066-6.526-4.698-4.654 6.536-1.004 2.974-5.906z" fill="#D5D5E4"/><path stroke="#DDDDE6" stroke-width="2" d="M434.667 185H591v57H434.667z"/></g><path stroke="#DDDDE6" stroke-width="2" d="M24 185h567v57H24z"/><g clip-path="url(#clip5_122_531)"><path fill="#fff" d="M24 242h156.333v56H24z"/><path d="M46.524 276.108a7.203 7.203 0 01-2.628-.468 6.326 6.326 0 01-2.088-1.35 6.31 6.31 0 01-1.386-2.034 6.598 6.598 0 01-.486-2.556c0-.924.162-1.776.486-2.556a6.31 6.31 0 011.386-2.034 6.293 6.293 0 012.106-1.332 6.966 6.966 0 012.628-.486c.912 0 1.77.156 2.574.468.804.3 1.482.756 2.034 1.368l-.846.846c-.516-.528-1.086-.906-1.71-1.134a5.568 5.568 0 00-2.016-.36c-.756 0-1.458.132-2.106.396a4.85 4.85 0 00-1.692 1.098 5.15 5.15 0 00-1.134 1.656 5.26 5.26 0 00-.396 2.07c0 .756.132 1.452.396 2.088a5.425 5.425 0 001.134 1.656c.48.468 1.044.834 1.692 1.098a5.76 5.76 0 002.106.378c.72 0 1.392-.12 2.016-.36a4.79 4.79 0 001.71-1.152l.846.846a5.253 5.253 0 01-2.034 1.386 7.102 7.102 0 01-2.592.468zm10.626-.018c-.912 0-1.734-.204-2.466-.612-.72-.42-1.29-.99-1.71-1.71-.42-.732-.63-1.566-.63-2.502 0-.948.21-1.782.63-2.502.42-.72.99-1.284 1.71-1.692.72-.408 1.542-.612 2.466-.612.936 0 1.764.204 2.484.612a4.374 4.374 0 011.71 1.692c.42.72.63 1.554.63 2.502 0 .936-.21 1.77-.63 2.502a4.5 4.5 0 01-1.71 1.71c-.732.408-1.56.612-2.484.612zm0-1.134c.684 0 1.29-.15 1.818-.45a3.31 3.31 0 001.242-1.296c.312-.564.468-1.212.468-1.944 0-.744-.156-1.392-.468-1.944a3.185 3.185 0 00-1.242-1.278c-.528-.312-1.128-.468-1.8-.468-.672 0-1.272.156-1.8.468-.528.3-.948.726-1.26 1.278-.312.552-.468 1.2-.468 1.944 0 .732.156 1.38.468 1.944a3.44 3.44 0 001.26 1.296c.528.3 1.122.45 1.782.45zm19.24-8.496c.769 0 1.435.15 1.999.45a2.98 2.98 0 011.332 1.332c.324.6.486 1.356.486 2.268V276h-1.278v-5.364c0-.996-.24-1.746-.72-2.25-.468-.516-1.134-.774-1.998-.774-.648 0-1.212.138-1.692.414a2.73 2.73 0 00-1.098 1.17c-.252.504-.378 1.116-.378 1.836V276h-1.278v-5.364c0-.996-.24-1.746-.72-2.25-.48-.516-1.152-.774-2.016-.774-.636 0-1.194.138-1.674.414a2.7 2.7 0 00-1.116 1.17c-.252.504-.378 1.116-.378 1.836V276h-1.278v-9.45h1.224v2.556l-.198-.45a3.342 3.342 0 011.386-1.602c.648-.396 1.41-.594 2.286-.594.924 0 1.71.234 2.358.702.648.456 1.068 1.146 1.26 2.07l-.504-.198a3.693 3.693 0 011.458-1.854c.708-.48 1.554-.72 2.538-.72zm12.16 9.63c-.815 0-1.553-.186-2.213-.558a4.247 4.247 0 01-1.584-1.638c-.384-.72-.576-1.596-.576-2.628s.192-1.902.576-2.61c.384-.72.906-1.266 1.566-1.638.66-.372 1.404-.558 2.232-.558.9 0 1.704.204 2.412.612.72.396 1.284.96 1.692 1.692.408.72.612 1.554.612 2.502 0 .96-.204 1.8-.612 2.52a4.408 4.408 0 01-1.692 1.692c-.708.408-1.512.612-2.412.612zm-4.877 3.402V266.55h1.224v2.844l-.126 1.89.18 1.908v6.3h-1.278zm4.788-4.536c.672 0 1.272-.15 1.8-.45a3.44 3.44 0 001.26-1.296c.312-.564.468-1.212.468-1.944s-.156-1.374-.468-1.926a3.44 3.44 0 00-1.26-1.296c-.528-.312-1.128-.468-1.8-.468-.672 0-1.278.156-1.818.468a3.44 3.44 0 00-1.26 1.296c-.3.552-.45 1.194-.45 1.926s.15 1.38.45 1.944a3.44 3.44 0 001.26 1.296c.54.3 1.146.45 1.818.45zm11.425 1.134c-.984 0-1.848-.204-2.592-.612a4.597 4.597 0 01-1.746-1.71c-.42-.732-.63-1.566-.63-2.502 0-.936.198-1.764.594-2.484.408-.72.96-1.284 1.656-1.692.708-.42 1.5-.63 2.376-.63.888 0 1.674.204 2.358.612.696.396 1.242.96 1.638 1.692.396.72.594 1.554.594 2.502 0 .06-.006.126-.018.198v.198H95.89v-.954h7.542l-.504.378c0-.684-.15-1.29-.45-1.818a3.166 3.166 0 00-1.188-1.26c-.504-.3-1.086-.45-1.746-.45-.648 0-1.23.15-1.746.45-.516.3-.918.72-1.206 1.26-.288.54-.432 1.158-.432 1.854v.198c0 .72.156 1.356.468 1.908.324.54.768.966 1.332 1.278.576.3 1.23.45 1.962.45.576 0 1.11-.102 1.602-.306a3.332 3.332 0 001.296-.936l.72.828c-.42.504-.948.888-1.584 1.152a5.26 5.26 0 01-2.07.396zm9.837 0c-.888 0-1.572-.24-2.052-.72s-.72-1.158-.72-2.034v-8.874h1.278v8.802c0 .552.138.978.414 1.278.288.3.696.45 1.224.45.564 0 1.032-.162 1.404-.486l.45.918a2.354 2.354 0 01-.918.504 3.623 3.623 0 01-1.08.162zm-4.464-8.478v-1.062h5.85v1.062h-5.85zm8.789 8.388v-9.45h1.278V276h-1.278zm.648-11.538a.905.905 0 01-.666-.27.884.884 0 01-.27-.648c0-.252.09-.462.27-.63.18-.18.402-.27.666-.27a.94.94 0 01.666.252c.18.168.27.378.27.63 0 .264-.09.486-.27.666-.168.18-.39.27-.666.27zm7.174 11.628c-.888 0-1.572-.24-2.052-.72s-.72-1.158-.72-2.034v-8.874h1.278v8.802c0 .552.138.978.414 1.278.288.3.696.45 1.224.45.564 0 1.032-.162 1.404-.486l.45.918a2.354 2.354 0 01-.918.504 3.623 3.623 0 01-1.08.162zm-4.464-8.478v-1.062h5.85v1.062h-5.85zm12.306 8.478c-.912 0-1.734-.204-2.466-.612-.72-.42-1.29-.99-1.71-1.71-.42-.732-.63-1.566-.63-2.502 0-.948.21-1.782.63-2.502.42-.72.99-1.284 1.71-1.692.72-.408 1.542-.612 2.466-.612.936 0 1.764.204 2.484.612a4.374 4.374 0 011.71 1.692c.42.72.63 1.554.63 2.502 0 .936-.21 1.77-.63 2.502a4.5 4.5 0 01-1.71 1.71c-.732.408-1.56.612-2.484.612zm0-1.134c.684 0 1.29-.15 1.818-.45a3.31 3.31 0 001.242-1.296c.312-.564.468-1.212.468-1.944 0-.744-.156-1.392-.468-1.944a3.185 3.185 0 00-1.242-1.278c-.528-.312-1.128-.468-1.8-.468-.672 0-1.272.156-1.8.468-.528.3-.948.726-1.26 1.278-.312.552-.468 1.2-.468 1.944 0 .732.156 1.38.468 1.944a3.44 3.44 0 001.26 1.296c.528.3 1.122.45 1.782.45zm7.433 1.044v-9.45h1.224v2.574l-.126-.45c.264-.72.708-1.266 1.332-1.638.624-.384 1.398-.576 2.322-.576v1.242h-.144a.592.592 0 00-.144-.018c-.996 0-1.776.306-2.34.918-.564.6-.846 1.458-.846 2.574V276h-1.278zm10.856 0v-.918l5.238-5.13c.48-.468.84-.876 1.08-1.224.24-.36.402-.696.486-1.008.084-.312.126-.606.126-.882 0-.732-.252-1.308-.756-1.728-.492-.42-1.224-.63-2.196-.63-.744 0-1.404.114-1.98.342a3.725 3.725 0 00-1.458 1.062l-.918-.792c.492-.576 1.122-1.02 1.89-1.332.768-.312 1.626-.468 2.574-.468.852 0 1.59.138 2.214.414.624.264 1.104.654 1.44 1.17.348.516.522 1.122.522 1.818 0 .408-.06.81-.18 1.206-.108.396-.312.816-.612 1.26-.288.432-.714.924-1.278 1.476l-4.806 4.716-.36-.504h7.812V276h-8.838z" fill="#454545"/><path stroke="#DDDDE6" stroke-width="2" d="M24 242h156.333v56H24z"/><path fill="#fff" d="M180.333 242h156.333v56H180.333z"/><path d="M238.488 276v-11.88l.774.846h-3.618V263.4h4.626V276h-1.782zm13.44.144a8.251 8.251 0 01-2.592-.414c-.828-.276-1.506-.648-2.034-1.116l.828-1.422c.42.396.966.72 1.638.972a6.05 6.05 0 002.142.378c.96 0 1.698-.204 2.214-.612.516-.408.774-.954.774-1.638 0-.468-.114-.876-.342-1.224-.228-.348-.624-.612-1.188-.792-.552-.192-1.314-.288-2.286-.288h-2.862l.666-6.588h7.11v1.566h-6.444l.936-.882-.522 5.202-.936-.864h2.43c1.26 0 2.274.162 3.042.486.768.324 1.326.774 1.674 1.35.348.564.522 1.218.522 1.962 0 .72-.174 1.38-.522 1.98-.348.588-.876 1.062-1.584 1.422-.696.348-1.584.522-2.664.522zm11.416 0c-.984 0-1.866-.252-2.646-.756-.768-.504-1.38-1.236-1.836-2.196-.444-.96-.666-2.124-.666-3.492 0-1.368.222-2.532.666-3.492.456-.96 1.068-1.692 1.836-2.196.78-.504 1.662-.756 2.646-.756.972 0 1.848.252 2.628.756s1.392 1.236 1.836 2.196c.444.96.666 2.124.666 3.492 0 1.368-.222 2.532-.666 3.492-.444.96-1.056 1.692-1.836 2.196-.78.504-1.656.756-2.628.756zm0-1.602c.66 0 1.236-.18 1.728-.54.504-.36.894-.9 1.17-1.62.288-.72.432-1.614.432-2.682 0-1.068-.144-1.962-.432-2.682-.276-.72-.666-1.26-1.17-1.62-.492-.36-1.068-.54-1.728-.54-.66 0-1.242.18-1.746.54-.504.36-.9.9-1.188 1.62-.276.72-.414 1.614-.414 2.682 0 1.068.138 1.962.414 2.682.288.72.684 1.26 1.188 1.62.504.36 1.086.54 1.746.54zm12.006 1.602c-.984 0-1.866-.252-2.646-.756-.768-.504-1.38-1.236-1.836-2.196-.444-.96-.666-2.124-.666-3.492 0-1.368.222-2.532.666-3.492.456-.96 1.068-1.692 1.836-2.196.78-.504 1.662-.756 2.646-.756.972 0 1.848.252 2.628.756s1.392 1.236 1.836 2.196c.444.96.666 2.124.666 3.492 0 1.368-.222 2.532-.666 3.492-.444.96-1.056 1.692-1.836 2.196-.78.504-1.656.756-2.628.756zm0-1.602c.66 0 1.236-.18 1.728-.54.504-.36.894-.9 1.17-1.62.288-.72.432-1.614.432-2.682 0-1.068-.144-1.962-.432-2.682-.276-.72-.666-1.26-1.17-1.62-.492-.36-1.068-.54-1.728-.54-.66 0-1.242.18-1.746.54-.504.36-.9.9-1.188 1.62-.276.72-.414 1.614-.414 2.682 0 1.068.138 1.962.414 2.682.288.72.684 1.26 1.188 1.62.504.36 1.086.54 1.746.54z" fill="#454545"/><path stroke="#DDDDE6" stroke-width="2" d="M180.333 242h156.333v56H180.333z"/><path fill="#fff" d="M336.667 242h98v56h-98z"/><rect x="358.667" y="255.5" width="54" height="29" rx="14.5" fill="#DDDDE6"/><path d="M367.483 275v-9.8h1.498l6.146 7.546h-.742V265.2h1.806v9.8h-1.498l-6.146-7.546h.742V275h-1.806zm14.526.098c-.766 0-1.447-.163-2.044-.49a3.756 3.756 0 01-1.414-1.372c-.346-.579-.518-1.237-.518-1.974 0-.747.172-1.405.518-1.974a3.656 3.656 0 011.414-1.358c.597-.327 1.278-.49 2.044-.49.774 0 1.46.163 2.058.49a3.577 3.577 0 011.414 1.344c.345.569.518 1.232.518 1.988 0 .737-.173 1.395-.518 1.974a3.638 3.638 0 01-1.414 1.372c-.598.327-1.284.49-2.058.49zm0-1.498c.429 0 .812-.093 1.148-.28.336-.187.597-.457.784-.812.196-.355.294-.77.294-1.246 0-.485-.098-.901-.294-1.246a1.939 1.939 0 00-.784-.812 2.292 2.292 0 00-1.134-.28c-.43 0-.812.093-1.148.28a2.052 2.052 0 00-.784.812c-.196.345-.294.761-.294 1.246 0 .476.098.891.294 1.246.196.355.457.625.784.812.336.187.714.28 1.134.28zm9.905-6.16c.597 0 1.129.117 1.596.35.476.233.849.593 1.12 1.078.271.476.406 1.092.406 1.848V275h-1.75v-4.06c0-.663-.159-1.157-.476-1.484-.308-.327-.742-.49-1.302-.49-.411 0-.775.084-1.092.252a1.76 1.76 0 00-.742.756c-.168.327-.252.742-.252 1.246V275h-1.75v-7.476h1.666v2.016l-.294-.616c.261-.476.639-.84 1.134-1.092.504-.261 1.083-.392 1.736-.392zm8.87 7.658c-.831 0-1.559-.163-2.184-.49a3.707 3.707 0 01-1.442-1.372c-.336-.579-.504-1.237-.504-1.974 0-.747.163-1.405.49-1.974a3.614 3.614 0 011.372-1.358c.588-.327 1.255-.49 2.002-.49.728 0 1.376.159 1.946.476a3.446 3.446 0 011.344 1.344c.326.579.49 1.26.49 2.044 0 .075-.005.159-.014.252a2.5 2.5 0 01-.014.266h-6.23v-1.162h5.306l-.686.364a2.16 2.16 0 00-.266-1.134 2.04 2.04 0 00-.77-.77 2.14 2.14 0 00-1.106-.28c-.43 0-.808.093-1.134.28a2.03 2.03 0 00-.756.784c-.178.327-.266.714-.266 1.162v.28c0 .448.102.845.308 1.19.205.345.494.611.868.798.373.187.802.28 1.288.28a3.1 3.1 0 001.134-.196c.336-.131.634-.336.896-.616l.938 1.078a3.354 3.354 0 01-1.274.91c-.504.205-1.083.308-1.736.308z" fill="#636370"/><rect x="358.667" y="255.5" width="54" height="29" rx="14.5" stroke="#636370"/><path stroke="#DDDDE6" stroke-width="2" d="M336.667 242h98v56h-98z"/><path fill="#fff" d="M434.667 242H591v56H434.667z"/><path d="M466.833 260l2.975 5.906 6.536 1.004-4.698 4.654 1.065 6.526-5.878-3.03-5.878 3.03 1.066-6.526-4.698-4.654 6.536-1.004 2.974-5.906zm23 0l2.975 5.906 6.536 1.004-4.698 4.654 1.065 6.526-5.878-3.03-5.878 3.03 1.066-6.526-4.698-4.654 6.536-1.004 2.974-5.906zm23 0l2.975 5.906 6.536 1.004-4.698 4.654 1.065 6.526-5.878-3.03-5.878 3.03 1.066-6.526-4.698-4.654 6.536-1.004 2.974-5.906zm23 0l2.975 5.906 6.536 1.004-4.698 4.654 1.065 6.526-5.878-3.03-5.878 3.03 1.066-6.526-4.698-4.654 6.536-1.004 2.974-5.906z" fill="#F28100"/><path d="M558.833 260l2.975 5.906 6.536 1.004-4.698 4.654 1.065 6.526-5.878-3.03-5.878 3.03 1.066-6.526-4.698-4.654 6.536-1.004 2.974-5.906z" fill="#D5D5E4"/><path stroke="#DDDDE6" stroke-width="2" d="M434.667 242H591v56H434.667z"/></g><path stroke="#DDDDE6" stroke-width="2" d="M24 242h567v56H24z"/></g><rect x="24" y="25" width="567" height="273" rx="15" stroke="#DDDDE6" stroke-width="2"/><defs><clipPath id="clip0_122_531"><rect x="24" y="25" width="567" height="273" rx="15" fill="#fff"/></clipPath><clipPath id="clip1_122_531"><path fill="#fff" transform="translate(24 25)" d="M0 0h567v48H0z"/></clipPath><clipPath id="clip2_122_531"><path fill="#fff" d="M24 73h567v56H24z"/></clipPath><clipPath id="clip3_122_531"><path fill="#fff" d="M24 129h567v56H24z"/></clipPath><clipPath id="clip4_122_531"><path fill="#fff" d="M24 185h567v57H24z"/></clipPath><clipPath id="clip5_122_531"><path fill="#fff" d="M24 242h567v56H24z"/></clipPath></defs></svg>