<svg width="619" height="323" fill="none" xmlns="http://www.w3.org/2000/svg"><rect width="619" height="323" rx="20" fill="#fff"/><path d="M55 277h513M66 289V37" stroke="#37376D"/><path d="M67 186h501M67 127h501M67 66.5h501" stroke="#DDDDE6" stroke-dasharray="7 7"/><path d="M44.245 133.108c-1.008 0-1.877-.144-2.61-.432-.72-.288-1.277-.702-1.673-1.242-.385-.552-.577-1.2-.577-1.944 0-.72.187-1.332.559-1.836.383-.516.935-.912 1.655-1.188.733-.276 1.615-.414 2.647-.414 1.02 0 1.895.138 2.627.414.733.276 1.29.672 1.675 1.188.395.504.593 1.116.593 1.836 0 .744-.197 1.392-.593 1.944-.397.54-.96.954-1.693 1.242-.731.288-1.601.432-2.61.432zm0-1.098c1.117 0 1.986-.228 2.61-.684.637-.456.955-1.074.955-1.854s-.319-1.392-.955-1.836c-.623-.456-1.493-.684-2.61-.684-1.115 0-1.985.228-2.61.684-.623.444-.935 1.056-.935 1.836s.311 1.398.935 1.854c.625.456 1.495.684 2.61.684zm0-5.22c-.935 0-1.733-.126-2.393-.378-.648-.252-1.146-.612-1.494-1.08-.348-.48-.522-1.05-.522-1.71 0-.696.18-1.29.54-1.782.372-.504.888-.888 1.547-1.152.66-.264 1.434-.396 2.322-.396.889 0 1.663.132 2.323.396.672.264 1.194.648 1.566 1.152.371.492.557 1.086.557 1.782 0 .66-.174 1.23-.522 1.71-.347.468-.857.828-1.53 1.08-.66.252-1.458.378-2.394.378zm0-.864c.985 0 1.753-.204 2.305-.612.552-.408.828-.954.828-1.638 0-.72-.288-1.278-.864-1.674-.565-.408-1.32-.612-2.269-.612-.947 0-1.703.204-2.267.612-.565.396-.846.948-.846 1.656 0 .696.27 1.248.81 1.656.551.408 1.32.612 2.303.612zm-.354-65.634c1.116 0 2.058.252 2.826.756.768.492 1.35 1.206 1.746 2.142.396.936.594 2.07.594 3.402 0 1.416-.246 2.61-.738 3.582-.48.972-1.152 1.704-2.016 2.196-.864.492-1.866.738-3.006.738a7.892 7.892 0 01-1.62-.162 4.564 4.564 0 01-1.368-.522l.522-1.044c.324.216.696.372 1.116.468.432.084.876.126 1.332.126 1.356 0 2.436-.432 3.24-1.296.816-.864 1.224-2.154 1.224-3.87 0-.276-.018-.606-.054-.99a5.516 5.516 0 00-.198-1.152l.45.342a3.289 3.289 0 01-.774 1.602 3.727 3.727 0 01-1.44.99c-.564.228-1.194.342-1.89.342-.828 0-1.566-.156-2.214-.468a3.62 3.62 0 01-1.494-1.314c-.36-.564-.54-1.23-.54-1.998 0-.792.186-1.476.558-2.052a3.678 3.678 0 011.53-1.332c.66-.324 1.398-.486 2.214-.486zm.054 1.098c-.6 0-1.134.114-1.602.342a2.564 2.564 0 00-1.08.936c-.264.408-.396.894-.396 1.458 0 .828.282 1.488.846 1.98.576.492 1.35.738 2.322.738.648 0 1.212-.12 1.692-.36.492-.24.87-.57 1.134-.99.276-.42.414-.888.414-1.404 0-.468-.126-.906-.378-1.314-.252-.408-.624-.738-1.116-.99-.492-.264-1.104-.396-1.836-.396zM42.55 191l5.436-12.024.396.576h-7.794l.666-.63v2.988h-1.278v-3.51h9.252v.918L43.954 191H42.55zm2.583 58.108c-1.116 0-2.058-.246-2.826-.738-.768-.504-1.35-1.224-1.746-2.16-.396-.948-.594-2.082-.594-3.402 0-1.428.24-2.622.72-3.582.492-.972 1.17-1.704 2.034-2.196.864-.492 1.866-.738 3.006-.738a7.89 7.89 0 011.62.162c.516.108.972.282 1.368.522l-.522 1.044a3.076 3.076 0 00-1.116-.45 5.964 5.964 0 00-1.332-.144c-1.356 0-2.442.432-3.258 1.296-.804.864-1.206 2.154-1.206 3.87 0 .264.012.594.036.99.036.384.108.768.216 1.152l-.45-.342c.132-.624.39-1.152.774-1.584a3.64 3.64 0 011.44-1.008 5.09 5.09 0 011.89-.342c.84 0 1.578.156 2.214.468a3.62 3.62 0 011.494 1.314c.36.564.54 1.23.54 1.998 0 .78-.186 1.464-.558 2.052a3.778 3.778 0 01-1.548 1.35c-.648.312-1.38.468-2.196.468zm-.054-1.098c.6 0 1.128-.108 1.584-.324a2.665 2.665 0 001.098-.954c.264-.42.396-.906.396-1.458 0-.828-.288-1.488-.864-1.98-.564-.492-1.332-.738-2.304-.738-.648 0-1.212.12-1.692.36s-.858.57-1.134.99a2.446 2.446 0 00-.414 1.404c0 .456.126.894.378 1.314.252.408.624.744 1.116 1.008.504.252 1.116.378 1.836.378z" fill="#454545"/><path d="M66.5 258.5h45l28-28h22l49-49h26L280 138h38.5l29.5-29.5h66.5L432 91h137" stroke="#CBCBDD" stroke-width="2"/><path d="M66.5 258h25l14.5-14.5 13-13h92l11.5-11.5H244l17.5-17.5H293l34-34h54l13 13h28.5l13-13h34L489 187l40-40h40.5" stroke="#CBCBDD" stroke-width="2"/><path d="M66.5 237H92l7-7h89.5l14.5-14.5h60.5l11 11H338l11-11h51l9.5-9.5H460l12.5 12.5h29L514 206h54" stroke="#CBCBDD" stroke-width="2"/><path fill="#F28100" fill-opacity=".1" d="M196 37h35v240h-35z"/><path d="M196 37v240m35-240v240" stroke="#F28100" stroke-width="2"/><path fill="#F28100" fill-opacity=".1" d="M386 37h103v240H386z"/><path d="M386 37v240M489 37v240" stroke="#F28100" stroke-width="2"/><mask id="a" style="mask-type:alpha" maskUnits="userSpaceOnUse" x="66" y="90" width="504" height="170"><path d="M66.5 258.5h45l28-28h22l49-49h26L280 138h38.5l29.5-29.5h66.5L432 91h137M66.5 258h25l27.5-27.5h92l11.5-11.5H244l17.5-17.5H293l34-34h54l13 13h28.5l13-13h34L489 187l40-40h40.5m-503 90H92l7-7h89.5l14.5-14.5h60.5l11 11H338l11-11h51l9.5-9.5H460l12.5 12.5h29L514 206h54" stroke="#CBCBDD" stroke-width="2"/></mask><g mask="url(#a)" fill="#F28100"><path d="M231 37h-35v240h35V37zm258 0H386v240h103V37z"/></g><rect x="195" y="23" width="37" height="29" rx="14.5" fill="#F28100"/><path d="M204.546 42.137a6.475 6.475 0 01-1.66-.217c-.55-.153-1.016-.367-1.397-.642l.721-1.42c.305.222.66.397 1.065.527.405.13.813.195 1.226.195.465 0 .832-.092 1.099-.275a.869.869 0 00.401-.756.851.851 0 00-.355-.721c-.237-.176-.619-.264-1.145-.264h-.848V37.34l2.233-2.531.206.664h-4.203v-1.489h5.612v1.203l-2.222 2.53-.939-.538h.538c.985 0 1.73.222 2.234.665.504.443.756 1.011.756 1.706 0 .45-.119.874-.355 1.271-.237.39-.6.707-1.088.951-.489.244-1.115.366-1.879.366zm4.053-.137v-1.203l3.093-2.92c.244-.221.423-.42.538-.595.114-.176.191-.336.229-.481a1.34 1.34 0 00.069-.401c0-.32-.111-.565-.332-.733-.214-.176-.531-.264-.951-.264-.336 0-.649.065-.939.195-.283.13-.523.332-.722.607l-1.351-.87c.305-.458.733-.821 1.283-1.088.549-.267 1.183-.401 1.901-.401.595 0 1.114.1 1.557.298.451.19.798.462 1.042.813.252.351.378.77.378 1.26 0 .26-.034.519-.103.778-.061.252-.191.52-.389.802-.191.283-.473.6-.848.95l-2.565 2.417-.355-.676h4.524V42h-6.059zm8.093 0l5.474-8.017h1.363L218.055 42h-1.363zm.698-3.688c-.389 0-.733-.087-1.03-.263a1.964 1.964 0 01-.71-.767c-.168-.336-.252-.73-.252-1.18 0-.45.084-.84.252-1.168.175-.328.412-.584.71-.767a1.922 1.922 0 011.03-.275c.39 0 .733.091 1.031.275.298.183.531.439.699.767.168.328.252.718.252 1.168 0 .45-.084.844-.252 1.18a1.889 1.889 0 01-.699.767 1.99 1.99 0 01-1.031.263zm0-.939a.718.718 0 00.607-.309c.153-.214.229-.534.229-.962 0-.427-.076-.744-.229-.95a.71.71 0 00-.607-.321c-.244 0-.446.107-.607.32-.152.207-.229.523-.229.951 0 .42.077.737.229.95.161.214.363.321.607.321zm5.44 4.719c-.381 0-.725-.088-1.03-.264a1.889 1.889 0 01-.699-.767c-.168-.336-.252-.73-.252-1.18 0-.45.084-.84.252-1.168.168-.328.401-.584.699-.767a1.962 1.962 0 011.03-.275c.397 0 .745.092 1.042.275.298.183.531.439.699.767.168.328.252.718.252 1.168 0 .45-.084.844-.252 1.18a1.889 1.889 0 01-.699.767 2.01 2.01 0 01-1.042.264zm0-.94a.718.718 0 00.607-.309c.153-.214.229-.534.229-.962 0-.42-.076-.736-.229-.95a.71.71 0 00-.607-.32c-.244 0-.446.106-.607.32-.152.206-.229.523-.229.95 0 .428.077.748.229.962a.74.74 0 00.607.31z" fill="#fff"/><rect x="386" y="23" width="103" height="29" rx="14.5" fill="#F28100"/><path d="M428.768 42.137c-.672 0-1.26-.099-1.764-.297-.504-.207-.897-.493-1.179-.86a2.104 2.104 0 01-.424-1.305c0-.496.137-.916.412-1.26.283-.35.676-.614 1.18-.79.504-.183 1.095-.275 1.775-.275.687 0 1.283.092 1.786.275.512.176.905.44 1.18.79.282.344.424.764.424 1.26s-.142.932-.424 1.306c-.282.366-.68.652-1.191.859-.504.198-1.096.297-1.775.297zm0-1.362c.466 0 .832-.103 1.099-.31a1 1 0 00.413-.847c0-.359-.138-.638-.413-.836-.267-.206-.633-.31-1.099-.31-.458 0-.821.104-1.088.31-.267.198-.401.477-.401.836s.134.641.401.847c.267.206.63.31 1.088.31zm0-2.486c-.619 0-1.161-.084-1.626-.252-.458-.167-.817-.412-1.077-.733a1.863 1.863 0 01-.378-1.168c0-.473.13-.878.39-1.214.259-.343.622-.606 1.088-.79.465-.19 1-.286 1.603-.286.618 0 1.157.095 1.615.286.465.184.828.447 1.088.79.267.336.4.741.4 1.214 0 .45-.129.84-.389 1.168-.252.321-.611.566-1.076.733-.466.168-1.012.252-1.638.252zm0-1.087c.389 0 .695-.088.916-.264a.86.86 0 00.344-.721c0-.321-.119-.57-.355-.745-.229-.175-.531-.263-.905-.263-.367 0-.664.087-.893.263-.229.176-.344.424-.344.745 0 .305.111.545.332.721.222.176.523.264.905.264zm6.965 4.935a6.482 6.482 0 01-1.661-.217 4.528 4.528 0 01-1.397-.642l.733-1.42a3.991 3.991 0 002.279.722c.466 0 .832-.092 1.099-.275a.877.877 0 00.401-.767.967.967 0 00-.16-.55c-.107-.16-.298-.282-.573-.367-.267-.083-.645-.125-1.134-.125h-2.05l.413-4.513h4.89v1.49h-4.226l.962-.848-.286 3.218-.962-.848h1.695c.794 0 1.431.111 1.912.332.489.214.844.508 1.065.882.222.374.332.798.332 1.271 0 .474-.118.913-.355 1.318-.236.396-.603.721-1.099.973-.489.244-1.115.366-1.878.366zm5.13-.137l5.474-8.017h1.363L442.226 42h-1.363zm.698-3.688a1.99 1.99 0 01-1.03-.263 1.964 1.964 0 01-.71-.767c-.168-.336-.252-.73-.252-1.18 0-.45.084-.84.252-1.168.175-.328.412-.584.71-.767a1.925 1.925 0 011.03-.275c.39 0 .733.091 1.031.275.298.183.531.439.699.767.168.328.252.718.252 1.168 0 .45-.084.844-.252 1.18a1.889 1.889 0 01-.699.767 1.99 1.99 0 01-1.031.263zm0-.939a.718.718 0 00.607-.309c.153-.214.23-.534.23-.962 0-.427-.077-.744-.23-.95a.71.71 0 00-.607-.321c-.244 0-.446.107-.606.32-.153.207-.23.523-.23.951 0 .42.077.737.23.95.16.214.362.321.606.321zm5.44 4.719c-.381 0-.725-.088-1.03-.264a1.889 1.889 0 01-.699-.767c-.168-.336-.252-.73-.252-1.18 0-.45.084-.84.252-1.168.168-.328.401-.584.699-.767a1.962 1.962 0 011.03-.275c.397 0 .745.092 1.043.275.297.183.53.439.698.767.168.328.252.718.252 1.168 0 .45-.084.844-.252 1.18a1.893 1.893 0 01-.698.767 2.017 2.017 0 01-1.043.264zm0-.94a.718.718 0 00.607-.309c.153-.214.229-.534.229-.962 0-.42-.076-.736-.229-.95a.71.71 0 00-.607-.32c-.244 0-.446.106-.607.32-.152.206-.229.523-.229.95 0 .428.077.748.229.962a.74.74 0 00.607.31z" fill="#fff"/></svg>