<svg width="80" height="80" fill="none" xmlns="http://www.w3.org/2000/svg"><g clip-path="url(#clip0_88_6140)" fill="#0FA7F0"><path d="M75.269 3.922H55.023a4.737 4.737 0 00-4.731 4.731v13.051c0 .262-.017.521-.046.778-5.327-4.56-12.24-7.32-19.785-7.32-12.738 0-24.446 8.228-28.712 20.24A30.592 30.592 0 000 45.623C0 59.476 9.73 71.914 23.2 75.21a1.563 1.563 0 00.743-3.035C11.854 69.217 3.125 58.053 3.125 45.624c0-6.78 2.452-13.18 6.934-18.194l8.427 8.426a15.335 15.335 0 00-3.477 9.767c0 8.52 6.932 15.45 15.452 15.45 7.992 0 14.587-6.099 15.373-13.887h11.918c-.314 5.683-2.345 11.01-5.924 15.486-3.791 4.744-9.112 8.13-14.982 9.534a1.562 1.562 0 00.727 3.04c6.543-1.566 12.473-5.338 16.696-10.622 4.352-5.446 6.653-12.016 6.653-19 0-7.95-3.062-15.197-8.067-20.626a9.862 9.862 0 00.562-3.293v-1.521a4.71 4.71 0 001.606.28H75.27A4.737 4.737 0 0080 15.735V8.652a4.737 4.737 0 00-4.731-4.731zm-23.78 24.255a27.39 27.39 0 016.262 15.884H45.834c-.729-7.197-6.614-13.082-13.81-13.81V18.332c6.317.358 12.39 2.96 17.025 7.266a6.811 6.811 0 01-.727.86l-2.327 2.328c-.61.61-.61 1.599 0 2.21a1.577 1.577 0 002.21 0l2.327-2.328a9.99 9.99 0 00.707-.788l.25.296zm-29.873 4.772c-.315.22-.623.454-.92.698l-8.428-8.426a27.335 27.335 0 0116.63-6.888v11.916a15.386 15.386 0 00-7.282 2.7zm8.845 25c-6.797 0-12.327-5.53-12.327-12.326 0-6.721 5.604-12.326 12.327-12.326 6.797 0 12.327 5.53 12.327 12.326s-5.53 12.325-12.327 12.325zm46.414-42.216c0 .886-.72 1.607-1.606 1.607H55.023a1.608 1.608 0 01-1.606-1.607v-7.08c0-.886.72-1.606 1.606-1.606H75.27c.885 0 1.606.72 1.606 1.606v7.08z"/><path d="M71.792 10.6H59.137a1.562 1.562 0 100 3.124h12.655a1.562 1.562 0 100-3.125zM31.903 73.922c-.538-1.29-2.436-1.245-2.913.072a1.576 1.576 0 00.51 1.758c.508.394 1.22.435 1.77.103a1.574 1.574 0 00.633-1.933z"/></g><defs><clipPath id="clip0_88_6140"><path fill="#fff" d="M0 0h80v80H0z"/></clipPath></defs></svg>