<svg width="80" height="73" fill="none" xmlns="http://www.w3.org/2000/svg"><path d="M74.828 0H5.171A5.178 5.178 0 000 5.172v62.05a5.178 5.178 0 005.173 5.172h69.655A5.178 5.178 0 0080 67.222V5.172A5.179 5.179 0 0074.828 0zM3.124 5.172a2.05 2.05 0 012.048-2.047h69.655a2.05 2.05 0 012.047 2.047v6.402H3.125V5.172zm73.75 62.05a2.05 2.05 0 01-2.047 2.047H5.171a2.05 2.05 0 01-2.047-2.047V14.699h73.75v52.523z" fill="#0FA7F0"/><path d="M7.94 5.963c-.668.125-1.18.707-1.25 1.378a1.577 1.577 0 00.958 1.595c1.335.554 2.657-.93 1.967-2.193a1.577 1.577 0 00-1.675-.78zm7.137.233c-1.179-.786-2.752.352-2.373 1.714a1.58 1.58 0 001.429 1.145 1.575 1.575 0 001.532-1c.258-.67.017-1.464-.588-1.86zm6.703.701c-.524-1.28-2.401-1.247-2.898.031-.515 1.325.94 2.608 2.19 1.943a1.574 1.574 0 00.708-1.974zm37.24 37.786c3.213 0 6.235-1.252 8.507-3.524a11.948 11.948 0 003.526-8.509c0-3.213-1.252-6.235-3.526-8.508a11.958 11.958 0 00-8.507-3.523 11.953 11.953 0 00-8.508 3.523 11.954 11.954 0 00-3.525 8.508c0 6.635 5.398 12.033 12.033 12.033zm7.164-17.328a8.84 8.84 0 011.744 5.296c0 1.816-.56 3.608-1.602 5.095l-5.744-5.743v-8.12a8.957 8.957 0 015.602 3.472zm-13.462-1.003a8.837 8.837 0 014.735-2.47v8.768c0 .415.165.812.458 1.105l6.2 6.2a8.84 8.84 0 01-5.095 1.603c-4.912 0-8.908-3.996-8.908-8.907 0-2.38.927-4.616 2.61-6.299zM48.55 53.599h20.94a1.562 1.562 0 100-3.125H48.55a1.563 1.563 0 000 3.125zm-39.019 0h29.063a1.562 1.562 0 000-3.125h-2.06V27.386c0-.863-.699-1.563-1.562-1.563h-7.745c-.863 0-1.562.7-1.562 1.563v23.088h-3.99V37.368c0-.863-.7-1.563-1.563-1.563h-7.745c-.863 0-1.563.7-1.563 1.563v13.106H9.532a1.562 1.562 0 100 3.125zm19.259-24.65h4.62v21.525h-4.62V28.948zM13.93 38.93h4.62v11.544h-4.62V38.93zm55.56 20.34H16.777a1.562 1.562 0 100 3.124H69.49a1.562 1.562 0 100-3.125zM8.089 61.43c.256.616.89 1.007 1.557.96a1.574 1.574 0 001.39-1.142c.367-1.33-1.121-2.463-2.308-1.755a1.576 1.576 0 00-.64 1.937z" fill="#0FA7F0"/></svg>