<svg width="80" height="80" fill="none" xmlns="http://www.w3.org/2000/svg"><path d="M72.706 52.775a5.298 5.298 0 00-6.24.7l-3.672-2.12A25.177 25.177 0 0065.487 40c0-4.08-.971-7.938-2.693-11.356l3.674-2.12c1.682 1.555 4.252 1.847 6.238.701A5.295 5.295 0 0074.642 20a5.296 5.296 0 00-7.225-1.936 5.299 5.299 0 00-2.513 5.754l-3.684 2.127c-4.303-6.429-11.468-10.787-19.657-11.239v-4.363a5.299 5.299 0 003.727-5.054A5.295 5.295 0 0040 0a5.295 5.295 0 00-5.289 5.29 5.299 5.299 0 003.727 5.053v4.383c-8.116.545-15.195 4.928-19.436 11.346l-3.904-2.254a5.298 5.298 0 00-2.513-5.754A5.295 5.295 0 005.36 20a5.295 5.295 0 001.936 7.225c1.978 1.155 4.561.848 6.237-.702l3.91 2.258A25.179 25.179 0 0014.82 40c0 4.026.946 7.836 2.624 11.22l-3.907 2.255a5.298 5.298 0 00-6.24-.7A5.295 5.295 0 005.36 60c1.439 2.493 4.729 3.377 7.225 1.936a5.299 5.299 0 002.513-5.754l3.904-2.254c4.24 6.418 11.32 10.801 19.436 11.346v4.383a5.299 5.299 0 00-3.727 5.054A5.295 5.295 0 0040.001 80a5.295 5.295 0 005.29-5.29 5.299 5.299 0 00-3.728-5.053v-4.363c8.19-.452 15.354-4.81 19.656-11.24l3.684 2.128a5.299 5.299 0 002.514 5.754c2.496 1.441 5.786.557 7.225-1.936a5.295 5.295 0 00-1.936-7.225zM68.979 20.77a2.167 2.167 0 012.957.793 2.167 2.167 0 01-.793 2.956 2.167 2.167 0 01-2.956-.792 2.167 2.167 0 01.792-2.957zM40 3.125c1.193 0 2.164.97 2.164 2.164 0 1.194-.97 2.165-2.164 2.165a2.167 2.167 0 01-2.165-2.165c0-1.193.971-2.164 2.165-2.164zM8.858 24.519a2.167 2.167 0 01-.792-2.956 2.167 2.167 0 012.957-.793 2.167 2.167 0 01.792 2.957 2.167 2.167 0 01-2.957.792zm2.165 34.71a2.167 2.167 0 01-2.957-.791 2.167 2.167 0 01.792-2.957 2.167 2.167 0 012.957.792 2.167 2.167 0 01-.792 2.957zM40 76.876a2.167 2.167 0 01-2.165-2.164c0-1.194.971-2.165 2.165-2.165 1.193 0 2.164.971 2.164 2.165 0 1.193-.97 2.164-2.164 2.164zm.152-14.666c-12.246 0-22.21-9.963-22.21-22.209s9.964-22.209 22.21-22.209S62.36 27.754 62.36 40 52.4 62.209 40.153 62.209zm31.783-3.772a2.167 2.167 0 01-2.957.793 2.167 2.167 0 01-.792-2.957 2.167 2.167 0 012.956-.792 2.167 2.167 0 01.793 2.956z" fill="#0FA7F0"/><path d="M50.825 24.581H29.48c-.863 0-1.562.7-1.562 1.563v7.008a1.563 1.563 0 003.125 0v-5.446h18.22v24.588h-18.22V46.9a1.563 1.563 0 00-3.125 0v6.956c0 .863.7 1.563 1.562 1.563h21.345c.863 0 1.563-.7 1.563-1.563V26.144c0-.863-.7-1.563-1.563-1.563z" fill="#0FA7F0"/><path d="M36.584 34.415h7.274a1.563 1.563 0 000-3.125h-7.273a1.563 1.563 0 000 3.125zm0 7.063h7.274a1.563 1.563 0 000-3.125h-7.273a1.563 1.563 0 000 3.125zm0 7.064h7.274a1.562 1.562 0 100-3.125h-7.273a1.563 1.563 0 000 3.125zm-8.404-7.675c.77 1.144 2.596.762 2.838-.6.255-1.434-1.513-2.396-2.587-1.425a1.577 1.577 0 00-.25 2.025z" fill="#0FA7F0"/></svg>