<svg width="64" height="80" fill="none" xmlns="http://www.w3.org/2000/svg"><path d="M59.603 23.83h-7.535c.027-.017.05-.037.078-.052l2.022-1.168c2.282-1.317 3.092-4.324 1.772-6.61l-3.772-6.533a4.845 4.845 0 00-6.61-1.772l-2.025 1.169c-1.232.711-2.922-.266-2.922-1.687V4.84A4.845 4.845 0 0035.77 0h-7.543a4.845 4.845 0 00-4.84 4.84v2.337c0 1.42-1.689 2.398-2.922 1.687l-2.024-1.169a4.845 4.845 0 00-6.61 1.772L8.06 15.999a4.845 4.845 0 001.77 6.611l2.023 1.168c.027.016.05.035.077.052H4.397A4.15 4.15 0 00.25 27.975v36.832a4.152 4.152 0 004.146 4.146h19.572l-.666 5.715a2.483 2.483 0 01-2.47 2.203c-.033.002-.066 0-.1.004h-1.569a1.563 1.563 0 000 3.125h25.673a1.563 1.563 0 000-3.125h-1.57a.86.86 0 00-.1-.004 2.483 2.483 0 01-2.468-2.203l-.666-5.715h19.57a4.152 4.152 0 004.148-4.146V27.975a4.15 4.15 0 00-4.147-4.145zm-33.74 53.045a5.6 5.6 0 00.543-1.85l.708-6.072h9.772l.707 6.071c.076.661.264 1.284.544 1.851H25.863zm2.429-50.166h7.415c.863 0 1.563-.7 1.563-1.562v-7.121a9.232 9.232 0 013.916 7.525c0 1.81-.527 3.562-1.525 5.066a9.194 9.194 0 01-3.935 3.332 1.563 1.563 0 00-.88 1.807l2.631 10.496a1.731 1.731 0 01-1.706 1.554h-7.543a1.731 1.731 0 01-1.706-1.553l2.632-10.497a1.562 1.562 0 00-.882-1.808 9.195 9.195 0 01-5.459-8.397c0-3.03 1.509-5.83 3.916-7.525v7.12c0 .864.7 1.563 1.563 1.563zm-16.898-6.805a1.717 1.717 0 01-.628-2.342l3.772-6.533a1.717 1.717 0 012.342-.627l2.024 1.168c3.285 1.897 7.61-.61 7.61-4.393V4.84c0-.946.77-1.715 1.715-1.715h7.542c.946 0 1.715.77 1.715 1.715v2.337c0 3.784 4.324 6.29 7.61 4.393l2.024-1.168a1.717 1.717 0 012.342.627l3.771 6.533c.468.81.18 1.876-.627 2.342l-2.023 1.168c-1.515.875-2.436 2.448-2.49 4.23-.106 1.834.91 3.646 2.49 4.56l2.023 1.166a1.73 1.73 0 01.628 2.343l-3.772 6.532a1.73 1.73 0 01-2.342.627l-2.024-1.169c-1.909-1.102-4.327-.77-5.951.692l-.966-3.853a12.317 12.317 0 004.088-3.857 12.254 12.254 0 002.044-6.792c0-5.141-3.24-9.787-8.064-11.56a1.562 1.562 0 00-2.102 1.467v8.127h-4.29v-8.128a1.562 1.562 0 00-2.102-1.466c-4.823 1.773-8.064 6.419-8.064 11.56 0 4.417 2.369 8.465 6.133 10.65l-.966 3.851c-1.627-1.463-4.043-1.793-5.951-.691l-2.026 1.169a1.737 1.737 0 01-2.34-.628l-3.772-6.533a1.73 1.73 0 01.627-2.341l2.024-1.168c1.581-.913 2.587-2.72 2.489-4.553-.052-1.784-.973-3.36-2.49-4.236l-2.023-1.167zm49.23 44.902c0 .564-.458 1.022-1.021 1.022H4.397a1.023 1.023 0 01-1.022-1.022v-4.055h21.477a1.563 1.563 0 000-3.125H3.375V27.975c0-.563.458-1.02 1.021-1.02h7.732c-.096.082-.144.124-.274.199L9.83 28.322c-2.282 1.317-3.09 4.327-1.771 6.61l3.77 6.534c1.318 2.281 4.326 3.09 6.612 1.77l2.024-1.168c1.233-.711 2.923.266 2.923 1.688v2.337c0 2.633 2.207 4.84 4.839 4.84h7.544c2.631 0 4.839-2.207 4.839-4.84v-2.338c0-1.42 1.69-2.398 2.922-1.687l2.024 1.169c2.285 1.319 5.294.511 6.611-1.771l3.772-6.533c1.32-2.287.51-5.294-1.772-6.611l-2.022-1.168a1.505 1.505 0 01-.275-.2h7.732c.563 0 1.022.459 1.022 1.021v29.651h-21.97a1.563 1.563 0 000 3.125h21.97v4.055z" fill="#0FA7F0"/><path d="M33.286 58.59c-.537-1.287-2.44-1.248-2.912.072a1.576 1.576 0 00.51 1.758 1.575 1.575 0 001.77.104c.653-.395.92-1.23.632-1.934z" fill="#0FA7F0"/></svg>