<svg width="80" height="80" fill="none" xmlns="http://www.w3.org/2000/svg"><path d="M79.68 70.868a1.576 1.576 0 00-.044-1.96L76.2 64.844a1.562 1.562 0 10-2.387 2.016l1.263 1.496h-7.05V55.169a1.563 1.563 0 00-3.125 0v13.186h-6.824V30.34h6.824v10.835a1.563 1.563 0 003.125 0V28.778c0-.863-.7-1.562-1.562-1.562h-9.95c-.863 0-1.562.7-1.562 1.562v39.577h-6.6v-32.52c0-.864-.7-1.563-1.563-1.563H36.623c-.863 0-1.563.7-1.563 1.562v32.52h-6.033v-32.52c0-.863-.699-1.562-1.562-1.562H17.07c-.864 0-1.563.7-1.563 1.562v32.52h-6.13V6.309l1.495 1.263a1.563 1.563 0 102.017-2.387L8.823 1.749a1.585 1.585 0 00-2.017 0L2.74 5.184a1.563 1.563 0 00-.186 2.202c.549.65 1.552.735 2.202.185l1.495-1.263v62.047H1.563a1.563 1.563 0 100 3.125h4.689v5.57a1.563 1.563 0 103.125 0v-5.57h65.7l-1.263 1.495a1.562 1.562 0 00.185 2.202c.65.55 1.653.465 2.202-.185l3.435-4.066.044-.058zm-61.048-2.513V37.397h7.27v30.958h-7.27zm19.553 0V37.397h7.042v30.958h-7.042z" fill="#0FA7F0"/><path d="M16.288 27.578H35.21c.58 0 1.168-.013 1.744-.04a39.59 39.59 0 0025.144-10.454l3.207 3.208c.962.962 2.668.257 2.668-1.105V5.08c0-.862-.698-1.56-1.56-1.563l-14.14-.033c-1.361-.003-2.072 1.703-1.108 2.668l3.168 3.168a55.082 55.082 0 01-16.85 10.917 55.118 55.118 0 01-21.197 4.217 1.562 1.562 0 100 3.125zm22.393-4.454a58.228 58.228 0 0018.984-12.685 1.578 1.578 0 000-2.21l-1.613-1.612 8.797.02v8.777l-1.621-1.621a1.562 1.562 0 00-2.208-.003 36.48 36.48 0 01-25.81 10.663h-.05a59.323 59.323 0 003.52-1.33zm29.227 24.339a1.576 1.576 0 00-1.558-.96c-.678.05-1.26.551-1.41 1.215-.307 1.365 1.279 2.42 2.424 1.62a1.575 1.575 0 00.544-1.875z" fill="#0FA7F0"/></svg>