<svg width="80" height="75" fill="none" xmlns="http://www.w3.org/2000/svg"><path d="M74.967 0H45.978a1.563 1.563 0 000 3.125h28.99a1.91 1.91 0 011.907 1.906v41.411H3.125V5.032a1.91 1.91 0 011.908-1.907H32.24a1.563 1.563 0 000-3.125H5.033A5.038 5.038 0 000 5.031v50.086a5.038 5.038 0 005.033 5.033h25.564l-.963 8.268a3.87 3.87 0 01-3.848 3.434h-.004c-.013.002-.043 0-.064 0l-.05.005h-2.123a1.563 1.563 0 000 3.125h32.91a1.563 1.563 0 000-3.125h-2.124c-.016-.001-.033-.004-.05-.004l-.061-.001h-.006a3.87 3.87 0 01-3.848-3.434v-.004l-.963-8.264h25.564A5.038 5.038 0 0080 55.117V5.031A5.038 5.038 0 0074.967 0zM47.262 68.774a6.98 6.98 0 001.125 3.083H31.614a6.972 6.972 0 001.124-3.082l1.005-8.625h12.514l1.005 8.624zm29.613-13.657a1.91 1.91 0 01-1.908 1.908H5.033a1.91 1.91 0 01-1.908-1.908v-5.55h73.75v5.55z" fill="#0FA7F0"/><path d="M67.915 36.15a14.849 14.849 0 004.379-10.57c0-8.241-6.706-14.946-14.948-14.946-8.24 0-14.945 6.705-14.945 14.947 0 8.24 6.704 14.945 14.945 14.945 3.993 0 7.747-1.554 10.57-4.376zm1.24-10.023a11.801 11.801 0 01-2.419 6.634l-7.827-7.827V13.865c5.79.77 10.26 5.873 10.26 11.716 0 .183-.005.365-.013.546zm-23.63-.546c0-5.989 4.477-10.948 10.259-11.716v11.716c0 .414.165.812.458 1.105l8.284 8.284a11.73 11.73 0 01-7.18 2.431c-6.517 0-11.82-5.302-11.82-11.82zm-20.096-.001v11.748h-4.386V13.792c0-.863-.7-1.562-1.563-1.562h-7.722c-.862 0-1.562.7-1.562 1.562v23.536h-1.15a1.563 1.563 0 000 3.125h28.27a1.563 1.563 0 000-3.125h-1.04V25.58c0-.863-.7-1.563-1.563-1.563h-7.722c-.863 0-1.562.7-1.562 1.563zM13.32 37.328V15.355h4.597v21.973H13.32zm15.233-10.186h4.597v10.186h-4.597V27.142zM37.75 2.16a1.576 1.576 0 002.04.845 1.577 1.577 0 00.846-2.041 1.577 1.577 0 00-2.041-.845 1.577 1.577 0 00-.845 2.04z" fill="#0FA7F0"/></svg>