<svg width="607" height="605" fill="none" xmlns="http://www.w3.org/2000/svg"><g clip-path="url(#clip0_88_7882)"><path d="M7.987 500.96l169.933 99.102c11.555 6.641 25.829 6.641 37.215 0l383.708-218.978c10.706-6.13 10.706-21.626 0-27.756L426.191 252.694a31.55 31.55 0 00-31.947 0L7.987 473.204c-10.706 6.301-10.706 21.626 0 27.756z" fill="#F4F7F9"/><path d="M7.987 414.118L177.92 513.22c11.555 6.641 25.829 6.641 37.215 0l383.708-218.978a15.987 15.987 0 007.987-13.793v-32.353l-188.286-86.501a31.55 31.55 0 00-31.947 0L0 367.972v32.353a15.987 15.987 0 007.987 13.793z" fill="#D3DAE8"/><path d="M7.987 414.118L177.92 513.22c11.555 6.641 25.829 6.641 37.215 0l383.708-218.978a15.987 15.987 0 007.987-13.793v-32.353l-188.286-86.501a31.55 31.55 0 00-31.947 0L0 367.972v32.353a15.987 15.987 0 007.987 13.793z" fill="#D3DAE8"/><path d="M7.987 381.765l169.933 99.102c11.555 6.641 25.829 6.641 37.215 0l383.708-218.979c10.706-6.13 10.706-21.625 0-27.755L426.361 133.498a31.554 31.554 0 00-31.947 0L7.987 354.009c-10.706 6.301-10.706 21.626 0 27.756z" fill="#EDF0F2"/><path d="M316.925 282.662c-43.843-25.371-114.705-25.541-158.208-.34-13.255 7.662-22.601 16.857-27.699 26.734l107.058 19.241-78.849 45.635c43.843 25.371 114.705 25.542 158.207.34 43.673-25.201 43.333-66.238-.509-91.61z" fill="#6FB8FD"/><path d="M56.248 342.941s.17 13.112 0 19.242c-.34 16.857 10.706 33.885 32.967 46.826l78.849-45.634v-18.901l-111.816-1.533z" fill="#FFBE33"/><path d="M316.925 301.563c-43.843-25.371-114.705-25.542-158.208-.34-10.876 6.3-27.699 7.833-27.699 7.833v18.9l107.058 19.242-78.849 26.734v18.901c43.843 25.371 114.705 25.541 158.207.34 21.242-12.26 32.118-28.266 32.457-44.443v-20.603s-12.065-14.474-32.966-26.564z" fill="#F9A01A"/><path d="M238.076 328.297l-107.058-19.241v18.901l82.248 14.814 24.81-14.474z" fill="#F9A01A"/><path d="M61.006 325.232c-11.725 22.137-2.21 47.338 28.209 64.877l78.848-45.635-107.057-19.242z" fill="#FFE264"/><path d="M168.064 363.375v-18.901l-78.85 45.634v18.901l78.85-45.634z" fill="#F9A01A"/><path d="M316.925 282.662c-43.843-25.371-114.705-25.541-158.208-.34-13.255 7.662-22.601 16.857-27.699 26.734l107.058 19.241-78.849 45.635c43.843 25.371 114.705 25.542 158.207.34 43.673-25.201 43.333-66.238-.509-91.61z" fill="#FFE264"/><path d="M264.585 391.3v18.901c19.372-2.724 37.895-8.343 53.019-17.027 3.739-2.214 7.137-4.428 10.196-6.812v-18.901l-89.555-39.164 26.34 63.003z" fill="#F9A01A"/><path d="M238.076 328.297l26.339 63.003c19.373-2.724 37.895-8.343 53.019-17.027 3.739-2.214 7.138-4.428 10.196-6.812l-89.554-39.164z" fill="#FFE264"/><path opacity=".1" d="M89.215 409.009v-18.901l78.849-45.634" stroke="#fff" stroke-miterlimit="10" stroke-linecap="round" stroke-linejoin="round"/><path d="M440.636 37.291v142.012M502.151 72.88v141.5m61.516-35.077L379.29 72.539" stroke="#D3DAE8" stroke-width="2" stroke-miterlimit="10" stroke-linecap="round" stroke-linejoin="round"/><path d="M411.917 129.241l14.615 17.198c1.189 1.363 3.058 1.703 4.758.852l25.999-14.474 40.444 21.796c.51.34 1.19.511 1.87.511.509 0 .849 0 1.359-.171l44.013-16.346 3.228 17.879 4.419-2.384v-25.031l-21.412-12.43-4.418 2.384 14.784 11.578-43.163 16.177-40.104-21.285c-1.19-.681-2.549-.681-3.569 0l-24.13 13.622-12.745-14.473-5.948 4.597z" fill="#C1C9D6"/><path d="M408.178 132.306l14.105 16.517c1.189 1.363 3.059 1.703 4.758.852l26-14.474 40.444 21.796c.509.34 1.189.511 1.869.511.51 0 .849 0 1.359-.171l44.013-16.347v15.496h7.477v-24.861l-21.752-12.43-3.738 6.641 14.444 8.343-41.803 15.496-40.784-21.966c-1.19-.681-2.549-.681-3.569 0l-25.15 13.963-11.895-13.963-5.778 4.597z" fill="#D3DAE8"/><path d="M490.086 162.787c-1.699 0-2.889 1.362-2.889 3.575 0 3.236 2.379 7.322 5.098 8.855.85.511 1.699.681 2.379.681 1.699 0 2.889-1.362 2.889-3.576 0-3.235-2.379-7.322-5.098-8.854-1.02-.341-1.699-.681-2.379-.681z" stroke="#D3DAE8" stroke-width="2" stroke-miterlimit="10" stroke-linecap="round" stroke-linejoin="round"/><path d="M456.27 105.743c-1.699 0-2.889 1.362-2.889 3.576 0 3.235 2.379 7.322 5.098 8.855.85.51 1.699.681 2.379.681 1.699 0 2.889-1.363 2.889-3.576 0-3.236-2.379-7.322-5.098-8.855-.85-.34-1.699-.681-2.379-.681z" fill="#fff"/><path d="M456.27 105.743c-1.699 0-2.889 1.362-2.889 3.576 0 3.235 2.379 7.322 5.098 8.855.85.51 1.699.681 2.379.681 1.699 0 2.889-1.363 2.889-3.576 0-3.236-2.379-7.322-5.098-8.855-.85-.34-1.699-.681-2.379-.681z" stroke="#D3DAE8" stroke-width="2" stroke-miterlimit="10" stroke-linecap="round" stroke-linejoin="round"/><path d="M563.667 250.139L379.12 143.374V1.703l184.547 106.764v141.672z" stroke="#D3DAE8" stroke-width="2" stroke-miterlimit="10" stroke-linecap="round" stroke-linejoin="round"/><path d="M459.668 309.396V163.808h-50.13v145.588c0 3.746 2.549 7.322 7.307 10.217 9.856 5.619 25.66 5.79 35.346 0 5.098-2.724 7.477-6.471 7.477-10.217z" fill="#419EFA"/><path d="M459.668 163.808h-50.13v75.434h50.13v-75.434z" fill="#419EFA"/><path d="M452.361 174.025c-9.686 5.619-25.66 5.619-35.346 0-9.856-5.619-9.856-14.814-.17-20.434 9.686-5.619 25.66-5.619 35.346 0 9.856 5.62 9.856 14.815.17 20.434z" fill="#A2DEFE"/><path d="M390.335 271.765V73.561h-50.13v198.204c0 3.746 2.549 7.322 7.307 10.217 9.856 5.619 25.66 5.789 35.346 0 5.098-2.725 7.477-6.471 7.477-10.217z" fill="#8ACAFF"/><path d="M383.029 83.948c-9.686 5.619-25.66 5.619-35.346 0-9.856-5.62-9.856-14.815-.17-20.434 9.686-5.619 25.66-5.619 35.346 0 9.856 5.62 9.856 14.814.17 20.434z" fill="#A2DEFE"/><path d="M321.003 232.941v-79.86h-50.13v79.86c0 3.746 2.549 7.322 7.307 10.217 9.856 5.619 25.66 5.789 35.346 0 5.098-2.725 7.477-6.471 7.477-10.217z" fill="#FFBE33"/><path d="M270.873 186.115c.68.511 1.36.851 2.039 1.362 12.745 7.322 33.477 7.492 46.052 0 .68-.341 1.36-.851 1.869-1.192v-36.951h-50.13v36.44c.17.17.17.341.17.341z" fill="#FFBE33"/><path d="M313.696 159.551c-9.686 5.619-25.66 5.619-35.346 0-9.856-5.619-9.856-14.814-.17-20.433s25.66-5.619 35.346 0c9.856 5.619 9.856 14.814.17 20.433z" fill="#FFE264"/><path d="M167.044 140.31l34.667-20.093" stroke="#AAD5FE" stroke-width="4" stroke-miterlimit="10" stroke-linecap="round" stroke-linejoin="round"/><path d="M217.514 268.87V97.4" stroke="#AAD5FE" stroke-width="2" stroke-miterlimit="10" stroke-linecap="round" stroke-linejoin="round"/><path d="M20.902 277.043l34.496-19.922m-34.496 38.142l34.496-19.922" stroke="#AAD5FE" stroke-width="4" stroke-miterlimit="10" stroke-linecap="round" stroke-linejoin="round"/><path d="M71.202 337.492V234.133" stroke="#AAD5FE" stroke-width="2" stroke-miterlimit="10" stroke-linecap="round" stroke-linejoin="round"/><g clip-path="url(#clip1_88_7882)"><path d="M167.024 359.588l-.525-3.667c0 .175-.175.174-.175.349" fill="#EDF0F2"/><path d="M276.298 336.889c2.101-1.222 3.853-2.619 5.253-4.19 0-.873-.175-1.746-.35-2.619-1.926-7.334-9.456-11.524-16.811-9.603l-32.572 8.73c-3.327.873-5.253 3.317-6.129 6.635 16.986 7.333 38.351 8.031 50.609 1.047zm-60.591-22.523c-2.452-4.365-7.005-6.635-11.733-6.635-3.152 7.857 2.101 17.635 15.06 24.968 1.576.873 3.152 1.746 4.903 2.444 1.226-2.095 1.401-4.19.526-5.936l-8.756-14.841z" fill="#6FB7FF"/><path d="M283.653 329.032c-1.226 2.969-3.678 5.588-7.53 7.858-13.659 7.857-39.402 5.936-57.264-4.365-13.484-7.683-18.737-17.984-14.534-26.016l9.456-22.349 4.378-10.302 53.06 12.746 6.655 17.635 6.654 17.46c.351 2.619.176 5.064-.875 7.333z" fill="#6FB7FF"/><path d="M212.73 161.589l-10.508.35-2.977 41.904v1.222c.351 4.54 4.378 8.032 8.931 7.683 4.554-.35 8.056-4.365 7.706-8.905l-3.152-42.254z" fill="#F9A01A"/><path d="M283.652 329.032c-23.816-26.539-58.139-46.269-69.696-44.872l4.378-10.302 53.06 12.746 6.655 17.635 6.654 17.46c.175 2.619 0 5.064-1.051 7.333z" fill="#419EFA"/><path d="M211.154 159.669c2.102 1.222 2.102 3.143 0 4.365-2.101 1.222-5.428 1.222-7.53 0-2.101-1.222-2.101-3.143 0-4.365 2.102-1.222 5.604-1.222 7.53 0z" fill="#FFBE33"/><path d="M306.768 265.827c-13.659 24.444-50.434 29.857-82.13 12.222-31.872-17.635-46.407-51.857-32.747-76.301 13.659-24.444 50.433-29.857 82.13-12.222 31.696 17.635 46.406 51.856 32.747 76.301z" fill="#6FB7FF"/><path d="M270.694 265.652c-1.926 8.556-19.613 13.27-40.803 4.191-22.24-9.429-35.023-34.222-33.447-43.825 1.576-9.604 19.613-12.223 39.577-.873 19.963 11.698 36.599 31.952 34.673 40.507z" fill="#fff"/><path d="M244.427 255.35c0 7.857-7.355 11.524-14.36 7.857-7.88-4.015-13.134-13.095-13.134-20.952 0-7.857 7.53-11.698 14.36-7.682 7.004 4.016 13.134 12.92 13.134 20.777z" fill="#184EC9"/><path d="M239.698 249.763c0 2.794-2.627 4.191-5.079 2.794-2.802-1.397-4.728-4.714-4.728-7.508 0-2.794 2.627-4.19 5.079-2.794 2.626 1.397 4.728 4.715 4.728 7.508z" fill="#fff"/><path opacity=".2" d="M271.219 268.096c-2.977 7.159-20.139 12.921-41.328 3.841-22.24-9.428-36.074-34.745-34.498-45.396m8.055-37.888s22.416-8.032 51.31 2.619c28.719 10.651 43.254 29.682 50.084 41.381" stroke="#fff" stroke-width=".75" stroke-miterlimit="10" stroke-linecap="round" stroke-linejoin="round"/><path d="M309.045 198.78h-10.507l-1.752 24.968c.351 6.984 7.355 15.19 15.236 20.777l-2.977-45.745z" fill="#F9A01A"/><path d="M307.644 196.51c2.101 1.222 2.101 3.143 0 4.365-2.102 1.222-5.429 1.222-7.53 0-2.102-1.222-2.102-3.143 0-4.365 2.101-1.222 5.428-1.222 7.53 0z" fill="#FFBE33"/><path d="M307.644 196.51c2.101 1.222 2.101 3.143 0 4.365-2.102 1.222-5.429 1.222-7.53 0-2.102-1.222-2.102-3.143 0-4.365 2.101-1.222 5.428-1.222 7.53 0z" fill="#FFBE33"/><path d="M296.612 222.176c0 4.715 3.502 15.016 14.709 22" stroke="#4EA3EA" stroke-width=".75" stroke-miterlimit="10" stroke-linecap="round" stroke-linejoin="round"/><path opacity=".2" d="M295.21 220.256c0 4.714 2.802 18.333 16.111 25.317" stroke="#fff" stroke-width=".75" stroke-miterlimit="10" stroke-linecap="round" stroke-linejoin="round"/><path d="M270.694 265.652c-1.926 8.556-19.613 13.27-40.803 4.191-22.24-9.429-35.023-34.222-33.447-43.825 1.576-9.604 19.613-12.223 39.577-.873 19.963 11.698 36.599 31.952 34.673 40.507z" stroke="#4EA3EA" stroke-width=".75" stroke-miterlimit="10" stroke-linecap="round" stroke-linejoin="round"/><path d="M216.933 314.366c-3.678-6.286-11.733-8.381-17.862-4.714-6.304 3.667-8.406 11.698-4.728 17.809l8.581 14.841 22.765-13.095-8.756-14.841z" fill="#419EFA"/><path d="M225.689 328.858c2.276 3.841-1.051 9.952-7.355 13.619-6.304 3.666-13.309 3.492-15.585-.35-2.277-3.841 1.05-9.952 7.354-13.618 6.305-3.492 13.309-3.492 15.586.349z" fill="#288CDD"/><path opacity=".2" d="M201.347 338.984c.351-3.666 3.678-8.206 8.406-10.999 4.728-2.62 9.982-3.318 13.309-1.921" stroke="#fff" stroke-width=".75" stroke-miterlimit="10" stroke-linecap="round" stroke-linejoin="round"/><path d="M224.638 343.525c-1.926-6.984-.175-13.969 5.779-15.54l31.346-8.381c7.005-1.92 14.185 2.27 16.111 9.254 1.926 6.984-2.277 14.143-9.281 16.063l-31.346 8.381c-5.604 1.222-11.033-3.841-12.609-9.777z" fill="#419EFA"/></g></g><defs><clipPath id="clip0_88_7882"><path fill="#fff" d="M0 0h607v605H0z"/></clipPath><clipPath id="clip1_88_7882"><path fill="#fff" transform="translate(166.499 158.796)" d="M0 0h145.523v200.792H0z"/></clipPath></defs></svg>