<svg width="619" height="323" fill="none" xmlns="http://www.w3.org/2000/svg"><path d="M0 15C0 6.716 6.716 0 15 0h589c8.284 0 15 6.716 15 15v293c0 8.284-6.716 15-15 15H15c-8.284 0-15-6.716-15-15V15z" fill="#fff"/><path d="M36.89 54V41.4h1.476L46.7 51.75h-.774V41.4h1.8V54H46.25l-8.334-10.35h.774V54h-1.8zm20.277 0v-2.016l-.09-.378v-3.438c0-.732-.216-1.296-.648-1.692-.42-.408-1.056-.612-1.908-.612-.564 0-1.116.096-1.656.288a4.14 4.14 0 00-1.368.738l-.72-1.296a5.105 5.105 0 011.764-.9 7.306 7.306 0 012.178-.324c1.308 0 2.316.318 3.024.954.708.636 1.062 1.608 1.062 2.916V54h-1.638zm-3.132.108c-.708 0-1.332-.12-1.872-.36-.528-.24-.936-.57-1.224-.99a2.57 2.57 0 01-.432-1.458c0-.516.12-.984.36-1.404.252-.42.654-.756 1.206-1.008.564-.252 1.32-.378 2.268-.378h3.024v1.242h-2.952c-.864 0-1.446.144-1.746.432-.3.288-.45.636-.45 1.044 0 .468.186.846.558 1.134.372.276.888.414 1.548.414.648 0 1.212-.144 1.692-.432a2.446 2.446 0 001.062-1.26l.342 1.188c-.228.564-.63 1.014-1.206 1.35-.576.324-1.302.486-2.178.486zm19.902-9.738c.768 0 1.446.15 2.034.45.588.3 1.044.756 1.368 1.368.336.612.504 1.386.504 2.322V54h-1.728v-5.292c0-.924-.216-1.62-.648-2.088-.432-.468-1.038-.702-1.818-.702-.576 0-1.08.12-1.512.36-.432.24-.768.594-1.008 1.062-.228.468-.342 1.05-.342 1.746V54H69.06v-5.292c0-.924-.216-1.62-.648-2.088-.42-.468-1.026-.702-1.818-.702-.564 0-1.062.12-1.494.36-.432.24-.768.594-1.008 1.062-.24.468-.36 1.05-.36 1.746V54h-1.728v-9.54h1.656v2.538l-.27-.648c.3-.624.762-1.11 1.386-1.458.624-.348 1.35-.522 2.178-.522.912 0 1.698.228 2.358.684.66.444 1.092 1.122 1.296 2.034l-.702-.288c.288-.732.792-1.32 1.512-1.764.72-.444 1.56-.666 2.52-.666zm11.334 9.738c-1.02 0-1.92-.21-2.7-.63a4.62 4.62 0 01-1.8-1.728c-.42-.732-.63-1.572-.63-2.52s.204-1.788.612-2.52a4.5 4.5 0 011.71-1.71c.732-.42 1.554-.63 2.466-.63.924 0 1.74.204 2.448.612.708.408 1.26.984 1.656 1.728.408.732.612 1.59.612 2.574 0 .072-.006.156-.018.252 0 .096-.006.186-.018.27H81.49v-1.242h7.218l-.702.432c.012-.612-.114-1.158-.378-1.638a2.807 2.807 0 00-1.098-1.116c-.456-.276-.99-.414-1.602-.414-.6 0-1.134.138-1.602.414a2.779 2.779 0 00-1.098 1.134c-.264.48-.396 1.032-.396 1.656v.288c0 .636.144 1.206.432 1.71.3.492.714.876 1.242 1.152.528.276 1.134.414 1.818.414.564 0 1.074-.096 1.53-.288.468-.192.876-.48 1.224-.864l.954 1.116a4.166 4.166 0 01-1.62 1.152c-.636.264-1.35.396-2.142.396z" fill="#37376D"/><path d="M38.24 79.034h6.66v1.134h-6.66v-1.134zm.144 5.814h7.578V86h-8.91V73.4h8.64v1.152h-7.308v10.296zm15.263-8.388c.768 0 1.44.15 2.016.45a3.057 3.057 0 011.368 1.332c.336.6.504 1.356.504 2.268V86h-1.278v-5.364c0-.996-.252-1.746-.756-2.25-.492-.516-1.188-.774-2.088-.774-.672 0-1.26.138-1.764.414a2.779 2.779 0 00-1.152 1.17c-.264.504-.396 1.116-.396 1.836V86h-1.278v-9.45h1.224v2.592l-.198-.486a3.39 3.39 0 011.44-1.602c.66-.396 1.446-.594 2.358-.594zm10.328 9.63c-.888 0-1.572-.24-2.052-.72s-.72-1.158-.72-2.034v-8.874h1.278v8.802c0 .552.138.978.414 1.278.288.3.696.45 1.224.45.564 0 1.032-.162 1.404-.486l.45.918a2.354 2.354 0 01-.918.504 3.623 3.623 0 01-1.08.162zm-4.464-8.478V76.55h5.85v1.062h-5.85zM71.98 86.09c-.984 0-1.848-.204-2.592-.612a4.597 4.597 0 01-1.746-1.71c-.42-.732-.63-1.566-.63-2.502 0-.936.198-1.764.594-2.484.408-.72.96-1.284 1.656-1.692.708-.42 1.5-.63 2.376-.63.888 0 1.674.204 2.358.612.696.396 1.242.96 1.638 1.692.396.72.594 1.554.594 2.502 0 .06-.006.126-.018.198v.198h-8.226v-.954h7.542l-.504.378c0-.684-.15-1.29-.45-1.818a3.166 3.166 0 00-1.188-1.26c-.504-.3-1.086-.45-1.746-.45-.648 0-1.23.15-1.746.45-.516.3-.918.72-1.206 1.26-.288.54-.432 1.158-.432 1.854v.198c0 .72.156 1.356.468 1.908.324.54.768.966 1.332 1.278.576.3 1.23.45 1.962.45.576 0 1.11-.102 1.602-.306a3.332 3.332 0 001.296-.936l.72.828c-.42.504-.948.888-1.584 1.152a5.26 5.26 0 01-2.07.396zm6.849-.09v-9.45h1.224v2.574l-.126-.45c.264-.72.708-1.266 1.332-1.638.624-.384 1.398-.576 2.322-.576v1.242h-.144a.592.592 0 00-.144-.018c-.996 0-1.776.306-2.34.918-.564.6-.846 1.458-.846 2.574V86h-1.278zm14.923.09c-.888 0-1.572-.24-2.052-.72s-.72-1.158-.72-2.034v-8.874h1.278v8.802c0 .552.138.978.414 1.278.288.3.696.45 1.224.45.564 0 1.032-.162 1.404-.486l.45.918a2.354 2.354 0 01-.918.504 3.623 3.623 0 01-1.08.162zm-4.464-8.478V76.55h5.85v1.062h-5.85zm12.469 8.478c-.984 0-1.848-.204-2.592-.612a4.597 4.597 0 01-1.746-1.71c-.42-.732-.63-1.566-.63-2.502 0-.936.198-1.764.594-2.484.408-.72.96-1.284 1.656-1.692.708-.42 1.5-.63 2.376-.63.888 0 1.674.204 2.358.612.696.396 1.242.96 1.638 1.692.396.72.594 1.554.594 2.502 0 .06-.006.126-.018.198v.198h-8.226v-.954h7.542l-.504.378c0-.684-.15-1.29-.45-1.818a3.166 3.166 0 00-1.188-1.26c-.504-.3-1.086-.45-1.746-.45-.648 0-1.23.15-1.746.45-.516.3-.918.72-1.206 1.26-.288.54-.432 1.158-.432 1.854v.198c0 .72.156 1.356.468 1.908.324.54.768.966 1.332 1.278.576.3 1.23.45 1.962.45.576 0 1.11-.102 1.602-.306a3.332 3.332 0 001.296-.936l.72.828c-.42.504-.948.888-1.584 1.152a5.26 5.26 0 01-2.07.396zm5.146-.09l3.996-5.184-.018.63-3.798-4.896h1.44l3.114 4.05-.54-.018 3.114-4.032h1.404l-3.834 4.95.018-.684L115.831 86h-1.458l-3.294-4.32.504.072-3.24 4.248h-1.44zm14.043.09c-.888 0-1.572-.24-2.052-.72s-.72-1.158-.72-2.034v-8.874h1.278v8.802c0 .552.138.978.414 1.278.288.3.696.45 1.224.45.564 0 1.032-.162 1.404-.486l.45.918a2.354 2.354 0 01-.918.504 3.623 3.623 0 01-1.08.162zm-4.464-8.478V76.55h5.85v1.062h-5.85zM130.197 86V75.362c0-.84.246-1.518.738-2.034.492-.516 1.2-.774 2.124-.774.36 0 .708.048 1.044.144.336.096.618.246.846.45l-.432.954a1.69 1.69 0 00-.63-.342 2.327 2.327 0 00-.774-.126c-.54 0-.954.15-1.242.45-.288.3-.432.744-.432 1.332v1.44l.036.594V86h-1.278zm-1.692-8.388V76.55h5.85v1.062h-5.85zm11.27 8.478c-.912 0-1.734-.204-2.466-.612-.72-.42-1.29-.99-1.71-1.71-.42-.732-.63-1.566-.63-2.502 0-.948.21-1.782.63-2.502.42-.72.99-1.284 1.71-1.692.72-.408 1.542-.612 2.466-.612.936 0 1.764.204 2.484.612a4.374 4.374 0 011.71 1.692c.42.72.63 1.554.63 2.502 0 .936-.21 1.77-.63 2.502a4.5 4.5 0 01-1.71 1.71c-.732.408-1.56.612-2.484.612zm0-1.134c.684 0 1.29-.15 1.818-.45a3.31 3.31 0 001.242-1.296c.312-.564.468-1.212.468-1.944 0-.744-.156-1.392-.468-1.944a3.185 3.185 0 00-1.242-1.278c-.528-.312-1.128-.468-1.8-.468-.672 0-1.272.156-1.8.468-.528.3-.948.726-1.26 1.278-.312.552-.468 1.2-.468 1.944 0 .732.156 1.38.468 1.944a3.44 3.44 0 001.26 1.296c.528.3 1.122.45 1.782.45zM147.208 86v-9.45h1.224v2.574l-.126-.45c.264-.72.708-1.266 1.332-1.638.624-.384 1.398-.576 2.322-.576v1.242h-.144a.592.592 0 00-.144-.018c-.996 0-1.776.306-2.34.918-.564.6-.846 1.458-.846 2.574V86h-1.278zm14.473.09c-.78 0-1.518-.108-2.214-.324-.696-.228-1.242-.51-1.638-.846l.576-1.008c.384.288.876.54 1.476.756.6.204 1.23.306 1.89.306.9 0 1.548-.138 1.944-.414.396-.288.594-.666.594-1.134 0-.348-.114-.618-.342-.81-.216-.204-.504-.354-.864-.45a9.51 9.51 0 00-1.206-.27 25.981 25.981 0 01-1.332-.252 5.138 5.138 0 01-1.188-.414 2.499 2.499 0 01-.882-.774c-.216-.324-.324-.756-.324-1.296 0-.516.144-.978.432-1.386.288-.408.708-.726 1.26-.954.564-.24 1.248-.36 2.052-.36.612 0 1.224.084 1.836.252.612.156 1.116.366 1.512.63l-.558 1.026a4.152 4.152 0 00-1.35-.612 5.41 5.41 0 00-1.44-.198c-.852 0-1.482.15-1.89.45-.396.288-.594.66-.594 1.116 0 .36.108.642.324.846.228.204.522.366.882.486.372.108.774.198 1.206.27.444.072.882.162 1.314.27.444.096.846.234 1.206.414.372.168.666.414.882.738.228.312.342.726.342 1.242 0 .552-.156 1.032-.468 1.44-.3.396-.744.708-1.332.936-.576.216-1.278.324-2.106.324zm10.265 0c-.984 0-1.848-.204-2.592-.612a4.597 4.597 0 01-1.746-1.71c-.42-.732-.63-1.566-.63-2.502 0-.936.198-1.764.594-2.484.408-.72.96-1.284 1.656-1.692.708-.42 1.5-.63 2.376-.63.888 0 1.674.204 2.358.612.696.396 1.242.96 1.638 1.692.396.72.594 1.554.594 2.502 0 .06-.006.126-.018.198v.198h-8.226v-.954h7.542l-.504.378c0-.684-.15-1.29-.45-1.818a3.166 3.166 0 00-1.188-1.26c-.504-.3-1.086-.45-1.746-.45-.648 0-1.23.15-1.746.45-.516.3-.918.72-1.206 1.26-.288.54-.432 1.158-.432 1.854v.198c0 .72.156 1.356.468 1.908.324.54.768.966 1.332 1.278.576.3 1.23.45 1.962.45.576 0 1.11-.102 1.602-.306a3.332 3.332 0 001.296-.936l.72.828c-.42.504-.948.888-1.584 1.152a5.26 5.26 0 01-2.07.396zm12.508-.09v-2.088l-.054-.342v-3.492c0-.804-.228-1.422-.684-1.854-.444-.432-1.11-.648-1.998-.648-.612 0-1.194.102-1.746.306a4.448 4.448 0 00-1.404.81l-.576-.954a4.99 4.99 0 011.728-.936 6.566 6.566 0 012.124-.342c1.224 0 2.166.306 2.826.918.672.6 1.008 1.518 1.008 2.754V86h-1.224zm-3.258.09c-.708 0-1.326-.114-1.854-.342-.516-.24-.912-.564-1.188-.972-.276-.42-.414-.9-.414-1.44 0-.492.114-.936.342-1.332.24-.408.624-.732 1.152-.972.54-.252 1.26-.378 2.16-.378h3.258v.954h-3.222c-.912 0-1.548.162-1.908.486A1.581 1.581 0 00179 83.3c0 .54.21.972.63 1.296.42.324 1.008.486 1.764.486.72 0 1.338-.162 1.854-.486.528-.336.912-.816 1.152-1.44l.288.882c-.24.624-.66 1.122-1.26 1.494-.588.372-1.332.558-2.232.558zm7.953-.09v-9.45h1.224v2.574l-.126-.45c.264-.72.708-1.266 1.332-1.638.624-.384 1.398-.576 2.322-.576v1.242h-.144a.592.592 0 00-.144-.018c-.996 0-1.776.306-2.34.918-.564.6-.846 1.458-.846 2.574V86h-1.278zm10.92.09c-.936 0-1.776-.204-2.52-.612a4.634 4.634 0 01-1.728-1.71c-.42-.732-.63-1.566-.63-2.502 0-.948.21-1.782.63-2.502.42-.72.996-1.284 1.728-1.692.744-.408 1.584-.612 2.52-.612.804 0 1.53.156 2.178.468a3.53 3.53 0 011.53 1.404l-.954.648a2.999 2.999 0 00-1.206-1.062 3.603 3.603 0 00-1.566-.342c-.672 0-1.278.156-1.818.468-.54.3-.966.726-1.278 1.278-.312.552-.468 1.2-.468 1.944s.156 1.392.468 1.944a3.4 3.4 0 001.278 1.296c.54.3 1.146.45 1.818.45.564 0 1.086-.114 1.566-.342.48-.228.882-.576 1.206-1.044l.954.648a3.679 3.679 0 01-1.53 1.404c-.648.312-1.374.468-2.178.468zm10.902-9.63c.768 0 1.44.15 2.016.45a3.057 3.057 0 011.368 1.332c.336.6.504 1.356.504 2.268V86h-1.278v-5.364c0-.996-.252-1.746-.756-2.25-.492-.516-1.188-.774-2.088-.774-.672 0-1.26.138-1.764.414a2.779 2.779 0 00-1.152 1.17c-.264.504-.396 1.116-.396 1.836V86h-1.278V72.644h1.278v6.498l-.252-.486a3.39 3.39 0 011.44-1.602c.66-.396 1.446-.594 2.358-.594zm7.466 9.63a.934.934 0 01-.684-.288.989.989 0 01-.27-.702c0-.288.09-.522.27-.702.192-.18.42-.27.684-.27.264 0 .486.09.666.27.192.18.288.414.288.702 0 .276-.096.51-.288.702a.877.877 0 01-.666.288zm3.815 0a.934.934 0 01-.684-.288.989.989 0 01-.27-.702c0-.288.09-.522.27-.702.192-.18.42-.27.684-.27.264 0 .486.09.666.27.192.18.288.414.288.702 0 .276-.096.51-.288.702a.877.877 0 01-.666.288zm3.814 0a.934.934 0 01-.684-.288.989.989 0 01-.27-.702c0-.288.09-.522.27-.702.192-.18.42-.27.684-.27.264 0 .486.09.666.27.192.18.288.414.288.702 0 .276-.096.51-.288.702a.877.877 0 01-.666.288zM38.24 170.034h6.66v1.134h-6.66v-1.134zm.144 5.814h7.578V177h-8.91v-12.6h8.64v1.152h-7.308v10.296zm15.263-8.388c.768 0 1.44.15 2.016.45a3.057 3.057 0 011.368 1.332c.336.6.504 1.356.504 2.268V177h-1.278v-5.364c0-.996-.252-1.746-.756-2.25-.492-.516-1.188-.774-2.088-.774-.672 0-1.26.138-1.764.414a2.779 2.779 0 00-1.152 1.17c-.264.504-.396 1.116-.396 1.836V177h-1.278v-9.45h1.224v2.592l-.198-.486a3.39 3.39 0 011.44-1.602c.66-.396 1.446-.594 2.358-.594zm10.328 9.63c-.888 0-1.572-.24-2.052-.72s-.72-1.158-.72-2.034v-8.874h1.278v8.802c0 .552.138.978.414 1.278.288.3.696.45 1.224.45.564 0 1.032-.162 1.404-.486l.45.918a2.354 2.354 0 01-.918.504 3.623 3.623 0 01-1.08.162zm-4.464-8.478v-1.062h5.85v1.062h-5.85zm12.469 8.478c-.984 0-1.848-.204-2.592-.612a4.597 4.597 0 01-1.746-1.71c-.42-.732-.63-1.566-.63-2.502 0-.936.198-1.764.594-2.484.408-.72.96-1.284 1.656-1.692.708-.42 1.5-.63 2.376-.63.888 0 1.674.204 2.358.612.696.396 1.242.96 1.638 1.692.396.72.594 1.554.594 2.502 0 .06-.006.126-.018.198v.198h-8.226v-.954h7.542l-.504.378c0-.684-.15-1.29-.45-1.818a3.166 3.166 0 00-1.188-1.26c-.504-.3-1.086-.45-1.746-.45-.648 0-1.23.15-1.746.45-.516.3-.918.72-1.206 1.26-.288.54-.432 1.158-.432 1.854v.198c0 .72.156 1.356.468 1.908.324.54.768.966 1.332 1.278.576.3 1.23.45 1.962.45.576 0 1.11-.102 1.602-.306a3.332 3.332 0 001.296-.936l.72.828c-.42.504-.948.888-1.584 1.152a5.26 5.26 0 01-2.07.396zm6.849-.09v-9.45h1.224v2.574l-.126-.45c.264-.72.708-1.266 1.332-1.638.624-.384 1.398-.576 2.322-.576v1.242h-.144a.592.592 0 00-.144-.018c-.996 0-1.776.306-2.34.918-.564.6-.846 1.458-.846 2.574V177h-1.278zm14.923.09c-.888 0-1.572-.24-2.052-.72s-.72-1.158-.72-2.034v-8.874h1.278v8.802c0 .552.138.978.414 1.278.288.3.696.45 1.224.45.564 0 1.032-.162 1.404-.486l.45.918a2.354 2.354 0 01-.918.504 3.623 3.623 0 01-1.08.162zm-4.464-8.478v-1.062h5.85v1.062h-5.85zm12.469 8.478c-.984 0-1.848-.204-2.592-.612a4.597 4.597 0 01-1.746-1.71c-.42-.732-.63-1.566-.63-2.502 0-.936.198-1.764.594-2.484.408-.72.96-1.284 1.656-1.692.708-.42 1.5-.63 2.376-.63.888 0 1.674.204 2.358.612.696.396 1.242.96 1.638 1.692.396.72.594 1.554.594 2.502 0 .06-.006.126-.018.198v.198h-8.226v-.954h7.542l-.504.378c0-.684-.15-1.29-.45-1.818a3.166 3.166 0 00-1.188-1.26c-.504-.3-1.086-.45-1.746-.45-.648 0-1.23.15-1.746.45-.516.3-.918.72-1.206 1.26-.288.54-.432 1.158-.432 1.854v.198c0 .72.156 1.356.468 1.908.324.54.768.966 1.332 1.278.576.3 1.23.45 1.962.45.576 0 1.11-.102 1.602-.306a3.332 3.332 0 001.296-.936l.72.828c-.42.504-.948.888-1.584 1.152a5.26 5.26 0 01-2.07.396zm5.146-.09l3.996-5.184-.018.63-3.798-4.896h1.44l3.114 4.05-.54-.018 3.114-4.032h1.404l-3.834 4.95.018-.684 4.032 5.184h-1.458l-3.294-4.32.504.072-3.24 4.248h-1.44zm14.043.09c-.888 0-1.572-.24-2.052-.72s-.72-1.158-.72-2.034v-8.874h1.278v8.802c0 .552.138.978.414 1.278.288.3.696.45 1.224.45.564 0 1.032-.162 1.404-.486l.45.918a2.354 2.354 0 01-.918.504 3.623 3.623 0 01-1.08.162zm-4.464-8.478v-1.062h5.85v1.062h-5.85zM130.197 177v-10.638c0-.84.246-1.518.738-2.034.492-.516 1.2-.774 2.124-.774.36 0 .708.048 1.044.144.336.096.618.246.846.45l-.432.954a1.69 1.69 0 00-.63-.342 2.327 2.327 0 00-.774-.126c-.54 0-.954.15-1.242.45-.288.3-.432.744-.432 1.332v1.44l.036.594V177h-1.278zm-1.692-8.388v-1.062h5.85v1.062h-5.85zm11.27 8.478c-.912 0-1.734-.204-2.466-.612-.72-.42-1.29-.99-1.71-1.71-.42-.732-.63-1.566-.63-2.502 0-.948.21-1.782.63-2.502.42-.72.99-1.284 1.71-1.692.72-.408 1.542-.612 2.466-.612.936 0 1.764.204 2.484.612a4.374 4.374 0 011.71 1.692c.42.72.63 1.554.63 2.502 0 .936-.21 1.77-.63 2.502a4.5 4.5 0 01-1.71 1.71c-.732.408-1.56.612-2.484.612zm0-1.134c.684 0 1.29-.15 1.818-.45a3.31 3.31 0 001.242-1.296c.312-.564.468-1.212.468-1.944 0-.744-.156-1.392-.468-1.944a3.185 3.185 0 00-1.242-1.278c-.528-.312-1.128-.468-1.8-.468-.672 0-1.272.156-1.8.468-.528.3-.948.726-1.26 1.278-.312.552-.468 1.2-.468 1.944 0 .732.156 1.38.468 1.944a3.44 3.44 0 001.26 1.296c.528.3 1.122.45 1.782.45zm7.433 1.044v-9.45h1.224v2.574l-.126-.45c.264-.72.708-1.266 1.332-1.638.624-.384 1.398-.576 2.322-.576v1.242h-.144a.592.592 0 00-.144-.018c-.996 0-1.776.306-2.34.918-.564.6-.846 1.458-.846 2.574V177h-1.278zm14.473.09c-.78 0-1.518-.108-2.214-.324-.696-.228-1.242-.51-1.638-.846l.576-1.008c.384.288.876.54 1.476.756.6.204 1.23.306 1.89.306.9 0 1.548-.138 1.944-.414.396-.288.594-.666.594-1.134 0-.348-.114-.618-.342-.81-.216-.204-.504-.354-.864-.45a9.51 9.51 0 00-1.206-.27 25.981 25.981 0 01-1.332-.252 5.138 5.138 0 01-1.188-.414 2.499 2.499 0 01-.882-.774c-.216-.324-.324-.756-.324-1.296 0-.516.144-.978.432-1.386.288-.408.708-.726 1.26-.954.564-.24 1.248-.36 2.052-.36.612 0 1.224.084 1.836.252.612.156 1.116.366 1.512.63l-.558 1.026a4.152 4.152 0 00-1.35-.612 5.41 5.41 0 00-1.44-.198c-.852 0-1.482.15-1.89.45-.396.288-.594.66-.594 1.116 0 .36.108.642.324.846.228.204.522.366.882.486.372.108.774.198 1.206.27.444.072.882.162 1.314.27.444.096.846.234 1.206.414.372.168.666.414.882.738.228.312.342.726.342 1.242 0 .552-.156 1.032-.468 1.44-.3.396-.744.708-1.332.936-.576.216-1.278.324-2.106.324zm10.265 0c-.984 0-1.848-.204-2.592-.612a4.597 4.597 0 01-1.746-1.71c-.42-.732-.63-1.566-.63-2.502 0-.936.198-1.764.594-2.484.408-.72.96-1.284 1.656-1.692.708-.42 1.5-.63 2.376-.63.888 0 1.674.204 2.358.612.696.396 1.242.96 1.638 1.692.396.72.594 1.554.594 2.502 0 .06-.006.126-.018.198v.198h-8.226v-.954h7.542l-.504.378c0-.684-.15-1.29-.45-1.818a3.166 3.166 0 00-1.188-1.26c-.504-.3-1.086-.45-1.746-.45-.648 0-1.23.15-1.746.45-.516.3-.918.72-1.206 1.26-.288.54-.432 1.158-.432 1.854v.198c0 .72.156 1.356.468 1.908.324.54.768.966 1.332 1.278.576.3 1.23.45 1.962.45.576 0 1.11-.102 1.602-.306a3.332 3.332 0 001.296-.936l.72.828c-.42.504-.948.888-1.584 1.152a5.26 5.26 0 01-2.07.396zm12.508-.09v-2.088l-.054-.342v-3.492c0-.804-.228-1.422-.684-1.854-.444-.432-1.11-.648-1.998-.648-.612 0-1.194.102-1.746.306a4.448 4.448 0 00-1.404.81l-.576-.954a4.99 4.99 0 011.728-.936 6.566 6.566 0 012.124-.342c1.224 0 2.166.306 2.826.918.672.6 1.008 1.518 1.008 2.754V177h-1.224zm-3.258.09c-.708 0-1.326-.114-1.854-.342-.516-.24-.912-.564-1.188-.972-.276-.42-.414-.9-.414-1.44 0-.492.114-.936.342-1.332.24-.408.624-.732 1.152-.972.54-.252 1.26-.378 2.16-.378h3.258v.954h-3.222c-.912 0-1.548.162-1.908.486A1.581 1.581 0 00179 174.3c0 .54.21.972.63 1.296.42.324 1.008.486 1.764.486.72 0 1.338-.162 1.854-.486.528-.336.912-.816 1.152-1.44l.288.882c-.24.624-.66 1.122-1.26 1.494-.588.372-1.332.558-2.232.558zm7.953-.09v-9.45h1.224v2.574l-.126-.45c.264-.72.708-1.266 1.332-1.638.624-.384 1.398-.576 2.322-.576v1.242h-.144a.592.592 0 00-.144-.018c-.996 0-1.776.306-2.34.918-.564.6-.846 1.458-.846 2.574V177h-1.278zm10.92.09c-.936 0-1.776-.204-2.52-.612a4.634 4.634 0 01-1.728-1.71c-.42-.732-.63-1.566-.63-2.502 0-.948.21-1.782.63-2.502.42-.72.996-1.284 1.728-1.692.744-.408 1.584-.612 2.52-.612.804 0 1.53.156 2.178.468a3.53 3.53 0 011.53 1.404l-.954.648a2.999 2.999 0 00-1.206-1.062 3.603 3.603 0 00-1.566-.342c-.672 0-1.278.156-1.818.468-.54.3-.966.726-1.278 1.278-.312.552-.468 1.2-.468 1.944s.156 1.392.468 1.944a3.4 3.4 0 001.278 1.296c.54.3 1.146.45 1.818.45.564 0 1.086-.114 1.566-.342.48-.228.882-.576 1.206-1.044l.954.648a3.679 3.679 0 01-1.53 1.404c-.648.312-1.374.468-2.178.468zm10.902-9.63c.768 0 1.44.15 2.016.45a3.057 3.057 0 011.368 1.332c.336.6.504 1.356.504 2.268V177h-1.278v-5.364c0-.996-.252-1.746-.756-2.25-.492-.516-1.188-.774-2.088-.774-.672 0-1.26.138-1.764.414a2.779 2.779 0 00-1.152 1.17c-.264.504-.396 1.116-.396 1.836V177h-1.278v-13.356h1.278v6.498l-.252-.486a3.39 3.39 0 011.44-1.602c.66-.396 1.446-.594 2.358-.594zm7.466 9.63a.934.934 0 01-.684-.288.989.989 0 01-.27-.702c0-.288.09-.522.27-.702.192-.18.42-.27.684-.27.264 0 .486.09.666.27.192.18.288.414.288.702 0 .276-.096.51-.288.702a.877.877 0 01-.666.288zm3.815 0a.934.934 0 01-.684-.288.989.989 0 01-.27-.702c0-.288.09-.522.27-.702.192-.18.42-.27.684-.27.264 0 .486.09.666.27.192.18.288.414.288.702 0 .276-.096.51-.288.702a.877.877 0 01-.666.288zm3.814 0a.934.934 0 01-.684-.288.989.989 0 01-.27-.702c0-.288.09-.522.27-.702.192-.18.42-.27.684-.27.264 0 .486.09.666.27.192.18.288.414.288.702 0 .276-.096.51-.288.702a.877.877 0 01-.666.288zm110.458-90.982a7.203 7.203 0 01-2.628-.468 6.326 6.326 0 01-2.088-1.35 6.31 6.31 0 01-1.386-2.034 6.598 6.598 0 01-.486-2.556c0-.924.162-1.776.486-2.556a6.31 6.31 0 011.386-2.034 6.293 6.293 0 012.106-1.332 6.966 6.966 0 012.628-.486c.912 0 1.77.156 2.574.468.804.3 1.482.756 2.034 1.368l-.846.846c-.516-.528-1.086-.906-1.71-1.134a5.568 5.568 0 00-2.016-.36c-.756 0-1.458.132-2.106.396a4.85 4.85 0 00-1.692 1.098 5.15 5.15 0 00-1.134 1.656 5.26 5.26 0 00-.396 2.07c0 .756.132 1.452.396 2.088a5.425 5.425 0 001.134 1.656c.48.468 1.044.834 1.692 1.098a5.76 5.76 0 002.106.378c.72 0 1.392-.12 2.016-.36a4.79 4.79 0 001.71-1.152l.846.846a5.253 5.253 0 01-2.034 1.386 7.102 7.102 0 01-2.592.468zm12.02-9.648c.768 0 1.44.15 2.016.45a3.057 3.057 0 011.368 1.332c.336.6.504 1.356.504 2.268V86h-1.278v-5.364c0-.996-.252-1.746-.756-2.25-.492-.516-1.188-.774-2.088-.774-.672 0-1.26.138-1.764.414a2.779 2.779 0 00-1.152 1.17c-.264.504-.396 1.116-.396 1.836V86h-1.278V72.644h1.278v6.498l-.252-.486a3.39 3.39 0 011.44-1.602c.66-.396 1.446-.594 2.358-.594zm11.192 9.63c-.912 0-1.734-.204-2.466-.612-.72-.42-1.29-.99-1.71-1.71-.42-.732-.63-1.566-.63-2.502 0-.948.21-1.782.63-2.502.42-.72.99-1.284 1.71-1.692.72-.408 1.542-.612 2.466-.612.936 0 1.764.204 2.484.612a4.374 4.374 0 011.71 1.692c.42.72.63 1.554.63 2.502 0 .936-.21 1.77-.63 2.502a4.5 4.5 0 01-1.71 1.71c-.732.408-1.56.612-2.484.612zm0-1.134c.684 0 1.29-.15 1.818-.45a3.31 3.31 0 001.242-1.296c.312-.564.468-1.212.468-1.944 0-.744-.156-1.392-.468-1.944a3.185 3.185 0 00-1.242-1.278c-.528-.312-1.128-.468-1.8-.468-.672 0-1.272.156-1.8.468-.528.3-.948.726-1.26 1.278-.312.552-.468 1.2-.468 1.944 0 .732.156 1.38.468 1.944a3.44 3.44 0 001.26 1.296c.528.3 1.122.45 1.782.45zm11.285 1.134c-.912 0-1.734-.204-2.466-.612-.72-.42-1.29-.99-1.71-1.71-.42-.732-.63-1.566-.63-2.502 0-.948.21-1.782.63-2.502.42-.72.99-1.284 1.71-1.692.72-.408 1.542-.612 2.466-.612.936 0 1.764.204 2.484.612a4.374 4.374 0 011.71 1.692c.42.72.63 1.554.63 2.502 0 .936-.21 1.77-.63 2.502a4.5 4.5 0 01-1.71 1.71c-.732.408-1.56.612-2.484.612zm0-1.134c.684 0 1.29-.15 1.818-.45a3.31 3.31 0 001.242-1.296c.312-.564.468-1.212.468-1.944 0-.744-.156-1.392-.468-1.944a3.185 3.185 0 00-1.242-1.278c-.528-.312-1.128-.468-1.8-.468-.672 0-1.272.156-1.8.468-.528.3-.948.726-1.26 1.278-.312.552-.468 1.2-.468 1.944 0 .732.156 1.38.468 1.944a3.44 3.44 0 001.26 1.296c.528.3 1.122.45 1.782.45zm9.971 1.134c-.78 0-1.518-.108-2.214-.324-.696-.228-1.242-.51-1.638-.846l.576-1.008c.384.288.876.54 1.476.756.6.204 1.23.306 1.89.306.9 0 1.548-.138 1.944-.414.396-.288.594-.666.594-1.134 0-.348-.114-.618-.342-.81-.216-.204-.504-.354-.864-.45a9.51 9.51 0 00-1.206-.27 25.981 25.981 0 01-1.332-.252 5.138 5.138 0 01-1.188-.414 2.499 2.499 0 01-.882-.774c-.216-.324-.324-.756-.324-1.296 0-.516.144-.978.432-1.386.288-.408.708-.726 1.26-.954.564-.24 1.248-.36 2.052-.36.612 0 1.224.084 1.836.252.612.156 1.116.366 1.512.63l-.558 1.026a4.152 4.152 0 00-1.35-.612 5.41 5.41 0 00-1.44-.198c-.852 0-1.482.15-1.89.45-.396.288-.594.66-.594 1.116 0 .36.108.642.324.846.228.204.522.366.882.486.372.108.774.198 1.206.27.444.072.882.162 1.314.27.444.096.846.234 1.206.414.372.168.666.414.882.738.228.312.342.726.342 1.242 0 .552-.156 1.032-.468 1.44-.3.396-.744.708-1.332.936-.576.216-1.278.324-2.106.324zm10.265 0c-.984 0-1.848-.204-2.592-.612a4.597 4.597 0 01-1.746-1.71c-.42-.732-.63-1.566-.63-2.502 0-.936.198-1.764.594-2.484.408-.72.96-1.284 1.656-1.692.708-.42 1.5-.63 2.376-.63.888 0 1.674.204 2.358.612.696.396 1.242.96 1.638 1.692.396.72.594 1.554.594 2.502 0 .06-.006.126-.018.198v.198h-8.226v-.954h7.542l-.504.378c0-.684-.15-1.29-.45-1.818a3.166 3.166 0 00-1.188-1.26c-.504-.3-1.086-.45-1.746-.45-.648 0-1.23.15-1.746.45-.516.3-.918.72-1.206 1.26-.288.54-.432 1.158-.432 1.854v.198c0 .72.156 1.356.468 1.908.324.54.768.966 1.332 1.278.576.3 1.23.45 1.962.45.576 0 1.11-.102 1.602-.306a3.332 3.332 0 001.296-.936l.72.828c-.42.504-.948.888-1.584 1.152a5.26 5.26 0 01-2.07.396zm-54.733 91.018a7.203 7.203 0 01-2.628-.468 6.326 6.326 0 01-2.088-1.35 6.31 6.31 0 01-1.386-2.034 6.598 6.598 0 01-.486-2.556c0-.924.162-1.776.486-2.556a6.31 6.31 0 011.386-2.034 6.293 6.293 0 012.106-1.332 6.966 6.966 0 012.628-.486c.912 0 1.77.156 2.574.468.804.3 1.482.756 2.034 1.368l-.846.846c-.516-.528-1.086-.906-1.71-1.134a5.568 5.568 0 00-2.016-.36c-.756 0-1.458.132-2.106.396a4.85 4.85 0 00-1.692 1.098 5.15 5.15 0 00-1.134 1.656 5.26 5.26 0 00-.396 2.07c0 .756.132 1.452.396 2.088a5.425 5.425 0 001.134 1.656c.48.468 1.044.834 1.692 1.098a5.76 5.76 0 002.106.378c.72 0 1.392-.12 2.016-.36a4.79 4.79 0 001.71-1.152l.846.846a5.253 5.253 0 01-2.034 1.386 7.102 7.102 0 01-2.592.468zm12.02-9.648c.768 0 1.44.15 2.016.45a3.057 3.057 0 011.368 1.332c.336.6.504 1.356.504 2.268V177h-1.278v-5.364c0-.996-.252-1.746-.756-2.25-.492-.516-1.188-.774-2.088-.774-.672 0-1.26.138-1.764.414a2.779 2.779 0 00-1.152 1.17c-.264.504-.396 1.116-.396 1.836V177h-1.278v-13.356h1.278v6.498l-.252-.486a3.39 3.39 0 011.44-1.602c.66-.396 1.446-.594 2.358-.594zm11.192 9.63c-.912 0-1.734-.204-2.466-.612-.72-.42-1.29-.99-1.71-1.71-.42-.732-.63-1.566-.63-2.502 0-.948.21-1.782.63-2.502.42-.72.99-1.284 1.71-1.692.72-.408 1.542-.612 2.466-.612.936 0 1.764.204 2.484.612a4.374 4.374 0 011.71 1.692c.42.72.63 1.554.63 2.502 0 .936-.21 1.77-.63 2.502a4.5 4.5 0 01-1.71 1.71c-.732.408-1.56.612-2.484.612zm0-1.134c.684 0 1.29-.15 1.818-.45a3.31 3.31 0 001.242-1.296c.312-.564.468-1.212.468-1.944 0-.744-.156-1.392-.468-1.944a3.185 3.185 0 00-1.242-1.278c-.528-.312-1.128-.468-1.8-.468-.672 0-1.272.156-1.8.468-.528.3-.948.726-1.26 1.278-.312.552-.468 1.2-.468 1.944 0 .732.156 1.38.468 1.944a3.44 3.44 0 001.26 1.296c.528.3 1.122.45 1.782.45zm11.285 1.134c-.912 0-1.734-.204-2.466-.612-.72-.42-1.29-.99-1.71-1.71-.42-.732-.63-1.566-.63-2.502 0-.948.21-1.782.63-2.502.42-.72.99-1.284 1.71-1.692.72-.408 1.542-.612 2.466-.612.936 0 1.764.204 2.484.612a4.374 4.374 0 011.71 1.692c.42.72.63 1.554.63 2.502 0 .936-.21 1.77-.63 2.502a4.5 4.5 0 01-1.71 1.71c-.732.408-1.56.612-2.484.612zm0-1.134c.684 0 1.29-.15 1.818-.45a3.31 3.31 0 001.242-1.296c.312-.564.468-1.212.468-1.944 0-.744-.156-1.392-.468-1.944a3.185 3.185 0 00-1.242-1.278c-.528-.312-1.128-.468-1.8-.468-.672 0-1.272.156-1.8.468-.528.3-.948.726-1.26 1.278-.312.552-.468 1.2-.468 1.944 0 .732.156 1.38.468 1.944a3.44 3.44 0 001.26 1.296c.528.3 1.122.45 1.782.45zm9.971 1.134c-.78 0-1.518-.108-2.214-.324-.696-.228-1.242-.51-1.638-.846l.576-1.008c.384.288.876.54 1.476.756.6.204 1.23.306 1.89.306.9 0 1.548-.138 1.944-.414.396-.288.594-.666.594-1.134 0-.348-.114-.618-.342-.81-.216-.204-.504-.354-.864-.45a9.51 9.51 0 00-1.206-.27 25.981 25.981 0 01-1.332-.252 5.138 5.138 0 01-1.188-.414 2.499 2.499 0 01-.882-.774c-.216-.324-.324-.756-.324-1.296 0-.516.144-.978.432-1.386.288-.408.708-.726 1.26-.954.564-.24 1.248-.36 2.052-.36.612 0 1.224.084 1.836.252.612.156 1.116.366 1.512.63l-.558 1.026a4.152 4.152 0 00-1.35-.612 5.41 5.41 0 00-1.44-.198c-.852 0-1.482.15-1.89.45-.396.288-.594.66-.594 1.116 0 .36.108.642.324.846.228.204.522.366.882.486.372.108.774.198 1.206.27.444.072.882.162 1.314.27.444.096.846.234 1.206.414.372.168.666.414.882.738.228.312.342.726.342 1.242 0 .552-.156 1.032-.468 1.44-.3.396-.744.708-1.332.936-.576.216-1.278.324-2.106.324zm10.265 0c-.984 0-1.848-.204-2.592-.612a4.597 4.597 0 01-1.746-1.71c-.42-.732-.63-1.566-.63-2.502 0-.936.198-1.764.594-2.484.408-.72.96-1.284 1.656-1.692.708-.42 1.5-.63 2.376-.63.888 0 1.674.204 2.358.612.696.396 1.242.96 1.638 1.692.396.72.594 1.554.594 2.502 0 .06-.006.126-.018.198v.198h-8.226v-.954h7.542l-.504.378c0-.684-.15-1.29-.45-1.818a3.166 3.166 0 00-1.188-1.26c-.504-.3-1.086-.45-1.746-.45-.648 0-1.23.15-1.746.45-.516.3-.918.72-1.206 1.26-.288.54-.432 1.158-.432 1.854v.198c0 .72.156 1.356.468 1.908.324.54.768.966 1.332 1.278.576.3 1.23.45 1.962.45.576 0 1.11-.102 1.602-.306a3.332 3.332 0 001.296-.936l.72.828c-.42.504-.948.888-1.584 1.152a5.26 5.26 0 01-2.07.396zM42.524 269.108a7.203 7.203 0 01-2.628-.468 6.326 6.326 0 01-2.088-1.35 6.31 6.31 0 01-1.386-2.034 6.598 6.598 0 01-.486-2.556c0-.924.162-1.776.486-2.556a6.31 6.31 0 011.386-2.034 6.293 6.293 0 012.106-1.332 6.966 6.966 0 012.628-.486c.912 0 1.77.156 2.574.468.804.3 1.482.756 2.034 1.368l-.846.846c-.516-.528-1.086-.906-1.71-1.134a5.568 5.568 0 00-2.016-.36c-.756 0-1.458.132-2.106.396a4.85 4.85 0 00-1.692 1.098 5.15 5.15 0 00-1.134 1.656 5.26 5.26 0 00-.396 2.07c0 .756.132 1.452.396 2.088a5.425 5.425 0 001.134 1.656c.48.468 1.044.834 1.692 1.098a5.76 5.76 0 002.106.378c.72 0 1.392-.12 2.016-.36a4.79 4.79 0 001.71-1.152l.846.846a5.253 5.253 0 01-2.034 1.386 7.102 7.102 0 01-2.592.468zm12.02-9.648c.768 0 1.44.15 2.016.45a3.057 3.057 0 011.367 1.332c.337.6.505 1.356.505 2.268V269h-1.279v-5.364c0-.996-.252-1.746-.755-2.25-.492-.516-1.189-.774-2.089-.774-.671 0-1.26.138-1.764.414a2.779 2.779 0 00-1.151 1.17c-.264.504-.396 1.116-.396 1.836V269h-1.279v-13.356h1.279v6.498l-.252-.486a3.39 3.39 0 011.44-1.602c.66-.396 1.446-.594 2.358-.594zm11.192 9.63c-.912 0-1.734-.204-2.466-.612-.72-.42-1.29-.99-1.71-1.71-.42-.732-.63-1.566-.63-2.502 0-.948.21-1.782.63-2.502.42-.72.99-1.284 1.71-1.692.72-.408 1.542-.612 2.466-.612.936 0 1.764.204 2.484.612a4.374 4.374 0 011.71 1.692c.42.72.63 1.554.63 2.502 0 .936-.21 1.77-.63 2.502a4.5 4.5 0 01-1.71 1.71c-.732.408-1.56.612-2.484.612zm0-1.134c.684 0 1.29-.15 1.818-.45a3.31 3.31 0 001.242-1.296c.312-.564.468-1.212.468-1.944 0-.744-.156-1.392-.468-1.944a3.185 3.185 0 00-1.242-1.278c-.528-.312-1.128-.468-1.8-.468-.672 0-1.272.156-1.8.468-.528.3-.948.726-1.26 1.278-.312.552-.468 1.2-.468 1.944 0 .732.156 1.38.468 1.944a3.44 3.44 0 001.26 1.296c.528.3 1.122.45 1.782.45zm11.285 1.134c-.912 0-1.734-.204-2.466-.612-.72-.42-1.29-.99-1.71-1.71-.42-.732-.63-1.566-.63-2.502 0-.948.21-1.782.63-2.502.42-.72.99-1.284 1.71-1.692.72-.408 1.542-.612 2.466-.612.936 0 1.764.204 2.484.612a4.374 4.374 0 011.71 1.692c.42.72.63 1.554.63 2.502 0 .936-.21 1.77-.63 2.502a4.5 4.5 0 01-1.71 1.71c-.732.408-1.56.612-2.484.612zm0-1.134c.684 0 1.29-.15 1.818-.45a3.31 3.31 0 001.242-1.296c.312-.564.468-1.212.468-1.944 0-.744-.156-1.392-.468-1.944a3.185 3.185 0 00-1.242-1.278c-.528-.312-1.128-.468-1.8-.468-.672 0-1.272.156-1.8.468-.528.3-.948.726-1.26 1.278-.312.552-.468 1.2-.468 1.944 0 .732.156 1.38.468 1.944a3.44 3.44 0 001.26 1.296c.528.3 1.122.45 1.782.45zm9.97 1.134c-.78 0-1.517-.108-2.213-.324-.696-.228-1.242-.51-1.638-.846l.576-1.008c.384.288.876.54 1.476.756.6.204 1.23.306 1.89.306.9 0 1.548-.138 1.944-.414.396-.288.594-.666.594-1.134 0-.348-.114-.618-.342-.81-.216-.204-.504-.354-.864-.45a9.51 9.51 0 00-1.206-.27 25.981 25.981 0 01-1.332-.252 5.138 5.138 0 01-1.188-.414 2.499 2.499 0 01-.882-.774c-.216-.324-.324-.756-.324-1.296 0-.516.144-.978.432-1.386.288-.408.708-.726 1.26-.954.564-.24 1.248-.36 2.052-.36.612 0 1.224.084 1.836.252.612.156 1.116.366 1.512.63l-.558 1.026a4.152 4.152 0 00-1.35-.612 5.41 5.41 0 00-1.44-.198c-.852 0-1.482.15-1.89.45-.396.288-.594.66-.594 1.116 0 .36.108.642.324.846.228.204.522.366.882.486.372.108.774.198 1.206.27.444.072.882.162 1.314.27.444.096.846.234 1.206.414.372.168.666.414.882.738.228.312.342.726.342 1.242 0 .552-.156 1.032-.468 1.44-.3.396-.744.708-1.332.936-.576.216-1.278.324-2.106.324zm10.266 0c-.984 0-1.848-.204-2.592-.612a4.597 4.597 0 01-1.746-1.71c-.42-.732-.63-1.566-.63-2.502 0-.936.198-1.764.594-2.484.408-.72.96-1.284 1.656-1.692.708-.42 1.5-.63 2.376-.63.888 0 1.674.204 2.358.612.696.396 1.242.96 1.638 1.692.396.72.594 1.554.594 2.502 0 .06-.006.126-.018.198v.198h-8.226v-.954h7.542l-.504.378c0-.684-.15-1.29-.45-1.818a3.166 3.166 0 00-1.188-1.26c-.504-.3-1.086-.45-1.746-.45-.648 0-1.23.15-1.746.45-.516.3-.918.72-1.206 1.26-.288.54-.432 1.158-.432 1.854v.198c0 .72.156 1.356.468 1.908.324.54.768.966 1.332 1.278.576.3 1.23.45 1.962.45.576 0 1.11-.102 1.602-.306a3.334 3.334 0 001.296-.936l.72.828c-.42.504-.948.888-1.584 1.152a5.26 5.26 0 01-2.07.396zm234.983-6.588h6.66v1.152h-6.66v-1.152zm.144 6.498h-1.332v-12.6h8.64v1.152h-7.308V269zm9.613 0v-9.45h1.224v2.574l-.126-.45c.264-.72.708-1.266 1.332-1.638.624-.384 1.398-.576 2.322-.576v1.242h-.144a.592.592 0 00-.144-.018c-.996 0-1.776.306-2.34.918-.564.6-.846 1.458-.846 2.574V269h-1.278zm10.848.09c-.912 0-1.734-.204-2.466-.612-.72-.42-1.29-.99-1.71-1.71-.42-.732-.63-1.566-.63-2.502 0-.948.21-1.782.63-2.502.42-.72.99-1.284 1.71-1.692.72-.408 1.542-.612 2.466-.612.936 0 1.764.204 2.484.612a4.374 4.374 0 011.71 1.692c.42.72.63 1.554.63 2.502 0 .936-.21 1.77-.63 2.502a4.5 4.5 0 01-1.71 1.71c-.732.408-1.56.612-2.484.612zm0-1.134c.684 0 1.29-.15 1.818-.45a3.31 3.31 0 001.242-1.296c.312-.564.468-1.212.468-1.944 0-.744-.156-1.392-.468-1.944a3.185 3.185 0 00-1.242-1.278c-.528-.312-1.128-.468-1.8-.468-.672 0-1.272.156-1.8.468-.528.3-.948.726-1.26 1.278-.312.552-.468 1.2-.468 1.944 0 .732.156 1.38.468 1.944a3.44 3.44 0 001.26 1.296c.528.3 1.122.45 1.782.45zm19.241-8.496c.768 0 1.434.15 1.998.45a2.98 2.98 0 011.332 1.332c.324.6.486 1.356.486 2.268V269h-1.278v-5.364c0-.996-.24-1.746-.72-2.25-.468-.516-1.134-.774-1.998-.774-.648 0-1.212.138-1.692.414a2.73 2.73 0 00-1.098 1.17c-.252.504-.378 1.116-.378 1.836V269h-1.278v-5.364c0-.996-.24-1.746-.72-2.25-.48-.516-1.152-.774-2.016-.774-.636 0-1.194.138-1.674.414a2.7 2.7 0 00-1.116 1.17c-.252.504-.378 1.116-.378 1.836V269h-1.278v-9.45h1.224v2.556l-.198-.45a3.342 3.342 0 011.386-1.602c.648-.396 1.41-.594 2.286-.594.924 0 1.71.234 2.358.702.648.456 1.068 1.146 1.26 2.07l-.504-.198a3.693 3.693 0 011.458-1.854c.708-.48 1.554-.72 2.538-.72zM473.5 269v-11.448h-4.428V256.4h10.188v1.152h-4.428V269H473.5zm10.486.09c-.912 0-1.734-.204-2.466-.612-.72-.42-1.29-.99-1.71-1.71-.42-.732-.63-1.566-.63-2.502 0-.948.21-1.782.63-2.502.42-.72.99-1.284 1.71-1.692.72-.408 1.542-.612 2.466-.612.936 0 1.764.204 2.484.612a4.374 4.374 0 011.71 1.692c.42.72.63 1.554.63 2.502 0 .936-.21 1.77-.63 2.502a4.5 4.5 0 01-1.71 1.71c-.732.408-1.56.612-2.484.612zm0-1.134c.684 0 1.29-.15 1.818-.45a3.31 3.31 0 001.242-1.296c.312-.564.468-1.212.468-1.944 0-.744-.156-1.392-.468-1.944a3.185 3.185 0 00-1.242-1.278c-.528-.312-1.128-.468-1.8-.468-.672 0-1.272.156-1.8.468-.528.3-.948.726-1.26 1.278-.312.552-.468 1.2-.468 1.944 0 .732.156 1.38.468 1.944a3.44 3.44 0 001.26 1.296c.528.3 1.122.45 1.782.45z" fill="#9B9BB6"/><path d="M42.524 146.144c-.96 0-1.848-.156-2.664-.468a6.533 6.533 0 01-2.106-1.35 6.521 6.521 0 01-1.386-2.052c-.336-.78-.504-1.638-.504-2.574 0-.936.168-1.794.504-2.574a6.174 6.174 0 011.404-2.034 6.155 6.155 0 012.106-1.35 7.155 7.155 0 012.664-.486c.972 0 1.866.168 2.682.504.828.324 1.53.81 2.106 1.458l-1.17 1.134a4.57 4.57 0 00-1.62-1.116 4.923 4.923 0 00-1.926-.378c-.708 0-1.368.12-1.98.36-.6.24-1.122.576-1.566 1.008a4.638 4.638 0 00-1.044 1.548c-.24.588-.36 1.23-.36 1.926s.12 1.344.36 1.944c.252.588.6 1.098 1.044 1.53.444.432.966.768 1.566 1.008.612.24 1.272.36 1.98.36.684 0 1.326-.12 1.926-.36.6-.252 1.14-.636 1.62-1.152l1.17 1.134a5.584 5.584 0 01-2.106 1.476c-.816.336-1.716.504-2.7.504zm12.92-.144v-2.016l-.09-.378v-3.438c0-.732-.215-1.296-.647-1.692-.42-.408-1.056-.612-1.908-.612-.564 0-1.116.096-1.656.288a4.14 4.14 0 00-1.368.738l-.72-1.296a5.105 5.105 0 011.764-.9 7.306 7.306 0 012.178-.324c1.308 0 2.316.318 3.024.954.708.636 1.062 1.608 1.062 2.916V146h-1.638zm-3.131.108c-.708 0-1.332-.12-1.872-.36-.528-.24-.936-.57-1.224-.99a2.57 2.57 0 01-.432-1.458c0-.516.12-.984.36-1.404.252-.42.654-.756 1.206-1.008.564-.252 1.32-.378 2.268-.378h3.024v1.242H52.69c-.864 0-1.446.144-1.746.432-.3.288-.45.636-.45 1.044 0 .468.186.846.558 1.134.372.276.888.414 1.548.414.648 0 1.212-.144 1.692-.432a2.446 2.446 0 001.062-1.26l.342 1.188c-.228.564-.63 1.014-1.206 1.35-.576.324-1.302.486-2.178.486zm11.244 0c-.96 0-1.704-.258-2.232-.774-.528-.516-.792-1.254-.792-2.214v-8.748h1.728v8.676c0 .516.126.912.378 1.188.264.276.636.414 1.116.414.54 0 .99-.15 1.35-.45l.54 1.242a2.506 2.506 0 01-.954.504c-.36.108-.738.162-1.134.162zm-4.644-8.226v-1.422h6.084v1.422h-6.084zm12.752 8.226c-1.02 0-1.92-.21-2.7-.63a4.62 4.62 0 01-1.8-1.728c-.42-.732-.63-1.572-.63-2.52s.204-1.788.612-2.52a4.5 4.5 0 011.71-1.71c.732-.42 1.554-.63 2.466-.63.924 0 1.74.204 2.448.612.708.408 1.26.984 1.656 1.728.408.732.612 1.59.612 2.574 0 .072-.006.156-.018.252 0 .096-.006.186-.018.27h-8.118v-1.242h7.218l-.702.432c.012-.612-.114-1.158-.378-1.638a2.807 2.807 0 00-1.098-1.116c-.456-.276-.99-.414-1.602-.414-.6 0-1.134.138-1.602.414a2.779 2.779 0 00-1.098 1.134c-.264.48-.396 1.032-.396 1.656v.288c0 .636.144 1.206.432 1.71.3.492.714.876 1.242 1.152.528.276 1.134.414 1.818.414.564 0 1.074-.096 1.53-.288.468-.192.876-.48 1.224-.864l.954 1.116a4.166 4.166 0 01-1.62 1.152c-.636.264-1.35.396-2.142.396zm10.95 3.492a8.73 8.73 0 01-2.556-.378c-.816-.24-1.482-.588-1.998-1.044l.828-1.332c.444.384.99.684 1.638.9a6.083 6.083 0 002.034.342c1.128 0 1.956-.264 2.484-.792s.792-1.332.792-2.412v-2.016l.18-1.89-.09-1.908v-2.61h1.638v8.244c0 1.68-.42 2.916-1.26 3.708-.84.792-2.07 1.188-3.69 1.188zm-.216-3.996c-.924 0-1.752-.192-2.484-.576a4.622 4.622 0 01-1.728-1.638c-.42-.696-.63-1.5-.63-2.412 0-.924.21-1.728.63-2.412a4.484 4.484 0 011.728-1.62c.732-.384 1.56-.576 2.484-.576.816 0 1.56.168 2.232.504.672.324 1.206.828 1.602 1.512.408.684.612 1.548.612 2.592 0 1.032-.204 1.89-.612 2.574-.396.684-.93 1.2-1.602 1.548-.672.336-1.416.504-2.232.504zm.198-1.512c.636 0 1.2-.132 1.692-.396a2.9 2.9 0 001.152-1.098c.288-.468.432-1.008.432-1.62 0-.612-.144-1.152-.432-1.62a2.78 2.78 0 00-1.152-1.08c-.492-.264-1.056-.396-1.692-.396-.636 0-1.206.132-1.71.396a2.9 2.9 0 00-1.17 1.08c-.276.468-.414 1.008-.414 1.62 0 .612.138 1.152.414 1.62a3.03 3.03 0 001.17 1.098c.504.264 1.074.396 1.71.396zm12.356 2.016c-.96 0-1.813-.21-2.556-.63a4.69 4.69 0 01-1.765-1.728c-.431-.744-.648-1.584-.648-2.52 0-.948.217-1.788.648-2.52a4.557 4.557 0 011.764-1.71c.745-.42 1.597-.63 2.556-.63.948 0 1.794.21 2.538.63a4.4 4.4 0 011.764 1.71c.432.72.648 1.56.648 2.52 0 .948-.216 1.788-.648 2.52a4.524 4.524 0 01-1.764 1.728c-.743.42-1.59.63-2.537.63zm0-1.512c.611 0 1.157-.138 1.638-.414a2.922 2.922 0 001.152-1.17c.276-.516.413-1.11.413-1.782 0-.684-.138-1.272-.413-1.764a2.922 2.922 0 00-1.152-1.17c-.48-.276-1.026-.414-1.638-.414-.612 0-1.159.138-1.639.414a3.08 3.08 0 00-1.151 1.17c-.288.492-.432 1.08-.432 1.764 0 .672.144 1.266.431 1.782.288.504.672.894 1.152 1.17.48.276 1.027.414 1.639.414zm7.339 1.404v-9.54h1.656v2.592l-.162-.648a2.93 2.93 0 011.332-1.512c.624-.348 1.392-.522 2.304-.522v1.674a1.312 1.312 0 00-.216-.018h-.18c-.924 0-1.656.276-2.196.828-.54.552-.81 1.35-.81 2.394V146h-1.728zm8.061 3.6c-.456 0-.9-.078-1.332-.234a3.038 3.038 0 01-1.116-.648l.738-1.296c.24.228.504.402.792.522.288.12.594.18.918.18.42 0 .768-.108 1.044-.324.276-.216.534-.6.774-1.152l.594-1.314.18-.216 3.744-8.658h1.692l-4.626 10.494c-.276.672-.588 1.2-.936 1.584-.336.384-.708.654-1.116.81a3.513 3.513 0 01-1.35.252zm2.268-3.294l-4.356-9.846h1.8l3.708 8.496-1.152 1.35zM36.89 238v-12.6h1.476l5.652 9.522h-.792l5.58-9.522h1.476L50.3 238h-1.728l-.018-9.882h.414L44 236.47h-.828l-5.004-8.352h.45V238H36.89zm22.861 0v-2.016l-.09-.378v-3.438c0-.732-.216-1.296-.648-1.692-.42-.408-1.056-.612-1.908-.612-.564 0-1.116.096-1.656.288a4.14 4.14 0 00-1.368.738l-.72-1.296a5.105 5.105 0 011.764-.9 7.306 7.306 0 012.178-.324c1.308 0 2.316.318 3.024.954.708.636 1.062 1.608 1.062 2.916V238h-1.638zm-3.132.108c-.708 0-1.332-.12-1.872-.36-.528-.24-.936-.57-1.224-.99a2.57 2.57 0 01-.432-1.458c0-.516.12-.984.36-1.404.252-.42.654-.756 1.206-1.008.564-.252 1.32-.378 2.268-.378h3.024v1.242h-2.952c-.864 0-1.446.144-1.746.432-.3.288-.45.636-.45 1.044 0 .468.186.846.558 1.134.372.276.888.414 1.548.414.648 0 1.212-.144 1.692-.432a2.446 2.446 0 001.062-1.26l.342 1.188c-.228.564-.63 1.014-1.206 1.35-.576.324-1.302.486-2.178.486zm13.062-9.738c.78 0 1.464.15 2.052.45.6.3 1.068.756 1.404 1.368.336.612.504 1.386.504 2.322V238h-1.728v-5.292c0-.924-.228-1.62-.684-2.088-.444-.468-1.074-.702-1.89-.702-.612 0-1.146.12-1.602.36-.456.24-.81.594-1.062 1.062-.24.468-.36 1.05-.36 1.746V238h-1.728v-9.54h1.656v2.574l-.27-.684a3.313 3.313 0 011.44-1.458c.648-.348 1.404-.522 2.268-.522zm11.172 9.738c-.816 0-1.536-.15-2.16-.45a3.3 3.3 0 01-1.44-1.368c-.336-.624-.504-1.404-.504-2.34v-5.49h1.728v5.292c0 .936.222 1.638.666 2.106.456.468 1.092.702 1.908.702.6 0 1.122-.12 1.566-.36a2.549 2.549 0 001.026-1.08c.24-.48.36-1.056.36-1.728v-4.932h1.728V238h-1.638v-2.574l.27.684a3.338 3.338 0 01-1.404 1.476c-.624.348-1.326.522-2.106.522zm8.42-.108v-10.386c0-.936.27-1.68.81-2.232.552-.564 1.332-.846 2.34-.846.372 0 .726.048 1.062.144.348.084.642.222.882.414l-.522 1.314a1.873 1.873 0 00-.612-.324 2.066 2.066 0 00-.72-.126c-.504 0-.888.144-1.152.432-.264.276-.396.69-.396 1.242v1.278l.036.792V238h-1.728zm-1.62-8.118v-1.422h6.084v1.422h-6.084zm13.46 8.118v-2.016l-.09-.378v-3.438c0-.732-.216-1.296-.648-1.692-.42-.408-1.056-.612-1.908-.612-.564 0-1.116.096-1.656.288a4.14 4.14 0 00-1.368.738l-.72-1.296a5.105 5.105 0 011.764-.9 7.306 7.306 0 012.178-.324c1.308 0 2.316.318 3.024.954.708.636 1.062 1.608 1.062 2.916V238h-1.638zm-3.132.108c-.708 0-1.332-.12-1.872-.36-.528-.24-.936-.57-1.224-.99a2.57 2.57 0 01-.432-1.458c0-.516.12-.984.36-1.404.252-.42.654-.756 1.206-1.008.564-.252 1.32-.378 2.268-.378h3.024v1.242h-2.952c-.864 0-1.446.144-1.746.432-.3.288-.45.636-.45 1.044 0 .468.186.846.558 1.134.372.276.888.414 1.548.414.648 0 1.212-.144 1.692-.432a2.445 2.445 0 001.062-1.26l.342 1.188c-.228.564-.63 1.014-1.206 1.35-.576.324-1.302.486-2.178.486zm12.126 0c-.972 0-1.842-.21-2.61-.63a4.653 4.653 0 01-1.782-1.728c-.432-.732-.648-1.572-.648-2.52s.216-1.788.648-2.52a4.524 4.524 0 011.782-1.71c.768-.42 1.638-.63 2.61-.63.864 0 1.632.174 2.304.522.684.336 1.212.84 1.584 1.512l-1.314.846c-.312-.468-.696-.81-1.152-1.026a3.106 3.106 0 00-1.44-.342c-.624 0-1.182.138-1.674.414a3.045 3.045 0 00-1.17 1.17c-.288.492-.432 1.08-.432 1.764 0 .684.144 1.278.432 1.782.288.504.678.894 1.17 1.17.492.276 1.05.414 1.674.414.516 0 .996-.108 1.44-.324.456-.228.84-.576 1.152-1.044l1.314.828c-.372.66-.9 1.17-1.584 1.53-.672.348-1.44.522-2.304.522zm9.524 0c-.96 0-1.704-.258-2.232-.774-.528-.516-.792-1.254-.792-2.214v-8.748h1.728v8.676c0 .516.126.912.378 1.188.264.276.636.414 1.116.414.54 0 .99-.15 1.35-.45l.54 1.242a2.506 2.506 0 01-.954.504c-.36.108-.738.162-1.134.162zm-4.644-8.226v-1.422h6.084v1.422h-6.084zm12.835 8.226c-.816 0-1.536-.15-2.16-.45a3.3 3.3 0 01-1.44-1.368c-.336-.624-.504-1.404-.504-2.34v-5.49h1.728v5.292c0 .936.222 1.638.666 2.106.456.468 1.092.702 1.908.702.6 0 1.122-.12 1.566-.36a2.549 2.549 0 001.026-1.08c.24-.48.36-1.056.36-1.728v-4.932h1.728V238h-1.638v-2.574l.27.684a3.338 3.338 0 01-1.404 1.476c-.624.348-1.326.522-2.106.522zm8.168-.108v-9.54h1.656v2.592l-.162-.648a2.93 2.93 0 011.332-1.512c.624-.348 1.392-.522 2.304-.522v1.674a1.312 1.312 0 00-.216-.018h-.18c-.924 0-1.656.276-2.196.828-.54.552-.81 1.35-.81 2.394V238h-1.728zm11.419.108c-1.02 0-1.92-.21-2.7-.63a4.62 4.62 0 01-1.8-1.728c-.42-.732-.63-1.572-.63-2.52s.204-1.788.612-2.52a4.5 4.5 0 011.71-1.71c.732-.42 1.554-.63 2.466-.63.924 0 1.74.204 2.448.612.708.408 1.26.984 1.656 1.728.408.732.612 1.59.612 2.574 0 .072-.006.156-.018.252 0 .096-.006.186-.018.27h-8.118v-1.242h7.218l-.702.432c.012-.612-.114-1.158-.378-1.638a2.807 2.807 0 00-1.098-1.116c-.456-.276-.99-.414-1.602-.414-.6 0-1.134.138-1.602.414a2.779 2.779 0 00-1.098 1.134c-.264.48-.396 1.032-.396 1.656v.288c0 .636.144 1.206.432 1.71.3.492.714.876 1.242 1.152.528.276 1.134.414 1.818.414.564 0 1.074-.096 1.53-.288.468-.192.876-.48 1.224-.864l.954 1.116a4.166 4.166 0 01-1.62 1.152c-.636.264-1.35.396-2.142.396zm6.774-.108v-9.54h1.656v2.592l-.162-.648a2.93 2.93 0 011.332-1.512c.624-.348 1.392-.522 2.304-.522v1.674a1.312 1.312 0 00-.216-.018h-.18c-.924 0-1.656.276-2.196.828-.54.552-.81 1.35-.81 2.394V238h-1.728zm176.707 0v-12.6h5.31c1.344 0 2.526.264 3.546.792 1.032.528 1.83 1.266 2.394 2.214.576.948.864 2.046.864 3.294 0 1.248-.288 2.346-.864 3.294-.564.948-1.362 1.686-2.394 2.214-1.02.528-2.202.792-3.546.792h-5.31zm1.8-1.566h3.402c1.044 0 1.944-.198 2.7-.594a4.325 4.325 0 001.782-1.656c.42-.72.63-1.548.63-2.484 0-.948-.21-1.776-.63-2.484a4.325 4.325 0 00-1.782-1.656c-.756-.396-1.656-.594-2.7-.594h-3.402v9.468zm17.067 1.674c-1.02 0-1.92-.21-2.7-.63a4.62 4.62 0 01-1.8-1.728c-.42-.732-.63-1.572-.63-2.52s.204-1.788.612-2.52a4.5 4.5 0 011.71-1.71c.732-.42 1.554-.63 2.466-.63.924 0 1.74.204 2.448.612.708.408 1.26.984 1.656 1.728.408.732.612 1.59.612 2.574 0 .072-.006.156-.018.252 0 .096-.006.186-.018.27h-8.118v-1.242h7.218l-.702.432c.012-.612-.114-1.158-.378-1.638a2.807 2.807 0 00-1.098-1.116c-.456-.276-.99-.414-1.602-.414-.6 0-1.134.138-1.602.414a2.779 2.779 0 00-1.098 1.134c-.264.48-.396 1.032-.396 1.656v.288c0 .636.144 1.206.432 1.71.3.492.714.876 1.242 1.152.528.276 1.134.414 1.818.414.564 0 1.074-.096 1.53-.288.468-.192.876-.48 1.224-.864l.954 1.116a4.166 4.166 0 01-1.62 1.152c-.636.264-1.35.396-2.142.396zm9.1-.108l-4.176-9.54h1.8l3.708 8.64h-.864l3.78-8.64h1.692l-4.176 9.54h-1.764zm7.552 0v-9.54h1.728V238h-1.728zm.864-11.376c-.336 0-.618-.108-.846-.324a1.077 1.077 0 01-.324-.792c0-.324.108-.594.324-.81.228-.216.51-.324.846-.324.336 0 .612.108.828.324a.994.994 0 01.342.774c0 .324-.108.6-.324.828-.216.216-.498.324-.846.324zM377.359 238v-2.016l-.09-.378v-3.438c0-.732-.216-1.296-.648-1.692-.42-.408-1.056-.612-1.908-.612-.564 0-1.116.096-1.656.288a4.14 4.14 0 00-1.368.738l-.72-1.296a5.105 5.105 0 011.764-.9 7.306 7.306 0 012.178-.324c1.308 0 2.316.318 3.024.954.708.636 1.062 1.608 1.062 2.916V238h-1.638zm-3.132.108c-.708 0-1.332-.12-1.872-.36-.528-.24-.936-.57-1.224-.99a2.57 2.57 0 01-.432-1.458c0-.516.12-.984.36-1.404.252-.42.654-.756 1.206-1.008.564-.252 1.32-.378 2.268-.378h3.024v1.242h-2.952c-.864 0-1.446.144-1.746.432-.3.288-.45.636-.45 1.044 0 .468.186.846.558 1.134.372.276.888.414 1.548.414.648 0 1.212-.144 1.692-.432a2.446 2.446 0 001.062-1.26l.342 1.188c-.228.564-.63 1.014-1.206 1.35-.576.324-1.302.486-2.178.486zm11.244 0c-.96 0-1.704-.258-2.232-.774-.528-.516-.792-1.254-.792-2.214v-8.748h1.728v8.676c0 .516.126.912.378 1.188.264.276.636.414 1.116.414.54 0 .99-.15 1.35-.45l.54 1.242a2.506 2.506 0 01-.954.504c-.36.108-.738.162-1.134.162zm-4.644-8.226v-1.422h6.084v1.422h-6.084zm8.821 8.118v-9.54h1.728V238h-1.728zm.864-11.376c-.336 0-.618-.108-.846-.324a1.077 1.077 0 01-.324-.792c0-.324.108-.594.324-.81.228-.216.51-.324.846-.324.336 0 .612.108.828.324a.994.994 0 01.342.774c0 .324-.108.6-.324.828-.216.216-.498.324-.846.324zm8.249 11.484c-.96 0-1.812-.21-2.556-.63a4.69 4.69 0 01-1.764-1.728c-.432-.744-.648-1.584-.648-2.52 0-.948.216-1.788.648-2.52a4.557 4.557 0 011.764-1.71c.744-.42 1.596-.63 2.556-.63.948 0 1.794.21 2.538.63a4.4 4.4 0 011.764 1.71c.432.72.648 1.56.648 2.52 0 .948-.216 1.788-.648 2.52a4.524 4.524 0 01-1.764 1.728c-.744.42-1.59.63-2.538.63zm0-1.512c.612 0 1.158-.138 1.638-.414a2.922 2.922 0 001.152-1.17c.276-.516.414-1.11.414-1.782 0-.684-.138-1.272-.414-1.764a2.922 2.922 0 00-1.152-1.17c-.48-.276-1.026-.414-1.638-.414-.612 0-1.158.138-1.638.414-.48.276-.864.666-1.152 1.17-.288.492-.432 1.08-.432 1.764 0 .672.144 1.266.432 1.782.288.504.672.894 1.152 1.17.48.276 1.026.414 1.638.414zm12.434-8.226c.78 0 1.464.15 2.052.45.6.3 1.068.756 1.404 1.368.336.612.504 1.386.504 2.322V238h-1.728v-5.292c0-.924-.228-1.62-.684-2.088-.444-.468-1.074-.702-1.89-.702-.612 0-1.146.12-1.602.36-.456.24-.81.594-1.062 1.062-.24.468-.36 1.05-.36 1.746V238h-1.728v-9.54h1.656v2.574l-.27-.684a3.313 3.313 0 011.44-1.458c.648-.348 1.404-.522 2.268-.522zM330.89 146v-12.6h5.31c1.344 0 2.526.264 3.546.792 1.032.528 1.83 1.266 2.394 2.214.576.948.864 2.046.864 3.294 0 1.248-.288 2.346-.864 3.294-.564.948-1.362 1.686-2.394 2.214-1.02.528-2.202.792-3.546.792h-5.31zm1.8-1.566h3.402c1.044 0 1.944-.198 2.7-.594a4.325 4.325 0 001.782-1.656c.42-.72.63-1.548.63-2.484 0-.948-.21-1.776-.63-2.484a4.325 4.325 0 00-1.782-1.656c-.756-.396-1.656-.594-2.7-.594h-3.402v9.468zm17.067 1.674c-1.02 0-1.92-.21-2.7-.63a4.62 4.62 0 01-1.8-1.728c-.42-.732-.63-1.572-.63-2.52s.204-1.788.612-2.52a4.5 4.5 0 011.71-1.71c.732-.42 1.554-.63 2.466-.63.924 0 1.74.204 2.448.612.708.408 1.26.984 1.656 1.728.408.732.612 1.59.612 2.574 0 .072-.006.156-.018.252 0 .096-.006.186-.018.27h-8.118v-1.242h7.218l-.702.432c.012-.612-.114-1.158-.378-1.638a2.807 2.807 0 00-1.098-1.116c-.456-.276-.99-.414-1.602-.414-.6 0-1.134.138-1.602.414a2.779 2.779 0 00-1.098 1.134c-.264.48-.396 1.032-.396 1.656v.288c0 .636.144 1.206.432 1.71.3.492.714.876 1.242 1.152.528.276 1.134.414 1.818.414.564 0 1.074-.096 1.53-.288.468-.192.876-.48 1.224-.864l.954 1.116a4.166 4.166 0 01-1.62 1.152c-.636.264-1.35.396-2.142.396zm9.1-.108l-4.176-9.54h1.8l3.708 8.64h-.864l3.78-8.64h1.692l-4.176 9.54h-1.764zm7.552 0v-9.54h1.728V146h-1.728zm.864-11.376c-.336 0-.618-.108-.846-.324a1.077 1.077 0 01-.324-.792c0-.324.108-.594.324-.81.228-.216.51-.324.846-.324.336 0 .612.108.828.324a.994.994 0 01.342.774c0 .324-.108.6-.324.828-.216.216-.498.324-.846.324zM377.359 146v-2.016l-.09-.378v-3.438c0-.732-.216-1.296-.648-1.692-.42-.408-1.056-.612-1.908-.612-.564 0-1.116.096-1.656.288a4.14 4.14 0 00-1.368.738l-.72-1.296a5.105 5.105 0 011.764-.9 7.306 7.306 0 012.178-.324c1.308 0 2.316.318 3.024.954.708.636 1.062 1.608 1.062 2.916V146h-1.638zm-3.132.108c-.708 0-1.332-.12-1.872-.36-.528-.24-.936-.57-1.224-.99a2.57 2.57 0 01-.432-1.458c0-.516.12-.984.36-1.404.252-.42.654-.756 1.206-1.008.564-.252 1.32-.378 2.268-.378h3.024v1.242h-2.952c-.864 0-1.446.144-1.746.432-.3.288-.45.636-.45 1.044 0 .468.186.846.558 1.134.372.276.888.414 1.548.414.648 0 1.212-.144 1.692-.432a2.446 2.446 0 001.062-1.26l.342 1.188c-.228.564-.63 1.014-1.206 1.35-.576.324-1.302.486-2.178.486zm11.244 0c-.96 0-1.704-.258-2.232-.774-.528-.516-.792-1.254-.792-2.214v-8.748h1.728v8.676c0 .516.126.912.378 1.188.264.276.636.414 1.116.414.54 0 .99-.15 1.35-.45l.54 1.242a2.506 2.506 0 01-.954.504c-.36.108-.738.162-1.134.162zm-4.644-8.226v-1.422h6.084v1.422h-6.084zm8.821 8.118v-9.54h1.728V146h-1.728zm.864-11.376c-.336 0-.618-.108-.846-.324a1.077 1.077 0 01-.324-.792c0-.324.108-.594.324-.81.228-.216.51-.324.846-.324.336 0 .612.108.828.324a.994.994 0 01.342.774c0 .324-.108.6-.324.828-.216.216-.498.324-.846.324zm8.249 11.484c-.96 0-1.812-.21-2.556-.63a4.69 4.69 0 01-1.764-1.728c-.432-.744-.648-1.584-.648-2.52 0-.948.216-1.788.648-2.52a4.557 4.557 0 011.764-1.71c.744-.42 1.596-.63 2.556-.63.948 0 1.794.21 2.538.63a4.4 4.4 0 011.764 1.71c.432.72.648 1.56.648 2.52 0 .948-.216 1.788-.648 2.52a4.524 4.524 0 01-1.764 1.728c-.744.42-1.59.63-2.538.63zm0-1.512c.612 0 1.158-.138 1.638-.414a2.922 2.922 0 001.152-1.17c.276-.516.414-1.11.414-1.782 0-.684-.138-1.272-.414-1.764a2.922 2.922 0 00-1.152-1.17c-.48-.276-1.026-.414-1.638-.414-.612 0-1.158.138-1.638.414-.48.276-.864.666-1.152 1.17-.288.492-.432 1.08-.432 1.764 0 .672.144 1.266.432 1.782.288.504.672.894 1.152 1.17.48.276 1.026.414 1.638.414zm12.434-8.226c.78 0 1.464.15 2.052.45.6.3 1.068.756 1.404 1.368.336.612.504 1.386.504 2.322V146h-1.728v-5.292c0-.924-.228-1.62-.684-2.088-.444-.468-1.074-.702-1.89-.702-.612 0-1.146.12-1.602.36-.456.24-.81.594-1.062 1.062-.24.468-.36 1.05-.36 1.746V146h-1.728v-9.54h1.656v2.574l-.27-.684a3.313 3.313 0 011.44-1.458c.648-.348 1.404-.522 2.268-.522zm9.372 13.122c-.684-1.092-1.212-2.352-1.584-3.78-.372-1.44-.558-2.988-.558-4.644 0-1.656.186-3.204.558-4.644.372-1.452.9-2.712 1.584-3.78h1.638a15.426 15.426 0 00-1.584 3.996c-.336 1.38-.504 2.856-.504 4.428a18.9 18.9 0 00.504 4.446c.336 1.38.864 2.706 1.584 3.978h-1.638zm4.804-3.492l8.604-12.6h1.386l-8.604 12.6h-1.386zm1.008-5.832a2.749 2.749 0 01-1.53-.432 2.935 2.935 0 01-1.044-1.206c-.24-.516-.36-1.116-.36-1.8 0-.684.12-1.284.36-1.8.252-.516.6-.918 1.044-1.206a2.749 2.749 0 011.53-.432c.588 0 1.098.144 1.53.432.444.288.786.69 1.026 1.206s.36 1.116.36 1.8c0 .684-.12 1.284-.36 1.8s-.582.918-1.026 1.206c-.432.288-.942.432-1.53.432zm0-1.026c.552 0 .984-.21 1.296-.63.312-.432.468-1.026.468-1.782s-.156-1.344-.468-1.764c-.312-.432-.744-.648-1.296-.648-.54 0-.972.216-1.296.648-.312.42-.468 1.008-.468 1.764 0 .744.156 1.332.468 1.764a1.54 1.54 0 001.296.648zm7.974 6.966a2.749 2.749 0 01-1.53-.432 2.813 2.813 0 01-1.026-1.206c-.24-.516-.36-1.116-.36-1.8 0-.684.12-1.284.36-1.8s.582-.918 1.026-1.206a2.749 2.749 0 011.53-.432c.588 0 1.098.144 1.53.432.444.288.786.69 1.026 1.206.252.516.378 1.116.378 1.8 0 .684-.126 1.284-.378 1.8-.24.516-.582.918-1.026 1.206-.432.288-.942.432-1.53.432zm0-1.026c.54 0 .966-.21 1.278-.63.324-.432.486-1.026.486-1.782 0-.744-.162-1.332-.486-1.764-.312-.432-.738-.648-1.278-.648s-.972.216-1.296.648c-.312.42-.468 1.008-.468 1.764s.156 1.35.468 1.782c.324.42.756.63 1.296.63zm5.459 4.41h-1.638a15.113 15.113 0 001.602-3.978 18.9 18.9 0 00.504-4.446c0-1.572-.168-3.048-.504-4.428a15.064 15.064 0 00-1.602-3.996h1.638c.708 1.068 1.242 2.328 1.602 3.78.372 1.44.558 2.988.558 4.644 0 1.656-.186 3.204-.558 4.644-.36 1.428-.894 2.688-1.602 3.78zM328.982 54l5.706-12.6h1.782l5.724 12.6h-1.89l-5.094-11.592h.72L330.836 54h-1.854zm2.43-3.15l.486-1.44h7.092l.522 1.44h-8.1zM345.831 54l-4.176-9.54h1.8l3.708 8.64h-.864l3.78-8.64h1.692L347.595 54h-1.764zm13.176 0v-2.016l-.09-.378v-3.438c0-.732-.216-1.296-.648-1.692-.42-.408-1.056-.612-1.908-.612-.564 0-1.116.096-1.656.288a4.14 4.14 0 00-1.368.738l-.72-1.296a5.105 5.105 0 011.764-.9 7.306 7.306 0 012.178-.324c1.308 0 2.316.318 3.024.954.708.636 1.062 1.608 1.062 2.916V54h-1.638zm-3.132.108c-.708 0-1.332-.12-1.872-.36-.528-.24-.936-.57-1.224-.99a2.57 2.57 0 01-.432-1.458c0-.516.12-.984.36-1.404.252-.42.654-.756 1.206-1.008.564-.252 1.32-.378 2.268-.378h3.024v1.242h-2.952c-.864 0-1.446.144-1.746.432-.3.288-.45.636-.45 1.044 0 .468.186.846.558 1.134.372.276.888.414 1.548.414.648 0 1.212-.144 1.692-.432a2.446 2.446 0 001.062-1.26l.342 1.188c-.228.564-.63 1.014-1.206 1.35-.576.324-1.302.486-2.178.486zm7.968-.108v-9.54h1.728V54h-1.728zm.864-11.376c-.336 0-.618-.108-.846-.324a1.077 1.077 0 01-.324-.792c0-.324.108-.594.324-.81.228-.216.51-.324.846-.324.336 0 .612.108.828.324a.994.994 0 01.342.774c0 .324-.108.6-.324.828-.216.216-.498.324-.846.324zM368.87 54V40.644h1.728V54h-1.728zm10.95 0v-2.016l-.09-.378v-3.438c0-.732-.216-1.296-.648-1.692-.42-.408-1.056-.612-1.908-.612-.564 0-1.116.096-1.656.288a4.14 4.14 0 00-1.368.738l-.72-1.296a5.105 5.105 0 011.764-.9 7.306 7.306 0 012.178-.324c1.308 0 2.316.318 3.024.954.708.636 1.062 1.608 1.062 2.916V54h-1.638zm-3.132.108c-.708 0-1.332-.12-1.872-.36-.528-.24-.936-.57-1.224-.99a2.57 2.57 0 01-.432-1.458c0-.516.12-.984.36-1.404.252-.42.654-.756 1.206-1.008.564-.252 1.32-.378 2.268-.378h3.024v1.242h-2.952c-.864 0-1.446.144-1.746.432-.3.288-.45.636-.45 1.044 0 .468.186.846.558 1.134.372.276.888.414 1.548.414.648 0 1.212-.144 1.692-.432a2.446 2.446 0 001.062-1.26l.342 1.188c-.228.564-.63 1.014-1.206 1.35-.576.324-1.302.486-2.178.486zm13.026 0c-.816 0-1.554-.18-2.214-.54-.648-.372-1.164-.918-1.548-1.638-.372-.72-.558-1.62-.558-2.7s.192-1.98.576-2.7c.396-.72.918-1.26 1.566-1.62.66-.36 1.386-.54 2.178-.54.936 0 1.764.204 2.484.612a4.5 4.5 0 011.71 1.71c.42.72.63 1.566.63 2.538 0 .972-.21 1.824-.63 2.556a4.5 4.5 0 01-1.71 1.71c-.72.408-1.548.612-2.484.612zM384.656 54V40.644h1.728v6.354l-.18 2.214.108 2.214V54h-1.656zm4.914-1.404c.612 0 1.158-.138 1.638-.414a2.922 2.922 0 001.152-1.17c.288-.516.432-1.11.432-1.782 0-.684-.144-1.272-.432-1.764a2.922 2.922 0 00-1.152-1.17c-.48-.276-1.026-.414-1.638-.414-.6 0-1.146.138-1.638.414-.48.276-.864.666-1.152 1.17-.276.492-.414 1.08-.414 1.764 0 .672.138 1.266.414 1.782.288.504.672.894 1.152 1.17a3.29 3.29 0 001.638.414zM396.925 54v-9.54h1.728V54h-1.728zm.864-11.376c-.336 0-.618-.108-.846-.324a1.077 1.077 0 01-.324-.792c0-.324.108-.594.324-.81.228-.216.51-.324.846-.324.336 0 .612.108.828.324a.994.994 0 01.342.774c0 .324-.108.6-.324.828-.216.216-.498.324-.846.324zM401.952 54V40.644h1.728V54h-1.728zm5.028 0v-9.54h1.728V54h-1.728zm.864-11.376c-.336 0-.618-.108-.846-.324a1.077 1.077 0 01-.324-.792c0-.324.108-.594.324-.81.228-.216.51-.324.846-.324.336 0 .612.108.828.324a.994.994 0 01.342.774c0 .324-.108.6-.324.828-.216.216-.498.324-.846.324zm7.439 11.484c-.96 0-1.704-.258-2.232-.774-.528-.516-.792-1.254-.792-2.214v-8.748h1.728v8.676c0 .516.126.912.378 1.188.264.276.636.414 1.116.414.54 0 .99-.15 1.35-.45l.54 1.242a2.506 2.506 0 01-.954.504c-.36.108-.738.162-1.134.162zm-4.644-8.226V44.46h6.084v1.422h-6.084zm9.059 11.718c-.456 0-.9-.078-1.332-.234a3.038 3.038 0 01-1.116-.648l.738-1.296c.24.228.504.402.792.522.288.12.594.18.918.18.42 0 .768-.108 1.044-.324.276-.216.534-.6.774-1.152l.594-1.314.18-.216 3.744-8.658h1.692L423.1 54.954c-.276.672-.588 1.2-.936 1.584-.336.384-.708.654-1.116.81a3.513 3.513 0 01-1.35.252zm2.268-3.294l-4.356-9.846h1.8l3.708 8.496-1.152 1.35z" fill="#37376D"/><path fill-rule="evenodd" clip-rule="evenodd" d="M287 103H36v-1h251v1zm0 91H36v-1h251v1zm153 91H329v-1h111v1zm140 0H469v-1h111v1zm0-91H329v-1h251v1z" fill="#000"/><path d="M576.165 172.75L572 169h8.33l-4.165 3.75z" fill="#000C2C"/><path fill-rule="evenodd" clip-rule="evenodd" d="M581 103H330v-1h251v1z" fill="#000"/><path d="M576.165 84.75L572 81h8.33l-4.165 3.75z" fill="#000C2C"/><path fill-rule="evenodd" clip-rule="evenodd" d="M287 285H36v-1h251v1z" fill="#000"/><path d="M283.165 265.75L279 262h8.33l-4.165 3.75z" fill="#000C2C"/></svg>