<svg width="619" height="323" fill="none" xmlns="http://www.w3.org/2000/svg"><path d="M0 15C0 6.716 6.716 0 15 0h589c8.284 0 15 6.716 15 15v293c0 8.284-6.716 15-15 15H15c-8.284 0-15-6.716-15-15V15z" fill="#fff"/><path d="M37.89 49V36.4h5.31c1.344 0 2.526.264 3.546.792 1.032.528 1.83 1.266 2.394 2.214.576.948.864 2.046.864 3.294 0 1.248-.288 2.346-.864 3.294-.564.948-1.362 1.686-2.394 2.214-1.02.528-2.202.792-3.546.792h-5.31zm1.8-1.566h3.402c1.044 0 1.944-.198 2.7-.594a4.325 4.325 0 001.782-1.656c.42-.72.63-1.548.63-2.484 0-.948-.21-1.776-.63-2.484a4.325 4.325 0 00-1.782-1.656c-.756-.396-1.656-.594-2.7-.594H39.69v9.468zM58.431 49v-2.016l-.09-.378v-3.438c0-.732-.216-1.296-.648-1.692-.42-.408-1.056-.612-1.908-.612-.564 0-1.116.096-1.656.288a4.14 4.14 0 00-1.368.738l-.72-1.296a5.105 5.105 0 011.764-.9 7.306 7.306 0 012.178-.324c1.308 0 2.316.318 3.024.954.708.636 1.062 1.608 1.062 2.916V49h-1.638zm-3.132.108c-.708 0-1.332-.12-1.872-.36-.528-.24-.936-.57-1.224-.99a2.57 2.57 0 01-.432-1.458c0-.516.12-.984.36-1.404.252-.42.654-.756 1.206-1.008.564-.252 1.32-.378 2.268-.378h3.024v1.242h-2.952c-.864 0-1.446.144-1.746.432-.3.288-.45.636-.45 1.044 0 .468.186.846.558 1.134.372.276.888.414 1.548.414.648 0 1.212-.144 1.692-.432a2.446 2.446 0 001.062-1.26l.342 1.188c-.228.564-.63 1.014-1.206 1.35-.576.324-1.302.486-2.178.486zm8.206 3.492c-.456 0-.9-.078-1.332-.234a3.038 3.038 0 01-1.116-.648l.738-1.296c.24.228.504.402.792.522.288.12.594.18.918.18.42 0 .768-.108 1.044-.324.276-.216.534-.6.774-1.152l.594-1.314.18-.216 3.744-8.658h1.692l-4.626 10.494c-.276.672-.588 1.2-.936 1.584-.336.384-.708.654-1.116.81a3.513 3.513 0 01-1.35.252zm2.268-3.294l-4.356-9.846h1.8l3.708 8.496-1.152 1.35zm9.986-.198a7.85 7.85 0 01-2.268-.324c-.708-.216-1.266-.48-1.674-.792l.72-1.368c.408.276.912.51 1.512.702a5.99 5.99 0 001.836.288c.804 0 1.38-.114 1.728-.342.36-.228.54-.546.54-.954 0-.3-.108-.534-.324-.702-.216-.168-.504-.294-.864-.378a12.123 12.123 0 00-1.17-.216 24.668 24.668 0 01-1.296-.252 5.786 5.786 0 01-1.188-.432 2.343 2.343 0 01-.864-.774c-.216-.336-.324-.78-.324-1.332 0-.576.162-1.08.486-1.512.324-.432.78-.762 1.368-.99.6-.24 1.308-.36 2.124-.36.624 0 1.254.078 1.89.234.648.144 1.176.354 1.584.63l-.738 1.368a4.077 4.077 0 00-1.35-.594 6.226 6.226 0 00-1.404-.162c-.756 0-1.32.126-1.692.378-.372.24-.558.552-.558.936 0 .324.108.576.324.756.228.168.516.3.864.396.36.096.756.18 1.188.252.432.06.864.144 1.296.252.432.096.822.234 1.17.414.36.18.648.432.864.756.228.324.342.756.342 1.296 0 .576-.168 1.074-.504 1.494-.336.42-.81.75-1.422.99-.612.228-1.344.342-2.196.342zm-33.235 91.036c-.96 0-1.848-.156-2.664-.468a6.533 6.533 0 01-2.106-1.35 6.521 6.521 0 01-1.386-2.052c-.336-.78-.504-1.638-.504-2.574 0-.936.168-1.794.504-2.574a6.174 6.174 0 011.404-2.034 6.155 6.155 0 012.106-1.35 7.155 7.155 0 012.664-.486c.972 0 1.866.168 2.682.504.828.324 1.53.81 2.106 1.458l-1.17 1.134a4.57 4.57 0 00-1.62-1.116 4.923 4.923 0 00-1.926-.378c-.708 0-1.368.12-1.98.36-.6.24-1.122.576-1.566 1.008a4.638 4.638 0 00-1.044 1.548c-.24.588-.36 1.23-.36 1.926s.12 1.344.36 1.944c.252.588.6 1.098 1.044 1.53.444.432.966.768 1.566 1.008.612.24 1.272.36 1.98.36.684 0 1.326-.12 1.926-.36.6-.252 1.14-.636 1.62-1.152l1.17 1.134a5.584 5.584 0 01-2.106 1.476c-.816.336-1.716.504-2.7.504zm7.122-.144v-13.356h1.728V140h-1.728zm9.113.108c-.96 0-1.812-.21-2.556-.63a4.69 4.69 0 01-1.764-1.728c-.432-.744-.648-1.584-.648-2.52 0-.948.216-1.788.648-2.52a4.557 4.557 0 011.764-1.71c.744-.42 1.596-.63 2.556-.63.948 0 1.794.21 2.538.63a4.4 4.4 0 011.764 1.71c.432.72.648 1.56.648 2.52 0 .948-.216 1.788-.648 2.52a4.524 4.524 0 01-1.764 1.728c-.744.42-1.59.63-2.538.63zm0-1.512c.612 0 1.158-.138 1.638-.414a2.922 2.922 0 001.152-1.17c.276-.516.414-1.11.414-1.782 0-.684-.138-1.272-.414-1.764a2.922 2.922 0 00-1.152-1.17c-.48-.276-1.026-.414-1.638-.414-.612 0-1.158.138-1.638.414-.48.276-.864.666-1.152 1.17-.288.492-.432 1.08-.432 1.764 0 .672.144 1.266.432 1.782.288.504.672.894 1.152 1.17.48.276 1.026.414 1.638.414zm11.498 1.512c-.972 0-1.842-.21-2.61-.63a4.653 4.653 0 01-1.782-1.728c-.432-.732-.648-1.572-.648-2.52s.216-1.788.648-2.52a4.524 4.524 0 011.782-1.71c.768-.42 1.638-.63 2.61-.63.864 0 1.632.174 2.304.522.684.336 1.212.84 1.584 1.512l-1.314.846c-.312-.468-.696-.81-1.152-1.026a3.106 3.106 0 00-1.44-.342c-.624 0-1.182.138-1.674.414a3.045 3.045 0 00-1.17 1.17c-.288.492-.432 1.08-.432 1.764 0 .684.144 1.278.432 1.782.288.504.678.894 1.17 1.17.492.276 1.05.414 1.674.414.516 0 .996-.108 1.44-.324.456-.228.84-.576 1.152-1.044l1.314.828c-.372.66-.9 1.17-1.584 1.53-.672.348-1.44.522-2.304.522zm7.406-2.412l.036-2.214 5.49-5.022h2.088l-4.212 4.14-.936.792-2.466 2.304zM76.26 140v-13.356h1.728V140H76.26zm7.29 0l-3.744-4.644 1.116-1.386 4.752 6.03H83.55zm-43.66 92v-12.6h1.476l5.652 9.522h-.792l5.58-9.522h1.476L53.3 232h-1.728l-.018-9.882h.414L47 230.47h-.828l-5.004-8.352h.45V232H39.89zm16.94 0v-9.54h1.727V232H56.83zm.863-11.376c-.336 0-.618-.108-.846-.324a1.077 1.077 0 01-.324-.792c0-.324.108-.594.324-.81.228-.216.51-.324.846-.324.336 0 .612.108.828.324a.994.994 0 01.342.774c0 .324-.108.6-.324.828-.216.216-.498.324-.846.324zm9.258 1.746c.78 0 1.464.15 2.052.45.6.3 1.068.756 1.404 1.368.336.612.504 1.386.504 2.322V232h-1.728v-5.292c0-.924-.228-1.62-.684-2.088-.444-.468-1.074-.702-1.89-.702-.612 0-1.146.12-1.602.36-.456.24-.81.594-1.062 1.062-.24.468-.36 1.05-.36 1.746V232h-1.728v-9.54h1.656v2.574l-.27-.684a3.313 3.313 0 011.44-1.458c.648-.348 1.404-.522 2.268-.522zm11.172 9.738c-.816 0-1.536-.15-2.16-.45a3.3 3.3 0 01-1.44-1.368c-.336-.624-.504-1.404-.504-2.34v-5.49h1.728v5.292c0 .936.222 1.638.666 2.106.456.468 1.092.702 1.908.702.6 0 1.122-.12 1.566-.36a2.549 2.549 0 001.026-1.08c.24-.48.36-1.056.36-1.728v-4.932H83V232h-1.638v-2.574l.27.684a3.338 3.338 0 01-1.404 1.476c-.624.348-1.326.522-2.106.522zm11.443 0c-.96 0-1.704-.258-2.232-.774-.528-.516-.792-1.254-.792-2.214v-8.748h1.728v8.676c0 .516.126.912.378 1.188.264.276.636.414 1.116.414.54 0 .99-.15 1.35-.45l.54 1.242a2.506 2.506 0 01-.954.504c-.36.108-.738.162-1.134.162zm-4.644-8.226v-1.422h6.084v1.422h-6.084zm12.753 8.226c-1.02 0-1.92-.21-2.7-.63a4.62 4.62 0 01-1.8-1.728c-.42-.732-.63-1.572-.63-2.52s.204-1.788.612-2.52a4.5 4.5 0 011.71-1.71c.732-.42 1.554-.63 2.466-.63.924 0 1.74.204 2.448.612.708.408 1.26.984 1.656 1.728.408.732.612 1.59.612 2.574 0 .072-.006.156-.018.252 0 .096-.006.186-.018.27h-8.118v-1.242h7.218l-.702.432c.012-.612-.114-1.158-.378-1.638a2.806 2.806 0 00-1.098-1.116c-.456-.276-.99-.414-1.602-.414-.6 0-1.134.138-1.602.414a2.779 2.779 0 00-1.098 1.134c-.264.48-.396 1.032-.396 1.656v.288c0 .636.144 1.206.432 1.71.3.492.714.876 1.242 1.152.528.276 1.134.414 1.818.414.564 0 1.074-.096 1.53-.288.468-.192.876-.48 1.224-.864l.954 1.116a4.166 4.166 0 01-1.62 1.152c-.636.264-1.35.396-2.142.396zm9.51 0a7.85 7.85 0 01-2.268-.324c-.708-.216-1.266-.48-1.674-.792l.72-1.368c.408.276.912.51 1.512.702a5.99 5.99 0 001.836.288c.804 0 1.38-.114 1.728-.342.36-.228.54-.546.54-.954 0-.3-.108-.534-.324-.702-.216-.168-.504-.294-.864-.378a12.123 12.123 0 00-1.17-.216 24.668 24.668 0 01-1.296-.252 5.786 5.786 0 01-1.188-.432 2.343 2.343 0 01-.864-.774c-.216-.336-.324-.78-.324-1.332 0-.576.162-1.08.486-1.512.324-.432.78-.762 1.368-.99.6-.24 1.308-.36 2.124-.36.624 0 1.254.078 1.89.234.648.144 1.176.354 1.584.63l-.738 1.368a4.077 4.077 0 00-1.35-.594 6.226 6.226 0 00-1.404-.162c-.756 0-1.32.126-1.692.378-.372.24-.558.552-.558.936 0 .324.108.576.324.756.228.168.516.3.864.396.36.096.756.18 1.188.252.432.06.864.144 1.296.252.432.096.822.234 1.17.414.36.18.648.432.864.756.228.324.342.756.342 1.296 0 .576-.168 1.074-.504 1.494-.336.42-.81.75-1.422.99-.612.228-1.344.342-2.196.342z" fill="#37376D"/><path fill-rule="evenodd" clip-rule="evenodd" d="M357 103H36v-1h321v1zm0 91H36v-1h321v1z" fill="#000"/><path d="M45.18 258.874c0 .624-.169 1.188-.505 1.692-.323.492-.75.828-1.277 1.008a3.401 3.401 0 011.601 1.062c.456.504.684 1.182.684 2.034 0 1.14-.425 2.016-1.277 2.628-.84.612-1.908.918-3.204.918-1.645 0-3.066-.27-4.267-.81v-1.494c1.164.6 2.544.894 4.14.882 2.1 0 3.15-.732 3.15-2.196 0-1.464-.995-2.196-2.988-2.196h-1.872v-1.44l1.71.018c.864 0 1.518-.18 1.962-.54.456-.372.684-.852.684-1.44 0-.636-.252-1.134-.755-1.494-.505-.372-1.218-.558-2.142-.558-1.273 0-2.496.312-3.672.936v-1.476c1.127-.576 2.417-.864 3.87-.864 1.248 0 2.25.306 3.006.918.767.612 1.151 1.416 1.151 2.412zm3.67 7.596c-.912-1.164-1.368-2.694-1.368-4.59s.456-3.426 1.368-4.59c.912-1.164 2.256-1.746 4.032-1.746 1.788 0 3.138.582 4.05 1.746.912 1.152 1.368 2.682 1.368 4.59s-.456 3.444-1.368 4.608c-.912 1.152-2.262 1.728-4.05 1.728-1.776 0-3.12-.582-4.032-1.746zm6.948-.954c.648-.852.972-2.064.972-3.636s-.324-2.778-.972-3.618c-.636-.852-1.608-1.278-2.916-1.278-1.308 0-2.28.426-2.916 1.278-.636.84-.954 2.046-.954 3.618s.318 2.784.954 3.636c.636.84 1.608 1.26 2.916 1.26 1.308 0 2.28-.42 2.916-1.26z" fill="#37376D"/><path fill-rule="evenodd" clip-rule="evenodd" d="M357 285H36v-1h321v1z" fill="#000"/><path d="M353.165 269.75L349 266h8.33l-4.165 3.75zm0-14.75l4.165 3.75H349l4.165-3.75z" fill="#000C2C"/><path d="M35 168.5c0-8.008 6.492-14.5 14.5-14.5h45c8.008 0 14.5 6.492 14.5 14.5S102.508 183 94.5 183h-45c-8.008 0-14.5-6.492-14.5-14.5z" fill="#DDDDE6"/><rect x="35" y="154" width="74" height="29" rx="14.5" fill="#DDDDE6"/><path d="M47.988 174.5v-11.88l.774.846h-3.618V161.9h4.626v12.6h-1.782zm9.686.144c-.984 0-1.866-.252-2.646-.756-.768-.504-1.38-1.236-1.836-2.196-.444-.96-.666-2.124-.666-3.492 0-1.368.222-2.532.666-3.492.456-.96 1.068-1.692 1.836-2.196.78-.504 1.662-.756 2.646-.756.972 0 1.848.252 2.628.756s1.392 1.236 1.836 2.196c.444.96.666 2.124.666 3.492 0 1.368-.222 2.532-.666 3.492-.444.96-1.056 1.692-1.836 2.196-.78.504-1.656.756-2.628.756zm0-1.602c.66 0 1.236-.18 1.728-.54.504-.36.894-.9 1.17-1.62.288-.72.432-1.614.432-2.682 0-1.068-.144-1.962-.432-2.682-.276-.72-.666-1.26-1.17-1.62-.492-.36-1.068-.54-1.728-.54-.66 0-1.242.18-1.746.54-.504.36-.9.9-1.188 1.62-.276.72-.414 1.614-.414 2.682 0 1.068.138 1.962.414 2.682.288.72.684 1.26 1.188 1.62.504.36 1.086.54 1.746.54z" fill="#37376D"/><path d="M99 168.5c0 5.799-4.701 10.5-10.5 10.5S78 174.299 78 168.5 82.701 158 88.5 158 99 162.701 99 168.5z" fill="#AFAFBD"/><path fill-rule="evenodd" clip-rule="evenodd" d="M88.5 167.793l-2.828-2.829-.707.707 2.828 2.829-2.828 2.829.707.707 2.829-2.829 2.828 2.828.707-.707-2.828-2.828 2.828-2.828-.707-.707-2.828 2.828z" fill="#37376D"/><rect x="35" y="64" width="74" height="29" rx="14.5" fill="#DDDDE6"/><path d="M46.89 84.5V71.9h1.476l5.652 9.522h-.792l5.58-9.522h1.476l.018 12.6h-1.728l-.018-9.882h.414L54 82.97h-.828l-5.004-8.352h.45V84.5H46.89zm21.025.108c-.96 0-1.812-.21-2.556-.63a4.69 4.69 0 01-1.764-1.728c-.432-.744-.648-1.584-.648-2.52 0-.948.216-1.788.648-2.52a4.557 4.557 0 011.764-1.71c.744-.42 1.596-.63 2.556-.63.948 0 1.794.21 2.538.63a4.4 4.4 0 011.764 1.71c.432.72.648 1.56.648 2.52 0 .948-.216 1.788-.648 2.52a4.524 4.524 0 01-1.764 1.728c-.744.42-1.59.63-2.538.63zm0-1.512c.612 0 1.158-.138 1.638-.414a2.922 2.922 0 001.152-1.17c.276-.516.414-1.11.414-1.782 0-.684-.138-1.272-.414-1.764a2.922 2.922 0 00-1.152-1.17c-.48-.276-1.026-.414-1.638-.414-.612 0-1.158.138-1.638.414-.48.276-.864.666-1.152 1.17-.288.492-.432 1.08-.432 1.764 0 .672.144 1.266.432 1.782.288.504.672.894 1.152 1.17.48.276 1.026.414 1.638.414z" fill="#37376D"/><path d="M99 78.5C99 84.299 94.299 89 88.5 89S78 84.299 78 78.5 82.701 68 88.5 68 99 72.701 99 78.5z" fill="#AFAFBD"/><path fill-rule="evenodd" clip-rule="evenodd" d="M88.5 77.793l-2.828-2.829-.707.707 2.828 2.829-2.828 2.829.707.707 2.829-2.829 2.828 2.828.707-.707-2.828-2.828 2.828-2.828-.707-.707-2.828 2.828z" fill="#37376D"/><rect x="119" y="64" width="74" height="29" rx="14.5" fill="#DDDDE6"/><path d="M133.392 84.5V73.466h-4.32V71.9h10.422v1.566h-4.32V84.5h-1.782zm11.596.108c-.816 0-1.536-.15-2.16-.45a3.3 3.3 0 01-1.44-1.368c-.336-.624-.504-1.404-.504-2.34v-5.49h1.728v5.292c0 .936.222 1.638.666 2.106.456.468 1.092.702 1.908.702.6 0 1.122-.12 1.566-.36a2.549 2.549 0 001.026-1.08c.24-.48.36-1.056.36-1.728V74.96h1.728v9.54h-1.638v-2.574l.27.684a3.338 3.338 0 01-1.404 1.476c-.624.348-1.326.522-2.106.522z" fill="#37376D"/><path d="M183 78.5c0 5.799-4.701 10.5-10.5 10.5S162 84.299 162 78.5 166.701 68 172.5 68 183 72.701 183 78.5z" fill="#AFAFBD"/><path fill-rule="evenodd" clip-rule="evenodd" d="M172.5 77.793l-2.828-2.829-.707.707 2.828 2.829-2.828 2.829.707.707 2.828-2.829 2.829 2.828.707-.707-2.828-2.828 2.828-2.828-.707-.707-2.829 2.828z" fill="#37376D"/><rect x="203" y="64" width="74" height="29" rx="14.5" fill="#DDDDE6"/><path d="M217.788 84.5l-4.212-12.6h1.854l3.87 11.628h-.936l4.014-11.628h1.656l3.924 11.628h-.9l3.924-11.628h1.71l-4.212 12.6h-1.89l-3.672-10.782h.486l-3.69 10.782h-1.926zm20.381.108c-1.02 0-1.92-.21-2.7-.63a4.62 4.62 0 01-1.8-1.728c-.42-.732-.63-1.572-.63-2.52s.204-1.788.612-2.52a4.5 4.5 0 011.71-1.71c.732-.42 1.554-.63 2.466-.63.924 0 1.74.204 2.448.612.708.408 1.26.984 1.656 1.728.408.732.612 1.59.612 2.574 0 .072-.006.156-.018.252 0 .096-.006.186-.018.27h-8.118v-1.242h7.218l-.702.432c.012-.612-.114-1.158-.378-1.638a2.807 2.807 0 00-1.098-1.116c-.456-.276-.99-.414-1.602-.414-.6 0-1.134.138-1.602.414a2.779 2.779 0 00-1.098 1.134c-.264.48-.396 1.032-.396 1.656v.288c0 .636.144 1.206.432 1.71.3.492.714.876 1.242 1.152.528.276 1.134.414 1.818.414.564 0 1.074-.096 1.53-.288.468-.192.876-.48 1.224-.864l.954 1.116a4.166 4.166 0 01-1.62 1.152c-.636.264-1.35.396-2.142.396z" fill="#37376D"/><path d="M267 78.5c0 5.799-4.701 10.5-10.5 10.5S246 84.299 246 78.5 250.701 68 256.5 68 267 72.701 267 78.5z" fill="#AFAFBD"/><path fill-rule="evenodd" clip-rule="evenodd" d="M256.5 77.793l-2.828-2.829-.707.707 2.828 2.829-2.828 2.829.707.707 2.828-2.829 2.829 2.828.707-.707-2.828-2.828 2.828-2.828-.707-.707-2.829 2.828z" fill="#37376D"/><rect x="287" y="64" width="74" height="29" rx="14.5" fill="#DDDDE6"/><path d="M301.392 84.5V73.466h-4.32V71.9h10.422v1.566h-4.32V84.5h-1.782zm12.904-9.63c.78 0 1.464.15 2.052.45.6.3 1.068.756 1.404 1.368.336.612.504 1.386.504 2.322v5.49h-1.728v-5.292c0-.924-.228-1.62-.684-2.088-.444-.468-1.074-.702-1.89-.702-.612 0-1.146.12-1.602.36-.456.24-.81.594-1.062 1.062-.24.468-.36 1.05-.36 1.746V84.5h-1.728V71.144h1.728v6.39l-.342-.684a3.313 3.313 0 011.44-1.458c.648-.348 1.404-.522 2.268-.522z" fill="#37376D"/><path d="M351 78.5c0 5.799-4.701 10.5-10.5 10.5S330 84.299 330 78.5 334.701 68 340.5 68 351 72.701 351 78.5z" fill="#AFAFBD"/><path fill-rule="evenodd" clip-rule="evenodd" d="M340.5 77.793l-2.828-2.829-.707.707 2.828 2.829-2.828 2.829.707.707 2.828-2.829 2.829 2.828.707-.707-2.828-2.828 2.828-2.828-.707-.707-2.829 2.828z" fill="#37376D"/><path d="M119 168.5c0-8.008 6.492-14.5 14.5-14.5h45c8.008 0 14.5 6.492 14.5 14.5s-6.492 14.5-14.5 14.5h-45c-8.008 0-14.5-6.492-14.5-14.5z" fill="#DDDDE6"/><path d="M135.923 161.76h1.116v10.8h2.286V174h-6.372v-1.44h2.574v-9.198l-2.574.972v-1.44l2.97-1.134zm5.034.972c1.14-.792 2.449-1.188 3.925-1.188 1.272 0 2.286.288 3.042.864.755.576 1.133 1.38 1.133 2.412 0 .492-.095.954-.287 1.386-.18.432-.457.828-.829 1.188-.359.36-.714.666-1.062.918-.336.24-.762.51-1.278.81-.059.036-.245.144-.558.324-.3.18-.492.294-.576.342-.072.048-.24.156-.503.324-.252.156-.421.27-.505.342a5.876 5.876 0 01-.396.342 2.18 2.18 0 00-.378.396c-.06.108-.144.246-.252.414a1.566 1.566 0 00-.198.468 2.238 2.238 0 00-.054.504l6.966-.018V174h-8.622v-.72c0-.672.109-1.278.325-1.818.216-.552.522-1.02.917-1.404.408-.396.81-.726 1.206-.99.396-.276.859-.57 1.386-.882.12-.06.21-.108.27-.144 1.092-.636 1.806-1.122 2.142-1.458.516-.528.774-1.122.774-1.782 0-.6-.246-1.056-.738-1.368-.479-.324-1.164-.486-2.052-.486-1.296 0-2.562.432-3.798 1.296v-1.512z" fill="#37376D"/><path d="M188 168.5c0 5.799-4.701 10.5-10.5 10.5s-10.5-4.701-10.5-10.5 4.701-10.5 10.5-10.5 10.5 4.701 10.5 10.5z" fill="#AFAFBD"/><path fill-rule="evenodd" clip-rule="evenodd" d="M177.5 167.793l-2.828-2.829-.707.707 2.828 2.829-2.828 2.829.707.707 2.828-2.829 2.829 2.828.707-.707-2.828-2.828 2.828-2.828-.707-.707-2.829 2.828z" fill="#37376D"/><path d="M203 168.5c0-8.008 6.492-14.5 14.5-14.5h45c8.008 0 14.5 6.492 14.5 14.5s-6.492 14.5-14.5 14.5h-45c-8.008 0-14.5-6.492-14.5-14.5z" fill="#DDDDE6"/><path d="M219.923 161.76h1.116v10.8h2.286V174h-6.372v-1.44h2.574v-9.198l-2.574.972v-1.44l2.97-1.134zm10.938 0h1.639v8.118h2.303v1.404H232.5V174h-1.495v-2.718h-6.822v-1.35l6.678-8.172zm.144 8.118v-6.084l-4.968 6.084h4.968z" fill="#37376D"/><path d="M272 168.5c0 5.799-4.701 10.5-10.5 10.5s-10.5-4.701-10.5-10.5 4.701-10.5 10.5-10.5 10.5 4.701 10.5 10.5z" fill="#AFAFBD"/><path fill-rule="evenodd" clip-rule="evenodd" d="M261.5 167.793l-2.828-2.829-.707.707 2.828 2.829-2.828 2.829.707.707 2.828-2.829 2.829 2.828.707-.707-2.828-2.828 2.828-2.828-.707-.707-2.829 2.828z" fill="#37376D"/><path d="M287 168.5c0-8.008 6.492-14.5 14.5-14.5h45c8.008 0 14.5 6.492 14.5 14.5s-6.492 14.5-14.5 14.5h-45c-8.008 0-14.5-6.492-14.5-14.5z" fill="#DDDDE6"/><path d="M303.923 161.76h1.116v10.8h2.286V174h-6.372v-1.44h2.574v-9.198l-2.574.972v-1.44l2.97-1.134zm6.277 5.778a6.74 6.74 0 013.833-1.17c1.116 0 2.095.342 2.935 1.026.84.672 1.259 1.608 1.259 2.808 0 1.26-.419 2.244-1.259 2.952-.828.708-1.873 1.062-3.133 1.062-1.727 0-3.024-.534-3.888-1.602-.852-1.08-1.278-2.592-1.278-4.536 0-2.16.51-3.786 1.531-4.878 1.031-1.104 2.375-1.656 4.031-1.656 1.068 0 2.059.234 2.97.702v1.44c-.888-.468-1.866-.702-2.934-.702-1.128 0-2.069.366-2.826 1.098-.744.72-1.158 1.872-1.241 3.456zm.017 1.512c.228 2.508 1.398 3.762 3.51 3.762.888 0 1.603-.204 2.143-.612.552-.408.828-1.05.828-1.926 0-.888-.282-1.524-.846-1.908-.564-.396-1.296-.594-2.196-.594-1.333 0-2.479.426-3.439 1.278z" fill="#37376D"/><path d="M356 168.5c0 5.799-4.701 10.5-10.5 10.5s-10.5-4.701-10.5-10.5 4.701-10.5 10.5-10.5 10.5 4.701 10.5 10.5z" fill="#AFAFBD"/><path fill-rule="evenodd" clip-rule="evenodd" d="M345.5 167.793l-2.828-2.829-.707.707 2.828 2.829-2.828 2.829.707.707 2.828-2.829 2.829 2.828.707-.707-2.828-2.828 2.828-2.828-.707-.707-2.829 2.828z" fill="#37376D"/><rect x="423" y="57" width="134" height="32" rx="5" fill="#E8F7FF"/><path d="M435.68 79V67.8h1.312l5.024 8.464h-.704l4.96-8.464h1.312L447.6 79h-1.536l-.016-8.784h.368L442 77.64h-.736l-4.448-7.424h.4V79h-1.536zm20.321 0v-1.792l-.08-.336v-3.056c0-.65-.192-1.152-.576-1.504-.373-.363-.938-.544-1.696-.544-.501 0-.992.085-1.472.256a3.69 3.69 0 00-1.216.656l-.64-1.152c.438-.352.96-.619 1.568-.8a6.496 6.496 0 011.936-.288c1.163 0 2.059.283 2.688.848.63.565.944 1.43.944 2.592V79h-1.456zm-2.784.096c-.629 0-1.184-.107-1.664-.32-.469-.213-.832-.507-1.088-.88a2.284 2.284 0 01-.384-1.296c0-.459.107-.875.32-1.248.224-.373.582-.672 1.072-.896.502-.224 1.174-.336 2.016-.336h2.688v1.104h-2.624c-.768 0-1.285.128-1.552.384-.266.256-.4.565-.4.928 0 .416.166.752.496 1.008.331.245.79.368 1.376.368.576 0 1.078-.128 1.504-.384a2.17 2.17 0 00.944-1.12l.304 1.056c-.202.501-.56.901-1.072 1.2-.512.288-1.157.432-1.936.432zm11.611-8.656c.693 0 1.301.133 1.824.4.533.267.949.672 1.248 1.216.298.544.448 1.232.448 2.064V79h-1.536v-4.704c0-.821-.203-1.44-.608-1.856-.395-.416-.955-.624-1.68-.624-.544 0-1.019.107-1.424.32-.406.213-.72.528-.944.944-.214.416-.32.933-.32 1.552V79H460.3v-8.48h1.472v2.288l-.24-.608a2.943 2.943 0 011.28-1.296c.576-.31 1.248-.464 2.016-.464zm9.93 8.656c-.725 0-1.365-.133-1.92-.4a2.936 2.936 0 01-1.28-1.216c-.298-.555-.448-1.248-.448-2.08v-4.88h1.536v4.704c0 .832.198 1.456.592 1.872.406.416.971.624 1.696.624.534 0 .998-.107 1.392-.32.395-.224.699-.544.912-.96.214-.427.32-.939.32-1.536V70.52h1.536V79h-1.456v-2.288l.24.608a2.963 2.963 0 01-1.248 1.312c-.554.31-1.178.464-1.872.464zm7.485-.096v-9.232c0-.832.24-1.493.72-1.984.49-.501 1.184-.752 2.08-.752.33 0 .645.043.944.128.309.075.57.197.784.368l-.464 1.168a1.671 1.671 0 00-.544-.288 1.837 1.837 0 00-.64-.112c-.448 0-.79.128-1.024.384-.235.245-.352.613-.352 1.104v1.136l.032.704V79h-1.536zm-1.44-7.216V70.52h5.408v1.264h-5.408zM492.767 79v-1.792l-.08-.336v-3.056c0-.65-.192-1.152-.576-1.504-.373-.363-.939-.544-1.696-.544-.501 0-.992.085-1.472.256a3.69 3.69 0 00-1.216.656l-.64-1.152c.437-.352.96-.619 1.568-.8a6.496 6.496 0 011.936-.288c1.163 0 2.059.283 2.688.848s.944 1.43.944 2.592V79h-1.456zm-2.784.096c-.629 0-1.184-.107-1.664-.32-.469-.213-.832-.507-1.088-.88a2.284 2.284 0 01-.384-1.296c0-.459.107-.875.32-1.248.224-.373.581-.672 1.072-.896.501-.224 1.173-.336 2.016-.336h2.688v1.104h-2.624c-.768 0-1.285.128-1.552.384-.267.256-.4.565-.4.928 0 .416.165.752.496 1.008.331.245.789.368 1.376.368.576 0 1.077-.128 1.504-.384.437-.256.752-.63.944-1.12l.304 1.056c-.203.501-.56.901-1.072 1.2-.512.288-1.157.432-1.936.432zm10.778 0c-.864 0-1.637-.187-2.32-.56A4.136 4.136 0 01496.857 77c-.384-.65-.576-1.397-.576-2.24 0-.843.192-1.59.576-2.24a4.021 4.021 0 011.584-1.52c.683-.373 1.456-.56 2.32-.56.768 0 1.451.155 2.048.464a3.172 3.172 0 011.408 1.344l-1.168.752a2.522 2.522 0 00-1.024-.912 2.758 2.758 0 00-1.28-.304c-.554 0-1.05.123-1.488.368a2.708 2.708 0 00-1.04 1.04c-.256.437-.384.96-.384 1.568 0 .608.128 1.136.384 1.584.256.448.603.795 1.04 1.04.438.245.934.368 1.488.368.459 0 .886-.096 1.28-.288a2.646 2.646 0 001.024-.928l1.168.736a3.39 3.39 0 01-1.408 1.36c-.597.31-1.28.464-2.048.464zm8.466 0c-.853 0-1.514-.23-1.984-.688-.469-.459-.704-1.115-.704-1.968v-7.776h1.536v7.712c0 .459.112.81.336 1.056.235.245.566.368.992.368.48 0 .88-.133 1.2-.4l.48 1.104a2.22 2.22 0 01-.848.448 3.49 3.49 0 01-1.008.144zm-4.128-7.312V70.52h5.408v1.264h-5.408zm11.409 7.312c-.725 0-1.365-.133-1.92-.4a2.936 2.936 0 01-1.28-1.216c-.298-.555-.448-1.248-.448-2.08v-4.88h1.536v4.704c0 .832.198 1.456.592 1.872.406.416.971.624 1.696.624.534 0 .998-.107 1.392-.32.395-.224.699-.544.912-.96.214-.427.32-.939.32-1.536V70.52h1.536V79h-1.456v-2.288l.24.608a2.963 2.963 0 01-1.248 1.312c-.554.31-1.178.464-1.872.464zm7.261-.096v-8.48h1.472v2.304l-.144-.576a2.6 2.6 0 011.184-1.344c.554-.31 1.237-.464 2.048-.464v1.488a1.162 1.162 0 00-.192-.016h-.16c-.822 0-1.472.245-1.952.736-.48.49-.72 1.2-.72 2.128V79h-1.536zm10.151.096c-.907 0-1.707-.187-2.4-.56a4.103 4.103 0 01-1.6-1.536c-.374-.65-.56-1.397-.56-2.24 0-.843.181-1.59.544-2.24.373-.65.88-1.157 1.52-1.52.65-.373 1.381-.56 2.192-.56.821 0 1.546.181 2.176.544a3.79 3.79 0 011.472 1.536c.362.65.544 1.413.544 2.288 0 .064-.006.139-.016.224 0 .085-.006.165-.016.24h-7.216v-1.104h6.416l-.624.384c.01-.544-.102-1.03-.336-1.456a2.498 2.498 0 00-.976-.992c-.406-.245-.88-.368-1.424-.368-.534 0-1.008.123-1.424.368-.416.235-.742.57-.976 1.008-.235.427-.352.917-.352 1.472v.256c0 .565.128 1.072.384 1.52.266.437.634.779 1.104 1.024.469.245 1.008.368 1.616.368a3.47 3.47 0 001.36-.256c.416-.17.778-.427 1.088-.768l.848.992c-.384.448-.864.79-1.44 1.024-.566.235-1.2.352-1.904.352zm6.02-.096v-8.48h1.472v2.304l-.144-.576a2.609 2.609 0 011.184-1.344c.555-.31 1.238-.464 2.048-.464v1.488a1.162 1.162 0 00-.192-.016h-.16c-.821 0-1.472.245-1.952.736-.48.49-.72 1.2-.72 2.128V79h-1.536z" fill="#37376D"/><rect x="423" y="97" width="74" height="32" rx="5" fill="#ECFFDE"/><path d="M438.944 119.128a7.79 7.79 0 01-2.448-.384c-.779-.267-1.392-.608-1.84-1.024l.592-1.248c.427.373.971.683 1.632.928a5.892 5.892 0 002.064.368c.651 0 1.179-.075 1.584-.224.405-.149.704-.352.896-.608.192-.267.288-.565.288-.896 0-.384-.128-.693-.384-.928-.245-.235-.571-.421-.976-.56a9.703 9.703 0 00-1.312-.384 26.54 26.54 0 01-1.456-.368 7.063 7.063 0 01-1.328-.56 2.76 2.76 0 01-.96-.896c-.245-.384-.368-.875-.368-1.472 0-.576.149-1.104.448-1.584.309-.491.779-.88 1.408-1.168.64-.299 1.451-.448 2.432-.448.651 0 1.296.085 1.936.256.64.171 1.195.416 1.664.736l-.528 1.28a5.003 5.003 0 00-1.52-.688 5.759 5.759 0 00-1.552-.224c-.629 0-1.147.08-1.552.24-.405.16-.704.373-.896.64a1.56 1.56 0 00-.272.896c0 .395.123.709.368.944.256.235.581.421.976.56.405.139.848.267 1.328.384.48.107.96.229 1.44.368.491.139.933.32 1.328.544.405.224.731.523.976.896s.368.853.368 1.44c0 .565-.155 1.093-.464 1.584-.309.48-.789.869-1.44 1.168-.64.288-1.451.432-2.432.432zm9.362-.032c-.854 0-1.515-.229-1.984-.688-.47-.459-.704-1.115-.704-1.968v-7.776h1.536v7.712c0 .459.112.811.336 1.056.234.245.565.368.992.368.48 0 .88-.133 1.2-.4l.48 1.104a2.23 2.23 0 01-.848.448 3.49 3.49 0 01-1.008.144zm-4.128-7.312v-1.264h5.408v1.264h-5.408zM457.283 119v-1.792l-.08-.336v-3.056c0-.651-.192-1.152-.576-1.504-.374-.363-.939-.544-1.696-.544-.502 0-.992.085-1.472.256a3.68 3.68 0 00-1.216.656l-.64-1.152c.437-.352.96-.619 1.568-.8a6.49 6.49 0 011.936-.288c1.162 0 2.058.283 2.688.848.629.565.944 1.429.944 2.592V119h-1.456zm-2.784.096c-.63 0-1.184-.107-1.664-.32-.47-.213-.832-.507-1.088-.88a2.284 2.284 0 01-.384-1.296c0-.459.106-.875.32-1.248.224-.373.581-.672 1.072-.896.501-.224 1.173-.336 2.016-.336h2.688v1.104h-2.624c-.768 0-1.286.128-1.552.384-.267.256-.4.565-.4.928 0 .416.165.752.496 1.008.33.245.789.368 1.376.368.576 0 1.077-.128 1.504-.384.437-.256.752-.629.944-1.12l.304 1.056c-.203.501-.56.901-1.072 1.2-.512.288-1.158.432-1.936.432zm9.994 0c-.853 0-1.515-.229-1.984-.688-.469-.459-.704-1.115-.704-1.968v-7.776h1.536v7.712c0 .459.112.811.336 1.056.235.245.565.368.992.368.48 0 .88-.133 1.2-.4l.48 1.104a2.223 2.223 0 01-.848.448 3.49 3.49 0 01-1.008.144zm-4.128-7.312v-1.264h5.408v1.264h-5.408zm11.409 7.312c-.725 0-1.365-.133-1.92-.4a2.933 2.933 0 01-1.28-1.216c-.299-.555-.448-1.248-.448-2.08v-4.88h1.536v4.704c0 .832.197 1.456.592 1.872.405.416.971.624 1.696.624.533 0 .997-.107 1.392-.32.395-.224.699-.544.912-.96.213-.427.32-.939.32-1.536v-4.384h1.536V119h-1.456v-2.288l.24.608a2.963 2.963 0 01-1.248 1.312 3.783 3.783 0 01-1.872.464zm9.692 0a6.979 6.979 0 01-2.016-.288c-.629-.192-1.125-.427-1.488-.704l.64-1.216c.363.245.811.453 1.344.624a5.31 5.31 0 001.632.256c.715 0 1.227-.101 1.536-.304.32-.203.48-.485.48-.848 0-.267-.096-.475-.288-.624-.192-.149-.448-.261-.768-.336a10.557 10.557 0 00-1.04-.192 22.275 22.275 0 01-1.152-.224 5.143 5.143 0 01-1.056-.384c-.32-.171-.576-.4-.768-.688-.192-.299-.288-.693-.288-1.184 0-.512.144-.96.432-1.344.288-.384.693-.677 1.216-.88.533-.213 1.163-.32 1.888-.32.555 0 1.115.069 1.68.208.576.128 1.045.315 1.408.56l-.656 1.216a3.624 3.624 0 00-1.2-.528 5.534 5.534 0 00-1.248-.144c-.672 0-1.173.112-1.504.336-.331.213-.496.491-.496.832 0 .288.096.512.288.672.203.149.459.267.768.352.32.085.672.16 1.056.224.384.053.768.128 1.152.224.384.085.731.208 1.04.368.32.16.576.384.768.672.203.288.304.672.304 1.152 0 .512-.149.955-.448 1.328-.299.373-.72.667-1.264.88-.544.203-1.195.304-1.952.304z" fill="#37376D"/><rect x="423" y="177" width="122" height="32" rx="5" fill="#E8F7FF"/><path d="M440.688 199.128a6.584 6.584 0 01-2.368-.416 5.8 5.8 0 01-1.872-1.2 5.804 5.804 0 01-1.232-1.824c-.299-.693-.448-1.456-.448-2.288 0-.832.149-1.595.448-2.288a5.501 5.501 0 011.248-1.808 5.455 5.455 0 011.872-1.2 6.36 6.36 0 012.368-.432c.864 0 1.659.149 2.384.448.736.288 1.36.72 1.872 1.296l-1.04 1.008a4.064 4.064 0 00-1.44-.992 4.375 4.375 0 00-1.712-.336c-.629 0-1.216.107-1.76.32a4.222 4.222 0 00-1.392.896 4.12 4.12 0 00-.928 1.376 4.494 4.494 0 00-.32 1.712c0 .619.107 1.195.32 1.728a4.156 4.156 0 002.32 2.256c.544.213 1.131.32 1.76.32.608 0 1.179-.107 1.712-.32a4.16 4.16 0 001.44-1.024l1.04 1.008a4.968 4.968 0 01-1.872 1.312c-.725.299-1.525.448-2.4.448zm9.603-.032c-.853 0-1.611-.187-2.272-.56a4.166 4.166 0 01-1.568-1.536c-.384-.661-.576-1.408-.576-2.24 0-.843.192-1.589.576-2.24a4.053 4.053 0 011.568-1.52c.661-.373 1.419-.56 2.272-.56.843 0 1.595.187 2.256.56a3.91 3.91 0 011.568 1.52c.384.64.576 1.387.576 2.24 0 .843-.192 1.589-.576 2.24a4.014 4.014 0 01-1.568 1.536c-.661.373-1.413.56-2.256.56zm0-1.344c.544 0 1.029-.123 1.456-.368a2.595 2.595 0 001.024-1.04c.245-.459.368-.987.368-1.584 0-.608-.123-1.131-.368-1.568a2.595 2.595 0 00-1.024-1.04 2.872 2.872 0 00-1.456-.368c-.544 0-1.029.123-1.456.368a2.736 2.736 0 00-1.024 1.04c-.256.437-.384.96-.384 1.568 0 .597.128 1.125.384 1.584.256.448.597.795 1.024 1.04.427.245.912.368 1.456.368zm11.71 1.248v-1.792l-.08-.336v-3.056c0-.651-.192-1.152-.576-1.504-.373-.363-.938-.544-1.696-.544-.501 0-.992.085-1.472.256a3.69 3.69 0 00-1.216.656l-.64-1.152c.438-.352.96-.619 1.568-.8a6.496 6.496 0 011.936-.288c1.163 0 2.059.283 2.688.848.63.565.944 1.429.944 2.592V199h-1.456zm-2.784.096c-.629 0-1.184-.107-1.664-.32-.469-.213-.832-.507-1.088-.88a2.284 2.284 0 01-.384-1.296c0-.459.107-.875.32-1.248.224-.373.582-.672 1.072-.896.502-.224 1.174-.336 2.016-.336h2.688v1.104h-2.624c-.768 0-1.285.128-1.552.384-.266.256-.4.565-.4.928 0 .416.166.752.496 1.008.331.245.79.368 1.376.368.576 0 1.078-.128 1.504-.384a2.17 2.17 0 00.944-1.12l.304 1.056c-.202.501-.56.901-1.072 1.2-.512.288-1.157.432-1.936.432zm9.515 0a6.979 6.979 0 01-2.016-.288c-.63-.192-1.126-.427-1.488-.704l.64-1.216c.362.245.81.453 1.344.624a5.31 5.31 0 001.632.256c.714 0 1.226-.101 1.536-.304.32-.203.48-.485.48-.848 0-.267-.096-.475-.288-.624-.192-.149-.448-.261-.768-.336-.31-.075-.656-.139-1.04-.192a22.275 22.275 0 01-1.152-.224 5.143 5.143 0 01-1.056-.384c-.32-.171-.576-.4-.768-.688-.192-.299-.288-.693-.288-1.184 0-.512.144-.96.432-1.344.288-.384.693-.677 1.216-.88.533-.213 1.162-.32 1.888-.32.554 0 1.114.069 1.68.208.576.128 1.045.315 1.408.56l-.656 1.216a3.624 3.624 0 00-1.2-.528 5.534 5.534 0 00-1.248-.144c-.672 0-1.174.112-1.504.336-.331.213-.496.491-.496.832 0 .288.096.512.288.672.202.149.458.267.768.352.32.085.672.16 1.056.224.384.053.768.128 1.152.224.384.085.73.208 1.04.368.32.16.576.384.768.672.202.288.304.672.304 1.152 0 .512-.15.955-.448 1.328-.299.373-.72.667-1.264.88-.544.203-1.195.304-1.952.304zm8.495 0c-.853 0-1.514-.229-1.984-.688-.469-.459-.704-1.115-.704-1.968v-7.776h1.536v7.712c0 .459.112.811.336 1.056.235.245.566.368.992.368.48 0 .88-.133 1.2-.4l.48 1.104a2.216 2.216 0 01-.848.448 3.49 3.49 0 01-1.008.144zm-4.128-7.312v-1.264h5.408v1.264h-5.408zm15.85 10.416a7.763 7.763 0 01-2.272-.336c-.725-.213-1.317-.523-1.776-.928l.736-1.184c.395.341.88.608 1.456.8a5.4 5.4 0 001.808.304c1.003 0 1.739-.235 2.208-.704.47-.469.704-1.184.704-2.144v-1.792l.16-1.68-.08-1.696v-2.32h1.456v7.328c0 1.493-.373 2.592-1.12 3.296-.746.704-1.84 1.056-3.28 1.056zm-.192-3.552c-.821 0-1.557-.171-2.208-.512a4.106 4.106 0 01-1.536-1.456c-.373-.619-.56-1.333-.56-2.144 0-.821.187-1.536.56-2.144a3.981 3.981 0 011.536-1.44c.651-.341 1.387-.512 2.208-.512.726 0 1.387.149 1.984.448a3.257 3.257 0 011.424 1.344c.363.608.544 1.376.544 2.304 0 .917-.181 1.68-.544 2.288a3.458 3.458 0 01-1.424 1.376 4.366 4.366 0 01-1.984.448zm.176-1.344c.566 0 1.067-.117 1.504-.352.438-.235.779-.56 1.024-.976.256-.416.384-.896.384-1.44 0-.544-.128-1.024-.384-1.44a2.465 2.465 0 00-1.024-.96c-.437-.235-.938-.352-1.504-.352-.565 0-1.072.117-1.52.352a2.58 2.58 0 00-1.04.96c-.245.416-.368.896-.368 1.44 0 .544.123 1.024.368 1.44.256.416.603.741 1.04.976.448.235.955.352 1.52.352zm7.351 1.696v-8.48h1.472v2.304l-.144-.576a2.602 2.602 0 011.184-1.344c.555-.309 1.237-.464 2.048-.464v1.488a1.13 1.13 0 00-.192-.016h-.16c-.821 0-1.472.245-1.952.736s-.72 1.2-.72 2.128V199h-1.536zm10.007.096c-.853 0-1.611-.187-2.272-.56a4.166 4.166 0 01-1.568-1.536c-.384-.661-.576-1.408-.576-2.24 0-.843.192-1.589.576-2.24a4.053 4.053 0 011.568-1.52c.661-.373 1.419-.56 2.272-.56.843 0 1.595.187 2.256.56a3.91 3.91 0 011.568 1.52c.384.64.576 1.387.576 2.24 0 .843-.192 1.589-.576 2.24a4.014 4.014 0 01-1.568 1.536c-.661.373-1.413.56-2.256.56zm0-1.344c.544 0 1.029-.123 1.456-.368a2.595 2.595 0 001.024-1.04c.245-.459.368-.987.368-1.584 0-.608-.123-1.131-.368-1.568a2.595 2.595 0 00-1.024-1.04 2.872 2.872 0 00-1.456-.368c-.544 0-1.029.123-1.456.368a2.736 2.736 0 00-1.024 1.04c-.256.437-.384.96-.384 1.568 0 .597.128 1.125.384 1.584.256.448.597.795 1.024 1.04.427.245.912.368 1.456.368zm10.092 1.344c-.725 0-1.365-.133-1.92-.4a2.938 2.938 0 01-1.28-1.216c-.298-.555-.448-1.248-.448-2.08v-4.88h1.536v4.704c0 .832.198 1.456.592 1.872.406.416.971.624 1.696.624.534 0 .998-.107 1.392-.32.395-.224.699-.544.912-.96.214-.427.32-.939.32-1.536v-4.384h1.536V199h-1.456v-2.288l.24.608a2.963 2.963 0 01-1.248 1.312c-.554.309-1.178.464-1.872.464zm11.757 0c-.704 0-1.35-.16-1.936-.48-.576-.331-1.04-.816-1.392-1.456-.342-.64-.513-1.44-.513-2.4s.166-1.76.497-2.4c.341-.64.8-1.12 1.376-1.44.586-.32 1.242-.48 1.968-.48.832 0 1.568.181 2.208.544.64.363 1.146.869 1.52 1.52.373.64.56 1.392.56 2.256 0 .864-.187 1.621-.56 2.272a4.005 4.005 0 01-1.52 1.52c-.64.363-1.376.544-2.208.544zm-4.496 3.008V190.52h1.472v2.288l-.096 1.968.16 1.968v5.36h-1.536zm4.368-4.352c.544 0 1.029-.123 1.456-.368a2.601 2.601 0 001.024-1.04c.256-.459.384-.987.384-1.584 0-.608-.128-1.131-.384-1.568a2.601 2.601 0 00-1.024-1.04 2.872 2.872 0 00-1.456-.368c-.534 0-1.019.123-1.456.368a2.736 2.736 0 00-1.024 1.04c-.246.437-.368.96-.368 1.568 0 .597.122 1.125.368 1.584.256.448.597.795 1.024 1.04.437.245.922.368 1.456.368z" fill="#37376D"/><rect x="423" y="217" width="131" height="32" rx="5" fill="#E8F7FF"/><path d="M440.688 239.128a6.584 6.584 0 01-2.368-.416 5.8 5.8 0 01-1.872-1.2 5.804 5.804 0 01-1.232-1.824c-.299-.693-.448-1.456-.448-2.288 0-.832.149-1.595.448-2.288a5.501 5.501 0 011.248-1.808 5.455 5.455 0 011.872-1.2 6.36 6.36 0 012.368-.432c.864 0 1.659.149 2.384.448.736.288 1.36.72 1.872 1.296l-1.04 1.008a4.064 4.064 0 00-1.44-.992 4.375 4.375 0 00-1.712-.336c-.629 0-1.216.107-1.76.32a4.222 4.222 0 00-1.392.896 4.12 4.12 0 00-.928 1.376 4.494 4.494 0 00-.32 1.712c0 .619.107 1.195.32 1.728a4.156 4.156 0 002.32 2.256c.544.213 1.131.32 1.76.32.608 0 1.179-.107 1.712-.32a4.16 4.16 0 001.44-1.024l1.04 1.008a4.968 4.968 0 01-1.872 1.312c-.725.299-1.525.448-2.4.448zm9.603-.032c-.853 0-1.611-.187-2.272-.56a4.166 4.166 0 01-1.568-1.536c-.384-.661-.576-1.408-.576-2.24 0-.843.192-1.589.576-2.24a4.053 4.053 0 011.568-1.52c.661-.373 1.419-.56 2.272-.56.843 0 1.595.187 2.256.56a3.91 3.91 0 011.568 1.52c.384.64.576 1.387.576 2.24 0 .843-.192 1.589-.576 2.24a4.014 4.014 0 01-1.568 1.536c-.661.373-1.413.56-2.256.56zm0-1.344c.544 0 1.029-.123 1.456-.368a2.595 2.595 0 001.024-1.04c.245-.459.368-.987.368-1.584 0-.608-.123-1.131-.368-1.568a2.595 2.595 0 00-1.024-1.04 2.872 2.872 0 00-1.456-.368c-.544 0-1.029.123-1.456.368a2.736 2.736 0 00-1.024 1.04c-.256.437-.384.96-.384 1.568 0 .597.128 1.125.384 1.584.256.448.597.795 1.024 1.04.427.245.912.368 1.456.368zm10.092 1.344c-.725 0-1.365-.133-1.92-.4a2.938 2.938 0 01-1.28-1.216c-.298-.555-.448-1.248-.448-2.08v-4.88h1.536v4.704c0 .832.198 1.456.592 1.872.406.416.971.624 1.696.624.534 0 .998-.107 1.392-.32.395-.224.699-.544.912-.96.214-.427.32-.939.32-1.536v-4.384h1.536V239h-1.456v-2.288l.24.608a2.963 2.963 0 01-1.248 1.312c-.554.309-1.178.464-1.872.464zm11.789-8.656c.693 0 1.301.133 1.824.4.533.267.949.672 1.248 1.216.298.544.448 1.232.448 2.064V239h-1.536v-4.704c0-.821-.203-1.44-.608-1.856-.395-.416-.955-.624-1.68-.624-.544 0-1.019.107-1.424.32-.406.213-.72.528-.944.944-.214.416-.32.933-.32 1.552V239h-1.536v-8.48h1.472v2.288l-.24-.608a2.94 2.94 0 011.28-1.296c.576-.309 1.248-.464 2.016-.464zm9.274 8.656c-.853 0-1.515-.229-1.984-.688-.469-.459-.704-1.115-.704-1.968v-7.776h1.536v7.712c0 .459.112.811.336 1.056.235.245.565.368.992.368.48 0 .88-.133 1.2-.4l.48 1.104a2.223 2.223 0 01-.848.448 3.49 3.49 0 01-1.008.144zm-4.128-7.312v-1.264h5.408v1.264h-5.408zm11.336 7.312c-.907 0-1.707-.187-2.4-.56a4.099 4.099 0 01-1.6-1.536c-.373-.651-.56-1.397-.56-2.24 0-.843.181-1.589.544-2.24a3.998 3.998 0 011.52-1.52c.651-.373 1.381-.56 2.192-.56.821 0 1.547.181 2.176.544a3.79 3.79 0 011.472 1.536c.363.651.544 1.413.544 2.288 0 .064-.005.139-.016.224 0 .085-.005.165-.016.24h-7.216v-1.104h6.416l-.624.384c.011-.544-.101-1.029-.336-1.456a2.498 2.498 0 00-.976-.992c-.405-.245-.88-.368-1.424-.368-.533 0-1.008.123-1.424.368a2.476 2.476 0 00-.976 1.008c-.235.427-.352.917-.352 1.472v.256c0 .565.128 1.072.384 1.52a2.77 2.77 0 001.104 1.024c.469.245 1.008.368 1.616.368.501 0 .955-.085 1.36-.256a2.985 2.985 0 001.088-.768l.848.992a3.706 3.706 0 01-1.44 1.024c-.565.235-1.2.352-1.904.352zm6.021-.096v-8.48h1.472v2.304l-.144-.576a2.598 2.598 0 011.184-1.344c.554-.309 1.237-.464 2.048-.464v1.488a1.13 1.13 0 00-.192-.016h-.16c-.822 0-1.472.245-1.952.736s-.72 1.2-.72 2.128V239h-1.536zm10.949.096c-.704 0-1.349-.16-1.936-.48-.576-.331-1.04-.816-1.392-1.456-.341-.64-.512-1.44-.512-2.4s.165-1.76.496-2.4c.341-.64.8-1.12 1.376-1.44a4.044 4.044 0 011.968-.48c.832 0 1.568.181 2.208.544.64.363 1.147.869 1.52 1.52.373.64.56 1.392.56 2.256 0 .864-.187 1.621-.56 2.272a3.998 3.998 0 01-1.52 1.52c-.64.363-1.376.544-2.208.544zm-4.496 3.008V230.52h1.472v2.288l-.096 1.968.16 1.968v5.36h-1.536zm4.368-4.352c.544 0 1.029-.123 1.456-.368a2.595 2.595 0 001.024-1.04c.256-.459.384-.987.384-1.584 0-.608-.128-1.131-.384-1.568a2.595 2.595 0 00-1.024-1.04 2.872 2.872 0 00-1.456-.368c-.533 0-1.019.123-1.456.368a2.736 2.736 0 00-1.024 1.04c-.245.437-.368.96-.368 1.568 0 .597.123 1.125.368 1.584.256.448.597.795 1.024 1.04.437.245.923.368 1.456.368zM517.22 239v-1.792l-.08-.336v-3.056c0-.651-.192-1.152-.576-1.504-.373-.363-.939-.544-1.696-.544-.501 0-.992.085-1.472.256a3.69 3.69 0 00-1.216.656l-.64-1.152c.437-.352.96-.619 1.568-.8a6.496 6.496 0 011.936-.288c1.163 0 2.059.283 2.688.848s.944 1.429.944 2.592V239h-1.456zm-2.784.096c-.629 0-1.184-.107-1.664-.32-.469-.213-.832-.507-1.088-.88a2.284 2.284 0 01-.384-1.296c0-.459.107-.875.32-1.248.224-.373.581-.672 1.072-.896.501-.224 1.173-.336 2.016-.336h2.688v1.104h-2.624c-.768 0-1.285.128-1.552.384-.267.256-.4.565-.4.928 0 .416.165.752.496 1.008.331.245.789.368 1.376.368.576 0 1.077-.128 1.504-.384.437-.256.752-.629.944-1.12l.304 1.056c-.203.501-.56.901-1.072 1.2-.512.288-1.157.432-1.936.432zm7.083-.096v-8.48h1.472v2.304l-.144-.576a2.598 2.598 0 011.184-1.344c.554-.309 1.237-.464 2.048-.464v1.488a1.13 1.13 0 00-.192-.016h-.16c-.822 0-1.472.245-1.952.736s-.72 1.2-.72 2.128V239h-1.536zm9.708.096c-.853 0-1.514-.229-1.984-.688-.469-.459-.704-1.115-.704-1.968v-7.776h1.536v7.712c0 .459.112.811.336 1.056.235.245.566.368.992.368.48 0 .88-.133 1.2-.4l.48 1.104a2.216 2.216 0 01-.848.448 3.49 3.49 0 01-1.008.144zm-4.128-7.312v-1.264h5.408v1.264h-5.408zm8.053 10.416c-.405 0-.8-.069-1.184-.208a2.698 2.698 0 01-.992-.576l.656-1.152c.213.203.448.357.704.464.256.107.528.16.816.16.373 0 .683-.096.928-.288.245-.192.475-.533.688-1.024l.528-1.168.16-.192 3.328-7.696h1.504l-4.112 9.328c-.245.597-.523 1.067-.832 1.408-.299.341-.629.581-.992.72a3.131 3.131 0 01-1.2.224zm2.016-2.928l-3.872-8.752h1.6l3.296 7.552-1.024 1.2z" fill="#37376D"/><rect x="423" y="137" width="42" height="32" rx="5" fill="#FFECD7"/><path d="M440.736 159.128a6.486 6.486 0 01-2.384-.432 5.766 5.766 0 01-1.888-1.2 5.686 5.686 0 01-1.248-1.824 5.676 5.676 0 01-.448-2.272c0-.821.149-1.579.448-2.272a5.501 5.501 0 011.248-1.808 5.63 5.63 0 011.888-1.216 6.403 6.403 0 012.384-.432c.853 0 1.637.144 2.352.432a5.428 5.428 0 011.888 1.2 5.19 5.19 0 011.248 1.808c.299.693.448 1.456.448 2.288 0 .832-.149 1.595-.448 2.288a5.356 5.356 0 01-1.248 1.824 5.766 5.766 0 01-1.888 1.2 6.458 6.458 0 01-2.352.416zm0-1.424c.619 0 1.189-.107 1.712-.32a4.043 4.043 0 001.376-.896c.395-.395.699-.853.912-1.376a4.3 4.3 0 00.336-1.712 4.3 4.3 0 00-.336-1.712 3.953 3.953 0 00-.912-1.36 3.925 3.925 0 00-1.376-.912 4.494 4.494 0 00-1.712-.32 4.66 4.66 0 00-1.744.32 4.126 4.126 0 00-1.376.912 4.156 4.156 0 00-.928 1.36 4.494 4.494 0 00-.32 1.712c0 .619.107 1.189.32 1.712.224.523.533.981.928 1.376.395.384.853.683 1.376.896a4.66 4.66 0 001.744.32zm8.158 1.296v-8.48h1.472v2.304l-.144-.576a2.598 2.598 0 011.184-1.344c.554-.309 1.237-.464 2.048-.464v1.488a1.13 1.13 0 00-.192-.016h-.16c-.822 0-1.472.245-1.952.736s-.72 1.2-.72 2.128V159h-1.536z" fill="#37376D"/><rect x="504" y="97" width="77" height="32" rx="5" fill="#ECFFDE"/><path d="M518.136 112.632h5.76v1.36h-5.76v-1.36zm.144 4.976h6.528V119h-8.128v-11.2h7.904v1.392h-6.304v8.416zm12.289 1.488c-.821 0-1.557-.181-2.208-.544a4.005 4.005 0 01-1.52-1.52c-.373-.651-.56-1.408-.56-2.272 0-.864.187-1.616.56-2.256a4.005 4.005 0 011.52-1.52c.651-.363 1.387-.544 2.208-.544.736 0 1.392.16 1.968.48.576.32 1.03.8 1.36 1.44.342.64.512 1.44.512 2.4s-.176 1.76-.528 2.4c-.341.64-.8 1.125-1.376 1.456-.576.32-1.221.48-1.936.48zm.128-1.344c.534 0 1.014-.123 1.44-.368a2.589 2.589 0 001.024-1.04c.256-.459.384-.987.384-1.584 0-.608-.128-1.131-.384-1.568a2.589 2.589 0 00-1.024-1.04 2.836 2.836 0 00-1.44-.368c-.544 0-1.029.123-1.456.368a2.743 2.743 0 00-1.024 1.04c-.256.437-.384.96-.384 1.568 0 .597.128 1.125.384 1.584.256.448.598.795 1.024 1.04.427.245.912.368 1.456.368zm2.832 4.352v-5.36l.16-1.968-.096-1.968v-2.288h1.472v11.584h-1.536zm8.011-3.008c-.726 0-1.366-.133-1.92-.4a2.933 2.933 0 01-1.28-1.216c-.299-.555-.448-1.248-.448-2.08v-4.88h1.536v4.704c0 .832.197 1.456.592 1.872.405.416.97.624 1.696.624.533 0 .997-.107 1.392-.32.394-.224.698-.544.912-.96.213-.427.32-.939.32-1.536v-4.384h1.536V119h-1.456v-2.288l.24.608a2.974 2.974 0 01-1.248 1.312 3.783 3.783 0 01-1.872.464zm12.524-.096v-1.792l-.08-.336v-3.056c0-.651-.192-1.152-.576-1.504-.374-.363-.939-.544-1.696-.544-.502 0-.992.085-1.472.256a3.68 3.68 0 00-1.216.656l-.64-1.152c.437-.352.96-.619 1.568-.8a6.49 6.49 0 011.936-.288c1.162 0 2.058.283 2.688.848.629.565.944 1.429.944 2.592V119h-1.456zm-2.784.096c-.63 0-1.184-.107-1.664-.32-.47-.213-.832-.507-1.088-.88a2.284 2.284 0 01-.384-1.296c0-.459.106-.875.32-1.248.224-.373.581-.672 1.072-.896.501-.224 1.173-.336 2.016-.336h2.688v1.104h-2.624c-.768 0-1.286.128-1.552.384-.267.256-.4.565-.4.928 0 .416.165.752.496 1.008.33.245.789.368 1.376.368.576 0 1.077-.128 1.504-.384.437-.256.752-.629.944-1.12l.304 1.056c-.203.501-.56.901-1.072 1.2-.512.288-1.158.432-1.936.432zm7.082-.096v-11.872h1.536V119h-1.536zm6.901.096a6.979 6.979 0 01-2.016-.288c-.629-.192-1.125-.427-1.488-.704l.64-1.216c.363.245.811.453 1.344.624a5.31 5.31 0 001.632.256c.715 0 1.227-.101 1.536-.304.32-.203.48-.485.48-.848 0-.267-.096-.475-.288-.624-.192-.149-.448-.261-.768-.336a10.557 10.557 0 00-1.04-.192 22.275 22.275 0 01-1.152-.224 5.143 5.143 0 01-1.056-.384c-.32-.171-.576-.4-.768-.688-.192-.299-.288-.693-.288-1.184 0-.512.144-.96.432-1.344.288-.384.693-.677 1.216-.88.533-.213 1.163-.32 1.888-.32.555 0 1.115.069 1.68.208.576.128 1.045.315 1.408.56l-.656 1.216a3.624 3.624 0 00-1.2-.528 5.534 5.534 0 00-1.248-.144c-.672 0-1.173.112-1.504.336-.331.213-.496.491-.496.832 0 .288.096.512.288.672.203.149.459.267.768.352.32.085.672.16 1.056.224.384.053.768.128 1.152.224.384.085.731.208 1.04.368.32.16.576.384.768.672.203.288.304.672.304 1.152 0 .512-.149.955-.448 1.328-.299.373-.72.667-1.264.88-.544.203-1.195.304-1.952.304z" fill="#37376D"/><path fill-rule="evenodd" clip-rule="evenodd" d="M407.272 73.565L402.707 69l-.707.707 4.565 4.565L402 78.836l.707.707 4.565-4.564 4.564 4.564.707-.707-4.564-4.564 4.564-4.565-.707-.707-4.564 4.565zm0 157L402.707 226l-.707.707 4.565 4.565-4.565 4.564.707.707 4.565-4.564 4.564 4.564.707-.707-4.564-4.564 4.564-4.565-.707-.707-4.564 4.565zm0-118L402.707 108l-.707.707 4.565 4.565-4.565 4.564.707.707 4.565-4.564 4.564 4.564.707-.707-4.564-4.564 4.564-4.565-.707-.707-4.564 4.565zm0 157L402.707 265l-.707.707 4.565 4.565-4.565 4.564.707.707 4.565-4.564 4.564 4.564.707-.707-4.564-4.564 4.564-4.565-.707-.707-4.564 4.565zm0-78L402.707 187l-.707.707 4.565 4.565-4.565 4.564.707.707 4.565-4.564 4.564 4.564.707-.707-4.564-4.564 4.564-4.565-.707-.707-4.564 4.565zm0-40L402.707 147l-.707.707 4.565 4.565-4.565 4.564.707.707 4.565-4.564 4.564 4.564.707-.707-4.564-4.564 4.564-4.565-.707-.707-4.564 4.565z" fill="#F28100"/></svg>