<svg width="619" height="323" fill="none" xmlns="http://www.w3.org/2000/svg"><path d="M0 15C0 6.716 6.716 0 15 0h589c8.284 0 15 6.716 15 15v293c0 8.284-6.716 15-15 15H15c-8.284 0-15-6.716-15-15V15z" fill="#fff"/><path d="M62 74h227" stroke="#000"/><path d="M63.89 58V45.4h1.476l5.652 9.522h-.792l5.58-9.522h1.476L77.3 58h-1.728l-.018-9.882h.414L71 56.47h-.828l-5.004-8.352h.45V58H63.89zm17.353 3.6c-.456 0-.9-.078-1.332-.234a3.038 3.038 0 01-1.116-.648l.738-1.296c.24.228.504.402.792.522.288.12.594.18.918.18.42 0 .768-.108 1.044-.324.276-.216.534-.6.774-1.152l.594-1.314.18-.216 3.744-8.658h1.692l-4.626 10.494c-.276.672-.588 1.2-.936 1.584-.336.384-.708.654-1.116.81a3.513 3.513 0 01-1.35.252zm2.268-3.294l-4.356-9.846h1.8l3.708 8.496-1.152 1.35zM95.718 58v-9.54h1.728V58h-1.728zm.864-11.376c-.336 0-.618-.108-.846-.324a1.077 1.077 0 01-.324-.792c0-.324.108-.594.324-.81.228-.216.51-.324.846-.324.336 0 .612.108.828.324a.994.994 0 01.342.774c0 .324-.108.6-.324.828-.216.216-.498.324-.846.324zm7.439 11.484c-.96 0-1.704-.258-2.232-.774-.528-.516-.792-1.254-.792-2.214v-8.748h1.728v8.676c0 .516.126.912.378 1.188.264.276.636.414 1.116.414.54 0 .99-.15 1.35-.45l.54 1.242a2.506 2.506 0 01-.954.504c-.36.108-.738.162-1.134.162zm-4.644-8.226V48.46h6.084v1.422h-6.084zm12.753 8.226c-1.02 0-1.92-.21-2.7-.63a4.62 4.62 0 01-1.8-1.728c-.42-.732-.63-1.572-.63-2.52s.204-1.788.612-2.52a4.5 4.5 0 011.71-1.71c.732-.42 1.554-.63 2.466-.63.924 0 1.74.204 2.448.612.708.408 1.26.984 1.656 1.728.408.732.612 1.59.612 2.574 0 .072-.006.156-.018.252 0 .096-.006.186-.018.27h-8.118v-1.242h7.218l-.702.432c.012-.612-.114-1.158-.378-1.638a2.807 2.807 0 00-1.098-1.116c-.456-.276-.99-.414-1.602-.414-.6 0-1.134.138-1.602.414a2.779 2.779 0 00-1.098 1.134c-.264.48-.396 1.032-.396 1.656v.288c0 .636.144 1.206.432 1.71.3.492.714.876 1.242 1.152.528.276 1.134.414 1.818.414.564 0 1.074-.096 1.53-.288.468-.192.876-.48 1.224-.864l.954 1.116a4.166 4.166 0 01-1.62 1.152c-.636.264-1.35.396-2.142.396zm18.708-9.738c.768 0 1.446.15 2.034.45.588.3 1.044.756 1.368 1.368.336.612.504 1.386.504 2.322V58h-1.728v-5.292c0-.924-.216-1.62-.648-2.088-.432-.468-1.038-.702-1.818-.702-.576 0-1.08.12-1.512.36-.432.24-.768.594-1.008 1.062-.228.468-.342 1.05-.342 1.746V58h-1.728v-5.292c0-.924-.216-1.62-.648-2.088-.42-.468-1.026-.702-1.818-.702-.564 0-1.062.12-1.494.36-.432.24-.768.594-1.008 1.062-.24.468-.36 1.05-.36 1.746V58h-1.728v-9.54h1.656v2.538l-.27-.648c.3-.624.762-1.11 1.386-1.458.624-.348 1.35-.522 2.178-.522.912 0 1.698.228 2.358.684.66.444 1.092 1.122 1.296 2.034l-.702-.288c.288-.732.792-1.32 1.512-1.764.72-.444 1.56-.666 2.52-.666z" fill="#37376D"/><path d="M285.165 55.75L281 52h8.33l-4.165 3.75z" fill="#000C2C"/><path d="M329 74h227" stroke="#000"/><path d="M336.524 58.144c-.96 0-1.848-.156-2.664-.468a6.533 6.533 0 01-2.106-1.35 6.521 6.521 0 01-1.386-2.052c-.336-.78-.504-1.638-.504-2.574 0-.936.168-1.794.504-2.574a6.174 6.174 0 011.404-2.034 6.155 6.155 0 012.106-1.35 7.155 7.155 0 012.664-.486c.972 0 1.866.168 2.682.504.828.324 1.53.81 2.106 1.458l-1.17 1.134a4.57 4.57 0 00-1.62-1.116 4.923 4.923 0 00-1.926-.378c-.708 0-1.368.12-1.98.36-.6.24-1.122.576-1.566 1.008a4.638 4.638 0 00-1.044 1.548c-.24.588-.36 1.23-.36 1.926s.12 1.344.36 1.944c.252.588.6 1.098 1.044 1.53.444.432.966.768 1.566 1.008.612.24 1.272.36 1.98.36.684 0 1.326-.12 1.926-.36.6-.252 1.14-.636 1.62-1.152l1.17 1.134a5.584 5.584 0 01-2.106 1.476c-.816.336-1.716.504-2.7.504zm10.804-.036c-.96 0-1.812-.21-2.556-.63a4.69 4.69 0 01-1.764-1.728c-.432-.744-.648-1.584-.648-2.52 0-.948.216-1.788.648-2.52a4.557 4.557 0 011.764-1.71c.744-.42 1.596-.63 2.556-.63.948 0 1.794.21 2.538.63a4.4 4.4 0 011.764 1.71c.432.72.648 1.56.648 2.52 0 .948-.216 1.788-.648 2.52a4.524 4.524 0 01-1.764 1.728c-.744.42-1.59.63-2.538.63zm0-1.512c.612 0 1.158-.138 1.638-.414a2.922 2.922 0 001.152-1.17c.276-.516.414-1.11.414-1.782 0-.684-.138-1.272-.414-1.764a2.922 2.922 0 00-1.152-1.17c-.48-.276-1.026-.414-1.638-.414-.612 0-1.158.138-1.638.414-.48.276-.864.666-1.152 1.17-.288.492-.432 1.08-.432 1.764 0 .672.144 1.266.432 1.782.288.504.672.894 1.152 1.17.48.276 1.026.414 1.638.414zm19.273-8.226c.768 0 1.446.15 2.034.45.588.3 1.044.756 1.368 1.368.336.612.504 1.386.504 2.322V58h-1.728v-5.292c0-.924-.216-1.62-.648-2.088-.432-.468-1.038-.702-1.818-.702-.576 0-1.08.12-1.512.36-.432.24-.768.594-1.008 1.062-.228.468-.342 1.05-.342 1.746V58h-1.728v-5.292c0-.924-.216-1.62-.648-2.088-.42-.468-1.026-.702-1.818-.702-.564 0-1.062.12-1.494.36-.432.24-.768.594-1.008 1.062-.24.468-.36 1.05-.36 1.746V58h-1.728v-9.54h1.656v2.538l-.27-.648c.3-.624.762-1.11 1.386-1.458.624-.348 1.35-.522 2.178-.522.912 0 1.698.228 2.358.684.66.444 1.092 1.122 1.296 2.034l-.702-.288c.288-.732.792-1.32 1.512-1.764.72-.444 1.56-.666 2.52-.666zm12.144 9.738c-.792 0-1.518-.18-2.178-.54-.648-.372-1.17-.918-1.566-1.638-.384-.72-.576-1.62-.576-2.7s.186-1.98.558-2.7c.384-.72.9-1.26 1.548-1.62.66-.36 1.398-.54 2.214-.54.936 0 1.764.204 2.484.612a4.5 4.5 0 011.71 1.71c.42.72.63 1.566.63 2.538 0 .972-.21 1.824-.63 2.556a4.5 4.5 0 01-1.71 1.71c-.72.408-1.548.612-2.484.612zm-5.058 3.384V48.46h1.656v2.574l-.108 2.214.18 2.214v6.03h-1.728zm4.914-4.896c.612 0 1.158-.138 1.638-.414a2.922 2.922 0 001.152-1.17c.288-.516.432-1.11.432-1.782 0-.684-.144-1.272-.432-1.764a2.922 2.922 0 00-1.152-1.17c-.48-.276-1.026-.414-1.638-.414-.6 0-1.146.138-1.638.414-.48.276-.864.666-1.152 1.17-.276.492-.414 1.08-.414 1.764 0 .672.138 1.266.414 1.782.288.504.672.894 1.152 1.17a3.29 3.29 0 001.638.414zm11.603 1.512c-1.02 0-1.92-.21-2.7-.63a4.62 4.62 0 01-1.8-1.728c-.42-.732-.63-1.572-.63-2.52s.204-1.788.612-2.52a4.5 4.5 0 011.71-1.71c.732-.42 1.554-.63 2.466-.63.924 0 1.74.204 2.448.612.708.408 1.26.984 1.656 1.728.408.732.612 1.59.612 2.574 0 .072-.006.156-.018.252 0 .096-.006.186-.018.27h-8.118v-1.242h7.218l-.702.432c.012-.612-.114-1.158-.378-1.638a2.807 2.807 0 00-1.098-1.116c-.456-.276-.99-.414-1.602-.414-.6 0-1.134.138-1.602.414a2.779 2.779 0 00-1.098 1.134c-.264.48-.396 1.032-.396 1.656v.288c0 .636.144 1.206.432 1.71.3.492.714.876 1.242 1.152.528.276 1.134.414 1.818.414.564 0 1.074-.096 1.53-.288.468-.192.876-.48 1.224-.864l.954 1.116a4.166 4.166 0 01-1.62 1.152c-.636.264-1.35.396-2.142.396zm10.05 0c-.96 0-1.704-.258-2.232-.774-.528-.516-.792-1.254-.792-2.214v-8.748h1.728v8.676c0 .516.126.912.378 1.188.264.276.636.414 1.116.414.54 0 .99-.15 1.35-.45l.54 1.242a2.506 2.506 0 01-.954.504c-.36.108-.738.162-1.134.162zm-4.644-8.226V48.46h6.084v1.422h-6.084zM404.431 58v-9.54h1.728V58h-1.728zm.864-11.376c-.336 0-.618-.108-.846-.324a1.077 1.077 0 01-.324-.792c0-.324.108-.594.324-.81.228-.216.51-.324.846-.324.336 0 .612.108.828.324a.994.994 0 01.342.774c0 .324-.108.6-.324.828-.216.216-.498.324-.846.324zm7.439 11.484c-.96 0-1.704-.258-2.232-.774-.528-.516-.792-1.254-.792-2.214v-8.748h1.728v8.676c0 .516.126.912.378 1.188.264.276.636.414 1.116.414.54 0 .99-.15 1.35-.45l.54 1.242a2.506 2.506 0 01-.954.504c-.36.108-.738.162-1.134.162zm-4.644-8.226V48.46h6.084v1.422h-6.084zm12.591 8.226c-.96 0-1.812-.21-2.556-.63a4.69 4.69 0 01-1.764-1.728c-.432-.744-.648-1.584-.648-2.52 0-.948.216-1.788.648-2.52a4.557 4.557 0 011.764-1.71c.744-.42 1.596-.63 2.556-.63.948 0 1.794.21 2.538.63a4.4 4.4 0 011.764 1.71c.432.72.648 1.56.648 2.52 0 .948-.216 1.788-.648 2.52a4.524 4.524 0 01-1.764 1.728c-.744.42-1.59.63-2.538.63zm0-1.512c.612 0 1.158-.138 1.638-.414a2.922 2.922 0 001.152-1.17c.276-.516.414-1.11.414-1.782 0-.684-.138-1.272-.414-1.764a2.922 2.922 0 00-1.152-1.17c-.48-.276-1.026-.414-1.638-.414-.612 0-1.158.138-1.638.414-.48.276-.864.666-1.152 1.17-.288.492-.432 1.08-.432 1.764 0 .672.144 1.266.432 1.782.288.504.672.894 1.152 1.17.48.276 1.026.414 1.638.414zm7.34 1.404v-9.54h1.656v2.592l-.162-.648a2.93 2.93 0 011.332-1.512c.624-.348 1.392-.522 2.304-.522v1.674a1.312 1.312 0 00-.216-.018h-.18c-.924 0-1.656.276-2.196.828-.54.552-.81 1.35-.81 2.394V58h-1.728z" fill="#37376D"/><path d="M552.165 55.75L548 52h8.33l-4.165 3.75z" fill="#000C2C"/><circle opacity=".6" cx="144" cy="193" r="82" fill="#FFE264"/><path d="M226 193a82 82 0 11-17.958-51.211L144 193h82z" fill="#F28100"/><path d="M226 193a82 82 0 11-47.873-74.561L144 193h82z" fill="#0FA7F0"/><circle opacity=".6" cx="283.5" cy="257.5" r="17.5" fill="#FFE264"/><path d="M301 257.5a17.5 17.5 0 11-3.832-10.929L283.5 257.5H301z" fill="#F28100"/><path d="M301 257.5a17.508 17.508 0 01-5.126 12.374A17.51 17.51 0 01283.5 275a17.508 17.508 0 01-12.374-5.126A17.51 17.51 0 01266 257.5h35z" fill="#0FA7F0"/><path opacity=".6" d="M348.246 268.33a17.497 17.497 0 00-1.281-23.113 17.503 17.503 0 00-23.091-1.622 17.5 17.5 0 0017.466 30.013L334.5 257.5l13.746 10.83z" fill="#FFE264"/><path d="M352 257.5a17.501 17.501 0 01-28.709 13.439 17.5 17.5 0 1128.205-17.61L334.5 257.5H352z" fill="#F28100"/><path d="M352 257.5a17.496 17.496 0 01-10.803 16.168 17.491 17.491 0 01-19.071-3.794 17.491 17.491 0 01-3.794-19.071A17.503 17.503 0 01334.5 240v17.5H352z" fill="#0FA7F0"/><path opacity=".6" d="M501.246 268.33a17.497 17.497 0 00-1.281-23.113 17.503 17.503 0 00-23.091-1.622 17.5 17.5 0 0017.466 30.013L487.5 257.5l13.746 10.83z" fill="#FFE264"/><path d="M505 257.5a17.503 17.503 0 01-14.086 17.164 17.5 17.5 0 118.96-29.538L487.5 257.5H505z" fill="#F28100"/><path d="M505 257.5a17.496 17.496 0 01-10.803 16.168 17.491 17.491 0 01-19.071-3.794 17.491 17.491 0 01-3.794-19.071A17.503 17.503 0 01487.5 240v17.5H505z" fill="#0FA7F0"/><path opacity=".6" d="M450.246 268.33a17.497 17.497 0 00-1.281-23.113 17.503 17.503 0 00-23.091-1.622 17.5 17.5 0 0017.466 30.013L436.5 257.5l13.746 10.83z" fill="#FFE264"/><path d="M454 257.5a17.504 17.504 0 01-11.986 16.609 17.507 17.507 0 01-10.762.086 17.507 17.507 0 01-12.25-16.415 17.5 17.5 0 0122.478-17.057L436.5 257.5H454z" fill="#F28100"/><path d="M454 257.5a17.496 17.496 0 01-10.803 16.168 17.491 17.491 0 01-19.071-3.794 17.491 17.491 0 01-3.794-19.071A17.503 17.503 0 01436.5 240v17.5H454z" fill="#0FA7F0"/><path opacity=".6" d="M399.246 268.33a17.497 17.497 0 00-1.281-23.113 17.503 17.503 0 00-23.091-1.622 17.5 17.5 0 0017.466 30.013L385.5 257.5l13.746 10.83z" fill="#FFE264"/><path d="M403 257.5a17.496 17.496 0 01-10.803 16.168 17.491 17.491 0 01-19.071-3.794 17.491 17.491 0 01-3.794-19.071A17.503 17.503 0 01385.5 240v17.5H403z" fill="#F28100"/><path d="M399.845 267.524a17.499 17.499 0 01-31.576-6.969 17.493 17.493 0 017.814-17.805 17.5 17.5 0 0119.441.405L385.5 257.5l14.345 10.024z" fill="#0FA7F0"/><path opacity=".6" d="M553.379 266.711a17.495 17.495 0 00-3.878-22.821 17.497 17.497 0 00-23.127.992 17.5 17.5 0 0020.738 27.852L538.5 257.5l14.879 9.211z" fill="#FFE264"/><path d="M553.901 265.81a17.498 17.498 0 01-32.167-3.296 17.496 17.496 0 015.717-18.585 17.497 17.497 0 0119.359-1.83L538.5 257.5l15.401 8.31z" fill="#F28100"/><path d="M538.5 275a17.496 17.496 0 01-16.168-10.803 17.498 17.498 0 0112.754-23.861 17.506 17.506 0 0117.965 7.442A17.496 17.496 0 01556 257.5h-17.5V275zM266 178a2 2 0 012-2h9a2 2 0 012 2v33a2 2 0 01-2 2h-9a2 2 0 01-2-2v-33zm92 0a2 2 0 012-2h9a2 2 0 012 2v33a2 2 0 01-2 2h-9a2 2 0 01-2-2v-33zm-69 0a2 2 0 012-2h9a2 2 0 012 2v33a2 2 0 01-2 2h-9a2 2 0 01-2-2v-33zm92 0a2 2 0 012-2h9a2 2 0 012 2v33a2 2 0 01-2 2h-9a2 2 0 01-2-2v-33zm69 0a2 2 0 012-2h9a2 2 0 012 2v33a2 2 0 01-2 2h-9a2 2 0 01-2-2v-33zm69 0a2 2 0 012-2h9a2 2 0 012 2v33a2 2 0 01-2 2h-9a2 2 0 01-2-2v-33zm23 0a2 2 0 012-2h9a2 2 0 012 2v33a2 2 0 01-2 2h-9a2 2 0 01-2-2v-33zm-230-11a2 2 0 012-2h9a2 2 0 012 2v44a2 2 0 01-2 2h-9a2 2 0 01-2-2v-44zm92 0a2 2 0 012-2h9a2 2 0 012 2v44a2 2 0 01-2 2h-9a2 2 0 01-2-2v-44zm69 0a2 2 0 012-2h9a2 2 0 012 2v44a2 2 0 01-2 2h-9a2 2 0 01-2-2v-44zm23 0a2 2 0 012-2h9a2 2 0 012 2v44a2 2 0 01-2 2h-9a2 2 0 01-2-2v-44zm-161-31a2 2 0 012-2h9a2 2 0 012 2v75a2 2 0 01-2 2h-9a2 2 0 01-2-2v-75zm92 0a2 2 0 012-2h9a2 2 0 012 2v75a2 2 0 01-2 2h-9a2 2 0 01-2-2v-75z" fill="#0FA7F0"/><path d="M266 134a2 2 0 012-2h9a2 2 0 012 2v39a2 2 0 01-2 2h-9a2 2 0 01-2-2v-39zm92 0a2 2 0 012-2h9a2 2 0 012 2v39a2 2 0 01-2 2h-9a2 2 0 01-2-2v-39zm-69 33a2 2 0 012-2h9a2 2 0 012 2v6a2 2 0 01-2 2h-9a2 2 0 01-2-2v-6zm92 0a2 2 0 012-2h9a2 2 0 012 2v6a2 2 0 01-2 2h-9a2 2 0 01-2-2v-6zm69 0a2 2 0 012-2h9a2 2 0 012 2v6a2 2 0 01-2 2h-9a2 2 0 01-2-2v-6zm69 0a2 2 0 012-2h9a2 2 0 012 2v6a2 2 0 01-2 2h-9a2 2 0 01-2-2v-6zm23 0a2 2 0 012-2h9a2 2 0 012 2v6a2 2 0 01-2 2h-9a2 2 0 01-2-2v-6zm-230-42a2 2 0 012-2h9a2 2 0 012 2v37a2 2 0 01-2 2h-9a2 2 0 01-2-2v-37zm92 0a2 2 0 012-2h9a2 2 0 012 2v37a2 2 0 01-2 2h-9a2 2 0 01-2-2v-37zm69 0a2 2 0 012-2h9a2 2 0 012 2v37a2 2 0 01-2 2h-9a2 2 0 01-2-2v-37zm23 22a2 2 0 012-2h9a2 2 0 012 2v15a2 2 0 01-2 2h-9a2 2 0 01-2-2v-15zm-161-22a2 2 0 012-2h9a2 2 0 012 2v6a2 2 0 01-2 2h-9a2 2 0 01-2-2v-6zm92 0a2 2 0 012-2h9a2 2 0 012 2v6a2 2 0 01-2 2h-9a2 2 0 01-2-2v-6z" fill="#FFEEA2"/><rect x="266" y="111" width="13" height="20" rx="2" fill="#F28100"/><rect x="358" y="111" width="13" height="20" rx="2" fill="#F28100"/><rect x="289" y="111" width="13" height="53" rx="2" fill="#F28100"/><rect x="381" y="111" width="13" height="53" rx="2" fill="#F28100"/><rect x="450" y="111" width="13" height="53" rx="2" fill="#F28100"/><rect x="519" y="111" width="13" height="53" rx="2" fill="#F28100"/><rect x="542" y="111" width="13" height="53" rx="2" fill="#F28100"/><rect x="312" y="111" width="13" height="11" rx="2" fill="#F28100"/><rect x="404" y="111" width="13" height="11" rx="2" fill="#F28100"/><rect x="473" y="111" width="13" height="11" rx="2" fill="#F28100"/><rect x="496" y="111" width="13" height="33" rx="2" fill="#F28100"/><rect x="335" y="111" width="13" height="11" rx="2" fill="#F28100"/><rect x="427" y="111" width="13" height="11" rx="2" fill="#F28100"/></svg>