<svg width="200" height="200" fill="none" xmlns="http://www.w3.org/2000/svg"><rect width="200" height="200" rx="15" fill="#fff"/><rect x="20" y="115" width="65" height="65" rx="15" fill="#F3F3FC"/><rect x="41" y="129" width="22" height="36" rx="4" fill="#E4E4EA" stroke="#AEAEBD" stroke-width="1.2"/><rect x="43" y="131" width="18" height="27" rx="2" fill="#E4E4EA" stroke="#AEAEBD" stroke-width="1.2"/><path d="M49.5 161.5h5" stroke="#AEAEBD" stroke-width="1.2" stroke-linecap="round" stroke-linejoin="round"/><rect x="56" y="106" width="33.883" height="22.82" rx="11.41" fill="#FB4C67"/><path d="M63.22 119.588v-.98l2.967-3.991h1.528l-2.903 3.991-.71-.206h4.953v1.186H63.22zm3.39 1.322v-1.322l.044-1.186v-1.178h1.376v3.686h-1.42zm4.868.108a5.08 5.08 0 01-1.303-.171 3.43 3.43 0 01-1.097-.504l.566-1.114c.24.173.519.311.836.413.318.102.639.153.962.153.366 0 .653-.072.863-.216a.681.681 0 00.315-.593.665.665 0 00-.279-.566c-.186-.138-.485-.207-.899-.207h-.665v-.962l1.753-1.987.162.522h-3.3v-1.169h4.405v.944l-1.743 1.987-.738-.423h.423c.773 0 1.357.174 1.753.521.395.348.593.795.593 1.34 0 .354-.093.686-.279.998-.185.305-.47.554-.854.746-.383.192-.875.288-1.474.288zm4.1-.108l4.297-6.293h1.07l-4.298 6.293h-1.07zm.548-2.895c-.306 0-.575-.069-.81-.207a1.545 1.545 0 01-.556-.602 2.047 2.047 0 01-.198-.926c0-.354.066-.659.198-.917.137-.258.323-.458.557-.602a1.51 1.51 0 01.809-.216c.306 0 .575.072.81.216.233.144.416.344.547.602.132.258.198.563.198.917 0 .354-.066.662-.198.926a1.481 1.481 0 01-.548.602 1.562 1.562 0 01-.809.207zm0-.737a.564.564 0 00.476-.243c.12-.168.18-.419.18-.755s-.06-.584-.18-.746a.558.558 0 00-.476-.252.573.573 0 00-.476.252c-.12.162-.18.41-.18.746 0 .33.06.578.18.746a.573.573 0 00.476.252zm4.27 3.704c-.3 0-.57-.069-.809-.207a1.487 1.487 0 01-.548-.602 2.05 2.05 0 01-.198-.926c0-.354.066-.66.198-.917.131-.258.314-.459.548-.603.24-.143.51-.215.809-.215.312 0 .584.072.818.215.234.144.417.345.548.603.132.257.198.563.198.917 0 .353-.066.662-.198.926a1.488 1.488 0 01-.548.602 1.58 1.58 0 01-.818.207zm0-.738c.198 0 .357-.08.477-.242.12-.168.18-.42.18-.755 0-.33-.06-.579-.18-.747a.56.56 0 00-.477-.251.575.575 0 00-.476.251c-.12.162-.18.411-.18.747 0 .335.06.587.18.755a.578.578 0 00.476.242z" fill="#fff"/><rect x="105" y="115" width="65" height="65" rx="15" fill="#F3F3FC"/><rect x="113" y="127" width="13" height="20" rx="4" fill="#E4E4EA" stroke="#AEAEBD" stroke-width="1.2"/><circle cx="119.5" cy="133.5" r="3.5" stroke="#AEAEBD" stroke-width="1.2"/><circle cx="119.5" cy="140.5" r="1.5" stroke="#AEAEBD" stroke-width="1.2"/><path d="M119.273 147v24m0 0H122m-2.727 0H116" stroke="#AEAEBD" stroke-width="1.2" stroke-linecap="round" stroke-linejoin="round"/><rect x="150" y="127" width="13" height="20" rx="4" fill="#E4E4EA" stroke="#AEAEBD" stroke-width="1.2"/><circle cx="156.5" cy="133.5" r="3.5" stroke="#AEAEBD" stroke-width="1.2"/><circle cx="156.5" cy="140.5" r="1.5" stroke="#AEAEBD" stroke-width="1.2"/><path d="M156.273 147v24m0 0H159m-2.727 0H153" stroke="#AEAEBD" stroke-width="1.2" stroke-linecap="round" stroke-linejoin="round"/><rect x="141" y="106" width="33.883" height="22.82" rx="11.41" fill="#FFE6CA"/><path d="M151.106 121.018c-.575 0-1.076-.12-1.501-.36-.42-.24-.743-.59-.971-1.052-.228-.461-.342-1.031-.342-1.708 0-.725.135-1.339.405-1.843a2.827 2.827 0 011.133-1.15c.485-.264 1.042-.396 1.672-.396.335 0 .656.036.961.108.306.072.57.18.792.324l-.54 1.069a1.548 1.548 0 00-.557-.242 2.625 2.625 0 00-.62-.072c-.546 0-.977.165-1.295.494-.318.33-.476.818-.476 1.465v.36c.006.132.024.264.054.396l-.405-.378a1.809 1.809 0 011.079-.944c.251-.084.527-.126.827-.126.407 0 .773.081 1.097.243.323.162.581.39.773.683.197.294.296.638.296 1.034 0 .425-.108.797-.323 1.115-.21.311-.495.554-.854.728a2.775 2.775 0 01-1.205.252zm-.081-1.088c.204 0 .384-.036.54-.108a.892.892 0 00.377-.333.91.91 0 00.135-.494c0-.288-.099-.515-.297-.683-.191-.174-.449-.261-.773-.261-.216 0-.404.042-.566.126a.956.956 0 00-.387.332.87.87 0 00-.135.486c0 .18.045.342.135.485.09.138.216.249.378.333.162.078.359.117.593.117zm5.598 1.088c-.527 0-.989-.078-1.384-.234-.396-.162-.704-.387-.926-.674a1.655 1.655 0 01-.333-1.025c0-.39.108-.719.324-.989.222-.276.53-.482.926-.62.395-.144.86-.216 1.393-.216.539 0 1.007.072 1.402.216.402.138.711.344.926.62.222.27.333.599.333.989 0 .389-.111.731-.333 1.025-.221.287-.533.512-.935.674-.395.156-.86.234-1.393.234zm0-1.07c.366 0 .653-.081.863-.243a.785.785 0 00.324-.665.76.76 0 00-.324-.656c-.21-.162-.497-.243-.863-.243-.359 0-.644.081-.854.243-.21.155-.315.374-.315.656 0 .282.105.503.315.665.21.162.495.243.854.243zm0-1.951c-.485 0-.911-.066-1.276-.198-.36-.132-.642-.323-.845-.575a1.461 1.461 0 01-.297-.917c0-.372.102-.689.306-.953.203-.27.488-.476.854-.62a3.29 3.29 0 011.258-.225c.486 0 .908.075 1.268.225.365.144.65.35.854.62.209.264.314.581.314.953 0 .354-.102.659-.305.917-.198.252-.48.443-.845.575-.366.132-.794.198-1.286.198zm0-.854c.306 0 .545-.069.719-.207a.674.674 0 00.27-.566c0-.252-.093-.447-.279-.584-.18-.138-.416-.207-.71-.207-.288 0-.521.069-.701.207-.18.137-.27.332-.27.584 0 .24.087.428.261.566.174.138.41.207.71.207zm4.148 3.767l4.297-6.293h1.07l-4.297 6.293h-1.07zm.548-2.895a1.56 1.56 0 01-.809-.207 1.543 1.543 0 01-.557-.602 2.044 2.044 0 01-.198-.926c0-.354.066-.659.198-.917.138-.258.323-.458.557-.602a1.51 1.51 0 01.809-.216c.306 0 .575.072.809.216.234.144.417.344.549.602a2 2 0 01.197.917c0 .354-.066.662-.197.926a1.482 1.482 0 01-.549.602 1.56 1.56 0 01-.809.207zm0-.737a.565.565 0 00.477-.243c.119-.168.179-.419.179-.755s-.06-.584-.179-.746a.559.559 0 00-.477-.252.572.572 0 00-.476.252c-.12.162-.18.41-.18.746 0 .33.06.578.18.746a.572.572 0 00.476.252zm4.27 3.704c-.299 0-.569-.069-.809-.207a1.486 1.486 0 01-.548-.602 2.047 2.047 0 01-.198-.926c0-.354.066-.66.198-.917.132-.258.314-.459.548-.603.24-.143.51-.215.809-.215.312 0 .584.072.818.215.234.144.417.345.549.603.131.257.197.563.197.917 0 .353-.066.662-.197.926a1.489 1.489 0 01-.549.602 1.579 1.579 0 01-.818.207zm0-.738c.198 0 .357-.08.477-.242.119-.168.179-.42.179-.755 0-.33-.06-.579-.179-.747a.56.56 0 00-.477-.251.574.574 0 00-.476.251c-.12.162-.18.411-.18.747 0 .335.06.587.18.755a.578.578 0 00.476.242z" fill="#F28100"/><rect x="126" y="150" width="23" height="21" rx="2" fill="#E4E4EA" stroke="#AEAEBD" stroke-width="1.2"/><rect x="126" y="150" width="23" height="8" rx="2" fill="#E4E4EA" stroke="#AEAEBD" stroke-width="1.2"/><rect x="128" y="154" width="9" height="2" rx="1" fill="#E4E4EA" stroke="#AEAEBD" stroke-width="1.2"/><circle cx="130.5" cy="162.5" r="1.5" stroke="#AEAEBD" stroke-width="1.2"/><circle cx="135.5" cy="162.5" r="1.5" stroke="#AEAEBD" stroke-width="1.2"/><rect x="20" y="30" width="65" height="65" rx="15" fill="#F3F3FC"/><path d="M34 74.186l2.51-4.353V50.738c0-.96.778-1.738 1.737-1.738h27.646c.96 0 1.738.778 1.738 1.738v19.095L70 74.186V76H34v-1.814z" fill="#E4E4EA"/><path d="M34 74.186V76h36v-1.814m-36 0l2.51-4.353M34 74.186h36m0 0l-2.37-4.353m-31.12 0V50.738c0-.96.778-1.738 1.737-1.738h27.646c.96 0 1.738.778 1.738 1.738v19.095m-31.121 0h31.12" stroke="#AEAEBD" stroke-width="1.2" stroke-linejoin="round"/><rect x="56" y="21" width="33.883" height="22.82" rx="11.41" fill="#80DA39"/><path d="M65.504 29.51c.581 0 1.081.119 1.501.359.42.24.743.59.97 1.052.229.455.343 1.024.343 1.708 0 .725-.138 1.339-.414 1.842-.27.504-.644.887-1.124 1.151-.48.264-1.037.395-1.672.395-.33 0-.647-.035-.953-.107a2.487 2.487 0 01-.79-.324l.539-1.07c.173.12.36.204.557.252.198.042.404.063.62.063.54 0 .968-.165 1.286-.495.323-.33.485-.817.485-1.465 0-.108-.003-.227-.009-.36a2.973 2.973 0 00-.045-.395l.396.378a1.65 1.65 0 01-.432.593 2.004 2.004 0 01-.647.36 2.727 2.727 0 01-.827.116c-.401 0-.767-.08-1.097-.242a2.009 2.009 0 01-.782-.683 1.849 1.849 0 01-.287-1.034c0-.432.104-.803.314-1.115.216-.312.504-.551.863-.72a2.77 2.77 0 011.205-.26zm.09 1.087c-.21 0-.393.039-.549.117a.84.84 0 00-.368.323.885.885 0 00-.135.495c0 .287.096.518.288.692.197.168.458.252.782.252.21 0 .395-.04.557-.117a.898.898 0 00.521-.827.854.854 0 00-.134-.477.831.831 0 00-.369-.332 1.277 1.277 0 00-.593-.126zm6.119 5.42a2.58 2.58 0 01-1.384-.377c-.408-.258-.728-.63-.962-1.115-.234-.485-.35-1.072-.35-1.762 0-.689.116-1.276.35-1.762.233-.485.554-.854.962-1.105a2.535 2.535 0 011.384-.387c.521 0 .983.129 1.384.387.408.251.729.62.962 1.105.234.486.35 1.073.35 1.762 0 .69-.116 1.277-.35 1.762-.233.486-.554.857-.962 1.115a2.551 2.551 0 01-1.384.377zm0-1.231c.246 0 .459-.069.638-.207.186-.138.33-.356.432-.656.108-.3.162-.686.162-1.16 0-.473-.054-.86-.162-1.16-.102-.299-.246-.518-.432-.655a1.018 1.018 0 00-.638-.207c-.24 0-.453.069-.638.207-.18.137-.324.356-.432.656-.102.3-.153.686-.153 1.16 0 .473.051.86.153 1.159.108.3.252.518.432.656.185.138.398.207.638.207zm4.312 1.124l4.297-6.293h1.07l-4.297 6.293h-1.07zm.549-2.895c-.306 0-.576-.069-.81-.207a1.547 1.547 0 01-.557-.602 2.047 2.047 0 01-.197-.926c0-.354.066-.66.197-.917.138-.258.324-.458.558-.602.233-.144.503-.216.809-.216.305 0 .575.072.809.216.234.144.416.344.548.602.132.258.198.564.198.917 0 .354-.066.662-.198.926a1.483 1.483 0 01-.548.602 1.563 1.563 0 01-.81.207zm0-.737a.563.563 0 00.476-.243c.12-.168.18-.42.18-.755s-.06-.584-.18-.746a.559.559 0 00-.476-.252.573.573 0 00-.477.252c-.12.162-.18.41-.18.746 0 .33.06.578.18.746a.573.573 0 00.477.252zm4.27 3.704c-.3 0-.57-.07-.81-.207a1.484 1.484 0 01-.548-.602 2.047 2.047 0 01-.197-.926c0-.354.066-.66.197-.917.132-.258.315-.459.549-.603.24-.143.51-.215.809-.215.311 0 .584.072.818.215.233.144.416.345.548.603.132.257.198.563.198.917 0 .353-.066.662-.198.925a1.483 1.483 0 01-.548.603 1.58 1.58 0 01-.818.207zm0-.738c.198 0 .356-.08.476-.242.12-.168.18-.42.18-.755 0-.33-.06-.579-.18-.746a.559.559 0 00-.476-.252.573.573 0 00-.477.252c-.12.161-.18.41-.18.746 0 .335.06.587.18.755a.58.58 0 00.477.242z" fill="#fff"/><rect x="105" y="30" width="65" height="65" rx="15" fill="#F3F3FC"/><rect x="141" y="21" width="33.883" height="22.82" rx="11.41" fill="#FFE6CA"/><path d="M149.299 35.91l2.535-5.736.378.63h-3.389l.647-.684v1.708h-1.295v-2.211h5.044v.944l-2.338 5.349h-1.582zm6.779-6.4c.582 0 1.082.119 1.502.359.419.24.743.59.97 1.052.228.455.342 1.024.342 1.708 0 .725-.138 1.339-.413 1.842a2.78 2.78 0 01-1.124 1.151c-.48.264-1.037.395-1.672.395-.33 0-.647-.035-.953-.107a2.487 2.487 0 01-.791-.324l.539-1.07c.174.12.36.204.558.252.197.042.404.063.62.063.539 0 .968-.165 1.285-.495.324-.33.486-.817.486-1.465 0-.108-.003-.227-.009-.36a2.956 2.956 0 00-.045-.395l.395.378a1.647 1.647 0 01-.431.593 2.012 2.012 0 01-.647.36 2.731 2.731 0 01-.827.116 2.45 2.45 0 01-1.097-.242 2.007 2.007 0 01-.782-.683 1.846 1.846 0 01-.288-1.034c0-.432.105-.803.315-1.115.215-.312.503-.551.863-.72.365-.173.767-.26 1.204-.26zm.09 1.087c-.21 0-.392.039-.548.117a.841.841 0 00-.369.323.884.884 0 00-.135.495c0 .287.096.518.288.692.198.168.459.252.782.252.21 0 .396-.04.558-.117a.896.896 0 00.521-.827.852.852 0 00-.135-.477.834.834 0 00-.368-.332 1.28 1.28 0 00-.594-.126zm4.331 5.313l4.297-6.293h1.069l-4.297 6.293h-1.069zm.548-2.895a1.56 1.56 0 01-.809-.207 1.538 1.538 0 01-.557-.602 2.044 2.044 0 01-.198-.926c0-.354.066-.66.198-.917.137-.258.323-.458.557-.602a1.51 1.51 0 01.809-.216c.306 0 .575.072.809.216.234.144.417.344.548.602.132.258.198.564.198.917 0 .354-.066.662-.198.926a1.475 1.475 0 01-.548.602 1.563 1.563 0 01-.809.207zm0-.737a.562.562 0 00.476-.243c.12-.168.18-.42.18-.755s-.06-.584-.18-.746a.556.556 0 00-.476-.252.571.571 0 00-.476.252c-.12.162-.18.41-.18.746 0 .33.06.578.18.746a.571.571 0 00.476.252zm4.27 3.704c-.3 0-.569-.07-.809-.207a1.475 1.475 0 01-.548-.602 2.044 2.044 0 01-.198-.926c0-.354.066-.66.198-.917.131-.258.314-.459.548-.603.24-.143.509-.215.809-.215.312 0 .584.072.818.215.234.144.417.345.548.603.132.257.198.563.198.917 0 .353-.066.662-.198.925a1.475 1.475 0 01-.548.603 1.58 1.58 0 01-.818.207zm0-.738c.198 0 .357-.08.476-.242.12-.168.18-.42.18-.755 0-.33-.06-.579-.18-.746a.556.556 0 00-.476-.252.571.571 0 00-.476.252c-.12.161-.18.41-.18.746 0 .335.06.587.18.755a.578.578 0 00.476.242z" fill="#F28100"/><rect x="123" y="43" width="29" height="38" rx="4" fill="#E4E4EA" stroke="#AEAEBD" stroke-width="1.2"/><path d="M123 47a4 4 0 014-4h21a4 4 0 014 4v4a2 2 0 01-2 2h-25a2 2 0 01-2-2v-4z" fill="#E4E4EA" stroke="#AEAEBD" stroke-width="1.2"/><path d="M126 48a2 2 0 012-2h6a2 2 0 012 2v0a2 2 0 01-2 2h-6a2 2 0 01-2-2v0zm15 .5a1.5 1.5 0 011.5-1.5v0a1.5 1.5 0 011.5 1.5v0a1.5 1.5 0 01-1.5 1.5v0a1.5 1.5 0 01-1.5-1.5v0zm5 0a1.5 1.5 0 011.5-1.5v0a1.5 1.5 0 011.5 1.5v0a1.5 1.5 0 01-1.5 1.5v0a1.5 1.5 0 01-1.5-1.5v0z" fill="#E4E4EA" stroke="#AEAEBD" stroke-width="1.2"/><circle cx="137.5" cy="66.5" r="9.9" stroke="#AEAEBD" stroke-width="1.2"/></svg>