<svg width="200" height="200" fill="none" xmlns="http://www.w3.org/2000/svg"><rect width="200" height="200" rx="15" fill="#fff"/><g clip-path="url(#clip0_184_210)"><rect x="37" y="37" width="126" height="126" rx="5" fill="#fff"/><path fill="#0FA7F0" fill-opacity=".04" stroke="#DDDDE6" stroke-width="1.2" d="M36.4 36.4h81.2v92.2H36.4z"/><path fill="#F2E800" fill-opacity=".1" stroke="#DDDDE6" stroke-width="1.2" d="M163.6 36.4h-46.2v92.2h46.2z"/><path fill="#FFD7D7" stroke="#DDDDE6" stroke-width="1.2" d="M36.4 163.6h81.2v-35.2H36.4z"/><path fill="#B4B4B4" fill-opacity=".1" stroke="#DDDDE6" stroke-width="1.2" d="M163.6 163.6h-46.2v-35.2h46.2z"/><path d="M51.762 149.072a3.7 3.7 0 01-1.332-.234 3.266 3.266 0 01-1.053-.675 3.26 3.26 0 01-.693-1.026 3.22 3.22 0 01-.252-1.287c0-.468.084-.897.252-1.287.168-.39.402-.729.702-1.017.3-.294.651-.519 1.053-.675a3.577 3.577 0 011.332-.243c.486 0 .933.084 1.341.252.414.162.765.405 1.053.729l-.585.567a2.285 2.285 0 00-.81-.558 2.461 2.461 0 00-.963-.189c-.354 0-.684.06-.99.18a2.319 2.319 0 00-1.305 1.278c-.12.294-.18.615-.18.963s.06.672.18.972a2.342 2.342 0 001.305 1.269c.306.12.636.18.99.18.342 0 .663-.06.963-.18.3-.126.57-.318.81-.576l.585.567c-.288.324-.639.57-1.053.738a3.513 3.513 0 01-1.35.252zm5.402-.018c-.48 0-.906-.105-1.278-.315a2.345 2.345 0 01-.882-.864 2.463 2.463 0 01-.324-1.26c0-.474.108-.894.324-1.26.216-.366.51-.651.882-.855.372-.21.798-.315 1.278-.315.474 0 .897.105 1.269.315a2.2 2.2 0 01.882.855c.216.36.324.78.324 1.26 0 .474-.108.894-.324 1.26-.21.366-.504.654-.882.864-.372.21-.795.315-1.27.315zm0-.756c.306 0 .579-.069.819-.207a1.46 1.46 0 00.576-.585 1.86 1.86 0 00.207-.891c0-.342-.07-.636-.207-.882a1.46 1.46 0 00-.576-.585 1.613 1.613 0 00-.82-.207 1.542 1.542 0 00-1.395.792c-.143.246-.215.54-.215.882 0 .336.072.633.216.891a1.542 1.542 0 001.395.792zm9.637-4.113c.384 0 .723.075 1.017.225.294.15.522.378.684.684.168.306.252.693.252 1.161V149h-.864v-2.646c0-.462-.108-.81-.324-1.044-.216-.234-.52-.351-.91-.351-.287 0-.54.06-.755.18-.216.12-.384.297-.504.531-.114.234-.171.525-.171.873V149h-.864v-2.646c0-.462-.108-.81-.324-1.044-.21-.234-.513-.351-.91-.351-.281 0-.53.06-.746.18-.216.12-.384.297-.504.531-.12.234-.18.525-.18.873V149h-.864v-4.77h.828v1.269l-.135-.324c.15-.312.38-.555.693-.729a2.199 2.199 0 011.089-.261c.456 0 .849.114 1.179.342.33.222.546.561.648 1.017l-.351-.144c.144-.366.396-.66.756-.882.36-.222.78-.333 1.26-.333zm6.071 4.869c-.396 0-.759-.09-1.089-.27a2.064 2.064 0 01-.783-.819c-.192-.36-.288-.81-.288-1.35s.093-.99.28-1.35c.191-.36.45-.63.773-.81.33-.18.7-.27 1.107-.27.468 0 .882.102 1.242.306.36.204.645.489.855.855.21.36.315.783.315 1.269 0 .486-.105.912-.315 1.278a2.25 2.25 0 01-.855.855c-.36.204-.774.306-1.242.306zm-2.529 1.692v-6.516h.828v1.287l-.054 1.107.09 1.107v3.015h-.864zm2.457-2.448c.306 0 .58-.069.82-.207a1.46 1.46 0 00.575-.585c.144-.258.216-.555.216-.891 0-.342-.072-.636-.216-.882a1.46 1.46 0 00-.576-.585 1.613 1.613 0 00-.819-.207c-.3 0-.573.069-.819.207-.24.138-.432.333-.576.585-.138.246-.207.54-.207.882 0 .336.07.633.207.891.144.252.336.447.576.585.246.138.52.207.82.207zm5.802.756c-.51 0-.96-.105-1.35-.315a2.31 2.31 0 01-.9-.864 2.486 2.486 0 01-.315-1.26c0-.474.102-.894.306-1.26a2.25 2.25 0 01.855-.855c.366-.21.777-.315 1.233-.315.462 0 .87.102 1.224.306.354.204.63.492.828.864.204.366.306.795.306 1.287 0 .036-.003.078-.009.126a.956.956 0 01-.009.135h-4.059v-.621h3.61l-.352.216a1.604 1.604 0 00-.189-.819 1.404 1.404 0 00-.549-.558 1.517 1.517 0 00-.8-.207c-.3 0-.568.069-.802.207a1.39 1.39 0 00-.549.567 1.69 1.69 0 00-.198.828v.144c0 .318.072.603.216.855.15.246.357.438.621.576.264.138.567.207.91.207.281 0 .536-.048.764-.144.234-.096.438-.24.612-.432l.477.558a2.083 2.083 0 01-.81.576 2.77 2.77 0 01-1.07.198zm5.025 0c-.48 0-.852-.129-1.116-.387-.264-.258-.396-.627-.396-1.107v-4.374h.864v4.338c0 .258.063.456.189.594.132.138.318.207.558.207.27 0 .495-.075.675-.225l.27.621a1.253 1.253 0 01-.477.252c-.18.054-.37.081-.567.081zm-2.322-4.113v-.711h3.042v.711h-3.042zm4.41 4.059v-4.77h.864V149h-.863zm.432-5.688a.591.591 0 01-.422-.162.539.539 0 01-.162-.396.55.55 0 01.162-.405.591.591 0 01.422-.162.56.56 0 01.414.162.497.497 0 01.171.387.58.58 0 01-.162.414.572.572 0 01-.422.162zm3.72 5.742c-.48 0-.852-.129-1.116-.387-.264-.258-.396-.627-.396-1.107v-4.374h.864v4.338c0 .258.063.456.19.594.131.138.317.207.557.207.27 0 .495-.075.675-.225l.27.621a1.253 1.253 0 01-.477.252c-.18.054-.369.081-.567.081zm-2.322-4.113v-.711h3.042v.711h-3.042zm6.296 4.113c-.48 0-.906-.105-1.278-.315a2.345 2.345 0 01-.883-.864 2.463 2.463 0 01-.324-1.26c0-.474.109-.894.325-1.26.216-.366.51-.651.882-.855a2.55 2.55 0 011.278-.315c.474 0 .897.105 1.269.315a2.2 2.2 0 01.882.855c.215.36.323.78.323 1.26 0 .474-.108.894-.323 1.26-.21.366-.505.654-.883.864a2.53 2.53 0 01-1.268.315zm0-.756c.306 0 .579-.069.819-.207a1.46 1.46 0 00.576-.585 1.86 1.86 0 00.206-.891c0-.342-.068-.636-.206-.882a1.46 1.46 0 00-.577-.585 1.613 1.613 0 00-.819-.207 1.542 1.542 0 00-1.395.792c-.144.246-.216.54-.216.882 0 .336.073.633.216.891a1.542 1.542 0 001.396.792zm3.67.702v-4.77h.827v1.296l-.08-.324a1.46 1.46 0 01.665-.756c.312-.174.696-.261 1.152-.261v.837a.655.655 0 00-.108-.009h-.09c-.462 0-.828.138-1.098.414-.27.276-.405.675-.405 1.197V149h-.864zm6.783 0v-5.94l.387.423h-1.809v-.783h2.313v6.3h-.891z" fill="#BA2E2E"/><path d="M51.762 116.072a3.7 3.7 0 01-1.332-.234 3.266 3.266 0 01-1.053-.675 3.26 3.26 0 01-.693-1.026 3.22 3.22 0 01-.252-1.287c0-.468.084-.897.252-1.287.168-.39.402-.729.702-1.017.3-.294.651-.519 1.053-.675a3.577 3.577 0 011.332-.243c.486 0 .933.084 1.341.252.414.162.765.405 1.053.729l-.585.567a2.285 2.285 0 00-.81-.558 2.461 2.461 0 00-.963-.189c-.354 0-.684.06-.99.18a2.319 2.319 0 00-1.305 1.278c-.12.294-.18.615-.18.963s.06.672.18.972a2.342 2.342 0 001.305 1.269c.306.12.636.18.99.18.342 0 .663-.06.963-.18.3-.126.57-.318.81-.576l.585.567c-.288.324-.639.57-1.053.738a3.513 3.513 0 01-1.35.252zm5.402-.018c-.48 0-.906-.105-1.278-.315a2.345 2.345 0 01-.882-.864 2.463 2.463 0 01-.324-1.26c0-.474.108-.894.324-1.26.216-.366.51-.651.882-.855.372-.21.798-.315 1.278-.315.474 0 .897.105 1.269.315a2.2 2.2 0 01.882.855c.216.36.324.78.324 1.26 0 .474-.108.894-.324 1.26-.21.366-.504.654-.882.864-.372.21-.795.315-1.27.315zm0-.756c.306 0 .579-.069.819-.207a1.46 1.46 0 00.576-.585 1.86 1.86 0 00.207-.891c0-.342-.07-.636-.207-.882a1.46 1.46 0 00-.576-.585 1.613 1.613 0 00-.82-.207 1.542 1.542 0 00-1.395.792c-.143.246-.215.54-.215.882 0 .336.072.633.216.891a1.542 1.542 0 001.395.792zm9.637-4.113c.384 0 .723.075 1.017.225.294.15.522.378.684.684.168.306.252.693.252 1.161V116h-.864v-2.646c0-.462-.108-.81-.324-1.044-.216-.234-.52-.351-.91-.351-.287 0-.54.06-.755.18-.216.12-.384.297-.504.531-.114.234-.171.525-.171.873V116h-.864v-2.646c0-.462-.108-.81-.324-1.044-.21-.234-.513-.351-.91-.351-.281 0-.53.06-.746.18-.216.12-.384.297-.504.531-.12.234-.18.525-.18.873V116h-.864v-4.77h.828v1.269l-.135-.324c.15-.312.38-.555.693-.729a2.199 2.199 0 011.089-.261c.456 0 .849.114 1.179.342.33.222.546.561.648 1.017l-.351-.144c.144-.366.396-.66.756-.882.36-.222.78-.333 1.26-.333zm6.071 4.869c-.396 0-.759-.09-1.089-.27a2.064 2.064 0 01-.783-.819c-.192-.36-.288-.81-.288-1.35s.093-.99.28-1.35c.191-.36.45-.63.773-.81.33-.18.7-.27 1.107-.27.468 0 .882.102 1.242.306.36.204.645.489.855.855.21.36.315.783.315 1.269 0 .486-.105.912-.315 1.278a2.25 2.25 0 01-.855.855c-.36.204-.774.306-1.242.306zm-2.529 1.692v-6.516h.828v1.287l-.054 1.107.09 1.107v3.015h-.864zm2.457-2.448c.306 0 .58-.069.82-.207a1.46 1.46 0 00.575-.585c.144-.258.216-.555.216-.891 0-.342-.072-.636-.216-.882a1.46 1.46 0 00-.576-.585 1.613 1.613 0 00-.819-.207c-.3 0-.573.069-.819.207-.24.138-.432.333-.576.585-.138.246-.207.54-.207.882 0 .336.07.633.207.891.144.252.336.447.576.585.246.138.52.207.82.207zm5.802.756c-.51 0-.96-.105-1.35-.315a2.31 2.31 0 01-.9-.864 2.486 2.486 0 01-.315-1.26c0-.474.102-.894.306-1.26a2.25 2.25 0 01.855-.855c.366-.21.777-.315 1.233-.315.462 0 .87.102 1.224.306.354.204.63.492.828.864.204.366.306.795.306 1.287 0 .036-.003.078-.009.126a.956.956 0 01-.009.135h-4.059v-.621h3.61l-.352.216a1.604 1.604 0 00-.189-.819 1.404 1.404 0 00-.549-.558 1.517 1.517 0 00-.8-.207c-.3 0-.568.069-.802.207a1.39 1.39 0 00-.549.567 1.69 1.69 0 00-.198.828v.144c0 .318.072.603.216.855.15.246.357.438.621.576.264.138.567.207.91.207.281 0 .536-.048.764-.144.234-.096.438-.24.612-.432l.477.558a2.083 2.083 0 01-.81.576 2.77 2.77 0 01-1.07.198zm5.025 0c-.48 0-.852-.129-1.116-.387-.264-.258-.396-.627-.396-1.107v-4.374h.864v4.338c0 .258.063.456.189.594.132.138.318.207.558.207.27 0 .495-.075.675-.225l.27.621a1.253 1.253 0 01-.477.252c-.18.054-.37.081-.567.081zm-2.322-4.113v-.711h3.042v.711h-3.042zm4.41 4.059v-4.77h.864V116h-.863zm.432-5.688a.591.591 0 01-.422-.162.539.539 0 01-.162-.396.55.55 0 01.162-.405.591.591 0 01.422-.162.56.56 0 01.414.162.497.497 0 01.171.387.58.58 0 01-.162.414.572.572 0 01-.422.162zm3.72 5.742c-.48 0-.852-.129-1.116-.387-.264-.258-.396-.627-.396-1.107v-4.374h.864v4.338c0 .258.063.456.19.594.131.138.317.207.557.207.27 0 .495-.075.675-.225l.27.621a1.253 1.253 0 01-.477.252c-.18.054-.369.081-.567.081zm-2.322-4.113v-.711h3.042v.711h-3.042zm6.296 4.113c-.48 0-.906-.105-1.278-.315a2.345 2.345 0 01-.883-.864 2.463 2.463 0 01-.324-1.26c0-.474.109-.894.325-1.26.216-.366.51-.651.882-.855a2.55 2.55 0 011.278-.315c.474 0 .897.105 1.269.315a2.2 2.2 0 01.882.855c.215.36.323.78.323 1.26 0 .474-.108.894-.323 1.26-.21.366-.505.654-.883.864a2.53 2.53 0 01-1.268.315zm0-.756c.306 0 .579-.069.819-.207a1.46 1.46 0 00.576-.585 1.86 1.86 0 00.206-.891c0-.342-.068-.636-.206-.882a1.46 1.46 0 00-.577-.585 1.613 1.613 0 00-.819-.207 1.542 1.542 0 00-1.395.792c-.144.246-.216.54-.216.882 0 .336.073.633.216.891a1.542 1.542 0 001.396.792zm3.67.702v-4.77h.827v1.296l-.08-.324a1.46 1.46 0 01.665-.756c.312-.174.696-.261 1.152-.261v.837a.655.655 0 00-.108-.009h-.09c-.462 0-.828.138-1.098.414-.27.276-.405.675-.405 1.197V116h-.864zm5.622 0v-.612l2.565-2.475c.228-.216.396-.405.504-.567a1.531 1.531 0 00.288-.873c0-.324-.114-.579-.342-.765-.228-.186-.561-.279-.999-.279-.336 0-.639.057-.909.171-.27.108-.504.279-.702.513l-.612-.531c.24-.306.561-.54.963-.702a3.489 3.489 0 011.341-.252c.438 0 .819.072 1.143.216.324.138.573.339.747.603.18.264.27.576.27.936 0 .204-.027.405-.081.603a2.16 2.16 0 01-.306.63c-.15.222-.366.471-.648.747l-2.286 2.205-.216-.351h3.807V116h-4.527z" fill="#274F63"/><path d="M125.762 116.072a3.7 3.7 0 01-1.332-.234 3.266 3.266 0 01-1.053-.675 3.26 3.26 0 01-.693-1.026 3.22 3.22 0 01-.252-1.287c0-.468.084-.897.252-1.287.168-.39.402-.729.702-1.017.3-.294.651-.519 1.053-.675a3.577 3.577 0 011.332-.243c.486 0 .933.084 1.341.252.414.162.765.405 1.053.729l-.585.567a2.285 2.285 0 00-.81-.558 2.461 2.461 0 00-.963-.189c-.354 0-.684.06-.99.18a2.319 2.319 0 00-1.305 1.278c-.12.294-.18.615-.18.963s.06.672.18.972a2.342 2.342 0 001.305 1.269c.306.12.636.18.99.18.342 0 .663-.06.963-.18.3-.126.57-.318.81-.576l.585.567c-.288.324-.639.57-1.053.738a3.513 3.513 0 01-1.35.252zm5.402-.018c-.48 0-.906-.105-1.278-.315a2.345 2.345 0 01-.882-.864 2.463 2.463 0 01-.324-1.26c0-.474.108-.894.324-1.26.216-.366.51-.651.882-.855.372-.21.798-.315 1.278-.315.474 0 .897.105 1.269.315a2.2 2.2 0 01.882.855c.216.36.324.78.324 1.26 0 .474-.108.894-.324 1.26-.21.366-.504.654-.882.864-.372.21-.795.315-1.269.315zm0-.756c.306 0 .579-.069.819-.207a1.46 1.46 0 00.576-.585 1.86 1.86 0 00.207-.891c0-.342-.069-.636-.207-.882a1.46 1.46 0 00-.576-.585 1.613 1.613 0 00-.819-.207 1.542 1.542 0 00-1.395.792c-.144.246-.216.54-.216.882 0 .336.072.633.216.891a1.542 1.542 0 001.395.792zm9.637-4.113c.384 0 .723.075 1.017.225.294.15.522.378.684.684.168.306.252.693.252 1.161V116h-.864v-2.646c0-.462-.108-.81-.324-1.044-.216-.234-.519-.351-.909-.351-.288 0-.54.06-.756.18-.216.12-.384.297-.504.531-.114.234-.171.525-.171.873V116h-.864v-2.646c0-.462-.108-.81-.324-1.044-.21-.234-.513-.351-.909-.351-.282 0-.531.06-.747.18-.216.12-.384.297-.504.531-.12.234-.18.525-.18.873V116h-.864v-4.77h.828v1.269l-.135-.324c.15-.312.381-.555.693-.729a2.199 2.199 0 011.089-.261c.456 0 .849.114 1.179.342.33.222.546.561.648 1.017l-.351-.144c.144-.366.396-.66.756-.882.36-.222.78-.333 1.26-.333zm6.071 4.869c-.396 0-.759-.09-1.089-.27a2.064 2.064 0 01-.783-.819c-.192-.36-.288-.81-.288-1.35s.093-.99.279-1.35c.192-.36.45-.63.774-.81.33-.18.699-.27 1.107-.27.468 0 .882.102 1.242.306.36.204.645.489.855.855.21.36.315.783.315 1.269 0 .486-.105.912-.315 1.278a2.25 2.25 0 01-.855.855c-.36.204-.774.306-1.242.306zm-2.529 1.692v-6.516h.828v1.287l-.054 1.107.09 1.107v3.015h-.864zm2.457-2.448c.306 0 .579-.069.819-.207a1.46 1.46 0 00.576-.585c.144-.258.216-.555.216-.891 0-.342-.072-.636-.216-.882a1.46 1.46 0 00-.576-.585 1.613 1.613 0 00-.819-.207c-.3 0-.573.069-.819.207-.24.138-.432.333-.576.585-.138.246-.207.54-.207.882 0 .336.069.633.207.891.144.252.336.447.576.585.246.138.519.207.819.207zm7.634.774c-.444 0-.876-.069-1.296-.207-.414-.138-.753-.324-1.017-.558l.414-.711c.21.198.483.36.819.486a3.05 3.05 0 001.08.189c.468 0 .831-.099 1.089-.297a.982.982 0 00.396-.819.956.956 0 00-.378-.792c-.246-.204-.639-.306-1.179-.306h-.504v-.63l1.872-2.304.126.36h-3.447v-.783h4.158v.612l-1.863 2.295-.468-.279h.297c.762 0 1.332.171 1.71.513.384.342.576.777.576 1.305 0 .354-.087.678-.261.972-.174.294-.438.528-.792.702-.348.168-.792.252-1.332.252z" fill="#74712E"/><path d="M133.466 149v-2.412l.207.558-2.709-4.446h.963l2.277 3.753h-.522l2.286-3.753h.891l-2.7 4.446.198-.558V149h-.891zm5.687.054c-.48 0-.906-.105-1.278-.315a2.345 2.345 0 01-.882-.864 2.463 2.463 0 01-.324-1.26c0-.474.108-.894.324-1.26.216-.366.51-.651.882-.855.372-.21.798-.315 1.278-.315.474 0 .897.105 1.269.315a2.2 2.2 0 01.882.855c.216.36.324.78.324 1.26 0 .474-.108.894-.324 1.26-.21.366-.504.654-.882.864-.372.21-.795.315-1.269.315zm0-.756c.306 0 .579-.069.819-.207a1.46 1.46 0 00.576-.585 1.86 1.86 0 00.207-.891c0-.342-.069-.636-.207-.882a1.46 1.46 0 00-.576-.585 1.613 1.613 0 00-.819-.207 1.542 1.542 0 00-1.395.792c-.144.246-.216.54-.216.882 0 .336.072.633.216.891a1.542 1.542 0 001.395.792zm5.677.756c-.408 0-.768-.075-1.08-.225a1.65 1.65 0 01-.72-.684c-.168-.312-.252-.702-.252-1.17v-2.745h.864v2.646c0 .468.111.819.333 1.053.228.234.546.351.954.351.3 0 .561-.06.783-.18.222-.126.393-.306.513-.54.12-.24.18-.528.18-.864v-2.466h.864V149h-.819v-1.287l.135.342c-.156.318-.39.564-.702.738a2.125 2.125 0 01-1.053.261z" fill="#454545"/><circle cx="49" cy="88" r="1" fill="#52BEF3"/><circle cx="68" cy="74" r="1" fill="#52BEF3"/><circle cx="82" cy="82" r="1" fill="#52BEF3"/><circle cx="104" cy="55" r="1" fill="#52BEF3"/><circle cx="126" cy="94" r="1" fill="#F28100"/><circle cx="62" cy="135" r="1" fill="#F13434"/><circle cx="79" cy="133" r="1" fill="#F13434"/><circle cx="86" cy="135" r="1" fill="#F13434"/><circle cx="134" cy="80" r="1" fill="#F28100"/><circle cx="139" cy="88" r="1" fill="#F28100"/><circle cx="153" cy="48" r="1" fill="#F28100"/></g><rect x="36.4" y="36.4" width="127.2" height="127.2" rx="5.6" stroke="#DDDDE6" stroke-width="1.2"/><path d="M16.892 158.903v-.747h2.42v.747h-2.42zM21.16 161v-5.94l.387.423h-1.809v-.783h2.313v6.3h-.891zm4.843.072c-.492 0-.933-.126-1.323-.378-.384-.252-.69-.618-.918-1.098-.222-.48-.333-1.062-.333-1.746 0-.684.111-1.266.333-1.746.228-.48.534-.846.918-1.098.39-.252.831-.378 1.323-.378.486 0 .924.126 1.314.378s.696.618.918 1.098c.222.48.333 1.062.333 1.746 0 .684-.11 1.266-.333 1.746-.222.48-.528.846-.918 1.098a2.37 2.37 0 01-1.314.378zm0-.801c.33 0 .618-.09.864-.27.252-.18.447-.45.585-.81.144-.36.216-.807.216-1.341 0-.534-.072-.981-.216-1.341-.138-.36-.333-.63-.585-.81a1.424 1.424 0 00-.864-.27c-.33 0-.62.09-.873.27-.252.18-.45.45-.594.81-.138.36-.207.807-.207 1.341 0 .534.07.981.207 1.341.144.36.342.63.594.81.252.18.543.27.873.27zm62.51 16.632v-.747h2.421v.747h-2.421zM92.781 179v-5.94l.387.423H91.36v-.783h2.313v6.3h-.89zm4.843.072c-.492 0-.933-.126-1.323-.378-.384-.252-.69-.618-.918-1.098-.222-.48-.333-1.062-.333-1.746 0-.684.111-1.266.333-1.746.228-.48.534-.846.918-1.098.39-.252.831-.378 1.323-.378.486 0 .924.126 1.314.378s.696.618.918 1.098c.222.48.333 1.062.333 1.746 0 .684-.111 1.266-.333 1.746-.222.48-.528.846-.918 1.098a2.37 2.37 0 01-1.314.378zm0-.801c.33 0 .618-.09.864-.27.252-.18.447-.45.585-.81.144-.36.216-.807.216-1.341 0-.534-.072-.981-.216-1.341-.138-.36-.333-.63-.585-.81a1.424 1.424 0 00-.864-.27c-.33 0-.62.09-.873.27-.252.18-.45.45-.594.81-.138.36-.207.807-.207 1.341 0 .534.07.981.207 1.341.144.36.342.63.594.81.252.18.543.27.873.27zm-71.621-46.199c-.492 0-.933-.126-1.323-.378-.384-.252-.69-.618-.918-1.098-.222-.48-.333-1.062-.333-1.746 0-.684.111-1.266.333-1.746.228-.48.534-.846.918-1.098.39-.252.831-.378 1.323-.378.486 0 .924.126 1.314.378s.696.618.918 1.098c.222.48.333 1.062.333 1.746 0 .684-.11 1.266-.333 1.746-.222.48-.528.846-.918 1.098a2.37 2.37 0 01-1.314.378zm0-.801c.33 0 .618-.09.864-.27.252-.18.447-.45.585-.81.144-.36.216-.807.216-1.341 0-.534-.072-.981-.216-1.341-.138-.36-.333-.63-.585-.81a1.424 1.424 0 00-.864-.27c-.33 0-.62.09-.873.27-.252.18-.45.45-.594.81-.138.36-.207.807-.207 1.341 0 .534.07.981.207 1.341.144.36.342.63.594.81.252.18.543.27.873.27zm38.51 45.632v-.747h2.421v.747h-2.421zM68.781 179v-5.94l.387.423H67.36v-.783h2.313v6.3h-.89zm4.303.072c-.444 0-.876-.069-1.296-.207-.414-.138-.753-.324-1.017-.558l.414-.711c.21.198.483.36.82.486.335.126.692.189 1.07.189.48 0 .85-.102 1.107-.306a.99.99 0 00.387-.819c0-.234-.057-.438-.17-.612-.115-.174-.313-.306-.595-.396-.276-.096-.657-.144-1.143-.144h-1.43l.332-3.294h3.555v.783h-3.222l.468-.441-.26 2.601-.469-.432h1.215c.63 0 1.137.081 1.521.243.384.162.663.387.837.675.174.282.261.609.261.981 0 .36-.087.69-.26.99-.175.294-.439.531-.793.711-.348.174-.792.261-1.332.261zM21.16 103v-5.94l.387.423h-1.809V96.7h2.313v6.3h-.891zm4.843.072c-.492 0-.933-.126-1.323-.378-.384-.252-.69-.618-.918-1.098-.222-.48-.333-1.062-.333-1.746 0-.684.111-1.266.333-1.746.228-.48.534-.846.918-1.098.39-.252.831-.378 1.323-.378.486 0 .924.126 1.314.378s.696.618.918 1.098c.222.48.333 1.062.333 1.746 0 .684-.11 1.266-.333 1.746-.222.48-.528.846-.918 1.098a2.37 2.37 0 01-1.314.378zm0-.801c.33 0 .618-.09.864-.27.252-.18.447-.45.585-.81.144-.36.216-.807.216-1.341 0-.534-.072-.981-.216-1.341-.138-.36-.333-.63-.585-.81a1.424 1.424 0 00-.864-.27c-.33 0-.62.09-.873.27-.252.18-.45.45-.594.81-.138.36-.207.807-.207 1.341 0 .534.07.981.207 1.341.144.36.342.63.594.81.252.18.543.27.873.27zm90.003 76.801c-.492 0-.933-.126-1.323-.378-.384-.252-.69-.618-.918-1.098-.222-.48-.333-1.062-.333-1.746 0-.684.111-1.266.333-1.746.228-.48.534-.846.918-1.098.39-.252.831-.378 1.323-.378.486 0 .924.126 1.314.378s.696.618.918 1.098c.222.48.333 1.062.333 1.746 0 .684-.111 1.266-.333 1.746-.222.48-.528.846-.918 1.098a2.37 2.37 0 01-1.314.378zm0-.801c.33 0 .618-.09.864-.27.252-.18.447-.45.585-.81.144-.36.216-.807.216-1.341 0-.534-.072-.981-.216-1.341-.138-.36-.333-.63-.585-.81a1.424 1.424 0 00-.864-.27c-.33 0-.621.09-.873.27-.252.18-.45.45-.594.81-.138.36-.207.807-.207 1.341 0 .534.069.981.207 1.341.144.36.342.63.594.81.252.18.543.27.873.27zM21.995 74v-5.94l.387.423h-1.809V67.7h2.313V74h-.891zm4.303.072c-.444 0-.876-.069-1.296-.207-.414-.138-.753-.324-1.017-.558l.414-.711c.21.198.483.36.819.486.336.126.693.189 1.071.189.48 0 .849-.102 1.107-.306a.99.99 0 00.387-.819c0-.234-.057-.438-.171-.612-.114-.174-.312-.306-.594-.396-.276-.096-.657-.144-1.143-.144h-1.431l.333-3.294h3.555v.783H25.11l.468-.441-.261 2.601-.468-.432h1.215c.63 0 1.137.081 1.521.243.384.162.663.387.837.675.174.282.261.609.261.981 0 .36-.087.69-.261.99-.174.294-.438.531-.792.711-.348.174-.792.261-1.332.261zm11.215 102.831v-.747h2.421v.747h-2.421zM40.664 179v-.612l2.565-2.475c.228-.216.396-.405.504-.567a1.531 1.531 0 00.288-.873c0-.324-.114-.579-.342-.765-.228-.186-.56-.279-.999-.279-.336 0-.639.057-.909.171-.27.108-.504.279-.702.513l-.612-.531c.24-.306.561-.54.963-.702a3.489 3.489 0 011.341-.252c.438 0 .82.072 1.143.216.324.138.573.339.747.603.18.264.27.576.27.936 0 .204-.027.405-.08.603a2.16 2.16 0 01-.307.63c-.15.222-.366.471-.648.747l-2.286 2.205-.216-.351h3.807V179h-4.527zm7.832.072c-.492 0-.933-.126-1.323-.378-.384-.252-.69-.618-.918-1.098-.222-.48-.333-1.062-.333-1.746 0-.684.111-1.266.333-1.746.228-.48.534-.846.918-1.098.39-.252.831-.378 1.323-.378.486 0 .924.126 1.314.378s.696.618.918 1.098c.222.48.333 1.062.333 1.746 0 .684-.11 1.266-.333 1.746-.222.48-.528.846-.918 1.098a2.37 2.37 0 01-1.314.378zm0-.801c.33 0 .618-.09.864-.27.252-.18.447-.45.585-.81.144-.36.216-.807.216-1.341 0-.534-.072-.981-.216-1.341-.138-.36-.333-.63-.585-.81a1.424 1.424 0 00-.864-.27c-.33 0-.62.09-.873.27-.252.18-.45.45-.594.81-.138.36-.207.807-.207 1.341 0 .534.07.981.207 1.341.144.36.342.63.594.81.252.18.543.27.873.27zM18.17 45v-.612l2.566-2.475c.228-.216.396-.405.504-.567a1.531 1.531 0 00.288-.873c0-.324-.114-.579-.342-.765-.228-.186-.561-.279-1-.279-.335 0-.638.057-.908.171-.27.108-.504.279-.702.513l-.612-.531c.24-.306.56-.54.963-.702a3.489 3.489 0 011.34-.252c.439 0 .82.072 1.144.216.324.138.573.339.747.603.18.264.27.576.27.936 0 .204-.027.405-.081.603a2.16 2.16 0 01-.306.63c-.15.222-.366.471-.648.747l-2.286 2.205-.216-.351h3.807V45H18.17zm7.833.072c-.492 0-.933-.126-1.323-.378-.384-.252-.69-.618-.918-1.098-.222-.48-.333-1.062-.333-1.746 0-.684.111-1.266.333-1.746.228-.48.534-.846.918-1.098.39-.252.831-.378 1.323-.378.486 0 .924.126 1.314.378s.696.618.918 1.098c.222.48.333 1.062.333 1.746 0 .684-.11 1.266-.333 1.746-.222.48-.528.846-.918 1.098a2.37 2.37 0 01-1.314.378zm0-.801c.33 0 .618-.09.864-.27.252-.18.447-.45.585-.81.144-.36.216-.807.216-1.341 0-.534-.072-.981-.216-1.341-.138-.36-.333-.63-.585-.81a1.424 1.424 0 00-.864-.27c-.33 0-.62.09-.873.27-.252.18-.45.45-.594.81-.138.36-.207.807-.207 1.341 0 .534.07.981.207 1.341.144.36.342.63.594.81.252.18.543.27.873.27zM155.494 179v-5.94l.387.423h-1.809v-.783h2.313v6.3h-.891zm4.843.072c-.492 0-.933-.126-1.323-.378-.384-.252-.69-.618-.918-1.098-.222-.48-.333-1.062-.333-1.746 0-.684.111-1.266.333-1.746.228-.48.534-.846.918-1.098.39-.252.831-.378 1.323-.378.486 0 .924.126 1.314.378s.696.618.918 1.098c.222.48.333 1.062.333 1.746 0 .684-.111 1.266-.333 1.746-.222.48-.528.846-.918 1.098a2.37 2.37 0 01-1.314.378zm0-.801c.33 0 .618-.09.864-.27.252-.18.447-.45.585-.81.144-.36.216-.807.216-1.341 0-.534-.072-.981-.216-1.341-.138-.36-.333-.63-.585-.81a1.424 1.424 0 00-.864-.27c-.33 0-.621.09-.873.27-.252.18-.45.45-.594.81-.138.36-.207.807-.207 1.341 0 .534.069.981.207 1.341.144.36.342.63.594.81.252.18.543.27.873.27z" fill="#DDDDE6"/><defs><clipPath id="clip0_184_210"><rect x="37" y="37" width="126" height="126" rx="5" fill="#fff"/></clipPath></defs></svg>