<svg width="200" height="200" fill="none" xmlns="http://www.w3.org/2000/svg"><rect width="200" height="200" rx="15" fill="#fff"/><path d="M21.254 147v-7.7h2.882c.653 0 1.214.106 1.683.319.47.205.829.506 1.078.902.257.389.385.862.385 1.419 0 .543-.128 1.012-.385 1.408-.25.389-.609.689-1.078.902-.47.213-1.03.319-1.683.319h-2.431l.363-.385V147h-.814zm.814-2.75l-.363-.396h2.409c.77 0 1.353-.165 1.749-.495.403-.337.605-.81.605-1.419 0-.616-.202-1.093-.605-1.43-.396-.337-.979-.506-1.749-.506h-2.409l.363-.385v4.631zm6.67 2.75v-5.775h.747v1.573l-.077-.275a1.88 1.88 0 01.814-1.001c.382-.235.855-.352 1.42-.352v.759h-.089a.378.378 0 00-.088-.011c-.608 0-1.085.187-1.43.561-.344.367-.517.891-.517 1.573V147h-.78zm6.629.055c-.557 0-1.06-.125-1.507-.374a2.86 2.86 0 01-1.045-1.045c-.257-.447-.385-.957-.385-1.529 0-.579.128-1.089.385-1.529.257-.44.605-.785 1.045-1.034.44-.249.942-.374 1.507-.374.572 0 1.078.125 1.518.374a2.67 2.67 0 011.045 1.034c.257.44.385.95.385 1.529 0 .572-.128 1.082-.385 1.529a2.76 2.76 0 01-1.045 1.045 3.068 3.068 0 01-1.518.374zm0-.693c.418 0 .788-.092 1.11-.275.324-.191.577-.455.76-.792.19-.345.286-.741.286-1.188 0-.455-.096-.851-.286-1.188a1.946 1.946 0 00-.76-.781 2.118 2.118 0 00-1.1-.286c-.41 0-.777.095-1.1.286a2.035 2.035 0 00-.77.781c-.19.337-.285.733-.285 1.188 0 .447.095.843.286 1.188a2.1 2.1 0 00.77.792c.322.183.686.275 1.089.275zm6.841.693c-.55 0-1.045-.125-1.485-.374a2.714 2.714 0 01-1.023-1.034c-.249-.447-.374-.961-.374-1.54 0-.587.125-1.1.374-1.54.25-.44.59-.781 1.023-1.023.44-.249.935-.374 1.485-.374.506 0 .957.114 1.353.341.404.227.723.561.957 1.001.242.433.363.964.363 1.595 0 .623-.117 1.155-.352 1.595-.234.44-.553.777-.957 1.012-.396.227-.85.341-1.364.341zm.055-.693c.411 0 .778-.092 1.1-.275.33-.191.587-.455.77-.792.191-.345.286-.741.286-1.188 0-.455-.095-.851-.286-1.188a1.926 1.926 0 00-.77-.781 2.118 2.118 0 00-1.1-.286c-.403 0-.766.095-1.089.286a2.028 2.028 0 00-.77.781c-.19.337-.286.733-.286 1.188 0 .447.096.843.286 1.188.191.337.448.601.77.792.323.183.686.275 1.09.275zm2.178.638v-1.738l.077-1.166-.11-1.166v-4.092h.781V147h-.748zm5.31.055c-.49 0-.92-.092-1.287-.275a1.977 1.977 0 01-.858-.825c-.198-.367-.297-.825-.297-1.375v-3.355h.781v3.267c0 .616.15 1.082.451 1.397.308.308.737.462 1.287.462.404 0 .752-.081 1.045-.242.301-.169.528-.411.682-.726.162-.315.242-.693.242-1.133v-3.025h.781V147h-.748v-1.584l.121.286a2.155 2.155 0 01-.858 1.001c-.38.235-.828.352-1.342.352zm7.402 0a3.153 3.153 0 01-1.54-.374 2.835 2.835 0 01-1.056-1.045c-.257-.447-.385-.957-.385-1.529 0-.579.128-1.089.385-1.529.257-.44.609-.785 1.056-1.034a3.153 3.153 0 011.54-.374c.491 0 .935.095 1.331.286.396.191.708.477.935.858l-.583.396a1.833 1.833 0 00-.737-.649 2.206 2.206 0 00-.957-.209c-.41 0-.781.095-1.111.286a2 2 0 00-.781.781c-.19.337-.286.733-.286 1.188 0 .455.095.851.286 1.188.19.337.451.601.781.792.33.183.7.275 1.111.275.345 0 .664-.07.957-.209a1.86 1.86 0 00.737-.638l.583.396c-.227.374-.539.66-.935.858-.396.191-.84.286-1.331.286zm5.69 0c-.542 0-.96-.147-1.253-.44-.294-.293-.44-.708-.44-1.243v-5.423h.78v5.379c0 .337.085.598.254.781.176.183.425.275.748.275.344 0 .63-.099.858-.297l.275.561a1.443 1.443 0 01-.561.308 2.214 2.214 0 01-.66.099zm-2.727-5.181v-.649h3.575v.649h-3.575zm10.163 5.192c-.55 0-1.074-.088-1.573-.264-.498-.183-.894-.425-1.188-.726l.385-.627c.242.257.572.469.99.638.426.169.884.253 1.375.253.653 0 1.148-.143 1.485-.429.345-.293.517-.675.517-1.144 0-.33-.08-.612-.242-.847-.154-.242-.418-.429-.792-.561-.374-.132-.887-.198-1.54-.198h-1.639l.396-3.861h4.213v.704h-3.894l.407-.385-.34 3.234-.408-.396h1.441c.778 0 1.401.095 1.87.286.47.191.807.458 1.012.803.213.337.32.733.32 1.188 0 .433-.103.829-.309 1.188-.205.352-.513.631-.924.836-.41.205-.931.308-1.562.308zM21.254 175v-7.7h2.882c.653 0 1.214.106 1.683.319.47.205.829.506 1.078.902.257.389.385.862.385 1.419 0 .543-.128 1.012-.385 1.408-.25.389-.609.689-1.078.902-.47.213-1.03.319-1.683.319h-2.431l.363-.385V175h-.814zm.814-2.75l-.363-.396h2.409c.77 0 1.353-.165 1.749-.495.403-.337.605-.81.605-1.419 0-.616-.202-1.093-.605-1.43-.396-.337-.979-.506-1.749-.506h-2.409l.363-.385v4.631zm6.67 2.75v-5.775h.747v1.573l-.077-.275a1.88 1.88 0 01.814-1.001c.382-.235.855-.352 1.42-.352v.759h-.089a.378.378 0 00-.088-.011c-.608 0-1.085.187-1.43.561-.344.367-.517.891-.517 1.573V175h-.78zm6.629.055c-.557 0-1.06-.125-1.507-.374a2.86 2.86 0 01-1.045-1.045c-.257-.447-.385-.957-.385-1.529 0-.579.128-1.089.385-1.529.257-.44.605-.785 1.045-1.034.44-.249.942-.374 1.507-.374.572 0 1.078.125 1.518.374a2.67 2.67 0 011.045 1.034c.257.44.385.95.385 1.529 0 .572-.128 1.082-.385 1.529a2.76 2.76 0 01-1.045 1.045 3.068 3.068 0 01-1.518.374zm0-.693c.418 0 .788-.092 1.11-.275.324-.191.577-.455.76-.792.19-.345.286-.741.286-1.188 0-.455-.096-.851-.286-1.188a1.946 1.946 0 00-.76-.781 2.118 2.118 0 00-1.1-.286c-.41 0-.777.095-1.1.286a2.035 2.035 0 00-.77.781c-.19.337-.285.733-.285 1.188 0 .447.095.843.286 1.188a2.1 2.1 0 00.77.792c.322.183.686.275 1.089.275zm6.841.693c-.55 0-1.045-.125-1.485-.374a2.714 2.714 0 01-1.023-1.034c-.249-.447-.374-.961-.374-1.54 0-.587.125-1.1.374-1.54.25-.44.59-.781 1.023-1.023.44-.249.935-.374 1.485-.374.506 0 .957.114 1.353.341.404.227.723.561.957 1.001.242.433.363.964.363 1.595 0 .623-.117 1.155-.352 1.595-.234.44-.553.777-.957 1.012-.396.227-.85.341-1.364.341zm.055-.693c.411 0 .778-.092 1.1-.275.33-.191.587-.455.77-.792.191-.345.286-.741.286-1.188 0-.455-.095-.851-.286-1.188a1.926 1.926 0 00-.77-.781 2.118 2.118 0 00-1.1-.286c-.403 0-.766.095-1.089.286a2.028 2.028 0 00-.77.781c-.19.337-.286.733-.286 1.188 0 .447.096.843.286 1.188.191.337.448.601.77.792.323.183.686.275 1.09.275zm2.178.638v-1.738l.077-1.166-.11-1.166v-4.092h.781V175h-.748zm5.31.055c-.49 0-.92-.092-1.287-.275a1.977 1.977 0 01-.858-.825c-.198-.367-.297-.825-.297-1.375v-3.355h.781v3.267c0 .616.15 1.082.451 1.397.308.308.737.462 1.287.462.404 0 .752-.081 1.045-.242.301-.169.528-.411.682-.726.162-.315.242-.693.242-1.133v-3.025h.781V175h-.748v-1.584l.121.286a2.155 2.155 0 01-.858 1.001c-.38.235-.828.352-1.342.352zm7.402 0a3.153 3.153 0 01-1.54-.374 2.835 2.835 0 01-1.056-1.045c-.257-.447-.385-.957-.385-1.529 0-.579.128-1.089.385-1.529.257-.44.609-.785 1.056-1.034a3.153 3.153 0 011.54-.374c.491 0 .935.095 1.331.286.396.191.708.477.935.858l-.583.396a1.833 1.833 0 00-.737-.649 2.206 2.206 0 00-.957-.209c-.41 0-.781.095-1.111.286a2 2 0 00-.781.781c-.19.337-.286.733-.286 1.188 0 .455.095.851.286 1.188.19.337.451.601.781.792.33.183.7.275 1.111.275.345 0 .664-.07.957-.209a1.86 1.86 0 00.737-.638l.583.396c-.227.374-.539.66-.935.858-.396.191-.84.286-1.331.286zm5.69 0c-.542 0-.96-.147-1.253-.44-.294-.293-.44-.708-.44-1.243v-5.423h.78v5.379c0 .337.085.598.254.781.176.183.425.275.748.275.344 0 .63-.099.858-.297l.275.561a1.443 1.443 0 01-.561.308 2.214 2.214 0 01-.66.099zm-2.727-5.181v-.649h3.575v.649h-3.575zm10.89 5.192c-.683 0-1.258-.15-1.728-.451-.469-.308-.825-.748-1.067-1.32-.242-.579-.363-1.272-.363-2.079 0-.873.147-1.602.44-2.189.301-.594.715-1.041 1.243-1.342.528-.301 1.14-.451 1.837-.451.345 0 .675.033.99.099.316.066.594.172.836.319l-.319.638a1.875 1.875 0 00-.682-.275 3.625 3.625 0 00-.814-.088c-.828 0-1.492.264-1.99.792-.492.528-.738 1.316-.738 2.365 0 .161.008.363.022.605.022.235.066.469.132.704l-.275-.209c.081-.381.239-.704.473-.968.235-.271.528-.477.88-.616a3.118 3.118 0 011.155-.209c.514 0 .965.095 1.353.286.389.191.693.458.913.803.22.345.33.752.33 1.221 0 .477-.113.895-.34 1.254a2.31 2.31 0 01-.947.825 3.05 3.05 0 01-1.342.286zm-.034-.671c.367 0 .69-.066.968-.198.286-.139.51-.334.671-.583a1.64 1.64 0 00.242-.891c0-.506-.176-.909-.528-1.21-.344-.301-.814-.451-1.408-.451-.396 0-.74.073-1.034.22a1.74 1.74 0 00-.693.605 1.493 1.493 0 00-.253.858c0 .279.077.546.231.803.154.249.382.455.682.616.308.154.682.231 1.122.231zM21.254 119v-7.7h2.882c.653 0 1.214.106 1.683.319.47.205.829.506 1.078.902.257.389.385.862.385 1.419 0 .543-.128 1.012-.385 1.408-.25.389-.609.689-1.078.902-.47.213-1.03.319-1.683.319h-2.431l.363-.385V119h-.814zm.814-2.75l-.363-.396h2.409c.77 0 1.353-.165 1.749-.495.403-.337.605-.81.605-1.419 0-.616-.202-1.093-.605-1.43-.396-.337-.979-.506-1.749-.506h-2.409l.363-.385v4.631zm6.67 2.75v-5.775h.747v1.573l-.077-.275a1.88 1.88 0 01.814-1.001c.382-.235.855-.352 1.42-.352v.759h-.089a.378.378 0 00-.088-.011c-.608 0-1.085.187-1.43.561-.344.367-.517.891-.517 1.573V119h-.78zm6.629.055c-.557 0-1.06-.125-1.507-.374a2.86 2.86 0 01-1.045-1.045c-.257-.447-.385-.957-.385-1.529 0-.579.128-1.089.385-1.529.257-.44.605-.785 1.045-1.034.44-.249.942-.374 1.507-.374.572 0 1.078.125 1.518.374a2.67 2.67 0 011.045 1.034c.257.44.385.95.385 1.529 0 .572-.128 1.082-.385 1.529a2.76 2.76 0 01-1.045 1.045 3.068 3.068 0 01-1.518.374zm0-.693c.418 0 .788-.092 1.11-.275.324-.191.577-.455.76-.792.19-.345.286-.741.286-1.188 0-.455-.096-.851-.286-1.188a1.946 1.946 0 00-.76-.781 2.118 2.118 0 00-1.1-.286c-.41 0-.777.095-1.1.286a2.035 2.035 0 00-.77.781c-.19.337-.285.733-.285 1.188 0 .447.095.843.286 1.188a2.1 2.1 0 00.77.792c.322.183.686.275 1.089.275zm6.841.693c-.55 0-1.045-.125-1.485-.374a2.714 2.714 0 01-1.023-1.034c-.249-.447-.374-.961-.374-1.54 0-.587.125-1.1.374-1.54.25-.44.59-.781 1.023-1.023.44-.249.935-.374 1.485-.374.506 0 .957.114 1.353.341.404.227.723.561.957 1.001.242.433.363.964.363 1.595 0 .623-.117 1.155-.352 1.595-.234.44-.553.777-.957 1.012-.396.227-.85.341-1.364.341zm.055-.693c.411 0 .778-.092 1.1-.275.33-.191.587-.455.77-.792.191-.345.286-.741.286-1.188 0-.455-.095-.851-.286-1.188a1.926 1.926 0 00-.77-.781 2.118 2.118 0 00-1.1-.286c-.403 0-.766.095-1.089.286a2.028 2.028 0 00-.77.781c-.19.337-.286.733-.286 1.188 0 .447.096.843.286 1.188.191.337.448.601.77.792.323.183.686.275 1.09.275zm2.178.638v-1.738l.077-1.166-.11-1.166v-4.092h.781V119h-.748zm5.31.055c-.49 0-.92-.092-1.287-.275a1.977 1.977 0 01-.858-.825c-.198-.367-.297-.825-.297-1.375v-3.355h.781v3.267c0 .616.15 1.082.451 1.397.308.308.737.462 1.287.462.404 0 .752-.081 1.045-.242.301-.169.528-.411.682-.726.162-.315.242-.693.242-1.133v-3.025h.781V119h-.748v-1.584l.121.286a2.155 2.155 0 01-.858 1.001c-.38.235-.828.352-1.342.352zm7.402 0a3.153 3.153 0 01-1.54-.374 2.835 2.835 0 01-1.056-1.045c-.257-.447-.385-.957-.385-1.529 0-.579.128-1.089.385-1.529.257-.44.609-.785 1.056-1.034a3.153 3.153 0 011.54-.374c.491 0 .935.095 1.331.286.396.191.708.477.935.858l-.583.396a1.833 1.833 0 00-.737-.649 2.206 2.206 0 00-.957-.209c-.41 0-.781.095-1.111.286a2 2 0 00-.781.781c-.19.337-.286.733-.286 1.188 0 .455.095.851.286 1.188.19.337.451.601.781.792.33.183.7.275 1.111.275.345 0 .664-.07.957-.209a1.86 1.86 0 00.737-.638l.583.396c-.227.374-.539.66-.935.858-.396.191-.84.286-1.331.286zm5.69 0c-.542 0-.96-.147-1.253-.44-.294-.293-.44-.708-.44-1.243v-5.423h.78v5.379c0 .337.085.598.254.781.176.183.425.275.748.275.344 0 .63-.099.858-.297l.275.561a1.443 1.443 0 01-.561.308 2.214 2.214 0 01-.66.099zm-2.727-5.181v-.649h3.575v.649h-3.575zm7.6 3.102v-.572l4.081-5.104h.88l-4.048 5.104-.429-.132h6.193v.704h-6.677zM72.061 119v-2.024l.022-.704v-1.782h.77V119h-.792zM21.254 91v-7.7h2.882c.653 0 1.214.106 1.683.319.47.205.829.506 1.078.902.257.389.385.862.385 1.419 0 .543-.128 1.012-.385 1.408-.25.389-.609.69-1.078.902-.47.213-1.03.319-1.683.319h-2.431l.363-.385V91h-.814zm.814-2.75l-.363-.396h2.409c.77 0 1.353-.165 1.749-.495.403-.337.605-.81.605-1.419 0-.616-.202-1.093-.605-1.43-.396-.337-.979-.506-1.749-.506h-2.409l.363-.385v4.631zm6.67 2.75v-5.775h.747v1.573l-.077-.275a1.88 1.88 0 01.814-1.001c.382-.235.855-.352 1.42-.352v.759h-.089a.363.363 0 00-.088-.011c-.608 0-1.085.187-1.43.561-.344.367-.517.891-.517 1.573V91h-.78zm6.629.055c-.557 0-1.06-.125-1.507-.374a2.857 2.857 0 01-1.045-1.045 3.017 3.017 0 01-.385-1.529c0-.58.128-1.089.385-1.529.257-.44.605-.785 1.045-1.034.44-.25.942-.374 1.507-.374.572 0 1.078.125 1.518.374.447.25.796.594 1.045 1.034.257.44.385.95.385 1.529 0 .572-.128 1.082-.385 1.529a2.75 2.75 0 01-1.045 1.045c-.447.25-.953.374-1.518.374zm0-.693a2.21 2.21 0 001.11-.275c.324-.19.577-.455.76-.792.19-.345.286-.74.286-1.188 0-.455-.096-.85-.286-1.188a1.946 1.946 0 00-.76-.781 2.12 2.12 0 00-1.1-.286c-.41 0-.777.095-1.1.286a2.035 2.035 0 00-.77.781c-.19.337-.285.733-.285 1.188 0 .447.095.843.286 1.188a2.1 2.1 0 00.77.792c.322.183.686.275 1.089.275zm6.841.693a2.96 2.96 0 01-1.485-.374 2.716 2.716 0 01-1.023-1.034c-.249-.447-.374-.96-.374-1.54 0-.587.125-1.1.374-1.54.25-.44.59-.781 1.023-1.023a2.96 2.96 0 011.485-.374c.506 0 .957.114 1.353.341.404.227.723.561.957 1.001.242.433.363.964.363 1.595 0 .623-.117 1.155-.352 1.595-.234.44-.553.777-.957 1.012a2.69 2.69 0 01-1.364.341zm.055-.693c.411 0 .778-.092 1.1-.275a2 2 0 00.77-.792c.191-.345.286-.74.286-1.188 0-.455-.095-.85-.286-1.188a1.926 1.926 0 00-.77-.781 2.12 2.12 0 00-1.1-.286 2.1 2.1 0 00-1.089.286 2.028 2.028 0 00-.77.781c-.19.337-.286.733-.286 1.188 0 .447.096.843.286 1.188.191.337.448.601.77.792.323.183.686.275 1.09.275zm2.178.638v-1.738l.077-1.166-.11-1.166v-4.092h.781V91h-.748zm5.31.055c-.49 0-.92-.092-1.287-.275a1.98 1.98 0 01-.858-.825c-.198-.367-.297-.825-.297-1.375v-3.355h.781v3.267c0 .616.15 1.082.451 1.397.308.308.737.462 1.287.462.404 0 .752-.08 1.045-.242a1.63 1.63 0 00.682-.726c.162-.315.242-.693.242-1.133v-3.025h.781V91h-.748v-1.584l.121.286a2.155 2.155 0 01-.858 1.001c-.38.235-.828.352-1.342.352zm7.402 0a3.15 3.15 0 01-1.54-.374 2.833 2.833 0 01-1.056-1.045c-.257-.447-.385-.957-.385-1.529 0-.58.128-1.089.385-1.529.257-.44.609-.785 1.056-1.034a3.15 3.15 0 011.54-.374c.491 0 .935.095 1.331.286.396.19.708.477.935.858l-.583.396a1.833 1.833 0 00-.737-.649 2.202 2.202 0 00-.957-.209c-.41 0-.781.095-1.111.286a2 2 0 00-.781.781c-.19.337-.286.733-.286 1.188 0 .455.095.85.286 1.188.19.337.451.601.781.792.33.183.7.275 1.111.275.345 0 .664-.07.957-.209a1.86 1.86 0 00.737-.638l.583.396c-.227.374-.539.66-.935.858a3.04 3.04 0 01-1.331.286zm5.69 0c-.542 0-.96-.147-1.253-.44-.294-.293-.44-.708-.44-1.243v-5.423h.78v5.379c0 .337.085.598.254.781.176.183.425.275.748.275.344 0 .63-.099.858-.297l.275.561a1.43 1.43 0 01-.561.308 2.214 2.214 0 01-.66.099zm-2.727-5.181v-.649h3.575v.649h-3.575zm10.031 5.192a4.724 4.724 0 01-1.584-.264c-.491-.183-.887-.425-1.188-.726l.385-.627c.25.257.583.47 1.001.638.426.169.888.253 1.386.253.638 0 1.126-.14 1.463-.418.345-.279.517-.653.517-1.122 0-.47-.168-.843-.506-1.122-.33-.279-.854-.418-1.573-.418h-.55v-.583l2.376-2.981.11.308h-4.29V83.3h4.95v.561l-2.376 2.981-.385-.253h.297c.924 0 1.614.205 2.068.616.462.41.693.939.693 1.584 0 .433-.102.821-.308 1.166-.205.345-.517.616-.935.814-.41.198-.927.297-1.55.297zM21.254 63v-7.7h2.882c.653 0 1.214.106 1.683.319.47.205.829.506 1.078.902.257.389.385.862.385 1.419 0 .543-.128 1.012-.385 1.408-.25.389-.609.69-1.078.902-.47.213-1.03.319-1.683.319h-2.431l.363-.385V63h-.814zm.814-2.75l-.363-.396h2.409c.77 0 1.353-.165 1.749-.495.403-.337.605-.81.605-1.419 0-.616-.202-1.093-.605-1.43-.396-.337-.979-.506-1.749-.506h-2.409l.363-.385v4.631zm6.67 2.75v-5.775h.747v1.573l-.077-.275a1.88 1.88 0 01.814-1.001c.382-.235.855-.352 1.42-.352v.759h-.089a.363.363 0 00-.088-.011c-.608 0-1.085.187-1.43.561-.344.367-.517.891-.517 1.573V63h-.78zm6.629.055c-.557 0-1.06-.125-1.507-.374a2.857 2.857 0 01-1.045-1.045 3.017 3.017 0 01-.385-1.529c0-.58.128-1.089.385-1.529.257-.44.605-.785 1.045-1.034.44-.25.942-.374 1.507-.374.572 0 1.078.125 1.518.374.447.25.796.594 1.045 1.034.257.44.385.95.385 1.529 0 .572-.128 1.082-.385 1.529a2.75 2.75 0 01-1.045 1.045c-.447.25-.953.374-1.518.374zm0-.693a2.21 2.21 0 001.11-.275c.324-.19.577-.455.76-.792.19-.345.286-.74.286-1.188 0-.455-.096-.85-.286-1.188a1.946 1.946 0 00-.76-.781 2.12 2.12 0 00-1.1-.286c-.41 0-.777.095-1.1.286a2.035 2.035 0 00-.77.781c-.19.337-.285.733-.285 1.188 0 .447.095.843.286 1.188a2.1 2.1 0 00.77.792c.322.183.686.275 1.089.275zm6.841.693a2.96 2.96 0 01-1.485-.374 2.716 2.716 0 01-1.023-1.034c-.249-.447-.374-.96-.374-1.54 0-.587.125-1.1.374-1.54.25-.44.59-.781 1.023-1.023a2.96 2.96 0 011.485-.374c.506 0 .957.114 1.353.341.404.227.723.561.957 1.001.242.433.363.964.363 1.595 0 .623-.117 1.155-.352 1.595-.234.44-.553.777-.957 1.012a2.69 2.69 0 01-1.364.341zm.055-.693c.411 0 .778-.092 1.1-.275a2 2 0 00.77-.792c.191-.345.286-.74.286-1.188 0-.455-.095-.85-.286-1.188a1.926 1.926 0 00-.77-.781 2.12 2.12 0 00-1.1-.286 2.1 2.1 0 00-1.089.286 2.028 2.028 0 00-.77.781c-.19.337-.286.733-.286 1.188 0 .447.096.843.286 1.188.191.337.448.601.77.792.323.183.686.275 1.09.275zm2.178.638v-1.738l.077-1.166-.11-1.166v-4.092h.781V63h-.748zm5.31.055c-.49 0-.92-.092-1.287-.275a1.98 1.98 0 01-.858-.825c-.198-.367-.297-.825-.297-1.375v-3.355h.781v3.267c0 .616.15 1.082.451 1.397.308.308.737.462 1.287.462.404 0 .752-.08 1.045-.242a1.63 1.63 0 00.682-.726c.162-.315.242-.693.242-1.133v-3.025h.781V63h-.748v-1.584l.121.286a2.155 2.155 0 01-.858 1.001c-.38.235-.828.352-1.342.352zm7.402 0a3.15 3.15 0 01-1.54-.374 2.833 2.833 0 01-1.056-1.045c-.257-.447-.385-.957-.385-1.529 0-.58.128-1.089.385-1.529.257-.44.609-.785 1.056-1.034a3.15 3.15 0 011.54-.374c.491 0 .935.095 1.331.286.396.19.708.477.935.858l-.583.396a1.833 1.833 0 00-.737-.649 2.202 2.202 0 00-.957-.209c-.41 0-.781.095-1.111.286a2 2 0 00-.781.781c-.19.337-.286.733-.286 1.188 0 .455.095.85.286 1.188.19.337.451.601.781.792.33.183.7.275 1.111.275.345 0 .664-.07.957-.209a1.86 1.86 0 00.737-.638l.583.396c-.227.374-.539.66-.935.858a3.04 3.04 0 01-1.331.286zm5.69 0c-.542 0-.96-.147-1.253-.44-.294-.293-.44-.708-.44-1.243v-5.423h.78v5.379c0 .337.085.598.254.781.176.183.425.275.748.275.344 0 .63-.099.858-.297l.275.561a1.43 1.43 0 01-.561.308 2.214 2.214 0 01-.66.099zm-2.727-5.181v-.649h3.575v.649h-3.575zM67.706 63v-.561l3.2-3.135c.294-.286.514-.535.66-.748.147-.22.246-.425.297-.616.052-.19.077-.37.077-.539 0-.447-.154-.8-.462-1.056-.3-.257-.748-.385-1.342-.385-.454 0-.858.07-1.21.209-.344.14-.641.356-.89.649l-.562-.484a2.955 2.955 0 011.155-.814c.47-.19.994-.286 1.573-.286.521 0 .972.084 1.353.253.382.161.675.4.88.715.213.315.32.686.32 1.111a2.64 2.64 0 01-.484 1.507 5.92 5.92 0 01-.782.902l-2.937 2.882-.22-.308h4.774V63h-5.4zM21.254 35v-7.7h2.882c.653 0 1.214.106 1.683.319.47.205.829.506 1.078.902.257.389.385.862.385 1.419 0 .543-.128 1.012-.385 1.408-.25.389-.609.69-1.078.902-.47.213-1.03.319-1.683.319h-2.431l.363-.385V35h-.814zm.814-2.75l-.363-.396h2.409c.77 0 1.353-.165 1.749-.495.403-.337.605-.81.605-1.419 0-.616-.202-1.093-.605-1.43-.396-.337-.979-.506-1.749-.506h-2.409l.363-.385v4.631zm6.67 2.75v-5.775h.747v1.573l-.077-.275a1.88 1.88 0 01.814-1.001c.382-.235.855-.352 1.42-.352v.759h-.089a.363.363 0 00-.088-.011c-.608 0-1.085.187-1.43.561-.344.367-.517.891-.517 1.573V35h-.78zm6.629.055c-.557 0-1.06-.125-1.507-.374a2.857 2.857 0 01-1.045-1.045 3.017 3.017 0 01-.385-1.529c0-.58.128-1.089.385-1.529.257-.44.605-.785 1.045-1.034.44-.25.942-.374 1.507-.374.572 0 1.078.125 1.518.374.447.25.796.594 1.045 1.034.257.44.385.95.385 1.529 0 .572-.128 1.082-.385 1.529a2.75 2.75 0 01-1.045 1.045c-.447.25-.953.374-1.518.374zm0-.693a2.21 2.21 0 001.11-.275c.324-.19.577-.455.76-.792.19-.345.286-.74.286-1.188 0-.455-.096-.85-.286-1.188a1.946 1.946 0 00-.76-.781 2.12 2.12 0 00-1.1-.286c-.41 0-.777.095-1.1.286a2.035 2.035 0 00-.77.781c-.19.337-.285.733-.285 1.188 0 .447.095.843.286 1.188a2.1 2.1 0 00.77.792c.322.183.686.275 1.089.275zm6.841.693a2.96 2.96 0 01-1.485-.374 2.716 2.716 0 01-1.023-1.034c-.249-.447-.374-.96-.374-1.54 0-.587.125-1.1.374-1.54.25-.44.59-.781 1.023-1.023a2.96 2.96 0 011.485-.374c.506 0 .957.114 1.353.341.404.227.723.561.957 1.001.242.433.363.964.363 1.595 0 .623-.117 1.155-.352 1.595-.234.44-.553.777-.957 1.012a2.69 2.69 0 01-1.364.341zm.055-.693c.411 0 .778-.092 1.1-.275a2 2 0 00.77-.792c.191-.345.286-.74.286-1.188 0-.455-.095-.85-.286-1.188a1.926 1.926 0 00-.77-.781 2.12 2.12 0 00-1.1-.286 2.1 2.1 0 00-1.089.286 2.028 2.028 0 00-.77.781c-.19.337-.286.733-.286 1.188 0 .447.096.843.286 1.188.191.337.448.601.77.792.323.183.686.275 1.09.275zm2.178.638v-1.738l.077-1.166-.11-1.166v-4.092h.781V35h-.748zm5.31.055c-.49 0-.92-.092-1.287-.275a1.98 1.98 0 01-.858-.825c-.198-.367-.297-.825-.297-1.375v-3.355h.781v3.267c0 .616.15 1.082.451 1.397.308.308.737.462 1.287.462.404 0 .752-.08 1.045-.242a1.63 1.63 0 00.682-.726c.162-.315.242-.693.242-1.133v-3.025h.781V35h-.748v-1.584l.121.286a2.155 2.155 0 01-.858 1.001c-.38.235-.828.352-1.342.352zm7.402 0a3.15 3.15 0 01-1.54-.374 2.833 2.833 0 01-1.056-1.045c-.257-.447-.385-.957-.385-1.529 0-.58.128-1.089.385-1.529.257-.44.609-.785 1.056-1.034a3.15 3.15 0 011.54-.374c.491 0 .935.095 1.331.286.396.19.708.477.935.858l-.583.396a1.833 1.833 0 00-.737-.649 2.202 2.202 0 00-.957-.209c-.41 0-.781.095-1.111.286a2 2 0 00-.781.781c-.19.337-.286.733-.286 1.188 0 .455.095.85.286 1.188.19.337.451.601.781.792.33.183.7.275 1.111.275.345 0 .664-.07.957-.209a1.86 1.86 0 00.737-.638l.583.396c-.227.374-.539.66-.935.858a3.04 3.04 0 01-1.331.286zm5.69 0c-.542 0-.96-.147-1.253-.44-.294-.293-.44-.708-.44-1.243v-5.423h.78v5.379c0 .337.085.598.254.781.176.183.425.275.748.275.344 0 .63-.099.858-.297l.275.561a1.43 1.43 0 01-.561.308 2.214 2.214 0 01-.66.099zm-2.727-5.181v-.649h3.575v.649h-3.575zM69.19 35v-7.37l.352.374h-2.167V27.3h2.607V35h-.792z" fill="#636370"/><path fill="#FEDBDB" d="M142 49h38v20h-38z"/><path d="M151.97 64.32V53.98h.55v10.34h-.55zm.231-1.254a4.995 4.995 0 01-1.65-.275c-.521-.19-.924-.433-1.21-.726l.319-.627c.271.264.634.488 1.089.671.462.176.946.264 1.452.264.484 0 .876-.059 1.177-.176.308-.125.531-.29.671-.495.146-.205.22-.433.22-.682 0-.3-.088-.543-.264-.726a1.69 1.69 0 00-.671-.429 6.908 6.908 0 00-.924-.286 45.32 45.32 0 01-1.012-.253 4.592 4.592 0 01-.935-.374 2.01 2.01 0 01-.682-.605c-.169-.257-.253-.59-.253-1.001 0-.381.099-.73.297-1.045.205-.323.517-.58.935-.77.418-.198.953-.297 1.606-.297.432 0 .861.062 1.287.187.425.117.792.282 1.1.495l-.275.649a3.623 3.623 0 00-1.056-.484 3.954 3.954 0 00-1.067-.154c-.462 0-.844.062-1.144.187-.301.125-.525.293-.671.506a1.22 1.22 0 00-.209.704c0 .3.084.543.253.726.176.183.403.326.682.429.286.103.597.194.935.275.337.08.671.169 1.001.264.337.095.645.22.924.374.286.147.513.345.682.594.176.25.264.576.264.979 0 .374-.103.722-.308 1.045-.206.315-.521.572-.946.77-.418.19-.957.286-1.617.286zm5.197-.066v-7.37l.352.374h-2.167V55.3h2.607V63h-.792zm5.789.066c-.682 0-1.257-.15-1.727-.451-.469-.308-.825-.748-1.067-1.32-.242-.58-.363-1.272-.363-2.079 0-.873.147-1.602.44-2.189.301-.594.715-1.041 1.243-1.342.528-.3 1.141-.451 1.837-.451.345 0 .675.033.99.099.316.066.594.172.836.319l-.319.638a1.877 1.877 0 00-.682-.275 3.638 3.638 0 00-.814-.088c-.828 0-1.492.264-1.991.792-.491.528-.737 1.316-.737 2.365 0 .161.008.363.022.605.022.235.066.47.132.704l-.275-.209c.081-.381.239-.704.473-.968.235-.271.528-.477.88-.616.352-.14.737-.209 1.155-.209.514 0 .965.095 1.353.286.389.19.693.458.913.803.22.345.33.752.33 1.221 0 .477-.113.895-.341 1.254a2.303 2.303 0 01-.946.825c-.396.19-.843.286-1.342.286zm-.033-.671c.367 0 .69-.066.968-.198.286-.14.51-.334.671-.583.162-.257.242-.554.242-.891 0-.506-.176-.91-.528-1.21-.344-.3-.814-.451-1.408-.451-.396 0-.74.073-1.034.22a1.746 1.746 0 00-.693.605 1.5 1.5 0 00-.253.858c0 .279.077.546.231.803.154.25.382.455.682.616.308.154.682.231 1.122.231zm6.506.671c-.616 0-1.148-.088-1.595-.264-.44-.176-.781-.429-1.023-.759a2.025 2.025 0 01-.352-1.188c0-.44.113-.814.341-1.122.234-.315.572-.557 1.012-.726.447-.169.986-.253 1.617-.253.623 0 1.158.084 1.606.253.447.169.788.41 1.023.726.242.308.363.682.363 1.122 0 .455-.121.85-.363 1.188-.242.33-.587.583-1.034.759-.448.176-.979.264-1.595.264zm0-.671c.682 0 1.213-.14 1.595-.418.388-.279.583-.656.583-1.133s-.195-.85-.583-1.122c-.382-.279-.913-.418-1.595-.418-.682 0-1.214.14-1.595.418-.382.271-.572.645-.572 1.122 0 .477.19.854.572 1.133.381.279.913.418 1.595.418zm0-3.19c-.572 0-1.06-.077-1.463-.231-.396-.154-.701-.374-.913-.66a1.73 1.73 0 01-.319-1.045c0-.425.11-.788.33-1.089.227-.308.542-.543.946-.704.403-.161.876-.242 1.419-.242.542 0 1.015.08 1.419.242.41.161.729.396.957.704.227.3.341.664.341 1.089 0 .403-.107.752-.319 1.045-.213.286-.525.506-.935.66-.404.154-.891.231-1.463.231zm0-.528c.601 0 1.07-.125 1.408-.374.337-.25.506-.583.506-1.001 0-.44-.176-.781-.528-1.023-.345-.25-.807-.374-1.386-.374-.58 0-1.042.125-1.386.374-.345.242-.517.58-.517 1.012 0 .425.165.763.495 1.012.337.25.806.374 1.408.374z" fill="#F82C2C"/><path fill="#FEDBDB" d="M142 133h38v20h-38z"/><path d="M154.295 148.32v-10.34h.55v10.34h-.55zm.231-1.254a5.003 5.003 0 01-1.65-.275c-.52-.191-.924-.433-1.21-.726l.319-.627c.272.264.635.488 1.089.671.462.176.946.264 1.452.264.484 0 .877-.059 1.177-.176.308-.125.532-.29.671-.495.147-.205.22-.433.22-.682 0-.301-.088-.543-.264-.726a1.682 1.682 0 00-.671-.429 6.861 6.861 0 00-.924-.286 55.39 55.39 0 01-1.012-.253 4.597 4.597 0 01-.935-.374 2.022 2.022 0 01-.682-.605c-.168-.257-.253-.59-.253-1.001 0-.381.099-.73.297-1.045.206-.323.517-.579.935-.77.418-.198.954-.297 1.606-.297.433 0 .862.062 1.287.187.426.117.792.282 1.1.495l-.275.649a3.63 3.63 0 00-1.056-.484 3.932 3.932 0 00-1.067-.154c-.462 0-.843.062-1.144.187-.3.125-.524.293-.671.506-.139.205-.209.44-.209.704 0 .301.085.543.253.726.176.183.404.326.682.429.286.103.598.194.935.275.338.081.671.169 1.001.264.338.095.646.22.924.374.286.147.514.345.682.594.176.249.264.576.264.979 0 .374-.102.722-.308 1.045-.205.315-.52.572-.946.77-.418.191-.957.286-1.617.286zm3.82-.066v-.561l3.201-3.135c.293-.286.513-.535.66-.748.147-.22.246-.425.297-.616.051-.191.077-.37.077-.539 0-.447-.154-.799-.462-1.056-.301-.257-.748-.385-1.342-.385-.455 0-.858.07-1.21.209a2.271 2.271 0 00-.891.649l-.561-.484a2.955 2.955 0 011.155-.814 4.138 4.138 0 011.573-.286c.521 0 .972.084 1.353.253.381.161.675.4.88.715.213.315.319.686.319 1.111a2.644 2.644 0 01-.484 1.507 5.884 5.884 0 01-.781.902l-2.937 2.882-.22-.308h4.774V147h-5.401zm9.53.066c-.682 0-1.257-.15-1.727-.451-.469-.308-.825-.748-1.067-1.32-.242-.579-.363-1.272-.363-2.079 0-.873.147-1.602.44-2.189.301-.594.715-1.041 1.243-1.342.528-.301 1.141-.451 1.837-.451.345 0 .675.033.99.099.316.066.594.172.836.319l-.319.638a1.872 1.872 0 00-.682-.275 3.62 3.62 0 00-.814-.088c-.828 0-1.492.264-1.991.792-.491.528-.737 1.316-.737 2.365 0 .161.008.363.022.605.022.235.066.469.132.704l-.275-.209c.081-.381.239-.704.473-.968.235-.271.528-.477.88-.616a3.118 3.118 0 011.155-.209c.514 0 .965.095 1.353.286.389.191.693.458.913.803.22.345.33.752.33 1.221 0 .477-.113.895-.341 1.254a2.303 2.303 0 01-.946.825 3.05 3.05 0 01-1.342.286zm-.033-.671c.367 0 .69-.066.968-.198.286-.139.51-.334.671-.583.162-.257.242-.554.242-.891 0-.506-.176-.909-.528-1.21-.344-.301-.814-.451-1.408-.451-.396 0-.74.073-1.034.22a1.746 1.746 0 00-.693.605 1.499 1.499 0 00-.253.858c0 .279.077.546.231.803.154.249.382.455.682.616.308.154.682.231 1.122.231z" fill="#F82C2C"/><path fill="#F3FCEC" d="M142 161h38v20h-38z"/><path d="M154.483 176.32v-10.34h.55v10.34h-.55zm.231-1.254a5.003 5.003 0 01-1.65-.275c-.52-.191-.924-.433-1.21-.726l.319-.627c.272.264.635.488 1.089.671.462.176.946.264 1.452.264.484 0 .877-.059 1.177-.176.308-.125.532-.29.671-.495.147-.205.22-.433.22-.682 0-.301-.088-.543-.264-.726a1.682 1.682 0 00-.671-.429 6.861 6.861 0 00-.924-.286 55.39 55.39 0 01-1.012-.253 4.597 4.597 0 01-.935-.374 2.022 2.022 0 01-.682-.605c-.168-.257-.253-.59-.253-1.001 0-.381.099-.73.297-1.045.206-.323.517-.579.935-.77.418-.198.954-.297 1.606-.297.433 0 .862.062 1.287.187.426.117.792.282 1.1.495l-.275.649a3.63 3.63 0 00-1.056-.484 3.932 3.932 0 00-1.067-.154c-.462 0-.843.062-1.144.187-.3.125-.524.293-.671.506-.139.205-.209.44-.209.704 0 .301.085.543.253.726.176.183.404.326.682.429.286.103.598.194.935.275.338.081.671.169 1.001.264.338.095.646.22.924.374.286.147.514.345.682.594.176.249.264.576.264.979 0 .374-.102.722-.308 1.045-.205.315-.52.572-.946.77-.418.191-.957.286-1.617.286zm6.394 0c-.55 0-1.074-.088-1.573-.264-.499-.183-.895-.425-1.188-.726l.385-.627c.242.257.572.469.99.638a3.69 3.69 0 001.375.253c.653 0 1.148-.143 1.485-.429.345-.293.517-.675.517-1.144 0-.33-.081-.612-.242-.847-.154-.242-.418-.429-.792-.561-.374-.132-.887-.198-1.54-.198h-1.639l.396-3.861h4.213v.704h-3.894l.407-.385-.341 3.234-.407-.396h1.441c.777 0 1.401.095 1.87.286.469.191.807.458 1.012.803.213.337.319.733.319 1.188 0 .433-.103.829-.308 1.188-.205.352-.513.631-.924.836-.411.205-.931.308-1.562.308zm5.002-.066l3.322-7.348.242.352h-4.763l.407-.385v1.826h-.781V167.3h5.654v.561L166.968 175h-.858z" fill="#63C714"/><path fill="#F3FCEC" d="M142 105h38v20h-38z"/><path d="M152.587 120.32v-10.34h.55v10.34h-.55zm.231-1.254a5.003 5.003 0 01-1.65-.275c-.52-.191-.924-.433-1.21-.726l.319-.627c.272.264.635.488 1.089.671.462.176.946.264 1.452.264.484 0 .877-.059 1.177-.176.308-.125.532-.29.671-.495.147-.205.22-.433.22-.682 0-.301-.088-.543-.264-.726a1.682 1.682 0 00-.671-.429 6.861 6.861 0 00-.924-.286 55.39 55.39 0 01-1.012-.253 4.597 4.597 0 01-.935-.374 2.022 2.022 0 01-.682-.605c-.168-.257-.253-.59-.253-1.001 0-.381.099-.73.297-1.045.206-.323.517-.579.935-.77.418-.198.954-.297 1.606-.297.433 0 .862.062 1.287.187.426.117.792.282 1.1.495l-.275.649a3.63 3.63 0 00-1.056-.484 3.932 3.932 0 00-1.067-.154c-.462 0-.843.062-1.144.187-.3.125-.524.293-.671.506-.139.205-.209.44-.209.704 0 .301.085.543.253.726.176.183.404.326.682.429.286.103.598.194.935.275.338.081.671.169 1.001.264.338.095.646.22.924.374.286.147.514.345.682.594.176.249.264.576.264.979 0 .374-.102.722-.308 1.045-.205.315-.52.572-.946.77-.418.191-.957.286-1.617.286zm5.198-.066v-7.37l.352.374h-2.167v-.704h2.607v7.7h-.792zm2.489 0v-.561l3.201-3.135c.294-.286.514-.535.66-.748.147-.22.246-.425.297-.616.052-.191.077-.37.077-.539 0-.447-.154-.799-.462-1.056-.3-.257-.748-.385-1.342-.385-.454 0-.858.07-1.21.209a2.286 2.286 0 00-.891.649l-.561-.484a2.955 2.955 0 011.155-.814c.47-.191.994-.286 1.573-.286.521 0 .972.084 1.353.253.382.161.675.4.88.715.213.315.319.686.319 1.111a2.619 2.619 0 01-.484 1.507 5.884 5.884 0 01-.781.902l-2.937 2.882-.22-.308h4.774V119h-5.401zm8.826.066c-.55 0-1.074-.088-1.573-.264-.499-.183-.895-.425-1.188-.726l.385-.627c.242.257.572.469.99.638a3.69 3.69 0 001.375.253c.653 0 1.148-.143 1.485-.429.345-.293.517-.675.517-1.144 0-.33-.081-.612-.242-.847-.154-.242-.418-.429-.792-.561-.374-.132-.887-.198-1.54-.198h-1.639l.396-3.861h4.213v.704h-3.894l.407-.385-.341 3.234-.407-.396h1.441c.777 0 1.401.095 1.87.286.469.191.807.458 1.012.803.213.337.319.733.319 1.188 0 .433-.103.829-.308 1.188-.205.352-.513.631-.924.836-.411.205-.931.308-1.562.308z" fill="#63C714"/><path fill="#F3FCEC" d="M142 77h38v20h-38z"/><path d="M151.97 92.32V81.98h.55v10.34h-.55zm.231-1.254a4.995 4.995 0 01-1.65-.275c-.521-.19-.924-.433-1.21-.726l.319-.627c.271.264.634.488 1.089.671.462.176.946.264 1.452.264.484 0 .876-.059 1.177-.176.308-.125.531-.29.671-.495.146-.205.22-.433.22-.682 0-.3-.088-.543-.264-.726a1.69 1.69 0 00-.671-.429 6.908 6.908 0 00-.924-.286 45.32 45.32 0 01-1.012-.253 4.592 4.592 0 01-.935-.374 2.01 2.01 0 01-.682-.605c-.169-.257-.253-.59-.253-1.001 0-.381.099-.73.297-1.045.205-.323.517-.58.935-.77.418-.198.953-.297 1.606-.297.432 0 .861.062 1.287.187.425.117.792.282 1.1.495l-.275.649a3.623 3.623 0 00-1.056-.484 3.954 3.954 0 00-1.067-.154c-.462 0-.844.062-1.144.187-.301.125-.525.293-.671.506a1.22 1.22 0 00-.209.704c0 .3.084.543.253.726.176.183.403.326.682.429.286.103.597.194.935.275.337.08.671.169 1.001.264.337.095.645.22.924.374.286.147.513.345.682.594.176.25.264.576.264.979 0 .374-.103.722-.308 1.045-.206.315-.521.572-.946.77-.418.19-.957.286-1.617.286zm5.197-.066v-7.37l.352.374h-2.167V83.3h2.607V91h-.792zm5.558.066c-.616 0-1.147-.088-1.595-.264-.44-.176-.781-.429-1.023-.759a2.033 2.033 0 01-.352-1.188c0-.44.114-.814.341-1.122.235-.315.572-.557 1.012-.726.448-.169.987-.253 1.617-.253.624 0 1.159.084 1.606.253.448.169.789.41 1.023.726.242.308.363.682.363 1.122 0 .455-.121.85-.363 1.188-.242.33-.586.583-1.034.759-.447.176-.979.264-1.595.264zm0-.671c.682 0 1.214-.14 1.595-.418.389-.279.583-.656.583-1.133s-.194-.85-.583-1.122c-.381-.279-.913-.418-1.595-.418-.682 0-1.213.14-1.595.418-.381.271-.572.645-.572 1.122 0 .477.191.854.572 1.133.382.279.913.418 1.595.418zm0-3.19c-.572 0-1.059-.077-1.463-.231-.396-.154-.7-.374-.913-.66a1.737 1.737 0 01-.319-1.045c0-.425.11-.788.33-1.089.228-.308.543-.543.946-.704.404-.161.877-.242 1.419-.242.543 0 1.016.08 1.419.242.411.161.73.396.957.704.228.3.341.664.341 1.089 0 .403-.106.752-.319 1.045-.212.286-.524.506-.935.66-.403.154-.891.231-1.463.231zm0-.528c.602 0 1.071-.125 1.408-.374a1.18 1.18 0 00.506-1.001c0-.44-.176-.781-.528-1.023-.344-.25-.806-.374-1.386-.374-.579 0-1.041.125-1.386.374-.344.242-.517.58-.517 1.012 0 .425.165.763.495 1.012.338.25.807.374 1.408.374zm6.487-3.443c.682 0 1.258.154 1.727.462.469.3.825.737 1.067 1.309s.363 1.265.363 2.079c0 .865-.15 1.595-.451 2.189-.293.594-.704 1.041-1.232 1.342-.528.3-1.14.451-1.837.451-.345 0-.675-.033-.99-.099a2.784 2.784 0 01-.836-.319l.319-.638c.198.132.425.227.682.286.264.051.535.077.814.077.829 0 1.489-.264 1.98-.792.499-.528.748-1.316.748-2.365 0-.169-.011-.37-.033-.605a3.393 3.393 0 00-.121-.704l.275.209a2.007 2.007 0 01-.473.979 2.28 2.28 0 01-.88.605 3.06 3.06 0 01-1.155.209 3.08 3.08 0 01-1.353-.286 2.21 2.21 0 01-.913-.803c-.22-.345-.33-.752-.33-1.221 0-.484.114-.902.341-1.254.227-.352.539-.623.935-.814a3.027 3.027 0 011.353-.297zm.033.671c-.367 0-.693.07-.979.209a1.563 1.563 0 00-.66.572c-.161.25-.242.546-.242.891 0 .506.172.91.517 1.21.352.3.825.451 1.419.451.396 0 .741-.073 1.034-.22.301-.147.532-.348.693-.605.169-.257.253-.543.253-.858a1.5 1.5 0 00-.231-.803 1.67 1.67 0 00-.682-.605c-.301-.161-.675-.242-1.122-.242z" fill="#63C714"/><path d="M106.295 148.32v-10.34h.55v10.34h-.55zm.231-1.254a5.003 5.003 0 01-1.65-.275c-.52-.191-.924-.433-1.21-.726l.319-.627c.272.264.635.488 1.089.671.462.176.946.264 1.452.264.484 0 .877-.059 1.177-.176.308-.125.532-.29.671-.495.147-.205.22-.433.22-.682 0-.301-.088-.543-.264-.726a1.682 1.682 0 00-.671-.429 6.861 6.861 0 00-.924-.286 55.39 55.39 0 01-1.012-.253 4.597 4.597 0 01-.935-.374 2.022 2.022 0 01-.682-.605c-.168-.257-.253-.59-.253-1.001 0-.381.099-.73.297-1.045.206-.323.517-.579.935-.77.418-.198.954-.297 1.606-.297.433 0 .862.062 1.287.187.426.117.792.282 1.1.495l-.275.649a3.63 3.63 0 00-1.056-.484 3.932 3.932 0 00-1.067-.154c-.462 0-.843.062-1.144.187-.3.125-.524.293-.671.506-.139.205-.209.44-.209.704 0 .301.085.543.253.726.176.183.404.326.682.429.286.103.598.194.935.275.338.081.671.169 1.001.264.338.095.646.22.924.374.286.147.514.345.682.594.176.249.264.576.264.979 0 .374-.102.722-.308 1.045-.205.315-.52.572-.946.77-.418.191-.957.286-1.617.286zm6.394 0c-.55 0-1.074-.088-1.573-.264-.499-.183-.895-.425-1.188-.726l.385-.627c.242.257.572.469.99.638a3.69 3.69 0 001.375.253c.653 0 1.148-.143 1.485-.429.345-.293.517-.675.517-1.144 0-.33-.081-.612-.242-.847-.154-.242-.418-.429-.792-.561-.374-.132-.887-.198-1.54-.198h-1.639l.396-3.861h4.213v.704h-3.894l.407-.385-.341 3.234-.407-.396h1.441c.777 0 1.401.095 1.87.286.469.191.807.458 1.012.803.213.337.319.733.319 1.188 0 .433-.103.829-.308 1.188-.205.352-.513.631-.924.836-.411.205-.931.308-1.562.308zm6.197-7.832c.682 0 1.258.154 1.727.462.47.301.825.737 1.067 1.309s.363 1.265.363 2.079c0 .865-.15 1.595-.451 2.189-.293.594-.704 1.041-1.232 1.342-.528.301-1.14.451-1.837.451-.344 0-.674-.033-.99-.099a2.787 2.787 0 01-.836-.319l.319-.638c.198.132.426.227.682.286.264.051.536.077.814.077.829 0 1.489-.264 1.98-.792.499-.528.748-1.316.748-2.365 0-.169-.011-.37-.033-.605a3.328 3.328 0 00-.121-.704l.275.209a2.007 2.007 0 01-.473.979 2.27 2.27 0 01-.88.605 3.058 3.058 0 01-1.155.209c-.506 0-.957-.095-1.353-.286a2.217 2.217 0 01-.913-.803c-.22-.345-.33-.752-.33-1.221 0-.484.114-.902.341-1.254.228-.352.539-.623.935-.814a3.033 3.033 0 011.353-.297zm.033.671c-.366 0-.693.07-.979.209a1.577 1.577 0 00-.66.572 1.605 1.605 0 00-.242.891c0 .506.173.909.517 1.21.352.301.825.451 1.419.451.396 0 .741-.073 1.034-.22.301-.147.532-.348.693-.605.169-.257.253-.543.253-.858a1.5 1.5 0 00-.231-.803 1.672 1.672 0 00-.682-.605c-.3-.161-.674-.242-1.122-.242zM104.297 64.32V53.98h.55v10.34h-.55zm.231-1.254a4.995 4.995 0 01-1.65-.275c-.52-.19-.924-.433-1.21-.726l.319-.627c.272.264.635.488 1.089.671.462.176.946.264 1.452.264.484 0 .877-.059 1.177-.176.308-.125.532-.29.671-.495.147-.205.22-.433.22-.682 0-.3-.088-.543-.264-.726a1.676 1.676 0 00-.671-.429 6.818 6.818 0 00-.924-.286c-.337-.08-.674-.165-1.012-.253a4.615 4.615 0 01-.935-.374 2.02 2.02 0 01-.682-.605c-.168-.257-.253-.59-.253-1.001 0-.381.099-.73.297-1.045.206-.323.517-.58.935-.77.418-.198.954-.297 1.606-.297.433 0 .862.062 1.287.187a3.6 3.6 0 011.1.495l-.275.649a3.623 3.623 0 00-1.056-.484 3.943 3.943 0 00-1.067-.154c-.462 0-.843.062-1.144.187-.3.125-.524.293-.671.506-.139.205-.209.44-.209.704 0 .3.085.543.253.726.176.183.404.326.682.429.286.103.598.194.935.275.338.08.671.169 1.001.264.338.095.646.22.924.374.286.147.514.345.682.594.176.25.264.576.264.979 0 .374-.102.722-.308 1.045-.205.315-.52.572-.946.77-.418.19-.957.286-1.617.286zm3.82-.066v-.561l3.201-3.135a5.38 5.38 0 00.66-.748c.147-.22.246-.425.297-.616.051-.19.077-.37.077-.539 0-.447-.154-.8-.462-1.056-.301-.257-.748-.385-1.342-.385-.455 0-.858.07-1.21.209-.345.14-.642.356-.891.649l-.561-.484a2.952 2.952 0 011.155-.814c.469-.19.994-.286 1.573-.286.521 0 .972.084 1.353.253.381.161.675.4.88.715.213.315.319.686.319 1.111a2.648 2.648 0 01-.484 1.507 5.898 5.898 0 01-.781.902l-2.937 2.882-.22-.308h4.774V63h-5.401zm7.737 0v-7.37l.352.374h-2.167V55.3h2.607V63h-.792zm5.031-7.766c.682 0 1.257.154 1.727.462.469.3.825.737 1.067 1.309s.363 1.265.363 2.079c0 .865-.151 1.595-.451 2.189-.294.594-.704 1.041-1.232 1.342-.528.3-1.141.451-1.837.451-.345 0-.675-.033-.99-.099a2.784 2.784 0 01-.836-.319l.319-.638c.198.132.425.227.682.286.264.051.535.077.814.077.828 0 1.488-.264 1.98-.792.498-.528.748-1.316.748-2.365 0-.169-.011-.37-.033-.605a3.393 3.393 0 00-.121-.704l.275.209a2.016 2.016 0 01-.473.979 2.28 2.28 0 01-.88.605 3.06 3.06 0 01-1.155.209 3.08 3.08 0 01-1.353-.286 2.21 2.21 0 01-.913-.803c-.22-.345-.33-.752-.33-1.221 0-.484.113-.902.341-1.254.227-.352.539-.623.935-.814a3.027 3.027 0 011.353-.297zm.033.671c-.367 0-.693.07-.979.209a1.563 1.563 0 00-.66.572 1.6 1.6 0 00-.242.891c0 .506.172.91.517 1.21.352.3.825.451 1.419.451.396 0 .74-.073 1.034-.22.3-.147.531-.348.693-.605.168-.257.253-.543.253-.858a1.5 1.5 0 00-.231-.803 1.677 1.677 0 00-.682-.605c-.301-.161-.675-.242-1.122-.242zM103.884 92.32V81.98h.55v10.34h-.55zm.231-1.254a4.995 4.995 0 01-1.65-.275c-.521-.19-.924-.433-1.21-.726l.319-.627c.271.264.634.488 1.089.671.462.176.946.264 1.452.264.484 0 .876-.059 1.177-.176.308-.125.531-.29.671-.495.146-.205.22-.433.22-.682 0-.3-.088-.543-.264-.726a1.69 1.69 0 00-.671-.429 6.908 6.908 0 00-.924-.286 45.32 45.32 0 01-1.012-.253 4.592 4.592 0 01-.935-.374 2.01 2.01 0 01-.682-.605c-.169-.257-.253-.59-.253-1.001 0-.381.099-.73.297-1.045.205-.323.517-.58.935-.77.418-.198.953-.297 1.606-.297.432 0 .861.062 1.287.187.425.117.792.282 1.1.495l-.275.649a3.623 3.623 0 00-1.056-.484 3.954 3.954 0 00-1.067-.154c-.462 0-.844.062-1.144.187-.301.125-.525.293-.671.506a1.22 1.22 0 00-.209.704c0 .3.084.543.253.726.176.183.403.326.682.429.286.103.597.194.935.275.337.08.671.169 1.001.264.337.095.645.22.924.374.286.147.513.345.682.594.176.25.264.576.264.979 0 .374-.103.722-.308 1.045-.206.315-.521.572-.946.77-.418.19-.957.286-1.617.286zm5.197-.066v-7.37l.352.374h-2.167V83.3h2.607V91h-.792zm2.501-2.024v-.572l4.081-5.104h.88l-4.048 5.104-.429-.132h6.193v.704h-6.677zM116.158 91v-2.024l.022-.704V86.49h.77V91h-.792zm5.371-7.766c.682 0 1.258.154 1.727.462.469.3.825.737 1.067 1.309s.363 1.265.363 2.079c0 .865-.15 1.595-.451 2.189-.293.594-.704 1.041-1.232 1.342-.528.3-1.14.451-1.837.451-.345 0-.675-.033-.99-.099a2.784 2.784 0 01-.836-.319l.319-.638c.198.132.425.227.682.286.264.051.535.077.814.077.829 0 1.489-.264 1.98-.792.499-.528.748-1.316.748-2.365 0-.169-.011-.37-.033-.605a3.393 3.393 0 00-.121-.704l.275.209a2.007 2.007 0 01-.473.979 2.28 2.28 0 01-.88.605 3.06 3.06 0 01-1.155.209 3.08 3.08 0 01-1.353-.286 2.21 2.21 0 01-.913-.803c-.22-.345-.33-.752-.33-1.221 0-.484.114-.902.341-1.254.227-.352.539-.623.935-.814a3.027 3.027 0 011.353-.297zm.033.671c-.367 0-.693.07-.979.209a1.563 1.563 0 00-.66.572c-.161.25-.242.546-.242.891 0 .506.172.91.517 1.21.352.3.825.451 1.419.451.396 0 .741-.073 1.034-.22.301-.147.532-.348.693-.605.169-.257.253-.543.253-.858a1.5 1.5 0 00-.231-.803 1.67 1.67 0 00-.682-.605c-.301-.161-.675-.242-1.122-.242zm-15.449 36.415v-10.34h.55v10.34h-.55zm.231-1.254a5.003 5.003 0 01-1.65-.275c-.521-.191-.924-.433-1.21-.726l.319-.627c.271.264.634.488 1.089.671.462.176.946.264 1.452.264.484 0 .876-.059 1.177-.176.308-.125.531-.29.671-.495.146-.205.22-.433.22-.682 0-.301-.088-.543-.264-.726a1.697 1.697 0 00-.671-.429 6.952 6.952 0 00-.924-.286 51.571 51.571 0 01-1.012-.253 4.574 4.574 0 01-.935-.374 2.013 2.013 0 01-.682-.605c-.169-.257-.253-.59-.253-1.001 0-.381.099-.73.297-1.045.205-.323.517-.579.935-.77.418-.198.953-.297 1.606-.297.432 0 .861.062 1.287.187.425.117.792.282 1.1.495l-.275.649a3.63 3.63 0 00-1.056-.484 3.943 3.943 0 00-1.067-.154c-.462 0-.844.062-1.144.187-.301.125-.525.293-.671.506-.14.205-.209.44-.209.704 0 .301.084.543.253.726.176.183.403.326.682.429.286.103.597.194.935.275.337.081.671.169 1.001.264.337.095.645.22.924.374.286.147.513.345.682.594.176.249.264.576.264.979 0 .374-.103.722-.308 1.045-.206.315-.521.572-.946.77-.418.191-.957.286-1.617.286zm6.253-7.832c.682 0 1.258.154 1.727.462.469.301.825.737 1.067 1.309s.363 1.265.363 2.079c0 .865-.15 1.595-.451 2.189-.293.594-.704 1.041-1.232 1.342-.528.301-1.14.451-1.837.451-.345 0-.675-.033-.99-.099a2.776 2.776 0 01-.836-.319l.319-.638c.198.132.425.227.682.286.264.051.535.077.814.077.829 0 1.489-.264 1.98-.792.499-.528.748-1.316.748-2.365 0-.169-.011-.37-.033-.605a3.393 3.393 0 00-.121-.704l.275.209a2.007 2.007 0 01-.473.979 2.277 2.277 0 01-.88.605c-.345.139-.73.209-1.155.209-.506 0-.957-.095-1.353-.286a2.21 2.21 0 01-.913-.803c-.22-.345-.33-.752-.33-1.221 0-.484.114-.902.341-1.254.227-.352.539-.623.935-.814a3.027 3.027 0 011.353-.297zm.033.671c-.367 0-.693.07-.979.209a1.565 1.565 0 00-.66.572 1.605 1.605 0 00-.242.891c0 .506.172.909.517 1.21.352.301.825.451 1.419.451.396 0 .741-.073 1.034-.22.301-.147.532-.348.693-.605.169-.257.253-.543.253-.858a1.5 1.5 0 00-.231-.803 1.672 1.672 0 00-.682-.605c-.301-.161-.675-.242-1.122-.242zm6.67-.671c.682 0 1.258.154 1.727.462.469.301.825.737 1.067 1.309s.363 1.265.363 2.079c0 .865-.15 1.595-.451 2.189-.293.594-.704 1.041-1.232 1.342-.528.301-1.14.451-1.837.451-.345 0-.675-.033-.99-.099a2.776 2.776 0 01-.836-.319l.319-.638c.198.132.425.227.682.286.264.051.535.077.814.077.829 0 1.489-.264 1.98-.792.499-.528.748-1.316.748-2.365 0-.169-.011-.37-.033-.605a3.393 3.393 0 00-.121-.704l.275.209a2.007 2.007 0 01-.473.979 2.277 2.277 0 01-.88.605c-.345.139-.73.209-1.155.209-.506 0-.957-.095-1.353-.286a2.21 2.21 0 01-.913-.803c-.22-.345-.33-.752-.33-1.221 0-.484.114-.902.341-1.254.227-.352.539-.623.935-.814a3.027 3.027 0 011.353-.297zm.033.671c-.367 0-.693.07-.979.209a1.565 1.565 0 00-.66.572 1.605 1.605 0 00-.242.891c0 .506.172.909.517 1.21.352.301.825.451 1.419.451.396 0 .741-.073 1.034-.22.301-.147.532-.348.693-.605.169-.257.253-.543.253-.858a1.5 1.5 0 00-.231-.803 1.672 1.672 0 00-.682-.605c-.301-.161-.675-.242-1.122-.242zm-12.984 64.415v-10.34h.55v10.34h-.55zm.231-1.254a5.003 5.003 0 01-1.65-.275c-.521-.191-.924-.433-1.21-.726l.319-.627c.271.264.634.488 1.089.671.462.176.946.264 1.452.264.484 0 .876-.059 1.177-.176.308-.125.532-.29.671-.495.147-.205.22-.433.22-.682 0-.301-.088-.543-.264-.726a1.69 1.69 0 00-.671-.429 6.952 6.952 0 00-.924-.286 53.413 53.413 0 01-1.012-.253 4.597 4.597 0 01-.935-.374 2.013 2.013 0 01-.682-.605c-.169-.257-.253-.59-.253-1.001 0-.381.099-.73.297-1.045.205-.323.517-.579.935-.77.418-.198.953-.297 1.606-.297.433 0 .862.062 1.287.187.425.117.792.282 1.1.495l-.275.649a3.63 3.63 0 00-1.056-.484 3.937 3.937 0 00-1.067-.154c-.462 0-.843.062-1.144.187-.301.125-.524.293-.671.506-.139.205-.209.44-.209.704 0 .301.084.543.253.726.176.183.403.326.682.429.286.103.598.194.935.275.337.081.671.169 1.001.264.337.095.645.22.924.374.286.147.513.345.682.594.176.249.264.576.264.979 0 .374-.103.722-.308 1.045-.205.315-.521.572-.946.77-.418.191-.957.286-1.617.286zm6.176 0a4.719 4.719 0 01-1.584-.264c-.492-.183-.888-.425-1.188-.726l.385-.627c.249.257.583.469 1.001.638.425.169.887.253 1.386.253.638 0 1.125-.139 1.463-.418.344-.279.517-.653.517-1.122 0-.469-.169-.843-.506-1.122-.33-.279-.855-.418-1.573-.418h-.55v-.583l2.376-2.981.11.308h-4.29v-.704h4.95v.561l-2.376 2.981-.385-.253h.297c.924 0 1.613.205 2.068.616.462.411.693.939.693 1.584 0 .433-.103.821-.308 1.166-.206.345-.517.616-.935.814-.411.198-.928.297-1.551.297zm6.308-7.832c.682 0 1.257.154 1.727.462.469.301.825.737 1.067 1.309s.363 1.265.363 2.079c0 .865-.151 1.595-.451 2.189-.294.594-.704 1.041-1.232 1.342-.528.301-1.141.451-1.837.451-.345 0-.675-.033-.99-.099a2.776 2.776 0 01-.836-.319l.319-.638c.198.132.425.227.682.286.264.051.535.077.814.077.828 0 1.488-.264 1.98-.792.498-.528.748-1.316.748-2.365 0-.169-.011-.37-.033-.605a3.393 3.393 0 00-.121-.704l.275.209a2.016 2.016 0 01-.473.979 2.277 2.277 0 01-.88.605c-.345.139-.73.209-1.155.209-.506 0-.957-.095-1.353-.286a2.21 2.21 0 01-.913-.803c-.22-.345-.33-.752-.33-1.221 0-.484.113-.902.341-1.254.227-.352.539-.623.935-.814a3.027 3.027 0 011.353-.297zm.033.671c-.367 0-.693.07-.979.209a1.565 1.565 0 00-.66.572 1.597 1.597 0 00-.242.891c0 .506.172.909.517 1.21.352.301.825.451 1.419.451.396 0 .74-.073 1.034-.22.3-.147.531-.348.693-.605.168-.257.253-.543.253-.858a1.5 1.5 0 00-.231-.803 1.679 1.679 0 00-.682-.605c-.301-.161-.675-.242-1.122-.242zM104.125 36.32V25.98h.55v10.34h-.55zm.231-1.254a4.995 4.995 0 01-1.65-.275c-.52-.19-.924-.433-1.21-.726l.319-.627c.272.264.635.488 1.089.671.462.176.946.264 1.452.264.484 0 .877-.059 1.177-.176.308-.125.532-.29.671-.495.147-.205.22-.433.22-.682 0-.3-.088-.543-.264-.726a1.676 1.676 0 00-.671-.429 6.818 6.818 0 00-.924-.286c-.337-.08-.674-.165-1.012-.253a4.615 4.615 0 01-.935-.374 2.02 2.02 0 01-.682-.605c-.168-.257-.253-.59-.253-1.001 0-.381.099-.73.297-1.045.206-.323.517-.58.935-.77.418-.198.954-.297 1.606-.297.433 0 .862.062 1.287.187a3.6 3.6 0 011.1.495l-.275.649a3.623 3.623 0 00-1.056-.484 3.943 3.943 0 00-1.067-.154c-.462 0-.843.062-1.144.187-.3.125-.524.293-.671.506-.139.205-.209.44-.209.704 0 .3.085.543.253.726.176.183.404.326.682.429.286.103.598.194.935.275.338.08.671.169 1.001.264.338.095.646.22.924.374.286.147.514.345.682.594.176.25.264.576.264.979 0 .374-.102.722-.308 1.045-.205.315-.52.572-.946.77-.418.19-.957.286-1.617.286zm5.198-.066v-7.37l.352.374h-2.167V27.3h2.607V35h-.792zm5.03-7.766c.682 0 1.258.154 1.727.462.47.3.825.737 1.067 1.309s.363 1.265.363 2.079c0 .865-.15 1.595-.451 2.189-.293.594-.704 1.041-1.232 1.342-.528.3-1.14.451-1.837.451-.344 0-.674-.033-.99-.099a2.795 2.795 0 01-.836-.319l.319-.638c.198.132.426.227.682.286.264.051.536.077.814.077.829 0 1.489-.264 1.98-.792.499-.528.748-1.316.748-2.365 0-.169-.011-.37-.033-.605a3.328 3.328 0 00-.121-.704l.275.209a2.007 2.007 0 01-.473.979 2.272 2.272 0 01-.88.605c-.344.14-.729.209-1.155.209a3.08 3.08 0 01-1.353-.286 2.217 2.217 0 01-.913-.803c-.22-.345-.33-.752-.33-1.221 0-.484.114-.902.341-1.254.228-.352.539-.623.935-.814a3.033 3.033 0 011.353-.297zm.033.671c-.366 0-.693.07-.979.209a1.575 1.575 0 00-.66.572c-.161.25-.242.546-.242.891 0 .506.173.91.517 1.21.352.3.825.451 1.419.451.396 0 .741-.073 1.034-.22.301-.147.532-.348.693-.605.169-.257.253-.543.253-.858a1.5 1.5 0 00-.231-.803 1.67 1.67 0 00-.682-.605c-.3-.161-.674-.242-1.122-.242zm6.67-.671c.682 0 1.258.154 1.727.462.47.3.825.737 1.067 1.309s.363 1.265.363 2.079c0 .865-.15 1.595-.451 2.189-.293.594-.704 1.041-1.232 1.342-.528.3-1.14.451-1.837.451-.344 0-.674-.033-.99-.099a2.795 2.795 0 01-.836-.319l.319-.638c.198.132.426.227.682.286.264.051.536.077.814.077.829 0 1.489-.264 1.98-.792.499-.528.748-1.316.748-2.365 0-.169-.011-.37-.033-.605a3.328 3.328 0 00-.121-.704l.275.209a2.007 2.007 0 01-.473.979 2.272 2.272 0 01-.88.605c-.344.14-.729.209-1.155.209a3.08 3.08 0 01-1.353-.286 2.217 2.217 0 01-.913-.803c-.22-.345-.33-.752-.33-1.221 0-.484.114-.902.341-1.254.228-.352.539-.623.935-.814a3.033 3.033 0 011.353-.297zm.033.671c-.366 0-.693.07-.979.209a1.575 1.575 0 00-.66.572c-.161.25-.242.546-.242.891 0 .506.173.91.517 1.21.352.3.825.451 1.419.451.396 0 .741-.073 1.034-.22.301-.147.532-.348.693-.605.169-.257.253-.543.253-.858a1.5 1.5 0 00-.231-.803 1.67 1.67 0 00-.682-.605c-.3-.161-.674-.242-1.122-.242zm30.113 8.415V25.98h.55v10.34h-.55zm.231-1.254a4.995 4.995 0 01-1.65-.275c-.521-.19-.924-.433-1.21-.726l.319-.627c.271.264.634.488 1.089.671.462.176.946.264 1.452.264.484 0 .876-.059 1.177-.176.308-.125.531-.29.671-.495.146-.205.22-.433.22-.682 0-.3-.088-.543-.264-.726a1.69 1.69 0 00-.671-.429 6.908 6.908 0 00-.924-.286 45.32 45.32 0 01-1.012-.253 4.592 4.592 0 01-.935-.374 2.01 2.01 0 01-.682-.605c-.169-.257-.253-.59-.253-1.001 0-.381.099-.73.297-1.045.205-.323.517-.58.935-.77.418-.198.953-.297 1.606-.297.432 0 .861.062 1.287.187.425.117.792.282 1.1.495l-.275.649a3.623 3.623 0 00-1.056-.484 3.954 3.954 0 00-1.067-.154c-.462 0-.844.062-1.144.187-.301.125-.525.293-.671.506a1.22 1.22 0 00-.209.704c0 .3.084.543.253.726.176.183.403.326.682.429.286.103.597.194.935.275.337.08.671.169 1.001.264.337.095.645.22.924.374.286.147.513.345.682.594.176.25.264.576.264.979 0 .374-.103.722-.308 1.045-.206.315-.521.572-.946.77-.418.19-.957.286-1.617.286zm3.819-.066v-.561l3.201-3.135a5.25 5.25 0 00.66-.748c.147-.22.246-.425.297-.616.052-.19.077-.37.077-.539 0-.447-.154-.8-.462-1.056-.3-.257-.748-.385-1.342-.385-.454 0-.858.07-1.21.209-.344.14-.641.356-.891.649l-.561-.484a2.952 2.952 0 011.155-.814c.47-.19.994-.286 1.573-.286.521 0 .972.084 1.353.253.382.161.675.4.88.715.213.315.319.686.319 1.111a2.622 2.622 0 01-.484 1.507 5.898 5.898 0 01-.781.902l-2.937 2.882-.22-.308h4.774V35h-5.401zm8.826.066c-.55 0-1.074-.088-1.573-.264-.499-.183-.895-.425-1.188-.726l.385-.627c.242.257.572.47.99.638a3.69 3.69 0 001.375.253c.653 0 1.148-.143 1.485-.429.345-.293.517-.675.517-1.144 0-.33-.081-.612-.242-.847-.154-.242-.418-.429-.792-.561-.374-.132-.887-.198-1.54-.198h-1.639l.396-3.861h4.213v.704h-3.894l.407-.385-.341 3.234-.407-.396h1.441c.777 0 1.401.095 1.87.286.469.19.807.458 1.012.803.213.337.319.733.319 1.188 0 .433-.103.829-.308 1.188-.205.352-.513.63-.924.836-.411.205-.931.308-1.562.308zm6.177 0c-.55 0-1.074-.088-1.573-.264-.499-.183-.895-.425-1.188-.726l.385-.627c.242.257.572.47.99.638a3.69 3.69 0 001.375.253c.653 0 1.148-.143 1.485-.429.345-.293.517-.675.517-1.144 0-.33-.081-.612-.242-.847-.154-.242-.418-.429-.792-.561-.374-.132-.887-.198-1.54-.198h-1.639l.396-3.861h4.213v.704h-3.894l.407-.385-.341 3.234-.407-.396h1.441c.777 0 1.401.095 1.87.286.469.19.807.458 1.012.803.213.337.319.733.319 1.188 0 .433-.103.829-.308 1.188-.205.352-.513.63-.924.836-.411.205-.931.308-1.562.308z" fill="#636370"/></svg>