<svg width="619" height="323" fill="none" xmlns="http://www.w3.org/2000/svg"><rect width="619" height="323" rx="20" fill="#fff"/><g clip-path="url(#clip0_122_371)"><g clip-path="url(#clip1_122_371)"><path fill="#F9F9FB" d="M24 27h156.333v48H24z"/><path d="M40.68 57V45.8h1.6V57h-1.6zm7.641.096c-.853 0-1.514-.23-1.984-.688-.47-.459-.704-1.115-.704-1.968v-7.776h1.536v7.712c0 .459.112.81.336 1.056.235.245.566.368.992.368.48 0 .88-.133 1.2-.4l.48 1.104a2.227 2.227 0 01-.848.448 3.49 3.49 0 01-1.008.144zm-4.128-7.312V48.52h5.408v1.264h-5.408zm11.336 7.312c-.907 0-1.707-.187-2.4-.56a4.105 4.105 0 01-1.6-1.536c-.373-.65-.56-1.397-.56-2.24 0-.843.181-1.59.544-2.24a4 4 0 011.52-1.52c.65-.373 1.381-.56 2.192-.56.821 0 1.547.181 2.176.544.63.363 1.12.875 1.472 1.536.363.65.544 1.413.544 2.288 0 .064-.006.139-.016.224 0 .085-.006.165-.016.24h-7.216v-1.104h6.416l-.624.384c.01-.544-.102-1.03-.336-1.456a2.496 2.496 0 00-.976-.992c-.406-.245-.88-.368-1.424-.368a2.75 2.75 0 00-1.424.368 2.47 2.47 0 00-.976 1.008c-.235.427-.352.917-.352 1.472v.256c0 .565.128 1.072.384 1.52a2.77 2.77 0 001.104 1.024c.47.245 1.008.368 1.616.368.501 0 .955-.085 1.36-.256.416-.17.779-.427 1.088-.768l.848.992c-.384.448-.864.79-1.44 1.024-.566.235-1.2.352-1.904.352zm16.629-8.656c.682 0 1.285.133 1.808.4a2.79 2.79 0 011.216 1.216c.298.544.448 1.232.448 2.064V57h-1.536v-4.704c0-.821-.192-1.44-.576-1.856-.384-.416-.923-.624-1.616-.624-.512 0-.96.107-1.344.32a2.193 2.193 0 00-.896.944c-.203.416-.304.933-.304 1.552V57h-1.536v-4.704c0-.821-.192-1.44-.576-1.856-.374-.416-.912-.624-1.616-.624-.502 0-.944.107-1.328.32a2.193 2.193 0 00-.896.944c-.214.416-.32.933-.32 1.552V57H61.55v-8.48h1.472v2.256l-.24-.576a2.891 2.891 0 011.232-1.296c.554-.31 1.2-.464 1.936-.464.81 0 1.51.203 2.096.608.586.395.97.997 1.152 1.808l-.624-.256c.256-.65.704-1.173 1.344-1.568.64-.395 1.386-.592 2.24-.592zm8.73 8.656a6.979 6.979 0 01-2.016-.288c-.63-.192-1.125-.427-1.488-.704l.64-1.216c.363.245.81.453 1.344.624a5.34 5.34 0 001.632.256c.715 0 1.227-.101 1.536-.304.32-.203.48-.485.48-.848 0-.267-.096-.475-.288-.624-.192-.15-.448-.261-.768-.336-.31-.075-.656-.139-1.04-.192a21.961 21.961 0 01-1.152-.224 5.143 5.143 0 01-1.056-.384c-.32-.17-.576-.4-.768-.688-.192-.299-.288-.693-.288-1.184 0-.512.144-.96.432-1.344.288-.384.693-.677 1.216-.88.533-.213 1.163-.32 1.888-.32.555 0 1.115.07 1.68.208.576.128 1.045.315 1.408.56l-.656 1.216a3.624 3.624 0 00-1.2-.528 5.534 5.534 0 00-1.248-.144c-.672 0-1.173.112-1.504.336-.33.213-.496.49-.496.832 0 .288.096.512.288.672.203.15.459.267.768.352.32.085.672.16 1.056.224.384.053.768.128 1.152.224.384.085.73.208 1.04.368.32.16.576.384.768.672.203.288.304.672.304 1.152 0 .512-.15.955-.448 1.328-.299.373-.72.667-1.264.88-.544.203-1.195.304-1.952.304z" fill="#454545"/><path stroke="#DDDDE6" stroke-width="2" d="M24 27h156.333v48H24z"/><path fill="#F9F9FB" d="M180.333 27h156.333v48H180.333z"/><path d="M240.444 57.128a7.79 7.79 0 01-2.448-.384c-.779-.267-1.392-.608-1.84-1.024l.592-1.248c.427.373.971.683 1.632.928a5.885 5.885 0 002.064.368c.651 0 1.179-.075 1.584-.224.405-.15.704-.352.896-.608.192-.267.288-.565.288-.896 0-.384-.128-.693-.384-.928-.245-.235-.571-.421-.976-.56a9.617 9.617 0 00-1.312-.384 26.54 26.54 0 01-1.456-.368 7.083 7.083 0 01-1.328-.56 2.757 2.757 0 01-.96-.896c-.245-.384-.368-.875-.368-1.472 0-.576.149-1.104.448-1.584.309-.49.779-.88 1.408-1.168.64-.299 1.451-.448 2.432-.448a7.48 7.48 0 011.936.256c.64.17 1.195.416 1.664.736l-.528 1.28a4.98 4.98 0 00-1.52-.688 5.747 5.747 0 00-1.552-.224c-.629 0-1.147.08-1.552.24-.405.16-.704.373-.896.64a1.56 1.56 0 00-.272.896c0 .395.123.71.368.944.256.235.581.421.976.56.405.139.848.267 1.328.384.48.107.96.23 1.44.368.491.139.933.32 1.328.544.405.224.731.523.976.896s.368.853.368 1.44a2.92 2.92 0 01-.464 1.584c-.309.48-.789.87-1.44 1.168-.64.288-1.451.432-2.432.432zm9.362-.032c-.854 0-1.515-.23-1.984-.688-.47-.459-.704-1.115-.704-1.968v-7.776h1.536v7.712c0 .459.112.81.336 1.056.234.245.565.368.992.368.48 0 .88-.133 1.2-.4l.48 1.104a2.235 2.235 0 01-.848.448 3.49 3.49 0 01-1.008.144zm-4.128-7.312V48.52h5.408v1.264h-5.408zm11.191 7.312c-.853 0-1.61-.187-2.272-.56A4.17 4.17 0 01253.029 55c-.384-.661-.576-1.408-.576-2.24 0-.843.192-1.59.576-2.24a4.053 4.053 0 011.568-1.52c.662-.373 1.419-.56 2.272-.56.843 0 1.595.187 2.256.56a3.91 3.91 0 011.568 1.52c.384.64.576 1.387.576 2.24 0 .843-.192 1.59-.576 2.24a4.018 4.018 0 01-1.568 1.536c-.661.373-1.413.56-2.256.56zm0-1.344a2.87 2.87 0 001.456-.368 2.59 2.59 0 001.024-1.04c.246-.459.368-.987.368-1.584 0-.608-.122-1.13-.368-1.568a2.59 2.59 0 00-1.024-1.04 2.866 2.866 0 00-1.456-.368 2.87 2.87 0 00-1.456.368 2.745 2.745 0 00-1.024 1.04c-.256.437-.384.96-.384 1.568 0 .597.128 1.125.384 1.584.256.448.598.795 1.024 1.04a2.87 2.87 0 001.456.368zm10.221 1.344c-.864 0-1.638-.187-2.32-.56A4.136 4.136 0 01263.186 55c-.384-.65-.576-1.397-.576-2.24 0-.843.192-1.59.576-2.24A4.021 4.021 0 01264.77 49c.682-.373 1.456-.56 2.32-.56.768 0 1.45.155 2.048.464a3.177 3.177 0 011.408 1.344l-1.168.752a2.535 2.535 0 00-1.024-.912 2.764 2.764 0 00-1.28-.304 2.99 2.99 0 00-1.488.368 2.702 2.702 0 00-1.04 1.04c-.256.437-.384.96-.384 1.568 0 .608.128 1.136.384 1.584a2.7 2.7 0 001.04 1.04 2.99 2.99 0 001.488.368 2.89 2.89 0 001.28-.288 2.66 2.66 0 001.024-.928l1.168.736c-.331.587-.8 1.04-1.408 1.36-.598.31-1.28.464-2.048.464zm6.583-2.144l.032-1.968 4.88-4.464h1.856l-3.744 3.68-.832.704-2.192 2.048zM272.425 57V45.128h1.536V57h-1.536zm6.48 0l-3.328-4.128.992-1.232 4.224 5.36h-1.888z" fill="#454545"/><path stroke="#DDDDE6" stroke-width="2" d="M180.333 27h156.333v48H180.333z"/><path fill="#F9F9FB" d="M336.667 27h98v48h-98z"/><path d="M357.651 57l5.072-11.2h1.584l5.088 11.2h-1.68l-4.528-10.304h.64L359.299 57h-1.648zm2.16-2.8l.432-1.28h6.304l.464 1.28h-7.2zm14.648 2.896c-.864 0-1.637-.187-2.32-.56A4.136 4.136 0 01370.555 55c-.384-.65-.576-1.397-.576-2.24 0-.843.192-1.59.576-2.24a4.021 4.021 0 011.584-1.52c.683-.373 1.456-.56 2.32-.56.768 0 1.451.155 2.048.464a3.172 3.172 0 011.408 1.344l-1.168.752a2.522 2.522 0 00-1.024-.912 2.758 2.758 0 00-1.28-.304c-.554 0-1.05.123-1.488.368a2.708 2.708 0 00-1.04 1.04c-.256.437-.384.96-.384 1.568 0 .608.128 1.136.384 1.584.256.448.603.795 1.04 1.04.438.245.934.368 1.488.368.459 0 .886-.096 1.28-.288a2.646 2.646 0 001.024-.928l1.168.736a3.39 3.39 0 01-1.408 1.36c-.597.31-1.28.464-2.048.464zm9.016 0c-.864 0-1.637-.187-2.32-.56A4.136 4.136 0 01379.571 55c-.384-.65-.576-1.397-.576-2.24 0-.843.192-1.59.576-2.24a4.021 4.021 0 011.584-1.52c.683-.373 1.456-.56 2.32-.56.768 0 1.451.155 2.048.464a3.177 3.177 0 011.408 1.344l-1.168.752a2.528 2.528 0 00-1.024-.912 2.76 2.76 0 00-1.28-.304 2.99 2.99 0 00-1.488.368 2.708 2.708 0 00-1.04 1.04c-.256.437-.384.96-.384 1.568 0 .608.128 1.136.384 1.584.256.448.603.795 1.04 1.04a2.99 2.99 0 001.488.368c.459 0 .885-.096 1.28-.288a2.653 2.653 0 001.024-.928l1.168.736c-.331.587-.8 1.04-1.408 1.36-.597.31-1.28.464-2.048.464zm9.096 0c-.907 0-1.707-.187-2.4-.56a4.103 4.103 0 01-1.6-1.536c-.374-.65-.56-1.397-.56-2.24 0-.843.181-1.59.544-2.24.373-.65.88-1.157 1.52-1.52.65-.373 1.381-.56 2.192-.56.821 0 1.546.181 2.176.544a3.79 3.79 0 011.472 1.536c.362.65.544 1.413.544 2.288 0 .064-.006.139-.016.224 0 .085-.006.165-.016.24h-7.216v-1.104h6.416l-.624.384c.01-.544-.102-1.03-.336-1.456a2.498 2.498 0 00-.976-.992c-.406-.245-.88-.368-1.424-.368-.534 0-1.008.123-1.424.368-.416.235-.742.57-.976 1.008-.235.427-.352.917-.352 1.472v.256c0 .565.128 1.072.384 1.52.266.437.634.779 1.104 1.024.469.245 1.008.368 1.616.368a3.47 3.47 0 001.36-.256c.416-.17.778-.427 1.088-.768l.848.992c-.384.448-.864.79-1.44 1.024-.566.235-1.2.352-1.904.352zm8.452 0a6.979 6.979 0 01-2.016-.288c-.629-.192-1.125-.427-1.488-.704l.64-1.216c.363.245.811.453 1.344.624a5.35 5.35 0 001.632.256c.715 0 1.227-.101 1.536-.304.32-.203.48-.485.48-.848 0-.267-.096-.475-.288-.624-.192-.15-.448-.261-.768-.336a10.737 10.737 0 00-1.04-.192 21.961 21.961 0 01-1.152-.224 5.143 5.143 0 01-1.056-.384c-.32-.17-.576-.4-.768-.688-.192-.299-.288-.693-.288-1.184 0-.512.144-.96.432-1.344.288-.384.694-.677 1.216-.88.534-.213 1.163-.32 1.888-.32.555 0 1.115.07 1.68.208.576.128 1.046.315 1.408.56l-.656 1.216a3.624 3.624 0 00-1.2-.528 5.534 5.534 0 00-1.248-.144c-.672 0-1.173.112-1.504.336-.33.213-.496.49-.496.832 0 .288.096.512.288.672.203.15.459.267.768.352.32.085.672.16 1.056.224.384.053.768.128 1.152.224.384.085.731.208 1.04.368.32.16.576.384.768.672.203.288.304.672.304 1.152 0 .512-.149.955-.448 1.328-.298.373-.72.667-1.264.88-.544.203-1.194.304-1.952.304zm8.016 0a6.979 6.979 0 01-2.016-.288c-.629-.192-1.125-.427-1.488-.704l.64-1.216c.363.245.811.453 1.344.624a5.32 5.32 0 001.632.256c.715 0 1.227-.101 1.536-.304.32-.203.48-.485.48-.848 0-.267-.096-.475-.288-.624-.192-.15-.448-.261-.768-.336a10.737 10.737 0 00-1.04-.192 21.961 21.961 0 01-1.152-.224 5.143 5.143 0 01-1.056-.384c-.32-.17-.576-.4-.768-.688-.192-.299-.288-.693-.288-1.184 0-.512.144-.96.432-1.344.288-.384.693-.677 1.216-.88.533-.213 1.163-.32 1.888-.32.555 0 1.115.07 1.68.208.576.128 1.045.315 1.408.56l-.656 1.216a3.624 3.624 0 00-1.2-.528 5.534 5.534 0 00-1.248-.144c-.672 0-1.173.112-1.504.336-.331.213-.496.49-.496.832 0 .288.096.512.288.672.203.15.459.267.768.352.32.085.672.16 1.056.224.384.053.768.128 1.152.224.384.085.731.208 1.04.368.32.16.576.384.768.672.203.288.304.672.304 1.152 0 .512-.149.955-.448 1.328-.299.373-.72.667-1.264.88-.544.203-1.195.304-1.952.304z" fill="#454545"/><path stroke="#DDDDE6" stroke-width="2" d="M336.667 27h98v48h-98z"/><path fill="#F9F9FB" d="M434.667 27H591v48H434.667z"/><path d="M487.013 57V45.8h4.368c.982 0 1.819.155 2.512.464.694.31 1.227.757 1.6 1.344.374.587.56 1.285.56 2.096 0 .81-.186 1.51-.56 2.096-.373.576-.906 1.019-1.6 1.328-.693.31-1.53.464-2.512.464h-3.488l.72-.736V57h-1.6zm7.488 0l-2.848-4.064h1.712l2.88 4.064h-1.744zm-5.888-3.984l-.72-.784h3.44c1.024 0 1.798-.219 2.32-.656.534-.448.8-1.072.8-1.872s-.266-1.419-.8-1.856c-.522-.437-1.296-.656-2.32-.656h-3.44l.72-.8v6.624zM503.6 57v-1.792l-.08-.336v-3.056c0-.65-.192-1.152-.576-1.504-.373-.363-.938-.544-1.696-.544-.501 0-.992.085-1.472.256a3.69 3.69 0 00-1.216.656l-.64-1.152c.438-.352.96-.619 1.568-.8a6.496 6.496 0 011.936-.288c1.163 0 2.059.283 2.688.848.63.565.944 1.43.944 2.592V57H503.6zm-2.784.096c-.629 0-1.184-.107-1.664-.32-.469-.213-.832-.507-1.088-.88a2.284 2.284 0 01-.384-1.296c0-.459.107-.875.32-1.248.224-.373.582-.672 1.072-.896.502-.224 1.174-.336 2.016-.336h2.688v1.104h-2.624c-.768 0-1.285.128-1.552.384-.266.256-.4.565-.4.928 0 .416.166.752.496 1.008.331.245.79.368 1.376.368.576 0 1.078-.128 1.504-.384a2.17 2.17 0 00.944-1.12l.304 1.056c-.202.501-.56.901-1.072 1.2-.512.288-1.157.432-1.936.432zm9.995 0c-.854 0-1.515-.23-1.984-.688-.47-.459-.704-1.115-.704-1.968v-7.776h1.536v7.712c0 .459.112.81.336 1.056.234.245.565.368.992.368.48 0 .88-.133 1.2-.4l.48 1.104a2.235 2.235 0 01-.848.448 3.49 3.49 0 01-1.008.144zm-4.128-7.312V48.52h5.408v1.264h-5.408zM514.524 57v-8.48h1.536V57h-1.536zm.768-10.112a1.05 1.05 0 01-.752-.288.958.958 0 01-.288-.704c0-.288.096-.528.288-.72a1.05 1.05 0 01.752-.288c.298 0 .544.096.736.288.202.181.304.41.304.688 0 .288-.096.533-.288.736-.192.192-.443.288-.752.288zm8.228 1.552c.694 0 1.302.133 1.824.4.534.267.95.672 1.248 1.216.299.544.448 1.232.448 2.064V57h-1.536v-4.704c0-.821-.202-1.44-.608-1.856-.394-.416-.954-.624-1.68-.624-.544 0-1.018.107-1.424.32a2.24 2.24 0 00-.944.944c-.213.416-.32.933-.32 1.552V57h-1.536v-8.48h1.472v2.288l-.24-.608a2.948 2.948 0 011.28-1.296c.576-.31 1.248-.464 2.016-.464zm10.075 11.76a7.759 7.759 0 01-2.272-.336c-.725-.213-1.317-.523-1.776-.928l.736-1.184c.395.341.88.608 1.456.8a5.408 5.408 0 001.808.304c1.003 0 1.739-.235 2.208-.704.469-.47.704-1.184.704-2.144v-1.792l.16-1.68-.08-1.696v-2.32h1.456v7.328c0 1.493-.373 2.592-1.12 3.296-.747.704-1.84 1.056-3.28 1.056zm-.192-3.552c-.821 0-1.557-.17-2.208-.512a4.108 4.108 0 01-1.536-1.456c-.373-.619-.56-1.333-.56-2.144 0-.821.187-1.536.56-2.144a3.985 3.985 0 011.536-1.44c.651-.341 1.387-.512 2.208-.512.725 0 1.387.15 1.984.448a3.262 3.262 0 011.424 1.344c.363.608.544 1.376.544 2.304 0 .917-.181 1.68-.544 2.288a3.466 3.466 0 01-1.424 1.376 4.373 4.373 0 01-1.984.448zm.176-1.344c.565 0 1.067-.117 1.504-.352a2.58 2.58 0 001.024-.976c.256-.416.384-.896.384-1.44 0-.544-.128-1.024-.384-1.44a2.47 2.47 0 00-1.024-.96c-.437-.235-.939-.352-1.504-.352-.565 0-1.072.117-1.52.352a2.58 2.58 0 00-1.04.96c-.245.416-.368.896-.368 1.44 0 .544.123 1.024.368 1.44.256.416.603.741 1.04.976.448.235.955.352 1.52.352z" fill="#454545"/><path stroke="#DDDDE6" stroke-width="2" d="M434.667 27H591v48H434.667z"/></g><g clip-path="url(#clip2_122_371)"><path fill="#fff" d="M24 75h156.333v55H24z"/><path d="M41.052 108.5V95.9h1.332v12.6h-1.332zm8.15.09c-.888 0-1.572-.24-2.052-.72s-.72-1.158-.72-2.034v-8.874h1.278v8.802c0 .552.138.978.414 1.278.288.3.696.45 1.224.45.564 0 1.032-.162 1.404-.486l.45.918a2.354 2.354 0 01-.918.504 3.623 3.623 0 01-1.08.162zm-4.464-8.478V99.05h5.85v1.062h-5.85zm12.468 8.478c-.984 0-1.848-.204-2.592-.612a4.597 4.597 0 01-1.746-1.71c-.42-.732-.63-1.566-.63-2.502 0-.936.198-1.764.594-2.484.408-.72.96-1.284 1.656-1.692.708-.42 1.5-.63 2.376-.63.888 0 1.674.204 2.358.612.696.396 1.242.96 1.638 1.692.396.72.594 1.554.594 2.502 0 .06-.006.126-.018.198v.198H53.21v-.954h7.542l-.504.378c0-.684-.15-1.29-.45-1.818a3.166 3.166 0 00-1.188-1.26c-.504-.3-1.086-.45-1.746-.45-.648 0-1.23.15-1.746.45-.516.3-.918.72-1.206 1.26-.288.54-.432 1.158-.432 1.854v.198c0 .72.156 1.356.468 1.908.324.54.768.966 1.332 1.278.576.3 1.23.45 1.962.45.576 0 1.11-.102 1.602-.306a3.332 3.332 0 001.296-.936l.72.828c-.42.504-.948.888-1.584 1.152a5.26 5.26 0 01-2.07.396zm18.657-9.63c.768 0 1.434.15 1.998.45a2.98 2.98 0 011.332 1.332c.324.6.486 1.356.486 2.268v5.49h-1.278v-5.364c0-.996-.24-1.746-.72-2.25-.468-.516-1.134-.774-1.998-.774-.648 0-1.212.138-1.692.414a2.73 2.73 0 00-1.098 1.17c-.252.504-.378 1.116-.378 1.836v4.968h-1.278v-5.364c0-.996-.24-1.746-.72-2.25-.48-.516-1.152-.774-2.016-.774-.636 0-1.194.138-1.674.414a2.7 2.7 0 00-1.116 1.17c-.252.504-.378 1.116-.378 1.836v4.968h-1.278v-9.45h1.224v2.556l-.198-.45a3.342 3.342 0 011.386-1.602c.648-.396 1.41-.594 2.286-.594.924 0 1.71.234 2.358.702.648.456 1.068 1.146 1.26 2.07l-.504-.198a3.693 3.693 0 011.458-1.854c.708-.48 1.554-.72 2.538-.72zm16.817 0c.768 0 1.44.15 2.016.45a3.057 3.057 0 011.368 1.332c.336.6.504 1.356.504 2.268v5.49H95.29v-5.364c0-.996-.252-1.746-.756-2.25-.492-.516-1.188-.774-2.088-.774-.672 0-1.26.138-1.764.414a2.779 2.779 0 00-1.152 1.17c-.264.504-.396 1.116-.396 1.836v4.968h-1.278v-9.45h1.224v2.592l-.198-.486a3.39 3.39 0 011.44-1.602c.66-.396 1.446-.594 2.358-.594zm13.262 9.54v-2.088l-.054-.342v-3.492c0-.804-.228-1.422-.684-1.854-.444-.432-1.11-.648-1.998-.648-.612 0-1.194.102-1.746.306a4.448 4.448 0 00-1.404.81l-.576-.954a4.99 4.99 0 011.728-.936 6.566 6.566 0 012.124-.342c1.224 0 2.166.306 2.826.918.672.6 1.008 1.518 1.008 2.754v5.868h-1.224zm-3.258.09c-.708 0-1.326-.114-1.854-.342-.516-.24-.912-.564-1.188-.972-.276-.42-.414-.9-.414-1.44 0-.492.114-.936.342-1.332.24-.408.624-.732 1.152-.972.54-.252 1.26-.378 2.16-.378h3.258v.954h-3.222c-.912 0-1.548.162-1.908.486a1.581 1.581 0 00-.522 1.206c0 .54.21.972.63 1.296.42.324 1.008.486 1.764.486.72 0 1.338-.162 1.854-.486.528-.336.912-.816 1.152-1.44l.288.882c-.24.624-.66 1.122-1.26 1.494-.588.372-1.332.558-2.232.558zm19.761-9.63c.768 0 1.434.15 1.998.45a2.98 2.98 0 011.332 1.332c.324.6.486 1.356.486 2.268v5.49h-1.278v-5.364c0-.996-.24-1.746-.72-2.25-.468-.516-1.134-.774-1.998-.774-.648 0-1.212.138-1.692.414a2.73 2.73 0 00-1.098 1.17c-.252.504-.378 1.116-.378 1.836v4.968h-1.278v-5.364c0-.996-.24-1.746-.72-2.25-.48-.516-1.152-.774-2.016-.774-.636 0-1.194.138-1.674.414a2.7 2.7 0 00-1.116 1.17c-.252.504-.378 1.116-.378 1.836v4.968h-1.278v-9.45h1.224v2.556l-.198-.45a3.342 3.342 0 011.386-1.602c.648-.396 1.41-.594 2.286-.594.924 0 1.71.234 2.358.702.648.456 1.068 1.146 1.26 2.07l-.504-.198a3.693 3.693 0 011.458-1.854c.708-.48 1.554-.72 2.538-.72zm11.296 9.63c-.984 0-1.848-.204-2.592-.612a4.597 4.597 0 01-1.746-1.71c-.42-.732-.63-1.566-.63-2.502 0-.936.198-1.764.594-2.484.408-.72.96-1.284 1.656-1.692.708-.42 1.5-.63 2.376-.63.888 0 1.674.204 2.358.612.696.396 1.242.96 1.638 1.692.396.72.594 1.554.594 2.502 0 .06-.006.126-.018.198v.198h-8.226v-.954h7.542l-.504.378c0-.684-.15-1.29-.45-1.818a3.166 3.166 0 00-1.188-1.26c-.504-.3-1.086-.45-1.746-.45-.648 0-1.23.15-1.746.45-.516.3-.918.72-1.206 1.26-.288.54-.432 1.158-.432 1.854v.198c0 .72.156 1.356.468 1.908.324.54.768.966 1.332 1.278.576.3 1.23.45 1.962.45.576 0 1.11-.102 1.602-.306a3.332 3.332 0 001.296-.936l.72.828c-.42.504-.948.888-1.584 1.152a5.26 5.26 0 01-2.07.396zm12.911-.09V96.44l.576.612h-3.546V95.9h4.266v12.6h-1.296z" fill="#454545"/><path stroke="#DDDDE6" stroke-width="2" d="M24 75h156.333v55H24z"/><path fill="#fff" d="M180.333 75h156.333v55H180.333z"/><path d="M200.89 108.5V95.9h1.476l8.334 10.35h-.774V95.9h1.8v12.6h-1.476l-8.334-10.35h.774v10.35h-1.8zm18.441.108c-.96 0-1.812-.21-2.556-.63a4.69 4.69 0 01-1.764-1.728c-.432-.744-.648-1.584-.648-2.52 0-.948.216-1.788.648-2.52a4.557 4.557 0 011.764-1.71c.744-.42 1.596-.63 2.556-.63.948 0 1.794.21 2.538.63a4.4 4.4 0 011.764 1.71c.432.72.648 1.56.648 2.52 0 .948-.216 1.788-.648 2.52a4.524 4.524 0 01-1.764 1.728c-.744.42-1.59.63-2.538.63zm0-1.512c.612 0 1.158-.138 1.638-.414a2.922 2.922 0 001.152-1.17c.276-.516.414-1.11.414-1.782 0-.684-.138-1.272-.414-1.764a2.922 2.922 0 00-1.152-1.17c-.48-.276-1.026-.414-1.638-.414-.612 0-1.158.138-1.638.414-.48.276-.864.666-1.152 1.17-.288.492-.432 1.08-.432 1.764 0 .672.144 1.266.432 1.782.288.504.672.894 1.152 1.17.48.276 1.026.414 1.638.414zm10.616 1.512c-.96 0-1.704-.258-2.232-.774-.528-.516-.792-1.254-.792-2.214v-8.748h1.728v8.676c0 .516.126.912.378 1.188.264.276.636.414 1.116.414.54 0 .99-.15 1.35-.45l.54 1.242a2.506 2.506 0 01-.954.504c-.36.108-.738.162-1.134.162zm-4.644-8.226V98.96h6.084v1.422h-6.084zm19.577 8.118v-2.016l-.09-.378v-3.438c0-.732-.216-1.296-.648-1.692-.42-.408-1.056-.612-1.908-.612-.564 0-1.116.096-1.656.288a4.14 4.14 0 00-1.368.738l-.72-1.296a5.105 5.105 0 011.764-.9 7.306 7.306 0 012.178-.324c1.308 0 2.316.318 3.024.954.708.636 1.062 1.608 1.062 2.916v5.76h-1.638zm-3.132.108c-.708 0-1.332-.12-1.872-.36-.528-.24-.936-.57-1.224-.99a2.57 2.57 0 01-.432-1.458c0-.516.12-.984.36-1.404.252-.42.654-.756 1.206-1.008.564-.252 1.32-.378 2.268-.378h3.024v1.242h-2.952c-.864 0-1.446.144-1.746.432-.3.288-.45.636-.45 1.044 0 .468.186.846.558 1.134.372.276.888.414 1.548.414.648 0 1.212-.144 1.692-.432a2.446 2.446 0 001.062-1.26l.342 1.188c-.228.564-.63 1.014-1.206 1.35-.576.324-1.302.486-2.178.486zm10.294-.108l-4.176-9.54h1.8l3.708 8.64h-.864l3.78-8.64h1.692l-4.176 9.54h-1.764zm13.176 0v-2.016l-.09-.378v-3.438c0-.732-.216-1.296-.648-1.692-.42-.408-1.056-.612-1.908-.612-.564 0-1.116.096-1.656.288a4.14 4.14 0 00-1.368.738l-.72-1.296a5.105 5.105 0 011.764-.9 7.306 7.306 0 012.178-.324c1.308 0 2.316.318 3.024.954.708.636 1.062 1.608 1.062 2.916v5.76h-1.638zm-3.132.108c-.708 0-1.332-.12-1.872-.36-.528-.24-.936-.57-1.224-.99a2.57 2.57 0 01-.432-1.458c0-.516.12-.984.36-1.404.252-.42.654-.756 1.206-1.008.564-.252 1.32-.378 2.268-.378h3.024v1.242h-2.952c-.864 0-1.446.144-1.746.432-.3.288-.45.636-.45 1.044 0 .468.186.846.558 1.134.372.276.888.414 1.548.414.648 0 1.212-.144 1.692-.432a2.446 2.446 0 001.062-1.26l.342 1.188c-.228.564-.63 1.014-1.206 1.35-.576.324-1.302.486-2.178.486zm7.968-.108v-9.54h1.728v9.54h-1.728zm.864-11.376c-.336 0-.618-.108-.846-.324a1.077 1.077 0 01-.324-.792c0-.324.108-.594.324-.81.228-.216.51-.324.846-.324.336 0 .612.108.828.324a.994.994 0 01.342.774c0 .324-.108.6-.324.828-.216.216-.498.324-.846.324zm4.163 11.376V95.144h1.728V108.5h-1.728zm10.95 0v-2.016l-.09-.378v-3.438c0-.732-.216-1.296-.648-1.692-.42-.408-1.056-.612-1.908-.612-.564 0-1.116.096-1.656.288a4.14 4.14 0 00-1.368.738l-.72-1.296a5.105 5.105 0 011.764-.9 7.306 7.306 0 012.178-.324c1.308 0 2.316.318 3.024.954.708.636 1.062 1.608 1.062 2.916v5.76h-1.638zm-3.132.108c-.708 0-1.332-.12-1.872-.36-.528-.24-.936-.57-1.224-.99a2.57 2.57 0 01-.432-1.458c0-.516.12-.984.36-1.404.252-.42.654-.756 1.206-1.008.564-.252 1.32-.378 2.268-.378h3.024v1.242h-2.952c-.864 0-1.446.144-1.746.432-.3.288-.45.636-.45 1.044 0 .468.186.846.558 1.134.372.276.888.414 1.548.414.648 0 1.212-.144 1.692-.432a2.446 2.446 0 001.062-1.26l.342 1.188c-.228.564-.63 1.014-1.206 1.35-.576.324-1.302.486-2.178.486zm13.026 0c-.816 0-1.554-.18-2.214-.54-.648-.372-1.164-.918-1.548-1.638-.372-.72-.558-1.62-.558-2.7s.192-1.98.576-2.7c.396-.72.918-1.26 1.566-1.62.66-.36 1.386-.54 2.178-.54.936 0 1.764.204 2.484.612a4.5 4.5 0 011.71 1.71c.42.72.63 1.566.63 2.538 0 .972-.21 1.824-.63 2.556a4.5 4.5 0 01-1.71 1.71c-.72.408-1.548.612-2.484.612zm-5.058-.108V95.144h1.728v6.354l-.18 2.214.108 2.214v2.574h-1.656zm4.914-1.404c.612 0 1.158-.138 1.638-.414a2.922 2.922 0 001.152-1.17c.288-.516.432-1.11.432-1.782 0-.684-.144-1.272-.432-1.764a2.922 2.922 0 00-1.152-1.17c-.48-.276-1.026-.414-1.638-.414-.6 0-1.146.138-1.638.414-.48.276-.864.666-1.152 1.17-.276.492-.414 1.08-.414 1.764 0 .672.138 1.266.414 1.782.288.504.672.894 1.152 1.17a3.29 3.29 0 001.638.414zm7.355 1.404V95.144h1.728V108.5h-1.728zm9.275.108c-1.02 0-1.92-.21-2.7-.63a4.62 4.62 0 01-1.8-1.728c-.42-.732-.63-1.572-.63-2.52s.204-1.788.612-2.52a4.5 4.5 0 011.71-1.71c.732-.42 1.554-.63 2.466-.63.924 0 1.74.204 2.448.612.708.408 1.26.984 1.656 1.728.408.732.612 1.59.612 2.574 0 .072-.006.156-.018.252 0 .096-.006.186-.018.27h-8.118v-1.242h7.218l-.702.432c.012-.612-.114-1.158-.378-1.638a2.807 2.807 0 00-1.098-1.116c-.456-.276-.99-.414-1.602-.414-.6 0-1.134.138-1.602.414a2.779 2.779 0 00-1.098 1.134c-.264.48-.396 1.032-.396 1.656v.288c0 .636.144 1.206.432 1.71.3.492.714.876 1.242 1.152.528.276 1.134.414 1.818.414.564 0 1.074-.096 1.53-.288.468-.192.876-.48 1.224-.864l.954 1.116a4.166 4.166 0 01-1.62 1.152c-.636.264-1.35.396-2.142.396z" fill="#454545"/><path stroke="#DDDDE6" stroke-width="2" d="M180.333 75h156.333v55H180.333z"/><path fill="#fff" d="M336.667 75h98v55h-98z"/><g clip-path="url(#clip3_122_371)" stroke="#F82C2C"><circle cx="385.667" cy="102.5" r="12" fill="#F82C2C" fill-opacity=".1"/><path d="M381.917 98.75l3.75 3.75m3.75 3.75l-3.75-3.75m0 0l3.75-3.75m-3.75 3.75l-3.75 3.75" stroke-width="2"/></g><path stroke="#DDDDE6" stroke-width="2" d="M336.667 75h98v55h-98z"/><path fill="#fff" d="M434.667 75H591v55H434.667z"/><path d="M466.833 92.5l2.975 5.906 6.536 1.004-4.698 4.654 1.065 6.526-5.878-3.03-5.878 3.03 1.066-6.526-4.698-4.654 6.536-1.004 2.974-5.906zm23 0l2.975 5.906 6.536 1.004-4.698 4.654 1.065 6.526-5.878-3.03-5.878 3.03 1.066-6.526-4.698-4.654 6.536-1.004 2.974-5.906zm23 0l2.975 5.906 6.536 1.004-4.698 4.654 1.065 6.526-5.878-3.03-5.878 3.03 1.066-6.526-4.698-4.654 6.536-1.004 2.974-5.906zm23 0l2.975 5.906 6.536 1.004-4.698 4.654 1.065 6.526-5.878-3.03-5.878 3.03 1.066-6.526-4.698-4.654 6.536-1.004 2.974-5.906zm23 0l2.975 5.906 6.536 1.004-4.698 4.654 1.065 6.526-5.878-3.03-5.878 3.03 1.066-6.526-4.698-4.654 6.536-1.004 2.974-5.906z" fill="#F28100"/><path stroke="#DDDDE6" stroke-width="2" d="M434.667 75H591v55H434.667z"/></g><path stroke="#DDDDE6" stroke-width="2" d="M24 75h567v55H24z"/><g clip-path="url(#clip4_122_371)"><path fill="#fff" d="M24 130h156.333v55H24z"/><path d="M41.052 163.5v-12.6h1.332v12.6h-1.332zm8.15.09c-.888 0-1.572-.24-2.052-.72s-.72-1.158-.72-2.034v-8.874h1.278v8.802c0 .552.138.978.414 1.278.288.3.696.45 1.224.45.564 0 1.032-.162 1.404-.486l.45.918a2.354 2.354 0 01-.918.504 3.623 3.623 0 01-1.08.162zm-4.464-8.478v-1.062h5.85v1.062h-5.85zm12.468 8.478c-.984 0-1.848-.204-2.592-.612a4.597 4.597 0 01-1.746-1.71c-.42-.732-.63-1.566-.63-2.502 0-.936.198-1.764.594-2.484.408-.72.96-1.284 1.656-1.692.708-.42 1.5-.63 2.376-.63.888 0 1.674.204 2.358.612.696.396 1.242.96 1.638 1.692.396.72.594 1.554.594 2.502 0 .06-.006.126-.018.198v.198H53.21v-.954h7.542l-.504.378c0-.684-.15-1.29-.45-1.818a3.166 3.166 0 00-1.188-1.26c-.504-.3-1.086-.45-1.746-.45-.648 0-1.23.15-1.746.45-.516.3-.918.72-1.206 1.26-.288.54-.432 1.158-.432 1.854v.198c0 .72.156 1.356.468 1.908.324.54.768.966 1.332 1.278.576.3 1.23.45 1.962.45.576 0 1.11-.102 1.602-.306a3.332 3.332 0 001.296-.936l.72.828c-.42.504-.948.888-1.584 1.152a5.26 5.26 0 01-2.07.396zm18.657-9.63c.768 0 1.434.15 1.998.45a2.98 2.98 0 011.332 1.332c.324.6.486 1.356.486 2.268v5.49h-1.278v-5.364c0-.996-.24-1.746-.72-2.25-.468-.516-1.134-.774-1.998-.774-.648 0-1.212.138-1.692.414a2.73 2.73 0 00-1.098 1.17c-.252.504-.378 1.116-.378 1.836v4.968h-1.278v-5.364c0-.996-.24-1.746-.72-2.25-.48-.516-1.152-.774-2.016-.774-.636 0-1.194.138-1.674.414a2.7 2.7 0 00-1.116 1.17c-.252.504-.378 1.116-.378 1.836v4.968h-1.278v-9.45h1.224v2.556l-.198-.45a3.342 3.342 0 011.386-1.602c.648-.396 1.41-.594 2.286-.594.924 0 1.71.234 2.358.702.648.456 1.068 1.146 1.26 2.07l-.504-.198a3.693 3.693 0 011.458-1.854c.708-.48 1.554-.72 2.538-.72zm16.817 0c.768 0 1.44.15 2.016.45a3.057 3.057 0 011.368 1.332c.336.6.504 1.356.504 2.268v5.49H95.29v-5.364c0-.996-.252-1.746-.756-2.25-.492-.516-1.188-.774-2.088-.774-.672 0-1.26.138-1.764.414a2.779 2.779 0 00-1.152 1.17c-.264.504-.396 1.116-.396 1.836v4.968h-1.278v-9.45h1.224v2.592l-.198-.486a3.39 3.39 0 011.44-1.602c.66-.396 1.446-.594 2.358-.594zm13.262 9.54v-2.088l-.054-.342v-3.492c0-.804-.228-1.422-.684-1.854-.444-.432-1.11-.648-1.998-.648-.612 0-1.194.102-1.746.306a4.448 4.448 0 00-1.404.81l-.576-.954a4.99 4.99 0 011.728-.936 6.566 6.566 0 012.124-.342c1.224 0 2.166.306 2.826.918.672.6 1.008 1.518 1.008 2.754v5.868h-1.224zm-3.258.09c-.708 0-1.326-.114-1.854-.342-.516-.24-.912-.564-1.188-.972-.276-.42-.414-.9-.414-1.44 0-.492.114-.936.342-1.332.24-.408.624-.732 1.152-.972.54-.252 1.26-.378 2.16-.378h3.258v.954h-3.222c-.912 0-1.548.162-1.908.486a1.581 1.581 0 00-.522 1.206c0 .54.21.972.63 1.296.42.324 1.008.486 1.764.486.72 0 1.338-.162 1.854-.486.528-.336.912-.816 1.152-1.44l.288.882c-.24.624-.66 1.122-1.26 1.494-.588.372-1.332.558-2.232.558zm19.761-9.63c.768 0 1.434.15 1.998.45a2.98 2.98 0 011.332 1.332c.324.6.486 1.356.486 2.268v5.49h-1.278v-5.364c0-.996-.24-1.746-.72-2.25-.468-.516-1.134-.774-1.998-.774-.648 0-1.212.138-1.692.414a2.73 2.73 0 00-1.098 1.17c-.252.504-.378 1.116-.378 1.836v4.968h-1.278v-5.364c0-.996-.24-1.746-.72-2.25-.48-.516-1.152-.774-2.016-.774-.636 0-1.194.138-1.674.414a2.7 2.7 0 00-1.116 1.17c-.252.504-.378 1.116-.378 1.836v4.968h-1.278v-9.45h1.224v2.556l-.198-.45a3.342 3.342 0 011.386-1.602c.648-.396 1.41-.594 2.286-.594.924 0 1.71.234 2.358.702.648.456 1.068 1.146 1.26 2.07l-.504-.198a3.693 3.693 0 011.458-1.854c.708-.48 1.554-.72 2.538-.72zm11.296 9.63c-.984 0-1.848-.204-2.592-.612a4.597 4.597 0 01-1.746-1.71c-.42-.732-.63-1.566-.63-2.502 0-.936.198-1.764.594-2.484.408-.72.96-1.284 1.656-1.692.708-.42 1.5-.63 2.376-.63.888 0 1.674.204 2.358.612.696.396 1.242.96 1.638 1.692.396.72.594 1.554.594 2.502 0 .06-.006.126-.018.198v.198h-8.226v-.954h7.542l-.504.378c0-.684-.15-1.29-.45-1.818a3.166 3.166 0 00-1.188-1.26c-.504-.3-1.086-.45-1.746-.45-.648 0-1.23.15-1.746.45-.516.3-.918.72-1.206 1.26-.288.54-.432 1.158-.432 1.854v.198c0 .72.156 1.356.468 1.908.324.54.768.966 1.332 1.278.576.3 1.23.45 1.962.45.576 0 1.11-.102 1.602-.306a3.332 3.332 0 001.296-.936l.72.828c-.42.504-.948.888-1.584 1.152a5.26 5.26 0 01-2.07.396zm10.481-.09v-.918l5.238-5.13c.48-.468.84-.876 1.08-1.224.24-.36.402-.696.486-1.008.084-.312.126-.606.126-.882 0-.732-.252-1.308-.756-1.728-.492-.42-1.224-.63-2.196-.63-.744 0-1.404.114-1.98.342a3.725 3.725 0 00-1.458 1.062l-.918-.792c.492-.576 1.122-1.02 1.89-1.332.768-.312 1.626-.468 2.574-.468.852 0 1.59.138 2.214.414.624.264 1.104.654 1.44 1.17.348.516.522 1.122.522 1.818 0 .408-.06.81-.18 1.206-.108.396-.312.816-.612 1.26-.288.432-.714.924-1.278 1.476l-4.806 4.716-.36-.504h7.812v1.152h-8.838z" fill="#454545"/><path stroke="#DDDDE6" stroke-width="2" d="M24 130h156.333v55H24z"/><path fill="#fff" d="M180.333 130h156.333v55H180.333z"/><path d="M224.39 163.5v-12.6h1.8v12.6h-1.8zm10.414-9.63c.78 0 1.464.15 2.052.45.6.3 1.068.756 1.404 1.368.336.612.504 1.386.504 2.322v5.49h-1.728v-5.292c0-.924-.228-1.62-.684-2.088-.444-.468-1.074-.702-1.89-.702-.612 0-1.146.12-1.602.36-.456.24-.81.594-1.062 1.062-.24.468-.36 1.05-.36 1.746v4.914h-1.728v-9.54h1.656v2.574l-.27-.684a3.313 3.313 0 011.44-1.458c.648-.348 1.404-.522 2.268-.522zm14.728 9.738a7.85 7.85 0 01-2.268-.324c-.708-.216-1.266-.48-1.674-.792l.72-1.368c.408.276.912.51 1.512.702a5.99 5.99 0 001.836.288c.804 0 1.38-.114 1.728-.342.36-.228.54-.546.54-.954 0-.3-.108-.534-.324-.702-.216-.168-.504-.294-.864-.378a12.123 12.123 0 00-1.17-.216 24.668 24.668 0 01-1.296-.252 5.786 5.786 0 01-1.188-.432 2.343 2.343 0 01-.864-.774c-.216-.336-.324-.78-.324-1.332 0-.576.162-1.08.486-1.512.324-.432.78-.762 1.368-.99.6-.24 1.308-.36 2.124-.36.624 0 1.254.078 1.89.234.648.144 1.176.354 1.584.63l-.738 1.368a4.077 4.077 0 00-1.35-.594 6.226 6.226 0 00-1.404-.162c-.756 0-1.32.126-1.692.378-.372.24-.558.552-.558.936 0 .324.108.576.324.756.228.168.516.3.864.396.36.096.756.18 1.188.252.432.06.864.144 1.296.252.432.096.822.234 1.17.414.36.18.648.432.864.756.228.324.342.756.342 1.296 0 .576-.168 1.074-.504 1.494-.336.42-.81.75-1.422.99-.612.228-1.344.342-2.196.342zm9.558 0c-.96 0-1.704-.258-2.232-.774-.528-.516-.792-1.254-.792-2.214v-8.748h1.728v8.676c0 .516.126.912.378 1.188.264.276.636.414 1.116.414.54 0 .99-.15 1.35-.45l.54 1.242a2.506 2.506 0 01-.954.504c-.36.108-.738.162-1.134.162zm-4.644-8.226v-1.422h6.084v1.422h-6.084zm12.591 8.226c-.96 0-1.812-.21-2.556-.63a4.69 4.69 0 01-1.764-1.728c-.432-.744-.648-1.584-.648-2.52 0-.948.216-1.788.648-2.52a4.557 4.557 0 011.764-1.71c.744-.42 1.596-.63 2.556-.63.948 0 1.794.21 2.538.63a4.4 4.4 0 011.764 1.71c.432.72.648 1.56.648 2.52 0 .948-.216 1.788-.648 2.52a4.524 4.524 0 01-1.764 1.728c-.744.42-1.59.63-2.538.63zm0-1.512c.612 0 1.158-.138 1.638-.414a2.922 2.922 0 001.152-1.17c.276-.516.414-1.11.414-1.782 0-.684-.138-1.272-.414-1.764a2.922 2.922 0 00-1.152-1.17c-.48-.276-1.026-.414-1.638-.414-.612 0-1.158.138-1.638.414-.48.276-.864.666-1.152 1.17-.288.492-.432 1.08-.432 1.764 0 .672.144 1.266.432 1.782.288.504.672.894 1.152 1.17.48.276 1.026.414 1.638.414zm11.497 1.512c-.972 0-1.842-.21-2.61-.63a4.653 4.653 0 01-1.782-1.728c-.432-.732-.648-1.572-.648-2.52s.216-1.788.648-2.52a4.524 4.524 0 011.782-1.71c.768-.42 1.638-.63 2.61-.63.864 0 1.632.174 2.304.522.684.336 1.212.84 1.584 1.512l-1.314.846c-.312-.468-.696-.81-1.152-1.026a3.106 3.106 0 00-1.44-.342c-.624 0-1.182.138-1.674.414a3.045 3.045 0 00-1.17 1.17c-.288.492-.432 1.08-.432 1.764 0 .684.144 1.278.432 1.782.288.504.678.894 1.17 1.17.492.276 1.05.414 1.674.414.516 0 .996-.108 1.44-.324.456-.228.84-.576 1.152-1.044l1.314.828c-.372.66-.9 1.17-1.584 1.53-.672.348-1.44.522-2.304.522zm7.406-2.412l.036-2.214 5.49-5.022h2.088l-4.212 4.14-.936.792-2.466 2.304zm-1.404 2.304v-13.356h1.728V163.5h-1.728zm7.29 0l-3.744-4.644 1.116-1.386 4.752 6.03h-2.124z" fill="#454545"/><path stroke="#DDDDE6" stroke-width="2" d="M180.333 130h156.333v55H180.333z"/><path fill="#fff" d="M336.667 130h98v55h-98z"/><g clip-path="url(#clip5_122_371)" stroke="#80DA39"><circle cx="385.667" cy="157.5" r="12" fill="#80DA39" fill-opacity=".1"/><path d="M381.167 157l3.5 3.5 6.5-6.5" stroke-width="2"/></g><path stroke="#DDDDE6" stroke-width="2" d="M336.667 130h98v55h-98z"/><path fill="#fff" d="M434.667 130H591v55H434.667z"/><path d="M466.833 147.5l2.975 5.906 6.536 1.004-4.698 4.654 1.065 6.526-5.878-3.03-5.878 3.03 1.066-6.526-4.698-4.654 6.536-1.004 2.974-5.906zm23 0l2.975 5.906 6.536 1.004-4.698 4.654 1.065 6.526-5.878-3.03-5.878 3.03 1.066-6.526-4.698-4.654 6.536-1.004 2.974-5.906z" fill="#F28100"/><path d="M512.833 147.5l2.975 5.906 6.536 1.004-4.698 4.654 1.065 6.526-5.878-3.03-5.878 3.03 1.066-6.526-4.698-4.654 6.536-1.004 2.974-5.906zm23 0l2.975 5.906 6.536 1.004-4.698 4.654 1.065 6.526-5.878-3.03-5.878 3.03 1.066-6.526-4.698-4.654 6.536-1.004 2.974-5.906zm23 0l2.975 5.906 6.536 1.004-4.698 4.654 1.065 6.526-5.878-3.03-5.878 3.03 1.066-6.526-4.698-4.654 6.536-1.004 2.974-5.906z" fill="#D5D5E4"/><path stroke="#DDDDE6" stroke-width="2" d="M434.667 130H591v55H434.667z"/></g><path stroke="#DDDDE6" stroke-width="2" d="M24 130h567v55H24z"/><g clip-path="url(#clip6_122_371)"><path fill="#fff" d="M24 185h156.333v55H24z"/><path d="M41.052 218.5v-12.6h1.332v12.6h-1.332zm8.15.09c-.888 0-1.572-.24-2.052-.72s-.72-1.158-.72-2.034v-8.874h1.278v8.802c0 .552.138.978.414 1.278.288.3.696.45 1.224.45.564 0 1.032-.162 1.404-.486l.45.918a2.354 2.354 0 01-.918.504 3.623 3.623 0 01-1.08.162zm-4.464-8.478v-1.062h5.85v1.062h-5.85zm12.468 8.478c-.984 0-1.848-.204-2.592-.612a4.597 4.597 0 01-1.746-1.71c-.42-.732-.63-1.566-.63-2.502 0-.936.198-1.764.594-2.484.408-.72.96-1.284 1.656-1.692.708-.42 1.5-.63 2.376-.63.888 0 1.674.204 2.358.612.696.396 1.242.96 1.638 1.692.396.72.594 1.554.594 2.502 0 .06-.006.126-.018.198v.198H53.21v-.954h7.542l-.504.378c0-.684-.15-1.29-.45-1.818a3.166 3.166 0 00-1.188-1.26c-.504-.3-1.086-.45-1.746-.45-.648 0-1.23.15-1.746.45-.516.3-.918.72-1.206 1.26-.288.54-.432 1.158-.432 1.854v.198c0 .72.156 1.356.468 1.908.324.54.768.966 1.332 1.278.576.3 1.23.45 1.962.45.576 0 1.11-.102 1.602-.306a3.332 3.332 0 001.296-.936l.72.828c-.42.504-.948.888-1.584 1.152a5.26 5.26 0 01-2.07.396zm18.657-9.63c.768 0 1.434.15 1.998.45a2.98 2.98 0 011.332 1.332c.324.6.486 1.356.486 2.268v5.49h-1.278v-5.364c0-.996-.24-1.746-.72-2.25-.468-.516-1.134-.774-1.998-.774-.648 0-1.212.138-1.692.414a2.73 2.73 0 00-1.098 1.17c-.252.504-.378 1.116-.378 1.836v4.968h-1.278v-5.364c0-.996-.24-1.746-.72-2.25-.48-.516-1.152-.774-2.016-.774-.636 0-1.194.138-1.674.414a2.7 2.7 0 00-1.116 1.17c-.252.504-.378 1.116-.378 1.836v4.968h-1.278v-9.45h1.224v2.556l-.198-.45a3.342 3.342 0 011.386-1.602c.648-.396 1.41-.594 2.286-.594.924 0 1.71.234 2.358.702.648.456 1.068 1.146 1.26 2.07l-.504-.198a3.693 3.693 0 011.458-1.854c.708-.48 1.554-.72 2.538-.72zm16.817 0c.768 0 1.44.15 2.016.45a3.057 3.057 0 011.368 1.332c.336.6.504 1.356.504 2.268v5.49H95.29v-5.364c0-.996-.252-1.746-.756-2.25-.492-.516-1.188-.774-2.088-.774-.672 0-1.26.138-1.764.414a2.779 2.779 0 00-1.152 1.17c-.264.504-.396 1.116-.396 1.836v4.968h-1.278v-9.45h1.224v2.592l-.198-.486a3.39 3.39 0 011.44-1.602c.66-.396 1.446-.594 2.358-.594zm13.262 9.54v-2.088l-.054-.342v-3.492c0-.804-.228-1.422-.684-1.854-.444-.432-1.11-.648-1.998-.648-.612 0-1.194.102-1.746.306a4.448 4.448 0 00-1.404.81l-.576-.954a4.99 4.99 0 011.728-.936 6.566 6.566 0 012.124-.342c1.224 0 2.166.306 2.826.918.672.6 1.008 1.518 1.008 2.754v5.868h-1.224zm-3.258.09c-.708 0-1.326-.114-1.854-.342-.516-.24-.912-.564-1.188-.972-.276-.42-.414-.9-.414-1.44 0-.492.114-.936.342-1.332.24-.408.624-.732 1.152-.972.54-.252 1.26-.378 2.16-.378h3.258v.954h-3.222c-.912 0-1.548.162-1.908.486a1.581 1.581 0 00-.522 1.206c0 .54.21.972.63 1.296.42.324 1.008.486 1.764.486.72 0 1.338-.162 1.854-.486.528-.336.912-.816 1.152-1.44l.288.882c-.24.624-.66 1.122-1.26 1.494-.588.372-1.332.558-2.232.558zm19.761-9.63c.768 0 1.434.15 1.998.45a2.98 2.98 0 011.332 1.332c.324.6.486 1.356.486 2.268v5.49h-1.278v-5.364c0-.996-.24-1.746-.72-2.25-.468-.516-1.134-.774-1.998-.774-.648 0-1.212.138-1.692.414a2.73 2.73 0 00-1.098 1.17c-.252.504-.378 1.116-.378 1.836v4.968h-1.278v-5.364c0-.996-.24-1.746-.72-2.25-.48-.516-1.152-.774-2.016-.774-.636 0-1.194.138-1.674.414a2.7 2.7 0 00-1.116 1.17c-.252.504-.378 1.116-.378 1.836v4.968h-1.278v-9.45h1.224v2.556l-.198-.45a3.342 3.342 0 011.386-1.602c.648-.396 1.41-.594 2.286-.594.924 0 1.71.234 2.358.702.648.456 1.068 1.146 1.26 2.07l-.504-.198a3.693 3.693 0 011.458-1.854c.708-.48 1.554-.72 2.538-.72zm11.296 9.63c-.984 0-1.848-.204-2.592-.612a4.597 4.597 0 01-1.746-1.71c-.42-.732-.63-1.566-.63-2.502 0-.936.198-1.764.594-2.484.408-.72.96-1.284 1.656-1.692.708-.42 1.5-.63 2.376-.63.888 0 1.674.204 2.358.612.696.396 1.242.96 1.638 1.692.396.72.594 1.554.594 2.502 0 .06-.006.126-.018.198v.198h-8.226v-.954h7.542l-.504.378c0-.684-.15-1.29-.45-1.818a3.166 3.166 0 00-1.188-1.26c-.504-.3-1.086-.45-1.746-.45-.648 0-1.23.15-1.746.45-.516.3-.918.72-1.206 1.26-.288.54-.432 1.158-.432 1.854v.198c0 .72.156 1.356.468 1.908.324.54.768.966 1.332 1.278.576.3 1.23.45 1.962.45.576 0 1.11-.102 1.602-.306a3.332 3.332 0 001.296-.936l.72.828c-.42.504-.948.888-1.584 1.152a5.26 5.26 0 01-2.07.396zm14.477.018a7.73 7.73 0 01-2.592-.432c-.804-.3-1.452-.696-1.944-1.188l.63-1.026c.408.42.954.768 1.638 1.044a6.098 6.098 0 002.268.414c1.044 0 1.842-.228 2.394-.684.564-.456.846-1.068.846-1.836s-.276-1.38-.828-1.836c-.54-.456-1.398-.684-2.574-.684h-.9v-.954l3.888-4.878.18.504h-7.02V205.9h8.1v.918l-3.888 4.878-.63-.414h.486c1.512 0 2.64.336 3.384 1.008.756.672 1.134 1.536 1.134 2.592 0 .708-.168 1.344-.504 1.908-.336.564-.846 1.008-1.53 1.332-.672.324-1.518.486-2.538.486z" fill="#454545"/><path stroke="#DDDDE6" stroke-width="2" d="M24 185h156.333v55H24z"/><path fill="#fff" d="M180.333 185h156.333v55H180.333z"/><path d="M219.028 211.336h6.48v1.53h-6.48v-1.53zm.162 5.598h7.344v1.566h-9.144v-12.6h8.892v1.566h-7.092v9.468zm8.41 1.566l4.104-5.328-.018.882-3.906-5.094h1.926l2.988 3.924h-.738l2.988-3.924h1.89l-3.96 5.13.018-.918 4.14 5.328h-1.962l-3.15-4.176.702.108-3.096 4.068H227.6zm16.375.108c-.792 0-1.518-.18-2.178-.54-.648-.372-1.17-.918-1.566-1.638-.384-.72-.576-1.62-.576-2.7s.186-1.98.558-2.7c.384-.72.9-1.26 1.548-1.62.66-.36 1.398-.54 2.214-.54.936 0 1.764.204 2.484.612a4.5 4.5 0 011.71 1.71c.42.72.63 1.566.63 2.538 0 .972-.21 1.824-.63 2.556a4.5 4.5 0 01-1.71 1.71c-.72.408-1.548.612-2.484.612zm-5.058 3.384V208.96h1.656v2.574l-.108 2.214.18 2.214v6.03h-1.728zm4.914-4.896c.612 0 1.158-.138 1.638-.414a2.922 2.922 0 001.152-1.17c.288-.516.432-1.11.432-1.782 0-.684-.144-1.272-.432-1.764a2.922 2.922 0 00-1.152-1.17c-.48-.276-1.026-.414-1.638-.414-.6 0-1.146.138-1.638.414-.48.276-.864.666-1.152 1.17-.276.492-.414 1.08-.414 1.764 0 .672.138 1.266.414 1.782.288.504.672.894 1.152 1.17a3.29 3.29 0 001.638.414zm11.604 1.512c-1.02 0-1.92-.21-2.7-.63a4.62 4.62 0 01-1.8-1.728c-.42-.732-.63-1.572-.63-2.52s.204-1.788.612-2.52a4.5 4.5 0 011.71-1.71c.732-.42 1.554-.63 2.466-.63.924 0 1.74.204 2.448.612.708.408 1.26.984 1.656 1.728.408.732.612 1.59.612 2.574 0 .072-.006.156-.018.252 0 .096-.006.186-.018.27h-8.118v-1.242h7.218l-.702.432c.012-.612-.114-1.158-.378-1.638a2.807 2.807 0 00-1.098-1.116c-.456-.276-.99-.414-1.602-.414-.6 0-1.134.138-1.602.414a2.779 2.779 0 00-1.098 1.134c-.264.48-.396 1.032-.396 1.656v.288c0 .636.144 1.206.432 1.71.3.492.714.876 1.242 1.152.528.276 1.134.414 1.818.414.564 0 1.074-.096 1.53-.288.468-.192.876-.48 1.224-.864l.954 1.116a4.166 4.166 0 01-1.62 1.152c-.636.264-1.35.396-2.142.396zm10.931 0c-.972 0-1.842-.21-2.61-.63a4.653 4.653 0 01-1.782-1.728c-.432-.732-.648-1.572-.648-2.52s.216-1.788.648-2.52a4.524 4.524 0 011.782-1.71c.768-.42 1.638-.63 2.61-.63.864 0 1.632.174 2.304.522.684.336 1.212.84 1.584 1.512l-1.314.846c-.312-.468-.696-.81-1.152-1.026a3.106 3.106 0 00-1.44-.342c-.624 0-1.182.138-1.674.414a3.045 3.045 0 00-1.17 1.17c-.288.492-.432 1.08-.432 1.764 0 .684.144 1.278.432 1.782.288.504.678.894 1.17 1.17.492.276 1.05.414 1.674.414.516 0 .996-.108 1.44-.324.456-.228.84-.576 1.152-1.044l1.314.828c-.372.66-.9 1.17-1.584 1.53-.672.348-1.44.522-2.304.522zm9.525 0c-.96 0-1.704-.258-2.232-.774-.528-.516-.792-1.254-.792-2.214v-8.748h1.728v8.676c0 .516.126.912.378 1.188.264.276.636.414 1.116.414.54 0 .99-.15 1.35-.45l.54 1.242a2.506 2.506 0 01-.954.504c-.36.108-.738.162-1.134.162zm-4.644-8.226v-1.422h6.084v1.422h-6.084zm12.752 8.226c-1.02 0-1.92-.21-2.7-.63a4.62 4.62 0 01-1.8-1.728c-.42-.732-.63-1.572-.63-2.52s.204-1.788.612-2.52a4.5 4.5 0 011.71-1.71c.732-.42 1.554-.63 2.466-.63.924 0 1.74.204 2.448.612.708.408 1.26.984 1.656 1.728.408.732.612 1.59.612 2.574 0 .072-.006.156-.018.252 0 .096-.006.186-.018.27h-8.118v-1.242h7.218l-.702.432c.012-.612-.114-1.158-.378-1.638a2.807 2.807 0 00-1.098-1.116c-.456-.276-.99-.414-1.602-.414-.6 0-1.134.138-1.602.414a2.779 2.779 0 00-1.098 1.134c-.264.48-.396 1.032-.396 1.656v.288c0 .636.144 1.206.432 1.71.3.492.714.876 1.242 1.152.528.276 1.134.414 1.818.414.564 0 1.074-.096 1.53-.288.468-.192.876-.48 1.224-.864l.954 1.116a4.166 4.166 0 01-1.62 1.152c-.636.264-1.35.396-2.142.396zm10.716 0c-.924 0-1.752-.204-2.484-.612a4.5 4.5 0 01-1.71-1.71c-.42-.732-.63-1.584-.63-2.556s.21-1.818.63-2.538a4.5 4.5 0 011.71-1.71c.732-.408 1.56-.612 2.484-.612.804 0 1.53.18 2.178.54.648.36 1.164.9 1.548 1.62.396.72.594 1.62.594 2.7s-.192 1.98-.576 2.7c-.372.72-.882 1.266-1.53 1.638-.648.36-1.386.54-2.214.54zm.144-1.512c.6 0 1.14-.138 1.62-.414a2.922 2.922 0 001.152-1.17c.288-.516.432-1.11.432-1.782 0-.684-.144-1.272-.432-1.764a2.922 2.922 0 00-1.152-1.17 3.19 3.19 0 00-1.62-.414c-.612 0-1.158.138-1.638.414-.48.276-.864.666-1.152 1.17-.288.492-.432 1.08-.432 1.764 0 .672.144 1.266.432 1.782.288.504.672.894 1.152 1.17.48.276 1.026.414 1.638.414zm3.258 1.404v-2.574l.108-2.214-.18-2.214v-6.354h1.728V218.5h-1.656z" fill="#454545"/><path stroke="#DDDDE6" stroke-width="2" d="M180.333 185h156.333v55H180.333z"/><path fill="#fff" d="M336.667 185h98v55h-98z"/><g clip-path="url(#clip7_122_371)" stroke="#80DA39"><circle cx="385.667" cy="212.5" r="12" fill="#80DA39" fill-opacity=".1"/><path d="M381.167 212l3.5 3.5 6.5-6.5" stroke-width="2"/></g><path stroke="#DDDDE6" stroke-width="2" d="M336.667 185h98v55h-98z"/><path fill="#fff" d="M434.667 185H591v55H434.667z"/><path d="M466.833 202.5l2.975 5.906 6.536 1.004-4.698 4.654 1.065 6.526-5.878-3.03-5.878 3.03 1.066-6.526-4.698-4.654 6.536-1.004 2.974-5.906zm23 0l2.975 5.906 6.536 1.004-4.698 4.654 1.065 6.526-5.878-3.03-5.878 3.03 1.066-6.526-4.698-4.654 6.536-1.004 2.974-5.906zm23 0l2.975 5.906 6.536 1.004-4.698 4.654 1.065 6.526-5.878-3.03-5.878 3.03 1.066-6.526-4.698-4.654 6.536-1.004 2.974-5.906z" fill="#F28100"/><path d="M535.833 202.5l2.975 5.906 6.536 1.004-4.698 4.654 1.065 6.526-5.878-3.03-5.878 3.03 1.066-6.526-4.698-4.654 6.536-1.004 2.974-5.906zm23 0l2.975 5.906 6.536 1.004-4.698 4.654 1.065 6.526-5.878-3.03-5.878 3.03 1.066-6.526-4.698-4.654 6.536-1.004 2.974-5.906z" fill="#D5D5E4"/><path stroke="#DDDDE6" stroke-width="2" d="M434.667 185H591v55H434.667z"/></g><path stroke="#DDDDE6" stroke-width="2" d="M24 185h567v55H24z"/><g clip-path="url(#clip8_122_371)"><path fill="#fff" d="M24 240h156.333v55H24z"/><path d="M41.052 273.5v-12.6h1.332v12.6h-1.332zm8.15.09c-.888 0-1.572-.24-2.052-.72s-.72-1.158-.72-2.034v-8.874h1.278v8.802c0 .552.138.978.414 1.278.288.3.696.45 1.224.45.564 0 1.032-.162 1.404-.486l.45.918a2.354 2.354 0 01-.918.504 3.623 3.623 0 01-1.08.162zm-4.464-8.478v-1.062h5.85v1.062h-5.85zm12.468 8.478c-.984 0-1.848-.204-2.592-.612a4.597 4.597 0 01-1.746-1.71c-.42-.732-.63-1.566-.63-2.502 0-.936.198-1.764.594-2.484.408-.72.96-1.284 1.656-1.692.708-.42 1.5-.63 2.376-.63.888 0 1.674.204 2.358.612.696.396 1.242.96 1.638 1.692.396.72.594 1.554.594 2.502 0 .06-.006.126-.018.198v.198H53.21v-.954h7.542l-.504.378c0-.684-.15-1.29-.45-1.818a3.166 3.166 0 00-1.188-1.26c-.504-.3-1.086-.45-1.746-.45-.648 0-1.23.15-1.746.45-.516.3-.918.72-1.206 1.26-.288.54-.432 1.158-.432 1.854v.198c0 .72.156 1.356.468 1.908.324.54.768.966 1.332 1.278.576.3 1.23.45 1.962.45.576 0 1.11-.102 1.602-.306a3.332 3.332 0 001.296-.936l.72.828c-.42.504-.948.888-1.584 1.152a5.26 5.26 0 01-2.07.396zm18.657-9.63c.768 0 1.434.15 1.998.45a2.98 2.98 0 011.332 1.332c.324.6.486 1.356.486 2.268v5.49h-1.278v-5.364c0-.996-.24-1.746-.72-2.25-.468-.516-1.134-.774-1.998-.774-.648 0-1.212.138-1.692.414a2.73 2.73 0 00-1.098 1.17c-.252.504-.378 1.116-.378 1.836v4.968h-1.278v-5.364c0-.996-.24-1.746-.72-2.25-.48-.516-1.152-.774-2.016-.774-.636 0-1.194.138-1.674.414a2.7 2.7 0 00-1.116 1.17c-.252.504-.378 1.116-.378 1.836v4.968h-1.278v-9.45h1.224v2.556l-.198-.45a3.342 3.342 0 011.386-1.602c.648-.396 1.41-.594 2.286-.594.924 0 1.71.234 2.358.702.648.456 1.068 1.146 1.26 2.07l-.504-.198a3.693 3.693 0 011.458-1.854c.708-.48 1.554-.72 2.538-.72zm16.817 0c.768 0 1.44.15 2.016.45a3.057 3.057 0 011.368 1.332c.336.6.504 1.356.504 2.268v5.49H95.29v-5.364c0-.996-.252-1.746-.756-2.25-.492-.516-1.188-.774-2.088-.774-.672 0-1.26.138-1.764.414a2.779 2.779 0 00-1.152 1.17c-.264.504-.396 1.116-.396 1.836v4.968h-1.278v-9.45h1.224v2.592l-.198-.486a3.39 3.39 0 011.44-1.602c.66-.396 1.446-.594 2.358-.594zm13.262 9.54v-2.088l-.054-.342v-3.492c0-.804-.228-1.422-.684-1.854-.444-.432-1.11-.648-1.998-.648-.612 0-1.194.102-1.746.306a4.448 4.448 0 00-1.404.81l-.576-.954a4.99 4.99 0 011.728-.936 6.566 6.566 0 012.124-.342c1.224 0 2.166.306 2.826.918.672.6 1.008 1.518 1.008 2.754v5.868h-1.224zm-3.258.09c-.708 0-1.326-.114-1.854-.342-.516-.24-.912-.564-1.188-.972-.276-.42-.414-.9-.414-1.44 0-.492.114-.936.342-1.332.24-.408.624-.732 1.152-.972.54-.252 1.26-.378 2.16-.378h3.258v.954h-3.222c-.912 0-1.548.162-1.908.486a1.581 1.581 0 00-.522 1.206c0 .54.21.972.63 1.296.42.324 1.008.486 1.764.486.72 0 1.338-.162 1.854-.486.528-.336.912-.816 1.152-1.44l.288.882c-.24.624-.66 1.122-1.26 1.494-.588.372-1.332.558-2.232.558zm19.761-9.63c.768 0 1.434.15 1.998.45a2.98 2.98 0 011.332 1.332c.324.6.486 1.356.486 2.268v5.49h-1.278v-5.364c0-.996-.24-1.746-.72-2.25-.468-.516-1.134-.774-1.998-.774-.648 0-1.212.138-1.692.414a2.73 2.73 0 00-1.098 1.17c-.252.504-.378 1.116-.378 1.836v4.968h-1.278v-5.364c0-.996-.24-1.746-.72-2.25-.48-.516-1.152-.774-2.016-.774-.636 0-1.194.138-1.674.414a2.7 2.7 0 00-1.116 1.17c-.252.504-.378 1.116-.378 1.836v4.968h-1.278v-9.45h1.224v2.556l-.198-.45a3.342 3.342 0 011.386-1.602c.648-.396 1.41-.594 2.286-.594.924 0 1.71.234 2.358.702.648.456 1.068 1.146 1.26 2.07l-.504-.198a3.693 3.693 0 011.458-1.854c.708-.48 1.554-.72 2.538-.72zm11.296 9.63c-.984 0-1.848-.204-2.592-.612a4.597 4.597 0 01-1.746-1.71c-.42-.732-.63-1.566-.63-2.502 0-.936.198-1.764.594-2.484.408-.72.96-1.284 1.656-1.692.708-.42 1.5-.63 2.376-.63.888 0 1.674.204 2.358.612.696.396 1.242.96 1.638 1.692.396.72.594 1.554.594 2.502 0 .06-.006.126-.018.198v.198h-8.226v-.954h7.542l-.504.378c0-.684-.15-1.29-.45-1.818a3.166 3.166 0 00-1.188-1.26c-.504-.3-1.086-.45-1.746-.45-.648 0-1.23.15-1.746.45-.516.3-.918.72-1.206 1.26-.288.54-.432 1.158-.432 1.854v.198c0 .72.156 1.356.468 1.908.324.54.768.966 1.332 1.278.576.3 1.23.45 1.962.45.576 0 1.11-.102 1.602-.306a3.332 3.332 0 001.296-.936l.72.828c-.42.504-.948.888-1.584 1.152a5.26 5.26 0 01-2.07.396zm10.499-3.402v-.936l6.678-8.352h1.44l-6.624 8.352-.702-.216h10.134v1.152H144.24zm7.11 3.312v-3.312l.036-1.152v-2.916h1.26v7.38h-1.296z" fill="#454545"/><path stroke="#DDDDE6" stroke-width="2" d="M24 240h156.333v55H24z"/><path fill="#fff" d="M180.333 240h156.333v55H180.333z"/><path d="M224.39 273.5v-12.6h1.8v12.6h-1.8zm10.414-9.63c.78 0 1.464.15 2.052.45.6.3 1.068.756 1.404 1.368.336.612.504 1.386.504 2.322v5.49h-1.728v-5.292c0-.924-.228-1.62-.684-2.088-.444-.468-1.074-.702-1.89-.702-.612 0-1.146.12-1.602.36-.456.24-.81.594-1.062 1.062-.24.468-.36 1.05-.36 1.746v4.914h-1.728v-9.54h1.656v2.574l-.27-.684a3.313 3.313 0 011.44-1.458c.648-.348 1.404-.522 2.268-.522zm14.728 9.738a7.85 7.85 0 01-2.268-.324c-.708-.216-1.266-.48-1.674-.792l.72-1.368c.408.276.912.51 1.512.702a5.99 5.99 0 001.836.288c.804 0 1.38-.114 1.728-.342.36-.228.54-.546.54-.954 0-.3-.108-.534-.324-.702-.216-.168-.504-.294-.864-.378a12.123 12.123 0 00-1.17-.216 24.668 24.668 0 01-1.296-.252 5.786 5.786 0 01-1.188-.432 2.343 2.343 0 01-.864-.774c-.216-.336-.324-.78-.324-1.332 0-.576.162-1.08.486-1.512.324-.432.78-.762 1.368-.99.6-.24 1.308-.36 2.124-.36.624 0 1.254.078 1.89.234.648.144 1.176.354 1.584.63l-.738 1.368a4.077 4.077 0 00-1.35-.594 6.226 6.226 0 00-1.404-.162c-.756 0-1.32.126-1.692.378-.372.24-.558.552-.558.936 0 .324.108.576.324.756.228.168.516.3.864.396.36.096.756.18 1.188.252.432.06.864.144 1.296.252.432.096.822.234 1.17.414.36.18.648.432.864.756.228.324.342.756.342 1.296 0 .576-.168 1.074-.504 1.494-.336.42-.81.75-1.422.99-.612.228-1.344.342-2.196.342zm9.558 0c-.96 0-1.704-.258-2.232-.774-.528-.516-.792-1.254-.792-2.214v-8.748h1.728v8.676c0 .516.126.912.378 1.188.264.276.636.414 1.116.414.54 0 .99-.15 1.35-.45l.54 1.242a2.506 2.506 0 01-.954.504c-.36.108-.738.162-1.134.162zm-4.644-8.226v-1.422h6.084v1.422h-6.084zm12.591 8.226c-.96 0-1.812-.21-2.556-.63a4.69 4.69 0 01-1.764-1.728c-.432-.744-.648-1.584-.648-2.52 0-.948.216-1.788.648-2.52a4.557 4.557 0 011.764-1.71c.744-.42 1.596-.63 2.556-.63.948 0 1.794.21 2.538.63a4.4 4.4 0 011.764 1.71c.432.72.648 1.56.648 2.52 0 .948-.216 1.788-.648 2.52a4.524 4.524 0 01-1.764 1.728c-.744.42-1.59.63-2.538.63zm0-1.512c.612 0 1.158-.138 1.638-.414a2.922 2.922 0 001.152-1.17c.276-.516.414-1.11.414-1.782 0-.684-.138-1.272-.414-1.764a2.922 2.922 0 00-1.152-1.17c-.48-.276-1.026-.414-1.638-.414-.612 0-1.158.138-1.638.414-.48.276-.864.666-1.152 1.17-.288.492-.432 1.08-.432 1.764 0 .672.144 1.266.432 1.782.288.504.672.894 1.152 1.17.48.276 1.026.414 1.638.414zm11.497 1.512c-.972 0-1.842-.21-2.61-.63a4.653 4.653 0 01-1.782-1.728c-.432-.732-.648-1.572-.648-2.52s.216-1.788.648-2.52a4.524 4.524 0 011.782-1.71c.768-.42 1.638-.63 2.61-.63.864 0 1.632.174 2.304.522.684.336 1.212.84 1.584 1.512l-1.314.846c-.312-.468-.696-.81-1.152-1.026a3.106 3.106 0 00-1.44-.342c-.624 0-1.182.138-1.674.414a3.045 3.045 0 00-1.17 1.17c-.288.492-.432 1.08-.432 1.764 0 .684.144 1.278.432 1.782.288.504.678.894 1.17 1.17.492.276 1.05.414 1.674.414.516 0 .996-.108 1.44-.324.456-.228.84-.576 1.152-1.044l1.314.828c-.372.66-.9 1.17-1.584 1.53-.672.348-1.44.522-2.304.522zm7.406-2.412l.036-2.214 5.49-5.022h2.088l-4.212 4.14-.936.792-2.466 2.304zm-1.404 2.304v-13.356h1.728V273.5h-1.728zm7.29 0l-3.744-4.644 1.116-1.386 4.752 6.03h-2.124z" fill="#454545"/><path stroke="#DDDDE6" stroke-width="2" d="M180.333 240h156.333v55H180.333z"/><path fill="#fff" d="M336.667 240h98v55h-98z"/><g clip-path="url(#clip9_122_371)" stroke="#80DA39"><circle cx="385.667" cy="267.5" r="12" fill="#80DA39" fill-opacity=".1"/><path d="M381.167 267l3.5 3.5 6.5-6.5" stroke-width="2"/></g><path stroke="#DDDDE6" stroke-width="2" d="M336.667 240h98v55h-98z"/><path fill="#fff" d="M434.667 240H591v55H434.667z"/><path d="M466.833 257.5l2.975 5.906 6.536 1.004-4.698 4.654 1.065 6.526-5.878-3.03-5.878 3.03 1.066-6.526-4.698-4.654 6.536-1.004 2.974-5.906zm23 0l2.975 5.906 6.536 1.004-4.698 4.654 1.065 6.526-5.878-3.03-5.878 3.03 1.066-6.526-4.698-4.654 6.536-1.004 2.974-5.906zm23 0l2.975 5.906 6.536 1.004-4.698 4.654 1.065 6.526-5.878-3.03-5.878 3.03 1.066-6.526-4.698-4.654 6.536-1.004 2.974-5.906zm23 0l2.975 5.906 6.536 1.004-4.698 4.654 1.065 6.526-5.878-3.03-5.878 3.03 1.066-6.526-4.698-4.654 6.536-1.004 2.974-5.906z" fill="#F28100"/><path d="M558.833 257.5l2.975 5.906 6.536 1.004-4.698 4.654 1.065 6.526-5.878-3.03-5.878 3.03 1.066-6.526-4.698-4.654 6.536-1.004 2.974-5.906z" fill="#D5D5E4"/><path stroke="#DDDDE6" stroke-width="2" d="M434.667 240H591v55H434.667z"/></g><path stroke="#DDDDE6" stroke-width="2" d="M24 240h567v55H24z"/></g><rect x="24" y="27" width="567" height="268" rx="15" stroke="#DDDDE6" stroke-width="2"/><defs><clipPath id="clip0_122_371"><rect x="24" y="27" width="567" height="268" rx="15" fill="#fff"/></clipPath><clipPath id="clip1_122_371"><path fill="#fff" transform="translate(24 27)" d="M0 0h567v48H0z"/></clipPath><clipPath id="clip2_122_371"><path fill="#fff" d="M24 75h567v55H24z"/></clipPath><clipPath id="clip3_122_371"><path fill="#fff" transform="translate(373.167 90)" d="M0 0h25v25H0z"/></clipPath><clipPath id="clip4_122_371"><path fill="#fff" d="M24 130h567v55H24z"/></clipPath><clipPath id="clip5_122_371"><path fill="#fff" transform="translate(373.167 145)" d="M0 0h25v25H0z"/></clipPath><clipPath id="clip6_122_371"><path fill="#fff" d="M24 185h567v55H24z"/></clipPath><clipPath id="clip7_122_371"><path fill="#fff" transform="translate(373.167 200)" d="M0 0h25v25H0z"/></clipPath><clipPath id="clip8_122_371"><path fill="#fff" d="M24 240h567v55H24z"/></clipPath><clipPath id="clip9_122_371"><path fill="#fff" transform="translate(373.167 255)" d="M0 0h25v25H0z"/></clipPath></defs></svg>