<svg width="619" height="323" fill="none" xmlns="http://www.w3.org/2000/svg"><path d="M0 20C0 8.954 8.954 0 20 0h579c11.046 0 20 8.954 20 20v283c0 11.046-8.954 20-20 20H20c-11.046 0-20-8.954-20-20V20z" fill="#fff"/><path d="M55 233h513M66 245V38" stroke="#37376D"/><path d="M67 186h501M67 127h501M67 66.5h501" stroke="#DDDDE6" stroke-dasharray="7 7"/><rect x="88" y="265" width="14" height="14" rx="2" fill="#F28100"/><path d="M118.524 278.108a7.203 7.203 0 01-2.628-.468 6.326 6.326 0 01-2.088-1.35 6.31 6.31 0 01-1.386-2.034 6.598 6.598 0 01-.486-2.556c0-.924.162-1.776.486-2.556a6.31 6.31 0 011.386-2.034 6.293 6.293 0 012.106-1.332 6.966 6.966 0 012.628-.486c.912 0 1.77.156 2.574.468.804.3 1.482.756 2.034 1.368l-.846.846c-.516-.528-1.086-.906-1.71-1.134a5.568 5.568 0 00-2.016-.36c-.756 0-1.458.132-2.106.396a4.85 4.85 0 00-1.692 1.098 5.15 5.15 0 00-1.134 1.656 5.26 5.26 0 00-.396 2.07c0 .756.132 1.452.396 2.088a5.425 5.425 0 001.134 1.656c.48.468 1.044.834 1.692 1.098a5.76 5.76 0 002.106.378c.72 0 1.392-.12 2.016-.36a4.79 4.79 0 001.71-1.152l.846.846a5.253 5.253 0 01-2.034 1.386 7.102 7.102 0 01-2.592.468zm10.626-.018c-.912 0-1.734-.204-2.466-.612-.72-.42-1.29-.99-1.71-1.71-.42-.732-.63-1.566-.63-2.502 0-.948.21-1.782.63-2.502.42-.72.99-1.284 1.71-1.692.72-.408 1.542-.612 2.466-.612.936 0 1.764.204 2.484.612a4.374 4.374 0 011.71 1.692c.42.72.63 1.554.63 2.502 0 .936-.21 1.77-.63 2.502a4.5 4.5 0 01-1.71 1.71c-.732.408-1.56.612-2.484.612zm0-1.134c.684 0 1.29-.15 1.818-.45a3.31 3.31 0 001.242-1.296c.312-.564.468-1.212.468-1.944 0-.744-.156-1.392-.468-1.944a3.185 3.185 0 00-1.242-1.278c-.528-.312-1.128-.468-1.8-.468-.672 0-1.272.156-1.8.468-.528.3-.948.726-1.26 1.278-.312.552-.468 1.2-.468 1.944 0 .732.156 1.38.468 1.944a3.44 3.44 0 001.26 1.296c.528.3 1.122.45 1.782.45zm19.241-8.496c.768 0 1.434.15 1.998.45a2.98 2.98 0 011.332 1.332c.324.6.486 1.356.486 2.268V278h-1.278v-5.364c0-.996-.24-1.746-.72-2.25-.468-.516-1.134-.774-1.998-.774-.648 0-1.212.138-1.692.414a2.73 2.73 0 00-1.098 1.17c-.252.504-.378 1.116-.378 1.836V278h-1.278v-5.364c0-.996-.24-1.746-.72-2.25-.48-.516-1.152-.774-2.016-.774-.636 0-1.194.138-1.674.414a2.7 2.7 0 00-1.116 1.17c-.252.504-.378 1.116-.378 1.836V278h-1.278v-9.45h1.224v2.556l-.198-.45a3.342 3.342 0 011.386-1.602c.648-.396 1.41-.594 2.286-.594.924 0 1.71.234 2.358.702.648.456 1.068 1.146 1.26 2.07l-.504-.198a3.693 3.693 0 011.458-1.854c.708-.48 1.554-.72 2.538-.72zm12.16 9.63c-.816 0-1.554-.186-2.214-.558a4.247 4.247 0 01-1.584-1.638c-.384-.72-.576-1.596-.576-2.628s.192-1.902.576-2.61c.384-.72.906-1.266 1.566-1.638.66-.372 1.404-.558 2.232-.558.9 0 1.704.204 2.412.612.72.396 1.284.96 1.692 1.692.408.72.612 1.554.612 2.502 0 .96-.204 1.8-.612 2.52a4.408 4.408 0 01-1.692 1.692c-.708.408-1.512.612-2.412.612zm-4.878 3.402V268.55h1.224v2.844l-.126 1.89.18 1.908v6.3h-1.278zm4.788-4.536c.672 0 1.272-.15 1.8-.45a3.44 3.44 0 001.26-1.296c.312-.564.468-1.212.468-1.944s-.156-1.374-.468-1.926a3.44 3.44 0 00-1.26-1.296c-.528-.312-1.128-.468-1.8-.468-.672 0-1.278.156-1.818.468a3.44 3.44 0 00-1.26 1.296c-.3.552-.45 1.194-.45 1.926s.15 1.38.45 1.944a3.44 3.44 0 001.26 1.296c.54.3 1.146.45 1.818.45zm11.425 1.134c-.984 0-1.848-.204-2.592-.612a4.597 4.597 0 01-1.746-1.71c-.42-.732-.63-1.566-.63-2.502 0-.936.198-1.764.594-2.484.408-.72.96-1.284 1.656-1.692.708-.42 1.5-.63 2.376-.63.888 0 1.674.204 2.358.612.696.396 1.242.96 1.638 1.692.396.72.594 1.554.594 2.502 0 .06-.006.126-.018.198v.198h-8.226v-.954h7.542l-.504.378c0-.684-.15-1.29-.45-1.818a3.166 3.166 0 00-1.188-1.26c-.504-.3-1.086-.45-1.746-.45-.648 0-1.23.15-1.746.45-.516.3-.918.72-1.206 1.26-.288.54-.432 1.158-.432 1.854v.198c0 .72.156 1.356.468 1.908.324.54.768.966 1.332 1.278.576.3 1.23.45 1.962.45.576 0 1.11-.102 1.602-.306a3.332 3.332 0 001.296-.936l.72.828c-.42.504-.948.888-1.584 1.152a5.26 5.26 0 01-2.07.396zm9.837 0c-.888 0-1.572-.24-2.052-.72s-.72-1.158-.72-2.034v-8.874h1.278v8.802c0 .552.138.978.414 1.278.288.3.696.45 1.224.45.564 0 1.032-.162 1.404-.486l.45.918a2.354 2.354 0 01-.918.504 3.623 3.623 0 01-1.08.162zm-4.464-8.478v-1.062h5.85v1.062h-5.85zm8.789 8.388v-9.45h1.278V278h-1.278zm.648-11.538a.905.905 0 01-.666-.27.884.884 0 01-.27-.648c0-.252.09-.462.27-.63.18-.18.402-.27.666-.27a.94.94 0 01.666.252c.18.168.27.378.27.63 0 .264-.09.486-.27.666-.168.18-.39.27-.666.27zm7.174 11.628c-.888 0-1.572-.24-2.052-.72s-.72-1.158-.72-2.034v-8.874h1.278v8.802c0 .552.138.978.414 1.278.288.3.696.45 1.224.45.564 0 1.032-.162 1.404-.486l.45.918a2.354 2.354 0 01-.918.504 3.623 3.623 0 01-1.08.162zm-4.464-8.478v-1.062h5.85v1.062h-5.85zm12.306 8.478c-.912 0-1.734-.204-2.466-.612-.72-.42-1.29-.99-1.71-1.71-.42-.732-.63-1.566-.63-2.502 0-.948.21-1.782.63-2.502.42-.72.99-1.284 1.71-1.692.72-.408 1.542-.612 2.466-.612.936 0 1.764.204 2.484.612a4.374 4.374 0 011.71 1.692c.42.72.63 1.554.63 2.502 0 .936-.21 1.77-.63 2.502a4.5 4.5 0 01-1.71 1.71c-.732.408-1.56.612-2.484.612zm0-1.134c.684 0 1.29-.15 1.818-.45a3.31 3.31 0 001.242-1.296c.312-.564.468-1.212.468-1.944 0-.744-.156-1.392-.468-1.944a3.185 3.185 0 00-1.242-1.278c-.528-.312-1.128-.468-1.8-.468-.672 0-1.272.156-1.8.468-.528.3-.948.726-1.26 1.278-.312.552-.468 1.2-.468 1.944 0 .732.156 1.38.468 1.944a3.44 3.44 0 001.26 1.296c.528.3 1.122.45 1.782.45zm7.433 1.044v-9.45h1.224v2.574l-.126-.45c.264-.72.708-1.266 1.332-1.638.624-.384 1.398-.576 2.322-.576v1.242h-.144a.592.592 0 00-.144-.018c-.996 0-1.776.306-2.34.918-.564.6-.846 1.458-.846 2.574V278h-1.278zm13.286 0v-12.06l.576.612h-3.546V265.4h4.266V278h-1.296z" fill="#454545"/><rect x="241" y="265" width="14" height="14" rx="2" fill="#80DA39"/><path d="M271.524 278.108a7.203 7.203 0 01-2.628-.468 6.326 6.326 0 01-2.088-1.35 6.31 6.31 0 01-1.386-2.034 6.598 6.598 0 01-.486-2.556c0-.924.162-1.776.486-2.556a6.31 6.31 0 011.386-2.034 6.293 6.293 0 012.106-1.332 6.966 6.966 0 012.628-.486c.912 0 1.77.156 2.574.468.804.3 1.482.756 2.034 1.368l-.846.846c-.516-.528-1.086-.906-1.71-1.134a5.568 5.568 0 00-2.016-.36c-.756 0-1.458.132-2.106.396a4.85 4.85 0 00-1.692 1.098 5.15 5.15 0 00-1.134 1.656 5.26 5.26 0 00-.396 2.07c0 .756.132 1.452.396 2.088a5.425 5.425 0 001.134 1.656c.48.468 1.044.834 1.692 1.098a5.76 5.76 0 002.106.378c.72 0 1.392-.12 2.016-.36a4.79 4.79 0 001.71-1.152l.846.846a5.253 5.253 0 01-2.034 1.386 7.102 7.102 0 01-2.592.468zm10.626-.018c-.912 0-1.734-.204-2.466-.612-.72-.42-1.29-.99-1.71-1.71-.42-.732-.63-1.566-.63-2.502 0-.948.21-1.782.63-2.502.42-.72.99-1.284 1.71-1.692.72-.408 1.542-.612 2.466-.612.936 0 1.764.204 2.484.612a4.374 4.374 0 011.71 1.692c.42.72.63 1.554.63 2.502 0 .936-.21 1.77-.63 2.502a4.5 4.5 0 01-1.71 1.71c-.732.408-1.56.612-2.484.612zm0-1.134c.684 0 1.29-.15 1.818-.45a3.31 3.31 0 001.242-1.296c.312-.564.468-1.212.468-1.944 0-.744-.156-1.392-.468-1.944a3.185 3.185 0 00-1.242-1.278c-.528-.312-1.128-.468-1.8-.468-.672 0-1.272.156-1.8.468-.528.3-.948.726-1.26 1.278-.312.552-.468 1.2-.468 1.944 0 .732.156 1.38.468 1.944a3.44 3.44 0 001.26 1.296c.528.3 1.122.45 1.782.45zm19.241-8.496c.768 0 1.434.15 1.998.45a2.98 2.98 0 011.332 1.332c.324.6.486 1.356.486 2.268V278h-1.278v-5.364c0-.996-.24-1.746-.72-2.25-.468-.516-1.134-.774-1.998-.774-.648 0-1.212.138-1.692.414a2.73 2.73 0 00-1.098 1.17c-.252.504-.378 1.116-.378 1.836V278h-1.278v-5.364c0-.996-.24-1.746-.72-2.25-.48-.516-1.152-.774-2.016-.774-.636 0-1.194.138-1.674.414a2.7 2.7 0 00-1.116 1.17c-.252.504-.378 1.116-.378 1.836V278h-1.278v-9.45h1.224v2.556l-.198-.45a3.342 3.342 0 011.386-1.602c.648-.396 1.41-.594 2.286-.594.924 0 1.71.234 2.358.702.648.456 1.068 1.146 1.26 2.07l-.504-.198a3.693 3.693 0 011.458-1.854c.708-.48 1.554-.72 2.538-.72zm12.16 9.63c-.816 0-1.554-.186-2.214-.558a4.247 4.247 0 01-1.584-1.638c-.384-.72-.576-1.596-.576-2.628s.192-1.902.576-2.61c.384-.72.906-1.266 1.566-1.638.66-.372 1.404-.558 2.232-.558.9 0 1.704.204 2.412.612.72.396 1.284.96 1.692 1.692.408.72.612 1.554.612 2.502 0 .96-.204 1.8-.612 2.52a4.408 4.408 0 01-1.692 1.692c-.708.408-1.512.612-2.412.612zm-4.878 3.402V268.55h1.224v2.844l-.126 1.89.18 1.908v6.3h-1.278zm4.788-4.536c.672 0 1.272-.15 1.8-.45a3.44 3.44 0 001.26-1.296c.312-.564.468-1.212.468-1.944s-.156-1.374-.468-1.926a3.44 3.44 0 00-1.26-1.296c-.528-.312-1.128-.468-1.8-.468-.672 0-1.278.156-1.818.468a3.44 3.44 0 00-1.26 1.296c-.3.552-.45 1.194-.45 1.926s.15 1.38.45 1.944a3.44 3.44 0 001.26 1.296c.54.3 1.146.45 1.818.45zm11.425 1.134c-.984 0-1.848-.204-2.592-.612a4.597 4.597 0 01-1.746-1.71c-.42-.732-.63-1.566-.63-2.502 0-.936.198-1.764.594-2.484.408-.72.96-1.284 1.656-1.692.708-.42 1.5-.63 2.376-.63.888 0 1.674.204 2.358.612.696.396 1.242.96 1.638 1.692.396.72.594 1.554.594 2.502 0 .06-.006.126-.018.198v.198h-8.226v-.954h7.542l-.504.378c0-.684-.15-1.29-.45-1.818a3.166 3.166 0 00-1.188-1.26c-.504-.3-1.086-.45-1.746-.45-.648 0-1.23.15-1.746.45-.516.3-.918.72-1.206 1.26-.288.54-.432 1.158-.432 1.854v.198c0 .72.156 1.356.468 1.908.324.54.768.966 1.332 1.278.576.3 1.23.45 1.962.45.576 0 1.11-.102 1.602-.306a3.332 3.332 0 001.296-.936l.72.828c-.42.504-.948.888-1.584 1.152a5.26 5.26 0 01-2.07.396zm9.837 0c-.888 0-1.572-.24-2.052-.72s-.72-1.158-.72-2.034v-8.874h1.278v8.802c0 .552.138.978.414 1.278.288.3.696.45 1.224.45.564 0 1.032-.162 1.404-.486l.45.918a2.354 2.354 0 01-.918.504 3.623 3.623 0 01-1.08.162zm-4.464-8.478v-1.062h5.85v1.062h-5.85zm8.789 8.388v-9.45h1.278V278h-1.278zm.648-11.538a.905.905 0 01-.666-.27.884.884 0 01-.27-.648c0-.252.09-.462.27-.63.18-.18.402-.27.666-.27a.94.94 0 01.666.252c.18.168.27.378.27.63 0 .264-.09.486-.27.666-.168.18-.39.27-.666.27zm7.174 11.628c-.888 0-1.572-.24-2.052-.72s-.72-1.158-.72-2.034v-8.874h1.278v8.802c0 .552.138.978.414 1.278.288.3.696.45 1.224.45.564 0 1.032-.162 1.404-.486l.45.918a2.354 2.354 0 01-.918.504 3.623 3.623 0 01-1.08.162zm-4.464-8.478v-1.062h5.85v1.062h-5.85zm12.306 8.478c-.912 0-1.734-.204-2.466-.612-.72-.42-1.29-.99-1.71-1.71-.42-.732-.63-1.566-.63-2.502 0-.948.21-1.782.63-2.502.42-.72.99-1.284 1.71-1.692.72-.408 1.542-.612 2.466-.612.936 0 1.764.204 2.484.612a4.374 4.374 0 011.71 1.692c.42.72.63 1.554.63 2.502 0 .936-.21 1.77-.63 2.502a4.5 4.5 0 01-1.71 1.71c-.732.408-1.56.612-2.484.612zm0-1.134c.684 0 1.29-.15 1.818-.45a3.31 3.31 0 001.242-1.296c.312-.564.468-1.212.468-1.944 0-.744-.156-1.392-.468-1.944a3.185 3.185 0 00-1.242-1.278c-.528-.312-1.128-.468-1.8-.468-.672 0-1.272.156-1.8.468-.528.3-.948.726-1.26 1.278-.312.552-.468 1.2-.468 1.944 0 .732.156 1.38.468 1.944a3.44 3.44 0 001.26 1.296c.528.3 1.122.45 1.782.45zm7.433 1.044v-9.45h1.224v2.574l-.126-.45c.264-.72.708-1.266 1.332-1.638.624-.384 1.398-.576 2.322-.576v1.242h-.144a.592.592 0 00-.144-.018c-.996 0-1.776.306-2.34.918-.564.6-.846 1.458-.846 2.574V278h-1.278zm10.856 0v-.918l5.238-5.13c.48-.468.84-.876 1.08-1.224.24-.36.402-.696.486-1.008.084-.312.126-.606.126-.882 0-.732-.252-1.308-.756-1.728-.492-.42-1.224-.63-2.196-.63-.744 0-1.404.114-1.98.342a3.725 3.725 0 00-1.458 1.062l-.918-.792c.492-.576 1.122-1.02 1.89-1.332.768-.312 1.626-.468 2.574-.468.852 0 1.59.138 2.214.414.624.264 1.104.654 1.44 1.17.348.516.522 1.122.522 1.818 0 .408-.06.81-.18 1.206-.108.396-.312.816-.612 1.26-.288.432-.714.924-1.278 1.476l-4.806 4.716-.36-.504h7.812V278h-8.838z" fill="#454545"/><rect x="398" y="265" width="14" height="14" rx="2" fill="#0FA7F0"/><path d="M423.052 278v-12.6h1.098l5.76 9.828h-.576l5.706-9.828h1.098V278h-1.278v-10.602h.306l-5.256 9h-.63l-5.292-9h.342V278h-1.278zm16.993 3.582c-.444 0-.87-.072-1.278-.216a2.77 2.77 0 01-1.026-.648l.594-.954c.24.228.498.402.774.522.288.132.606.198.954.198.42 0 .78-.12 1.08-.36.312-.228.606-.636.882-1.224l.612-1.386.144-.198 3.888-8.766h1.26l-4.734 10.584c-.264.612-.558 1.098-.882 1.458-.312.36-.654.612-1.026.756a3.182 3.182 0 01-1.242.234zm2.52-3.312l-4.356-9.72h1.332l3.852 8.676-.828 1.044zm11.875-.27v-9.45h1.278V278h-1.278zm.648-11.538a.905.905 0 01-.666-.27.884.884 0 01-.27-.648c0-.252.09-.462.27-.63.18-.18.402-.27.666-.27a.94.94 0 01.666.252c.18.168.27.378.27.63 0 .264-.09.486-.27.666-.168.18-.39.27-.666.27zm7.174 11.628c-.888 0-1.572-.24-2.052-.72s-.72-1.158-.72-2.034v-8.874h1.278v8.802c0 .552.138.978.414 1.278.288.3.696.45 1.224.45.564 0 1.032-.162 1.404-.486l.45.918a2.354 2.354 0 01-.918.504 3.623 3.623 0 01-1.08.162zm-4.464-8.478v-1.062h5.85v1.062h-5.85zm12.469 8.478c-.984 0-1.848-.204-2.592-.612a4.597 4.597 0 01-1.746-1.71c-.42-.732-.63-1.566-.63-2.502 0-.936.198-1.764.594-2.484.408-.72.96-1.284 1.656-1.692.708-.42 1.5-.63 2.376-.63.888 0 1.674.204 2.358.612.696.396 1.242.96 1.638 1.692.396.72.594 1.554.594 2.502 0 .06-.006.126-.018.198v.198h-8.226v-.954h7.542l-.504.378c0-.684-.15-1.29-.45-1.818a3.166 3.166 0 00-1.188-1.26c-.504-.3-1.086-.45-1.746-.45-.648 0-1.23.15-1.746.45-.516.3-.918.72-1.206 1.26-.288.54-.432 1.158-.432 1.854v.198c0 .72.156 1.356.468 1.908.324.54.768.966 1.332 1.278.576.3 1.23.45 1.962.45.576 0 1.11-.102 1.602-.306a3.332 3.332 0 001.296-.936l.72.828c-.42.504-.948.888-1.584 1.152a5.26 5.26 0 01-2.07.396zm18.657-9.63c.768 0 1.434.15 1.998.45a2.98 2.98 0 011.332 1.332c.324.6.486 1.356.486 2.268V278h-1.278v-5.364c0-.996-.24-1.746-.72-2.25-.468-.516-1.134-.774-1.998-.774-.648 0-1.212.138-1.692.414a2.73 2.73 0 00-1.098 1.17c-.252.504-.378 1.116-.378 1.836V278h-1.278v-5.364c0-.996-.24-1.746-.72-2.25-.48-.516-1.152-.774-2.016-.774-.636 0-1.194.138-1.674.414a2.7 2.7 0 00-1.116 1.17c-.252.504-.378 1.116-.378 1.836V278h-1.278v-9.45h1.224v2.556l-.198-.45a3.342 3.342 0 011.386-1.602c.648-.396 1.41-.594 2.286-.594.924 0 1.71.234 2.358.702.648.456 1.068 1.146 1.26 2.07l-.504-.198a3.693 3.693 0 011.458-1.854c.708-.48 1.554-.72 2.538-.72zM39.66 122.712c0-.864.378-1.608 1.134-2.232.756-.624 1.866-.936 3.33-.936 1.356 0 2.448.33 3.276.99.828.66 1.254 1.452 1.278 2.376.036 1.26-.522 2.292-1.674 3.096 1.404.696 2.106 1.656 2.106 2.88 0 .936-.414 1.728-1.242 2.376-.816.636-2.028.954-3.636.954-1.596 0-2.832-.348-3.708-1.044-.864-.696-1.296-1.542-1.296-2.538 0-.6.174-1.194.522-1.782.36-.6.882-1.104 1.566-1.512-1.104-.672-1.656-1.548-1.656-2.628zm4.644 3.78a19.325 19.325 0 01-1.71-.54c-.6.288-1.062.66-1.386 1.116-.312.456-.468.924-.468 1.404 0 .732.3 1.308.9 1.728.612.408 1.488.612 2.628.612.96 0 1.752-.168 2.376-.504.636-.348.954-.798.954-1.35 0-.468-.168-.864-.504-1.188-.324-.336-.642-.564-.954-.684-.312-.12-.828-.288-1.548-.504a2.932 2.932 0 01-.288-.09zm2.862-3.312c0-.636-.27-1.164-.81-1.584-.54-.432-1.296-.648-2.268-.648-.888 0-1.596.168-2.124.504-.528.324-.792.738-.792 1.242 0 .348.072.654.216.918.156.252.384.468.684.648.312.168.594.306.846.414.252.096.588.204 1.008.324a.558.558 0 01.108.036c.024 0 .054.006.09.018l.108.036c.036.012.24.072.612.18.384.096.678.174.882.234.96-.624 1.44-1.398 1.44-2.322zm-7.644-59.622c0-1.26.414-2.244 1.242-2.952.84-.708 1.89-1.062 3.15-1.062 1.728 0 3.018.54 3.87 1.62.864 1.068 1.296 2.574 1.296 4.518 0 2.16-.516 3.792-1.548 4.896-1.02 1.092-2.358 1.638-4.014 1.638a6.41 6.41 0 01-2.97-.702v-1.44c.888.468 1.866.702 2.934.702 1.128 0 2.064-.36 2.808-1.08.756-.732 1.176-1.89 1.26-3.474-1.176.78-2.454 1.17-3.834 1.17-1.116 0-2.094-.336-2.934-1.008-.84-.684-1.26-1.626-1.26-2.826zm4.5-2.61c-.888 0-1.608.204-2.16.612-.54.408-.81 1.05-.81 1.926 0 .888.282 1.53.846 1.926.564.384 1.296.576 2.196.576 1.332 0 2.478-.426 3.438-1.278-.228-2.508-1.398-3.762-3.51-3.762zM40.8 177.76h8.82v1.368L44.51 190h-1.62l5.075-10.8h-7.163v-1.44z" fill="#454545"/><path d="M66.5 215.5h45l28-28h22l49-49h26L280 95h38.5L348 65.5h66.5L432 48h137" stroke="#F28100" stroke-width="2"/><path d="M66.5 201.5h25L106 187l13-13h92l11.5-11.5H244l17.5-17.5H293l34-34h54l13 13h28.5l13-13h34l19.5 19.5 40-40h40.5" stroke="#80DA39" stroke-width="2"/><path d="M66.5 167H92l7-7h109.5l14.5-14.5h40.5l11 11H338l11-11h51l9.5-9.5H460l12.5 12.5h29L514 136h54" stroke="#0FA7F0" stroke-width="2"/></svg>