<svg width="619" height="323" fill="none" xmlns="http://www.w3.org/2000/svg"><rect width="619" height="323" rx="20" fill="#fff"/><path d="M305.381 74.667l92.162 66.959-35.203 108.343H248.422l-35.203-108.343 92.162-66.96z" stroke="#DDDDE6" stroke-width="1.762"/><path d="M305.381 74.667l92.162 66.959-35.203 108.343H248.422l-35.203-108.343 92.162-66.96z" stroke="#DDDDE6" stroke-width=".881"/><path d="M305.381 108.143l60.324 43.828-23.042 70.915h-74.564l-23.042-70.915 60.324-43.828z" stroke="#DDDDE6" stroke-width=".881" stroke-linecap="round" stroke-dasharray="6.17 6.17"/><path d="M308.998 101.976l51.883 52.679v77.702l-97.78-8.341-50.22-82.092 96.117-39.948z" fill="#0FA7F0" fill-opacity=".1" stroke="#0FA7F0" stroke-width="1.762" stroke-linecap="round"/><path d="M305.381 140.772l40.52 21.282-15.477 34.434h-50.086l-15.477-34.434 40.52-21.282z" stroke="#DDDDE6" stroke-width=".881" stroke-linecap="round" stroke-dasharray="6.17 6.17"/><path d="M276.412 64l2.22-11.1h3.98c1.258 0 2.23.275 2.918.825.697.55 1.046 1.321 1.046 2.315 0 .951-.211 1.76-.634 2.426-.412.655-1.004 1.157-1.776 1.506-.772.35-1.686.524-2.743.524h-3.663l.634-.555-.825 4.059h-1.157zm1.95-3.964l-.412-.571h3.488c1.258 0 2.231-.28 2.918-.84.698-.56 1.047-1.385 1.047-2.474 0-.73-.249-1.285-.746-1.665-.496-.38-1.21-.571-2.14-.571h-3.425l.618-.587-1.348 6.708zm14.918-4.44c.751 0 1.364.148 1.84.444.486.285.819.703.999 1.252.19.55.206 1.206.047 1.967L295.215 64h-1.126l.951-4.757c.169-.825.08-1.47-.269-1.935-.339-.465-.941-.697-1.808-.697-.888 0-1.628.243-2.22.729-.581.486-.973 1.216-1.173 2.188L288.682 64h-1.126l2.347-11.766h1.125l-1.173 5.835-.285-.412c.401-.719.919-1.242 1.554-1.57.644-.327 1.363-.491 2.156-.491zm8.702 8.483c-.771 0-1.443-.142-2.014-.428a3.3 3.3 0 01-1.316-1.237c-.306-.528-.46-1.152-.46-1.87 0-.952.207-1.798.619-2.538a4.494 4.494 0 011.712-1.76c.73-.434 1.56-.65 2.49-.65.772 0 1.438.142 1.998.428.571.285 1.01.692 1.316 1.22.317.53.476 1.153.476 1.872 0 .951-.206 1.802-.619 2.553a4.64 4.64 0 01-1.712 1.76c-.719.434-1.549.65-2.49.65zm.08-.999c.697 0 1.316-.164 1.855-.491.55-.339.978-.804 1.284-1.396.317-.592.476-1.263.476-2.014 0-.824-.243-1.464-.729-1.918-.476-.455-1.147-.682-2.014-.682-.687 0-1.306.169-1.856.507a3.602 3.602 0 00-1.3 1.396c-.306.581-.46 1.252-.46 2.014 0 .814.238 1.448.714 1.902.486.455 1.163.682 2.03.682zm8.799 1c-.475 0-.882-.101-1.221-.302a1.695 1.695 0 01-.713-.888c-.127-.38-.138-.835-.032-1.364l1.522-7.69h1.126l-1.522 7.643c-.106.518-.069.92.111 1.205.19.285.534.428 1.031.428.232 0 .46-.032.682-.095a1.87 1.87 0 00.602-.333l.27.856a2.473 2.473 0 01-.888.428c-.328.074-.65.111-.968.111zm-2.473-7.47l.174-.935h5.154l-.191.936h-5.137zm9.684 7.47c-.772 0-1.443-.143-2.014-.429a3.3 3.3 0 01-1.316-1.237c-.307-.528-.46-1.152-.46-1.87 0-.952.206-1.798.618-2.538a4.497 4.497 0 011.713-1.76c.729-.434 1.559-.65 2.489-.65.772 0 1.438.142 1.998.428a3.07 3.07 0 011.317 1.22c.317.53.475 1.153.475 1.872 0 .951-.206 1.802-.618 2.553a4.635 4.635 0 01-1.713 1.76c-.719.434-1.548.65-2.489.65zm.079-1c.698 0 1.316-.164 1.855-.491.55-.339.978-.804 1.285-1.396.317-.592.475-1.263.475-2.014 0-.824-.243-1.464-.729-1.918-.476-.455-1.147-.682-2.014-.682a3.47 3.47 0 00-1.855.507 3.6 3.6 0 00-1.3 1.396c-.307.581-.46 1.252-.46 2.014 0 .814.238 1.448.713 1.902.487.455 1.163.682 2.03.682z" fill="#454545"/><rect x="286.881" y="94.048" width="43.167" height="29.071" rx="14.536" fill="#0FA7F0"/><path d="M299.232 113.221c-.672 0-1.26-.1-1.764-.298-.503-.206-.897-.493-1.179-.859a2.103 2.103 0 01-.424-1.306c0-.496.138-.916.412-1.259.283-.352.676-.615 1.18-.791.504-.183 1.096-.274 1.775-.274.687 0 1.283.091 1.787.274.511.176.904.439 1.179.791.283.343.424.763.424 1.259 0 .497-.141.932-.424 1.306-.282.366-.679.653-1.191.859-.504.198-1.095.298-1.775.298zm0-1.363c.466 0 .832-.103 1.1-.309.274-.207.412-.489.412-.848s-.138-.637-.412-.836c-.268-.206-.634-.309-1.1-.309-.458 0-.821.103-1.088.309-.267.199-.401.477-.401.836s.134.641.401.848c.267.206.63.309 1.088.309zm0-2.485c-.618 0-1.16-.084-1.626-.252-.458-.168-.817-.413-1.077-.733a1.865 1.865 0 01-.378-1.168c0-.474.13-.878.39-1.214.259-.344.622-.607 1.088-.791.466-.19 1-.286 1.603-.286.619 0 1.157.096 1.615.286.466.184.828.447 1.088.791.267.336.401.74.401 1.214 0 .45-.13.839-.39 1.168-.252.32-.61.565-1.076.733-.466.168-1.012.252-1.638.252zm0-1.088c.39 0 .695-.088.916-.264a.859.859 0 00.344-.721c0-.321-.118-.569-.355-.745-.229-.175-.531-.263-.905-.263-.366 0-.664.088-.893.263-.229.176-.344.424-.344.745 0 .305.111.546.332.721.222.176.523.264.905.264zm7.675 4.936a3.296 3.296 0 01-1.764-.481c-.519-.329-.927-.802-1.225-1.42-.298-.619-.447-1.367-.447-2.245 0-.878.149-1.626.447-2.245.298-.618.706-1.088 1.225-1.408a3.227 3.227 0 011.764-.493c.664 0 1.252.164 1.764.493.519.32.927.79 1.225 1.408.298.619.447 1.367.447 2.245 0 .878-.149 1.626-.447 2.245-.298.618-.706 1.091-1.225 1.42-.512.32-1.1.481-1.764.481zm0-1.569c.313 0 .584-.088.813-.264.237-.175.42-.454.55-.836.137-.381.206-.874.206-1.477 0-.603-.069-1.096-.206-1.477-.13-.382-.313-.661-.55-.836a1.295 1.295 0 00-.813-.264c-.305 0-.576.088-.813.264-.229.175-.412.454-.55.836-.13.381-.195.874-.195 1.477 0 .603.065 1.096.195 1.477.138.382.321.661.55.836.237.176.508.264.813.264zm5.494 1.431l5.474-8.016h1.363l-5.474 8.016h-1.363zm.698-3.687c-.389 0-.733-.088-1.03-.264a1.964 1.964 0 01-.71-.767c-.168-.336-.252-.729-.252-1.18 0-.45.084-.84.252-1.168.175-.328.412-.584.71-.767a1.925 1.925 0 011.03-.275c.39 0 .733.092 1.031.275.298.183.531.439.699.767.168.328.252.718.252 1.168 0 .451-.084.844-.252 1.18a1.889 1.889 0 01-.699.767 1.987 1.987 0 01-1.031.264zm0-.94a.718.718 0 00.607-.309c.153-.214.229-.534.229-.962 0-.427-.076-.744-.229-.95a.71.71 0 00-.607-.321c-.244 0-.446.107-.607.321-.152.206-.229.523-.229.95 0 .42.077.737.229.951.161.214.363.32.607.32zm5.44 4.719c-.381 0-.725-.088-1.03-.264a1.889 1.889 0 01-.699-.767c-.168-.336-.252-.729-.252-1.179 0-.451.084-.84.252-1.169.168-.328.401-.584.699-.767a1.965 1.965 0 011.03-.275c.397 0 .745.092 1.042.275.298.183.531.439.699.767.168.329.252.718.252 1.169 0 .45-.084.843-.252 1.179a1.889 1.889 0 01-.699.767 2.007 2.007 0 01-1.042.264zm0-.939a.718.718 0 00.607-.309c.153-.214.229-.535.229-.962 0-.42-.076-.737-.229-.951a.71.71 0 00-.607-.321c-.244 0-.446.107-.607.321-.152.206-.229.523-.229.951 0 .427.077.748.229.962a.74.74 0 00.607.309z" fill="#fff"/><rect x="335.333" y="138.095" width="43.167" height="29.071" rx="14.536" fill="#0FA7F0"/><path d="M347.948 157.268c-.733 0-1.371-.152-1.913-.458a3.053 3.053 0 01-1.236-1.34c-.291-.588-.436-1.313-.436-2.176 0-.924.172-1.706.516-2.347a3.601 3.601 0 011.443-1.466c.618-.336 1.328-.504 2.13-.504.427 0 .836.046 1.225.137.39.092.726.229 1.008.412l-.687 1.363a1.982 1.982 0 00-.71-.309 3.35 3.35 0 00-.79-.092c-.695 0-1.245.21-1.65.63-.404.42-.606 1.043-.606 1.867v.458c.007.168.03.336.068.504l-.515-.481c.145-.298.332-.546.561-.744.229-.206.5-.359.813-.458a3.314 3.314 0 011.054-.161c.519 0 .985.103 1.397.309.412.207.741.497.985.871.252.374.378.813.378 1.317 0 .542-.138 1.015-.412 1.42-.268.397-.63.706-1.088.928-.451.213-.962.32-1.535.32zm-.103-1.385c.259 0 .488-.046.687-.138a1.129 1.129 0 00.653-1.053c0-.367-.126-.657-.378-.871-.244-.221-.573-.332-.985-.332a1.55 1.55 0 00-.722.16c-.206.1-.37.241-.492.424a1.105 1.105 0 00-.172.619c0 .229.057.435.172.618.115.176.275.317.481.424.206.099.458.149.756.149zm7.246 1.385c-.657 0-1.245-.16-1.764-.481-.519-.328-.927-.801-1.225-1.42-.298-.618-.447-1.366-.447-2.244 0-.878.149-1.627.447-2.245.298-.619.706-1.088 1.225-1.409a3.232 3.232 0 011.764-.492c.664 0 1.252.164 1.764.492.519.321.927.79 1.225 1.409.298.618.447 1.367.447 2.245 0 .878-.149 1.626-.447 2.244-.298.619-.706 1.092-1.225 1.42-.512.321-1.1.481-1.764.481zm0-1.569c.313 0 .584-.087.813-.263.237-.176.42-.454.55-.836.137-.382.206-.874.206-1.477 0-.604-.069-1.096-.206-1.478-.13-.382-.313-.66-.55-.836a1.3 1.3 0 00-.813-.263c-.305 0-.576.088-.813.263-.229.176-.412.454-.55.836-.13.382-.195.874-.195 1.478 0 .603.065 1.095.195 1.477.138.382.321.66.55.836.237.176.508.263.813.263zm5.494 1.432l5.474-8.017h1.363l-5.474 8.017h-1.363zm.698-3.688c-.389 0-.733-.088-1.03-.263a1.96 1.96 0 01-.71-.768c-.168-.335-.252-.729-.252-1.179 0-.451.084-.84.252-1.168.175-.329.412-.584.71-.768a1.925 1.925 0 011.03-.274c.39 0 .733.091 1.031.274.298.184.531.439.699.768.168.328.252.717.252 1.168 0 .45-.084.844-.252 1.179a1.885 1.885 0 01-.699.768 1.996 1.996 0 01-1.031.263zm0-.939a.718.718 0 00.607-.309c.153-.214.229-.535.229-.962 0-.428-.076-.745-.229-.951a.712.712 0 00-.607-.32c-.244 0-.446.107-.607.32-.152.206-.229.523-.229.951 0 .42.077.737.229.95.161.214.363.321.607.321zm5.44 4.718c-.381 0-.725-.087-1.03-.263a1.889 1.889 0 01-.699-.767c-.168-.336-.252-.729-.252-1.18 0-.45.084-.84.252-1.168.168-.328.401-.584.699-.767a1.956 1.956 0 011.03-.275c.397 0 .745.091 1.042.275.298.183.531.439.699.767.168.328.252.718.252 1.168 0 .451-.084.844-.252 1.18a1.889 1.889 0 01-.699.767 2.007 2.007 0 01-1.042.263zm0-.939a.718.718 0 00.607-.309c.153-.214.229-.534.229-.962 0-.42-.076-.737-.229-.95a.71.71 0 00-.607-.321c-.244 0-.446.107-.607.321-.152.206-.229.523-.229.95 0 .428.077.748.229.962a.74.74 0 00.607.309z" fill="#fff"/><rect x="241.071" y="205.928" width="43.167" height="29.071" rx="14.536" fill="#0FA7F0"/><path d="M253.686 225.102c-.733 0-1.371-.153-1.913-.459a3.056 3.056 0 01-1.236-1.339c-.291-.588-.436-1.314-.436-2.176 0-.924.172-1.707.516-2.348a3.601 3.601 0 011.443-1.466c.618-.336 1.328-.504 2.13-.504.427 0 .836.046 1.225.137.39.092.726.229 1.008.413l-.687 1.363a1.959 1.959 0 00-.71-.31 3.345 3.345 0 00-.79-.091c-.695 0-1.245.21-1.649.63-.405.42-.607 1.042-.607 1.866v.458c.007.168.03.336.068.504l-.515-.481c.145-.297.332-.546.561-.744.229-.206.5-.359.813-.458.321-.107.672-.16 1.054-.16.519 0 .985.103 1.397.309.412.206.741.496.985.87.252.374.378.813.378 1.317 0 .542-.138 1.016-.412 1.42-.268.397-.63.706-1.088.928-.451.214-.962.321-1.535.321zm-.103-1.386c.259 0 .489-.046.687-.138.206-.099.367-.24.481-.423.115-.184.172-.394.172-.63 0-.367-.126-.657-.378-.871-.244-.221-.573-.332-.985-.332a1.55 1.55 0 00-.722.161c-.206.099-.37.24-.492.423a1.113 1.113 0 00-.172.619c0 .229.058.435.172.618.115.176.275.317.481.424.206.099.458.149.756.149zm7.246 1.386a3.296 3.296 0 01-1.764-.481c-.519-.329-.927-.802-1.225-1.421-.298-.618-.447-1.366-.447-2.244 0-.878.149-1.626.447-2.245.298-.618.706-1.088 1.225-1.409a3.234 3.234 0 011.764-.492c.664 0 1.252.164 1.764.492.519.321.927.791 1.225 1.409.298.619.447 1.367.447 2.245 0 .878-.149 1.626-.447 2.244-.298.619-.706 1.092-1.225 1.421-.512.32-1.1.481-1.764.481zm0-1.569c.313 0 .584-.088.813-.264.237-.175.42-.454.55-.836.137-.382.206-.874.206-1.477 0-.603-.069-1.096-.206-1.478-.13-.381-.313-.66-.55-.836a1.3 1.3 0 00-.813-.263c-.305 0-.576.088-.813.263-.229.176-.412.455-.55.836-.13.382-.194.875-.194 1.478s.064 1.095.194 1.477c.138.382.321.661.55.836.237.176.508.264.813.264zm5.494 1.431l5.474-8.017h1.363l-5.474 8.017h-1.363zm.698-3.688c-.389 0-.732-.087-1.03-.263a1.964 1.964 0 01-.71-.767c-.168-.336-.252-.729-.252-1.18 0-.45.084-.84.252-1.168.175-.328.412-.584.71-.767a1.919 1.919 0 011.03-.275c.39 0 .733.091 1.031.275.298.183.531.439.699.767.168.328.252.718.252 1.168 0 .451-.084.844-.252 1.18a1.889 1.889 0 01-.699.767 1.987 1.987 0 01-1.031.263zm0-.939a.718.718 0 00.607-.309c.153-.214.229-.534.229-.962 0-.427-.076-.744-.229-.95a.71.71 0 00-.607-.321c-.244 0-.446.107-.607.321-.152.206-.229.523-.229.95 0 .42.077.737.229.951.161.213.363.32.607.32zm5.44 4.719c-.381 0-.725-.088-1.03-.264a1.889 1.889 0 01-.699-.767c-.168-.336-.252-.729-.252-1.18 0-.45.084-.839.252-1.168.168-.328.401-.584.699-.767a1.965 1.965 0 011.03-.275c.397 0 .745.092 1.043.275.297.183.53.439.698.767.168.329.252.718.252 1.168 0 .451-.084.844-.252 1.18a1.893 1.893 0 01-.698.767 2.014 2.014 0 01-1.043.264zm0-.939a.717.717 0 00.607-.31c.153-.213.229-.534.229-.962 0-.419-.076-.736-.229-.95a.71.71 0 00-.607-.321c-.244 0-.446.107-.607.321-.152.206-.229.523-.229.95 0 .428.077.749.229.962.161.207.363.31.607.31z" fill="#fff"/><rect x="338.857" y="214.738" width="43.167" height="29.071" rx="14.536" fill="#0FA7F0"/><path d="M350.704 225.62c.741 0 1.379.152 1.913.458.534.305.947.752 1.237 1.34.29.58.435 1.305.435 2.176 0 .923-.176 1.706-.527 2.347a3.531 3.531 0 01-1.431 1.466c-.611.336-1.321.504-2.13.504-.42 0-.825-.046-1.214-.137a3.155 3.155 0 01-1.008-.413l.687-1.362c.221.152.458.259.71.32.252.054.515.08.79.08.687 0 1.233-.21 1.638-.629.412-.42.618-1.043.618-1.867 0-.138-.004-.29-.011-.458a3.927 3.927 0 00-.057-.504l.503.481a2.104 2.104 0 01-.549.756 2.57 2.57 0 01-.825.458 3.483 3.483 0 01-1.053.149c-.512 0-.978-.103-1.398-.31a2.559 2.559 0 01-.996-.87c-.244-.374-.366-.813-.366-1.317 0-.55.133-1.023.4-1.42a2.69 2.69 0 011.1-.916 3.519 3.519 0 011.534-.332zm.115 1.385c-.267 0-.5.05-.699.149a1.072 1.072 0 00-.469.412 1.126 1.126 0 00-.172.63c0 .367.122.661.366.882.252.214.585.321.997.321.267 0 .504-.05.71-.149a1.14 1.14 0 00.664-1.054c0-.229-.057-.431-.172-.607a1.057 1.057 0 00-.469-.423 1.625 1.625 0 00-.756-.161zm7.796 6.906c-.657 0-1.245-.16-1.764-.481-.519-.328-.928-.802-1.225-1.42-.298-.618-.447-1.367-.447-2.245 0-.878.149-1.626.447-2.244.297-.619.706-1.088 1.225-1.409a3.232 3.232 0 011.764-.492c.664 0 1.252.164 1.763.492.52.321.928.79 1.226 1.409.298.618.447 1.366.447 2.244 0 .878-.149 1.627-.447 2.245-.298.618-.706 1.092-1.226 1.42-.511.321-1.099.481-1.763.481zm0-1.569a1.3 1.3 0 00.813-.263c.237-.176.42-.455.55-.836.137-.382.206-.874.206-1.478 0-.603-.069-1.095-.206-1.477-.13-.382-.313-.66-.55-.836a1.295 1.295 0 00-.813-.263c-.306 0-.577.087-.813.263-.229.176-.413.454-.55.836-.13.382-.195.874-.195 1.477 0 .604.065 1.096.195 1.478.137.381.321.66.55.836.236.175.507.263.813.263zm5.494 1.432l5.474-8.017h1.363l-5.475 8.017h-1.362zm.698-3.688c-.389 0-.733-.088-1.03-.263a1.977 1.977 0 01-.711-.768c-.168-.336-.251-.729-.251-1.179 0-.451.083-.84.251-1.168a1.97 1.97 0 01.711-.768 1.925 1.925 0 011.03-.275c.39 0 .733.092 1.031.275.298.183.531.439.699.768.167.328.251.717.251 1.168 0 .45-.084.843-.251 1.179a1.891 1.891 0 01-.699.768 1.996 1.996 0 01-1.031.263zm0-.939a.72.72 0 00.607-.309c.153-.214.229-.535.229-.962 0-.428-.076-.745-.229-.951a.712.712 0 00-.607-.321c-.244 0-.446.107-.607.321-.152.206-.229.523-.229.951 0 .42.077.736.229.95.161.214.363.321.607.321zm5.44 4.718c-.382 0-.725-.088-1.031-.263a1.893 1.893 0 01-.698-.767c-.168-.336-.252-.73-.252-1.18 0-.45.084-.84.252-1.168.168-.328.401-.584.698-.767a1.96 1.96 0 011.031-.275c.397 0 .745.091 1.042.275.298.183.531.439.699.767.168.328.252.718.252 1.168 0 .45-.084.844-.252 1.18a1.889 1.889 0 01-.699.767 2.017 2.017 0 01-1.042.263zm0-.939a.72.72 0 00.607-.309c.153-.214.229-.534.229-.962 0-.42-.076-.737-.229-.951a.713.713 0 00-.607-.32c-.244 0-.447.107-.607.32-.153.207-.229.523-.229.951 0 .428.076.748.229.962.16.206.363.309.607.309z" fill="#fff"/><rect x="198.786" y="128.405" width="48.452" height="29.071" rx="14.536" fill="#0FA7F0"/><path d="M209.195 147.44v-7.329l.802.802h-2.405v-1.489h3.459v8.016h-1.856zm6.684.138c-.657 0-1.244-.16-1.764-.481-.519-.328-.927-.802-1.225-1.42-.298-.619-.447-1.367-.447-2.245 0-.878.149-1.626.447-2.245.298-.618.706-1.088 1.225-1.408a3.227 3.227 0 011.764-.493c.664 0 1.252.164 1.764.493.519.32.927.79 1.225 1.408.298.619.447 1.367.447 2.245 0 .878-.149 1.626-.447 2.245-.298.618-.706 1.092-1.225 1.42-.512.321-1.1.481-1.764.481zm0-1.569c.313 0 .584-.088.813-.264.237-.175.42-.454.55-.836.137-.381.206-.874.206-1.477 0-.603-.069-1.096-.206-1.477-.13-.382-.313-.661-.55-.836a1.295 1.295 0 00-.813-.264c-.305 0-.576.088-.813.264-.229.175-.412.454-.55.836-.13.381-.194.874-.194 1.477 0 .603.064 1.096.194 1.477.138.382.321.661.55.836.237.176.508.264.813.264zm7.773 1.569c-.657 0-1.245-.16-1.764-.481-.519-.328-.927-.802-1.225-1.42-.298-.619-.447-1.367-.447-2.245 0-.878.149-1.626.447-2.245.298-.618.706-1.088 1.225-1.408a3.224 3.224 0 011.764-.493c.664 0 1.252.164 1.764.493.519.32.927.79 1.225 1.408.298.619.447 1.367.447 2.245 0 .878-.149 1.626-.447 2.245-.298.618-.706 1.092-1.225 1.42-.512.321-1.1.481-1.764.481zm0-1.569c.313 0 .584-.088.813-.264.237-.175.42-.454.55-.836.137-.381.206-.874.206-1.477 0-.603-.069-1.096-.206-1.477-.13-.382-.313-.661-.55-.836a1.295 1.295 0 00-.813-.264c-.306 0-.577.088-.813.264-.229.175-.413.454-.55.836-.13.381-.195.874-.195 1.477 0 .603.065 1.096.195 1.477.137.382.321.661.55.836.236.176.507.264.813.264zm5.494 1.431l5.474-8.016h1.363l-5.474 8.016h-1.363zm.698-3.687c-.389 0-.733-.088-1.03-.264a1.964 1.964 0 01-.71-.767c-.168-.336-.252-.729-.252-1.18 0-.45.084-.839.252-1.168.175-.328.412-.584.71-.767a1.925 1.925 0 011.03-.275c.39 0 .733.092 1.031.275.298.183.531.439.699.767.168.329.252.718.252 1.168 0 .451-.084.844-.252 1.18a1.889 1.889 0 01-.699.767 1.987 1.987 0 01-1.031.264zm0-.939a.717.717 0 00.607-.31c.153-.213.229-.534.229-.962 0-.427-.076-.744-.229-.95a.71.71 0 00-.607-.321c-.244 0-.446.107-.607.321-.152.206-.229.523-.229.95 0 .42.077.737.229.951.161.214.363.321.607.321zm5.44 4.718c-.382 0-.725-.088-1.031-.263a1.896 1.896 0 01-.698-.768c-.168-.336-.252-.729-.252-1.179 0-.451.084-.84.252-1.168.168-.329.401-.584.698-.768a1.969 1.969 0 011.031-.275c.397 0 .745.092 1.042.275.298.184.531.439.699.768.168.328.252.717.252 1.168 0 .45-.084.843-.252 1.179a1.891 1.891 0 01-.699.768 2.017 2.017 0 01-1.042.263zm0-.939a.72.72 0 00.607-.309c.153-.214.229-.535.229-.962 0-.42-.076-.737-.229-.951a.71.71 0 00-.607-.32c-.244 0-.446.106-.607.32-.152.206-.229.523-.229.951 0 .427.077.748.229.962a.74.74 0 00.607.309z" fill="#fff"/><path d="M411.71 146.81l-2.711-11.1h1.205l2.521 10.434h-.714l6.74-10.434h1.237l-7.136 11.1h-1.142zm7.4 0l1.649-8.325h1.126l-1.649 8.325h-1.126zm2.696-10.165a.753.753 0 01-.555-.222.74.74 0 01-.206-.523.85.85 0 01.238-.603.86.86 0 01.634-.253c.222 0 .407.068.555.206a.682.682 0 01.222.523.86.86 0 01-.254.634.888.888 0 01-.634.238zm5.115 10.244c-.709 0-1.338-.143-1.887-.428a3.12 3.12 0 01-1.285-1.221c-.306-.529-.46-1.158-.46-1.887 0-.709.117-1.364.349-1.967.233-.602.56-1.125.983-1.569.423-.455.92-.804 1.491-1.047a4.841 4.841 0 011.887-.365c.729 0 1.348.132 1.855.397.508.253.899.629 1.174 1.126.274.486.412 1.078.412 1.776 0 .75-.106 1.443-.317 2.077a4.624 4.624 0 01-.904 1.649 4.14 4.14 0 01-1.443 1.078c-.55.254-1.168.381-1.855.381zm.237-.999c.698 0 1.317-.164 1.856-.492a3.481 3.481 0 001.284-1.395c.317-.592.476-1.263.476-2.014 0-.825-.243-1.464-.73-1.919-.475-.454-1.147-.682-2.013-.682-.688 0-1.306.17-1.856.508a3.599 3.599 0 00-1.3 1.395c-.307.582-.46 1.253-.46 2.014 0 .814.238 1.448.714 1.903.486.455 1.163.682 2.029.682zm2.744.92l.475-2.395.476-1.681.159-1.744 1.189-5.946h1.126l-2.347 11.766h-1.078zm8.019.079c-.793 0-1.485-.143-2.077-.428a3.258 3.258 0 01-1.348-1.237c-.306-.529-.46-1.158-.46-1.887 0-.952.201-1.797.603-2.537a4.52 4.52 0 011.649-1.745c.698-.433 1.485-.65 2.363-.65.74 0 1.379.143 1.918.428.54.275.957.677 1.253 1.206.307.528.46 1.162.46 1.902 0 .17-.011.344-.032.524a6.54 6.54 0 01-.079.491h-7.31l.143-.84h6.644l-.46.317c.106-.666.058-1.226-.143-1.681a2.127 2.127 0 00-.935-1.031c-.413-.243-.91-.364-1.491-.364-.677 0-1.279.169-1.808.507a3.345 3.345 0 00-1.237 1.38c-.296.581-.444 1.263-.444 2.045 0 .835.238 1.48.714 1.935.486.444 1.21.666 2.172.666a4.35 4.35 0 001.554-.27c.476-.19.867-.449 1.174-.777l.507.809c-.391.391-.882.698-1.474.92a5.4 5.4 0 01-1.856.317zm9.475 0c-.772 0-1.443-.143-2.014-.428a3.304 3.304 0 01-1.316-1.237c-.306-.529-.46-1.152-.46-1.871 0-.952.206-1.797.619-2.537a4.495 4.495 0 011.712-1.761c.73-.433 1.56-.65 2.49-.65.772 0 1.438.143 1.998.428a3.076 3.076 0 011.316 1.221c.317.529.476 1.153.476 1.872 0 .951-.206 1.802-.619 2.553a4.644 4.644 0 01-1.712 1.76c-.719.433-1.549.65-2.49.65zm.079-.999c.698 0 1.317-.164 1.856-.492a3.481 3.481 0 001.284-1.395c.317-.592.476-1.263.476-2.014 0-.825-.243-1.464-.73-1.919-.475-.454-1.147-.682-2.013-.682-.688 0-1.306.17-1.856.508a3.599 3.599 0 00-1.3 1.395c-.307.582-.46 1.253-.46 2.014 0 .814.238 1.448.714 1.903.486.455 1.163.682 2.029.682zm-353.89-1.871l.174-1.443 8.008-6.866h1.538l-5.994 5.153-.698.571-3.028 2.585zm-1.602 2.791l2.22-11.1h1.158l-2.22 11.1h-1.158zm8.056 0l-3.774-5.519.792-.777 4.298 6.296h-1.316zm6.398.079c-.793 0-1.485-.143-2.077-.428a3.258 3.258 0 01-1.348-1.237c-.306-.529-.46-1.158-.46-1.887 0-.952.201-1.797.603-2.537a4.52 4.52 0 011.649-1.745c.698-.433 1.485-.65 2.363-.65.74 0 1.379.143 1.918.428.54.275.957.677 1.253 1.206.307.528.46 1.162.46 1.902 0 .17-.011.344-.032.524a6.54 6.54 0 01-.079.491h-7.31l.143-.84h6.644l-.46.317c.106-.666.058-1.226-.143-1.681a2.127 2.127 0 00-.935-1.031c-.413-.243-.91-.364-1.491-.364-.677 0-1.279.169-1.808.507a3.345 3.345 0 00-1.237 1.38c-.296.581-.444 1.263-.444 2.045 0 .835.238 1.48.714 1.935.486.444 1.21.666 2.172.666a4.35 4.35 0 001.554-.27c.476-.19.867-.449 1.174-.777l.507.809c-.391.391-.882.698-1.474.92a5.4 5.4 0 01-1.856.317zm5.182 3.076a3.13 3.13 0 01-1.126-.206c-.36-.127-.645-.307-.857-.539l.603-.825c.18.191.391.339.634.444.243.106.518.159.825.159.359 0 .687-.101.983-.301.307-.191.624-.54.951-1.047l.841-1.284.143-.159 4.947-7.722h1.158l-6.09 9.403c-.348.528-.676.941-.983 1.237-.306.306-.623.523-.951.65-.317.127-.677.19-1.078.19zm2.664-2.918l-2.141-8.562h1.142l1.871 7.643-.872.919zm10.699-.237l1.871-9.388c.158-.782.475-1.385.951-1.808.486-.433 1.121-.65 1.903-.65.338 0 .655.048.951.143.296.095.54.227.73.396l-.508.825c-.296-.275-.687-.412-1.173-.412s-.877.132-1.173.396c-.286.254-.487.666-.603 1.237l-.254 1.221-.063.492-1.507 7.548h-1.125zm-.016-7.39l.174-.935h5.154l-.191.935h-5.137zm8.865 7.469c-.793 0-1.485-.143-2.077-.428a3.252 3.252 0 01-1.348-1.237c-.307-.529-.46-1.158-.46-1.887 0-.952.201-1.797.603-2.537a4.512 4.512 0 011.649-1.745c.698-.433 1.485-.65 2.363-.65.74 0 1.379.143 1.918.428.539.275.957.677 1.253 1.206.307.528.46 1.162.46 1.902 0 .17-.011.344-.032.524a6.54 6.54 0 01-.079.491h-7.31l.142-.84h6.645l-.46.317c.105-.666.058-1.226-.143-1.681a2.124 2.124 0 00-.936-1.031c-.412-.243-.909-.364-1.49-.364-.677 0-1.279.169-1.808.507a3.345 3.345 0 00-1.237 1.38c-.296.581-.444 1.263-.444 2.045 0 .835.238 1.48.714 1.935.486.444 1.21.666 2.172.666a4.35 4.35 0 001.554-.27c.476-.19.867-.449 1.174-.777l.507.809c-.391.391-.883.698-1.475.92a5.391 5.391 0 01-1.855.317zm9.316 0c-.708 0-1.337-.143-1.887-.428a3.123 3.123 0 01-1.284-1.221c-.307-.529-.46-1.158-.46-1.887 0-.709.116-1.364.349-1.967.233-.602.56-1.125.983-1.569.423-.455.92-.804 1.491-1.047a4.841 4.841 0 011.887-.365c.729 0 1.348.132 1.855.397.507.253.899.629 1.173 1.126.275.486.413 1.078.413 1.776 0 1.004-.185 1.897-.555 2.679-.37.783-.894 1.396-1.57 1.84-.677.444-1.475.666-2.395.666zm.238-.999c.698 0 1.316-.164 1.856-.492a3.488 3.488 0 001.284-1.395c.317-.592.476-1.263.476-2.014 0-.825-.243-1.464-.73-1.919-.475-.454-1.147-.682-2.014-.682-.687 0-1.305.17-1.855.508-.55.338-.983.803-1.3 1.395-.307.582-.46 1.253-.46 2.014 0 .814.238 1.448.714 1.903.486.455 1.162.682 2.029.682zm2.744.92l.475-2.395.476-1.681.159-1.744.507-2.505h1.126l-1.665 8.325h-1.078zm6.862.079c-.476 0-.883-.101-1.221-.301a1.697 1.697 0 01-.714-.888c-.127-.381-.137-.836-.032-1.364l1.523-7.691h1.125l-1.522 7.643c-.106.518-.069.92.111 1.205.19.286.534.429 1.031.429.232 0 .46-.032.682-.096a1.86 1.86 0 00.602-.333l.27.857c-.264.201-.56.343-.888.428-.328.074-.65.111-.967.111zm-2.474-7.469l.174-.935h5.154l-.19.935h-5.138zm9.756 7.469c-.73 0-1.337-.148-1.824-.444a2.282 2.282 0 01-.983-1.269c-.18-.549-.201-1.2-.063-1.95l.951-4.741h1.126l-.951 4.741c-.159.824-.069 1.475.269 1.95.338.465.93.698 1.776.698.878 0 1.607-.243 2.188-.729.592-.487.989-1.216 1.19-2.189l.888-4.471h1.126l-1.665 8.325h-1.079l.476-2.395.238.397c-.391.718-.909 1.247-1.554 1.585a4.52 4.52 0 01-2.109.492zm7.165-.079l1.65-8.325h1.078l-.476 2.457-.127-.428c.37-.729.857-1.263 1.459-1.601.613-.339 1.374-.508 2.284-.508l-.207 1.094h-.158a.703.703 0 00-.159-.015c-.888 0-1.622.259-2.204.777-.571.507-.962 1.279-1.173 2.315l-.841 4.234h-1.126zm9.969.079c-.793 0-1.485-.143-2.077-.428a3.258 3.258 0 01-1.348-1.237c-.306-.529-.46-1.158-.46-1.887 0-.952.201-1.797.603-2.537a4.52 4.52 0 011.649-1.745c.698-.433 1.485-.65 2.363-.65.74 0 1.379.143 1.918.428.54.275.957.677 1.253 1.206.307.528.46 1.162.46 1.902 0 .17-.011.344-.032.524a6.54 6.54 0 01-.079.491h-7.31l.143-.84h6.644l-.46.317c.106-.666.058-1.226-.143-1.681a2.127 2.127 0 00-.935-1.031c-.413-.243-.91-.364-1.491-.364-.677 0-1.279.169-1.808.507a3.345 3.345 0 00-1.237 1.38c-.296.581-.444 1.263-.444 2.045 0 .835.238 1.48.714 1.935.486.444 1.21.666 2.172.666a4.35 4.35 0 001.554-.27c.476-.19.867-.449 1.174-.777l.507.809c-.391.391-.882.698-1.474.92a5.4 5.4 0 01-1.856.317zm8.191 0a6.315 6.315 0 01-1.919-.286c-.603-.19-1.068-.433-1.395-.729l.539-.888c.317.285.734.513 1.252.682a5.572 5.572 0 001.634.238c.793 0 1.4-.132 1.823-.397.434-.264.65-.629.65-1.094 0-.317-.116-.555-.348-.713-.222-.17-.513-.296-.873-.381-.359-.095-.74-.185-1.141-.27a8.852 8.852 0 01-1.142-.317 2.14 2.14 0 01-.888-.618c-.222-.275-.333-.645-.333-1.11 0-.529.148-.989.444-1.38.307-.391.729-.692 1.269-.904.539-.211 1.173-.317 1.902-.317.529 0 1.052.069 1.57.206.518.138.936.328 1.253.571l-.476.904a2.996 2.996 0 00-1.141-.539 5.016 5.016 0 00-1.301-.174c-.771 0-1.369.142-1.792.428-.412.275-.618.639-.618 1.094 0 .317.111.56.333.729.233.169.529.302.888.397.359.095.74.185 1.142.269.412.074.793.18 1.141.317.36.138.651.339.873.603.232.254.348.613.348 1.078 0 .55-.153 1.02-.459 1.412-.307.38-.74.676-1.301.888-.549.2-1.194.301-1.934.301zm188.31 121.587a7.442 7.442 0 01-1.601-.174 6.679 6.679 0 01-1.411-.508c-.423-.222-.762-.465-1.015-.729l.571-.92c.253.264.565.497.935.698a5.68 5.68 0 001.253.475c.454.106.909.159 1.364.159.655 0 1.226-.085 1.712-.254.497-.169.883-.417 1.158-.745.275-.328.412-.724.412-1.189 0-.37-.106-.666-.317-.888a2.214 2.214 0 00-.825-.555 8.768 8.768 0 00-1.126-.397 27.77 27.77 0 01-1.236-.38 6.244 6.244 0 01-1.142-.508 2.474 2.474 0 01-.825-.793c-.201-.327-.301-.74-.301-1.236 0-.698.19-1.295.571-1.792.38-.508.904-.894 1.57-1.158.666-.264 1.432-.396 2.299-.396a7.37 7.37 0 011.887.238c.613.158 1.131.396 1.554.713l-.492.952a4.278 4.278 0 00-1.379-.666 5.537 5.537 0 00-1.633-.238c-.645 0-1.211.09-1.697.269-.486.18-.867.439-1.142.777-.264.328-.396.724-.396 1.19 0 .37.1.671.301.903.211.233.486.423.825.571.348.148.729.286 1.141.413.413.116.825.243 1.237.38a5.18 5.18 0 011.126.492c.349.19.629.444.84.761.212.306.318.703.318 1.189 0 .708-.196 1.316-.587 1.824-.391.497-.93.877-1.618 1.141-.676.254-1.453.381-2.331.381zm12.008-8.499c.751 0 1.364.148 1.839.444.487.285.82.703.999 1.252.191.55.207 1.205.048 1.967l-.951 4.741h-1.126l.951-4.757c.169-.825.079-1.47-.269-1.935-.339-.465-.941-.698-1.808-.698-.888 0-1.628.244-2.22.73-.582.486-.973 1.216-1.174 2.188l-.888 4.472h-1.125l2.346-11.766h1.126l-1.173 5.835-.286-.412c.402-.719.92-1.242 1.554-1.57.645-.328 1.364-.491 2.157-.491zm8.702 8.483c-.772 0-1.443-.143-2.014-.428a3.297 3.297 0 01-1.316-1.237c-.306-.528-.46-1.152-.46-1.871 0-.951.206-1.797.619-2.537a4.493 4.493 0 011.712-1.76c.73-.434 1.56-.65 2.49-.65.772 0 1.438.142 1.998.428a3.064 3.064 0 011.316 1.221c.317.528.476 1.152.476 1.871 0 .951-.206 1.802-.619 2.553a4.636 4.636 0 01-1.712 1.76c-.719.433-1.549.65-2.49.65zm.079-.999c.698 0 1.317-.164 1.856-.491a3.49 3.49 0 001.284-1.396c.317-.592.476-1.263.476-2.014 0-.824-.243-1.464-.73-1.918-.475-.455-1.147-.682-2.013-.682-.688 0-1.306.169-1.856.507a3.601 3.601 0 00-1.3 1.396c-.307.581-.46 1.252-.46 2.013 0 .814.238 1.449.714 1.903.486.455 1.163.682 2.029.682zm6.152.92l1.649-8.325h1.079l-.476 2.458-.127-.428c.37-.73.856-1.264 1.459-1.602.613-.338 1.374-.507 2.283-.507l-.206 1.094h-.158a.65.65 0 00-.159-.016c-.888 0-1.623.259-2.204.777-.571.507-.962 1.279-1.173 2.315l-.841 4.234h-1.126zm9.245.079c-.475 0-.882-.1-1.221-.301a1.7 1.7 0 01-.713-.888c-.127-.381-.138-.835-.032-1.364l1.522-7.691h1.126l-1.522 7.644c-.106.518-.069.919.111 1.205.19.285.534.428 1.031.428.232 0 .459-.032.681-.095.222-.074.423-.185.603-.333l.27.856a2.473 2.473 0 01-.888.428 4.392 4.392 0 01-.968.111zm-2.473-7.469l.174-.935h5.154l-.191.935h-5.137zm13.969 7.469c-.708 0-1.337-.143-1.887-.428a3.098 3.098 0 01-1.284-1.221c-.307-.529-.46-1.158-.46-1.887 0-.708.116-1.364.349-1.966a4.69 4.69 0 01.983-1.57c.423-.455.92-.804 1.49-1.047a4.848 4.848 0 011.887-.364c.73 0 1.348.132 1.856.396.507.254.898.629 1.173 1.126.275.486.412 1.078.412 1.776 0 .75-.105 1.443-.317 2.077a4.624 4.624 0 01-.904 1.649 4.136 4.136 0 01-1.443 1.079c-.549.253-1.168.38-1.855.38zm.238-.999c.698 0 1.316-.164 1.855-.491.55-.339.978-.804 1.285-1.396.317-.592.475-1.263.475-2.014 0-.824-.243-1.464-.729-1.918-.476-.455-1.147-.682-2.014-.682a3.47 3.47 0 00-1.855.507c-.55.338-.983.804-1.3 1.396-.307.581-.46 1.252-.46 2.013 0 .814.238 1.449.713 1.903.487.455 1.163.682 2.03.682zm2.743.92l.476-2.395.476-1.68.158-1.745 1.19-5.946h1.125l-2.346 11.766h-1.079zm8.02.079c-.793 0-1.485-.143-2.077-.428a3.245 3.245 0 01-1.348-1.237c-.307-.528-.46-1.157-.46-1.887 0-.951.201-1.797.602-2.537a4.52 4.52 0 011.65-1.744c.697-.434 1.485-.65 2.362-.65.74 0 1.38.142 1.919.428.539.275.957.676 1.253 1.205.306.528.46 1.163.46 1.903 0 .169-.011.343-.032.523a7.224 7.224 0 01-.079.492h-7.311l.143-.841h6.644l-.46.317c.106-.666.059-1.226-.142-1.681a2.118 2.118 0 00-.936-1.03c-.412-.243-.909-.365-1.49-.365-.677 0-1.28.169-1.808.507a3.338 3.338 0 00-1.237 1.38c-.296.581-.444 1.263-.444 2.046 0 .835.238 1.48.714 1.934.486.444 1.21.666 2.172.666.56 0 1.078-.09 1.554-.269.476-.191.867-.45 1.173-.777l.508.808c-.391.391-.883.698-1.475.92-.581.211-1.2.317-1.855.317zm8.19 0a6.34 6.34 0 01-1.918-.285c-.603-.191-1.068-.434-1.396-.73l.539-.888c.317.286.735.513 1.253.682a5.532 5.532 0 001.633.238c.793 0 1.401-.132 1.824-.396.433-.265.65-.629.65-1.095 0-.317-.116-.555-.349-.713-.222-.169-.513-.296-.872-.381a22.3 22.3 0 00-1.142-.269 9.218 9.218 0 01-1.141-.317 2.139 2.139 0 01-.888-.619c-.222-.275-.333-.645-.333-1.11 0-.528.148-.988.444-1.379.306-.392.729-.693 1.268-.904.539-.212 1.174-.317 1.903-.317a6.07 6.07 0 011.57.206c.518.137.935.327 1.253.571l-.476.903a3.016 3.016 0 00-1.142-.539 5.009 5.009 0 00-1.3-.174c-.772 0-1.369.143-1.792.428-.412.275-.618.64-.618 1.094 0 .317.111.56.333.73.232.169.528.301.888.396.359.095.74.185 1.141.27.413.074.793.179 1.142.317.359.137.65.338.872.602.233.254.349.613.349 1.079 0 .549-.153 1.02-.46 1.411-.306.38-.74.676-1.3.888-.55.201-1.195.301-1.935.301zm9.091 0c-.793 0-1.48-.143-2.062-.428a3.282 3.282 0 01-1.332-1.237c-.306-.528-.459-1.152-.459-1.871 0-.951.206-1.797.618-2.537a4.489 4.489 0 011.713-1.76c.74-.434 1.58-.65 2.521-.65.772 0 1.432.142 1.982.428.56.275.994.687 1.3 1.237l-.951.555a2.179 2.179 0 00-.967-.936c-.402-.201-.888-.301-1.459-.301-.698 0-1.322.169-1.871.507-.55.338-.984.804-1.301 1.396-.306.581-.46 1.252-.46 2.013 0 .814.238 1.449.714 1.903.486.455 1.173.682 2.061.682.54 0 1.036-.1 1.491-.301a2.929 2.929 0 001.142-.904l.808.618c-.359.497-.851.888-1.474 1.174a4.937 4.937 0 01-2.014.412zm5.161-.079l1.649-8.325h1.078l-.475 2.458-.127-.428c.37-.73.856-1.264 1.459-1.602.613-.338 1.374-.507 2.283-.507l-.206 1.094h-.159a.64.64 0 00-.158-.016c-.888 0-1.623.259-2.204.777-.571.507-.962 1.279-1.174 2.315l-.84 4.234h-1.126zm6.241 0l1.649-8.325h1.126l-1.649 8.325h-1.126zm2.695-10.165a.753.753 0 01-.555-.222.745.745 0 01-.206-.523c0-.232.08-.433.238-.602a.858.858 0 01.634-.254c.222 0 .407.069.555.206a.682.682 0 01.222.523.863.863 0 01-.253.635.894.894 0 01-.635.237zm6.193 10.244c-.718 0-1.337-.127-1.855-.38a2.813 2.813 0 01-1.173-1.126c-.265-.497-.402-1.094-.413-1.792 0-1.026.185-1.924.555-2.696.37-.782.894-1.39 1.57-1.823.677-.444 1.475-.666 2.395-.666.719 0 1.348.142 1.887.428.549.275.978.676 1.284 1.205.317.528.476 1.157.476 1.887 0 .719-.116 1.379-.349 1.982a4.59 4.59 0 01-.999 1.57c-.423.444-.92.793-1.491 1.046a4.746 4.746 0 01-1.887.365zm-5.248 2.997l2.267-11.401h1.079l-.476 2.394-.46 1.665-.174 1.745-1.11 5.597h-1.126zm5.233-3.996c.697 0 1.316-.164 1.855-.491a3.524 3.524 0 001.268-1.396c.318-.592.476-1.263.476-2.014 0-.824-.238-1.464-.713-1.918-.476-.455-1.153-.682-2.03-.682-.687 0-1.306.169-1.855.507-.54.338-.968.804-1.285 1.396-.306.581-.46 1.252-.46 2.013 0 .814.238 1.449.714 1.903.476.455 1.152.682 2.03.682zm8.78.999c-.475 0-.882-.1-1.221-.301a1.7 1.7 0 01-.713-.888c-.127-.381-.138-.835-.032-1.364l1.522-7.691h1.126l-1.522 7.644c-.106.518-.069.919.111 1.205.19.285.534.428 1.031.428.232 0 .459-.032.681-.095.222-.074.423-.185.603-.333l.27.856a2.473 2.473 0 01-.888.428 4.392 4.392 0 01-.968.111zm-2.473-7.469l.174-.935h5.154l-.191.935h-5.137zm6.267 7.39l1.649-8.325h1.126l-1.649 8.325h-1.126zm2.696-10.165a.753.753 0 01-.555-.222.74.74 0 01-.206-.523c0-.232.079-.433.237-.602a.86.86 0 01.635-.254c.222 0 .407.069.555.206a.682.682 0 01.222.523.864.864 0 01-.254.635.893.893 0 01-.634.237zm5.273 10.244c-.772 0-1.443-.143-2.014-.428a3.297 3.297 0 01-1.316-1.237c-.306-.528-.46-1.152-.46-1.871 0-.951.206-1.797.619-2.537a4.493 4.493 0 011.712-1.76c.73-.434 1.56-.65 2.49-.65.772 0 1.438.142 1.998.428a3.064 3.064 0 011.316 1.221c.317.528.476 1.152.476 1.871 0 .951-.206 1.802-.619 2.553a4.636 4.636 0 01-1.712 1.76c-.719.433-1.549.65-2.49.65zm.079-.999c.698 0 1.317-.164 1.856-.491a3.49 3.49 0 001.284-1.396c.317-.592.476-1.263.476-2.014 0-.824-.243-1.464-.73-1.918-.475-.455-1.147-.682-2.013-.682-.688 0-1.306.169-1.856.507a3.601 3.601 0 00-1.3 1.396c-.307.581-.46 1.252-.46 2.013 0 .814.238 1.449.714 1.903.486.455 1.163.682 2.029.682zm11.877-7.484c.75 0 1.363.148 1.839.444.486.285.819.703.999 1.252.19.55.206 1.205.048 1.967l-.952 4.741h-1.126l.952-4.757c.169-.825.079-1.47-.27-1.935-.338-.465-.941-.698-1.807-.698-.888 0-1.628.244-2.22.73-.582.486-.973 1.216-1.174 2.188l-.888 4.472h-1.126l1.649-8.325h1.079l-.476 2.394-.238-.412c.402-.719.92-1.242 1.554-1.57.645-.328 1.364-.491 2.157-.491zm-369.83 8.404l2.22-11.1h3.996c1.258 0 2.231.275 2.918.824.698.55 1.047 1.322 1.047 2.316 0 .94-.212 1.744-.635 2.41-.412.655-1.004 1.157-1.776 1.506-.771.349-1.686.524-2.743.524h-3.663l.619-.54-.809 4.06h-1.174zm7.596 0l-2.268-4.028h1.253l2.284 4.028h-1.269zm-5.645-3.964l-.397-.571h3.489c1.258 0 2.231-.28 2.918-.841.697-.56 1.046-1.385 1.046-2.473 0-.73-.248-1.285-.745-1.665-.497-.381-1.205-.571-2.125-.571h-3.441l.603-.571-1.348 6.692zm9.271 3.964l1.649-8.325h1.126l-1.649 8.325h-1.126zm2.696-10.165a.753.753 0 01-.555-.222.741.741 0 01-.207-.523c0-.232.08-.433.238-.602a.858.858 0 01.635-.254c.222 0 .407.069.555.206a.682.682 0 01.222.523.864.864 0 01-.254.635.893.893 0 01-.634.237zm5.336 10.244c-.792 0-1.48-.143-2.061-.428a3.27 3.27 0 01-1.332-1.237c-.307-.528-.46-1.152-.46-1.871 0-.951.206-1.797.619-2.537a4.493 4.493 0 011.712-1.76c.74-.434 1.581-.65 2.521-.65.772 0 1.433.142 1.983.428.56.275.993.687 1.3 1.237l-.952.555a2.174 2.174 0 00-.967-.936c-.402-.201-.888-.301-1.459-.301-.697 0-1.321.169-1.871.507-.55.338-.983.804-1.3 1.396-.307.581-.46 1.252-.46 2.013 0 .814.238 1.449.714 1.903.486.455 1.173.682 2.061.682.539 0 1.036-.1 1.491-.301a2.926 2.926 0 001.141-.904l.809.618c-.359.497-.851.888-1.475 1.174a4.933 4.933 0 01-2.014.412zm10.762-8.483c.751 0 1.364.148 1.839.444.487.285.82.703.999 1.252.191.55.207 1.205.048 1.967l-.951 4.741h-1.126l.951-4.757c.169-.825.079-1.47-.269-1.935-.339-.465-.941-.698-1.808-.698-.888 0-1.628.244-2.22.73-.582.486-.973 1.216-1.174 2.188l-.888 4.472h-1.125l2.346-11.766h1.126l-1.173 5.835-.286-.412c.402-.719.92-1.242 1.554-1.57.645-.328 1.364-.491 2.157-.491zm12.916 8.483c-.793 0-1.48-.143-2.062-.428a3.27 3.27 0 01-1.332-1.237c-.306-.528-.46-1.152-.46-1.871 0-.951.207-1.797.619-2.537a4.493 4.493 0 011.712-1.76c.74-.434 1.581-.65 2.522-.65.771 0 1.432.142 1.982.428.56.275.994.687 1.3 1.237l-.951.555a2.176 2.176 0 00-.968-.936c-.401-.201-.888-.301-1.458-.301-.698 0-1.322.169-1.872.507a3.601 3.601 0 00-1.3 1.396c-.306.581-.46 1.252-.46 2.013 0 .814.238 1.449.714 1.903.486.455 1.173.682 2.061.682.539 0 1.036-.1 1.491-.301a2.929 2.929 0 001.142-.904l.808.618c-.359.497-.851.888-1.474 1.174a4.937 4.937 0 01-2.014.412zm8.732 0c-.772 0-1.443-.143-2.014-.428a3.297 3.297 0 01-1.316-1.237c-.307-.528-.46-1.152-.46-1.871 0-.951.206-1.797.619-2.537a4.493 4.493 0 011.712-1.76c.73-.434 1.559-.65 2.49-.65.771 0 1.437.142 1.998.428a3.064 3.064 0 011.316 1.221c.317.528.476 1.152.476 1.871 0 .951-.207 1.802-.619 2.553a4.636 4.636 0 01-1.712 1.76c-.719.433-1.549.65-2.49.65zm.079-.999c.698 0 1.316-.164 1.856-.491a3.497 3.497 0 001.284-1.396c.317-.592.476-1.263.476-2.014 0-.824-.243-1.464-.73-1.918-.475-.455-1.147-.682-2.014-.682a3.47 3.47 0 00-1.855.507c-.55.338-.983.804-1.3 1.396-.307.581-.46 1.252-.46 2.013 0 .814.238 1.449.714 1.903.486.455 1.162.682 2.029.682zm11.877-7.484c.75 0 1.363.148 1.839.444.486.285.819.703.999 1.252.19.55.206 1.205.048 1.967l-.952 4.741h-1.126l.952-4.757c.169-.825.079-1.47-.27-1.935-.338-.465-.941-.698-1.808-.698-.888 0-1.628.244-2.22.73-.581.486-.972 1.216-1.173 2.188l-.888 4.472h-1.126l1.649-8.325h1.079l-.476 2.394-.238-.412c.402-.719.92-1.242 1.554-1.57.645-.328 1.364-.491 2.157-.491zm7.639 8.483c-.475 0-.882-.1-1.221-.301a1.7 1.7 0 01-.713-.888c-.127-.381-.138-.835-.032-1.364l1.522-7.691h1.126l-1.522 7.644c-.106.518-.069.919.111 1.205.19.285.534.428 1.031.428.232 0 .459-.032.681-.095.222-.074.423-.185.603-.333l.27.856a2.473 2.473 0 01-.888.428 4.392 4.392 0 01-.968.111zm-2.473-7.469l.174-.935h5.154l-.191.935h-5.137zm9.779 7.469c-.793 0-1.486-.143-2.078-.428a3.257 3.257 0 01-1.348-1.237c-.306-.528-.459-1.157-.459-1.887 0-.951.2-1.797.602-2.537a4.524 4.524 0 011.649-1.744c.698-.434 1.486-.65 2.363-.65.74 0 1.38.142 1.919.428a2.93 2.93 0 011.252 1.205c.307.528.46 1.163.46 1.903 0 .169-.01.343-.031.523a7.218 7.218 0 01-.08.492h-7.31l.143-.841h6.644l-.46.317c.106-.666.058-1.226-.143-1.681a2.11 2.11 0 00-.935-1.03c-.412-.243-.909-.365-1.491-.365-.676 0-1.279.169-1.807.507a3.338 3.338 0 00-1.237 1.38c-.296.581-.444 1.263-.444 2.046 0 .835.238 1.48.713 1.934.487.444 1.211.666 2.173.666.56 0 1.078-.09 1.554-.269.475-.191.867-.45 1.173-.777l.508.808c-.392.391-.883.698-1.475.92a5.4 5.4 0 01-1.855.317zm11.488-8.483c.751 0 1.364.148 1.84.444.486.285.819.703.999 1.252.19.55.206 1.205.047 1.967l-.951 4.741h-1.126l.951-4.757c.17-.825.08-1.47-.269-1.935-.338-.465-.941-.698-1.808-.698-.888 0-1.628.244-2.22.73-.581.486-.972 1.216-1.173 2.188l-.888 4.472h-1.126l1.649-8.325h1.078l-.475 2.394-.238-.412c.401-.719.919-1.242 1.554-1.57.645-.328 1.363-.491 2.156-.491zm7.64 8.483c-.476 0-.883-.1-1.221-.301a1.706 1.706 0 01-.714-.888c-.126-.381-.137-.835-.031-1.364l1.522-7.691h1.126l-1.522 7.644c-.106.518-.069.919.111 1.205.19.285.533.428 1.03.428.233 0 .46-.032.682-.095.222-.074.423-.185.603-.333l.269.856c-.264.201-.56.344-.888.428-.327.074-.65.111-.967.111zm-2.474-7.469l.175-.935h5.153l-.19.935h-5.138z" fill="#454545"/></svg>