<svg width="719" height="502" viewBox="0 0 719 502" fill="none" xmlns="http://www.w3.org/2000/svg">
<g filter="url(#filter0_d_906_48)">
<path d="M50 66C50 54.9543 58.9543 46 70 46H649C660.046 46 669 54.9543 669 66V428C669 439.046 660.046 448 649 448H70C58.9543 448 50 439.046 50 428V66Z" fill="white"/>
</g>
<path d="M105 349H618" stroke="#37376D"/>
<path d="M116 360L116 84" stroke="#37376D"/>
<path d="M117 291H618" stroke="#DDDDE6" stroke-dasharray="7 7"/>
<path d="M117 232H618" stroke="#DDDDE6" stroke-dasharray="7 7"/>
<path d="M117 173H618" stroke="#DDDDE6" stroke-dasharray="7 7"/>
<path d="M117 112.5H618" stroke="#DDDDE6" stroke-dasharray="7 7"/>
<rect x="138" y="379" width="14" height="14" rx="2" fill="#F28100"/>
<path d="M164.168 392H162.656V379.4H164.168V384.854H167.03L170.828 379.4H172.556L168.272 385.538L172.934 392H171.206L167.084 386.294H164.168V392ZM174.479 391.01C173.567 390.194 173.111 389.084 173.111 387.68C173.111 386.276 173.567 385.172 174.479 384.368C175.391 383.552 176.471 383.144 177.719 383.144C178.979 383.144 180.059 383.552 180.959 384.368C181.871 385.172 182.327 386.276 182.327 387.68C182.327 389.084 181.871 390.194 180.959 391.01C180.059 391.814 178.979 392.216 177.719 392.216C176.471 392.216 175.391 391.814 174.479 391.01ZM179.987 390.002C180.587 389.426 180.887 388.652 180.887 387.68C180.887 386.708 180.587 385.94 179.987 385.376C179.387 384.8 178.631 384.512 177.719 384.512C176.807 384.512 176.051 384.8 175.451 385.376C174.851 385.94 174.551 386.708 174.551 387.68C174.551 388.652 174.851 389.426 175.451 390.002C176.051 390.566 176.807 390.848 177.719 390.848C178.631 390.848 179.387 390.566 179.987 390.002ZM185.833 392H184.393V383.36H185.833V387.014H190.837V383.36H192.277V392H190.837V388.346H185.833V392ZM196.379 392H194.939V383.36H196.379V386.96H198.125L200.861 383.36H202.535L199.259 387.662L202.931 392H201.239L198.071 388.292H196.379V392ZM207.997 390.362L210.913 383.36H212.443L208.195 393.296C207.367 395.216 206.281 396.176 204.937 396.176C204.613 396.176 204.301 396.134 204.001 396.05V394.808C204.253 394.88 204.505 394.916 204.757 394.916C205.681 394.916 206.425 394.214 206.989 392.81L207.313 392.018L203.209 383.36H204.739L207.997 390.362ZM215.343 384.8C216.315 383.696 217.479 383.144 218.835 383.144C220.071 383.144 221.097 383.576 221.913 384.44C222.741 385.304 223.155 386.384 223.155 387.68C223.155 388.976 222.741 390.056 221.913 390.92C221.097 391.784 220.071 392.216 218.835 392.216C217.467 392.216 216.351 391.712 215.487 390.704V395.96H214.047V383.36H215.343V384.8ZM220.833 390.002C221.421 389.414 221.715 388.64 221.715 387.68C221.715 386.72 221.421 385.946 220.833 385.358C220.257 384.77 219.537 384.476 218.673 384.476C217.941 384.476 217.293 384.68 216.729 385.088C216.165 385.496 215.751 386 215.487 386.6V388.76C215.751 389.36 216.165 389.864 216.729 390.272C217.293 390.68 217.941 390.884 218.673 390.884C219.537 390.884 220.257 390.59 220.833 390.002ZM224.633 387.68C224.633 386.264 225.065 385.154 225.929 384.35C226.805 383.546 227.807 383.144 228.935 383.144C229.991 383.144 230.861 383.408 231.545 383.936C232.241 384.464 232.697 385.118 232.913 385.898C233.129 386.666 233.141 387.47 232.949 388.31H226.073C226.157 389.162 226.535 389.804 227.207 390.236C227.879 390.668 228.689 390.884 229.637 390.884C230.693 390.884 231.641 390.65 232.481 390.182V391.586C231.677 392.006 230.657 392.216 229.421 392.216C228.053 392.216 226.913 391.826 226.001 391.046C225.089 390.266 224.633 389.144 224.633 387.68ZM231.671 387.05C231.707 386.798 231.689 386.534 231.617 386.258C231.545 385.982 231.413 385.706 231.221 385.43C231.041 385.154 230.759 384.926 230.375 384.746C229.991 384.566 229.541 384.476 229.025 384.476C228.245 384.476 227.567 384.704 226.991 385.16C226.427 385.616 226.121 386.246 226.073 387.05H231.671ZM236.493 392H235.053V383.36H236.493V387.014H241.497V383.36H242.937V392H241.497V388.346H236.493V392ZM249.2 392H247.76V384.692H244.574V383.36H252.368V384.692H249.2V392ZM261.076 379.76H262.192V390.56H264.478V392H258.106V390.56H260.68V381.362L258.106 382.334V380.894L261.076 379.76Z" fill="#454545"/>
<rect x="439" y="379" width="14" height="14" rx="2" fill="#0FA7F0"/>
<path d="M475.356 379.4H476.652V392H475.14V382.262L470.622 389.03H469.686L465.168 382.262V392H463.656V379.4H464.952L470.154 387.176L475.356 379.4ZM480.225 391.01C479.313 390.194 478.857 389.084 478.857 387.68C478.857 386.276 479.313 385.172 480.225 384.368C481.137 383.552 482.217 383.144 483.465 383.144C484.725 383.144 485.805 383.552 486.705 384.368C487.617 385.172 488.073 386.276 488.073 387.68C488.073 389.084 487.617 390.194 486.705 391.01C485.805 391.814 484.725 392.216 483.465 392.216C482.217 392.216 481.137 391.814 480.225 391.01ZM485.733 390.002C486.333 389.426 486.633 388.652 486.633 387.68C486.633 386.708 486.333 385.94 485.733 385.376C485.133 384.8 484.377 384.512 483.465 384.512C482.553 384.512 481.797 384.8 481.197 385.376C480.597 385.94 480.297 386.708 480.297 387.68C480.297 388.652 480.597 389.426 481.197 390.002C481.797 390.566 482.553 390.848 483.465 390.848C484.377 390.848 485.133 390.566 485.733 390.002ZM496.637 381.272C495.929 381.776 495.089 382.028 494.117 382.028C493.145 382.028 492.305 381.776 491.597 381.272V379.976C492.401 380.504 493.241 380.768 494.117 380.768C494.993 380.768 495.833 380.504 496.637 379.976V381.272ZM491.363 392H490.139V383.36H491.579V389.678L496.871 383.36H498.095V392H496.655V385.682L491.363 392ZM506.606 392H505.238V383.36H506.804L509.954 388.148L513.104 383.36H514.67V392H513.302V385.484L510.494 389.75H509.414L506.606 385.484V392ZM524.352 390.2C524.352 390.644 524.574 390.866 525.018 390.866C525.21 390.866 525.432 390.824 525.684 390.74V391.91C525.324 392.042 524.964 392.108 524.604 392.108C523.776 392.108 523.248 391.76 523.02 391.064C522.096 391.832 520.974 392.216 519.654 392.216C518.814 392.216 518.094 391.994 517.494 391.55C516.906 391.094 516.612 390.44 516.612 389.588C516.612 388.568 516.99 387.83 517.746 387.374C518.514 386.906 519.438 386.672 520.518 386.672C521.31 386.672 522.108 386.762 522.912 386.942V386.636C522.912 385.976 522.696 385.454 522.264 385.07C521.832 384.674 521.226 384.476 520.446 384.476C519.354 384.476 518.304 384.692 517.296 385.124V383.72C518.424 383.336 519.522 383.144 520.59 383.144C521.766 383.144 522.684 383.462 523.344 384.098C524.016 384.722 524.352 385.628 524.352 386.816V390.2ZM518.088 389.516C518.088 389.996 518.268 390.362 518.628 390.614C519 390.854 519.444 390.974 519.96 390.974C521.148 390.974 522.132 390.554 522.912 389.714V388.13C522.096 387.962 521.364 387.878 520.716 387.878C519.984 387.878 519.36 388.01 518.844 388.274C518.34 388.526 518.088 388.94 518.088 389.516ZM528.668 392H527.228V383.36H533.546V384.692H528.668V392ZM542.106 390.2C542.106 390.644 542.328 390.866 542.772 390.866C542.964 390.866 543.186 390.824 543.438 390.74V391.91C543.078 392.042 542.718 392.108 542.358 392.108C541.53 392.108 541.002 391.76 540.774 391.064C539.85 391.832 538.728 392.216 537.408 392.216C536.568 392.216 535.848 391.994 535.248 391.55C534.66 391.094 534.366 390.44 534.366 389.588C534.366 388.568 534.744 387.83 535.5 387.374C536.268 386.906 537.192 386.672 538.272 386.672C539.064 386.672 539.862 386.762 540.666 386.942V386.636C540.666 385.976 540.45 385.454 540.018 385.07C539.586 384.674 538.98 384.476 538.2 384.476C537.108 384.476 536.058 384.692 535.05 385.124V383.72C536.178 383.336 537.276 383.144 538.344 383.144C539.52 383.144 540.438 383.462 541.098 384.098C541.77 384.722 542.106 385.628 542.106 386.816V390.2ZM535.842 389.516C535.842 389.996 536.022 390.362 536.382 390.614C536.754 390.854 537.198 390.974 537.714 390.974C538.902 390.974 539.886 390.554 540.666 389.714V388.13C539.85 387.962 539.118 387.878 538.47 387.878C537.738 387.878 537.114 388.01 536.598 388.274C536.094 388.526 535.842 388.94 535.842 389.516ZM551.444 389.678C551.444 390.482 551.096 391.106 550.4 391.55C549.716 391.994 548.768 392.216 547.556 392.216C546.344 392.216 545.282 391.994 544.37 391.55V390.182C545.246 390.65 546.248 390.884 547.376 390.884C549.128 390.884 550.004 390.428 550.004 389.516C550.004 388.688 549.368 388.274 548.096 388.274H546.206V386.942H548.096C549.248 386.942 549.824 386.57 549.824 385.826C549.824 385.37 549.608 385.028 549.176 384.8C548.744 384.572 548.168 384.458 547.448 384.458C546.404 384.458 545.426 384.686 544.514 385.142V383.792C545.486 383.348 546.518 383.126 547.61 383.126C548.786 383.126 549.686 383.354 550.31 383.81C550.946 384.254 551.264 384.86 551.264 385.628C551.264 386.144 551.12 386.57 550.832 386.906C550.544 387.242 550.154 387.464 549.662 387.572C550.178 387.704 550.604 387.956 550.94 388.328C551.276 388.7 551.444 389.15 551.444 389.678ZM554.785 392H553.561V383.36H555.001V389.678L560.293 383.36H561.517V392H560.077V385.682L554.785 392ZM565.618 392H564.178V383.36H565.618V387.014H570.622V383.36H572.062V392H570.622V388.346H565.618V392Z" fill="#454545"/>
<rect x="287" y="379" width="14" height="14" rx="2" fill="#80DA39"/>
<path d="M313.168 392H311.656V379.4H313.168V384.854H316.03L319.828 379.4H321.556L317.272 385.538L321.934 392H320.206L316.084 386.294H313.168V392ZM323.479 391.01C322.567 390.194 322.111 389.084 322.111 387.68C322.111 386.276 322.567 385.172 323.479 384.368C324.391 383.552 325.471 383.144 326.719 383.144C327.979 383.144 329.059 383.552 329.959 384.368C330.871 385.172 331.327 386.276 331.327 387.68C331.327 389.084 330.871 390.194 329.959 391.01C329.059 391.814 327.979 392.216 326.719 392.216C325.471 392.216 324.391 391.814 323.479 391.01ZM328.987 390.002C329.587 389.426 329.887 388.652 329.887 387.68C329.887 386.708 329.587 385.94 328.987 385.376C328.387 384.8 327.631 384.512 326.719 384.512C325.807 384.512 325.051 384.8 324.451 385.376C323.851 385.94 323.551 386.708 323.551 387.68C323.551 388.652 323.851 389.426 324.451 390.002C325.051 390.566 325.807 390.848 326.719 390.848C327.631 390.848 328.387 390.566 328.987 390.002ZM334.833 392H333.393V383.36H334.833V387.014H339.837V383.36H341.277V392H339.837V388.346H334.833V392ZM345.379 392H343.939V383.36H345.379V386.96H347.125L349.861 383.36H351.535L348.259 387.662L351.931 392H350.239L347.071 388.292H345.379V392ZM356.997 390.362L359.913 383.36H361.443L357.195 393.296C356.367 395.216 355.281 396.176 353.937 396.176C353.613 396.176 353.301 396.134 353.001 396.05V394.808C353.253 394.88 353.505 394.916 353.757 394.916C354.681 394.916 355.425 394.214 355.989 392.81L356.313 392.018L352.209 383.36H353.739L356.997 390.362ZM364.343 384.8C365.315 383.696 366.479 383.144 367.835 383.144C369.071 383.144 370.097 383.576 370.913 384.44C371.741 385.304 372.155 386.384 372.155 387.68C372.155 388.976 371.741 390.056 370.913 390.92C370.097 391.784 369.071 392.216 367.835 392.216C366.467 392.216 365.351 391.712 364.487 390.704V395.96H363.047V383.36H364.343V384.8ZM369.833 390.002C370.421 389.414 370.715 388.64 370.715 387.68C370.715 386.72 370.421 385.946 369.833 385.358C369.257 384.77 368.537 384.476 367.673 384.476C366.941 384.476 366.293 384.68 365.729 385.088C365.165 385.496 364.751 386 364.487 386.6V388.76C364.751 389.36 365.165 389.864 365.729 390.272C366.293 390.68 366.941 390.884 367.673 390.884C368.537 390.884 369.257 390.59 369.833 390.002ZM373.633 387.68C373.633 386.264 374.065 385.154 374.929 384.35C375.805 383.546 376.807 383.144 377.935 383.144C378.991 383.144 379.861 383.408 380.545 383.936C381.241 384.464 381.697 385.118 381.913 385.898C382.129 386.666 382.141 387.47 381.949 388.31H375.073C375.157 389.162 375.535 389.804 376.207 390.236C376.879 390.668 377.689 390.884 378.637 390.884C379.693 390.884 380.641 390.65 381.481 390.182V391.586C380.677 392.006 379.657 392.216 378.421 392.216C377.053 392.216 375.913 391.826 375.001 391.046C374.089 390.266 373.633 389.144 373.633 387.68ZM380.671 387.05C380.707 386.798 380.689 386.534 380.617 386.258C380.545 385.982 380.413 385.706 380.221 385.43C380.041 385.154 379.759 384.926 379.375 384.746C378.991 384.566 378.541 384.476 378.025 384.476C377.245 384.476 376.567 384.704 375.991 385.16C375.427 385.616 375.121 386.246 375.073 387.05H380.671ZM385.493 392H384.053V383.36H385.493V387.014H390.497V383.36H391.937V392H390.497V388.346H385.493V392ZM398.2 392H396.76V384.692H393.574V383.36H401.368V384.692H398.2V392ZM407.376 380.732C408.516 379.94 409.824 379.544 411.3 379.544C412.572 379.544 413.586 379.832 414.342 380.408C415.098 380.984 415.476 381.788 415.476 382.82C415.476 383.312 415.38 383.774 415.188 384.206C415.008 384.638 414.732 385.034 414.36 385.394C414 385.754 413.646 386.06 413.298 386.312C412.962 386.552 412.536 386.822 412.02 387.122C411.96 387.158 411.774 387.266 411.462 387.446C411.162 387.626 410.97 387.74 410.886 387.788C410.814 387.836 410.646 387.944 410.382 388.112C410.13 388.268 409.962 388.382 409.878 388.454C409.806 388.526 409.674 388.64 409.482 388.796C409.302 388.952 409.176 389.084 409.104 389.192C409.044 389.3 408.96 389.438 408.852 389.606C408.756 389.762 408.69 389.918 408.654 390.074C408.618 390.23 408.6 390.398 408.6 390.578L415.566 390.56V392H406.944V391.28C406.944 390.608 407.052 390.002 407.268 389.462C407.484 388.91 407.79 388.442 408.186 388.058C408.594 387.662 408.996 387.332 409.392 387.068C409.788 386.792 410.25 386.498 410.778 386.186C410.898 386.126 410.988 386.078 411.048 386.042C412.14 385.406 412.854 384.92 413.19 384.584C413.706 384.056 413.964 383.462 413.964 382.802C413.964 382.202 413.718 381.746 413.226 381.434C412.746 381.11 412.062 380.948 411.174 380.948C409.878 380.948 408.612 381.38 407.376 382.244V380.732Z" fill="#454545"/>
<path d="M89.6597 168.712C89.6597 167.848 90.0377 167.104 90.7937 166.48C91.5497 165.856 92.6597 165.544 94.1237 165.544C95.4797 165.544 96.5717 165.874 97.3997 166.534C98.2277 167.194 98.6537 167.986 98.6777 168.91C98.7137 170.17 98.1557 171.202 97.0037 172.006C98.4077 172.702 99.1097 173.662 99.1097 174.886C99.1097 175.822 98.6957 176.614 97.8677 177.262C97.0517 177.898 95.8397 178.216 94.2317 178.216C92.6357 178.216 91.3997 177.868 90.5237 177.172C89.6597 176.476 89.2277 175.63 89.2277 174.634C89.2277 174.034 89.4017 173.44 89.7497 172.852C90.1097 172.252 90.6317 171.748 91.3157 171.34C90.2117 170.668 89.6597 169.792 89.6597 168.712ZM94.3037 172.492C93.6797 172.324 93.1097 172.144 92.5937 171.952C91.9937 172.24 91.5317 172.612 91.2077 173.068C90.8957 173.524 90.7397 173.992 90.7397 174.472C90.7397 175.204 91.0397 175.78 91.6397 176.2C92.2517 176.608 93.1277 176.812 94.2677 176.812C95.2277 176.812 96.0197 176.644 96.6437 176.308C97.2797 175.96 97.5977 175.51 97.5977 174.958C97.5977 174.49 97.4297 174.094 97.0937 173.77C96.7697 173.434 96.4517 173.206 96.1397 173.086C95.8277 172.966 95.3117 172.798 94.5917 172.582C94.4597 172.546 94.3637 172.516 94.3037 172.492ZM97.1657 169.18C97.1657 168.544 96.8957 168.016 96.3557 167.596C95.8157 167.164 95.0597 166.948 94.0877 166.948C93.1997 166.948 92.4917 167.116 91.9637 167.452C91.4357 167.776 91.1717 168.19 91.1717 168.694C91.1717 169.042 91.2437 169.348 91.3877 169.612C91.5437 169.864 91.7717 170.08 92.0717 170.26C92.3837 170.428 92.6657 170.566 92.9177 170.674C93.1697 170.77 93.5057 170.878 93.9257 170.998C93.9737 171.01 94.0097 171.022 94.0337 171.034C94.0577 171.034 94.0877 171.04 94.1237 171.052C94.1597 171.064 94.1957 171.076 94.2317 171.088C94.2677 171.1 94.4717 171.16 94.8437 171.268C95.2277 171.364 95.5217 171.442 95.7257 171.502C96.6857 170.878 97.1657 170.104 97.1657 169.18Z" fill="#454545"/>
<path d="M89.5219 109.558C89.5219 108.298 89.9359 107.314 90.7639 106.606C91.6039 105.898 92.6539 105.544 93.9139 105.544C95.6419 105.544 96.9319 106.084 97.7839 107.164C98.6479 108.232 99.0799 109.738 99.0799 111.682C99.0799 113.842 98.5639 115.474 97.5319 116.578C96.5119 117.67 95.1739 118.216 93.5179 118.216C92.4499 118.216 91.4599 117.982 90.5479 117.514V116.074C91.4359 116.542 92.4139 116.776 93.4819 116.776C94.6099 116.776 95.5459 116.416 96.2899 115.696C97.0459 114.964 97.4659 113.806 97.5499 112.222C96.3739 113.002 95.0959 113.392 93.7159 113.392C92.5999 113.392 91.6219 113.056 90.7819 112.384C89.9419 111.7 89.5219 110.758 89.5219 109.558ZM94.0219 106.948C93.1339 106.948 92.4139 107.152 91.8619 107.56C91.3219 107.968 91.0519 108.61 91.0519 109.486C91.0519 110.374 91.3339 111.016 91.8979 111.412C92.4619 111.796 93.1939 111.988 94.0939 111.988C95.4259 111.988 96.5719 111.562 97.5319 110.71C97.3039 108.202 96.1339 106.948 94.0219 106.948Z" fill="#454545"/>
<path d="M90.8005 223.76H99.6205V225.128L94.5085 236H92.8885L97.9645 225.2H90.8005V223.76Z" fill="#454545"/>
<path d="M91.2863 289.538C92.4503 288.758 93.7283 288.368 95.1203 288.368C96.2363 288.368 97.2143 288.71 98.0543 289.394C98.8943 290.066 99.3143 291.002 99.3143 292.202C99.3143 293.462 98.8943 294.446 98.0543 295.154C97.2263 295.862 96.1823 296.216 94.9223 296.216C93.1943 296.216 91.8983 295.682 91.0343 294.614C90.1823 293.534 89.7563 292.022 89.7563 290.078C89.7563 287.918 90.2663 286.292 91.2863 285.2C92.3183 284.096 93.6623 283.544 95.3183 283.544C96.3863 283.544 97.3763 283.778 98.2883 284.246V285.686C97.4003 285.218 96.4223 284.984 95.3543 284.984C94.2263 284.984 93.2843 285.35 92.5283 286.082C91.7843 286.802 91.3703 287.954 91.2863 289.538ZM91.3043 291.05C91.5323 293.558 92.7023 294.812 94.8143 294.812C95.7023 294.812 96.4163 294.608 96.9563 294.2C97.5083 293.792 97.7843 293.15 97.7843 292.274C97.7843 291.386 97.5023 290.75 96.9383 290.366C96.3743 289.97 95.6423 289.772 94.7423 289.772C93.4103 289.772 92.2643 290.198 91.3043 291.05Z" fill="#454545"/>
<path d="M116.5 291.5H161.5L189.5 263.5H211.5L260.5 214.5H286.5L330 171H368.5L398 141.5H464.5L482 124H551H619" stroke="#F28100" stroke-width="2"/>
<path d="M116.5 277.5H141.5L156 263L169 250H261L272.5 238.5H294L311.5 221H343L377 187H431L444 200H472.5L485.5 187H519.5L539 206.5L579 166.5H619.5" stroke="#80DA39" stroke-width="2"/>
<path d="M116.5 243H142L149 236H258.5L273 221.5H313.5L324.5 232.5H388L399 221.5H450L459.5 212H481H510L522.5 224.5H551.5L564 212H618" stroke="#0FA7F0" stroke-width="2"/>
<defs>
<filter id="filter0_d_906_48" x="0" y="0" width="719" height="502" filterUnits="userSpaceOnUse" color-interpolation-filters="sRGB">
<feFlood flood-opacity="0" result="BackgroundImageFix"/>
<feColorMatrix in="SourceAlpha" type="matrix" values="0 0 0 0 0 0 0 0 0 0 0 0 0 0 0 0 0 0 127 0" result="hardAlpha"/>
<feOffset dy="4"/>
<feGaussianBlur stdDeviation="25"/>
<feComposite in2="hardAlpha" operator="out"/>
<feColorMatrix type="matrix" values="0 0 0 0 0 0 0 0 0 0 0 0 0 0 0 0 0 0 0.1 0"/>
<feBlend mode="normal" in2="BackgroundImageFix" result="effect1_dropShadow_906_48"/>
<feBlend mode="normal" in="SourceGraphic" in2="effect1_dropShadow_906_48" result="shape"/>
</filter>
</defs>
</svg>
