<svg width="80" height="80" viewBox="0 0 80 80" fill="none" xmlns="http://www.w3.org/2000/svg">
<path d="M75.2686 3.92188H55.0233C52.4144 3.92188 50.2917 6.04437 50.2917 8.65328V21.7047C50.2917 21.9666 50.2752 22.2258 50.2458 22.4822C44.9192 17.9216 38.0066 15.1625 30.4609 15.1625C17.7234 15.1625 6.01531 23.3905 1.74891 35.4027C0.585781 38.6775 0 42.1491 0 45.6234C0 59.4766 9.72969 71.9147 23.2009 75.2097C24.0395 75.4144 24.8848 74.9014 25.09 74.0631C25.295 73.2248 24.7817 72.3792 23.9434 72.1741C11.8542 69.2173 3.125 58.053 3.125 45.6234C3.125 38.845 5.57687 32.4442 10.0586 27.4308L18.4858 35.8567C16.2339 38.6077 15.0094 42.0216 15.0094 45.6236C15.0094 54.1427 21.9409 61.0736 30.4609 61.0736C38.4534 61.0736 45.048 54.9742 45.8339 47.1861H57.7525C57.4378 52.8694 55.4067 58.1953 51.828 62.6727C48.0366 67.4161 42.7159 70.802 36.8461 72.2066C36.0069 72.4073 35.4892 73.2506 35.6902 74.0898C35.8617 74.8069 36.5022 75.2891 37.2084 75.2891C37.3288 75.2891 37.4511 75.275 37.5733 75.2458C44.1162 73.6802 50.0456 69.908 54.2691 64.6237C58.6213 59.1784 60.9219 52.6083 60.9219 45.6236C60.9219 37.6742 57.8597 30.4275 52.8547 24.9978C53.2237 23.9544 53.4167 22.8445 53.4167 21.705V20.1838C53.9186 20.3655 54.4595 20.465 55.0233 20.465H75.2686C77.8775 20.465 80 18.3425 80 15.7334V8.65328C80 6.04437 77.8775 3.92188 75.2686 3.92188ZM51.4891 28.1769C55.203 32.6461 57.4223 38.258 57.7511 44.0609H45.8339C45.105 36.8638 39.2205 30.9791 32.0233 30.2503V18.3331C38.3408 18.6911 44.4148 21.2931 49.0486 25.5995C48.8322 25.9027 48.5908 26.1911 48.322 26.4598L45.995 28.7867C45.3848 29.3969 45.3847 30.3863 45.995 30.9964C46.5972 31.5986 47.6025 31.5988 48.2047 30.9964L50.5317 28.6695C50.7833 28.418 51.0183 28.1542 51.2388 27.8812C51.3228 27.9795 51.4062 28.078 51.4891 28.1769ZM21.6159 32.9492C21.3008 33.1695 20.993 33.4031 20.6953 33.6467L12.2684 25.2209C16.8539 21.1211 22.7586 18.6773 28.8984 18.3328V30.2494C26.2902 30.5086 23.7625 31.4444 21.6159 32.9492ZM30.4609 57.9484C23.6641 57.9484 18.1344 52.4195 18.1344 45.6234C18.1344 38.9022 23.7377 33.2969 30.4609 33.2969C37.2578 33.2969 42.7875 38.8266 42.7875 45.6234C42.7875 52.4194 37.2578 57.9484 30.4609 57.9484ZM76.875 15.7333C76.875 16.6191 76.1544 17.3398 75.2686 17.3398H55.0233C54.1375 17.3398 53.4167 16.6192 53.4167 15.7333V8.65328C53.4167 7.7675 54.1373 7.04687 55.0233 7.04687H75.2686C76.1544 7.04687 76.875 7.7675 76.875 8.65328V15.7333Z" fill="#0FA7F0"/>
<path d="M71.7916 10.5996H59.1367C58.2738 10.5996 57.5742 11.2991 57.5742 12.1621C57.5742 13.0251 58.2738 13.7246 59.1367 13.7246H71.7916C72.6545 13.7246 73.3541 13.0251 73.3541 12.1621C73.3541 11.2991 72.6545 10.5996 71.7916 10.5996Z" fill="#0FA7F0"/>
<path d="M31.9025 73.9227C31.3649 72.6322 29.4668 72.6769 28.9903 73.9938C28.7646 74.6177 28.9746 75.3453 29.4994 75.7521C30.0077 76.1458 30.7194 76.1872 31.2699 75.8556C31.9219 75.463 32.1949 74.6244 31.9025 73.9227Z" fill="#0FA7F0"/>
</svg>
