<svg width="80" height="80" viewBox="0 0 80 80" fill="none" xmlns="http://www.w3.org/2000/svg">
<path d="M74.9672 2.50928H45.9781C45.1153 2.50928 44.4156 3.20896 44.4156 4.07178C44.4156 4.93459 45.1153 5.63428 45.9781 5.63428H74.9672C76.0191 5.63428 76.875 6.48943 76.875 7.54053V48.9515H3.125V7.54053C3.125 6.48928 3.98094 5.63428 5.03281 5.63428H32.2406C33.1034 5.63428 33.8031 4.93459 33.8031 4.07178C33.8031 3.20896 33.1034 2.50928 32.2406 2.50928H5.03281C2.25766 2.50928 0 4.76631 0 7.54053V57.6265C0 60.4016 2.25766 62.6593 5.03281 62.6593H30.5973L29.6339 70.9269C29.4106 72.8852 27.7569 74.3608 25.7862 74.3608C25.7847 74.3608 25.7833 74.3608 25.7819 74.3608C25.7686 74.3635 25.7395 74.3613 25.7183 74.3621C25.7017 74.3627 25.6853 74.3652 25.6688 74.3663H23.5445C22.6817 74.3663 21.982 75.066 21.982 75.9288C21.982 76.7916 22.6817 77.4913 23.5445 77.4913H56.4556C57.3184 77.4913 58.0181 76.7916 58.0181 75.9288C58.0181 75.066 57.3184 74.3663 56.4556 74.3663H54.3314C54.3148 74.3651 54.2983 74.3627 54.2819 74.3621C54.2612 74.3613 54.2405 74.3608 54.22 74.3608C54.2172 74.3608 54.2159 74.3608 54.2139 74.3608C52.2434 74.3607 50.5895 72.8854 50.3662 70.9269C50.3661 70.9257 50.3659 70.9243 50.3658 70.9232L49.4028 62.6593H74.9672C77.7423 62.6593 80 60.4016 80 57.6265V7.54053C80 4.76631 77.7423 2.50928 74.9672 2.50928ZM47.2616 71.2833C47.3916 72.421 47.7891 73.4687 48.3866 74.3661H31.6141C32.2116 73.4688 32.6087 72.4216 32.7383 71.2846L33.7434 62.6591H46.2566L47.2616 71.2833ZM76.875 57.6265C76.875 58.6783 76.0191 59.5343 74.9672 59.5343H5.03281C3.98094 59.5343 3.125 58.6783 3.125 57.6265V52.0765H76.875V57.6265Z" fill="#0FA7F0"/>
<path d="M67.9146 38.6587C70.7382 35.8351 72.2932 32.0816 72.2932 28.0899C72.2932 19.8479 65.5879 13.1426 57.3459 13.1426C49.1049 13.1426 42.4004 19.8479 42.4004 28.0899C42.4004 36.3309 49.1049 43.0354 57.3459 43.0354C61.3387 43.0355 65.0921 41.4812 67.9146 38.6587ZM69.1551 28.6362C69.0476 31.036 68.1971 33.3646 66.7357 35.2701L58.9085 27.4427V16.3741C64.6995 17.1443 69.1684 22.2471 69.1684 28.0901C69.1684 28.2727 69.1632 28.4548 69.1551 28.6362ZM45.5254 28.0899C45.5254 22.1012 50.002 17.1415 55.7834 16.374V28.0899C55.7834 28.5043 55.948 28.9016 56.241 29.1948L64.5257 37.4795C62.4741 39.0546 59.9765 39.9104 57.3459 39.9104C50.8282 39.9105 45.5254 34.6077 45.5254 28.0899Z" fill="#0FA7F0"/>
<path d="M25.4291 28.0894V39.8379H21.0433V16.3018C21.0433 15.4389 20.3436 14.7393 19.4808 14.7393H11.7589C10.8961 14.7393 10.1964 15.4389 10.1964 16.3018V39.8379H9.04688C8.18406 39.8379 7.48438 40.5375 7.48438 41.4003C7.48438 42.2632 8.18406 42.9628 9.04688 42.9628H37.3167C38.1795 42.9628 38.8792 42.2632 38.8792 41.4003C38.8792 40.5375 38.1795 39.8379 37.3167 39.8379H36.2761V28.0894C36.2761 27.2266 35.5764 26.5269 34.7136 26.5269H26.9917C26.1287 26.5269 25.4291 27.2264 25.4291 28.0894ZM13.3214 39.8379V17.8643H17.9183V39.8379H13.3214ZM28.5541 29.6519H33.1509V39.8379H28.5541V29.6519Z" fill="#0FA7F0"/>
<path d="M37.7495 4.66873C38.077 5.45435 39.0023 5.84107 39.7903 5.51404C40.5759 5.18794 40.9617 4.25982 40.6355 3.47326C40.3095 2.68763 39.3809 2.30154 38.5948 2.62794C37.81 2.95388 37.4217 3.88279 37.7495 4.66873Z" fill="#0FA7F0"/>
</svg>
