<svg width="80" height="80" viewBox="0 0 80 80" fill="none" xmlns="http://www.w3.org/2000/svg">
<path d="M79.6805 70.8681C80.1227 70.2926 80.1041 69.4647 79.6359 68.9092L76.2012 64.843C75.6443 64.1836 74.6583 64.1008 73.9992 64.6577C73.3401 65.2146 73.2569 66.2004 73.8139 66.8597L75.0769 68.3549H68.0274V55.1691C68.0274 54.3061 67.3278 53.6065 66.4648 53.6065C65.6018 53.6065 64.9022 54.3061 64.9022 55.1691V68.3551H58.0781V30.3411H64.9022V41.1759C64.9022 42.039 65.6018 42.7385 66.4648 42.7385C67.3278 42.7385 68.0274 42.039 68.0274 41.1759V28.7785C68.0274 27.9155 67.3278 27.2159 66.4648 27.2159H56.5155C55.6524 27.2159 54.9529 27.9155 54.9529 28.7785V68.3549H48.3521V35.8347C48.3521 34.9717 47.6526 34.2721 46.7896 34.2721H36.6225C35.7595 34.2721 35.0599 34.9717 35.0599 35.8347V68.3551H29.0275V35.8347C29.0275 34.9717 28.328 34.2721 27.4649 34.2721H17.0695C16.2065 34.2721 15.5069 34.9717 15.5069 35.8347V68.3551H9.37682V6.30852L10.8721 7.57157C11.5313 8.12847 12.5172 8.0455 13.0741 7.38624C13.631 6.72698 13.548 5.74114 12.8888 5.18423L8.82257 1.74934C8.24909 1.2665 7.3792 1.2665 6.80588 1.74934L2.73954 5.18423C2.08028 5.74114 1.99731 6.72698 2.55422 7.38624C3.10269 8.03566 4.10587 8.12097 4.75623 7.57157L6.25147 6.30852V68.3549H1.56259C0.699574 68.3549 0 69.0545 0 69.9175C0 70.7805 0.699574 71.4801 1.56259 71.4801H6.25163V77.0505C6.25163 77.9135 6.9512 78.6131 7.81422 78.6131C8.67725 78.6131 9.37682 77.9135 9.37682 77.0505V71.4801H75.0769L73.8139 72.9754C73.2569 73.6346 73.3399 74.6205 73.9992 75.1774C74.6498 75.7269 75.6521 75.6421 76.2012 74.9921L79.6359 70.9259C79.6508 70.9067 79.6656 70.8874 79.6805 70.8681ZM18.6321 68.3549V37.3973H25.9024V68.3551H18.6321V68.3549ZM38.1851 68.3549V37.3973H45.2268V68.3551H38.1851V68.3549Z" fill="#0FA7F0"/>
<path d="M16.2875 27.5783H35.2105C35.7914 27.5783 36.3789 27.565 36.9544 27.5391C46.3445 27.1276 55.2136 23.4284 62.0987 17.0841L65.306 20.2925C66.2677 21.2543 67.9736 20.5494 67.9736 19.1878V5.07897C67.9736 4.21735 67.2762 3.51841 66.4146 3.51637L52.2742 3.4834C50.9123 3.47997 50.2013 5.18648 51.1656 6.15091L54.334 9.31923C49.418 13.9697 43.7568 17.6386 37.4841 20.2368C30.7296 23.0344 23.598 24.4531 16.2872 24.4531C15.4242 24.4531 14.7246 25.1527 14.7246 26.0157C14.7246 26.8787 15.4245 27.5783 16.2875 27.5783ZM38.6804 23.1241C45.816 20.1685 52.2031 15.9007 57.6644 10.4396C58.2662 9.83769 58.2662 8.8317 57.6644 8.22963L56.0521 6.61734L64.8486 6.63781V15.4144L63.2275 13.7929C62.6181 13.1832 61.6301 13.1823 61.0196 13.7906C54.5431 20.243 45.9481 24.0168 36.8155 24.417C36.2847 24.4411 35.7446 24.4531 35.2105 24.4531H35.1601C36.3436 24.0489 37.5172 23.6059 38.6804 23.1241Z" fill="#0FA7F0"/>
<path d="M67.9081 47.4628C67.652 46.8479 67.0157 46.4529 66.3505 46.5028C65.6726 46.5535 65.0912 47.0545 64.9413 47.7178C64.633 49.0829 66.2194 50.1382 67.3646 49.3379C67.9586 48.9229 68.1818 48.1307 67.9081 47.4628Z" fill="#0FA7F0"/>
</svg>
