<svg width="632" height="361" viewBox="0 0 632 361" fill="none" xmlns="http://www.w3.org/2000/svg">
<g filter="url(#filter0_d_803_858)">
<path d="M50 66C50 54.9543 58.9543 46 70 46H562C573.046 46 582 54.9543 582 66V287C582 298.046 573.046 307 562 307H70C58.9543 307 50 298.046 50 287V66Z" fill="white"/>
</g>
<path d="M80.5 81C80.5 78.5147 82.5147 76.5 85 76.5H248.5V115.5H80.5V81Z" fill="#F9F9FB" stroke="#DDDDE6"/>
<rect x="248.5" y="76.5" width="94" height="39" fill="#F9F9FB" stroke="#DDDDE6"/>
<path d="M342.5 76.5H456.5V115.5H342.5V76.5Z" fill="#F9F9FB" stroke="#DDDDE6"/>
<path d="M456.5 76.5H546C548.485 76.5 550.5 78.5147 550.5 81V115.5H456.5V76.5Z" fill="#F9F9FB" stroke="#DDDDE6"/>
<path d="M80.5 115.5H248.5V154.5H80.5V115.5Z" fill="white" stroke="#DDDDE6"/>
<path d="M80.5 154.5H248.5V193.5H80.5V154.5Z" fill="white" stroke="#DDDDE6"/>
<path d="M80.5 193.5H248.5V232.5H80.5V193.5Z" fill="white" stroke="#DDDDE6"/>
<path d="M80.5 232.5H248.5V271.5H80.5V232.5Z" fill="white" stroke="#DDDDE6"/>
<rect x="248.5" y="115.5" width="94" height="39" fill="white" stroke="#DDDDE6"/>
<rect x="248.5" y="154.5" width="94" height="39" fill="white" stroke="#DDDDE6"/>
<rect x="248.5" y="193.5" width="94" height="39" fill="white" stroke="#DDDDE6"/>
<rect x="248.5" y="232.5" width="94" height="39" fill="white" stroke="#DDDDE6"/>
<path d="M342.5 115.5H456.5V154.5H342.5V115.5Z" fill="white" stroke="#DDDDE6"/>
<rect x="456.5" y="115.5" width="94" height="39" fill="white" stroke="#DDDDE6"/>
<path d="M342.5 154.5H456.5V193.5H342.5V154.5Z" fill="white" stroke="#DDDDE6"/>
<rect x="456.5" y="154.5" width="94" height="39" fill="white" stroke="#DDDDE6"/>
<path d="M342.5 193.5H456.5V232.5H342.5V193.5Z" fill="white" stroke="#DDDDE6"/>
<rect x="456.5" y="193.5" width="94" height="39" fill="white" stroke="#DDDDE6"/>
<path d="M342.5 232.5H456.5V271.5H342.5V232.5Z" fill="white" stroke="#DDDDE6"/>
<rect x="456.5" y="232.5" width="94" height="39" fill="white" stroke="#DDDDE6"/>
<path d="M94.252 89.4H104.638V91.29H100.48V102H98.428V91.29H94.252V89.4ZM104.911 101.028C103.999 100.224 103.543 99.108 103.543 97.68C103.543 96.252 103.999 95.136 104.911 94.332C105.835 93.528 106.939 93.126 108.223 93.126C109.519 93.126 110.623 93.528 111.535 94.332C112.447 95.136 112.903 96.252 112.903 97.68C112.903 99.108 112.447 100.224 111.535 101.028C110.623 101.832 109.519 102.234 108.223 102.234C106.939 102.234 105.835 101.832 104.911 101.028ZM110.185 99.714C110.689 99.198 110.941 98.52 110.941 97.68C110.941 96.84 110.689 96.168 110.185 95.664C109.681 95.148 109.027 94.89 108.223 94.89C107.407 94.89 106.747 95.148 106.243 95.664C105.739 96.168 105.487 96.84 105.487 97.68C105.487 98.52 105.739 99.198 106.243 99.714C106.747 100.218 107.407 100.47 108.223 100.47C109.027 100.47 109.681 100.218 110.185 99.714ZM119.846 102H114.77V93.36H119.702C120.554 93.36 121.22 93.576 121.7 94.008C122.192 94.428 122.438 94.98 122.438 95.664C122.438 96.612 122.03 97.266 121.214 97.626C121.646 97.758 122 97.998 122.276 98.346C122.552 98.694 122.69 99.12 122.69 99.624C122.69 100.332 122.45 100.908 121.97 101.352C121.502 101.784 120.794 102 119.846 102ZM116.696 98.328V100.542H119.378C120.29 100.542 120.746 100.176 120.746 99.444C120.746 98.7 120.302 98.328 119.414 98.328H116.696ZM116.696 94.818V96.96H119.27C120.086 96.96 120.494 96.612 120.494 95.916C120.494 95.532 120.374 95.256 120.134 95.088C119.906 94.908 119.618 94.818 119.27 94.818H116.696ZM131.994 100.002C131.994 100.422 132.204 100.632 132.624 100.632C132.768 100.632 132.96 100.596 133.2 100.524V101.91C132.84 102.054 132.432 102.126 131.976 102.126C131.112 102.126 130.536 101.79 130.248 101.118C129.324 101.862 128.238 102.234 126.99 102.234C126.15 102.234 125.436 102.006 124.848 101.55C124.26 101.082 123.966 100.428 123.966 99.588C123.966 98.58 124.344 97.848 125.1 97.392C125.856 96.924 126.762 96.69 127.818 96.69C128.514 96.69 129.264 96.774 130.068 96.942V96.636C130.068 96.084 129.87 95.64 129.474 95.304C129.078 94.968 128.52 94.8 127.8 94.8C126.732 94.8 125.694 95.022 124.686 95.466V93.702C125.814 93.318 126.918 93.126 127.998 93.126C129.258 93.126 130.236 93.438 130.932 94.062C131.64 94.686 131.994 95.634 131.994 96.906V100.002ZM128.196 98.04C127.56 98.04 127.026 98.154 126.594 98.382C126.162 98.61 125.946 98.97 125.946 99.462C125.946 99.87 126.102 100.188 126.414 100.416C126.726 100.632 127.11 100.74 127.566 100.74C128.55 100.74 129.384 100.398 130.068 99.714V98.256C129.372 98.112 128.748 98.04 128.196 98.04ZM136.361 94.71C137.237 93.654 138.347 93.126 139.691 93.126C140.963 93.126 141.995 93.57 142.787 94.458C143.579 95.334 143.975 96.408 143.975 97.68C143.975 98.952 143.579 100.032 142.787 100.92C141.995 101.796 140.963 102.234 139.691 102.234C138.395 102.234 137.357 101.784 136.577 100.884V105.96H134.651V93.36H136.361V94.71ZM141.257 99.75C141.761 99.21 142.013 98.52 142.013 97.68C142.013 96.84 141.761 96.156 141.257 95.628C140.753 95.088 140.111 94.818 139.331 94.818C138.695 94.818 138.131 94.992 137.639 95.34C137.159 95.688 136.805 96.114 136.577 96.618V98.724C136.805 99.24 137.159 99.672 137.639 100.02C138.131 100.368 138.695 100.542 139.331 100.542C140.111 100.542 140.753 100.278 141.257 99.75ZM150.133 102H145.849V93.36H147.775V96.24H150.133C151.189 96.24 152.023 96.51 152.635 97.05C153.247 97.59 153.553 98.28 153.553 99.12C153.553 99.96 153.247 100.65 152.635 101.19C152.023 101.73 151.189 102 150.133 102ZM147.775 97.752V100.47H149.755C150.331 100.47 150.781 100.356 151.105 100.128C151.429 99.888 151.591 99.552 151.591 99.12C151.591 98.676 151.429 98.34 151.105 98.112C150.781 97.872 150.331 97.752 149.755 97.752H147.775ZM157.027 102H155.101V93.36H157.027V102Z" fill="#454545"/>
<path d="M107.837 127.4H109.133V140H107.621V130.262L103.103 137.03H102.167L97.6494 130.262V140H96.1374V127.4H97.4334L102.635 135.176L107.837 127.4ZM112.707 139.01C111.795 138.194 111.339 137.084 111.339 135.68C111.339 134.276 111.795 133.172 112.707 132.368C113.619 131.552 114.699 131.144 115.947 131.144C117.207 131.144 118.287 131.552 119.187 132.368C120.099 133.172 120.555 134.276 120.555 135.68C120.555 137.084 120.099 138.194 119.187 139.01C118.287 139.814 117.207 140.216 115.947 140.216C114.699 140.216 113.619 139.814 112.707 139.01ZM118.215 138.002C118.815 137.426 119.115 136.652 119.115 135.68C119.115 134.708 118.815 133.94 118.215 133.376C117.615 132.8 116.859 132.512 115.947 132.512C115.035 132.512 114.279 132.8 113.679 133.376C113.079 133.94 112.779 134.708 112.779 135.68C112.779 136.652 113.079 137.426 113.679 138.002C114.279 138.566 115.035 138.848 115.947 138.848C116.859 138.848 117.615 138.566 118.215 138.002ZM129.118 129.272C128.41 129.776 127.57 130.028 126.598 130.028C125.626 130.028 124.786 129.776 124.078 129.272V127.976C124.882 128.504 125.722 128.768 126.598 128.768C127.474 128.768 128.314 128.504 129.118 127.976V129.272ZM123.844 140H122.62V131.36H124.06V137.678L129.352 131.36H130.576V140H129.136V133.682L123.844 140ZM141.32 140H139.88V132.692H136.694V131.36H144.488V132.692H141.32V140ZM146.615 139.01C145.703 138.194 145.247 137.084 145.247 135.68C145.247 134.276 145.703 133.172 146.615 132.368C147.527 131.552 148.607 131.144 149.855 131.144C151.115 131.144 152.195 131.552 153.095 132.368C154.007 133.172 154.463 134.276 154.463 135.68C154.463 137.084 154.007 138.194 153.095 139.01C152.195 139.814 151.115 140.216 149.855 140.216C148.607 140.216 147.527 139.814 146.615 139.01ZM152.123 138.002C152.723 137.426 153.023 136.652 153.023 135.68C153.023 134.708 152.723 133.94 152.123 133.376C151.523 132.8 150.767 132.512 149.855 132.512C148.943 132.512 148.187 132.8 147.587 133.376C146.987 133.94 146.687 134.708 146.687 135.68C146.687 136.652 146.987 137.426 147.587 138.002C148.187 138.566 148.943 138.848 149.855 138.848C150.767 138.848 151.523 138.566 152.123 138.002ZM161.406 140H156.528V131.36H161.262C162.042 131.36 162.678 131.564 163.17 131.972C163.674 132.38 163.926 132.956 163.926 133.7C163.926 134.132 163.818 134.522 163.602 134.87C163.386 135.218 163.11 135.464 162.774 135.608C163.17 135.74 163.506 135.98 163.782 136.328C164.058 136.676 164.196 137.102 164.196 137.606C164.196 138.338 163.956 138.92 163.476 139.352C163.008 139.784 162.318 140 161.406 140ZM157.968 136.256V138.74H161.208C162.24 138.74 162.756 138.332 162.756 137.516C162.756 136.676 162.258 136.256 161.262 136.256H157.968ZM157.968 132.62V135.014H161.118C162.018 135.014 162.468 134.624 162.468 133.844C162.468 133.4 162.336 133.088 162.072 132.908C161.808 132.716 161.49 132.62 161.118 132.62H157.968ZM173.41 138.2C173.41 138.644 173.632 138.866 174.076 138.866C174.268 138.866 174.49 138.824 174.742 138.74V139.91C174.382 140.042 174.022 140.108 173.662 140.108C172.834 140.108 172.306 139.76 172.078 139.064C171.154 139.832 170.032 140.216 168.712 140.216C167.872 140.216 167.152 139.994 166.552 139.55C165.964 139.094 165.67 138.44 165.67 137.588C165.67 136.568 166.048 135.83 166.804 135.374C167.572 134.906 168.496 134.672 169.576 134.672C170.368 134.672 171.166 134.762 171.97 134.942V134.636C171.97 133.976 171.754 133.454 171.322 133.07C170.89 132.674 170.284 132.476 169.504 132.476C168.412 132.476 167.362 132.692 166.354 133.124V131.72C167.482 131.336 168.58 131.144 169.648 131.144C170.824 131.144 171.742 131.462 172.402 132.098C173.074 132.722 173.41 133.628 173.41 134.816V138.2ZM167.146 137.516C167.146 137.996 167.326 138.362 167.686 138.614C168.058 138.854 168.502 138.974 169.018 138.974C170.206 138.974 171.19 138.554 171.97 137.714V136.13C171.154 135.962 170.422 135.878 169.774 135.878C169.042 135.878 168.418 136.01 167.902 136.274C167.398 136.526 167.146 136.94 167.146 137.516ZM177.582 132.8C178.554 131.696 179.718 131.144 181.074 131.144C182.31 131.144 183.336 131.576 184.152 132.44C184.98 133.304 185.394 134.384 185.394 135.68C185.394 136.976 184.98 138.056 184.152 138.92C183.336 139.784 182.31 140.216 181.074 140.216C179.706 140.216 178.59 139.712 177.726 138.704V143.96H176.286V131.36H177.582V132.8ZM183.072 138.002C183.66 137.414 183.954 136.64 183.954 135.68C183.954 134.72 183.66 133.946 183.072 133.358C182.496 132.77 181.776 132.476 180.912 132.476C180.18 132.476 179.532 132.68 178.968 133.088C178.404 133.496 177.99 134 177.726 134.6V136.76C177.99 137.36 178.404 137.864 178.968 138.272C179.532 138.68 180.18 138.884 180.912 138.884C181.776 138.884 182.496 138.59 183.072 138.002ZM192.38 140H190.742L196.232 127.4H197.906L203.378 140H201.758L200.462 136.958H193.676L192.38 140ZM196.862 129.434L194.27 135.554H199.868L197.258 129.434C197.234 129.374 197.168 129.212 197.06 128.948C196.952 129.224 196.886 129.386 196.862 129.434Z" fill="#454545"/>
<path d="M109.566 166.4H110.862V179H109.35V169.262L104.832 176.03H103.896L99.378 169.262V179H97.866V166.4H99.162L104.364 174.176L109.566 166.4ZM114.435 178.01C113.523 177.194 113.067 176.084 113.067 174.68C113.067 173.276 113.523 172.172 114.435 171.368C115.347 170.552 116.427 170.144 117.675 170.144C118.935 170.144 120.015 170.552 120.915 171.368C121.827 172.172 122.283 173.276 122.283 174.68C122.283 176.084 121.827 177.194 120.915 178.01C120.015 178.814 118.935 179.216 117.675 179.216C116.427 179.216 115.347 178.814 114.435 178.01ZM119.943 177.002C120.543 176.426 120.843 175.652 120.843 174.68C120.843 173.708 120.543 172.94 119.943 172.376C119.343 171.8 118.587 171.512 117.675 171.512C116.763 171.512 116.007 171.8 115.407 172.376C114.807 172.94 114.507 173.708 114.507 174.68C114.507 175.652 114.807 176.426 115.407 177.002C116.007 177.566 116.763 177.848 117.675 177.848C118.587 177.848 119.343 177.566 119.943 177.002ZM130.847 168.272C130.139 168.776 129.299 169.028 128.327 169.028C127.355 169.028 126.515 168.776 125.807 168.272V166.976C126.611 167.504 127.451 167.768 128.327 167.768C129.203 167.768 130.043 167.504 130.847 166.976V168.272ZM125.573 179H124.349V170.36H125.789V176.678L131.081 170.36H132.305V179H130.865V172.682L125.573 179ZM143.048 179H141.608V171.692H138.422V170.36H146.216V171.692H143.048V179ZM148.343 178.01C147.431 177.194 146.975 176.084 146.975 174.68C146.975 173.276 147.431 172.172 148.343 171.368C149.255 170.552 150.335 170.144 151.583 170.144C152.843 170.144 153.923 170.552 154.823 171.368C155.735 172.172 156.191 173.276 156.191 174.68C156.191 176.084 155.735 177.194 154.823 178.01C153.923 178.814 152.843 179.216 151.583 179.216C150.335 179.216 149.255 178.814 148.343 178.01ZM153.851 177.002C154.451 176.426 154.751 175.652 154.751 174.68C154.751 173.708 154.451 172.94 153.851 172.376C153.251 171.8 152.495 171.512 151.583 171.512C150.671 171.512 149.915 171.8 149.315 172.376C148.715 172.94 148.415 173.708 148.415 174.68C148.415 175.652 148.715 176.426 149.315 177.002C149.915 177.566 150.671 177.848 151.583 177.848C152.495 177.848 153.251 177.566 153.851 177.002ZM163.135 179H158.257V170.36H162.991C163.771 170.36 164.407 170.564 164.899 170.972C165.403 171.38 165.655 171.956 165.655 172.7C165.655 173.132 165.547 173.522 165.331 173.87C165.115 174.218 164.839 174.464 164.503 174.608C164.899 174.74 165.235 174.98 165.511 175.328C165.787 175.676 165.925 176.102 165.925 176.606C165.925 177.338 165.685 177.92 165.205 178.352C164.737 178.784 164.047 179 163.135 179ZM159.697 175.256V177.74H162.937C163.969 177.74 164.485 177.332 164.485 176.516C164.485 175.676 163.987 175.256 162.991 175.256H159.697ZM159.697 171.62V174.014H162.847C163.747 174.014 164.197 173.624 164.197 172.844C164.197 172.4 164.065 172.088 163.801 171.908C163.537 171.716 163.219 171.62 162.847 171.62H159.697ZM175.138 177.2C175.138 177.644 175.36 177.866 175.804 177.866C175.996 177.866 176.218 177.824 176.47 177.74V178.91C176.11 179.042 175.75 179.108 175.39 179.108C174.562 179.108 174.034 178.76 173.806 178.064C172.882 178.832 171.76 179.216 170.44 179.216C169.6 179.216 168.88 178.994 168.28 178.55C167.692 178.094 167.398 177.44 167.398 176.588C167.398 175.568 167.776 174.83 168.532 174.374C169.3 173.906 170.224 173.672 171.304 173.672C172.096 173.672 172.894 173.762 173.698 173.942V173.636C173.698 172.976 173.482 172.454 173.05 172.07C172.618 171.674 172.012 171.476 171.232 171.476C170.14 171.476 169.09 171.692 168.082 172.124V170.72C169.21 170.336 170.308 170.144 171.376 170.144C172.552 170.144 173.47 170.462 174.13 171.098C174.802 171.722 175.138 172.628 175.138 173.816V177.2ZM168.874 176.516C168.874 176.996 169.054 177.362 169.414 177.614C169.786 177.854 170.23 177.974 170.746 177.974C171.934 177.974 172.918 177.554 173.698 176.714V175.13C172.882 174.962 172.15 174.878 171.502 174.878C170.77 174.878 170.146 175.01 169.63 175.274C169.126 175.526 168.874 175.94 168.874 176.516ZM179.311 171.8C180.283 170.696 181.447 170.144 182.803 170.144C184.039 170.144 185.065 170.576 185.881 171.44C186.709 172.304 187.123 173.384 187.123 174.68C187.123 175.976 186.709 177.056 185.881 177.92C185.065 178.784 184.039 179.216 182.803 179.216C181.435 179.216 180.319 178.712 179.455 177.704V182.96H178.015V170.36H179.311V171.8ZM184.801 177.002C185.389 176.414 185.683 175.64 185.683 174.68C185.683 173.72 185.389 172.946 184.801 172.358C184.225 171.77 183.505 171.476 182.641 171.476C181.909 171.476 181.261 171.68 180.697 172.088C180.133 172.496 179.719 173 179.455 173.6V175.76C179.719 176.36 180.133 176.864 180.697 177.272C181.261 177.68 181.909 177.884 182.641 177.884C183.505 177.884 184.225 177.59 184.801 177.002ZM194.001 166.4H199.167C200.487 166.4 201.531 166.676 202.299 167.228C203.067 167.768 203.451 168.554 203.451 169.586C203.451 170.33 203.253 170.942 202.857 171.422C202.461 171.89 201.987 172.208 201.435 172.376C202.107 172.556 202.695 172.904 203.199 173.42C203.703 173.924 203.955 174.632 203.955 175.544C203.955 176.096 203.847 176.582 203.631 177.002C203.427 177.422 203.163 177.758 202.839 178.01C202.527 178.25 202.155 178.448 201.723 178.604C201.303 178.76 200.895 178.868 200.499 178.928C200.115 178.976 199.719 179 199.311 179H194.001V166.4ZM202.425 175.382C202.425 173.93 201.423 173.204 199.419 173.204H195.513V177.56H199.005C199.389 177.56 199.713 177.554 199.977 177.542C200.241 177.518 200.541 177.47 200.877 177.398C201.213 177.314 201.483 177.2 201.687 177.056C201.891 176.9 202.065 176.684 202.209 176.408C202.353 176.12 202.425 175.778 202.425 175.382ZM201.921 169.802C201.921 169.094 201.675 168.59 201.183 168.29C200.703 167.99 199.989 167.84 199.041 167.84H195.513V171.764H199.455C200.175 171.764 200.763 171.608 201.219 171.296C201.687 170.972 201.921 170.474 201.921 169.802Z" fill="#454545"/>
<path d="M98.9945 218H97.3565L102.846 205.4H104.52L109.992 218H108.372L107.076 214.958H100.29L98.9945 218ZM103.476 207.434L100.884 213.554H106.482L103.872 207.434C103.848 207.374 103.782 207.212 103.674 206.948C103.566 207.224 103.5 207.386 103.476 207.434ZM112.905 218H111.465V209.36H112.905V213.014H117.909V209.36H119.349V218H117.909V214.346H112.905V218ZM129.032 216.2C129.032 216.644 129.254 216.866 129.698 216.866C129.89 216.866 130.112 216.824 130.364 216.74V217.91C130.004 218.042 129.644 218.108 129.284 218.108C128.456 218.108 127.928 217.76 127.7 217.064C126.776 217.832 125.654 218.216 124.334 218.216C123.494 218.216 122.774 217.994 122.174 217.55C121.586 217.094 121.292 216.44 121.292 215.588C121.292 214.568 121.67 213.83 122.426 213.374C123.194 212.906 124.118 212.672 125.198 212.672C125.99 212.672 126.788 212.762 127.592 212.942V212.636C127.592 211.976 127.376 211.454 126.944 211.07C126.512 210.674 125.906 210.476 125.126 210.476C124.034 210.476 122.984 210.692 121.976 211.124V209.72C123.104 209.336 124.202 209.144 125.27 209.144C126.446 209.144 127.364 209.462 128.024 210.098C128.696 210.722 129.032 211.628 129.032 212.816V216.2ZM122.768 215.516C122.768 215.996 122.948 216.362 123.308 216.614C123.68 216.854 124.124 216.974 124.64 216.974C125.828 216.974 126.812 216.554 127.592 215.714V214.13C126.776 213.962 126.044 213.878 125.396 213.878C124.664 213.878 124.04 214.01 123.524 214.274C123.02 214.526 122.768 214.94 122.768 215.516ZM134.968 210.692C134.908 211.64 134.836 212.468 134.752 213.176C134.668 213.884 134.548 214.568 134.392 215.228C134.236 215.876 134.044 216.404 133.816 216.812C133.6 217.22 133.324 217.544 132.988 217.784C132.652 218.024 132.268 218.144 131.836 218.144C131.488 218.144 131.14 218.078 130.792 217.946V216.812C130.984 216.884 131.176 216.92 131.368 216.92C132.088 216.92 132.61 216.29 132.934 215.03C133.27 213.758 133.48 211.868 133.564 209.36H139.918V218H138.478V210.692H134.968ZM143.352 217.01C142.44 216.194 141.984 215.084 141.984 213.68C141.984 212.276 142.44 211.172 143.352 210.368C144.264 209.552 145.344 209.144 146.592 209.144C147.852 209.144 148.932 209.552 149.832 210.368C150.744 211.172 151.2 212.276 151.2 213.68C151.2 215.084 150.744 216.194 149.832 217.01C148.932 217.814 147.852 218.216 146.592 218.216C145.344 218.216 144.264 217.814 143.352 217.01ZM148.86 216.002C149.46 215.426 149.76 214.652 149.76 213.68C149.76 212.708 149.46 211.94 148.86 211.376C148.26 210.8 147.504 210.512 146.592 210.512C145.68 210.512 144.924 210.8 144.324 211.376C143.724 211.94 143.424 212.708 143.424 213.68C143.424 214.652 143.724 215.426 144.324 216.002C144.924 216.566 145.68 216.848 146.592 216.848C147.504 216.848 148.26 216.566 148.86 216.002ZM154.706 218H153.266V209.36H159.584V210.692H154.706V218ZM166.004 218H164.204L169.082 211.52L164.474 205.4H166.274L169.982 210.314L173.672 205.4H175.472L170.882 211.52L175.742 218H173.942L169.982 212.726L166.004 218Z" fill="#454545"/>
<path d="M98.1351 257H96.4971L101.987 244.4H103.661L109.133 257H107.513L106.217 253.958H99.4311L98.1351 257ZM102.617 246.434L100.025 252.554H105.623L103.013 246.434C102.989 246.374 102.923 246.212 102.815 245.948C102.707 246.224 102.641 246.386 102.617 246.434ZM112.045 257H110.605V248.36H112.045V252.014H117.049V248.36H118.489V257H117.049V253.346H112.045V257ZM128.172 255.2C128.172 255.644 128.394 255.866 128.838 255.866C129.03 255.866 129.252 255.824 129.504 255.74V256.91C129.144 257.042 128.784 257.108 128.424 257.108C127.596 257.108 127.068 256.76 126.84 256.064C125.916 256.832 124.794 257.216 123.474 257.216C122.634 257.216 121.914 256.994 121.314 256.55C120.726 256.094 120.432 255.44 120.432 254.588C120.432 253.568 120.81 252.83 121.566 252.374C122.334 251.906 123.258 251.672 124.338 251.672C125.13 251.672 125.928 251.762 126.732 251.942V251.636C126.732 250.976 126.516 250.454 126.084 250.07C125.652 249.674 125.046 249.476 124.266 249.476C123.174 249.476 122.124 249.692 121.116 250.124V248.72C122.244 248.336 123.342 248.144 124.41 248.144C125.586 248.144 126.504 248.462 127.164 249.098C127.836 249.722 128.172 250.628 128.172 251.816V255.2ZM121.908 254.516C121.908 254.996 122.088 255.362 122.448 255.614C122.82 255.854 123.264 255.974 123.78 255.974C124.968 255.974 125.952 255.554 126.732 254.714V253.13C125.916 252.962 125.184 252.878 124.536 252.878C123.804 252.878 123.18 253.01 122.664 253.274C122.16 253.526 121.908 253.94 121.908 254.516ZM134.109 249.692C134.049 250.64 133.977 251.468 133.893 252.176C133.809 252.884 133.689 253.568 133.533 254.228C133.377 254.876 133.185 255.404 132.957 255.812C132.741 256.22 132.465 256.544 132.129 256.784C131.793 257.024 131.409 257.144 130.977 257.144C130.629 257.144 130.281 257.078 129.933 256.946V255.812C130.125 255.884 130.317 255.92 130.509 255.92C131.229 255.92 131.751 255.29 132.075 254.03C132.411 252.758 132.621 250.868 132.705 248.36H139.059V257H137.619V249.692H134.109ZM142.493 256.01C141.581 255.194 141.125 254.084 141.125 252.68C141.125 251.276 141.581 250.172 142.493 249.368C143.405 248.552 144.485 248.144 145.733 248.144C146.993 248.144 148.073 248.552 148.973 249.368C149.885 250.172 150.341 251.276 150.341 252.68C150.341 254.084 149.885 255.194 148.973 256.01C148.073 256.814 146.993 257.216 145.733 257.216C144.485 257.216 143.405 256.814 142.493 256.01ZM148.001 255.002C148.601 254.426 148.901 253.652 148.901 252.68C148.901 251.708 148.601 250.94 148.001 250.376C147.401 249.8 146.645 249.512 145.733 249.512C144.821 249.512 144.065 249.8 143.465 250.376C142.865 250.94 142.565 251.708 142.565 252.68C142.565 253.652 142.865 254.426 143.465 255.002C144.065 255.566 144.821 255.848 145.733 255.848C146.645 255.848 147.401 255.566 148.001 255.002ZM153.846 257H152.406V248.36H158.724V249.692H153.846V257ZM169.476 257H167.964V252.23L163.014 244.4H164.688L168.72 250.88L172.752 244.4H174.426L169.476 252.23V257Z" fill="#454545"/>
<path d="M285.998 104.862H284.126L284.144 102H273.794V89.4H275.846V100.092H282.362V89.4H284.414V100.092H285.998V104.862ZM286.975 97.68C286.975 96.936 287.107 96.264 287.371 95.664C287.635 95.052 287.983 94.572 288.415 94.224C288.847 93.864 289.315 93.594 289.819 93.414C290.323 93.222 290.833 93.126 291.349 93.126C292.009 93.126 292.603 93.228 293.131 93.432C293.671 93.636 294.103 93.912 294.427 94.26C294.751 94.608 295.015 95.01 295.219 95.466C295.423 95.922 295.531 96.402 295.543 96.906C295.555 97.398 295.513 97.896 295.417 98.4H288.919C289.015 99.132 289.375 99.684 289.999 100.056C290.623 100.416 291.367 100.596 292.231 100.596C293.215 100.596 294.127 100.392 294.967 99.984V101.64C294.139 102.036 293.107 102.234 291.871 102.234C290.467 102.234 289.297 101.838 288.361 101.046C287.437 100.254 286.975 99.132 286.975 97.68ZM293.689 96.96C293.761 96.468 293.611 95.976 293.239 95.484C292.879 94.98 292.279 94.728 291.439 94.728C290.755 94.728 290.167 94.926 289.675 95.322C289.195 95.718 288.937 96.264 288.901 96.96H293.689ZM299.267 102H297.341V93.36H299.267V96.834H303.587V93.36H305.513V102H303.587V98.526H299.267V102ZM315.285 100.002C315.285 100.422 315.495 100.632 315.915 100.632C316.059 100.632 316.251 100.596 316.491 100.524V101.91C316.131 102.054 315.723 102.126 315.267 102.126C314.403 102.126 313.827 101.79 313.539 101.118C312.615 101.862 311.529 102.234 310.281 102.234C309.441 102.234 308.727 102.006 308.139 101.55C307.551 101.082 307.257 100.428 307.257 99.588C307.257 98.58 307.635 97.848 308.391 97.392C309.147 96.924 310.053 96.69 311.109 96.69C311.805 96.69 312.555 96.774 313.359 96.942V96.636C313.359 96.084 313.161 95.64 312.765 95.304C312.369 94.968 311.811 94.8 311.091 94.8C310.023 94.8 308.985 95.022 307.977 95.466V93.702C309.105 93.318 310.209 93.126 311.289 93.126C312.549 93.126 313.527 93.438 314.223 94.062C314.931 94.686 315.285 95.634 315.285 96.906V100.002ZM311.487 98.04C310.851 98.04 310.317 98.154 309.885 98.382C309.453 98.61 309.237 98.97 309.237 99.462C309.237 99.87 309.393 100.188 309.705 100.416C310.017 100.632 310.401 100.74 310.857 100.74C311.841 100.74 312.675 100.398 313.359 99.714V98.256C312.663 98.112 312.039 98.04 311.487 98.04Z" fill="#454545"/>
<path d="M366.725 89.4H371.225C374.813 89.4 376.607 90.78 376.607 93.54C376.607 96.3 374.813 97.68 371.225 97.68H368.777V102H366.725V89.4ZM373.655 95.322C374.231 94.986 374.519 94.392 374.519 93.54C374.519 92.688 374.231 92.1 373.655 91.776C373.091 91.44 372.317 91.272 371.333 91.272H368.777V95.808H371.333C372.317 95.808 373.091 95.646 373.655 95.322ZM377.393 97.68C377.393 96.936 377.525 96.264 377.789 95.664C378.053 95.052 378.401 94.572 378.833 94.224C379.265 93.864 379.733 93.594 380.237 93.414C380.741 93.222 381.251 93.126 381.767 93.126C382.427 93.126 383.021 93.228 383.549 93.432C384.089 93.636 384.521 93.912 384.845 94.26C385.169 94.608 385.433 95.01 385.637 95.466C385.841 95.922 385.949 96.402 385.961 96.906C385.973 97.398 385.931 97.896 385.835 98.4H379.337C379.433 99.132 379.793 99.684 380.417 100.056C381.041 100.416 381.785 100.596 382.649 100.596C383.633 100.596 384.545 100.392 385.385 99.984V101.64C384.557 102.036 383.525 102.234 382.289 102.234C380.885 102.234 379.715 101.838 378.779 101.046C377.855 100.254 377.393 99.132 377.393 97.68ZM384.107 96.96C384.179 96.468 384.029 95.976 383.657 95.484C383.297 94.98 382.697 94.728 381.857 94.728C381.173 94.728 380.585 94.926 380.093 95.322C379.613 95.718 379.355 96.264 379.319 96.96H384.107ZM394.491 91.416C393.771 91.908 392.895 92.154 391.863 92.154C390.831 92.154 389.955 91.908 389.235 91.416V89.85C390.039 90.354 390.915 90.606 391.863 90.606C392.811 90.606 393.687 90.354 394.491 89.85V91.416ZM389.415 102H387.759V93.36H389.685V99.012L394.311 93.36H395.967V102H394.041V96.348L389.415 102ZM402.39 102H400.464V95.052H397.476V93.36H405.36V95.052H402.39V102ZM408.522 102H406.866V93.36H408.792V99.012L413.418 93.36H415.074V102H413.148V96.348L408.522 102ZM419.409 102H417.483V93.36H419.409V96.834H423.729V93.36H425.655V102H423.729V98.526H419.409V102ZM429.991 102H428.065V93.36H434.509V95.052H429.991V102Z" fill="#454545"/>
<path d="M477.785 102H475.607L480.935 89.4H483.185L488.495 102H486.335L485.219 99.282H478.901L477.785 102ZM481.817 92.1L479.603 97.482H484.499L482.285 92.1C482.189 91.836 482.111 91.602 482.051 91.398C481.991 91.602 481.913 91.836 481.817 92.1ZM491.727 102H489.801V93.36H491.727V96.78H493.149L495.633 93.36H497.829L494.697 97.644L498.171 102H495.957L493.113 98.418H491.727V102ZM508.704 104.322H506.886V102H499.434V93.36H501.36V100.308H505.482V93.36H507.408V100.344H508.704V104.322ZM512.129 102H510.473V93.36H512.399V99.012L517.025 93.36H518.681V102H516.755V96.348L512.129 102ZM522.746 102H521.09V93.36H523.016V99.012L527.642 93.36H529.298V102H527.372V96.348L522.746 102Z" fill="#454545"/>
<path d="M276.108 127.76H277.224V138.56H279.51V140H273.138V138.56H275.712V129.362L273.138 130.334V128.894L276.108 127.76ZM285.624 128.732C286.764 127.94 288.072 127.544 289.548 127.544C290.82 127.544 291.834 127.832 292.59 128.408C293.346 128.984 293.724 129.788 293.724 130.82C293.724 131.312 293.628 131.774 293.436 132.206C293.256 132.638 292.98 133.034 292.608 133.394C292.248 133.754 291.894 134.06 291.546 134.312C291.21 134.552 290.784 134.822 290.268 135.122C290.208 135.158 290.022 135.266 289.71 135.446C289.41 135.626 289.218 135.74 289.134 135.788C289.062 135.836 288.894 135.944 288.63 136.112C288.378 136.268 288.21 136.382 288.126 136.454C288.054 136.526 287.922 136.64 287.73 136.796C287.55 136.952 287.424 137.084 287.352 137.192C287.292 137.3 287.208 137.438 287.1 137.606C287.004 137.762 286.938 137.918 286.902 138.074C286.866 138.23 286.848 138.398 286.848 138.578L293.814 138.56V140H285.192V139.28C285.192 138.608 285.3 138.002 285.516 137.462C285.732 136.91 286.038 136.442 286.434 136.058C286.842 135.662 287.244 135.332 287.64 135.068C288.036 134.792 288.498 134.498 289.026 134.186C289.146 134.126 289.236 134.078 289.296 134.042C290.388 133.406 291.102 132.92 291.438 132.584C291.954 132.056 292.212 131.462 292.212 130.802C292.212 130.202 291.966 129.746 291.474 129.434C290.994 129.11 290.31 128.948 289.422 128.948C288.126 128.948 286.86 129.38 285.624 130.244V128.732ZM296.428 127.76H303.772V129.2H297.85L297.634 132.656C298.282 132.476 298.978 132.386 299.722 132.386C300.334 132.386 300.904 132.458 301.432 132.602C301.96 132.734 302.446 132.95 302.89 133.25C303.346 133.538 303.706 133.946 303.97 134.474C304.234 134.99 304.366 135.602 304.366 136.31C304.366 137.522 303.916 138.476 303.016 139.172C302.128 139.868 300.994 140.216 299.614 140.216C298.126 140.216 296.818 139.94 295.69 139.388V137.948C296.77 138.524 298.018 138.812 299.434 138.812C300.466 138.812 301.288 138.596 301.9 138.164C302.524 137.732 302.836 137.114 302.836 136.31C302.836 134.606 301.624 133.754 299.2 133.754C298.144 133.754 297.088 133.946 296.032 134.33L296.428 127.76ZM307.446 138.47C306.534 137.306 306.078 135.776 306.078 133.88C306.078 131.984 306.534 130.454 307.446 129.29C308.358 128.126 309.702 127.544 311.478 127.544C313.266 127.544 314.616 128.126 315.528 129.29C316.44 130.442 316.896 131.972 316.896 133.88C316.896 135.788 316.44 137.324 315.528 138.488C314.616 139.64 313.266 140.216 311.478 140.216C309.702 140.216 308.358 139.634 307.446 138.47ZM314.394 137.516C315.042 136.664 315.366 135.452 315.366 133.88C315.366 132.308 315.042 131.102 314.394 130.262C313.758 129.41 312.786 128.984 311.478 128.984C310.17 128.984 309.198 129.41 308.562 130.262C307.926 131.102 307.608 132.308 307.608 133.88C307.608 135.452 307.926 136.664 308.562 137.516C309.198 138.356 310.17 138.776 311.478 138.776C312.786 138.776 313.758 138.356 314.394 137.516Z" fill="#454545"/>
<path d="M275.07 166.76H276.186V177.56H278.472V179H272.1V177.56H274.674V168.362L272.1 169.334V167.894L275.07 166.76ZM285.829 172.538C286.993 171.758 288.271 171.368 289.663 171.368C290.779 171.368 291.757 171.71 292.597 172.394C293.437 173.066 293.857 174.002 293.857 175.202C293.857 176.462 293.437 177.446 292.597 178.154C291.769 178.862 290.725 179.216 289.465 179.216C287.737 179.216 286.441 178.682 285.577 177.614C284.725 176.534 284.299 175.022 284.299 173.078C284.299 170.918 284.809 169.292 285.829 168.2C286.861 167.096 288.205 166.544 289.861 166.544C290.929 166.544 291.919 166.778 292.831 167.246V168.686C291.943 168.218 290.965 167.984 289.897 167.984C288.769 167.984 287.827 168.35 287.071 169.082C286.327 169.802 285.913 170.954 285.829 172.538ZM285.847 174.05C286.075 176.558 287.245 177.812 289.357 177.812C290.245 177.812 290.959 177.608 291.499 177.2C292.051 176.792 292.327 176.15 292.327 175.274C292.327 174.386 292.045 173.75 291.481 173.366C290.917 172.97 290.185 172.772 289.285 172.772C287.953 172.772 286.807 173.198 285.847 174.05ZM295.857 169.712C295.857 168.848 296.235 168.104 296.991 167.48C297.747 166.856 298.857 166.544 300.321 166.544C301.677 166.544 302.769 166.874 303.597 167.534C304.425 168.194 304.851 168.986 304.875 169.91C304.911 171.17 304.353 172.202 303.201 173.006C304.605 173.702 305.307 174.662 305.307 175.886C305.307 176.822 304.893 177.614 304.065 178.262C303.249 178.898 302.037 179.216 300.429 179.216C298.833 179.216 297.597 178.868 296.721 178.172C295.857 177.476 295.425 176.63 295.425 175.634C295.425 175.034 295.599 174.44 295.947 173.852C296.307 173.252 296.829 172.748 297.513 172.34C296.409 171.668 295.857 170.792 295.857 169.712ZM300.501 173.492C299.877 173.324 299.307 173.144 298.791 172.952C298.191 173.24 297.729 173.612 297.405 174.068C297.093 174.524 296.937 174.992 296.937 175.472C296.937 176.204 297.237 176.78 297.837 177.2C298.449 177.608 299.325 177.812 300.465 177.812C301.425 177.812 302.217 177.644 302.841 177.308C303.477 176.96 303.795 176.51 303.795 175.958C303.795 175.49 303.627 175.094 303.291 174.77C302.967 174.434 302.649 174.206 302.337 174.086C302.025 173.966 301.509 173.798 300.789 173.582C300.657 173.546 300.561 173.516 300.501 173.492ZM303.363 170.18C303.363 169.544 303.093 169.016 302.553 168.596C302.013 168.164 301.257 167.948 300.285 167.948C299.397 167.948 298.689 168.116 298.161 168.452C297.633 168.776 297.369 169.19 297.369 169.694C297.369 170.042 297.441 170.348 297.585 170.612C297.741 170.864 297.969 171.08 298.269 171.26C298.581 171.428 298.863 171.566 299.115 171.674C299.367 171.77 299.703 171.878 300.123 171.998C300.171 172.01 300.207 172.022 300.231 172.034C300.255 172.034 300.285 172.04 300.321 172.052C300.357 172.064 300.393 172.076 300.429 172.088C300.465 172.1 300.669 172.16 301.041 172.268C301.425 172.364 301.719 172.442 301.923 172.502C302.883 171.878 303.363 171.104 303.363 170.18ZM308.483 177.47C307.571 176.306 307.115 174.776 307.115 172.88C307.115 170.984 307.571 169.454 308.483 168.29C309.395 167.126 310.739 166.544 312.515 166.544C314.303 166.544 315.653 167.126 316.565 168.29C317.477 169.442 317.933 170.972 317.933 172.88C317.933 174.788 317.477 176.324 316.565 177.488C315.653 178.64 314.303 179.216 312.515 179.216C310.739 179.216 309.395 178.634 308.483 177.47ZM315.431 176.516C316.079 175.664 316.403 174.452 316.403 172.88C316.403 171.308 316.079 170.102 315.431 169.262C314.795 168.41 313.823 167.984 312.515 167.984C311.207 167.984 310.235 168.41 309.599 169.262C308.963 170.102 308.645 171.308 308.645 172.88C308.645 174.452 308.963 175.664 309.599 176.516C310.235 177.356 311.207 177.776 312.515 177.776C313.823 177.776 314.795 177.356 315.431 176.516Z" fill="#454545"/>
<path d="M279.033 205.76H280.149V216.56H282.435V218H276.063V216.56H278.637V207.362L276.063 208.334V206.894L279.033 205.76ZM286.768 205.76H287.884V216.56H290.17V218H283.798V216.56H286.372V207.362L283.798 208.334V206.894L286.768 205.76ZM292.864 216.47C291.952 215.306 291.496 213.776 291.496 211.88C291.496 209.984 291.952 208.454 292.864 207.29C293.776 206.126 295.12 205.544 296.896 205.544C298.684 205.544 300.034 206.126 300.946 207.29C301.858 208.442 302.314 209.972 302.314 211.88C302.314 213.788 301.858 215.324 300.946 216.488C300.034 217.64 298.684 218.216 296.896 218.216C295.12 218.216 293.776 217.634 292.864 216.47ZM299.812 215.516C300.46 214.664 300.784 213.452 300.784 211.88C300.784 210.308 300.46 209.102 299.812 208.262C299.176 207.41 298.204 206.984 296.896 206.984C295.588 206.984 294.616 207.41 293.98 208.262C293.344 209.102 293.026 210.308 293.026 211.88C293.026 213.452 293.344 214.664 293.98 215.516C294.616 216.356 295.588 216.776 296.896 216.776C298.204 216.776 299.176 216.356 299.812 215.516ZM305.52 216.47C304.608 215.306 304.152 213.776 304.152 211.88C304.152 209.984 304.608 208.454 305.52 207.29C306.432 206.126 307.776 205.544 309.552 205.544C311.34 205.544 312.69 206.126 313.602 207.29C314.514 208.442 314.97 209.972 314.97 211.88C314.97 213.788 314.514 215.324 313.602 216.488C312.69 217.64 311.34 218.216 309.552 218.216C307.776 218.216 306.432 217.634 305.52 216.47ZM312.468 215.516C313.116 214.664 313.44 213.452 313.44 211.88C313.44 210.308 313.116 209.102 312.468 208.262C311.832 207.41 310.86 206.984 309.552 206.984C308.244 206.984 307.272 207.41 306.636 208.262C306 209.102 305.682 210.308 305.682 211.88C305.682 213.452 306 214.664 306.636 215.516C307.272 216.356 308.244 216.776 309.552 216.776C310.86 216.776 311.832 216.356 312.468 215.516Z" fill="#454545"/>
<path d="M278.26 244.76H279.376V255.56H281.662V257H275.29V255.56H277.864V246.362L275.29 247.334V245.894L278.26 244.76ZM289.198 244.76H290.836V252.878H293.14V254.282H290.836V257H289.342V254.282H282.52V252.932L289.198 244.76ZM289.342 252.878V246.794L284.374 252.878H289.342ZM294.896 245.732C296.036 244.94 297.344 244.544 298.82 244.544C300.092 244.544 301.106 244.832 301.862 245.408C302.618 245.984 302.996 246.788 302.996 247.82C302.996 248.312 302.9 248.774 302.708 249.206C302.528 249.638 302.252 250.034 301.88 250.394C301.52 250.754 301.166 251.06 300.818 251.312C300.482 251.552 300.056 251.822 299.54 252.122C299.48 252.158 299.294 252.266 298.982 252.446C298.682 252.626 298.49 252.74 298.406 252.788C298.334 252.836 298.166 252.944 297.902 253.112C297.65 253.268 297.482 253.382 297.398 253.454C297.326 253.526 297.194 253.64 297.002 253.796C296.822 253.952 296.696 254.084 296.624 254.192C296.564 254.3 296.48 254.438 296.372 254.606C296.276 254.762 296.21 254.918 296.174 255.074C296.138 255.23 296.12 255.398 296.12 255.578L303.086 255.56V257H294.464V256.28C294.464 255.608 294.572 255.002 294.788 254.462C295.004 253.91 295.31 253.442 295.706 253.058C296.114 252.662 296.516 252.332 296.912 252.068C297.308 251.792 297.77 251.498 298.298 251.186C298.418 251.126 298.508 251.078 298.568 251.042C299.66 250.406 300.374 249.92 300.71 249.584C301.226 249.056 301.484 248.462 301.484 247.802C301.484 247.202 301.238 246.746 300.746 246.434C300.266 246.11 299.582 245.948 298.694 245.948C297.398 245.948 296.132 246.38 294.896 247.244V245.732ZM306.294 255.47C305.382 254.306 304.926 252.776 304.926 250.88C304.926 248.984 305.382 247.454 306.294 246.29C307.206 245.126 308.55 244.544 310.326 244.544C312.114 244.544 313.464 245.126 314.376 246.29C315.288 247.442 315.744 248.972 315.744 250.88C315.744 252.788 315.288 254.324 314.376 255.488C313.464 256.64 312.114 257.216 310.326 257.216C308.55 257.216 307.206 256.634 306.294 255.47ZM313.242 254.516C313.89 253.664 314.214 252.452 314.214 250.88C314.214 249.308 313.89 248.102 313.242 247.262C312.606 246.41 311.634 245.984 310.326 245.984C309.018 245.984 308.046 246.41 307.41 247.262C306.774 248.102 306.456 249.308 306.456 250.88C306.456 252.452 306.774 253.664 307.41 254.516C308.046 255.356 309.018 255.776 310.326 255.776C311.634 255.776 312.606 255.356 313.242 254.516Z" fill="#454545"/>
<rect x="465.5" y="125.5" width="71" height="19" rx="9.5" fill="#FFE6E4" stroke="#F64810"/>
<path d="M479.504 133.872C479.504 133.152 479.632 132.504 479.888 131.928C480.144 131.352 480.484 130.888 480.908 130.536C481.332 130.176 481.804 129.904 482.324 129.72C482.844 129.536 483.388 129.444 483.956 129.444C484.812 129.444 485.608 129.628 486.344 129.996V131.328C485.744 130.912 485.024 130.704 484.184 130.704C483.296 130.704 482.528 130.972 481.88 131.508C481.232 132.044 480.904 132.832 480.896 133.872C480.896 134.528 481.064 135.092 481.4 135.564C481.736 136.036 482.148 136.376 482.636 136.584C483.124 136.792 483.648 136.896 484.208 136.896C485.104 136.896 485.836 136.68 486.404 136.248V137.604C485.652 137.972 484.84 138.156 483.968 138.156C483.408 138.156 482.868 138.068 482.348 137.892C481.828 137.708 481.352 137.444 480.92 137.1C480.488 136.756 480.144 136.304 479.888 135.744C479.632 135.184 479.504 134.56 479.504 133.872ZM488.916 138H487.632V132.24H488.916V134.52H489.864L491.52 132.24H492.984L490.896 135.096L493.212 138H491.736L489.84 135.612H488.916V138ZM495.158 138H494.054V132.24H495.338V136.008L498.422 132.24H499.526V138H498.242V134.232L495.158 138ZM501.828 139.548H500.616V136.944H501.408C502.04 135.824 502.344 134.256 502.32 132.24H506.82V136.944H507.672V139.548H506.46V138H501.828V139.548ZM503.52 133.296C503.472 134.736 503.216 135.952 502.752 136.944H505.524V133.296H503.52ZM510.127 138H508.843V132.24H510.127V134.52H511.075L512.731 132.24H514.195L512.107 135.096L514.423 138H512.947L511.051 135.612H510.127V138ZM520.114 136.668C520.114 136.948 520.254 137.088 520.534 137.088C520.63 137.088 520.758 137.064 520.918 137.016V137.94C520.678 138.036 520.406 138.084 520.102 138.084C519.526 138.084 519.142 137.86 518.95 137.412C518.334 137.908 517.61 138.156 516.778 138.156C516.218 138.156 515.742 138.004 515.35 137.7C514.958 137.388 514.762 136.952 514.762 136.392C514.762 135.72 515.014 135.232 515.518 134.928C516.022 134.616 516.626 134.46 517.33 134.46C517.794 134.46 518.294 134.516 518.83 134.628V134.424C518.83 134.056 518.698 133.76 518.434 133.536C518.17 133.312 517.798 133.2 517.318 133.2C516.606 133.2 515.914 133.348 515.242 133.644V132.468C515.994 132.212 516.73 132.084 517.45 132.084C518.29 132.084 518.942 132.292 519.406 132.708C519.878 133.124 520.114 133.756 520.114 134.604V136.668ZM517.582 135.36C517.158 135.36 516.802 135.436 516.514 135.588C516.226 135.74 516.082 135.98 516.082 136.308C516.082 136.58 516.186 136.792 516.394 136.944C516.602 137.088 516.858 137.16 517.162 137.16C517.818 137.16 518.374 136.932 518.83 136.476V135.504C518.366 135.408 517.95 135.36 517.582 135.36Z" fill="#F64810"/>
<rect x="465.5" y="203.5" width="71" height="19" rx="9.5" fill="#F5FFEE" stroke="#80DA39"/>
<path d="M477.388 217H476.02V208.6H483.076V217H481.708V209.86H477.388V217ZM485.309 216.352C484.701 215.816 484.397 215.072 484.397 214.12C484.397 213.168 484.701 212.424 485.309 211.888C485.925 211.352 486.661 211.084 487.517 211.084C488.381 211.084 489.117 211.352 489.725 211.888C490.333 212.424 490.637 213.168 490.637 214.12C490.637 215.072 490.333 215.816 489.725 216.352C489.117 216.888 488.381 217.156 487.517 217.156C486.661 217.156 485.925 216.888 485.309 216.352ZM488.825 215.476C489.161 215.132 489.329 214.68 489.329 214.12C489.329 213.56 489.161 213.112 488.825 212.776C488.489 212.432 488.053 212.26 487.517 212.26C486.973 212.26 486.533 212.432 486.197 212.776C485.861 213.112 485.693 213.56 485.693 214.12C485.693 214.68 485.861 215.132 486.197 215.476C486.533 215.812 486.973 215.98 487.517 215.98C488.053 215.98 488.489 215.812 488.825 215.476ZM492.438 218.548H491.226V215.944H492.018C492.65 214.824 492.954 213.256 492.93 211.24H497.43V215.944H498.282V218.548H497.07V217H492.438V218.548ZM494.13 212.296C494.082 213.736 493.826 214.952 493.362 215.944H496.134V212.296H494.13ZM504.36 215.668C504.36 215.948 504.5 216.088 504.78 216.088C504.876 216.088 505.004 216.064 505.164 216.016V216.94C504.924 217.036 504.652 217.084 504.348 217.084C503.772 217.084 503.388 216.86 503.196 216.412C502.58 216.908 501.856 217.156 501.024 217.156C500.464 217.156 499.988 217.004 499.596 216.7C499.204 216.388 499.008 215.952 499.008 215.392C499.008 214.72 499.26 214.232 499.764 213.928C500.268 213.616 500.872 213.46 501.576 213.46C502.04 213.46 502.54 213.516 503.076 213.628V213.424C503.076 213.056 502.944 212.76 502.68 212.536C502.416 212.312 502.044 212.2 501.564 212.2C500.852 212.2 500.16 212.348 499.488 212.644V211.468C500.24 211.212 500.976 211.084 501.696 211.084C502.536 211.084 503.188 211.292 503.652 211.708C504.124 212.124 504.36 212.756 504.36 213.604V215.668ZM501.828 214.36C501.404 214.36 501.048 214.436 500.76 214.588C500.472 214.74 500.328 214.98 500.328 215.308C500.328 215.58 500.432 215.792 500.64 215.944C500.848 216.088 501.104 216.16 501.408 216.16C502.064 216.16 502.62 215.932 503.076 215.476V214.504C502.612 214.408 502.196 214.36 501.828 214.36ZM507.272 212.14C507.856 211.436 508.596 211.084 509.492 211.084C510.34 211.084 511.028 211.38 511.556 211.972C512.084 212.556 512.348 213.272 512.348 214.12C512.348 214.968 512.084 215.688 511.556 216.28C511.028 216.864 510.34 217.156 509.492 217.156C508.628 217.156 507.936 216.856 507.416 216.256V219.64H506.132V211.24H507.272V212.14ZM510.536 215.5C510.872 215.14 511.04 214.68 511.04 214.12C511.04 213.56 510.872 213.104 510.536 212.752C510.2 212.392 509.772 212.212 509.252 212.212C508.828 212.212 508.452 212.328 508.124 212.56C507.804 212.792 507.568 213.076 507.416 213.412V214.816C507.568 215.16 507.804 215.448 508.124 215.68C508.452 215.912 508.828 216.028 509.252 216.028C509.772 216.028 510.2 215.852 510.536 215.5ZM514.149 216.352C513.541 215.816 513.237 215.072 513.237 214.12C513.237 213.168 513.541 212.424 514.149 211.888C514.765 211.352 515.501 211.084 516.357 211.084C517.221 211.084 517.957 211.352 518.565 211.888C519.173 212.424 519.477 213.168 519.477 214.12C519.477 215.072 519.173 215.816 518.565 216.352C517.957 216.888 517.221 217.156 516.357 217.156C515.501 217.156 514.765 216.888 514.149 216.352ZM517.665 215.476C518.001 215.132 518.169 214.68 518.169 214.12C518.169 213.56 518.001 213.112 517.665 212.776C517.329 212.432 516.893 212.26 516.357 212.26C515.813 212.26 515.373 212.432 515.037 212.776C514.701 213.112 514.533 213.56 514.533 214.12C514.533 214.68 514.701 215.132 515.037 215.476C515.373 215.812 515.813 215.98 516.357 215.98C516.893 215.98 517.329 215.812 517.665 215.476ZM522.006 217H520.722V211.24H522.006V213.52H522.954L524.61 211.24H526.074L523.986 214.096L526.302 217H524.826L522.93 214.612H522.006V217Z" fill="#80DA39"/>
<path d="M362 127L364.821 131.117L369.608 132.528L366.565 136.483L366.702 141.472L362 139.8L357.298 141.472L357.435 136.483L354.392 132.528L359.179 131.117L362 127Z" fill="#F28100"/>
<path d="M381 127L383.821 131.117L388.608 132.528L385.565 136.483L385.702 141.472L381 139.8L376.298 141.472L376.435 136.483L373.392 132.528L378.179 131.117L381 127Z" fill="#F28100"/>
<path d="M400 127L402.821 131.117L407.608 132.528L404.565 136.483L404.702 141.472L400 139.8L395.298 141.472L395.435 136.483L392.392 132.528L397.179 131.117L400 127Z" fill="#F28100"/>
<path d="M419 127L421.821 131.117L426.608 132.528L423.565 136.483L423.702 141.472L419 139.8L414.298 141.472L414.435 136.483L411.392 132.528L416.179 131.117L419 127Z" fill="#F28100"/>
<path d="M438 127L440.821 131.117L445.608 132.528L442.565 136.483L442.702 141.472L438 139.8L433.298 141.472L433.435 136.483L430.392 132.528L435.179 131.117L438 127Z" fill="#D5D5E4"/>
<path d="M362 205L364.821 209.117L369.608 210.528L366.565 214.483L366.702 219.472L362 217.8L357.298 219.472L357.435 214.483L354.392 210.528L359.179 209.117L362 205Z" fill="#F28100"/>
<path d="M381 205L383.821 209.117L388.608 210.528L385.565 214.483L385.702 219.472L381 217.8L376.298 219.472L376.435 214.483L373.392 210.528L378.179 209.117L381 205Z" fill="#F28100"/>
<path d="M400 205L402.821 209.117L407.608 210.528L404.565 214.483L404.702 219.472L400 217.8L395.298 219.472L395.435 214.483L392.392 210.528L397.179 209.117L400 205Z" fill="#F28100"/>
<path d="M419 205L421.821 209.117L426.608 210.528L423.565 214.483L423.702 219.472L419 217.8L414.298 219.472L414.435 214.483L411.392 210.528L416.179 209.117L419 205Z" fill="#F28100"/>
<path d="M438 205L440.821 209.117L445.608 210.528L442.565 214.483L442.702 219.472L438 217.8L433.298 219.472L433.435 214.483L430.392 210.528L435.179 209.117L438 205Z" fill="#D5D5E4"/>
<path d="M362 166L364.821 170.117L369.608 171.528L366.565 175.483L366.702 180.472L362 178.8L357.298 180.472L357.435 175.483L354.392 171.528L359.179 170.117L362 166Z" fill="#F28100"/>
<path d="M381 166L383.821 170.117L388.608 171.528L385.565 175.483L385.702 180.472L381 178.8L376.298 180.472L376.435 175.483L373.392 171.528L378.179 170.117L381 166Z" fill="#F28100"/>
<path d="M400 166L402.821 170.117L407.608 171.528L404.565 175.483L404.702 180.472L400 178.8L395.298 180.472L395.435 175.483L392.392 171.528L397.179 170.117L400 166Z" fill="#D5D5E4"/>
<path d="M419 166L421.821 170.117L426.608 171.528L423.565 175.483L423.702 180.472L419 178.8L414.298 180.472L414.435 175.483L411.392 171.528L416.179 170.117L419 166Z" fill="#D5D5E4"/>
<path d="M438 166L440.821 170.117L445.608 171.528L442.565 175.483L442.702 180.472L438 178.8L433.298 180.472L433.435 175.483L430.392 171.528L435.179 170.117L438 166Z" fill="#D5D5E4"/>
<path d="M362 242L364.821 246.117L369.608 247.528L366.565 251.483L366.702 256.472L362 254.8L357.298 256.472L357.435 251.483L354.392 247.528L359.179 246.117L362 242Z" fill="#F28100"/>
<path d="M381 242L383.821 246.117L388.608 247.528L385.565 251.483L385.702 256.472L381 254.8L376.298 256.472L376.435 251.483L373.392 247.528L378.179 246.117L381 242Z" fill="#F28100"/>
<path d="M400 242L402.821 246.117L407.608 247.528L404.565 251.483L404.702 256.472L400 254.8L395.298 256.472L395.435 251.483L392.392 247.528L397.179 246.117L400 242Z" fill="#D5D5E4"/>
<path d="M419 242L421.821 246.117L426.608 247.528L423.565 251.483L423.702 256.472L419 254.8L414.298 256.472L414.435 251.483L411.392 247.528L416.179 246.117L419 242Z" fill="#D5D5E4"/>
<path d="M438 242L440.821 246.117L445.608 247.528L442.565 251.483L442.702 256.472L438 254.8L433.298 256.472L433.435 251.483L430.392 247.528L435.179 246.117L438 242Z" fill="#D5D5E4"/>
<g filter="url(#filter1_b_803_858)">
<path d="M249 194H342V232H249V194Z" fill="white" fill-opacity="0.5"/>
</g>
<g filter="url(#filter2_b_803_858)">
<path d="M457 194H550V232H457V194Z" fill="white" fill-opacity="0.5"/>
</g>
<g filter="url(#filter3_b_803_858)">
<path d="M457 116H550V154H457V116Z" fill="white" fill-opacity="0.5"/>
</g>
<g filter="url(#filter4_b_803_858)">
<path d="M343 116H456V154H343V116Z" fill="white" fill-opacity="0.5"/>
</g>
<g filter="url(#filter5_b_803_858)">
<path d="M343 155H456V193H343V155Z" fill="white" fill-opacity="0.5"/>
</g>
<g filter="url(#filter6_b_803_858)">
<path d="M343 194H456V232H343V194Z" fill="white" fill-opacity="0.5"/>
</g>
<g filter="url(#filter7_b_803_858)">
<path d="M343 233H456V271H343V233Z" fill="white" fill-opacity="0.5"/>
</g>
<g filter="url(#filter8_b_803_858)">
<path d="M249 233H342V271H249V233Z" fill="white" fill-opacity="0.5"/>
</g>
<path d="M398.848 248.999L401.711 251.847L401.724 251.698C401.724 250.202 400.502 248.985 398.998 248.985L398.848 248.999Z" fill="#454545"/>
<path d="M398.997 247.178C401.505 247.178 403.541 249.203 403.541 251.698C403.541 252.281 403.423 252.837 403.219 253.348L405.877 255.992C407.25 254.853 408.331 253.379 408.999 251.698C407.422 247.729 403.546 244.918 398.997 244.918C397.724 244.918 396.507 245.144 395.375 245.551L397.338 247.499C397.852 247.3 398.411 247.178 398.997 247.178Z" fill="#454545"/>
<path d="M389.909 244.714L391.981 246.775L392.395 247.187C390.895 248.353 389.709 249.903 389 251.697C390.572 255.666 394.453 258.477 398.998 258.477C400.407 258.477 401.752 258.206 402.983 257.713L403.369 258.098L406.019 260.737L407.178 259.589L391.068 243.562L389.909 244.714ZM394.935 249.709L396.339 251.105C396.298 251.3 396.271 251.494 396.271 251.697C396.271 253.194 397.494 254.409 398.998 254.409C399.202 254.409 399.398 254.382 399.589 254.342L400.993 255.738C400.388 256.037 399.716 256.217 398.998 256.217C396.489 256.217 394.453 254.192 394.453 251.697C394.453 250.983 394.635 250.314 394.935 249.709Z" fill="#454545"/>
<path d="M294.848 248.999L297.711 251.847L297.724 251.698C297.724 250.202 296.502 248.985 294.998 248.985L294.848 248.999Z" fill="#454545"/>
<path d="M294.997 247.178C297.505 247.178 299.541 249.203 299.541 251.698C299.541 252.281 299.423 252.837 299.219 253.348L301.877 255.992C303.25 254.853 304.331 253.379 304.999 251.698C303.422 247.729 299.546 244.918 294.997 244.918C293.724 244.918 292.507 245.144 291.375 245.551L293.338 247.499C293.852 247.3 294.411 247.178 294.997 247.178Z" fill="#454545"/>
<path d="M285.909 244.714L287.981 246.775L288.395 247.187C286.895 248.353 285.709 249.903 285 251.697C286.572 255.666 290.453 258.477 294.998 258.477C296.407 258.477 297.752 258.206 298.983 257.713L299.369 258.098L302.019 260.737L303.178 259.589L287.068 243.562L285.909 244.714ZM290.935 249.709L292.339 251.105C292.298 251.3 292.271 251.494 292.271 251.697C292.271 253.194 293.494 254.409 294.998 254.409C295.202 254.409 295.398 254.382 295.589 254.342L296.993 255.738C296.388 256.037 295.716 256.217 294.998 256.217C292.489 256.217 290.453 254.192 290.453 251.697C290.453 250.983 290.635 250.314 290.935 249.709Z" fill="#454545"/>
<path d="M500.848 133.623L503.711 136.472L503.724 136.323C503.724 134.826 502.502 133.61 500.998 133.61L500.848 133.623Z" fill="#454545"/>
<path d="M500.997 131.802C503.505 131.802 505.541 133.827 505.541 136.322C505.541 136.905 505.423 137.461 505.219 137.972L507.877 140.616C509.25 139.477 510.331 138.004 510.999 136.322C509.422 132.354 505.546 129.542 500.997 129.542C499.724 129.542 498.507 129.768 497.375 130.175L499.338 132.123C499.852 131.924 500.411 131.802 500.997 131.802Z" fill="#454545"/>
<path d="M491.909 129.339L493.981 131.4L494.395 131.811C492.895 132.977 491.709 134.528 491 136.322C492.572 140.29 496.453 143.102 500.998 143.102C502.407 143.102 503.752 142.831 504.983 142.338L505.369 142.722L508.019 145.362L509.178 144.214L493.068 128.186L491.909 129.339ZM496.935 134.333L498.339 135.73C498.298 135.924 498.271 136.119 498.271 136.322C498.271 137.818 499.494 139.034 500.998 139.034C501.202 139.034 501.398 139.007 501.589 138.966L502.993 140.363C502.388 140.661 501.716 140.842 500.998 140.842C498.489 140.842 496.453 138.817 496.453 136.322C496.453 135.608 496.635 134.939 496.935 134.333Z" fill="#454545"/>
<path d="M294.848 210.209L297.711 213.057L297.724 212.908C297.724 211.411 296.502 210.195 294.998 210.195L294.848 210.209Z" fill="#454545"/>
<path d="M294.997 208.388C297.505 208.388 299.541 210.413 299.541 212.908C299.541 213.491 299.423 214.047 299.219 214.558L301.877 217.202C303.25 216.063 304.331 214.589 304.999 212.908C303.422 208.939 299.546 206.128 294.997 206.128C293.724 206.128 292.507 206.354 291.375 206.761L293.338 208.709C293.852 208.51 294.411 208.388 294.997 208.388Z" fill="#454545"/>
<path d="M285.909 205.924L287.981 207.985L288.395 208.397C286.895 209.563 285.709 211.113 285 212.907C286.572 216.876 290.453 219.687 294.998 219.687C296.407 219.687 297.752 219.416 298.983 218.923L299.369 219.308L302.019 221.947L303.178 220.799L287.068 204.771L285.909 205.924ZM290.935 210.919L292.339 212.315C292.298 212.51 292.271 212.704 292.271 212.907C292.271 214.404 293.494 215.619 294.998 215.619C295.202 215.619 295.398 215.592 295.589 215.552L296.993 216.948C296.388 217.247 295.716 217.427 294.998 217.427C292.489 217.427 290.453 215.402 290.453 212.907C290.453 212.193 290.635 211.524 290.935 210.919Z" fill="#454545"/>
<path d="M398.848 132.629L401.711 135.477L401.724 135.328C401.724 133.831 400.502 132.615 398.998 132.615L398.848 132.629Z" fill="#454545"/>
<path d="M398.997 130.808C401.505 130.808 403.541 132.833 403.541 135.328C403.541 135.911 403.423 136.467 403.219 136.978L405.877 139.622C407.25 138.483 408.331 137.009 408.999 135.328C407.422 131.359 403.546 128.548 398.997 128.548C397.724 128.548 396.507 128.774 395.375 129.181L397.338 131.129C397.852 130.93 398.411 130.808 398.997 130.808Z" fill="#454545"/>
<path d="M389.909 128.344L391.981 130.405L392.395 130.816C390.895 131.983 389.709 133.533 389 135.327C390.572 139.296 394.453 142.107 398.998 142.107C400.407 142.107 401.752 141.836 402.983 141.343L403.369 141.728L406.019 144.367L407.178 143.219L391.068 127.191L389.909 128.344ZM394.935 133.339L396.339 134.735C396.298 134.93 396.271 135.124 396.271 135.327C396.271 136.823 397.494 138.039 398.998 138.039C399.202 138.039 399.398 138.012 399.589 137.972L400.993 139.368C400.388 139.667 399.716 139.847 398.998 139.847C396.489 139.847 394.453 137.822 394.453 135.327C394.453 134.613 394.635 133.944 394.935 133.339Z" fill="#454545"/>
<path d="M398.848 172.413L401.711 175.262L401.724 175.113C401.724 173.616 400.502 172.4 398.998 172.4L398.848 172.413Z" fill="#454545"/>
<path d="M398.997 170.592C401.505 170.592 403.541 172.617 403.541 175.112C403.541 175.696 403.423 176.251 403.219 176.762L405.877 179.406C407.25 178.267 408.331 176.794 408.999 175.112C407.422 171.144 403.546 168.333 398.997 168.333C397.724 168.333 396.507 168.559 395.375 168.965L397.338 170.913C397.852 170.715 398.411 170.592 398.997 170.592Z" fill="#454545"/>
<path d="M389.909 168.129L391.981 170.19L392.395 170.601C390.895 171.767 389.709 173.318 389 175.112C390.572 179.08 394.453 181.892 398.998 181.892C400.407 181.892 401.752 181.621 402.983 181.128L403.369 181.512L406.019 184.152L407.178 183.004L391.068 166.976L389.909 168.129ZM394.935 173.123L396.339 174.52C396.298 174.714 396.271 174.909 396.271 175.112C396.271 176.608 397.494 177.824 398.998 177.824C399.202 177.824 399.398 177.797 399.589 177.756L400.993 179.153C400.388 179.451 399.716 179.632 398.998 179.632C396.489 179.632 394.453 177.607 394.453 175.112C394.453 174.398 394.635 173.729 394.935 173.123Z" fill="#454545"/>
<path d="M398.848 210.437L401.711 213.286L401.724 213.137C401.724 211.64 400.502 210.424 398.998 210.424L398.848 210.437Z" fill="#454545"/>
<path d="M398.997 208.616C401.505 208.616 403.541 210.641 403.541 213.136C403.541 213.719 403.423 214.275 403.219 214.786L405.877 217.43C407.25 216.291 408.331 214.818 408.999 213.136C407.422 209.168 403.546 206.356 398.997 206.356C397.724 206.356 396.507 206.582 395.375 206.989L397.338 208.937C397.852 208.738 398.411 208.616 398.997 208.616Z" fill="#454545"/>
<path d="M389.909 206.153L391.981 208.214L392.395 208.625C390.895 209.791 389.709 211.342 389 213.136C390.572 217.104 394.453 219.916 398.998 219.916C400.407 219.916 401.752 219.645 402.983 219.152L403.369 219.536L406.019 222.176L407.178 221.028L391.068 205L389.909 206.153ZM394.935 211.147L396.339 212.544C396.298 212.738 396.271 212.933 396.271 213.136C396.271 214.632 397.494 215.848 398.998 215.848C399.202 215.848 399.398 215.821 399.589 215.78L400.993 217.177C400.388 217.475 399.716 217.656 398.998 217.656C396.489 217.656 394.453 215.631 394.453 213.136C394.453 212.422 394.635 211.753 394.935 211.147Z" fill="#454545"/>
<path d="M500.848 210.209L503.711 213.057L503.724 212.908C503.724 211.411 502.502 210.195 500.998 210.195L500.848 210.209Z" fill="#454545"/>
<path d="M500.997 208.388C503.505 208.388 505.541 210.413 505.541 212.908C505.541 213.491 505.423 214.047 505.219 214.558L507.877 217.202C509.25 216.063 510.331 214.589 510.999 212.908C509.422 208.939 505.546 206.128 500.997 206.128C499.724 206.128 498.507 206.354 497.375 206.761L499.338 208.709C499.852 208.51 500.411 208.388 500.997 208.388Z" fill="#454545"/>
<path d="M491.909 205.924L493.981 207.985L494.395 208.397C492.895 209.563 491.709 211.113 491 212.907C492.572 216.876 496.453 219.687 500.998 219.687C502.407 219.687 503.752 219.416 504.983 218.923L505.369 219.308L508.019 221.947L509.178 220.799L493.068 204.771L491.909 205.924ZM496.935 210.919L498.339 212.315C498.298 212.51 498.271 212.704 498.271 212.907C498.271 214.404 499.494 215.619 500.998 215.619C501.202 215.619 501.398 215.592 501.589 215.552L502.993 216.948C502.388 217.247 501.716 217.427 500.998 217.427C498.489 217.427 496.453 215.402 496.453 212.907C496.453 212.193 496.635 211.524 496.935 210.919Z" fill="#454545"/>
<defs>
<filter id="filter0_d_803_858" x="0" y="0" width="632" height="361" filterUnits="userSpaceOnUse" color-interpolation-filters="sRGB">
<feFlood flood-opacity="0" result="BackgroundImageFix"/>
<feColorMatrix in="SourceAlpha" type="matrix" values="0 0 0 0 0 0 0 0 0 0 0 0 0 0 0 0 0 0 127 0" result="hardAlpha"/>
<feOffset dy="4"/>
<feGaussianBlur stdDeviation="25"/>
<feComposite in2="hardAlpha" operator="out"/>
<feColorMatrix type="matrix" values="0 0 0 0 0 0 0 0 0 0 0 0 0 0 0 0 0 0 0.1 0"/>
<feBlend mode="normal" in2="BackgroundImageFix" result="effect1_dropShadow_803_858"/>
<feBlend mode="normal" in="SourceGraphic" in2="effect1_dropShadow_803_858" result="shape"/>
</filter>
<filter id="filter1_b_803_858" x="234" y="179" width="123" height="68" filterUnits="userSpaceOnUse" color-interpolation-filters="sRGB">
<feFlood flood-opacity="0" result="BackgroundImageFix"/>
<feGaussianBlur in="BackgroundImage" stdDeviation="7.5"/>
<feComposite in2="SourceAlpha" operator="in" result="effect1_backgroundBlur_803_858"/>
<feBlend mode="normal" in="SourceGraphic" in2="effect1_backgroundBlur_803_858" result="shape"/>
</filter>
<filter id="filter2_b_803_858" x="442" y="179" width="123" height="68" filterUnits="userSpaceOnUse" color-interpolation-filters="sRGB">
<feFlood flood-opacity="0" result="BackgroundImageFix"/>
<feGaussianBlur in="BackgroundImage" stdDeviation="7.5"/>
<feComposite in2="SourceAlpha" operator="in" result="effect1_backgroundBlur_803_858"/>
<feBlend mode="normal" in="SourceGraphic" in2="effect1_backgroundBlur_803_858" result="shape"/>
</filter>
<filter id="filter3_b_803_858" x="442" y="101" width="123" height="68" filterUnits="userSpaceOnUse" color-interpolation-filters="sRGB">
<feFlood flood-opacity="0" result="BackgroundImageFix"/>
<feGaussianBlur in="BackgroundImage" stdDeviation="7.5"/>
<feComposite in2="SourceAlpha" operator="in" result="effect1_backgroundBlur_803_858"/>
<feBlend mode="normal" in="SourceGraphic" in2="effect1_backgroundBlur_803_858" result="shape"/>
</filter>
<filter id="filter4_b_803_858" x="323" y="96" width="153" height="78" filterUnits="userSpaceOnUse" color-interpolation-filters="sRGB">
<feFlood flood-opacity="0" result="BackgroundImageFix"/>
<feGaussianBlur in="BackgroundImage" stdDeviation="10"/>
<feComposite in2="SourceAlpha" operator="in" result="effect1_backgroundBlur_803_858"/>
<feBlend mode="normal" in="SourceGraphic" in2="effect1_backgroundBlur_803_858" result="shape"/>
</filter>
<filter id="filter5_b_803_858" x="323" y="135" width="153" height="78" filterUnits="userSpaceOnUse" color-interpolation-filters="sRGB">
<feFlood flood-opacity="0" result="BackgroundImageFix"/>
<feGaussianBlur in="BackgroundImage" stdDeviation="10"/>
<feComposite in2="SourceAlpha" operator="in" result="effect1_backgroundBlur_803_858"/>
<feBlend mode="normal" in="SourceGraphic" in2="effect1_backgroundBlur_803_858" result="shape"/>
</filter>
<filter id="filter6_b_803_858" x="323" y="174" width="153" height="78" filterUnits="userSpaceOnUse" color-interpolation-filters="sRGB">
<feFlood flood-opacity="0" result="BackgroundImageFix"/>
<feGaussianBlur in="BackgroundImage" stdDeviation="10"/>
<feComposite in2="SourceAlpha" operator="in" result="effect1_backgroundBlur_803_858"/>
<feBlend mode="normal" in="SourceGraphic" in2="effect1_backgroundBlur_803_858" result="shape"/>
</filter>
<filter id="filter7_b_803_858" x="323" y="213" width="153" height="78" filterUnits="userSpaceOnUse" color-interpolation-filters="sRGB">
<feFlood flood-opacity="0" result="BackgroundImageFix"/>
<feGaussianBlur in="BackgroundImage" stdDeviation="10"/>
<feComposite in2="SourceAlpha" operator="in" result="effect1_backgroundBlur_803_858"/>
<feBlend mode="normal" in="SourceGraphic" in2="effect1_backgroundBlur_803_858" result="shape"/>
</filter>
<filter id="filter8_b_803_858" x="234" y="218" width="123" height="68" filterUnits="userSpaceOnUse" color-interpolation-filters="sRGB">
<feFlood flood-opacity="0" result="BackgroundImageFix"/>
<feGaussianBlur in="BackgroundImage" stdDeviation="7.5"/>
<feComposite in2="SourceAlpha" operator="in" result="effect1_backgroundBlur_803_858"/>
<feBlend mode="normal" in="SourceGraphic" in2="effect1_backgroundBlur_803_858" result="shape"/>
</filter>
</defs>
</svg>
