<svg width="632" height="361" viewBox="0 0 632 361" fill="none" xmlns="http://www.w3.org/2000/svg">
<g filter="url(#filter0_d_803_857)">
<path d="M50 66C50 54.9543 58.9543 46 70 46H562C573.046 46 582 54.9543 582 66V287C582 298.046 573.046 307 562 307H70C58.9543 307 50 298.046 50 287V66Z" fill="white"/>
</g>
<path d="M80.5 81C80.5 78.5147 82.5147 76.5 85 76.5H248.5V115.5H80.5V81Z" fill="#F9F9FB" stroke="#DDDDE6"/>
<rect x="248.5" y="76.5" width="94" height="39" fill="#F9F9FB" stroke="#DDDDE6"/>
<path d="M342.5 76.5H456.5V115.5H342.5V76.5Z" fill="#F9F9FB" stroke="#DDDDE6"/>
<path d="M456.5 76.5H546C548.485 76.5 550.5 78.5147 550.5 81V115.5H456.5V76.5Z" fill="#F9F9FB" stroke="#DDDDE6"/>
<path d="M80.5 115.5H248.5V154.5H80.5V115.5Z" fill="white" stroke="#DDDDE6"/>
<path d="M80.5 154.5H248.5V193.5H80.5V154.5Z" fill="white" stroke="#DDDDE6"/>
<path d="M80.5 193.5H248.5V232.5H80.5V193.5Z" fill="white" stroke="#DDDDE6"/>
<path d="M80.5 232.5H248.5V271.5H80.5V232.5Z" fill="white" stroke="#DDDDE6"/>
<rect x="248.5" y="115.5" width="94" height="39" fill="white" stroke="#DDDDE6"/>
<rect x="248.5" y="154.5" width="94" height="39" fill="white" stroke="#DDDDE6"/>
<rect x="248.5" y="193.5" width="94" height="39" fill="white" stroke="#DDDDE6"/>
<rect x="248.5" y="232.5" width="94" height="39" fill="white" stroke="#DDDDE6"/>
<path d="M342.5 115.5H456.5V154.5H342.5V115.5Z" fill="white" stroke="#DDDDE6"/>
<rect x="456.5" y="115.5" width="94" height="39" fill="white" stroke="#DDDDE6"/>
<path d="M342.5 154.5H456.5V193.5H342.5V154.5Z" fill="white" stroke="#DDDDE6"/>
<rect x="456.5" y="154.5" width="94" height="39" fill="white" stroke="#DDDDE6"/>
<path d="M342.5 193.5H456.5V232.5H342.5V193.5Z" fill="white" stroke="#DDDDE6"/>
<rect x="456.5" y="193.5" width="94" height="39" fill="white" stroke="#DDDDE6"/>
<path d="M342.5 232.5H456.5V271.5H342.5V232.5Z" fill="white" stroke="#DDDDE6"/>
<rect x="456.5" y="232.5" width="94" height="39" fill="white" stroke="#DDDDE6"/>
<path d="M94.252 89.4H104.638V91.29H100.48V102H98.428V91.29H94.252V89.4ZM104.911 101.028C103.999 100.224 103.543 99.108 103.543 97.68C103.543 96.252 103.999 95.136 104.911 94.332C105.835 93.528 106.939 93.126 108.223 93.126C109.519 93.126 110.623 93.528 111.535 94.332C112.447 95.136 112.903 96.252 112.903 97.68C112.903 99.108 112.447 100.224 111.535 101.028C110.623 101.832 109.519 102.234 108.223 102.234C106.939 102.234 105.835 101.832 104.911 101.028ZM110.185 99.714C110.689 99.198 110.941 98.52 110.941 97.68C110.941 96.84 110.689 96.168 110.185 95.664C109.681 95.148 109.027 94.89 108.223 94.89C107.407 94.89 106.747 95.148 106.243 95.664C105.739 96.168 105.487 96.84 105.487 97.68C105.487 98.52 105.739 99.198 106.243 99.714C106.747 100.218 107.407 100.47 108.223 100.47C109.027 100.47 109.681 100.218 110.185 99.714ZM119.846 102H114.77V93.36H119.702C120.554 93.36 121.22 93.576 121.7 94.008C122.192 94.428 122.438 94.98 122.438 95.664C122.438 96.612 122.03 97.266 121.214 97.626C121.646 97.758 122 97.998 122.276 98.346C122.552 98.694 122.69 99.12 122.69 99.624C122.69 100.332 122.45 100.908 121.97 101.352C121.502 101.784 120.794 102 119.846 102ZM116.696 98.328V100.542H119.378C120.29 100.542 120.746 100.176 120.746 99.444C120.746 98.7 120.302 98.328 119.414 98.328H116.696ZM116.696 94.818V96.96H119.27C120.086 96.96 120.494 96.612 120.494 95.916C120.494 95.532 120.374 95.256 120.134 95.088C119.906 94.908 119.618 94.818 119.27 94.818H116.696ZM131.994 100.002C131.994 100.422 132.204 100.632 132.624 100.632C132.768 100.632 132.96 100.596 133.2 100.524V101.91C132.84 102.054 132.432 102.126 131.976 102.126C131.112 102.126 130.536 101.79 130.248 101.118C129.324 101.862 128.238 102.234 126.99 102.234C126.15 102.234 125.436 102.006 124.848 101.55C124.26 101.082 123.966 100.428 123.966 99.588C123.966 98.58 124.344 97.848 125.1 97.392C125.856 96.924 126.762 96.69 127.818 96.69C128.514 96.69 129.264 96.774 130.068 96.942V96.636C130.068 96.084 129.87 95.64 129.474 95.304C129.078 94.968 128.52 94.8 127.8 94.8C126.732 94.8 125.694 95.022 124.686 95.466V93.702C125.814 93.318 126.918 93.126 127.998 93.126C129.258 93.126 130.236 93.438 130.932 94.062C131.64 94.686 131.994 95.634 131.994 96.906V100.002ZM128.196 98.04C127.56 98.04 127.026 98.154 126.594 98.382C126.162 98.61 125.946 98.97 125.946 99.462C125.946 99.87 126.102 100.188 126.414 100.416C126.726 100.632 127.11 100.74 127.566 100.74C128.55 100.74 129.384 100.398 130.068 99.714V98.256C129.372 98.112 128.748 98.04 128.196 98.04ZM136.361 94.71C137.237 93.654 138.347 93.126 139.691 93.126C140.963 93.126 141.995 93.57 142.787 94.458C143.579 95.334 143.975 96.408 143.975 97.68C143.975 98.952 143.579 100.032 142.787 100.92C141.995 101.796 140.963 102.234 139.691 102.234C138.395 102.234 137.357 101.784 136.577 100.884V105.96H134.651V93.36H136.361V94.71ZM141.257 99.75C141.761 99.21 142.013 98.52 142.013 97.68C142.013 96.84 141.761 96.156 141.257 95.628C140.753 95.088 140.111 94.818 139.331 94.818C138.695 94.818 138.131 94.992 137.639 95.34C137.159 95.688 136.805 96.114 136.577 96.618V98.724C136.805 99.24 137.159 99.672 137.639 100.02C138.131 100.368 138.695 100.542 139.331 100.542C140.111 100.542 140.753 100.278 141.257 99.75ZM150.133 102H145.849V93.36H147.775V96.24H150.133C151.189 96.24 152.023 96.51 152.635 97.05C153.247 97.59 153.553 98.28 153.553 99.12C153.553 99.96 153.247 100.65 152.635 101.19C152.023 101.73 151.189 102 150.133 102ZM147.775 97.752V100.47H149.755C150.331 100.47 150.781 100.356 151.105 100.128C151.429 99.888 151.591 99.552 151.591 99.12C151.591 98.676 151.429 98.34 151.105 98.112C150.781 97.872 150.331 97.752 149.755 97.752H147.775ZM157.027 102H155.101V93.36H157.027V102Z" fill="#454545"/>
<path d="M107.837 127.4H109.133V140H107.621V130.262L103.103 137.03H102.167L97.6494 130.262V140H96.1374V127.4H97.4334L102.635 135.176L107.837 127.4ZM112.707 139.01C111.795 138.194 111.339 137.084 111.339 135.68C111.339 134.276 111.795 133.172 112.707 132.368C113.619 131.552 114.699 131.144 115.947 131.144C117.207 131.144 118.287 131.552 119.187 132.368C120.099 133.172 120.555 134.276 120.555 135.68C120.555 137.084 120.099 138.194 119.187 139.01C118.287 139.814 117.207 140.216 115.947 140.216C114.699 140.216 113.619 139.814 112.707 139.01ZM118.215 138.002C118.815 137.426 119.115 136.652 119.115 135.68C119.115 134.708 118.815 133.94 118.215 133.376C117.615 132.8 116.859 132.512 115.947 132.512C115.035 132.512 114.279 132.8 113.679 133.376C113.079 133.94 112.779 134.708 112.779 135.68C112.779 136.652 113.079 137.426 113.679 138.002C114.279 138.566 115.035 138.848 115.947 138.848C116.859 138.848 117.615 138.566 118.215 138.002ZM129.118 129.272C128.41 129.776 127.57 130.028 126.598 130.028C125.626 130.028 124.786 129.776 124.078 129.272V127.976C124.882 128.504 125.722 128.768 126.598 128.768C127.474 128.768 128.314 128.504 129.118 127.976V129.272ZM123.844 140H122.62V131.36H124.06V137.678L129.352 131.36H130.576V140H129.136V133.682L123.844 140ZM141.32 140H139.88V132.692H136.694V131.36H144.488V132.692H141.32V140ZM146.615 139.01C145.703 138.194 145.247 137.084 145.247 135.68C145.247 134.276 145.703 133.172 146.615 132.368C147.527 131.552 148.607 131.144 149.855 131.144C151.115 131.144 152.195 131.552 153.095 132.368C154.007 133.172 154.463 134.276 154.463 135.68C154.463 137.084 154.007 138.194 153.095 139.01C152.195 139.814 151.115 140.216 149.855 140.216C148.607 140.216 147.527 139.814 146.615 139.01ZM152.123 138.002C152.723 137.426 153.023 136.652 153.023 135.68C153.023 134.708 152.723 133.94 152.123 133.376C151.523 132.8 150.767 132.512 149.855 132.512C148.943 132.512 148.187 132.8 147.587 133.376C146.987 133.94 146.687 134.708 146.687 135.68C146.687 136.652 146.987 137.426 147.587 138.002C148.187 138.566 148.943 138.848 149.855 138.848C150.767 138.848 151.523 138.566 152.123 138.002ZM161.406 140H156.528V131.36H161.262C162.042 131.36 162.678 131.564 163.17 131.972C163.674 132.38 163.926 132.956 163.926 133.7C163.926 134.132 163.818 134.522 163.602 134.87C163.386 135.218 163.11 135.464 162.774 135.608C163.17 135.74 163.506 135.98 163.782 136.328C164.058 136.676 164.196 137.102 164.196 137.606C164.196 138.338 163.956 138.92 163.476 139.352C163.008 139.784 162.318 140 161.406 140ZM157.968 136.256V138.74H161.208C162.24 138.74 162.756 138.332 162.756 137.516C162.756 136.676 162.258 136.256 161.262 136.256H157.968ZM157.968 132.62V135.014H161.118C162.018 135.014 162.468 134.624 162.468 133.844C162.468 133.4 162.336 133.088 162.072 132.908C161.808 132.716 161.49 132.62 161.118 132.62H157.968ZM173.41 138.2C173.41 138.644 173.632 138.866 174.076 138.866C174.268 138.866 174.49 138.824 174.742 138.74V139.91C174.382 140.042 174.022 140.108 173.662 140.108C172.834 140.108 172.306 139.76 172.078 139.064C171.154 139.832 170.032 140.216 168.712 140.216C167.872 140.216 167.152 139.994 166.552 139.55C165.964 139.094 165.67 138.44 165.67 137.588C165.67 136.568 166.048 135.83 166.804 135.374C167.572 134.906 168.496 134.672 169.576 134.672C170.368 134.672 171.166 134.762 171.97 134.942V134.636C171.97 133.976 171.754 133.454 171.322 133.07C170.89 132.674 170.284 132.476 169.504 132.476C168.412 132.476 167.362 132.692 166.354 133.124V131.72C167.482 131.336 168.58 131.144 169.648 131.144C170.824 131.144 171.742 131.462 172.402 132.098C173.074 132.722 173.41 133.628 173.41 134.816V138.2ZM167.146 137.516C167.146 137.996 167.326 138.362 167.686 138.614C168.058 138.854 168.502 138.974 169.018 138.974C170.206 138.974 171.19 138.554 171.97 137.714V136.13C171.154 135.962 170.422 135.878 169.774 135.878C169.042 135.878 168.418 136.01 167.902 136.274C167.398 136.526 167.146 136.94 167.146 137.516ZM177.582 132.8C178.554 131.696 179.718 131.144 181.074 131.144C182.31 131.144 183.336 131.576 184.152 132.44C184.98 133.304 185.394 134.384 185.394 135.68C185.394 136.976 184.98 138.056 184.152 138.92C183.336 139.784 182.31 140.216 181.074 140.216C179.706 140.216 178.59 139.712 177.726 138.704V143.96H176.286V131.36H177.582V132.8ZM183.072 138.002C183.66 137.414 183.954 136.64 183.954 135.68C183.954 134.72 183.66 133.946 183.072 133.358C182.496 132.77 181.776 132.476 180.912 132.476C180.18 132.476 179.532 132.68 178.968 133.088C178.404 133.496 177.99 134 177.726 134.6V136.76C177.99 137.36 178.404 137.864 178.968 138.272C179.532 138.68 180.18 138.884 180.912 138.884C181.776 138.884 182.496 138.59 183.072 138.002ZM192.38 140H190.742L196.232 127.4H197.906L203.378 140H201.758L200.462 136.958H193.676L192.38 140ZM196.862 129.434L194.27 135.554H199.868L197.258 129.434C197.234 129.374 197.168 129.212 197.06 128.948C196.952 129.224 196.886 129.386 196.862 129.434Z" fill="#454545"/>
<path d="M109.566 166.4H110.862V179H109.35V169.262L104.832 176.03H103.896L99.378 169.262V179H97.866V166.4H99.162L104.364 174.176L109.566 166.4ZM114.435 178.01C113.523 177.194 113.067 176.084 113.067 174.68C113.067 173.276 113.523 172.172 114.435 171.368C115.347 170.552 116.427 170.144 117.675 170.144C118.935 170.144 120.015 170.552 120.915 171.368C121.827 172.172 122.283 173.276 122.283 174.68C122.283 176.084 121.827 177.194 120.915 178.01C120.015 178.814 118.935 179.216 117.675 179.216C116.427 179.216 115.347 178.814 114.435 178.01ZM119.943 177.002C120.543 176.426 120.843 175.652 120.843 174.68C120.843 173.708 120.543 172.94 119.943 172.376C119.343 171.8 118.587 171.512 117.675 171.512C116.763 171.512 116.007 171.8 115.407 172.376C114.807 172.94 114.507 173.708 114.507 174.68C114.507 175.652 114.807 176.426 115.407 177.002C116.007 177.566 116.763 177.848 117.675 177.848C118.587 177.848 119.343 177.566 119.943 177.002ZM130.847 168.272C130.139 168.776 129.299 169.028 128.327 169.028C127.355 169.028 126.515 168.776 125.807 168.272V166.976C126.611 167.504 127.451 167.768 128.327 167.768C129.203 167.768 130.043 167.504 130.847 166.976V168.272ZM125.573 179H124.349V170.36H125.789V176.678L131.081 170.36H132.305V179H130.865V172.682L125.573 179ZM143.048 179H141.608V171.692H138.422V170.36H146.216V171.692H143.048V179ZM148.343 178.01C147.431 177.194 146.975 176.084 146.975 174.68C146.975 173.276 147.431 172.172 148.343 171.368C149.255 170.552 150.335 170.144 151.583 170.144C152.843 170.144 153.923 170.552 154.823 171.368C155.735 172.172 156.191 173.276 156.191 174.68C156.191 176.084 155.735 177.194 154.823 178.01C153.923 178.814 152.843 179.216 151.583 179.216C150.335 179.216 149.255 178.814 148.343 178.01ZM153.851 177.002C154.451 176.426 154.751 175.652 154.751 174.68C154.751 173.708 154.451 172.94 153.851 172.376C153.251 171.8 152.495 171.512 151.583 171.512C150.671 171.512 149.915 171.8 149.315 172.376C148.715 172.94 148.415 173.708 148.415 174.68C148.415 175.652 148.715 176.426 149.315 177.002C149.915 177.566 150.671 177.848 151.583 177.848C152.495 177.848 153.251 177.566 153.851 177.002ZM163.135 179H158.257V170.36H162.991C163.771 170.36 164.407 170.564 164.899 170.972C165.403 171.38 165.655 171.956 165.655 172.7C165.655 173.132 165.547 173.522 165.331 173.87C165.115 174.218 164.839 174.464 164.503 174.608C164.899 174.74 165.235 174.98 165.511 175.328C165.787 175.676 165.925 176.102 165.925 176.606C165.925 177.338 165.685 177.92 165.205 178.352C164.737 178.784 164.047 179 163.135 179ZM159.697 175.256V177.74H162.937C163.969 177.74 164.485 177.332 164.485 176.516C164.485 175.676 163.987 175.256 162.991 175.256H159.697ZM159.697 171.62V174.014H162.847C163.747 174.014 164.197 173.624 164.197 172.844C164.197 172.4 164.065 172.088 163.801 171.908C163.537 171.716 163.219 171.62 162.847 171.62H159.697ZM175.138 177.2C175.138 177.644 175.36 177.866 175.804 177.866C175.996 177.866 176.218 177.824 176.47 177.74V178.91C176.11 179.042 175.75 179.108 175.39 179.108C174.562 179.108 174.034 178.76 173.806 178.064C172.882 178.832 171.76 179.216 170.44 179.216C169.6 179.216 168.88 178.994 168.28 178.55C167.692 178.094 167.398 177.44 167.398 176.588C167.398 175.568 167.776 174.83 168.532 174.374C169.3 173.906 170.224 173.672 171.304 173.672C172.096 173.672 172.894 173.762 173.698 173.942V173.636C173.698 172.976 173.482 172.454 173.05 172.07C172.618 171.674 172.012 171.476 171.232 171.476C170.14 171.476 169.09 171.692 168.082 172.124V170.72C169.21 170.336 170.308 170.144 171.376 170.144C172.552 170.144 173.47 170.462 174.13 171.098C174.802 171.722 175.138 172.628 175.138 173.816V177.2ZM168.874 176.516C168.874 176.996 169.054 177.362 169.414 177.614C169.786 177.854 170.23 177.974 170.746 177.974C171.934 177.974 172.918 177.554 173.698 176.714V175.13C172.882 174.962 172.15 174.878 171.502 174.878C170.77 174.878 170.146 175.01 169.63 175.274C169.126 175.526 168.874 175.94 168.874 176.516ZM179.311 171.8C180.283 170.696 181.447 170.144 182.803 170.144C184.039 170.144 185.065 170.576 185.881 171.44C186.709 172.304 187.123 173.384 187.123 174.68C187.123 175.976 186.709 177.056 185.881 177.92C185.065 178.784 184.039 179.216 182.803 179.216C181.435 179.216 180.319 178.712 179.455 177.704V182.96H178.015V170.36H179.311V171.8ZM184.801 177.002C185.389 176.414 185.683 175.64 185.683 174.68C185.683 173.72 185.389 172.946 184.801 172.358C184.225 171.77 183.505 171.476 182.641 171.476C181.909 171.476 181.261 171.68 180.697 172.088C180.133 172.496 179.719 173 179.455 173.6V175.76C179.719 176.36 180.133 176.864 180.697 177.272C181.261 177.68 181.909 177.884 182.641 177.884C183.505 177.884 184.225 177.59 184.801 177.002ZM194.001 166.4H199.167C200.487 166.4 201.531 166.676 202.299 167.228C203.067 167.768 203.451 168.554 203.451 169.586C203.451 170.33 203.253 170.942 202.857 171.422C202.461 171.89 201.987 172.208 201.435 172.376C202.107 172.556 202.695 172.904 203.199 173.42C203.703 173.924 203.955 174.632 203.955 175.544C203.955 176.096 203.847 176.582 203.631 177.002C203.427 177.422 203.163 177.758 202.839 178.01C202.527 178.25 202.155 178.448 201.723 178.604C201.303 178.76 200.895 178.868 200.499 178.928C200.115 178.976 199.719 179 199.311 179H194.001V166.4ZM202.425 175.382C202.425 173.93 201.423 173.204 199.419 173.204H195.513V177.56H199.005C199.389 177.56 199.713 177.554 199.977 177.542C200.241 177.518 200.541 177.47 200.877 177.398C201.213 177.314 201.483 177.2 201.687 177.056C201.891 176.9 202.065 176.684 202.209 176.408C202.353 176.12 202.425 175.778 202.425 175.382ZM201.921 169.802C201.921 169.094 201.675 168.59 201.183 168.29C200.703 167.99 199.989 167.84 199.041 167.84H195.513V171.764H199.455C200.175 171.764 200.763 171.608 201.219 171.296C201.687 170.972 201.921 170.474 201.921 169.802Z" fill="#454545"/>
<path d="M98.9945 218H97.3565L102.846 205.4H104.52L109.992 218H108.372L107.076 214.958H100.29L98.9945 218ZM103.476 207.434L100.884 213.554H106.482L103.872 207.434C103.848 207.374 103.782 207.212 103.674 206.948C103.566 207.224 103.5 207.386 103.476 207.434ZM112.905 218H111.465V209.36H112.905V213.014H117.909V209.36H119.349V218H117.909V214.346H112.905V218ZM129.032 216.2C129.032 216.644 129.254 216.866 129.698 216.866C129.89 216.866 130.112 216.824 130.364 216.74V217.91C130.004 218.042 129.644 218.108 129.284 218.108C128.456 218.108 127.928 217.76 127.7 217.064C126.776 217.832 125.654 218.216 124.334 218.216C123.494 218.216 122.774 217.994 122.174 217.55C121.586 217.094 121.292 216.44 121.292 215.588C121.292 214.568 121.67 213.83 122.426 213.374C123.194 212.906 124.118 212.672 125.198 212.672C125.99 212.672 126.788 212.762 127.592 212.942V212.636C127.592 211.976 127.376 211.454 126.944 211.07C126.512 210.674 125.906 210.476 125.126 210.476C124.034 210.476 122.984 210.692 121.976 211.124V209.72C123.104 209.336 124.202 209.144 125.27 209.144C126.446 209.144 127.364 209.462 128.024 210.098C128.696 210.722 129.032 211.628 129.032 212.816V216.2ZM122.768 215.516C122.768 215.996 122.948 216.362 123.308 216.614C123.68 216.854 124.124 216.974 124.64 216.974C125.828 216.974 126.812 216.554 127.592 215.714V214.13C126.776 213.962 126.044 213.878 125.396 213.878C124.664 213.878 124.04 214.01 123.524 214.274C123.02 214.526 122.768 214.94 122.768 215.516ZM134.968 210.692C134.908 211.64 134.836 212.468 134.752 213.176C134.668 213.884 134.548 214.568 134.392 215.228C134.236 215.876 134.044 216.404 133.816 216.812C133.6 217.22 133.324 217.544 132.988 217.784C132.652 218.024 132.268 218.144 131.836 218.144C131.488 218.144 131.14 218.078 130.792 217.946V216.812C130.984 216.884 131.176 216.92 131.368 216.92C132.088 216.92 132.61 216.29 132.934 215.03C133.27 213.758 133.48 211.868 133.564 209.36H139.918V218H138.478V210.692H134.968ZM143.352 217.01C142.44 216.194 141.984 215.084 141.984 213.68C141.984 212.276 142.44 211.172 143.352 210.368C144.264 209.552 145.344 209.144 146.592 209.144C147.852 209.144 148.932 209.552 149.832 210.368C150.744 211.172 151.2 212.276 151.2 213.68C151.2 215.084 150.744 216.194 149.832 217.01C148.932 217.814 147.852 218.216 146.592 218.216C145.344 218.216 144.264 217.814 143.352 217.01ZM148.86 216.002C149.46 215.426 149.76 214.652 149.76 213.68C149.76 212.708 149.46 211.94 148.86 211.376C148.26 210.8 147.504 210.512 146.592 210.512C145.68 210.512 144.924 210.8 144.324 211.376C143.724 211.94 143.424 212.708 143.424 213.68C143.424 214.652 143.724 215.426 144.324 216.002C144.924 216.566 145.68 216.848 146.592 216.848C147.504 216.848 148.26 216.566 148.86 216.002ZM154.706 218H153.266V209.36H159.584V210.692H154.706V218ZM166.004 218H164.204L169.082 211.52L164.474 205.4H166.274L169.982 210.314L173.672 205.4H175.472L170.882 211.52L175.742 218H173.942L169.982 212.726L166.004 218Z" fill="#454545"/>
<path d="M98.1351 257H96.4971L101.987 244.4H103.661L109.133 257H107.513L106.217 253.958H99.4311L98.1351 257ZM102.617 246.434L100.025 252.554H105.623L103.013 246.434C102.989 246.374 102.923 246.212 102.815 245.948C102.707 246.224 102.641 246.386 102.617 246.434ZM112.045 257H110.605V248.36H112.045V252.014H117.049V248.36H118.489V257H117.049V253.346H112.045V257ZM128.172 255.2C128.172 255.644 128.394 255.866 128.838 255.866C129.03 255.866 129.252 255.824 129.504 255.74V256.91C129.144 257.042 128.784 257.108 128.424 257.108C127.596 257.108 127.068 256.76 126.84 256.064C125.916 256.832 124.794 257.216 123.474 257.216C122.634 257.216 121.914 256.994 121.314 256.55C120.726 256.094 120.432 255.44 120.432 254.588C120.432 253.568 120.81 252.83 121.566 252.374C122.334 251.906 123.258 251.672 124.338 251.672C125.13 251.672 125.928 251.762 126.732 251.942V251.636C126.732 250.976 126.516 250.454 126.084 250.07C125.652 249.674 125.046 249.476 124.266 249.476C123.174 249.476 122.124 249.692 121.116 250.124V248.72C122.244 248.336 123.342 248.144 124.41 248.144C125.586 248.144 126.504 248.462 127.164 249.098C127.836 249.722 128.172 250.628 128.172 251.816V255.2ZM121.908 254.516C121.908 254.996 122.088 255.362 122.448 255.614C122.82 255.854 123.264 255.974 123.78 255.974C124.968 255.974 125.952 255.554 126.732 254.714V253.13C125.916 252.962 125.184 252.878 124.536 252.878C123.804 252.878 123.18 253.01 122.664 253.274C122.16 253.526 121.908 253.94 121.908 254.516ZM134.109 249.692C134.049 250.64 133.977 251.468 133.893 252.176C133.809 252.884 133.689 253.568 133.533 254.228C133.377 254.876 133.185 255.404 132.957 255.812C132.741 256.22 132.465 256.544 132.129 256.784C131.793 257.024 131.409 257.144 130.977 257.144C130.629 257.144 130.281 257.078 129.933 256.946V255.812C130.125 255.884 130.317 255.92 130.509 255.92C131.229 255.92 131.751 255.29 132.075 254.03C132.411 252.758 132.621 250.868 132.705 248.36H139.059V257H137.619V249.692H134.109ZM142.493 256.01C141.581 255.194 141.125 254.084 141.125 252.68C141.125 251.276 141.581 250.172 142.493 249.368C143.405 248.552 144.485 248.144 145.733 248.144C146.993 248.144 148.073 248.552 148.973 249.368C149.885 250.172 150.341 251.276 150.341 252.68C150.341 254.084 149.885 255.194 148.973 256.01C148.073 256.814 146.993 257.216 145.733 257.216C144.485 257.216 143.405 256.814 142.493 256.01ZM148.001 255.002C148.601 254.426 148.901 253.652 148.901 252.68C148.901 251.708 148.601 250.94 148.001 250.376C147.401 249.8 146.645 249.512 145.733 249.512C144.821 249.512 144.065 249.8 143.465 250.376C142.865 250.94 142.565 251.708 142.565 252.68C142.565 253.652 142.865 254.426 143.465 255.002C144.065 255.566 144.821 255.848 145.733 255.848C146.645 255.848 147.401 255.566 148.001 255.002ZM153.846 257H152.406V248.36H158.724V249.692H153.846V257ZM169.476 257H167.964V252.23L163.014 244.4H164.688L168.72 250.88L172.752 244.4H174.426L169.476 252.23V257Z" fill="#454545"/>
<path d="M285.998 104.862H284.126L284.144 102H273.794V89.4H275.846V100.092H282.362V89.4H284.414V100.092H285.998V104.862ZM286.975 97.68C286.975 96.936 287.107 96.264 287.371 95.664C287.635 95.052 287.983 94.572 288.415 94.224C288.847 93.864 289.315 93.594 289.819 93.414C290.323 93.222 290.833 93.126 291.349 93.126C292.009 93.126 292.603 93.228 293.131 93.432C293.671 93.636 294.103 93.912 294.427 94.26C294.751 94.608 295.015 95.01 295.219 95.466C295.423 95.922 295.531 96.402 295.543 96.906C295.555 97.398 295.513 97.896 295.417 98.4H288.919C289.015 99.132 289.375 99.684 289.999 100.056C290.623 100.416 291.367 100.596 292.231 100.596C293.215 100.596 294.127 100.392 294.967 99.984V101.64C294.139 102.036 293.107 102.234 291.871 102.234C290.467 102.234 289.297 101.838 288.361 101.046C287.437 100.254 286.975 99.132 286.975 97.68ZM293.689 96.96C293.761 96.468 293.611 95.976 293.239 95.484C292.879 94.98 292.279 94.728 291.439 94.728C290.755 94.728 290.167 94.926 289.675 95.322C289.195 95.718 288.937 96.264 288.901 96.96H293.689ZM299.267 102H297.341V93.36H299.267V96.834H303.587V93.36H305.513V102H303.587V98.526H299.267V102ZM315.285 100.002C315.285 100.422 315.495 100.632 315.915 100.632C316.059 100.632 316.251 100.596 316.491 100.524V101.91C316.131 102.054 315.723 102.126 315.267 102.126C314.403 102.126 313.827 101.79 313.539 101.118C312.615 101.862 311.529 102.234 310.281 102.234C309.441 102.234 308.727 102.006 308.139 101.55C307.551 101.082 307.257 100.428 307.257 99.588C307.257 98.58 307.635 97.848 308.391 97.392C309.147 96.924 310.053 96.69 311.109 96.69C311.805 96.69 312.555 96.774 313.359 96.942V96.636C313.359 96.084 313.161 95.64 312.765 95.304C312.369 94.968 311.811 94.8 311.091 94.8C310.023 94.8 308.985 95.022 307.977 95.466V93.702C309.105 93.318 310.209 93.126 311.289 93.126C312.549 93.126 313.527 93.438 314.223 94.062C314.931 94.686 315.285 95.634 315.285 96.906V100.002ZM311.487 98.04C310.851 98.04 310.317 98.154 309.885 98.382C309.453 98.61 309.237 98.97 309.237 99.462C309.237 99.87 309.393 100.188 309.705 100.416C310.017 100.632 310.401 100.74 310.857 100.74C311.841 100.74 312.675 100.398 313.359 99.714V98.256C312.663 98.112 312.039 98.04 311.487 98.04Z" fill="#454545"/>
<path d="M366.725 89.4H371.225C374.813 89.4 376.607 90.78 376.607 93.54C376.607 96.3 374.813 97.68 371.225 97.68H368.777V102H366.725V89.4ZM373.655 95.322C374.231 94.986 374.519 94.392 374.519 93.54C374.519 92.688 374.231 92.1 373.655 91.776C373.091 91.44 372.317 91.272 371.333 91.272H368.777V95.808H371.333C372.317 95.808 373.091 95.646 373.655 95.322ZM377.393 97.68C377.393 96.936 377.525 96.264 377.789 95.664C378.053 95.052 378.401 94.572 378.833 94.224C379.265 93.864 379.733 93.594 380.237 93.414C380.741 93.222 381.251 93.126 381.767 93.126C382.427 93.126 383.021 93.228 383.549 93.432C384.089 93.636 384.521 93.912 384.845 94.26C385.169 94.608 385.433 95.01 385.637 95.466C385.841 95.922 385.949 96.402 385.961 96.906C385.973 97.398 385.931 97.896 385.835 98.4H379.337C379.433 99.132 379.793 99.684 380.417 100.056C381.041 100.416 381.785 100.596 382.649 100.596C383.633 100.596 384.545 100.392 385.385 99.984V101.64C384.557 102.036 383.525 102.234 382.289 102.234C380.885 102.234 379.715 101.838 378.779 101.046C377.855 100.254 377.393 99.132 377.393 97.68ZM384.107 96.96C384.179 96.468 384.029 95.976 383.657 95.484C383.297 94.98 382.697 94.728 381.857 94.728C381.173 94.728 380.585 94.926 380.093 95.322C379.613 95.718 379.355 96.264 379.319 96.96H384.107ZM394.491 91.416C393.771 91.908 392.895 92.154 391.863 92.154C390.831 92.154 389.955 91.908 389.235 91.416V89.85C390.039 90.354 390.915 90.606 391.863 90.606C392.811 90.606 393.687 90.354 394.491 89.85V91.416ZM389.415 102H387.759V93.36H389.685V99.012L394.311 93.36H395.967V102H394.041V96.348L389.415 102ZM402.39 102H400.464V95.052H397.476V93.36H405.36V95.052H402.39V102ZM408.522 102H406.866V93.36H408.792V99.012L413.418 93.36H415.074V102H413.148V96.348L408.522 102ZM419.409 102H417.483V93.36H419.409V96.834H423.729V93.36H425.655V102H423.729V98.526H419.409V102ZM429.991 102H428.065V93.36H434.509V95.052H429.991V102Z" fill="#454545"/>
<path d="M477.785 102H475.607L480.935 89.4H483.185L488.495 102H486.335L485.219 99.282H478.901L477.785 102ZM481.817 92.1L479.603 97.482H484.499L482.285 92.1C482.189 91.836 482.111 91.602 482.051 91.398C481.991 91.602 481.913 91.836 481.817 92.1ZM491.727 102H489.801V93.36H491.727V96.78H493.149L495.633 93.36H497.829L494.697 97.644L498.171 102H495.957L493.113 98.418H491.727V102ZM508.704 104.322H506.886V102H499.434V93.36H501.36V100.308H505.482V93.36H507.408V100.344H508.704V104.322ZM512.129 102H510.473V93.36H512.399V99.012L517.025 93.36H518.681V102H516.755V96.348L512.129 102ZM522.746 102H521.09V93.36H523.016V99.012L527.642 93.36H529.298V102H527.372V96.348L522.746 102Z" fill="#454545"/>
<path d="M276.108 127.76H277.224V138.56H279.51V140H273.138V138.56H275.712V129.362L273.138 130.334V128.894L276.108 127.76ZM285.624 128.732C286.764 127.94 288.072 127.544 289.548 127.544C290.82 127.544 291.834 127.832 292.59 128.408C293.346 128.984 293.724 129.788 293.724 130.82C293.724 131.312 293.628 131.774 293.436 132.206C293.256 132.638 292.98 133.034 292.608 133.394C292.248 133.754 291.894 134.06 291.546 134.312C291.21 134.552 290.784 134.822 290.268 135.122C290.208 135.158 290.022 135.266 289.71 135.446C289.41 135.626 289.218 135.74 289.134 135.788C289.062 135.836 288.894 135.944 288.63 136.112C288.378 136.268 288.21 136.382 288.126 136.454C288.054 136.526 287.922 136.64 287.73 136.796C287.55 136.952 287.424 137.084 287.352 137.192C287.292 137.3 287.208 137.438 287.1 137.606C287.004 137.762 286.938 137.918 286.902 138.074C286.866 138.23 286.848 138.398 286.848 138.578L293.814 138.56V140H285.192V139.28C285.192 138.608 285.3 138.002 285.516 137.462C285.732 136.91 286.038 136.442 286.434 136.058C286.842 135.662 287.244 135.332 287.64 135.068C288.036 134.792 288.498 134.498 289.026 134.186C289.146 134.126 289.236 134.078 289.296 134.042C290.388 133.406 291.102 132.92 291.438 132.584C291.954 132.056 292.212 131.462 292.212 130.802C292.212 130.202 291.966 129.746 291.474 129.434C290.994 129.11 290.31 128.948 289.422 128.948C288.126 128.948 286.86 129.38 285.624 130.244V128.732ZM296.428 127.76H303.772V129.2H297.85L297.634 132.656C298.282 132.476 298.978 132.386 299.722 132.386C300.334 132.386 300.904 132.458 301.432 132.602C301.96 132.734 302.446 132.95 302.89 133.25C303.346 133.538 303.706 133.946 303.97 134.474C304.234 134.99 304.366 135.602 304.366 136.31C304.366 137.522 303.916 138.476 303.016 139.172C302.128 139.868 300.994 140.216 299.614 140.216C298.126 140.216 296.818 139.94 295.69 139.388V137.948C296.77 138.524 298.018 138.812 299.434 138.812C300.466 138.812 301.288 138.596 301.9 138.164C302.524 137.732 302.836 137.114 302.836 136.31C302.836 134.606 301.624 133.754 299.2 133.754C298.144 133.754 297.088 133.946 296.032 134.33L296.428 127.76ZM307.446 138.47C306.534 137.306 306.078 135.776 306.078 133.88C306.078 131.984 306.534 130.454 307.446 129.29C308.358 128.126 309.702 127.544 311.478 127.544C313.266 127.544 314.616 128.126 315.528 129.29C316.44 130.442 316.896 131.972 316.896 133.88C316.896 135.788 316.44 137.324 315.528 138.488C314.616 139.64 313.266 140.216 311.478 140.216C309.702 140.216 308.358 139.634 307.446 138.47ZM314.394 137.516C315.042 136.664 315.366 135.452 315.366 133.88C315.366 132.308 315.042 131.102 314.394 130.262C313.758 129.41 312.786 128.984 311.478 128.984C310.17 128.984 309.198 129.41 308.562 130.262C307.926 131.102 307.608 132.308 307.608 133.88C307.608 135.452 307.926 136.664 308.562 137.516C309.198 138.356 310.17 138.776 311.478 138.776C312.786 138.776 313.758 138.356 314.394 137.516Z" fill="#454545"/>
<path d="M275.07 166.76H276.186V177.56H278.472V179H272.1V177.56H274.674V168.362L272.1 169.334V167.894L275.07 166.76ZM285.829 172.538C286.993 171.758 288.271 171.368 289.663 171.368C290.779 171.368 291.757 171.71 292.597 172.394C293.437 173.066 293.857 174.002 293.857 175.202C293.857 176.462 293.437 177.446 292.597 178.154C291.769 178.862 290.725 179.216 289.465 179.216C287.737 179.216 286.441 178.682 285.577 177.614C284.725 176.534 284.299 175.022 284.299 173.078C284.299 170.918 284.809 169.292 285.829 168.2C286.861 167.096 288.205 166.544 289.861 166.544C290.929 166.544 291.919 166.778 292.831 167.246V168.686C291.943 168.218 290.965 167.984 289.897 167.984C288.769 167.984 287.827 168.35 287.071 169.082C286.327 169.802 285.913 170.954 285.829 172.538ZM285.847 174.05C286.075 176.558 287.245 177.812 289.357 177.812C290.245 177.812 290.959 177.608 291.499 177.2C292.051 176.792 292.327 176.15 292.327 175.274C292.327 174.386 292.045 173.75 291.481 173.366C290.917 172.97 290.185 172.772 289.285 172.772C287.953 172.772 286.807 173.198 285.847 174.05ZM295.857 169.712C295.857 168.848 296.235 168.104 296.991 167.48C297.747 166.856 298.857 166.544 300.321 166.544C301.677 166.544 302.769 166.874 303.597 167.534C304.425 168.194 304.851 168.986 304.875 169.91C304.911 171.17 304.353 172.202 303.201 173.006C304.605 173.702 305.307 174.662 305.307 175.886C305.307 176.822 304.893 177.614 304.065 178.262C303.249 178.898 302.037 179.216 300.429 179.216C298.833 179.216 297.597 178.868 296.721 178.172C295.857 177.476 295.425 176.63 295.425 175.634C295.425 175.034 295.599 174.44 295.947 173.852C296.307 173.252 296.829 172.748 297.513 172.34C296.409 171.668 295.857 170.792 295.857 169.712ZM300.501 173.492C299.877 173.324 299.307 173.144 298.791 172.952C298.191 173.24 297.729 173.612 297.405 174.068C297.093 174.524 296.937 174.992 296.937 175.472C296.937 176.204 297.237 176.78 297.837 177.2C298.449 177.608 299.325 177.812 300.465 177.812C301.425 177.812 302.217 177.644 302.841 177.308C303.477 176.96 303.795 176.51 303.795 175.958C303.795 175.49 303.627 175.094 303.291 174.77C302.967 174.434 302.649 174.206 302.337 174.086C302.025 173.966 301.509 173.798 300.789 173.582C300.657 173.546 300.561 173.516 300.501 173.492ZM303.363 170.18C303.363 169.544 303.093 169.016 302.553 168.596C302.013 168.164 301.257 167.948 300.285 167.948C299.397 167.948 298.689 168.116 298.161 168.452C297.633 168.776 297.369 169.19 297.369 169.694C297.369 170.042 297.441 170.348 297.585 170.612C297.741 170.864 297.969 171.08 298.269 171.26C298.581 171.428 298.863 171.566 299.115 171.674C299.367 171.77 299.703 171.878 300.123 171.998C300.171 172.01 300.207 172.022 300.231 172.034C300.255 172.034 300.285 172.04 300.321 172.052C300.357 172.064 300.393 172.076 300.429 172.088C300.465 172.1 300.669 172.16 301.041 172.268C301.425 172.364 301.719 172.442 301.923 172.502C302.883 171.878 303.363 171.104 303.363 170.18ZM308.483 177.47C307.571 176.306 307.115 174.776 307.115 172.88C307.115 170.984 307.571 169.454 308.483 168.29C309.395 167.126 310.739 166.544 312.515 166.544C314.303 166.544 315.653 167.126 316.565 168.29C317.477 169.442 317.933 170.972 317.933 172.88C317.933 174.788 317.477 176.324 316.565 177.488C315.653 178.64 314.303 179.216 312.515 179.216C310.739 179.216 309.395 178.634 308.483 177.47ZM315.431 176.516C316.079 175.664 316.403 174.452 316.403 172.88C316.403 171.308 316.079 170.102 315.431 169.262C314.795 168.41 313.823 167.984 312.515 167.984C311.207 167.984 310.235 168.41 309.599 169.262C308.963 170.102 308.645 171.308 308.645 172.88C308.645 174.452 308.963 175.664 309.599 176.516C310.235 177.356 311.207 177.776 312.515 177.776C313.823 177.776 314.795 177.356 315.431 176.516Z" fill="#454545"/>
<path d="M276.292 205.76H277.408V216.56H279.694V218H273.322V216.56H275.896V207.362L273.322 208.334V206.894L276.292 205.76ZM288.509 205.76H289.625V216.56H291.911V218H285.539V216.56H288.113V207.362L285.539 208.334V206.894L288.509 205.76ZM294.605 216.47C293.693 215.306 293.237 213.776 293.237 211.88C293.237 209.984 293.693 208.454 294.605 207.29C295.517 206.126 296.861 205.544 298.637 205.544C300.425 205.544 301.775 206.126 302.687 207.29C303.599 208.442 304.055 209.972 304.055 211.88C304.055 213.788 303.599 215.324 302.687 216.488C301.775 217.64 300.425 218.216 298.637 218.216C296.861 218.216 295.517 217.634 294.605 216.47ZM301.553 215.516C302.201 214.664 302.525 213.452 302.525 211.88C302.525 210.308 302.201 209.102 301.553 208.262C300.917 207.41 299.945 206.984 298.637 206.984C297.329 206.984 296.357 207.41 295.721 208.262C295.085 209.102 294.767 210.308 294.767 211.88C294.767 213.452 295.085 214.664 295.721 215.516C296.357 216.356 297.329 216.776 298.637 216.776C299.945 216.776 300.917 216.356 301.553 215.516ZM307.262 216.47C306.35 215.306 305.894 213.776 305.894 211.88C305.894 209.984 306.35 208.454 307.262 207.29C308.174 206.126 309.518 205.544 311.294 205.544C313.082 205.544 314.432 206.126 315.344 207.29C316.256 208.442 316.712 209.972 316.712 211.88C316.712 213.788 316.256 215.324 315.344 216.488C314.432 217.64 313.082 218.216 311.294 218.216C309.518 218.216 308.174 217.634 307.262 216.47ZM314.21 215.516C314.858 214.664 315.182 213.452 315.182 211.88C315.182 210.308 314.858 209.102 314.21 208.262C313.574 207.41 312.602 206.984 311.294 206.984C309.986 206.984 309.014 207.41 308.378 208.262C307.742 209.102 307.424 210.308 307.424 211.88C307.424 213.452 307.742 214.664 308.378 215.516C309.014 216.356 309.986 216.776 311.294 216.776C312.602 216.776 313.574 216.356 314.21 215.516Z" fill="#454545"/>
<path d="M276.019 244.76H277.135V255.56H279.421V257H273.049V255.56H275.623V246.362L273.049 247.334V245.894L276.019 244.76ZM291.44 244.76H293.078V252.878H295.382V254.282H293.078V257H291.584V254.282H284.762V252.932L291.44 244.76ZM291.584 252.878V246.794L286.616 252.878H291.584ZM297.137 245.732C298.277 244.94 299.585 244.544 301.061 244.544C302.333 244.544 303.347 244.832 304.103 245.408C304.859 245.984 305.237 246.788 305.237 247.82C305.237 248.312 305.141 248.774 304.949 249.206C304.769 249.638 304.493 250.034 304.121 250.394C303.761 250.754 303.407 251.06 303.059 251.312C302.723 251.552 302.297 251.822 301.781 252.122C301.721 252.158 301.535 252.266 301.223 252.446C300.923 252.626 300.731 252.74 300.647 252.788C300.575 252.836 300.407 252.944 300.143 253.112C299.891 253.268 299.723 253.382 299.639 253.454C299.567 253.526 299.435 253.64 299.243 253.796C299.063 253.952 298.937 254.084 298.865 254.192C298.805 254.3 298.721 254.438 298.613 254.606C298.517 254.762 298.451 254.918 298.415 255.074C298.379 255.23 298.361 255.398 298.361 255.578L305.327 255.56V257H296.705V256.28C296.705 255.608 296.813 255.002 297.029 254.462C297.245 253.91 297.551 253.442 297.947 253.058C298.355 252.662 298.757 252.332 299.153 252.068C299.549 251.792 300.011 251.498 300.539 251.186C300.659 251.126 300.749 251.078 300.809 251.042C301.901 250.406 302.615 249.92 302.951 249.584C303.467 249.056 303.725 248.462 303.725 247.802C303.725 247.202 303.479 246.746 302.987 246.434C302.507 246.11 301.823 245.948 300.935 245.948C299.639 245.948 298.373 246.38 297.137 247.244V245.732ZM308.535 255.47C307.623 254.306 307.167 252.776 307.167 250.88C307.167 248.984 307.623 247.454 308.535 246.29C309.447 245.126 310.791 244.544 312.567 244.544C314.355 244.544 315.705 245.126 316.617 246.29C317.529 247.442 317.985 248.972 317.985 250.88C317.985 252.788 317.529 254.324 316.617 255.488C315.705 256.64 314.355 257.216 312.567 257.216C310.791 257.216 309.447 256.634 308.535 255.47ZM315.483 254.516C316.131 253.664 316.455 252.452 316.455 250.88C316.455 249.308 316.131 248.102 315.483 247.262C314.847 246.41 313.875 245.984 312.567 245.984C311.259 245.984 310.287 246.41 309.651 247.262C309.015 248.102 308.697 249.308 308.697 250.88C308.697 252.452 309.015 253.664 309.651 254.516C310.287 255.356 311.259 255.776 312.567 255.776C313.875 255.776 314.847 255.356 315.483 254.516Z" fill="#454545"/>
<rect x="468.5" y="125.5" width="71" height="19" rx="9.5" fill="#FFE6E4" stroke="#F64810"/>
<path d="M482.504 133.872C482.504 133.152 482.632 132.504 482.888 131.928C483.144 131.352 483.484 130.888 483.908 130.536C484.332 130.176 484.804 129.904 485.324 129.72C485.844 129.536 486.388 129.444 486.956 129.444C487.812 129.444 488.608 129.628 489.344 129.996V131.328C488.744 130.912 488.024 130.704 487.184 130.704C486.296 130.704 485.528 130.972 484.88 131.508C484.232 132.044 483.904 132.832 483.896 133.872C483.896 134.528 484.064 135.092 484.4 135.564C484.736 136.036 485.148 136.376 485.636 136.584C486.124 136.792 486.648 136.896 487.208 136.896C488.104 136.896 488.836 136.68 489.404 136.248V137.604C488.652 137.972 487.84 138.156 486.968 138.156C486.408 138.156 485.868 138.068 485.348 137.892C484.828 137.708 484.352 137.444 483.92 137.1C483.488 136.756 483.144 136.304 482.888 135.744C482.632 135.184 482.504 134.56 482.504 133.872ZM491.916 138H490.632V132.24H491.916V134.52H492.864L494.52 132.24H495.984L493.896 135.096L496.212 138H494.736L492.84 135.612H491.916V138ZM498.158 138H497.054V132.24H498.338V136.008L501.422 132.24H502.526V138H501.242V134.232L498.158 138ZM504.828 139.548H503.616V136.944H504.408C505.04 135.824 505.344 134.256 505.32 132.24H509.82V136.944H510.672V139.548H509.46V138H504.828V139.548ZM506.52 133.296C506.472 134.736 506.216 135.952 505.752 136.944H508.524V133.296H506.52ZM513.127 138H511.843V132.24H513.127V134.52H514.075L515.731 132.24H517.195L515.107 135.096L517.423 138H515.947L514.051 135.612H513.127V138ZM523.114 136.668C523.114 136.948 523.254 137.088 523.534 137.088C523.63 137.088 523.758 137.064 523.918 137.016V137.94C523.678 138.036 523.406 138.084 523.102 138.084C522.526 138.084 522.142 137.86 521.95 137.412C521.334 137.908 520.61 138.156 519.778 138.156C519.218 138.156 518.742 138.004 518.35 137.7C517.958 137.388 517.762 136.952 517.762 136.392C517.762 135.72 518.014 135.232 518.518 134.928C519.022 134.616 519.626 134.46 520.33 134.46C520.794 134.46 521.294 134.516 521.83 134.628V134.424C521.83 134.056 521.698 133.76 521.434 133.536C521.17 133.312 520.798 133.2 520.318 133.2C519.606 133.2 518.914 133.348 518.242 133.644V132.468C518.994 132.212 519.73 132.084 520.45 132.084C521.29 132.084 521.942 132.292 522.406 132.708C522.878 133.124 523.114 133.756 523.114 134.604V136.668ZM520.582 135.36C520.158 135.36 519.802 135.436 519.514 135.588C519.226 135.74 519.082 135.98 519.082 136.308C519.082 136.58 519.186 136.792 519.394 136.944C519.602 137.088 519.858 137.16 520.162 137.16C520.818 137.16 521.374 136.932 521.83 136.476V135.504C521.366 135.408 520.95 135.36 520.582 135.36Z" fill="#F64810"/>
<rect x="468.5" y="203.5" width="71" height="19" rx="9.5" fill="#F5FFEE" stroke="#80DA39"/>
<path d="M480.388 217H479.02V208.6H486.076V217H484.708V209.86H480.388V217ZM488.309 216.352C487.701 215.816 487.397 215.072 487.397 214.12C487.397 213.168 487.701 212.424 488.309 211.888C488.925 211.352 489.661 211.084 490.517 211.084C491.381 211.084 492.117 211.352 492.725 211.888C493.333 212.424 493.637 213.168 493.637 214.12C493.637 215.072 493.333 215.816 492.725 216.352C492.117 216.888 491.381 217.156 490.517 217.156C489.661 217.156 488.925 216.888 488.309 216.352ZM491.825 215.476C492.161 215.132 492.329 214.68 492.329 214.12C492.329 213.56 492.161 213.112 491.825 212.776C491.489 212.432 491.053 212.26 490.517 212.26C489.973 212.26 489.533 212.432 489.197 212.776C488.861 213.112 488.693 213.56 488.693 214.12C488.693 214.68 488.861 215.132 489.197 215.476C489.533 215.812 489.973 215.98 490.517 215.98C491.053 215.98 491.489 215.812 491.825 215.476ZM495.438 218.548H494.226V215.944H495.018C495.65 214.824 495.954 213.256 495.93 211.24H500.43V215.944H501.282V218.548H500.07V217H495.438V218.548ZM497.13 212.296C497.082 213.736 496.826 214.952 496.362 215.944H499.134V212.296H497.13ZM507.36 215.668C507.36 215.948 507.5 216.088 507.78 216.088C507.876 216.088 508.004 216.064 508.164 216.016V216.94C507.924 217.036 507.652 217.084 507.348 217.084C506.772 217.084 506.388 216.86 506.196 216.412C505.58 216.908 504.856 217.156 504.024 217.156C503.464 217.156 502.988 217.004 502.596 216.7C502.204 216.388 502.008 215.952 502.008 215.392C502.008 214.72 502.26 214.232 502.764 213.928C503.268 213.616 503.872 213.46 504.576 213.46C505.04 213.46 505.54 213.516 506.076 213.628V213.424C506.076 213.056 505.944 212.76 505.68 212.536C505.416 212.312 505.044 212.2 504.564 212.2C503.852 212.2 503.16 212.348 502.488 212.644V211.468C503.24 211.212 503.976 211.084 504.696 211.084C505.536 211.084 506.188 211.292 506.652 211.708C507.124 212.124 507.36 212.756 507.36 213.604V215.668ZM504.828 214.36C504.404 214.36 504.048 214.436 503.76 214.588C503.472 214.74 503.328 214.98 503.328 215.308C503.328 215.58 503.432 215.792 503.64 215.944C503.848 216.088 504.104 216.16 504.408 216.16C505.064 216.16 505.62 215.932 506.076 215.476V214.504C505.612 214.408 505.196 214.36 504.828 214.36ZM510.272 212.14C510.856 211.436 511.596 211.084 512.492 211.084C513.34 211.084 514.028 211.38 514.556 211.972C515.084 212.556 515.348 213.272 515.348 214.12C515.348 214.968 515.084 215.688 514.556 216.28C514.028 216.864 513.34 217.156 512.492 217.156C511.628 217.156 510.936 216.856 510.416 216.256V219.64H509.132V211.24H510.272V212.14ZM513.536 215.5C513.872 215.14 514.04 214.68 514.04 214.12C514.04 213.56 513.872 213.104 513.536 212.752C513.2 212.392 512.772 212.212 512.252 212.212C511.828 212.212 511.452 212.328 511.124 212.56C510.804 212.792 510.568 213.076 510.416 213.412V214.816C510.568 215.16 510.804 215.448 511.124 215.68C511.452 215.912 511.828 216.028 512.252 216.028C512.772 216.028 513.2 215.852 513.536 215.5ZM517.149 216.352C516.541 215.816 516.237 215.072 516.237 214.12C516.237 213.168 516.541 212.424 517.149 211.888C517.765 211.352 518.501 211.084 519.357 211.084C520.221 211.084 520.957 211.352 521.565 211.888C522.173 212.424 522.477 213.168 522.477 214.12C522.477 215.072 522.173 215.816 521.565 216.352C520.957 216.888 520.221 217.156 519.357 217.156C518.501 217.156 517.765 216.888 517.149 216.352ZM520.665 215.476C521.001 215.132 521.169 214.68 521.169 214.12C521.169 213.56 521.001 213.112 520.665 212.776C520.329 212.432 519.893 212.26 519.357 212.26C518.813 212.26 518.373 212.432 518.037 212.776C517.701 213.112 517.533 213.56 517.533 214.12C517.533 214.68 517.701 215.132 518.037 215.476C518.373 215.812 518.813 215.98 519.357 215.98C519.893 215.98 520.329 215.812 520.665 215.476ZM525.006 217H523.722V211.24H525.006V213.52H525.954L527.61 211.24H529.074L526.986 214.096L529.302 217H527.826L525.93 214.612H525.006V217Z" fill="#80DA39"/>
<path d="M362 127L364.821 131.117L369.608 132.528L366.565 136.483L366.702 141.472L362 139.8L357.298 141.472L357.435 136.483L354.392 132.528L359.179 131.117L362 127Z" fill="#F28100"/>
<path d="M381 127L383.821 131.117L388.608 132.528L385.565 136.483L385.702 141.472L381 139.8L376.298 141.472L376.435 136.483L373.392 132.528L378.179 131.117L381 127Z" fill="#F28100"/>
<path d="M400 127L402.821 131.117L407.608 132.528L404.565 136.483L404.702 141.472L400 139.8L395.298 141.472L395.435 136.483L392.392 132.528L397.179 131.117L400 127Z" fill="#F28100"/>
<path d="M419 127L421.821 131.117L426.608 132.528L423.565 136.483L423.702 141.472L419 139.8L414.298 141.472L414.435 136.483L411.392 132.528L416.179 131.117L419 127Z" fill="#F28100"/>
<path d="M438 127L440.821 131.117L445.608 132.528L442.565 136.483L442.702 141.472L438 139.8L433.298 141.472L433.435 136.483L430.392 132.528L435.179 131.117L438 127Z" fill="#D5D5E4"/>
<path d="M362 204L364.821 208.117L369.608 209.528L366.565 213.483L366.702 218.472L362 216.8L357.298 218.472L357.435 213.483L354.392 209.528L359.179 208.117L362 204Z" fill="#F28100"/>
<path d="M381 204L383.821 208.117L388.608 209.528L385.565 213.483L385.702 218.472L381 216.8L376.298 218.472L376.435 213.483L373.392 209.528L378.179 208.117L381 204Z" fill="#F28100"/>
<path d="M400 204L402.821 208.117L407.608 209.528L404.565 213.483L404.702 218.472L400 216.8L395.298 218.472L395.435 213.483L392.392 209.528L397.179 208.117L400 204Z" fill="#F28100"/>
<path d="M419 204L421.821 208.117L426.608 209.528L423.565 213.483L423.702 218.472L419 216.8L414.298 218.472L414.435 213.483L411.392 209.528L416.179 208.117L419 204Z" fill="#F28100"/>
<path d="M438 204L440.821 208.117L445.608 209.528L442.565 213.483L442.702 218.472L438 216.8L433.298 218.472L433.435 213.483L430.392 209.528L435.179 208.117L438 204Z" fill="#D5D5E4"/>
<path d="M362 166L364.821 170.117L369.608 171.528L366.565 175.483L366.702 180.472L362 178.8L357.298 180.472L357.435 175.483L354.392 171.528L359.179 170.117L362 166Z" fill="#F28100"/>
<path d="M381 166L383.821 170.117L388.608 171.528L385.565 175.483L385.702 180.472L381 178.8L376.298 180.472L376.435 175.483L373.392 171.528L378.179 170.117L381 166Z" fill="#F28100"/>
<path d="M400 166L402.821 170.117L407.608 171.528L404.565 175.483L404.702 180.472L400 178.8L395.298 180.472L395.435 175.483L392.392 171.528L397.179 170.117L400 166Z" fill="#D5D5E4"/>
<path d="M419 166L421.821 170.117L426.608 171.528L423.565 175.483L423.702 180.472L419 178.8L414.298 180.472L414.435 175.483L411.392 171.528L416.179 170.117L419 166Z" fill="#D5D5E4"/>
<path d="M438 166L440.821 170.117L445.608 171.528L442.565 175.483L442.702 180.472L438 178.8L433.298 180.472L433.435 175.483L430.392 171.528L435.179 170.117L438 166Z" fill="#D5D5E4"/>
<path d="M362 242L364.821 246.117L369.608 247.528L366.565 251.483L366.702 256.472L362 254.8L357.298 256.472L357.435 251.483L354.392 247.528L359.179 246.117L362 242Z" fill="#F28100"/>
<path d="M381 242L383.821 246.117L388.608 247.528L385.565 251.483L385.702 256.472L381 254.8L376.298 256.472L376.435 251.483L373.392 247.528L378.179 246.117L381 242Z" fill="#F28100"/>
<path d="M400 242L402.821 246.117L407.608 247.528L404.565 251.483L404.702 256.472L400 254.8L395.298 256.472L395.435 251.483L392.392 247.528L397.179 246.117L400 242Z" fill="#D5D5E4"/>
<path d="M419 242L421.821 246.117L426.608 247.528L423.565 251.483L423.702 256.472L419 254.8L414.298 256.472L414.435 251.483L411.392 247.528L416.179 246.117L419 242Z" fill="#D5D5E4"/>
<path d="M438 242L440.821 246.117L445.608 247.528L442.565 251.483L442.702 256.472L438 254.8L433.298 256.472L433.435 251.483L430.392 247.528L435.179 246.117L438 242Z" fill="#D5D5E4"/>
<defs>
<filter id="filter0_d_803_857" x="0" y="0" width="632" height="361" filterUnits="userSpaceOnUse" color-interpolation-filters="sRGB">
<feFlood flood-opacity="0" result="BackgroundImageFix"/>
<feColorMatrix in="SourceAlpha" type="matrix" values="0 0 0 0 0 0 0 0 0 0 0 0 0 0 0 0 0 0 127 0" result="hardAlpha"/>
<feOffset dy="4"/>
<feGaussianBlur stdDeviation="25"/>
<feComposite in2="hardAlpha" operator="out"/>
<feColorMatrix type="matrix" values="0 0 0 0 0 0 0 0 0 0 0 0 0 0 0 0 0 0 0.1 0"/>
<feBlend mode="normal" in2="BackgroundImageFix" result="effect1_dropShadow_803_857"/>
<feBlend mode="normal" in="SourceGraphic" in2="effect1_dropShadow_803_857" result="shape"/>
</filter>
</defs>
</svg>
