<svg width="565" height="553" viewBox="0 0 565 553" fill="none" xmlns="http://www.w3.org/2000/svg">
<rect width="325.621" height="325.621" rx="20" transform="matrix(0.866044 -0.499967 0.866044 0.499967 0.996094 389.837)" fill="#0FA7F0" fill-opacity="0.4"/>
<rect width="325.621" height="325.621" rx="20" transform="matrix(0.866044 -0.499967 0.866044 0.499967 0.996094 318.141)" fill="#0FA7F0" fill-opacity="0.6"/>
<rect width="325.621" height="325.621" rx="20" transform="matrix(0.866044 -0.499967 0.866044 0.499967 0.996094 246.445)" fill="#0FA7F0" fill-opacity="0.8"/>
<rect width="325.621" height="325.621" rx="20" transform="matrix(0.866044 -0.499967 0.866044 0.499967 0.996094 162.8)" fill="#0FA7F0"/>
<path d="M304.224 248.705L301.042 250.542L299.005 244.096L288.584 243.035L291.766 241.198L298.768 241.986L297.386 237.954L300.587 236.106L302.424 242.122L313.591 243.298L310.39 245.146L302.679 244.243L304.224 248.705ZM319.972 237.01C320.36 237.234 320.761 237.227 321.173 236.989C321.343 236.891 321.476 236.786 321.573 236.674L323.228 237.629C322.937 237.993 322.555 238.312 322.082 238.585C321.161 239.117 320.191 239.299 319.172 239.131C318.978 240.069 318.287 240.881 317.099 241.567C316.238 242.064 315.274 242.347 314.207 242.417C313.14 242.473 312.195 242.263 311.37 241.787C310.679 241.388 310.309 240.937 310.261 240.433C310.212 239.929 310.382 239.474 310.77 239.068C311.146 238.655 311.655 238.263 312.298 237.892C313.013 237.479 313.783 237.125 314.607 236.831L314.298 236.653C313.85 236.394 313.316 236.289 312.698 236.338C312.079 236.387 311.437 236.604 310.77 236.989C309.8 237.549 308.988 238.27 308.333 239.152L306.15 237.892C306.926 236.996 307.86 236.233 308.951 235.603C311.813 233.951 314.559 233.885 317.19 235.404L319.972 237.01ZM314.389 238.427C313.868 238.728 313.528 239.036 313.371 239.351C313.213 239.666 313.34 239.943 313.753 240.181C314.068 240.363 314.456 240.44 314.917 240.412C315.377 240.37 315.802 240.237 316.19 240.013C316.953 239.572 317.372 239.057 317.445 238.469L316.08 237.682C315.389 237.927 314.826 238.175 314.389 238.427ZM319.454 231.304C319.151 230.303 319.696 229.4 321.091 228.595C322.412 227.832 323.903 227.496 325.565 227.587C327.226 227.664 328.693 228.07 329.966 228.805C331.239 229.54 331.948 230.39 332.094 231.356C332.239 232.308 331.651 233.166 330.33 233.929C329.129 234.622 327.777 234.947 326.274 234.905L331.202 237.75L328.675 239.21L315.944 231.86L318.181 230.569L319.454 231.304ZM328.547 231.682C328.474 231.164 328.086 230.702 327.383 230.296C326.68 229.89 325.886 229.669 325.001 229.634C324.104 229.592 323.303 229.774 322.6 230.18C322.079 230.481 321.751 230.831 321.618 231.23C321.497 231.622 321.551 231.99 321.782 232.333L323.855 233.53C324.449 233.663 325.086 233.694 325.765 233.624C326.456 233.547 327.062 233.358 327.583 233.057C328.287 232.651 328.608 232.193 328.547 231.682ZM341.534 224.562C341.922 224.786 342.322 224.779 342.734 224.541C342.904 224.444 343.037 224.339 343.134 224.227L344.789 225.182C344.498 225.546 344.116 225.864 343.644 226.137C342.722 226.669 341.752 226.851 340.734 226.683C340.54 227.621 339.849 228.433 338.66 229.119C337.8 229.616 336.836 229.9 335.769 229.97C334.702 230.026 333.756 229.816 332.932 229.34C332.24 228.941 331.871 228.489 331.822 227.985C331.774 227.481 331.943 227.026 332.331 226.62C332.707 226.207 333.216 225.815 333.859 225.444C334.574 225.031 335.344 224.678 336.169 224.384L335.86 224.206C335.411 223.947 334.878 223.842 334.259 223.891C333.641 223.94 332.998 224.157 332.331 224.541C331.361 225.101 330.549 225.822 329.894 226.704L327.712 225.444C328.488 224.548 329.421 223.786 330.513 223.156C333.374 221.504 336.12 221.437 338.751 222.956L341.534 224.562ZM335.951 225.98C335.429 226.281 335.09 226.589 334.932 226.904C334.774 227.219 334.902 227.495 335.314 227.733C335.629 227.915 336.017 227.992 336.478 227.964C336.939 227.922 337.363 227.789 337.751 227.565C338.515 227.124 338.933 226.61 339.006 226.022L337.642 225.234C336.951 225.479 336.387 225.728 335.951 225.98ZM348.763 222.993L346.235 224.453L337.505 219.413L340.033 217.953L343.289 219.833L344.343 219.224L343.307 216.064L346.144 214.426L347.453 218.646L355.128 219.318L352.291 220.956L346.326 220.41L345.307 220.998L348.763 222.993ZM360.709 216.097L358.199 217.546L351.597 213.734L348.815 215.341L346.687 214.112L354.762 209.451L356.89 210.679L354.107 212.285L360.709 216.097ZM359.761 211.604C358.973 211.149 358.415 210.666 358.088 210.155C357.749 209.637 357.627 209.147 357.724 208.685C357.833 208.216 358.046 207.786 358.361 207.394C358.688 206.995 359.113 206.645 359.634 206.344C360.507 205.84 361.422 205.5 362.38 205.325C363.35 205.143 364.247 205.115 365.072 205.241C365.884 205.36 366.672 205.577 367.436 205.892C368.2 206.193 368.812 206.582 369.273 207.058L363.126 210.607C363.865 210.88 364.672 210.939 365.545 210.785C366.406 210.624 367.224 210.32 368 209.872C368.958 209.319 369.661 208.71 370.11 208.045L372.092 209.189C371.595 209.896 370.71 210.617 369.437 211.352C367.982 212.192 366.369 212.654 364.599 212.738C362.829 212.822 361.216 212.444 359.761 211.604ZM365.363 207.425C365.023 207.159 364.496 206.988 363.781 206.911C363.065 206.834 362.356 206.998 361.653 207.404C361.095 207.726 360.786 208.101 360.725 208.528C360.652 208.948 360.901 209.329 361.471 209.672L365.363 207.425ZM369.308 202.523C369.005 201.522 369.55 200.619 370.945 199.814C372.266 199.051 373.758 198.715 375.419 198.806C377.08 198.883 378.547 199.289 379.82 200.024C381.093 200.759 381.802 201.61 381.948 202.575C382.093 203.527 381.505 204.385 380.184 205.148C378.983 205.841 377.632 206.166 376.128 206.124L381.057 208.97L378.529 210.429L365.798 203.079L368.035 201.788L369.308 202.523ZM378.401 202.901C378.329 202.383 377.941 201.921 377.237 201.515C376.534 201.109 375.74 200.889 374.855 200.854C373.958 200.812 373.158 200.994 372.454 201.4C371.933 201.701 371.606 202.05 371.472 202.449C371.351 202.841 371.406 203.209 371.636 203.552L373.709 204.749C374.303 204.882 374.94 204.913 375.619 204.843C376.31 204.766 376.916 204.577 377.438 204.276C378.141 203.87 378.462 203.412 378.401 202.901ZM388.042 200.317L385.841 201.588L377.111 196.548L379.639 195.089L384.55 197.924L383.531 192.842L385.714 191.582L394.444 196.622L391.934 198.071L387.023 195.236L388.042 200.317ZM391.858 193.222C391.058 192.76 390.482 192.266 390.13 191.741C389.791 191.209 389.675 190.702 389.784 190.219C389.881 189.729 390.124 189.267 390.512 188.833C390.888 188.392 391.391 187.99 392.021 187.626C393.028 187.045 394.137 186.649 395.35 186.439L397.568 187.72C396.453 187.86 395.459 188.182 394.586 188.686C393.822 189.127 393.379 189.613 393.258 190.145C393.137 190.677 393.489 191.181 394.313 191.657C395.101 192.112 395.968 192.312 396.914 192.256C397.847 192.193 398.684 191.948 399.424 191.521C400.357 190.982 400.963 190.387 401.242 189.736L403.479 191.027C402.958 191.776 402.17 192.455 401.115 193.064C399.805 193.82 398.302 194.247 396.605 194.345C394.895 194.436 393.313 194.062 391.858 193.222ZM410.066 187.603L407.556 189.052L400.954 185.241L398.172 186.847L396.044 185.618L404.119 180.957L406.247 182.185L403.464 183.792L410.066 187.603ZM416.406 183.943L414.205 185.213L405.475 180.174L408.003 178.714L412.914 181.549L411.895 176.467L414.078 175.208L422.807 180.247L420.298 181.696L415.387 178.861L416.406 183.943ZM427.478 177.551L424.95 179.01L416.22 173.97L418.748 172.511L422.004 174.39L423.059 173.781L422.022 170.621L424.859 168.983L426.169 173.204L433.844 173.876L431.006 175.514L425.041 174.968L424.023 175.556L427.478 177.551ZM437.115 171.988L434.914 173.258L426.184 168.218L428.712 166.759L433.623 169.594L432.604 164.512L434.787 163.252L443.516 168.292L441.007 169.741L436.096 166.906L437.115 171.988ZM367.867 234.963L365.357 236.412L358.755 232.6L355.973 234.207L353.845 232.978L361.92 228.317L364.048 229.545L361.265 231.152L367.867 234.963ZM371.721 231.625C369.975 231.695 368.374 231.31 366.919 230.47C365.464 229.63 364.797 228.706 364.919 227.698C365.04 226.69 365.773 225.798 367.119 225.021C368.477 224.237 370.023 223.814 371.757 223.751C373.503 223.681 375.103 224.066 376.558 224.906C378.013 225.746 378.68 226.669 378.559 227.677C378.45 228.678 377.716 229.571 376.358 230.355C375.012 231.132 373.467 231.555 371.721 231.625ZM375.103 227.719C375.055 227.229 374.685 226.785 373.994 226.386C373.303 225.987 372.539 225.777 371.702 225.756C370.854 225.728 370.078 225.917 369.374 226.323C368.671 226.729 368.344 227.177 368.392 227.667C368.441 228.143 368.811 228.58 369.502 228.979C370.193 229.378 370.957 229.595 371.793 229.63C372.63 229.651 373.4 229.459 374.103 229.053C374.806 228.647 375.14 228.202 375.103 227.719ZM387.921 223.386L382.574 226.473L373.844 221.433L379.045 218.43C380.015 217.87 380.961 217.583 381.883 217.569C382.792 217.548 383.574 217.727 384.229 218.105C385.223 218.679 385.441 219.323 384.883 220.037C386.253 219.638 387.454 219.736 388.484 220.331C389.175 220.73 389.515 221.191 389.503 221.716C389.479 222.234 388.951 222.791 387.921 223.386ZM381.482 222.924L383.374 224.016L385.447 222.819C386.223 222.371 386.302 221.968 385.684 221.611C385.041 221.24 384.332 221.279 383.556 221.727L381.482 222.924ZM378.081 220.981L379.937 222.052L381.864 220.939C382.592 220.52 382.652 220.135 382.046 219.785C381.416 219.421 380.731 219.452 379.991 219.879L378.081 220.981ZM398.102 214.904C398.49 215.128 398.89 215.121 399.302 214.883C399.472 214.785 399.606 214.68 399.703 214.568L401.358 215.524C401.067 215.888 400.685 216.206 400.212 216.479C399.29 217.011 398.32 217.193 397.302 217.025C397.108 217.963 396.417 218.775 395.229 219.461C394.368 219.958 393.404 220.241 392.337 220.311C391.27 220.367 390.324 220.157 389.5 219.681C388.809 219.282 388.439 218.831 388.39 218.327C388.342 217.823 388.512 217.368 388.9 216.962C389.275 216.549 389.785 216.157 390.427 215.786C391.143 215.373 391.913 215.02 392.737 214.726L392.428 214.547C391.979 214.288 391.446 214.183 390.827 214.232C390.209 214.281 389.566 214.498 388.9 214.883C387.93 215.443 387.117 216.164 386.462 217.046L384.28 215.786C385.056 214.89 385.99 214.127 387.081 213.497C389.942 211.845 392.688 211.779 395.32 213.298L398.102 214.904ZM392.519 216.322C391.997 216.623 391.658 216.931 391.5 217.246C391.343 217.561 391.47 217.837 391.882 218.075C392.197 218.257 392.585 218.334 393.046 218.306C393.507 218.264 393.931 218.131 394.319 217.907C395.083 217.466 395.501 216.952 395.574 216.364L394.21 215.576C393.519 215.821 392.955 216.07 392.519 216.322ZM397.583 209.198C397.28 208.197 397.826 207.294 399.22 206.489C400.542 205.726 402.033 205.39 403.694 205.481C405.355 205.558 406.822 205.964 408.095 206.699C409.369 207.434 410.078 208.285 410.223 209.251C410.369 210.202 409.781 211.06 408.459 211.823C407.259 212.516 405.907 212.841 404.403 212.799L409.332 215.645L406.804 217.104L394.073 209.755L396.31 208.463L397.583 209.198ZM406.677 209.576C406.604 209.058 406.216 208.596 405.513 208.19C404.81 207.784 404.015 207.564 403.13 207.529C402.233 207.487 401.433 207.669 400.73 208.075C400.208 208.376 399.881 208.726 399.748 209.125C399.626 209.517 399.681 209.884 399.911 210.227L401.985 211.424C402.579 211.557 403.215 211.588 403.894 211.518C404.585 211.441 405.192 211.252 405.713 210.951C406.416 210.545 406.737 210.087 406.677 209.576ZM419.664 202.457C420.052 202.681 420.452 202.674 420.864 202.436C421.034 202.338 421.167 202.233 421.264 202.121L422.919 203.076C422.628 203.44 422.246 203.759 421.773 204.032C420.852 204.564 419.882 204.746 418.863 204.578C418.669 205.516 417.978 206.328 416.79 207.013C415.929 207.51 414.965 207.794 413.898 207.864C412.831 207.92 411.886 207.71 411.061 207.234C410.37 206.835 410 206.384 409.952 205.88C409.903 205.376 410.073 204.921 410.461 204.515C410.837 204.102 411.346 203.71 411.989 203.339C412.704 202.926 413.474 202.572 414.298 202.278L413.989 202.1C413.541 201.841 413.007 201.736 412.389 201.785C411.77 201.834 411.128 202.051 410.461 202.436C409.491 202.996 408.679 203.717 408.024 204.599L405.842 203.339C406.617 202.443 407.551 201.68 408.642 201.05C411.504 199.398 414.25 199.331 416.881 200.85L419.664 202.457ZM414.08 203.874C413.559 204.175 413.219 204.483 413.062 204.798C412.904 205.113 413.031 205.39 413.444 205.628C413.759 205.81 414.147 205.887 414.608 205.859C415.068 205.817 415.493 205.684 415.881 205.46C416.645 205.019 417.063 204.504 417.136 203.916L415.772 203.129C415.08 203.374 414.517 203.622 414.08 203.874Z" fill="white"/>
<path d="M326.385 426.485L323.984 427.871L321.22 426.275L310.908 432.228L298.177 424.879L300.905 423.304L311.18 429.236L316.818 425.981L306.543 420.049L309.271 418.474L319.546 424.406L321.165 423.472L326.385 426.485ZM320.165 421.845C319.376 421.39 318.819 420.907 318.491 420.396C318.152 419.878 318.031 419.388 318.128 418.926C318.237 418.457 318.449 418.026 318.764 417.634C319.092 417.235 319.516 416.885 320.037 416.584C320.91 416.08 321.826 415.741 322.783 415.566C323.753 415.384 324.651 415.356 325.475 415.482C326.288 415.601 327.076 415.818 327.839 416.133C328.603 416.434 329.216 416.822 329.676 417.298L323.529 420.847C324.269 421.12 325.075 421.18 325.948 421.026C326.809 420.865 327.627 420.56 328.403 420.112C329.361 419.559 330.064 418.95 330.513 418.285L332.495 419.43C331.998 420.137 331.113 420.858 329.84 421.593C328.385 422.433 326.772 422.894 325.002 422.978C323.232 423.062 321.62 422.685 320.165 421.845ZM325.766 417.666C325.427 417.4 324.899 417.228 324.184 417.151C323.469 417.074 322.759 417.239 322.056 417.645C321.498 417.967 321.189 418.341 321.128 418.768C321.056 419.188 321.304 419.57 321.874 419.913L325.766 417.666ZM337.459 416.9L334.931 418.36L326.201 413.32L328.729 411.861L332.039 413.771L335.567 411.735L332.257 409.824L334.785 408.364L343.515 413.404L340.987 414.863L337.677 412.952L334.149 414.989L337.459 416.9ZM345.604 411.085C343.858 411.155 342.257 410.77 340.802 409.93C339.348 409.09 338.681 408.166 338.802 407.158C338.923 406.151 339.657 405.258 341.003 404.481C342.36 403.697 343.906 403.274 345.64 403.211C347.386 403.141 348.987 403.526 350.442 404.366C351.897 405.206 352.563 406.13 352.442 407.137C352.333 408.138 351.599 409.031 350.241 409.815C348.896 410.592 347.35 411.015 345.604 411.085ZM348.987 407.179C348.938 406.69 348.568 406.245 347.877 405.846C347.186 405.447 346.422 405.237 345.586 405.216C344.737 405.188 343.961 405.377 343.258 405.783C342.554 406.189 342.227 406.637 342.276 407.127C342.324 407.603 342.694 408.04 343.385 408.439C344.076 408.838 344.84 409.055 345.677 409.09C346.513 409.111 347.283 408.919 347.986 408.513C348.69 408.107 349.023 407.662 348.987 407.179ZM361.804 402.846L356.457 405.933L347.727 400.893L352.929 397.89C353.899 397.33 354.844 397.043 355.766 397.029C356.675 397.008 357.457 397.187 358.112 397.565C359.106 398.139 359.324 398.783 358.767 399.497C360.137 399.098 361.337 399.196 362.368 399.791C363.059 400.19 363.398 400.652 363.386 401.176C363.362 401.694 362.834 402.251 361.804 402.846ZM355.366 402.384L357.257 403.476L359.33 402.279C360.106 401.831 360.185 401.428 359.567 401.071C358.924 400.701 358.215 400.739 357.439 401.187L355.366 402.384ZM351.965 400.442L353.82 401.512L355.748 400.4C356.475 399.98 356.536 399.595 355.929 399.245C355.299 398.881 354.614 398.912 353.874 399.339L351.965 400.442ZM370.985 397.546L366.438 400.17L357.709 395.131L360.237 393.671L362.965 395.246L364.983 394.081C366.087 393.444 367.233 393.111 368.421 393.083C369.609 393.041 370.64 393.272 371.513 393.776C372.386 394.28 372.792 394.879 372.731 395.572C372.67 396.251 372.088 396.909 370.985 397.546ZM364.765 396.307L367.129 397.672L368.548 396.853C369.045 396.566 369.324 396.286 369.385 396.013C369.445 395.74 369.288 395.495 368.912 395.278C368.536 395.061 368.112 394.97 367.639 395.005C367.166 395.04 366.681 395.201 366.184 395.488L364.765 396.307ZM378.46 393.23L375.932 394.69L367.202 389.65L369.73 388.191L378.46 393.23ZM375.755 389.752C374.967 389.297 374.41 388.814 374.082 388.303C373.743 387.785 373.622 387.295 373.719 386.833C373.828 386.364 374.04 385.934 374.355 385.542C374.682 385.143 375.107 384.793 375.628 384.492C376.501 383.988 377.417 383.648 378.374 383.473C379.344 383.291 380.242 383.263 381.066 383.389C381.878 383.508 382.667 383.725 383.43 384.04C384.194 384.341 384.807 384.73 385.267 385.206L379.12 388.754C379.86 389.027 380.666 389.087 381.539 388.933C382.4 388.772 383.218 388.468 383.994 388.02C384.952 387.467 385.655 386.858 386.104 386.193L388.086 387.337C387.589 388.044 386.704 388.765 385.431 389.5C383.976 390.34 382.363 390.802 380.593 390.886C378.823 390.97 377.21 390.592 375.755 389.752ZM381.357 385.573C381.018 385.307 380.49 385.136 379.775 385.059C379.059 384.982 378.35 385.146 377.647 385.552C377.089 385.874 376.78 386.249 376.719 386.676C376.647 387.096 376.895 387.477 377.465 387.82L381.357 385.573ZM398.5 384.328L396.172 385.672L391.935 383.226L393.153 382.522C392.486 381.087 390.643 379.533 387.624 377.86L394.808 373.713L401.61 377.64L402.92 376.884L407.157 379.33L404.829 380.674L402.519 379.341L396.19 382.995L398.5 384.328ZM391.88 377.629C393.796 378.819 395.093 379.946 395.772 381.01L399.1 379.089L394.226 376.275L391.88 377.629ZM408.618 375.82L406.418 377.09L397.688 372.051L400.216 370.591L405.126 373.426L404.108 368.344L406.29 367.084L415.02 372.124L412.51 373.573L407.6 370.738L408.618 375.82ZM422.71 365.081C423.098 365.305 423.498 365.298 423.91 365.06C424.08 364.962 424.213 364.857 424.31 364.745L425.965 365.7C425.674 366.064 425.292 366.383 424.82 366.656C423.898 367.188 422.928 367.37 421.91 367.202C421.716 368.14 421.025 368.952 419.836 369.638C418.975 370.135 418.012 370.418 416.945 370.488C415.878 370.544 414.932 370.334 414.107 369.858C413.416 369.459 413.047 369.008 412.998 368.504C412.95 368 413.119 367.545 413.507 367.139C413.883 366.726 414.392 366.334 415.035 365.963C415.75 365.55 416.52 365.196 417.345 364.903L417.036 364.724C416.587 364.465 416.053 364.36 415.435 364.409C414.817 364.458 414.174 364.675 413.507 365.06C412.537 365.62 411.725 366.341 411.07 367.223L408.888 365.963C409.664 365.067 410.597 364.304 411.689 363.674C414.55 362.022 417.296 361.956 419.927 363.475L422.71 365.081ZM417.126 366.498C416.605 366.799 416.266 367.107 416.108 367.422C415.95 367.737 416.078 368.014 416.49 368.252C416.805 368.434 417.193 368.511 417.654 368.483C418.115 368.441 418.539 368.308 418.927 368.084C419.691 367.643 420.109 367.128 420.182 366.54L418.818 365.753C418.127 365.998 417.563 366.246 417.126 366.498ZM429.939 363.512L427.411 364.971L418.681 359.931L427.265 354.976L435.995 360.015L433.467 361.475L426.865 357.663L423.337 359.7L429.939 363.512ZM443.685 352.972C444.073 353.196 444.473 353.189 444.886 352.951C445.055 352.853 445.189 352.748 445.286 352.636L446.941 353.591C446.65 353.955 446.268 354.274 445.795 354.547C444.873 355.079 443.903 355.261 442.885 355.093C442.691 356.031 442 356.843 440.812 357.529C439.951 358.026 438.987 358.309 437.92 358.379C436.853 358.435 435.907 358.225 435.083 357.749C434.392 357.35 434.022 356.899 433.973 356.395C433.925 355.891 434.095 355.436 434.483 355.03C434.859 354.617 435.368 354.225 436.01 353.854C436.726 353.441 437.496 353.087 438.32 352.793L438.011 352.615C437.562 352.356 437.029 352.251 436.41 352.3C435.792 352.349 435.149 352.566 434.483 352.951C433.513 353.511 432.7 354.232 432.046 355.114L429.863 353.854C430.639 352.958 431.573 352.195 432.664 351.565C435.525 349.913 438.272 349.847 440.903 351.366L443.685 352.972ZM438.102 354.389C437.58 354.69 437.241 354.998 437.083 355.313C436.926 355.628 437.053 355.905 437.465 356.143C437.781 356.325 438.169 356.402 438.629 356.374C439.09 356.332 439.514 356.199 439.902 355.975C440.666 355.534 441.084 355.019 441.157 354.431L439.793 353.644C439.102 353.889 438.538 354.137 438.102 354.389ZM453.133 347.329C453.873 347.756 454.139 348.33 453.933 349.051C453.715 349.765 452.903 350.528 451.496 351.34C450.187 352.095 448.841 352.599 447.459 352.851L445.44 351.686C445.985 351.595 446.622 351.431 447.349 351.193C448.065 350.948 448.677 350.678 449.186 350.384C450.544 349.6 450.896 349.019 450.241 348.641C449.902 348.445 449.526 348.403 449.114 348.515C448.701 348.613 448.235 348.813 447.713 349.114L446.095 350.048L444.421 349.082L446.04 348.148C447.034 347.574 447.259 347.129 446.713 346.814C446.095 346.457 445.216 346.608 444.076 347.266C443.591 347.546 443.136 347.892 442.712 348.305C442.287 348.718 441.99 349.086 441.821 349.408L439.82 348.253C440.244 347.448 441.099 346.674 442.384 345.932C443.779 345.127 445.046 344.69 446.186 344.62C447.313 344.543 448.241 344.714 448.968 345.134C449.465 345.421 449.738 345.74 449.787 346.09C449.847 346.433 449.72 346.765 449.405 347.087C450.847 346.646 452.09 346.727 453.133 347.329ZM457.194 346.664C455.448 346.734 453.848 346.349 452.393 345.509C450.938 344.669 450.271 343.745 450.392 342.737C450.513 341.729 451.247 340.837 452.593 340.06C453.951 339.276 455.497 338.853 457.231 338.79C458.976 338.72 460.577 339.105 462.032 339.945C463.487 340.785 464.154 341.708 464.032 342.716C463.923 343.717 463.19 344.61 461.832 345.394C460.486 346.171 458.94 346.594 457.194 346.664ZM460.577 342.758C460.528 342.268 460.159 341.824 459.468 341.425C458.776 341.026 458.013 340.816 457.176 340.795C456.327 340.767 455.551 340.956 454.848 341.362C454.145 341.768 453.817 342.216 453.866 342.706C453.914 343.182 454.284 343.619 454.975 344.018C455.666 344.417 456.43 344.634 457.267 344.669C458.103 344.69 458.873 344.498 459.577 344.092C460.28 343.686 460.613 343.241 460.577 342.758ZM470.575 340.052L468.047 341.512L459.317 336.472L461.845 335.013L465.155 336.923L468.684 334.887L465.374 332.976L467.902 331.516L476.631 336.556L474.103 338.015L470.793 336.104L467.265 338.141L470.575 340.052ZM483.321 332.694L478.775 335.319L470.045 330.279L472.573 328.82L475.301 330.394L477.32 329.229C478.423 328.592 479.569 328.26 480.757 328.232C481.945 328.19 482.976 328.421 483.849 328.925C484.722 329.429 485.128 330.027 485.067 330.72C485.007 331.399 484.425 332.057 483.321 332.694ZM477.101 331.455L479.466 332.82L480.884 332.001C481.381 331.714 481.66 331.434 481.721 331.161C481.782 330.888 481.624 330.643 481.248 330.426C480.872 330.209 480.448 330.118 479.975 330.153C479.502 330.188 479.017 330.349 478.52 330.636L477.101 331.455ZM490.796 328.379L488.268 329.838L479.538 324.798L482.066 323.339L490.796 328.379Z" fill="white"/>
<path d="M317.489 335.245L326.219 330.205L338.95 337.555L336.222 339.129L325.946 333.197L322.454 335.213C323.303 335.787 324.006 336.27 324.564 336.662C325.109 337.047 325.722 337.506 326.401 338.038C327.08 338.57 327.607 339.028 327.983 339.413C328.371 339.791 328.729 340.207 329.056 340.662C329.383 341.103 329.565 341.502 329.601 341.859C329.638 342.202 329.565 342.552 329.383 342.909C329.189 343.259 328.844 343.578 328.347 343.865C327.837 344.159 327.286 344.386 326.692 344.547L324.291 343.161C324.618 343.056 324.94 342.906 325.255 342.71C325.473 342.57 325.612 342.405 325.673 342.216C325.722 342.02 325.679 341.8 325.546 341.555C325.412 341.296 325.255 341.051 325.073 340.82C324.891 340.575 324.6 340.288 324.2 339.959C323.788 339.623 323.424 339.329 323.109 339.077C322.781 338.818 322.333 338.496 321.763 338.111C321.205 337.719 320.744 337.404 320.381 337.166C320.029 336.921 319.532 336.592 318.889 336.179C318.259 335.759 317.792 335.448 317.489 335.245ZM343.586 334.878L341.385 336.149L332.655 331.109L335.183 329.65L340.094 332.484L339.075 327.403L341.258 326.143L349.987 331.182L347.478 332.631L342.567 329.797L343.586 334.878ZM359.805 325.515L357.295 326.964L354.567 325.389C354.155 325.907 353.531 326.407 352.694 326.89C351.7 327.464 350.608 327.779 349.42 327.835C348.244 327.884 347.117 327.597 346.038 326.974L342.928 325.179L345.456 323.719L348.329 325.378C349.238 325.903 350.214 325.865 351.257 325.263C351.863 324.913 352.288 324.563 352.53 324.213L348.565 321.924L351.075 320.475L359.805 325.515ZM364.48 322.816L361.952 324.275L353.222 319.236L355.75 317.776L359.06 319.687L362.588 317.65L359.278 315.739L361.806 314.28L370.536 319.32L368.008 320.779L364.698 318.868L361.17 320.905L364.48 322.816ZM377.226 315.458L372.679 318.082L363.95 313.043L366.477 311.583L369.206 313.158L371.224 311.993C372.328 311.356 373.473 311.023 374.662 310.995C375.85 310.953 376.88 311.184 377.753 311.688C378.626 312.192 379.033 312.791 378.972 313.484C378.911 314.163 378.329 314.821 377.226 315.458ZM371.006 314.219L373.37 315.584L374.789 314.765C375.286 314.478 375.565 314.198 375.626 313.925C375.686 313.652 375.529 313.407 375.153 313.19C374.777 312.973 374.352 312.882 373.88 312.917C373.407 312.952 372.922 313.113 372.425 313.4L371.006 314.219ZM384.701 311.142L382.173 312.602L373.443 307.562L375.971 306.103L384.701 311.142ZM381.996 307.664C381.208 307.209 380.651 306.726 380.323 306.215C379.984 305.697 379.862 305.207 379.959 304.745C380.069 304.276 380.281 303.846 380.596 303.454C380.923 303.055 381.348 302.705 381.869 302.404C382.742 301.9 383.657 301.56 384.615 301.385C385.585 301.203 386.482 301.175 387.307 301.301C388.119 301.42 388.907 301.637 389.671 301.952C390.435 302.253 391.047 302.642 391.508 303.118L385.361 306.667C386.101 306.94 386.907 306.999 387.78 306.845C388.641 306.684 389.459 306.38 390.235 305.932C391.193 305.379 391.896 304.77 392.345 304.105L394.327 305.249C393.83 305.956 392.945 306.677 391.672 307.412C390.217 308.252 388.604 308.714 386.834 308.798C385.064 308.882 383.451 308.504 381.996 307.664ZM387.598 303.485C387.258 303.219 386.731 303.048 386.016 302.971C385.3 302.894 384.591 303.058 383.888 303.464C383.33 303.786 383.021 304.161 382.96 304.588C382.888 305.008 383.136 305.389 383.706 305.732L387.598 303.485ZM403.322 300.392L400.794 301.852L392.065 296.812L398.721 292.969L400.849 294.198L396.721 296.581L403.322 300.392ZM411.005 295.957L408.804 297.227L400.075 292.188L402.603 290.728L407.513 293.563L406.495 288.481L408.677 287.222L417.407 292.261L414.897 293.71L409.987 290.875L411.005 295.957ZM422.078 289.565L419.55 291.024L410.82 285.984L419.404 281.029L428.134 286.068L425.606 287.528L419.004 283.717L415.476 285.754L422.078 289.565ZM430.223 283.75C428.477 283.82 426.876 283.435 425.421 282.595C423.966 281.755 423.299 280.831 423.421 279.823C423.542 278.815 424.275 277.923 425.621 277.146C426.979 276.362 428.525 275.938 430.259 275.875C432.005 275.805 433.605 276.19 435.06 277.03C436.515 277.87 437.182 278.794 437.061 279.802C436.952 280.803 436.218 281.695 434.86 282.479C433.514 283.256 431.968 283.68 430.223 283.75ZM433.605 279.844C433.557 279.354 433.187 278.91 432.496 278.511C431.805 278.112 431.041 277.902 430.204 277.881C429.356 277.853 428.58 278.042 427.876 278.448C427.173 278.854 426.846 279.302 426.894 279.792C426.943 280.268 427.313 280.705 428.004 281.104C428.695 281.503 429.459 281.72 430.295 281.755C431.132 281.776 431.902 281.583 432.605 281.177C433.308 280.771 433.642 280.327 433.605 279.844ZM445.355 276.127L442.845 277.576L436.243 273.764L433.461 275.371L431.333 274.142L439.408 269.481L441.536 270.709L438.753 272.315L445.355 276.127ZM444.407 271.634C443.619 271.179 443.062 270.696 442.734 270.185C442.395 269.667 442.273 269.177 442.37 268.715C442.48 268.246 442.692 267.816 443.007 267.424C443.334 267.025 443.759 266.675 444.28 266.374C445.153 265.87 446.068 265.531 447.026 265.356C447.996 265.174 448.893 265.146 449.718 265.272C450.53 265.391 451.318 265.608 452.082 265.923C452.846 266.223 453.458 266.612 453.919 267.088L447.772 270.637C448.512 270.91 449.318 270.969 450.191 270.815C451.052 270.654 451.87 270.35 452.646 269.902C453.604 269.349 454.307 268.74 454.756 268.075L456.738 269.219C456.241 269.926 455.356 270.647 454.083 271.382C452.628 272.222 451.015 272.684 449.245 272.768C447.475 272.852 445.862 272.474 444.407 271.634ZM450.009 267.455C449.669 267.189 449.142 267.018 448.427 266.941C447.711 266.864 447.002 267.028 446.299 267.434C445.741 267.756 445.432 268.131 445.371 268.558C445.299 268.978 445.547 269.359 446.117 269.702L450.009 267.455ZM463.921 262.616C464.66 263.043 464.927 263.617 464.721 264.338C464.502 265.052 463.69 265.815 462.284 266.627C460.974 267.383 459.628 267.887 458.246 268.139L456.227 266.973C456.773 266.882 457.41 266.718 458.137 266.48C458.852 266.235 459.465 265.965 459.974 265.671C461.332 264.887 461.684 264.306 461.029 263.928C460.689 263.732 460.313 263.69 459.901 263.802C459.489 263.9 459.022 264.1 458.501 264.401L456.882 265.335L455.209 264.369L456.828 263.435C457.822 262.861 458.046 262.417 457.501 262.102C456.882 261.745 456.003 261.895 454.863 262.553C454.378 262.833 453.924 263.18 453.499 263.592C453.075 264.005 452.778 264.373 452.608 264.695L450.608 263.54C451.032 262.735 451.887 261.962 453.172 261.22C454.566 260.415 455.833 259.977 456.973 259.907C458.101 259.83 459.028 260.002 459.756 260.422C460.253 260.709 460.526 261.027 460.574 261.377C460.635 261.72 460.507 262.053 460.192 262.375C461.635 261.934 462.878 262.014 463.921 262.616ZM472.583 260.408L468.036 263.033L459.307 257.993L461.835 256.534L464.563 258.109L466.581 256.943C467.685 256.306 468.83 255.974 470.019 255.946C471.207 255.904 472.237 256.135 473.11 256.639C473.983 257.143 474.39 257.741 474.329 258.434C474.268 259.113 473.686 259.771 472.583 260.408ZM466.363 259.169L468.727 260.534L470.146 259.715C470.643 259.428 470.922 259.148 470.983 258.875C471.043 258.602 470.886 258.357 470.51 258.14C470.134 257.923 469.709 257.832 469.237 257.867C468.764 257.902 468.279 258.063 467.782 258.35L466.363 259.169ZM480.058 256.093L477.53 257.552L468.8 252.513L471.328 251.053L480.058 256.093Z" fill="white"/>
<path d="M370.724 465.625C369.657 465.331 368.687 464.932 367.814 464.428C366.941 463.924 366.25 463.364 365.741 462.748C365.244 462.125 364.959 461.478 364.886 460.806C364.825 460.127 365.05 459.43 365.559 458.716C366.068 458.003 366.868 457.331 367.96 456.701C369.051 456.071 370.215 455.609 371.451 455.315C372.688 455.021 373.888 454.895 375.052 454.937C376.229 454.972 377.35 455.136 378.417 455.43C379.496 455.717 380.472 456.113 381.345 456.617C382.218 457.121 382.903 457.684 383.4 458.307C383.909 458.923 384.194 459.57 384.255 460.249C384.328 460.921 384.11 461.614 383.6 462.328C383.091 463.042 382.291 463.714 381.2 464.344C380.108 464.974 378.944 465.436 377.708 465.73C376.471 466.024 375.265 466.154 374.089 466.119C372.925 466.077 371.803 465.912 370.724 465.625ZM380.436 460.522C380.351 459.675 379.72 458.912 378.544 458.234C377.368 457.555 376.047 457.191 374.58 457.142C373.112 457.093 371.748 457.432 370.488 458.16C369.214 458.895 368.62 459.686 368.705 460.533C368.79 461.38 369.421 462.143 370.597 462.822C371.773 463.501 373.094 463.865 374.561 463.914C376.028 463.963 377.399 463.62 378.672 462.885C379.933 462.157 380.521 461.369 380.436 460.522ZM393.956 456.686L391.446 458.135L384.844 454.324L382.062 455.93L379.934 454.701L388.009 450.04L390.137 451.268L387.354 452.875L393.956 456.686ZM402.842 448.763C403.582 449.19 403.848 449.764 403.642 450.485C403.424 451.199 402.612 451.962 401.205 452.774C399.896 453.53 398.55 454.034 397.168 454.286L395.149 453.12C395.694 453.029 396.331 452.865 397.058 452.627C397.774 452.382 398.386 452.113 398.895 451.819C400.253 451.035 400.605 450.454 399.95 450.076C399.611 449.88 399.235 449.838 398.823 449.95C398.41 450.048 397.944 450.247 397.422 450.548L395.804 451.483L394.13 450.517L395.749 449.582C396.743 449.008 396.968 448.564 396.422 448.249C395.804 447.892 394.925 448.042 393.785 448.7C393.3 448.98 392.845 449.327 392.421 449.74C391.996 450.153 391.699 450.52 391.53 450.842L389.529 449.687C389.953 448.882 390.808 448.109 392.093 447.367C393.488 446.562 394.755 446.124 395.895 446.054C397.022 445.977 397.95 446.149 398.677 446.569C399.174 446.856 399.447 447.174 399.496 447.524C399.556 447.867 399.429 448.2 399.114 448.522C400.556 448.081 401.799 448.161 402.842 448.763ZM411.504 446.555L406.958 449.18L398.228 444.14L400.756 442.681L403.484 444.256L405.503 443.09C406.606 442.453 407.752 442.121 408.94 442.093C410.128 442.051 411.159 442.282 412.032 442.786C412.905 443.29 413.311 443.888 413.25 444.581C413.19 445.26 412.608 445.918 411.504 446.555ZM405.285 445.316L407.649 446.681L409.067 445.862C409.565 445.575 409.843 445.295 409.904 445.022C409.965 444.749 409.807 444.504 409.431 444.287C409.055 444.07 408.631 443.979 408.158 444.014C407.685 444.049 407.2 444.21 406.703 444.497L405.285 445.316ZM418.979 442.24L416.451 443.699L407.722 438.66L410.25 437.2L418.979 442.24ZM426.478 437.911L421.131 440.998L412.401 435.958L417.602 432.955C418.572 432.395 419.518 432.108 420.44 432.094C421.349 432.073 422.131 432.252 422.786 432.63C423.78 433.204 423.998 433.848 423.44 434.562C424.811 434.163 426.011 434.261 427.041 434.856C427.733 435.255 428.072 435.717 428.06 436.242C428.036 436.76 427.508 437.316 426.478 437.911ZM420.04 437.449L421.931 438.541L424.004 437.344C424.78 436.896 424.859 436.494 424.241 436.137C423.598 435.766 422.889 435.804 422.113 436.252L420.04 437.449ZM416.639 435.507L418.494 436.578L420.421 435.465C421.149 435.045 421.21 434.66 420.603 434.31C419.973 433.946 419.288 433.977 418.548 434.404L416.639 435.507ZM435.659 432.611L431.112 435.236L422.382 430.196L424.91 428.737L427.639 430.311L429.657 429.146C430.761 428.509 431.906 428.177 433.095 428.149C434.283 428.107 435.313 428.338 436.186 428.842C437.059 429.345 437.466 429.944 437.405 430.637C437.344 431.316 436.762 431.974 435.659 432.611ZM429.439 431.372L431.803 432.737L433.222 431.918C433.719 431.631 433.998 431.351 434.059 431.078C434.119 430.805 433.962 430.56 433.586 430.343C433.21 430.126 432.785 430.035 432.313 430.07C431.84 430.105 431.355 430.266 430.858 430.553L429.439 431.372ZM443.134 428.296L440.606 429.755L431.876 424.715L434.404 423.256L443.134 428.296Z" fill="white"/>
<g clip-path="url(#clip0_913_50)">
<path d="M205.826 86.9478C205.2 87.3093 204.848 87.7997 204.848 88.311C204.848 88.8224 205.2 89.3127 205.826 89.6743L229.441 103.307C230.067 103.669 230.917 103.872 231.803 103.872C232.688 103.872 233.538 103.669 234.164 103.307C242.312 98.6137 253.353 95.9779 264.863 95.9779C276.374 95.9779 287.414 98.6137 295.562 103.307C296.189 103.669 297.038 103.872 297.924 103.872C298.81 103.872 299.659 103.669 300.285 103.307L323.9 89.6743C324.526 89.3127 324.878 88.8224 324.878 88.311C324.878 87.7997 324.526 87.3093 323.9 86.9478C291.347 68.1549 238.379 68.1549 205.826 86.9478ZM297.846 99.2622C288.707 94.6601 276.99 92.1246 264.863 92.1246C252.736 92.1246 241.019 94.6601 231.88 99.2622L212.961 88.3403C242.243 72.8303 287.484 72.8302 316.765 88.3403L297.846 99.2622Z" fill="white"/>
<path d="M130.262 138.752L134.985 136.026L139.708 138.752L134.985 141.479L130.262 138.752Z" fill="white"/>
<path d="M139.707 133.299L151.514 126.483L156.237 129.209L144.43 136.026L139.707 133.299Z" fill="white"/>
<path d="M346.505 144.679C349.4 136.823 348.849 128.674 344.902 120.973C340.954 113.272 333.736 106.262 323.903 100.581C323.276 100.219 322.427 100.016 321.541 100.016C320.655 100.016 319.806 100.219 319.18 100.581L295.565 114.213C294.939 114.575 294.587 115.065 294.587 115.577C294.587 116.088 294.939 116.578 295.565 116.94C301.637 120.445 305.771 124.911 307.447 129.773C309.122 134.635 308.262 139.674 304.976 144.254C301.69 148.834 296.125 152.748 288.986 155.502C281.846 158.256 273.452 159.726 264.866 159.726C256.279 159.726 247.885 158.256 240.745 155.502C233.606 152.748 228.041 148.834 224.755 144.254C221.469 139.674 220.609 134.635 222.285 129.773C223.96 124.911 228.095 120.445 234.166 116.94C234.793 116.578 235.145 116.088 235.145 115.577C235.145 115.065 234.793 114.575 234.166 114.213L210.552 100.581C209.925 100.219 209.076 100.016 208.19 100.016C207.304 100.016 206.455 100.219 205.829 100.581C192.039 108.527 183.523 119.017 181.769 130.22L167.573 131.391C166.857 131.45 166.195 131.641 165.684 131.936L142.069 145.569L146.792 148.295L169.619 135.117L181.425 134.143C181.278 141.277 183.88 148.339 189.042 154.821C194.203 161.302 201.795 167.04 211.269 171.62C220.742 176.2 231.861 179.507 243.82 181.302C255.779 183.098 268.28 183.336 280.418 182L280.418 188.395L248.335 206.917L253.058 209.643L286.119 190.557C286.745 190.196 287.097 189.705 287.097 189.194L287.097 181.11C300.653 178.955 313.043 174.855 323.116 169.192C333.189 163.53 340.617 156.488 344.708 148.722L359.797 147.477C360.512 147.418 361.175 147.227 361.686 146.932L392.385 129.209L387.662 126.483L357.75 143.751L346.505 144.679ZM302.571 115.622L321.49 104.7C348.357 121.604 348.354 147.72 321.487 164.624L302.569 153.702C310.541 148.427 314.934 141.663 314.935 134.662C314.935 127.661 310.543 120.897 302.571 115.622ZM208.241 104.7L227.16 115.622C219.188 120.897 214.796 127.661 214.797 134.662C214.797 141.663 219.19 148.427 227.162 153.702L208.244 164.624C181.378 147.72 181.374 121.604 208.241 104.7ZM212.968 167.35L231.886 156.429C241.023 161.031 252.739 163.567 264.866 163.567C276.992 163.567 288.708 161.031 297.846 156.429L316.764 167.35C287.482 182.86 242.249 182.86 212.968 167.35Z" fill="white"/>
<path d="M394.746 136.026L399.469 133.299L404.192 136.026L399.469 138.752L394.746 136.026Z" fill="white"/>
<path d="M371.133 149.659L390.025 138.752L394.748 141.479L375.856 152.385L371.133 149.659Z" fill="white"/>
<path d="M260.141 213.733L264.864 211.006L269.587 213.733L264.864 216.459L260.141 213.733Z" fill="white"/>
<path d="M269.59 208.28L288.482 197.374L293.205 200.1L274.313 211.006L269.59 208.28Z" fill="white"/>
<path d="M295.566 127.846L257.782 106.034C257.156 105.672 256.306 105.469 255.421 105.469C254.535 105.469 253.685 105.672 253.059 106.034L243.613 111.487C242.987 111.848 242.635 112.339 242.635 112.85C242.635 113.361 242.987 113.852 243.613 114.213L248.336 116.94L241.252 121.03C240.626 121.391 240.274 121.882 240.274 122.393C240.274 122.904 240.626 123.395 241.252 123.756L248.336 127.846L241.252 131.936C240.626 132.298 240.274 132.788 240.274 133.299C240.274 133.811 240.626 134.301 241.252 134.663L245.975 137.389L238.89 141.479C238.264 141.841 237.912 142.331 237.912 142.842C237.912 143.354 238.264 143.844 238.89 144.206L253.059 152.385C253.685 152.747 254.535 152.95 255.421 152.95C256.306 152.95 257.156 152.747 257.782 152.385L295.566 130.573C296.192 130.211 296.544 129.721 296.544 129.209C296.544 128.698 296.192 128.208 295.566 127.846ZM245.975 142.842L250.698 140.116L260.144 145.569L255.421 148.295L245.975 142.842ZM248.336 133.299L253.059 130.573L269.59 140.116L264.867 142.842L248.336 133.299ZM248.336 122.393L253.059 119.667L279.035 134.663L274.312 137.389L248.336 122.393ZM288.481 129.209L283.758 131.936L250.698 112.85L255.421 110.124L288.481 129.209Z" fill="white"/>
<path d="M271.949 146.932L276.672 144.206L281.395 146.932L276.672 149.659L271.949 146.932Z" fill="white"/>
<path d="M262.504 152.385L267.227 149.659L271.95 152.385L267.227 155.112L262.504 152.385Z" fill="white"/>
<path d="M281.395 141.479L286.117 138.752L290.84 141.479L286.117 144.206L281.395 141.479Z" fill="white"/>
<path d="M290.84 136.026L295.563 133.299L300.286 136.026L295.563 138.752L290.84 136.026Z" fill="white"/>
</g>
<defs>
<clipPath id="clip0_913_50">
<rect width="174.511" height="174.511" fill="white" transform="matrix(0.866044 -0.499967 0.866044 0.499967 113.73 134.663)"/>
</clipPath>
</defs>
</svg>
