<svg viewBox="0 0 75 75" fill="none" xmlns="http://www.w3.org/2000/svg">
<path d="M63.279 45.9962V7.32616C63.3635 3.39764 59.8692 -0.108458 55.9377 0.00256757H7.3378C3.29561 -0.00417013 0.00249032 3.28397 0.00292973 7.32616V10.2556C0.00292973 11.0646 0.65883 11.7203 1.46765 11.7203H11.7207V64.7432C11.7207 68.7815 15.006 72.0668 19.0443 72.0668H51.5705C60.9711 79.2999 75.1074 72.3075 74.9968 60.3489C74.9968 53.2755 69.9567 47.357 63.279 45.9962ZM11.7207 8.79087H2.93236V7.32616C2.93236 4.90454 4.90153 2.93405 7.32271 2.932H7.32652H7.3378C9.75561 2.93815 11.7207 4.90688 11.7207 7.32616V8.79087ZM23.4384 61.8139V64.7434C23.2168 70.5662 14.8697 70.5618 14.6501 64.7434V7.32616C14.6501 5.67879 14.1033 4.15695 13.1819 2.932H55.948C57.1098 2.92351 58.2111 3.37508 59.0444 4.20279C59.886 5.03856 60.3496 6.14779 60.3496 7.32601V45.7018C52.273 45.7018 45.7024 52.2725 45.7024 60.3489H24.9031C24.0943 60.3492 23.4384 61.005 23.4384 61.8139ZM26.3678 64.7432V63.2785H45.9967C46.4376 65.4419 47.3568 67.4333 48.6387 69.1374H24.8998C25.8211 67.9126 26.3678 66.3905 26.3678 64.7432ZM60.3496 72.067C53.8884 72.067 48.6318 66.8104 48.6318 60.3492C49.221 44.8253 71.4806 44.8295 72.0673 60.3494C72.0673 66.8104 66.8108 72.067 60.3496 72.067Z" fill="#0FA7F0"/>
<path d="M20.5096 23.4381H27.8332C28.642 23.4381 29.2979 22.7823 29.2979 21.9734V14.6498C29.2979 13.8408 28.642 13.1851 27.8332 13.1851H20.5096C19.7008 13.1851 19.0449 13.8408 19.0449 14.6498V21.9734C19.0449 22.7822 19.7008 23.4381 20.5096 23.4381ZM21.9744 16.1145H26.3685V20.5086H21.9744V16.1145Z" fill="#0FA7F0"/>
<path d="M20.5096 38.0855H27.8332C28.642 38.0855 29.2979 37.4298 29.2979 36.6208V29.2972C29.2979 28.4883 28.642 27.8325 27.8332 27.8325H20.5096C19.7008 27.8325 19.0449 28.4883 19.0449 29.2972V36.6208C19.0449 37.4296 19.7008 38.0855 20.5096 38.0855ZM21.9744 30.7618H26.3685V35.156H21.9744V30.7618Z" fill="#0FA7F0"/>
<path d="M29.2979 51.2678V43.9442C29.2979 43.1352 28.642 42.4795 27.8332 42.4795H20.5096C19.7008 42.4795 19.0449 43.1352 19.0449 43.9442V51.2678C19.0449 52.0768 19.7008 52.7325 20.5096 52.7325H27.8332C28.6422 52.7325 29.2979 52.0768 29.2979 51.2678ZM26.3685 49.8031H21.9744V45.4089H26.3685V49.8031Z" fill="#0FA7F0"/>
<path d="M35.1566 16.8469H54.4909C56.4322 16.7749 56.4308 13.9888 54.4909 13.9175H35.1566C33.2153 13.9895 33.2168 16.7756 35.1566 16.8469Z" fill="#0FA7F0"/>
<path d="M48.0702 28.5649H35.3265C33.3852 28.637 33.3867 31.4231 35.3265 31.4944H48.0702C50.0115 31.4223 50.01 28.6363 48.0702 28.5649Z" fill="#0FA7F0"/>
<path d="M49.3645 43.2119H35.1566C33.2153 43.284 33.2168 46.07 35.1566 46.1413H49.3645C51.3059 46.0693 51.3044 43.2832 49.3645 43.2119Z" fill="#0FA7F0"/>
<path d="M35.1566 22.7058H49.3645C51.3059 22.6337 51.3044 19.8477 49.3645 19.7764H35.1566C33.2153 19.8484 33.2168 22.6345 35.1566 22.7058Z" fill="#0FA7F0"/>
<path d="M35.1566 37.3533H43.4324C45.3738 37.2812 45.3723 34.4952 43.4324 34.4238H35.1566C33.2153 34.4959 33.2168 37.2819 35.1566 37.3533Z" fill="#0FA7F0"/>
<path d="M43.4324 49.0708H35.1566C33.2153 49.1429 33.2168 51.9289 35.1566 52.0002H43.4324C45.3738 51.9282 45.3723 49.1421 43.4324 49.0708Z" fill="#0FA7F0"/>
<path d="M61.3359 68.94H59.3739V66.798C57.9939 66.666 56.7879 66.306 55.7559 65.718V63.144C57.0999 64.032 58.6059 64.476 60.2739 64.476C61.0419 64.476 61.6119 64.386 61.9839 64.206C62.3679 64.014 62.5599 63.702 62.5599 63.27C62.5599 62.958 62.4339 62.688 62.1819 62.46C61.9419 62.232 61.6239 62.052 61.2279 61.92C60.8319 61.776 60.3939 61.638 59.9139 61.506C59.4339 61.362 58.9539 61.2 58.4739 61.02C57.9939 60.828 57.5559 60.606 57.1599 60.354C56.7639 60.09 56.4399 59.73 56.1879 59.274C55.9479 58.818 55.8279 58.29 55.8279 57.69C55.8279 56.67 56.1519 55.866 56.7999 55.278C57.4479 54.678 58.3059 54.306 59.3739 54.162V52.02H61.3359V54.18C62.6079 54.3 63.6699 54.6 64.5219 55.08V57.6C63.4539 56.832 62.1579 56.46 60.6339 56.484C59.2659 56.508 58.5819 56.898 58.5819 57.654C58.5819 57.942 58.7019 58.194 58.9419 58.41C59.1939 58.614 59.5179 58.782 59.9139 58.914C60.3219 59.046 60.7659 59.178 61.2459 59.31C61.7259 59.442 62.1999 59.604 62.6679 59.796C63.1479 59.988 63.5859 60.216 63.9819 60.48C64.3899 60.732 64.7139 61.086 64.9539 61.542C65.2059 61.998 65.3319 62.532 65.3319 63.144C65.3319 64.32 64.9659 65.202 64.2339 65.79C63.5139 66.378 62.5479 66.72 61.3359 66.816V68.94Z" fill="#0FA7F0"/>
</svg>
