<svg width="1068" height="613" viewBox="0 0 1068 613" fill="none" xmlns="http://www.w3.org/2000/svg">
<g filter="url(#filter0_d)">
<path d="M50 61C50 52.7157 56.7157 46 65 46H1003C1011.28 46 1018 52.7157 1018 61V544C1018 552.284 1011.28 559 1003 559H65C56.7158 559 50 552.284 50 544V61Z" fill="white"/>
</g>
<path opacity="0.6" d="M867 244C867 273.271 843.271 297 814 297C784.729 297 761 273.271 761 244C761 214.729 784.729 191 814 191C843.271 191 867 214.729 867 244Z" fill="#FFE264"/>
<path d="M867 244C867 256.514 862.572 268.625 854.5 278.188C846.427 287.75 835.232 294.148 822.895 296.248C810.558 298.349 797.876 296.016 787.095 289.663C776.313 283.31 768.127 273.347 763.986 261.538C759.845 249.729 760.016 236.835 764.469 225.14C768.922 213.445 777.37 203.703 788.317 197.639C799.264 191.575 812.003 189.579 824.28 192.007C836.556 194.434 847.578 201.127 855.393 210.9L814 244H867Z" fill="#F28100"/>
<path d="M867 244C867 255.453 863.29 266.598 856.425 275.766C849.561 284.934 839.911 291.632 828.921 294.856C817.931 298.081 806.192 297.658 795.463 293.652C784.733 289.647 775.589 282.273 769.401 272.635C763.214 262.997 760.314 251.615 761.137 240.191C761.96 228.768 766.462 217.918 773.967 209.267C781.473 200.616 791.579 194.629 802.772 192.203C813.966 189.777 825.644 191.042 836.058 195.808L814 244H867Z" fill="#0FA7F0"/>
<path fill-rule="evenodd" clip-rule="evenodd" d="M983 132H645C642.791 132 641 133.791 641 136V317C641 319.209 642.791 321 645 321H983C985.209 321 987 319.209 987 317V136C987 133.791 985.209 132 983 132ZM645 131C642.239 131 640 133.239 640 136V317C640 319.761 642.239 322 645 322H983C985.761 322 988 319.761 988 317V136C988 133.239 985.761 131 983 131H645Z" fill="#E6E6E6"/>
<path d="M640 136C640 133.239 642.239 131 645 131H983C985.761 131 988 133.239 988 136V166H640V136Z" fill="#0FA7F0"/>
<path d="M656.137 155.385H654.577V151.44H655.837C656.957 149.4 657.517 146.42 657.517 142.5H664.282V151.44H665.617V155.385H664.057V153H656.137V155.385ZM659.197 144.075C658.987 147.475 658.487 149.93 657.697 151.44H662.572V144.075H659.197Z" fill="white"/>
<path d="M667.573 152.19C666.813 151.52 666.433 150.59 666.433 149.4C666.433 148.21 666.813 147.28 667.573 146.61C668.343 145.94 669.263 145.605 670.333 145.605C671.413 145.605 672.333 145.94 673.093 146.61C673.853 147.28 674.233 148.21 674.233 149.4C674.233 150.59 673.853 151.52 673.093 152.19C672.333 152.86 671.413 153.195 670.333 153.195C669.263 153.195 668.343 152.86 667.573 152.19ZM671.968 151.095C672.388 150.665 672.598 150.1 672.598 149.4C672.598 148.7 672.388 148.14 671.968 147.72C671.548 147.29 671.003 147.075 670.333 147.075C669.653 147.075 669.103 147.29 668.683 147.72C668.263 148.14 668.053 148.7 668.053 149.4C668.053 150.1 668.263 150.665 668.683 151.095C669.103 151.515 669.653 151.725 670.333 151.725C671.003 151.725 671.548 151.515 671.968 151.095Z" fill="white"/>
<path d="M678.508 147.165C678.448 148.105 678.368 148.91 678.268 149.58C678.168 150.25 678.018 150.87 677.818 151.44C677.618 152 677.353 152.425 677.023 152.715C676.703 152.995 676.308 153.135 675.838 153.135C675.528 153.135 675.198 153.07 674.848 152.94V151.68C675.018 151.74 675.173 151.77 675.313 151.77C675.883 151.77 676.283 151.275 676.513 150.285C676.753 149.285 676.913 147.79 676.993 145.8H682.543V153H680.938V147.165H678.508Z" fill="white"/>
<path d="M685.749 153H683.904L685.884 150.465C685.374 150.285 684.979 149.995 684.699 149.595C684.419 149.195 684.279 148.74 684.279 148.23C684.279 147.54 684.524 146.965 685.014 146.505C685.514 146.035 686.194 145.8 687.054 145.8H690.774V153H689.169V150.645H687.534L685.749 153ZM686.289 147.435C686.039 147.625 685.914 147.895 685.914 148.245C685.914 148.595 686.039 148.87 686.289 149.07C686.539 149.26 686.884 149.355 687.324 149.355H689.169V147.135H687.324C686.884 147.135 686.539 147.235 686.289 147.435Z" fill="white"/>
<path d="M697.931 153H696.326V145.8H697.931V148.695H701.531V145.8H703.136V153H701.531V150.105H697.931V153Z" fill="white"/>
<path d="M711.28 151.335C711.28 151.685 711.455 151.86 711.805 151.86C711.925 151.86 712.085 151.83 712.285 151.77V152.925C711.985 153.045 711.645 153.105 711.265 153.105C710.545 153.105 710.065 152.825 709.825 152.265C709.055 152.885 708.15 153.195 707.11 153.195C706.41 153.195 705.815 153.005 705.325 152.625C704.835 152.235 704.59 151.69 704.59 150.99C704.59 150.15 704.905 149.54 705.535 149.16C706.165 148.77 706.92 148.575 707.8 148.575C708.38 148.575 709.005 148.645 709.675 148.785V148.53C709.675 148.07 709.51 147.7 709.18 147.42C708.85 147.14 708.385 147 707.785 147C706.895 147 706.03 147.185 705.19 147.555V146.085C706.13 145.765 707.05 145.605 707.95 145.605C709 145.605 709.815 145.865 710.395 146.385C710.985 146.905 711.28 147.695 711.28 148.755V151.335ZM708.115 149.7C707.585 149.7 707.14 149.795 706.78 149.985C706.42 150.175 706.24 150.475 706.24 150.885C706.24 151.225 706.37 151.49 706.63 151.68C706.89 151.86 707.21 151.95 707.59 151.95C708.41 151.95 709.105 151.665 709.675 151.095V149.88C709.095 149.76 708.575 149.7 708.115 149.7Z" fill="white"/>
<path d="M714.919 146.925C715.649 146.045 716.574 145.605 717.694 145.605C718.754 145.605 719.614 145.975 720.274 146.715C720.934 147.445 721.264 148.34 721.264 149.4C721.264 150.46 720.934 151.36 720.274 152.1C719.614 152.83 718.754 153.195 717.694 153.195C716.614 153.195 715.749 152.82 715.099 152.07V156.3H713.494V145.8H714.919V146.925ZM718.999 151.125C719.419 150.675 719.629 150.1 719.629 149.4C719.629 148.7 719.419 148.13 718.999 147.69C718.579 147.24 718.044 147.015 717.394 147.015C716.864 147.015 716.394 147.16 715.984 147.45C715.584 147.74 715.289 148.095 715.099 148.515V150.27C715.289 150.7 715.584 151.06 715.984 151.35C716.394 151.64 716.864 151.785 717.394 151.785C718.044 151.785 718.579 151.565 718.999 151.125Z" fill="white"/>
<path d="M725.787 151.23L727.932 145.8H729.612L726.237 153.975C725.547 155.645 724.582 156.48 723.342 156.48C723.052 156.48 722.737 156.44 722.397 156.36V154.995C722.617 155.065 722.862 155.1 723.132 155.1C723.902 155.1 724.497 154.54 724.917 153.42L725.067 153.06L721.647 145.8H723.357L725.787 151.23Z" fill="white"/>
<path d="M741.039 153H730.809V145.8H732.414V151.59H735.129V145.8H736.734V151.59H739.434V145.8H741.039V153Z" fill="white"/>
<path d="M742.605 149.4C742.605 148.78 742.715 148.22 742.935 147.72C743.155 147.21 743.445 146.81 743.805 146.52C744.165 146.22 744.555 145.995 744.975 145.845C745.395 145.685 745.82 145.605 746.25 145.605C746.8 145.605 747.295 145.69 747.735 145.86C748.185 146.03 748.545 146.26 748.815 146.55C749.085 146.84 749.305 147.175 749.475 147.555C749.645 147.935 749.735 148.335 749.745 148.755C749.755 149.165 749.72 149.58 749.64 150H744.225C744.305 150.61 744.605 151.07 745.125 151.38C745.645 151.68 746.265 151.83 746.985 151.83C747.805 151.83 748.565 151.66 749.265 151.32V152.7C748.575 153.03 747.715 153.195 746.685 153.195C745.515 153.195 744.54 152.865 743.76 152.205C742.99 151.545 742.605 150.61 742.605 149.4ZM748.2 148.8C748.26 148.39 748.135 147.98 747.825 147.57C747.525 147.15 747.025 146.94 746.325 146.94C745.755 146.94 745.265 147.105 744.855 147.435C744.455 147.765 744.24 148.22 744.21 148.8H748.2Z" fill="white"/>
<path d="M752.848 153H751.243V145.8H752.848V148.695H756.448V145.8H758.053V153H756.448V150.105H752.848V153Z" fill="white"/>
<path d="M761.442 153H760.062V145.8H761.667V150.51L765.522 145.8H766.902V153H765.297V148.29L761.442 153Z" fill="white"/>
<path d="M774.519 144.18C773.919 144.59 773.189 144.795 772.329 144.795C771.469 144.795 770.739 144.59 770.139 144.18V142.875C770.809 143.295 771.539 143.505 772.329 143.505C773.119 143.505 773.849 143.295 774.519 142.875V144.18ZM770.289 153H768.909V145.8H770.514V150.51L774.369 145.8H775.749V153H774.144V148.29L770.289 153Z" fill="white"/>
<path fill-rule="evenodd" clip-rule="evenodd" d="M324 132H140C137.791 132 136 133.791 136 136V523C136 525.209 137.791 527 140 527H324C326.209 527 328 525.209 328 523V136C328 133.791 326.209 132 324 132ZM140 131C137.239 131 135 133.239 135 136V523C135 525.761 137.239 528 140 528H324C326.761 528 329 525.761 329 523V136C329 133.239 326.761 131 324 131H140Z" fill="#E6E6E6"/>
<path d="M135 136C135 133.239 137.239 131 140 131H324C326.761 131 329 133.239 329 136V166H135V136Z" fill="#0FA7F0"/>
<path d="M150.993 153H149.283V142.5H158.103V153H156.393V144.075H150.993V153Z" fill="white"/>
<path d="M160.895 152.19C160.135 151.52 159.755 150.59 159.755 149.4C159.755 148.21 160.135 147.28 160.895 146.61C161.665 145.94 162.585 145.605 163.655 145.605C164.735 145.605 165.655 145.94 166.415 146.61C167.175 147.28 167.555 148.21 167.555 149.4C167.555 150.59 167.175 151.52 166.415 152.19C165.655 152.86 164.735 153.195 163.655 153.195C162.585 153.195 161.665 152.86 160.895 152.19ZM165.29 151.095C165.71 150.665 165.92 150.1 165.92 149.4C165.92 148.7 165.71 148.14 165.29 147.72C164.87 147.29 164.325 147.075 163.655 147.075C162.975 147.075 162.425 147.29 162.005 147.72C161.585 148.14 161.375 148.7 161.375 149.4C161.375 150.1 161.585 150.665 162.005 151.095C162.425 151.515 162.975 151.725 163.655 151.725C164.325 151.725 164.87 151.515 165.29 151.095Z" fill="white"/>
<path d="M170.491 153H169.111V145.8H170.716V150.51L174.571 145.8H175.951V153H174.346V148.29L170.491 153Z" fill="white"/>
<path d="M177.509 149.46C177.509 148.21 177.904 147.255 178.694 146.595C179.484 145.935 180.414 145.605 181.484 145.605C182.344 145.605 183.084 145.79 183.704 146.16V147.63C183.144 147.23 182.479 147.03 181.709 147.03C180.999 147.03 180.394 147.23 179.894 147.63C179.394 148.02 179.144 148.61 179.144 149.4C179.144 150.17 179.389 150.76 179.879 151.17C180.379 151.57 180.979 151.77 181.679 151.77C182.439 151.77 183.139 151.585 183.779 151.215V152.7C183.089 153.03 182.294 153.195 181.394 153.195C180.344 153.195 179.434 152.875 178.664 152.235C177.894 151.585 177.509 150.66 177.509 149.46Z" fill="white"/>
<path d="M186.99 153H185.385V145.8H186.99V148.65H188.175L190.245 145.8H192.075L189.465 149.37L192.36 153H190.515L188.145 150.015H186.99V153Z" fill="white"/>
<path d="M200.303 153H198.698V147.21H196.208V145.8H202.778V147.21H200.303V153Z" fill="white"/>
<path d="M204.532 152.19C203.772 151.52 203.392 150.59 203.392 149.4C203.392 148.21 203.772 147.28 204.532 146.61C205.302 145.94 206.222 145.605 207.292 145.605C208.372 145.605 209.292 145.94 210.052 146.61C210.812 147.28 211.192 148.21 211.192 149.4C211.192 150.59 210.812 151.52 210.052 152.19C209.292 152.86 208.372 153.195 207.292 153.195C206.222 153.195 205.302 152.86 204.532 152.19ZM208.927 151.095C209.347 150.665 209.557 150.1 209.557 149.4C209.557 148.7 209.347 148.14 208.927 147.72C208.507 147.29 207.962 147.075 207.292 147.075C206.612 147.075 206.062 147.29 205.642 147.72C205.222 148.14 205.012 148.7 205.012 149.4C205.012 150.1 205.222 150.665 205.642 151.095C206.062 151.515 206.612 151.725 207.292 151.725C207.962 151.725 208.507 151.515 208.927 151.095Z" fill="white"/>
<path d="M216.979 153H212.749V145.8H216.859C217.569 145.8 218.124 145.98 218.524 146.34C218.934 146.69 219.139 147.15 219.139 147.72C219.139 148.51 218.799 149.055 218.119 149.355C218.479 149.465 218.774 149.665 219.004 149.955C219.234 150.245 219.349 150.6 219.349 151.02C219.349 151.61 219.149 152.09 218.749 152.46C218.359 152.82 217.769 153 216.979 153ZM214.354 149.94V151.785H216.589C217.349 151.785 217.729 151.48 217.729 150.87C217.729 150.25 217.359 149.94 216.619 149.94H214.354ZM214.354 147.015V148.8H216.499C217.179 148.8 217.519 148.51 217.519 147.93C217.519 147.61 217.419 147.38 217.219 147.24C217.029 147.09 216.789 147.015 216.499 147.015H214.354Z" fill="white"/>
<path d="M227.101 151.335C227.101 151.685 227.276 151.86 227.626 151.86C227.746 151.86 227.906 151.83 228.106 151.77V152.925C227.806 153.045 227.466 153.105 227.086 153.105C226.366 153.105 225.886 152.825 225.646 152.265C224.876 152.885 223.971 153.195 222.931 153.195C222.231 153.195 221.636 153.005 221.146 152.625C220.656 152.235 220.411 151.69 220.411 150.99C220.411 150.15 220.726 149.54 221.356 149.16C221.986 148.77 222.741 148.575 223.621 148.575C224.201 148.575 224.826 148.645 225.496 148.785V148.53C225.496 148.07 225.331 147.7 225.001 147.42C224.671 147.14 224.206 147 223.606 147C222.716 147 221.851 147.185 221.011 147.555V146.085C221.951 145.765 222.871 145.605 223.771 145.605C224.821 145.605 225.636 145.865 226.216 146.385C226.806 146.905 227.101 147.695 227.101 148.755V151.335ZM223.936 149.7C223.406 149.7 222.961 149.795 222.601 149.985C222.241 150.175 222.061 150.475 222.061 150.885C222.061 151.225 222.191 151.49 222.451 151.68C222.711 151.86 223.031 151.95 223.411 151.95C224.231 151.95 224.926 151.665 225.496 151.095V149.88C224.916 149.76 224.396 149.7 223.936 149.7Z" fill="white"/>
<path d="M230.741 146.925C231.471 146.045 232.396 145.605 233.516 145.605C234.576 145.605 235.436 145.975 236.096 146.715C236.756 147.445 237.086 148.34 237.086 149.4C237.086 150.46 236.756 151.36 236.096 152.1C235.436 152.83 234.576 153.195 233.516 153.195C232.436 153.195 231.571 152.82 230.921 152.07V156.3H229.316V145.8H230.741V146.925ZM234.821 151.125C235.241 150.675 235.451 150.1 235.451 149.4C235.451 148.7 235.241 148.13 234.821 147.69C234.401 147.24 233.866 147.015 233.216 147.015C232.686 147.015 232.216 147.16 231.806 147.45C231.406 147.74 231.111 148.095 230.921 148.515V150.27C231.111 150.7 231.406 151.06 231.806 151.35C232.216 151.64 232.686 151.785 233.216 151.785C233.866 151.785 234.401 151.565 234.821 151.125Z" fill="white"/>
<path d="M244.782 151.335C244.782 151.685 244.957 151.86 245.307 151.86C245.427 151.86 245.587 151.83 245.787 151.77V152.925C245.487 153.045 245.147 153.105 244.767 153.105C244.047 153.105 243.567 152.825 243.327 152.265C242.557 152.885 241.652 153.195 240.612 153.195C239.912 153.195 239.317 153.005 238.827 152.625C238.337 152.235 238.092 151.69 238.092 150.99C238.092 150.15 238.407 149.54 239.037 149.16C239.667 148.77 240.422 148.575 241.302 148.575C241.882 148.575 242.507 148.645 243.177 148.785V148.53C243.177 148.07 243.012 147.7 242.682 147.42C242.352 147.14 241.887 147 241.287 147C240.397 147 239.532 147.185 238.692 147.555V146.085C239.632 145.765 240.552 145.605 241.452 145.605C242.502 145.605 243.317 145.865 243.897 146.385C244.487 146.905 244.782 147.695 244.782 148.755V151.335ZM241.617 149.7C241.087 149.7 240.642 149.795 240.282 149.985C239.922 150.175 239.742 150.475 239.742 150.885C239.742 151.225 239.872 151.49 240.132 151.68C240.392 151.86 240.712 151.95 241.092 151.95C241.912 151.95 242.607 151.665 243.177 151.095V149.88C242.597 149.76 242.077 149.7 241.617 149.7Z" fill="white"/>
<path fill-rule="evenodd" clip-rule="evenodd" d="M308 200H156V199H308V200Z" fill="#E6E6E6"/>
<path fill-rule="evenodd" clip-rule="evenodd" d="M308 220H156V219H308V220Z" fill="#E6E6E6"/>
<path d="M156 208C156 206.895 156.895 206 158 206H306C307.105 206 308 206.895 308 208V211C308 212.105 307.105 213 306 213H158C156.895 213 156 212.105 156 211V208Z" fill="#E6E6E6"/>
<path fill-rule="evenodd" clip-rule="evenodd" d="M308 240H156V239H308V240Z" fill="#E6E6E6"/>
<path d="M156 228C156 226.895 156.895 226 158 226H306C307.105 226 308 226.895 308 228V231C308 232.105 307.105 233 306 233H158C156.895 233 156 232.105 156 231V228Z" fill="#E6E6E6"/>
<path fill-rule="evenodd" clip-rule="evenodd" d="M308 260H156V259H308V260Z" fill="#E6E6E6"/>
<path d="M156 248C156 246.895 156.895 246 158 246H306C307.105 246 308 246.895 308 248V251C308 252.105 307.105 253 306 253H158C156.895 253 156 252.105 156 251V248Z" fill="#E6E6E6"/>
<path fill-rule="evenodd" clip-rule="evenodd" d="M308 280H156V279H308V280Z" fill="#E6E6E6"/>
<path d="M156 268C156 266.895 156.895 266 158 266H306C307.105 266 308 266.895 308 268V271C308 272.105 307.105 273 306 273H158C156.895 273 156 272.105 156 271V268Z" fill="#E6E6E6"/>
<path fill-rule="evenodd" clip-rule="evenodd" d="M308 300H156V299H308V300Z" fill="#E6E6E6"/>
<path d="M156 288C156 286.895 156.895 286 158 286H306C307.105 286 308 286.895 308 288V291C308 292.105 307.105 293 306 293H158C156.895 293 156 292.105 156 291V288Z" fill="#E6E6E6"/>
<path fill-rule="evenodd" clip-rule="evenodd" d="M308 320H156V319H308V320Z" fill="#E6E6E6"/>
<path d="M156 308C156 306.895 156.895 306 158 306H306C307.105 306 308 306.895 308 308V311C308 312.105 307.105 313 306 313H158C156.895 313 156 312.105 156 311V308Z" fill="#E6E6E6"/>
<path fill-rule="evenodd" clip-rule="evenodd" d="M308 340H156V339H308V340Z" fill="#E6E6E6"/>
<path d="M156 328C156 326.895 156.895 326 158 326H306C307.105 326 308 326.895 308 328V331C308 332.105 307.105 333 306 333H158C156.895 333 156 332.105 156 331V328Z" fill="#E6E6E6"/>
<path fill-rule="evenodd" clip-rule="evenodd" d="M308 360H156V359H308V360Z" fill="#E6E6E6"/>
<path d="M156 348C156 346.895 156.895 346 158 346H306C307.105 346 308 346.895 308 348V351C308 352.105 307.105 353 306 353H158C156.895 353 156 352.105 156 351V348Z" fill="#E6E6E6"/>
<path fill-rule="evenodd" clip-rule="evenodd" d="M308 380H156V379H308V380Z" fill="#E6E6E6"/>
<path d="M156 368C156 366.895 156.895 366 158 366H306C307.105 366 308 366.895 308 368V371C308 372.105 307.105 373 306 373H158C156.895 373 156 372.105 156 371V368Z" fill="#E6E6E6"/>
<path fill-rule="evenodd" clip-rule="evenodd" d="M308 400H156V399H308V400Z" fill="#E6E6E6"/>
<path d="M156 388C156 386.895 156.895 386 158 386H306C307.105 386 308 386.895 308 388V391C308 392.105 307.105 393 306 393H158C156.895 393 156 392.105 156 391V388Z" fill="#E6E6E6"/>
<path fill-rule="evenodd" clip-rule="evenodd" d="M308 420H156V419H308V420Z" fill="#E6E6E6"/>
<path d="M156 408C156 406.895 156.895 406 158 406H306C307.105 406 308 406.895 308 408V411C308 412.105 307.105 413 306 413H158C156.895 413 156 412.105 156 411V408Z" fill="#E6E6E6"/>
<path fill-rule="evenodd" clip-rule="evenodd" d="M308 440H156V439H308V440Z" fill="#E6E6E6"/>
<path d="M156 428C156 426.895 156.895 426 158 426H306C307.105 426 308 426.895 308 428V431C308 432.105 307.105 433 306 433H158C156.895 433 156 432.105 156 431V428Z" fill="#E6E6E6"/>
<path fill-rule="evenodd" clip-rule="evenodd" d="M308 460H156V459H308V460Z" fill="#E6E6E6"/>
<path d="M156 448C156 446.895 156.895 446 158 446H306C307.105 446 308 446.895 308 448V451C308 452.105 307.105 453 306 453H158C156.895 453 156 452.105 156 451V448Z" fill="#E6E6E6"/>
<path fill-rule="evenodd" clip-rule="evenodd" d="M308 480H156V479H308V480Z" fill="#E6E6E6"/>
<path d="M156 468C156 466.895 156.895 466 158 466H306C307.105 466 308 466.895 308 468V471C308 472.105 307.105 473 306 473H158C156.895 473 156 472.105 156 471V468Z" fill="#E6E6E6"/>
<path fill-rule="evenodd" clip-rule="evenodd" d="M308 500H156V499H308V500Z" fill="#E6E6E6"/>
<path d="M156 488C156 486.895 156.895 486 158 486H306C307.105 486 308 486.895 308 488V491C308 492.105 307.105 493 306 493H158C156.895 493 156 492.105 156 491V488Z" fill="#E6E6E6"/>
<path d="M156 188C156 186.895 156.895 186 158 186H258C259.105 186 260 186.895 260 188V191C260 192.105 259.105 193 258 193H158C156.895 193 156 192.105 156 191V188Z" fill="#B3B3B3"/>
<path fill-rule="evenodd" clip-rule="evenodd" d="M604 132H364C361.791 132 360 133.791 360 136V317C360 319.209 361.791 321 364 321H604C606.209 321 608 319.209 608 317V136C608 133.791 606.209 132 604 132ZM364 131C361.239 131 359 133.239 359 136V317C359 319.761 361.239 322 364 322H604C606.761 322 609 319.761 609 317V136C609 133.239 606.761 131 604 131H364Z" fill="#E6E6E6"/>
<path d="M359 136C359 133.239 361.239 131 364 131H604C606.761 131 609 133.239 609 136V166H359V136Z" fill="#0FA7F0"/>
<path d="M373.901 147.84C373.901 146.94 374.061 146.13 374.381 145.41C374.701 144.69 375.126 144.11 375.656 143.67C376.186 143.22 376.776 142.88 377.426 142.65C378.076 142.42 378.756 142.305 379.466 142.305C380.536 142.305 381.531 142.535 382.451 142.995V144.66C381.701 144.14 380.801 143.88 379.751 143.88C378.641 143.88 377.681 144.215 376.871 144.885C376.061 145.555 375.651 146.54 375.641 147.84C375.641 148.66 375.851 149.365 376.271 149.955C376.691 150.545 377.206 150.97 377.816 151.23C378.426 151.49 379.081 151.62 379.781 151.62C380.901 151.62 381.816 151.35 382.526 150.81V152.505C381.586 152.965 380.571 153.195 379.481 153.195C378.781 153.195 378.106 153.085 377.456 152.865C376.806 152.635 376.211 152.305 375.671 151.875C375.131 151.445 374.701 150.88 374.381 150.18C374.061 149.48 373.901 148.7 373.901 147.84Z" fill="white"/>
<path d="M388.292 153H384.062V145.8H388.172C388.882 145.8 389.437 145.98 389.837 146.34C390.247 146.69 390.452 147.15 390.452 147.72C390.452 148.51 390.112 149.055 389.432 149.355C389.792 149.465 390.087 149.665 390.317 149.955C390.547 150.245 390.662 150.6 390.662 151.02C390.662 151.61 390.462 152.09 390.062 152.46C389.672 152.82 389.082 153 388.292 153ZM385.667 149.94V151.785H387.902C388.662 151.785 389.042 151.48 389.042 150.87C389.042 150.25 388.672 149.94 387.932 149.94H385.667ZM385.667 147.015V148.8H387.812C388.492 148.8 388.832 148.51 388.832 147.93C388.832 147.61 388.732 147.38 388.532 147.24C388.342 147.09 388.102 147.015 387.812 147.015H385.667Z" fill="white"/>
<path d="M392.969 152.19C392.209 151.52 391.829 150.59 391.829 149.4C391.829 148.21 392.209 147.28 392.969 146.61C393.739 145.94 394.659 145.605 395.729 145.605C396.809 145.605 397.729 145.94 398.489 146.61C399.249 147.28 399.629 148.21 399.629 149.4C399.629 150.59 399.249 151.52 398.489 152.19C397.729 152.86 396.809 153.195 395.729 153.195C394.659 153.195 393.739 152.86 392.969 152.19ZM397.364 151.095C397.784 150.665 397.994 150.1 397.994 149.4C397.994 148.7 397.784 148.14 397.364 147.72C396.944 147.29 396.399 147.075 395.729 147.075C395.049 147.075 394.499 147.29 394.079 147.72C393.659 148.14 393.449 148.7 393.449 149.4C393.449 150.1 393.659 150.665 394.079 151.095C394.499 151.515 395.049 151.725 395.729 151.725C396.399 151.725 396.944 151.515 397.364 151.095Z" fill="white"/>
<path d="M401.88 154.935H400.365V151.68H401.355C402.145 150.28 402.525 148.32 402.495 145.8H408.12V151.68H409.185V154.935H407.67V153H401.88V154.935ZM403.995 147.12C403.935 148.92 403.615 150.44 403.035 151.68H406.5V147.12H403.995Z" fill="white"/>
<path d="M412.253 153H410.648V145.8H412.253V148.65H413.438L415.508 145.8H417.338L414.728 149.37L417.623 153H415.778L413.408 150.015H412.253V153Z" fill="white"/>
<path d="M424.738 151.335C424.738 151.685 424.913 151.86 425.263 151.86C425.383 151.86 425.543 151.83 425.743 151.77V152.925C425.443 153.045 425.103 153.105 424.723 153.105C424.003 153.105 423.523 152.825 423.283 152.265C422.513 152.885 421.608 153.195 420.568 153.195C419.868 153.195 419.273 153.005 418.783 152.625C418.293 152.235 418.048 151.69 418.048 150.99C418.048 150.15 418.363 149.54 418.993 149.16C419.623 148.77 420.378 148.575 421.258 148.575C421.838 148.575 422.463 148.645 423.133 148.785V148.53C423.133 148.07 422.968 147.7 422.638 147.42C422.308 147.14 421.843 147 421.243 147C420.353 147 419.488 147.185 418.648 147.555V146.085C419.588 145.765 420.508 145.605 421.408 145.605C422.458 145.605 423.273 145.865 423.853 146.385C424.443 146.905 424.738 147.695 424.738 148.755V151.335ZM421.573 149.7C421.043 149.7 420.598 149.795 420.238 149.985C419.878 150.175 419.698 150.475 419.698 150.885C419.698 151.225 419.828 151.49 420.088 151.68C420.348 151.86 420.668 151.95 421.048 151.95C421.868 151.95 422.563 151.665 423.133 151.095V149.88C422.553 149.76 422.033 149.7 421.573 149.7Z" fill="white"/>
<path d="M432.102 153H430.497V145.8H437.307V153H435.702V147.21H432.102V153Z" fill="white"/>
<path d="M440.005 152.19C439.245 151.52 438.865 150.59 438.865 149.4C438.865 148.21 439.245 147.28 440.005 146.61C440.775 145.94 441.695 145.605 442.765 145.605C443.845 145.605 444.765 145.94 445.525 146.61C446.285 147.28 446.665 148.21 446.665 149.4C446.665 150.59 446.285 151.52 445.525 152.19C444.765 152.86 443.845 153.195 442.765 153.195C441.695 153.195 440.775 152.86 440.005 152.19ZM444.4 151.095C444.82 150.665 445.03 150.1 445.03 149.4C445.03 148.7 444.82 148.14 444.4 147.72C443.98 147.29 443.435 147.075 442.765 147.075C442.085 147.075 441.535 147.29 441.115 147.72C440.695 148.14 440.485 148.7 440.485 149.4C440.485 150.1 440.695 150.665 441.115 151.095C441.535 151.515 442.085 151.725 442.765 151.725C443.435 151.725 443.98 151.515 444.4 151.095Z" fill="white"/>
<path d="M453.372 153H451.767V145.8H453.372V148.695H456.972V145.8H458.577V153H456.972V150.105H453.372V153Z" fill="white"/>
<path d="M466.72 151.335C466.72 151.685 466.895 151.86 467.245 151.86C467.365 151.86 467.525 151.83 467.725 151.77V152.925C467.425 153.045 467.085 153.105 466.705 153.105C465.985 153.105 465.505 152.825 465.265 152.265C464.495 152.885 463.59 153.195 462.55 153.195C461.85 153.195 461.255 153.005 460.765 152.625C460.275 152.235 460.03 151.69 460.03 150.99C460.03 150.15 460.345 149.54 460.975 149.16C461.605 148.77 462.36 148.575 463.24 148.575C463.82 148.575 464.445 148.645 465.115 148.785V148.53C465.115 148.07 464.95 147.7 464.62 147.42C464.29 147.14 463.825 147 463.225 147C462.335 147 461.47 147.185 460.63 147.555V146.085C461.57 145.765 462.49 145.605 463.39 145.605C464.44 145.605 465.255 145.865 465.835 146.385C466.425 146.905 466.72 147.695 466.72 148.755V151.335ZM463.555 149.7C463.025 149.7 462.58 149.795 462.22 149.985C461.86 150.175 461.68 150.475 461.68 150.885C461.68 151.225 461.81 151.49 462.07 151.68C462.33 151.86 462.65 151.95 463.03 151.95C463.85 151.95 464.545 151.665 465.115 151.095V149.88C464.535 149.76 464.015 149.7 463.555 149.7Z" fill="white"/>
<path d="M470.36 146.925C471.09 146.045 472.015 145.605 473.135 145.605C474.195 145.605 475.055 145.975 475.715 146.715C476.375 147.445 476.705 148.34 476.705 149.4C476.705 150.46 476.375 151.36 475.715 152.1C475.055 152.83 474.195 153.195 473.135 153.195C472.055 153.195 471.19 152.82 470.54 152.07V156.3H468.935V145.8H470.36V146.925ZM474.44 151.125C474.86 150.675 475.07 150.1 475.07 149.4C475.07 148.7 474.86 148.13 474.44 147.69C474.02 147.24 473.485 147.015 472.835 147.015C472.305 147.015 471.835 147.16 471.425 147.45C471.025 147.74 470.73 148.095 470.54 148.515V150.27C470.73 150.7 471.025 151.06 471.425 151.35C471.835 151.64 472.305 151.785 472.835 151.785C473.485 151.785 474.02 151.565 474.44 151.125Z" fill="white"/>
<path d="M481.227 151.23L483.372 145.8H485.052L481.677 153.975C480.987 155.645 480.022 156.48 478.782 156.48C478.492 156.48 478.177 156.44 477.837 156.36V154.995C478.057 155.065 478.302 155.1 478.572 155.1C479.342 155.1 479.937 154.54 480.357 153.42L480.507 153.06L477.087 145.8H478.797L481.227 151.23Z" fill="white"/>
<path d="M496.479 153H486.249V145.8H487.854V151.59H490.569V145.8H492.174V151.59H494.874V145.8H496.479V153Z" fill="white"/>
<path d="M498.045 149.4C498.045 148.78 498.155 148.22 498.375 147.72C498.595 147.21 498.885 146.81 499.245 146.52C499.605 146.22 499.995 145.995 500.415 145.845C500.835 145.685 501.26 145.605 501.69 145.605C502.24 145.605 502.735 145.69 503.175 145.86C503.625 146.03 503.985 146.26 504.255 146.55C504.525 146.84 504.745 147.175 504.915 147.555C505.085 147.935 505.175 148.335 505.185 148.755C505.195 149.165 505.16 149.58 505.08 150H499.665C499.745 150.61 500.045 151.07 500.565 151.38C501.085 151.68 501.705 151.83 502.425 151.83C503.245 151.83 504.005 151.66 504.705 151.32V152.7C504.015 153.03 503.155 153.195 502.125 153.195C500.955 153.195 499.98 152.865 499.2 152.205C498.43 151.545 498.045 150.61 498.045 149.4ZM503.64 148.8C503.7 148.39 503.575 147.98 503.265 147.57C502.965 147.15 502.465 146.94 501.765 146.94C501.195 146.94 500.705 147.105 500.295 147.435C499.895 147.765 499.68 148.22 499.65 148.8H503.64Z" fill="white"/>
<path d="M508.289 153H506.684V145.8H508.289V148.695H511.889V145.8H513.494V153H511.889V150.105H508.289V153Z" fill="white"/>
<path d="M516.882 153H515.502V145.8H517.107V150.51L520.962 145.8H522.342V153H520.737V148.29L516.882 153Z" fill="white"/>
<path d="M525.55 153H523.705L525.685 150.465C525.175 150.285 524.78 149.995 524.5 149.595C524.22 149.195 524.08 148.74 524.08 148.23C524.08 147.54 524.325 146.965 524.815 146.505C525.315 146.035 525.995 145.8 526.855 145.8H530.575V153H528.97V150.645H527.335L525.55 153ZM526.09 147.435C525.84 147.625 525.715 147.895 525.715 148.245C525.715 148.595 525.84 148.87 526.09 149.07C526.34 149.26 526.685 149.355 527.125 149.355H528.97V147.135H527.125C526.685 147.135 526.34 147.235 526.09 147.435Z" fill="white"/>
<path d="M534.127 153H532.582V145.8H534.202L536.647 149.595L539.107 145.8H540.727V153H539.182V148.125L537.127 151.275H536.167L534.127 148.125V153Z" fill="white"/>
<path d="M380 189C380 187.343 381.343 186 383 186H585C586.657 186 588 187.343 588 189V198C588 199.657 586.657 201 585 201H383C381.343 201 380 199.657 380 198V189Z" fill="#E6E6E6"/>
<path d="M385 192C385 190.895 385.895 190 387 190H428C429.105 190 430 190.895 430 192V195C430 196.105 429.105 197 428 197H387C385.895 197 385 196.105 385 195V192Z" fill="#B3B3B3"/>
<path d="M436 192C436 190.895 436.895 190 438 190H479C480.105 190 481 190.895 481 192V195C481 196.105 480.105 197 479 197H438C436.895 197 436 196.105 436 195V192Z" fill="#B3B3B3"/>
<path d="M487 192C487 190.895 487.895 190 489 190H530C531.105 190 532 190.895 532 192V195C532 196.105 531.105 197 530 197H489C487.895 197 487 196.105 487 195V192Z" fill="#B3B3B3"/>
<path d="M538 192C538 190.895 538.895 190 540 190H581C582.105 190 583 190.895 583 192V195C583 196.105 582.105 197 581 197H540C538.895 197 538 196.105 538 195V192Z" fill="#B3B3B3"/>
<path fill-rule="evenodd" clip-rule="evenodd" d="M588 219H380V218H588V219Z" fill="#E1E1E9"/>
<path d="M385 208C385 206.895 385.895 206 387 206H428C429.105 206 430 206.895 430 208V211C430 212.105 429.105 213 428 213H387C385.895 213 385 212.105 385 211V208Z" fill="#B3B3B3"/>
<path d="M436 208C436 206.895 436.895 206 438 206H479C480.105 206 481 206.895 481 208V211C481 212.105 480.105 213 479 213H438C436.895 213 436 212.105 436 211V208Z" fill="#E6E6E6"/>
<path d="M487 208C487 206.895 487.895 206 489 206H530C531.105 206 532 206.895 532 208V211C532 212.105 531.105 213 530 213H489C487.895 213 487 212.105 487 211V208Z" fill="#E6E6E6"/>
<path d="M538 208C538 206.895 538.895 206 540 206H581C582.105 206 583 206.895 583 208V211C583 212.105 582.105 213 581 213H540C538.895 213 538 212.105 538 211V208Z" fill="#E6E6E6"/>
<path fill-rule="evenodd" clip-rule="evenodd" d="M588 237H380V236H588V237Z" fill="#E1E1E9"/>
<path d="M385 226C385 224.895 385.895 224 387 224H428C429.105 224 430 224.895 430 226V229C430 230.105 429.105 231 428 231H387C385.895 231 385 230.105 385 229V226Z" fill="#B3B3B3"/>
<path d="M436 226C436 224.895 436.895 224 438 224H479C480.105 224 481 224.895 481 226V229C481 230.105 480.105 231 479 231H438C436.895 231 436 230.105 436 229V226Z" fill="#E6E6E6"/>
<path d="M487 226C487 224.895 487.895 224 489 224H530C531.105 224 532 224.895 532 226V229C532 230.105 531.105 231 530 231H489C487.895 231 487 230.105 487 229V226Z" fill="#E6E6E6"/>
<path d="M538 226C538 224.895 538.895 224 540 224H581C582.105 224 583 224.895 583 226V229C583 230.105 582.105 231 581 231H540C538.895 231 538 230.105 538 229V226Z" fill="#E6E6E6"/>
<path fill-rule="evenodd" clip-rule="evenodd" d="M588 255H380V254H588V255Z" fill="#E1E1E9"/>
<path d="M385 244C385 242.895 385.895 242 387 242H428C429.105 242 430 242.895 430 244V247C430 248.105 429.105 249 428 249H387C385.895 249 385 248.105 385 247V244Z" fill="#B3B3B3"/>
<path d="M436 244C436 242.895 436.895 242 438 242H479C480.105 242 481 242.895 481 244V247C481 248.105 480.105 249 479 249H438C436.895 249 436 248.105 436 247V244Z" fill="#E6E6E6"/>
<path d="M487 244C487 242.895 487.895 242 489 242H530C531.105 242 532 242.895 532 244V247C532 248.105 531.105 249 530 249H489C487.895 249 487 248.105 487 247V244Z" fill="#E6E6E6"/>
<path d="M538 244C538 242.895 538.895 242 540 242H581C582.105 242 583 242.895 583 244V247C583 248.105 582.105 249 581 249H540C538.895 249 538 248.105 538 247V244Z" fill="#E6E6E6"/>
<path fill-rule="evenodd" clip-rule="evenodd" d="M588 273H380V272H588V273Z" fill="#E1E1E9"/>
<path d="M385 262C385 260.895 385.895 260 387 260H428C429.105 260 430 260.895 430 262V265C430 266.105 429.105 267 428 267H387C385.895 267 385 266.105 385 265V262Z" fill="#B3B3B3"/>
<path d="M436 262C436 260.895 436.895 260 438 260H479C480.105 260 481 260.895 481 262V265C481 266.105 480.105 267 479 267H438C436.895 267 436 266.105 436 265V262Z" fill="#E6E6E6"/>
<path d="M487 262C487 260.895 487.895 260 489 260H530C531.105 260 532 260.895 532 262V265C532 266.105 531.105 267 530 267H489C487.895 267 487 266.105 487 265V262Z" fill="#E6E6E6"/>
<path d="M538 262C538 260.895 538.895 260 540 260H581C582.105 260 583 260.895 583 262V265C583 266.105 582.105 267 581 267H540C538.895 267 538 266.105 538 265V262Z" fill="#E6E6E6"/>
<path fill-rule="evenodd" clip-rule="evenodd" d="M588 291H380V290H588V291Z" fill="#E1E1E9"/>
<path d="M385 280C385 278.895 385.895 278 387 278H428C429.105 278 430 278.895 430 280V283C430 284.105 429.105 285 428 285H387C385.895 285 385 284.105 385 283V280Z" fill="#B3B3B3"/>
<path d="M436 280C436 278.895 436.895 278 438 278H479C480.105 278 481 278.895 481 280V283C481 284.105 480.105 285 479 285H438C436.895 285 436 284.105 436 283V280Z" fill="#E6E6E6"/>
<path d="M487 280C487 278.895 487.895 278 489 278H530C531.105 278 532 278.895 532 280V283C532 284.105 531.105 285 530 285H489C487.895 285 487 284.105 487 283V280Z" fill="#E6E6E6"/>
<path d="M538 280C538 278.895 538.895 278 540 278H581C582.105 278 583 278.895 583 280V283C583 284.105 582.105 285 581 285H540C538.895 285 538 284.105 538 283V280Z" fill="#E6E6E6"/>
<path d="M385 298C385 296.895 385.895 296 387 296H428C429.105 296 430 296.895 430 298V301C430 302.105 429.105 303 428 303H387C385.895 303 385 302.105 385 301V298Z" fill="#B3B3B3"/>
<path d="M436 298C436 296.895 436.895 296 438 296H479C480.105 296 481 296.895 481 298V301C481 302.105 480.105 303 479 303H438C436.895 303 436 302.105 436 301V298Z" fill="#E6E6E6"/>
<path d="M487 298C487 296.895 487.895 296 489 296H530C531.105 296 532 296.895 532 298V301C532 302.105 531.105 303 530 303H489C487.895 303 487 302.105 487 301V298Z" fill="#E6E6E6"/>
<path d="M538 298C538 296.895 538.895 296 540 296H581C582.105 296 583 296.895 583 298V301C583 302.105 582.105 303 581 303H540C538.895 303 538 302.105 538 301V298Z" fill="#E6E6E6"/>
<path fill-rule="evenodd" clip-rule="evenodd" d="M983 383H364C361.791 383 360 384.791 360 387V523C360 525.209 361.791 527 364 527H983C985.209 527 987 525.209 987 523V387C987 384.791 985.209 383 983 383ZM364 382C361.239 382 359 384.239 359 387V523C359 525.761 361.239 528 364 528H983C985.761 528 988 525.761 988 523V387C988 384.239 985.761 382 983 382H364Z" fill="#E6E6E6"/>
<path d="M359 357C359 354.239 361.239 352 364 352H983C985.761 352 988 354.239 988 357V387H359V357Z" fill="#0FA7F0"/>
<path d="M375.319 373H373.504L377.944 362.5H379.819L384.244 373H382.444L381.514 370.735H376.249L375.319 373ZM378.679 364.75L376.834 369.235H380.914L379.069 364.75C378.989 364.53 378.924 364.335 378.874 364.165C378.824 364.335 378.759 364.53 378.679 364.75Z" fill="white"/>
<path d="M386.937 373H385.332V365.8H386.937V368.695H390.537V365.8H392.142V373H390.537V370.105H386.937V373Z" fill="white"/>
<path d="M400.285 371.335C400.285 371.685 400.46 371.86 400.81 371.86C400.93 371.86 401.09 371.83 401.29 371.77V372.925C400.99 373.045 400.65 373.105 400.27 373.105C399.55 373.105 399.07 372.825 398.83 372.265C398.06 372.885 397.155 373.195 396.115 373.195C395.415 373.195 394.82 373.005 394.33 372.625C393.84 372.235 393.595 371.69 393.595 370.99C393.595 370.15 393.91 369.54 394.54 369.16C395.17 368.77 395.925 368.575 396.805 368.575C397.385 368.575 398.01 368.645 398.68 368.785V368.53C398.68 368.07 398.515 367.7 398.185 367.42C397.855 367.14 397.39 367 396.79 367C395.9 367 395.035 367.185 394.195 367.555V366.085C395.135 365.765 396.055 365.605 396.955 365.605C398.005 365.605 398.82 365.865 399.4 366.385C399.99 366.905 400.285 367.695 400.285 368.755V371.335ZM397.12 369.7C396.59 369.7 396.145 369.795 395.785 369.985C395.425 370.175 395.245 370.475 395.245 370.885C395.245 371.225 395.375 371.49 395.635 371.68C395.895 371.86 396.215 371.95 396.595 371.95C397.415 371.95 398.11 371.665 398.68 371.095V369.88C398.1 369.76 397.58 369.7 397.12 369.7Z" fill="white"/>
<path d="M405.365 367.165C405.305 368.105 405.225 368.91 405.125 369.58C405.025 370.25 404.875 370.87 404.675 371.44C404.475 372 404.21 372.425 403.88 372.715C403.56 372.995 403.165 373.135 402.695 373.135C402.385 373.135 402.055 373.07 401.705 372.94V371.68C401.875 371.74 402.03 371.77 402.17 371.77C402.74 371.77 403.14 371.275 403.37 370.285C403.61 369.285 403.77 367.79 403.85 365.8H409.4V373H407.795V367.165H405.365Z" fill="white"/>
<path d="M412.786 373H411.406V365.8H413.011V370.51L416.866 365.8H418.246V373H416.641V368.29L412.786 373Z" fill="white"/>
<path d="M425.894 371.035C425.894 371.685 425.599 372.21 425.009 372.61C424.429 373 423.599 373.195 422.519 373.195C421.469 373.195 420.569 373 419.819 372.61V371.23C420.529 371.63 421.359 371.83 422.309 371.83C423.619 371.83 424.274 371.5 424.274 370.84C424.274 370.25 423.774 369.955 422.774 369.955H421.304V368.725H422.774C423.674 368.725 424.124 368.455 424.124 367.915C424.124 367.605 423.969 367.37 423.659 367.21C423.349 367.04 422.929 366.955 422.399 366.955C421.499 366.955 420.684 367.15 419.954 367.54V366.16C420.744 365.78 421.624 365.59 422.594 365.59C423.644 365.59 424.429 365.785 424.949 366.175C425.479 366.565 425.744 367.075 425.744 367.705C425.744 368.115 425.629 368.46 425.399 368.74C425.169 369.02 424.859 369.21 424.469 369.31C424.899 369.43 425.244 369.64 425.504 369.94C425.764 370.23 425.894 370.595 425.894 371.035Z" fill="white"/>
<path d="M432.655 373H431.05V365.8H432.655V368.695H436.255V365.8H437.86V373H436.255V370.105H432.655V373Z" fill="white"/>
<path d="M440.558 372.19C439.798 371.52 439.418 370.59 439.418 369.4C439.418 368.21 439.798 367.28 440.558 366.61C441.328 365.94 442.248 365.605 443.318 365.605C444.398 365.605 445.318 365.94 446.078 366.61C446.838 367.28 447.218 368.21 447.218 369.4C447.218 370.59 446.838 371.52 446.078 372.19C445.318 372.86 444.398 373.195 443.318 373.195C442.248 373.195 441.328 372.86 440.558 372.19ZM444.953 371.095C445.373 370.665 445.583 370.1 445.583 369.4C445.583 368.7 445.373 368.14 444.953 367.72C444.533 367.29 443.988 367.075 443.318 367.075C442.638 367.075 442.088 367.29 441.668 367.72C441.248 368.14 441.038 368.7 441.038 369.4C441.038 370.1 441.248 370.665 441.668 371.095C442.088 371.515 442.638 371.725 443.318 371.725C443.988 371.725 444.533 371.515 444.953 371.095Z" fill="white"/>
<path d="M453.004 373H448.774V365.8H452.884C453.594 365.8 454.149 365.98 454.549 366.34C454.959 366.69 455.164 367.15 455.164 367.72C455.164 368.51 454.824 369.055 454.144 369.355C454.504 369.465 454.799 369.665 455.029 369.955C455.259 370.245 455.374 370.6 455.374 371.02C455.374 371.61 455.174 372.09 454.774 372.46C454.384 372.82 453.794 373 453.004 373ZM450.379 369.94V371.785H452.614C453.374 371.785 453.754 371.48 453.754 370.87C453.754 370.25 453.384 369.94 452.644 369.94H450.379ZM450.379 367.015V368.8H452.524C453.204 368.8 453.544 368.51 453.544 367.93C453.544 367.61 453.444 367.38 453.244 367.24C453.054 367.09 452.814 367.015 452.524 367.015H450.379Z" fill="white"/>
<path d="M458.372 373H456.992V365.8H458.597V370.51L462.452 365.8H463.832V373H462.227V368.29L458.372 373Z" fill="white"/>
<path d="M467.445 373H465.84V365.8H467.445V368.695H471.045V365.8H472.65V373H471.045V370.105H467.445V373Z" fill="white"/>
<path d="M475.348 372.19C474.588 371.52 474.208 370.59 474.208 369.4C474.208 368.21 474.588 367.28 475.348 366.61C476.118 365.94 477.038 365.605 478.108 365.605C479.188 365.605 480.108 365.94 480.868 366.61C481.628 367.28 482.008 368.21 482.008 369.4C482.008 370.59 481.628 371.52 480.868 372.19C480.108 372.86 479.188 373.195 478.108 373.195C477.038 373.195 476.118 372.86 475.348 372.19ZM479.743 371.095C480.163 370.665 480.373 370.1 480.373 369.4C480.373 368.7 480.163 368.14 479.743 367.72C479.323 367.29 478.778 367.075 478.108 367.075C477.428 367.075 476.878 367.29 476.458 367.72C476.038 368.14 475.828 368.7 475.828 369.4C475.828 370.1 476.038 370.665 476.458 371.095C476.878 371.515 477.428 371.725 478.108 371.725C478.778 371.725 479.323 371.515 479.743 371.095Z" fill="white"/>
<path d="M485.169 373H483.564V365.8H485.169V368.65H486.354L488.424 365.8H490.254L487.644 369.37L490.539 373H488.694L486.324 370.015H485.169V373Z" fill="white"/>
<path d="M379 472C379 470.895 379.895 470 381 470H390C391.105 470 392 470.895 392 472V505C392 506.105 391.105 507 390 507H381C379.895 507 379 506.105 379 505V472Z" fill="#0FA7F0"/>
<path d="M563 472C563 470.895 563.895 470 565 470H574C575.105 470 576 470.895 576 472V505C576 506.105 575.105 507 574 507H565C563.895 507 563 506.105 563 505V472Z" fill="#0FA7F0"/>
<path d="M402 472C402 470.895 402.895 470 404 470H413C414.105 470 415 470.895 415 472V505C415 506.105 414.105 507 413 507H404C402.895 507 402 506.105 402 505V472Z" fill="#0FA7F0"/>
<path d="M586 472C586 470.895 586.895 470 588 470H597C598.105 470 599 470.895 599 472V505C599 506.105 598.105 507 597 507H588C586.895 507 586 506.105 586 505V472Z" fill="#0FA7F0"/>
<path d="M517 472C517 470.895 517.895 470 519 470H528C529.105 470 530 470.895 530 472V505C530 506.105 529.105 507 528 507H519C517.895 507 517 506.105 517 505V472Z" fill="#0FA7F0"/>
<path d="M701 472C701 470.895 701.895 470 703 470H712C713.105 470 714 470.895 714 472V505C714 506.105 713.105 507 712 507H703C701.895 507 701 506.105 701 505V472Z" fill="#0FA7F0"/>
<path d="M540 490C540 488.895 540.895 488 542 488H551C552.105 488 553 488.895 553 490V505C553 506.105 552.105 507 551 507H542C540.895 507 540 506.105 540 505V490Z" fill="#0FA7F0"/>
<path d="M724 490C724 488.895 724.895 488 726 488H735C736.105 488 737 488.895 737 490V505C737 506.105 736.105 507 735 507H726C724.895 507 724 506.105 724 505V490Z" fill="#0FA7F0"/>
<path d="M908 490C908 488.895 908.895 488 910 488H919C920.105 488 921 488.895 921 490V505C921 506.105 920.105 507 919 507H910C908.895 507 908 506.105 908 505V490Z" fill="#0FA7F0"/>
<path d="M931 490C931 488.895 931.895 488 933 488H942C943.105 488 944 488.895 944 490V505C944 506.105 943.105 507 942 507H933C931.895 507 931 506.105 931 505V490Z" fill="#0FA7F0"/>
<path d="M425 461C425 459.895 425.895 459 427 459H436C437.105 459 438 459.895 438 461V505C438 506.105 437.105 507 436 507H427C425.895 507 425 506.105 425 505V461Z" fill="#0FA7F0"/>
<path d="M609 461C609 459.895 609.895 459 611 459H620C621.105 459 622 459.895 622 461V505C622 506.105 621.105 507 620 507H611C609.895 507 609 506.105 609 505V461Z" fill="#0FA7F0"/>
<path d="M747 461C747 459.895 747.895 459 749 459H758C759.105 459 760 459.895 760 461V505C760 506.105 759.105 507 758 507H749C747.895 507 747 506.105 747 505V461Z" fill="#0FA7F0"/>
<path d="M494 461C494 459.895 494.895 459 496 459H505C506.105 459 507 459.895 507 461V505C507 506.105 506.105 507 505 507H496C494.895 507 494 506.105 494 505V461Z" fill="#0FA7F0"/>
<path d="M678 461C678 459.895 678.895 459 680 459H689C690.105 459 691 459.895 691 461V505C691 506.105 690.105 507 689 507H680C678.895 507 678 506.105 678 505V461Z" fill="#0FA7F0"/>
<path d="M816 461C816 459.895 816.895 459 818 459H827C828.105 459 829 459.895 829 461V505C829 506.105 828.105 507 827 507H818C816.895 507 816 506.105 816 505V461Z" fill="#0FA7F0"/>
<path d="M839 501C839 499.895 839.895 499 841 499H850C851.105 499 852 499.895 852 501V505C852 506.105 851.105 507 850 507H841C839.895 507 839 506.105 839 505V501Z" fill="#0FA7F0"/>
<path d="M448 430C448 428.895 448.895 428 450 428H459C460.105 428 461 428.895 461 430V505C461 506.105 460.105 507 459 507H450C448.895 507 448 506.105 448 505V430Z" fill="#0FA7F0"/>
<path d="M632 430C632 428.895 632.895 428 634 428H643C644.105 428 645 428.895 645 430V505C645 506.105 644.105 507 643 507H634C632.895 507 632 506.105 632 505V430Z" fill="#0FA7F0"/>
<path d="M770 430C770 428.895 770.895 428 772 428H781C782.105 428 783 428.895 783 430V505C783 506.105 782.105 507 781 507H772C770.895 507 770 506.105 770 505V430Z" fill="#0FA7F0"/>
<path d="M862 430C862 428.895 862.895 428 864 428H873C874.105 428 875 428.895 875 430V505C875 506.105 874.105 507 873 507H864C862.895 507 862 506.105 862 505V430Z" fill="#0FA7F0"/>
<path d="M885 453C885 451.895 885.895 451 887 451H896C897.105 451 898 451.895 898 453V505C898 506.105 897.105 507 896 507H887C885.895 507 885 506.105 885 505V453Z" fill="#0FA7F0"/>
<path d="M471 430C471 428.895 471.895 428 473 428H482C483.105 428 484 428.895 484 430V505C484 506.105 483.105 507 482 507H473C471.895 507 471 506.105 471 505V430Z" fill="#0FA7F0"/>
<path d="M655 430C655 428.895 655.895 428 657 428H666C667.105 428 668 428.895 668 430V505C668 506.105 667.105 507 666 507H657C655.895 507 655 506.105 655 505V430Z" fill="#0FA7F0"/>
<path d="M954 430C954 428.895 954.895 428 956 428H965C966.105 428 967 428.895 967 430V505C967 506.105 966.105 507 965 507H956C954.895 507 954 506.105 954 505V430Z" fill="#0FA7F0"/>
<path d="M793 430C793 428.895 793.895 428 795 428H804C805.105 428 806 428.895 806 430V505C806 506.105 805.105 507 804 507H795C793.895 507 793 506.105 793 505V430Z" fill="#0FA7F0"/>
<path d="M379 428C379 426.895 379.895 426 381 426H390C391.105 426 392 426.895 392 428V467C392 468.105 391.105 469 390 469H381C379.895 469 379 468.105 379 467V428Z" fill="#FFEEA2"/>
<path d="M563 428C563 426.895 563.895 426 565 426H574C575.105 426 576 426.895 576 428V467C576 468.105 575.105 469 574 469H565C563.895 469 563 468.105 563 467V428Z" fill="#FFEEA2"/>
<path d="M402 461C402 459.895 402.895 459 404 459H413C414.105 459 415 459.895 415 461V467C415 468.105 414.105 469 413 469H404C402.895 469 402 468.105 402 467V461Z" fill="#FFEEA2"/>
<path d="M586 461C586 459.895 586.895 459 588 459H597C598.105 459 599 459.895 599 461V467C599 468.105 598.105 469 597 469H588C586.895 469 586 468.105 586 467V461Z" fill="#FFEEA2"/>
<path d="M517 461C517 459.895 517.895 459 519 459H528C529.105 459 530 459.895 530 461V467C530 468.105 529.105 469 528 469H519C517.895 469 517 468.105 517 467V461Z" fill="#FFEEA2"/>
<path d="M701 461C701 459.895 701.895 459 703 459H712C713.105 459 714 459.895 714 461V467C714 468.105 713.105 469 712 469H703C701.895 469 701 468.105 701 467V461Z" fill="#FFEEA2"/>
<path d="M724 461C724 459.895 724.895 459 726 459H735C736.105 459 737 459.895 737 461V485C737 486.105 736.105 487 735 487H726C724.895 487 724 486.105 724 485V461Z" fill="#FFEEA2"/>
<path d="M540 461C540 459.895 540.895 459 542 459H551C552.105 459 553 459.895 553 461V485C553 486.105 552.105 487 551 487H542C540.895 487 540 486.105 540 485V461Z" fill="#FFEEA2"/>
<path d="M908 461C908 459.895 908.895 459 910 459H919C920.105 459 921 459.895 921 461V485C921 486.105 920.105 487 919 487H910C908.895 487 908 486.105 908 485V461Z" fill="#FFEEA2"/>
<path d="M931 461C931 459.895 931.895 459 933 459H942C943.105 459 944 459.895 944 461V485C944 486.105 943.105 487 942 487H933C931.895 487 931 486.105 931 485V461Z" fill="#FFEEA2"/>
<path d="M425 419C425 417.895 425.895 417 427 417H436C437.105 417 438 417.895 438 419V456C438 457.105 437.105 458 436 458H427C425.895 458 425 457.105 425 456V419Z" fill="#FFEEA2"/>
<path d="M609 419C609 417.895 609.895 417 611 417H620C621.105 417 622 417.895 622 419V456C622 457.105 621.105 458 620 458H611C609.895 458 609 457.105 609 456V419Z" fill="#FFEEA2"/>
<path d="M747 419C747 417.895 747.895 417 749 417H758C759.105 417 760 417.895 760 419V456C760 457.105 759.105 458 758 458H749C747.895 458 747 457.105 747 456V419Z" fill="#FFEEA2"/>
<path d="M494 419C494 417.895 494.895 417 496 417H505C506.105 417 507 417.895 507 419V456C507 457.105 506.105 458 505 458H496C494.895 458 494 457.105 494 456V419Z" fill="#FFEEA2"/>
<path d="M678 419C678 417.895 678.895 417 680 417H689C690.105 417 691 417.895 691 419V456C691 457.105 690.105 458 689 458H680C678.895 458 678 457.105 678 456V419Z" fill="#FFEEA2"/>
<path d="M816 419C816 417.895 816.895 417 818 417H827C828.105 417 829 417.895 829 419V456C829 457.105 828.105 458 827 458H818C816.895 458 816 457.105 816 456V419Z" fill="#FFEEA2"/>
<path d="M839 478C839 476.895 839.895 476 841 476H850C851.105 476 852 476.895 852 478V496C852 497.105 851.105 498 850 498H841C839.895 498 839 497.105 839 496V478Z" fill="#FFEEA2"/>
<path d="M448 419C448 417.895 448.895 417 450 417H459C460.105 417 461 417.895 461 419V425C461 426.105 460.105 427 459 427H450C448.895 427 448 426.105 448 425V419Z" fill="#FFEEA2"/>
<path d="M632 419C632 417.895 632.895 417 634 417H643C644.105 417 645 417.895 645 419V425C645 426.105 644.105 427 643 427H634C632.895 427 632 426.105 632 425V419Z" fill="#FFEEA2"/>
<path d="M770 419C770 417.895 770.895 417 772 417H781C782.105 417 783 417.895 783 419V425C783 426.105 782.105 427 781 427H772C770.895 427 770 426.105 770 425V419Z" fill="#FFEEA2"/>
<path d="M862 419C862 417.895 862.895 417 864 417H873C874.105 417 875 417.895 875 419V425C875 426.105 874.105 427 873 427H864C862.895 427 862 426.105 862 425V419Z" fill="#FFEEA2"/>
<path d="M885 419C885 417.895 885.895 417 887 417H896C897.105 417 898 417.895 898 419V448C898 449.105 897.105 450 896 450H887C885.895 450 885 449.105 885 448V419Z" fill="#FFEEA2"/>
<path d="M471 424C471 422.895 471.895 422 473 422H482C483.105 422 484 422.895 484 424V425C484 426.105 483.105 427 482 427H473C471.895 427 471 426.105 471 425V424Z" fill="#FFEEA2"/>
<path d="M655 424C655 422.895 655.895 422 657 422H666C667.105 422 668 422.895 668 424V425C668 426.105 667.105 427 666 427H657C655.895 427 655 426.105 655 425V424Z" fill="#FFEEA2"/>
<path d="M954 424C954 422.895 954.895 422 956 422H965C966.105 422 967 422.895 967 424V425C967 426.105 966.105 427 965 427H956C954.895 427 954 426.105 954 425V424Z" fill="#FFEEA2"/>
<path d="M793 424C793 422.895 793.895 422 795 422H804C805.105 422 806 422.895 806 424V425C806 426.105 805.105 427 804 427H795C793.895 427 793 426.105 793 425V424Z" fill="#FFEEA2"/>
<path d="M379 407C379 405.895 379.895 405 381 405H390C391.105 405 392 405.895 392 407V423C392 424.105 391.105 425 390 425H381C379.895 425 379 424.105 379 423V407Z" fill="#F28100"/>
<path d="M563 407C563 405.895 563.895 405 565 405H574C575.105 405 576 405.895 576 407V423C576 424.105 575.105 425 574 425H565C563.895 425 563 424.105 563 423V407Z" fill="#F28100"/>
<path d="M402 407C402 405.895 402.895 405 404 405H413C414.105 405 415 405.895 415 407V456C415 457.105 414.105 458 413 458H404C402.895 458 402 457.105 402 456V407Z" fill="#F28100"/>
<path d="M586 407C586 405.895 586.895 405 588 405H597C598.105 405 599 405.895 599 407V456C599 457.105 598.105 458 597 458H588C586.895 458 586 457.105 586 456V407Z" fill="#F28100"/>
<path d="M517 407C517 405.895 517.895 405 519 405H528C529.105 405 530 405.895 530 407V456C530 457.105 529.105 458 528 458H519C517.895 458 517 457.105 517 456V407Z" fill="#F28100"/>
<path d="M724 407C724 405.895 724.895 405 726 405H735C736.105 405 737 405.895 737 407V456C737 457.105 736.105 458 735 458H726C724.895 458 724 457.105 724 456V407Z" fill="#F28100"/>
<path d="M701 407C701 405.895 701.895 405 703 405H712C713.105 405 714 405.895 714 407V456C714 457.105 713.105 458 712 458H703C701.895 458 701 457.105 701 456V407Z" fill="#F28100"/>
<path d="M540 407C540 405.895 540.895 405 542 405H551C552.105 405 553 405.895 553 407V456C553 457.105 552.105 458 551 458H542C540.895 458 540 457.105 540 456V407Z" fill="#F28100"/>
<path d="M908 407C908 405.895 908.895 405 910 405H919C920.105 405 921 405.895 921 407V456C921 457.105 920.105 458 919 458H910C908.895 458 908 457.105 908 456V407Z" fill="#F28100"/>
<path d="M931 407C931 405.895 931.895 405 933 405H942C943.105 405 944 405.895 944 407V456C944 457.105 943.105 458 942 458H933C931.895 458 931 457.105 931 456V407Z" fill="#F28100"/>
<path d="M425 407C425 405.895 425.895 405 427 405H436C437.105 405 438 405.895 438 407V414C438 415.105 437.105 416 436 416H427C425.895 416 425 415.105 425 414V407Z" fill="#F28100"/>
<path d="M609 407C609 405.895 609.895 405 611 405H620C621.105 405 622 405.895 622 407V414C622 415.105 621.105 416 620 416H611C609.895 416 609 415.105 609 414V407Z" fill="#F28100"/>
<path d="M747 407C747 405.895 747.895 405 749 405H758C759.105 405 760 405.895 760 407V414C760 415.105 759.105 416 758 416H749C747.895 416 747 415.105 747 414V407Z" fill="#F28100"/>
<path d="M494 407C494 405.895 494.895 405 496 405H505C506.105 405 507 405.895 507 407V414C507 415.105 506.105 416 505 416H496C494.895 416 494 415.105 494 414V407Z" fill="#F28100"/>
<path d="M678 407C678 405.895 678.895 405 680 405H689C690.105 405 691 405.895 691 407V414C691 415.105 690.105 416 689 416H680C678.895 416 678 415.105 678 414V407Z" fill="#F28100"/>
<path d="M816 407C816 405.895 816.895 405 818 405H827C828.105 405 829 405.895 829 407V414C829 415.105 828.105 416 827 416H818C816.895 416 816 415.105 816 414V407Z" fill="#F28100"/>
<path d="M839 407C839 405.895 839.895 405 841 405H850C851.105 405 852 405.895 852 407V473C852 474.105 851.105 475 850 475H841C839.895 475 839 474.105 839 473V407Z" fill="#F28100"/>
<path d="M448 407C448 405.895 448.895 405 450 405H459C460.105 405 461 405.895 461 407V414C461 415.105 460.105 416 459 416H450C448.895 416 448 415.105 448 414V407Z" fill="#F28100"/>
<path d="M632 407C632 405.895 632.895 405 634 405H643C644.105 405 645 405.895 645 407V414C645 415.105 644.105 416 643 416H634C632.895 416 632 415.105 632 414V407Z" fill="#F28100"/>
<path d="M770 407C770 405.895 770.895 405 772 405H781C782.105 405 783 405.895 783 407V414C783 415.105 782.105 416 781 416H772C770.895 416 770 415.105 770 414V407Z" fill="#F28100"/>
<path d="M862 407C862 405.895 862.895 405 864 405H873C874.105 405 875 405.895 875 407V414C875 415.105 874.105 416 873 416H864C862.895 416 862 415.105 862 414V407Z" fill="#F28100"/>
<path d="M885 407C885 405.895 885.895 405 887 405H896C897.105 405 898 405.895 898 407V414C898 415.105 897.105 416 896 416H887C885.895 416 885 415.105 885 414V407Z" fill="#F28100"/>
<path d="M471 407C471 405.895 471.895 405 473 405H482C483.105 405 484 405.895 484 407V419C484 420.105 483.105 421 482 421H473C471.895 421 471 420.105 471 419V407Z" fill="#F28100"/>
<path d="M655 407C655 405.895 655.895 405 657 405H666C667.105 405 668 405.895 668 407V419C668 420.105 667.105 421 666 421H657C655.895 421 655 420.105 655 419V407Z" fill="#F28100"/>
<path d="M954 407C954 405.895 954.895 405 956 405H965C966.105 405 967 405.895 967 407V419C967 420.105 966.105 421 965 421H956C954.895 421 954 420.105 954 419V407Z" fill="#F28100"/>
<path d="M793 407C793 405.895 793.895 405 795 405H804C805.105 405 806 405.895 806 407V419C806 420.105 805.105 421 804 421H795C793.895 421 793 420.105 793 419V407Z" fill="#F28100"/>
<g filter="url(#filter1_d)">
<path d="M50 101H105V559H65C56.7157 559 50 552.284 50 544V101Z" fill="white"/>
</g>
<path d="M76 139V133H80V139H85V131H88L78 122L68 131H71V139H76Z" fill="#747474"/>
<path d="M83.833 157.667L79.6663 161.417V170.583L83.833 166.833V157.667ZM73.4163 160.167C71.7913 160.167 70.0413 160.5 68.833 161.417V173.633C68.833 173.842 69.0413 174.05 69.2497 174.05C69.333 174.05 69.3747 173.992 69.458 173.992C70.583 173.45 72.208 173.083 73.4163 173.083C75.0413 173.083 76.7913 173.417 77.9997 174.333C79.1247 173.625 81.1663 173.083 82.583 173.083C83.958 173.083 85.3747 173.342 86.5413 173.967C86.6247 174.008 86.6663 173.992 86.7497 173.992C86.958 173.992 87.1663 173.783 87.1663 173.575V161.417C86.6663 161.042 86.1247 160.792 85.4997 160.583V171.833C84.583 171.542 83.583 171.417 82.583 171.417C81.1663 171.417 79.1247 171.958 77.9997 172.667V161.417C76.7913 160.5 75.0413 160.167 73.4163 160.167Z" fill="#747474"/>
<path fill-rule="evenodd" clip-rule="evenodd" d="M105 504H50V503H105V504Z" fill="#E1E1E9"/>
<path d="M69.3136 518.406L69.8342 523.224L69.921 524.138H67.8965L67.9977 523.224L68.5038 518.406L68.5472 518H69.2702L69.3136 518.406Z" fill="#F28100"/>
<path d="M85.4083 518.406L85.9145 523.224L86.0157 524.138H83.9912L84.078 523.224L84.5986 518.406L84.6419 518H85.365L85.4083 518.406Z" fill="#F28100"/>
<path d="M75.9943 533.367C75.5894 533.729 75.199 534.034 74.7941 534.339C74.3892 534.643 73.9843 534.948 73.5505 535.238C72.6973 535.819 71.8297 536.356 70.8319 536.806C70.3692 537.009 69.8197 536.806 69.6173 536.341C69.4293 535.92 69.5883 535.427 69.9643 535.195L69.9932 535.18C70.7452 534.716 71.4537 534.121 72.1478 533.483C72.4949 533.163 72.8275 532.83 73.1601 532.496C73.4782 532.162 73.8253 531.799 74.1 531.48C74.5917 530.914 75.4304 530.856 75.9943 531.335C76.5583 531.828 76.6161 532.67 76.1389 533.236C76.0956 533.28 76.0522 533.323 75.9943 533.367Z" fill="#37376D"/>
<path d="M79.147 530.682C79.5808 530.783 80.1014 530.812 80.6075 530.812C81.1281 530.812 81.6631 530.769 82.1837 530.696C83.2393 530.551 84.2949 530.275 85.2493 529.84L85.2638 529.826C85.7265 529.608 86.276 529.826 86.4785 530.29C86.6665 530.725 86.5074 531.219 86.117 531.451C85.018 532.118 83.8467 532.583 82.632 532.916C82.0246 533.076 81.4028 533.206 80.7666 533.279C80.1303 533.352 79.4651 533.395 78.7566 533.337H78.7421C78.0046 533.279 77.4551 532.626 77.513 531.886C77.5708 531.146 78.2215 530.595 78.959 530.653C79.0313 530.653 79.0892 530.667 79.147 530.682Z" fill="#37376D"/>
<path d="M86.2174 523.833C86.2174 526.924 82.0962 529.434 76.9916 529.434C71.8871 529.434 67.7803 526.924 67.7803 523.833C67.7803 520.742 71.916 518.232 77.0061 518.232C82.0962 518.232 86.2174 520.742 86.2174 523.833Z" fill="#0FA7F0"/>
<path d="M83.0366 523.833C83.0366 525.545 80.3325 527.025 77.0066 527.025C73.6807 527.025 70.9766 525.545 70.9766 523.833C70.9766 522.121 73.6807 520.641 77.0066 520.641C80.3325 520.655 83.0366 522.135 83.0366 523.833Z" fill="white"/>
<path d="M79.0884 523.833C79.0884 524.994 78.163 525.923 77.0061 525.923C75.8493 525.923 74.9238 524.994 74.9238 523.833C74.9238 522.672 75.8493 521.744 77.0061 521.744C78.1485 521.744 79.0884 522.687 79.0884 523.833Z" fill="#37376D"/>
<path d="M82.9204 538.329L80.679 532.133C80.332 531.219 79.4644 530.609 78.4955 530.609H75.8203C74.5333 530.609 73.4922 531.654 73.4922 532.946V538.314H82.9204V538.329Z" fill="#0FA7F0"/>
<path d="M67 535.267C67.5061 534.817 68.2725 534.6 68.9811 534.73C69.6897 534.846 70.3693 535.296 70.7597 535.92C71.1646 536.544 71.2658 537.342 71.0779 538.039C70.8899 538.735 70.3838 539.345 69.7475 539.606L69.0245 538.474C69.2414 538.213 69.3426 537.937 69.3715 537.661C69.386 537.386 69.3281 537.139 69.1835 536.921C69.0534 536.704 68.8509 536.544 68.5907 536.443C68.3304 536.341 68.0412 536.327 67.7086 536.399L67 535.267Z" fill="#F28100"/>
<path d="M87.5629 528.651C87.3171 528.883 87.1725 529.129 87.1002 529.391C87.0424 529.652 87.0713 529.913 87.158 530.145C87.2593 530.377 87.4328 530.58 87.6642 530.711C87.8955 530.842 88.1847 530.914 88.5173 530.885L89.0524 532.119C88.4739 532.496 87.6931 532.568 87.0134 532.336C86.3338 532.104 85.7265 531.553 85.4517 530.871C85.1625 530.189 85.1625 529.376 85.4806 528.723C85.7843 528.056 86.3772 527.548 87.0424 527.388L87.5629 528.651Z" fill="#F28100"/>
<path d="M76.7321 538.329H73.4785V542H76.7321V538.329Z" fill="#37376D"/>
<path d="M80.9827 542H84.2508L82.9204 538.329H79.6523L80.9827 542Z" fill="#37376D"/>
<path d="M84.9762 200.095H83.7619V196.857C83.7619 195.959 83.0333 195.238 82.1429 195.238H78.9048V194.024C78.9048 193.487 78.6915 192.972 78.312 192.593C77.9325 192.213 77.4177 192 76.881 192C76.3442 192 75.8294 192.213 75.4499 192.593C75.0704 192.972 74.8571 193.487 74.8571 194.024V195.238H71.619C71.1896 195.238 70.7778 195.409 70.4742 195.712C70.1706 196.016 70 196.428 70 196.857V199.933H71.2143C72.4286 199.933 73.4 200.905 73.4 202.119C73.4 203.333 72.4286 204.305 71.2143 204.305H70V207.381C70 207.81 70.1706 208.222 70.4742 208.526C70.7778 208.829 71.1896 209 71.619 209H74.6952V207.786C74.6952 206.571 75.6667 205.6 76.881 205.6C78.0952 205.6 79.0667 206.571 79.0667 207.786V209H82.1429C82.5723 209 82.9841 208.829 83.2877 208.526C83.5913 208.222 83.7619 207.81 83.7619 207.381V204.143H84.9762C85.5129 204.143 86.0277 203.93 86.4072 203.55C86.7868 203.171 87 202.656 87 202.119C87 201.582 86.7868 201.068 86.4072 200.688C86.0277 200.308 85.5129 200.095 84.9762 200.095Z" fill="#747474"/>
<path d="M72 238.5L69 241.44V233H72V238.5ZM77 236.66L75.43 235.32L74 236.64V229H77V236.66ZM82 235L79 238V225H82V235ZM84.81 234.81L83 233H88V238L86.21 236.21L79 243.36L75.53 240.34L71.75 244H69L75.47 237.66L79 240.64" fill="#747474"/>
<path d="M80.763 268.325L79.953 269.153C79.305 269.801 78.9 270.35 78.9 271.7H77.1V271.25C77.1 270.251 77.505 269.351 78.153 268.703L79.269 267.569C79.602 267.245 79.8 266.795 79.8 266.3C79.8 265.301 78.99 264.5 78 264.5C77.5226 264.5 77.0648 264.69 76.7272 265.027C76.3896 265.365 76.2 265.823 76.2 266.3H74.4C74.4 265.345 74.7793 264.43 75.4544 263.754C76.1295 263.079 77.0452 262.7 78 262.7C78.9548 262.7 79.8705 263.079 80.5456 263.754C81.2207 264.43 81.6 265.345 81.6 266.3C81.6 267.092 81.276 267.803 80.763 268.325ZM78.9 275.3H77.1V273.5H78.9V275.3ZM78 260C76.8181 260 75.6478 260.233 74.5558 260.685C73.4639 261.137 72.4718 261.8 71.636 262.636C69.9482 264.324 69 266.613 69 269C69 271.387 69.9482 273.676 71.636 275.364C72.4718 276.2 73.4639 276.863 74.5558 277.315C75.6478 277.767 76.8181 278 78 278C80.3869 278 82.6761 277.052 84.364 275.364C86.0518 273.676 87 271.387 87 269C87 264.023 82.95 260 78 260Z" fill="#747474"/>
<path d="M50 61C50 52.7157 56.7157 46 65 46H105V101H50V61Z" fill="#0FA7F0"/>
<g filter="url(#filter2_d)">
<path d="M105 101L105 46L1003 46C1011.28 46 1018 52.7157 1018 61L1018 101L105 101Z" fill="white"/>
</g>
<path d="M69 67H87V69H69V67Z" fill="white"/>
<path d="M69 72H87V74H69V72Z" fill="white"/>
<path d="M69 77H87V79H69V77Z" fill="white"/>
<path d="M136.615 65.7001H141.365C145.153 65.7001 147.046 67.1568 147.046 70.0701C147.046 72.9834 145.153 74.4401 141.365 74.4401H138.781V79.0001H136.615V65.7001ZM143.93 71.9511C144.538 71.5964 144.842 70.9694 144.842 70.0701C144.842 69.1708 144.538 68.5501 143.93 68.2081C143.335 67.8534 142.518 67.6761 141.479 67.6761H138.781V72.4641H141.479C142.518 72.4641 143.335 72.2931 143.93 71.9511Z" fill="#454545"/>
<path d="M150.547 71.3811C150.902 70.8111 151.427 70.3678 152.124 70.0511C152.821 69.7344 153.574 69.6141 154.385 69.6901V71.6851C153.574 71.5711 152.84 71.6788 152.181 72.0081C151.522 72.3374 151.054 72.8251 150.775 73.4711V79.0001H148.742V69.8801H150.547V71.3811Z" fill="#454545"/>
<path d="M157.994 79.0001H155.961V69.8801H157.994V79.0001ZM158.222 66.9161C158.222 67.3088 158.101 67.6128 157.861 67.8281C157.633 68.0308 157.341 68.1321 156.987 68.1321C156.632 68.1321 156.334 68.0308 156.094 67.8281C155.853 67.6128 155.733 67.3088 155.733 66.9161C155.733 66.5361 155.853 66.2448 156.094 66.0421C156.334 65.8268 156.632 65.7191 156.987 65.7191C157.341 65.7191 157.633 65.8268 157.861 66.0421C158.101 66.2448 158.222 66.5361 158.222 66.9161Z" fill="#454545"/>
<path d="M160.01 74.5161C160.01 72.9328 160.51 71.7231 161.511 70.8871C162.512 70.0511 163.69 69.6331 165.045 69.6331C166.134 69.6331 167.072 69.8674 167.857 70.3361V72.1981C167.148 71.6914 166.305 71.4381 165.33 71.4381C164.431 71.4381 163.664 71.6914 163.031 72.1981C162.398 72.6921 162.081 73.4394 162.081 74.4401C162.081 75.4154 162.391 76.1628 163.012 76.6821C163.645 77.1888 164.405 77.4421 165.292 77.4421C166.255 77.4421 167.141 77.2078 167.952 76.7391V78.6201C167.078 79.0381 166.071 79.2471 164.931 79.2471C163.601 79.2471 162.448 78.8418 161.473 78.0311C160.498 77.2078 160.01 76.0361 160.01 74.5161Z" fill="#454545"/>
<path d="M169.269 74.4401C169.269 73.6548 169.408 72.9454 169.687 72.3121C169.965 71.6661 170.333 71.1594 170.789 70.7921C171.245 70.4121 171.739 70.1271 172.271 69.9371C172.803 69.7344 173.341 69.6331 173.886 69.6331C174.582 69.6331 175.209 69.7408 175.767 69.9561C176.337 70.1714 176.793 70.4628 177.135 70.8301C177.477 71.1974 177.755 71.6218 177.971 72.1031C178.186 72.5844 178.3 73.0911 178.313 73.6231C178.325 74.1424 178.281 74.6681 178.18 75.2001H171.321C171.422 75.9728 171.802 76.5554 172.461 76.9481C173.119 77.3281 173.905 77.5181 174.817 77.5181C175.855 77.5181 176.818 77.3028 177.705 76.8721V78.6201C176.831 79.0381 175.741 79.2471 174.437 79.2471C172.955 79.2471 171.72 78.8291 170.732 77.9931C169.756 77.1571 169.269 75.9728 169.269 74.4401ZM176.356 73.6801C176.432 73.1608 176.273 72.6414 175.881 72.1221C175.501 71.5901 174.867 71.3241 173.981 71.3241C173.259 71.3241 172.638 71.5331 172.119 71.9511C171.612 72.3691 171.34 72.9454 171.302 73.6801H176.356Z" fill="#454545"/>
<path d="M182.053 71.3811C182.408 70.8111 182.933 70.3678 183.63 70.0511C184.327 69.7344 185.08 69.6141 185.891 69.6901V71.6851C185.08 71.5711 184.346 71.6788 183.687 72.0081C183.028 72.3374 182.56 72.8251 182.281 73.4711V79.0001H180.248V69.8801H182.053V71.3811Z" fill="#454545"/>
<path d="M187.41 67.1441C188.689 66.2701 190.12 65.8331 191.704 65.8331C193.059 65.8331 194.155 66.1498 194.991 66.7831C195.827 67.4038 196.245 68.2968 196.245 69.4621C196.245 70.4374 195.922 71.2734 195.276 71.9701C194.642 72.6541 193.775 73.3254 192.673 73.9841C192.584 74.0348 192.419 74.1298 192.179 74.2691C191.951 74.4084 191.786 74.5098 191.685 74.5731C191.596 74.6238 191.45 74.7124 191.248 74.8391C191.045 74.9658 190.893 75.0608 190.792 75.1241C190.703 75.1874 190.576 75.2824 190.412 75.4091C190.26 75.5231 190.146 75.6244 190.07 75.7131C189.994 75.7891 189.905 75.8904 189.804 76.0171C189.702 76.1311 189.626 76.2388 189.576 76.3401C189.538 76.4414 189.5 76.5554 189.462 76.6821C189.424 76.8088 189.405 76.9354 189.405 77.0621L196.34 77.0431V79.0001H186.973V78.0121C186.973 77.3028 187.068 76.6758 187.258 76.1311C187.46 75.5738 187.809 75.0671 188.303 74.6111C188.809 74.1424 189.202 73.8131 189.481 73.6231C189.759 73.4204 190.253 73.1101 190.963 72.6921C191.026 72.6414 191.077 72.6034 191.115 72.5781C191.165 72.5528 191.216 72.5274 191.267 72.5021C192.331 71.8814 193.015 71.4318 193.319 71.1531C193.825 70.6591 194.079 70.1081 194.079 69.5001C194.079 68.9428 193.851 68.5184 193.395 68.2271C192.951 67.9358 192.324 67.7901 191.514 67.7901C190.108 67.7901 188.74 68.2714 187.41 69.2341V67.1441Z" fill="#454545"/>
<path d="M204.604 66.0801H206.827V74.4781H209.05V76.3591H206.827V79.0001H204.737V76.3591H197.726V74.5161L204.604 66.0801ZM204.737 74.4781V68.8351L200.139 74.4781H204.737Z" fill="#454545"/>
<path d="M216.094 80.1211H214.612L220.35 64.5791H221.832L216.094 80.1211Z" fill="#454545"/>
<path d="M228.461 65.7001H233.116C235.396 65.7001 237.131 66.3081 238.322 67.5241C239.513 68.7401 240.108 70.3488 240.108 72.3501C240.108 74.3514 239.513 75.9601 238.322 77.1761C237.131 78.3921 235.396 79.0001 233.116 79.0001H228.461V65.7001ZM236.669 75.8271C237.492 75.0164 237.904 73.8574 237.904 72.3501C237.904 70.8428 237.492 69.6901 236.669 68.8921C235.858 68.0814 234.668 67.6761 233.097 67.6761H230.627V77.0241H233.097C234.668 77.0241 235.858 76.6251 236.669 75.8271Z" fill="#454545"/>
<path d="M249.843 76.8911C249.843 77.3344 250.065 77.5561 250.508 77.5561C250.66 77.5561 250.863 77.5181 251.116 77.4421V78.9051C250.736 79.0571 250.305 79.1331 249.824 79.1331C248.912 79.1331 248.304 78.7784 248 78.0691C247.025 78.8544 245.878 79.2471 244.561 79.2471C243.674 79.2471 242.921 79.0064 242.3 78.5251C241.679 78.0311 241.369 77.3408 241.369 76.4541C241.369 75.3901 241.768 74.6174 242.566 74.1361C243.364 73.6421 244.32 73.3951 245.435 73.3951C246.17 73.3951 246.961 73.4838 247.81 73.6611V73.3381C247.81 72.7554 247.601 72.2868 247.183 71.9321C246.765 71.5774 246.176 71.4001 245.416 71.4001C244.289 71.4001 243.193 71.6344 242.129 72.1031V70.2411C243.32 69.8358 244.485 69.6331 245.625 69.6331C246.955 69.6331 247.987 69.9624 248.722 70.6211C249.469 71.2798 249.843 72.2804 249.843 73.6231V76.8911ZM245.834 74.8201C245.163 74.8201 244.599 74.9404 244.143 75.1811C243.687 75.4218 243.459 75.8018 243.459 76.3211C243.459 76.7518 243.624 77.0874 243.953 77.3281C244.282 77.5561 244.688 77.6701 245.169 77.6701C246.208 77.6701 247.088 77.3091 247.81 76.5871V75.0481C247.075 74.8961 246.417 74.8201 245.834 74.8201Z" fill="#454545"/>
<path d="M252.043 72.3501C252.043 71.4254 252.392 70.7414 253.088 70.2981C253.798 69.8548 254.659 69.6331 255.672 69.6331C256.85 69.6331 257.946 69.8928 258.959 70.4121V72.1981C258.579 71.9448 258.092 71.7358 257.496 71.5711C256.901 71.3938 256.337 71.3051 255.805 71.3051C255.337 71.3051 254.938 71.3874 254.608 71.5521C254.279 71.7041 254.114 71.9511 254.114 72.2931C254.114 72.6098 254.304 72.8758 254.684 73.0911C255.064 73.2938 255.52 73.4711 256.052 73.6231C256.597 73.7624 257.135 73.9334 257.667 74.1361C258.199 74.3261 258.655 74.6238 259.035 75.0291C259.415 75.4344 259.605 75.9474 259.605 76.5681C259.605 77.5054 259.238 78.1894 258.503 78.6201C257.769 79.0381 256.825 79.2471 255.672 79.2471C254.241 79.2471 253.05 78.9558 252.1 78.3731V76.5681C253.076 77.2141 254.235 77.5371 255.577 77.5371C256.895 77.5371 257.553 77.2268 257.553 76.6061C257.553 76.3021 257.363 76.0488 256.983 75.8461C256.603 75.6308 256.141 75.4534 255.596 75.3141C255.064 75.1621 254.526 74.9911 253.981 74.8011C253.449 74.5984 252.993 74.2944 252.613 73.8891C252.233 73.4711 252.043 72.9581 252.043 72.3501Z" fill="#454545"/>
<path d="M261.443 65.7001H263.476V70.8871C264.287 70.0511 265.268 69.6331 266.421 69.6331C267.561 69.6331 268.473 69.9814 269.157 70.6781C269.841 71.3621 270.183 72.2551 270.183 73.3571V79.0001H268.15V73.6231C268.15 72.9138 267.954 72.3754 267.561 72.0081C267.168 71.6281 266.655 71.4381 266.022 71.4381C265.021 71.4381 264.173 71.9448 263.476 72.9581V79.0001H261.443V65.7001Z" fill="#454545"/>
<path d="M272.613 65.7001H274.646V71.0581C275.495 70.1081 276.59 69.6331 277.933 69.6331C279.276 69.6331 280.365 70.1018 281.201 71.0391C282.037 71.9638 282.455 73.0974 282.455 74.4401C282.455 75.7828 282.037 76.9228 281.201 77.8601C280.365 78.7848 279.276 79.2471 277.933 79.2471C276.502 79.2471 275.33 78.6834 274.418 77.5561V79.0001H272.613V65.7001ZM279.586 76.6251C280.118 76.0551 280.384 75.3268 280.384 74.4401C280.384 73.5534 280.118 72.8314 279.586 72.2741C279.054 71.7041 278.376 71.4191 277.553 71.4191C276.882 71.4191 276.286 71.6028 275.767 71.9701C275.26 72.3374 274.887 72.7871 274.646 73.3191V75.5421C274.887 76.0868 275.26 76.5428 275.767 76.9101C276.286 77.2774 276.882 77.4611 277.553 77.4611C278.376 77.4611 279.054 77.1824 279.586 76.6251Z" fill="#454545"/>
<path d="M285.306 77.9741C284.344 77.1254 283.862 75.9474 283.862 74.4401C283.862 72.9328 284.344 71.7548 285.306 70.9061C286.282 70.0574 287.447 69.6331 288.802 69.6331C290.17 69.6331 291.336 70.0574 292.298 70.9061C293.261 71.7548 293.742 72.9328 293.742 74.4401C293.742 75.9474 293.261 77.1254 292.298 77.9741C291.336 78.8228 290.17 79.2471 288.802 79.2471C287.447 79.2471 286.282 78.8228 285.306 77.9741ZM290.873 76.5871C291.405 76.0424 291.671 75.3268 291.671 74.4401C291.671 73.5534 291.405 72.8441 290.873 72.3121C290.341 71.7674 289.651 71.4951 288.802 71.4951C287.941 71.4951 287.244 71.7674 286.712 72.3121C286.18 72.8441 285.914 73.5534 285.914 74.4401C285.914 75.3268 286.18 76.0424 286.712 76.5871C287.244 77.1191 287.941 77.3851 288.802 77.3851C289.651 77.3851 290.341 77.1191 290.873 76.5871Z" fill="#454545"/>
<path d="M303.485 76.8911C303.485 77.3344 303.706 77.5561 304.15 77.5561C304.302 77.5561 304.504 77.5181 304.758 77.4421V78.9051C304.378 79.0571 303.947 79.1331 303.466 79.1331C302.554 79.1331 301.946 78.7784 301.642 78.0691C300.666 78.8544 299.52 79.2471 298.203 79.2471C297.316 79.2471 296.562 79.0064 295.942 78.5251C295.321 78.0311 295.011 77.3408 295.011 76.4541C295.011 75.3901 295.41 74.6174 296.208 74.1361C297.006 73.6421 297.962 73.3951 299.077 73.3951C299.811 73.3951 300.603 73.4838 301.452 73.6611V73.3381C301.452 72.7554 301.243 72.2868 300.825 71.9321C300.407 71.5774 299.818 71.4001 299.058 71.4001C297.93 71.4001 296.835 71.6344 295.771 72.1031V70.2411C296.961 69.8358 298.127 69.6331 299.267 69.6331C300.597 69.6331 301.629 69.9624 302.364 70.6211C303.111 71.2798 303.485 72.2804 303.485 73.6231V76.8911ZM299.476 74.8201C298.804 74.8201 298.241 74.9404 297.785 75.1811C297.329 75.4218 297.101 75.8018 297.101 76.3211C297.101 76.7518 297.265 77.0874 297.595 77.3281C297.924 77.5561 298.329 77.6701 298.811 77.6701C299.849 77.6701 300.73 77.3091 301.452 76.5871V75.0481C300.717 74.8961 300.058 74.8201 299.476 74.8201Z" fill="#454545"/>
<path d="M307.965 71.3811C308.32 70.8111 308.845 70.3678 309.542 70.0511C310.239 69.7344 310.992 69.6141 311.803 69.6901V71.6851C310.992 71.5711 310.258 71.6788 309.599 72.0081C308.94 72.3374 308.472 72.8251 308.193 73.4711V79.0001H306.16V69.8801H307.965V71.3811Z" fill="#454545"/>
<path d="M320.357 65.7001H322.39V79.0001H320.566V77.5561C319.679 78.6834 318.514 79.2471 317.07 79.2471C315.727 79.2471 314.638 78.7848 313.802 77.8601C312.966 76.9228 312.548 75.7828 312.548 74.4401C312.548 73.0974 312.966 71.9638 313.802 71.0391C314.638 70.1018 315.727 69.6331 317.07 69.6331C318.438 69.6331 319.534 70.1081 320.357 71.0581V65.7001ZM320.338 73.3191C320.097 72.7871 319.717 72.3374 319.198 71.9701C318.691 71.6028 318.102 71.4191 317.431 71.4191C316.608 71.4191 315.93 71.7041 315.398 72.2741C314.866 72.8314 314.6 73.5534 314.6 74.4401C314.6 75.3268 314.866 76.0551 315.398 76.6251C315.93 77.1824 316.608 77.4611 317.431 77.4611C318.102 77.4611 318.691 77.2774 319.198 76.9101C319.717 76.5428 320.097 76.0868 320.338 75.5421V73.3191Z" fill="#454545"/>
<path d="M889.833 72C889.833 76.5558 893.527 80.25 898.083 80.25C900.274 80.25 902.373 79.3883 903.95 77.8667L902.575 76.4917C901.411 77.7292 899.788 78.4167 898.083 78.4167C892.363 78.4167 889.503 71.505 893.546 67.4625C897.588 63.42 904.5 66.2892 904.5 72H901.75L905.416 75.6667H905.508L909.083 72H906.333C906.333 67.4442 902.639 63.75 898.083 63.75C893.527 63.75 889.833 67.4442 889.833 72Z" fill="#454545"/>
<path d="M985.5 75.3332V65.3332H970.5V75.3332H985.5ZM985.5 63.6665C985.942 63.6665 986.366 63.8421 986.678 64.1547C986.991 64.4672 987.166 64.8911 987.166 65.3332V75.3332C987.166 75.7752 986.991 76.1991 986.678 76.5117C986.366 76.8242 985.942 76.9998 985.5 76.9998H979.666V78.6665H981.333V80.3332H974.666V78.6665H976.333V76.9998H970.5C969.575 76.9998 968.833 76.2498 968.833 75.3332V65.3332C968.833 64.4082 969.575 63.6665 970.5 63.6665H985.5ZM972.166 66.9998H979.666V71.1665H972.166V66.9998ZM980.5 66.9998H983.833V68.6665H980.5V66.9998ZM983.833 69.4998V73.6665H980.5V69.4998H983.833ZM972.166 71.9998H975.5V73.6665H972.166V71.9998ZM976.333 71.9998H979.666V73.6665H976.333V71.9998Z" fill="#454545"/>
<path d="M945.584 73.0837H939.084V79.5837H936.917V73.0837H930.417V70.917H936.917V64.417H939.084V70.917H945.584V73.0837Z" fill="#454545"/>
<defs>
<filter id="filter0_d" x="0" y="0" width="1068" height="613" filterUnits="userSpaceOnUse" color-interpolation-filters="sRGB">
<feFlood flood-opacity="0" result="BackgroundImageFix"/>
<feColorMatrix in="SourceAlpha" type="matrix" values="0 0 0 0 0 0 0 0 0 0 0 0 0 0 0 0 0 0 127 0" result="hardAlpha"/>
<feOffset dy="4"/>
<feGaussianBlur stdDeviation="25"/>
<feComposite in2="hardAlpha" operator="out"/>
<feColorMatrix type="matrix" values="0 0 0 0 0 0 0 0 0 0 0 0 0 0 0 0 0 0 0.1 0"/>
<feBlend mode="normal" in2="BackgroundImageFix" result="effect1_dropShadow"/>
<feBlend mode="normal" in="SourceGraphic" in2="effect1_dropShadow" result="shape"/>
</filter>
<filter id="filter1_d" x="30" y="71" width="115" height="518" filterUnits="userSpaceOnUse" color-interpolation-filters="sRGB">
<feFlood flood-opacity="0" result="BackgroundImageFix"/>
<feColorMatrix in="SourceAlpha" type="matrix" values="0 0 0 0 0 0 0 0 0 0 0 0 0 0 0 0 0 0 127 0" result="hardAlpha"/>
<feOffset dx="10"/>
<feGaussianBlur stdDeviation="15"/>
<feComposite in2="hardAlpha" operator="out"/>
<feColorMatrix type="matrix" values="0 0 0 0 0 0 0 0 0 0 0 0 0 0 0 0 0 0 0.1 0"/>
<feBlend mode="normal" in2="BackgroundImageFix" result="effect1_dropShadow"/>
<feBlend mode="normal" in="SourceGraphic" in2="effect1_dropShadow" result="shape"/>
</filter>
<filter id="filter2_d" x="85" y="16" width="973" height="115" filterUnits="userSpaceOnUse" color-interpolation-filters="sRGB">
<feFlood flood-opacity="0" result="BackgroundImageFix"/>
<feColorMatrix in="SourceAlpha" type="matrix" values="0 0 0 0 0 0 0 0 0 0 0 0 0 0 0 0 0 0 127 0" result="hardAlpha"/>
<feOffset dx="10"/>
<feGaussianBlur stdDeviation="15"/>
<feComposite in2="hardAlpha" operator="out"/>
<feColorMatrix type="matrix" values="0 0 0 0 0 0 0 0 0 0 0 0 0 0 0 0 0 0 0.1 0"/>
<feBlend mode="normal" in2="BackgroundImageFix" result="effect1_dropShadow"/>
<feBlend mode="normal" in="SourceGraphic" in2="effect1_dropShadow" result="shape"/>
</filter>
</defs>
</svg>
