<svg width="565" height="274" viewBox="0 0 565 274" fill="none" xmlns="http://www.w3.org/2000/svg">
<path d="M201 5C201 2.23858 203.239 0 206 0H358C360.761 0 363 2.23858 363 5V82C363 84.7614 360.761 87 358 87H206C203.239 87 201 84.7614 201 82V5Z" fill="#37376D"/>
<path d="M201 192C201 189.239 203.239 187 206 187H358C360.761 187 363 189.239 363 192V269C363 271.761 360.761 274 358 274H206C203.239 274 201 271.761 201 269V192Z" fill="white"/>
<path fill-rule="evenodd" clip-rule="evenodd" d="M358 188H206C203.791 188 202 189.791 202 192V269C202 271.209 203.791 273 206 273H358C360.209 273 362 271.209 362 269V192C362 189.791 360.209 188 358 188ZM206 187C203.239 187 201 189.239 201 192V269C201 271.761 203.239 274 206 274H358C360.761 274 363 271.761 363 269V192C363 189.239 360.761 187 358 187H206Z" fill="#DDDDE6"/>
<path d="M403 192C403 189.239 405.239 187 408 187H560C562.761 187 565 189.239 565 192V269C565 271.761 562.761 274 560 274H408C405.239 274 403 271.761 403 269V192Z" fill="white"/>
<path fill-rule="evenodd" clip-rule="evenodd" d="M560 188H408C405.791 188 404 189.791 404 192V269C404 271.209 405.791 273 408 273H560C562.209 273 564 271.209 564 269V192C564 189.791 562.209 188 560 188ZM408 187C405.239 187 403 189.239 403 192V269C403 271.761 405.239 274 408 274H560C562.761 274 565 271.761 565 269V192C565 189.239 562.761 187 560 187H408Z" fill="#DDDDE6"/>
<path d="M0 192C0 189.239 2.23858 187 5 187H157C159.761 187 162 189.239 162 192V269C162 271.761 159.761 274 157 274H5C2.23857 274 0 271.761 0 269V192Z" fill="white"/>
<path fill-rule="evenodd" clip-rule="evenodd" d="M157 188H5C2.79086 188 1 189.791 1 192V269C1 271.209 2.79086 273 5 273H157C159.209 273 161 271.209 161 269V192C161 189.791 159.209 188 157 188ZM5 187C2.23858 187 0 189.239 0 192V269C0 271.761 2.23857 274 5 274H157C159.761 274 162 271.761 162 269V192C162 189.239 159.761 187 157 187H5Z" fill="#DDDDE6"/>
<path d="M248.96 24.3999H250.814V36.9999H248.762V28.1799L244.784 34.1559H243.56L239.582 28.1619V36.9999H237.53V24.3999H239.384L244.172 31.6179L248.96 24.3999Z" fill="white"/>
<path d="M254.171 36.0279C253.259 35.2239 252.803 34.1079 252.803 32.6799C252.803 31.2519 253.259 30.1359 254.171 29.3319C255.095 28.5279 256.199 28.1259 257.483 28.1259C258.779 28.1259 259.883 28.5279 260.795 29.3319C261.707 30.1359 262.163 31.2519 262.163 32.6799C262.163 34.1079 261.707 35.2239 260.795 36.0279C259.883 36.8319 258.779 37.2339 257.483 37.2339C256.199 37.2339 255.095 36.8319 254.171 36.0279ZM259.445 34.7139C259.949 34.1979 260.201 33.5199 260.201 32.6799C260.201 31.8399 259.949 31.1679 259.445 30.6639C258.941 30.1479 258.287 29.8899 257.483 29.8899C256.667 29.8899 256.007 30.1479 255.503 30.6639C254.999 31.1679 254.747 31.8399 254.747 32.6799C254.747 33.5199 254.999 34.1979 255.503 34.7139C256.007 35.2179 256.667 35.4699 257.483 35.4699C258.287 35.4699 258.941 35.2179 259.445 34.7139Z" fill="white"/>
<path d="M270.762 26.4159C270.042 26.9079 269.166 27.1539 268.134 27.1539C267.102 27.1539 266.226 26.9079 265.506 26.4159V24.8499C266.31 25.3539 267.186 25.6059 268.134 25.6059C269.082 25.6059 269.958 25.3539 270.762 24.8499V26.4159ZM265.686 36.9999H264.03V28.3599H265.956V34.0119L270.582 28.3599H272.238V36.9999H270.312V31.3479L265.686 36.9999Z" fill="white"/>
<path d="M282.916 36.9999H280.99V30.0519H278.002V28.3599H285.886V30.0519H282.916V36.9999Z" fill="white"/>
<path d="M287.991 36.0279C287.079 35.2239 286.623 34.1079 286.623 32.6799C286.623 31.2519 287.079 30.1359 287.991 29.3319C288.915 28.5279 290.019 28.1259 291.303 28.1259C292.599 28.1259 293.703 28.5279 294.615 29.3319C295.527 30.1359 295.983 31.2519 295.983 32.6799C295.983 34.1079 295.527 35.2239 294.615 36.0279C293.703 36.8319 292.599 37.2339 291.303 37.2339C290.019 37.2339 288.915 36.8319 287.991 36.0279ZM293.265 34.7139C293.769 34.1979 294.021 33.5199 294.021 32.6799C294.021 31.8399 293.769 31.1679 293.265 30.6639C292.761 30.1479 292.107 29.8899 291.303 29.8899C290.487 29.8899 289.827 30.1479 289.323 30.6639C288.819 31.1679 288.567 31.8399 288.567 32.6799C288.567 33.5199 288.819 34.1979 289.323 34.7139C289.827 35.2179 290.487 35.4699 291.303 35.4699C292.107 35.4699 292.761 35.2179 293.265 34.7139Z" fill="white"/>
<path d="M302.927 36.9999H297.851V28.3599H302.783C303.635 28.3599 304.301 28.5759 304.781 29.0079C305.273 29.4279 305.519 29.9799 305.519 30.6639C305.519 31.6119 305.111 32.2659 304.295 32.6259C304.727 32.7579 305.081 32.9979 305.357 33.3459C305.633 33.6939 305.771 34.1199 305.771 34.6239C305.771 35.3319 305.531 35.9079 305.051 36.3519C304.583 36.7839 303.875 36.9999 302.927 36.9999ZM299.777 33.3279V35.5419H302.459C303.371 35.5419 303.827 35.1759 303.827 34.4439C303.827 33.6999 303.383 33.3279 302.495 33.3279H299.777ZM299.777 29.8179V31.9599H302.351C303.167 31.9599 303.575 31.6119 303.575 30.9159C303.575 30.5319 303.455 30.2559 303.215 30.0879C302.987 29.9079 302.699 29.8179 302.351 29.8179H299.777Z" fill="white"/>
<path d="M315.074 35.0019C315.074 35.4219 315.284 35.6319 315.704 35.6319C315.848 35.6319 316.04 35.5959 316.28 35.5239V36.9099C315.92 37.0539 315.512 37.1259 315.056 37.1259C314.192 37.1259 313.616 36.7899 313.328 36.1179C312.404 36.8619 311.318 37.2339 310.07 37.2339C309.23 37.2339 308.516 37.0059 307.928 36.5499C307.34 36.0819 307.046 35.4279 307.046 34.5879C307.046 33.5799 307.424 32.8479 308.18 32.3919C308.936 31.9239 309.842 31.6899 310.898 31.6899C311.594 31.6899 312.344 31.7739 313.148 31.9419V31.6359C313.148 31.0839 312.95 30.6399 312.554 30.3039C312.158 29.9679 311.6 29.7999 310.88 29.7999C309.812 29.7999 308.774 30.0219 307.766 30.4659V28.7019C308.894 28.3179 309.998 28.1259 311.078 28.1259C312.338 28.1259 313.316 28.4379 314.012 29.0619C314.72 29.6859 315.074 30.6339 315.074 31.9059V35.0019ZM311.276 33.0399C310.64 33.0399 310.106 33.1539 309.674 33.3819C309.242 33.6099 309.026 33.9699 309.026 34.4619C309.026 34.8699 309.182 35.1879 309.494 35.4159C309.806 35.6319 310.19 35.7399 310.646 35.7399C311.63 35.7399 312.464 35.3979 313.148 34.7139V33.2559C312.452 33.1119 311.828 33.0399 311.276 33.0399Z" fill="white"/>
<path d="M319.442 29.7099C320.318 28.6539 321.428 28.1259 322.772 28.1259C324.044 28.1259 325.076 28.5699 325.868 29.4579C326.66 30.3339 327.056 31.4079 327.056 32.6799C327.056 33.9519 326.66 35.0319 325.868 35.9199C325.076 36.7959 324.044 37.2339 322.772 37.2339C321.476 37.2339 320.438 36.7839 319.658 35.8839V40.9599H317.732V28.3599H319.442V29.7099ZM324.338 34.7499C324.842 34.2099 325.094 33.5199 325.094 32.6799C325.094 31.8399 324.842 31.1559 324.338 30.6279C323.834 30.0879 323.192 29.8179 322.412 29.8179C321.776 29.8179 321.212 29.9919 320.72 30.3399C320.24 30.6879 319.886 31.1139 319.658 31.6179V33.7239C319.886 34.2399 320.24 34.6719 320.72 35.0199C321.212 35.3679 321.776 35.5419 322.412 35.5419C323.192 35.5419 323.834 35.2779 324.338 34.7499Z" fill="white"/>
<path d="M245.286 224H243.108L248.436 211.4H250.686L255.996 224H253.836L252.72 221.282H246.402L245.286 224ZM249.318 214.1L247.104 219.482H252L249.786 214.1C249.69 213.836 249.612 213.602 249.552 213.398C249.492 213.602 249.414 213.836 249.318 214.1Z" fill="#37376D"/>
<path d="M259.228 224H257.302V215.36H259.228V218.834H263.548V215.36H265.474V224H263.548V220.526H259.228V224Z" fill="#37376D"/>
<path d="M275.246 222.002C275.246 222.422 275.456 222.632 275.876 222.632C276.02 222.632 276.212 222.596 276.452 222.524V223.91C276.092 224.054 275.684 224.126 275.228 224.126C274.364 224.126 273.788 223.79 273.5 223.118C272.576 223.862 271.49 224.234 270.242 224.234C269.402 224.234 268.688 224.006 268.1 223.55C267.512 223.082 267.218 222.428 267.218 221.588C267.218 220.58 267.596 219.848 268.352 219.392C269.108 218.924 270.014 218.69 271.07 218.69C271.766 218.69 272.516 218.774 273.32 218.942V218.636C273.32 218.084 273.122 217.64 272.726 217.304C272.33 216.968 271.772 216.8 271.052 216.8C269.984 216.8 268.946 217.022 267.938 217.466V215.702C269.066 215.318 270.17 215.126 271.25 215.126C272.51 215.126 273.488 215.438 274.184 216.062C274.892 216.686 275.246 217.634 275.246 218.906V222.002ZM271.448 220.04C270.812 220.04 270.278 220.154 269.846 220.382C269.414 220.61 269.198 220.97 269.198 221.462C269.198 221.87 269.354 222.188 269.666 222.416C269.978 222.632 270.362 222.74 270.818 222.74C271.802 222.74 272.636 222.398 273.32 221.714V220.256C272.624 220.112 272 220.04 271.448 220.04Z" fill="#37376D"/>
<path d="M281.342 216.998C281.27 218.126 281.174 219.092 281.054 219.896C280.934 220.7 280.754 221.444 280.514 222.128C280.274 222.8 279.956 223.31 279.56 223.658C279.176 223.994 278.702 224.162 278.138 224.162C277.766 224.162 277.37 224.084 276.95 223.928V222.416C277.154 222.488 277.34 222.524 277.508 222.524C278.192 222.524 278.672 221.93 278.948 220.742C279.236 219.542 279.428 217.748 279.524 215.36H286.184V224H284.258V216.998H281.342Z" fill="#37376D"/>
<path d="M289.419 223.028C288.507 222.224 288.051 221.108 288.051 219.68C288.051 218.252 288.507 217.136 289.419 216.332C290.343 215.528 291.447 215.126 292.731 215.126C294.027 215.126 295.131 215.528 296.043 216.332C296.955 217.136 297.411 218.252 297.411 219.68C297.411 221.108 296.955 222.224 296.043 223.028C295.131 223.832 294.027 224.234 292.731 224.234C291.447 224.234 290.343 223.832 289.419 223.028ZM294.693 221.714C295.197 221.198 295.449 220.52 295.449 219.68C295.449 218.84 295.197 218.168 294.693 217.664C294.189 217.148 293.535 216.89 292.731 216.89C291.915 216.89 291.255 217.148 290.751 217.664C290.247 218.168 289.995 218.84 289.995 219.68C289.995 220.52 290.247 221.198 290.751 221.714C291.255 222.218 291.915 222.47 292.731 222.47C293.535 222.47 294.189 222.218 294.693 221.714Z" fill="#37376D"/>
<path d="M301.205 224H299.279V215.36H305.723V217.052H301.205V224Z" fill="#37376D"/>
<path d="M311.46 212.768C312.672 211.94 314.028 211.526 315.528 211.526C316.812 211.526 317.85 211.826 318.642 212.426C319.434 213.014 319.83 213.86 319.83 214.964C319.83 215.888 319.524 216.68 318.912 217.34C318.312 217.988 317.49 218.624 316.446 219.248C316.362 219.296 316.206 219.386 315.978 219.518C315.762 219.65 315.606 219.746 315.51 219.806C315.426 219.854 315.288 219.938 315.096 220.058C314.904 220.178 314.76 220.268 314.664 220.328C314.58 220.388 314.46 220.478 314.304 220.598C314.16 220.706 314.052 220.802 313.98 220.886C313.908 220.958 313.824 221.054 313.728 221.174C313.632 221.282 313.56 221.384 313.512 221.48C313.476 221.576 313.44 221.684 313.404 221.804C313.368 221.924 313.35 222.044 313.35 222.164L319.92 222.146V224H311.046V223.064C311.046 222.392 311.136 221.798 311.316 221.282C311.508 220.754 311.838 220.274 312.306 219.842C312.786 219.398 313.158 219.086 313.422 218.906C313.686 218.714 314.154 218.42 314.826 218.024C314.886 217.976 314.934 217.94 314.97 217.916C315.018 217.892 315.066 217.868 315.114 217.844C316.122 217.256 316.77 216.83 317.058 216.566C317.538 216.098 317.778 215.576 317.778 215C317.778 214.472 317.562 214.07 317.13 213.794C316.71 213.518 316.116 213.38 315.348 213.38C314.016 213.38 312.72 213.836 311.46 214.748V212.768Z" fill="#37376D"/>
<path d="M447.286 224H445.108L450.436 211.4H452.686L457.996 224H455.836L454.72 221.282H448.402L447.286 224ZM451.318 214.1L449.104 219.482H454L451.786 214.1C451.69 213.836 451.612 213.602 451.552 213.398C451.492 213.602 451.414 213.836 451.318 214.1Z" fill="#37376D"/>
<path d="M461.228 224H459.302V215.36H461.228V218.834H465.548V215.36H467.474V224H465.548V220.526H461.228V224Z" fill="#37376D"/>
<path d="M477.246 222.002C477.246 222.422 477.456 222.632 477.876 222.632C478.02 222.632 478.212 222.596 478.452 222.524V223.91C478.092 224.054 477.684 224.126 477.228 224.126C476.364 224.126 475.788 223.79 475.5 223.118C474.576 223.862 473.49 224.234 472.242 224.234C471.402 224.234 470.688 224.006 470.1 223.55C469.512 223.082 469.218 222.428 469.218 221.588C469.218 220.58 469.596 219.848 470.352 219.392C471.108 218.924 472.014 218.69 473.07 218.69C473.766 218.69 474.516 218.774 475.32 218.942V218.636C475.32 218.084 475.122 217.64 474.726 217.304C474.33 216.968 473.772 216.8 473.052 216.8C471.984 216.8 470.946 217.022 469.938 217.466V215.702C471.066 215.318 472.17 215.126 473.25 215.126C474.51 215.126 475.488 215.438 476.184 216.062C476.892 216.686 477.246 217.634 477.246 218.906V222.002ZM473.448 220.04C472.812 220.04 472.278 220.154 471.846 220.382C471.414 220.61 471.198 220.97 471.198 221.462C471.198 221.87 471.354 222.188 471.666 222.416C471.978 222.632 472.362 222.74 472.818 222.74C473.802 222.74 474.636 222.398 475.32 221.714V220.256C474.624 220.112 474 220.04 473.448 220.04Z" fill="#37376D"/>
<path d="M483.342 216.998C483.27 218.126 483.174 219.092 483.054 219.896C482.934 220.7 482.754 221.444 482.514 222.128C482.274 222.8 481.956 223.31 481.56 223.658C481.176 223.994 480.702 224.162 480.138 224.162C479.766 224.162 479.37 224.084 478.95 223.928V222.416C479.154 222.488 479.34 222.524 479.508 222.524C480.192 222.524 480.672 221.93 480.948 220.742C481.236 219.542 481.428 217.748 481.524 215.36H488.184V224H486.258V216.998H483.342Z" fill="#37376D"/>
<path d="M491.419 223.028C490.507 222.224 490.051 221.108 490.051 219.68C490.051 218.252 490.507 217.136 491.419 216.332C492.343 215.528 493.447 215.126 494.731 215.126C496.027 215.126 497.131 215.528 498.043 216.332C498.955 217.136 499.411 218.252 499.411 219.68C499.411 221.108 498.955 222.224 498.043 223.028C497.131 223.832 496.027 224.234 494.731 224.234C493.447 224.234 492.343 223.832 491.419 223.028ZM496.693 221.714C497.197 221.198 497.449 220.52 497.449 219.68C497.449 218.84 497.197 218.168 496.693 217.664C496.189 217.148 495.535 216.89 494.731 216.89C493.915 216.89 493.255 217.148 492.751 217.664C492.247 218.168 491.995 218.84 491.995 219.68C491.995 220.52 492.247 221.198 492.751 221.714C493.255 222.218 493.915 222.47 494.731 222.47C495.535 222.47 496.189 222.218 496.693 221.714Z" fill="#37376D"/>
<path d="M503.205 224H501.279V215.36H507.723V217.052H503.205V224Z" fill="#37376D"/>
<path d="M521.596 214.874C521.596 215.51 521.428 216.068 521.092 216.548C520.768 217.028 520.33 217.358 519.778 217.538C520.438 217.742 520.99 218.102 521.434 218.618C521.878 219.134 522.1 219.818 522.1 220.67C522.1 221.834 521.656 222.722 520.768 223.334C519.88 223.934 518.764 224.234 517.42 224.234C515.848 224.234 514.432 223.964 513.172 223.424V221.444C514.348 222.092 515.71 222.404 517.258 222.38C519.178 222.356 520.138 221.714 520.138 220.454C520.138 219.23 519.274 218.618 517.546 218.618H515.602V216.764L517.312 216.782C518.056 216.782 518.626 216.638 519.022 216.35C519.43 216.05 519.634 215.642 519.634 215.126C519.634 214.574 519.406 214.148 518.95 213.848C518.506 213.536 517.87 213.38 517.042 213.38C515.77 213.38 514.552 213.716 513.388 214.388V212.426C514.528 211.826 515.836 211.526 517.312 211.526C518.596 211.526 519.628 211.826 520.408 212.426C521.2 213.026 521.596 213.842 521.596 214.874Z" fill="#37376D"/>
<path d="M45.2864 224H43.1084L48.4364 211.4H50.6864L55.9964 224H53.8364L52.7204 221.282H46.4024L45.2864 224ZM49.3184 214.1L47.1044 219.482H52.0004L49.7864 214.1C49.6904 213.836 49.6124 213.602 49.5524 213.398C49.4924 213.602 49.4144 213.836 49.3184 214.1Z" fill="#37376D"/>
<path d="M59.2281 224H57.3021V215.36H59.2281V218.834H63.5481V215.36H65.4741V224H63.5481V220.526H59.2281V224Z" fill="#37376D"/>
<path d="M75.2461 222.002C75.2461 222.422 75.4561 222.632 75.8761 222.632C76.0201 222.632 76.2121 222.596 76.4521 222.524V223.91C76.0921 224.054 75.6841 224.126 75.2281 224.126C74.3641 224.126 73.7881 223.79 73.5001 223.118C72.5761 223.862 71.4901 224.234 70.2421 224.234C69.4021 224.234 68.6881 224.006 68.1001 223.55C67.5121 223.082 67.2181 222.428 67.2181 221.588C67.2181 220.58 67.5961 219.848 68.3521 219.392C69.1081 218.924 70.0141 218.69 71.0701 218.69C71.7661 218.69 72.5161 218.774 73.3201 218.942V218.636C73.3201 218.084 73.1221 217.64 72.7261 217.304C72.3301 216.968 71.7721 216.8 71.0521 216.8C69.9841 216.8 68.9461 217.022 67.9381 217.466V215.702C69.0661 215.318 70.1701 215.126 71.2501 215.126C72.5101 215.126 73.4881 215.438 74.1841 216.062C74.8921 216.686 75.2461 217.634 75.2461 218.906V222.002ZM71.4481 220.04C70.8121 220.04 70.2781 220.154 69.8461 220.382C69.4141 220.61 69.1981 220.97 69.1981 221.462C69.1981 221.87 69.3541 222.188 69.6661 222.416C69.9781 222.632 70.3621 222.74 70.8181 222.74C71.8021 222.74 72.6361 222.398 73.3201 221.714V220.256C72.6241 220.112 72.0001 220.04 71.4481 220.04Z" fill="#37376D"/>
<path d="M81.3417 216.998C81.2697 218.126 81.1737 219.092 81.0537 219.896C80.9337 220.7 80.7537 221.444 80.5137 222.128C80.2737 222.8 79.9557 223.31 79.5597 223.658C79.1757 223.994 78.7017 224.162 78.1377 224.162C77.7657 224.162 77.3697 224.084 76.9497 223.928V222.416C77.1537 222.488 77.3397 222.524 77.5077 222.524C78.1917 222.524 78.6717 221.93 78.9477 220.742C79.2357 219.542 79.4277 217.748 79.5237 215.36H86.1837V224H84.2577V216.998H81.3417Z" fill="#37376D"/>
<path d="M89.4192 223.028C88.5072 222.224 88.0512 221.108 88.0512 219.68C88.0512 218.252 88.5072 217.136 89.4192 216.332C90.3432 215.528 91.4472 215.126 92.7312 215.126C94.0272 215.126 95.1312 215.528 96.0432 216.332C96.9552 217.136 97.4112 218.252 97.4112 219.68C97.4112 221.108 96.9552 222.224 96.0432 223.028C95.1312 223.832 94.0272 224.234 92.7312 224.234C91.4472 224.234 90.3432 223.832 89.4192 223.028ZM94.6932 221.714C95.1972 221.198 95.4492 220.52 95.4492 219.68C95.4492 218.84 95.1972 218.168 94.6932 217.664C94.1892 217.148 93.5352 216.89 92.7312 216.89C91.9152 216.89 91.2552 217.148 90.7512 217.664C90.2472 218.168 89.9952 218.84 89.9952 219.68C89.9952 220.52 90.2472 221.198 90.7512 221.714C91.2552 222.218 91.9152 222.47 92.7312 222.47C93.5352 222.47 94.1892 222.218 94.6932 221.714Z" fill="#37376D"/>
<path d="M101.205 224H99.2787V215.36H105.723V217.052H101.205V224Z" fill="#37376D"/>
<path d="M114.178 211.76H115.69V222.146H117.868V224H111.208V222.146H113.656V213.866L111.208 214.784V212.894L114.178 211.76Z" fill="#37376D"/>
<path d="M241.188 47.7679C242.4 46.9399 243.756 46.5259 245.256 46.5259C246.54 46.5259 247.578 46.8259 248.37 47.4259C249.162 48.0139 249.558 48.8599 249.558 49.9639C249.558 50.8879 249.252 51.6799 248.64 52.3399C248.04 52.9879 247.218 53.6239 246.174 54.2479C246.09 54.2959 245.934 54.3859 245.706 54.5179C245.49 54.6499 245.334 54.7459 245.238 54.8059C245.154 54.8539 245.016 54.9379 244.824 55.0579C244.632 55.1779 244.488 55.2679 244.392 55.3279C244.308 55.3879 244.188 55.4779 244.032 55.5979C243.888 55.7059 243.78 55.8019 243.708 55.8859C243.636 55.9579 243.552 56.0539 243.456 56.1739C243.36 56.2819 243.288 56.3839 243.24 56.4799C243.204 56.5759 243.168 56.6839 243.132 56.8039C243.096 56.9239 243.078 57.0439 243.078 57.1639L249.648 57.1459V58.9999H240.774V58.0639C240.774 57.3919 240.864 56.7979 241.044 56.2819C241.236 55.7539 241.566 55.2739 242.034 54.8419C242.514 54.3979 242.886 54.0859 243.15 53.9059C243.414 53.7139 243.882 53.4199 244.554 53.0239C244.614 52.9759 244.662 52.9399 244.698 52.9159C244.746 52.8919 244.794 52.8679 244.842 52.8439C245.85 52.2559 246.498 51.8299 246.786 51.5659C247.266 51.0979 247.506 50.5759 247.506 49.9999C247.506 49.4719 247.29 49.0699 246.858 48.7939C246.438 48.5179 245.844 48.3799 245.076 48.3799C243.744 48.3799 242.448 48.8359 241.188 49.7479V47.7679Z" fill="white"/>
<path d="M258.69 46.7599H260.202V57.1459H262.38V58.9999H255.72V57.1459H258.168V48.8659L255.72 49.7839V47.8939L258.69 46.7599Z" fill="white"/>
<path d="M265.032 57.4879C264.108 56.3119 263.646 54.7759 263.646 52.8799C263.646 50.9839 264.108 49.4539 265.032 48.2899C265.956 47.1139 267.324 46.5259 269.136 46.5259C270.948 46.5259 272.316 47.1139 273.24 48.2899C274.164 49.4539 274.626 50.9839 274.626 52.8799C274.626 54.7759 274.164 56.3119 273.24 57.4879C272.316 58.6519 270.948 59.2339 269.136 59.2339C267.324 59.2339 265.956 58.6519 265.032 57.4879ZM269.136 57.3619C271.416 57.3619 272.556 55.8679 272.556 52.8799C272.556 49.8919 271.416 48.3979 269.136 48.3979C266.856 48.3979 265.716 49.8919 265.716 52.8799C265.716 55.8679 266.856 57.3619 269.136 57.3619Z" fill="white"/>
<path d="M277.741 57.4879C276.817 56.3119 276.355 54.7759 276.355 52.8799C276.355 50.9839 276.817 49.4539 277.741 48.2899C278.665 47.1139 280.033 46.5259 281.845 46.5259C283.657 46.5259 285.025 47.1139 285.949 48.2899C286.873 49.4539 287.335 50.9839 287.335 52.8799C287.335 54.7759 286.873 56.3119 285.949 57.4879C285.025 58.6519 283.657 59.2339 281.845 59.2339C280.033 59.2339 278.665 58.6519 277.741 57.4879ZM281.845 57.3619C284.125 57.3619 285.265 55.8679 285.265 52.8799C285.265 49.8919 284.125 48.3979 281.845 48.3979C279.565 48.3979 278.425 49.8919 278.425 52.8799C278.425 55.8679 279.565 57.3619 281.845 57.3619Z" fill="white"/>
<path d="M295.586 58.9999H293.66V50.3599H300.104V52.0519H295.586V58.9999Z" fill="white"/>
<path d="M303.315 51.7099C304.191 50.6539 305.301 50.1259 306.645 50.1259C307.917 50.1259 308.949 50.5699 309.741 51.4579C310.533 52.3339 310.929 53.4079 310.929 54.6799C310.929 55.9519 310.533 57.0319 309.741 57.9199C308.949 58.7959 307.917 59.2339 306.645 59.2339C305.349 59.2339 304.311 58.7839 303.531 57.8839V62.9599H301.605V50.3599H303.315V51.7099ZM308.211 56.7499C308.715 56.2099 308.967 55.5199 308.967 54.6799C308.967 53.8399 308.715 53.1559 308.211 52.6279C307.707 52.0879 307.065 51.8179 306.285 51.8179C305.649 51.8179 305.085 51.9919 304.593 52.3399C304.113 52.6879 303.759 53.1139 303.531 53.6179V55.7239C303.759 56.2399 304.113 56.6719 304.593 57.0199C305.085 57.3679 305.649 57.5419 306.285 57.5419C307.065 57.5419 307.707 57.2779 308.211 56.7499Z" fill="white"/>
<path d="M314.728 58.9999H312.802V50.3599H314.728V53.8339H319.048V50.3599H320.974V58.9999H319.048V55.5259H314.728V58.9999Z" fill="white"/>
<path d="M325.472 58.0099C325.472 58.3939 325.358 58.6879 325.13 58.8919C324.902 59.0959 324.614 59.1979 324.266 59.1979C323.918 59.1979 323.624 59.0959 323.384 58.8919C323.156 58.6879 323.042 58.3939 323.042 58.0099C323.042 57.6379 323.156 57.3559 323.384 57.1639C323.624 56.9599 323.918 56.8579 324.266 56.8579C324.614 56.8579 324.902 56.9599 325.13 57.1639C325.358 57.3559 325.472 57.6379 325.472 58.0099Z" fill="white"/>
<path d="M242.188 234.768C243.4 233.94 244.756 233.526 246.256 233.526C247.54 233.526 248.578 233.826 249.37 234.426C250.162 235.014 250.558 235.86 250.558 236.964C250.558 237.888 250.252 238.68 249.64 239.34C249.04 239.988 248.218 240.624 247.174 241.248C247.09 241.296 246.934 241.386 246.706 241.518C246.49 241.65 246.334 241.746 246.238 241.806C246.154 241.854 246.016 241.938 245.824 242.058C245.632 242.178 245.488 242.268 245.392 242.328C245.308 242.388 245.188 242.478 245.032 242.598C244.888 242.706 244.78 242.802 244.708 242.886C244.636 242.958 244.552 243.054 244.456 243.174C244.36 243.282 244.288 243.384 244.24 243.48C244.204 243.576 244.168 243.684 244.132 243.804C244.096 243.924 244.078 244.044 244.078 244.164L250.648 244.146V246H241.774V245.064C241.774 244.392 241.864 243.798 242.044 243.282C242.236 242.754 242.566 242.274 243.034 241.842C243.514 241.398 243.886 241.086 244.15 240.906C244.414 240.714 244.882 240.42 245.554 240.024C245.614 239.976 245.662 239.94 245.698 239.916C245.746 239.892 245.794 239.868 245.842 239.844C246.85 239.256 247.498 238.83 247.786 238.566C248.266 238.098 248.506 237.576 248.506 237C248.506 236.472 248.29 236.07 247.858 235.794C247.438 235.518 246.844 235.38 246.076 235.38C244.744 235.38 243.448 235.836 242.188 236.748V234.768Z" fill="#0FA7F0"/>
<path d="M259.69 233.76H261.202V244.146H263.38V246H256.72V244.146H259.168V235.866L256.72 236.784V234.894L259.69 233.76Z" fill="#0FA7F0"/>
<path d="M270.73 233.76H272.836V241.716H274.942V243.498H272.836V246H270.856V243.498H264.214V241.752L270.73 233.76ZM270.856 241.716V236.37L266.5 241.716H270.856Z" fill="#0FA7F0"/>
<path d="M277.721 244.488C276.797 243.312 276.335 241.776 276.335 239.88C276.335 237.984 276.797 236.454 277.721 235.29C278.645 234.114 280.013 233.526 281.825 233.526C283.637 233.526 285.005 234.114 285.929 235.29C286.853 236.454 287.315 237.984 287.315 239.88C287.315 241.776 286.853 243.312 285.929 244.488C285.005 245.652 283.637 246.234 281.825 246.234C280.013 246.234 278.645 245.652 277.721 244.488ZM281.825 244.362C284.105 244.362 285.245 242.868 285.245 239.88C285.245 236.892 284.105 235.398 281.825 235.398C279.545 235.398 278.405 236.892 278.405 239.88C278.405 242.868 279.545 244.362 281.825 244.362Z" fill="#0FA7F0"/>
<path d="M295.566 246H293.64V237.36H300.084V239.052H295.566V246Z" fill="#0FA7F0"/>
<path d="M303.295 238.71C304.171 237.654 305.281 237.126 306.625 237.126C307.897 237.126 308.929 237.57 309.721 238.458C310.513 239.334 310.909 240.408 310.909 241.68C310.909 242.952 310.513 244.032 309.721 244.92C308.929 245.796 307.897 246.234 306.625 246.234C305.329 246.234 304.291 245.784 303.511 244.884V249.96H301.585V237.36H303.295V238.71ZM308.191 243.75C308.695 243.21 308.947 242.52 308.947 241.68C308.947 240.84 308.695 240.156 308.191 239.628C307.687 239.088 307.045 238.818 306.265 238.818C305.629 238.818 305.065 238.992 304.573 239.34C304.093 239.688 303.739 240.114 303.511 240.618V242.724C303.739 243.24 304.093 243.672 304.573 244.02C305.065 244.368 305.629 244.542 306.265 244.542C307.045 244.542 307.687 244.278 308.191 243.75Z" fill="#0FA7F0"/>
<path d="M314.709 246H312.783V237.36H314.709V240.834H319.029V237.36H320.955V246H319.029V242.526H314.709V246Z" fill="#0FA7F0"/>
<path d="M325.453 245.01C325.453 245.394 325.339 245.688 325.111 245.892C324.883 246.096 324.595 246.198 324.247 246.198C323.899 246.198 323.605 246.096 323.365 245.892C323.137 245.688 323.023 245.394 323.023 245.01C323.023 244.638 323.137 244.356 323.365 244.164C323.605 243.96 323.899 243.858 324.247 243.858C324.595 243.858 324.883 243.96 325.111 244.164C325.339 244.356 325.453 244.638 325.453 245.01Z" fill="#0FA7F0"/>
<path d="M444.188 234.768C445.4 233.94 446.756 233.526 448.256 233.526C449.54 233.526 450.578 233.826 451.37 234.426C452.162 235.014 452.558 235.86 452.558 236.964C452.558 237.888 452.252 238.68 451.64 239.34C451.04 239.988 450.218 240.624 449.174 241.248C449.09 241.296 448.934 241.386 448.706 241.518C448.49 241.65 448.334 241.746 448.238 241.806C448.154 241.854 448.016 241.938 447.824 242.058C447.632 242.178 447.488 242.268 447.392 242.328C447.308 242.388 447.188 242.478 447.032 242.598C446.888 242.706 446.78 242.802 446.708 242.886C446.636 242.958 446.552 243.054 446.456 243.174C446.36 243.282 446.288 243.384 446.24 243.48C446.204 243.576 446.168 243.684 446.132 243.804C446.096 243.924 446.078 244.044 446.078 244.164L452.648 244.146V246H443.774V245.064C443.774 244.392 443.864 243.798 444.044 243.282C444.236 242.754 444.566 242.274 445.034 241.842C445.514 241.398 445.886 241.086 446.15 240.906C446.414 240.714 446.882 240.42 447.554 240.024C447.614 239.976 447.662 239.94 447.698 239.916C447.746 239.892 447.794 239.868 447.842 239.844C448.85 239.256 449.498 238.83 449.786 238.566C450.266 238.098 450.506 237.576 450.506 237C450.506 236.472 450.29 236.07 449.858 235.794C449.438 235.518 448.844 235.38 448.076 235.38C446.744 235.38 445.448 235.836 444.188 236.748V234.768Z" fill="#0FA7F0"/>
<path d="M467.108 236.874C467.108 237.51 466.94 238.068 466.604 238.548C466.28 239.028 465.842 239.358 465.29 239.538C465.95 239.742 466.502 240.102 466.946 240.618C467.39 241.134 467.612 241.818 467.612 242.67C467.612 243.834 467.168 244.722 466.28 245.334C465.392 245.934 464.276 246.234 462.932 246.234C461.36 246.234 459.944 245.964 458.684 245.424V243.444C459.86 244.092 461.222 244.404 462.77 244.38C464.69 244.356 465.65 243.714 465.65 242.454C465.65 241.23 464.786 240.618 463.058 240.618H461.114V238.764L462.824 238.782C463.568 238.782 464.138 238.638 464.534 238.35C464.942 238.05 465.146 237.642 465.146 237.126C465.146 236.574 464.918 236.148 464.462 235.848C464.018 235.536 463.382 235.38 462.554 235.38C461.282 235.38 460.064 235.716 458.9 236.388V234.426C460.04 233.826 461.348 233.526 462.824 233.526C464.108 233.526 465.14 233.826 465.92 234.426C466.712 235.026 467.108 235.842 467.108 236.874Z" fill="#0FA7F0"/>
<path d="M469.624 234.768C470.836 233.94 472.192 233.526 473.692 233.526C474.976 233.526 476.014 233.826 476.806 234.426C477.598 235.014 477.994 235.86 477.994 236.964C477.994 237.888 477.688 238.68 477.076 239.34C476.476 239.988 475.654 240.624 474.61 241.248C474.526 241.296 474.37 241.386 474.142 241.518C473.926 241.65 473.77 241.746 473.674 241.806C473.59 241.854 473.452 241.938 473.26 242.058C473.068 242.178 472.924 242.268 472.828 242.328C472.744 242.388 472.624 242.478 472.468 242.598C472.324 242.706 472.216 242.802 472.144 242.886C472.072 242.958 471.988 243.054 471.892 243.174C471.796 243.282 471.724 243.384 471.676 243.48C471.64 243.576 471.604 243.684 471.568 243.804C471.532 243.924 471.514 244.044 471.514 244.164L478.084 244.146V246H469.21V245.064C469.21 244.392 469.3 243.798 469.48 243.282C469.672 242.754 470.002 242.274 470.47 241.842C470.95 241.398 471.322 241.086 471.586 240.906C471.85 240.714 472.318 240.42 472.99 240.024C473.05 239.976 473.098 239.94 473.134 239.916C473.182 239.892 473.23 239.868 473.278 239.844C474.286 239.256 474.934 238.83 475.222 238.566C475.702 238.098 475.942 237.576 475.942 237C475.942 236.472 475.726 236.07 475.294 235.794C474.874 235.518 474.28 235.38 473.512 235.38C472.18 235.38 470.884 235.836 469.624 236.748V234.768Z" fill="#0FA7F0"/>
<path d="M481.215 244.488C480.291 243.312 479.829 241.776 479.829 239.88C479.829 237.984 480.291 236.454 481.215 235.29C482.139 234.114 483.507 233.526 485.319 233.526C487.131 233.526 488.499 234.114 489.423 235.29C490.347 236.454 490.809 237.984 490.809 239.88C490.809 241.776 490.347 243.312 489.423 244.488C488.499 245.652 487.131 246.234 485.319 246.234C483.507 246.234 482.139 245.652 481.215 244.488ZM485.319 244.362C487.599 244.362 488.739 242.868 488.739 239.88C488.739 236.892 487.599 235.398 485.319 235.398C483.039 235.398 481.899 236.892 481.899 239.88C481.899 242.868 483.039 244.362 485.319 244.362Z" fill="#0FA7F0"/>
<path d="M499.06 246H497.134V237.36H503.578V239.052H499.06V246Z" fill="#0FA7F0"/>
<path d="M506.789 238.71C507.665 237.654 508.775 237.126 510.119 237.126C511.391 237.126 512.423 237.57 513.215 238.458C514.007 239.334 514.403 240.408 514.403 241.68C514.403 242.952 514.007 244.032 513.215 244.92C512.423 245.796 511.391 246.234 510.119 246.234C508.823 246.234 507.785 245.784 507.005 244.884V249.96H505.079V237.36H506.789V238.71ZM511.685 243.75C512.189 243.21 512.441 242.52 512.441 241.68C512.441 240.84 512.189 240.156 511.685 239.628C511.181 239.088 510.539 238.818 509.759 238.818C509.123 238.818 508.559 238.992 508.067 239.34C507.587 239.688 507.233 240.114 507.005 240.618V242.724C507.233 243.24 507.587 243.672 508.067 244.02C508.559 244.368 509.123 244.542 509.759 244.542C510.539 244.542 511.181 244.278 511.685 243.75Z" fill="#0FA7F0"/>
<path d="M518.203 246H516.277V237.36H518.203V240.834H522.523V237.36H524.449V246H522.523V242.526H518.203V246Z" fill="#0FA7F0"/>
<path d="M528.947 245.01C528.947 245.394 528.833 245.688 528.605 245.892C528.377 246.096 528.089 246.198 527.741 246.198C527.393 246.198 527.099 246.096 526.859 245.892C526.631 245.688 526.517 245.394 526.517 245.01C526.517 244.638 526.631 244.356 526.859 244.164C527.099 243.96 527.393 243.858 527.741 243.858C528.089 243.858 528.377 243.96 528.605 244.164C528.833 244.356 528.947 244.638 528.947 245.01Z" fill="#0FA7F0"/>
<path d="M43.9055 233.76H45.4175V244.146H47.5955V246H40.9355V244.146H43.3835V235.866L40.9355 236.784V234.894L43.9055 233.76Z" fill="#F28100"/>
<path d="M52.8815 237.63C52.8815 236.334 53.3135 235.326 54.1775 234.606C55.0415 233.886 56.1215 233.526 57.4175 233.526C59.2295 233.526 60.5675 234.066 61.4315 235.146C62.3075 236.226 62.7455 237.768 62.7455 239.772C62.7455 241.908 62.2175 243.522 61.1615 244.614C60.1055 245.694 58.7435 246.234 57.0755 246.234C55.9595 246.234 54.9035 245.994 53.9075 245.514V243.642C54.8315 244.158 55.8215 244.416 56.8775 244.416C57.9095 244.416 58.7675 244.11 59.4515 243.498C60.1475 242.886 60.5555 241.896 60.6755 240.528C59.5715 241.188 58.3835 241.518 57.1115 241.518C55.9715 241.518 54.9815 241.176 54.1415 240.492C53.3015 239.808 52.8815 238.854 52.8815 237.63ZM57.5615 235.29C56.7935 235.29 56.1635 235.476 55.6715 235.848C55.1915 236.208 54.9515 236.772 54.9515 237.54C54.9515 238.32 55.2095 238.884 55.7255 239.232C56.2415 239.568 56.9015 239.736 57.7055 239.736C58.8095 239.736 59.7935 239.394 60.6575 238.71C60.4415 236.43 59.4095 235.29 57.5615 235.29Z" fill="#F28100"/>
<path d="M65.857 244.488C64.933 243.312 64.471 241.776 64.471 239.88C64.471 237.984 64.933 236.454 65.857 235.29C66.781 234.114 68.149 233.526 69.961 233.526C71.773 233.526 73.141 234.114 74.065 235.29C74.989 236.454 75.451 237.984 75.451 239.88C75.451 241.776 74.989 243.312 74.065 244.488C73.141 245.652 71.773 246.234 69.961 246.234C68.149 246.234 66.781 245.652 65.857 244.488ZM69.961 244.362C72.241 244.362 73.381 242.868 73.381 239.88C73.381 236.892 72.241 235.398 69.961 235.398C67.681 235.398 66.541 236.892 66.541 239.88C66.541 242.868 67.681 244.362 69.961 244.362Z" fill="#F28100"/>
<path d="M78.566 244.488C77.642 243.312 77.18 241.776 77.18 239.88C77.18 237.984 77.642 236.454 78.566 235.29C79.49 234.114 80.858 233.526 82.67 233.526C84.482 233.526 85.85 234.114 86.774 235.29C87.698 236.454 88.16 237.984 88.16 239.88C88.16 241.776 87.698 243.312 86.774 244.488C85.85 245.652 84.482 246.234 82.67 246.234C80.858 246.234 79.49 245.652 78.566 244.488ZM82.67 244.362C84.95 244.362 86.09 242.868 86.09 239.88C86.09 236.892 84.95 235.398 82.67 235.398C80.39 235.398 79.25 236.892 79.25 239.88C79.25 242.868 80.39 244.362 82.67 244.362Z" fill="#F28100"/>
<path d="M96.4108 246H94.4848V237.36H100.929V239.052H96.4108V246Z" fill="#F28100"/>
<path d="M104.14 238.71C105.016 237.654 106.126 237.126 107.47 237.126C108.742 237.126 109.774 237.57 110.566 238.458C111.358 239.334 111.754 240.408 111.754 241.68C111.754 242.952 111.358 244.032 110.566 244.92C109.774 245.796 108.742 246.234 107.47 246.234C106.174 246.234 105.136 245.784 104.356 244.884V249.96H102.43V237.36H104.14V238.71ZM109.036 243.75C109.54 243.21 109.792 242.52 109.792 241.68C109.792 240.84 109.54 240.156 109.036 239.628C108.532 239.088 107.89 238.818 107.11 238.818C106.474 238.818 105.91 238.992 105.418 239.34C104.938 239.688 104.584 240.114 104.356 240.618V242.724C104.584 243.24 104.938 243.672 105.418 244.02C105.91 244.368 106.474 244.542 107.11 244.542C107.89 244.542 108.532 244.278 109.036 243.75Z" fill="#F28100"/>
<path d="M115.553 246H113.627V237.36H115.553V240.834H119.873V237.36H121.799V246H119.873V242.526H115.553V246Z" fill="#F28100"/>
<path d="M126.297 245.01C126.297 245.394 126.183 245.688 125.955 245.892C125.727 246.096 125.439 246.198 125.091 246.198C124.743 246.198 124.449 246.096 124.209 245.892C123.981 245.688 123.867 245.394 123.867 245.01C123.867 244.638 123.981 244.356 124.209 244.164C124.449 243.96 124.743 243.858 125.091 243.858C125.439 243.858 125.727 243.96 125.955 244.164C126.183 244.356 126.297 244.638 126.297 245.01Z" fill="#F28100"/>
<path fill-rule="evenodd" clip-rule="evenodd" d="M80.5 142C80.5 138.962 82.9624 136.5 86 136.5H479C482.038 136.5 484.5 138.962 484.5 142V187H483.5V142C483.5 139.515 481.485 137.5 479 137.5H86C83.5147 137.5 81.5 139.515 81.5 142V187H80.5V142Z" fill="#DDDDE6"/>
<path fill-rule="evenodd" clip-rule="evenodd" d="M283 187L283 87L284 87L284 187L283 187Z" fill="#DDDDE6"/>
<path d="M87 188C87 191.314 84.3137 194 81 194C77.6863 194 75 191.314 75 188C75 184.686 77.6863 182 81 182C84.3137 182 87 184.686 87 188Z" fill="white"/>
<path fill-rule="evenodd" clip-rule="evenodd" d="M81 193C83.7614 193 86 190.761 86 188C86 185.239 83.7614 183 81 183C78.2386 183 76 185.239 76 188C76 190.761 78.2386 193 81 193ZM81 194C84.3137 194 87 191.314 87 188C87 184.686 84.3137 182 81 182C77.6863 182 75 184.686 75 188C75 191.314 77.6863 194 81 194Z" fill="#DDDDE6"/>
<path d="M289 188C289 191.314 286.314 194 283 194C279.686 194 277 191.314 277 188C277 184.686 279.686 182 283 182C286.314 182 289 184.686 289 188Z" fill="white"/>
<path fill-rule="evenodd" clip-rule="evenodd" d="M283 193C285.761 193 288 190.761 288 188C288 185.239 285.761 183 283 183C280.239 183 278 185.239 278 188C278 190.761 280.239 193 283 193ZM283 194C286.314 194 289 191.314 289 188C289 184.686 286.314 182 283 182C279.686 182 277 184.686 277 188C277 191.314 279.686 194 283 194Z" fill="#DDDDE6"/>
<path d="M490 188C490 191.314 487.314 194 484 194C480.686 194 478 191.314 478 188C478 184.686 480.686 182 484 182C487.314 182 490 184.686 490 188Z" fill="white"/>
<path fill-rule="evenodd" clip-rule="evenodd" d="M484 193C486.761 193 489 190.761 489 188C489 185.239 486.761 183 484 183C481.239 183 479 185.239 479 188C479 190.761 481.239 193 484 193ZM484 194C487.314 194 490 191.314 490 188C490 184.686 487.314 182 484 182C480.686 182 478 184.686 478 188C478 191.314 480.686 194 484 194Z" fill="#DDDDE6"/>
</svg>
