<svg width="508" height="276" viewBox="0 0 508 276" fill="none" xmlns="http://www.w3.org/2000/svg">
<path d="M176 45C176 42.2386 178.239 40 181 40H327C329.761 40 332 42.2386 332 45V80H176V45Z" fill="#37376D"/>
<path d="M0 5C0 2.23858 2.23858 0 5 0H151C153.761 0 156 2.23858 156 5V40H0V5Z" fill="#37376D"/>
<path d="M352 5C352 2.23858 354.239 0 357 0H503C505.761 0 508 2.23858 508 5V40H352V5Z" fill="#37376D"/>
<path fill-rule="evenodd" clip-rule="evenodd" d="M331 81H177V119H331V81ZM176 80V120H332V80H176Z" fill="#DDDDE6"/>
<path fill-rule="evenodd" clip-rule="evenodd" d="M155 41H1V79H155V41ZM0 40V80H156V40H0Z" fill="#DDDDE6"/>
<path fill-rule="evenodd" clip-rule="evenodd" d="M507 41H353V79H507V41ZM352 40V80H508V40H352Z" fill="#DDDDE6"/>
<path d="M176 119H332V159H176V119Z" fill="#F9F9FB"/>
<path fill-rule="evenodd" clip-rule="evenodd" d="M331 120H177V158H331V120ZM176 119V159H332V119H176Z" fill="#DDDDE6"/>
<path d="M0 79H156V119H0V79Z" fill="#F9F9FB"/>
<path fill-rule="evenodd" clip-rule="evenodd" d="M155 80H1V118H155V80ZM0 79V119H156V79H0Z" fill="#DDDDE6"/>
<path d="M352 79H508V119H352V79Z" fill="#F9F9FB"/>
<path fill-rule="evenodd" clip-rule="evenodd" d="M507 80H353V118H507V80ZM352 79V119H508V79H352Z" fill="#DDDDE6"/>
<path fill-rule="evenodd" clip-rule="evenodd" d="M331 159H177V197H331V159ZM176 158V198H332V158H176Z" fill="#DDDDE6"/>
<path fill-rule="evenodd" clip-rule="evenodd" d="M155 119H1V157H155V119ZM0 118V158H156V118H0Z" fill="#DDDDE6"/>
<path fill-rule="evenodd" clip-rule="evenodd" d="M507 119H353V157H507V119ZM352 118V158H508V118H352Z" fill="#DDDDE6"/>
<path d="M176 197H332V237H176V197Z" fill="#F9F9FB"/>
<path fill-rule="evenodd" clip-rule="evenodd" d="M331 198H177V236H331V198ZM176 197V237H332V197H176Z" fill="#DDDDE6"/>
<path d="M0 157H156V197H0V157Z" fill="#F9F9FB"/>
<path fill-rule="evenodd" clip-rule="evenodd" d="M155 158H1V196H155V158ZM0 157V197H156V157H0Z" fill="#DDDDE6"/>
<path d="M352 157H508V197H352V157Z" fill="#F9F9FB"/>
<path fill-rule="evenodd" clip-rule="evenodd" d="M507 158H353V196H507V158ZM352 157V197H508V157H352Z" fill="#DDDDE6"/>
<path fill-rule="evenodd" clip-rule="evenodd" d="M331 237H177V271C177 273.209 178.791 275 181 275H327C329.209 275 331 273.209 331 271V237ZM176 236V271C176 273.761 178.239 276 181 276H327C329.761 276 332 273.761 332 271V236H176Z" fill="#DDDDE6"/>
<path fill-rule="evenodd" clip-rule="evenodd" d="M155 197H1V231C1 233.209 2.79086 235 5 235H151C153.209 235 155 233.209 155 231V197ZM0 196V231C0 233.761 2.23857 236 5 236H151C153.761 236 156 233.761 156 231V196H0Z" fill="#DDDDE6"/>
<path fill-rule="evenodd" clip-rule="evenodd" d="M507 197H353V231C353 233.209 354.791 235 357 235H503C505.209 235 507 233.209 507 231V197ZM352 196V231C352 233.761 354.239 236 357 236H503C505.761 236 508 233.761 508 231V196H352Z" fill="#DDDDE6"/>
<path d="M204.356 53.3999H205.652V65.9999H204.14V56.2619L199.622 63.0299H198.686L194.168 56.2619V65.9999H192.656V53.3999H193.952L199.154 61.1759L204.356 53.3999Z" fill="white"/>
<path d="M210.121 65.9999H208.681V57.3599H210.121V65.9999ZM210.067 53.9399C210.247 54.0959 210.337 54.3179 210.337 54.6059C210.337 54.8939 210.247 55.1219 210.067 55.2899C209.887 55.4459 209.665 55.5239 209.401 55.5239C209.137 55.5239 208.915 55.4459 208.735 55.2899C208.555 55.1219 208.465 54.8939 208.465 54.6059C208.465 54.3179 208.555 54.0959 208.735 53.9399C208.915 53.7719 209.137 53.6879 209.401 53.6879C209.665 53.6879 209.887 53.7719 210.067 53.9399Z" fill="white"/>
<path d="M214.124 58.6379C214.436 58.2179 214.868 57.8639 215.42 57.5759C215.984 57.2879 216.59 57.1439 217.238 57.1439C218.282 57.1439 219.14 57.4739 219.812 58.1339C220.496 58.7819 220.838 59.6279 220.838 60.6719V65.9999H219.398V60.8519C219.398 60.0719 219.182 59.4839 218.75 59.0879C218.33 58.6799 217.772 58.4759 217.076 58.4759C215.972 58.4759 215.036 59.0519 214.268 60.2039V65.9999H212.828V57.3599H214.124V58.6379Z" fill="white"/>
<path d="M240.079 68.9699H238.639L238.657 65.9999H228.199V53.3999H229.711V64.5599H237.001V53.3999H238.513V64.5599H240.079V68.9699Z" fill="white"/>
<path d="M241.115 61.6799C241.115 60.2639 241.547 59.1539 242.411 58.3499C243.287 57.5459 244.289 57.1439 245.417 57.1439C246.473 57.1439 247.343 57.4079 248.027 57.9359C248.723 58.4639 249.179 59.1179 249.395 59.8979C249.611 60.6659 249.623 61.4699 249.431 62.3099H242.555C242.639 63.1619 243.017 63.8039 243.689 64.2359C244.361 64.6679 245.171 64.8839 246.119 64.8839C247.175 64.8839 248.123 64.6499 248.963 64.1819V65.5859C248.159 66.0059 247.139 66.2159 245.903 66.2159C244.535 66.2159 243.395 65.8259 242.483 65.0459C241.571 64.2659 241.115 63.1439 241.115 61.6799ZM248.153 61.0499C248.189 60.7979 248.171 60.5339 248.099 60.2579C248.027 59.9819 247.895 59.7059 247.703 59.4299C247.523 59.1539 247.241 58.9259 246.857 58.7459C246.473 58.5659 246.023 58.4759 245.507 58.4759C244.727 58.4759 244.049 58.7039 243.473 59.1599C242.909 59.6159 242.603 60.2459 242.555 61.0499H248.153Z" fill="white"/>
<path d="M252.975 65.9999H251.535V57.3599H252.975V61.0139H257.979V57.3599H259.419V65.9999H257.979V62.3459H252.975V65.9999Z" fill="white"/>
<path d="M269.102 64.1999C269.102 64.6439 269.324 64.8659 269.768 64.8659C269.96 64.8659 270.182 64.8239 270.434 64.7399V65.9099C270.074 66.0419 269.714 66.1079 269.354 66.1079C268.526 66.1079 267.998 65.7599 267.77 65.0639C266.846 65.8319 265.724 66.2159 264.404 66.2159C263.564 66.2159 262.844 65.9939 262.244 65.5499C261.656 65.0939 261.362 64.4399 261.362 63.5879C261.362 62.5679 261.74 61.8299 262.496 61.3739C263.264 60.9059 264.188 60.6719 265.268 60.6719C266.06 60.6719 266.858 60.7619 267.662 60.9419V60.6359C267.662 59.9759 267.446 59.4539 267.014 59.0699C266.582 58.6739 265.976 58.4759 265.196 58.4759C264.104 58.4759 263.054 58.6919 262.046 59.1239V57.7199C263.174 57.3359 264.272 57.1439 265.34 57.1439C266.516 57.1439 267.434 57.4619 268.094 58.0979C268.766 58.7219 269.102 59.6279 269.102 60.8159V64.1999ZM262.838 63.5159C262.838 63.9959 263.018 64.3619 263.378 64.6139C263.75 64.8539 264.194 64.9739 264.71 64.9739C265.898 64.9739 266.882 64.5539 267.662 63.7139V62.1299C266.846 61.9619 266.114 61.8779 265.466 61.8779C264.734 61.8779 264.11 62.0099 263.594 62.2739C263.09 62.5259 262.838 62.9399 262.838 63.5159Z" fill="white"/>
<path d="M18.1683 25.9999H16.6562V13.3999H26.9343V25.9999H25.4223V14.8399H18.1683V25.9999Z" fill="white"/>
<path d="M31.2161 18.7999C32.1881 17.6959 33.3521 17.1439 34.7081 17.1439C35.9441 17.1439 36.9701 17.5759 37.7861 18.4399C38.6141 19.3039 39.0281 20.3839 39.0281 21.6799C39.0281 22.9759 38.6141 24.0559 37.7861 24.9199C36.9701 25.7839 35.9441 26.2159 34.7081 26.2159C33.3401 26.2159 32.2241 25.7119 31.3601 24.7039V29.9599H29.9201V17.3599H31.2161V18.7999ZM36.7061 24.0019C37.2941 23.4139 37.5881 22.6399 37.5881 21.6799C37.5881 20.7199 37.2941 19.9459 36.7061 19.3579C36.1301 18.7699 35.4101 18.4759 34.5461 18.4759C33.8141 18.4759 33.1661 18.6799 32.6021 19.0879C32.0381 19.4959 31.6241 19.9999 31.3601 20.5999V22.7599C31.6241 23.3599 32.0381 23.8639 32.6021 24.2719C33.1661 24.6799 33.8141 24.8839 34.5461 24.8839C35.4101 24.8839 36.1301 24.5899 36.7061 24.0019Z" fill="white"/>
<path d="M40.5058 21.6799C40.5058 20.2639 40.9378 19.1539 41.8018 18.3499C42.6778 17.5459 43.6798 17.1439 44.8078 17.1439C45.8638 17.1439 46.7338 17.4079 47.4178 17.9359C48.1138 18.4639 48.5698 19.1179 48.7858 19.8979C49.0018 20.6659 49.0138 21.4699 48.8218 22.3099H41.9458C42.0298 23.1619 42.4078 23.8039 43.0798 24.2359C43.7518 24.6679 44.5618 24.8839 45.5098 24.8839C46.5658 24.8839 47.5138 24.6499 48.3538 24.1819V25.5859C47.5498 26.0059 46.5298 26.2159 45.2938 26.2159C43.9258 26.2159 42.7858 25.8259 41.8738 25.0459C40.9618 24.2659 40.5058 23.1439 40.5058 21.6799ZM47.5438 21.0499C47.5798 20.7979 47.5618 20.5339 47.4898 20.2579C47.4178 19.9819 47.2858 19.7059 47.0938 19.4299C46.9138 19.1539 46.6318 18.9259 46.2478 18.7459C45.8638 18.5659 45.4138 18.4759 44.8978 18.4759C44.1178 18.4759 43.4398 18.7039 42.8638 19.1599C42.2998 19.6159 41.9938 20.2459 41.9458 21.0499H47.5438Z" fill="white"/>
<path d="M51.3254 28.3399H49.9214V24.7039H51.0734C52.0934 22.9039 52.5854 20.4559 52.5494 17.3599H58.9934V24.7039H60.2534V28.3399H58.8494V25.9999H51.3254V28.3399ZM53.9354 18.6559C53.8754 21.0199 53.4434 23.0359 52.6394 24.7039H57.5534V18.6559H53.9354Z" fill="white"/>
<path d="M65.236 18.6919C65.176 19.6399 65.104 20.4679 65.02 21.1759C64.936 21.8839 64.816 22.5679 64.66 23.2279C64.504 23.8759 64.312 24.4039 64.084 24.8119C63.868 25.2199 63.592 25.5439 63.256 25.7839C62.92 26.0239 62.536 26.1439 62.104 26.1439C61.756 26.1439 61.408 26.0779 61.06 25.9459V24.8119C61.252 24.8839 61.444 24.9199 61.636 24.9199C62.356 24.9199 62.878 24.2899 63.202 23.0299C63.538 21.7579 63.748 19.8679 63.832 17.3599H70.186V25.9999H68.746V18.6919H65.236Z" fill="white"/>
<path d="M73.6199 25.0099C72.7079 24.1939 72.2519 23.0839 72.2519 21.6799C72.2519 20.2759 72.7079 19.1719 73.6199 18.3679C74.5319 17.5519 75.6119 17.1439 76.8599 17.1439C78.1199 17.1439 79.1999 17.5519 80.0999 18.3679C81.0119 19.1719 81.4679 20.2759 81.4679 21.6799C81.4679 23.0839 81.0119 24.1939 80.0999 25.0099C79.1999 25.8139 78.1199 26.2159 76.8599 26.2159C75.6119 26.2159 74.5319 25.8139 73.6199 25.0099ZM79.1279 24.0019C79.7279 23.4259 80.0279 22.6519 80.0279 21.6799C80.0279 20.7079 79.7279 19.9399 79.1279 19.3759C78.5279 18.7999 77.7719 18.5119 76.8599 18.5119C75.9479 18.5119 75.1919 18.7999 74.5919 19.3759C73.9919 19.9399 73.6919 20.7079 73.6919 21.6799C73.6919 22.6519 73.9919 23.4259 74.5919 24.0019C75.1919 24.5659 75.9479 24.8479 76.8599 24.8479C77.7719 24.8479 78.5279 24.5659 79.1279 24.0019Z" fill="white"/>
<path d="M95.2255 25.9999H93.6055L90.6715 22.3819H89.2855V25.9999H87.8456V22.3819H86.4595L83.5256 25.9999H81.9055L85.3436 21.6619L82.3016 17.3599H83.9035L86.5315 21.0499H87.8456V17.3599H89.2855V21.0499H90.5995L93.2275 17.3599H94.8296L91.7876 21.6619L95.2255 25.9999Z" fill="white"/>
<path d="M95.666 21.6799C95.666 20.2639 96.098 19.1539 96.962 18.3499C97.838 17.5459 98.84 17.1439 99.968 17.1439C101.024 17.1439 101.894 17.4079 102.578 17.9359C103.274 18.4639 103.73 19.1179 103.946 19.8979C104.162 20.6659 104.174 21.4699 103.982 22.3099H97.106C97.19 23.1619 97.568 23.8039 98.24 24.2359C98.912 24.6679 99.722 24.8839 100.67 24.8839C101.726 24.8839 102.674 24.6499 103.514 24.1819V25.5859C102.71 26.0059 101.69 26.2159 100.454 26.2159C99.086 26.2159 97.946 25.8259 97.034 25.0459C96.122 24.2659 95.666 23.1439 95.666 21.6799ZM102.704 21.0499C102.74 20.7979 102.722 20.5339 102.65 20.2579C102.578 19.9819 102.446 19.7059 102.254 19.4299C102.074 19.1539 101.792 18.9259 101.408 18.7459C101.024 18.5659 100.574 18.4759 100.058 18.4759C99.278 18.4759 98.6 18.7039 98.024 19.1599C97.46 19.6159 97.154 20.2459 97.106 21.0499H102.704Z" fill="white"/>
<path d="M107.526 25.9999H106.086V17.3599H107.526V21.0139H112.53V17.3599H113.97V25.9999H112.53V22.3459H107.526V25.9999Z" fill="white"/>
<path d="M117.857 25.9999H116.633V17.3599H118.073V23.6779L123.365 17.3599H124.589V25.9999H123.149V19.6819L117.857 25.9999Z" fill="white"/>
<path d="M133.748 15.2719C133.04 15.7759 132.2 16.0279 131.228 16.0279C130.256 16.0279 129.416 15.7759 128.708 15.2719V13.9759C129.512 14.5039 130.352 14.7679 131.228 14.7679C132.104 14.7679 132.944 14.5039 133.748 13.9759V15.2719ZM128.474 25.9999H127.25V17.3599H128.69V23.6779L133.982 17.3599H135.206V25.9999H133.766V19.6819L128.474 25.9999Z" fill="white"/>
<path d="M371.168 25.9999H369.656V13.3999H371.168V18.8539H374.03L377.828 13.3999H379.556L375.272 19.5379L379.934 25.9999H378.206L374.084 20.2939H371.168V25.9999Z" fill="white"/>
<path d="M380.42 20.8519H386.846V22.2199H380.42V20.8519Z" fill="white"/>
<path d="M394.214 25.9999H389.336V17.3599H394.07C394.85 17.3599 395.486 17.5639 395.978 17.9719C396.482 18.3799 396.734 18.9559 396.734 19.6999C396.734 20.1319 396.626 20.5219 396.41 20.8699C396.194 21.2179 395.918 21.4639 395.582 21.6079C395.978 21.7399 396.314 21.9799 396.59 22.3279C396.866 22.6759 397.004 23.1019 397.004 23.6059C397.004 24.3379 396.764 24.9199 396.284 25.3519C395.816 25.7839 395.126 25.9999 394.214 25.9999ZM390.776 22.2559V24.7399H394.016C395.048 24.7399 395.564 24.3319 395.564 23.5159C395.564 22.6759 395.066 22.2559 394.07 22.2559H390.776ZM390.776 18.6199V21.0139H393.926C394.826 21.0139 395.276 20.6239 395.276 19.8439C395.276 19.3999 395.144 19.0879 394.88 18.9079C394.616 18.7159 394.298 18.6199 393.926 18.6199H390.776Z" fill="white"/>
<path d="M399.971 25.0099C399.059 24.1939 398.603 23.0839 398.603 21.6799C398.603 20.2759 399.059 19.1719 399.971 18.3679C400.883 17.5519 401.963 17.1439 403.211 17.1439C404.471 17.1439 405.551 17.5519 406.451 18.3679C407.363 19.1719 407.819 20.2759 407.819 21.6799C407.819 23.0839 407.363 24.1939 406.451 25.0099C405.551 25.8139 404.471 26.2159 403.211 26.2159C401.963 26.2159 400.883 25.8139 399.971 25.0099ZM405.479 24.0019C406.079 23.4259 406.379 22.6519 406.379 21.6799C406.379 20.7079 406.079 19.9399 405.479 19.3759C404.879 18.7999 404.123 18.5119 403.211 18.5119C402.299 18.5119 401.543 18.7999 400.943 19.3759C400.343 19.9399 400.043 20.7079 400.043 21.6799C400.043 22.6519 400.343 23.4259 400.943 24.0019C401.543 24.5659 402.299 24.8479 403.211 24.8479C404.123 24.8479 404.879 24.5659 405.479 24.0019Z" fill="white"/>
<path d="M421.387 24.1999C421.387 24.6439 421.609 24.8659 422.053 24.8659C422.245 24.8659 422.467 24.8239 422.719 24.7399V25.9099C422.359 26.0419 421.999 26.1079 421.639 26.1079C420.811 26.1079 420.283 25.7599 420.055 25.0639C419.131 25.8319 418.009 26.2159 416.689 26.2159C415.849 26.2159 415.129 25.9939 414.529 25.5499C413.941 25.0939 413.647 24.4399 413.647 23.5879C413.647 22.5679 414.025 21.8299 414.781 21.3739C415.549 20.9059 416.473 20.6719 417.553 20.6719C418.345 20.6719 419.143 20.7619 419.947 20.9419V20.6359C419.947 19.9759 419.731 19.4539 419.299 19.0699C418.867 18.6739 418.261 18.4759 417.481 18.4759C416.389 18.4759 415.339 18.6919 414.331 19.1239V17.7199C415.459 17.3359 416.557 17.1439 417.625 17.1439C418.801 17.1439 419.719 17.4619 420.379 18.0979C421.051 18.7219 421.387 19.6279 421.387 20.8159V24.1999ZM415.123 23.5159C415.123 23.9959 415.303 24.3619 415.663 24.6139C416.035 24.8539 416.479 24.9739 416.995 24.9739C418.183 24.9739 419.167 24.5539 419.947 23.7139V22.1299C419.131 21.9619 418.399 21.8779 417.751 21.8779C417.019 21.8779 416.395 22.0099 415.879 22.2739C415.375 22.5259 415.123 22.9399 415.123 23.5159Z" fill="white"/>
<path d="M425.704 25.9999H424.264V17.3599H425.704V20.9599H427.45L430.186 17.3599H431.86L428.584 21.6619L432.256 25.9999H430.564L427.396 22.2919H425.704V25.9999Z" fill="white"/>
<path d="M442.578 28.3399H441.174V25.9999H433.686V17.3599H435.126V24.6679H439.86V17.3599H441.3V24.6679H442.578V28.3399Z" fill="white"/>
<path d="M445.72 25.9999H444.496V17.3599H445.936V23.6779L451.228 17.3599H452.452V25.9999H451.012V19.6819L445.72 25.9999Z" fill="white"/>
<path d="M461.612 15.2719C460.904 15.7759 460.063 16.0279 459.091 16.0279C458.119 16.0279 457.28 15.7759 456.572 15.2719V13.9759C457.376 14.5039 458.215 14.7679 459.091 14.7679C459.967 14.7679 460.808 14.5039 461.612 13.9759V15.2719ZM456.338 25.9999H455.114V17.3599H456.554V23.6779L461.846 17.3599H463.07V25.9999H461.63V19.6819L456.338 25.9999Z" fill="white"/>
<path d="M198.128 93.7599H199.766V101.878H202.07V103.282H199.766V106H198.272V103.282H191.45V101.932L198.128 93.7599ZM198.272 101.878V95.7939L193.304 101.878H198.272Z" fill="#37376D"/>
<path d="M202.683 93.7599H211.503V95.1279L206.391 106H204.771L209.847 95.1999H202.683V93.7599Z" fill="#37376D"/>
<path d="M214.349 99.5379C215.513 98.7579 216.791 98.3679 218.183 98.3679C219.299 98.3679 220.277 98.7099 221.117 99.3939C221.957 100.066 222.377 101.002 222.377 102.202C222.377 103.462 221.957 104.446 221.117 105.154C220.289 105.862 219.245 106.216 217.985 106.216C216.257 106.216 214.961 105.682 214.097 104.614C213.245 103.534 212.819 102.022 212.819 100.078C212.819 97.9179 213.329 96.2919 214.349 95.1999C215.381 94.0959 216.725 93.5439 218.381 93.5439C219.449 93.5439 220.439 93.7779 221.351 94.2459V95.6859C220.463 95.2179 219.485 94.9839 218.417 94.9839C217.289 94.9839 216.347 95.3499 215.591 96.0819C214.847 96.8019 214.433 97.9539 214.349 99.5379ZM214.367 101.05C214.595 103.558 215.765 104.812 217.877 104.812C218.765 104.812 219.479 104.608 220.019 104.2C220.571 103.792 220.847 103.15 220.847 102.274C220.847 101.386 220.565 100.75 220.001 100.366C219.437 99.9699 218.705 99.7719 217.805 99.7719C216.473 99.7719 215.327 100.198 214.367 101.05Z" fill="#37376D"/>
<path d="M225.529 99.5379C226.693 98.7579 227.971 98.3679 229.363 98.3679C230.479 98.3679 231.457 98.7099 232.297 99.3939C233.137 100.066 233.557 101.002 233.557 102.202C233.557 103.462 233.137 104.446 232.297 105.154C231.469 105.862 230.425 106.216 229.165 106.216C227.437 106.216 226.141 105.682 225.277 104.614C224.425 103.534 223.999 102.022 223.999 100.078C223.999 97.9179 224.509 96.2919 225.529 95.1999C226.561 94.0959 227.905 93.5439 229.561 93.5439C230.629 93.5439 231.619 93.7779 232.531 94.2459V95.6859C231.643 95.2179 230.665 94.9839 229.597 94.9839C228.469 94.9839 227.527 95.3499 226.771 96.0819C226.027 96.8019 225.613 97.9539 225.529 99.5379ZM225.547 101.05C225.775 103.558 226.945 104.812 229.057 104.812C229.945 104.812 230.659 104.608 231.199 104.2C231.751 103.792 232.027 103.15 232.027 102.274C232.027 101.386 231.745 100.75 231.181 100.366C230.617 99.9699 229.885 99.7719 228.985 99.7719C227.653 99.7719 226.507 100.198 225.547 101.05Z" fill="#37376D"/>
<path d="M236.641 104.578C236.821 104.734 236.911 104.956 236.911 105.244C236.911 105.532 236.821 105.76 236.641 105.928C236.461 106.084 236.239 106.162 235.975 106.162C235.711 106.162 235.483 106.084 235.291 105.928C235.111 105.76 235.021 105.532 235.021 105.244C235.021 104.956 235.111 104.734 235.291 104.578C235.483 104.422 235.711 104.344 235.975 104.344C236.239 104.344 236.461 104.422 236.641 104.578Z" fill="#37376D"/>
<path d="M244.763 93.7599H246.401V101.878H248.705V103.282H246.401V106H244.907V103.282H238.085V101.932L244.763 93.7599ZM244.907 101.878V95.7939L239.939 101.878H244.907Z" fill="#37376D"/>
<path d="M251.523 104.47C250.611 103.306 250.155 101.776 250.155 99.8799C250.155 97.9839 250.611 96.4539 251.523 95.2899C252.435 94.1259 253.779 93.5439 255.555 93.5439C257.343 93.5439 258.693 94.1259 259.605 95.2899C260.517 96.4419 260.973 97.9719 260.973 99.8799C260.973 101.788 260.517 103.324 259.605 104.488C258.693 105.64 257.343 106.216 255.555 106.216C253.779 106.216 252.435 105.634 251.523 104.47ZM258.471 103.516C259.119 102.664 259.443 101.452 259.443 99.8799C259.443 98.3079 259.119 97.1019 258.471 96.2619C257.835 95.4099 256.863 94.9839 255.555 94.9839C254.247 94.9839 253.275 95.4099 252.639 96.2619C252.003 97.1019 251.685 98.3079 251.685 99.8799C251.685 101.452 252.003 102.664 252.639 103.516C253.275 104.356 254.247 104.776 255.555 104.776C256.863 104.776 257.835 104.356 258.471 103.516Z" fill="#37376D"/>
<path d="M18.9241 53.7599H20.0401V64.5599H22.3261V65.9999H15.9541V64.5599H18.5281V55.3619L15.9541 56.3339V54.8939L18.9241 53.7599Z" fill="#37376D"/>
<path d="M25.0205 64.4699C24.1085 63.3059 23.6525 61.7759 23.6525 59.8799C23.6525 57.9839 24.1085 56.4539 25.0205 55.2899C25.9325 54.1259 27.2765 53.5439 29.0525 53.5439C30.8405 53.5439 32.1905 54.1259 33.1025 55.2899C34.0145 56.4419 34.4705 57.9719 34.4705 59.8799C34.4705 61.7879 34.0145 63.3239 33.1025 64.4879C32.1905 65.6399 30.8405 66.2159 29.0525 66.2159C27.2765 66.2159 25.9325 65.6339 25.0205 64.4699ZM31.9685 63.5159C32.6165 62.6639 32.9405 61.4519 32.9405 59.8799C32.9405 58.3079 32.6165 57.1019 31.9685 56.2619C31.3325 55.4099 30.3605 54.9839 29.0525 54.9839C27.7445 54.9839 26.7725 55.4099 26.1365 56.2619C25.5005 57.1019 25.1825 58.3079 25.1825 59.8799C25.1825 61.4519 25.5005 62.6639 26.1365 63.5159C26.7725 64.3559 27.7445 64.7759 29.0525 64.7759C30.3605 64.7759 31.3325 64.3559 31.9685 63.5159Z" fill="#37376D"/>
<path d="M375.128 53.76H376.766V61.878H379.07V63.282H376.766V66H375.272V63.282H368.45V61.932L375.128 53.76ZM375.272 61.878V55.794L370.304 61.878H375.272Z" fill="#37376D"/>
<path d="M192.224 133.732C193.364 132.94 194.672 132.544 196.148 132.544C197.42 132.544 198.434 132.832 199.19 133.408C199.946 133.984 200.324 134.788 200.324 135.82C200.324 136.312 200.228 136.774 200.036 137.206C199.856 137.638 199.58 138.034 199.208 138.394C198.848 138.754 198.494 139.06 198.146 139.312C197.81 139.552 197.384 139.822 196.868 140.122C196.808 140.158 196.622 140.266 196.31 140.446C196.01 140.626 195.818 140.74 195.734 140.788C195.662 140.836 195.494 140.944 195.23 141.112C194.978 141.268 194.81 141.382 194.726 141.454C194.654 141.526 194.522 141.64 194.33 141.796C194.15 141.952 194.024 142.084 193.952 142.192C193.892 142.3 193.808 142.438 193.7 142.606C193.604 142.762 193.538 142.918 193.502 143.074C193.466 143.23 193.448 143.398 193.448 143.578L200.414 143.56V145H191.792V144.28C191.792 143.608 191.9 143.002 192.116 142.462C192.332 141.91 192.638 141.442 193.034 141.058C193.442 140.662 193.844 140.332 194.24 140.068C194.636 139.792 195.098 139.498 195.626 139.186C195.746 139.126 195.836 139.078 195.896 139.042C196.988 138.406 197.702 137.92 198.038 137.584C198.554 137.056 198.812 136.462 198.812 135.802C198.812 135.202 198.566 134.746 198.074 134.434C197.594 134.11 196.91 133.948 196.022 133.948C194.726 133.948 193.46 134.38 192.224 135.244V133.732Z" fill="#37376D"/>
<path d="M205.26 132.76H206.376V143.56H208.662V145H202.29V143.56H204.864V134.362L202.29 135.334V133.894L205.26 132.76Z" fill="#37376D"/>
<path d="M210.762 132.76H218.106V134.2H212.184L211.968 137.656C212.616 137.476 213.312 137.386 214.056 137.386C214.668 137.386 215.238 137.458 215.766 137.602C216.294 137.734 216.78 137.95 217.224 138.25C217.68 138.538 218.04 138.946 218.304 139.474C218.568 139.99 218.7 140.602 218.7 141.31C218.7 142.522 218.25 143.476 217.35 144.172C216.462 144.868 215.328 145.216 213.948 145.216C212.46 145.216 211.152 144.94 210.024 144.388V142.948C211.104 143.524 212.352 143.812 213.768 143.812C214.8 143.812 215.622 143.596 216.234 143.164C216.858 142.732 217.17 142.114 217.17 141.31C217.17 139.606 215.958 138.754 213.534 138.754C212.478 138.754 211.422 138.946 210.366 139.33L210.762 132.76Z" fill="#37376D"/>
<path d="M221.96 138.538C223.124 137.758 224.402 137.368 225.794 137.368C226.91 137.368 227.888 137.71 228.728 138.394C229.568 139.066 229.988 140.002 229.988 141.202C229.988 142.462 229.568 143.446 228.728 144.154C227.9 144.862 226.856 145.216 225.596 145.216C223.868 145.216 222.572 144.682 221.708 143.614C220.856 142.534 220.43 141.022 220.43 139.078C220.43 136.918 220.94 135.292 221.96 134.2C222.992 133.096 224.336 132.544 225.992 132.544C227.06 132.544 228.05 132.778 228.962 133.246V134.686C228.074 134.218 227.096 133.984 226.028 133.984C224.9 133.984 223.958 134.35 223.202 135.082C222.458 135.802 222.044 136.954 221.96 138.538ZM221.978 140.05C222.206 142.558 223.376 143.812 225.488 143.812C226.376 143.812 227.09 143.608 227.63 143.2C228.182 142.792 228.458 142.15 228.458 141.274C228.458 140.386 228.176 139.75 227.612 139.366C227.048 138.97 226.316 138.772 225.416 138.772C224.084 138.772 222.938 139.198 221.978 140.05Z" fill="#37376D"/>
<path d="M233.073 143.578C233.253 143.734 233.343 143.956 233.343 144.244C233.343 144.532 233.253 144.76 233.073 144.928C232.893 145.084 232.671 145.162 232.407 145.162C232.143 145.162 231.915 145.084 231.723 144.928C231.543 144.76 231.453 144.532 231.453 144.244C231.453 143.956 231.543 143.734 231.723 143.578C231.915 143.422 232.143 143.344 232.407 143.344C232.671 143.344 232.893 143.422 233.073 143.578Z" fill="#37376D"/>
<path d="M241.194 132.76H242.832V140.878H245.136V142.282H242.832V145H241.338V142.282H234.516V140.932L241.194 132.76ZM241.338 140.878V134.794L236.37 140.878H241.338Z" fill="#37376D"/>
<path d="M247.954 143.47C247.042 142.306 246.586 140.776 246.586 138.88C246.586 136.984 247.042 135.454 247.954 134.29C248.866 133.126 250.21 132.544 251.986 132.544C253.774 132.544 255.124 133.126 256.036 134.29C256.948 135.442 257.404 136.972 257.404 138.88C257.404 140.788 256.948 142.324 256.036 143.488C255.124 144.64 253.774 145.216 251.986 145.216C250.21 145.216 248.866 144.634 247.954 143.47ZM254.902 142.516C255.55 141.664 255.874 140.452 255.874 138.88C255.874 137.308 255.55 136.102 254.902 135.262C254.266 134.41 253.294 133.984 251.986 133.984C250.678 133.984 249.706 134.41 249.07 135.262C248.434 136.102 248.116 137.308 248.116 138.88C248.116 140.452 248.434 141.664 249.07 142.516C249.706 143.356 250.678 143.776 251.986 143.776C253.294 143.776 254.266 143.356 254.902 142.516Z" fill="#37376D"/>
<path d="M18.9241 92.7599H20.0401V103.56H22.3261V105H15.9541V103.56H18.5281V94.3619L15.9541 95.3339V93.8939L18.9241 92.7599Z" fill="#37376D"/>
<path d="M23.4185 96.5579C23.4185 95.2979 23.8325 94.3139 24.6605 93.6059C25.5005 92.8979 26.5505 92.5439 27.8105 92.5439C29.5385 92.5439 30.8285 93.0839 31.6805 94.1639C32.5445 95.2319 32.9765 96.7379 32.9765 98.6819C32.9765 100.842 32.4605 102.474 31.4285 103.578C30.4085 104.67 29.0705 105.216 27.4145 105.216C26.3465 105.216 25.3565 104.982 24.4445 104.514V103.074C25.3325 103.542 26.3105 103.776 27.3785 103.776C28.5065 103.776 29.4425 103.416 30.1865 102.696C30.9425 101.964 31.3625 100.806 31.4465 99.2219C30.2705 100.002 28.9925 100.392 27.6125 100.392C26.4965 100.392 25.5185 100.056 24.6785 99.3839C23.8385 98.6999 23.4185 97.7579 23.4185 96.5579ZM27.9185 93.9479C27.0305 93.9479 26.3105 94.1519 25.7585 94.5599C25.2185 94.9679 24.9485 95.6099 24.9485 96.4859C24.9485 97.3739 25.2305 98.0159 25.7945 98.4119C26.3585 98.7959 27.0905 98.9879 27.9905 98.9879C29.3225 98.9879 30.4685 98.5619 31.4285 97.7099C31.2005 95.2019 30.0305 93.9479 27.9185 93.9479Z" fill="#37376D"/>
<path d="M375.128 92.76H376.766V100.878H379.07V102.282H376.766V105H375.272V102.282H368.45V100.932L375.128 92.76ZM375.272 100.878V94.794L370.304 100.878H375.272Z" fill="#37376D"/>
<path d="M198.128 171.76H199.766V179.878H202.07V181.282H199.766V184H198.272V181.282H191.45V179.932L198.128 171.76ZM198.272 179.878V173.794L193.304 179.878H198.272Z" fill="#37376D"/>
<path d="M203.826 172.732C204.966 171.94 206.274 171.544 207.75 171.544C209.022 171.544 210.036 171.832 210.792 172.408C211.548 172.984 211.926 173.788 211.926 174.82C211.926 175.312 211.83 175.774 211.638 176.206C211.458 176.638 211.182 177.034 210.81 177.394C210.45 177.754 210.096 178.06 209.748 178.312C209.412 178.552 208.986 178.822 208.47 179.122C208.41 179.158 208.224 179.266 207.912 179.446C207.612 179.626 207.42 179.74 207.336 179.788C207.264 179.836 207.096 179.944 206.832 180.112C206.58 180.268 206.412 180.382 206.328 180.454C206.256 180.526 206.124 180.64 205.932 180.796C205.752 180.952 205.626 181.084 205.554 181.192C205.494 181.3 205.41 181.438 205.302 181.606C205.206 181.762 205.14 181.918 205.104 182.074C205.068 182.23 205.05 182.398 205.05 182.578L212.016 182.56V184H203.394V183.28C203.394 182.608 203.502 182.002 203.718 181.462C203.934 180.91 204.24 180.442 204.636 180.058C205.044 179.662 205.446 179.332 205.842 179.068C206.238 178.792 206.7 178.498 207.228 178.186C207.348 178.126 207.438 178.078 207.498 178.042C208.59 177.406 209.304 176.92 209.64 176.584C210.156 176.056 210.414 175.462 210.414 174.802C210.414 174.202 210.168 173.746 209.676 173.434C209.196 173.11 208.512 172.948 207.624 172.948C206.328 172.948 205.062 173.38 203.826 174.244V172.732Z" fill="#37376D"/>
<path d="M216.862 171.76H217.978V182.56H220.264V184H213.892V182.56H216.466V173.362L213.892 174.334V172.894L216.862 171.76Z" fill="#37376D"/>
<path d="M222.364 171.76H229.708V173.2H223.786L223.57 176.656C224.218 176.476 224.914 176.386 225.658 176.386C226.27 176.386 226.84 176.458 227.368 176.602C227.896 176.734 228.382 176.95 228.826 177.25C229.282 177.538 229.642 177.946 229.906 178.474C230.17 178.99 230.302 179.602 230.302 180.31C230.302 181.522 229.852 182.476 228.952 183.172C228.064 183.868 226.93 184.216 225.55 184.216C224.062 184.216 222.754 183.94 221.626 183.388V181.948C222.706 182.524 223.954 182.812 225.37 182.812C226.402 182.812 227.224 182.596 227.836 182.164C228.46 181.732 228.772 181.114 228.772 180.31C228.772 178.606 227.56 177.754 225.136 177.754C224.08 177.754 223.024 177.946 221.968 178.33L222.364 171.76Z" fill="#37376D"/>
<path d="M233.442 182.578C233.622 182.734 233.712 182.956 233.712 183.244C233.712 183.532 233.622 183.76 233.442 183.928C233.262 184.084 233.04 184.162 232.776 184.162C232.512 184.162 232.284 184.084 232.092 183.928C231.912 183.76 231.822 183.532 231.822 183.244C231.822 182.956 231.912 182.734 232.092 182.578C232.284 182.422 232.512 182.344 232.776 182.344C233.04 182.344 233.262 182.422 233.442 182.578Z" fill="#37376D"/>
<path d="M241.564 171.76H243.202V179.878H245.506V181.282H243.202V184H241.708V181.282H234.886V179.932L241.564 171.76ZM241.708 179.878V173.794L236.74 179.878H241.708Z" fill="#37376D"/>
<path d="M248.323 182.47C247.411 181.306 246.955 179.776 246.955 177.88C246.955 175.984 247.411 174.454 248.323 173.29C249.235 172.126 250.579 171.544 252.355 171.544C254.143 171.544 255.493 172.126 256.405 173.29C257.317 174.442 257.773 175.972 257.773 177.88C257.773 179.788 257.317 181.324 256.405 182.488C255.493 183.64 254.143 184.216 252.355 184.216C250.579 184.216 249.235 183.634 248.323 182.47ZM255.271 181.516C255.919 180.664 256.243 179.452 256.243 177.88C256.243 176.308 255.919 175.102 255.271 174.262C254.635 173.41 253.663 172.984 252.355 172.984C251.047 172.984 250.075 173.41 249.439 174.262C248.803 175.102 248.485 176.308 248.485 177.88C248.485 179.452 248.803 180.664 249.439 181.516C250.075 182.356 251.047 182.776 252.355 182.776C253.663 182.776 254.635 182.356 255.271 181.516Z" fill="#37376D"/>
<path d="M16.3138 134.712C16.3138 133.848 16.6918 133.104 17.4478 132.48C18.2038 131.856 19.3138 131.544 20.7778 131.544C22.1338 131.544 23.2258 131.874 24.0538 132.534C24.8818 133.194 25.3078 133.986 25.3318 134.91C25.3678 136.17 24.8098 137.202 23.6578 138.006C25.0618 138.702 25.7638 139.662 25.7638 140.886C25.7638 141.822 25.3498 142.614 24.5218 143.262C23.7058 143.898 22.4938 144.216 20.8858 144.216C19.2898 144.216 18.0538 143.868 17.1778 143.172C16.3138 142.476 15.8818 141.63 15.8818 140.634C15.8818 140.034 16.0558 139.44 16.4038 138.852C16.7638 138.252 17.2858 137.748 17.9698 137.34C16.8658 136.668 16.3138 135.792 16.3138 134.712ZM20.9578 138.492C20.3338 138.324 19.7638 138.144 19.2478 137.952C18.6478 138.24 18.1858 138.612 17.8618 139.068C17.5498 139.524 17.3938 139.992 17.3938 140.472C17.3938 141.204 17.6938 141.78 18.2938 142.2C18.9058 142.608 19.7818 142.812 20.9218 142.812C21.8818 142.812 22.6738 142.644 23.2978 142.308C23.9338 141.96 24.2518 141.51 24.2518 140.958C24.2518 140.49 24.0838 140.094 23.7478 139.77C23.4238 139.434 23.1058 139.206 22.7938 139.086C22.4818 138.966 21.9658 138.798 21.2458 138.582C21.1138 138.546 21.0178 138.516 20.9578 138.492ZM23.8198 135.18C23.8198 134.544 23.5498 134.016 23.0098 133.596C22.4698 133.164 21.7138 132.948 20.7418 132.948C19.8538 132.948 19.1458 133.116 18.6178 133.452C18.0898 133.776 17.8258 134.19 17.8258 134.694C17.8258 135.042 17.8978 135.348 18.0418 135.612C18.1978 135.864 18.4258 136.08 18.7258 136.26C19.0378 136.428 19.3198 136.566 19.5718 136.674C19.8238 136.77 20.1598 136.878 20.5798 136.998C20.6278 137.01 20.6638 137.022 20.6878 137.034C20.7118 137.034 20.7418 137.04 20.7778 137.052C20.8138 137.064 20.8498 137.076 20.8858 137.088C20.9218 137.1 21.1258 137.16 21.4978 137.268C21.8818 137.364 22.1758 137.442 22.3798 137.502C23.3398 136.878 23.8198 136.104 23.8198 135.18Z" fill="#37376D"/>
<path d="M375.128 131.76H376.766V139.878H379.07V141.282H376.766V144H375.272V141.282H368.45V139.932L375.128 131.76ZM375.272 139.878V133.794L370.304 139.878H375.272Z" fill="#37376D"/>
<path d="M200.18 213.874C200.18 214.498 200.012 215.062 199.676 215.566C199.352 216.058 198.926 216.394 198.398 216.574C199.022 216.766 199.556 217.12 200 217.636C200.456 218.14 200.684 218.818 200.684 219.67C200.684 220.81 200.258 221.686 199.406 222.298C198.566 222.91 197.498 223.216 196.202 223.216C194.558 223.216 193.136 222.946 191.936 222.406V220.912C193.1 221.512 194.48 221.806 196.076 221.794C198.176 221.794 199.226 221.062 199.226 219.598C199.226 218.134 198.23 217.402 196.238 217.402H194.366V215.962L196.076 215.98C196.94 215.98 197.594 215.8 198.038 215.44C198.494 215.068 198.722 214.588 198.722 214C198.722 213.364 198.47 212.866 197.966 212.506C197.462 212.134 196.748 211.948 195.824 211.948C194.552 211.948 193.328 212.26 192.152 212.884V211.408C193.28 210.832 194.57 210.544 196.022 210.544C197.27 210.544 198.272 210.85 199.028 211.462C199.796 212.074 200.18 212.878 200.18 213.874Z" fill="#37376D"/>
<path d="M210.744 213.874C210.744 214.498 210.576 215.062 210.24 215.566C209.916 216.058 209.49 216.394 208.962 216.574C209.586 216.766 210.12 217.12 210.564 217.636C211.02 218.14 211.248 218.818 211.248 219.67C211.248 220.81 210.822 221.686 209.97 222.298C209.13 222.91 208.062 223.216 206.766 223.216C205.122 223.216 203.7 222.946 202.5 222.406V220.912C203.664 221.512 205.044 221.806 206.64 221.794C208.74 221.794 209.79 221.062 209.79 219.598C209.79 218.134 208.794 217.402 206.802 217.402H204.93V215.962L206.64 215.98C207.504 215.98 208.158 215.8 208.602 215.44C209.058 215.068 209.286 214.588 209.286 214C209.286 213.364 209.034 212.866 208.53 212.506C208.026 212.134 207.312 211.948 206.388 211.948C205.116 211.948 203.892 212.26 202.716 212.884V211.408C203.844 210.832 205.134 210.544 206.586 210.544C207.834 210.544 208.836 210.85 209.592 211.462C210.36 212.074 210.744 212.878 210.744 213.874Z" fill="#37376D"/>
<path d="M212.812 214.558C212.812 213.298 213.226 212.314 214.054 211.606C214.894 210.898 215.944 210.544 217.204 210.544C218.932 210.544 220.222 211.084 221.074 212.164C221.938 213.232 222.37 214.738 222.37 216.682C222.37 218.842 221.854 220.474 220.822 221.578C219.802 222.67 218.464 223.216 216.808 223.216C215.74 223.216 214.75 222.982 213.838 222.514V221.074C214.726 221.542 215.704 221.776 216.772 221.776C217.9 221.776 218.836 221.416 219.58 220.696C220.336 219.964 220.756 218.806 220.84 217.222C219.664 218.002 218.386 218.392 217.006 218.392C215.89 218.392 214.912 218.056 214.072 217.384C213.232 216.7 212.812 215.758 212.812 214.558ZM217.312 211.948C216.424 211.948 215.704 212.152 215.152 212.56C214.612 212.968 214.342 213.61 214.342 214.486C214.342 215.374 214.624 216.016 215.188 216.412C215.752 216.796 216.484 216.988 217.384 216.988C218.716 216.988 219.862 216.562 220.822 215.71C220.594 213.202 219.424 211.948 217.312 211.948Z" fill="#37376D"/>
<path d="M223.975 214.558C223.975 213.298 224.389 212.314 225.217 211.606C226.057 210.898 227.107 210.544 228.367 210.544C230.095 210.544 231.385 211.084 232.237 212.164C233.101 213.232 233.533 214.738 233.533 216.682C233.533 218.842 233.017 220.474 231.985 221.578C230.965 222.67 229.627 223.216 227.971 223.216C226.903 223.216 225.913 222.982 225.001 222.514V221.074C225.889 221.542 226.867 221.776 227.935 221.776C229.063 221.776 229.999 221.416 230.743 220.696C231.499 219.964 231.919 218.806 232.003 217.222C230.827 218.002 229.549 218.392 228.169 218.392C227.053 218.392 226.075 218.056 225.235 217.384C224.395 216.7 223.975 215.758 223.975 214.558ZM228.475 211.948C227.587 211.948 226.867 212.152 226.315 212.56C225.775 212.968 225.505 213.61 225.505 214.486C225.505 215.374 225.787 216.016 226.351 216.412C226.915 216.796 227.647 216.988 228.547 216.988C229.879 216.988 231.025 216.562 231.985 215.71C231.757 213.202 230.587 211.948 228.475 211.948Z" fill="#37376D"/>
<path d="M236.5 221.578C236.68 221.734 236.77 221.956 236.77 222.244C236.77 222.532 236.68 222.76 236.5 222.928C236.32 223.084 236.098 223.162 235.834 223.162C235.57 223.162 235.342 223.084 235.15 222.928C234.97 222.76 234.88 222.532 234.88 222.244C234.88 221.956 234.97 221.734 235.15 221.578C235.342 221.422 235.57 221.344 235.834 221.344C236.098 221.344 236.32 221.422 236.5 221.578Z" fill="#37376D"/>
<path d="M239.516 221.47C238.604 220.306 238.148 218.776 238.148 216.88C238.148 214.984 238.604 213.454 239.516 212.29C240.428 211.126 241.772 210.544 243.548 210.544C245.336 210.544 246.686 211.126 247.598 212.29C248.51 213.442 248.966 214.972 248.966 216.88C248.966 218.788 248.51 220.324 247.598 221.488C246.686 222.64 245.336 223.216 243.548 223.216C241.772 223.216 240.428 222.634 239.516 221.47ZM246.464 220.516C247.112 219.664 247.436 218.452 247.436 216.88C247.436 215.308 247.112 214.102 246.464 213.262C245.828 212.41 244.856 211.984 243.548 211.984C242.24 211.984 241.268 212.41 240.632 213.262C239.996 214.102 239.678 215.308 239.678 216.88C239.678 218.452 239.996 219.664 240.632 220.516C241.268 221.356 242.24 221.776 243.548 221.776C244.856 221.776 245.828 221.356 246.464 220.516Z" fill="#37376D"/>
<path d="M252.172 221.47C251.26 220.306 250.804 218.776 250.804 216.88C250.804 214.984 251.26 213.454 252.172 212.29C253.084 211.126 254.428 210.544 256.204 210.544C257.992 210.544 259.342 211.126 260.254 212.29C261.166 213.442 261.622 214.972 261.622 216.88C261.622 218.788 261.166 220.324 260.254 221.488C259.342 222.64 257.992 223.216 256.204 223.216C254.428 223.216 253.084 222.634 252.172 221.47ZM259.12 220.516C259.768 219.664 260.092 218.452 260.092 216.88C260.092 215.308 259.768 214.102 259.12 213.262C258.484 212.41 257.512 211.984 256.204 211.984C254.896 211.984 253.924 212.41 253.288 213.262C252.652 214.102 252.334 215.308 252.334 216.88C252.334 218.452 252.652 219.664 253.288 220.516C253.924 221.356 254.896 221.776 256.204 221.776C257.512 221.776 258.484 221.356 259.12 220.516Z" fill="#37376D"/>
<path d="M18.9241 170.76H20.0401V181.56H22.3261V183H15.9541V181.56H18.5281V172.362L15.9541 173.334V171.894L18.9241 170.76Z" fill="#37376D"/>
<path d="M23.4185 174.558C23.4185 173.298 23.8325 172.314 24.6605 171.606C25.5005 170.898 26.5505 170.544 27.8105 170.544C29.5385 170.544 30.8285 171.084 31.6805 172.164C32.5445 173.232 32.9765 174.738 32.9765 176.682C32.9765 178.842 32.4605 180.474 31.4285 181.578C30.4085 182.67 29.0705 183.216 27.4145 183.216C26.3465 183.216 25.3565 182.982 24.4445 182.514V181.074C25.3325 181.542 26.3105 181.776 27.3785 181.776C28.5065 181.776 29.4425 181.416 30.1865 180.696C30.9425 179.964 31.3625 178.806 31.4465 177.222C30.2705 178.002 28.9925 178.392 27.6125 178.392C26.4965 178.392 25.5185 178.056 24.6785 177.384C23.8385 176.7 23.4185 175.758 23.4185 174.558ZM27.9185 171.948C27.0305 171.948 26.3105 172.152 25.7585 172.56C25.2185 172.968 24.9485 173.61 24.9485 174.486C24.9485 175.374 25.2305 176.016 25.7945 176.412C26.3585 176.796 27.0905 176.988 27.9905 176.988C29.3225 176.988 30.4685 176.562 31.4285 175.71C31.2005 173.202 30.0305 171.948 27.9185 171.948Z" fill="#37376D"/>
<path d="M377.18 173.874C377.18 174.498 377.012 175.062 376.676 175.566C376.352 176.058 375.926 176.394 375.398 176.574C376.022 176.766 376.556 177.12 377 177.636C377.456 178.14 377.684 178.818 377.684 179.67C377.684 180.81 377.258 181.686 376.406 182.298C375.566 182.91 374.498 183.216 373.202 183.216C371.558 183.216 370.136 182.946 368.936 182.406V180.912C370.1 181.512 371.48 181.806 373.076 181.794C375.176 181.794 376.226 181.062 376.226 179.598C376.226 178.134 375.23 177.402 373.238 177.402H371.366V175.962L373.076 175.98C373.94 175.98 374.594 175.8 375.038 175.44C375.494 175.068 375.722 174.588 375.722 174C375.722 173.364 375.47 172.866 374.966 172.506C374.462 172.134 373.748 171.948 372.824 171.948C371.552 171.948 370.328 172.26 369.152 172.884V171.408C370.28 170.832 371.57 170.544 373.022 170.544C374.27 170.544 375.272 170.85 376.028 171.462C376.796 172.074 377.18 172.878 377.18 173.874Z" fill="#37376D"/>
<path d="M200.18 252.874C200.18 253.498 200.012 254.062 199.676 254.566C199.352 255.058 198.926 255.394 198.398 255.574C199.022 255.766 199.556 256.12 200 256.636C200.456 257.14 200.684 257.818 200.684 258.67C200.684 259.81 200.258 260.686 199.406 261.298C198.566 261.91 197.498 262.216 196.202 262.216C194.558 262.216 193.136 261.946 191.936 261.406V259.912C193.1 260.512 194.48 260.806 196.076 260.794C198.176 260.794 199.226 260.062 199.226 258.598C199.226 257.134 198.23 256.402 196.238 256.402H194.366V254.962L196.076 254.98C196.94 254.98 197.594 254.8 198.038 254.44C198.494 254.068 198.722 253.588 198.722 253C198.722 252.364 198.47 251.866 197.966 251.506C197.462 251.134 196.748 250.948 195.824 250.948C194.552 250.948 193.328 251.26 192.152 251.884V250.408C193.28 249.832 194.57 249.544 196.022 249.544C197.27 249.544 198.272 249.85 199.028 250.462C199.796 251.074 200.18 251.878 200.18 252.874Z" fill="#37376D"/>
<path d="M202.788 250.732C203.928 249.94 205.236 249.544 206.712 249.544C207.984 249.544 208.998 249.832 209.754 250.408C210.51 250.984 210.888 251.788 210.888 252.82C210.888 253.312 210.792 253.774 210.6 254.206C210.42 254.638 210.144 255.034 209.772 255.394C209.412 255.754 209.058 256.06 208.71 256.312C208.374 256.552 207.948 256.822 207.432 257.122C207.372 257.158 207.186 257.266 206.874 257.446C206.574 257.626 206.382 257.74 206.298 257.788C206.226 257.836 206.058 257.944 205.794 258.112C205.542 258.268 205.374 258.382 205.29 258.454C205.218 258.526 205.086 258.64 204.894 258.796C204.714 258.952 204.588 259.084 204.516 259.192C204.456 259.3 204.372 259.438 204.264 259.606C204.168 259.762 204.102 259.918 204.066 260.074C204.03 260.23 204.012 260.398 204.012 260.578L210.978 260.56V262H202.356V261.28C202.356 260.608 202.464 260.002 202.68 259.462C202.896 258.91 203.202 258.442 203.598 258.058C204.006 257.662 204.408 257.332 204.804 257.068C205.2 256.792 205.662 256.498 206.19 256.186C206.31 256.126 206.4 256.078 206.46 256.042C207.552 255.406 208.266 254.92 208.602 254.584C209.118 254.056 209.376 253.462 209.376 252.802C209.376 252.202 209.13 251.746 208.638 251.434C208.158 251.11 207.474 250.948 206.586 250.948C205.29 250.948 204.024 251.38 202.788 252.244V250.732Z" fill="#37376D"/>
<path d="M213.214 252.712C213.214 251.848 213.592 251.104 214.348 250.48C215.104 249.856 216.214 249.544 217.678 249.544C219.034 249.544 220.126 249.874 220.954 250.534C221.782 251.194 222.208 251.986 222.232 252.91C222.268 254.17 221.71 255.202 220.558 256.006C221.962 256.702 222.664 257.662 222.664 258.886C222.664 259.822 222.25 260.614 221.422 261.262C220.606 261.898 219.394 262.216 217.786 262.216C216.19 262.216 214.954 261.868 214.078 261.172C213.214 260.476 212.782 259.63 212.782 258.634C212.782 258.034 212.956 257.44 213.304 256.852C213.664 256.252 214.186 255.748 214.87 255.34C213.766 254.668 213.214 253.792 213.214 252.712ZM217.858 256.492C217.234 256.324 216.664 256.144 216.148 255.952C215.548 256.24 215.086 256.612 214.762 257.068C214.45 257.524 214.294 257.992 214.294 258.472C214.294 259.204 214.594 259.78 215.194 260.2C215.806 260.608 216.682 260.812 217.822 260.812C218.782 260.812 219.574 260.644 220.198 260.308C220.834 259.96 221.152 259.51 221.152 258.958C221.152 258.49 220.984 258.094 220.648 257.77C220.324 257.434 220.006 257.206 219.694 257.086C219.382 256.966 218.866 256.798 218.146 256.582C218.014 256.546 217.918 256.516 217.858 256.492ZM220.72 253.18C220.72 252.544 220.45 252.016 219.91 251.596C219.37 251.164 218.614 250.948 217.642 250.948C216.754 250.948 216.046 251.116 215.518 251.452C214.99 251.776 214.726 252.19 214.726 252.694C214.726 253.042 214.798 253.348 214.942 253.612C215.098 253.864 215.326 254.08 215.626 254.26C215.938 254.428 216.22 254.566 216.472 254.674C216.724 254.77 217.06 254.878 217.48 254.998C217.528 255.01 217.564 255.022 217.588 255.034C217.612 255.034 217.642 255.04 217.678 255.052C217.714 255.064 217.75 255.076 217.786 255.088C217.822 255.1 218.026 255.16 218.398 255.268C218.782 255.364 219.076 255.442 219.28 255.502C220.24 254.878 220.72 254.104 220.72 253.18Z" fill="#37376D"/>
<path d="M224.238 253.558C224.238 252.298 224.652 251.314 225.48 250.606C226.32 249.898 227.37 249.544 228.63 249.544C230.358 249.544 231.648 250.084 232.5 251.164C233.364 252.232 233.796 253.738 233.796 255.682C233.796 257.842 233.28 259.474 232.248 260.578C231.228 261.67 229.89 262.216 228.234 262.216C227.166 262.216 226.176 261.982 225.264 261.514V260.074C226.152 260.542 227.13 260.776 228.198 260.776C229.326 260.776 230.262 260.416 231.006 259.696C231.762 258.964 232.182 257.806 232.266 256.222C231.09 257.002 229.812 257.392 228.432 257.392C227.316 257.392 226.338 257.056 225.498 256.384C224.658 255.7 224.238 254.758 224.238 253.558ZM228.738 250.948C227.85 250.948 227.13 251.152 226.578 251.56C226.038 251.968 225.768 252.61 225.768 253.486C225.768 254.374 226.05 255.016 226.614 255.412C227.178 255.796 227.91 255.988 228.81 255.988C230.142 255.988 231.288 255.562 232.248 254.71C232.02 252.202 230.85 250.948 228.738 250.948Z" fill="#37376D"/>
<path d="M236.764 260.578C236.944 260.734 237.034 260.956 237.034 261.244C237.034 261.532 236.944 261.76 236.764 261.928C236.584 262.084 236.362 262.162 236.098 262.162C235.834 262.162 235.606 262.084 235.414 261.928C235.234 261.76 235.144 261.532 235.144 261.244C235.144 260.956 235.234 260.734 235.414 260.578C235.606 260.422 235.834 260.344 236.098 260.344C236.362 260.344 236.584 260.422 236.764 260.578Z" fill="#37376D"/>
<path d="M239.245 250.732C240.385 249.94 241.693 249.544 243.169 249.544C244.441 249.544 245.455 249.832 246.211 250.408C246.967 250.984 247.345 251.788 247.345 252.82C247.345 253.312 247.249 253.774 247.057 254.206C246.877 254.638 246.601 255.034 246.229 255.394C245.869 255.754 245.515 256.06 245.167 256.312C244.831 256.552 244.405 256.822 243.889 257.122C243.829 257.158 243.643 257.266 243.331 257.446C243.031 257.626 242.839 257.74 242.755 257.788C242.683 257.836 242.515 257.944 242.251 258.112C241.999 258.268 241.831 258.382 241.747 258.454C241.675 258.526 241.543 258.64 241.351 258.796C241.171 258.952 241.045 259.084 240.973 259.192C240.913 259.3 240.829 259.438 240.721 259.606C240.625 259.762 240.559 259.918 240.523 260.074C240.487 260.23 240.469 260.398 240.469 260.578L247.435 260.56V262H238.813V261.28C238.813 260.608 238.921 260.002 239.137 259.462C239.353 258.91 239.659 258.442 240.055 258.058C240.463 257.662 240.865 257.332 241.261 257.068C241.657 256.792 242.119 256.498 242.647 256.186C242.767 256.126 242.857 256.078 242.917 256.042C244.009 255.406 244.723 254.92 245.059 254.584C245.575 254.056 245.833 253.462 245.833 252.802C245.833 252.202 245.587 251.746 245.095 251.434C244.615 251.11 243.931 250.948 243.043 250.948C241.747 250.948 240.481 251.38 239.245 252.244V250.732Z" fill="#37376D"/>
<path d="M250.643 260.47C249.731 259.306 249.275 257.776 249.275 255.88C249.275 253.984 249.731 252.454 250.643 251.29C251.555 250.126 252.899 249.544 254.675 249.544C256.463 249.544 257.813 250.126 258.725 251.29C259.637 252.442 260.093 253.972 260.093 255.88C260.093 257.788 259.637 259.324 258.725 260.488C257.813 261.64 256.463 262.216 254.675 262.216C252.899 262.216 251.555 261.634 250.643 260.47ZM257.591 259.516C258.239 258.664 258.563 257.452 258.563 255.88C258.563 254.308 258.239 253.102 257.591 252.262C256.955 251.41 255.983 250.984 254.675 250.984C253.367 250.984 252.395 251.41 251.759 252.262C251.123 253.102 250.805 254.308 250.805 255.88C250.805 257.452 251.123 258.664 251.759 259.516C252.395 260.356 253.367 260.776 254.675 260.776C255.983 260.776 256.955 260.356 257.591 259.516Z" fill="#37376D"/>
<path d="M22.1282 209.76H23.7662V217.878H26.0702V219.282H23.7662V222H22.2722V219.282H15.4502V217.932L22.1282 209.76ZM22.2722 217.878V211.794L17.3042 217.878H22.2722Z" fill="#37376D"/>
<path d="M371.924 209.76H373.04V220.56H375.326V222H368.954V220.56H371.528V211.362L368.954 212.334V210.894L371.924 209.76Z" fill="#37376D"/>
</svg>
