<svg width="80" height="80" viewBox="0 0 80 80" fill="none" xmlns="http://www.w3.org/2000/svg">
<path d="M56 34.667C44.9544 34.667 36 43.6214 36 54.667C36 65.7126 44.9544 74.667 56 74.667C67.0456 74.667 76 65.7126 76 54.667C75.9876 43.6266 67.0404 34.6794 56 34.667ZM50.6667 71.152V66.667H48V70.0283C47.0599 69.5335 46.1673 68.9528 45.3333 68.2952V66.6937C45.3366 64.9079 46.5182 63.3389 48.2331 62.8415L51.1335 62.0153L55.1999 65.0667C55.6738 65.4229 56.3262 65.4229 56.8001 65.0667L60.8665 62.0153L63.7682 62.8428C65.4824 63.3395 66.6634 64.9085 66.6667 66.6937V68.3018C65.8327 68.96 64.9401 69.54 64 70.0348V66.667H61.3333V71.152C57.8678 72.2829 54.1322 72.2829 50.6667 71.152ZM60.4531 47.2614L59.86 46.0726C59.6895 45.7295 59.3796 45.4769 59.0098 45.3786C58.6393 45.2796 58.2454 45.3454 57.9264 45.5576L55.9427 46.8805C54.8477 47.6117 53.5605 48.0016 52.2441 48.0003H50.6667C50.6569 45.055 53.0365 42.6592 55.9818 42.6488C58.9277 42.639 61.3236 45.0186 61.3333 47.9645C60.9505 47.8714 60.6283 47.6143 60.4531 47.2614ZM52.2441 50.667C54.0872 50.6689 55.8887 50.1227 57.4212 49.0993L58.1517 48.6123C58.5716 49.3532 59.2201 49.9378 60 50.279V52.0003C60 54.2093 58.209 56.0003 56 56.0003C53.791 56.0003 52 54.2093 52 52.0003V50.667H52.2441ZM56 58.667C56.4479 58.6676 56.8945 58.6227 57.3333 58.5335V60.0003C57.3379 60.3799 57.5052 60.7393 57.7936 60.9873L56 62.3337L54.2064 60.9873C54.4948 60.7393 54.6621 60.3799 54.6667 60.0003V58.5335C55.1055 58.6227 55.5521 58.6676 56 58.667ZM69.2598 65.8083C68.9076 63.1852 67.041 61.0173 64.5 60.2777L60 58.9925V57.2992C61.6725 56.0505 62.6608 54.0876 62.6667 52.0003V50.667C63.403 50.667 64 50.07 64 49.3337V48.0003C64 43.5824 60.418 40.0003 56 40.0003C51.582 40.0003 48 43.5824 48 48.0003V49.3337C48 50.07 48.597 50.667 49.3333 50.667V52.0003C49.3392 54.0876 50.3275 56.0505 52 57.2992V58.9925L47.5013 60.2777C44.9596 61.0166 43.0931 63.1852 42.7402 65.8083C36.8223 58.779 37.418 48.3532 44.0983 42.0439C50.7786 35.7347 61.2214 35.7347 67.9017 42.0439C74.582 48.3532 75.1777 58.779 69.2598 65.8083Z" fill="#0FA7F0"/>
<path d="M42.6665 53.333H45.3332V55.9997H42.6665V53.333Z" fill="#0FA7F0"/>
<path d="M66.6665 53.333H69.3332V55.9997H66.6665V53.333Z" fill="#0FA7F0"/>
<path d="M58.6667 77.3333H10.6667C8.45768 77.3333 6.66667 75.5423 6.66667 73.3333V6.66667C6.66667 4.45768 8.45768 2.66667 10.6667 2.66667H48V14.6667C48 15.2057 48.3249 15.6921 48.8229 15.8984C49.321 16.1048 49.8945 15.9902 50.276 15.6094L53.3333 12.5521L56.3906 15.6094C56.7721 15.9902 57.3457 16.1048 57.8437 15.8984C58.3418 15.6921 58.6667 15.2057 58.6667 14.6667V2.66667C60.8756 2.66667 62.6667 4.45768 62.6667 6.66667V33.3333H65.3333V6.66667C65.3288 2.98633 62.347 0.0045573 58.6667 0H10.6667C6.98633 0.0045573 4.00456 2.98633 4 6.66667V73.3333C4.00456 77.0137 6.98633 79.9954 10.6667 80H58.6667C60.5801 80 62.401 79.1777 63.6667 77.7428L61.6667 75.9785C60.9069 76.8392 59.8144 77.3327 58.6667 77.3333ZM56 11.4479L54.276 9.72396C53.7552 9.20378 52.9115 9.20378 52.3906 9.72396L50.6667 11.4479V2.66667H56V11.4479Z" fill="#0FA7F0"/>
<path d="M12 8H17.3333V10.6667H12V8Z" fill="#0FA7F0"/>
<path d="M20 8H33.3333V10.6667H20V8Z" fill="#0FA7F0"/>
<path d="M12 13.333H33.3333V15.9997H12V13.333Z" fill="#0FA7F0"/>
<path d="M12 24H46.6667V26.6667H12V24Z" fill="#0FA7F0"/>
<path d="M49.3335 24H57.3335V26.6667H49.3335V24Z" fill="#0FA7F0"/>
<path d="M12 32H38.6667V34.6667H12V32Z" fill="#0FA7F0"/>
<path d="M12 40H33.3333V42.6667H12V40Z" fill="#0FA7F0"/>
<path d="M12 48H30.6667V50.6667H12V48Z" fill="#0FA7F0"/>
<path d="M12 61.333H25.3333V63.9997H12V61.333Z" fill="#0FA7F0"/>
<path d="M12 66.667H25.3333V69.3337H12V66.667Z" fill="#0FA7F0"/>
</svg>
