<svg width="80" height="80" viewBox="0 0 80 80" fill="none" xmlns="http://www.w3.org/2000/svg">
<g clip-path="url(#clip0)">
<path d="M56.2064 55.8813L54.1462 52.7851C54.6154 51.8995 54.9999 50.9716 55.2947 50.0131L58.9433 49.2829C59.5641 49.156 60.0099 48.6101 60.0099 47.9769V42.6462C60.0099 42.013 59.5641 41.4671 58.9433 41.3402L55.296 40.6101C55.0012 39.6516 54.6167 38.7236 54.1475 37.838L56.2116 34.7418C56.5636 34.2134 56.494 33.5107 56.045 33.0617L52.2747 29.2914C51.8257 28.843 51.1229 28.7727 50.5945 29.1248L47.4932 31.185C46.6075 30.7158 45.6796 30.3312 44.7211 30.0364L43.991 26.3872C43.8641 25.767 43.3181 25.3213 42.685 25.3213H37.3542C36.7211 25.3213 36.1751 25.767 36.0482 26.3872L35.3181 30.0351C34.3596 30.3299 33.4316 30.7145 32.546 31.1837L29.4498 29.1196C28.9215 28.7675 28.2187 28.8372 27.7697 29.2862L23.9994 33.0565C23.5504 33.5055 23.4807 34.2082 23.8328 34.7366L25.893 37.838C25.4238 38.7236 25.0392 39.6516 24.7445 40.6101L21.0952 41.3402C20.475 41.4671 20.0293 42.013 20.0293 42.6462V47.9769C20.0293 48.6101 20.475 49.156 21.0952 49.2829L24.7432 50.0131C25.0379 50.9716 25.4225 51.8995 25.8917 52.7851L23.8276 55.8813C23.4755 56.4097 23.5452 57.1125 23.9942 57.5615L27.7638 61.3318C28.2135 61.7801 28.9163 61.8504 29.4446 61.4983L32.546 59.4382C33.4316 59.9073 34.3596 60.2919 35.3181 60.5867L36.0482 64.2359C36.1751 64.8561 36.7211 65.3018 37.3542 65.3018H42.685C43.3181 65.3018 43.8641 64.8561 43.991 64.2359L44.7211 60.588C45.6796 60.2932 46.6075 59.9086 47.4932 59.4395L50.5893 61.5036C51.1177 61.8556 51.8205 61.786 52.2695 61.337L56.0398 57.5667C56.4914 57.117 56.561 56.4103 56.2064 55.8813ZM51.4697 53.5823L53.3822 56.45L51.158 58.6742L48.2903 56.7617C47.8615 56.4761 47.3058 56.463 46.8639 56.7285C45.7414 57.4046 44.5246 57.9089 43.2524 58.2252C42.7533 58.3501 42.37 58.7516 42.2691 59.2566L41.5924 62.6365H38.4468L37.77 59.2566C37.6692 58.7516 37.2859 58.3501 36.7861 58.2252C35.5146 57.9089 34.2978 57.4046 33.1746 56.7285C32.7328 56.463 32.1777 56.4761 31.7489 56.7617L28.8811 58.6742L26.6569 56.45L28.5688 53.5823C28.8551 53.1535 28.8681 52.5977 28.6026 52.1565C27.9265 51.0334 27.4222 49.8165 27.1059 48.5444C26.981 48.0453 26.5795 47.662 26.0745 47.5611L22.6947 46.8844V43.7388L26.0745 43.062C26.5795 42.9611 26.981 42.5779 27.1059 42.0788C27.4222 40.8066 27.9265 39.5897 28.6026 38.4666C28.8681 38.0254 28.8551 37.4697 28.5688 37.0408L26.6569 34.1731L28.8811 31.9489L31.7489 33.8614C32.1777 34.1471 32.7328 34.1601 33.1746 33.8946C34.2978 33.2185 35.5146 32.7142 36.7861 32.3979C37.2859 32.273 37.6692 31.8715 37.77 31.3665L38.4468 27.9867H41.5924L42.2691 31.3665C42.37 31.8715 42.7533 32.273 43.2524 32.3979C44.5246 32.7142 45.7414 33.2185 46.8639 33.8946C47.3058 34.1601 47.8615 34.1471 48.2903 33.8614L51.158 31.9489L53.3822 34.1731L51.4697 37.0408C51.1841 37.4697 51.1711 38.0254 51.4366 38.4666C52.1127 39.5897 52.617 40.8066 52.9332 42.0788C53.0582 42.5779 53.4597 42.9611 53.9646 43.062L57.3445 43.7388V46.8844L53.9646 47.5611C53.4597 47.662 53.0582 48.0453 52.9332 48.5444C52.617 49.8165 52.1127 51.0334 51.4366 52.1565C51.1711 52.5977 51.1841 53.1535 51.4697 53.5823Z" fill="#0FA7F0"/>
<path d="M67.1678 23.8191L69.228 21.7589C69.7479 21.2384 69.7479 20.395 69.228 19.8744L65.4564 16.1028C64.928 15.6031 64.1009 15.6031 63.5719 16.1028L61.5117 18.163C56.4731 14.1559 50.4129 11.6389 44.0176 10.899V7.99611H45.3503C46.8222 7.99611 48.0156 6.80268 48.0156 5.33074V2.66537C48.0156 1.19343 46.8222 0 45.3503 0H34.6888C33.2168 0 32.0234 1.19343 32.0234 2.66537V5.33074C32.0234 6.80268 33.2168 7.99611 34.6888 7.99611H36.0215V10.899C29.6261 11.6389 23.5659 14.1559 18.5274 18.163L16.4672 16.1028C15.9466 15.5823 15.1026 15.5823 14.5827 16.1028L10.8111 19.8744C10.2905 20.395 10.2905 21.2384 10.8111 21.7589L12.8713 23.8191C1.61894 38.0069 3.18914 58.4664 16.4743 70.7716C29.7595 83.0761 50.2795 83.0761 63.5647 70.7716C76.8499 58.4664 78.4201 38.0069 67.1678 23.8191ZM64.5141 18.9244L66.4064 20.8167L65.4349 21.7882C64.8304 21.1349 64.2011 20.5063 63.5478 19.9011L64.5141 18.9244ZM34.6888 2.66537H45.3503V5.33074H34.6888V2.66537ZM38.6868 7.99611H41.3522V10.6947C40.9097 10.6791 40.4659 10.6615 40.0195 10.6615C39.5731 10.6615 39.1293 10.6791 38.6868 10.6947V7.99611ZM13.632 20.8167L15.5249 18.9244L16.4965 19.8959C15.8431 20.5004 15.2139 21.1297 14.6094 21.783L13.632 20.8167ZM40.0195 77.2957C22.3549 77.2957 8.03509 62.9759 8.03509 45.3113C8.03509 27.6467 22.3549 13.3269 40.0195 13.3269C57.6841 13.3269 72.004 27.6467 72.004 45.3113C71.9831 62.9674 57.6757 77.2749 40.0195 77.2957Z" fill="#0FA7F0"/>
<path d="M38.687 15.9922H41.3524V21.3229H38.687V15.9922Z" fill="#0FA7F0"/>
<path d="M31.144 17.3353L33.719 16.6455L35.0985 21.7947L32.5236 22.4845L31.144 17.3353Z" fill="#0FA7F0"/>
<path d="M24.2056 20.5866L26.5137 19.2539L29.1791 23.8708L26.8709 25.2035L24.2056 20.5866Z" fill="#0FA7F0"/>
<path d="M18.3467 25.5212L20.2312 23.6367L24.0002 27.4057L22.1157 29.2902L18.3467 25.5212Z" fill="#0FA7F0"/>
<path d="M13.9619 31.8071L15.2939 29.499L19.9108 32.1637L18.5782 34.4725L13.9619 31.8071Z" fill="#0FA7F0"/>
<path d="M11.355 39.0088L12.0447 36.4346L17.1939 37.8141L16.5042 40.3884L11.355 39.0088Z" fill="#0FA7F0"/>
<path d="M10.7007 43.9785H16.0314V46.6439H10.7007V43.9785Z" fill="#0FA7F0"/>
<path d="M11.354 51.612L16.5032 50.2324L17.193 52.8067L12.0438 54.1862L11.354 51.612Z" fill="#0FA7F0"/>
<path d="M13.9619 58.8167L18.5782 56.1514L19.9108 58.4601L15.2946 61.1249L13.9619 58.8167Z" fill="#0FA7F0"/>
<path d="M18.3457 65.1001L22.1154 61.3311L23.9999 63.2156L20.2302 66.9852L18.3457 65.1001Z" fill="#0FA7F0"/>
<path d="M24.2051 70.0368L26.8698 65.4199L29.1786 66.7526L26.5132 71.3695L24.2051 70.0368Z" fill="#0FA7F0"/>
<path d="M31.145 73.2869L32.5252 68.1377L35.0995 68.8275L33.7199 73.9766L31.145 73.2869Z" fill="#0FA7F0"/>
<path d="M38.687 69.2998H41.3524V74.6305H38.687V69.2998Z" fill="#0FA7F0"/>
<path d="M44.9409 68.8284L47.5152 68.1387L48.8947 73.2878L46.3205 73.9776L44.9409 68.8284Z" fill="#0FA7F0"/>
<path d="M50.8589 66.7526L53.167 65.4199L55.8324 70.0368L53.5236 71.3695L50.8589 66.7526Z" fill="#0FA7F0"/>
<path d="M56.0391 63.2162L57.9242 61.3311L61.6932 65.1007L59.8087 66.9852L56.0391 63.2162Z" fill="#0FA7F0"/>
<path d="M60.1274 58.4611L61.4601 56.1523L66.0764 58.8177L64.7443 61.1259L60.1274 58.4611Z" fill="#0FA7F0"/>
<path d="M62.8452 52.8073L63.535 50.2324L68.6835 51.612L67.9944 54.1869L62.8452 52.8073Z" fill="#0FA7F0"/>
<path d="M64.0078 43.9785H69.3386V46.6439H64.0078V43.9785Z" fill="#0FA7F0"/>
<path d="M62.8457 37.8161L67.9949 36.4365L68.6846 39.0114L63.5355 40.391L62.8457 37.8161Z" fill="#0FA7F0"/>
<path d="M60.1274 32.1637L64.7443 29.499L66.0764 31.8071L61.4601 34.4725L60.1274 32.1637Z" fill="#0FA7F0"/>
<path d="M56.0396 27.4064L59.8086 23.6367L61.6937 25.5212L57.9241 29.2909L56.0396 27.4064Z" fill="#0FA7F0"/>
<path d="M50.8599 23.8708L53.5246 19.2539L55.8334 20.5859L53.168 25.2028L50.8599 23.8708Z" fill="#0FA7F0"/>
<path d="M44.9409 21.7957L46.3205 16.6465L48.8954 17.3363L47.5152 22.4854L44.9409 21.7957Z" fill="#0FA7F0"/>
<path d="M40.0197 35.9824C34.8673 35.9824 30.6909 40.1588 30.6909 45.3112C30.6909 50.4637 34.8673 54.64 40.0197 54.64C45.1715 54.64 49.3485 50.4637 49.3485 45.3112C49.3426 40.1614 45.1695 35.9883 40.0197 35.9824ZM40.0197 51.9747C36.3392 51.9747 33.3563 48.9911 33.3563 45.3112C33.3563 41.6314 36.3392 38.6478 40.0197 38.6478C43.6996 38.6478 46.6831 41.6314 46.6831 45.3112C46.6786 48.9898 43.6976 51.9701 40.0197 51.9747Z" fill="#0FA7F0"/>
</g>
<defs>
<clipPath id="clip0">
<rect width="80" height="80" fill="white"/>
</clipPath>
</defs>
</svg>
