<svg width="80" height="80" viewBox="0 0 80 80" fill="none" xmlns="http://www.w3.org/2000/svg">
<path d="M78.6667 69.3336H76V25.3337C76 22.2926 73.9427 19.637 70.9987 18.8779L70.332 21.4593C72.099 21.9144 73.334 23.5088 73.3333 25.3337V69.3336H6.66667V25.3337C6.66602 23.5094 7.89909 21.9157 9.66537 21.4593L8.9987 18.8779C6.05534 19.6383 3.99935 22.2939 4 25.3337V69.3336H1.33333C0.597005 69.3336 0 69.9307 0 70.667V76.0003C0 78.2093 1.79102 80.0003 4 80.0003H76C78.209 80.0003 80 78.2093 80 76.0003V70.667C80 69.9307 79.403 69.3336 78.6667 69.3336ZM44.8171 72.0003L44.3717 73.3336H35.6283L35.1829 72.0003H44.8171ZM77.3333 76.0003C77.3333 76.7366 76.7363 77.3336 76 77.3336H4C3.26367 77.3336 2.66667 76.7366 2.66667 76.0003V72.0003H32.373L33.4023 75.0882C33.584 75.6325 34.0931 75.9997 34.6667 76.0003H45.3333C45.9069 75.9997 46.416 75.6325 46.5977 75.0882L47.627 72.0003H77.3333V76.0003Z" fill="#0FA7F0"/>
<path d="M9.3335 64V66.6667H70.6668V64H68.0002V4C68.0002 1.79102 66.2091 0 64.0002 0H16.0002C13.7912 0 12.0002 1.79102 12.0002 4V64H9.3335ZM54.6668 2.66667H57.3335V8.78125L56.9429 8.39062C56.422 7.87044 55.5783 7.87044 55.0575 8.39062L54.6668 8.78125V2.66667ZM14.6668 4C14.6668 3.26367 15.2638 2.66667 16.0002 2.66667H52.0002V12C52.0002 12.5391 52.325 13.0254 52.8231 13.2318C53.3211 13.4382 53.8947 13.3236 54.2762 12.9427L56.0002 11.2187L57.7241 12.9427C58.1056 13.3236 58.6792 13.4382 59.1772 13.2318C59.6753 13.0254 60.0002 12.5391 60.0002 12V2.66667H64.0002C64.7365 2.66667 65.3335 3.26367 65.3335 4V64H14.6668V4Z" fill="#0FA7F0"/>
<path d="M40.0002 25.333C34.1089 25.333 29.3335 30.1084 29.3335 35.9997C29.3335 41.8909 34.1089 46.6663 40.0002 46.6663C45.8914 46.6663 50.6668 41.8909 50.6668 35.9997C50.6603 30.1117 45.8882 25.3395 40.0002 25.333ZM47.8804 34.6663H41.3335V28.1195C44.6838 28.6924 47.3075 31.3161 47.8804 34.6663ZM38.6668 28.1195V35.4528L33.4871 40.6331C31.8836 38.3929 31.5496 35.484 32.6037 32.9385C33.6571 30.3936 35.9494 28.5713 38.6668 28.1195ZM40.0002 43.9997C38.34 43.9997 36.7215 43.4795 35.3719 42.5127L40.5522 37.333H47.8856C47.2319 41.1794 43.9019 43.9951 40.0002 43.9997Z" fill="#0FA7F0"/>
<path d="M54.6665 24H59.9998V26.6667H54.6665V24Z" fill="#0FA7F0"/>
<path d="M54.6665 29.333H59.9998V31.9997H54.6665V29.333Z" fill="#0FA7F0"/>
<path d="M52 42.667H60V45.3337H52V42.667Z" fill="#0FA7F0"/>
<path d="M52 48H60V50.6667H52V48Z" fill="#0FA7F0"/>
<path d="M20 25.333H22.6667V27.9997H20V25.333Z" fill="#0FA7F0"/>
<path d="M25.3335 25.333H30.6668V27.9997H25.3335V25.333Z" fill="#0FA7F0"/>
<path d="M20 8H25.3333V10.6667H20V8Z" fill="#0FA7F0"/>
<path d="M20 13.334H30.6667V16.0006H20V13.334Z" fill="#0FA7F0"/>
<path d="M20 50.667H30.6667V53.3337H20V50.667Z" fill="#0FA7F0"/>
<path d="M20 56H30.6667V58.6667H20V56Z" fill="#0FA7F0"/>
</svg>
