<svg width="864" height="613" viewBox="0 0 864 613" fill="none" xmlns="http://www.w3.org/2000/svg">
<g filter="url(#filter0_d_901_48)">
<path d="M50 61C50 52.7157 56.7157 46 65 46H799C807.284 46 814 52.7157 814 61V544C814 552.284 807.284 559 799 559H65C56.7157 559 50 552.284 50 544V61Z" fill="white"/>
</g>
<g filter="url(#filter1_d_901_48)">
<path d="M50 101H105V559H65C56.7157 559 50 552.284 50 544V101Z" fill="white"/>
</g>
<path d="M76 139V133H80V139H85V131H88L78 122L68 131H71V139H76Z" fill="#747474"/>
<path d="M83.832 157.667L79.6654 161.417V170.583L83.832 166.833V157.667ZM73.4154 160.167C71.7904 160.167 70.0404 160.5 68.832 161.417V173.633C68.832 173.842 69.0404 174.05 69.2487 174.05C69.332 174.05 69.3737 173.992 69.457 173.992C70.582 173.45 72.207 173.083 73.4154 173.083C75.0404 173.083 76.7904 173.417 77.9987 174.333C79.1237 173.625 81.1654 173.083 82.582 173.083C83.957 173.083 85.3737 173.342 86.5404 173.967C86.6237 174.008 86.6654 173.992 86.7487 173.992C86.957 173.992 87.1654 173.783 87.1654 173.575V161.417C86.6654 161.042 86.1237 160.792 85.4987 160.583V171.833C84.582 171.542 83.582 171.417 82.582 171.417C81.1654 171.417 79.1237 171.958 77.9987 172.667V161.417C76.7904 160.5 75.0404 160.167 73.4154 160.167Z" fill="#747474"/>
<line x1="50" y1="503.5" x2="105" y2="503.5" stroke="#E1E1E9"/>
<path d="M69.3117 518.406L69.8322 523.224L69.919 524.138H67.8945L67.9958 523.224L68.5019 518.406L68.5453 518H69.2683L69.3117 518.406Z" fill="#F28100"/>
<path d="M85.4093 518.406L85.9154 523.224L86.0167 524.138H83.9922L84.079 523.224L84.5995 518.406L84.6429 518H85.3659L85.4093 518.406Z" fill="#F28100"/>
<path d="M75.9953 533.367C75.5904 533.729 75.2 534.034 74.7951 534.339C74.3902 534.643 73.9853 534.948 73.5515 535.238C72.6983 535.819 71.8307 536.356 70.8329 536.806C70.3702 537.009 69.8207 536.806 69.6182 536.341C69.4303 535.92 69.5893 535.427 69.9653 535.195L69.9942 535.18C70.7462 534.716 71.4547 534.121 72.1488 533.483C72.4959 533.163 72.8285 532.83 73.1611 532.496C73.4792 532.162 73.8262 531.799 74.101 531.48C74.5926 530.914 75.4314 530.856 75.9953 531.335C76.5593 531.828 76.6171 532.67 76.1399 533.236C76.0965 533.28 76.0532 533.323 75.9953 533.367Z" fill="#37376D"/>
<path d="M79.146 530.682C79.5798 530.783 80.1004 530.812 80.6065 530.812C81.1271 530.812 81.6622 530.769 82.1827 530.696C83.2383 530.551 84.294 530.275 85.2484 529.84L85.2628 529.826C85.7255 529.608 86.275 529.826 86.4775 530.29C86.6655 530.725 86.5064 531.219 86.116 531.451C85.017 532.118 83.8457 532.583 82.631 532.916C82.0237 533.076 81.4019 533.206 80.7656 533.279C80.1293 533.352 79.4642 533.395 78.7556 533.337H78.7411C78.0036 533.279 77.4541 532.626 77.512 531.886C77.5698 531.146 78.2206 530.595 78.958 530.653C79.0303 530.653 79.0882 530.667 79.146 530.682Z" fill="#37376D"/>
<path d="M86.2184 523.833C86.2184 526.924 82.0971 529.434 76.9926 529.434C71.888 529.434 67.7812 526.924 67.7812 523.833C67.7812 520.742 71.9169 518.232 77.007 518.232C82.0971 518.232 86.2184 520.742 86.2184 523.833Z" fill="#0FA7F0"/>
<path d="M83.0366 523.833C83.0366 525.545 80.3325 527.025 77.0066 527.025C73.6807 527.025 70.9766 525.545 70.9766 523.833C70.9766 522.121 73.6807 520.641 77.0066 520.641C80.3325 520.655 83.0366 522.135 83.0366 523.833Z" fill="white"/>
<path d="M79.0904 523.833C79.0904 524.994 78.1649 525.923 77.0081 525.923C75.8513 525.923 74.9258 524.994 74.9258 523.833C74.9258 522.672 75.8513 521.744 77.0081 521.744C78.1505 521.744 79.0904 522.687 79.0904 523.833Z" fill="#37376D"/>
<path d="M82.9204 538.329L80.679 532.133C80.332 531.219 79.4644 530.609 78.4955 530.609H75.8203C74.5333 530.609 73.4922 531.654 73.4922 532.946V538.314H82.9204V538.329Z" fill="#0FA7F0"/>
<path d="M67 535.267C67.5061 534.817 68.2725 534.6 68.9811 534.73C69.6897 534.846 70.3693 535.296 70.7597 535.92C71.1646 536.544 71.2658 537.342 71.0779 538.039C70.8899 538.735 70.3838 539.345 69.7475 539.606L69.0245 538.474C69.2414 538.213 69.3426 537.937 69.3715 537.661C69.386 537.386 69.3281 537.139 69.1835 536.921C69.0534 536.704 68.8509 536.544 68.5907 536.443C68.3304 536.341 68.0412 536.327 67.7086 536.399L67 535.267Z" fill="#F28100"/>
<path d="M87.5629 528.651C87.3171 528.883 87.1725 529.129 87.1002 529.391C87.0424 529.652 87.0713 529.913 87.158 530.145C87.2593 530.377 87.4328 530.58 87.6642 530.711C87.8955 530.842 88.1847 530.914 88.5173 530.885L89.0524 532.119C88.4739 532.496 87.6931 532.568 87.0134 532.336C86.3338 532.104 85.7265 531.553 85.4517 530.871C85.1625 530.189 85.1625 529.376 85.4806 528.723C85.7843 528.056 86.3772 527.548 87.0424 527.388L87.5629 528.651Z" fill="#F28100"/>
<path d="M76.7302 538.329H73.4766V542H76.7302V538.329Z" fill="#37376D"/>
<path d="M80.9827 542H84.2508L82.9204 538.329H79.6523L80.9827 542Z" fill="#37376D"/>
<path d="M84.9762 200.095H83.7619V196.857C83.7619 195.959 83.0333 195.238 82.1429 195.238H78.9048V194.024C78.9048 193.487 78.6915 192.972 78.312 192.593C77.9325 192.213 77.4177 192 76.881 192C76.3442 192 75.8294 192.213 75.4499 192.593C75.0704 192.972 74.8571 193.487 74.8571 194.024V195.238H71.619C71.1896 195.238 70.7778 195.409 70.4742 195.712C70.1706 196.016 70 196.428 70 196.857V199.933H71.2143C72.4286 199.933 73.4 200.905 73.4 202.119C73.4 203.333 72.4286 204.305 71.2143 204.305H70V207.381C70 207.81 70.1706 208.222 70.4742 208.526C70.7778 208.829 71.1896 209 71.619 209H74.6952V207.786C74.6952 206.571 75.6667 205.6 76.881 205.6C78.0952 205.6 79.0667 206.571 79.0667 207.786V209H82.1429C82.5723 209 82.9841 208.829 83.2877 208.526C83.5913 208.222 83.7619 207.81 83.7619 207.381V204.143H84.9762C85.5129 204.143 86.0277 203.93 86.4072 203.55C86.7868 203.171 87 202.656 87 202.119C87 201.582 86.7868 201.068 86.4072 200.688C86.0277 200.308 85.5129 200.095 84.9762 200.095Z" fill="#747474"/>
<path d="M72 238.5L69 241.44V233H72V238.5ZM77 236.66L75.43 235.32L74 236.64V229H77V236.66ZM82 235L79 238V225H82V235ZM84.81 234.81L83 233H88V238L86.21 236.21L79 243.36L75.53 240.34L71.75 244H69L75.47 237.66L79 240.64" fill="#747474"/>
<path d="M80.763 268.325L79.953 269.153C79.305 269.801 78.9 270.35 78.9 271.7H77.1V271.25C77.1 270.251 77.505 269.351 78.153 268.703L79.269 267.569C79.602 267.245 79.8 266.795 79.8 266.3C79.8 265.301 78.99 264.5 78 264.5C77.5226 264.5 77.0648 264.69 76.7272 265.027C76.3896 265.365 76.2 265.823 76.2 266.3H74.4C74.4 265.345 74.7793 264.43 75.4544 263.754C76.1295 263.079 77.0452 262.7 78 262.7C78.9548 262.7 79.8705 263.079 80.5456 263.754C81.2207 264.43 81.6 265.345 81.6 266.3C81.6 267.092 81.276 267.803 80.763 268.325ZM78.9 275.3H77.1V273.5H78.9V275.3ZM78 260C76.8181 260 75.6478 260.233 74.5558 260.685C73.4639 261.137 72.4718 261.8 71.636 262.636C69.9482 264.324 69 266.613 69 269C69 271.387 69.9482 273.676 71.636 275.364C72.4718 276.2 73.4639 276.863 74.5558 277.315C75.6478 277.767 76.8181 278 78 278C80.3869 278 82.6761 277.052 84.364 275.364C86.0518 273.676 87 271.387 87 269C87 264.023 82.95 260 78 260Z" fill="#747474"/>
<path d="M50 61C50 52.7157 56.7157 46 65 46H105V101H50V61Z" fill="#0FA7F0"/>
<g filter="url(#filter2_d_901_48)">
<path d="M105 101L105 46L799 46C807.284 46 814 52.7157 814 61L814 101L105 101Z" fill="white"/>
</g>
<rect x="69" y="67" width="18" height="2" fill="white"/>
<rect x="69" y="72" width="18" height="2" fill="white"/>
<rect x="69" y="77" width="18" height="2" fill="white"/>
<path d="M582.832 73C582.832 77.5558 586.526 81.25 591.082 81.25C593.273 81.25 595.372 80.3883 596.949 78.8667L595.574 77.4917C594.41 78.7292 592.787 79.4167 591.082 79.4167C585.362 79.4167 582.502 72.505 586.545 68.4625C590.587 64.42 597.499 67.2892 597.499 73H594.749L598.415 76.6667H598.507L602.082 73H599.332C599.332 68.4442 595.638 64.75 591.082 64.75C586.526 64.75 582.832 68.4442 582.832 73Z" fill="#454545"/>
<path d="M639.499 76.3334V66.3334H624.499V76.3334H639.499ZM639.499 64.6667C639.941 64.6667 640.365 64.8423 640.677 65.1549C640.99 65.4675 641.165 65.8914 641.165 66.3334V76.3334C641.165 76.7754 640.99 77.1994 640.677 77.5119C640.365 77.8245 639.941 78.0001 639.499 78.0001H633.665V79.6667H635.332V81.3334H628.665V79.6667H630.332V78.0001H624.499C623.574 78.0001 622.832 77.2501 622.832 76.3334V66.3334C622.832 65.4084 623.574 64.6667 624.499 64.6667H639.499ZM626.165 68.0001H633.665V72.1667H626.165V68.0001ZM634.499 68.0001H637.832V69.6667H634.499V68.0001ZM637.832 70.5001V74.6667H634.499V70.5001H637.832ZM626.165 73.0001H629.499V74.6667H626.165V73.0001ZM630.332 73.0001H633.665V74.6667H630.332V73.0001Z" fill="#454545"/>
<path d="M669.833 65.5V70.5H676.5V65.5H669.833ZM669.833 80.5H676.5V72.1667H669.833V80.5ZM661.5 80.5H668.167V75.5H661.5V80.5ZM661.5 73.8333H668.167V65.5H661.5V73.8333Z" fill="#454545"/>
<path d="M697.5 76.1667V77.8333H702.5V76.1667H697.5ZM697.5 66.1667V67.8333H705.833V66.1667H697.5ZM705.833 79.5V77.8333H712.5V76.1667H705.833V74.5H704.167V79.5H705.833ZM700.833 69.5V71.1667H697.5V72.8333H700.833V74.5H702.5V69.5H700.833ZM712.5 72.8333V71.1667H704.167V72.8333H712.5ZM707.5 69.5H709.167V67.8333H712.5V66.1667H709.167V64.5H707.5V69.5Z" fill="#454545"/>
<path d="M734.999 64.6667C734.074 64.6667 733.332 65.4167 733.332 66.3334V79.6667C733.332 80.1088 733.508 80.5327 733.82 80.8453C734.133 81.1578 734.557 81.3334 734.999 81.3334H744.999C745.441 81.3334 745.865 81.1578 746.177 80.8453C746.49 80.5327 746.665 80.1088 746.665 79.6667V69.6667L741.665 64.6667H734.999ZM740.832 65.9167L745.415 70.5001H740.832V65.9167ZM737.44 73.1834H743.332V79.0751L741.565 77.3084L739.207 79.6667L736.849 77.3084L739.207 74.9584" fill="#454545"/>
<path d="M775.666 73V79.5667C775.7 79.8167 775.616 80.0833 775.425 80.2583C775.1 80.5833 774.575 80.5833 774.25 80.2583L772.575 78.5833C772.383 78.3917 772.3 78.1333 772.333 77.8917V73H772.308L767.508 66.85C767.225 66.4917 767.291 65.9667 767.65 65.6833C767.808 65.5667 767.983 65.5 768.166 65.5H779.833C780.016 65.5 780.191 65.5667 780.35 65.6833C780.708 65.9667 780.775 66.4917 780.491 66.85L775.691 73H775.666Z" fill="#0FA7F0"/>
<defs>
<filter id="filter0_d_901_48" x="0" y="0" width="864" height="613" filterUnits="userSpaceOnUse" color-interpolation-filters="sRGB">
<feFlood flood-opacity="0" result="BackgroundImageFix"/>
<feColorMatrix in="SourceAlpha" type="matrix" values="0 0 0 0 0 0 0 0 0 0 0 0 0 0 0 0 0 0 127 0" result="hardAlpha"/>
<feOffset dy="4"/>
<feGaussianBlur stdDeviation="25"/>
<feComposite in2="hardAlpha" operator="out"/>
<feColorMatrix type="matrix" values="0 0 0 0 0 0 0 0 0 0 0 0 0 0 0 0 0 0 0.1 0"/>
<feBlend mode="normal" in2="BackgroundImageFix" result="effect1_dropShadow_901_48"/>
<feBlend mode="normal" in="SourceGraphic" in2="effect1_dropShadow_901_48" result="shape"/>
</filter>
<filter id="filter1_d_901_48" x="30" y="71" width="115" height="518" filterUnits="userSpaceOnUse" color-interpolation-filters="sRGB">
<feFlood flood-opacity="0" result="BackgroundImageFix"/>
<feColorMatrix in="SourceAlpha" type="matrix" values="0 0 0 0 0 0 0 0 0 0 0 0 0 0 0 0 0 0 127 0" result="hardAlpha"/>
<feOffset dx="10"/>
<feGaussianBlur stdDeviation="15"/>
<feComposite in2="hardAlpha" operator="out"/>
<feColorMatrix type="matrix" values="0 0 0 0 0 0 0 0 0 0 0 0 0 0 0 0 0 0 0.1 0"/>
<feBlend mode="normal" in2="BackgroundImageFix" result="effect1_dropShadow_901_48"/>
<feBlend mode="normal" in="SourceGraphic" in2="effect1_dropShadow_901_48" result="shape"/>
</filter>
<filter id="filter2_d_901_48" x="85" y="16" width="769" height="115" filterUnits="userSpaceOnUse" color-interpolation-filters="sRGB">
<feFlood flood-opacity="0" result="BackgroundImageFix"/>
<feColorMatrix in="SourceAlpha" type="matrix" values="0 0 0 0 0 0 0 0 0 0 0 0 0 0 0 0 0 0 127 0" result="hardAlpha"/>
<feOffset dx="10"/>
<feGaussianBlur stdDeviation="15"/>
<feComposite in2="hardAlpha" operator="out"/>
<feColorMatrix type="matrix" values="0 0 0 0 0 0 0 0 0 0 0 0 0 0 0 0 0 0 0.1 0"/>
<feBlend mode="normal" in2="BackgroundImageFix" result="effect1_dropShadow_901_48"/>
<feBlend mode="normal" in="SourceGraphic" in2="effect1_dropShadow_901_48" result="shape"/>
</filter>
</defs>
</svg>
