<svg width="565" height="434" viewBox="0 0 565 434" fill="none" xmlns="http://www.w3.org/2000/svg">
<path d="M152.5 5C152.5 2.51472 154.515 0.5 157 0.5H408C410.485 0.5 412.5 2.51472 412.5 5V169C412.5 171.485 410.485 173.5 408 173.5H157C154.515 173.5 152.5 171.485 152.5 169V5Z" fill="white" stroke="#DDDDE6"/>
<path d="M304.5 265C304.5 262.515 306.515 260.5 309 260.5H560C562.485 260.5 564.5 262.515 564.5 265V429C564.5 431.485 562.485 433.5 560 433.5H309C306.515 433.5 304.5 431.485 304.5 429V265Z" fill="white" stroke="#DDDDE6"/>
<path d="M0.5 265C0.5 262.515 2.51472 260.5 5 260.5H256C258.485 260.5 260.5 262.515 260.5 265V429C260.5 431.485 258.485 433.5 256 433.5H5.00001C2.51472 433.5 0.5 431.485 0.5 429V265Z" fill="white" stroke="#DDDDE6"/>
<path d="M394.16 307H391.06L396.78 293H400.02L405.72 307H402.62L401.6 304.38H395.2L394.16 307ZM398.08 296.88L396.14 301.9H400.66L398.7 296.88C398.567 296.507 398.467 296.14 398.4 295.78C398.32 296.193 398.213 296.56 398.08 296.88ZM409.745 307H406.965V297.4H409.745V301.04H413.625V297.4H416.405V307H413.625V303.36H409.745V307ZM427.342 304.52C427.342 304.947 427.569 305.16 428.022 305.16C428.209 305.16 428.382 305.133 428.542 305.08V306.9C428.035 307.087 427.522 307.18 427.002 307.18C425.989 307.18 425.282 306.82 424.882 306.1C423.882 306.887 422.729 307.28 421.422 307.28C420.475 307.28 419.675 307.02 419.022 306.5C418.382 305.967 418.062 305.247 418.062 304.34C418.062 303.58 418.289 302.947 418.742 302.44C419.195 301.933 419.722 301.593 420.322 301.42C420.922 301.233 421.575 301.14 422.282 301.14C423.069 301.14 423.829 301.227 424.562 301.4V301.06C424.562 300.567 424.369 300.173 423.982 299.88C423.595 299.587 423.035 299.44 422.302 299.44C421.235 299.44 420.102 299.68 418.902 300.16V297.76C420.182 297.333 421.422 297.12 422.622 297.12C425.769 297.12 427.342 298.567 427.342 301.46V304.52ZM422.922 302.8C422.349 302.8 421.869 302.907 421.482 303.12C421.095 303.333 420.902 303.667 420.902 304.12C420.902 304.467 421.042 304.753 421.322 304.98C421.615 305.193 421.975 305.3 422.402 305.3C423.242 305.3 423.962 305.04 424.562 304.52V303.02C423.949 302.873 423.402 302.8 422.922 302.8ZM434.292 299.6C434.212 300.773 434.098 301.787 433.952 302.64C433.818 303.48 433.618 304.267 433.352 305C433.085 305.72 432.725 306.267 432.272 306.64C431.818 307.013 431.272 307.2 430.632 307.2C430.138 307.2 429.632 307.107 429.112 306.92V304.72C429.312 304.8 429.505 304.84 429.692 304.84C430.385 304.84 430.872 304.22 431.152 302.98C431.432 301.74 431.625 299.88 431.732 297.4H439.532V307H436.752V299.6H434.292ZM442.887 305.94C441.86 305.047 441.347 303.8 441.347 302.2C441.347 300.6 441.86 299.353 442.887 298.46C443.914 297.567 445.167 297.12 446.647 297.12C448.14 297.12 449.394 297.567 450.407 298.46C451.434 299.353 451.947 300.6 451.947 302.2C451.947 303.8 451.434 305.047 450.407 305.94C449.394 306.833 448.14 307.28 446.647 307.28C445.167 307.28 443.914 306.833 442.887 305.94ZM448.467 304.08C448.907 303.587 449.127 302.96 449.127 302.2C449.127 301.44 448.907 300.82 448.467 300.34C448.027 299.847 447.42 299.6 446.647 299.6C445.874 299.6 445.267 299.847 444.827 300.34C444.4 300.82 444.187 301.44 444.187 302.2C444.187 302.96 444.4 303.587 444.827 304.08C445.267 304.56 445.874 304.8 446.647 304.8C447.42 304.8 448.027 304.56 448.467 304.08ZM456.542 307H453.762V297.4H461.082V299.74H456.542V307ZM467.084 294.56C468.431 293.6 469.991 293.12 471.764 293.12C473.218 293.12 474.404 293.46 475.324 294.14C476.258 294.82 476.724 295.82 476.724 297.14C476.724 298.167 476.391 299.047 475.724 299.78C475.071 300.5 474.178 301.193 473.044 301.86C471.711 302.647 470.891 303.18 470.584 303.46C470.224 303.807 470.038 304.133 470.024 304.44L476.824 304.42V307H466.624V305.66C466.624 304.927 466.731 304.267 466.944 303.68C467.171 303.093 467.531 302.567 468.024 302.1C468.531 301.633 468.951 301.287 469.284 301.06C469.618 300.82 470.124 300.5 470.804 300.1C470.844 300.073 470.878 300.053 470.904 300.04C470.931 300.027 470.964 300.007 471.004 299.98C471.044 299.953 471.078 299.933 471.104 299.92C471.184 299.867 471.351 299.773 471.604 299.64C471.871 299.493 472.044 299.393 472.124 299.34C472.204 299.287 472.344 299.2 472.544 299.08C472.744 298.947 472.884 298.847 472.964 298.78C473.044 298.7 473.144 298.593 473.264 298.46C473.398 298.327 473.491 298.207 473.544 298.1C473.598 297.993 473.644 297.867 473.684 297.72C473.724 297.573 473.744 297.42 473.744 297.26C473.744 296.767 473.544 296.393 473.144 296.14C472.744 295.873 472.191 295.74 471.484 295.74C469.964 295.74 468.498 296.28 467.084 297.36V294.56Z" fill="#37376D"/>
<path d="M245.86 33H248.64V47H245.64V38.38L241.94 44H240.2L236.5 38.36V47H233.5V33H236.28L241.08 40.28L245.86 33ZM252.11 45.94C251.083 45.0467 250.57 43.8 250.57 42.2C250.57 40.6 251.083 39.3533 252.11 38.46C253.136 37.5667 254.39 37.12 255.87 37.12C257.363 37.12 258.616 37.5667 259.63 38.46C260.656 39.3533 261.17 40.6 261.17 42.2C261.17 43.8 260.656 45.0467 259.63 45.94C258.616 46.8333 257.363 47.28 255.87 47.28C254.39 47.28 253.136 46.8333 252.11 45.94ZM257.69 44.08C258.13 43.5867 258.35 42.96 258.35 42.2C258.35 41.44 258.13 40.82 257.69 40.34C257.25 39.8467 256.643 39.6 255.87 39.6C255.096 39.6 254.49 39.8467 254.05 40.34C253.623 40.82 253.41 41.44 253.41 42.2C253.41 42.96 253.623 43.5867 254.05 44.08C254.49 44.56 255.096 44.8 255.87 44.8C256.643 44.8 257.25 44.56 257.69 44.08ZM270.785 35.44C269.918 35.9733 268.898 36.24 267.725 36.24C266.551 36.24 265.531 35.9733 264.665 35.44V33.36C265.585 33.8667 266.605 34.12 267.725 34.12C268.845 34.12 269.865 33.8667 270.785 33.36V35.44ZM265.405 47H262.985V37.4H265.765V42.8L270.045 37.4H272.445V47H269.685V41.6L265.405 47ZM284.195 47H281.435V39.74H278.375V37.4H287.255V39.74H284.195V47ZM289.493 45.94C288.466 45.0467 287.953 43.8 287.953 42.2C287.953 40.6 288.466 39.3533 289.493 38.46C290.519 37.5667 291.773 37.12 293.253 37.12C294.746 37.12 295.999 37.5667 297.013 38.46C298.039 39.3533 298.553 40.6 298.553 42.2C298.553 43.8 298.039 45.0467 297.013 45.94C295.999 46.8333 294.746 47.28 293.253 47.28C291.773 47.28 290.519 46.8333 289.493 45.94ZM295.073 44.08C295.513 43.5867 295.733 42.96 295.733 42.2C295.733 41.44 295.513 40.82 295.073 40.34C294.633 39.8467 294.026 39.6 293.253 39.6C292.479 39.6 291.873 39.8467 291.433 40.34C291.006 40.82 290.793 41.44 290.793 42.2C290.793 42.96 291.006 43.5867 291.433 44.08C291.873 44.56 292.479 44.8 293.253 44.8C294.026 44.8 294.633 44.56 295.073 44.08ZM306.248 47H300.368V37.4H306.088C307.154 37.4 307.948 37.6467 308.468 38.14C308.988 38.62 309.248 39.22 309.248 39.94C309.248 41.0333 308.754 41.7667 307.768 42.14C308.901 42.5133 309.467 43.2667 309.467 44.4C309.467 45.16 309.214 45.7867 308.708 46.28C308.201 46.76 307.381 47 306.248 47ZM303.148 43.02V45.1H305.428C306.281 45.1 306.708 44.76 306.708 44.08C306.708 43.3733 306.281 43.02 305.428 43.02H303.148ZM303.128 39.3V41.34H305.248C306.048 41.34 306.448 41.0067 306.448 40.34C306.448 39.6467 306.041 39.3 305.228 39.3H303.128ZM319.924 44.52C319.924 44.9467 320.151 45.16 320.604 45.16C320.791 45.16 320.964 45.1333 321.124 45.08V46.9C320.617 47.0867 320.104 47.18 319.584 47.18C318.571 47.18 317.864 46.82 317.464 46.1C316.464 46.8867 315.311 47.28 314.004 47.28C313.057 47.28 312.257 47.02 311.604 46.5C310.964 45.9667 310.644 45.2467 310.644 44.34C310.644 43.58 310.871 42.9467 311.324 42.44C311.777 41.9333 312.304 41.5933 312.904 41.42C313.504 41.2333 314.157 41.14 314.864 41.14C315.651 41.14 316.411 41.2267 317.144 41.4V41.06C317.144 40.5667 316.951 40.1733 316.564 39.88C316.177 39.5867 315.617 39.44 314.884 39.44C313.817 39.44 312.684 39.68 311.484 40.16V37.76C312.764 37.3333 314.004 37.12 315.204 37.12C318.351 37.12 319.924 38.5667 319.924 41.46V44.52ZM315.504 42.8C314.931 42.8 314.451 42.9067 314.064 43.12C313.677 43.3333 313.484 43.6667 313.484 44.12C313.484 44.4667 313.624 44.7533 313.904 44.98C314.197 45.1933 314.557 45.3 314.984 45.3C315.824 45.3 316.544 45.04 317.144 44.52V43.02C316.531 42.8733 315.984 42.8 315.504 42.8ZM325.074 38.8C325.86 37.68 327.02 37.12 328.554 37.12C330.007 37.12 331.147 37.62 331.974 38.62C332.814 39.6067 333.234 40.8 333.234 42.2C333.234 43.6 332.814 44.8 331.974 45.8C331.147 46.7867 330.007 47.28 328.554 47.28C327.234 47.28 326.18 46.8467 325.394 45.98V51.4H322.614V37.4H325.074V38.8ZM329.714 44.16C330.167 43.6267 330.394 42.9733 330.394 42.2C330.394 41.4267 330.167 40.78 329.714 40.26C329.26 39.7267 328.647 39.46 327.874 39.46C327.3 39.46 326.787 39.6133 326.334 39.92C325.894 40.2267 325.574 40.6067 325.374 41.06V43.34C325.574 43.7933 325.894 44.1733 326.334 44.48C326.787 44.7867 327.3 44.94 327.874 44.94C328.647 44.94 329.26 44.68 329.714 44.16Z" fill="#37376D"/>
<path d="M413.906 317.76H415.418V328.146H417.596V330H410.936V328.146H413.384V319.866L410.936 320.784V318.894L413.906 317.76ZM422.882 321.63C422.882 320.334 423.314 319.326 424.178 318.606C425.042 317.886 426.122 317.526 427.418 317.526C429.23 317.526 430.568 318.066 431.432 319.146C432.308 320.226 432.746 321.768 432.746 323.772C432.746 325.908 432.218 327.522 431.162 328.614C430.106 329.694 428.744 330.234 427.076 330.234C425.96 330.234 424.904 329.994 423.908 329.514V327.642C424.832 328.158 425.822 328.416 426.878 328.416C427.91 328.416 428.768 328.11 429.452 327.498C430.148 326.886 430.556 325.896 430.676 324.528C429.572 325.188 428.384 325.518 427.112 325.518C425.972 325.518 424.982 325.176 424.142 324.492C423.302 323.808 422.882 322.854 422.882 321.63ZM427.562 319.29C426.794 319.29 426.164 319.476 425.672 319.848C425.192 320.208 424.952 320.772 424.952 321.54C424.952 322.32 425.21 322.884 425.726 323.232C426.242 323.568 426.902 323.736 427.706 323.736C428.81 323.736 429.794 323.394 430.658 322.71C430.442 320.43 429.41 319.29 427.562 319.29ZM435.857 328.488C434.933 327.312 434.471 325.776 434.471 323.88C434.471 321.984 434.933 320.454 435.857 319.29C436.781 318.114 438.149 317.526 439.961 317.526C441.773 317.526 443.141 318.114 444.065 319.29C444.989 320.454 445.451 321.984 445.451 323.88C445.451 325.776 444.989 327.312 444.065 328.488C443.141 329.652 441.773 330.234 439.961 330.234C438.149 330.234 436.781 329.652 435.857 328.488ZM439.961 328.362C442.241 328.362 443.381 326.868 443.381 323.88C443.381 320.892 442.241 319.398 439.961 319.398C437.681 319.398 436.541 320.892 436.541 323.88C436.541 326.868 437.681 328.362 439.961 328.362ZM448.566 328.488C447.642 327.312 447.18 325.776 447.18 323.88C447.18 321.984 447.642 320.454 448.566 319.29C449.49 318.114 450.858 317.526 452.67 317.526C454.482 317.526 455.85 318.114 456.774 319.29C457.698 320.454 458.16 321.984 458.16 323.88C458.16 325.776 457.698 327.312 456.774 328.488C455.85 329.652 454.482 330.234 452.67 330.234C450.858 330.234 449.49 329.652 448.566 328.488ZM452.67 328.362C454.95 328.362 456.09 326.868 456.09 323.88C456.09 320.892 454.95 319.398 452.67 319.398C450.39 319.398 449.25 320.892 449.25 323.88C449.25 326.868 450.39 328.362 452.67 328.362Z" fill="#0FA7F0"/>
<path d="M92.16 307H89.06L94.78 293H98.02L103.72 307H100.62L99.6 304.38H93.2L92.16 307ZM96.08 296.88L94.14 301.9H98.66L96.7 296.88C96.5667 296.507 96.4667 296.14 96.4 295.78C96.32 296.193 96.2133 296.56 96.08 296.88ZM107.745 307H104.965V297.4H107.745V301.04H111.625V297.4H114.405V307H111.625V303.36H107.745V307ZM125.342 304.52C125.342 304.947 125.569 305.16 126.022 305.16C126.209 305.16 126.382 305.133 126.542 305.08V306.9C126.035 307.087 125.522 307.18 125.002 307.18C123.989 307.18 123.282 306.82 122.882 306.1C121.882 306.887 120.729 307.28 119.422 307.28C118.475 307.28 117.675 307.02 117.022 306.5C116.382 305.967 116.062 305.247 116.062 304.34C116.062 303.58 116.289 302.947 116.742 302.44C117.195 301.933 117.722 301.593 118.322 301.42C118.922 301.233 119.575 301.14 120.282 301.14C121.069 301.14 121.829 301.227 122.562 301.4V301.06C122.562 300.567 122.369 300.173 121.982 299.88C121.595 299.587 121.035 299.44 120.302 299.44C119.235 299.44 118.102 299.68 116.902 300.16V297.76C118.182 297.333 119.422 297.12 120.622 297.12C123.769 297.12 125.342 298.567 125.342 301.46V304.52ZM120.922 302.8C120.349 302.8 119.869 302.907 119.482 303.12C119.095 303.333 118.902 303.667 118.902 304.12C118.902 304.467 119.042 304.753 119.322 304.98C119.615 305.193 119.975 305.3 120.402 305.3C121.242 305.3 121.962 305.04 122.562 304.52V303.02C121.949 302.873 121.402 302.8 120.922 302.8ZM132.292 299.6C132.212 300.773 132.098 301.787 131.952 302.64C131.818 303.48 131.618 304.267 131.352 305C131.085 305.72 130.725 306.267 130.272 306.64C129.818 307.013 129.272 307.2 128.632 307.2C128.138 307.2 127.632 307.107 127.112 306.92V304.72C127.312 304.8 127.505 304.84 127.692 304.84C128.385 304.84 128.872 304.22 129.152 302.98C129.432 301.74 129.625 299.88 129.732 297.4H137.532V307H134.752V299.6H132.292ZM140.887 305.94C139.86 305.047 139.347 303.8 139.347 302.2C139.347 300.6 139.86 299.353 140.887 298.46C141.914 297.567 143.167 297.12 144.647 297.12C146.14 297.12 147.394 297.567 148.407 298.46C149.434 299.353 149.947 300.6 149.947 302.2C149.947 303.8 149.434 305.047 148.407 305.94C147.394 306.833 146.14 307.28 144.647 307.28C143.167 307.28 141.914 306.833 140.887 305.94ZM146.467 304.08C146.907 303.587 147.127 302.96 147.127 302.2C147.127 301.44 146.907 300.82 146.467 300.34C146.027 299.847 145.42 299.6 144.647 299.6C143.874 299.6 143.267 299.847 142.827 300.34C142.4 300.82 142.187 301.44 142.187 302.2C142.187 302.96 142.4 303.587 142.827 304.08C143.267 304.56 143.874 304.8 144.647 304.8C145.42 304.8 146.027 304.56 146.467 304.08ZM154.542 307H151.762V297.4H159.082V299.74H154.542V307ZM168.144 293.4H170.324V304.42H172.604V307H164.844V304.42H167.404V296.4L164.844 297.36V294.66L168.144 293.4Z" fill="#37376D"/>
<path d="M377.195 376.12H378.651V383.336H380.699V384.584H378.651V387H377.323V384.584H371.259V383.384L377.195 376.12ZM377.323 383.336V377.928L372.907 383.336H377.323ZM387.556 387H386.34V379.32H387.732L390.532 383.576L393.332 379.32H394.724V387H393.508V381.208L391.012 385H390.052L387.556 381.208V387ZM396.562 383.16C396.562 381.901 396.946 380.915 397.714 380.2C398.493 379.485 399.384 379.128 400.386 379.128C401.325 379.128 402.098 379.363 402.706 379.832C403.325 380.301 403.73 380.883 403.922 381.576C404.114 382.259 404.125 382.973 403.954 383.72H397.842C397.917 384.477 398.253 385.048 398.85 385.432C399.448 385.816 400.168 386.008 401.01 386.008C401.949 386.008 402.792 385.8 403.538 385.384V386.632C402.824 387.005 401.917 387.192 400.818 387.192C399.602 387.192 398.589 386.845 397.778 386.152C396.968 385.459 396.562 384.461 396.562 383.16ZM402.818 382.6C402.85 382.376 402.834 382.141 402.77 381.896C402.706 381.651 402.589 381.405 402.418 381.16C402.258 380.915 402.008 380.712 401.666 380.552C401.325 380.392 400.925 380.312 400.466 380.312C399.773 380.312 399.17 380.515 398.658 380.92C398.157 381.325 397.885 381.885 397.842 382.6H402.818ZM405.297 383.192C405.297 382.52 405.419 381.917 405.665 381.384C405.91 380.851 406.23 380.424 406.625 380.104C407.03 379.784 407.473 379.544 407.953 379.384C408.443 379.213 408.945 379.128 409.457 379.128C410.406 379.128 411.195 379.336 411.825 379.752V381C411.238 380.541 410.502 380.312 409.617 380.312C408.785 380.312 408.07 380.552 407.473 381.032C406.875 381.512 406.577 382.221 406.577 383.16C406.577 384.088 406.87 384.797 407.457 385.288C408.054 385.768 408.763 386.008 409.585 386.008C410.438 386.008 411.211 385.8 411.905 385.384V386.664C411.179 387.016 410.347 387.192 409.409 387.192C408.299 387.192 407.334 386.845 406.513 386.152C405.702 385.459 405.297 384.472 405.297 383.192ZM414.914 385.736C415.074 385.875 415.154 386.072 415.154 386.328C415.154 386.584 415.074 386.787 414.914 386.936C414.754 387.075 414.556 387.144 414.322 387.144C414.087 387.144 413.884 387.075 413.714 386.936C413.554 386.787 413.474 386.584 413.474 386.328C413.474 386.072 413.554 385.875 413.714 385.736C413.884 385.597 414.087 385.528 414.322 385.528C414.556 385.528 414.754 385.597 414.914 385.736ZM422.352 380.6C423.216 379.619 424.25 379.128 425.456 379.128C426.554 379.128 427.466 379.512 428.192 380.28C428.928 381.048 429.296 382.008 429.296 383.16C429.296 384.312 428.928 385.272 428.192 386.04C427.466 386.808 426.554 387.192 425.456 387.192C424.24 387.192 423.248 386.744 422.48 385.848V390.52H421.2V379.32H422.352V380.6ZM427.232 385.224C427.754 384.701 428.016 384.013 428.016 383.16C428.016 382.307 427.754 381.619 427.232 381.096C426.72 380.573 426.08 380.312 425.312 380.312C424.661 380.312 424.085 380.493 423.584 380.856C423.082 381.219 422.714 381.667 422.48 382.2V384.12C422.714 384.653 423.082 385.101 423.584 385.464C424.085 385.827 424.661 386.008 425.312 386.008C426.08 386.008 426.72 385.747 427.232 385.224ZM437.377 385.4C437.377 385.795 437.574 385.992 437.969 385.992C438.14 385.992 438.337 385.955 438.561 385.88V386.92C438.241 387.037 437.921 387.096 437.601 387.096C436.865 387.096 436.396 386.787 436.193 386.168C435.372 386.851 434.374 387.192 433.201 387.192C432.454 387.192 431.814 386.995 431.281 386.6C430.758 386.195 430.497 385.613 430.497 384.856C430.497 383.949 430.833 383.293 431.505 382.888C432.188 382.472 433.009 382.264 433.969 382.264C434.673 382.264 435.382 382.344 436.097 382.504V382.232C436.097 381.645 435.905 381.181 435.521 380.84C435.137 380.488 434.598 380.312 433.905 380.312C432.934 380.312 432.001 380.504 431.105 380.888V379.64C432.108 379.299 433.084 379.128 434.033 379.128C435.078 379.128 435.894 379.411 436.481 379.976C437.078 380.531 437.377 381.336 437.377 382.392V385.4ZM431.809 384.792C431.809 385.219 431.969 385.544 432.289 385.768C432.62 385.981 433.014 386.088 433.473 386.088C434.529 386.088 435.404 385.715 436.097 384.968V383.56C435.372 383.411 434.721 383.336 434.145 383.336C433.494 383.336 432.94 383.453 432.481 383.688C432.033 383.912 431.809 384.28 431.809 384.792ZM439.406 383.192C439.406 382.52 439.529 381.917 439.774 381.384C440.019 380.851 440.339 380.424 440.734 380.104C441.139 379.784 441.582 379.544 442.062 379.384C442.553 379.213 443.054 379.128 443.566 379.128C444.515 379.128 445.305 379.336 445.934 379.752V381C445.347 380.541 444.611 380.312 443.726 380.312C442.894 380.312 442.179 380.552 441.582 381.032C440.985 381.512 440.686 382.221 440.686 383.16C440.686 384.088 440.979 384.797 441.566 385.288C442.163 385.768 442.873 386.008 443.694 386.008C444.547 386.008 445.321 385.8 446.014 385.384V386.664C445.289 387.016 444.457 387.192 443.518 387.192C442.409 387.192 441.443 386.845 440.622 386.152C439.811 385.459 439.406 384.472 439.406 383.192ZM447.219 383.192C447.219 382.52 447.341 381.917 447.587 381.384C447.832 380.851 448.152 380.424 448.547 380.104C448.952 379.784 449.395 379.544 449.875 379.384C450.365 379.213 450.867 379.128 451.379 379.128C452.328 379.128 453.117 379.336 453.747 379.752V381C453.16 380.541 452.424 380.312 451.539 380.312C450.707 380.312 449.992 380.552 449.395 381.032C448.797 381.512 448.499 382.221 448.499 383.16C448.499 384.088 448.792 384.797 449.379 385.288C449.976 385.768 450.685 386.008 451.507 386.008C452.36 386.008 453.133 385.8 453.827 385.384V386.664C453.101 387.016 452.269 387.192 451.331 387.192C450.221 387.192 449.256 386.845 448.435 386.152C447.624 385.459 447.219 384.472 447.219 383.192ZM456.852 380.6C457.716 379.619 458.75 379.128 459.956 379.128C461.054 379.128 461.966 379.512 462.692 380.28C463.428 381.048 463.796 382.008 463.796 383.16C463.796 384.312 463.428 385.272 462.692 386.04C461.966 386.808 461.054 387.192 459.956 387.192C458.74 387.192 457.748 386.744 456.98 385.848V390.52H455.7V379.32H456.852V380.6ZM461.732 385.224C462.254 384.701 462.516 384.013 462.516 383.16C462.516 382.307 462.254 381.619 461.732 381.096C461.22 380.573 460.58 380.312 459.812 380.312C459.161 380.312 458.585 380.493 458.084 380.856C457.582 381.219 457.214 381.667 456.98 382.2V384.12C457.214 384.653 457.582 385.101 458.084 385.464C458.585 385.827 459.161 386.008 459.812 386.008C460.58 386.008 461.22 385.747 461.732 385.224ZM466.325 386.12C465.514 385.395 465.109 384.408 465.109 383.16C465.109 381.912 465.514 380.931 466.325 380.216C467.136 379.491 468.096 379.128 469.205 379.128C470.325 379.128 471.285 379.491 472.085 380.216C472.896 380.931 473.301 381.912 473.301 383.16C473.301 384.408 472.896 385.395 472.085 386.12C471.285 386.835 470.325 387.192 469.205 387.192C468.096 387.192 467.136 386.835 466.325 386.12ZM471.221 385.224C471.754 384.712 472.021 384.024 472.021 383.16C472.021 382.296 471.754 381.613 471.221 381.112C470.688 380.6 470.016 380.344 469.205 380.344C468.394 380.344 467.722 380.6 467.189 381.112C466.656 381.613 466.389 382.296 466.389 383.16C466.389 384.024 466.656 384.712 467.189 385.224C467.722 385.725 468.394 385.976 469.205 385.976C470.016 385.976 470.688 385.725 471.221 385.224ZM481.137 387H479.857V384.328C479.164 384.595 478.401 384.728 477.569 384.728C476.652 384.728 475.926 384.499 475.393 384.04C474.87 383.581 474.609 382.893 474.609 381.976V379.32H475.889V381.88C475.889 382.499 476.06 382.931 476.401 383.176C476.753 383.421 477.27 383.544 477.953 383.544C478.668 383.544 479.302 383.432 479.857 383.208V379.32H481.137V387ZM484.792 387H483.512V379.32H484.792V382.52H486.344L488.776 379.32H490.264L487.352 383.144L490.616 387H489.112L486.296 383.704H484.792V387ZM492.975 387H491.887V379.32H493.167V384.936L497.871 379.32H498.959V387H497.679V381.384L492.975 387Z" fill="#37376D"/>
<path d="M259.188 58.768C260.4 57.94 261.756 57.526 263.256 57.526C264.54 57.526 265.578 57.826 266.37 58.426C267.162 59.014 267.558 59.86 267.558 60.964C267.558 61.888 267.252 62.68 266.64 63.34C266.04 63.988 265.218 64.624 264.174 65.248C264.09 65.296 263.934 65.386 263.706 65.518C263.49 65.65 263.334 65.746 263.238 65.806C263.154 65.854 263.016 65.938 262.824 66.058C262.632 66.178 262.488 66.268 262.392 66.328C262.308 66.388 262.188 66.478 262.032 66.598C261.888 66.706 261.78 66.802 261.708 66.886C261.636 66.958 261.552 67.054 261.456 67.174C261.36 67.282 261.288 67.384 261.24 67.48C261.204 67.576 261.168 67.684 261.132 67.804C261.096 67.924 261.078 68.044 261.078 68.164L267.648 68.146V70H258.774V69.064C258.774 68.392 258.864 67.798 259.044 67.282C259.236 66.754 259.566 66.274 260.034 65.842C260.514 65.398 260.886 65.086 261.15 64.906C261.414 64.714 261.882 64.42 262.554 64.024C262.614 63.976 262.662 63.94 262.698 63.916C262.746 63.892 262.794 63.868 262.842 63.844C263.85 63.256 264.498 62.83 264.786 62.566C265.266 62.098 265.506 61.576 265.506 61C265.506 60.472 265.29 60.07 264.858 59.794C264.438 59.518 263.844 59.38 263.076 59.38C261.744 59.38 260.448 59.836 259.188 60.748V58.768ZM276.689 57.76H278.201V68.146H280.379V70H273.719V68.146H276.167V59.866L273.719 60.784V58.894L276.689 57.76ZM283.031 68.488C282.107 67.312 281.645 65.776 281.645 63.88C281.645 61.984 282.107 60.454 283.031 59.29C283.955 58.114 285.323 57.526 287.135 57.526C288.947 57.526 290.315 58.114 291.239 59.29C292.163 60.454 292.625 61.984 292.625 63.88C292.625 65.776 292.163 67.312 291.239 68.488C290.315 69.652 288.947 70.234 287.135 70.234C285.323 70.234 283.955 69.652 283.031 68.488ZM287.135 68.362C289.415 68.362 290.555 66.868 290.555 63.88C290.555 60.892 289.415 59.398 287.135 59.398C284.855 59.398 283.715 60.892 283.715 63.88C283.715 66.868 284.855 68.362 287.135 68.362ZM295.74 68.488C294.816 67.312 294.354 65.776 294.354 63.88C294.354 61.984 294.816 60.454 295.74 59.29C296.664 58.114 298.032 57.526 299.844 57.526C301.656 57.526 303.024 58.114 303.948 59.29C304.872 60.454 305.334 61.984 305.334 63.88C305.334 65.776 304.872 67.312 303.948 68.488C303.024 69.652 301.656 70.234 299.844 70.234C298.032 70.234 296.664 69.652 295.74 68.488ZM299.844 68.362C302.124 68.362 303.264 66.868 303.264 63.88C303.264 60.892 302.124 59.398 299.844 59.398C297.564 59.398 296.424 60.892 296.424 63.88C296.424 66.868 297.564 68.362 299.844 68.362Z" fill="#0FA7F0"/>
<path d="M393.998 404.528C393.998 403.547 394.169 402.667 394.51 401.888C394.862 401.099 395.321 400.469 395.886 400C396.462 399.531 397.102 399.179 397.806 398.944C398.51 398.699 399.246 398.576 400.014 398.576C401.187 398.576 402.254 398.816 403.214 399.296V401.584C402.457 400.997 401.523 400.704 400.414 400.704C399.326 400.704 398.393 401.029 397.614 401.68C396.846 402.32 396.462 403.269 396.462 404.528C396.462 405.125 396.574 405.659 396.798 406.128C397.022 406.587 397.321 406.955 397.694 407.232C398.078 407.509 398.499 407.723 398.958 407.872C399.427 408.011 399.913 408.08 400.414 408.08C401.651 408.08 402.611 407.771 403.294 407.152V409.504C402.302 409.984 401.219 410.224 400.046 410.224C399.278 410.224 398.542 410.107 397.838 409.872C397.134 409.637 396.489 409.296 395.902 408.848C395.326 408.4 394.862 407.803 394.51 407.056C394.169 406.309 393.998 405.467 393.998 404.528ZM407.059 410H404.835V402.32H407.059V405.184H407.987L409.939 402.32H412.435L409.795 406.112L412.659 410H410.163L407.955 406.96H407.059V410ZM415.536 410H413.6V402.32H415.824V406.64L419.248 402.32H421.168V410H418.96V405.68L415.536 410ZM424.493 412.032H422.445V408.304H423.517C424.317 406.917 424.691 404.923 424.637 402.32H430.957V408.304H432.109V412.032H430.061V410H424.493V412.032ZM426.685 404.016C426.621 405.765 426.333 407.195 425.821 408.304H428.749V404.016H426.685ZM435.715 410H433.491V402.32H435.715V405.184H436.643L438.595 402.32H441.091L438.451 406.112L441.315 410H438.819L436.611 406.96H435.715V410ZM449.027 408.016C449.027 408.357 449.208 408.528 449.571 408.528C449.72 408.528 449.859 408.507 449.987 408.464V409.92C449.581 410.069 449.171 410.144 448.755 410.144C447.944 410.144 447.379 409.856 447.059 409.28C446.259 409.909 445.336 410.224 444.291 410.224C443.533 410.224 442.893 410.016 442.371 409.6C441.859 409.173 441.603 408.597 441.603 407.872C441.603 407.264 441.784 406.757 442.147 406.352C442.509 405.947 442.931 405.675 443.411 405.536C443.891 405.387 444.413 405.312 444.979 405.312C445.608 405.312 446.216 405.381 446.803 405.52V405.248C446.803 404.853 446.648 404.539 446.339 404.304C446.029 404.069 445.581 403.952 444.995 403.952C444.141 403.952 443.235 404.144 442.275 404.528V402.608C443.299 402.267 444.291 402.096 445.251 402.096C447.768 402.096 449.027 403.253 449.027 405.568V408.016ZM445.491 406.64C445.032 406.64 444.648 406.725 444.339 406.896C444.029 407.067 443.875 407.333 443.875 407.696C443.875 407.973 443.987 408.203 444.211 408.384C444.445 408.555 444.733 408.64 445.075 408.64C445.747 408.64 446.323 408.432 446.803 408.016V406.816C446.312 406.699 445.875 406.64 445.491 406.64ZM454.181 399.104H462.549V400.832L458.085 410H455.493L459.797 401.168H454.181V399.104ZM467.772 410.96H466.172L472.716 397.84H474.316L467.772 410.96ZM468.268 399.312C468.822 399.792 469.1 400.464 469.1 401.328C469.1 402.192 468.822 402.869 468.268 403.36C467.713 403.84 467.03 404.08 466.22 404.08C465.398 404.08 464.705 403.84 464.14 403.36C463.585 402.869 463.308 402.192 463.308 401.328C463.308 400.464 463.585 399.792 464.14 399.312C464.705 398.821 465.398 398.576 466.22 398.576C467.03 398.576 467.713 398.821 468.268 399.312ZM465.372 400.544C465.19 400.757 465.1 401.019 465.1 401.328C465.1 401.637 465.19 401.899 465.372 402.112C465.564 402.325 465.846 402.432 466.22 402.432C466.572 402.432 466.838 402.325 467.02 402.112C467.212 401.899 467.308 401.637 467.308 401.328C467.308 401.019 467.212 400.757 467.02 400.544C466.838 400.331 466.572 400.224 466.22 400.224C465.846 400.224 465.564 400.331 465.372 400.544ZM476.284 405.456C476.838 405.936 477.116 406.608 477.116 407.472C477.116 408.336 476.838 409.013 476.284 409.504C475.729 409.984 475.046 410.224 474.236 410.224C473.414 410.224 472.721 409.984 472.156 409.504C471.601 409.013 471.324 408.336 471.324 407.472C471.324 406.608 471.601 405.936 472.156 405.456C472.721 404.965 473.414 404.72 474.236 404.72C475.046 404.72 475.729 404.965 476.284 405.456ZM473.388 406.688C473.206 406.901 473.116 407.163 473.116 407.472C473.116 407.781 473.206 408.043 473.388 408.256C473.58 408.469 473.862 408.576 474.236 408.576C474.588 408.576 474.854 408.469 475.036 408.256C475.228 408.043 475.324 407.781 475.324 407.472C475.324 407.163 475.228 406.901 475.036 406.688C474.854 406.475 474.588 406.368 474.236 406.368C473.862 406.368 473.58 406.475 473.388 406.688Z" fill="#37376D"/>
<path d="M110.906 317.76H112.418V328.146H114.596V330H107.936V328.146H110.384V319.866L107.936 320.784V318.894L110.906 317.76ZM122.186 323.232C123.302 322.56 124.49 322.224 125.75 322.224C126.89 322.224 127.88 322.572 128.72 323.268C129.56 323.952 129.98 324.906 129.98 326.13C129.98 327.426 129.548 328.434 128.684 329.154C127.82 329.874 126.746 330.234 125.462 330.234C123.638 330.234 122.288 329.694 121.412 328.614C120.548 327.534 120.116 325.992 120.116 323.988C120.116 321.84 120.644 320.226 121.7 319.146C122.756 318.066 124.118 317.526 125.786 317.526C126.914 317.526 127.97 317.766 128.954 318.246V320.118C128.03 319.602 127.04 319.344 125.984 319.344C124.952 319.344 124.088 319.65 123.392 320.262C122.708 320.874 122.306 321.864 122.186 323.232ZM122.204 325.05C122.42 327.33 123.452 328.47 125.3 328.47C126.068 328.47 126.692 328.29 127.172 327.93C127.664 327.558 127.91 326.988 127.91 326.22C127.91 325.44 127.652 324.882 127.136 324.546C126.632 324.198 125.978 324.024 125.174 324.024C124.058 324.024 123.068 324.366 122.204 325.05ZM132.263 317.76H139.805V319.596H134.153L133.973 322.548C134.561 322.404 135.179 322.332 135.827 322.332C137.135 322.332 138.221 322.65 139.085 323.286C139.949 323.91 140.381 324.894 140.381 326.238C140.381 327.51 139.907 328.494 138.959 329.19C138.023 329.886 136.847 330.234 135.431 330.234C133.955 330.234 132.647 329.958 131.507 329.406V327.48C132.539 328.08 133.769 328.38 135.197 328.38C136.133 328.38 136.883 328.194 137.447 327.822C138.023 327.45 138.311 326.916 138.311 326.22C138.311 324.756 137.201 324.024 134.981 324.024C133.949 324.024 132.911 324.204 131.867 324.564L132.263 317.76ZM143.369 328.488C142.445 327.312 141.983 325.776 141.983 323.88C141.983 321.984 142.445 320.454 143.369 319.29C144.293 318.114 145.661 317.526 147.473 317.526C149.285 317.526 150.653 318.114 151.577 319.29C152.501 320.454 152.963 321.984 152.963 323.88C152.963 325.776 152.501 327.312 151.577 328.488C150.653 329.652 149.285 330.234 147.473 330.234C145.661 330.234 144.293 329.652 143.369 328.488ZM147.473 328.362C149.753 328.362 150.893 326.868 150.893 323.88C150.893 320.892 149.753 319.398 147.473 319.398C145.193 319.398 144.053 320.892 144.053 323.88C144.053 326.868 145.193 328.362 147.473 328.362Z" fill="#0FA7F0"/>
<path d="M221.239 121.256C222.274 120.563 223.41 120.216 224.647 120.216C225.639 120.216 226.508 120.52 227.255 121.128C228.002 121.725 228.375 122.557 228.375 123.624C228.375 124.744 228.002 125.619 227.255 126.248C226.519 126.877 225.591 127.192 224.471 127.192C222.935 127.192 221.783 126.717 221.015 125.768C220.258 124.808 219.879 123.464 219.879 121.736C219.879 119.816 220.332 118.371 221.239 117.4C222.156 116.419 223.351 115.928 224.823 115.928C225.772 115.928 226.652 116.136 227.463 116.552V117.832C226.674 117.416 225.804 117.208 224.855 117.208C223.852 117.208 223.015 117.533 222.343 118.184C221.682 118.824 221.314 119.848 221.239 121.256ZM221.255 122.6C221.458 124.829 222.498 125.944 224.375 125.944C225.164 125.944 225.799 125.763 226.279 125.4C226.77 125.037 227.015 124.467 227.015 123.688C227.015 122.899 226.764 122.333 226.263 121.992C225.762 121.64 225.111 121.464 224.311 121.464C223.127 121.464 222.108 121.843 221.255 122.6ZM235.369 127H234.153V119.32H235.545L238.345 123.576L241.145 119.32H242.537V127H241.321V121.208L238.825 125H237.865L235.369 121.208V127ZM244.375 123.16C244.375 121.901 244.759 120.915 245.527 120.2C246.305 119.485 247.196 119.128 248.199 119.128C249.137 119.128 249.911 119.363 250.519 119.832C251.137 120.301 251.543 120.883 251.735 121.576C251.927 122.259 251.937 122.973 251.767 123.72H245.655C245.729 124.477 246.065 125.048 246.663 125.432C247.26 125.816 247.98 126.008 248.823 126.008C249.761 126.008 250.604 125.8 251.351 125.384V126.632C250.636 127.005 249.729 127.192 248.631 127.192C247.415 127.192 246.401 126.845 245.591 126.152C244.78 125.459 244.375 124.461 244.375 123.16ZM250.631 122.6C250.663 122.376 250.647 122.141 250.583 121.896C250.519 121.651 250.401 121.405 250.231 121.16C250.071 120.915 249.82 120.712 249.479 120.552C249.137 120.392 248.737 120.312 248.279 120.312C247.585 120.312 246.983 120.515 246.471 120.92C245.969 121.325 245.697 121.885 245.655 122.6H250.631ZM253.109 123.192C253.109 122.52 253.232 121.917 253.477 121.384C253.722 120.851 254.042 120.424 254.437 120.104C254.842 119.784 255.285 119.544 255.765 119.384C256.256 119.213 256.757 119.128 257.269 119.128C258.218 119.128 259.008 119.336 259.637 119.752V121C259.05 120.541 258.314 120.312 257.429 120.312C256.597 120.312 255.882 120.552 255.285 121.032C254.688 121.512 254.389 122.221 254.389 123.16C254.389 124.088 254.682 124.797 255.269 125.288C255.866 125.768 256.576 126.008 257.397 126.008C258.25 126.008 259.024 125.8 259.717 125.384V126.664C258.992 127.016 258.16 127.192 257.221 127.192C256.112 127.192 255.146 126.845 254.325 126.152C253.514 125.459 253.109 124.472 253.109 123.192ZM262.726 125.736C262.886 125.875 262.966 126.072 262.966 126.328C262.966 126.584 262.886 126.787 262.726 126.936C262.566 127.075 262.369 127.144 262.134 127.144C261.9 127.144 261.697 127.075 261.526 126.936C261.366 126.787 261.286 126.584 261.286 126.328C261.286 126.072 261.366 125.875 261.526 125.736C261.697 125.597 261.9 125.528 262.134 125.528C262.369 125.528 262.566 125.597 262.726 125.736ZM270.164 120.6C271.028 119.619 272.063 119.128 273.268 119.128C274.367 119.128 275.279 119.512 276.004 120.28C276.74 121.048 277.108 122.008 277.108 123.16C277.108 124.312 276.74 125.272 276.004 126.04C275.279 126.808 274.367 127.192 273.268 127.192C272.052 127.192 271.06 126.744 270.292 125.848V130.52H269.012V119.32H270.164V120.6ZM275.044 125.224C275.567 124.701 275.828 124.013 275.828 123.16C275.828 122.307 275.567 121.619 275.044 121.096C274.532 120.573 273.892 120.312 273.124 120.312C272.473 120.312 271.897 120.493 271.396 120.856C270.895 121.219 270.527 121.667 270.292 122.2V124.12C270.527 124.653 270.895 125.101 271.396 125.464C271.897 125.827 272.473 126.008 273.124 126.008C273.892 126.008 274.532 125.747 275.044 125.224ZM285.19 125.4C285.19 125.795 285.387 125.992 285.782 125.992C285.952 125.992 286.15 125.955 286.374 125.88V126.92C286.054 127.037 285.734 127.096 285.414 127.096C284.678 127.096 284.208 126.787 284.006 126.168C283.184 126.851 282.187 127.192 281.014 127.192C280.267 127.192 279.627 126.995 279.094 126.6C278.571 126.195 278.31 125.613 278.31 124.856C278.31 123.949 278.646 123.293 279.318 122.888C280 122.472 280.822 122.264 281.782 122.264C282.486 122.264 283.195 122.344 283.91 122.504V122.232C283.91 121.645 283.718 121.181 283.334 120.84C282.95 120.488 282.411 120.312 281.718 120.312C280.747 120.312 279.814 120.504 278.918 120.888V119.64C279.92 119.299 280.896 119.128 281.846 119.128C282.891 119.128 283.707 119.411 284.294 119.976C284.891 120.531 285.19 121.336 285.19 122.392V125.4ZM279.622 124.792C279.622 125.219 279.782 125.544 280.102 125.768C280.432 125.981 280.827 126.088 281.286 126.088C282.342 126.088 283.216 125.715 283.91 124.968V123.56C283.184 123.411 282.534 123.336 281.958 123.336C281.307 123.336 280.752 123.453 280.294 123.688C279.846 123.912 279.622 124.28 279.622 124.792ZM287.219 123.192C287.219 122.52 287.341 121.917 287.587 121.384C287.832 120.851 288.152 120.424 288.547 120.104C288.952 119.784 289.395 119.544 289.875 119.384C290.365 119.213 290.867 119.128 291.379 119.128C292.328 119.128 293.117 119.336 293.747 119.752V121C293.16 120.541 292.424 120.312 291.539 120.312C290.707 120.312 289.992 120.552 289.395 121.032C288.797 121.512 288.499 122.221 288.499 123.16C288.499 124.088 288.792 124.797 289.379 125.288C289.976 125.768 290.685 126.008 291.507 126.008C292.36 126.008 293.133 125.8 293.827 125.384V126.664C293.101 127.016 292.269 127.192 291.331 127.192C290.221 127.192 289.256 126.845 288.435 126.152C287.624 125.459 287.219 124.472 287.219 123.192ZM295.031 123.192C295.031 122.52 295.154 121.917 295.399 121.384C295.644 120.851 295.964 120.424 296.359 120.104C296.764 119.784 297.207 119.544 297.687 119.384C298.178 119.213 298.679 119.128 299.191 119.128C300.14 119.128 300.93 119.336 301.559 119.752V121C300.972 120.541 300.236 120.312 299.351 120.312C298.519 120.312 297.804 120.552 297.207 121.032C296.61 121.512 296.311 122.221 296.311 123.16C296.311 124.088 296.604 124.797 297.191 125.288C297.788 125.768 298.498 126.008 299.319 126.008C300.172 126.008 300.946 125.8 301.639 125.384V126.664C300.914 127.016 300.082 127.192 299.143 127.192C298.034 127.192 297.068 126.845 296.247 126.152C295.436 125.459 295.031 124.472 295.031 123.192ZM304.664 120.6C305.528 119.619 306.563 119.128 307.768 119.128C308.867 119.128 309.779 119.512 310.504 120.28C311.24 121.048 311.608 122.008 311.608 123.16C311.608 124.312 311.24 125.272 310.504 126.04C309.779 126.808 308.867 127.192 307.768 127.192C306.552 127.192 305.56 126.744 304.792 125.848V130.52H303.512V119.32H304.664V120.6ZM309.544 125.224C310.067 124.701 310.328 124.013 310.328 123.16C310.328 122.307 310.067 121.619 309.544 121.096C309.032 120.573 308.392 120.312 307.624 120.312C306.973 120.312 306.397 120.493 305.896 120.856C305.395 121.219 305.027 121.667 304.792 122.2V124.12C305.027 124.653 305.395 125.101 305.896 125.464C306.397 125.827 306.973 126.008 307.624 126.008C308.392 126.008 309.032 125.747 309.544 125.224ZM314.138 126.12C313.327 125.395 312.922 124.408 312.922 123.16C312.922 121.912 313.327 120.931 314.138 120.216C314.948 119.491 315.908 119.128 317.018 119.128C318.138 119.128 319.098 119.491 319.898 120.216C320.708 120.931 321.114 121.912 321.114 123.16C321.114 124.408 320.708 125.395 319.898 126.12C319.098 126.835 318.138 127.192 317.018 127.192C315.908 127.192 314.948 126.835 314.138 126.12ZM319.034 125.224C319.567 124.712 319.834 124.024 319.834 123.16C319.834 122.296 319.567 121.613 319.034 121.112C318.5 120.6 317.828 120.344 317.018 120.344C316.207 120.344 315.535 120.6 315.002 121.112C314.468 121.613 314.202 122.296 314.202 123.16C314.202 124.024 314.468 124.712 315.002 125.224C315.535 125.725 316.207 125.976 317.018 125.976C317.828 125.976 318.5 125.725 319.034 125.224ZM328.95 127H327.67V124.328C326.976 124.595 326.214 124.728 325.382 124.728C324.464 124.728 323.739 124.499 323.206 124.04C322.683 123.581 322.422 122.893 322.422 121.976V119.32H323.702V121.88C323.702 122.499 323.872 122.931 324.214 123.176C324.566 123.421 325.083 123.544 325.766 123.544C326.48 123.544 327.115 123.432 327.67 123.208V119.32H328.95V127ZM332.605 127H331.325V119.32H332.605V122.52H334.157L336.589 119.32H338.077L335.165 123.144L338.429 127H336.925L334.109 123.704H332.605V127ZM340.788 127H339.7V119.32H340.98V124.936L345.684 119.32H346.772V127H345.492V121.384L340.788 127Z" fill="#37376D"/>
<path d="M75.4803 378.888C75.4803 379.443 75.331 379.944 75.0323 380.392C74.7443 380.829 74.3656 381.128 73.8963 381.288C74.451 381.459 74.9256 381.773 75.3203 382.232C75.7256 382.68 75.9283 383.283 75.9283 384.04C75.9283 385.053 75.5496 385.832 74.7923 386.376C74.0456 386.92 73.0963 387.192 71.9443 387.192C70.483 387.192 69.219 386.952 68.1523 386.472V385.144C69.187 385.677 70.4136 385.939 71.8323 385.928C73.699 385.928 74.6323 385.277 74.6323 383.976C74.6323 382.675 73.747 382.024 71.9763 382.024H70.3123V380.744L71.8323 380.76C72.6003 380.76 73.1816 380.6 73.5763 380.28C73.9816 379.949 74.1843 379.523 74.1843 379C74.1843 378.435 73.9603 377.992 73.5123 377.672C73.0643 377.341 72.4296 377.176 71.6083 377.176C70.4776 377.176 69.3896 377.453 68.3443 378.008V376.696C69.347 376.184 70.4936 375.928 71.7843 375.928C72.8936 375.928 73.7843 376.2 74.4563 376.744C75.139 377.288 75.4803 378.003 75.4803 378.888ZM83.0953 387H81.8793V379.32H83.2713L86.0713 383.576L88.8713 379.32H90.2633V387H89.0473V381.208L86.5513 385H85.5913L83.0953 381.208V387ZM92.1013 383.16C92.1013 381.901 92.4853 380.915 93.2533 380.2C94.032 379.485 94.9226 379.128 95.9253 379.128C96.864 379.128 97.6373 379.363 98.2453 379.832C98.864 380.301 99.2693 380.883 99.4613 381.576C99.6533 382.259 99.664 382.973 99.4933 383.72H93.3813C93.456 384.477 93.792 385.048 94.3893 385.432C94.9866 385.816 95.7066 386.008 96.5493 386.008C97.488 386.008 98.3306 385.8 99.0773 385.384V386.632C98.3626 387.005 97.456 387.192 96.3573 387.192C95.1413 387.192 94.128 386.845 93.3173 386.152C92.5066 385.459 92.1013 384.461 92.1013 383.16ZM98.3573 382.6C98.3893 382.376 98.3733 382.141 98.3093 381.896C98.2453 381.651 98.128 381.405 97.9573 381.16C97.7973 380.915 97.5466 380.712 97.2053 380.552C96.864 380.392 96.464 380.312 96.0053 380.312C95.312 380.312 94.7093 380.515 94.1973 380.92C93.696 381.325 93.424 381.885 93.3813 382.6H98.3573ZM100.836 383.192C100.836 382.52 100.958 381.917 101.204 381.384C101.449 380.851 101.769 380.424 102.164 380.104C102.569 379.784 103.012 379.544 103.492 379.384C103.982 379.213 104.484 379.128 104.996 379.128C105.945 379.128 106.734 379.336 107.364 379.752V381C106.777 380.541 106.041 380.312 105.156 380.312C104.324 380.312 103.609 380.552 103.012 381.032C102.414 381.512 102.116 382.221 102.116 383.16C102.116 384.088 102.409 384.797 102.996 385.288C103.593 385.768 104.302 386.008 105.124 386.008C105.977 386.008 106.75 385.8 107.444 385.384V386.664C106.718 387.016 105.886 387.192 104.948 387.192C103.838 387.192 102.873 386.845 102.052 386.152C101.241 385.459 100.836 384.472 100.836 383.192ZM110.453 385.736C110.613 385.875 110.693 386.072 110.693 386.328C110.693 386.584 110.613 386.787 110.453 386.936C110.293 387.075 110.095 387.144 109.861 387.144C109.626 387.144 109.423 387.075 109.253 386.936C109.093 386.787 109.013 386.584 109.013 386.328C109.013 386.072 109.093 385.875 109.253 385.736C109.423 385.597 109.626 385.528 109.861 385.528C110.095 385.528 110.293 385.597 110.453 385.736ZM117.891 380.6C118.755 379.619 119.789 379.128 120.995 379.128C122.093 379.128 123.005 379.512 123.731 380.28C124.467 381.048 124.835 382.008 124.835 383.16C124.835 384.312 124.467 385.272 123.731 386.04C123.005 386.808 122.093 387.192 120.995 387.192C119.779 387.192 118.787 386.744 118.019 385.848V390.52H116.739V379.32H117.891V380.6ZM122.771 385.224C123.293 384.701 123.555 384.013 123.555 383.16C123.555 382.307 123.293 381.619 122.771 381.096C122.259 380.573 121.619 380.312 120.851 380.312C120.2 380.312 119.624 380.493 119.123 380.856C118.621 381.219 118.253 381.667 118.019 382.2V384.12C118.253 384.653 118.621 385.101 119.123 385.464C119.624 385.827 120.2 386.008 120.851 386.008C121.619 386.008 122.259 385.747 122.771 385.224ZM132.916 385.4C132.916 385.795 133.114 385.992 133.508 385.992C133.679 385.992 133.876 385.955 134.1 385.88V386.92C133.78 387.037 133.46 387.096 133.14 387.096C132.404 387.096 131.935 386.787 131.732 386.168C130.911 386.851 129.914 387.192 128.74 387.192C127.994 387.192 127.354 386.995 126.82 386.6C126.298 386.195 126.036 385.613 126.036 384.856C126.036 383.949 126.372 383.293 127.044 382.888C127.727 382.472 128.548 382.264 129.508 382.264C130.212 382.264 130.922 382.344 131.636 382.504V382.232C131.636 381.645 131.444 381.181 131.06 380.84C130.676 380.488 130.138 380.312 129.444 380.312C128.474 380.312 127.54 380.504 126.644 380.888V379.64C127.647 379.299 128.623 379.128 129.572 379.128C130.618 379.128 131.434 379.411 132.02 379.976C132.618 380.531 132.916 381.336 132.916 382.392V385.4ZM127.348 384.792C127.348 385.219 127.508 385.544 127.828 385.768C128.159 385.981 128.554 386.088 129.012 386.088C130.068 386.088 130.943 385.715 131.636 384.968V383.56C130.911 383.411 130.26 383.336 129.684 383.336C129.034 383.336 128.479 383.453 128.02 383.688C127.572 383.912 127.348 384.28 127.348 384.792ZM134.945 383.192C134.945 382.52 135.068 381.917 135.313 381.384C135.558 380.851 135.878 380.424 136.273 380.104C136.678 379.784 137.121 379.544 137.601 379.384C138.092 379.213 138.593 379.128 139.105 379.128C140.054 379.128 140.844 379.336 141.473 379.752V381C140.886 380.541 140.15 380.312 139.265 380.312C138.433 380.312 137.718 380.552 137.121 381.032C136.524 381.512 136.225 382.221 136.225 383.16C136.225 384.088 136.518 384.797 137.105 385.288C137.702 385.768 138.412 386.008 139.233 386.008C140.086 386.008 140.86 385.8 141.553 385.384V386.664C140.828 387.016 139.996 387.192 139.057 387.192C137.948 387.192 136.982 386.845 136.161 386.152C135.35 385.459 134.945 384.472 134.945 383.192ZM142.758 383.192C142.758 382.52 142.88 381.917 143.126 381.384C143.371 380.851 143.691 380.424 144.086 380.104C144.491 379.784 144.934 379.544 145.414 379.384C145.904 379.213 146.406 379.128 146.918 379.128C147.867 379.128 148.656 379.336 149.286 379.752V381C148.699 380.541 147.963 380.312 147.078 380.312C146.246 380.312 145.531 380.552 144.934 381.032C144.336 381.512 144.038 382.221 144.038 383.16C144.038 384.088 144.331 384.797 144.918 385.288C145.515 385.768 146.224 386.008 147.046 386.008C147.899 386.008 148.672 385.8 149.366 385.384V386.664C148.64 387.016 147.808 387.192 146.87 387.192C145.76 387.192 144.795 386.845 143.974 386.152C143.163 385.459 142.758 384.472 142.758 383.192ZM152.391 380.6C153.255 379.619 154.289 379.128 155.495 379.128C156.593 379.128 157.505 379.512 158.231 380.28C158.967 381.048 159.335 382.008 159.335 383.16C159.335 384.312 158.967 385.272 158.231 386.04C157.505 386.808 156.593 387.192 155.495 387.192C154.279 387.192 153.287 386.744 152.519 385.848V390.52H151.239V379.32H152.391V380.6ZM157.271 385.224C157.793 384.701 158.055 384.013 158.055 383.16C158.055 382.307 157.793 381.619 157.271 381.096C156.759 380.573 156.119 380.312 155.351 380.312C154.7 380.312 154.124 380.493 153.623 380.856C153.121 381.219 152.753 381.667 152.519 382.2V384.12C152.753 384.653 153.121 385.101 153.623 385.464C154.124 385.827 154.7 386.008 155.351 386.008C156.119 386.008 156.759 385.747 157.271 385.224ZM161.864 386.12C161.054 385.395 160.648 384.408 160.648 383.16C160.648 381.912 161.054 380.931 161.864 380.216C162.675 379.491 163.635 379.128 164.744 379.128C165.864 379.128 166.824 379.491 167.624 380.216C168.435 380.931 168.84 381.912 168.84 383.16C168.84 384.408 168.435 385.395 167.624 386.12C166.824 386.835 165.864 387.192 164.744 387.192C163.635 387.192 162.675 386.835 161.864 386.12ZM166.76 385.224C167.294 384.712 167.56 384.024 167.56 383.16C167.56 382.296 167.294 381.613 166.76 381.112C166.227 380.6 165.555 380.344 164.744 380.344C163.934 380.344 163.262 380.6 162.728 381.112C162.195 381.613 161.928 382.296 161.928 383.16C161.928 384.024 162.195 384.712 162.728 385.224C163.262 385.725 163.934 385.976 164.744 385.976C165.555 385.976 166.227 385.725 166.76 385.224ZM176.676 387H175.396V384.328C174.703 384.595 173.94 384.728 173.108 384.728C172.191 384.728 171.466 384.499 170.932 384.04C170.41 383.581 170.148 382.893 170.148 381.976V379.32H171.428V381.88C171.428 382.499 171.599 382.931 171.94 383.176C172.292 383.421 172.81 383.544 173.492 383.544C174.207 383.544 174.842 383.432 175.396 383.208V379.32H176.676V387ZM180.331 387H179.051V379.32H180.331V382.52H181.883L184.315 379.32H185.803L182.891 383.144L186.155 387H184.651L181.835 383.704H180.331V387ZM188.514 387H187.426V379.32H188.706V384.936L193.41 379.32H194.498V387H193.218V381.384L188.514 387Z" fill="#37376D"/>
<path d="M241.818 144.528C241.818 143.547 241.989 142.667 242.33 141.888C242.682 141.099 243.141 140.469 243.706 140C244.282 139.531 244.922 139.179 245.626 138.944C246.33 138.699 247.066 138.576 247.834 138.576C249.008 138.576 250.074 138.816 251.034 139.296V141.584C250.277 140.997 249.344 140.704 248.234 140.704C247.146 140.704 246.213 141.029 245.434 141.68C244.666 142.32 244.282 143.269 244.282 144.528C244.282 145.125 244.394 145.659 244.618 146.128C244.842 146.587 245.141 146.955 245.514 147.232C245.898 147.509 246.32 147.723 246.778 147.872C247.248 148.011 247.733 148.08 248.234 148.08C249.472 148.08 250.432 147.771 251.114 147.152V149.504C250.122 149.984 249.04 150.224 247.866 150.224C247.098 150.224 246.362 150.107 245.658 149.872C244.954 149.637 244.309 149.296 243.722 148.848C243.146 148.4 242.682 147.803 242.33 147.056C241.989 146.309 241.818 145.467 241.818 144.528ZM254.879 150H252.655V142.32H254.879V145.184H255.807L257.759 142.32H260.255L257.615 146.112L260.479 150H257.983L255.775 146.96H254.879V150ZM263.357 150H261.421V142.32H263.645V146.64L267.069 142.32H268.989V150H266.781V145.68L263.357 150ZM272.314 152.032H270.266V148.304H271.338C272.138 146.917 272.511 144.923 272.458 142.32H278.778V148.304H279.93V152.032H277.882V150H272.314V152.032ZM274.506 144.016C274.442 145.765 274.154 147.195 273.642 148.304H276.57V144.016H274.506ZM283.535 150H281.311V142.32H283.535V145.184H284.463L286.415 142.32H288.911L286.271 146.112L289.135 150H286.639L284.431 146.96H283.535V150ZM296.847 148.016C296.847 148.357 297.028 148.528 297.391 148.528C297.54 148.528 297.679 148.507 297.807 148.464V149.92C297.402 150.069 296.991 150.144 296.575 150.144C295.764 150.144 295.199 149.856 294.879 149.28C294.079 149.909 293.156 150.224 292.111 150.224C291.354 150.224 290.714 150.016 290.191 149.6C289.679 149.173 289.423 148.597 289.423 147.872C289.423 147.264 289.604 146.757 289.967 146.352C290.33 145.947 290.751 145.675 291.231 145.536C291.711 145.387 292.234 145.312 292.799 145.312C293.428 145.312 294.036 145.381 294.623 145.52V145.248C294.623 144.853 294.468 144.539 294.159 144.304C293.85 144.069 293.402 143.952 292.815 143.952C291.962 143.952 291.055 144.144 290.095 144.528V142.608C291.119 142.267 292.111 142.096 293.071 142.096C295.588 142.096 296.847 143.253 296.847 145.568V148.016ZM293.311 146.64C292.852 146.64 292.468 146.725 292.159 146.896C291.85 147.067 291.695 147.333 291.695 147.696C291.695 147.973 291.807 148.203 292.031 148.384C292.266 148.555 292.554 148.64 292.895 148.64C293.567 148.64 294.143 148.432 294.623 148.016V146.816C294.132 146.699 293.695 146.64 293.311 146.64ZM303.026 139.104H309.938V141.168L305.186 141.152L305.042 143.28C305.554 143.173 306.023 143.12 306.45 143.12C307.623 143.12 308.578 143.403 309.314 143.968C310.06 144.533 310.434 145.408 310.434 146.592C310.434 147.787 309.991 148.693 309.106 149.312C308.22 149.92 307.127 150.224 305.826 150.224C304.503 150.224 303.335 149.979 302.322 149.488V147.264C303.228 147.84 304.306 148.128 305.554 148.128C306.3 148.128 306.898 147.995 307.346 147.728C307.804 147.461 308.034 147.072 308.034 146.56C308.034 145.493 307.148 144.96 305.378 144.96C304.418 144.96 303.506 145.115 302.642 145.424L303.026 139.104ZM315.951 150.96H314.351L320.895 137.84H322.495L315.951 150.96ZM316.447 139.312C317.002 139.792 317.279 140.464 317.279 141.328C317.279 142.192 317.002 142.869 316.447 143.36C315.893 143.84 315.21 144.08 314.399 144.08C313.578 144.08 312.885 143.84 312.319 143.36C311.765 142.869 311.487 142.192 311.487 141.328C311.487 140.464 311.765 139.792 312.319 139.312C312.885 138.821 313.578 138.576 314.399 138.576C315.21 138.576 315.893 138.821 316.447 139.312ZM313.551 140.544C313.37 140.757 313.279 141.019 313.279 141.328C313.279 141.637 313.37 141.899 313.551 142.112C313.743 142.325 314.026 142.432 314.399 142.432C314.751 142.432 315.018 142.325 315.199 142.112C315.391 141.899 315.487 141.637 315.487 141.328C315.487 141.019 315.391 140.757 315.199 140.544C315.018 140.331 314.751 140.224 314.399 140.224C314.026 140.224 313.743 140.331 313.551 140.544ZM324.463 145.456C325.018 145.936 325.295 146.608 325.295 147.472C325.295 148.336 325.018 149.013 324.463 149.504C323.909 149.984 323.226 150.224 322.415 150.224C321.594 150.224 320.901 149.984 320.335 149.504C319.781 149.013 319.503 148.336 319.503 147.472C319.503 146.608 319.781 145.936 320.335 145.456C320.901 144.965 321.594 144.72 322.415 144.72C323.226 144.72 323.909 144.965 324.463 145.456ZM321.567 146.688C321.386 146.901 321.295 147.163 321.295 147.472C321.295 147.781 321.386 148.043 321.567 148.256C321.759 148.469 322.042 148.576 322.415 148.576C322.767 148.576 323.034 148.469 323.215 148.256C323.407 148.043 323.503 147.781 323.503 147.472C323.503 147.163 323.407 146.901 323.215 146.688C323.034 146.475 322.767 146.368 322.415 146.368C322.042 146.368 321.759 146.475 321.567 146.688Z" fill="#37376D"/>
<path d="M84.6932 404.528C84.6932 403.547 84.8639 402.667 85.2052 401.888C85.5572 401.099 86.0159 400.469 86.5812 400C87.1572 399.531 87.7972 399.179 88.5012 398.944C89.2052 398.699 89.9412 398.576 90.7092 398.576C91.8825 398.576 92.9492 398.816 93.9092 399.296V401.584C93.1519 400.997 92.2185 400.704 91.1092 400.704C90.0212 400.704 89.0879 401.029 88.3092 401.68C87.5412 402.32 87.1572 403.269 87.1572 404.528C87.1572 405.125 87.2692 405.659 87.4932 406.128C87.7172 406.587 88.0159 406.955 88.3892 407.232C88.7732 407.509 89.1945 407.723 89.6532 407.872C90.1225 408.011 90.6079 408.08 91.1092 408.08C92.3465 408.08 93.3065 407.771 93.9892 407.152V409.504C92.9972 409.984 91.9145 410.224 90.7412 410.224C89.9732 410.224 89.2372 410.107 88.5332 409.872C87.8292 409.637 87.1839 409.296 86.5972 408.848C86.0212 408.4 85.5572 407.803 85.2052 407.056C84.8639 406.309 84.6932 405.467 84.6932 404.528ZM97.7539 410H95.5299V402.32H97.7539V405.184H98.6819L100.634 402.32H103.13L100.49 406.112L103.354 410H100.858L98.6499 406.96H97.7539V410ZM106.232 410H104.296V402.32H106.52V406.64L109.944 402.32H111.864V410H109.656V405.68L106.232 410ZM115.189 412.032H113.141V408.304H114.213C115.013 406.917 115.386 404.923 115.333 402.32H121.653V408.304H122.805V412.032H120.757V410H115.189V412.032ZM117.381 404.016C117.317 405.765 117.029 407.195 116.517 408.304H119.445V404.016H117.381ZM126.41 410H124.186V402.32H126.41V405.184H127.338L129.29 402.32H131.786L129.146 406.112L132.01 410H129.514L127.306 406.96H126.41V410ZM139.722 408.016C139.722 408.357 139.903 408.528 140.266 408.528C140.415 408.528 140.554 408.507 140.682 408.464V409.92C140.277 410.069 139.866 410.144 139.45 410.144C138.639 410.144 138.074 409.856 137.754 409.28C136.954 409.909 136.031 410.224 134.986 410.224C134.229 410.224 133.589 410.016 133.066 409.6C132.554 409.173 132.298 408.597 132.298 407.872C132.298 407.264 132.479 406.757 132.842 406.352C133.205 405.947 133.626 405.675 134.106 405.536C134.586 405.387 135.109 405.312 135.674 405.312C136.303 405.312 136.911 405.381 137.498 405.52V405.248C137.498 404.853 137.343 404.539 137.034 404.304C136.725 404.069 136.277 403.952 135.69 403.952C134.837 403.952 133.93 404.144 132.97 404.528V402.608C133.994 402.267 134.986 402.096 135.946 402.096C138.463 402.096 139.722 403.253 139.722 405.568V408.016ZM136.186 406.64C135.727 406.64 135.343 406.725 135.034 406.896C134.725 407.067 134.57 407.333 134.57 407.696C134.57 407.973 134.682 408.203 134.906 408.384C135.141 408.555 135.429 408.64 135.77 408.64C136.442 408.64 137.018 408.432 137.498 408.016V406.816C137.007 406.699 136.57 406.64 136.186 406.64ZM147.933 399.12H149.677V407.936H151.501V410H145.293V407.936H147.341V401.52L145.293 402.288V400.128L147.933 399.12ZM153.772 408.656C152.95 407.6 152.54 406.235 152.54 404.56C152.54 402.885 152.95 401.525 153.772 400.48C154.604 399.424 155.846 398.896 157.5 398.896C159.153 398.896 160.39 399.424 161.212 400.48C162.044 401.525 162.46 402.885 162.46 404.56C162.46 406.235 162.044 407.6 161.212 408.656C160.39 409.701 159.153 410.224 157.5 410.224C155.846 410.224 154.604 409.701 153.772 408.656ZM157.5 408.112C159.206 408.112 160.06 406.928 160.06 404.56C160.06 402.192 159.206 401.008 157.5 401.008C155.793 401.008 154.94 402.192 154.94 404.56C154.94 406.928 155.793 408.112 157.5 408.112ZM168.076 410.96H166.476L173.02 397.84H174.62L168.076 410.96ZM168.572 399.312C169.127 399.792 169.404 400.464 169.404 401.328C169.404 402.192 169.127 402.869 168.572 403.36C168.018 403.84 167.335 404.08 166.524 404.08C165.703 404.08 165.01 403.84 164.444 403.36C163.89 402.869 163.612 402.192 163.612 401.328C163.612 400.464 163.89 399.792 164.444 399.312C165.01 398.821 165.703 398.576 166.524 398.576C167.335 398.576 168.018 398.821 168.572 399.312ZM165.676 400.544C165.495 400.757 165.404 401.019 165.404 401.328C165.404 401.637 165.495 401.899 165.676 402.112C165.868 402.325 166.151 402.432 166.524 402.432C166.876 402.432 167.143 402.325 167.324 402.112C167.516 401.899 167.612 401.637 167.612 401.328C167.612 401.019 167.516 400.757 167.324 400.544C167.143 400.331 166.876 400.224 166.524 400.224C166.151 400.224 165.868 400.331 165.676 400.544ZM176.588 405.456C177.143 405.936 177.42 406.608 177.42 407.472C177.42 408.336 177.143 409.013 176.588 409.504C176.034 409.984 175.351 410.224 174.54 410.224C173.719 410.224 173.026 409.984 172.46 409.504C171.906 409.013 171.628 408.336 171.628 407.472C171.628 406.608 171.906 405.936 172.46 405.456C173.026 404.965 173.719 404.72 174.54 404.72C175.351 404.72 176.034 404.965 176.588 405.456ZM173.692 406.688C173.511 406.901 173.42 407.163 173.42 407.472C173.42 407.781 173.511 408.043 173.692 408.256C173.884 408.469 174.167 408.576 174.54 408.576C174.892 408.576 175.159 408.469 175.34 408.256C175.532 408.043 175.628 407.781 175.628 407.472C175.628 407.163 175.532 406.901 175.34 406.688C175.159 406.475 174.892 406.368 174.54 406.368C174.167 406.368 173.884 406.475 173.692 406.688Z" fill="#37376D"/>
<path d="M435 254V219C435 216.239 432.761 214 430 214H136C133.239 214 131 216.239 131 219V254" stroke="#DDDDE6"/>
<path d="M397 343L399.821 347.117L404.608 348.528L401.565 352.483L401.702 357.472L397 355.8L392.298 357.472L392.435 352.483L389.392 348.528L394.179 347.117L397 343Z" fill="#F28100"/>
<path d="M416 343L418.821 347.117L423.608 348.528L420.565 352.483L420.702 357.472L416 355.8L411.298 357.472L411.435 352.483L408.392 348.528L413.179 347.117L416 343Z" fill="#F28100"/>
<path d="M435 343L437.821 347.117L442.608 348.528L439.565 352.483L439.702 357.472L435 355.8L430.298 357.472L430.435 352.483L427.392 348.528L432.179 347.117L435 343Z" fill="#F28100"/>
<path d="M454 343L456.821 347.117L461.608 348.528L458.565 352.483L458.702 357.472L454 355.8L449.298 357.472L449.435 352.483L446.392 348.528L451.179 347.117L454 343Z" fill="#F28100"/>
<path d="M473 343L475.821 347.117L480.608 348.528L477.565 352.483L477.702 357.472L473 355.8L468.298 357.472L468.435 352.483L465.392 348.528L470.179 347.117L473 343Z" fill="#F28100"/>
<line x1="283.5" y1="174" x2="283.5" y2="214" stroke="#DDDDE6"/>
<circle cx="131" cy="260" r="5.5" fill="white" stroke="#DDDDE6"/>
<circle cx="435" cy="260" r="5.5" fill="white" stroke="#DDDDE6"/>
<path d="M245 83L247.821 87.1167L252.608 88.5279L249.565 92.4833L249.702 97.4721L245 95.8L240.298 97.4721L240.435 92.4833L237.392 88.5279L242.179 87.1167L245 83Z" fill="#F28100"/>
<path d="M264 83L266.821 87.1167L271.608 88.5279L268.565 92.4833L268.702 97.4721L264 95.8L259.298 97.4721L259.435 92.4833L256.392 88.5279L261.179 87.1167L264 83Z" fill="#F28100"/>
<path d="M283 83L285.821 87.1167L290.608 88.5279L287.565 92.4833L287.702 97.4721L283 95.8L278.298 97.4721L278.435 92.4833L275.392 88.5279L280.179 87.1167L283 83Z" fill="#F28100"/>
<path d="M302 83L304.821 87.1167L309.608 88.5279L306.565 92.4833L306.702 97.4721L302 95.8L297.298 97.4721L297.435 92.4833L294.392 88.5279L299.179 87.1167L302 83Z" fill="#F28100"/>
<path d="M321 83L323.821 87.1167L328.608 88.5279L325.565 92.4833L325.702 97.4721L321 95.8L316.298 97.4721L316.435 92.4833L313.392 88.5279L318.179 87.1167L321 83Z" fill="#D5D5E4"/>
<path d="M93 343L95.8214 347.117L100.608 348.528L97.5651 352.483L97.7023 357.472L93 355.8L88.2977 357.472L88.4349 352.483L85.3915 348.528L90.1786 347.117L93 343Z" fill="#F28100"/>
<path d="M112 343L114.821 347.117L119.608 348.528L116.565 352.483L116.702 357.472L112 355.8L107.298 357.472L107.435 352.483L104.392 348.528L109.179 347.117L112 343Z" fill="#F28100"/>
<path d="M131 343L133.821 347.117L138.608 348.528L135.565 352.483L135.702 357.472L131 355.8L126.298 357.472L126.435 352.483L123.392 348.528L128.179 347.117L131 343Z" fill="#F28100"/>
<path d="M150 343L152.821 347.117L157.608 348.528L154.565 352.483L154.702 357.472L150 355.8L145.298 357.472L145.435 352.483L142.392 348.528L147.179 347.117L150 343Z" fill="#D5D5E4"/>
<path d="M169 343L171.821 347.117L176.608 348.528L173.565 352.483L173.702 357.472L169 355.8L164.298 357.472L164.435 352.483L161.392 348.528L166.179 347.117L169 343Z" fill="#D5D5E4"/>
</svg>
