<svg width="866" height="613" viewBox="0 0 866 613" fill="none" xmlns="http://www.w3.org/2000/svg">
<g filter="url(#filter0_b)">
<path d="M50 61C50 52.7157 56.7157 46 65 46H801C809.284 46 816 52.7157 816 61V544C816 552.284 809.284 559 801 559H65C56.7157 559 50 552.284 50 544V61Z" fill="white"/>
</g>
<rect x="271" y="486" width="14" height="14" rx="2" fill="#F28100"/>
<path d="M304.638 486.4H306.15V499H304.638V493.402H297.168V499H295.656V486.4H297.168V491.962H304.638V486.4ZM316.01 497.2C316.01 497.644 316.232 497.866 316.676 497.866C316.868 497.866 317.09 497.824 317.342 497.74V498.91C316.982 499.042 316.622 499.108 316.262 499.108C315.434 499.108 314.906 498.76 314.678 498.064C313.754 498.832 312.632 499.216 311.312 499.216C310.472 499.216 309.752 498.994 309.152 498.55C308.564 498.094 308.27 497.44 308.27 496.588C308.27 495.568 308.648 494.83 309.404 494.374C310.172 493.906 311.096 493.672 312.176 493.672C312.968 493.672 313.766 493.762 314.57 493.942V493.636C314.57 492.976 314.354 492.454 313.922 492.07C313.49 491.674 312.884 491.476 312.104 491.476C311.012 491.476 309.962 491.692 308.954 492.124V490.72C310.082 490.336 311.18 490.144 312.248 490.144C313.424 490.144 314.342 490.462 315.002 491.098C315.674 491.722 316.01 492.628 316.01 493.816V497.2ZM309.746 496.516C309.746 496.996 309.926 497.362 310.286 497.614C310.658 497.854 311.102 497.974 311.618 497.974C312.806 497.974 313.79 497.554 314.57 496.714V495.13C313.754 494.962 313.022 494.878 312.374 494.878C311.642 494.878 311.018 495.01 310.502 495.274C309.998 495.526 309.746 495.94 309.746 496.516ZM320.183 491.8C321.155 490.696 322.319 490.144 323.675 490.144C324.911 490.144 325.937 490.576 326.753 491.44C327.581 492.304 327.995 493.384 327.995 494.68C327.995 495.976 327.581 497.056 326.753 497.92C325.937 498.784 324.911 499.216 323.675 499.216C322.307 499.216 321.191 498.712 320.327 497.704V502.96H318.887V490.36H320.183V491.8ZM325.673 497.002C326.261 496.414 326.555 495.64 326.555 494.68C326.555 493.72 326.261 492.946 325.673 492.358C325.097 491.77 324.377 491.476 323.513 491.476C322.781 491.476 322.133 491.68 321.569 492.088C321.005 492.496 320.591 493 320.327 493.6V495.76C320.591 496.36 321.005 496.864 321.569 497.272C322.133 497.68 322.781 497.884 323.513 497.884C324.377 497.884 325.097 497.59 325.673 497.002ZM333.404 497.362L336.32 490.36H337.85L333.602 500.296C332.774 502.216 331.688 503.176 330.344 503.176C330.02 503.176 329.708 503.134 329.408 503.05V501.808C329.66 501.88 329.912 501.916 330.164 501.916C331.088 501.916 331.832 501.214 332.396 499.81L332.72 499.018L328.616 490.36H330.146L333.404 497.362ZM351.513 499H339.453V490.36H340.893V497.668H344.763V490.36H346.203V497.668H350.073V490.36H351.513V499ZM353.59 494.68C353.59 493.264 354.022 492.154 354.886 491.35C355.762 490.546 356.764 490.144 357.892 490.144C358.948 490.144 359.818 490.408 360.502 490.936C361.198 491.464 361.654 492.118 361.87 492.898C362.086 493.666 362.098 494.47 361.906 495.31H355.03C355.114 496.162 355.492 496.804 356.164 497.236C356.836 497.668 357.646 497.884 358.594 497.884C359.65 497.884 360.598 497.65 361.438 497.182V498.586C360.634 499.006 359.614 499.216 358.378 499.216C357.01 499.216 355.87 498.826 354.958 498.046C354.046 497.266 353.59 496.144 353.59 494.68ZM360.628 494.05C360.664 493.798 360.646 493.534 360.574 493.258C360.502 492.982 360.37 492.706 360.178 492.43C359.998 492.154 359.716 491.926 359.332 491.746C358.948 491.566 358.498 491.476 357.982 491.476C357.202 491.476 356.524 491.704 355.948 492.16C355.384 492.616 355.078 493.246 355.03 494.05H360.628ZM365.45 499H364.01V490.36H365.45V494.014H370.454V490.36H371.894V499H370.454V495.346H365.45V499ZM375.781 499H374.557V490.36H375.997V496.678L381.289 490.36H382.513V499H381.073V492.682L375.781 499ZM384.58 494.68C384.58 493.264 385.012 492.154 385.876 491.35C386.752 490.546 387.754 490.144 388.882 490.144C389.938 490.144 390.808 490.408 391.492 490.936C392.188 491.464 392.644 492.118 392.86 492.898C393.076 493.666 393.088 494.47 392.896 495.31H386.02C386.104 496.162 386.482 496.804 387.154 497.236C387.826 497.668 388.636 497.884 389.584 497.884C390.64 497.884 391.588 497.65 392.428 497.182V498.586C391.624 499.006 390.604 499.216 389.368 499.216C388 499.216 386.86 498.826 385.948 498.046C385.036 497.266 384.58 496.144 384.58 494.68ZM391.618 494.05C391.654 493.798 391.636 493.534 391.564 493.258C391.492 492.982 391.36 492.706 391.168 492.43C390.988 492.154 390.706 491.926 390.322 491.746C389.938 491.566 389.488 491.476 388.972 491.476C388.192 491.476 387.514 491.704 386.938 492.16C386.374 492.616 386.068 493.246 386.02 494.05H391.618Z" fill="#454545"/>
<rect x="572" y="486" width="14" height="14" rx="2" fill="#0FA7F0"/>
<path d="M596.656 486.4H600.958C604.522 486.4 606.304 487.756 606.304 490.468C606.304 493.18 604.522 494.536 600.958 494.536H598.168V499H596.656V486.4ZM604.774 490.468C604.774 489.952 604.678 489.52 604.486 489.172C604.294 488.812 604.018 488.542 603.658 488.362C603.31 488.17 602.926 488.038 602.506 487.966C602.086 487.882 601.594 487.84 601.03 487.84H598.168V493.096H601.03C602.194 493.096 603.106 492.904 603.766 492.52C604.438 492.136 604.774 491.452 604.774 490.468ZM608.556 486.4H612.858C616.422 486.4 618.204 487.756 618.204 490.468C618.204 493.18 616.422 494.536 612.858 494.536H610.068V499H608.556V486.4ZM616.674 490.468C616.674 489.952 616.578 489.52 616.386 489.172C616.194 488.812 615.918 488.542 615.558 488.362C615.21 488.17 614.826 488.038 614.406 487.966C613.986 487.882 613.494 487.84 612.93 487.84H610.068V493.096H612.93C614.094 493.096 615.006 492.904 615.666 492.52C616.338 492.136 616.674 491.452 616.674 490.468ZM632.337 501.97H630.897L630.915 499H620.457V486.4H621.969V497.56H629.259V486.4H630.771V497.56H632.337V501.97ZM638.136 494.716C638.136 493.96 638.274 493.282 638.55 492.682C638.826 492.082 639.186 491.602 639.63 491.242C640.086 490.882 640.584 490.612 641.124 490.432C641.676 490.24 642.24 490.144 642.816 490.144C643.884 490.144 644.772 490.378 645.48 490.846V492.25C644.82 491.734 643.992 491.476 642.996 491.476C642.06 491.476 641.256 491.746 640.584 492.286C639.912 492.826 639.576 493.624 639.576 494.68C639.576 495.724 639.906 496.522 640.566 497.074C641.238 497.614 642.036 497.884 642.96 497.884C643.92 497.884 644.79 497.65 645.57 497.182V498.622C644.754 499.018 643.818 499.216 642.762 499.216C641.514 499.216 640.428 498.826 639.504 498.046C638.592 497.266 638.136 496.156 638.136 494.716ZM648.294 498.01C647.382 497.194 646.926 496.084 646.926 494.68C646.926 493.276 647.382 492.172 648.294 491.368C649.206 490.552 650.286 490.144 651.534 490.144C652.794 490.144 653.874 490.552 654.774 491.368C655.686 492.172 656.142 493.276 656.142 494.68C656.142 496.084 655.686 497.194 654.774 498.01C653.874 498.814 652.794 499.216 651.534 499.216C650.286 499.216 649.206 498.814 648.294 498.01ZM653.802 497.002C654.402 496.426 654.702 495.652 654.702 494.68C654.702 493.708 654.402 492.94 653.802 492.376C653.202 491.8 652.446 491.512 651.534 491.512C650.622 491.512 649.866 491.8 649.266 492.376C648.666 492.94 648.366 493.708 648.366 494.68C648.366 495.652 648.666 496.426 649.266 497.002C649.866 497.566 650.622 497.848 651.534 497.848C652.446 497.848 653.202 497.566 653.802 497.002ZM666.649 494.932C666.649 496.264 666.241 497.314 665.425 498.082C664.621 498.838 663.559 499.216 662.239 499.216C660.895 499.216 659.809 498.772 658.981 497.884C658.165 496.996 657.757 495.754 657.757 494.158C657.757 492.766 657.997 491.566 658.477 490.558C658.957 489.55 659.605 488.794 660.421 488.29C660.973 487.954 661.543 487.69 662.131 487.498C662.731 487.294 663.223 487.168 663.607 487.12C664.003 487.072 664.411 486.976 664.831 486.832C665.251 486.676 665.599 486.46 665.875 486.184V487.696C665.539 487.936 665.125 488.116 664.633 488.236C664.141 488.344 663.595 488.476 662.995 488.632C662.395 488.788 661.819 489.028 661.267 489.352C660.727 489.676 660.307 490.084 660.007 490.576C659.707 491.068 659.443 491.656 659.215 492.34C659.527 491.86 659.971 491.47 660.547 491.17C661.123 490.87 661.741 490.72 662.401 490.72C663.565 490.72 664.561 491.11 665.389 491.89C666.229 492.67 666.649 493.684 666.649 494.932ZM659.197 494.968C659.197 495.796 659.473 496.486 660.025 497.038C660.577 497.578 661.303 497.848 662.203 497.848C663.127 497.848 663.859 497.578 664.399 497.038C664.939 496.498 665.209 495.808 665.209 494.968C665.209 494.128 664.939 493.438 664.399 492.898C663.859 492.358 663.127 492.088 662.203 492.088C661.339 492.088 660.619 492.382 660.043 492.97C659.479 493.546 659.197 494.212 659.197 494.968ZM671.638 491.692C671.578 492.64 671.506 493.468 671.422 494.176C671.338 494.884 671.218 495.568 671.062 496.228C670.906 496.876 670.714 497.404 670.486 497.812C670.27 498.22 669.994 498.544 669.658 498.784C669.322 499.024 668.938 499.144 668.506 499.144C668.158 499.144 667.81 499.078 667.462 498.946V497.812C667.654 497.884 667.846 497.92 668.038 497.92C668.758 497.92 669.28 497.29 669.604 496.03C669.94 494.758 670.15 492.868 670.234 490.36H676.588V499H675.148V491.692H671.638ZM690.624 491.368C691.536 492.172 691.992 493.276 691.992 494.68C691.992 496.084 691.536 497.194 690.624 498.01C689.724 498.814 688.644 499.216 687.384 499.216C686.244 499.216 685.23 498.874 684.342 498.19C683.466 497.494 682.956 496.546 682.812 495.346H680.688V499H679.248V490.36H680.688V494.014H682.812C682.956 492.814 683.466 491.872 684.342 491.188C685.23 490.492 686.244 490.144 687.384 490.144C688.644 490.144 689.724 490.552 690.624 491.368ZM685.116 492.376C684.516 492.94 684.216 493.708 684.216 494.68C684.216 495.652 684.516 496.426 685.116 497.002C685.716 497.566 686.472 497.848 687.384 497.848C688.296 497.848 689.052 497.566 689.652 497.002C690.252 496.426 690.552 495.652 690.552 494.68C690.552 493.708 690.252 492.94 689.652 492.376C689.052 491.8 688.296 491.512 687.384 491.512C686.472 491.512 685.716 491.8 685.116 492.376ZM694.378 501.34H692.974V497.704H694.126C695.146 495.904 695.638 493.456 695.602 490.36H702.046V497.704H703.306V501.34H701.902V499H694.378V501.34ZM696.988 491.656C696.928 494.02 696.496 496.036 695.692 497.704H700.606V491.656H696.988ZM712.248 497.2C712.248 497.644 712.47 497.866 712.914 497.866C713.106 497.866 713.328 497.824 713.58 497.74V498.91C713.22 499.042 712.86 499.108 712.5 499.108C711.672 499.108 711.144 498.76 710.916 498.064C709.992 498.832 708.87 499.216 707.55 499.216C706.71 499.216 705.99 498.994 705.39 498.55C704.802 498.094 704.508 497.44 704.508 496.588C704.508 495.568 704.886 494.83 705.642 494.374C706.41 493.906 707.334 493.672 708.414 493.672C709.206 493.672 710.004 493.762 710.808 493.942V493.636C710.808 492.976 710.592 492.454 710.16 492.07C709.728 491.674 709.122 491.476 708.342 491.476C707.25 491.476 706.2 491.692 705.192 492.124V490.72C706.32 490.336 707.418 490.144 708.486 490.144C709.662 490.144 710.58 490.462 711.24 491.098C711.912 491.722 712.248 492.628 712.248 493.816V497.2ZM705.984 496.516C705.984 496.996 706.164 497.362 706.524 497.614C706.896 497.854 707.34 497.974 707.856 497.974C709.044 497.974 710.028 497.554 710.808 496.714V495.13C709.992 494.962 709.26 494.878 708.612 494.878C707.88 494.878 707.256 495.01 706.74 495.274C706.236 495.526 705.984 495.94 705.984 496.516ZM714.531 494.68C714.531 493.264 714.963 492.154 715.827 491.35C716.703 490.546 717.705 490.144 718.833 490.144C719.889 490.144 720.759 490.408 721.443 490.936C722.139 491.464 722.595 492.118 722.811 492.898C723.027 493.666 723.039 494.47 722.847 495.31H715.971C716.055 496.162 716.433 496.804 717.105 497.236C717.777 497.668 718.587 497.884 719.535 497.884C720.591 497.884 721.539 497.65 722.379 497.182V498.586C721.575 499.006 720.555 499.216 719.319 499.216C717.951 499.216 716.811 498.826 715.899 498.046C714.987 497.266 714.531 496.144 714.531 494.68ZM721.569 494.05C721.605 493.798 721.587 493.534 721.515 493.258C721.443 492.982 721.311 492.706 721.119 492.43C720.939 492.154 720.657 491.926 720.273 491.746C719.889 491.566 719.439 491.476 718.923 491.476C718.143 491.476 717.465 491.704 716.889 492.16C716.325 492.616 716.019 493.246 715.971 494.05H721.569ZM728.375 499H726.935V491.692H723.749V490.36H731.543V491.692H728.375V499ZM732.302 494.716C732.302 493.96 732.44 493.282 732.716 492.682C732.992 492.082 733.352 491.602 733.796 491.242C734.252 490.882 734.75 490.612 735.29 490.432C735.842 490.24 736.406 490.144 736.982 490.144C738.05 490.144 738.938 490.378 739.646 490.846V492.25C738.986 491.734 738.158 491.476 737.162 491.476C736.226 491.476 735.422 491.746 734.75 492.286C734.078 492.826 733.742 493.624 733.742 494.68C733.742 495.724 734.072 496.522 734.732 497.074C735.404 497.614 736.202 497.884 737.126 497.884C738.086 497.884 738.956 497.65 739.736 497.182V498.622C738.92 499.018 737.984 499.216 736.928 499.216C735.68 499.216 734.594 498.826 733.67 498.046C732.758 497.266 732.302 496.156 732.302 494.716ZM742.708 499H741.016L743.518 495.832C742.858 495.64 742.348 495.304 741.988 494.824C741.628 494.344 741.448 493.792 741.448 493.168C741.448 492.376 741.736 491.71 742.312 491.17C742.888 490.63 743.68 490.36 744.688 490.36H748.936V499H747.496V495.976H745.066L742.708 499ZM743.392 492.052C743.056 492.316 742.888 492.688 742.888 493.168C742.888 493.648 743.056 494.02 743.392 494.284C743.74 494.548 744.214 494.68 744.814 494.68H747.496V491.656H744.814C744.214 491.656 743.74 491.788 743.392 492.052Z" fill="#454545"/>
<rect x="424" y="486" width="14" height="14" rx="3" fill="#FFEEA2"/>
<path d="M448.656 486.4H453.822C455.142 486.4 456.186 486.676 456.954 487.228C457.722 487.768 458.106 488.554 458.106 489.586C458.106 490.33 457.908 490.942 457.512 491.422C457.116 491.89 456.642 492.208 456.09 492.376C456.762 492.556 457.35 492.904 457.854 493.42C458.358 493.924 458.61 494.632 458.61 495.544C458.61 496.096 458.502 496.582 458.286 497.002C458.082 497.422 457.818 497.758 457.494 498.01C457.182 498.25 456.81 498.448 456.378 498.604C455.958 498.76 455.55 498.868 455.154 498.928C454.77 498.976 454.374 499 453.966 499H448.656V486.4ZM457.08 495.382C457.08 493.93 456.078 493.204 454.074 493.204H450.168V497.56H453.66C454.044 497.56 454.368 497.554 454.632 497.542C454.896 497.518 455.196 497.47 455.532 497.398C455.868 497.314 456.138 497.2 456.342 497.056C456.546 496.9 456.72 496.684 456.864 496.408C457.008 496.12 457.08 495.778 457.08 495.382ZM456.576 489.802C456.576 489.094 456.33 488.59 455.838 488.29C455.358 487.99 454.644 487.84 453.696 487.84H450.168V491.764H454.11C454.83 491.764 455.418 491.608 455.874 491.296C456.342 490.972 456.576 490.474 456.576 489.802ZM464.793 499H460.689V490.36H462.129V493.384H464.793C465.825 493.384 466.641 493.648 467.241 494.176C467.841 494.704 468.141 495.376 468.141 496.192C468.141 497.008 467.841 497.68 467.241 498.208C466.641 498.736 465.825 499 464.793 499ZM462.129 494.68V497.704H464.613C465.261 497.704 465.765 497.578 466.125 497.326C466.497 497.074 466.683 496.696 466.683 496.192C466.683 495.688 466.497 495.31 466.125 495.058C465.765 494.806 465.261 494.68 464.613 494.68H462.129ZM471.255 499H469.815V490.36H471.255V499ZM485.986 499H473.926V490.36H475.366V497.668H479.236V490.36H480.676V497.668H484.546V490.36H485.986V499ZM488.062 494.68C488.062 493.264 488.494 492.154 489.358 491.35C490.234 490.546 491.236 490.144 492.364 490.144C493.42 490.144 494.29 490.408 494.974 490.936C495.67 491.464 496.126 492.118 496.342 492.898C496.558 493.666 496.57 494.47 496.378 495.31H489.502C489.586 496.162 489.964 496.804 490.636 497.236C491.308 497.668 492.118 497.884 493.066 497.884C494.122 497.884 495.07 497.65 495.91 497.182V498.586C495.106 499.006 494.086 499.216 492.85 499.216C491.482 499.216 490.342 498.826 489.43 498.046C488.518 497.266 488.062 496.144 488.062 494.68ZM495.1 494.05C495.136 493.798 495.118 493.534 495.046 493.258C494.974 492.982 494.842 492.706 494.65 492.43C494.47 492.154 494.188 491.926 493.804 491.746C493.42 491.566 492.97 491.476 492.454 491.476C491.674 491.476 490.996 491.704 490.42 492.16C489.856 492.616 489.55 493.246 489.502 494.05H495.1ZM503.289 486.4H507.591C511.155 486.4 512.937 487.756 512.937 490.468C512.937 493.18 511.155 494.536 507.591 494.536H504.801V499H503.289V486.4ZM511.407 490.468C511.407 489.952 511.311 489.52 511.119 489.172C510.927 488.812 510.651 488.542 510.291 488.362C509.943 488.17 509.559 488.038 509.139 487.966C508.719 487.882 508.227 487.84 507.663 487.84H504.801V493.096H507.663C508.827 493.096 509.739 492.904 510.399 492.52C511.071 492.136 511.407 491.452 511.407 490.468ZM515.189 486.4H519.491C523.055 486.4 524.837 487.756 524.837 490.468C524.837 493.18 523.055 494.536 519.491 494.536H516.701V499H515.189V486.4ZM523.307 490.468C523.307 489.952 523.211 489.52 523.019 489.172C522.827 488.812 522.551 488.542 522.191 488.362C521.843 488.17 521.459 488.038 521.039 487.966C520.619 487.882 520.127 487.84 519.563 487.84H516.701V493.096H519.563C520.727 493.096 521.639 492.904 522.299 492.52C522.971 492.136 523.307 491.452 523.307 490.468ZM538.97 501.97H537.53L537.548 499H527.09V486.4H528.602V497.56H535.892V486.4H537.404V497.56H538.97V501.97Z" fill="#454545"/>
<line x1="268" y1="445.5" x2="716" y2="445.5" stroke="#37376D"/>
<line x1="268" y1="325.5" x2="716" y2="325.5" stroke="#DDDDE6" stroke-dasharray="7 7"/>
<line x1="268" y1="384.5" x2="716" y2="384.5" stroke="#DDDDE6" stroke-dasharray="7 7"/>
<line x1="268" y1="266.5" x2="716" y2="266.5" stroke="#DDDDE6" stroke-dasharray="7 7"/>
<line x1="268" y1="207.5" x2="716" y2="207.5" stroke="#DDDDE6" stroke-dasharray="7 7"/>
<path d="M712 159C713.105 159 714 159.895 714 161L714 167C714 168.105 713.105 169 712 169L270 169C268.895 169 268 168.105 268 167L268 161C268 159.895 268.895 159 270 159L712 159Z" fill="#0FA7F0"/>
<path d="M642 216C643.105 216 644 216.895 644 218L644 224C644 225.105 643.105 226 642 226L270 226C268.895 226 268 225.105 268 224L268 218C268 216.895 268.895 216 270 216L642 216Z" fill="#0FA7F0"/>
<path d="M642 334C643.105 334 644 334.895 644 336L644 342C644 343.105 643.105 344 642 344L270 344C268.895 344 268 343.105 268 342L268 336C268 334.895 268.895 334 270 334L642 334Z" fill="#0FA7F0"/>
<path d="M696 277C697.105 277 698 277.895 698 279L698 285C698 286.105 697.105 287 696 287L270 287C268.895 287 268 286.105 268 285L268 279C268 277.895 268.895 277 270 277L696 277Z" fill="#0FA7F0"/>
<path d="M696 395C697.105 395 698 395.895 698 397L698 403C698 404.105 697.105 405 696 405L270 405C268.895 405 268 404.105 268 403L268 397C268 395.895 268.895 395 270 395L696 395Z" fill="#0FA7F0"/>
<path d="M379 174C380.105 174 381 174.895 381 176L381 182C381 183.105 380.105 184 379 184L270 184C268.895 184 268 183.105 268 182L268 176C268 174.895 268.895 174 270 174L379 174Z" fill="#FFEEA2"/>
<path d="M358 231C359.105 231 360 231.895 360 233L360 239C360 240.105 359.105 241 358 241L270 241C268.895 241 268 240.105 268 239L268 233C268 231.895 268.895 231 270 231L358 231Z" fill="#FFEEA2"/>
<path d="M461 292C462.105 292 463 292.895 463 294L463 300C463 301.105 462.105 302 461 302L270 302C268.895 302 268 301.105 268 300L268 294C268 292.895 268.895 292 270 292L461 292Z" fill="#FFEEA2"/>
<path d="M313 410C314.105 410 315 410.895 315 412L315 418C315 419.105 314.105 420 313 420L270 420C268.895 420 268 419.105 268 418L268 412C268 410.895 268.895 410 270 410L313 410Z" fill="#FFEEA2"/>
<path d="M298 189C299.105 189 300 189.895 300 191L300 197C300 198.105 299.105 199 298 199L270 199C268.895 199 268 198.105 268 197L268 191C268 189.895 268.895 189 270 189L298 189Z" fill="#F28100"/>
<path d="M272 246C273.105 246 274 246.895 274 248L274 254C274 255.105 273.105 256 272 256L270 256C268.895 256 268 255.105 268 254L268 248C268 246.895 268.895 246 270 246L272 246Z" fill="#F28100"/>
<path d="M313 364C314.105 364 315 364.895 315 366L315 372C315 373.105 314.105 374 313 374L270 374C268.895 374 268 373.105 268 372L268 366C268 364.895 268.895 364 270 364L313 364Z" fill="#F28100"/>
<path d="M334 307C335.105 307 336 307.895 336 309L336 315C336 316.105 335.105 317 334 317L270 317C268.895 317 268 316.105 268 315L268 309C268 307.895 268.895 307 270 307L334 307Z" fill="#F28100"/>
<path d="M429 425C430.105 425 431 425.895 431 427L431 433C431 434.105 430.105 435 429 435L270 435C268.895 435 268 434.105 268 433L268 427C268 425.895 268.895 425 270 425L429 425Z" fill="#F28100"/>
<path d="M174.614 172.1H175.838V184H174.41V174.803L170.143 181.195H169.259L164.992 174.803V184H163.564V172.1H164.788L169.701 179.444L174.614 172.1ZM185.161 182.3C185.161 182.719 185.371 182.929 185.79 182.929C185.972 182.929 186.181 182.889 186.419 182.81V183.915C186.079 184.04 185.739 184.102 185.399 184.102C184.617 184.102 184.119 183.773 183.903 183.116C183.031 183.841 181.971 184.204 180.724 184.204C179.931 184.204 179.251 183.994 178.684 183.575C178.129 183.144 177.851 182.527 177.851 181.722C177.851 180.759 178.208 180.062 178.922 179.631C179.648 179.189 180.52 178.968 181.54 178.968C182.288 178.968 183.042 179.053 183.801 179.223V178.934C183.801 178.311 183.597 177.818 183.189 177.455C182.781 177.081 182.209 176.894 181.472 176.894C180.441 176.894 179.449 177.098 178.497 177.506V176.18C179.563 175.817 180.6 175.636 181.608 175.636C182.719 175.636 183.586 175.936 184.209 176.537C184.844 177.126 185.161 177.982 185.161 179.104V182.3ZM179.245 181.654C179.245 182.107 179.415 182.453 179.755 182.691C180.107 182.918 180.526 183.031 181.013 183.031C182.135 183.031 183.065 182.634 183.801 181.841V180.345C183.031 180.186 182.339 180.107 181.727 180.107C181.036 180.107 180.447 180.232 179.959 180.481C179.483 180.719 179.245 181.11 179.245 181.654ZM189.238 184H187.878V175.84H193.845V177.098H189.238V184ZM201.929 182.3C201.929 182.719 202.139 182.929 202.558 182.929C202.739 182.929 202.949 182.889 203.187 182.81V183.915C202.847 184.04 202.507 184.102 202.167 184.102C201.385 184.102 200.886 183.773 200.671 183.116C199.798 183.841 198.739 184.204 197.492 184.204C196.699 184.204 196.019 183.994 195.452 183.575C194.897 183.144 194.619 182.527 194.619 181.722C194.619 180.759 194.976 180.062 195.69 179.631C196.415 179.189 197.288 178.968 198.308 178.968C199.056 178.968 199.81 179.053 200.569 179.223V178.934C200.569 178.311 200.365 177.818 199.957 177.455C199.549 177.081 198.977 176.894 198.24 176.894C197.209 176.894 196.217 177.098 195.265 177.506V176.18C196.33 175.817 197.367 175.636 198.376 175.636C199.487 175.636 200.354 175.936 200.977 176.537C201.612 177.126 201.929 177.982 201.929 179.104V182.3ZM196.013 181.654C196.013 182.107 196.183 182.453 196.523 182.691C196.874 182.918 197.294 183.031 197.781 183.031C198.903 183.031 199.832 182.634 200.569 181.841V180.345C199.798 180.186 199.107 180.107 198.495 180.107C197.804 180.107 197.214 180.232 196.727 180.481C196.251 180.719 196.013 181.11 196.013 181.654ZM210.749 181.807C210.749 182.566 210.42 183.156 209.763 183.575C209.117 183.994 208.221 184.204 207.077 184.204C205.932 184.204 204.929 183.994 204.068 183.575V182.283C204.895 182.725 205.841 182.946 206.907 182.946C208.561 182.946 209.389 182.515 209.389 181.654C209.389 180.872 208.788 180.481 207.587 180.481H205.802V179.223H207.587C208.675 179.223 209.219 178.872 209.219 178.169C209.219 177.738 209.015 177.415 208.607 177.2C208.199 176.985 207.655 176.877 206.975 176.877C205.989 176.877 205.065 177.092 204.204 177.523V176.248C205.122 175.829 206.096 175.619 207.128 175.619C208.238 175.619 209.088 175.834 209.678 176.265C210.278 176.684 210.579 177.257 210.579 177.982C210.579 178.469 210.443 178.872 210.171 179.189C209.899 179.506 209.53 179.716 209.066 179.818C209.553 179.943 209.955 180.181 210.273 180.532C210.59 180.883 210.749 181.308 210.749 181.807ZM213.903 184H212.747V175.84H214.107V181.807L219.105 175.84H220.261V184H218.901V178.033L213.903 184ZM224.135 184H222.775V175.84H224.135V179.291H228.861V175.84H230.221V184H228.861V180.549H224.135V184ZM239.417 172.44H240.471V182.64H242.63V184H236.612V182.64H239.043V173.953L236.612 174.871V173.511L239.417 172.44Z" fill="#454545"/>
<path d="M174.614 229.1H175.838V241H174.41V231.803L170.143 238.195H169.259L164.992 231.803V241H163.564V229.1H164.788L169.701 236.444L174.614 229.1ZM185.161 239.3C185.161 239.719 185.371 239.929 185.79 239.929C185.972 239.929 186.181 239.889 186.419 239.81V240.915C186.079 241.04 185.739 241.102 185.399 241.102C184.617 241.102 184.119 240.773 183.903 240.116C183.031 240.841 181.971 241.204 180.724 241.204C179.931 241.204 179.251 240.994 178.684 240.575C178.129 240.144 177.851 239.527 177.851 238.722C177.851 237.759 178.208 237.062 178.922 236.631C179.648 236.189 180.52 235.968 181.54 235.968C182.288 235.968 183.042 236.053 183.801 236.223V235.934C183.801 235.311 183.597 234.818 183.189 234.455C182.781 234.081 182.209 233.894 181.472 233.894C180.441 233.894 179.449 234.098 178.497 234.506V233.18C179.563 232.817 180.6 232.636 181.608 232.636C182.719 232.636 183.586 232.936 184.209 233.537C184.844 234.126 185.161 234.982 185.161 236.104V239.3ZM179.245 238.654C179.245 239.107 179.415 239.453 179.755 239.691C180.107 239.918 180.526 240.031 181.013 240.031C182.135 240.031 183.065 239.634 183.801 238.841V237.345C183.031 237.186 182.339 237.107 181.727 237.107C181.036 237.107 180.447 237.232 179.959 237.481C179.483 237.719 179.245 238.11 179.245 238.654ZM189.238 241H187.878V232.84H193.845V234.098H189.238V241ZM201.929 239.3C201.929 239.719 202.139 239.929 202.558 239.929C202.739 239.929 202.949 239.889 203.187 239.81V240.915C202.847 241.04 202.507 241.102 202.167 241.102C201.385 241.102 200.886 240.773 200.671 240.116C199.798 240.841 198.739 241.204 197.492 241.204C196.699 241.204 196.019 240.994 195.452 240.575C194.897 240.144 194.619 239.527 194.619 238.722C194.619 237.759 194.976 237.062 195.69 236.631C196.415 236.189 197.288 235.968 198.308 235.968C199.056 235.968 199.81 236.053 200.569 236.223V235.934C200.569 235.311 200.365 234.818 199.957 234.455C199.549 234.081 198.977 233.894 198.24 233.894C197.209 233.894 196.217 234.098 195.265 234.506V233.18C196.33 232.817 197.367 232.636 198.376 232.636C199.487 232.636 200.354 232.936 200.977 233.537C201.612 234.126 201.929 234.982 201.929 236.104V239.3ZM196.013 238.654C196.013 239.107 196.183 239.453 196.523 239.691C196.874 239.918 197.294 240.031 197.781 240.031C198.903 240.031 199.832 239.634 200.569 238.841V237.345C199.798 237.186 199.107 237.107 198.495 237.107C197.804 237.107 197.214 237.232 196.727 237.481C196.251 237.719 196.013 238.11 196.013 238.654ZM210.749 238.807C210.749 239.566 210.42 240.156 209.763 240.575C209.117 240.994 208.221 241.204 207.077 241.204C205.932 241.204 204.929 240.994 204.068 240.575V239.283C204.895 239.725 205.841 239.946 206.907 239.946C208.561 239.946 209.389 239.515 209.389 238.654C209.389 237.872 208.788 237.481 207.587 237.481H205.802V236.223H207.587C208.675 236.223 209.219 235.872 209.219 235.169C209.219 234.738 209.015 234.415 208.607 234.2C208.199 233.985 207.655 233.877 206.975 233.877C205.989 233.877 205.065 234.092 204.204 234.523V233.248C205.122 232.829 206.096 232.619 207.128 232.619C208.238 232.619 209.088 232.834 209.678 233.265C210.278 233.684 210.579 234.257 210.579 234.982C210.579 235.469 210.443 235.872 210.171 236.189C209.899 236.506 209.53 236.716 209.066 236.818C209.553 236.943 209.955 237.181 210.273 237.532C210.59 237.883 210.749 238.308 210.749 238.807ZM213.903 241H212.747V232.84H214.107V238.807L219.105 232.84H220.261V241H218.901V235.033L213.903 241ZM224.135 241H222.775V232.84H224.135V236.291H228.861V232.84H230.221V241H228.861V237.549H224.135V241ZM236.867 230.358C237.944 229.61 239.179 229.236 240.573 229.236C241.774 229.236 242.732 229.508 243.446 230.052C244.16 230.596 244.517 231.355 244.517 232.33C244.517 232.795 244.426 233.231 244.245 233.639C244.075 234.047 243.814 234.421 243.463 234.761C243.123 235.101 242.789 235.39 242.46 235.628C242.143 235.855 241.74 236.11 241.253 236.393C241.196 236.427 241.021 236.529 240.726 236.699C240.443 236.869 240.261 236.977 240.182 237.022C240.114 237.067 239.955 237.169 239.706 237.328C239.468 237.475 239.309 237.583 239.23 237.651C239.162 237.719 239.037 237.827 238.856 237.974C238.686 238.121 238.567 238.246 238.499 238.348C238.442 238.45 238.363 238.58 238.261 238.739C238.17 238.886 238.108 239.034 238.074 239.181C238.04 239.328 238.023 239.487 238.023 239.657L244.602 239.64V241H236.459V240.32C236.459 239.685 236.561 239.113 236.765 238.603C236.969 238.082 237.258 237.64 237.632 237.277C238.017 236.903 238.397 236.591 238.771 236.342C239.145 236.081 239.581 235.804 240.08 235.509C240.193 235.452 240.278 235.407 240.335 235.373C241.366 234.772 242.041 234.313 242.358 233.996C242.845 233.497 243.089 232.936 243.089 232.313C243.089 231.746 242.857 231.316 242.392 231.021C241.939 230.715 241.293 230.562 240.454 230.562C239.23 230.562 238.034 230.97 236.867 231.786V230.358Z" fill="#454545"/>
<path d="M174.614 290.1H175.838V302H174.41V292.803L170.143 299.195H169.259L164.992 292.803V302H163.564V290.1H164.788L169.701 297.444L174.614 290.1ZM185.161 300.3C185.161 300.719 185.371 300.929 185.79 300.929C185.972 300.929 186.181 300.889 186.419 300.81V301.915C186.079 302.04 185.739 302.102 185.399 302.102C184.617 302.102 184.119 301.773 183.903 301.116C183.031 301.841 181.971 302.204 180.724 302.204C179.931 302.204 179.251 301.994 178.684 301.575C178.129 301.144 177.851 300.527 177.851 299.722C177.851 298.759 178.208 298.062 178.922 297.631C179.648 297.189 180.52 296.968 181.54 296.968C182.288 296.968 183.042 297.053 183.801 297.223V296.934C183.801 296.311 183.597 295.818 183.189 295.455C182.781 295.081 182.209 294.894 181.472 294.894C180.441 294.894 179.449 295.098 178.497 295.506V294.18C179.563 293.817 180.6 293.636 181.608 293.636C182.719 293.636 183.586 293.936 184.209 294.537C184.844 295.126 185.161 295.982 185.161 297.104V300.3ZM179.245 299.654C179.245 300.107 179.415 300.453 179.755 300.691C180.107 300.918 180.526 301.031 181.013 301.031C182.135 301.031 183.065 300.634 183.801 299.841V298.345C183.031 298.186 182.339 298.107 181.727 298.107C181.036 298.107 180.447 298.232 179.959 298.481C179.483 298.719 179.245 299.11 179.245 299.654ZM189.238 302H187.878V293.84H193.845V295.098H189.238V302ZM201.929 300.3C201.929 300.719 202.139 300.929 202.558 300.929C202.739 300.929 202.949 300.889 203.187 300.81V301.915C202.847 302.04 202.507 302.102 202.167 302.102C201.385 302.102 200.886 301.773 200.671 301.116C199.798 301.841 198.739 302.204 197.492 302.204C196.699 302.204 196.019 301.994 195.452 301.575C194.897 301.144 194.619 300.527 194.619 299.722C194.619 298.759 194.976 298.062 195.69 297.631C196.415 297.189 197.288 296.968 198.308 296.968C199.056 296.968 199.81 297.053 200.569 297.223V296.934C200.569 296.311 200.365 295.818 199.957 295.455C199.549 295.081 198.977 294.894 198.24 294.894C197.209 294.894 196.217 295.098 195.265 295.506V294.18C196.33 293.817 197.367 293.636 198.376 293.636C199.487 293.636 200.354 293.936 200.977 294.537C201.612 295.126 201.929 295.982 201.929 297.104V300.3ZM196.013 299.654C196.013 300.107 196.183 300.453 196.523 300.691C196.874 300.918 197.294 301.031 197.781 301.031C198.903 301.031 199.832 300.634 200.569 299.841V298.345C199.798 298.186 199.107 298.107 198.495 298.107C197.804 298.107 197.214 298.232 196.727 298.481C196.251 298.719 196.013 299.11 196.013 299.654ZM210.749 299.807C210.749 300.566 210.42 301.156 209.763 301.575C209.117 301.994 208.221 302.204 207.077 302.204C205.932 302.204 204.929 301.994 204.068 301.575V300.283C204.895 300.725 205.841 300.946 206.907 300.946C208.561 300.946 209.389 300.515 209.389 299.654C209.389 298.872 208.788 298.481 207.587 298.481H205.802V297.223H207.587C208.675 297.223 209.219 296.872 209.219 296.169C209.219 295.738 209.015 295.415 208.607 295.2C208.199 294.985 207.655 294.877 206.975 294.877C205.989 294.877 205.065 295.092 204.204 295.523V294.248C205.122 293.829 206.096 293.619 207.128 293.619C208.238 293.619 209.088 293.834 209.678 294.265C210.278 294.684 210.579 295.257 210.579 295.982C210.579 296.469 210.443 296.872 210.171 297.189C209.899 297.506 209.53 297.716 209.066 297.818C209.553 297.943 209.955 298.181 210.273 298.532C210.59 298.883 210.749 299.308 210.749 299.807ZM213.903 302H212.747V293.84H214.107V299.807L219.105 293.84H220.261V302H218.901V296.033L213.903 302ZM224.135 302H222.775V293.84H224.135V297.291H228.861V293.84H230.221V302H228.861V298.549H224.135V302ZM244.381 293.381C244.381 293.97 244.222 294.503 243.905 294.979C243.599 295.444 243.197 295.761 242.698 295.931C243.287 296.112 243.792 296.447 244.211 296.934C244.642 297.41 244.857 298.05 244.857 298.855C244.857 299.932 244.455 300.759 243.65 301.337C242.857 301.915 241.848 302.204 240.624 302.204C239.071 302.204 237.728 301.949 236.595 301.439V300.028C237.694 300.595 238.998 300.872 240.505 300.861C242.488 300.861 243.48 300.17 243.48 298.787C243.48 297.404 242.539 296.713 240.658 296.713H238.89V295.353L240.505 295.37C241.321 295.37 241.939 295.2 242.358 294.86C242.789 294.509 243.004 294.055 243.004 293.5C243.004 292.899 242.766 292.429 242.29 292.089C241.814 291.738 241.14 291.562 240.267 291.562C239.066 291.562 237.91 291.857 236.799 292.446V291.052C237.864 290.508 239.083 290.236 240.454 290.236C241.633 290.236 242.579 290.525 243.293 291.103C244.018 291.681 244.381 292.44 244.381 293.381Z" fill="#454545"/>
<path d="M174.614 408.1H175.838V420H174.41V410.803L170.143 417.195H169.259L164.992 410.803V420H163.564V408.1H164.788L169.701 415.444L174.614 408.1ZM185.161 418.3C185.161 418.719 185.371 418.929 185.79 418.929C185.972 418.929 186.181 418.889 186.419 418.81V419.915C186.079 420.04 185.739 420.102 185.399 420.102C184.617 420.102 184.119 419.773 183.903 419.116C183.031 419.841 181.971 420.204 180.724 420.204C179.931 420.204 179.251 419.994 178.684 419.575C178.129 419.144 177.851 418.527 177.851 417.722C177.851 416.759 178.208 416.062 178.922 415.631C179.648 415.189 180.52 414.968 181.54 414.968C182.288 414.968 183.042 415.053 183.801 415.223V414.934C183.801 414.311 183.597 413.818 183.189 413.455C182.781 413.081 182.209 412.894 181.472 412.894C180.441 412.894 179.449 413.098 178.497 413.506V412.18C179.563 411.817 180.6 411.636 181.608 411.636C182.719 411.636 183.586 411.936 184.209 412.537C184.844 413.126 185.161 413.982 185.161 415.104V418.3ZM179.245 417.654C179.245 418.107 179.415 418.453 179.755 418.691C180.107 418.918 180.526 419.031 181.013 419.031C182.135 419.031 183.065 418.634 183.801 417.841V416.345C183.031 416.186 182.339 416.107 181.727 416.107C181.036 416.107 180.447 416.232 179.959 416.481C179.483 416.719 179.245 417.11 179.245 417.654ZM189.238 420H187.878V411.84H193.845V413.098H189.238V420ZM201.929 418.3C201.929 418.719 202.139 418.929 202.558 418.929C202.739 418.929 202.949 418.889 203.187 418.81V419.915C202.847 420.04 202.507 420.102 202.167 420.102C201.385 420.102 200.886 419.773 200.671 419.116C199.798 419.841 198.739 420.204 197.492 420.204C196.699 420.204 196.019 419.994 195.452 419.575C194.897 419.144 194.619 418.527 194.619 417.722C194.619 416.759 194.976 416.062 195.69 415.631C196.415 415.189 197.288 414.968 198.308 414.968C199.056 414.968 199.81 415.053 200.569 415.223V414.934C200.569 414.311 200.365 413.818 199.957 413.455C199.549 413.081 198.977 412.894 198.24 412.894C197.209 412.894 196.217 413.098 195.265 413.506V412.18C196.33 411.817 197.367 411.636 198.376 411.636C199.487 411.636 200.354 411.936 200.977 412.537C201.612 413.126 201.929 413.982 201.929 415.104V418.3ZM196.013 417.654C196.013 418.107 196.183 418.453 196.523 418.691C196.874 418.918 197.294 419.031 197.781 419.031C198.903 419.031 199.832 418.634 200.569 417.841V416.345C199.798 416.186 199.107 416.107 198.495 416.107C197.804 416.107 197.214 416.232 196.727 416.481C196.251 416.719 196.013 417.11 196.013 417.654ZM210.749 417.807C210.749 418.566 210.42 419.156 209.763 419.575C209.117 419.994 208.221 420.204 207.077 420.204C205.932 420.204 204.929 419.994 204.068 419.575V418.283C204.895 418.725 205.841 418.946 206.907 418.946C208.561 418.946 209.389 418.515 209.389 417.654C209.389 416.872 208.788 416.481 207.587 416.481H205.802V415.223H207.587C208.675 415.223 209.219 414.872 209.219 414.169C209.219 413.738 209.015 413.415 208.607 413.2C208.199 412.985 207.655 412.877 206.975 412.877C205.989 412.877 205.065 413.092 204.204 413.523V412.248C205.122 411.829 206.096 411.619 207.128 411.619C208.238 411.619 209.088 411.834 209.678 412.265C210.278 412.684 210.579 413.257 210.579 413.982C210.579 414.469 210.443 414.872 210.171 415.189C209.899 415.506 209.53 415.716 209.066 415.818C209.553 415.943 209.955 416.181 210.273 416.532C210.59 416.883 210.749 417.308 210.749 417.807ZM213.903 420H212.747V411.84H214.107V417.807L219.105 411.84H220.261V420H218.901V414.033L213.903 420ZM224.135 420H222.775V411.84H224.135V415.291H228.861V411.84H230.221V420H228.861V416.549H224.135V420ZM237.309 408.44H244.245V409.8H238.652L238.448 413.064C239.06 412.894 239.717 412.809 240.42 412.809C240.998 412.809 241.536 412.877 242.035 413.013C242.534 413.138 242.993 413.342 243.412 413.625C243.843 413.897 244.183 414.282 244.432 414.781C244.681 415.268 244.806 415.846 244.806 416.515C244.806 417.66 244.381 418.561 243.531 419.218C242.692 419.875 241.621 420.204 240.318 420.204C238.913 420.204 237.677 419.943 236.612 419.422V418.062C237.632 418.606 238.811 418.878 240.148 418.878C241.123 418.878 241.899 418.674 242.477 418.266C243.066 417.858 243.361 417.274 243.361 416.515C243.361 414.906 242.216 414.101 239.927 414.101C238.93 414.101 237.932 414.282 236.935 414.645L237.309 408.44Z" fill="#454545"/>
<path d="M174.614 347.1H175.838V359H174.41V349.803L170.143 356.195H169.259L164.992 349.803V359H163.564V347.1H164.788L169.701 354.444L174.614 347.1ZM185.161 357.3C185.161 357.719 185.371 357.929 185.79 357.929C185.972 357.929 186.181 357.889 186.419 357.81V358.915C186.079 359.04 185.739 359.102 185.399 359.102C184.617 359.102 184.119 358.773 183.903 358.116C183.031 358.841 181.971 359.204 180.724 359.204C179.931 359.204 179.251 358.994 178.684 358.575C178.129 358.144 177.851 357.527 177.851 356.722C177.851 355.759 178.208 355.062 178.922 354.631C179.648 354.189 180.52 353.968 181.54 353.968C182.288 353.968 183.042 354.053 183.801 354.223V353.934C183.801 353.311 183.597 352.818 183.189 352.455C182.781 352.081 182.209 351.894 181.472 351.894C180.441 351.894 179.449 352.098 178.497 352.506V351.18C179.563 350.817 180.6 350.636 181.608 350.636C182.719 350.636 183.586 350.936 184.209 351.537C184.844 352.126 185.161 352.982 185.161 354.104V357.3ZM179.245 356.654C179.245 357.107 179.415 357.453 179.755 357.691C180.107 357.918 180.526 358.031 181.013 358.031C182.135 358.031 183.065 357.634 183.801 356.841V355.345C183.031 355.186 182.339 355.107 181.727 355.107C181.036 355.107 180.447 355.232 179.959 355.481C179.483 355.719 179.245 356.11 179.245 356.654ZM189.238 359H187.878V350.84H193.845V352.098H189.238V359ZM201.929 357.3C201.929 357.719 202.139 357.929 202.558 357.929C202.739 357.929 202.949 357.889 203.187 357.81V358.915C202.847 359.04 202.507 359.102 202.167 359.102C201.385 359.102 200.886 358.773 200.671 358.116C199.798 358.841 198.739 359.204 197.492 359.204C196.699 359.204 196.019 358.994 195.452 358.575C194.897 358.144 194.619 357.527 194.619 356.722C194.619 355.759 194.976 355.062 195.69 354.631C196.415 354.189 197.288 353.968 198.308 353.968C199.056 353.968 199.81 354.053 200.569 354.223V353.934C200.569 353.311 200.365 352.818 199.957 352.455C199.549 352.081 198.977 351.894 198.24 351.894C197.209 351.894 196.217 352.098 195.265 352.506V351.18C196.33 350.817 197.367 350.636 198.376 350.636C199.487 350.636 200.354 350.936 200.977 351.537C201.612 352.126 201.929 352.982 201.929 354.104V357.3ZM196.013 356.654C196.013 357.107 196.183 357.453 196.523 357.691C196.874 357.918 197.294 358.031 197.781 358.031C198.903 358.031 199.832 357.634 200.569 356.841V355.345C199.798 355.186 199.107 355.107 198.495 355.107C197.804 355.107 197.214 355.232 196.727 355.481C196.251 355.719 196.013 356.11 196.013 356.654ZM210.749 356.807C210.749 357.566 210.42 358.156 209.763 358.575C209.117 358.994 208.221 359.204 207.077 359.204C205.932 359.204 204.929 358.994 204.068 358.575V357.283C204.895 357.725 205.841 357.946 206.907 357.946C208.561 357.946 209.389 357.515 209.389 356.654C209.389 355.872 208.788 355.481 207.587 355.481H205.802V354.223H207.587C208.675 354.223 209.219 353.872 209.219 353.169C209.219 352.738 209.015 352.415 208.607 352.2C208.199 351.985 207.655 351.877 206.975 351.877C205.989 351.877 205.065 352.092 204.204 352.523V351.248C205.122 350.829 206.096 350.619 207.128 350.619C208.238 350.619 209.088 350.834 209.678 351.265C210.278 351.684 210.579 352.257 210.579 352.982C210.579 353.469 210.443 353.872 210.171 354.189C209.899 354.506 209.53 354.716 209.066 354.818C209.553 354.943 209.955 355.181 210.273 355.532C210.59 355.883 210.749 356.308 210.749 356.807ZM213.903 359H212.747V350.84H214.107V356.807L219.105 350.84H220.261V359H218.901V353.033L213.903 359ZM224.135 359H222.775V350.84H224.135V354.291H228.861V350.84H230.221V359H228.861V355.549H224.135V359ZM242.443 347.44H243.99V355.107H246.166V356.433H243.99V359H242.579V356.433H236.136V355.158L242.443 347.44ZM242.579 355.107V349.361L237.887 355.107H242.579Z" fill="#454545"/>
<g filter="url(#filter1_d_813:49)">
<path d="M50 101H105V559H65C56.7157 559 50 552.284 50 544V101Z" fill="white"/>
</g>
<path d="M76 139V133H80V139H85V131H88L78 122L68 131H71V139H76Z" fill="#747474"/>
<path d="M83.834 157.667L79.6673 161.417V170.583L83.834 166.833V157.667ZM73.4173 160.167C71.7923 160.167 70.0423 160.5 68.834 161.417V173.633C68.834 173.842 69.0423 174.05 69.2507 174.05C69.334 174.05 69.3757 173.992 69.459 173.992C70.584 173.45 72.209 173.083 73.4173 173.083C75.0423 173.083 76.7923 173.417 78.0007 174.333C79.1257 173.625 81.1673 173.083 82.584 173.083C83.959 173.083 85.3757 173.342 86.5423 173.967C86.6256 174.008 86.6673 173.992 86.7506 173.992C86.959 173.992 87.1673 173.783 87.1673 173.575V161.417C86.6673 161.042 86.1256 160.792 85.5006 160.583V171.833C84.584 171.542 83.584 171.417 82.584 171.417C81.1673 171.417 79.1257 171.958 78.0007 172.667V161.417C76.7923 160.5 75.0423 160.167 73.4173 160.167Z" fill="#747474"/>
<line x1="50" y1="503.5" x2="105" y2="503.5" stroke="#E1E1E9"/>
<path d="M69.3136 518.406L69.8342 523.224L69.921 524.138H67.8965L67.9977 523.224L68.5038 518.406L68.5472 518H69.2702L69.3136 518.406Z" fill="#F28100"/>
<path d="M85.4093 518.406L85.9154 523.224L86.0167 524.138H83.9922L84.079 523.224L84.5995 518.406L84.6429 518H85.3659L85.4093 518.406Z" fill="#F28100"/>
<path d="M75.9934 533.367C75.5885 533.729 75.198 534.034 74.7931 534.339C74.3882 534.643 73.9834 534.948 73.5495 535.238C72.6964 535.819 71.8287 536.356 70.831 536.806C70.3682 537.009 69.8187 536.806 69.6163 536.341C69.4283 535.92 69.5874 535.427 69.9633 535.195L69.9923 535.18C70.7442 534.716 71.4528 534.121 72.1469 533.483C72.4939 533.163 72.8265 532.83 73.1591 532.496C73.4772 532.162 73.8243 531.799 74.099 531.48C74.5907 530.914 75.4294 530.856 75.9934 531.335C76.5573 531.828 76.6152 532.67 76.138 533.236C76.0946 533.28 76.0512 533.323 75.9934 533.367Z" fill="#37376D"/>
<path d="M79.146 530.682C79.5798 530.783 80.1004 530.812 80.6065 530.812C81.1271 530.812 81.6622 530.769 82.1827 530.696C83.2383 530.551 84.294 530.275 85.2484 529.84L85.2628 529.826C85.7255 529.608 86.275 529.826 86.4775 530.29C86.6655 530.725 86.5064 531.219 86.116 531.451C85.017 532.118 83.8457 532.583 82.631 532.916C82.0237 533.076 81.4019 533.206 80.7656 533.279C80.1293 533.352 79.4642 533.395 78.7556 533.337H78.7411C78.0036 533.279 77.4541 532.626 77.512 531.886C77.5698 531.146 78.2206 530.595 78.958 530.653C79.0303 530.653 79.0882 530.667 79.146 530.682Z" fill="#37376D"/>
<path d="M86.2184 523.833C86.2184 526.924 82.0971 529.434 76.9926 529.434C71.888 529.434 67.7812 526.924 67.7812 523.833C67.7812 520.742 71.9169 518.232 77.007 518.232C82.0971 518.232 86.2184 520.742 86.2184 523.833Z" fill="#0FA7F0"/>
<path d="M83.0366 523.833C83.0366 525.545 80.3325 527.025 77.0066 527.025C73.6807 527.025 70.9766 525.545 70.9766 523.833C70.9766 522.121 73.6807 520.641 77.0066 520.641C80.3325 520.655 83.0366 522.135 83.0366 523.833Z" fill="white"/>
<path d="M79.0884 523.833C79.0884 524.994 78.163 525.923 77.0061 525.923C75.8493 525.923 74.9238 524.994 74.9238 523.833C74.9238 522.672 75.8493 521.744 77.0061 521.744C78.1485 521.744 79.0884 522.687 79.0884 523.833Z" fill="#37376D"/>
<path d="M82.9204 538.329L80.679 532.133C80.332 531.219 79.4644 530.609 78.4955 530.609H75.8203C74.5333 530.609 73.4922 531.654 73.4922 532.946V538.314H82.9204V538.329Z" fill="#0FA7F0"/>
<path d="M67 535.267C67.5061 534.817 68.2725 534.6 68.9811 534.73C69.6897 534.846 70.3693 535.296 70.7597 535.92C71.1646 536.544 71.2658 537.342 71.0779 538.039C70.8899 538.735 70.3838 539.345 69.7475 539.606L69.0245 538.474C69.2414 538.213 69.3426 537.937 69.3715 537.661C69.386 537.386 69.3281 537.139 69.1835 536.921C69.0534 536.704 68.8509 536.544 68.5907 536.443C68.3304 536.341 68.0412 536.327 67.7086 536.399L67 535.267Z" fill="#F28100"/>
<path d="M87.5629 528.651C87.3171 528.883 87.1725 529.129 87.1002 529.391C87.0424 529.652 87.0713 529.913 87.158 530.145C87.2593 530.377 87.4328 530.58 87.6642 530.711C87.8955 530.842 88.1847 530.914 88.5173 530.885L89.0524 532.119C88.4739 532.496 87.6931 532.568 87.0134 532.336C86.3338 532.104 85.7265 531.553 85.4517 530.871C85.1625 530.189 85.1625 529.376 85.4806 528.723C85.7843 528.056 86.3772 527.548 87.0424 527.388L87.5629 528.651Z" fill="#F28100"/>
<path d="M76.7321 538.329H73.4785V542H76.7321V538.329Z" fill="#37376D"/>
<path d="M80.9827 542H84.2508L82.9204 538.329H79.6523L80.9827 542Z" fill="#37376D"/>
<path d="M84.9762 200.095H83.7619V196.857C83.7619 195.959 83.0333 195.238 82.1429 195.238H78.9048V194.024C78.9048 193.487 78.6915 192.972 78.312 192.593C77.9325 192.213 77.4177 192 76.881 192C76.3442 192 75.8294 192.213 75.4499 192.593C75.0704 192.972 74.8571 193.487 74.8571 194.024V195.238H71.619C71.1896 195.238 70.7778 195.409 70.4742 195.712C70.1706 196.016 70 196.428 70 196.857V199.933H71.2143C72.4286 199.933 73.4 200.905 73.4 202.119C73.4 203.333 72.4286 204.305 71.2143 204.305H70V207.381C70 207.81 70.1706 208.222 70.4742 208.526C70.7778 208.829 71.1896 209 71.619 209H74.6952V207.786C74.6952 206.571 75.6667 205.6 76.881 205.6C78.0952 205.6 79.0667 206.571 79.0667 207.786V209H82.1429C82.5723 209 82.9841 208.829 83.2877 208.526C83.5913 208.222 83.7619 207.81 83.7619 207.381V204.143H84.9762C85.5129 204.143 86.0277 203.93 86.4072 203.55C86.7868 203.171 87 202.656 87 202.119C87 201.582 86.7868 201.068 86.4072 200.688C86.0277 200.308 85.5129 200.095 84.9762 200.095Z" fill="#747474"/>
<path d="M72 238.5L69 241.44V233H72V238.5ZM77 236.66L75.43 235.32L74 236.64V229H77V236.66ZM82 235L79 238V225H82V235ZM84.81 234.81L83 233H88V238L86.21 236.21L79 243.36L75.53 240.34L71.75 244H69L75.47 237.66L79 240.64" fill="#747474"/>
<path d="M80.763 268.325L79.953 269.153C79.305 269.801 78.9 270.35 78.9 271.7H77.1V271.25C77.1 270.251 77.505 269.351 78.153 268.703L79.269 267.569C79.602 267.245 79.8 266.795 79.8 266.3C79.8 265.301 78.99 264.5 78 264.5C77.5226 264.5 77.0648 264.69 76.7272 265.027C76.3896 265.365 76.2 265.823 76.2 266.3H74.4C74.4 265.345 74.7793 264.43 75.4544 263.754C76.1295 263.079 77.0452 262.7 78 262.7C78.9548 262.7 79.8705 263.079 80.5456 263.754C81.2207 264.43 81.6 265.345 81.6 266.3C81.6 267.092 81.276 267.803 80.763 268.325ZM78.9 275.3H77.1V273.5H78.9V275.3ZM78 260C76.8181 260 75.6478 260.233 74.5558 260.685C73.4639 261.137 72.4718 261.8 71.636 262.636C69.9482 264.324 69 266.613 69 269C69 271.387 69.9482 273.676 71.636 275.364C72.4718 276.2 73.4639 276.863 74.5558 277.315C75.6478 277.767 76.8181 278 78 278C80.3869 278 82.6761 277.052 84.364 275.364C86.0518 273.676 87 271.387 87 269C87 264.023 82.95 260 78 260Z" fill="#747474"/>
<path d="M50 61C50 52.7157 56.7157 46 65 46H105V101H50V61Z" fill="#0FA7F0"/>
<g filter="url(#filter2_d_813:49)">
<path d="M105 101L105 46L801 46C809.284 46 816 52.7157 816 61L816 101L105 101Z" fill="white"/>
</g>
<rect x="69" y="67" width="18" height="2" fill="white"/>
<rect x="69" y="72" width="18" height="2" fill="white"/>
<rect x="69" y="77" width="18" height="2" fill="white"/>
<path d="M586.834 73C586.834 77.5558 590.528 81.25 595.084 81.25C597.275 81.25 599.374 80.3883 600.951 78.8667L599.576 77.4917C598.411 78.7292 596.789 79.4167 595.084 79.4167C589.364 79.4167 586.504 72.505 590.546 68.4625C594.589 64.42 601.501 67.2892 601.501 73H598.751L602.417 76.6667H602.509L606.084 73H603.334C603.334 68.4442 599.64 64.75 595.084 64.75C590.528 64.75 586.834 68.4442 586.834 73Z" fill="#454545"/>
<path d="M643.501 76.3332V66.3332H628.501V76.3332H643.501ZM643.501 64.6665C643.943 64.6665 644.367 64.8421 644.679 65.1547C644.992 65.4672 645.167 65.8911 645.167 66.3332V76.3332C645.167 76.7752 644.992 77.1991 644.679 77.5117C644.367 77.8242 643.943 77.9998 643.501 77.9998H637.667V79.6665H639.334V81.3332H632.667V79.6665H634.334V77.9998H628.501C627.576 77.9998 626.834 77.2498 626.834 76.3332V66.3332C626.834 65.4082 627.576 64.6665 628.501 64.6665H643.501ZM630.167 67.9998H637.667V72.1665H630.167V67.9998ZM638.501 67.9998H641.834V69.6665H638.501V67.9998ZM641.834 70.4998V74.6665H638.501V70.4998H641.834ZM630.167 72.9998H633.501V74.6665H630.167V72.9998ZM634.334 72.9998H637.667V74.6665H634.334V72.9998Z" fill="#454545"/>
<path d="M673.833 65.5V70.5H680.5V65.5H673.833ZM673.833 80.5H680.5V72.1667H673.833V80.5ZM665.5 80.5H672.167V75.5H665.5V80.5ZM665.5 73.8333H672.167V65.5H665.5V73.8333Z" fill="#454545"/>
<path d="M701.5 76.1667V77.8333H706.5V76.1667H701.5ZM701.5 66.1667V67.8333H709.833V66.1667H701.5ZM709.833 79.5V77.8333H716.5V76.1667H709.833V74.5H708.167V79.5H709.833ZM704.833 69.5V71.1667H701.5V72.8333H704.833V74.5H706.5V69.5H704.833ZM716.5 72.8333V71.1667H708.167V72.8333H716.5ZM711.5 69.5H713.167V67.8333H716.5V66.1667H713.167V64.5H711.5V69.5Z" fill="#454545"/>
<path d="M739.001 64.6665C738.076 64.6665 737.334 65.4165 737.334 66.3332V79.6665C737.334 80.1085 737.51 80.5325 737.822 80.845C738.135 81.1576 738.559 81.3332 739.001 81.3332H749.001C749.443 81.3332 749.867 81.1576 750.179 80.845C750.492 80.5325 750.667 80.1085 750.667 79.6665V69.6665L745.667 64.6665H739.001ZM744.834 65.9165L749.417 70.4998H744.834V65.9165ZM741.442 73.1832H747.334V79.0748L745.567 77.3082L743.209 79.6665L740.851 77.3082L743.209 74.9582" fill="#454545"/>
<path d="M779.666 73V79.5667C779.7 79.8167 779.616 80.0833 779.425 80.2583C779.1 80.5833 778.575 80.5833 778.25 80.2583L776.575 78.5833C776.383 78.3917 776.3 78.1333 776.333 77.8917V73H776.308L771.508 66.85C771.225 66.4917 771.291 65.9667 771.65 65.6833C771.808 65.5667 771.983 65.5 772.166 65.5H783.833C784.016 65.5 784.191 65.5667 784.35 65.6833C784.708 65.9667 784.775 66.4917 784.491 66.85L779.691 73H779.666Z" fill="#0FA7F0"/>
<defs>
<filter id="filter0_b" x="0" y="0" width="866" height="613" filterUnits="userSpaceOnUse" color-interpolation-filters="sRGB">
<feFlood flood-opacity="0" result="BackgroundImageFix"/>
<feColorMatrix in="SourceAlpha" type="matrix" values="0 0 0 0 0 0 0 0 0 0 0 0 0 0 0 0 0 0 127 0" result="hardAlpha"/>
<feOffset dy="4"/>
<feGaussianBlur stdDeviation="25"/>
<feComposite in2="hardAlpha" operator="out"/>
<feColorMatrix type="matrix" values="0 0 0 0 0 0 0 0 0 0 0 0 0 0 0 0 0 0 0.1 0"/>
<feBlend mode="normal" in2="BackgroundImageFix" result="effect1_dropShadow"/>
<feBlend mode="normal" in="SourceGraphic" in2="effect1_dropShadow" result="shape"/>
</filter>
<filter id="filter1_d_813:49" x="30" y="71" width="115" height="518" filterUnits="userSpaceOnUse" color-interpolation-filters="sRGB">
<feFlood flood-opacity="0" result="BackgroundImageFix"/>
<feColorMatrix in="SourceAlpha" type="matrix" values="0 0 0 0 0 0 0 0 0 0 0 0 0 0 0 0 0 0 127 0" result="hardAlpha"/>
<feOffset dx="10"/>
<feGaussianBlur stdDeviation="15"/>
<feComposite in2="hardAlpha" operator="out"/>
<feColorMatrix type="matrix" values="0 0 0 0 0 0 0 0 0 0 0 0 0 0 0 0 0 0 0.1 0"/>
<feBlend mode="normal" in2="BackgroundImageFix" result="effect1_dropShadow"/>
<feBlend mode="normal" in="SourceGraphic" in2="effect1_dropShadow" result="shape"/>
</filter>
<filter id="filter2_d_813:49" x="85" y="16" width="771" height="115" filterUnits="userSpaceOnUse" color-interpolation-filters="sRGB">
<feFlood flood-opacity="0" result="BackgroundImageFix"/>
<feColorMatrix in="SourceAlpha" type="matrix" values="0 0 0 0 0 0 0 0 0 0 0 0 0 0 0 0 0 0 127 0" result="hardAlpha"/>
<feOffset dx="10"/>
<feGaussianBlur stdDeviation="15"/>
<feComposite in2="hardAlpha" operator="out"/>
<feColorMatrix type="matrix" values="0 0 0 0 0 0 0 0 0 0 0 0 0 0 0 0 0 0 0.1 0"/>
<feBlend mode="normal" in2="BackgroundImageFix" result="effect1_dropShadow"/>
<feBlend mode="normal" in="SourceGraphic" in2="effect1_dropShadow" result="shape"/>
</filter>
</defs>
</svg>
