<svg width="868" height="613" viewBox="0 0 868 613" fill="none" xmlns="http://www.w3.org/2000/svg">
<g filter="url(#filter0_a)">
<path d="M50 61C50 52.7157 56.7157 46 65 46H803C811.284 46 818 52.7157 818 61V544C818 552.284 811.284 559 803 559H65C56.7157 559 50 552.284 50 544V61Z" fill="white"/>
</g>
<circle opacity="0.6" cx="423.5" cy="318.5" r="126.5" fill="#FFE264"/>
<path d="M550 318.5C550 348.369 539.431 377.274 520.164 400.098C500.898 422.922 474.176 438.193 444.731 443.206C415.286 448.219 385.017 442.651 359.283 427.488C333.549 412.325 314.01 388.546 304.126 360.359C294.243 332.173 294.651 301.399 305.28 273.485C315.909 245.572 336.072 222.319 362.2 207.845C388.327 193.371 418.733 188.609 448.035 194.402C477.337 200.195 503.643 216.17 522.297 239.498L423.5 318.5H550Z" fill="#F28100"/>
<path d="M550 318.5C550 345.836 541.145 372.437 524.76 394.319C508.376 416.201 485.344 432.187 459.113 439.883C432.883 447.579 404.865 446.571 379.255 437.01C353.645 427.449 331.822 409.849 317.052 386.846C302.283 363.843 295.363 336.674 297.327 309.409C299.292 282.143 310.036 256.247 327.95 235.599C345.865 214.951 369.986 200.662 396.702 194.871C423.418 189.08 451.291 192.099 476.147 203.476L423.5 318.5H550Z" fill="#0FA7F0"/>
<g filter="url(#filter1_d_813:48)">
<path d="M50 101H105V559H65C56.7157 559 50 552.284 50 544V101Z" fill="white"/>
</g>
<path d="M76 139V133H80V139H85V131H88L78 122L68 131H71V139H76Z" fill="#747474"/>
<path d="M83.834 157.667L79.6673 161.417V170.583L83.834 166.833V157.667ZM73.4173 160.167C71.7923 160.167 70.0423 160.5 68.834 161.417V173.633C68.834 173.842 69.0423 174.05 69.2507 174.05C69.334 174.05 69.3757 173.992 69.459 173.992C70.584 173.45 72.209 173.083 73.4173 173.083C75.0423 173.083 76.7923 173.417 78.0007 174.333C79.1257 173.625 81.1673 173.083 82.584 173.083C83.959 173.083 85.3756 173.342 86.5423 173.967C86.6256 174.008 86.6673 173.992 86.7506 173.992C86.959 173.992 87.1673 173.783 87.1673 173.575V161.417C86.6673 161.042 86.1256 160.792 85.5006 160.583V171.833C84.584 171.542 83.584 171.417 82.584 171.417C81.1673 171.417 79.1257 171.958 78.0007 172.667V161.417C76.7923 160.5 75.0423 160.167 73.4173 160.167Z" fill="#747474"/>
<line x1="50" y1="503.5" x2="105" y2="503.5" stroke="#E1E1E9"/>
<path d="M69.3136 518.406L69.8342 523.224L69.921 524.138H67.8965L67.9977 523.224L68.5038 518.406L68.5472 518H69.2702L69.3136 518.406Z" fill="#F28100"/>
<path d="M85.4093 518.406L85.9154 523.224L86.0167 524.138H83.9922L84.079 523.224L84.5995 518.406L84.6429 518H85.3659L85.4093 518.406Z" fill="#F28100"/>
<path d="M75.9934 533.367C75.5885 533.729 75.198 534.034 74.7931 534.339C74.3882 534.643 73.9834 534.948 73.5495 535.238C72.6964 535.819 71.8287 536.356 70.831 536.806C70.3682 537.009 69.8187 536.806 69.6163 536.341C69.4283 535.92 69.5874 535.427 69.9633 535.195L69.9923 535.18C70.7442 534.716 71.4528 534.121 72.1469 533.483C72.4939 533.163 72.8265 532.83 73.1591 532.496C73.4772 532.162 73.8243 531.799 74.099 531.48C74.5907 530.914 75.4294 530.856 75.9934 531.335C76.5573 531.828 76.6152 532.67 76.138 533.236C76.0946 533.28 76.0512 533.323 75.9934 533.367Z" fill="#37376D"/>
<path d="M79.146 530.682C79.5798 530.783 80.1004 530.812 80.6065 530.812C81.1271 530.812 81.6622 530.769 82.1827 530.696C83.2383 530.551 84.294 530.275 85.2484 529.84L85.2628 529.826C85.7255 529.608 86.275 529.826 86.4775 530.29C86.6655 530.725 86.5064 531.219 86.116 531.451C85.017 532.118 83.8457 532.583 82.631 532.916C82.0237 533.076 81.4019 533.206 80.7656 533.279C80.1293 533.352 79.4642 533.395 78.7556 533.337H78.7411C78.0036 533.279 77.4541 532.626 77.512 531.886C77.5698 531.146 78.2206 530.595 78.958 530.653C79.0303 530.653 79.0882 530.667 79.146 530.682Z" fill="#37376D"/>
<path d="M86.2184 523.833C86.2184 526.924 82.0971 529.434 76.9926 529.434C71.888 529.434 67.7812 526.924 67.7812 523.833C67.7812 520.742 71.9169 518.232 77.007 518.232C82.0971 518.232 86.2184 520.742 86.2184 523.833Z" fill="#0FA7F0"/>
<path d="M83.0366 523.833C83.0366 525.545 80.3325 527.025 77.0066 527.025C73.6807 527.025 70.9766 525.545 70.9766 523.833C70.9766 522.121 73.6807 520.641 77.0066 520.641C80.3325 520.655 83.0366 522.135 83.0366 523.833Z" fill="white"/>
<path d="M79.0884 523.833C79.0884 524.994 78.163 525.923 77.0061 525.923C75.8493 525.923 74.9238 524.994 74.9238 523.833C74.9238 522.672 75.8493 521.744 77.0061 521.744C78.1485 521.744 79.0884 522.687 79.0884 523.833Z" fill="#37376D"/>
<path d="M82.9204 538.329L80.679 532.133C80.332 531.219 79.4644 530.609 78.4955 530.609H75.8203C74.5333 530.609 73.4922 531.654 73.4922 532.946V538.314H82.9204V538.329Z" fill="#0FA7F0"/>
<path d="M67 535.267C67.5061 534.817 68.2725 534.6 68.9811 534.73C69.6897 534.846 70.3693 535.296 70.7597 535.92C71.1646 536.544 71.2658 537.342 71.0779 538.039C70.8899 538.735 70.3838 539.345 69.7475 539.606L69.0245 538.474C69.2414 538.213 69.3426 537.937 69.3715 537.661C69.386 537.386 69.3281 537.139 69.1835 536.921C69.0534 536.704 68.8509 536.544 68.5907 536.443C68.3304 536.341 68.0412 536.327 67.7086 536.399L67 535.267Z" fill="#F28100"/>
<path d="M87.5629 528.651C87.3171 528.883 87.1725 529.129 87.1002 529.391C87.0424 529.652 87.0713 529.913 87.158 530.145C87.2593 530.377 87.4328 530.58 87.6642 530.711C87.8955 530.842 88.1847 530.914 88.5173 530.885L89.0524 532.119C88.4739 532.496 87.6931 532.568 87.0134 532.336C86.3338 532.104 85.7265 531.553 85.4517 530.871C85.1625 530.189 85.1625 529.376 85.4806 528.723C85.7843 528.056 86.3772 527.548 87.0424 527.388L87.5629 528.651Z" fill="#F28100"/>
<path d="M76.7321 538.329H73.4785V542H76.7321V538.329Z" fill="#37376D"/>
<path d="M80.9827 542H84.2508L82.9204 538.329H79.6523L80.9827 542Z" fill="#37376D"/>
<path d="M84.9762 200.095H83.7619V196.857C83.7619 195.959 83.0333 195.238 82.1429 195.238H78.9048V194.024C78.9048 193.487 78.6915 192.972 78.312 192.593C77.9325 192.213 77.4177 192 76.881 192C76.3442 192 75.8294 192.213 75.4499 192.593C75.0704 192.972 74.8571 193.487 74.8571 194.024V195.238H71.619C71.1896 195.238 70.7778 195.409 70.4742 195.712C70.1706 196.016 70 196.428 70 196.857V199.933H71.2143C72.4286 199.933 73.4 200.905 73.4 202.119C73.4 203.333 72.4286 204.305 71.2143 204.305H70V207.381C70 207.81 70.1706 208.222 70.4742 208.526C70.7778 208.829 71.1896 209 71.619 209H74.6952V207.786C74.6952 206.571 75.6667 205.6 76.881 205.6C78.0952 205.6 79.0667 206.571 79.0667 207.786V209H82.1429C82.5723 209 82.9841 208.829 83.2877 208.526C83.5913 208.222 83.7619 207.81 83.7619 207.381V204.143H84.9762C85.5129 204.143 86.0277 203.93 86.4072 203.55C86.7868 203.171 87 202.656 87 202.119C87 201.582 86.7868 201.068 86.4072 200.688C86.0277 200.308 85.5129 200.095 84.9762 200.095Z" fill="#747474"/>
<path d="M72 238.5L69 241.44V233H72V238.5ZM77 236.66L75.43 235.32L74 236.64V229H77V236.66ZM82 235L79 238V225H82V235ZM84.81 234.81L83 233H88V238L86.21 236.21L79 243.36L75.53 240.34L71.75 244H69L75.47 237.66L79 240.64" fill="#747474"/>
<path d="M80.763 268.325L79.953 269.153C79.305 269.801 78.9 270.35 78.9 271.7H77.1V271.25C77.1 270.251 77.505 269.351 78.153 268.703L79.269 267.569C79.602 267.245 79.8 266.795 79.8 266.3C79.8 265.301 78.99 264.5 78 264.5C77.5226 264.5 77.0648 264.69 76.7272 265.027C76.3896 265.365 76.2 265.823 76.2 266.3H74.4C74.4 265.345 74.7793 264.43 75.4544 263.754C76.1295 263.079 77.0452 262.7 78 262.7C78.9548 262.7 79.8705 263.079 80.5456 263.754C81.2207 264.43 81.6 265.345 81.6 266.3C81.6 267.092 81.276 267.803 80.763 268.325ZM78.9 275.3H77.1V273.5H78.9V275.3ZM78 260C76.8181 260 75.6478 260.233 74.5558 260.685C73.4639 261.137 72.4718 261.8 71.636 262.636C69.9482 264.324 69 266.613 69 269C69 271.387 69.9482 273.676 71.636 275.364C72.4718 276.2 73.4639 276.863 74.5558 277.315C75.6478 277.767 76.8181 278 78 278C80.3869 278 82.6761 277.052 84.364 275.364C86.0518 273.676 87 271.387 87 269C87 264.023 82.95 260 78 260Z" fill="#747474"/>
<path d="M50 61C50 52.7157 56.7157 46 65 46H105V101H50V61Z" fill="#0FA7F0"/>
<g filter="url(#filter2_d_813:48)">
<path d="M105 101L105 46L803 46C811.284 46 818 52.7157 818 61L818 101L105 101Z" fill="white"/>
</g>
<rect x="69" y="67" width="18" height="2" fill="white"/>
<rect x="69" y="72" width="18" height="2" fill="white"/>
<rect x="69" y="77" width="18" height="2" fill="white"/>
<path d="M329.564 467.1H333.627C336.993 467.1 338.676 468.381 338.676 470.942C338.676 473.503 336.993 474.784 333.627 474.784H330.992V479H329.564V467.1ZM337.231 470.942C337.231 470.455 337.14 470.047 336.959 469.718C336.778 469.378 336.517 469.123 336.177 468.953C335.848 468.772 335.486 468.647 335.089 468.579C334.692 468.5 334.228 468.46 333.695 468.46H330.992V473.424H333.695C334.794 473.424 335.656 473.243 336.279 472.88C336.914 472.517 337.231 471.871 337.231 470.942ZM340.803 467.1H344.866C348.232 467.1 349.915 468.381 349.915 470.942C349.915 473.503 348.232 474.784 344.866 474.784H342.231V479H340.803V467.1ZM348.47 470.942C348.47 470.455 348.38 470.047 348.198 469.718C348.017 469.378 347.756 469.123 347.416 468.953C347.088 468.772 346.725 468.647 346.328 468.579C345.932 468.5 345.467 468.46 344.934 468.46H342.231V473.424H344.934C346.034 473.424 346.895 473.243 347.518 472.88C348.153 472.517 348.47 471.871 348.47 470.942ZM363.263 481.805H361.903L361.92 479H352.043V467.1H353.471V477.64H360.356V467.1H361.784V477.64H363.263V481.805ZM368.74 474.954C368.74 474.24 368.87 473.6 369.131 473.033C369.392 472.466 369.732 472.013 370.151 471.673C370.582 471.333 371.052 471.078 371.562 470.908C372.083 470.727 372.616 470.636 373.16 470.636C374.169 470.636 375.007 470.857 375.676 471.299V472.625C375.053 472.138 374.271 471.894 373.33 471.894C372.446 471.894 371.687 472.149 371.052 472.659C370.417 473.169 370.1 473.923 370.1 474.92C370.1 475.906 370.412 476.66 371.035 477.181C371.67 477.691 372.423 477.946 373.296 477.946C374.203 477.946 375.024 477.725 375.761 477.283V478.643C374.99 479.017 374.106 479.204 373.109 479.204C371.93 479.204 370.905 478.836 370.032 478.099C369.171 477.362 368.74 476.314 368.74 474.954ZM378.333 478.065C377.471 477.294 377.041 476.246 377.041 474.92C377.041 473.594 377.471 472.551 378.333 471.792C379.194 471.021 380.214 470.636 381.393 470.636C382.583 470.636 383.603 471.021 384.453 471.792C385.314 472.551 385.745 473.594 385.745 474.92C385.745 476.246 385.314 477.294 384.453 478.065C383.603 478.824 382.583 479.204 381.393 479.204C380.214 479.204 379.194 478.824 378.333 478.065ZM383.535 477.113C384.101 476.569 384.385 475.838 384.385 474.92C384.385 474.002 384.101 473.277 383.535 472.744C382.968 472.2 382.254 471.928 381.393 471.928C380.531 471.928 379.817 472.2 379.251 472.744C378.684 473.277 378.401 474.002 378.401 474.92C378.401 475.838 378.684 476.569 379.251 477.113C379.817 477.646 380.531 477.912 381.393 477.912C382.254 477.912 382.968 477.646 383.535 477.113ZM395.669 475.158C395.669 476.416 395.283 477.408 394.513 478.133C393.753 478.847 392.75 479.204 391.504 479.204C390.234 479.204 389.209 478.785 388.427 477.946C387.656 477.107 387.271 475.934 387.271 474.427C387.271 473.112 387.497 471.979 387.951 471.027C388.404 470.075 389.016 469.361 389.787 468.885C390.308 468.568 390.846 468.318 391.402 468.137C391.968 467.944 392.433 467.825 392.796 467.78C393.17 467.735 393.555 467.644 393.952 467.508C394.348 467.361 394.677 467.157 394.938 466.896V468.324C394.62 468.551 394.229 468.721 393.765 468.834C393.3 468.936 392.784 469.061 392.218 469.208C391.651 469.355 391.107 469.582 390.586 469.888C390.076 470.194 389.679 470.579 389.396 471.044C389.112 471.509 388.863 472.064 388.648 472.71C388.942 472.257 389.362 471.888 389.906 471.605C390.45 471.322 391.033 471.18 391.657 471.18C392.756 471.18 393.697 471.548 394.479 472.285C395.272 473.022 395.669 473.979 395.669 475.158ZM388.631 475.192C388.631 475.974 388.891 476.626 389.413 477.147C389.934 477.657 390.62 477.912 391.47 477.912C392.342 477.912 393.034 477.657 393.544 477.147C394.054 476.637 394.309 475.985 394.309 475.192C394.309 474.399 394.054 473.747 393.544 473.237C393.034 472.727 392.342 472.472 391.47 472.472C390.654 472.472 389.974 472.75 389.43 473.305C388.897 473.849 388.631 474.478 388.631 475.192ZM400.38 472.098C400.324 472.993 400.256 473.775 400.176 474.444C400.097 475.113 399.984 475.759 399.836 476.382C399.689 476.994 399.508 477.493 399.292 477.878C399.088 478.263 398.828 478.569 398.51 478.796C398.193 479.023 397.83 479.136 397.422 479.136C397.094 479.136 396.765 479.074 396.436 478.949V477.878C396.618 477.946 396.799 477.98 396.98 477.98C397.66 477.98 398.153 477.385 398.459 476.195C398.777 474.994 398.975 473.209 399.054 470.84H405.055V479H403.695V472.098H400.38ZM418.312 471.792C419.173 472.551 419.604 473.594 419.604 474.92C419.604 476.246 419.173 477.294 418.312 478.065C417.462 478.824 416.442 479.204 415.252 479.204C414.175 479.204 413.217 478.881 412.379 478.235C411.551 477.578 411.07 476.682 410.934 475.549H408.928V479H407.568V470.84H408.928V474.291H410.934C411.07 473.158 411.551 472.268 412.379 471.622C413.217 470.965 414.175 470.636 415.252 470.636C416.442 470.636 417.462 471.021 418.312 471.792ZM413.11 472.744C412.543 473.277 412.26 474.002 412.26 474.92C412.26 475.838 412.543 476.569 413.11 477.113C413.676 477.646 414.39 477.912 415.252 477.912C416.113 477.912 416.827 477.646 417.394 477.113C417.96 476.569 418.244 475.838 418.244 474.92C418.244 474.002 417.96 473.277 417.394 472.744C416.827 472.2 416.113 471.928 415.252 471.928C414.39 471.928 413.676 472.2 413.11 472.744ZM421.857 481.21H420.531V477.776H421.619C422.582 476.076 423.047 473.764 423.013 470.84H429.099V477.776H430.289V481.21H428.963V479H421.857V481.21ZM424.322 472.064C424.265 474.297 423.857 476.201 423.098 477.776H427.739V472.064H424.322ZM438.735 477.3C438.735 477.719 438.944 477.929 439.364 477.929C439.545 477.929 439.755 477.889 439.993 477.81V478.915C439.653 479.04 439.313 479.102 438.973 479.102C438.191 479.102 437.692 478.773 437.477 478.116C436.604 478.841 435.544 479.204 434.298 479.204C433.504 479.204 432.824 478.994 432.258 478.575C431.702 478.144 431.425 477.527 431.425 476.722C431.425 475.759 431.782 475.062 432.496 474.631C433.221 474.189 434.094 473.968 435.114 473.968C435.862 473.968 436.615 474.053 437.375 474.223V473.934C437.375 473.311 437.171 472.818 436.763 472.455C436.355 472.081 435.782 471.894 435.046 471.894C434.014 471.894 433.023 472.098 432.071 472.506V471.18C433.136 470.817 434.173 470.636 435.182 470.636C436.292 470.636 437.159 470.936 437.783 471.537C438.417 472.126 438.735 472.982 438.735 474.104V477.3ZM432.819 476.654C432.819 477.107 432.989 477.453 433.329 477.691C433.68 477.918 434.099 478.031 434.587 478.031C435.709 478.031 436.638 477.634 437.375 476.841V475.345C436.604 475.186 435.913 475.107 435.301 475.107C434.609 475.107 434.02 475.232 433.533 475.481C433.057 475.719 432.819 476.11 432.819 476.654ZM440.89 474.92C440.89 473.583 441.298 472.534 442.114 471.775C442.942 471.016 443.888 470.636 444.953 470.636C445.951 470.636 446.772 470.885 447.418 471.384C448.076 471.883 448.506 472.5 448.71 473.237C448.914 473.962 448.926 474.722 448.744 475.515H442.25C442.33 476.32 442.687 476.926 443.321 477.334C443.956 477.742 444.721 477.946 445.616 477.946C446.614 477.946 447.509 477.725 448.302 477.283V478.609C447.543 479.006 446.58 479.204 445.412 479.204C444.12 479.204 443.044 478.836 442.182 478.099C441.321 477.362 440.89 476.303 440.89 474.92ZM447.537 474.325C447.571 474.087 447.554 473.838 447.486 473.577C447.418 473.316 447.294 473.056 447.112 472.795C446.942 472.534 446.676 472.319 446.313 472.149C445.951 471.979 445.526 471.894 445.038 471.894C444.302 471.894 443.661 472.109 443.117 472.54C442.585 472.971 442.296 473.566 442.25 474.325H447.537ZM453.966 479H452.606V472.098H449.597V470.84H456.958V472.098H453.966V479ZM457.675 474.954C457.675 474.24 457.805 473.6 458.066 473.033C458.326 472.466 458.666 472.013 459.086 471.673C459.516 471.333 459.987 471.078 460.497 470.908C461.018 470.727 461.551 470.636 462.095 470.636C463.103 470.636 463.942 470.857 464.611 471.299V472.625C463.987 472.138 463.205 471.894 462.265 471.894C461.381 471.894 460.621 472.149 459.987 472.659C459.352 473.169 459.035 473.923 459.035 474.92C459.035 475.906 459.346 476.66 459.97 477.181C460.604 477.691 461.358 477.946 462.231 477.946C463.137 477.946 463.959 477.725 464.696 477.283V478.643C463.925 479.017 463.041 479.204 462.044 479.204C460.865 479.204 459.839 478.836 458.967 478.099C458.105 477.362 457.675 476.314 457.675 474.954ZM467.502 479H465.904L468.267 476.008C467.643 475.827 467.162 475.509 466.822 475.056C466.482 474.603 466.312 474.081 466.312 473.492C466.312 472.744 466.584 472.115 467.128 471.605C467.672 471.095 468.42 470.84 469.372 470.84H473.384V479H472.024V476.144H469.729L467.502 479ZM468.148 472.438C467.83 472.687 467.672 473.039 467.672 473.492C467.672 473.945 467.83 474.297 468.148 474.546C468.476 474.795 468.924 474.92 469.491 474.92H472.024V472.064H469.491C468.924 472.064 468.476 472.189 468.148 472.438ZM482.088 465.247H483.414C482.7 466.312 482.145 467.542 481.748 468.936C481.351 470.33 481.153 471.701 481.153 473.05C481.153 474.399 481.351 475.77 481.748 477.164C482.145 478.558 482.7 479.788 483.414 480.853H482.088C481.329 479.754 480.728 478.518 480.286 477.147C479.844 475.764 479.623 474.399 479.623 473.05C479.623 471.701 479.844 470.341 480.286 468.97C480.728 467.587 481.329 466.346 482.088 465.247ZM492.442 470.381C492.442 470.97 492.284 471.503 491.966 471.979C491.66 472.444 491.258 472.761 490.759 472.931C491.349 473.112 491.853 473.447 492.272 473.934C492.703 474.41 492.918 475.05 492.918 475.855C492.918 476.932 492.516 477.759 491.711 478.337C490.918 478.915 489.909 479.204 488.685 479.204C487.133 479.204 485.79 478.949 484.656 478.439V477.028C485.756 477.595 487.059 477.872 488.566 477.861C490.55 477.861 491.541 477.17 491.541 475.787C491.541 474.404 490.601 473.713 488.719 473.713H486.951V472.353L488.566 472.37C489.382 472.37 490 472.2 490.419 471.86C490.85 471.509 491.065 471.055 491.065 470.5C491.065 469.899 490.827 469.429 490.351 469.089C489.875 468.738 489.201 468.562 488.328 468.562C487.127 468.562 485.971 468.857 484.86 469.446V468.052C485.926 467.508 487.144 467.236 488.515 467.236C489.694 467.236 490.64 467.525 491.354 468.103C492.08 468.681 492.442 469.44 492.442 470.381ZM496.079 472.897C497.178 472.16 498.385 471.792 499.7 471.792C500.754 471.792 501.678 472.115 502.471 472.761C503.264 473.396 503.661 474.28 503.661 475.413C503.661 476.603 503.264 477.532 502.471 478.201C501.689 478.87 500.703 479.204 499.513 479.204C497.881 479.204 496.657 478.7 495.841 477.691C495.036 476.671 494.634 475.243 494.634 473.407C494.634 471.367 495.116 469.831 496.079 468.8C497.054 467.757 498.323 467.236 499.887 467.236C500.896 467.236 501.831 467.457 502.692 467.899V469.259C501.853 468.817 500.93 468.596 499.921 468.596C498.856 468.596 497.966 468.942 497.252 469.633C496.549 470.313 496.158 471.401 496.079 472.897ZM496.096 474.325C496.311 476.694 497.416 477.878 499.411 477.878C500.25 477.878 500.924 477.685 501.434 477.3C501.955 476.915 502.216 476.308 502.216 475.481C502.216 474.642 501.95 474.042 501.417 473.679C500.884 473.305 500.193 473.118 499.343 473.118C498.085 473.118 497.003 473.52 496.096 474.325ZM504.955 471.027C504.955 469.837 505.346 468.908 506.128 468.239C506.921 467.57 507.913 467.236 509.103 467.236C510.735 467.236 511.953 467.746 512.758 468.766C513.574 469.775 513.982 471.197 513.982 473.033C513.982 475.073 513.494 476.614 512.52 477.657C511.556 478.688 510.293 479.204 508.729 479.204C507.72 479.204 506.785 478.983 505.924 478.541V477.181C506.762 477.623 507.686 477.844 508.695 477.844C509.76 477.844 510.644 477.504 511.347 476.824C512.061 476.133 512.457 475.039 512.537 473.543C511.426 474.28 510.219 474.648 508.916 474.648C507.862 474.648 506.938 474.331 506.145 473.696C505.351 473.05 504.955 472.16 504.955 471.027ZM509.205 468.562C508.366 468.562 507.686 468.755 507.165 469.14C506.655 469.525 506.4 470.132 506.4 470.959C506.4 471.798 506.666 472.404 507.199 472.778C507.731 473.141 508.423 473.322 509.273 473.322C510.531 473.322 511.613 472.92 512.52 472.115C512.304 469.746 511.199 468.562 509.205 468.562ZM514.776 465.247H516.102C516.861 466.346 517.462 467.587 517.904 468.97C518.346 470.341 518.567 471.701 518.567 473.05C518.567 474.399 518.346 475.764 517.904 477.147C517.462 478.518 516.861 479.754 516.102 480.853H514.776C515.49 479.788 516.045 478.558 516.442 477.164C516.839 475.77 517.037 474.399 517.037 473.05C517.037 471.701 516.839 470.33 516.442 468.936C516.045 467.542 515.49 466.312 514.776 465.247Z" fill="#454545"/>
<path d="M569.564 280.1H574.443C575.69 280.1 576.676 280.361 577.401 280.882C578.126 281.392 578.489 282.134 578.489 283.109C578.489 283.812 578.302 284.39 577.928 284.843C577.554 285.285 577.106 285.585 576.585 285.744C577.22 285.914 577.775 286.243 578.251 286.73C578.727 287.206 578.965 287.875 578.965 288.736C578.965 289.257 578.863 289.716 578.659 290.113C578.466 290.51 578.217 290.827 577.911 291.065C577.616 291.292 577.265 291.479 576.857 291.626C576.46 291.773 576.075 291.875 575.701 291.932C575.338 291.977 574.964 292 574.579 292H569.564V280.1ZM577.52 288.583C577.52 287.212 576.574 286.526 574.681 286.526H570.992V290.64H574.29C574.653 290.64 574.959 290.634 575.208 290.623C575.457 290.6 575.741 290.555 576.058 290.487C576.375 290.408 576.63 290.3 576.823 290.164C577.016 290.017 577.18 289.813 577.316 289.552C577.452 289.28 577.52 288.957 577.52 288.583ZM577.044 283.313C577.044 282.644 576.812 282.168 576.347 281.885C575.894 281.602 575.219 281.46 574.324 281.46H570.992V285.166H574.715C575.395 285.166 575.95 285.019 576.381 284.724C576.823 284.418 577.044 283.948 577.044 283.313ZM584.805 292H580.929V283.84H582.289V286.696H584.805C585.78 286.696 586.55 286.945 587.117 287.444C587.684 287.943 587.967 288.577 587.967 289.348C587.967 290.119 587.684 290.753 587.117 291.252C586.55 291.751 585.78 292 584.805 292ZM582.289 287.92V290.776H584.635C585.247 290.776 585.723 290.657 586.063 290.419C586.414 290.181 586.59 289.824 586.59 289.348C586.59 288.872 586.414 288.515 586.063 288.277C585.723 288.039 585.247 287.92 584.635 287.92H582.289ZM590.908 292H589.548V283.84H590.908V292ZM604.82 292H593.43V283.84H594.79V290.742H598.445V283.84H599.805V290.742H603.46V283.84H604.82V292ZM606.781 287.92C606.781 286.583 607.189 285.534 608.005 284.775C608.832 284.016 609.779 283.636 610.844 283.636C611.841 283.636 612.663 283.885 613.309 284.384C613.966 284.883 614.397 285.5 614.601 286.237C614.805 286.962 614.816 287.722 614.635 288.515H608.141C608.22 289.32 608.577 289.926 609.212 290.334C609.847 290.742 610.612 290.946 611.507 290.946C612.504 290.946 613.4 290.725 614.193 290.283V291.609C613.434 292.006 612.47 292.204 611.303 292.204C610.011 292.204 608.934 291.836 608.073 291.099C607.212 290.362 606.781 289.303 606.781 287.92ZM613.428 287.325C613.462 287.087 613.445 286.838 613.377 286.577C613.309 286.316 613.184 286.056 613.003 285.795C612.833 285.534 612.567 285.319 612.204 285.149C611.841 284.979 611.416 284.894 610.929 284.894C610.192 284.894 609.552 285.109 609.008 285.54C608.475 285.971 608.186 286.566 608.141 287.325H613.428ZM621.162 280.1H625.225C628.591 280.1 630.274 281.381 630.274 283.942C630.274 286.503 628.591 287.784 625.225 287.784H622.59V292H621.162V280.1ZM628.829 283.942C628.829 283.455 628.738 283.047 628.557 282.718C628.375 282.378 628.115 282.123 627.775 281.953C627.446 281.772 627.083 281.647 626.687 281.579C626.29 281.5 625.825 281.46 625.293 281.46H622.59V286.424H625.293C626.392 286.424 627.253 286.243 627.877 285.88C628.511 285.517 628.829 284.871 628.829 283.942ZM632.401 280.1H636.464C639.83 280.1 641.513 281.381 641.513 283.942C641.513 286.503 639.83 287.784 636.464 287.784H633.829V292H632.401V280.1ZM640.068 283.942C640.068 283.455 639.977 283.047 639.796 282.718C639.615 282.378 639.354 282.123 639.014 281.953C638.685 281.772 638.323 281.647 637.926 281.579C637.529 281.5 637.065 281.46 636.532 281.46H633.829V286.424H636.532C637.631 286.424 638.493 286.243 639.116 285.88C639.751 285.517 640.068 284.871 640.068 283.942ZM654.86 294.805H653.5L653.517 292H643.64V280.1H645.068V290.64H651.953V280.1H653.381V290.64H654.86V294.805ZM662.854 278.247H664.18C663.466 279.312 662.91 280.542 662.514 281.936C662.117 283.33 661.919 284.701 661.919 286.05C661.919 287.399 662.117 288.77 662.514 290.164C662.91 291.558 663.466 292.788 664.18 293.853H662.854C662.094 292.754 661.494 291.518 661.052 290.147C660.61 288.764 660.389 287.399 660.389 286.05C660.389 284.701 660.61 283.341 661.052 281.97C661.494 280.587 662.094 279.346 662.854 278.247ZM666.435 285.897C667.535 285.16 668.742 284.792 670.056 284.792C671.11 284.792 672.034 285.115 672.827 285.761C673.621 286.396 674.017 287.28 674.017 288.413C674.017 289.603 673.621 290.532 672.827 291.201C672.045 291.87 671.059 292.204 669.869 292.204C668.237 292.204 667.013 291.7 666.197 290.691C665.393 289.671 664.99 288.243 664.99 286.407C664.99 284.367 665.472 282.831 666.435 281.8C667.41 280.757 668.679 280.236 670.243 280.236C671.252 280.236 672.187 280.457 673.048 280.899V282.259C672.21 281.817 671.286 281.596 670.277 281.596C669.212 281.596 668.322 281.942 667.608 282.633C666.906 283.313 666.515 284.401 666.435 285.897ZM666.452 287.325C666.668 289.694 667.773 290.878 669.767 290.878C670.606 290.878 671.28 290.685 671.79 290.3C672.312 289.915 672.572 289.308 672.572 288.481C672.572 287.642 672.306 287.042 671.773 286.679C671.241 286.305 670.549 286.118 669.699 286.118C668.441 286.118 667.359 286.52 666.452 287.325ZM676.263 280.44H683.199V281.8H677.606L677.402 285.064C678.014 284.894 678.671 284.809 679.374 284.809C679.952 284.809 680.49 284.877 680.989 285.013C681.488 285.138 681.947 285.342 682.366 285.625C682.797 285.897 683.137 286.282 683.386 286.781C683.635 287.268 683.76 287.846 683.76 288.515C683.76 289.66 683.335 290.561 682.485 291.218C681.646 291.875 680.575 292.204 679.272 292.204C677.867 292.204 676.631 291.943 675.566 291.422V290.062C676.586 290.606 677.765 290.878 679.102 290.878C680.077 290.878 680.853 290.674 681.431 290.266C682.02 289.858 682.315 289.274 682.315 288.515C682.315 286.906 681.17 286.101 678.881 286.101C677.884 286.101 676.886 286.282 675.889 286.645L676.263 280.44ZM684.867 278.247H686.193C686.952 279.346 687.553 280.587 687.995 281.97C688.437 283.341 688.658 284.701 688.658 286.05C688.658 287.399 688.437 288.764 687.995 290.147C687.553 291.518 686.952 292.754 686.193 293.853H684.867C685.581 292.788 686.136 291.558 686.533 290.164C686.929 288.77 687.128 287.399 687.128 286.05C687.128 284.701 686.929 283.33 686.533 281.936C686.136 280.542 685.581 279.312 684.867 278.247Z" fill="#454545"/>
<path d="M527.047 197.1H528.475V209H527.047V203.713H519.992V209H518.564V197.1H519.992V202.353H527.047V197.1ZM537.787 207.3C537.787 207.719 537.997 207.929 538.416 207.929C538.598 207.929 538.807 207.889 539.045 207.81V208.915C538.705 209.04 538.365 209.102 538.025 209.102C537.243 209.102 536.745 208.773 536.529 208.116C535.657 208.841 534.597 209.204 533.35 209.204C532.557 209.204 531.877 208.994 531.31 208.575C530.755 208.144 530.477 207.527 530.477 206.722C530.477 205.759 530.834 205.062 531.548 204.631C532.274 204.189 533.146 203.968 534.166 203.968C534.914 203.968 535.668 204.053 536.427 204.223V203.934C536.427 203.311 536.223 202.818 535.815 202.455C535.407 202.081 534.835 201.894 534.098 201.894C533.067 201.894 532.075 202.098 531.123 202.506V201.18C532.189 200.817 533.226 200.636 534.234 200.636C535.345 200.636 536.212 200.936 536.835 201.537C537.47 202.126 537.787 202.982 537.787 204.104V207.3ZM531.871 206.654C531.871 207.107 532.041 207.453 532.381 207.691C532.733 207.918 533.152 208.031 533.639 208.031C534.761 208.031 535.691 207.634 536.427 206.841V205.345C535.657 205.186 534.965 205.107 534.353 205.107C533.662 205.107 533.073 205.232 532.585 205.481C532.109 205.719 531.871 206.11 531.871 206.654ZM541.728 202.2C542.646 201.157 543.745 200.636 545.026 200.636C546.193 200.636 547.162 201.044 547.933 201.86C548.715 202.676 549.106 203.696 549.106 204.92C549.106 206.144 548.715 207.164 547.933 207.98C547.162 208.796 546.193 209.204 545.026 209.204C543.734 209.204 542.68 208.728 541.864 207.776V212.74H540.504V200.84H541.728V202.2ZM546.913 207.113C547.468 206.558 547.746 205.827 547.746 204.92C547.746 204.013 547.468 203.282 546.913 202.727C546.369 202.172 545.689 201.894 544.873 201.894C544.182 201.894 543.57 202.087 543.037 202.472C542.504 202.857 542.113 203.333 541.864 203.9V205.94C542.113 206.507 542.504 206.983 543.037 207.368C543.57 207.753 544.182 207.946 544.873 207.946C545.689 207.946 546.369 207.668 546.913 207.113ZM554.214 207.453L556.968 200.84H558.413L554.401 210.224C553.619 212.037 552.594 212.944 551.324 212.944C551.018 212.944 550.724 212.904 550.44 212.825V211.652C550.678 211.72 550.916 211.754 551.154 211.754C552.027 211.754 552.73 211.091 553.262 209.765L553.568 209.017L549.692 200.84H551.137L554.214 207.453ZM571.318 209H559.928V200.84H561.288V207.742H564.943V200.84H566.303V207.742H569.958V200.84H571.318V209ZM573.279 204.92C573.279 203.583 573.687 202.534 574.503 201.775C575.33 201.016 576.277 200.636 577.342 200.636C578.339 200.636 579.161 200.885 579.807 201.384C580.464 201.883 580.895 202.5 581.099 203.237C581.303 203.962 581.314 204.722 581.133 205.515H574.639C574.718 206.32 575.075 206.926 575.71 207.334C576.345 207.742 577.11 207.946 578.005 207.946C579.002 207.946 579.898 207.725 580.691 207.283V208.609C579.932 209.006 578.968 209.204 577.801 209.204C576.509 209.204 575.432 208.836 574.571 208.099C573.71 207.362 573.279 206.303 573.279 204.92ZM579.926 204.325C579.96 204.087 579.943 203.838 579.875 203.577C579.807 203.316 579.682 203.056 579.501 202.795C579.331 202.534 579.065 202.319 578.702 202.149C578.339 201.979 577.914 201.894 577.427 201.894C576.69 201.894 576.05 202.109 575.506 202.54C574.973 202.971 574.684 203.566 574.639 204.325H579.926ZM584.48 209H583.12V200.84H584.48V204.291H589.206V200.84H590.566V209H589.206V205.549H584.48V209ZM594.237 209H593.081V200.84H594.441V206.807L599.439 200.84H600.595V209H599.235V203.033L594.237 209ZM602.548 204.92C602.548 203.583 602.956 202.534 603.772 201.775C604.599 201.016 605.545 200.636 606.611 200.636C607.608 200.636 608.43 200.885 609.076 201.384C609.733 201.883 610.164 202.5 610.368 203.237C610.572 203.962 610.583 204.722 610.402 205.515H603.908C603.987 206.32 604.344 206.926 604.979 207.334C605.613 207.742 606.378 207.946 607.274 207.946C608.271 207.946 609.166 207.725 609.96 207.283V208.609C609.2 209.006 608.237 209.204 607.07 209.204C605.778 209.204 604.701 208.836 603.84 208.099C602.978 207.362 602.548 206.303 602.548 204.92ZM609.195 204.325C609.229 204.087 609.212 203.838 609.144 203.577C609.076 203.316 608.951 203.056 608.77 202.795C608.6 202.534 608.333 202.319 607.971 202.149C607.608 201.979 607.183 201.894 606.696 201.894C605.959 201.894 605.319 202.109 604.775 202.54C604.242 202.971 603.953 203.566 603.908 204.325H609.195ZM618.577 195.247H619.903C619.189 196.312 618.634 197.542 618.237 198.936C617.841 200.33 617.642 201.701 617.642 203.05C617.642 204.399 617.841 205.77 618.237 207.164C618.634 208.558 619.189 209.788 619.903 210.853H618.577C617.818 209.754 617.217 208.518 616.775 207.147C616.333 205.764 616.112 204.399 616.112 203.05C616.112 201.701 616.333 200.341 616.775 198.97C617.217 197.587 617.818 196.346 618.577 195.247ZM626.628 197.44H628.175V205.107H630.351V206.433H628.175V209H626.764V206.433H620.321V205.158L626.628 197.44ZM626.764 205.107V199.361L622.072 205.107H626.764ZM639.524 200.381C639.524 200.97 639.365 201.503 639.048 201.979C638.742 202.444 638.339 202.761 637.841 202.931C638.43 203.112 638.934 203.447 639.354 203.934C639.784 204.41 640 205.05 640 205.855C640 206.932 639.597 207.759 638.793 208.337C637.999 208.915 636.991 209.204 635.767 209.204C634.214 209.204 632.871 208.949 631.738 208.439V207.028C632.837 207.595 634.14 207.872 635.648 207.861C637.631 207.861 638.623 207.17 638.623 205.787C638.623 204.404 637.682 203.713 635.801 203.713H634.033V202.353L635.648 202.37C636.464 202.37 637.081 202.2 637.501 201.86C637.931 201.509 638.147 201.055 638.147 200.5C638.147 199.899 637.909 199.429 637.433 199.089C636.957 198.738 636.282 198.562 635.41 198.562C634.208 198.562 633.052 198.857 631.942 199.446V198.052C633.007 197.508 634.225 197.236 635.597 197.236C636.775 197.236 637.722 197.525 638.436 198.103C639.161 198.681 639.524 199.44 639.524 200.381ZM640.889 195.247H642.215C642.975 196.346 643.575 197.587 644.017 198.97C644.459 200.341 644.68 201.701 644.68 203.05C644.68 204.399 644.459 205.764 644.017 207.147C643.575 208.518 642.975 209.754 642.215 210.853H640.889C641.603 209.788 642.159 208.558 642.555 207.164C642.952 205.77 643.15 204.399 643.15 203.05C643.15 201.701 642.952 200.33 642.555 198.936C642.159 197.542 641.603 196.312 640.889 195.247Z" fill="#454545"/>
<path d="M586.834 73C586.834 77.5558 590.528 81.25 595.084 81.25C597.275 81.25 599.374 80.3883 600.951 78.8667L599.576 77.4917C598.411 78.7292 596.789 79.4167 595.084 79.4167C589.364 79.4167 586.504 72.505 590.546 68.4625C594.589 64.42 601.501 67.2892 601.501 73H598.751L602.417 76.6667H602.509L606.084 73H603.334C603.334 68.4442 599.64 64.75 595.084 64.75C590.528 64.75 586.834 68.4442 586.834 73Z" fill="#454545"/>
<path d="M643.501 76.3334V66.3334H628.501V76.3334H643.501ZM643.501 64.6667C643.943 64.6667 644.367 64.8423 644.679 65.1549C644.992 65.4675 645.167 65.8914 645.167 66.3334V76.3334C645.167 76.7754 644.992 77.1994 644.679 77.5119C644.367 77.8245 643.943 78.0001 643.501 78.0001H637.667V79.6667H639.334V81.3334H632.667V79.6667H634.334V78.0001H628.501C627.576 78.0001 626.834 77.2501 626.834 76.3334V66.3334C626.834 65.4084 627.576 64.6667 628.501 64.6667H643.501ZM630.167 68.0001H637.667V72.1667H630.167V68.0001ZM638.501 68.0001H641.834V69.6667H638.501V68.0001ZM641.834 70.5001V74.6667H638.501V70.5001H641.834ZM630.167 73.0001H633.501V74.6667H630.167V73.0001ZM634.334 73.0001H637.667V74.6667H634.334V73.0001Z" fill="#454545"/>
<path d="M673.833 65.5V70.5H680.5V65.5H673.833ZM673.833 80.5H680.5V72.1667H673.833V80.5ZM665.5 80.5H672.167V75.5H665.5V80.5ZM665.5 73.8333H672.167V65.5H665.5V73.8333Z" fill="#454545"/>
<path d="M701.5 76.1667V77.8333H706.5V76.1667H701.5ZM701.5 66.1667V67.8333H709.833V66.1667H701.5ZM709.833 79.5V77.8333H716.5V76.1667H709.833V74.5H708.167V79.5H709.833ZM704.833 69.5V71.1667H701.5V72.8333H704.833V74.5H706.5V69.5H704.833ZM716.5 72.8333V71.1667H708.167V72.8333H716.5ZM711.5 69.5H713.167V67.8333H716.5V66.1667H713.167V64.5H711.5V69.5Z" fill="#454545"/>
<path d="M739.001 64.6667C738.076 64.6667 737.334 65.4167 737.334 66.3334V79.6667C737.334 80.1088 737.51 80.5327 737.822 80.8453C738.135 81.1578 738.559 81.3334 739.001 81.3334H749.001C749.443 81.3334 749.867 81.1578 750.179 80.8453C750.492 80.5327 750.667 80.1088 750.667 79.6667V69.6667L745.667 64.6667H739.001ZM744.834 65.9167L749.417 70.5001H744.834V65.9167ZM741.442 73.1834H747.334V79.0751L745.567 77.3084L743.209 79.6667L740.851 77.3084L743.209 74.9584" fill="#454545"/>
<path d="M779.666 73V79.5667C779.7 79.8167 779.616 80.0833 779.425 80.2583C779.1 80.5833 778.575 80.5833 778.25 80.2583L776.575 78.5833C776.383 78.3917 776.3 78.1333 776.333 77.8917V73H776.308L771.508 66.85C771.225 66.4917 771.291 65.9667 771.65 65.6833C771.808 65.5667 771.983 65.5 772.166 65.5H783.833C784.016 65.5 784.191 65.5667 784.35 65.6833C784.708 65.9667 784.775 66.4917 784.491 66.85L779.691 73H779.666Z" fill="#0FA7F0"/>
<defs>
<filter id="filter0_a" x="0" y="0" width="868" height="613" filterUnits="userSpaceOnUse" color-interpolation-filters="sRGB">
<feFlood flood-opacity="0" result="BackgroundImageFix"/>
<feColorMatrix in="SourceAlpha" type="matrix" values="0 0 0 0 0 0 0 0 0 0 0 0 0 0 0 0 0 0 127 0" result="hardAlpha"/>
<feOffset dy="4"/>
<feGaussianBlur stdDeviation="25"/>
<feComposite in2="hardAlpha" operator="out"/>
<feColorMatrix type="matrix" values="0 0 0 0 0 0 0 0 0 0 0 0 0 0 0 0 0 0 0.1 0"/>
<feBlend mode="normal" in2="BackgroundImageFix" result="effect1_dropShadow"/>
<feBlend mode="normal" in="SourceGraphic" in2="effect1_dropShadow" result="shape"/>
</filter>
<filter id="filter1_d_813:48" x="30" y="71" width="115" height="518" filterUnits="userSpaceOnUse" color-interpolation-filters="sRGB">
<feFlood flood-opacity="0" result="BackgroundImageFix"/>
<feColorMatrix in="SourceAlpha" type="matrix" values="0 0 0 0 0 0 0 0 0 0 0 0 0 0 0 0 0 0 127 0" result="hardAlpha"/>
<feOffset dx="10"/>
<feGaussianBlur stdDeviation="15"/>
<feComposite in2="hardAlpha" operator="out"/>
<feColorMatrix type="matrix" values="0 0 0 0 0 0 0 0 0 0 0 0 0 0 0 0 0 0 0.1 0"/>
<feBlend mode="normal" in2="BackgroundImageFix" result="effect1_dropShadow"/>
<feBlend mode="normal" in="SourceGraphic" in2="effect1_dropShadow" result="shape"/>
</filter>
<filter id="filter2_d_813:48" x="85" y="16" width="773" height="115" filterUnits="userSpaceOnUse" color-interpolation-filters="sRGB">
<feFlood flood-opacity="0" result="BackgroundImageFix"/>
<feColorMatrix in="SourceAlpha" type="matrix" values="0 0 0 0 0 0 0 0 0 0 0 0 0 0 0 0 0 0 127 0" result="hardAlpha"/>
<feOffset dx="10"/>
<feGaussianBlur stdDeviation="15"/>
<feComposite in2="hardAlpha" operator="out"/>
<feColorMatrix type="matrix" values="0 0 0 0 0 0 0 0 0 0 0 0 0 0 0 0 0 0 0.1 0"/>
<feBlend mode="normal" in2="BackgroundImageFix" result="effect1_dropShadow"/>
<feBlend mode="normal" in="SourceGraphic" in2="effect1_dropShadow" result="shape"/>
</filter>
</defs>
</svg>
