<svg width="867" height="613" viewBox="0 0 867 613" fill="none" xmlns="http://www.w3.org/2000/svg">
<g filter="url(#filter0_g)">
<path d="M50 61C50 52.7157 56.7157 46 65 46H802C810.284 46 817 52.7157 817 61V544C817 552.284 810.284 559 802 559H65C56.7157 559 50 552.284 50 544V61Z" fill="white"/>
</g>
<rect x="150" y="508" width="14" height="14" rx="2" fill="#F28100"/>
<path d="M183.638 508.4H185.15V521H183.638V515.402H176.168V521H174.656V508.4H176.168V513.962H183.638V508.4ZM187.343 516.68C187.343 515.264 187.775 514.154 188.639 513.35C189.515 512.546 190.517 512.144 191.645 512.144C192.701 512.144 193.571 512.408 194.255 512.936C194.951 513.464 195.407 514.118 195.623 514.898C195.839 515.666 195.851 516.47 195.659 517.31H188.783C188.867 518.162 189.245 518.804 189.917 519.236C190.589 519.668 191.399 519.884 192.347 519.884C193.403 519.884 194.351 519.65 195.191 519.182V520.586C194.387 521.006 193.367 521.216 192.131 521.216C190.763 521.216 189.623 520.826 188.711 520.046C187.799 519.266 187.343 518.144 187.343 516.68ZM194.381 516.05C194.417 515.798 194.399 515.534 194.327 515.258C194.255 514.982 194.123 514.706 193.931 514.43C193.751 514.154 193.469 513.926 193.085 513.746C192.701 513.566 192.251 513.476 191.735 513.476C190.955 513.476 190.277 513.704 189.701 514.16C189.137 514.616 188.831 515.246 188.783 516.05H194.381ZM201.188 521H199.748V513.692H196.562V512.36H204.356V513.692H201.188V521ZM215.351 521H210.473V512.36H215.207C215.987 512.36 216.623 512.564 217.115 512.972C217.619 513.38 217.871 513.956 217.871 514.7C217.871 515.132 217.763 515.522 217.547 515.87C217.331 516.218 217.055 516.464 216.719 516.608C217.115 516.74 217.451 516.98 217.727 517.328C218.003 517.676 218.141 518.102 218.141 518.606C218.141 519.338 217.901 519.92 217.421 520.352C216.953 520.784 216.263 521 215.351 521ZM211.913 517.256V519.74H215.153C216.185 519.74 216.701 519.332 216.701 518.516C216.701 517.676 216.203 517.256 215.207 517.256H211.913ZM211.913 513.62V516.014H215.063C215.963 516.014 216.413 515.624 216.413 514.844C216.413 514.4 216.281 514.088 216.017 513.908C215.753 513.716 215.435 513.62 215.063 513.62H211.913ZM224.222 516.716C224.222 515.96 224.36 515.282 224.636 514.682C224.912 514.082 225.272 513.602 225.716 513.242C226.172 512.882 226.67 512.612 227.21 512.432C227.762 512.24 228.326 512.144 228.902 512.144C229.97 512.144 230.858 512.378 231.566 512.846V514.25C230.906 513.734 230.078 513.476 229.082 513.476C228.146 513.476 227.342 513.746 226.67 514.286C225.998 514.826 225.662 515.624 225.662 516.68C225.662 517.724 225.992 518.522 226.652 519.074C227.324 519.614 228.122 519.884 229.046 519.884C230.006 519.884 230.876 519.65 231.656 519.182V520.622C230.84 521.018 229.904 521.216 228.848 521.216C227.6 521.216 226.514 520.826 225.59 520.046C224.678 519.266 224.222 518.156 224.222 516.716ZM234.988 521H233.764V512.36H235.204V518.678L240.496 512.36H241.72V521H240.28V514.682L234.988 521ZM243.787 516.716C243.787 515.96 243.925 515.282 244.201 514.682C244.477 514.082 244.837 513.602 245.281 513.242C245.737 512.882 246.235 512.612 246.775 512.432C247.327 512.24 247.891 512.144 248.467 512.144C249.535 512.144 250.423 512.378 251.131 512.846V514.25C250.471 513.734 249.643 513.476 248.647 513.476C247.711 513.476 246.907 513.746 246.235 514.286C245.563 514.826 245.227 515.624 245.227 516.68C245.227 517.724 245.557 518.522 246.217 519.074C246.889 519.614 247.687 519.884 248.611 519.884C249.571 519.884 250.441 519.65 251.221 519.182V520.622C250.405 521.018 249.469 521.216 248.413 521.216C247.165 521.216 246.079 520.826 245.155 520.046C244.243 519.266 243.787 518.156 243.787 516.716ZM256.928 521H255.488V513.692H252.302V512.36H260.096V513.692H256.928V521ZM260.855 516.68C260.855 515.264 261.287 514.154 262.151 513.35C263.027 512.546 264.029 512.144 265.157 512.144C266.213 512.144 267.083 512.408 267.767 512.936C268.463 513.464 268.919 514.118 269.135 514.898C269.351 515.666 269.363 516.47 269.171 517.31H262.295C262.379 518.162 262.757 518.804 263.429 519.236C264.101 519.668 264.911 519.884 265.859 519.884C266.915 519.884 267.863 519.65 268.703 519.182V520.586C267.899 521.006 266.879 521.216 265.643 521.216C264.275 521.216 263.135 520.826 262.223 520.046C261.311 519.266 260.855 518.144 260.855 516.68ZM267.893 516.05C267.929 515.798 267.911 515.534 267.839 515.258C267.767 514.982 267.635 514.706 267.443 514.43C267.263 514.154 266.981 513.926 266.597 513.746C266.213 513.566 265.763 513.476 265.247 513.476C264.467 513.476 263.789 513.704 263.213 514.16C262.649 514.616 262.343 515.246 262.295 516.05H267.893ZM272.643 521H271.275V512.36H272.841L275.991 517.148L279.141 512.36H280.707V521H279.339V514.484L276.531 518.75H275.451L272.643 514.484V521ZM282.775 516.68C282.775 515.264 283.207 514.154 284.071 513.35C284.947 512.546 285.949 512.144 287.077 512.144C288.133 512.144 289.003 512.408 289.687 512.936C290.383 513.464 290.839 514.118 291.055 514.898C291.271 515.666 291.283 516.47 291.091 517.31H284.215C284.299 518.162 284.677 518.804 285.349 519.236C286.021 519.668 286.831 519.884 287.779 519.884C288.835 519.884 289.783 519.65 290.623 519.182V520.586C289.819 521.006 288.799 521.216 287.563 521.216C286.195 521.216 285.055 520.826 284.143 520.046C283.231 519.266 282.775 518.144 282.775 516.68ZM289.813 516.05C289.849 515.798 289.831 515.534 289.759 515.258C289.687 514.982 289.555 514.706 289.363 514.43C289.183 514.154 288.901 513.926 288.517 513.746C288.133 513.566 287.683 513.476 287.167 513.476C286.387 513.476 285.709 513.704 285.133 514.16C284.569 514.616 284.263 515.246 284.215 516.05H289.813Z" fill="#454545"/>
<rect x="460" y="508" width="14" height="14" rx="2" fill="#0FA7F0"/>
<path d="M484.782 523.97H483.342V519.56H484.872C486.24 517.088 486.924 513.368 486.924 508.4H494.664V519.56H496.248V523.97H494.808V521H484.782V523.97ZM488.472 509.84C488.208 514.328 487.572 517.568 486.564 519.56H493.152V509.84H488.472ZM498.641 520.01C497.729 519.194 497.273 518.084 497.273 516.68C497.273 515.276 497.729 514.172 498.641 513.368C499.553 512.552 500.633 512.144 501.881 512.144C503.141 512.144 504.221 512.552 505.121 513.368C506.033 514.172 506.489 515.276 506.489 516.68C506.489 518.084 506.033 519.194 505.121 520.01C504.221 520.814 503.141 521.216 501.881 521.216C500.633 521.216 499.553 520.814 498.641 520.01ZM504.149 519.002C504.749 518.426 505.049 517.652 505.049 516.68C505.049 515.708 504.749 514.94 504.149 514.376C503.549 513.8 502.793 513.512 501.881 513.512C500.969 513.512 500.213 513.8 499.613 514.376C499.013 514.94 498.713 515.708 498.713 516.68C498.713 517.652 499.013 518.426 499.613 519.002C500.213 519.566 500.969 519.848 501.881 519.848C502.793 519.848 503.549 519.566 504.149 519.002ZM507.961 516.716C507.961 515.96 508.099 515.282 508.375 514.682C508.651 514.082 509.011 513.602 509.455 513.242C509.911 512.882 510.409 512.612 510.949 512.432C511.501 512.24 512.065 512.144 512.641 512.144C513.709 512.144 514.597 512.378 515.305 512.846V514.25C514.645 513.734 513.817 513.476 512.821 513.476C511.885 513.476 511.081 513.746 510.409 514.286C509.737 514.826 509.401 515.624 509.401 516.68C509.401 517.724 509.731 518.522 510.391 519.074C511.063 519.614 511.861 519.884 512.785 519.884C513.745 519.884 514.615 519.65 515.395 519.182V520.622C514.579 521.018 513.643 521.216 512.587 521.216C511.339 521.216 510.253 520.826 509.329 520.046C508.417 519.266 507.961 518.156 507.961 516.716ZM521.102 521H519.662V513.692H516.476V512.36H524.27V513.692H521.102V521ZM529.54 519.362L532.456 512.36H533.986L529.738 522.296C528.91 524.216 527.824 525.176 526.48 525.176C526.156 525.176 525.844 525.134 525.544 525.05V523.808C525.796 523.88 526.048 523.916 526.3 523.916C527.224 523.916 527.968 523.214 528.532 521.81L528.856 521.018L524.752 512.36H526.282L529.54 519.362ZM537.03 521H535.59V512.36H543.474V521H542.034V513.692H537.03V521ZM545.543 516.68C545.543 515.264 545.975 514.154 546.839 513.35C547.715 512.546 548.717 512.144 549.845 512.144C550.901 512.144 551.771 512.408 552.455 512.936C553.151 513.464 553.607 514.118 553.823 514.898C554.039 515.666 554.051 516.47 553.859 517.31H546.983C547.067 518.162 547.445 518.804 548.117 519.236C548.789 519.668 549.599 519.884 550.547 519.884C551.603 519.884 552.551 519.65 553.391 519.182V520.586C552.587 521.006 551.567 521.216 550.331 521.216C548.963 521.216 547.823 520.826 546.911 520.046C545.999 519.266 545.543 518.144 545.543 516.68ZM552.581 516.05C552.617 515.798 552.599 515.534 552.527 515.258C552.455 514.982 552.323 514.706 552.131 514.43C551.951 514.154 551.669 513.926 551.285 513.746C550.901 513.566 550.451 513.476 549.935 513.476C549.155 513.476 548.477 513.704 547.901 514.16C547.337 514.616 547.031 515.246 546.983 516.05H552.581ZM557.403 521H555.963V512.36H557.403V516.014H562.407V512.36H563.847V521H562.407V517.346H557.403V521Z" fill="#454545"/>
<rect x="314" y="508" width="14" height="14" rx="3" fill="#FFEEA2"/>
<path d="M347.152 517.598C347.152 518.246 347.002 518.816 346.702 519.308C346.414 519.788 346.018 520.166 345.514 520.442C345.022 520.706 344.494 520.898 343.93 521.018C343.378 521.15 342.79 521.216 342.166 521.216C340.546 521.216 339.052 520.952 337.684 520.424V518.912C338.956 519.512 340.414 519.8 342.058 519.776C344.422 519.776 345.604 519.002 345.604 517.454C345.604 515.942 344.476 515.186 342.22 515.186H339.646V513.746H342.058C342.982 513.746 343.72 513.572 344.272 513.224C344.824 512.864 345.1 512.354 345.1 511.694C345.1 510.314 344.008 509.624 341.824 509.624C340.504 509.612 339.196 509.906 337.9 510.506V508.994C339.136 508.454 340.486 508.184 341.95 508.184C343.342 508.184 344.47 508.472 345.334 509.048C346.198 509.612 346.63 510.434 346.63 511.514C346.63 512.246 346.438 512.864 346.054 513.368C345.67 513.86 345.172 514.208 344.56 514.412C345.244 514.556 345.844 514.892 346.36 515.42C346.888 515.948 347.152 516.674 347.152 517.598ZM356.338 519.2C356.338 519.644 356.56 519.866 357.004 519.866C357.196 519.866 357.418 519.824 357.67 519.74V520.91C357.31 521.042 356.95 521.108 356.59 521.108C355.762 521.108 355.234 520.76 355.006 520.064C354.082 520.832 352.96 521.216 351.64 521.216C350.8 521.216 350.08 520.994 349.48 520.55C348.892 520.094 348.598 519.44 348.598 518.588C348.598 517.568 348.976 516.83 349.732 516.374C350.5 515.906 351.424 515.672 352.504 515.672C353.296 515.672 354.094 515.762 354.898 515.942V515.636C354.898 514.976 354.682 514.454 354.25 514.07C353.818 513.674 353.212 513.476 352.432 513.476C351.34 513.476 350.29 513.692 349.282 514.124V512.72C350.41 512.336 351.508 512.144 352.576 512.144C353.752 512.144 354.67 512.462 355.33 513.098C356.002 513.722 356.338 514.628 356.338 515.816V519.2ZM350.074 518.516C350.074 518.996 350.254 519.362 350.614 519.614C350.986 519.854 351.43 519.974 351.946 519.974C353.134 519.974 354.118 519.554 354.898 518.714V517.13C354.082 516.962 353.35 516.878 352.702 516.878C351.97 516.878 351.346 517.01 350.83 517.274C350.326 517.526 350.074 517.94 350.074 518.516ZM360.655 521H359.215V512.36H360.655V515.96H362.401L365.137 512.36H366.811L363.535 516.662L367.207 521H365.515L362.347 517.292H360.655V521ZM368.971 520.01C368.059 519.194 367.603 518.084 367.603 516.68C367.603 515.276 368.059 514.172 368.971 513.368C369.883 512.552 370.963 512.144 372.211 512.144C373.471 512.144 374.551 512.552 375.451 513.368C376.363 514.172 376.819 515.276 376.819 516.68C376.819 518.084 376.363 519.194 375.451 520.01C374.551 520.814 373.471 521.216 372.211 521.216C370.963 521.216 369.883 520.814 368.971 520.01ZM374.479 519.002C375.079 518.426 375.379 517.652 375.379 516.68C375.379 515.708 375.079 514.94 374.479 514.376C373.879 513.8 373.123 513.512 372.211 513.512C371.299 513.512 370.543 513.8 369.943 514.376C369.343 514.94 369.043 515.708 369.043 516.68C369.043 517.652 369.343 518.426 369.943 519.002C370.543 519.566 371.299 519.848 372.211 519.848C373.123 519.848 373.879 519.566 374.479 519.002ZM380.325 521H378.885V512.36H380.325V516.014H385.329V512.36H386.769V521H385.329V517.346H380.325V521ZM396.182 521H394.742V517.994C393.962 518.294 393.104 518.444 392.168 518.444C391.136 518.444 390.32 518.186 389.72 517.67C389.132 517.154 388.838 516.38 388.838 515.348V512.36H390.278V515.24C390.278 515.936 390.47 516.422 390.854 516.698C391.25 516.974 391.832 517.112 392.6 517.112C393.404 517.112 394.118 516.986 394.742 516.734V512.36H396.182V521ZM400.077 521H398.853V512.36H400.293V518.678L405.585 512.36H406.809V521H405.369V514.682L400.077 521ZM412.531 513.692C412.471 514.64 412.399 515.468 412.315 516.176C412.231 516.884 412.111 517.568 411.955 518.228C411.799 518.876 411.607 519.404 411.379 519.812C411.163 520.22 410.887 520.544 410.551 520.784C410.215 521.024 409.831 521.144 409.399 521.144C409.051 521.144 408.703 521.078 408.355 520.946V519.812C408.547 519.884 408.739 519.92 408.931 519.92C409.651 519.92 410.173 519.29 410.497 518.03C410.833 516.758 411.043 514.868 411.127 512.36H417.481V521H416.041V513.692H412.531ZM419.547 516.716C419.547 515.96 419.685 515.282 419.961 514.682C420.237 514.082 420.597 513.602 421.041 513.242C421.497 512.882 421.995 512.612 422.535 512.432C423.087 512.24 423.651 512.144 424.227 512.144C425.295 512.144 426.183 512.378 426.891 512.846V514.25C426.231 513.734 425.403 513.476 424.407 513.476C423.471 513.476 422.667 513.746 421.995 514.286C421.323 514.826 420.987 515.624 420.987 516.68C420.987 517.724 421.317 518.522 421.977 519.074C422.649 519.614 423.447 519.884 424.371 519.884C425.331 519.884 426.201 519.65 426.981 519.182V520.622C426.165 521.018 425.229 521.216 424.173 521.216C422.925 521.216 421.839 520.826 420.915 520.046C420.003 519.266 419.547 518.156 419.547 516.716ZM429.952 521H428.26L430.762 517.832C430.102 517.64 429.592 517.304 429.232 516.824C428.872 516.344 428.692 515.792 428.692 515.168C428.692 514.376 428.98 513.71 429.556 513.17C430.132 512.63 430.924 512.36 431.932 512.36H436.18V521H434.74V517.976H432.31L429.952 521ZM430.636 514.052C430.3 514.316 430.132 514.688 430.132 515.168C430.132 515.648 430.3 516.02 430.636 516.284C430.984 516.548 431.458 516.68 432.058 516.68H434.74V513.656H432.058C431.458 513.656 430.984 513.788 430.636 514.052Z" fill="#454545"/>
<g filter="url(#filter1_d_801:48)">
<path d="M50 101H105V559H65C56.7157 559 50 552.284 50 544V101Z" fill="white"/>
</g>
<path d="M76 139V133H80V139H85V131H88L78 122L68 131H71V139H76Z" fill="#747474"/>
<path d="M83.834 157.667L79.6673 161.417V170.583L83.834 166.833V157.667ZM73.4173 160.167C71.7923 160.167 70.0423 160.5 68.834 161.417V173.633C68.834 173.842 69.0423 174.05 69.2507 174.05C69.334 174.05 69.3757 173.992 69.459 173.992C70.584 173.45 72.209 173.083 73.4173 173.083C75.0423 173.083 76.7923 173.417 78.0007 174.333C79.1257 173.625 81.1673 173.083 82.584 173.083C83.959 173.083 85.3757 173.342 86.5423 173.967C86.6256 174.008 86.6673 173.992 86.7506 173.992C86.959 173.992 87.1673 173.783 87.1673 173.575V161.417C86.6673 161.042 86.1256 160.792 85.5006 160.583V171.833C84.584 171.542 83.584 171.417 82.584 171.417C81.1673 171.417 79.1257 171.958 78.0007 172.667V161.417C76.7923 160.5 75.0423 160.167 73.4173 160.167Z" fill="#747474"/>
<line x1="50" y1="503.5" x2="105" y2="503.5" stroke="#E1E1E9"/>
<path d="M69.3136 518.406L69.8342 523.224L69.921 524.138H67.8965L67.9977 523.224L68.5038 518.406L68.5472 518H69.2702L69.3136 518.406Z" fill="#F28100"/>
<path d="M85.4093 518.406L85.9154 523.224L86.0167 524.138H83.9922L84.079 523.224L84.5995 518.406L84.6429 518H85.3659L85.4093 518.406Z" fill="#F28100"/>
<path d="M75.9934 533.367C75.5885 533.729 75.198 534.034 74.7931 534.339C74.3882 534.643 73.9834 534.948 73.5495 535.238C72.6964 535.819 71.8287 536.356 70.831 536.806C70.3682 537.009 69.8187 536.806 69.6163 536.341C69.4283 535.92 69.5874 535.427 69.9633 535.195L69.9923 535.18C70.7442 534.716 71.4528 534.121 72.1469 533.483C72.4939 533.163 72.8265 532.83 73.1591 532.496C73.4772 532.162 73.8243 531.799 74.099 531.48C74.5907 530.914 75.4294 530.856 75.9934 531.335C76.5573 531.828 76.6152 532.67 76.138 533.236C76.0946 533.28 76.0512 533.323 75.9934 533.367Z" fill="#37376D"/>
<path d="M79.146 530.682C79.5798 530.783 80.1004 530.812 80.6065 530.812C81.1271 530.812 81.6622 530.769 82.1827 530.696C83.2383 530.551 84.294 530.275 85.2484 529.84L85.2628 529.826C85.7255 529.608 86.275 529.826 86.4775 530.29C86.6655 530.725 86.5064 531.219 86.116 531.451C85.017 532.118 83.8457 532.583 82.631 532.916C82.0237 533.076 81.4019 533.206 80.7656 533.279C80.1293 533.352 79.4642 533.395 78.7556 533.337H78.7411C78.0036 533.279 77.4541 532.626 77.512 531.886C77.5698 531.146 78.2206 530.595 78.958 530.653C79.0303 530.653 79.0882 530.667 79.146 530.682Z" fill="#37376D"/>
<path d="M86.2184 523.833C86.2184 526.924 82.0971 529.434 76.9926 529.434C71.888 529.434 67.7812 526.924 67.7812 523.833C67.7812 520.742 71.9169 518.232 77.007 518.232C82.0971 518.232 86.2184 520.742 86.2184 523.833Z" fill="#0FA7F0"/>
<path d="M83.0366 523.833C83.0366 525.545 80.3325 527.025 77.0066 527.025C73.6807 527.025 70.9766 525.545 70.9766 523.833C70.9766 522.121 73.6807 520.641 77.0066 520.641C80.3325 520.655 83.0366 522.135 83.0366 523.833Z" fill="white"/>
<path d="M79.0884 523.833C79.0884 524.994 78.163 525.923 77.0061 525.923C75.8493 525.923 74.9238 524.994 74.9238 523.833C74.9238 522.672 75.8493 521.744 77.0061 521.744C78.1485 521.744 79.0884 522.687 79.0884 523.833Z" fill="#37376D"/>
<path d="M82.9204 538.329L80.679 532.133C80.332 531.219 79.4644 530.609 78.4955 530.609H75.8203C74.5333 530.609 73.4922 531.654 73.4922 532.946V538.314H82.9204V538.329Z" fill="#0FA7F0"/>
<path d="M67 535.267C67.5061 534.817 68.2725 534.6 68.9811 534.73C69.6897 534.846 70.3693 535.296 70.7597 535.92C71.1646 536.544 71.2658 537.342 71.0779 538.039C70.8899 538.735 70.3838 539.345 69.7475 539.606L69.0245 538.474C69.2414 538.213 69.3426 537.937 69.3715 537.661C69.386 537.386 69.3281 537.139 69.1835 536.921C69.0534 536.704 68.8509 536.544 68.5907 536.443C68.3304 536.341 68.0412 536.327 67.7086 536.399L67 535.267Z" fill="#F28100"/>
<path d="M87.5629 528.651C87.3171 528.883 87.1725 529.129 87.1002 529.391C87.0424 529.652 87.0713 529.913 87.158 530.145C87.2593 530.377 87.4328 530.58 87.6642 530.711C87.8955 530.842 88.1847 530.914 88.5173 530.885L89.0524 532.119C88.4739 532.496 87.6931 532.568 87.0134 532.336C86.3338 532.104 85.7265 531.553 85.4517 530.871C85.1625 530.189 85.1625 529.376 85.4806 528.723C85.7843 528.056 86.3772 527.548 87.0424 527.388L87.5629 528.651Z" fill="#F28100"/>
<path d="M76.7321 538.329H73.4785V542H76.7321V538.329Z" fill="#37376D"/>
<path d="M80.9827 542H84.2508L82.9204 538.329H79.6523L80.9827 542Z" fill="#37376D"/>
<path d="M84.9762 200.095H83.7619V196.857C83.7619 195.959 83.0333 195.238 82.1429 195.238H78.9048V194.024C78.9048 193.487 78.6915 192.972 78.312 192.593C77.9325 192.213 77.4177 192 76.881 192C76.3442 192 75.8294 192.213 75.4499 192.593C75.0704 192.972 74.8571 193.487 74.8571 194.024V195.238H71.619C71.1896 195.238 70.7778 195.409 70.4742 195.712C70.1706 196.016 70 196.428 70 196.857V199.933H71.2143C72.4286 199.933 73.4 200.905 73.4 202.119C73.4 203.333 72.4286 204.305 71.2143 204.305H70V207.381C70 207.81 70.1706 208.222 70.4742 208.526C70.7778 208.829 71.1896 209 71.619 209H74.6952V207.786C74.6952 206.571 75.6667 205.6 76.881 205.6C78.0952 205.6 79.0667 206.571 79.0667 207.786V209H82.1429C82.5723 209 82.9841 208.829 83.2877 208.526C83.5913 208.222 83.7619 207.81 83.7619 207.381V204.143H84.9762C85.5129 204.143 86.0277 203.93 86.4072 203.55C86.7868 203.171 87 202.656 87 202.119C87 201.582 86.7868 201.068 86.4072 200.688C86.0277 200.308 85.5129 200.095 84.9762 200.095Z" fill="#747474"/>
<path d="M72 238.5L69 241.44V233H72V238.5ZM77 236.66L75.43 235.32L74 236.64V229H77V236.66ZM82 235L79 238V225H82V235ZM84.81 234.81L83 233H88V238L86.21 236.21L79 243.36L75.53 240.34L71.75 244H69L75.47 237.66L79 240.64" fill="#747474"/>
<path d="M80.763 268.325L79.953 269.153C79.305 269.801 78.9 270.35 78.9 271.7H77.1V271.25C77.1 270.251 77.505 269.351 78.153 268.703L79.269 267.569C79.602 267.245 79.8 266.795 79.8 266.3C79.8 265.301 78.99 264.5 78 264.5C77.5226 264.5 77.0648 264.69 76.7272 265.027C76.3896 265.365 76.2 265.823 76.2 266.3H74.4C74.4 265.345 74.7793 264.43 75.4544 263.754C76.1295 263.079 77.0452 262.7 78 262.7C78.9548 262.7 79.8705 263.079 80.5456 263.754C81.2207 264.43 81.6 265.345 81.6 266.3C81.6 267.092 81.276 267.803 80.763 268.325ZM78.9 275.3H77.1V273.5H78.9V275.3ZM78 260C76.8181 260 75.6478 260.233 74.5558 260.685C73.4639 261.137 72.4718 261.8 71.636 262.636C69.9482 264.324 69 266.613 69 269C69 271.387 69.9482 273.676 71.636 275.364C72.4718 276.2 73.4639 276.863 74.5558 277.315C75.6478 277.767 76.8181 278 78 278C80.3869 278 82.6761 277.052 84.364 275.364C86.0518 273.676 87 271.387 87 269C87 264.023 82.95 260 78 260Z" fill="#747474"/>
<path d="M50 61C50 52.7157 56.7157 46 65 46H105V101H50V61Z" fill="#0FA7F0"/>
<g filter="url(#filter2_d_801:48)">
<path d="M105 101L105 46L802 46C810.284 46 817 52.7157 817 61L817 101L105 101Z" fill="white"/>
</g>
<rect x="69" y="67" width="18" height="2" fill="white"/>
<rect x="69" y="72" width="18" height="2" fill="white"/>
<rect x="69" y="77" width="18" height="2" fill="white"/>
<path d="M582.834 73C582.834 77.5558 586.528 81.25 591.084 81.25C593.275 81.25 595.374 80.3883 596.951 78.8667L595.576 77.4917C594.411 78.7292 592.789 79.4167 591.084 79.4167C585.364 79.4167 582.504 72.505 586.546 68.4625C590.589 64.42 597.501 67.2892 597.501 73H594.751L598.417 76.6667H598.509L602.084 73H599.334C599.334 68.4442 595.64 64.75 591.084 64.75C586.528 64.75 582.834 68.4442 582.834 73Z" fill="#454545"/>
<path d="M639.501 76.3332V66.3332H624.501V76.3332H639.501ZM639.501 64.6665C639.943 64.6665 640.367 64.8421 640.679 65.1547C640.992 65.4672 641.167 65.8911 641.167 66.3332V76.3332C641.167 76.7752 640.992 77.1991 640.679 77.5117C640.367 77.8242 639.943 77.9998 639.501 77.9998H633.667V79.6665H635.334V81.3332H628.667V79.6665H630.334V77.9998H624.501C623.576 77.9998 622.834 77.2498 622.834 76.3332V66.3332C622.834 65.4082 623.576 64.6665 624.501 64.6665H639.501ZM626.167 67.9998H633.667V72.1665H626.167V67.9998ZM634.501 67.9998H637.834V69.6665H634.501V67.9998ZM637.834 70.4998V74.6665H634.501V70.4998H637.834ZM626.167 72.9998H629.501V74.6665H626.167V72.9998ZM630.334 72.9998H633.667V74.6665H630.334V72.9998Z" fill="#454545"/>
<path d="M669.833 65.5V70.5H676.5V65.5H669.833ZM669.833 80.5H676.5V72.1667H669.833V80.5ZM661.5 80.5H668.167V75.5H661.5V80.5ZM661.5 73.8333H668.167V65.5H661.5V73.8333Z" fill="#454545"/>
<path d="M697.5 76.1667V77.8333H702.5V76.1667H697.5ZM697.5 66.1667V67.8333H705.833V66.1667H697.5ZM705.833 79.5V77.8333H712.5V76.1667H705.833V74.5H704.167V79.5H705.833ZM700.833 69.5V71.1667H697.5V72.8333H700.833V74.5H702.5V69.5H700.833ZM712.5 72.8333V71.1667H704.167V72.8333H712.5ZM707.5 69.5H709.167V67.8333H712.5V66.1667H709.167V64.5H707.5V69.5Z" fill="#454545"/>
<path d="M735.001 64.6665C734.076 64.6665 733.334 65.4165 733.334 66.3332V79.6665C733.334 80.1085 733.51 80.5325 733.822 80.845C734.135 81.1576 734.559 81.3332 735.001 81.3332H745.001C745.443 81.3332 745.867 81.1576 746.179 80.845C746.492 80.5325 746.667 80.1085 746.667 79.6665V69.6665L741.667 64.6665H735.001ZM740.834 65.9165L745.417 70.4998H740.834V65.9165ZM737.442 73.1832H743.334V79.0748L741.567 77.3082L739.209 79.6665L736.851 77.3082L739.209 74.9582" fill="#454545"/>
<path d="M775.666 73V79.5667C775.7 79.8167 775.616 80.0833 775.425 80.2583C775.1 80.5833 774.575 80.5833 774.25 80.2583L772.575 78.5833C772.383 78.3917 772.3 78.1333 772.333 77.8917V73H772.308L767.508 66.85C767.225 66.4917 767.291 65.9667 767.65 65.6833C767.808 65.5667 767.983 65.5 768.166 65.5H779.833C780.016 65.5 780.191 65.5667 780.35 65.6833C780.708 65.9667 780.775 66.4917 780.491 66.85L775.691 73H775.666Z" fill="#0FA7F0"/>
<line x1="152" y1="364.5" x2="717" y2="364.5" stroke="#454545"/>
<line x1="152" y1="310.5" x2="717" y2="310.5" stroke="#DDDDE6" stroke-dasharray="7 7"/>
<line x1="152" y1="256.5" x2="717" y2="256.5" stroke="#DDDDE6" stroke-dasharray="7 7"/>
<line x1="152" y1="202.5" x2="717" y2="202.5" stroke="#DDDDE6" stroke-dasharray="7 7"/>
<line x1="152" y1="148.5" x2="717" y2="148.5" stroke="#DDDDE6" stroke-dasharray="7 7"/>
<path d="M211.4 457.535L211.4 456.239L224 456.239L224 457.751L214.262 457.751L221.03 462.269L221.03 463.205L214.262 467.723L224 467.723L224 469.235L211.4 469.235L211.4 467.939L219.176 462.737L211.4 457.535ZM222.2 446.367C222.644 446.367 222.866 446.145 222.866 445.701C222.866 445.509 222.824 445.287 222.74 445.035L223.91 445.035C224.042 445.395 224.108 445.755 224.108 446.115C224.108 446.943 223.76 447.471 223.064 447.699C223.832 448.623 224.216 449.745 224.216 451.065C224.216 451.905 223.994 452.625 223.55 453.225C223.094 453.813 222.44 454.107 221.588 454.107C220.568 454.107 219.83 453.729 219.374 452.973C218.906 452.205 218.672 451.281 218.672 450.201C218.672 449.409 218.762 448.611 218.942 447.807L218.636 447.807C217.976 447.807 217.454 448.023 217.07 448.455C216.674 448.887 216.476 449.493 216.476 450.273C216.476 451.365 216.692 452.415 217.124 453.423L215.72 453.423C215.336 452.295 215.144 451.197 215.144 450.129C215.144 448.953 215.462 448.035 216.098 447.375C216.722 446.703 217.628 446.367 218.816 446.367L222.2 446.367ZM221.516 452.631C221.996 452.631 222.362 452.451 222.614 452.091C222.854 451.719 222.974 451.275 222.974 450.759C222.974 449.571 222.554 448.587 221.714 447.807L220.13 447.807C219.962 448.623 219.878 449.355 219.878 450.003C219.878 450.735 220.01 451.359 220.274 451.875C220.526 452.379 220.94 452.631 221.516 452.631ZM224 442.05L224 443.49L215.36 443.49L215.36 437.172L216.692 437.172L216.692 442.05L224 442.05ZM222.2 428.613C222.644 428.613 222.866 428.391 222.866 427.947C222.866 427.755 222.824 427.533 222.74 427.281L223.91 427.281C224.042 427.641 224.108 428.001 224.108 428.361C224.108 429.189 223.76 429.717 223.064 429.945C223.832 430.869 224.216 431.991 224.216 433.311C224.216 434.151 223.994 434.871 223.55 435.471C223.094 436.059 222.44 436.353 221.588 436.353C220.568 436.353 219.83 435.975 219.374 435.219C218.906 434.451 218.672 433.527 218.672 432.447C218.672 431.655 218.762 430.857 218.942 430.053L218.636 430.053C217.976 430.053 217.454 430.269 217.07 430.701C216.674 431.133 216.476 431.739 216.476 432.519C216.476 433.611 216.692 434.661 217.124 435.669L215.72 435.669C215.336 434.541 215.144 433.443 215.144 432.375C215.144 431.199 215.462 430.281 216.098 429.621C216.722 428.949 217.628 428.613 218.816 428.613L222.2 428.613ZM221.516 434.877C221.996 434.877 222.362 434.697 222.614 434.337C222.854 433.965 222.974 433.521 222.974 433.005C222.974 431.817 222.554 430.833 221.714 430.053L220.13 430.053C219.962 430.869 219.878 431.601 219.878 432.249C219.878 432.981 220.01 433.605 220.274 434.121C220.526 434.625 220.94 434.877 221.516 434.877ZM221.678 419.274C222.482 419.274 223.106 419.622 223.55 420.318C223.994 421.002 224.216 421.95 224.216 423.162C224.216 424.374 223.994 425.436 223.55 426.348L222.182 426.348C222.65 425.472 222.884 424.47 222.884 423.342C222.884 421.59 222.428 420.714 221.516 420.714C220.688 420.714 220.274 421.35 220.274 422.622L220.274 424.512L218.942 424.512L218.942 422.622C218.942 421.47 218.57 420.894 217.826 420.894C217.37 420.894 217.028 421.11 216.8 421.542C216.572 421.974 216.458 422.55 216.458 423.27C216.458 424.314 216.686 425.292 217.142 426.204L215.792 426.204C215.348 425.232 215.126 424.2 215.126 423.108C215.126 421.932 215.354 421.032 215.81 420.408C216.254 419.772 216.86 419.454 217.628 419.454C218.144 419.454 218.57 419.598 218.906 419.886C219.242 420.174 219.464 420.564 219.572 421.056C219.704 420.54 219.956 420.114 220.328 419.778C220.7 419.442 221.15 419.274 221.678 419.274ZM224 415.934L224 417.158L215.36 417.158L215.36 415.718L221.678 415.718L215.36 410.426L215.36 409.202L224 409.202L224 410.642L217.682 410.642L224 415.934ZM224 405.101L224 406.541L215.36 406.541L215.36 405.101L219.014 405.101L219.014 400.097L215.36 400.097L215.36 398.657L224 398.657L224 400.097L220.346 400.097L220.346 405.101L224 405.101ZM211.76 388.92L211.76 387.804L222.56 387.804L222.56 385.518L224 385.518L224 391.89L222.56 391.89L222.56 389.316L213.362 389.316L214.334 391.89L212.894 391.89L211.76 388.92Z" fill="#454545"/>
<path d="M165 336.634L165 338.146L152.4 338.146L152.4 327.868L165 327.868L165 329.38L153.84 329.38L153.84 336.634L165 336.634ZM157.8 323.586C156.696 322.614 156.144 321.45 156.144 320.094C156.144 318.858 156.576 317.832 157.44 317.016C158.304 316.188 159.384 315.774 160.68 315.774C161.976 315.774 163.056 316.188 163.92 317.016C164.784 317.832 165.216 318.858 165.216 320.094C165.216 321.462 164.712 322.578 163.704 323.442L168.96 323.442L168.96 324.882L156.36 324.882L156.36 323.586L157.8 323.586ZM163.002 318.096C162.414 317.508 161.64 317.214 160.68 317.214C159.72 317.214 158.946 317.508 158.358 318.096C157.77 318.672 157.476 319.392 157.476 320.256C157.476 320.988 157.68 321.636 158.088 322.2C158.496 322.764 159 323.178 159.6 323.442L161.76 323.442C162.36 323.178 162.864 322.764 163.272 322.2C163.68 321.636 163.884 320.988 163.884 320.256C163.884 319.392 163.59 318.672 163.002 318.096ZM160.68 314.296C159.264 314.296 158.154 313.864 157.35 313C156.546 312.124 156.144 311.122 156.144 309.994C156.144 308.938 156.408 308.068 156.936 307.384C157.464 306.688 158.118 306.232 158.898 306.016C159.666 305.8 160.47 305.788 161.31 305.98L161.31 312.856C162.162 312.772 162.804 312.394 163.236 311.722C163.668 311.05 163.884 310.24 163.884 309.292C163.884 308.236 163.65 307.288 163.182 306.448L164.586 306.448C165.006 307.252 165.216 308.272 165.216 309.508C165.216 310.876 164.826 312.016 164.046 312.928C163.266 313.84 162.144 314.296 160.68 314.296ZM160.05 307.258C159.798 307.222 159.534 307.24 159.258 307.312C158.982 307.384 158.706 307.516 158.43 307.708C158.154 307.888 157.926 308.17 157.746 308.554C157.566 308.938 157.476 309.388 157.476 309.904C157.476 310.684 157.704 311.362 158.16 311.938C158.616 312.502 159.246 312.808 160.05 312.856L160.05 307.258ZM167.34 303.477L167.34 304.881L163.704 304.881L163.704 303.729C161.904 302.709 159.456 302.217 156.36 302.253L156.36 295.809L163.704 295.809L163.704 294.549L167.34 294.549L167.34 295.953L165 295.953L165 303.477L167.34 303.477ZM157.656 300.867C160.02 300.927 162.036 301.359 163.704 302.163L163.704 297.249L157.656 297.249L157.656 300.867ZM160.716 293.396C159.96 293.396 159.282 293.258 158.682 292.982C158.082 292.706 157.602 292.346 157.242 291.902C156.882 291.446 156.612 290.948 156.432 290.408C156.24 289.856 156.144 289.292 156.144 288.716C156.144 287.648 156.378 286.76 156.846 286.052L158.25 286.052C157.734 286.712 157.476 287.54 157.476 288.536C157.476 289.472 157.746 290.276 158.286 290.948C158.826 291.62 159.624 291.956 160.68 291.956C161.724 291.956 162.522 291.626 163.074 290.966C163.614 290.294 163.884 289.496 163.884 288.572C163.884 287.612 163.65 286.742 163.182 285.962L164.622 285.962C165.018 286.778 165.216 287.714 165.216 288.77C165.216 290.018 164.826 291.104 164.046 292.028C163.266 292.94 162.156 293.396 160.716 293.396ZM165 280.255L165 281.695L157.692 281.695L157.692 284.881L156.36 284.881L156.36 277.087L157.692 277.087L157.692 280.255L165 280.255ZM163.2 268.52C163.644 268.52 163.866 268.298 163.866 267.854C163.866 267.662 163.824 267.44 163.74 267.188L164.91 267.188C165.042 267.548 165.108 267.908 165.108 268.268C165.108 269.096 164.76 269.624 164.064 269.852C164.832 270.776 165.216 271.898 165.216 273.218C165.216 274.058 164.994 274.778 164.55 275.378C164.094 275.966 163.44 276.26 162.588 276.26C161.568 276.26 160.83 275.882 160.374 275.126C159.906 274.358 159.672 273.434 159.672 272.354C159.672 271.562 159.762 270.764 159.942 269.96L159.636 269.96C158.976 269.96 158.454 270.176 158.07 270.608C157.674 271.04 157.476 271.646 157.476 272.426C157.476 273.518 157.692 274.568 158.124 275.576L156.72 275.576C156.336 274.448 156.144 273.35 156.144 272.282C156.144 271.106 156.462 270.188 157.098 269.528C157.722 268.856 158.628 268.52 159.816 268.52L163.2 268.52ZM162.516 274.784C162.996 274.784 163.362 274.604 163.614 274.244C163.854 273.872 163.974 273.428 163.974 272.912C163.974 271.724 163.554 270.74 162.714 269.96L161.13 269.96C160.962 270.776 160.878 271.508 160.878 272.156C160.878 272.888 161.01 273.512 161.274 274.028C161.526 274.532 161.94 274.784 162.516 274.784ZM165 260.766L165 265.644L156.36 265.644L156.36 260.91C156.36 260.13 156.564 259.494 156.972 259.002C157.38 258.498 157.956 258.246 158.7 258.246C159.132 258.246 159.522 258.354 159.87 258.57C160.218 258.786 160.464 259.062 160.608 259.398C160.74 259.002 160.98 258.666 161.328 258.39C161.676 258.114 162.102 257.976 162.606 257.976C163.338 257.976 163.92 258.216 164.352 258.696C164.784 259.164 165 259.854 165 260.766ZM161.256 264.204L163.74 264.204L163.74 260.964C163.74 259.932 163.332 259.416 162.516 259.416C161.676 259.416 161.256 259.914 161.256 260.91L161.256 264.204ZM157.62 264.204L160.014 264.204L160.014 261.054C160.014 260.154 159.624 259.704 158.844 259.704C158.4 259.704 158.088 259.836 157.908 260.1C157.716 260.364 157.62 260.682 157.62 261.054L157.62 264.204ZM157.692 252.722C158.64 252.782 159.468 252.854 160.176 252.938C160.884 253.022 161.568 253.142 162.228 253.298C162.876 253.454 163.404 253.646 163.812 253.874C164.22 254.09 164.544 254.366 164.784 254.702C165.024 255.038 165.144 255.422 165.144 255.854C165.144 256.202 165.078 256.55 164.946 256.898L163.812 256.898C163.884 256.706 163.92 256.514 163.92 256.322C163.92 255.602 163.29 255.08 162.03 254.756C160.758 254.42 158.868 254.21 156.36 254.126L156.36 247.772L165 247.772L165 249.212L157.692 249.212L157.692 252.722ZM160.68 245.706C159.264 245.706 158.154 245.274 157.35 244.41C156.546 243.534 156.144 242.532 156.144 241.404C156.144 240.348 156.408 239.478 156.936 238.794C157.464 238.098 158.118 237.642 158.898 237.426C159.666 237.21 160.47 237.198 161.31 237.39L161.31 244.266C162.162 244.182 162.804 243.804 163.236 243.132C163.668 242.46 163.884 241.65 163.884 240.702C163.884 239.646 163.65 238.698 163.182 237.858L164.586 237.858C165.006 238.662 165.216 239.682 165.216 240.918C165.216 242.286 164.826 243.426 164.046 244.338C163.266 245.25 162.144 245.706 160.68 245.706ZM160.05 238.668C159.798 238.632 159.534 238.65 159.258 238.722C158.982 238.794 158.706 238.926 158.43 239.118C158.154 239.298 157.926 239.58 157.746 239.964C157.566 240.348 157.476 240.798 157.476 241.314C157.476 242.094 157.704 242.772 158.16 243.348C158.616 243.912 159.246 244.218 160.05 244.266L160.05 238.668ZM165 233.846L165 235.286L156.36 235.286L156.36 233.846L160.014 233.846L160.014 228.842L156.36 228.842L156.36 227.402L165 227.402L165 228.842L161.346 228.842L161.346 233.846L165 233.846ZM165 223.299L165 224.739L156.36 224.739L156.36 223.299L160.014 223.299L160.014 218.295L156.36 218.295L156.36 216.855L165 216.855L165 218.295L161.346 218.295L161.346 223.299L165 223.299ZM164.01 213.418C163.194 214.33 162.084 214.786 160.68 214.786C159.276 214.786 158.172 214.33 157.368 213.418C156.552 212.506 156.144 211.426 156.144 210.178C156.144 208.918 156.552 207.838 157.368 206.938C158.172 206.026 159.276 205.57 160.68 205.57C162.084 205.57 163.194 206.026 164.01 206.938C164.814 207.838 165.216 208.918 165.216 210.178C165.216 211.426 164.814 212.506 164.01 213.418ZM163.002 207.91C162.426 207.31 161.652 207.01 160.68 207.01C159.708 207.01 158.94 207.31 158.376 207.91C157.8 208.51 157.512 209.266 157.512 210.178C157.512 211.09 157.8 211.846 158.376 212.446C158.94 213.046 159.708 213.346 160.68 213.346C161.652 213.346 162.426 213.046 163.002 212.446C163.566 211.846 163.848 211.09 163.848 210.178C163.848 209.266 163.566 208.51 163.002 207.91ZM160.716 204.099C159.96 204.099 159.282 203.961 158.682 203.685C158.082 203.409 157.602 203.049 157.242 202.605C156.882 202.149 156.612 201.651 156.432 201.111C156.24 200.559 156.144 199.995 156.144 199.419C156.144 198.351 156.378 197.463 156.846 196.755L158.25 196.755C157.734 197.415 157.476 198.243 157.476 199.239C157.476 200.175 157.746 200.979 158.286 201.651C158.826 202.323 159.624 202.659 160.68 202.659C161.724 202.659 162.522 202.329 163.074 201.669C163.614 200.997 163.884 200.199 163.884 199.275C163.884 198.315 163.65 197.445 163.182 196.665L164.622 196.665C165.018 197.481 165.216 198.417 165.216 199.473C165.216 200.721 164.826 201.807 164.046 202.731C163.266 203.643 162.156 204.099 160.716 204.099ZM165 190.958L165 192.398L157.692 192.398L157.692 195.584L156.36 195.584L156.36 187.79L157.692 187.79L157.692 190.958L165 190.958ZM165 182.051L165 186.155L156.36 186.155L156.36 184.715L159.384 184.715L159.384 182.051C159.384 181.019 159.648 180.203 160.176 179.603C160.704 179.003 161.376 178.703 162.192 178.703C163.008 178.703 163.68 179.003 164.208 179.603C164.736 180.203 165 181.019 165 182.051ZM160.68 184.715L163.704 184.715L163.704 182.231C163.704 181.583 163.578 181.079 163.326 180.719C163.074 180.347 162.696 180.161 162.192 180.161C161.688 180.161 161.31 180.347 161.058 180.719C160.806 181.079 160.68 181.583 160.68 182.231L160.68 184.715ZM150.438 170.304L150.438 168.9C151.566 169.656 152.868 170.244 154.344 170.664C155.82 171.084 157.272 171.294 158.7 171.294C160.128 171.294 161.58 171.084 163.056 170.664C164.532 170.244 165.834 169.656 166.962 168.9L166.962 170.304C165.798 171.108 164.49 171.744 163.038 172.212C161.574 172.68 160.128 172.914 158.7 172.914C157.272 172.914 155.832 172.68 154.38 172.212C152.916 171.744 151.602 171.108 150.438 170.304ZM166.08 163.409L166.08 164.849L151.32 157.487L151.32 156.047L166.08 163.409ZM152.94 162.887C153.444 162.311 154.134 162.023 155.01 162.023C155.886 162.023 156.576 162.311 157.08 162.887C157.584 163.451 157.836 164.141 157.836 164.957C157.836 165.785 157.584 166.487 157.08 167.063C156.576 167.639 155.886 167.927 155.01 167.927C154.134 167.927 153.444 167.639 152.94 167.063C152.436 166.487 152.184 165.785 152.184 164.957C152.184 164.141 152.436 163.451 152.94 162.887ZM153.894 166.145C154.194 166.421 154.566 166.559 155.01 166.559C155.454 166.559 155.826 166.421 156.126 166.145C156.426 165.857 156.576 165.461 156.576 164.957C156.576 164.465 156.426 164.081 156.126 163.805C155.826 163.529 155.454 163.391 155.01 163.391C154.566 163.391 154.194 163.529 153.894 163.805C153.594 164.081 153.444 164.465 153.444 164.957C153.444 165.461 153.594 165.857 153.894 166.145ZM160.32 153.851C160.824 153.275 161.514 152.987 162.39 152.987C163.266 152.987 163.956 153.275 164.46 153.851C164.964 154.415 165.216 155.105 165.216 155.921C165.216 156.749 164.964 157.451 164.46 158.027C163.956 158.603 163.266 158.891 162.39 158.891C161.514 158.891 160.824 158.603 160.32 158.027C159.816 157.451 159.564 156.749 159.564 155.921C159.564 155.105 159.816 154.415 160.32 153.851ZM161.274 157.109C161.574 157.385 161.946 157.523 162.39 157.523C162.834 157.523 163.206 157.385 163.506 157.109C163.806 156.821 163.956 156.425 163.956 155.921C163.956 155.429 163.806 155.045 163.506 154.769C163.206 154.493 162.834 154.355 162.39 154.355C161.946 154.355 161.574 154.493 161.274 154.769C160.974 155.045 160.824 155.429 160.824 155.921C160.824 156.425 160.974 156.821 161.274 157.109ZM150.438 152.006L150.438 150.602C151.602 149.798 152.916 149.162 154.38 148.694C155.832 148.226 157.272 147.992 158.7 147.992C160.128 147.992 161.574 148.226 163.038 148.694C164.49 149.162 165.798 149.798 166.962 150.602L166.962 152.006C165.834 151.25 164.532 150.662 163.056 150.242C161.58 149.822 160.128 149.612 158.7 149.612C157.272 149.612 155.82 149.822 154.344 150.242C152.868 150.662 151.566 151.25 150.438 152.006Z" fill="#454545"/>
<path d="M277.4 458.335L277.4 457.039L290 457.039L290 458.551L280.262 458.551L287.03 463.069L287.03 464.005L280.262 468.523L290 468.523L290 470.035L277.4 470.035L277.4 468.739L285.176 463.537L277.4 458.335ZM288.2 447.168C288.644 447.168 288.866 446.946 288.866 446.502C288.866 446.31 288.824 446.088 288.74 445.836L289.91 445.836C290.042 446.196 290.108 446.556 290.108 446.916C290.108 447.744 289.76 448.272 289.064 448.5C289.832 449.424 290.216 450.546 290.216 451.866C290.216 452.706 289.994 453.426 289.55 454.026C289.094 454.614 288.44 454.908 287.588 454.908C286.568 454.908 285.83 454.53 285.374 453.774C284.906 453.006 284.672 452.082 284.672 451.002C284.672 450.21 284.762 449.412 284.942 448.608L284.636 448.608C283.976 448.608 283.454 448.824 283.07 449.256C282.674 449.688 282.476 450.294 282.476 451.074C282.476 452.166 282.692 453.216 283.124 454.224L281.72 454.224C281.336 453.096 281.144 451.998 281.144 450.93C281.144 449.754 281.462 448.836 282.098 448.176C282.722 447.504 283.628 447.168 284.816 447.168L288.2 447.168ZM287.516 453.432C287.996 453.432 288.362 453.252 288.614 452.892C288.854 452.52 288.974 452.076 288.974 451.56C288.974 450.372 288.554 449.388 287.714 448.608L286.13 448.608C285.962 449.424 285.878 450.156 285.878 450.804C285.878 451.536 286.01 452.16 286.274 452.676C286.526 453.18 286.94 453.432 287.516 453.432ZM290 442.851L290 444.291L281.36 444.291L281.36 437.973L282.692 437.973L282.692 442.851L290 442.851ZM288.2 429.414C288.644 429.414 288.866 429.192 288.866 428.748C288.866 428.556 288.824 428.334 288.74 428.082L289.91 428.082C290.042 428.442 290.108 428.802 290.108 429.162C290.108 429.99 289.76 430.518 289.064 430.746C289.832 431.67 290.216 432.792 290.216 434.112C290.216 434.952 289.994 435.672 289.55 436.272C289.094 436.86 288.44 437.154 287.588 437.154C286.568 437.154 285.83 436.776 285.374 436.02C284.906 435.252 284.672 434.328 284.672 433.248C284.672 432.456 284.762 431.658 284.942 430.854L284.636 430.854C283.976 430.854 283.454 431.07 283.07 431.502C282.674 431.934 282.476 432.54 282.476 433.32C282.476 434.412 282.692 435.462 283.124 436.47L281.72 436.47C281.336 435.342 281.144 434.244 281.144 433.176C281.144 432 281.462 431.082 282.098 430.422C282.722 429.75 283.628 429.414 284.816 429.414L288.2 429.414ZM287.516 435.678C287.996 435.678 288.362 435.498 288.614 435.138C288.854 434.766 288.974 434.322 288.974 433.806C288.974 432.618 288.554 431.634 287.714 430.854L286.13 430.854C285.962 431.67 285.878 432.402 285.878 433.05C285.878 433.782 286.01 434.406 286.274 434.922C286.526 435.426 286.94 435.678 287.516 435.678ZM287.678 420.075C288.482 420.075 289.106 420.423 289.55 421.119C289.994 421.803 290.216 422.751 290.216 423.963C290.216 425.175 289.994 426.237 289.55 427.149L288.182 427.149C288.65 426.273 288.884 425.271 288.884 424.143C288.884 422.391 288.428 421.515 287.516 421.515C286.688 421.515 286.274 422.151 286.274 423.423L286.274 425.313L284.942 425.313L284.942 423.423C284.942 422.271 284.57 421.695 283.826 421.695C283.37 421.695 283.028 421.911 282.8 422.343C282.572 422.775 282.458 423.351 282.458 424.071C282.458 425.115 282.686 426.093 283.142 427.005L281.792 427.005C281.348 426.033 281.126 425.001 281.126 423.909C281.126 422.733 281.354 421.833 281.81 421.209C282.254 420.573 282.86 420.255 283.628 420.255C284.144 420.255 284.57 420.399 284.906 420.687C285.242 420.975 285.464 421.365 285.572 421.857C285.704 421.341 285.956 420.915 286.328 420.579C286.7 420.243 287.15 420.075 287.678 420.075ZM290 416.735L290 417.959L281.36 417.959L281.36 416.519L287.678 416.519L281.36 411.227L281.36 410.003L290 410.003L290 411.443L283.682 411.443L290 416.735ZM290 405.902L290 407.342L281.36 407.342L281.36 405.902L285.014 405.902L285.014 400.898L281.36 400.898L281.36 399.458L290 399.458L290 400.898L286.346 400.898L286.346 405.902L290 405.902ZM278.732 392.421C277.94 391.281 277.544 389.973 277.544 388.497C277.544 387.225 277.832 386.211 278.408 385.455C278.984 384.699 279.788 384.321 280.82 384.321C281.312 384.321 281.774 384.417 282.206 384.609C282.638 384.789 283.034 385.065 283.394 385.437C283.754 385.797 284.06 386.151 284.312 386.499C284.552 386.835 284.822 387.261 285.122 387.777C285.158 387.837 285.266 388.023 285.446 388.335C285.626 388.635 285.74 388.827 285.788 388.911C285.836 388.983 285.944 389.151 286.112 389.415C286.268 389.667 286.382 389.835 286.454 389.919C286.526 389.991 286.64 390.123 286.796 390.315C286.952 390.495 287.084 390.621 287.192 390.693C287.3 390.753 287.438 390.837 287.606 390.945C287.762 391.041 287.918 391.107 288.074 391.143C288.23 391.179 288.398 391.197 288.578 391.197L288.56 384.231L290 384.231L290 392.853L289.28 392.853C288.608 392.853 288.002 392.745 287.462 392.529C286.91 392.313 286.442 392.007 286.058 391.611C285.662 391.203 285.332 390.801 285.068 390.405C284.792 390.009 284.498 389.547 284.186 389.019C284.126 388.899 284.078 388.809 284.042 388.749C283.406 387.657 282.92 386.943 282.584 386.607C282.056 386.091 281.462 385.833 280.802 385.833C280.202 385.833 279.746 386.079 279.434 386.571C279.11 387.051 278.948 387.735 278.948 388.623C278.948 389.919 279.38 391.185 280.244 392.421L278.732 392.421Z" fill="#454545"/>
<path d="M344.4 458.45L344.4 457.154L357 457.154L357 458.666L347.262 458.666L354.03 463.184L354.03 464.12L347.262 468.638L357 468.638L357 470.15L344.4 470.15L344.4 468.854L352.176 463.652L344.4 458.45ZM355.2 447.282C355.644 447.282 355.866 447.06 355.866 446.616C355.866 446.424 355.824 446.202 355.74 445.95L356.91 445.95C357.042 446.31 357.108 446.67 357.108 447.03C357.108 447.858 356.76 448.386 356.064 448.614C356.832 449.538 357.216 450.66 357.216 451.98C357.216 452.82 356.994 453.54 356.55 454.14C356.094 454.728 355.44 455.022 354.588 455.022C353.568 455.022 352.83 454.644 352.374 453.888C351.906 453.12 351.672 452.196 351.672 451.116C351.672 450.324 351.762 449.526 351.942 448.722L351.636 448.722C350.976 448.722 350.454 448.938 350.07 449.37C349.674 449.802 349.476 450.408 349.476 451.188C349.476 452.28 349.692 453.33 350.124 454.338L348.72 454.338C348.336 453.21 348.144 452.112 348.144 451.044C348.144 449.868 348.462 448.95 349.098 448.29C349.722 447.618 350.628 447.282 351.816 447.282L355.2 447.282ZM354.516 453.546C354.996 453.546 355.362 453.366 355.614 453.006C355.854 452.634 355.974 452.19 355.974 451.674C355.974 450.486 355.554 449.502 354.714 448.722L353.13 448.722C352.962 449.538 352.878 450.27 352.878 450.918C352.878 451.65 353.01 452.274 353.274 452.79C353.526 453.294 353.94 453.546 354.516 453.546ZM357 442.965L357 444.405L348.36 444.405L348.36 438.087L349.692 438.087L349.692 442.965L357 442.965ZM355.2 429.528C355.644 429.528 355.866 429.306 355.866 428.862C355.866 428.67 355.824 428.448 355.74 428.196L356.91 428.196C357.042 428.556 357.108 428.916 357.108 429.276C357.108 430.104 356.76 430.632 356.064 430.86C356.832 431.784 357.216 432.906 357.216 434.226C357.216 435.066 356.994 435.786 356.55 436.386C356.094 436.974 355.44 437.268 354.588 437.268C353.568 437.268 352.83 436.89 352.374 436.134C351.906 435.366 351.672 434.442 351.672 433.362C351.672 432.57 351.762 431.772 351.942 430.968L351.636 430.968C350.976 430.968 350.454 431.184 350.07 431.616C349.674 432.048 349.476 432.654 349.476 433.434C349.476 434.526 349.692 435.576 350.124 436.584L348.72 436.584C348.336 435.456 348.144 434.358 348.144 433.29C348.144 432.114 348.462 431.196 349.098 430.536C349.722 429.864 350.628 429.528 351.816 429.528L355.2 429.528ZM354.516 435.792C354.996 435.792 355.362 435.612 355.614 435.252C355.854 434.88 355.974 434.436 355.974 433.92C355.974 432.732 355.554 431.748 354.714 430.968L353.13 430.968C352.962 431.784 352.878 432.516 352.878 433.164C352.878 433.896 353.01 434.52 353.274 435.036C353.526 435.54 353.94 435.792 354.516 435.792ZM354.678 420.189C355.482 420.189 356.106 420.537 356.55 421.233C356.994 421.917 357.216 422.865 357.216 424.077C357.216 425.289 356.994 426.351 356.55 427.263L355.182 427.263C355.65 426.387 355.884 425.385 355.884 424.257C355.884 422.505 355.428 421.629 354.516 421.629C353.688 421.629 353.274 422.265 353.274 423.537L353.274 425.427L351.942 425.427L351.942 423.537C351.942 422.385 351.57 421.809 350.826 421.809C350.37 421.809 350.028 422.025 349.8 422.457C349.572 422.889 349.458 423.465 349.458 424.185C349.458 425.229 349.686 426.207 350.142 427.119L348.792 427.119C348.348 426.147 348.126 425.115 348.126 424.023C348.126 422.847 348.354 421.947 348.81 421.323C349.254 420.687 349.86 420.369 350.628 420.369C351.144 420.369 351.57 420.513 351.906 420.801C352.242 421.089 352.464 421.479 352.572 421.971C352.704 421.455 352.956 421.029 353.328 420.693C353.7 420.357 354.15 420.189 354.678 420.189ZM357 416.849L357 418.073L348.36 418.073L348.36 416.633L354.678 416.633L348.36 411.341L348.36 410.117L357 410.117L357 411.557L350.682 411.557L357 416.849ZM357 406.016L357 407.456L348.36 407.456L348.36 406.016L352.014 406.016L352.014 401.012L348.36 401.012L348.36 399.572L357 399.572L357 401.012L353.346 401.012L353.346 406.016L357 406.016ZM347.874 384.579C348.498 384.579 349.062 384.747 349.566 385.083C350.058 385.407 350.394 385.833 350.574 386.361C350.766 385.737 351.12 385.203 351.636 384.759C352.14 384.303 352.818 384.075 353.67 384.075C354.81 384.075 355.686 384.501 356.298 385.353C356.91 386.193 357.216 387.261 357.216 388.557C357.216 390.201 356.946 391.623 356.406 392.823L354.912 392.823C355.512 391.659 355.806 390.279 355.794 388.683C355.794 386.583 355.062 385.533 353.598 385.533C352.134 385.533 351.402 386.529 351.402 388.521L351.402 390.393L349.962 390.393L349.98 388.683C349.98 387.819 349.8 387.165 349.44 386.721C349.068 386.265 348.588 386.037 348 386.037C347.364 386.037 346.866 386.289 346.506 386.793C346.134 387.297 345.948 388.011 345.948 388.935C345.948 390.207 346.26 391.431 346.884 392.607L345.408 392.607C344.832 391.479 344.544 390.189 344.544 388.737C344.544 387.489 344.85 386.487 345.462 385.731C346.074 384.963 346.878 384.579 347.874 384.579Z" fill="#454545"/>
<path d="M411.4 459.468L411.4 458.172L424 458.172L424 459.684L414.262 459.684L421.03 464.202L421.03 465.138L414.262 469.656L424 469.656L424 471.168L411.4 471.168L411.4 469.872L419.176 464.67L411.4 459.468ZM422.2 448.3C422.644 448.3 422.866 448.078 422.866 447.634C422.866 447.442 422.824 447.22 422.74 446.968L423.91 446.968C424.042 447.328 424.108 447.688 424.108 448.048C424.108 448.876 423.76 449.404 423.064 449.632C423.832 450.556 424.216 451.678 424.216 452.998C424.216 453.838 423.994 454.558 423.55 455.158C423.094 455.746 422.44 456.04 421.588 456.04C420.568 456.04 419.83 455.662 419.374 454.906C418.906 454.138 418.672 453.214 418.672 452.134C418.672 451.342 418.762 450.544 418.942 449.74L418.636 449.74C417.976 449.74 417.454 449.956 417.07 450.388C416.674 450.82 416.476 451.426 416.476 452.206C416.476 453.298 416.692 454.348 417.124 455.356L415.72 455.356C415.336 454.228 415.144 453.13 415.144 452.062C415.144 450.886 415.462 449.968 416.098 449.308C416.722 448.636 417.628 448.3 418.816 448.3L422.2 448.3ZM421.516 454.564C421.996 454.564 422.362 454.384 422.614 454.024C422.854 453.652 422.974 453.208 422.974 452.692C422.974 451.504 422.554 450.52 421.714 449.74L420.13 449.74C419.962 450.556 419.878 451.288 419.878 451.936C419.878 452.668 420.01 453.292 420.274 453.808C420.526 454.312 420.94 454.564 421.516 454.564ZM424 443.984L424 445.424L415.36 445.424L415.36 439.106L416.692 439.106L416.692 443.984L424 443.984ZM422.2 430.546C422.644 430.546 422.866 430.324 422.866 429.88C422.866 429.688 422.824 429.466 422.74 429.214L423.91 429.214C424.042 429.574 424.108 429.934 424.108 430.294C424.108 431.122 423.76 431.65 423.064 431.878C423.832 432.802 424.216 433.924 424.216 435.244C424.216 436.084 423.994 436.804 423.55 437.404C423.094 437.992 422.44 438.286 421.588 438.286C420.568 438.286 419.83 437.908 419.374 437.152C418.906 436.384 418.672 435.46 418.672 434.38C418.672 433.588 418.762 432.79 418.942 431.986L418.636 431.986C417.976 431.986 417.454 432.202 417.07 432.634C416.674 433.066 416.476 433.672 416.476 434.452C416.476 435.544 416.692 436.594 417.124 437.602L415.72 437.602C415.336 436.474 415.144 435.376 415.144 434.308C415.144 433.132 415.462 432.214 416.098 431.554C416.722 430.882 417.628 430.546 418.816 430.546L422.2 430.546ZM421.516 436.81C421.996 436.81 422.362 436.63 422.614 436.27C422.854 435.898 422.974 435.454 422.974 434.938C422.974 433.75 422.554 432.766 421.714 431.986L420.13 431.986C419.962 432.802 419.878 433.534 419.878 434.182C419.878 434.914 420.01 435.538 420.274 436.054C420.526 436.558 420.94 436.81 421.516 436.81ZM421.678 421.208C422.482 421.208 423.106 421.556 423.55 422.252C423.994 422.936 424.216 423.884 424.216 425.096C424.216 426.308 423.994 427.37 423.55 428.282L422.182 428.282C422.65 427.406 422.884 426.404 422.884 425.276C422.884 423.524 422.428 422.648 421.516 422.648C420.688 422.648 420.274 423.284 420.274 424.556L420.274 426.446L418.942 426.446L418.942 424.556C418.942 423.404 418.57 422.828 417.826 422.828C417.37 422.828 417.028 423.044 416.8 423.476C416.572 423.908 416.458 424.484 416.458 425.204C416.458 426.248 416.686 427.226 417.142 428.138L415.792 428.138C415.348 427.166 415.126 426.134 415.126 425.042C415.126 423.866 415.354 422.966 415.81 422.342C416.254 421.706 416.86 421.388 417.628 421.388C418.144 421.388 418.57 421.532 418.906 421.82C419.242 422.108 419.464 422.498 419.572 422.99C419.704 422.474 419.956 422.048 420.328 421.712C420.7 421.376 421.15 421.208 421.678 421.208ZM424 417.868L424 419.092L415.36 419.092L415.36 417.652L421.678 417.652L415.36 412.36L415.36 411.136L424 411.136L424 412.576L417.682 412.576L424 417.868ZM424 407.035L424 408.475L415.36 408.475L415.36 407.035L419.014 407.035L419.014 402.031L415.36 402.031L415.36 400.591L424 400.591L424 402.031L420.346 402.031L420.346 407.035L424 407.035ZM411.76 387.649L411.76 386.011L419.878 386.011L419.878 383.707L421.282 383.707L421.282 386.011L424 386.011L424 387.505L421.282 387.505L421.282 394.327L419.932 394.327L411.76 387.649ZM419.878 387.505L413.794 387.505L419.878 392.473L419.878 387.505Z" fill="#454545"/>
<path d="M478.4 458.379L478.4 457.083L491 457.083L491 458.595L481.262 458.595L488.03 463.113L488.03 464.049L481.262 468.567L491 468.567L491 470.079L478.4 470.079L478.4 468.783L486.176 463.581L478.4 458.379ZM489.2 447.211C489.644 447.211 489.866 446.989 489.866 446.545C489.866 446.353 489.824 446.131 489.74 445.879L490.91 445.879C491.042 446.239 491.108 446.599 491.108 446.959C491.108 447.787 490.76 448.315 490.064 448.543C490.832 449.467 491.216 450.589 491.216 451.909C491.216 452.749 490.994 453.469 490.55 454.069C490.094 454.657 489.44 454.951 488.588 454.951C487.568 454.951 486.83 454.573 486.374 453.817C485.906 453.049 485.672 452.125 485.672 451.045C485.672 450.253 485.762 449.455 485.942 448.651L485.636 448.651C484.976 448.651 484.454 448.867 484.07 449.299C483.674 449.731 483.476 450.337 483.476 451.117C483.476 452.209 483.692 453.259 484.124 454.267L482.72 454.267C482.336 453.139 482.144 452.041 482.144 450.973C482.144 449.797 482.462 448.879 483.098 448.219C483.722 447.547 484.628 447.211 485.816 447.211L489.2 447.211ZM488.516 453.475C488.996 453.475 489.362 453.295 489.614 452.935C489.854 452.563 489.974 452.119 489.974 451.603C489.974 450.415 489.554 449.431 488.714 448.651L487.13 448.651C486.962 449.467 486.878 450.199 486.878 450.847C486.878 451.579 487.01 452.203 487.274 452.719C487.526 453.223 487.94 453.475 488.516 453.475ZM491 442.895L491 444.335L482.36 444.335L482.36 438.017L483.692 438.017L483.692 442.895L491 442.895ZM489.2 429.458C489.644 429.458 489.866 429.236 489.866 428.792C489.866 428.6 489.824 428.378 489.74 428.126L490.91 428.126C491.042 428.486 491.108 428.846 491.108 429.206C491.108 430.034 490.76 430.562 490.064 430.79C490.832 431.714 491.216 432.836 491.216 434.156C491.216 434.996 490.994 435.716 490.55 436.316C490.094 436.904 489.44 437.198 488.588 437.198C487.568 437.198 486.83 436.82 486.374 436.064C485.906 435.296 485.672 434.372 485.672 433.292C485.672 432.5 485.762 431.702 485.942 430.898L485.636 430.898C484.976 430.898 484.454 431.114 484.07 431.546C483.674 431.978 483.476 432.584 483.476 433.364C483.476 434.456 483.692 435.506 484.124 436.514L482.72 436.514C482.336 435.386 482.144 434.288 482.144 433.22C482.144 432.044 482.462 431.126 483.098 430.466C483.722 429.794 484.628 429.458 485.816 429.458L489.2 429.458ZM488.516 435.722C488.996 435.722 489.362 435.542 489.614 435.182C489.854 434.81 489.974 434.366 489.974 433.85C489.974 432.662 489.554 431.678 488.714 430.898L487.13 430.898C486.962 431.714 486.878 432.446 486.878 433.094C486.878 433.826 487.01 434.45 487.274 434.966C487.526 435.47 487.94 435.722 488.516 435.722ZM488.678 420.119C489.482 420.119 490.106 420.467 490.55 421.163C490.994 421.847 491.216 422.795 491.216 424.007C491.216 425.219 490.994 426.281 490.55 427.193L489.182 427.193C489.65 426.317 489.884 425.315 489.884 424.187C489.884 422.435 489.428 421.559 488.516 421.559C487.688 421.559 487.274 422.195 487.274 423.467L487.274 425.357L485.942 425.357L485.942 423.467C485.942 422.315 485.57 421.739 484.826 421.739C484.37 421.739 484.028 421.955 483.8 422.387C483.572 422.819 483.458 423.395 483.458 424.115C483.458 425.159 483.686 426.137 484.142 427.049L482.792 427.049C482.348 426.077 482.126 425.045 482.126 423.953C482.126 422.777 482.354 421.877 482.81 421.253C483.254 420.617 483.86 420.299 484.628 420.299C485.144 420.299 485.57 420.443 485.906 420.731C486.242 421.019 486.464 421.409 486.572 421.901C486.704 421.385 486.956 420.959 487.328 420.623C487.7 420.287 488.15 420.119 488.678 420.119ZM491 416.779L491 418.003L482.36 418.003L482.36 416.563L488.678 416.563L482.36 411.271L482.36 410.047L491 410.047L491 411.487L484.682 411.487L491 416.779ZM491 405.946L491 407.386L482.36 407.386L482.36 405.946L486.014 405.946L486.014 400.942L482.36 400.942L482.36 399.502L491 399.502L491 400.942L487.346 400.942L487.346 405.946L491 405.946ZM478.76 391.996L478.76 384.652L480.2 384.652L480.2 390.574L483.656 390.79C483.476 390.142 483.386 389.446 483.386 388.702C483.386 388.09 483.458 387.52 483.602 386.992C483.734 386.464 483.95 385.978 484.25 385.534C484.538 385.078 484.946 384.718 485.474 384.454C485.99 384.19 486.602 384.058 487.31 384.058C488.522 384.058 489.476 384.508 490.172 385.408C490.868 386.296 491.216 387.43 491.216 388.81C491.216 390.298 490.94 391.606 490.388 392.734L488.948 392.734C489.524 391.654 489.812 390.406 489.812 388.99C489.812 387.958 489.596 387.136 489.164 386.524C488.732 385.9 488.114 385.588 487.31 385.588C485.606 385.588 484.754 386.8 484.754 389.224C484.754 390.28 484.946 391.336 485.33 392.392L478.76 391.996Z" fill="#454545"/>
<path d="M545.4 459.257L545.4 457.961L558 457.961L558 459.473L548.262 459.473L555.03 463.991L555.03 464.927L548.262 469.445L558 469.445L558 470.957L545.4 470.957L545.4 469.661L553.176 464.459L545.4 459.257ZM556.2 448.089C556.644 448.089 556.866 447.867 556.866 447.423C556.866 447.231 556.824 447.009 556.74 446.757L557.91 446.757C558.042 447.117 558.108 447.477 558.108 447.837C558.108 448.665 557.76 449.193 557.064 449.421C557.832 450.345 558.216 451.467 558.216 452.787C558.216 453.627 557.994 454.347 557.55 454.947C557.094 455.535 556.44 455.829 555.588 455.829C554.568 455.829 553.83 455.451 553.374 454.695C552.906 453.927 552.672 453.003 552.672 451.923C552.672 451.131 552.762 450.333 552.942 449.529L552.636 449.529C551.976 449.529 551.454 449.745 551.07 450.177C550.674 450.609 550.476 451.215 550.476 451.995C550.476 453.087 550.692 454.137 551.124 455.145L549.72 455.145C549.336 454.017 549.144 452.919 549.144 451.851C549.144 450.675 549.462 449.757 550.098 449.097C550.722 448.425 551.628 448.089 552.816 448.089L556.2 448.089ZM555.516 454.353C555.996 454.353 556.362 454.173 556.614 453.813C556.854 453.441 556.974 452.997 556.974 452.481C556.974 451.293 556.554 450.309 555.714 449.529L554.13 449.529C553.962 450.345 553.878 451.077 553.878 451.725C553.878 452.457 554.01 453.081 554.274 453.597C554.526 454.101 554.94 454.353 555.516 454.353ZM558 443.773L558 445.213L549.36 445.213L549.36 438.895L550.692 438.895L550.692 443.773L558 443.773ZM556.2 430.335C556.644 430.335 556.866 430.113 556.866 429.669C556.866 429.477 556.824 429.255 556.74 429.003L557.91 429.003C558.042 429.363 558.108 429.723 558.108 430.083C558.108 430.911 557.76 431.439 557.064 431.667C557.832 432.591 558.216 433.713 558.216 435.033C558.216 435.873 557.994 436.593 557.55 437.193C557.094 437.781 556.44 438.075 555.588 438.075C554.568 438.075 553.83 437.697 553.374 436.941C552.906 436.173 552.672 435.249 552.672 434.169C552.672 433.377 552.762 432.579 552.942 431.775L552.636 431.775C551.976 431.775 551.454 431.991 551.07 432.423C550.674 432.855 550.476 433.461 550.476 434.241C550.476 435.333 550.692 436.383 551.124 437.391L549.72 437.391C549.336 436.263 549.144 435.165 549.144 434.097C549.144 432.921 549.462 432.003 550.098 431.343C550.722 430.671 551.628 430.335 552.816 430.335L556.2 430.335ZM555.516 436.599C555.996 436.599 556.362 436.419 556.614 436.059C556.854 435.687 556.974 435.243 556.974 434.727C556.974 433.539 556.554 432.555 555.714 431.775L554.13 431.775C553.962 432.591 553.878 433.323 553.878 433.971C553.878 434.703 554.01 435.327 554.274 435.843C554.526 436.347 554.94 436.599 555.516 436.599ZM555.678 420.997C556.482 420.997 557.106 421.345 557.55 422.041C557.994 422.725 558.216 423.673 558.216 424.885C558.216 426.097 557.994 427.159 557.55 428.071L556.182 428.071C556.65 427.195 556.884 426.193 556.884 425.065C556.884 423.313 556.428 422.437 555.516 422.437C554.688 422.437 554.274 423.073 554.274 424.345L554.274 426.235L552.942 426.235L552.942 424.345C552.942 423.193 552.57 422.617 551.826 422.617C551.37 422.617 551.028 422.833 550.8 423.265C550.572 423.697 550.458 424.273 550.458 424.993C550.458 426.037 550.686 427.015 551.142 427.927L549.792 427.927C549.348 426.955 549.126 425.923 549.126 424.831C549.126 423.655 549.354 422.755 549.81 422.131C550.254 421.495 550.86 421.177 551.628 421.177C552.144 421.177 552.57 421.321 552.906 421.609C553.242 421.897 553.464 422.287 553.572 422.779C553.704 422.263 553.956 421.837 554.328 421.501C554.7 421.165 555.15 420.997 555.678 420.997ZM558 417.657L558 418.881L549.36 418.881L549.36 417.441L555.678 417.441L549.36 412.149L549.36 410.925L558 410.925L558 412.365L551.682 412.365L558 417.657ZM558 406.824L558 408.264L549.36 408.264L549.36 406.824L553.014 406.824L553.014 401.82L549.36 401.82L549.36 400.38L558 400.38L558 401.82L554.346 401.82L554.346 406.824L558 406.824ZM551.538 392.1C550.758 390.936 550.368 389.658 550.368 388.266C550.368 387.15 550.71 386.172 551.394 385.332C552.066 384.492 553.002 384.072 554.202 384.072C555.462 384.072 556.446 384.492 557.154 385.332C557.862 386.16 558.216 387.204 558.216 388.464C558.216 390.192 557.682 391.488 556.614 392.352C555.534 393.204 554.022 393.63 552.078 393.63C549.918 393.63 548.292 393.12 547.2 392.1C546.096 391.068 545.544 389.724 545.544 388.068C545.544 387 545.778 386.01 546.246 385.098L547.686 385.098C547.218 385.986 546.984 386.964 546.984 388.032C546.984 389.16 547.35 390.102 548.082 390.858C548.802 391.602 549.954 392.016 551.538 392.1ZM553.05 392.082C555.558 391.854 556.812 390.684 556.812 388.572C556.812 387.684 556.608 386.97 556.2 386.43C555.792 385.878 555.15 385.602 554.274 385.602C553.386 385.602 552.75 385.884 552.366 386.448C551.97 387.012 551.772 387.744 551.772 388.644C551.772 389.976 552.198 391.122 553.05 392.082Z" fill="#454545"/>
<path d="M612.4 458.51L612.4 457.214L625 457.214L625 458.726L615.262 458.726L622.03 463.244L622.03 464.18L615.262 468.698L625 468.698L625 470.21L612.4 470.21L612.4 468.914L620.176 463.712L612.4 458.51ZM623.2 447.342C623.644 447.342 623.866 447.12 623.866 446.676C623.866 446.484 623.824 446.262 623.74 446.01L624.91 446.01C625.042 446.37 625.108 446.73 625.108 447.09C625.108 447.918 624.76 448.446 624.064 448.674C624.832 449.598 625.216 450.72 625.216 452.04C625.216 452.88 624.994 453.6 624.55 454.2C624.094 454.788 623.44 455.082 622.588 455.082C621.568 455.082 620.83 454.704 620.374 453.948C619.906 453.18 619.672 452.256 619.672 451.176C619.672 450.384 619.762 449.586 619.942 448.782L619.636 448.782C618.976 448.782 618.454 448.998 618.07 449.43C617.674 449.862 617.476 450.468 617.476 451.248C617.476 452.34 617.692 453.39 618.124 454.398L616.72 454.398C616.336 453.27 616.144 452.172 616.144 451.104C616.144 449.928 616.462 449.01 617.098 448.35C617.722 447.678 618.628 447.342 619.816 447.342L623.2 447.342ZM622.516 453.606C622.996 453.606 623.362 453.426 623.614 453.066C623.854 452.694 623.974 452.25 623.974 451.734C623.974 450.546 623.554 449.562 622.714 448.782L621.13 448.782C620.962 449.598 620.878 450.33 620.878 450.978C620.878 451.71 621.01 452.334 621.274 452.85C621.526 453.354 621.94 453.606 622.516 453.606ZM625 443.026L625 444.466L616.36 444.466L616.36 438.148L617.692 438.148L617.692 443.026L625 443.026ZM623.2 429.588C623.644 429.588 623.866 429.366 623.866 428.922C623.866 428.73 623.824 428.508 623.74 428.256L624.91 428.256C625.042 428.616 625.108 428.976 625.108 429.336C625.108 430.164 624.76 430.692 624.064 430.92C624.832 431.844 625.216 432.966 625.216 434.286C625.216 435.126 624.994 435.846 624.55 436.446C624.094 437.034 623.44 437.328 622.588 437.328C621.568 437.328 620.83 436.95 620.374 436.194C619.906 435.426 619.672 434.502 619.672 433.422C619.672 432.63 619.762 431.832 619.942 431.028L619.636 431.028C618.976 431.028 618.454 431.244 618.07 431.676C617.674 432.108 617.476 432.714 617.476 433.494C617.476 434.586 617.692 435.636 618.124 436.644L616.72 436.644C616.336 435.516 616.144 434.418 616.144 433.35C616.144 432.174 616.462 431.256 617.098 430.596C617.722 429.924 618.628 429.588 619.816 429.588L623.2 429.588ZM622.516 435.852C622.996 435.852 623.362 435.672 623.614 435.312C623.854 434.94 623.974 434.496 623.974 433.98C623.974 432.792 623.554 431.808 622.714 431.028L621.13 431.028C620.962 431.844 620.878 432.576 620.878 433.224C620.878 433.956 621.01 434.58 621.274 435.096C621.526 435.6 621.94 435.852 622.516 435.852ZM622.678 420.25C623.482 420.25 624.106 420.598 624.55 421.294C624.994 421.978 625.216 422.926 625.216 424.138C625.216 425.35 624.994 426.412 624.55 427.324L623.182 427.324C623.65 426.448 623.884 425.446 623.884 424.318C623.884 422.566 623.428 421.69 622.516 421.69C621.688 421.69 621.274 422.326 621.274 423.598L621.274 425.488L619.942 425.488L619.942 423.598C619.942 422.446 619.57 421.87 618.826 421.87C618.37 421.87 618.028 422.086 617.8 422.518C617.572 422.95 617.458 423.526 617.458 424.246C617.458 425.29 617.686 426.268 618.142 427.18L616.792 427.18C616.348 426.208 616.126 425.176 616.126 424.084C616.126 422.908 616.354 422.008 616.81 421.384C617.254 420.748 617.86 420.43 618.628 420.43C619.144 420.43 619.57 420.574 619.906 420.862C620.242 421.15 620.464 421.54 620.572 422.032C620.704 421.516 620.956 421.09 621.328 420.754C621.7 420.418 622.15 420.25 622.678 420.25ZM625 416.91L625 418.134L616.36 418.134L616.36 416.694L622.678 416.694L616.36 411.402L616.36 410.178L625 410.178L625 411.618L618.682 411.618L625 416.91ZM625 406.077L625 407.517L616.36 407.517L616.36 406.077L620.014 406.077L620.014 401.073L616.36 401.073L616.36 399.633L625 399.633L625 401.073L621.346 401.073L621.346 406.077L625 406.077ZM612.76 393.333L612.76 384.513L614.128 384.513L625 389.625L625 391.245L614.2 386.169L614.2 393.333L612.76 393.333Z" fill="#454545"/>
<path d="M679.4 459.495L679.4 458.199L692 458.199L692 459.711L682.262 459.711L689.03 464.229L689.03 465.165L682.262 469.683L692 469.683L692 471.195L679.4 471.195L679.4 469.899L687.176 464.697L679.4 459.495ZM690.2 448.327C690.644 448.327 690.866 448.105 690.866 447.661C690.866 447.469 690.824 447.247 690.74 446.995L691.91 446.995C692.042 447.355 692.108 447.715 692.108 448.075C692.108 448.903 691.76 449.431 691.064 449.659C691.832 450.583 692.216 451.705 692.216 453.025C692.216 453.865 691.994 454.585 691.55 455.185C691.094 455.773 690.44 456.067 689.588 456.067C688.568 456.067 687.83 455.689 687.374 454.933C686.906 454.165 686.672 453.241 686.672 452.161C686.672 451.369 686.762 450.571 686.942 449.767L686.636 449.767C685.976 449.767 685.454 449.983 685.07 450.415C684.674 450.847 684.476 451.453 684.476 452.233C684.476 453.325 684.692 454.375 685.124 455.383L683.72 455.383C683.336 454.255 683.144 453.157 683.144 452.089C683.144 450.913 683.462 449.995 684.098 449.335C684.722 448.663 685.628 448.327 686.816 448.327L690.2 448.327ZM689.516 454.591C689.996 454.591 690.362 454.411 690.614 454.051C690.854 453.679 690.974 453.235 690.974 452.719C690.974 451.531 690.554 450.547 689.714 449.767L688.13 449.767C687.962 450.583 687.878 451.315 687.878 451.963C687.878 452.695 688.01 453.319 688.274 453.835C688.526 454.339 688.94 454.591 689.516 454.591ZM692 444.01L692 445.45L683.36 445.45L683.36 439.132L684.692 439.132L684.692 444.01L692 444.01ZM690.2 430.573C690.644 430.573 690.866 430.351 690.866 429.907C690.866 429.715 690.824 429.493 690.74 429.241L691.91 429.241C692.042 429.601 692.108 429.961 692.108 430.321C692.108 431.149 691.76 431.677 691.064 431.905C691.832 432.829 692.216 433.951 692.216 435.271C692.216 436.111 691.994 436.831 691.55 437.431C691.094 438.019 690.44 438.313 689.588 438.313C688.568 438.313 687.83 437.935 687.374 437.179C686.906 436.411 686.672 435.487 686.672 434.407C686.672 433.615 686.762 432.817 686.942 432.013L686.636 432.013C685.976 432.013 685.454 432.229 685.07 432.661C684.674 433.093 684.476 433.699 684.476 434.479C684.476 435.571 684.692 436.621 685.124 437.629L683.72 437.629C683.336 436.501 683.144 435.403 683.144 434.335C683.144 433.159 683.462 432.241 684.098 431.581C684.722 430.909 685.628 430.573 686.816 430.573L690.2 430.573ZM689.516 436.837C689.996 436.837 690.362 436.657 690.614 436.297C690.854 435.925 690.974 435.481 690.974 434.965C690.974 433.777 690.554 432.793 689.714 432.013L688.13 432.013C687.962 432.829 687.878 433.561 687.878 434.209C687.878 434.941 688.01 435.565 688.274 436.081C688.526 436.585 688.94 436.837 689.516 436.837ZM689.678 421.234C690.482 421.234 691.106 421.582 691.55 422.278C691.994 422.962 692.216 423.91 692.216 425.122C692.216 426.334 691.994 427.396 691.55 428.308L690.182 428.308C690.65 427.432 690.884 426.43 690.884 425.302C690.884 423.55 690.428 422.674 689.516 422.674C688.688 422.674 688.274 423.31 688.274 424.582L688.274 426.472L686.942 426.472L686.942 424.582C686.942 423.43 686.57 422.854 685.826 422.854C685.37 422.854 685.028 423.07 684.8 423.502C684.572 423.934 684.458 424.51 684.458 425.23C684.458 426.274 684.686 427.252 685.142 428.164L683.792 428.164C683.348 427.192 683.126 426.16 683.126 425.068C683.126 423.892 683.354 422.992 683.81 422.368C684.254 421.732 684.86 421.414 685.628 421.414C686.144 421.414 686.57 421.558 686.906 421.846C687.242 422.134 687.464 422.524 687.572 423.016C687.704 422.5 687.956 422.074 688.328 421.738C688.7 421.402 689.15 421.234 689.678 421.234ZM692 417.894L692 419.118L683.36 419.118L683.36 417.678L689.678 417.678L683.36 412.386L683.36 411.162L692 411.162L692 412.602L685.682 412.602L692 417.894ZM692 407.061L692 408.501L683.36 408.501L683.36 407.061L687.014 407.061L687.014 402.057L683.36 402.057L683.36 400.617L692 400.617L692 402.057L688.346 402.057L688.346 407.061L692 407.061ZM682.712 393.49C681.848 393.49 681.104 393.112 680.48 392.356C679.856 391.6 679.544 390.49 679.544 389.026C679.544 387.67 679.874 386.578 680.534 385.75C681.194 384.922 681.986 384.496 682.91 384.472C684.17 384.436 685.202 384.994 686.006 386.146C686.702 384.742 687.662 384.04 688.886 384.04C689.822 384.04 690.614 384.454 691.262 385.282C691.898 386.098 692.216 387.31 692.216 388.918C692.216 390.514 691.868 391.75 691.172 392.626C690.476 393.49 689.63 393.922 688.634 393.922C688.034 393.922 687.44 393.748 686.852 393.4C686.252 393.04 685.748 392.518 685.34 391.834C684.668 392.938 683.792 393.49 682.712 393.49ZM686.492 388.846C686.324 389.47 686.144 390.04 685.952 390.556C686.24 391.156 686.612 391.618 687.068 391.942C687.524 392.254 687.992 392.41 688.472 392.41C689.204 392.41 689.78 392.11 690.2 391.51C690.608 390.898 690.812 390.022 690.812 388.882C690.812 387.922 690.644 387.13 690.308 386.506C689.96 385.87 689.51 385.552 688.958 385.552C688.49 385.552 688.094 385.72 687.77 386.056C687.434 386.38 687.206 386.698 687.086 387.01C686.966 387.322 686.798 387.838 686.582 388.558C686.546 388.69 686.516 388.786 686.492 388.846ZM683.18 385.984C682.544 385.984 682.016 386.254 681.596 386.794C681.164 387.334 680.948 388.09 680.948 389.062C680.948 389.95 681.116 390.658 681.452 391.186C681.776 391.714 682.19 391.978 682.694 391.978C683.042 391.978 683.348 391.906 683.612 391.762C683.864 391.606 684.08 391.378 684.26 391.078C684.428 390.766 684.566 390.484 684.674 390.232C684.77 389.98 684.878 389.644 684.998 389.224C685.01 389.176 685.022 389.14 685.034 389.116C685.034 389.092 685.04 389.062 685.052 389.026C685.064 388.99 685.076 388.954 685.088 388.918C685.1 388.882 685.16 388.678 685.268 388.306C685.364 387.922 685.442 387.628 685.502 387.424C684.878 386.464 684.104 385.984 683.18 385.984Z" fill="#454545"/>
<path d="M200 260C200 258.895 200.895 258 202 258H235C236.105 258 237 258.895 237 260V362C237 363.105 236.105 364 235 364H202C200.895 364 200 363.105 200 362V260Z" fill="#0FA7F0"/>
<path d="M267 260C267 258.895 267.895 258 269 258H302C303.105 258 304 258.895 304 260V362C304 363.105 303.105 364 302 364H269C267.895 364 267 363.105 267 362V260Z" fill="#0FA7F0"/>
<path d="M334 240C334 238.895 334.895 238 336 238H369C370.105 238 371 238.895 371 240V362C371 363.105 370.105 364 369 364H336C334.895 364 334 363.105 334 362V240Z" fill="#0FA7F0"/>
<path d="M401 260C401 258.895 401.895 258 403 258H436C437.105 258 438 258.895 438 260V362C438 363.105 437.105 364 436 364H403C401.895 364 401 363.105 401 362V260Z" fill="#0FA7F0"/>
<path d="M468 190C468 188.895 468.895 188 470 188H486.5H503C504.105 188 505 188.895 505 190V362C505 363.105 504.105 364 503 364H470C468.895 364 468 363.105 468 362V190Z" fill="#0FA7F0"/>
<path d="M535 240C535 238.895 535.895 238 537 238H570C571.105 238 572 238.895 572 240V362C572 363.105 571.105 364 570 364H537C535.895 364 535 363.105 535 362V240Z" fill="#0FA7F0"/>
<path d="M602 310C602 308.895 602.895 308 604 308H637C638.105 308 639 308.895 639 310V362C639 363.105 638.105 364 637 364H604C602.895 364 602 363.105 602 362V310Z" fill="#0FA7F0"/>
<path d="M669 260C669 258.895 669.895 258 671 258H704C705.105 258 706 258.895 706 260V362C706 363.105 705.105 364 704 364H671C669.895 364 669 363.105 669 362V260Z" fill="#0FA7F0"/>
<path d="M200 180C200 178.895 200.895 178 202 178H235C236.105 178 237 178.895 237 180V253C237 254.105 236.105 255 235 255H202C200.895 255 200 254.105 200 253V180Z" fill="#FFEEA2"/>
<path d="M267 205C267 203.895 267.895 203 269 203H302C303.105 203 304 203.895 304 205V253C304 254.105 303.105 255 302 255H269C267.895 255 267 254.105 267 253V205Z" fill="#FFEEA2"/>
<path d="M334 225C334 223.895 334.895 223 336 223H369C370.105 223 371 223.895 371 225V233C371 234.105 370.105 235 369 235H336C334.895 235 334 234.105 334 233V225Z" fill="#FFEEA2"/>
<path d="M401 175C401 173.895 401.895 173 403 173H436C437.105 173 438 173.895 438 175V253C438 254.105 437.105 255 436 255H403C401.895 255 401 254.105 401 253V175Z" fill="#FFEEA2"/>
<path d="M468 165C468 163.895 468.895 163 470 163H503C504.105 163 505 163.895 505 165V183C505 184.105 504.105 185 503 185H470C468.895 185 468 184.105 468 183V165Z" fill="#FFEEA2"/>
<path d="M535 205C535 203.895 535.895 203 537 203H570C571.105 203 572 203.895 572 205V233C572 234.105 571.105 235 570 235H537C535.895 235 535 234.105 535 233V205Z" fill="#FFEEA2"/>
<path d="M602 225C602 223.895 602.895 223 604 223H637C638.105 223 639 223.895 639 225V303C639 304.105 638.105 305 637 305H604C602.895 305 602 304.105 602 303V225Z" fill="#FFEEA2"/>
<path d="M669 195C669 193.895 669.895 193 671 193H704C705.105 193 706 193.895 706 195V253C706 254.105 705.105 255 704 255H671C669.895 255 669 254.105 669 253V195Z" fill="#FFEEA2"/>
<path d="M200 150C200 148.895 200.895 148 202 148H235C236.105 148 237 148.895 237 150V173C237 174.105 236.105 175 235 175H202C200.895 175 200 174.105 200 173V150Z" fill="#F28100"/>
<path d="M267 150C267 148.895 267.895 148 269 148H302C303.105 148 304 148.895 304 150V198C304 199.105 303.105 200 302 200H269C267.895 200 267 199.105 267 198V150Z" fill="#F28100"/>
<path d="M334 150C334 148.895 334.895 148 336 148H369C370.105 148 371 148.895 371 150V218C371 219.105 370.105 220 369 220H336C334.895 220 334 219.105 334 218V150Z" fill="#F28100"/>
<path d="M401 150C401 148.895 401.895 148 403 148H436C437.105 148 438 148.895 438 150V168C438 169.105 437.105 170 436 170H403C401.895 170 401 169.105 401 168V150Z" fill="#F28100"/>
<path d="M468 150C468 148.895 468.895 148 470 148H503C504.105 148 505 148.895 505 150V158C505 159.105 504.105 160 503 160H470C468.895 160 468 159.105 468 158V150Z" fill="#F28100"/>
<path d="M535 150C535 148.895 535.895 148 537 148H570C571.105 148 572 148.895 572 150V198C572 199.105 571.105 200 570 200H537C535.895 200 535 199.105 535 198V150Z" fill="#F28100"/>
<path d="M602 150C602 148.895 602.895 148 604 148H637C638.105 148 639 148.895 639 150V218C639 219.105 638.105 220 637 220H604C602.895 220 602 219.105 602 218V150Z" fill="#F28100"/>
<path d="M669 150C669 148.895 669.895 148 671 148H704C705.105 148 706 148.895 706 150V188C706 189.105 705.105 190 704 190H671C669.895 190 669 189.105 669 188V150Z" fill="#F28100"/>
<line x1="185.5" y1="365" x2="185.5" y2="385" stroke="#454545"/>
<line x1="385.5" y1="365" x2="385.5" y2="385" stroke="#454545"/>
<line x1="586.5" y1="365" x2="586.5" y2="385" stroke="#454545"/>
<line x1="252.5" y1="365" x2="252.5" y2="385" stroke="#454545"/>
<line x1="452.5" y1="365" x2="452.5" y2="385" stroke="#454545"/>
<line x1="653.5" y1="365" x2="653.5" y2="385" stroke="#454545"/>
<line x1="319.5" y1="365" x2="319.5" y2="385" stroke="#454545"/>
<line x1="519.5" y1="365" x2="519.5" y2="385" stroke="#454545"/>
<defs>
<filter id="filter0_g" x="0" y="0" width="867" height="613" filterUnits="userSpaceOnUse" color-interpolation-filters="sRGB">
<feFlood flood-opacity="0" result="BackgroundImageFix"/>
<feColorMatrix in="SourceAlpha" type="matrix" values="0 0 0 0 0 0 0 0 0 0 0 0 0 0 0 0 0 0 127 0" result="hardAlpha"/>
<feOffset dy="4"/>
<feGaussianBlur stdDeviation="25"/>
<feComposite in2="hardAlpha" operator="out"/>
<feColorMatrix type="matrix" values="0 0 0 0 0 0 0 0 0 0 0 0 0 0 0 0 0 0 0.1 0"/>
<feBlend mode="normal" in2="BackgroundImageFix" result="effect1_dropShadow"/>
<feBlend mode="normal" in="SourceGraphic" in2="effect1_dropShadow" result="shape"/>
</filter>
<filter id="filter1_d_801:48" x="30" y="71" width="115" height="518" filterUnits="userSpaceOnUse" color-interpolation-filters="sRGB">
<feFlood flood-opacity="0" result="BackgroundImageFix"/>
<feColorMatrix in="SourceAlpha" type="matrix" values="0 0 0 0 0 0 0 0 0 0 0 0 0 0 0 0 0 0 127 0" result="hardAlpha"/>
<feOffset dx="10"/>
<feGaussianBlur stdDeviation="15"/>
<feComposite in2="hardAlpha" operator="out"/>
<feColorMatrix type="matrix" values="0 0 0 0 0 0 0 0 0 0 0 0 0 0 0 0 0 0 0.1 0"/>
<feBlend mode="normal" in2="BackgroundImageFix" result="effect1_dropShadow"/>
<feBlend mode="normal" in="SourceGraphic" in2="effect1_dropShadow" result="shape"/>
</filter>
<filter id="filter2_d_801:48" x="85" y="16" width="772" height="115" filterUnits="userSpaceOnUse" color-interpolation-filters="sRGB">
<feFlood flood-opacity="0" result="BackgroundImageFix"/>
<feColorMatrix in="SourceAlpha" type="matrix" values="0 0 0 0 0 0 0 0 0 0 0 0 0 0 0 0 0 0 127 0" result="hardAlpha"/>
<feOffset dx="10"/>
<feGaussianBlur stdDeviation="15"/>
<feComposite in2="hardAlpha" operator="out"/>
<feColorMatrix type="matrix" values="0 0 0 0 0 0 0 0 0 0 0 0 0 0 0 0 0 0 0.1 0"/>
<feBlend mode="normal" in2="BackgroundImageFix" result="effect1_dropShadow"/>
<feBlend mode="normal" in="SourceGraphic" in2="effect1_dropShadow" result="shape"/>
</filter>
</defs>
</svg>
