<svg width="864" height="613" viewBox="0 0 864 613" fill="none" xmlns="http://www.w3.org/2000/svg">
<g filter="url(#filter0_f)">
<path d="M50 61C50 52.7157 56.7157 46 65 46H799C807.284 46 814 52.7157 814 61V544C814 552.284 807.284 559 799 559H65C56.7157 559 50 552.284 50 544V61Z" fill="white"/>
</g>
<g filter="url(#filter1_d_582:1785)">
<path d="M50 101H105V559H65C56.7157 559 50 552.284 50 544V101Z" fill="white"/>
</g>
<path d="M76 139V133H80V139H85V131H88L78 122L68 131H71V139H76Z" fill="#747474"/>
<path d="M83.834 157.667L79.6673 161.417V170.583L83.834 166.833V157.667ZM73.4173 160.167C71.7923 160.167 70.0423 160.5 68.834 161.417V173.633C68.834 173.842 69.0423 174.05 69.2507 174.05C69.334 174.05 69.3757 173.992 69.459 173.992C70.584 173.45 72.209 173.083 73.4173 173.083C75.0423 173.083 76.7923 173.417 78.0007 174.333C79.1257 173.625 81.1673 173.083 82.584 173.083C83.959 173.083 85.3757 173.342 86.5423 173.967C86.6256 174.008 86.6673 173.992 86.7506 173.992C86.959 173.992 87.1673 173.783 87.1673 173.575V161.417C86.6673 161.042 86.1256 160.792 85.5006 160.583V171.833C84.584 171.542 83.584 171.417 82.584 171.417C81.1673 171.417 79.1257 171.958 78.0007 172.667V161.417C76.7923 160.5 75.0423 160.167 73.4173 160.167Z" fill="#747474"/>
<line x1="50" y1="503.5" x2="105" y2="503.5" stroke="#E1E1E9"/>
<path d="M69.3136 518.406L69.8342 523.224L69.921 524.138H67.8965L67.9977 523.224L68.5038 518.406L68.5472 518H69.2702L69.3136 518.406Z" fill="#F28100"/>
<path d="M85.4093 518.406L85.9154 523.224L86.0167 524.138H83.9922L84.079 523.224L84.5995 518.406L84.6429 518H85.3659L85.4093 518.406Z" fill="#F28100"/>
<path d="M75.9934 533.367C75.5885 533.729 75.198 534.034 74.7931 534.339C74.3882 534.643 73.9834 534.948 73.5495 535.238C72.6964 535.819 71.8287 536.356 70.831 536.806C70.3682 537.009 69.8187 536.806 69.6163 536.341C69.4283 535.92 69.5874 535.427 69.9633 535.195L69.9923 535.18C70.7442 534.716 71.4528 534.121 72.1469 533.483C72.4939 533.163 72.8265 532.83 73.1591 532.496C73.4772 532.162 73.8243 531.799 74.099 531.48C74.5907 530.914 75.4294 530.856 75.9934 531.335C76.5573 531.828 76.6152 532.67 76.138 533.236C76.0946 533.28 76.0512 533.323 75.9934 533.367Z" fill="#37376D"/>
<path d="M79.146 530.682C79.5798 530.783 80.1004 530.812 80.6065 530.812C81.1271 530.812 81.6622 530.769 82.1827 530.696C83.2383 530.551 84.294 530.275 85.2484 529.84L85.2628 529.826C85.7255 529.608 86.275 529.826 86.4775 530.29C86.6655 530.725 86.5064 531.219 86.116 531.451C85.017 532.118 83.8457 532.583 82.631 532.916C82.0237 533.076 81.4019 533.206 80.7656 533.279C80.1293 533.352 79.4642 533.395 78.7556 533.337H78.7411C78.0036 533.279 77.4541 532.626 77.512 531.886C77.5698 531.146 78.2206 530.595 78.958 530.653C79.0303 530.653 79.0882 530.667 79.146 530.682Z" fill="#37376D"/>
<path d="M86.2184 523.833C86.2184 526.924 82.0971 529.434 76.9926 529.434C71.888 529.434 67.7812 526.924 67.7812 523.833C67.7812 520.742 71.9169 518.232 77.007 518.232C82.0971 518.232 86.2184 520.742 86.2184 523.833Z" fill="#0FA7F0"/>
<path d="M83.0366 523.833C83.0366 525.545 80.3325 527.025 77.0066 527.025C73.6807 527.025 70.9766 525.545 70.9766 523.833C70.9766 522.121 73.6807 520.641 77.0066 520.641C80.3325 520.655 83.0366 522.135 83.0366 523.833Z" fill="white"/>
<path d="M79.0884 523.833C79.0884 524.994 78.163 525.923 77.0061 525.923C75.8493 525.923 74.9238 524.994 74.9238 523.833C74.9238 522.672 75.8493 521.744 77.0061 521.744C78.1485 521.744 79.0884 522.687 79.0884 523.833Z" fill="#37376D"/>
<path d="M82.9204 538.329L80.679 532.133C80.332 531.219 79.4644 530.609 78.4955 530.609H75.8203C74.5333 530.609 73.4922 531.654 73.4922 532.946V538.314H82.9204V538.329Z" fill="#0FA7F0"/>
<path d="M67 535.267C67.5061 534.817 68.2725 534.6 68.9811 534.73C69.6897 534.846 70.3693 535.296 70.7597 535.92C71.1646 536.544 71.2658 537.342 71.0779 538.039C70.8899 538.735 70.3838 539.345 69.7475 539.606L69.0245 538.474C69.2414 538.213 69.3426 537.937 69.3715 537.661C69.386 537.386 69.3281 537.139 69.1835 536.921C69.0534 536.704 68.8509 536.544 68.5907 536.443C68.3304 536.341 68.0412 536.327 67.7086 536.399L67 535.267Z" fill="#F28100"/>
<path d="M87.5629 528.651C87.3171 528.883 87.1725 529.129 87.1002 529.391C87.0424 529.652 87.0713 529.913 87.158 530.145C87.2593 530.377 87.4328 530.58 87.6642 530.711C87.8955 530.842 88.1847 530.914 88.5173 530.885L89.0524 532.119C88.4739 532.496 87.6931 532.568 87.0134 532.336C86.3338 532.104 85.7265 531.553 85.4517 530.871C85.1625 530.189 85.1625 529.376 85.4806 528.723C85.7843 528.056 86.3772 527.548 87.0424 527.388L87.5629 528.651Z" fill="#F28100"/>
<path d="M76.7321 538.329H73.4785V542H76.7321V538.329Z" fill="#37376D"/>
<path d="M80.9827 542H84.2508L82.9204 538.329H79.6523L80.9827 542Z" fill="#37376D"/>
<path d="M84.9762 200.095H83.7619V196.857C83.7619 195.959 83.0333 195.238 82.1429 195.238H78.9048V194.024C78.9048 193.487 78.6915 192.972 78.312 192.593C77.9325 192.213 77.4177 192 76.881 192C76.3442 192 75.8294 192.213 75.4499 192.593C75.0704 192.972 74.8571 193.487 74.8571 194.024V195.238H71.619C71.1896 195.238 70.7778 195.409 70.4742 195.712C70.1706 196.016 70 196.428 70 196.857V199.933H71.2143C72.4286 199.933 73.4 200.905 73.4 202.119C73.4 203.333 72.4286 204.305 71.2143 204.305H70V207.381C70 207.81 70.1706 208.222 70.4742 208.526C70.7778 208.829 71.1896 209 71.619 209H74.6952V207.786C74.6952 206.571 75.6667 205.6 76.881 205.6C78.0952 205.6 79.0667 206.571 79.0667 207.786V209H82.1429C82.5723 209 82.9841 208.829 83.2877 208.526C83.5913 208.222 83.7619 207.81 83.7619 207.381V204.143H84.9762C85.5129 204.143 86.0277 203.93 86.4072 203.55C86.7868 203.171 87 202.656 87 202.119C87 201.582 86.7868 201.068 86.4072 200.688C86.0277 200.308 85.5129 200.095 84.9762 200.095Z" fill="#747474"/>
<path d="M72 238.5L69 241.44V233H72V238.5ZM77 236.66L75.43 235.32L74 236.64V229H77V236.66ZM82 235L79 238V225H82V235ZM84.81 234.81L83 233H88V238L86.21 236.21L79 243.36L75.53 240.34L71.75 244H69L75.47 237.66L79 240.64" fill="#747474"/>
<path d="M80.763 268.325L79.953 269.153C79.305 269.801 78.9 270.35 78.9 271.7H77.1V271.25C77.1 270.251 77.505 269.351 78.153 268.703L79.269 267.569C79.602 267.245 79.8 266.795 79.8 266.3C79.8 265.301 78.99 264.5 78 264.5C77.5226 264.5 77.0648 264.69 76.7272 265.027C76.3896 265.365 76.2 265.823 76.2 266.3H74.4C74.4 265.345 74.7793 264.43 75.4544 263.754C76.1295 263.079 77.0452 262.7 78 262.7C78.9548 262.7 79.8705 263.079 80.5456 263.754C81.2207 264.43 81.6 265.345 81.6 266.3C81.6 267.092 81.276 267.803 80.763 268.325ZM78.9 275.3H77.1V273.5H78.9V275.3ZM78 260C76.8181 260 75.6478 260.233 74.5558 260.685C73.4639 261.137 72.4718 261.8 71.636 262.636C69.9482 264.324 69 266.613 69 269C69 271.387 69.9482 273.676 71.636 275.364C72.4718 276.2 73.4639 276.863 74.5558 277.315C75.6478 277.767 76.8181 278 78 278C80.3869 278 82.6761 277.052 84.364 275.364C86.0518 273.676 87 271.387 87 269C87 264.023 82.95 260 78 260Z" fill="#747474"/>
<path d="M50 61C50 52.7157 56.7157 46 65 46H105V101H50V61Z" fill="#0FA7F0"/>
<g filter="url(#filter2_d_582:1785)">
<path d="M105 101L105 46L799 46C807.284 46 814 52.7157 814 61L814 101L105 101Z" fill="white"/>
</g>
<rect x="69" y="67" width="18" height="2" fill="white"/>
<rect x="69" y="72" width="18" height="2" fill="white"/>
<rect x="69" y="77" width="18" height="2" fill="white"/>
<circle opacity="0.6" cx="427.5" cy="318.5" r="126.5" fill="#FFE264"/>
<path d="M554 318.5C554 348.369 543.431 377.274 524.164 400.098C504.898 422.922 478.176 438.193 448.731 443.206C419.286 448.219 389.017 442.651 363.283 427.488C337.549 412.325 318.01 388.546 308.126 360.359C298.243 332.173 298.651 301.399 309.28 273.485C319.909 245.572 340.072 222.319 366.2 207.845C392.327 193.371 422.733 188.609 452.035 194.402C481.337 200.195 507.643 216.17 526.297 239.498L427.5 318.5H554Z" fill="#F28100"/>
<path d="M554 318.5C554 345.836 545.145 372.437 528.76 394.319C512.376 416.201 489.344 432.187 463.113 439.883C436.883 447.579 408.865 446.571 383.255 437.01C357.645 427.449 335.822 409.849 321.052 386.846C306.283 363.843 299.363 336.674 301.327 309.409C303.292 282.143 314.036 256.247 331.95 235.599C349.865 214.951 373.986 200.662 400.702 194.871C427.418 189.08 455.291 192.099 480.147 203.476L427.5 318.5H554Z" fill="#0FA7F0"/>
<path d="M369.564 467.1H374.443C375.69 467.1 376.676 467.361 377.401 467.882C378.126 468.392 378.489 469.134 378.489 470.109C378.489 470.812 378.302 471.39 377.928 471.843C377.554 472.285 377.106 472.585 376.585 472.744C377.22 472.914 377.775 473.243 378.251 473.73C378.727 474.206 378.965 474.875 378.965 475.736C378.965 476.257 378.863 476.716 378.659 477.113C378.466 477.51 378.217 477.827 377.911 478.065C377.616 478.292 377.265 478.479 376.857 478.626C376.46 478.773 376.075 478.875 375.701 478.932C375.338 478.977 374.964 479 374.579 479H369.564V467.1ZM377.52 475.583C377.52 474.212 376.574 473.526 374.681 473.526H370.992V477.64H374.29C374.653 477.64 374.959 477.634 375.208 477.623C375.457 477.6 375.741 477.555 376.058 477.487C376.375 477.408 376.63 477.3 376.823 477.164C377.016 477.017 377.18 476.813 377.316 476.552C377.452 476.28 377.52 475.957 377.52 475.583ZM377.044 470.313C377.044 469.644 376.812 469.168 376.347 468.885C375.894 468.602 375.219 468.46 374.324 468.46H370.992V472.166H374.715C375.395 472.166 375.95 472.019 376.381 471.724C376.823 471.418 377.044 470.948 377.044 470.313ZM386.622 479H385.262V470.84H386.622V474.291H391.348V470.84H392.708V479H391.348V475.549H386.622V479ZM401.853 477.3C401.853 477.719 402.063 477.929 402.482 477.929C402.663 477.929 402.873 477.889 403.111 477.81V478.915C402.771 479.04 402.431 479.102 402.091 479.102C401.309 479.102 400.81 478.773 400.595 478.116C399.722 478.841 398.663 479.204 397.416 479.204C396.623 479.204 395.943 478.994 395.376 478.575C394.821 478.144 394.543 477.527 394.543 476.722C394.543 475.759 394.9 475.062 395.614 474.631C396.339 474.189 397.212 473.968 398.232 473.968C398.98 473.968 399.734 474.053 400.493 474.223V473.934C400.493 473.311 400.289 472.818 399.881 472.455C399.473 472.081 398.901 471.894 398.164 471.894C397.133 471.894 396.141 472.098 395.189 472.506V471.18C396.254 470.817 397.291 470.636 398.3 470.636C399.411 470.636 400.278 470.936 400.901 471.537C401.536 472.126 401.853 472.982 401.853 474.104V477.3ZM395.937 476.654C395.937 477.107 396.107 477.453 396.447 477.691C396.798 477.918 397.218 478.031 397.705 478.031C398.827 478.031 399.756 477.634 400.493 476.841V475.345C399.722 475.186 399.031 475.107 398.419 475.107C397.728 475.107 397.138 475.232 396.651 475.481C396.175 475.719 395.937 476.11 395.937 476.654ZM407.46 472.098C407.403 472.993 407.335 473.775 407.256 474.444C407.176 475.113 407.063 475.759 406.916 476.382C406.768 476.994 406.587 477.493 406.372 477.878C406.168 478.263 405.907 478.569 405.59 478.796C405.272 479.023 404.91 479.136 404.502 479.136C404.173 479.136 403.844 479.074 403.516 478.949V477.878C403.697 477.946 403.878 477.98 404.06 477.98C404.74 477.98 405.233 477.385 405.539 476.195C405.856 474.994 406.054 473.209 406.134 470.84H412.135V479H410.775V472.098H407.46ZM415.803 479H414.647V470.84H416.007V476.807L421.005 470.84H422.161V479H420.801V473.033L415.803 479ZM431.049 479H429.689V476.161C428.952 476.444 428.142 476.586 427.258 476.586C426.283 476.586 425.513 476.342 424.946 475.855C424.391 475.368 424.113 474.637 424.113 473.662V470.84H425.473V473.56C425.473 474.217 425.654 474.676 426.017 474.937C426.391 475.198 426.941 475.328 427.666 475.328C428.425 475.328 429.1 475.209 429.689 474.971V470.84H431.049V479ZM434.728 479H433.572V470.84H434.932V476.807L439.93 470.84H441.086V479H439.726V473.033L434.728 479ZM444.756 479H443.6V470.84H444.96V476.807L449.958 470.84H451.114V479H449.754V473.033L444.756 479ZM459.816 465.247H461.142C460.428 466.312 459.872 467.542 459.476 468.936C459.079 470.33 458.881 471.701 458.881 473.05C458.881 474.399 459.079 475.77 459.476 477.164C459.872 478.558 460.428 479.788 461.142 480.853H459.816C459.056 479.754 458.456 478.518 458.014 477.147C457.572 475.764 457.351 474.399 457.351 473.05C457.351 471.701 457.572 470.341 458.014 468.97C458.456 467.587 459.056 466.346 459.816 465.247ZM463.397 472.897C464.497 472.16 465.704 471.792 467.018 471.792C468.072 471.792 468.996 472.115 469.789 472.761C470.583 473.396 470.979 474.28 470.979 475.413C470.979 476.603 470.583 477.532 469.789 478.201C469.007 478.87 468.021 479.204 466.831 479.204C465.199 479.204 463.975 478.7 463.159 477.691C462.355 476.671 461.952 475.243 461.952 473.407C461.952 471.367 462.434 469.831 463.397 468.8C464.372 467.757 465.641 467.236 467.205 467.236C468.214 467.236 469.149 467.457 470.01 467.899V469.259C469.172 468.817 468.248 468.596 467.239 468.596C466.174 468.596 465.284 468.942 464.57 469.633C463.868 470.313 463.477 471.401 463.397 472.897ZM463.414 474.325C463.63 476.694 464.735 477.878 466.729 477.878C467.568 477.878 468.242 477.685 468.752 477.3C469.274 476.915 469.534 476.308 469.534 475.481C469.534 474.642 469.268 474.042 468.735 473.679C468.203 473.305 467.511 473.118 466.661 473.118C465.403 473.118 464.321 473.52 463.414 474.325ZM472.273 471.027C472.273 469.837 472.664 468.908 473.446 468.239C474.239 467.57 475.231 467.236 476.421 467.236C478.053 467.236 479.271 467.746 480.076 468.766C480.892 469.775 481.3 471.197 481.3 473.033C481.3 475.073 480.813 476.614 479.838 477.657C478.875 478.688 477.611 479.204 476.047 479.204C475.038 479.204 474.103 478.983 473.242 478.541V477.181C474.081 477.623 475.004 477.844 476.013 477.844C477.078 477.844 477.962 477.504 478.665 476.824C479.379 476.133 479.776 475.039 479.855 473.543C478.744 474.28 477.537 474.648 476.234 474.648C475.18 474.648 474.256 474.331 473.463 473.696C472.67 473.05 472.273 472.16 472.273 471.027ZM476.523 468.562C475.684 468.562 475.004 468.755 474.483 469.14C473.973 469.525 473.718 470.132 473.718 470.959C473.718 471.798 473.984 472.404 474.517 472.778C475.05 473.141 475.741 473.322 476.591 473.322C477.849 473.322 478.931 472.92 479.838 472.115C479.623 469.746 478.518 468.562 476.523 468.562ZM482.094 465.247H483.42C484.18 466.346 484.78 467.587 485.222 468.97C485.664 470.341 485.885 471.701 485.885 473.05C485.885 474.399 485.664 475.764 485.222 477.147C484.78 478.518 484.18 479.754 483.42 480.853H482.094C482.808 479.788 483.364 478.558 483.76 477.164C484.157 475.77 484.355 474.399 484.355 473.05C484.355 471.701 484.157 470.33 483.76 468.936C483.364 467.542 482.808 466.312 482.094 465.247Z" fill="#454545"/>
<path d="M573.564 280.1H578.443C579.69 280.1 580.676 280.361 581.401 280.882C582.126 281.392 582.489 282.134 582.489 283.109C582.489 283.812 582.302 284.39 581.928 284.843C581.554 285.285 581.106 285.585 580.585 285.744C581.22 285.914 581.775 286.243 582.251 286.73C582.727 287.206 582.965 287.875 582.965 288.736C582.965 289.257 582.863 289.716 582.659 290.113C582.466 290.51 582.217 290.827 581.911 291.065C581.616 291.292 581.265 291.479 580.857 291.626C580.46 291.773 580.075 291.875 579.701 291.932C579.338 291.977 578.964 292 578.579 292H573.564V280.1ZM581.52 288.583C581.52 287.212 580.574 286.526 578.681 286.526H574.992V290.64H578.29C578.653 290.64 578.959 290.634 579.208 290.623C579.457 290.6 579.741 290.555 580.058 290.487C580.375 290.408 580.63 290.3 580.823 290.164C581.016 290.017 581.18 289.813 581.316 289.552C581.452 289.28 581.52 288.957 581.52 288.583ZM581.044 283.313C581.044 282.644 580.812 282.168 580.347 281.885C579.894 281.602 579.219 281.46 578.324 281.46H574.992V285.166H578.715C579.395 285.166 579.95 285.019 580.381 284.724C580.823 284.418 581.044 283.948 581.044 283.313ZM590.622 292H589.262V283.84H590.622V287.291H595.348V283.84H596.708V292H595.348V288.549H590.622V292ZM605.853 290.3C605.853 290.719 606.063 290.929 606.482 290.929C606.663 290.929 606.873 290.889 607.111 290.81V291.915C606.771 292.04 606.431 292.102 606.091 292.102C605.309 292.102 604.81 291.773 604.595 291.116C603.722 291.841 602.663 292.204 601.416 292.204C600.623 292.204 599.943 291.994 599.376 291.575C598.821 291.144 598.543 290.527 598.543 289.722C598.543 288.759 598.9 288.062 599.614 287.631C600.339 287.189 601.212 286.968 602.232 286.968C602.98 286.968 603.734 287.053 604.493 287.223V286.934C604.493 286.311 604.289 285.818 603.881 285.455C603.473 285.081 602.901 284.894 602.164 284.894C601.133 284.894 600.141 285.098 599.189 285.506V284.18C600.254 283.817 601.291 283.636 602.3 283.636C603.411 283.636 604.278 283.936 604.901 284.537C605.536 285.126 605.853 285.982 605.853 287.104V290.3ZM599.937 289.654C599.937 290.107 600.107 290.453 600.447 290.691C600.798 290.918 601.218 291.031 601.705 291.031C602.827 291.031 603.756 290.634 604.493 289.841V288.345C603.722 288.186 603.031 288.107 602.419 288.107C601.728 288.107 601.138 288.232 600.651 288.481C600.175 288.719 599.937 289.11 599.937 289.654ZM611.46 285.098C611.403 285.993 611.335 286.775 611.256 287.444C611.176 288.113 611.063 288.759 610.916 289.382C610.768 289.994 610.587 290.493 610.372 290.878C610.168 291.263 609.907 291.569 609.59 291.796C609.272 292.023 608.91 292.136 608.502 292.136C608.173 292.136 607.844 292.074 607.516 291.949V290.878C607.697 290.946 607.878 290.98 608.06 290.98C608.74 290.98 609.233 290.385 609.539 289.195C609.856 287.994 610.054 286.209 610.134 283.84H616.135V292H614.775V285.098H611.46ZM619.803 292H618.647V283.84H620.007V289.807L625.005 283.84H626.161V292H624.801V286.033L619.803 292ZM635.049 292H633.689V289.161C632.952 289.444 632.142 289.586 631.258 289.586C630.283 289.586 629.513 289.342 628.946 288.855C628.391 288.368 628.113 287.637 628.113 286.662V283.84H629.473V286.56C629.473 287.217 629.654 287.676 630.017 287.937C630.391 288.198 630.941 288.328 631.666 288.328C632.425 288.328 633.1 288.209 633.689 287.971V283.84H635.049V292ZM638.728 292H637.572V283.84H638.932V289.807L643.93 283.84H645.086V292H643.726V286.033L638.728 292ZM648.756 292H647.6V283.84H648.96V289.807L653.958 283.84H655.114V292H653.754V286.033L648.756 292ZM663.816 278.247H665.142C664.428 279.312 663.872 280.542 663.476 281.936C663.079 283.33 662.881 284.701 662.881 286.05C662.881 287.399 663.079 288.77 663.476 290.164C663.872 291.558 664.428 292.788 665.142 293.853H663.816C663.056 292.754 662.456 291.518 662.014 290.147C661.572 288.764 661.351 287.399 661.351 286.05C661.351 284.701 661.572 283.341 662.014 281.97C662.456 280.587 663.056 279.346 663.816 278.247ZM674.17 283.381C674.17 283.97 674.011 284.503 673.694 284.979C673.388 285.444 672.986 285.761 672.487 285.931C673.076 286.112 673.581 286.447 674 286.934C674.431 287.41 674.646 288.05 674.646 288.855C674.646 289.932 674.244 290.759 673.439 291.337C672.646 291.915 671.637 292.204 670.413 292.204C668.86 292.204 667.517 291.949 666.384 291.439V290.028C667.483 290.595 668.787 290.872 670.294 290.861C672.277 290.861 673.269 290.17 673.269 288.787C673.269 287.404 672.328 286.713 670.447 286.713H668.679V285.353L670.294 285.37C671.11 285.37 671.728 285.2 672.147 284.86C672.578 284.509 672.793 284.055 672.793 283.5C672.793 282.899 672.555 282.429 672.079 282.089C671.603 281.738 670.929 281.562 670.056 281.562C668.855 281.562 667.699 281.857 666.588 282.446V281.052C667.653 280.508 668.872 280.236 670.243 280.236C671.422 280.236 672.368 280.525 673.082 281.103C673.807 281.681 674.17 282.44 674.17 283.381ZM677.076 280.44H684.012V281.8H678.419L678.215 285.064C678.827 284.894 679.484 284.809 680.187 284.809C680.765 284.809 681.303 284.877 681.802 285.013C682.3 285.138 682.759 285.342 683.179 285.625C683.609 285.897 683.949 286.282 684.199 286.781C684.448 287.268 684.573 287.846 684.573 288.515C684.573 289.66 684.148 290.561 683.298 291.218C682.459 291.875 681.388 292.204 680.085 292.204C678.679 292.204 677.444 291.943 676.379 291.422V290.062C677.399 290.606 678.577 290.878 679.915 290.878C680.889 290.878 681.666 290.674 682.244 290.266C682.833 289.858 683.128 289.274 683.128 288.515C683.128 286.906 681.983 286.101 679.694 286.101C678.696 286.101 677.699 286.282 676.702 286.645L677.076 280.44ZM685.679 278.247H687.005C687.765 279.346 688.365 280.587 688.807 281.97C689.249 283.341 689.47 284.701 689.47 286.05C689.47 287.399 689.249 288.764 688.807 290.147C688.365 291.518 687.765 292.754 687.005 293.853H685.679C686.393 292.788 686.949 291.558 687.345 290.164C687.742 288.77 687.94 287.399 687.94 286.05C687.94 284.701 687.742 283.33 687.345 281.936C686.949 280.542 686.393 279.312 685.679 278.247Z" fill="#454545"/>
<path d="M531.047 197.1H532.475V209H531.047V203.713H523.992V209H522.564V197.1H523.992V202.353H531.047V197.1ZM534.547 204.92C534.547 203.583 534.955 202.534 535.771 201.775C536.598 201.016 537.544 200.636 538.61 200.636C539.607 200.636 540.429 200.885 541.075 201.384C541.732 201.883 542.163 202.5 542.367 203.237C542.571 203.962 542.582 204.722 542.401 205.515H535.907C535.986 206.32 536.343 206.926 536.978 207.334C537.612 207.742 538.377 207.946 539.273 207.946C540.27 207.946 541.165 207.725 541.959 207.283V208.609C541.199 209.006 540.236 209.204 539.069 209.204C537.777 209.204 536.7 208.836 535.839 208.099C534.977 207.362 534.547 206.303 534.547 204.92ZM541.194 204.325C541.228 204.087 541.211 203.838 541.143 203.577C541.075 203.316 540.95 203.056 540.769 202.795C540.599 202.534 540.332 202.319 539.97 202.149C539.607 201.979 539.182 201.894 538.695 201.894C537.958 201.894 537.318 202.109 536.774 202.54C536.241 202.971 535.952 203.566 535.907 204.325H541.194ZM549.981 209H548.621V200.84H549.981V204.291H554.707V200.84H556.067V209H554.707V205.549H549.981V209ZM565.212 207.3C565.212 207.719 565.422 207.929 565.841 207.929C566.023 207.929 566.232 207.889 566.47 207.81V208.915C566.13 209.04 565.79 209.102 565.45 209.102C564.668 209.102 564.17 208.773 563.954 208.116C563.082 208.841 562.022 209.204 560.775 209.204C559.982 209.204 559.302 208.994 558.735 208.575C558.18 208.144 557.902 207.527 557.902 206.722C557.902 205.759 558.259 205.062 558.973 204.631C559.699 204.189 560.571 203.968 561.591 203.968C562.339 203.968 563.093 204.053 563.852 204.223V203.934C563.852 203.311 563.648 202.818 563.24 202.455C562.832 202.081 562.26 201.894 561.523 201.894C560.492 201.894 559.5 202.098 558.548 202.506V201.18C559.614 200.817 560.651 200.636 561.659 200.636C562.77 200.636 563.637 200.936 564.26 201.537C564.895 202.126 565.212 202.982 565.212 204.104V207.3ZM559.296 206.654C559.296 207.107 559.466 207.453 559.806 207.691C560.158 207.918 560.577 208.031 561.064 208.031C562.186 208.031 563.116 207.634 563.852 206.841V205.345C563.082 205.186 562.39 205.107 561.778 205.107C561.087 205.107 560.498 205.232 560.01 205.481C559.534 205.719 559.296 206.11 559.296 206.654ZM574.066 198.868C573.397 199.344 572.604 199.582 571.686 199.582C570.768 199.582 569.975 199.344 569.306 198.868V197.644C570.065 198.143 570.859 198.392 571.686 198.392C572.513 198.392 573.307 198.143 574.066 197.644V198.868ZM569.085 209H567.929V200.84H569.289V206.807L574.287 200.84H575.443V209H574.083V203.033L569.085 209ZM578.466 211.21H577.14V207.776H578.228C579.192 206.076 579.656 203.764 579.622 200.84H585.708V207.776H586.898V211.21H585.572V209H578.466V211.21ZM580.931 202.064C580.875 204.297 580.467 206.201 579.707 207.776H584.348V202.064H580.931ZM587.987 204.92C587.987 203.583 588.395 202.534 589.211 201.775C590.038 201.016 590.985 200.636 592.05 200.636C593.047 200.636 593.869 200.885 594.515 201.384C595.172 201.883 595.603 202.5 595.807 203.237C596.011 203.962 596.022 204.722 595.841 205.515H589.347C589.426 206.32 589.783 206.926 590.418 207.334C591.053 207.742 591.818 207.946 592.713 207.946C593.71 207.946 594.606 207.725 595.399 207.283V208.609C594.64 209.006 593.676 209.204 592.509 209.204C591.217 209.204 590.14 208.836 589.279 208.099C588.418 207.362 587.987 206.303 587.987 204.92ZM594.634 204.325C594.668 204.087 594.651 203.838 594.583 203.577C594.515 203.316 594.39 203.056 594.209 202.795C594.039 202.534 593.773 202.319 593.41 202.149C593.047 201.979 592.622 201.894 592.135 201.894C591.398 201.894 590.758 202.109 590.214 202.54C589.681 202.971 589.392 203.566 589.347 204.325H594.634ZM599.188 209H597.828V200.84H599.188V204.291H603.914V200.84H605.274V209H603.914V205.549H599.188V209ZM613.978 195.247H615.304C614.59 196.312 614.034 197.542 613.638 198.936C613.241 200.33 613.043 201.701 613.043 203.05C613.043 204.399 613.241 205.77 613.638 207.164C614.034 208.558 614.59 209.788 615.304 210.853H613.978C613.218 209.754 612.618 208.518 612.176 207.147C611.734 205.764 611.513 204.399 611.513 203.05C611.513 201.701 611.734 200.341 612.176 198.97C612.618 197.587 613.218 196.346 613.978 195.247ZM619.368 197.44H620.422V207.64H622.581V209H616.563V207.64H618.994V198.953L616.563 199.871V198.511L619.368 197.44ZM631.637 200.381C631.637 200.97 631.478 201.503 631.161 201.979C630.855 202.444 630.452 202.761 629.954 202.931C630.543 203.112 631.047 203.447 631.467 203.934C631.897 204.41 632.113 205.05 632.113 205.855C632.113 206.932 631.71 207.759 630.906 208.337C630.112 208.915 629.104 209.204 627.88 209.204C626.327 209.204 624.984 208.949 623.851 208.439V207.028C624.95 207.595 626.253 207.872 627.761 207.861C629.744 207.861 630.736 207.17 630.736 205.787C630.736 204.404 629.795 203.713 627.914 203.713H626.146V202.353L627.761 202.37C628.577 202.37 629.194 202.2 629.614 201.86C630.044 201.509 630.26 201.055 630.26 200.5C630.26 199.899 630.022 199.429 629.546 199.089C629.07 198.738 628.395 198.562 627.523 198.562C626.321 198.562 625.165 198.857 624.055 199.446V198.052C625.12 197.508 626.338 197.236 627.71 197.236C628.888 197.236 629.835 197.525 630.549 198.103C631.274 198.681 631.637 199.44 631.637 200.381ZM633.003 195.247H634.329C635.088 196.346 635.689 197.587 636.131 198.97C636.573 200.341 636.794 201.701 636.794 203.05C636.794 204.399 636.573 205.764 636.131 207.147C635.689 208.518 635.088 209.754 634.329 210.853H633.003C633.717 209.788 634.272 208.558 634.669 207.164C635.065 205.77 635.264 204.399 635.264 203.05C635.264 201.701 635.065 200.33 634.669 198.936C634.272 197.542 633.717 196.312 633.003 195.247Z" fill="#454545"/>
<path d="M582.834 73C582.834 77.5558 586.528 81.25 591.084 81.25C593.275 81.25 595.374 80.3883 596.951 78.8667L595.576 77.4917C594.411 78.7292 592.789 79.4167 591.084 79.4167C585.364 79.4167 582.504 72.505 586.546 68.4625C590.589 64.42 597.501 67.2892 597.501 73H594.751L598.417 76.6667H598.509L602.084 73H599.334C599.334 68.4442 595.64 64.75 591.084 64.75C586.528 64.75 582.834 68.4442 582.834 73Z" fill="#454545"/>
<path d="M639.501 76.3334V66.3334H624.501V76.3334H639.501ZM639.501 64.6667C639.943 64.6667 640.367 64.8423 640.679 65.1549C640.992 65.4675 641.167 65.8914 641.167 66.3334V76.3334C641.167 76.7754 640.992 77.1994 640.679 77.5119C640.367 77.8245 639.943 78.0001 639.501 78.0001H633.667V79.6667H635.334V81.3334H628.667V79.6667H630.334V78.0001H624.501C623.576 78.0001 622.834 77.2501 622.834 76.3334V66.3334C622.834 65.4084 623.576 64.6667 624.501 64.6667H639.501ZM626.167 68.0001H633.667V72.1667H626.167V68.0001ZM634.501 68.0001H637.834V69.6667H634.501V68.0001ZM637.834 70.5001V74.6667H634.501V70.5001H637.834ZM626.167 73.0001H629.501V74.6667H626.167V73.0001ZM630.334 73.0001H633.667V74.6667H630.334V73.0001Z" fill="#454545"/>
<path d="M669.833 65.5V70.5H676.5V65.5H669.833ZM669.833 80.5H676.5V72.1667H669.833V80.5ZM661.5 80.5H668.167V75.5H661.5V80.5ZM661.5 73.8333H668.167V65.5H661.5V73.8333Z" fill="#454545"/>
<path d="M697.5 76.1667V77.8333H702.5V76.1667H697.5ZM697.5 66.1667V67.8333H705.833V66.1667H697.5ZM705.833 79.5V77.8333H712.5V76.1667H705.833V74.5H704.167V79.5H705.833ZM700.833 69.5V71.1667H697.5V72.8333H700.833V74.5H702.5V69.5H700.833ZM712.5 72.8333V71.1667H704.167V72.8333H712.5ZM707.5 69.5H709.167V67.8333H712.5V66.1667H709.167V64.5H707.5V69.5Z" fill="#454545"/>
<path d="M735.001 64.6667C734.076 64.6667 733.334 65.4167 733.334 66.3334V79.6667C733.334 80.1088 733.51 80.5327 733.822 80.8453C734.135 81.1578 734.559 81.3334 735.001 81.3334H745.001C745.443 81.3334 745.867 81.1578 746.179 80.8453C746.492 80.5327 746.667 80.1088 746.667 79.6667V69.6667L741.667 64.6667H735.001ZM740.834 65.9167L745.417 70.5001H740.834V65.9167ZM737.442 73.1834H743.334V79.0751L741.567 77.3084L739.209 79.6667L736.851 77.3084L739.209 74.9584" fill="#454545"/>
<path d="M775.666 73V79.5667C775.7 79.8167 775.616 80.0833 775.425 80.2583C775.1 80.5833 774.575 80.5833 774.25 80.2583L772.575 78.5833C772.383 78.3917 772.3 78.1333 772.333 77.8917V73H772.308L767.508 66.85C767.225 66.4917 767.291 65.9667 767.65 65.6833C767.808 65.5667 767.983 65.5 768.166 65.5H779.833C780.016 65.5 780.191 65.5667 780.35 65.6833C780.708 65.9667 780.775 66.4917 780.491 66.85L775.691 73H775.666Z" fill="#0FA7F0"/>
<defs>
<filter id="filter0_f" x="0" y="0" width="864" height="613" filterUnits="userSpaceOnUse" color-interpolation-filters="sRGB">
<feFlood flood-opacity="0" result="BackgroundImageFix"/>
<feColorMatrix in="SourceAlpha" type="matrix" values="0 0 0 0 0 0 0 0 0 0 0 0 0 0 0 0 0 0 127 0" result="hardAlpha"/>
<feOffset dy="4"/>
<feGaussianBlur stdDeviation="25"/>
<feComposite in2="hardAlpha" operator="out"/>
<feColorMatrix type="matrix" values="0 0 0 0 0 0 0 0 0 0 0 0 0 0 0 0 0 0 0.1 0"/>
<feBlend mode="normal" in2="BackgroundImageFix" result="effect1_dropShadow"/>
<feBlend mode="normal" in="SourceGraphic" in2="effect1_dropShadow" result="shape"/>
</filter>
<filter id="filter1_d_582:1785" x="30" y="71" width="115" height="518" filterUnits="userSpaceOnUse" color-interpolation-filters="sRGB">
<feFlood flood-opacity="0" result="BackgroundImageFix"/>
<feColorMatrix in="SourceAlpha" type="matrix" values="0 0 0 0 0 0 0 0 0 0 0 0 0 0 0 0 0 0 127 0" result="hardAlpha"/>
<feOffset dx="10"/>
<feGaussianBlur stdDeviation="15"/>
<feComposite in2="hardAlpha" operator="out"/>
<feColorMatrix type="matrix" values="0 0 0 0 0 0 0 0 0 0 0 0 0 0 0 0 0 0 0.1 0"/>
<feBlend mode="normal" in2="BackgroundImageFix" result="effect1_dropShadow"/>
<feBlend mode="normal" in="SourceGraphic" in2="effect1_dropShadow" result="shape"/>
</filter>
<filter id="filter2_d_582:1785" x="85" y="16" width="769" height="115" filterUnits="userSpaceOnUse" color-interpolation-filters="sRGB">
<feFlood flood-opacity="0" result="BackgroundImageFix"/>
<feColorMatrix in="SourceAlpha" type="matrix" values="0 0 0 0 0 0 0 0 0 0 0 0 0 0 0 0 0 0 127 0" result="hardAlpha"/>
<feOffset dx="10"/>
<feGaussianBlur stdDeviation="15"/>
<feComposite in2="hardAlpha" operator="out"/>
<feColorMatrix type="matrix" values="0 0 0 0 0 0 0 0 0 0 0 0 0 0 0 0 0 0 0.1 0"/>
<feBlend mode="normal" in2="BackgroundImageFix" result="effect1_dropShadow"/>
<feBlend mode="normal" in="SourceGraphic" in2="effect1_dropShadow" result="shape"/>
</filter>
</defs>
</svg>
