<svg width="1028" height="573" viewBox="0 0 1028 573" fill="none" xmlns="http://www.w3.org/2000/svg">
<path d="M20 45C20 36.7157 26.7157 30 35 30H973C981.284 30 988 36.7157 988 45V528C988 536.284 981.284 543 973 543H35C26.7158 543 20 536.284 20 528V45Z" fill="white"/>
<path opacity="0.6" d="M784 281C813.271 281 837 257.271 837 228C837 198.729 813.271 175 784 175C754.729 175 731 198.729 731 228C731 257.271 754.729 281 784 281Z" fill="#FFE264"/>
<path d="M837 228C837 240.514 832.572 252.625 824.5 262.187C816.427 271.75 805.232 278.148 792.895 280.248C780.558 282.349 767.876 280.016 757.095 273.663C746.313 267.31 738.127 257.347 733.986 245.538C729.845 233.729 730.016 220.835 734.469 209.14C738.922 197.445 747.37 187.703 758.317 181.639C769.264 175.574 782.003 173.579 794.28 176.006C806.556 178.434 817.578 185.127 825.393 194.9L784 228H837Z" fill="#F28100"/>
<path d="M837 228C837 239.453 833.29 250.598 826.425 259.766C819.561 268.934 809.911 275.632 798.921 278.856C787.931 282.081 776.192 281.658 765.463 277.652C754.733 273.647 745.589 266.273 739.401 256.635C733.213 246.997 730.314 235.615 731.137 224.191C731.96 212.767 736.462 201.918 743.967 193.267C751.473 184.616 761.579 178.629 772.772 176.203C783.966 173.777 795.644 175.042 806.058 179.808L784 228H837Z" fill="#0FA7F0"/>
<path d="M610.5 120C610.5 117.515 612.515 115.5 615 115.5H953C955.485 115.5 957.5 117.515 957.5 120V301C957.5 303.485 955.485 305.5 953 305.5H615C612.515 305.5 610.5 303.485 610.5 301V120Z" stroke="#E6E6E6"/>
<path d="M610 120C610 117.239 612.239 115 615 115H953C955.761 115 958 117.239 958 120V150H610V120Z" fill="#0FA7F0"/>
<path d="M105.5 120C105.5 117.515 107.515 115.5 110 115.5H294C296.485 115.5 298.5 117.515 298.5 120V301C298.5 303.485 296.485 305.5 294 305.5H110C107.515 305.5 105.5 303.485 105.5 301V120Z" stroke="#E6E6E6"/>
<path d="M105 120C105 117.239 107.239 115 110 115H294C296.761 115 299 117.239 299 120V150H105V120Z" fill="#0FA7F0"/>
<path d="M126 183.5H278" stroke="#E6E6E6"/>
<path d="M126 203.5H278" stroke="#E6E6E6"/>
<path d="M126 192C126 190.895 126.895 190 128 190H276C277.105 190 278 190.895 278 192V195C278 196.105 277.105 197 276 197H128C126.895 197 126 196.105 126 195V192Z" fill="#E6E6E6"/>
<path d="M126 223.5H278" stroke="#E6E6E6"/>
<path d="M126 212C126 210.895 126.895 210 128 210H276C277.105 210 278 210.895 278 212V215C278 216.105 277.105 217 276 217H128C126.895 217 126 216.105 126 215V212Z" fill="#E6E6E6"/>
<path d="M126 243.5H278" stroke="#E6E6E6"/>
<path d="M126 232C126 230.895 126.895 230 128 230H276C277.105 230 278 230.895 278 232V235C278 236.105 277.105 237 276 237H128C126.895 237 126 236.105 126 235V232Z" fill="#E6E6E6"/>
<path d="M126 263.5H278" stroke="#E6E6E6"/>
<path d="M126 252C126 250.895 126.895 250 128 250H276C277.105 250 278 250.895 278 252V255C278 256.105 277.105 257 276 257H128C126.895 257 126 256.105 126 255V252Z" fill="#E6E6E6"/>
<path d="M126 283.5H278" stroke="#E6E6E6"/>
<path d="M126 272C126 270.895 126.895 270 128 270H276C277.105 270 278 270.895 278 272V275C278 276.105 277.105 277 276 277H128C126.895 277 126 276.105 126 275V272Z" fill="#E6E6E6"/>
<path d="M228 170H128C126.895 170 126 170.895 126 172V175C126 176.105 126.895 177 128 177H228C229.105 177 230 176.105 230 175V172C230 170.895 229.105 170 228 170Z" fill="#B3B3B3"/>
<path d="M108.086 511.621C106.864 511.114 105.886 510.136 105.379 508.914L105.841 508.722C105.622 508.193 105.5 507.611 105.5 507V503.542H105V496.625H105.5V489.708H105V482.792H105.5V475.875H105V468.958H105.5V462.042H105V455.125H105.5V448.208H105V441.292H105.5V434.375H105V427.458H105.5V420.542H105V413.625H105.5V406.708H105V399.792H105.5V392.875H105V385.958H105.5V379.042H105V372.125H105.5V365.208H105V358.292H105.5V351.375H105V344.458H105.5V341C105.5 340.389 105.622 339.807 105.841 339.278L105.379 339.086C105.886 337.864 106.864 336.886 108.086 336.379L108.278 336.841C108.807 336.622 109.389 336.5 110 336.5H113.539V336H120.615V336.5H127.692V336H134.769V336.5H141.846V336H148.923V336.5H156V336H163.077V336.5H170.154V336H177.231V336.5H184.308V336H191.385V336.5H198.462V336H205.538V336.5H212.615V336H219.692V336.5H226.769V336H233.846V336.5H240.923V336H248V336.5H255.077V336H262.154V336.5H269.231V336H276.308V336.5H283.385V336H290.462V336.5H294C294.611 336.5 295.193 336.622 295.722 336.841L295.914 336.379C297.136 336.886 298.114 337.864 298.621 339.086L298.159 339.278C298.378 339.807 298.5 340.389 298.5 341V344.458H299V351.375H298.5V358.292H299V365.208H298.5V372.125H299V379.042H298.5V385.958H299V392.875H298.5V399.792H299V406.708H298.5V413.625H299V420.542H298.5V427.458H299V434.375H298.5V441.292H299V448.208H298.5V455.125H299V462.042H298.5V468.958H299V475.875H298.5V482.792H299V489.708H298.5V496.625H299V503.542H298.5V507C298.5 507.611 298.378 508.193 298.159 508.722L298.621 508.914C298.114 510.136 297.136 511.114 295.914 511.621L295.722 511.159C295.193 511.378 294.611 511.5 294 511.5H290.461V512H283.385V511.5H276.308V512H269.231V511.5H262.154V512H255.077V511.5H248V512H240.923V511.5H233.846V512H226.769V511.5H219.692V512H212.615V511.5H205.538V512H198.462V511.5H191.385V512H184.308V511.5H177.231V512H170.154V511.5H163.077V512H156V511.5H148.923V512H141.846V511.5H134.769V512H127.692V511.5H120.615V512H113.538V511.5H110C109.389 511.5 108.807 511.378 108.278 511.159L108.086 511.621Z" stroke="#E6E6E6" stroke-dasharray="7 7"/>
<path d="M105.954 512.884C105.576 512.728 105.274 512.428 105.117 512.053L105.26 511.994C105.192 511.832 105.155 511.653 105.155 511.466V510.405H105V508.283H105.155V506.16H105V504.038H105.155V501.916H105V499.794H105.155V497.672H105V495.55H105.155V493.427H105V491.305H105.155V489.183H105V487.061H105.155V484.939H105V482.817H105.155V480.695H105V478.573H105.155V476.45H105V474.328H105.155V472.206H105V470.084H105.155V467.962H105V465.84H105.155V463.717H105V461.595H105.155V460.534C105.155 460.347 105.192 460.168 105.26 460.006L105.117 459.947C105.274 459.572 105.576 459.272 105.954 459.116L106.014 459.258C106.177 459.191 106.357 459.153 106.546 459.153H107.641V459H109.829V459.153H112.018V459H114.207V459.153H116.396V459H118.584V459.153H120.773V459H122.962V459.153H125.151V459H127.339V459.153H129.528V459H131.717V459.153H133.906V459H136.094V459.153H138.283V459H140.472V459.153H142.661V459H144.849V459.153H147.038V459H149.227V459.153H151.416V459H153.604V459.153H155.793V459H157.982V459.153H160.171V459H162.359V459.153H163.454C163.643 459.153 163.823 459.191 163.986 459.258L164.046 459.116C164.424 459.272 164.726 459.572 164.883 459.947L164.74 460.006C164.808 460.168 164.845 460.347 164.845 460.534V461.595H165V463.717H164.845V465.84H165V467.962H164.845V470.084H165V472.206H164.845V474.328H165V476.45H164.845V478.573H165V480.695H164.845V482.817H165V484.939H164.845V487.061H165V489.183H164.845V491.305H165V493.427H164.845V495.55H165V497.672H164.845V499.794H165V501.916H164.845V504.038H165V506.16H164.845V508.283H165V510.405H164.845V511.466C164.845 511.653 164.808 511.832 164.74 511.994L164.883 512.053C164.726 512.428 164.424 512.728 164.046 512.884L163.986 512.742C163.823 512.809 163.643 512.847 163.454 512.847H162.359V513H160.171V512.847H157.982V513H155.793V512.847H153.604V513H151.416V512.847H149.227V513H147.038V512.847H144.849V513H142.661V512.847H140.472V513H138.283V512.847H136.094V513H133.906V512.847H131.717V513H129.528V512.847H127.339V513H125.151V512.847H122.962V513H120.773V512.847H118.584V513H116.396V512.847H114.207V513H112.018V512.847H109.829V513H107.641V512.847H106.546C106.357 512.847 106.177 512.809 106.014 512.742L105.954 512.884Z" stroke="#E6E6E6" stroke-dasharray="7 7"/>
<path d="M105.954 389.884C105.576 389.728 105.274 389.428 105.117 389.053L105.26 388.994C105.192 388.832 105.155 388.653 105.155 388.466V387.405H105V385.283H105.155V383.16H105V381.038H105.155V378.916H105V376.794H105.155V374.672H105V372.55H105.155V370.427H105V368.305H105.155V366.183H105V364.061H105.155V361.939H105V359.817H105.155V357.695H105V355.573H105.155V353.45H105V351.328H105.155V349.206H105V347.084H105.155V344.962H105V342.84H105.155V340.717H105V338.595H105.155V337.534C105.155 337.347 105.192 337.168 105.26 337.006L105.117 336.947C105.274 336.572 105.576 336.272 105.954 336.116L106.014 336.258C106.177 336.191 106.357 336.153 106.546 336.153H107.641V336H109.829V336.153H112.018V336H114.207V336.153H116.396V336H118.584V336.153H120.773V336H122.962V336.153H125.151V336H127.339V336.153H129.528V336H131.717V336.153H133.906V336H136.094V336.153H138.283V336H140.472V336.153H142.661V336H144.849V336.153H147.038V336H149.227V336.153H151.416V336H153.604V336.153H155.793V336H157.982V336.153H160.171V336H162.359V336.153H163.454C163.643 336.153 163.823 336.191 163.986 336.258L164.046 336.116C164.424 336.272 164.726 336.572 164.883 336.947L164.74 337.006C164.808 337.168 164.845 337.347 164.845 337.534V338.595H165V340.717H164.845V342.84H165V344.962H164.845V347.084H165V349.206H164.845V351.328H165V353.45H164.845V355.573H165V357.695H164.845V359.817H165V361.939H164.845V364.061H165V366.183H164.845V368.305H165V370.427H164.845V372.55H165V374.672H164.845V376.794H165V378.916H164.845V381.038H165V383.16H164.845V385.283H165V387.405H164.845V388.466C164.845 388.653 164.808 388.832 164.74 388.994L164.883 389.053C164.726 389.428 164.424 389.728 164.046 389.884L163.986 389.742C163.823 389.809 163.643 389.847 163.454 389.847H162.359V390H160.171V389.847H157.982V390H155.793V389.847H153.604V390H151.416V389.847H149.227V390H147.038V389.847H144.849V390H142.661V389.847H140.472V390H138.283V389.847H136.094V390H133.906V389.847H131.717V390H129.528V389.847H127.339V390H125.151V389.847H122.962V390H120.773V389.847H118.584V390H116.396V389.847H114.207V390H112.018V389.847H109.829V390H107.641V389.847H106.546C106.357 389.847 106.177 389.809 106.014 389.742L105.954 389.884Z" stroke="#E6E6E6" stroke-dasharray="7 7"/>
<path d="M105.954 450.884C105.576 450.728 105.274 450.428 105.117 450.053L105.26 449.994C105.192 449.832 105.155 449.653 105.155 449.466V448.405H105V446.283H105.155V444.16H105V442.038H105.155V439.916H105V437.794H105.155V435.672H105V433.55H105.155V431.427H105V429.305H105.155V427.183H105V425.061H105.155V422.939H105V420.817H105.155V418.695H105V416.573H105.155V414.45H105V412.328H105.155V410.206H105V408.084H105.155V405.962H105V403.84H105.155V401.717H105V399.595H105.155V398.534C105.155 398.347 105.192 398.168 105.26 398.006L105.117 397.947C105.274 397.572 105.576 397.272 105.954 397.116L106.014 397.258C106.177 397.191 106.357 397.153 106.546 397.153H107.641V397H109.829V397.153H112.018V397H114.207V397.153H116.396V397H118.584V397.153H120.773V397H122.962V397.153H125.151V397H127.339V397.153H129.528V397H131.717V397.153H133.906V397H136.094V397.153H138.283V397H140.472V397.153H142.661V397H144.849V397.153H147.038V397H149.227V397.153H151.416V397H153.604V397.153H155.793V397H157.982V397.153H160.171V397H162.359V397.153H163.454C163.643 397.153 163.823 397.191 163.986 397.258L164.046 397.116C164.424 397.272 164.726 397.572 164.883 397.947L164.74 398.006C164.808 398.168 164.845 398.347 164.845 398.534V399.595H165V401.717H164.845V403.84H165V405.962H164.845V408.084H165V410.206H164.845V412.328H165V414.45H164.845V416.573H165V418.695H164.845V420.817H165V422.939H164.845V425.061H165V427.183H164.845V429.305H165V431.427H164.845V433.55H165V435.672H164.845V437.794H165V439.916H164.845V442.038H165V444.16H164.845V446.283H165V448.405H164.845V449.466C164.845 449.653 164.808 449.832 164.74 449.994L164.883 450.053C164.726 450.428 164.424 450.728 164.046 450.884L163.986 450.742C163.823 450.809 163.643 450.847 163.454 450.847H162.359V451H160.171V450.847H157.982V451H155.793V450.847H153.604V451H151.416V450.847H149.227V451H147.038V450.847H144.849V451H142.661V450.847H140.472V451H138.283V450.847H136.094V451H133.906V450.847H131.717V451H129.528V450.847H127.339V451H125.151V450.847H122.962V451H120.773V450.847H118.584V451H116.396V450.847H114.207V451H112.018V450.847H109.829V451H107.641V450.847H106.546C106.357 450.847 106.177 450.809 106.014 450.742L105.954 450.884Z" stroke="#E6E6E6" stroke-dasharray="7 7"/>
<path d="M172.954 512.884C172.576 512.728 172.274 512.428 172.117 512.053L172.26 511.994C172.192 511.832 172.155 511.653 172.155 511.466V510.405H172V508.283H172.155V506.16H172V504.038H172.155V501.916H172V499.794H172.155V497.672H172V495.55H172.155V493.427H172V491.305H172.155V489.183H172V487.061H172.155V484.939H172V482.817H172.155V480.695H172V478.573H172.155V476.45H172V474.328H172.155V472.206H172V470.084H172.155V467.962H172V465.84H172.155V463.717H172V461.595H172.155V460.534C172.155 460.347 172.192 460.168 172.26 460.006L172.117 459.947C172.274 459.572 172.576 459.272 172.954 459.116L173.014 459.258C173.177 459.191 173.357 459.153 173.546 459.153H174.641V459H176.829V459.153H179.018V459H181.207V459.153H183.396V459H185.584V459.153H187.773V459H189.962V459.153H192.151V459H194.339V459.153H196.528V459H198.717V459.153H200.906V459H203.094V459.153H205.283V459H207.472V459.153H209.661V459H211.849V459.153H214.038V459H216.227V459.153H218.416V459H220.604V459.153H222.793V459H224.982V459.153H227.171V459H229.359V459.153H230.454C230.643 459.153 230.823 459.191 230.986 459.258L231.046 459.116C231.424 459.272 231.726 459.572 231.883 459.947L231.74 460.006C231.808 460.168 231.845 460.347 231.845 460.534V461.595H232V463.717H231.845V465.84H232V467.962H231.845V470.084H232V472.206H231.845V474.328H232V476.45H231.845V478.573H232V480.695H231.845V482.817H232V484.939H231.845V487.061H232V489.183H231.845V491.305H232V493.427H231.845V495.55H232V497.672H231.845V499.794H232V501.916H231.845V504.038H232V506.16H231.845V508.283H232V510.405H231.845V511.466C231.845 511.653 231.808 511.832 231.74 511.994L231.883 512.053C231.726 512.428 231.424 512.728 231.046 512.884L230.986 512.742C230.823 512.809 230.643 512.847 230.454 512.847H229.359V513H227.171V512.847H224.982V513H222.793V512.847H220.604V513H218.416V512.847H216.227V513H214.038V512.847H211.849V513H209.661V512.847H207.472V513H205.283V512.847H203.094V513H200.906V512.847H198.717V513H196.528V512.847H194.339V513H192.151V512.847H189.962V513H187.773V512.847H185.584V513H183.396V512.847H181.207V513H179.018V512.847H176.829V513H174.641V512.847H173.546C173.357 512.847 173.177 512.809 173.014 512.742L172.954 512.884Z" stroke="#E6E6E6" stroke-dasharray="7 7"/>
<path d="M172.954 389.884C172.576 389.728 172.274 389.428 172.117 389.053L172.26 388.994C172.192 388.832 172.155 388.653 172.155 388.466V387.405H172V385.283H172.155V383.16H172V381.038H172.155V378.916H172V376.794H172.155V374.672H172V372.55H172.155V370.427H172V368.305H172.155V366.183H172V364.061H172.155V361.939H172V359.817H172.155V357.695H172V355.573H172.155V353.45H172V351.328H172.155V349.206H172V347.084H172.155V344.962H172V342.84H172.155V340.717H172V338.595H172.155V337.534C172.155 337.347 172.192 337.168 172.26 337.006L172.117 336.947C172.274 336.572 172.576 336.272 172.954 336.116L173.014 336.258C173.177 336.191 173.357 336.153 173.546 336.153H174.641V336H176.829V336.153H179.018V336H181.207V336.153H183.396V336H185.584V336.153H187.773V336H189.962V336.153H192.151V336H194.339V336.153H196.528V336H198.717V336.153H200.906V336H203.094V336.153H205.283V336H207.472V336.153H209.661V336H211.849V336.153H214.038V336H216.227V336.153H218.416V336H220.604V336.153H222.793V336H224.982V336.153H227.171V336H229.359V336.153H230.454C230.643 336.153 230.823 336.191 230.986 336.258L231.046 336.116C231.424 336.272 231.726 336.572 231.883 336.947L231.74 337.006C231.808 337.168 231.845 337.347 231.845 337.534V338.595H232V340.717H231.845V342.84H232V344.962H231.845V347.084H232V349.206H231.845V351.328H232V353.45H231.845V355.573H232V357.695H231.845V359.817H232V361.939H231.845V364.061H232V366.183H231.845V368.305H232V370.427H231.845V372.55H232V374.672H231.845V376.794H232V378.916H231.845V381.038H232V383.16H231.845V385.283H232V387.405H231.845V388.466C231.845 388.653 231.808 388.832 231.74 388.994L231.883 389.053C231.726 389.428 231.424 389.728 231.046 389.884L230.986 389.742C230.823 389.809 230.643 389.847 230.454 389.847H229.359V390H227.171V389.847H224.982V390H222.793V389.847H220.604V390H218.416V389.847H216.227V390H214.038V389.847H211.849V390H209.661V389.847H207.472V390H205.283V389.847H203.094V390H200.906V389.847H198.717V390H196.528V389.847H194.339V390H192.151V389.847H189.962V390H187.773V389.847H185.584V390H183.396V389.847H181.207V390H179.018V389.847H176.829V390H174.641V389.847H173.546C173.357 389.847 173.177 389.809 173.014 389.742L172.954 389.884Z" stroke="#E6E6E6" stroke-dasharray="7 7"/>
<path d="M172.954 450.884C172.576 450.728 172.274 450.428 172.117 450.053L172.26 449.994C172.192 449.832 172.155 449.653 172.155 449.466V448.405H172V446.283H172.155V444.16H172V442.038H172.155V439.916H172V437.794H172.155V435.672H172V433.55H172.155V431.427H172V429.305H172.155V427.183H172V425.061H172.155V422.939H172V420.817H172.155V418.695H172V416.573H172.155V414.45H172V412.328H172.155V410.206H172V408.084H172.155V405.962H172V403.84H172.155V401.717H172V399.595H172.155V398.534C172.155 398.347 172.192 398.168 172.26 398.006L172.117 397.947C172.274 397.572 172.576 397.272 172.954 397.116L173.014 397.258C173.177 397.191 173.357 397.153 173.546 397.153H174.641V397H176.829V397.153H179.018V397H181.207V397.153H183.396V397H185.584V397.153H187.773V397H189.962V397.153H192.151V397H194.339V397.153H196.528V397H198.717V397.153H200.906V397H203.094V397.153H205.283V397H207.472V397.153H209.661V397H211.849V397.153H214.038V397H216.227V397.153H218.416V397H220.604V397.153H222.793V397H224.982V397.153H227.171V397H229.359V397.153H230.454C230.643 397.153 230.823 397.191 230.986 397.258L231.046 397.116C231.424 397.272 231.726 397.572 231.883 397.947L231.74 398.006C231.808 398.168 231.845 398.347 231.845 398.534V399.595H232V401.717H231.845V403.84H232V405.962H231.845V408.084H232V410.206H231.845V412.328H232V414.45H231.845V416.573H232V418.695H231.845V420.817H232V422.939H231.845V425.061H232V427.183H231.845V429.305H232V431.427H231.845V433.55H232V435.672H231.845V437.794H232V439.916H231.845V442.038H232V444.16H231.845V446.283H232V448.405H231.845V449.466C231.845 449.653 231.808 449.832 231.74 449.994L231.883 450.053C231.726 450.428 231.424 450.728 231.046 450.884L230.986 450.742C230.823 450.809 230.643 450.847 230.454 450.847H229.359V451H227.171V450.847H224.982V451H222.793V450.847H220.604V451H218.416V450.847H216.227V451H214.038V450.847H211.849V451H209.661V450.847H207.472V451H205.283V450.847H203.094V451H200.906V450.847H198.717V451H196.528V450.847H194.339V451H192.151V450.847H189.962V451H187.773V450.847H185.584V451H183.396V450.847H181.207V451H179.018V450.847H176.829V451H174.641V450.847H173.546C173.357 450.847 173.177 450.809 173.014 450.742L172.954 450.884Z" stroke="#E6E6E6" stroke-dasharray="7 7"/>
<path d="M239.954 512.884C239.576 512.728 239.274 512.428 239.117 512.053L239.26 511.994C239.192 511.832 239.155 511.653 239.155 511.466V510.405H239V508.283H239.155V506.16H239V504.038H239.155V501.916H239V499.794H239.155V497.672H239V495.55H239.155V493.427H239V491.305H239.155V489.183H239V487.061H239.155V484.939H239V482.817H239.155V480.695H239V478.573H239.155V476.45H239V474.328H239.155V472.206H239V470.084H239.155V467.962H239V465.84H239.155V463.717H239V461.595H239.155V460.534C239.155 460.347 239.192 460.168 239.26 460.006L239.117 459.947C239.274 459.572 239.576 459.272 239.954 459.116L240.014 459.258C240.177 459.191 240.357 459.153 240.546 459.153H241.641V459H243.829V459.153H246.018V459H248.207V459.153H250.396V459H252.584V459.153H254.773V459H256.962V459.153H259.151V459H261.339V459.153H263.528V459H265.717V459.153H267.906V459H270.094V459.153H272.283V459H274.472V459.153H276.661V459H278.849V459.153H281.038V459H283.227V459.153H285.416V459H287.604V459.153H289.793V459H291.982V459.153H294.171V459H296.359V459.153H297.454C297.643 459.153 297.823 459.191 297.986 459.258L298.046 459.116C298.424 459.272 298.726 459.572 298.883 459.947L298.74 460.006C298.808 460.168 298.845 460.347 298.845 460.534V461.595H299V463.717H298.845V465.84H299V467.962H298.845V470.084H299V472.206H298.845V474.328H299V476.45H298.845V478.573H299V480.695H298.845V482.817H299V484.939H298.845V487.061H299V489.183H298.845V491.305H299V493.427H298.845V495.55H299V497.672H298.845V499.794H299V501.916H298.845V504.038H299V506.16H298.845V508.283H299V510.405H298.845V511.466C298.845 511.653 298.808 511.832 298.74 511.994L298.883 512.053C298.726 512.428 298.424 512.728 298.046 512.884L297.986 512.742C297.823 512.809 297.643 512.847 297.454 512.847H296.359V513H294.171V512.847H291.982V513H289.793V512.847H287.604V513H285.416V512.847H283.227V513H281.038V512.847H278.849V513H276.661V512.847H274.472V513H272.283V512.847H270.094V513H267.906V512.847H265.717V513H263.528V512.847H261.339V513H259.151V512.847H256.962V513H254.773V512.847H252.584V513H250.396V512.847H248.207V513H246.018V512.847H243.829V513H241.641V512.847H240.546C240.357 512.847 240.177 512.809 240.014 512.742L239.954 512.884Z" stroke="#E6E6E6" stroke-dasharray="7 7"/>
<path d="M239.954 389.884C239.576 389.728 239.274 389.428 239.117 389.053L239.26 388.994C239.192 388.832 239.155 388.653 239.155 388.466V387.405H239V385.283H239.155V383.16H239V381.038H239.155V378.916H239V376.794H239.155V374.672H239V372.55H239.155V370.427H239V368.305H239.155V366.183H239V364.061H239.155V361.939H239V359.817H239.155V357.695H239V355.573H239.155V353.45H239V351.328H239.155V349.206H239V347.084H239.155V344.962H239V342.84H239.155V340.717H239V338.595H239.155V337.534C239.155 337.347 239.192 337.168 239.26 337.006L239.117 336.947C239.274 336.572 239.576 336.272 239.954 336.116L240.014 336.258C240.177 336.191 240.357 336.153 240.546 336.153H241.641V336H243.829V336.153H246.018V336H248.207V336.153H250.396V336H252.584V336.153H254.773V336H256.962V336.153H259.151V336H261.339V336.153H263.528V336H265.717V336.153H267.906V336H270.094V336.153H272.283V336H274.472V336.153H276.661V336H278.849V336.153H281.038V336H283.227V336.153H285.416V336H287.604V336.153H289.793V336H291.982V336.153H294.171V336H296.359V336.153H297.454C297.643 336.153 297.823 336.191 297.986 336.258L298.046 336.116C298.424 336.272 298.726 336.572 298.883 336.947L298.74 337.006C298.808 337.168 298.845 337.347 298.845 337.534V338.595H299V340.717H298.845V342.84H299V344.962H298.845V347.084H299V349.206H298.845V351.328H299V353.45H298.845V355.573H299V357.695H298.845V359.817H299V361.939H298.845V364.061H299V366.183H298.845V368.305H299V370.427H298.845V372.55H299V374.672H298.845V376.794H299V378.916H298.845V381.038H299V383.16H298.845V385.283H299V387.405H298.845V388.466C298.845 388.653 298.808 388.832 298.74 388.994L298.883 389.053C298.726 389.428 298.424 389.728 298.046 389.884L297.986 389.742C297.823 389.809 297.643 389.847 297.454 389.847H296.359V390H294.171V389.847H291.982V390H289.793V389.847H287.604V390H285.416V389.847H283.227V390H281.038V389.847H278.849V390H276.661V389.847H274.472V390H272.283V389.847H270.094V390H267.906V389.847H265.717V390H263.528V389.847H261.339V390H259.151V389.847H256.962V390H254.773V389.847H252.584V390H250.396V389.847H248.207V390H246.018V389.847H243.829V390H241.641V389.847H240.546C240.357 389.847 240.177 389.809 240.014 389.742L239.954 389.884Z" stroke="#E6E6E6" stroke-dasharray="7 7"/>
<path d="M239.954 450.884C239.576 450.728 239.274 450.428 239.117 450.053L239.26 449.994C239.192 449.832 239.155 449.653 239.155 449.466V448.405H239V446.283H239.155V444.16H239V442.038H239.155V439.916H239V437.794H239.155V435.672H239V433.55H239.155V431.427H239V429.305H239.155V427.183H239V425.061H239.155V422.939H239V420.817H239.155V418.695H239V416.573H239.155V414.45H239V412.328H239.155V410.206H239V408.084H239.155V405.962H239V403.84H239.155V401.717H239V399.595H239.155V398.534C239.155 398.347 239.192 398.168 239.26 398.006L239.117 397.947C239.274 397.572 239.576 397.272 239.954 397.116L240.014 397.258C240.177 397.191 240.357 397.153 240.546 397.153H241.641V397H243.829V397.153H246.018V397H248.207V397.153H250.396V397H252.584V397.153H254.773V397H256.962V397.153H259.151V397H261.339V397.153H263.528V397H265.717V397.153H267.906V397H270.094V397.153H272.283V397H274.472V397.153H276.661V397H278.849V397.153H281.038V397H283.227V397.153H285.416V397H287.604V397.153H289.793V397H291.982V397.153H294.171V397H296.359V397.153H297.454C297.643 397.153 297.823 397.191 297.986 397.258L298.046 397.116C298.424 397.272 298.726 397.572 298.883 397.947L298.74 398.006C298.808 398.168 298.845 398.347 298.845 398.534V399.595H299V401.717H298.845V403.84H299V405.962H298.845V408.084H299V410.206H298.845V412.328H299V414.45H298.845V416.573H299V418.695H298.845V420.817H299V422.939H298.845V425.061H299V427.183H298.845V429.305H299V431.427H298.845V433.55H299V435.672H298.845V437.794H299V439.916H298.845V442.038H299V444.16H298.845V446.283H299V448.405H298.845V449.466C298.845 449.653 298.808 449.832 298.74 449.994L298.883 450.053C298.726 450.428 298.424 450.728 298.046 450.884L297.986 450.742C297.823 450.809 297.643 450.847 297.454 450.847H296.359V451H294.171V450.847H291.982V451H289.793V450.847H287.604V451H285.416V450.847H283.227V451H281.038V450.847H278.849V451H276.661V450.847H274.472V451H272.283V450.847H270.094V451H267.906V450.847H265.717V451H263.528V450.847H261.339V451H259.151V450.847H256.962V451H254.773V450.847H252.584V451H250.396V450.847H248.207V451H246.018V450.847H243.829V451H241.641V450.847H240.546C240.357 450.847 240.177 450.809 240.014 450.742L239.954 450.884Z" stroke="#E6E6E6" stroke-dasharray="7 7"/>
<path d="M329.5 120C329.5 117.515 331.515 115.5 334 115.5H574C576.485 115.5 578.5 117.515 578.5 120V301C578.5 303.485 576.485 305.5 574 305.5H334C331.515 305.5 329.5 303.485 329.5 301V120Z" stroke="#E6E6E6"/>
<path d="M329 120C329 117.239 331.239 115 334 115H574C576.761 115 579 117.239 579 120V150H329V120Z" fill="#0FA7F0"/>
<path d="M350 173C350 171.343 351.343 170 353 170H555C556.657 170 558 171.343 558 173V182C558 183.657 556.657 185 555 185H353C351.343 185 350 183.657 350 182V173Z" fill="#E6E6E6"/>
<path d="M355 176C355 174.895 355.895 174 357 174H398C399.105 174 400 174.895 400 176V179C400 180.105 399.105 181 398 181H357C355.895 181 355 180.105 355 179V176Z" fill="#B3B3B3"/>
<path d="M406 176C406 174.895 406.895 174 408 174H449C450.105 174 451 174.895 451 176V179C451 180.105 450.105 181 449 181H408C406.895 181 406 180.105 406 179V176Z" fill="#B3B3B3"/>
<path d="M457 176C457 174.895 457.895 174 459 174H500C501.105 174 502 174.895 502 176V179C502 180.105 501.105 181 500 181H459C457.895 181 457 180.105 457 179V176Z" fill="#B3B3B3"/>
<path d="M508 176C508 174.895 508.895 174 510 174H551C552.105 174 553 174.895 553 176V179C553 180.105 552.105 181 551 181H510C508.895 181 508 180.105 508 179V176Z" fill="#B3B3B3"/>
<path d="M350 202.5H558" stroke="#E1E1E9"/>
<path d="M355 192C355 190.895 355.895 190 357 190H398C399.105 190 400 190.895 400 192V195C400 196.105 399.105 197 398 197H357C355.895 197 355 196.105 355 195V192Z" fill="#B3B3B3"/>
<path d="M406 192C406 190.895 406.895 190 408 190H449C450.105 190 451 190.895 451 192V195C451 196.105 450.105 197 449 197H408C406.895 197 406 196.105 406 195V192Z" fill="#E6E6E6"/>
<path d="M457 192C457 190.895 457.895 190 459 190H500C501.105 190 502 190.895 502 192V195C502 196.105 501.105 197 500 197H459C457.895 197 457 196.105 457 195V192Z" fill="#E6E6E6"/>
<path d="M508 192C508 190.895 508.895 190 510 190H551C552.105 190 553 190.895 553 192V195C553 196.105 552.105 197 551 197H510C508.895 197 508 196.105 508 195V192Z" fill="#E6E6E6"/>
<path d="M350 220.5H558" stroke="#E1E1E9"/>
<path d="M355 210C355 208.895 355.895 208 357 208H398C399.105 208 400 208.895 400 210V213C400 214.105 399.105 215 398 215H357C355.895 215 355 214.105 355 213V210Z" fill="#B3B3B3"/>
<path d="M406 210C406 208.895 406.895 208 408 208H449C450.105 208 451 208.895 451 210V213C451 214.105 450.105 215 449 215H408C406.895 215 406 214.105 406 213V210Z" fill="#E6E6E6"/>
<path d="M457 210C457 208.895 457.895 208 459 208H500C501.105 208 502 208.895 502 210V213C502 214.105 501.105 215 500 215H459C457.895 215 457 214.105 457 213V210Z" fill="#E6E6E6"/>
<path d="M508 210C508 208.895 508.895 208 510 208H551C552.105 208 553 208.895 553 210V213C553 214.105 552.105 215 551 215H510C508.895 215 508 214.105 508 213V210Z" fill="#E6E6E6"/>
<path d="M350 238.5H558" stroke="#E1E1E9"/>
<path d="M355 228C355 226.895 355.895 226 357 226H398C399.105 226 400 226.895 400 228V231C400 232.105 399.105 233 398 233H357C355.895 233 355 232.105 355 231V228Z" fill="#B3B3B3"/>
<path d="M406 228C406 226.895 406.895 226 408 226H449C450.105 226 451 226.895 451 228V231C451 232.105 450.105 233 449 233H408C406.895 233 406 232.105 406 231V228Z" fill="#E6E6E6"/>
<path d="M457 228C457 226.895 457.895 226 459 226H500C501.105 226 502 226.895 502 228V231C502 232.105 501.105 233 500 233H459C457.895 233 457 232.105 457 231V228Z" fill="#E6E6E6"/>
<path d="M508 228C508 226.895 508.895 226 510 226H551C552.105 226 553 226.895 553 228V231C553 232.105 552.105 233 551 233H510C508.895 233 508 232.105 508 231V228Z" fill="#E6E6E6"/>
<path d="M350 256.5H558" stroke="#E1E1E9"/>
<path d="M355 246C355 244.895 355.895 244 357 244H398C399.105 244 400 244.895 400 246V249C400 250.105 399.105 251 398 251H357C355.895 251 355 250.105 355 249V246Z" fill="#B3B3B3"/>
<path d="M406 246C406 244.895 406.895 244 408 244H449C450.105 244 451 244.895 451 246V249C451 250.105 450.105 251 449 251H408C406.895 251 406 250.105 406 249V246Z" fill="#E6E6E6"/>
<path d="M457 246C457 244.895 457.895 244 459 244H500C501.105 244 502 244.895 502 246V249C502 250.105 501.105 251 500 251H459C457.895 251 457 250.105 457 249V246Z" fill="#E6E6E6"/>
<path d="M508 246C508 244.895 508.895 244 510 244H551C552.105 244 553 244.895 553 246V249C553 250.105 552.105 251 551 251H510C508.895 251 508 250.105 508 249V246Z" fill="#E6E6E6"/>
<path d="M350 274.5H558" stroke="#E1E1E9"/>
<path d="M355 264C355 262.895 355.895 262 357 262H398C399.105 262 400 262.895 400 264V267C400 268.105 399.105 269 398 269H357C355.895 269 355 268.105 355 267V264Z" fill="#B3B3B3"/>
<path d="M406 264C406 262.895 406.895 262 408 262H449C450.105 262 451 262.895 451 264V267C451 268.105 450.105 269 449 269H408C406.895 269 406 268.105 406 267V264Z" fill="#E6E6E6"/>
<path d="M457 264C457 262.895 457.895 262 459 262H500C501.105 262 502 262.895 502 264V267C502 268.105 501.105 269 500 269H459C457.895 269 457 268.105 457 267V264Z" fill="#E6E6E6"/>
<path d="M508 264C508 262.895 508.895 262 510 262H551C552.105 262 553 262.895 553 264V267C553 268.105 552.105 269 551 269H510C508.895 269 508 268.105 508 267V264Z" fill="#E6E6E6"/>
<path d="M355 282C355 280.895 355.895 280 357 280H398C399.105 280 400 280.895 400 282V285C400 286.105 399.105 287 398 287H357C355.895 287 355 286.105 355 285V282Z" fill="#B3B3B3"/>
<path d="M406 282C406 280.895 406.895 280 408 280H449C450.105 280 451 280.895 451 282V285C451 286.105 450.105 287 449 287H408C406.895 287 406 286.105 406 285V282Z" fill="#E6E6E6"/>
<path d="M457 282C457 280.895 457.895 280 459 280H500C501.105 280 502 280.895 502 282V285C502 286.105 501.105 287 500 287H459C457.895 287 457 286.105 457 285V282Z" fill="#E6E6E6"/>
<path d="M508 282C508 280.895 508.895 280 510 280H551C552.105 280 553 280.895 553 282V285C553 286.105 552.105 287 551 287H510C508.895 287 508 286.105 508 285V282Z" fill="#E6E6E6"/>
<path d="M953 366.5H334C331.515 366.5 329.5 368.515 329.5 371V507C329.5 509.485 331.515 511.5 334 511.5H953C955.485 511.5 957.5 509.485 957.5 507V371C957.5 368.515 955.485 366.5 953 366.5Z" stroke="#E6E6E6"/>
<path d="M329 341C329 338.239 331.239 336 334 336H953C955.761 336 958 338.239 958 341V371H329V341Z" fill="#0FA7F0"/>
<path d="M349 456C349 454.895 349.895 454 351 454H360C361.105 454 362 454.895 362 456V489C362 490.105 361.105 491 360 491H351C349.895 491 349 490.105 349 489V456Z" fill="#0FA7F0"/>
<path d="M533 456C533 454.895 533.895 454 535 454H544C545.105 454 546 454.895 546 456V489C546 490.105 545.105 491 544 491H535C533.895 491 533 490.105 533 489V456Z" fill="#0FA7F0"/>
<path d="M372 456C372 454.895 372.895 454 374 454H383C384.105 454 385 454.895 385 456V489C385 490.105 384.105 491 383 491H374C372.895 491 372 490.105 372 489V456Z" fill="#0FA7F0"/>
<path d="M556 456C556 454.895 556.895 454 558 454H567C568.105 454 569 454.895 569 456V489C569 490.105 568.105 491 567 491H558C556.895 491 556 490.105 556 489V456Z" fill="#0FA7F0"/>
<path d="M487 456C487 454.895 487.895 454 489 454H498C499.105 454 500 454.895 500 456V489C500 490.105 499.105 491 498 491H489C487.895 491 487 490.105 487 489V456Z" fill="#0FA7F0"/>
<path d="M671 456C671 454.895 671.895 454 673 454H682C683.105 454 684 454.895 684 456V489C684 490.105 683.105 491 682 491H673C671.895 491 671 490.105 671 489V456Z" fill="#0FA7F0"/>
<path d="M510 474C510 472.895 510.895 472 512 472H521C522.105 472 523 472.895 523 474V489C523 490.105 522.105 491 521 491H512C510.895 491 510 490.105 510 489V474Z" fill="#0FA7F0"/>
<path d="M694 474C694 472.895 694.895 472 696 472H705C706.105 472 707 472.895 707 474V489C707 490.105 706.105 491 705 491H696C694.895 491 694 490.105 694 489V474Z" fill="#0FA7F0"/>
<path d="M878 474C878 472.895 878.895 472 880 472H889C890.105 472 891 472.895 891 474V489C891 490.105 890.105 491 889 491H880C878.895 491 878 490.105 878 489V474Z" fill="#0FA7F0"/>
<path d="M901 474C901 472.895 901.895 472 903 472H912C913.105 472 914 472.895 914 474V489C914 490.105 913.105 491 912 491H903C901.895 491 901 490.105 901 489V474Z" fill="#0FA7F0"/>
<path d="M395 445C395 443.895 395.895 443 397 443H406C407.105 443 408 443.895 408 445V489C408 490.105 407.105 491 406 491H397C395.895 491 395 490.105 395 489V445Z" fill="#0FA7F0"/>
<path d="M579 445C579 443.895 579.895 443 581 443H590C591.105 443 592 443.895 592 445V489C592 490.105 591.105 491 590 491H581C579.895 491 579 490.105 579 489V445Z" fill="#0FA7F0"/>
<path d="M717 445C717 443.895 717.895 443 719 443H728C729.105 443 730 443.895 730 445V489C730 490.105 729.105 491 728 491H719C717.895 491 717 490.105 717 489V445Z" fill="#0FA7F0"/>
<path d="M464 445C464 443.895 464.895 443 466 443H475C476.105 443 477 443.895 477 445V489C477 490.105 476.105 491 475 491H466C464.895 491 464 490.105 464 489V445Z" fill="#0FA7F0"/>
<path d="M648 445C648 443.895 648.895 443 650 443H659C660.105 443 661 443.895 661 445V489C661 490.105 660.105 491 659 491H650C648.895 491 648 490.105 648 489V445Z" fill="#0FA7F0"/>
<path d="M786 445C786 443.895 786.895 443 788 443H797C798.105 443 799 443.895 799 445V489C799 490.105 798.105 491 797 491H788C786.895 491 786 490.105 786 489V445Z" fill="#0FA7F0"/>
<path d="M809 485C809 483.895 809.895 483 811 483H820C821.105 483 822 483.895 822 485V489C822 490.105 821.105 491 820 491H811C809.895 491 809 490.105 809 489V485Z" fill="#0FA7F0"/>
<path d="M418 414C418 412.895 418.895 412 420 412H429C430.105 412 431 412.895 431 414V489C431 490.105 430.105 491 429 491H420C418.895 491 418 490.105 418 489V414Z" fill="#0FA7F0"/>
<path d="M602 414C602 412.895 602.895 412 604 412H613C614.105 412 615 412.895 615 414V489C615 490.105 614.105 491 613 491H604C602.895 491 602 490.105 602 489V414Z" fill="#0FA7F0"/>
<path d="M740 414C740 412.895 740.895 412 742 412H751C752.105 412 753 412.895 753 414V489C753 490.105 752.105 491 751 491H742C740.895 491 740 490.105 740 489V414Z" fill="#0FA7F0"/>
<path d="M832 414C832 412.895 832.895 412 834 412H843C844.105 412 845 412.895 845 414V489C845 490.105 844.105 491 843 491H834C832.895 491 832 490.105 832 489V414Z" fill="#0FA7F0"/>
<path d="M855 437C855 435.895 855.895 435 857 435H866C867.105 435 868 435.895 868 437V489C868 490.105 867.105 491 866 491H857C855.895 491 855 490.105 855 489V437Z" fill="#0FA7F0"/>
<path d="M441 414C441 412.895 441.895 412 443 412H452C453.105 412 454 412.895 454 414V489C454 490.105 453.105 491 452 491H443C441.895 491 441 490.105 441 489V414Z" fill="#0FA7F0"/>
<path d="M625 414C625 412.895 625.895 412 627 412H636C637.105 412 638 412.895 638 414V489C638 490.105 637.105 491 636 491H627C625.895 491 625 490.105 625 489V414Z" fill="#0FA7F0"/>
<path d="M924 414C924 412.895 924.895 412 926 412H935C936.105 412 937 412.895 937 414V489C937 490.105 936.105 491 935 491H926C924.895 491 924 490.105 924 489V414Z" fill="#0FA7F0"/>
<path d="M763 414C763 412.895 763.895 412 765 412H774C775.105 412 776 412.895 776 414V489C776 490.105 775.105 491 774 491H765C763.895 491 763 490.105 763 489V414Z" fill="#0FA7F0"/>
<path d="M349 412C349 410.895 349.895 410 351 410H360C361.105 410 362 410.895 362 412V451C362 452.105 361.105 453 360 453H351C349.895 453 349 452.105 349 451V412Z" fill="#FFEEA2"/>
<path d="M533 412C533 410.895 533.895 410 535 410H544C545.105 410 546 410.895 546 412V451C546 452.105 545.105 453 544 453H535C533.895 453 533 452.105 533 451V412Z" fill="#FFEEA2"/>
<path d="M372 445C372 443.895 372.895 443 374 443H383C384.105 443 385 443.895 385 445V451C385 452.105 384.105 453 383 453H374C372.895 453 372 452.105 372 451V445Z" fill="#FFEEA2"/>
<path d="M556 445C556 443.895 556.895 443 558 443H567C568.105 443 569 443.895 569 445V451C569 452.105 568.105 453 567 453H558C556.895 453 556 452.105 556 451V445Z" fill="#FFEEA2"/>
<path d="M487 445C487 443.895 487.895 443 489 443H498C499.105 443 500 443.895 500 445V451C500 452.105 499.105 453 498 453H489C487.895 453 487 452.105 487 451V445Z" fill="#FFEEA2"/>
<path d="M671 445C671 443.895 671.895 443 673 443H682C683.105 443 684 443.895 684 445V451C684 452.105 683.105 453 682 453H673C671.895 453 671 452.105 671 451V445Z" fill="#FFEEA2"/>
<path d="M694 445C694 443.895 694.895 443 696 443H705C706.105 443 707 443.895 707 445V469C707 470.105 706.105 471 705 471H696C694.895 471 694 470.105 694 469V445Z" fill="#FFEEA2"/>
<path d="M510 445C510 443.895 510.895 443 512 443H521C522.105 443 523 443.895 523 445V469C523 470.105 522.105 471 521 471H512C510.895 471 510 470.105 510 469V445Z" fill="#FFEEA2"/>
<path d="M878 445C878 443.895 878.895 443 880 443H889C890.105 443 891 443.895 891 445V469C891 470.105 890.105 471 889 471H880C878.895 471 878 470.105 878 469V445Z" fill="#FFEEA2"/>
<path d="M901 445C901 443.895 901.895 443 903 443H912C913.105 443 914 443.895 914 445V469C914 470.105 913.105 471 912 471H903C901.895 471 901 470.105 901 469V445Z" fill="#FFEEA2"/>
<path d="M395 403C395 401.895 395.895 401 397 401H406C407.105 401 408 401.895 408 403V440C408 441.105 407.105 442 406 442H397C395.895 442 395 441.105 395 440V403Z" fill="#FFEEA2"/>
<path d="M579 403C579 401.895 579.895 401 581 401H590C591.105 401 592 401.895 592 403V440C592 441.105 591.105 442 590 442H581C579.895 442 579 441.105 579 440V403Z" fill="#FFEEA2"/>
<path d="M717 403C717 401.895 717.895 401 719 401H728C729.105 401 730 401.895 730 403V440C730 441.105 729.105 442 728 442H719C717.895 442 717 441.105 717 440V403Z" fill="#FFEEA2"/>
<path d="M464 403C464 401.895 464.895 401 466 401H475C476.105 401 477 401.895 477 403V440C477 441.105 476.105 442 475 442H466C464.895 442 464 441.105 464 440V403Z" fill="#FFEEA2"/>
<path d="M648 403C648 401.895 648.895 401 650 401H659C660.105 401 661 401.895 661 403V440C661 441.105 660.105 442 659 442H650C648.895 442 648 441.105 648 440V403Z" fill="#FFEEA2"/>
<path d="M786 403C786 401.895 786.895 401 788 401H797C798.105 401 799 401.895 799 403V440C799 441.105 798.105 442 797 442H788C786.895 442 786 441.105 786 440V403Z" fill="#FFEEA2"/>
<path d="M809 462C809 460.895 809.895 460 811 460H820C821.105 460 822 460.895 822 462V480C822 481.105 821.105 482 820 482H811C809.895 482 809 481.105 809 480V462Z" fill="#FFEEA2"/>
<path d="M418 403C418 401.895 418.895 401 420 401H429C430.105 401 431 401.895 431 403V409C431 410.105 430.105 411 429 411H420C418.895 411 418 410.105 418 409V403Z" fill="#FFEEA2"/>
<path d="M602 403C602 401.895 602.895 401 604 401H613C614.105 401 615 401.895 615 403V409C615 410.105 614.105 411 613 411H604C602.895 411 602 410.105 602 409V403Z" fill="#FFEEA2"/>
<path d="M740 403C740 401.895 740.895 401 742 401H751C752.105 401 753 401.895 753 403V409C753 410.105 752.105 411 751 411H742C740.895 411 740 410.105 740 409V403Z" fill="#FFEEA2"/>
<path d="M832 403C832 401.895 832.895 401 834 401H843C844.105 401 845 401.895 845 403V409C845 410.105 844.105 411 843 411H834C832.895 411 832 410.105 832 409V403Z" fill="#FFEEA2"/>
<path d="M855 403C855 401.895 855.895 401 857 401H866C867.105 401 868 401.895 868 403V432C868 433.105 867.105 434 866 434H857C855.895 434 855 433.105 855 432V403Z" fill="#FFEEA2"/>
<path d="M441 408C441 406.895 441.895 406 443 406H452C453.105 406 454 406.895 454 408V409C454 410.105 453.105 411 452 411H443C441.895 411 441 410.105 441 409V408Z" fill="#FFEEA2"/>
<path d="M625 408C625 406.895 625.895 406 627 406H636C637.105 406 638 406.895 638 408V409C638 410.105 637.105 411 636 411H627C625.895 411 625 410.105 625 409V408Z" fill="#FFEEA2"/>
<path d="M924 408C924 406.895 924.895 406 926 406H935C936.105 406 937 406.895 937 408V409C937 410.105 936.105 411 935 411H926C924.895 411 924 410.105 924 409V408Z" fill="#FFEEA2"/>
<path d="M763 408C763 406.895 763.895 406 765 406H774C775.105 406 776 406.895 776 408V409C776 410.105 775.105 411 774 411H765C763.895 411 763 410.105 763 409V408Z" fill="#FFEEA2"/>
<path d="M360 389H351C349.895 389 349 389.895 349 391V407C349 408.105 349.895 409 351 409H360C361.105 409 362 408.105 362 407V391C362 389.895 361.105 389 360 389Z" fill="#F28100"/>
<path d="M544 389H535C533.895 389 533 389.895 533 391V407C533 408.105 533.895 409 535 409H544C545.105 409 546 408.105 546 407V391C546 389.895 545.105 389 544 389Z" fill="#F28100"/>
<path d="M383 389H374C372.895 389 372 389.895 372 391V440C372 441.105 372.895 442 374 442H383C384.105 442 385 441.105 385 440V391C385 389.895 384.105 389 383 389Z" fill="#F28100"/>
<path d="M567 389H558C556.895 389 556 389.895 556 391V440C556 441.105 556.895 442 558 442H567C568.105 442 569 441.105 569 440V391C569 389.895 568.105 389 567 389Z" fill="#F28100"/>
<path d="M498 389H489C487.895 389 487 389.895 487 391V440C487 441.105 487.895 442 489 442H498C499.105 442 500 441.105 500 440V391C500 389.895 499.105 389 498 389Z" fill="#F28100"/>
<path d="M705 389H696C694.895 389 694 389.895 694 391V440C694 441.105 694.895 442 696 442H705C706.105 442 707 441.105 707 440V391C707 389.895 706.105 389 705 389Z" fill="#F28100"/>
<path d="M682 389H673C671.895 389 671 389.895 671 391V440C671 441.105 671.895 442 673 442H682C683.105 442 684 441.105 684 440V391C684 389.895 683.105 389 682 389Z" fill="#F28100"/>
<path d="M521 389H512C510.895 389 510 389.895 510 391V440C510 441.105 510.895 442 512 442H521C522.105 442 523 441.105 523 440V391C523 389.895 522.105 389 521 389Z" fill="#F28100"/>
<path d="M889 389H880C878.895 389 878 389.895 878 391V440C878 441.105 878.895 442 880 442H889C890.105 442 891 441.105 891 440V391C891 389.895 890.105 389 889 389Z" fill="#F28100"/>
<path d="M912 389H903C901.895 389 901 389.895 901 391V440C901 441.105 901.895 442 903 442H912C913.105 442 914 441.105 914 440V391C914 389.895 913.105 389 912 389Z" fill="#F28100"/>
<path d="M406 389H397C395.895 389 395 389.895 395 391V398C395 399.105 395.895 400 397 400H406C407.105 400 408 399.105 408 398V391C408 389.895 407.105 389 406 389Z" fill="#F28100"/>
<path d="M590 389H581C579.895 389 579 389.895 579 391V398C579 399.105 579.895 400 581 400H590C591.105 400 592 399.105 592 398V391C592 389.895 591.105 389 590 389Z" fill="#F28100"/>
<path d="M728 389H719C717.895 389 717 389.895 717 391V398C717 399.105 717.895 400 719 400H728C729.105 400 730 399.105 730 398V391C730 389.895 729.105 389 728 389Z" fill="#F28100"/>
<path d="M475 389H466C464.895 389 464 389.895 464 391V398C464 399.105 464.895 400 466 400H475C476.105 400 477 399.105 477 398V391C477 389.895 476.105 389 475 389Z" fill="#F28100"/>
<path d="M659 389H650C648.895 389 648 389.895 648 391V398C648 399.105 648.895 400 650 400H659C660.105 400 661 399.105 661 398V391C661 389.895 660.105 389 659 389Z" fill="#F28100"/>
<path d="M797 389H788C786.895 389 786 389.895 786 391V398C786 399.105 786.895 400 788 400H797C798.105 400 799 399.105 799 398V391C799 389.895 798.105 389 797 389Z" fill="#F28100"/>
<path d="M820 389H811C809.895 389 809 389.895 809 391V457C809 458.105 809.895 459 811 459H820C821.105 459 822 458.105 822 457V391C822 389.895 821.105 389 820 389Z" fill="#F28100"/>
<path d="M429 389H420C418.895 389 418 389.895 418 391V398C418 399.105 418.895 400 420 400H429C430.105 400 431 399.105 431 398V391C431 389.895 430.105 389 429 389Z" fill="#F28100"/>
<path d="M613 389H604C602.895 389 602 389.895 602 391V398C602 399.105 602.895 400 604 400H613C614.105 400 615 399.105 615 398V391C615 389.895 614.105 389 613 389Z" fill="#F28100"/>
<path d="M751 389H742C740.895 389 740 389.895 740 391V398C740 399.105 740.895 400 742 400H751C752.105 400 753 399.105 753 398V391C753 389.895 752.105 389 751 389Z" fill="#F28100"/>
<path d="M843 389H834C832.895 389 832 389.895 832 391V398C832 399.105 832.895 400 834 400H843C844.105 400 845 399.105 845 398V391C845 389.895 844.105 389 843 389Z" fill="#F28100"/>
<path d="M866 389H857C855.895 389 855 389.895 855 391V398C855 399.105 855.895 400 857 400H866C867.105 400 868 399.105 868 398V391C868 389.895 867.105 389 866 389Z" fill="#F28100"/>
<path d="M452 389H443C441.895 389 441 389.895 441 391V403C441 404.105 441.895 405 443 405H452C453.105 405 454 404.105 454 403V391C454 389.895 453.105 389 452 389Z" fill="#F28100"/>
<path d="M636 389H627C625.895 389 625 389.895 625 391V403C625 404.105 625.895 405 627 405H636C637.105 405 638 404.105 638 403V391C638 389.895 637.105 389 636 389Z" fill="#F28100"/>
<path d="M935 389H926C924.895 389 924 389.895 924 391V403C924 404.105 924.895 405 926 405H935C936.105 405 937 404.105 937 403V391C937 389.895 936.105 389 935 389Z" fill="#F28100"/>
<path d="M774 389H765C763.895 389 763 389.895 763 391V403C763 404.105 763.895 405 765 405H774C775.105 405 776 404.105 776 403V391C776 389.895 775.105 389 774 389Z" fill="#F28100"/>
<g filter="url(#filter0_i_1731_417)">
<path d="M20 85H75V543H35C26.7157 543 20 536.284 20 528V85Z" fill="white"/>
</g>
<path d="M46 123V117H50V123H55V115H58L48 106L38 115H41V123H46Z" fill="#747474"/>
<path d="M53.832 141.667L49.6654 145.417V154.584L53.832 150.834V141.667ZM43.4154 144.167C41.7904 144.167 40.0404 144.5 38.832 145.417V157.634C38.832 157.842 39.0404 158.05 39.2487 158.05C39.332 158.05 39.3737 157.992 39.457 157.992C40.582 157.45 42.207 157.084 43.4154 157.084C45.0404 157.084 46.7904 157.417 47.9987 158.334C49.1237 157.625 51.1654 157.084 52.582 157.084C53.957 157.084 55.3737 157.342 56.5404 157.967C56.6237 158.009 56.6654 157.992 56.7487 157.992C56.957 157.992 57.1654 157.784 57.1654 157.575V145.417C56.6654 145.042 56.1237 144.792 55.4987 144.584V155.834C54.582 155.542 53.582 155.417 52.582 155.417C51.1654 155.417 49.1237 155.959 47.9987 156.667V145.417C46.7904 144.5 45.0404 144.167 43.4154 144.167Z" fill="#747474"/>
<path d="M20 487.5H75" stroke="#E1E1E9"/>
<path d="M39.3117 502.406L39.8322 507.224L39.919 508.138H37.8945L37.9958 507.224L38.5019 502.406L38.5453 502H39.2683L39.3117 502.406Z" fill="#F28100"/>
<path d="M55.4093 502.406L55.9154 507.224L56.0167 508.138H53.9922L54.079 507.224L54.5995 502.406L54.6429 502H55.3659L55.4093 502.406Z" fill="#F28100"/>
<path d="M45.9953 517.366C45.5904 517.729 45.2 518.034 44.7951 518.338C44.3902 518.643 43.9853 518.948 43.5515 519.238C42.6983 519.818 41.8307 520.355 40.8329 520.805C40.3702 521.008 39.8207 520.805 39.6182 520.341C39.4303 519.92 39.5893 519.427 39.9653 519.194L39.9942 519.18C40.7462 518.716 41.4547 518.121 42.1488 517.482C42.4959 517.163 42.8285 516.829 43.1611 516.495C43.4792 516.162 43.8262 515.799 44.101 515.48C44.5926 514.914 45.4314 514.856 45.9953 515.335C46.5593 515.828 46.6171 516.67 46.1399 517.235C46.0965 517.279 46.0532 517.323 45.9953 517.366Z" fill="#37376D"/>
<path d="M49.146 514.681C49.5798 514.783 50.1004 514.812 50.6065 514.812C51.1271 514.812 51.6622 514.768 52.1827 514.696C53.2383 514.551 54.294 514.275 55.2484 513.84L55.2628 513.825C55.7255 513.607 56.275 513.825 56.4775 514.289C56.6655 514.725 56.5064 515.218 56.116 515.45C55.017 516.118 53.8457 516.582 52.631 516.916C52.0237 517.075 51.4019 517.206 50.7656 517.279C50.1293 517.351 49.4642 517.395 48.7556 517.337H48.7411C48.0036 517.279 47.4541 516.626 47.512 515.886C47.5698 515.146 48.2206 514.594 48.958 514.652C49.0303 514.652 49.0882 514.667 49.146 514.681Z" fill="#37376D"/>
<path d="M56.2184 507.833C56.2184 510.924 52.0971 513.434 46.9926 513.434C41.888 513.434 37.7812 510.924 37.7812 507.833C37.7812 504.743 41.9169 502.232 47.007 502.232C52.0971 502.232 56.2184 504.743 56.2184 507.833Z" fill="#0FA7F0"/>
<path d="M53.0366 507.833C53.0366 509.545 50.3325 511.025 47.0066 511.025C43.6807 511.025 40.9766 509.545 40.9766 507.833C40.9766 506.121 43.6807 504.641 47.0066 504.641C50.3325 504.655 53.0366 506.135 53.0366 507.833Z" fill="white"/>
<path d="M49.0904 507.834C49.0904 508.994 48.1649 509.923 47.0081 509.923C45.8513 509.923 44.9258 508.994 44.9258 507.834C44.9258 506.673 45.8513 505.744 47.0081 505.744C48.1505 505.744 49.0904 506.687 49.0904 507.834Z" fill="#37376D"/>
<path d="M52.9204 522.329L50.679 516.133C50.332 515.219 49.4644 514.609 48.4955 514.609H45.8203C44.5333 514.609 43.4922 515.654 43.4922 516.946V522.314H52.9204V522.329Z" fill="#0FA7F0"/>
<path d="M37 519.268C37.5061 518.818 38.2725 518.6 38.9811 518.731C39.6897 518.847 40.3693 519.297 40.7597 519.921C41.1646 520.545 41.2658 521.343 41.0779 522.039C40.8899 522.736 40.3838 523.345 39.7475 523.606L39.0245 522.475C39.2414 522.213 39.3426 521.938 39.3715 521.662C39.386 521.386 39.3281 521.14 39.1835 520.922C39.0534 520.704 38.8509 520.545 38.5907 520.443C38.3304 520.342 38.0412 520.327 37.7086 520.4L37 519.268Z" fill="#F28100"/>
<path d="M57.5629 512.65C57.3171 512.882 57.1725 513.129 57.1002 513.39C57.0424 513.651 57.0713 513.912 57.158 514.145C57.2593 514.377 57.4328 514.58 57.6642 514.711C57.8955 514.841 58.1847 514.914 58.5173 514.885L59.0524 516.118C58.4739 516.495 57.6931 516.568 57.0134 516.336C56.3338 516.104 55.7265 515.552 55.4517 514.87C55.1625 514.188 55.1625 513.376 55.4806 512.723C55.7843 512.055 56.3772 511.547 57.0424 511.388L57.5629 512.65Z" fill="#F28100"/>
<path d="M46.7302 522.329H43.4766V526H46.7302V522.329Z" fill="#37376D"/>
<path d="M50.9827 526H54.2508L52.9204 522.329H49.6523L50.9827 526Z" fill="#37376D"/>
<path d="M54.9762 184.095H53.7619V180.857C53.7619 179.959 53.0333 179.238 52.1429 179.238H48.9048V178.024C48.9048 177.487 48.6915 176.972 48.312 176.593C47.9325 176.213 47.4177 176 46.881 176C46.3442 176 45.8294 176.213 45.4499 176.593C45.0704 176.972 44.8571 177.487 44.8571 178.024V179.238H41.619C41.1896 179.238 40.7778 179.409 40.4742 179.712C40.1706 180.016 40 180.428 40 180.857V183.933H41.2143C42.4286 183.933 43.4 184.905 43.4 186.119C43.4 187.333 42.4286 188.305 41.2143 188.305H40V191.381C40 191.81 40.1706 192.222 40.4742 192.526C40.7778 192.829 41.1896 193 41.619 193H44.6952V191.786C44.6952 190.571 45.6667 189.6 46.881 189.6C48.0952 189.6 49.0667 190.571 49.0667 191.786V193H52.1429C52.5723 193 52.9841 192.829 53.2877 192.526C53.5913 192.222 53.7619 191.81 53.7619 191.381V188.143H54.9762C55.5129 188.143 56.0277 187.93 56.4072 187.55C56.7868 187.171 57 186.656 57 186.119C57 185.582 56.7868 185.068 56.4072 184.688C56.0277 184.308 55.5129 184.095 54.9762 184.095Z" fill="#747474"/>
<path d="M42 222.5L39 225.44V217H42V222.5ZM47 220.66L45.43 219.32L44 220.64V213H47V220.66ZM52 219L49 222V209H52V219ZM54.81 218.81L53 217H58V222L56.21 220.21L49 227.36L45.53 224.34L41.75 228H39L45.47 221.66L49 224.64" fill="#747474"/>
<path d="M50.763 252.325L49.953 253.153C49.305 253.801 48.9 254.35 48.9 255.7H47.1V255.25C47.1 254.251 47.505 253.351 48.153 252.703L49.269 251.569C49.602 251.245 49.8 250.795 49.8 250.3C49.8 249.301 48.99 248.5 48 248.5C47.5226 248.5 47.0648 248.69 46.7272 249.027C46.3896 249.365 46.2 249.823 46.2 250.3H44.4C44.4 249.345 44.7793 248.43 45.4544 247.754C46.1295 247.079 47.0452 246.7 48 246.7C48.9548 246.7 49.8705 247.079 50.5456 247.754C51.2207 248.43 51.6 249.345 51.6 250.3C51.6 251.092 51.276 251.803 50.763 252.325ZM48.9 259.3H47.1V257.5H48.9V259.3ZM48 244C46.8181 244 45.6478 244.233 44.5558 244.685C43.4639 245.137 42.4718 245.8 41.636 246.636C39.9482 248.324 39 250.613 39 253C39 255.387 39.9482 257.676 41.636 259.364C42.4718 260.2 43.4639 260.863 44.5558 261.315C45.6478 261.767 46.8181 262 48 262C50.3869 262 52.6761 261.052 54.364 259.364C56.0518 257.676 57 255.387 57 253C57 248.023 52.95 244 48 244Z" fill="#747474"/>
<path d="M20 45C20 36.7157 26.7157 30 35 30H75V85H20V45Z" fill="#0FA7F0"/>
<g filter="url(#filter1_i_1731_417)">
<path d="M75 85V30H973C981.284 30 988 36.7157 988 45V85H75Z" fill="white"/>
</g>
<path d="M57 51H39V53H57V51Z" fill="white"/>
<path d="M57 56H39V58H57V56Z" fill="white"/>
<path d="M57 61H39V63H57V61Z" fill="white"/>
<path d="M106.615 49.7001H111.365C115.152 49.7001 117.046 51.1568 117.046 54.0701C117.046 56.9834 115.152 58.4401 111.365 58.4401H108.781V63.0001H106.615V49.7001ZM113.93 55.9511C114.538 55.5964 114.842 54.9694 114.842 54.0701C114.842 53.1708 114.538 52.5501 113.93 52.2081C113.335 51.8534 112.518 51.6761 111.479 51.6761H108.781V56.4641H111.479C112.518 56.4641 113.335 56.2931 113.93 55.9511ZM120.547 55.3811C120.901 54.8111 121.427 54.3678 122.124 54.0511C122.82 53.7344 123.574 53.6141 124.385 53.6901V55.6851C123.574 55.5711 122.839 55.6788 122.181 56.0081C121.522 56.3374 121.053 56.8251 120.775 57.4711V63.0001H118.742V53.8801H120.547V55.3811ZM127.993 63.0001H125.96V53.8801H127.993V63.0001ZM128.221 50.9161C128.221 51.3088 128.101 51.6128 127.86 51.8281C127.632 52.0308 127.341 52.1321 126.986 52.1321C126.632 52.1321 126.334 52.0308 126.093 51.8281C125.853 51.6128 125.732 51.3088 125.732 50.9161C125.732 50.5361 125.853 50.2448 126.093 50.0421C126.334 49.8268 126.632 49.7191 126.986 49.7191C127.341 49.7191 127.632 49.8268 127.86 50.0421C128.101 50.2448 128.221 50.5361 128.221 50.9161ZM130.01 58.5161C130.01 56.9328 130.51 55.7231 131.511 54.8871C132.511 54.0511 133.689 53.6331 135.045 53.6331C136.134 53.6331 137.071 53.8674 137.857 54.3361V56.1981C137.147 55.6914 136.305 55.4381 135.33 55.4381C134.43 55.4381 133.664 55.6914 133.031 56.1981C132.397 56.6921 132.081 57.4394 132.081 58.4401C132.081 59.4154 132.391 60.1628 133.012 60.6821C133.645 61.1888 134.405 61.4421 135.292 61.4421C136.254 61.4421 137.141 61.2078 137.952 60.7391V62.6201C137.078 63.0381 136.071 63.2471 134.931 63.2471C133.601 63.2471 132.448 62.8418 131.473 62.0311C130.497 61.2078 130.01 60.0361 130.01 58.5161ZM139.268 58.4401C139.268 57.6548 139.408 56.9454 139.686 56.3121C139.965 55.6661 140.332 55.1594 140.788 54.7921C141.244 54.4121 141.738 54.1271 142.27 53.9371C142.802 53.7344 143.341 53.6331 143.885 53.6331C144.582 53.6331 145.209 53.7408 145.766 53.9561C146.336 54.1714 146.792 54.4628 147.134 54.8301C147.476 55.1974 147.755 55.6218 147.97 56.1031C148.186 56.5844 148.3 57.0911 148.312 57.6231C148.325 58.1424 148.281 58.6681 148.179 59.2001H141.32C141.422 59.9728 141.802 60.5554 142.46 60.9481C143.119 61.3281 143.904 61.5181 144.816 61.5181C145.855 61.5181 146.818 61.3028 147.704 60.8721V62.6201C146.83 63.0381 145.741 63.2471 144.436 63.2471C142.954 63.2471 141.719 62.8291 140.731 61.9931C139.756 61.1571 139.268 59.9728 139.268 58.4401ZM146.355 57.6801C146.431 57.1608 146.273 56.6414 145.88 56.1221C145.5 55.5901 144.867 55.3241 143.98 55.3241C143.258 55.3241 142.638 55.5331 142.118 55.9511C141.612 56.3691 141.339 56.9454 141.301 57.6801H146.355ZM152.053 55.3811C152.407 54.8111 152.933 54.3678 153.63 54.0511C154.326 53.7344 155.08 53.6141 155.891 53.6901V55.6851C155.08 55.5711 154.345 55.6788 153.687 56.0081C153.028 56.3374 152.559 56.8251 152.281 57.4711V63.0001H150.248V53.8801H152.053V55.3811ZM157.409 51.1441C158.689 50.2701 160.12 49.8331 161.703 49.8331C163.059 49.8331 164.154 50.1498 164.99 50.7831C165.826 51.4038 166.244 52.2968 166.244 53.4621C166.244 54.4374 165.921 55.2734 165.275 55.9701C164.642 56.6541 163.774 57.3254 162.672 57.9841C162.584 58.0348 162.419 58.1298 162.178 58.2691C161.95 58.4084 161.786 58.5098 161.684 58.5731C161.596 58.6238 161.45 58.7124 161.247 58.8391C161.045 58.9658 160.893 59.0608 160.791 59.1241C160.703 59.1874 160.576 59.2824 160.411 59.4091C160.259 59.5231 160.145 59.6244 160.069 59.7131C159.993 59.7891 159.905 59.8904 159.803 60.0171C159.702 60.1311 159.626 60.2388 159.575 60.3401C159.537 60.4414 159.499 60.5554 159.461 60.6821C159.423 60.8088 159.404 60.9354 159.404 61.0621L166.339 61.0431V63.0001H156.972V62.0121C156.972 61.3028 157.067 60.6758 157.257 60.1311C157.46 59.5738 157.808 59.0671 158.302 58.6111C158.809 58.1424 159.202 57.8131 159.48 57.6231C159.759 57.4204 160.253 57.1101 160.962 56.6921C161.026 56.6414 161.076 56.6034 161.114 56.5781C161.165 56.5528 161.216 56.5274 161.266 56.5021C162.33 55.8814 163.014 55.4318 163.318 55.1531C163.825 54.6591 164.078 54.1081 164.078 53.5001C164.078 52.9428 163.85 52.5184 163.394 52.2271C162.951 51.9358 162.324 51.7901 161.513 51.7901C160.107 51.7901 158.739 52.2714 157.409 53.2341V51.1441ZM174.604 50.0801H176.827V58.4781H179.05V60.3591H176.827V63.0001H174.737V60.3591H167.726V58.5161L174.604 50.0801ZM174.737 58.4781V52.8351L170.139 58.4781H174.737ZM186.094 64.1211H184.612L190.35 48.5791H191.832L186.094 64.1211ZM198.461 49.7001H203.116C205.396 49.7001 207.131 50.3081 208.322 51.5241C209.512 52.7401 210.108 54.3488 210.108 56.3501C210.108 58.3514 209.512 59.9601 208.322 61.1761C207.131 62.3921 205.396 63.0001 203.116 63.0001H198.461V49.7001ZM206.669 59.8271C207.492 59.0164 207.904 57.8574 207.904 56.3501C207.904 54.8428 207.492 53.6901 206.669 52.8921C205.858 52.0814 204.667 51.6761 203.097 51.6761H200.627V61.0241H203.097C204.667 61.0241 205.858 60.6251 206.669 59.8271ZM219.843 60.8911C219.843 61.3344 220.064 61.5561 220.508 61.5561C220.66 61.5561 220.862 61.5181 221.116 61.4421V62.9051C220.736 63.0571 220.305 63.1331 219.824 63.1331C218.912 63.1331 218.304 62.7784 218 62.0691C217.024 62.8544 215.878 63.2471 214.561 63.2471C213.674 63.2471 212.92 63.0064 212.3 62.5251C211.679 62.0311 211.369 61.3408 211.369 60.4541C211.369 59.3901 211.768 58.6174 212.566 58.1361C213.364 57.6421 214.32 57.3951 215.435 57.3951C216.169 57.3951 216.961 57.4838 217.81 57.6611V57.3381C217.81 56.7554 217.601 56.2868 217.183 55.9321C216.765 55.5774 216.176 55.4001 215.416 55.4001C214.288 55.4001 213.193 55.6344 212.129 56.1031V54.2411C213.319 53.8358 214.485 53.6331 215.625 53.6331C216.955 53.6331 217.987 53.9624 218.722 54.6211C219.469 55.2798 219.843 56.2804 219.843 57.6231V60.8911ZM215.834 58.8201C215.162 58.8201 214.599 58.9404 214.143 59.1811C213.687 59.4218 213.459 59.8018 213.459 60.3211C213.459 60.7518 213.623 61.0874 213.953 61.3281C214.282 61.5561 214.687 61.6701 215.169 61.6701C216.207 61.6701 217.088 61.3091 217.81 60.5871V59.0481C217.075 58.8961 216.416 58.8201 215.834 58.8201ZM222.043 56.3501C222.043 55.4254 222.391 54.7414 223.088 54.2981C223.797 53.8548 224.659 53.6331 225.672 53.6331C226.85 53.6331 227.946 53.8928 228.959 54.4121V56.1981C228.579 55.9448 228.091 55.7358 227.496 55.5711C226.901 55.3938 226.337 55.3051 225.805 55.3051C225.336 55.3051 224.937 55.3874 224.608 55.5521C224.279 55.7041 224.114 55.9511 224.114 56.2931C224.114 56.6098 224.304 56.8758 224.684 57.0911C225.064 57.2938 225.52 57.4711 226.052 57.6231C226.597 57.7624 227.135 57.9334 227.667 58.1361C228.199 58.3261 228.655 58.6238 229.035 59.0291C229.415 59.4344 229.605 59.9474 229.605 60.5681C229.605 61.5054 229.238 62.1894 228.503 62.6201C227.768 63.0381 226.825 63.2471 225.672 63.2471C224.241 63.2471 223.05 62.9558 222.1 62.3731V60.5681C223.075 61.2141 224.234 61.5371 225.577 61.5371C226.894 61.5371 227.553 61.2268 227.553 60.6061C227.553 60.3021 227.363 60.0488 226.983 59.8461C226.603 59.6308 226.141 59.4534 225.596 59.3141C225.064 59.1621 224.526 58.9911 223.981 58.8011C223.449 58.5984 222.993 58.2944 222.613 57.8891C222.233 57.4711 222.043 56.9581 222.043 56.3501ZM231.443 49.7001H233.476V54.8871C234.287 54.0511 235.268 53.6331 236.421 53.6331C237.561 53.6331 238.473 53.9814 239.157 54.6781C239.841 55.3621 240.183 56.2551 240.183 57.3571V63.0001H238.15V57.6231C238.15 56.9138 237.954 56.3754 237.561 56.0081C237.168 55.6281 236.655 55.4381 236.022 55.4381C235.021 55.4381 234.173 55.9448 233.476 56.9581V63.0001H231.443V49.7001ZM242.613 49.7001H244.646V55.0581C245.495 54.1081 246.59 53.6331 247.933 53.6331C249.276 53.6331 250.365 54.1018 251.201 55.0391C252.037 55.9638 252.455 57.0974 252.455 58.4401C252.455 59.7828 252.037 60.9228 251.201 61.8601C250.365 62.7848 249.276 63.2471 247.933 63.2471C246.502 63.2471 245.33 62.6834 244.418 61.5561V63.0001H242.613V49.7001ZM249.586 60.6251C250.118 60.0551 250.384 59.3268 250.384 58.4401C250.384 57.5534 250.118 56.8314 249.586 56.2741C249.054 55.7041 248.376 55.4191 247.553 55.4191C246.882 55.4191 246.286 55.6028 245.767 55.9701C245.26 56.3374 244.887 56.7871 244.646 57.3191V59.5421C244.887 60.0868 245.26 60.5428 245.767 60.9101C246.286 61.2774 246.882 61.4611 247.553 61.4611C248.376 61.4611 249.054 61.1824 249.586 60.6251ZM255.306 61.9741C254.344 61.1254 253.862 59.9474 253.862 58.4401C253.862 56.9328 254.344 55.7548 255.306 54.9061C256.282 54.0574 257.447 53.6331 258.802 53.6331C260.17 53.6331 261.336 54.0574 262.298 54.9061C263.261 55.7548 263.742 56.9328 263.742 58.4401C263.742 59.9474 263.261 61.1254 262.298 61.9741C261.336 62.8228 260.17 63.2471 258.802 63.2471C257.447 63.2471 256.282 62.8228 255.306 61.9741ZM260.873 60.5871C261.405 60.0424 261.671 59.3268 261.671 58.4401C261.671 57.5534 261.405 56.8441 260.873 56.3121C260.341 55.7674 259.651 55.4951 258.802 55.4951C257.941 55.4951 257.244 55.7674 256.712 56.3121C256.18 56.8441 255.914 57.5534 255.914 58.4401C255.914 59.3268 256.18 60.0424 256.712 60.5871C257.244 61.1191 257.941 61.3851 258.802 61.3851C259.651 61.3851 260.341 61.1191 260.873 60.5871ZM273.484 60.8911C273.484 61.3344 273.706 61.5561 274.149 61.5561C274.301 61.5561 274.504 61.5181 274.757 61.4421V62.9051C274.377 63.0571 273.947 63.1331 273.465 63.1331C272.553 63.1331 271.945 62.7784 271.641 62.0691C270.666 62.8544 269.52 63.2471 268.202 63.2471C267.316 63.2471 266.562 63.0064 265.941 62.5251C265.321 62.0311 265.01 61.3408 265.01 60.4541C265.01 59.3901 265.409 58.6174 266.207 58.1361C267.005 57.6421 267.962 57.3951 269.076 57.3951C269.811 57.3951 270.603 57.4838 271.451 57.6611V57.3381C271.451 56.7554 271.242 56.2868 270.824 55.9321C270.406 55.5774 269.817 55.4001 269.057 55.4001C267.93 55.4001 266.834 55.6344 265.77 56.1031V54.2411C266.961 53.8358 268.126 53.6331 269.266 53.6331C270.596 53.6331 271.629 53.9624 272.363 54.6211C273.111 55.2798 273.484 56.2804 273.484 57.6231V60.8911ZM269.475 58.8201C268.804 58.8201 268.24 58.9404 267.784 59.1811C267.328 59.4218 267.1 59.8018 267.1 60.3211C267.1 60.7518 267.265 61.0874 267.594 61.3281C267.924 61.5561 268.329 61.6701 268.81 61.6701C269.849 61.6701 270.729 61.3091 271.451 60.5871V59.0481C270.717 58.8961 270.058 58.8201 269.475 58.8201ZM277.965 55.3811C278.319 54.8111 278.845 54.3678 279.542 54.0511C280.238 53.7344 280.992 53.6141 281.803 53.6901V55.6851C280.992 55.5711 280.257 55.6788 279.599 56.0081C278.94 56.3374 278.471 56.8251 278.193 57.4711V63.0001H276.16V53.8801H277.965V55.3811ZM290.357 49.7001H292.39V63.0001H290.566V61.5561C289.679 62.6834 288.514 63.2471 287.07 63.2471C285.727 63.2471 284.638 62.7848 283.802 61.8601C282.966 60.9228 282.548 59.7828 282.548 58.4401C282.548 57.0974 282.966 55.9638 283.802 55.0391C284.638 54.1018 285.727 53.6331 287.07 53.6331C288.438 53.6331 289.533 54.1081 290.357 55.0581V49.7001ZM290.338 57.3191C290.097 56.7871 289.717 56.3374 289.198 55.9701C288.691 55.6028 288.102 55.4191 287.431 55.4191C286.607 55.4191 285.93 55.7041 285.398 56.2741C284.866 56.8314 284.6 57.5534 284.6 58.4401C284.6 59.3268 284.866 60.0551 285.398 60.6251C285.93 61.1824 286.607 61.4611 287.431 61.4611C288.102 61.4611 288.691 61.2774 289.198 60.9101C289.717 60.5428 290.097 60.0868 290.338 59.5421V57.3191Z" fill="#454545"/>
<path d="M859.832 56C859.832 60.5558 863.526 64.25 868.082 64.25C870.273 64.25 872.372 63.3883 873.949 61.8667L872.574 60.4917C871.41 61.7292 869.787 62.4167 868.082 62.4167C862.362 62.4167 859.502 55.505 863.545 51.4625C867.587 47.42 874.499 50.2892 874.499 56H871.749L875.415 59.6667H875.507L879.082 56H876.332C876.332 51.4442 872.638 47.75 868.082 47.75C863.526 47.75 859.832 51.4442 859.832 56Z" fill="#454545"/>
<path d="M955.499 59.3337V49.3337H940.499V59.3337H955.499ZM955.499 47.667C955.941 47.667 956.365 47.8426 956.677 48.1551C956.99 48.4677 957.165 48.8916 957.165 49.3337V59.3337C957.165 59.7757 956.99 60.1996 956.677 60.5122C956.365 60.8247 955.941 61.0003 955.499 61.0003H949.665V62.667H951.332V64.3337H944.665V62.667H946.332V61.0003H940.499C939.574 61.0003 938.832 60.2503 938.832 59.3337V49.3337C938.832 48.4087 939.574 47.667 940.499 47.667H955.499ZM942.165 51.0003H949.665V55.167H942.165V51.0003ZM950.499 51.0003H953.832V52.667H950.499V51.0003ZM953.832 53.5003V57.667H950.499V53.5003H953.832ZM942.165 56.0003H945.499V57.667H942.165V56.0003ZM946.332 56.0003H949.665V57.667H946.332V56.0003Z" fill="#454545"/>
<path d="M915.585 57.0837H909.085V63.5837H906.918V57.0837H900.418V54.917H906.918V48.417H909.085V54.917H915.585V57.0837Z" fill="#454545"/>
<mask id="mask0_1731_417" style="mask-type:alpha" maskUnits="userSpaceOnUse" x="566" y="233" width="25" height="12">
<path d="M591 233H566V245H591V233Z" fill="white"/>
<path fill-rule="evenodd" clip-rule="evenodd" d="M574.176 243L568 239L574.176 235V238.307H582.824V235L589 239L582.824 243V239.693H574.176V243Z" fill="black"/>
</mask>
<g mask="url(#mask0_1731_417)">
<path fill-rule="evenodd" clip-rule="evenodd" d="M574.176 243L568 239L574.176 235V238.307H582.824V235L589 239L582.824 243V239.693H574.176V243Z" fill="white"/>
<path d="M568 239L567.456 238.161L566.16 239L567.456 239.839L568 239ZM574.176 243L573.633 243.839L575.176 244.839V243H574.176ZM574.176 235H575.176V233.161L573.633 234.161L574.176 235ZM574.176 238.307H573.176V239.307H574.176V238.307ZM582.824 238.307V239.307H583.824V238.307H582.824ZM582.824 235L583.367 234.161L581.824 233.161V235H582.824ZM589 239L589.544 239.839L590.84 239L589.544 238.161L589 239ZM582.824 243H581.824V244.839L583.367 243.839L582.824 243ZM582.824 239.693H583.824V238.693H582.824V239.693ZM574.176 239.693V238.693H573.176V239.693H574.176ZM567.456 239.839L573.633 243.839L574.72 242.161L568.544 238.161L567.456 239.839ZM573.633 234.161L567.456 238.161L568.544 239.839L574.72 235.839L573.633 234.161ZM575.176 238.307V235H573.176V238.307H575.176ZM582.824 237.307H574.176V239.307H582.824V237.307ZM581.824 235V238.307H583.824V235H581.824ZM589.544 238.161L583.367 234.161L582.28 235.839L588.456 239.839L589.544 238.161ZM583.367 243.839L589.544 239.839L588.456 238.161L582.28 242.161L583.367 243.839ZM581.824 239.693V243H583.824V239.693H581.824ZM574.176 240.693H582.824V238.693H574.176V240.693ZM575.176 243V239.693H573.176V243H575.176Z" fill="#454545"/>
</g>
<path d="M631.09 137V126.5H629.38V131.465C628.555 131.795 627.715 131.945 626.92 131.945C625.405 131.93 624.355 131.375 624.355 129.95V126.5H622.645V129.95C622.645 132.35 624.145 133.52 626.5 133.535C627.415 133.535 628.375 133.385 629.38 133.055V137H631.09ZM639.394 135.335V132.755C639.394 130.58 638.104 129.605 636.064 129.605C634.909 129.605 633.874 129.89 633.304 130.085V131.555C633.949 131.27 634.834 131 635.899 131C637.129 131 637.789 131.63 637.789 132.53V132.785C637.219 132.665 636.529 132.575 635.914 132.575C634.414 132.575 632.704 133.145 632.704 134.99C632.704 136.475 633.919 137.195 635.224 137.195C636.349 137.195 637.234 136.835 637.939 136.265C638.194 136.85 638.719 137.105 639.379 137.105C639.739 137.105 640.099 137.045 640.399 136.925V135.77C640.249 135.815 640.084 135.86 639.919 135.86C639.634 135.86 639.394 135.74 639.394 135.335ZM636.229 133.7C636.739 133.7 637.354 133.79 637.789 133.88V135.095C637.219 135.665 636.469 135.95 635.704 135.95C634.984 135.95 634.354 135.59 634.354 134.885C634.354 133.985 635.314 133.7 636.229 133.7ZM641.159 133.46C641.159 136.025 643.124 137.195 645.044 137.195C645.959 137.195 646.739 137.03 647.429 136.7V135.215C646.859 135.545 646.094 135.77 645.329 135.77C644.039 135.77 642.794 135.035 642.794 133.4C642.794 131.705 644.084 131.03 645.359 131.03C646.094 131.03 646.829 131.255 647.354 131.63V130.16C646.724 129.785 645.944 129.605 645.134 129.605C643.214 129.605 641.159 130.775 641.159 133.46ZM652.38 137V131.21H654.855V129.8H648.285V131.21H650.775V137H652.38ZM657.715 137V134.015H658.87L661.24 137H663.085L660.19 133.37L662.8 129.8H660.97L658.9 132.65H657.715V129.8H656.11V137H657.715ZM670.2 135.335V132.755C670.2 130.58 668.91 129.605 666.87 129.605C665.715 129.605 664.68 129.89 664.11 130.085V131.555C664.755 131.27 665.64 131 666.705 131C667.935 131 668.595 131.63 668.595 132.53V132.785C668.025 132.665 667.335 132.575 666.72 132.575C665.22 132.575 663.51 133.145 663.51 134.99C663.51 136.475 664.725 137.195 666.03 137.195C667.155 137.195 668.04 136.835 668.745 136.265C669 136.85 669.525 137.105 670.185 137.105C670.545 137.105 670.905 137.045 671.205 136.925V135.77C671.055 135.815 670.89 135.86 670.725 135.86C670.44 135.86 670.2 135.74 670.2 135.335ZM667.035 133.7C667.545 133.7 668.16 133.79 668.595 133.88V135.095C668.025 135.665 667.275 135.95 666.51 135.95C665.79 135.95 665.16 135.59 665.16 134.885C665.16 133.985 666.12 133.7 667.035 133.7ZM677.564 137V131.21H681.164V137H682.769V129.8H675.959V137H677.564ZM684.327 133.4C684.327 135.89 686.217 137.195 688.227 137.195C690.252 137.195 692.127 135.89 692.127 133.4C692.127 130.91 690.252 129.605 688.227 129.605C686.217 129.605 684.327 130.91 684.327 133.4ZM690.492 133.4C690.492 134.81 689.562 135.725 688.227 135.725C686.877 135.725 685.947 134.81 685.947 133.4C685.947 131.99 686.877 131.075 688.227 131.075C689.562 131.075 690.492 131.99 690.492 133.4ZM695.109 130.925V129.8H693.684V140.3H695.289V136.07C695.784 136.64 696.624 137.195 697.884 137.195C700.044 137.195 701.454 135.47 701.454 133.4C701.454 131.33 700.044 129.605 697.884 129.605C696.534 129.605 695.679 130.235 695.109 130.925ZM699.819 133.4C699.819 134.81 698.889 135.785 697.584 135.785C696.474 135.785 695.634 135.065 695.289 134.27V132.515C695.634 131.735 696.474 131.015 697.584 131.015C698.889 131.015 699.819 131.99 699.819 133.4ZM705.976 135.23L703.546 129.8H701.836L705.256 137.06L705.106 137.42C704.686 138.545 704.101 139.1 703.321 139.1C703.081 139.1 702.826 139.07 702.586 138.995V140.36C702.901 140.435 703.216 140.48 703.531 140.48C704.626 140.48 705.646 139.85 706.426 137.975L709.801 129.8H708.121L705.976 135.23ZM721.228 137V129.8H719.623V135.59H716.923V129.8H715.318V135.59H712.603V129.8H710.998V137H721.228ZM722.794 133.4C722.794 135.935 724.669 137.195 726.874 137.195C727.879 137.195 728.794 137.015 729.454 136.7V135.32C728.839 135.62 728.044 135.83 727.174 135.83C725.854 135.83 724.594 135.29 724.414 134H729.829C730.294 131.915 729.304 129.605 726.439 129.605C724.774 129.605 722.794 130.79 722.794 133.4ZM728.389 132.8H724.399C724.459 131.585 725.434 130.94 726.514 130.94C728.089 130.94 728.479 132.17 728.389 132.8ZM733.038 137V134.105H736.638V137H738.243V129.8H736.638V132.695H733.038V129.8H731.433V137H733.038ZM743.821 137C745.636 137 746.671 135.95 746.671 134.6C746.671 133.235 745.636 132.2 743.821 132.2H741.856V129.8H740.251V137H743.821ZM741.856 133.46H743.506C744.451 133.46 745.036 133.85 745.036 134.6C745.036 135.335 744.451 135.725 743.506 135.725H741.856V133.46Z" fill="white"/>
<path d="M120.985 137V128.075H126.385V137H128.095V126.5H119.275V137H120.985ZM129.746 133.4C129.746 135.89 131.636 137.195 133.646 137.195C135.671 137.195 137.546 135.89 137.546 133.4C137.546 130.91 135.671 129.605 133.646 129.605C131.636 129.605 129.746 130.91 129.746 133.4ZM135.911 133.4C135.911 134.81 134.981 135.725 133.646 135.725C132.296 135.725 131.366 134.81 131.366 133.4C131.366 131.99 132.296 131.075 133.646 131.075C134.981 131.075 135.911 131.99 135.911 133.4ZM149.333 137V129.8H147.728V135.59H145.028V129.8H143.423V135.59H140.708V129.8H139.103V137H149.333ZM154.589 135.23L152.159 129.8H150.449L153.869 137.06L153.719 137.42C153.299 138.545 152.714 139.1 151.934 139.1C151.694 139.1 151.439 139.07 151.199 138.995V140.36C151.514 140.435 151.829 140.48 152.144 140.48C153.239 140.48 154.259 139.85 155.039 137.975L158.414 129.8H156.734L154.589 135.23ZM161.215 137V134.015H162.37L164.74 137H166.585L163.69 133.37L166.3 129.8H164.47L162.4 132.65H161.215V129.8H159.61V137H161.215ZM174.528 137V131.21H177.003V129.8H170.433V131.21H172.923V137H174.528ZM177.618 133.4C177.618 135.89 179.508 137.195 181.518 137.195C183.543 137.195 185.418 135.89 185.418 133.4C185.418 130.91 183.543 129.605 181.518 129.605C179.508 129.605 177.618 130.91 177.618 133.4ZM183.783 133.4C183.783 134.81 182.853 135.725 181.518 135.725C180.168 135.725 179.238 134.81 179.238 133.4C179.238 131.99 180.168 131.075 181.518 131.075C182.853 131.075 183.783 131.99 183.783 133.4ZM191.204 137C192.869 137 193.574 136.13 193.574 135.02C193.574 134.135 193.019 133.565 192.344 133.355C192.959 133.085 193.364 132.515 193.364 131.72C193.364 130.595 192.539 129.8 191.084 129.8H186.974V137H191.204ZM188.579 133.94H190.844C191.399 133.94 191.954 134.135 191.954 134.87C191.954 135.56 191.474 135.785 190.814 135.785H188.579V133.94ZM188.579 131.015H190.724C191.219 131.015 191.744 131.225 191.744 131.93C191.744 132.575 191.294 132.8 190.724 132.8H188.579V131.015ZM201.327 135.335V132.755C201.327 130.58 200.037 129.605 197.997 129.605C196.842 129.605 195.807 129.89 195.237 130.085V131.555C195.882 131.27 196.767 131 197.832 131C199.062 131 199.722 131.63 199.722 132.53V132.785C199.152 132.665 198.462 132.575 197.847 132.575C196.347 132.575 194.637 133.145 194.637 134.99C194.637 136.475 195.852 137.195 197.157 137.195C198.282 137.195 199.167 136.835 199.872 136.265C200.127 136.85 200.652 137.105 201.312 137.105C201.672 137.105 202.032 137.045 202.332 136.925V135.77C202.182 135.815 202.017 135.86 201.852 135.86C201.567 135.86 201.327 135.74 201.327 135.335ZM198.162 133.7C198.672 133.7 199.287 133.79 199.722 133.88V135.095C199.152 135.665 198.402 135.95 197.637 135.95C196.917 135.95 196.287 135.59 196.287 134.885C196.287 133.985 197.247 133.7 198.162 133.7ZM204.966 130.925V129.8H203.541V140.3H205.146V136.07C205.641 136.64 206.481 137.195 207.741 137.195C209.901 137.195 211.311 135.47 211.311 133.4C211.311 131.33 209.901 129.605 207.741 129.605C206.391 129.605 205.536 130.235 204.966 130.925ZM209.676 133.4C209.676 134.81 208.746 135.785 207.441 135.785C206.331 135.785 205.491 135.065 205.146 134.27V132.515C205.491 131.735 206.331 131.015 207.441 131.015C208.746 131.015 209.676 131.99 209.676 133.4ZM215.834 135.23L213.404 129.8H211.694L215.114 137.06L214.964 137.42C214.544 138.545 213.959 139.1 213.179 139.1C212.939 139.1 212.684 139.07 212.444 138.995V140.36C212.759 140.435 213.074 140.48 213.389 140.48C214.484 140.48 215.504 139.85 216.284 137.975L219.659 129.8H217.979L215.834 135.23Z" fill="white"/>
<path d="M353.625 134.15C353.625 132.515 352.515 131.72 351.495 131.48C352.485 131.15 353.205 130.34 353.205 129.125C353.205 127.22 351.525 126.305 349.185 126.305C348 126.305 346.905 126.5 345.765 126.98V128.66C346.965 128.09 347.97 127.88 349.05 127.895C350.52 127.895 351.465 128.285 351.465 129.365C351.465 130.31 350.625 130.79 349.35 130.79H347.25V132.35H349.5C350.7 132.35 351.885 132.68 351.885 133.94C351.885 135.275 350.55 135.605 349.26 135.605C348.03 135.62 346.845 135.455 345.585 134.855V136.52C346.86 137 348.06 137.195 349.395 137.195C351.405 137.195 353.625 136.46 353.625 134.15ZM359.405 137C361.07 137 361.775 136.13 361.775 135.02C361.775 134.135 361.22 133.565 360.545 133.355C361.16 133.085 361.565 132.515 361.565 131.72C361.565 130.595 360.74 129.8 359.285 129.8H355.175V137H359.405ZM356.78 133.94H359.045C359.6 133.94 360.155 134.135 360.155 134.87C360.155 135.56 359.675 135.785 359.015 135.785H356.78V133.94ZM356.78 131.015H358.925C359.42 131.015 359.945 131.225 359.945 131.93C359.945 132.575 359.495 132.8 358.925 132.8H356.78V131.015ZM362.943 133.4C362.943 135.935 364.818 137.195 367.023 137.195C368.028 137.195 368.943 137.015 369.603 136.7V135.32C368.988 135.62 368.193 135.83 367.323 135.83C366.003 135.83 364.743 135.29 364.563 134H369.978C370.443 131.915 369.453 129.605 366.588 129.605C364.923 129.605 362.943 130.79 362.943 133.4ZM368.538 132.8H364.548C364.608 131.585 365.583 130.94 366.663 130.94C368.238 130.94 368.628 132.17 368.538 132.8ZM372.363 138.935V137H378.153V138.935H379.668V135.68H378.603V129.8H372.978C373.008 132.305 372.708 134.135 371.838 135.68H370.848V138.935H372.363ZM374.478 131.12H376.983V135.68H373.518C374.118 134.405 374.418 133.055 374.478 131.12ZM380.535 133.4C380.535 135.935 382.41 137.195 384.615 137.195C385.62 137.195 386.535 137.015 387.195 136.7V135.32C386.58 135.62 385.785 135.83 384.915 135.83C383.595 135.83 382.335 135.29 382.155 134H387.57C388.035 131.915 387.045 129.605 384.18 129.605C382.515 129.605 380.535 130.79 380.535 133.4ZM386.13 132.8H382.14C382.2 131.585 383.175 130.94 384.255 130.94C385.83 130.94 386.22 132.17 386.13 132.8ZM390.779 137V134.105H394.379V137H395.984V129.8H394.379V132.695H390.779V129.8H389.174V137H390.779ZM399.597 137V134.105H403.197V137H404.802V129.8H403.197V132.695H399.597V129.8H397.992V137H399.597ZM408.011 137L409.796 134.645H411.431V137H413.036V129.8H409.316C407.516 129.8 406.541 130.925 406.541 132.23C406.541 133.22 407.096 134.105 408.146 134.465L406.166 137H408.011ZM408.176 132.245C408.176 131.54 408.701 131.135 409.586 131.135H411.431V133.355H409.586C408.701 133.355 408.176 132.95 408.176 132.245ZM429.883 138.935V135.62H428.818V129.8H427.213V135.59H424.513V129.8H422.908V135.59H420.193V129.8H418.588V137H428.368V138.935H429.883ZM430.765 133.4C430.765 135.89 432.655 137.195 434.665 137.195C436.69 137.195 438.565 135.89 438.565 133.4C438.565 130.91 436.69 129.605 434.665 129.605C432.655 129.605 430.765 130.91 430.765 133.4ZM436.93 133.4C436.93 134.81 436 135.725 434.665 135.725C433.315 135.725 432.385 134.81 432.385 133.4C432.385 131.99 433.315 131.075 434.665 131.075C436 131.075 436.93 131.99 436.93 133.4ZM440.815 138.935V137H446.605V138.935H448.12V135.68H447.055V129.8H441.43C441.46 132.305 441.16 134.135 440.29 135.68H439.3V138.935H440.815ZM442.93 131.12H445.435V135.68H441.97C442.57 134.405 442.87 133.055 442.93 131.12ZM448.988 133.4C448.988 135.89 450.878 137.195 452.888 137.195C454.913 137.195 456.788 135.89 456.788 133.4C456.788 130.91 454.913 129.605 452.888 129.605C450.878 129.605 448.988 130.91 448.988 133.4ZM455.153 133.4C455.153 134.81 454.223 135.725 452.888 135.725C451.538 135.725 450.608 134.81 450.608 133.4C450.608 131.99 451.538 131.075 452.888 131.075C454.223 131.075 455.153 131.99 455.153 133.4ZM463.494 137V131.21H467.094V137H468.699V129.8H461.889V137H463.494ZM470.257 133.4C470.257 135.89 472.147 137.195 474.157 137.195C476.182 137.195 478.057 135.89 478.057 133.4C478.057 130.91 476.182 129.605 474.157 129.605C472.147 129.605 470.257 130.91 470.257 133.4ZM476.422 133.4C476.422 134.81 475.492 135.725 474.157 135.725C472.807 135.725 471.877 134.81 471.877 133.4C471.877 131.99 472.807 131.075 474.157 131.075C475.492 131.075 476.422 131.99 476.422 133.4ZM481.038 130.925V129.8H479.613V140.3H481.218V136.07C481.713 136.64 482.553 137.195 483.813 137.195C485.973 137.195 487.383 135.47 487.383 133.4C487.383 131.33 485.973 129.605 483.813 129.605C482.463 129.605 481.608 130.235 481.038 130.925ZM485.748 133.4C485.748 134.81 484.818 135.785 483.513 135.785C482.403 135.785 481.563 135.065 481.218 134.27V132.515C481.563 131.735 482.403 131.015 483.513 131.015C484.818 131.015 485.748 131.99 485.748 133.4ZM491.906 135.23L489.476 129.8H487.766L491.186 137.06L491.036 137.42C490.616 138.545 490.031 139.1 489.251 139.1C489.011 139.1 488.756 139.07 488.516 138.995V140.36C488.831 140.435 489.146 140.48 489.461 140.48C490.556 140.48 491.576 139.85 492.356 137.975L495.731 129.8H494.051L491.906 135.23ZM507.158 137V129.8H505.553V135.59H502.853V129.8H501.248V135.59H498.533V129.8H496.928V137H507.158ZM508.724 133.4C508.724 135.935 510.599 137.195 512.804 137.195C513.809 137.195 514.724 137.015 515.384 136.7V135.32C514.769 135.62 513.974 135.83 513.104 135.83C511.784 135.83 510.524 135.29 510.344 134H515.759C516.224 131.915 515.234 129.605 512.369 129.605C510.704 129.605 508.724 130.79 508.724 133.4ZM514.319 132.8H510.329C510.389 131.585 511.364 130.94 512.444 130.94C514.019 130.94 514.409 132.17 514.319 132.8ZM518.967 137V134.105H522.567V137H524.172V129.8H522.567V132.695H518.967V129.8H517.362V137H518.967ZM529.751 137C531.566 137 532.601 135.95 532.601 134.6C532.601 133.235 531.566 132.2 529.751 132.2H527.786V129.8H526.181V137H529.751ZM527.786 133.46H529.436C530.381 133.46 530.966 133.85 530.966 134.6C530.966 135.335 530.381 135.725 529.436 135.725H527.786V133.46Z" fill="white"/>
<path d="M347.905 357L348.835 354.735H354.1L355.03 357H356.83L352.405 346.5H350.53L346.09 357H347.905ZM351.265 348.75C351.325 348.585 351.385 348.42 351.46 348.165C351.535 348.42 351.595 348.585 351.655 348.75L353.5 353.235H349.42L351.265 348.75ZM359.523 357V354.105H363.123V357H364.728V349.8H363.123V352.695H359.523V349.8H357.918V357H359.523ZM372.871 355.335V352.755C372.871 350.58 371.581 349.605 369.541 349.605C368.386 349.605 367.351 349.89 366.781 350.085V351.555C367.426 351.27 368.311 351 369.376 351C370.606 351 371.266 351.63 371.266 352.53V352.785C370.696 352.665 370.006 352.575 369.391 352.575C367.891 352.575 366.181 353.145 366.181 354.99C366.181 356.475 367.396 357.195 368.701 357.195C369.826 357.195 370.711 356.835 371.416 356.265C371.671 356.85 372.196 357.105 372.856 357.105C373.216 357.105 373.576 357.045 373.876 356.925V355.77C373.726 355.815 373.561 355.86 373.396 355.86C373.111 355.86 372.871 355.74 372.871 355.335ZM369.706 353.7C370.216 353.7 370.831 353.79 371.266 353.88V355.095C370.696 355.665 369.946 355.95 369.181 355.95C368.461 355.95 367.831 355.59 367.831 354.885C367.831 353.985 368.791 353.7 369.706 353.7ZM377.951 351.165H380.381V357H381.986V349.8H376.436C376.301 353.37 375.971 355.77 374.756 355.77C374.606 355.77 374.456 355.74 374.291 355.68V356.94C374.651 357.075 374.981 357.135 375.281 357.135C377.201 357.135 377.741 354.645 377.951 351.165ZM385.582 348.96V357H384.262V348.96H385.582ZM384.937 345.945C385.137 345.945 385.312 346.015 385.462 346.155C385.622 346.285 385.702 346.495 385.702 346.785C385.702 347.065 385.622 347.275 385.462 347.415C385.312 347.555 385.137 347.625 384.937 347.625C384.717 347.625 384.532 347.555 384.382 347.415C384.232 347.275 384.157 347.065 384.157 346.785C384.157 346.495 384.232 346.285 384.382 346.155C384.532 346.015 384.717 345.945 384.937 345.945ZM393.499 355.035C393.499 354.135 392.899 353.535 392.074 353.31C392.824 353.115 393.349 352.56 393.349 351.705C393.349 350.535 392.419 349.59 390.199 349.59C389.209 349.59 388.249 349.83 387.559 350.16V351.54C388.174 351.21 389.164 350.955 390.004 350.955C391.039 350.955 391.729 351.27 391.729 351.915C391.729 352.515 391.144 352.725 390.379 352.725H388.909V353.955H390.379C391.099 353.955 391.879 354.075 391.879 354.84C391.879 355.635 390.979 355.83 389.914 355.83C389.044 355.83 388.009 355.56 387.424 355.23V356.61C388.084 356.955 389.044 357.195 390.124 357.195C392.344 357.195 393.499 356.295 393.499 355.035ZM400.26 357V354.105H403.86V357H405.465V349.8H403.86V352.695H400.26V349.8H398.655V357H400.26ZM407.024 353.4C407.024 355.89 408.914 357.195 410.924 357.195C412.949 357.195 414.824 355.89 414.824 353.4C414.824 350.91 412.949 349.605 410.924 349.605C408.914 349.605 407.024 350.91 407.024 353.4ZM413.189 353.4C413.189 354.81 412.259 355.725 410.924 355.725C409.574 355.725 408.644 354.81 408.644 353.4C408.644 351.99 409.574 351.075 410.924 351.075C412.259 351.075 413.189 351.99 413.189 353.4ZM420.61 357C422.275 357 422.98 356.13 422.98 355.02C422.98 354.135 422.425 353.565 421.75 353.355C422.365 353.085 422.77 352.515 422.77 351.72C422.77 350.595 421.945 349.8 420.49 349.8H416.38V357H420.61ZM417.985 353.94H420.25C420.805 353.94 421.36 354.135 421.36 354.87C421.36 355.56 420.88 355.785 420.22 355.785H417.985V353.94ZM417.985 351.015H420.13C420.625 351.015 421.15 351.225 421.15 351.93C421.15 352.575 420.7 352.8 420.13 352.8H417.985V351.015ZM425.978 357L429.833 352.29V357H431.438V349.8H430.058L426.203 354.51V349.8H424.598V357H425.978ZM435.05 357V354.105H438.65V357H440.255V349.8H438.65V352.695H435.05V349.8H433.445V357H435.05ZM441.814 353.4C441.814 355.89 443.704 357.195 445.714 357.195C447.739 357.195 449.614 355.89 449.614 353.4C449.614 350.91 447.739 349.605 445.714 349.605C443.704 349.605 441.814 350.91 441.814 353.4ZM447.979 353.4C447.979 354.81 447.049 355.725 445.714 355.725C444.364 355.725 443.434 354.81 443.434 353.4C443.434 351.99 444.364 351.075 445.714 351.075C447.049 351.075 447.979 351.99 447.979 353.4ZM452.775 357V354.015H453.93L456.3 357H458.145L455.25 353.37L457.86 349.8H456.03L453.96 352.65H452.775V349.8H451.17V357H452.775Z" fill="white"/>
<defs>
<filter id="filter0_i_1731_417" x="20" y="85" width="65" height="458" filterUnits="userSpaceOnUse" color-interpolation-filters="sRGB">
<feFlood flood-opacity="0" result="BackgroundImageFix"/>
<feBlend mode="normal" in="SourceGraphic" in2="BackgroundImageFix" result="shape"/>
<feColorMatrix in="SourceAlpha" type="matrix" values="0 0 0 0 0 0 0 0 0 0 0 0 0 0 0 0 0 0 127 0" result="hardAlpha"/>
<feOffset dx="10"/>
<feGaussianBlur stdDeviation="15"/>
<feComposite in2="hardAlpha" operator="arithmetic" k2="-1" k3="1"/>
<feColorMatrix type="matrix" values="0 0 0 0 0 0 0 0 0 0 0 0 0 0 0 0 0 0 0.1 0"/>
<feBlend mode="normal" in2="shape" result="effect1_innerShadow_1731_417"/>
</filter>
<filter id="filter1_i_1731_417" x="75" y="30" width="923" height="55" filterUnits="userSpaceOnUse" color-interpolation-filters="sRGB">
<feFlood flood-opacity="0" result="BackgroundImageFix"/>
<feBlend mode="normal" in="SourceGraphic" in2="BackgroundImageFix" result="shape"/>
<feColorMatrix in="SourceAlpha" type="matrix" values="0 0 0 0 0 0 0 0 0 0 0 0 0 0 0 0 0 0 127 0" result="hardAlpha"/>
<feOffset dx="10"/>
<feGaussianBlur stdDeviation="15"/>
<feComposite in2="hardAlpha" operator="arithmetic" k2="-1" k3="1"/>
<feColorMatrix type="matrix" values="0 0 0 0 0 0 0 0 0 0 0 0 0 0 0 0 0 0 0.1 0"/>
<feBlend mode="normal" in2="shape" result="effect1_innerShadow_1731_417"/>
</filter>
</defs>
</svg>
