<svg width="719" height="423" viewBox="0 0 719 423" fill="none" xmlns="http://www.w3.org/2000/svg">
<g filter="url(#filter0_d_1712_179)">
<path d="M50 61C50 52.7157 56.7157 46 65 46H654C662.284 46 669 52.7157 669 61V354C669 362.284 662.284 369 654 369H65C56.7157 369 50 362.284 50 354V61Z" fill="white"/>
</g>
<path fill-rule="evenodd" clip-rule="evenodd" d="M605 120.5L112 120.5L112 119.5L605 119.5L605 120.5Z" fill="black"/>
<path d="M601.165 101.75L597 98L605.33 98L601.165 101.75Z" fill="#000C2C"/>
<path opacity="0.6" d="M276 239C276 284.287 239.287 321 194 321C148.713 321 112 284.287 112 239C112 193.713 148.713 157 194 157C239.287 157 276 193.713 276 239Z" fill="#FFE264"/>
<path d="M276 239C276 258.362 269.149 277.099 256.66 291.894C244.171 306.689 226.849 316.588 207.762 319.837C188.675 323.087 169.054 319.477 152.373 309.648C135.692 299.82 123.026 284.405 116.62 266.134C110.213 247.863 110.478 227.915 117.367 209.821C124.257 191.726 137.327 176.654 154.264 167.271C171.2 157.889 190.91 154.802 209.904 158.557C228.898 162.312 245.951 172.668 258.042 187.789L194 239H276Z" fill="#F28100"/>
<path d="M276 239C276 256.72 270.26 273.963 259.639 288.148C249.019 302.332 234.089 312.695 217.085 317.683C200.082 322.672 181.92 322.019 165.32 315.821C148.719 309.623 134.572 298.214 124.999 283.303C115.425 268.392 110.939 250.781 112.212 233.107C113.486 215.433 120.45 198.647 132.063 185.262C143.675 171.878 159.311 162.615 176.629 158.861C193.947 155.107 212.015 157.064 228.127 164.439L194 239H276Z" fill="#0FA7F0"/>
<path opacity="0.6" d="M351 303.5C351 313.165 343.165 321 333.5 321C323.835 321 316 313.165 316 303.5C316 293.835 323.835 286 333.5 286C343.165 286 351 293.835 351 303.5Z" fill="#FFE264"/>
<path d="M351 303.5C351 307.632 349.538 311.631 346.873 314.788C344.207 317.946 340.511 320.058 336.437 320.752C332.364 321.445 328.176 320.675 324.616 318.577C321.056 316.48 318.353 313.19 316.986 309.291C315.619 305.392 315.675 301.134 317.145 297.273C318.616 293.411 321.405 290.194 325.02 288.192C328.634 286.19 332.841 285.531 336.894 286.332C340.948 287.134 344.587 289.344 347.168 292.571L333.5 303.5H351Z" fill="#F28100"/>
<path d="M351 303.5C351 305.798 350.547 308.074 349.668 310.197C348.788 312.32 347.499 314.249 345.874 315.874C344.249 317.499 342.32 318.788 340.197 319.668C338.074 320.547 335.798 321 333.5 321C331.202 321 328.926 320.547 326.803 319.668C324.68 318.788 322.751 317.499 321.126 315.874C319.501 314.249 318.212 312.32 317.332 310.197C316.453 308.074 316 305.798 316 303.5L333.5 303.5H351Z" fill="#0FA7F0"/>
<path opacity="0.6" d="M398.246 314.33C400.884 310.983 402.209 306.787 401.973 302.532C401.737 298.276 399.957 294.253 396.965 291.217C393.974 288.182 389.978 286.342 385.726 286.043C381.475 285.744 377.26 287.008 373.874 289.595C370.488 292.183 368.162 295.918 367.334 300.099C366.505 304.279 367.231 308.619 369.375 312.302C371.519 315.986 374.933 318.761 378.977 320.106C383.021 321.451 387.417 321.274 391.34 319.608L384.5 303.5L398.246 314.33Z" fill="#FFE264"/>
<path d="M402 303.5C402 307.959 400.298 312.25 397.241 315.497C394.184 318.743 390.003 320.7 385.552 320.968C381.101 321.237 376.716 319.795 373.291 316.939C369.867 314.083 367.662 310.027 367.127 305.601C366.591 301.174 367.766 296.709 370.411 293.119C373.056 289.53 376.972 287.085 381.359 286.284C385.745 285.484 390.272 286.388 394.015 288.813C397.757 291.237 400.433 294.999 401.496 299.329L384.5 303.5H402Z" fill="#F28100"/>
<path d="M402 303.5C402 306.961 400.974 310.345 399.051 313.222C397.128 316.1 394.395 318.343 391.197 319.668C387.999 320.992 384.481 321.339 381.086 320.664C377.691 319.989 374.573 318.322 372.126 315.874C369.678 313.427 368.012 310.309 367.336 306.914C366.661 303.519 367.008 300.001 368.332 296.803C369.657 293.605 371.9 290.872 374.778 288.949C377.655 287.026 381.039 286 384.5 286V303.5H402Z" fill="#0FA7F0"/>
<path opacity="0.6" d="M551.246 314.33C553.884 310.983 555.209 306.787 554.973 302.532C554.737 298.276 552.957 294.253 549.965 291.217C546.974 288.182 542.978 286.342 538.726 286.043C534.475 285.744 530.26 287.008 526.874 289.595C523.488 292.183 521.162 295.918 520.334 300.099C519.505 304.279 520.231 308.619 522.375 312.302C524.519 315.986 527.933 318.761 531.977 320.106C536.021 321.451 540.417 321.274 544.34 319.608L537.5 303.5L551.246 314.33Z" fill="#FFE264"/>
<path d="M555 303.5C555 307.549 553.596 311.472 551.028 314.602C548.459 317.732 544.885 319.874 540.914 320.664C536.943 321.454 532.821 320.842 529.251 318.934C525.68 317.025 522.881 313.938 521.332 310.197C519.783 306.456 519.578 302.294 520.754 298.42C521.929 294.546 524.411 291.199 527.778 288.949C531.144 286.7 535.186 285.687 539.215 286.084C543.245 286.481 547.011 288.263 549.874 291.126L537.5 303.5H555Z" fill="#F28100"/>
<path d="M555 303.5C555 306.961 553.974 310.345 552.051 313.222C550.128 316.1 547.395 318.343 544.197 319.668C540.999 320.992 537.481 321.339 534.086 320.664C530.691 319.989 527.573 318.322 525.126 315.874C522.678 313.427 521.012 310.309 520.336 306.914C519.661 303.519 520.008 300.001 521.332 296.803C522.657 293.605 524.9 290.872 527.778 288.949C530.655 287.026 534.039 286 537.5 286V303.5H555Z" fill="#0FA7F0"/>
<path opacity="0.6" d="M500.246 314.33C502.884 310.983 504.209 306.787 503.973 302.532C503.737 298.276 501.957 294.253 498.965 291.217C495.974 288.182 491.978 286.342 487.726 286.043C483.475 285.744 479.26 287.008 475.874 289.595C472.488 292.183 470.162 295.918 469.334 300.099C468.505 304.279 469.231 308.619 471.375 312.302C473.519 315.986 476.933 318.761 480.977 320.106C485.021 321.451 489.417 321.274 493.34 319.608L486.5 303.5L500.246 314.33Z" fill="#FFE264"/>
<path d="M504 303.5C504 307.176 502.842 310.76 500.691 313.741C498.539 316.722 495.504 318.95 492.014 320.109C488.525 321.267 484.76 321.297 481.252 320.195C477.745 319.092 474.674 316.913 472.475 313.967C470.276 311.02 469.061 307.456 469.002 303.78C468.943 300.104 470.044 296.503 472.147 293.488C474.251 290.472 477.25 288.196 480.72 286.982C484.191 285.768 487.955 285.677 491.48 286.723L486.5 303.5H504Z" fill="#F28100"/>
<path d="M504 303.5C504 306.961 502.974 310.345 501.051 313.222C499.128 316.1 496.395 318.343 493.197 319.668C489.999 320.992 486.481 321.339 483.086 320.664C479.691 319.989 476.573 318.322 474.126 315.874C471.678 313.427 470.012 310.309 469.336 306.914C468.661 303.519 469.008 300.001 470.332 296.803C471.657 293.605 473.9 290.872 476.778 288.949C479.655 287.026 483.039 286 486.5 286V303.5H504Z" fill="#0FA7F0"/>
<path opacity="0.6" d="M449.246 314.33C451.884 310.983 453.209 306.787 452.973 302.532C452.737 298.276 450.957 294.253 447.965 291.217C444.974 288.182 440.978 286.342 436.726 286.043C432.475 285.744 428.26 287.008 424.874 289.595C421.488 292.183 419.162 295.918 418.334 300.099C417.505 304.279 418.231 308.619 420.375 312.302C422.519 315.986 425.933 318.761 429.977 320.106C434.021 321.451 438.417 321.274 442.34 319.608L435.5 303.5L449.246 314.33Z" fill="#FFE264"/>
<path d="M453 303.5C453 306.961 451.974 310.345 450.051 313.222C448.128 316.1 445.395 318.343 442.197 319.668C438.999 320.992 435.481 321.339 432.086 320.664C428.691 319.989 425.573 318.322 423.126 315.874C420.678 313.427 419.012 310.309 418.336 306.914C417.661 303.519 418.008 300.001 419.332 296.803C420.657 293.605 422.9 290.872 425.778 288.949C428.655 287.026 432.039 286 435.5 286V303.5H453Z" fill="#F28100"/>
<path d="M449.845 313.524C447.862 316.361 445.083 318.547 441.858 319.804C438.633 321.062 435.108 321.335 431.728 320.589C428.349 319.843 425.266 318.111 422.87 315.613C420.474 313.115 418.873 309.963 418.269 306.555C417.665 303.147 418.084 299.636 419.475 296.467C420.866 293.298 423.166 290.612 426.083 288.75C429.001 286.887 432.405 285.932 435.865 286.004C439.326 286.076 442.687 287.173 445.524 289.155L435.5 303.5L449.845 313.524Z" fill="#0FA7F0"/>
<path opacity="0.6" d="M603.379 312.712C605.623 309.088 606.467 304.77 605.753 300.568C605.039 296.366 602.816 292.57 599.501 289.89C596.187 287.211 592.009 285.834 587.75 286.016C583.492 286.199 579.447 287.929 576.374 290.882C573.301 293.835 571.412 297.808 571.06 302.056C570.708 306.303 571.918 310.533 574.464 313.951C577.009 317.37 580.714 319.742 584.884 320.622C589.054 321.503 593.402 320.832 597.112 318.734L588.5 303.5L603.379 312.712Z" fill="#FFE264"/>
<path d="M603.901 311.81C602.258 314.856 599.748 317.346 596.689 318.966C593.63 320.585 590.16 321.262 586.717 320.909C583.273 320.556 580.012 319.19 577.345 316.984C574.678 314.778 572.726 311.83 571.734 308.514C570.742 305.198 570.756 301.663 571.774 298.354C572.791 295.046 574.767 292.114 577.451 289.929C580.135 287.744 583.407 286.403 586.853 286.078C590.299 285.752 593.764 286.455 596.81 288.099L588.5 303.5L603.901 311.81Z" fill="#F28100"/>
<path d="M588.5 321C585.039 321 581.655 319.974 578.778 318.051C575.9 316.128 573.657 313.395 572.332 310.197C571.008 306.999 570.661 303.481 571.336 300.086C572.012 296.691 573.678 293.573 576.126 291.126C578.573 288.678 581.691 287.012 585.086 286.336C588.481 285.661 591.999 286.008 595.197 287.332C598.395 288.657 601.128 290.9 603.051 293.778C604.974 296.655 606 300.039 606 303.5L588.5 303.5V321Z" fill="#0FA7F0"/>
<path d="M316 224C316 222.895 316.895 222 318 222H327C328.105 222 329 222.895 329 224V257C329 258.105 328.105 259 327 259H318C316.895 259 316 258.105 316 257V224Z" fill="#0FA7F0"/>
<path d="M408 224C408 222.895 408.895 222 410 222H419C420.105 222 421 222.895 421 224V257C421 258.105 420.105 259 419 259H410C408.895 259 408 258.105 408 257V224Z" fill="#0FA7F0"/>
<path d="M339 224C339 222.895 339.895 222 341 222H350C351.105 222 352 222.895 352 224V257C352 258.105 351.105 259 350 259H341C339.895 259 339 258.105 339 257V224Z" fill="#0FA7F0"/>
<path d="M431 224C431 222.895 431.895 222 433 222H442C443.105 222 444 222.895 444 224V257C444 258.105 443.105 259 442 259H433C431.895 259 431 258.105 431 257V224Z" fill="#0FA7F0"/>
<path d="M500 224C500 222.895 500.895 222 502 222H511C512.105 222 513 222.895 513 224V257C513 258.105 512.105 259 511 259H502C500.895 259 500 258.105 500 257V224Z" fill="#0FA7F0"/>
<path d="M569 224C569 222.895 569.895 222 571 222H580C581.105 222 582 222.895 582 224V257C582 258.105 581.105 259 580 259H571C569.895 259 569 258.105 569 257V224Z" fill="#0FA7F0"/>
<path d="M592 224C592 222.895 592.895 222 594 222H603C604.105 222 605 222.895 605 224V257C605 258.105 604.105 259 603 259H594C592.895 259 592 258.105 592 257V224Z" fill="#0FA7F0"/>
<path d="M362 213C362 211.895 362.895 211 364 211H373C374.105 211 375 211.895 375 213V257C375 258.105 374.105 259 373 259H364C362.895 259 362 258.105 362 257V213Z" fill="#0FA7F0"/>
<path d="M454 213C454 211.895 454.895 211 456 211H465C466.105 211 467 211.895 467 213V257C467 258.105 466.105 259 465 259H456C454.895 259 454 258.105 454 257V213Z" fill="#0FA7F0"/>
<path d="M523 213C523 211.895 523.895 211 525 211H534C535.105 211 536 211.895 536 213V257C536 258.105 535.105 259 534 259H525C523.895 259 523 258.105 523 257V213Z" fill="#0FA7F0"/>
<path d="M546 213C546 211.895 546.895 211 548 211H557C558.105 211 559 211.895 559 213V257C559 258.105 558.105 259 557 259H548C546.895 259 546 258.105 546 257V213Z" fill="#0FA7F0"/>
<path d="M385 182C385 180.895 385.895 180 387 180H396C397.105 180 398 180.895 398 182V257C398 258.105 397.105 259 396 259H387C385.895 259 385 258.105 385 257V182Z" fill="#0FA7F0"/>
<path d="M477 182C477 180.895 477.895 180 479 180H488C489.105 180 490 180.895 490 182V257C490 258.105 489.105 259 488 259H479C477.895 259 477 258.105 477 257V182Z" fill="#0FA7F0"/>
<path d="M316 180C316 178.895 316.895 178 318 178H327C328.105 178 329 178.895 329 180V219C329 220.105 328.105 221 327 221H318C316.895 221 316 220.105 316 219V180Z" fill="#FFEEA2"/>
<path d="M408 180C408 178.895 408.895 178 410 178H419C420.105 178 421 178.895 421 180V219C421 220.105 420.105 221 419 221H410C408.895 221 408 220.105 408 219V180Z" fill="#FFEEA2"/>
<path d="M339 213C339 211.895 339.895 211 341 211H350C351.105 211 352 211.895 352 213V219C352 220.105 351.105 221 350 221H341C339.895 221 339 220.105 339 219V213Z" fill="#FFEEA2"/>
<path d="M431 213C431 211.895 431.895 211 433 211H442C443.105 211 444 211.895 444 213V219C444 220.105 443.105 221 442 221H433C431.895 221 431 220.105 431 219V213Z" fill="#FFEEA2"/>
<path d="M500 213C500 211.895 500.895 211 502 211H511C512.105 211 513 211.895 513 213V219C513 220.105 512.105 221 511 221H502C500.895 221 500 220.105 500 219V213Z" fill="#FFEEA2"/>
<path d="M569 213C569 211.895 569.895 211 571 211H580C581.105 211 582 211.895 582 213V219C582 220.105 581.105 221 580 221H571C569.895 221 569 220.105 569 219V213Z" fill="#FFEEA2"/>
<path d="M592 213C592 211.895 592.895 211 594 211H603C604.105 211 605 211.895 605 213V219C605 220.105 604.105 221 603 221H594C592.895 221 592 220.105 592 219V213Z" fill="#FFEEA2"/>
<path d="M362 171C362 169.895 362.895 169 364 169H373C374.105 169 375 169.895 375 171V208C375 209.105 374.105 210 373 210H364C362.895 210 362 209.105 362 208V171Z" fill="#FFEEA2"/>
<path d="M454 171C454 169.895 454.895 169 456 169H465C466.105 169 467 169.895 467 171V208C467 209.105 466.105 210 465 210H456C454.895 210 454 209.105 454 208V171Z" fill="#FFEEA2"/>
<path d="M523 171C523 169.895 523.895 169 525 169H534C535.105 169 536 169.895 536 171V208C536 209.105 535.105 210 534 210H525C523.895 210 523 209.105 523 208V171Z" fill="#FFEEA2"/>
<path d="M546 193C546 191.895 546.895 191 548 191H557C558.105 191 559 191.895 559 193V208C559 209.105 558.105 210 557 210H548C546.895 210 546 209.105 546 208V193Z" fill="#FFEEA2"/>
<path d="M385 171C385 169.895 385.895 169 387 169H396C397.105 169 398 169.895 398 171V177C398 178.105 397.105 179 396 179H387C385.895 179 385 178.105 385 177V171Z" fill="#FFEEA2"/>
<path d="M477 171C477 169.895 477.895 169 479 169H488C489.105 169 490 169.895 490 171V177C490 178.105 489.105 179 488 179H479C477.895 179 477 178.105 477 177V171Z" fill="#FFEEA2"/>
<path d="M316 159C316 157.895 316.895 157 318 157H327C328.105 157 329 157.895 329 159V175C329 176.105 328.105 177 327 177H318C316.895 177 316 176.105 316 175V159Z" fill="#F28100"/>
<path d="M408 159C408 157.895 408.895 157 410 157H419C420.105 157 421 157.895 421 159V175C421 176.105 420.105 177 419 177H410C408.895 177 408 176.105 408 175V159Z" fill="#F28100"/>
<path d="M339 159C339 157.895 339.895 157 341 157H350C351.105 157 352 157.895 352 159V208C352 209.105 351.105 210 350 210H341C339.895 210 339 209.105 339 208V159Z" fill="#F28100"/>
<path d="M431 159C431 157.895 431.895 157 433 157H442C443.105 157 444 157.895 444 159V208C444 209.105 443.105 210 442 210H433C431.895 210 431 209.105 431 208V159Z" fill="#F28100"/>
<path d="M500 159C500 157.895 500.895 157 502 157H511C512.105 157 513 157.895 513 159V208C513 209.105 512.105 210 511 210H502C500.895 210 500 209.105 500 208V159Z" fill="#F28100"/>
<path d="M569 159C569 157.895 569.895 157 571 157H580C581.105 157 582 157.895 582 159V208C582 209.105 581.105 210 580 210H571C569.895 210 569 209.105 569 208V159Z" fill="#F28100"/>
<path d="M592 159C592 157.895 592.895 157 594 157H603C604.105 157 605 157.895 605 159V208C605 209.105 604.105 210 603 210H594C592.895 210 592 209.105 592 208V159Z" fill="#F28100"/>
<path d="M362 159C362 157.895 362.895 157 364 157H373C374.105 157 375 157.895 375 159V166C375 167.105 374.105 168 373 168H364C362.895 168 362 167.105 362 166V159Z" fill="#F28100"/>
<path d="M454 159C454 157.895 454.895 157 456 157H465C466.105 157 467 157.895 467 159V166C467 167.105 466.105 168 465 168H456C454.895 168 454 167.105 454 166V159Z" fill="#F28100"/>
<path d="M523 159C523 157.895 523.895 157 525 157H534C535.105 157 536 157.895 536 159V166C536 167.105 535.105 168 534 168H525C523.895 168 523 167.105 523 166V159Z" fill="#F28100"/>
<path d="M546 159C546 157.895 546.895 157 548 157H557C558.105 157 559 157.895 559 159V188C559 189.105 558.105 190 557 190H548C546.895 190 546 189.105 546 188V159Z" fill="#F28100"/>
<path d="M385 159C385 157.895 385.895 157 387 157H396C397.105 157 398 157.895 398 159V166C398 167.105 397.105 168 396 168H387C385.895 168 385 167.105 385 166V159Z" fill="#F28100"/>
<path d="M477 159C477 157.895 477.895 157 479 157H488C489.105 157 490 157.895 490 159V166C490 167.105 489.105 168 488 168H479C477.895 168 477 167.105 477 166V159Z" fill="#F28100"/>
<path d="M113.764 103L115.06 99.958H121.846L123.142 103H124.762L119.29 90.4H117.616L112.126 103H113.764ZM118.246 92.434C118.318 92.272 118.372 92.128 118.444 91.948C118.516 92.128 118.57 92.272 118.642 92.434L121.252 98.554H115.654L118.246 92.434ZM127.674 103V99.346H132.678V103H134.118V94.36H132.678V98.014H127.674V94.36H126.234V103H127.674ZM143.801 101.2V97.816C143.801 95.404 142.343 94.144 140.039 94.144C138.617 94.144 137.429 94.486 136.745 94.72V96.124C137.501 95.8 138.563 95.476 139.895 95.476C141.479 95.476 142.361 96.34 142.361 97.636V97.942C141.641 97.78 140.723 97.672 139.967 97.672C138.113 97.672 136.061 98.356 136.061 100.588C136.061 102.406 137.573 103.216 139.103 103.216C140.507 103.216 141.605 102.784 142.469 102.064C142.721 102.82 143.351 103.108 144.053 103.108C144.413 103.108 144.791 103.036 145.133 102.91V101.74C144.917 101.812 144.683 101.866 144.467 101.866C144.089 101.866 143.801 101.722 143.801 101.2ZM137.537 100.516C137.537 99.256 138.905 98.878 140.165 98.878C140.867 98.878 141.749 99.004 142.361 99.13V100.714C141.605 101.524 140.507 101.974 139.409 101.974C138.455 101.974 137.537 101.524 137.537 100.516ZM149.738 95.692H153.248V103H154.688V94.36H148.334C148.172 99.004 147.668 101.92 146.138 101.92C145.958 101.92 145.76 101.884 145.562 101.812V102.946C145.94 103.09 146.282 103.144 146.606 103.144C148.838 103.144 149.45 100.12 149.738 95.692ZM159.127 103H157.545V93.3496H159.127V103ZM157.422 90.7393C157.422 90.3877 157.51 90.1328 157.686 89.9746C157.867 89.8164 158.09 89.7373 158.354 89.7373C158.6 89.7373 158.813 89.8164 158.995 89.9746C159.183 90.1328 159.276 90.3877 159.276 90.7393C159.276 91.085 159.183 91.3398 158.995 91.5039C158.813 91.668 158.6 91.75 158.354 91.75C158.09 91.75 157.867 91.668 157.686 91.5039C157.51 91.3398 157.422 91.085 157.422 90.7393ZM168.45 100.678C168.45 99.562 167.64 98.824 166.668 98.572C167.64 98.356 168.27 97.672 168.27 96.628C168.27 95.116 167.028 94.126 164.616 94.126C163.464 94.126 162.384 94.396 161.52 94.792V96.142C162.312 95.746 163.428 95.458 164.454 95.458C165.804 95.458 166.83 95.872 166.83 96.826C166.83 97.654 166.074 97.942 165.102 97.942H163.212V99.274H165.102C165.966 99.274 167.01 99.454 167.01 100.516C167.01 101.632 165.75 101.884 164.382 101.884C163.338 101.884 162.114 101.578 161.376 101.182V102.55C162.186 102.946 163.338 103.216 164.562 103.216C166.956 103.216 168.45 102.316 168.45 100.678ZM173.956 101.362L170.698 94.36H169.168L173.272 103.018L172.948 103.81C172.39 105.214 171.688 105.916 170.716 105.916C170.464 105.916 170.212 105.88 169.96 105.808V107.05C170.284 107.14 170.59 107.176 170.896 107.176C172.156 107.176 173.254 106.384 174.154 104.296L178.402 94.36H176.872L173.956 101.362ZM184.884 103C186.756 103 187.674 102.028 187.674 100.606C187.674 99.526 186.954 98.842 186.252 98.608C186.9 98.32 187.404 97.6 187.404 96.7C187.404 95.17 186.252 94.36 184.74 94.36H180.006V103H184.884ZM181.446 99.256H184.74C185.46 99.256 186.234 99.49 186.234 100.516C186.234 101.47 185.586 101.74 184.686 101.74H181.446V99.256ZM181.446 95.62H184.596C185.208 95.62 185.946 95.872 185.946 96.844C185.946 97.726 185.352 98.014 184.596 98.014H181.446V95.62ZM196.887 101.2V97.816C196.887 95.404 195.429 94.144 193.125 94.144C191.703 94.144 190.515 94.486 189.831 94.72V96.124C190.587 95.8 191.649 95.476 192.981 95.476C194.565 95.476 195.447 96.34 195.447 97.636V97.942C194.727 97.78 193.809 97.672 193.053 97.672C191.199 97.672 189.147 98.356 189.147 100.588C189.147 102.406 190.659 103.216 192.189 103.216C193.593 103.216 194.691 102.784 195.555 102.064C195.807 102.82 196.437 103.108 197.139 103.108C197.499 103.108 197.877 103.036 198.219 102.91V101.74C198.003 101.812 197.769 101.866 197.553 101.866C197.175 101.866 196.887 101.722 196.887 101.2ZM190.623 100.516C190.623 99.256 191.991 98.878 193.251 98.878C193.953 98.878 194.835 99.004 195.447 99.13V100.714C194.691 101.524 193.593 101.974 192.495 101.974C191.541 101.974 190.623 101.524 190.623 100.516ZM202.959 103V95.692H206.127V94.36H198.333V95.692H201.519V103H202.959ZM208.986 103L214.278 96.682V103H215.718V94.36H214.494L209.202 100.678V94.36H207.762V103H208.986ZM223.401 105.34V103H230.925V105.34H232.329V101.704H231.069V94.36H224.625C224.661 97.582 224.229 99.796 223.149 101.704H221.997V105.34H223.401ZM226.011 95.656H229.629V101.704H224.715C225.507 100.048 225.939 98.248 226.011 95.656ZM241.272 101.2V97.816C241.272 95.404 239.814 94.144 237.51 94.144C236.088 94.144 234.9 94.486 234.216 94.72V96.124C234.972 95.8 236.034 95.476 237.366 95.476C238.95 95.476 239.832 96.34 239.832 97.636V97.942C239.112 97.78 238.194 97.672 237.438 97.672C235.584 97.672 233.532 98.356 233.532 100.588C233.532 102.406 235.044 103.216 236.574 103.216C237.978 103.216 239.076 102.784 239.94 102.064C240.192 102.82 240.822 103.108 241.524 103.108C241.884 103.108 242.262 103.036 242.604 102.91V101.74C242.388 101.812 242.154 101.866 241.938 101.866C241.56 101.866 241.272 101.722 241.272 101.2ZM235.008 100.516C235.008 99.256 236.376 98.878 237.636 98.878C238.338 98.878 239.22 99.004 239.832 99.13V100.714C239.076 101.524 237.978 101.974 236.88 101.974C235.926 101.974 235.008 101.524 235.008 100.516ZM245.588 103V99.346H250.592V103H252.032V94.36H250.592V98.014H245.588V94.36H244.148V103H245.588ZM256.475 103H254.893V93.3496H256.475V103ZM254.77 90.7393C254.77 90.3877 254.857 90.1328 255.033 89.9746C255.215 89.8164 255.438 89.7373 255.701 89.7373C255.947 89.7373 256.161 89.8164 256.343 89.9746C256.53 90.1328 256.624 90.3877 256.624 90.7393C256.624 91.085 256.53 91.3398 256.343 91.5039C256.161 91.668 255.947 91.75 255.701 91.75C255.438 91.75 255.215 91.668 255.033 91.5039C254.857 91.3398 254.77 91.085 254.77 90.7393ZM264.952 96.538C265.132 93.154 266.968 91.984 269.02 91.984C269.992 91.984 271.036 92.2 271.954 92.686V91.246C271.072 90.796 270.028 90.544 268.984 90.544C265.834 90.544 263.422 92.578 263.422 97.078C263.422 100.858 265.042 103.216 268.588 103.216C270.982 103.216 272.98 101.812 272.98 99.202C272.98 96.646 270.82 95.368 268.786 95.368C267.382 95.368 266.194 95.71 264.952 96.538ZM264.97 98.05C265.96 97.168 267.202 96.772 268.408 96.772C269.992 96.772 271.45 97.348 271.45 99.274C271.45 101.128 270.118 101.812 268.48 101.812C266.482 101.812 265.204 100.624 264.97 98.05ZM280.776 95.8V94.36H279.48V106.96H280.92V101.704C281.55 102.442 282.612 103.216 284.268 103.216C286.734 103.216 288.588 101.272 288.588 98.68C288.588 96.088 286.734 94.144 284.268 94.144C282.612 94.144 281.55 94.918 280.776 95.8ZM287.148 98.68C287.148 100.66 285.78 101.884 284.106 101.884C282.558 101.884 281.406 100.876 280.92 99.76V97.6C281.406 96.484 282.558 95.476 284.106 95.476C285.78 95.476 287.148 96.7 287.148 98.68ZM297.68 101.2V97.816C297.68 95.404 296.222 94.144 293.918 94.144C292.496 94.144 291.308 94.486 290.624 94.72V96.124C291.38 95.8 292.442 95.476 293.774 95.476C295.358 95.476 296.24 96.34 296.24 97.636V97.942C295.52 97.78 294.602 97.672 293.846 97.672C291.992 97.672 289.94 98.356 289.94 100.588C289.94 102.406 291.452 103.216 292.982 103.216C294.386 103.216 295.484 102.784 296.348 102.064C296.6 102.82 297.23 103.108 297.932 103.108C298.292 103.108 298.67 103.036 299.012 102.91V101.74C298.796 101.812 298.562 101.866 298.346 101.866C297.968 101.866 297.68 101.722 297.68 101.2ZM291.416 100.516C291.416 99.256 292.784 98.878 294.044 98.878C294.746 98.878 295.628 99.004 296.24 99.13V100.714C295.484 101.524 294.386 101.974 293.288 101.974C292.334 101.974 291.416 101.524 291.416 100.516ZM307.019 100.678C307.019 99.562 306.209 98.824 305.237 98.572C306.209 98.356 306.839 97.672 306.839 96.628C306.839 95.116 305.597 94.126 303.185 94.126C302.033 94.126 300.953 94.396 300.089 94.792V96.142C300.881 95.746 301.997 95.458 303.023 95.458C304.373 95.458 305.399 95.872 305.399 96.826C305.399 97.654 304.643 97.942 303.671 97.942H301.781V99.274H303.671C304.535 99.274 305.579 99.454 305.579 100.516C305.579 101.632 304.319 101.884 302.951 101.884C301.907 101.884 300.683 101.578 299.945 101.182V102.55C300.755 102.946 301.907 103.216 303.131 103.216C305.525 103.216 307.019 102.316 307.019 100.678ZM310.914 103H309.332V93.3496H310.914V103ZM309.209 90.7393C309.209 90.3877 309.297 90.1328 309.473 89.9746C309.654 89.8164 309.877 89.7373 310.141 89.7373C310.387 89.7373 310.601 89.8164 310.782 89.9746C310.97 90.1328 311.063 90.3877 311.063 90.7393C311.063 91.085 310.97 91.3398 310.782 91.5039C310.601 91.668 310.387 91.75 310.141 91.75C309.877 91.75 309.654 91.668 309.473 91.5039C309.297 91.3398 309.209 91.085 309.209 90.7393ZM318.653 103C320.525 103 321.443 102.028 321.443 100.606C321.443 99.526 320.723 98.842 320.021 98.608C320.669 98.32 321.173 97.6 321.173 96.7C321.173 95.17 320.021 94.36 318.509 94.36H313.775V103H318.653ZM315.215 99.256H318.509C319.229 99.256 320.003 99.49 320.003 100.516C320.003 101.47 319.355 101.74 318.455 101.74H315.215V99.256ZM315.215 95.62H318.365C318.977 95.62 319.715 95.872 319.715 96.844C319.715 97.726 319.121 98.014 318.365 98.014H315.215V95.62ZM329.559 103V99.346H334.563V103H336.003V94.36H334.563V98.014H329.559V94.36H328.119V103H329.559ZM345.686 101.2V97.816C345.686 95.404 344.228 94.144 341.924 94.144C340.502 94.144 339.314 94.486 338.63 94.72V96.124C339.386 95.8 340.448 95.476 341.78 95.476C343.364 95.476 344.246 96.34 344.246 97.636V97.942C343.526 97.78 342.608 97.672 341.852 97.672C339.998 97.672 337.946 98.356 337.946 100.588C337.946 102.406 339.458 103.216 340.988 103.216C342.392 103.216 343.49 102.784 344.354 102.064C344.606 102.82 345.236 103.108 345.938 103.108C346.298 103.108 346.676 103.036 347.018 102.91V101.74C346.802 101.812 346.568 101.866 346.352 101.866C345.974 101.866 345.686 101.722 345.686 101.2ZM339.422 100.516C339.422 99.256 340.79 98.878 342.05 98.878C342.752 98.878 343.634 99.004 344.246 99.13V100.714C343.49 101.524 342.392 101.974 341.294 101.974C340.34 101.974 339.422 101.524 339.422 100.516ZM353.585 105.34V103H361.109V105.34H362.513V101.704H361.253V94.36H354.809C354.845 97.582 354.413 99.796 353.333 101.704H352.181V105.34H353.585ZM356.195 95.656H359.813V101.704H354.899C355.691 100.048 356.123 98.248 356.195 95.656ZM363.666 98.68C363.666 101.758 365.898 103.216 368.454 103.216C369.588 103.216 370.722 103 371.514 102.586V101.182C370.776 101.596 369.732 101.884 368.67 101.884C366.924 101.884 365.286 101.128 365.106 99.31H371.982C372.522 96.862 371.298 94.144 367.968 94.144C365.916 94.144 363.666 95.656 363.666 98.68ZM370.704 98.05H365.106C365.214 96.358 366.582 95.476 368.058 95.476C370.254 95.476 370.83 97.132 370.704 98.05ZM375.526 103V99.346H380.53V103H381.97V94.36H380.53V98.014H375.526V94.36H374.086V103H375.526ZM388.737 103C390.843 103 392.085 101.794 392.085 100.192C392.085 98.59 390.843 97.384 388.737 97.384H386.073V94.36H384.633V103H388.737ZM386.073 98.68H388.557C389.817 98.68 390.627 99.166 390.627 100.192C390.627 101.218 389.817 101.704 388.557 101.704H386.073V98.68Z" fill="#37376D"/>
<defs>
<filter id="filter0_d_1712_179" x="0" y="0" width="719" height="423" filterUnits="userSpaceOnUse" color-interpolation-filters="sRGB">
<feFlood flood-opacity="0" result="BackgroundImageFix"/>
<feColorMatrix in="SourceAlpha" type="matrix" values="0 0 0 0 0 0 0 0 0 0 0 0 0 0 0 0 0 0 127 0" result="hardAlpha"/>
<feOffset dy="4"/>
<feGaussianBlur stdDeviation="25"/>
<feComposite in2="hardAlpha" operator="out"/>
<feColorMatrix type="matrix" values="0 0 0 0 0 0 0 0 0 0 0 0 0 0 0 0 0 0 0.1 0"/>
<feBlend mode="normal" in2="BackgroundImageFix" result="effect1_dropShadow_1712_179"/>
<feBlend mode="normal" in="SourceGraphic" in2="effect1_dropShadow_1712_179" result="shape"/>
</filter>
</defs>
</svg>
