<svg width="619" height="323" viewBox="0 0 619 323" fill="none" xmlns="http://www.w3.org/2000/svg">
<path d="M0 20C0 8.95431 8.9543 0 20 0H599C610.046 0 619 8.9543 619 20V303C619 314.046 610.046 323 599 323H20C8.95431 323 0 314.046 0 303V20Z" fill="white"/>
<path d="M55 233H568" stroke="#37376D"/>
<path d="M66 245L66 38" stroke="#37376D"/>
<path d="M67 186H568" stroke="#DDDDE6" stroke-dasharray="7 7"/>
<path d="M67 127H568" stroke="#DDDDE6" stroke-dasharray="7 7"/>
<path d="M67 66.5H568" stroke="#DDDDE6" stroke-dasharray="7 7"/>
<rect x="88" y="265" width="14" height="14" rx="2" fill="#F28100"/>
<path d="M121.746 278L116.904 271.718L117.984 271.07L123.276 278H121.746ZM113.124 278V265.4H114.42V278H113.124ZM114.024 272.222V271.052H117.966V272.222H114.024ZM118.092 271.844L116.868 271.628L121.566 265.4H123.006L118.092 271.844ZM128.8 278.09C127.888 278.09 127.066 277.886 126.334 277.478C125.614 277.058 125.044 276.488 124.624 275.768C124.204 275.036 123.994 274.202 123.994 273.266C123.994 272.318 124.204 271.484 124.624 270.764C125.044 270.044 125.614 269.48 126.334 269.072C127.054 268.664 127.876 268.46 128.8 268.46C129.736 268.46 130.564 268.664 131.284 269.072C132.016 269.48 132.586 270.044 132.994 270.764C133.414 271.484 133.624 272.318 133.624 273.266C133.624 274.202 133.414 275.036 132.994 275.768C132.586 276.488 132.016 277.058 131.284 277.478C130.552 277.886 129.724 278.09 128.8 278.09ZM128.8 276.956C129.484 276.956 130.09 276.806 130.618 276.506C131.146 276.194 131.56 275.762 131.86 275.21C132.172 274.646 132.328 273.998 132.328 273.266C132.328 272.522 132.172 271.874 131.86 271.322C131.56 270.77 131.146 270.344 130.618 270.044C130.09 269.732 129.49 269.576 128.818 269.576C128.146 269.576 127.546 269.732 127.018 270.044C126.49 270.344 126.07 270.77 125.758 271.322C125.446 271.874 125.29 272.522 125.29 273.266C125.29 273.998 125.446 274.646 125.758 275.21C126.07 275.762 126.49 276.194 127.018 276.506C127.546 276.806 128.14 276.956 128.8 276.956ZM136.355 278V268.55H137.633V272.726H143.591V268.55H144.869V278H143.591V273.824H137.633V278H136.355ZM155.432 278L151.544 273.32L152.606 272.69L156.944 278H155.432ZM148.502 278V268.55H149.78V278H148.502ZM149.384 273.788V272.69H152.426V273.788H149.384ZM152.714 273.41L151.526 273.23L155.288 268.55H156.674L152.714 273.41ZM158.578 281.582C158.134 281.582 157.708 281.51 157.3 281.366C156.904 281.222 156.562 281.006 156.274 280.718L156.868 279.764C157.108 279.992 157.366 280.166 157.642 280.286C157.93 280.418 158.248 280.484 158.596 280.484C159.016 280.484 159.376 280.364 159.676 280.124C159.988 279.896 160.282 279.488 160.558 278.9L161.17 277.514L161.314 277.316L165.202 268.55H166.462L161.728 279.134C161.464 279.746 161.17 280.232 160.846 280.592C160.534 280.952 160.192 281.204 159.82 281.348C159.448 281.504 159.034 281.582 158.578 281.582ZM161.098 278.27L156.742 268.55H158.074L161.926 277.226L161.098 278.27ZM173.331 278.09C172.515 278.09 171.777 277.904 171.117 277.532C170.457 277.148 169.929 276.602 169.533 275.894C169.149 275.174 168.957 274.298 168.957 273.266C168.957 272.234 169.149 271.364 169.533 270.656C169.917 269.936 170.439 269.39 171.099 269.018C171.759 268.646 172.503 268.46 173.331 268.46C174.231 268.46 175.035 268.664 175.743 269.072C176.463 269.468 177.027 270.032 177.435 270.764C177.843 271.484 178.047 272.318 178.047 273.266C178.047 274.226 177.843 275.066 177.435 275.786C177.027 276.506 176.463 277.07 175.743 277.478C175.035 277.886 174.231 278.09 173.331 278.09ZM168.453 281.492V268.55H169.677V271.394L169.551 273.284L169.731 275.192V281.492H168.453ZM173.241 276.956C173.913 276.956 174.513 276.806 175.041 276.506C175.569 276.194 175.989 275.762 176.301 275.21C176.613 274.646 176.769 273.998 176.769 273.266C176.769 272.534 176.613 271.892 176.301 271.34C175.989 270.788 175.569 270.356 175.041 270.044C174.513 269.732 173.913 269.576 173.241 269.576C172.569 269.576 171.963 269.732 171.423 270.044C170.895 270.356 170.475 270.788 170.163 271.34C169.863 271.892 169.713 272.534 169.713 273.266C169.713 273.998 169.863 274.646 170.163 275.21C170.475 275.762 170.895 276.194 171.423 276.506C171.963 276.806 172.569 276.956 173.241 276.956ZM184.843 278.09C183.859 278.09 182.995 277.886 182.251 277.478C181.507 277.058 180.925 276.488 180.505 275.768C180.085 275.036 179.875 274.202 179.875 273.266C179.875 272.33 180.073 271.502 180.469 270.782C180.877 270.062 181.429 269.498 182.125 269.09C182.833 268.67 183.625 268.46 184.501 268.46C185.389 268.46 186.175 268.664 186.859 269.072C187.555 269.468 188.101 270.032 188.497 270.764C188.893 271.484 189.091 272.318 189.091 273.266C189.091 273.326 189.085 273.392 189.073 273.464C189.073 273.524 189.073 273.59 189.073 273.662H180.847V272.708H188.389L187.885 273.086C187.885 272.402 187.735 271.796 187.435 271.268C187.147 270.728 186.751 270.308 186.247 270.008C185.743 269.708 185.161 269.558 184.501 269.558C183.853 269.558 183.271 269.708 182.755 270.008C182.239 270.308 181.837 270.728 181.549 271.268C181.261 271.808 181.117 272.426 181.117 273.122V273.32C181.117 274.04 181.273 274.676 181.585 275.228C181.909 275.768 182.353 276.194 182.917 276.506C183.493 276.806 184.147 276.956 184.879 276.956C185.455 276.956 185.989 276.854 186.481 276.65C186.985 276.446 187.417 276.134 187.777 275.714L188.497 276.542C188.077 277.046 187.549 277.43 186.913 277.694C186.289 277.958 185.599 278.09 184.843 278.09ZM191.92 278V268.55H193.198V272.726H199.156V268.55H200.434V278H199.156V273.824H193.198V278H191.92ZM205.866 278V269.324L206.19 269.666H202.284V268.55H210.726V269.666H206.82L207.144 269.324V278H205.866ZM218.599 278V265.94L219.175 266.552H215.629V265.4H219.895V278H218.599Z" fill="#454545"/>
<rect x="237" y="265" width="14" height="14" rx="2" fill="#80DA39"/>
<path d="M270.746 278L265.904 271.718L266.984 271.07L272.276 278H270.746ZM262.124 278V265.4H263.42V278H262.124ZM263.024 272.222V271.052H266.966V272.222H263.024ZM267.092 271.844L265.868 271.628L270.566 265.4H272.006L267.092 271.844ZM277.8 278.09C276.888 278.09 276.066 277.886 275.334 277.478C274.614 277.058 274.044 276.488 273.624 275.768C273.204 275.036 272.994 274.202 272.994 273.266C272.994 272.318 273.204 271.484 273.624 270.764C274.044 270.044 274.614 269.48 275.334 269.072C276.054 268.664 276.876 268.46 277.8 268.46C278.736 268.46 279.564 268.664 280.284 269.072C281.016 269.48 281.586 270.044 281.994 270.764C282.414 271.484 282.624 272.318 282.624 273.266C282.624 274.202 282.414 275.036 281.994 275.768C281.586 276.488 281.016 277.058 280.284 277.478C279.552 277.886 278.724 278.09 277.8 278.09ZM277.8 276.956C278.484 276.956 279.09 276.806 279.618 276.506C280.146 276.194 280.56 275.762 280.86 275.21C281.172 274.646 281.328 273.998 281.328 273.266C281.328 272.522 281.172 271.874 280.86 271.322C280.56 270.77 280.146 270.344 279.618 270.044C279.09 269.732 278.49 269.576 277.818 269.576C277.146 269.576 276.546 269.732 276.018 270.044C275.49 270.344 275.07 270.77 274.758 271.322C274.446 271.874 274.29 272.522 274.29 273.266C274.29 273.998 274.446 274.646 274.758 275.21C275.07 275.762 275.49 276.194 276.018 276.506C276.546 276.806 277.14 276.956 277.8 276.956ZM285.355 278V268.55H286.633V272.726H292.591V268.55H293.869V278H292.591V273.824H286.633V278H285.355ZM304.432 278L300.544 273.32L301.606 272.69L305.944 278H304.432ZM297.502 278V268.55H298.78V278H297.502ZM298.384 273.788V272.69H301.426V273.788H298.384ZM301.714 273.41L300.526 273.23L304.288 268.55H305.674L301.714 273.41ZM307.578 281.582C307.134 281.582 306.708 281.51 306.3 281.366C305.904 281.222 305.562 281.006 305.274 280.718L305.868 279.764C306.108 279.992 306.366 280.166 306.642 280.286C306.93 280.418 307.248 280.484 307.596 280.484C308.016 280.484 308.376 280.364 308.676 280.124C308.988 279.896 309.282 279.488 309.558 278.9L310.17 277.514L310.314 277.316L314.202 268.55H315.462L310.728 279.134C310.464 279.746 310.17 280.232 309.846 280.592C309.534 280.952 309.192 281.204 308.82 281.348C308.448 281.504 308.034 281.582 307.578 281.582ZM310.098 278.27L305.742 268.55H307.074L310.926 277.226L310.098 278.27ZM322.331 278.09C321.515 278.09 320.777 277.904 320.117 277.532C319.457 277.148 318.929 276.602 318.533 275.894C318.149 275.174 317.957 274.298 317.957 273.266C317.957 272.234 318.149 271.364 318.533 270.656C318.917 269.936 319.439 269.39 320.099 269.018C320.759 268.646 321.503 268.46 322.331 268.46C323.231 268.46 324.035 268.664 324.743 269.072C325.463 269.468 326.027 270.032 326.435 270.764C326.843 271.484 327.047 272.318 327.047 273.266C327.047 274.226 326.843 275.066 326.435 275.786C326.027 276.506 325.463 277.07 324.743 277.478C324.035 277.886 323.231 278.09 322.331 278.09ZM317.453 281.492V268.55H318.677V271.394L318.551 273.284L318.731 275.192V281.492H317.453ZM322.241 276.956C322.913 276.956 323.513 276.806 324.041 276.506C324.569 276.194 324.989 275.762 325.301 275.21C325.613 274.646 325.769 273.998 325.769 273.266C325.769 272.534 325.613 271.892 325.301 271.34C324.989 270.788 324.569 270.356 324.041 270.044C323.513 269.732 322.913 269.576 322.241 269.576C321.569 269.576 320.963 269.732 320.423 270.044C319.895 270.356 319.475 270.788 319.163 271.34C318.863 271.892 318.713 272.534 318.713 273.266C318.713 273.998 318.863 274.646 319.163 275.21C319.475 275.762 319.895 276.194 320.423 276.506C320.963 276.806 321.569 276.956 322.241 276.956ZM333.843 278.09C332.859 278.09 331.995 277.886 331.251 277.478C330.507 277.058 329.925 276.488 329.505 275.768C329.085 275.036 328.875 274.202 328.875 273.266C328.875 272.33 329.073 271.502 329.469 270.782C329.877 270.062 330.429 269.498 331.125 269.09C331.833 268.67 332.625 268.46 333.501 268.46C334.389 268.46 335.175 268.664 335.859 269.072C336.555 269.468 337.101 270.032 337.497 270.764C337.893 271.484 338.091 272.318 338.091 273.266C338.091 273.326 338.085 273.392 338.073 273.464C338.073 273.524 338.073 273.59 338.073 273.662H329.847V272.708H337.389L336.885 273.086C336.885 272.402 336.735 271.796 336.435 271.268C336.147 270.728 335.751 270.308 335.247 270.008C334.743 269.708 334.161 269.558 333.501 269.558C332.853 269.558 332.271 269.708 331.755 270.008C331.239 270.308 330.837 270.728 330.549 271.268C330.261 271.808 330.117 272.426 330.117 273.122V273.32C330.117 274.04 330.273 274.676 330.585 275.228C330.909 275.768 331.353 276.194 331.917 276.506C332.493 276.806 333.147 276.956 333.879 276.956C334.455 276.956 334.989 276.854 335.481 276.65C335.985 276.446 336.417 276.134 336.777 275.714L337.497 276.542C337.077 277.046 336.549 277.43 335.913 277.694C335.289 277.958 334.599 278.09 333.843 278.09ZM340.92 278V268.55H342.198V272.726H348.156V268.55H349.434V278H348.156V273.824H342.198V278H340.92ZM354.866 278V269.324L355.19 269.666H351.284V268.55H359.726V269.666H355.82L356.144 269.324V278H354.866ZM365.169 278V277.082L370.407 271.952C370.887 271.484 371.247 271.076 371.487 270.728C371.727 270.368 371.889 270.032 371.973 269.72C372.057 269.408 372.099 269.114 372.099 268.838C372.099 268.106 371.847 267.53 371.343 267.11C370.851 266.69 370.119 266.48 369.147 266.48C368.403 266.48 367.743 266.594 367.167 266.822C366.603 267.05 366.117 267.404 365.709 267.884L364.791 267.092C365.283 266.516 365.913 266.072 366.681 265.76C367.449 265.448 368.307 265.292 369.255 265.292C370.107 265.292 370.845 265.43 371.469 265.706C372.093 265.97 372.573 266.36 372.909 266.876C373.257 267.392 373.431 267.998 373.431 268.694C373.431 269.102 373.371 269.504 373.251 269.9C373.143 270.296 372.939 270.716 372.639 271.16C372.351 271.592 371.925 272.084 371.361 272.636L366.555 277.352L366.195 276.848H374.007V278H365.169Z" fill="#454545"/>
<rect x="390" y="265" width="14" height="14" rx="2" fill="#0FA7F0"/>
<path d="M415.124 278V265.4H416.222L421.982 275.228H421.406L427.112 265.4H428.21V278H426.932V267.398H427.238L421.982 276.398H421.352L416.06 267.398H416.402V278H415.124ZM432.15 278V268.55H433.428V278H432.15ZM432.798 266.462C432.534 266.462 432.312 266.372 432.132 266.192C431.952 266.012 431.862 265.796 431.862 265.544C431.862 265.292 431.952 265.082 432.132 264.914C432.312 264.734 432.534 264.644 432.798 264.644C433.062 264.644 433.284 264.728 433.464 264.896C433.644 265.064 433.734 265.274 433.734 265.526C433.734 265.79 433.644 266.012 433.464 266.192C433.296 266.372 433.074 266.462 432.798 266.462ZM437.072 278V268.55H438.35V276.056L444.668 268.55H445.802V278H444.524V270.476L438.224 278H437.072ZM441.356 267.182C440.564 267.182 439.922 266.984 439.43 266.588C438.95 266.18 438.698 265.598 438.674 264.842H439.592C439.604 265.322 439.772 265.7 440.096 265.976C440.42 266.252 440.84 266.39 441.356 266.39C441.872 266.39 442.292 266.252 442.616 265.976C442.952 265.7 443.126 265.322 443.138 264.842H444.056C444.044 265.598 443.792 266.18 443.3 266.588C442.808 266.984 442.16 267.182 441.356 267.182ZM455.975 278V269.324L456.299 269.666H452.393V268.55H460.835V269.666H456.929L457.253 269.324V278H455.975ZM466.132 278.09C465.22 278.09 464.398 277.886 463.666 277.478C462.946 277.058 462.376 276.488 461.956 275.768C461.536 275.036 461.326 274.202 461.326 273.266C461.326 272.318 461.536 271.484 461.956 270.764C462.376 270.044 462.946 269.48 463.666 269.072C464.386 268.664 465.208 268.46 466.132 268.46C467.068 268.46 467.896 268.664 468.616 269.072C469.348 269.48 469.918 270.044 470.326 270.764C470.746 271.484 470.956 272.318 470.956 273.266C470.956 274.202 470.746 275.036 470.326 275.768C469.918 276.488 469.348 277.058 468.616 277.478C467.884 277.886 467.056 278.09 466.132 278.09ZM466.132 276.956C466.816 276.956 467.422 276.806 467.95 276.506C468.478 276.194 468.892 275.762 469.192 275.21C469.504 274.646 469.66 273.998 469.66 273.266C469.66 272.522 469.504 271.874 469.192 271.322C468.892 270.77 468.478 270.344 467.95 270.044C467.422 269.732 466.822 269.576 466.15 269.576C465.478 269.576 464.878 269.732 464.35 270.044C463.822 270.344 463.402 270.77 463.09 271.322C462.778 271.874 462.622 272.522 462.622 273.266C462.622 273.998 462.778 274.646 463.09 275.21C463.402 275.762 463.822 276.194 464.35 276.506C464.878 276.806 465.472 276.956 466.132 276.956ZM473.687 278V268.55H477.863C478.931 268.55 479.771 268.754 480.383 269.162C481.007 269.57 481.319 270.17 481.319 270.962C481.319 271.73 481.025 272.324 480.437 272.744C479.849 273.152 479.075 273.356 478.115 273.356L478.367 272.978C479.495 272.978 480.323 273.188 480.851 273.608C481.379 274.028 481.643 274.634 481.643 275.426C481.643 276.242 481.343 276.878 480.743 277.334C480.155 277.778 479.237 278 477.989 278H473.687ZM474.929 276.992H477.935C478.739 276.992 479.345 276.866 479.753 276.614C480.173 276.35 480.383 275.93 480.383 275.354C480.383 274.778 480.197 274.358 479.825 274.094C479.453 273.83 478.865 273.698 478.061 273.698H474.929V276.992ZM474.929 272.744H477.773C478.505 272.744 479.063 272.606 479.447 272.33C479.843 272.054 480.041 271.652 480.041 271.124C480.041 270.596 479.843 270.2 479.447 269.936C479.063 269.672 478.505 269.54 477.773 269.54H474.929V272.744ZM490.506 278V275.912L490.452 275.57V272.078C490.452 271.274 490.224 270.656 489.768 270.224C489.324 269.792 488.658 269.576 487.77 269.576C487.158 269.576 486.576 269.678 486.024 269.882C485.472 270.086 485.004 270.356 484.62 270.692L484.044 269.738C484.524 269.33 485.1 269.018 485.772 268.802C486.444 268.574 487.152 268.46 487.896 268.46C489.12 268.46 490.062 268.766 490.722 269.378C491.394 269.978 491.73 270.896 491.73 272.132V278H490.506ZM487.248 278.09C486.54 278.09 485.922 277.976 485.394 277.748C484.878 277.508 484.482 277.184 484.206 276.776C483.93 276.356 483.792 275.876 483.792 275.336C483.792 274.844 483.906 274.4 484.134 274.004C484.374 273.596 484.758 273.272 485.286 273.032C485.826 272.78 486.546 272.654 487.446 272.654H490.704V273.608H487.482C486.57 273.608 485.934 273.77 485.574 274.094C485.226 274.418 485.052 274.82 485.052 275.3C485.052 275.84 485.262 276.272 485.682 276.596C486.102 276.92 486.69 277.082 487.446 277.082C488.166 277.082 488.784 276.92 489.3 276.596C489.828 276.26 490.212 275.78 490.452 275.156L490.74 276.038C490.5 276.662 490.08 277.16 489.48 277.532C488.892 277.904 488.148 278.09 487.248 278.09ZM500.01 278.09C499.194 278.09 498.456 277.904 497.796 277.532C497.136 277.148 496.608 276.602 496.212 275.894C495.828 275.174 495.636 274.298 495.636 273.266C495.636 272.234 495.828 271.364 496.212 270.656C496.596 269.936 497.118 269.39 497.778 269.018C498.438 268.646 499.182 268.46 500.01 268.46C500.91 268.46 501.714 268.664 502.422 269.072C503.142 269.468 503.706 270.032 504.114 270.764C504.522 271.484 504.726 272.318 504.726 273.266C504.726 274.226 504.522 275.066 504.114 275.786C503.706 276.506 503.142 277.07 502.422 277.478C501.714 277.886 500.91 278.09 500.01 278.09ZM495.132 281.492V268.55H496.356V271.394L496.23 273.284L496.41 275.192V281.492H495.132ZM499.92 276.956C500.592 276.956 501.192 276.806 501.72 276.506C502.248 276.194 502.668 275.762 502.98 275.21C503.292 274.646 503.448 273.998 503.448 273.266C503.448 272.534 503.292 271.892 502.98 271.34C502.668 270.788 502.248 270.356 501.72 270.044C501.192 269.732 500.592 269.576 499.92 269.576C499.248 269.576 498.642 269.732 498.102 270.044C497.574 270.356 497.154 270.788 496.842 271.34C496.542 271.892 496.392 272.534 496.392 273.266C496.392 273.998 496.542 274.646 496.842 275.21C497.154 275.762 497.574 276.194 498.102 276.506C498.642 276.806 499.248 276.956 499.92 276.956Z" fill="#454545"/>
<path d="M39.6597 122.712C39.6597 121.848 40.0377 121.104 40.7937 120.48C41.5497 119.856 42.6597 119.544 44.1237 119.544C45.4797 119.544 46.5717 119.874 47.3997 120.534C48.2277 121.194 48.6537 121.986 48.6777 122.91C48.7137 124.17 48.1557 125.202 47.0037 126.006C48.4077 126.702 49.1097 127.662 49.1097 128.886C49.1097 129.822 48.6957 130.614 47.8677 131.262C47.0517 131.898 45.8397 132.216 44.2317 132.216C42.6357 132.216 41.3997 131.868 40.5237 131.172C39.6597 130.476 39.2277 129.63 39.2277 128.634C39.2277 128.034 39.4017 127.44 39.7497 126.852C40.1097 126.252 40.6317 125.748 41.3157 125.34C40.2117 124.668 39.6597 123.792 39.6597 122.712ZM44.3037 126.492C43.6797 126.324 43.1097 126.144 42.5937 125.952C41.9937 126.24 41.5317 126.612 41.2077 127.068C40.8957 127.524 40.7397 127.992 40.7397 128.472C40.7397 129.204 41.0397 129.78 41.6397 130.2C42.2517 130.608 43.1277 130.812 44.2677 130.812C45.2277 130.812 46.0197 130.644 46.6437 130.308C47.2797 129.96 47.5977 129.51 47.5977 128.958C47.5977 128.49 47.4297 128.094 47.0937 127.77C46.7697 127.434 46.4517 127.206 46.1397 127.086C45.8277 126.966 45.3117 126.798 44.5917 126.582C44.4597 126.546 44.3637 126.516 44.3037 126.492ZM47.1657 123.18C47.1657 122.544 46.8957 122.016 46.3557 121.596C45.8157 121.164 45.0597 120.948 44.0877 120.948C43.1997 120.948 42.4917 121.116 41.9637 121.452C41.4357 121.776 41.1717 122.19 41.1717 122.694C41.1717 123.042 41.2437 123.348 41.3877 123.612C41.5437 123.864 41.7717 124.08 42.0717 124.26C42.3837 124.428 42.6657 124.566 42.9177 124.674C43.1697 124.77 43.5057 124.878 43.9257 124.998C43.9737 125.01 44.0097 125.022 44.0337 125.034C44.0577 125.034 44.0877 125.04 44.1237 125.052C44.1597 125.064 44.1957 125.076 44.2317 125.088C44.2677 125.1 44.4717 125.16 44.8437 125.268C45.2277 125.364 45.5217 125.442 45.7257 125.502C46.6857 124.878 47.1657 124.104 47.1657 123.18Z" fill="#454545"/>
<path d="M39.5219 63.558C39.5219 62.298 39.9359 61.314 40.7639 60.606C41.6039 59.898 42.6539 59.544 43.9139 59.544C45.6419 59.544 46.9319 60.084 47.7839 61.164C48.6479 62.232 49.0799 63.738 49.0799 65.682C49.0799 67.842 48.5639 69.474 47.5319 70.578C46.5119 71.67 45.1739 72.216 43.5179 72.216C42.4499 72.216 41.4599 71.982 40.5479 71.514V70.074C41.4359 70.542 42.4139 70.776 43.4819 70.776C44.6099 70.776 45.5459 70.416 46.2899 69.696C47.0459 68.964 47.4659 67.806 47.5499 66.222C46.3739 67.002 45.0959 67.392 43.7159 67.392C42.5999 67.392 41.6219 67.056 40.7819 66.384C39.9419 65.7 39.5219 64.758 39.5219 63.558ZM44.0219 60.948C43.1339 60.948 42.4139 61.152 41.8619 61.56C41.3219 61.968 41.0519 62.61 41.0519 63.486C41.0519 64.374 41.3339 65.016 41.8979 65.412C42.4619 65.796 43.1939 65.988 44.0939 65.988C45.4259 65.988 46.5719 65.562 47.5319 64.71C47.3039 62.202 46.1339 60.948 44.0219 60.948Z" fill="#454545"/>
<path d="M40.8005 177.76H49.6205V179.128L44.5085 190H42.8885L47.9645 179.2H40.8005V177.76Z" fill="#454545"/>
<path d="M66.5 215.5H111.5L139.5 187.5H161.5L210.5 138.5H236.5L280 95H318.5L348 65.5H414.5L432 48H501H569" stroke="#F28100" stroke-width="2"/>
<path d="M66.5 201.5H91.5L106 187L119 174H211L222.5 162.5H244L261.5 145H293L327 111H381L394 124H422.5L435.5 111H469.5L489 130.5L529 90.5H569.5" stroke="#80DA39" stroke-width="2"/>
<path d="M66.5 167H92L99 160H208.5L223 145.5H263.5L274.5 156.5H338L349 145.5H400L409.5 136H431H460L472.5 148.5H501.5L514 136H568" stroke="#0FA7F0" stroke-width="2"/>
</svg>
