<svg width="508" height="276" viewBox="0 0 508 276" fill="none" xmlns="http://www.w3.org/2000/svg">
<path d="M0 5C0 2.23858 2.23858 0 5 0H151C153.761 0 156 2.23858 156 5V40H0V5Z" fill="#37376D"/>
<rect x="0.5" y="40.5" width="155" height="39" stroke="#DDDDE6"/>
<rect x="0.5" y="79.5" width="155" height="39" fill="#F9F9FB" stroke="#DDDDE6"/>
<rect x="0.5" y="118.5" width="155" height="39" stroke="#DDDDE6"/>
<rect x="0.5" y="157.5" width="155" height="39" fill="#F9F9FB" stroke="#DDDDE6"/>
<path d="M0.5 196.5H155.5V231C155.5 233.485 153.485 235.5 151 235.5H5C2.51472 235.5 0.5 233.485 0.5 231V196.5Z" stroke="#DDDDE6"/>
<path d="M18.168 26V14.84H25.422V26H26.934V13.4H16.656V26H18.168ZM31.2159 18.8V17.36H29.9199V29.96H31.3599V24.704C31.9899 25.442 33.0519 26.216 34.7079 26.216C37.1739 26.216 39.0279 24.272 39.0279 21.68C39.0279 19.088 37.1739 17.144 34.7079 17.144C33.0519 17.144 31.9899 17.918 31.2159 18.8ZM37.5879 21.68C37.5879 23.66 36.2199 24.884 34.5459 24.884C32.9979 24.884 31.8459 23.876 31.3599 22.76V20.6C31.8459 19.484 32.9979 18.476 34.5459 18.476C36.2199 18.476 37.5879 19.7 37.5879 21.68ZM40.5056 21.68C40.5056 24.632 42.7736 26.216 45.1136 26.216C47.4716 26.216 49.7216 24.632 49.7216 21.68C49.7216 18.728 47.4716 17.144 45.1136 17.144C42.7736 17.144 40.5056 18.728 40.5056 21.68ZM48.2816 21.68C48.2816 23.678 46.8776 24.848 45.1136 24.848C43.3496 24.848 41.9456 23.678 41.9456 21.68C41.9456 19.682 43.3496 18.512 45.1136 18.512C46.8776 18.512 48.2816 19.682 48.2816 21.68ZM53.2271 26V18.692H58.2311V26H59.6711V17.36H51.7871V26H53.2271ZM61.74 21.68C61.74 24.632 64.008 26.216 66.348 26.216C68.706 26.216 70.956 24.632 70.956 21.68C70.956 18.728 68.706 17.144 66.348 17.144C64.008 17.144 61.74 18.728 61.74 21.68ZM69.516 21.68C69.516 23.678 68.112 24.848 66.348 24.848C64.584 24.848 63.18 23.678 63.18 21.68C63.18 19.682 64.584 18.512 66.348 18.512C68.112 18.512 69.516 19.682 69.516 21.68ZM79.3428 23.678C79.3428 22.562 78.5328 21.824 77.5608 21.572C78.5328 21.356 79.1628 20.672 79.1628 19.628C79.1628 18.116 77.9208 17.126 75.5088 17.126C74.3568 17.126 73.2768 17.396 72.4128 17.792V19.142C73.2048 18.746 74.3208 18.458 75.3468 18.458C76.6968 18.458 77.7228 18.872 77.7228 19.826C77.7228 20.654 76.9668 20.942 75.9948 20.942H74.1048V22.274H75.9948C76.8588 22.274 77.9028 22.454 77.9028 23.516C77.9028 24.632 76.6428 24.884 75.2748 24.884C74.2308 24.884 73.0068 24.578 72.2688 24.182V25.55C73.0788 25.946 74.2308 26.216 75.4548 26.216C77.8488 26.216 79.3428 25.316 79.3428 23.678ZM82.683 26L87.975 19.682V26H89.415V17.36H88.191L82.899 23.678V17.36H81.459V26H82.683ZM100.968 28.34V24.668H99.6901V17.36H98.2501V24.668H93.5161V17.36H92.0761V26H99.5641V28.34H100.968ZM104.666 26H103.084V16.3496H104.666V26ZM102.961 13.7393C102.961 13.3877 103.049 13.1328 103.225 12.9746C103.406 12.8164 103.629 12.7373 103.893 12.7373C104.139 12.7373 104.353 12.8164 104.534 12.9746C104.722 13.1328 104.815 13.3877 104.815 13.7393C104.815 14.085 104.722 14.3398 104.534 14.5039C104.353 14.668 104.139 14.75 103.893 14.75C103.629 14.75 103.406 14.668 103.225 14.5039C103.049 14.3398 102.961 14.085 102.961 13.7393ZM114.025 15.272V13.976C113.125 14.57 112.387 14.768 111.505 14.768C110.623 14.768 109.885 14.57 108.985 13.976V15.272C109.795 15.848 110.641 16.028 111.505 16.028C112.369 16.028 113.215 15.848 114.025 15.272ZM108.751 26L114.043 19.682V26H115.483V17.36H114.259L108.967 23.678V17.36H107.527V26H108.751Z" fill="white"/>
<path d="M18.924 53.76H20.04V64.56H22.326V66H15.954V64.56H18.528V55.362L15.954 56.334V54.894L18.924 53.76ZM25.0204 64.47C24.1084 63.306 23.6524 61.776 23.6524 59.88C23.6524 57.984 24.1084 56.454 25.0204 55.29C25.9324 54.126 27.2764 53.544 29.0524 53.544C30.8404 53.544 32.1904 54.126 33.1024 55.29C34.0144 56.442 34.4704 57.972 34.4704 59.88C34.4704 61.788 34.0144 63.324 33.1024 64.488C32.1904 65.64 30.8404 66.216 29.0524 66.216C27.2764 66.216 25.9324 65.634 25.0204 64.47ZM31.9684 63.516C32.6164 62.664 32.9404 61.452 32.9404 59.88C32.9404 58.308 32.6164 57.102 31.9684 56.262C31.3324 55.41 30.3604 54.984 29.0524 54.984C27.7444 54.984 26.7724 55.41 26.1364 56.262C25.5004 57.102 25.1824 58.308 25.1824 59.88C25.1824 61.452 25.5004 62.664 26.1364 63.516C26.7724 64.356 27.7444 64.776 29.0524 64.776C30.3604 64.776 31.3324 64.356 31.9684 63.516Z" fill="#37376D"/>
<path d="M18.924 92.76H20.04V103.56H22.326V105H15.954V103.56H18.528V94.362L15.954 95.334V93.894L18.924 92.76ZM23.4184 96.558C23.4184 95.298 23.8324 94.314 24.6604 93.606C25.5004 92.898 26.5504 92.544 27.8104 92.544C29.5384 92.544 30.8284 93.084 31.6804 94.164C32.5444 95.232 32.9764 96.738 32.9764 98.682C32.9764 100.842 32.4604 102.474 31.4284 103.578C30.4084 104.67 29.0704 105.216 27.4144 105.216C26.3464 105.216 25.3564 104.982 24.4444 104.514V103.074C25.3324 103.542 26.3104 103.776 27.3784 103.776C28.5064 103.776 29.4424 103.416 30.1864 102.696C30.9424 101.964 31.3624 100.806 31.4464 99.222C30.2704 100.002 28.9924 100.392 27.6124 100.392C26.4964 100.392 25.5184 100.056 24.6784 99.384C23.8384 98.7 23.4184 97.758 23.4184 96.558ZM27.9184 93.948C27.0304 93.948 26.3104 94.152 25.7584 94.56C25.2184 94.968 24.9484 95.61 24.9484 96.486C24.9484 97.374 25.2304 98.016 25.7944 98.412C26.3584 98.796 27.0904 98.988 27.9904 98.988C29.3224 98.988 30.4684 98.562 31.4284 97.71C31.2004 95.202 30.0304 93.948 27.9184 93.948Z" fill="#37376D"/>
<path d="M16.314 134.712C16.314 133.848 16.692 133.104 17.448 132.48C18.204 131.856 19.314 131.544 20.778 131.544C22.134 131.544 23.226 131.874 24.054 132.534C24.882 133.194 25.308 133.986 25.332 134.91C25.368 136.17 24.81 137.202 23.658 138.006C25.062 138.702 25.764 139.662 25.764 140.886C25.764 141.822 25.35 142.614 24.522 143.262C23.706 143.898 22.494 144.216 20.886 144.216C19.29 144.216 18.054 143.868 17.178 143.172C16.314 142.476 15.882 141.63 15.882 140.634C15.882 140.034 16.056 139.44 16.404 138.852C16.764 138.252 17.286 137.748 17.97 137.34C16.866 136.668 16.314 135.792 16.314 134.712ZM20.958 138.492C20.334 138.324 19.764 138.144 19.248 137.952C18.648 138.24 18.186 138.612 17.862 139.068C17.55 139.524 17.394 139.992 17.394 140.472C17.394 141.204 17.694 141.78 18.294 142.2C18.906 142.608 19.782 142.812 20.922 142.812C21.882 142.812 22.674 142.644 23.298 142.308C23.934 141.96 24.252 141.51 24.252 140.958C24.252 140.49 24.084 140.094 23.748 139.77C23.424 139.434 23.106 139.206 22.794 139.086C22.482 138.966 21.966 138.798 21.246 138.582C21.114 138.546 21.018 138.516 20.958 138.492ZM23.82 135.18C23.82 134.544 23.55 134.016 23.01 133.596C22.47 133.164 21.714 132.948 20.742 132.948C19.854 132.948 19.146 133.116 18.618 133.452C18.09 133.776 17.826 134.19 17.826 134.694C17.826 135.042 17.898 135.348 18.042 135.612C18.198 135.864 18.426 136.08 18.726 136.26C19.038 136.428 19.32 136.566 19.572 136.674C19.824 136.77 20.16 136.878 20.58 136.998C20.628 137.01 20.664 137.022 20.688 137.034C20.712 137.034 20.742 137.04 20.778 137.052C20.814 137.064 20.85 137.076 20.886 137.088C20.922 137.1 21.126 137.16 21.498 137.268C21.882 137.364 22.176 137.442 22.38 137.502C23.34 136.878 23.82 136.104 23.82 135.18Z" fill="#37376D"/>
<path d="M18.924 170.76H20.04V181.56H22.326V183H15.954V181.56H18.528V172.362L15.954 173.334V171.894L18.924 170.76ZM23.4184 174.558C23.4184 173.298 23.8324 172.314 24.6604 171.606C25.5004 170.898 26.5504 170.544 27.8104 170.544C29.5384 170.544 30.8284 171.084 31.6804 172.164C32.5444 173.232 32.9764 174.738 32.9764 176.682C32.9764 178.842 32.4604 180.474 31.4284 181.578C30.4084 182.67 29.0704 183.216 27.4144 183.216C26.3464 183.216 25.3564 182.982 24.4444 182.514V181.074C25.3324 181.542 26.3104 181.776 27.3784 181.776C28.5064 181.776 29.4424 181.416 30.1864 180.696C30.9424 179.964 31.3624 178.806 31.4464 177.222C30.2704 178.002 28.9924 178.392 27.6124 178.392C26.4964 178.392 25.5184 178.056 24.6784 177.384C23.8384 176.7 23.4184 175.758 23.4184 174.558ZM27.9184 171.948C27.0304 171.948 26.3104 172.152 25.7584 172.56C25.2184 172.968 24.9484 173.61 24.9484 174.486C24.9484 175.374 25.2304 176.016 25.7944 176.412C26.3584 176.796 27.0904 176.988 27.9904 176.988C29.3224 176.988 30.4684 176.562 31.4284 175.71C31.2004 173.202 30.0304 171.948 27.9184 171.948Z" fill="#37376D"/>
<path d="M22.128 209.76H23.766V217.878H26.07V219.282H23.766V222H22.272V219.282H15.45V217.932L22.128 209.76ZM22.272 217.878V211.794L17.304 217.878H22.272Z" fill="#37376D"/>
<path d="M176 45C176 42.2386 178.239 40 181 40H327C329.761 40 332 42.2386 332 45V80H176V45Z" fill="#37376D"/>
<rect x="176.5" y="80.5" width="155" height="39" stroke="#DDDDE6"/>
<rect x="176.5" y="119.5" width="155" height="39" fill="#F9F9FB" stroke="#DDDDE6"/>
<rect x="176.5" y="158.5" width="155" height="39" stroke="#DDDDE6"/>
<rect x="176.5" y="197.5" width="155" height="39" fill="#F9F9FB" stroke="#DDDDE6"/>
<path d="M176.5 236.5H331.5V271C331.5 273.485 329.485 275.5 327 275.5H181C178.515 275.5 176.5 273.485 176.5 271V236.5Z" stroke="#DDDDE6"/>
<path d="M204.356 53.4L199.154 61.176L193.952 53.4H192.656V66H194.168V56.262L198.686 63.03H199.622L204.14 56.262V66H205.652V53.4H204.356ZM210.121 66V57.36H208.681V66H210.121ZM210.337 54.606C210.337 54.012 209.905 53.688 209.401 53.688C208.897 53.688 208.465 54.012 208.465 54.606C208.465 55.218 208.897 55.524 209.401 55.524C209.905 55.524 210.337 55.218 210.337 54.606ZM214.124 58.638V57.36H212.828V66H214.268V60.204C214.844 59.34 215.798 58.476 217.076 58.476C218.408 58.476 219.398 59.232 219.398 60.852V66H220.838V60.672C220.838 58.566 219.308 57.144 217.238 57.144C215.852 57.144 214.7 57.882 214.124 58.638ZM236.767 68.34V64.668H235.489V57.36H234.049V64.668H229.315V57.36H227.875V66H235.363V68.34H236.767ZM240.465 66H238.883V56.3496H240.465V66ZM238.76 53.7393C238.76 53.3877 238.848 53.1328 239.023 52.9746C239.205 52.8164 239.428 52.7373 239.691 52.7373C239.938 52.7373 240.151 52.8164 240.333 52.9746C240.521 53.1328 240.614 53.3877 240.614 53.7393C240.614 54.085 240.521 54.3398 240.333 54.5039C240.151 54.668 239.938 54.75 239.691 54.75C239.428 54.75 239.205 54.668 239.023 54.5039C238.848 54.3398 238.76 54.085 238.76 53.7393ZM244.766 66V62.346H249.77V66H251.21V57.36H249.77V61.014H244.766V57.36H243.326V66H244.766ZM260.893 64.2V60.816C260.893 58.404 259.435 57.144 257.131 57.144C255.709 57.144 254.521 57.486 253.837 57.72V59.124C254.593 58.8 255.655 58.476 256.987 58.476C258.571 58.476 259.453 59.34 259.453 60.636V60.942C258.733 60.78 257.815 60.672 257.059 60.672C255.205 60.672 253.153 61.356 253.153 63.588C253.153 65.406 254.665 66.216 256.195 66.216C257.599 66.216 258.697 65.784 259.561 65.064C259.813 65.82 260.443 66.108 261.145 66.108C261.505 66.108 261.883 66.036 262.225 65.91V64.74C262.009 64.812 261.775 64.866 261.559 64.866C261.181 64.866 260.893 64.722 260.893 64.2ZM254.629 63.516C254.629 62.256 255.997 61.878 257.257 61.878C257.959 61.878 258.841 62.004 259.453 62.13V63.714C258.697 64.524 257.599 64.974 256.501 64.974C255.547 64.974 254.629 64.524 254.629 63.516Z" fill="white"/>
<path d="M198.128 93.76H199.766V101.878H202.07V103.282H199.766V106H198.272V103.282H191.45V101.932L198.128 93.76ZM198.272 101.878V95.794L193.304 101.878H198.272ZM202.683 93.76H211.503V95.128L206.391 106H204.771L209.847 95.2H202.683V93.76ZM214.349 99.538C215.513 98.758 216.791 98.368 218.183 98.368C219.299 98.368 220.277 98.71 221.117 99.394C221.957 100.066 222.377 101.002 222.377 102.202C222.377 103.462 221.957 104.446 221.117 105.154C220.289 105.862 219.245 106.216 217.985 106.216C216.257 106.216 214.961 105.682 214.097 104.614C213.245 103.534 212.819 102.022 212.819 100.078C212.819 97.918 213.329 96.292 214.349 95.2C215.381 94.096 216.725 93.544 218.381 93.544C219.449 93.544 220.439 93.778 221.351 94.246V95.686C220.463 95.218 219.485 94.984 218.417 94.984C217.289 94.984 216.347 95.35 215.591 96.082C214.847 96.802 214.433 97.954 214.349 99.538ZM214.367 101.05C214.595 103.558 215.765 104.812 217.877 104.812C218.765 104.812 219.479 104.608 220.019 104.2C220.571 103.792 220.847 103.15 220.847 102.274C220.847 101.386 220.565 100.75 220.001 100.366C219.437 99.97 218.705 99.772 217.805 99.772C216.473 99.772 215.327 100.198 214.367 101.05ZM225.529 99.538C226.693 98.758 227.971 98.368 229.363 98.368C230.479 98.368 231.457 98.71 232.297 99.394C233.137 100.066 233.557 101.002 233.557 102.202C233.557 103.462 233.137 104.446 232.297 105.154C231.469 105.862 230.425 106.216 229.165 106.216C227.437 106.216 226.141 105.682 225.277 104.614C224.425 103.534 223.999 102.022 223.999 100.078C223.999 97.918 224.509 96.292 225.529 95.2C226.561 94.096 227.905 93.544 229.561 93.544C230.629 93.544 231.619 93.778 232.531 94.246V95.686C231.643 95.218 230.665 94.984 229.597 94.984C228.469 94.984 227.527 95.35 226.771 96.082C226.027 96.802 225.613 97.954 225.529 99.538ZM225.547 101.05C225.775 103.558 226.945 104.812 229.057 104.812C229.945 104.812 230.659 104.608 231.199 104.2C231.751 103.792 232.027 103.15 232.027 102.274C232.027 101.386 231.745 100.75 231.181 100.366C230.617 99.97 229.885 99.772 228.985 99.772C227.653 99.772 226.507 100.198 225.547 101.05ZM236.641 104.578C236.821 104.734 236.911 104.956 236.911 105.244C236.911 105.532 236.821 105.76 236.641 105.928C236.461 106.084 236.239 106.162 235.975 106.162C235.711 106.162 235.483 106.084 235.291 105.928C235.111 105.76 235.021 105.532 235.021 105.244C235.021 104.956 235.111 104.734 235.291 104.578C235.483 104.422 235.711 104.344 235.975 104.344C236.239 104.344 236.461 104.422 236.641 104.578ZM244.763 93.76H246.401V101.878H248.705V103.282H246.401V106H244.907V103.282H238.085V101.932L244.763 93.76ZM244.907 101.878V95.794L239.939 101.878H244.907ZM251.522 104.47C250.61 103.306 250.154 101.776 250.154 99.88C250.154 97.984 250.61 96.454 251.522 95.29C252.434 94.126 253.778 93.544 255.554 93.544C257.342 93.544 258.692 94.126 259.604 95.29C260.516 96.442 260.972 97.972 260.972 99.88C260.972 101.788 260.516 103.324 259.604 104.488C258.692 105.64 257.342 106.216 255.554 106.216C253.778 106.216 252.434 105.634 251.522 104.47ZM258.47 103.516C259.118 102.664 259.442 101.452 259.442 99.88C259.442 98.308 259.118 97.102 258.47 96.262C257.834 95.41 256.862 94.984 255.554 94.984C254.246 94.984 253.274 95.41 252.638 96.262C252.002 97.102 251.684 98.308 251.684 99.88C251.684 101.452 252.002 102.664 252.638 103.516C253.274 104.356 254.246 104.776 255.554 104.776C256.862 104.776 257.834 104.356 258.47 103.516Z" fill="#37376D"/>
<path d="M192.224 133.732C193.364 132.94 194.672 132.544 196.148 132.544C197.42 132.544 198.434 132.832 199.19 133.408C199.946 133.984 200.324 134.788 200.324 135.82C200.324 136.312 200.228 136.774 200.036 137.206C199.856 137.638 199.58 138.034 199.208 138.394C198.848 138.754 198.494 139.06 198.146 139.312C197.81 139.552 197.384 139.822 196.868 140.122C196.808 140.158 196.622 140.266 196.31 140.446C196.01 140.626 195.818 140.74 195.734 140.788C195.662 140.836 195.494 140.944 195.23 141.112C194.978 141.268 194.81 141.382 194.726 141.454C194.654 141.526 194.522 141.64 194.33 141.796C194.15 141.952 194.024 142.084 193.952 142.192C193.892 142.3 193.808 142.438 193.7 142.606C193.604 142.762 193.538 142.918 193.502 143.074C193.466 143.23 193.448 143.398 193.448 143.578L200.414 143.56V145H191.792V144.28C191.792 143.608 191.9 143.002 192.116 142.462C192.332 141.91 192.638 141.442 193.034 141.058C193.442 140.662 193.844 140.332 194.24 140.068C194.636 139.792 195.098 139.498 195.626 139.186C195.746 139.126 195.836 139.078 195.896 139.042C196.988 138.406 197.702 137.92 198.038 137.584C198.554 137.056 198.812 136.462 198.812 135.802C198.812 135.202 198.566 134.746 198.074 134.434C197.594 134.11 196.91 133.948 196.022 133.948C194.726 133.948 193.46 134.38 192.224 135.244V133.732ZM205.26 132.76H206.376V143.56H208.662V145H202.29V143.56H204.864V134.362L202.29 135.334V133.894L205.26 132.76ZM210.762 132.76H218.106V134.2H212.184L211.968 137.656C212.616 137.476 213.312 137.386 214.056 137.386C214.668 137.386 215.238 137.458 215.766 137.602C216.294 137.734 216.78 137.95 217.224 138.25C217.68 138.538 218.04 138.946 218.304 139.474C218.568 139.99 218.7 140.602 218.7 141.31C218.7 142.522 218.25 143.476 217.35 144.172C216.462 144.868 215.328 145.216 213.948 145.216C212.46 145.216 211.152 144.94 210.024 144.388V142.948C211.104 143.524 212.352 143.812 213.768 143.812C214.8 143.812 215.622 143.596 216.234 143.164C216.858 142.732 217.17 142.114 217.17 141.31C217.17 139.606 215.958 138.754 213.534 138.754C212.478 138.754 211.422 138.946 210.366 139.33L210.762 132.76ZM221.96 138.538C223.124 137.758 224.402 137.368 225.794 137.368C226.91 137.368 227.888 137.71 228.728 138.394C229.568 139.066 229.988 140.002 229.988 141.202C229.988 142.462 229.568 143.446 228.728 144.154C227.9 144.862 226.856 145.216 225.596 145.216C223.868 145.216 222.572 144.682 221.708 143.614C220.856 142.534 220.43 141.022 220.43 139.078C220.43 136.918 220.94 135.292 221.96 134.2C222.992 133.096 224.336 132.544 225.992 132.544C227.06 132.544 228.05 132.778 228.962 133.246V134.686C228.074 134.218 227.096 133.984 226.028 133.984C224.9 133.984 223.958 134.35 223.202 135.082C222.458 135.802 222.044 136.954 221.96 138.538ZM221.978 140.05C222.206 142.558 223.376 143.812 225.488 143.812C226.376 143.812 227.09 143.608 227.63 143.2C228.182 142.792 228.458 142.15 228.458 141.274C228.458 140.386 228.176 139.75 227.612 139.366C227.048 138.97 226.316 138.772 225.416 138.772C224.084 138.772 222.938 139.198 221.978 140.05ZM233.073 143.578C233.253 143.734 233.343 143.956 233.343 144.244C233.343 144.532 233.253 144.76 233.073 144.928C232.893 145.084 232.671 145.162 232.407 145.162C232.143 145.162 231.915 145.084 231.723 144.928C231.543 144.76 231.453 144.532 231.453 144.244C231.453 143.956 231.543 143.734 231.723 143.578C231.915 143.422 232.143 143.344 232.407 143.344C232.671 143.344 232.893 143.422 233.073 143.578ZM241.194 132.76H242.832V140.878H245.136V142.282H242.832V145H241.338V142.282H234.516V140.932L241.194 132.76ZM241.338 140.878V134.794L236.37 140.878H241.338ZM247.954 143.47C247.042 142.306 246.586 140.776 246.586 138.88C246.586 136.984 247.042 135.454 247.954 134.29C248.866 133.126 250.21 132.544 251.986 132.544C253.774 132.544 255.124 133.126 256.036 134.29C256.948 135.442 257.404 136.972 257.404 138.88C257.404 140.788 256.948 142.324 256.036 143.488C255.124 144.64 253.774 145.216 251.986 145.216C250.21 145.216 248.866 144.634 247.954 143.47ZM254.902 142.516C255.55 141.664 255.874 140.452 255.874 138.88C255.874 137.308 255.55 136.102 254.902 135.262C254.266 134.41 253.294 133.984 251.986 133.984C250.678 133.984 249.706 134.41 249.07 135.262C248.434 136.102 248.116 137.308 248.116 138.88C248.116 140.452 248.434 141.664 249.07 142.516C249.706 143.356 250.678 143.776 251.986 143.776C253.294 143.776 254.266 143.356 254.902 142.516Z" fill="#37376D"/>
<path d="M198.128 171.76H199.766V179.878H202.07V181.282H199.766V184H198.272V181.282H191.45V179.932L198.128 171.76ZM198.272 179.878V173.794L193.304 179.878H198.272ZM203.826 172.732C204.966 171.94 206.274 171.544 207.75 171.544C209.022 171.544 210.036 171.832 210.792 172.408C211.548 172.984 211.926 173.788 211.926 174.82C211.926 175.312 211.83 175.774 211.638 176.206C211.458 176.638 211.182 177.034 210.81 177.394C210.45 177.754 210.096 178.06 209.748 178.312C209.412 178.552 208.986 178.822 208.47 179.122C208.41 179.158 208.224 179.266 207.912 179.446C207.612 179.626 207.42 179.74 207.336 179.788C207.264 179.836 207.096 179.944 206.832 180.112C206.58 180.268 206.412 180.382 206.328 180.454C206.256 180.526 206.124 180.64 205.932 180.796C205.752 180.952 205.626 181.084 205.554 181.192C205.494 181.3 205.41 181.438 205.302 181.606C205.206 181.762 205.14 181.918 205.104 182.074C205.068 182.23 205.05 182.398 205.05 182.578L212.016 182.56V184H203.394V183.28C203.394 182.608 203.502 182.002 203.718 181.462C203.934 180.91 204.24 180.442 204.636 180.058C205.044 179.662 205.446 179.332 205.842 179.068C206.238 178.792 206.7 178.498 207.228 178.186C207.348 178.126 207.438 178.078 207.498 178.042C208.59 177.406 209.304 176.92 209.64 176.584C210.156 176.056 210.414 175.462 210.414 174.802C210.414 174.202 210.168 173.746 209.676 173.434C209.196 173.11 208.512 172.948 207.624 172.948C206.328 172.948 205.062 173.38 203.826 174.244V172.732ZM216.862 171.76H217.978V182.56H220.264V184H213.892V182.56H216.466V173.362L213.892 174.334V172.894L216.862 171.76ZM222.364 171.76H229.708V173.2H223.786L223.57 176.656C224.218 176.476 224.914 176.386 225.658 176.386C226.27 176.386 226.84 176.458 227.368 176.602C227.896 176.734 228.382 176.95 228.826 177.25C229.282 177.538 229.642 177.946 229.906 178.474C230.17 178.99 230.302 179.602 230.302 180.31C230.302 181.522 229.852 182.476 228.952 183.172C228.064 183.868 226.93 184.216 225.55 184.216C224.062 184.216 222.754 183.94 221.626 183.388V181.948C222.706 182.524 223.954 182.812 225.37 182.812C226.402 182.812 227.224 182.596 227.836 182.164C228.46 181.732 228.772 181.114 228.772 180.31C228.772 178.606 227.56 177.754 225.136 177.754C224.08 177.754 223.024 177.946 221.968 178.33L222.364 171.76ZM233.442 182.578C233.622 182.734 233.712 182.956 233.712 183.244C233.712 183.532 233.622 183.76 233.442 183.928C233.262 184.084 233.04 184.162 232.776 184.162C232.512 184.162 232.284 184.084 232.092 183.928C231.912 183.76 231.822 183.532 231.822 183.244C231.822 182.956 231.912 182.734 232.092 182.578C232.284 182.422 232.512 182.344 232.776 182.344C233.04 182.344 233.262 182.422 233.442 182.578ZM241.564 171.76H243.202V179.878H245.506V181.282H243.202V184H241.708V181.282H234.886V179.932L241.564 171.76ZM241.708 179.878V173.794L236.74 179.878H241.708ZM248.323 182.47C247.411 181.306 246.955 179.776 246.955 177.88C246.955 175.984 247.411 174.454 248.323 173.29C249.235 172.126 250.579 171.544 252.355 171.544C254.143 171.544 255.493 172.126 256.405 173.29C257.317 174.442 257.773 175.972 257.773 177.88C257.773 179.788 257.317 181.324 256.405 182.488C255.493 183.64 254.143 184.216 252.355 184.216C250.579 184.216 249.235 183.634 248.323 182.47ZM255.271 181.516C255.919 180.664 256.243 179.452 256.243 177.88C256.243 176.308 255.919 175.102 255.271 174.262C254.635 173.41 253.663 172.984 252.355 172.984C251.047 172.984 250.075 173.41 249.439 174.262C248.803 175.102 248.485 176.308 248.485 177.88C248.485 179.452 248.803 180.664 249.439 181.516C250.075 182.356 251.047 182.776 252.355 182.776C253.663 182.776 254.635 182.356 255.271 181.516Z" fill="#37376D"/>
<path d="M200.18 213.874C200.18 214.498 200.012 215.062 199.676 215.566C199.352 216.058 198.926 216.394 198.398 216.574C199.022 216.766 199.556 217.12 200 217.636C200.456 218.14 200.684 218.818 200.684 219.67C200.684 220.81 200.258 221.686 199.406 222.298C198.566 222.91 197.498 223.216 196.202 223.216C194.558 223.216 193.136 222.946 191.936 222.406V220.912C193.1 221.512 194.48 221.806 196.076 221.794C198.176 221.794 199.226 221.062 199.226 219.598C199.226 218.134 198.23 217.402 196.238 217.402H194.366V215.962L196.076 215.98C196.94 215.98 197.594 215.8 198.038 215.44C198.494 215.068 198.722 214.588 198.722 214C198.722 213.364 198.47 212.866 197.966 212.506C197.462 212.134 196.748 211.948 195.824 211.948C194.552 211.948 193.328 212.26 192.152 212.884V211.408C193.28 210.832 194.57 210.544 196.022 210.544C197.27 210.544 198.272 210.85 199.028 211.462C199.796 212.074 200.18 212.878 200.18 213.874ZM210.744 213.874C210.744 214.498 210.576 215.062 210.24 215.566C209.916 216.058 209.49 216.394 208.962 216.574C209.586 216.766 210.12 217.12 210.564 217.636C211.02 218.14 211.248 218.818 211.248 219.67C211.248 220.81 210.822 221.686 209.97 222.298C209.13 222.91 208.062 223.216 206.766 223.216C205.122 223.216 203.7 222.946 202.5 222.406V220.912C203.664 221.512 205.044 221.806 206.64 221.794C208.74 221.794 209.79 221.062 209.79 219.598C209.79 218.134 208.794 217.402 206.802 217.402H204.93V215.962L206.64 215.98C207.504 215.98 208.158 215.8 208.602 215.44C209.058 215.068 209.286 214.588 209.286 214C209.286 213.364 209.034 212.866 208.53 212.506C208.026 212.134 207.312 211.948 206.388 211.948C205.116 211.948 203.892 212.26 202.716 212.884V211.408C203.844 210.832 205.134 210.544 206.586 210.544C207.834 210.544 208.836 210.85 209.592 211.462C210.36 212.074 210.744 212.878 210.744 213.874ZM212.813 214.558C212.813 213.298 213.227 212.314 214.055 211.606C214.895 210.898 215.945 210.544 217.205 210.544C218.933 210.544 220.223 211.084 221.075 212.164C221.939 213.232 222.371 214.738 222.371 216.682C222.371 218.842 221.855 220.474 220.823 221.578C219.803 222.67 218.465 223.216 216.809 223.216C215.741 223.216 214.751 222.982 213.839 222.514V221.074C214.727 221.542 215.705 221.776 216.773 221.776C217.901 221.776 218.837 221.416 219.581 220.696C220.337 219.964 220.757 218.806 220.841 217.222C219.665 218.002 218.387 218.392 217.007 218.392C215.891 218.392 214.913 218.056 214.073 217.384C213.233 216.7 212.813 215.758 212.813 214.558ZM217.313 211.948C216.425 211.948 215.705 212.152 215.153 212.56C214.613 212.968 214.343 213.61 214.343 214.486C214.343 215.374 214.625 216.016 215.189 216.412C215.753 216.796 216.485 216.988 217.385 216.988C218.717 216.988 219.863 216.562 220.823 215.71C220.595 213.202 219.425 211.948 217.313 211.948ZM223.975 214.558C223.975 213.298 224.389 212.314 225.217 211.606C226.057 210.898 227.107 210.544 228.367 210.544C230.095 210.544 231.385 211.084 232.237 212.164C233.101 213.232 233.533 214.738 233.533 216.682C233.533 218.842 233.017 220.474 231.985 221.578C230.965 222.67 229.627 223.216 227.971 223.216C226.903 223.216 225.913 222.982 225.001 222.514V221.074C225.889 221.542 226.867 221.776 227.935 221.776C229.063 221.776 229.999 221.416 230.743 220.696C231.499 219.964 231.919 218.806 232.003 217.222C230.827 218.002 229.549 218.392 228.169 218.392C227.053 218.392 226.075 218.056 225.235 217.384C224.395 216.7 223.975 215.758 223.975 214.558ZM228.475 211.948C227.587 211.948 226.867 212.152 226.315 212.56C225.775 212.968 225.505 213.61 225.505 214.486C225.505 215.374 225.787 216.016 226.351 216.412C226.915 216.796 227.647 216.988 228.547 216.988C229.879 216.988 231.025 216.562 231.985 215.71C231.757 213.202 230.587 211.948 228.475 211.948ZM236.501 221.578C236.681 221.734 236.771 221.956 236.771 222.244C236.771 222.532 236.681 222.76 236.501 222.928C236.321 223.084 236.099 223.162 235.835 223.162C235.571 223.162 235.343 223.084 235.151 222.928C234.971 222.76 234.881 222.532 234.881 222.244C234.881 221.956 234.971 221.734 235.151 221.578C235.343 221.422 235.571 221.344 235.835 221.344C236.099 221.344 236.321 221.422 236.501 221.578ZM239.516 221.47C238.604 220.306 238.148 218.776 238.148 216.88C238.148 214.984 238.604 213.454 239.516 212.29C240.428 211.126 241.772 210.544 243.548 210.544C245.336 210.544 246.686 211.126 247.598 212.29C248.51 213.442 248.966 214.972 248.966 216.88C248.966 218.788 248.51 220.324 247.598 221.488C246.686 222.64 245.336 223.216 243.548 223.216C241.772 223.216 240.428 222.634 239.516 221.47ZM246.464 220.516C247.112 219.664 247.436 218.452 247.436 216.88C247.436 215.308 247.112 214.102 246.464 213.262C245.828 212.41 244.856 211.984 243.548 211.984C242.24 211.984 241.268 212.41 240.632 213.262C239.996 214.102 239.678 215.308 239.678 216.88C239.678 218.452 239.996 219.664 240.632 220.516C241.268 221.356 242.24 221.776 243.548 221.776C244.856 221.776 245.828 221.356 246.464 220.516ZM252.173 221.47C251.261 220.306 250.805 218.776 250.805 216.88C250.805 214.984 251.261 213.454 252.173 212.29C253.085 211.126 254.429 210.544 256.205 210.544C257.993 210.544 259.343 211.126 260.255 212.29C261.167 213.442 261.623 214.972 261.623 216.88C261.623 218.788 261.167 220.324 260.255 221.488C259.343 222.64 257.993 223.216 256.205 223.216C254.429 223.216 253.085 222.634 252.173 221.47ZM259.121 220.516C259.769 219.664 260.093 218.452 260.093 216.88C260.093 215.308 259.769 214.102 259.121 213.262C258.485 212.41 257.513 211.984 256.205 211.984C254.897 211.984 253.925 212.41 253.289 213.262C252.653 214.102 252.335 215.308 252.335 216.88C252.335 218.452 252.653 219.664 253.289 220.516C253.925 221.356 254.897 221.776 256.205 221.776C257.513 221.776 258.485 221.356 259.121 220.516Z" fill="#37376D"/>
<path d="M200.18 252.874C200.18 253.498 200.012 254.062 199.676 254.566C199.352 255.058 198.926 255.394 198.398 255.574C199.022 255.766 199.556 256.12 200 256.636C200.456 257.14 200.684 257.818 200.684 258.67C200.684 259.81 200.258 260.686 199.406 261.298C198.566 261.91 197.498 262.216 196.202 262.216C194.558 262.216 193.136 261.946 191.936 261.406V259.912C193.1 260.512 194.48 260.806 196.076 260.794C198.176 260.794 199.226 260.062 199.226 258.598C199.226 257.134 198.23 256.402 196.238 256.402H194.366V254.962L196.076 254.98C196.94 254.98 197.594 254.8 198.038 254.44C198.494 254.068 198.722 253.588 198.722 253C198.722 252.364 198.47 251.866 197.966 251.506C197.462 251.134 196.748 250.948 195.824 250.948C194.552 250.948 193.328 251.26 192.152 251.884V250.408C193.28 249.832 194.57 249.544 196.022 249.544C197.27 249.544 198.272 249.85 199.028 250.462C199.796 251.074 200.18 251.878 200.18 252.874ZM202.788 250.732C203.928 249.94 205.236 249.544 206.712 249.544C207.984 249.544 208.998 249.832 209.754 250.408C210.51 250.984 210.888 251.788 210.888 252.82C210.888 253.312 210.792 253.774 210.6 254.206C210.42 254.638 210.144 255.034 209.772 255.394C209.412 255.754 209.058 256.06 208.71 256.312C208.374 256.552 207.948 256.822 207.432 257.122C207.372 257.158 207.186 257.266 206.874 257.446C206.574 257.626 206.382 257.74 206.298 257.788C206.226 257.836 206.058 257.944 205.794 258.112C205.542 258.268 205.374 258.382 205.29 258.454C205.218 258.526 205.086 258.64 204.894 258.796C204.714 258.952 204.588 259.084 204.516 259.192C204.456 259.3 204.372 259.438 204.264 259.606C204.168 259.762 204.102 259.918 204.066 260.074C204.03 260.23 204.012 260.398 204.012 260.578L210.978 260.56V262H202.356V261.28C202.356 260.608 202.464 260.002 202.68 259.462C202.896 258.91 203.202 258.442 203.598 258.058C204.006 257.662 204.408 257.332 204.804 257.068C205.2 256.792 205.662 256.498 206.19 256.186C206.31 256.126 206.4 256.078 206.46 256.042C207.552 255.406 208.266 254.92 208.602 254.584C209.118 254.056 209.376 253.462 209.376 252.802C209.376 252.202 209.13 251.746 208.638 251.434C208.158 251.11 207.474 250.948 206.586 250.948C205.29 250.948 204.024 251.38 202.788 252.244V250.732ZM213.214 252.712C213.214 251.848 213.592 251.104 214.348 250.48C215.104 249.856 216.214 249.544 217.678 249.544C219.034 249.544 220.126 249.874 220.954 250.534C221.782 251.194 222.208 251.986 222.232 252.91C222.268 254.17 221.71 255.202 220.558 256.006C221.962 256.702 222.664 257.662 222.664 258.886C222.664 259.822 222.25 260.614 221.422 261.262C220.606 261.898 219.394 262.216 217.786 262.216C216.19 262.216 214.954 261.868 214.078 261.172C213.214 260.476 212.782 259.63 212.782 258.634C212.782 258.034 212.956 257.44 213.304 256.852C213.664 256.252 214.186 255.748 214.87 255.34C213.766 254.668 213.214 253.792 213.214 252.712ZM217.858 256.492C217.234 256.324 216.664 256.144 216.148 255.952C215.548 256.24 215.086 256.612 214.762 257.068C214.45 257.524 214.294 257.992 214.294 258.472C214.294 259.204 214.594 259.78 215.194 260.2C215.806 260.608 216.682 260.812 217.822 260.812C218.782 260.812 219.574 260.644 220.198 260.308C220.834 259.96 221.152 259.51 221.152 258.958C221.152 258.49 220.984 258.094 220.648 257.77C220.324 257.434 220.006 257.206 219.694 257.086C219.382 256.966 218.866 256.798 218.146 256.582C218.014 256.546 217.918 256.516 217.858 256.492ZM220.72 253.18C220.72 252.544 220.45 252.016 219.91 251.596C219.37 251.164 218.614 250.948 217.642 250.948C216.754 250.948 216.046 251.116 215.518 251.452C214.99 251.776 214.726 252.19 214.726 252.694C214.726 253.042 214.798 253.348 214.942 253.612C215.098 253.864 215.326 254.08 215.626 254.26C215.938 254.428 216.22 254.566 216.472 254.674C216.724 254.77 217.06 254.878 217.48 254.998C217.528 255.01 217.564 255.022 217.588 255.034C217.612 255.034 217.642 255.04 217.678 255.052C217.714 255.064 217.75 255.076 217.786 255.088C217.822 255.1 218.026 255.16 218.398 255.268C218.782 255.364 219.076 255.442 219.28 255.502C220.24 254.878 220.72 254.104 220.72 253.18ZM224.239 253.558C224.239 252.298 224.653 251.314 225.481 250.606C226.321 249.898 227.371 249.544 228.631 249.544C230.359 249.544 231.649 250.084 232.501 251.164C233.365 252.232 233.797 253.738 233.797 255.682C233.797 257.842 233.281 259.474 232.249 260.578C231.229 261.67 229.891 262.216 228.235 262.216C227.167 262.216 226.177 261.982 225.265 261.514V260.074C226.153 260.542 227.131 260.776 228.199 260.776C229.327 260.776 230.263 260.416 231.007 259.696C231.763 258.964 232.183 257.806 232.267 256.222C231.091 257.002 229.813 257.392 228.433 257.392C227.317 257.392 226.339 257.056 225.499 256.384C224.659 255.7 224.239 254.758 224.239 253.558ZM228.739 250.948C227.851 250.948 227.131 251.152 226.579 251.56C226.039 251.968 225.769 252.61 225.769 253.486C225.769 254.374 226.051 255.016 226.615 255.412C227.179 255.796 227.911 255.988 228.811 255.988C230.143 255.988 231.289 255.562 232.249 254.71C232.021 252.202 230.851 250.948 228.739 250.948ZM236.764 260.578C236.944 260.734 237.034 260.956 237.034 261.244C237.034 261.532 236.944 261.76 236.764 261.928C236.584 262.084 236.362 262.162 236.098 262.162C235.834 262.162 235.606 262.084 235.414 261.928C235.234 261.76 235.144 261.532 235.144 261.244C235.144 260.956 235.234 260.734 235.414 260.578C235.606 260.422 235.834 260.344 236.098 260.344C236.362 260.344 236.584 260.422 236.764 260.578ZM239.245 250.732C240.385 249.94 241.693 249.544 243.169 249.544C244.441 249.544 245.455 249.832 246.211 250.408C246.967 250.984 247.345 251.788 247.345 252.82C247.345 253.312 247.249 253.774 247.057 254.206C246.877 254.638 246.601 255.034 246.229 255.394C245.869 255.754 245.515 256.06 245.167 256.312C244.831 256.552 244.405 256.822 243.889 257.122C243.829 257.158 243.643 257.266 243.331 257.446C243.031 257.626 242.839 257.74 242.755 257.788C242.683 257.836 242.515 257.944 242.251 258.112C241.999 258.268 241.831 258.382 241.747 258.454C241.675 258.526 241.543 258.64 241.351 258.796C241.171 258.952 241.045 259.084 240.973 259.192C240.913 259.3 240.829 259.438 240.721 259.606C240.625 259.762 240.559 259.918 240.523 260.074C240.487 260.23 240.469 260.398 240.469 260.578L247.435 260.56V262H238.813V261.28C238.813 260.608 238.921 260.002 239.137 259.462C239.353 258.91 239.659 258.442 240.055 258.058C240.463 257.662 240.865 257.332 241.261 257.068C241.657 256.792 242.119 256.498 242.647 256.186C242.767 256.126 242.857 256.078 242.917 256.042C244.009 255.406 244.723 254.92 245.059 254.584C245.575 254.056 245.833 253.462 245.833 252.802C245.833 252.202 245.587 251.746 245.095 251.434C244.615 251.11 243.931 250.948 243.043 250.948C241.747 250.948 240.481 251.38 239.245 252.244V250.732ZM250.643 260.47C249.731 259.306 249.275 257.776 249.275 255.88C249.275 253.984 249.731 252.454 250.643 251.29C251.555 250.126 252.899 249.544 254.675 249.544C256.463 249.544 257.813 250.126 258.725 251.29C259.637 252.442 260.093 253.972 260.093 255.88C260.093 257.788 259.637 259.324 258.725 260.488C257.813 261.64 256.463 262.216 254.675 262.216C252.899 262.216 251.555 261.634 250.643 260.47ZM257.591 259.516C258.239 258.664 258.563 257.452 258.563 255.88C258.563 254.308 258.239 253.102 257.591 252.262C256.955 251.41 255.983 250.984 254.675 250.984C253.367 250.984 252.395 251.41 251.759 252.262C251.123 253.102 250.805 254.308 250.805 255.88C250.805 257.452 251.123 258.664 251.759 259.516C252.395 260.356 253.367 260.776 254.675 260.776C255.983 260.776 256.955 260.356 257.591 259.516Z" fill="#37376D"/>
<path d="M352 5C352 2.23858 354.239 0 357 0H503C505.761 0 508 2.23858 508 5V40H352V5Z" fill="#37376D"/>
<rect x="352.5" y="40.5" width="155" height="39" stroke="#DDDDE6"/>
<rect x="352.5" y="79.5" width="155" height="39" fill="#F9F9FB" stroke="#DDDDE6"/>
<rect x="352.5" y="118.5" width="155" height="39" stroke="#DDDDE6"/>
<rect x="352.5" y="157.5" width="155" height="39" fill="#F9F9FB" stroke="#DDDDE6"/>
<path d="M352.5 196.5H507.5V231C507.5 233.485 505.485 235.5 503 235.5H357C354.515 235.5 352.5 233.485 352.5 231V196.5Z" stroke="#DDDDE6"/>
<path d="M371.168 26V20.294H374.084L378.206 26H379.934L375.272 19.538L379.556 13.4H377.828L374.03 18.854H371.168V13.4H369.656V26H371.168ZM380.42 20.852V22.22H386.846V20.852H380.42ZM392.022 26V18.692H395.19V17.36H387.396V18.692H390.582V26H392.022ZM400.928 26C403.034 26 404.276 24.794 404.276 23.192C404.276 21.59 403.034 20.384 400.928 20.384H398.264V17.36H396.824V26H400.928ZM398.264 21.68H400.748C402.008 21.68 402.818 22.166 402.818 23.192C402.818 24.218 402.008 24.704 400.748 24.704H398.264V21.68ZM417.625 24.2V20.816C417.625 18.404 416.167 17.144 413.863 17.144C412.441 17.144 411.253 17.486 410.569 17.72V19.124C411.325 18.8 412.387 18.476 413.719 18.476C415.303 18.476 416.185 19.34 416.185 20.636V20.942C415.465 20.78 414.547 20.672 413.791 20.672C411.937 20.672 409.885 21.356 409.885 23.588C409.885 25.406 411.397 26.216 412.927 26.216C414.331 26.216 415.429 25.784 416.293 25.064C416.545 25.82 417.175 26.108 417.877 26.108C418.237 26.108 418.615 26.036 418.957 25.91V24.74C418.741 24.812 418.507 24.866 418.291 24.866C417.913 24.866 417.625 24.722 417.625 24.2ZM411.361 23.516C411.361 22.256 412.729 21.878 413.989 21.878C414.691 21.878 415.573 22.004 416.185 22.13V23.714C415.429 24.524 414.331 24.974 413.233 24.974C412.279 24.974 411.361 24.524 411.361 23.516ZM421.942 26V22.292H423.634L426.802 26H428.494L424.822 21.662L428.098 17.36H426.424L423.688 20.96H421.942V17.36H420.502V26H421.942ZM438.816 28.34V24.668H437.538V17.36H436.098V24.668H431.364V17.36H429.924V26H437.412V28.34H438.816ZM442.514 26H440.932V16.3496H442.514V26ZM440.809 13.7393C440.809 13.3877 440.896 13.1328 441.072 12.9746C441.254 12.8164 441.477 12.7373 441.74 12.7373C441.986 12.7373 442.2 12.8164 442.382 12.9746C442.569 13.1328 442.663 13.3877 442.663 13.7393C442.663 14.085 442.569 14.3398 442.382 14.5039C442.2 14.668 441.986 14.75 441.74 14.75C441.477 14.75 441.254 14.668 441.072 14.5039C440.896 14.3398 440.809 14.085 440.809 13.7393ZM451.873 15.272V13.976C450.973 14.57 450.235 14.768 449.353 14.768C448.471 14.768 447.733 14.57 446.833 13.976V15.272C447.643 15.848 448.489 16.028 449.353 16.028C450.217 16.028 451.063 15.848 451.873 15.272ZM446.599 26L451.891 19.682V26H453.331V17.36H452.107L446.815 23.678V17.36H445.375V26H446.599Z" fill="white"/>
<path d="M375.128 53.76H376.766V61.878H379.07V63.282H376.766V66H375.272V63.282H368.45V61.932L375.128 53.76ZM375.272 61.878V55.794L370.304 61.878H375.272Z" fill="#37376D"/>
<path d="M375.128 92.76H376.766V100.878H379.07V102.282H376.766V105H375.272V102.282H368.45V100.932L375.128 92.76ZM375.272 100.878V94.794L370.304 100.878H375.272Z" fill="#37376D"/>
<path d="M375.128 131.76H376.766V139.878H379.07V141.282H376.766V144H375.272V141.282H368.45V139.932L375.128 131.76ZM375.272 139.878V133.794L370.304 139.878H375.272Z" fill="#37376D"/>
<path d="M377.18 173.874C377.18 174.498 377.012 175.062 376.676 175.566C376.352 176.058 375.926 176.394 375.398 176.574C376.022 176.766 376.556 177.12 377 177.636C377.456 178.14 377.684 178.818 377.684 179.67C377.684 180.81 377.258 181.686 376.406 182.298C375.566 182.91 374.498 183.216 373.202 183.216C371.558 183.216 370.136 182.946 368.936 182.406V180.912C370.1 181.512 371.48 181.806 373.076 181.794C375.176 181.794 376.226 181.062 376.226 179.598C376.226 178.134 375.23 177.402 373.238 177.402H371.366V175.962L373.076 175.98C373.94 175.98 374.594 175.8 375.038 175.44C375.494 175.068 375.722 174.588 375.722 174C375.722 173.364 375.47 172.866 374.966 172.506C374.462 172.134 373.748 171.948 372.824 171.948C371.552 171.948 370.328 172.26 369.152 172.884V171.408C370.28 170.832 371.57 170.544 373.022 170.544C374.27 170.544 375.272 170.85 376.028 171.462C376.796 172.074 377.18 172.878 377.18 173.874Z" fill="#37376D"/>
<path d="M371.924 209.76H373.04V220.56H375.326V222H368.954V220.56H371.528V211.362L368.954 212.334V210.894L371.924 209.76Z" fill="#37376D"/>
</svg>
