<svg width="706" height="458" viewBox="0 0 706 458" fill="none" xmlns="http://www.w3.org/2000/svg">
<path d="M69.5 76C69.5 73.5147 71.5147 71.5 74 71.5H207.5V110.5H69.5V76Z" fill="#F9F9FB" stroke="#DDDDE6"/>
<rect x="207.5" y="71.5" width="142" height="39" fill="#F9F9FB" stroke="#DDDDE6"/>
<rect x="349.5" y="71.5" width="142" height="39" fill="#F9F9FB" stroke="#DDDDE6"/>
<path d="M491.5 71.5H629C631.485 71.5 633.5 73.5147 633.5 76V110.5H491.5V71.5Z" fill="#F9F9FB" stroke="#DDDDE6"/>
<rect x="69.5" y="110.5" width="138" height="39" fill="white" stroke="#DDDDE6"/>
<rect x="69.5" y="149.5" width="138" height="39" fill="white" stroke="#DDDDE6"/>
<rect x="69.5" y="188.5" width="138" height="39" fill="white" stroke="#DDDDE6"/>
<rect x="69.5" y="227.5" width="138" height="39" fill="white" stroke="#DDDDE6"/>
<rect x="69.5" y="266.5" width="138" height="39" fill="white" stroke="#DDDDE6"/>
<rect x="69.5" y="305.5" width="138" height="39" fill="white" stroke="#DDDDE6"/>
<path d="M69.5 344.5H207.5V383.5H74C71.5147 383.5 69.5 381.485 69.5 379V344.5Z" fill="white" stroke="#DDDDE6"/>
<rect x="207.5" y="110.5" width="142" height="39" fill="white" stroke="#DDDDE6"/>
<rect x="207.5" y="149.5" width="142" height="39" fill="white" stroke="#DDDDE6"/>
<rect x="207.5" y="188.5" width="142" height="39" fill="white" stroke="#DDDDE6"/>
<rect x="207.5" y="227.5" width="142" height="39" fill="white" stroke="#DDDDE6"/>
<rect x="207.5" y="266.5" width="142" height="39" fill="white" stroke="#DDDDE6"/>
<rect x="207.5" y="305.5" width="142" height="39" fill="white" stroke="#DDDDE6"/>
<rect x="207.5" y="344.5" width="142" height="39" fill="white" stroke="#DDDDE6"/>
<rect x="349.5" y="110.5" width="142" height="39" fill="white" stroke="#DDDDE6"/>
<rect x="349.5" y="149.5" width="142" height="39" fill="white" stroke="#DDDDE6"/>
<rect x="349.5" y="188.5" width="142" height="39" fill="white" stroke="#DDDDE6"/>
<rect x="349.5" y="227.5" width="142" height="39" fill="white" stroke="#DDDDE6"/>
<rect x="349.5" y="266.5" width="142" height="39" fill="white" stroke="#DDDDE6"/>
<rect x="491.5" y="266.5" width="142" height="39" fill="white" stroke="#DDDDE6"/>
<rect x="349.5" y="305.5" width="142" height="39" fill="white" stroke="#DDDDE6"/>
<rect x="491.5" y="305.5" width="142" height="39" fill="white" stroke="#DDDDE6"/>
<rect x="349.5" y="344.5" width="142" height="39" fill="white" stroke="#DDDDE6"/>
<rect x="491.5" y="110.5" width="142" height="39" fill="white" stroke="#DDDDE6"/>
<rect x="491.5" y="149.5" width="142" height="39" fill="white" stroke="#DDDDE6"/>
<rect x="491.5" y="188.5" width="142" height="39" fill="white" stroke="#DDDDE6"/>
<rect x="491.5" y="227.5" width="142" height="39" fill="white" stroke="#DDDDE6"/>
<path d="M491.5 344.5H633.5V379C633.5 381.485 631.485 383.5 629 383.5H491.5V344.5Z" fill="white" stroke="#DDDDE6"/>
<path d="M98.96 84.4H100.814V97H98.762V88.18L94.784 94.156H93.56L89.582 88.162V97H87.53V84.4H89.384L94.172 91.618L98.96 84.4ZM110.775 95.002C110.775 95.422 110.985 95.632 111.405 95.632C111.549 95.632 111.741 95.596 111.981 95.524V96.91C111.621 97.054 111.213 97.126 110.757 97.126C109.893 97.126 109.317 96.79 109.029 96.118C108.105 96.862 107.019 97.234 105.771 97.234C104.931 97.234 104.217 97.006 103.629 96.55C103.041 96.082 102.747 95.428 102.747 94.588C102.747 93.58 103.125 92.848 103.881 92.392C104.637 91.924 105.543 91.69 106.599 91.69C107.295 91.69 108.045 91.774 108.849 91.942V91.636C108.849 91.084 108.651 90.64 108.255 90.304C107.859 89.968 107.301 89.8 106.581 89.8C105.513 89.8 104.475 90.022 103.467 90.466V88.702C104.595 88.318 105.699 88.126 106.779 88.126C108.039 88.126 109.017 88.438 109.713 89.062C110.421 89.686 110.775 90.634 110.775 91.906V95.002ZM106.977 93.04C106.341 93.04 105.807 93.154 105.375 93.382C104.943 93.61 104.727 93.97 104.727 94.462C104.727 94.87 104.883 95.188 105.195 95.416C105.507 95.632 105.891 95.74 106.347 95.74C107.331 95.74 108.165 95.398 108.849 94.714V93.256C108.153 93.112 107.529 93.04 106.977 93.04ZM115.359 97H113.433V88.36H119.877V90.052H115.359V97ZM128.617 95.002C128.617 95.422 128.827 95.632 129.247 95.632C129.391 95.632 129.583 95.596 129.823 95.524V96.91C129.463 97.054 129.055 97.126 128.599 97.126C127.735 97.126 127.159 96.79 126.871 96.118C125.947 96.862 124.861 97.234 123.613 97.234C122.773 97.234 122.059 97.006 121.471 96.55C120.883 96.082 120.589 95.428 120.589 94.588C120.589 93.58 120.967 92.848 121.723 92.392C122.479 91.924 123.385 91.69 124.441 91.69C125.137 91.69 125.887 91.774 126.691 91.942V91.636C126.691 91.084 126.493 90.64 126.097 90.304C125.701 89.968 125.143 89.8 124.423 89.8C123.355 89.8 122.317 90.022 121.309 90.466V88.702C122.437 88.318 123.541 88.126 124.621 88.126C125.881 88.126 126.859 88.438 127.555 89.062C128.263 89.686 128.617 90.634 128.617 91.906V95.002ZM124.819 93.04C124.183 93.04 123.649 93.154 123.217 93.382C122.785 93.61 122.569 93.97 122.569 94.462C122.569 94.87 122.725 95.188 123.037 95.416C123.349 95.632 123.733 95.74 124.189 95.74C125.173 95.74 126.007 95.398 126.691 94.714V93.256C125.995 93.112 125.371 93.04 124.819 93.04ZM138.042 94.642C138.042 95.422 137.688 96.052 136.98 96.532C136.284 97 135.288 97.234 133.992 97.234C132.732 97.234 131.652 97 130.752 96.532V94.876C131.604 95.356 132.6 95.596 133.74 95.596C135.312 95.596 136.098 95.2 136.098 94.408C136.098 93.7 135.498 93.346 134.298 93.346H132.534V91.87H134.298C135.378 91.87 135.918 91.546 135.918 90.898C135.918 90.526 135.732 90.244 135.36 90.052C134.988 89.848 134.484 89.746 133.848 89.746C132.768 89.746 131.79 89.98 130.914 90.448V88.792C131.862 88.336 132.918 88.108 134.082 88.108C135.342 88.108 136.284 88.342 136.908 88.81C137.544 89.278 137.862 89.89 137.862 90.646C137.862 91.138 137.724 91.552 137.448 91.888C137.172 92.224 136.8 92.452 136.332 92.572C136.848 92.716 137.262 92.968 137.574 93.328C137.886 93.676 138.042 94.114 138.042 94.642ZM141.632 97H139.976V88.36H141.902V94.012L146.528 88.36H148.184V97H146.258V91.348L141.632 97ZM152.519 97H150.593V88.36H152.519V91.834H156.839V88.36H158.765V97H156.839V93.526H152.519V97Z" fill="#454545"/>
<path d="M99.356 122.4H100.652V135H99.14V125.262L94.622 132.03H93.686L89.168 125.262V135H87.656V122.4H88.952L94.154 130.176L99.356 122.4ZM110.524 133.2C110.524 133.644 110.746 133.866 111.19 133.866C111.382 133.866 111.604 133.824 111.856 133.74V134.91C111.496 135.042 111.136 135.108 110.776 135.108C109.948 135.108 109.42 134.76 109.192 134.064C108.268 134.832 107.146 135.216 105.826 135.216C104.986 135.216 104.266 134.994 103.666 134.55C103.078 134.094 102.784 133.44 102.784 132.588C102.784 131.568 103.162 130.83 103.918 130.374C104.686 129.906 105.61 129.672 106.69 129.672C107.482 129.672 108.28 129.762 109.084 129.942V129.636C109.084 128.976 108.868 128.454 108.436 128.07C108.004 127.674 107.398 127.476 106.618 127.476C105.526 127.476 104.476 127.692 103.468 128.124V126.72C104.596 126.336 105.694 126.144 106.762 126.144C107.938 126.144 108.856 126.462 109.516 127.098C110.188 127.722 110.524 128.628 110.524 129.816V133.2ZM104.26 132.516C104.26 132.996 104.44 133.362 104.8 133.614C105.172 133.854 105.616 133.974 106.132 133.974C107.32 133.974 108.304 133.554 109.084 132.714V131.13C108.268 130.962 107.536 130.878 106.888 130.878C106.156 130.878 105.532 131.01 105.016 131.274C104.512 131.526 104.26 131.94 104.26 132.516ZM114.84 135H113.4V126.36H119.718V127.692H114.84V135ZM128.278 133.2C128.278 133.644 128.5 133.866 128.944 133.866C129.136 133.866 129.358 133.824 129.61 133.74V134.91C129.25 135.042 128.89 135.108 128.53 135.108C127.702 135.108 127.174 134.76 126.946 134.064C126.022 134.832 124.9 135.216 123.58 135.216C122.74 135.216 122.02 134.994 121.42 134.55C120.832 134.094 120.538 133.44 120.538 132.588C120.538 131.568 120.916 130.83 121.672 130.374C122.44 129.906 123.364 129.672 124.444 129.672C125.236 129.672 126.034 129.762 126.838 129.942V129.636C126.838 128.976 126.622 128.454 126.19 128.07C125.758 127.674 125.152 127.476 124.372 127.476C123.28 127.476 122.23 127.692 121.222 128.124V126.72C122.35 126.336 123.448 126.144 124.516 126.144C125.692 126.144 126.61 126.462 127.27 127.098C127.942 127.722 128.278 128.628 128.278 129.816V133.2ZM122.014 132.516C122.014 132.996 122.194 133.362 122.554 133.614C122.926 133.854 123.37 133.974 123.886 133.974C125.074 133.974 126.058 133.554 126.838 132.714V131.13C126.022 130.962 125.29 130.878 124.642 130.878C123.91 130.878 123.286 131.01 122.77 131.274C122.266 131.526 122.014 131.94 122.014 132.516ZM137.616 132.678C137.616 133.482 137.268 134.106 136.572 134.55C135.888 134.994 134.94 135.216 133.728 135.216C132.516 135.216 131.454 134.994 130.542 134.55V133.182C131.418 133.65 132.42 133.884 133.548 133.884C135.3 133.884 136.176 133.428 136.176 132.516C136.176 131.688 135.54 131.274 134.268 131.274H132.378V129.942H134.268C135.42 129.942 135.996 129.57 135.996 128.826C135.996 128.37 135.78 128.028 135.348 127.8C134.916 127.572 134.34 127.458 133.62 127.458C132.576 127.458 131.598 127.686 130.686 128.142V126.792C131.658 126.348 132.69 126.126 133.782 126.126C134.958 126.126 135.858 126.354 136.482 126.81C137.118 127.254 137.436 127.86 137.436 128.628C137.436 129.144 137.292 129.57 137.004 129.906C136.716 130.242 136.326 130.464 135.834 130.572C136.35 130.704 136.776 130.956 137.112 131.328C137.448 131.7 137.616 132.15 137.616 132.678ZM140.956 135H139.732V126.36H141.172V132.678L146.464 126.36H147.688V135H146.248V128.682L140.956 135ZM151.79 135H150.35V126.36H151.79V130.014H156.794V126.36H158.234V135H156.794V131.346H151.79V135ZM167.971 122.76H169.087V133.56H171.373V135H165.001V133.56H167.575V124.362L165.001 125.334V123.894L167.971 122.76Z" fill="#454545"/>
<path d="M99.356 161.4H100.652V174H99.14V164.262L94.622 171.03H93.686L89.168 164.262V174H87.656V161.4H88.952L94.154 169.176L99.356 161.4ZM110.524 172.2C110.524 172.644 110.746 172.866 111.19 172.866C111.382 172.866 111.604 172.824 111.856 172.74V173.91C111.496 174.042 111.136 174.108 110.776 174.108C109.948 174.108 109.42 173.76 109.192 173.064C108.268 173.832 107.146 174.216 105.826 174.216C104.986 174.216 104.266 173.994 103.666 173.55C103.078 173.094 102.784 172.44 102.784 171.588C102.784 170.568 103.162 169.83 103.918 169.374C104.686 168.906 105.61 168.672 106.69 168.672C107.482 168.672 108.28 168.762 109.084 168.942V168.636C109.084 167.976 108.868 167.454 108.436 167.07C108.004 166.674 107.398 166.476 106.618 166.476C105.526 166.476 104.476 166.692 103.468 167.124V165.72C104.596 165.336 105.694 165.144 106.762 165.144C107.938 165.144 108.856 165.462 109.516 166.098C110.188 166.722 110.524 167.628 110.524 168.816V172.2ZM104.26 171.516C104.26 171.996 104.44 172.362 104.8 172.614C105.172 172.854 105.616 172.974 106.132 172.974C107.32 172.974 108.304 172.554 109.084 171.714V170.13C108.268 169.962 107.536 169.878 106.888 169.878C106.156 169.878 105.532 170.01 105.016 170.274C104.512 170.526 104.26 170.94 104.26 171.516ZM114.84 174H113.4V165.36H119.718V166.692H114.84V174ZM128.278 172.2C128.278 172.644 128.5 172.866 128.944 172.866C129.136 172.866 129.358 172.824 129.61 172.74V173.91C129.25 174.042 128.89 174.108 128.53 174.108C127.702 174.108 127.174 173.76 126.946 173.064C126.022 173.832 124.9 174.216 123.58 174.216C122.74 174.216 122.02 173.994 121.42 173.55C120.832 173.094 120.538 172.44 120.538 171.588C120.538 170.568 120.916 169.83 121.672 169.374C122.44 168.906 123.364 168.672 124.444 168.672C125.236 168.672 126.034 168.762 126.838 168.942V168.636C126.838 167.976 126.622 167.454 126.19 167.07C125.758 166.674 125.152 166.476 124.372 166.476C123.28 166.476 122.23 166.692 121.222 167.124V165.72C122.35 165.336 123.448 165.144 124.516 165.144C125.692 165.144 126.61 165.462 127.27 166.098C127.942 166.722 128.278 167.628 128.278 168.816V172.2ZM122.014 171.516C122.014 171.996 122.194 172.362 122.554 172.614C122.926 172.854 123.37 172.974 123.886 172.974C125.074 172.974 126.058 172.554 126.838 171.714V170.13C126.022 169.962 125.29 169.878 124.642 169.878C123.91 169.878 123.286 170.01 122.77 170.274C122.266 170.526 122.014 170.94 122.014 171.516ZM137.616 171.678C137.616 172.482 137.268 173.106 136.572 173.55C135.888 173.994 134.94 174.216 133.728 174.216C132.516 174.216 131.454 173.994 130.542 173.55V172.182C131.418 172.65 132.42 172.884 133.548 172.884C135.3 172.884 136.176 172.428 136.176 171.516C136.176 170.688 135.54 170.274 134.268 170.274H132.378V168.942H134.268C135.42 168.942 135.996 168.57 135.996 167.826C135.996 167.37 135.78 167.028 135.348 166.8C134.916 166.572 134.34 166.458 133.62 166.458C132.576 166.458 131.598 166.686 130.686 167.142V165.792C131.658 165.348 132.69 165.126 133.782 165.126C134.958 165.126 135.858 165.354 136.482 165.81C137.118 166.254 137.436 166.86 137.436 167.628C137.436 168.144 137.292 168.57 137.004 168.906C136.716 169.242 136.326 169.464 135.834 169.572C136.35 169.704 136.776 169.956 137.112 170.328C137.448 170.7 137.616 171.15 137.616 171.678ZM140.956 174H139.732V165.36H141.172V171.678L146.464 165.36H147.688V174H146.248V167.682L140.956 174ZM151.79 174H150.35V165.36H151.79V169.014H156.794V165.36H158.234V174H156.794V170.346H151.79V174ZM165.271 162.732C166.411 161.94 167.719 161.544 169.195 161.544C170.467 161.544 171.481 161.832 172.237 162.408C172.993 162.984 173.371 163.788 173.371 164.82C173.371 165.312 173.275 165.774 173.083 166.206C172.903 166.638 172.627 167.034 172.255 167.394C171.895 167.754 171.541 168.06 171.193 168.312C170.857 168.552 170.431 168.822 169.915 169.122C169.855 169.158 169.669 169.266 169.357 169.446C169.057 169.626 168.865 169.74 168.781 169.788C168.709 169.836 168.541 169.944 168.277 170.112C168.025 170.268 167.857 170.382 167.773 170.454C167.701 170.526 167.569 170.64 167.377 170.796C167.197 170.952 167.071 171.084 166.999 171.192C166.939 171.3 166.855 171.438 166.747 171.606C166.651 171.762 166.585 171.918 166.549 172.074C166.513 172.23 166.495 172.398 166.495 172.578L173.461 172.56V174H164.839V173.28C164.839 172.608 164.947 172.002 165.163 171.462C165.379 170.91 165.685 170.442 166.081 170.058C166.489 169.662 166.891 169.332 167.287 169.068C167.683 168.792 168.145 168.498 168.673 168.186C168.793 168.126 168.883 168.078 168.943 168.042C170.035 167.406 170.749 166.92 171.085 166.584C171.601 166.056 171.859 165.462 171.859 164.802C171.859 164.202 171.613 163.746 171.121 163.434C170.641 163.11 169.957 162.948 169.069 162.948C167.773 162.948 166.507 163.38 165.271 164.244V162.732Z" fill="#454545"/>
<path d="M99.356 200.4H100.652V213H99.14V203.262L94.622 210.03H93.686L89.168 203.262V213H87.656V200.4H88.952L94.154 208.176L99.356 200.4ZM110.524 211.2C110.524 211.644 110.746 211.866 111.19 211.866C111.382 211.866 111.604 211.824 111.856 211.74V212.91C111.496 213.042 111.136 213.108 110.776 213.108C109.948 213.108 109.42 212.76 109.192 212.064C108.268 212.832 107.146 213.216 105.826 213.216C104.986 213.216 104.266 212.994 103.666 212.55C103.078 212.094 102.784 211.44 102.784 210.588C102.784 209.568 103.162 208.83 103.918 208.374C104.686 207.906 105.61 207.672 106.69 207.672C107.482 207.672 108.28 207.762 109.084 207.942V207.636C109.084 206.976 108.868 206.454 108.436 206.07C108.004 205.674 107.398 205.476 106.618 205.476C105.526 205.476 104.476 205.692 103.468 206.124V204.72C104.596 204.336 105.694 204.144 106.762 204.144C107.938 204.144 108.856 204.462 109.516 205.098C110.188 205.722 110.524 206.628 110.524 207.816V211.2ZM104.26 210.516C104.26 210.996 104.44 211.362 104.8 211.614C105.172 211.854 105.616 211.974 106.132 211.974C107.32 211.974 108.304 211.554 109.084 210.714V209.13C108.268 208.962 107.536 208.878 106.888 208.878C106.156 208.878 105.532 209.01 105.016 209.274C104.512 209.526 104.26 209.94 104.26 210.516ZM114.84 213H113.4V204.36H119.718V205.692H114.84V213ZM128.278 211.2C128.278 211.644 128.5 211.866 128.944 211.866C129.136 211.866 129.358 211.824 129.61 211.74V212.91C129.25 213.042 128.89 213.108 128.53 213.108C127.702 213.108 127.174 212.76 126.946 212.064C126.022 212.832 124.9 213.216 123.58 213.216C122.74 213.216 122.02 212.994 121.42 212.55C120.832 212.094 120.538 211.44 120.538 210.588C120.538 209.568 120.916 208.83 121.672 208.374C122.44 207.906 123.364 207.672 124.444 207.672C125.236 207.672 126.034 207.762 126.838 207.942V207.636C126.838 206.976 126.622 206.454 126.19 206.07C125.758 205.674 125.152 205.476 124.372 205.476C123.28 205.476 122.23 205.692 121.222 206.124V204.72C122.35 204.336 123.448 204.144 124.516 204.144C125.692 204.144 126.61 204.462 127.27 205.098C127.942 205.722 128.278 206.628 128.278 207.816V211.2ZM122.014 210.516C122.014 210.996 122.194 211.362 122.554 211.614C122.926 211.854 123.37 211.974 123.886 211.974C125.074 211.974 126.058 211.554 126.838 210.714V209.13C126.022 208.962 125.29 208.878 124.642 208.878C123.91 208.878 123.286 209.01 122.77 209.274C122.266 209.526 122.014 209.94 122.014 210.516ZM137.616 210.678C137.616 211.482 137.268 212.106 136.572 212.55C135.888 212.994 134.94 213.216 133.728 213.216C132.516 213.216 131.454 212.994 130.542 212.55V211.182C131.418 211.65 132.42 211.884 133.548 211.884C135.3 211.884 136.176 211.428 136.176 210.516C136.176 209.688 135.54 209.274 134.268 209.274H132.378V207.942H134.268C135.42 207.942 135.996 207.57 135.996 206.826C135.996 206.37 135.78 206.028 135.348 205.8C134.916 205.572 134.34 205.458 133.62 205.458C132.576 205.458 131.598 205.686 130.686 206.142V204.792C131.658 204.348 132.69 204.126 133.782 204.126C134.958 204.126 135.858 204.354 136.482 204.81C137.118 205.254 137.436 205.86 137.436 206.628C137.436 207.144 137.292 207.57 137.004 207.906C136.716 208.242 136.326 208.464 135.834 208.572C136.35 208.704 136.776 208.956 137.112 209.328C137.448 209.7 137.616 210.15 137.616 210.678ZM140.956 213H139.732V204.36H141.172V210.678L146.464 204.36H147.688V213H146.248V206.682L140.956 213ZM151.79 213H150.35V204.36H151.79V208.014H156.794V204.36H158.234V213H156.794V209.346H151.79V213ZM173.227 203.874C173.227 204.498 173.059 205.062 172.723 205.566C172.399 206.058 171.973 206.394 171.445 206.574C172.069 206.766 172.603 207.12 173.047 207.636C173.503 208.14 173.731 208.818 173.731 209.67C173.731 210.81 173.305 211.686 172.453 212.298C171.613 212.91 170.545 213.216 169.249 213.216C167.605 213.216 166.183 212.946 164.983 212.406V210.912C166.147 211.512 167.527 211.806 169.123 211.794C171.223 211.794 172.273 211.062 172.273 209.598C172.273 208.134 171.277 207.402 169.285 207.402H167.413V205.962L169.123 205.98C169.987 205.98 170.641 205.8 171.085 205.44C171.541 205.068 171.769 204.588 171.769 204C171.769 203.364 171.517 202.866 171.013 202.506C170.509 202.134 169.795 201.948 168.871 201.948C167.599 201.948 166.375 202.26 165.199 202.884V201.408C166.327 200.832 167.617 200.544 169.069 200.544C170.317 200.544 171.319 200.85 172.075 201.462C172.843 202.074 173.227 202.878 173.227 203.874Z" fill="#454545"/>
<path d="M99.356 239.4H100.652V252H99.14V242.262L94.622 249.03H93.686L89.168 242.262V252H87.656V239.4H88.952L94.154 247.176L99.356 239.4ZM110.524 250.2C110.524 250.644 110.746 250.866 111.19 250.866C111.382 250.866 111.604 250.824 111.856 250.74V251.91C111.496 252.042 111.136 252.108 110.776 252.108C109.948 252.108 109.42 251.76 109.192 251.064C108.268 251.832 107.146 252.216 105.826 252.216C104.986 252.216 104.266 251.994 103.666 251.55C103.078 251.094 102.784 250.44 102.784 249.588C102.784 248.568 103.162 247.83 103.918 247.374C104.686 246.906 105.61 246.672 106.69 246.672C107.482 246.672 108.28 246.762 109.084 246.942V246.636C109.084 245.976 108.868 245.454 108.436 245.07C108.004 244.674 107.398 244.476 106.618 244.476C105.526 244.476 104.476 244.692 103.468 245.124V243.72C104.596 243.336 105.694 243.144 106.762 243.144C107.938 243.144 108.856 243.462 109.516 244.098C110.188 244.722 110.524 245.628 110.524 246.816V250.2ZM104.26 249.516C104.26 249.996 104.44 250.362 104.8 250.614C105.172 250.854 105.616 250.974 106.132 250.974C107.32 250.974 108.304 250.554 109.084 249.714V248.13C108.268 247.962 107.536 247.878 106.888 247.878C106.156 247.878 105.532 248.01 105.016 248.274C104.512 248.526 104.26 248.94 104.26 249.516ZM114.84 252H113.4V243.36H119.718V244.692H114.84V252ZM128.278 250.2C128.278 250.644 128.5 250.866 128.944 250.866C129.136 250.866 129.358 250.824 129.61 250.74V251.91C129.25 252.042 128.89 252.108 128.53 252.108C127.702 252.108 127.174 251.76 126.946 251.064C126.022 251.832 124.9 252.216 123.58 252.216C122.74 252.216 122.02 251.994 121.42 251.55C120.832 251.094 120.538 250.44 120.538 249.588C120.538 248.568 120.916 247.83 121.672 247.374C122.44 246.906 123.364 246.672 124.444 246.672C125.236 246.672 126.034 246.762 126.838 246.942V246.636C126.838 245.976 126.622 245.454 126.19 245.07C125.758 244.674 125.152 244.476 124.372 244.476C123.28 244.476 122.23 244.692 121.222 245.124V243.72C122.35 243.336 123.448 243.144 124.516 243.144C125.692 243.144 126.61 243.462 127.27 244.098C127.942 244.722 128.278 245.628 128.278 246.816V250.2ZM122.014 249.516C122.014 249.996 122.194 250.362 122.554 250.614C122.926 250.854 123.37 250.974 123.886 250.974C125.074 250.974 126.058 250.554 126.838 249.714V248.13C126.022 247.962 125.29 247.878 124.642 247.878C123.91 247.878 123.286 248.01 122.77 248.274C122.266 248.526 122.014 248.94 122.014 249.516ZM137.616 249.678C137.616 250.482 137.268 251.106 136.572 251.55C135.888 251.994 134.94 252.216 133.728 252.216C132.516 252.216 131.454 251.994 130.542 251.55V250.182C131.418 250.65 132.42 250.884 133.548 250.884C135.3 250.884 136.176 250.428 136.176 249.516C136.176 248.688 135.54 248.274 134.268 248.274H132.378V246.942H134.268C135.42 246.942 135.996 246.57 135.996 245.826C135.996 245.37 135.78 245.028 135.348 244.8C134.916 244.572 134.34 244.458 133.62 244.458C132.576 244.458 131.598 244.686 130.686 245.142V243.792C131.658 243.348 132.69 243.126 133.782 243.126C134.958 243.126 135.858 243.354 136.482 243.81C137.118 244.254 137.436 244.86 137.436 245.628C137.436 246.144 137.292 246.57 137.004 246.906C136.716 247.242 136.326 247.464 135.834 247.572C136.35 247.704 136.776 247.956 137.112 248.328C137.448 248.7 137.616 249.15 137.616 249.678ZM140.956 252H139.732V243.36H141.172V249.678L146.464 243.36H147.688V252H146.248V245.682L140.956 252ZM151.79 252H150.35V243.36H151.79V247.014H156.794V243.36H158.234V252H156.794V248.346H151.79V252ZM171.175 239.76H172.813V247.878H175.117V249.282H172.813V252H171.319V249.282H164.497V247.932L171.175 239.76ZM171.319 247.878V241.794L166.351 247.878H171.319Z" fill="#454545"/>
<path d="M99.356 278.4H100.652V291H99.14V281.262L94.622 288.03H93.686L89.168 281.262V291H87.656V278.4H88.952L94.154 286.176L99.356 278.4ZM110.524 289.2C110.524 289.644 110.746 289.866 111.19 289.866C111.382 289.866 111.604 289.824 111.856 289.74V290.91C111.496 291.042 111.136 291.108 110.776 291.108C109.948 291.108 109.42 290.76 109.192 290.064C108.268 290.832 107.146 291.216 105.826 291.216C104.986 291.216 104.266 290.994 103.666 290.55C103.078 290.094 102.784 289.44 102.784 288.588C102.784 287.568 103.162 286.83 103.918 286.374C104.686 285.906 105.61 285.672 106.69 285.672C107.482 285.672 108.28 285.762 109.084 285.942V285.636C109.084 284.976 108.868 284.454 108.436 284.07C108.004 283.674 107.398 283.476 106.618 283.476C105.526 283.476 104.476 283.692 103.468 284.124V282.72C104.596 282.336 105.694 282.144 106.762 282.144C107.938 282.144 108.856 282.462 109.516 283.098C110.188 283.722 110.524 284.628 110.524 285.816V289.2ZM104.26 288.516C104.26 288.996 104.44 289.362 104.8 289.614C105.172 289.854 105.616 289.974 106.132 289.974C107.32 289.974 108.304 289.554 109.084 288.714V287.13C108.268 286.962 107.536 286.878 106.888 286.878C106.156 286.878 105.532 287.01 105.016 287.274C104.512 287.526 104.26 287.94 104.26 288.516ZM114.84 291H113.4V282.36H119.718V283.692H114.84V291ZM128.278 289.2C128.278 289.644 128.5 289.866 128.944 289.866C129.136 289.866 129.358 289.824 129.61 289.74V290.91C129.25 291.042 128.89 291.108 128.53 291.108C127.702 291.108 127.174 290.76 126.946 290.064C126.022 290.832 124.9 291.216 123.58 291.216C122.74 291.216 122.02 290.994 121.42 290.55C120.832 290.094 120.538 289.44 120.538 288.588C120.538 287.568 120.916 286.83 121.672 286.374C122.44 285.906 123.364 285.672 124.444 285.672C125.236 285.672 126.034 285.762 126.838 285.942V285.636C126.838 284.976 126.622 284.454 126.19 284.07C125.758 283.674 125.152 283.476 124.372 283.476C123.28 283.476 122.23 283.692 121.222 284.124V282.72C122.35 282.336 123.448 282.144 124.516 282.144C125.692 282.144 126.61 282.462 127.27 283.098C127.942 283.722 128.278 284.628 128.278 285.816V289.2ZM122.014 288.516C122.014 288.996 122.194 289.362 122.554 289.614C122.926 289.854 123.37 289.974 123.886 289.974C125.074 289.974 126.058 289.554 126.838 288.714V287.13C126.022 286.962 125.29 286.878 124.642 286.878C123.91 286.878 123.286 287.01 122.77 287.274C122.266 287.526 122.014 287.94 122.014 288.516ZM137.616 288.678C137.616 289.482 137.268 290.106 136.572 290.55C135.888 290.994 134.94 291.216 133.728 291.216C132.516 291.216 131.454 290.994 130.542 290.55V289.182C131.418 289.65 132.42 289.884 133.548 289.884C135.3 289.884 136.176 289.428 136.176 288.516C136.176 287.688 135.54 287.274 134.268 287.274H132.378V285.942H134.268C135.42 285.942 135.996 285.57 135.996 284.826C135.996 284.37 135.78 284.028 135.348 283.8C134.916 283.572 134.34 283.458 133.62 283.458C132.576 283.458 131.598 283.686 130.686 284.142V282.792C131.658 282.348 132.69 282.126 133.782 282.126C134.958 282.126 135.858 282.354 136.482 282.81C137.118 283.254 137.436 283.86 137.436 284.628C137.436 285.144 137.292 285.57 137.004 285.906C136.716 286.242 136.326 286.464 135.834 286.572C136.35 286.704 136.776 286.956 137.112 287.328C137.448 287.7 137.616 288.15 137.616 288.678ZM140.956 291H139.732V282.36H141.172V288.678L146.464 282.36H147.688V291H146.248V284.682L140.956 291ZM151.79 291H150.35V282.36H151.79V286.014H156.794V282.36H158.234V291H156.794V287.346H151.79V291ZM165.739 278.76H173.083V280.2H167.161L166.945 283.656C167.593 283.476 168.289 283.386 169.033 283.386C169.645 283.386 170.215 283.458 170.743 283.602C171.271 283.734 171.757 283.95 172.201 284.25C172.657 284.538 173.017 284.946 173.281 285.474C173.545 285.99 173.677 286.602 173.677 287.31C173.677 288.522 173.227 289.476 172.327 290.172C171.439 290.868 170.305 291.216 168.925 291.216C167.437 291.216 166.129 290.94 165.001 290.388V288.948C166.081 289.524 167.329 289.812 168.745 289.812C169.777 289.812 170.599 289.596 171.211 289.164C171.835 288.732 172.147 288.114 172.147 287.31C172.147 285.606 170.935 284.754 168.511 284.754C167.455 284.754 166.399 284.946 165.343 285.33L165.739 278.76Z" fill="#454545"/>
<path d="M99.356 317.4H100.652V330H99.14V320.262L94.622 327.03H93.686L89.168 320.262V330H87.656V317.4H88.952L94.154 325.176L99.356 317.4ZM110.524 328.2C110.524 328.644 110.746 328.866 111.19 328.866C111.382 328.866 111.604 328.824 111.856 328.74V329.91C111.496 330.042 111.136 330.108 110.776 330.108C109.948 330.108 109.42 329.76 109.192 329.064C108.268 329.832 107.146 330.216 105.826 330.216C104.986 330.216 104.266 329.994 103.666 329.55C103.078 329.094 102.784 328.44 102.784 327.588C102.784 326.568 103.162 325.83 103.918 325.374C104.686 324.906 105.61 324.672 106.69 324.672C107.482 324.672 108.28 324.762 109.084 324.942V324.636C109.084 323.976 108.868 323.454 108.436 323.07C108.004 322.674 107.398 322.476 106.618 322.476C105.526 322.476 104.476 322.692 103.468 323.124V321.72C104.596 321.336 105.694 321.144 106.762 321.144C107.938 321.144 108.856 321.462 109.516 322.098C110.188 322.722 110.524 323.628 110.524 324.816V328.2ZM104.26 327.516C104.26 327.996 104.44 328.362 104.8 328.614C105.172 328.854 105.616 328.974 106.132 328.974C107.32 328.974 108.304 328.554 109.084 327.714V326.13C108.268 325.962 107.536 325.878 106.888 325.878C106.156 325.878 105.532 326.01 105.016 326.274C104.512 326.526 104.26 326.94 104.26 327.516ZM114.84 330H113.4V321.36H119.718V322.692H114.84V330ZM128.278 328.2C128.278 328.644 128.5 328.866 128.944 328.866C129.136 328.866 129.358 328.824 129.61 328.74V329.91C129.25 330.042 128.89 330.108 128.53 330.108C127.702 330.108 127.174 329.76 126.946 329.064C126.022 329.832 124.9 330.216 123.58 330.216C122.74 330.216 122.02 329.994 121.42 329.55C120.832 329.094 120.538 328.44 120.538 327.588C120.538 326.568 120.916 325.83 121.672 325.374C122.44 324.906 123.364 324.672 124.444 324.672C125.236 324.672 126.034 324.762 126.838 324.942V324.636C126.838 323.976 126.622 323.454 126.19 323.07C125.758 322.674 125.152 322.476 124.372 322.476C123.28 322.476 122.23 322.692 121.222 323.124V321.72C122.35 321.336 123.448 321.144 124.516 321.144C125.692 321.144 126.61 321.462 127.27 322.098C127.942 322.722 128.278 323.628 128.278 324.816V328.2ZM122.014 327.516C122.014 327.996 122.194 328.362 122.554 328.614C122.926 328.854 123.37 328.974 123.886 328.974C125.074 328.974 126.058 328.554 126.838 327.714V326.13C126.022 325.962 125.29 325.878 124.642 325.878C123.91 325.878 123.286 326.01 122.77 326.274C122.266 326.526 122.014 326.94 122.014 327.516ZM137.616 327.678C137.616 328.482 137.268 329.106 136.572 329.55C135.888 329.994 134.94 330.216 133.728 330.216C132.516 330.216 131.454 329.994 130.542 329.55V328.182C131.418 328.65 132.42 328.884 133.548 328.884C135.3 328.884 136.176 328.428 136.176 327.516C136.176 326.688 135.54 326.274 134.268 326.274H132.378V324.942H134.268C135.42 324.942 135.996 324.57 135.996 323.826C135.996 323.37 135.78 323.028 135.348 322.8C134.916 322.572 134.34 322.458 133.62 322.458C132.576 322.458 131.598 322.686 130.686 323.142V321.792C131.658 321.348 132.69 321.126 133.782 321.126C134.958 321.126 135.858 321.354 136.482 321.81C137.118 322.254 137.436 322.86 137.436 323.628C137.436 324.144 137.292 324.57 137.004 324.906C136.716 325.242 136.326 325.464 135.834 325.572C136.35 325.704 136.776 325.956 137.112 326.328C137.448 326.7 137.616 327.15 137.616 327.678ZM140.956 330H139.732V321.36H141.172V327.678L146.464 321.36H147.688V330H146.248V323.682L140.956 330ZM151.79 330H150.35V321.36H151.79V325.014H156.794V321.36H158.234V330H156.794V326.346H151.79V330ZM166.513 323.538C167.677 322.758 168.955 322.368 170.347 322.368C171.463 322.368 172.441 322.71 173.281 323.394C174.121 324.066 174.541 325.002 174.541 326.202C174.541 327.462 174.121 328.446 173.281 329.154C172.453 329.862 171.409 330.216 170.149 330.216C168.421 330.216 167.125 329.682 166.261 328.614C165.409 327.534 164.983 326.022 164.983 324.078C164.983 321.918 165.493 320.292 166.513 319.2C167.545 318.096 168.889 317.544 170.545 317.544C171.613 317.544 172.603 317.778 173.515 318.246V319.686C172.627 319.218 171.649 318.984 170.581 318.984C169.453 318.984 168.511 319.35 167.755 320.082C167.011 320.802 166.597 321.954 166.513 323.538ZM166.531 325.05C166.759 327.558 167.929 328.812 170.041 328.812C170.929 328.812 171.643 328.608 172.183 328.2C172.735 327.792 173.011 327.15 173.011 326.274C173.011 325.386 172.729 324.75 172.165 324.366C171.601 323.97 170.869 323.772 169.969 323.772C168.637 323.772 167.491 324.198 166.531 325.05Z" fill="#454545"/>
<path d="M99.356 356.4H100.652V369H99.14V359.262L94.622 366.03H93.686L89.168 359.262V369H87.656V356.4H88.952L94.154 364.176L99.356 356.4ZM110.524 367.2C110.524 367.644 110.746 367.866 111.19 367.866C111.382 367.866 111.604 367.824 111.856 367.74V368.91C111.496 369.042 111.136 369.108 110.776 369.108C109.948 369.108 109.42 368.76 109.192 368.064C108.268 368.832 107.146 369.216 105.826 369.216C104.986 369.216 104.266 368.994 103.666 368.55C103.078 368.094 102.784 367.44 102.784 366.588C102.784 365.568 103.162 364.83 103.918 364.374C104.686 363.906 105.61 363.672 106.69 363.672C107.482 363.672 108.28 363.762 109.084 363.942V363.636C109.084 362.976 108.868 362.454 108.436 362.07C108.004 361.674 107.398 361.476 106.618 361.476C105.526 361.476 104.476 361.692 103.468 362.124V360.72C104.596 360.336 105.694 360.144 106.762 360.144C107.938 360.144 108.856 360.462 109.516 361.098C110.188 361.722 110.524 362.628 110.524 363.816V367.2ZM104.26 366.516C104.26 366.996 104.44 367.362 104.8 367.614C105.172 367.854 105.616 367.974 106.132 367.974C107.32 367.974 108.304 367.554 109.084 366.714V365.13C108.268 364.962 107.536 364.878 106.888 364.878C106.156 364.878 105.532 365.01 105.016 365.274C104.512 365.526 104.26 365.94 104.26 366.516ZM114.84 369H113.4V360.36H119.718V361.692H114.84V369ZM128.278 367.2C128.278 367.644 128.5 367.866 128.944 367.866C129.136 367.866 129.358 367.824 129.61 367.74V368.91C129.25 369.042 128.89 369.108 128.53 369.108C127.702 369.108 127.174 368.76 126.946 368.064C126.022 368.832 124.9 369.216 123.58 369.216C122.74 369.216 122.02 368.994 121.42 368.55C120.832 368.094 120.538 367.44 120.538 366.588C120.538 365.568 120.916 364.83 121.672 364.374C122.44 363.906 123.364 363.672 124.444 363.672C125.236 363.672 126.034 363.762 126.838 363.942V363.636C126.838 362.976 126.622 362.454 126.19 362.07C125.758 361.674 125.152 361.476 124.372 361.476C123.28 361.476 122.23 361.692 121.222 362.124V360.72C122.35 360.336 123.448 360.144 124.516 360.144C125.692 360.144 126.61 360.462 127.27 361.098C127.942 361.722 128.278 362.628 128.278 363.816V367.2ZM122.014 366.516C122.014 366.996 122.194 367.362 122.554 367.614C122.926 367.854 123.37 367.974 123.886 367.974C125.074 367.974 126.058 367.554 126.838 366.714V365.13C126.022 364.962 125.29 364.878 124.642 364.878C123.91 364.878 123.286 365.01 122.77 365.274C122.266 365.526 122.014 365.94 122.014 366.516ZM137.616 366.678C137.616 367.482 137.268 368.106 136.572 368.55C135.888 368.994 134.94 369.216 133.728 369.216C132.516 369.216 131.454 368.994 130.542 368.55V367.182C131.418 367.65 132.42 367.884 133.548 367.884C135.3 367.884 136.176 367.428 136.176 366.516C136.176 365.688 135.54 365.274 134.268 365.274H132.378V363.942H134.268C135.42 363.942 135.996 363.57 135.996 362.826C135.996 362.37 135.78 362.028 135.348 361.8C134.916 361.572 134.34 361.458 133.62 361.458C132.576 361.458 131.598 361.686 130.686 362.142V360.792C131.658 360.348 132.69 360.126 133.782 360.126C134.958 360.126 135.858 360.354 136.482 360.81C137.118 361.254 137.436 361.86 137.436 362.628C137.436 363.144 137.292 363.57 137.004 363.906C136.716 364.242 136.326 364.464 135.834 364.572C136.35 364.704 136.776 364.956 137.112 365.328C137.448 365.7 137.616 366.15 137.616 366.678ZM140.956 369H139.732V360.36H141.172V366.678L146.464 360.36H147.688V369H146.248V362.682L140.956 369ZM151.79 369H150.35V360.36H151.79V364.014H156.794V360.36H158.234V369H156.794V365.346H151.79V369ZM164.533 356.76H173.353V358.128L168.241 369H166.621L171.697 358.2H164.533V356.76Z" fill="#454545"/>
<path d="M248.305 84.4H258.691V86.29H254.533V97H252.481V86.29H248.305V84.4ZM258.964 96.028C258.052 95.224 257.596 94.108 257.596 92.68C257.596 91.252 258.052 90.136 258.964 89.332C259.888 88.528 260.992 88.126 262.276 88.126C263.572 88.126 264.676 88.528 265.588 89.332C266.5 90.136 266.956 91.252 266.956 92.68C266.956 94.108 266.5 95.224 265.588 96.028C264.676 96.832 263.572 97.234 262.276 97.234C260.992 97.234 259.888 96.832 258.964 96.028ZM264.238 94.714C264.742 94.198 264.994 93.52 264.994 92.68C264.994 91.84 264.742 91.168 264.238 90.664C263.734 90.148 263.08 89.89 262.276 89.89C261.46 89.89 260.8 90.148 260.296 90.664C259.792 91.168 259.54 91.84 259.54 92.68C259.54 93.52 259.792 94.198 260.296 94.714C260.8 95.218 261.46 95.47 262.276 95.47C263.08 95.47 263.734 95.218 264.238 94.714ZM273.899 97H268.823V88.36H273.755C274.607 88.36 275.273 88.576 275.753 89.008C276.245 89.428 276.491 89.98 276.491 90.664C276.491 91.612 276.083 92.266 275.267 92.626C275.699 92.758 276.053 92.998 276.329 93.346C276.605 93.694 276.743 94.12 276.743 94.624C276.743 95.332 276.503 95.908 276.023 96.352C275.555 96.784 274.847 97 273.899 97ZM270.749 93.328V95.542H273.431C274.343 95.542 274.799 95.176 274.799 94.444C274.799 93.7 274.355 93.328 273.467 93.328H270.749ZM270.749 89.818V91.96H273.323C274.139 91.96 274.547 91.612 274.547 90.916C274.547 90.532 274.427 90.256 274.187 90.088C273.959 89.908 273.671 89.818 273.323 89.818H270.749ZM286.047 95.002C286.047 95.422 286.257 95.632 286.677 95.632C286.821 95.632 287.013 95.596 287.253 95.524V96.91C286.893 97.054 286.485 97.126 286.029 97.126C285.165 97.126 284.589 96.79 284.301 96.118C283.377 96.862 282.291 97.234 281.043 97.234C280.203 97.234 279.489 97.006 278.901 96.55C278.313 96.082 278.019 95.428 278.019 94.588C278.019 93.58 278.397 92.848 279.153 92.392C279.909 91.924 280.815 91.69 281.871 91.69C282.567 91.69 283.317 91.774 284.121 91.942V91.636C284.121 91.084 283.923 90.64 283.527 90.304C283.131 89.968 282.573 89.8 281.853 89.8C280.785 89.8 279.747 90.022 278.739 90.466V88.702C279.867 88.318 280.971 88.126 282.051 88.126C283.311 88.126 284.289 88.438 284.985 89.062C285.693 89.686 286.047 90.634 286.047 91.906V95.002ZM282.249 93.04C281.613 93.04 281.079 93.154 280.647 93.382C280.215 93.61 279.999 93.97 279.999 94.462C279.999 94.87 280.155 95.188 280.467 95.416C280.779 95.632 281.163 95.74 281.619 95.74C282.603 95.74 283.437 95.398 284.121 94.714V93.256C283.425 93.112 282.801 93.04 282.249 93.04ZM290.414 89.71C291.29 88.654 292.4 88.126 293.744 88.126C295.016 88.126 296.048 88.57 296.84 89.458C297.632 90.334 298.028 91.408 298.028 92.68C298.028 93.952 297.632 95.032 296.84 95.92C296.048 96.796 295.016 97.234 293.744 97.234C292.448 97.234 291.41 96.784 290.63 95.884V100.96H288.704V88.36H290.414V89.71ZM295.31 94.75C295.814 94.21 296.066 93.52 296.066 92.68C296.066 91.84 295.814 91.156 295.31 90.628C294.806 90.088 294.164 89.818 293.384 89.818C292.748 89.818 292.184 89.992 291.692 90.34C291.212 90.688 290.858 91.114 290.63 91.618V93.724C290.858 94.24 291.212 94.672 291.692 95.02C292.184 95.368 292.748 95.542 293.384 95.542C294.164 95.542 294.806 95.278 295.31 94.75ZM306.855 84.76H308.367V95.146H310.545V97H303.885V95.146H306.333V86.866L303.885 87.784V85.894L306.855 84.76Z" fill="#454545"/>
<path d="M388.539 84.4H398.925V86.29H394.767V97H392.715V86.29H388.539V84.4ZM399.198 96.028C398.286 95.224 397.83 94.108 397.83 92.68C397.83 91.252 398.286 90.136 399.198 89.332C400.122 88.528 401.226 88.126 402.51 88.126C403.806 88.126 404.91 88.528 405.822 89.332C406.734 90.136 407.19 91.252 407.19 92.68C407.19 94.108 406.734 95.224 405.822 96.028C404.91 96.832 403.806 97.234 402.51 97.234C401.226 97.234 400.122 96.832 399.198 96.028ZM404.472 94.714C404.976 94.198 405.228 93.52 405.228 92.68C405.228 91.84 404.976 91.168 404.472 90.664C403.968 90.148 403.314 89.89 402.51 89.89C401.694 89.89 401.034 90.148 400.53 90.664C400.026 91.168 399.774 91.84 399.774 92.68C399.774 93.52 400.026 94.198 400.53 94.714C401.034 95.218 401.694 95.47 402.51 95.47C403.314 95.47 403.968 95.218 404.472 94.714ZM414.134 97H409.058V88.36H413.99C414.842 88.36 415.508 88.576 415.988 89.008C416.48 89.428 416.726 89.98 416.726 90.664C416.726 91.612 416.318 92.266 415.502 92.626C415.934 92.758 416.288 92.998 416.564 93.346C416.84 93.694 416.978 94.12 416.978 94.624C416.978 95.332 416.738 95.908 416.258 96.352C415.79 96.784 415.082 97 414.134 97ZM410.984 93.328V95.542H413.666C414.578 95.542 415.034 95.176 415.034 94.444C415.034 93.7 414.59 93.328 413.702 93.328H410.984ZM410.984 89.818V91.96H413.558C414.374 91.96 414.782 91.612 414.782 90.916C414.782 90.532 414.662 90.256 414.422 90.088C414.194 89.908 413.906 89.818 413.558 89.818H410.984ZM426.281 95.002C426.281 95.422 426.491 95.632 426.911 95.632C427.055 95.632 427.247 95.596 427.487 95.524V96.91C427.127 97.054 426.719 97.126 426.263 97.126C425.399 97.126 424.823 96.79 424.535 96.118C423.611 96.862 422.525 97.234 421.277 97.234C420.437 97.234 419.723 97.006 419.135 96.55C418.547 96.082 418.253 95.428 418.253 94.588C418.253 93.58 418.631 92.848 419.387 92.392C420.143 91.924 421.049 91.69 422.105 91.69C422.801 91.69 423.551 91.774 424.355 91.942V91.636C424.355 91.084 424.157 90.64 423.761 90.304C423.365 89.968 422.807 89.8 422.087 89.8C421.019 89.8 419.981 90.022 418.973 90.466V88.702C420.101 88.318 421.205 88.126 422.285 88.126C423.545 88.126 424.523 88.438 425.219 89.062C425.927 89.686 426.281 90.634 426.281 91.906V95.002ZM422.483 93.04C421.847 93.04 421.313 93.154 420.881 93.382C420.449 93.61 420.233 93.97 420.233 94.462C420.233 94.87 420.389 95.188 420.701 95.416C421.013 95.632 421.397 95.74 421.853 95.74C422.837 95.74 423.671 95.398 424.355 94.714V93.256C423.659 93.112 423.035 93.04 422.483 93.04ZM430.648 89.71C431.524 88.654 432.634 88.126 433.978 88.126C435.25 88.126 436.282 88.57 437.074 89.458C437.866 90.334 438.262 91.408 438.262 92.68C438.262 93.952 437.866 95.032 437.074 95.92C436.282 96.796 435.25 97.234 433.978 97.234C432.682 97.234 431.644 96.784 430.864 95.884V100.96H428.938V88.36H430.648V89.71ZM435.544 94.75C436.048 94.21 436.3 93.52 436.3 92.68C436.3 91.84 436.048 91.156 435.544 90.628C435.04 90.088 434.398 89.818 433.618 89.818C432.982 89.818 432.418 89.992 431.926 90.34C431.446 90.688 431.092 91.114 430.864 91.618V93.724C431.092 94.24 431.446 94.672 431.926 95.02C432.418 95.368 432.982 95.542 433.618 95.542C434.398 95.542 435.04 95.278 435.544 94.75ZM444.372 85.768C445.584 84.94 446.94 84.526 448.44 84.526C449.724 84.526 450.762 84.826 451.554 85.426C452.346 86.014 452.742 86.86 452.742 87.964C452.742 88.888 452.436 89.68 451.824 90.34C451.224 90.988 450.402 91.624 449.358 92.248C449.274 92.296 449.118 92.386 448.89 92.518C448.674 92.65 448.518 92.746 448.422 92.806C448.338 92.854 448.2 92.938 448.008 93.058C447.816 93.178 447.672 93.268 447.576 93.328C447.492 93.388 447.372 93.478 447.216 93.598C447.072 93.706 446.964 93.802 446.892 93.886C446.82 93.958 446.736 94.054 446.64 94.174C446.544 94.282 446.472 94.384 446.424 94.48C446.388 94.576 446.352 94.684 446.316 94.804C446.28 94.924 446.262 95.044 446.262 95.164L452.832 95.146V97H443.958V96.064C443.958 95.392 444.048 94.798 444.228 94.282C444.42 93.754 444.75 93.274 445.218 92.842C445.698 92.398 446.07 92.086 446.334 91.906C446.598 91.714 447.066 91.42 447.738 91.024C447.798 90.976 447.846 90.94 447.882 90.916C447.93 90.892 447.978 90.868 448.026 90.844C449.034 90.256 449.682 89.83 449.97 89.566C450.45 89.098 450.69 88.576 450.69 88C450.69 87.472 450.474 87.07 450.042 86.794C449.622 86.518 449.028 86.38 448.26 86.38C446.928 86.38 445.632 86.836 444.372 87.748V85.768Z" fill="#454545"/>
<path d="M530.478 84.4H540.864V86.29H536.706V97H534.654V86.29H530.478V84.4ZM541.137 96.028C540.225 95.224 539.769 94.108 539.769 92.68C539.769 91.252 540.225 90.136 541.137 89.332C542.061 88.528 543.165 88.126 544.449 88.126C545.745 88.126 546.849 88.528 547.761 89.332C548.673 90.136 549.129 91.252 549.129 92.68C549.129 94.108 548.673 95.224 547.761 96.028C546.849 96.832 545.745 97.234 544.449 97.234C543.165 97.234 542.061 96.832 541.137 96.028ZM546.411 94.714C546.915 94.198 547.167 93.52 547.167 92.68C547.167 91.84 546.915 91.168 546.411 90.664C545.907 90.148 545.253 89.89 544.449 89.89C543.633 89.89 542.973 90.148 542.469 90.664C541.965 91.168 541.713 91.84 541.713 92.68C541.713 93.52 541.965 94.198 542.469 94.714C542.973 95.218 543.633 95.47 544.449 95.47C545.253 95.47 545.907 95.218 546.411 94.714ZM556.072 97H550.996V88.36H555.928C556.78 88.36 557.446 88.576 557.926 89.008C558.418 89.428 558.664 89.98 558.664 90.664C558.664 91.612 558.256 92.266 557.44 92.626C557.872 92.758 558.226 92.998 558.502 93.346C558.778 93.694 558.916 94.12 558.916 94.624C558.916 95.332 558.676 95.908 558.196 96.352C557.728 96.784 557.02 97 556.072 97ZM552.922 93.328V95.542H555.604C556.516 95.542 556.972 95.176 556.972 94.444C556.972 93.7 556.528 93.328 555.64 93.328H552.922ZM552.922 89.818V91.96H555.496C556.312 91.96 556.72 91.612 556.72 90.916C556.72 90.532 556.6 90.256 556.36 90.088C556.132 89.908 555.844 89.818 555.496 89.818H552.922ZM568.219 95.002C568.219 95.422 568.429 95.632 568.849 95.632C568.993 95.632 569.185 95.596 569.425 95.524V96.91C569.065 97.054 568.657 97.126 568.201 97.126C567.337 97.126 566.761 96.79 566.473 96.118C565.549 96.862 564.463 97.234 563.215 97.234C562.375 97.234 561.661 97.006 561.073 96.55C560.485 96.082 560.191 95.428 560.191 94.588C560.191 93.58 560.569 92.848 561.325 92.392C562.081 91.924 562.987 91.69 564.043 91.69C564.739 91.69 565.489 91.774 566.293 91.942V91.636C566.293 91.084 566.095 90.64 565.699 90.304C565.303 89.968 564.745 89.8 564.025 89.8C562.957 89.8 561.919 90.022 560.911 90.466V88.702C562.039 88.318 563.143 88.126 564.223 88.126C565.483 88.126 566.461 88.438 567.157 89.062C567.865 89.686 568.219 90.634 568.219 91.906V95.002ZM564.421 93.04C563.785 93.04 563.251 93.154 562.819 93.382C562.387 93.61 562.171 93.97 562.171 94.462C562.171 94.87 562.327 95.188 562.639 95.416C562.951 95.632 563.335 95.74 563.791 95.74C564.775 95.74 565.609 95.398 566.293 94.714V93.256C565.597 93.112 564.973 93.04 564.421 93.04ZM572.587 89.71C573.463 88.654 574.573 88.126 575.917 88.126C577.189 88.126 578.221 88.57 579.013 89.458C579.805 90.334 580.201 91.408 580.201 92.68C580.201 93.952 579.805 95.032 579.013 95.92C578.221 96.796 577.189 97.234 575.917 97.234C574.621 97.234 573.583 96.784 572.803 95.884V100.96H570.877V88.36H572.587V89.71ZM577.483 94.75C577.987 94.21 578.239 93.52 578.239 92.68C578.239 91.84 577.987 91.156 577.483 90.628C576.979 90.088 576.337 89.818 575.557 89.818C574.921 89.818 574.357 89.992 573.865 90.34C573.385 90.688 573.031 91.114 572.803 91.618V93.724C573.031 94.24 573.385 94.672 573.865 95.02C574.357 95.368 574.921 95.542 575.557 95.542C576.337 95.542 576.979 95.278 577.483 94.75ZM594.446 87.874C594.446 88.51 594.278 89.068 593.942 89.548C593.618 90.028 593.18 90.358 592.628 90.538C593.288 90.742 593.84 91.102 594.284 91.618C594.728 92.134 594.95 92.818 594.95 93.67C594.95 94.834 594.506 95.722 593.618 96.334C592.73 96.934 591.614 97.234 590.27 97.234C588.698 97.234 587.282 96.964 586.022 96.424V94.444C587.198 95.092 588.56 95.404 590.108 95.38C592.028 95.356 592.988 94.714 592.988 93.454C592.988 92.23 592.124 91.618 590.396 91.618H588.452V89.764L590.162 89.782C590.906 89.782 591.476 89.638 591.872 89.35C592.28 89.05 592.484 88.642 592.484 88.126C592.484 87.574 592.256 87.148 591.8 86.848C591.356 86.536 590.72 86.38 589.892 86.38C588.62 86.38 587.402 86.716 586.238 87.388V85.426C587.378 84.826 588.686 84.526 590.162 84.526C591.446 84.526 592.478 84.826 593.258 85.426C594.05 86.026 594.446 86.842 594.446 87.874Z" fill="#454545"/>
<rect x="527.5" y="120.5" width="71" height="19" rx="9.5" fill="#FFE6E4" stroke="#F64810"/>
<path d="M547.9 130.72C547.9 129.412 547.012 128.776 546.196 128.584C546.988 128.32 547.564 127.672 547.564 126.7C547.564 125.176 546.22 124.444 544.348 124.444C543.4 124.444 542.524 124.6 541.612 124.984V126.328C542.572 125.872 543.376 125.704 544.24 125.716C545.416 125.716 546.172 126.028 546.172 126.892C546.172 127.648 545.5 128.032 544.48 128.032H542.8V129.28H544.6C545.56 129.28 546.508 129.544 546.508 130.552C546.508 131.62 545.44 131.884 544.408 131.884C543.424 131.896 542.476 131.764 541.468 131.284V132.616C542.488 133 543.448 133.156 544.516 133.156C546.124 133.156 547.9 132.568 547.9 130.72ZM550.424 133V130.684H553.304V133H554.588V127.24H553.304V129.556H550.424V127.24H549.14V133H550.424ZM557.299 133L560.383 129.232V133H561.667V127.24H560.563L557.479 131.008V127.24H556.195V133H557.299ZM571.661 133L569.513 130.108L571.433 127.24H570.041L568.469 129.616H567.737V127.24H566.453V129.616H565.733L564.161 127.24H562.757L564.689 130.108L562.541 133H563.945L565.661 130.708H566.453V133H567.737V130.708H568.541L570.257 133H571.661ZM573.815 133V130.612H574.739L576.635 133H578.111L575.795 130.096L577.883 127.24H576.419L574.763 129.52H573.815V127.24H572.531V133H573.815ZM583.802 131.668V129.604C583.802 127.864 582.77 127.084 581.138 127.084C580.214 127.084 579.386 127.312 578.93 127.468V128.644C579.446 128.416 580.154 128.2 581.006 128.2C581.99 128.2 582.518 128.704 582.518 129.424V129.628C582.062 129.532 581.51 129.46 581.018 129.46C579.818 129.46 578.45 129.916 578.45 131.392C578.45 132.58 579.422 133.156 580.466 133.156C581.366 133.156 582.074 132.868 582.638 132.412C582.842 132.88 583.262 133.084 583.79 133.084C584.078 133.084 584.366 133.036 584.606 132.94V132.016C584.486 132.052 584.354 132.088 584.222 132.088C583.994 132.088 583.802 131.992 583.802 131.668ZM581.27 130.36C581.678 130.36 582.17 130.432 582.518 130.504V131.476C582.062 131.932 581.462 132.16 580.85 132.16C580.274 132.16 579.77 131.872 579.77 131.308C579.77 130.588 580.538 130.36 581.27 130.36Z" fill="#F64810"/>
<rect x="244.5" y="354.5" width="71" height="19" rx="9.5" fill="#FFE6E4" stroke="#F64810"/>
<path d="M264.9 364.72C264.9 363.412 264.012 362.776 263.196 362.584C263.988 362.32 264.564 361.672 264.564 360.7C264.564 359.176 263.22 358.444 261.348 358.444C260.4 358.444 259.524 358.6 258.612 358.984V360.328C259.572 359.872 260.376 359.704 261.24 359.716C262.416 359.716 263.172 360.028 263.172 360.892C263.172 361.648 262.5 362.032 261.48 362.032H259.8V363.28H261.6C262.56 363.28 263.508 363.544 263.508 364.552C263.508 365.62 262.44 365.884 261.408 365.884C260.424 365.896 259.476 365.764 258.468 365.284V366.616C259.488 367 260.448 367.156 261.516 367.156C263.124 367.156 264.9 366.568 264.9 364.72ZM267.424 367V364.684H270.304V367H271.588V361.24H270.304V363.556H267.424V361.24H266.14V367H267.424ZM274.299 367L277.383 363.232V367H278.667V361.24H277.563L274.479 365.008V361.24H273.195V367H274.299ZM288.661 367L286.513 364.108L288.433 361.24H287.041L285.469 363.616H284.737V361.24H283.453V363.616H282.733L281.161 361.24H279.757L281.689 364.108L279.541 367H280.945L282.661 364.708H283.453V367H284.737V364.708H285.541L287.257 367H288.661ZM290.815 367V364.612H291.739L293.635 367H295.111L292.795 364.096L294.883 361.24H293.419L291.763 363.52H290.815V361.24H289.531V367H290.815ZM300.802 365.668V363.604C300.802 361.864 299.77 361.084 298.138 361.084C297.214 361.084 296.386 361.312 295.93 361.468V362.644C296.446 362.416 297.154 362.2 298.006 362.2C298.99 362.2 299.518 362.704 299.518 363.424V363.628C299.062 363.532 298.51 363.46 298.018 363.46C296.818 363.46 295.45 363.916 295.45 365.392C295.45 366.58 296.422 367.156 297.466 367.156C298.366 367.156 299.074 366.868 299.638 366.412C299.842 366.88 300.262 367.084 300.79 367.084C301.078 367.084 301.366 367.036 301.606 366.94V366.016C301.486 366.052 301.354 366.088 301.222 366.088C300.994 366.088 300.802 365.992 300.802 365.668ZM298.27 364.36C298.678 364.36 299.17 364.432 299.518 364.504V365.476C299.062 365.932 298.462 366.16 297.85 366.16C297.274 366.16 296.77 365.872 296.77 365.308C296.77 364.588 297.538 364.36 298.27 364.36Z" fill="#F64810"/>
<rect x="385.5" y="354.5" width="71" height="19" rx="9.5" fill="#FFE6E4" stroke="#F64810"/>
<path d="M405.9 364.72C405.9 363.412 405.012 362.776 404.196 362.584C404.988 362.32 405.564 361.672 405.564 360.7C405.564 359.176 404.22 358.444 402.348 358.444C401.4 358.444 400.524 358.6 399.612 358.984V360.328C400.572 359.872 401.376 359.704 402.24 359.716C403.416 359.716 404.172 360.028 404.172 360.892C404.172 361.648 403.5 362.032 402.48 362.032H400.8V363.28H402.6C403.56 363.28 404.508 363.544 404.508 364.552C404.508 365.62 403.44 365.884 402.408 365.884C401.424 365.896 400.476 365.764 399.468 365.284V366.616C400.488 367 401.448 367.156 402.516 367.156C404.124 367.156 405.9 366.568 405.9 364.72ZM408.424 367V364.684H411.304V367H412.588V361.24H411.304V363.556H408.424V361.24H407.14V367H408.424ZM415.299 367L418.383 363.232V367H419.667V361.24H418.563L415.479 365.008V361.24H414.195V367H415.299ZM429.661 367L427.513 364.108L429.433 361.24H428.041L426.469 363.616H425.737V361.24H424.453V363.616H423.733L422.161 361.24H420.757L422.689 364.108L420.541 367H421.945L423.661 364.708H424.453V367H425.737V364.708H426.541L428.257 367H429.661ZM431.815 367V364.612H432.739L434.635 367H436.111L433.795 364.096L435.883 361.24H434.419L432.763 363.52H431.815V361.24H430.531V367H431.815ZM441.802 365.668V363.604C441.802 361.864 440.77 361.084 439.138 361.084C438.214 361.084 437.386 361.312 436.93 361.468V362.644C437.446 362.416 438.154 362.2 439.006 362.2C439.99 362.2 440.518 362.704 440.518 363.424V363.628C440.062 363.532 439.51 363.46 439.018 363.46C437.818 363.46 436.45 363.916 436.45 365.392C436.45 366.58 437.422 367.156 438.466 367.156C439.366 367.156 440.074 366.868 440.638 366.412C440.842 366.88 441.262 367.084 441.79 367.084C442.078 367.084 442.366 367.036 442.606 366.94V366.016C442.486 366.052 442.354 366.088 442.222 366.088C441.994 366.088 441.802 365.992 441.802 365.668ZM439.27 364.36C439.678 364.36 440.17 364.432 440.518 364.504V365.476C440.062 365.932 439.462 366.16 438.85 366.16C438.274 366.16 437.77 365.872 437.77 365.308C437.77 364.588 438.538 364.36 439.27 364.36Z" fill="#F64810"/>
<rect x="244.5" y="198.5" width="71" height="19" rx="9.5" fill="#FFEFDC" stroke="#F28100"/>
<path d="M254.512 212.908H253.264V209.752H254.272C255.168 208.12 255.616 205.736 255.616 202.6H261.028V209.752H262.096V212.908H260.848V211H254.512V212.908ZM256.96 203.86C256.792 206.58 256.392 208.544 255.76 209.752H259.66V203.86H256.96ZM263.661 210.352C263.053 209.816 262.749 209.072 262.749 208.12C262.749 207.168 263.053 206.424 263.661 205.888C264.277 205.352 265.013 205.084 265.869 205.084C266.733 205.084 267.469 205.352 268.077 205.888C268.685 206.424 268.989 207.168 268.989 208.12C268.989 209.072 268.685 209.816 268.077 210.352C267.469 210.888 266.733 211.156 265.869 211.156C265.013 211.156 264.277 210.888 263.661 210.352ZM267.177 209.476C267.513 209.132 267.681 208.68 267.681 208.12C267.681 207.56 267.513 207.112 267.177 206.776C266.841 206.432 266.405 206.26 265.869 206.26C265.325 206.26 264.885 206.432 264.549 206.776C264.213 207.112 264.045 207.56 264.045 208.12C264.045 208.68 264.213 209.132 264.549 209.476C264.885 209.812 265.325 209.98 265.869 209.98C266.405 209.98 266.841 209.812 267.177 209.476ZM269.874 208.168C269.874 207.168 270.19 206.404 270.822 205.876C271.454 205.348 272.198 205.084 273.054 205.084C273.742 205.084 274.334 205.232 274.83 205.528V206.704C274.382 206.384 273.85 206.224 273.234 206.224C272.666 206.224 272.182 206.384 271.782 206.704C271.382 207.016 271.182 207.488 271.182 208.12C271.182 208.736 271.378 209.208 271.77 209.536C272.17 209.856 272.65 210.016 273.21 210.016C273.818 210.016 274.378 209.868 274.89 209.572V210.76C274.338 211.024 273.702 211.156 272.982 211.156C272.142 211.156 271.414 210.9 270.798 210.388C270.182 209.868 269.874 209.128 269.874 208.168ZM278.851 211H277.567V206.368H275.575V205.24H280.831V206.368H278.851V211ZM286.673 209.668C286.673 209.948 286.813 210.088 287.093 210.088C287.189 210.088 287.317 210.064 287.477 210.016V210.94C287.237 211.036 286.965 211.084 286.661 211.084C286.085 211.084 285.701 210.86 285.509 210.412C284.893 210.908 284.169 211.156 283.337 211.156C282.777 211.156 282.301 211.004 281.909 210.7C281.517 210.388 281.321 209.952 281.321 209.392C281.321 208.72 281.573 208.232 282.077 207.928C282.581 207.616 283.185 207.46 283.889 207.46C284.353 207.46 284.853 207.516 285.389 207.628V207.424C285.389 207.056 285.257 206.76 284.993 206.536C284.729 206.312 284.357 206.2 283.877 206.2C283.165 206.2 282.473 206.348 281.801 206.644V205.468C282.553 205.212 283.289 205.084 284.009 205.084C284.849 205.084 285.501 205.292 285.965 205.708C286.437 206.124 286.673 206.756 286.673 207.604V209.668ZM284.141 208.36C283.717 208.36 283.361 208.436 283.073 208.588C282.785 208.74 282.641 208.98 282.641 209.308C282.641 209.58 282.745 209.792 282.953 209.944C283.161 210.088 283.417 210.16 283.721 210.16C284.377 210.16 284.933 209.932 285.389 209.476V208.504C284.925 208.408 284.509 208.36 284.141 208.36ZM291.829 211H288.445V205.24H291.733C292.301 205.24 292.745 205.384 293.065 205.672C293.393 205.952 293.557 206.32 293.557 206.776C293.557 207.408 293.285 207.844 292.741 208.084C293.029 208.172 293.265 208.332 293.449 208.564C293.633 208.796 293.725 209.08 293.725 209.416C293.725 209.888 293.565 210.272 293.245 210.568C292.933 210.856 292.461 211 291.829 211ZM289.729 208.552V210.028H291.517C292.125 210.028 292.429 209.784 292.429 209.296C292.429 208.8 292.133 208.552 291.541 208.552H289.729ZM289.729 206.212V207.64H291.445C291.989 207.64 292.261 207.408 292.261 206.944C292.261 206.688 292.181 206.504 292.021 206.392C291.869 206.272 291.677 206.212 291.445 206.212H289.729ZM296.303 211H295.019V205.24H296.303V207.52H297.251L298.907 205.24H300.371L298.283 208.096L300.599 211H299.123L297.227 208.612H296.303V211ZM306.29 209.668C306.29 209.948 306.43 210.088 306.71 210.088C306.806 210.088 306.934 210.064 307.094 210.016V210.94C306.854 211.036 306.582 211.084 306.278 211.084C305.702 211.084 305.318 210.86 305.126 210.412C304.51 210.908 303.786 211.156 302.954 211.156C302.394 211.156 301.918 211.004 301.526 210.7C301.134 210.388 300.938 209.952 300.938 209.392C300.938 208.72 301.19 208.232 301.694 207.928C302.198 207.616 302.802 207.46 303.506 207.46C303.97 207.46 304.47 207.516 305.006 207.628V207.424C305.006 207.056 304.874 206.76 304.61 206.536C304.346 206.312 303.974 206.2 303.494 206.2C302.782 206.2 302.09 206.348 301.418 206.644V205.468C302.17 205.212 302.906 205.084 303.626 205.084C304.466 205.084 305.118 205.292 305.582 205.708C306.054 206.124 306.29 206.756 306.29 207.604V209.668ZM303.758 208.36C303.334 208.36 302.978 208.436 302.69 208.588C302.402 208.74 302.258 208.98 302.258 209.308C302.258 209.58 302.362 209.792 302.57 209.944C302.778 210.088 303.034 210.16 303.338 210.16C303.994 210.16 304.55 209.932 305.006 209.476V208.504C304.542 208.408 304.126 208.36 303.758 208.36Z" fill="#F28100"/>
<rect x="527.5" y="198.5" width="71" height="19" rx="9.5" fill="#FFEFDC" stroke="#F28100"/>
<path d="M537.512 212.908H536.264V209.752H537.272C538.168 208.12 538.616 205.736 538.616 202.6H544.028V209.752H545.096V212.908H543.848V211H537.512V212.908ZM539.96 203.86C539.792 206.58 539.392 208.544 538.76 209.752H542.66V203.86H539.96ZM546.661 210.352C546.053 209.816 545.749 209.072 545.749 208.12C545.749 207.168 546.053 206.424 546.661 205.888C547.277 205.352 548.013 205.084 548.869 205.084C549.733 205.084 550.469 205.352 551.077 205.888C551.685 206.424 551.989 207.168 551.989 208.12C551.989 209.072 551.685 209.816 551.077 210.352C550.469 210.888 549.733 211.156 548.869 211.156C548.013 211.156 547.277 210.888 546.661 210.352ZM550.177 209.476C550.513 209.132 550.681 208.68 550.681 208.12C550.681 207.56 550.513 207.112 550.177 206.776C549.841 206.432 549.405 206.26 548.869 206.26C548.325 206.26 547.885 206.432 547.549 206.776C547.213 207.112 547.045 207.56 547.045 208.12C547.045 208.68 547.213 209.132 547.549 209.476C547.885 209.812 548.325 209.98 548.869 209.98C549.405 209.98 549.841 209.812 550.177 209.476ZM552.874 208.168C552.874 207.168 553.19 206.404 553.822 205.876C554.454 205.348 555.198 205.084 556.054 205.084C556.742 205.084 557.334 205.232 557.83 205.528V206.704C557.382 206.384 556.85 206.224 556.234 206.224C555.666 206.224 555.182 206.384 554.782 206.704C554.382 207.016 554.182 207.488 554.182 208.12C554.182 208.736 554.378 209.208 554.77 209.536C555.17 209.856 555.65 210.016 556.21 210.016C556.818 210.016 557.378 209.868 557.89 209.572V210.76C557.338 211.024 556.702 211.156 555.982 211.156C555.142 211.156 554.414 210.9 553.798 210.388C553.182 209.868 552.874 209.128 552.874 208.168ZM561.851 211H560.567V206.368H558.575V205.24H563.831V206.368H561.851V211ZM569.673 209.668C569.673 209.948 569.813 210.088 570.093 210.088C570.189 210.088 570.317 210.064 570.477 210.016V210.94C570.237 211.036 569.965 211.084 569.661 211.084C569.085 211.084 568.701 210.86 568.509 210.412C567.893 210.908 567.169 211.156 566.337 211.156C565.777 211.156 565.301 211.004 564.909 210.7C564.517 210.388 564.321 209.952 564.321 209.392C564.321 208.72 564.573 208.232 565.077 207.928C565.581 207.616 566.185 207.46 566.889 207.46C567.353 207.46 567.853 207.516 568.389 207.628V207.424C568.389 207.056 568.257 206.76 567.993 206.536C567.729 206.312 567.357 206.2 566.877 206.2C566.165 206.2 565.473 206.348 564.801 206.644V205.468C565.553 205.212 566.289 205.084 567.009 205.084C567.849 205.084 568.501 205.292 568.965 205.708C569.437 206.124 569.673 206.756 569.673 207.604V209.668ZM567.141 208.36C566.717 208.36 566.361 208.436 566.073 208.588C565.785 208.74 565.641 208.98 565.641 209.308C565.641 209.58 565.745 209.792 565.953 209.944C566.161 210.088 566.417 210.16 566.721 210.16C567.377 210.16 567.933 209.932 568.389 209.476V208.504C567.925 208.408 567.509 208.36 567.141 208.36ZM574.829 211H571.445V205.24H574.733C575.301 205.24 575.745 205.384 576.065 205.672C576.393 205.952 576.557 206.32 576.557 206.776C576.557 207.408 576.285 207.844 575.741 208.084C576.029 208.172 576.265 208.332 576.449 208.564C576.633 208.796 576.725 209.08 576.725 209.416C576.725 209.888 576.565 210.272 576.245 210.568C575.933 210.856 575.461 211 574.829 211ZM572.729 208.552V210.028H574.517C575.125 210.028 575.429 209.784 575.429 209.296C575.429 208.8 575.133 208.552 574.541 208.552H572.729ZM572.729 206.212V207.64H574.445C574.989 207.64 575.261 207.408 575.261 206.944C575.261 206.688 575.181 206.504 575.021 206.392C574.869 206.272 574.677 206.212 574.445 206.212H572.729ZM579.303 211H578.019V205.24H579.303V207.52H580.251L581.907 205.24H583.371L581.283 208.096L583.599 211H582.123L580.227 208.612H579.303V211ZM589.29 209.668C589.29 209.948 589.43 210.088 589.71 210.088C589.806 210.088 589.934 210.064 590.094 210.016V210.94C589.854 211.036 589.582 211.084 589.278 211.084C588.702 211.084 588.318 210.86 588.126 210.412C587.51 210.908 586.786 211.156 585.954 211.156C585.394 211.156 584.918 211.004 584.526 210.7C584.134 210.388 583.938 209.952 583.938 209.392C583.938 208.72 584.19 208.232 584.694 207.928C585.198 207.616 585.802 207.46 586.506 207.46C586.97 207.46 587.47 207.516 588.006 207.628V207.424C588.006 207.056 587.874 206.76 587.61 206.536C587.346 206.312 586.974 206.2 586.494 206.2C585.782 206.2 585.09 206.348 584.418 206.644V205.468C585.17 205.212 585.906 205.084 586.626 205.084C587.466 205.084 588.118 205.292 588.582 205.708C589.054 206.124 589.29 206.756 589.29 207.604V209.668ZM586.758 208.36C586.334 208.36 585.978 208.436 585.69 208.588C585.402 208.74 585.258 208.98 585.258 209.308C585.258 209.58 585.362 209.792 585.57 209.944C585.778 210.088 586.034 210.16 586.338 210.16C586.994 210.16 587.55 209.932 588.006 209.476V208.504C587.542 208.408 587.126 208.36 586.758 208.36Z" fill="#F28100"/>
<rect x="238.5" y="159.5" width="83" height="19" rx="9.5" fill="#F5FFEE" stroke="#80DA39"/>
<path d="M250.497 173V165.86H254.817V173H256.185V164.6H249.129V173H250.497ZM257.507 170.12C257.507 172.112 259.019 173.156 260.627 173.156C262.247 173.156 263.747 172.112 263.747 170.12C263.747 168.128 262.247 167.084 260.627 167.084C259.019 167.084 257.507 168.128 257.507 170.12ZM262.439 170.12C262.439 171.248 261.695 171.98 260.627 171.98C259.547 171.98 258.803 171.248 258.803 170.12C258.803 168.992 259.547 168.26 260.627 168.26C261.695 168.26 262.439 168.992 262.439 170.12ZM265.547 174.548V173H270.179V174.548H271.391V171.944H270.539V167.24H266.039C266.063 169.244 265.823 170.708 265.127 171.944H264.335V174.548H265.547ZM267.239 168.296H269.243V171.944H266.471C266.951 170.924 267.191 169.844 267.239 168.296ZM277.47 171.668V169.604C277.47 167.864 276.438 167.084 274.806 167.084C273.882 167.084 273.054 167.312 272.598 167.468V168.644C273.114 168.416 273.822 168.2 274.674 168.2C275.658 168.2 276.186 168.704 276.186 169.424V169.628C275.73 169.532 275.178 169.46 274.686 169.46C273.486 169.46 272.118 169.916 272.118 171.392C272.118 172.58 273.09 173.156 274.134 173.156C275.034 173.156 275.742 172.868 276.306 172.412C276.51 172.88 276.93 173.084 277.458 173.084C277.746 173.084 278.034 173.036 278.274 172.94V172.016C278.154 172.052 278.022 172.088 277.89 172.088C277.662 172.088 277.47 171.992 277.47 171.668ZM274.938 170.36C275.346 170.36 275.838 170.432 276.186 170.504V171.476C275.73 171.932 275.13 172.16 274.518 172.16C273.942 172.16 273.438 171.872 273.438 171.308C273.438 170.588 274.206 170.36 274.938 170.36ZM280.382 168.14V167.24H279.242V175.64H280.526V172.256C280.922 172.712 281.594 173.156 282.602 173.156C284.33 173.156 285.458 171.776 285.458 170.12C285.458 168.464 284.33 167.084 282.602 167.084C281.521 167.084 280.838 167.588 280.382 168.14ZM284.15 170.12C284.15 171.248 283.406 172.028 282.362 172.028C281.474 172.028 280.802 171.452 280.526 170.816V169.412C280.802 168.788 281.474 168.212 282.362 168.212C283.406 168.212 284.15 168.992 284.15 170.12ZM289.076 171.584L287.132 167.24H285.764L288.5 173.048L288.38 173.336C288.044 174.236 287.576 174.68 286.952 174.68C286.76 174.68 286.556 174.656 286.364 174.596V175.688C286.616 175.748 286.868 175.784 287.12 175.784C287.996 175.784 288.812 175.28 289.436 173.78L292.136 167.24H290.792L289.076 171.584ZM294.377 173V170.684H297.257V173H298.541V167.24H297.257V169.556H294.377V167.24H293.093V173H294.377ZM299.788 170.12C299.788 172.112 301.3 173.156 302.908 173.156C304.528 173.156 306.028 172.112 306.028 170.12C306.028 168.128 304.528 167.084 302.908 167.084C301.3 167.084 299.788 168.128 299.788 170.12ZM304.72 170.12C304.72 171.248 303.976 171.98 302.908 171.98C301.828 171.98 301.084 171.248 301.084 170.12C301.084 168.992 301.828 168.26 302.908 168.26C303.976 168.26 304.72 168.992 304.72 170.12ZM308.557 173V170.612H309.481L311.377 173H312.853L310.537 170.096L312.625 167.24H311.161L309.505 169.52H308.557V167.24H307.273V173H308.557Z" fill="#80DA39"/>
<rect x="238.5" y="315.5" width="83" height="19" rx="9.5" fill="#F5FFEE" stroke="#80DA39"/>
<path d="M250.497 329V321.86H254.817V329H256.185V320.6H249.129V329H250.497ZM257.507 326.12C257.507 328.112 259.019 329.156 260.627 329.156C262.247 329.156 263.747 328.112 263.747 326.12C263.747 324.128 262.247 323.084 260.627 323.084C259.019 323.084 257.507 324.128 257.507 326.12ZM262.439 326.12C262.439 327.248 261.695 327.98 260.627 327.98C259.547 327.98 258.803 327.248 258.803 326.12C258.803 324.992 259.547 324.26 260.627 324.26C261.695 324.26 262.439 324.992 262.439 326.12ZM265.547 330.548V329H270.179V330.548H271.391V327.944H270.539V323.24H266.039C266.063 325.244 265.823 326.708 265.127 327.944H264.335V330.548H265.547ZM267.239 324.296H269.243V327.944H266.471C266.951 326.924 267.191 325.844 267.239 324.296ZM277.47 327.668V325.604C277.47 323.864 276.438 323.084 274.806 323.084C273.882 323.084 273.054 323.312 272.598 323.468V324.644C273.114 324.416 273.822 324.2 274.674 324.2C275.658 324.2 276.186 324.704 276.186 325.424V325.628C275.73 325.532 275.178 325.46 274.686 325.46C273.486 325.46 272.118 325.916 272.118 327.392C272.118 328.58 273.09 329.156 274.134 329.156C275.034 329.156 275.742 328.868 276.306 328.412C276.51 328.88 276.93 329.084 277.458 329.084C277.746 329.084 278.034 329.036 278.274 328.94V328.016C278.154 328.052 278.022 328.088 277.89 328.088C277.662 328.088 277.47 327.992 277.47 327.668ZM274.938 326.36C275.346 326.36 275.838 326.432 276.186 326.504V327.476C275.73 327.932 275.13 328.16 274.518 328.16C273.942 328.16 273.438 327.872 273.438 327.308C273.438 326.588 274.206 326.36 274.938 326.36ZM280.382 324.14V323.24H279.242V331.64H280.526V328.256C280.922 328.712 281.594 329.156 282.602 329.156C284.33 329.156 285.458 327.776 285.458 326.12C285.458 324.464 284.33 323.084 282.602 323.084C281.521 323.084 280.838 323.588 280.382 324.14ZM284.15 326.12C284.15 327.248 283.406 328.028 282.362 328.028C281.474 328.028 280.802 327.452 280.526 326.816V325.412C280.802 324.788 281.474 324.212 282.362 324.212C283.406 324.212 284.15 324.992 284.15 326.12ZM289.076 327.584L287.132 323.24H285.764L288.5 329.048L288.38 329.336C288.044 330.236 287.576 330.68 286.952 330.68C286.76 330.68 286.556 330.656 286.364 330.596V331.688C286.616 331.748 286.868 331.784 287.12 331.784C287.996 331.784 288.812 331.28 289.436 329.78L292.136 323.24H290.792L289.076 327.584ZM294.377 329V326.684H297.257V329H298.541V323.24H297.257V325.556H294.377V323.24H293.093V329H294.377ZM299.788 326.12C299.788 328.112 301.3 329.156 302.908 329.156C304.528 329.156 306.028 328.112 306.028 326.12C306.028 324.128 304.528 323.084 302.908 323.084C301.3 323.084 299.788 324.128 299.788 326.12ZM304.72 326.12C304.72 327.248 303.976 327.98 302.908 327.98C301.828 327.98 301.084 327.248 301.084 326.12C301.084 324.992 301.828 324.26 302.908 324.26C303.976 324.26 304.72 324.992 304.72 326.12ZM308.557 329V326.612H309.481L311.377 329H312.853L310.537 326.096L312.625 323.24H311.161L309.505 325.52H308.557V323.24H307.273V329H308.557Z" fill="#80DA39"/>
<rect x="521.5" y="315.5" width="83" height="19" rx="9.5" fill="#F5FFEE" stroke="#80DA39"/>
<path d="M533.497 329V321.86H537.817V329H539.185V320.6H532.129V329H533.497ZM540.507 326.12C540.507 328.112 542.019 329.156 543.627 329.156C545.247 329.156 546.747 328.112 546.747 326.12C546.747 324.128 545.247 323.084 543.627 323.084C542.019 323.084 540.507 324.128 540.507 326.12ZM545.439 326.12C545.439 327.248 544.695 327.98 543.627 327.98C542.547 327.98 541.803 327.248 541.803 326.12C541.803 324.992 542.547 324.26 543.627 324.26C544.695 324.26 545.439 324.992 545.439 326.12ZM548.547 330.548V329H553.179V330.548H554.391V327.944H553.539V323.24H549.039C549.063 325.244 548.823 326.708 548.127 327.944H547.335V330.548H548.547ZM550.239 324.296H552.243V327.944H549.471C549.951 326.924 550.191 325.844 550.239 324.296ZM560.47 327.668V325.604C560.47 323.864 559.438 323.084 557.806 323.084C556.882 323.084 556.054 323.312 555.598 323.468V324.644C556.114 324.416 556.822 324.2 557.674 324.2C558.658 324.2 559.186 324.704 559.186 325.424V325.628C558.73 325.532 558.178 325.46 557.686 325.46C556.486 325.46 555.118 325.916 555.118 327.392C555.118 328.58 556.09 329.156 557.134 329.156C558.034 329.156 558.742 328.868 559.306 328.412C559.51 328.88 559.93 329.084 560.458 329.084C560.746 329.084 561.034 329.036 561.274 328.94V328.016C561.154 328.052 561.022 328.088 560.89 328.088C560.662 328.088 560.47 327.992 560.47 327.668ZM557.938 326.36C558.346 326.36 558.838 326.432 559.186 326.504V327.476C558.73 327.932 558.13 328.16 557.518 328.16C556.942 328.16 556.438 327.872 556.438 327.308C556.438 326.588 557.206 326.36 557.938 326.36ZM563.382 324.14V323.24H562.242V331.64H563.526V328.256C563.922 328.712 564.594 329.156 565.602 329.156C567.33 329.156 568.458 327.776 568.458 326.12C568.458 324.464 567.33 323.084 565.602 323.084C564.521 323.084 563.838 323.588 563.382 324.14ZM567.15 326.12C567.15 327.248 566.406 328.028 565.362 328.028C564.474 328.028 563.802 327.452 563.526 326.816V325.412C563.802 324.788 564.474 324.212 565.362 324.212C566.406 324.212 567.15 324.992 567.15 326.12ZM572.076 327.584L570.132 323.24H568.764L571.5 329.048L571.38 329.336C571.044 330.236 570.576 330.68 569.952 330.68C569.76 330.68 569.556 330.656 569.364 330.596V331.688C569.616 331.748 569.868 331.784 570.12 331.784C570.996 331.784 571.812 331.28 572.436 329.78L575.136 323.24H573.792L572.076 327.584ZM577.377 329V326.684H580.257V329H581.541V323.24H580.257V325.556H577.377V323.24H576.093V329H577.377ZM582.788 326.12C582.788 328.112 584.3 329.156 585.908 329.156C587.528 329.156 589.028 328.112 589.028 326.12C589.028 324.128 587.528 323.084 585.908 323.084C584.3 323.084 582.788 324.128 582.788 326.12ZM587.72 326.12C587.72 327.248 586.976 327.98 585.908 327.98C584.828 327.98 584.084 327.248 584.084 326.12C584.084 324.992 584.828 324.26 585.908 324.26C586.976 324.26 587.72 324.992 587.72 326.12ZM591.557 329V326.612H592.481L594.377 329H595.853L593.537 326.096L595.625 323.24H594.161L592.505 325.52H591.557V323.24H590.273V329H591.557Z" fill="#80DA39"/>
<rect x="380.5" y="237.5" width="81" height="19" rx="9.5" fill="#F5FFEE" stroke="#80DA39"/>
<path d="M391.497 251V243.86H395.817V251H397.185V242.6H390.129V251H391.497ZM398.507 248.12C398.507 250.112 400.019 251.156 401.627 251.156C403.247 251.156 404.747 250.112 404.747 248.12C404.747 246.128 403.247 245.084 401.627 245.084C400.019 245.084 398.507 246.128 398.507 248.12ZM403.439 248.12C403.439 249.248 402.695 249.98 401.627 249.98C400.547 249.98 399.803 249.248 399.803 248.12C399.803 246.992 400.547 246.26 401.627 246.26C402.695 246.26 403.439 246.992 403.439 248.12ZM406.547 252.548V251H411.179V252.548H412.391V249.944H411.539V245.24H407.039C407.063 247.244 406.823 248.708 406.127 249.944H405.335V252.548H406.547ZM408.239 246.296H410.243V249.944H407.471C407.951 248.924 408.191 247.844 408.239 246.296ZM418.47 249.668V247.604C418.47 245.864 417.438 245.084 415.806 245.084C414.882 245.084 414.054 245.312 413.598 245.468V246.644C414.114 246.416 414.822 246.2 415.674 246.2C416.658 246.2 417.186 246.704 417.186 247.424V247.628C416.73 247.532 416.178 247.46 415.686 247.46C414.486 247.46 413.118 247.916 413.118 249.392C413.118 250.58 414.09 251.156 415.134 251.156C416.034 251.156 416.742 250.868 417.306 250.412C417.51 250.88 417.93 251.084 418.458 251.084C418.746 251.084 419.034 251.036 419.274 250.94V250.016C419.154 250.052 419.022 250.088 418.89 250.088C418.662 250.088 418.47 249.992 418.47 249.668ZM415.938 248.36C416.346 248.36 416.838 248.432 417.186 248.504V249.476C416.73 249.932 416.13 250.16 415.518 250.16C414.942 250.16 414.438 249.872 414.438 249.308C414.438 248.588 415.206 248.36 415.938 248.36ZM421.382 246.14V245.24H420.242V253.64H421.526V250.256C421.922 250.712 422.594 251.156 423.602 251.156C425.33 251.156 426.458 249.776 426.458 248.12C426.458 246.464 425.33 245.084 423.602 245.084C422.521 245.084 421.838 245.588 421.382 246.14ZM425.15 248.12C425.15 249.248 424.406 250.028 423.362 250.028C422.474 250.028 421.802 249.452 421.526 248.816V247.412C421.802 246.788 422.474 246.212 423.362 246.212C424.406 246.212 425.15 246.992 425.15 248.12ZM430.076 249.584L428.132 245.24H426.764L429.5 251.048L429.38 251.336C429.044 252.236 428.576 252.68 427.952 252.68C427.76 252.68 427.556 252.656 427.364 252.596V253.688C427.616 253.748 427.868 253.784 428.12 253.784C428.996 253.784 429.812 253.28 430.436 251.78L433.136 245.24H431.792L430.076 249.584ZM435.377 251V248.684H438.257V251H439.541V245.24H438.257V247.556H435.377V245.24H434.093V251H435.377ZM440.788 248.12C440.788 250.112 442.3 251.156 443.908 251.156C445.528 251.156 447.028 250.112 447.028 248.12C447.028 246.128 445.528 245.084 443.908 245.084C442.3 245.084 440.788 246.128 440.788 248.12ZM445.72 248.12C445.72 249.248 444.976 249.98 443.908 249.98C442.828 249.98 442.084 249.248 442.084 248.12C442.084 246.992 442.828 246.26 443.908 246.26C444.976 246.26 445.72 246.992 445.72 248.12ZM449.557 251V248.612H450.481L452.377 251H453.853L451.537 248.096L453.625 245.24H452.161L450.505 247.52H449.557V245.24H448.273V251H449.557Z" fill="#80DA39"/>
</svg>
