<svg width="619" height="323" viewBox="0 0 619 323" fill="none" xmlns="http://www.w3.org/2000/svg">
<rect width="619" height="323" rx="20" fill="white"/>
<path d="M305.381 74.6665L397.543 141.626L362.341 249.969H248.422L213.219 141.626L305.381 74.6665Z" stroke="#DDDDE6" stroke-width="1.7619"/>
<path d="M305.381 74.6665L397.543 141.626L362.341 249.969H248.422L213.219 141.626L305.381 74.6665Z" stroke="#DDDDE6" stroke-width="0.880952"/>
<path d="M305.382 108.143L365.706 151.971L342.664 222.886H268.099L245.058 151.971L305.382 108.143Z" stroke="#DDDDE6" stroke-width="0.880952" stroke-linecap="round" stroke-dasharray="6.17 6.17"/>
<path d="M309 101.976L360.883 154.655V232.357L263.103 224.016L212.883 141.924L309 101.976Z" fill="#0FA7F0" fill-opacity="0.1" stroke="#0FA7F0" stroke-width="1.7619" stroke-linecap="round"/>
<path d="M305.383 140.771L345.903 162.053L330.426 196.488H280.34L264.863 162.053L305.383 140.771Z" stroke="#DDDDE6" stroke-width="0.880952" stroke-linecap="round" stroke-dasharray="6.17 6.17"/>
<path d="M290.963 63.2389C289.219 63.2389 287.86 62.89 286.888 62.1923C285.915 61.4946 285.429 60.5061 285.429 59.227C285.429 58.0959 285.725 57.1127 286.317 56.2776C286.919 55.4424 287.765 54.7923 288.854 54.3271C289.953 53.862 291.248 53.6294 292.739 53.6294H293.04C294.795 53.6294 296.153 53.9836 297.115 54.6919C298.088 55.3896 298.574 56.3833 298.574 57.673C298.574 58.8041 298.273 59.7873 297.67 60.6224C297.078 61.4576 296.233 62.1024 295.133 62.557C294.044 63.0116 292.76 63.2389 291.28 63.2389H290.963ZM291.137 62.3033H291.296C292.575 62.3033 293.669 62.1236 294.578 61.7641C295.498 61.3941 296.201 60.8709 296.687 60.1943C297.184 59.5177 297.433 58.7143 297.433 57.784C297.433 56.748 297.041 55.9551 296.259 55.4054C295.487 54.8557 294.367 54.5809 292.897 54.5809H292.739C291.46 54.5809 290.355 54.7659 289.425 55.1359C288.505 55.4953 287.802 56.0133 287.316 56.6899C286.829 57.3559 286.586 58.154 286.586 59.0843C286.586 60.1309 286.972 60.929 287.744 61.4787C288.526 62.0284 289.657 62.3033 291.137 62.3033ZM290.281 64.3806L292.644 52.5194H293.738L291.359 64.3806H290.281ZM303.615 64.0793C302.844 64.0793 302.172 63.9366 301.601 63.6511C301.041 63.3551 300.602 62.9429 300.285 62.4143C299.979 61.8857 299.825 61.262 299.825 60.5431C299.825 59.5917 300.032 58.746 300.444 58.006C300.856 57.2554 301.427 56.6687 302.156 56.2459C302.886 55.8124 303.716 55.5957 304.646 55.5957C305.418 55.5957 306.084 55.7384 306.644 56.0239C307.215 56.3093 307.654 56.7163 307.96 57.2449C308.277 57.7734 308.436 58.3971 308.436 59.116C308.436 60.0674 308.23 60.9184 307.817 61.669C307.405 62.409 306.834 62.9957 306.105 63.4291C305.386 63.8626 304.556 64.0793 303.615 64.0793ZM303.695 63.0803C304.392 63.0803 305.011 62.9164 305.55 62.5887C306.1 62.2504 306.528 61.7853 306.834 61.1933C307.151 60.6013 307.31 59.93 307.31 59.1794C307.31 58.3549 307.067 57.7153 306.581 57.2607C306.105 56.8061 305.434 56.5789 304.567 56.5789C303.88 56.5789 303.261 56.748 302.711 57.0863C302.162 57.4246 301.728 57.8897 301.411 58.4817C301.105 59.0631 300.951 59.7344 300.951 60.4956C300.951 61.3096 301.189 61.9439 301.665 62.3984C302.151 62.853 302.828 63.0803 303.695 63.0803ZM311.259 64L312.781 56.3569L313.003 56.6581H309.578L309.769 55.675H317.221L317.015 56.6581H313.558L313.907 56.3569L312.385 64H311.259ZM320.603 64.0793C319.831 64.0793 319.16 63.9366 318.589 63.6511C318.029 63.3551 317.59 62.9429 317.273 62.4143C316.966 61.8857 316.813 61.262 316.813 60.5431C316.813 59.5917 317.019 58.746 317.431 58.006C317.844 57.2554 318.415 56.6687 319.144 56.2459C319.873 55.8124 320.703 55.5957 321.634 55.5957C322.405 55.5957 323.071 55.7384 323.632 56.0239C324.202 56.3093 324.641 56.7163 324.948 57.2449C325.265 57.7734 325.423 58.3971 325.423 59.116C325.423 60.0674 325.217 60.9184 324.805 61.669C324.393 62.409 323.822 62.9957 323.092 63.4291C322.374 63.8626 321.544 64.0793 320.603 64.0793ZM320.682 63.0803C321.38 63.0803 321.998 62.9164 322.537 62.5887C323.087 62.2504 323.515 61.7853 323.822 61.1933C324.139 60.6013 324.298 59.93 324.298 59.1794C324.298 58.3549 324.054 57.7153 323.568 57.2607C323.092 56.8061 322.421 56.5789 321.554 56.5789C320.867 56.5789 320.249 56.748 319.699 57.0863C319.149 57.4246 318.716 57.8897 318.399 58.4817C318.092 59.0631 317.939 59.7344 317.939 60.4956C317.939 61.3096 318.177 61.9439 318.652 62.3984C319.139 62.853 319.815 63.0803 320.682 63.0803Z" fill="#454545"/>
<rect x="286.883" y="94.0479" width="43.1667" height="29.0714" rx="14.5357" fill="#0FA7F0"/>
<path d="M299.233 113.221C298.561 113.221 297.973 113.122 297.469 112.923C296.965 112.717 296.572 112.431 296.289 112.064C296.007 111.69 295.866 111.255 295.866 110.759C295.866 110.262 296.003 109.842 296.278 109.499C296.56 109.148 296.954 108.884 297.458 108.709C297.961 108.525 298.553 108.434 299.233 108.434C299.92 108.434 300.515 108.525 301.019 108.709C301.531 108.884 301.924 109.148 302.199 109.499C302.481 109.842 302.623 110.262 302.623 110.759C302.623 111.255 302.481 111.69 302.199 112.064C301.916 112.431 301.519 112.717 301.008 112.923C300.504 113.122 299.912 113.221 299.233 113.221ZM299.233 111.858C299.698 111.858 300.065 111.755 300.332 111.549C300.607 111.343 300.744 111.06 300.744 110.701C300.744 110.343 300.607 110.064 300.332 109.865C300.065 109.659 299.698 109.556 299.233 109.556C298.775 109.556 298.412 109.659 298.145 109.865C297.877 110.064 297.744 110.343 297.744 110.701C297.744 111.06 297.877 111.343 298.145 111.549C298.412 111.755 298.775 111.858 299.233 111.858ZM299.233 109.373C298.614 109.373 298.072 109.289 297.606 109.121C297.148 108.953 296.79 108.709 296.53 108.388C296.278 108.06 296.152 107.67 296.152 107.22C296.152 106.747 296.282 106.342 296.541 106.006C296.801 105.662 297.164 105.399 297.629 105.216C298.095 105.025 298.63 104.929 299.233 104.929C299.851 104.929 300.389 105.025 300.847 105.216C301.313 105.399 301.676 105.662 301.935 106.006C302.203 106.342 302.336 106.747 302.336 107.22C302.336 107.67 302.206 108.06 301.947 108.388C301.695 108.709 301.336 108.953 300.87 109.121C300.405 109.289 299.859 109.373 299.233 109.373ZM299.233 108.285C299.622 108.285 299.927 108.197 300.149 108.022C300.378 107.846 300.492 107.605 300.492 107.3C300.492 106.979 300.374 106.731 300.137 106.556C299.908 106.38 299.607 106.292 299.233 106.292C298.866 106.292 298.568 106.38 298.339 106.556C298.11 106.731 297.996 106.979 297.996 107.3C297.996 107.605 298.107 107.846 298.328 108.022C298.549 108.197 298.851 108.285 299.233 108.285ZM306.908 113.221C306.251 113.221 305.663 113.061 305.144 112.74C304.625 112.412 304.216 111.938 303.918 111.32C303.621 110.701 303.472 109.953 303.472 109.075C303.472 108.197 303.621 107.449 303.918 106.83C304.216 106.212 304.625 105.743 305.144 105.422C305.663 105.094 306.251 104.929 306.908 104.929C307.572 104.929 308.16 105.094 308.671 105.422C309.19 105.743 309.599 106.212 309.897 106.83C310.194 107.449 310.343 108.197 310.343 109.075C310.343 109.953 310.194 110.701 309.897 111.32C309.599 111.938 309.19 112.412 308.671 112.74C308.16 113.061 307.572 113.221 306.908 113.221ZM306.908 111.652C307.221 111.652 307.492 111.564 307.721 111.389C307.957 111.213 308.141 110.934 308.27 110.553C308.408 110.171 308.477 109.678 308.477 109.075C308.477 108.472 308.408 107.98 308.27 107.598C308.141 107.216 307.957 106.937 307.721 106.762C307.492 106.586 307.221 106.498 306.908 106.498C306.602 106.498 306.331 106.586 306.094 106.762C305.865 106.937 305.682 107.216 305.545 107.598C305.415 107.98 305.35 108.472 305.35 109.075C305.35 109.678 305.415 110.171 305.545 110.553C305.682 110.934 305.865 111.213 306.094 111.389C306.331 111.564 306.602 111.652 306.908 111.652ZM312.401 113.083L317.876 105.067H319.238L313.764 113.083H312.401ZM313.1 109.396C312.711 109.396 312.367 109.308 312.069 109.132C311.772 108.949 311.535 108.693 311.359 108.365C311.191 108.029 311.107 107.636 311.107 107.186C311.107 106.735 311.191 106.346 311.359 106.017C311.535 105.689 311.772 105.433 312.069 105.25C312.367 105.067 312.711 104.975 313.1 104.975C313.489 104.975 313.833 105.067 314.131 105.25C314.428 105.433 314.661 105.689 314.829 106.017C314.997 106.346 315.081 106.735 315.081 107.186C315.081 107.636 314.997 108.029 314.829 108.365C314.661 108.693 314.428 108.949 314.131 109.132C313.833 109.308 313.489 109.396 313.1 109.396ZM313.1 108.457C313.352 108.457 313.554 108.354 313.707 108.148C313.86 107.934 313.936 107.613 313.936 107.186C313.936 106.758 313.86 106.441 313.707 106.235C313.554 106.021 313.352 105.914 313.1 105.914C312.856 105.914 312.653 106.021 312.493 106.235C312.34 106.441 312.264 106.758 312.264 107.186C312.264 107.605 312.34 107.922 312.493 108.136C312.653 108.35 312.856 108.457 313.1 108.457ZM318.54 113.175C318.158 113.175 317.815 113.087 317.509 112.912C317.211 112.728 316.979 112.473 316.811 112.144C316.643 111.808 316.559 111.415 316.559 110.965C316.559 110.514 316.643 110.125 316.811 109.797C316.979 109.468 317.211 109.213 317.509 109.029C317.815 108.846 318.158 108.754 318.54 108.754C318.937 108.754 319.284 108.846 319.582 109.029C319.88 109.213 320.113 109.468 320.281 109.797C320.449 110.125 320.533 110.514 320.533 110.965C320.533 111.415 320.449 111.808 320.281 112.144C320.113 112.473 319.88 112.728 319.582 112.912C319.284 113.087 318.937 113.175 318.54 113.175ZM318.54 112.236C318.792 112.236 318.994 112.133 319.147 111.927C319.3 111.713 319.376 111.392 319.376 110.965C319.376 110.545 319.3 110.228 319.147 110.014C318.994 109.8 318.792 109.694 318.54 109.694C318.296 109.694 318.093 109.8 317.933 110.014C317.78 110.22 317.704 110.537 317.704 110.965C317.704 111.392 317.78 111.713 317.933 111.927C318.093 112.133 318.296 112.236 318.54 112.236Z" fill="white"/>
<rect x="335.332" y="138.095" width="43.1667" height="29.0714" rx="14.5357" fill="#0FA7F0"/>
<path d="M347.945 157.268C347.212 157.268 346.575 157.116 346.033 156.81C345.498 156.505 345.086 156.058 344.796 155.47C344.506 154.882 344.361 154.157 344.361 153.294C344.361 152.37 344.532 151.588 344.876 150.947C345.227 150.305 345.708 149.817 346.319 149.481C346.937 149.145 347.648 148.977 348.449 148.977C348.877 148.977 349.285 149.023 349.675 149.114C350.064 149.206 350.4 149.343 350.682 149.526L349.995 150.889C349.774 150.737 349.537 150.634 349.285 150.58C349.033 150.519 348.77 150.488 348.495 150.488C347.8 150.488 347.251 150.698 346.846 151.118C346.441 151.538 346.239 152.161 346.239 152.985C346.239 153.123 346.239 153.275 346.239 153.443C346.247 153.611 346.269 153.779 346.308 153.947L345.792 153.466C345.937 153.168 346.124 152.92 346.353 152.722C346.582 152.516 346.854 152.363 347.167 152.264C347.487 152.157 347.838 152.103 348.22 152.103C348.739 152.103 349.205 152.206 349.617 152.412C350.03 152.619 350.358 152.909 350.602 153.283C350.854 153.657 350.98 154.096 350.98 154.6C350.98 155.142 350.843 155.615 350.568 156.02C350.301 156.417 349.938 156.726 349.48 156.948C349.029 157.161 348.518 157.268 347.945 157.268ZM347.842 155.883C348.102 155.883 348.331 155.837 348.529 155.745C348.736 155.646 348.896 155.505 349.01 155.321C349.125 155.138 349.182 154.928 349.182 154.692C349.182 154.325 349.056 154.035 348.804 153.821C348.56 153.6 348.232 153.489 347.819 153.489C347.544 153.489 347.304 153.542 347.098 153.649C346.892 153.749 346.728 153.89 346.605 154.073C346.491 154.249 346.434 154.455 346.434 154.692C346.434 154.921 346.491 155.127 346.605 155.31C346.72 155.486 346.88 155.627 347.086 155.734C347.293 155.833 347.544 155.883 347.842 155.883ZM355.088 157.268C354.432 157.268 353.844 157.108 353.325 156.787C352.806 156.459 352.397 155.986 352.099 155.367C351.802 154.749 351.653 154.001 351.653 153.123C351.653 152.245 351.802 151.496 352.099 150.878C352.397 150.259 352.806 149.79 353.325 149.469C353.844 149.141 354.432 148.977 355.088 148.977C355.753 148.977 356.34 149.141 356.852 149.469C357.371 149.79 357.78 150.259 358.077 150.878C358.375 151.496 358.524 152.245 358.524 153.123C358.524 154.001 358.375 154.749 358.077 155.367C357.78 155.986 357.371 156.459 356.852 156.787C356.34 157.108 355.753 157.268 355.088 157.268ZM355.088 155.699C355.401 155.699 355.672 155.612 355.901 155.436C356.138 155.26 356.321 154.982 356.451 154.6C356.589 154.218 356.657 153.726 356.657 153.123C356.657 152.519 356.589 152.027 356.451 151.645C356.321 151.263 356.138 150.985 355.901 150.809C355.672 150.634 355.401 150.546 355.088 150.546C354.783 150.546 354.512 150.634 354.275 150.809C354.046 150.985 353.863 151.263 353.726 151.645C353.596 152.027 353.531 152.519 353.531 153.123C353.531 153.726 353.596 154.218 353.726 154.6C353.863 154.982 354.046 155.26 354.275 155.436C354.512 155.612 354.783 155.699 355.088 155.699ZM360.582 157.131L366.056 149.114H367.419L361.945 157.131H360.582ZM361.281 153.443C360.891 153.443 360.548 153.355 360.25 153.18C359.952 152.997 359.716 152.741 359.54 152.412C359.372 152.077 359.288 151.683 359.288 151.233C359.288 150.782 359.372 150.393 359.54 150.065C359.716 149.736 359.952 149.481 360.25 149.297C360.548 149.114 360.891 149.023 361.281 149.023C361.67 149.023 362.014 149.114 362.312 149.297C362.609 149.481 362.842 149.736 363.01 150.065C363.178 150.393 363.262 150.782 363.262 151.233C363.262 151.683 363.178 152.077 363.01 152.412C362.842 152.741 362.609 152.997 362.312 153.18C362.014 153.355 361.67 153.443 361.281 153.443ZM361.281 152.504C361.533 152.504 361.735 152.401 361.888 152.195C362.04 151.981 362.117 151.66 362.117 151.233C362.117 150.805 362.04 150.488 361.888 150.282C361.735 150.069 361.533 149.962 361.281 149.962C361.036 149.962 360.834 150.069 360.674 150.282C360.521 150.488 360.445 150.805 360.445 151.233C360.445 151.653 360.521 151.97 360.674 152.183C360.834 152.397 361.036 152.504 361.281 152.504ZM366.721 157.222C366.339 157.222 365.995 157.135 365.69 156.959C365.392 156.776 365.159 156.52 364.991 156.192C364.823 155.856 364.739 155.463 364.739 155.012C364.739 154.562 364.823 154.172 364.991 153.844C365.159 153.516 365.392 153.26 365.69 153.077C365.995 152.893 366.339 152.802 366.721 152.802C367.118 152.802 367.465 152.893 367.763 153.077C368.061 153.26 368.293 153.516 368.461 153.844C368.629 154.172 368.713 154.562 368.713 155.012C368.713 155.463 368.629 155.856 368.461 156.192C368.293 156.52 368.061 156.776 367.763 156.959C367.465 157.135 367.118 157.222 366.721 157.222ZM366.721 156.283C366.973 156.283 367.175 156.18 367.328 155.974C367.48 155.76 367.557 155.44 367.557 155.012C367.557 154.592 367.48 154.275 367.328 154.062C367.175 153.848 366.973 153.741 366.721 153.741C366.476 153.741 366.274 153.848 366.114 154.062C365.961 154.268 365.885 154.585 365.885 155.012C365.885 155.44 365.961 155.76 366.114 155.974C366.274 156.18 366.476 156.283 366.721 156.283Z" fill="white"/>
<rect x="241.07" y="205.929" width="43.1667" height="29.0714" rx="14.5357" fill="#0FA7F0"/>
<path d="M253.684 225.102C252.951 225.102 252.313 224.949 251.771 224.644C251.237 224.338 250.824 223.892 250.534 223.304C250.244 222.716 250.099 221.991 250.099 221.128C250.099 220.204 250.271 219.421 250.614 218.78C250.966 218.139 251.447 217.65 252.057 217.314C252.676 216.978 253.386 216.81 254.187 216.81C254.615 216.81 255.024 216.856 255.413 216.948C255.802 217.039 256.138 217.177 256.421 217.36L255.734 218.723C255.512 218.57 255.275 218.467 255.024 218.414C254.772 218.353 254.508 218.322 254.233 218.322C253.539 218.322 252.989 218.532 252.584 218.952C252.18 219.372 251.977 219.994 251.977 220.819C251.977 220.956 251.977 221.109 251.977 221.277C251.985 221.445 252.008 221.613 252.046 221.781L251.531 221.3C251.676 221.002 251.863 220.754 252.092 220.555C252.321 220.349 252.592 220.196 252.905 220.097C253.225 219.99 253.577 219.937 253.958 219.937C254.478 219.937 254.943 220.04 255.356 220.246C255.768 220.452 256.096 220.742 256.341 221.116C256.592 221.49 256.718 221.929 256.718 222.433C256.718 222.975 256.581 223.449 256.306 223.853C256.039 224.25 255.676 224.56 255.218 224.781C254.768 224.995 254.256 225.102 253.684 225.102ZM253.581 223.716C253.84 223.716 254.069 223.67 254.268 223.579C254.474 223.479 254.634 223.338 254.749 223.155C254.863 222.972 254.92 222.762 254.92 222.525C254.92 222.159 254.794 221.868 254.543 221.655C254.298 221.433 253.97 221.322 253.558 221.322C253.283 221.322 253.042 221.376 252.836 221.483C252.63 221.582 252.466 221.723 252.344 221.907C252.229 222.082 252.172 222.288 252.172 222.525C252.172 222.754 252.229 222.96 252.344 223.143C252.458 223.319 252.619 223.46 252.825 223.567C253.031 223.666 253.283 223.716 253.581 223.716ZM260.827 225.102C260.17 225.102 259.582 224.941 259.063 224.621C258.544 224.292 258.135 223.819 257.838 223.201C257.54 222.582 257.391 221.834 257.391 220.956C257.391 220.078 257.54 219.33 257.838 218.711C258.135 218.093 258.544 217.623 259.063 217.303C259.582 216.974 260.17 216.81 260.827 216.81C261.491 216.81 262.079 216.974 262.59 217.303C263.109 217.623 263.518 218.093 263.816 218.711C264.113 219.33 264.262 220.078 264.262 220.956C264.262 221.834 264.113 222.582 263.816 223.201C263.518 223.819 263.109 224.292 262.59 224.621C262.079 224.941 261.491 225.102 260.827 225.102ZM260.827 223.533C261.14 223.533 261.411 223.445 261.64 223.269C261.876 223.094 262.06 222.815 262.189 222.433C262.327 222.052 262.396 221.559 262.396 220.956C262.396 220.353 262.327 219.86 262.189 219.479C262.06 219.097 261.876 218.818 261.64 218.643C261.411 218.467 261.14 218.379 260.827 218.379C260.521 218.379 260.25 218.467 260.014 218.643C259.784 218.818 259.601 219.097 259.464 219.479C259.334 219.86 259.269 220.353 259.269 220.956C259.269 221.559 259.334 222.052 259.464 222.433C259.601 222.815 259.784 223.094 260.014 223.269C260.25 223.445 260.521 223.533 260.827 223.533ZM266.32 224.964L271.795 216.948H273.158L267.683 224.964H266.32ZM267.019 221.277C266.63 221.277 266.286 221.189 265.988 221.013C265.691 220.83 265.454 220.574 265.278 220.246C265.11 219.91 265.026 219.517 265.026 219.066C265.026 218.616 265.11 218.227 265.278 217.898C265.454 217.57 265.691 217.314 265.988 217.131C266.286 216.948 266.63 216.856 267.019 216.856C267.408 216.856 267.752 216.948 268.05 217.131C268.348 217.314 268.58 217.57 268.748 217.898C268.916 218.227 269 218.616 269 219.066C269 219.517 268.916 219.91 268.748 220.246C268.58 220.574 268.348 220.83 268.05 221.013C267.752 221.189 267.408 221.277 267.019 221.277ZM267.019 220.338C267.271 220.338 267.473 220.235 267.626 220.028C267.779 219.815 267.855 219.494 267.855 219.066C267.855 218.639 267.779 218.322 267.626 218.116C267.473 217.902 267.271 217.795 267.019 217.795C266.775 217.795 266.572 217.902 266.412 218.116C266.259 218.322 266.183 218.639 266.183 219.066C266.183 219.486 266.259 219.803 266.412 220.017C266.572 220.231 266.775 220.338 267.019 220.338ZM272.459 225.056C272.077 225.056 271.734 224.968 271.428 224.793C271.13 224.609 270.898 224.354 270.73 224.025C270.562 223.689 270.478 223.296 270.478 222.846C270.478 222.395 270.562 222.006 270.73 221.678C270.898 221.349 271.13 221.093 271.428 220.91C271.734 220.727 272.077 220.635 272.459 220.635C272.856 220.635 273.203 220.727 273.501 220.91C273.799 221.093 274.032 221.349 274.2 221.678C274.368 222.006 274.452 222.395 274.452 222.846C274.452 223.296 274.368 223.689 274.2 224.025C274.032 224.354 273.799 224.609 273.501 224.793C273.203 224.968 272.856 225.056 272.459 225.056ZM272.459 224.117C272.711 224.117 272.913 224.014 273.066 223.808C273.219 223.594 273.295 223.273 273.295 222.846C273.295 222.426 273.219 222.109 273.066 221.895C272.913 221.681 272.711 221.574 272.459 221.574C272.215 221.574 272.012 221.681 271.852 221.895C271.699 222.101 271.623 222.418 271.623 222.846C271.623 223.273 271.699 223.594 271.852 223.808C272.012 224.014 272.215 224.117 272.459 224.117Z" fill="white"/>
<rect x="338.855" y="214.738" width="43.1667" height="29.0714" rx="14.5357" fill="#0FA7F0"/>
<path d="M350.701 225.62C351.442 225.62 352.08 225.773 352.614 226.078C353.148 226.383 353.561 226.83 353.851 227.418C354.141 227.998 354.286 228.723 354.286 229.594C354.286 230.518 354.11 231.3 353.759 231.942C353.416 232.583 352.938 233.072 352.328 233.407C351.717 233.743 351.007 233.911 350.198 233.911C349.778 233.911 349.373 233.866 348.984 233.774C348.594 233.682 348.258 233.545 347.976 233.362L348.663 231.999C348.884 232.152 349.121 232.258 349.373 232.319C349.625 232.373 349.888 232.4 350.163 232.4C350.85 232.4 351.396 232.19 351.801 231.77C352.213 231.35 352.419 230.728 352.419 229.903C352.419 229.766 352.415 229.613 352.408 229.445C352.4 229.277 352.381 229.109 352.351 228.941L352.854 229.422C352.725 229.72 352.541 229.972 352.305 230.178C352.068 230.376 351.793 230.529 351.48 230.636C351.167 230.735 350.816 230.785 350.427 230.785C349.915 230.785 349.449 230.682 349.029 230.476C348.617 230.269 348.285 229.979 348.033 229.605C347.789 229.231 347.667 228.792 347.667 228.288C347.667 227.739 347.8 227.265 348.067 226.868C348.342 226.471 348.709 226.166 349.167 225.952C349.633 225.731 350.144 225.62 350.701 225.62ZM350.816 227.006C350.549 227.006 350.316 227.055 350.117 227.154C349.919 227.246 349.762 227.383 349.648 227.567C349.533 227.742 349.476 227.952 349.476 228.197C349.476 228.563 349.598 228.857 349.843 229.078C350.094 229.292 350.427 229.399 350.839 229.399C351.106 229.399 351.343 229.349 351.549 229.25C351.763 229.143 351.927 228.998 352.041 228.815C352.156 228.632 352.213 228.426 352.213 228.197C352.213 227.968 352.156 227.765 352.041 227.59C351.934 227.406 351.778 227.265 351.572 227.166C351.366 227.059 351.114 227.006 350.816 227.006ZM358.612 233.911C357.955 233.911 357.367 233.751 356.848 233.43C356.329 233.102 355.92 232.629 355.623 232.01C355.325 231.392 355.176 230.644 355.176 229.766C355.176 228.888 355.325 228.139 355.623 227.521C355.92 226.902 356.329 226.433 356.848 226.112C357.367 225.784 357.955 225.62 358.612 225.62C359.276 225.62 359.864 225.784 360.375 226.112C360.895 226.433 361.303 226.902 361.601 227.521C361.899 228.139 362.048 228.888 362.048 229.766C362.048 230.644 361.899 231.392 361.601 232.01C361.303 232.629 360.895 233.102 360.375 233.43C359.864 233.751 359.276 233.911 358.612 233.911ZM358.612 232.342C358.925 232.342 359.196 232.255 359.425 232.079C359.662 231.903 359.845 231.625 359.975 231.243C360.112 230.861 360.181 230.369 360.181 229.766C360.181 229.162 360.112 228.67 359.975 228.288C359.845 227.906 359.662 227.628 359.425 227.452C359.196 227.277 358.925 227.189 358.612 227.189C358.306 227.189 358.035 227.277 357.799 227.452C357.57 227.628 357.386 227.906 357.249 228.288C357.119 228.67 357.054 229.162 357.054 229.766C357.054 230.369 357.119 230.861 357.249 231.243C357.386 231.625 357.57 231.903 357.799 232.079C358.035 232.255 358.306 232.342 358.612 232.342ZM364.106 233.774L369.58 225.757H370.943L365.468 233.774H364.106ZM364.804 230.086C364.415 230.086 364.071 229.998 363.774 229.823C363.476 229.64 363.239 229.384 363.063 229.056C362.896 228.72 362.812 228.326 362.812 227.876C362.812 227.425 362.896 227.036 363.063 226.708C363.239 226.38 363.476 226.124 363.774 225.94C364.071 225.757 364.415 225.666 364.804 225.666C365.194 225.666 365.537 225.757 365.835 225.94C366.133 226.124 366.366 226.38 366.534 226.708C366.702 227.036 366.785 227.425 366.785 227.876C366.785 228.326 366.702 228.72 366.534 229.056C366.366 229.384 366.133 229.64 365.835 229.823C365.537 229.998 365.194 230.086 364.804 230.086ZM364.804 229.147C365.056 229.147 365.259 229.044 365.411 228.838C365.564 228.624 365.64 228.304 365.64 227.876C365.64 227.448 365.564 227.132 365.411 226.925C365.259 226.712 365.056 226.605 364.804 226.605C364.56 226.605 364.358 226.712 364.197 226.925C364.045 227.132 363.968 227.448 363.968 227.876C363.968 228.296 364.045 228.613 364.197 228.826C364.358 229.04 364.56 229.147 364.804 229.147ZM370.244 233.866C369.862 233.866 369.519 233.778 369.213 233.602C368.916 233.419 368.683 233.163 368.515 232.835C368.347 232.499 368.263 232.106 368.263 231.655C368.263 231.205 368.347 230.815 368.515 230.487C368.683 230.159 368.916 229.903 369.213 229.72C369.519 229.537 369.862 229.445 370.244 229.445C370.641 229.445 370.989 229.537 371.286 229.72C371.584 229.903 371.817 230.159 371.985 230.487C372.153 230.815 372.237 231.205 372.237 231.655C372.237 232.106 372.153 232.499 371.985 232.835C371.817 233.163 371.584 233.419 371.286 233.602C370.989 233.778 370.641 233.866 370.244 233.866ZM370.244 232.926C370.496 232.926 370.698 232.823 370.851 232.617C371.004 232.403 371.08 232.083 371.08 231.655C371.08 231.235 371.004 230.918 370.851 230.705C370.698 230.491 370.496 230.384 370.244 230.384C370 230.384 369.797 230.491 369.637 230.705C369.484 230.911 369.408 231.228 369.408 231.655C369.408 232.083 369.484 232.403 369.637 232.617C369.797 232.823 370 232.926 370.244 232.926Z" fill="white"/>
<rect x="198.785" y="128.405" width="48.4524" height="29.0714" rx="14.5357" fill="#0FA7F0"/>
<path d="M209.195 147.44V140.111L209.997 140.913H207.592V139.424H211.051V147.44H209.195ZM215.879 147.578C215.222 147.578 214.634 147.418 214.115 147.097C213.596 146.769 213.188 146.295 212.89 145.677C212.592 145.058 212.443 144.31 212.443 143.432C212.443 142.554 212.592 141.806 212.89 141.187C213.188 140.569 213.596 140.099 214.115 139.779C214.634 139.45 215.222 139.286 215.879 139.286C216.543 139.286 217.131 139.45 217.643 139.779C218.162 140.099 218.57 140.569 218.868 141.187C219.166 141.806 219.315 142.554 219.315 143.432C219.315 144.31 219.166 145.058 218.868 145.677C218.57 146.295 218.162 146.769 217.643 147.097C217.131 147.418 216.543 147.578 215.879 147.578ZM215.879 146.009C216.192 146.009 216.463 145.921 216.692 145.745C216.929 145.57 217.112 145.291 217.242 144.909C217.379 144.528 217.448 144.035 217.448 143.432C217.448 142.829 217.379 142.336 217.242 141.955C217.112 141.573 216.929 141.294 216.692 141.119C216.463 140.943 216.192 140.855 215.879 140.855C215.573 140.855 215.302 140.943 215.066 141.119C214.837 141.294 214.653 141.573 214.516 141.955C214.386 142.336 214.321 142.829 214.321 143.432C214.321 144.035 214.386 144.528 214.516 144.909C214.653 145.291 214.837 145.57 215.066 145.745C215.302 145.921 215.573 146.009 215.879 146.009ZM223.652 147.578C222.995 147.578 222.407 147.418 221.888 147.097C221.369 146.769 220.96 146.295 220.663 145.677C220.365 145.058 220.216 144.31 220.216 143.432C220.216 142.554 220.365 141.806 220.663 141.187C220.96 140.569 221.369 140.099 221.888 139.779C222.407 139.45 222.995 139.286 223.652 139.286C224.316 139.286 224.904 139.45 225.415 139.779C225.935 140.099 226.343 140.569 226.641 141.187C226.939 141.806 227.087 142.554 227.087 143.432C227.087 144.31 226.939 145.058 226.641 145.677C226.343 146.295 225.935 146.769 225.415 147.097C224.904 147.418 224.316 147.578 223.652 147.578ZM223.652 146.009C223.965 146.009 224.236 145.921 224.465 145.745C224.702 145.57 224.885 145.291 225.015 144.909C225.152 144.528 225.221 144.035 225.221 143.432C225.221 142.829 225.152 142.336 225.015 141.955C224.885 141.573 224.702 141.294 224.465 141.119C224.236 140.943 223.965 140.855 223.652 140.855C223.346 140.855 223.075 140.943 222.839 141.119C222.61 141.294 222.426 141.573 222.289 141.955C222.159 142.336 222.094 142.829 222.094 143.432C222.094 144.035 222.159 144.528 222.289 144.909C222.426 145.291 222.61 145.57 222.839 145.745C223.075 145.921 223.346 146.009 223.652 146.009ZM229.146 147.44L234.62 139.424H235.983L230.508 147.44H229.146ZM229.844 143.753C229.455 143.753 229.111 143.665 228.813 143.489C228.516 143.306 228.279 143.05 228.103 142.722C227.935 142.386 227.851 141.993 227.851 141.542C227.851 141.092 227.935 140.703 228.103 140.374C228.279 140.046 228.516 139.79 228.813 139.607C229.111 139.424 229.455 139.332 229.844 139.332C230.234 139.332 230.577 139.424 230.875 139.607C231.173 139.79 231.405 140.046 231.573 140.374C231.741 140.703 231.825 141.092 231.825 141.542C231.825 141.993 231.741 142.386 231.573 142.722C231.405 143.05 231.173 143.306 230.875 143.489C230.577 143.665 230.234 143.753 229.844 143.753ZM229.844 142.814C230.096 142.814 230.298 142.711 230.451 142.504C230.604 142.291 230.68 141.97 230.68 141.542C230.68 141.115 230.604 140.798 230.451 140.592C230.298 140.378 230.096 140.271 229.844 140.271C229.6 140.271 229.397 140.378 229.237 140.592C229.084 140.798 229.008 141.115 229.008 141.542C229.008 141.962 229.084 142.279 229.237 142.493C229.397 142.707 229.6 142.814 229.844 142.814ZM235.284 147.532C234.902 147.532 234.559 147.444 234.253 147.269C233.956 147.085 233.723 146.83 233.555 146.501C233.387 146.165 233.303 145.772 233.303 145.322C233.303 144.871 233.387 144.482 233.555 144.154C233.723 143.825 233.956 143.57 234.253 143.386C234.559 143.203 234.902 143.111 235.284 143.111C235.681 143.111 236.028 143.203 236.326 143.386C236.624 143.57 236.857 143.825 237.025 144.154C237.193 144.482 237.277 144.871 237.277 145.322C237.277 145.772 237.193 146.165 237.025 146.501C236.857 146.83 236.624 147.085 236.326 147.269C236.028 147.444 235.681 147.532 235.284 147.532ZM235.284 146.593C235.536 146.593 235.738 146.49 235.891 146.284C236.044 146.07 236.12 145.749 236.12 145.322C236.12 144.902 236.044 144.585 235.891 144.371C235.738 144.157 235.536 144.051 235.284 144.051C235.04 144.051 234.837 144.157 234.677 144.371C234.524 144.577 234.448 144.894 234.448 145.322C234.448 145.749 234.524 146.07 234.677 146.284C234.837 146.49 235.04 146.593 235.284 146.593Z" fill="white"/>
<path d="M408.553 146.81L410.773 135.71H415.515C416.582 135.71 417.418 135.91 418.02 136.312C418.623 136.714 418.924 137.301 418.924 138.072C418.924 138.791 418.75 139.394 418.401 139.88C418.052 140.356 417.592 140.715 417.021 140.958C416.461 141.201 415.853 141.323 415.198 141.323L415.546 140.958C416.434 140.958 417.137 141.164 417.655 141.577C418.184 141.978 418.448 142.576 418.448 143.369C418.448 144.109 418.253 144.738 417.862 145.256C417.481 145.774 416.937 146.165 416.228 146.429C415.52 146.683 414.68 146.81 413.707 146.81H408.553ZM409.901 145.842H413.802C414.912 145.842 415.768 145.631 416.371 145.208C416.984 144.785 417.291 144.177 417.291 143.384C417.291 142.75 417.069 142.306 416.625 142.052C416.191 141.799 415.552 141.672 414.706 141.672H410.536L410.726 140.705H414.468C415.102 140.705 415.663 140.615 416.149 140.435C416.646 140.255 417.032 139.986 417.307 139.626C417.581 139.256 417.719 138.807 417.719 138.278C417.719 137.729 417.507 137.327 417.085 137.073C416.662 136.809 416.064 136.677 415.293 136.677H411.725L409.901 145.842ZM420.302 146.81L421.951 138.485H423.077L421.428 146.81H420.302ZM422.998 136.645C422.776 136.645 422.591 136.571 422.443 136.423C422.305 136.275 422.237 136.101 422.237 135.9C422.237 135.667 422.316 135.466 422.475 135.297C422.644 135.128 422.855 135.044 423.109 135.044C423.331 135.044 423.516 135.112 423.664 135.25C423.812 135.387 423.886 135.562 423.886 135.773C423.886 136.027 423.801 136.238 423.632 136.407C423.463 136.566 423.252 136.645 422.998 136.645ZM430.442 146.27L431.805 139.468H427.794L427.334 141.371C427.186 141.931 427.032 142.481 426.874 143.02C426.726 143.548 426.557 144.035 426.366 144.479C426.176 144.923 425.954 145.287 425.7 145.573C425.457 145.848 425.167 146.006 424.828 146.048L423.671 145.826C424.009 145.837 424.305 145.721 424.559 145.478C424.823 145.224 425.061 144.875 425.272 144.431C425.484 143.987 425.674 143.485 425.843 142.925C426.012 142.364 426.171 141.793 426.319 141.212L426.985 138.485H433.122L431.568 146.27H430.442ZM422.783 148.823L423.369 145.826H432.963L432.376 148.823H431.314L431.71 146.81H424.242L423.845 148.823H422.783ZM438.868 146.889C438.075 146.889 437.383 146.746 436.791 146.461C436.209 146.165 435.76 145.752 435.443 145.224C435.136 144.695 434.983 144.066 434.983 143.337C434.983 142.385 435.184 141.54 435.586 140.8C435.987 140.06 436.537 139.478 437.235 139.055C437.933 138.622 438.72 138.405 439.598 138.405C440.338 138.405 440.977 138.548 441.516 138.833C442.055 139.108 442.473 139.51 442.769 140.039C443.076 140.567 443.229 141.201 443.229 141.941C443.229 142.111 443.218 142.285 443.197 142.465C443.176 142.634 443.15 142.798 443.118 142.956H435.808L435.95 142.116H442.595L442.135 142.433C442.24 141.767 442.193 141.207 441.992 140.752C441.791 140.298 441.479 139.954 441.056 139.721C440.644 139.478 440.147 139.357 439.566 139.357C438.889 139.357 438.287 139.526 437.758 139.864C437.23 140.192 436.817 140.652 436.521 141.244C436.225 141.825 436.077 142.507 436.077 143.289C436.077 144.124 436.315 144.769 436.791 145.224C437.277 145.668 438.001 145.89 438.963 145.89C439.524 145.89 440.042 145.8 440.517 145.62C440.993 145.43 441.384 145.171 441.691 144.843L442.198 145.652C441.807 146.043 441.315 146.35 440.723 146.572C440.142 146.783 439.524 146.889 438.868 146.889ZM448.637 146.889C447.865 146.889 447.194 146.746 446.623 146.461C446.063 146.165 445.624 145.752 445.307 145.224C445 144.695 444.847 144.072 444.847 143.353C444.847 142.401 445.053 141.556 445.465 140.816C445.878 140.065 446.449 139.478 447.178 139.055C447.907 138.622 448.737 138.405 449.668 138.405C450.439 138.405 451.105 138.548 451.666 138.833C452.236 139.119 452.675 139.526 452.982 140.054C453.299 140.583 453.457 141.207 453.457 141.926C453.457 142.877 453.251 143.728 452.839 144.479C452.427 145.219 451.856 145.805 451.126 146.239C450.408 146.672 449.578 146.889 448.637 146.889ZM448.716 145.89C449.414 145.89 450.032 145.726 450.571 145.398C451.121 145.06 451.549 144.595 451.856 144.003C452.173 143.411 452.332 142.74 452.332 141.989C452.332 141.164 452.088 140.525 451.602 140.07C451.126 139.616 450.455 139.388 449.588 139.388C448.901 139.388 448.283 139.558 447.733 139.896C447.183 140.234 446.75 140.699 446.433 141.291C446.126 141.873 445.973 142.544 445.973 143.305C445.973 144.119 446.211 144.753 446.686 145.208C447.173 145.663 447.849 145.89 448.716 145.89Z" fill="#454545"/>
<path d="M56.3111 141.095C55.2223 141.095 54.292 140.905 53.5203 140.524C52.7486 140.133 52.1619 139.594 51.7601 138.907C51.369 138.209 51.1734 137.4 51.1734 136.481C51.1734 135.572 51.3267 134.715 51.6333 133.912C51.9399 133.108 52.3839 132.4 52.9653 131.787C53.5573 131.163 54.2656 130.677 55.0901 130.328C55.9147 129.979 56.8397 129.805 57.8651 129.805C58.9646 129.805 59.8949 130 60.656 130.392C61.4277 130.772 62.0091 131.311 62.4003 132.009C62.802 132.696 63.0029 133.5 63.0029 134.419C63.0029 135.328 62.8496 136.185 62.543 136.988C62.2364 137.792 61.7871 138.505 61.1951 139.129C60.6137 139.742 59.9107 140.223 59.0861 140.572C58.2616 140.921 57.3366 141.095 56.3111 141.095ZM56.4221 140.049C57.2467 140.049 57.992 139.906 58.658 139.62C59.324 139.324 59.8949 138.917 60.3706 138.399C60.8463 137.881 61.211 137.289 61.4647 136.623C61.7184 135.947 61.8453 135.228 61.8453 134.467C61.8453 133.748 61.6867 133.119 61.3696 132.58C61.063 132.041 60.6084 131.618 60.0059 131.311C59.4033 131.005 58.6527 130.851 57.7541 130.851C56.9296 130.851 56.1843 130.999 55.5183 131.295C54.8523 131.581 54.2814 131.983 53.8057 132.501C53.3406 133.019 52.9759 133.616 52.7116 134.292C52.4579 134.958 52.331 135.672 52.331 136.433C52.331 137.141 52.4843 137.77 52.7909 138.32C53.108 138.859 53.5679 139.282 54.1704 139.589C54.773 139.895 55.5236 140.049 56.4221 140.049ZM68.2889 141.079C67.496 141.079 66.8089 140.937 66.2274 140.651C65.6566 140.355 65.2126 139.943 64.8954 139.414C64.5889 138.886 64.4356 138.262 64.4356 137.543C64.4356 136.592 64.6417 135.746 65.054 135.006C65.4663 134.255 66.0371 133.669 66.7666 133.246C67.5066 132.812 68.347 132.596 69.2879 132.596C70.0596 132.596 70.7203 132.738 71.27 133.024C71.8303 133.299 72.2637 133.711 72.5703 134.261L71.6189 134.816C71.3863 134.393 71.0639 134.081 70.6516 133.88C70.2499 133.679 69.7636 133.579 69.1927 133.579C68.495 133.579 67.8713 133.748 67.3216 134.086C66.7719 134.425 66.3384 134.89 66.0213 135.482C65.7147 136.063 65.5614 136.734 65.5614 137.496C65.5614 138.31 65.7993 138.944 66.275 139.398C66.7613 139.853 67.4484 140.08 68.3364 140.08C68.8756 140.08 69.3724 139.98 69.827 139.779C70.2921 139.568 70.6727 139.266 70.9687 138.875L71.7774 139.494C71.418 139.99 70.9264 140.382 70.3027 140.667C69.679 140.942 69.0077 141.079 68.2889 141.079ZM73.5403 141L75.2053 132.675H76.3312L75.6017 136.354H80.8346L81.5799 132.675H82.7057L81.0407 141H79.9149L80.6443 137.321H75.4114L74.6662 141H73.5403ZM88.0469 141.079C87.2751 141.079 86.6039 140.937 86.033 140.651C85.4727 140.355 85.034 139.943 84.7169 139.414C84.4103 138.886 84.257 138.262 84.257 137.543C84.257 136.592 84.4631 135.746 84.8754 135.006C85.2877 134.255 85.8586 133.669 86.588 133.246C87.3174 132.812 88.1473 132.596 89.0776 132.596C89.8493 132.596 90.5153 132.738 91.0756 133.024C91.6464 133.309 92.0851 133.716 92.3917 134.245C92.7089 134.773 92.8674 135.397 92.8674 136.116C92.8674 137.067 92.6613 137.918 92.249 138.669C91.8367 139.409 91.2659 139.996 90.5364 140.429C89.8176 140.863 88.9877 141.079 88.0469 141.079ZM88.1261 140.08C88.8239 140.08 89.4423 139.916 89.9814 139.589C90.5311 139.25 90.9593 138.785 91.2659 138.193C91.583 137.601 91.7416 136.93 91.7416 136.179C91.7416 135.355 91.4984 134.715 91.0121 134.261C90.5364 133.806 89.8651 133.579 88.9983 133.579C88.3111 133.579 87.6927 133.748 87.143 134.086C86.5933 134.425 86.1599 134.89 85.8427 135.482C85.5361 136.063 85.3829 136.734 85.3829 137.496C85.3829 138.31 85.6207 138.944 86.0964 139.398C86.5827 139.853 87.2593 140.08 88.1261 140.08ZM94.4147 141L96.0956 132.675H99.7269C100.604 132.675 101.27 132.834 101.725 133.151C102.179 133.457 102.407 133.912 102.407 134.514C102.407 135.223 102.111 135.799 101.519 136.243C100.927 136.676 100.15 136.893 99.1877 136.893L99.3939 136.592C100.271 136.592 100.911 136.74 101.313 137.036C101.725 137.321 101.931 137.776 101.931 138.399C101.931 139.213 101.603 139.853 100.948 140.318C100.303 140.773 99.4097 141 98.268 141H94.4147ZM95.6992 140.112H98.3315C99.1137 140.112 99.7216 139.959 100.155 139.652C100.599 139.346 100.821 138.917 100.821 138.368C100.821 137.955 100.684 137.659 100.409 137.48C100.134 137.3 99.6899 137.21 99.0767 137.21H96.2859L95.6992 140.112ZM96.4445 136.37H98.934C99.6317 136.37 100.192 136.222 100.615 135.926C101.048 135.619 101.265 135.212 101.265 134.705C101.265 134.314 101.117 134.023 100.821 133.833C100.536 133.642 100.102 133.547 99.5207 133.547H97.0153L96.4445 136.37ZM104.062 141L105.727 132.675H106.853L106.124 136.354H111.356L112.102 132.675H113.228L111.563 141H110.437L111.166 137.321H105.933L105.188 141H104.062ZM114.763 141L116.412 132.675H117.538L115.889 141H114.763ZM117.459 130.836C117.237 130.836 117.052 130.762 116.904 130.614C116.766 130.466 116.698 130.291 116.698 130.09C116.698 129.858 116.777 129.657 116.935 129.488C117.105 129.319 117.316 129.234 117.57 129.234C117.792 129.234 117.977 129.303 118.125 129.44C118.273 129.578 118.347 129.752 118.347 129.963C118.347 130.217 118.262 130.429 118.093 130.598C117.924 130.756 117.712 130.836 117.459 130.836ZM49.3816 158L53.8691 153.401L53.7423 153.956L51.2686 149.675H52.4579L54.5193 153.275L54.0119 153.259L57.4687 149.675H58.769L54.5034 154.067L54.5986 153.433L57.2467 158H56.0416L53.8691 154.194H54.3766L50.7136 158H49.3816ZM62.4925 158.079C61.7842 158.079 61.1552 157.937 60.6055 157.651C60.0557 157.366 59.6276 156.959 59.321 156.43C59.0145 155.902 58.8612 155.273 58.8612 154.543C58.8612 153.835 58.9775 153.179 59.21 152.577C59.4426 151.974 59.7703 151.451 60.1932 151.007C60.616 150.552 61.1129 150.204 61.6837 149.96C62.2652 149.717 62.8942 149.596 63.5707 149.596C64.3002 149.596 64.9186 149.728 65.426 149.992C65.9335 150.246 66.3246 150.621 66.5995 151.118C66.8743 151.604 67.0117 152.196 67.0117 152.894C67.0117 153.898 66.8267 154.792 66.4567 155.574C66.0867 156.356 65.5635 156.969 64.8869 157.413C64.2103 157.857 63.4122 158.079 62.4925 158.079ZM62.7303 157.08C63.428 157.08 64.0465 156.916 64.5856 156.589C65.1353 156.25 65.5635 155.785 65.87 155.193C66.1872 154.601 66.3457 153.93 66.3457 153.179C66.3457 152.355 66.1026 151.715 65.6163 151.261C65.1406 150.806 64.4693 150.579 63.6025 150.579C62.9153 150.579 62.2969 150.748 61.7472 151.086C61.1975 151.425 60.764 151.89 60.4469 152.482C60.1403 153.063 59.987 153.734 59.987 154.496C59.987 155.31 60.2249 155.944 60.7006 156.398C61.1869 156.853 61.8635 157.08 62.7303 157.08ZM65.4736 158L65.9493 155.606L66.425 153.925L66.5836 152.18L67.091 149.675H68.2169L66.5519 158H65.4736ZM74.4084 158.079C73.6895 158.079 73.0711 157.952 72.5531 157.699C72.0456 157.434 71.6545 157.059 71.3796 156.573C71.1154 156.076 70.9779 155.479 70.9674 154.781C70.9674 153.756 71.1524 152.857 71.5224 152.085C71.8924 151.303 72.4156 150.695 73.0922 150.262C73.7688 149.818 74.5669 149.596 75.4866 149.596C76.2055 149.596 76.8345 149.738 77.3736 150.024C77.9234 150.299 78.3515 150.7 78.6581 151.229C78.9752 151.758 79.1338 152.387 79.1338 153.116C79.1338 153.835 79.0175 154.496 78.7849 155.098C78.5524 155.701 78.2194 156.224 77.7859 156.668C77.3631 157.112 76.8662 157.461 76.2954 157.715C75.7245 157.958 75.0955 158.079 74.4084 158.079ZM69.1596 161.076L71.4272 149.675H72.5055L72.0298 152.069L71.5699 153.734L71.3955 155.479L70.2855 161.076H69.1596ZM74.3925 157.08C75.0902 157.08 75.7086 156.916 76.2478 156.589C76.7869 156.25 77.2098 155.785 77.5164 155.193C77.8335 154.601 77.9921 153.93 77.9921 153.179C77.9921 152.355 77.7542 151.715 77.2785 151.261C76.8028 150.806 76.1262 150.579 75.2488 150.579C74.5616 150.579 73.9432 150.748 73.3935 151.086C72.8544 151.425 72.4262 151.89 72.1091 152.482C71.8025 153.063 71.6492 153.734 71.6492 154.496C71.6492 155.31 71.8871 155.944 72.3628 156.398C72.8385 156.853 73.5151 157.08 74.3925 157.08ZM84.3735 158.079C83.6652 158.079 83.0362 157.937 82.4865 157.651C81.9367 157.366 81.5086 156.959 81.202 156.43C80.8955 155.902 80.7422 155.273 80.7422 154.543C80.7422 153.835 80.8585 153.179 81.091 152.577C81.3236 151.974 81.6513 151.451 82.0742 151.007C82.497 150.552 82.9939 150.204 83.5647 149.96C84.1462 149.717 84.7752 149.596 85.4517 149.596C86.1812 149.596 86.7996 149.728 87.307 149.992C87.8145 150.246 88.2056 150.621 88.4805 151.118C88.7553 151.604 88.8927 152.196 88.8927 152.894C88.8927 153.898 88.7077 154.792 88.3377 155.574C87.9677 156.356 87.4445 156.969 86.7679 157.413C86.0913 157.857 85.2932 158.079 84.3735 158.079ZM84.6113 157.08C85.309 157.08 85.9275 156.916 86.4666 156.589C87.0163 156.25 87.4445 155.785 87.751 155.193C88.0682 154.601 88.2267 153.93 88.2267 153.179C88.2267 152.355 87.9836 151.715 87.4973 151.261C87.0216 150.806 86.3503 150.579 85.4835 150.579C84.7963 150.579 84.1779 150.748 83.6282 151.086C83.0785 151.425 82.645 151.89 82.3279 152.482C82.0213 153.063 81.868 153.734 81.868 154.496C81.868 155.31 82.1059 155.944 82.5816 156.398C83.0679 156.853 83.7445 157.08 84.6113 157.08ZM87.3546 158L87.8303 155.606L88.306 153.925L88.4646 152.18L88.972 149.675H90.0979L88.4329 158H87.3546ZM97.7482 158L95.1952 153.861L96.1308 153.433L99.0326 158H97.7482ZM91.6274 158L93.3082 149.675H94.4341L92.7532 158H91.6274ZM93.1655 154.289L93.3399 153.322H96.0198L95.8454 154.289H93.1655ZM96.1625 153.956L95.0684 153.798L99.2388 149.675H100.507L96.1625 153.956ZM102.226 158L103.748 150.357L103.97 150.658H100.545L100.735 149.675H108.188L107.982 150.658H104.525L104.874 150.357L103.351 158H102.226ZM111.68 158.079C110.887 158.079 110.195 157.937 109.603 157.651C109.022 157.355 108.572 156.943 108.255 156.414C107.949 155.886 107.795 155.257 107.795 154.527C107.795 153.576 107.996 152.73 108.398 151.99C108.8 151.25 109.349 150.669 110.047 150.246C110.745 149.812 111.532 149.596 112.41 149.596C113.15 149.596 113.789 149.738 114.328 150.024C114.868 150.299 115.285 150.7 115.581 151.229C115.888 151.758 116.041 152.392 116.041 153.132C116.041 153.301 116.03 153.475 116.009 153.655C115.988 153.824 115.962 153.988 115.93 154.147H108.62L108.763 153.306H115.407L114.947 153.623C115.053 152.957 115.005 152.397 114.804 151.943C114.603 151.488 114.291 151.144 113.869 150.912C113.456 150.669 112.959 150.547 112.378 150.547C111.701 150.547 111.099 150.716 110.57 151.055C110.042 151.382 109.629 151.842 109.333 152.434C109.037 153.016 108.889 153.697 108.889 154.48C108.889 155.315 109.127 155.96 109.603 156.414C110.089 156.858 110.813 157.08 111.775 157.08C112.336 157.08 112.854 156.99 113.329 156.811C113.805 156.62 114.196 156.361 114.503 156.034L115.01 156.842C114.619 157.234 114.128 157.54 113.536 157.762C112.954 157.974 112.336 158.079 111.68 158.079ZM122.289 158.079C121.571 158.079 120.952 157.952 120.434 157.699C119.927 157.434 119.536 157.059 119.261 156.573C118.996 156.076 118.859 155.479 118.848 154.781C118.848 153.756 119.033 152.857 119.403 152.085C119.773 151.303 120.297 150.695 120.973 150.262C121.65 149.818 122.448 149.596 123.368 149.596C124.087 149.596 124.716 149.738 125.255 150.024C125.804 150.299 126.233 150.7 126.539 151.229C126.856 151.758 127.015 152.387 127.015 153.116C127.015 153.835 126.899 154.496 126.666 155.098C126.433 155.701 126.1 156.224 125.667 156.668C125.244 157.112 124.747 157.461 124.176 157.715C123.606 157.958 122.977 158.079 122.289 158.079ZM117.041 161.076L119.308 149.675H120.387L119.911 152.069L119.451 153.734L119.277 155.479L118.167 161.076H117.041ZM122.274 157.08C122.971 157.08 123.59 156.916 124.129 156.589C124.668 156.25 125.091 155.785 125.397 155.193C125.715 154.601 125.873 153.93 125.873 153.179C125.873 152.355 125.635 151.715 125.16 151.261C124.684 150.806 124.007 150.579 123.13 150.579C122.443 150.579 121.824 150.748 121.275 151.086C120.735 151.425 120.307 151.89 119.99 152.482C119.684 153.063 119.53 153.734 119.53 154.496C119.53 155.31 119.768 155.944 120.244 156.398C120.72 156.853 121.396 157.08 122.274 157.08ZM128.576 158L130.257 149.675H131.382L130.035 156.398L136.885 149.675H137.963L136.298 158H135.141L136.52 151.261L129.67 158H128.576ZM143.378 158.079C142.585 158.079 141.898 157.937 141.317 157.651C140.746 157.355 140.302 156.943 139.985 156.414C139.678 155.886 139.525 155.262 139.525 154.543C139.525 153.592 139.731 152.746 140.143 152.006C140.555 151.255 141.126 150.669 141.856 150.246C142.596 149.812 143.436 149.596 144.377 149.596C145.149 149.596 145.809 149.738 146.359 150.024C146.919 150.299 147.353 150.711 147.659 151.261L146.708 151.816C146.475 151.393 146.153 151.081 145.741 150.88C145.339 150.679 144.853 150.579 144.282 150.579C143.584 150.579 142.96 150.748 142.411 151.086C141.861 151.425 141.428 151.89 141.11 152.482C140.804 153.063 140.651 153.734 140.651 154.496C140.651 155.31 140.888 155.944 141.364 156.398C141.85 156.853 142.538 157.08 143.426 157.08C143.965 157.08 144.462 156.98 144.916 156.779C145.381 156.568 145.762 156.266 146.058 155.875L146.867 156.494C146.507 156.99 146.016 157.382 145.392 157.667C144.768 157.942 144.097 158.079 143.378 158.079ZM150.06 158L151.583 150.357L151.805 150.658H148.379L148.57 149.675H156.023L155.816 150.658H152.36L152.708 150.357L151.186 158H150.06ZM155.97 158L157.65 149.675H158.776L157.428 156.398L164.279 149.675H165.357L163.692 158H162.534L163.914 151.261L157.064 158H155.97ZM173.008 158L170.455 153.861L171.39 153.433L174.292 158H173.008ZM166.887 158L168.568 149.675H169.694L168.013 158H166.887ZM168.425 154.289L168.599 153.322H171.279L171.105 154.289H168.425ZM171.422 153.956L170.328 153.798L174.498 149.675H175.767L171.422 153.956ZM176.07 158L177.751 149.675H178.876L177.529 156.398L184.379 149.675H185.457L183.792 158H182.635L184.014 151.261L177.164 158H176.07Z" fill="#454545"/>
<path d="M370.738 268.381L372.958 257.281H374.116L371.896 268.381H370.738ZM372.562 263.275L372.752 262.26H376.225L376.034 263.275H372.562ZM378.413 268.381L375.226 262.831L376.209 262.308L379.666 268.381H378.413ZM376.209 262.942L375.115 262.752L380.347 257.281H381.679L376.209 262.942ZM384.928 268.46C384.156 268.46 383.485 268.317 382.914 268.032C382.354 267.736 381.915 267.324 381.598 266.795C381.292 266.267 381.138 265.643 381.138 264.924C381.138 263.973 381.344 263.127 381.757 262.387C382.169 261.636 382.74 261.05 383.469 260.627C384.199 260.193 385.029 259.977 385.959 259.977C386.731 259.977 387.397 260.119 387.957 260.405C388.528 260.69 388.966 261.097 389.273 261.626C389.59 262.154 389.749 262.778 389.749 263.497C389.749 264.448 389.543 265.299 389.13 266.05C388.718 266.79 388.147 267.377 387.418 267.81C386.699 268.243 385.869 268.46 384.928 268.46ZM385.007 267.461C385.705 267.461 386.324 267.297 386.863 266.97C387.412 266.631 387.841 266.166 388.147 265.574C388.464 264.982 388.623 264.311 388.623 263.56C388.623 262.736 388.38 262.096 387.893 261.642C387.418 261.187 386.746 260.96 385.88 260.96C385.192 260.96 384.574 261.129 384.024 261.467C383.475 261.805 383.041 262.271 382.724 262.863C382.417 263.444 382.264 264.115 382.264 264.876C382.264 265.69 382.502 266.325 382.978 266.779C383.464 267.234 384.141 267.461 385.007 267.461ZM395.958 268.46C395.239 268.46 394.621 268.333 394.103 268.08C393.595 267.815 393.204 267.44 392.929 266.954C392.665 266.457 392.528 265.86 392.517 265.162C392.517 264.136 392.702 263.238 393.072 262.466C393.442 261.684 393.965 261.076 394.642 260.643C395.318 260.199 396.117 259.977 397.036 259.977C397.755 259.977 398.384 260.119 398.923 260.405C399.473 260.68 399.901 261.081 400.208 261.61C400.525 262.138 400.683 262.767 400.683 263.497C400.683 264.216 400.567 264.876 400.335 265.479C400.102 266.082 399.769 266.605 399.336 267.049C398.913 267.493 398.416 267.842 397.845 268.095C397.274 268.339 396.645 268.46 395.958 268.46ZM390.709 271.457L392.977 260.056H394.055L393.579 262.45L393.12 264.115L392.945 265.86L391.835 271.457H390.709ZM395.942 267.461C396.64 267.461 397.258 267.297 397.797 266.97C398.337 266.631 398.759 266.166 399.066 265.574C399.383 264.982 399.542 264.311 399.542 263.56C399.542 262.736 399.304 262.096 398.828 261.642C398.352 261.187 397.676 260.96 396.798 260.96C396.111 260.96 395.493 261.129 394.943 261.467C394.404 261.805 393.976 262.271 393.659 262.863C393.352 263.444 393.199 264.115 393.199 264.876C393.199 265.69 393.437 266.325 393.912 266.779C394.388 267.234 395.065 267.461 395.942 267.461ZM406.066 268.46C405.294 268.46 404.623 268.317 404.052 268.032C403.492 267.736 403.053 267.324 402.736 266.795C402.429 266.267 402.276 265.643 402.276 264.924C402.276 263.973 402.482 263.127 402.894 262.387C403.307 261.636 403.878 261.05 404.607 260.627C405.336 260.193 406.166 259.977 407.097 259.977C407.868 259.977 408.534 260.119 409.095 260.405C409.665 260.69 410.104 261.097 410.411 261.626C410.728 262.154 410.886 262.778 410.886 263.497C410.886 264.448 410.68 265.299 410.268 266.05C409.856 266.79 409.285 267.377 408.555 267.81C407.837 268.243 407.007 268.46 406.066 268.46ZM406.145 267.461C406.843 267.461 407.461 267.297 408 266.97C408.55 266.631 408.978 266.166 409.285 265.574C409.602 264.982 409.761 264.311 409.761 263.56C409.761 262.736 409.517 262.096 409.031 261.642C408.555 261.187 407.884 260.96 407.017 260.96C406.33 260.96 405.712 261.129 405.162 261.467C404.612 261.805 404.179 262.271 403.862 262.863C403.555 263.444 403.402 264.115 403.402 264.876C403.402 265.69 403.64 266.325 404.115 266.779C404.602 267.234 405.278 267.461 406.145 267.461ZM413.71 268.381L415.232 260.738L415.454 261.039H412.029L412.219 260.056H419.672L419.466 261.039H416.009L416.358 260.738L414.836 268.381H413.71ZM425.74 268.381L423.187 264.242L424.122 263.814L427.024 268.381H425.74ZM419.619 268.381L421.3 260.056H422.426L420.745 268.381H419.619ZM421.157 264.67L421.332 263.703H424.011L423.837 264.67H421.157ZM424.154 264.337L423.06 264.179L427.23 260.056H428.499L424.154 264.337ZM428.802 268.381L430.483 260.056H431.609L430.261 266.779L437.111 260.056H438.189L436.524 268.381H435.367L436.746 261.642L429.896 268.381H428.802ZM439.719 268.381L441.4 260.056H442.526L441.178 266.779L448.028 260.056H449.107L447.442 268.381H446.284L447.664 261.642L440.813 268.381H439.719ZM445.523 258.835C444.793 258.835 444.244 258.655 443.874 258.296C443.504 257.926 443.377 257.429 443.493 256.805H444.27C444.196 257.217 444.281 257.55 444.524 257.804C444.767 258.058 445.121 258.185 445.586 258.185C446.041 258.185 446.432 258.063 446.76 257.82C447.098 257.566 447.315 257.228 447.41 256.805H448.203C448.076 257.45 447.775 257.952 447.299 258.312C446.834 258.66 446.242 258.835 445.523 258.835ZM458.608 268.46C457.836 268.46 457.165 268.317 456.594 268.032C456.034 267.736 455.595 267.324 455.278 266.795C454.972 266.267 454.818 265.643 454.818 264.924C454.818 263.973 455.024 263.127 455.437 262.387C455.849 261.636 456.42 261.05 457.149 260.627C457.879 260.193 458.709 259.977 459.639 259.977C460.411 259.977 461.077 260.119 461.637 260.405C462.208 260.69 462.646 261.097 462.953 261.626C463.27 262.154 463.429 262.778 463.429 263.497C463.429 264.448 463.223 265.299 462.81 266.05C462.398 266.79 461.827 267.377 461.098 267.81C460.379 268.243 459.549 268.46 458.608 268.46ZM458.687 267.461C459.385 267.461 460.004 267.297 460.543 266.97C461.092 266.631 461.521 266.166 461.827 265.574C462.144 264.982 462.303 264.311 462.303 263.56C462.303 262.736 462.06 262.096 461.573 261.642C461.098 261.187 460.426 260.96 459.56 260.96C458.872 260.96 458.254 261.129 457.704 261.467C457.155 261.805 456.721 262.271 456.404 262.863C456.097 263.444 455.944 264.115 455.944 264.876C455.944 265.69 456.182 266.325 456.658 266.779C457.144 267.234 457.821 267.461 458.687 267.461ZM464.976 268.381L466.641 260.056H474.126L472.461 268.381H471.335L472.841 260.738L473.079 261.039H467.259L467.608 260.738L466.102 268.381H464.976ZM475.645 268.381L477.326 260.056H478.452L477.104 266.779L483.955 260.056H485.033L483.368 268.381H482.21L483.59 261.642L476.74 268.381H475.645ZM490.448 268.46C489.655 268.46 488.968 268.317 488.386 268.032C487.815 267.736 487.371 267.324 487.054 266.795C486.748 266.267 486.594 265.643 486.594 264.924C486.594 263.973 486.801 263.127 487.213 262.387C487.625 261.636 488.196 261.05 488.925 260.627C489.665 260.193 490.506 259.977 491.447 259.977C492.218 259.977 492.879 260.119 493.429 260.405C493.989 260.68 494.423 261.092 494.729 261.642L493.778 262.197C493.545 261.774 493.223 261.462 492.81 261.261C492.409 261.06 491.922 260.96 491.352 260.96C490.654 260.96 490.03 261.129 489.48 261.467C488.931 261.805 488.497 262.271 488.18 262.863C487.874 263.444 487.72 264.115 487.72 264.876C487.72 265.69 487.958 266.325 488.434 266.779C488.92 267.234 489.607 267.461 490.495 267.461C491.034 267.461 491.531 267.361 491.986 267.16C492.451 266.948 492.832 266.647 493.128 266.256L493.936 266.874C493.577 267.371 493.085 267.762 492.462 268.048C491.838 268.323 491.167 268.46 490.448 268.46Z" fill="#454545"/>
<path d="M129.047 268.381L131.267 257.281H140.591L138.371 268.381H137.229L139.29 257.979L139.528 258.296H131.885L132.25 257.979L130.188 268.381H129.047ZM145.668 268.46C144.896 268.46 144.225 268.317 143.654 268.032C143.094 267.736 142.655 267.324 142.338 266.795C142.031 266.267 141.878 265.643 141.878 264.924C141.878 263.973 142.084 263.127 142.497 262.387C142.909 261.636 143.48 261.05 144.209 260.627C144.939 260.193 145.768 259.977 146.699 259.977C147.47 259.977 148.136 260.119 148.697 260.405C149.268 260.69 149.706 261.097 150.013 261.626C150.33 262.154 150.489 262.778 150.489 263.497C150.489 264.448 150.282 265.299 149.87 266.05C149.458 266.79 148.887 267.377 148.158 267.81C147.439 268.243 146.609 268.46 145.668 268.46ZM145.747 267.461C146.445 267.461 147.063 267.297 147.603 266.97C148.152 266.631 148.58 266.166 148.887 265.574C149.204 264.982 149.363 264.311 149.363 263.56C149.363 262.736 149.12 262.096 148.633 261.642C148.158 261.187 147.486 260.96 146.619 260.96C145.932 260.96 145.314 261.129 144.764 261.467C144.214 261.805 143.781 262.271 143.464 262.863C143.157 263.444 143.004 264.115 143.004 264.876C143.004 265.69 143.242 266.325 143.718 266.779C144.204 267.234 144.88 267.461 145.747 267.461ZM152.036 268.381L153.717 260.056H157.348C158.225 260.056 158.891 260.214 159.346 260.532C159.801 260.838 160.028 261.293 160.028 261.895C160.028 262.604 159.732 263.18 159.14 263.624C158.548 264.057 157.771 264.274 156.809 264.274L157.015 263.973C157.892 263.973 158.532 264.121 158.934 264.417C159.346 264.702 159.552 265.157 159.552 265.78C159.552 266.594 159.224 267.234 158.569 267.699C157.924 268.154 157.031 268.381 155.889 268.381H152.036ZM153.32 267.493H155.953C156.735 267.493 157.343 267.34 157.776 267.033C158.22 266.726 158.442 266.298 158.442 265.749C158.442 265.336 158.305 265.04 158.03 264.861C157.755 264.681 157.311 264.591 156.698 264.591H153.907L153.32 267.493ZM154.066 263.751H156.555C157.253 263.751 157.813 263.603 158.236 263.307C158.669 263 158.886 262.593 158.886 262.086C158.886 261.694 158.738 261.404 158.442 261.213C158.157 261.023 157.723 260.928 157.142 260.928H154.636L154.066 263.751ZM161.683 268.381L163.348 260.056H164.474L163.745 263.735H168.978L169.723 260.056H170.849L169.184 268.381H168.058L168.787 264.702H163.554L162.809 268.381H161.683ZM172.368 268.381L174.049 260.056H175.175L173.827 266.779L180.677 260.056H181.756L180.091 268.381H178.933L180.313 261.642L173.462 268.381H172.368ZM183.286 268.381L184.966 260.056H186.092L184.744 266.779L191.595 260.056H192.673L191.008 268.381H189.85L191.23 261.642L184.38 268.381H183.286ZM189.089 258.835C188.36 258.835 187.81 258.655 187.44 258.296C187.07 257.926 186.943 257.429 187.06 256.805H187.837C187.763 257.217 187.847 257.55 188.09 257.804C188.333 258.058 188.688 258.185 189.153 258.185C189.607 258.185 189.998 258.063 190.326 257.82C190.664 257.566 190.881 257.228 190.976 256.805H191.769C191.642 257.45 191.341 257.952 190.865 258.312C190.4 258.66 189.808 258.835 189.089 258.835ZM204.474 268.381L201.921 264.242L202.856 263.814L205.758 268.381H204.474ZM198.353 268.381L200.034 260.056H201.16L199.479 268.381H198.353ZM199.891 264.67L200.066 263.703H202.745L202.571 264.67H199.891ZM202.888 264.337L201.794 264.179L205.964 260.056H207.233L202.888 264.337ZM211.063 268.46C210.291 268.46 209.62 268.317 209.049 268.032C208.489 267.736 208.05 267.324 207.733 266.795C207.427 266.267 207.273 265.643 207.273 264.924C207.273 263.973 207.479 263.127 207.892 262.387C208.304 261.636 208.875 261.05 209.604 260.627C210.334 260.193 211.164 259.977 212.094 259.977C212.866 259.977 213.532 260.119 214.092 260.405C214.663 260.69 215.101 261.097 215.408 261.626C215.725 262.154 215.884 262.778 215.884 263.497C215.884 264.448 215.678 265.299 215.265 266.05C214.853 266.79 214.282 267.377 213.553 267.81C212.834 268.243 212.004 268.46 211.063 268.46ZM211.142 267.461C211.84 267.461 212.459 267.297 212.998 266.97C213.547 266.631 213.976 266.166 214.282 265.574C214.599 264.982 214.758 264.311 214.758 263.56C214.758 262.736 214.515 262.096 214.028 261.642C213.553 261.187 212.881 260.96 212.015 260.96C211.327 260.96 210.709 261.129 210.159 261.467C209.61 261.805 209.176 262.271 208.859 262.863C208.552 263.444 208.399 264.115 208.399 264.876C208.399 265.69 208.637 266.325 209.113 266.779C209.599 267.234 210.276 267.461 211.142 267.461ZM217.431 268.381L219.096 260.056H220.222L219.492 263.735H224.725L225.471 260.056H226.596L224.931 268.381H223.806L224.535 264.702H219.302L218.557 268.381H217.431ZM229.702 268.381L231.224 260.738L231.446 261.039H228.021L228.211 260.056H235.664L235.458 261.039H232.001L232.35 260.738L230.828 268.381H229.702ZM239.156 268.46C238.364 268.46 237.671 268.317 237.079 268.032C236.498 267.736 236.048 267.324 235.731 266.795C235.425 266.267 235.271 265.638 235.271 264.908C235.271 263.957 235.472 263.111 235.874 262.371C236.276 261.631 236.825 261.05 237.523 260.627C238.221 260.193 239.008 259.977 239.886 259.977C240.626 259.977 241.265 260.119 241.805 260.405C242.344 260.68 242.761 261.081 243.057 261.61C243.364 262.138 243.517 262.773 243.517 263.513C243.517 263.682 243.507 263.856 243.485 264.036C243.464 264.205 243.438 264.369 243.406 264.528H236.096L236.239 263.687H242.883L242.423 264.004C242.529 263.338 242.481 262.778 242.28 262.323C242.079 261.869 241.768 261.525 241.345 261.293C240.932 261.05 240.436 260.928 239.854 260.928C239.178 260.928 238.575 261.097 238.046 261.435C237.518 261.763 237.106 262.223 236.81 262.815C236.514 263.396 236.366 264.078 236.366 264.861C236.366 265.696 236.603 266.341 237.079 266.795C237.565 267.239 238.29 267.461 239.252 267.461C239.812 267.461 240.33 267.371 240.806 267.192C241.281 267.001 241.672 266.742 241.979 266.415L242.486 267.223C242.095 267.614 241.604 267.921 241.012 268.143C240.43 268.354 239.812 268.46 239.156 268.46ZM245.104 268.381L246.769 260.056H247.894L247.165 263.735H252.398L253.143 260.056H254.269L252.604 268.381H251.478L252.208 264.702H246.975L246.229 268.381H245.104ZM257.374 268.381L258.897 260.738L259.119 261.039H255.693L255.884 260.056H263.337L263.13 261.039H259.674L260.022 260.738L258.5 268.381H257.374Z" fill="#454545"/>
</svg>
