<svg width="619" height="323" viewBox="0 0 619 323" fill="none" xmlns="http://www.w3.org/2000/svg">
<path d="M0 15C0 6.71574 6.71573 0 15 0H604C612.284 0 619 6.71573 619 15V308C619 316.284 612.284 323 604 323H15C6.71572 323 0 316.284 0 308V15Z" fill="white"/>
<path d="M46.332 48.154V37.966H40.806L40.716 40.612C40.68 41.5 40.62 42.352 40.536 43.168C40.464 43.984 40.356 44.722 40.212 45.382C40.068 46.03 39.864 46.564 39.6 46.984C39.348 47.404 39.024 47.662 38.628 47.758L36.684 47.434C37.152 47.47 37.536 47.314 37.836 46.966C38.148 46.606 38.388 46.108 38.556 45.472C38.736 44.824 38.868 44.074 38.952 43.222C39.036 42.358 39.096 41.434 39.132 40.45L39.258 36.4H48.114V48.154H46.332ZM36.234 51.754L36.252 47.434H49.968V51.754H48.294V49H37.926L37.908 51.754H36.234ZM52.1408 49V39.46H53.8688V43.51H59.3048V39.46H61.0328V49H59.3048V45.004H53.8688V49H52.1408ZM64.3928 49V39.46H66.1208V49H64.3928ZM65.2568 37.624C64.9208 37.624 64.6388 37.516 64.4108 37.3C64.1948 37.084 64.0868 36.82 64.0868 36.508C64.0868 36.184 64.1948 35.914 64.4108 35.698C64.6388 35.482 64.9208 35.374 65.2568 35.374C65.5928 35.374 65.8688 35.482 66.0848 35.698C66.3128 35.902 66.4268 36.16 66.4268 36.472C66.4268 36.796 66.3188 37.072 66.1028 37.3C65.8868 37.516 65.6048 37.624 65.2568 37.624Z" fill="#37376D"/>
<path d="M36.962 140V127.4H45.224L45.206 128.966H38.294L38.726 128.516L38.744 140H36.962ZM48.4768 140.108C47.5168 140.108 46.6648 139.898 45.9208 139.478C45.1768 139.058 44.5888 138.482 44.1568 137.75C43.7248 137.006 43.5088 136.166 43.5088 135.23C43.5088 134.282 43.7248 133.442 44.1568 132.71C44.5888 131.978 45.1768 131.408 45.9208 131C46.6648 130.58 47.5168 130.37 48.4768 130.37C49.4248 130.37 50.2708 130.58 51.0148 131C51.7708 131.408 52.3588 131.978 52.7788 132.71C53.2108 133.43 53.4268 134.27 53.4268 135.23C53.4268 136.178 53.2108 137.018 52.7788 137.75C52.3588 138.482 51.7708 139.058 51.0148 139.478C50.2708 139.898 49.4248 140.108 48.4768 140.108ZM48.4768 138.596C49.0888 138.596 49.6348 138.458 50.1148 138.182C50.6068 137.906 50.9908 137.516 51.2668 137.012C51.5428 136.496 51.6808 135.902 51.6808 135.23C51.6808 134.546 51.5428 133.958 51.2668 133.466C50.9908 132.962 50.6068 132.572 50.1148 132.296C49.6348 132.02 49.0888 131.882 48.4768 131.882C47.8648 131.882 47.3188 132.02 46.8388 132.296C46.3588 132.572 45.9748 132.962 45.6868 133.466C45.3988 133.958 45.2548 134.546 45.2548 135.23C45.2548 135.902 45.3988 136.496 45.6868 137.012C45.9748 137.516 46.3588 137.906 46.8388 138.182C47.3188 138.458 47.8648 138.596 48.4768 138.596ZM62.3677 139.19V131.972H58.2277L58.1377 133.808C58.1137 134.408 58.0717 134.99 58.0117 135.554C57.9637 136.106 57.8797 136.616 57.7597 137.084C57.6517 137.552 57.4897 137.936 57.2737 138.236C57.0577 138.536 56.7697 138.722 56.4097 138.794L54.6997 138.488C55.0717 138.5 55.3717 138.38 55.5997 138.128C55.8277 137.864 56.0017 137.504 56.1217 137.048C56.2537 136.592 56.3497 136.076 56.4097 135.5C56.4697 134.912 56.5177 134.306 56.5537 133.682L56.6977 130.46H64.0957V139.19H62.3677ZM54.3217 142.214V138.488H65.5537V142.214H63.9337V140H55.9597V142.214H54.3217ZM67.8049 140V130.46H69.5329V137.408L75.3829 130.46H76.9489V140H75.2209V133.052L69.3889 140H67.8049ZM80.3029 140V130.46H82.0309V134.51H87.4669V130.46H89.1949V140H87.4669V136.004H82.0309V140H80.3029ZM92.5549 140V130.46H94.2829V137.408L100.133 130.46H101.699V140H99.9709V133.052L94.1389 140H92.5549Z" fill="#37376D"/>
<path d="M38.612 219.4H40.682L43.976 224.008L47.27 219.4H49.376L45.11 225.448L49.718 232H47.594L43.976 226.978L40.376 232H38.306L42.896 225.52L38.612 219.4ZM51.5217 232V222.46H55.9497C57.0657 222.46 57.9417 222.676 58.5777 223.108C59.2257 223.528 59.5497 224.128 59.5497 224.908C59.5497 225.688 59.2437 226.294 58.6317 226.726C58.0317 227.146 57.2337 227.356 56.2377 227.356L56.5077 226.888C57.6477 226.888 58.4937 227.098 59.0457 227.518C59.5977 227.938 59.8737 228.556 59.8737 229.372C59.8737 230.2 59.5617 230.848 58.9377 231.316C58.3257 231.772 57.3837 232 56.1117 232H51.5217ZM53.2137 230.668H55.9857C56.7057 230.668 57.2457 230.56 57.6057 230.344C57.9657 230.116 58.1457 229.756 58.1457 229.264C58.1457 228.76 57.9777 228.394 57.6417 228.166C57.3177 227.926 56.8017 227.806 56.0937 227.806H53.2137V230.668ZM53.2137 226.564H55.8057C56.4657 226.564 56.9637 226.444 57.2997 226.204C57.6477 225.952 57.8217 225.604 57.8217 225.16C57.8217 224.704 57.6477 224.362 57.2997 224.134C56.9637 223.906 56.4657 223.792 55.8057 223.792H53.2137V226.564ZM62.5783 232V222.46H64.3063V229.408L70.1563 222.46H71.7223V232H69.9943V225.052L64.1623 232H62.5783ZM73.4923 231.982L73.6003 230.524C73.6843 230.536 73.7623 230.548 73.8343 230.56C73.9063 230.572 73.9723 230.578 74.0323 230.578C74.4163 230.578 74.7163 230.446 74.9323 230.182C75.1603 229.918 75.3283 229.57 75.4363 229.138C75.5443 228.694 75.6223 228.196 75.6703 227.644C75.7183 227.092 75.7543 226.54 75.7783 225.988L75.9403 222.46H83.2663V232H81.5383V223.468L81.9523 223.972H77.0563L77.4523 223.45L77.3263 226.096C77.2903 226.936 77.2243 227.722 77.1283 228.454C77.0323 229.186 76.8823 229.828 76.6783 230.38C76.4863 230.932 76.2163 231.364 75.8683 231.676C75.5323 231.988 75.0943 232.144 74.5543 232.144C74.3983 232.144 74.2303 232.126 74.0503 232.09C73.8823 232.066 73.6963 232.03 73.4923 231.982ZM86.6076 232V222.46H88.3356V229.408L94.1856 222.46H95.7516V232H94.0236V225.052L88.1916 232H86.6076ZM99.1056 232V222.46H100.834V226.51H106.27V222.46H107.998V232H106.27V228.004H100.834V232H99.1056ZM111.358 232V222.46H113.086V229.408L118.936 222.46H120.502V232H118.774V225.052L112.942 232H111.358Z" fill="#37376D"/>
<path fill-rule="evenodd" clip-rule="evenodd" d="M357 103H36V102H357V103Z" fill="black"/>
<path fill-rule="evenodd" clip-rule="evenodd" d="M357 194H36V193H357V194Z" fill="black"/>
<path d="M45.1815 258.874C45.1815 259.498 45.0135 260.062 44.6775 260.566C44.3535 261.058 43.9275 261.394 43.3995 261.574C44.0235 261.766 44.5575 262.12 45.0015 262.636C45.4575 263.14 45.6855 263.818 45.6855 264.67C45.6855 265.81 45.2595 266.686 44.4075 267.298C43.5675 267.91 42.4995 268.216 41.2035 268.216C39.5595 268.216 38.1375 267.946 36.9375 267.406V265.912C38.1015 266.512 39.4815 266.806 41.0775 266.794C43.1775 266.794 44.2275 266.062 44.2275 264.598C44.2275 263.134 43.2315 262.402 41.2395 262.402H39.3675V260.962L41.0775 260.98C41.9415 260.98 42.5955 260.8 43.0395 260.44C43.4955 260.068 43.7235 259.588 43.7235 259C43.7235 258.364 43.4715 257.866 42.9675 257.506C42.4635 257.134 41.7495 256.948 40.8255 256.948C39.5535 256.948 38.3295 257.26 37.1535 257.884V256.408C38.2815 255.832 39.5715 255.544 41.0235 255.544C42.2715 255.544 43.2735 255.85 44.0295 256.462C44.7975 257.074 45.1815 257.878 45.1815 258.874Z" fill="#37376D"/>
<path d="M48.852 266.47C47.94 265.306 47.484 263.776 47.484 261.88C47.484 259.984 47.94 258.454 48.852 257.29C49.764 256.126 51.108 255.544 52.884 255.544C54.672 255.544 56.022 256.126 56.934 257.29C57.846 258.442 58.302 259.972 58.302 261.88C58.302 263.788 57.846 265.324 56.934 266.488C56.022 267.64 54.672 268.216 52.884 268.216C51.108 268.216 49.764 267.634 48.852 266.47ZM55.8 265.516C56.448 264.664 56.772 263.452 56.772 261.88C56.772 260.308 56.448 259.102 55.8 258.262C55.164 257.41 54.192 256.984 52.884 256.984C51.576 256.984 50.604 257.41 49.968 258.262C49.332 259.102 49.014 260.308 49.014 261.88C49.014 263.452 49.332 264.664 49.968 265.516C50.604 266.356 51.576 266.776 52.884 266.776C54.192 266.776 55.164 266.356 55.8 265.516Z" fill="#37376D"/>
<path fill-rule="evenodd" clip-rule="evenodd" d="M357 285H36V284H357V285Z" fill="black"/>
<path d="M353.163 269.75L348.998 266L357.328 266L353.163 269.75Z" fill="#000C2C"/>
<path d="M353.165 255L357.33 258.75H349L353.165 255Z" fill="#000C2C"/>
<path d="M35 168.5C35 160.492 41.4919 154 49.5 154H94.5C102.508 154 109 160.492 109 168.5C109 176.508 102.508 183 94.5 183H49.5C41.4919 183 35 176.508 35 168.5Z" fill="#DDDDE6"/>
<rect x="35" y="154" width="74" height="29" rx="14.5" fill="#DDDDE6"/>
<path d="M47.988 174.5V162.62L48.762 163.466H45.144V161.9H49.77V174.5H47.988ZM57.6741 174.644C56.6901 174.644 55.8081 174.392 55.0281 173.888C54.2601 173.384 53.6481 172.652 53.1921 171.692C52.7481 170.732 52.5261 169.568 52.5261 168.2C52.5261 166.832 52.7481 165.668 53.1921 164.708C53.6481 163.748 54.2601 163.016 55.0281 162.512C55.8081 162.008 56.6901 161.756 57.6741 161.756C58.6461 161.756 59.5221 162.008 60.3021 162.512C61.0821 163.016 61.6941 163.748 62.1381 164.708C62.5821 165.668 62.8041 166.832 62.8041 168.2C62.8041 169.568 62.5821 170.732 62.1381 171.692C61.6941 172.652 61.0821 173.384 60.3021 173.888C59.5221 174.392 58.6461 174.644 57.6741 174.644ZM57.6741 173.042C58.3341 173.042 58.9101 172.862 59.4021 172.502C59.9061 172.142 60.2961 171.602 60.5721 170.882C60.8601 170.162 61.0041 169.268 61.0041 168.2C61.0041 167.132 60.8601 166.238 60.5721 165.518C60.2961 164.798 59.9061 164.258 59.4021 163.898C58.9101 163.538 58.3341 163.358 57.6741 163.358C57.0141 163.358 56.4321 163.538 55.9281 163.898C55.4241 164.258 55.0281 164.798 54.7401 165.518C54.4641 166.238 54.3261 167.132 54.3261 168.2C54.3261 169.268 54.4641 170.162 54.7401 170.882C55.0281 171.602 55.4241 172.142 55.9281 172.502C56.4321 172.862 57.0141 173.042 57.6741 173.042Z" fill="#37376D"/>
<path d="M99 168.5C99 174.299 94.299 179 88.5 179C82.701 179 78 174.299 78 168.5C78 162.701 82.701 158 88.5 158C94.299 158 99 162.701 99 168.5Z" fill="#AFAFBD"/>
<path fill-rule="evenodd" clip-rule="evenodd" d="M88.5005 167.793L85.672 164.965L84.9648 165.672L87.7934 168.5L84.9648 171.329L85.672 172.036L88.5005 169.208L91.3288 172.036L92.0359 171.329L89.2076 168.5L92.0359 165.672L91.3288 164.965L88.5005 167.793Z" fill="#37376D"/>
<rect x="35" y="64" width="74" height="29" rx="14.5" fill="#DDDDE6"/>
<path d="M46.962 84.5V71.9H57.816V84.5H56.052V72.998L56.484 73.466H48.294L48.744 72.998V84.5H46.962ZM61.4572 84.5V74.96H63.1852V79.01H68.6212V74.96H70.3492V84.5H68.6212V80.504H63.1852V84.5H61.4572Z" fill="#37376D"/>
<path d="M99 78.5C99 84.299 94.299 89 88.5 89C82.701 89 78 84.299 78 78.5C78 72.701 82.701 68 88.5 68C94.299 68 99 72.701 99 78.5Z" fill="#AFAFBD"/>
<path fill-rule="evenodd" clip-rule="evenodd" d="M88.5005 77.7934L85.672 74.9648L84.9648 75.672L87.7934 78.5005L84.9648 81.329L85.672 82.0361L88.5005 79.2076L91.3288 82.0359L92.0359 81.3288L89.2076 78.5005L92.0359 75.6721L91.3288 74.965L88.5005 77.7934Z" fill="#37376D"/>
<rect x="119" y="64" width="74" height="29" rx="14.5" fill="#DDDDE6"/>
<path d="M130.962 84.5V71.9H136.38C137.748 71.9 138.822 72.176 139.602 72.728C140.382 73.28 140.772 74.084 140.772 75.14C140.772 76.172 140.4 76.964 139.656 77.516C138.912 78.056 137.934 78.326 136.722 78.326L137.046 77.786C138.45 77.786 139.524 78.068 140.268 78.632C141.024 79.184 141.402 79.994 141.402 81.062C141.402 82.142 141.006 82.988 140.214 83.6C139.434 84.2 138.27 84.5 136.722 84.5H130.962ZM132.744 83.078H136.686C137.646 83.078 138.366 82.904 138.846 82.556C139.338 82.196 139.584 81.65 139.584 80.918C139.584 80.186 139.338 79.652 138.846 79.316C138.366 78.98 137.646 78.812 136.686 78.812H132.744V83.078ZM132.744 77.444H136.254C137.13 77.444 137.796 77.27 138.252 76.922C138.72 76.574 138.954 76.064 138.954 75.392C138.954 74.708 138.72 74.192 138.252 73.844C137.796 73.496 137.13 73.322 136.254 73.322H132.744V77.444ZM146.011 84.5V76.022L146.443 76.472H142.519V74.96H151.231V76.472H147.325L147.739 76.022V84.5H146.011Z" fill="#37376D"/>
<path d="M183 78.5C183 84.299 178.299 89 172.5 89C166.701 89 162 84.299 162 78.5C162 72.701 166.701 68 172.5 68C178.299 68 183 72.701 183 78.5Z" fill="#AFAFBD"/>
<path fill-rule="evenodd" clip-rule="evenodd" d="M172.5 77.7934L169.672 74.9648L168.965 75.672L171.793 78.5005L168.965 81.329L169.672 82.0361L172.5 79.2076L175.329 82.0359L176.036 81.3288L173.208 78.5005L176.036 75.6721L175.329 74.965L172.5 77.7934Z" fill="#37376D"/>
<rect x="203" y="64" width="74" height="29" rx="14.5" fill="#DDDDE6"/>
<path d="M220.596 84.644C219.636 84.644 218.748 84.488 217.932 84.176C217.128 83.852 216.426 83.402 215.826 82.826C215.238 82.238 214.776 81.554 214.44 80.774C214.104 79.994 213.936 79.136 213.936 78.2C213.936 77.264 214.104 76.406 214.44 75.626C214.776 74.846 215.244 74.168 215.844 73.592C216.444 73.004 217.146 72.554 217.95 72.242C218.766 71.918 219.654 71.756 220.614 71.756C221.586 71.756 222.48 71.924 223.296 72.26C224.124 72.584 224.826 73.07 225.402 73.718L224.232 74.852C223.752 74.348 223.212 73.976 222.612 73.736C222.012 73.484 221.37 73.358 220.686 73.358C219.978 73.358 219.318 73.478 218.706 73.718C218.106 73.958 217.584 74.294 217.14 74.726C216.696 75.158 216.348 75.674 216.096 76.274C215.856 76.862 215.736 77.504 215.736 78.2C215.736 78.896 215.856 79.544 216.096 80.144C216.348 80.732 216.696 81.242 217.14 81.674C217.584 82.106 218.106 82.442 218.706 82.682C219.318 82.922 219.978 83.042 220.686 83.042C221.37 83.042 222.012 82.922 222.612 82.682C223.212 82.43 223.752 82.046 224.232 81.53L225.402 82.664C224.826 83.312 224.124 83.804 223.296 84.14C222.48 84.476 221.58 84.644 220.596 84.644ZM232.652 84.608C231.86 84.608 231.134 84.428 230.474 84.068C229.826 83.696 229.304 83.15 228.908 82.43C228.524 81.71 228.332 80.81 228.332 79.73C228.332 78.65 228.518 77.75 228.89 77.03C229.274 76.31 229.79 75.77 230.438 75.41C231.098 75.05 231.836 74.87 232.652 74.87C233.588 74.87 234.416 75.074 235.136 75.482C235.856 75.89 236.426 76.46 236.846 77.192C237.266 77.912 237.476 78.758 237.476 79.73C237.476 80.702 237.266 81.554 236.846 82.286C236.426 83.018 235.856 83.588 235.136 83.996C234.416 84.404 233.588 84.608 232.652 84.608ZM227.594 87.992V74.96H229.25V77.534L229.142 79.748L229.322 81.962V87.992H227.594ZM232.508 83.096C233.12 83.096 233.666 82.958 234.146 82.682C234.638 82.406 235.022 82.016 235.298 81.512C235.586 80.996 235.73 80.402 235.73 79.73C235.73 79.046 235.586 78.458 235.298 77.966C235.022 77.462 234.638 77.072 234.146 76.796C233.666 76.52 233.12 76.382 232.508 76.382C231.908 76.382 231.362 76.52 230.87 76.796C230.39 77.072 230.006 77.462 229.718 77.966C229.442 78.458 229.304 79.046 229.304 79.73C229.304 80.402 229.442 80.996 229.718 81.512C230.006 82.016 230.39 82.406 230.87 82.682C231.362 82.958 231.908 83.096 232.508 83.096Z" fill="#37376D"/>
<path d="M267 78.5C267 84.299 262.299 89 256.5 89C250.701 89 246 84.299 246 78.5C246 72.701 250.701 68 256.5 68C262.299 68 267 72.701 267 78.5Z" fill="#AFAFBD"/>
<path fill-rule="evenodd" clip-rule="evenodd" d="M256.5 77.7934L253.672 74.9648L252.965 75.672L255.793 78.5005L252.965 81.329L253.672 82.0361L256.5 79.2076L259.329 82.0359L260.036 81.3288L257.208 78.5005L260.036 75.6721L259.329 74.965L256.5 77.7934Z" fill="#37376D"/>
<rect x="287" y="64" width="74" height="29" rx="14.5" fill="#DDDDE6"/>
<path d="M306.81 79.388C306.102 79.688 305.412 79.916 304.74 80.072C304.08 80.216 303.438 80.288 302.814 80.288C301.278 80.288 300.084 79.916 299.232 79.172C298.392 78.428 297.972 77.366 297.972 75.986V71.9H299.736V75.788C299.736 76.724 300.024 77.444 300.6 77.948C301.176 78.452 301.98 78.704 303.012 78.704C303.624 78.704 304.248 78.626 304.884 78.47C305.532 78.314 306.162 78.086 306.774 77.786L306.81 79.388ZM306.504 84.5V71.9H308.286V84.5H306.504ZM313.818 84.5V76.022L314.25 76.472H310.326V74.96H319.038V76.472H315.132L315.546 76.022V84.5H313.818Z" fill="#37376D"/>
<path d="M351 78.5C351 84.299 346.299 89 340.5 89C334.701 89 330 84.299 330 78.5C330 72.701 334.701 68 340.5 68C346.299 68 351 72.701 351 78.5Z" fill="#AFAFBD"/>
<path fill-rule="evenodd" clip-rule="evenodd" d="M340.5 77.7934L337.672 74.9648L336.965 75.672L339.793 78.5005L336.965 81.329L337.672 82.0361L340.5 79.2076L343.329 82.0359L344.036 81.3288L341.208 78.5005L344.036 75.6721L343.329 74.965L340.5 77.7934Z" fill="#37376D"/>
<path d="M119 168.5C119 160.492 125.492 154 133.5 154H178.5C186.508 154 193 160.492 193 168.5C193 176.508 186.508 183 178.5 183H133.5C125.492 183 119 176.508 119 168.5Z" fill="#DDDDE6"/>
<path d="M135.923 161.76H137.039V172.56H139.325V174H132.953V172.56H135.527V163.362L132.953 164.334V162.894L135.923 161.76Z" fill="#37376D"/>
<path d="M140.957 162.732C142.097 161.94 143.406 161.544 144.882 161.544C146.154 161.544 147.168 161.832 147.924 162.408C148.679 162.984 149.057 163.788 149.057 164.82C149.057 165.312 148.962 165.774 148.77 166.206C148.59 166.638 148.313 167.034 147.941 167.394C147.582 167.754 147.227 168.06 146.879 168.312C146.543 168.552 146.117 168.822 145.601 169.122C145.542 169.158 145.356 169.266 145.043 169.446C144.743 169.626 144.551 169.74 144.467 169.788C144.395 169.836 144.227 169.944 143.964 170.112C143.712 170.268 143.543 170.382 143.459 170.454C143.387 170.526 143.255 170.64 143.063 170.796C142.883 170.952 142.757 171.084 142.685 171.192C142.625 171.3 142.541 171.438 142.433 171.606C142.337 171.762 142.271 171.918 142.235 172.074C142.199 172.23 142.181 172.398 142.181 172.578L149.147 172.56V174H140.525V173.28C140.525 172.608 140.634 172.002 140.85 171.462C141.066 170.91 141.372 170.442 141.767 170.058C142.175 169.662 142.577 169.332 142.973 169.068C143.369 168.792 143.832 168.498 144.359 168.186C144.479 168.126 144.569 168.078 144.629 168.042C145.721 167.406 146.435 166.92 146.771 166.584C147.287 166.056 147.545 165.462 147.545 164.802C147.545 164.202 147.299 163.746 146.807 163.434C146.328 163.11 145.643 162.948 144.755 162.948C143.459 162.948 142.193 163.38 140.957 164.244V162.732Z" fill="#37376D"/>
<path d="M188 168.5C188 174.299 183.299 179 177.5 179C171.701 179 167 174.299 167 168.5C167 162.701 171.701 158 177.5 158C183.299 158 188 162.701 188 168.5Z" fill="#AFAFBD"/>
<path fill-rule="evenodd" clip-rule="evenodd" d="M177.5 167.793L174.672 164.965L173.965 165.672L176.793 168.5L173.965 171.329L174.672 172.036L177.5 169.208L180.329 172.036L181.036 171.329L178.208 168.5L181.036 165.672L180.329 164.965L177.5 167.793Z" fill="#37376D"/>
<path d="M203 168.5C203 160.492 209.492 154 217.5 154H262.5C270.508 154 277 160.492 277 168.5C277 176.508 270.508 183 262.5 183H217.5C209.492 183 203 176.508 203 168.5Z" fill="#DDDDE6"/>
<path d="M219.923 161.76H221.039V172.56H223.325V174H216.953V172.56H219.527V163.362L216.953 164.334V162.894L219.923 161.76Z" fill="#37376D"/>
<path d="M230.861 161.76H232.5V169.878H234.803V171.282H232.5V174H231.005V171.282H224.183V169.932L230.861 161.76ZM231.005 169.878V163.794L226.037 169.878H231.005Z" fill="#37376D"/>
<path d="M272 168.5C272 174.299 267.299 179 261.5 179C255.701 179 251 174.299 251 168.5C251 162.701 255.701 158 261.5 158C267.299 158 272 162.701 272 168.5Z" fill="#AFAFBD"/>
<path fill-rule="evenodd" clip-rule="evenodd" d="M261.5 167.793L258.672 164.965L257.965 165.672L260.793 168.5L257.965 171.329L258.672 172.036L261.5 169.208L264.329 172.036L265.036 171.329L262.208 168.5L265.036 165.672L264.329 164.965L261.5 167.793Z" fill="#37376D"/>
<path d="M287 168.5C287 160.492 293.492 154 301.5 154H346.5C354.508 154 361 160.492 361 168.5C361 176.508 354.508 183 346.5 183H301.5C293.492 183 287 176.508 287 168.5Z" fill="#DDDDE6"/>
<path d="M303.923 161.76H305.039V172.56H307.325V174H300.953V172.56H303.527V163.362L300.953 164.334V162.894L303.923 161.76Z" fill="#37376D"/>
<path d="M310.2 167.538C311.364 166.758 312.641 166.368 314.033 166.368C315.149 166.368 316.128 166.71 316.968 167.394C317.808 168.066 318.227 169.002 318.227 170.202C318.227 171.462 317.808 172.446 316.968 173.154C316.14 173.862 315.095 174.216 313.835 174.216C312.108 174.216 310.811 173.682 309.947 172.614C309.095 171.534 308.669 170.022 308.669 168.078C308.669 165.918 309.179 164.292 310.2 163.2C311.231 162.096 312.575 161.544 314.231 161.544C315.299 161.544 316.29 161.778 317.201 162.246V163.686C316.313 163.218 315.335 162.984 314.267 162.984C313.139 162.984 312.198 163.35 311.441 164.082C310.697 164.802 310.283 165.954 310.2 167.538ZM310.217 169.05C310.445 171.558 311.615 172.812 313.727 172.812C314.615 172.812 315.33 172.608 315.87 172.2C316.422 171.792 316.698 171.15 316.698 170.274C316.698 169.386 316.416 168.75 315.852 168.366C315.288 167.97 314.556 167.772 313.656 167.772C312.323 167.772 311.177 168.198 310.217 169.05Z" fill="#37376D"/>
<path d="M356 168.5C356 174.299 351.299 179 345.5 179C339.701 179 335 174.299 335 168.5C335 162.701 339.701 158 345.5 158C351.299 158 356 162.701 356 168.5Z" fill="#AFAFBD"/>
<path fill-rule="evenodd" clip-rule="evenodd" d="M345.5 167.793L342.672 164.965L341.965 165.672L344.793 168.5L341.965 171.329L342.672 172.036L345.5 169.208L348.329 172.036L349.036 171.329L346.208 168.5L349.036 165.672L348.329 164.965L345.5 167.793Z" fill="#37376D"/>
<rect x="423" y="57" width="109" height="32" rx="5" fill="#E8F7FF"/>
<path d="M435.744 79V67.8H440.56C441.776 67.8 442.731 68.0453 443.424 68.536C444.117 69.0267 444.464 69.7413 444.464 70.68C444.464 71.5973 444.133 72.3013 443.472 72.792C442.811 73.272 441.941 73.512 440.864 73.512L441.152 73.032C442.4 73.032 443.355 73.2827 444.016 73.784C444.688 74.2747 445.024 74.9947 445.024 75.944C445.024 76.904 444.672 77.656 443.968 78.2C443.275 78.7333 442.24 79 440.864 79H435.744ZM437.328 77.736H440.832C441.685 77.736 442.325 77.5813 442.752 77.272C443.189 76.952 443.408 76.4667 443.408 75.816C443.408 75.1653 443.189 74.6907 442.752 74.392C442.325 74.0933 441.685 73.944 440.832 73.944H437.328V77.736ZM437.328 72.728H440.448C441.227 72.728 441.819 72.5733 442.224 72.264C442.64 71.9547 442.848 71.5013 442.848 70.904C442.848 70.296 442.64 69.8373 442.224 69.528C441.819 69.2187 441.227 69.064 440.448 69.064H437.328V72.728ZM447.441 79V70.52H448.977V76.696L454.177 70.52H455.569V79H454.033V72.824L448.849 79H447.441ZM463.047 79.096C462.343 79.096 461.697 78.936 461.111 78.616C460.535 78.2853 460.071 77.8 459.719 77.16C459.377 76.52 459.207 75.72 459.207 74.76C459.207 73.8 459.372 73 459.703 72.36C460.044 71.72 460.503 71.24 461.079 70.92C461.665 70.6 462.321 70.44 463.047 70.44C463.879 70.44 464.615 70.6213 465.255 70.984C465.895 71.3467 466.401 71.8533 466.775 72.504C467.148 73.144 467.335 73.896 467.335 74.76C467.335 75.624 467.148 76.3813 466.775 77.032C466.401 77.6827 465.895 78.1893 465.255 78.552C464.615 78.9147 463.879 79.096 463.047 79.096ZM458.551 82.104V70.52H460.023V72.808L459.927 74.776L460.087 76.744V82.104H458.551ZM462.919 77.752C463.463 77.752 463.948 77.6293 464.375 77.384C464.812 77.1387 465.153 76.792 465.399 76.344C465.655 75.8853 465.783 75.3573 465.783 74.76C465.783 74.152 465.655 73.6293 465.399 73.192C465.153 72.744 464.812 72.3973 464.375 72.152C463.948 71.9067 463.463 71.784 462.919 71.784C462.385 71.784 461.9 71.9067 461.463 72.152C461.036 72.3973 460.695 72.744 460.439 73.192C460.193 73.6293 460.071 74.152 460.071 74.76C460.071 75.3573 460.193 75.8853 460.439 76.344C460.695 76.792 461.036 77.1387 461.463 77.384C461.9 77.6293 462.385 77.752 462.919 77.752ZM473.198 79.096C472.345 79.096 471.587 78.9093 470.926 78.536C470.265 78.1627 469.742 77.6507 469.358 77C468.974 76.3387 468.782 75.592 468.782 74.76C468.782 73.9173 468.974 73.1707 469.358 72.52C469.742 71.8693 470.265 71.3627 470.926 71C471.587 70.6267 472.345 70.44 473.198 70.44C474.041 70.44 474.793 70.6267 475.454 71C476.126 71.3627 476.649 71.8693 477.022 72.52C477.406 73.16 477.598 73.9067 477.598 74.76C477.598 75.6027 477.406 76.3493 477.022 77C476.649 77.6507 476.126 78.1627 475.454 78.536C474.793 78.9093 474.041 79.096 473.198 79.096ZM473.198 77.752C473.742 77.752 474.227 77.6293 474.654 77.384C475.091 77.1387 475.433 76.792 475.678 76.344C475.923 75.8853 476.046 75.3573 476.046 74.76C476.046 74.152 475.923 73.6293 475.678 73.192C475.433 72.744 475.091 72.3973 474.654 72.152C474.227 71.9067 473.742 71.784 473.198 71.784C472.654 71.784 472.169 71.9067 471.742 72.152C471.315 72.3973 470.974 72.744 470.718 73.192C470.462 73.6293 470.334 74.152 470.334 74.76C470.334 75.3573 470.462 75.8853 470.718 76.344C470.974 76.792 471.315 77.1387 471.742 77.384C472.169 77.6293 472.654 77.752 473.198 77.752ZM483.736 79.128C483.032 79.128 482.408 79.016 481.864 78.792C481.331 78.568 480.872 78.2373 480.488 77.8C480.104 77.352 479.811 76.792 479.608 76.12C479.416 75.4373 479.32 74.6373 479.32 73.72C479.32 72.9947 479.384 72.344 479.512 71.768C479.64 71.192 479.821 70.68 480.056 70.232C480.301 69.784 480.6 69.3947 480.952 69.064C481.315 68.7333 481.72 68.4613 482.168 68.248C482.627 68.024 483.128 67.8533 483.672 67.736L487.544 66.872L487.768 68.296L484.2 69.064C483.987 69.1067 483.731 69.1707 483.432 69.256C483.133 69.3413 482.829 69.4747 482.52 69.656C482.211 69.8267 481.923 70.0667 481.656 70.376C481.389 70.6853 481.176 71.0907 481.016 71.592C480.856 72.0827 480.776 72.6907 480.776 73.416C480.776 73.6187 480.781 73.7733 480.792 73.88C480.803 73.9867 480.813 74.0933 480.824 74.2C480.845 74.3067 480.861 74.4667 480.872 74.68L480.232 74.024C480.403 73.4373 480.675 72.9253 481.048 72.488C481.421 72.0507 481.869 71.7147 482.392 71.48C482.925 71.2347 483.507 71.112 484.136 71.112C484.925 71.112 485.624 71.2827 486.232 71.624C486.851 71.9653 487.336 72.4347 487.688 73.032C488.04 73.6293 488.216 74.312 488.216 75.08C488.216 75.8587 488.029 76.5573 487.656 77.176C487.293 77.784 486.776 78.264 486.104 78.616C485.432 78.9573 484.643 79.128 483.736 79.128ZM483.88 77.848C484.424 77.848 484.904 77.7307 485.32 77.496C485.736 77.2507 486.061 76.9253 486.296 76.52C486.531 76.104 486.648 75.64 486.648 75.128C486.648 74.616 486.531 74.1627 486.296 73.768C486.061 73.3733 485.736 73.064 485.32 72.84C484.904 72.6053 484.413 72.488 483.848 72.488C483.315 72.488 482.835 72.6 482.408 72.824C481.981 73.0373 481.651 73.3413 481.416 73.736C481.181 74.12 481.064 74.568 481.064 75.08C481.064 75.592 481.181 76.0613 481.416 76.488C481.661 76.904 481.992 77.2347 482.408 77.48C482.835 77.7253 483.325 77.848 483.88 77.848ZM490.41 79V70.52H491.946V74.12H496.778V70.52H498.314V79H496.778V75.448H491.946V79H490.41ZM501.301 79V70.52H502.837V76.696L508.036 70.52H509.429V79H507.892V72.824L502.709 79H501.301ZM518.554 79L515.274 74.872L516.538 74.104L520.362 79H518.554ZM512.41 79V70.52H513.946V79H512.41ZM513.482 75.416V74.104H516.282V75.416H513.482ZM516.666 74.936L515.242 74.744L518.49 70.52H520.138L516.666 74.936Z" fill="#37376D"/>
<rect x="423" y="97" width="77" height="32" rx="5" fill="#ECFFDE"/>
<path d="M440.752 119.128C439.899 119.128 439.109 118.989 438.384 118.712C437.669 118.424 437.045 118.024 436.512 117.512C435.989 116.989 435.579 116.381 435.28 115.688C434.981 114.995 434.832 114.232 434.832 113.4C434.832 112.568 434.981 111.805 435.28 111.112C435.579 110.419 435.995 109.816 436.528 109.304C437.061 108.781 437.685 108.381 438.4 108.104C439.125 107.816 439.915 107.672 440.768 107.672C441.632 107.672 442.427 107.821 443.152 108.12C443.888 108.408 444.512 108.84 445.024 109.416L443.984 110.424C443.557 109.976 443.077 109.645 442.544 109.432C442.011 109.208 441.44 109.096 440.832 109.096C440.203 109.096 439.616 109.203 439.072 109.416C438.539 109.629 438.075 109.928 437.68 110.312C437.285 110.696 436.976 111.155 436.752 111.688C436.539 112.211 436.432 112.781 436.432 113.4C436.432 114.019 436.539 114.595 436.752 115.128C436.976 115.651 437.285 116.104 437.68 116.488C438.075 116.872 438.539 117.171 439.072 117.384C439.616 117.597 440.203 117.704 440.832 117.704C441.44 117.704 442.011 117.597 442.544 117.384C443.077 117.16 443.557 116.819 443.984 116.36L445.024 117.368C444.512 117.944 443.888 118.381 443.152 118.68C442.427 118.979 441.627 119.128 440.752 119.128ZM448.418 119V111.464L448.802 111.864H445.314V110.52H453.058V111.864H449.586L449.954 111.464V119H448.418ZM459.829 119V117.208L459.749 116.872V113.816C459.749 113.165 459.557 112.664 459.173 112.312C458.799 111.949 458.234 111.768 457.477 111.768C456.975 111.768 456.485 111.853 456.005 112.024C455.525 112.184 455.119 112.403 454.789 112.68L454.149 111.528C454.586 111.176 455.109 110.909 455.717 110.728C456.335 110.536 456.981 110.44 457.653 110.44C458.815 110.44 459.711 110.723 460.341 111.288C460.97 111.853 461.285 112.717 461.285 113.88V119H459.829ZM457.045 119.096C456.415 119.096 455.861 118.989 455.381 118.776C454.911 118.563 454.549 118.269 454.293 117.896C454.037 117.512 453.909 117.08 453.909 116.6C453.909 116.141 454.015 115.725 454.229 115.352C454.453 114.979 454.81 114.68 455.301 114.456C455.802 114.232 456.474 114.12 457.317 114.12H460.005V115.224H457.381C456.613 115.224 456.095 115.352 455.829 115.608C455.562 115.864 455.429 116.173 455.429 116.536C455.429 116.952 455.594 117.288 455.925 117.544C456.255 117.789 456.714 117.912 457.301 117.912C457.877 117.912 458.378 117.784 458.805 117.528C459.242 117.272 459.557 116.899 459.749 116.408L460.053 117.464C459.85 117.965 459.493 118.365 458.981 118.664C458.469 118.952 457.823 119.096 457.045 119.096ZM465.731 119V111.464L466.115 111.864H462.627V110.52H470.371V111.864H466.899L467.266 111.464V119H465.731ZM472.373 122.2C471.968 122.2 471.573 122.131 471.189 121.992C470.805 121.864 470.474 121.672 470.197 121.416L470.853 120.264C471.066 120.467 471.301 120.621 471.557 120.728C471.813 120.835 472.085 120.888 472.373 120.888C472.746 120.888 473.056 120.792 473.301 120.6C473.546 120.408 473.776 120.067 473.989 119.576L474.517 118.408L474.677 118.216L478.005 110.52H479.509L475.397 119.848C475.152 120.445 474.874 120.915 474.565 121.256C474.266 121.597 473.936 121.837 473.573 121.976C473.21 122.125 472.81 122.2 472.373 122.2ZM474.389 119.272L470.517 110.52H472.117L475.413 118.072L474.389 119.272ZM484.543 119.096C483.679 119.096 482.906 118.909 482.223 118.536C481.551 118.163 481.023 117.651 480.639 117C480.255 116.349 480.063 115.603 480.063 114.76C480.063 113.917 480.255 113.171 480.639 112.52C481.023 111.869 481.551 111.363 482.223 111C482.906 110.627 483.679 110.44 484.543 110.44C485.311 110.44 485.994 110.595 486.591 110.904C487.199 111.203 487.669 111.651 487.999 112.248L486.831 113C486.554 112.584 486.213 112.28 485.807 112.088C485.413 111.885 484.986 111.784 484.527 111.784C483.973 111.784 483.477 111.907 483.039 112.152C482.602 112.397 482.255 112.744 481.999 113.192C481.743 113.629 481.615 114.152 481.615 114.76C481.615 115.368 481.743 115.896 481.999 116.344C482.255 116.792 482.602 117.139 483.039 117.384C483.477 117.629 483.973 117.752 484.527 117.752C484.986 117.752 485.413 117.656 485.807 117.464C486.213 117.261 486.554 116.952 486.831 116.536L487.999 117.272C487.669 117.859 487.199 118.312 486.591 118.632C485.994 118.941 485.311 119.096 484.543 119.096Z" fill="#37376D"/>
<rect x="423" y="177" width="132" height="32" rx="5" fill="#E8F7FF"/>
<path d="M435.744 199V187.8H443.088L443.072 189.192H436.928L437.312 188.792L437.328 199H435.744ZM447.625 199.096C446.921 199.096 446.275 198.936 445.689 198.616C445.113 198.285 444.649 197.8 444.297 197.16C443.955 196.52 443.785 195.72 443.785 194.76C443.785 193.8 443.95 193 444.281 192.36C444.622 191.72 445.081 191.24 445.657 190.92C446.243 190.6 446.899 190.44 447.625 190.44C448.457 190.44 449.193 190.621 449.833 190.984C450.473 191.347 450.979 191.853 451.353 192.504C451.726 193.144 451.913 193.896 451.913 194.76C451.913 195.624 451.726 196.381 451.353 197.032C450.979 197.683 450.473 198.189 449.833 198.552C449.193 198.915 448.457 199.096 447.625 199.096ZM443.129 202.104V190.52H444.601V192.808L444.505 194.776L444.665 196.744V202.104H443.129ZM447.497 197.752C448.041 197.752 448.526 197.629 448.953 197.384C449.39 197.139 449.731 196.792 449.977 196.344C450.233 195.885 450.361 195.357 450.361 194.76C450.361 194.152 450.233 193.629 449.977 193.192C449.731 192.744 449.39 192.397 448.953 192.152C448.526 191.907 448.041 191.784 447.497 191.784C446.963 191.784 446.478 191.907 446.041 192.152C445.614 192.397 445.273 192.744 445.017 193.192C444.771 193.629 444.649 194.152 444.649 194.76C444.649 195.357 444.771 195.885 445.017 196.344C445.273 196.792 445.614 197.139 446.041 197.384C446.478 197.629 446.963 197.752 447.497 197.752ZM454.342 202.2C453.937 202.2 453.542 202.131 453.158 201.992C452.774 201.864 452.443 201.672 452.166 201.416L452.822 200.264C453.035 200.467 453.27 200.621 453.526 200.728C453.782 200.835 454.054 200.888 454.342 200.888C454.715 200.888 455.025 200.792 455.27 200.6C455.515 200.408 455.745 200.067 455.958 199.576L456.486 198.408L456.646 198.216L459.974 190.52H461.478L457.366 199.848C457.121 200.445 456.843 200.915 456.534 201.256C456.235 201.597 455.905 201.837 455.542 201.976C455.179 202.125 454.779 202.2 454.342 202.2ZM456.358 199.272L452.486 190.52H454.086L457.382 198.072L456.358 199.272ZM463.051 199V190.52H470.907V199H469.371V191.48L469.739 191.864H464.219L464.587 191.48V199H463.051ZM479.079 199V197.208L478.999 196.872V193.816C478.999 193.165 478.807 192.664 478.423 192.312C478.049 191.949 477.484 191.768 476.727 191.768C476.225 191.768 475.735 191.853 475.255 192.024C474.775 192.184 474.369 192.403 474.039 192.68L473.399 191.528C473.836 191.176 474.359 190.909 474.967 190.728C475.585 190.536 476.231 190.44 476.903 190.44C478.065 190.44 478.961 190.723 479.591 191.288C480.22 191.853 480.535 192.717 480.535 193.88V199H479.079ZM476.295 199.096C475.665 199.096 475.111 198.989 474.631 198.776C474.161 198.563 473.799 198.269 473.543 197.896C473.287 197.512 473.159 197.08 473.159 196.6C473.159 196.141 473.265 195.725 473.479 195.352C473.703 194.979 474.06 194.68 474.551 194.456C475.052 194.232 475.724 194.12 476.567 194.12H479.255V195.224H476.631C475.863 195.224 475.345 195.352 475.079 195.608C474.812 195.864 474.679 196.173 474.679 196.536C474.679 196.952 474.844 197.288 475.175 197.544C475.505 197.789 475.964 197.912 476.551 197.912C477.127 197.912 477.628 197.784 478.055 197.528C478.492 197.272 478.807 196.899 478.999 196.408L479.303 197.464C479.1 197.965 478.743 198.365 478.231 198.664C477.719 198.952 477.073 199.096 476.295 199.096ZM487.597 199V190.52H491.533C492.525 190.52 493.304 190.712 493.869 191.096C494.445 191.469 494.733 192.003 494.733 192.696C494.733 193.389 494.461 193.928 493.917 194.312C493.384 194.685 492.675 194.872 491.789 194.872L492.029 194.456C493.043 194.456 493.795 194.643 494.285 195.016C494.776 195.389 495.021 195.939 495.021 196.664C495.021 197.4 494.744 197.976 494.189 198.392C493.645 198.797 492.808 199 491.677 199H487.597ZM489.101 197.816H491.565C492.205 197.816 492.685 197.72 493.005 197.528C493.325 197.325 493.485 197.005 493.485 196.568C493.485 196.12 493.336 195.795 493.037 195.592C492.749 195.379 492.291 195.272 491.661 195.272H489.101V197.816ZM489.101 194.168H491.405C491.992 194.168 492.435 194.061 492.733 193.848C493.043 193.624 493.197 193.315 493.197 192.92C493.197 192.515 493.043 192.211 492.733 192.008C492.435 191.805 491.992 191.704 491.405 191.704H489.101V194.168ZM497.426 199V190.52H498.962V196.696L504.161 190.52H505.554V199H504.017V192.824L498.834 199H497.426ZM510.215 199V191.464L510.599 191.864H507.111V190.52H514.855V191.864H511.383L511.751 191.464V199H510.215ZM520.922 199.096C520.218 199.096 519.572 198.936 518.986 198.616C518.41 198.285 517.946 197.8 517.594 197.16C517.252 196.52 517.082 195.72 517.082 194.76C517.082 193.8 517.247 193 517.578 192.36C517.919 191.72 518.378 191.24 518.954 190.92C519.54 190.6 520.196 190.44 520.922 190.44C521.754 190.44 522.49 190.621 523.13 190.984C523.77 191.347 524.276 191.853 524.65 192.504C525.023 193.144 525.21 193.896 525.21 194.76C525.21 195.624 525.023 196.381 524.65 197.032C524.276 197.683 523.77 198.189 523.13 198.552C522.49 198.915 521.754 199.096 520.922 199.096ZM516.426 202.104V190.52H517.898V192.808L517.802 194.776L517.962 196.744V202.104H516.426ZM520.794 197.752C521.338 197.752 521.823 197.629 522.25 197.384C522.687 197.139 523.028 196.792 523.274 196.344C523.53 195.885 523.658 195.357 523.658 194.76C523.658 194.152 523.53 193.629 523.274 193.192C523.028 192.744 522.687 192.397 522.25 192.152C521.823 191.907 521.338 191.784 520.794 191.784C520.26 191.784 519.775 191.907 519.338 192.152C518.911 192.397 518.57 192.744 518.314 193.192C518.068 193.629 517.946 194.152 517.946 194.76C517.946 195.357 518.068 195.885 518.314 196.344C518.57 196.792 518.911 197.139 519.338 197.384C519.775 197.629 520.26 197.752 520.794 197.752ZM532.563 199V197.208L532.483 196.872V193.816C532.483 193.165 532.291 192.664 531.907 192.312C531.534 191.949 530.968 191.768 530.211 191.768C529.71 191.768 529.219 191.853 528.739 192.024C528.259 192.184 527.854 192.403 527.523 192.68L526.883 191.528C527.32 191.176 527.843 190.909 528.451 190.728C529.07 190.536 529.715 190.44 530.387 190.44C531.55 190.44 532.446 190.723 533.075 191.288C533.704 191.853 534.019 192.717 534.019 193.88V199H532.563ZM529.779 199.096C529.15 199.096 528.595 198.989 528.115 198.776C527.646 198.563 527.283 198.269 527.027 197.896C526.771 197.512 526.643 197.08 526.643 196.6C526.643 196.141 526.75 195.725 526.963 195.352C527.187 194.979 527.544 194.68 528.035 194.456C528.536 194.232 529.208 194.12 530.051 194.12H532.739V195.224H530.115C529.347 195.224 528.83 195.352 528.563 195.608C528.296 195.864 528.163 196.173 528.163 196.536C528.163 196.952 528.328 197.288 528.659 197.544C528.99 197.789 529.448 197.912 530.035 197.912C530.611 197.912 531.112 197.784 531.539 197.528C531.976 197.272 532.291 196.899 532.483 196.408L532.787 197.464C532.584 197.965 532.227 198.365 531.715 198.664C531.203 198.952 530.558 199.096 529.779 199.096ZM538.465 199V191.464L538.849 191.864H535.361V190.52H543.105V191.864H539.633L540.001 191.464V199H538.465Z" fill="#37376D"/>
<rect x="423" y="217" width="119" height="32" rx="5" fill="#E8F7FF"/>
<path d="M443.28 239L439.216 233.48L440.512 232.68L445.104 239H443.28ZM435.744 239V227.8H437.312V239H435.744ZM436.832 234.072V232.664H440.464V234.072H436.832ZM440.656 233.576L439.184 233.352L443.2 227.8H444.912L440.656 233.576ZM450.011 239.096C449.157 239.096 448.4 238.909 447.739 238.536C447.077 238.163 446.555 237.651 446.171 237C445.787 236.339 445.595 235.592 445.595 234.76C445.595 233.917 445.787 233.171 446.171 232.52C446.555 231.869 447.077 231.363 447.739 231C448.4 230.627 449.157 230.44 450.011 230.44C450.853 230.44 451.605 230.627 452.267 231C452.939 231.363 453.461 231.869 453.835 232.52C454.219 233.16 454.411 233.907 454.411 234.76C454.411 235.603 454.219 236.349 453.835 237C453.461 237.651 452.939 238.163 452.267 238.536C451.605 238.909 450.853 239.096 450.011 239.096ZM450.011 237.752C450.555 237.752 451.04 237.629 451.467 237.384C451.904 237.139 452.245 236.792 452.491 236.344C452.736 235.885 452.859 235.357 452.859 234.76C452.859 234.152 452.736 233.629 452.491 233.192C452.245 232.744 451.904 232.397 451.467 232.152C451.04 231.907 450.555 231.784 450.011 231.784C449.467 231.784 448.981 231.907 448.555 232.152C448.128 232.397 447.787 232.744 447.531 233.192C447.275 233.629 447.147 234.152 447.147 234.76C447.147 235.357 447.275 235.885 447.531 236.344C447.787 236.792 448.128 237.139 448.555 237.384C448.981 237.629 449.467 237.752 450.011 237.752ZM456.629 239V230.52H458.165V234.12H462.997V230.52H464.533V239H462.997V235.448H458.165V239H456.629ZM469.199 239V231.464L469.583 231.864H466.095V230.52H473.839V231.864H470.367L470.735 231.464V239H469.199ZM479.906 239.096C479.202 239.096 478.557 238.936 477.97 238.616C477.394 238.285 476.93 237.8 476.578 237.16C476.237 236.52 476.066 235.72 476.066 234.76C476.066 233.8 476.231 233 476.562 232.36C476.903 231.72 477.362 231.24 477.938 230.92C478.525 230.6 479.181 230.44 479.906 230.44C480.738 230.44 481.474 230.621 482.114 230.984C482.754 231.347 483.261 231.853 483.634 232.504C484.007 233.144 484.194 233.896 484.194 234.76C484.194 235.624 484.007 236.381 483.634 237.032C483.261 237.683 482.754 238.189 482.114 238.552C481.474 238.915 480.738 239.096 479.906 239.096ZM475.41 242.104V230.52H476.882V232.808L476.786 234.776L476.946 236.744V242.104H475.41ZM479.778 237.752C480.322 237.752 480.807 237.629 481.234 237.384C481.671 237.139 482.013 236.792 482.258 236.344C482.514 235.885 482.642 235.357 482.642 234.76C482.642 234.152 482.514 233.629 482.258 233.192C482.013 232.744 481.671 232.397 481.234 232.152C480.807 231.907 480.322 231.784 479.778 231.784C479.245 231.784 478.759 231.907 478.322 232.152C477.895 232.397 477.554 232.744 477.298 233.192C477.053 233.629 476.93 234.152 476.93 234.76C476.93 235.357 477.053 235.885 477.298 236.344C477.554 236.792 477.895 237.139 478.322 237.384C478.759 237.629 479.245 237.752 479.778 237.752ZM491.547 239V237.208L491.467 236.872V233.816C491.467 233.165 491.275 232.664 490.891 232.312C490.518 231.949 489.953 231.768 489.195 231.768C488.694 231.768 488.203 231.853 487.723 232.024C487.243 232.184 486.838 232.403 486.507 232.68L485.867 231.528C486.305 231.176 486.827 230.909 487.435 230.728C488.054 230.536 488.699 230.44 489.371 230.44C490.534 230.44 491.43 230.723 492.059 231.288C492.689 231.853 493.003 232.717 493.003 233.88V239H491.547ZM488.763 239.096C488.134 239.096 487.579 238.989 487.099 238.776C486.63 238.563 486.267 238.269 486.011 237.896C485.755 237.512 485.627 237.08 485.627 236.6C485.627 236.141 485.734 235.725 485.947 235.352C486.171 234.979 486.529 234.68 487.019 234.456C487.521 234.232 488.193 234.12 489.035 234.12H491.723V235.224H489.099C488.331 235.224 487.814 235.352 487.547 235.608C487.281 235.864 487.147 236.173 487.147 236.536C487.147 236.952 487.313 237.288 487.643 237.544C487.974 237.789 488.433 237.912 489.019 237.912C489.595 237.912 490.097 237.784 490.523 237.528C490.961 237.272 491.275 236.899 491.467 236.408L491.771 237.464C491.569 237.965 491.211 238.365 490.699 238.664C490.187 238.952 489.542 239.096 488.763 239.096ZM495.769 239V230.52H502.009V231.864H496.937L497.305 231.512V239H495.769ZM506.983 239.096C506.076 239.096 505.276 238.909 504.583 238.536C503.9 238.163 503.367 237.651 502.983 237C502.609 236.349 502.423 235.603 502.423 234.76C502.423 233.917 502.604 233.171 502.967 232.52C503.34 231.869 503.847 231.363 504.487 231C505.137 230.627 505.868 230.44 506.679 230.44C507.5 230.44 508.225 230.621 508.855 230.984C509.484 231.347 509.975 231.859 510.327 232.52C510.689 233.171 510.871 233.933 510.871 234.808C510.871 234.872 510.865 234.947 510.855 235.032C510.855 235.117 510.849 235.197 510.839 235.272H503.623V234.168H510.039L509.415 234.552C509.425 234.008 509.313 233.523 509.079 233.096C508.844 232.669 508.519 232.339 508.103 232.104C507.697 231.859 507.223 231.736 506.679 231.736C506.145 231.736 505.671 231.859 505.255 232.104C504.839 232.339 504.513 232.675 504.279 233.112C504.044 233.539 503.927 234.029 503.927 234.584V234.84C503.927 235.405 504.055 235.912 504.311 236.36C504.577 236.797 504.945 237.139 505.415 237.384C505.884 237.629 506.423 237.752 507.031 237.752C507.532 237.752 507.985 237.667 508.391 237.496C508.807 237.325 509.169 237.069 509.479 236.728L510.327 237.72C509.943 238.168 509.463 238.509 508.887 238.744C508.321 238.979 507.687 239.096 506.983 239.096ZM513.254 239V230.52H514.79V234.12H519.622V230.52H521.158V239H519.622V235.448H514.79V239H513.254ZM525.824 239V231.464L526.208 231.864H522.72V230.52H530.464V231.864H526.992L527.36 231.464V239H525.824Z" fill="#37376D"/>
<rect x="423" y="137" width="55" height="32" rx="5" fill="#FFECD7"/>
<path d="M434.192 159L439.264 147.8H440.848L445.936 159H444.256L439.728 148.696H440.368L435.84 159H434.192ZM436.352 156.2L436.784 154.92H443.088L443.552 156.2H436.352ZM451.377 159.128C450.673 159.128 450.049 159.016 449.505 158.792C448.971 158.568 448.513 158.237 448.129 157.8C447.745 157.352 447.451 156.792 447.249 156.12C447.057 155.437 446.961 154.637 446.961 153.72C446.961 152.995 447.025 152.344 447.153 151.768C447.281 151.192 447.462 150.68 447.697 150.232C447.942 149.784 448.241 149.395 448.593 149.064C448.955 148.733 449.361 148.461 449.809 148.248C450.267 148.024 450.769 147.853 451.313 147.736L455.185 146.872L455.409 148.296L451.841 149.064C451.627 149.107 451.371 149.171 451.073 149.256C450.774 149.341 450.47 149.475 450.161 149.656C449.851 149.827 449.563 150.067 449.297 150.376C449.03 150.685 448.817 151.091 448.657 151.592C448.497 152.083 448.417 152.691 448.417 153.416C448.417 153.619 448.422 153.773 448.433 153.88C448.443 153.987 448.454 154.093 448.465 154.2C448.486 154.307 448.502 154.467 448.513 154.68L447.873 154.024C448.043 153.437 448.315 152.925 448.689 152.488C449.062 152.051 449.51 151.715 450.033 151.48C450.566 151.235 451.147 151.112 451.777 151.112C452.566 151.112 453.265 151.283 453.873 151.624C454.491 151.965 454.977 152.435 455.329 153.032C455.681 153.629 455.857 154.312 455.857 155.08C455.857 155.859 455.67 156.557 455.297 157.176C454.934 157.784 454.417 158.264 453.745 158.616C453.073 158.957 452.283 159.128 451.377 159.128ZM451.521 157.848C452.065 157.848 452.545 157.731 452.961 157.496C453.377 157.251 453.702 156.925 453.937 156.52C454.171 156.104 454.289 155.64 454.289 155.128C454.289 154.616 454.171 154.163 453.937 153.768C453.702 153.373 453.377 153.064 452.961 152.84C452.545 152.605 452.054 152.488 451.489 152.488C450.955 152.488 450.475 152.6 450.049 152.824C449.622 153.037 449.291 153.341 449.057 153.736C448.822 154.12 448.705 154.568 448.705 155.08C448.705 155.592 448.822 156.061 449.057 156.488C449.302 156.904 449.633 157.235 450.049 157.48C450.475 157.725 450.966 157.848 451.521 157.848ZM461.683 159.096C460.829 159.096 460.072 158.909 459.411 158.536C458.749 158.163 458.227 157.651 457.843 157C457.459 156.339 457.267 155.592 457.267 154.76C457.267 153.917 457.459 153.171 457.843 152.52C458.227 151.869 458.749 151.363 459.411 151C460.072 150.627 460.829 150.44 461.683 150.44C462.525 150.44 463.277 150.627 463.939 151C464.611 151.363 465.133 151.869 465.507 152.52C465.891 153.16 466.083 153.907 466.083 154.76C466.083 155.603 465.891 156.349 465.507 157C465.133 157.651 464.611 158.163 463.939 158.536C463.277 158.909 462.525 159.096 461.683 159.096ZM461.683 157.752C462.227 157.752 462.712 157.629 463.139 157.384C463.576 157.139 463.917 156.792 464.163 156.344C464.408 155.885 464.531 155.357 464.531 154.76C464.531 154.152 464.408 153.629 464.163 153.192C463.917 152.744 463.576 152.397 463.139 152.152C462.712 151.907 462.227 151.784 461.683 151.784C461.139 151.784 460.653 151.907 460.227 152.152C459.8 152.397 459.459 152.744 459.203 153.192C458.947 153.629 458.819 154.152 458.819 154.76C458.819 155.357 458.947 155.885 459.203 156.344C459.459 156.792 459.8 157.139 460.227 157.384C460.653 157.629 461.139 157.752 461.683 157.752Z" fill="#37376D"/>
<rect x="504" y="97" width="105" height="32" rx="5" fill="#ECFFDE"/>
<path d="M524.184 118.248V109.192H519.272L519.192 111.544C519.16 112.333 519.107 113.091 519.032 113.816C518.968 114.541 518.872 115.197 518.744 115.784C518.616 116.36 518.435 116.835 518.2 117.208C517.976 117.581 517.688 117.811 517.336 117.896L515.608 117.608C516.024 117.64 516.365 117.501 516.632 117.192C516.909 116.872 517.123 116.429 517.272 115.864C517.432 115.288 517.549 114.621 517.624 113.864C517.699 113.096 517.752 112.275 517.784 111.4L517.896 107.8H525.768V118.248H524.184ZM515.208 121.448L515.224 117.608H527.416V121.448H525.928V119H516.712L516.696 121.448H515.208ZM532.792 119.096C531.939 119.096 531.181 118.909 530.52 118.536C529.859 118.163 529.336 117.651 528.952 117C528.568 116.339 528.376 115.592 528.376 114.76C528.376 113.917 528.568 113.171 528.952 112.52C529.336 111.869 529.859 111.363 530.52 111C531.181 110.627 531.939 110.44 532.792 110.44C533.635 110.44 534.387 110.627 535.048 111C535.72 111.363 536.243 111.869 536.616 112.52C537 113.16 537.192 113.907 537.192 114.76C537.192 115.603 537 116.349 536.616 117C536.243 117.651 535.72 118.163 535.048 118.536C534.387 118.909 533.635 119.096 532.792 119.096ZM532.792 117.752C533.336 117.752 533.821 117.629 534.248 117.384C534.685 117.139 535.027 116.792 535.272 116.344C535.517 115.885 535.64 115.357 535.64 114.76C535.64 114.152 535.517 113.629 535.272 113.192C535.027 112.744 534.685 112.397 534.248 112.152C533.821 111.907 533.336 111.784 532.792 111.784C532.248 111.784 531.763 111.907 531.336 112.152C530.909 112.397 530.568 112.744 530.312 113.192C530.056 113.629 529.928 114.152 529.928 114.76C529.928 115.357 530.056 115.885 530.312 116.344C530.568 116.792 530.909 117.139 531.336 117.384C531.763 117.629 532.248 117.752 532.792 117.752ZM543.906 119.096C543.202 119.096 542.557 118.936 541.97 118.616C541.394 118.285 540.93 117.8 540.578 117.16C540.237 116.52 540.066 115.72 540.066 114.76C540.066 113.8 540.231 113 540.562 112.36C540.903 111.72 541.362 111.24 541.938 110.92C542.525 110.6 543.181 110.44 543.906 110.44C544.738 110.44 545.474 110.621 546.114 110.984C546.754 111.347 547.261 111.853 547.634 112.504C548.007 113.144 548.194 113.896 548.194 114.76C548.194 115.624 548.007 116.381 547.634 117.032C547.261 117.683 546.754 118.189 546.114 118.552C545.474 118.915 544.738 119.096 543.906 119.096ZM539.41 122.104V110.52H540.882V112.808L540.786 114.776L540.946 116.744V122.104H539.41ZM543.778 117.752C544.322 117.752 544.807 117.629 545.234 117.384C545.671 117.139 546.013 116.792 546.258 116.344C546.514 115.885 546.642 115.357 546.642 114.76C546.642 114.152 546.514 113.629 546.258 113.192C546.013 112.744 545.671 112.397 545.234 112.152C544.807 111.907 544.322 111.784 543.778 111.784C543.245 111.784 542.759 111.907 542.322 112.152C541.895 112.397 541.554 112.744 541.298 113.192C541.053 113.629 540.93 114.152 540.93 114.76C540.93 115.357 541.053 115.885 541.298 116.344C541.554 116.792 541.895 117.139 542.322 117.384C542.759 117.629 543.245 117.752 543.778 117.752ZM550.426 119V110.52H551.962V119H550.426ZM551.194 108.888C550.895 108.888 550.644 108.792 550.442 108.6C550.25 108.408 550.154 108.173 550.154 107.896C550.154 107.608 550.25 107.368 550.442 107.176C550.644 106.984 550.895 106.888 551.194 106.888C551.492 106.888 551.738 106.984 551.93 107.176C552.132 107.357 552.234 107.587 552.234 107.864C552.234 108.152 552.138 108.397 551.946 108.6C551.754 108.792 551.503 108.888 551.194 108.888ZM554.957 119V110.52H558.893C559.885 110.52 560.663 110.712 561.229 111.096C561.805 111.469 562.093 112.003 562.093 112.696C562.093 113.389 561.821 113.928 561.277 114.312C560.743 114.685 560.034 114.872 559.149 114.872L559.389 114.456C560.402 114.456 561.154 114.643 561.645 115.016C562.135 115.389 562.381 115.939 562.381 116.664C562.381 117.4 562.103 117.976 561.549 118.392C561.005 118.797 560.167 119 559.037 119H554.957ZM556.461 117.816H558.925C559.565 117.816 560.045 117.72 560.365 117.528C560.685 117.325 560.845 117.005 560.845 116.568C560.845 116.12 560.695 115.795 560.397 115.592C560.109 115.379 559.65 115.272 559.021 115.272H556.461V117.816ZM556.461 114.168H558.765C559.351 114.168 559.794 114.061 560.093 113.848C560.402 113.624 560.557 113.315 560.557 112.92C560.557 112.515 560.402 112.211 560.093 112.008C559.794 111.805 559.351 111.704 558.765 111.704H556.461V114.168ZM564.785 119V110.52H566.321V114.12H571.153V110.52H572.689V119H571.153V115.448H566.321V119H564.785ZM575.676 119V110.52H577.212V113.992H579.772V115.416H577.212V119H575.676ZM583.18 119.096C582.348 119.096 581.606 118.909 580.956 118.536C580.316 118.163 579.809 117.651 579.436 117C579.062 116.339 578.876 115.592 578.876 114.76C578.876 113.917 579.062 113.171 579.436 112.52C579.809 111.859 580.316 111.347 580.956 110.984C581.606 110.621 582.348 110.44 583.18 110.44C584.001 110.44 584.737 110.621 585.388 110.984C586.038 111.347 586.55 111.859 586.924 112.52C587.297 113.171 587.484 113.917 587.484 114.76C587.484 115.603 587.297 116.349 586.924 117C586.55 117.651 586.038 118.163 585.388 118.536C584.737 118.909 584.001 119.096 583.18 119.096ZM583.18 117.752C583.713 117.752 584.188 117.629 584.604 117.384C585.02 117.128 585.35 116.781 585.596 116.344C585.841 115.896 585.964 115.368 585.964 114.76C585.964 114.152 585.841 113.629 585.596 113.192C585.35 112.744 585.02 112.397 584.604 112.152C584.188 111.907 583.713 111.784 583.18 111.784C582.657 111.784 582.182 111.907 581.756 112.152C581.34 112.397 581.009 112.744 580.764 113.192C580.518 113.629 580.396 114.152 580.396 114.76C580.396 115.368 580.518 115.896 580.764 116.344C581.009 116.781 581.34 117.128 581.756 117.384C582.182 117.629 582.657 117.752 583.18 117.752ZM594.619 114.248V115.4H589.851V114.248H594.619ZM593.483 119.096C592.598 119.096 591.808 118.915 591.115 118.552C590.432 118.179 589.894 117.661 589.499 117C589.104 116.339 588.907 115.592 588.907 114.76C588.907 113.917 589.104 113.171 589.499 112.52C589.894 111.869 590.432 111.357 591.115 110.984C591.808 110.6 592.598 110.408 593.483 110.408C594.219 110.408 594.891 110.525 595.499 110.76C596.107 110.995 596.619 111.341 597.035 111.8L596.139 112.68C595.787 112.339 595.392 112.088 594.955 111.928C594.518 111.757 594.043 111.672 593.531 111.672C592.923 111.672 592.374 111.805 591.883 112.072C591.403 112.339 591.024 112.707 590.747 113.176C590.47 113.635 590.331 114.163 590.331 114.76C590.331 115.357 590.47 115.891 590.747 116.36C591.024 116.829 591.403 117.197 591.883 117.464C592.374 117.72 592.923 117.848 593.531 117.848C594.043 117.848 594.518 117.768 594.955 117.608C595.392 117.437 595.787 117.176 596.139 116.824L597.035 117.72C596.619 118.168 596.107 118.509 595.499 118.744C594.891 118.979 594.219 119.096 593.483 119.096Z" fill="#37376D"/>
<path fill-rule="evenodd" clip-rule="evenodd" d="M407.272 73.5646L402.707 69L402 69.7071L406.565 74.2717L402 78.8363L402.707 79.5434L407.272 74.9788L411.836 79.5431L412.543 78.836L407.979 74.2717L412.543 69.7074L411.836 69.0003L407.272 73.5646Z" fill="#F28100"/>
<path fill-rule="evenodd" clip-rule="evenodd" d="M407.272 230.565L402.707 226L402 226.707L406.565 231.272L402 235.836L402.707 236.543L407.272 231.979L411.836 236.543L412.543 235.836L407.979 231.272L412.543 226.707L411.836 226L407.272 230.565Z" fill="#F28100"/>
<path fill-rule="evenodd" clip-rule="evenodd" d="M407.272 112.565L402.707 108L402 108.707L406.565 113.272L402 117.836L402.707 118.543L407.272 113.979L411.836 118.543L412.543 117.836L407.979 113.272L412.543 108.707L411.836 108L407.272 112.565Z" fill="#F28100"/>
<path fill-rule="evenodd" clip-rule="evenodd" d="M407.272 269.565L402.707 265L402 265.707L406.565 270.272L402 274.836L402.707 275.543L407.272 270.979L411.836 275.543L412.543 274.836L407.979 270.272L412.543 265.707L411.836 265L407.272 269.565Z" fill="#F28100"/>
<path fill-rule="evenodd" clip-rule="evenodd" d="M407.272 191.565L402.707 187L402 187.707L406.565 192.272L402 196.836L402.707 197.543L407.272 192.979L411.836 197.543L412.543 196.836L407.979 192.272L412.543 187.707L411.836 187L407.272 191.565Z" fill="#F28100"/>
<path fill-rule="evenodd" clip-rule="evenodd" d="M407.272 151.565L402.707 147L402 147.707L406.565 152.272L402 156.836L402.707 157.543L407.272 152.979L411.836 157.543L412.543 156.836L407.979 152.272L412.543 147.707L411.836 147L407.272 151.565Z" fill="#F28100"/>
</svg>
