<svg width="1068" height="613" viewBox="0 0 1068 613" fill="none" xmlns="http://www.w3.org/2000/svg">
<g filter="url(#filter0_i_1729_153)">
<path d="M50 61C50 52.7157 56.7157 46 65 46H1003C1011.28 46 1018 52.7157 1018 61V544C1018 552.284 1011.28 559 1003 559H65C56.7158 559 50 552.284 50 544V61Z" fill="white"/>
</g>
<path opacity="0.6" d="M867 244C867 273.271 843.271 297 814 297C784.729 297 761 273.271 761 244C761 214.729 784.729 191 814 191C843.271 191 867 214.729 867 244Z" fill="#FFE264"/>
<path d="M867 244C867 256.514 862.572 268.625 854.5 278.188C846.427 287.75 835.232 294.148 822.895 296.248C810.558 298.349 797.876 296.016 787.095 289.663C776.313 283.31 768.127 273.347 763.986 261.538C759.845 249.729 760.016 236.835 764.469 225.14C768.922 213.445 777.37 203.703 788.317 197.639C799.264 191.575 812.003 189.579 824.28 192.007C836.556 194.434 847.578 201.127 855.393 210.9L814 244H867Z" fill="#F28100"/>
<path d="M867 244C867 255.453 863.29 266.598 856.425 275.766C849.561 284.934 839.911 291.632 828.921 294.856C817.931 298.081 806.192 297.658 795.463 293.652C784.733 289.647 775.589 282.273 769.401 272.635C763.214 262.997 760.314 251.615 761.137 240.191C761.96 228.768 766.462 217.918 773.967 209.267C781.473 200.616 791.579 194.629 802.772 192.203C813.966 189.777 825.644 191.042 836.058 195.808L814 244H867Z" fill="#0FA7F0"/>
<path fill-rule="evenodd" clip-rule="evenodd" d="M983 132H645C642.791 132 641 133.791 641 136V317C641 319.209 642.791 321 645 321H983C985.209 321 987 319.209 987 317V136C987 133.791 985.209 132 983 132ZM645 131C642.239 131 640 133.239 640 136V317C640 319.761 642.239 322 645 322H983C985.761 322 988 319.761 988 317V136C988 133.239 985.761 131 983 131H645Z" fill="#E6E6E6"/>
<path d="M640 136C640 133.239 642.239 131 645 131H983C985.761 131 988 133.239 988 136V166H640V136Z" fill="#0FA7F0"/>
<path fill-rule="evenodd" clip-rule="evenodd" d="M324 132H140C137.791 132 136 133.791 136 136V523C136 525.209 137.791 527 140 527H324C326.209 527 328 525.209 328 523V136C328 133.791 326.209 132 324 132ZM140 131C137.239 131 135 133.239 135 136V523C135 525.761 137.239 528 140 528H324C326.761 528 329 525.761 329 523V136C329 133.239 326.761 131 324 131H140Z" fill="#E6E6E6"/>
<path d="M135 136C135 133.239 137.239 131 140 131H324C326.761 131 329 133.239 329 136V166H135V136Z" fill="#0FA7F0"/>
<path fill-rule="evenodd" clip-rule="evenodd" d="M308 200H156V199H308V200Z" fill="#E6E6E6"/>
<path fill-rule="evenodd" clip-rule="evenodd" d="M308 220H156V219H308V220Z" fill="#E6E6E6"/>
<path d="M156 208C156 206.895 156.895 206 158 206H306C307.105 206 308 206.895 308 208V211C308 212.105 307.105 213 306 213H158C156.895 213 156 212.105 156 211V208Z" fill="#E6E6E6"/>
<path fill-rule="evenodd" clip-rule="evenodd" d="M308 240H156V239H308V240Z" fill="#E6E6E6"/>
<path d="M156 228C156 226.895 156.895 226 158 226H306C307.105 226 308 226.895 308 228V231C308 232.105 307.105 233 306 233H158C156.895 233 156 232.105 156 231V228Z" fill="#E6E6E6"/>
<path fill-rule="evenodd" clip-rule="evenodd" d="M308 260H156V259H308V260Z" fill="#E6E6E6"/>
<path d="M156 248C156 246.895 156.895 246 158 246H306C307.105 246 308 246.895 308 248V251C308 252.105 307.105 253 306 253H158C156.895 253 156 252.105 156 251V248Z" fill="#E6E6E6"/>
<path fill-rule="evenodd" clip-rule="evenodd" d="M308 280H156V279H308V280Z" fill="#E6E6E6"/>
<path d="M156 268C156 266.895 156.895 266 158 266H306C307.105 266 308 266.895 308 268V271C308 272.105 307.105 273 306 273H158C156.895 273 156 272.105 156 271V268Z" fill="#E6E6E6"/>
<path fill-rule="evenodd" clip-rule="evenodd" d="M308 300H156V299H308V300Z" fill="#E6E6E6"/>
<path d="M156 288C156 286.895 156.895 286 158 286H306C307.105 286 308 286.895 308 288V291C308 292.105 307.105 293 306 293H158C156.895 293 156 292.105 156 291V288Z" fill="#E6E6E6"/>
<path fill-rule="evenodd" clip-rule="evenodd" d="M308 320H156V319H308V320Z" fill="#E6E6E6"/>
<path d="M156 308C156 306.895 156.895 306 158 306H306C307.105 306 308 306.895 308 308V311C308 312.105 307.105 313 306 313H158C156.895 313 156 312.105 156 311V308Z" fill="#E6E6E6"/>
<path fill-rule="evenodd" clip-rule="evenodd" d="M308 340H156V339H308V340Z" fill="#E6E6E6"/>
<path d="M156 328C156 326.895 156.895 326 158 326H306C307.105 326 308 326.895 308 328V331C308 332.105 307.105 333 306 333H158C156.895 333 156 332.105 156 331V328Z" fill="#E6E6E6"/>
<path fill-rule="evenodd" clip-rule="evenodd" d="M308 360H156V359H308V360Z" fill="#E6E6E6"/>
<path d="M156 348C156 346.895 156.895 346 158 346H306C307.105 346 308 346.895 308 348V351C308 352.105 307.105 353 306 353H158C156.895 353 156 352.105 156 351V348Z" fill="#E6E6E6"/>
<path fill-rule="evenodd" clip-rule="evenodd" d="M308 380H156V379H308V380Z" fill="#E6E6E6"/>
<path d="M156 368C156 366.895 156.895 366 158 366H306C307.105 366 308 366.895 308 368V371C308 372.105 307.105 373 306 373H158C156.895 373 156 372.105 156 371V368Z" fill="#E6E6E6"/>
<path fill-rule="evenodd" clip-rule="evenodd" d="M308 400H156V399H308V400Z" fill="#E6E6E6"/>
<path d="M156 388C156 386.895 156.895 386 158 386H306C307.105 386 308 386.895 308 388V391C308 392.105 307.105 393 306 393H158C156.895 393 156 392.105 156 391V388Z" fill="#E6E6E6"/>
<path fill-rule="evenodd" clip-rule="evenodd" d="M308 420H156V419H308V420Z" fill="#E6E6E6"/>
<path d="M156 408C156 406.895 156.895 406 158 406H306C307.105 406 308 406.895 308 408V411C308 412.105 307.105 413 306 413H158C156.895 413 156 412.105 156 411V408Z" fill="#E6E6E6"/>
<path fill-rule="evenodd" clip-rule="evenodd" d="M308 440H156V439H308V440Z" fill="#E6E6E6"/>
<path d="M156 428C156 426.895 156.895 426 158 426H306C307.105 426 308 426.895 308 428V431C308 432.105 307.105 433 306 433H158C156.895 433 156 432.105 156 431V428Z" fill="#E6E6E6"/>
<path fill-rule="evenodd" clip-rule="evenodd" d="M308 460H156V459H308V460Z" fill="#E6E6E6"/>
<path d="M156 448C156 446.895 156.895 446 158 446H306C307.105 446 308 446.895 308 448V451C308 452.105 307.105 453 306 453H158C156.895 453 156 452.105 156 451V448Z" fill="#E6E6E6"/>
<path fill-rule="evenodd" clip-rule="evenodd" d="M308 480H156V479H308V480Z" fill="#E6E6E6"/>
<path d="M156 468C156 466.895 156.895 466 158 466H306C307.105 466 308 466.895 308 468V471C308 472.105 307.105 473 306 473H158C156.895 473 156 472.105 156 471V468Z" fill="#E6E6E6"/>
<path fill-rule="evenodd" clip-rule="evenodd" d="M308 500H156V499H308V500Z" fill="#E6E6E6"/>
<path d="M156 488C156 486.895 156.895 486 158 486H306C307.105 486 308 486.895 308 488V491C308 492.105 307.105 493 306 493H158C156.895 493 156 492.105 156 491V488Z" fill="#E6E6E6"/>
<path d="M156 188C156 186.895 156.895 186 158 186H258C259.105 186 260 186.895 260 188V191C260 192.105 259.105 193 258 193H158C156.895 193 156 192.105 156 191V188Z" fill="#B3B3B3"/>
<path fill-rule="evenodd" clip-rule="evenodd" d="M604 132H364C361.791 132 360 133.791 360 136V317C360 319.209 361.791 321 364 321H604C606.209 321 608 319.209 608 317V136C608 133.791 606.209 132 604 132ZM364 131C361.239 131 359 133.239 359 136V317C359 319.761 361.239 322 364 322H604C606.761 322 609 319.761 609 317V136C609 133.239 606.761 131 604 131H364Z" fill="#E6E6E6"/>
<path d="M359 136C359 133.239 361.239 131 364 131H604C606.761 131 609 133.239 609 136V166H359V136Z" fill="#0FA7F0"/>
<path d="M380 189C380 187.343 381.343 186 383 186H585C586.657 186 588 187.343 588 189V198C588 199.657 586.657 201 585 201H383C381.343 201 380 199.657 380 198V189Z" fill="#E6E6E6"/>
<path d="M385 192C385 190.895 385.895 190 387 190H428C429.105 190 430 190.895 430 192V195C430 196.105 429.105 197 428 197H387C385.895 197 385 196.105 385 195V192Z" fill="#B3B3B3"/>
<path d="M436 192C436 190.895 436.895 190 438 190H479C480.105 190 481 190.895 481 192V195C481 196.105 480.105 197 479 197H438C436.895 197 436 196.105 436 195V192Z" fill="#B3B3B3"/>
<path d="M487 192C487 190.895 487.895 190 489 190H530C531.105 190 532 190.895 532 192V195C532 196.105 531.105 197 530 197H489C487.895 197 487 196.105 487 195V192Z" fill="#B3B3B3"/>
<path d="M538 192C538 190.895 538.895 190 540 190H581C582.105 190 583 190.895 583 192V195C583 196.105 582.105 197 581 197H540C538.895 197 538 196.105 538 195V192Z" fill="#B3B3B3"/>
<path fill-rule="evenodd" clip-rule="evenodd" d="M588 219H380V218H588V219Z" fill="#E1E1E9"/>
<path d="M385 208C385 206.895 385.895 206 387 206H428C429.105 206 430 206.895 430 208V211C430 212.105 429.105 213 428 213H387C385.895 213 385 212.105 385 211V208Z" fill="#B3B3B3"/>
<path d="M436 208C436 206.895 436.895 206 438 206H479C480.105 206 481 206.895 481 208V211C481 212.105 480.105 213 479 213H438C436.895 213 436 212.105 436 211V208Z" fill="#E6E6E6"/>
<path d="M487 208C487 206.895 487.895 206 489 206H530C531.105 206 532 206.895 532 208V211C532 212.105 531.105 213 530 213H489C487.895 213 487 212.105 487 211V208Z" fill="#E6E6E6"/>
<path d="M538 208C538 206.895 538.895 206 540 206H581C582.105 206 583 206.895 583 208V211C583 212.105 582.105 213 581 213H540C538.895 213 538 212.105 538 211V208Z" fill="#E6E6E6"/>
<path fill-rule="evenodd" clip-rule="evenodd" d="M588 237H380V236H588V237Z" fill="#E1E1E9"/>
<path d="M385 226C385 224.895 385.895 224 387 224H428C429.105 224 430 224.895 430 226V229C430 230.105 429.105 231 428 231H387C385.895 231 385 230.105 385 229V226Z" fill="#B3B3B3"/>
<path d="M436 226C436 224.895 436.895 224 438 224H479C480.105 224 481 224.895 481 226V229C481 230.105 480.105 231 479 231H438C436.895 231 436 230.105 436 229V226Z" fill="#E6E6E6"/>
<path d="M487 226C487 224.895 487.895 224 489 224H530C531.105 224 532 224.895 532 226V229C532 230.105 531.105 231 530 231H489C487.895 231 487 230.105 487 229V226Z" fill="#E6E6E6"/>
<path d="M538 226C538 224.895 538.895 224 540 224H581C582.105 224 583 224.895 583 226V229C583 230.105 582.105 231 581 231H540C538.895 231 538 230.105 538 229V226Z" fill="#E6E6E6"/>
<path fill-rule="evenodd" clip-rule="evenodd" d="M588 255H380V254H588V255Z" fill="#E1E1E9"/>
<path d="M385 244C385 242.895 385.895 242 387 242H428C429.105 242 430 242.895 430 244V247C430 248.105 429.105 249 428 249H387C385.895 249 385 248.105 385 247V244Z" fill="#B3B3B3"/>
<path d="M436 244C436 242.895 436.895 242 438 242H479C480.105 242 481 242.895 481 244V247C481 248.105 480.105 249 479 249H438C436.895 249 436 248.105 436 247V244Z" fill="#E6E6E6"/>
<path d="M487 244C487 242.895 487.895 242 489 242H530C531.105 242 532 242.895 532 244V247C532 248.105 531.105 249 530 249H489C487.895 249 487 248.105 487 247V244Z" fill="#E6E6E6"/>
<path d="M538 244C538 242.895 538.895 242 540 242H581C582.105 242 583 242.895 583 244V247C583 248.105 582.105 249 581 249H540C538.895 249 538 248.105 538 247V244Z" fill="#E6E6E6"/>
<path fill-rule="evenodd" clip-rule="evenodd" d="M588 273H380V272H588V273Z" fill="#E1E1E9"/>
<path d="M385 262C385 260.895 385.895 260 387 260H428C429.105 260 430 260.895 430 262V265C430 266.105 429.105 267 428 267H387C385.895 267 385 266.105 385 265V262Z" fill="#B3B3B3"/>
<path d="M436 262C436 260.895 436.895 260 438 260H479C480.105 260 481 260.895 481 262V265C481 266.105 480.105 267 479 267H438C436.895 267 436 266.105 436 265V262Z" fill="#E6E6E6"/>
<path d="M487 262C487 260.895 487.895 260 489 260H530C531.105 260 532 260.895 532 262V265C532 266.105 531.105 267 530 267H489C487.895 267 487 266.105 487 265V262Z" fill="#E6E6E6"/>
<path d="M538 262C538 260.895 538.895 260 540 260H581C582.105 260 583 260.895 583 262V265C583 266.105 582.105 267 581 267H540C538.895 267 538 266.105 538 265V262Z" fill="#E6E6E6"/>
<path fill-rule="evenodd" clip-rule="evenodd" d="M588 291H380V290H588V291Z" fill="#E1E1E9"/>
<path d="M385 280C385 278.895 385.895 278 387 278H428C429.105 278 430 278.895 430 280V283C430 284.105 429.105 285 428 285H387C385.895 285 385 284.105 385 283V280Z" fill="#B3B3B3"/>
<path d="M436 280C436 278.895 436.895 278 438 278H479C480.105 278 481 278.895 481 280V283C481 284.105 480.105 285 479 285H438C436.895 285 436 284.105 436 283V280Z" fill="#E6E6E6"/>
<path d="M487 280C487 278.895 487.895 278 489 278H530C531.105 278 532 278.895 532 280V283C532 284.105 531.105 285 530 285H489C487.895 285 487 284.105 487 283V280Z" fill="#E6E6E6"/>
<path d="M538 280C538 278.895 538.895 278 540 278H581C582.105 278 583 278.895 583 280V283C583 284.105 582.105 285 581 285H540C538.895 285 538 284.105 538 283V280Z" fill="#E6E6E6"/>
<path d="M385 298C385 296.895 385.895 296 387 296H428C429.105 296 430 296.895 430 298V301C430 302.105 429.105 303 428 303H387C385.895 303 385 302.105 385 301V298Z" fill="#B3B3B3"/>
<path d="M436 298C436 296.895 436.895 296 438 296H479C480.105 296 481 296.895 481 298V301C481 302.105 480.105 303 479 303H438C436.895 303 436 302.105 436 301V298Z" fill="#E6E6E6"/>
<path d="M487 298C487 296.895 487.895 296 489 296H530C531.105 296 532 296.895 532 298V301C532 302.105 531.105 303 530 303H489C487.895 303 487 302.105 487 301V298Z" fill="#E6E6E6"/>
<path d="M538 298C538 296.895 538.895 296 540 296H581C582.105 296 583 296.895 583 298V301C583 302.105 582.105 303 581 303H540C538.895 303 538 302.105 538 301V298Z" fill="#E6E6E6"/>
<path fill-rule="evenodd" clip-rule="evenodd" d="M983 383H364C361.791 383 360 384.791 360 387V523C360 525.209 361.791 527 364 527H983C985.209 527 987 525.209 987 523V387C987 384.791 985.209 383 983 383ZM364 382C361.239 382 359 384.239 359 387V523C359 525.761 361.239 528 364 528H983C985.761 528 988 525.761 988 523V387C988 384.239 985.761 382 983 382H364Z" fill="#E6E6E6"/>
<path d="M359 357C359 354.239 361.239 352 364 352H983C985.761 352 988 354.239 988 357V387H359V357Z" fill="#0FA7F0"/>
<path d="M379 472C379 470.895 379.895 470 381 470H390C391.105 470 392 470.895 392 472V505C392 506.105 391.105 507 390 507H381C379.895 507 379 506.105 379 505V472Z" fill="#0FA7F0"/>
<path d="M563 472C563 470.895 563.895 470 565 470H574C575.105 470 576 470.895 576 472V505C576 506.105 575.105 507 574 507H565C563.895 507 563 506.105 563 505V472Z" fill="#0FA7F0"/>
<path d="M402 472C402 470.895 402.895 470 404 470H413C414.105 470 415 470.895 415 472V505C415 506.105 414.105 507 413 507H404C402.895 507 402 506.105 402 505V472Z" fill="#0FA7F0"/>
<path d="M586 472C586 470.895 586.895 470 588 470H597C598.105 470 599 470.895 599 472V505C599 506.105 598.105 507 597 507H588C586.895 507 586 506.105 586 505V472Z" fill="#0FA7F0"/>
<path d="M517 472C517 470.895 517.895 470 519 470H528C529.105 470 530 470.895 530 472V505C530 506.105 529.105 507 528 507H519C517.895 507 517 506.105 517 505V472Z" fill="#0FA7F0"/>
<path d="M701 472C701 470.895 701.895 470 703 470H712C713.105 470 714 470.895 714 472V505C714 506.105 713.105 507 712 507H703C701.895 507 701 506.105 701 505V472Z" fill="#0FA7F0"/>
<path d="M540 490C540 488.895 540.895 488 542 488H551C552.105 488 553 488.895 553 490V505C553 506.105 552.105 507 551 507H542C540.895 507 540 506.105 540 505V490Z" fill="#0FA7F0"/>
<path d="M724 490C724 488.895 724.895 488 726 488H735C736.105 488 737 488.895 737 490V505C737 506.105 736.105 507 735 507H726C724.895 507 724 506.105 724 505V490Z" fill="#0FA7F0"/>
<path d="M908 490C908 488.895 908.895 488 910 488H919C920.105 488 921 488.895 921 490V505C921 506.105 920.105 507 919 507H910C908.895 507 908 506.105 908 505V490Z" fill="#0FA7F0"/>
<path d="M931 490C931 488.895 931.895 488 933 488H942C943.105 488 944 488.895 944 490V505C944 506.105 943.105 507 942 507H933C931.895 507 931 506.105 931 505V490Z" fill="#0FA7F0"/>
<path d="M425 461C425 459.895 425.895 459 427 459H436C437.105 459 438 459.895 438 461V505C438 506.105 437.105 507 436 507H427C425.895 507 425 506.105 425 505V461Z" fill="#0FA7F0"/>
<path d="M609 461C609 459.895 609.895 459 611 459H620C621.105 459 622 459.895 622 461V505C622 506.105 621.105 507 620 507H611C609.895 507 609 506.105 609 505V461Z" fill="#0FA7F0"/>
<path d="M747 461C747 459.895 747.895 459 749 459H758C759.105 459 760 459.895 760 461V505C760 506.105 759.105 507 758 507H749C747.895 507 747 506.105 747 505V461Z" fill="#0FA7F0"/>
<path d="M494 461C494 459.895 494.895 459 496 459H505C506.105 459 507 459.895 507 461V505C507 506.105 506.105 507 505 507H496C494.895 507 494 506.105 494 505V461Z" fill="#0FA7F0"/>
<path d="M678 461C678 459.895 678.895 459 680 459H689C690.105 459 691 459.895 691 461V505C691 506.105 690.105 507 689 507H680C678.895 507 678 506.105 678 505V461Z" fill="#0FA7F0"/>
<path d="M816 461C816 459.895 816.895 459 818 459H827C828.105 459 829 459.895 829 461V505C829 506.105 828.105 507 827 507H818C816.895 507 816 506.105 816 505V461Z" fill="#0FA7F0"/>
<path d="M839 501C839 499.895 839.895 499 841 499H850C851.105 499 852 499.895 852 501V505C852 506.105 851.105 507 850 507H841C839.895 507 839 506.105 839 505V501Z" fill="#0FA7F0"/>
<path d="M448 430C448 428.895 448.895 428 450 428H459C460.105 428 461 428.895 461 430V505C461 506.105 460.105 507 459 507H450C448.895 507 448 506.105 448 505V430Z" fill="#0FA7F0"/>
<path d="M632 430C632 428.895 632.895 428 634 428H643C644.105 428 645 428.895 645 430V505C645 506.105 644.105 507 643 507H634C632.895 507 632 506.105 632 505V430Z" fill="#0FA7F0"/>
<path d="M770 430C770 428.895 770.895 428 772 428H781C782.105 428 783 428.895 783 430V505C783 506.105 782.105 507 781 507H772C770.895 507 770 506.105 770 505V430Z" fill="#0FA7F0"/>
<path d="M862 430C862 428.895 862.895 428 864 428H873C874.105 428 875 428.895 875 430V505C875 506.105 874.105 507 873 507H864C862.895 507 862 506.105 862 505V430Z" fill="#0FA7F0"/>
<path d="M885 453C885 451.895 885.895 451 887 451H896C897.105 451 898 451.895 898 453V505C898 506.105 897.105 507 896 507H887C885.895 507 885 506.105 885 505V453Z" fill="#0FA7F0"/>
<path d="M471 430C471 428.895 471.895 428 473 428H482C483.105 428 484 428.895 484 430V505C484 506.105 483.105 507 482 507H473C471.895 507 471 506.105 471 505V430Z" fill="#0FA7F0"/>
<path d="M655 430C655 428.895 655.895 428 657 428H666C667.105 428 668 428.895 668 430V505C668 506.105 667.105 507 666 507H657C655.895 507 655 506.105 655 505V430Z" fill="#0FA7F0"/>
<path d="M954 430C954 428.895 954.895 428 956 428H965C966.105 428 967 428.895 967 430V505C967 506.105 966.105 507 965 507H956C954.895 507 954 506.105 954 505V430Z" fill="#0FA7F0"/>
<path d="M793 430C793 428.895 793.895 428 795 428H804C805.105 428 806 428.895 806 430V505C806 506.105 805.105 507 804 507H795C793.895 507 793 506.105 793 505V430Z" fill="#0FA7F0"/>
<path d="M379 428C379 426.895 379.895 426 381 426H390C391.105 426 392 426.895 392 428V467C392 468.105 391.105 469 390 469H381C379.895 469 379 468.105 379 467V428Z" fill="#FFEEA2"/>
<path d="M563 428C563 426.895 563.895 426 565 426H574C575.105 426 576 426.895 576 428V467C576 468.105 575.105 469 574 469H565C563.895 469 563 468.105 563 467V428Z" fill="#FFEEA2"/>
<path d="M402 461C402 459.895 402.895 459 404 459H413C414.105 459 415 459.895 415 461V467C415 468.105 414.105 469 413 469H404C402.895 469 402 468.105 402 467V461Z" fill="#FFEEA2"/>
<path d="M586 461C586 459.895 586.895 459 588 459H597C598.105 459 599 459.895 599 461V467C599 468.105 598.105 469 597 469H588C586.895 469 586 468.105 586 467V461Z" fill="#FFEEA2"/>
<path d="M517 461C517 459.895 517.895 459 519 459H528C529.105 459 530 459.895 530 461V467C530 468.105 529.105 469 528 469H519C517.895 469 517 468.105 517 467V461Z" fill="#FFEEA2"/>
<path d="M701 461C701 459.895 701.895 459 703 459H712C713.105 459 714 459.895 714 461V467C714 468.105 713.105 469 712 469H703C701.895 469 701 468.105 701 467V461Z" fill="#FFEEA2"/>
<path d="M724 461C724 459.895 724.895 459 726 459H735C736.105 459 737 459.895 737 461V485C737 486.105 736.105 487 735 487H726C724.895 487 724 486.105 724 485V461Z" fill="#FFEEA2"/>
<path d="M540 461C540 459.895 540.895 459 542 459H551C552.105 459 553 459.895 553 461V485C553 486.105 552.105 487 551 487H542C540.895 487 540 486.105 540 485V461Z" fill="#FFEEA2"/>
<path d="M908 461C908 459.895 908.895 459 910 459H919C920.105 459 921 459.895 921 461V485C921 486.105 920.105 487 919 487H910C908.895 487 908 486.105 908 485V461Z" fill="#FFEEA2"/>
<path d="M931 461C931 459.895 931.895 459 933 459H942C943.105 459 944 459.895 944 461V485C944 486.105 943.105 487 942 487H933C931.895 487 931 486.105 931 485V461Z" fill="#FFEEA2"/>
<path d="M425 419C425 417.895 425.895 417 427 417H436C437.105 417 438 417.895 438 419V456C438 457.105 437.105 458 436 458H427C425.895 458 425 457.105 425 456V419Z" fill="#FFEEA2"/>
<path d="M609 419C609 417.895 609.895 417 611 417H620C621.105 417 622 417.895 622 419V456C622 457.105 621.105 458 620 458H611C609.895 458 609 457.105 609 456V419Z" fill="#FFEEA2"/>
<path d="M747 419C747 417.895 747.895 417 749 417H758C759.105 417 760 417.895 760 419V456C760 457.105 759.105 458 758 458H749C747.895 458 747 457.105 747 456V419Z" fill="#FFEEA2"/>
<path d="M494 419C494 417.895 494.895 417 496 417H505C506.105 417 507 417.895 507 419V456C507 457.105 506.105 458 505 458H496C494.895 458 494 457.105 494 456V419Z" fill="#FFEEA2"/>
<path d="M678 419C678 417.895 678.895 417 680 417H689C690.105 417 691 417.895 691 419V456C691 457.105 690.105 458 689 458H680C678.895 458 678 457.105 678 456V419Z" fill="#FFEEA2"/>
<path d="M816 419C816 417.895 816.895 417 818 417H827C828.105 417 829 417.895 829 419V456C829 457.105 828.105 458 827 458H818C816.895 458 816 457.105 816 456V419Z" fill="#FFEEA2"/>
<path d="M839 478C839 476.895 839.895 476 841 476H850C851.105 476 852 476.895 852 478V496C852 497.105 851.105 498 850 498H841C839.895 498 839 497.105 839 496V478Z" fill="#FFEEA2"/>
<path d="M448 419C448 417.895 448.895 417 450 417H459C460.105 417 461 417.895 461 419V425C461 426.105 460.105 427 459 427H450C448.895 427 448 426.105 448 425V419Z" fill="#FFEEA2"/>
<path d="M632 419C632 417.895 632.895 417 634 417H643C644.105 417 645 417.895 645 419V425C645 426.105 644.105 427 643 427H634C632.895 427 632 426.105 632 425V419Z" fill="#FFEEA2"/>
<path d="M770 419C770 417.895 770.895 417 772 417H781C782.105 417 783 417.895 783 419V425C783 426.105 782.105 427 781 427H772C770.895 427 770 426.105 770 425V419Z" fill="#FFEEA2"/>
<path d="M862 419C862 417.895 862.895 417 864 417H873C874.105 417 875 417.895 875 419V425C875 426.105 874.105 427 873 427H864C862.895 427 862 426.105 862 425V419Z" fill="#FFEEA2"/>
<path d="M885 419C885 417.895 885.895 417 887 417H896C897.105 417 898 417.895 898 419V448C898 449.105 897.105 450 896 450H887C885.895 450 885 449.105 885 448V419Z" fill="#FFEEA2"/>
<path d="M471 424C471 422.895 471.895 422 473 422H482C483.105 422 484 422.895 484 424V425C484 426.105 483.105 427 482 427H473C471.895 427 471 426.105 471 425V424Z" fill="#FFEEA2"/>
<path d="M655 424C655 422.895 655.895 422 657 422H666C667.105 422 668 422.895 668 424V425C668 426.105 667.105 427 666 427H657C655.895 427 655 426.105 655 425V424Z" fill="#FFEEA2"/>
<path d="M954 424C954 422.895 954.895 422 956 422H965C966.105 422 967 422.895 967 424V425C967 426.105 966.105 427 965 427H956C954.895 427 954 426.105 954 425V424Z" fill="#FFEEA2"/>
<path d="M793 424C793 422.895 793.895 422 795 422H804C805.105 422 806 422.895 806 424V425C806 426.105 805.105 427 804 427H795C793.895 427 793 426.105 793 425V424Z" fill="#FFEEA2"/>
<path d="M379 407C379 405.895 379.895 405 381 405H390C391.105 405 392 405.895 392 407V423C392 424.105 391.105 425 390 425H381C379.895 425 379 424.105 379 423V407Z" fill="#F28100"/>
<path d="M563 407C563 405.895 563.895 405 565 405H574C575.105 405 576 405.895 576 407V423C576 424.105 575.105 425 574 425H565C563.895 425 563 424.105 563 423V407Z" fill="#F28100"/>
<path d="M402 407C402 405.895 402.895 405 404 405H413C414.105 405 415 405.895 415 407V456C415 457.105 414.105 458 413 458H404C402.895 458 402 457.105 402 456V407Z" fill="#F28100"/>
<path d="M586 407C586 405.895 586.895 405 588 405H597C598.105 405 599 405.895 599 407V456C599 457.105 598.105 458 597 458H588C586.895 458 586 457.105 586 456V407Z" fill="#F28100"/>
<path d="M517 407C517 405.895 517.895 405 519 405H528C529.105 405 530 405.895 530 407V456C530 457.105 529.105 458 528 458H519C517.895 458 517 457.105 517 456V407Z" fill="#F28100"/>
<path d="M724 407C724 405.895 724.895 405 726 405H735C736.105 405 737 405.895 737 407V456C737 457.105 736.105 458 735 458H726C724.895 458 724 457.105 724 456V407Z" fill="#F28100"/>
<path d="M701 407C701 405.895 701.895 405 703 405H712C713.105 405 714 405.895 714 407V456C714 457.105 713.105 458 712 458H703C701.895 458 701 457.105 701 456V407Z" fill="#F28100"/>
<path d="M540 407C540 405.895 540.895 405 542 405H551C552.105 405 553 405.895 553 407V456C553 457.105 552.105 458 551 458H542C540.895 458 540 457.105 540 456V407Z" fill="#F28100"/>
<path d="M908 407C908 405.895 908.895 405 910 405H919C920.105 405 921 405.895 921 407V456C921 457.105 920.105 458 919 458H910C908.895 458 908 457.105 908 456V407Z" fill="#F28100"/>
<path d="M931 407C931 405.895 931.895 405 933 405H942C943.105 405 944 405.895 944 407V456C944 457.105 943.105 458 942 458H933C931.895 458 931 457.105 931 456V407Z" fill="#F28100"/>
<path d="M425 407C425 405.895 425.895 405 427 405H436C437.105 405 438 405.895 438 407V414C438 415.105 437.105 416 436 416H427C425.895 416 425 415.105 425 414V407Z" fill="#F28100"/>
<path d="M609 407C609 405.895 609.895 405 611 405H620C621.105 405 622 405.895 622 407V414C622 415.105 621.105 416 620 416H611C609.895 416 609 415.105 609 414V407Z" fill="#F28100"/>
<path d="M747 407C747 405.895 747.895 405 749 405H758C759.105 405 760 405.895 760 407V414C760 415.105 759.105 416 758 416H749C747.895 416 747 415.105 747 414V407Z" fill="#F28100"/>
<path d="M494 407C494 405.895 494.895 405 496 405H505C506.105 405 507 405.895 507 407V414C507 415.105 506.105 416 505 416H496C494.895 416 494 415.105 494 414V407Z" fill="#F28100"/>
<path d="M678 407C678 405.895 678.895 405 680 405H689C690.105 405 691 405.895 691 407V414C691 415.105 690.105 416 689 416H680C678.895 416 678 415.105 678 414V407Z" fill="#F28100"/>
<path d="M816 407C816 405.895 816.895 405 818 405H827C828.105 405 829 405.895 829 407V414C829 415.105 828.105 416 827 416H818C816.895 416 816 415.105 816 414V407Z" fill="#F28100"/>
<path d="M839 407C839 405.895 839.895 405 841 405H850C851.105 405 852 405.895 852 407V473C852 474.105 851.105 475 850 475H841C839.895 475 839 474.105 839 473V407Z" fill="#F28100"/>
<path d="M448 407C448 405.895 448.895 405 450 405H459C460.105 405 461 405.895 461 407V414C461 415.105 460.105 416 459 416H450C448.895 416 448 415.105 448 414V407Z" fill="#F28100"/>
<path d="M632 407C632 405.895 632.895 405 634 405H643C644.105 405 645 405.895 645 407V414C645 415.105 644.105 416 643 416H634C632.895 416 632 415.105 632 414V407Z" fill="#F28100"/>
<path d="M770 407C770 405.895 770.895 405 772 405H781C782.105 405 783 405.895 783 407V414C783 415.105 782.105 416 781 416H772C770.895 416 770 415.105 770 414V407Z" fill="#F28100"/>
<path d="M862 407C862 405.895 862.895 405 864 405H873C874.105 405 875 405.895 875 407V414C875 415.105 874.105 416 873 416H864C862.895 416 862 415.105 862 414V407Z" fill="#F28100"/>
<path d="M885 407C885 405.895 885.895 405 887 405H896C897.105 405 898 405.895 898 407V414C898 415.105 897.105 416 896 416H887C885.895 416 885 415.105 885 414V407Z" fill="#F28100"/>
<path d="M471 407C471 405.895 471.895 405 473 405H482C483.105 405 484 405.895 484 407V419C484 420.105 483.105 421 482 421H473C471.895 421 471 420.105 471 419V407Z" fill="#F28100"/>
<path d="M655 407C655 405.895 655.895 405 657 405H666C667.105 405 668 405.895 668 407V419C668 420.105 667.105 421 666 421H657C655.895 421 655 420.105 655 419V407Z" fill="#F28100"/>
<path d="M954 407C954 405.895 954.895 405 956 405H965C966.105 405 967 405.895 967 407V419C967 420.105 966.105 421 965 421H956C954.895 421 954 420.105 954 419V407Z" fill="#F28100"/>
<path d="M793 407C793 405.895 793.895 405 795 405H804C805.105 405 806 405.895 806 407V419C806 420.105 805.105 421 804 421H795C793.895 421 793 420.105 793 419V407Z" fill="#F28100"/>
<g filter="url(#filter1_i_1729_153)">
<path d="M50 101H105V559H65C56.7157 559 50 552.284 50 544V101Z" fill="white"/>
</g>
<path d="M76 139V133H80V139H85V131H88L78 122L68 131H71V139H76Z" fill="#747474"/>
<path d="M83.833 157.667L79.6663 161.417V170.583L83.833 166.833V157.667ZM73.4163 160.167C71.7913 160.167 70.0413 160.5 68.833 161.417V173.633C68.833 173.842 69.0413 174.05 69.2497 174.05C69.333 174.05 69.3747 173.992 69.458 173.992C70.583 173.45 72.208 173.083 73.4163 173.083C75.0413 173.083 76.7913 173.417 77.9997 174.333C79.1247 173.625 81.1663 173.083 82.583 173.083C83.958 173.083 85.3747 173.342 86.5413 173.967C86.6247 174.008 86.6663 173.992 86.7497 173.992C86.958 173.992 87.1663 173.783 87.1663 173.575V161.417C86.6663 161.042 86.1247 160.792 85.4997 160.583V171.833C84.583 171.542 83.583 171.417 82.583 171.417C81.1663 171.417 79.1247 171.958 77.9997 172.667V161.417C76.7913 160.5 75.0413 160.167 73.4163 160.167Z" fill="#747474"/>
<path fill-rule="evenodd" clip-rule="evenodd" d="M105 504H50V503H105V504Z" fill="#E1E1E9"/>
<path d="M69.3136 518.406L69.8342 523.224L69.921 524.138H67.8965L67.9977 523.224L68.5038 518.406L68.5472 518H69.2702L69.3136 518.406Z" fill="#F28100"/>
<path d="M85.4083 518.406L85.9145 523.224L86.0157 524.138H83.9912L84.078 523.224L84.5986 518.406L84.6419 518H85.365L85.4083 518.406Z" fill="#F28100"/>
<path d="M75.9943 533.367C75.5894 533.729 75.199 534.034 74.7941 534.339C74.3892 534.643 73.9843 534.948 73.5505 535.238C72.6973 535.819 71.8297 536.356 70.8319 536.806C70.3692 537.009 69.8197 536.806 69.6173 536.341C69.4293 535.92 69.5883 535.427 69.9643 535.195L69.9932 535.18C70.7452 534.716 71.4537 534.121 72.1478 533.483C72.4949 533.163 72.8275 532.83 73.1601 532.496C73.4782 532.162 73.8253 531.799 74.1 531.48C74.5917 530.914 75.4304 530.856 75.9943 531.335C76.5583 531.828 76.6161 532.67 76.1389 533.236C76.0956 533.28 76.0522 533.323 75.9943 533.367Z" fill="#37376D"/>
<path d="M79.147 530.682C79.5808 530.783 80.1014 530.812 80.6075 530.812C81.1281 530.812 81.6631 530.769 82.1837 530.696C83.2393 530.551 84.2949 530.275 85.2493 529.84L85.2638 529.826C85.7265 529.608 86.276 529.826 86.4785 530.29C86.6665 530.725 86.5074 531.219 86.117 531.451C85.018 532.118 83.8467 532.583 82.632 532.916C82.0246 533.076 81.4028 533.206 80.7666 533.279C80.1303 533.352 79.4651 533.395 78.7566 533.337H78.7421C78.0046 533.279 77.4551 532.626 77.513 531.886C77.5708 531.146 78.2215 530.595 78.959 530.653C79.0313 530.653 79.0892 530.667 79.147 530.682Z" fill="#37376D"/>
<path d="M86.2174 523.833C86.2174 526.924 82.0962 529.434 76.9916 529.434C71.8871 529.434 67.7803 526.924 67.7803 523.833C67.7803 520.742 71.916 518.232 77.0061 518.232C82.0962 518.232 86.2174 520.742 86.2174 523.833Z" fill="#0FA7F0"/>
<path d="M83.0366 523.833C83.0366 525.545 80.3325 527.025 77.0066 527.025C73.6807 527.025 70.9766 525.545 70.9766 523.833C70.9766 522.121 73.6807 520.641 77.0066 520.641C80.3325 520.655 83.0366 522.135 83.0366 523.833Z" fill="white"/>
<path d="M79.0884 523.833C79.0884 524.994 78.163 525.923 77.0061 525.923C75.8493 525.923 74.9238 524.994 74.9238 523.833C74.9238 522.672 75.8493 521.744 77.0061 521.744C78.1485 521.744 79.0884 522.687 79.0884 523.833Z" fill="#37376D"/>
<path d="M82.9204 538.329L80.679 532.133C80.332 531.219 79.4644 530.609 78.4955 530.609H75.8203C74.5333 530.609 73.4922 531.654 73.4922 532.946V538.314H82.9204V538.329Z" fill="#0FA7F0"/>
<path d="M67 535.267C67.5061 534.817 68.2725 534.6 68.9811 534.73C69.6897 534.846 70.3693 535.296 70.7597 535.92C71.1646 536.544 71.2658 537.342 71.0779 538.039C70.8899 538.735 70.3838 539.345 69.7475 539.606L69.0245 538.474C69.2414 538.213 69.3426 537.937 69.3715 537.661C69.386 537.386 69.3281 537.139 69.1835 536.921C69.0534 536.704 68.8509 536.544 68.5907 536.443C68.3304 536.341 68.0412 536.327 67.7086 536.399L67 535.267Z" fill="#F28100"/>
<path d="M87.5629 528.651C87.3171 528.883 87.1725 529.129 87.1002 529.391C87.0424 529.652 87.0713 529.913 87.158 530.145C87.2593 530.377 87.4328 530.58 87.6642 530.711C87.8955 530.842 88.1847 530.914 88.5173 530.885L89.0524 532.119C88.4739 532.496 87.6931 532.568 87.0134 532.336C86.3338 532.104 85.7265 531.553 85.4517 530.871C85.1625 530.189 85.1625 529.376 85.4806 528.723C85.7843 528.056 86.3772 527.548 87.0424 527.388L87.5629 528.651Z" fill="#F28100"/>
<path d="M76.7321 538.329H73.4785V542H76.7321V538.329Z" fill="#37376D"/>
<path d="M80.9827 542H84.2508L82.9204 538.329H79.6523L80.9827 542Z" fill="#37376D"/>
<path d="M84.9762 200.095H83.7619V196.857C83.7619 195.959 83.0333 195.238 82.1429 195.238H78.9048V194.024C78.9048 193.487 78.6915 192.972 78.312 192.593C77.9325 192.213 77.4177 192 76.881 192C76.3442 192 75.8294 192.213 75.4499 192.593C75.0704 192.972 74.8571 193.487 74.8571 194.024V195.238H71.619C71.1896 195.238 70.7778 195.409 70.4742 195.712C70.1706 196.016 70 196.428 70 196.857V199.933H71.2143C72.4286 199.933 73.4 200.905 73.4 202.119C73.4 203.333 72.4286 204.305 71.2143 204.305H70V207.381C70 207.81 70.1706 208.222 70.4742 208.526C70.7778 208.829 71.1896 209 71.619 209H74.6952V207.786C74.6952 206.571 75.6667 205.6 76.881 205.6C78.0952 205.6 79.0667 206.571 79.0667 207.786V209H82.1429C82.5723 209 82.9841 208.829 83.2877 208.526C83.5913 208.222 83.7619 207.81 83.7619 207.381V204.143H84.9762C85.5129 204.143 86.0277 203.93 86.4072 203.55C86.7868 203.171 87 202.656 87 202.119C87 201.582 86.7868 201.068 86.4072 200.688C86.0277 200.308 85.5129 200.095 84.9762 200.095Z" fill="#747474"/>
<path d="M72 238.5L69 241.44V233H72V238.5ZM77 236.66L75.43 235.32L74 236.64V229H77V236.66ZM82 235L79 238V225H82V235ZM84.81 234.81L83 233H88V238L86.21 236.21L79 243.36L75.53 240.34L71.75 244H69L75.47 237.66L79 240.64" fill="#747474"/>
<path d="M80.763 268.325L79.953 269.153C79.305 269.801 78.9 270.35 78.9 271.7H77.1V271.25C77.1 270.251 77.505 269.351 78.153 268.703L79.269 267.569C79.602 267.245 79.8 266.795 79.8 266.3C79.8 265.301 78.99 264.5 78 264.5C77.5226 264.5 77.0648 264.69 76.7272 265.027C76.3896 265.365 76.2 265.823 76.2 266.3H74.4C74.4 265.345 74.7793 264.43 75.4544 263.754C76.1295 263.079 77.0452 262.7 78 262.7C78.9548 262.7 79.8705 263.079 80.5456 263.754C81.2207 264.43 81.6 265.345 81.6 266.3C81.6 267.092 81.276 267.803 80.763 268.325ZM78.9 275.3H77.1V273.5H78.9V275.3ZM78 260C76.8181 260 75.6478 260.233 74.5558 260.685C73.4639 261.137 72.4718 261.8 71.636 262.636C69.9482 264.324 69 266.613 69 269C69 271.387 69.9482 273.676 71.636 275.364C72.4718 276.2 73.4639 276.863 74.5558 277.315C75.6478 277.767 76.8181 278 78 278C80.3869 278 82.6761 277.052 84.364 275.364C86.0518 273.676 87 271.387 87 269C87 264.023 82.95 260 78 260Z" fill="#747474"/>
<path d="M50 61C50 52.7157 56.7157 46 65 46H105V101H50V61Z" fill="#0FA7F0"/>
<g filter="url(#filter2_i_1729_153)">
<path d="M105 101V46H1003C1011.28 46 1018 52.7157 1018 61V101H105Z" fill="white"/>
</g>
<path d="M69 67H87V69H69V67Z" fill="white"/>
<path d="M69 72H87V74H69V72Z" fill="white"/>
<path d="M69 77H87V79H69V77Z" fill="white"/>
<path d="M136.615 65.7002H141.365C145.153 65.7002 147.046 67.1569 147.046 70.0702C147.046 72.9835 145.153 74.4402 141.365 74.4402H138.781V79.0002H136.615V65.7002ZM143.93 71.9512C144.538 71.5965 144.842 70.9695 144.842 70.0702C144.842 69.1709 144.538 68.5502 143.93 68.2082C143.335 67.8535 142.518 67.6762 141.479 67.6762H138.781V72.4642H141.479C142.518 72.4642 143.335 72.2932 143.93 71.9512Z" fill="#454545"/>
<path d="M150.547 71.381C150.902 70.811 151.427 70.3677 152.124 70.051C152.821 69.7343 153.574 69.614 154.385 69.69V71.685C153.574 71.571 152.84 71.6787 152.181 72.008C151.522 72.3373 151.054 72.825 150.775 73.471V79H148.742V69.88H150.547V71.381Z" fill="#454545"/>
<path d="M157.994 79.0002H155.961V69.8802H157.994V79.0002ZM158.222 66.9162C158.222 67.3089 158.101 67.6129 157.861 67.8282C157.633 68.0309 157.341 68.1322 156.987 68.1322C156.632 68.1322 156.334 68.0309 156.094 67.8282C155.853 67.6129 155.733 67.3089 155.733 66.9162C155.733 66.5362 155.853 66.2449 156.094 66.0422C156.334 65.8269 156.632 65.7192 156.987 65.7192C157.341 65.7192 157.633 65.8269 157.861 66.0422C158.101 66.2449 158.222 66.5362 158.222 66.9162Z" fill="#454545"/>
<path d="M160.01 74.5163C160.01 72.933 160.51 71.7233 161.511 70.8873C162.512 70.0513 163.69 69.6333 165.045 69.6333C166.134 69.6333 167.072 69.8676 167.857 70.3363V72.1983C167.148 71.6916 166.305 71.4383 165.33 71.4383C164.431 71.4383 163.664 71.6916 163.031 72.1983C162.398 72.6923 162.081 73.4396 162.081 74.4403C162.081 75.4156 162.391 76.163 163.012 76.6823C163.645 77.189 164.405 77.4423 165.292 77.4423C166.255 77.4423 167.141 77.208 167.952 76.7393V78.6203C167.078 79.0383 166.071 79.2473 164.931 79.2473C163.601 79.2473 162.448 78.842 161.473 78.0313C160.498 77.208 160.01 76.0363 160.01 74.5163Z" fill="#454545"/>
<path d="M169.269 74.4403C169.269 73.655 169.408 72.9456 169.687 72.3123C169.965 71.6663 170.333 71.1596 170.789 70.7923C171.245 70.4123 171.739 70.1273 172.271 69.9373C172.803 69.7346 173.341 69.6333 173.886 69.6333C174.582 69.6333 175.209 69.741 175.767 69.9563C176.337 70.1716 176.793 70.463 177.135 70.8303C177.477 71.1976 177.755 71.622 177.971 72.1033C178.186 72.5846 178.3 73.0913 178.313 73.6233C178.325 74.1426 178.281 74.6683 178.18 75.2003H171.321C171.422 75.973 171.802 76.5556 172.461 76.9483C173.119 77.3283 173.905 77.5183 174.817 77.5183C175.855 77.5183 176.818 77.303 177.705 76.8723V78.6203C176.831 79.0383 175.741 79.2473 174.437 79.2473C172.955 79.2473 171.72 78.8293 170.732 77.9933C169.756 77.1573 169.269 75.973 169.269 74.4403ZM176.356 73.6803C176.432 73.161 176.273 72.6416 175.881 72.1223C175.501 71.5903 174.867 71.3243 173.981 71.3243C173.259 71.3243 172.638 71.5333 172.119 71.9513C171.612 72.3693 171.34 72.9456 171.302 73.6803H176.356Z" fill="#454545"/>
<path d="M182.053 71.381C182.408 70.811 182.933 70.3677 183.63 70.051C184.327 69.7343 185.08 69.614 185.891 69.69V71.685C185.08 71.571 184.346 71.6787 183.687 72.008C183.028 72.3373 182.56 72.825 182.281 73.471V79H180.248V69.88H182.053V71.381Z" fill="#454545"/>
<path d="M187.41 67.144C188.689 66.27 190.12 65.833 191.704 65.833C193.059 65.833 194.155 66.1497 194.991 66.783C195.827 67.4037 196.245 68.2967 196.245 69.462C196.245 70.4373 195.922 71.2733 195.276 71.97C194.642 72.654 193.775 73.3253 192.673 73.984C192.584 74.0347 192.419 74.1297 192.179 74.269C191.951 74.4083 191.786 74.5097 191.685 74.573C191.596 74.6237 191.45 74.7123 191.248 74.839C191.045 74.9657 190.893 75.0607 190.792 75.124C190.703 75.1873 190.576 75.2823 190.412 75.409C190.26 75.523 190.146 75.6243 190.07 75.713C189.994 75.789 189.905 75.8903 189.804 76.017C189.702 76.131 189.626 76.2387 189.576 76.34C189.538 76.4413 189.5 76.5553 189.462 76.682C189.424 76.8087 189.405 76.9353 189.405 77.062L196.34 77.043V79H186.973V78.012C186.973 77.3027 187.068 76.6757 187.258 76.131C187.46 75.5737 187.809 75.067 188.303 74.611C188.809 74.1423 189.202 73.813 189.481 73.623C189.759 73.4203 190.253 73.11 190.963 72.692C191.026 72.6413 191.077 72.6033 191.115 72.578C191.165 72.5527 191.216 72.5273 191.267 72.502C192.331 71.8813 193.015 71.4317 193.319 71.153C193.825 70.659 194.079 70.108 194.079 69.5C194.079 68.9427 193.851 68.5183 193.395 68.227C192.951 67.9357 192.324 67.79 191.514 67.79C190.108 67.79 188.74 68.2713 187.41 69.234V67.144Z" fill="#454545"/>
<path d="M204.604 66.0801H206.827V74.4781H209.05V76.3591H206.827V79.0001H204.737V76.3591H197.726V74.5161L204.604 66.0801ZM204.737 74.4781V68.8351L200.139 74.4781H204.737Z" fill="#454545"/>
<path d="M216.094 80.1211H214.612L220.35 64.5791H221.832L216.094 80.1211Z" fill="#454545"/>
<path d="M228.461 65.7002H233.116C235.396 65.7002 237.131 66.3082 238.322 67.5242C239.513 68.7402 240.108 70.3489 240.108 72.3502C240.108 74.3515 239.513 75.9602 238.322 77.1762C237.131 78.3922 235.396 79.0002 233.116 79.0002H228.461V65.7002ZM236.669 75.8272C237.492 75.0165 237.904 73.8575 237.904 72.3502C237.904 70.8429 237.492 69.6902 236.669 68.8922C235.858 68.0815 234.668 67.6762 233.097 67.6762H230.627V77.0242H233.097C234.668 77.0242 235.858 76.6252 236.669 75.8272Z" fill="#454545"/>
<path d="M249.843 76.8913C249.843 77.3346 250.065 77.5563 250.508 77.5563C250.66 77.5563 250.863 77.5183 251.116 77.4423V78.9053C250.736 79.0573 250.305 79.1333 249.824 79.1333C248.912 79.1333 248.304 78.7786 248 78.0693C247.025 78.8546 245.878 79.2473 244.561 79.2473C243.674 79.2473 242.921 79.0066 242.3 78.5253C241.679 78.0313 241.369 77.341 241.369 76.4543C241.369 75.3903 241.768 74.6176 242.566 74.1363C243.364 73.6423 244.32 73.3953 245.435 73.3953C246.17 73.3953 246.961 73.484 247.81 73.6613V73.3383C247.81 72.7556 247.601 72.287 247.183 71.9323C246.765 71.5776 246.176 71.4003 245.416 71.4003C244.289 71.4003 243.193 71.6346 242.129 72.1033V70.2413C243.32 69.836 244.485 69.6333 245.625 69.6333C246.955 69.6333 247.987 69.9626 248.722 70.6213C249.469 71.28 249.843 72.2806 249.843 73.6233V76.8913ZM245.834 74.8203C245.163 74.8203 244.599 74.9406 244.143 75.1813C243.687 75.422 243.459 75.802 243.459 76.3213C243.459 76.752 243.624 77.0876 243.953 77.3283C244.282 77.5563 244.688 77.6703 245.169 77.6703C246.208 77.6703 247.088 77.3093 247.81 76.5873V75.0483C247.075 74.8963 246.417 74.8203 245.834 74.8203Z" fill="#454545"/>
<path d="M252.043 72.3503C252.043 71.4256 252.392 70.7416 253.088 70.2983C253.798 69.855 254.659 69.6333 255.672 69.6333C256.85 69.6333 257.946 69.893 258.959 70.4123V72.1983C258.579 71.945 258.092 71.736 257.496 71.5713C256.901 71.394 256.337 71.3053 255.805 71.3053C255.337 71.3053 254.938 71.3876 254.608 71.5523C254.279 71.7043 254.114 71.9513 254.114 72.2933C254.114 72.61 254.304 72.876 254.684 73.0913C255.064 73.294 255.52 73.4713 256.052 73.6233C256.597 73.7626 257.135 73.9336 257.667 74.1363C258.199 74.3263 258.655 74.624 259.035 75.0293C259.415 75.4346 259.605 75.9476 259.605 76.5683C259.605 77.5056 259.238 78.1896 258.503 78.6203C257.769 79.0383 256.825 79.2473 255.672 79.2473C254.241 79.2473 253.05 78.956 252.1 78.3733V76.5683C253.076 77.2143 254.235 77.5373 255.577 77.5373C256.895 77.5373 257.553 77.227 257.553 76.6063C257.553 76.3023 257.363 76.049 256.983 75.8463C256.603 75.631 256.141 75.4536 255.596 75.3143C255.064 75.1623 254.526 74.9913 253.981 74.8013C253.449 74.5986 252.993 74.2946 252.613 73.8893C252.233 73.4713 252.043 72.9583 252.043 72.3503Z" fill="#454545"/>
<path d="M261.443 65.7002H263.476V70.8872C264.287 70.0512 265.268 69.6332 266.421 69.6332C267.561 69.6332 268.473 69.9815 269.157 70.6782C269.841 71.3622 270.183 72.2552 270.183 73.3572V79.0002H268.15V73.6232C268.15 72.9139 267.954 72.3755 267.561 72.0082C267.168 71.6282 266.655 71.4382 266.022 71.4382C265.021 71.4382 264.173 71.9449 263.476 72.9582V79.0002H261.443V65.7002Z" fill="#454545"/>
<path d="M272.613 65.7002H274.646V71.0582C275.495 70.1082 276.59 69.6332 277.933 69.6332C279.276 69.6332 280.365 70.1019 281.201 71.0392C282.037 71.9639 282.455 73.0975 282.455 74.4402C282.455 75.7829 282.037 76.9229 281.201 77.8602C280.365 78.7849 279.276 79.2472 277.933 79.2472C276.502 79.2472 275.33 78.6835 274.418 77.5562V79.0002H272.613V65.7002ZM279.586 76.6252C280.118 76.0552 280.384 75.3269 280.384 74.4402C280.384 73.5535 280.118 72.8315 279.586 72.2742C279.054 71.7042 278.376 71.4192 277.553 71.4192C276.882 71.4192 276.286 71.6029 275.767 71.9702C275.26 72.3375 274.887 72.7872 274.646 73.3192V75.5422C274.887 76.0869 275.26 76.5429 275.767 76.9102C276.286 77.2775 276.882 77.4612 277.553 77.4612C278.376 77.4612 279.054 77.1825 279.586 76.6252Z" fill="#454545"/>
<path d="M285.306 77.9743C284.344 77.1256 283.862 75.9476 283.862 74.4403C283.862 72.933 284.344 71.755 285.306 70.9063C286.282 70.0576 287.447 69.6333 288.802 69.6333C290.17 69.6333 291.336 70.0576 292.298 70.9063C293.261 71.755 293.742 72.933 293.742 74.4403C293.742 75.9476 293.261 77.1256 292.298 77.9743C291.336 78.823 290.17 79.2473 288.802 79.2473C287.447 79.2473 286.282 78.823 285.306 77.9743ZM290.873 76.5873C291.405 76.0426 291.671 75.327 291.671 74.4403C291.671 73.5536 291.405 72.8443 290.873 72.3123C290.341 71.7676 289.651 71.4953 288.802 71.4953C287.941 71.4953 287.244 71.7676 286.712 72.3123C286.18 72.8443 285.914 73.5536 285.914 74.4403C285.914 75.327 286.18 76.0426 286.712 76.5873C287.244 77.1193 287.941 77.3853 288.802 77.3853C289.651 77.3853 290.341 77.1193 290.873 76.5873Z" fill="#454545"/>
<path d="M303.485 76.8913C303.485 77.3346 303.706 77.5563 304.15 77.5563C304.302 77.5563 304.504 77.5183 304.758 77.4423V78.9053C304.378 79.0573 303.947 79.1333 303.466 79.1333C302.554 79.1333 301.946 78.7786 301.642 78.0693C300.666 78.8546 299.52 79.2473 298.203 79.2473C297.316 79.2473 296.562 79.0066 295.942 78.5253C295.321 78.0313 295.011 77.341 295.011 76.4543C295.011 75.3903 295.41 74.6176 296.208 74.1363C297.006 73.6423 297.962 73.3953 299.077 73.3953C299.811 73.3953 300.603 73.484 301.452 73.6613V73.3383C301.452 72.7556 301.243 72.287 300.825 71.9323C300.407 71.5776 299.818 71.4003 299.058 71.4003C297.93 71.4003 296.835 71.6346 295.771 72.1033V70.2413C296.961 69.836 298.127 69.6333 299.267 69.6333C300.597 69.6333 301.629 69.9626 302.364 70.6213C303.111 71.28 303.485 72.2806 303.485 73.6233V76.8913ZM299.476 74.8203C298.804 74.8203 298.241 74.9406 297.785 75.1813C297.329 75.422 297.101 75.802 297.101 76.3213C297.101 76.752 297.265 77.0876 297.595 77.3283C297.924 77.5563 298.329 77.6703 298.811 77.6703C299.849 77.6703 300.73 77.3093 301.452 76.5873V75.0483C300.717 74.8963 300.058 74.8203 299.476 74.8203Z" fill="#454545"/>
<path d="M307.965 71.381C308.32 70.811 308.845 70.3677 309.542 70.051C310.239 69.7343 310.992 69.614 311.803 69.69V71.685C310.992 71.571 310.258 71.6787 309.599 72.008C308.94 72.3373 308.472 72.825 308.193 73.471V79H306.16V69.88H307.965V71.381Z" fill="#454545"/>
<path d="M320.357 65.7002H322.39V79.0002H320.566V77.5562C319.679 78.6835 318.514 79.2472 317.07 79.2472C315.727 79.2472 314.638 78.7849 313.802 77.8602C312.966 76.9229 312.548 75.7829 312.548 74.4402C312.548 73.0975 312.966 71.9639 313.802 71.0392C314.638 70.1019 315.727 69.6332 317.07 69.6332C318.438 69.6332 319.534 70.1082 320.357 71.0582V65.7002ZM320.338 73.3192C320.097 72.7872 319.717 72.3375 319.198 71.9702C318.691 71.6029 318.102 71.4192 317.431 71.4192C316.608 71.4192 315.93 71.7042 315.398 72.2742C314.866 72.8315 314.6 73.5535 314.6 74.4402C314.6 75.3269 314.866 76.0552 315.398 76.6252C315.93 77.1825 316.608 77.4612 317.431 77.4612C318.102 77.4612 318.691 77.2775 319.198 76.9102C319.717 76.5429 320.097 76.0869 320.338 75.5422V73.3192Z" fill="#454545"/>
<path d="M889.833 72C889.833 76.5558 893.527 80.25 898.083 80.25C900.274 80.25 902.373 79.3883 903.95 77.8667L902.575 76.4917C901.411 77.7292 899.788 78.4167 898.083 78.4167C892.363 78.4167 889.503 71.505 893.546 67.4625C897.588 63.42 904.5 66.2892 904.5 72H901.75L905.416 75.6667H905.508L909.083 72H906.333C906.333 67.4442 902.639 63.75 898.083 63.75C893.527 63.75 889.833 67.4442 889.833 72Z" fill="#454545"/>
<path d="M985.5 75.3332V65.3332H970.5V75.3332H985.5ZM985.5 63.6665C985.942 63.6665 986.366 63.8421 986.678 64.1547C986.991 64.4672 987.166 64.8911 987.166 65.3332V75.3332C987.166 75.7752 986.991 76.1991 986.678 76.5117C986.366 76.8242 985.942 76.9998 985.5 76.9998H979.666V78.6665H981.333V80.3332H974.666V78.6665H976.333V76.9998H970.5C969.575 76.9998 968.833 76.2498 968.833 75.3332V65.3332C968.833 64.4082 969.575 63.6665 970.5 63.6665H985.5ZM972.166 66.9998H979.666V71.1665H972.166V66.9998ZM980.5 66.9998H983.833V68.6665H980.5V66.9998ZM983.833 69.4998V73.6665H980.5V69.4998H983.833ZM972.166 71.9998H975.5V73.6665H972.166V71.9998ZM976.333 71.9998H979.666V73.6665H976.333V71.9998Z" fill="#454545"/>
<path d="M945.584 73.0837H939.084V79.5837H936.917V73.0837H930.417V70.917H936.917V64.417H939.084V70.917H945.584V73.0837Z" fill="#454545"/>
<path d="M660.09 153V142.5H658.38V147.465C657.555 147.795 656.715 147.945 655.92 147.945C654.405 147.93 653.355 147.375 653.355 145.95V142.5H651.645V145.95C651.645 148.35 653.145 149.52 655.5 149.535C656.415 149.535 657.375 149.385 658.38 149.055V153H660.09ZM668.394 151.335V148.755C668.394 146.58 667.104 145.605 665.064 145.605C663.909 145.605 662.874 145.89 662.304 146.085V147.555C662.949 147.27 663.834 147 664.899 147C666.129 147 666.789 147.63 666.789 148.53V148.785C666.219 148.665 665.529 148.575 664.914 148.575C663.414 148.575 661.704 149.145 661.704 150.99C661.704 152.475 662.919 153.195 664.224 153.195C665.349 153.195 666.234 152.835 666.939 152.265C667.194 152.85 667.719 153.105 668.379 153.105C668.739 153.105 669.099 153.045 669.399 152.925V151.77C669.249 151.815 669.084 151.86 668.919 151.86C668.634 151.86 668.394 151.74 668.394 151.335ZM665.229 149.7C665.739 149.7 666.354 149.79 666.789 149.88V151.095C666.219 151.665 665.469 151.95 664.704 151.95C663.984 151.95 663.354 151.59 663.354 150.885C663.354 149.985 664.314 149.7 665.229 149.7ZM670.159 149.46C670.159 152.025 672.124 153.195 674.044 153.195C674.959 153.195 675.739 153.03 676.429 152.7V151.215C675.859 151.545 675.094 151.77 674.329 151.77C673.039 151.77 671.794 151.035 671.794 149.4C671.794 147.705 673.084 147.03 674.359 147.03C675.094 147.03 675.829 147.255 676.354 147.63V146.16C675.724 145.785 674.944 145.605 674.134 145.605C672.214 145.605 670.159 146.775 670.159 149.46ZM681.38 153V147.21H683.855V145.8H677.285V147.21H679.775V153H681.38ZM686.715 153V150.015H687.87L690.24 153H692.085L689.19 149.37L691.8 145.8H689.97L687.9 148.65H686.715V145.8H685.11V153H686.715ZM699.2 151.335V148.755C699.2 146.58 697.91 145.605 695.87 145.605C694.715 145.605 693.68 145.89 693.11 146.085V147.555C693.755 147.27 694.64 147 695.705 147C696.935 147 697.595 147.63 697.595 148.53V148.785C697.025 148.665 696.335 148.575 695.72 148.575C694.22 148.575 692.51 149.145 692.51 150.99C692.51 152.475 693.725 153.195 695.03 153.195C696.155 153.195 697.04 152.835 697.745 152.265C698 152.85 698.525 153.105 699.185 153.105C699.545 153.105 699.905 153.045 700.205 152.925V151.77C700.055 151.815 699.89 151.86 699.725 151.86C699.44 151.86 699.2 151.74 699.2 151.335ZM696.035 149.7C696.545 149.7 697.16 149.79 697.595 149.88V151.095C697.025 151.665 696.275 151.95 695.51 151.95C694.79 151.95 694.16 151.59 694.16 150.885C694.16 149.985 695.12 149.7 696.035 149.7ZM706.564 153V147.21H710.164V153H711.769V145.8H704.959V153H706.564ZM713.327 149.4C713.327 151.89 715.217 153.195 717.227 153.195C719.252 153.195 721.127 151.89 721.127 149.4C721.127 146.91 719.252 145.605 717.227 145.605C715.217 145.605 713.327 146.91 713.327 149.4ZM719.492 149.4C719.492 150.81 718.562 151.725 717.227 151.725C715.877 151.725 714.947 150.81 714.947 149.4C714.947 147.99 715.877 147.075 717.227 147.075C718.562 147.075 719.492 147.99 719.492 149.4ZM724.109 146.925V145.8H722.684V156.3H724.289V152.07C724.784 152.64 725.624 153.195 726.884 153.195C729.044 153.195 730.454 151.47 730.454 149.4C730.454 147.33 729.044 145.605 726.884 145.605C725.534 145.605 724.679 146.235 724.109 146.925ZM728.819 149.4C728.819 150.81 727.889 151.785 726.584 151.785C725.474 151.785 724.634 151.065 724.289 150.27V148.515C724.634 147.735 725.474 147.015 726.584 147.015C727.889 147.015 728.819 147.99 728.819 149.4ZM734.976 151.23L732.546 145.8H730.836L734.256 153.06L734.106 153.42C733.686 154.545 733.101 155.1 732.321 155.1C732.081 155.1 731.826 155.07 731.586 154.995V156.36C731.901 156.435 732.216 156.48 732.531 156.48C733.626 156.48 734.646 155.85 735.426 153.975L738.801 145.8H737.121L734.976 151.23ZM750.228 153V145.8H748.623V151.59H745.923V145.8H744.318V151.59H741.603V145.8H739.998V153H750.228ZM751.794 149.4C751.794 151.935 753.669 153.195 755.874 153.195C756.879 153.195 757.794 153.015 758.454 152.7V151.32C757.839 151.62 757.044 151.83 756.174 151.83C754.854 151.83 753.594 151.29 753.414 150H758.829C759.294 147.915 758.304 145.605 755.439 145.605C753.774 145.605 751.794 146.79 751.794 149.4ZM757.389 148.8H753.399C753.459 147.585 754.434 146.94 755.514 146.94C757.089 146.94 757.479 148.17 757.389 148.8ZM762.038 153V150.105H765.638V153H767.243V145.8H765.638V148.695H762.038V145.8H760.433V153H762.038ZM772.821 153C774.636 153 775.671 151.95 775.671 150.6C775.671 149.235 774.636 148.2 772.821 148.2H770.856V145.8H769.251V153H772.821ZM770.856 149.46H772.506C773.451 149.46 774.036 149.85 774.036 150.6C774.036 151.335 773.451 151.725 772.506 151.725H770.856V149.46Z" fill="white"/>
<path d="M149.985 153V144.075H155.385V153H157.095V142.5H148.275V153H149.985ZM158.746 149.4C158.746 151.89 160.636 153.195 162.646 153.195C164.671 153.195 166.546 151.89 166.546 149.4C166.546 146.91 164.671 145.605 162.646 145.605C160.636 145.605 158.746 146.91 158.746 149.4ZM164.911 149.4C164.911 150.81 163.981 151.725 162.646 151.725C161.296 151.725 160.366 150.81 160.366 149.4C160.366 147.99 161.296 147.075 162.646 147.075C163.981 147.075 164.911 147.99 164.911 149.4ZM178.333 153V145.8H176.728V151.59H174.028V145.8H172.423V151.59H169.708V145.8H168.103V153H178.333ZM183.589 151.23L181.159 145.8H179.449L182.869 153.06L182.719 153.42C182.299 154.545 181.714 155.1 180.934 155.1C180.694 155.1 180.439 155.07 180.199 154.995V156.36C180.514 156.435 180.829 156.48 181.144 156.48C182.239 156.48 183.259 155.85 184.039 153.975L187.414 145.8H185.734L183.589 151.23ZM190.215 153V150.015H191.37L193.74 153H195.585L192.69 149.37L195.3 145.8H193.47L191.4 148.65H190.215V145.8H188.61V153H190.215ZM203.528 153V147.21H206.003V145.8H199.433V147.21H201.923V153H203.528ZM206.618 149.4C206.618 151.89 208.508 153.195 210.518 153.195C212.543 153.195 214.418 151.89 214.418 149.4C214.418 146.91 212.543 145.605 210.518 145.605C208.508 145.605 206.618 146.91 206.618 149.4ZM212.783 149.4C212.783 150.81 211.853 151.725 210.518 151.725C209.168 151.725 208.238 150.81 208.238 149.4C208.238 147.99 209.168 147.075 210.518 147.075C211.853 147.075 212.783 147.99 212.783 149.4ZM220.204 153C221.869 153 222.574 152.13 222.574 151.02C222.574 150.135 222.019 149.565 221.344 149.355C221.959 149.085 222.364 148.515 222.364 147.72C222.364 146.595 221.539 145.8 220.084 145.8H215.974V153H220.204ZM217.579 149.94H219.844C220.399 149.94 220.954 150.135 220.954 150.87C220.954 151.56 220.474 151.785 219.814 151.785H217.579V149.94ZM217.579 147.015H219.724C220.219 147.015 220.744 147.225 220.744 147.93C220.744 148.575 220.294 148.8 219.724 148.8H217.579V147.015ZM230.327 151.335V148.755C230.327 146.58 229.037 145.605 226.997 145.605C225.842 145.605 224.807 145.89 224.237 146.085V147.555C224.882 147.27 225.767 147 226.832 147C228.062 147 228.722 147.63 228.722 148.53V148.785C228.152 148.665 227.462 148.575 226.847 148.575C225.347 148.575 223.637 149.145 223.637 150.99C223.637 152.475 224.852 153.195 226.157 153.195C227.282 153.195 228.167 152.835 228.872 152.265C229.127 152.85 229.652 153.105 230.312 153.105C230.672 153.105 231.032 153.045 231.332 152.925V151.77C231.182 151.815 231.017 151.86 230.852 151.86C230.567 151.86 230.327 151.74 230.327 151.335ZM227.162 149.7C227.672 149.7 228.287 149.79 228.722 149.88V151.095C228.152 151.665 227.402 151.95 226.637 151.95C225.917 151.95 225.287 151.59 225.287 150.885C225.287 149.985 226.247 149.7 227.162 149.7ZM233.966 146.925V145.8H232.541V156.3H234.146V152.07C234.641 152.64 235.481 153.195 236.741 153.195C238.901 153.195 240.311 151.47 240.311 149.4C240.311 147.33 238.901 145.605 236.741 145.605C235.391 145.605 234.536 146.235 233.966 146.925ZM238.676 149.4C238.676 150.81 237.746 151.785 236.441 151.785C235.331 151.785 234.491 151.065 234.146 150.27V148.515C234.491 147.735 235.331 147.015 236.441 147.015C237.746 147.015 238.676 147.99 238.676 149.4ZM244.834 151.23L242.404 145.8H240.694L244.114 153.06L243.964 153.42C243.544 154.545 242.959 155.1 242.179 155.1C241.939 155.1 241.684 155.07 241.444 154.995V156.36C241.759 156.435 242.074 156.48 242.389 156.48C243.484 156.48 244.504 155.85 245.284 153.975L248.659 145.8H246.979L244.834 151.23Z" fill="white"/>
<path d="M382.625 150.15C382.625 148.515 381.515 147.72 380.495 147.48C381.485 147.15 382.205 146.34 382.205 145.125C382.205 143.22 380.525 142.305 378.185 142.305C377 142.305 375.905 142.5 374.765 142.98V144.66C375.965 144.09 376.97 143.88 378.05 143.895C379.52 143.895 380.465 144.285 380.465 145.365C380.465 146.31 379.625 146.79 378.35 146.79H376.25V148.35H378.5C379.7 148.35 380.885 148.68 380.885 149.94C380.885 151.275 379.55 151.605 378.26 151.605C377.03 151.62 375.845 151.455 374.585 150.855V152.52C375.86 153 377.06 153.195 378.395 153.195C380.405 153.195 382.625 152.46 382.625 150.15ZM388.405 153C390.07 153 390.775 152.13 390.775 151.02C390.775 150.135 390.22 149.565 389.545 149.355C390.16 149.085 390.565 148.515 390.565 147.72C390.565 146.595 389.74 145.8 388.285 145.8H384.175V153H388.405ZM385.78 149.94H388.045C388.6 149.94 389.155 150.135 389.155 150.87C389.155 151.56 388.675 151.785 388.015 151.785H385.78V149.94ZM385.78 147.015H387.925C388.42 147.015 388.945 147.225 388.945 147.93C388.945 148.575 388.495 148.8 387.925 148.8H385.78V147.015ZM391.943 149.4C391.943 151.935 393.818 153.195 396.023 153.195C397.028 153.195 397.943 153.015 398.603 152.7V151.32C397.988 151.62 397.193 151.83 396.323 151.83C395.003 151.83 393.743 151.29 393.563 150H398.978C399.443 147.915 398.453 145.605 395.588 145.605C393.923 145.605 391.943 146.79 391.943 149.4ZM397.538 148.8H393.548C393.608 147.585 394.583 146.94 395.663 146.94C397.238 146.94 397.628 148.17 397.538 148.8ZM401.363 154.935V153H407.153V154.935H408.668V151.68H407.603V145.8H401.978C402.008 148.305 401.708 150.135 400.838 151.68H399.848V154.935H401.363ZM403.478 147.12H405.983V151.68H402.518C403.118 150.405 403.418 149.055 403.478 147.12ZM409.535 149.4C409.535 151.935 411.41 153.195 413.615 153.195C414.62 153.195 415.535 153.015 416.195 152.7V151.32C415.58 151.62 414.785 151.83 413.915 151.83C412.595 151.83 411.335 151.29 411.155 150H416.57C417.035 147.915 416.045 145.605 413.18 145.605C411.515 145.605 409.535 146.79 409.535 149.4ZM415.13 148.8H411.14C411.2 147.585 412.175 146.94 413.255 146.94C414.83 146.94 415.22 148.17 415.13 148.8ZM419.779 153V150.105H423.379V153H424.984V145.8H423.379V148.695H419.779V145.8H418.174V153H419.779ZM428.597 153V150.105H432.197V153H433.802V145.8H432.197V148.695H428.597V145.8H426.992V153H428.597ZM437.011 153L438.796 150.645H440.431V153H442.036V145.8H438.316C436.516 145.8 435.541 146.925 435.541 148.23C435.541 149.22 436.096 150.105 437.146 150.465L435.166 153H437.011ZM437.176 148.245C437.176 147.54 437.701 147.135 438.586 147.135H440.431V149.355H438.586C437.701 149.355 437.176 148.95 437.176 148.245ZM458.883 154.935V151.62H457.818V145.8H456.213V151.59H453.513V145.8H451.908V151.59H449.193V145.8H447.588V153H457.368V154.935H458.883ZM459.765 149.4C459.765 151.89 461.655 153.195 463.665 153.195C465.69 153.195 467.565 151.89 467.565 149.4C467.565 146.91 465.69 145.605 463.665 145.605C461.655 145.605 459.765 146.91 459.765 149.4ZM465.93 149.4C465.93 150.81 465 151.725 463.665 151.725C462.315 151.725 461.385 150.81 461.385 149.4C461.385 147.99 462.315 147.075 463.665 147.075C465 147.075 465.93 147.99 465.93 149.4ZM469.815 154.935V153H475.605V154.935H477.12V151.68H476.055V145.8H470.43C470.46 148.305 470.16 150.135 469.29 151.68H468.3V154.935H469.815ZM471.93 147.12H474.435V151.68H470.97C471.57 150.405 471.87 149.055 471.93 147.12ZM477.988 149.4C477.988 151.89 479.878 153.195 481.888 153.195C483.913 153.195 485.788 151.89 485.788 149.4C485.788 146.91 483.913 145.605 481.888 145.605C479.878 145.605 477.988 146.91 477.988 149.4ZM484.153 149.4C484.153 150.81 483.223 151.725 481.888 151.725C480.538 151.725 479.608 150.81 479.608 149.4C479.608 147.99 480.538 147.075 481.888 147.075C483.223 147.075 484.153 147.99 484.153 149.4ZM492.494 153V147.21H496.094V153H497.699V145.8H490.889V153H492.494ZM499.257 149.4C499.257 151.89 501.147 153.195 503.157 153.195C505.182 153.195 507.057 151.89 507.057 149.4C507.057 146.91 505.182 145.605 503.157 145.605C501.147 145.605 499.257 146.91 499.257 149.4ZM505.422 149.4C505.422 150.81 504.492 151.725 503.157 151.725C501.807 151.725 500.877 150.81 500.877 149.4C500.877 147.99 501.807 147.075 503.157 147.075C504.492 147.075 505.422 147.99 505.422 149.4ZM510.038 146.925V145.8H508.613V156.3H510.218V152.07C510.713 152.64 511.553 153.195 512.813 153.195C514.973 153.195 516.383 151.47 516.383 149.4C516.383 147.33 514.973 145.605 512.813 145.605C511.463 145.605 510.608 146.235 510.038 146.925ZM514.748 149.4C514.748 150.81 513.818 151.785 512.513 151.785C511.403 151.785 510.563 151.065 510.218 150.27V148.515C510.563 147.735 511.403 147.015 512.513 147.015C513.818 147.015 514.748 147.99 514.748 149.4ZM520.906 151.23L518.476 145.8H516.766L520.186 153.06L520.036 153.42C519.616 154.545 519.031 155.1 518.251 155.1C518.011 155.1 517.756 155.07 517.516 154.995V156.36C517.831 156.435 518.146 156.48 518.461 156.48C519.556 156.48 520.576 155.85 521.356 153.975L524.731 145.8H523.051L520.906 151.23ZM536.158 153V145.8H534.553V151.59H531.853V145.8H530.248V151.59H527.533V145.8H525.928V153H536.158ZM537.724 149.4C537.724 151.935 539.599 153.195 541.804 153.195C542.809 153.195 543.724 153.015 544.384 152.7V151.32C543.769 151.62 542.974 151.83 542.104 151.83C540.784 151.83 539.524 151.29 539.344 150H544.759C545.224 147.915 544.234 145.605 541.369 145.605C539.704 145.605 537.724 146.79 537.724 149.4ZM543.319 148.8H539.329C539.389 147.585 540.364 146.94 541.444 146.94C543.019 146.94 543.409 148.17 543.319 148.8ZM547.967 153V150.105H551.567V153H553.172V145.8H551.567V148.695H547.967V145.8H546.362V153H547.967ZM558.751 153C560.566 153 561.601 151.95 561.601 150.6C561.601 149.235 560.566 148.2 558.751 148.2H556.786V145.8H555.181V153H558.751ZM556.786 149.46H558.436C559.381 149.46 559.966 149.85 559.966 150.6C559.966 151.335 559.381 151.725 558.436 151.725H556.786V149.46Z" fill="white"/>
<path d="M376.905 373L377.835 370.735H383.1L384.03 373H385.83L381.405 362.5H379.53L375.09 373H376.905ZM380.265 364.75C380.325 364.585 380.385 364.42 380.46 364.165C380.535 364.42 380.595 364.585 380.655 364.75L382.5 369.235H378.42L380.265 364.75ZM388.523 373V370.105H392.123V373H393.728V365.8H392.123V368.695H388.523V365.8H386.918V373H388.523ZM401.871 371.335V368.755C401.871 366.58 400.581 365.605 398.541 365.605C397.386 365.605 396.351 365.89 395.781 366.085V367.555C396.426 367.27 397.311 367 398.376 367C399.606 367 400.266 367.63 400.266 368.53V368.785C399.696 368.665 399.006 368.575 398.391 368.575C396.891 368.575 395.181 369.145 395.181 370.99C395.181 372.475 396.396 373.195 397.701 373.195C398.826 373.195 399.711 372.835 400.416 372.265C400.671 372.85 401.196 373.105 401.856 373.105C402.216 373.105 402.576 373.045 402.876 372.925V371.77C402.726 371.815 402.561 371.86 402.396 371.86C402.111 371.86 401.871 371.74 401.871 371.335ZM398.706 369.7C399.216 369.7 399.831 369.79 400.266 369.88V371.095C399.696 371.665 398.946 371.95 398.181 371.95C397.461 371.95 396.831 371.59 396.831 370.885C396.831 369.985 397.791 369.7 398.706 369.7ZM406.951 367.165H409.381V373H410.986V365.8H405.436C405.301 369.37 404.971 371.77 403.756 371.77C403.606 371.77 403.456 371.74 403.291 371.68V372.94C403.651 373.075 403.981 373.135 404.281 373.135C406.201 373.135 406.741 370.645 406.951 367.165ZM414.582 364.96V373H413.262V364.96H414.582ZM413.937 361.945C414.137 361.945 414.312 362.015 414.462 362.155C414.622 362.285 414.702 362.495 414.702 362.785C414.702 363.065 414.622 363.275 414.462 363.415C414.312 363.555 414.137 363.625 413.937 363.625C413.717 363.625 413.532 363.555 413.382 363.415C413.232 363.275 413.157 363.065 413.157 362.785C413.157 362.495 413.232 362.285 413.382 362.155C413.532 362.015 413.717 361.945 413.937 361.945ZM422.499 371.035C422.499 370.135 421.899 369.535 421.074 369.31C421.824 369.115 422.349 368.56 422.349 367.705C422.349 366.535 421.419 365.59 419.199 365.59C418.209 365.59 417.249 365.83 416.559 366.16V367.54C417.174 367.21 418.164 366.955 419.004 366.955C420.039 366.955 420.729 367.27 420.729 367.915C420.729 368.515 420.144 368.725 419.379 368.725H417.909V369.955H419.379C420.099 369.955 420.879 370.075 420.879 370.84C420.879 371.635 419.979 371.83 418.914 371.83C418.044 371.83 417.009 371.56 416.424 371.23V372.61C417.084 372.955 418.044 373.195 419.124 373.195C421.344 373.195 422.499 372.295 422.499 371.035ZM429.26 373V370.105H432.86V373H434.465V365.8H432.86V368.695H429.26V365.8H427.655V373H429.26ZM436.024 369.4C436.024 371.89 437.914 373.195 439.924 373.195C441.949 373.195 443.824 371.89 443.824 369.4C443.824 366.91 441.949 365.605 439.924 365.605C437.914 365.605 436.024 366.91 436.024 369.4ZM442.189 369.4C442.189 370.81 441.259 371.725 439.924 371.725C438.574 371.725 437.644 370.81 437.644 369.4C437.644 367.99 438.574 367.075 439.924 367.075C441.259 367.075 442.189 367.99 442.189 369.4ZM449.61 373C451.275 373 451.98 372.13 451.98 371.02C451.98 370.135 451.425 369.565 450.75 369.355C451.365 369.085 451.77 368.515 451.77 367.72C451.77 366.595 450.945 365.8 449.49 365.8H445.38V373H449.61ZM446.985 369.94H449.25C449.805 369.94 450.36 370.135 450.36 370.87C450.36 371.56 449.88 371.785 449.22 371.785H446.985V369.94ZM446.985 367.015H449.13C449.625 367.015 450.15 367.225 450.15 367.93C450.15 368.575 449.7 368.8 449.13 368.8H446.985V367.015ZM454.978 373L458.833 368.29V373H460.438V365.8H459.058L455.203 370.51V365.8H453.598V373H454.978ZM464.05 373V370.105H467.65V373H469.255V365.8H467.65V368.695H464.05V365.8H462.445V373H464.05ZM470.814 369.4C470.814 371.89 472.704 373.195 474.714 373.195C476.739 373.195 478.614 371.89 478.614 369.4C478.614 366.91 476.739 365.605 474.714 365.605C472.704 365.605 470.814 366.91 470.814 369.4ZM476.979 369.4C476.979 370.81 476.049 371.725 474.714 371.725C473.364 371.725 472.434 370.81 472.434 369.4C472.434 367.99 473.364 367.075 474.714 367.075C476.049 367.075 476.979 367.99 476.979 369.4ZM481.775 373V370.015H482.93L485.3 373H487.145L484.25 369.37L486.86 365.8H485.03L482.96 368.65H481.775V365.8H480.17V373H481.775Z" fill="white"/>
<defs>
<filter id="filter0_i_1729_153" x="50" y="46" width="968" height="517" filterUnits="userSpaceOnUse" color-interpolation-filters="sRGB">
<feFlood flood-opacity="0" result="BackgroundImageFix"/>
<feBlend mode="normal" in="SourceGraphic" in2="BackgroundImageFix" result="shape"/>
<feColorMatrix in="SourceAlpha" type="matrix" values="0 0 0 0 0 0 0 0 0 0 0 0 0 0 0 0 0 0 127 0" result="hardAlpha"/>
<feOffset dy="4"/>
<feGaussianBlur stdDeviation="25"/>
<feComposite in2="hardAlpha" operator="arithmetic" k2="-1" k3="1"/>
<feColorMatrix type="matrix" values="0 0 0 0 0 0 0 0 0 0 0 0 0 0 0 0 0 0 0.1 0"/>
<feBlend mode="normal" in2="shape" result="effect1_innerShadow_1729_153"/>
</filter>
<filter id="filter1_i_1729_153" x="50" y="101" width="65" height="458" filterUnits="userSpaceOnUse" color-interpolation-filters="sRGB">
<feFlood flood-opacity="0" result="BackgroundImageFix"/>
<feBlend mode="normal" in="SourceGraphic" in2="BackgroundImageFix" result="shape"/>
<feColorMatrix in="SourceAlpha" type="matrix" values="0 0 0 0 0 0 0 0 0 0 0 0 0 0 0 0 0 0 127 0" result="hardAlpha"/>
<feOffset dx="10"/>
<feGaussianBlur stdDeviation="15"/>
<feComposite in2="hardAlpha" operator="arithmetic" k2="-1" k3="1"/>
<feColorMatrix type="matrix" values="0 0 0 0 0 0 0 0 0 0 0 0 0 0 0 0 0 0 0.1 0"/>
<feBlend mode="normal" in2="shape" result="effect1_innerShadow_1729_153"/>
</filter>
<filter id="filter2_i_1729_153" x="105" y="46" width="923" height="55" filterUnits="userSpaceOnUse" color-interpolation-filters="sRGB">
<feFlood flood-opacity="0" result="BackgroundImageFix"/>
<feBlend mode="normal" in="SourceGraphic" in2="BackgroundImageFix" result="shape"/>
<feColorMatrix in="SourceAlpha" type="matrix" values="0 0 0 0 0 0 0 0 0 0 0 0 0 0 0 0 0 0 127 0" result="hardAlpha"/>
<feOffset dx="10"/>
<feGaussianBlur stdDeviation="15"/>
<feComposite in2="hardAlpha" operator="arithmetic" k2="-1" k3="1"/>
<feColorMatrix type="matrix" values="0 0 0 0 0 0 0 0 0 0 0 0 0 0 0 0 0 0 0.1 0"/>
<feBlend mode="normal" in2="shape" result="effect1_innerShadow_1729_153"/>
</filter>
</defs>
</svg>
