<svg viewBox="0 0 1068 610" fill="none" xmlns="http://www.w3.org/2000/svg">
<path d="M50 60.7015C50 52.4577 56.7157 45.7749 65 45.7749H1003C1011.28 45.7749 1018 52.4577 1018 60.7015V541.338C1018 549.581 1011.28 556.264 1003 556.264H65C56.7158 556.264 50 549.581 50 541.338V60.7015Z" fill="white"/>
<path opacity="0.6" d="M867 242.806C867 271.934 843.271 295.547 814 295.547C784.729 295.547 761 271.934 761 242.806C761 213.678 784.729 190.065 814 190.065C843.271 190.065 867 213.678 867 242.806Z" fill="#FFE264"/>
<path d="M867 242.806C867 255.259 862.572 267.31 854.5 276.827C846.427 286.342 835.232 292.708 822.895 294.798C810.558 296.889 797.876 294.567 787.095 288.245C776.313 281.924 768.127 272.009 763.986 260.258C759.845 248.507 760.016 235.676 764.469 224.038C768.922 212.4 777.37 202.706 788.317 196.672C799.264 190.638 812.003 188.651 824.28 191.067C836.556 193.483 847.578 200.143 855.393 209.868L814 242.806H867Z" fill="#F28100"/>
<path d="M867 242.806C867 254.203 863.29 265.293 856.425 274.416C849.561 283.539 839.911 290.205 828.921 293.413C817.931 296.622 806.192 296.201 795.463 292.215C784.733 288.229 775.589 280.891 769.401 271.301C763.214 261.71 760.314 250.384 761.137 239.015C761.96 227.648 766.462 216.851 773.967 208.243C781.473 199.634 791.579 193.676 802.772 191.262C813.966 188.848 825.644 190.107 836.058 194.85L814 242.806H867Z" fill="#0FA7F0"/>
<path fill-rule="evenodd" clip-rule="evenodd" d="M983 131.354H645C642.791 131.354 641 133.136 641 135.334V315.449C641 317.647 642.791 319.429 645 319.429H983C985.209 319.429 987 317.647 987 315.449V135.334C987 133.136 985.209 131.354 983 131.354ZM645 130.359C642.239 130.359 640 132.587 640 135.334V315.449C640 318.196 642.239 320.424 645 320.424H983C985.761 320.424 988 318.196 988 315.449V135.334C988 132.587 985.761 130.359 983 130.359H645Z" fill="#E6E6E6"/>
<path d="M640 135.334C640 132.587 642.239 130.359 645 130.359H983C985.761 130.359 988 132.587 988 135.334V165.188H640V135.334Z" fill="#0FA7F0"/>
<path fill-rule="evenodd" clip-rule="evenodd" d="M324 131.354H140C137.791 131.354 136 133.136 136 135.334V520.44C136 522.639 137.791 524.421 140 524.421H324C326.209 524.421 328 522.639 328 520.44V135.334C328 133.136 326.209 131.354 324 131.354ZM140 130.359C137.239 130.359 135 132.587 135 135.334V520.44C135 523.188 137.239 525.416 140 525.416H324C326.761 525.416 329 523.188 329 520.44V135.334C329 132.587 326.761 130.359 324 130.359H140Z" fill="#E6E6E6"/>
<path d="M135 135.334C135 132.587 137.239 130.359 140 130.359H324C326.761 130.359 329 132.587 329 135.334V165.188H135V135.334Z" fill="#0FA7F0"/>
<path fill-rule="evenodd" clip-rule="evenodd" d="M308 199.021H156V198.026H308V199.021Z" fill="#E6E6E6"/>
<path fill-rule="evenodd" clip-rule="evenodd" d="M308 218.923H156V217.928H308V218.923Z" fill="#E6E6E6"/>
<path d="M156 206.982C156 205.882 156.895 204.992 158 204.992H306C307.105 204.992 308 205.882 308 206.982V209.967C308 211.067 307.105 211.957 306 211.957H158C156.895 211.957 156 211.067 156 209.967V206.982Z" fill="#E6E6E6"/>
<path fill-rule="evenodd" clip-rule="evenodd" d="M308 238.826H156V237.831H308V238.826Z" fill="#E6E6E6"/>
<path d="M156 226.884C156 225.785 156.895 224.894 158 224.894H306C307.105 224.894 308 225.785 308 226.884V229.87C308 230.969 307.105 231.86 306 231.86H158C156.895 231.86 156 230.969 156 229.87V226.884Z" fill="#E6E6E6"/>
<path fill-rule="evenodd" clip-rule="evenodd" d="M308 258.728H156V257.732H308V258.728Z" fill="#E6E6E6"/>
<path d="M156 246.786C156 245.687 156.895 244.796 158 244.796H306C307.105 244.796 308 245.687 308 246.786V249.771C308 250.871 307.105 251.762 306 251.762H158C156.895 251.762 156 250.871 156 249.771V246.786Z" fill="#E6E6E6"/>
<path fill-rule="evenodd" clip-rule="evenodd" d="M308 278.63H156V277.635H308V278.63Z" fill="#E6E6E6"/>
<path d="M156 266.688C156 265.589 156.895 264.698 158 264.698H306C307.105 264.698 308 265.589 308 266.688V269.674C308 270.773 307.105 271.664 306 271.664H158C156.895 271.664 156 270.773 156 269.674V266.688Z" fill="#E6E6E6"/>
<path fill-rule="evenodd" clip-rule="evenodd" d="M308 298.532H156V297.537H308V298.532Z" fill="#E6E6E6"/>
<path d="M156 286.59C156 285.491 156.895 284.6 158 284.6H306C307.105 284.6 308 285.491 308 286.59V289.576C308 290.675 307.105 291.566 306 291.566H158C156.895 291.566 156 290.675 156 289.576V286.59Z" fill="#E6E6E6"/>
<path fill-rule="evenodd" clip-rule="evenodd" d="M308 318.434H156V317.439H308V318.434Z" fill="#E6E6E6"/>
<path d="M156 306.493C156 305.393 156.895 304.502 158 304.502H306C307.105 304.502 308 305.393 308 306.493V309.478C308 310.578 307.105 311.468 306 311.468H158C156.895 311.468 156 310.578 156 309.478V306.493Z" fill="#E6E6E6"/>
<path fill-rule="evenodd" clip-rule="evenodd" d="M308 338.336H156V337.341H308V338.336Z" fill="#E6E6E6"/>
<path d="M156 326.395C156 325.295 156.895 324.405 158 324.405H306C307.105 324.405 308 325.295 308 326.395V329.38C308 330.48 307.105 331.371 306 331.371H158C156.895 331.371 156 330.48 156 329.38V326.395Z" fill="#E6E6E6"/>
<path fill-rule="evenodd" clip-rule="evenodd" d="M308 358.238H156V357.243H308V358.238Z" fill="#E6E6E6"/>
<path d="M156 346.297C156 345.197 156.895 344.307 158 344.307H306C307.105 344.307 308 345.197 308 346.297V349.282C308 350.382 307.105 351.272 306 351.272H158C156.895 351.272 156 350.382 156 349.282V346.297Z" fill="#E6E6E6"/>
<path fill-rule="evenodd" clip-rule="evenodd" d="M308 378.14H156V377.145H308V378.14Z" fill="#E6E6E6"/>
<path d="M156 366.199C156 365.1 156.895 364.209 158 364.209H306C307.105 364.209 308 365.1 308 366.199V369.185C308 370.284 307.105 371.175 306 371.175H158C156.895 371.175 156 370.284 156 369.185V366.199Z" fill="#E6E6E6"/>
<path fill-rule="evenodd" clip-rule="evenodd" d="M308 398.042H156V397.047H308V398.042Z" fill="#E6E6E6"/>
<path d="M156 386.101C156 385.001 156.895 384.111 158 384.111H306C307.105 384.111 308 385.001 308 386.101V389.086C308 390.186 307.105 391.077 306 391.077H158C156.895 391.077 156 390.186 156 389.086V386.101Z" fill="#E6E6E6"/>
<path fill-rule="evenodd" clip-rule="evenodd" d="M308 417.944H156V416.949H308V417.944Z" fill="#E6E6E6"/>
<path d="M156 406.003C156 404.904 156.895 404.013 158 404.013H306C307.105 404.013 308 404.904 308 406.003V408.989C308 410.088 307.105 410.979 306 410.979H158C156.895 410.979 156 410.088 156 408.989V406.003Z" fill="#E6E6E6"/>
<path fill-rule="evenodd" clip-rule="evenodd" d="M308 437.847H156V436.852H308V437.847Z" fill="#E6E6E6"/>
<path d="M156 425.905C156 424.806 156.895 423.915 158 423.915H306C307.105 423.915 308 424.806 308 425.905V428.891C308 429.99 307.105 430.881 306 430.881H158C156.895 430.881 156 429.99 156 428.891V425.905Z" fill="#E6E6E6"/>
<path fill-rule="evenodd" clip-rule="evenodd" d="M308 457.749H156V456.754H308V457.749Z" fill="#E6E6E6"/>
<path d="M156 445.808C156 444.708 156.895 443.817 158 443.817H306C307.105 443.817 308 444.708 308 445.808V448.793C308 449.893 307.105 450.783 306 450.783H158C156.895 450.783 156 449.893 156 448.793V445.808Z" fill="#E6E6E6"/>
<path fill-rule="evenodd" clip-rule="evenodd" d="M308 477.651H156V476.656H308V477.651Z" fill="#E6E6E6"/>
<path d="M156 465.709C156 464.61 156.895 463.719 158 463.719H306C307.105 463.719 308 464.61 308 465.709V468.695C308 469.794 307.105 470.685 306 470.685H158C156.895 470.685 156 469.794 156 468.695V465.709Z" fill="#E6E6E6"/>
<path fill-rule="evenodd" clip-rule="evenodd" d="M308 497.553H156V496.558H308V497.553Z" fill="#E6E6E6"/>
<path d="M156 485.612C156 484.512 156.895 483.622 158 483.622H306C307.105 483.622 308 484.512 308 485.612V488.597C308 489.697 307.105 490.587 306 490.587H158C156.895 490.587 156 489.697 156 488.597V485.612Z" fill="#E6E6E6"/>
<path d="M156 187.08C156 185.98 156.895 185.09 158 185.09H258C259.105 185.09 260 185.98 260 187.08V190.065C260 191.165 259.105 192.056 258 192.056H158C156.895 192.056 156 191.165 156 190.065V187.08Z" fill="#B3B3B3"/>
<path fill-rule="evenodd" clip-rule="evenodd" d="M604 131.354H364C361.791 131.354 360 133.136 360 135.334V315.449C360 317.647 361.791 319.429 364 319.429H604C606.209 319.429 608 317.647 608 315.449V135.334C608 133.136 606.209 131.354 604 131.354ZM364 130.359C361.239 130.359 359 132.587 359 135.334V315.449C359 318.196 361.239 320.424 364 320.424H604C606.761 320.424 609 318.196 609 315.449V135.334C609 132.587 606.761 130.359 604 130.359H364Z" fill="#E6E6E6"/>
<path d="M359 135.334C359 132.587 361.239 130.359 364 130.359H604C606.761 130.359 609 132.587 609 135.334V165.188H359V135.334Z" fill="#0FA7F0"/>
<path d="M380 188.075C380 186.426 381.343 185.09 383 185.09H585C586.657 185.09 588 186.426 588 188.075V197.031C588 198.68 586.657 200.016 585 200.016H383C381.343 200.016 380 198.68 380 197.031V188.075Z" fill="#E6E6E6"/>
<path d="M385 191.061C385 189.961 385.895 189.07 387 189.07H428C429.105 189.07 430 189.961 430 191.061V194.046C430 195.145 429.105 196.036 428 196.036H387C385.895 196.036 385 195.145 385 194.046V191.061Z" fill="#B3B3B3"/>
<path d="M436 191.061C436 189.961 436.895 189.07 438 189.07H479C480.105 189.07 481 189.961 481 191.061V194.046C481 195.145 480.105 196.036 479 196.036H438C436.895 196.036 436 195.145 436 194.046V191.061Z" fill="#B3B3B3"/>
<path d="M487 191.061C487 189.961 487.895 189.07 489 189.07H530C531.105 189.07 532 189.961 532 191.061V194.046C532 195.145 531.105 196.036 530 196.036H489C487.895 196.036 487 195.145 487 194.046V191.061Z" fill="#B3B3B3"/>
<path d="M538 191.061C538 189.961 538.895 189.07 540 189.07H581C582.105 189.07 583 189.961 583 191.061V194.046C583 195.145 582.105 196.036 581 196.036H540C538.895 196.036 538 195.145 538 194.046V191.061Z" fill="#B3B3B3"/>
<path fill-rule="evenodd" clip-rule="evenodd" d="M588 217.928H380V216.933H588V217.928Z" fill="#E1E1E9"/>
<path d="M385 206.982C385 205.882 385.895 204.992 387 204.992H428C429.105 204.992 430 205.882 430 206.982V209.967C430 211.067 429.105 211.957 428 211.957H387C385.895 211.957 385 211.067 385 209.967V206.982Z" fill="#B3B3B3"/>
<path d="M436 206.982C436 205.882 436.895 204.992 438 204.992H479C480.105 204.992 481 205.882 481 206.982V209.967C481 211.067 480.105 211.957 479 211.957H438C436.895 211.957 436 211.067 436 209.967V206.982Z" fill="#E6E6E6"/>
<path d="M487 206.982C487 205.882 487.895 204.992 489 204.992H530C531.105 204.992 532 205.882 532 206.982V209.967C532 211.067 531.105 211.957 530 211.957H489C487.895 211.957 487 211.067 487 209.967V206.982Z" fill="#E6E6E6"/>
<path d="M538 206.982C538 205.882 538.895 204.992 540 204.992H581C582.105 204.992 583 205.882 583 206.982V209.967C583 211.067 582.105 211.957 581 211.957H540C538.895 211.957 538 211.067 538 209.967V206.982Z" fill="#E6E6E6"/>
<path fill-rule="evenodd" clip-rule="evenodd" d="M588 235.84H380V234.845H588V235.84Z" fill="#E1E1E9"/>
<path d="M385 224.894C385 223.794 385.895 222.904 387 222.904H428C429.105 222.904 430 223.794 430 224.894V227.879C430 228.979 429.105 229.87 428 229.87H387C385.895 229.87 385 228.979 385 227.879V224.894Z" fill="#B3B3B3"/>
<path d="M436 224.894C436 223.794 436.895 222.904 438 222.904H479C480.105 222.904 481 223.794 481 224.894V227.879C481 228.979 480.105 229.87 479 229.87H438C436.895 229.87 436 228.979 436 227.879V224.894Z" fill="#E6E6E6"/>
<path d="M487 224.894C487 223.794 487.895 222.904 489 222.904H530C531.105 222.904 532 223.794 532 224.894V227.879C532 228.979 531.105 229.87 530 229.87H489C487.895 229.87 487 228.979 487 227.879V224.894Z" fill="#E6E6E6"/>
<path d="M538 224.894C538 223.794 538.895 222.904 540 222.904H581C582.105 222.904 583 223.794 583 224.894V227.879C583 228.979 582.105 229.87 581 229.87H540C538.895 229.87 538 228.979 538 227.879V224.894Z" fill="#E6E6E6"/>
<path fill-rule="evenodd" clip-rule="evenodd" d="M588 253.752H380V252.757H588V253.752Z" fill="#E1E1E9"/>
<path d="M385 242.806C385 241.706 385.895 240.815 387 240.815H428C429.105 240.815 430 241.706 430 242.806V245.791C430 246.891 429.105 247.781 428 247.781H387C385.895 247.781 385 246.891 385 245.791V242.806Z" fill="#B3B3B3"/>
<path d="M436 242.806C436 241.706 436.895 240.815 438 240.815H479C480.105 240.815 481 241.706 481 242.806V245.791C481 246.891 480.105 247.781 479 247.781H438C436.895 247.781 436 246.891 436 245.791V242.806Z" fill="#E6E6E6"/>
<path d="M487 242.806C487 241.706 487.895 240.815 489 240.815H530C531.105 240.815 532 241.706 532 242.806V245.791C532 246.891 531.105 247.781 530 247.781H489C487.895 247.781 487 246.891 487 245.791V242.806Z" fill="#E6E6E6"/>
<path d="M538 242.806C538 241.706 538.895 240.815 540 240.815H581C582.105 240.815 583 241.706 583 242.806V245.791C583 246.891 582.105 247.781 581 247.781H540C538.895 247.781 538 246.891 538 245.791V242.806Z" fill="#E6E6E6"/>
<path fill-rule="evenodd" clip-rule="evenodd" d="M588 271.664H380V270.669H588V271.664Z" fill="#E1E1E9"/>
<path d="M385 260.718C385 259.618 385.895 258.728 387 258.728H428C429.105 258.728 430 259.618 430 260.718V263.703C430 264.803 429.105 265.693 428 265.693H387C385.895 265.693 385 264.803 385 263.703V260.718Z" fill="#B3B3B3"/>
<path d="M436 260.718C436 259.618 436.895 258.728 438 258.728H479C480.105 258.728 481 259.618 481 260.718V263.703C481 264.803 480.105 265.693 479 265.693H438C436.895 265.693 436 264.803 436 263.703V260.718Z" fill="#E6E6E6"/>
<path d="M487 260.718C487 259.618 487.895 258.728 489 258.728H530C531.105 258.728 532 259.618 532 260.718V263.703C532 264.803 531.105 265.693 530 265.693H489C487.895 265.693 487 264.803 487 263.703V260.718Z" fill="#E6E6E6"/>
<path d="M538 260.718C538 259.618 538.895 258.728 540 258.728H581C582.105 258.728 583 259.618 583 260.718V263.703C583 264.803 582.105 265.693 581 265.693H540C538.895 265.693 538 264.803 538 263.703V260.718Z" fill="#E6E6E6"/>
<path fill-rule="evenodd" clip-rule="evenodd" d="M588 289.576H380V288.581H588V289.576Z" fill="#E1E1E9"/>
<path d="M385 278.63C385 277.53 385.895 276.64 387 276.64H428C429.105 276.64 430 277.53 430 278.63V281.615C430 282.715 429.105 283.605 428 283.605H387C385.895 283.605 385 282.715 385 281.615V278.63Z" fill="#B3B3B3"/>
<path d="M436 278.63C436 277.53 436.895 276.64 438 276.64H479C480.105 276.64 481 277.53 481 278.63V281.615C481 282.715 480.105 283.605 479 283.605H438C436.895 283.605 436 282.715 436 281.615V278.63Z" fill="#E6E6E6"/>
<path d="M487 278.63C487 277.53 487.895 276.64 489 276.64H530C531.105 276.64 532 277.53 532 278.63V281.615C532 282.715 531.105 283.605 530 283.605H489C487.895 283.605 487 282.715 487 281.615V278.63Z" fill="#E6E6E6"/>
<path d="M538 278.63C538 277.53 538.895 276.64 540 276.64H581C582.105 276.64 583 277.53 583 278.63V281.615C583 282.715 582.105 283.605 581 283.605H540C538.895 283.605 538 282.715 538 281.615V278.63Z" fill="#E6E6E6"/>
<path d="M385 296.541C385 295.442 385.895 294.551 387 294.551H428C429.105 294.551 430 295.442 430 296.541V299.527C430 300.626 429.105 301.517 428 301.517H387C385.895 301.517 385 300.626 385 299.527V296.541Z" fill="#B3B3B3"/>
<path d="M436 296.541C436 295.442 436.895 294.551 438 294.551H479C480.105 294.551 481 295.442 481 296.541V299.527C481 300.626 480.105 301.517 479 301.517H438C436.895 301.517 436 300.626 436 299.527V296.541Z" fill="#E6E6E6"/>
<path d="M487 296.541C487 295.442 487.895 294.551 489 294.551H530C531.105 294.551 532 295.442 532 296.541V299.527C532 300.626 531.105 301.517 530 301.517H489C487.895 301.517 487 300.626 487 299.527V296.541Z" fill="#E6E6E6"/>
<path d="M538 296.541C538 295.442 538.895 294.551 540 294.551H581C582.105 294.551 583 295.442 583 296.541V299.527C583 300.626 582.105 301.517 581 301.517H540C538.895 301.517 538 300.626 538 299.527V296.541Z" fill="#E6E6E6"/>
<path fill-rule="evenodd" clip-rule="evenodd" d="M983 381.125H364C361.791 381.125 360 382.908 360 385.106V520.44C360 522.639 361.791 524.421 364 524.421H983C985.209 524.421 987 522.639 987 520.44V385.106C987 382.908 985.209 381.125 983 381.125ZM364 380.13C361.239 380.13 359 382.358 359 385.106V520.44C359 523.188 361.239 525.416 364 525.416H983C985.761 525.416 988 523.188 988 520.44V385.106C988 382.358 985.761 380.13 983 380.13H364Z" fill="#E6E6E6"/>
<path d="M359 355.253C359 352.505 361.239 350.277 364 350.277H983C985.761 350.277 988 352.505 988 355.253V385.106H359V355.253Z" fill="#0FA7F0"/>
<path d="M379 469.69C379 468.59 379.895 467.7 381 467.7H390C391.105 467.7 392 468.59 392 469.69V502.528C392 503.628 391.105 504.519 390 504.519H381C379.895 504.519 379 503.628 379 502.528V469.69Z" fill="#0FA7F0"/>
<path d="M563 469.69C563 468.59 563.895 467.7 565 467.7H574C575.105 467.7 576 468.59 576 469.69V502.528C576 503.628 575.105 504.519 574 504.519H565C563.895 504.519 563 503.628 563 502.528V469.69Z" fill="#0FA7F0"/>
<path d="M402 469.69C402 468.59 402.895 467.7 404 467.7H413C414.105 467.7 415 468.59 415 469.69V502.528C415 503.628 414.105 504.519 413 504.519H404C402.895 504.519 402 503.628 402 502.528V469.69Z" fill="#0FA7F0"/>
<path d="M586 469.69C586 468.59 586.895 467.7 588 467.7H597C598.105 467.7 599 468.59 599 469.69V502.528C599 503.628 598.105 504.519 597 504.519H588C586.895 504.519 586 503.628 586 502.528V469.69Z" fill="#0FA7F0"/>
<path d="M517 469.69C517 468.59 517.895 467.7 519 467.7H528C529.105 467.7 530 468.59 530 469.69V502.528C530 503.628 529.105 504.519 528 504.519H519C517.895 504.519 517 503.628 517 502.528V469.69Z" fill="#0FA7F0"/>
<path d="M701 469.69C701 468.59 701.895 467.7 703 467.7H712C713.105 467.7 714 468.59 714 469.69V502.528C714 503.628 713.105 504.519 712 504.519H703C701.895 504.519 701 503.628 701 502.528V469.69Z" fill="#0FA7F0"/>
<path d="M540 487.602C540 486.502 540.895 485.612 542 485.612H551C552.105 485.612 553 486.502 553 487.602V502.529C553 503.628 552.105 504.519 551 504.519H542C540.895 504.519 540 503.628 540 502.529V487.602Z" fill="#0FA7F0"/>
<path d="M724 487.602C724 486.502 724.895 485.612 726 485.612H735C736.105 485.612 737 486.502 737 487.602V502.529C737 503.628 736.105 504.519 735 504.519H726C724.895 504.519 724 503.628 724 502.529V487.602Z" fill="#0FA7F0"/>
<path d="M908 487.602C908 486.502 908.895 485.612 910 485.612H919C920.105 485.612 921 486.502 921 487.602V502.529C921 503.628 920.105 504.519 919 504.519H910C908.895 504.519 908 503.628 908 502.529V487.602Z" fill="#0FA7F0"/>
<path d="M931 487.602C931 486.502 931.895 485.612 933 485.612H942C943.105 485.612 944 486.502 944 487.602V502.529C944 503.628 943.105 504.519 942 504.519H933C931.895 504.519 931 503.628 931 502.529V487.602Z" fill="#0FA7F0"/>
<path d="M425 458.744C425 457.645 425.895 456.754 427 456.754H436C437.105 456.754 438 457.645 438 458.744V502.529C438 503.628 437.105 504.519 436 504.519H427C425.895 504.519 425 503.628 425 502.529V458.744Z" fill="#0FA7F0"/>
<path d="M609 458.744C609 457.645 609.895 456.754 611 456.754H620C621.105 456.754 622 457.645 622 458.744V502.529C622 503.628 621.105 504.519 620 504.519H611C609.895 504.519 609 503.628 609 502.529V458.744Z" fill="#0FA7F0"/>
<path d="M747 458.744C747 457.645 747.895 456.754 749 456.754H758C759.105 456.754 760 457.645 760 458.744V502.529C760 503.628 759.105 504.519 758 504.519H749C747.895 504.519 747 503.628 747 502.529V458.744Z" fill="#0FA7F0"/>
<path d="M494 458.744C494 457.645 494.895 456.754 496 456.754H505C506.105 456.754 507 457.645 507 458.744V502.529C507 503.628 506.105 504.519 505 504.519H496C494.895 504.519 494 503.628 494 502.529V458.744Z" fill="#0FA7F0"/>
<path d="M678 458.744C678 457.645 678.895 456.754 680 456.754H689C690.105 456.754 691 457.645 691 458.744V502.529C691 503.628 690.105 504.519 689 504.519H680C678.895 504.519 678 503.628 678 502.529V458.744Z" fill="#0FA7F0"/>
<path d="M816 458.744C816 457.645 816.895 456.754 818 456.754H827C828.105 456.754 829 457.645 829 458.744V502.529C829 503.628 828.105 504.519 827 504.519H818C816.895 504.519 816 503.628 816 502.529V458.744Z" fill="#0FA7F0"/>
<path d="M839 498.548C839 497.449 839.895 496.558 841 496.558H850C851.105 496.558 852 497.449 852 498.548V502.529C852 503.628 851.105 504.519 850 504.519H841C839.895 504.519 839 503.628 839 502.529V498.548Z" fill="#0FA7F0"/>
<path d="M448 427.895C448 426.796 448.895 425.905 450 425.905H459C460.105 425.905 461 426.796 461 427.895V502.528C461 503.628 460.105 504.519 459 504.519H450C448.895 504.519 448 503.628 448 502.528V427.895Z" fill="#0FA7F0"/>
<path d="M632 427.895C632 426.796 632.895 425.905 634 425.905H643C644.105 425.905 645 426.796 645 427.895V502.528C645 503.628 644.105 504.519 643 504.519H634C632.895 504.519 632 503.628 632 502.528V427.895Z" fill="#0FA7F0"/>
<path d="M770 427.895C770 426.796 770.895 425.905 772 425.905H781C782.105 425.905 783 426.796 783 427.895V502.528C783 503.628 782.105 504.519 781 504.519H772C770.895 504.519 770 503.628 770 502.528V427.895Z" fill="#0FA7F0"/>
<path d="M862 427.895C862 426.796 862.895 425.905 864 425.905H873C874.105 425.905 875 426.796 875 427.895V502.528C875 503.628 874.105 504.519 873 504.519H864C862.895 504.519 862 503.628 862 502.528V427.895Z" fill="#0FA7F0"/>
<path d="M885 450.783C885 449.684 885.895 448.793 887 448.793H896C897.105 448.793 898 449.684 898 450.783V502.529C898 503.628 897.105 504.519 896 504.519H887C885.895 504.519 885 503.628 885 502.529V450.783Z" fill="#0FA7F0"/>
<path d="M471 427.895C471 426.796 471.895 425.905 473 425.905H482C483.105 425.905 484 426.796 484 427.895V502.528C484 503.628 483.105 504.519 482 504.519H473C471.895 504.519 471 503.628 471 502.528V427.895Z" fill="#0FA7F0"/>
<path d="M655 427.895C655 426.796 655.895 425.905 657 425.905H666C667.105 425.905 668 426.796 668 427.895V502.528C668 503.628 667.105 504.519 666 504.519H657C655.895 504.519 655 503.628 655 502.528V427.895Z" fill="#0FA7F0"/>
<path d="M954 427.895C954 426.796 954.895 425.905 956 425.905H965C966.105 425.905 967 426.796 967 427.895V502.528C967 503.628 966.105 504.519 965 504.519H956C954.895 504.519 954 503.628 954 502.528V427.895Z" fill="#0FA7F0"/>
<path d="M793 427.895C793 426.796 793.895 425.905 795 425.905H804C805.105 425.905 806 426.796 806 427.895V502.528C806 503.628 805.105 504.519 804 504.519H795C793.895 504.519 793 503.628 793 502.528V427.895Z" fill="#0FA7F0"/>
<path d="M379 425.905C379 424.806 379.895 423.915 381 423.915H390C391.105 423.915 392 424.806 392 425.905V464.714C392 465.814 391.105 466.705 390 466.705H381C379.895 466.705 379 465.814 379 464.714V425.905Z" fill="#FFEEA2"/>
<path d="M563 425.905C563 424.806 563.895 423.915 565 423.915H574C575.105 423.915 576 424.806 576 425.905V464.714C576 465.814 575.105 466.705 574 466.705H565C563.895 466.705 563 465.814 563 464.714V425.905Z" fill="#FFEEA2"/>
<path d="M402 458.744C402 457.645 402.895 456.754 404 456.754H413C414.105 456.754 415 457.645 415 458.744V464.715C415 465.814 414.105 466.705 413 466.705H404C402.895 466.705 402 465.814 402 464.715V458.744Z" fill="#FFEEA2"/>
<path d="M586 458.744C586 457.645 586.895 456.754 588 456.754H597C598.105 456.754 599 457.645 599 458.744V464.715C599 465.814 598.105 466.705 597 466.705H588C586.895 466.705 586 465.814 586 464.715V458.744Z" fill="#FFEEA2"/>
<path d="M517 458.744C517 457.645 517.895 456.754 519 456.754H528C529.105 456.754 530 457.645 530 458.744V464.715C530 465.814 529.105 466.705 528 466.705H519C517.895 466.705 517 465.814 517 464.715V458.744Z" fill="#FFEEA2"/>
<path d="M701 458.744C701 457.645 701.895 456.754 703 456.754H712C713.105 456.754 714 457.645 714 458.744V464.715C714 465.814 713.105 466.705 712 466.705H703C701.895 466.705 701 465.814 701 464.715V458.744Z" fill="#FFEEA2"/>
<path d="M724 458.744C724 457.645 724.895 456.754 726 456.754H735C736.105 456.754 737 457.645 737 458.744V482.627C737 483.726 736.105 484.617 735 484.617H726C724.895 484.617 724 483.726 724 482.627V458.744Z" fill="#FFEEA2"/>
<path d="M540 458.744C540 457.645 540.895 456.754 542 456.754H551C552.105 456.754 553 457.645 553 458.744V482.627C553 483.726 552.105 484.617 551 484.617H542C540.895 484.617 540 483.726 540 482.627V458.744Z" fill="#FFEEA2"/>
<path d="M908 458.744C908 457.645 908.895 456.754 910 456.754H919C920.105 456.754 921 457.645 921 458.744V482.627C921 483.726 920.105 484.617 919 484.617H910C908.895 484.617 908 483.726 908 482.627V458.744Z" fill="#FFEEA2"/>
<path d="M931 458.744C931 457.645 931.895 456.754 933 456.754H942C943.105 456.754 944 457.645 944 458.744V482.627C944 483.726 943.105 484.617 942 484.617H933C931.895 484.617 931 483.726 931 482.627V458.744Z" fill="#FFEEA2"/>
<path d="M425 416.949C425 415.85 425.895 414.959 427 414.959H436C437.105 414.959 438 415.85 438 416.949V453.768C438 454.868 437.105 455.758 436 455.758H427C425.895 455.758 425 454.868 425 453.768V416.949Z" fill="#FFEEA2"/>
<path d="M609 416.949C609 415.85 609.895 414.959 611 414.959H620C621.105 414.959 622 415.85 622 416.949V453.768C622 454.868 621.105 455.758 620 455.758H611C609.895 455.758 609 454.868 609 453.768V416.949Z" fill="#FFEEA2"/>
<path d="M747 416.949C747 415.85 747.895 414.959 749 414.959H758C759.105 414.959 760 415.85 760 416.949V453.768C760 454.868 759.105 455.758 758 455.758H749C747.895 455.758 747 454.868 747 453.768V416.949Z" fill="#FFEEA2"/>
<path d="M494 416.949C494 415.85 494.895 414.959 496 414.959H505C506.105 414.959 507 415.85 507 416.949V453.768C507 454.868 506.105 455.758 505 455.758H496C494.895 455.758 494 454.868 494 453.768V416.949Z" fill="#FFEEA2"/>
<path d="M678 416.949C678 415.85 678.895 414.959 680 414.959H689C690.105 414.959 691 415.85 691 416.949V453.768C691 454.868 690.105 455.758 689 455.758H680C678.895 455.758 678 454.868 678 453.768V416.949Z" fill="#FFEEA2"/>
<path d="M816 416.949C816 415.85 816.895 414.959 818 414.959H827C828.105 414.959 829 415.85 829 416.949V453.768C829 454.868 828.105 455.758 827 455.758H818C816.895 455.758 816 454.868 816 453.768V416.949Z" fill="#FFEEA2"/>
<path d="M839 475.661C839 474.561 839.895 473.67 841 473.67H850C851.105 473.67 852 474.561 852 475.661V493.573C852 494.672 851.105 495.563 850 495.563H841C839.895 495.563 839 494.672 839 493.573V475.661Z" fill="#FFEEA2"/>
<path d="M448 416.949C448 415.85 448.895 414.959 450 414.959H459C460.105 414.959 461 415.85 461 416.949V422.92C461 424.019 460.105 424.91 459 424.91H450C448.895 424.91 448 424.019 448 422.92V416.949Z" fill="#FFEEA2"/>
<path d="M632 416.949C632 415.85 632.895 414.959 634 414.959H643C644.105 414.959 645 415.85 645 416.949V422.92C645 424.019 644.105 424.91 643 424.91H634C632.895 424.91 632 424.019 632 422.92V416.949Z" fill="#FFEEA2"/>
<path d="M770 416.949C770 415.85 770.895 414.959 772 414.959H781C782.105 414.959 783 415.85 783 416.949V422.92C783 424.019 782.105 424.91 781 424.91H772C770.895 424.91 770 424.019 770 422.92V416.949Z" fill="#FFEEA2"/>
<path d="M862 416.949C862 415.85 862.895 414.959 864 414.959H873C874.105 414.959 875 415.85 875 416.949V422.92C875 424.019 874.105 424.91 873 424.91H864C862.895 424.91 862 424.019 862 422.92V416.949Z" fill="#FFEEA2"/>
<path d="M885 416.949C885 415.85 885.895 414.959 887 414.959H896C897.105 414.959 898 415.85 898 416.949V445.807C898 446.907 897.105 447.797 896 447.797H887C885.895 447.797 885 446.907 885 445.807V416.949Z" fill="#FFEEA2"/>
<path d="M471 421.925C471 420.825 471.895 419.935 473 419.935H482C483.105 419.935 484 420.825 484 421.925V422.92C484 424.019 483.105 424.91 482 424.91H473C471.895 424.91 471 424.019 471 422.92V421.925Z" fill="#FFEEA2"/>
<path d="M655 421.925C655 420.825 655.895 419.935 657 419.935H666C667.105 419.935 668 420.825 668 421.925V422.92C668 424.019 667.105 424.91 666 424.91H657C655.895 424.91 655 424.019 655 422.92V421.925Z" fill="#FFEEA2"/>
<path d="M954 421.925C954 420.825 954.895 419.935 956 419.935H965C966.105 419.935 967 420.825 967 421.925V422.92C967 424.019 966.105 424.91 965 424.91H956C954.895 424.91 954 424.019 954 422.92V421.925Z" fill="#FFEEA2"/>
<path d="M793 421.925C793 420.825 793.895 419.935 795 419.935H804C805.105 419.935 806 420.825 806 421.925V422.92C806 424.019 805.105 424.91 804 424.91H795C793.895 424.91 793 424.019 793 422.92V421.925Z" fill="#FFEEA2"/>
<path d="M379 405.008C379 403.909 379.895 403.018 381 403.018H390C391.105 403.018 392 403.909 392 405.008V420.93C392 422.03 391.105 422.92 390 422.92H381C379.895 422.92 379 422.03 379 420.93V405.008Z" fill="#F28100"/>
<path d="M563 405.008C563 403.909 563.895 403.018 565 403.018H574C575.105 403.018 576 403.909 576 405.008V420.93C576 422.03 575.105 422.92 574 422.92H565C563.895 422.92 563 422.03 563 420.93V405.008Z" fill="#F28100"/>
<path d="M402 405.008C402 403.909 402.895 403.018 404 403.018H413C414.105 403.018 415 403.909 415 405.008V453.768C415 454.868 414.105 455.759 413 455.759H404C402.895 455.759 402 454.868 402 453.768V405.008Z" fill="#F28100"/>
<path d="M586 405.008C586 403.909 586.895 403.018 588 403.018H597C598.105 403.018 599 403.909 599 405.008V453.768C599 454.868 598.105 455.759 597 455.759H588C586.895 455.759 586 454.868 586 453.768V405.008Z" fill="#F28100"/>
<path d="M517 405.008C517 403.909 517.895 403.018 519 403.018H528C529.105 403.018 530 403.909 530 405.008V453.768C530 454.868 529.105 455.759 528 455.759H519C517.895 455.759 517 454.868 517 453.768V405.008Z" fill="#F28100"/>
<path d="M724 405.008C724 403.909 724.895 403.018 726 403.018H735C736.105 403.018 737 403.909 737 405.008V453.768C737 454.868 736.105 455.759 735 455.759H726C724.895 455.759 724 454.868 724 453.768V405.008Z" fill="#F28100"/>
<path d="M701 405.008C701 403.909 701.895 403.018 703 403.018H712C713.105 403.018 714 403.909 714 405.008V453.768C714 454.868 713.105 455.759 712 455.759H703C701.895 455.759 701 454.868 701 453.768V405.008Z" fill="#F28100"/>
<path d="M540 405.008C540 403.909 540.895 403.018 542 403.018H551C552.105 403.018 553 403.909 553 405.008V453.768C553 454.868 552.105 455.759 551 455.759H542C540.895 455.759 540 454.868 540 453.768V405.008Z" fill="#F28100"/>
<path d="M908 405.008C908 403.909 908.895 403.018 910 403.018H919C920.105 403.018 921 403.909 921 405.008V453.768C921 454.868 920.105 455.759 919 455.759H910C908.895 455.759 908 454.868 908 453.768V405.008Z" fill="#F28100"/>
<path d="M931 405.008C931 403.909 931.895 403.018 933 403.018H942C943.105 403.018 944 403.909 944 405.008V453.768C944 454.868 943.105 455.759 942 455.759H933C931.895 455.759 931 454.868 931 453.768V405.008Z" fill="#F28100"/>
<path d="M425 405.008C425 403.909 425.895 403.018 427 403.018H436C437.105 403.018 438 403.909 438 405.008V411.974C438 413.074 437.105 413.964 436 413.964H427C425.895 413.964 425 413.074 425 411.974V405.008Z" fill="#F28100"/>
<path d="M609 405.008C609 403.909 609.895 403.018 611 403.018H620C621.105 403.018 622 403.909 622 405.008V411.974C622 413.074 621.105 413.964 620 413.964H611C609.895 413.964 609 413.074 609 411.974V405.008Z" fill="#F28100"/>
<path d="M747 405.008C747 403.909 747.895 403.018 749 403.018H758C759.105 403.018 760 403.909 760 405.008V411.974C760 413.074 759.105 413.964 758 413.964H749C747.895 413.964 747 413.074 747 411.974V405.008Z" fill="#F28100"/>
<path d="M494 405.008C494 403.909 494.895 403.018 496 403.018H505C506.105 403.018 507 403.909 507 405.008V411.974C507 413.074 506.105 413.964 505 413.964H496C494.895 413.964 494 413.074 494 411.974V405.008Z" fill="#F28100"/>
<path d="M678 405.008C678 403.909 678.895 403.018 680 403.018H689C690.105 403.018 691 403.909 691 405.008V411.974C691 413.074 690.105 413.964 689 413.964H680C678.895 413.964 678 413.074 678 411.974V405.008Z" fill="#F28100"/>
<path d="M816 405.008C816 403.909 816.895 403.018 818 403.018H827C828.105 403.018 829 403.909 829 405.008V411.974C829 413.074 828.105 413.964 827 413.964H818C816.895 413.964 816 413.074 816 411.974V405.008Z" fill="#F28100"/>
<path d="M839 405.008C839 403.909 839.895 403.018 841 403.018H850C851.105 403.018 852 403.909 852 405.008V470.685C852 471.785 851.105 472.675 850 472.675H841C839.895 472.675 839 471.785 839 470.685V405.008Z" fill="#F28100"/>
<path d="M448 405.008C448 403.909 448.895 403.018 450 403.018H459C460.105 403.018 461 403.909 461 405.008V411.974C461 413.074 460.105 413.964 459 413.964H450C448.895 413.964 448 413.074 448 411.974V405.008Z" fill="#F28100"/>
<path d="M632 405.008C632 403.909 632.895 403.018 634 403.018H643C644.105 403.018 645 403.909 645 405.008V411.974C645 413.074 644.105 413.964 643 413.964H634C632.895 413.964 632 413.074 632 411.974V405.008Z" fill="#F28100"/>
<path d="M770 405.008C770 403.909 770.895 403.018 772 403.018H781C782.105 403.018 783 403.909 783 405.008V411.974C783 413.074 782.105 413.964 781 413.964H772C770.895 413.964 770 413.074 770 411.974V405.008Z" fill="#F28100"/>
<path d="M862 405.008C862 403.909 862.895 403.018 864 403.018H873C874.105 403.018 875 403.909 875 405.008V411.974C875 413.074 874.105 413.964 873 413.964H864C862.895 413.964 862 413.074 862 411.974V405.008Z" fill="#F28100"/>
<path d="M885 405.008C885 403.909 885.895 403.018 887 403.018H896C897.105 403.018 898 403.909 898 405.008V411.974C898 413.074 897.105 413.964 896 413.964H887C885.895 413.964 885 413.074 885 411.974V405.008Z" fill="#F28100"/>
<path d="M471 405.008C471 403.909 471.895 403.018 473 403.018H482C483.105 403.018 484 403.909 484 405.008V416.95C484 418.049 483.105 418.94 482 418.94H473C471.895 418.94 471 418.049 471 416.95V405.008Z" fill="#F28100"/>
<path d="M655 405.008C655 403.909 655.895 403.018 657 403.018H666C667.105 403.018 668 403.909 668 405.008V416.95C668 418.049 667.105 418.94 666 418.94H657C655.895 418.94 655 418.049 655 416.95V405.008Z" fill="#F28100"/>
<path d="M954 405.008C954 403.909 954.895 403.018 956 403.018H965C966.105 403.018 967 403.909 967 405.008V416.95C967 418.049 966.105 418.94 965 418.94H956C954.895 418.94 954 418.049 954 416.95V405.008Z" fill="#F28100"/>
<path d="M793 405.008C793 403.909 793.895 403.018 795 403.018H804C805.105 403.018 806 403.909 806 405.008V416.95C806 418.049 805.105 418.94 804 418.94H795C793.895 418.94 793 418.049 793 416.95V405.008Z" fill="#F28100"/>
<g filter="url(#filter0_d_1729_153)">
<path d="M50 100.506H105V556.264H65C56.7157 556.264 50 549.581 50 541.338V100.506Z" fill="white"/>
</g>
<path d="M76 138.32V132.349H80V138.32H85V130.359H88L78 121.403L68 130.359H71V138.32H76Z" fill="#747474"/>
<path d="M83.833 156.896L79.6663 160.627V169.748L83.833 166.017V156.896ZM73.4163 159.383C71.7913 159.383 70.0413 159.715 68.833 160.627V172.783C68.833 172.991 69.0413 173.198 69.2497 173.198C69.333 173.198 69.3747 173.141 69.458 173.141C70.583 172.601 72.208 172.236 73.4163 172.236C75.0413 172.236 76.7913 172.568 77.9997 173.48C79.1247 172.775 81.1663 172.236 82.583 172.236C83.958 172.236 85.3747 172.494 86.5413 173.116C86.6247 173.157 86.6663 173.141 86.7497 173.141C86.958 173.141 87.1663 172.933 87.1663 172.726V160.627C86.6663 160.254 86.1247 160.005 85.4997 159.797V170.992C84.583 170.703 83.583 170.578 82.583 170.578C81.1663 170.578 79.1247 171.117 77.9997 171.822V160.627C76.7913 159.715 75.0413 159.383 73.4163 159.383Z" fill="#747474"/>
<path fill-rule="evenodd" clip-rule="evenodd" d="M105 501.533H50V500.538H105V501.533Z" fill="#E1E1E9"/>
<path d="M69.3136 515.869L69.8342 520.663L69.921 521.573H67.8965L67.9977 520.663L68.5038 515.869L68.5472 515.465H69.2702L69.3136 515.869Z" fill="#F28100"/>
<path d="M85.4083 515.869L85.9145 520.663L86.0157 521.573H83.9912L84.078 520.663L84.5986 515.869L84.6419 515.465H85.365L85.4083 515.869Z" fill="#F28100"/>
<path d="M75.9943 530.757C75.5894 531.117 75.199 531.42 74.7941 531.724C74.3892 532.026 73.9843 532.33 73.5505 532.618C72.6973 533.197 71.8297 533.731 70.8319 534.179C70.3692 534.381 69.8197 534.179 69.6173 533.716C69.4293 533.297 69.5883 532.807 69.9643 532.576L69.9932 532.561C70.7452 532.099 71.4537 531.507 72.1478 530.872C72.4949 530.554 72.8275 530.222 73.1601 529.89C73.4782 529.557 73.8253 529.196 74.1 528.879C74.5917 528.316 75.4304 528.258 75.9943 528.735C76.5583 529.225 76.6161 530.063 76.1389 530.626C76.0956 530.67 76.0522 530.713 75.9943 530.757Z" fill="#37376D"/>
<path d="M79.147 528.085C79.5808 528.185 80.1014 528.214 80.6075 528.214C81.1281 528.214 81.6631 528.171 82.1837 528.099C83.2393 527.954 84.2949 527.68 85.2493 527.247L85.2638 527.233C85.7265 527.016 86.276 527.233 86.4785 527.695C86.6665 528.128 86.5074 528.619 86.117 528.85C85.018 529.514 83.8467 529.977 82.632 530.308C82.0246 530.467 81.4028 530.596 80.7666 530.669C80.1303 530.742 79.4651 530.785 78.7566 530.727H78.7421C78.0046 530.669 77.4551 530.019 77.513 529.283C77.5708 528.547 78.2215 527.998 78.959 528.056C79.0313 528.056 79.0892 528.07 79.147 528.085Z" fill="#37376D"/>
<path d="M86.2174 521.269C86.2174 524.345 82.0962 526.843 76.9916 526.843C71.8871 526.843 67.7803 524.345 67.7803 521.269C67.7803 518.194 71.916 515.696 77.0061 515.696C82.0962 515.696 86.2174 518.194 86.2174 521.269Z" fill="#0FA7F0"/>
<path d="M83.0366 521.269C83.0366 522.973 80.3325 524.446 77.0066 524.446C73.6807 524.446 70.9766 522.973 70.9766 521.269C70.9766 519.566 73.6807 518.093 77.0066 518.093C80.3325 518.107 83.0366 519.579 83.0366 521.269Z" fill="white"/>
<path d="M79.0884 521.269C79.0884 522.425 78.163 523.349 77.0061 523.349C75.8493 523.349 74.9238 522.425 74.9238 521.269C74.9238 520.114 75.8493 519.19 77.0061 519.19C78.1485 519.19 79.0884 520.129 79.0884 521.269Z" fill="#37376D"/>
<path d="M82.9204 535.694L80.679 529.529C80.332 528.619 79.4644 528.012 78.4955 528.012H75.8203C74.5333 528.012 73.4922 529.052 73.4922 530.338V535.68H82.9204V535.694Z" fill="#0FA7F0"/>
<path d="M67 532.648C67.5061 532.2 68.2725 531.984 68.9811 532.113C69.6897 532.229 70.3693 532.677 70.7597 533.297C71.1646 533.918 71.2658 534.713 71.0779 535.406C70.8899 536.099 70.3838 536.706 69.7475 536.965L69.0245 535.839C69.2414 535.579 69.3426 535.305 69.3715 535.03C69.386 534.756 69.3281 534.511 69.1835 534.294C69.0534 534.078 68.8509 533.918 68.5907 533.818C68.3304 533.716 68.0412 533.702 67.7086 533.774L67 532.648Z" fill="#F28100"/>
<path d="M87.5629 526.064C87.3171 526.295 87.1725 526.54 87.1002 526.8C87.0424 527.06 87.0713 527.32 87.158 527.551C87.2593 527.782 87.4328 527.984 87.6642 528.114C87.8955 528.244 88.1847 528.316 88.5173 528.287L89.0524 529.515C88.4739 529.89 87.6931 529.962 87.0134 529.731C86.3338 529.5 85.7265 528.952 85.4517 528.273C85.1625 527.594 85.1625 526.785 85.4806 526.136C85.7843 525.472 86.3772 524.966 87.0424 524.807L87.5629 526.064Z" fill="#F28100"/>
<path d="M76.7321 535.694H73.4785V539.347H76.7321V535.694Z" fill="#37376D"/>
<path d="M80.9827 539.347H84.2508L82.9204 535.694H79.6523L80.9827 539.347Z" fill="#37376D"/>
<path d="M84.9762 199.116H83.7619V195.894C83.7619 195 83.0333 194.283 82.1429 194.283H78.9048V193.075C78.9048 192.54 78.6915 192.028 78.312 191.651C77.9325 191.273 77.4177 191.061 76.881 191.061C76.3442 191.061 75.8294 191.273 75.4499 191.651C75.0704 192.028 74.8571 192.54 74.8571 193.075V194.283H71.619C71.1896 194.283 70.7778 194.453 70.4742 194.754C70.1706 195.057 70 195.467 70 195.894V198.955H71.2143C72.4286 198.955 73.4 199.922 73.4 201.13C73.4 202.338 72.4286 203.305 71.2143 203.305H70V206.366C70 206.793 70.1706 207.203 70.4742 207.506C70.7778 207.807 71.1896 207.977 71.619 207.977H74.6952V206.769C74.6952 205.56 75.6667 204.594 76.881 204.594C78.0952 204.594 79.0667 205.56 79.0667 206.769V207.977H82.1429C82.5723 207.977 82.9841 207.807 83.2877 207.506C83.5913 207.203 83.7619 206.793 83.7619 206.366V203.144H84.9762C85.5129 203.144 86.0277 202.932 86.4072 202.554C86.7868 202.177 87 201.664 87 201.13C87 200.596 86.7868 200.084 86.4072 199.706C86.0277 199.328 85.5129 199.116 84.9762 199.116Z" fill="#747474"/>
<path d="M72 237.333L69 240.258V231.86H72V237.333ZM77 235.502L75.43 234.168L74 235.482V227.879H77V235.502ZM82 233.85L79 236.835V223.899H82V233.85ZM84.81 233.661L83 231.86H88V236.835L86.21 235.054L79 242.169L75.53 239.164L71.75 242.806H69L75.47 236.497L79 239.462" fill="#747474"/>
<path d="M80.763 267.012L79.953 267.836C79.305 268.481 78.9 269.027 78.9 270.37H77.1V269.922C77.1 268.928 77.505 268.033 78.153 267.388L79.269 266.259C79.602 265.937 79.8 265.489 79.8 264.997C79.8 264.003 78.99 263.206 78 263.206C77.5226 263.206 77.0648 263.395 76.7272 263.73C76.3896 264.066 76.2 264.522 76.2 264.997H74.4C74.4 264.046 74.7793 263.136 75.4544 262.463C76.1295 261.791 77.0452 261.414 78 261.414C78.9548 261.414 79.8705 261.791 80.5456 262.463C81.2207 263.136 81.6 264.046 81.6 264.997C81.6 265.785 81.276 266.492 80.763 267.012ZM78.9 273.953H77.1V272.161H78.9V273.953ZM78 258.728C76.8181 258.728 75.6478 258.959 74.5558 259.409C73.4639 259.859 72.4718 260.519 71.636 261.351C69.9482 263.03 69 265.308 69 267.683C69 270.059 69.9482 272.337 71.636 274.016C72.4718 274.848 73.4639 275.508 74.5558 275.958C75.6478 276.408 76.8181 276.639 78 276.639C80.3869 276.639 82.6761 275.696 84.364 274.016C86.0518 272.337 87 270.059 87 267.683C87 262.731 82.95 258.728 78 258.728Z" fill="#747474"/>
<path d="M50 60.7015C50 52.4577 56.7157 45.7749 65 45.7749H105V100.506H50V60.7015Z" fill="#0FA7F0"/>
<g filter="url(#filter1_d_1729_153)">
<path d="M105 100.506V45.7749H1003C1011.28 45.7749 1018 52.4577 1018 60.7015V100.506H105Z" fill="white"/>
</g>
<path d="M69 66.6719H87V68.6621H69V66.6719Z" fill="white"/>
<path d="M69 71.6475H87V73.6377H69V71.6475Z" fill="white"/>
<path d="M69 76.623H87V78.6133H69V76.623Z" fill="white"/>
<path d="M136.615 65.3784H141.365C145.153 65.3784 147.046 66.828 147.046 69.727C147.046 72.6261 145.153 74.0756 141.365 74.0756H138.781V78.6133H136.615V65.3784ZM143.93 71.5988C144.538 71.2459 144.842 70.6219 144.842 69.727C144.842 68.8321 144.538 68.2145 143.93 67.8741C143.335 67.5212 142.518 67.3447 141.479 67.3447H138.781V72.1093H141.479C142.518 72.1093 143.335 71.9392 143.93 71.5988Z" fill="#454545"/>
<path d="M150.547 71.0318C150.902 70.4646 151.427 70.0235 152.124 69.7083C152.821 69.3932 153.574 69.2735 154.385 69.3491V71.3343C153.574 71.2209 152.84 71.3281 152.181 71.6558C151.522 71.9835 151.054 72.4688 150.775 73.1116V78.6135H148.742V69.5382H150.547V71.0318Z" fill="#454545"/>
<path d="M157.994 78.6135H155.961V69.5381H157.994V78.6135ZM158.222 66.5886C158.222 66.9794 158.101 67.2819 157.861 67.4961C157.633 67.6978 157.341 67.7987 156.987 67.7987C156.632 67.7987 156.334 67.6978 156.094 67.4961C155.853 67.2819 155.733 66.9794 155.733 66.5886C155.733 66.2105 155.853 65.9206 156.094 65.7189C156.334 65.5046 156.632 65.3975 156.987 65.3975C157.341 65.3975 157.633 65.5046 157.861 65.7189C158.101 65.9206 158.222 66.2105 158.222 66.5886Z" fill="#454545"/>
<path d="M160.01 74.1516C160.01 72.576 160.51 71.3722 161.511 70.5403C162.512 69.7084 163.69 69.2925 165.045 69.2925C166.134 69.2925 167.072 69.5256 167.857 69.992V71.8449C167.148 71.3407 166.305 71.0886 165.33 71.0886C164.431 71.0886 163.664 71.3407 163.031 71.8449C162.398 72.3365 162.081 73.0802 162.081 74.076C162.081 75.0465 162.391 75.7902 163.012 76.307C163.645 76.8112 164.405 77.0633 165.292 77.0633C166.255 77.0633 167.141 76.8301 167.952 76.3637V78.2355C167.078 78.6515 166.071 78.8594 164.931 78.8594C163.601 78.8594 162.448 78.4561 161.473 77.6494C160.498 76.8301 160.01 75.6641 160.01 74.1516Z" fill="#454545"/>
<path d="M169.269 74.076C169.269 73.2945 169.408 72.5886 169.687 71.9584C169.965 71.3155 170.333 70.8113 170.789 70.4458C171.245 70.0677 171.739 69.7841 172.271 69.595C172.803 69.3933 173.341 69.2925 173.886 69.2925C174.582 69.2925 175.209 69.3997 175.767 69.6139C176.337 69.8281 176.793 70.1181 177.135 70.4836C177.477 70.8491 177.755 71.2714 177.971 71.7504C178.186 72.2293 178.3 72.7336 178.313 73.263C178.325 73.7797 178.281 74.3028 178.18 74.8322H171.321C171.422 75.6012 171.802 76.1809 172.461 76.5717C173.119 76.9498 173.905 77.1389 174.817 77.1389C175.855 77.1389 176.818 76.9246 177.705 76.4961V78.2355C176.831 78.6515 175.741 78.8594 174.437 78.8594C172.955 78.8594 171.72 78.4435 170.732 77.6116C169.756 76.7797 169.269 75.6012 169.269 74.076ZM176.356 73.3197C176.432 72.8029 176.273 72.2861 175.881 71.7693C175.501 71.2399 174.867 70.9752 173.981 70.9752C173.259 70.9752 172.638 71.1832 172.119 71.5991C171.612 72.0151 171.34 72.5886 171.302 73.3197H176.356Z" fill="#454545"/>
<path d="M182.053 71.0318C182.408 70.4646 182.933 70.0235 183.63 69.7083C184.327 69.3932 185.08 69.2735 185.891 69.3491V71.3343C185.08 71.2209 184.346 71.3281 183.687 71.6558C183.028 71.9835 182.56 72.4688 182.281 73.1116V78.6135H180.248V69.5382H182.053V71.0318Z" fill="#454545"/>
<path d="M187.41 66.8153C188.689 65.9456 190.12 65.5107 191.704 65.5107C193.059 65.5107 194.155 65.8259 194.991 66.4561C195.827 67.0738 196.245 67.9624 196.245 69.122C196.245 70.0925 195.922 70.9244 195.276 71.6177C194.642 72.2984 193.775 72.9664 192.673 73.6219C192.584 73.6723 192.419 73.7668 192.179 73.9055C191.951 74.0441 191.786 74.145 191.685 74.208C191.596 74.2584 191.45 74.3466 191.248 74.4727C191.045 74.5988 190.893 74.6933 190.792 74.7563C190.703 74.8193 190.576 74.9138 190.412 75.0399C190.26 75.1533 190.146 75.2541 190.07 75.3424C189.994 75.418 189.905 75.5188 189.804 75.6449C189.702 75.7583 189.626 75.8655 189.576 75.9663C189.538 76.0671 189.5 76.1806 189.462 76.3066C189.424 76.4327 189.405 76.5587 189.405 76.6848L196.34 76.6659V78.6133H186.973V77.6301C186.973 76.9243 187.068 76.3004 187.258 75.7583C187.46 75.2038 187.809 74.6996 188.303 74.2458C188.809 73.7794 189.202 73.4517 189.481 73.2626C189.759 73.0609 190.253 72.7521 190.963 72.3362C191.026 72.2857 191.077 72.2479 191.115 72.2227C191.165 72.1976 191.216 72.1723 191.267 72.1471C192.331 71.5294 193.015 71.082 193.319 70.8047C193.825 70.3131 194.079 69.7648 194.079 69.1598C194.079 68.6052 193.851 68.1829 193.395 67.893C192.951 67.6031 192.324 67.4582 191.514 67.4582C190.108 67.4582 188.74 67.9371 187.41 68.8951V66.8153Z" fill="#454545"/>
<path d="M204.604 65.7568H206.827V74.1137H209.05V75.9855H206.827V78.6136H204.737V75.9855H197.726V74.1515L204.604 65.7568ZM204.737 74.1137V68.4984L200.139 74.1137H204.737Z" fill="#454545"/>
<path d="M216.094 79.7291H214.612L220.35 64.2632H221.832L216.094 79.7291Z" fill="#454545"/>
<path d="M228.461 65.3784H233.116C235.396 65.3784 237.131 65.9834 238.322 67.1935C239.513 68.4035 240.108 70.0044 240.108 71.9959C240.108 73.9874 239.513 75.5882 238.322 76.7983C237.131 78.0083 235.396 78.6133 233.116 78.6133H228.461V65.3784ZM236.669 75.4559C237.492 74.6491 237.904 73.4958 237.904 71.9959C237.904 70.4959 237.492 69.3489 236.669 68.5548C235.858 67.7481 234.668 67.3447 233.097 67.3447H230.627V76.647H233.097C234.668 76.647 235.858 76.25 236.669 75.4559Z" fill="#454545"/>
<path d="M249.843 76.515C249.843 76.9561 250.065 77.1767 250.508 77.1767C250.66 77.1767 250.863 77.1389 251.116 77.0633V78.5191C250.736 78.6704 250.305 78.746 249.824 78.746C248.912 78.746 248.304 78.393 248 77.6872C247.025 78.4686 245.878 78.8594 244.561 78.8594C243.674 78.8594 242.921 78.6199 242.3 78.141C241.679 77.6494 241.369 76.9625 241.369 76.0801C241.369 75.0213 241.768 74.2524 242.566 73.7734C243.364 73.2819 244.32 73.0361 245.435 73.0361C246.17 73.0361 246.961 73.1243 247.81 73.3008V72.9793C247.81 72.3995 247.601 71.9332 247.183 71.5802C246.765 71.2273 246.176 71.0508 245.416 71.0508C244.289 71.0508 243.193 71.284 242.129 71.7504V69.8975C243.32 69.4942 244.485 69.2925 245.625 69.2925C246.955 69.2925 247.987 69.6202 248.722 70.2756C249.469 70.9311 249.843 71.9268 249.843 73.263V76.515ZM245.834 74.4541C245.163 74.4541 244.599 74.5738 244.143 74.8133C243.687 75.0528 243.459 75.431 243.459 75.9477C243.459 76.3763 243.624 76.7103 243.953 76.9498C244.282 77.1767 244.688 77.2901 245.169 77.2901C246.208 77.2901 247.088 76.9309 247.81 76.2124V74.681C247.075 74.5297 246.417 74.4541 245.834 74.4541Z" fill="#454545"/>
<path d="M252.043 71.9962C252.043 71.076 252.392 70.3954 253.088 69.9542C253.798 69.5131 254.659 69.2925 255.672 69.2925C256.85 69.2925 257.946 69.5509 258.959 70.0677V71.8449C258.579 71.5929 258.092 71.3849 257.496 71.221C256.901 71.0446 256.337 70.9563 255.805 70.9563C255.337 70.9563 254.938 71.0382 254.608 71.2021C254.279 71.3533 254.114 71.5991 254.114 71.9395C254.114 72.2546 254.304 72.5193 254.684 72.7336C255.064 72.9353 255.52 73.1117 256.052 73.263C256.597 73.4016 257.135 73.5717 257.667 73.7734C258.199 73.9625 258.655 74.2588 259.035 74.6621C259.415 75.0654 259.605 75.5759 259.605 76.1935C259.605 77.1263 259.238 77.8069 258.503 78.2355C257.769 78.6515 256.825 78.8594 255.672 78.8594C254.241 78.8594 253.05 78.5696 252.1 77.9897V76.1935C253.076 76.8364 254.235 77.1578 255.577 77.1578C256.895 77.1578 257.553 76.849 257.553 76.2314C257.553 75.9288 257.363 75.6768 256.983 75.4751C256.603 75.2608 256.141 75.0843 255.596 74.9457C255.064 74.7944 254.526 74.6243 253.981 74.4352C253.449 74.2335 252.993 73.931 252.613 73.5276C252.233 73.1117 252.043 72.6012 252.043 71.9962Z" fill="#454545"/>
<path d="M261.443 65.3784H263.476V70.54C264.287 69.7081 265.268 69.2922 266.421 69.2922C267.561 69.2922 268.473 69.6388 269.157 70.3321C269.841 71.0127 270.183 71.9013 270.183 72.9979V78.6133H268.15V73.2626C268.15 72.5568 267.954 72.021 267.561 71.6555C267.168 71.2774 266.655 71.0883 266.022 71.0883C265.021 71.0883 264.173 71.5926 263.476 72.6009V78.6133H261.443V65.3784Z" fill="#454545"/>
<path d="M272.613 65.3784H274.646V70.7102C275.495 69.7648 276.59 69.2922 277.933 69.2922C279.276 69.2922 280.365 69.7586 281.201 70.6913C282.037 71.6115 282.455 72.7395 282.455 74.0756C282.455 75.4118 282.037 76.5462 281.201 77.4789C280.365 78.3991 279.276 78.8591 277.933 78.8591C276.502 78.8591 275.33 78.2982 274.418 77.1764V78.6133H272.613V65.3784ZM279.586 76.2499C280.118 75.6827 280.384 74.958 280.384 74.0756C280.384 73.1933 280.118 72.4748 279.586 71.9202C279.054 71.353 278.376 71.0694 277.553 71.0694C276.882 71.0694 276.286 71.2522 275.767 71.6177C275.26 71.9832 274.887 72.4307 274.646 72.9601V75.1722C274.887 75.7143 275.26 76.1681 275.767 76.5336C276.286 76.8991 276.882 77.0819 277.553 77.0819C278.376 77.0819 279.054 76.8045 279.586 76.2499Z" fill="#454545"/>
<path d="M285.306 77.5927C284.344 76.7481 283.862 75.5759 283.862 74.076C283.862 72.576 284.344 71.4038 285.306 70.5592C286.282 69.7147 287.447 69.2925 288.802 69.2925C290.17 69.2925 291.336 69.7147 292.298 70.5592C293.261 71.4038 293.742 72.576 293.742 74.076C293.742 75.5759 293.261 76.7481 292.298 77.5927C291.336 78.4372 290.17 78.8594 288.802 78.8594C287.447 78.8594 286.282 78.4372 285.306 77.5927ZM290.873 76.2124C291.405 75.6704 291.671 74.9583 291.671 74.076C291.671 73.1936 291.405 72.4878 290.873 71.9584C290.341 71.4163 289.651 71.1454 288.802 71.1454C287.941 71.1454 287.244 71.4163 286.712 71.9584C286.18 72.4878 285.914 73.1936 285.914 74.076C285.914 74.9583 286.18 75.6704 286.712 76.2124C287.244 76.7418 287.941 77.0065 288.802 77.0065C289.651 77.0065 290.341 76.7418 290.873 76.2124Z" fill="#454545"/>
<path d="M303.485 76.515C303.485 76.9561 303.706 77.1767 304.15 77.1767C304.302 77.1767 304.504 77.1389 304.758 77.0633V78.5191C304.378 78.6704 303.947 78.746 303.466 78.746C302.554 78.746 301.946 78.393 301.642 77.6872C300.666 78.4686 299.52 78.8594 298.203 78.8594C297.316 78.8594 296.562 78.6199 295.942 78.141C295.321 77.6494 295.011 76.9625 295.011 76.0801C295.011 75.0213 295.41 74.2524 296.208 73.7734C297.006 73.2819 297.962 73.0361 299.077 73.0361C299.811 73.0361 300.603 73.1243 301.452 73.3008V72.9793C301.452 72.3995 301.243 71.9332 300.825 71.5802C300.407 71.2273 299.818 71.0508 299.058 71.0508C297.93 71.0508 296.835 71.284 295.771 71.7504V69.8975C296.961 69.4942 298.127 69.2925 299.267 69.2925C300.597 69.2925 301.629 69.6202 302.364 70.2756C303.111 70.9311 303.485 71.9268 303.485 73.263V76.515ZM299.476 74.4541C298.804 74.4541 298.241 74.5738 297.785 74.8133C297.329 75.0528 297.101 75.431 297.101 75.9477C297.101 76.3763 297.265 76.7103 297.595 76.9498C297.924 77.1767 298.329 77.2901 298.811 77.2901C299.849 77.2901 300.73 76.9309 301.452 76.2124V74.681C300.717 74.5297 300.058 74.4541 299.476 74.4541Z" fill="#454545"/>
<path d="M307.965 71.0318C308.32 70.4646 308.845 70.0235 309.542 69.7083C310.239 69.3932 310.992 69.2735 311.803 69.3491V71.3343C310.992 71.2209 310.258 71.3281 309.599 71.6558C308.94 71.9835 308.472 72.4688 308.193 73.1116V78.6135H306.16V69.5382H307.965V71.0318Z" fill="#454545"/>
<path d="M320.357 65.3784H322.39V78.6133H320.566V77.1764C319.679 78.2982 318.514 78.8591 317.07 78.8591C315.727 78.8591 314.638 78.3991 313.802 77.4789C312.966 76.5462 312.548 75.4118 312.548 74.0756C312.548 72.7395 312.966 71.6115 313.802 70.6913C314.638 69.7586 315.727 69.2922 317.07 69.2922C318.438 69.2922 319.534 69.7648 320.357 70.7102V65.3784ZM320.338 72.9601C320.097 72.4307 319.717 71.9832 319.198 71.6177C318.691 71.2522 318.102 71.0694 317.431 71.0694C316.608 71.0694 315.93 71.353 315.398 71.9202C314.866 72.4748 314.6 73.1933 314.6 74.0756C314.6 74.958 314.866 75.6827 315.398 76.2499C315.93 76.8045 316.608 77.0819 317.431 77.0819C318.102 77.0819 318.691 76.8991 319.198 76.5336C319.717 76.1681 320.097 75.7143 320.338 75.1722V72.9601Z" fill="#454545"/>
<path d="M889.833 71.6476C889.833 76.1811 893.527 79.8572 898.083 79.8572C900.274 79.8572 902.373 78.9998 903.95 77.4856L902.575 76.1173C901.411 77.3488 899.788 78.0329 898.083 78.0329C892.363 78.0329 889.503 71.155 893.546 67.1323C897.588 63.1096 904.5 65.9648 904.5 71.6476H901.75L905.416 75.2964H905.508L909.083 71.6476H906.333C906.333 67.1141 902.639 63.438 898.083 63.438C893.527 63.438 889.833 67.1141 889.833 71.6476Z" fill="#454545"/>
<path d="M985.5 74.9646V65.0135H970.5V74.9646H985.5ZM985.5 63.355C985.942 63.355 986.366 63.5297 986.678 63.8408C986.991 64.1518 987.166 64.5736 987.166 65.0135V74.9646C987.166 75.4044 986.991 75.8262 986.678 76.1373C986.366 76.4483 985.942 76.623 985.5 76.623H979.666V78.2816H981.333V79.9401H974.666V78.2816H976.333V76.623H970.5C969.575 76.623 968.833 75.8767 968.833 74.9646V65.0135C968.833 64.093 969.575 63.355 970.5 63.355H985.5ZM972.166 66.672H979.666V70.8183H972.166V66.672ZM980.5 66.672H983.833V68.3305H980.5V66.672ZM983.833 69.1597V73.306H980.5V69.1597H983.833ZM972.166 71.6475H975.5V73.306H972.166V71.6475ZM976.333 71.6475H979.666V73.306H976.333V71.6475Z" fill="#454545"/>
<path d="M945.584 72.7259H939.084V79.194H936.917V72.7259H930.417V70.5698H936.917V64.1016H939.084V70.5698H945.584V72.7259Z" fill="#454545"/>
<path d="M660.09 152.305V141.805H658.38V146.77C657.555 147.1 656.715 147.25 655.92 147.25C654.405 147.235 653.355 146.68 653.355 145.255V141.805H651.645V145.255C651.645 147.655 653.145 148.825 655.5 148.84C656.415 148.84 657.375 148.69 658.38 148.36V152.305H660.09ZM668.394 150.64V148.06C668.394 145.885 667.104 144.91 665.064 144.91C663.909 144.91 662.874 145.195 662.304 145.39V146.86C662.949 146.575 663.834 146.305 664.899 146.305C666.129 146.305 666.789 146.935 666.789 147.835V148.09C666.219 147.97 665.529 147.88 664.914 147.88C663.414 147.88 661.704 148.45 661.704 150.295C661.704 151.78 662.919 152.5 664.224 152.5C665.349 152.5 666.234 152.14 666.939 151.57C667.194 152.155 667.719 152.41 668.379 152.41C668.739 152.41 669.099 152.35 669.399 152.23V151.075C669.249 151.12 669.084 151.165 668.919 151.165C668.634 151.165 668.394 151.045 668.394 150.64ZM665.229 149.005C665.739 149.005 666.354 149.095 666.789 149.185V150.4C666.219 150.97 665.469 151.255 664.704 151.255C663.984 151.255 663.354 150.895 663.354 150.19C663.354 149.29 664.314 149.005 665.229 149.005ZM670.159 148.765C670.159 151.33 672.124 152.5 674.044 152.5C674.959 152.5 675.739 152.335 676.429 152.005V150.52C675.859 150.85 675.094 151.075 674.329 151.075C673.039 151.075 671.794 150.34 671.794 148.705C671.794 147.01 673.084 146.335 674.359 146.335C675.094 146.335 675.829 146.56 676.354 146.935V145.465C675.724 145.09 674.944 144.91 674.134 144.91C672.214 144.91 670.159 146.08 670.159 148.765ZM681.38 152.305V146.515H683.855V145.105H677.285V146.515H679.775V152.305H681.38ZM686.715 152.305V149.32H687.87L690.24 152.305H692.085L689.19 148.675L691.8 145.105H689.97L687.9 147.955H686.715V145.105H685.11V152.305H686.715ZM699.2 150.64V148.06C699.2 145.885 697.91 144.91 695.87 144.91C694.715 144.91 693.68 145.195 693.11 145.39V146.86C693.755 146.575 694.64 146.305 695.705 146.305C696.935 146.305 697.595 146.935 697.595 147.835V148.09C697.025 147.97 696.335 147.88 695.72 147.88C694.22 147.88 692.51 148.45 692.51 150.295C692.51 151.78 693.725 152.5 695.03 152.5C696.155 152.5 697.04 152.14 697.745 151.57C698 152.155 698.525 152.41 699.185 152.41C699.545 152.41 699.905 152.35 700.205 152.23V151.075C700.055 151.12 699.89 151.165 699.725 151.165C699.44 151.165 699.2 151.045 699.2 150.64ZM696.035 149.005C696.545 149.005 697.16 149.095 697.595 149.185V150.4C697.025 150.97 696.275 151.255 695.51 151.255C694.79 151.255 694.16 150.895 694.16 150.19C694.16 149.29 695.12 149.005 696.035 149.005ZM706.564 152.305V146.515H710.164V152.305H711.769V145.105H704.959V152.305H706.564ZM713.327 148.705C713.327 151.195 715.217 152.5 717.227 152.5C719.252 152.5 721.127 151.195 721.127 148.705C721.127 146.215 719.252 144.91 717.227 144.91C715.217 144.91 713.327 146.215 713.327 148.705ZM719.492 148.705C719.492 150.115 718.562 151.03 717.227 151.03C715.877 151.03 714.947 150.115 714.947 148.705C714.947 147.295 715.877 146.38 717.227 146.38C718.562 146.38 719.492 147.295 719.492 148.705ZM724.109 146.23V145.105H722.684V155.605H724.289V151.375C724.784 151.945 725.624 152.5 726.884 152.5C729.044 152.5 730.454 150.775 730.454 148.705C730.454 146.635 729.044 144.91 726.884 144.91C725.534 144.91 724.679 145.54 724.109 146.23ZM728.819 148.705C728.819 150.115 727.889 151.09 726.584 151.09C725.474 151.09 724.634 150.37 724.289 149.575V147.82C724.634 147.04 725.474 146.32 726.584 146.32C727.889 146.32 728.819 147.295 728.819 148.705ZM734.976 150.535L732.546 145.105H730.836L734.256 152.365L734.106 152.725C733.686 153.85 733.101 154.405 732.321 154.405C732.081 154.405 731.826 154.375 731.586 154.3V155.665C731.901 155.74 732.216 155.785 732.531 155.785C733.626 155.785 734.646 155.155 735.426 153.28L738.801 145.105H737.121L734.976 150.535ZM750.228 152.305V145.105H748.623V150.895H745.923V145.105H744.318V150.895H741.603V145.105H739.998V152.305H750.228ZM751.794 148.705C751.794 151.24 753.669 152.5 755.874 152.5C756.879 152.5 757.794 152.32 758.454 152.005V150.625C757.839 150.925 757.044 151.135 756.174 151.135C754.854 151.135 753.594 150.595 753.414 149.305H758.829C759.294 147.22 758.304 144.91 755.439 144.91C753.774 144.91 751.794 146.095 751.794 148.705ZM757.389 148.105H753.399C753.459 146.89 754.434 146.245 755.514 146.245C757.089 146.245 757.479 147.475 757.389 148.105ZM762.038 152.305V149.41H765.638V152.305H767.243V145.105H765.638V148H762.038V145.105H760.433V152.305H762.038ZM772.821 152.305C774.636 152.305 775.671 151.255 775.671 149.905C775.671 148.54 774.636 147.505 772.821 147.505H770.856V145.105H769.251V152.305H772.821ZM770.856 148.765H772.506C773.451 148.765 774.036 149.155 774.036 149.905C774.036 150.64 773.451 151.03 772.506 151.03H770.856V148.765Z" fill="white"/>
<path d="M149.985 152.305V143.38H155.385V152.305H157.095V141.805H148.275V152.305H149.985ZM158.746 148.705C158.746 151.195 160.636 152.5 162.646 152.5C164.671 152.5 166.546 151.195 166.546 148.705C166.546 146.215 164.671 144.91 162.646 144.91C160.636 144.91 158.746 146.215 158.746 148.705ZM164.911 148.705C164.911 150.115 163.981 151.03 162.646 151.03C161.296 151.03 160.366 150.115 160.366 148.705C160.366 147.295 161.296 146.38 162.646 146.38C163.981 146.38 164.911 147.295 164.911 148.705ZM178.333 152.305V145.105H176.728V150.895H174.028V145.105H172.423V150.895H169.708V145.105H168.103V152.305H178.333ZM183.589 150.535L181.159 145.105H179.449L182.869 152.365L182.719 152.725C182.299 153.85 181.714 154.405 180.934 154.405C180.694 154.405 180.439 154.375 180.199 154.3V155.665C180.514 155.74 180.829 155.785 181.144 155.785C182.239 155.785 183.259 155.155 184.039 153.28L187.414 145.105H185.734L183.589 150.535ZM190.215 152.305V149.32H191.37L193.74 152.305H195.585L192.69 148.675L195.3 145.105H193.47L191.4 147.955H190.215V145.105H188.61V152.305H190.215ZM203.528 152.305V146.515H206.003V145.105H199.433V146.515H201.923V152.305H203.528ZM206.618 148.705C206.618 151.195 208.508 152.5 210.518 152.5C212.543 152.5 214.418 151.195 214.418 148.705C214.418 146.215 212.543 144.91 210.518 144.91C208.508 144.91 206.618 146.215 206.618 148.705ZM212.783 148.705C212.783 150.115 211.853 151.03 210.518 151.03C209.168 151.03 208.238 150.115 208.238 148.705C208.238 147.295 209.168 146.38 210.518 146.38C211.853 146.38 212.783 147.295 212.783 148.705ZM220.204 152.305C221.869 152.305 222.574 151.435 222.574 150.325C222.574 149.44 222.019 148.87 221.344 148.66C221.959 148.39 222.364 147.82 222.364 147.025C222.364 145.9 221.539 145.105 220.084 145.105H215.974V152.305H220.204ZM217.579 149.245H219.844C220.399 149.245 220.954 149.44 220.954 150.175C220.954 150.865 220.474 151.09 219.814 151.09H217.579V149.245ZM217.579 146.32H219.724C220.219 146.32 220.744 146.53 220.744 147.235C220.744 147.88 220.294 148.105 219.724 148.105H217.579V146.32ZM230.327 150.64V148.06C230.327 145.885 229.037 144.91 226.997 144.91C225.842 144.91 224.807 145.195 224.237 145.39V146.86C224.882 146.575 225.767 146.305 226.832 146.305C228.062 146.305 228.722 146.935 228.722 147.835V148.09C228.152 147.97 227.462 147.88 226.847 147.88C225.347 147.88 223.637 148.45 223.637 150.295C223.637 151.78 224.852 152.5 226.157 152.5C227.282 152.5 228.167 152.14 228.872 151.57C229.127 152.155 229.652 152.41 230.312 152.41C230.672 152.41 231.032 152.35 231.332 152.23V151.075C231.182 151.12 231.017 151.165 230.852 151.165C230.567 151.165 230.327 151.045 230.327 150.64ZM227.162 149.005C227.672 149.005 228.287 149.095 228.722 149.185V150.4C228.152 150.97 227.402 151.255 226.637 151.255C225.917 151.255 225.287 150.895 225.287 150.19C225.287 149.29 226.247 149.005 227.162 149.005ZM233.966 146.23V145.105H232.541V155.605H234.146V151.375C234.641 151.945 235.481 152.5 236.741 152.5C238.901 152.5 240.311 150.775 240.311 148.705C240.311 146.635 238.901 144.91 236.741 144.91C235.391 144.91 234.536 145.54 233.966 146.23ZM238.676 148.705C238.676 150.115 237.746 151.09 236.441 151.09C235.331 151.09 234.491 150.37 234.146 149.575V147.82C234.491 147.04 235.331 146.32 236.441 146.32C237.746 146.32 238.676 147.295 238.676 148.705ZM244.834 150.535L242.404 145.105H240.694L244.114 152.365L243.964 152.725C243.544 153.85 242.959 154.405 242.179 154.405C241.939 154.405 241.684 154.375 241.444 154.3V155.665C241.759 155.74 242.074 155.785 242.389 155.785C243.484 155.785 244.504 155.155 245.284 153.28L248.659 145.105H246.979L244.834 150.535Z" fill="white"/>
<path d="M382.625 149.455C382.625 147.82 381.515 147.025 380.495 146.785C381.485 146.455 382.205 145.645 382.205 144.43C382.205 142.525 380.525 141.61 378.185 141.61C377 141.61 375.905 141.805 374.765 142.285V143.965C375.965 143.395 376.97 143.185 378.05 143.2C379.52 143.2 380.465 143.59 380.465 144.67C380.465 145.615 379.625 146.095 378.35 146.095H376.25V147.655H378.5C379.7 147.655 380.885 147.985 380.885 149.245C380.885 150.58 379.55 150.91 378.26 150.91C377.03 150.925 375.845 150.76 374.585 150.16V151.825C375.86 152.305 377.06 152.5 378.395 152.5C380.405 152.5 382.625 151.765 382.625 149.455ZM388.405 152.305C390.07 152.305 390.775 151.435 390.775 150.325C390.775 149.44 390.22 148.87 389.545 148.66C390.16 148.39 390.565 147.82 390.565 147.025C390.565 145.9 389.74 145.105 388.285 145.105H384.175V152.305H388.405ZM385.78 149.245H388.045C388.6 149.245 389.155 149.44 389.155 150.175C389.155 150.865 388.675 151.09 388.015 151.09H385.78V149.245ZM385.78 146.32H387.925C388.42 146.32 388.945 146.53 388.945 147.235C388.945 147.88 388.495 148.105 387.925 148.105H385.78V146.32ZM391.943 148.705C391.943 151.24 393.818 152.5 396.023 152.5C397.028 152.5 397.943 152.32 398.603 152.005V150.625C397.988 150.925 397.193 151.135 396.323 151.135C395.003 151.135 393.743 150.595 393.563 149.305H398.978C399.443 147.22 398.453 144.91 395.588 144.91C393.923 144.91 391.943 146.095 391.943 148.705ZM397.538 148.105H393.548C393.608 146.89 394.583 146.245 395.663 146.245C397.238 146.245 397.628 147.475 397.538 148.105ZM401.363 154.24V152.305H407.153V154.24H408.668V150.985H407.603V145.105H401.978C402.008 147.61 401.708 149.44 400.838 150.985H399.848V154.24H401.363ZM403.478 146.425H405.983V150.985H402.518C403.118 149.71 403.418 148.36 403.478 146.425ZM409.535 148.705C409.535 151.24 411.41 152.5 413.615 152.5C414.62 152.5 415.535 152.32 416.195 152.005V150.625C415.58 150.925 414.785 151.135 413.915 151.135C412.595 151.135 411.335 150.595 411.155 149.305H416.57C417.035 147.22 416.045 144.91 413.18 144.91C411.515 144.91 409.535 146.095 409.535 148.705ZM415.13 148.105H411.14C411.2 146.89 412.175 146.245 413.255 146.245C414.83 146.245 415.22 147.475 415.13 148.105ZM419.779 152.305V149.41H423.379V152.305H424.984V145.105H423.379V148H419.779V145.105H418.174V152.305H419.779ZM428.597 152.305V149.41H432.197V152.305H433.802V145.105H432.197V148H428.597V145.105H426.992V152.305H428.597ZM437.011 152.305L438.796 149.95H440.431V152.305H442.036V145.105H438.316C436.516 145.105 435.541 146.23 435.541 147.535C435.541 148.525 436.096 149.41 437.146 149.77L435.166 152.305H437.011ZM437.176 147.55C437.176 146.845 437.701 146.44 438.586 146.44H440.431V148.66H438.586C437.701 148.66 437.176 148.255 437.176 147.55ZM458.883 154.24V150.925H457.818V145.105H456.213V150.895H453.513V145.105H451.908V150.895H449.193V145.105H447.588V152.305H457.368V154.24H458.883ZM459.765 148.705C459.765 151.195 461.655 152.5 463.665 152.5C465.69 152.5 467.565 151.195 467.565 148.705C467.565 146.215 465.69 144.91 463.665 144.91C461.655 144.91 459.765 146.215 459.765 148.705ZM465.93 148.705C465.93 150.115 465 151.03 463.665 151.03C462.315 151.03 461.385 150.115 461.385 148.705C461.385 147.295 462.315 146.38 463.665 146.38C465 146.38 465.93 147.295 465.93 148.705ZM469.815 154.24V152.305H475.605V154.24H477.12V150.985H476.055V145.105H470.43C470.46 147.61 470.16 149.44 469.29 150.985H468.3V154.24H469.815ZM471.93 146.425H474.435V150.985H470.97C471.57 149.71 471.87 148.36 471.93 146.425ZM477.988 148.705C477.988 151.195 479.878 152.5 481.888 152.5C483.913 152.5 485.788 151.195 485.788 148.705C485.788 146.215 483.913 144.91 481.888 144.91C479.878 144.91 477.988 146.215 477.988 148.705ZM484.153 148.705C484.153 150.115 483.223 151.03 481.888 151.03C480.538 151.03 479.608 150.115 479.608 148.705C479.608 147.295 480.538 146.38 481.888 146.38C483.223 146.38 484.153 147.295 484.153 148.705ZM492.494 152.305V146.515H496.094V152.305H497.699V145.105H490.889V152.305H492.494ZM499.257 148.705C499.257 151.195 501.147 152.5 503.157 152.5C505.182 152.5 507.057 151.195 507.057 148.705C507.057 146.215 505.182 144.91 503.157 144.91C501.147 144.91 499.257 146.215 499.257 148.705ZM505.422 148.705C505.422 150.115 504.492 151.03 503.157 151.03C501.807 151.03 500.877 150.115 500.877 148.705C500.877 147.295 501.807 146.38 503.157 146.38C504.492 146.38 505.422 147.295 505.422 148.705ZM510.038 146.23V145.105H508.613V155.605H510.218V151.375C510.713 151.945 511.553 152.5 512.813 152.5C514.973 152.5 516.383 150.775 516.383 148.705C516.383 146.635 514.973 144.91 512.813 144.91C511.463 144.91 510.608 145.54 510.038 146.23ZM514.748 148.705C514.748 150.115 513.818 151.09 512.513 151.09C511.403 151.09 510.563 150.37 510.218 149.575V147.82C510.563 147.04 511.403 146.32 512.513 146.32C513.818 146.32 514.748 147.295 514.748 148.705ZM520.906 150.535L518.476 145.105H516.766L520.186 152.365L520.036 152.725C519.616 153.85 519.031 154.405 518.251 154.405C518.011 154.405 517.756 154.375 517.516 154.3V155.665C517.831 155.74 518.146 155.785 518.461 155.785C519.556 155.785 520.576 155.155 521.356 153.28L524.731 145.105H523.051L520.906 150.535ZM536.158 152.305V145.105H534.553V150.895H531.853V145.105H530.248V150.895H527.533V145.105H525.928V152.305H536.158ZM537.724 148.705C537.724 151.24 539.599 152.5 541.804 152.5C542.809 152.5 543.724 152.32 544.384 152.005V150.625C543.769 150.925 542.974 151.135 542.104 151.135C540.784 151.135 539.524 150.595 539.344 149.305H544.759C545.224 147.22 544.234 144.91 541.369 144.91C539.704 144.91 537.724 146.095 537.724 148.705ZM543.319 148.105H539.329C539.389 146.89 540.364 146.245 541.444 146.245C543.019 146.245 543.409 147.475 543.319 148.105ZM547.967 152.305V149.41H551.567V152.305H553.172V145.105H551.567V148H547.967V145.105H546.362V152.305H547.967ZM558.751 152.305C560.566 152.305 561.601 151.255 561.601 149.905C561.601 148.54 560.566 147.505 558.751 147.505H556.786V145.105H555.181V152.305H558.751ZM556.786 148.765H558.436C559.381 148.765 559.966 149.155 559.966 149.905C559.966 150.64 559.381 151.03 558.436 151.03H556.786V148.765Z" fill="white"/>
<path d="M376.905 371.229L377.835 368.964H383.1L384.03 371.229H385.83L381.405 360.729H379.53L375.09 371.229H376.905ZM380.265 362.979C380.325 362.814 380.385 362.649 380.46 362.394C380.535 362.649 380.595 362.814 380.655 362.979L382.5 367.464H378.42L380.265 362.979ZM388.523 371.229V368.334H392.123V371.229H393.728V364.029H392.123V366.924H388.523V364.029H386.918V371.229H388.523ZM401.871 369.564V366.984C401.871 364.809 400.581 363.834 398.541 363.834C397.386 363.834 396.351 364.119 395.781 364.314V365.784C396.426 365.499 397.311 365.229 398.376 365.229C399.606 365.229 400.266 365.859 400.266 366.759V367.014C399.696 366.894 399.006 366.804 398.391 366.804C396.891 366.804 395.181 367.374 395.181 369.219C395.181 370.704 396.396 371.424 397.701 371.424C398.826 371.424 399.711 371.064 400.416 370.494C400.671 371.079 401.196 371.334 401.856 371.334C402.216 371.334 402.576 371.274 402.876 371.154V369.999C402.726 370.044 402.561 370.089 402.396 370.089C402.111 370.089 401.871 369.969 401.871 369.564ZM398.706 367.929C399.216 367.929 399.831 368.019 400.266 368.109V369.324C399.696 369.894 398.946 370.179 398.181 370.179C397.461 370.179 396.831 369.819 396.831 369.114C396.831 368.214 397.791 367.929 398.706 367.929ZM406.951 365.394H409.381V371.229H410.986V364.029H405.436C405.301 367.599 404.971 369.999 403.756 369.999C403.606 369.999 403.456 369.969 403.291 369.909V371.169C403.651 371.304 403.981 371.364 404.281 371.364C406.201 371.364 406.741 368.874 406.951 365.394ZM414.582 363.189V371.229H413.262V363.189H414.582ZM413.937 360.174C414.137 360.174 414.312 360.244 414.462 360.384C414.622 360.514 414.702 360.724 414.702 361.014C414.702 361.294 414.622 361.504 414.462 361.644C414.312 361.784 414.137 361.854 413.937 361.854C413.717 361.854 413.532 361.784 413.382 361.644C413.232 361.504 413.157 361.294 413.157 361.014C413.157 360.724 413.232 360.514 413.382 360.384C413.532 360.244 413.717 360.174 413.937 360.174ZM422.499 369.264C422.499 368.364 421.899 367.764 421.074 367.539C421.824 367.344 422.349 366.789 422.349 365.934C422.349 364.764 421.419 363.819 419.199 363.819C418.209 363.819 417.249 364.059 416.559 364.389V365.769C417.174 365.439 418.164 365.184 419.004 365.184C420.039 365.184 420.729 365.499 420.729 366.144C420.729 366.744 420.144 366.954 419.379 366.954H417.909V368.184H419.379C420.099 368.184 420.879 368.304 420.879 369.069C420.879 369.864 419.979 370.059 418.914 370.059C418.044 370.059 417.009 369.789 416.424 369.459V370.839C417.084 371.184 418.044 371.424 419.124 371.424C421.344 371.424 422.499 370.524 422.499 369.264ZM429.26 371.229V368.334H432.86V371.229H434.465V364.029H432.86V366.924H429.26V364.029H427.655V371.229H429.26ZM436.024 367.629C436.024 370.119 437.914 371.424 439.924 371.424C441.949 371.424 443.824 370.119 443.824 367.629C443.824 365.139 441.949 363.834 439.924 363.834C437.914 363.834 436.024 365.139 436.024 367.629ZM442.189 367.629C442.189 369.039 441.259 369.954 439.924 369.954C438.574 369.954 437.644 369.039 437.644 367.629C437.644 366.219 438.574 365.304 439.924 365.304C441.259 365.304 442.189 366.219 442.189 367.629ZM449.61 371.229C451.275 371.229 451.98 370.359 451.98 369.249C451.98 368.364 451.425 367.794 450.75 367.584C451.365 367.314 451.77 366.744 451.77 365.949C451.77 364.824 450.945 364.029 449.49 364.029H445.38V371.229H449.61ZM446.985 368.169H449.25C449.805 368.169 450.36 368.364 450.36 369.099C450.36 369.789 449.88 370.014 449.22 370.014H446.985V368.169ZM446.985 365.244H449.13C449.625 365.244 450.15 365.454 450.15 366.159C450.15 366.804 449.7 367.029 449.13 367.029H446.985V365.244ZM454.978 371.229L458.833 366.519V371.229H460.438V364.029H459.058L455.203 368.739V364.029H453.598V371.229H454.978ZM464.05 371.229V368.334H467.65V371.229H469.255V364.029H467.65V366.924H464.05V364.029H462.445V371.229H464.05ZM470.814 367.629C470.814 370.119 472.704 371.424 474.714 371.424C476.739 371.424 478.614 370.119 478.614 367.629C478.614 365.139 476.739 363.834 474.714 363.834C472.704 363.834 470.814 365.139 470.814 367.629ZM476.979 367.629C476.979 369.039 476.049 369.954 474.714 369.954C473.364 369.954 472.434 369.039 472.434 367.629C472.434 366.219 473.364 365.304 474.714 365.304C476.049 365.304 476.979 366.219 476.979 367.629ZM481.775 371.229V368.244H482.93L485.3 371.229H487.145L484.25 367.599L486.86 364.029H485.03L482.96 366.879H481.775V364.029H480.17V371.229H481.775Z" fill="white"/>
<defs>
<filter id="filter0_d_1729_153" x="37" y="83.5059" width="97" height="497.759" filterUnits="userSpaceOnUse" color-interpolation-filters="sRGB">
<feFlood flood-opacity="0" result="BackgroundImageFix"/>
<feColorMatrix in="SourceAlpha" type="matrix" values="0 0 0 0 0 0 0 0 0 0 0 0 0 0 0 0 0 0 127 0" result="hardAlpha"/>
<feOffset dx="8" dy="4"/>
<feGaussianBlur stdDeviation="10.5"/>
<feComposite in2="hardAlpha" operator="out"/>
<feColorMatrix type="matrix" values="0 0 0 0 0 0 0 0 0 0 0 0 0 0 0 0 0 0 0.05 0"/>
<feBlend mode="normal" in2="BackgroundImageFix" result="effect1_dropShadow_1729_153"/>
<feBlend mode="normal" in="SourceGraphic" in2="effect1_dropShadow_1729_153" result="shape"/>
</filter>
<filter id="filter1_d_1729_153" x="84" y="28.7749" width="955" height="96.731" filterUnits="userSpaceOnUse" color-interpolation-filters="sRGB">
<feFlood flood-opacity="0" result="BackgroundImageFix"/>
<feColorMatrix in="SourceAlpha" type="matrix" values="0 0 0 0 0 0 0 0 0 0 0 0 0 0 0 0 0 0 127 0" result="hardAlpha"/>
<feOffset dy="4"/>
<feGaussianBlur stdDeviation="10.5"/>
<feComposite in2="hardAlpha" operator="out"/>
<feColorMatrix type="matrix" values="0 0 0 0 0 0 0 0 0 0 0 0 0 0 0 0 0 0 0.05 0"/>
<feBlend mode="normal" in2="BackgroundImageFix" result="effect1_dropShadow_1729_153"/>
<feBlend mode="normal" in="SourceGraphic" in2="effect1_dropShadow_1729_153" result="shape"/>
</filter>
</defs>
</svg>
