<svg width="1068" height="614" viewBox="40 0 1028 600" fill="none" xmlns="http://www.w3.org/2000/svg">
<path d="M60 61C60 52.7157 66.7157 46 75 46H1013C1021.28 46 1028 52.7157 1028 61V544C1028 552.284 1021.28 559 1013 559H75C66.7158 559 60 552.284 60 544V61Z" fill="white"/>
<path opacity="0.6" d="M824 297C853.271 297 877 273.271 877 244C877 214.729 853.271 191 824 191C794.729 191 771 214.729 771 244C771 273.271 794.729 297 824 297Z" fill="#FFE264"/>
<path d="M877 244C877 256.514 872.572 268.625 864.5 278.187C856.427 287.75 845.232 294.148 832.895 296.248C820.558 298.349 807.876 296.016 797.095 289.663C786.313 283.31 778.127 273.347 773.986 261.538C769.845 249.729 770.016 236.835 774.469 225.14C778.922 213.445 787.37 203.703 798.317 197.639C809.264 191.574 822.003 189.579 834.28 192.006C846.556 194.434 857.578 201.127 865.393 210.9L824 244H877Z" fill="#F28100"/>
<path d="M877 244C877 255.453 873.29 266.598 866.425 275.766C859.561 284.934 849.911 291.632 838.921 294.856C827.931 298.081 816.192 297.658 805.463 293.652C794.733 289.647 785.589 282.273 779.401 272.635C773.213 262.997 770.314 251.615 771.137 240.191C771.96 228.767 776.462 217.918 783.967 209.267C791.473 200.616 801.579 194.629 812.772 192.203C823.966 189.777 835.644 191.042 846.058 195.808L824 244H877Z" fill="#0FA7F0"/>
<path d="M650.5 136C650.5 133.515 652.515 131.5 655 131.5H993C995.485 131.5 997.5 133.515 997.5 136V317C997.5 319.485 995.485 321.5 993 321.5H655C652.515 321.5 650.5 319.485 650.5 317V136Z" stroke="#E6E6E6"/>
<path d="M650 136C650 133.239 652.239 131 655 131H993C995.761 131 998 133.239 998 136V166H650V136Z" fill="#0FA7F0"/>
<path d="M145.5 136C145.5 133.515 147.515 131.5 150 131.5H334C336.485 131.5 338.5 133.515 338.5 136V317C338.5 319.485 336.485 321.5 334 321.5H150C147.515 321.5 145.5 319.485 145.5 317V136Z" stroke="#E6E6E6"/>
<path d="M145 136C145 133.239 147.239 131 150 131H334C336.761 131 339 133.239 339 136V166H145V136Z" fill="#0FA7F0"/>
<path d="M166 199.5H318" stroke="#E6E6E6"/>
<path d="M166 219.5H318" stroke="#E6E6E6"/>
<path d="M166 208C166 206.895 166.895 206 168 206H316C317.105 206 318 206.895 318 208V211C318 212.105 317.105 213 316 213H168C166.895 213 166 212.105 166 211V208Z" fill="#E6E6E6"/>
<path d="M166 239.5H318" stroke="#E6E6E6"/>
<path d="M166 228C166 226.895 166.895 226 168 226H316C317.105 226 318 226.895 318 228V231C318 232.105 317.105 233 316 233H168C166.895 233 166 232.105 166 231V228Z" fill="#E6E6E6"/>
<path d="M166 259.5H318" stroke="#E6E6E6"/>
<path d="M166 248C166 246.895 166.895 246 168 246H316C317.105 246 318 246.895 318 248V251C318 252.105 317.105 253 316 253H168C166.895 253 166 252.105 166 251V248Z" fill="#E6E6E6"/>
<path d="M166 279.5H318" stroke="#E6E6E6"/>
<path d="M166 268C166 266.895 166.895 266 168 266H316C317.105 266 318 266.895 318 268V271C318 272.105 317.105 273 316 273H168C166.895 273 166 272.105 166 271V268Z" fill="#E6E6E6"/>
<path d="M166 299.5H318" stroke="#E6E6E6"/>
<path d="M166 288C166 286.895 166.895 286 168 286H316C317.105 286 318 286.895 318 288V291C318 292.105 317.105 293 316 293H168C166.895 293 166 292.105 166 291V288Z" fill="#E6E6E6"/>
<path d="M268 186H168C166.895 186 166 186.895 166 188V191C166 192.105 166.895 193 168 193H268C269.105 193 270 192.105 270 191V188C270 186.895 269.105 186 268 186Z" fill="#B3B3B3"/>
<path d="M148.086 527.621C146.864 527.114 145.886 526.136 145.379 524.914L145.841 524.722C145.622 524.193 145.5 523.611 145.5 523V519.542H145V512.625H145.5V505.708H145V498.792H145.5V491.875H145V484.958H145.5V478.042H145V471.125H145.5V464.208H145V457.292H145.5V450.375H145V443.458H145.5V436.542H145V429.625H145.5V422.708H145V415.792H145.5V408.875H145V401.958H145.5V395.042H145V388.125H145.5V381.208H145V374.292H145.5V367.375H145V360.458H145.5V357C145.5 356.389 145.622 355.807 145.841 355.278L145.379 355.086C145.886 353.864 146.864 352.886 148.086 352.379L148.278 352.841C148.807 352.622 149.389 352.5 150 352.5H153.539V352H160.615V352.5H167.692V352H174.769V352.5H181.846V352H188.923V352.5H196V352H203.077V352.5H210.154V352H217.231V352.5H224.308V352H231.385V352.5H238.462V352H245.538V352.5H252.615V352H259.692V352.5H266.769V352H273.846V352.5H280.923V352H288V352.5H295.077V352H302.154V352.5H309.231V352H316.308V352.5H323.385V352H330.462V352.5H334C334.611 352.5 335.193 352.622 335.722 352.841L335.914 352.379C337.136 352.886 338.114 353.864 338.621 355.086L338.159 355.278C338.378 355.807 338.5 356.389 338.5 357V360.458H339V367.375H338.5V374.292H339V381.208H338.5V388.125H339V395.042H338.5V401.958H339V408.875H338.5V415.792H339V422.708H338.5V429.625H339V436.542H338.5V443.458H339V450.375H338.5V457.292H339V464.208H338.5V471.125H339V478.042H338.5V484.958H339V491.875H338.5V498.792H339V505.708H338.5V512.625H339V519.542H338.5V523C338.5 523.611 338.378 524.193 338.159 524.722L338.621 524.914C338.114 526.136 337.136 527.114 335.914 527.621L335.722 527.159C335.193 527.378 334.611 527.5 334 527.5H330.461V528H323.385V527.5H316.308V528H309.231V527.5H302.154V528H295.077V527.5H288V528H280.923V527.5H273.846V528H266.769V527.5H259.692V528H252.615V527.5H245.538V528H238.462V527.5H231.385V528H224.308V527.5H217.231V528H210.154V527.5H203.077V528H196V527.5H188.923V528H181.846V527.5H174.769V528H167.692V527.5H160.615V528H153.538V527.5H150C149.389 527.5 148.807 527.378 148.278 527.159L148.086 527.621Z" stroke="#E6E6E6" stroke-dasharray="7 7"/>
<path d="M145.954 528.884C145.576 528.728 145.274 528.428 145.117 528.053L145.26 527.994C145.192 527.832 145.155 527.653 145.155 527.466V526.405H145V524.283H145.155V522.16H145V520.038H145.155V517.916H145V515.794H145.155V513.672H145V511.55H145.155V509.427H145V507.305H145.155V505.183H145V503.061H145.155V500.939H145V498.817H145.155V496.695H145V494.573H145.155V492.45H145V490.328H145.155V488.206H145V486.084H145.155V483.962H145V481.84H145.155V479.717H145V477.595H145.155V476.534C145.155 476.347 145.192 476.168 145.26 476.006L145.117 475.947C145.274 475.572 145.576 475.272 145.954 475.116L146.014 475.258C146.177 475.191 146.357 475.153 146.546 475.153H147.641V475H149.829V475.153H152.018V475H154.207V475.153H156.396V475H158.584V475.153H160.773V475H162.962V475.153H165.151V475H167.339V475.153H169.528V475H171.717V475.153H173.906V475H176.094V475.153H178.283V475H180.472V475.153H182.661V475H184.849V475.153H187.038V475H189.227V475.153H191.416V475H193.604V475.153H195.793V475H197.982V475.153H200.171V475H202.359V475.153H203.454C203.643 475.153 203.823 475.191 203.986 475.258L204.046 475.116C204.424 475.272 204.726 475.572 204.883 475.947L204.74 476.006C204.808 476.168 204.845 476.347 204.845 476.534V477.595H205V479.717H204.845V481.84H205V483.962H204.845V486.084H205V488.206H204.845V490.328H205V492.45H204.845V494.573H205V496.695H204.845V498.817H205V500.939H204.845V503.061H205V505.183H204.845V507.305H205V509.427H204.845V511.55H205V513.672H204.845V515.794H205V517.916H204.845V520.038H205V522.16H204.845V524.283H205V526.405H204.845V527.466C204.845 527.653 204.808 527.832 204.74 527.994L204.883 528.053C204.726 528.428 204.424 528.728 204.046 528.884L203.986 528.742C203.823 528.809 203.643 528.847 203.454 528.847H202.359V529H200.171V528.847H197.982V529H195.793V528.847H193.604V529H191.416V528.847H189.227V529H187.038V528.847H184.849V529H182.661V528.847H180.472V529H178.283V528.847H176.094V529H173.906V528.847H171.717V529H169.528V528.847H167.339V529H165.151V528.847H162.962V529H160.773V528.847H158.584V529H156.396V528.847H154.207V529H152.018V528.847H149.829V529H147.641V528.847H146.546C146.357 528.847 146.177 528.809 146.014 528.742L145.954 528.884Z" stroke="#E6E6E6" stroke-dasharray="7 7"/>
<path d="M145.954 405.884C145.576 405.728 145.274 405.428 145.117 405.053L145.26 404.994C145.192 404.832 145.155 404.653 145.155 404.466V403.405H145V401.283H145.155V399.16H145V397.038H145.155V394.916H145V392.794H145.155V390.672H145V388.55H145.155V386.427H145V384.305H145.155V382.183H145V380.061H145.155V377.939H145V375.817H145.155V373.695H145V371.573H145.155V369.45H145V367.328H145.155V365.206H145V363.084H145.155V360.962H145V358.84H145.155V356.717H145V354.595H145.155V353.534C145.155 353.347 145.192 353.168 145.26 353.006L145.117 352.947C145.274 352.572 145.576 352.272 145.954 352.116L146.014 352.258C146.177 352.191 146.357 352.153 146.546 352.153H147.641V352H149.829V352.153H152.018V352H154.207V352.153H156.396V352H158.584V352.153H160.773V352H162.962V352.153H165.151V352H167.339V352.153H169.528V352H171.717V352.153H173.906V352H176.094V352.153H178.283V352H180.472V352.153H182.661V352H184.849V352.153H187.038V352H189.227V352.153H191.416V352H193.604V352.153H195.793V352H197.982V352.153H200.171V352H202.359V352.153H203.454C203.643 352.153 203.823 352.191 203.986 352.258L204.046 352.116C204.424 352.272 204.726 352.572 204.883 352.947L204.74 353.006C204.808 353.168 204.845 353.347 204.845 353.534V354.595H205V356.717H204.845V358.84H205V360.962H204.845V363.084H205V365.206H204.845V367.328H205V369.45H204.845V371.573H205V373.695H204.845V375.817H205V377.939H204.845V380.061H205V382.183H204.845V384.305H205V386.427H204.845V388.55H205V390.672H204.845V392.794H205V394.916H204.845V397.038H205V399.16H204.845V401.283H205V403.405H204.845V404.466C204.845 404.653 204.808 404.832 204.74 404.994L204.883 405.053C204.726 405.428 204.424 405.728 204.046 405.884L203.986 405.742C203.823 405.809 203.643 405.847 203.454 405.847H202.359V406H200.171V405.847H197.982V406H195.793V405.847H193.604V406H191.416V405.847H189.227V406H187.038V405.847H184.849V406H182.661V405.847H180.472V406H178.283V405.847H176.094V406H173.906V405.847H171.717V406H169.528V405.847H167.339V406H165.151V405.847H162.962V406H160.773V405.847H158.584V406H156.396V405.847H154.207V406H152.018V405.847H149.829V406H147.641V405.847H146.546C146.357 405.847 146.177 405.809 146.014 405.742L145.954 405.884Z" stroke="#E6E6E6" stroke-dasharray="7 7"/>
<path d="M145.954 466.884C145.576 466.728 145.274 466.428 145.117 466.053L145.26 465.994C145.192 465.832 145.155 465.653 145.155 465.466V464.405H145V462.283H145.155V460.16H145V458.038H145.155V455.916H145V453.794H145.155V451.672H145V449.55H145.155V447.427H145V445.305H145.155V443.183H145V441.061H145.155V438.939H145V436.817H145.155V434.695H145V432.573H145.155V430.45H145V428.328H145.155V426.206H145V424.084H145.155V421.962H145V419.84H145.155V417.717H145V415.595H145.155V414.534C145.155 414.347 145.192 414.168 145.26 414.006L145.117 413.947C145.274 413.572 145.576 413.272 145.954 413.116L146.014 413.258C146.177 413.191 146.357 413.153 146.546 413.153H147.641V413H149.829V413.153H152.018V413H154.207V413.153H156.396V413H158.584V413.153H160.773V413H162.962V413.153H165.151V413H167.339V413.153H169.528V413H171.717V413.153H173.906V413H176.094V413.153H178.283V413H180.472V413.153H182.661V413H184.849V413.153H187.038V413H189.227V413.153H191.416V413H193.604V413.153H195.793V413H197.982V413.153H200.171V413H202.359V413.153H203.454C203.643 413.153 203.823 413.191 203.986 413.258L204.046 413.116C204.424 413.272 204.726 413.572 204.883 413.947L204.74 414.006C204.808 414.168 204.845 414.347 204.845 414.534V415.595H205V417.717H204.845V419.84H205V421.962H204.845V424.084H205V426.206H204.845V428.328H205V430.45H204.845V432.573H205V434.695H204.845V436.817H205V438.939H204.845V441.061H205V443.183H204.845V445.305H205V447.427H204.845V449.55H205V451.672H204.845V453.794H205V455.916H204.845V458.038H205V460.16H204.845V462.283H205V464.405H204.845V465.466C204.845 465.653 204.808 465.832 204.74 465.994L204.883 466.053C204.726 466.428 204.424 466.728 204.046 466.884L203.986 466.742C203.823 466.809 203.643 466.847 203.454 466.847H202.359V467H200.171V466.847H197.982V467H195.793V466.847H193.604V467H191.416V466.847H189.227V467H187.038V466.847H184.849V467H182.661V466.847H180.472V467H178.283V466.847H176.094V467H173.906V466.847H171.717V467H169.528V466.847H167.339V467H165.151V466.847H162.962V467H160.773V466.847H158.584V467H156.396V466.847H154.207V467H152.018V466.847H149.829V467H147.641V466.847H146.546C146.357 466.847 146.177 466.809 146.014 466.742L145.954 466.884Z" stroke="#E6E6E6" stroke-dasharray="7 7"/>
<path d="M212.954 528.884C212.576 528.728 212.274 528.428 212.117 528.053L212.26 527.994C212.192 527.832 212.155 527.653 212.155 527.466V526.405H212V524.283H212.155V522.16H212V520.038H212.155V517.916H212V515.794H212.155V513.672H212V511.55H212.155V509.427H212V507.305H212.155V505.183H212V503.061H212.155V500.939H212V498.817H212.155V496.695H212V494.573H212.155V492.45H212V490.328H212.155V488.206H212V486.084H212.155V483.962H212V481.84H212.155V479.717H212V477.595H212.155V476.534C212.155 476.347 212.192 476.168 212.26 476.006L212.117 475.947C212.274 475.572 212.576 475.272 212.954 475.116L213.014 475.258C213.177 475.191 213.357 475.153 213.546 475.153H214.641V475H216.829V475.153H219.018V475H221.207V475.153H223.396V475H225.584V475.153H227.773V475H229.962V475.153H232.151V475H234.339V475.153H236.528V475H238.717V475.153H240.906V475H243.094V475.153H245.283V475H247.472V475.153H249.661V475H251.849V475.153H254.038V475H256.227V475.153H258.416V475H260.604V475.153H262.793V475H264.982V475.153H267.171V475H269.359V475.153H270.454C270.643 475.153 270.823 475.191 270.986 475.258L271.046 475.116C271.424 475.272 271.726 475.572 271.883 475.947L271.74 476.006C271.808 476.168 271.845 476.347 271.845 476.534V477.595H272V479.717H271.845V481.84H272V483.962H271.845V486.084H272V488.206H271.845V490.328H272V492.45H271.845V494.573H272V496.695H271.845V498.817H272V500.939H271.845V503.061H272V505.183H271.845V507.305H272V509.427H271.845V511.55H272V513.672H271.845V515.794H272V517.916H271.845V520.038H272V522.16H271.845V524.283H272V526.405H271.845V527.466C271.845 527.653 271.808 527.832 271.74 527.994L271.883 528.053C271.726 528.428 271.424 528.728 271.046 528.884L270.986 528.742C270.823 528.809 270.643 528.847 270.454 528.847H269.359V529H267.171V528.847H264.982V529H262.793V528.847H260.604V529H258.416V528.847H256.227V529H254.038V528.847H251.849V529H249.661V528.847H247.472V529H245.283V528.847H243.094V529H240.906V528.847H238.717V529H236.528V528.847H234.339V529H232.151V528.847H229.962V529H227.773V528.847H225.584V529H223.396V528.847H221.207V529H219.018V528.847H216.829V529H214.641V528.847H213.546C213.357 528.847 213.177 528.809 213.014 528.742L212.954 528.884Z" stroke="#E6E6E6" stroke-dasharray="7 7"/>
<path d="M212.954 405.884C212.576 405.728 212.274 405.428 212.117 405.053L212.26 404.994C212.192 404.832 212.155 404.653 212.155 404.466V403.405H212V401.283H212.155V399.16H212V397.038H212.155V394.916H212V392.794H212.155V390.672H212V388.55H212.155V386.427H212V384.305H212.155V382.183H212V380.061H212.155V377.939H212V375.817H212.155V373.695H212V371.573H212.155V369.45H212V367.328H212.155V365.206H212V363.084H212.155V360.962H212V358.84H212.155V356.717H212V354.595H212.155V353.534C212.155 353.347 212.192 353.168 212.26 353.006L212.117 352.947C212.274 352.572 212.576 352.272 212.954 352.116L213.014 352.258C213.177 352.191 213.357 352.153 213.546 352.153H214.641V352H216.829V352.153H219.018V352H221.207V352.153H223.396V352H225.584V352.153H227.773V352H229.962V352.153H232.151V352H234.339V352.153H236.528V352H238.717V352.153H240.906V352H243.094V352.153H245.283V352H247.472V352.153H249.661V352H251.849V352.153H254.038V352H256.227V352.153H258.416V352H260.604V352.153H262.793V352H264.982V352.153H267.171V352H269.359V352.153H270.454C270.643 352.153 270.823 352.191 270.986 352.258L271.046 352.116C271.424 352.272 271.726 352.572 271.883 352.947L271.74 353.006C271.808 353.168 271.845 353.347 271.845 353.534V354.595H272V356.717H271.845V358.84H272V360.962H271.845V363.084H272V365.206H271.845V367.328H272V369.45H271.845V371.573H272V373.695H271.845V375.817H272V377.939H271.845V380.061H272V382.183H271.845V384.305H272V386.427H271.845V388.55H272V390.672H271.845V392.794H272V394.916H271.845V397.038H272V399.16H271.845V401.283H272V403.405H271.845V404.466C271.845 404.653 271.808 404.832 271.74 404.994L271.883 405.053C271.726 405.428 271.424 405.728 271.046 405.884L270.986 405.742C270.823 405.809 270.643 405.847 270.454 405.847H269.359V406H267.171V405.847H264.982V406H262.793V405.847H260.604V406H258.416V405.847H256.227V406H254.038V405.847H251.849V406H249.661V405.847H247.472V406H245.283V405.847H243.094V406H240.906V405.847H238.717V406H236.528V405.847H234.339V406H232.151V405.847H229.962V406H227.773V405.847H225.584V406H223.396V405.847H221.207V406H219.018V405.847H216.829V406H214.641V405.847H213.546C213.357 405.847 213.177 405.809 213.014 405.742L212.954 405.884Z" stroke="#E6E6E6" stroke-dasharray="7 7"/>
<path d="M212.954 466.884C212.576 466.728 212.274 466.428 212.117 466.053L212.26 465.994C212.192 465.832 212.155 465.653 212.155 465.466V464.405H212V462.283H212.155V460.16H212V458.038H212.155V455.916H212V453.794H212.155V451.672H212V449.55H212.155V447.427H212V445.305H212.155V443.183H212V441.061H212.155V438.939H212V436.817H212.155V434.695H212V432.573H212.155V430.45H212V428.328H212.155V426.206H212V424.084H212.155V421.962H212V419.84H212.155V417.717H212V415.595H212.155V414.534C212.155 414.347 212.192 414.168 212.26 414.006L212.117 413.947C212.274 413.572 212.576 413.272 212.954 413.116L213.014 413.258C213.177 413.191 213.357 413.153 213.546 413.153H214.641V413H216.829V413.153H219.018V413H221.207V413.153H223.396V413H225.584V413.153H227.773V413H229.962V413.153H232.151V413H234.339V413.153H236.528V413H238.717V413.153H240.906V413H243.094V413.153H245.283V413H247.472V413.153H249.661V413H251.849V413.153H254.038V413H256.227V413.153H258.416V413H260.604V413.153H262.793V413H264.982V413.153H267.171V413H269.359V413.153H270.454C270.643 413.153 270.823 413.191 270.986 413.258L271.046 413.116C271.424 413.272 271.726 413.572 271.883 413.947L271.74 414.006C271.808 414.168 271.845 414.347 271.845 414.534V415.595H272V417.717H271.845V419.84H272V421.962H271.845V424.084H272V426.206H271.845V428.328H272V430.45H271.845V432.573H272V434.695H271.845V436.817H272V438.939H271.845V441.061H272V443.183H271.845V445.305H272V447.427H271.845V449.55H272V451.672H271.845V453.794H272V455.916H271.845V458.038H272V460.16H271.845V462.283H272V464.405H271.845V465.466C271.845 465.653 271.808 465.832 271.74 465.994L271.883 466.053C271.726 466.428 271.424 466.728 271.046 466.884L270.986 466.742C270.823 466.809 270.643 466.847 270.454 466.847H269.359V467H267.171V466.847H264.982V467H262.793V466.847H260.604V467H258.416V466.847H256.227V467H254.038V466.847H251.849V467H249.661V466.847H247.472V467H245.283V466.847H243.094V467H240.906V466.847H238.717V467H236.528V466.847H234.339V467H232.151V466.847H229.962V467H227.773V466.847H225.584V467H223.396V466.847H221.207V467H219.018V466.847H216.829V467H214.641V466.847H213.546C213.357 466.847 213.177 466.809 213.014 466.742L212.954 466.884Z" stroke="#E6E6E6" stroke-dasharray="7 7"/>
<path d="M279.954 528.884C279.576 528.728 279.274 528.428 279.117 528.053L279.26 527.994C279.192 527.832 279.155 527.653 279.155 527.466V526.405H279V524.283H279.155V522.16H279V520.038H279.155V517.916H279V515.794H279.155V513.672H279V511.55H279.155V509.427H279V507.305H279.155V505.183H279V503.061H279.155V500.939H279V498.817H279.155V496.695H279V494.573H279.155V492.45H279V490.328H279.155V488.206H279V486.084H279.155V483.962H279V481.84H279.155V479.717H279V477.595H279.155V476.534C279.155 476.347 279.192 476.168 279.26 476.006L279.117 475.947C279.274 475.572 279.576 475.272 279.954 475.116L280.014 475.258C280.177 475.191 280.357 475.153 280.546 475.153H281.641V475H283.829V475.153H286.018V475H288.207V475.153H290.396V475H292.584V475.153H294.773V475H296.962V475.153H299.151V475H301.339V475.153H303.528V475H305.717V475.153H307.906V475H310.094V475.153H312.283V475H314.472V475.153H316.661V475H318.849V475.153H321.038V475H323.227V475.153H325.416V475H327.604V475.153H329.793V475H331.982V475.153H334.171V475H336.359V475.153H337.454C337.643 475.153 337.823 475.191 337.986 475.258L338.046 475.116C338.424 475.272 338.726 475.572 338.883 475.947L338.74 476.006C338.808 476.168 338.845 476.347 338.845 476.534V477.595H339V479.717H338.845V481.84H339V483.962H338.845V486.084H339V488.206H338.845V490.328H339V492.45H338.845V494.573H339V496.695H338.845V498.817H339V500.939H338.845V503.061H339V505.183H338.845V507.305H339V509.427H338.845V511.55H339V513.672H338.845V515.794H339V517.916H338.845V520.038H339V522.16H338.845V524.283H339V526.405H338.845V527.466C338.845 527.653 338.808 527.832 338.74 527.994L338.883 528.053C338.726 528.428 338.424 528.728 338.046 528.884L337.986 528.742C337.823 528.809 337.643 528.847 337.454 528.847H336.359V529H334.171V528.847H331.982V529H329.793V528.847H327.604V529H325.416V528.847H323.227V529H321.038V528.847H318.849V529H316.661V528.847H314.472V529H312.283V528.847H310.094V529H307.906V528.847H305.717V529H303.528V528.847H301.339V529H299.151V528.847H296.962V529H294.773V528.847H292.584V529H290.396V528.847H288.207V529H286.018V528.847H283.829V529H281.641V528.847H280.546C280.357 528.847 280.177 528.809 280.014 528.742L279.954 528.884Z" stroke="#E6E6E6" stroke-dasharray="7 7"/>
<path d="M279.954 405.884C279.576 405.728 279.274 405.428 279.117 405.053L279.26 404.994C279.192 404.832 279.155 404.653 279.155 404.466V403.405H279V401.283H279.155V399.16H279V397.038H279.155V394.916H279V392.794H279.155V390.672H279V388.55H279.155V386.427H279V384.305H279.155V382.183H279V380.061H279.155V377.939H279V375.817H279.155V373.695H279V371.573H279.155V369.45H279V367.328H279.155V365.206H279V363.084H279.155V360.962H279V358.84H279.155V356.717H279V354.595H279.155V353.534C279.155 353.347 279.192 353.168 279.26 353.006L279.117 352.947C279.274 352.572 279.576 352.272 279.954 352.116L280.014 352.258C280.177 352.191 280.357 352.153 280.546 352.153H281.641V352H283.829V352.153H286.018V352H288.207V352.153H290.396V352H292.584V352.153H294.773V352H296.962V352.153H299.151V352H301.339V352.153H303.528V352H305.717V352.153H307.906V352H310.094V352.153H312.283V352H314.472V352.153H316.661V352H318.849V352.153H321.038V352H323.227V352.153H325.416V352H327.604V352.153H329.793V352H331.982V352.153H334.171V352H336.359V352.153H337.454C337.643 352.153 337.823 352.191 337.986 352.258L338.046 352.116C338.424 352.272 338.726 352.572 338.883 352.947L338.74 353.006C338.808 353.168 338.845 353.347 338.845 353.534V354.595H339V356.717H338.845V358.84H339V360.962H338.845V363.084H339V365.206H338.845V367.328H339V369.45H338.845V371.573H339V373.695H338.845V375.817H339V377.939H338.845V380.061H339V382.183H338.845V384.305H339V386.427H338.845V388.55H339V390.672H338.845V392.794H339V394.916H338.845V397.038H339V399.16H338.845V401.283H339V403.405H338.845V404.466C338.845 404.653 338.808 404.832 338.74 404.994L338.883 405.053C338.726 405.428 338.424 405.728 338.046 405.884L337.986 405.742C337.823 405.809 337.643 405.847 337.454 405.847H336.359V406H334.171V405.847H331.982V406H329.793V405.847H327.604V406H325.416V405.847H323.227V406H321.038V405.847H318.849V406H316.661V405.847H314.472V406H312.283V405.847H310.094V406H307.906V405.847H305.717V406H303.528V405.847H301.339V406H299.151V405.847H296.962V406H294.773V405.847H292.584V406H290.396V405.847H288.207V406H286.018V405.847H283.829V406H281.641V405.847H280.546C280.357 405.847 280.177 405.809 280.014 405.742L279.954 405.884Z" stroke="#E6E6E6" stroke-dasharray="7 7"/>
<path d="M279.954 466.884C279.576 466.728 279.274 466.428 279.117 466.053L279.26 465.994C279.192 465.832 279.155 465.653 279.155 465.466V464.405H279V462.283H279.155V460.16H279V458.038H279.155V455.916H279V453.794H279.155V451.672H279V449.55H279.155V447.427H279V445.305H279.155V443.183H279V441.061H279.155V438.939H279V436.817H279.155V434.695H279V432.573H279.155V430.45H279V428.328H279.155V426.206H279V424.084H279.155V421.962H279V419.84H279.155V417.717H279V415.595H279.155V414.534C279.155 414.347 279.192 414.168 279.26 414.006L279.117 413.947C279.274 413.572 279.576 413.272 279.954 413.116L280.014 413.258C280.177 413.191 280.357 413.153 280.546 413.153H281.641V413H283.829V413.153H286.018V413H288.207V413.153H290.396V413H292.584V413.153H294.773V413H296.962V413.153H299.151V413H301.339V413.153H303.528V413H305.717V413.153H307.906V413H310.094V413.153H312.283V413H314.472V413.153H316.661V413H318.849V413.153H321.038V413H323.227V413.153H325.416V413H327.604V413.153H329.793V413H331.982V413.153H334.171V413H336.359V413.153H337.454C337.643 413.153 337.823 413.191 337.986 413.258L338.046 413.116C338.424 413.272 338.726 413.572 338.883 413.947L338.74 414.006C338.808 414.168 338.845 414.347 338.845 414.534V415.595H339V417.717H338.845V419.84H339V421.962H338.845V424.084H339V426.206H338.845V428.328H339V430.45H338.845V432.573H339V434.695H338.845V436.817H339V438.939H338.845V441.061H339V443.183H338.845V445.305H339V447.427H338.845V449.55H339V451.672H338.845V453.794H339V455.916H338.845V458.038H339V460.16H338.845V462.283H339V464.405H338.845V465.466C338.845 465.653 338.808 465.832 338.74 465.994L338.883 466.053C338.726 466.428 338.424 466.728 338.046 466.884L337.986 466.742C337.823 466.809 337.643 466.847 337.454 466.847H336.359V467H334.171V466.847H331.982V467H329.793V466.847H327.604V467H325.416V466.847H323.227V467H321.038V466.847H318.849V467H316.661V466.847H314.472V467H312.283V466.847H310.094V467H307.906V466.847H305.717V467H303.528V466.847H301.339V467H299.151V466.847H296.962V467H294.773V466.847H292.584V467H290.396V466.847H288.207V467H286.018V466.847H283.829V467H281.641V466.847H280.546C280.357 466.847 280.177 466.809 280.014 466.742L279.954 466.884Z" stroke="#E6E6E6" stroke-dasharray="7 7"/>
<path d="M369.5 136C369.5 133.515 371.515 131.5 374 131.5H614C616.485 131.5 618.5 133.515 618.5 136V317C618.5 319.485 616.485 321.5 614 321.5H374C371.515 321.5 369.5 319.485 369.5 317V136Z" stroke="#E6E6E6"/>
<path d="M369 136C369 133.239 371.239 131 374 131H614C616.761 131 619 133.239 619 136V166H369V136Z" fill="#0FA7F0"/>
<path d="M390 189C390 187.343 391.343 186 393 186H595C596.657 186 598 187.343 598 189V198C598 199.657 596.657 201 595 201H393C391.343 201 390 199.657 390 198V189Z" fill="#E6E6E6"/>
<path d="M395 192C395 190.895 395.895 190 397 190H438C439.105 190 440 190.895 440 192V195C440 196.105 439.105 197 438 197H397C395.895 197 395 196.105 395 195V192Z" fill="#B3B3B3"/>
<path d="M446 192C446 190.895 446.895 190 448 190H489C490.105 190 491 190.895 491 192V195C491 196.105 490.105 197 489 197H448C446.895 197 446 196.105 446 195V192Z" fill="#B3B3B3"/>
<path d="M497 192C497 190.895 497.895 190 499 190H540C541.105 190 542 190.895 542 192V195C542 196.105 541.105 197 540 197H499C497.895 197 497 196.105 497 195V192Z" fill="#B3B3B3"/>
<path d="M548 192C548 190.895 548.895 190 550 190H591C592.105 190 593 190.895 593 192V195C593 196.105 592.105 197 591 197H550C548.895 197 548 196.105 548 195V192Z" fill="#B3B3B3"/>
<path d="M390 218.5H598" stroke="#E1E1E9"/>
<path d="M395 208C395 206.895 395.895 206 397 206H438C439.105 206 440 206.895 440 208V211C440 212.105 439.105 213 438 213H397C395.895 213 395 212.105 395 211V208Z" fill="#B3B3B3"/>
<path d="M446 208C446 206.895 446.895 206 448 206H489C490.105 206 491 206.895 491 208V211C491 212.105 490.105 213 489 213H448C446.895 213 446 212.105 446 211V208Z" fill="#E6E6E6"/>
<path d="M497 208C497 206.895 497.895 206 499 206H540C541.105 206 542 206.895 542 208V211C542 212.105 541.105 213 540 213H499C497.895 213 497 212.105 497 211V208Z" fill="#E6E6E6"/>
<path d="M548 208C548 206.895 548.895 206 550 206H591C592.105 206 593 206.895 593 208V211C593 212.105 592.105 213 591 213H550C548.895 213 548 212.105 548 211V208Z" fill="#E6E6E6"/>
<path d="M390 236.5H598" stroke="#E1E1E9"/>
<path d="M395 226C395 224.895 395.895 224 397 224H438C439.105 224 440 224.895 440 226V229C440 230.105 439.105 231 438 231H397C395.895 231 395 230.105 395 229V226Z" fill="#B3B3B3"/>
<path d="M446 226C446 224.895 446.895 224 448 224H489C490.105 224 491 224.895 491 226V229C491 230.105 490.105 231 489 231H448C446.895 231 446 230.105 446 229V226Z" fill="#E6E6E6"/>
<path d="M497 226C497 224.895 497.895 224 499 224H540C541.105 224 542 224.895 542 226V229C542 230.105 541.105 231 540 231H499C497.895 231 497 230.105 497 229V226Z" fill="#E6E6E6"/>
<path d="M548 226C548 224.895 548.895 224 550 224H591C592.105 224 593 224.895 593 226V229C593 230.105 592.105 231 591 231H550C548.895 231 548 230.105 548 229V226Z" fill="#E6E6E6"/>
<path d="M390 254.5H598" stroke="#E1E1E9"/>
<path d="M395 244C395 242.895 395.895 242 397 242H438C439.105 242 440 242.895 440 244V247C440 248.105 439.105 249 438 249H397C395.895 249 395 248.105 395 247V244Z" fill="#B3B3B3"/>
<path d="M446 244C446 242.895 446.895 242 448 242H489C490.105 242 491 242.895 491 244V247C491 248.105 490.105 249 489 249H448C446.895 249 446 248.105 446 247V244Z" fill="#E6E6E6"/>
<path d="M497 244C497 242.895 497.895 242 499 242H540C541.105 242 542 242.895 542 244V247C542 248.105 541.105 249 540 249H499C497.895 249 497 248.105 497 247V244Z" fill="#E6E6E6"/>
<path d="M548 244C548 242.895 548.895 242 550 242H591C592.105 242 593 242.895 593 244V247C593 248.105 592.105 249 591 249H550C548.895 249 548 248.105 548 247V244Z" fill="#E6E6E6"/>
<path d="M390 272.5H598" stroke="#E1E1E9"/>
<path d="M395 262C395 260.895 395.895 260 397 260H438C439.105 260 440 260.895 440 262V265C440 266.105 439.105 267 438 267H397C395.895 267 395 266.105 395 265V262Z" fill="#B3B3B3"/>
<path d="M446 262C446 260.895 446.895 260 448 260H489C490.105 260 491 260.895 491 262V265C491 266.105 490.105 267 489 267H448C446.895 267 446 266.105 446 265V262Z" fill="#E6E6E6"/>
<path d="M497 262C497 260.895 497.895 260 499 260H540C541.105 260 542 260.895 542 262V265C542 266.105 541.105 267 540 267H499C497.895 267 497 266.105 497 265V262Z" fill="#E6E6E6"/>
<path d="M548 262C548 260.895 548.895 260 550 260H591C592.105 260 593 260.895 593 262V265C593 266.105 592.105 267 591 267H550C548.895 267 548 266.105 548 265V262Z" fill="#E6E6E6"/>
<path d="M390 290.5H598" stroke="#E1E1E9"/>
<path d="M395 280C395 278.895 395.895 278 397 278H438C439.105 278 440 278.895 440 280V283C440 284.105 439.105 285 438 285H397C395.895 285 395 284.105 395 283V280Z" fill="#B3B3B3"/>
<path d="M446 280C446 278.895 446.895 278 448 278H489C490.105 278 491 278.895 491 280V283C491 284.105 490.105 285 489 285H448C446.895 285 446 284.105 446 283V280Z" fill="#E6E6E6"/>
<path d="M497 280C497 278.895 497.895 278 499 278H540C541.105 278 542 278.895 542 280V283C542 284.105 541.105 285 540 285H499C497.895 285 497 284.105 497 283V280Z" fill="#E6E6E6"/>
<path d="M548 280C548 278.895 548.895 278 550 278H591C592.105 278 593 278.895 593 280V283C593 284.105 592.105 285 591 285H550C548.895 285 548 284.105 548 283V280Z" fill="#E6E6E6"/>
<path d="M395 298C395 296.895 395.895 296 397 296H438C439.105 296 440 296.895 440 298V301C440 302.105 439.105 303 438 303H397C395.895 303 395 302.105 395 301V298Z" fill="#B3B3B3"/>
<path d="M446 298C446 296.895 446.895 296 448 296H489C490.105 296 491 296.895 491 298V301C491 302.105 490.105 303 489 303H448C446.895 303 446 302.105 446 301V298Z" fill="#E6E6E6"/>
<path d="M497 298C497 296.895 497.895 296 499 296H540C541.105 296 542 296.895 542 298V301C542 302.105 541.105 303 540 303H499C497.895 303 497 302.105 497 301V298Z" fill="#E6E6E6"/>
<path d="M548 298C548 296.895 548.895 296 550 296H591C592.105 296 593 296.895 593 298V301C593 302.105 592.105 303 591 303H550C548.895 303 548 302.105 548 301V298Z" fill="#E6E6E6"/>
<path d="M993 382.5H374C371.515 382.5 369.5 384.515 369.5 387V523C369.5 525.485 371.515 527.5 374 527.5H993C995.485 527.5 997.5 525.485 997.5 523V387C997.5 384.515 995.485 382.5 993 382.5Z" stroke="#E6E6E6"/>
<path d="M369 357C369 354.239 371.239 352 374 352H993C995.761 352 998 354.239 998 357V387H369V357Z" fill="#0FA7F0"/>
<path d="M389 472C389 470.895 389.895 470 391 470H400C401.105 470 402 470.895 402 472V505C402 506.105 401.105 507 400 507H391C389.895 507 389 506.105 389 505V472Z" fill="#0FA7F0"/>
<path d="M573 472C573 470.895 573.895 470 575 470H584C585.105 470 586 470.895 586 472V505C586 506.105 585.105 507 584 507H575C573.895 507 573 506.105 573 505V472Z" fill="#0FA7F0"/>
<path d="M412 472C412 470.895 412.895 470 414 470H423C424.105 470 425 470.895 425 472V505C425 506.105 424.105 507 423 507H414C412.895 507 412 506.105 412 505V472Z" fill="#0FA7F0"/>
<path d="M596 472C596 470.895 596.895 470 598 470H607C608.105 470 609 470.895 609 472V505C609 506.105 608.105 507 607 507H598C596.895 507 596 506.105 596 505V472Z" fill="#0FA7F0"/>
<path d="M527 472C527 470.895 527.895 470 529 470H538C539.105 470 540 470.895 540 472V505C540 506.105 539.105 507 538 507H529C527.895 507 527 506.105 527 505V472Z" fill="#0FA7F0"/>
<path d="M711 472C711 470.895 711.895 470 713 470H722C723.105 470 724 470.895 724 472V505C724 506.105 723.105 507 722 507H713C711.895 507 711 506.105 711 505V472Z" fill="#0FA7F0"/>
<path d="M550 490C550 488.895 550.895 488 552 488H561C562.105 488 563 488.895 563 490V505C563 506.105 562.105 507 561 507H552C550.895 507 550 506.105 550 505V490Z" fill="#0FA7F0"/>
<path d="M734 490C734 488.895 734.895 488 736 488H745C746.105 488 747 488.895 747 490V505C747 506.105 746.105 507 745 507H736C734.895 507 734 506.105 734 505V490Z" fill="#0FA7F0"/>
<path d="M918 490C918 488.895 918.895 488 920 488H929C930.105 488 931 488.895 931 490V505C931 506.105 930.105 507 929 507H920C918.895 507 918 506.105 918 505V490Z" fill="#0FA7F0"/>
<path d="M941 490C941 488.895 941.895 488 943 488H952C953.105 488 954 488.895 954 490V505C954 506.105 953.105 507 952 507H943C941.895 507 941 506.105 941 505V490Z" fill="#0FA7F0"/>
<path d="M435 461C435 459.895 435.895 459 437 459H446C447.105 459 448 459.895 448 461V505C448 506.105 447.105 507 446 507H437C435.895 507 435 506.105 435 505V461Z" fill="#0FA7F0"/>
<path d="M619 461C619 459.895 619.895 459 621 459H630C631.105 459 632 459.895 632 461V505C632 506.105 631.105 507 630 507H621C619.895 507 619 506.105 619 505V461Z" fill="#0FA7F0"/>
<path d="M757 461C757 459.895 757.895 459 759 459H768C769.105 459 770 459.895 770 461V505C770 506.105 769.105 507 768 507H759C757.895 507 757 506.105 757 505V461Z" fill="#0FA7F0"/>
<path d="M504 461C504 459.895 504.895 459 506 459H515C516.105 459 517 459.895 517 461V505C517 506.105 516.105 507 515 507H506C504.895 507 504 506.105 504 505V461Z" fill="#0FA7F0"/>
<path d="M688 461C688 459.895 688.895 459 690 459H699C700.105 459 701 459.895 701 461V505C701 506.105 700.105 507 699 507H690C688.895 507 688 506.105 688 505V461Z" fill="#0FA7F0"/>
<path d="M826 461C826 459.895 826.895 459 828 459H837C838.105 459 839 459.895 839 461V505C839 506.105 838.105 507 837 507H828C826.895 507 826 506.105 826 505V461Z" fill="#0FA7F0"/>
<path d="M849 501C849 499.895 849.895 499 851 499H860C861.105 499 862 499.895 862 501V505C862 506.105 861.105 507 860 507H851C849.895 507 849 506.105 849 505V501Z" fill="#0FA7F0"/>
<path d="M458 430C458 428.895 458.895 428 460 428H469C470.105 428 471 428.895 471 430V505C471 506.105 470.105 507 469 507H460C458.895 507 458 506.105 458 505V430Z" fill="#0FA7F0"/>
<path d="M642 430C642 428.895 642.895 428 644 428H653C654.105 428 655 428.895 655 430V505C655 506.105 654.105 507 653 507H644C642.895 507 642 506.105 642 505V430Z" fill="#0FA7F0"/>
<path d="M780 430C780 428.895 780.895 428 782 428H791C792.105 428 793 428.895 793 430V505C793 506.105 792.105 507 791 507H782C780.895 507 780 506.105 780 505V430Z" fill="#0FA7F0"/>
<path d="M872 430C872 428.895 872.895 428 874 428H883C884.105 428 885 428.895 885 430V505C885 506.105 884.105 507 883 507H874C872.895 507 872 506.105 872 505V430Z" fill="#0FA7F0"/>
<path d="M895 453C895 451.895 895.895 451 897 451H906C907.105 451 908 451.895 908 453V505C908 506.105 907.105 507 906 507H897C895.895 507 895 506.105 895 505V453Z" fill="#0FA7F0"/>
<path d="M481 430C481 428.895 481.895 428 483 428H492C493.105 428 494 428.895 494 430V505C494 506.105 493.105 507 492 507H483C481.895 507 481 506.105 481 505V430Z" fill="#0FA7F0"/>
<path d="M665 430C665 428.895 665.895 428 667 428H676C677.105 428 678 428.895 678 430V505C678 506.105 677.105 507 676 507H667C665.895 507 665 506.105 665 505V430Z" fill="#0FA7F0"/>
<path d="M964 430C964 428.895 964.895 428 966 428H975C976.105 428 977 428.895 977 430V505C977 506.105 976.105 507 975 507H966C964.895 507 964 506.105 964 505V430Z" fill="#0FA7F0"/>
<path d="M803 430C803 428.895 803.895 428 805 428H814C815.105 428 816 428.895 816 430V505C816 506.105 815.105 507 814 507H805C803.895 507 803 506.105 803 505V430Z" fill="#0FA7F0"/>
<path d="M389 428C389 426.895 389.895 426 391 426H400C401.105 426 402 426.895 402 428V467C402 468.105 401.105 469 400 469H391C389.895 469 389 468.105 389 467V428Z" fill="#FFEEA2"/>
<path d="M573 428C573 426.895 573.895 426 575 426H584C585.105 426 586 426.895 586 428V467C586 468.105 585.105 469 584 469H575C573.895 469 573 468.105 573 467V428Z" fill="#FFEEA2"/>
<path d="M412 461C412 459.895 412.895 459 414 459H423C424.105 459 425 459.895 425 461V467C425 468.105 424.105 469 423 469H414C412.895 469 412 468.105 412 467V461Z" fill="#FFEEA2"/>
<path d="M596 461C596 459.895 596.895 459 598 459H607C608.105 459 609 459.895 609 461V467C609 468.105 608.105 469 607 469H598C596.895 469 596 468.105 596 467V461Z" fill="#FFEEA2"/>
<path d="M527 461C527 459.895 527.895 459 529 459H538C539.105 459 540 459.895 540 461V467C540 468.105 539.105 469 538 469H529C527.895 469 527 468.105 527 467V461Z" fill="#FFEEA2"/>
<path d="M711 461C711 459.895 711.895 459 713 459H722C723.105 459 724 459.895 724 461V467C724 468.105 723.105 469 722 469H713C711.895 469 711 468.105 711 467V461Z" fill="#FFEEA2"/>
<path d="M734 461C734 459.895 734.895 459 736 459H745C746.105 459 747 459.895 747 461V485C747 486.105 746.105 487 745 487H736C734.895 487 734 486.105 734 485V461Z" fill="#FFEEA2"/>
<path d="M550 461C550 459.895 550.895 459 552 459H561C562.105 459 563 459.895 563 461V485C563 486.105 562.105 487 561 487H552C550.895 487 550 486.105 550 485V461Z" fill="#FFEEA2"/>
<path d="M918 461C918 459.895 918.895 459 920 459H929C930.105 459 931 459.895 931 461V485C931 486.105 930.105 487 929 487H920C918.895 487 918 486.105 918 485V461Z" fill="#FFEEA2"/>
<path d="M941 461C941 459.895 941.895 459 943 459H952C953.105 459 954 459.895 954 461V485C954 486.105 953.105 487 952 487H943C941.895 487 941 486.105 941 485V461Z" fill="#FFEEA2"/>
<path d="M435 419C435 417.895 435.895 417 437 417H446C447.105 417 448 417.895 448 419V456C448 457.105 447.105 458 446 458H437C435.895 458 435 457.105 435 456V419Z" fill="#FFEEA2"/>
<path d="M619 419C619 417.895 619.895 417 621 417H630C631.105 417 632 417.895 632 419V456C632 457.105 631.105 458 630 458H621C619.895 458 619 457.105 619 456V419Z" fill="#FFEEA2"/>
<path d="M757 419C757 417.895 757.895 417 759 417H768C769.105 417 770 417.895 770 419V456C770 457.105 769.105 458 768 458H759C757.895 458 757 457.105 757 456V419Z" fill="#FFEEA2"/>
<path d="M504 419C504 417.895 504.895 417 506 417H515C516.105 417 517 417.895 517 419V456C517 457.105 516.105 458 515 458H506C504.895 458 504 457.105 504 456V419Z" fill="#FFEEA2"/>
<path d="M688 419C688 417.895 688.895 417 690 417H699C700.105 417 701 417.895 701 419V456C701 457.105 700.105 458 699 458H690C688.895 458 688 457.105 688 456V419Z" fill="#FFEEA2"/>
<path d="M826 419C826 417.895 826.895 417 828 417H837C838.105 417 839 417.895 839 419V456C839 457.105 838.105 458 837 458H828C826.895 458 826 457.105 826 456V419Z" fill="#FFEEA2"/>
<path d="M849 478C849 476.895 849.895 476 851 476H860C861.105 476 862 476.895 862 478V496C862 497.105 861.105 498 860 498H851C849.895 498 849 497.105 849 496V478Z" fill="#FFEEA2"/>
<path d="M458 419C458 417.895 458.895 417 460 417H469C470.105 417 471 417.895 471 419V425C471 426.105 470.105 427 469 427H460C458.895 427 458 426.105 458 425V419Z" fill="#FFEEA2"/>
<path d="M642 419C642 417.895 642.895 417 644 417H653C654.105 417 655 417.895 655 419V425C655 426.105 654.105 427 653 427H644C642.895 427 642 426.105 642 425V419Z" fill="#FFEEA2"/>
<path d="M780 419C780 417.895 780.895 417 782 417H791C792.105 417 793 417.895 793 419V425C793 426.105 792.105 427 791 427H782C780.895 427 780 426.105 780 425V419Z" fill="#FFEEA2"/>
<path d="M872 419C872 417.895 872.895 417 874 417H883C884.105 417 885 417.895 885 419V425C885 426.105 884.105 427 883 427H874C872.895 427 872 426.105 872 425V419Z" fill="#FFEEA2"/>
<path d="M895 419C895 417.895 895.895 417 897 417H906C907.105 417 908 417.895 908 419V448C908 449.105 907.105 450 906 450H897C895.895 450 895 449.105 895 448V419Z" fill="#FFEEA2"/>
<path d="M481 424C481 422.895 481.895 422 483 422H492C493.105 422 494 422.895 494 424V425C494 426.105 493.105 427 492 427H483C481.895 427 481 426.105 481 425V424Z" fill="#FFEEA2"/>
<path d="M665 424C665 422.895 665.895 422 667 422H676C677.105 422 678 422.895 678 424V425C678 426.105 677.105 427 676 427H667C665.895 427 665 426.105 665 425V424Z" fill="#FFEEA2"/>
<path d="M964 424C964 422.895 964.895 422 966 422H975C976.105 422 977 422.895 977 424V425C977 426.105 976.105 427 975 427H966C964.895 427 964 426.105 964 425V424Z" fill="#FFEEA2"/>
<path d="M803 424C803 422.895 803.895 422 805 422H814C815.105 422 816 422.895 816 424V425C816 426.105 815.105 427 814 427H805C803.895 427 803 426.105 803 425V424Z" fill="#FFEEA2"/>
<path d="M400 405H391C389.895 405 389 405.895 389 407V423C389 424.105 389.895 425 391 425H400C401.105 425 402 424.105 402 423V407C402 405.895 401.105 405 400 405Z" fill="#F28100"/>
<path d="M584 405H575C573.895 405 573 405.895 573 407V423C573 424.105 573.895 425 575 425H584C585.105 425 586 424.105 586 423V407C586 405.895 585.105 405 584 405Z" fill="#F28100"/>
<path d="M423 405H414C412.895 405 412 405.895 412 407V456C412 457.105 412.895 458 414 458H423C424.105 458 425 457.105 425 456V407C425 405.895 424.105 405 423 405Z" fill="#F28100"/>
<path d="M607 405H598C596.895 405 596 405.895 596 407V456C596 457.105 596.895 458 598 458H607C608.105 458 609 457.105 609 456V407C609 405.895 608.105 405 607 405Z" fill="#F28100"/>
<path d="M538 405H529C527.895 405 527 405.895 527 407V456C527 457.105 527.895 458 529 458H538C539.105 458 540 457.105 540 456V407C540 405.895 539.105 405 538 405Z" fill="#F28100"/>
<path d="M745 405H736C734.895 405 734 405.895 734 407V456C734 457.105 734.895 458 736 458H745C746.105 458 747 457.105 747 456V407C747 405.895 746.105 405 745 405Z" fill="#F28100"/>
<path d="M722 405H713C711.895 405 711 405.895 711 407V456C711 457.105 711.895 458 713 458H722C723.105 458 724 457.105 724 456V407C724 405.895 723.105 405 722 405Z" fill="#F28100"/>
<path d="M561 405H552C550.895 405 550 405.895 550 407V456C550 457.105 550.895 458 552 458H561C562.105 458 563 457.105 563 456V407C563 405.895 562.105 405 561 405Z" fill="#F28100"/>
<path d="M929 405H920C918.895 405 918 405.895 918 407V456C918 457.105 918.895 458 920 458H929C930.105 458 931 457.105 931 456V407C931 405.895 930.105 405 929 405Z" fill="#F28100"/>
<path d="M952 405H943C941.895 405 941 405.895 941 407V456C941 457.105 941.895 458 943 458H952C953.105 458 954 457.105 954 456V407C954 405.895 953.105 405 952 405Z" fill="#F28100"/>
<path d="M446 405H437C435.895 405 435 405.895 435 407V414C435 415.105 435.895 416 437 416H446C447.105 416 448 415.105 448 414V407C448 405.895 447.105 405 446 405Z" fill="#F28100"/>
<path d="M630 405H621C619.895 405 619 405.895 619 407V414C619 415.105 619.895 416 621 416H630C631.105 416 632 415.105 632 414V407C632 405.895 631.105 405 630 405Z" fill="#F28100"/>
<path d="M768 405H759C757.895 405 757 405.895 757 407V414C757 415.105 757.895 416 759 416H768C769.105 416 770 415.105 770 414V407C770 405.895 769.105 405 768 405Z" fill="#F28100"/>
<path d="M515 405H506C504.895 405 504 405.895 504 407V414C504 415.105 504.895 416 506 416H515C516.105 416 517 415.105 517 414V407C517 405.895 516.105 405 515 405Z" fill="#F28100"/>
<path d="M699 405H690C688.895 405 688 405.895 688 407V414C688 415.105 688.895 416 690 416H699C700.105 416 701 415.105 701 414V407C701 405.895 700.105 405 699 405Z" fill="#F28100"/>
<path d="M837 405H828C826.895 405 826 405.895 826 407V414C826 415.105 826.895 416 828 416H837C838.105 416 839 415.105 839 414V407C839 405.895 838.105 405 837 405Z" fill="#F28100"/>
<path d="M860 405H851C849.895 405 849 405.895 849 407V473C849 474.105 849.895 475 851 475H860C861.105 475 862 474.105 862 473V407C862 405.895 861.105 405 860 405Z" fill="#F28100"/>
<path d="M469 405H460C458.895 405 458 405.895 458 407V414C458 415.105 458.895 416 460 416H469C470.105 416 471 415.105 471 414V407C471 405.895 470.105 405 469 405Z" fill="#F28100"/>
<path d="M653 405H644C642.895 405 642 405.895 642 407V414C642 415.105 642.895 416 644 416H653C654.105 416 655 415.105 655 414V407C655 405.895 654.105 405 653 405Z" fill="#F28100"/>
<path d="M791 405H782C780.895 405 780 405.895 780 407V414C780 415.105 780.895 416 782 416H791C792.105 416 793 415.105 793 414V407C793 405.895 792.105 405 791 405Z" fill="#F28100"/>
<path d="M883 405H874C872.895 405 872 405.895 872 407V414C872 415.105 872.895 416 874 416H883C884.105 416 885 415.105 885 414V407C885 405.895 884.105 405 883 405Z" fill="#F28100"/>
<path d="M906 405H897C895.895 405 895 405.895 895 407V414C895 415.105 895.895 416 897 416H906C907.105 416 908 415.105 908 414V407C908 405.895 907.105 405 906 405Z" fill="#F28100"/>
<path d="M492 405H483C481.895 405 481 405.895 481 407V419C481 420.105 481.895 421 483 421H492C493.105 421 494 420.105 494 419V407C494 405.895 493.105 405 492 405Z" fill="#F28100"/>
<path d="M676 405H667C665.895 405 665 405.895 665 407V419C665 420.105 665.895 421 667 421H676C677.105 421 678 420.105 678 419V407C678 405.895 677.105 405 676 405Z" fill="#F28100"/>
<path d="M975 405H966C964.895 405 964 405.895 964 407V419C964 420.105 964.895 421 966 421H975C976.105 421 977 420.105 977 419V407C977 405.895 976.105 405 975 405Z" fill="#F28100"/>
<path d="M814 405H805C803.895 405 803 405.895 803 407V419C803 420.105 803.895 421 805 421H814C815.105 421 816 420.105 816 419V407C816 405.895 815.105 405 814 405Z" fill="#F28100"/>
<g filter="url(#filter0_d_1731_417)">
<path d="M60 101H115V559H75C66.7157 559 60 552.284 60 544V101Z" fill="white"/>
</g>
<path d="M86 139V133H90V139H95V131H98L88 122L78 131H81V139H86Z" fill="#747474"/>
<path d="M93.832 157.667L89.6654 161.417V170.584L93.832 166.834V157.667ZM83.4154 160.167C81.7904 160.167 80.0404 160.5 78.832 161.417V173.634C78.832 173.842 79.0404 174.05 79.2487 174.05C79.332 174.05 79.3737 173.992 79.457 173.992C80.582 173.45 82.207 173.084 83.4154 173.084C85.0404 173.084 86.7904 173.417 87.9987 174.334C89.1237 173.625 91.1654 173.084 92.582 173.084C93.957 173.084 95.3737 173.342 96.5404 173.967C96.6237 174.009 96.6654 173.992 96.7487 173.992C96.957 173.992 97.1654 173.784 97.1654 173.575V161.417C96.6654 161.042 96.1237 160.792 95.4987 160.584V171.834C94.582 171.542 93.582 171.417 92.582 171.417C91.1654 171.417 89.1237 171.959 87.9987 172.667V161.417C86.7904 160.5 85.0404 160.167 83.4154 160.167Z" fill="#747474"/>
<path d="M60 503.5H115" stroke="#E1E1E9"/>
<path d="M79.3117 518.406L79.8322 523.224L79.919 524.138H77.8945L77.9958 523.224L78.5019 518.406L78.5453 518H79.2683L79.3117 518.406Z" fill="#F28100"/>
<path d="M95.4093 518.406L95.9154 523.224L96.0167 524.138H93.9922L94.079 523.224L94.5995 518.406L94.6429 518H95.3659L95.4093 518.406Z" fill="#F28100"/>
<path d="M85.9953 533.366C85.5904 533.729 85.2 534.034 84.7951 534.338C84.3902 534.643 83.9853 534.948 83.5515 535.238C82.6983 535.818 81.8307 536.355 80.8329 536.805C80.3702 537.008 79.8207 536.805 79.6182 536.341C79.4303 535.92 79.5893 535.427 79.9653 535.194L79.9942 535.18C80.7462 534.716 81.4547 534.121 82.1488 533.482C82.4959 533.163 82.8285 532.829 83.1611 532.495C83.4792 532.162 83.8262 531.799 84.101 531.48C84.5926 530.914 85.4314 530.856 85.9953 531.335C86.5593 531.828 86.6171 532.67 86.1399 533.235C86.0965 533.279 86.0532 533.323 85.9953 533.366Z" fill="#37376D"/>
<path d="M89.146 530.681C89.5798 530.783 90.1004 530.812 90.6065 530.812C91.1271 530.812 91.6622 530.768 92.1827 530.696C93.2383 530.551 94.294 530.275 95.2484 529.84L95.2628 529.825C95.7255 529.607 96.275 529.825 96.4775 530.289C96.6655 530.725 96.5064 531.218 96.116 531.45C95.017 532.118 93.8457 532.582 92.631 532.916C92.0237 533.075 91.4019 533.206 90.7656 533.279C90.1293 533.351 89.4642 533.395 88.7556 533.337H88.7411C88.0036 533.279 87.4541 532.626 87.512 531.886C87.5698 531.146 88.2206 530.594 88.958 530.652C89.0303 530.652 89.0882 530.667 89.146 530.681Z" fill="#37376D"/>
<path d="M96.2184 523.833C96.2184 526.924 92.0971 529.434 86.9926 529.434C81.888 529.434 77.7812 526.924 77.7812 523.833C77.7812 520.743 81.9169 518.232 87.007 518.232C92.0971 518.232 96.2184 520.743 96.2184 523.833Z" fill="#0FA7F0"/>
<path d="M93.0366 523.833C93.0366 525.545 90.3325 527.025 87.0066 527.025C83.6807 527.025 80.9766 525.545 80.9766 523.833C80.9766 522.121 83.6807 520.641 87.0066 520.641C90.3325 520.655 93.0366 522.135 93.0366 523.833Z" fill="white"/>
<path d="M89.0904 523.834C89.0904 524.994 88.1649 525.923 87.0081 525.923C85.8513 525.923 84.9258 524.994 84.9258 523.834C84.9258 522.673 85.8513 521.744 87.0081 521.744C88.1505 521.744 89.0904 522.687 89.0904 523.834Z" fill="#37376D"/>
<path d="M92.9204 538.329L90.679 532.133C90.332 531.219 89.4644 530.609 88.4955 530.609H85.8203C84.5333 530.609 83.4922 531.654 83.4922 532.946V538.314H92.9204V538.329Z" fill="#0FA7F0"/>
<path d="M77 535.268C77.5061 534.818 78.2725 534.6 78.9811 534.731C79.6897 534.847 80.3693 535.297 80.7597 535.921C81.1646 536.545 81.2658 537.343 81.0779 538.039C80.8899 538.736 80.3838 539.345 79.7475 539.606L79.0245 538.475C79.2414 538.213 79.3426 537.938 79.3715 537.662C79.386 537.386 79.3281 537.14 79.1835 536.922C79.0534 536.704 78.8509 536.545 78.5907 536.443C78.3304 536.342 78.0412 536.327 77.7086 536.4L77 535.268Z" fill="#F28100"/>
<path d="M97.5629 528.65C97.3171 528.882 97.1725 529.129 97.1002 529.39C97.0424 529.651 97.0713 529.912 97.158 530.145C97.2593 530.377 97.4328 530.58 97.6642 530.711C97.8955 530.841 98.1847 530.914 98.5173 530.885L99.0524 532.118C98.4739 532.495 97.6931 532.568 97.0134 532.336C96.3338 532.104 95.7265 531.552 95.4517 530.87C95.1625 530.188 95.1625 529.376 95.4806 528.723C95.7843 528.055 96.3772 527.547 97.0424 527.388L97.5629 528.65Z" fill="#F28100"/>
<path d="M86.7302 538.329H83.4766V542H86.7302V538.329Z" fill="#37376D"/>
<path d="M90.9827 542H94.2508L92.9204 538.329H89.6523L90.9827 542Z" fill="#37376D"/>
<path d="M94.9762 200.095H93.7619V196.857C93.7619 195.959 93.0333 195.238 92.1429 195.238H88.9048V194.024C88.9048 193.487 88.6915 192.972 88.312 192.593C87.9325 192.213 87.4177 192 86.881 192C86.3442 192 85.8294 192.213 85.4499 192.593C85.0704 192.972 84.8571 193.487 84.8571 194.024V195.238H81.619C81.1896 195.238 80.7778 195.409 80.4742 195.712C80.1706 196.016 80 196.428 80 196.857V199.933H81.2143C82.4286 199.933 83.4 200.905 83.4 202.119C83.4 203.333 82.4286 204.305 81.2143 204.305H80V207.381C80 207.81 80.1706 208.222 80.4742 208.526C80.7778 208.829 81.1896 209 81.619 209H84.6952V207.786C84.6952 206.571 85.6667 205.6 86.881 205.6C88.0952 205.6 89.0667 206.571 89.0667 207.786V209H92.1429C92.5723 209 92.9841 208.829 93.2877 208.526C93.5913 208.222 93.7619 207.81 93.7619 207.381V204.143H94.9762C95.5129 204.143 96.0277 203.93 96.4072 203.55C96.7868 203.171 97 202.656 97 202.119C97 201.582 96.7868 201.068 96.4072 200.688C96.0277 200.308 95.5129 200.095 94.9762 200.095Z" fill="#747474"/>
<path d="M82 238.5L79 241.44V233H82V238.5ZM87 236.66L85.43 235.32L84 236.64V229H87V236.66ZM92 235L89 238V225H92V235ZM94.81 234.81L93 233H98V238L96.21 236.21L89 243.36L85.53 240.34L81.75 244H79L85.47 237.66L89 240.64" fill="#747474"/>
<path d="M90.763 268.325L89.953 269.153C89.305 269.801 88.9 270.35 88.9 271.7H87.1V271.25C87.1 270.251 87.505 269.351 88.153 268.703L89.269 267.569C89.602 267.245 89.8 266.795 89.8 266.3C89.8 265.301 88.99 264.5 88 264.5C87.5226 264.5 87.0648 264.69 86.7272 265.027C86.3896 265.365 86.2 265.823 86.2 266.3H84.4C84.4 265.345 84.7793 264.43 85.4544 263.754C86.1295 263.079 87.0452 262.7 88 262.7C88.9548 262.7 89.8705 263.079 90.5456 263.754C91.2207 264.43 91.6 265.345 91.6 266.3C91.6 267.092 91.276 267.803 90.763 268.325ZM88.9 275.3H87.1V273.5H88.9V275.3ZM88 260C86.8181 260 85.6478 260.233 84.5558 260.685C83.4639 261.137 82.4718 261.8 81.636 262.636C79.9482 264.324 79 266.613 79 269C79 271.387 79.9482 273.676 81.636 275.364C82.4718 276.2 83.4639 276.863 84.5558 277.315C85.6478 277.767 86.8181 278 88 278C90.3869 278 92.6761 277.052 94.364 275.364C96.0518 273.676 97 271.387 97 269C97 264.023 92.95 260 88 260Z" fill="#747474"/>
<path d="M60 61C60 52.7157 66.7157 46 75 46H115V101H60V61Z" fill="#0FA7F0"/>
<g filter="url(#filter1_d_1731_417)">
<path d="M115 101V46H1013C1021.28 46 1028 52.7157 1028 61V101H115Z" fill="white"/>
</g>
<path d="M97 67H79V69H97V67Z" fill="white"/>
<path d="M97 72H79V74H97V72Z" fill="white"/>
<path d="M97 77H79V79H97V77Z" fill="white"/>
<path d="M146.615 65.7001H151.365C155.152 65.7001 157.046 67.1568 157.046 70.0701C157.046 72.9834 155.152 74.4401 151.365 74.4401H148.781V79.0001H146.615V65.7001ZM153.93 71.9511C154.538 71.5964 154.842 70.9694 154.842 70.0701C154.842 69.1708 154.538 68.5501 153.93 68.2081C153.335 67.8534 152.518 67.6761 151.479 67.6761H148.781V72.4641H151.479C152.518 72.4641 153.335 72.2931 153.93 71.9511ZM160.547 71.3811C160.901 70.8111 161.427 70.3678 162.124 70.0511C162.82 69.7344 163.574 69.6141 164.385 69.6901V71.6851C163.574 71.5711 162.839 71.6788 162.181 72.0081C161.522 72.3374 161.053 72.8251 160.775 73.4711V79.0001H158.742V69.8801H160.547V71.3811ZM167.993 79.0001H165.96V69.8801H167.993V79.0001ZM168.221 66.9161C168.221 67.3088 168.101 67.6128 167.86 67.8281C167.632 68.0308 167.341 68.1321 166.986 68.1321C166.632 68.1321 166.334 68.0308 166.093 67.8281C165.853 67.6128 165.732 67.3088 165.732 66.9161C165.732 66.5361 165.853 66.2448 166.093 66.0421C166.334 65.8268 166.632 65.7191 166.986 65.7191C167.341 65.7191 167.632 65.8268 167.86 66.0421C168.101 66.2448 168.221 66.5361 168.221 66.9161ZM170.01 74.5161C170.01 72.9328 170.51 71.7231 171.511 70.8871C172.511 70.0511 173.689 69.6331 175.045 69.6331C176.134 69.6331 177.071 69.8674 177.857 70.3361V72.1981C177.147 71.6914 176.305 71.4381 175.33 71.4381C174.43 71.4381 173.664 71.6914 173.031 72.1981C172.397 72.6921 172.081 73.4394 172.081 74.4401C172.081 75.4154 172.391 76.1628 173.012 76.6821C173.645 77.1888 174.405 77.4421 175.292 77.4421C176.254 77.4421 177.141 77.2078 177.952 76.7391V78.6201C177.078 79.0381 176.071 79.2471 174.931 79.2471C173.601 79.2471 172.448 78.8418 171.473 78.0311C170.497 77.2078 170.01 76.0361 170.01 74.5161ZM179.268 74.4401C179.268 73.6548 179.408 72.9454 179.686 72.3121C179.965 71.6661 180.332 71.1594 180.788 70.7921C181.244 70.4121 181.738 70.1271 182.27 69.9371C182.802 69.7344 183.341 69.6331 183.885 69.6331C184.582 69.6331 185.209 69.7408 185.766 69.9561C186.336 70.1714 186.792 70.4628 187.134 70.8301C187.476 71.1974 187.755 71.6218 187.97 72.1031C188.186 72.5844 188.3 73.0911 188.312 73.6231C188.325 74.1424 188.281 74.6681 188.179 75.2001H181.32C181.422 75.9728 181.802 76.5554 182.46 76.9481C183.119 77.3281 183.904 77.5181 184.816 77.5181C185.855 77.5181 186.818 77.3028 187.704 76.8721V78.6201C186.83 79.0381 185.741 79.2471 184.436 79.2471C182.954 79.2471 181.719 78.8291 180.731 77.9931C179.756 77.1571 179.268 75.9728 179.268 74.4401ZM186.355 73.6801C186.431 73.1608 186.273 72.6414 185.88 72.1221C185.5 71.5901 184.867 71.3241 183.98 71.3241C183.258 71.3241 182.638 71.5331 182.118 71.9511C181.612 72.3691 181.339 72.9454 181.301 73.6801H186.355ZM192.053 71.3811C192.407 70.8111 192.933 70.3678 193.63 70.0511C194.326 69.7344 195.08 69.6141 195.891 69.6901V71.6851C195.08 71.5711 194.345 71.6788 193.687 72.0081C193.028 72.3374 192.559 72.8251 192.281 73.4711V79.0001H190.248V69.8801H192.053V71.3811ZM197.409 67.1441C198.689 66.2701 200.12 65.8331 201.703 65.8331C203.059 65.8331 204.154 66.1498 204.99 66.7831C205.826 67.4038 206.244 68.2968 206.244 69.4621C206.244 70.4374 205.921 71.2734 205.275 71.9701C204.642 72.6541 203.774 73.3254 202.672 73.9841C202.584 74.0348 202.419 74.1298 202.178 74.2691C201.95 74.4084 201.786 74.5098 201.684 74.5731C201.596 74.6238 201.45 74.7124 201.247 74.8391C201.045 74.9658 200.893 75.0608 200.791 75.1241C200.703 75.1874 200.576 75.2824 200.411 75.4091C200.259 75.5231 200.145 75.6244 200.069 75.7131C199.993 75.7891 199.905 75.8904 199.803 76.0171C199.702 76.1311 199.626 76.2388 199.575 76.3401C199.537 76.4414 199.499 76.5554 199.461 76.6821C199.423 76.8088 199.404 76.9354 199.404 77.0621L206.339 77.0431V79.0001H196.972V78.0121C196.972 77.3028 197.067 76.6758 197.257 76.1311C197.46 75.5738 197.808 75.0671 198.302 74.6111C198.809 74.1424 199.202 73.8131 199.48 73.6231C199.759 73.4204 200.253 73.1101 200.962 72.6921C201.026 72.6414 201.076 72.6034 201.114 72.5781C201.165 72.5528 201.216 72.5274 201.266 72.5021C202.33 71.8814 203.014 71.4318 203.318 71.1531C203.825 70.6591 204.078 70.1081 204.078 69.5001C204.078 68.9428 203.85 68.5184 203.394 68.2271C202.951 67.9358 202.324 67.7901 201.513 67.7901C200.107 67.7901 198.739 68.2714 197.409 69.2341V67.1441ZM214.604 66.0801H216.827V74.4781H219.05V76.3591H216.827V79.0001H214.737V76.3591H207.726V74.5161L214.604 66.0801ZM214.737 74.4781V68.8351L210.139 74.4781H214.737ZM226.094 80.1211H224.612L230.35 64.5791H231.832L226.094 80.1211ZM238.461 65.7001H243.116C245.396 65.7001 247.131 66.3081 248.322 67.5241C249.512 68.7401 250.108 70.3488 250.108 72.3501C250.108 74.3514 249.512 75.9601 248.322 77.1761C247.131 78.3921 245.396 79.0001 243.116 79.0001H238.461V65.7001ZM246.669 75.8271C247.492 75.0164 247.904 73.8574 247.904 72.3501C247.904 70.8428 247.492 69.6901 246.669 68.8921C245.858 68.0814 244.667 67.6761 243.097 67.6761H240.627V77.0241H243.097C244.667 77.0241 245.858 76.6251 246.669 75.8271ZM259.843 76.8911C259.843 77.3344 260.064 77.5561 260.508 77.5561C260.66 77.5561 260.862 77.5181 261.116 77.4421V78.9051C260.736 79.0571 260.305 79.1331 259.824 79.1331C258.912 79.1331 258.304 78.7784 258 78.0691C257.024 78.8544 255.878 79.2471 254.561 79.2471C253.674 79.2471 252.92 79.0064 252.3 78.5251C251.679 78.0311 251.369 77.3408 251.369 76.4541C251.369 75.3901 251.768 74.6174 252.566 74.1361C253.364 73.6421 254.32 73.3951 255.435 73.3951C256.169 73.3951 256.961 73.4838 257.81 73.6611V73.3381C257.81 72.7554 257.601 72.2868 257.183 71.9321C256.765 71.5774 256.176 71.4001 255.416 71.4001C254.288 71.4001 253.193 71.6344 252.129 72.1031V70.2411C253.319 69.8358 254.485 69.6331 255.625 69.6331C256.955 69.6331 257.987 69.9624 258.722 70.6211C259.469 71.2798 259.843 72.2804 259.843 73.6231V76.8911ZM255.834 74.8201C255.162 74.8201 254.599 74.9404 254.143 75.1811C253.687 75.4218 253.459 75.8018 253.459 76.3211C253.459 76.7518 253.623 77.0874 253.953 77.3281C254.282 77.5561 254.687 77.6701 255.169 77.6701C256.207 77.6701 257.088 77.3091 257.81 76.5871V75.0481C257.075 74.8961 256.416 74.8201 255.834 74.8201ZM262.043 72.3501C262.043 71.4254 262.391 70.7414 263.088 70.2981C263.797 69.8548 264.659 69.6331 265.672 69.6331C266.85 69.6331 267.946 69.8928 268.959 70.4121V72.1981C268.579 71.9448 268.091 71.7358 267.496 71.5711C266.901 71.3938 266.337 71.3051 265.805 71.3051C265.336 71.3051 264.937 71.3874 264.608 71.5521C264.279 71.7041 264.114 71.9511 264.114 72.2931C264.114 72.6098 264.304 72.8758 264.684 73.0911C265.064 73.2938 265.52 73.4711 266.052 73.6231C266.597 73.7624 267.135 73.9334 267.667 74.1361C268.199 74.3261 268.655 74.6238 269.035 75.0291C269.415 75.4344 269.605 75.9474 269.605 76.5681C269.605 77.5054 269.238 78.1894 268.503 78.6201C267.768 79.0381 266.825 79.2471 265.672 79.2471C264.241 79.2471 263.05 78.9558 262.1 78.3731V76.5681C263.075 77.2141 264.234 77.5371 265.577 77.5371C266.894 77.5371 267.553 77.2268 267.553 76.6061C267.553 76.3021 267.363 76.0488 266.983 75.8461C266.603 75.6308 266.141 75.4534 265.596 75.3141C265.064 75.1621 264.526 74.9911 263.981 74.8011C263.449 74.5984 262.993 74.2944 262.613 73.8891C262.233 73.4711 262.043 72.9581 262.043 72.3501ZM271.443 65.7001H273.476V70.8871C274.287 70.0511 275.268 69.6331 276.421 69.6331C277.561 69.6331 278.473 69.9814 279.157 70.6781C279.841 71.3621 280.183 72.2551 280.183 73.3571V79.0001H278.15V73.6231C278.15 72.9138 277.954 72.3754 277.561 72.0081C277.168 71.6281 276.655 71.4381 276.022 71.4381C275.021 71.4381 274.173 71.9448 273.476 72.9581V79.0001H271.443V65.7001ZM282.613 65.7001H284.646V71.0581C285.495 70.1081 286.59 69.6331 287.933 69.6331C289.276 69.6331 290.365 70.1018 291.201 71.0391C292.037 71.9638 292.455 73.0974 292.455 74.4401C292.455 75.7828 292.037 76.9228 291.201 77.8601C290.365 78.7848 289.276 79.2471 287.933 79.2471C286.502 79.2471 285.33 78.6834 284.418 77.5561V79.0001H282.613V65.7001ZM289.586 76.6251C290.118 76.0551 290.384 75.3268 290.384 74.4401C290.384 73.5534 290.118 72.8314 289.586 72.2741C289.054 71.7041 288.376 71.4191 287.553 71.4191C286.882 71.4191 286.286 71.6028 285.767 71.9701C285.26 72.3374 284.887 72.7871 284.646 73.3191V75.5421C284.887 76.0868 285.26 76.5428 285.767 76.9101C286.286 77.2774 286.882 77.4611 287.553 77.4611C288.376 77.4611 289.054 77.1824 289.586 76.6251ZM295.306 77.9741C294.344 77.1254 293.862 75.9474 293.862 74.4401C293.862 72.9328 294.344 71.7548 295.306 70.9061C296.282 70.0574 297.447 69.6331 298.802 69.6331C300.17 69.6331 301.336 70.0574 302.298 70.9061C303.261 71.7548 303.742 72.9328 303.742 74.4401C303.742 75.9474 303.261 77.1254 302.298 77.9741C301.336 78.8228 300.17 79.2471 298.802 79.2471C297.447 79.2471 296.282 78.8228 295.306 77.9741ZM300.873 76.5871C301.405 76.0424 301.671 75.3268 301.671 74.4401C301.671 73.5534 301.405 72.8441 300.873 72.3121C300.341 71.7674 299.651 71.4951 298.802 71.4951C297.941 71.4951 297.244 71.7674 296.712 72.3121C296.18 72.8441 295.914 73.5534 295.914 74.4401C295.914 75.3268 296.18 76.0424 296.712 76.5871C297.244 77.1191 297.941 77.3851 298.802 77.3851C299.651 77.3851 300.341 77.1191 300.873 76.5871ZM313.484 76.8911C313.484 77.3344 313.706 77.5561 314.149 77.5561C314.301 77.5561 314.504 77.5181 314.757 77.4421V78.9051C314.377 79.0571 313.947 79.1331 313.465 79.1331C312.553 79.1331 311.945 78.7784 311.641 78.0691C310.666 78.8544 309.52 79.2471 308.202 79.2471C307.316 79.2471 306.562 79.0064 305.941 78.5251C305.321 78.0311 305.01 77.3408 305.01 76.4541C305.01 75.3901 305.409 74.6174 306.207 74.1361C307.005 73.6421 307.962 73.3951 309.076 73.3951C309.811 73.3951 310.603 73.4838 311.451 73.6611V73.3381C311.451 72.7554 311.242 72.2868 310.824 71.9321C310.406 71.5774 309.817 71.4001 309.057 71.4001C307.93 71.4001 306.834 71.6344 305.77 72.1031V70.2411C306.961 69.8358 308.126 69.6331 309.266 69.6331C310.596 69.6331 311.629 69.9624 312.363 70.6211C313.111 71.2798 313.484 72.2804 313.484 73.6231V76.8911ZM309.475 74.8201C308.804 74.8201 308.24 74.9404 307.784 75.1811C307.328 75.4218 307.1 75.8018 307.1 76.3211C307.1 76.7518 307.265 77.0874 307.594 77.3281C307.924 77.5561 308.329 77.6701 308.81 77.6701C309.849 77.6701 310.729 77.3091 311.451 76.5871V75.0481C310.717 74.8961 310.058 74.8201 309.475 74.8201ZM317.965 71.3811C318.319 70.8111 318.845 70.3678 319.542 70.0511C320.238 69.7344 320.992 69.6141 321.803 69.6901V71.6851C320.992 71.5711 320.257 71.6788 319.599 72.0081C318.94 72.3374 318.471 72.8251 318.193 73.4711V79.0001H316.16V69.8801H317.965V71.3811ZM330.357 65.7001H332.39V79.0001H330.566V77.5561C329.679 78.6834 328.514 79.2471 327.07 79.2471C325.727 79.2471 324.638 78.7848 323.802 77.8601C322.966 76.9228 322.548 75.7828 322.548 74.4401C322.548 73.0974 322.966 71.9638 323.802 71.0391C324.638 70.1018 325.727 69.6331 327.07 69.6331C328.438 69.6331 329.533 70.1081 330.357 71.0581V65.7001ZM330.338 73.3191C330.097 72.7871 329.717 72.3374 329.198 71.9701C328.691 71.6028 328.102 71.4191 327.431 71.4191C326.607 71.4191 325.93 71.7041 325.398 72.2741C324.866 72.8314 324.6 73.5534 324.6 74.4401C324.6 75.3268 324.866 76.0551 325.398 76.6251C325.93 77.1824 326.607 77.4611 327.431 77.4611C328.102 77.4611 328.691 77.2774 329.198 76.9101C329.717 76.5428 330.097 76.0868 330.338 75.5421V73.3191Z" fill="#454545"/>
<path d="M899.832 72C899.832 76.5558 903.526 80.25 908.082 80.25C910.273 80.25 912.372 79.3883 913.949 77.8667L912.574 76.4917C911.41 77.7292 909.787 78.4167 908.082 78.4167C902.362 78.4167 899.502 71.505 903.545 67.4625C907.587 63.42 914.499 66.2892 914.499 72H911.749L915.415 75.6667H915.507L919.082 72H916.332C916.332 67.4442 912.638 63.75 908.082 63.75C903.526 63.75 899.832 67.4442 899.832 72Z" fill="#454545"/>
<path d="M995.499 75.3337V65.3337H980.499V75.3337H995.499ZM995.499 63.667C995.941 63.667 996.365 63.8426 996.677 64.1551C996.99 64.4677 997.165 64.8916 997.165 65.3337V75.3337C997.165 75.7757 996.99 76.1996 996.677 76.5122C996.365 76.8247 995.941 77.0003 995.499 77.0003H989.665V78.667H991.332V80.3337H984.665V78.667H986.332V77.0003H980.499C979.574 77.0003 978.832 76.2503 978.832 75.3337V65.3337C978.832 64.4087 979.574 63.667 980.499 63.667H995.499ZM982.165 67.0003H989.665V71.167H982.165V67.0003ZM990.499 67.0003H993.832V68.667H990.499V67.0003ZM993.832 69.5003V73.667H990.499V69.5003H993.832ZM982.165 72.0003H985.499V73.667H982.165V72.0003ZM986.332 72.0003H989.665V73.667H986.332V72.0003Z" fill="#454545"/>
<path d="M955.585 73.0837H949.085V79.5837H946.918V73.0837H940.418V70.917H946.918V64.417H949.085V70.917H955.585V73.0837Z" fill="#454545"/>
<mask id="mask0_1731_417" style="mask-type:alpha" maskUnits="userSpaceOnUse" x="606" y="249" width="25" height="12">
<path d="M631 249H606V261H631V249Z" fill="white"/>
<path fill-rule="evenodd" clip-rule="evenodd" d="M614.176 259L608 255L614.176 251V254.307H622.824V251L629 255L622.824 259V255.693H614.176V259Z" fill="black"/>
</mask>
<g mask="url(#mask0_1731_417)">
<path fill-rule="evenodd" clip-rule="evenodd" d="M614.176 259L608 255L614.176 251V254.307H622.824V251L629 255L622.824 259V255.693H614.176V259Z" fill="white"/>
<path d="M608 255L607.456 254.161L606.16 255L607.456 255.839L608 255ZM614.176 259L613.633 259.839L615.176 260.839V259H614.176ZM614.176 251H615.176V249.161L613.633 250.161L614.176 251ZM614.176 254.307H613.176V255.307H614.176V254.307ZM622.824 254.307V255.307H623.824V254.307H622.824ZM622.824 251L623.367 250.161L621.824 249.161V251H622.824ZM629 255L629.544 255.839L630.84 255L629.544 254.161L629 255ZM622.824 259H621.824V260.839L623.367 259.839L622.824 259ZM622.824 255.693H623.824V254.693H622.824V255.693ZM614.176 255.693V254.693H613.176V255.693H614.176ZM607.456 255.839L613.633 259.839L614.72 258.161L608.544 254.161L607.456 255.839ZM613.633 250.161L607.456 254.161L608.544 255.839L614.72 251.839L613.633 250.161ZM615.176 254.307V251H613.176V254.307H615.176ZM622.824 253.307H614.176V255.307H622.824V253.307ZM621.824 251V254.307H623.824V251H621.824ZM629.544 254.161L623.367 250.161L622.28 251.839L628.456 255.839L629.544 254.161ZM623.367 259.839L629.544 255.839L628.456 254.161L622.28 258.161L623.367 259.839ZM621.824 255.693V259H623.824V255.693H621.824ZM614.176 256.693H622.824V254.693H614.176V256.693ZM615.176 259V255.693H613.176V259H615.176Z" fill="#454545"/>
</g>
<path d="M671.09 153V142.5H669.38V147.465C668.555 147.795 667.715 147.945 666.92 147.945C665.405 147.93 664.355 147.375 664.355 145.95V142.5H662.645V145.95C662.645 148.35 664.145 149.52 666.5 149.535C667.415 149.535 668.375 149.385 669.38 149.055V153H671.09ZM679.394 151.335V148.755C679.394 146.58 678.104 145.605 676.064 145.605C674.909 145.605 673.874 145.89 673.304 146.085V147.555C673.949 147.27 674.834 147 675.899 147C677.129 147 677.789 147.63 677.789 148.53V148.785C677.219 148.665 676.529 148.575 675.914 148.575C674.414 148.575 672.704 149.145 672.704 150.99C672.704 152.475 673.919 153.195 675.224 153.195C676.349 153.195 677.234 152.835 677.939 152.265C678.194 152.85 678.719 153.105 679.379 153.105C679.739 153.105 680.099 153.045 680.399 152.925V151.77C680.249 151.815 680.084 151.86 679.919 151.86C679.634 151.86 679.394 151.74 679.394 151.335ZM676.229 149.7C676.739 149.7 677.354 149.79 677.789 149.88V151.095C677.219 151.665 676.469 151.95 675.704 151.95C674.984 151.95 674.354 151.59 674.354 150.885C674.354 149.985 675.314 149.7 676.229 149.7ZM681.159 149.46C681.159 152.025 683.124 153.195 685.044 153.195C685.959 153.195 686.739 153.03 687.429 152.7V151.215C686.859 151.545 686.094 151.77 685.329 151.77C684.039 151.77 682.794 151.035 682.794 149.4C682.794 147.705 684.084 147.03 685.359 147.03C686.094 147.03 686.829 147.255 687.354 147.63V146.16C686.724 145.785 685.944 145.605 685.134 145.605C683.214 145.605 681.159 146.775 681.159 149.46ZM692.38 153V147.21H694.855V145.8H688.285V147.21H690.775V153H692.38ZM697.715 153V150.015H698.87L701.24 153H703.085L700.19 149.37L702.8 145.8H700.97L698.9 148.65H697.715V145.8H696.11V153H697.715ZM710.2 151.335V148.755C710.2 146.58 708.91 145.605 706.87 145.605C705.715 145.605 704.68 145.89 704.11 146.085V147.555C704.755 147.27 705.64 147 706.705 147C707.935 147 708.595 147.63 708.595 148.53V148.785C708.025 148.665 707.335 148.575 706.72 148.575C705.22 148.575 703.51 149.145 703.51 150.99C703.51 152.475 704.725 153.195 706.03 153.195C707.155 153.195 708.04 152.835 708.745 152.265C709 152.85 709.525 153.105 710.185 153.105C710.545 153.105 710.905 153.045 711.205 152.925V151.77C711.055 151.815 710.89 151.86 710.725 151.86C710.44 151.86 710.2 151.74 710.2 151.335ZM707.035 149.7C707.545 149.7 708.16 149.79 708.595 149.88V151.095C708.025 151.665 707.275 151.95 706.51 151.95C705.79 151.95 705.16 151.59 705.16 150.885C705.16 149.985 706.12 149.7 707.035 149.7ZM717.564 153V147.21H721.164V153H722.769V145.8H715.959V153H717.564ZM724.327 149.4C724.327 151.89 726.217 153.195 728.227 153.195C730.252 153.195 732.127 151.89 732.127 149.4C732.127 146.91 730.252 145.605 728.227 145.605C726.217 145.605 724.327 146.91 724.327 149.4ZM730.492 149.4C730.492 150.81 729.562 151.725 728.227 151.725C726.877 151.725 725.947 150.81 725.947 149.4C725.947 147.99 726.877 147.075 728.227 147.075C729.562 147.075 730.492 147.99 730.492 149.4ZM735.109 146.925V145.8H733.684V156.3H735.289V152.07C735.784 152.64 736.624 153.195 737.884 153.195C740.044 153.195 741.454 151.47 741.454 149.4C741.454 147.33 740.044 145.605 737.884 145.605C736.534 145.605 735.679 146.235 735.109 146.925ZM739.819 149.4C739.819 150.81 738.889 151.785 737.584 151.785C736.474 151.785 735.634 151.065 735.289 150.27V148.515C735.634 147.735 736.474 147.015 737.584 147.015C738.889 147.015 739.819 147.99 739.819 149.4ZM745.976 151.23L743.546 145.8H741.836L745.256 153.06L745.106 153.42C744.686 154.545 744.101 155.1 743.321 155.1C743.081 155.1 742.826 155.07 742.586 154.995V156.36C742.901 156.435 743.216 156.48 743.531 156.48C744.626 156.48 745.646 155.85 746.426 153.975L749.801 145.8H748.121L745.976 151.23ZM761.228 153V145.8H759.623V151.59H756.923V145.8H755.318V151.59H752.603V145.8H750.998V153H761.228ZM762.794 149.4C762.794 151.935 764.669 153.195 766.874 153.195C767.879 153.195 768.794 153.015 769.454 152.7V151.32C768.839 151.62 768.044 151.83 767.174 151.83C765.854 151.83 764.594 151.29 764.414 150H769.829C770.294 147.915 769.304 145.605 766.439 145.605C764.774 145.605 762.794 146.79 762.794 149.4ZM768.389 148.8H764.399C764.459 147.585 765.434 146.94 766.514 146.94C768.089 146.94 768.479 148.17 768.389 148.8ZM773.038 153V150.105H776.638V153H778.243V145.8H776.638V148.695H773.038V145.8H771.433V153H773.038ZM783.821 153C785.636 153 786.671 151.95 786.671 150.6C786.671 149.235 785.636 148.2 783.821 148.2H781.856V145.8H780.251V153H783.821ZM781.856 149.46H783.506C784.451 149.46 785.036 149.85 785.036 150.6C785.036 151.335 784.451 151.725 783.506 151.725H781.856V149.46Z" fill="white"/>
<path d="M160.985 153V144.075H166.385V153H168.095V142.5H159.275V153H160.985ZM169.746 149.4C169.746 151.89 171.636 153.195 173.646 153.195C175.671 153.195 177.546 151.89 177.546 149.4C177.546 146.91 175.671 145.605 173.646 145.605C171.636 145.605 169.746 146.91 169.746 149.4ZM175.911 149.4C175.911 150.81 174.981 151.725 173.646 151.725C172.296 151.725 171.366 150.81 171.366 149.4C171.366 147.99 172.296 147.075 173.646 147.075C174.981 147.075 175.911 147.99 175.911 149.4ZM189.333 153V145.8H187.728V151.59H185.028V145.8H183.423V151.59H180.708V145.8H179.103V153H189.333ZM194.589 151.23L192.159 145.8H190.449L193.869 153.06L193.719 153.42C193.299 154.545 192.714 155.1 191.934 155.1C191.694 155.1 191.439 155.07 191.199 154.995V156.36C191.514 156.435 191.829 156.48 192.144 156.48C193.239 156.48 194.259 155.85 195.039 153.975L198.414 145.8H196.734L194.589 151.23ZM201.215 153V150.015H202.37L204.74 153H206.585L203.69 149.37L206.3 145.8H204.47L202.4 148.65H201.215V145.8H199.61V153H201.215ZM214.528 153V147.21H217.003V145.8H210.433V147.21H212.923V153H214.528ZM217.618 149.4C217.618 151.89 219.508 153.195 221.518 153.195C223.543 153.195 225.418 151.89 225.418 149.4C225.418 146.91 223.543 145.605 221.518 145.605C219.508 145.605 217.618 146.91 217.618 149.4ZM223.783 149.4C223.783 150.81 222.853 151.725 221.518 151.725C220.168 151.725 219.238 150.81 219.238 149.4C219.238 147.99 220.168 147.075 221.518 147.075C222.853 147.075 223.783 147.99 223.783 149.4ZM231.204 153C232.869 153 233.574 152.13 233.574 151.02C233.574 150.135 233.019 149.565 232.344 149.355C232.959 149.085 233.364 148.515 233.364 147.72C233.364 146.595 232.539 145.8 231.084 145.8H226.974V153H231.204ZM228.579 149.94H230.844C231.399 149.94 231.954 150.135 231.954 150.87C231.954 151.56 231.474 151.785 230.814 151.785H228.579V149.94ZM228.579 147.015H230.724C231.219 147.015 231.744 147.225 231.744 147.93C231.744 148.575 231.294 148.8 230.724 148.8H228.579V147.015ZM241.327 151.335V148.755C241.327 146.58 240.037 145.605 237.997 145.605C236.842 145.605 235.807 145.89 235.237 146.085V147.555C235.882 147.27 236.767 147 237.832 147C239.062 147 239.722 147.63 239.722 148.53V148.785C239.152 148.665 238.462 148.575 237.847 148.575C236.347 148.575 234.637 149.145 234.637 150.99C234.637 152.475 235.852 153.195 237.157 153.195C238.282 153.195 239.167 152.835 239.872 152.265C240.127 152.85 240.652 153.105 241.312 153.105C241.672 153.105 242.032 153.045 242.332 152.925V151.77C242.182 151.815 242.017 151.86 241.852 151.86C241.567 151.86 241.327 151.74 241.327 151.335ZM238.162 149.7C238.672 149.7 239.287 149.79 239.722 149.88V151.095C239.152 151.665 238.402 151.95 237.637 151.95C236.917 151.95 236.287 151.59 236.287 150.885C236.287 149.985 237.247 149.7 238.162 149.7ZM244.966 146.925V145.8H243.541V156.3H245.146V152.07C245.641 152.64 246.481 153.195 247.741 153.195C249.901 153.195 251.311 151.47 251.311 149.4C251.311 147.33 249.901 145.605 247.741 145.605C246.391 145.605 245.536 146.235 244.966 146.925ZM249.676 149.4C249.676 150.81 248.746 151.785 247.441 151.785C246.331 151.785 245.491 151.065 245.146 150.27V148.515C245.491 147.735 246.331 147.015 247.441 147.015C248.746 147.015 249.676 147.99 249.676 149.4ZM255.834 151.23L253.404 145.8H251.694L255.114 153.06L254.964 153.42C254.544 154.545 253.959 155.1 253.179 155.1C252.939 155.1 252.684 155.07 252.444 154.995V156.36C252.759 156.435 253.074 156.48 253.389 156.48C254.484 156.48 255.504 155.85 256.284 153.975L259.659 145.8H257.979L255.834 151.23Z" fill="white"/>
<path d="M393.625 150.15C393.625 148.515 392.515 147.72 391.495 147.48C392.485 147.15 393.205 146.34 393.205 145.125C393.205 143.22 391.525 142.305 389.185 142.305C388 142.305 386.905 142.5 385.765 142.98V144.66C386.965 144.09 387.97 143.88 389.05 143.895C390.52 143.895 391.465 144.285 391.465 145.365C391.465 146.31 390.625 146.79 389.35 146.79H387.25V148.35H389.5C390.7 148.35 391.885 148.68 391.885 149.94C391.885 151.275 390.55 151.605 389.26 151.605C388.03 151.62 386.845 151.455 385.585 150.855V152.52C386.86 153 388.06 153.195 389.395 153.195C391.405 153.195 393.625 152.46 393.625 150.15ZM399.405 153C401.07 153 401.775 152.13 401.775 151.02C401.775 150.135 401.22 149.565 400.545 149.355C401.16 149.085 401.565 148.515 401.565 147.72C401.565 146.595 400.74 145.8 399.285 145.8H395.175V153H399.405ZM396.78 149.94H399.045C399.6 149.94 400.155 150.135 400.155 150.87C400.155 151.56 399.675 151.785 399.015 151.785H396.78V149.94ZM396.78 147.015H398.925C399.42 147.015 399.945 147.225 399.945 147.93C399.945 148.575 399.495 148.8 398.925 148.8H396.78V147.015ZM402.943 149.4C402.943 151.935 404.818 153.195 407.023 153.195C408.028 153.195 408.943 153.015 409.603 152.7V151.32C408.988 151.62 408.193 151.83 407.323 151.83C406.003 151.83 404.743 151.29 404.563 150H409.978C410.443 147.915 409.453 145.605 406.588 145.605C404.923 145.605 402.943 146.79 402.943 149.4ZM408.538 148.8H404.548C404.608 147.585 405.583 146.94 406.663 146.94C408.238 146.94 408.628 148.17 408.538 148.8ZM412.363 154.935V153H418.153V154.935H419.668V151.68H418.603V145.8H412.978C413.008 148.305 412.708 150.135 411.838 151.68H410.848V154.935H412.363ZM414.478 147.12H416.983V151.68H413.518C414.118 150.405 414.418 149.055 414.478 147.12ZM420.535 149.4C420.535 151.935 422.41 153.195 424.615 153.195C425.62 153.195 426.535 153.015 427.195 152.7V151.32C426.58 151.62 425.785 151.83 424.915 151.83C423.595 151.83 422.335 151.29 422.155 150H427.57C428.035 147.915 427.045 145.605 424.18 145.605C422.515 145.605 420.535 146.79 420.535 149.4ZM426.13 148.8H422.14C422.2 147.585 423.175 146.94 424.255 146.94C425.83 146.94 426.22 148.17 426.13 148.8ZM430.779 153V150.105H434.379V153H435.984V145.8H434.379V148.695H430.779V145.8H429.174V153H430.779ZM439.597 153V150.105H443.197V153H444.802V145.8H443.197V148.695H439.597V145.8H437.992V153H439.597ZM448.011 153L449.796 150.645H451.431V153H453.036V145.8H449.316C447.516 145.8 446.541 146.925 446.541 148.23C446.541 149.22 447.096 150.105 448.146 150.465L446.166 153H448.011ZM448.176 148.245C448.176 147.54 448.701 147.135 449.586 147.135H451.431V149.355H449.586C448.701 149.355 448.176 148.95 448.176 148.245ZM469.883 154.935V151.62H468.818V145.8H467.213V151.59H464.513V145.8H462.908V151.59H460.193V145.8H458.588V153H468.368V154.935H469.883ZM470.765 149.4C470.765 151.89 472.655 153.195 474.665 153.195C476.69 153.195 478.565 151.89 478.565 149.4C478.565 146.91 476.69 145.605 474.665 145.605C472.655 145.605 470.765 146.91 470.765 149.4ZM476.93 149.4C476.93 150.81 476 151.725 474.665 151.725C473.315 151.725 472.385 150.81 472.385 149.4C472.385 147.99 473.315 147.075 474.665 147.075C476 147.075 476.93 147.99 476.93 149.4ZM480.815 154.935V153H486.605V154.935H488.12V151.68H487.055V145.8H481.43C481.46 148.305 481.16 150.135 480.29 151.68H479.3V154.935H480.815ZM482.93 147.12H485.435V151.68H481.97C482.57 150.405 482.87 149.055 482.93 147.12ZM488.988 149.4C488.988 151.89 490.878 153.195 492.888 153.195C494.913 153.195 496.788 151.89 496.788 149.4C496.788 146.91 494.913 145.605 492.888 145.605C490.878 145.605 488.988 146.91 488.988 149.4ZM495.153 149.4C495.153 150.81 494.223 151.725 492.888 151.725C491.538 151.725 490.608 150.81 490.608 149.4C490.608 147.99 491.538 147.075 492.888 147.075C494.223 147.075 495.153 147.99 495.153 149.4ZM503.494 153V147.21H507.094V153H508.699V145.8H501.889V153H503.494ZM510.257 149.4C510.257 151.89 512.147 153.195 514.157 153.195C516.182 153.195 518.057 151.89 518.057 149.4C518.057 146.91 516.182 145.605 514.157 145.605C512.147 145.605 510.257 146.91 510.257 149.4ZM516.422 149.4C516.422 150.81 515.492 151.725 514.157 151.725C512.807 151.725 511.877 150.81 511.877 149.4C511.877 147.99 512.807 147.075 514.157 147.075C515.492 147.075 516.422 147.99 516.422 149.4ZM521.038 146.925V145.8H519.613V156.3H521.218V152.07C521.713 152.64 522.553 153.195 523.813 153.195C525.973 153.195 527.383 151.47 527.383 149.4C527.383 147.33 525.973 145.605 523.813 145.605C522.463 145.605 521.608 146.235 521.038 146.925ZM525.748 149.4C525.748 150.81 524.818 151.785 523.513 151.785C522.403 151.785 521.563 151.065 521.218 150.27V148.515C521.563 147.735 522.403 147.015 523.513 147.015C524.818 147.015 525.748 147.99 525.748 149.4ZM531.906 151.23L529.476 145.8H527.766L531.186 153.06L531.036 153.42C530.616 154.545 530.031 155.1 529.251 155.1C529.011 155.1 528.756 155.07 528.516 154.995V156.36C528.831 156.435 529.146 156.48 529.461 156.48C530.556 156.48 531.576 155.85 532.356 153.975L535.731 145.8H534.051L531.906 151.23ZM547.158 153V145.8H545.553V151.59H542.853V145.8H541.248V151.59H538.533V145.8H536.928V153H547.158ZM548.724 149.4C548.724 151.935 550.599 153.195 552.804 153.195C553.809 153.195 554.724 153.015 555.384 152.7V151.32C554.769 151.62 553.974 151.83 553.104 151.83C551.784 151.83 550.524 151.29 550.344 150H555.759C556.224 147.915 555.234 145.605 552.369 145.605C550.704 145.605 548.724 146.79 548.724 149.4ZM554.319 148.8H550.329C550.389 147.585 551.364 146.94 552.444 146.94C554.019 146.94 554.409 148.17 554.319 148.8ZM558.967 153V150.105H562.567V153H564.172V145.8H562.567V148.695H558.967V145.8H557.362V153H558.967ZM569.751 153C571.566 153 572.601 151.95 572.601 150.6C572.601 149.235 571.566 148.2 569.751 148.2H567.786V145.8H566.181V153H569.751ZM567.786 149.46H569.436C570.381 149.46 570.966 149.85 570.966 150.6C570.966 151.335 570.381 151.725 569.436 151.725H567.786V149.46Z" fill="white"/>
<path d="M387.905 373L388.835 370.735H394.1L395.03 373H396.83L392.405 362.5H390.53L386.09 373H387.905ZM391.265 364.75C391.325 364.585 391.385 364.42 391.46 364.165C391.535 364.42 391.595 364.585 391.655 364.75L393.5 369.235H389.42L391.265 364.75ZM399.523 373V370.105H403.123V373H404.728V365.8H403.123V368.695H399.523V365.8H397.918V373H399.523ZM412.871 371.335V368.755C412.871 366.58 411.581 365.605 409.541 365.605C408.386 365.605 407.351 365.89 406.781 366.085V367.555C407.426 367.27 408.311 367 409.376 367C410.606 367 411.266 367.63 411.266 368.53V368.785C410.696 368.665 410.006 368.575 409.391 368.575C407.891 368.575 406.181 369.145 406.181 370.99C406.181 372.475 407.396 373.195 408.701 373.195C409.826 373.195 410.711 372.835 411.416 372.265C411.671 372.85 412.196 373.105 412.856 373.105C413.216 373.105 413.576 373.045 413.876 372.925V371.77C413.726 371.815 413.561 371.86 413.396 371.86C413.111 371.86 412.871 371.74 412.871 371.335ZM409.706 369.7C410.216 369.7 410.831 369.79 411.266 369.88V371.095C410.696 371.665 409.946 371.95 409.181 371.95C408.461 371.95 407.831 371.59 407.831 370.885C407.831 369.985 408.791 369.7 409.706 369.7ZM417.951 367.165H420.381V373H421.986V365.8H416.436C416.301 369.37 415.971 371.77 414.756 371.77C414.606 371.77 414.456 371.74 414.291 371.68V372.94C414.651 373.075 414.981 373.135 415.281 373.135C417.201 373.135 417.741 370.645 417.951 367.165ZM425.582 364.96V373H424.262V364.96H425.582ZM424.937 361.945C425.137 361.945 425.312 362.015 425.462 362.155C425.622 362.285 425.702 362.495 425.702 362.785C425.702 363.065 425.622 363.275 425.462 363.415C425.312 363.555 425.137 363.625 424.937 363.625C424.717 363.625 424.532 363.555 424.382 363.415C424.232 363.275 424.157 363.065 424.157 362.785C424.157 362.495 424.232 362.285 424.382 362.155C424.532 362.015 424.717 361.945 424.937 361.945ZM433.499 371.035C433.499 370.135 432.899 369.535 432.074 369.31C432.824 369.115 433.349 368.56 433.349 367.705C433.349 366.535 432.419 365.59 430.199 365.59C429.209 365.59 428.249 365.83 427.559 366.16V367.54C428.174 367.21 429.164 366.955 430.004 366.955C431.039 366.955 431.729 367.27 431.729 367.915C431.729 368.515 431.144 368.725 430.379 368.725H428.909V369.955H430.379C431.099 369.955 431.879 370.075 431.879 370.84C431.879 371.635 430.979 371.83 429.914 371.83C429.044 371.83 428.009 371.56 427.424 371.23V372.61C428.084 372.955 429.044 373.195 430.124 373.195C432.344 373.195 433.499 372.295 433.499 371.035ZM440.26 373V370.105H443.86V373H445.465V365.8H443.86V368.695H440.26V365.8H438.655V373H440.26ZM447.024 369.4C447.024 371.89 448.914 373.195 450.924 373.195C452.949 373.195 454.824 371.89 454.824 369.4C454.824 366.91 452.949 365.605 450.924 365.605C448.914 365.605 447.024 366.91 447.024 369.4ZM453.189 369.4C453.189 370.81 452.259 371.725 450.924 371.725C449.574 371.725 448.644 370.81 448.644 369.4C448.644 367.99 449.574 367.075 450.924 367.075C452.259 367.075 453.189 367.99 453.189 369.4ZM460.61 373C462.275 373 462.98 372.13 462.98 371.02C462.98 370.135 462.425 369.565 461.75 369.355C462.365 369.085 462.77 368.515 462.77 367.72C462.77 366.595 461.945 365.8 460.49 365.8H456.38V373H460.61ZM457.985 369.94H460.25C460.805 369.94 461.36 370.135 461.36 370.87C461.36 371.56 460.88 371.785 460.22 371.785H457.985V369.94ZM457.985 367.015H460.13C460.625 367.015 461.15 367.225 461.15 367.93C461.15 368.575 460.7 368.8 460.13 368.8H457.985V367.015ZM465.978 373L469.833 368.29V373H471.438V365.8H470.058L466.203 370.51V365.8H464.598V373H465.978ZM475.05 373V370.105H478.65V373H480.255V365.8H478.65V368.695H475.05V365.8H473.445V373H475.05ZM481.814 369.4C481.814 371.89 483.704 373.195 485.714 373.195C487.739 373.195 489.614 371.89 489.614 369.4C489.614 366.91 487.739 365.605 485.714 365.605C483.704 365.605 481.814 366.91 481.814 369.4ZM487.979 369.4C487.979 370.81 487.049 371.725 485.714 371.725C484.364 371.725 483.434 370.81 483.434 369.4C483.434 367.99 484.364 367.075 485.714 367.075C487.049 367.075 487.979 367.99 487.979 369.4ZM492.775 373V370.015H493.93L496.3 373H498.145L495.25 369.37L497.86 365.8H496.03L493.96 368.65H492.775V365.8H491.17V373H492.775Z" fill="white"/>
<defs>
<filter id="filter0_d_1731_417" x="47" y="84" width="97" height="500" filterUnits="userSpaceOnUse" color-interpolation-filters="sRGB">
<feFlood flood-opacity="0" result="BackgroundImageFix"/>
<feColorMatrix in="SourceAlpha" type="matrix" values="0 0 0 0 0 0 0 0 0 0 0 0 0 0 0 0 0 0 127 0" result="hardAlpha"/>
<feOffset dx="8" dy="4"/>
<feGaussianBlur stdDeviation="10.5"/>
<feComposite in2="hardAlpha" operator="out"/>
<feColorMatrix type="matrix" values="0 0 0 0 0 0 0 0 0 0 0 0 0 0 0 0 0 0 0.05 0"/>
<feBlend mode="normal" in2="BackgroundImageFix" result="effect1_dropShadow_1731_417"/>
<feBlend mode="normal" in="SourceGraphic" in2="effect1_dropShadow_1731_417" result="shape"/>
</filter>
<filter id="filter1_d_1731_417" x="94" y="29" width="955" height="97" filterUnits="userSpaceOnUse" color-interpolation-filters="sRGB">
<feFlood flood-opacity="0" result="BackgroundImageFix"/>
<feColorMatrix in="SourceAlpha" type="matrix" values="0 0 0 0 0 0 0 0 0 0 0 0 0 0 0 0 0 0 127 0" result="hardAlpha"/>
<feOffset dy="4"/>
<feGaussianBlur stdDeviation="10.5"/>
<feComposite in2="hardAlpha" operator="out"/>
<feColorMatrix type="matrix" values="0 0 0 0 0 0 0 0 0 0 0 0 0 0 0 0 0 0 0.05 0"/>
<feBlend mode="normal" in2="BackgroundImageFix" result="effect1_dropShadow_1731_417"/>
<feBlend mode="normal" in="SourceGraphic" in2="effect1_dropShadow_1731_417" result="shape"/>
</filter>
</defs>
</svg>
