<svg width="619" height="323" viewBox="0 0 619 323" fill="none" xmlns="http://www.w3.org/2000/svg">
<path d="M0 15C0 6.71574 6.71573 0 15 0H604C612.284 0 619 6.71573 619 15V308C619 316.284 612.284 323 604 323H15C6.71572 323 0 316.284 0 308V15Z" fill="white"/>
<path d="M36.962 54V41.4H38.744V54H36.962ZM42.3869 54V44.46H44.1689L48.2729 51.516H47.5529L51.7649 44.46H53.3849V54H51.8189V46.404L52.1069 46.566L48.2549 52.92H47.4989L43.6289 46.44L43.9709 46.368V54H42.3869ZM56.3162 46.26L56.2082 41.4H57.7202L57.5942 46.26H56.3162ZM66.6295 54V50.652L66.8995 50.976H63.8575C62.5855 50.976 61.5895 50.706 60.8695 50.166C60.1615 49.626 59.8075 48.84 59.8075 47.808C59.8075 46.704 60.1855 45.87 60.9415 45.306C61.7095 44.742 62.7295 44.46 64.0015 44.46H68.1775V54H66.6295ZM59.7175 54L62.3095 50.346H64.0915L61.5715 54H59.7175ZM66.6295 50.112V45.486L66.8995 45.972H64.0555C63.2635 45.972 62.6515 46.122 62.2195 46.422C61.7875 46.71 61.5715 47.19 61.5715 47.862C61.5715 49.11 62.3755 49.734 63.9835 49.734H66.8995L66.6295 50.112Z" fill="#37376D"/>
<path d="M37.124 86V73.4H42.362C43.694 73.4 44.738 73.676 45.494 74.228C46.262 74.768 46.646 75.566 46.646 76.622C46.646 77.666 46.28 78.458 45.548 78.998C44.816 79.526 43.856 79.79 42.668 79.79L42.974 79.34C44.378 79.34 45.446 79.616 46.178 80.168C46.91 80.72 47.276 81.53 47.276 82.598C47.276 83.678 46.892 84.518 46.124 85.118C45.368 85.706 44.228 86 42.704 86H37.124ZM38.438 84.938H42.704C43.772 84.938 44.582 84.74 45.134 84.344C45.686 83.948 45.962 83.336 45.962 82.508C45.962 81.692 45.686 81.092 45.134 80.708C44.582 80.324 43.772 80.132 42.704 80.132H38.438V84.938ZM38.438 79.106H42.29C43.262 79.106 44.006 78.914 44.522 78.53C45.05 78.134 45.314 77.552 45.314 76.784C45.314 76.016 45.05 75.44 44.522 75.056C44.006 74.66 43.262 74.462 42.29 74.462H38.438V79.106ZM50.3004 86V76.55H54.4764C55.5444 76.55 56.3844 76.754 56.9964 77.162C57.6204 77.57 57.9324 78.17 57.9324 78.962C57.9324 79.73 57.6384 80.324 57.0504 80.744C56.4624 81.152 55.6884 81.356 54.7284 81.356L54.9804 80.978C56.1084 80.978 56.9364 81.188 57.4644 81.608C57.9924 82.028 58.2564 82.634 58.2564 83.426C58.2564 84.242 57.9564 84.878 57.3564 85.334C56.7684 85.778 55.8504 86 54.6024 86H50.3004ZM51.5424 84.992H54.5484C55.3524 84.992 55.9584 84.866 56.3664 84.614C56.7864 84.35 56.9964 83.93 56.9964 83.354C56.9964 82.778 56.8104 82.358 56.4384 82.094C56.0664 81.83 55.4784 81.698 54.6744 81.698H51.5424V84.992ZM51.5424 80.744H54.3864C55.1184 80.744 55.6764 80.606 56.0604 80.33C56.4564 80.054 56.6544 79.652 56.6544 79.124C56.6544 78.596 56.4564 78.2 56.0604 77.936C55.6764 77.672 55.1184 77.54 54.3864 77.54H51.5424V80.744ZM65.3016 86.09C64.3176 86.09 63.4536 85.886 62.7096 85.478C61.9656 85.058 61.3836 84.488 60.9636 83.768C60.5436 83.036 60.3336 82.202 60.3336 81.266C60.3336 80.33 60.5316 79.502 60.9276 78.782C61.3356 78.062 61.8876 77.498 62.5836 77.09C63.2916 76.67 64.0836 76.46 64.9596 76.46C65.8476 76.46 66.6336 76.664 67.3176 77.072C68.0136 77.468 68.5596 78.032 68.9556 78.764C69.3516 79.484 69.5496 80.318 69.5496 81.266C69.5496 81.326 69.5436 81.392 69.5316 81.464C69.5316 81.524 69.5316 81.59 69.5316 81.662H61.3056V80.708H68.8476L68.3436 81.086C68.3436 80.402 68.1936 79.796 67.8936 79.268C67.6056 78.728 67.2096 78.308 66.7056 78.008C66.2016 77.708 65.6196 77.558 64.9596 77.558C64.3116 77.558 63.7296 77.708 63.2136 78.008C62.6976 78.308 62.2956 78.728 62.0076 79.268C61.7196 79.808 61.5756 80.426 61.5756 81.122V81.32C61.5756 82.04 61.7316 82.676 62.0436 83.228C62.3676 83.768 62.8116 84.194 63.3756 84.506C63.9516 84.806 64.6056 84.956 65.3376 84.956C65.9136 84.956 66.4476 84.854 66.9396 84.65C67.4436 84.446 67.8756 84.134 68.2356 83.714L68.9556 84.542C68.5356 85.046 68.0076 85.43 67.3716 85.694C66.7476 85.958 66.0576 86.09 65.3016 86.09ZM78.6652 85.388V77.666H74.1112L74.0032 79.772C73.9792 80.408 73.9372 81.032 73.8772 81.644C73.8292 82.256 73.7392 82.82 73.6072 83.336C73.4872 83.84 73.3132 84.254 73.0852 84.578C72.8572 84.89 72.5632 85.07 72.2032 85.118L70.9252 84.884C71.2972 84.896 71.6032 84.764 71.8432 84.488C72.0832 84.2 72.2692 83.81 72.4012 83.318C72.5332 82.826 72.6292 82.268 72.6892 81.644C72.7492 81.008 72.7972 80.36 72.8332 79.7L72.9592 76.55H79.9432V85.388H78.6652ZM70.5292 88.286V84.884H81.4192V88.286H80.2132V86H71.7352V88.286H70.5292ZM83.9098 86V76.55H85.1878V86H83.9098ZM84.5578 74.462C84.2938 74.462 84.0718 74.372 83.8918 74.192C83.7118 74.012 83.6218 73.796 83.6218 73.544C83.6218 73.292 83.7118 73.082 83.8918 72.914C84.0718 72.734 84.2938 72.644 84.5578 72.644C84.8218 72.644 85.0438 72.728 85.2238 72.896C85.4038 73.064 85.4938 73.274 85.4938 73.526C85.4938 73.79 85.4038 74.012 85.2238 74.192C85.0558 74.372 84.8338 74.462 84.5578 74.462ZM90.6317 86V77.324L90.9557 77.666H87.0497V76.55H95.4917V77.666H91.5857L91.9097 77.324V86H90.6317ZM101.407 79.88C102.595 79.892 103.495 80.156 104.107 80.672C104.731 81.188 105.043 81.932 105.043 82.904C105.043 83.912 104.707 84.686 104.035 85.226C103.375 85.766 102.415 86.03 101.155 86.018L97.3395 86V76.55H98.6175V79.844L101.407 79.88ZM101.083 85.046C101.959 85.058 102.619 84.884 103.063 84.524C103.519 84.152 103.747 83.612 103.747 82.904C103.747 82.196 103.525 81.68 103.081 81.356C102.637 81.02 101.971 80.846 101.083 80.834L98.6175 80.798V85.01L101.083 85.046ZM113.993 86V77.324L114.317 77.666H110.411V76.55H118.853V77.666H114.947L115.271 77.324V86H113.993ZM124.311 86.09C123.327 86.09 122.463 85.886 121.719 85.478C120.975 85.058 120.393 84.488 119.973 83.768C119.553 83.036 119.343 82.202 119.343 81.266C119.343 80.33 119.541 79.502 119.937 78.782C120.345 78.062 120.897 77.498 121.593 77.09C122.301 76.67 123.093 76.46 123.969 76.46C124.857 76.46 125.643 76.664 126.327 77.072C127.023 77.468 127.569 78.032 127.965 78.764C128.361 79.484 128.559 80.318 128.559 81.266C128.559 81.326 128.553 81.392 128.541 81.464C128.541 81.524 128.541 81.59 128.541 81.662H120.315V80.708H127.857L127.353 81.086C127.353 80.402 127.203 79.796 126.903 79.268C126.615 78.728 126.219 78.308 125.715 78.008C125.211 77.708 124.629 77.558 123.969 77.558C123.321 77.558 122.739 77.708 122.223 78.008C121.707 78.308 121.305 78.728 121.017 79.268C120.729 79.808 120.585 80.426 120.585 81.122V81.32C120.585 82.04 120.741 82.676 121.053 83.228C121.377 83.768 121.821 84.194 122.385 84.506C122.961 84.806 123.615 84.956 124.347 84.956C124.923 84.956 125.457 84.854 125.949 84.65C126.453 84.446 126.885 84.134 127.245 83.714L127.965 84.542C127.545 85.046 127.017 85.43 126.381 85.694C125.757 85.958 125.067 86.09 124.311 86.09ZM138.318 86L134.43 81.32L135.492 80.69L139.83 86H138.318ZM131.388 86V76.55H132.666V86H131.388ZM132.27 81.788V80.69H135.312V81.788H132.27ZM135.6 81.41L134.412 81.23L138.174 76.55H139.56L135.6 81.41ZM145.473 86.09C144.537 86.09 143.697 85.886 142.953 85.478C142.221 85.058 141.645 84.488 141.225 83.768C140.805 83.036 140.595 82.202 140.595 81.266C140.595 80.318 140.805 79.484 141.225 78.764C141.645 78.044 142.221 77.48 142.953 77.072C143.697 76.664 144.537 76.46 145.473 76.46C146.277 76.46 147.003 76.616 147.651 76.928C148.299 77.24 148.809 77.708 149.181 78.332L148.227 78.98C147.903 78.5 147.501 78.146 147.021 77.918C146.541 77.69 146.019 77.576 145.455 77.576C144.783 77.576 144.177 77.732 143.637 78.044C143.097 78.344 142.671 78.77 142.359 79.322C142.047 79.874 141.891 80.522 141.891 81.266C141.891 82.01 142.047 82.658 142.359 83.21C142.671 83.762 143.097 84.194 143.637 84.506C144.177 84.806 144.783 84.956 145.455 84.956C146.019 84.956 146.541 84.842 147.021 84.614C147.501 84.386 147.903 84.038 148.227 83.57L149.181 84.218C148.809 84.83 148.299 85.298 147.651 85.622C147.003 85.934 146.277 86.09 145.473 86.09ZM153.28 86V77.324L153.604 77.666H149.698V76.55H158.14V77.666H154.234L154.558 77.324V86H153.28ZM171.179 85.388V77.666H166.625L166.517 79.772C166.493 80.408 166.451 81.032 166.391 81.644C166.343 82.256 166.253 82.82 166.121 83.336C166.001 83.84 165.827 84.254 165.599 84.578C165.371 84.89 165.077 85.07 164.717 85.118L163.439 84.884C163.811 84.896 164.117 84.764 164.357 84.488C164.597 84.2 164.783 83.81 164.915 83.318C165.047 82.826 165.143 82.268 165.203 81.644C165.263 81.008 165.311 80.36 165.347 79.7L165.473 76.55H172.457V85.388H171.179ZM163.043 88.286V84.884H173.933V88.286H172.727V86H164.249V88.286H163.043ZM174.695 85.982L174.785 84.884C174.869 84.896 174.947 84.914 175.019 84.938C175.103 84.95 175.175 84.956 175.235 84.956C175.619 84.956 175.925 84.812 176.153 84.524C176.393 84.236 176.573 83.852 176.693 83.372C176.813 82.892 176.897 82.352 176.945 81.752C176.993 81.14 177.035 80.528 177.071 79.916L177.233 76.55H184.163V86H182.885V77.288L183.209 77.666H178.061L178.367 77.27L178.223 80.006C178.187 80.822 178.121 81.602 178.025 82.346C177.941 83.09 177.803 83.744 177.611 84.308C177.431 84.872 177.179 85.316 176.855 85.64C176.531 85.952 176.117 86.108 175.613 86.108C175.469 86.108 175.319 86.096 175.163 86.072C175.019 86.048 174.863 86.018 174.695 85.982ZM193.899 86V82.598L194.133 82.868H190.929C189.717 82.868 188.769 82.604 188.085 82.076C187.401 81.548 187.059 80.78 187.059 79.772C187.059 78.692 187.425 77.888 188.157 77.36C188.889 76.82 189.867 76.55 191.091 76.55H195.069V86H193.899ZM186.987 86L189.579 82.364H190.911L188.373 86H186.987ZM193.899 82.22V77.288L194.133 77.666H191.127C190.251 77.666 189.567 77.834 189.075 78.17C188.595 78.506 188.355 79.052 188.355 79.808C188.355 81.212 189.249 81.914 191.037 81.914H194.133L193.899 82.22ZM203.423 86V76.55H211.919V86H210.641V77.324L210.965 77.666H204.377L204.701 77.324V86H203.423ZM219.44 86.09C218.528 86.09 217.706 85.886 216.974 85.478C216.254 85.058 215.684 84.488 215.264 83.768C214.844 83.036 214.634 82.202 214.634 81.266C214.634 80.318 214.844 79.484 215.264 78.764C215.684 78.044 216.254 77.48 216.974 77.072C217.694 76.664 218.516 76.46 219.44 76.46C220.376 76.46 221.204 76.664 221.924 77.072C222.656 77.48 223.226 78.044 223.634 78.764C224.054 79.484 224.264 80.318 224.264 81.266C224.264 82.202 224.054 83.036 223.634 83.768C223.226 84.488 222.656 85.058 221.924 85.478C221.192 85.886 220.364 86.09 219.44 86.09ZM219.44 84.956C220.124 84.956 220.73 84.806 221.258 84.506C221.786 84.194 222.2 83.762 222.5 83.21C222.812 82.646 222.968 81.998 222.968 81.266C222.968 80.522 222.812 79.874 222.5 79.322C222.2 78.77 221.786 78.344 221.258 78.044C220.73 77.732 220.13 77.576 219.458 77.576C218.786 77.576 218.186 77.732 217.658 78.044C217.13 78.344 216.71 78.77 216.398 79.322C216.086 79.874 215.93 80.522 215.93 81.266C215.93 81.998 216.086 82.646 216.398 83.21C216.71 83.762 217.13 84.194 217.658 84.506C218.186 84.806 218.78 84.956 219.44 84.956ZM233.206 84.884L232.918 85.226V76.55H234.196V85.226L233.854 84.884H239.128L238.786 85.226V76.55H240.064V86H226.996V76.55H228.274V85.226L227.95 84.884H233.206ZM243.857 89.582C243.413 89.582 242.987 89.51 242.579 89.366C242.183 89.222 241.841 89.006 241.553 88.718L242.147 87.764C242.387 87.992 242.645 88.166 242.921 88.286C243.209 88.418 243.527 88.484 243.875 88.484C244.295 88.484 244.655 88.364 244.955 88.124C245.267 87.896 245.561 87.488 245.837 86.9L246.449 85.514L246.593 85.316L250.481 76.55H251.741L247.007 87.134C246.743 87.746 246.449 88.232 246.125 88.592C245.813 88.952 245.471 89.204 245.099 89.348C244.727 89.504 244.313 89.582 243.857 89.582ZM246.377 86.27L242.021 76.55H243.353L247.205 85.226L246.377 86.27ZM260.662 86L256.774 81.32L257.836 80.69L262.174 86H260.662ZM253.732 86V76.55H255.01V86H253.732ZM254.614 81.788V80.69H257.656V81.788H254.614ZM257.944 81.41L256.756 81.23L260.518 76.55H261.904L257.944 81.41ZM263.808 89.582C263.364 89.582 262.938 89.51 262.53 89.366C262.134 89.222 261.792 89.006 261.504 88.718L262.098 87.764C262.338 87.992 262.596 88.166 262.872 88.286C263.16 88.418 263.478 88.484 263.826 88.484C264.246 88.484 264.606 88.364 264.906 88.124C265.218 87.896 265.512 87.488 265.788 86.9L266.4 85.514L266.544 85.316L270.432 76.55H271.692L266.958 87.134C266.694 87.746 266.4 88.232 266.076 88.592C265.764 88.952 265.422 89.204 265.05 89.348C264.678 89.504 264.264 89.582 263.808 89.582ZM266.328 86.27L261.972 76.55H263.304L267.156 85.226L266.328 86.27ZM273.158 86.09C272.894 86.09 272.666 85.994 272.474 85.802C272.294 85.61 272.204 85.376 272.204 85.1C272.204 84.812 272.294 84.578 272.474 84.398C272.666 84.218 272.894 84.128 273.158 84.128C273.422 84.128 273.644 84.218 273.824 84.398C274.016 84.578 274.112 84.812 274.112 85.1C274.112 85.376 274.016 85.61 273.824 85.802C273.644 85.994 273.422 86.09 273.158 86.09ZM276.972 86.09C276.708 86.09 276.48 85.994 276.288 85.802C276.108 85.61 276.018 85.376 276.018 85.1C276.018 84.812 276.108 84.578 276.288 84.398C276.48 84.218 276.708 84.128 276.972 84.128C277.236 84.128 277.458 84.218 277.638 84.398C277.83 84.578 277.926 84.812 277.926 85.1C277.926 85.376 277.83 85.61 277.638 85.802C277.458 85.994 277.236 86.09 276.972 86.09ZM280.787 86.09C280.523 86.09 280.295 85.994 280.103 85.802C279.923 85.61 279.833 85.376 279.833 85.1C279.833 84.812 279.923 84.578 280.103 84.398C280.295 84.218 280.523 84.128 280.787 84.128C281.051 84.128 281.273 84.218 281.453 84.398C281.645 84.578 281.741 84.812 281.741 85.1C281.741 85.376 281.645 85.61 281.453 85.802C281.273 85.994 281.051 86.09 280.787 86.09Z" fill="#9B9BB6"/>
<path d="M37.124 177V164.4H42.362C43.694 164.4 44.738 164.676 45.494 165.228C46.262 165.768 46.646 166.566 46.646 167.622C46.646 168.666 46.28 169.458 45.548 169.998C44.816 170.526 43.856 170.79 42.668 170.79L42.974 170.34C44.378 170.34 45.446 170.616 46.178 171.168C46.91 171.72 47.276 172.53 47.276 173.598C47.276 174.678 46.892 175.518 46.124 176.118C45.368 176.706 44.228 177 42.704 177H37.124ZM38.438 175.938H42.704C43.772 175.938 44.582 175.74 45.134 175.344C45.686 174.948 45.962 174.336 45.962 173.508C45.962 172.692 45.686 172.092 45.134 171.708C44.582 171.324 43.772 171.132 42.704 171.132H38.438V175.938ZM38.438 170.106H42.29C43.262 170.106 44.006 169.914 44.522 169.53C45.05 169.134 45.314 168.552 45.314 167.784C45.314 167.016 45.05 166.44 44.522 166.056C44.006 165.66 43.262 165.462 42.29 165.462H38.438V170.106ZM50.3004 177V167.55H54.4764C55.5444 167.55 56.3844 167.754 56.9964 168.162C57.6204 168.57 57.9324 169.17 57.9324 169.962C57.9324 170.73 57.6384 171.324 57.0504 171.744C56.4624 172.152 55.6884 172.356 54.7284 172.356L54.9804 171.978C56.1084 171.978 56.9364 172.188 57.4644 172.608C57.9924 173.028 58.2564 173.634 58.2564 174.426C58.2564 175.242 57.9564 175.878 57.3564 176.334C56.7684 176.778 55.8504 177 54.6024 177H50.3004ZM51.5424 175.992H54.5484C55.3524 175.992 55.9584 175.866 56.3664 175.614C56.7864 175.35 56.9964 174.93 56.9964 174.354C56.9964 173.778 56.8104 173.358 56.4384 173.094C56.0664 172.83 55.4784 172.698 54.6744 172.698H51.5424V175.992ZM51.5424 171.744H54.3864C55.1184 171.744 55.6764 171.606 56.0604 171.33C56.4564 171.054 56.6544 170.652 56.6544 170.124C56.6544 169.596 56.4564 169.2 56.0604 168.936C55.6764 168.672 55.1184 168.54 54.3864 168.54H51.5424V171.744ZM65.3016 177.09C64.3176 177.09 63.4536 176.886 62.7096 176.478C61.9656 176.058 61.3836 175.488 60.9636 174.768C60.5436 174.036 60.3336 173.202 60.3336 172.266C60.3336 171.33 60.5316 170.502 60.9276 169.782C61.3356 169.062 61.8876 168.498 62.5836 168.09C63.2916 167.67 64.0836 167.46 64.9596 167.46C65.8476 167.46 66.6336 167.664 67.3176 168.072C68.0136 168.468 68.5596 169.032 68.9556 169.764C69.3516 170.484 69.5496 171.318 69.5496 172.266C69.5496 172.326 69.5436 172.392 69.5316 172.464C69.5316 172.524 69.5316 172.59 69.5316 172.662H61.3056V171.708H68.8476L68.3436 172.086C68.3436 171.402 68.1936 170.796 67.8936 170.268C67.6056 169.728 67.2096 169.308 66.7056 169.008C66.2016 168.708 65.6196 168.558 64.9596 168.558C64.3116 168.558 63.7296 168.708 63.2136 169.008C62.6976 169.308 62.2956 169.728 62.0076 170.268C61.7196 170.808 61.5756 171.426 61.5756 172.122V172.32C61.5756 173.04 61.7316 173.676 62.0436 174.228C62.3676 174.768 62.8116 175.194 63.3756 175.506C63.9516 175.806 64.6056 175.956 65.3376 175.956C65.9136 175.956 66.4476 175.854 66.9396 175.65C67.4436 175.446 67.8756 175.134 68.2356 174.714L68.9556 175.542C68.5356 176.046 68.0076 176.43 67.3716 176.694C66.7476 176.958 66.0576 177.09 65.3016 177.09ZM78.6652 176.388V168.666H74.1112L74.0032 170.772C73.9792 171.408 73.9372 172.032 73.8772 172.644C73.8292 173.256 73.7392 173.82 73.6072 174.336C73.4872 174.84 73.3132 175.254 73.0852 175.578C72.8572 175.89 72.5632 176.07 72.2032 176.118L70.9252 175.884C71.2972 175.896 71.6032 175.764 71.8432 175.488C72.0832 175.2 72.2692 174.81 72.4012 174.318C72.5332 173.826 72.6292 173.268 72.6892 172.644C72.7492 172.008 72.7972 171.36 72.8332 170.7L72.9592 167.55H79.9432V176.388H78.6652ZM70.5292 179.286V175.884H81.4192V179.286H80.2132V177H71.7352V179.286H70.5292ZM83.9098 177V167.55H85.1878V177H83.9098ZM84.5578 165.462C84.2938 165.462 84.0718 165.372 83.8918 165.192C83.7118 165.012 83.6218 164.796 83.6218 164.544C83.6218 164.292 83.7118 164.082 83.8918 163.914C84.0718 163.734 84.2938 163.644 84.5578 163.644C84.8218 163.644 85.0438 163.728 85.2238 163.896C85.4038 164.064 85.4938 164.274 85.4938 164.526C85.4938 164.79 85.4038 165.012 85.2238 165.192C85.0558 165.372 84.8338 165.462 84.5578 165.462ZM90.6317 177V168.324L90.9557 168.666H87.0497V167.55H95.4917V168.666H91.5857L91.9097 168.324V177H90.6317ZM101.407 170.88C102.595 170.892 103.495 171.156 104.107 171.672C104.731 172.188 105.043 172.932 105.043 173.904C105.043 174.912 104.707 175.686 104.035 176.226C103.375 176.766 102.415 177.03 101.155 177.018L97.3395 177V167.55H98.6175V170.844L101.407 170.88ZM101.083 176.046C101.959 176.058 102.619 175.884 103.063 175.524C103.519 175.152 103.747 174.612 103.747 173.904C103.747 173.196 103.525 172.68 103.081 172.356C102.637 172.02 101.971 171.846 101.083 171.834L98.6175 171.798V176.01L101.083 176.046ZM113.993 177V168.324L114.317 168.666H110.411V167.55H118.853V168.666H114.947L115.271 168.324V177H113.993ZM124.311 177.09C123.327 177.09 122.463 176.886 121.719 176.478C120.975 176.058 120.393 175.488 119.973 174.768C119.553 174.036 119.343 173.202 119.343 172.266C119.343 171.33 119.541 170.502 119.937 169.782C120.345 169.062 120.897 168.498 121.593 168.09C122.301 167.67 123.093 167.46 123.969 167.46C124.857 167.46 125.643 167.664 126.327 168.072C127.023 168.468 127.569 169.032 127.965 169.764C128.361 170.484 128.559 171.318 128.559 172.266C128.559 172.326 128.553 172.392 128.541 172.464C128.541 172.524 128.541 172.59 128.541 172.662H120.315V171.708H127.857L127.353 172.086C127.353 171.402 127.203 170.796 126.903 170.268C126.615 169.728 126.219 169.308 125.715 169.008C125.211 168.708 124.629 168.558 123.969 168.558C123.321 168.558 122.739 168.708 122.223 169.008C121.707 169.308 121.305 169.728 121.017 170.268C120.729 170.808 120.585 171.426 120.585 172.122V172.32C120.585 173.04 120.741 173.676 121.053 174.228C121.377 174.768 121.821 175.194 122.385 175.506C122.961 175.806 123.615 175.956 124.347 175.956C124.923 175.956 125.457 175.854 125.949 175.65C126.453 175.446 126.885 175.134 127.245 174.714L127.965 175.542C127.545 176.046 127.017 176.43 126.381 176.694C125.757 176.958 125.067 177.09 124.311 177.09ZM138.318 177L134.43 172.32L135.492 171.69L139.83 177H138.318ZM131.388 177V167.55H132.666V177H131.388ZM132.27 172.788V171.69H135.312V172.788H132.27ZM135.6 172.41L134.412 172.23L138.174 167.55H139.56L135.6 172.41ZM145.473 177.09C144.537 177.09 143.697 176.886 142.953 176.478C142.221 176.058 141.645 175.488 141.225 174.768C140.805 174.036 140.595 173.202 140.595 172.266C140.595 171.318 140.805 170.484 141.225 169.764C141.645 169.044 142.221 168.48 142.953 168.072C143.697 167.664 144.537 167.46 145.473 167.46C146.277 167.46 147.003 167.616 147.651 167.928C148.299 168.24 148.809 168.708 149.181 169.332L148.227 169.98C147.903 169.5 147.501 169.146 147.021 168.918C146.541 168.69 146.019 168.576 145.455 168.576C144.783 168.576 144.177 168.732 143.637 169.044C143.097 169.344 142.671 169.77 142.359 170.322C142.047 170.874 141.891 171.522 141.891 172.266C141.891 173.01 142.047 173.658 142.359 174.21C142.671 174.762 143.097 175.194 143.637 175.506C144.177 175.806 144.783 175.956 145.455 175.956C146.019 175.956 146.541 175.842 147.021 175.614C147.501 175.386 147.903 175.038 148.227 174.57L149.181 175.218C148.809 175.83 148.299 176.298 147.651 176.622C147.003 176.934 146.277 177.09 145.473 177.09ZM153.28 177V168.324L153.604 168.666H149.698V167.55H158.14V168.666H154.234L154.558 168.324V177H153.28ZM171.179 176.388V168.666H166.625L166.517 170.772C166.493 171.408 166.451 172.032 166.391 172.644C166.343 173.256 166.253 173.82 166.121 174.336C166.001 174.84 165.827 175.254 165.599 175.578C165.371 175.89 165.077 176.07 164.717 176.118L163.439 175.884C163.811 175.896 164.117 175.764 164.357 175.488C164.597 175.2 164.783 174.81 164.915 174.318C165.047 173.826 165.143 173.268 165.203 172.644C165.263 172.008 165.311 171.36 165.347 170.7L165.473 167.55H172.457V176.388H171.179ZM163.043 179.286V175.884H173.933V179.286H172.727V177H164.249V179.286H163.043ZM174.695 176.982L174.785 175.884C174.869 175.896 174.947 175.914 175.019 175.938C175.103 175.95 175.175 175.956 175.235 175.956C175.619 175.956 175.925 175.812 176.153 175.524C176.393 175.236 176.573 174.852 176.693 174.372C176.813 173.892 176.897 173.352 176.945 172.752C176.993 172.14 177.035 171.528 177.071 170.916L177.233 167.55H184.163V177H182.885V168.288L183.209 168.666H178.061L178.367 168.27L178.223 171.006C178.187 171.822 178.121 172.602 178.025 173.346C177.941 174.09 177.803 174.744 177.611 175.308C177.431 175.872 177.179 176.316 176.855 176.64C176.531 176.952 176.117 177.108 175.613 177.108C175.469 177.108 175.319 177.096 175.163 177.072C175.019 177.048 174.863 177.018 174.695 176.982ZM193.899 177V173.598L194.133 173.868H190.929C189.717 173.868 188.769 173.604 188.085 173.076C187.401 172.548 187.059 171.78 187.059 170.772C187.059 169.692 187.425 168.888 188.157 168.36C188.889 167.82 189.867 167.55 191.091 167.55H195.069V177H193.899ZM186.987 177L189.579 173.364H190.911L188.373 177H186.987ZM193.899 173.22V168.288L194.133 168.666H191.127C190.251 168.666 189.567 168.834 189.075 169.17C188.595 169.506 188.355 170.052 188.355 170.808C188.355 172.212 189.249 172.914 191.037 172.914H194.133L193.899 173.22ZM203.423 177V167.55H211.919V177H210.641V168.324L210.965 168.666H204.377L204.701 168.324V177H203.423ZM219.44 177.09C218.528 177.09 217.706 176.886 216.974 176.478C216.254 176.058 215.684 175.488 215.264 174.768C214.844 174.036 214.634 173.202 214.634 172.266C214.634 171.318 214.844 170.484 215.264 169.764C215.684 169.044 216.254 168.48 216.974 168.072C217.694 167.664 218.516 167.46 219.44 167.46C220.376 167.46 221.204 167.664 221.924 168.072C222.656 168.48 223.226 169.044 223.634 169.764C224.054 170.484 224.264 171.318 224.264 172.266C224.264 173.202 224.054 174.036 223.634 174.768C223.226 175.488 222.656 176.058 221.924 176.478C221.192 176.886 220.364 177.09 219.44 177.09ZM219.44 175.956C220.124 175.956 220.73 175.806 221.258 175.506C221.786 175.194 222.2 174.762 222.5 174.21C222.812 173.646 222.968 172.998 222.968 172.266C222.968 171.522 222.812 170.874 222.5 170.322C222.2 169.77 221.786 169.344 221.258 169.044C220.73 168.732 220.13 168.576 219.458 168.576C218.786 168.576 218.186 168.732 217.658 169.044C217.13 169.344 216.71 169.77 216.398 170.322C216.086 170.874 215.93 171.522 215.93 172.266C215.93 172.998 216.086 173.646 216.398 174.21C216.71 174.762 217.13 175.194 217.658 175.506C218.186 175.806 218.78 175.956 219.44 175.956ZM233.206 175.884L232.918 176.226V167.55H234.196V176.226L233.854 175.884H239.128L238.786 176.226V167.55H240.064V177H226.996V167.55H228.274V176.226L227.95 175.884H233.206ZM243.857 180.582C243.413 180.582 242.987 180.51 242.579 180.366C242.183 180.222 241.841 180.006 241.553 179.718L242.147 178.764C242.387 178.992 242.645 179.166 242.921 179.286C243.209 179.418 243.527 179.484 243.875 179.484C244.295 179.484 244.655 179.364 244.955 179.124C245.267 178.896 245.561 178.488 245.837 177.9L246.449 176.514L246.593 176.316L250.481 167.55H251.741L247.007 178.134C246.743 178.746 246.449 179.232 246.125 179.592C245.813 179.952 245.471 180.204 245.099 180.348C244.727 180.504 244.313 180.582 243.857 180.582ZM246.377 177.27L242.021 167.55H243.353L247.205 176.226L246.377 177.27ZM260.662 177L256.774 172.32L257.836 171.69L262.174 177H260.662ZM253.732 177V167.55H255.01V177H253.732ZM254.614 172.788V171.69H257.656V172.788H254.614ZM257.944 172.41L256.756 172.23L260.518 167.55H261.904L257.944 172.41ZM263.808 180.582C263.364 180.582 262.938 180.51 262.53 180.366C262.134 180.222 261.792 180.006 261.504 179.718L262.098 178.764C262.338 178.992 262.596 179.166 262.872 179.286C263.16 179.418 263.478 179.484 263.826 179.484C264.246 179.484 264.606 179.364 264.906 179.124C265.218 178.896 265.512 178.488 265.788 177.9L266.4 176.514L266.544 176.316L270.432 167.55H271.692L266.958 178.134C266.694 178.746 266.4 179.232 266.076 179.592C265.764 179.952 265.422 180.204 265.05 180.348C264.678 180.504 264.264 180.582 263.808 180.582ZM266.328 177.27L261.972 167.55H263.304L267.156 176.226L266.328 177.27ZM273.158 177.09C272.894 177.09 272.666 176.994 272.474 176.802C272.294 176.61 272.204 176.376 272.204 176.1C272.204 175.812 272.294 175.578 272.474 175.398C272.666 175.218 272.894 175.128 273.158 175.128C273.422 175.128 273.644 175.218 273.824 175.398C274.016 175.578 274.112 175.812 274.112 176.1C274.112 176.376 274.016 176.61 273.824 176.802C273.644 176.994 273.422 177.09 273.158 177.09ZM276.972 177.09C276.708 177.09 276.48 176.994 276.288 176.802C276.108 176.61 276.018 176.376 276.018 176.1C276.018 175.812 276.108 175.578 276.288 175.398C276.48 175.218 276.708 175.128 276.972 175.128C277.236 175.128 277.458 175.218 277.638 175.398C277.83 175.578 277.926 175.812 277.926 176.1C277.926 176.376 277.83 176.61 277.638 176.802C277.458 176.994 277.236 177.09 276.972 177.09ZM280.787 177.09C280.523 177.09 280.295 176.994 280.103 176.802C279.923 176.61 279.833 176.376 279.833 176.1C279.833 175.812 279.923 175.578 280.103 175.398C280.295 175.218 280.523 175.128 280.787 175.128C281.051 175.128 281.273 175.218 281.453 175.398C281.645 175.578 281.741 175.812 281.741 176.1C281.741 176.376 281.645 176.61 281.453 176.802C281.273 176.994 281.051 177.09 280.787 177.09Z" fill="#9B9BB6"/>
<path d="M331.124 86V73.4H336.362C337.694 73.4 338.738 73.676 339.494 74.228C340.262 74.768 340.646 75.566 340.646 76.622C340.646 77.666 340.28 78.458 339.548 78.998C338.816 79.526 337.856 79.79 336.668 79.79L336.974 79.34C338.378 79.34 339.446 79.616 340.178 80.168C340.91 80.72 341.276 81.53 341.276 82.598C341.276 83.678 340.892 84.518 340.124 85.118C339.368 85.706 338.228 86 336.704 86H331.124ZM332.438 84.938H336.704C337.772 84.938 338.582 84.74 339.134 84.344C339.686 83.948 339.962 83.336 339.962 82.508C339.962 81.692 339.686 81.092 339.134 80.708C338.582 80.324 337.772 80.132 336.704 80.132H332.438V84.938ZM332.438 79.106H336.29C337.262 79.106 338.006 78.914 338.522 78.53C339.05 78.134 339.314 77.552 339.314 76.784C339.314 76.016 339.05 75.44 338.522 75.056C338.006 74.66 337.262 74.462 336.29 74.462H332.438V79.106ZM344.3 86V76.55H345.578V84.056L351.896 76.55H353.03V86H351.752V78.476L345.452 86H344.3ZM360.941 86.108C360.173 86.108 359.489 85.982 358.889 85.73C358.301 85.478 357.797 85.094 357.377 84.578C356.957 84.062 356.639 83.426 356.423 82.67C356.207 81.902 356.099 81.014 356.099 80.006C356.099 79.106 356.183 78.32 356.351 77.648C356.519 76.964 356.753 76.376 357.053 75.884C357.353 75.392 357.701 74.978 358.097 74.642C358.505 74.294 358.943 74.018 359.411 73.814C359.891 73.598 360.383 73.436 360.887 73.328L365.135 72.338L365.351 73.526L361.355 74.426C361.103 74.486 360.797 74.57 360.437 74.678C360.089 74.786 359.729 74.948 359.357 75.164C358.997 75.38 358.661 75.68 358.349 76.064C358.037 76.448 357.785 76.946 357.593 77.558C357.413 78.158 357.323 78.908 357.323 79.808C357.323 80 357.329 80.156 357.341 80.276C357.353 80.384 357.365 80.504 357.377 80.636C357.401 80.756 357.419 80.936 357.431 81.176L356.873 80.708C357.005 79.976 357.275 79.34 357.683 78.8C358.091 78.248 358.601 77.822 359.213 77.522C359.837 77.21 360.527 77.054 361.283 77.054C362.159 77.054 362.939 77.246 363.623 77.63C364.307 78.002 364.841 78.524 365.225 79.196C365.621 79.868 365.819 80.648 365.819 81.536C365.819 82.412 365.615 83.198 365.207 83.894C364.811 84.59 364.247 85.136 363.515 85.532C362.783 85.916 361.925 86.108 360.941 86.108ZM361.085 85.046C361.757 85.046 362.351 84.896 362.867 84.596C363.383 84.284 363.785 83.864 364.073 83.336C364.373 82.808 364.523 82.214 364.523 81.554C364.523 80.906 364.373 80.33 364.073 79.826C363.785 79.322 363.383 78.926 362.867 78.638C362.351 78.338 361.751 78.188 361.067 78.188C360.395 78.188 359.801 78.332 359.285 78.62C358.769 78.896 358.361 79.286 358.061 79.79C357.773 80.294 357.629 80.876 357.629 81.536C357.629 82.196 357.773 82.79 358.061 83.318C358.361 83.846 358.769 84.266 359.285 84.578C359.813 84.89 360.413 85.046 361.085 85.046ZM372.608 86.09C371.624 86.09 370.76 85.886 370.016 85.478C369.272 85.058 368.69 84.488 368.27 83.768C367.85 83.036 367.64 82.202 367.64 81.266C367.64 80.33 367.838 79.502 368.234 78.782C368.642 78.062 369.194 77.498 369.89 77.09C370.598 76.67 371.39 76.46 372.266 76.46C373.154 76.46 373.94 76.664 374.624 77.072C375.32 77.468 375.866 78.032 376.262 78.764C376.658 79.484 376.856 80.318 376.856 81.266C376.856 81.326 376.85 81.392 376.838 81.464C376.838 81.524 376.838 81.59 376.838 81.662H368.612V80.708H376.154L375.65 81.086C375.65 80.402 375.5 79.796 375.2 79.268C374.912 78.728 374.516 78.308 374.012 78.008C373.508 77.708 372.926 77.558 372.266 77.558C371.618 77.558 371.036 77.708 370.52 78.008C370.004 78.308 369.602 78.728 369.314 79.268C369.026 79.808 368.882 80.426 368.882 81.122V81.32C368.882 82.04 369.038 82.676 369.35 83.228C369.674 83.768 370.118 84.194 370.682 84.506C371.258 84.806 371.912 84.956 372.644 84.956C373.22 84.956 373.754 84.854 374.246 84.65C374.75 84.446 375.182 84.134 375.542 83.714L376.262 84.542C375.842 85.046 375.314 85.43 374.678 85.694C374.054 85.958 373.364 86.09 372.608 86.09ZM384.563 86.09C383.747 86.09 383.009 85.904 382.349 85.532C381.689 85.148 381.161 84.602 380.765 83.894C380.381 83.174 380.189 82.298 380.189 81.266C380.189 80.234 380.381 79.364 380.765 78.656C381.149 77.936 381.671 77.39 382.331 77.018C382.991 76.646 383.735 76.46 384.563 76.46C385.463 76.46 386.267 76.664 386.975 77.072C387.695 77.468 388.259 78.032 388.667 78.764C389.075 79.484 389.279 80.318 389.279 81.266C389.279 82.226 389.075 83.066 388.667 83.786C388.259 84.506 387.695 85.07 386.975 85.478C386.267 85.886 385.463 86.09 384.563 86.09ZM379.685 89.492V76.55H380.909V79.394L380.783 81.284L380.963 83.192V89.492H379.685ZM384.473 84.956C385.145 84.956 385.745 84.806 386.273 84.506C386.801 84.194 387.221 83.762 387.533 83.21C387.845 82.646 388.001 81.998 388.001 81.266C388.001 80.534 387.845 79.892 387.533 79.34C387.221 78.788 386.801 78.356 386.273 78.044C385.745 77.732 385.145 77.576 384.473 77.576C383.801 77.576 383.195 77.732 382.655 78.044C382.127 78.356 381.707 78.788 381.395 79.34C381.095 79.892 380.945 80.534 380.945 81.266C380.945 81.998 381.095 82.646 381.395 83.21C381.707 83.762 382.127 84.194 382.655 84.506C383.195 84.806 383.801 84.956 384.473 84.956ZM392.025 86V76.55H393.303V86H392.025ZM392.673 74.462C392.409 74.462 392.187 74.372 392.007 74.192C391.827 74.012 391.737 73.796 391.737 73.544C391.737 73.292 391.827 73.082 392.007 72.914C392.187 72.734 392.409 72.644 392.673 72.644C392.937 72.644 393.159 72.728 393.339 72.896C393.519 73.064 393.609 73.274 393.609 73.526C393.609 73.79 393.519 74.012 393.339 74.192C393.171 74.372 392.949 74.462 392.673 74.462ZM398.747 86V77.324L399.071 77.666H395.165V76.55H403.607V77.666H399.701L400.025 77.324V86H398.747ZM409.523 79.88C410.711 79.892 411.611 80.156 412.223 80.672C412.847 81.188 413.159 81.932 413.159 82.904C413.159 83.912 412.823 84.686 412.151 85.226C411.491 85.766 410.531 86.03 409.271 86.018L405.455 86V76.55H406.733V79.844L409.523 79.88ZM409.199 85.046C410.075 85.058 410.735 84.884 411.179 84.524C411.635 84.152 411.863 83.612 411.863 82.904C411.863 82.196 411.641 81.68 411.197 81.356C410.753 81.02 410.087 80.846 409.199 80.834L406.733 80.798V85.01L409.199 85.046Z" fill="#9B9BB6"/>
<path d="M331.124 177V164.4H336.362C337.694 164.4 338.738 164.676 339.494 165.228C340.262 165.768 340.646 166.566 340.646 167.622C340.646 168.666 340.28 169.458 339.548 169.998C338.816 170.526 337.856 170.79 336.668 170.79L336.974 170.34C338.378 170.34 339.446 170.616 340.178 171.168C340.91 171.72 341.276 172.53 341.276 173.598C341.276 174.678 340.892 175.518 340.124 176.118C339.368 176.706 338.228 177 336.704 177H331.124ZM332.438 175.938H336.704C337.772 175.938 338.582 175.74 339.134 175.344C339.686 174.948 339.962 174.336 339.962 173.508C339.962 172.692 339.686 172.092 339.134 171.708C338.582 171.324 337.772 171.132 336.704 171.132H332.438V175.938ZM332.438 170.106H336.29C337.262 170.106 338.006 169.914 338.522 169.53C339.05 169.134 339.314 168.552 339.314 167.784C339.314 167.016 339.05 166.44 338.522 166.056C338.006 165.66 337.262 165.462 336.29 165.462H332.438V170.106ZM344.3 177V167.55H345.578V175.056L351.896 167.55H353.03V177H351.752V169.476L345.452 177H344.3ZM360.941 177.108C360.173 177.108 359.489 176.982 358.889 176.73C358.301 176.478 357.797 176.094 357.377 175.578C356.957 175.062 356.639 174.426 356.423 173.67C356.207 172.902 356.099 172.014 356.099 171.006C356.099 170.106 356.183 169.32 356.351 168.648C356.519 167.964 356.753 167.376 357.053 166.884C357.353 166.392 357.701 165.978 358.097 165.642C358.505 165.294 358.943 165.018 359.411 164.814C359.891 164.598 360.383 164.436 360.887 164.328L365.135 163.338L365.351 164.526L361.355 165.426C361.103 165.486 360.797 165.57 360.437 165.678C360.089 165.786 359.729 165.948 359.357 166.164C358.997 166.38 358.661 166.68 358.349 167.064C358.037 167.448 357.785 167.946 357.593 168.558C357.413 169.158 357.323 169.908 357.323 170.808C357.323 171 357.329 171.156 357.341 171.276C357.353 171.384 357.365 171.504 357.377 171.636C357.401 171.756 357.419 171.936 357.431 172.176L356.873 171.708C357.005 170.976 357.275 170.34 357.683 169.8C358.091 169.248 358.601 168.822 359.213 168.522C359.837 168.21 360.527 168.054 361.283 168.054C362.159 168.054 362.939 168.246 363.623 168.63C364.307 169.002 364.841 169.524 365.225 170.196C365.621 170.868 365.819 171.648 365.819 172.536C365.819 173.412 365.615 174.198 365.207 174.894C364.811 175.59 364.247 176.136 363.515 176.532C362.783 176.916 361.925 177.108 360.941 177.108ZM361.085 176.046C361.757 176.046 362.351 175.896 362.867 175.596C363.383 175.284 363.785 174.864 364.073 174.336C364.373 173.808 364.523 173.214 364.523 172.554C364.523 171.906 364.373 171.33 364.073 170.826C363.785 170.322 363.383 169.926 362.867 169.638C362.351 169.338 361.751 169.188 361.067 169.188C360.395 169.188 359.801 169.332 359.285 169.62C358.769 169.896 358.361 170.286 358.061 170.79C357.773 171.294 357.629 171.876 357.629 172.536C357.629 173.196 357.773 173.79 358.061 174.318C358.361 174.846 358.769 175.266 359.285 175.578C359.813 175.89 360.413 176.046 361.085 176.046ZM372.608 177.09C371.624 177.09 370.76 176.886 370.016 176.478C369.272 176.058 368.69 175.488 368.27 174.768C367.85 174.036 367.64 173.202 367.64 172.266C367.64 171.33 367.838 170.502 368.234 169.782C368.642 169.062 369.194 168.498 369.89 168.09C370.598 167.67 371.39 167.46 372.266 167.46C373.154 167.46 373.94 167.664 374.624 168.072C375.32 168.468 375.866 169.032 376.262 169.764C376.658 170.484 376.856 171.318 376.856 172.266C376.856 172.326 376.85 172.392 376.838 172.464C376.838 172.524 376.838 172.59 376.838 172.662H368.612V171.708H376.154L375.65 172.086C375.65 171.402 375.5 170.796 375.2 170.268C374.912 169.728 374.516 169.308 374.012 169.008C373.508 168.708 372.926 168.558 372.266 168.558C371.618 168.558 371.036 168.708 370.52 169.008C370.004 169.308 369.602 169.728 369.314 170.268C369.026 170.808 368.882 171.426 368.882 172.122V172.32C368.882 173.04 369.038 173.676 369.35 174.228C369.674 174.768 370.118 175.194 370.682 175.506C371.258 175.806 371.912 175.956 372.644 175.956C373.22 175.956 373.754 175.854 374.246 175.65C374.75 175.446 375.182 175.134 375.542 174.714L376.262 175.542C375.842 176.046 375.314 176.43 374.678 176.694C374.054 176.958 373.364 177.09 372.608 177.09ZM384.563 177.09C383.747 177.09 383.009 176.904 382.349 176.532C381.689 176.148 381.161 175.602 380.765 174.894C380.381 174.174 380.189 173.298 380.189 172.266C380.189 171.234 380.381 170.364 380.765 169.656C381.149 168.936 381.671 168.39 382.331 168.018C382.991 167.646 383.735 167.46 384.563 167.46C385.463 167.46 386.267 167.664 386.975 168.072C387.695 168.468 388.259 169.032 388.667 169.764C389.075 170.484 389.279 171.318 389.279 172.266C389.279 173.226 389.075 174.066 388.667 174.786C388.259 175.506 387.695 176.07 386.975 176.478C386.267 176.886 385.463 177.09 384.563 177.09ZM379.685 180.492V167.55H380.909V170.394L380.783 172.284L380.963 174.192V180.492H379.685ZM384.473 175.956C385.145 175.956 385.745 175.806 386.273 175.506C386.801 175.194 387.221 174.762 387.533 174.21C387.845 173.646 388.001 172.998 388.001 172.266C388.001 171.534 387.845 170.892 387.533 170.34C387.221 169.788 386.801 169.356 386.273 169.044C385.745 168.732 385.145 168.576 384.473 168.576C383.801 168.576 383.195 168.732 382.655 169.044C382.127 169.356 381.707 169.788 381.395 170.34C381.095 170.892 380.945 171.534 380.945 172.266C380.945 172.998 381.095 173.646 381.395 174.21C381.707 174.762 382.127 175.194 382.655 175.506C383.195 175.806 383.801 175.956 384.473 175.956ZM392.025 177V167.55H393.303V177H392.025ZM392.673 165.462C392.409 165.462 392.187 165.372 392.007 165.192C391.827 165.012 391.737 164.796 391.737 164.544C391.737 164.292 391.827 164.082 392.007 163.914C392.187 163.734 392.409 163.644 392.673 163.644C392.937 163.644 393.159 163.728 393.339 163.896C393.519 164.064 393.609 164.274 393.609 164.526C393.609 164.79 393.519 165.012 393.339 165.192C393.171 165.372 392.949 165.462 392.673 165.462ZM398.747 177V168.324L399.071 168.666H395.165V167.55H403.607V168.666H399.701L400.025 168.324V177H398.747ZM409.523 170.88C410.711 170.892 411.611 171.156 412.223 171.672C412.847 172.188 413.159 172.932 413.159 173.904C413.159 174.912 412.823 175.686 412.151 176.226C411.491 176.766 410.531 177.03 409.271 177.018L405.455 177V167.55H406.733V170.844L409.523 170.88ZM409.199 176.046C410.075 176.058 410.735 175.884 411.179 175.524C411.635 175.152 411.863 174.612 411.863 173.904C411.863 173.196 411.641 172.68 411.197 172.356C410.753 172.02 410.087 171.846 409.199 171.834L406.733 171.798V176.01L409.199 176.046Z" fill="#9B9BB6"/>
<path d="M37.124 269V256.4H42.362C43.694 256.4 44.738 256.676 45.494 257.228C46.262 257.768 46.646 258.566 46.646 259.622C46.646 260.666 46.28 261.458 45.548 261.998C44.816 262.526 43.856 262.79 42.668 262.79L42.974 262.34C44.378 262.34 45.446 262.616 46.178 263.168C46.91 263.72 47.276 264.53 47.276 265.598C47.276 266.678 46.892 267.518 46.124 268.118C45.368 268.706 44.228 269 42.704 269H37.124ZM38.438 267.938H42.704C43.772 267.938 44.582 267.74 45.134 267.344C45.686 266.948 45.962 266.336 45.962 265.508C45.962 264.692 45.686 264.092 45.134 263.708C44.582 263.324 43.772 263.132 42.704 263.132H38.438V267.938ZM38.438 262.106H42.29C43.262 262.106 44.006 261.914 44.522 261.53C45.05 261.134 45.314 260.552 45.314 259.784C45.314 259.016 45.05 258.44 44.522 258.056C44.006 257.66 43.262 257.462 42.29 257.462H38.438V262.106ZM50.3004 269V259.55H51.5784V267.056L57.8964 259.55H59.0304V269H57.7524V261.476L51.4524 269H50.3004ZM66.941 269.108C66.173 269.108 65.489 268.982 64.889 268.73C64.301 268.478 63.797 268.094 63.377 267.578C62.957 267.062 62.639 266.426 62.423 265.67C62.207 264.902 62.099 264.014 62.099 263.006C62.099 262.106 62.183 261.32 62.351 260.648C62.519 259.964 62.753 259.376 63.053 258.884C63.353 258.392 63.701 257.978 64.097 257.642C64.505 257.294 64.943 257.018 65.411 256.814C65.891 256.598 66.383 256.436 66.887 256.328L71.135 255.338L71.351 256.526L67.355 257.426C67.103 257.486 66.797 257.57 66.437 257.678C66.089 257.786 65.729 257.948 65.357 258.164C64.997 258.38 64.661 258.68 64.349 259.064C64.037 259.448 63.785 259.946 63.593 260.558C63.413 261.158 63.323 261.908 63.323 262.808C63.323 263 63.329 263.156 63.341 263.276C63.353 263.384 63.365 263.504 63.377 263.636C63.401 263.756 63.419 263.936 63.431 264.176L62.873 263.708C63.005 262.976 63.275 262.34 63.683 261.8C64.091 261.248 64.601 260.822 65.213 260.522C65.837 260.21 66.527 260.054 67.283 260.054C68.159 260.054 68.939 260.246 69.623 260.63C70.307 261.002 70.841 261.524 71.225 262.196C71.621 262.868 71.819 263.648 71.819 264.536C71.819 265.412 71.615 266.198 71.207 266.894C70.811 267.59 70.247 268.136 69.515 268.532C68.783 268.916 67.925 269.108 66.941 269.108ZM67.085 268.046C67.757 268.046 68.351 267.896 68.867 267.596C69.383 267.284 69.785 266.864 70.073 266.336C70.373 265.808 70.523 265.214 70.523 264.554C70.523 263.906 70.373 263.33 70.073 262.826C69.785 262.322 69.383 261.926 68.867 261.638C68.351 261.338 67.751 261.188 67.067 261.188C66.395 261.188 65.801 261.332 65.285 261.62C64.769 261.896 64.361 262.286 64.061 262.79C63.773 263.294 63.629 263.876 63.629 264.536C63.629 265.196 63.773 265.79 64.061 266.318C64.361 266.846 64.769 267.266 65.285 267.578C65.813 267.89 66.413 268.046 67.085 268.046ZM78.6082 269.09C77.6242 269.09 76.7602 268.886 76.0162 268.478C75.2722 268.058 74.6902 267.488 74.2702 266.768C73.8502 266.036 73.6402 265.202 73.6402 264.266C73.6402 263.33 73.8382 262.502 74.2342 261.782C74.6422 261.062 75.1942 260.498 75.8902 260.09C76.5982 259.67 77.3902 259.46 78.2662 259.46C79.1542 259.46 79.9402 259.664 80.6242 260.072C81.3202 260.468 81.8662 261.032 82.2622 261.764C82.6582 262.484 82.8562 263.318 82.8562 264.266C82.8562 264.326 82.8502 264.392 82.8382 264.464C82.8382 264.524 82.8382 264.59 82.8382 264.662H74.6122V263.708H82.1542L81.6502 264.086C81.6502 263.402 81.5002 262.796 81.2002 262.268C80.9122 261.728 80.5162 261.308 80.0122 261.008C79.5082 260.708 78.9262 260.558 78.2662 260.558C77.6182 260.558 77.0362 260.708 76.5202 261.008C76.0042 261.308 75.6022 261.728 75.3142 262.268C75.0262 262.808 74.8822 263.426 74.8822 264.122V264.32C74.8822 265.04 75.0382 265.676 75.3502 266.228C75.6742 266.768 76.1182 267.194 76.6822 267.506C77.2582 267.806 77.9122 267.956 78.6442 267.956C79.2202 267.956 79.7542 267.854 80.2462 267.65C80.7502 267.446 81.1822 267.134 81.5422 266.714L82.2622 267.542C81.8422 268.046 81.3142 268.43 80.6782 268.694C80.0542 268.958 79.3642 269.09 78.6082 269.09ZM90.5632 269.09C89.7472 269.09 89.0092 268.904 88.3492 268.532C87.6892 268.148 87.1612 267.602 86.7652 266.894C86.3812 266.174 86.1892 265.298 86.1892 264.266C86.1892 263.234 86.3812 262.364 86.7652 261.656C87.1492 260.936 87.6712 260.39 88.3312 260.018C88.9912 259.646 89.7352 259.46 90.5632 259.46C91.4632 259.46 92.2672 259.664 92.9752 260.072C93.6952 260.468 94.2592 261.032 94.6672 261.764C95.0752 262.484 95.2792 263.318 95.2792 264.266C95.2792 265.226 95.0752 266.066 94.6672 266.786C94.2592 267.506 93.6952 268.07 92.9752 268.478C92.2672 268.886 91.4632 269.09 90.5632 269.09ZM85.6852 272.492V259.55H86.9092V262.394L86.7832 264.284L86.9632 266.192V272.492H85.6852ZM90.4732 267.956C91.1452 267.956 91.7452 267.806 92.2732 267.506C92.8012 267.194 93.2212 266.762 93.5332 266.21C93.8452 265.646 94.0012 264.998 94.0012 264.266C94.0012 263.534 93.8452 262.892 93.5332 262.34C93.2212 261.788 92.8012 261.356 92.2732 261.044C91.7452 260.732 91.1452 260.576 90.4732 260.576C89.8012 260.576 89.1952 260.732 88.6552 261.044C88.1272 261.356 87.7072 261.788 87.3952 262.34C87.0952 262.892 86.9452 263.534 86.9452 264.266C86.9452 264.998 87.0952 265.646 87.3952 266.21C87.7072 266.762 88.1272 267.194 88.6552 267.506C89.1952 267.806 89.8012 267.956 90.4732 267.956ZM98.025 269V259.55H99.303V269H98.025ZM98.673 257.462C98.409 257.462 98.187 257.372 98.007 257.192C97.827 257.012 97.737 256.796 97.737 256.544C97.737 256.292 97.827 256.082 98.007 255.914C98.187 255.734 98.409 255.644 98.673 255.644C98.937 255.644 99.159 255.728 99.339 255.896C99.519 256.064 99.609 256.274 99.609 256.526C99.609 256.79 99.519 257.012 99.339 257.192C99.171 257.372 98.949 257.462 98.673 257.462ZM104.747 269V260.324L105.071 260.666H101.165V259.55H109.607V260.666H105.701L106.025 260.324V269H104.747ZM115.523 262.88C116.711 262.892 117.611 263.156 118.223 263.672C118.847 264.188 119.159 264.932 119.159 265.904C119.159 266.912 118.823 267.686 118.151 268.226C117.491 268.766 116.531 269.03 115.271 269.018L111.455 269V259.55H112.733V262.844L115.523 262.88ZM115.199 268.046C116.075 268.058 116.735 267.884 117.179 267.524C117.635 267.152 117.863 266.612 117.863 265.904C117.863 265.196 117.641 264.68 117.197 264.356C116.753 264.02 116.087 263.846 115.199 263.834L112.733 263.798V268.01L115.199 268.046Z" fill="#9B9BB6"/>
<path d="M331.124 269V256.4H336.362C337.694 256.4 338.738 256.676 339.494 257.228C340.262 257.768 340.646 258.566 340.646 259.622C340.646 260.666 340.28 261.458 339.548 261.998C338.816 262.526 337.856 262.79 336.668 262.79L336.974 262.34C338.378 262.34 339.446 262.616 340.178 263.168C340.91 263.72 341.276 264.53 341.276 265.598C341.276 266.678 340.892 267.518 340.124 268.118C339.368 268.706 338.228 269 336.704 269H331.124ZM332.438 267.938H336.704C337.772 267.938 338.582 267.74 339.134 267.344C339.686 266.948 339.962 266.336 339.962 265.508C339.962 264.692 339.686 264.092 339.134 263.708C338.582 263.324 337.772 263.132 336.704 263.132H332.438V267.938ZM332.438 262.106H336.29C337.262 262.106 338.006 261.914 338.522 261.53C339.05 261.134 339.314 260.552 339.314 259.784C339.314 259.016 339.05 258.44 338.522 258.056C338.006 257.66 337.262 257.462 336.29 257.462H332.438V262.106ZM344.3 269V259.55H345.578V269H344.3ZM344.948 257.462C344.684 257.462 344.462 257.372 344.282 257.192C344.102 257.012 344.012 256.796 344.012 256.544C344.012 256.292 344.102 256.082 344.282 255.914C344.462 255.734 344.684 255.644 344.948 255.644C345.212 255.644 345.434 255.728 345.614 255.896C345.794 256.064 345.884 256.274 345.884 256.526C345.884 256.79 345.794 257.012 345.614 257.192C345.446 257.372 345.224 257.462 344.948 257.462ZM355.702 268.388V260.666H351.148L351.04 262.772C351.016 263.408 350.974 264.032 350.914 264.644C350.866 265.256 350.776 265.82 350.644 266.336C350.524 266.84 350.35 267.254 350.122 267.578C349.894 267.89 349.6 268.07 349.24 268.118L347.962 267.884C348.334 267.896 348.64 267.764 348.88 267.488C349.12 267.2 349.306 266.81 349.438 266.318C349.57 265.826 349.666 265.268 349.726 264.644C349.786 264.008 349.834 263.36 349.87 262.7L349.996 259.55H356.98V268.388H355.702ZM347.566 271.286V267.884H358.456V271.286H357.25V269H348.772V271.286H347.566Z" fill="#9B9BB6"/>
<path d="M479.494 268.37V257.552H473.464L473.356 260.612C473.32 261.56 473.26 262.472 473.176 263.348C473.104 264.212 472.984 264.992 472.816 265.688C472.66 266.372 472.444 266.93 472.168 267.362C471.904 267.794 471.556 268.046 471.124 268.118L469.666 267.848C470.146 267.872 470.542 267.698 470.854 267.326C471.178 266.954 471.424 266.432 471.592 265.76C471.772 265.088 471.904 264.302 471.988 263.402C472.072 262.502 472.132 261.53 472.168 260.486L472.312 256.4H480.808V268.37H479.494ZM469.198 271.826L469.216 267.848H482.698V271.826H481.456V269H470.458L470.44 271.826H469.198ZM488.733 269.09C487.821 269.09 486.999 268.886 486.267 268.478C485.547 268.058 484.977 267.488 484.557 266.768C484.137 266.036 483.927 265.202 483.927 264.266C483.927 263.318 484.137 262.484 484.557 261.764C484.977 261.044 485.547 260.48 486.267 260.072C486.987 259.664 487.809 259.46 488.733 259.46C489.669 259.46 490.497 259.664 491.217 260.072C491.949 260.48 492.519 261.044 492.927 261.764C493.347 262.484 493.557 263.318 493.557 264.266C493.557 265.202 493.347 266.036 492.927 266.768C492.519 267.488 491.949 268.058 491.217 268.478C490.485 268.886 489.657 269.09 488.733 269.09ZM488.733 267.956C489.417 267.956 490.023 267.806 490.551 267.506C491.079 267.194 491.493 266.762 491.793 266.21C492.105 265.646 492.261 264.998 492.261 264.266C492.261 263.522 492.105 262.874 491.793 262.322C491.493 261.77 491.079 261.344 490.551 261.044C490.023 260.732 489.423 260.576 488.751 260.576C488.079 260.576 487.479 260.732 486.951 261.044C486.423 261.344 486.003 261.77 485.691 262.322C485.379 262.874 485.223 263.522 485.223 264.266C485.223 264.998 485.379 265.646 485.691 266.21C486.003 266.762 486.423 267.194 486.951 267.506C487.479 267.806 488.073 267.956 488.733 267.956Z" fill="#9B9BB6"/>
<path d="M45.44 146L40.868 139.79L42.326 138.89L47.492 146H45.44ZM36.962 146V133.4H38.726V146H36.962ZM38.186 140.456V138.872H42.272V140.456H38.186ZM42.488 139.898L40.832 139.646L45.35 133.4H47.276L42.488 139.898ZM55.022 146V143.984L54.932 143.606V140.168C54.932 139.436 54.716 138.872 54.284 138.476C53.864 138.068 53.228 137.864 52.376 137.864C51.812 137.864 51.26 137.96 50.72 138.152C50.18 138.332 49.724 138.578 49.352 138.89L48.632 137.594C49.124 137.198 49.712 136.898 50.396 136.694C51.092 136.478 51.818 136.37 52.574 136.37C53.882 136.37 54.89 136.688 55.598 137.324C56.306 137.96 56.66 138.932 56.66 140.24V146H55.022ZM51.89 146.108C51.182 146.108 50.558 145.988 50.018 145.748C49.49 145.508 49.082 145.178 48.794 144.758C48.506 144.326 48.362 143.84 48.362 143.3C48.362 142.784 48.482 142.316 48.722 141.896C48.974 141.476 49.376 141.14 49.928 140.888C50.492 140.636 51.248 140.51 52.196 140.51H55.22V141.752H52.268C51.404 141.752 50.822 141.896 50.522 142.184C50.222 142.472 50.072 142.82 50.072 143.228C50.072 143.696 50.258 144.074 50.63 144.362C51.002 144.638 51.518 144.776 52.178 144.776C52.826 144.776 53.39 144.632 53.87 144.344C54.362 144.056 54.716 143.636 54.932 143.084L55.274 144.272C55.046 144.836 54.644 145.286 54.068 145.622C53.492 145.946 52.766 146.108 51.89 146.108ZM61.6617 146V137.522L62.0937 137.972H58.1697V136.46H66.8817V137.972H62.9757L63.3897 137.522V146H61.6617ZM72.4747 146.108C71.4547 146.108 70.5547 145.898 69.7747 145.478C69.0067 145.058 68.4067 144.482 67.9747 143.75C67.5547 143.018 67.3447 142.178 67.3447 141.23C67.3447 140.282 67.5487 139.442 67.9567 138.71C68.3767 137.978 68.9467 137.408 69.6667 137C70.3987 136.58 71.2207 136.37 72.1327 136.37C73.0567 136.37 73.8727 136.574 74.5807 136.982C75.2887 137.39 75.8407 137.966 76.2367 138.71C76.6447 139.442 76.8487 140.3 76.8487 141.284C76.8487 141.356 76.8427 141.44 76.8307 141.536C76.8307 141.632 76.8247 141.722 76.8127 141.806H68.6947V140.564H75.9127L75.2107 140.996C75.2227 140.384 75.0967 139.838 74.8327 139.358C74.5687 138.878 74.2027 138.506 73.7347 138.242C73.2787 137.966 72.7447 137.828 72.1327 137.828C71.5327 137.828 70.9987 137.966 70.5307 138.242C70.0627 138.506 69.6967 138.884 69.4327 139.376C69.1687 139.856 69.0367 140.408 69.0367 141.032V141.32C69.0367 141.956 69.1807 142.526 69.4687 143.03C69.7687 143.522 70.1827 143.906 70.7107 144.182C71.2387 144.458 71.8447 144.596 72.5287 144.596C73.0927 144.596 73.6027 144.5 74.0587 144.308C74.5267 144.116 74.9347 143.828 75.2827 143.444L76.2367 144.56C75.8047 145.064 75.2647 145.448 74.6167 145.712C73.9807 145.976 73.2667 146.108 72.4747 146.108ZM79.5295 146V136.46H86.5495V137.972H80.8435L81.2575 137.576V146H79.5295ZM91.9827 146.108C91.0227 146.108 90.1707 145.898 89.4267 145.478C88.6827 145.058 88.0947 144.482 87.6627 143.75C87.2307 143.006 87.0147 142.166 87.0147 141.23C87.0147 140.282 87.2307 139.442 87.6627 138.71C88.0947 137.978 88.6827 137.408 89.4267 137C90.1707 136.58 91.0227 136.37 91.9827 136.37C92.9307 136.37 93.7767 136.58 94.5207 137C95.2767 137.408 95.8647 137.978 96.2847 138.71C96.7167 139.43 96.9327 140.27 96.9327 141.23C96.9327 142.178 96.7167 143.018 96.2847 143.75C95.8647 144.482 95.2767 145.058 94.5207 145.478C93.7767 145.898 92.9307 146.108 91.9827 146.108ZM91.9827 144.596C92.5947 144.596 93.1407 144.458 93.6207 144.182C94.1127 143.906 94.4967 143.516 94.7727 143.012C95.0487 142.496 95.1867 141.902 95.1867 141.23C95.1867 140.546 95.0487 139.958 94.7727 139.466C94.4967 138.962 94.1127 138.572 93.6207 138.296C93.1407 138.02 92.5947 137.882 91.9827 137.882C91.3707 137.882 90.8247 138.02 90.3447 138.296C89.8647 138.572 89.4807 138.962 89.1927 139.466C88.9047 139.958 88.7607 140.546 88.7607 141.23C88.7607 141.902 88.9047 142.496 89.1927 143.012C89.4807 143.516 89.8647 143.906 90.3447 144.182C90.8247 144.458 91.3707 144.596 91.9827 144.596ZM104.486 146.108C103.694 146.108 102.968 145.928 102.308 145.568C101.66 145.196 101.138 144.65 100.742 143.93C100.358 143.21 100.166 142.31 100.166 141.23C100.166 140.15 100.352 139.25 100.724 138.53C101.108 137.81 101.624 137.27 102.272 136.91C102.932 136.55 103.67 136.37 104.486 136.37C105.422 136.37 106.25 136.574 106.97 136.982C107.69 137.39 108.26 137.96 108.68 138.692C109.1 139.412 109.31 140.258 109.31 141.23C109.31 142.202 109.1 143.054 108.68 143.786C108.26 144.518 107.69 145.088 106.97 145.496C106.25 145.904 105.422 146.108 104.486 146.108ZM99.4279 149.492V136.46H101.084V139.034L100.976 141.248L101.156 143.462V149.492H99.4279ZM104.342 144.596C104.954 144.596 105.5 144.458 105.98 144.182C106.472 143.906 106.856 143.516 107.132 143.012C107.42 142.496 107.564 141.902 107.564 141.23C107.564 140.546 107.42 139.958 107.132 139.466C106.856 138.962 106.472 138.572 105.98 138.296C105.5 138.02 104.954 137.882 104.342 137.882C103.742 137.882 103.196 138.02 102.704 138.296C102.224 138.572 101.84 138.962 101.552 139.466C101.276 139.958 101.138 140.546 101.138 141.23C101.138 141.902 101.276 142.496 101.552 143.012C101.84 143.516 102.224 143.906 102.704 144.182C103.196 144.458 103.742 144.596 104.342 144.596ZM111.82 146V136.46H113.548V146H111.82ZM112.684 134.624C112.348 134.624 112.066 134.516 111.838 134.3C111.622 134.084 111.514 133.82 111.514 133.508C111.514 133.184 111.622 132.914 111.838 132.698C112.066 132.482 112.348 132.374 112.684 132.374C113.02 132.374 113.296 132.482 113.512 132.698C113.74 132.902 113.854 133.16 113.854 133.472C113.854 133.796 113.746 134.072 113.53 134.3C113.314 134.516 113.032 134.624 112.684 134.624ZM123.02 146V142.652L123.29 142.976H120.248C118.976 142.976 117.98 142.706 117.26 142.166C116.552 141.626 116.198 140.84 116.198 139.808C116.198 138.704 116.576 137.87 117.332 137.306C118.1 136.742 119.12 136.46 120.392 136.46H124.568V146H123.02ZM116.108 146L118.7 142.346H120.482L117.962 146H116.108ZM123.02 142.112V137.486L123.29 137.972H120.446C119.654 137.972 119.042 138.122 118.61 138.422C118.178 138.71 117.962 139.19 117.962 139.862C117.962 141.11 118.766 141.734 120.374 141.734H123.29L123.02 142.112Z" fill="#37376D"/>
<path d="M36.962 238V225.4H42.38C43.748 225.4 44.822 225.676 45.602 226.228C46.382 226.78 46.772 227.584 46.772 228.64C46.772 229.672 46.4 230.464 45.656 231.016C44.912 231.556 43.934 231.826 42.722 231.826L43.046 231.286C44.45 231.286 45.524 231.568 46.268 232.132C47.024 232.684 47.402 233.494 47.402 234.562C47.402 235.642 47.006 236.488 46.214 237.1C45.434 237.7 44.27 238 42.722 238H36.962ZM38.744 236.578H42.686C43.646 236.578 44.366 236.404 44.846 236.056C45.338 235.696 45.584 235.15 45.584 234.418C45.584 233.686 45.338 233.152 44.846 232.816C44.366 232.48 43.646 232.312 42.686 232.312H38.744V236.578ZM38.744 230.944H42.254C43.13 230.944 43.796 230.77 44.252 230.422C44.72 230.074 44.954 229.564 44.954 228.892C44.954 228.208 44.72 227.692 44.252 227.344C43.796 226.996 43.13 226.822 42.254 226.822H38.744V230.944ZM50.1213 238V228.46H51.8493V235.408L57.6993 228.46H59.2653V238H57.5373V231.052L51.7053 238H50.1213ZM67.6773 238.108C66.8853 238.108 66.1593 237.928 65.4993 237.568C64.8513 237.196 64.3293 236.65 63.9333 235.93C63.5493 235.21 63.3573 234.31 63.3573 233.23C63.3573 232.15 63.5433 231.25 63.9153 230.53C64.2993 229.81 64.8153 229.27 65.4633 228.91C66.1233 228.55 66.8613 228.37 67.6773 228.37C68.6133 228.37 69.4413 228.574 70.1613 228.982C70.8813 229.39 71.4513 229.96 71.8713 230.692C72.2913 231.412 72.5013 232.258 72.5013 233.23C72.5013 234.202 72.2913 235.054 71.8713 235.786C71.4513 236.518 70.8813 237.088 70.1613 237.496C69.4413 237.904 68.6133 238.108 67.6773 238.108ZM62.6193 241.492V228.46H64.2753V231.034L64.1673 233.248L64.3473 235.462V241.492H62.6193ZM67.5333 236.596C68.1453 236.596 68.6913 236.458 69.1713 236.182C69.6633 235.906 70.0473 235.516 70.3233 235.012C70.6113 234.496 70.7553 233.902 70.7553 233.23C70.7553 232.546 70.6113 231.958 70.3233 231.466C70.0473 230.962 69.6633 230.572 69.1713 230.296C68.6913 230.02 68.1453 229.882 67.5333 229.882C66.9333 229.882 66.3873 230.02 65.8953 230.296C65.4153 230.572 65.0313 230.962 64.7433 231.466C64.4673 231.958 64.3293 232.546 64.3293 233.23C64.3293 233.902 64.4673 234.496 64.7433 235.012C65.0313 235.516 65.4153 235.906 65.8953 236.182C66.3873 236.458 66.9333 236.596 67.5333 236.596ZM79.0979 238.108C78.1379 238.108 77.2859 237.898 76.5419 237.478C75.7979 237.058 75.2099 236.482 74.7779 235.75C74.3459 235.006 74.1299 234.166 74.1299 233.23C74.1299 232.282 74.3459 231.442 74.7779 230.71C75.2099 229.978 75.7979 229.408 76.5419 229C77.2859 228.58 78.1379 228.37 79.0979 228.37C80.0459 228.37 80.8919 228.58 81.6359 229C82.3919 229.408 82.9799 229.978 83.3999 230.71C83.8319 231.43 84.0479 232.27 84.0479 233.23C84.0479 234.178 83.8319 235.018 83.3999 235.75C82.9799 236.482 82.3919 237.058 81.6359 237.478C80.8919 237.898 80.0459 238.108 79.0979 238.108ZM79.0979 236.596C79.7099 236.596 80.2559 236.458 80.7359 236.182C81.2279 235.906 81.6119 235.516 81.8879 235.012C82.1639 234.496 82.3019 233.902 82.3019 233.23C82.3019 232.546 82.1639 231.958 81.8879 231.466C81.6119 230.962 81.2279 230.572 80.7359 230.296C80.2559 230.02 79.7099 229.882 79.0979 229.882C78.4859 229.882 77.9399 230.02 77.4599 230.296C76.9799 230.572 76.5959 230.962 76.3079 231.466C76.0199 231.958 75.8759 232.546 75.8759 233.23C75.8759 233.902 76.0199 234.496 76.3079 235.012C76.5959 235.516 76.9799 235.906 77.4599 236.182C77.9399 236.458 78.4859 236.596 79.0979 236.596ZM90.9531 238.144C90.1611 238.144 89.4591 238.018 88.8471 237.766C88.2471 237.514 87.7311 237.142 87.2991 236.65C86.8671 236.146 86.5371 235.516 86.3091 234.76C86.0931 233.992 85.9851 233.092 85.9851 232.06C85.9851 231.244 86.0571 230.512 86.2011 229.864C86.3451 229.216 86.5491 228.64 86.8131 228.136C87.0891 227.632 87.4251 227.194 87.8211 226.822C88.2291 226.45 88.6851 226.144 89.1891 225.904C89.7051 225.652 90.2691 225.46 90.8811 225.328L95.2371 224.356L95.4891 225.958L91.4751 226.822C91.2351 226.87 90.9471 226.942 90.6111 227.038C90.2751 227.134 89.9331 227.284 89.5851 227.488C89.2371 227.68 88.9131 227.95 88.6131 228.298C88.3131 228.646 88.0731 229.102 87.8931 229.666C87.7131 230.218 87.6231 230.902 87.6231 231.718C87.6231 231.946 87.6291 232.12 87.6411 232.24C87.6531 232.36 87.6651 232.48 87.6771 232.6C87.7011 232.72 87.7191 232.9 87.7311 233.14L87.0111 232.402C87.2031 231.742 87.5091 231.166 87.9291 230.674C88.3491 230.182 88.8531 229.804 89.4411 229.54C90.0411 229.264 90.6951 229.126 91.4031 229.126C92.2911 229.126 93.0771 229.318 93.7611 229.702C94.4571 230.086 95.0031 230.614 95.3991 231.286C95.7951 231.958 95.9931 232.726 95.9931 233.59C95.9931 234.466 95.7831 235.252 95.3631 235.948C94.9551 236.632 94.3731 237.172 93.6171 237.568C92.8611 237.952 91.9731 238.144 90.9531 238.144ZM91.1151 236.704C91.7271 236.704 92.2671 236.572 92.7351 236.308C93.2031 236.032 93.5691 235.666 93.8331 235.21C94.0971 234.742 94.2291 234.22 94.2291 233.644C94.2291 233.068 94.0971 232.558 93.8331 232.114C93.5691 231.67 93.2031 231.322 92.7351 231.07C92.2671 230.806 91.7151 230.674 91.0791 230.674C90.4791 230.674 89.9391 230.8 89.4591 231.052C88.9791 231.292 88.6071 231.634 88.3431 232.078C88.0791 232.51 87.9471 233.014 87.9471 233.59C87.9471 234.166 88.0791 234.694 88.3431 235.174C88.6191 235.642 88.9911 236.014 89.4591 236.29C89.9391 236.566 90.4911 236.704 91.1151 236.704ZM98.4611 238V228.46H100.189V232.51H105.625V228.46H107.353V238H105.625V234.004H100.189V238H98.4611ZM110.713 238V228.46H112.441V235.408L118.291 228.46H119.857V238H118.129V231.052L112.297 238H110.713ZM130.123 238L126.433 233.356L127.855 232.492L132.157 238H130.123ZM123.211 238V228.46H124.939V238H123.211ZM124.417 233.968V232.492H127.567V233.968H124.417ZM127.999 233.428L126.397 233.212L130.051 228.46H131.905L127.999 233.428Z" fill="#37376D"/>
<path d="M330.962 238V225.4H336.38C337.748 225.4 338.822 225.676 339.602 226.228C340.382 226.78 340.772 227.584 340.772 228.64C340.772 229.672 340.4 230.464 339.656 231.016C338.912 231.556 337.934 231.826 336.722 231.826L337.046 231.286C338.45 231.286 339.524 231.568 340.268 232.132C341.024 232.684 341.402 233.494 341.402 234.562C341.402 235.642 341.006 236.488 340.214 237.1C339.434 237.7 338.27 238 336.722 238H330.962ZM332.744 236.578H336.686C337.646 236.578 338.366 236.404 338.846 236.056C339.338 235.696 339.584 235.15 339.584 234.418C339.584 233.686 339.338 233.152 338.846 232.816C338.366 232.48 337.646 232.312 336.686 232.312H332.744V236.578ZM332.744 230.944H336.254C337.13 230.944 337.796 230.77 338.252 230.422C338.72 230.074 338.954 229.564 338.954 228.892C338.954 228.208 338.72 227.692 338.252 227.344C337.796 226.996 337.13 226.822 336.254 226.822H332.744V230.944ZM344.121 238V228.46H345.849V238H344.121ZM344.985 226.624C344.649 226.624 344.367 226.516 344.139 226.3C343.923 226.084 343.815 225.82 343.815 225.508C343.815 225.184 343.923 224.914 344.139 224.698C344.367 224.482 344.649 224.374 344.985 224.374C345.321 224.374 345.597 224.482 345.813 224.698C346.041 224.902 346.155 225.16 346.155 225.472C346.155 225.796 346.047 226.072 345.831 226.3C345.615 226.516 345.333 226.624 344.985 226.624ZM355.735 237.19V229.972H351.595L351.505 231.808C351.481 232.408 351.439 232.99 351.379 233.554C351.331 234.106 351.247 234.616 351.127 235.084C351.019 235.552 350.857 235.936 350.641 236.236C350.425 236.536 350.137 236.722 349.777 236.794L348.067 236.488C348.439 236.5 348.739 236.38 348.967 236.128C349.195 235.864 349.369 235.504 349.489 235.048C349.621 234.592 349.717 234.076 349.777 233.5C349.837 232.912 349.885 232.306 349.921 231.682L350.065 228.46H357.463V237.19H355.735ZM347.689 240.214V236.488H358.921V240.214H357.301V238H349.327V240.214H347.689ZM359.66 238L363.764 232.672L363.746 233.554L359.84 228.46H361.766L364.754 232.384H364.016L367.004 228.46H368.894L364.934 233.59L364.952 232.672L369.092 238H367.13L363.98 233.824L364.682 233.932L361.586 238H359.66ZM370.91 238V228.46H372.638V235.408L378.488 228.46H380.054V238H378.326V231.052L372.494 238H370.91ZM381.824 237.982L381.932 236.524C382.016 236.536 382.094 236.548 382.166 236.56C382.238 236.572 382.304 236.578 382.364 236.578C382.748 236.578 383.048 236.446 383.264 236.182C383.492 235.918 383.66 235.57 383.768 235.138C383.876 234.694 383.954 234.196 384.002 233.644C384.05 233.092 384.086 232.54 384.11 231.988L384.272 228.46H391.598V238H389.87V229.468L390.284 229.972H385.388L385.784 229.45L385.658 232.096C385.622 232.936 385.556 233.722 385.46 234.454C385.364 235.186 385.214 235.828 385.01 236.38C384.818 236.932 384.548 237.364 384.2 237.676C383.864 237.988 383.426 238.144 382.886 238.144C382.73 238.144 382.562 238.126 382.382 238.09C382.214 238.066 382.028 238.03 381.824 237.982ZM399.188 238.108C398.168 238.108 397.268 237.898 396.488 237.478C395.72 237.058 395.12 236.482 394.688 235.75C394.268 235.018 394.058 234.178 394.058 233.23C394.058 232.282 394.262 231.442 394.67 230.71C395.09 229.978 395.66 229.408 396.38 229C397.112 228.58 397.934 228.37 398.846 228.37C399.77 228.37 400.586 228.574 401.294 228.982C402.002 229.39 402.554 229.966 402.95 230.71C403.358 231.442 403.562 232.3 403.562 233.284C403.562 233.356 403.556 233.44 403.544 233.536C403.544 233.632 403.538 233.722 403.526 233.806H395.408V232.564H402.626L401.924 232.996C401.936 232.384 401.81 231.838 401.546 231.358C401.282 230.878 400.916 230.506 400.448 230.242C399.992 229.966 399.458 229.828 398.846 229.828C398.246 229.828 397.712 229.966 397.244 230.242C396.776 230.506 396.41 230.884 396.146 231.376C395.882 231.856 395.75 232.408 395.75 233.032V233.32C395.75 233.956 395.894 234.526 396.182 235.03C396.482 235.522 396.896 235.906 397.424 236.182C397.952 236.458 398.558 236.596 399.242 236.596C399.806 236.596 400.316 236.5 400.772 236.308C401.24 236.116 401.648 235.828 401.996 235.444L402.95 236.56C402.518 237.064 401.978 237.448 401.33 237.712C400.694 237.976 399.98 238.108 399.188 238.108ZM406.242 238V228.46H407.97V232.51H413.406V228.46H415.134V238H413.406V234.004H407.97V238H406.242ZM418.494 238V228.46H420.222V232.51H425.658V228.46H427.386V238H425.658V234.004H420.222V238H418.494ZM436.848 238V234.652L437.118 234.976H434.076C432.804 234.976 431.808 234.706 431.088 234.166C430.38 233.626 430.026 232.84 430.026 231.808C430.026 230.704 430.404 229.87 431.16 229.306C431.928 228.742 432.948 228.46 434.22 228.46H438.396V238H436.848ZM429.936 238L432.528 234.346H434.31L431.79 238H429.936ZM436.848 234.112V229.486L437.118 229.972H434.274C433.482 229.972 432.87 230.122 432.438 230.422C432.006 230.71 431.79 231.19 431.79 231.862C431.79 233.11 432.594 233.734 434.202 233.734H437.118L436.848 234.112Z" fill="#37376D"/>
<path d="M330.962 146V133.4H336.38C337.748 133.4 338.822 133.676 339.602 134.228C340.382 134.78 340.772 135.584 340.772 136.64C340.772 137.672 340.4 138.464 339.656 139.016C338.912 139.556 337.934 139.826 336.722 139.826L337.046 139.286C338.45 139.286 339.524 139.568 340.268 140.132C341.024 140.684 341.402 141.494 341.402 142.562C341.402 143.642 341.006 144.488 340.214 145.1C339.434 145.7 338.27 146 336.722 146H330.962ZM332.744 144.578H336.686C337.646 144.578 338.366 144.404 338.846 144.056C339.338 143.696 339.584 143.15 339.584 142.418C339.584 141.686 339.338 141.152 338.846 140.816C338.366 140.48 337.646 140.312 336.686 140.312H332.744V144.578ZM332.744 138.944H336.254C337.13 138.944 337.796 138.77 338.252 138.422C338.72 138.074 338.954 137.564 338.954 136.892C338.954 136.208 338.72 135.692 338.252 135.344C337.796 134.996 337.13 134.822 336.254 134.822H332.744V138.944ZM344.121 146V136.46H345.849V146H344.121ZM344.985 134.624C344.649 134.624 344.367 134.516 344.139 134.3C343.923 134.084 343.815 133.82 343.815 133.508C343.815 133.184 343.923 132.914 344.139 132.698C344.367 132.482 344.649 132.374 344.985 132.374C345.321 132.374 345.597 132.482 345.813 132.698C346.041 132.902 346.155 133.16 346.155 133.472C346.155 133.796 346.047 134.072 345.831 134.3C345.615 134.516 345.333 134.624 344.985 134.624ZM355.735 145.19V137.972H351.595L351.505 139.808C351.481 140.408 351.439 140.99 351.379 141.554C351.331 142.106 351.247 142.616 351.127 143.084C351.019 143.552 350.857 143.936 350.641 144.236C350.425 144.536 350.137 144.722 349.777 144.794L348.067 144.488C348.439 144.5 348.739 144.38 348.967 144.128C349.195 143.864 349.369 143.504 349.489 143.048C349.621 142.592 349.717 142.076 349.777 141.5C349.837 140.912 349.885 140.306 349.921 139.682L350.065 136.46H357.463V145.19H355.735ZM347.689 148.214V144.488H358.921V148.214H357.301V146H349.327V148.214H347.689ZM359.66 146L363.764 140.672L363.746 141.554L359.84 136.46H361.766L364.754 140.384H364.016L367.004 136.46H368.894L364.934 141.59L364.952 140.672L369.092 146H367.13L363.98 141.824L364.682 141.932L361.586 146H359.66ZM370.91 146V136.46H372.638V143.408L378.488 136.46H380.054V146H378.326V139.052L372.494 146H370.91ZM381.824 145.982L381.932 144.524C382.016 144.536 382.094 144.548 382.166 144.56C382.238 144.572 382.304 144.578 382.364 144.578C382.748 144.578 383.048 144.446 383.264 144.182C383.492 143.918 383.66 143.57 383.768 143.138C383.876 142.694 383.954 142.196 384.002 141.644C384.05 141.092 384.086 140.54 384.11 139.988L384.272 136.46H391.598V146H389.87V137.468L390.284 137.972H385.388L385.784 137.45L385.658 140.096C385.622 140.936 385.556 141.722 385.46 142.454C385.364 143.186 385.214 143.828 385.01 144.38C384.818 144.932 384.548 145.364 384.2 145.676C383.864 145.988 383.426 146.144 382.886 146.144C382.73 146.144 382.562 146.126 382.382 146.09C382.214 146.066 382.028 146.03 381.824 145.982ZM399.188 146.108C398.168 146.108 397.268 145.898 396.488 145.478C395.72 145.058 395.12 144.482 394.688 143.75C394.268 143.018 394.058 142.178 394.058 141.23C394.058 140.282 394.262 139.442 394.67 138.71C395.09 137.978 395.66 137.408 396.38 137C397.112 136.58 397.934 136.37 398.846 136.37C399.77 136.37 400.586 136.574 401.294 136.982C402.002 137.39 402.554 137.966 402.95 138.71C403.358 139.442 403.562 140.3 403.562 141.284C403.562 141.356 403.556 141.44 403.544 141.536C403.544 141.632 403.538 141.722 403.526 141.806H395.408V140.564H402.626L401.924 140.996C401.936 140.384 401.81 139.838 401.546 139.358C401.282 138.878 400.916 138.506 400.448 138.242C399.992 137.966 399.458 137.828 398.846 137.828C398.246 137.828 397.712 137.966 397.244 138.242C396.776 138.506 396.41 138.884 396.146 139.376C395.882 139.856 395.75 140.408 395.75 141.032V141.32C395.75 141.956 395.894 142.526 396.182 143.03C396.482 143.522 396.896 143.906 397.424 144.182C397.952 144.458 398.558 144.596 399.242 144.596C399.806 144.596 400.316 144.5 400.772 144.308C401.24 144.116 401.648 143.828 401.996 143.444L402.95 144.56C402.518 145.064 401.978 145.448 401.33 145.712C400.694 145.976 399.98 146.108 399.188 146.108ZM406.242 146V136.46H407.97V140.51H413.406V136.46H415.134V146H413.406V142.004H407.97V146H406.242ZM418.494 146V136.46H420.222V140.51H425.658V136.46H427.386V146H425.658V142.004H420.222V146H418.494ZM436.848 146V142.652L437.118 142.976H434.076C432.804 142.976 431.808 142.706 431.088 142.166C430.38 141.626 430.026 140.84 430.026 139.808C430.026 138.704 430.404 137.87 431.16 137.306C431.928 136.742 432.948 136.46 434.22 136.46H438.396V146H436.848ZM429.936 146L432.528 142.346H434.31L431.79 146H429.936ZM436.848 142.112V137.486L437.118 137.972H434.274C433.482 137.972 432.87 138.122 432.438 138.422C432.006 138.71 431.79 139.19 431.79 139.862C431.79 141.11 432.594 141.734 434.202 141.734H437.118L436.848 142.112ZM448.78 149.492C448.096 148.4 447.568 147.14 447.196 145.712C446.824 144.272 446.638 142.724 446.638 141.068C446.638 139.412 446.824 137.864 447.196 136.424C447.568 134.972 448.096 133.712 448.78 132.644H450.418C449.698 133.916 449.17 135.248 448.834 136.64C448.498 138.02 448.33 139.496 448.33 141.068C448.33 142.64 448.498 144.122 448.834 145.514C449.17 146.894 449.698 148.22 450.418 149.492H448.78ZM453.584 146L462.188 133.4H463.574L454.97 146H453.584ZM454.592 140.168C454.016 140.168 453.506 140.024 453.062 139.736C452.618 139.448 452.27 139.046 452.018 138.53C451.778 138.014 451.658 137.414 451.658 136.73C451.658 136.046 451.778 135.446 452.018 134.93C452.27 134.414 452.618 134.012 453.062 133.724C453.506 133.436 454.016 133.292 454.592 133.292C455.18 133.292 455.69 133.436 456.122 133.724C456.566 134.012 456.908 134.414 457.148 134.93C457.388 135.446 457.508 136.046 457.508 136.73C457.508 137.414 457.388 138.014 457.148 138.53C456.908 139.046 456.566 139.448 456.122 139.736C455.69 140.024 455.18 140.168 454.592 140.168ZM454.592 139.142C455.144 139.142 455.576 138.932 455.888 138.512C456.2 138.08 456.356 137.486 456.356 136.73C456.356 135.974 456.2 135.386 455.888 134.966C455.576 134.534 455.144 134.318 454.592 134.318C454.052 134.318 453.62 134.534 453.296 134.966C452.984 135.386 452.828 135.974 452.828 136.73C452.828 137.474 452.984 138.062 453.296 138.494C453.62 138.926 454.052 139.142 454.592 139.142ZM462.566 146.108C461.99 146.108 461.48 145.964 461.036 145.676C460.592 145.388 460.25 144.986 460.01 144.47C459.77 143.954 459.65 143.354 459.65 142.67C459.65 141.986 459.77 141.386 460.01 140.87C460.25 140.354 460.592 139.952 461.036 139.664C461.48 139.376 461.99 139.232 462.566 139.232C463.154 139.232 463.664 139.376 464.096 139.664C464.54 139.952 464.882 140.354 465.122 140.87C465.374 141.386 465.5 141.986 465.5 142.67C465.5 143.354 465.374 143.954 465.122 144.47C464.882 144.986 464.54 145.388 464.096 145.676C463.664 145.964 463.154 146.108 462.566 146.108ZM462.566 145.082C463.106 145.082 463.532 144.872 463.844 144.452C464.168 144.02 464.33 143.426 464.33 142.67C464.33 141.926 464.168 141.338 463.844 140.906C463.532 140.474 463.106 140.258 462.566 140.258C462.026 140.258 461.594 140.474 461.27 140.906C460.958 141.326 460.802 141.914 460.802 142.67C460.802 143.426 460.958 144.02 461.27 144.452C461.594 144.872 462.026 145.082 462.566 145.082ZM468.025 149.492H466.387C467.119 148.22 467.653 146.894 467.989 145.514C468.325 144.122 468.493 142.64 468.493 141.068C468.493 139.496 468.325 138.02 467.989 136.64C467.653 135.248 467.119 133.916 466.387 132.644H468.025C468.733 133.712 469.267 134.972 469.627 136.424C469.999 137.864 470.185 139.412 470.185 141.068C470.185 142.724 469.999 144.272 469.627 145.712C469.267 147.14 468.733 148.4 468.025 149.492Z" fill="#37376D"/>
<path d="M339.332 53.154V42.966H333.806L333.716 45.612C333.68 46.5 333.62 47.352 333.536 48.168C333.464 48.984 333.356 49.722 333.212 50.382C333.068 51.03 332.864 51.564 332.6 51.984C332.348 52.404 332.024 52.662 331.628 52.758L329.684 52.434C330.152 52.47 330.536 52.314 330.836 51.966C331.148 51.606 331.388 51.108 331.556 50.472C331.736 49.824 331.868 49.074 331.952 48.222C332.036 47.358 332.096 46.434 332.132 45.45L332.258 41.4H341.114V53.154H339.332ZM329.234 56.754L329.252 52.434H342.968V56.754H341.294V54H330.926L330.908 56.754H329.234ZM349.016 54.108C348.056 54.108 347.204 53.898 346.46 53.478C345.716 53.058 345.128 52.482 344.696 51.75C344.264 51.006 344.048 50.166 344.048 49.23C344.048 48.282 344.264 47.442 344.696 46.71C345.128 45.978 345.716 45.408 346.46 45C347.204 44.58 348.056 44.37 349.016 44.37C349.964 44.37 350.81 44.58 351.554 45C352.31 45.408 352.898 45.978 353.318 46.71C353.75 47.43 353.966 48.27 353.966 49.23C353.966 50.178 353.75 51.018 353.318 51.75C352.898 52.482 352.31 53.058 351.554 53.478C350.81 53.898 349.964 54.108 349.016 54.108ZM349.016 52.596C349.628 52.596 350.174 52.458 350.654 52.182C351.146 51.906 351.53 51.516 351.806 51.012C352.082 50.496 352.22 49.902 352.22 49.23C352.22 48.546 352.082 47.958 351.806 47.466C351.53 46.962 351.146 46.572 350.654 46.296C350.174 46.02 349.628 45.882 349.016 45.882C348.404 45.882 347.858 46.02 347.378 46.296C346.898 46.572 346.514 46.962 346.226 47.466C345.938 47.958 345.794 48.546 345.794 49.23C345.794 49.902 345.938 50.496 346.226 51.012C346.514 51.516 346.898 51.906 347.378 52.182C347.858 52.458 348.404 52.596 349.016 52.596ZM360.619 54.108C359.647 54.108 358.777 53.898 358.009 53.478C357.253 53.058 356.659 52.482 356.227 51.75C355.795 51.018 355.579 50.178 355.579 49.23C355.579 48.282 355.795 47.442 356.227 46.71C356.659 45.978 357.253 45.408 358.009 45C358.777 44.58 359.647 44.37 360.619 44.37C361.483 44.37 362.251 44.544 362.923 44.892C363.607 45.228 364.135 45.732 364.507 46.404L363.193 47.25C362.881 46.782 362.497 46.44 362.041 46.224C361.597 45.996 361.117 45.882 360.601 45.882C359.977 45.882 359.419 46.02 358.927 46.296C358.435 46.572 358.045 46.962 357.757 47.466C357.469 47.958 357.325 48.546 357.325 49.23C357.325 49.914 357.469 50.508 357.757 51.012C358.045 51.516 358.435 51.906 358.927 52.182C359.419 52.458 359.977 52.596 360.601 52.596C361.117 52.596 361.597 52.488 362.041 52.272C362.497 52.044 362.881 51.696 363.193 51.228L364.507 52.056C364.135 52.716 363.607 53.226 362.923 53.586C362.251 53.934 361.483 54.108 360.619 54.108ZM368.511 54V45.522L368.943 45.972H365.019V44.46H373.731V45.972H369.825L370.239 45.522V54H368.511ZM375.984 57.6C375.528 57.6 375.084 57.522 374.652 57.366C374.22 57.222 373.848 57.006 373.536 56.718L374.274 55.422C374.514 55.65 374.778 55.824 375.066 55.944C375.354 56.064 375.66 56.124 375.984 56.124C376.404 56.124 376.752 56.016 377.028 55.8C377.304 55.584 377.562 55.2 377.802 54.648L378.396 53.334L378.576 53.118L382.32 44.46H384.012L379.386 54.954C379.11 55.626 378.798 56.154 378.45 56.538C378.114 56.922 377.742 57.192 377.334 57.348C376.926 57.516 376.476 57.6 375.984 57.6ZM378.252 54.306L373.896 44.46H375.696L379.404 52.956L378.252 54.306ZM385.781 54V44.46H394.619V54H392.891V45.54L393.305 45.972H387.095L387.509 45.54V54H385.781ZM397.963 54V44.46H399.691V48.51H405.127V44.46H406.855V54H405.127V50.004H399.691V54H397.963ZM410.215 54V44.46H411.943V54H410.215ZM411.079 42.624C410.743 42.624 410.461 42.516 410.233 42.3C410.017 42.084 409.909 41.82 409.909 41.508C409.909 41.184 410.017 40.914 410.233 40.698C410.461 40.482 410.743 40.374 411.079 40.374C411.415 40.374 411.691 40.482 411.907 40.698C412.135 40.902 412.249 41.16 412.249 41.472C412.249 41.796 412.141 42.072 411.925 42.3C411.709 42.516 411.427 42.624 411.079 42.624ZM419.471 54.108C418.499 54.108 417.629 53.898 416.861 53.478C416.105 53.058 415.511 52.482 415.079 51.75C414.647 51.018 414.431 50.178 414.431 49.23C414.431 48.282 414.647 47.442 415.079 46.71C415.511 45.978 416.105 45.408 416.861 45C417.629 44.58 418.499 44.37 419.471 44.37C420.335 44.37 421.103 44.544 421.775 44.892C422.459 45.228 422.987 45.732 423.359 46.404L422.045 47.25C421.733 46.782 421.349 46.44 420.893 46.224C420.449 45.996 419.969 45.882 419.453 45.882C418.829 45.882 418.271 46.02 417.779 46.296C417.287 46.572 416.897 46.962 416.609 47.466C416.321 47.958 416.177 48.546 416.177 49.23C416.177 49.914 416.321 50.508 416.609 51.012C416.897 51.516 417.287 51.906 417.779 52.182C418.271 52.458 418.829 52.596 419.453 52.596C419.969 52.596 420.449 52.488 420.893 52.272C421.349 52.044 421.733 51.696 422.045 51.228L423.359 52.056C422.987 52.716 422.459 53.226 421.775 53.586C421.103 53.934 420.335 54.108 419.471 54.108ZM427.363 54V45.522L427.795 45.972H423.871V44.46H432.583V45.972H428.677L429.091 45.522V54H427.363ZM438.76 47.7C439.972 47.712 440.896 47.988 441.532 48.528C442.168 49.068 442.486 49.83 442.486 50.814C442.486 51.846 442.138 52.644 441.442 53.208C440.746 53.76 439.762 54.03 438.49 54.018L434.35 54V44.46H436.078V47.682L438.76 47.7ZM438.346 52.704C439.126 52.716 439.714 52.56 440.11 52.236C440.518 51.912 440.722 51.432 440.722 50.796C440.722 50.172 440.524 49.716 440.128 49.428C439.732 49.14 439.138 48.99 438.346 48.978L436.078 48.942V52.686L438.346 52.704Z" fill="#37376D"/>
<path fill-rule="evenodd" clip-rule="evenodd" d="M287 103H36V102H287V103Z" fill="black"/>
<path fill-rule="evenodd" clip-rule="evenodd" d="M287 194H36V193H287V194Z" fill="black"/>
<path fill-rule="evenodd" clip-rule="evenodd" d="M440 285H329V284H440V285Z" fill="black"/>
<path fill-rule="evenodd" clip-rule="evenodd" d="M580 285H469V284H580V285Z" fill="black"/>
<path fill-rule="evenodd" clip-rule="evenodd" d="M580 194H329V193H580V194Z" fill="black"/>
<path d="M576.163 172.75L571.998 169L580.328 169L576.163 172.75Z" fill="#000C2C"/>
<path fill-rule="evenodd" clip-rule="evenodd" d="M581 103H330V102H581V103Z" fill="black"/>
<path d="M576.163 84.75L571.998 81L580.328 81L576.163 84.75Z" fill="#000C2C"/>
<path fill-rule="evenodd" clip-rule="evenodd" d="M287 285H36V284H287V285Z" fill="black"/>
<path d="M283.163 265.75L278.998 262L287.328 262L283.163 265.75Z" fill="#000C2C"/>
</svg>
