<svg width="632" height="361" viewBox="0 0 632 361" fill="none" xmlns="http://www.w3.org/2000/svg">
<g filter="url(#filter0_d_803_857)">
<path d="M50 66C50 54.9543 58.9543 46 70 46H562C573.046 46 582 54.9543 582 66V287C582 298.046 573.046 307 562 307H70C58.9543 307 50 298.046 50 287V66Z" fill="white"/>
</g>
<path d="M85 76.5H248.5V115.5H80.5V81C80.5 78.5147 82.5147 76.5 85 76.5Z" fill="#F9F9FB" stroke="#DDDDE6"/>
<rect x="248.5" y="76.5" width="94" height="39" fill="#F9F9FB" stroke="#DDDDE6"/>
<path d="M342.5 76.5H456.5V115.5H342.5V76.5Z" fill="#F9F9FB" stroke="#DDDDE6"/>
<path d="M456.5 76.5H546C548.485 76.5 550.5 78.5147 550.5 81V115.5H456.5V76.5Z" fill="#F9F9FB" stroke="#DDDDE6"/>
<path d="M80.5 115.5H248.5V154.5H80.5V115.5Z" fill="white" stroke="#DDDDE6"/>
<path d="M80.5 154.5H248.5V193.5H80.5V154.5Z" fill="white" stroke="#DDDDE6"/>
<path d="M80.5 193.5H248.5V232.5H80.5V193.5Z" fill="white" stroke="#DDDDE6"/>
<path d="M80.5 232.5H248.5V271.5H80.5V232.5Z" fill="white" stroke="#DDDDE6"/>
<rect x="248.5" y="115.5" width="94" height="39" fill="white" stroke="#DDDDE6"/>
<rect x="248.5" y="154.5" width="94" height="39" fill="white" stroke="#DDDDE6"/>
<rect x="248.5" y="193.5" width="94" height="39" fill="white" stroke="#DDDDE6"/>
<rect x="248.5" y="232.5" width="94" height="39" fill="white" stroke="#DDDDE6"/>
<path d="M342.5 115.5H456.5V154.5H342.5V115.5Z" fill="white" stroke="#DDDDE6"/>
<rect x="456.5" y="115.5" width="94" height="39" fill="white" stroke="#DDDDE6"/>
<path d="M342.5 154.5H456.5V193.5H342.5V154.5Z" fill="white" stroke="#DDDDE6"/>
<rect x="456.5" y="154.5" width="94" height="39" fill="white" stroke="#DDDDE6"/>
<path d="M342.5 193.5H456.5V232.5H342.5V193.5Z" fill="white" stroke="#DDDDE6"/>
<rect x="456.5" y="193.5" width="94" height="39" fill="white" stroke="#DDDDE6"/>
<path d="M342.5 232.5H456.5V271.5H342.5V232.5Z" fill="white" stroke="#DDDDE6"/>
<rect x="456.5" y="232.5" width="94" height="39" fill="white" stroke="#DDDDE6"/>
<path d="M94.252 89.4V91.29H98.428V102H100.48V91.29H104.638V89.4H94.252ZM103.543 97.68C103.543 100.668 105.811 102.234 108.223 102.234C110.653 102.234 112.903 100.668 112.903 97.68C112.903 94.692 110.653 93.126 108.223 93.126C105.811 93.126 103.543 94.692 103.543 97.68ZM110.941 97.68C110.941 99.372 109.825 100.47 108.223 100.47C106.603 100.47 105.487 99.372 105.487 97.68C105.487 95.988 106.603 94.89 108.223 94.89C109.825 94.89 110.941 95.988 110.941 97.68ZM119.846 102C121.844 102 122.69 100.956 122.69 99.624C122.69 98.562 122.024 97.878 121.214 97.626C121.952 97.302 122.438 96.618 122.438 95.664C122.438 94.314 121.448 93.36 119.702 93.36H114.77V102H119.846ZM116.696 98.328H119.414C120.08 98.328 120.746 98.562 120.746 99.444C120.746 100.272 120.17 100.542 119.378 100.542H116.696V98.328ZM116.696 94.818H119.27C119.864 94.818 120.494 95.07 120.494 95.916C120.494 96.69 119.954 96.96 119.27 96.96H116.696V94.818ZM131.994 100.002V96.906C131.994 94.296 130.446 93.126 127.998 93.126C126.612 93.126 125.37 93.468 124.686 93.702V95.466C125.46 95.124 126.522 94.8 127.8 94.8C129.276 94.8 130.068 95.556 130.068 96.636V96.942C129.384 96.798 128.556 96.69 127.818 96.69C126.018 96.69 123.966 97.374 123.966 99.588C123.966 101.37 125.424 102.234 126.99 102.234C128.34 102.234 129.402 101.802 130.248 101.118C130.554 101.82 131.184 102.126 131.976 102.126C132.408 102.126 132.84 102.054 133.2 101.91V100.524C133.02 100.578 132.822 100.632 132.624 100.632C132.282 100.632 131.994 100.488 131.994 100.002ZM128.196 98.04C128.808 98.04 129.546 98.148 130.068 98.256V99.714C129.384 100.398 128.484 100.74 127.566 100.74C126.702 100.74 125.946 100.308 125.946 99.462C125.946 98.382 127.098 98.04 128.196 98.04ZM136.361 94.71V93.36H134.651V105.96H136.577V100.884C137.171 101.568 138.179 102.234 139.691 102.234C142.283 102.234 143.975 100.164 143.975 97.68C143.975 95.196 142.283 93.126 139.691 93.126C138.071 93.126 137.045 93.882 136.361 94.71ZM142.013 97.68C142.013 99.372 140.897 100.542 139.331 100.542C137.999 100.542 136.991 99.678 136.577 98.724V96.618C136.991 95.682 137.999 94.818 139.331 94.818C140.897 94.818 142.013 95.988 142.013 97.68ZM147.505 102L152.131 96.348V102H154.057V93.36H152.401L147.775 99.012V93.36H145.849V102H147.505Z" fill="#454545"/>
<path d="M107.356 127.4L102.154 135.176L96.952 127.4H95.656V140H97.168V130.262L101.686 137.03H102.622L107.14 130.262V140H108.652V127.4H107.356ZM113.424 140H111.842V130.35H113.424V140ZM111.719 127.739C111.719 127.388 111.807 127.133 111.982 126.975C112.164 126.816 112.387 126.737 112.65 126.737C112.896 126.737 113.11 126.816 113.292 126.975C113.479 127.133 113.573 127.388 113.573 127.739C113.573 128.085 113.479 128.34 113.292 128.504C113.11 128.668 112.896 128.75 112.65 128.75C112.387 128.75 112.164 128.668 111.982 128.504C111.807 128.34 111.719 128.085 111.719 127.739ZM122.783 129.272V127.976C121.883 128.57 121.145 128.768 120.263 128.768C119.381 128.768 118.643 128.57 117.743 127.976V129.272C118.553 129.848 119.399 130.028 120.263 130.028C121.127 130.028 121.973 129.848 122.783 129.272ZM117.509 140L122.801 133.682V140H124.241V131.36H123.017L117.725 137.678V131.36H116.285V140H117.509ZM134.985 140V132.692H138.153V131.36H130.359V132.692H133.545V140H134.985ZM138.912 135.68C138.912 138.632 141.18 140.216 143.52 140.216C145.878 140.216 148.128 138.632 148.128 135.68C148.128 132.728 145.878 131.144 143.52 131.144C141.18 131.144 138.912 132.728 138.912 135.68ZM146.688 135.68C146.688 137.678 145.284 138.848 143.52 138.848C141.756 138.848 140.352 137.678 140.352 135.68C140.352 133.682 141.756 132.512 143.52 132.512C145.284 132.512 146.688 133.682 146.688 135.68ZM155.071 140C156.943 140 157.861 139.028 157.861 137.606C157.861 136.526 157.141 135.842 156.439 135.608C157.087 135.32 157.591 134.6 157.591 133.7C157.591 132.17 156.439 131.36 154.927 131.36H150.193V140H155.071ZM151.633 136.256H154.927C155.647 136.256 156.421 136.49 156.421 137.516C156.421 138.47 155.773 138.74 154.873 138.74H151.633V136.256ZM151.633 132.62H154.783C155.395 132.62 156.133 132.872 156.133 133.844C156.133 134.726 155.539 135.014 154.783 135.014H151.633V132.62ZM167.075 138.2V134.816C167.075 132.404 165.617 131.144 163.313 131.144C161.891 131.144 160.703 131.486 160.019 131.72V133.124C160.775 132.8 161.837 132.476 163.169 132.476C164.753 132.476 165.635 133.34 165.635 134.636V134.942C164.915 134.78 163.997 134.672 163.241 134.672C161.387 134.672 159.335 135.356 159.335 137.588C159.335 139.406 160.847 140.216 162.377 140.216C163.781 140.216 164.879 139.784 165.743 139.064C165.995 139.82 166.625 140.108 167.327 140.108C167.687 140.108 168.065 140.036 168.407 139.91V138.74C168.191 138.812 167.957 138.866 167.741 138.866C167.363 138.866 167.075 138.722 167.075 138.2ZM160.811 137.516C160.811 136.256 162.179 135.878 163.439 135.878C164.141 135.878 165.023 136.004 165.635 136.13V137.714C164.879 138.524 163.781 138.974 162.683 138.974C161.729 138.974 160.811 138.524 160.811 137.516ZM171.247 132.8V131.36H169.951V143.96H171.391V138.704C172.021 139.442 173.083 140.216 174.739 140.216C177.205 140.216 179.059 138.272 179.059 135.68C179.059 133.088 177.205 131.144 174.739 131.144C173.083 131.144 172.021 131.918 171.247 132.8ZM177.619 135.68C177.619 137.66 176.251 138.884 174.577 138.884C173.029 138.884 171.877 137.876 171.391 136.76V134.6C171.877 133.484 173.029 132.476 174.577 132.476C176.251 132.476 177.619 133.7 177.619 135.68ZM186.045 140L187.341 136.958H194.127L195.423 140H197.043L191.571 127.4H189.897L184.407 140H186.045ZM190.527 129.434C190.599 129.272 190.653 129.128 190.725 128.948C190.797 129.128 190.851 129.272 190.923 129.434L193.533 135.554H187.935L190.527 129.434Z" fill="#454545"/>
<path d="M109.356 166.4L104.154 174.176L98.952 166.4H97.656V179H99.168V169.262L103.686 176.03H104.622L109.14 169.262V179H110.652V166.4H109.356ZM115.424 179H113.842V169.35H115.424V179ZM113.719 166.739C113.719 166.388 113.807 166.133 113.982 165.975C114.164 165.816 114.387 165.737 114.65 165.737C114.896 165.737 115.11 165.816 115.292 165.975C115.479 166.133 115.573 166.388 115.573 166.739C115.573 167.085 115.479 167.34 115.292 167.504C115.11 167.668 114.896 167.75 114.65 167.75C114.387 167.75 114.164 167.668 113.982 167.504C113.807 167.34 113.719 167.085 113.719 166.739ZM124.783 168.272V166.976C123.883 167.57 123.145 167.768 122.263 167.768C121.381 167.768 120.643 167.57 119.743 166.976V168.272C120.553 168.848 121.399 169.028 122.263 169.028C123.127 169.028 123.973 168.848 124.783 168.272ZM119.509 179L124.801 172.682V179H126.241V170.36H125.017L119.725 176.678V170.36H118.285V179H119.509ZM136.985 179V171.692H140.153V170.36H132.359V171.692H135.545V179H136.985ZM140.912 174.68C140.912 177.632 143.18 179.216 145.52 179.216C147.878 179.216 150.128 177.632 150.128 174.68C150.128 171.728 147.878 170.144 145.52 170.144C143.18 170.144 140.912 171.728 140.912 174.68ZM148.688 174.68C148.688 176.678 147.284 177.848 145.52 177.848C143.756 177.848 142.352 176.678 142.352 174.68C142.352 172.682 143.756 171.512 145.52 171.512C147.284 171.512 148.688 172.682 148.688 174.68ZM157.071 179C158.943 179 159.861 178.028 159.861 176.606C159.861 175.526 159.141 174.842 158.439 174.608C159.087 174.32 159.591 173.6 159.591 172.7C159.591 171.17 158.439 170.36 156.927 170.36H152.193V179H157.071ZM153.633 175.256H156.927C157.647 175.256 158.421 175.49 158.421 176.516C158.421 177.47 157.773 177.74 156.873 177.74H153.633V175.256ZM153.633 171.62H156.783C157.395 171.62 158.133 171.872 158.133 172.844C158.133 173.726 157.539 174.014 156.783 174.014H153.633V171.62ZM169.075 177.2V173.816C169.075 171.404 167.617 170.144 165.313 170.144C163.891 170.144 162.703 170.486 162.019 170.72V172.124C162.775 171.8 163.837 171.476 165.169 171.476C166.753 171.476 167.635 172.34 167.635 173.636V173.942C166.915 173.78 165.997 173.672 165.241 173.672C163.387 173.672 161.335 174.356 161.335 176.588C161.335 178.406 162.847 179.216 164.377 179.216C165.781 179.216 166.879 178.784 167.743 178.064C167.995 178.82 168.625 179.108 169.327 179.108C169.687 179.108 170.065 179.036 170.407 178.91V177.74C170.191 177.812 169.957 177.866 169.741 177.866C169.363 177.866 169.075 177.722 169.075 177.2ZM162.811 176.516C162.811 175.256 164.179 174.878 165.439 174.878C166.141 174.878 167.023 175.004 167.635 175.13V176.714C166.879 177.524 165.781 177.974 164.683 177.974C163.729 177.974 162.811 177.524 162.811 176.516ZM173.247 171.8V170.36H171.951V182.96H173.391V177.704C174.021 178.442 175.083 179.216 176.739 179.216C179.205 179.216 181.059 177.272 181.059 174.68C181.059 172.088 179.205 170.144 176.739 170.144C175.083 170.144 174.021 170.918 173.247 171.8ZM179.619 174.68C179.619 176.66 178.251 177.884 176.577 177.884C175.029 177.884 173.877 176.876 173.391 175.76V173.6C173.877 172.484 175.029 171.476 176.577 171.476C178.251 171.476 179.619 172.7 179.619 174.68ZM187.937 166.4V179H193.247C195.083 179 197.891 178.406 197.891 175.544C197.891 173.492 196.415 172.664 195.371 172.376C196.361 172.088 197.387 171.188 197.387 169.586C197.387 167.462 195.677 166.4 193.103 166.4H187.937ZM196.361 175.382C196.361 177.452 194.525 177.56 192.941 177.56H189.449V173.204H193.355C194.561 173.204 196.361 173.42 196.361 175.382ZM195.857 169.802C195.857 171.242 194.705 171.764 193.391 171.764H189.449V167.84H192.977C194.759 167.84 195.857 168.308 195.857 169.802Z" fill="#454545"/>
<path d="M98.9945 218H97.3565L102.846 205.4H104.52L109.992 218H108.372L107.076 214.958H100.29L98.9945 218ZM103.476 207.434L100.884 213.554H106.482L103.872 207.434C103.848 207.374 103.782 207.212 103.674 206.948C103.566 207.224 103.5 207.386 103.476 207.434ZM112.905 218H111.465V209.36H112.905V213.014H117.909V209.36H119.349V218H117.909V214.346H112.905V218ZM129.032 216.2C129.032 216.644 129.254 216.866 129.698 216.866C129.89 216.866 130.112 216.824 130.364 216.74V217.91C130.004 218.042 129.644 218.108 129.284 218.108C128.456 218.108 127.928 217.76 127.7 217.064C126.776 217.832 125.654 218.216 124.334 218.216C123.494 218.216 122.774 217.994 122.174 217.55C121.586 217.094 121.292 216.44 121.292 215.588C121.292 214.568 121.67 213.83 122.426 213.374C123.194 212.906 124.118 212.672 125.198 212.672C125.99 212.672 126.788 212.762 127.592 212.942V212.636C127.592 211.976 127.376 211.454 126.944 211.07C126.512 210.674 125.906 210.476 125.126 210.476C124.034 210.476 122.984 210.692 121.976 211.124V209.72C123.104 209.336 124.202 209.144 125.27 209.144C126.446 209.144 127.364 209.462 128.024 210.098C128.696 210.722 129.032 211.628 129.032 212.816V216.2ZM122.768 215.516C122.768 215.996 122.948 216.362 123.308 216.614C123.68 216.854 124.124 216.974 124.64 216.974C125.828 216.974 126.812 216.554 127.592 215.714V214.13C126.776 213.962 126.044 213.878 125.396 213.878C124.664 213.878 124.04 214.01 123.524 214.274C123.02 214.526 122.768 214.94 122.768 215.516ZM134.968 210.692C134.908 211.64 134.836 212.468 134.752 213.176C134.668 213.884 134.548 214.568 134.392 215.228C134.236 215.876 134.044 216.404 133.816 216.812C133.6 217.22 133.324 217.544 132.988 217.784C132.652 218.024 132.268 218.144 131.836 218.144C131.488 218.144 131.14 218.078 130.792 217.946V216.812C130.984 216.884 131.176 216.92 131.368 216.92C132.088 216.92 132.61 216.29 132.934 215.03C133.27 213.758 133.48 211.868 133.564 209.36H139.918V218H138.478V210.692H134.968ZM143.352 217.01C142.44 216.194 141.984 215.084 141.984 213.68C141.984 212.276 142.44 211.172 143.352 210.368C144.264 209.552 145.344 209.144 146.592 209.144C147.852 209.144 148.932 209.552 149.832 210.368C150.744 211.172 151.2 212.276 151.2 213.68C151.2 215.084 150.744 216.194 149.832 217.01C148.932 217.814 147.852 218.216 146.592 218.216C145.344 218.216 144.264 217.814 143.352 217.01ZM148.86 216.002C149.46 215.426 149.76 214.652 149.76 213.68C149.76 212.708 149.46 211.94 148.86 211.376C148.26 210.8 147.504 210.512 146.592 210.512C145.68 210.512 144.924 210.8 144.324 211.376C143.724 211.94 143.424 212.708 143.424 213.68C143.424 214.652 143.724 215.426 144.324 216.002C144.924 216.566 145.68 216.848 146.592 216.848C147.504 216.848 148.26 216.566 148.86 216.002ZM154.706 218H153.266V209.36H159.584V210.692H154.706V218ZM166.004 218H164.204L169.082 211.52L164.474 205.4H166.274L169.982 210.314L173.672 205.4H175.472L170.882 211.52L175.742 218H173.942L169.982 212.726L166.004 218Z" fill="#454545"/>
<path d="M98.1351 257H96.4971L101.987 244.4H103.661L109.133 257H107.513L106.217 253.958H99.4311L98.1351 257ZM102.617 246.434L100.025 252.554H105.623L103.013 246.434C102.989 246.374 102.923 246.212 102.815 245.948C102.707 246.224 102.641 246.386 102.617 246.434ZM112.045 257H110.605V248.36H112.045V252.014H117.049V248.36H118.489V257H117.049V253.346H112.045V257ZM128.172 255.2C128.172 255.644 128.394 255.866 128.838 255.866C129.03 255.866 129.252 255.824 129.504 255.74V256.91C129.144 257.042 128.784 257.108 128.424 257.108C127.596 257.108 127.068 256.76 126.84 256.064C125.916 256.832 124.794 257.216 123.474 257.216C122.634 257.216 121.914 256.994 121.314 256.55C120.726 256.094 120.432 255.44 120.432 254.588C120.432 253.568 120.81 252.83 121.566 252.374C122.334 251.906 123.258 251.672 124.338 251.672C125.13 251.672 125.928 251.762 126.732 251.942V251.636C126.732 250.976 126.516 250.454 126.084 250.07C125.652 249.674 125.046 249.476 124.266 249.476C123.174 249.476 122.124 249.692 121.116 250.124V248.72C122.244 248.336 123.342 248.144 124.41 248.144C125.586 248.144 126.504 248.462 127.164 249.098C127.836 249.722 128.172 250.628 128.172 251.816V255.2ZM121.908 254.516C121.908 254.996 122.088 255.362 122.448 255.614C122.82 255.854 123.264 255.974 123.78 255.974C124.968 255.974 125.952 255.554 126.732 254.714V253.13C125.916 252.962 125.184 252.878 124.536 252.878C123.804 252.878 123.18 253.01 122.664 253.274C122.16 253.526 121.908 253.94 121.908 254.516ZM134.109 249.692C134.049 250.64 133.977 251.468 133.893 252.176C133.809 252.884 133.689 253.568 133.533 254.228C133.377 254.876 133.185 255.404 132.957 255.812C132.741 256.22 132.465 256.544 132.129 256.784C131.793 257.024 131.409 257.144 130.977 257.144C130.629 257.144 130.281 257.078 129.933 256.946V255.812C130.125 255.884 130.317 255.92 130.509 255.92C131.229 255.92 131.751 255.29 132.075 254.03C132.411 252.758 132.621 250.868 132.705 248.36H139.059V257H137.619V249.692H134.109ZM142.493 256.01C141.581 255.194 141.125 254.084 141.125 252.68C141.125 251.276 141.581 250.172 142.493 249.368C143.405 248.552 144.485 248.144 145.733 248.144C146.993 248.144 148.073 248.552 148.973 249.368C149.885 250.172 150.341 251.276 150.341 252.68C150.341 254.084 149.885 255.194 148.973 256.01C148.073 256.814 146.993 257.216 145.733 257.216C144.485 257.216 143.405 256.814 142.493 256.01ZM148.001 255.002C148.601 254.426 148.901 253.652 148.901 252.68C148.901 251.708 148.601 250.94 148.001 250.376C147.401 249.8 146.645 249.512 145.733 249.512C144.821 249.512 144.065 249.8 143.465 250.376C142.865 250.94 142.565 251.708 142.565 252.68C142.565 253.652 142.865 254.426 143.465 255.002C144.065 255.566 144.821 255.848 145.733 255.848C146.645 255.848 147.401 255.566 148.001 255.002ZM153.846 257H152.406V248.36H158.724V249.692H153.846V257ZM169.476 257H167.964V252.23L163.014 244.4H164.688L168.72 250.88L172.752 244.4H174.426L169.476 252.23V257Z" fill="#454545"/>
<path d="M287.967 104.862V100.092H286.383V89.4H284.331V100.092H277.815V89.4H275.763V102H286.113L286.095 104.862H287.967ZM291.636 102H290.054V92.3496H291.636V102ZM289.931 89.7393C289.931 89.3877 290.019 89.1328 290.194 88.9746C290.376 88.8164 290.599 88.7373 290.862 88.7373C291.108 88.7373 291.322 88.8164 291.504 88.9746C291.691 89.1328 291.785 89.3877 291.785 89.7393C291.785 90.085 291.691 90.3398 291.504 90.5039C291.322 90.668 291.108 90.75 290.862 90.75C290.599 90.75 290.376 90.668 290.194 90.5039C290.019 90.3398 289.931 90.085 289.931 89.7393ZM296.297 102V98.526H300.617V102H302.543V93.36H300.617V96.834H296.297V93.36H294.371V102H296.297ZM312.315 100.002V96.906C312.315 94.296 310.767 93.126 308.319 93.126C306.933 93.126 305.691 93.468 305.007 93.702V95.466C305.781 95.124 306.843 94.8 308.121 94.8C309.597 94.8 310.389 95.556 310.389 96.636V96.942C309.705 96.798 308.877 96.69 308.139 96.69C306.339 96.69 304.287 97.374 304.287 99.588C304.287 101.37 305.745 102.234 307.311 102.234C308.661 102.234 309.723 101.802 310.569 101.118C310.875 101.82 311.505 102.126 312.297 102.126C312.729 102.126 313.161 102.054 313.521 101.91V100.524C313.341 100.578 313.143 100.632 312.945 100.632C312.603 100.632 312.315 100.488 312.315 100.002ZM308.517 98.04C309.129 98.04 309.867 98.148 310.389 98.256V99.714C309.705 100.398 308.805 100.74 307.887 100.74C307.023 100.74 306.267 100.308 306.267 99.462C306.267 98.382 307.419 98.04 308.517 98.04Z" fill="#454545"/>
<path d="M366.725 89.4H371.225C374.813 89.4 376.607 90.78 376.607 93.54C376.607 96.3 374.813 97.68 371.225 97.68H368.777V102H366.725V89.4ZM373.655 95.322C374.231 94.986 374.519 94.392 374.519 93.54C374.519 92.688 374.231 92.1 373.655 91.776C373.091 91.44 372.317 91.272 371.333 91.272H368.777V95.808H371.333C372.317 95.808 373.091 95.646 373.655 95.322ZM377.393 97.68C377.393 96.936 377.525 96.264 377.789 95.664C378.053 95.052 378.401 94.572 378.833 94.224C379.265 93.864 379.733 93.594 380.237 93.414C380.741 93.222 381.251 93.126 381.767 93.126C382.427 93.126 383.021 93.228 383.549 93.432C384.089 93.636 384.521 93.912 384.845 94.26C385.169 94.608 385.433 95.01 385.637 95.466C385.841 95.922 385.949 96.402 385.961 96.906C385.973 97.398 385.931 97.896 385.835 98.4H379.337C379.433 99.132 379.793 99.684 380.417 100.056C381.041 100.416 381.785 100.596 382.649 100.596C383.633 100.596 384.545 100.392 385.385 99.984V101.64C384.557 102.036 383.525 102.234 382.289 102.234C380.885 102.234 379.715 101.838 378.779 101.046C377.855 100.254 377.393 99.132 377.393 97.68ZM384.107 96.96C384.179 96.468 384.029 95.976 383.657 95.484C383.297 94.98 382.697 94.728 381.857 94.728C381.173 94.728 380.585 94.926 380.093 95.322C379.613 95.718 379.355 96.264 379.319 96.96H384.107ZM394.491 91.416C393.771 91.908 392.895 92.154 391.863 92.154C390.831 92.154 389.955 91.908 389.235 91.416V89.85C390.039 90.354 390.915 90.606 391.863 90.606C392.811 90.606 393.687 90.354 394.491 89.85V91.416ZM389.415 102H387.759V93.36H389.685V99.012L394.311 93.36H395.967V102H394.041V96.348L389.415 102ZM402.39 102H400.464V95.052H397.476V93.36H405.36V95.052H402.39V102ZM408.522 102H406.866V93.36H408.792V99.012L413.418 93.36H415.074V102H413.148V96.348L408.522 102ZM419.409 102H417.483V93.36H419.409V96.834H423.729V93.36H425.655V102H423.729V98.526H419.409V102ZM429.991 102H428.065V93.36H434.509V95.052H429.991V102Z" fill="#454545"/>
<path d="M483.762 102L484.878 99.282H491.196L492.312 102H494.472L489.162 89.4H486.912L481.584 102H483.762ZM487.794 92.1C487.866 91.902 487.938 91.704 488.028 91.398C488.118 91.704 488.19 91.902 488.262 92.1L490.476 97.482H485.58L487.794 92.1ZM497.703 102V98.418H499.089L501.933 102H504.147L500.673 97.644L503.805 93.36H501.609L499.125 96.78H497.703V93.36H495.777V102H497.703ZM514.68 104.322V100.344H513.384V93.36H511.458V100.308H507.336V93.36H505.41V102H512.862V104.322H514.68ZM518.354 102H516.772V92.3496H518.354V102ZM516.649 89.7393C516.649 89.3877 516.737 89.1328 516.913 88.9746C517.095 88.8164 517.317 88.7373 517.581 88.7373C517.827 88.7373 518.041 88.8164 518.223 88.9746C518.41 89.1328 518.504 89.3877 518.504 89.7393C518.504 90.085 518.41 90.3398 518.223 90.5039C518.041 90.668 517.827 90.75 517.581 90.75C517.317 90.75 517.095 90.668 516.913 90.5039C516.737 90.3398 516.649 90.085 516.649 89.7393ZM522.995 102H521.413V92.3496H522.995V102ZM519.708 89.7393C519.708 89.4287 519.79 89.2061 519.954 89.0713C520.118 88.9307 520.317 88.8604 520.552 88.8604C520.78 88.8604 520.979 88.9307 521.149 89.0713C521.319 89.2061 521.404 89.4287 521.404 89.7393C521.404 90.0498 521.319 90.2783 521.149 90.4248C520.979 90.5713 520.78 90.6445 520.552 90.6445C520.317 90.6445 520.118 90.5713 519.954 90.4248C519.79 90.2783 519.708 90.0498 519.708 89.7393ZM523.092 89.7393C523.092 89.4287 523.174 89.2061 523.338 89.0713C523.502 88.9307 523.695 88.8604 523.918 88.8604C524.146 88.8604 524.346 88.9307 524.516 89.0713C524.686 89.2061 524.771 89.4287 524.771 89.7393C524.771 90.0498 524.686 90.2783 524.516 90.4248C524.346 90.5713 524.146 90.6445 523.918 90.6445C523.695 90.6445 523.502 90.5713 523.338 90.4248C523.174 90.2783 523.092 90.0498 523.092 89.7393Z" fill="#454545"/>
<path d="M276.108 127.76H277.224V138.56H279.51V140H273.138V138.56H275.712V129.362L273.138 130.334V128.894L276.108 127.76ZM285.624 128.732C286.764 127.94 288.072 127.544 289.548 127.544C290.82 127.544 291.834 127.832 292.59 128.408C293.346 128.984 293.724 129.788 293.724 130.82C293.724 131.312 293.628 131.774 293.436 132.206C293.256 132.638 292.98 133.034 292.608 133.394C292.248 133.754 291.894 134.06 291.546 134.312C291.21 134.552 290.784 134.822 290.268 135.122C290.208 135.158 290.022 135.266 289.71 135.446C289.41 135.626 289.218 135.74 289.134 135.788C289.062 135.836 288.894 135.944 288.63 136.112C288.378 136.268 288.21 136.382 288.126 136.454C288.054 136.526 287.922 136.64 287.73 136.796C287.55 136.952 287.424 137.084 287.352 137.192C287.292 137.3 287.208 137.438 287.1 137.606C287.004 137.762 286.938 137.918 286.902 138.074C286.866 138.23 286.848 138.398 286.848 138.578L293.814 138.56V140H285.192V139.28C285.192 138.608 285.3 138.002 285.516 137.462C285.732 136.91 286.038 136.442 286.434 136.058C286.842 135.662 287.244 135.332 287.64 135.068C288.036 134.792 288.498 134.498 289.026 134.186C289.146 134.126 289.236 134.078 289.296 134.042C290.388 133.406 291.102 132.92 291.438 132.584C291.954 132.056 292.212 131.462 292.212 130.802C292.212 130.202 291.966 129.746 291.474 129.434C290.994 129.11 290.31 128.948 289.422 128.948C288.126 128.948 286.86 129.38 285.624 130.244V128.732ZM296.428 127.76H303.772V129.2H297.85L297.634 132.656C298.282 132.476 298.978 132.386 299.722 132.386C300.334 132.386 300.904 132.458 301.432 132.602C301.96 132.734 302.446 132.95 302.89 133.25C303.346 133.538 303.706 133.946 303.97 134.474C304.234 134.99 304.366 135.602 304.366 136.31C304.366 137.522 303.916 138.476 303.016 139.172C302.128 139.868 300.994 140.216 299.614 140.216C298.126 140.216 296.818 139.94 295.69 139.388V137.948C296.77 138.524 298.018 138.812 299.434 138.812C300.466 138.812 301.288 138.596 301.9 138.164C302.524 137.732 302.836 137.114 302.836 136.31C302.836 134.606 301.624 133.754 299.2 133.754C298.144 133.754 297.088 133.946 296.032 134.33L296.428 127.76ZM307.446 138.47C306.534 137.306 306.078 135.776 306.078 133.88C306.078 131.984 306.534 130.454 307.446 129.29C308.358 128.126 309.702 127.544 311.478 127.544C313.266 127.544 314.616 128.126 315.528 129.29C316.44 130.442 316.896 131.972 316.896 133.88C316.896 135.788 316.44 137.324 315.528 138.488C314.616 139.64 313.266 140.216 311.478 140.216C309.702 140.216 308.358 139.634 307.446 138.47ZM314.394 137.516C315.042 136.664 315.366 135.452 315.366 133.88C315.366 132.308 315.042 131.102 314.394 130.262C313.758 129.41 312.786 128.984 311.478 128.984C310.17 128.984 309.198 129.41 308.562 130.262C307.926 131.102 307.608 132.308 307.608 133.88C307.608 135.452 307.926 136.664 308.562 137.516C309.198 138.356 310.17 138.776 311.478 138.776C312.786 138.776 313.758 138.356 314.394 137.516Z" fill="#454545"/>
<path d="M275.07 166.76H276.186V177.56H278.472V179H272.1V177.56H274.674V168.362L272.1 169.334V167.894L275.07 166.76ZM285.829 172.538C286.993 171.758 288.271 171.368 289.663 171.368C290.779 171.368 291.757 171.71 292.597 172.394C293.437 173.066 293.857 174.002 293.857 175.202C293.857 176.462 293.437 177.446 292.597 178.154C291.769 178.862 290.725 179.216 289.465 179.216C287.737 179.216 286.441 178.682 285.577 177.614C284.725 176.534 284.299 175.022 284.299 173.078C284.299 170.918 284.809 169.292 285.829 168.2C286.861 167.096 288.205 166.544 289.861 166.544C290.929 166.544 291.919 166.778 292.831 167.246V168.686C291.943 168.218 290.965 167.984 289.897 167.984C288.769 167.984 287.827 168.35 287.071 169.082C286.327 169.802 285.913 170.954 285.829 172.538ZM285.847 174.05C286.075 176.558 287.245 177.812 289.357 177.812C290.245 177.812 290.959 177.608 291.499 177.2C292.051 176.792 292.327 176.15 292.327 175.274C292.327 174.386 292.045 173.75 291.481 173.366C290.917 172.97 290.185 172.772 289.285 172.772C287.953 172.772 286.807 173.198 285.847 174.05ZM295.857 169.712C295.857 168.848 296.235 168.104 296.991 167.48C297.747 166.856 298.857 166.544 300.321 166.544C301.677 166.544 302.769 166.874 303.597 167.534C304.425 168.194 304.851 168.986 304.875 169.91C304.911 171.17 304.353 172.202 303.201 173.006C304.605 173.702 305.307 174.662 305.307 175.886C305.307 176.822 304.893 177.614 304.065 178.262C303.249 178.898 302.037 179.216 300.429 179.216C298.833 179.216 297.597 178.868 296.721 178.172C295.857 177.476 295.425 176.63 295.425 175.634C295.425 175.034 295.599 174.44 295.947 173.852C296.307 173.252 296.829 172.748 297.513 172.34C296.409 171.668 295.857 170.792 295.857 169.712ZM300.501 173.492C299.877 173.324 299.307 173.144 298.791 172.952C298.191 173.24 297.729 173.612 297.405 174.068C297.093 174.524 296.937 174.992 296.937 175.472C296.937 176.204 297.237 176.78 297.837 177.2C298.449 177.608 299.325 177.812 300.465 177.812C301.425 177.812 302.217 177.644 302.841 177.308C303.477 176.96 303.795 176.51 303.795 175.958C303.795 175.49 303.627 175.094 303.291 174.77C302.967 174.434 302.649 174.206 302.337 174.086C302.025 173.966 301.509 173.798 300.789 173.582C300.657 173.546 300.561 173.516 300.501 173.492ZM303.363 170.18C303.363 169.544 303.093 169.016 302.553 168.596C302.013 168.164 301.257 167.948 300.285 167.948C299.397 167.948 298.689 168.116 298.161 168.452C297.633 168.776 297.369 169.19 297.369 169.694C297.369 170.042 297.441 170.348 297.585 170.612C297.741 170.864 297.969 171.08 298.269 171.26C298.581 171.428 298.863 171.566 299.115 171.674C299.367 171.77 299.703 171.878 300.123 171.998C300.171 172.01 300.207 172.022 300.231 172.034C300.255 172.034 300.285 172.04 300.321 172.052C300.357 172.064 300.393 172.076 300.429 172.088C300.465 172.1 300.669 172.16 301.041 172.268C301.425 172.364 301.719 172.442 301.923 172.502C302.883 171.878 303.363 171.104 303.363 170.18ZM308.483 177.47C307.571 176.306 307.115 174.776 307.115 172.88C307.115 170.984 307.571 169.454 308.483 168.29C309.395 167.126 310.739 166.544 312.515 166.544C314.303 166.544 315.653 167.126 316.565 168.29C317.477 169.442 317.933 170.972 317.933 172.88C317.933 174.788 317.477 176.324 316.565 177.488C315.653 178.64 314.303 179.216 312.515 179.216C310.739 179.216 309.395 178.634 308.483 177.47ZM315.431 176.516C316.079 175.664 316.403 174.452 316.403 172.88C316.403 171.308 316.079 170.102 315.431 169.262C314.795 168.41 313.823 167.984 312.515 167.984C311.207 167.984 310.235 168.41 309.599 169.262C308.963 170.102 308.645 171.308 308.645 172.88C308.645 174.452 308.963 175.664 309.599 176.516C310.235 177.356 311.207 177.776 312.515 177.776C313.823 177.776 314.795 177.356 315.431 176.516Z" fill="#454545"/>
<path d="M276.292 205.76H277.408V216.56H279.694V218H273.322V216.56H275.896V207.362L273.322 208.334V206.894L276.292 205.76ZM288.509 205.76H289.625V216.56H291.911V218H285.539V216.56H288.113V207.362L285.539 208.334V206.894L288.509 205.76ZM294.605 216.47C293.693 215.306 293.237 213.776 293.237 211.88C293.237 209.984 293.693 208.454 294.605 207.29C295.517 206.126 296.861 205.544 298.637 205.544C300.425 205.544 301.775 206.126 302.687 207.29C303.599 208.442 304.055 209.972 304.055 211.88C304.055 213.788 303.599 215.324 302.687 216.488C301.775 217.64 300.425 218.216 298.637 218.216C296.861 218.216 295.517 217.634 294.605 216.47ZM301.553 215.516C302.201 214.664 302.525 213.452 302.525 211.88C302.525 210.308 302.201 209.102 301.553 208.262C300.917 207.41 299.945 206.984 298.637 206.984C297.329 206.984 296.357 207.41 295.721 208.262C295.085 209.102 294.767 210.308 294.767 211.88C294.767 213.452 295.085 214.664 295.721 215.516C296.357 216.356 297.329 216.776 298.637 216.776C299.945 216.776 300.917 216.356 301.553 215.516ZM307.262 216.47C306.35 215.306 305.894 213.776 305.894 211.88C305.894 209.984 306.35 208.454 307.262 207.29C308.174 206.126 309.518 205.544 311.294 205.544C313.082 205.544 314.432 206.126 315.344 207.29C316.256 208.442 316.712 209.972 316.712 211.88C316.712 213.788 316.256 215.324 315.344 216.488C314.432 217.64 313.082 218.216 311.294 218.216C309.518 218.216 308.174 217.634 307.262 216.47ZM314.21 215.516C314.858 214.664 315.182 213.452 315.182 211.88C315.182 210.308 314.858 209.102 314.21 208.262C313.574 207.41 312.602 206.984 311.294 206.984C309.986 206.984 309.014 207.41 308.378 208.262C307.742 209.102 307.424 210.308 307.424 211.88C307.424 213.452 307.742 214.664 308.378 215.516C309.014 216.356 309.986 216.776 311.294 216.776C312.602 216.776 313.574 216.356 314.21 215.516Z" fill="#454545"/>
<path d="M276.019 244.76H277.135V255.56H279.421V257H273.049V255.56H275.623V246.362L273.049 247.334V245.894L276.019 244.76ZM291.44 244.76H293.078V252.878H295.382V254.282H293.078V257H291.584V254.282H284.762V252.932L291.44 244.76ZM291.584 252.878V246.794L286.616 252.878H291.584ZM297.137 245.732C298.277 244.94 299.585 244.544 301.061 244.544C302.333 244.544 303.347 244.832 304.103 245.408C304.859 245.984 305.237 246.788 305.237 247.82C305.237 248.312 305.141 248.774 304.949 249.206C304.769 249.638 304.493 250.034 304.121 250.394C303.761 250.754 303.407 251.06 303.059 251.312C302.723 251.552 302.297 251.822 301.781 252.122C301.721 252.158 301.535 252.266 301.223 252.446C300.923 252.626 300.731 252.74 300.647 252.788C300.575 252.836 300.407 252.944 300.143 253.112C299.891 253.268 299.723 253.382 299.639 253.454C299.567 253.526 299.435 253.64 299.243 253.796C299.063 253.952 298.937 254.084 298.865 254.192C298.805 254.3 298.721 254.438 298.613 254.606C298.517 254.762 298.451 254.918 298.415 255.074C298.379 255.23 298.361 255.398 298.361 255.578L305.327 255.56V257H296.705V256.28C296.705 255.608 296.813 255.002 297.029 254.462C297.245 253.91 297.551 253.442 297.947 253.058C298.355 252.662 298.757 252.332 299.153 252.068C299.549 251.792 300.011 251.498 300.539 251.186C300.659 251.126 300.749 251.078 300.809 251.042C301.901 250.406 302.615 249.92 302.951 249.584C303.467 249.056 303.725 248.462 303.725 247.802C303.725 247.202 303.479 246.746 302.987 246.434C302.507 246.11 301.823 245.948 300.935 245.948C299.639 245.948 298.373 246.38 297.137 247.244V245.732ZM308.535 255.47C307.623 254.306 307.167 252.776 307.167 250.88C307.167 248.984 307.623 247.454 308.535 246.29C309.447 245.126 310.791 244.544 312.567 244.544C314.355 244.544 315.705 245.126 316.617 246.29C317.529 247.442 317.985 248.972 317.985 250.88C317.985 252.788 317.529 254.324 316.617 255.488C315.705 256.64 314.355 257.216 312.567 257.216C310.791 257.216 309.447 256.634 308.535 255.47ZM315.483 254.516C316.131 253.664 316.455 252.452 316.455 250.88C316.455 249.308 316.131 248.102 315.483 247.262C314.847 246.41 313.875 245.984 312.567 245.984C311.259 245.984 310.287 246.41 309.651 247.262C309.015 248.102 308.697 249.308 308.697 250.88C308.697 252.452 309.015 253.664 309.651 254.516C310.287 255.356 311.259 255.776 312.567 255.776C313.875 255.776 314.847 255.356 315.483 254.516Z" fill="#454545"/>
<rect x="468.5" y="125.5" width="71" height="19" rx="9.5" fill="#FFE6E4" stroke="#F64810"/>
<path d="M488.9 135.72C488.9 134.412 488.012 133.776 487.196 133.584C487.988 133.32 488.564 132.672 488.564 131.7C488.564 130.176 487.22 129.444 485.348 129.444C484.4 129.444 483.524 129.6 482.612 129.984V131.328C483.572 130.872 484.376 130.704 485.24 130.716C486.416 130.716 487.172 131.028 487.172 131.892C487.172 132.648 486.5 133.032 485.48 133.032H483.8V134.28H485.6C486.56 134.28 487.508 134.544 487.508 135.552C487.508 136.62 486.44 136.884 485.408 136.884C484.424 136.896 483.476 136.764 482.468 136.284V137.616C483.488 138 484.448 138.156 485.516 138.156C487.124 138.156 488.9 137.568 488.9 135.72ZM491.424 138V135.684H494.304V138H495.588V132.24H494.304V134.556H491.424V132.24H490.14V138H491.424ZM498.299 138L501.383 134.232V138H502.667V132.24H501.563L498.479 136.008V132.24H497.195V138H498.299ZM512.661 138L510.513 135.108L512.433 132.24H511.041L509.469 134.616H508.737V132.24H507.453V134.616H506.733L505.161 132.24H503.757L505.689 135.108L503.541 138H504.945L506.661 135.708H507.453V138H508.737V135.708H509.541L511.257 138H512.661ZM514.815 138V135.612H515.739L517.635 138H519.111L516.795 135.096L518.883 132.24H517.419L515.763 134.52H514.815V132.24H513.531V138H514.815ZM524.802 136.668V134.604C524.802 132.864 523.77 132.084 522.138 132.084C521.214 132.084 520.386 132.312 519.93 132.468V133.644C520.446 133.416 521.154 133.2 522.006 133.2C522.99 133.2 523.518 133.704 523.518 134.424V134.628C523.062 134.532 522.51 134.46 522.018 134.46C520.818 134.46 519.45 134.916 519.45 136.392C519.45 137.58 520.422 138.156 521.466 138.156C522.366 138.156 523.074 137.868 523.638 137.412C523.842 137.88 524.262 138.084 524.79 138.084C525.078 138.084 525.366 138.036 525.606 137.94V137.016C525.486 137.052 525.354 137.088 525.222 137.088C524.994 137.088 524.802 136.992 524.802 136.668ZM522.27 135.36C522.678 135.36 523.17 135.432 523.518 135.504V136.476C523.062 136.932 522.462 137.16 521.85 137.16C521.274 137.16 520.77 136.872 520.77 136.308C520.77 135.588 521.538 135.36 522.27 135.36Z" fill="#F64810"/>
<rect x="463.5" y="203.5" width="81" height="19" rx="9.5" fill="#F5FFEE" stroke="#80DA39"/>
<path d="M473.388 217V209.86H477.708V217H479.076V208.6H472.02V217H473.388ZM480.397 214.12C480.397 216.112 481.909 217.156 483.517 217.156C485.137 217.156 486.637 216.112 486.637 214.12C486.637 212.128 485.137 211.084 483.517 211.084C481.909 211.084 480.397 212.128 480.397 214.12ZM485.329 214.12C485.329 215.248 484.585 215.98 483.517 215.98C482.437 215.98 481.693 215.248 481.693 214.12C481.693 212.992 482.437 212.26 483.517 212.26C484.585 212.26 485.329 212.992 485.329 214.12ZM488.438 218.548V217H493.07V218.548H494.282V215.944H493.43V211.24H488.93C488.954 213.244 488.714 214.708 488.018 215.944H487.226V218.548H488.438ZM490.13 212.296H492.134V215.944H489.362C489.842 214.924 490.082 213.844 490.13 212.296ZM500.36 215.668V213.604C500.36 211.864 499.328 211.084 497.696 211.084C496.772 211.084 495.944 211.312 495.488 211.468V212.644C496.004 212.416 496.712 212.2 497.564 212.2C498.548 212.2 499.076 212.704 499.076 213.424V213.628C498.62 213.532 498.068 213.46 497.576 213.46C496.376 213.46 495.008 213.916 495.008 215.392C495.008 216.58 495.98 217.156 497.024 217.156C497.924 217.156 498.632 216.868 499.196 216.412C499.4 216.88 499.82 217.084 500.348 217.084C500.636 217.084 500.924 217.036 501.164 216.94V216.016C501.044 216.052 500.912 216.088 500.78 216.088C500.552 216.088 500.36 215.992 500.36 215.668ZM497.828 214.36C498.236 214.36 498.728 214.432 499.076 214.504V215.476C498.62 215.932 498.02 216.16 497.408 216.16C496.832 216.16 496.328 215.872 496.328 215.308C496.328 214.588 497.096 214.36 497.828 214.36ZM503.272 212.14V211.24H502.132V219.64H503.416V216.256C503.812 216.712 504.484 217.156 505.492 217.156C507.22 217.156 508.348 215.776 508.348 214.12C508.348 212.464 507.22 211.084 505.492 211.084C504.412 211.084 503.728 211.588 503.272 212.14ZM507.04 214.12C507.04 215.248 506.296 216.028 505.252 216.028C504.364 216.028 503.692 215.452 503.416 214.816V213.412C503.692 212.788 504.364 212.212 505.252 212.212C506.296 212.212 507.04 212.992 507.04 214.12ZM511.966 215.584L510.022 211.24H508.654L511.39 217.048L511.27 217.336C510.934 218.236 510.466 218.68 509.842 218.68C509.65 218.68 509.446 218.656 509.254 218.596V219.688C509.506 219.748 509.758 219.784 510.01 219.784C510.886 219.784 511.702 219.28 512.326 217.78L515.026 211.24H513.682L511.966 215.584ZM517.268 217V214.684H520.148V217H521.432V211.24H520.148V213.556H517.268V211.24H515.984V217H517.268ZM522.678 214.12C522.678 216.112 524.19 217.156 525.798 217.156C527.418 217.156 528.918 216.112 528.918 214.12C528.918 212.128 527.418 211.084 525.798 211.084C524.19 211.084 522.678 212.128 522.678 214.12ZM527.61 214.12C527.61 215.248 526.866 215.98 525.798 215.98C524.718 215.98 523.974 215.248 523.974 214.12C523.974 212.992 524.718 212.26 525.798 212.26C526.866 212.26 527.61 212.992 527.61 214.12ZM531.447 217V214.612H532.371L534.267 217H535.743L533.427 214.096L535.515 211.24H534.051L532.395 213.52H531.447V211.24H530.163V217H531.447Z" fill="#80DA39"/>
<path d="M362 127L364.821 131.117L369.608 132.528L366.565 136.483L366.702 141.472L362 139.8L357.298 141.472L357.435 136.483L354.392 132.528L359.179 131.117L362 127Z" fill="#F28100"/>
<path d="M381 127L383.821 131.117L388.608 132.528L385.565 136.483L385.702 141.472L381 139.8L376.298 141.472L376.435 136.483L373.392 132.528L378.179 131.117L381 127Z" fill="#F28100"/>
<path d="M400 127L402.821 131.117L407.608 132.528L404.565 136.483L404.702 141.472L400 139.8L395.298 141.472L395.435 136.483L392.392 132.528L397.179 131.117L400 127Z" fill="#F28100"/>
<path d="M419 127L421.821 131.117L426.608 132.528L423.565 136.483L423.702 141.472L419 139.8L414.298 141.472L414.435 136.483L411.392 132.528L416.179 131.117L419 127Z" fill="#F28100"/>
<path d="M438 127L440.821 131.117L445.608 132.528L442.565 136.483L442.702 141.472L438 139.8L433.298 141.472L433.435 136.483L430.392 132.528L435.179 131.117L438 127Z" fill="#D5D5E4"/>
<path d="M362 204L364.821 208.117L369.608 209.528L366.565 213.483L366.702 218.472L362 216.8L357.298 218.472L357.435 213.483L354.392 209.528L359.179 208.117L362 204Z" fill="#F28100"/>
<path d="M381 204L383.821 208.117L388.608 209.528L385.565 213.483L385.702 218.472L381 216.8L376.298 218.472L376.435 213.483L373.392 209.528L378.179 208.117L381 204Z" fill="#F28100"/>
<path d="M400 204L402.821 208.117L407.608 209.528L404.565 213.483L404.702 218.472L400 216.8L395.298 218.472L395.435 213.483L392.392 209.528L397.179 208.117L400 204Z" fill="#F28100"/>
<path d="M419 204L421.821 208.117L426.608 209.528L423.565 213.483L423.702 218.472L419 216.8L414.298 218.472L414.435 213.483L411.392 209.528L416.179 208.117L419 204Z" fill="#F28100"/>
<path d="M438 204L440.821 208.117L445.608 209.528L442.565 213.483L442.702 218.472L438 216.8L433.298 218.472L433.435 213.483L430.392 209.528L435.179 208.117L438 204Z" fill="#D5D5E4"/>
<path d="M362 166L364.821 170.117L369.608 171.528L366.565 175.483L366.702 180.472L362 178.8L357.298 180.472L357.435 175.483L354.392 171.528L359.179 170.117L362 166Z" fill="#F28100"/>
<path d="M381 166L383.821 170.117L388.608 171.528L385.565 175.483L385.702 180.472L381 178.8L376.298 180.472L376.435 175.483L373.392 171.528L378.179 170.117L381 166Z" fill="#F28100"/>
<path d="M400 166L402.821 170.117L407.608 171.528L404.565 175.483L404.702 180.472L400 178.8L395.298 180.472L395.435 175.483L392.392 171.528L397.179 170.117L400 166Z" fill="#D5D5E4"/>
<path d="M419 166L421.821 170.117L426.608 171.528L423.565 175.483L423.702 180.472L419 178.8L414.298 180.472L414.435 175.483L411.392 171.528L416.179 170.117L419 166Z" fill="#D5D5E4"/>
<path d="M438 166L440.821 170.117L445.608 171.528L442.565 175.483L442.702 180.472L438 178.8L433.298 180.472L433.435 175.483L430.392 171.528L435.179 170.117L438 166Z" fill="#D5D5E4"/>
<path d="M362 242L364.821 246.117L369.608 247.528L366.565 251.483L366.702 256.472L362 254.8L357.298 256.472L357.435 251.483L354.392 247.528L359.179 246.117L362 242Z" fill="#F28100"/>
<path d="M381 242L383.821 246.117L388.608 247.528L385.565 251.483L385.702 256.472L381 254.8L376.298 256.472L376.435 251.483L373.392 247.528L378.179 246.117L381 242Z" fill="#F28100"/>
<path d="M400 242L402.821 246.117L407.608 247.528L404.565 251.483L404.702 256.472L400 254.8L395.298 256.472L395.435 251.483L392.392 247.528L397.179 246.117L400 242Z" fill="#D5D5E4"/>
<path d="M419 242L421.821 246.117L426.608 247.528L423.565 251.483L423.702 256.472L419 254.8L414.298 256.472L414.435 251.483L411.392 247.528L416.179 246.117L419 242Z" fill="#D5D5E4"/>
<path d="M438 242L440.821 246.117L445.608 247.528L442.565 251.483L442.702 256.472L438 254.8L433.298 256.472L433.435 251.483L430.392 247.528L435.179 246.117L438 242Z" fill="#D5D5E4"/>
<defs>
<filter id="filter0_d_803_857" x="0" y="0" width="632" height="361" filterUnits="userSpaceOnUse" color-interpolation-filters="sRGB">
<feFlood flood-opacity="0" result="BackgroundImageFix"/>
<feColorMatrix in="SourceAlpha" type="matrix" values="0 0 0 0 0 0 0 0 0 0 0 0 0 0 0 0 0 0 127 0" result="hardAlpha"/>
<feOffset dy="4"/>
<feGaussianBlur stdDeviation="25"/>
<feComposite in2="hardAlpha" operator="out"/>
<feColorMatrix type="matrix" values="0 0 0 0 0 0 0 0 0 0 0 0 0 0 0 0 0 0 0.1 0"/>
<feBlend mode="normal" in2="BackgroundImageFix" result="effect1_dropShadow_803_857"/>
<feBlend mode="normal" in="SourceGraphic" in2="effect1_dropShadow_803_857" result="shape"/>
</filter>
</defs>
</svg>
