<svg width="619" height="323" viewBox="0 0 619 323" fill="none" xmlns="http://www.w3.org/2000/svg">
<rect width="619" height="323" rx="20" fill="white"/>
<g clip-path="url(#clip0_1720_2567)">
<g clip-path="url(#clip1_1720_2567)">
<rect x="24" y="25" width="145" height="48" fill="#F9F9FB"/>
<path d="M43.032 55V44.776L43.432 45.192H39.208V43.8H48.44V45.192H44.216L44.6 44.776V55H43.032ZM52.8856 55.096C52.0323 55.096 51.275 54.9093 50.6136 54.536C49.9523 54.1627 49.4296 53.6507 49.0456 53C48.6616 52.3387 48.4696 51.592 48.4696 50.76C48.4696 49.9173 48.6616 49.1707 49.0456 48.52C49.4296 47.8693 49.9523 47.3627 50.6136 47C51.275 46.6267 52.0323 46.44 52.8856 46.44C53.7283 46.44 54.4803 46.6267 55.1416 47C55.8136 47.3627 56.3363 47.8693 56.7096 48.52C57.0936 49.16 57.2856 49.9067 57.2856 50.76C57.2856 51.6027 57.0936 52.3493 56.7096 53C56.3363 53.6507 55.8136 54.1627 55.1416 54.536C54.4803 54.9093 53.7283 55.096 52.8856 55.096ZM52.8856 53.752C53.4296 53.752 53.915 53.6293 54.3416 53.384C54.779 53.1387 55.1203 52.792 55.3656 52.344C55.611 51.8853 55.7336 51.3573 55.7336 50.76C55.7336 50.152 55.611 49.6293 55.3656 49.192C55.1203 48.744 54.779 48.3973 54.3416 48.152C53.915 47.9067 53.4296 47.784 52.8856 47.784C52.3416 47.784 51.8563 47.9067 51.4296 48.152C51.003 48.3973 50.6616 48.744 50.4056 49.192C50.1496 49.6293 50.0216 50.152 50.0216 50.76C50.0216 51.3573 50.1496 51.8853 50.4056 52.344C50.6616 52.792 51.003 53.1387 51.4296 53.384C51.8563 53.6293 52.3416 53.752 52.8856 53.752ZM59.5036 55V46.52H63.4396C64.4316 46.52 65.2103 46.712 65.7756 47.096C66.3516 47.4693 66.6396 48.0027 66.6396 48.696C66.6396 49.3893 66.3676 49.928 65.8236 50.312C65.2903 50.6853 64.581 50.872 63.6956 50.872L63.9356 50.456C64.949 50.456 65.701 50.6427 66.1916 51.016C66.6823 51.3893 66.9276 51.9387 66.9276 52.664C66.9276 53.4 66.6503 53.976 66.0956 54.392C65.5516 54.7973 64.7143 55 63.5836 55H59.5036ZM61.0076 53.816H63.4716C64.1116 53.816 64.5916 53.72 64.9116 53.528C65.2316 53.3253 65.3916 53.0053 65.3916 52.568C65.3916 52.12 65.2423 51.7947 64.9436 51.592C64.6556 51.3787 64.197 51.272 63.5676 51.272H61.0076V53.816ZM61.0076 50.168H63.3116C63.8983 50.168 64.341 50.0613 64.6396 49.848C64.949 49.624 65.1036 49.3147 65.1036 48.92C65.1036 48.5147 64.949 48.2107 64.6396 48.008C64.341 47.8053 63.8983 47.704 63.3116 47.704H61.0076V50.168ZM74.5318 55V53.208L74.4518 52.872V49.816C74.4518 49.1653 74.2598 48.664 73.8758 48.312C73.5024 47.9493 72.9371 47.768 72.1798 47.768C71.6784 47.768 71.1878 47.8533 70.7078 48.024C70.2278 48.184 69.8224 48.4027 69.4918 48.68L68.8518 47.528C69.2891 47.176 69.8118 46.9093 70.4198 46.728C71.0384 46.536 71.6838 46.44 72.3558 46.44C73.5184 46.44 74.4144 46.7227 75.0438 47.288C75.6731 47.8533 75.9878 48.7173 75.9878 49.88V55H74.5318ZM71.7478 55.096C71.1184 55.096 70.5638 54.9893 70.0838 54.776C69.6144 54.5627 69.2518 54.2693 68.9958 53.896C68.7398 53.512 68.6118 53.08 68.6118 52.6C68.6118 52.1413 68.7184 51.7253 68.9318 51.352C69.1558 50.9787 69.5131 50.68 70.0038 50.456C70.5051 50.232 71.1771 50.12 72.0198 50.12H74.7078V51.224H72.0838C71.3158 51.224 70.7984 51.352 70.5318 51.608C70.2651 51.864 70.1318 52.1733 70.1318 52.536C70.1318 52.952 70.2971 53.288 70.6278 53.544C70.9584 53.7893 71.4171 53.912 72.0038 53.912C72.5798 53.912 73.0811 53.784 73.5078 53.528C73.9451 53.272 74.2598 52.8987 74.4518 52.408L74.7558 53.464C74.5531 53.9653 74.1958 54.3653 73.6838 54.664C73.1718 54.952 72.5264 55.096 71.7478 55.096ZM83.2496 55.096C82.5456 55.096 81.9003 54.936 81.3136 54.616C80.7376 54.2853 80.2736 53.8 79.9216 53.16C79.5803 52.52 79.4096 51.72 79.4096 50.76C79.4096 49.8 79.575 49 79.9056 48.36C80.247 47.72 80.7056 47.24 81.2816 46.92C81.8683 46.6 82.5243 46.44 83.2496 46.44C84.0816 46.44 84.8176 46.6213 85.4576 46.984C86.0976 47.3467 86.6043 47.8533 86.9776 48.504C87.351 49.144 87.5376 49.896 87.5376 50.76C87.5376 51.624 87.351 52.3813 86.9776 53.032C86.6043 53.6827 86.0976 54.1893 85.4576 54.552C84.8176 54.9147 84.0816 55.096 83.2496 55.096ZM78.7536 58.104V46.52H80.2256V48.808L80.1296 50.776L80.2896 52.744V58.104H78.7536ZM83.1216 53.752C83.6656 53.752 84.151 53.6293 84.5776 53.384C85.015 53.1387 85.3563 52.792 85.6016 52.344C85.8576 51.8853 85.9856 51.3573 85.9856 50.76C85.9856 50.152 85.8576 49.6293 85.6016 49.192C85.3563 48.744 85.015 48.3973 84.5776 48.152C84.151 47.9067 83.6656 47.784 83.1216 47.784C82.5883 47.784 82.103 47.9067 81.6656 48.152C81.239 48.3973 80.8976 48.744 80.6416 49.192C80.3963 49.6293 80.2736 50.152 80.2736 50.76C80.2736 51.3573 80.3963 51.8853 80.6416 52.344C80.8976 52.792 81.239 53.1387 81.6656 53.384C82.103 53.6293 82.5883 53.752 83.1216 53.752ZM89.7693 55V46.52H91.3053V52.696L96.5052 46.52H97.8973V55H96.3612V48.824L91.1773 55H89.7693Z" fill="#454545"/>
<rect x="24" y="25" width="145" height="48" stroke="#DDDDE6" stroke-width="2"/>
<rect x="169" y="25" width="145" height="48" fill="#F9F9FB"/>
<path d="M207.744 55V43.8H212.56C213.776 43.8 214.731 44.0453 215.424 44.536C216.117 45.0267 216.464 45.7413 216.464 46.68C216.464 47.5973 216.133 48.3013 215.472 48.792C214.811 49.272 213.941 49.512 212.864 49.512L213.152 49.032C214.4 49.032 215.355 49.2827 216.016 49.784C216.688 50.2747 217.024 50.9947 217.024 51.944C217.024 52.904 216.672 53.656 215.968 54.2C215.275 54.7333 214.24 55 212.864 55H207.744ZM209.328 53.736H212.832C213.685 53.736 214.325 53.5813 214.752 53.272C215.189 52.952 215.408 52.4667 215.408 51.816C215.408 51.1653 215.189 50.6907 214.752 50.392C214.325 50.0933 213.685 49.944 212.832 49.944H209.328V53.736ZM209.328 48.728H212.448C213.227 48.728 213.819 48.5733 214.224 48.264C214.64 47.9547 214.848 47.5013 214.848 46.904C214.848 46.296 214.64 45.8373 214.224 45.528C213.819 45.2187 213.227 45.064 212.448 45.064H209.328V48.728ZM224.641 55V53.208L224.561 52.872V49.816C224.561 49.1653 224.369 48.664 223.985 48.312C223.612 47.9493 223.046 47.768 222.289 47.768C221.788 47.768 221.297 47.8533 220.817 48.024C220.337 48.184 219.932 48.4027 219.601 48.68L218.961 47.528C219.398 47.176 219.921 46.9093 220.529 46.728C221.148 46.536 221.793 46.44 222.465 46.44C223.628 46.44 224.524 46.7227 225.153 47.288C225.782 47.8533 226.097 48.7173 226.097 49.88V55H224.641ZM221.857 55.096C221.228 55.096 220.673 54.9893 220.193 54.776C219.724 54.5627 219.361 54.2693 219.105 53.896C218.849 53.512 218.721 53.08 218.721 52.6C218.721 52.1413 218.828 51.7253 219.041 51.352C219.265 50.9787 219.622 50.68 220.113 50.456C220.614 50.232 221.286 50.12 222.129 50.12H224.817V51.224H222.193C221.425 51.224 220.908 51.352 220.641 51.608C220.374 51.864 220.241 52.1733 220.241 52.536C220.241 52.952 220.406 53.288 220.737 53.544C221.068 53.7893 221.526 53.912 222.113 53.912C222.689 53.912 223.19 53.784 223.617 53.528C224.054 53.272 224.369 52.8987 224.561 52.408L224.865 53.464C224.662 53.9653 224.305 54.3653 223.793 54.664C223.281 54.952 222.636 55.096 221.857 55.096ZM233.359 55.096C232.655 55.096 232.01 54.936 231.423 54.616C230.847 54.2853 230.383 53.8 230.031 53.16C229.69 52.52 229.519 51.72 229.519 50.76C229.519 49.8 229.684 49 230.015 48.36C230.356 47.72 230.815 47.24 231.391 46.92C231.978 46.6 232.634 46.44 233.359 46.44C234.191 46.44 234.927 46.6213 235.567 46.984C236.207 47.3467 236.714 47.8533 237.087 48.504C237.46 49.144 237.647 49.896 237.647 50.76C237.647 51.624 237.46 52.3813 237.087 53.032C236.714 53.6827 236.207 54.1893 235.567 54.552C234.927 54.9147 234.191 55.096 233.359 55.096ZM228.863 58.104V46.52H230.335V48.808L230.239 50.776L230.399 52.744V58.104H228.863ZM233.231 53.752C233.775 53.752 234.26 53.6293 234.687 53.384C235.124 53.1387 235.466 52.792 235.711 52.344C235.967 51.8853 236.095 51.3573 236.095 50.76C236.095 50.152 235.967 49.6293 235.711 49.192C235.466 48.744 235.124 48.3973 234.687 48.152C234.26 47.9067 233.775 47.784 233.231 47.784C232.698 47.784 232.212 47.9067 231.775 48.152C231.348 48.3973 231.007 48.744 230.751 49.192C230.506 49.6293 230.383 50.152 230.383 50.76C230.383 51.3573 230.506 51.8853 230.751 52.344C231.007 52.792 231.348 53.1387 231.775 53.384C232.212 53.6293 232.698 53.752 233.231 53.752ZM241.246 55V47.464L241.63 47.864H238.142V46.52H245.886V47.864H242.414L242.782 47.464V55H241.246ZM247.457 55V46.52H248.993V55H247.457ZM248.225 44.888C247.926 44.888 247.675 44.792 247.473 44.6C247.281 44.408 247.185 44.1733 247.185 43.896C247.185 43.608 247.281 43.368 247.473 43.176C247.675 42.984 247.926 42.888 248.225 42.888C248.523 42.888 248.769 42.984 248.961 43.176C249.163 43.3573 249.265 43.5867 249.265 43.864C249.265 44.152 249.169 44.3973 248.977 44.6C248.785 44.792 248.534 44.888 248.225 44.888ZM255.684 55.096C254.82 55.096 254.047 54.9093 253.364 54.536C252.692 54.1627 252.164 53.6507 251.78 53C251.396 52.3493 251.204 51.6027 251.204 50.76C251.204 49.9173 251.396 49.1707 251.78 48.52C252.164 47.8693 252.692 47.3627 253.364 47C254.047 46.6267 254.82 46.44 255.684 46.44C256.452 46.44 257.135 46.5947 257.732 46.904C258.34 47.2027 258.809 47.6507 259.14 48.248L257.972 49C257.695 48.584 257.353 48.28 256.948 48.088C256.553 47.8853 256.127 47.784 255.668 47.784C255.113 47.784 254.617 47.9067 254.18 48.152C253.743 48.3973 253.396 48.744 253.14 49.192C252.884 49.6293 252.756 50.152 252.756 50.76C252.756 51.368 252.884 51.896 253.14 52.344C253.396 52.792 253.743 53.1387 254.18 53.384C254.617 53.6293 255.113 53.752 255.668 53.752C256.127 53.752 256.553 53.656 256.948 53.464C257.353 53.2613 257.695 52.952 257.972 52.536L259.14 53.272C258.809 53.8587 258.34 54.312 257.732 54.632C257.135 54.9413 256.452 55.096 255.684 55.096ZM262.699 55V47.464L263.083 47.864H259.595V46.52H267.339V47.864H263.867L264.235 47.464V55H262.699ZM272.83 49.4C273.907 49.4107 274.729 49.656 275.294 50.136C275.859 50.616 276.142 51.2933 276.142 52.168C276.142 53.0853 275.833 53.7947 275.214 54.296C274.595 54.7867 273.721 55.0267 272.59 55.016L268.91 55V46.52H270.446V49.384L272.83 49.4ZM272.462 53.848C273.155 53.8587 273.678 53.72 274.03 53.432C274.393 53.144 274.574 52.7173 274.574 52.152C274.574 51.5973 274.398 51.192 274.046 50.936C273.694 50.68 273.166 50.5467 272.462 50.536L270.446 50.504V53.832L272.462 53.848Z" fill="#454545"/>
<rect x="169" y="25" width="145" height="48" stroke="#DDDDE6" stroke-width="2"/>
<rect x="314" y="25" width="132" height="48" fill="#F9F9FB"/>
<path d="M352.744 55V43.8H362.392V55H360.824V44.776L361.208 45.192H353.928L354.328 44.776V55H352.744ZM370.125 55.096C369.421 55.096 368.775 54.936 368.189 54.616C367.613 54.2853 367.149 53.8 366.797 53.16C366.455 52.52 366.285 51.72 366.285 50.76C366.285 49.8 366.45 49 366.781 48.36C367.122 47.72 367.581 47.24 368.157 46.92C368.743 46.6 369.399 46.44 370.125 46.44C370.957 46.44 371.693 46.6213 372.333 46.984C372.973 47.3467 373.479 47.8533 373.853 48.504C374.226 49.144 374.413 49.896 374.413 50.76C374.413 51.624 374.226 52.3813 373.853 53.032C373.479 53.6827 372.973 54.1893 372.333 54.552C371.693 54.9147 370.957 55.096 370.125 55.096ZM365.629 58.104V46.52H367.101V48.808L367.005 50.776L367.165 52.744V58.104H365.629ZM369.997 53.752C370.541 53.752 371.026 53.6293 371.453 53.384C371.89 53.1387 372.231 52.792 372.477 52.344C372.733 51.8853 372.861 51.3573 372.861 50.76C372.861 50.152 372.733 49.6293 372.477 49.192C372.231 48.744 371.89 48.3973 371.453 48.152C371.026 47.9067 370.541 47.784 369.997 47.784C369.463 47.784 368.978 47.9067 368.541 48.152C368.114 48.3973 367.773 48.744 367.517 49.192C367.271 49.6293 367.149 50.152 367.149 50.76C367.149 51.3573 367.271 51.8853 367.517 52.344C367.773 52.792 368.114 53.1387 368.541 53.384C368.978 53.6293 369.463 53.752 369.997 53.752ZM380.276 55.096C379.423 55.096 378.666 54.9093 378.004 54.536C377.343 54.1627 376.82 53.6507 376.436 53C376.052 52.3387 375.86 51.592 375.86 50.76C375.86 49.9173 376.052 49.1707 376.436 48.52C376.82 47.8693 377.343 47.3627 378.004 47C378.666 46.6267 379.423 46.44 380.276 46.44C381.119 46.44 381.871 46.6267 382.532 47C383.204 47.3627 383.727 47.8693 384.1 48.52C384.484 49.16 384.676 49.9067 384.676 50.76C384.676 51.6027 384.484 52.3493 384.1 53C383.727 53.6507 383.204 54.1627 382.532 54.536C381.871 54.9093 381.119 55.096 380.276 55.096ZM380.276 53.752C380.82 53.752 381.306 53.6293 381.732 53.384C382.17 53.1387 382.511 52.792 382.756 52.344C383.002 51.8853 383.124 51.3573 383.124 50.76C383.124 50.152 383.002 49.6293 382.756 49.192C382.511 48.744 382.17 48.3973 381.732 48.152C381.306 47.9067 380.82 47.784 380.276 47.784C379.732 47.784 379.247 47.9067 378.82 48.152C378.394 48.3973 378.052 48.744 377.796 49.192C377.54 49.6293 377.412 50.152 377.412 50.76C377.412 51.3573 377.54 51.8853 377.796 52.344C378.052 52.792 378.394 53.1387 378.82 53.384C379.247 53.6293 379.732 53.752 380.276 53.752ZM386.894 55V46.52H388.478L392.126 52.792H391.486L395.23 46.52H396.67V55H395.278V48.248L395.534 48.392L392.11 54.04H391.438L387.998 48.28L388.302 48.216V55H386.894ZM403.292 55.096C402.439 55.096 401.681 54.9093 401.02 54.536C400.359 54.1627 399.836 53.6507 399.452 53C399.068 52.3387 398.876 51.592 398.876 50.76C398.876 49.9173 399.068 49.1707 399.452 48.52C399.836 47.8693 400.359 47.3627 401.02 47C401.681 46.6267 402.439 46.44 403.292 46.44C404.135 46.44 404.887 46.6267 405.548 47C406.22 47.3627 406.743 47.8693 407.116 48.52C407.5 49.16 407.692 49.9067 407.692 50.76C407.692 51.6027 407.5 52.3493 407.116 53C406.743 53.6507 406.22 54.1627 405.548 54.536C404.887 54.9093 404.135 55.096 403.292 55.096ZM403.292 53.752C403.836 53.752 404.321 53.6293 404.748 53.384C405.185 53.1387 405.527 52.792 405.772 52.344C406.017 51.8853 406.14 51.3573 406.14 50.76C406.14 50.152 406.017 49.6293 405.772 49.192C405.527 48.744 405.185 48.3973 404.748 48.152C404.321 47.9067 403.836 47.784 403.292 47.784C402.748 47.784 402.263 47.9067 401.836 48.152C401.409 48.3973 401.068 48.744 400.812 49.192C400.556 49.6293 400.428 50.152 400.428 50.76C400.428 51.3573 400.556 51.8853 400.812 52.344C401.068 52.792 401.409 53.1387 401.836 53.384C402.263 53.6293 402.748 53.752 403.292 53.752Z" fill="#454545"/>
<rect x="314" y="25" width="132" height="48" stroke="#DDDDE6" stroke-width="2"/>
<rect x="446" y="25" width="145" height="48" fill="#F9F9FB"/>
<path d="M484.744 55V43.8H489.112C490.093 43.8 490.931 43.9547 491.624 44.264C492.317 44.5733 492.851 45.0213 493.224 45.608C493.597 46.1947 493.784 46.8933 493.784 47.704C493.784 48.5147 493.597 49.2133 493.224 49.8C492.851 50.376 492.317 50.824 491.624 51.144C490.931 51.4533 490.093 51.608 489.112 51.608H485.624L486.344 50.856V55H484.744ZM486.344 51.016L485.624 50.216H489.064C490.088 50.216 490.861 49.9973 491.384 49.56C491.917 49.1227 492.184 48.504 492.184 47.704C492.184 46.904 491.917 46.2853 491.384 45.848C490.861 45.4107 490.088 45.192 489.064 45.192H485.624L486.344 44.392V51.016ZM499.498 55.096C498.592 55.096 497.792 54.9093 497.098 54.536C496.416 54.1627 495.882 53.6507 495.498 53C495.125 52.3493 494.938 51.6027 494.938 50.76C494.938 49.9173 495.12 49.1707 495.482 48.52C495.856 47.8693 496.362 47.3627 497.002 47C497.653 46.6267 498.384 46.44 499.194 46.44C500.016 46.44 500.741 46.6213 501.37 46.984C502 47.3467 502.49 47.8587 502.842 48.52C503.205 49.1707 503.386 49.9333 503.386 50.808C503.386 50.872 503.381 50.9467 503.37 51.032C503.37 51.1173 503.365 51.1973 503.354 51.272H496.138V50.168H502.554L501.93 50.552C501.941 50.008 501.829 49.5227 501.594 49.096C501.36 48.6693 501.034 48.3387 500.618 48.104C500.213 47.8587 499.738 47.736 499.194 47.736C498.661 47.736 498.186 47.8587 497.77 48.104C497.354 48.3387 497.029 48.6747 496.794 49.112C496.56 49.5387 496.442 50.0293 496.442 50.584V50.84C496.442 51.4053 496.57 51.912 496.826 52.36C497.093 52.7973 497.461 53.1387 497.93 53.384C498.4 53.6293 498.938 53.752 499.546 53.752C500.048 53.752 500.501 53.6667 500.906 53.496C501.322 53.3253 501.685 53.0693 501.994 52.728L502.842 53.72C502.458 54.168 501.978 54.5093 501.402 54.744C500.837 54.9787 500.202 55.096 499.498 55.096ZM505.769 55V46.52H507.305V52.696L512.505 46.52H513.897V55H512.361V48.824L507.177 55H505.769ZM509.737 45.416C508.959 45.416 508.345 45.2293 507.897 44.856C507.46 44.472 507.236 43.9227 507.225 43.208H508.265C508.276 43.6133 508.409 43.9333 508.665 44.168C508.932 44.4027 509.284 44.52 509.721 44.52C510.159 44.52 510.511 44.4027 510.777 44.168C511.044 43.9333 511.183 43.6133 511.193 43.208H512.265C512.255 43.9227 512.025 44.472 511.577 44.856C511.129 45.2293 510.516 45.416 509.737 45.416ZM518.559 55V47.464L518.943 47.864H515.455V46.52H523.199V47.864H519.727L520.095 47.464V55H518.559ZM524.769 55V46.52H526.305V52.696L531.505 46.52H532.897V55H531.361V48.824L526.177 55H524.769ZM535.879 55V46.52H537.415V50.12H542.247V46.52H543.783V55H542.247V51.448H537.415V55H535.879ZM546.769 55V46.52H553.009V47.864H547.937L548.305 47.512V55H546.769Z" fill="#454545"/>
<rect x="446" y="25" width="145" height="48" stroke="#DDDDE6" stroke-width="2"/>
</g>
<g clip-path="url(#clip2_1720_2567)">
<rect x="24" y="73" width="145" height="56" fill="white"/>
<path d="M41.124 107V94.4H42.222L47.982 104.228H47.406L53.112 94.4H54.21V107H52.932V96.398H53.238L47.982 105.398H47.352L42.06 96.398H42.402V107H41.124ZM58.15 107V97.55H59.428V107H58.15ZM58.798 95.462C58.534 95.462 58.312 95.372 58.132 95.192C57.952 95.012 57.862 94.796 57.862 94.544C57.862 94.292 57.952 94.082 58.132 93.914C58.312 93.734 58.534 93.644 58.798 93.644C59.062 93.644 59.284 93.728 59.464 93.896C59.644 94.064 59.734 94.274 59.734 94.526C59.734 94.79 59.644 95.012 59.464 95.192C59.296 95.372 59.074 95.462 58.798 95.462ZM63.0719 107V97.55H64.3499V105.056L70.6679 97.55H71.8019V107H70.5239V99.476L64.2239 107H63.0719ZM67.3559 96.182C66.5639 96.182 65.9219 95.984 65.4299 95.588C64.9499 95.18 64.6979 94.598 64.6739 93.842H65.5919C65.6039 94.322 65.7719 94.7 66.0959 94.976C66.4199 95.252 66.8399 95.39 67.3559 95.39C67.8719 95.39 68.2919 95.252 68.6159 94.976C68.9519 94.7 69.1259 94.322 69.1379 93.842H70.0559C70.0439 94.598 69.7919 95.18 69.2999 95.588C68.8079 95.984 68.1599 96.182 67.3559 96.182ZM81.9754 107V98.324L82.2994 98.666H78.3934V97.55H86.8354V98.666H82.9294L83.2534 98.324V107H81.9754ZM92.1318 107.09C91.2198 107.09 90.3978 106.886 89.6658 106.478C88.9458 106.058 88.3758 105.488 87.9558 104.768C87.5358 104.036 87.3258 103.202 87.3258 102.266C87.3258 101.318 87.5358 100.484 87.9558 99.764C88.3758 99.044 88.9458 98.48 89.6658 98.072C90.3858 97.664 91.2078 97.46 92.1318 97.46C93.0678 97.46 93.8958 97.664 94.6158 98.072C95.3478 98.48 95.9178 99.044 96.3258 99.764C96.7458 100.484 96.9558 101.318 96.9558 102.266C96.9558 103.202 96.7458 104.036 96.3258 104.768C95.9178 105.488 95.3478 106.058 94.6158 106.478C93.8838 106.886 93.0558 107.09 92.1318 107.09ZM92.1318 105.956C92.8158 105.956 93.4218 105.806 93.9498 105.506C94.4778 105.194 94.8918 104.762 95.1918 104.21C95.5038 103.646 95.6598 102.998 95.6598 102.266C95.6598 101.522 95.5038 100.874 95.1918 100.322C94.8918 99.77 94.4778 99.344 93.9498 99.044C93.4218 98.732 92.8218 98.576 92.1498 98.576C91.4778 98.576 90.8778 98.732 90.3498 99.044C89.8218 99.344 89.4018 99.77 89.0898 100.322C88.7778 100.874 88.6218 101.522 88.6218 102.266C88.6218 102.998 88.7778 103.646 89.0898 104.21C89.4018 104.762 89.8218 105.194 90.3498 105.506C90.8778 105.806 91.4718 105.956 92.1318 105.956ZM99.6871 107V97.55H103.863C104.931 97.55 105.771 97.754 106.383 98.162C107.007 98.57 107.319 99.17 107.319 99.962C107.319 100.73 107.025 101.324 106.437 101.744C105.849 102.152 105.075 102.356 104.115 102.356L104.367 101.978C105.495 101.978 106.323 102.188 106.851 102.608C107.379 103.028 107.643 103.634 107.643 104.426C107.643 105.242 107.343 105.878 106.743 106.334C106.155 106.778 105.237 107 103.989 107H99.6871ZM100.929 105.992H103.935C104.739 105.992 105.345 105.866 105.753 105.614C106.173 105.35 106.383 104.93 106.383 104.354C106.383 103.778 106.197 103.358 105.825 103.094C105.453 102.83 104.865 102.698 104.061 102.698H100.929V105.992ZM100.929 101.744H103.773C104.505 101.744 105.063 101.606 105.447 101.33C105.843 101.054 106.041 100.652 106.041 100.124C106.041 99.596 105.843 99.2 105.447 98.936C105.063 98.672 104.505 98.54 103.773 98.54H100.929V101.744ZM116.506 107V104.912L116.452 104.57V101.078C116.452 100.274 116.224 99.656 115.768 99.224C115.324 98.792 114.658 98.576 113.77 98.576C113.158 98.576 112.576 98.678 112.024 98.882C111.472 99.086 111.004 99.356 110.62 99.692L110.044 98.738C110.524 98.33 111.1 98.018 111.772 97.802C112.444 97.574 113.152 97.46 113.896 97.46C115.12 97.46 116.062 97.766 116.722 98.378C117.394 98.978 117.73 99.896 117.73 101.132V107H116.506ZM113.248 107.09C112.54 107.09 111.922 106.976 111.394 106.748C110.878 106.508 110.482 106.184 110.206 105.776C109.93 105.356 109.792 104.876 109.792 104.336C109.792 103.844 109.906 103.4 110.134 103.004C110.374 102.596 110.758 102.272 111.286 102.032C111.826 101.78 112.546 101.654 113.446 101.654H116.704V102.608H113.482C112.57 102.608 111.934 102.77 111.574 103.094C111.226 103.418 111.052 103.82 111.052 104.3C111.052 104.84 111.262 105.272 111.682 105.596C112.102 105.92 112.69 106.082 113.446 106.082C114.166 106.082 114.784 105.92 115.3 105.596C115.828 105.26 116.212 104.78 116.452 104.156L116.74 105.038C116.5 105.662 116.08 106.16 115.48 106.532C114.892 106.904 114.148 107.09 113.248 107.09ZM126.01 107.09C125.194 107.09 124.456 106.904 123.796 106.532C123.136 106.148 122.608 105.602 122.212 104.894C121.828 104.174 121.636 103.298 121.636 102.266C121.636 101.234 121.828 100.364 122.212 99.656C122.596 98.936 123.118 98.39 123.778 98.018C124.438 97.646 125.182 97.46 126.01 97.46C126.91 97.46 127.714 97.664 128.422 98.072C129.142 98.468 129.706 99.032 130.114 99.764C130.522 100.484 130.726 101.318 130.726 102.266C130.726 103.226 130.522 104.066 130.114 104.786C129.706 105.506 129.142 106.07 128.422 106.478C127.714 106.886 126.91 107.09 126.01 107.09ZM121.132 110.492V97.55H122.356V100.394L122.23 102.284L122.41 104.192V110.492H121.132ZM125.92 105.956C126.592 105.956 127.192 105.806 127.72 105.506C128.248 105.194 128.668 104.762 128.98 104.21C129.292 103.646 129.448 102.998 129.448 102.266C129.448 101.534 129.292 100.892 128.98 100.34C128.668 99.788 128.248 99.356 127.72 99.044C127.192 98.732 126.592 98.576 125.92 98.576C125.248 98.576 124.642 98.732 124.102 99.044C123.574 99.356 123.154 99.788 122.842 100.34C122.542 100.892 122.392 101.534 122.392 102.266C122.392 102.998 122.542 103.646 122.842 104.21C123.154 104.762 123.574 105.194 124.102 105.506C124.642 105.806 125.248 105.956 125.92 105.956ZM139.497 107V94.94L140.073 95.552H136.527V94.4H140.793V107H139.497Z" fill="#454545"/>
<rect x="24" y="73" width="145" height="56" stroke="#DDDDE6" stroke-width="2"/>
<rect x="169" y="73" width="145" height="56" fill="white"/>
<path d="M221.988 107V95.12L222.762 95.966H219.144V94.4H223.77V107H221.988ZM235.428 107.144C234.54 107.144 233.676 107.006 232.836 106.73C232.008 106.454 231.33 106.082 230.802 105.614L231.63 104.192C232.05 104.588 232.596 104.912 233.268 105.164C233.94 105.416 234.654 105.542 235.41 105.542C236.37 105.542 237.108 105.338 237.624 104.93C238.14 104.522 238.398 103.976 238.398 103.292C238.398 102.824 238.284 102.416 238.056 102.068C237.828 101.72 237.432 101.456 236.868 101.276C236.316 101.084 235.554 100.988 234.582 100.988H231.72L232.386 94.4H239.496V95.966H233.052L233.988 95.084L233.466 100.286L232.53 99.422H234.96C236.22 99.422 237.234 99.584 238.002 99.908C238.77 100.232 239.328 100.682 239.676 101.258C240.024 101.822 240.198 102.476 240.198 103.22C240.198 103.94 240.024 104.6 239.676 105.2C239.328 105.788 238.8 106.262 238.092 106.622C237.396 106.97 236.508 107.144 235.428 107.144ZM245.676 107.144C244.788 107.144 243.924 107.006 243.084 106.73C242.256 106.454 241.578 106.082 241.05 105.614L241.878 104.192C242.298 104.588 242.844 104.912 243.516 105.164C244.188 105.416 244.902 105.542 245.658 105.542C246.618 105.542 247.356 105.338 247.872 104.93C248.388 104.522 248.646 103.976 248.646 103.292C248.646 102.824 248.532 102.416 248.304 102.068C248.076 101.72 247.68 101.456 247.116 101.276C246.564 101.084 245.802 100.988 244.83 100.988H241.968L242.634 94.4H249.744V95.966H243.3L244.236 95.084L243.714 100.286L242.778 99.422H245.208C246.468 99.422 247.482 99.584 248.25 99.908C249.018 100.232 249.576 100.682 249.924 101.258C250.272 101.822 250.446 102.476 250.446 103.22C250.446 103.94 250.272 104.6 249.924 105.2C249.576 105.788 249.048 106.262 248.34 106.622C247.644 106.97 246.756 107.144 245.676 107.144ZM257.092 107.144C256.108 107.144 255.226 106.892 254.446 106.388C253.678 105.884 253.066 105.152 252.61 104.192C252.166 103.232 251.944 102.068 251.944 100.7C251.944 99.332 252.166 98.168 252.61 97.208C253.066 96.248 253.678 95.516 254.446 95.012C255.226 94.508 256.108 94.256 257.092 94.256C258.064 94.256 258.94 94.508 259.72 95.012C260.5 95.516 261.112 96.248 261.556 97.208C262 98.168 262.222 99.332 262.222 100.7C262.222 102.068 262 103.232 261.556 104.192C261.112 105.152 260.5 105.884 259.72 106.388C258.94 106.892 258.064 107.144 257.092 107.144ZM257.092 105.542C257.752 105.542 258.328 105.362 258.82 105.002C259.324 104.642 259.714 104.102 259.99 103.382C260.278 102.662 260.422 101.768 260.422 100.7C260.422 99.632 260.278 98.738 259.99 98.018C259.714 97.298 259.324 96.758 258.82 96.398C258.328 96.038 257.752 95.858 257.092 95.858C256.432 95.858 255.85 96.038 255.346 96.398C254.842 96.758 254.446 97.298 254.158 98.018C253.882 98.738 253.744 99.632 253.744 100.7C253.744 101.768 253.882 102.662 254.158 103.382C254.446 104.102 254.842 104.642 255.346 105.002C255.85 105.362 256.432 105.542 257.092 105.542Z" fill="#454545"/>
<rect x="169" y="73" width="145" height="56" stroke="#DDDDE6" stroke-width="2"/>
<rect x="314" y="73" width="132" height="56" fill="white"/>
<rect x="330" y="86.5" width="100" height="29" rx="14.5" fill="#F82C2C" fill-opacity="0.1"/>
<path d="M338.872 106V96.2H342.904C343.772 96.2 344.514 96.34 345.13 96.62C345.755 96.9 346.236 97.3013 346.572 97.824C346.908 98.3467 347.076 98.9673 347.076 99.686C347.076 100.405 346.908 101.025 346.572 101.548C346.236 102.071 345.755 102.472 345.13 102.752C344.514 103.032 343.772 103.172 342.904 103.172H339.88L340.692 102.318V106H338.872ZM340.692 102.514L339.88 101.632H342.82C343.623 101.632 344.225 101.464 344.626 101.128C345.037 100.783 345.242 100.302 345.242 99.686C345.242 99.0607 345.037 98.58 344.626 98.244C344.225 97.908 343.623 97.74 342.82 97.74H339.88L340.692 96.844V102.514ZM351.906 106.098C351.141 106.098 350.46 105.935 349.862 105.608C349.265 105.272 348.794 104.815 348.448 104.236C348.103 103.657 347.93 102.999 347.93 102.262C347.93 101.515 348.103 100.857 348.448 100.288C348.794 99.7093 349.265 99.2567 349.862 98.93C350.46 98.6033 351.141 98.44 351.906 98.44C352.681 98.44 353.367 98.6033 353.964 98.93C354.571 99.2567 355.042 99.7047 355.378 100.274C355.724 100.843 355.896 101.506 355.896 102.262C355.896 102.999 355.724 103.657 355.378 104.236C355.042 104.815 354.571 105.272 353.964 105.608C353.367 105.935 352.681 106.098 351.906 106.098ZM351.906 104.6C352.336 104.6 352.718 104.507 353.054 104.32C353.39 104.133 353.652 103.863 353.838 103.508C354.034 103.153 354.132 102.738 354.132 102.262C354.132 101.777 354.034 101.361 353.838 101.016C353.652 100.661 353.39 100.391 353.054 100.204C352.718 100.017 352.34 99.924 351.92 99.924C351.491 99.924 351.108 100.017 350.772 100.204C350.446 100.391 350.184 100.661 349.988 101.016C349.792 101.361 349.694 101.777 349.694 102.262C349.694 102.738 349.792 103.153 349.988 103.508C350.184 103.863 350.446 104.133 350.772 104.32C351.108 104.507 351.486 104.6 351.906 104.6ZM359.882 106.126C360.573 106.126 361.184 106.028 361.716 105.832C362.257 105.636 362.682 105.365 362.99 105.02C363.298 104.665 363.452 104.259 363.452 103.802C363.452 103.233 363.214 102.785 362.738 102.458C362.262 102.122 361.609 101.954 360.778 101.954L360.722 102.332C361.207 102.332 361.637 102.253 362.01 102.094C362.393 101.935 362.691 101.716 362.906 101.436C363.13 101.147 363.242 100.825 363.242 100.47C363.242 100.041 363.088 99.6673 362.78 99.35C362.472 99.0327 362.052 98.79 361.52 98.622C360.988 98.454 360.381 98.384 359.7 98.412C359.252 98.4213 358.799 98.4867 358.342 98.608C357.894 98.72 357.432 98.8833 356.956 99.098L357.404 100.386C357.815 100.209 358.216 100.073 358.608 99.98C359.009 99.8867 359.397 99.84 359.77 99.84C360.125 99.84 360.428 99.8773 360.68 99.952C360.932 100.017 361.123 100.12 361.254 100.26C361.394 100.391 361.464 100.545 361.464 100.722C361.464 100.899 361.408 101.053 361.296 101.184C361.184 101.315 361.021 101.413 360.806 101.478C360.601 101.543 360.349 101.576 360.05 101.576H358.748V102.752H360.19C360.666 102.752 361.03 102.831 361.282 102.99C361.543 103.139 361.674 103.363 361.674 103.662C361.674 103.867 361.595 104.049 361.436 104.208C361.287 104.367 361.072 104.488 360.792 104.572C360.512 104.647 360.176 104.684 359.784 104.684C359.327 104.684 358.869 104.628 358.412 104.516C357.955 104.404 357.544 104.245 357.18 104.04L356.69 105.342C357.138 105.594 357.637 105.79 358.188 105.93C358.748 106.061 359.313 106.126 359.882 106.126ZM365.254 106V98.524H372.422V106H370.686V99.602L371.092 100.008H366.598L367.004 99.602V106H365.254ZM378.927 106.098C378.321 106.098 377.765 105.958 377.261 105.678C376.767 105.398 376.37 104.978 376.071 104.418C375.782 103.849 375.637 103.13 375.637 102.262C375.637 101.385 375.777 100.666 376.057 100.106C376.347 99.546 376.739 99.1307 377.233 98.86C377.728 98.58 378.293 98.44 378.927 98.44C379.665 98.44 380.313 98.5987 380.873 98.916C381.443 99.2333 381.891 99.6767 382.217 100.246C382.553 100.815 382.721 101.487 382.721 102.262C382.721 103.037 382.553 103.713 382.217 104.292C381.891 104.861 381.443 105.305 380.873 105.622C380.313 105.939 379.665 106.098 378.927 106.098ZM374.783 108.716V98.524H376.449V100.288L376.393 102.276L376.533 104.264V108.716H374.783ZM378.731 104.6C379.151 104.6 379.525 104.507 379.851 104.32C380.187 104.133 380.453 103.863 380.649 103.508C380.845 103.153 380.943 102.738 380.943 102.262C380.943 101.777 380.845 101.361 380.649 101.016C380.453 100.661 380.187 100.391 379.851 100.204C379.525 100.017 379.151 99.924 378.731 99.924C378.311 99.924 377.933 100.017 377.597 100.204C377.261 100.391 376.995 100.661 376.799 101.016C376.603 101.361 376.505 101.777 376.505 102.262C376.505 102.738 376.603 103.153 376.799 103.508C376.995 103.863 377.261 104.133 377.597 104.32C377.933 104.507 378.311 104.6 378.731 104.6ZM387.795 106.098C387.03 106.098 386.348 105.935 385.751 105.608C385.154 105.272 384.682 104.815 384.337 104.236C383.992 103.657 383.819 102.999 383.819 102.262C383.819 101.515 383.992 100.857 384.337 100.288C384.682 99.7093 385.154 99.2567 385.751 98.93C386.348 98.6033 387.03 98.44 387.795 98.44C388.57 98.44 389.256 98.6033 389.853 98.93C390.46 99.2567 390.931 99.7047 391.267 100.274C391.612 100.843 391.785 101.506 391.785 102.262C391.785 102.999 391.612 103.657 391.267 104.236C390.931 104.815 390.46 105.272 389.853 105.608C389.256 105.935 388.57 106.098 387.795 106.098ZM387.795 104.6C388.224 104.6 388.607 104.507 388.943 104.32C389.279 104.133 389.54 103.863 389.727 103.508C389.923 103.153 390.021 102.738 390.021 102.262C390.021 101.777 389.923 101.361 389.727 101.016C389.54 100.661 389.279 100.391 388.943 100.204C388.607 100.017 388.229 99.924 387.809 99.924C387.38 99.924 386.997 100.017 386.661 100.204C386.334 100.391 386.073 100.661 385.877 101.016C385.681 101.361 385.583 101.777 385.583 102.262C385.583 102.738 385.681 103.153 385.877 103.508C386.073 103.863 386.334 104.133 386.661 104.32C386.997 104.507 387.375 104.6 387.795 104.6ZM398.556 105.188V100.008H395.686L395.644 101.212C395.625 101.641 395.597 102.057 395.56 102.458C395.523 102.85 395.462 103.214 395.378 103.55C395.294 103.877 395.173 104.147 395.014 104.362C394.855 104.577 394.645 104.717 394.384 104.782L392.648 104.516C392.928 104.516 393.152 104.427 393.32 104.25C393.497 104.063 393.633 103.811 393.726 103.494C393.829 103.167 393.903 102.799 393.95 102.388C393.997 101.968 394.029 101.534 394.048 101.086L394.146 98.524H400.306V105.188H398.556ZM392.382 107.666V104.516H401.412V107.666H399.774V106H394.006V107.666H392.382ZM407.511 106V104.488L407.413 104.166V101.52C407.413 101.007 407.259 100.61 406.951 100.33C406.643 100.041 406.176 99.896 405.551 99.896C405.131 99.896 404.715 99.9613 404.305 100.092C403.903 100.223 403.563 100.405 403.283 100.638L402.597 99.364C402.998 99.056 403.474 98.8273 404.025 98.678C404.585 98.5193 405.163 98.44 405.761 98.44C406.843 98.44 407.679 98.7013 408.267 99.224C408.864 99.7373 409.163 100.535 409.163 101.618V106H407.511ZM405.159 106.098C404.599 106.098 404.109 106.005 403.689 105.818C403.269 105.622 402.942 105.356 402.709 105.02C402.485 104.675 402.373 104.287 402.373 103.858C402.373 103.438 402.471 103.06 402.667 102.724C402.872 102.388 403.203 102.122 403.661 101.926C404.118 101.73 404.725 101.632 405.481 101.632H407.651V102.794H405.607C405.009 102.794 404.608 102.892 404.403 103.088C404.197 103.275 404.095 103.508 404.095 103.788C404.095 104.105 404.221 104.357 404.473 104.544C404.725 104.731 405.075 104.824 405.523 104.824C405.952 104.824 406.335 104.726 406.671 104.53C407.016 104.334 407.263 104.045 407.413 103.662L407.707 104.712C407.539 105.151 407.235 105.491 406.797 105.734C406.367 105.977 405.821 106.098 405.159 106.098ZM420.246 106L418.062 102.416L419.49 101.534L422.332 106H420.246ZM416.648 103.004V101.548H419.154V103.004H416.648ZM419.658 102.472L418.006 102.276L420.274 98.524H422.136L419.658 102.472ZM412.35 106H410.278L413.106 101.534L414.534 102.416L412.35 106ZM417.166 106H415.43V98.524H417.166V106ZM415.948 103.004H413.456V101.548H415.948V103.004ZM412.938 102.472L410.46 98.524H412.322L414.576 102.276L412.938 102.472Z" fill="#F82C2C"/>
<rect x="330" y="86.5" width="100" height="29" rx="14.5" stroke="#F82C2C"/>
<rect x="314" y="73" width="132" height="56" stroke="#DDDDE6" stroke-width="2"/>
<rect x="446" y="73" width="145" height="56" fill="white"/>
<path d="M472.5 91L475.474 96.9064L482.011 97.9098L477.312 102.564L478.378 109.09L472.5 106.06L466.622 109.09L467.688 102.564L462.989 97.9098L469.526 96.9064L472.5 91Z" fill="#F28100"/>
<path d="M495.5 91L498.474 96.9064L505.011 97.9098L500.312 102.564L501.378 109.09L495.5 106.06L489.622 109.09L490.688 102.564L485.989 97.9098L492.526 96.9064L495.5 91Z" fill="#F28100"/>
<path d="M518.5 91L521.474 96.9064L528.011 97.9098L523.312 102.564L524.378 109.09L518.5 106.06L512.622 109.09L513.688 102.564L508.989 97.9098L515.526 96.9064L518.5 91Z" fill="#F28100"/>
<path d="M541.5 91L544.474 96.9064L551.011 97.9098L546.312 102.564L547.378 109.09L541.5 106.06L535.622 109.09L536.688 102.564L531.989 97.9098L538.526 96.9064L541.5 91Z" fill="#F28100"/>
<path d="M564.5 91L567.474 96.9064L574.011 97.9098L569.312 102.564L570.378 109.09L564.5 106.06L558.622 109.09L559.688 102.564L554.989 97.9098L561.526 96.9064L564.5 91Z" fill="#F28100"/>
<rect x="446" y="73" width="145" height="56" stroke="#DDDDE6" stroke-width="2"/>
</g>
<rect x="24" y="73" width="567" height="56" stroke="#DDDDE6" stroke-width="2"/>
<g clip-path="url(#clip3_1720_2567)">
<rect x="24" y="129" width="145" height="56" fill="white"/>
<path d="M41.124 163V150.4H42.222L47.982 160.228H47.406L53.112 150.4H54.21V163H52.932V152.398H53.238L47.982 161.398H47.352L42.06 152.398H42.402V163H41.124ZM58.15 163V153.55H59.428V163H58.15ZM58.798 151.462C58.534 151.462 58.312 151.372 58.132 151.192C57.952 151.012 57.862 150.796 57.862 150.544C57.862 150.292 57.952 150.082 58.132 149.914C58.312 149.734 58.534 149.644 58.798 149.644C59.062 149.644 59.284 149.728 59.464 149.896C59.644 150.064 59.734 150.274 59.734 150.526C59.734 150.79 59.644 151.012 59.464 151.192C59.296 151.372 59.074 151.462 58.798 151.462ZM63.0719 163V153.55H64.3499V161.056L70.6679 153.55H71.8019V163H70.5239V155.476L64.2239 163H63.0719ZM67.3559 152.182C66.5639 152.182 65.9219 151.984 65.4299 151.588C64.9499 151.18 64.6979 150.598 64.6739 149.842H65.5919C65.6039 150.322 65.7719 150.7 66.0959 150.976C66.4199 151.252 66.8399 151.39 67.3559 151.39C67.8719 151.39 68.2919 151.252 68.6159 150.976C68.9519 150.7 69.1259 150.322 69.1379 149.842H70.0559C70.0439 150.598 69.7919 151.18 69.2999 151.588C68.8079 151.984 68.1599 152.182 67.3559 152.182ZM81.9754 163V154.324L82.2994 154.666H78.3934V153.55H86.8354V154.666H82.9294L83.2534 154.324V163H81.9754ZM92.1318 163.09C91.2198 163.09 90.3978 162.886 89.6658 162.478C88.9458 162.058 88.3758 161.488 87.9558 160.768C87.5358 160.036 87.3258 159.202 87.3258 158.266C87.3258 157.318 87.5358 156.484 87.9558 155.764C88.3758 155.044 88.9458 154.48 89.6658 154.072C90.3858 153.664 91.2078 153.46 92.1318 153.46C93.0678 153.46 93.8958 153.664 94.6158 154.072C95.3478 154.48 95.9178 155.044 96.3258 155.764C96.7458 156.484 96.9558 157.318 96.9558 158.266C96.9558 159.202 96.7458 160.036 96.3258 160.768C95.9178 161.488 95.3478 162.058 94.6158 162.478C93.8838 162.886 93.0558 163.09 92.1318 163.09ZM92.1318 161.956C92.8158 161.956 93.4218 161.806 93.9498 161.506C94.4778 161.194 94.8918 160.762 95.1918 160.21C95.5038 159.646 95.6598 158.998 95.6598 158.266C95.6598 157.522 95.5038 156.874 95.1918 156.322C94.8918 155.77 94.4778 155.344 93.9498 155.044C93.4218 154.732 92.8218 154.576 92.1498 154.576C91.4778 154.576 90.8778 154.732 90.3498 155.044C89.8218 155.344 89.4018 155.77 89.0898 156.322C88.7778 156.874 88.6218 157.522 88.6218 158.266C88.6218 158.998 88.7778 159.646 89.0898 160.21C89.4018 160.762 89.8218 161.194 90.3498 161.506C90.8778 161.806 91.4718 161.956 92.1318 161.956ZM99.6871 163V153.55H103.863C104.931 153.55 105.771 153.754 106.383 154.162C107.007 154.57 107.319 155.17 107.319 155.962C107.319 156.73 107.025 157.324 106.437 157.744C105.849 158.152 105.075 158.356 104.115 158.356L104.367 157.978C105.495 157.978 106.323 158.188 106.851 158.608C107.379 159.028 107.643 159.634 107.643 160.426C107.643 161.242 107.343 161.878 106.743 162.334C106.155 162.778 105.237 163 103.989 163H99.6871ZM100.929 161.992H103.935C104.739 161.992 105.345 161.866 105.753 161.614C106.173 161.35 106.383 160.93 106.383 160.354C106.383 159.778 106.197 159.358 105.825 159.094C105.453 158.83 104.865 158.698 104.061 158.698H100.929V161.992ZM100.929 157.744H103.773C104.505 157.744 105.063 157.606 105.447 157.33C105.843 157.054 106.041 156.652 106.041 156.124C106.041 155.596 105.843 155.2 105.447 154.936C105.063 154.672 104.505 154.54 103.773 154.54H100.929V157.744ZM116.506 163V160.912L116.452 160.57V157.078C116.452 156.274 116.224 155.656 115.768 155.224C115.324 154.792 114.658 154.576 113.77 154.576C113.158 154.576 112.576 154.678 112.024 154.882C111.472 155.086 111.004 155.356 110.62 155.692L110.044 154.738C110.524 154.33 111.1 154.018 111.772 153.802C112.444 153.574 113.152 153.46 113.896 153.46C115.12 153.46 116.062 153.766 116.722 154.378C117.394 154.978 117.73 155.896 117.73 157.132V163H116.506ZM113.248 163.09C112.54 163.09 111.922 162.976 111.394 162.748C110.878 162.508 110.482 162.184 110.206 161.776C109.93 161.356 109.792 160.876 109.792 160.336C109.792 159.844 109.906 159.4 110.134 159.004C110.374 158.596 110.758 158.272 111.286 158.032C111.826 157.78 112.546 157.654 113.446 157.654H116.704V158.608H113.482C112.57 158.608 111.934 158.77 111.574 159.094C111.226 159.418 111.052 159.82 111.052 160.3C111.052 160.84 111.262 161.272 111.682 161.596C112.102 161.92 112.69 162.082 113.446 162.082C114.166 162.082 114.784 161.92 115.3 161.596C115.828 161.26 116.212 160.78 116.452 160.156L116.74 161.038C116.5 161.662 116.08 162.16 115.48 162.532C114.892 162.904 114.148 163.09 113.248 163.09ZM126.01 163.09C125.194 163.09 124.456 162.904 123.796 162.532C123.136 162.148 122.608 161.602 122.212 160.894C121.828 160.174 121.636 159.298 121.636 158.266C121.636 157.234 121.828 156.364 122.212 155.656C122.596 154.936 123.118 154.39 123.778 154.018C124.438 153.646 125.182 153.46 126.01 153.46C126.91 153.46 127.714 153.664 128.422 154.072C129.142 154.468 129.706 155.032 130.114 155.764C130.522 156.484 130.726 157.318 130.726 158.266C130.726 159.226 130.522 160.066 130.114 160.786C129.706 161.506 129.142 162.07 128.422 162.478C127.714 162.886 126.91 163.09 126.01 163.09ZM121.132 166.492V153.55H122.356V156.394L122.23 158.284L122.41 160.192V166.492H121.132ZM125.92 161.956C126.592 161.956 127.192 161.806 127.72 161.506C128.248 161.194 128.668 160.762 128.98 160.21C129.292 159.646 129.448 158.998 129.448 158.266C129.448 157.534 129.292 156.892 128.98 156.34C128.668 155.788 128.248 155.356 127.72 155.044C127.192 154.732 126.592 154.576 125.92 154.576C125.248 154.576 124.642 154.732 124.102 155.044C123.574 155.356 123.154 155.788 122.842 156.34C122.542 156.892 122.392 157.534 122.392 158.266C122.392 158.998 122.542 159.646 122.842 160.21C123.154 160.762 123.574 161.194 124.102 161.506C124.642 161.806 125.248 161.956 125.92 161.956ZM137.067 163V162.082L142.305 156.952C142.785 156.484 143.145 156.076 143.385 155.728C143.625 155.368 143.787 155.032 143.871 154.72C143.955 154.408 143.997 154.114 143.997 153.838C143.997 153.106 143.745 152.53 143.241 152.11C142.749 151.69 142.017 151.48 141.045 151.48C140.301 151.48 139.641 151.594 139.065 151.822C138.501 152.05 138.015 152.404 137.607 152.884L136.689 152.092C137.181 151.516 137.811 151.072 138.579 150.76C139.347 150.448 140.205 150.292 141.153 150.292C142.005 150.292 142.743 150.43 143.367 150.706C143.991 150.97 144.471 151.36 144.807 151.876C145.155 152.392 145.329 152.998 145.329 153.694C145.329 154.102 145.269 154.504 145.149 154.9C145.041 155.296 144.837 155.716 144.537 156.16C144.249 156.592 143.823 157.084 143.259 157.636L138.453 162.352L138.093 161.848H145.905V163H137.067Z" fill="#454545"/>
<rect x="24" y="129" width="145" height="56" stroke="#DDDDE6" stroke-width="2"/>
<rect x="169" y="129" width="145" height="56" fill="white"/>
<path d="M220.988 163V151.12L221.762 151.966H218.144V150.4H222.77V163H220.988ZM235.652 163.144C234.536 163.144 233.582 162.898 232.79 162.406C231.998 161.914 231.392 161.206 230.972 160.282C230.564 159.346 230.36 158.206 230.36 156.862C230.36 155.434 230.612 154.228 231.116 153.244C231.62 152.26 232.322 151.516 233.222 151.012C234.122 150.508 235.154 150.256 236.318 150.256C236.918 150.256 237.488 150.316 238.028 150.436C238.58 150.556 239.054 150.742 239.45 150.994L238.766 152.398C238.442 152.17 238.07 152.014 237.65 151.93C237.242 151.846 236.81 151.804 236.354 151.804C235.07 151.804 234.05 152.206 233.294 153.01C232.538 153.802 232.16 154.984 232.16 156.556C232.16 156.808 232.172 157.108 232.196 157.456C232.22 157.804 232.28 158.146 232.376 158.482L231.764 157.87C231.944 157.318 232.226 156.856 232.61 156.484C233.006 156.1 233.474 155.818 234.014 155.638C234.566 155.446 235.16 155.35 235.796 155.35C236.636 155.35 237.38 155.506 238.028 155.818C238.676 156.13 239.186 156.574 239.558 157.15C239.93 157.714 240.116 158.386 240.116 159.166C240.116 159.97 239.918 160.672 239.522 161.272C239.126 161.872 238.592 162.334 237.92 162.658C237.248 162.982 236.492 163.144 235.652 163.144ZM235.58 161.686C236.132 161.686 236.612 161.584 237.02 161.38C237.44 161.176 237.77 160.894 238.01 160.534C238.25 160.162 238.37 159.73 238.37 159.238C238.37 158.494 238.112 157.906 237.596 157.474C237.08 157.03 236.378 156.808 235.49 156.808C234.914 156.808 234.41 156.916 233.978 157.132C233.546 157.348 233.204 157.642 232.952 158.014C232.712 158.374 232.592 158.788 232.592 159.256C232.592 159.688 232.706 160.09 232.934 160.462C233.162 160.822 233.498 161.116 233.942 161.344C234.386 161.572 234.932 161.686 235.58 161.686ZM246.383 163.144C245.363 163.144 244.481 162.994 243.737 162.694C242.993 162.394 242.417 161.968 242.009 161.416C241.601 160.852 241.397 160.192 241.397 159.436C241.397 158.692 241.589 158.062 241.973 157.546C242.369 157.018 242.939 156.622 243.683 156.358C244.427 156.082 245.327 155.944 246.383 155.944C247.439 155.944 248.339 156.082 249.083 156.358C249.839 156.622 250.415 157.018 250.811 157.546C251.207 158.074 251.405 158.704 251.405 159.436C251.405 160.192 251.201 160.852 250.793 161.416C250.385 161.968 249.803 162.394 249.047 162.694C248.291 162.994 247.403 163.144 246.383 163.144ZM246.383 161.686C247.391 161.686 248.177 161.482 248.741 161.074C249.317 160.654 249.605 160.09 249.605 159.382C249.605 158.686 249.317 158.14 248.741 157.744C248.177 157.336 247.391 157.132 246.383 157.132C245.387 157.132 244.607 157.336 244.043 157.744C243.479 158.14 243.197 158.686 243.197 159.382C243.197 160.09 243.479 160.654 244.043 161.074C244.607 161.482 245.387 161.686 246.383 161.686ZM246.383 156.916C245.423 156.916 244.607 156.79 243.935 156.538C243.263 156.274 242.747 155.902 242.387 155.422C242.027 154.93 241.847 154.348 241.847 153.676C241.847 152.968 242.033 152.362 242.405 151.858C242.789 151.342 243.323 150.946 244.007 150.67C244.691 150.394 245.483 150.256 246.383 150.256C247.295 150.256 248.093 150.394 248.777 150.67C249.461 150.946 249.995 151.342 250.379 151.858C250.763 152.362 250.955 152.968 250.955 153.676C250.955 154.348 250.775 154.93 250.415 155.422C250.055 155.902 249.533 156.274 248.849 156.538C248.165 156.79 247.343 156.916 246.383 156.916ZM246.383 155.764C247.259 155.764 247.943 155.584 248.435 155.224C248.939 154.864 249.191 154.372 249.191 153.748C249.191 153.112 248.933 152.614 248.417 152.254C247.901 151.894 247.223 151.714 246.383 151.714C245.543 151.714 244.871 151.894 244.367 152.254C243.875 152.614 243.629 153.112 243.629 153.748C243.629 154.372 243.869 154.864 244.349 155.224C244.841 155.584 245.519 155.764 246.383 155.764ZM258.201 163.144C257.217 163.144 256.335 162.892 255.555 162.388C254.787 161.884 254.175 161.152 253.719 160.192C253.275 159.232 253.053 158.068 253.053 156.7C253.053 155.332 253.275 154.168 253.719 153.208C254.175 152.248 254.787 151.516 255.555 151.012C256.335 150.508 257.217 150.256 258.201 150.256C259.173 150.256 260.049 150.508 260.829 151.012C261.609 151.516 262.221 152.248 262.665 153.208C263.109 154.168 263.331 155.332 263.331 156.7C263.331 158.068 263.109 159.232 262.665 160.192C262.221 161.152 261.609 161.884 260.829 162.388C260.049 162.892 259.173 163.144 258.201 163.144ZM258.201 161.542C258.861 161.542 259.437 161.362 259.929 161.002C260.433 160.642 260.823 160.102 261.099 159.382C261.387 158.662 261.531 157.768 261.531 156.7C261.531 155.632 261.387 154.738 261.099 154.018C260.823 153.298 260.433 152.758 259.929 152.398C259.437 152.038 258.861 151.858 258.201 151.858C257.541 151.858 256.959 152.038 256.455 152.398C255.951 152.758 255.555 153.298 255.267 154.018C254.991 154.738 254.853 155.632 254.853 156.7C254.853 157.768 254.991 158.662 255.267 159.382C255.555 160.102 255.951 160.642 256.455 161.002C256.959 161.362 257.541 161.542 258.201 161.542Z" fill="#454545"/>
<rect x="169" y="129" width="145" height="56" stroke="#DDDDE6" stroke-width="2"/>
<rect x="314" y="129" width="132" height="56" fill="white"/>
<rect x="330.5" y="142.5" width="99" height="29" rx="14.5" fill="#F28100" fill-opacity="0.1"/>
<path d="M339.386 162V152.2H348.052V162H346.26V153.292L346.68 153.74H340.758L341.178 153.292V162H339.386ZM353.951 162.098C353.186 162.098 352.505 161.935 351.907 161.608C351.31 161.272 350.839 160.815 350.493 160.236C350.148 159.657 349.975 158.999 349.975 158.262C349.975 157.515 350.148 156.857 350.493 156.288C350.839 155.709 351.31 155.257 351.907 154.93C352.505 154.603 353.186 154.44 353.951 154.44C354.726 154.44 355.412 154.603 356.009 154.93C356.616 155.257 357.087 155.705 357.423 156.274C357.769 156.843 357.941 157.506 357.941 158.262C357.941 158.999 357.769 159.657 357.423 160.236C357.087 160.815 356.616 161.272 356.009 161.608C355.412 161.935 354.726 162.098 353.951 162.098ZM353.951 160.6C354.381 160.6 354.763 160.507 355.099 160.32C355.435 160.133 355.697 159.863 355.883 159.508C356.079 159.153 356.177 158.738 356.177 158.262C356.177 157.777 356.079 157.361 355.883 157.016C355.697 156.661 355.435 156.391 355.099 156.204C354.763 156.017 354.385 155.924 353.965 155.924C353.536 155.924 353.153 156.017 352.817 156.204C352.491 156.391 352.229 156.661 352.033 157.016C351.837 157.361 351.739 157.777 351.739 158.262C351.739 158.738 351.837 159.153 352.033 159.508C352.229 159.863 352.491 160.133 352.817 160.32C353.153 160.507 353.531 160.6 353.951 160.6ZM364.712 161.188V156.008H361.842L361.8 157.212C361.781 157.641 361.753 158.057 361.716 158.458C361.679 158.85 361.618 159.214 361.534 159.55C361.45 159.877 361.329 160.147 361.17 160.362C361.011 160.577 360.801 160.717 360.54 160.782L358.804 160.516C359.084 160.516 359.308 160.427 359.476 160.25C359.653 160.063 359.789 159.811 359.882 159.494C359.985 159.167 360.059 158.799 360.106 158.388C360.153 157.968 360.185 157.534 360.204 157.086L360.302 154.524H366.462V161.188H364.712ZM358.538 163.666V160.516H367.568V163.666H365.93V162H360.162V163.666H358.538ZM373.667 162V160.488L373.569 160.166V157.52C373.569 157.007 373.415 156.61 373.107 156.33C372.799 156.041 372.332 155.896 371.707 155.896C371.287 155.896 370.872 155.961 370.461 156.092C370.06 156.223 369.719 156.405 369.439 156.638L368.753 155.364C369.154 155.056 369.63 154.827 370.181 154.678C370.741 154.519 371.32 154.44 371.917 154.44C373 154.44 373.835 154.701 374.423 155.224C375.02 155.737 375.319 156.535 375.319 157.618V162H373.667ZM371.315 162.098C370.755 162.098 370.265 162.005 369.845 161.818C369.425 161.622 369.098 161.356 368.865 161.02C368.641 160.675 368.529 160.287 368.529 159.858C368.529 159.438 368.627 159.06 368.823 158.724C369.028 158.388 369.36 158.122 369.817 157.926C370.274 157.73 370.881 157.632 371.637 157.632H373.807V158.794H371.763C371.166 158.794 370.764 158.892 370.559 159.088C370.354 159.275 370.251 159.508 370.251 159.788C370.251 160.105 370.377 160.357 370.629 160.544C370.881 160.731 371.231 160.824 371.679 160.824C372.108 160.824 372.491 160.726 372.827 160.53C373.172 160.334 373.42 160.045 373.569 159.662L373.863 160.712C373.695 161.151 373.392 161.491 372.953 161.734C372.524 161.977 371.978 162.098 371.315 162.098ZM381.629 162.098C381.022 162.098 380.467 161.958 379.963 161.678C379.468 161.398 379.071 160.978 378.773 160.418C378.483 159.849 378.339 159.13 378.339 158.262C378.339 157.385 378.479 156.666 378.759 156.106C379.048 155.546 379.44 155.131 379.935 154.86C380.429 154.58 380.994 154.44 381.629 154.44C382.366 154.44 383.015 154.599 383.575 154.916C384.144 155.233 384.592 155.677 384.919 156.246C385.255 156.815 385.423 157.487 385.423 158.262C385.423 159.037 385.255 159.713 384.919 160.292C384.592 160.861 384.144 161.305 383.575 161.622C383.015 161.939 382.366 162.098 381.629 162.098ZM377.485 164.716V154.524H379.151V156.288L379.095 158.276L379.235 160.264V164.716H377.485ZM381.433 160.6C381.853 160.6 382.226 160.507 382.553 160.32C382.889 160.133 383.155 159.863 383.351 159.508C383.547 159.153 383.645 158.738 383.645 158.262C383.645 157.777 383.547 157.361 383.351 157.016C383.155 156.661 382.889 156.391 382.553 156.204C382.226 156.017 381.853 155.924 381.433 155.924C381.013 155.924 380.635 156.017 380.299 156.204C379.963 156.391 379.697 156.661 379.501 157.016C379.305 157.361 379.207 157.777 379.207 158.262C379.207 158.738 379.305 159.153 379.501 159.508C379.697 159.863 379.963 160.133 380.299 160.32C380.635 160.507 381.013 160.6 381.433 160.6ZM387.631 164.814C387.267 164.814 386.903 164.753 386.539 164.632C386.175 164.511 385.872 164.343 385.629 164.128L386.329 162.84C386.507 162.999 386.707 163.125 386.931 163.218C387.155 163.311 387.384 163.358 387.617 163.358C387.935 163.358 388.191 163.279 388.387 163.12C388.583 162.961 388.765 162.695 388.933 162.322L389.367 161.342L389.507 161.132L392.335 154.524H394.015L390.515 162.602C390.282 163.162 390.021 163.605 389.731 163.932C389.451 164.259 389.134 164.487 388.779 164.618C388.434 164.749 388.051 164.814 387.631 164.814ZM389.171 162.266L385.797 154.524H387.617L390.361 160.978L389.171 162.266ZM395.231 162V154.524H396.981V157.562H400.747V154.524H402.497V162H400.747V159.046H396.981V162H395.231ZM408.174 162.098C407.409 162.098 406.727 161.935 406.13 161.608C405.533 161.272 405.061 160.815 404.716 160.236C404.371 159.657 404.198 158.999 404.198 158.262C404.198 157.515 404.371 156.857 404.716 156.288C405.061 155.709 405.533 155.257 406.13 154.93C406.727 154.603 407.409 154.44 408.174 154.44C408.949 154.44 409.635 154.603 410.232 154.93C410.839 155.257 411.31 155.705 411.646 156.274C411.991 156.843 412.164 157.506 412.164 158.262C412.164 158.999 411.991 159.657 411.646 160.236C411.31 160.815 410.839 161.272 410.232 161.608C409.635 161.935 408.949 162.098 408.174 162.098ZM408.174 160.6C408.603 160.6 408.986 160.507 409.322 160.32C409.658 160.133 409.919 159.863 410.106 159.508C410.302 159.153 410.4 158.738 410.4 158.262C410.4 157.777 410.302 157.361 410.106 157.016C409.919 156.661 409.658 156.391 409.322 156.204C408.986 156.017 408.608 155.924 408.188 155.924C407.759 155.924 407.376 156.017 407.04 156.204C406.713 156.391 406.452 156.661 406.256 157.016C406.06 157.361 405.962 157.777 405.962 158.262C405.962 158.738 406.06 159.153 406.256 159.508C406.452 159.863 406.713 160.133 407.04 160.32C407.376 160.507 407.754 160.6 408.174 160.6ZM419.255 162L416.553 158.416L417.981 157.534L421.313 162H419.255ZM413.893 162V154.524H415.643V162H413.893ZM415.125 159.004V157.548H417.659V159.004H415.125ZM418.149 158.472L416.511 158.276L419.255 154.524H421.131L418.149 158.472Z" fill="#F28100"/>
<rect x="330.5" y="142.5" width="99" height="29" rx="14.5" stroke="#F28100"/>
<rect x="314" y="129" width="132" height="56" stroke="#DDDDE6" stroke-width="2"/>
<rect x="446" y="129" width="145" height="56" fill="white"/>
<path d="M472.5 147L475.474 152.906L482.011 153.91L477.312 158.564L478.378 165.09L472.5 162.06L466.622 165.09L467.688 158.564L462.989 153.91L469.526 152.906L472.5 147Z" fill="#F28100"/>
<path d="M495.5 147L498.474 152.906L505.011 153.91L500.312 158.564L501.378 165.09L495.5 162.06L489.622 165.09L490.688 158.564L485.989 153.91L492.526 152.906L495.5 147Z" fill="#F28100"/>
<path d="M518.5 147L521.474 152.906L528.011 153.91L523.312 158.564L524.378 165.09L518.5 162.06L512.622 165.09L513.688 158.564L508.989 153.91L515.526 152.906L518.5 147Z" fill="#D5D5E4"/>
<path d="M541.5 147L544.474 152.906L551.011 153.91L546.312 158.564L547.378 165.09L541.5 162.06L535.622 165.09L536.688 158.564L531.989 153.91L538.526 152.906L541.5 147Z" fill="#D5D5E4"/>
<path d="M564.5 147L567.474 152.906L574.011 153.91L569.312 158.564L570.378 165.09L564.5 162.06L558.622 165.09L559.688 158.564L554.989 153.91L561.526 152.906L564.5 147Z" fill="#D5D5E4"/>
<rect x="446" y="129" width="145" height="56" stroke="#DDDDE6" stroke-width="2"/>
</g>
<rect x="24" y="129" width="567" height="56" stroke="#DDDDE6" stroke-width="2"/>
<g clip-path="url(#clip4_1720_2567)">
<rect x="24" y="185" width="145" height="57" fill="white"/>
<path d="M49.746 219.5L44.904 213.218L45.984 212.57L51.276 219.5H49.746ZM41.124 219.5V206.9H42.42V219.5H41.124ZM42.024 213.722V212.552H45.966V213.722H42.024ZM46.092 213.344L44.868 213.128L49.566 206.9H51.006L46.092 213.344ZM56.7998 219.59C55.8878 219.59 55.0658 219.386 54.3338 218.978C53.6138 218.558 53.0438 217.988 52.6238 217.268C52.2038 216.536 51.9938 215.702 51.9938 214.766C51.9938 213.818 52.2038 212.984 52.6238 212.264C53.0438 211.544 53.6138 210.98 54.3338 210.572C55.0538 210.164 55.8758 209.96 56.7998 209.96C57.7358 209.96 58.5638 210.164 59.2838 210.572C60.0158 210.98 60.5858 211.544 60.9938 212.264C61.4138 212.984 61.6238 213.818 61.6238 214.766C61.6238 215.702 61.4138 216.536 60.9938 217.268C60.5858 217.988 60.0158 218.558 59.2838 218.978C58.5518 219.386 57.7238 219.59 56.7998 219.59ZM56.7998 218.456C57.4838 218.456 58.0898 218.306 58.6178 218.006C59.1458 217.694 59.5598 217.262 59.8598 216.71C60.1718 216.146 60.3278 215.498 60.3278 214.766C60.3278 214.022 60.1718 213.374 59.8598 212.822C59.5598 212.27 59.1458 211.844 58.6178 211.544C58.0898 211.232 57.4898 211.076 56.8178 211.076C56.1458 211.076 55.5458 211.232 55.0178 211.544C54.4898 211.844 54.0698 212.27 53.7578 212.822C53.4458 213.374 53.2898 214.022 53.2898 214.766C53.2898 215.498 53.4458 216.146 53.7578 216.71C54.0698 217.262 54.4898 217.694 55.0178 218.006C55.5458 218.306 56.1398 218.456 56.7998 218.456ZM64.3551 219.5V210.05H65.6331V214.226H71.5911V210.05H72.8691V219.5H71.5911V215.324H65.6331V219.5H64.3551ZM83.4316 219.5L79.5436 214.82L80.6056 214.19L84.9436 219.5H83.4316ZM76.5016 219.5V210.05H77.7796V219.5H76.5016ZM77.3836 215.288V214.19H80.4256V215.288H77.3836ZM80.7136 214.91L79.5256 214.73L83.2876 210.05H84.6736L80.7136 214.91ZM86.5777 223.082C86.1337 223.082 85.7077 223.01 85.2997 222.866C84.9037 222.722 84.5617 222.506 84.2737 222.218L84.8677 221.264C85.1077 221.492 85.3657 221.666 85.6417 221.786C85.9297 221.918 86.2477 221.984 86.5957 221.984C87.0157 221.984 87.3757 221.864 87.6757 221.624C87.9877 221.396 88.2817 220.988 88.5577 220.4L89.1697 219.014L89.3137 218.816L93.2017 210.05H94.4617L89.7277 220.634C89.4637 221.246 89.1697 221.732 88.8457 222.092C88.5337 222.452 88.1917 222.704 87.8197 222.848C87.4477 223.004 87.0337 223.082 86.5777 223.082ZM89.0977 219.77L84.7417 210.05H86.0737L89.9257 218.726L89.0977 219.77ZM101.331 219.59C100.515 219.59 99.7768 219.404 99.1168 219.032C98.4568 218.648 97.9288 218.102 97.5328 217.394C97.1488 216.674 96.9568 215.798 96.9568 214.766C96.9568 213.734 97.1488 212.864 97.5328 212.156C97.9168 211.436 98.4388 210.89 99.0988 210.518C99.7588 210.146 100.503 209.96 101.331 209.96C102.231 209.96 103.035 210.164 103.743 210.572C104.463 210.968 105.027 211.532 105.435 212.264C105.843 212.984 106.047 213.818 106.047 214.766C106.047 215.726 105.843 216.566 105.435 217.286C105.027 218.006 104.463 218.57 103.743 218.978C103.035 219.386 102.231 219.59 101.331 219.59ZM96.4528 222.992V210.05H97.6768V212.894L97.5508 214.784L97.7308 216.692V222.992H96.4528ZM101.241 218.456C101.913 218.456 102.513 218.306 103.041 218.006C103.569 217.694 103.989 217.262 104.301 216.71C104.613 216.146 104.769 215.498 104.769 214.766C104.769 214.034 104.613 213.392 104.301 212.84C103.989 212.288 103.569 211.856 103.041 211.544C102.513 211.232 101.913 211.076 101.241 211.076C100.569 211.076 99.9628 211.232 99.4228 211.544C98.8948 211.856 98.4748 212.288 98.1628 212.84C97.8628 213.392 97.7128 214.034 97.7128 214.766C97.7128 215.498 97.8628 216.146 98.1628 216.71C98.4748 217.262 98.8948 217.694 99.4228 218.006C99.9628 218.306 100.569 218.456 101.241 218.456ZM112.843 219.59C111.859 219.59 110.995 219.386 110.251 218.978C109.507 218.558 108.925 217.988 108.505 217.268C108.085 216.536 107.875 215.702 107.875 214.766C107.875 213.83 108.073 213.002 108.469 212.282C108.877 211.562 109.429 210.998 110.125 210.59C110.833 210.17 111.625 209.96 112.501 209.96C113.389 209.96 114.175 210.164 114.859 210.572C115.555 210.968 116.101 211.532 116.497 212.264C116.893 212.984 117.091 213.818 117.091 214.766C117.091 214.826 117.085 214.892 117.073 214.964C117.073 215.024 117.073 215.09 117.073 215.162H108.847V214.208H116.389L115.885 214.586C115.885 213.902 115.735 213.296 115.435 212.768C115.147 212.228 114.751 211.808 114.247 211.508C113.743 211.208 113.161 211.058 112.501 211.058C111.853 211.058 111.271 211.208 110.755 211.508C110.239 211.808 109.837 212.228 109.549 212.768C109.261 213.308 109.117 213.926 109.117 214.622V214.82C109.117 215.54 109.273 216.176 109.585 216.728C109.909 217.268 110.353 217.694 110.917 218.006C111.493 218.306 112.147 218.456 112.879 218.456C113.455 218.456 113.989 218.354 114.481 218.15C114.985 217.946 115.417 217.634 115.777 217.214L116.497 218.042C116.077 218.546 115.549 218.93 114.913 219.194C114.289 219.458 113.599 219.59 112.843 219.59ZM119.92 219.5V210.05H121.198V214.226H127.156V210.05H128.434V219.5H127.156V215.324H121.198V219.5H119.92ZM133.866 219.5V210.824L134.19 211.166H130.284V210.05H138.726V211.166H134.82L135.144 210.824V219.5H133.866ZM146.599 219.5V207.44L147.175 208.052H143.629V206.9H147.895V219.5H146.599Z" fill="#454545"/>
<rect x="24" y="185" width="145" height="57" stroke="#DDDDE6" stroke-width="2"/>
<rect x="169" y="185" width="145" height="57" fill="white"/>
<path d="M217.166 219.5V218.276L222.296 213.326C222.752 212.894 223.088 212.516 223.304 212.192C223.532 211.856 223.682 211.55 223.754 211.274C223.838 210.986 223.88 210.71 223.88 210.446C223.88 209.798 223.652 209.288 223.196 208.916C222.74 208.544 222.074 208.358 221.198 208.358C220.526 208.358 219.92 208.472 219.38 208.7C218.84 208.916 218.372 209.258 217.976 209.726L216.752 208.664C217.232 208.052 217.874 207.584 218.678 207.26C219.494 206.924 220.388 206.756 221.36 206.756C222.236 206.756 222.998 206.9 223.646 207.188C224.294 207.464 224.792 207.866 225.14 208.394C225.5 208.922 225.68 209.546 225.68 210.266C225.68 210.674 225.626 211.076 225.518 211.472C225.41 211.868 225.206 212.288 224.906 212.732C224.606 213.176 224.174 213.674 223.61 214.226L219.038 218.636L218.606 217.934H226.22V219.5H217.166ZM237.682 219.644C236.698 219.644 235.816 219.392 235.036 218.888C234.268 218.384 233.656 217.652 233.2 216.692C232.756 215.732 232.534 214.568 232.534 213.2C232.534 211.832 232.756 210.668 233.2 209.708C233.656 208.748 234.268 208.016 235.036 207.512C235.816 207.008 236.698 206.756 237.682 206.756C238.654 206.756 239.53 207.008 240.31 207.512C241.09 208.016 241.702 208.748 242.146 209.708C242.59 210.668 242.812 211.832 242.812 213.2C242.812 214.568 242.59 215.732 242.146 216.692C241.702 217.652 241.09 218.384 240.31 218.888C239.53 219.392 238.654 219.644 237.682 219.644ZM237.682 218.042C238.342 218.042 238.918 217.862 239.41 217.502C239.914 217.142 240.304 216.602 240.58 215.882C240.868 215.162 241.012 214.268 241.012 213.2C241.012 212.132 240.868 211.238 240.58 210.518C240.304 209.798 239.914 209.258 239.41 208.898C238.918 208.538 238.342 208.358 237.682 208.358C237.022 208.358 236.44 208.538 235.936 208.898C235.432 209.258 235.036 209.798 234.748 210.518C234.472 211.238 234.334 212.132 234.334 213.2C234.334 214.268 234.472 215.162 234.748 215.882C235.036 216.602 235.432 217.142 235.936 217.502C236.44 217.862 237.022 218.042 237.682 218.042ZM248.608 219.644C247.72 219.644 246.856 219.506 246.016 219.23C245.188 218.954 244.51 218.582 243.982 218.114L244.81 216.692C245.23 217.088 245.776 217.412 246.448 217.664C247.12 217.916 247.834 218.042 248.59 218.042C249.55 218.042 250.288 217.838 250.804 217.43C251.32 217.022 251.578 216.476 251.578 215.792C251.578 215.324 251.464 214.916 251.236 214.568C251.008 214.22 250.612 213.956 250.048 213.776C249.496 213.584 248.734 213.488 247.762 213.488H244.9L245.566 206.9H252.676V208.466H246.232L247.168 207.584L246.646 212.786L245.71 211.922H248.14C249.4 211.922 250.414 212.084 251.182 212.408C251.95 212.732 252.508 213.182 252.856 213.758C253.204 214.322 253.378 214.976 253.378 215.72C253.378 216.44 253.204 217.1 252.856 217.7C252.508 218.288 251.98 218.762 251.272 219.122C250.576 219.47 249.688 219.644 248.608 219.644ZM260.024 219.644C259.04 219.644 258.158 219.392 257.378 218.888C256.61 218.384 255.998 217.652 255.542 216.692C255.098 215.732 254.876 214.568 254.876 213.2C254.876 211.832 255.098 210.668 255.542 209.708C255.998 208.748 256.61 208.016 257.378 207.512C258.158 207.008 259.04 206.756 260.024 206.756C260.996 206.756 261.872 207.008 262.652 207.512C263.432 208.016 264.044 208.748 264.488 209.708C264.932 210.668 265.154 211.832 265.154 213.2C265.154 214.568 264.932 215.732 264.488 216.692C264.044 217.652 263.432 218.384 262.652 218.888C261.872 219.392 260.996 219.644 260.024 219.644ZM260.024 218.042C260.684 218.042 261.26 217.862 261.752 217.502C262.256 217.142 262.646 216.602 262.922 215.882C263.21 215.162 263.354 214.268 263.354 213.2C263.354 212.132 263.21 211.238 262.922 210.518C262.646 209.798 262.256 209.258 261.752 208.898C261.26 208.538 260.684 208.358 260.024 208.358C259.364 208.358 258.782 208.538 258.278 208.898C257.774 209.258 257.378 209.798 257.09 210.518C256.814 211.238 256.676 212.132 256.676 213.2C256.676 214.268 256.814 215.162 257.09 215.882C257.378 216.602 257.774 217.142 258.278 217.502C258.782 217.862 259.364 218.042 260.024 218.042Z" fill="#454545"/>
<rect x="169" y="185" width="145" height="57" stroke="#DDDDE6" stroke-width="2"/>
<rect x="314" y="185" width="132" height="57" fill="white"/>
<rect x="330" y="199" width="100" height="29" rx="14.5" fill="#F82C2C" fill-opacity="0.1"/>
<path d="M338.872 218.5V208.7H342.904C343.772 208.7 344.514 208.84 345.13 209.12C345.755 209.4 346.236 209.801 346.572 210.324C346.908 210.847 347.076 211.467 347.076 212.186C347.076 212.905 346.908 213.525 346.572 214.048C346.236 214.571 345.755 214.972 345.13 215.252C344.514 215.532 343.772 215.672 342.904 215.672H339.88L340.692 214.818V218.5H338.872ZM340.692 215.014L339.88 214.132H342.82C343.623 214.132 344.225 213.964 344.626 213.628C345.037 213.283 345.242 212.802 345.242 212.186C345.242 211.561 345.037 211.08 344.626 210.744C344.225 210.408 343.623 210.24 342.82 210.24H339.88L340.692 209.344V215.014ZM351.906 218.598C351.141 218.598 350.46 218.435 349.862 218.108C349.265 217.772 348.794 217.315 348.448 216.736C348.103 216.157 347.93 215.499 347.93 214.762C347.93 214.015 348.103 213.357 348.448 212.788C348.794 212.209 349.265 211.757 349.862 211.43C350.46 211.103 351.141 210.94 351.906 210.94C352.681 210.94 353.367 211.103 353.964 211.43C354.571 211.757 355.042 212.205 355.378 212.774C355.724 213.343 355.896 214.006 355.896 214.762C355.896 215.499 355.724 216.157 355.378 216.736C355.042 217.315 354.571 217.772 353.964 218.108C353.367 218.435 352.681 218.598 351.906 218.598ZM351.906 217.1C352.336 217.1 352.718 217.007 353.054 216.82C353.39 216.633 353.652 216.363 353.838 216.008C354.034 215.653 354.132 215.238 354.132 214.762C354.132 214.277 354.034 213.861 353.838 213.516C353.652 213.161 353.39 212.891 353.054 212.704C352.718 212.517 352.34 212.424 351.92 212.424C351.491 212.424 351.108 212.517 350.772 212.704C350.446 212.891 350.184 213.161 349.988 213.516C349.792 213.861 349.694 214.277 349.694 214.762C349.694 215.238 349.792 215.653 349.988 216.008C350.184 216.363 350.446 216.633 350.772 216.82C351.108 217.007 351.486 217.1 351.906 217.1ZM359.882 218.626C360.573 218.626 361.184 218.528 361.716 218.332C362.257 218.136 362.682 217.865 362.99 217.52C363.298 217.165 363.452 216.759 363.452 216.302C363.452 215.733 363.214 215.285 362.738 214.958C362.262 214.622 361.609 214.454 360.778 214.454L360.722 214.832C361.207 214.832 361.637 214.753 362.01 214.594C362.393 214.435 362.691 214.216 362.906 213.936C363.13 213.647 363.242 213.325 363.242 212.97C363.242 212.541 363.088 212.167 362.78 211.85C362.472 211.533 362.052 211.29 361.52 211.122C360.988 210.954 360.381 210.884 359.7 210.912C359.252 210.921 358.799 210.987 358.342 211.108C357.894 211.22 357.432 211.383 356.956 211.598L357.404 212.886C357.815 212.709 358.216 212.573 358.608 212.48C359.009 212.387 359.397 212.34 359.77 212.34C360.125 212.34 360.428 212.377 360.68 212.452C360.932 212.517 361.123 212.62 361.254 212.76C361.394 212.891 361.464 213.045 361.464 213.222C361.464 213.399 361.408 213.553 361.296 213.684C361.184 213.815 361.021 213.913 360.806 213.978C360.601 214.043 360.349 214.076 360.05 214.076H358.748V215.252H360.19C360.666 215.252 361.03 215.331 361.282 215.49C361.543 215.639 361.674 215.863 361.674 216.162C361.674 216.367 361.595 216.549 361.436 216.708C361.287 216.867 361.072 216.988 360.792 217.072C360.512 217.147 360.176 217.184 359.784 217.184C359.327 217.184 358.869 217.128 358.412 217.016C357.955 216.904 357.544 216.745 357.18 216.54L356.69 217.842C357.138 218.094 357.637 218.29 358.188 218.43C358.748 218.561 359.313 218.626 359.882 218.626ZM365.254 218.5V211.024H372.422V218.5H370.686V212.102L371.092 212.508H366.598L367.004 212.102V218.5H365.254ZM378.927 218.598C378.321 218.598 377.765 218.458 377.261 218.178C376.767 217.898 376.37 217.478 376.071 216.918C375.782 216.349 375.637 215.63 375.637 214.762C375.637 213.885 375.777 213.166 376.057 212.606C376.347 212.046 376.739 211.631 377.233 211.36C377.728 211.08 378.293 210.94 378.927 210.94C379.665 210.94 380.313 211.099 380.873 211.416C381.443 211.733 381.891 212.177 382.217 212.746C382.553 213.315 382.721 213.987 382.721 214.762C382.721 215.537 382.553 216.213 382.217 216.792C381.891 217.361 381.443 217.805 380.873 218.122C380.313 218.439 379.665 218.598 378.927 218.598ZM374.783 221.216V211.024H376.449V212.788L376.393 214.776L376.533 216.764V221.216H374.783ZM378.731 217.1C379.151 217.1 379.525 217.007 379.851 216.82C380.187 216.633 380.453 216.363 380.649 216.008C380.845 215.653 380.943 215.238 380.943 214.762C380.943 214.277 380.845 213.861 380.649 213.516C380.453 213.161 380.187 212.891 379.851 212.704C379.525 212.517 379.151 212.424 378.731 212.424C378.311 212.424 377.933 212.517 377.597 212.704C377.261 212.891 376.995 213.161 376.799 213.516C376.603 213.861 376.505 214.277 376.505 214.762C376.505 215.238 376.603 215.653 376.799 216.008C376.995 216.363 377.261 216.633 377.597 216.82C377.933 217.007 378.311 217.1 378.731 217.1ZM387.795 218.598C387.03 218.598 386.348 218.435 385.751 218.108C385.154 217.772 384.682 217.315 384.337 216.736C383.992 216.157 383.819 215.499 383.819 214.762C383.819 214.015 383.992 213.357 384.337 212.788C384.682 212.209 385.154 211.757 385.751 211.43C386.348 211.103 387.03 210.94 387.795 210.94C388.57 210.94 389.256 211.103 389.853 211.43C390.46 211.757 390.931 212.205 391.267 212.774C391.612 213.343 391.785 214.006 391.785 214.762C391.785 215.499 391.612 216.157 391.267 216.736C390.931 217.315 390.46 217.772 389.853 218.108C389.256 218.435 388.57 218.598 387.795 218.598ZM387.795 217.1C388.224 217.1 388.607 217.007 388.943 216.82C389.279 216.633 389.54 216.363 389.727 216.008C389.923 215.653 390.021 215.238 390.021 214.762C390.021 214.277 389.923 213.861 389.727 213.516C389.54 213.161 389.279 212.891 388.943 212.704C388.607 212.517 388.229 212.424 387.809 212.424C387.38 212.424 386.997 212.517 386.661 212.704C386.334 212.891 386.073 213.161 385.877 213.516C385.681 213.861 385.583 214.277 385.583 214.762C385.583 215.238 385.681 215.653 385.877 216.008C386.073 216.363 386.334 216.633 386.661 216.82C386.997 217.007 387.375 217.1 387.795 217.1ZM398.556 217.688V212.508H395.686L395.644 213.712C395.625 214.141 395.597 214.557 395.56 214.958C395.523 215.35 395.462 215.714 395.378 216.05C395.294 216.377 395.173 216.647 395.014 216.862C394.855 217.077 394.645 217.217 394.384 217.282L392.648 217.016C392.928 217.016 393.152 216.927 393.32 216.75C393.497 216.563 393.633 216.311 393.726 215.994C393.829 215.667 393.903 215.299 393.95 214.888C393.997 214.468 394.029 214.034 394.048 213.586L394.146 211.024H400.306V217.688H398.556ZM392.382 220.166V217.016H401.412V220.166H399.774V218.5H394.006V220.166H392.382ZM407.511 218.5V216.988L407.413 216.666V214.02C407.413 213.507 407.259 213.11 406.951 212.83C406.643 212.541 406.176 212.396 405.551 212.396C405.131 212.396 404.715 212.461 404.305 212.592C403.903 212.723 403.563 212.905 403.283 213.138L402.597 211.864C402.998 211.556 403.474 211.327 404.025 211.178C404.585 211.019 405.163 210.94 405.761 210.94C406.843 210.94 407.679 211.201 408.267 211.724C408.864 212.237 409.163 213.035 409.163 214.118V218.5H407.511ZM405.159 218.598C404.599 218.598 404.109 218.505 403.689 218.318C403.269 218.122 402.942 217.856 402.709 217.52C402.485 217.175 402.373 216.787 402.373 216.358C402.373 215.938 402.471 215.56 402.667 215.224C402.872 214.888 403.203 214.622 403.661 214.426C404.118 214.23 404.725 214.132 405.481 214.132H407.651V215.294H405.607C405.009 215.294 404.608 215.392 404.403 215.588C404.197 215.775 404.095 216.008 404.095 216.288C404.095 216.605 404.221 216.857 404.473 217.044C404.725 217.231 405.075 217.324 405.523 217.324C405.952 217.324 406.335 217.226 406.671 217.03C407.016 216.834 407.263 216.545 407.413 216.162L407.707 217.212C407.539 217.651 407.235 217.991 406.797 218.234C406.367 218.477 405.821 218.598 405.159 218.598ZM420.246 218.5L418.062 214.916L419.49 214.034L422.332 218.5H420.246ZM416.648 215.504V214.048H419.154V215.504H416.648ZM419.658 214.972L418.006 214.776L420.274 211.024H422.136L419.658 214.972ZM412.35 218.5H410.278L413.106 214.034L414.534 214.916L412.35 218.5ZM417.166 218.5H415.43V211.024H417.166V218.5ZM415.948 215.504H413.456V214.048H415.948V215.504ZM412.938 214.972L410.46 211.024H412.322L414.576 214.776L412.938 214.972Z" fill="#F82C2C"/>
<rect x="330" y="199" width="100" height="29" rx="14.5" stroke="#F82C2C"/>
<rect x="314" y="185" width="132" height="57" stroke="#DDDDE6" stroke-width="2"/>
<rect x="446" y="185" width="145" height="57" fill="white"/>
<path d="M472.5 203.5L475.474 209.406L482.011 210.41L477.312 215.064L478.378 221.59L472.5 218.56L466.622 221.59L467.688 215.064L462.989 210.41L469.526 209.406L472.5 203.5Z" fill="#F28100"/>
<path d="M495.5 203.5L498.474 209.406L505.011 210.41L500.312 215.064L501.378 221.59L495.5 218.56L489.622 221.59L490.688 215.064L485.989 210.41L492.526 209.406L495.5 203.5Z" fill="#F28100"/>
<path d="M518.5 203.5L521.474 209.406L528.011 210.41L523.312 215.064L524.378 221.59L518.5 218.56L512.622 221.59L513.688 215.064L508.989 210.41L515.526 209.406L518.5 203.5Z" fill="#F28100"/>
<path d="M541.5 203.5L544.474 209.406L551.011 210.41L546.312 215.064L547.378 221.59L541.5 218.56L535.622 221.59L536.688 215.064L531.989 210.41L538.526 209.406L541.5 203.5Z" fill="#D5D5E4"/>
<path d="M564.5 203.5L567.474 209.406L574.011 210.41L569.312 215.064L570.378 221.59L564.5 218.56L558.622 221.59L559.688 215.064L554.989 210.41L561.526 209.406L564.5 203.5Z" fill="#D5D5E4"/>
<rect x="446" y="185" width="145" height="57" stroke="#DDDDE6" stroke-width="2"/>
</g>
<rect x="24" y="185" width="567" height="57" stroke="#DDDDE6" stroke-width="2"/>
<g clip-path="url(#clip5_1720_2567)">
<rect x="24" y="242" width="145" height="56" fill="white"/>
<path d="M49.746 276L44.904 269.718L45.984 269.07L51.276 276H49.746ZM41.124 276V263.4H42.42V276H41.124ZM42.024 270.222V269.052H45.966V270.222H42.024ZM46.092 269.844L44.868 269.628L49.566 263.4H51.006L46.092 269.844ZM56.7998 276.09C55.8878 276.09 55.0658 275.886 54.3338 275.478C53.6138 275.058 53.0438 274.488 52.6238 273.768C52.2038 273.036 51.9938 272.202 51.9938 271.266C51.9938 270.318 52.2038 269.484 52.6238 268.764C53.0438 268.044 53.6138 267.48 54.3338 267.072C55.0538 266.664 55.8758 266.46 56.7998 266.46C57.7358 266.46 58.5638 266.664 59.2838 267.072C60.0158 267.48 60.5858 268.044 60.9938 268.764C61.4138 269.484 61.6238 270.318 61.6238 271.266C61.6238 272.202 61.4138 273.036 60.9938 273.768C60.5858 274.488 60.0158 275.058 59.2838 275.478C58.5518 275.886 57.7238 276.09 56.7998 276.09ZM56.7998 274.956C57.4838 274.956 58.0898 274.806 58.6178 274.506C59.1458 274.194 59.5598 273.762 59.8598 273.21C60.1718 272.646 60.3278 271.998 60.3278 271.266C60.3278 270.522 60.1718 269.874 59.8598 269.322C59.5598 268.77 59.1458 268.344 58.6178 268.044C58.0898 267.732 57.4898 267.576 56.8178 267.576C56.1458 267.576 55.5458 267.732 55.0178 268.044C54.4898 268.344 54.0698 268.77 53.7578 269.322C53.4458 269.874 53.2898 270.522 53.2898 271.266C53.2898 271.998 53.4458 272.646 53.7578 273.21C54.0698 273.762 54.4898 274.194 55.0178 274.506C55.5458 274.806 56.1398 274.956 56.7998 274.956ZM64.3551 276V266.55H65.6331V270.726H71.5911V266.55H72.8691V276H71.5911V271.824H65.6331V276H64.3551ZM83.4316 276L79.5436 271.32L80.6056 270.69L84.9436 276H83.4316ZM76.5016 276V266.55H77.7796V276H76.5016ZM77.3836 271.788V270.69H80.4256V271.788H77.3836ZM80.7136 271.41L79.5256 271.23L83.2876 266.55H84.6736L80.7136 271.41ZM86.5777 279.582C86.1337 279.582 85.7077 279.51 85.2997 279.366C84.9037 279.222 84.5617 279.006 84.2737 278.718L84.8677 277.764C85.1077 277.992 85.3657 278.166 85.6417 278.286C85.9297 278.418 86.2477 278.484 86.5957 278.484C87.0157 278.484 87.3757 278.364 87.6757 278.124C87.9877 277.896 88.2817 277.488 88.5577 276.9L89.1697 275.514L89.3137 275.316L93.2017 266.55H94.4617L89.7277 277.134C89.4637 277.746 89.1697 278.232 88.8457 278.592C88.5337 278.952 88.1917 279.204 87.8197 279.348C87.4477 279.504 87.0337 279.582 86.5777 279.582ZM89.0977 276.27L84.7417 266.55H86.0737L89.9257 275.226L89.0977 276.27ZM101.331 276.09C100.515 276.09 99.7768 275.904 99.1168 275.532C98.4568 275.148 97.9288 274.602 97.5328 273.894C97.1488 273.174 96.9568 272.298 96.9568 271.266C96.9568 270.234 97.1488 269.364 97.5328 268.656C97.9168 267.936 98.4388 267.39 99.0988 267.018C99.7588 266.646 100.503 266.46 101.331 266.46C102.231 266.46 103.035 266.664 103.743 267.072C104.463 267.468 105.027 268.032 105.435 268.764C105.843 269.484 106.047 270.318 106.047 271.266C106.047 272.226 105.843 273.066 105.435 273.786C105.027 274.506 104.463 275.07 103.743 275.478C103.035 275.886 102.231 276.09 101.331 276.09ZM96.4528 279.492V266.55H97.6768V269.394L97.5508 271.284L97.7308 273.192V279.492H96.4528ZM101.241 274.956C101.913 274.956 102.513 274.806 103.041 274.506C103.569 274.194 103.989 273.762 104.301 273.21C104.613 272.646 104.769 271.998 104.769 271.266C104.769 270.534 104.613 269.892 104.301 269.34C103.989 268.788 103.569 268.356 103.041 268.044C102.513 267.732 101.913 267.576 101.241 267.576C100.569 267.576 99.9628 267.732 99.4228 268.044C98.8948 268.356 98.4748 268.788 98.1628 269.34C97.8628 269.892 97.7128 270.534 97.7128 271.266C97.7128 271.998 97.8628 272.646 98.1628 273.21C98.4748 273.762 98.8948 274.194 99.4228 274.506C99.9628 274.806 100.569 274.956 101.241 274.956ZM112.843 276.09C111.859 276.09 110.995 275.886 110.251 275.478C109.507 275.058 108.925 274.488 108.505 273.768C108.085 273.036 107.875 272.202 107.875 271.266C107.875 270.33 108.073 269.502 108.469 268.782C108.877 268.062 109.429 267.498 110.125 267.09C110.833 266.67 111.625 266.46 112.501 266.46C113.389 266.46 114.175 266.664 114.859 267.072C115.555 267.468 116.101 268.032 116.497 268.764C116.893 269.484 117.091 270.318 117.091 271.266C117.091 271.326 117.085 271.392 117.073 271.464C117.073 271.524 117.073 271.59 117.073 271.662H108.847V270.708H116.389L115.885 271.086C115.885 270.402 115.735 269.796 115.435 269.268C115.147 268.728 114.751 268.308 114.247 268.008C113.743 267.708 113.161 267.558 112.501 267.558C111.853 267.558 111.271 267.708 110.755 268.008C110.239 268.308 109.837 268.728 109.549 269.268C109.261 269.808 109.117 270.426 109.117 271.122V271.32C109.117 272.04 109.273 272.676 109.585 273.228C109.909 273.768 110.353 274.194 110.917 274.506C111.493 274.806 112.147 274.956 112.879 274.956C113.455 274.956 113.989 274.854 114.481 274.65C114.985 274.446 115.417 274.134 115.777 273.714L116.497 274.542C116.077 275.046 115.549 275.43 114.913 275.694C114.289 275.958 113.599 276.09 112.843 276.09ZM119.92 276V266.55H121.198V270.726H127.156V266.55H128.434V276H127.156V271.824H121.198V276H119.92ZM133.866 276V267.324L134.19 267.666H130.284V266.55H138.726V267.666H134.82L135.144 267.324V276H133.866ZM144.169 276V275.082L149.407 269.952C149.887 269.484 150.247 269.076 150.487 268.728C150.727 268.368 150.889 268.032 150.973 267.72C151.057 267.408 151.099 267.114 151.099 266.838C151.099 266.106 150.847 265.53 150.343 265.11C149.851 264.69 149.119 264.48 148.147 264.48C147.403 264.48 146.743 264.594 146.167 264.822C145.603 265.05 145.117 265.404 144.709 265.884L143.791 265.092C144.283 264.516 144.913 264.072 145.681 263.76C146.449 263.448 147.307 263.292 148.255 263.292C149.107 263.292 149.845 263.43 150.469 263.706C151.093 263.97 151.573 264.36 151.909 264.876C152.257 265.392 152.431 265.998 152.431 266.694C152.431 267.102 152.371 267.504 152.251 267.9C152.143 268.296 151.939 268.716 151.639 269.16C151.351 269.592 150.925 270.084 150.361 270.636L145.555 275.352L145.195 274.848H153.007V276H144.169Z" fill="#454545"/>
<rect x="24" y="242" width="145" height="56" stroke="#DDDDE6" stroke-width="2"/>
<rect x="169" y="242" width="145" height="56" fill="white"/>
<path d="M221.488 276V264.12L222.262 264.966H218.644V263.4H223.27V276H221.488ZM234.928 276.144C234.04 276.144 233.176 276.006 232.336 275.73C231.508 275.454 230.83 275.082 230.302 274.614L231.13 273.192C231.55 273.588 232.096 273.912 232.768 274.164C233.44 274.416 234.154 274.542 234.91 274.542C235.87 274.542 236.608 274.338 237.124 273.93C237.64 273.522 237.898 272.976 237.898 272.292C237.898 271.824 237.784 271.416 237.556 271.068C237.328 270.72 236.932 270.456 236.368 270.276C235.816 270.084 235.054 269.988 234.082 269.988H231.22L231.886 263.4H238.996V264.966H232.552L233.488 264.084L232.966 269.286L232.03 268.422H234.46C235.72 268.422 236.734 268.584 237.502 268.908C238.27 269.232 238.828 269.682 239.176 270.258C239.524 270.822 239.698 271.476 239.698 272.22C239.698 272.94 239.524 273.6 239.176 274.2C238.828 274.788 238.3 275.262 237.592 275.622C236.896 275.97 236.008 276.144 234.928 276.144ZM246.344 276.144C245.36 276.144 244.478 275.892 243.698 275.388C242.93 274.884 242.318 274.152 241.862 273.192C241.418 272.232 241.196 271.068 241.196 269.7C241.196 268.332 241.418 267.168 241.862 266.208C242.318 265.248 242.93 264.516 243.698 264.012C244.478 263.508 245.36 263.256 246.344 263.256C247.316 263.256 248.192 263.508 248.972 264.012C249.752 264.516 250.364 265.248 250.808 266.208C251.252 267.168 251.474 268.332 251.474 269.7C251.474 271.068 251.252 272.232 250.808 273.192C250.364 274.152 249.752 274.884 248.972 275.388C248.192 275.892 247.316 276.144 246.344 276.144ZM246.344 274.542C247.004 274.542 247.58 274.362 248.072 274.002C248.576 273.642 248.966 273.102 249.242 272.382C249.53 271.662 249.674 270.768 249.674 269.7C249.674 268.632 249.53 267.738 249.242 267.018C248.966 266.298 248.576 265.758 248.072 265.398C247.58 265.038 247.004 264.858 246.344 264.858C245.684 264.858 245.102 265.038 244.598 265.398C244.094 265.758 243.698 266.298 243.41 267.018C243.134 267.738 242.996 268.632 242.996 269.7C242.996 270.768 243.134 271.662 243.41 272.382C243.698 273.102 244.094 273.642 244.598 274.002C245.102 274.362 245.684 274.542 246.344 274.542ZM258.35 276.144C257.366 276.144 256.484 275.892 255.704 275.388C254.936 274.884 254.324 274.152 253.868 273.192C253.424 272.232 253.202 271.068 253.202 269.7C253.202 268.332 253.424 267.168 253.868 266.208C254.324 265.248 254.936 264.516 255.704 264.012C256.484 263.508 257.366 263.256 258.35 263.256C259.322 263.256 260.198 263.508 260.978 264.012C261.758 264.516 262.37 265.248 262.814 266.208C263.258 267.168 263.48 268.332 263.48 269.7C263.48 271.068 263.258 272.232 262.814 273.192C262.37 274.152 261.758 274.884 260.978 275.388C260.198 275.892 259.322 276.144 258.35 276.144ZM258.35 274.542C259.01 274.542 259.586 274.362 260.078 274.002C260.582 273.642 260.972 273.102 261.248 272.382C261.536 271.662 261.68 270.768 261.68 269.7C261.68 268.632 261.536 267.738 261.248 267.018C260.972 266.298 260.582 265.758 260.078 265.398C259.586 265.038 259.01 264.858 258.35 264.858C257.69 264.858 257.108 265.038 256.604 265.398C256.1 265.758 255.704 266.298 255.416 267.018C255.14 267.738 255.002 268.632 255.002 269.7C255.002 270.768 255.14 271.662 255.416 272.382C255.704 273.102 256.1 273.642 256.604 274.002C257.108 274.362 257.69 274.542 258.35 274.542Z" fill="#454545"/>
<rect x="169" y="242" width="145" height="56" stroke="#DDDDE6" stroke-width="2"/>
<rect x="314" y="242" width="132" height="56" fill="white"/>
<rect x="352" y="255.5" width="56" height="29" rx="14.5" fill="#DDDDE6"/>
<path d="M367.76 265.2H369.58V275H367.76V265.2ZM362.692 275H360.872V265.2H362.692V275ZM367.9 270.8H362.538V269.246H367.9V270.8ZM375.619 275.098C374.788 275.098 374.06 274.935 373.435 274.608C372.819 274.272 372.338 273.815 371.993 273.236C371.657 272.657 371.489 271.999 371.489 271.262C371.489 270.515 371.652 269.857 371.979 269.288C372.315 268.709 372.772 268.257 373.351 267.93C373.939 267.603 374.606 267.44 375.353 267.44C376.081 267.44 376.73 267.599 377.299 267.916C377.868 268.233 378.316 268.681 378.643 269.26C378.97 269.839 379.133 270.52 379.133 271.304C379.133 271.379 379.128 271.463 379.119 271.556C379.119 271.649 379.114 271.738 379.105 271.822H372.875V270.66H378.181L377.495 271.024C377.504 270.595 377.416 270.217 377.229 269.89C377.042 269.563 376.786 269.307 376.459 269.12C376.142 268.933 375.773 268.84 375.353 268.84C374.924 268.84 374.546 268.933 374.219 269.12C373.902 269.307 373.65 269.568 373.463 269.904C373.286 270.231 373.197 270.618 373.197 271.066V271.346C373.197 271.794 373.3 272.191 373.505 272.536C373.71 272.881 374 273.147 374.373 273.334C374.746 273.521 375.176 273.614 375.661 273.614C376.081 273.614 376.459 273.549 376.795 273.418C377.131 273.287 377.43 273.082 377.691 272.802L378.629 273.88C378.293 274.272 377.868 274.575 377.355 274.79C376.851 274.995 376.272 275.098 375.619 275.098ZM381.047 275V267.524H382.881L385.891 272.83H385.163L388.327 267.524H389.965L389.979 275H388.397V269.4L388.677 269.582L385.877 274.216H385.121L382.307 269.456L382.643 269.372V275H381.047ZM396.862 275V273.488L396.764 273.166V270.52C396.764 270.007 396.61 269.61 396.302 269.33C395.994 269.041 395.528 268.896 394.902 268.896C394.482 268.896 394.067 268.961 393.656 269.092C393.255 269.223 392.914 269.405 392.634 269.638L391.948 268.364C392.35 268.056 392.826 267.827 393.376 267.678C393.936 267.519 394.515 267.44 395.112 267.44C396.195 267.44 397.03 267.701 397.618 268.224C398.216 268.737 398.514 269.535 398.514 270.618V275H396.862ZM394.51 275.098C393.95 275.098 393.46 275.005 393.04 274.818C392.62 274.622 392.294 274.356 392.06 274.02C391.836 273.675 391.724 273.287 391.724 272.858C391.724 272.438 391.822 272.06 392.018 271.724C392.224 271.388 392.555 271.122 393.012 270.926C393.47 270.73 394.076 270.632 394.832 270.632H397.002V271.794H394.958C394.361 271.794 393.96 271.892 393.754 272.088C393.549 272.275 393.446 272.508 393.446 272.788C393.446 273.105 393.572 273.357 393.824 273.544C394.076 273.731 394.426 273.824 394.874 273.824C395.304 273.824 395.686 273.726 396.022 273.53C396.368 273.334 396.615 273.045 396.764 272.662L397.058 273.712C396.89 274.151 396.587 274.491 396.148 274.734C395.719 274.977 395.173 275.098 394.51 275.098Z" fill="#636370"/>
<rect x="352" y="255.5" width="56" height="29" rx="14.5" stroke="#636370"/>
<rect x="314" y="242" width="132" height="56" stroke="#DDDDE6" stroke-width="2"/>
<rect x="446" y="242" width="145" height="56" fill="white"/>
<path d="M472.5 260L475.474 265.906L482.011 266.91L477.312 271.564L478.378 278.09L472.5 275.06L466.622 278.09L467.688 271.564L462.989 266.91L469.526 265.906L472.5 260Z" fill="#F28100"/>
<path d="M495.5 260L498.474 265.906L505.011 266.91L500.312 271.564L501.378 278.09L495.5 275.06L489.622 278.09L490.688 271.564L485.989 266.91L492.526 265.906L495.5 260Z" fill="#F28100"/>
<path d="M518.5 260L521.474 265.906L528.011 266.91L523.312 271.564L524.378 278.09L518.5 275.06L512.622 278.09L513.688 271.564L508.989 266.91L515.526 265.906L518.5 260Z" fill="#F28100"/>
<path d="M541.5 260L544.474 265.906L551.011 266.91L546.312 271.564L547.378 278.09L541.5 275.06L535.622 278.09L536.688 271.564L531.989 266.91L538.526 265.906L541.5 260Z" fill="#F28100"/>
<path d="M564.5 260L567.474 265.906L574.011 266.91L569.312 271.564L570.378 278.09L564.5 275.06L558.622 278.09L559.688 271.564L554.989 266.91L561.526 265.906L564.5 260Z" fill="#D5D5E4"/>
<rect x="446" y="242" width="145" height="56" stroke="#DDDDE6" stroke-width="2"/>
</g>
<rect x="24" y="242" width="567" height="56" stroke="#DDDDE6" stroke-width="2"/>
</g>
<rect x="24" y="25" width="567" height="273" rx="15" stroke="#DDDDE6" stroke-width="2"/>
<defs>
<clipPath id="clip0_1720_2567">
<rect x="24" y="25" width="567" height="273" rx="15" fill="white"/>
</clipPath>
<clipPath id="clip1_1720_2567">
<rect width="567" height="48" fill="white" transform="translate(24 25)"/>
</clipPath>
<clipPath id="clip2_1720_2567">
<rect x="24" y="73" width="567" height="56" fill="white"/>
</clipPath>
<clipPath id="clip3_1720_2567">
<rect x="24" y="129" width="567" height="56" fill="white"/>
</clipPath>
<clipPath id="clip4_1720_2567">
<rect x="24" y="185" width="567" height="57" fill="white"/>
</clipPath>
<clipPath id="clip5_1720_2567">
<rect x="24" y="242" width="567" height="56" fill="white"/>
</clipPath>
</defs>
</svg>
