<svg width="200" height="200" viewBox="0 0 200 200" fill="none" xmlns="http://www.w3.org/2000/svg">
<rect width="200" height="200" rx="15" fill="white"/>
<g clip-path="url(#clip0_1720_2793)">
<rect x="37" y="37" width="126" height="126" rx="5" fill="white"/>
<rect x="36.4" y="36.4" width="81.2" height="92.2" fill="#0FA7F0" fill-opacity="0.04" stroke="#DDDDE6" stroke-width="1.2"/>
<rect x="0.6" y="-0.6" width="46.2" height="92.2" transform="matrix(-1 0 0 1 164.2 37)" fill="#F2E800" fill-opacity="0.1" stroke="#DDDDE6" stroke-width="1.2"/>
<rect x="-0.6" y="0.6" width="81.2" height="35.2" transform="matrix(1 0 0 -1 37 164.2)" fill="#FFD7D7" stroke="#DDDDE6" stroke-width="1.2"/>
<rect x="163.6" y="163.6" width="46.2" height="35.2" transform="rotate(-180 163.6 163.6)" fill="#B4B4B4" fill-opacity="0.1" stroke="#DDDDE6" stroke-width="1.2"/>
<path d="M53.22 149L50.934 145.895L51.663 145.445L54.246 149H53.22ZM48.981 149V142.7H49.863V149H48.981ZM49.593 146.228V145.436H51.636V146.228H49.593ZM51.744 145.949L50.916 145.823L53.175 142.7H54.138L51.744 145.949ZM57.006 149.054C56.526 149.054 56.1 148.949 55.728 148.739C55.356 148.529 55.062 148.241 54.846 147.875C54.63 147.503 54.522 147.083 54.522 146.615C54.522 146.141 54.63 145.721 54.846 145.355C55.062 144.989 55.356 144.704 55.728 144.5C56.1 144.29 56.526 144.185 57.006 144.185C57.48 144.185 57.903 144.29 58.275 144.5C58.653 144.704 58.947 144.989 59.157 145.355C59.373 145.715 59.481 146.135 59.481 146.615C59.481 147.089 59.373 147.509 59.157 147.875C58.947 148.241 58.653 148.529 58.275 148.739C57.903 148.949 57.48 149.054 57.006 149.054ZM57.006 148.298C57.312 148.298 57.585 148.229 57.825 148.091C58.071 147.953 58.263 147.758 58.401 147.506C58.539 147.248 58.608 146.951 58.608 146.615C58.608 146.273 58.539 145.979 58.401 145.733C58.263 145.481 58.071 145.286 57.825 145.148C57.585 145.01 57.312 144.941 57.006 144.941C56.7 144.941 56.427 145.01 56.187 145.148C55.947 145.286 55.755 145.481 55.611 145.733C55.467 145.979 55.395 146.273 55.395 146.615C55.395 146.951 55.467 147.248 55.611 147.506C55.755 147.758 55.947 147.953 56.187 148.091C56.427 148.229 56.7 148.298 57.006 148.298ZM60.7286 149V144.23H61.5926V146.255H64.3106V144.23H65.1746V149H64.3106V147.002H61.5926V149H60.7286ZM70.3106 149L68.4656 146.678L69.1766 146.246L71.3276 149H70.3106ZM66.8546 149V144.23H67.7186V149H66.8546ZM67.4576 146.984V146.246H69.0326V146.984H67.4576ZM69.2486 146.714L68.4476 146.606L70.2746 144.23H71.2016L69.2486 146.714ZM72.204 150.8C71.976 150.8 71.754 150.761 71.538 150.683C71.322 150.611 71.136 150.503 70.98 150.359L71.349 149.711C71.469 149.825 71.601 149.912 71.745 149.972C71.889 150.032 72.042 150.062 72.204 150.062C72.414 150.062 72.588 150.008 72.726 149.9C72.864 149.792 72.993 149.6 73.113 149.324L73.41 148.667L73.5 148.559L75.372 144.23H76.218L73.905 149.477C73.767 149.813 73.611 150.077 73.437 150.269C73.269 150.461 73.083 150.596 72.879 150.674C72.675 150.758 72.45 150.8 72.204 150.8ZM73.338 149.153L71.16 144.23H72.06L73.914 148.478L73.338 149.153ZM79.6316 149.054C79.2356 149.054 78.8726 148.964 78.5426 148.784C78.2186 148.598 77.9576 148.325 77.7596 147.965C77.5676 147.605 77.4716 147.155 77.4716 146.615C77.4716 146.075 77.5646 145.625 77.7506 145.265C77.9426 144.905 78.2006 144.635 78.5246 144.455C78.8546 144.275 79.2236 144.185 79.6316 144.185C80.0996 144.185 80.5136 144.287 80.8736 144.491C81.2336 144.695 81.5186 144.98 81.7286 145.346C81.9386 145.706 82.0436 146.129 82.0436 146.615C82.0436 147.101 81.9386 147.527 81.7286 147.893C81.5186 148.259 81.2336 148.544 80.8736 148.748C80.5136 148.952 80.0996 149.054 79.6316 149.054ZM77.1026 150.746V144.23H77.9306V145.517L77.8766 146.624L77.9666 147.731V150.746H77.1026ZM79.5596 148.298C79.8656 148.298 80.1386 148.229 80.3786 148.091C80.6246 147.953 80.8166 147.758 80.9546 147.506C81.0986 147.248 81.1706 146.951 81.1706 146.615C81.1706 146.273 81.0986 145.979 80.9546 145.733C80.8166 145.481 80.6246 145.286 80.3786 145.148C80.1386 145.01 79.8656 144.941 79.5596 144.941C79.2596 144.941 78.9866 145.01 78.7406 145.148C78.5006 145.286 78.3086 145.481 78.1646 145.733C78.0266 145.979 77.9576 146.273 77.9576 146.615C77.9576 146.951 78.0266 147.248 78.1646 147.506C78.3086 147.758 78.5006 147.953 78.7406 148.091C78.9866 148.229 79.2596 148.298 79.5596 148.298ZM85.4229 149.054C84.9129 149.054 84.4629 148.949 84.0729 148.739C83.6889 148.529 83.3889 148.241 83.1729 147.875C82.9629 147.509 82.8579 147.089 82.8579 146.615C82.8579 146.141 82.9599 145.721 83.1639 145.355C83.3739 144.989 83.6589 144.704 84.0189 144.5C84.3849 144.29 84.7959 144.185 85.2519 144.185C85.7139 144.185 86.1219 144.287 86.4759 144.491C86.8299 144.695 87.1059 144.983 87.3039 145.355C87.5079 145.721 87.6099 146.15 87.6099 146.642C87.6099 146.678 87.6069 146.72 87.6009 146.768C87.6009 146.816 87.5979 146.861 87.5919 146.903H83.5329V146.282H87.1419L86.7909 146.498C86.7969 146.192 86.7339 145.919 86.6019 145.679C86.4699 145.439 86.2869 145.253 86.0529 145.121C85.8249 144.983 85.5579 144.914 85.2519 144.914C84.9519 144.914 84.6849 144.983 84.4509 145.121C84.2169 145.253 84.0339 145.442 83.9019 145.688C83.7699 145.928 83.7039 146.204 83.7039 146.516V146.66C83.7039 146.978 83.7759 147.263 83.9199 147.515C84.0699 147.761 84.2769 147.953 84.5409 148.091C84.8049 148.229 85.1079 148.298 85.4499 148.298C85.7319 148.298 85.9869 148.25 86.2149 148.154C86.4489 148.058 86.6529 147.914 86.8269 147.722L87.3039 148.28C87.0879 148.532 86.8179 148.724 86.4939 148.856C86.1759 148.988 85.8189 149.054 85.4229 149.054ZM88.9503 149V144.23H89.8143V146.255H92.5323V144.23H93.3963V149H92.5323V147.002H89.8143V149H88.9503ZM96.0213 149V144.761L96.2373 144.986H94.2753V144.23H98.6313V144.986H96.6783L96.8853 144.761V149H96.0213ZM102.589 149V143.06L102.976 143.483H101.167V142.7H103.48V149H102.589Z" fill="#BA2E2E"/>
<path d="M53.22 116L50.934 112.895L51.663 112.445L54.246 116H53.22ZM48.981 116V109.7H49.863V116H48.981ZM49.593 113.228V112.436H51.636V113.228H49.593ZM51.744 112.949L50.916 112.823L53.175 109.7H54.138L51.744 112.949ZM57.006 116.054C56.526 116.054 56.1 115.949 55.728 115.739C55.356 115.529 55.062 115.241 54.846 114.875C54.63 114.503 54.522 114.083 54.522 113.615C54.522 113.141 54.63 112.721 54.846 112.355C55.062 111.989 55.356 111.704 55.728 111.5C56.1 111.29 56.526 111.185 57.006 111.185C57.48 111.185 57.903 111.29 58.275 111.5C58.653 111.704 58.947 111.989 59.157 112.355C59.373 112.715 59.481 113.135 59.481 113.615C59.481 114.089 59.373 114.509 59.157 114.875C58.947 115.241 58.653 115.529 58.275 115.739C57.903 115.949 57.48 116.054 57.006 116.054ZM57.006 115.298C57.312 115.298 57.585 115.229 57.825 115.091C58.071 114.953 58.263 114.758 58.401 114.506C58.539 114.248 58.608 113.951 58.608 113.615C58.608 113.273 58.539 112.979 58.401 112.733C58.263 112.481 58.071 112.286 57.825 112.148C57.585 112.01 57.312 111.941 57.006 111.941C56.7 111.941 56.427 112.01 56.187 112.148C55.947 112.286 55.755 112.481 55.611 112.733C55.467 112.979 55.395 113.273 55.395 113.615C55.395 113.951 55.467 114.248 55.611 114.506C55.755 114.758 55.947 114.953 56.187 115.091C56.427 115.229 56.7 115.298 57.006 115.298ZM60.7286 116V111.23H61.5926V113.255H64.3106V111.23H65.1746V116H64.3106V114.002H61.5926V116H60.7286ZM70.3106 116L68.4656 113.678L69.1766 113.246L71.3276 116H70.3106ZM66.8546 116V111.23H67.7186V116H66.8546ZM67.4576 113.984V113.246H69.0326V113.984H67.4576ZM69.2486 113.714L68.4476 113.606L70.2746 111.23H71.2016L69.2486 113.714ZM72.204 117.8C71.976 117.8 71.754 117.761 71.538 117.683C71.322 117.611 71.136 117.503 70.98 117.359L71.349 116.711C71.469 116.825 71.601 116.912 71.745 116.972C71.889 117.032 72.042 117.062 72.204 117.062C72.414 117.062 72.588 117.008 72.726 116.9C72.864 116.792 72.993 116.6 73.113 116.324L73.41 115.667L73.5 115.559L75.372 111.23H76.218L73.905 116.477C73.767 116.813 73.611 117.077 73.437 117.269C73.269 117.461 73.083 117.596 72.879 117.674C72.675 117.758 72.45 117.8 72.204 117.8ZM73.338 116.153L71.16 111.23H72.06L73.914 115.478L73.338 116.153ZM79.6316 116.054C79.2356 116.054 78.8726 115.964 78.5426 115.784C78.2186 115.598 77.9576 115.325 77.7596 114.965C77.5676 114.605 77.4716 114.155 77.4716 113.615C77.4716 113.075 77.5646 112.625 77.7506 112.265C77.9426 111.905 78.2006 111.635 78.5246 111.455C78.8546 111.275 79.2236 111.185 79.6316 111.185C80.0996 111.185 80.5136 111.287 80.8736 111.491C81.2336 111.695 81.5186 111.98 81.7286 112.346C81.9386 112.706 82.0436 113.129 82.0436 113.615C82.0436 114.101 81.9386 114.527 81.7286 114.893C81.5186 115.259 81.2336 115.544 80.8736 115.748C80.5136 115.952 80.0996 116.054 79.6316 116.054ZM77.1026 117.746V111.23H77.9306V112.517L77.8766 113.624L77.9666 114.731V117.746H77.1026ZM79.5596 115.298C79.8656 115.298 80.1386 115.229 80.3786 115.091C80.6246 114.953 80.8166 114.758 80.9546 114.506C81.0986 114.248 81.1706 113.951 81.1706 113.615C81.1706 113.273 81.0986 112.979 80.9546 112.733C80.8166 112.481 80.6246 112.286 80.3786 112.148C80.1386 112.01 79.8656 111.941 79.5596 111.941C79.2596 111.941 78.9866 112.01 78.7406 112.148C78.5006 112.286 78.3086 112.481 78.1646 112.733C78.0266 112.979 77.9576 113.273 77.9576 113.615C77.9576 113.951 78.0266 114.248 78.1646 114.506C78.3086 114.758 78.5006 114.953 78.7406 115.091C78.9866 115.229 79.2596 115.298 79.5596 115.298ZM85.4229 116.054C84.9129 116.054 84.4629 115.949 84.0729 115.739C83.6889 115.529 83.3889 115.241 83.1729 114.875C82.9629 114.509 82.8579 114.089 82.8579 113.615C82.8579 113.141 82.9599 112.721 83.1639 112.355C83.3739 111.989 83.6589 111.704 84.0189 111.5C84.3849 111.29 84.7959 111.185 85.2519 111.185C85.7139 111.185 86.1219 111.287 86.4759 111.491C86.8299 111.695 87.1059 111.983 87.3039 112.355C87.5079 112.721 87.6099 113.15 87.6099 113.642C87.6099 113.678 87.6069 113.72 87.6009 113.768C87.6009 113.816 87.5979 113.861 87.5919 113.903H83.5329V113.282H87.1419L86.7909 113.498C86.7969 113.192 86.7339 112.919 86.6019 112.679C86.4699 112.439 86.2869 112.253 86.0529 112.121C85.8249 111.983 85.5579 111.914 85.2519 111.914C84.9519 111.914 84.6849 111.983 84.4509 112.121C84.2169 112.253 84.0339 112.442 83.9019 112.688C83.7699 112.928 83.7039 113.204 83.7039 113.516V113.66C83.7039 113.978 83.7759 114.263 83.9199 114.515C84.0699 114.761 84.2769 114.953 84.5409 115.091C84.8049 115.229 85.1079 115.298 85.4499 115.298C85.7319 115.298 85.9869 115.25 86.2149 115.154C86.4489 115.058 86.6529 114.914 86.8269 114.722L87.3039 115.28C87.0879 115.532 86.8179 115.724 86.4939 115.856C86.1759 115.988 85.8189 116.054 85.4229 116.054ZM88.9503 116V111.23H89.8143V113.255H92.5323V111.23H93.3963V116H92.5323V114.002H89.8143V116H88.9503ZM96.0213 116V111.761L96.2373 111.986H94.2753V111.23H98.6313V111.986H96.6783L96.8853 111.761V116H96.0213ZM101.428 116V115.388L103.993 112.913C104.221 112.697 104.389 112.508 104.497 112.346C104.611 112.178 104.686 112.025 104.722 111.887C104.764 111.743 104.785 111.605 104.785 111.473C104.785 111.149 104.671 110.894 104.443 110.708C104.215 110.522 103.882 110.429 103.444 110.429C103.108 110.429 102.805 110.486 102.535 110.6C102.265 110.708 102.031 110.879 101.833 111.113L101.221 110.582C101.461 110.276 101.782 110.042 102.184 109.88C102.592 109.712 103.039 109.628 103.525 109.628C103.963 109.628 104.344 109.7 104.668 109.844C104.992 109.982 105.241 110.183 105.415 110.447C105.595 110.711 105.685 111.023 105.685 111.383C105.685 111.587 105.658 111.788 105.604 111.986C105.55 112.184 105.448 112.394 105.298 112.616C105.148 112.838 104.932 113.087 104.65 113.363L102.364 115.568L102.148 115.217H105.955V116H101.428Z" fill="#274F63"/>
<path d="M129.22 116L126.934 112.895L127.663 112.445L130.246 116H129.22ZM124.981 116V109.7H125.863V116H124.981ZM125.593 113.228V112.436H127.636V113.228H125.593ZM127.744 112.949L126.916 112.823L129.175 109.7H130.138L127.744 112.949ZM133.006 116.054C132.526 116.054 132.1 115.949 131.728 115.739C131.356 115.529 131.062 115.241 130.846 114.875C130.63 114.503 130.522 114.083 130.522 113.615C130.522 113.141 130.63 112.721 130.846 112.355C131.062 111.989 131.356 111.704 131.728 111.5C132.1 111.29 132.526 111.185 133.006 111.185C133.48 111.185 133.903 111.29 134.275 111.5C134.653 111.704 134.947 111.989 135.157 112.355C135.373 112.715 135.481 113.135 135.481 113.615C135.481 114.089 135.373 114.509 135.157 114.875C134.947 115.241 134.653 115.529 134.275 115.739C133.903 115.949 133.48 116.054 133.006 116.054ZM133.006 115.298C133.312 115.298 133.585 115.229 133.825 115.091C134.071 114.953 134.263 114.758 134.401 114.506C134.539 114.248 134.608 113.951 134.608 113.615C134.608 113.273 134.539 112.979 134.401 112.733C134.263 112.481 134.071 112.286 133.825 112.148C133.585 112.01 133.312 111.941 133.006 111.941C132.7 111.941 132.427 112.01 132.187 112.148C131.947 112.286 131.755 112.481 131.611 112.733C131.467 112.979 131.395 113.273 131.395 113.615C131.395 113.951 131.467 114.248 131.611 114.506C131.755 114.758 131.947 114.953 132.187 115.091C132.427 115.229 132.7 115.298 133.006 115.298ZM136.729 116V111.23H137.593V113.255H140.311V111.23H141.175V116H140.311V114.002H137.593V116H136.729ZM146.311 116L144.466 113.678L145.177 113.246L147.328 116H146.311ZM142.855 116V111.23H143.719V116H142.855ZM143.458 113.984V113.246H145.033V113.984H143.458ZM145.249 113.714L144.448 113.606L146.275 111.23H147.202L145.249 113.714ZM152.171 116.072C151.727 116.072 151.295 116.003 150.875 115.865C150.461 115.727 150.122 115.541 149.858 115.307L150.272 114.596C150.482 114.794 150.755 114.956 151.091 115.082C151.427 115.208 151.787 115.271 152.171 115.271C152.639 115.271 153.002 115.172 153.26 114.974C153.524 114.77 153.656 114.497 153.656 114.155C153.656 113.825 153.53 113.561 153.278 113.363C153.032 113.159 152.639 113.057 152.099 113.057H151.595V112.427L153.467 110.123L153.593 110.483H150.146V109.7H154.304V110.312L152.441 112.607L151.973 112.328H152.27C153.032 112.328 153.602 112.499 153.98 112.841C154.364 113.183 154.556 113.618 154.556 114.146C154.556 114.5 154.469 114.824 154.295 115.118C154.121 115.412 153.857 115.646 153.503 115.82C153.155 115.988 152.711 116.072 152.171 116.072Z" fill="#74712E"/>
<path d="M134.981 149V142.7H137.69C138.374 142.7 138.911 142.838 139.301 143.114C139.691 143.39 139.886 143.792 139.886 144.32C139.886 144.836 139.7 145.232 139.328 145.508C138.956 145.778 138.467 145.913 137.861 145.913L138.023 145.643C138.725 145.643 139.262 145.784 139.634 146.066C140.012 146.342 140.201 146.747 140.201 147.281C140.201 147.821 140.003 148.244 139.607 148.55C139.217 148.85 138.635 149 137.861 149H134.981ZM135.872 148.289H137.843C138.323 148.289 138.683 148.202 138.923 148.028C139.169 147.848 139.292 147.575 139.292 147.209C139.292 146.843 139.169 146.576 138.923 146.408C138.683 146.24 138.323 146.156 137.843 146.156H135.872V148.289ZM135.872 145.472H137.627C138.065 145.472 138.398 145.385 138.626 145.211C138.86 145.037 138.977 144.782 138.977 144.446C138.977 144.104 138.86 143.846 138.626 143.672C138.398 143.498 138.065 143.411 137.627 143.411H135.872V145.472ZM141.561 149V144.23H142.425V147.704L145.35 144.23H146.133V149H145.269V145.526L142.353 149H141.561Z" fill="#454545"/>
<circle cx="49" cy="88" r="1" fill="#52BEF3"/>
<circle cx="68" cy="74" r="1" fill="#52BEF3"/>
<circle cx="82" cy="82" r="1" fill="#52BEF3"/>
<circle cx="104" cy="55" r="1" fill="#52BEF3"/>
<circle cx="126" cy="94" r="1" fill="#F28100"/>
<circle cx="62" cy="135" r="1" fill="#F13434"/>
<circle cx="79" cy="133" r="1" fill="#F13434"/>
<circle cx="86" cy="135" r="1" fill="#F13434"/>
<circle cx="134" cy="80" r="1" fill="#F28100"/>
<circle cx="139" cy="88" r="1" fill="#F28100"/>
<circle cx="153" cy="48" r="1" fill="#F28100"/>
</g>
<rect x="36.4" y="36.4" width="127.2" height="127.2" rx="5.6" stroke="#DDDDE6" stroke-width="1.2"/>
<path d="M16.8919 158.903V158.156H19.3129V158.903H16.8919ZM21.16 161V155.06L21.547 155.483H19.738V154.7H22.051V161H21.16ZM26.0031 161.072C25.5111 161.072 25.0701 160.946 24.6801 160.694C24.2961 160.442 23.9901 160.076 23.7621 159.596C23.5401 159.116 23.4291 158.534 23.4291 157.85C23.4291 157.166 23.5401 156.584 23.7621 156.104C23.9901 155.624 24.2961 155.258 24.6801 155.006C25.0701 154.754 25.5111 154.628 26.0031 154.628C26.4891 154.628 26.9271 154.754 27.3171 155.006C27.7071 155.258 28.0131 155.624 28.2351 156.104C28.4571 156.584 28.5681 157.166 28.5681 157.85C28.5681 158.534 28.4571 159.116 28.2351 159.596C28.0131 160.076 27.7071 160.442 27.3171 160.694C26.9271 160.946 26.4891 161.072 26.0031 161.072ZM26.0031 160.271C26.3331 160.271 26.6211 160.181 26.8671 160.001C27.1191 159.821 27.3141 159.551 27.4521 159.191C27.5961 158.831 27.6681 158.384 27.6681 157.85C27.6681 157.316 27.5961 156.869 27.4521 156.509C27.3141 156.149 27.1191 155.879 26.8671 155.699C26.6211 155.519 26.3331 155.429 26.0031 155.429C25.6731 155.429 25.3821 155.519 25.1301 155.699C24.8781 155.879 24.6801 156.149 24.5361 156.509C24.3981 156.869 24.3291 157.316 24.3291 157.85C24.3291 158.384 24.3981 158.831 24.5361 159.191C24.6801 159.551 24.8781 159.821 25.1301 160.001C25.3821 160.181 25.6731 160.271 26.0031 160.271Z" fill="#DDDDE6"/>
<path d="M88.513 176.903V176.156H90.934V176.903H88.513ZM92.7811 179V173.06L93.1681 173.483H91.3591V172.7H93.6721V179H92.7811ZM97.6242 179.072C97.1322 179.072 96.6912 178.946 96.3012 178.694C95.9172 178.442 95.6112 178.076 95.3832 177.596C95.1612 177.116 95.0502 176.534 95.0502 175.85C95.0502 175.166 95.1612 174.584 95.3832 174.104C95.6112 173.624 95.9172 173.258 96.3012 173.006C96.6912 172.754 97.1322 172.628 97.6242 172.628C98.1102 172.628 98.5482 172.754 98.9382 173.006C99.3282 173.258 99.6342 173.624 99.8562 174.104C100.078 174.584 100.189 175.166 100.189 175.85C100.189 176.534 100.078 177.116 99.8562 177.596C99.6342 178.076 99.3282 178.442 98.9382 178.694C98.5482 178.946 98.1102 179.072 97.6242 179.072ZM97.6242 178.271C97.9542 178.271 98.2422 178.181 98.4882 178.001C98.7402 177.821 98.9352 177.551 99.0732 177.191C99.2172 176.831 99.2892 176.384 99.2892 175.85C99.2892 175.316 99.2172 174.869 99.0732 174.509C98.9352 174.149 98.7402 173.879 98.4882 173.699C98.2422 173.519 97.9542 173.429 97.6242 173.429C97.2942 173.429 97.0032 173.519 96.7512 173.699C96.4992 173.879 96.3012 174.149 96.1572 174.509C96.0192 174.869 95.9502 175.316 95.9502 175.85C95.9502 176.384 96.0192 176.831 96.1572 177.191C96.3012 177.551 96.4992 177.821 96.7512 178.001C97.0032 178.181 97.2942 178.271 97.6242 178.271Z" fill="#DDDDE6"/>
<path d="M26.0031 132.072C25.5111 132.072 25.0701 131.946 24.6801 131.694C24.2961 131.442 23.9901 131.076 23.7621 130.596C23.5401 130.116 23.4291 129.534 23.4291 128.85C23.4291 128.166 23.5401 127.584 23.7621 127.104C23.9901 126.624 24.2961 126.258 24.6801 126.006C25.0701 125.754 25.5111 125.628 26.0031 125.628C26.4891 125.628 26.9271 125.754 27.3171 126.006C27.7071 126.258 28.0131 126.624 28.2351 127.104C28.4571 127.584 28.5681 128.166 28.5681 128.85C28.5681 129.534 28.4571 130.116 28.2351 130.596C28.0131 131.076 27.7071 131.442 27.3171 131.694C26.9271 131.946 26.4891 132.072 26.0031 132.072ZM26.0031 131.271C26.3331 131.271 26.6211 131.181 26.8671 131.001C27.1191 130.821 27.3141 130.551 27.4521 130.191C27.5961 129.831 27.6681 129.384 27.6681 128.85C27.6681 128.316 27.5961 127.869 27.4521 127.509C27.3141 127.149 27.1191 126.879 26.8671 126.699C26.6211 126.519 26.3331 126.429 26.0031 126.429C25.6731 126.429 25.3821 126.519 25.1301 126.699C24.8781 126.879 24.6801 127.149 24.5361 127.509C24.3981 127.869 24.3291 128.316 24.3291 128.85C24.3291 129.384 24.3981 129.831 24.5361 130.191C24.6801 130.551 24.8781 130.821 25.1301 131.001C25.3821 131.181 25.6731 131.271 26.0031 131.271Z" fill="#DDDDE6"/>
<path d="M64.513 176.903V176.156H66.934V176.903H64.513ZM68.7811 179V173.06L69.1681 173.483H67.3591V172.7H69.6721V179H68.7811ZM73.0842 179.072C72.6402 179.072 72.2082 179.003 71.7882 178.865C71.3742 178.727 71.0352 178.541 70.7712 178.307L71.1852 177.596C71.3952 177.794 71.6682 177.956 72.0042 178.082C72.3402 178.208 72.6972 178.271 73.0752 178.271C73.5552 178.271 73.9242 178.169 74.1822 177.965C74.4402 177.761 74.5692 177.488 74.5692 177.146C74.5692 176.912 74.5122 176.708 74.3982 176.534C74.2842 176.36 74.0862 176.228 73.8042 176.138C73.5282 176.042 73.1472 175.994 72.6612 175.994H71.2302L71.5632 172.7H75.1182V173.483H71.8962L72.3642 173.042L72.1032 175.643L71.6352 175.211H72.8502C73.4802 175.211 73.9872 175.292 74.3712 175.454C74.7552 175.616 75.0342 175.841 75.2082 176.129C75.3822 176.411 75.4692 176.738 75.4692 177.11C75.4692 177.47 75.3822 177.8 75.2082 178.1C75.0342 178.394 74.7702 178.631 74.4162 178.811C74.0682 178.985 73.6242 179.072 73.0842 179.072Z" fill="#DDDDE6"/>
<path d="M21.16 103V97.06L21.547 97.483H19.738V96.7H22.051V103H21.16ZM26.0031 103.072C25.5111 103.072 25.0701 102.946 24.6801 102.694C24.2961 102.442 23.9901 102.076 23.7621 101.596C23.5401 101.116 23.4291 100.534 23.4291 99.85C23.4291 99.166 23.5401 98.584 23.7621 98.104C23.9901 97.624 24.2961 97.258 24.6801 97.006C25.0701 96.754 25.5111 96.628 26.0031 96.628C26.4891 96.628 26.9271 96.754 27.3171 97.006C27.7071 97.258 28.0131 97.624 28.2351 98.104C28.4571 98.584 28.5681 99.166 28.5681 99.85C28.5681 100.534 28.4571 101.116 28.2351 101.596C28.0131 102.076 27.7071 102.442 27.3171 102.694C26.9271 102.946 26.4891 103.072 26.0031 103.072ZM26.0031 102.271C26.3331 102.271 26.6211 102.181 26.8671 102.001C27.1191 101.821 27.3141 101.551 27.4521 101.191C27.5961 100.831 27.6681 100.384 27.6681 99.85C27.6681 99.316 27.5961 98.869 27.4521 98.509C27.3141 98.149 27.1191 97.879 26.8671 97.699C26.6211 97.519 26.3331 97.429 26.0031 97.429C25.6731 97.429 25.3821 97.519 25.1301 97.699C24.8781 97.879 24.6801 98.149 24.5361 98.509C24.3981 98.869 24.3291 99.316 24.3291 99.85C24.3291 100.384 24.3981 100.831 24.5361 101.191C24.6801 101.551 24.8781 101.821 25.1301 102.001C25.3821 102.181 25.6731 102.271 26.0031 102.271Z" fill="#DDDDE6"/>
<path d="M116.006 179.072C115.514 179.072 115.073 178.946 114.683 178.694C114.299 178.442 113.993 178.076 113.765 177.596C113.543 177.116 113.432 176.534 113.432 175.85C113.432 175.166 113.543 174.584 113.765 174.104C113.993 173.624 114.299 173.258 114.683 173.006C115.073 172.754 115.514 172.628 116.006 172.628C116.492 172.628 116.93 172.754 117.32 173.006C117.71 173.258 118.016 173.624 118.238 174.104C118.46 174.584 118.571 175.166 118.571 175.85C118.571 176.534 118.46 177.116 118.238 177.596C118.016 178.076 117.71 178.442 117.32 178.694C116.93 178.946 116.492 179.072 116.006 179.072ZM116.006 178.271C116.336 178.271 116.624 178.181 116.87 178.001C117.122 177.821 117.317 177.551 117.455 177.191C117.599 176.831 117.671 176.384 117.671 175.85C117.671 175.316 117.599 174.869 117.455 174.509C117.317 174.149 117.122 173.879 116.87 173.699C116.624 173.519 116.336 173.429 116.006 173.429C115.676 173.429 115.385 173.519 115.133 173.699C114.881 173.879 114.683 174.149 114.539 174.509C114.401 174.869 114.332 175.316 114.332 175.85C114.332 176.384 114.401 176.831 114.539 177.191C114.683 177.551 114.881 177.821 115.133 178.001C115.385 178.181 115.676 178.271 116.006 178.271Z" fill="#DDDDE6"/>
<path d="M21.995 74V68.06L22.382 68.483H20.573V67.7H22.886V74H21.995ZM26.298 74.072C25.854 74.072 25.422 74.003 25.002 73.865C24.588 73.727 24.249 73.541 23.985 73.307L24.399 72.596C24.609 72.794 24.882 72.956 25.218 73.082C25.554 73.208 25.911 73.271 26.289 73.271C26.769 73.271 27.138 73.169 27.396 72.965C27.654 72.761 27.783 72.488 27.783 72.146C27.783 71.912 27.726 71.708 27.612 71.534C27.498 71.36 27.3 71.228 27.018 71.138C26.742 71.042 26.361 70.994 25.875 70.994H24.444L24.777 67.7H28.332V68.483H25.11L25.578 68.042L25.317 70.643L24.849 70.211H26.064C26.694 70.211 27.201 70.292 27.585 70.454C27.969 70.616 28.248 70.841 28.422 71.129C28.596 71.411 28.683 71.738 28.683 72.11C28.683 72.47 28.596 72.8 28.422 73.1C28.248 73.394 27.984 73.631 27.63 73.811C27.282 73.985 26.838 74.072 26.298 74.072Z" fill="#DDDDE6"/>
<path d="M37.513 176.903V176.156H39.934V176.903H37.513ZM40.6641 179V178.388L43.2291 175.913C43.4571 175.697 43.6251 175.508 43.7331 175.346C43.8471 175.178 43.9221 175.025 43.9581 174.887C44.0001 174.743 44.0211 174.605 44.0211 174.473C44.0211 174.149 43.9071 173.894 43.6791 173.708C43.4511 173.522 43.1181 173.429 42.6801 173.429C42.3441 173.429 42.0411 173.486 41.7711 173.6C41.5011 173.708 41.2671 173.879 41.0691 174.113L40.4571 173.582C40.6971 173.276 41.0181 173.042 41.4201 172.88C41.8281 172.712 42.2751 172.628 42.7611 172.628C43.1991 172.628 43.5801 172.7 43.9041 172.844C44.2281 172.982 44.4771 173.183 44.6511 173.447C44.8311 173.711 44.9211 174.023 44.9211 174.383C44.9211 174.587 44.8941 174.788 44.8401 174.986C44.7861 175.184 44.6841 175.394 44.5341 175.616C44.3841 175.838 44.1681 176.087 43.8861 176.363L41.6001 178.568L41.3841 178.217H45.1911V179H40.6641ZM48.4962 179.072C48.0042 179.072 47.5632 178.946 47.1732 178.694C46.7892 178.442 46.4832 178.076 46.2552 177.596C46.0332 177.116 45.9222 176.534 45.9222 175.85C45.9222 175.166 46.0332 174.584 46.2552 174.104C46.4832 173.624 46.7892 173.258 47.1732 173.006C47.5632 172.754 48.0042 172.628 48.4962 172.628C48.9822 172.628 49.4202 172.754 49.8102 173.006C50.2002 173.258 50.5062 173.624 50.7282 174.104C50.9502 174.584 51.0612 175.166 51.0612 175.85C51.0612 176.534 50.9502 177.116 50.7282 177.596C50.5062 178.076 50.2002 178.442 49.8102 178.694C49.4202 178.946 48.9822 179.072 48.4962 179.072ZM48.4962 178.271C48.8262 178.271 49.1142 178.181 49.3602 178.001C49.6122 177.821 49.8072 177.551 49.9452 177.191C50.0892 176.831 50.1612 176.384 50.1612 175.85C50.1612 175.316 50.0892 174.869 49.9452 174.509C49.8072 174.149 49.6122 173.879 49.3602 173.699C49.1142 173.519 48.8262 173.429 48.4962 173.429C48.1662 173.429 47.8752 173.519 47.6232 173.699C47.3712 173.879 47.1732 174.149 47.0292 174.509C46.8912 174.869 46.8222 175.316 46.8222 175.85C46.8222 176.384 46.8912 176.831 47.0292 177.191C47.1732 177.551 47.3712 177.821 47.6232 178.001C47.8752 178.181 48.1662 178.271 48.4962 178.271Z" fill="#DDDDE6"/>
<path d="M18.1709 45V44.388L20.7359 41.913C20.9639 41.697 21.1319 41.508 21.2399 41.346C21.3539 41.178 21.4289 41.025 21.4649 40.887C21.5069 40.743 21.5279 40.605 21.5279 40.473C21.5279 40.149 21.4139 39.894 21.1859 39.708C20.9579 39.522 20.6249 39.429 20.1869 39.429C19.8509 39.429 19.5479 39.486 19.2779 39.6C19.0079 39.708 18.7739 39.879 18.5759 40.113L17.9639 39.582C18.2039 39.276 18.5249 39.042 18.9269 38.88C19.3349 38.712 19.7819 38.628 20.2679 38.628C20.7059 38.628 21.0869 38.7 21.4109 38.844C21.7349 38.982 21.9839 39.183 22.1579 39.447C22.3379 39.711 22.4279 40.023 22.4279 40.383C22.4279 40.587 22.4009 40.788 22.3469 40.986C22.2929 41.184 22.1909 41.394 22.0409 41.616C21.8909 41.838 21.6749 42.087 21.3929 42.363L19.1069 44.568L18.8909 44.217H22.6979V45H18.1709ZM26.0031 45.072C25.5111 45.072 25.0701 44.946 24.6801 44.694C24.2961 44.442 23.9901 44.076 23.7621 43.596C23.5401 43.116 23.4291 42.534 23.4291 41.85C23.4291 41.166 23.5401 40.584 23.7621 40.104C23.9901 39.624 24.2961 39.258 24.6801 39.006C25.0701 38.754 25.5111 38.628 26.0031 38.628C26.4891 38.628 26.9271 38.754 27.3171 39.006C27.7071 39.258 28.0131 39.624 28.2351 40.104C28.4571 40.584 28.5681 41.166 28.5681 41.85C28.5681 42.534 28.4571 43.116 28.2351 43.596C28.0131 44.076 27.7071 44.442 27.3171 44.694C26.9271 44.946 26.4891 45.072 26.0031 45.072ZM26.0031 44.271C26.3331 44.271 26.6211 44.181 26.8671 44.001C27.1191 43.821 27.3141 43.551 27.4521 43.191C27.5961 42.831 27.6681 42.384 27.6681 41.85C27.6681 41.316 27.5961 40.869 27.4521 40.509C27.3141 40.149 27.1191 39.879 26.8671 39.699C26.6211 39.519 26.3331 39.429 26.0031 39.429C25.6731 39.429 25.3821 39.519 25.1301 39.699C24.8781 39.879 24.6801 40.149 24.5361 40.509C24.3981 40.869 24.3291 41.316 24.3291 41.85C24.3291 42.384 24.3981 42.831 24.5361 43.191C24.6801 43.551 24.8781 43.821 25.1301 44.001C25.3821 44.181 25.6731 44.271 26.0031 44.271Z" fill="#DDDDE6"/>
<path d="M155.494 179V173.06L155.881 173.483H154.072V172.7H156.385V179H155.494ZM160.337 179.072C159.845 179.072 159.404 178.946 159.014 178.694C158.63 178.442 158.324 178.076 158.096 177.596C157.874 177.116 157.763 176.534 157.763 175.85C157.763 175.166 157.874 174.584 158.096 174.104C158.324 173.624 158.63 173.258 159.014 173.006C159.404 172.754 159.845 172.628 160.337 172.628C160.823 172.628 161.261 172.754 161.651 173.006C162.041 173.258 162.347 173.624 162.569 174.104C162.791 174.584 162.902 175.166 162.902 175.85C162.902 176.534 162.791 177.116 162.569 177.596C162.347 178.076 162.041 178.442 161.651 178.694C161.261 178.946 160.823 179.072 160.337 179.072ZM160.337 178.271C160.667 178.271 160.955 178.181 161.201 178.001C161.453 177.821 161.648 177.551 161.786 177.191C161.93 176.831 162.002 176.384 162.002 175.85C162.002 175.316 161.93 174.869 161.786 174.509C161.648 174.149 161.453 173.879 161.201 173.699C160.955 173.519 160.667 173.429 160.337 173.429C160.007 173.429 159.716 173.519 159.464 173.699C159.212 173.879 159.014 174.149 158.87 174.509C158.732 174.869 158.663 175.316 158.663 175.85C158.663 176.384 158.732 176.831 158.87 177.191C159.014 177.551 159.212 177.821 159.464 178.001C159.716 178.181 160.007 178.271 160.337 178.271Z" fill="#DDDDE6"/>
<defs>
<clipPath id="clip0_1720_2793">
<rect x="37" y="37" width="126" height="126" rx="5" fill="white"/>
</clipPath>
</defs>
</svg>
