<svg width="432" height="342" viewBox="0 0 432 342" fill="none" xmlns="http://www.w3.org/2000/svg">
<rect width="432" height="342" rx="15" fill="white"/>
<path d="M112.553 50.3H115.472V65H112.322V55.949L108.437 61.85H106.61L102.725 55.928V65H99.575V50.3H102.494L107.534 57.944L112.553 50.3ZM127.136 62.396C127.136 62.844 127.374 63.068 127.85 63.068C128.046 63.068 128.228 63.04 128.396 62.984V64.895C127.864 65.091 127.325 65.189 126.779 65.189C125.715 65.189 124.973 64.811 124.553 64.055C123.503 64.881 122.292 65.294 120.92 65.294C119.926 65.294 119.086 65.021 118.4 64.475C117.728 63.915 117.392 63.159 117.392 62.207C117.392 61.409 117.63 60.744 118.106 60.212C118.582 59.68 119.135 59.323 119.765 59.141C120.395 58.945 121.081 58.847 121.823 58.847C122.649 58.847 123.447 58.938 124.217 59.12V58.763C124.217 58.245 124.014 57.832 123.608 57.524C123.202 57.216 122.614 57.062 121.844 57.062C120.724 57.062 119.534 57.314 118.274 57.818V55.298C119.618 54.85 120.92 54.626 122.18 54.626C125.484 54.626 127.136 56.145 127.136 59.183V62.396ZM122.495 60.59C121.893 60.59 121.389 60.702 120.983 60.926C120.577 61.15 120.374 61.5 120.374 61.976C120.374 62.34 120.521 62.641 120.815 62.879C121.123 63.103 121.501 63.215 121.949 63.215C122.831 63.215 123.587 62.942 124.217 62.396V60.821C123.573 60.667 122.999 60.59 122.495 60.59ZM132.879 65H129.96V54.92H137.646V57.377H132.879V65ZM148.054 62.396C148.054 62.844 148.292 63.068 148.768 63.068C148.964 63.068 149.146 63.04 149.314 62.984V64.895C148.782 65.091 148.243 65.189 147.697 65.189C146.633 65.189 145.891 64.811 145.471 64.055C144.421 64.881 143.21 65.294 141.838 65.294C140.844 65.294 140.004 65.021 139.318 64.475C138.646 63.915 138.31 63.159 138.31 62.207C138.31 61.409 138.548 60.744 139.024 60.212C139.5 59.68 140.053 59.323 140.683 59.141C141.313 58.945 141.999 58.847 142.741 58.847C143.567 58.847 144.365 58.938 145.135 59.12V58.763C145.135 58.245 144.932 57.832 144.526 57.524C144.12 57.216 143.532 57.062 142.762 57.062C141.642 57.062 140.452 57.314 139.192 57.818V55.298C140.536 54.85 141.838 54.626 143.098 54.626C146.402 54.626 148.054 56.145 148.054 59.183V62.396ZM143.413 60.59C142.811 60.59 142.307 60.702 141.901 60.926C141.495 61.15 141.292 61.5 141.292 61.976C141.292 62.34 141.439 62.641 141.733 62.879C142.041 63.103 142.419 63.215 142.867 63.215C143.749 63.215 144.505 62.942 145.135 62.396V60.821C144.491 60.667 143.917 60.59 143.413 60.59ZM159.152 62.207C159.152 63.061 158.732 63.789 157.892 64.391C157.052 64.979 155.82 65.273 154.196 65.273C152.684 65.273 151.403 65 150.353 64.454V62.123C150.759 62.347 151.291 62.55 151.949 62.732C152.607 62.9 153.23 62.984 153.818 62.984C155.386 62.984 156.17 62.606 156.17 61.85C156.17 61.458 155.995 61.199 155.645 61.073C155.309 60.933 154.84 60.863 154.238 60.863H152.369V58.931H154.238C155.386 58.931 155.96 58.616 155.96 57.986C155.96 57.272 155.302 56.915 153.986 56.915C153.426 56.915 152.817 56.999 152.159 57.167C151.501 57.335 150.962 57.531 150.542 57.755V55.445C151.592 54.885 152.859 54.605 154.343 54.605C155.953 54.605 157.122 54.899 157.85 55.487C158.578 56.061 158.942 56.768 158.942 57.608C158.942 58.182 158.781 58.658 158.459 59.036C158.151 59.414 157.745 59.673 157.241 59.813C158.515 60.205 159.152 61.003 159.152 62.207ZM163.652 65H161.111V54.92H164.03V60.59L168.524 54.92H171.044V65H168.146V59.33L163.652 65ZM176.437 65H173.518V54.92H176.437V58.742H180.511V54.92H183.43V65H180.511V61.178H176.437V65Z" fill="black"/>
<path d="M151.696 125V118.343H155.098L159.907 125H161.923L156.484 117.461L161.482 110.3H159.466L155.035 116.663H151.696V110.3H149.932V125H151.696ZM171.587 122.9V118.952C171.587 116.138 169.886 114.668 167.198 114.668C165.539 114.668 164.153 115.067 163.355 115.34V116.978C164.237 116.6 165.476 116.222 167.03 116.222C168.878 116.222 169.907 117.23 169.907 118.742V119.099C169.067 118.91 167.996 118.784 167.114 118.784C164.951 118.784 162.557 119.582 162.557 122.186C162.557 124.307 164.321 125.252 166.106 125.252C167.744 125.252 169.025 124.748 170.033 123.908C170.327 124.79 171.062 125.126 171.881 125.126C172.301 125.126 172.742 125.042 173.141 124.895V123.53C172.889 123.614 172.616 123.677 172.364 123.677C171.923 123.677 171.587 123.509 171.587 122.9ZM164.279 122.102C164.279 120.632 165.875 120.191 167.345 120.191C168.164 120.191 169.193 120.338 169.907 120.485V122.333C169.025 123.278 167.744 123.803 166.463 123.803C165.35 123.803 164.279 123.278 164.279 122.102ZM178.671 125V116.474H182.367V114.92H173.274V116.474H176.991V125H178.671ZM183.253 119.96C183.253 123.551 185.857 125.252 188.839 125.252C190.162 125.252 191.485 125 192.409 124.517V122.879C191.548 123.362 190.33 123.698 189.091 123.698C187.054 123.698 185.143 122.816 184.933 120.695H192.955C193.585 117.839 192.157 114.668 188.272 114.668C185.878 114.668 183.253 116.432 183.253 119.96ZM191.464 119.225H184.933C185.059 117.251 186.655 116.222 188.377 116.222C190.939 116.222 191.611 118.154 191.464 119.225ZM197.089 125V116.474H202.78V114.92H195.409V125H197.089ZM203.637 119.96C203.637 123.404 206.283 125.252 209.013 125.252C211.764 125.252 214.389 123.404 214.389 119.96C214.389 116.516 211.764 114.668 209.013 114.668C206.283 114.668 203.637 116.516 203.637 119.96ZM212.709 119.96C212.709 122.291 211.071 123.656 209.013 123.656C206.955 123.656 205.317 122.291 205.317 119.96C205.317 117.629 206.955 116.264 209.013 116.264C211.071 116.264 212.709 117.629 212.709 119.96ZM218.311 116.6V114.92H216.799V129.62H218.479V123.488C219.214 124.349 220.453 125.252 222.385 125.252C225.262 125.252 227.425 122.984 227.425 119.96C227.425 116.936 225.262 114.668 222.385 114.668C220.453 114.668 219.214 115.571 218.311 116.6ZM225.745 119.96C225.745 122.27 224.149 123.698 222.196 123.698C220.39 123.698 219.046 122.522 218.479 121.22V118.7C219.046 117.398 220.39 116.222 222.196 116.222C224.149 116.222 225.745 117.65 225.745 119.96ZM231.918 125H230.072V113.741H231.918V125ZM229.929 110.696C229.929 110.286 230.031 109.988 230.236 109.804C230.448 109.619 230.708 109.527 231.016 109.527C231.303 109.527 231.552 109.619 231.764 109.804C231.983 109.988 232.092 110.286 232.092 110.696C232.092 111.099 231.983 111.396 231.764 111.588C231.552 111.779 231.303 111.875 231.016 111.875C230.708 111.875 230.448 111.779 230.236 111.588C230.031 111.396 229.929 111.099 229.929 110.696ZM236.264 125L239.015 121.472H241.85V125H243.53V114.92H238.574C236.117 114.92 234.794 116.432 234.794 118.196C234.794 119.603 235.634 120.842 237.209 121.304L234.29 125H236.264ZM236.474 118.196C236.474 117.083 237.314 116.432 238.721 116.432H241.85V119.96H238.721C237.314 119.96 236.474 119.309 236.474 118.196ZM254.891 110.72L251.426 112.043V113.723L254.429 112.589V123.32H251.426V125H258.86V123.32H256.193V110.72H254.891Z" fill="black"/>
<path d="M152.725 175V168.994H155.098L159.109 175H162.595L157.555 167.461L162.322 160.3H158.815L155.098 166.138H152.725V160.3H149.575V175H152.725ZM172.624 172.396V169.183C172.624 165.865 170.692 164.626 167.668 164.626C166.114 164.626 164.581 165.025 163.762 165.298V167.818C164.707 167.44 165.946 167.062 167.332 167.062C168.907 167.062 169.705 167.755 169.705 168.763V169.12C168.991 168.952 168.109 168.847 167.311 168.847C165.295 168.847 162.88 169.645 162.88 172.207C162.88 174.202 164.518 175.294 166.408 175.294C167.899 175.294 169.054 174.832 170.041 174.055C170.461 174.811 171.238 175.189 172.267 175.189C172.834 175.189 173.422 175.063 173.884 174.895V172.984C173.695 173.047 173.506 173.068 173.338 173.068C172.96 173.068 172.624 172.921 172.624 172.396ZM167.983 170.59C168.592 170.59 169.264 170.716 169.705 170.821V172.396C169.033 172.984 168.256 173.215 167.437 173.215C166.555 173.215 165.862 172.732 165.862 171.976C165.862 170.947 166.912 170.59 167.983 170.59ZM180.287 175V167.377H183.5V164.92H174.176V167.377H177.389V175H180.287ZM184.233 169.96C184.233 173.467 186.879 175.294 190.071 175.294C191.583 175.294 192.822 175.063 193.767 174.664V172.375C192.906 172.753 191.877 172.984 190.722 172.984C189.063 172.984 187.509 172.375 187.173 170.905H194.271C194.943 167.923 193.599 164.626 189.42 164.626C187.152 164.626 184.233 166.159 184.233 169.96ZM191.646 169.015H187.152C187.194 167.629 188.286 166.852 189.525 166.852C191.352 166.852 191.751 168.322 191.646 169.015ZM199.162 175V167.377H203.929V164.92H196.243V175H199.162ZM204.658 169.96C204.658 173.488 207.304 175.294 210.223 175.294C213.163 175.294 215.788 173.488 215.788 169.96C215.788 166.432 213.163 164.626 210.223 164.626C207.304 164.626 204.658 166.432 204.658 169.96ZM212.827 169.96C212.827 171.514 211.903 172.69 210.223 172.69C208.564 172.69 207.64 171.514 207.64 169.96C207.64 168.406 208.564 167.23 210.223 167.23C211.903 167.23 212.827 168.406 212.827 169.96ZM220.277 166.39V164.92H217.694V179.62H220.613V173.929C221.264 174.643 222.335 175.294 223.931 175.294C227.123 175.294 228.845 172.711 228.845 169.96C228.845 167.209 227.123 164.626 223.931 164.626C222.062 164.626 220.907 165.487 220.277 166.39ZM225.863 169.96C225.863 171.535 224.876 172.837 223.217 172.837C221.936 172.837 220.991 172.039 220.592 171.157V168.763C220.991 167.881 221.936 167.083 223.217 167.083C224.876 167.083 225.863 168.385 225.863 169.96ZM231.026 160.573C231.026 159.554 231.593 159.045 232.728 159.045C233.863 159.045 234.43 159.554 234.43 160.573C234.43 161.058 234.287 161.438 234 161.711C233.719 161.978 233.295 162.111 232.728 162.111C231.593 162.111 231.026 161.598 231.026 160.573ZM234.287 175H231.159V163.536H234.287V175ZM239.571 175L241.818 171.997H243.456V175H246.375V164.92H240.915C238.269 164.92 236.883 166.558 236.883 168.448C236.883 169.813 237.576 171.031 238.941 171.619L236.295 175H239.571ZM239.844 168.532C239.844 167.692 240.453 167.23 241.503 167.23H243.456V169.813H241.503C240.453 169.813 239.844 169.351 239.844 168.532ZM253.585 161.938V164.878C255.097 163.723 256.777 163.177 258.205 163.177C259.654 163.177 260.578 163.723 260.578 164.773C260.578 166.138 259.297 166.705 257.806 167.566C255.706 168.805 253.102 170.149 253.102 173.593V175H263.812V172.291L256.672 172.312C256.693 171.388 258.142 170.611 259.843 169.603C261.712 168.49 263.707 167.062 263.707 164.647C263.707 161.728 261.376 160.426 258.499 160.426C256.756 160.426 255.055 160.888 253.585 161.938Z" fill="black"/>
<path d="M159.294 215.3H171.39V216.98H166.224V230H164.46V216.98H159.294V215.3ZM171.731 228.845C170.667 227.893 170.135 226.598 170.135 224.96C170.135 223.322 170.667 222.034 171.731 221.096C172.795 220.144 174.055 219.668 175.511 219.668C176.981 219.668 178.241 220.144 179.291 221.096C180.355 222.034 180.887 223.322 180.887 224.96C180.887 226.598 180.355 227.893 179.291 228.845C178.241 229.783 176.981 230.252 175.511 230.252C174.055 230.252 172.795 229.783 171.731 228.845ZM178.157 227.669C178.857 226.997 179.207 226.094 179.207 224.96C179.207 223.826 178.857 222.93 178.157 222.272C177.457 221.6 176.575 221.264 175.511 221.264C174.447 221.264 173.565 221.6 172.865 222.272C172.165 222.93 171.815 223.826 171.815 224.96C171.815 226.094 172.165 226.997 172.865 227.669C173.565 228.327 174.447 228.656 175.511 228.656C176.575 228.656 177.457 228.327 178.157 227.669ZM188.988 230H183.297V219.92H188.82C189.73 219.92 190.472 220.158 191.046 220.634C191.634 221.11 191.928 221.782 191.928 222.65C191.928 223.154 191.802 223.609 191.55 224.015C191.298 224.421 190.976 224.708 190.584 224.876C191.046 225.03 191.438 225.31 191.76 225.716C192.082 226.122 192.243 226.619 192.243 227.207C192.243 228.061 191.963 228.74 191.403 229.244C190.857 229.748 190.052 230 188.988 230ZM184.977 225.632V228.53H188.757C189.961 228.53 190.563 228.054 190.563 227.102C190.563 226.122 189.982 225.632 188.82 225.632H184.977ZM184.977 221.39V224.183H188.652C189.702 224.183 190.227 223.728 190.227 222.818C190.227 222.3 190.073 221.936 189.765 221.726C189.457 221.502 189.086 221.39 188.652 221.39H184.977ZM202.992 227.9C202.992 228.418 203.251 228.677 203.769 228.677C203.993 228.677 204.252 228.628 204.546 228.53V229.895C204.126 230.049 203.706 230.126 203.286 230.126C202.32 230.126 201.704 229.72 201.438 228.908C200.36 229.804 199.051 230.252 197.511 230.252C196.531 230.252 195.691 229.993 194.991 229.475C194.305 228.943 193.962 228.18 193.962 227.186C193.962 225.996 194.403 225.135 195.285 224.603C196.181 224.057 197.259 223.784 198.519 223.784C199.443 223.784 200.374 223.889 201.312 224.099V223.742C201.312 222.972 201.06 222.363 200.556 221.915C200.052 221.453 199.345 221.222 198.435 221.222C197.161 221.222 195.936 221.474 194.76 221.978V220.34C196.076 219.892 197.357 219.668 198.603 219.668C199.975 219.668 201.046 220.039 201.816 220.781C202.6 221.509 202.992 222.566 202.992 223.952V227.9ZM195.684 227.102C195.684 227.662 195.894 228.089 196.314 228.383C196.748 228.663 197.266 228.803 197.868 228.803C199.254 228.803 200.402 228.313 201.312 227.333V225.485C200.36 225.289 199.506 225.191 198.75 225.191C197.896 225.191 197.168 225.345 196.566 225.653C195.978 225.947 195.684 226.43 195.684 227.102ZM207.86 221.6C208.994 220.312 210.352 219.668 211.934 219.668C213.376 219.668 214.573 220.172 215.525 221.18C216.491 222.188 216.974 223.448 216.974 224.96C216.974 226.472 216.491 227.732 215.525 228.74C214.573 229.748 213.376 230.252 211.934 230.252C210.338 230.252 209.036 229.664 208.028 228.488V234.62H206.348V219.92H207.86V221.6ZM214.265 227.669C214.951 226.983 215.294 226.08 215.294 224.96C215.294 223.84 214.951 222.937 214.265 222.251C213.593 221.565 212.753 221.222 211.745 221.222C210.891 221.222 210.135 221.46 209.477 221.936C208.819 222.412 208.336 223 208.028 223.7V226.22C208.336 226.92 208.819 227.508 209.477 227.984C210.135 228.46 210.891 228.698 211.745 228.698C212.753 228.698 213.593 228.355 214.265 227.669ZM227.644 215.72H228.946V228.32H231.613V230H224.179V228.32H227.182V217.589L224.179 218.723V217.043L227.644 215.72Z" fill="black"/>
<path d="M159.294 262.3H171.39V263.98H166.224V277H164.46V263.98H159.294V262.3ZM171.731 275.845C170.667 274.893 170.135 273.598 170.135 271.96C170.135 270.322 170.667 269.034 171.731 268.096C172.795 267.144 174.055 266.668 175.511 266.668C176.981 266.668 178.241 267.144 179.291 268.096C180.355 269.034 180.887 270.322 180.887 271.96C180.887 273.598 180.355 274.893 179.291 275.845C178.241 276.783 176.981 277.252 175.511 277.252C174.055 277.252 172.795 276.783 171.731 275.845ZM178.157 274.669C178.857 273.997 179.207 273.094 179.207 271.96C179.207 270.826 178.857 269.93 178.157 269.272C177.457 268.6 176.575 268.264 175.511 268.264C174.447 268.264 173.565 268.6 172.865 269.272C172.165 269.93 171.815 270.826 171.815 271.96C171.815 273.094 172.165 273.997 172.865 274.669C173.565 275.327 174.447 275.656 175.511 275.656C176.575 275.656 177.457 275.327 178.157 274.669ZM188.988 277H183.297V266.92H188.82C189.73 266.92 190.472 267.158 191.046 267.634C191.634 268.11 191.928 268.782 191.928 269.65C191.928 270.154 191.802 270.609 191.55 271.015C191.298 271.421 190.976 271.708 190.584 271.876C191.046 272.03 191.438 272.31 191.76 272.716C192.082 273.122 192.243 273.619 192.243 274.207C192.243 275.061 191.963 275.74 191.403 276.244C190.857 276.748 190.052 277 188.988 277ZM184.977 272.632V275.53H188.757C189.961 275.53 190.563 275.054 190.563 274.102C190.563 273.122 189.982 272.632 188.82 272.632H184.977ZM184.977 268.39V271.183H188.652C189.702 271.183 190.227 270.728 190.227 269.818C190.227 269.3 190.073 268.936 189.765 268.726C189.457 268.502 189.086 268.39 188.652 268.39H184.977ZM202.992 274.9C202.992 275.418 203.251 275.677 203.769 275.677C203.993 275.677 204.252 275.628 204.546 275.53V276.895C204.126 277.049 203.706 277.126 203.286 277.126C202.32 277.126 201.704 276.72 201.438 275.908C200.36 276.804 199.051 277.252 197.511 277.252C196.531 277.252 195.691 276.993 194.991 276.475C194.305 275.943 193.962 275.18 193.962 274.186C193.962 272.996 194.403 272.135 195.285 271.603C196.181 271.057 197.259 270.784 198.519 270.784C199.443 270.784 200.374 270.889 201.312 271.099V270.742C201.312 269.972 201.06 269.363 200.556 268.915C200.052 268.453 199.345 268.222 198.435 268.222C197.161 268.222 195.936 268.474 194.76 268.978V267.34C196.076 266.892 197.357 266.668 198.603 266.668C199.975 266.668 201.046 267.039 201.816 267.781C202.6 268.509 202.992 269.566 202.992 270.952V274.9ZM195.684 274.102C195.684 274.662 195.894 275.089 196.314 275.383C196.748 275.663 197.266 275.803 197.868 275.803C199.254 275.803 200.402 275.313 201.312 274.333V272.485C200.36 272.289 199.506 272.191 198.75 272.191C197.896 272.191 197.168 272.345 196.566 272.653C195.978 272.947 195.684 273.43 195.684 274.102ZM207.86 268.6C208.994 267.312 210.352 266.668 211.934 266.668C213.376 266.668 214.573 267.172 215.525 268.18C216.491 269.188 216.974 270.448 216.974 271.96C216.974 273.472 216.491 274.732 215.525 275.74C214.573 276.748 213.376 277.252 211.934 277.252C210.338 277.252 209.036 276.664 208.028 275.488V281.62H206.348V266.92H207.86V268.6ZM214.265 274.669C214.951 273.983 215.294 273.08 215.294 271.96C215.294 270.84 214.951 269.937 214.265 269.251C213.593 268.565 212.753 268.222 211.745 268.222C210.891 268.222 210.135 268.46 209.477 268.936C208.819 269.412 208.336 270 208.028 270.7V273.22C208.336 273.92 208.819 274.508 209.477 274.984C210.135 275.46 210.891 275.698 211.745 275.698C212.753 275.698 213.593 275.355 214.265 274.669ZM224.494 263.854C225.824 262.93 227.35 262.468 229.072 262.468C230.556 262.468 231.739 262.804 232.621 263.476C233.503 264.148 233.944 265.086 233.944 266.29C233.944 266.864 233.832 267.403 233.608 267.907C233.398 268.411 233.076 268.873 232.642 269.293C232.222 269.713 231.809 270.07 231.403 270.364C231.011 270.644 230.514 270.959 229.912 271.309C229.842 271.351 229.625 271.477 229.261 271.687C228.911 271.897 228.687 272.03 228.589 272.086C228.505 272.142 228.309 272.268 228.001 272.464C227.707 272.646 227.511 272.779 227.413 272.863C227.329 272.947 227.175 273.08 226.951 273.262C226.741 273.444 226.594 273.598 226.51 273.724C226.44 273.85 226.342 274.011 226.216 274.207C226.104 274.389 226.027 274.571 225.985 274.753C225.943 274.935 225.922 275.131 225.922 275.341L234.049 275.32V277H223.99V276.16C223.99 275.376 224.116 274.669 224.368 274.039C224.62 273.395 224.977 272.849 225.439 272.401C225.915 271.939 226.384 271.554 226.846 271.246C227.308 270.924 227.847 270.581 228.463 270.217C228.603 270.147 228.708 270.091 228.778 270.049C230.052 269.307 230.885 268.74 231.277 268.348C231.879 267.732 232.18 267.039 232.18 266.269C232.18 265.569 231.893 265.037 231.319 264.673C230.759 264.295 229.961 264.106 228.925 264.106C227.413 264.106 225.936 264.61 224.494 265.618V263.854Z" fill="black"/>
<rect x="52.5" y="44.5" width="28" height="28" rx="2.5" stroke="#E6E6E6"/>
<path d="M66.5 73V168.5H95M95 117.5H67.5" stroke="#CDCDCD" stroke-dasharray="5 5"/>
<path d="M116.5 183V272.5H148.5" stroke="#CDCDCD" stroke-dasharray="5 5"/>
<path d="M117 222.5H148.5" stroke="#CDCDCD" stroke-dasharray="5 5"/>
<path d="M61 58.5H72" stroke="#0FA7F0"/>
<rect x="102.5" y="103.5" width="28" height="28" rx="2.5" stroke="#E6E6E6"/>
<path d="M111 117.5H122" stroke="#0FA7F0"/>
<line x1="116.5" y1="112" x2="116.5" y2="123" stroke="#0FA7F0"/>
<rect x="102.5" y="153.5" width="28" height="28" rx="2.5" stroke="#E6E6E6"/>
<path d="M111 167.5H122" stroke="#0FA7F0"/>
<rect x="252.5" y="212.5" width="86" height="23" rx="11.5" fill="#FFE6E4" stroke="#F64810"/>
<path d="M264.402 227V219.86H268.722V227H270.09V218.6H263.034V227H264.402ZM271.411 224.12C271.411 226.112 272.923 227.156 274.531 227.156C276.151 227.156 277.651 226.112 277.651 224.12C277.651 222.128 276.151 221.084 274.531 221.084C272.923 221.084 271.411 222.128 271.411 224.12ZM276.343 224.12C276.343 225.248 275.599 225.98 274.531 225.98C273.451 225.98 272.707 225.248 272.707 224.12C272.707 222.992 273.451 222.26 274.531 222.26C275.599 222.26 276.343 222.992 276.343 224.12ZM280.036 222.14V221.24H278.896V229.64H280.18V226.256C280.576 226.712 281.248 227.156 282.256 227.156C283.984 227.156 285.112 225.776 285.112 224.12C285.112 222.464 283.984 221.084 282.256 221.084C281.176 221.084 280.492 221.588 280.036 222.14ZM283.804 224.12C283.804 225.248 283.06 226.028 282.016 226.028C281.128 226.028 280.456 225.452 280.18 224.816V223.412C280.456 222.788 281.128 222.212 282.016 222.212C283.06 222.212 283.804 222.992 283.804 224.12ZM288.73 225.584L286.786 221.24H285.418L288.154 227.048L288.034 227.336C287.698 228.236 287.23 228.68 286.606 228.68C286.414 228.68 286.21 228.656 286.018 228.596V229.688C286.27 229.748 286.522 229.784 286.774 229.784C287.65 229.784 288.466 229.28 289.09 227.78L291.79 221.24H290.446L288.73 225.584ZM300.931 227V221.24H299.647V225.872H297.487V221.24H296.203V225.872H294.031V221.24H292.747V227H300.931ZM302.184 224.12C302.184 226.148 303.684 227.156 305.448 227.156C306.252 227.156 306.984 227.012 307.512 226.76V225.656C307.02 225.896 306.384 226.064 305.688 226.064C304.632 226.064 303.624 225.632 303.48 224.6H307.812C308.184 222.932 307.392 221.084 305.1 221.084C303.768 221.084 302.184 222.032 302.184 224.12ZM306.66 223.64H303.468C303.516 222.668 304.296 222.152 305.16 222.152C306.42 222.152 306.732 223.136 306.66 223.64ZM310.379 227V224.684H313.259V227H314.543V221.24H313.259V223.556H310.379V221.24H309.095V227H310.379ZM317.434 227V224.684H320.314V227H321.598V221.24H320.314V223.556H317.434V221.24H316.15V227H317.434ZM324.164 227L325.592 225.116H326.9V227H328.184V221.24H325.208C323.768 221.24 322.988 222.14 322.988 223.184C322.988 223.976 323.432 224.684 324.272 224.972L322.688 227H324.164ZM324.296 223.196C324.296 222.632 324.716 222.308 325.424 222.308H326.9V224.084H325.424C324.716 224.084 324.296 223.76 324.296 223.196Z" fill="#F64810"/>
<rect x="282" y="157" width="25" height="25" rx="12.5" fill="#F64810"/>
<path d="M291.792 165.512C292.6 164.96 293.504 164.684 294.504 164.684C295.36 164.684 296.052 164.884 296.58 165.284C297.108 165.676 297.372 166.24 297.372 166.976C297.372 167.592 297.168 168.12 296.76 168.56C296.36 168.992 295.812 169.416 295.116 169.832C295.06 169.864 294.956 169.924 294.804 170.012C294.66 170.1 294.556 170.164 294.492 170.204C294.436 170.236 294.344 170.292 294.216 170.372C294.088 170.452 293.992 170.512 293.928 170.552C293.872 170.592 293.792 170.652 293.688 170.732C293.592 170.804 293.52 170.868 293.472 170.924C293.424 170.972 293.368 171.036 293.304 171.116C293.24 171.188 293.192 171.256 293.16 171.32C293.136 171.384 293.112 171.456 293.088 171.536C293.064 171.616 293.052 171.696 293.052 171.776L297.432 171.764V173H291.516V172.376C291.516 171.928 291.576 171.532 291.696 171.188C291.824 170.836 292.044 170.516 292.356 170.228C292.676 169.932 292.924 169.724 293.1 169.604C293.276 169.476 293.588 169.28 294.036 169.016C294.076 168.984 294.108 168.96 294.132 168.944C294.164 168.928 294.196 168.912 294.228 168.896C294.9 168.504 295.332 168.22 295.524 168.044C295.844 167.732 296.004 167.384 296.004 167C296.004 166.648 295.86 166.38 295.572 166.196C295.292 166.012 294.896 165.92 294.384 165.92C293.496 165.92 292.632 166.224 291.792 166.832V165.512Z" fill="white"/>
<rect x="252.5" y="258.5" width="86" height="23" rx="11.5" fill="#FFE6E4" stroke="#F64810"/>
<path d="M264.402 273V265.86H268.722V273H270.09V264.6H263.034V273H264.402ZM271.411 270.12C271.411 272.112 272.923 273.156 274.531 273.156C276.151 273.156 277.651 272.112 277.651 270.12C277.651 268.128 276.151 267.084 274.531 267.084C272.923 267.084 271.411 268.128 271.411 270.12ZM276.343 270.12C276.343 271.248 275.599 271.98 274.531 271.98C273.451 271.98 272.707 271.248 272.707 270.12C272.707 268.992 273.451 268.26 274.531 268.26C275.599 268.26 276.343 268.992 276.343 270.12ZM280.036 268.14V267.24H278.896V275.64H280.18V272.256C280.576 272.712 281.248 273.156 282.256 273.156C283.984 273.156 285.112 271.776 285.112 270.12C285.112 268.464 283.984 267.084 282.256 267.084C281.176 267.084 280.492 267.588 280.036 268.14ZM283.804 270.12C283.804 271.248 283.06 272.028 282.016 272.028C281.128 272.028 280.456 271.452 280.18 270.816V269.412C280.456 268.788 281.128 268.212 282.016 268.212C283.06 268.212 283.804 268.992 283.804 270.12ZM288.73 271.584L286.786 267.24H285.418L288.154 273.048L288.034 273.336C287.698 274.236 287.23 274.68 286.606 274.68C286.414 274.68 286.21 274.656 286.018 274.596V275.688C286.27 275.748 286.522 275.784 286.774 275.784C287.65 275.784 288.466 275.28 289.09 273.78L291.79 267.24H290.446L288.73 271.584ZM300.931 273V267.24H299.647V271.872H297.487V267.24H296.203V271.872H294.031V267.24H292.747V273H300.931ZM302.184 270.12C302.184 272.148 303.684 273.156 305.448 273.156C306.252 273.156 306.984 273.012 307.512 272.76V271.656C307.02 271.896 306.384 272.064 305.688 272.064C304.632 272.064 303.624 271.632 303.48 270.6H307.812C308.184 268.932 307.392 267.084 305.1 267.084C303.768 267.084 302.184 268.032 302.184 270.12ZM306.66 269.64H303.468C303.516 268.668 304.296 268.152 305.16 268.152C306.42 268.152 306.732 269.136 306.66 269.64ZM310.379 273V270.684H313.259V273H314.543V267.24H313.259V269.556H310.379V267.24H309.095V273H310.379ZM317.434 273V270.684H320.314V273H321.598V267.24H320.314V269.556H317.434V267.24H316.15V273H317.434ZM324.164 273L325.592 271.116H326.9V273H328.184V267.24H325.208C323.768 267.24 322.988 268.14 322.988 269.184C322.988 269.976 323.432 270.684 324.272 270.972L322.688 273H324.164ZM324.296 269.196C324.296 268.632 324.716 268.308 325.424 268.308H326.9V270.084H325.424C324.716 270.084 324.296 269.76 324.296 269.196Z" fill="#F64810"/>
<circle cx="199" cy="60" r="3" fill="#F64810"/>
</svg>
