<svg width="558" height="306" viewBox="0 0 558 306" fill="none" xmlns="http://www.w3.org/2000/svg">
<g clip-path="url(#clip0_1737_220)">
<path d="M1 -2.5H134.5V36.5H-3.5V2C-3.5 -0.485281 -1.48528 -2.5 1 -2.5Z" fill="#F9F9FB" stroke="#DDDDE6"/>
<rect x="134.5" y="-2.5" width="142" height="39" fill="#F9F9FB" stroke="#DDDDE6"/>
<rect x="276.5" y="-2.5" width="142" height="39" fill="#F9F9FB" stroke="#DDDDE6"/>
<path d="M418.5 -2.5H556C558.485 -2.5 560.5 -0.485281 560.5 2V36.5H418.5V-2.5Z" fill="#F9F9FB" stroke="#DDDDE6"/>
<rect x="-3.5" y="36.5" width="138" height="39" fill="white" stroke="#DDDDE6"/>
<rect x="-3.5" y="75.5" width="138" height="39" fill="white" stroke="#DDDDE6"/>
<rect x="-3.5" y="114.5" width="138" height="39" fill="white" stroke="#DDDDE6"/>
<rect x="-3.5" y="153.5" width="138" height="39" fill="white" stroke="#DDDDE6"/>
<rect x="-3.5" y="192.5" width="138" height="39" fill="white" stroke="#DDDDE6"/>
<rect x="-3.5" y="231.5" width="138" height="39" fill="white" stroke="#DDDDE6"/>
<path d="M-3.5 270.5H134.5V309.5H1C-1.48528 309.5 -3.5 307.485 -3.5 305V270.5Z" fill="white" stroke="#DDDDE6"/>
<rect x="134.5" y="36.5" width="142" height="39" fill="white" stroke="#DDDDE6"/>
<rect x="134.5" y="75.5" width="142" height="39" fill="white" stroke="#DDDDE6"/>
<rect x="134.5" y="114.5" width="142" height="39" fill="white" stroke="#DDDDE6"/>
<rect x="134.5" y="153.5" width="142" height="39" fill="white" stroke="#DDDDE6"/>
<rect x="134.5" y="192.5" width="142" height="39" fill="white" stroke="#DDDDE6"/>
<rect x="134.5" y="231.5" width="142" height="39" fill="white" stroke="#DDDDE6"/>
<rect x="134.5" y="270.5" width="142" height="39" fill="white" stroke="#DDDDE6"/>
<rect x="276.5" y="36.5" width="142" height="39" fill="white" stroke="#DDDDE6"/>
<rect x="276.5" y="75.5" width="142" height="39" fill="white" stroke="#DDDDE6"/>
<rect x="276.5" y="114.5" width="142" height="39" fill="white" stroke="#DDDDE6"/>
<rect x="276.5" y="153.5" width="142" height="39" fill="white" stroke="#DDDDE6"/>
<rect x="276.5" y="192.5" width="142" height="39" fill="white" stroke="#DDDDE6"/>
<rect x="276.5" y="231.5" width="142" height="39" fill="white" stroke="#DDDDE6"/>
<rect x="276.5" y="270.5" width="142" height="39" fill="white" stroke="#DDDDE6"/>
<rect x="418.5" y="36.5" width="142" height="39" fill="white" stroke="#DDDDE6"/>
<rect x="418.5" y="75.5" width="142" height="39" fill="white" stroke="#DDDDE6"/>
<rect x="418.5" y="114.5" width="142" height="39" fill="white" stroke="#DDDDE6"/>
<rect x="418.5" y="153.5" width="142" height="39" fill="white" stroke="#DDDDE6"/>
<rect x="418.5" y="192.5" width="142" height="39" fill="white" stroke="#DDDDE6"/>
<rect x="418.5" y="231.5" width="142" height="39" fill="white" stroke="#DDDDE6"/>
<path d="M418.5 270.5H560.5V305C560.5 307.485 558.485 309.5 556 309.5H418.5V270.5Z" fill="white" stroke="#DDDDE6"/>
<path d="M25.96 10.4H27.814V23H25.762V14.18L21.784 20.156H20.56L16.582 14.162V23H14.53V10.4H16.384L21.172 17.618L25.96 10.4ZM37.775 21.002C37.775 21.422 37.985 21.632 38.405 21.632C38.549 21.632 38.741 21.596 38.981 21.524V22.91C38.621 23.054 38.213 23.126 37.757 23.126C36.893 23.126 36.317 22.79 36.029 22.118C35.105 22.862 34.019 23.234 32.771 23.234C31.931 23.234 31.217 23.006 30.629 22.55C30.041 22.082 29.747 21.428 29.747 20.588C29.747 19.58 30.125 18.848 30.881 18.392C31.637 17.924 32.543 17.69 33.599 17.69C34.295 17.69 35.045 17.774 35.849 17.942V17.636C35.849 17.084 35.651 16.64 35.255 16.304C34.859 15.968 34.301 15.8 33.581 15.8C32.513 15.8 31.475 16.022 30.467 16.466V14.702C31.595 14.318 32.699 14.126 33.779 14.126C35.039 14.126 36.017 14.438 36.713 15.062C37.421 15.686 37.775 16.634 37.775 17.906V21.002ZM33.977 19.04C33.341 19.04 32.807 19.154 32.375 19.382C31.943 19.61 31.727 19.97 31.727 20.462C31.727 20.87 31.883 21.188 32.195 21.416C32.507 21.632 32.891 21.74 33.347 21.74C34.331 21.74 35.165 21.398 35.849 20.714V19.256C35.153 19.112 34.529 19.04 33.977 19.04ZM42.3586 23H40.4326V14.36H46.8766V16.052H42.3586V23ZM55.6168 21.002C55.6168 21.422 55.8268 21.632 56.2468 21.632C56.3908 21.632 56.5828 21.596 56.8228 21.524V22.91C56.4628 23.054 56.0548 23.126 55.5988 23.126C54.7348 23.126 54.1588 22.79 53.8708 22.118C52.9468 22.862 51.8608 23.234 50.6128 23.234C49.7728 23.234 49.0588 23.006 48.4708 22.55C47.8828 22.082 47.5888 21.428 47.5888 20.588C47.5888 19.58 47.9668 18.848 48.7228 18.392C49.4788 17.924 50.3848 17.69 51.4408 17.69C52.1368 17.69 52.8868 17.774 53.6908 17.942V17.636C53.6908 17.084 53.4928 16.64 53.0968 16.304C52.7008 15.968 52.1428 15.8 51.4228 15.8C50.3548 15.8 49.3168 16.022 48.3088 16.466V14.702C49.4368 14.318 50.5408 14.126 51.6208 14.126C52.8808 14.126 53.8588 14.438 54.5548 15.062C55.2628 15.686 55.6168 16.634 55.6168 17.906V21.002ZM51.8188 19.04C51.1828 19.04 50.6488 19.154 50.2168 19.382C49.7848 19.61 49.5688 19.97 49.5688 20.462C49.5688 20.87 49.7248 21.188 50.0368 21.416C50.3488 21.632 50.7328 21.74 51.1888 21.74C52.1728 21.74 53.0068 21.398 53.6908 20.714V19.256C52.9948 19.112 52.3708 19.04 51.8188 19.04ZM65.0424 20.642C65.0424 21.422 64.6884 22.052 63.9804 22.532C63.2844 23 62.2884 23.234 60.9924 23.234C59.7324 23.234 58.6524 23 57.7524 22.532V20.876C58.6044 21.356 59.6004 21.596 60.7404 21.596C62.3124 21.596 63.0984 21.2 63.0984 20.408C63.0984 19.7 62.4984 19.346 61.2984 19.346H59.5344V17.87H61.2984C62.3784 17.87 62.9184 17.546 62.9184 16.898C62.9184 16.526 62.7324 16.244 62.3604 16.052C61.9884 15.848 61.4844 15.746 60.8484 15.746C59.7684 15.746 58.7904 15.98 57.9144 16.448V14.792C58.8624 14.336 59.9184 14.108 61.0824 14.108C62.3424 14.108 63.2844 14.342 63.9084 14.81C64.5444 15.278 64.8624 15.89 64.8624 16.646C64.8624 17.138 64.7244 17.552 64.4484 17.888C64.1724 18.224 63.8004 18.452 63.3324 18.572C63.8484 18.716 64.2624 18.968 64.5744 19.328C64.8864 19.676 65.0424 20.114 65.0424 20.642ZM68.6315 23H66.9755V14.36H68.9015V20.012L73.5275 14.36H75.1835V23H73.2575V17.348L68.6315 23ZM79.5187 23H77.5927V14.36H79.5187V17.834H83.8387V14.36H85.7647V23H83.8387V19.526H79.5187V23Z" fill="#37376D"/>
<path d="M26.356 48.4H27.652V61H26.14V51.262L21.622 58.03H20.686L16.168 51.262V61H14.656V48.4H15.952L21.154 56.176L26.356 48.4ZM37.5239 59.2C37.5239 59.644 37.7459 59.866 38.1899 59.866C38.3819 59.866 38.6039 59.824 38.8559 59.74V60.91C38.4959 61.042 38.1359 61.108 37.7759 61.108C36.9479 61.108 36.4199 60.76 36.1919 60.064C35.2679 60.832 34.1459 61.216 32.8259 61.216C31.9859 61.216 31.2659 60.994 30.6659 60.55C30.0779 60.094 29.7839 59.44 29.7839 58.588C29.7839 57.568 30.1619 56.83 30.9179 56.374C31.6859 55.906 32.6099 55.672 33.6899 55.672C34.4819 55.672 35.2799 55.762 36.0839 55.942V55.636C36.0839 54.976 35.8679 54.454 35.4359 54.07C35.0039 53.674 34.3979 53.476 33.6179 53.476C32.5259 53.476 31.4759 53.692 30.4679 54.124V52.72C31.5959 52.336 32.6939 52.144 33.7619 52.144C34.9379 52.144 35.8559 52.462 36.5159 53.098C37.1879 53.722 37.5239 54.628 37.5239 55.816V59.2ZM31.2599 58.516C31.2599 58.996 31.4399 59.362 31.7999 59.614C32.1719 59.854 32.6159 59.974 33.1319 59.974C34.3199 59.974 35.3039 59.554 36.0839 58.714V57.13C35.2679 56.962 34.5359 56.878 33.8879 56.878C33.1559 56.878 32.5319 57.01 32.0159 57.274C31.5119 57.526 31.2599 57.94 31.2599 58.516ZM41.8404 61H40.4004V52.36H46.7184V53.692H41.8404V61ZM55.2778 59.2C55.2778 59.644 55.4998 59.866 55.9438 59.866C56.1358 59.866 56.3578 59.824 56.6098 59.74V60.91C56.2498 61.042 55.8898 61.108 55.5298 61.108C54.7018 61.108 54.1738 60.76 53.9458 60.064C53.0218 60.832 51.8998 61.216 50.5798 61.216C49.7398 61.216 49.0198 60.994 48.4198 60.55C47.8318 60.094 47.5378 59.44 47.5378 58.588C47.5378 57.568 47.9158 56.83 48.6718 56.374C49.4398 55.906 50.3638 55.672 51.4438 55.672C52.2358 55.672 53.0338 55.762 53.8378 55.942V55.636C53.8378 54.976 53.6218 54.454 53.1898 54.07C52.7578 53.674 52.1518 53.476 51.3718 53.476C50.2798 53.476 49.2298 53.692 48.2218 54.124V52.72C49.3498 52.336 50.4478 52.144 51.5158 52.144C52.6918 52.144 53.6098 52.462 54.2698 53.098C54.9418 53.722 55.2778 54.628 55.2778 55.816V59.2ZM49.0138 58.516C49.0138 58.996 49.1938 59.362 49.5538 59.614C49.9258 59.854 50.3698 59.974 50.8858 59.974C52.0738 59.974 53.0578 59.554 53.8378 58.714V57.13C53.0218 56.962 52.2898 56.878 51.6418 56.878C50.9098 56.878 50.2858 57.01 49.7698 57.274C49.2658 57.526 49.0138 57.94 49.0138 58.516ZM64.6163 58.678C64.6163 59.482 64.2683 60.106 63.5723 60.55C62.8883 60.994 61.9403 61.216 60.7283 61.216C59.5163 61.216 58.4543 60.994 57.5423 60.55V59.182C58.4183 59.65 59.4203 59.884 60.5483 59.884C62.3003 59.884 63.1763 59.428 63.1763 58.516C63.1763 57.688 62.5403 57.274 61.2683 57.274H59.3783V55.942H61.2683C62.4203 55.942 62.9963 55.57 62.9963 54.826C62.9963 54.37 62.7803 54.028 62.3483 53.8C61.9163 53.572 61.3403 53.458 60.6203 53.458C59.5763 53.458 58.5983 53.686 57.6863 54.142V52.792C58.6583 52.348 59.6903 52.126 60.7823 52.126C61.9583 52.126 62.8583 52.354 63.4823 52.81C64.1183 53.254 64.4363 53.86 64.4363 54.628C64.4363 55.144 64.2923 55.57 64.0043 55.906C63.7163 56.242 63.3263 56.464 62.8343 56.572C63.3503 56.704 63.7763 56.956 64.1123 57.328C64.4483 57.7 64.6163 58.15 64.6163 58.678ZM67.9564 61H66.7324V52.36H68.1724V58.678L73.4644 52.36H74.6884V61H73.2484V54.682L67.9564 61ZM78.7896 61H77.3496V52.36H78.7896V56.014H83.7936V52.36H85.2336V61H83.7936V57.346H78.7896V61ZM94.9709 48.76H96.0869V59.56H98.3729V61H92.0009V59.56H94.5749V50.362L92.0009 51.334V49.894L94.9709 48.76Z" fill="#37376D"/>
<path d="M26.356 87.4H27.652V100H26.14V90.262L21.622 97.03H20.686L16.168 90.262V100H14.656V87.4H15.952L21.154 95.176L26.356 87.4ZM37.5239 98.2C37.5239 98.644 37.7459 98.866 38.1899 98.866C38.3819 98.866 38.6039 98.824 38.8559 98.74V99.91C38.4959 100.042 38.1359 100.108 37.7759 100.108C36.9479 100.108 36.4199 99.76 36.1919 99.064C35.2679 99.832 34.1459 100.216 32.8259 100.216C31.9859 100.216 31.2659 99.994 30.6659 99.55C30.0779 99.094 29.7839 98.44 29.7839 97.588C29.7839 96.568 30.1619 95.83 30.9179 95.374C31.6859 94.906 32.6099 94.672 33.6899 94.672C34.4819 94.672 35.2799 94.762 36.0839 94.942V94.636C36.0839 93.976 35.8679 93.454 35.4359 93.07C35.0039 92.674 34.3979 92.476 33.6179 92.476C32.5259 92.476 31.4759 92.692 30.4679 93.124V91.72C31.5959 91.336 32.6939 91.144 33.7619 91.144C34.9379 91.144 35.8559 91.462 36.5159 92.098C37.1879 92.722 37.5239 93.628 37.5239 94.816V98.2ZM31.2599 97.516C31.2599 97.996 31.4399 98.362 31.7999 98.614C32.1719 98.854 32.6159 98.974 33.1319 98.974C34.3199 98.974 35.3039 98.554 36.0839 97.714V96.13C35.2679 95.962 34.5359 95.878 33.8879 95.878C33.1559 95.878 32.5319 96.01 32.0159 96.274C31.5119 96.526 31.2599 96.94 31.2599 97.516ZM41.8404 100H40.4004V91.36H46.7184V92.692H41.8404V100ZM55.2778 98.2C55.2778 98.644 55.4998 98.866 55.9438 98.866C56.1358 98.866 56.3578 98.824 56.6098 98.74V99.91C56.2498 100.042 55.8898 100.108 55.5298 100.108C54.7018 100.108 54.1738 99.76 53.9458 99.064C53.0218 99.832 51.8998 100.216 50.5798 100.216C49.7398 100.216 49.0198 99.994 48.4198 99.55C47.8318 99.094 47.5378 98.44 47.5378 97.588C47.5378 96.568 47.9158 95.83 48.6718 95.374C49.4398 94.906 50.3638 94.672 51.4438 94.672C52.2358 94.672 53.0338 94.762 53.8378 94.942V94.636C53.8378 93.976 53.6218 93.454 53.1898 93.07C52.7578 92.674 52.1518 92.476 51.3718 92.476C50.2798 92.476 49.2298 92.692 48.2218 93.124V91.72C49.3498 91.336 50.4478 91.144 51.5158 91.144C52.6918 91.144 53.6098 91.462 54.2698 92.098C54.9418 92.722 55.2778 93.628 55.2778 94.816V98.2ZM49.0138 97.516C49.0138 97.996 49.1938 98.362 49.5538 98.614C49.9258 98.854 50.3698 98.974 50.8858 98.974C52.0738 98.974 53.0578 98.554 53.8378 97.714V96.13C53.0218 95.962 52.2898 95.878 51.6418 95.878C50.9098 95.878 50.2858 96.01 49.7698 96.274C49.2658 96.526 49.0138 96.94 49.0138 97.516ZM64.6163 97.678C64.6163 98.482 64.2683 99.106 63.5723 99.55C62.8883 99.994 61.9403 100.216 60.7283 100.216C59.5163 100.216 58.4543 99.994 57.5423 99.55V98.182C58.4183 98.65 59.4203 98.884 60.5483 98.884C62.3003 98.884 63.1763 98.428 63.1763 97.516C63.1763 96.688 62.5403 96.274 61.2683 96.274H59.3783V94.942H61.2683C62.4203 94.942 62.9963 94.57 62.9963 93.826C62.9963 93.37 62.7803 93.028 62.3483 92.8C61.9163 92.572 61.3403 92.458 60.6203 92.458C59.5763 92.458 58.5983 92.686 57.6863 93.142V91.792C58.6583 91.348 59.6903 91.126 60.7823 91.126C61.9583 91.126 62.8583 91.354 63.4823 91.81C64.1183 92.254 64.4363 92.86 64.4363 93.628C64.4363 94.144 64.2923 94.57 64.0043 94.906C63.7163 95.242 63.3263 95.464 62.8343 95.572C63.3503 95.704 63.7763 95.956 64.1123 96.328C64.4483 96.7 64.6163 97.15 64.6163 97.678ZM67.9564 100H66.7324V91.36H68.1724V97.678L73.4644 91.36H74.6884V100H73.2484V93.682L67.9564 100ZM78.7896 100H77.3496V91.36H78.7896V95.014H83.7936V91.36H85.2336V100H83.7936V96.346H78.7896V100ZM92.2709 88.732C93.4109 87.94 94.7189 87.544 96.1949 87.544C97.4669 87.544 98.4809 87.832 99.2369 88.408C99.9929 88.984 100.371 89.788 100.371 90.82C100.371 91.312 100.275 91.774 100.083 92.206C99.9029 92.638 99.6269 93.034 99.2549 93.394C98.8949 93.754 98.5409 94.06 98.1929 94.312C97.8569 94.552 97.4309 94.822 96.9149 95.122C96.8549 95.158 96.6689 95.266 96.3569 95.446C96.0569 95.626 95.8649 95.74 95.7809 95.788C95.7089 95.836 95.5409 95.944 95.2769 96.112C95.0249 96.268 94.8569 96.382 94.7729 96.454C94.7009 96.526 94.5689 96.64 94.3769 96.796C94.1969 96.952 94.0709 97.084 93.9989 97.192C93.9389 97.3 93.8549 97.438 93.7469 97.606C93.6509 97.762 93.5849 97.918 93.5489 98.074C93.5129 98.23 93.4949 98.398 93.4949 98.578L100.461 98.56V100H91.8389V99.28C91.8389 98.608 91.9469 98.002 92.1629 97.462C92.3789 96.91 92.6849 96.442 93.0809 96.058C93.4889 95.662 93.8909 95.332 94.2869 95.068C94.6829 94.792 95.1449 94.498 95.6729 94.186C95.7929 94.126 95.8829 94.078 95.9429 94.042C97.0349 93.406 97.7489 92.92 98.0849 92.584C98.6009 92.056 98.8589 91.462 98.8589 90.802C98.8589 90.202 98.6129 89.746 98.1209 89.434C97.6409 89.11 96.9569 88.948 96.0689 88.948C94.7729 88.948 93.5069 89.38 92.2709 90.244V88.732Z" fill="#37376D"/>
<path d="M26.356 126.4H27.652V139H26.14V129.262L21.622 136.03H20.686L16.168 129.262V139H14.656V126.4H15.952L21.154 134.176L26.356 126.4ZM37.5239 137.2C37.5239 137.644 37.7459 137.866 38.1899 137.866C38.3819 137.866 38.6039 137.824 38.8559 137.74V138.91C38.4959 139.042 38.1359 139.108 37.7759 139.108C36.9479 139.108 36.4199 138.76 36.1919 138.064C35.2679 138.832 34.1459 139.216 32.8259 139.216C31.9859 139.216 31.2659 138.994 30.6659 138.55C30.0779 138.094 29.7839 137.44 29.7839 136.588C29.7839 135.568 30.1619 134.83 30.9179 134.374C31.6859 133.906 32.6099 133.672 33.6899 133.672C34.4819 133.672 35.2799 133.762 36.0839 133.942V133.636C36.0839 132.976 35.8679 132.454 35.4359 132.07C35.0039 131.674 34.3979 131.476 33.6179 131.476C32.5259 131.476 31.4759 131.692 30.4679 132.124V130.72C31.5959 130.336 32.6939 130.144 33.7619 130.144C34.9379 130.144 35.8559 130.462 36.5159 131.098C37.1879 131.722 37.5239 132.628 37.5239 133.816V137.2ZM31.2599 136.516C31.2599 136.996 31.4399 137.362 31.7999 137.614C32.1719 137.854 32.6159 137.974 33.1319 137.974C34.3199 137.974 35.3039 137.554 36.0839 136.714V135.13C35.2679 134.962 34.5359 134.878 33.8879 134.878C33.1559 134.878 32.5319 135.01 32.0159 135.274C31.5119 135.526 31.2599 135.94 31.2599 136.516ZM41.8404 139H40.4004V130.36H46.7184V131.692H41.8404V139ZM55.2778 137.2C55.2778 137.644 55.4998 137.866 55.9438 137.866C56.1358 137.866 56.3578 137.824 56.6098 137.74V138.91C56.2498 139.042 55.8898 139.108 55.5298 139.108C54.7018 139.108 54.1738 138.76 53.9458 138.064C53.0218 138.832 51.8998 139.216 50.5798 139.216C49.7398 139.216 49.0198 138.994 48.4198 138.55C47.8318 138.094 47.5378 137.44 47.5378 136.588C47.5378 135.568 47.9158 134.83 48.6718 134.374C49.4398 133.906 50.3638 133.672 51.4438 133.672C52.2358 133.672 53.0338 133.762 53.8378 133.942V133.636C53.8378 132.976 53.6218 132.454 53.1898 132.07C52.7578 131.674 52.1518 131.476 51.3718 131.476C50.2798 131.476 49.2298 131.692 48.2218 132.124V130.72C49.3498 130.336 50.4478 130.144 51.5158 130.144C52.6918 130.144 53.6098 130.462 54.2698 131.098C54.9418 131.722 55.2778 132.628 55.2778 133.816V137.2ZM49.0138 136.516C49.0138 136.996 49.1938 137.362 49.5538 137.614C49.9258 137.854 50.3698 137.974 50.8858 137.974C52.0738 137.974 53.0578 137.554 53.8378 136.714V135.13C53.0218 134.962 52.2898 134.878 51.6418 134.878C50.9098 134.878 50.2858 135.01 49.7698 135.274C49.2658 135.526 49.0138 135.94 49.0138 136.516ZM64.6163 136.678C64.6163 137.482 64.2683 138.106 63.5723 138.55C62.8883 138.994 61.9403 139.216 60.7283 139.216C59.5163 139.216 58.4543 138.994 57.5423 138.55V137.182C58.4183 137.65 59.4203 137.884 60.5483 137.884C62.3003 137.884 63.1763 137.428 63.1763 136.516C63.1763 135.688 62.5403 135.274 61.2683 135.274H59.3783V133.942H61.2683C62.4203 133.942 62.9963 133.57 62.9963 132.826C62.9963 132.37 62.7803 132.028 62.3483 131.8C61.9163 131.572 61.3403 131.458 60.6203 131.458C59.5763 131.458 58.5983 131.686 57.6863 132.142V130.792C58.6583 130.348 59.6903 130.126 60.7823 130.126C61.9583 130.126 62.8583 130.354 63.4823 130.81C64.1183 131.254 64.4363 131.86 64.4363 132.628C64.4363 133.144 64.2923 133.57 64.0043 133.906C63.7163 134.242 63.3263 134.464 62.8343 134.572C63.3503 134.704 63.7763 134.956 64.1123 135.328C64.4483 135.7 64.6163 136.15 64.6163 136.678ZM67.9564 139H66.7324V130.36H68.1724V136.678L73.4644 130.36H74.6884V139H73.2484V132.682L67.9564 139ZM78.7896 139H77.3496V130.36H78.7896V134.014H83.7936V130.36H85.2336V139H83.7936V135.346H78.7896V139ZM100.227 129.874C100.227 130.498 100.059 131.062 99.7229 131.566C99.3989 132.058 98.9729 132.394 98.4449 132.574C99.0689 132.766 99.6029 133.12 100.047 133.636C100.503 134.14 100.731 134.818 100.731 135.67C100.731 136.81 100.305 137.686 99.4529 138.298C98.6129 138.91 97.5449 139.216 96.2489 139.216C94.6049 139.216 93.1829 138.946 91.9829 138.406V136.912C93.1469 137.512 94.5269 137.806 96.1229 137.794C98.2229 137.794 99.2729 137.062 99.2729 135.598C99.2729 134.134 98.2769 133.402 96.2849 133.402H94.4129V131.962L96.1229 131.98C96.9869 131.98 97.6409 131.8 98.0849 131.44C98.5409 131.068 98.7689 130.588 98.7689 130C98.7689 129.364 98.5169 128.866 98.0129 128.506C97.5089 128.134 96.7949 127.948 95.8709 127.948C94.5989 127.948 93.3749 128.26 92.1989 128.884V127.408C93.3269 126.832 94.6169 126.544 96.0689 126.544C97.3169 126.544 98.3189 126.85 99.0749 127.462C99.8429 128.074 100.227 128.878 100.227 129.874Z" fill="#37376D"/>
<path d="M26.356 165.4H27.652V178H26.14V168.262L21.622 175.03H20.686L16.168 168.262V178H14.656V165.4H15.952L21.154 173.176L26.356 165.4ZM37.5239 176.2C37.5239 176.644 37.7459 176.866 38.1899 176.866C38.3819 176.866 38.6039 176.824 38.8559 176.74V177.91C38.4959 178.042 38.1359 178.108 37.7759 178.108C36.9479 178.108 36.4199 177.76 36.1919 177.064C35.2679 177.832 34.1459 178.216 32.8259 178.216C31.9859 178.216 31.2659 177.994 30.6659 177.55C30.0779 177.094 29.7839 176.44 29.7839 175.588C29.7839 174.568 30.1619 173.83 30.9179 173.374C31.6859 172.906 32.6099 172.672 33.6899 172.672C34.4819 172.672 35.2799 172.762 36.0839 172.942V172.636C36.0839 171.976 35.8679 171.454 35.4359 171.07C35.0039 170.674 34.3979 170.476 33.6179 170.476C32.5259 170.476 31.4759 170.692 30.4679 171.124V169.72C31.5959 169.336 32.6939 169.144 33.7619 169.144C34.9379 169.144 35.8559 169.462 36.5159 170.098C37.1879 170.722 37.5239 171.628 37.5239 172.816V176.2ZM31.2599 175.516C31.2599 175.996 31.4399 176.362 31.7999 176.614C32.1719 176.854 32.6159 176.974 33.1319 176.974C34.3199 176.974 35.3039 176.554 36.0839 175.714V174.13C35.2679 173.962 34.5359 173.878 33.8879 173.878C33.1559 173.878 32.5319 174.01 32.0159 174.274C31.5119 174.526 31.2599 174.94 31.2599 175.516ZM41.8404 178H40.4004V169.36H46.7184V170.692H41.8404V178ZM55.2778 176.2C55.2778 176.644 55.4998 176.866 55.9438 176.866C56.1358 176.866 56.3578 176.824 56.6098 176.74V177.91C56.2498 178.042 55.8898 178.108 55.5298 178.108C54.7018 178.108 54.1738 177.76 53.9458 177.064C53.0218 177.832 51.8998 178.216 50.5798 178.216C49.7398 178.216 49.0198 177.994 48.4198 177.55C47.8318 177.094 47.5378 176.44 47.5378 175.588C47.5378 174.568 47.9158 173.83 48.6718 173.374C49.4398 172.906 50.3638 172.672 51.4438 172.672C52.2358 172.672 53.0338 172.762 53.8378 172.942V172.636C53.8378 171.976 53.6218 171.454 53.1898 171.07C52.7578 170.674 52.1518 170.476 51.3718 170.476C50.2798 170.476 49.2298 170.692 48.2218 171.124V169.72C49.3498 169.336 50.4478 169.144 51.5158 169.144C52.6918 169.144 53.6098 169.462 54.2698 170.098C54.9418 170.722 55.2778 171.628 55.2778 172.816V176.2ZM49.0138 175.516C49.0138 175.996 49.1938 176.362 49.5538 176.614C49.9258 176.854 50.3698 176.974 50.8858 176.974C52.0738 176.974 53.0578 176.554 53.8378 175.714V174.13C53.0218 173.962 52.2898 173.878 51.6418 173.878C50.9098 173.878 50.2858 174.01 49.7698 174.274C49.2658 174.526 49.0138 174.94 49.0138 175.516ZM64.6163 175.678C64.6163 176.482 64.2683 177.106 63.5723 177.55C62.8883 177.994 61.9403 178.216 60.7283 178.216C59.5163 178.216 58.4543 177.994 57.5423 177.55V176.182C58.4183 176.65 59.4203 176.884 60.5483 176.884C62.3003 176.884 63.1763 176.428 63.1763 175.516C63.1763 174.688 62.5403 174.274 61.2683 174.274H59.3783V172.942H61.2683C62.4203 172.942 62.9963 172.57 62.9963 171.826C62.9963 171.37 62.7803 171.028 62.3483 170.8C61.9163 170.572 61.3403 170.458 60.6203 170.458C59.5763 170.458 58.5983 170.686 57.6863 171.142V169.792C58.6583 169.348 59.6903 169.126 60.7823 169.126C61.9583 169.126 62.8583 169.354 63.4823 169.81C64.1183 170.254 64.4363 170.86 64.4363 171.628C64.4363 172.144 64.2923 172.57 64.0043 172.906C63.7163 173.242 63.3263 173.464 62.8343 173.572C63.3503 173.704 63.7763 173.956 64.1123 174.328C64.4483 174.7 64.6163 175.15 64.6163 175.678ZM67.9564 178H66.7324V169.36H68.1724V175.678L73.4644 169.36H74.6884V178H73.2484V171.682L67.9564 178ZM78.7896 178H77.3496V169.36H78.7896V173.014H83.7936V169.36H85.2336V178H83.7936V174.346H78.7896V178ZM98.1749 165.76H99.8129V173.878H102.117V175.282H99.8129V178H98.3189V175.282H91.4969V173.932L98.1749 165.76ZM98.3189 173.878V167.794L93.3509 173.878H98.3189Z" fill="#37376D"/>
<path d="M26.356 204.4H27.652V217H26.14V207.262L21.622 214.03H20.686L16.168 207.262V217H14.656V204.4H15.952L21.154 212.176L26.356 204.4ZM37.5239 215.2C37.5239 215.644 37.7459 215.866 38.1899 215.866C38.3819 215.866 38.6039 215.824 38.8559 215.74V216.91C38.4959 217.042 38.1359 217.108 37.7759 217.108C36.9479 217.108 36.4199 216.76 36.1919 216.064C35.2679 216.832 34.1459 217.216 32.8259 217.216C31.9859 217.216 31.2659 216.994 30.6659 216.55C30.0779 216.094 29.7839 215.44 29.7839 214.588C29.7839 213.568 30.1619 212.83 30.9179 212.374C31.6859 211.906 32.6099 211.672 33.6899 211.672C34.4819 211.672 35.2799 211.762 36.0839 211.942V211.636C36.0839 210.976 35.8679 210.454 35.4359 210.07C35.0039 209.674 34.3979 209.476 33.6179 209.476C32.5259 209.476 31.4759 209.692 30.4679 210.124V208.72C31.5959 208.336 32.6939 208.144 33.7619 208.144C34.9379 208.144 35.8559 208.462 36.5159 209.098C37.1879 209.722 37.5239 210.628 37.5239 211.816V215.2ZM31.2599 214.516C31.2599 214.996 31.4399 215.362 31.7999 215.614C32.1719 215.854 32.6159 215.974 33.1319 215.974C34.3199 215.974 35.3039 215.554 36.0839 214.714V213.13C35.2679 212.962 34.5359 212.878 33.8879 212.878C33.1559 212.878 32.5319 213.01 32.0159 213.274C31.5119 213.526 31.2599 213.94 31.2599 214.516ZM41.8404 217H40.4004V208.36H46.7184V209.692H41.8404V217ZM55.2778 215.2C55.2778 215.644 55.4998 215.866 55.9438 215.866C56.1358 215.866 56.3578 215.824 56.6098 215.74V216.91C56.2498 217.042 55.8898 217.108 55.5298 217.108C54.7018 217.108 54.1738 216.76 53.9458 216.064C53.0218 216.832 51.8998 217.216 50.5798 217.216C49.7398 217.216 49.0198 216.994 48.4198 216.55C47.8318 216.094 47.5378 215.44 47.5378 214.588C47.5378 213.568 47.9158 212.83 48.6718 212.374C49.4398 211.906 50.3638 211.672 51.4438 211.672C52.2358 211.672 53.0338 211.762 53.8378 211.942V211.636C53.8378 210.976 53.6218 210.454 53.1898 210.07C52.7578 209.674 52.1518 209.476 51.3718 209.476C50.2798 209.476 49.2298 209.692 48.2218 210.124V208.72C49.3498 208.336 50.4478 208.144 51.5158 208.144C52.6918 208.144 53.6098 208.462 54.2698 209.098C54.9418 209.722 55.2778 210.628 55.2778 211.816V215.2ZM49.0138 214.516C49.0138 214.996 49.1938 215.362 49.5538 215.614C49.9258 215.854 50.3698 215.974 50.8858 215.974C52.0738 215.974 53.0578 215.554 53.8378 214.714V213.13C53.0218 212.962 52.2898 212.878 51.6418 212.878C50.9098 212.878 50.2858 213.01 49.7698 213.274C49.2658 213.526 49.0138 213.94 49.0138 214.516ZM64.6163 214.678C64.6163 215.482 64.2683 216.106 63.5723 216.55C62.8883 216.994 61.9403 217.216 60.7283 217.216C59.5163 217.216 58.4543 216.994 57.5423 216.55V215.182C58.4183 215.65 59.4203 215.884 60.5483 215.884C62.3003 215.884 63.1763 215.428 63.1763 214.516C63.1763 213.688 62.5403 213.274 61.2683 213.274H59.3783V211.942H61.2683C62.4203 211.942 62.9963 211.57 62.9963 210.826C62.9963 210.37 62.7803 210.028 62.3483 209.8C61.9163 209.572 61.3403 209.458 60.6203 209.458C59.5763 209.458 58.5983 209.686 57.6863 210.142V208.792C58.6583 208.348 59.6903 208.126 60.7823 208.126C61.9583 208.126 62.8583 208.354 63.4823 208.81C64.1183 209.254 64.4363 209.86 64.4363 210.628C64.4363 211.144 64.2923 211.57 64.0043 211.906C63.7163 212.242 63.3263 212.464 62.8343 212.572C63.3503 212.704 63.7763 212.956 64.1123 213.328C64.4483 213.7 64.6163 214.15 64.6163 214.678ZM67.9564 217H66.7324V208.36H68.1724V214.678L73.4644 208.36H74.6884V217H73.2484V210.682L67.9564 217ZM78.7896 217H77.3496V208.36H78.7896V212.014H83.7936V208.36H85.2336V217H83.7936V213.346H78.7896V217ZM92.7389 204.76H100.083V206.2H94.1609L93.9449 209.656C94.5929 209.476 95.2889 209.386 96.0329 209.386C96.6449 209.386 97.2149 209.458 97.7429 209.602C98.2709 209.734 98.7569 209.95 99.2009 210.25C99.6569 210.538 100.017 210.946 100.281 211.474C100.545 211.99 100.677 212.602 100.677 213.31C100.677 214.522 100.227 215.476 99.3269 216.172C98.4389 216.868 97.3049 217.216 95.9249 217.216C94.4369 217.216 93.1289 216.94 92.0009 216.388V214.948C93.0809 215.524 94.3289 215.812 95.7449 215.812C96.7769 215.812 97.5989 215.596 98.2109 215.164C98.8349 214.732 99.1469 214.114 99.1469 213.31C99.1469 211.606 97.9349 210.754 95.5109 210.754C94.4549 210.754 93.3989 210.946 92.3429 211.33L92.7389 204.76Z" fill="#37376D"/>
<path d="M26.356 243.4H27.652V256H26.14V246.262L21.622 253.03H20.686L16.168 246.262V256H14.656V243.4H15.952L21.154 251.176L26.356 243.4ZM37.5239 254.2C37.5239 254.644 37.7459 254.866 38.1899 254.866C38.3819 254.866 38.6039 254.824 38.8559 254.74V255.91C38.4959 256.042 38.1359 256.108 37.7759 256.108C36.9479 256.108 36.4199 255.76 36.1919 255.064C35.2679 255.832 34.1459 256.216 32.8259 256.216C31.9859 256.216 31.2659 255.994 30.6659 255.55C30.0779 255.094 29.7839 254.44 29.7839 253.588C29.7839 252.568 30.1619 251.83 30.9179 251.374C31.6859 250.906 32.6099 250.672 33.6899 250.672C34.4819 250.672 35.2799 250.762 36.0839 250.942V250.636C36.0839 249.976 35.8679 249.454 35.4359 249.07C35.0039 248.674 34.3979 248.476 33.6179 248.476C32.5259 248.476 31.4759 248.692 30.4679 249.124V247.72C31.5959 247.336 32.6939 247.144 33.7619 247.144C34.9379 247.144 35.8559 247.462 36.5159 248.098C37.1879 248.722 37.5239 249.628 37.5239 250.816V254.2ZM31.2599 253.516C31.2599 253.996 31.4399 254.362 31.7999 254.614C32.1719 254.854 32.6159 254.974 33.1319 254.974C34.3199 254.974 35.3039 254.554 36.0839 253.714V252.13C35.2679 251.962 34.5359 251.878 33.8879 251.878C33.1559 251.878 32.5319 252.01 32.0159 252.274C31.5119 252.526 31.2599 252.94 31.2599 253.516ZM41.8404 256H40.4004V247.36H46.7184V248.692H41.8404V256ZM55.2778 254.2C55.2778 254.644 55.4998 254.866 55.9438 254.866C56.1358 254.866 56.3578 254.824 56.6098 254.74V255.91C56.2498 256.042 55.8898 256.108 55.5298 256.108C54.7018 256.108 54.1738 255.76 53.9458 255.064C53.0218 255.832 51.8998 256.216 50.5798 256.216C49.7398 256.216 49.0198 255.994 48.4198 255.55C47.8318 255.094 47.5378 254.44 47.5378 253.588C47.5378 252.568 47.9158 251.83 48.6718 251.374C49.4398 250.906 50.3638 250.672 51.4438 250.672C52.2358 250.672 53.0338 250.762 53.8378 250.942V250.636C53.8378 249.976 53.6218 249.454 53.1898 249.07C52.7578 248.674 52.1518 248.476 51.3718 248.476C50.2798 248.476 49.2298 248.692 48.2218 249.124V247.72C49.3498 247.336 50.4478 247.144 51.5158 247.144C52.6918 247.144 53.6098 247.462 54.2698 248.098C54.9418 248.722 55.2778 249.628 55.2778 250.816V254.2ZM49.0138 253.516C49.0138 253.996 49.1938 254.362 49.5538 254.614C49.9258 254.854 50.3698 254.974 50.8858 254.974C52.0738 254.974 53.0578 254.554 53.8378 253.714V252.13C53.0218 251.962 52.2898 251.878 51.6418 251.878C50.9098 251.878 50.2858 252.01 49.7698 252.274C49.2658 252.526 49.0138 252.94 49.0138 253.516ZM64.6163 253.678C64.6163 254.482 64.2683 255.106 63.5723 255.55C62.8883 255.994 61.9403 256.216 60.7283 256.216C59.5163 256.216 58.4543 255.994 57.5423 255.55V254.182C58.4183 254.65 59.4203 254.884 60.5483 254.884C62.3003 254.884 63.1763 254.428 63.1763 253.516C63.1763 252.688 62.5403 252.274 61.2683 252.274H59.3783V250.942H61.2683C62.4203 250.942 62.9963 250.57 62.9963 249.826C62.9963 249.37 62.7803 249.028 62.3483 248.8C61.9163 248.572 61.3403 248.458 60.6203 248.458C59.5763 248.458 58.5983 248.686 57.6863 249.142V247.792C58.6583 247.348 59.6903 247.126 60.7823 247.126C61.9583 247.126 62.8583 247.354 63.4823 247.81C64.1183 248.254 64.4363 248.86 64.4363 249.628C64.4363 250.144 64.2923 250.57 64.0043 250.906C63.7163 251.242 63.3263 251.464 62.8343 251.572C63.3503 251.704 63.7763 251.956 64.1123 252.328C64.4483 252.7 64.6163 253.15 64.6163 253.678ZM67.9564 256H66.7324V247.36H68.1724V253.678L73.4644 247.36H74.6884V256H73.2484V249.682L67.9564 256ZM78.7896 256H77.3496V247.36H78.7896V251.014H83.7936V247.36H85.2336V256H83.7936V252.346H78.7896V256ZM93.5129 249.538C94.6769 248.758 95.9549 248.368 97.3469 248.368C98.4629 248.368 99.4409 248.71 100.281 249.394C101.121 250.066 101.541 251.002 101.541 252.202C101.541 253.462 101.121 254.446 100.281 255.154C99.4529 255.862 98.4089 256.216 97.1489 256.216C95.4209 256.216 94.1249 255.682 93.2609 254.614C92.4089 253.534 91.9829 252.022 91.9829 250.078C91.9829 247.918 92.4929 246.292 93.5129 245.2C94.5449 244.096 95.8889 243.544 97.5449 243.544C98.6129 243.544 99.6029 243.778 100.515 244.246V245.686C99.6269 245.218 98.6489 244.984 97.5809 244.984C96.4529 244.984 95.5109 245.35 94.7549 246.082C94.0109 246.802 93.5969 247.954 93.5129 249.538ZM93.5309 251.05C93.7589 253.558 94.9289 254.812 97.0409 254.812C97.9289 254.812 98.6429 254.608 99.1829 254.2C99.7349 253.792 100.011 253.15 100.011 252.274C100.011 251.386 99.7289 250.75 99.1649 250.366C98.6009 249.97 97.8689 249.772 96.9689 249.772C95.6369 249.772 94.4909 250.198 93.5309 251.05Z" fill="#37376D"/>
<path d="M26.356 282.4H27.652V295H26.14V285.262L21.622 292.03H20.686L16.168 285.262V295H14.656V282.4H15.952L21.154 290.176L26.356 282.4ZM37.5239 293.2C37.5239 293.644 37.7459 293.866 38.1899 293.866C38.3819 293.866 38.6039 293.824 38.8559 293.74V294.91C38.4959 295.042 38.1359 295.108 37.7759 295.108C36.9479 295.108 36.4199 294.76 36.1919 294.064C35.2679 294.832 34.1459 295.216 32.8259 295.216C31.9859 295.216 31.2659 294.994 30.6659 294.55C30.0779 294.094 29.7839 293.44 29.7839 292.588C29.7839 291.568 30.1619 290.83 30.9179 290.374C31.6859 289.906 32.6099 289.672 33.6899 289.672C34.4819 289.672 35.2799 289.762 36.0839 289.942V289.636C36.0839 288.976 35.8679 288.454 35.4359 288.07C35.0039 287.674 34.3979 287.476 33.6179 287.476C32.5259 287.476 31.4759 287.692 30.4679 288.124V286.72C31.5959 286.336 32.6939 286.144 33.7619 286.144C34.9379 286.144 35.8559 286.462 36.5159 287.098C37.1879 287.722 37.5239 288.628 37.5239 289.816V293.2ZM31.2599 292.516C31.2599 292.996 31.4399 293.362 31.7999 293.614C32.1719 293.854 32.6159 293.974 33.1319 293.974C34.3199 293.974 35.3039 293.554 36.0839 292.714V291.13C35.2679 290.962 34.5359 290.878 33.8879 290.878C33.1559 290.878 32.5319 291.01 32.0159 291.274C31.5119 291.526 31.2599 291.94 31.2599 292.516ZM41.8404 295H40.4004V286.36H46.7184V287.692H41.8404V295ZM55.2778 293.2C55.2778 293.644 55.4998 293.866 55.9438 293.866C56.1358 293.866 56.3578 293.824 56.6098 293.74V294.91C56.2498 295.042 55.8898 295.108 55.5298 295.108C54.7018 295.108 54.1738 294.76 53.9458 294.064C53.0218 294.832 51.8998 295.216 50.5798 295.216C49.7398 295.216 49.0198 294.994 48.4198 294.55C47.8318 294.094 47.5378 293.44 47.5378 292.588C47.5378 291.568 47.9158 290.83 48.6718 290.374C49.4398 289.906 50.3638 289.672 51.4438 289.672C52.2358 289.672 53.0338 289.762 53.8378 289.942V289.636C53.8378 288.976 53.6218 288.454 53.1898 288.07C52.7578 287.674 52.1518 287.476 51.3718 287.476C50.2798 287.476 49.2298 287.692 48.2218 288.124V286.72C49.3498 286.336 50.4478 286.144 51.5158 286.144C52.6918 286.144 53.6098 286.462 54.2698 287.098C54.9418 287.722 55.2778 288.628 55.2778 289.816V293.2ZM49.0138 292.516C49.0138 292.996 49.1938 293.362 49.5538 293.614C49.9258 293.854 50.3698 293.974 50.8858 293.974C52.0738 293.974 53.0578 293.554 53.8378 292.714V291.13C53.0218 290.962 52.2898 290.878 51.6418 290.878C50.9098 290.878 50.2858 291.01 49.7698 291.274C49.2658 291.526 49.0138 291.94 49.0138 292.516ZM64.6163 292.678C64.6163 293.482 64.2683 294.106 63.5723 294.55C62.8883 294.994 61.9403 295.216 60.7283 295.216C59.5163 295.216 58.4543 294.994 57.5423 294.55V293.182C58.4183 293.65 59.4203 293.884 60.5483 293.884C62.3003 293.884 63.1763 293.428 63.1763 292.516C63.1763 291.688 62.5403 291.274 61.2683 291.274H59.3783V289.942H61.2683C62.4203 289.942 62.9963 289.57 62.9963 288.826C62.9963 288.37 62.7803 288.028 62.3483 287.8C61.9163 287.572 61.3403 287.458 60.6203 287.458C59.5763 287.458 58.5983 287.686 57.6863 288.142V286.792C58.6583 286.348 59.6903 286.126 60.7823 286.126C61.9583 286.126 62.8583 286.354 63.4823 286.81C64.1183 287.254 64.4363 287.86 64.4363 288.628C64.4363 289.144 64.2923 289.57 64.0043 289.906C63.7163 290.242 63.3263 290.464 62.8343 290.572C63.3503 290.704 63.7763 290.956 64.1123 291.328C64.4483 291.7 64.6163 292.15 64.6163 292.678ZM67.9564 295H66.7324V286.36H68.1724V292.678L73.4644 286.36H74.6884V295H73.2484V288.682L67.9564 295ZM78.7896 295H77.3496V286.36H78.7896V290.014H83.7936V286.36H85.2336V295H83.7936V291.346H78.7896V295ZM91.5329 282.76H100.353V284.128L95.2409 295H93.6209L98.6969 284.2H91.5329V282.76Z" fill="#37376D"/>
<path d="M161.971 23V17.546H164.491L168.289 23H170.611L166.111 16.538L170.287 10.4H167.965L164.455 15.656H161.971V10.4H159.919V23H161.971ZM179.05 21.002V17.906C179.05 15.296 177.502 14.126 175.054 14.126C173.668 14.126 172.426 14.468 171.742 14.702V16.466C172.516 16.124 173.578 15.8 174.856 15.8C176.332 15.8 177.124 16.556 177.124 17.636V17.942C176.44 17.798 175.612 17.69 174.874 17.69C173.074 17.69 171.022 18.374 171.022 20.588C171.022 22.37 172.48 23.234 174.046 23.234C175.396 23.234 176.458 22.802 177.304 22.118C177.61 22.82 178.24 23.126 179.032 23.126C179.464 23.126 179.896 23.054 180.256 22.91V21.524C180.076 21.578 179.878 21.632 179.68 21.632C179.338 21.632 179.05 21.488 179.05 21.002ZM175.252 19.04C175.864 19.04 176.602 19.148 177.124 19.256V20.714C176.44 21.398 175.54 21.74 174.622 21.74C173.758 21.74 173.002 21.308 173.002 20.462C173.002 19.382 174.154 19.04 175.252 19.04ZM185.37 23V16.052H188.34V14.36H180.456V16.052H183.444V23H185.37ZM189.078 18.68C189.078 21.722 191.328 23.234 193.974 23.234C195.18 23.234 196.278 23.018 197.07 22.64V20.984C196.332 21.344 195.378 21.596 194.334 21.596C192.75 21.596 191.238 20.948 191.022 19.4H197.52C198.078 16.898 196.89 14.126 193.452 14.126C191.454 14.126 189.078 15.548 189.078 18.68ZM195.792 17.96H191.004C191.076 16.502 192.246 15.728 193.542 15.728C195.432 15.728 195.9 17.204 195.792 17.96ZM201.37 23V16.052H205.888V14.36H199.444V23H201.37ZM206.621 18.68C206.621 21.668 208.889 23.234 211.301 23.234C213.731 23.234 215.981 21.668 215.981 18.68C215.981 15.692 213.731 14.126 211.301 14.126C208.889 14.126 206.621 15.692 206.621 18.68ZM214.019 18.68C214.019 20.372 212.903 21.47 211.301 21.47C209.681 21.47 208.565 20.372 208.565 18.68C208.565 16.988 209.681 15.89 211.301 15.89C212.903 15.89 214.019 16.988 214.019 18.68ZM219.559 15.71V14.36H217.849V26.96H219.775V21.884C220.369 22.568 221.377 23.234 222.889 23.234C225.481 23.234 227.173 21.164 227.173 18.68C227.173 16.196 225.481 14.126 222.889 14.126C221.269 14.126 220.243 14.882 219.559 15.71ZM225.211 18.68C225.211 20.372 224.095 21.542 222.529 21.542C221.197 21.542 220.189 20.678 219.775 19.724V17.618C220.189 16.682 221.197 15.818 222.529 15.818C224.095 15.818 225.211 16.988 225.211 18.68ZM230.951 23H229.369V13.3496H230.951V23ZM229.246 10.7393C229.246 10.3877 229.334 10.1328 229.51 9.97461C229.691 9.81641 229.914 9.7373 230.178 9.7373C230.424 9.7373 230.638 9.81641 230.819 9.97461C231.007 10.1328 231.101 10.3877 231.101 10.7393C231.101 11.085 231.007 11.3398 230.819 11.5039C230.638 11.668 230.424 11.75 230.178 11.75C229.914 11.75 229.691 11.668 229.51 11.5039C229.334 11.3398 229.246 11.085 229.246 10.7393ZM235.126 23L237.268 20.174H239.23V23H241.156V14.36H236.692C234.532 14.36 233.362 15.71 233.362 17.276C233.362 18.464 234.028 19.526 235.288 19.958L232.912 23H235.126ZM235.324 17.294C235.324 16.448 235.954 15.962 237.016 15.962H239.23V18.626H237.016C235.954 18.626 235.324 18.14 235.324 17.294ZM250.519 10.76L247.549 11.894V13.784L249.997 12.866V21.146H247.549V23H254.209V21.146H252.031V10.76H250.519Z" fill="#37376D"/>
<path d="M302.705 23V17.546H305.225L309.023 23H311.345L306.845 16.538L311.021 10.4H308.699L305.189 15.656H302.705V10.4H300.653V23H302.705ZM319.785 21.002V17.906C319.785 15.296 318.237 14.126 315.789 14.126C314.403 14.126 313.161 14.468 312.477 14.702V16.466C313.251 16.124 314.313 15.8 315.591 15.8C317.067 15.8 317.859 16.556 317.859 17.636V17.942C317.175 17.798 316.347 17.69 315.609 17.69C313.809 17.69 311.757 18.374 311.757 20.588C311.757 22.37 313.215 23.234 314.781 23.234C316.131 23.234 317.193 22.802 318.039 22.118C318.345 22.82 318.975 23.126 319.767 23.126C320.199 23.126 320.631 23.054 320.991 22.91V21.524C320.811 21.578 320.613 21.632 320.415 21.632C320.073 21.632 319.785 21.488 319.785 21.002ZM315.987 19.04C316.599 19.04 317.337 19.148 317.859 19.256V20.714C317.175 21.398 316.275 21.74 315.357 21.74C314.493 21.74 313.737 21.308 313.737 20.462C313.737 19.382 314.889 19.04 315.987 19.04ZM326.105 23V16.052H329.075V14.36H321.191V16.052H324.179V23H326.105ZM329.812 18.68C329.812 21.722 332.062 23.234 334.708 23.234C335.914 23.234 337.012 23.018 337.804 22.64V20.984C337.066 21.344 336.112 21.596 335.068 21.596C333.484 21.596 331.972 20.948 331.756 19.4H338.254C338.812 16.898 337.624 14.126 334.186 14.126C332.188 14.126 329.812 15.548 329.812 18.68ZM336.526 17.96H331.738C331.81 16.502 332.98 15.728 334.276 15.728C336.166 15.728 336.634 17.204 336.526 17.96ZM342.105 23V16.052H346.623V14.36H340.179V23H342.105ZM347.355 18.68C347.355 21.668 349.623 23.234 352.035 23.234C354.465 23.234 356.715 21.668 356.715 18.68C356.715 15.692 354.465 14.126 352.035 14.126C349.623 14.126 347.355 15.692 347.355 18.68ZM354.753 18.68C354.753 20.372 353.637 21.47 352.035 21.47C350.415 21.47 349.299 20.372 349.299 18.68C349.299 16.988 350.415 15.89 352.035 15.89C353.637 15.89 354.753 16.988 354.753 18.68ZM360.293 15.71V14.36H358.583V26.96H360.509V21.884C361.103 22.568 362.111 23.234 363.623 23.234C366.215 23.234 367.907 21.164 367.907 18.68C367.907 16.196 366.215 14.126 363.623 14.126C362.003 14.126 360.977 14.882 360.293 15.71ZM365.945 18.68C365.945 20.372 364.829 21.542 363.263 21.542C361.931 21.542 360.923 20.678 360.509 19.724V17.618C360.923 16.682 361.931 15.818 363.263 15.818C364.829 15.818 365.945 16.988 365.945 18.68ZM371.686 23H370.104V13.3496H371.686V23ZM369.98 10.7393C369.98 10.3877 370.068 10.1328 370.244 9.97461C370.426 9.81641 370.648 9.7373 370.912 9.7373C371.158 9.7373 371.372 9.81641 371.554 9.97461C371.741 10.1328 371.835 10.3877 371.835 10.7393C371.835 11.085 371.741 11.3398 371.554 11.5039C371.372 11.668 371.158 11.75 370.912 11.75C370.648 11.75 370.426 11.668 370.244 11.5039C370.068 11.3398 369.98 11.085 369.98 10.7393ZM375.861 23L378.003 20.174H379.965V23H381.891V14.36H377.427C375.267 14.36 374.097 15.71 374.097 17.276C374.097 18.464 374.763 19.526 376.023 19.958L373.647 23H375.861ZM376.059 17.294C376.059 16.448 376.689 15.962 377.751 15.962H379.965V18.626H377.751C376.689 18.626 376.059 18.14 376.059 17.294ZM388.536 11.768V13.748C389.832 12.812 391.182 12.38 392.424 12.38C393.936 12.38 394.854 12.938 394.854 14C394.854 15.386 393.612 16.016 392.19 16.844C390.336 17.942 388.122 19.076 388.122 22.064V23H396.996V21.146L390.426 21.164C390.444 19.94 391.938 19.184 393.522 18.248C395.178 17.258 396.906 16.034 396.906 13.964C396.906 11.678 395.088 10.526 392.604 10.526C391.182 10.526 389.796 10.904 388.536 11.768Z" fill="#37376D"/>
<path d="M444.644 23V17.546H447.164L450.962 23H453.284L448.784 16.538L452.96 10.4H450.638L447.128 15.656H444.644V10.4H442.592V23H444.644ZM461.723 21.002V17.906C461.723 15.296 460.175 14.126 457.727 14.126C456.341 14.126 455.099 14.468 454.415 14.702V16.466C455.189 16.124 456.251 15.8 457.529 15.8C459.005 15.8 459.797 16.556 459.797 17.636V17.942C459.113 17.798 458.285 17.69 457.547 17.69C455.747 17.69 453.695 18.374 453.695 20.588C453.695 22.37 455.153 23.234 456.719 23.234C458.069 23.234 459.131 22.802 459.977 22.118C460.283 22.82 460.913 23.126 461.705 23.126C462.137 23.126 462.569 23.054 462.929 22.91V21.524C462.749 21.578 462.551 21.632 462.353 21.632C462.011 21.632 461.723 21.488 461.723 21.002ZM457.925 19.04C458.537 19.04 459.275 19.148 459.797 19.256V20.714C459.113 21.398 458.213 21.74 457.295 21.74C456.431 21.74 455.675 21.308 455.675 20.462C455.675 19.382 456.827 19.04 457.925 19.04ZM468.043 23V16.052H471.013V14.36H463.129V16.052H466.117V23H468.043ZM471.751 18.68C471.751 21.722 474.001 23.234 476.647 23.234C477.853 23.234 478.951 23.018 479.743 22.64V20.984C479.005 21.344 478.051 21.596 477.007 21.596C475.423 21.596 473.911 20.948 473.695 19.4H480.193C480.751 16.898 479.563 14.126 476.125 14.126C474.127 14.126 471.751 15.548 471.751 18.68ZM478.465 17.96H473.677C473.749 16.502 474.919 15.728 476.215 15.728C478.105 15.728 478.573 17.204 478.465 17.96ZM484.043 23V16.052H488.561V14.36H482.117V23H484.043ZM489.294 18.68C489.294 21.668 491.562 23.234 493.974 23.234C496.404 23.234 498.654 21.668 498.654 18.68C498.654 15.692 496.404 14.126 493.974 14.126C491.562 14.126 489.294 15.692 489.294 18.68ZM496.692 18.68C496.692 20.372 495.576 21.47 493.974 21.47C492.354 21.47 491.238 20.372 491.238 18.68C491.238 16.988 492.354 15.89 493.974 15.89C495.576 15.89 496.692 16.988 496.692 18.68ZM502.231 15.71V14.36H500.521V26.96H502.447V21.884C503.041 22.568 504.049 23.234 505.561 23.234C508.153 23.234 509.845 21.164 509.845 18.68C509.845 16.196 508.153 14.126 505.561 14.126C503.941 14.126 502.915 14.882 502.231 15.71ZM507.883 18.68C507.883 20.372 506.767 21.542 505.201 21.542C503.869 21.542 502.861 20.678 502.447 19.724V17.618C502.861 16.682 503.869 15.818 505.201 15.818C506.767 15.818 507.883 16.988 507.883 18.68ZM513.624 23H512.042V13.3496H513.624V23ZM511.919 10.7393C511.919 10.3877 512.007 10.1328 512.183 9.97461C512.364 9.81641 512.587 9.7373 512.851 9.7373C513.097 9.7373 513.311 9.81641 513.492 9.97461C513.68 10.1328 513.773 10.3877 513.773 10.7393C513.773 11.085 513.68 11.3398 513.492 11.5039C513.311 11.668 513.097 11.75 512.851 11.75C512.587 11.75 512.364 11.668 512.183 11.5039C512.007 11.3398 511.919 11.085 511.919 10.7393ZM517.799 23L519.941 20.174H521.903V23H523.829V14.36H519.365C517.205 14.36 516.035 15.71 516.035 17.276C516.035 18.464 516.701 19.526 517.961 19.958L515.585 23H517.799ZM517.997 17.294C517.997 16.448 518.627 15.962 519.689 15.962H521.903V18.626H519.689C518.627 18.626 517.997 18.14 517.997 17.294ZM538.61 13.874C538.61 11.786 536.846 10.526 534.326 10.526C532.814 10.526 531.5 10.85 530.402 11.426V13.388C531.59 12.704 532.85 12.38 534.056 12.38C535.73 12.38 536.648 13.028 536.648 14.126C536.648 15.134 535.838 15.782 534.326 15.782L532.616 15.764V17.618H534.56C536.018 17.618 537.152 18.068 537.152 19.454C537.152 20.84 535.892 21.362 534.272 21.38C532.76 21.398 531.5 21.164 530.186 20.444V22.424C531.482 22.982 532.778 23.234 534.434 23.234C536.936 23.234 539.114 22.136 539.114 19.67C539.114 17.816 537.944 16.898 536.792 16.538C537.89 16.178 538.61 15.152 538.61 13.874Z" fill="#37376D"/>
<path d="M203 68.435C209.868 68.435 215.435 62.8678 215.435 56.0002C215.435 49.1327 209.868 43.5654 203 43.5654C196.133 43.5654 190.565 49.1327 190.565 56.0002C190.565 62.8678 196.133 68.435 203 68.435Z" fill="#EDFFDE"/>
<path d="M207.665 59.0141C206.487 60.3316 204.787 61.0868 203 61.0868C201.218 61.0868 199.516 60.3311 198.333 59.0136C198.125 58.7813 197.768 58.7615 197.535 58.9706C197.303 59.1792 197.284 59.5364 197.492 59.7687C198.89 61.3247 200.897 62.2172 203 62.2172C205.108 62.2172 207.116 61.3242 208.508 59.7681C208.716 59.5353 208.697 59.1786 208.464 58.97C208.23 58.7615 207.873 58.7813 207.665 59.0141Z" fill="#69CE19"/>
<path d="M203 43C195.832 43 190 48.8319 190 56C190 63.1681 195.832 69 203 69C210.168 69 216 63.1681 216 56C216 48.8319 210.168 43 203 43ZM203 67.8696C196.455 67.8696 191.13 62.5452 191.13 56C191.13 49.4548 196.455 44.1304 203 44.1304C209.545 44.1304 214.87 49.4548 214.87 56C214.87 62.5452 209.545 67.8696 203 67.8696Z" fill="#69CE19"/>
<path d="M207.521 52.0435C205.963 52.0435 204.695 53.3112 204.695 54.8695C204.695 55.1815 204.949 55.4348 205.261 55.4348C205.573 55.4348 205.826 55.1815 205.826 54.8695C205.826 53.9347 206.587 53.1739 207.521 53.1739C208.456 53.1739 209.217 53.9347 209.217 54.8695C209.217 55.1815 209.47 55.4348 209.782 55.4348C210.094 55.4348 210.347 55.1815 210.347 54.8695C210.347 53.3112 209.08 52.0435 207.521 52.0435Z" fill="#69CE19"/>
<path d="M200.174 54.8695C200.174 55.1815 200.427 55.4348 200.739 55.4348C201.051 55.4348 201.305 55.1815 201.305 54.8695C201.305 53.3112 200.037 52.0435 198.478 52.0435C196.92 52.0435 195.652 53.3112 195.652 54.8695C195.652 55.1815 195.906 55.4348 196.218 55.4348C196.53 55.4348 196.783 55.1815 196.783 54.8695C196.783 53.9347 197.544 53.1739 198.478 53.1739C199.413 53.1739 200.174 53.9347 200.174 54.8695Z" fill="#69CE19"/>
<path d="M203 263.435C209.868 263.435 215.435 257.868 215.435 251C215.435 244.133 209.868 238.565 203 238.565C196.133 238.565 190.565 244.133 190.565 251C190.565 257.868 196.133 263.435 203 263.435Z" fill="#EDFFDE"/>
<path d="M207.665 254.014C206.487 255.332 204.787 256.087 203 256.087C201.218 256.087 199.516 255.331 198.333 254.014C198.125 253.781 197.768 253.761 197.535 253.971C197.303 254.179 197.284 254.536 197.492 254.769C198.89 256.325 200.897 257.217 203 257.217C205.108 257.217 207.116 256.324 208.508 254.768C208.716 254.535 208.697 254.179 208.464 253.97C208.23 253.761 207.873 253.781 207.665 254.014Z" fill="#69CE19"/>
<path d="M203 238C195.832 238 190 243.832 190 251C190 258.168 195.832 264 203 264C210.168 264 216 258.168 216 251C216 243.832 210.168 238 203 238ZM203 262.87C196.455 262.87 191.13 257.545 191.13 251C191.13 244.455 196.455 239.13 203 239.13C209.545 239.13 214.87 244.455 214.87 251C214.87 257.545 209.545 262.87 203 262.87Z" fill="#69CE19"/>
<path d="M207.521 247.043C205.963 247.043 204.695 248.311 204.695 249.87C204.695 250.182 204.949 250.435 205.261 250.435C205.573 250.435 205.826 250.182 205.826 249.87C205.826 248.935 206.587 248.174 207.521 248.174C208.456 248.174 209.217 248.935 209.217 249.87C209.217 250.182 209.47 250.435 209.782 250.435C210.094 250.435 210.347 250.182 210.347 249.87C210.347 248.311 209.08 247.043 207.521 247.043Z" fill="#69CE19"/>
<path d="M200.174 249.87C200.174 250.182 200.427 250.435 200.739 250.435C201.051 250.435 201.305 250.182 201.305 249.87C201.305 248.311 200.037 247.043 198.478 247.043C196.92 247.043 195.652 248.311 195.652 249.87C195.652 250.182 195.906 250.435 196.218 250.435C196.53 250.435 196.783 250.182 196.783 249.87C196.783 248.935 197.544 248.174 198.478 248.174C199.413 248.174 200.174 248.935 200.174 249.87Z" fill="#69CE19"/>
<path d="M203 302.435C209.868 302.435 215.435 296.868 215.435 290C215.435 283.133 209.868 277.565 203 277.565C196.133 277.565 190.565 283.133 190.565 290C190.565 296.868 196.133 302.435 203 302.435Z" fill="#EDFFDE"/>
<path d="M207.665 293.014C206.487 294.332 204.787 295.087 203 295.087C201.218 295.087 199.516 294.331 198.333 293.014C198.125 292.781 197.768 292.761 197.535 292.971C197.303 293.179 197.284 293.536 197.492 293.769C198.89 295.325 200.897 296.217 203 296.217C205.108 296.217 207.116 295.324 208.508 293.768C208.716 293.535 208.697 293.179 208.464 292.97C208.23 292.761 207.873 292.781 207.665 293.014Z" fill="#69CE19"/>
<path d="M203 277C195.832 277 190 282.832 190 290C190 297.168 195.832 303 203 303C210.168 303 216 297.168 216 290C216 282.832 210.168 277 203 277ZM203 301.87C196.455 301.87 191.13 296.545 191.13 290C191.13 283.455 196.455 278.13 203 278.13C209.545 278.13 214.87 283.455 214.87 290C214.87 296.545 209.545 301.87 203 301.87Z" fill="#69CE19"/>
<path d="M207.521 286.043C205.963 286.043 204.695 287.311 204.695 288.87C204.695 289.182 204.949 289.435 205.261 289.435C205.573 289.435 205.826 289.182 205.826 288.87C205.826 287.935 206.587 287.174 207.521 287.174C208.456 287.174 209.217 287.935 209.217 288.87C209.217 289.182 209.47 289.435 209.782 289.435C210.094 289.435 210.347 289.182 210.347 288.87C210.347 287.311 209.08 286.043 207.521 286.043Z" fill="#69CE19"/>
<path d="M200.174 288.87C200.174 289.182 200.427 289.435 200.739 289.435C201.051 289.435 201.305 289.182 201.305 288.87C201.305 287.311 200.037 286.043 198.478 286.043C196.92 286.043 195.652 287.311 195.652 288.87C195.652 289.182 195.906 289.435 196.218 289.435C196.53 289.435 196.783 289.182 196.783 288.87C196.783 287.935 197.544 287.174 198.478 287.174C199.413 287.174 200.174 287.935 200.174 288.87Z" fill="#69CE19"/>
<path d="M349 107.435C355.868 107.435 361.435 101.868 361.435 95.0002C361.435 88.1327 355.868 82.5654 349 82.5654C342.133 82.5654 336.565 88.1327 336.565 95.0002C336.565 101.868 342.133 107.435 349 107.435Z" fill="#EDFFDE"/>
<path d="M353.665 98.0141C352.487 99.3316 350.787 100.087 349 100.087C347.218 100.087 345.516 99.3311 344.333 98.0136C344.125 97.7813 343.768 97.7615 343.535 97.9706C343.303 98.1792 343.284 98.5364 343.492 98.7687C344.89 100.325 346.897 101.217 349 101.217C351.108 101.217 353.116 100.324 354.508 98.7681C354.716 98.5353 354.697 98.1786 354.464 97.97C354.23 97.7615 353.873 97.7813 353.665 98.0141Z" fill="#69CE19"/>
<path d="M349 82C341.832 82 336 87.8319 336 95C336 102.168 341.832 108 349 108C356.168 108 362 102.168 362 95C362 87.8319 356.168 82 349 82ZM349 106.87C342.455 106.87 337.13 101.545 337.13 95C337.13 88.4548 342.455 83.1304 349 83.1304C355.545 83.1304 360.87 88.4548 360.87 95C360.87 101.545 355.545 106.87 349 106.87Z" fill="#69CE19"/>
<path d="M353.521 91.0435C351.963 91.0435 350.695 92.3112 350.695 93.8695C350.695 94.1815 350.949 94.4348 351.261 94.4348C351.573 94.4348 351.826 94.1815 351.826 93.8695C351.826 92.9347 352.587 92.1739 353.521 92.1739C354.456 92.1739 355.217 92.9347 355.217 93.8695C355.217 94.1815 355.47 94.4348 355.782 94.4348C356.094 94.4348 356.347 94.1815 356.347 93.8695C356.347 92.3112 355.08 91.0435 353.521 91.0435Z" fill="#69CE19"/>
<path d="M346.174 93.8695C346.174 94.1815 346.427 94.4348 346.739 94.4348C347.051 94.4348 347.305 94.1815 347.305 93.8695C347.305 92.3112 346.037 91.0435 344.478 91.0435C342.92 91.0435 341.652 92.3112 341.652 93.8695C341.652 94.1815 341.906 94.4348 342.218 94.4348C342.53 94.4348 342.783 94.1815 342.783 93.8695C342.783 92.9347 343.544 92.1739 344.478 92.1739C345.413 92.1739 346.174 92.9347 346.174 93.8695Z" fill="#69CE19"/>
<path d="M491 146.435C497.868 146.435 503.435 140.868 503.435 134C503.435 127.133 497.868 121.565 491 121.565C484.133 121.565 478.565 127.133 478.565 134C478.565 140.868 484.133 146.435 491 146.435Z" fill="#EDFFDE"/>
<path d="M495.665 137.014C494.487 138.332 492.787 139.087 491 139.087C489.218 139.087 487.516 138.331 486.333 137.014C486.125 136.781 485.768 136.761 485.535 136.971C485.303 137.179 485.284 137.536 485.492 137.769C486.89 139.325 488.897 140.217 491 140.217C493.108 140.217 495.116 139.324 496.508 137.768C496.716 137.535 496.697 137.179 496.464 136.97C496.23 136.761 495.873 136.781 495.665 137.014Z" fill="#69CE19"/>
<path d="M491 121C483.832 121 478 126.832 478 134C478 141.168 483.832 147 491 147C498.168 147 504 141.168 504 134C504 126.832 498.168 121 491 121ZM491 145.87C484.455 145.87 479.13 140.545 479.13 134C479.13 127.455 484.455 122.13 491 122.13C497.545 122.13 502.87 127.455 502.87 134C502.87 140.545 497.545 145.87 491 145.87Z" fill="#69CE19"/>
<path d="M495.521 130.043C493.963 130.043 492.695 131.311 492.695 132.87C492.695 133.182 492.949 133.435 493.261 133.435C493.573 133.435 493.826 133.182 493.826 132.87C493.826 131.935 494.587 131.174 495.521 131.174C496.456 131.174 497.217 131.935 497.217 132.87C497.217 133.182 497.47 133.435 497.782 133.435C498.094 133.435 498.347 133.182 498.347 132.87C498.347 131.311 497.08 130.043 495.521 130.043Z" fill="#69CE19"/>
<path d="M488.174 132.87C488.174 133.182 488.427 133.435 488.739 133.435C489.051 133.435 489.305 133.182 489.305 132.87C489.305 131.311 488.037 130.043 486.478 130.043C484.92 130.043 483.652 131.311 483.652 132.87C483.652 133.182 483.906 133.435 484.218 133.435C484.53 133.435 484.783 133.182 484.783 132.87C484.783 131.935 485.544 131.174 486.478 131.174C487.413 131.174 488.174 131.935 488.174 132.87Z" fill="#69CE19"/>
<path d="M349 146.435C355.868 146.435 361.435 140.868 361.435 134C361.435 127.133 355.868 121.565 349 121.565C342.133 121.565 336.565 127.133 336.565 134C336.565 140.868 342.133 146.435 349 146.435Z" fill="#EDFFDE"/>
<path d="M353.665 137.014C352.487 138.332 350.787 139.087 349 139.087C347.218 139.087 345.516 138.331 344.333 137.014C344.125 136.781 343.768 136.761 343.535 136.971C343.303 137.179 343.284 137.536 343.492 137.769C344.89 139.325 346.897 140.217 349 140.217C351.108 140.217 353.116 139.324 354.508 137.768C354.716 137.535 354.697 137.179 354.464 136.97C354.23 136.761 353.873 136.781 353.665 137.014Z" fill="#69CE19"/>
<path d="M349 121C341.832 121 336 126.832 336 134C336 141.168 341.832 147 349 147C356.168 147 362 141.168 362 134C362 126.832 356.168 121 349 121ZM349 145.87C342.455 145.87 337.13 140.545 337.13 134C337.13 127.455 342.455 122.13 349 122.13C355.545 122.13 360.87 127.455 360.87 134C360.87 140.545 355.545 145.87 349 145.87Z" fill="#69CE19"/>
<path d="M353.521 130.043C351.963 130.043 350.695 131.311 350.695 132.87C350.695 133.182 350.949 133.435 351.261 133.435C351.573 133.435 351.826 133.182 351.826 132.87C351.826 131.935 352.587 131.174 353.521 131.174C354.456 131.174 355.217 131.935 355.217 132.87C355.217 133.182 355.47 133.435 355.782 133.435C356.094 133.435 356.347 133.182 356.347 132.87C356.347 131.311 355.08 130.043 353.521 130.043Z" fill="#69CE19"/>
<path d="M346.174 132.87C346.174 133.182 346.427 133.435 346.739 133.435C347.051 133.435 347.305 133.182 347.305 132.87C347.305 131.311 346.037 130.043 344.478 130.043C342.92 130.043 341.652 131.311 341.652 132.87C341.652 133.182 341.906 133.435 342.218 133.435C342.53 133.435 342.783 133.182 342.783 132.87C342.783 131.935 343.544 131.174 344.478 131.174C345.413 131.174 346.174 131.935 346.174 132.87Z" fill="#69CE19"/>
<path d="M491 185.435C497.868 185.435 503.435 179.868 503.435 173C503.435 166.133 497.868 160.565 491 160.565C484.133 160.565 478.565 166.133 478.565 173C478.565 179.868 484.133 185.435 491 185.435Z" fill="#EDFFDE"/>
<path d="M495.665 176.014C494.487 177.332 492.787 178.087 491 178.087C489.218 178.087 487.516 177.331 486.333 176.014C486.125 175.781 485.768 175.761 485.535 175.971C485.303 176.179 485.284 176.536 485.492 176.769C486.89 178.325 488.897 179.217 491 179.217C493.108 179.217 495.116 178.324 496.508 176.768C496.716 176.535 496.697 176.179 496.464 175.97C496.23 175.761 495.873 175.781 495.665 176.014Z" fill="#69CE19"/>
<path d="M491 160C483.832 160 478 165.832 478 173C478 180.168 483.832 186 491 186C498.168 186 504 180.168 504 173C504 165.832 498.168 160 491 160ZM491 184.87C484.455 184.87 479.13 179.545 479.13 173C479.13 166.455 484.455 161.13 491 161.13C497.545 161.13 502.87 166.455 502.87 173C502.87 179.545 497.545 184.87 491 184.87Z" fill="#69CE19"/>
<path d="M495.521 169.043C493.963 169.043 492.695 170.311 492.695 171.87C492.695 172.182 492.949 172.435 493.261 172.435C493.573 172.435 493.826 172.182 493.826 171.87C493.826 170.935 494.587 170.174 495.521 170.174C496.456 170.174 497.217 170.935 497.217 171.87C497.217 172.182 497.47 172.435 497.782 172.435C498.094 172.435 498.347 172.182 498.347 171.87C498.347 170.311 497.08 169.043 495.521 169.043Z" fill="#69CE19"/>
<path d="M488.174 171.87C488.174 172.182 488.427 172.435 488.739 172.435C489.051 172.435 489.305 172.182 489.305 171.87C489.305 170.311 488.037 169.043 486.478 169.043C484.92 169.043 483.652 170.311 483.652 171.87C483.652 172.182 483.906 172.435 484.218 172.435C484.53 172.435 484.783 172.182 484.783 171.87C484.783 170.935 485.544 170.174 486.478 170.174C487.413 170.174 488.174 170.935 488.174 171.87Z" fill="#69CE19"/>
<path d="M349 185.435C355.868 185.435 361.435 179.868 361.435 173C361.435 166.133 355.868 160.565 349 160.565C342.133 160.565 336.565 166.133 336.565 173C336.565 179.868 342.133 185.435 349 185.435Z" fill="#EDFFDE"/>
<path d="M353.665 176.014C352.487 177.332 350.787 178.087 349 178.087C347.218 178.087 345.516 177.331 344.333 176.014C344.125 175.781 343.768 175.761 343.535 175.971C343.303 176.179 343.284 176.536 343.492 176.769C344.89 178.325 346.897 179.217 349 179.217C351.108 179.217 353.116 178.324 354.508 176.768C354.716 176.535 354.697 176.179 354.464 175.97C354.23 175.761 353.873 175.781 353.665 176.014Z" fill="#69CE19"/>
<path d="M349 160C341.832 160 336 165.832 336 173C336 180.168 341.832 186 349 186C356.168 186 362 180.168 362 173C362 165.832 356.168 160 349 160ZM349 184.87C342.455 184.87 337.13 179.545 337.13 173C337.13 166.455 342.455 161.13 349 161.13C355.545 161.13 360.87 166.455 360.87 173C360.87 179.545 355.545 184.87 349 184.87Z" fill="#69CE19"/>
<path d="M353.521 169.043C351.963 169.043 350.695 170.311 350.695 171.87C350.695 172.182 350.949 172.435 351.261 172.435C351.573 172.435 351.826 172.182 351.826 171.87C351.826 170.935 352.587 170.174 353.521 170.174C354.456 170.174 355.217 170.935 355.217 171.87C355.217 172.182 355.47 172.435 355.782 172.435C356.094 172.435 356.347 172.182 356.347 171.87C356.347 170.311 355.08 169.043 353.521 169.043Z" fill="#69CE19"/>
<path d="M346.174 171.87C346.174 172.182 346.427 172.435 346.739 172.435C347.051 172.435 347.305 172.182 347.305 171.87C347.305 170.311 346.037 169.043 344.478 169.043C342.92 169.043 341.652 170.311 341.652 171.87C341.652 172.182 341.906 172.435 342.218 172.435C342.53 172.435 342.783 172.182 342.783 171.87C342.783 170.935 343.544 170.174 344.478 170.174C345.413 170.174 346.174 170.935 346.174 171.87Z" fill="#69CE19"/>
<path d="M491 224.435C497.868 224.435 503.435 218.868 503.435 212C503.435 205.133 497.868 199.565 491 199.565C484.133 199.565 478.565 205.133 478.565 212C478.565 218.868 484.133 224.435 491 224.435Z" fill="#EDFFDE"/>
<path d="M495.665 215.014C494.487 216.332 492.787 217.087 491 217.087C489.218 217.087 487.516 216.331 486.333 215.014C486.125 214.781 485.768 214.761 485.535 214.971C485.303 215.179 485.284 215.536 485.492 215.769C486.89 217.325 488.897 218.217 491 218.217C493.108 218.217 495.116 217.324 496.508 215.768C496.716 215.535 496.697 215.179 496.464 214.97C496.23 214.761 495.873 214.781 495.665 215.014Z" fill="#69CE19"/>
<path d="M491 199C483.832 199 478 204.832 478 212C478 219.168 483.832 225 491 225C498.168 225 504 219.168 504 212C504 204.832 498.168 199 491 199ZM491 223.87C484.455 223.87 479.13 218.545 479.13 212C479.13 205.455 484.455 200.13 491 200.13C497.545 200.13 502.87 205.455 502.87 212C502.87 218.545 497.545 223.87 491 223.87Z" fill="#69CE19"/>
<path d="M495.521 208.043C493.963 208.043 492.695 209.311 492.695 210.87C492.695 211.182 492.949 211.435 493.261 211.435C493.573 211.435 493.826 211.182 493.826 210.87C493.826 209.935 494.587 209.174 495.521 209.174C496.456 209.174 497.217 209.935 497.217 210.87C497.217 211.182 497.47 211.435 497.782 211.435C498.094 211.435 498.347 211.182 498.347 210.87C498.347 209.311 497.08 208.043 495.521 208.043Z" fill="#69CE19"/>
<path d="M488.174 210.87C488.174 211.182 488.427 211.435 488.739 211.435C489.051 211.435 489.305 211.182 489.305 210.87C489.305 209.311 488.037 208.043 486.478 208.043C484.92 208.043 483.652 209.311 483.652 210.87C483.652 211.182 483.906 211.435 484.218 211.435C484.53 211.435 484.783 211.182 484.783 210.87C484.783 209.935 485.544 209.174 486.478 209.174C487.413 209.174 488.174 209.935 488.174 210.87Z" fill="#69CE19"/>
<path d="M491 43.5654C497.868 43.5654 503.435 49.1328 503.435 56.0002C503.435 62.8676 497.868 68.435 491 68.435C484.133 68.435 478.565 62.8676 478.565 56.0002C478.565 49.1328 484.133 43.5654 491 43.5654ZM496.652 54.8698C496.652 54.248 496.144 53.7393 495.522 53.7393C494.9 53.7393 494.392 54.248 494.392 54.8698C494.392 55.4915 494.9 56.0002 495.522 56.0002C496.144 56.0002 496.652 55.4915 496.652 54.8698ZM487.609 54.8698C487.609 54.248 487.1 53.7393 486.478 53.7393C485.857 53.7393 485.348 54.248 485.348 54.8698C485.348 55.4915 485.857 56.0002 486.478 56.0002C487.1 56.0002 487.609 55.4915 487.609 54.8698Z" fill="#FFE6E4"/>
<path d="M495.522 56.0001C496.146 56.0001 496.652 55.494 496.652 54.8697C496.652 54.2454 496.146 53.7393 495.522 53.7393C494.898 53.7393 494.392 54.2454 494.392 54.8697C494.392 55.494 494.898 56.0001 495.522 56.0001Z" fill="#FFE6E4"/>
<path d="M486.478 56.0001C487.102 56.0001 487.609 55.494 487.609 54.8697C487.609 54.2454 487.102 53.7393 486.478 53.7393C485.854 53.7393 485.348 54.2454 485.348 54.8697C485.348 55.494 485.854 56.0001 486.478 56.0001Z" fill="#FFE6E4"/>
<path d="M491 43C483.832 43 478 48.8319 478 56C478 63.1681 483.832 69 491 69C498.169 69 504 63.1681 504 56C504 48.8319 498.169 43 491 43ZM491 67.8696C484.455 67.8696 479.13 62.5452 479.13 56C479.13 49.4548 484.455 44.1304 491 44.1304C497.545 44.1304 502.87 49.4548 502.87 56C502.87 62.5452 497.545 67.8696 491 67.8696Z" fill="#F74810"/>
<path d="M488.174 54.8695C488.174 53.9346 487.413 53.1738 486.478 53.1738C485.543 53.1738 484.782 53.9346 484.782 54.8695C484.782 55.8043 485.543 56.5651 486.478 56.5651C487.413 56.5651 488.174 55.8043 488.174 54.8695ZM485.913 54.8695C485.913 54.558 486.166 54.3043 486.478 54.3043C486.789 54.3043 487.043 54.558 487.043 54.8695C487.043 55.1809 486.789 55.4347 486.478 55.4347C486.166 55.4347 485.913 55.1809 485.913 54.8695Z" fill="#F74810"/>
<path d="M495.522 53.1738C494.587 53.1738 493.826 53.9346 493.826 54.8695C493.826 55.8043 494.587 56.5651 495.522 56.5651C496.457 56.5651 497.217 55.8043 497.217 54.8695C497.217 53.9346 496.457 53.1738 495.522 53.1738ZM495.522 55.4347C495.21 55.4347 494.957 55.1809 494.957 54.8695C494.957 54.558 495.21 54.3043 495.522 54.3043C495.834 54.3043 496.087 54.558 496.087 54.8695C496.087 55.1809 495.834 55.4347 495.522 55.4347Z" fill="#F74810"/>
<path d="M493.262 50.9129C493.346 50.9129 493.433 50.8937 493.514 50.8535L495.775 49.7231C496.054 49.5835 496.167 49.2438 496.027 48.9646C495.887 48.6854 495.547 48.5718 495.269 48.7119L493.008 49.8424C492.729 49.982 492.616 50.3217 492.755 50.6009C492.855 50.7987 493.054 50.9129 493.262 50.9129Z" fill="#F74810"/>
<path d="M486.225 49.7231L488.486 50.8535C488.567 50.8936 488.653 50.9129 488.738 50.9129C488.945 50.9129 489.145 50.7987 489.244 50.6003C489.384 50.3211 489.271 49.9814 488.992 49.8418L486.731 48.7113C486.45 48.5712 486.112 48.6853 485.972 48.964C485.832 49.2438 485.946 49.5829 486.225 49.7231Z" fill="#F74810"/>
<path d="M491 58.8262C488.892 58.8262 486.884 59.7192 485.492 61.2752C485.284 61.5081 485.303 61.8648 485.536 62.0733C485.644 62.17 485.779 62.2175 485.913 62.2175C486.069 62.2175 486.223 62.1542 486.335 62.0292C487.513 60.7117 489.213 59.9566 491 59.9566C492.782 59.9566 494.484 60.7123 495.667 62.0298C495.875 62.2627 496.233 62.2808 496.465 62.0728C496.697 61.8642 496.716 61.507 496.508 61.2747C495.11 59.7186 493.103 58.8262 491 58.8262Z" fill="#F74810"/>
<path d="M491 238.565C497.868 238.565 503.435 244.133 503.435 251C503.435 257.868 497.868 263.435 491 263.435C484.133 263.435 478.565 257.868 478.565 251C478.565 244.133 484.133 238.565 491 238.565ZM496.652 249.87C496.652 249.248 496.144 248.739 495.522 248.739C494.9 248.739 494.392 249.248 494.392 249.87C494.392 250.492 494.9 251 495.522 251C496.144 251 496.652 250.492 496.652 249.87ZM487.609 249.87C487.609 249.248 487.1 248.739 486.478 248.739C485.857 248.739 485.348 249.248 485.348 249.87C485.348 250.492 485.857 251 486.478 251C487.1 251 487.609 250.492 487.609 249.87Z" fill="#FFE6E4"/>
<path d="M495.522 251C496.146 251 496.652 250.494 496.652 249.87C496.652 249.245 496.146 248.739 495.522 248.739C494.898 248.739 494.392 249.245 494.392 249.87C494.392 250.494 494.898 251 495.522 251Z" fill="#FFE6E4"/>
<path d="M486.478 251C487.102 251 487.609 250.494 487.609 249.87C487.609 249.245 487.102 248.739 486.478 248.739C485.854 248.739 485.348 249.245 485.348 249.87C485.348 250.494 485.854 251 486.478 251Z" fill="#FFE6E4"/>
<path d="M491 238C483.832 238 478 243.832 478 251C478 258.168 483.832 264 491 264C498.169 264 504 258.168 504 251C504 243.832 498.169 238 491 238ZM491 262.87C484.455 262.87 479.13 257.545 479.13 251C479.13 244.455 484.455 239.13 491 239.13C497.545 239.13 502.87 244.455 502.87 251C502.87 257.545 497.545 262.87 491 262.87Z" fill="#F64810"/>
<path d="M488.174 249.869C488.174 248.935 487.413 248.174 486.478 248.174C485.543 248.174 484.782 248.935 484.782 249.869C484.782 250.804 485.543 251.565 486.478 251.565C487.413 251.565 488.174 250.804 488.174 249.869ZM485.913 249.869C485.913 249.558 486.166 249.304 486.478 249.304C486.789 249.304 487.043 249.558 487.043 249.869C487.043 250.181 486.789 250.435 486.478 250.435C486.166 250.435 485.913 250.181 485.913 249.869Z" fill="#F64810"/>
<path d="M495.522 248.174C494.587 248.174 493.826 248.935 493.826 249.869C493.826 250.804 494.587 251.565 495.522 251.565C496.457 251.565 497.217 250.804 497.217 249.869C497.217 248.935 496.457 248.174 495.522 248.174ZM495.522 250.435C495.21 250.435 494.957 250.181 494.957 249.869C494.957 249.558 495.21 249.304 495.522 249.304C495.834 249.304 496.087 249.558 496.087 249.869C496.087 250.181 495.834 250.435 495.522 250.435Z" fill="#F64810"/>
<path d="M493.262 245.913C493.346 245.913 493.433 245.894 493.514 245.854L495.775 244.723C496.054 244.583 496.167 244.244 496.027 243.965C495.887 243.685 495.547 243.572 495.269 243.712L493.008 244.842C492.729 244.982 492.616 245.322 492.755 245.601C492.855 245.799 493.054 245.913 493.262 245.913Z" fill="#F64810"/>
<path d="M486.225 244.723L488.486 245.854C488.567 245.894 488.653 245.913 488.738 245.913C488.945 245.913 489.145 245.799 489.244 245.6C489.384 245.321 489.271 244.981 488.992 244.842L486.731 243.711C486.45 243.571 486.112 243.685 485.972 243.964C485.832 244.244 485.946 244.583 486.225 244.723Z" fill="#F64810"/>
<path d="M491 253.826C488.892 253.826 486.884 254.719 485.492 256.275C485.284 256.508 485.303 256.865 485.536 257.073C485.644 257.17 485.779 257.217 485.913 257.217C486.069 257.217 486.223 257.154 486.335 257.029C487.513 255.712 489.213 254.957 491 254.957C492.782 254.957 494.484 255.712 495.667 257.03C495.875 257.263 496.233 257.281 496.465 257.073C496.697 256.864 496.716 256.507 496.508 256.275C495.11 254.719 493.103 253.826 491 253.826Z" fill="#F64810"/>
<path d="M491 82.5654C497.868 82.5654 503.435 88.1328 503.435 95.0002C503.435 101.868 497.868 107.435 491 107.435C484.133 107.435 478.565 101.868 478.565 95.0002C478.565 88.1328 484.133 82.5654 491 82.5654ZM496.652 93.8698C496.652 93.248 496.144 92.7393 495.522 92.7393C494.9 92.7393 494.392 93.248 494.392 93.8698C494.392 94.4915 494.9 95.0002 495.522 95.0002C496.144 95.0002 496.652 94.4915 496.652 93.8698ZM487.609 93.8698C487.609 93.248 487.1 92.7393 486.478 92.7393C485.857 92.7393 485.348 93.248 485.348 93.8698C485.348 94.4915 485.857 95.0002 486.478 95.0002C487.1 95.0002 487.609 94.4915 487.609 93.8698Z" fill="#FFE6E4"/>
<path d="M495.522 95.0001C496.146 95.0001 496.652 94.494 496.652 93.8697C496.652 93.2454 496.146 92.7393 495.522 92.7393C494.898 92.7393 494.392 93.2454 494.392 93.8697C494.392 94.494 494.898 95.0001 495.522 95.0001Z" fill="#FFE6E4"/>
<path d="M486.478 95.0001C487.102 95.0001 487.609 94.494 487.609 93.8697C487.609 93.2454 487.102 92.7393 486.478 92.7393C485.854 92.7393 485.348 93.2454 485.348 93.8697C485.348 94.494 485.854 95.0001 486.478 95.0001Z" fill="#FFE6E4"/>
<path d="M491 82C483.832 82 478 87.8319 478 95C478 102.168 483.832 108 491 108C498.169 108 504 102.168 504 95C504 87.8319 498.169 82 491 82ZM491 106.87C484.455 106.87 479.13 101.545 479.13 95C479.13 88.4548 484.455 83.1304 491 83.1304C497.545 83.1304 502.87 88.4548 502.87 95C502.87 101.545 497.545 106.87 491 106.87Z" fill="#F64810"/>
<path d="M488.174 93.8695C488.174 92.9346 487.413 92.1738 486.478 92.1738C485.543 92.1738 484.782 92.9346 484.782 93.8695C484.782 94.8043 485.543 95.5651 486.478 95.5651C487.413 95.5651 488.174 94.8043 488.174 93.8695ZM485.913 93.8695C485.913 93.558 486.166 93.3043 486.478 93.3043C486.789 93.3043 487.043 93.558 487.043 93.8695C487.043 94.1809 486.789 94.4347 486.478 94.4347C486.166 94.4347 485.913 94.1809 485.913 93.8695Z" fill="#F64810"/>
<path d="M495.522 92.1738C494.587 92.1738 493.826 92.9346 493.826 93.8695C493.826 94.8043 494.587 95.5651 495.522 95.5651C496.457 95.5651 497.217 94.8043 497.217 93.8695C497.217 92.9346 496.457 92.1738 495.522 92.1738ZM495.522 94.4347C495.21 94.4347 494.957 94.1809 494.957 93.8695C494.957 93.558 495.21 93.3043 495.522 93.3043C495.834 93.3043 496.087 93.558 496.087 93.8695C496.087 94.1809 495.834 94.4347 495.522 94.4347Z" fill="#F64810"/>
<path d="M493.262 89.9129C493.346 89.9129 493.433 89.8937 493.514 89.8535L495.775 88.7231C496.054 88.5835 496.167 88.2438 496.027 87.9646C495.887 87.6854 495.547 87.5718 495.269 87.7119L493.008 88.8424C492.729 88.982 492.616 89.3217 492.755 89.6009C492.855 89.7987 493.054 89.9129 493.262 89.9129Z" fill="#F64810"/>
<path d="M486.225 88.7231L488.486 89.8535C488.567 89.8936 488.653 89.9129 488.738 89.9129C488.945 89.9129 489.145 89.7987 489.244 89.6003C489.384 89.3211 489.271 88.9814 488.992 88.8418L486.731 87.7113C486.45 87.5712 486.112 87.6853 485.972 87.964C485.832 88.2438 485.946 88.5829 486.225 88.7231Z" fill="#F64810"/>
<path d="M491 97.8262C488.892 97.8262 486.884 98.7192 485.492 100.275C485.284 100.508 485.303 100.865 485.536 101.073C485.644 101.17 485.779 101.217 485.913 101.217C486.069 101.217 486.223 101.154 486.335 101.029C487.513 99.7117 489.213 98.9566 491 98.9566C492.782 98.9566 494.484 99.7123 495.667 101.03C495.875 101.263 496.233 101.281 496.465 101.073C496.697 100.864 496.716 100.507 496.508 100.275C495.11 98.7186 493.103 97.8262 491 97.8262Z" fill="#F64810"/>
<path d="M491 277.565C497.868 277.565 503.435 283.133 503.435 290C503.435 296.868 497.868 302.435 491 302.435C484.133 302.435 478.565 296.868 478.565 290C478.565 283.133 484.133 277.565 491 277.565ZM496.652 288.87C496.652 288.248 496.144 287.739 495.522 287.739C494.9 287.739 494.392 288.248 494.392 288.87C494.392 289.492 494.9 290 495.522 290C496.144 290 496.652 289.492 496.652 288.87ZM487.609 288.87C487.609 288.248 487.1 287.739 486.478 287.739C485.857 287.739 485.348 288.248 485.348 288.87C485.348 289.492 485.857 290 486.478 290C487.1 290 487.609 289.492 487.609 288.87Z" fill="#FFE6E4"/>
<path d="M495.522 290C496.146 290 496.652 289.494 496.652 288.87C496.652 288.245 496.146 287.739 495.522 287.739C494.898 287.739 494.392 288.245 494.392 288.87C494.392 289.494 494.898 290 495.522 290Z" fill="#FFE6E4"/>
<path d="M486.478 290C487.102 290 487.609 289.494 487.609 288.87C487.609 288.245 487.102 287.739 486.478 287.739C485.854 287.739 485.348 288.245 485.348 288.87C485.348 289.494 485.854 290 486.478 290Z" fill="#FFE6E4"/>
<path d="M491 277C483.832 277 478 282.832 478 290C478 297.168 483.832 303 491 303C498.169 303 504 297.168 504 290C504 282.832 498.169 277 491 277ZM491 301.87C484.455 301.87 479.13 296.545 479.13 290C479.13 283.455 484.455 278.13 491 278.13C497.545 278.13 502.87 283.455 502.87 290C502.87 296.545 497.545 301.87 491 301.87Z" fill="#F64810"/>
<path d="M488.174 288.869C488.174 287.935 487.413 287.174 486.478 287.174C485.543 287.174 484.782 287.935 484.782 288.869C484.782 289.804 485.543 290.565 486.478 290.565C487.413 290.565 488.174 289.804 488.174 288.869ZM485.913 288.869C485.913 288.558 486.166 288.304 486.478 288.304C486.789 288.304 487.043 288.558 487.043 288.869C487.043 289.181 486.789 289.435 486.478 289.435C486.166 289.435 485.913 289.181 485.913 288.869Z" fill="#F64810"/>
<path d="M495.522 287.174C494.587 287.174 493.826 287.935 493.826 288.869C493.826 289.804 494.587 290.565 495.522 290.565C496.457 290.565 497.217 289.804 497.217 288.869C497.217 287.935 496.457 287.174 495.522 287.174ZM495.522 289.435C495.21 289.435 494.957 289.181 494.957 288.869C494.957 288.558 495.21 288.304 495.522 288.304C495.834 288.304 496.087 288.558 496.087 288.869C496.087 289.181 495.834 289.435 495.522 289.435Z" fill="#F64810"/>
<path d="M493.262 284.913C493.346 284.913 493.433 284.894 493.514 284.854L495.775 283.723C496.054 283.583 496.167 283.244 496.027 282.965C495.887 282.685 495.547 282.572 495.269 282.712L493.008 283.842C492.729 283.982 492.616 284.322 492.755 284.601C492.855 284.799 493.054 284.913 493.262 284.913Z" fill="#F64810"/>
<path d="M486.225 283.723L488.486 284.854C488.567 284.894 488.653 284.913 488.738 284.913C488.945 284.913 489.145 284.799 489.244 284.6C489.384 284.321 489.271 283.981 488.992 283.842L486.731 282.711C486.45 282.571 486.112 282.685 485.972 282.964C485.832 283.244 485.946 283.583 486.225 283.723Z" fill="#F64810"/>
<path d="M491 292.826C488.892 292.826 486.884 293.719 485.492 295.275C485.284 295.508 485.303 295.865 485.536 296.073C485.644 296.17 485.779 296.217 485.913 296.217C486.069 296.217 486.223 296.154 486.335 296.029C487.513 294.712 489.213 293.957 491 293.957C492.782 293.957 494.484 294.712 495.667 296.03C495.875 296.263 496.233 296.281 496.465 296.073C496.697 295.864 496.716 295.507 496.508 295.275C495.11 293.719 493.103 292.826 491 292.826Z" fill="#F64810"/>
<path d="M349 199.565C355.868 199.565 361.435 205.133 361.435 212C361.435 218.868 355.868 224.435 349 224.435C342.133 224.435 336.565 218.868 336.565 212C336.565 205.133 342.133 199.565 349 199.565ZM354.652 210.87C354.652 210.248 354.144 209.739 353.522 209.739C352.9 209.739 352.392 210.248 352.392 210.87C352.392 211.492 352.9 212 353.522 212C354.144 212 354.652 211.492 354.652 210.87ZM345.609 210.87C345.609 210.248 345.1 209.739 344.478 209.739C343.857 209.739 343.348 210.248 343.348 210.87C343.348 211.492 343.857 212 344.478 212C345.1 212 345.609 211.492 345.609 210.87Z" fill="#FFE6E4"/>
<path d="M353.522 212C354.146 212 354.652 211.494 354.652 210.87C354.652 210.245 354.146 209.739 353.522 209.739C352.898 209.739 352.392 210.245 352.392 210.87C352.392 211.494 352.898 212 353.522 212Z" fill="#FFE6E4"/>
<path d="M344.478 212C345.102 212 345.609 211.494 345.609 210.87C345.609 210.245 345.102 209.739 344.478 209.739C343.854 209.739 343.348 210.245 343.348 210.87C343.348 211.494 343.854 212 344.478 212Z" fill="#FFE6E4"/>
<path d="M349 199C341.832 199 336 204.832 336 212C336 219.168 341.832 225 349 225C356.169 225 362 219.168 362 212C362 204.832 356.169 199 349 199ZM349 223.87C342.455 223.87 337.13 218.545 337.13 212C337.13 205.455 342.455 200.13 349 200.13C355.545 200.13 360.87 205.455 360.87 212C360.87 218.545 355.545 223.87 349 223.87Z" fill="#F64810"/>
<path d="M346.174 210.869C346.174 209.935 345.413 209.174 344.478 209.174C343.543 209.174 342.782 209.935 342.782 210.869C342.782 211.804 343.543 212.565 344.478 212.565C345.413 212.565 346.174 211.804 346.174 210.869ZM343.913 210.869C343.913 210.558 344.166 210.304 344.478 210.304C344.789 210.304 345.043 210.558 345.043 210.869C345.043 211.181 344.789 211.435 344.478 211.435C344.166 211.435 343.913 211.181 343.913 210.869Z" fill="#F64810"/>
<path d="M353.522 209.174C352.587 209.174 351.826 209.935 351.826 210.869C351.826 211.804 352.587 212.565 353.522 212.565C354.457 212.565 355.217 211.804 355.217 210.869C355.217 209.935 354.457 209.174 353.522 209.174ZM353.522 211.435C353.21 211.435 352.957 211.181 352.957 210.869C352.957 210.558 353.21 210.304 353.522 210.304C353.834 210.304 354.087 210.558 354.087 210.869C354.087 211.181 353.834 211.435 353.522 211.435Z" fill="#F64810"/>
<path d="M351.262 206.913C351.346 206.913 351.433 206.894 351.514 206.854L353.775 205.723C354.054 205.583 354.167 205.244 354.027 204.965C353.887 204.685 353.547 204.572 353.269 204.712L351.008 205.842C350.729 205.982 350.616 206.322 350.755 206.601C350.855 206.799 351.054 206.913 351.262 206.913Z" fill="#F64810"/>
<path d="M344.225 205.723L346.486 206.854C346.567 206.894 346.653 206.913 346.738 206.913C346.945 206.913 347.145 206.799 347.244 206.6C347.384 206.321 347.271 205.981 346.992 205.842L344.731 204.711C344.45 204.571 344.112 204.685 343.972 204.964C343.832 205.244 343.946 205.583 344.225 205.723Z" fill="#F64810"/>
<path d="M349 214.826C346.892 214.826 344.884 215.719 343.492 217.275C343.284 217.508 343.303 217.865 343.536 218.073C343.644 218.17 343.779 218.217 343.913 218.217C344.069 218.217 344.223 218.154 344.335 218.029C345.513 216.712 347.213 215.957 349 215.957C350.782 215.957 352.484 216.712 353.667 218.03C353.875 218.263 354.233 218.281 354.465 218.073C354.697 217.864 354.716 217.507 354.508 217.275C353.11 215.719 351.103 214.826 349 214.826Z" fill="#F64810"/>
<path d="M203 81.5654C209.868 81.5654 215.435 87.1328 215.435 94.0002C215.435 100.868 209.868 106.435 203 106.435C196.133 106.435 190.565 100.868 190.565 94.0002C190.565 87.1328 196.133 81.5654 203 81.5654ZM208.652 91.7393C208.652 91.1176 208.144 90.6089 207.522 90.6089C206.9 90.6089 206.392 91.1176 206.392 91.7393C206.392 92.3611 206.9 92.8698 207.522 92.8698C208.144 92.8698 208.652 92.3611 208.652 91.7393ZM199.609 91.7393C199.609 91.1176 199.1 90.6089 198.478 90.6089C197.857 90.6089 197.348 91.1176 197.348 91.7393C197.348 92.3611 197.857 92.8698 198.478 92.8698C199.1 92.8698 199.609 92.3611 199.609 91.7393Z" fill="#FFEFDC"/>
<path d="M207.522 92.8698C208.146 92.8698 208.652 92.3636 208.652 91.7393C208.652 91.115 208.146 90.6089 207.522 90.6089C206.898 90.6089 206.392 91.115 206.392 91.7393C206.392 92.3636 206.898 92.8698 207.522 92.8698Z" fill="#FFEFDC"/>
<path d="M198.478 92.8698C199.102 92.8698 199.609 92.3636 199.609 91.7393C199.609 91.115 199.102 90.6089 198.478 90.6089C197.854 90.6089 197.348 91.115 197.348 91.7393C197.348 92.3636 197.854 92.8698 198.478 92.8698Z" fill="#FFEFDC"/>
<path d="M203 81C195.832 81 190 86.8319 190 94C190 101.168 195.832 107 203 107C210.169 107 216 101.168 216 94C216 86.8319 210.169 81 203 81ZM203 105.87C196.455 105.87 191.13 100.545 191.13 94C191.13 87.4548 196.455 82.1304 203 82.1304C209.545 82.1304 214.87 87.4548 214.87 94C214.87 100.545 209.545 105.87 203 105.87Z" fill="#F28100"/>
<path d="M200.175 91.7391C200.175 90.8042 199.414 90.0435 198.479 90.0435C197.544 90.0435 196.783 90.8042 196.783 91.7391C196.783 92.674 197.544 93.4348 198.479 93.4348C199.414 93.4348 200.175 92.674 200.175 91.7391ZM197.914 91.7391C197.914 91.4277 198.167 91.1739 198.479 91.1739C198.79 91.1739 199.044 91.4277 199.044 91.7391C199.044 92.0505 198.79 92.3043 198.479 92.3043C198.167 92.3043 197.914 92.0505 197.914 91.7391Z" fill="#F28100"/>
<path d="M207.522 90.0435C206.587 90.0435 205.826 90.8042 205.826 91.7391C205.826 92.674 206.587 93.4348 207.522 93.4348C208.457 93.4348 209.217 92.674 209.217 91.7391C209.217 90.8042 208.457 90.0435 207.522 90.0435ZM207.522 92.3043C207.21 92.3043 206.957 92.0505 206.957 91.7391C206.957 91.4277 207.21 91.1739 207.522 91.1739C207.834 91.1739 208.087 91.4277 208.087 91.7391C208.087 92.0505 207.834 92.3043 207.522 92.3043Z" fill="#F28100"/>
<path fill-rule="evenodd" clip-rule="evenodd" d="M197.35 99.0001C197.35 98.6411 197.641 98.3501 198 98.3501H208C208.359 98.3501 208.65 98.6411 208.65 99.0001C208.65 99.3591 208.359 99.6501 208 99.6501H198C197.641 99.6501 197.35 99.3591 197.35 99.0001Z" fill="#F28100"/>
<path d="M203 121.565C209.868 121.565 215.435 127.133 215.435 134C215.435 140.868 209.868 146.435 203 146.435C196.133 146.435 190.565 140.868 190.565 134C190.565 127.133 196.133 121.565 203 121.565ZM208.652 131.739C208.652 131.118 208.144 130.609 207.522 130.609C206.9 130.609 206.392 131.118 206.392 131.739C206.392 132.361 206.9 132.87 207.522 132.87C208.144 132.87 208.652 132.361 208.652 131.739ZM199.609 131.739C199.609 131.118 199.1 130.609 198.478 130.609C197.857 130.609 197.348 131.118 197.348 131.739C197.348 132.361 197.857 132.87 198.478 132.87C199.1 132.87 199.609 132.361 199.609 131.739Z" fill="#FFEFDC"/>
<path d="M207.522 132.87C208.146 132.87 208.652 132.364 208.652 131.739C208.652 131.115 208.146 130.609 207.522 130.609C206.898 130.609 206.392 131.115 206.392 131.739C206.392 132.364 206.898 132.87 207.522 132.87Z" fill="#FFEFDC"/>
<path d="M198.478 132.87C199.102 132.87 199.609 132.364 199.609 131.739C199.609 131.115 199.102 130.609 198.478 130.609C197.854 130.609 197.348 131.115 197.348 131.739C197.348 132.364 197.854 132.87 198.478 132.87Z" fill="#FFEFDC"/>
<path d="M203 121C195.832 121 190 126.832 190 134C190 141.168 195.832 147 203 147C210.169 147 216 141.168 216 134C216 126.832 210.169 121 203 121ZM203 145.87C196.455 145.87 191.13 140.545 191.13 134C191.13 127.455 196.455 122.13 203 122.13C209.545 122.13 214.87 127.455 214.87 134C214.87 140.545 209.545 145.87 203 145.87Z" fill="#F28100"/>
<path d="M200.175 131.739C200.175 130.804 199.414 130.043 198.479 130.043C197.544 130.043 196.783 130.804 196.783 131.739C196.783 132.674 197.544 133.435 198.479 133.435C199.414 133.435 200.175 132.674 200.175 131.739ZM197.914 131.739C197.914 131.428 198.167 131.174 198.479 131.174C198.79 131.174 199.044 131.428 199.044 131.739C199.044 132.051 198.79 132.304 198.479 132.304C198.167 132.304 197.914 132.051 197.914 131.739Z" fill="#F28100"/>
<path d="M207.522 130.043C206.587 130.043 205.826 130.804 205.826 131.739C205.826 132.674 206.587 133.435 207.522 133.435C208.457 133.435 209.217 132.674 209.217 131.739C209.217 130.804 208.457 130.043 207.522 130.043ZM207.522 132.304C207.21 132.304 206.957 132.051 206.957 131.739C206.957 131.428 207.21 131.174 207.522 131.174C207.834 131.174 208.087 131.428 208.087 131.739C208.087 132.051 207.834 132.304 207.522 132.304Z" fill="#F28100"/>
<path fill-rule="evenodd" clip-rule="evenodd" d="M197.35 139C197.35 138.641 197.641 138.35 198 138.35H208C208.359 138.35 208.65 138.641 208.65 139C208.65 139.359 208.359 139.65 208 139.65H198C197.641 139.65 197.35 139.359 197.35 139Z" fill="#F28100"/>
<path d="M203 160.565C209.868 160.565 215.435 166.133 215.435 173C215.435 179.868 209.868 185.435 203 185.435C196.133 185.435 190.565 179.868 190.565 173C190.565 166.133 196.133 160.565 203 160.565ZM208.652 170.739C208.652 170.118 208.144 169.609 207.522 169.609C206.9 169.609 206.392 170.118 206.392 170.739C206.392 171.361 206.9 171.87 207.522 171.87C208.144 171.87 208.652 171.361 208.652 170.739ZM199.609 170.739C199.609 170.118 199.1 169.609 198.478 169.609C197.857 169.609 197.348 170.118 197.348 170.739C197.348 171.361 197.857 171.87 198.478 171.87C199.1 171.87 199.609 171.361 199.609 170.739Z" fill="#FFEFDC"/>
<path d="M207.522 171.87C208.146 171.87 208.652 171.364 208.652 170.739C208.652 170.115 208.146 169.609 207.522 169.609C206.898 169.609 206.392 170.115 206.392 170.739C206.392 171.364 206.898 171.87 207.522 171.87Z" fill="#FFEFDC"/>
<path d="M198.478 171.87C199.102 171.87 199.609 171.364 199.609 170.739C199.609 170.115 199.102 169.609 198.478 169.609C197.854 169.609 197.348 170.115 197.348 170.739C197.348 171.364 197.854 171.87 198.478 171.87Z" fill="#FFEFDC"/>
<path d="M203 160C195.832 160 190 165.832 190 173C190 180.168 195.832 186 203 186C210.169 186 216 180.168 216 173C216 165.832 210.169 160 203 160ZM203 184.87C196.455 184.87 191.13 179.545 191.13 173C191.13 166.455 196.455 161.13 203 161.13C209.545 161.13 214.87 166.455 214.87 173C214.87 179.545 209.545 184.87 203 184.87Z" fill="#F28100"/>
<path d="M200.175 170.739C200.175 169.804 199.414 169.043 198.479 169.043C197.544 169.043 196.783 169.804 196.783 170.739C196.783 171.674 197.544 172.435 198.479 172.435C199.414 172.435 200.175 171.674 200.175 170.739ZM197.914 170.739C197.914 170.428 198.167 170.174 198.479 170.174C198.79 170.174 199.044 170.428 199.044 170.739C199.044 171.051 198.79 171.304 198.479 171.304C198.167 171.304 197.914 171.051 197.914 170.739Z" fill="#F28100"/>
<path d="M207.522 169.043C206.587 169.043 205.826 169.804 205.826 170.739C205.826 171.674 206.587 172.435 207.522 172.435C208.457 172.435 209.217 171.674 209.217 170.739C209.217 169.804 208.457 169.043 207.522 169.043ZM207.522 171.304C207.21 171.304 206.957 171.051 206.957 170.739C206.957 170.428 207.21 170.174 207.522 170.174C207.834 170.174 208.087 170.428 208.087 170.739C208.087 171.051 207.834 171.304 207.522 171.304Z" fill="#F28100"/>
<path fill-rule="evenodd" clip-rule="evenodd" d="M197.35 178C197.35 177.641 197.641 177.35 198 177.35H208C208.359 177.35 208.65 177.641 208.65 178C208.65 178.359 208.359 178.65 208 178.65H198C197.641 178.65 197.35 178.359 197.35 178Z" fill="#F28100"/>
<path d="M203 199.565C209.868 199.565 215.435 205.133 215.435 212C215.435 218.868 209.868 224.435 203 224.435C196.133 224.435 190.565 218.868 190.565 212C190.565 205.133 196.133 199.565 203 199.565ZM208.652 209.739C208.652 209.118 208.144 208.609 207.522 208.609C206.9 208.609 206.392 209.118 206.392 209.739C206.392 210.361 206.9 210.87 207.522 210.87C208.144 210.87 208.652 210.361 208.652 209.739ZM199.609 209.739C199.609 209.118 199.1 208.609 198.478 208.609C197.857 208.609 197.348 209.118 197.348 209.739C197.348 210.361 197.857 210.87 198.478 210.87C199.1 210.87 199.609 210.361 199.609 209.739Z" fill="#FFEFDC"/>
<path d="M207.522 210.87C208.146 210.87 208.652 210.364 208.652 209.739C208.652 209.115 208.146 208.609 207.522 208.609C206.898 208.609 206.392 209.115 206.392 209.739C206.392 210.364 206.898 210.87 207.522 210.87Z" fill="#FFEFDC"/>
<path d="M198.478 210.87C199.102 210.87 199.609 210.364 199.609 209.739C199.609 209.115 199.102 208.609 198.478 208.609C197.854 208.609 197.348 209.115 197.348 209.739C197.348 210.364 197.854 210.87 198.478 210.87Z" fill="#FFEFDC"/>
<path d="M203 199C195.832 199 190 204.832 190 212C190 219.168 195.832 225 203 225C210.169 225 216 219.168 216 212C216 204.832 210.169 199 203 199ZM203 223.87C196.455 223.87 191.13 218.545 191.13 212C191.13 205.455 196.455 200.13 203 200.13C209.545 200.13 214.87 205.455 214.87 212C214.87 218.545 209.545 223.87 203 223.87Z" fill="#F28100"/>
<path d="M200.175 209.739C200.175 208.804 199.414 208.043 198.479 208.043C197.544 208.043 196.783 208.804 196.783 209.739C196.783 210.674 197.544 211.435 198.479 211.435C199.414 211.435 200.175 210.674 200.175 209.739ZM197.914 209.739C197.914 209.428 198.167 209.174 198.479 209.174C198.79 209.174 199.044 209.428 199.044 209.739C199.044 210.051 198.79 210.304 198.479 210.304C198.167 210.304 197.914 210.051 197.914 209.739Z" fill="#F28100"/>
<path d="M207.522 208.043C206.587 208.043 205.826 208.804 205.826 209.739C205.826 210.674 206.587 211.435 207.522 211.435C208.457 211.435 209.217 210.674 209.217 209.739C209.217 208.804 208.457 208.043 207.522 208.043ZM207.522 210.304C207.21 210.304 206.957 210.051 206.957 209.739C206.957 209.428 207.21 209.174 207.522 209.174C207.834 209.174 208.087 209.428 208.087 209.739C208.087 210.051 207.834 210.304 207.522 210.304Z" fill="#F28100"/>
<path fill-rule="evenodd" clip-rule="evenodd" d="M197.35 217C197.35 216.641 197.641 216.35 198 216.35H208C208.359 216.35 208.65 216.641 208.65 217C208.65 217.359 208.359 217.65 208 217.65H198C197.641 217.65 197.35 217.359 197.35 217Z" fill="#F28100"/>
<path d="M349 237.565C355.868 237.565 361.435 243.133 361.435 250C361.435 256.868 355.868 262.435 349 262.435C342.133 262.435 336.565 256.868 336.565 250C336.565 243.133 342.133 237.565 349 237.565ZM354.652 247.739C354.652 247.118 354.144 246.609 353.522 246.609C352.9 246.609 352.392 247.118 352.392 247.739C352.392 248.361 352.9 248.87 353.522 248.87C354.144 248.87 354.652 248.361 354.652 247.739ZM345.609 247.739C345.609 247.118 345.1 246.609 344.478 246.609C343.857 246.609 343.348 247.118 343.348 247.739C343.348 248.361 343.857 248.87 344.478 248.87C345.1 248.87 345.609 248.361 345.609 247.739Z" fill="#FFEFDC"/>
<path d="M353.522 248.87C354.146 248.87 354.652 248.364 354.652 247.739C354.652 247.115 354.146 246.609 353.522 246.609C352.898 246.609 352.392 247.115 352.392 247.739C352.392 248.364 352.898 248.87 353.522 248.87Z" fill="#FFEFDC"/>
<path d="M344.478 248.87C345.102 248.87 345.609 248.364 345.609 247.739C345.609 247.115 345.102 246.609 344.478 246.609C343.854 246.609 343.348 247.115 343.348 247.739C343.348 248.364 343.854 248.87 344.478 248.87Z" fill="#FFEFDC"/>
<path d="M349 237C341.832 237 336 242.832 336 250C336 257.168 341.832 263 349 263C356.169 263 362 257.168 362 250C362 242.832 356.169 237 349 237ZM349 261.87C342.455 261.87 337.13 256.545 337.13 250C337.13 243.455 342.455 238.13 349 238.13C355.545 238.13 360.87 243.455 360.87 250C360.87 256.545 355.545 261.87 349 261.87Z" fill="#F28100"/>
<path d="M346.175 247.739C346.175 246.804 345.414 246.043 344.479 246.043C343.544 246.043 342.783 246.804 342.783 247.739C342.783 248.674 343.544 249.435 344.479 249.435C345.414 249.435 346.175 248.674 346.175 247.739ZM343.914 247.739C343.914 247.428 344.167 247.174 344.479 247.174C344.79 247.174 345.044 247.428 345.044 247.739C345.044 248.051 344.79 248.304 344.479 248.304C344.167 248.304 343.914 248.051 343.914 247.739Z" fill="#F28100"/>
<path d="M353.522 246.043C352.587 246.043 351.826 246.804 351.826 247.739C351.826 248.674 352.587 249.435 353.522 249.435C354.457 249.435 355.217 248.674 355.217 247.739C355.217 246.804 354.457 246.043 353.522 246.043ZM353.522 248.304C353.21 248.304 352.957 248.051 352.957 247.739C352.957 247.428 353.21 247.174 353.522 247.174C353.834 247.174 354.087 247.428 354.087 247.739C354.087 248.051 353.834 248.304 353.522 248.304Z" fill="#F28100"/>
<path fill-rule="evenodd" clip-rule="evenodd" d="M343.35 255C343.35 254.641 343.641 254.35 344 254.35H354C354.359 254.35 354.65 254.641 354.65 255C354.65 255.359 354.359 255.65 354 255.65H344C343.641 255.65 343.35 255.359 343.35 255Z" fill="#F28100"/>
<path d="M349 43.5654C355.868 43.5654 361.435 49.1328 361.435 56.0002C361.435 62.8676 355.868 68.435 349 68.435C342.133 68.435 336.565 62.8676 336.565 56.0002C336.565 49.1328 342.133 43.5654 349 43.5654ZM354.652 53.7393C354.652 53.1176 354.144 52.6089 353.522 52.6089C352.9 52.6089 352.392 53.1176 352.392 53.7393C352.392 54.3611 352.9 54.8698 353.522 54.8698C354.144 54.8698 354.652 54.3611 354.652 53.7393ZM345.609 53.7393C345.609 53.1176 345.1 52.6089 344.478 52.6089C343.857 52.6089 343.348 53.1176 343.348 53.7393C343.348 54.3611 343.857 54.8698 344.478 54.8698C345.1 54.8698 345.609 54.3611 345.609 53.7393Z" fill="#FFEFDC"/>
<path d="M353.522 54.8698C354.146 54.8698 354.652 54.3636 354.652 53.7393C354.652 53.115 354.146 52.6089 353.522 52.6089C352.898 52.6089 352.392 53.115 352.392 53.7393C352.392 54.3636 352.898 54.8698 353.522 54.8698Z" fill="#FFEFDC"/>
<path d="M344.478 54.8698C345.102 54.8698 345.609 54.3636 345.609 53.7393C345.609 53.115 345.102 52.6089 344.478 52.6089C343.854 52.6089 343.348 53.115 343.348 53.7393C343.348 54.3636 343.854 54.8698 344.478 54.8698Z" fill="#FFEFDC"/>
<path d="M349 43C341.832 43 336 48.8319 336 56C336 63.1681 341.832 69 349 69C356.169 69 362 63.1681 362 56C362 48.8319 356.169 43 349 43ZM349 67.8696C342.455 67.8696 337.13 62.5452 337.13 56C337.13 49.4548 342.455 44.1304 349 44.1304C355.545 44.1304 360.87 49.4548 360.87 56C360.87 62.5452 355.545 67.8696 349 67.8696Z" fill="#F28100"/>
<path d="M346.175 53.7391C346.175 52.8042 345.414 52.0435 344.479 52.0435C343.544 52.0435 342.783 52.8042 342.783 53.7391C342.783 54.674 343.544 55.4348 344.479 55.4348C345.414 55.4348 346.175 54.674 346.175 53.7391ZM343.914 53.7391C343.914 53.4277 344.167 53.1739 344.479 53.1739C344.79 53.1739 345.044 53.4277 345.044 53.7391C345.044 54.0505 344.79 54.3043 344.479 54.3043C344.167 54.3043 343.914 54.0505 343.914 53.7391Z" fill="#F28100"/>
<path d="M353.522 52.0435C352.587 52.0435 351.826 52.8042 351.826 53.7391C351.826 54.674 352.587 55.4348 353.522 55.4348C354.457 55.4348 355.217 54.674 355.217 53.7391C355.217 52.8042 354.457 52.0435 353.522 52.0435ZM353.522 54.3043C353.21 54.3043 352.957 54.0505 352.957 53.7391C352.957 53.4277 353.21 53.1739 353.522 53.1739C353.834 53.1739 354.087 53.4277 354.087 53.7391C354.087 54.0505 353.834 54.3043 353.522 54.3043Z" fill="#F28100"/>
<path fill-rule="evenodd" clip-rule="evenodd" d="M343.35 61.0001C343.35 60.6411 343.641 60.3501 344 60.3501H354C354.359 60.3501 354.65 60.6411 354.65 61.0001C354.65 61.3591 354.359 61.6501 354 61.6501H344C343.641 61.6501 343.35 61.3591 343.35 61.0001Z" fill="#F28100"/>
<path d="M349 277.565C355.868 277.565 361.435 283.133 361.435 290C361.435 296.868 355.868 302.435 349 302.435C342.133 302.435 336.565 296.868 336.565 290C336.565 283.133 342.133 277.565 349 277.565ZM354.652 287.739C354.652 287.118 354.144 286.609 353.522 286.609C352.9 286.609 352.392 287.118 352.392 287.739C352.392 288.361 352.9 288.87 353.522 288.87C354.144 288.87 354.652 288.361 354.652 287.739ZM345.609 287.739C345.609 287.118 345.1 286.609 344.478 286.609C343.857 286.609 343.348 287.118 343.348 287.739C343.348 288.361 343.857 288.87 344.478 288.87C345.1 288.87 345.609 288.361 345.609 287.739Z" fill="#FFEFDC"/>
<path d="M353.522 288.87C354.146 288.87 354.652 288.364 354.652 287.739C354.652 287.115 354.146 286.609 353.522 286.609C352.898 286.609 352.392 287.115 352.392 287.739C352.392 288.364 352.898 288.87 353.522 288.87Z" fill="#FFEFDC"/>
<path d="M344.478 288.87C345.102 288.87 345.609 288.364 345.609 287.739C345.609 287.115 345.102 286.609 344.478 286.609C343.854 286.609 343.348 287.115 343.348 287.739C343.348 288.364 343.854 288.87 344.478 288.87Z" fill="#FFEFDC"/>
<path d="M349 277C341.832 277 336 282.832 336 290C336 297.168 341.832 303 349 303C356.169 303 362 297.168 362 290C362 282.832 356.169 277 349 277ZM349 301.87C342.455 301.87 337.13 296.545 337.13 290C337.13 283.455 342.455 278.13 349 278.13C355.545 278.13 360.87 283.455 360.87 290C360.87 296.545 355.545 301.87 349 301.87Z" fill="#F28100"/>
<path d="M346.175 287.739C346.175 286.804 345.414 286.043 344.479 286.043C343.544 286.043 342.783 286.804 342.783 287.739C342.783 288.674 343.544 289.435 344.479 289.435C345.414 289.435 346.175 288.674 346.175 287.739ZM343.914 287.739C343.914 287.428 344.167 287.174 344.479 287.174C344.79 287.174 345.044 287.428 345.044 287.739C345.044 288.051 344.79 288.304 344.479 288.304C344.167 288.304 343.914 288.051 343.914 287.739Z" fill="#F28100"/>
<path d="M353.522 286.043C352.587 286.043 351.826 286.804 351.826 287.739C351.826 288.674 352.587 289.435 353.522 289.435C354.457 289.435 355.217 288.674 355.217 287.739C355.217 286.804 354.457 286.043 353.522 286.043ZM353.522 288.304C353.21 288.304 352.957 288.051 352.957 287.739C352.957 287.428 353.21 287.174 353.522 287.174C353.834 287.174 354.087 287.428 354.087 287.739C354.087 288.051 353.834 288.304 353.522 288.304Z" fill="#F28100"/>
<path fill-rule="evenodd" clip-rule="evenodd" d="M343.35 295C343.35 294.641 343.641 294.35 344 294.35H354C354.359 294.35 354.65 294.641 354.65 295C354.65 295.359 354.359 295.65 354 295.65H344C343.641 295.65 343.35 295.359 343.35 295Z" fill="#F28100"/>
</g>
<defs>
<clipPath id="clip0_1737_220">
<rect width="558" height="306" fill="white"/>
</clipPath>
</defs>
</svg>
