<svg width="711" height="458" viewBox="0 0 711 458" fill="none" xmlns="http://www.w3.org/2000/svg">
<path d="M70.5 78C70.5 75.5147 72.5147 73.5 75 73.5H208.5V112.5H70.5V78Z" fill="#F9F9FB" stroke="#DDDDE6"/>
<rect x="208.5" y="73.5" width="142" height="39" fill="#F9F9FB" stroke="#DDDDE6"/>
<rect x="350.5" y="73.5" width="142" height="39" fill="#F9F9FB" stroke="#DDDDE6"/>
<path d="M492.5 73.5H630C632.485 73.5 634.5 75.5147 634.5 78V112.5H492.5V73.5Z" fill="#F9F9FB" stroke="#DDDDE6"/>
<rect x="70.5" y="112.5" width="138" height="39" fill="white" stroke="#DDDDE6"/>
<rect x="70.5" y="151.5" width="138" height="39" fill="white" stroke="#DDDDE6"/>
<rect x="70.5" y="190.5" width="138" height="39" fill="white" stroke="#DDDDE6"/>
<rect x="70.5" y="229.5" width="138" height="39" fill="white" stroke="#DDDDE6"/>
<rect x="70.5" y="268.5" width="138" height="39" fill="white" stroke="#DDDDE6"/>
<rect x="70.5" y="307.5" width="138" height="39" fill="white" stroke="#DDDDE6"/>
<path d="M70.5 346.5H208.5V385.5H75C72.5147 385.5 70.5 383.485 70.5 381V346.5Z" fill="white" stroke="#DDDDE6"/>
<rect x="208.5" y="112.5" width="142" height="39" fill="white" stroke="#DDDDE6"/>
<rect x="208.5" y="151.5" width="142" height="39" fill="white" stroke="#DDDDE6"/>
<rect x="208.5" y="190.5" width="142" height="39" fill="white" stroke="#DDDDE6"/>
<rect x="208.5" y="229.5" width="142" height="39" fill="white" stroke="#DDDDE6"/>
<rect x="208.5" y="268.5" width="142" height="39" fill="white" stroke="#DDDDE6"/>
<rect x="208.5" y="307.5" width="142" height="39" fill="white" stroke="#DDDDE6"/>
<rect x="208.5" y="346.5" width="142" height="39" fill="white" stroke="#DDDDE6"/>
<rect x="350.5" y="112.5" width="142" height="39" fill="white" stroke="#DDDDE6"/>
<rect x="350.5" y="151.5" width="142" height="39" fill="white" stroke="#DDDDE6"/>
<rect x="350.5" y="190.5" width="142" height="39" fill="white" stroke="#DDDDE6"/>
<rect x="350.5" y="229.5" width="142" height="39" fill="white" stroke="#DDDDE6"/>
<rect x="350.5" y="268.5" width="142" height="39" fill="white" stroke="#DDDDE6"/>
<rect x="492.5" y="268.5" width="142" height="39" fill="white" stroke="#DDDDE6"/>
<rect x="350.5" y="307.5" width="142" height="39" fill="white" stroke="#DDDDE6"/>
<rect x="492.5" y="307.5" width="142" height="39" fill="white" stroke="#DDDDE6"/>
<rect x="350.5" y="346.5" width="142" height="39" fill="white" stroke="#DDDDE6"/>
<rect x="492.5" y="112.5" width="142" height="39" fill="white" stroke="#DDDDE6"/>
<rect x="492.5" y="151.5" width="142" height="39" fill="white" stroke="#DDDDE6"/>
<rect x="492.5" y="190.5" width="142" height="39" fill="white" stroke="#DDDDE6"/>
<rect x="492.5" y="229.5" width="142" height="39" fill="white" stroke="#DDDDE6"/>
<path d="M492.5 346.5H634.5V381C634.5 383.485 632.485 385.5 630 385.5H492.5V346.5Z" fill="white" stroke="#DDDDE6"/>
<path d="M99.96 86.4H101.814V99H99.762V90.18L95.784 96.156H94.56L90.582 90.162V99H88.53V86.4H90.384L95.172 93.618L99.96 86.4ZM111.775 97.002C111.775 97.422 111.985 97.632 112.405 97.632C112.549 97.632 112.741 97.596 112.981 97.524V98.91C112.621 99.054 112.213 99.126 111.757 99.126C110.893 99.126 110.317 98.79 110.029 98.118C109.105 98.862 108.019 99.234 106.771 99.234C105.931 99.234 105.217 99.006 104.629 98.55C104.041 98.082 103.747 97.428 103.747 96.588C103.747 95.58 104.125 94.848 104.881 94.392C105.637 93.924 106.543 93.69 107.599 93.69C108.295 93.69 109.045 93.774 109.849 93.942V93.636C109.849 93.084 109.651 92.64 109.255 92.304C108.859 91.968 108.301 91.8 107.581 91.8C106.513 91.8 105.475 92.022 104.467 92.466V90.702C105.595 90.318 106.699 90.126 107.779 90.126C109.039 90.126 110.017 90.438 110.713 91.062C111.421 91.686 111.775 92.634 111.775 93.906V97.002ZM107.977 95.04C107.341 95.04 106.807 95.154 106.375 95.382C105.943 95.61 105.727 95.97 105.727 96.462C105.727 96.87 105.883 97.188 106.195 97.416C106.507 97.632 106.891 97.74 107.347 97.74C108.331 97.74 109.165 97.398 109.849 96.714V95.256C109.153 95.112 108.529 95.04 107.977 95.04ZM116.359 99H114.433V90.36H120.877V92.052H116.359V99ZM129.617 97.002C129.617 97.422 129.827 97.632 130.247 97.632C130.391 97.632 130.583 97.596 130.823 97.524V98.91C130.463 99.054 130.055 99.126 129.599 99.126C128.735 99.126 128.159 98.79 127.871 98.118C126.947 98.862 125.861 99.234 124.613 99.234C123.773 99.234 123.059 99.006 122.471 98.55C121.883 98.082 121.589 97.428 121.589 96.588C121.589 95.58 121.967 94.848 122.723 94.392C123.479 93.924 124.385 93.69 125.441 93.69C126.137 93.69 126.887 93.774 127.691 93.942V93.636C127.691 93.084 127.493 92.64 127.097 92.304C126.701 91.968 126.143 91.8 125.423 91.8C124.355 91.8 123.317 92.022 122.309 92.466V90.702C123.437 90.318 124.541 90.126 125.621 90.126C126.881 90.126 127.859 90.438 128.555 91.062C129.263 91.686 129.617 92.634 129.617 93.906V97.002ZM125.819 95.04C125.183 95.04 124.649 95.154 124.217 95.382C123.785 95.61 123.569 95.97 123.569 96.462C123.569 96.87 123.725 97.188 124.037 97.416C124.349 97.632 124.733 97.74 125.189 97.74C126.173 97.74 127.007 97.398 127.691 96.714V95.256C126.995 95.112 126.371 95.04 125.819 95.04ZM139.042 96.642C139.042 97.422 138.688 98.052 137.98 98.532C137.284 99 136.288 99.234 134.992 99.234C133.732 99.234 132.652 99 131.752 98.532V96.876C132.604 97.356 133.6 97.596 134.74 97.596C136.312 97.596 137.098 97.2 137.098 96.408C137.098 95.7 136.498 95.346 135.298 95.346H133.534V93.87H135.298C136.378 93.87 136.918 93.546 136.918 92.898C136.918 92.526 136.732 92.244 136.36 92.052C135.988 91.848 135.484 91.746 134.848 91.746C133.768 91.746 132.79 91.98 131.914 92.448V90.792C132.862 90.336 133.918 90.108 135.082 90.108C136.342 90.108 137.284 90.342 137.908 90.81C138.544 91.278 138.862 91.89 138.862 92.646C138.862 93.138 138.724 93.552 138.448 93.888C138.172 94.224 137.8 94.452 137.332 94.572C137.848 94.716 138.262 94.968 138.574 95.328C138.886 95.676 139.042 96.114 139.042 96.642ZM142.632 99H140.976V90.36H142.902V96.012L147.528 90.36H149.184V99H147.258V93.348L142.632 99ZM153.519 99H151.593V90.36H153.519V93.834H157.839V90.36H159.765V99H157.839V95.526H153.519V99Z" fill="#454545"/>
<path d="M100.356 124.4H101.652V137H100.14V127.262L95.622 134.03H94.686L90.168 127.262V137H88.656V124.4H89.952L95.154 132.176L100.356 124.4ZM111.524 135.2C111.524 135.644 111.746 135.866 112.19 135.866C112.382 135.866 112.604 135.824 112.856 135.74V136.91C112.496 137.042 112.136 137.108 111.776 137.108C110.948 137.108 110.42 136.76 110.192 136.064C109.268 136.832 108.146 137.216 106.826 137.216C105.986 137.216 105.266 136.994 104.666 136.55C104.078 136.094 103.784 135.44 103.784 134.588C103.784 133.568 104.162 132.83 104.918 132.374C105.686 131.906 106.61 131.672 107.69 131.672C108.482 131.672 109.28 131.762 110.084 131.942V131.636C110.084 130.976 109.868 130.454 109.436 130.07C109.004 129.674 108.398 129.476 107.618 129.476C106.526 129.476 105.476 129.692 104.468 130.124V128.72C105.596 128.336 106.694 128.144 107.762 128.144C108.938 128.144 109.856 128.462 110.516 129.098C111.188 129.722 111.524 130.628 111.524 131.816V135.2ZM105.26 134.516C105.26 134.996 105.44 135.362 105.8 135.614C106.172 135.854 106.616 135.974 107.132 135.974C108.32 135.974 109.304 135.554 110.084 134.714V133.13C109.268 132.962 108.536 132.878 107.888 132.878C107.156 132.878 106.532 133.01 106.016 133.274C105.512 133.526 105.26 133.94 105.26 134.516ZM115.84 137H114.4V128.36H120.718V129.692H115.84V137ZM129.278 135.2C129.278 135.644 129.5 135.866 129.944 135.866C130.136 135.866 130.358 135.824 130.61 135.74V136.91C130.25 137.042 129.89 137.108 129.53 137.108C128.702 137.108 128.174 136.76 127.946 136.064C127.022 136.832 125.9 137.216 124.58 137.216C123.74 137.216 123.02 136.994 122.42 136.55C121.832 136.094 121.538 135.44 121.538 134.588C121.538 133.568 121.916 132.83 122.672 132.374C123.44 131.906 124.364 131.672 125.444 131.672C126.236 131.672 127.034 131.762 127.838 131.942V131.636C127.838 130.976 127.622 130.454 127.19 130.07C126.758 129.674 126.152 129.476 125.372 129.476C124.28 129.476 123.23 129.692 122.222 130.124V128.72C123.35 128.336 124.448 128.144 125.516 128.144C126.692 128.144 127.61 128.462 128.27 129.098C128.942 129.722 129.278 130.628 129.278 131.816V135.2ZM123.014 134.516C123.014 134.996 123.194 135.362 123.554 135.614C123.926 135.854 124.37 135.974 124.886 135.974C126.074 135.974 127.058 135.554 127.838 134.714V133.13C127.022 132.962 126.29 132.878 125.642 132.878C124.91 132.878 124.286 133.01 123.77 133.274C123.266 133.526 123.014 133.94 123.014 134.516ZM138.616 134.678C138.616 135.482 138.268 136.106 137.572 136.55C136.888 136.994 135.94 137.216 134.728 137.216C133.516 137.216 132.454 136.994 131.542 136.55V135.182C132.418 135.65 133.42 135.884 134.548 135.884C136.3 135.884 137.176 135.428 137.176 134.516C137.176 133.688 136.54 133.274 135.268 133.274H133.378V131.942H135.268C136.42 131.942 136.996 131.57 136.996 130.826C136.996 130.37 136.78 130.028 136.348 129.8C135.916 129.572 135.34 129.458 134.62 129.458C133.576 129.458 132.598 129.686 131.686 130.142V128.792C132.658 128.348 133.69 128.126 134.782 128.126C135.958 128.126 136.858 128.354 137.482 128.81C138.118 129.254 138.436 129.86 138.436 130.628C138.436 131.144 138.292 131.57 138.004 131.906C137.716 132.242 137.326 132.464 136.834 132.572C137.35 132.704 137.776 132.956 138.112 133.328C138.448 133.7 138.616 134.15 138.616 134.678ZM141.956 137H140.732V128.36H142.172V134.678L147.464 128.36H148.688V137H147.248V130.682L141.956 137ZM152.79 137H151.35V128.36H152.79V132.014H157.794V128.36H159.234V137H157.794V133.346H152.79V137ZM168.971 124.76H170.087V135.56H172.373V137H166.001V135.56H168.575V126.362L166.001 127.334V125.894L168.971 124.76Z" fill="#454545"/>
<path d="M100.356 163.4H101.652V176H100.14V166.262L95.622 173.03H94.686L90.168 166.262V176H88.656V163.4H89.952L95.154 171.176L100.356 163.4ZM111.524 174.2C111.524 174.644 111.746 174.866 112.19 174.866C112.382 174.866 112.604 174.824 112.856 174.74V175.91C112.496 176.042 112.136 176.108 111.776 176.108C110.948 176.108 110.42 175.76 110.192 175.064C109.268 175.832 108.146 176.216 106.826 176.216C105.986 176.216 105.266 175.994 104.666 175.55C104.078 175.094 103.784 174.44 103.784 173.588C103.784 172.568 104.162 171.83 104.918 171.374C105.686 170.906 106.61 170.672 107.69 170.672C108.482 170.672 109.28 170.762 110.084 170.942V170.636C110.084 169.976 109.868 169.454 109.436 169.07C109.004 168.674 108.398 168.476 107.618 168.476C106.526 168.476 105.476 168.692 104.468 169.124V167.72C105.596 167.336 106.694 167.144 107.762 167.144C108.938 167.144 109.856 167.462 110.516 168.098C111.188 168.722 111.524 169.628 111.524 170.816V174.2ZM105.26 173.516C105.26 173.996 105.44 174.362 105.8 174.614C106.172 174.854 106.616 174.974 107.132 174.974C108.32 174.974 109.304 174.554 110.084 173.714V172.13C109.268 171.962 108.536 171.878 107.888 171.878C107.156 171.878 106.532 172.01 106.016 172.274C105.512 172.526 105.26 172.94 105.26 173.516ZM115.84 176H114.4V167.36H120.718V168.692H115.84V176ZM129.278 174.2C129.278 174.644 129.5 174.866 129.944 174.866C130.136 174.866 130.358 174.824 130.61 174.74V175.91C130.25 176.042 129.89 176.108 129.53 176.108C128.702 176.108 128.174 175.76 127.946 175.064C127.022 175.832 125.9 176.216 124.58 176.216C123.74 176.216 123.02 175.994 122.42 175.55C121.832 175.094 121.538 174.44 121.538 173.588C121.538 172.568 121.916 171.83 122.672 171.374C123.44 170.906 124.364 170.672 125.444 170.672C126.236 170.672 127.034 170.762 127.838 170.942V170.636C127.838 169.976 127.622 169.454 127.19 169.07C126.758 168.674 126.152 168.476 125.372 168.476C124.28 168.476 123.23 168.692 122.222 169.124V167.72C123.35 167.336 124.448 167.144 125.516 167.144C126.692 167.144 127.61 167.462 128.27 168.098C128.942 168.722 129.278 169.628 129.278 170.816V174.2ZM123.014 173.516C123.014 173.996 123.194 174.362 123.554 174.614C123.926 174.854 124.37 174.974 124.886 174.974C126.074 174.974 127.058 174.554 127.838 173.714V172.13C127.022 171.962 126.29 171.878 125.642 171.878C124.91 171.878 124.286 172.01 123.77 172.274C123.266 172.526 123.014 172.94 123.014 173.516ZM138.616 173.678C138.616 174.482 138.268 175.106 137.572 175.55C136.888 175.994 135.94 176.216 134.728 176.216C133.516 176.216 132.454 175.994 131.542 175.55V174.182C132.418 174.65 133.42 174.884 134.548 174.884C136.3 174.884 137.176 174.428 137.176 173.516C137.176 172.688 136.54 172.274 135.268 172.274H133.378V170.942H135.268C136.42 170.942 136.996 170.57 136.996 169.826C136.996 169.37 136.78 169.028 136.348 168.8C135.916 168.572 135.34 168.458 134.62 168.458C133.576 168.458 132.598 168.686 131.686 169.142V167.792C132.658 167.348 133.69 167.126 134.782 167.126C135.958 167.126 136.858 167.354 137.482 167.81C138.118 168.254 138.436 168.86 138.436 169.628C138.436 170.144 138.292 170.57 138.004 170.906C137.716 171.242 137.326 171.464 136.834 171.572C137.35 171.704 137.776 171.956 138.112 172.328C138.448 172.7 138.616 173.15 138.616 173.678ZM141.956 176H140.732V167.36H142.172V173.678L147.464 167.36H148.688V176H147.248V169.682L141.956 176ZM152.79 176H151.35V167.36H152.79V171.014H157.794V167.36H159.234V176H157.794V172.346H152.79V176ZM166.271 164.732C167.411 163.94 168.719 163.544 170.195 163.544C171.467 163.544 172.481 163.832 173.237 164.408C173.993 164.984 174.371 165.788 174.371 166.82C174.371 167.312 174.275 167.774 174.083 168.206C173.903 168.638 173.627 169.034 173.255 169.394C172.895 169.754 172.541 170.06 172.193 170.312C171.857 170.552 171.431 170.822 170.915 171.122C170.855 171.158 170.669 171.266 170.357 171.446C170.057 171.626 169.865 171.74 169.781 171.788C169.709 171.836 169.541 171.944 169.277 172.112C169.025 172.268 168.857 172.382 168.773 172.454C168.701 172.526 168.569 172.64 168.377 172.796C168.197 172.952 168.071 173.084 167.999 173.192C167.939 173.3 167.855 173.438 167.747 173.606C167.651 173.762 167.585 173.918 167.549 174.074C167.513 174.23 167.495 174.398 167.495 174.578L174.461 174.56V176H165.839V175.28C165.839 174.608 165.947 174.002 166.163 173.462C166.379 172.91 166.685 172.442 167.081 172.058C167.489 171.662 167.891 171.332 168.287 171.068C168.683 170.792 169.145 170.498 169.673 170.186C169.793 170.126 169.883 170.078 169.943 170.042C171.035 169.406 171.749 168.92 172.085 168.584C172.601 168.056 172.859 167.462 172.859 166.802C172.859 166.202 172.613 165.746 172.121 165.434C171.641 165.11 170.957 164.948 170.069 164.948C168.773 164.948 167.507 165.38 166.271 166.244V164.732Z" fill="#454545"/>
<path d="M100.356 202.4H101.652V215H100.14V205.262L95.622 212.03H94.686L90.168 205.262V215H88.656V202.4H89.952L95.154 210.176L100.356 202.4ZM111.524 213.2C111.524 213.644 111.746 213.866 112.19 213.866C112.382 213.866 112.604 213.824 112.856 213.74V214.91C112.496 215.042 112.136 215.108 111.776 215.108C110.948 215.108 110.42 214.76 110.192 214.064C109.268 214.832 108.146 215.216 106.826 215.216C105.986 215.216 105.266 214.994 104.666 214.55C104.078 214.094 103.784 213.44 103.784 212.588C103.784 211.568 104.162 210.83 104.918 210.374C105.686 209.906 106.61 209.672 107.69 209.672C108.482 209.672 109.28 209.762 110.084 209.942V209.636C110.084 208.976 109.868 208.454 109.436 208.07C109.004 207.674 108.398 207.476 107.618 207.476C106.526 207.476 105.476 207.692 104.468 208.124V206.72C105.596 206.336 106.694 206.144 107.762 206.144C108.938 206.144 109.856 206.462 110.516 207.098C111.188 207.722 111.524 208.628 111.524 209.816V213.2ZM105.26 212.516C105.26 212.996 105.44 213.362 105.8 213.614C106.172 213.854 106.616 213.974 107.132 213.974C108.32 213.974 109.304 213.554 110.084 212.714V211.13C109.268 210.962 108.536 210.878 107.888 210.878C107.156 210.878 106.532 211.01 106.016 211.274C105.512 211.526 105.26 211.94 105.26 212.516ZM115.84 215H114.4V206.36H120.718V207.692H115.84V215ZM129.278 213.2C129.278 213.644 129.5 213.866 129.944 213.866C130.136 213.866 130.358 213.824 130.61 213.74V214.91C130.25 215.042 129.89 215.108 129.53 215.108C128.702 215.108 128.174 214.76 127.946 214.064C127.022 214.832 125.9 215.216 124.58 215.216C123.74 215.216 123.02 214.994 122.42 214.55C121.832 214.094 121.538 213.44 121.538 212.588C121.538 211.568 121.916 210.83 122.672 210.374C123.44 209.906 124.364 209.672 125.444 209.672C126.236 209.672 127.034 209.762 127.838 209.942V209.636C127.838 208.976 127.622 208.454 127.19 208.07C126.758 207.674 126.152 207.476 125.372 207.476C124.28 207.476 123.23 207.692 122.222 208.124V206.72C123.35 206.336 124.448 206.144 125.516 206.144C126.692 206.144 127.61 206.462 128.27 207.098C128.942 207.722 129.278 208.628 129.278 209.816V213.2ZM123.014 212.516C123.014 212.996 123.194 213.362 123.554 213.614C123.926 213.854 124.37 213.974 124.886 213.974C126.074 213.974 127.058 213.554 127.838 212.714V211.13C127.022 210.962 126.29 210.878 125.642 210.878C124.91 210.878 124.286 211.01 123.77 211.274C123.266 211.526 123.014 211.94 123.014 212.516ZM138.616 212.678C138.616 213.482 138.268 214.106 137.572 214.55C136.888 214.994 135.94 215.216 134.728 215.216C133.516 215.216 132.454 214.994 131.542 214.55V213.182C132.418 213.65 133.42 213.884 134.548 213.884C136.3 213.884 137.176 213.428 137.176 212.516C137.176 211.688 136.54 211.274 135.268 211.274H133.378V209.942H135.268C136.42 209.942 136.996 209.57 136.996 208.826C136.996 208.37 136.78 208.028 136.348 207.8C135.916 207.572 135.34 207.458 134.62 207.458C133.576 207.458 132.598 207.686 131.686 208.142V206.792C132.658 206.348 133.69 206.126 134.782 206.126C135.958 206.126 136.858 206.354 137.482 206.81C138.118 207.254 138.436 207.86 138.436 208.628C138.436 209.144 138.292 209.57 138.004 209.906C137.716 210.242 137.326 210.464 136.834 210.572C137.35 210.704 137.776 210.956 138.112 211.328C138.448 211.7 138.616 212.15 138.616 212.678ZM141.956 215H140.732V206.36H142.172V212.678L147.464 206.36H148.688V215H147.248V208.682L141.956 215ZM152.79 215H151.35V206.36H152.79V210.014H157.794V206.36H159.234V215H157.794V211.346H152.79V215ZM174.227 205.874C174.227 206.498 174.059 207.062 173.723 207.566C173.399 208.058 172.973 208.394 172.445 208.574C173.069 208.766 173.603 209.12 174.047 209.636C174.503 210.14 174.731 210.818 174.731 211.67C174.731 212.81 174.305 213.686 173.453 214.298C172.613 214.91 171.545 215.216 170.249 215.216C168.605 215.216 167.183 214.946 165.983 214.406V212.912C167.147 213.512 168.527 213.806 170.123 213.794C172.223 213.794 173.273 213.062 173.273 211.598C173.273 210.134 172.277 209.402 170.285 209.402H168.413V207.962L170.123 207.98C170.987 207.98 171.641 207.8 172.085 207.44C172.541 207.068 172.769 206.588 172.769 206C172.769 205.364 172.517 204.866 172.013 204.506C171.509 204.134 170.795 203.948 169.871 203.948C168.599 203.948 167.375 204.26 166.199 204.884V203.408C167.327 202.832 168.617 202.544 170.069 202.544C171.317 202.544 172.319 202.85 173.075 203.462C173.843 204.074 174.227 204.878 174.227 205.874Z" fill="#454545"/>
<path d="M100.356 241.4H101.652V254H100.14V244.262L95.622 251.03H94.686L90.168 244.262V254H88.656V241.4H89.952L95.154 249.176L100.356 241.4ZM111.524 252.2C111.524 252.644 111.746 252.866 112.19 252.866C112.382 252.866 112.604 252.824 112.856 252.74V253.91C112.496 254.042 112.136 254.108 111.776 254.108C110.948 254.108 110.42 253.76 110.192 253.064C109.268 253.832 108.146 254.216 106.826 254.216C105.986 254.216 105.266 253.994 104.666 253.55C104.078 253.094 103.784 252.44 103.784 251.588C103.784 250.568 104.162 249.83 104.918 249.374C105.686 248.906 106.61 248.672 107.69 248.672C108.482 248.672 109.28 248.762 110.084 248.942V248.636C110.084 247.976 109.868 247.454 109.436 247.07C109.004 246.674 108.398 246.476 107.618 246.476C106.526 246.476 105.476 246.692 104.468 247.124V245.72C105.596 245.336 106.694 245.144 107.762 245.144C108.938 245.144 109.856 245.462 110.516 246.098C111.188 246.722 111.524 247.628 111.524 248.816V252.2ZM105.26 251.516C105.26 251.996 105.44 252.362 105.8 252.614C106.172 252.854 106.616 252.974 107.132 252.974C108.32 252.974 109.304 252.554 110.084 251.714V250.13C109.268 249.962 108.536 249.878 107.888 249.878C107.156 249.878 106.532 250.01 106.016 250.274C105.512 250.526 105.26 250.94 105.26 251.516ZM115.84 254H114.4V245.36H120.718V246.692H115.84V254ZM129.278 252.2C129.278 252.644 129.5 252.866 129.944 252.866C130.136 252.866 130.358 252.824 130.61 252.74V253.91C130.25 254.042 129.89 254.108 129.53 254.108C128.702 254.108 128.174 253.76 127.946 253.064C127.022 253.832 125.9 254.216 124.58 254.216C123.74 254.216 123.02 253.994 122.42 253.55C121.832 253.094 121.538 252.44 121.538 251.588C121.538 250.568 121.916 249.83 122.672 249.374C123.44 248.906 124.364 248.672 125.444 248.672C126.236 248.672 127.034 248.762 127.838 248.942V248.636C127.838 247.976 127.622 247.454 127.19 247.07C126.758 246.674 126.152 246.476 125.372 246.476C124.28 246.476 123.23 246.692 122.222 247.124V245.72C123.35 245.336 124.448 245.144 125.516 245.144C126.692 245.144 127.61 245.462 128.27 246.098C128.942 246.722 129.278 247.628 129.278 248.816V252.2ZM123.014 251.516C123.014 251.996 123.194 252.362 123.554 252.614C123.926 252.854 124.37 252.974 124.886 252.974C126.074 252.974 127.058 252.554 127.838 251.714V250.13C127.022 249.962 126.29 249.878 125.642 249.878C124.91 249.878 124.286 250.01 123.77 250.274C123.266 250.526 123.014 250.94 123.014 251.516ZM138.616 251.678C138.616 252.482 138.268 253.106 137.572 253.55C136.888 253.994 135.94 254.216 134.728 254.216C133.516 254.216 132.454 253.994 131.542 253.55V252.182C132.418 252.65 133.42 252.884 134.548 252.884C136.3 252.884 137.176 252.428 137.176 251.516C137.176 250.688 136.54 250.274 135.268 250.274H133.378V248.942H135.268C136.42 248.942 136.996 248.57 136.996 247.826C136.996 247.37 136.78 247.028 136.348 246.8C135.916 246.572 135.34 246.458 134.62 246.458C133.576 246.458 132.598 246.686 131.686 247.142V245.792C132.658 245.348 133.69 245.126 134.782 245.126C135.958 245.126 136.858 245.354 137.482 245.81C138.118 246.254 138.436 246.86 138.436 247.628C138.436 248.144 138.292 248.57 138.004 248.906C137.716 249.242 137.326 249.464 136.834 249.572C137.35 249.704 137.776 249.956 138.112 250.328C138.448 250.7 138.616 251.15 138.616 251.678ZM141.956 254H140.732V245.36H142.172V251.678L147.464 245.36H148.688V254H147.248V247.682L141.956 254ZM152.79 254H151.35V245.36H152.79V249.014H157.794V245.36H159.234V254H157.794V250.346H152.79V254ZM172.175 241.76H173.813V249.878H176.117V251.282H173.813V254H172.319V251.282H165.497V249.932L172.175 241.76ZM172.319 249.878V243.794L167.351 249.878H172.319Z" fill="#454545"/>
<path d="M100.356 280.4H101.652V293H100.14V283.262L95.622 290.03H94.686L90.168 283.262V293H88.656V280.4H89.952L95.154 288.176L100.356 280.4ZM111.524 291.2C111.524 291.644 111.746 291.866 112.19 291.866C112.382 291.866 112.604 291.824 112.856 291.74V292.91C112.496 293.042 112.136 293.108 111.776 293.108C110.948 293.108 110.42 292.76 110.192 292.064C109.268 292.832 108.146 293.216 106.826 293.216C105.986 293.216 105.266 292.994 104.666 292.55C104.078 292.094 103.784 291.44 103.784 290.588C103.784 289.568 104.162 288.83 104.918 288.374C105.686 287.906 106.61 287.672 107.69 287.672C108.482 287.672 109.28 287.762 110.084 287.942V287.636C110.084 286.976 109.868 286.454 109.436 286.07C109.004 285.674 108.398 285.476 107.618 285.476C106.526 285.476 105.476 285.692 104.468 286.124V284.72C105.596 284.336 106.694 284.144 107.762 284.144C108.938 284.144 109.856 284.462 110.516 285.098C111.188 285.722 111.524 286.628 111.524 287.816V291.2ZM105.26 290.516C105.26 290.996 105.44 291.362 105.8 291.614C106.172 291.854 106.616 291.974 107.132 291.974C108.32 291.974 109.304 291.554 110.084 290.714V289.13C109.268 288.962 108.536 288.878 107.888 288.878C107.156 288.878 106.532 289.01 106.016 289.274C105.512 289.526 105.26 289.94 105.26 290.516ZM115.84 293H114.4V284.36H120.718V285.692H115.84V293ZM129.278 291.2C129.278 291.644 129.5 291.866 129.944 291.866C130.136 291.866 130.358 291.824 130.61 291.74V292.91C130.25 293.042 129.89 293.108 129.53 293.108C128.702 293.108 128.174 292.76 127.946 292.064C127.022 292.832 125.9 293.216 124.58 293.216C123.74 293.216 123.02 292.994 122.42 292.55C121.832 292.094 121.538 291.44 121.538 290.588C121.538 289.568 121.916 288.83 122.672 288.374C123.44 287.906 124.364 287.672 125.444 287.672C126.236 287.672 127.034 287.762 127.838 287.942V287.636C127.838 286.976 127.622 286.454 127.19 286.07C126.758 285.674 126.152 285.476 125.372 285.476C124.28 285.476 123.23 285.692 122.222 286.124V284.72C123.35 284.336 124.448 284.144 125.516 284.144C126.692 284.144 127.61 284.462 128.27 285.098C128.942 285.722 129.278 286.628 129.278 287.816V291.2ZM123.014 290.516C123.014 290.996 123.194 291.362 123.554 291.614C123.926 291.854 124.37 291.974 124.886 291.974C126.074 291.974 127.058 291.554 127.838 290.714V289.13C127.022 288.962 126.29 288.878 125.642 288.878C124.91 288.878 124.286 289.01 123.77 289.274C123.266 289.526 123.014 289.94 123.014 290.516ZM138.616 290.678C138.616 291.482 138.268 292.106 137.572 292.55C136.888 292.994 135.94 293.216 134.728 293.216C133.516 293.216 132.454 292.994 131.542 292.55V291.182C132.418 291.65 133.42 291.884 134.548 291.884C136.3 291.884 137.176 291.428 137.176 290.516C137.176 289.688 136.54 289.274 135.268 289.274H133.378V287.942H135.268C136.42 287.942 136.996 287.57 136.996 286.826C136.996 286.37 136.78 286.028 136.348 285.8C135.916 285.572 135.34 285.458 134.62 285.458C133.576 285.458 132.598 285.686 131.686 286.142V284.792C132.658 284.348 133.69 284.126 134.782 284.126C135.958 284.126 136.858 284.354 137.482 284.81C138.118 285.254 138.436 285.86 138.436 286.628C138.436 287.144 138.292 287.57 138.004 287.906C137.716 288.242 137.326 288.464 136.834 288.572C137.35 288.704 137.776 288.956 138.112 289.328C138.448 289.7 138.616 290.15 138.616 290.678ZM141.956 293H140.732V284.36H142.172V290.678L147.464 284.36H148.688V293H147.248V286.682L141.956 293ZM152.79 293H151.35V284.36H152.79V288.014H157.794V284.36H159.234V293H157.794V289.346H152.79V293ZM166.739 280.76H174.083V282.2H168.161L167.945 285.656C168.593 285.476 169.289 285.386 170.033 285.386C170.645 285.386 171.215 285.458 171.743 285.602C172.271 285.734 172.757 285.95 173.201 286.25C173.657 286.538 174.017 286.946 174.281 287.474C174.545 287.99 174.677 288.602 174.677 289.31C174.677 290.522 174.227 291.476 173.327 292.172C172.439 292.868 171.305 293.216 169.925 293.216C168.437 293.216 167.129 292.94 166.001 292.388V290.948C167.081 291.524 168.329 291.812 169.745 291.812C170.777 291.812 171.599 291.596 172.211 291.164C172.835 290.732 173.147 290.114 173.147 289.31C173.147 287.606 171.935 286.754 169.511 286.754C168.455 286.754 167.399 286.946 166.343 287.33L166.739 280.76Z" fill="#454545"/>
<path d="M100.356 319.4H101.652V332H100.14V322.262L95.622 329.03H94.686L90.168 322.262V332H88.656V319.4H89.952L95.154 327.176L100.356 319.4ZM111.524 330.2C111.524 330.644 111.746 330.866 112.19 330.866C112.382 330.866 112.604 330.824 112.856 330.74V331.91C112.496 332.042 112.136 332.108 111.776 332.108C110.948 332.108 110.42 331.76 110.192 331.064C109.268 331.832 108.146 332.216 106.826 332.216C105.986 332.216 105.266 331.994 104.666 331.55C104.078 331.094 103.784 330.44 103.784 329.588C103.784 328.568 104.162 327.83 104.918 327.374C105.686 326.906 106.61 326.672 107.69 326.672C108.482 326.672 109.28 326.762 110.084 326.942V326.636C110.084 325.976 109.868 325.454 109.436 325.07C109.004 324.674 108.398 324.476 107.618 324.476C106.526 324.476 105.476 324.692 104.468 325.124V323.72C105.596 323.336 106.694 323.144 107.762 323.144C108.938 323.144 109.856 323.462 110.516 324.098C111.188 324.722 111.524 325.628 111.524 326.816V330.2ZM105.26 329.516C105.26 329.996 105.44 330.362 105.8 330.614C106.172 330.854 106.616 330.974 107.132 330.974C108.32 330.974 109.304 330.554 110.084 329.714V328.13C109.268 327.962 108.536 327.878 107.888 327.878C107.156 327.878 106.532 328.01 106.016 328.274C105.512 328.526 105.26 328.94 105.26 329.516ZM115.84 332H114.4V323.36H120.718V324.692H115.84V332ZM129.278 330.2C129.278 330.644 129.5 330.866 129.944 330.866C130.136 330.866 130.358 330.824 130.61 330.74V331.91C130.25 332.042 129.89 332.108 129.53 332.108C128.702 332.108 128.174 331.76 127.946 331.064C127.022 331.832 125.9 332.216 124.58 332.216C123.74 332.216 123.02 331.994 122.42 331.55C121.832 331.094 121.538 330.44 121.538 329.588C121.538 328.568 121.916 327.83 122.672 327.374C123.44 326.906 124.364 326.672 125.444 326.672C126.236 326.672 127.034 326.762 127.838 326.942V326.636C127.838 325.976 127.622 325.454 127.19 325.07C126.758 324.674 126.152 324.476 125.372 324.476C124.28 324.476 123.23 324.692 122.222 325.124V323.72C123.35 323.336 124.448 323.144 125.516 323.144C126.692 323.144 127.61 323.462 128.27 324.098C128.942 324.722 129.278 325.628 129.278 326.816V330.2ZM123.014 329.516C123.014 329.996 123.194 330.362 123.554 330.614C123.926 330.854 124.37 330.974 124.886 330.974C126.074 330.974 127.058 330.554 127.838 329.714V328.13C127.022 327.962 126.29 327.878 125.642 327.878C124.91 327.878 124.286 328.01 123.77 328.274C123.266 328.526 123.014 328.94 123.014 329.516ZM138.616 329.678C138.616 330.482 138.268 331.106 137.572 331.55C136.888 331.994 135.94 332.216 134.728 332.216C133.516 332.216 132.454 331.994 131.542 331.55V330.182C132.418 330.65 133.42 330.884 134.548 330.884C136.3 330.884 137.176 330.428 137.176 329.516C137.176 328.688 136.54 328.274 135.268 328.274H133.378V326.942H135.268C136.42 326.942 136.996 326.57 136.996 325.826C136.996 325.37 136.78 325.028 136.348 324.8C135.916 324.572 135.34 324.458 134.62 324.458C133.576 324.458 132.598 324.686 131.686 325.142V323.792C132.658 323.348 133.69 323.126 134.782 323.126C135.958 323.126 136.858 323.354 137.482 323.81C138.118 324.254 138.436 324.86 138.436 325.628C138.436 326.144 138.292 326.57 138.004 326.906C137.716 327.242 137.326 327.464 136.834 327.572C137.35 327.704 137.776 327.956 138.112 328.328C138.448 328.7 138.616 329.15 138.616 329.678ZM141.956 332H140.732V323.36H142.172V329.678L147.464 323.36H148.688V332H147.248V325.682L141.956 332ZM152.79 332H151.35V323.36H152.79V327.014H157.794V323.36H159.234V332H157.794V328.346H152.79V332ZM167.513 325.538C168.677 324.758 169.955 324.368 171.347 324.368C172.463 324.368 173.441 324.71 174.281 325.394C175.121 326.066 175.541 327.002 175.541 328.202C175.541 329.462 175.121 330.446 174.281 331.154C173.453 331.862 172.409 332.216 171.149 332.216C169.421 332.216 168.125 331.682 167.261 330.614C166.409 329.534 165.983 328.022 165.983 326.078C165.983 323.918 166.493 322.292 167.513 321.2C168.545 320.096 169.889 319.544 171.545 319.544C172.613 319.544 173.603 319.778 174.515 320.246V321.686C173.627 321.218 172.649 320.984 171.581 320.984C170.453 320.984 169.511 321.35 168.755 322.082C168.011 322.802 167.597 323.954 167.513 325.538ZM167.531 327.05C167.759 329.558 168.929 330.812 171.041 330.812C171.929 330.812 172.643 330.608 173.183 330.2C173.735 329.792 174.011 329.15 174.011 328.274C174.011 327.386 173.729 326.75 173.165 326.366C172.601 325.97 171.869 325.772 170.969 325.772C169.637 325.772 168.491 326.198 167.531 327.05Z" fill="#454545"/>
<path d="M100.356 358.4H101.652V371H100.14V361.262L95.622 368.03H94.686L90.168 361.262V371H88.656V358.4H89.952L95.154 366.176L100.356 358.4ZM111.524 369.2C111.524 369.644 111.746 369.866 112.19 369.866C112.382 369.866 112.604 369.824 112.856 369.74V370.91C112.496 371.042 112.136 371.108 111.776 371.108C110.948 371.108 110.42 370.76 110.192 370.064C109.268 370.832 108.146 371.216 106.826 371.216C105.986 371.216 105.266 370.994 104.666 370.55C104.078 370.094 103.784 369.44 103.784 368.588C103.784 367.568 104.162 366.83 104.918 366.374C105.686 365.906 106.61 365.672 107.69 365.672C108.482 365.672 109.28 365.762 110.084 365.942V365.636C110.084 364.976 109.868 364.454 109.436 364.07C109.004 363.674 108.398 363.476 107.618 363.476C106.526 363.476 105.476 363.692 104.468 364.124V362.72C105.596 362.336 106.694 362.144 107.762 362.144C108.938 362.144 109.856 362.462 110.516 363.098C111.188 363.722 111.524 364.628 111.524 365.816V369.2ZM105.26 368.516C105.26 368.996 105.44 369.362 105.8 369.614C106.172 369.854 106.616 369.974 107.132 369.974C108.32 369.974 109.304 369.554 110.084 368.714V367.13C109.268 366.962 108.536 366.878 107.888 366.878C107.156 366.878 106.532 367.01 106.016 367.274C105.512 367.526 105.26 367.94 105.26 368.516ZM115.84 371H114.4V362.36H120.718V363.692H115.84V371ZM129.278 369.2C129.278 369.644 129.5 369.866 129.944 369.866C130.136 369.866 130.358 369.824 130.61 369.74V370.91C130.25 371.042 129.89 371.108 129.53 371.108C128.702 371.108 128.174 370.76 127.946 370.064C127.022 370.832 125.9 371.216 124.58 371.216C123.74 371.216 123.02 370.994 122.42 370.55C121.832 370.094 121.538 369.44 121.538 368.588C121.538 367.568 121.916 366.83 122.672 366.374C123.44 365.906 124.364 365.672 125.444 365.672C126.236 365.672 127.034 365.762 127.838 365.942V365.636C127.838 364.976 127.622 364.454 127.19 364.07C126.758 363.674 126.152 363.476 125.372 363.476C124.28 363.476 123.23 363.692 122.222 364.124V362.72C123.35 362.336 124.448 362.144 125.516 362.144C126.692 362.144 127.61 362.462 128.27 363.098C128.942 363.722 129.278 364.628 129.278 365.816V369.2ZM123.014 368.516C123.014 368.996 123.194 369.362 123.554 369.614C123.926 369.854 124.37 369.974 124.886 369.974C126.074 369.974 127.058 369.554 127.838 368.714V367.13C127.022 366.962 126.29 366.878 125.642 366.878C124.91 366.878 124.286 367.01 123.77 367.274C123.266 367.526 123.014 367.94 123.014 368.516ZM138.616 368.678C138.616 369.482 138.268 370.106 137.572 370.55C136.888 370.994 135.94 371.216 134.728 371.216C133.516 371.216 132.454 370.994 131.542 370.55V369.182C132.418 369.65 133.42 369.884 134.548 369.884C136.3 369.884 137.176 369.428 137.176 368.516C137.176 367.688 136.54 367.274 135.268 367.274H133.378V365.942H135.268C136.42 365.942 136.996 365.57 136.996 364.826C136.996 364.37 136.78 364.028 136.348 363.8C135.916 363.572 135.34 363.458 134.62 363.458C133.576 363.458 132.598 363.686 131.686 364.142V362.792C132.658 362.348 133.69 362.126 134.782 362.126C135.958 362.126 136.858 362.354 137.482 362.81C138.118 363.254 138.436 363.86 138.436 364.628C138.436 365.144 138.292 365.57 138.004 365.906C137.716 366.242 137.326 366.464 136.834 366.572C137.35 366.704 137.776 366.956 138.112 367.328C138.448 367.7 138.616 368.15 138.616 368.678ZM141.956 371H140.732V362.36H142.172V368.678L147.464 362.36H148.688V371H147.248V364.682L141.956 371ZM152.79 371H151.35V362.36H152.79V366.014H157.794V362.36H159.234V371H157.794V367.346H152.79V371ZM165.533 358.76H174.353V360.128L169.241 371H167.621L172.697 360.2H165.533V358.76Z" fill="#454545"/>
<path d="M235.971 99V93.546H238.491L242.289 99H244.611L240.111 92.538L244.287 86.4H241.965L238.455 91.656H235.971V86.4H233.919V99H235.971ZM253.05 97.002V93.906C253.05 91.296 251.502 90.126 249.054 90.126C247.668 90.126 246.426 90.468 245.742 90.702V92.466C246.516 92.124 247.578 91.8 248.856 91.8C250.332 91.8 251.124 92.556 251.124 93.636V93.942C250.44 93.798 249.612 93.69 248.874 93.69C247.074 93.69 245.022 94.374 245.022 96.588C245.022 98.37 246.48 99.234 248.046 99.234C249.396 99.234 250.458 98.802 251.304 98.118C251.61 98.82 252.24 99.126 253.032 99.126C253.464 99.126 253.896 99.054 254.256 98.91V97.524C254.076 97.578 253.878 97.632 253.68 97.632C253.338 97.632 253.05 97.488 253.05 97.002ZM249.252 95.04C249.864 95.04 250.602 95.148 251.124 95.256V96.714C250.44 97.398 249.54 97.74 248.622 97.74C247.758 97.74 247.002 97.308 247.002 96.462C247.002 95.382 248.154 95.04 249.252 95.04ZM259.37 99V92.052H262.34V90.36H254.456V92.052H257.444V99H259.37ZM263.078 94.68C263.078 97.722 265.328 99.234 267.974 99.234C269.18 99.234 270.278 99.018 271.07 98.64V96.984C270.332 97.344 269.378 97.596 268.334 97.596C266.75 97.596 265.238 96.948 265.022 95.4H271.52C272.078 92.898 270.89 90.126 267.452 90.126C265.454 90.126 263.078 91.548 263.078 94.68ZM269.792 93.96H265.004C265.076 92.502 266.246 91.728 267.542 91.728C269.432 91.728 269.9 93.204 269.792 93.96ZM275.37 99V92.052H279.888V90.36H273.444V99H275.37ZM280.621 94.68C280.621 97.668 282.889 99.234 285.301 99.234C287.731 99.234 289.981 97.668 289.981 94.68C289.981 91.692 287.731 90.126 285.301 90.126C282.889 90.126 280.621 91.692 280.621 94.68ZM288.019 94.68C288.019 96.372 286.903 97.47 285.301 97.47C283.681 97.47 282.565 96.372 282.565 94.68C282.565 92.988 283.681 91.89 285.301 91.89C286.903 91.89 288.019 92.988 288.019 94.68ZM293.559 91.71V90.36H291.849V102.96H293.775V97.884C294.369 98.568 295.377 99.234 296.889 99.234C299.481 99.234 301.173 97.164 301.173 94.68C301.173 92.196 299.481 90.126 296.889 90.126C295.269 90.126 294.243 90.882 293.559 91.71ZM299.211 94.68C299.211 96.372 298.095 97.542 296.529 97.542C295.197 97.542 294.189 96.678 293.775 95.724V93.618C294.189 92.682 295.197 91.818 296.529 91.818C298.095 91.818 299.211 92.988 299.211 94.68ZM304.954 89.352V99H303.37V89.352H304.954ZM304.18 85.734C304.42 85.734 304.63 85.818 304.81 85.986C305.002 86.142 305.098 86.394 305.098 86.742C305.098 87.078 305.002 87.33 304.81 87.498C304.63 87.666 304.42 87.75 304.18 87.75C303.916 87.75 303.694 87.666 303.514 87.498C303.334 87.33 303.244 87.078 303.244 86.742C303.244 86.394 303.334 86.142 303.514 85.986C303.694 85.818 303.916 85.734 304.18 85.734ZM309.126 99L311.268 96.174H313.23V99H315.156V90.36H310.692C308.532 90.36 307.362 91.71 307.362 93.276C307.362 94.464 308.028 95.526 309.288 95.958L306.912 99H309.126ZM309.324 93.294C309.324 92.448 309.954 91.962 311.016 91.962H313.23V94.626H311.016C309.954 94.626 309.324 94.14 309.324 93.294ZM324.519 86.76L321.549 87.894V89.784L323.997 88.866V97.146H321.549V99H328.209V97.146H326.031V86.76H324.519Z" fill="#454545"/>
<path d="M376.705 99V93.546H379.225L383.023 99H385.345L380.845 92.538L385.021 86.4H382.699L379.189 91.656H376.705V86.4H374.653V99H376.705ZM393.785 97.002V93.906C393.785 91.296 392.237 90.126 389.789 90.126C388.403 90.126 387.161 90.468 386.477 90.702V92.466C387.251 92.124 388.313 91.8 389.591 91.8C391.067 91.8 391.859 92.556 391.859 93.636V93.942C391.175 93.798 390.347 93.69 389.609 93.69C387.809 93.69 385.757 94.374 385.757 96.588C385.757 98.37 387.215 99.234 388.781 99.234C390.131 99.234 391.193 98.802 392.039 98.118C392.345 98.82 392.975 99.126 393.767 99.126C394.199 99.126 394.631 99.054 394.991 98.91V97.524C394.811 97.578 394.613 97.632 394.415 97.632C394.073 97.632 393.785 97.488 393.785 97.002ZM389.987 95.04C390.599 95.04 391.337 95.148 391.859 95.256V96.714C391.175 97.398 390.275 97.74 389.357 97.74C388.493 97.74 387.737 97.308 387.737 96.462C387.737 95.382 388.889 95.04 389.987 95.04ZM400.105 99V92.052H403.075V90.36H395.191V92.052H398.179V99H400.105ZM403.812 94.68C403.812 97.722 406.062 99.234 408.708 99.234C409.914 99.234 411.012 99.018 411.804 98.64V96.984C411.066 97.344 410.112 97.596 409.068 97.596C407.484 97.596 405.972 96.948 405.756 95.4H412.254C412.812 92.898 411.624 90.126 408.186 90.126C406.188 90.126 403.812 91.548 403.812 94.68ZM410.526 93.96H405.738C405.81 92.502 406.98 91.728 408.276 91.728C410.166 91.728 410.634 93.204 410.526 93.96ZM416.105 99V92.052H420.623V90.36H414.179V99H416.105ZM421.355 94.68C421.355 97.668 423.623 99.234 426.035 99.234C428.465 99.234 430.715 97.668 430.715 94.68C430.715 91.692 428.465 90.126 426.035 90.126C423.623 90.126 421.355 91.692 421.355 94.68ZM428.753 94.68C428.753 96.372 427.637 97.47 426.035 97.47C424.415 97.47 423.299 96.372 423.299 94.68C423.299 92.988 424.415 91.89 426.035 91.89C427.637 91.89 428.753 92.988 428.753 94.68ZM434.293 91.71V90.36H432.583V102.96H434.509V97.884C435.103 98.568 436.111 99.234 437.623 99.234C440.215 99.234 441.907 97.164 441.907 94.68C441.907 92.196 440.215 90.126 437.623 90.126C436.003 90.126 434.977 90.882 434.293 91.71ZM439.945 94.68C439.945 96.372 438.829 97.542 437.263 97.542C435.931 97.542 434.923 96.678 434.509 95.724V93.618C434.923 92.682 435.931 91.818 437.263 91.818C438.829 91.818 439.945 92.988 439.945 94.68ZM445.688 89.352V99H444.104V89.352H445.688ZM444.914 85.734C445.154 85.734 445.364 85.818 445.544 85.986C445.736 86.142 445.832 86.394 445.832 86.742C445.832 87.078 445.736 87.33 445.544 87.498C445.364 87.666 445.154 87.75 444.914 87.75C444.65 87.75 444.428 87.666 444.248 87.498C444.068 87.33 443.978 87.078 443.978 86.742C443.978 86.394 444.068 86.142 444.248 85.986C444.428 85.818 444.65 85.734 444.914 85.734ZM449.861 99L452.003 96.174H453.965V99H455.891V90.36H451.427C449.267 90.36 448.097 91.71 448.097 93.276C448.097 94.464 448.763 95.526 450.023 95.958L447.647 99H449.861ZM450.059 93.294C450.059 92.448 450.689 91.962 451.751 91.962H453.965V94.626H451.751C450.689 94.626 450.059 94.14 450.059 93.294ZM462.536 87.768V89.748C463.832 88.812 465.182 88.38 466.424 88.38C467.936 88.38 468.854 88.938 468.854 90C468.854 91.386 467.612 92.016 466.19 92.844C464.336 93.942 462.122 95.076 462.122 98.064V99H470.996V97.146L464.426 97.164C464.444 95.94 465.938 95.184 467.522 94.248C469.178 93.258 470.906 92.034 470.906 89.964C470.906 87.678 469.088 86.526 466.604 86.526C465.182 86.526 463.796 86.904 462.536 87.768Z" fill="#454545"/>
<path d="M518.644 99V93.546H521.164L524.962 99H527.284L522.784 92.538L526.96 86.4H524.638L521.128 91.656H518.644V86.4H516.592V99H518.644ZM535.723 97.002V93.906C535.723 91.296 534.175 90.126 531.727 90.126C530.341 90.126 529.099 90.468 528.415 90.702V92.466C529.189 92.124 530.251 91.8 531.529 91.8C533.005 91.8 533.797 92.556 533.797 93.636V93.942C533.113 93.798 532.285 93.69 531.547 93.69C529.747 93.69 527.695 94.374 527.695 96.588C527.695 98.37 529.153 99.234 530.719 99.234C532.069 99.234 533.131 98.802 533.977 98.118C534.283 98.82 534.913 99.126 535.705 99.126C536.137 99.126 536.569 99.054 536.929 98.91V97.524C536.749 97.578 536.551 97.632 536.353 97.632C536.011 97.632 535.723 97.488 535.723 97.002ZM531.925 95.04C532.537 95.04 533.275 95.148 533.797 95.256V96.714C533.113 97.398 532.213 97.74 531.295 97.74C530.431 97.74 529.675 97.308 529.675 96.462C529.675 95.382 530.827 95.04 531.925 95.04ZM542.043 99V92.052H545.013V90.36H537.129V92.052H540.117V99H542.043ZM545.751 94.68C545.751 97.722 548.001 99.234 550.647 99.234C551.853 99.234 552.951 99.018 553.743 98.64V96.984C553.005 97.344 552.051 97.596 551.007 97.596C549.423 97.596 547.911 96.948 547.695 95.4H554.193C554.751 92.898 553.563 90.126 550.125 90.126C548.127 90.126 545.751 91.548 545.751 94.68ZM552.465 93.96H547.677C547.749 92.502 548.919 91.728 550.215 91.728C552.105 91.728 552.573 93.204 552.465 93.96ZM558.043 99V92.052H562.561V90.36H556.117V99H558.043ZM563.294 94.68C563.294 97.668 565.562 99.234 567.974 99.234C570.404 99.234 572.654 97.668 572.654 94.68C572.654 91.692 570.404 90.126 567.974 90.126C565.562 90.126 563.294 91.692 563.294 94.68ZM570.692 94.68C570.692 96.372 569.576 97.47 567.974 97.47C566.354 97.47 565.238 96.372 565.238 94.68C565.238 92.988 566.354 91.89 567.974 91.89C569.576 91.89 570.692 92.988 570.692 94.68ZM576.231 91.71V90.36H574.521V102.96H576.447V97.884C577.041 98.568 578.049 99.234 579.561 99.234C582.153 99.234 583.845 97.164 583.845 94.68C583.845 92.196 582.153 90.126 579.561 90.126C577.941 90.126 576.915 90.882 576.231 91.71ZM581.883 94.68C581.883 96.372 580.767 97.542 579.201 97.542C577.869 97.542 576.861 96.678 576.447 95.724V93.618C576.861 92.682 577.869 91.818 579.201 91.818C580.767 91.818 581.883 92.988 581.883 94.68ZM587.627 89.352V99H586.043V89.352H587.627ZM586.853 85.734C587.093 85.734 587.303 85.818 587.483 85.986C587.675 86.142 587.771 86.394 587.771 86.742C587.771 87.078 587.675 87.33 587.483 87.498C587.303 87.666 587.093 87.75 586.853 87.75C586.589 87.75 586.367 87.666 586.187 87.498C586.007 87.33 585.917 87.078 585.917 86.742C585.917 86.394 586.007 86.142 586.187 85.986C586.367 85.818 586.589 85.734 586.853 85.734ZM591.799 99L593.941 96.174H595.903V99H597.829V90.36H593.365C591.205 90.36 590.035 91.71 590.035 93.276C590.035 94.464 590.701 95.526 591.961 95.958L589.585 99H591.799ZM591.997 93.294C591.997 92.448 592.627 91.962 593.689 91.962H595.903V94.626H593.689C592.627 94.626 591.997 94.14 591.997 93.294ZM612.61 89.874C612.61 87.786 610.846 86.526 608.326 86.526C606.814 86.526 605.5 86.85 604.402 87.426V89.388C605.59 88.704 606.85 88.38 608.056 88.38C609.73 88.38 610.648 89.028 610.648 90.126C610.648 91.134 609.838 91.782 608.326 91.782L606.616 91.764V93.618H608.56C610.018 93.618 611.152 94.068 611.152 95.454C611.152 96.84 609.892 97.362 608.272 97.38C606.76 97.398 605.5 97.164 604.186 96.444V98.424C605.482 98.982 606.778 99.234 608.434 99.234C610.936 99.234 613.114 98.136 613.114 95.67C613.114 93.816 611.944 92.898 610.792 92.538C611.89 92.178 612.61 91.152 612.61 89.874Z" fill="#454545"/>
<path d="M276.999 144.435C283.867 144.435 289.434 138.868 289.434 132C289.434 125.133 283.867 119.565 276.999 119.565C270.132 119.565 264.564 125.133 264.564 132C264.564 138.868 270.132 144.435 276.999 144.435Z" fill="#EDFFDE"/>
<path d="M281.665 135.014C280.487 136.332 278.787 137.087 277 137.087C275.218 137.087 273.516 136.331 272.333 135.014C272.125 134.781 271.768 134.761 271.535 134.971C271.303 135.179 271.284 135.536 271.492 135.769C272.89 137.325 274.897 138.217 277 138.217C279.108 138.217 281.116 137.324 282.508 135.768C282.716 135.535 282.697 135.179 282.464 134.97C282.23 134.761 281.873 134.781 281.665 135.014Z" fill="#80DA39"/>
<path d="M277 119C269.832 119 264 124.832 264 132C264 139.168 269.832 145 277 145C284.168 145 290 139.168 290 132C290 124.832 284.168 119 277 119ZM277 143.87C270.455 143.87 265.13 138.545 265.13 132C265.13 125.455 270.455 120.13 277 120.13C283.545 120.13 288.87 125.455 288.87 132C288.87 138.545 283.545 143.87 277 143.87Z" fill="#80DA39"/>
<path d="M281.521 128.043C279.963 128.043 278.695 129.311 278.695 130.87C278.695 131.182 278.949 131.435 279.261 131.435C279.573 131.435 279.826 131.182 279.826 130.87C279.826 129.935 280.587 129.174 281.521 129.174C282.456 129.174 283.217 129.935 283.217 130.87C283.217 131.182 283.47 131.435 283.782 131.435C284.094 131.435 284.347 131.182 284.347 130.87C284.347 129.311 283.08 128.043 281.521 128.043Z" fill="#80DA39"/>
<path d="M274.174 130.87C274.174 131.182 274.427 131.435 274.739 131.435C275.051 131.435 275.305 131.182 275.305 130.87C275.305 129.311 274.037 128.043 272.478 128.043C270.92 128.043 269.652 129.311 269.652 130.87C269.652 131.182 269.906 131.435 270.218 131.435C270.53 131.435 270.783 131.182 270.783 130.87C270.783 129.935 271.544 129.174 272.478 129.174C273.413 129.174 274.174 129.935 274.174 130.87Z" fill="#80DA39"/>
<path d="M276.999 378.435C283.867 378.435 289.434 372.868 289.434 366C289.434 359.133 283.867 353.565 276.999 353.565C270.132 353.565 264.564 359.133 264.564 366C264.564 372.868 270.132 378.435 276.999 378.435Z" fill="#EDFFDE"/>
<path d="M281.665 369.014C280.487 370.332 278.787 371.087 277 371.087C275.218 371.087 273.516 370.331 272.333 369.014C272.125 368.781 271.768 368.761 271.535 368.971C271.303 369.179 271.284 369.536 271.492 369.769C272.89 371.325 274.897 372.217 277 372.217C279.108 372.217 281.116 371.324 282.508 369.768C282.716 369.535 282.697 369.179 282.464 368.97C282.23 368.761 281.873 368.781 281.665 369.014Z" fill="#80DA39"/>
<path d="M277 353C269.832 353 264 358.832 264 366C264 373.168 269.832 379 277 379C284.168 379 290 373.168 290 366C290 358.832 284.168 353 277 353ZM277 377.87C270.455 377.87 265.13 372.545 265.13 366C265.13 359.455 270.455 354.13 277 354.13C283.545 354.13 288.87 359.455 288.87 366C288.87 372.545 283.545 377.87 277 377.87Z" fill="#80DA39"/>
<path d="M281.521 362.043C279.963 362.043 278.695 363.311 278.695 364.87C278.695 365.182 278.949 365.435 279.261 365.435C279.573 365.435 279.826 365.182 279.826 364.87C279.826 363.935 280.587 363.174 281.521 363.174C282.456 363.174 283.217 363.935 283.217 364.87C283.217 365.182 283.47 365.435 283.782 365.435C284.094 365.435 284.347 365.182 284.347 364.87C284.347 363.311 283.08 362.043 281.521 362.043Z" fill="#80DA39"/>
<path d="M274.174 364.87C274.174 365.182 274.427 365.435 274.739 365.435C275.051 365.435 275.305 365.182 275.305 364.87C275.305 363.311 274.037 362.043 272.478 362.043C270.92 362.043 269.652 363.311 269.652 364.87C269.652 365.182 269.906 365.435 270.218 365.435C270.53 365.435 270.783 365.182 270.783 364.87C270.783 363.935 271.544 363.174 272.478 363.174C273.413 363.174 274.174 363.935 274.174 364.87Z" fill="#80DA39"/>
<path d="M564.999 119.565C571.867 119.565 577.434 125.133 577.434 132C577.434 138.868 571.867 144.435 564.999 144.435C558.132 144.435 552.564 138.868 552.564 132C552.564 125.133 558.132 119.565 564.999 119.565ZM570.651 130.87C570.651 130.248 570.143 129.739 569.521 129.739C568.899 129.739 568.391 130.248 568.391 130.87C568.391 131.492 568.899 132 569.521 132C570.143 132 570.651 131.492 570.651 130.87ZM561.608 130.87C561.608 130.248 561.099 129.739 560.477 129.739C559.856 129.739 559.347 130.248 559.347 130.87C559.347 131.492 559.856 132 560.477 132C561.099 132 561.608 131.492 561.608 130.87Z" fill="#FFE6E4"/>
<path d="M569.521 132C570.145 132 570.652 131.494 570.652 130.87C570.652 130.245 570.145 129.739 569.521 129.739C568.897 129.739 568.391 130.245 568.391 130.87C568.391 131.494 568.897 132 569.521 132Z" fill="#FFE6E4"/>
<path d="M560.478 132C561.102 132 561.609 131.494 561.609 130.87C561.609 130.245 561.102 129.739 560.478 129.739C559.854 129.739 559.348 130.245 559.348 130.87C559.348 131.494 559.854 132 560.478 132Z" fill="#FFE6E4"/>
<path d="M565 119C557.832 119 552 124.832 552 132C552 139.168 557.832 145 565 145C572.169 145 578 139.168 578 132C578 124.832 572.169 119 565 119ZM565 143.87C558.455 143.87 553.13 138.545 553.13 132C553.13 125.455 558.455 120.13 565 120.13C571.545 120.13 576.87 125.455 576.87 132C576.87 138.545 571.545 143.87 565 143.87Z" fill="#F64810"/>
<path d="M562.175 130.869C562.175 129.935 561.414 129.174 560.479 129.174C559.544 129.174 558.783 129.935 558.783 130.869C558.783 131.804 559.544 132.565 560.479 132.565C561.414 132.565 562.175 131.804 562.175 130.869ZM559.914 130.869C559.914 130.558 560.167 130.304 560.479 130.304C560.79 130.304 561.044 130.558 561.044 130.869C561.044 131.181 560.79 131.435 560.479 131.435C560.167 131.435 559.914 131.181 559.914 130.869Z" fill="#F64810"/>
<path d="M569.522 129.174C568.587 129.174 567.826 129.935 567.826 130.869C567.826 131.804 568.587 132.565 569.522 132.565C570.457 132.565 571.217 131.804 571.217 130.869C571.217 129.935 570.457 129.174 569.522 129.174ZM569.522 131.435C569.21 131.435 568.957 131.181 568.957 130.869C568.957 130.558 569.21 130.304 569.522 130.304C569.834 130.304 570.087 130.558 570.087 130.869C570.087 131.181 569.834 131.435 569.522 131.435Z" fill="#F64810"/>
<path d="M567.262 126.913C567.346 126.913 567.433 126.894 567.514 126.854L569.775 125.723C570.054 125.583 570.167 125.244 570.027 124.965C569.887 124.685 569.547 124.572 569.269 124.712L567.008 125.842C566.729 125.982 566.616 126.322 566.755 126.601C566.855 126.799 567.054 126.913 567.262 126.913Z" fill="#F64810"/>
<path d="M560.225 125.723L562.486 126.854C562.567 126.894 562.653 126.913 562.738 126.913C562.945 126.913 563.145 126.799 563.244 126.6C563.384 126.321 563.271 125.981 562.992 125.842L560.731 124.711C560.45 124.571 560.112 124.685 559.972 124.964C559.832 125.244 559.946 125.583 560.225 125.723Z" fill="#F64810"/>
<path d="M565 134.826C562.892 134.826 560.884 135.719 559.492 137.275C559.284 137.508 559.303 137.865 559.536 138.073C559.644 138.17 559.779 138.217 559.913 138.217C560.069 138.217 560.223 138.154 560.335 138.029C561.513 136.712 563.213 135.957 565 135.957C566.782 135.957 568.484 136.712 569.667 138.03C569.875 138.263 570.233 138.281 570.465 138.073C570.697 137.864 570.716 137.507 570.508 137.275C569.11 135.719 567.103 134.826 565 134.826Z" fill="#F64810"/>
<path d="M422.999 119.565C429.867 119.565 435.434 125.133 435.434 132C435.434 138.868 429.867 144.435 422.999 144.435C416.132 144.435 410.564 138.868 410.564 132C410.564 125.133 416.132 119.565 422.999 119.565ZM428.651 130.87C428.651 130.248 428.143 129.739 427.521 129.739C426.899 129.739 426.391 130.248 426.391 130.87C426.391 131.492 426.899 132 427.521 132C428.143 132 428.651 131.492 428.651 130.87ZM419.608 130.87C419.608 130.248 419.099 129.739 418.477 129.739C417.856 129.739 417.347 130.248 417.347 130.87C417.347 131.492 417.856 132 418.477 132C419.099 132 419.608 131.492 419.608 130.87Z" fill="#FFE6E4"/>
<path d="M427.521 132C428.145 132 428.652 131.494 428.652 130.87C428.652 130.245 428.145 129.739 427.521 129.739C426.897 129.739 426.391 130.245 426.391 130.87C426.391 131.494 426.897 132 427.521 132Z" fill="#FFE6E4"/>
<path d="M418.478 132C419.102 132 419.609 131.494 419.609 130.87C419.609 130.245 419.102 129.739 418.478 129.739C417.854 129.739 417.348 130.245 417.348 130.87C417.348 131.494 417.854 132 418.478 132Z" fill="#FFE6E4"/>
<path d="M423 119C415.832 119 410 124.832 410 132C410 139.168 415.832 145 423 145C430.169 145 436 139.168 436 132C436 124.832 430.169 119 423 119ZM423 143.87C416.455 143.87 411.13 138.545 411.13 132C411.13 125.455 416.455 120.13 423 120.13C429.545 120.13 434.87 125.455 434.87 132C434.87 138.545 429.545 143.87 423 143.87Z" fill="#F64810"/>
<path d="M420.175 130.869C420.175 129.935 419.414 129.174 418.479 129.174C417.544 129.174 416.783 129.935 416.783 130.869C416.783 131.804 417.544 132.565 418.479 132.565C419.414 132.565 420.175 131.804 420.175 130.869ZM417.914 130.869C417.914 130.558 418.167 130.304 418.479 130.304C418.79 130.304 419.044 130.558 419.044 130.869C419.044 131.181 418.79 131.435 418.479 131.435C418.167 131.435 417.914 131.181 417.914 130.869Z" fill="#F64810"/>
<path d="M427.522 129.174C426.587 129.174 425.826 129.935 425.826 130.869C425.826 131.804 426.587 132.565 427.522 132.565C428.457 132.565 429.217 131.804 429.217 130.869C429.217 129.935 428.457 129.174 427.522 129.174ZM427.522 131.435C427.21 131.435 426.957 131.181 426.957 130.869C426.957 130.558 427.21 130.304 427.522 130.304C427.834 130.304 428.087 130.558 428.087 130.869C428.087 131.181 427.834 131.435 427.522 131.435Z" fill="#F64810"/>
<path d="M425.262 126.913C425.346 126.913 425.433 126.894 425.514 126.854L427.775 125.723C428.054 125.583 428.167 125.244 428.027 124.965C427.887 124.685 427.547 124.572 427.269 124.712L425.008 125.842C424.729 125.982 424.616 126.322 424.755 126.601C424.855 126.799 425.054 126.913 425.262 126.913Z" fill="#F64810"/>
<path d="M418.225 125.723L420.486 126.854C420.567 126.894 420.653 126.913 420.738 126.913C420.945 126.913 421.145 126.799 421.244 126.6C421.384 126.321 421.271 125.981 420.992 125.842L418.731 124.711C418.45 124.571 418.112 124.685 417.972 124.964C417.832 125.244 417.946 125.583 418.225 125.723Z" fill="#F64810"/>
<path d="M423 134.826C420.892 134.826 418.884 135.719 417.492 137.275C417.284 137.508 417.303 137.865 417.536 138.073C417.644 138.17 417.779 138.217 417.913 138.217C418.069 138.217 418.223 138.154 418.335 138.029C419.513 136.712 421.213 135.957 423 135.957C424.782 135.957 426.484 136.712 427.667 138.03C427.875 138.263 428.233 138.281 428.465 138.073C428.697 137.864 428.716 137.507 428.508 137.275C427.11 135.719 425.103 134.826 423 134.826Z" fill="#F64810"/>
<path d="M564.999 158.565C571.867 158.565 577.434 164.133 577.434 171C577.434 177.868 571.867 183.435 564.999 183.435C558.132 183.435 552.564 177.868 552.564 171C552.564 164.133 558.132 158.565 564.999 158.565ZM570.651 169.87C570.651 169.248 570.143 168.739 569.521 168.739C568.899 168.739 568.391 169.248 568.391 169.87C568.391 170.492 568.899 171 569.521 171C570.143 171 570.651 170.492 570.651 169.87ZM561.608 169.87C561.608 169.248 561.099 168.739 560.477 168.739C559.856 168.739 559.347 169.248 559.347 169.87C559.347 170.492 559.856 171 560.477 171C561.099 171 561.608 170.492 561.608 169.87Z" fill="#FFE6E4"/>
<path d="M569.521 171C570.145 171 570.652 170.494 570.652 169.87C570.652 169.245 570.145 168.739 569.521 168.739C568.897 168.739 568.391 169.245 568.391 169.87C568.391 170.494 568.897 171 569.521 171Z" fill="#FFE6E4"/>
<path d="M560.478 171C561.102 171 561.609 170.494 561.609 169.87C561.609 169.245 561.102 168.739 560.478 168.739C559.854 168.739 559.348 169.245 559.348 169.87C559.348 170.494 559.854 171 560.478 171Z" fill="#FFE6E4"/>
<path d="M565 158C557.832 158 552 163.832 552 171C552 178.168 557.832 184 565 184C572.169 184 578 178.168 578 171C578 163.832 572.169 158 565 158ZM565 182.87C558.455 182.87 553.13 177.545 553.13 171C553.13 164.455 558.455 159.13 565 159.13C571.545 159.13 576.87 164.455 576.87 171C576.87 177.545 571.545 182.87 565 182.87Z" fill="#F64810"/>
<path d="M562.175 169.869C562.175 168.935 561.414 168.174 560.479 168.174C559.544 168.174 558.783 168.935 558.783 169.869C558.783 170.804 559.544 171.565 560.479 171.565C561.414 171.565 562.175 170.804 562.175 169.869ZM559.914 169.869C559.914 169.558 560.167 169.304 560.479 169.304C560.79 169.304 561.044 169.558 561.044 169.869C561.044 170.181 560.79 170.435 560.479 170.435C560.167 170.435 559.914 170.181 559.914 169.869Z" fill="#F64810"/>
<path d="M569.522 168.174C568.587 168.174 567.826 168.935 567.826 169.869C567.826 170.804 568.587 171.565 569.522 171.565C570.457 171.565 571.217 170.804 571.217 169.869C571.217 168.935 570.457 168.174 569.522 168.174ZM569.522 170.435C569.21 170.435 568.957 170.181 568.957 169.869C568.957 169.558 569.21 169.304 569.522 169.304C569.834 169.304 570.087 169.558 570.087 169.869C570.087 170.181 569.834 170.435 569.522 170.435Z" fill="#F64810"/>
<path d="M567.262 165.913C567.346 165.913 567.433 165.894 567.514 165.854L569.775 164.724C570.054 164.584 570.167 164.244 570.027 163.965C569.887 163.686 569.547 163.572 569.269 163.712L567.008 164.843C566.729 164.982 566.616 165.322 566.755 165.601C566.855 165.799 567.054 165.913 567.262 165.913Z" fill="#F64810"/>
<path d="M560.225 164.723L562.486 165.854C562.567 165.894 562.653 165.913 562.738 165.913C562.945 165.913 563.145 165.799 563.244 165.6C563.384 165.321 563.271 164.981 562.992 164.842L560.731 163.711C560.45 163.571 560.112 163.685 559.972 163.964C559.832 164.244 559.946 164.583 560.225 164.723Z" fill="#F64810"/>
<path d="M565 173.826C562.892 173.826 560.884 174.719 559.492 176.275C559.284 176.508 559.303 176.865 559.536 177.073C559.644 177.17 559.779 177.217 559.913 177.217C560.069 177.217 560.223 177.154 560.335 177.029C561.513 175.712 563.213 174.957 565 174.957C566.782 174.957 568.484 175.712 569.667 177.03C569.875 177.263 570.233 177.281 570.465 177.073C570.697 176.864 570.716 176.507 570.508 176.275C569.11 174.719 567.103 173.826 565 173.826Z" fill="#F64810"/>
<path d="M422.999 158.565C429.867 158.565 435.434 164.133 435.434 171C435.434 177.868 429.867 183.435 422.999 183.435C416.132 183.435 410.564 177.868 410.564 171C410.564 164.133 416.132 158.565 422.999 158.565ZM428.651 169.87C428.651 169.248 428.143 168.739 427.521 168.739C426.899 168.739 426.391 169.248 426.391 169.87C426.391 170.492 426.899 171 427.521 171C428.143 171 428.651 170.492 428.651 169.87ZM419.608 169.87C419.608 169.248 419.099 168.739 418.477 168.739C417.856 168.739 417.347 169.248 417.347 169.87C417.347 170.492 417.856 171 418.477 171C419.099 171 419.608 170.492 419.608 169.87Z" fill="#FFE6E4"/>
<path d="M427.521 171C428.145 171 428.652 170.494 428.652 169.87C428.652 169.245 428.145 168.739 427.521 168.739C426.897 168.739 426.391 169.245 426.391 169.87C426.391 170.494 426.897 171 427.521 171Z" fill="#FFE6E4"/>
<path d="M418.478 171C419.102 171 419.609 170.494 419.609 169.87C419.609 169.245 419.102 168.739 418.478 168.739C417.854 168.739 417.348 169.245 417.348 169.87C417.348 170.494 417.854 171 418.478 171Z" fill="#FFE6E4"/>
<path d="M423 158C415.832 158 410 163.832 410 171C410 178.168 415.832 184 423 184C430.169 184 436 178.168 436 171C436 163.832 430.169 158 423 158ZM423 182.87C416.455 182.87 411.13 177.545 411.13 171C411.13 164.455 416.455 159.13 423 159.13C429.545 159.13 434.87 164.455 434.87 171C434.87 177.545 429.545 182.87 423 182.87Z" fill="#F64810"/>
<path d="M420.175 169.869C420.175 168.935 419.414 168.174 418.479 168.174C417.544 168.174 416.783 168.935 416.783 169.869C416.783 170.804 417.544 171.565 418.479 171.565C419.414 171.565 420.175 170.804 420.175 169.869ZM417.914 169.869C417.914 169.558 418.167 169.304 418.479 169.304C418.79 169.304 419.044 169.558 419.044 169.869C419.044 170.181 418.79 170.435 418.479 170.435C418.167 170.435 417.914 170.181 417.914 169.869Z" fill="#F64810"/>
<path d="M427.522 168.174C426.587 168.174 425.826 168.935 425.826 169.869C425.826 170.804 426.587 171.565 427.522 171.565C428.457 171.565 429.217 170.804 429.217 169.869C429.217 168.935 428.457 168.174 427.522 168.174ZM427.522 170.435C427.21 170.435 426.957 170.181 426.957 169.869C426.957 169.558 427.21 169.304 427.522 169.304C427.834 169.304 428.087 169.558 428.087 169.869C428.087 170.181 427.834 170.435 427.522 170.435Z" fill="#F64810"/>
<path d="M425.262 165.913C425.346 165.913 425.433 165.894 425.514 165.854L427.775 164.724C428.054 164.584 428.167 164.244 428.027 163.965C427.887 163.686 427.547 163.572 427.269 163.712L425.008 164.843C424.729 164.982 424.616 165.322 424.755 165.601C424.855 165.799 425.054 165.913 425.262 165.913Z" fill="#F64810"/>
<path d="M418.225 164.723L420.486 165.854C420.567 165.894 420.653 165.913 420.738 165.913C420.945 165.913 421.145 165.799 421.244 165.6C421.384 165.321 421.271 164.981 420.992 164.842L418.731 163.711C418.45 163.571 418.112 163.685 417.972 163.964C417.832 164.244 417.946 164.583 418.225 164.723Z" fill="#F64810"/>
<path d="M423 173.826C420.892 173.826 418.884 174.719 417.492 176.275C417.284 176.508 417.303 176.865 417.536 177.073C417.644 177.17 417.779 177.217 417.913 177.217C418.069 177.217 418.223 177.154 418.335 177.029C419.513 175.712 421.213 174.957 423 174.957C424.782 174.957 426.484 175.712 427.667 177.03C427.875 177.263 428.233 177.281 428.465 177.073C428.697 176.864 428.716 176.507 428.508 176.275C427.11 174.719 425.103 173.826 423 173.826Z" fill="#F64810"/>
<path d="M564.999 222.435C571.867 222.435 577.434 216.868 577.434 210C577.434 203.133 571.867 197.565 564.999 197.565C558.132 197.565 552.564 203.133 552.564 210C552.564 216.868 558.132 222.435 564.999 222.435Z" fill="#EDFFDE"/>
<path d="M569.665 213.014C568.487 214.332 566.787 215.087 565 215.087C563.218 215.087 561.516 214.331 560.333 213.014C560.125 212.781 559.768 212.761 559.535 212.971C559.303 213.179 559.284 213.536 559.492 213.769C560.89 215.325 562.897 216.217 565 216.217C567.108 216.217 569.116 215.324 570.508 213.768C570.716 213.535 570.697 213.179 570.464 212.97C570.23 212.761 569.873 212.781 569.665 213.014Z" fill="#80DA39"/>
<path d="M565 197C557.832 197 552 202.832 552 210C552 217.168 557.832 223 565 223C572.168 223 578 217.168 578 210C578 202.832 572.168 197 565 197ZM565 221.87C558.455 221.87 553.13 216.545 553.13 210C553.13 203.455 558.455 198.13 565 198.13C571.545 198.13 576.87 203.455 576.87 210C576.87 216.545 571.545 221.87 565 221.87Z" fill="#80DA39"/>
<path d="M569.521 206.043C567.963 206.043 566.695 207.311 566.695 208.87C566.695 209.182 566.949 209.435 567.261 209.435C567.573 209.435 567.826 209.182 567.826 208.87C567.826 207.935 568.587 207.174 569.521 207.174C570.456 207.174 571.217 207.935 571.217 208.87C571.217 209.182 571.47 209.435 571.782 209.435C572.094 209.435 572.347 209.182 572.347 208.87C572.347 207.311 571.08 206.043 569.521 206.043Z" fill="#80DA39"/>
<path d="M562.174 208.87C562.174 209.182 562.427 209.435 562.739 209.435C563.051 209.435 563.305 209.182 563.305 208.87C563.305 207.311 562.037 206.043 560.478 206.043C558.92 206.043 557.652 207.311 557.652 208.87C557.652 209.182 557.906 209.435 558.218 209.435C558.53 209.435 558.783 209.182 558.783 208.87C558.783 207.935 559.544 207.174 560.478 207.174C561.413 207.174 562.174 207.935 562.174 208.87Z" fill="#80DA39"/>
<path d="M422.999 222.435C429.867 222.435 435.434 216.868 435.434 210C435.434 203.133 429.867 197.565 422.999 197.565C416.132 197.565 410.564 203.133 410.564 210C410.564 216.868 416.132 222.435 422.999 222.435Z" fill="#EDFFDE"/>
<path d="M427.665 213.014C426.487 214.332 424.787 215.087 423 215.087C421.218 215.087 419.516 214.331 418.333 213.014C418.125 212.781 417.768 212.761 417.535 212.971C417.303 213.179 417.284 213.536 417.492 213.769C418.89 215.325 420.897 216.217 423 216.217C425.108 216.217 427.116 215.324 428.508 213.768C428.716 213.535 428.697 213.179 428.464 212.97C428.23 212.761 427.873 212.781 427.665 213.014Z" fill="#80DA39"/>
<path d="M423 197C415.832 197 410 202.832 410 210C410 217.168 415.832 223 423 223C430.168 223 436 217.168 436 210C436 202.832 430.168 197 423 197ZM423 221.87C416.455 221.87 411.13 216.545 411.13 210C411.13 203.455 416.455 198.13 423 198.13C429.545 198.13 434.87 203.455 434.87 210C434.87 216.545 429.545 221.87 423 221.87Z" fill="#80DA39"/>
<path d="M427.521 206.043C425.963 206.043 424.695 207.311 424.695 208.87C424.695 209.182 424.949 209.435 425.261 209.435C425.573 209.435 425.826 209.182 425.826 208.87C425.826 207.935 426.587 207.174 427.521 207.174C428.456 207.174 429.217 207.935 429.217 208.87C429.217 209.182 429.47 209.435 429.782 209.435C430.094 209.435 430.347 209.182 430.347 208.87C430.347 207.311 429.08 206.043 427.521 206.043Z" fill="#80DA39"/>
<path d="M420.174 208.87C420.174 209.182 420.427 209.435 420.739 209.435C421.051 209.435 421.305 209.182 421.305 208.87C421.305 207.311 420.037 206.043 418.478 206.043C416.92 206.043 415.652 207.311 415.652 208.87C415.652 209.182 415.906 209.435 416.218 209.435C416.53 209.435 416.783 209.182 416.783 208.87C416.783 207.935 417.544 207.174 418.478 207.174C419.413 207.174 420.174 207.935 420.174 208.87Z" fill="#80DA39"/>
<path d="M564.999 339.435C571.867 339.435 577.434 333.868 577.434 327C577.434 320.133 571.867 314.565 564.999 314.565C558.132 314.565 552.564 320.133 552.564 327C552.564 333.868 558.132 339.435 564.999 339.435Z" fill="#EDFFDE"/>
<path d="M569.665 330.014C568.487 331.332 566.787 332.087 565 332.087C563.218 332.087 561.516 331.331 560.333 330.014C560.125 329.781 559.768 329.761 559.535 329.971C559.303 330.179 559.284 330.536 559.492 330.769C560.89 332.325 562.897 333.217 565 333.217C567.108 333.217 569.116 332.324 570.508 330.768C570.716 330.535 570.697 330.179 570.464 329.97C570.23 329.761 569.873 329.781 569.665 330.014Z" fill="#80DA39"/>
<path d="M565 314C557.832 314 552 319.832 552 327C552 334.168 557.832 340 565 340C572.168 340 578 334.168 578 327C578 319.832 572.168 314 565 314ZM565 338.87C558.455 338.87 553.13 333.545 553.13 327C553.13 320.455 558.455 315.13 565 315.13C571.545 315.13 576.87 320.455 576.87 327C576.87 333.545 571.545 338.87 565 338.87Z" fill="#80DA39"/>
<path d="M569.521 323.043C567.963 323.043 566.695 324.311 566.695 325.87C566.695 326.182 566.949 326.435 567.261 326.435C567.573 326.435 567.826 326.182 567.826 325.87C567.826 324.935 568.587 324.174 569.521 324.174C570.456 324.174 571.217 324.935 571.217 325.87C571.217 326.182 571.47 326.435 571.782 326.435C572.094 326.435 572.347 326.182 572.347 325.87C572.347 324.311 571.08 323.043 569.521 323.043Z" fill="#80DA39"/>
<path d="M562.174 325.87C562.174 326.182 562.427 326.435 562.739 326.435C563.051 326.435 563.305 326.182 563.305 325.87C563.305 324.311 562.037 323.043 560.478 323.043C558.92 323.043 557.652 324.311 557.652 325.87C557.652 326.182 557.906 326.435 558.218 326.435C558.53 326.435 558.783 326.182 558.783 325.87C558.783 324.935 559.544 324.174 560.478 324.174C561.413 324.174 562.174 324.935 562.174 325.87Z" fill="#80DA39"/>
<path d="M422.999 261.435C429.867 261.435 435.434 255.868 435.434 249C435.434 242.133 429.867 236.565 422.999 236.565C416.132 236.565 410.564 242.133 410.564 249C410.564 255.868 416.132 261.435 422.999 261.435Z" fill="#EDFFDE"/>
<path d="M427.665 252.014C426.487 253.332 424.787 254.087 423 254.087C421.218 254.087 419.516 253.331 418.333 252.014C418.125 251.781 417.768 251.761 417.535 251.971C417.303 252.179 417.284 252.536 417.492 252.769C418.89 254.325 420.897 255.217 423 255.217C425.108 255.217 427.116 254.324 428.508 252.768C428.716 252.535 428.697 252.179 428.464 251.97C428.23 251.761 427.873 251.781 427.665 252.014Z" fill="#80DA39"/>
<path d="M423 236C415.832 236 410 241.832 410 249C410 256.168 415.832 262 423 262C430.168 262 436 256.168 436 249C436 241.832 430.168 236 423 236ZM423 260.87C416.455 260.87 411.13 255.545 411.13 249C411.13 242.455 416.455 237.13 423 237.13C429.545 237.13 434.87 242.455 434.87 249C434.87 255.545 429.545 260.87 423 260.87Z" fill="#80DA39"/>
<path d="M427.521 245.043C425.963 245.043 424.695 246.311 424.695 247.87C424.695 248.182 424.949 248.435 425.261 248.435C425.573 248.435 425.826 248.182 425.826 247.87C425.826 246.935 426.587 246.174 427.521 246.174C428.456 246.174 429.217 246.935 429.217 247.87C429.217 248.182 429.47 248.435 429.782 248.435C430.094 248.435 430.347 248.182 430.347 247.87C430.347 246.311 429.08 245.043 427.521 245.043Z" fill="#80DA39"/>
<path d="M420.174 247.87C420.174 248.182 420.427 248.435 420.739 248.435C421.051 248.435 421.305 248.182 421.305 247.87C421.305 246.311 420.037 245.043 418.478 245.043C416.92 245.043 415.652 246.311 415.652 247.87C415.652 248.182 415.906 248.435 416.218 248.435C416.53 248.435 416.783 248.182 416.783 247.87C416.783 246.935 417.544 246.174 418.478 246.174C419.413 246.174 420.174 246.935 420.174 247.87Z" fill="#80DA39"/>
<path d="M422.999 300.435C429.867 300.435 435.434 294.868 435.434 288C435.434 281.133 429.867 275.565 422.999 275.565C416.132 275.565 410.564 281.133 410.564 288C410.564 294.868 416.132 300.435 422.999 300.435Z" fill="#EDFFDE"/>
<path d="M427.665 291.014C426.487 292.332 424.787 293.087 423 293.087C421.218 293.087 419.516 292.331 418.333 291.014C418.125 290.781 417.768 290.761 417.535 290.971C417.303 291.179 417.284 291.536 417.492 291.769C418.89 293.325 420.897 294.217 423 294.217C425.108 294.217 427.116 293.324 428.508 291.768C428.716 291.535 428.697 291.179 428.464 290.97C428.23 290.761 427.873 290.781 427.665 291.014Z" fill="#80DA39"/>
<path d="M423 275C415.832 275 410 280.832 410 288C410 295.168 415.832 301 423 301C430.168 301 436 295.168 436 288C436 280.832 430.168 275 423 275ZM423 299.87C416.455 299.87 411.13 294.545 411.13 288C411.13 281.455 416.455 276.13 423 276.13C429.545 276.13 434.87 281.455 434.87 288C434.87 294.545 429.545 299.87 423 299.87Z" fill="#80DA39"/>
<path d="M427.521 284.043C425.963 284.043 424.695 285.311 424.695 286.87C424.695 287.182 424.949 287.435 425.261 287.435C425.573 287.435 425.826 287.182 425.826 286.87C425.826 285.935 426.587 285.174 427.521 285.174C428.456 285.174 429.217 285.935 429.217 286.87C429.217 287.182 429.47 287.435 429.782 287.435C430.094 287.435 430.347 287.182 430.347 286.87C430.347 285.311 429.08 284.043 427.521 284.043Z" fill="#80DA39"/>
<path d="M420.174 286.87C420.174 287.182 420.427 287.435 420.739 287.435C421.051 287.435 421.305 287.182 421.305 286.87C421.305 285.311 420.037 284.043 418.478 284.043C416.92 284.043 415.652 285.311 415.652 286.87C415.652 287.182 415.906 287.435 416.218 287.435C416.53 287.435 416.783 287.182 416.783 286.87C416.783 285.935 417.544 285.174 418.478 285.174C419.413 285.174 420.174 285.935 420.174 286.87Z" fill="#80DA39"/>
<path d="M564.999 378.435C571.867 378.435 577.434 372.868 577.434 366C577.434 359.133 571.867 353.565 564.999 353.565C558.132 353.565 552.564 359.133 552.564 366C552.564 372.868 558.132 378.435 564.999 378.435Z" fill="#EDFFDE"/>
<path d="M569.665 369.014C568.487 370.332 566.787 371.087 565 371.087C563.218 371.087 561.516 370.331 560.333 369.014C560.125 368.781 559.768 368.761 559.535 368.971C559.303 369.179 559.284 369.536 559.492 369.769C560.89 371.325 562.897 372.217 565 372.217C567.108 372.217 569.116 371.324 570.508 369.768C570.716 369.535 570.697 369.179 570.464 368.97C570.23 368.761 569.873 368.781 569.665 369.014Z" fill="#80DA39"/>
<path d="M565 353C557.832 353 552 358.832 552 366C552 373.168 557.832 379 565 379C572.168 379 578 373.168 578 366C578 358.832 572.168 353 565 353ZM565 377.87C558.455 377.87 553.13 372.545 553.13 366C553.13 359.455 558.455 354.13 565 354.13C571.545 354.13 576.87 359.455 576.87 366C576.87 372.545 571.545 377.87 565 377.87Z" fill="#80DA39"/>
<path d="M569.521 362.043C567.963 362.043 566.695 363.311 566.695 364.87C566.695 365.182 566.949 365.435 567.261 365.435C567.573 365.435 567.826 365.182 567.826 364.87C567.826 363.935 568.587 363.174 569.521 363.174C570.456 363.174 571.217 363.935 571.217 364.87C571.217 365.182 571.47 365.435 571.782 365.435C572.094 365.435 572.347 365.182 572.347 364.87C572.347 363.311 571.08 362.043 569.521 362.043Z" fill="#80DA39"/>
<path d="M562.174 364.87C562.174 365.182 562.427 365.435 562.739 365.435C563.051 365.435 563.305 365.182 563.305 364.87C563.305 363.311 562.037 362.043 560.478 362.043C558.92 362.043 557.652 363.311 557.652 364.87C557.652 365.182 557.906 365.435 558.218 365.435C558.53 365.435 558.783 365.182 558.783 364.87C558.783 363.935 559.544 363.174 560.478 363.174C561.413 363.174 562.174 363.935 562.174 364.87Z" fill="#80DA39"/>
<path d="M276.999 236.565C283.867 236.565 289.434 242.133 289.434 249C289.434 255.868 283.867 261.435 276.999 261.435C270.132 261.435 264.564 255.868 264.564 249C264.564 242.133 270.132 236.565 276.999 236.565ZM282.651 247.87C282.651 247.248 282.143 246.739 281.521 246.739C280.899 246.739 280.391 247.248 280.391 247.87C280.391 248.492 280.899 249 281.521 249C282.143 249 282.651 248.492 282.651 247.87ZM273.608 247.87C273.608 247.248 273.099 246.739 272.477 246.739C271.856 246.739 271.347 247.248 271.347 247.87C271.347 248.492 271.856 249 272.477 249C273.099 249 273.608 248.492 273.608 247.87Z" fill="#FFE6E4"/>
<path d="M281.521 249C282.145 249 282.652 248.494 282.652 247.87C282.652 247.245 282.145 246.739 281.521 246.739C280.897 246.739 280.391 247.245 280.391 247.87C280.391 248.494 280.897 249 281.521 249Z" fill="#FFE6E4"/>
<path d="M272.478 249C273.102 249 273.609 248.494 273.609 247.87C273.609 247.245 273.102 246.739 272.478 246.739C271.854 246.739 271.348 247.245 271.348 247.87C271.348 248.494 271.854 249 272.478 249Z" fill="#FFE6E4"/>
<path d="M277 236C269.832 236 264 241.832 264 249C264 256.168 269.832 262 277 262C284.169 262 290 256.168 290 249C290 241.832 284.169 236 277 236ZM277 260.87C270.455 260.87 265.13 255.545 265.13 249C265.13 242.455 270.455 237.13 277 237.13C283.545 237.13 288.87 242.455 288.87 249C288.87 255.545 283.545 260.87 277 260.87Z" fill="#F64810"/>
<path d="M274.175 247.869C274.175 246.935 273.414 246.174 272.479 246.174C271.544 246.174 270.783 246.935 270.783 247.869C270.783 248.804 271.544 249.565 272.479 249.565C273.414 249.565 274.175 248.804 274.175 247.869ZM271.914 247.869C271.914 247.558 272.167 247.304 272.479 247.304C272.79 247.304 273.044 247.558 273.044 247.869C273.044 248.181 272.79 248.435 272.479 248.435C272.167 248.435 271.914 248.181 271.914 247.869Z" fill="#F64810"/>
<path d="M281.522 246.174C280.587 246.174 279.826 246.935 279.826 247.869C279.826 248.804 280.587 249.565 281.522 249.565C282.457 249.565 283.217 248.804 283.217 247.869C283.217 246.935 282.457 246.174 281.522 246.174ZM281.522 248.435C281.21 248.435 280.957 248.181 280.957 247.869C280.957 247.558 281.21 247.304 281.522 247.304C281.834 247.304 282.087 247.558 282.087 247.869C282.087 248.181 281.834 248.435 281.522 248.435Z" fill="#F64810"/>
<path d="M279.262 243.913C279.346 243.913 279.433 243.894 279.514 243.854L281.775 242.723C282.054 242.583 282.167 242.244 282.027 241.965C281.887 241.685 281.547 241.572 281.269 241.712L279.008 242.842C278.729 242.982 278.616 243.322 278.755 243.601C278.855 243.799 279.054 243.913 279.262 243.913Z" fill="#F64810"/>
<path d="M272.225 242.723L274.486 243.854C274.567 243.894 274.653 243.913 274.738 243.913C274.945 243.913 275.145 243.799 275.244 243.6C275.384 243.321 275.271 242.981 274.992 242.842L272.731 241.711C272.45 241.571 272.112 241.685 271.972 241.964C271.832 242.244 271.946 242.583 272.225 242.723Z" fill="#F64810"/>
<path d="M277 251.826C274.892 251.826 272.884 252.719 271.492 254.275C271.284 254.508 271.303 254.865 271.536 255.073C271.644 255.17 271.779 255.217 271.913 255.217C272.069 255.217 272.223 255.154 272.335 255.029C273.513 253.712 275.213 252.957 277 252.957C278.782 252.957 280.484 253.712 281.667 255.03C281.875 255.263 282.233 255.281 282.465 255.073C282.697 254.864 282.716 254.507 282.508 254.275C281.11 252.719 279.103 251.826 277 251.826Z" fill="#F64810"/>
<path d="M276.999 275.565C283.867 275.565 289.434 281.133 289.434 288C289.434 294.868 283.867 300.435 276.999 300.435C270.132 300.435 264.564 294.868 264.564 288C264.564 281.133 270.132 275.565 276.999 275.565ZM282.651 286.87C282.651 286.248 282.143 285.739 281.521 285.739C280.899 285.739 280.391 286.248 280.391 286.87C280.391 287.492 280.899 288 281.521 288C282.143 288 282.651 287.492 282.651 286.87ZM273.608 286.87C273.608 286.248 273.099 285.739 272.477 285.739C271.856 285.739 271.347 286.248 271.347 286.87C271.347 287.492 271.856 288 272.477 288C273.099 288 273.608 287.492 273.608 286.87Z" fill="#FFE6E4"/>
<path d="M281.521 288C282.145 288 282.652 287.494 282.652 286.87C282.652 286.245 282.145 285.739 281.521 285.739C280.897 285.739 280.391 286.245 280.391 286.87C280.391 287.494 280.897 288 281.521 288Z" fill="#FFE6E4"/>
<path d="M272.478 288C273.102 288 273.609 287.494 273.609 286.87C273.609 286.245 273.102 285.739 272.478 285.739C271.854 285.739 271.348 286.245 271.348 286.87C271.348 287.494 271.854 288 272.478 288Z" fill="#FFE6E4"/>
<path d="M277 275C269.832 275 264 280.832 264 288C264 295.168 269.832 301 277 301C284.169 301 290 295.168 290 288C290 280.832 284.169 275 277 275ZM277 299.87C270.455 299.87 265.13 294.545 265.13 288C265.13 281.455 270.455 276.13 277 276.13C283.545 276.13 288.87 281.455 288.87 288C288.87 294.545 283.545 299.87 277 299.87Z" fill="#F64810"/>
<path d="M274.175 286.869C274.175 285.935 273.414 285.174 272.479 285.174C271.544 285.174 270.783 285.935 270.783 286.869C270.783 287.804 271.544 288.565 272.479 288.565C273.414 288.565 274.175 287.804 274.175 286.869ZM271.914 286.869C271.914 286.558 272.167 286.304 272.479 286.304C272.79 286.304 273.044 286.558 273.044 286.869C273.044 287.181 272.79 287.435 272.479 287.435C272.167 287.435 271.914 287.181 271.914 286.869Z" fill="#F64810"/>
<path d="M281.522 285.174C280.587 285.174 279.826 285.935 279.826 286.869C279.826 287.804 280.587 288.565 281.522 288.565C282.457 288.565 283.217 287.804 283.217 286.869C283.217 285.935 282.457 285.174 281.522 285.174ZM281.522 287.435C281.21 287.435 280.957 287.181 280.957 286.869C280.957 286.558 281.21 286.304 281.522 286.304C281.834 286.304 282.087 286.558 282.087 286.869C282.087 287.181 281.834 287.435 281.522 287.435Z" fill="#F64810"/>
<path d="M279.262 282.913C279.346 282.913 279.433 282.894 279.514 282.854L281.775 281.723C282.054 281.583 282.167 281.244 282.027 280.965C281.887 280.685 281.547 280.572 281.269 280.712L279.008 281.842C278.729 281.982 278.616 282.322 278.755 282.601C278.855 282.799 279.054 282.913 279.262 282.913Z" fill="#F64810"/>
<path d="M272.225 281.723L274.486 282.854C274.567 282.894 274.653 282.913 274.738 282.913C274.945 282.913 275.145 282.799 275.244 282.6C275.384 282.321 275.271 281.981 274.992 281.842L272.731 280.711C272.45 280.571 272.112 280.685 271.972 280.964C271.832 281.244 271.946 281.583 272.225 281.723Z" fill="#F64810"/>
<path d="M277 290.826C274.892 290.826 272.884 291.719 271.492 293.275C271.284 293.508 271.303 293.865 271.536 294.073C271.644 294.17 271.779 294.217 271.913 294.217C272.069 294.217 272.223 294.154 272.335 294.029C273.513 292.712 275.213 291.957 277 291.957C278.782 291.957 280.484 292.712 281.667 294.03C281.875 294.263 282.233 294.281 282.465 294.073C282.697 293.864 282.716 293.507 282.508 293.275C281.11 291.719 279.103 290.826 277 290.826Z" fill="#F64810"/>
<path d="M276.999 158.565C283.867 158.565 289.434 164.133 289.434 171C289.434 177.868 283.867 183.435 276.999 183.435C270.132 183.435 264.564 177.868 264.564 171C264.564 164.133 270.132 158.565 276.999 158.565ZM282.651 168.739C282.651 168.118 282.143 167.609 281.521 167.609C280.899 167.609 280.391 168.118 280.391 168.739C280.391 169.361 280.899 169.87 281.521 169.87C282.143 169.87 282.651 169.361 282.651 168.739ZM273.608 168.739C273.608 168.118 273.099 167.609 272.477 167.609C271.856 167.609 271.347 168.118 271.347 168.739C271.347 169.361 271.856 169.87 272.477 169.87C273.099 169.87 273.608 169.361 273.608 168.739Z" fill="#FFEFDC"/>
<path d="M281.521 169.87C282.145 169.87 282.652 169.364 282.652 168.739C282.652 168.115 282.145 167.609 281.521 167.609C280.897 167.609 280.391 168.115 280.391 168.739C280.391 169.364 280.897 169.87 281.521 169.87Z" fill="#FFEFDC"/>
<path d="M272.478 169.87C273.102 169.87 273.609 169.364 273.609 168.739C273.609 168.115 273.102 167.609 272.478 167.609C271.854 167.609 271.348 168.115 271.348 168.739C271.348 169.364 271.854 169.87 272.478 169.87Z" fill="#FFEFDC"/>
<path d="M277 158C269.832 158 264 163.832 264 171C264 178.168 269.832 184 277 184C284.169 184 290 178.168 290 171C290 163.832 284.169 158 277 158ZM277 182.87C270.455 182.87 265.13 177.545 265.13 171C265.13 164.455 270.455 159.13 277 159.13C283.545 159.13 288.87 164.455 288.87 171C288.87 177.545 283.545 182.87 277 182.87Z" fill="#F28100"/>
<path d="M274.175 168.739C274.175 167.804 273.414 167.043 272.479 167.043C271.544 167.043 270.783 167.804 270.783 168.739C270.783 169.674 271.544 170.435 272.479 170.435C273.414 170.435 274.175 169.674 274.175 168.739ZM271.914 168.739C271.914 168.428 272.167 168.174 272.479 168.174C272.79 168.174 273.044 168.428 273.044 168.739C273.044 169.051 272.79 169.304 272.479 169.304C272.167 169.304 271.914 169.051 271.914 168.739Z" fill="#F28100"/>
<path d="M281.522 167.043C280.587 167.043 279.826 167.804 279.826 168.739C279.826 169.674 280.587 170.435 281.522 170.435C282.457 170.435 283.217 169.674 283.217 168.739C283.217 167.804 282.457 167.043 281.522 167.043ZM281.522 169.304C281.21 169.304 280.957 169.051 280.957 168.739C280.957 168.428 281.21 168.174 281.522 168.174C281.834 168.174 282.087 168.428 282.087 168.739C282.087 169.051 281.834 169.304 281.522 169.304Z" fill="#F28100"/>
<path fill-rule="evenodd" clip-rule="evenodd" d="M271.35 176C271.35 175.641 271.641 175.35 272 175.35H282C282.359 175.35 282.65 175.641 282.65 176C282.65 176.359 282.359 176.65 282 176.65H272C271.641 176.65 271.35 176.359 271.35 176Z" fill="#F28100"/>
<path d="M276.999 196.565C283.867 196.565 289.434 202.133 289.434 209C289.434 215.868 283.867 221.435 276.999 221.435C270.132 221.435 264.564 215.868 264.564 209C264.564 202.133 270.132 196.565 276.999 196.565ZM282.651 206.739C282.651 206.118 282.143 205.609 281.521 205.609C280.899 205.609 280.391 206.118 280.391 206.739C280.391 207.361 280.899 207.87 281.521 207.87C282.143 207.87 282.651 207.361 282.651 206.739ZM273.608 206.739C273.608 206.118 273.099 205.609 272.477 205.609C271.856 205.609 271.347 206.118 271.347 206.739C271.347 207.361 271.856 207.87 272.477 207.87C273.099 207.87 273.608 207.361 273.608 206.739Z" fill="#FFEFDC"/>
<path d="M281.521 207.87C282.145 207.87 282.652 207.364 282.652 206.739C282.652 206.115 282.145 205.609 281.521 205.609C280.897 205.609 280.391 206.115 280.391 206.739C280.391 207.364 280.897 207.87 281.521 207.87Z" fill="#FFEFDC"/>
<path d="M272.478 207.87C273.102 207.87 273.609 207.364 273.609 206.739C273.609 206.115 273.102 205.609 272.478 205.609C271.854 205.609 271.348 206.115 271.348 206.739C271.348 207.364 271.854 207.87 272.478 207.87Z" fill="#FFEFDC"/>
<path d="M277 196C269.832 196 264 201.832 264 209C264 216.168 269.832 222 277 222C284.169 222 290 216.168 290 209C290 201.832 284.169 196 277 196ZM277 220.87C270.455 220.87 265.13 215.545 265.13 209C265.13 202.455 270.455 197.13 277 197.13C283.545 197.13 288.87 202.455 288.87 209C288.87 215.545 283.545 220.87 277 220.87Z" fill="#F28100"/>
<path d="M274.175 206.739C274.175 205.804 273.414 205.043 272.479 205.043C271.544 205.043 270.783 205.804 270.783 206.739C270.783 207.674 271.544 208.435 272.479 208.435C273.414 208.435 274.175 207.674 274.175 206.739ZM271.914 206.739C271.914 206.428 272.167 206.174 272.479 206.174C272.79 206.174 273.044 206.428 273.044 206.739C273.044 207.051 272.79 207.304 272.479 207.304C272.167 207.304 271.914 207.051 271.914 206.739Z" fill="#F28100"/>
<path d="M281.522 205.043C280.587 205.043 279.826 205.804 279.826 206.739C279.826 207.674 280.587 208.435 281.522 208.435C282.457 208.435 283.217 207.674 283.217 206.739C283.217 205.804 282.457 205.043 281.522 205.043ZM281.522 207.304C281.21 207.304 280.957 207.051 280.957 206.739C280.957 206.428 281.21 206.174 281.522 206.174C281.834 206.174 282.087 206.428 282.087 206.739C282.087 207.051 281.834 207.304 281.522 207.304Z" fill="#F28100"/>
<path fill-rule="evenodd" clip-rule="evenodd" d="M271.35 214C271.35 213.641 271.641 213.35 272 213.35H282C282.359 213.35 282.65 213.641 282.65 214C282.65 214.359 282.359 214.65 282 214.65H272C271.641 214.65 271.35 214.359 271.35 214Z" fill="#F28100"/>
<path d="M563.999 235.565C570.867 235.565 576.434 241.133 576.434 248C576.434 254.868 570.867 260.435 563.999 260.435C557.132 260.435 551.564 254.868 551.564 248C551.564 241.133 557.132 235.565 563.999 235.565ZM569.651 245.739C569.651 245.118 569.143 244.609 568.521 244.609C567.899 244.609 567.391 245.118 567.391 245.739C567.391 246.361 567.899 246.87 568.521 246.87C569.143 246.87 569.651 246.361 569.651 245.739ZM560.608 245.739C560.608 245.118 560.099 244.609 559.477 244.609C558.856 244.609 558.347 245.118 558.347 245.739C558.347 246.361 558.856 246.87 559.477 246.87C560.099 246.87 560.608 246.361 560.608 245.739Z" fill="#FFEFDC"/>
<path d="M568.521 246.87C569.145 246.87 569.652 246.364 569.652 245.739C569.652 245.115 569.145 244.609 568.521 244.609C567.897 244.609 567.391 245.115 567.391 245.739C567.391 246.364 567.897 246.87 568.521 246.87Z" fill="#FFEFDC"/>
<path d="M559.478 246.87C560.102 246.87 560.609 246.364 560.609 245.739C560.609 245.115 560.102 244.609 559.478 244.609C558.854 244.609 558.348 245.115 558.348 245.739C558.348 246.364 558.854 246.87 559.478 246.87Z" fill="#FFEFDC"/>
<path d="M564 235C556.832 235 551 240.832 551 248C551 255.168 556.832 261 564 261C571.169 261 577 255.168 577 248C577 240.832 571.169 235 564 235ZM564 259.87C557.455 259.87 552.13 254.545 552.13 248C552.13 241.455 557.455 236.13 564 236.13C570.545 236.13 575.87 241.455 575.87 248C575.87 254.545 570.545 259.87 564 259.87Z" fill="#F28100"/>
<path d="M561.175 245.739C561.175 244.804 560.414 244.043 559.479 244.043C558.544 244.043 557.783 244.804 557.783 245.739C557.783 246.674 558.544 247.435 559.479 247.435C560.414 247.435 561.175 246.674 561.175 245.739ZM558.914 245.739C558.914 245.428 559.167 245.174 559.479 245.174C559.79 245.174 560.044 245.428 560.044 245.739C560.044 246.051 559.79 246.304 559.479 246.304C559.167 246.304 558.914 246.051 558.914 245.739Z" fill="#F28100"/>
<path d="M568.522 244.043C567.587 244.043 566.826 244.804 566.826 245.739C566.826 246.674 567.587 247.435 568.522 247.435C569.457 247.435 570.217 246.674 570.217 245.739C570.217 244.804 569.457 244.043 568.522 244.043ZM568.522 246.304C568.21 246.304 567.957 246.051 567.957 245.739C567.957 245.428 568.21 245.174 568.522 245.174C568.834 245.174 569.087 245.428 569.087 245.739C569.087 246.051 568.834 246.304 568.522 246.304Z" fill="#F28100"/>
<path fill-rule="evenodd" clip-rule="evenodd" d="M558.35 253C558.35 252.641 558.641 252.35 559 252.35H569C569.359 252.35 569.65 252.641 569.65 253C569.65 253.359 569.359 253.65 569 253.65H559C558.641 253.65 558.35 253.359 558.35 253Z" fill="#F28100"/>
<path d="M563.999 275.565C570.867 275.565 576.434 281.133 576.434 288C576.434 294.868 570.867 300.435 563.999 300.435C557.132 300.435 551.564 294.868 551.564 288C551.564 281.133 557.132 275.565 563.999 275.565ZM569.651 285.739C569.651 285.118 569.143 284.609 568.521 284.609C567.899 284.609 567.391 285.118 567.391 285.739C567.391 286.361 567.899 286.87 568.521 286.87C569.143 286.87 569.651 286.361 569.651 285.739ZM560.608 285.739C560.608 285.118 560.099 284.609 559.477 284.609C558.856 284.609 558.347 285.118 558.347 285.739C558.347 286.361 558.856 286.87 559.477 286.87C560.099 286.87 560.608 286.361 560.608 285.739Z" fill="#FFEFDC"/>
<path d="M568.521 286.87C569.145 286.87 569.652 286.364 569.652 285.739C569.652 285.115 569.145 284.609 568.521 284.609C567.897 284.609 567.391 285.115 567.391 285.739C567.391 286.364 567.897 286.87 568.521 286.87Z" fill="#FFEFDC"/>
<path d="M559.478 286.87C560.102 286.87 560.609 286.364 560.609 285.739C560.609 285.115 560.102 284.609 559.478 284.609C558.854 284.609 558.348 285.115 558.348 285.739C558.348 286.364 558.854 286.87 559.478 286.87Z" fill="#FFEFDC"/>
<path d="M564 275C556.832 275 551 280.832 551 288C551 295.168 556.832 301 564 301C571.169 301 577 295.168 577 288C577 280.832 571.169 275 564 275ZM564 299.87C557.455 299.87 552.13 294.545 552.13 288C552.13 281.455 557.455 276.13 564 276.13C570.545 276.13 575.87 281.455 575.87 288C575.87 294.545 570.545 299.87 564 299.87Z" fill="#F28100"/>
<path d="M561.175 285.739C561.175 284.804 560.414 284.043 559.479 284.043C558.544 284.043 557.783 284.804 557.783 285.739C557.783 286.674 558.544 287.435 559.479 287.435C560.414 287.435 561.175 286.674 561.175 285.739ZM558.914 285.739C558.914 285.428 559.167 285.174 559.479 285.174C559.79 285.174 560.044 285.428 560.044 285.739C560.044 286.051 559.79 286.304 559.479 286.304C559.167 286.304 558.914 286.051 558.914 285.739Z" fill="#F28100"/>
<path d="M568.522 284.043C567.587 284.043 566.826 284.804 566.826 285.739C566.826 286.674 567.587 287.435 568.522 287.435C569.457 287.435 570.217 286.674 570.217 285.739C570.217 284.804 569.457 284.043 568.522 284.043ZM568.522 286.304C568.21 286.304 567.957 286.051 567.957 285.739C567.957 285.428 568.21 285.174 568.522 285.174C568.834 285.174 569.087 285.428 569.087 285.739C569.087 286.051 568.834 286.304 568.522 286.304Z" fill="#F28100"/>
<path fill-rule="evenodd" clip-rule="evenodd" d="M558.35 293C558.35 292.641 558.641 292.35 559 292.35H569C569.359 292.35 569.65 292.641 569.65 293C569.65 293.359 569.359 293.65 569 293.65H559C558.641 293.65 558.35 293.359 558.35 293Z" fill="#F28100"/>
<path d="M276.999 314.565C283.867 314.565 289.434 320.133 289.434 327C289.434 333.868 283.867 339.435 276.999 339.435C270.132 339.435 264.564 333.868 264.564 327C264.564 320.133 270.132 314.565 276.999 314.565ZM282.651 324.739C282.651 324.118 282.143 323.609 281.521 323.609C280.899 323.609 280.391 324.118 280.391 324.739C280.391 325.361 280.899 325.87 281.521 325.87C282.143 325.87 282.651 325.361 282.651 324.739ZM273.608 324.739C273.608 324.118 273.099 323.609 272.477 323.609C271.856 323.609 271.347 324.118 271.347 324.739C271.347 325.361 271.856 325.87 272.477 325.87C273.099 325.87 273.608 325.361 273.608 324.739Z" fill="#FFEFDC"/>
<path d="M281.521 325.87C282.145 325.87 282.652 325.364 282.652 324.739C282.652 324.115 282.145 323.609 281.521 323.609C280.897 323.609 280.391 324.115 280.391 324.739C280.391 325.364 280.897 325.87 281.521 325.87Z" fill="#FFEFDC"/>
<path d="M272.478 325.87C273.102 325.87 273.609 325.364 273.609 324.739C273.609 324.115 273.102 323.609 272.478 323.609C271.854 323.609 271.348 324.115 271.348 324.739C271.348 325.364 271.854 325.87 272.478 325.87Z" fill="#FFEFDC"/>
<path d="M277 314C269.832 314 264 319.832 264 327C264 334.168 269.832 340 277 340C284.169 340 290 334.168 290 327C290 319.832 284.169 314 277 314ZM277 338.87C270.455 338.87 265.13 333.545 265.13 327C265.13 320.455 270.455 315.13 277 315.13C283.545 315.13 288.87 320.455 288.87 327C288.87 333.545 283.545 338.87 277 338.87Z" fill="#F28100"/>
<path d="M274.175 324.739C274.175 323.804 273.414 323.043 272.479 323.043C271.544 323.043 270.783 323.804 270.783 324.739C270.783 325.674 271.544 326.435 272.479 326.435C273.414 326.435 274.175 325.674 274.175 324.739ZM271.914 324.739C271.914 324.428 272.167 324.174 272.479 324.174C272.79 324.174 273.044 324.428 273.044 324.739C273.044 325.051 272.79 325.304 272.479 325.304C272.167 325.304 271.914 325.051 271.914 324.739Z" fill="#F28100"/>
<path d="M281.522 323.043C280.587 323.043 279.826 323.804 279.826 324.739C279.826 325.674 280.587 326.435 281.522 326.435C282.457 326.435 283.217 325.674 283.217 324.739C283.217 323.804 282.457 323.043 281.522 323.043ZM281.522 325.304C281.21 325.304 280.957 325.051 280.957 324.739C280.957 324.428 281.21 324.174 281.522 324.174C281.834 324.174 282.087 324.428 282.087 324.739C282.087 325.051 281.834 325.304 281.522 325.304Z" fill="#F28100"/>
<path fill-rule="evenodd" clip-rule="evenodd" d="M271.35 332C271.35 331.641 271.641 331.35 272 331.35H282C282.359 331.35 282.65 331.641 282.65 332C282.65 332.359 282.359 332.65 282 332.65H272C271.641 332.65 271.35 332.359 271.35 332Z" fill="#F28100"/>
<path d="M422.999 314.565C429.867 314.565 435.434 320.133 435.434 327C435.434 333.868 429.867 339.435 422.999 339.435C416.132 339.435 410.564 333.868 410.564 327C410.564 320.133 416.132 314.565 422.999 314.565ZM428.651 324.739C428.651 324.118 428.143 323.609 427.521 323.609C426.899 323.609 426.391 324.118 426.391 324.739C426.391 325.361 426.899 325.87 427.521 325.87C428.143 325.87 428.651 325.361 428.651 324.739ZM419.608 324.739C419.608 324.118 419.099 323.609 418.477 323.609C417.856 323.609 417.347 324.118 417.347 324.739C417.347 325.361 417.856 325.87 418.477 325.87C419.099 325.87 419.608 325.361 419.608 324.739Z" fill="#FFEFDC"/>
<path d="M427.521 325.87C428.145 325.87 428.652 325.364 428.652 324.739C428.652 324.115 428.145 323.609 427.521 323.609C426.897 323.609 426.391 324.115 426.391 324.739C426.391 325.364 426.897 325.87 427.521 325.87Z" fill="#FFEFDC"/>
<path d="M418.478 325.87C419.102 325.87 419.609 325.364 419.609 324.739C419.609 324.115 419.102 323.609 418.478 323.609C417.854 323.609 417.348 324.115 417.348 324.739C417.348 325.364 417.854 325.87 418.478 325.87Z" fill="#FFEFDC"/>
<path d="M423 314C415.832 314 410 319.832 410 327C410 334.168 415.832 340 423 340C430.169 340 436 334.168 436 327C436 319.832 430.169 314 423 314ZM423 338.87C416.455 338.87 411.13 333.545 411.13 327C411.13 320.455 416.455 315.13 423 315.13C429.545 315.13 434.87 320.455 434.87 327C434.87 333.545 429.545 338.87 423 338.87Z" fill="#F28100"/>
<path d="M420.175 324.739C420.175 323.804 419.414 323.043 418.479 323.043C417.544 323.043 416.783 323.804 416.783 324.739C416.783 325.674 417.544 326.435 418.479 326.435C419.414 326.435 420.175 325.674 420.175 324.739ZM417.914 324.739C417.914 324.428 418.167 324.174 418.479 324.174C418.79 324.174 419.044 324.428 419.044 324.739C419.044 325.051 418.79 325.304 418.479 325.304C418.167 325.304 417.914 325.051 417.914 324.739Z" fill="#F28100"/>
<path d="M427.522 323.043C426.587 323.043 425.826 323.804 425.826 324.739C425.826 325.674 426.587 326.435 427.522 326.435C428.457 326.435 429.217 325.674 429.217 324.739C429.217 323.804 428.457 323.043 427.522 323.043ZM427.522 325.304C427.21 325.304 426.957 325.051 426.957 324.739C426.957 324.428 427.21 324.174 427.522 324.174C427.834 324.174 428.087 324.428 428.087 324.739C428.087 325.051 427.834 325.304 427.522 325.304Z" fill="#F28100"/>
<path fill-rule="evenodd" clip-rule="evenodd" d="M417.35 332C417.35 331.641 417.641 331.35 418 331.35H428C428.359 331.35 428.65 331.641 428.65 332C428.65 332.359 428.359 332.65 428 332.65H418C417.641 332.65 417.35 332.359 417.35 332Z" fill="#F28100"/>
<path d="M422.999 353.565C429.867 353.565 435.434 359.133 435.434 366C435.434 372.868 429.867 378.435 422.999 378.435C416.132 378.435 410.564 372.868 410.564 366C410.564 359.133 416.132 353.565 422.999 353.565ZM428.651 363.739C428.651 363.118 428.143 362.609 427.521 362.609C426.899 362.609 426.391 363.118 426.391 363.739C426.391 364.361 426.899 364.87 427.521 364.87C428.143 364.87 428.651 364.361 428.651 363.739ZM419.608 363.739C419.608 363.118 419.099 362.609 418.477 362.609C417.856 362.609 417.347 363.118 417.347 363.739C417.347 364.361 417.856 364.87 418.477 364.87C419.099 364.87 419.608 364.361 419.608 363.739Z" fill="#FFEFDC"/>
<path d="M427.521 364.87C428.145 364.87 428.652 364.364 428.652 363.739C428.652 363.115 428.145 362.609 427.521 362.609C426.897 362.609 426.391 363.115 426.391 363.739C426.391 364.364 426.897 364.87 427.521 364.87Z" fill="#FFEFDC"/>
<path d="M418.478 364.87C419.102 364.87 419.609 364.364 419.609 363.739C419.609 363.115 419.102 362.609 418.478 362.609C417.854 362.609 417.348 363.115 417.348 363.739C417.348 364.364 417.854 364.87 418.478 364.87Z" fill="#FFEFDC"/>
<path d="M423 353C415.832 353 410 358.832 410 366C410 373.168 415.832 379 423 379C430.169 379 436 373.168 436 366C436 358.832 430.169 353 423 353ZM423 377.87C416.455 377.87 411.13 372.545 411.13 366C411.13 359.455 416.455 354.13 423 354.13C429.545 354.13 434.87 359.455 434.87 366C434.87 372.545 429.545 377.87 423 377.87Z" fill="#F28100"/>
<path d="M420.175 363.739C420.175 362.804 419.414 362.043 418.479 362.043C417.544 362.043 416.783 362.804 416.783 363.739C416.783 364.674 417.544 365.435 418.479 365.435C419.414 365.435 420.175 364.674 420.175 363.739ZM417.914 363.739C417.914 363.428 418.167 363.174 418.479 363.174C418.79 363.174 419.044 363.428 419.044 363.739C419.044 364.051 418.79 364.304 418.479 364.304C418.167 364.304 417.914 364.051 417.914 363.739Z" fill="#F28100"/>
<path d="M427.522 362.043C426.587 362.043 425.826 362.804 425.826 363.739C425.826 364.674 426.587 365.435 427.522 365.435C428.457 365.435 429.217 364.674 429.217 363.739C429.217 362.804 428.457 362.043 427.522 362.043ZM427.522 364.304C427.21 364.304 426.957 364.051 426.957 363.739C426.957 363.428 427.21 363.174 427.522 363.174C427.834 363.174 428.087 363.428 428.087 363.739C428.087 364.051 427.834 364.304 427.522 364.304Z" fill="#F28100"/>
<path fill-rule="evenodd" clip-rule="evenodd" d="M417.35 371C417.35 370.641 417.641 370.35 418 370.35H428C428.359 370.35 428.65 370.641 428.65 371C428.65 371.359 428.359 371.65 428 371.65H418C417.641 371.65 417.35 371.359 417.35 371Z" fill="#F28100"/>
</svg>
