<svg width="712" height="458" viewBox="0 0 712 458" fill="none" xmlns="http://www.w3.org/2000/svg">
<path d="M67.5 72C67.5 69.5147 69.5147 67.5 72 67.5H205.5V106.5H67.5V72Z" fill="#F9F9FB" stroke="#DDDDE6"/>
<rect x="205.5" y="67.5" width="142" height="39" fill="#F9F9FB" stroke="#DDDDE6"/>
<rect x="347.5" y="67.5" width="142" height="39" fill="#F9F9FB" stroke="#DDDDE6"/>
<path d="M489.5 67.5H627C629.485 67.5 631.5 69.5147 631.5 72V106.5H489.5V67.5Z" fill="#F9F9FB" stroke="#DDDDE6"/>
<rect x="67.5" y="106.5" width="138" height="39" fill="white" stroke="#DDDDE6"/>
<rect x="67.5" y="145.5" width="138" height="39" fill="white" stroke="#DDDDE6"/>
<rect x="67.5" y="184.5" width="138" height="39" fill="white" stroke="#DDDDE6"/>
<rect x="67.5" y="223.5" width="138" height="39" fill="white" stroke="#DDDDE6"/>
<rect x="67.5" y="262.5" width="138" height="39" fill="white" stroke="#DDDDE6"/>
<rect x="67.5" y="301.5" width="138" height="39" fill="white" stroke="#DDDDE6"/>
<path d="M67.5 340.5H205.5V379.5H72C69.5147 379.5 67.5 377.485 67.5 375V340.5Z" fill="white" stroke="#DDDDE6"/>
<rect x="205.5" y="106.5" width="142" height="39" fill="white" stroke="#DDDDE6"/>
<rect x="205.5" y="145.5" width="142" height="39" fill="white" stroke="#DDDDE6"/>
<rect x="205.5" y="184.5" width="142" height="39" fill="white" stroke="#DDDDE6"/>
<rect x="205.5" y="223.5" width="142" height="39" fill="white" stroke="#DDDDE6"/>
<rect x="205.5" y="262.5" width="142" height="39" fill="white" stroke="#DDDDE6"/>
<rect x="205.5" y="301.5" width="142" height="39" fill="white" stroke="#DDDDE6"/>
<rect x="205.5" y="340.5" width="142" height="39" fill="white" stroke="#DDDDE6"/>
<rect x="347.5" y="106.5" width="142" height="39" fill="white" stroke="#DDDDE6"/>
<rect x="347.5" y="145.5" width="142" height="39" fill="white" stroke="#DDDDE6"/>
<rect x="347.5" y="184.5" width="142" height="39" fill="white" stroke="#DDDDE6"/>
<rect x="347.5" y="223.5" width="142" height="39" fill="white" stroke="#DDDDE6"/>
<rect x="347.5" y="262.5" width="142" height="39" fill="white" stroke="#DDDDE6"/>
<rect x="489.5" y="262.5" width="142" height="39" fill="white" stroke="#DDDDE6"/>
<rect x="347.5" y="301.5" width="142" height="39" fill="white" stroke="#DDDDE6"/>
<rect x="489.5" y="301.5" width="142" height="39" fill="white" stroke="#DDDDE6"/>
<rect x="347.5" y="340.5" width="142" height="39" fill="white" stroke="#DDDDE6"/>
<rect x="489.5" y="106.5" width="142" height="39" fill="white" stroke="#DDDDE6"/>
<rect x="489.5" y="145.5" width="142" height="39" fill="white" stroke="#DDDDE6"/>
<rect x="489.5" y="184.5" width="142" height="39" fill="white" stroke="#DDDDE6"/>
<rect x="489.5" y="223.5" width="142" height="39" fill="white" stroke="#DDDDE6"/>
<path d="M489.5 340.5H631.5V375C631.5 377.485 629.485 379.5 627 379.5H489.5V340.5Z" fill="white" stroke="#DDDDE6"/>
<path d="M96.96 80.4H98.814V93H96.762V84.18L92.784 90.156H91.56L87.582 84.162V93H85.53V80.4H87.384L92.172 87.618L96.96 80.4ZM108.775 91.002C108.775 91.422 108.985 91.632 109.405 91.632C109.549 91.632 109.741 91.596 109.981 91.524V92.91C109.621 93.054 109.213 93.126 108.757 93.126C107.893 93.126 107.317 92.79 107.029 92.118C106.105 92.862 105.019 93.234 103.771 93.234C102.931 93.234 102.217 93.006 101.629 92.55C101.041 92.082 100.747 91.428 100.747 90.588C100.747 89.58 101.125 88.848 101.881 88.392C102.637 87.924 103.543 87.69 104.599 87.69C105.295 87.69 106.045 87.774 106.849 87.942V87.636C106.849 87.084 106.651 86.64 106.255 86.304C105.859 85.968 105.301 85.8 104.581 85.8C103.513 85.8 102.475 86.022 101.467 86.466V84.702C102.595 84.318 103.699 84.126 104.779 84.126C106.039 84.126 107.017 84.438 107.713 85.062C108.421 85.686 108.775 86.634 108.775 87.906V91.002ZM104.977 89.04C104.341 89.04 103.807 89.154 103.375 89.382C102.943 89.61 102.727 89.97 102.727 90.462C102.727 90.87 102.883 91.188 103.195 91.416C103.507 91.632 103.891 91.74 104.347 91.74C105.331 91.74 106.165 91.398 106.849 90.714V89.256C106.153 89.112 105.529 89.04 104.977 89.04ZM113.359 93H111.433V84.36H117.877V86.052H113.359V93ZM126.617 91.002C126.617 91.422 126.827 91.632 127.247 91.632C127.391 91.632 127.583 91.596 127.823 91.524V92.91C127.463 93.054 127.055 93.126 126.599 93.126C125.735 93.126 125.159 92.79 124.871 92.118C123.947 92.862 122.861 93.234 121.613 93.234C120.773 93.234 120.059 93.006 119.471 92.55C118.883 92.082 118.589 91.428 118.589 90.588C118.589 89.58 118.967 88.848 119.723 88.392C120.479 87.924 121.385 87.69 122.441 87.69C123.137 87.69 123.887 87.774 124.691 87.942V87.636C124.691 87.084 124.493 86.64 124.097 86.304C123.701 85.968 123.143 85.8 122.423 85.8C121.355 85.8 120.317 86.022 119.309 86.466V84.702C120.437 84.318 121.541 84.126 122.621 84.126C123.881 84.126 124.859 84.438 125.555 85.062C126.263 85.686 126.617 86.634 126.617 87.906V91.002ZM122.819 89.04C122.183 89.04 121.649 89.154 121.217 89.382C120.785 89.61 120.569 89.97 120.569 90.462C120.569 90.87 120.725 91.188 121.037 91.416C121.349 91.632 121.733 91.74 122.189 91.74C123.173 91.74 124.007 91.398 124.691 90.714V89.256C123.995 89.112 123.371 89.04 122.819 89.04ZM136.042 90.642C136.042 91.422 135.688 92.052 134.98 92.532C134.284 93 133.288 93.234 131.992 93.234C130.732 93.234 129.652 93 128.752 92.532V90.876C129.604 91.356 130.6 91.596 131.74 91.596C133.312 91.596 134.098 91.2 134.098 90.408C134.098 89.7 133.498 89.346 132.298 89.346H130.534V87.87H132.298C133.378 87.87 133.918 87.546 133.918 86.898C133.918 86.526 133.732 86.244 133.36 86.052C132.988 85.848 132.484 85.746 131.848 85.746C130.768 85.746 129.79 85.98 128.914 86.448V84.792C129.862 84.336 130.918 84.108 132.082 84.108C133.342 84.108 134.284 84.342 134.908 84.81C135.544 85.278 135.862 85.89 135.862 86.646C135.862 87.138 135.724 87.552 135.448 87.888C135.172 88.224 134.8 88.452 134.332 88.572C134.848 88.716 135.262 88.968 135.574 89.328C135.886 89.676 136.042 90.114 136.042 90.642ZM139.632 93H137.976V84.36H139.902V90.012L144.528 84.36H146.184V93H144.258V87.348L139.632 93ZM150.519 93H148.593V84.36H150.519V87.834H154.839V84.36H156.765V93H154.839V89.526H150.519V93Z" fill="#454545"/>
<path d="M97.356 118.4H98.652V131H97.14V121.262L92.622 128.03H91.686L87.168 121.262V131H85.656V118.4H86.952L92.154 126.176L97.356 118.4ZM108.524 129.2C108.524 129.644 108.746 129.866 109.19 129.866C109.382 129.866 109.604 129.824 109.856 129.74V130.91C109.496 131.042 109.136 131.108 108.776 131.108C107.948 131.108 107.42 130.76 107.192 130.064C106.268 130.832 105.146 131.216 103.826 131.216C102.986 131.216 102.266 130.994 101.666 130.55C101.078 130.094 100.784 129.44 100.784 128.588C100.784 127.568 101.162 126.83 101.918 126.374C102.686 125.906 103.61 125.672 104.69 125.672C105.482 125.672 106.28 125.762 107.084 125.942V125.636C107.084 124.976 106.868 124.454 106.436 124.07C106.004 123.674 105.398 123.476 104.618 123.476C103.526 123.476 102.476 123.692 101.468 124.124V122.72C102.596 122.336 103.694 122.144 104.762 122.144C105.938 122.144 106.856 122.462 107.516 123.098C108.188 123.722 108.524 124.628 108.524 125.816V129.2ZM102.26 128.516C102.26 128.996 102.44 129.362 102.8 129.614C103.172 129.854 103.616 129.974 104.132 129.974C105.32 129.974 106.304 129.554 107.084 128.714V127.13C106.268 126.962 105.536 126.878 104.888 126.878C104.156 126.878 103.532 127.01 103.016 127.274C102.512 127.526 102.26 127.94 102.26 128.516ZM112.84 131H111.4V122.36H117.718V123.692H112.84V131ZM126.278 129.2C126.278 129.644 126.5 129.866 126.944 129.866C127.136 129.866 127.358 129.824 127.61 129.74V130.91C127.25 131.042 126.89 131.108 126.53 131.108C125.702 131.108 125.174 130.76 124.946 130.064C124.022 130.832 122.9 131.216 121.58 131.216C120.74 131.216 120.02 130.994 119.42 130.55C118.832 130.094 118.538 129.44 118.538 128.588C118.538 127.568 118.916 126.83 119.672 126.374C120.44 125.906 121.364 125.672 122.444 125.672C123.236 125.672 124.034 125.762 124.838 125.942V125.636C124.838 124.976 124.622 124.454 124.19 124.07C123.758 123.674 123.152 123.476 122.372 123.476C121.28 123.476 120.23 123.692 119.222 124.124V122.72C120.35 122.336 121.448 122.144 122.516 122.144C123.692 122.144 124.61 122.462 125.27 123.098C125.942 123.722 126.278 124.628 126.278 125.816V129.2ZM120.014 128.516C120.014 128.996 120.194 129.362 120.554 129.614C120.926 129.854 121.37 129.974 121.886 129.974C123.074 129.974 124.058 129.554 124.838 128.714V127.13C124.022 126.962 123.29 126.878 122.642 126.878C121.91 126.878 121.286 127.01 120.77 127.274C120.266 127.526 120.014 127.94 120.014 128.516ZM135.616 128.678C135.616 129.482 135.268 130.106 134.572 130.55C133.888 130.994 132.94 131.216 131.728 131.216C130.516 131.216 129.454 130.994 128.542 130.55V129.182C129.418 129.65 130.42 129.884 131.548 129.884C133.3 129.884 134.176 129.428 134.176 128.516C134.176 127.688 133.54 127.274 132.268 127.274H130.378V125.942H132.268C133.42 125.942 133.996 125.57 133.996 124.826C133.996 124.37 133.78 124.028 133.348 123.8C132.916 123.572 132.34 123.458 131.62 123.458C130.576 123.458 129.598 123.686 128.686 124.142V122.792C129.658 122.348 130.69 122.126 131.782 122.126C132.958 122.126 133.858 122.354 134.482 122.81C135.118 123.254 135.436 123.86 135.436 124.628C135.436 125.144 135.292 125.57 135.004 125.906C134.716 126.242 134.326 126.464 133.834 126.572C134.35 126.704 134.776 126.956 135.112 127.328C135.448 127.7 135.616 128.15 135.616 128.678ZM138.956 131H137.732V122.36H139.172V128.678L144.464 122.36H145.688V131H144.248V124.682L138.956 131ZM149.79 131H148.35V122.36H149.79V126.014H154.794V122.36H156.234V131H154.794V127.346H149.79V131ZM165.971 118.76H167.087V129.56H169.373V131H163.001V129.56H165.575V120.362L163.001 121.334V119.894L165.971 118.76Z" fill="#454545"/>
<path d="M262.18 121.874C262.18 119.894 260.524 118.544 258.022 118.544C256.492 118.544 255.25 118.85 254.152 119.408V120.884C255.34 120.254 256.528 119.948 257.824 119.948C259.696 119.948 260.722 120.74 260.722 122C260.722 123.134 259.858 123.98 258.076 123.98L256.366 123.962V125.402H258.238C259.894 125.402 261.226 125.924 261.226 127.598C261.226 129.2 259.876 129.794 258.076 129.794C256.456 129.812 255.178 129.56 253.936 128.912V130.406C255.142 130.946 256.456 131.216 258.202 131.216C260.65 131.216 262.684 130.046 262.684 127.67C262.684 125.798 261.442 124.898 260.398 124.574C261.442 124.214 262.18 123.134 262.18 121.874ZM270.747 131V124.484L273.555 128.75H274.635L277.443 124.484V131H278.811V122.36H277.245L274.095 127.148L270.945 122.36H269.379V131H270.747ZM282.949 131V122.36H281.509V131H282.949ZM283.165 119.606C283.165 119.012 282.733 118.688 282.229 118.688C281.725 118.688 281.293 119.012 281.293 119.606C281.293 120.218 281.725 120.524 282.229 120.524C282.733 120.524 283.165 120.218 283.165 119.606ZM285.062 126.716C285.062 129.794 287.42 131.216 289.688 131.216C290.768 131.216 291.686 131.018 292.496 130.622V129.182C291.776 129.614 290.822 129.884 289.886 129.884C288.194 129.884 286.502 128.894 286.502 126.68C286.502 124.412 288.248 123.476 289.922 123.476C290.84 123.476 291.758 123.746 292.406 124.25V122.846C291.668 122.36 290.714 122.144 289.742 122.144C287.492 122.144 285.062 123.566 285.062 126.716ZM296.081 130.244C296.081 129.65 295.649 129.344 295.145 129.344C294.641 129.344 294.191 129.65 294.191 130.244C294.191 130.856 294.641 131.162 295.145 131.162C295.649 131.162 296.081 130.856 296.081 130.244Z" fill="#454545"/>
<path d="M544.18 121.874C544.18 119.894 542.524 118.544 540.022 118.544C538.492 118.544 537.25 118.85 536.152 119.408V120.884C537.34 120.254 538.528 119.948 539.824 119.948C541.696 119.948 542.722 120.74 542.722 122C542.722 123.134 541.858 123.98 540.076 123.98L538.366 123.962V125.402H540.238C541.894 125.402 543.226 125.924 543.226 127.598C543.226 129.2 541.876 129.794 540.076 129.794C538.456 129.812 537.178 129.56 535.936 128.912V130.406C537.142 130.946 538.456 131.216 540.202 131.216C542.65 131.216 544.684 130.046 544.684 127.67C544.684 125.798 543.442 124.898 542.398 124.574C543.442 124.214 544.18 123.134 544.18 121.874ZM552.747 131V124.484L555.555 128.75H556.635L559.443 124.484V131H560.811V122.36H559.245L556.095 127.148L552.945 122.36H551.379V131H552.747ZM564.949 131V122.36H563.509V131H564.949ZM565.165 119.606C565.165 119.012 564.733 118.688 564.229 118.688C563.725 118.688 563.293 119.012 563.293 119.606C563.293 120.218 563.725 120.524 564.229 120.524C564.733 120.524 565.165 120.218 565.165 119.606ZM567.062 126.716C567.062 129.794 569.42 131.216 571.688 131.216C572.768 131.216 573.686 131.018 574.496 130.622V129.182C573.776 129.614 572.822 129.884 571.886 129.884C570.194 129.884 568.502 128.894 568.502 126.68C568.502 124.412 570.248 123.476 571.922 123.476C572.84 123.476 573.758 123.746 574.406 124.25V122.846C573.668 122.36 572.714 122.144 571.742 122.144C569.492 122.144 567.062 123.566 567.062 126.716ZM578.081 130.244C578.081 129.65 577.649 129.344 577.145 129.344C576.641 129.344 576.191 129.65 576.191 130.244C576.191 130.856 576.641 131.162 577.145 131.162C577.649 131.162 578.081 130.856 578.081 130.244Z" fill="#454545"/>
<path d="M400.128 118.76L393.45 126.932V128.282H400.272V131H401.766V128.282H404.07V126.878H401.766V118.76H400.128ZM400.272 126.878H395.304L400.272 120.794V126.878ZM411.784 131V124.484L414.592 128.75H415.672L418.48 124.484V131H419.848V122.36H418.282L415.132 127.148L411.982 122.36H410.416V131H411.784ZM423.986 131V122.36H422.546V131H423.986ZM424.202 119.606C424.202 119.012 423.77 118.688 423.266 118.688C422.762 118.688 422.33 119.012 422.33 119.606C422.33 120.218 422.762 120.524 423.266 120.524C423.77 120.524 424.202 120.218 424.202 119.606ZM426.099 126.716C426.099 129.794 428.457 131.216 430.725 131.216C431.805 131.216 432.723 131.018 433.533 130.622V129.182C432.813 129.614 431.859 129.884 430.923 129.884C429.231 129.884 427.539 128.894 427.539 126.68C427.539 124.412 429.285 123.476 430.959 123.476C431.877 123.476 432.795 123.746 433.443 124.25V122.846C432.705 122.36 431.751 122.144 430.779 122.144C428.529 122.144 426.099 123.566 426.099 126.716ZM437.118 130.244C437.118 129.65 436.686 129.344 436.182 129.344C435.678 129.344 435.228 129.65 435.228 130.244C435.228 130.856 435.678 131.162 436.182 131.162C436.686 131.162 437.118 130.856 437.118 130.244Z" fill="#454545"/>
<path d="M262.18 199.874C262.18 197.894 260.524 196.544 258.022 196.544C256.492 196.544 255.25 196.85 254.152 197.408V198.884C255.34 198.254 256.528 197.948 257.824 197.948C259.696 197.948 260.722 198.74 260.722 200C260.722 201.134 259.858 201.98 258.076 201.98L256.366 201.962V203.402H258.238C259.894 203.402 261.226 203.924 261.226 205.598C261.226 207.2 259.876 207.794 258.076 207.794C256.456 207.812 255.178 207.56 253.936 206.912V208.406C255.142 208.946 256.456 209.216 258.202 209.216C260.65 209.216 262.684 208.046 262.684 205.67C262.684 203.798 261.442 202.898 260.398 202.574C261.442 202.214 262.18 201.134 262.18 199.874ZM270.747 209V202.484L273.555 206.75H274.635L277.443 202.484V209H278.811V200.36H277.245L274.095 205.148L270.945 200.36H269.379V209H270.747ZM282.949 209V200.36H281.509V209H282.949ZM283.165 197.606C283.165 197.012 282.733 196.688 282.229 196.688C281.725 196.688 281.293 197.012 281.293 197.606C281.293 198.218 281.725 198.524 282.229 198.524C282.733 198.524 283.165 198.218 283.165 197.606ZM285.062 204.716C285.062 207.794 287.42 209.216 289.688 209.216C290.768 209.216 291.686 209.018 292.496 208.622V207.182C291.776 207.614 290.822 207.884 289.886 207.884C288.194 207.884 286.502 206.894 286.502 204.68C286.502 202.412 288.248 201.476 289.922 201.476C290.84 201.476 291.758 201.746 292.406 202.25V200.846C291.668 200.36 290.714 200.144 289.742 200.144C287.492 200.144 285.062 201.566 285.062 204.716ZM296.081 208.244C296.081 207.65 295.649 207.344 295.145 207.344C294.641 207.344 294.191 207.65 294.191 208.244C294.191 208.856 294.641 209.162 295.145 209.162C295.649 209.162 296.081 208.856 296.081 208.244Z" fill="#454545"/>
<path d="M536.692 196.76L536.296 203.33C537.232 202.988 538.384 202.754 539.464 202.754C541.372 202.754 543.1 203.312 543.1 205.31C543.1 206.966 541.696 207.812 539.698 207.812C538.384 207.812 536.998 207.506 535.954 206.948V208.388C537.016 208.91 538.456 209.216 539.878 209.216C542.542 209.216 544.63 207.794 544.63 205.31C544.63 202.376 542.29 201.386 539.986 201.386C539.266 201.386 538.546 201.476 537.898 201.656L538.114 198.2H544.036V196.76H536.692ZM552.606 209V202.484L555.414 206.75H556.494L559.302 202.484V209H560.67V200.36H559.104L555.954 205.148L552.804 200.36H551.238V209H552.606ZM564.808 209V200.36H563.368V209H564.808ZM565.024 197.606C565.024 197.012 564.592 196.688 564.088 196.688C563.584 196.688 563.152 197.012 563.152 197.606C563.152 198.218 563.584 198.524 564.088 198.524C564.592 198.524 565.024 198.218 565.024 197.606ZM566.922 204.716C566.922 207.794 569.28 209.216 571.548 209.216C572.628 209.216 573.546 209.018 574.356 208.622V207.182C573.636 207.614 572.682 207.884 571.746 207.884C570.054 207.884 568.362 206.894 568.362 204.68C568.362 202.412 570.108 201.476 571.782 201.476C572.7 201.476 573.618 201.746 574.266 202.25V200.846C573.528 200.36 572.574 200.144 571.602 200.144C569.352 200.144 566.922 201.566 566.922 204.716ZM577.941 208.244C577.941 207.65 577.509 207.344 577.005 207.344C576.501 207.344 576.051 207.65 576.051 208.244C576.051 208.856 576.501 209.162 577.005 209.162C577.509 209.162 577.941 208.856 577.941 208.244Z" fill="#454545"/>
<path d="M262.18 316.874C262.18 314.894 260.524 313.544 258.022 313.544C256.492 313.544 255.25 313.85 254.152 314.408V315.884C255.34 315.254 256.528 314.948 257.824 314.948C259.696 314.948 260.722 315.74 260.722 317C260.722 318.134 259.858 318.98 258.076 318.98L256.366 318.962V320.402H258.238C259.894 320.402 261.226 320.924 261.226 322.598C261.226 324.2 259.876 324.794 258.076 324.794C256.456 324.812 255.178 324.56 253.936 323.912V325.406C255.142 325.946 256.456 326.216 258.202 326.216C260.65 326.216 262.684 325.046 262.684 322.67C262.684 320.798 261.442 319.898 260.398 319.574C261.442 319.214 262.18 318.134 262.18 316.874ZM270.747 326V319.484L273.555 323.75H274.635L277.443 319.484V326H278.811V317.36H277.245L274.095 322.148L270.945 317.36H269.379V326H270.747ZM282.949 326V317.36H281.509V326H282.949ZM283.165 314.606C283.165 314.012 282.733 313.688 282.229 313.688C281.725 313.688 281.293 314.012 281.293 314.606C281.293 315.218 281.725 315.524 282.229 315.524C282.733 315.524 283.165 315.218 283.165 314.606ZM285.062 321.716C285.062 324.794 287.42 326.216 289.688 326.216C290.768 326.216 291.686 326.018 292.496 325.622V324.182C291.776 324.614 290.822 324.884 289.886 324.884C288.194 324.884 286.502 323.894 286.502 321.68C286.502 319.412 288.248 318.476 289.922 318.476C290.84 318.476 291.758 318.746 292.406 319.25V317.846C291.668 317.36 290.714 317.144 289.742 317.144C287.492 317.144 285.062 318.566 285.062 321.716ZM296.081 325.244C296.081 324.65 295.649 324.344 295.145 324.344C294.641 324.344 294.191 324.65 294.191 325.244C294.191 325.856 294.641 326.162 295.145 326.162C295.649 326.162 296.081 325.856 296.081 325.244Z" fill="#454545"/>
<path d="M536.314 316.712C536.314 317.936 537.016 318.764 537.97 319.34C536.53 320.186 535.882 321.518 535.882 322.634C535.882 324.506 537.538 326.216 540.886 326.216C544.324 326.216 545.764 324.578 545.764 322.886C545.764 321.446 544.828 320.582 543.658 320.006C544.828 319.196 545.368 318.026 545.332 316.91C545.278 315.146 543.604 313.544 540.778 313.544C537.646 313.544 536.314 315.164 536.314 316.712ZM540.958 320.492C542.65 320.996 544.252 321.374 544.252 322.958C544.252 324.074 542.83 324.812 540.922 324.812C538.6 324.812 537.394 323.912 537.394 322.472C537.394 321.572 537.988 320.564 539.248 319.952C539.824 320.168 540.418 320.348 540.958 320.492ZM543.82 317.18C543.82 318.008 543.352 318.872 542.38 319.502C541.858 319.34 541.336 319.214 540.886 319.088C539.482 318.656 537.826 318.278 537.826 316.694C537.826 315.722 538.906 314.948 540.742 314.948C542.758 314.948 543.82 315.974 543.82 317.18ZM553.837 326V319.484L556.645 323.75H557.725L560.533 319.484V326H561.901V317.36H560.335L557.185 322.148L554.035 317.36H552.469V326H553.837ZM566.038 326V317.36H564.598V326H566.038ZM566.254 314.606C566.254 314.012 565.822 313.688 565.318 313.688C564.814 313.688 564.382 314.012 564.382 314.606C564.382 315.218 564.814 315.524 565.318 315.524C565.822 315.524 566.254 315.218 566.254 314.606ZM568.152 321.716C568.152 324.794 570.51 326.216 572.778 326.216C573.858 326.216 574.776 326.018 575.586 325.622V324.182C574.866 324.614 573.912 324.884 572.976 324.884C571.284 324.884 569.592 323.894 569.592 321.68C569.592 319.412 571.338 318.476 573.012 318.476C573.93 318.476 574.848 318.746 575.496 319.25V317.846C574.758 317.36 573.804 317.144 572.832 317.144C570.582 317.144 568.152 318.566 568.152 321.716ZM579.171 325.244C579.171 324.65 578.739 324.344 578.235 324.344C577.731 324.344 577.281 324.65 577.281 325.244C577.281 325.856 577.731 326.162 578.235 326.162C578.739 326.162 579.171 325.856 579.171 325.244Z" fill="#454545"/>
<path d="M402.18 316.874C402.18 314.894 400.524 313.544 398.022 313.544C396.492 313.544 395.25 313.85 394.152 314.408V315.884C395.34 315.254 396.528 314.948 397.824 314.948C399.696 314.948 400.722 315.74 400.722 317C400.722 318.134 399.858 318.98 398.076 318.98L396.366 318.962V320.402H398.238C399.894 320.402 401.226 320.924 401.226 322.598C401.226 324.2 399.876 324.794 398.076 324.794C396.456 324.812 395.178 324.56 393.936 323.912V325.406C395.142 325.946 396.456 326.216 398.202 326.216C400.65 326.216 402.684 325.046 402.684 322.67C402.684 320.798 401.442 319.898 400.398 319.574C401.442 319.214 402.18 318.134 402.18 316.874ZM410.747 326V319.484L413.555 323.75H414.635L417.443 319.484V326H418.811V317.36H417.245L414.095 322.148L410.945 317.36H409.379V326H410.747ZM422.949 326V317.36H421.509V326H422.949ZM423.165 314.606C423.165 314.012 422.733 313.688 422.229 313.688C421.725 313.688 421.293 314.012 421.293 314.606C421.293 315.218 421.725 315.524 422.229 315.524C422.733 315.524 423.165 315.218 423.165 314.606ZM425.062 321.716C425.062 324.794 427.42 326.216 429.688 326.216C430.768 326.216 431.686 326.018 432.496 325.622V324.182C431.776 324.614 430.822 324.884 429.886 324.884C428.194 324.884 426.502 323.894 426.502 321.68C426.502 319.412 428.248 318.476 429.922 318.476C430.84 318.476 431.758 318.746 432.406 319.25V317.846C431.668 317.36 430.714 317.144 429.742 317.144C427.492 317.144 425.062 318.566 425.062 321.716ZM436.081 325.244C436.081 324.65 435.649 324.344 435.145 324.344C434.641 324.344 434.191 324.65 434.191 325.244C434.191 325.856 434.641 326.162 435.145 326.162C435.649 326.162 436.081 325.856 436.081 325.244Z" fill="#454545"/>
<path d="M262.18 355.874C262.18 353.894 260.524 352.544 258.022 352.544C256.492 352.544 255.25 352.85 254.152 353.408V354.884C255.34 354.254 256.528 353.948 257.824 353.948C259.696 353.948 260.722 354.74 260.722 356C260.722 357.134 259.858 357.98 258.076 357.98L256.366 357.962V359.402H258.238C259.894 359.402 261.226 359.924 261.226 361.598C261.226 363.2 259.876 363.794 258.076 363.794C256.456 363.812 255.178 363.56 253.936 362.912V364.406C255.142 364.946 256.456 365.216 258.202 365.216C260.65 365.216 262.684 364.046 262.684 361.67C262.684 359.798 261.442 358.898 260.398 358.574C261.442 358.214 262.18 357.134 262.18 355.874ZM270.747 365V358.484L273.555 362.75H274.635L277.443 358.484V365H278.811V356.36H277.245L274.095 361.148L270.945 356.36H269.379V365H270.747ZM282.949 365V356.36H281.509V365H282.949ZM283.165 353.606C283.165 353.012 282.733 352.688 282.229 352.688C281.725 352.688 281.293 353.012 281.293 353.606C281.293 354.218 281.725 354.524 282.229 354.524C282.733 354.524 283.165 354.218 283.165 353.606ZM285.062 360.716C285.062 363.794 287.42 365.216 289.688 365.216C290.768 365.216 291.686 365.018 292.496 364.622V363.182C291.776 363.614 290.822 363.884 289.886 363.884C288.194 363.884 286.502 362.894 286.502 360.68C286.502 358.412 288.248 357.476 289.922 357.476C290.84 357.476 291.758 357.746 292.406 358.25V356.846C291.668 356.36 290.714 356.144 289.742 356.144C287.492 356.144 285.062 357.566 285.062 360.716ZM296.081 364.244C296.081 363.65 295.649 363.344 295.145 363.344C294.641 363.344 294.191 363.65 294.191 364.244C294.191 364.856 294.641 365.162 295.145 365.162C295.649 365.162 296.081 364.856 296.081 364.244Z" fill="#454545"/>
<path d="M544.18 355.874C544.18 353.894 542.524 352.544 540.022 352.544C538.492 352.544 537.25 352.85 536.152 353.408V354.884C537.34 354.254 538.528 353.948 539.824 353.948C541.696 353.948 542.722 354.74 542.722 356C542.722 357.134 541.858 357.98 540.076 357.98L538.366 357.962V359.402H540.238C541.894 359.402 543.226 359.924 543.226 361.598C543.226 363.2 541.876 363.794 540.076 363.794C538.456 363.812 537.178 363.56 535.936 362.912V364.406C537.142 364.946 538.456 365.216 540.202 365.216C542.65 365.216 544.684 364.046 544.684 361.67C544.684 359.798 543.442 358.898 542.398 358.574C543.442 358.214 544.18 357.134 544.18 355.874ZM552.747 365V358.484L555.555 362.75H556.635L559.443 358.484V365H560.811V356.36H559.245L556.095 361.148L552.945 356.36H551.379V365H552.747ZM564.949 365V356.36H563.509V365H564.949ZM565.165 353.606C565.165 353.012 564.733 352.688 564.229 352.688C563.725 352.688 563.293 353.012 563.293 353.606C563.293 354.218 563.725 354.524 564.229 354.524C564.733 354.524 565.165 354.218 565.165 353.606ZM567.062 360.716C567.062 363.794 569.42 365.216 571.688 365.216C572.768 365.216 573.686 365.018 574.496 364.622V363.182C573.776 363.614 572.822 363.884 571.886 363.884C570.194 363.884 568.502 362.894 568.502 360.68C568.502 358.412 570.248 357.476 571.922 357.476C572.84 357.476 573.758 357.746 574.406 358.25V356.846C573.668 356.36 572.714 356.144 571.742 356.144C569.492 356.144 567.062 357.566 567.062 360.716ZM578.081 364.244C578.081 363.65 577.649 363.344 577.145 363.344C576.641 363.344 576.191 363.65 576.191 364.244C576.191 364.856 576.641 365.162 577.145 365.162C577.649 365.162 578.081 364.856 578.081 364.244Z" fill="#454545"/>
<path d="M393.684 356.558C393.684 359.114 395.844 360.392 397.878 360.392C399.282 360.392 400.47 360.05 401.712 359.222C401.532 362.606 399.696 363.776 397.644 363.776C396.672 363.776 395.628 363.56 394.71 363.074V364.514C395.592 364.964 396.636 365.216 397.68 365.216C400.83 365.216 403.242 363.182 403.242 358.682C403.242 354.902 401.622 352.544 398.076 352.544C395.682 352.544 393.684 353.948 393.684 356.558ZM398.184 353.948C400.182 353.948 401.46 355.136 401.694 357.71C400.704 358.592 399.462 358.988 398.256 358.988C396.672 358.988 395.214 358.412 395.214 356.486C395.214 354.632 396.546 353.948 398.184 353.948ZM411.345 365V358.484L414.153 362.75H415.233L418.041 358.484V365H419.409V356.36H417.843L414.693 361.148L411.543 356.36H409.977V365H411.345ZM423.546 365V356.36H422.106V365H423.546ZM423.762 353.606C423.762 353.012 423.33 352.688 422.826 352.688C422.322 352.688 421.89 353.012 421.89 353.606C421.89 354.218 422.322 354.524 422.826 354.524C423.33 354.524 423.762 354.218 423.762 353.606ZM425.66 360.716C425.66 363.794 428.018 365.216 430.286 365.216C431.366 365.216 432.284 365.018 433.094 364.622V363.182C432.374 363.614 431.42 363.884 430.484 363.884C428.792 363.884 427.1 362.894 427.1 360.68C427.1 358.412 428.846 357.476 430.52 357.476C431.438 357.476 432.356 357.746 433.004 358.25V356.846C432.266 356.36 431.312 356.144 430.34 356.144C428.09 356.144 425.66 357.566 425.66 360.716ZM436.679 364.244C436.679 363.65 436.247 363.344 435.743 363.344C435.239 363.344 434.789 363.65 434.789 364.244C434.789 364.856 435.239 365.162 435.743 365.162C436.247 365.162 436.679 364.856 436.679 364.244Z" fill="#454545"/>
<path d="M253.684 239.558C253.684 242.114 255.844 243.392 257.878 243.392C259.282 243.392 260.47 243.05 261.712 242.222C261.532 245.606 259.696 246.776 257.644 246.776C256.672 246.776 255.628 246.56 254.71 246.074V247.514C255.592 247.964 256.636 248.216 257.68 248.216C260.83 248.216 263.242 246.182 263.242 241.682C263.242 237.902 261.622 235.544 258.076 235.544C255.682 235.544 253.684 236.948 253.684 239.558ZM258.184 236.948C260.182 236.948 261.46 238.136 261.694 240.71C260.704 241.592 259.462 241.988 258.256 241.988C256.672 241.988 255.214 241.412 255.214 239.486C255.214 237.632 256.546 236.948 258.184 236.948ZM271.345 248V241.484L274.153 245.75H275.233L278.041 241.484V248H279.409V239.36H277.843L274.693 244.148L271.543 239.36H269.977V248H271.345ZM283.546 248V239.36H282.106V248H283.546ZM283.762 236.606C283.762 236.012 283.33 235.688 282.826 235.688C282.322 235.688 281.89 236.012 281.89 236.606C281.89 237.218 282.322 237.524 282.826 237.524C283.33 237.524 283.762 237.218 283.762 236.606ZM285.66 243.716C285.66 246.794 288.018 248.216 290.286 248.216C291.366 248.216 292.284 248.018 293.094 247.622V246.182C292.374 246.614 291.42 246.884 290.484 246.884C288.792 246.884 287.1 245.894 287.1 243.68C287.1 241.412 288.846 240.476 290.52 240.476C291.438 240.476 292.356 240.746 293.004 241.25V239.846C292.266 239.36 291.312 239.144 290.34 239.144C288.09 239.144 285.66 240.566 285.66 243.716ZM296.679 247.244C296.679 246.65 296.247 246.344 295.743 246.344C295.239 246.344 294.789 246.65 294.789 247.244C294.789 247.856 295.239 248.162 295.743 248.162C296.247 248.162 296.679 247.856 296.679 247.244Z" fill="#454545"/>
<path d="M535.684 239.558C535.684 242.114 537.844 243.392 539.878 243.392C541.282 243.392 542.47 243.05 543.712 242.222C543.532 245.606 541.696 246.776 539.644 246.776C538.672 246.776 537.628 246.56 536.71 246.074V247.514C537.592 247.964 538.636 248.216 539.68 248.216C542.83 248.216 545.242 246.182 545.242 241.682C545.242 237.902 543.622 235.544 540.076 235.544C537.682 235.544 535.684 236.948 535.684 239.558ZM540.184 236.948C542.182 236.948 543.46 238.136 543.694 240.71C542.704 241.592 541.462 241.988 540.256 241.988C538.672 241.988 537.214 241.412 537.214 239.486C537.214 237.632 538.546 236.948 540.184 236.948ZM553.345 248V241.484L556.153 245.75H557.233L560.041 241.484V248H561.409V239.36H559.843L556.693 244.148L553.543 239.36H551.977V248H553.345ZM565.546 248V239.36H564.106V248H565.546ZM565.762 236.606C565.762 236.012 565.33 235.688 564.826 235.688C564.322 235.688 563.89 236.012 563.89 236.606C563.89 237.218 564.322 237.524 564.826 237.524C565.33 237.524 565.762 237.218 565.762 236.606ZM567.66 243.716C567.66 246.794 570.018 248.216 572.286 248.216C573.366 248.216 574.284 248.018 575.094 247.622V246.182C574.374 246.614 573.42 246.884 572.484 246.884C570.792 246.884 569.1 245.894 569.1 243.68C569.1 241.412 570.846 240.476 572.52 240.476C573.438 240.476 574.356 240.746 575.004 241.25V239.846C574.266 239.36 573.312 239.144 572.34 239.144C570.09 239.144 567.66 240.566 567.66 243.716ZM578.679 247.244C578.679 246.65 578.247 246.344 577.743 246.344C577.239 246.344 576.789 246.65 576.789 247.244C576.789 247.856 577.239 248.162 577.743 248.162C578.247 248.162 578.679 247.856 578.679 247.244Z" fill="#454545"/>
<path d="M400.128 235.76L393.45 243.932V245.282H400.272V248H401.766V245.282H404.07V243.878H401.766V235.76H400.128ZM400.272 243.878H395.304L400.272 237.794V243.878ZM411.784 248V241.484L414.592 245.75H415.672L418.48 241.484V248H419.848V239.36H418.282L415.132 244.148L411.982 239.36H410.416V248H411.784ZM423.986 248V239.36H422.546V248H423.986ZM424.202 236.606C424.202 236.012 423.77 235.688 423.266 235.688C422.762 235.688 422.33 236.012 422.33 236.606C422.33 237.218 422.762 237.524 423.266 237.524C423.77 237.524 424.202 237.218 424.202 236.606ZM426.099 243.716C426.099 246.794 428.457 248.216 430.725 248.216C431.805 248.216 432.723 248.018 433.533 247.622V246.182C432.813 246.614 431.859 246.884 430.923 246.884C429.231 246.884 427.539 245.894 427.539 243.68C427.539 241.412 429.285 240.476 430.959 240.476C431.877 240.476 432.795 240.746 433.443 241.25V239.846C432.705 239.36 431.751 239.144 430.779 239.144C428.529 239.144 426.099 240.566 426.099 243.716ZM437.118 247.244C437.118 246.65 436.686 246.344 436.182 246.344C435.678 246.344 435.228 246.65 435.228 247.244C435.228 247.856 435.678 248.162 436.182 248.162C436.686 248.162 437.118 247.856 437.118 247.244Z" fill="#454545"/>
<path d="M253.486 157.76V159.2H260.65L255.574 170H257.194L262.306 159.128V157.76H253.486ZM269.868 170V163.484L272.676 167.75H273.756L276.564 163.484V170H277.932V161.36H276.366L273.216 166.148L270.066 161.36H268.5V170H269.868ZM282.07 170V161.36H280.63V170H282.07ZM282.286 158.606C282.286 158.012 281.854 157.688 281.35 157.688C280.846 157.688 280.414 158.012 280.414 158.606C280.414 159.218 280.846 159.524 281.35 159.524C281.854 159.524 282.286 159.218 282.286 158.606ZM284.183 165.716C284.183 168.794 286.541 170.216 288.809 170.216C289.889 170.216 290.807 170.018 291.617 169.622V168.182C290.897 168.614 289.943 168.884 289.007 168.884C287.315 168.884 285.623 167.894 285.623 165.68C285.623 163.412 287.369 162.476 289.043 162.476C289.961 162.476 290.879 162.746 291.527 163.25V161.846C290.789 161.36 289.835 161.144 288.863 161.144C286.613 161.144 284.183 162.566 284.183 165.716ZM295.202 169.244C295.202 168.65 294.77 168.344 294.266 168.344C293.762 168.344 293.312 168.65 293.312 169.244C293.312 169.856 293.762 170.162 294.266 170.162C294.77 170.162 295.202 169.856 295.202 169.244Z" fill="#454545"/>
<path d="M537.466 163.538C537.646 160.154 539.482 158.984 541.534 158.984C542.506 158.984 543.55 159.2 544.468 159.686V158.246C543.586 157.796 542.542 157.544 541.498 157.544C538.348 157.544 535.936 159.578 535.936 164.078C535.936 167.858 537.556 170.216 541.102 170.216C543.496 170.216 545.494 168.812 545.494 166.202C545.494 163.646 543.334 162.368 541.3 162.368C539.896 162.368 538.708 162.71 537.466 163.538ZM537.484 165.05C538.474 164.168 539.716 163.772 540.922 163.772C542.506 163.772 543.964 164.348 543.964 166.274C543.964 168.128 542.632 168.812 540.994 168.812C538.996 168.812 537.718 167.624 537.484 165.05ZM553.362 170V163.484L556.17 167.75H557.25L560.058 163.484V170H561.426V161.36H559.86L556.71 166.148L553.56 161.36H551.994V170H553.362ZM565.564 170V161.36H564.124V170H565.564ZM565.78 158.606C565.78 158.012 565.348 157.688 564.844 157.688C564.34 157.688 563.908 158.012 563.908 158.606C563.908 159.218 564.34 159.524 564.844 159.524C565.348 159.524 565.78 159.218 565.78 158.606ZM567.677 165.716C567.677 168.794 570.035 170.216 572.303 170.216C573.383 170.216 574.301 170.018 575.111 169.622V168.182C574.391 168.614 573.437 168.884 572.501 168.884C570.809 168.884 569.117 167.894 569.117 165.68C569.117 163.412 570.863 162.476 572.537 162.476C573.455 162.476 574.373 162.746 575.021 163.25V161.846C574.283 161.36 573.329 161.144 572.357 161.144C570.107 161.144 567.677 162.566 567.677 165.716ZM578.696 169.244C578.696 168.65 578.264 168.344 577.76 168.344C577.256 168.344 576.806 168.65 576.806 169.244C576.806 169.856 577.256 170.162 577.76 170.162C578.264 170.162 578.696 169.856 578.696 169.244Z" fill="#454545"/>
<path d="M395.466 163.538C395.646 160.154 397.482 158.984 399.534 158.984C400.506 158.984 401.55 159.2 402.468 159.686V158.246C401.586 157.796 400.542 157.544 399.498 157.544C396.348 157.544 393.936 159.578 393.936 164.078C393.936 167.858 395.556 170.216 399.102 170.216C401.496 170.216 403.494 168.812 403.494 166.202C403.494 163.646 401.334 162.368 399.3 162.368C397.896 162.368 396.708 162.71 395.466 163.538ZM395.484 165.05C396.474 164.168 397.716 163.772 398.922 163.772C400.506 163.772 401.964 164.348 401.964 166.274C401.964 168.128 400.632 168.812 398.994 168.812C396.996 168.812 395.718 167.624 395.484 165.05ZM411.362 170V163.484L414.17 167.75H415.25L418.058 163.484V170H419.426V161.36H417.86L414.71 166.148L411.56 161.36H409.994V170H411.362ZM423.564 170V161.36H422.124V170H423.564ZM423.78 158.606C423.78 158.012 423.348 157.688 422.844 157.688C422.34 157.688 421.908 158.012 421.908 158.606C421.908 159.218 422.34 159.524 422.844 159.524C423.348 159.524 423.78 159.218 423.78 158.606ZM425.677 165.716C425.677 168.794 428.035 170.216 430.303 170.216C431.383 170.216 432.301 170.018 433.111 169.622V168.182C432.391 168.614 431.437 168.884 430.501 168.884C428.809 168.884 427.117 167.894 427.117 165.68C427.117 163.412 428.863 162.476 430.537 162.476C431.455 162.476 432.373 162.746 433.021 163.25V161.846C432.283 161.36 431.329 161.144 430.357 161.144C428.107 161.144 425.677 162.566 425.677 165.716ZM436.696 169.244C436.696 168.65 436.264 168.344 435.76 168.344C435.256 168.344 434.806 168.65 434.806 169.244C434.806 169.856 435.256 170.162 435.76 170.162C436.264 170.162 436.696 169.856 436.696 169.244Z" fill="#454545"/>
<path d="M395.466 202.538C395.646 199.154 397.482 197.984 399.534 197.984C400.506 197.984 401.55 198.2 402.468 198.686V197.246C401.586 196.796 400.542 196.544 399.498 196.544C396.348 196.544 393.936 198.578 393.936 203.078C393.936 206.858 395.556 209.216 399.102 209.216C401.496 209.216 403.494 207.812 403.494 205.202C403.494 202.646 401.334 201.368 399.3 201.368C397.896 201.368 396.708 201.71 395.466 202.538ZM395.484 204.05C396.474 203.168 397.716 202.772 398.922 202.772C400.506 202.772 401.964 203.348 401.964 205.274C401.964 207.128 400.632 207.812 398.994 207.812C396.996 207.812 395.718 206.624 395.484 204.05ZM411.362 209V202.484L414.17 206.75H415.25L418.058 202.484V209H419.426V200.36H417.86L414.71 205.148L411.56 200.36H409.994V209H411.362ZM423.564 209V200.36H422.124V209H423.564ZM423.78 197.606C423.78 197.012 423.348 196.688 422.844 196.688C422.34 196.688 421.908 197.012 421.908 197.606C421.908 198.218 422.34 198.524 422.844 198.524C423.348 198.524 423.78 198.218 423.78 197.606ZM425.677 204.716C425.677 207.794 428.035 209.216 430.303 209.216C431.383 209.216 432.301 209.018 433.111 208.622V207.182C432.391 207.614 431.437 207.884 430.501 207.884C428.809 207.884 427.117 206.894 427.117 204.68C427.117 202.412 428.863 201.476 430.537 201.476C431.455 201.476 432.373 201.746 433.021 202.25V200.846C432.283 200.36 431.329 200.144 430.357 200.144C428.107 200.144 425.677 201.566 425.677 204.716ZM436.696 208.244C436.696 207.65 436.264 207.344 435.76 207.344C435.256 207.344 434.806 207.65 434.806 208.244C434.806 208.856 435.256 209.162 435.76 209.162C436.264 209.162 436.696 208.856 436.696 208.244Z" fill="#454545"/>
<path d="M255.466 280.538C255.646 277.154 257.482 275.984 259.534 275.984C260.506 275.984 261.55 276.2 262.468 276.686V275.246C261.586 274.796 260.542 274.544 259.498 274.544C256.348 274.544 253.936 276.578 253.936 281.078C253.936 284.858 255.556 287.216 259.102 287.216C261.496 287.216 263.494 285.812 263.494 283.202C263.494 280.646 261.334 279.368 259.3 279.368C257.896 279.368 256.708 279.71 255.466 280.538ZM255.484 282.05C256.474 281.168 257.716 280.772 258.922 280.772C260.506 280.772 261.964 281.348 261.964 283.274C261.964 285.128 260.632 285.812 258.994 285.812C256.996 285.812 255.718 284.624 255.484 282.05ZM271.362 287V280.484L274.17 284.75H275.25L278.058 280.484V287H279.426V278.36H277.86L274.71 283.148L271.56 278.36H269.994V287H271.362ZM283.564 287V278.36H282.124V287H283.564ZM283.78 275.606C283.78 275.012 283.348 274.688 282.844 274.688C282.34 274.688 281.908 275.012 281.908 275.606C281.908 276.218 282.34 276.524 282.844 276.524C283.348 276.524 283.78 276.218 283.78 275.606ZM285.677 282.716C285.677 285.794 288.035 287.216 290.303 287.216C291.383 287.216 292.301 287.018 293.111 286.622V285.182C292.391 285.614 291.437 285.884 290.501 285.884C288.809 285.884 287.117 284.894 287.117 282.68C287.117 280.412 288.863 279.476 290.537 279.476C291.455 279.476 292.373 279.746 293.021 280.25V278.846C292.283 278.36 291.329 278.144 290.357 278.144C288.107 278.144 285.677 279.566 285.677 282.716ZM296.696 286.244C296.696 285.65 296.264 285.344 295.76 285.344C295.256 285.344 294.806 285.65 294.806 286.244C294.806 286.856 295.256 287.162 295.76 287.162C296.264 287.162 296.696 286.856 296.696 286.244Z" fill="#454545"/>
<path d="M536.692 274.76L536.296 281.33C537.232 280.988 538.384 280.754 539.464 280.754C541.372 280.754 543.1 281.312 543.1 283.31C543.1 284.966 541.696 285.812 539.698 285.812C538.384 285.812 536.998 285.506 535.954 284.948V286.388C537.016 286.91 538.456 287.216 539.878 287.216C542.542 287.216 544.63 285.794 544.63 283.31C544.63 280.376 542.29 279.386 539.986 279.386C539.266 279.386 538.546 279.476 537.898 279.656L538.114 276.2H544.036V274.76H536.692ZM552.606 287V280.484L555.414 284.75H556.494L559.302 280.484V287H560.67V278.36H559.104L555.954 283.148L552.804 278.36H551.238V287H552.606ZM564.808 287V278.36H563.368V287H564.808ZM565.024 275.606C565.024 275.012 564.592 274.688 564.088 274.688C563.584 274.688 563.152 275.012 563.152 275.606C563.152 276.218 563.584 276.524 564.088 276.524C564.592 276.524 565.024 276.218 565.024 275.606ZM566.922 282.716C566.922 285.794 569.28 287.216 571.548 287.216C572.628 287.216 573.546 287.018 574.356 286.622V285.182C573.636 285.614 572.682 285.884 571.746 285.884C570.054 285.884 568.362 284.894 568.362 282.68C568.362 280.412 570.108 279.476 571.782 279.476C572.7 279.476 573.618 279.746 574.266 280.25V278.846C573.528 278.36 572.574 278.144 571.602 278.144C569.352 278.144 566.922 279.566 566.922 282.716ZM577.941 286.244C577.941 285.65 577.509 285.344 577.005 285.344C576.501 285.344 576.051 285.65 576.051 286.244C576.051 286.856 576.501 287.162 577.005 287.162C577.509 287.162 577.941 286.856 577.941 286.244Z" fill="#454545"/>
<path d="M402.18 277.874C402.18 275.894 400.524 274.544 398.022 274.544C396.492 274.544 395.25 274.85 394.152 275.408V276.884C395.34 276.254 396.528 275.948 397.824 275.948C399.696 275.948 400.722 276.74 400.722 278C400.722 279.134 399.858 279.98 398.076 279.98L396.366 279.962V281.402H398.238C399.894 281.402 401.226 281.924 401.226 283.598C401.226 285.2 399.876 285.794 398.076 285.794C396.456 285.812 395.178 285.56 393.936 284.912V286.406C395.142 286.946 396.456 287.216 398.202 287.216C400.65 287.216 402.684 286.046 402.684 283.67C402.684 281.798 401.442 280.898 400.398 280.574C401.442 280.214 402.18 279.134 402.18 277.874ZM410.747 287V280.484L413.555 284.75H414.635L417.443 280.484V287H418.811V278.36H417.245L414.095 283.148L410.945 278.36H409.379V287H410.747ZM422.949 287V278.36H421.509V287H422.949ZM423.165 275.606C423.165 275.012 422.733 274.688 422.229 274.688C421.725 274.688 421.293 275.012 421.293 275.606C421.293 276.218 421.725 276.524 422.229 276.524C422.733 276.524 423.165 276.218 423.165 275.606ZM425.062 282.716C425.062 285.794 427.42 287.216 429.688 287.216C430.768 287.216 431.686 287.018 432.496 286.622V285.182C431.776 285.614 430.822 285.884 429.886 285.884C428.194 285.884 426.502 284.894 426.502 282.68C426.502 280.412 428.248 279.476 429.922 279.476C430.84 279.476 431.758 279.746 432.406 280.25V278.846C431.668 278.36 430.714 278.144 429.742 278.144C427.492 278.144 425.062 279.566 425.062 282.716ZM436.081 286.244C436.081 285.65 435.649 285.344 435.145 285.344C434.641 285.344 434.191 285.65 434.191 286.244C434.191 286.856 434.641 287.162 435.145 287.162C435.649 287.162 436.081 286.856 436.081 286.244Z" fill="#454545"/>
<path d="M97.356 157.4H98.652V170H97.14V160.262L92.622 167.03H91.686L87.168 160.262V170H85.656V157.4H86.952L92.154 165.176L97.356 157.4ZM108.524 168.2C108.524 168.644 108.746 168.866 109.19 168.866C109.382 168.866 109.604 168.824 109.856 168.74V169.91C109.496 170.042 109.136 170.108 108.776 170.108C107.948 170.108 107.42 169.76 107.192 169.064C106.268 169.832 105.146 170.216 103.826 170.216C102.986 170.216 102.266 169.994 101.666 169.55C101.078 169.094 100.784 168.44 100.784 167.588C100.784 166.568 101.162 165.83 101.918 165.374C102.686 164.906 103.61 164.672 104.69 164.672C105.482 164.672 106.28 164.762 107.084 164.942V164.636C107.084 163.976 106.868 163.454 106.436 163.07C106.004 162.674 105.398 162.476 104.618 162.476C103.526 162.476 102.476 162.692 101.468 163.124V161.72C102.596 161.336 103.694 161.144 104.762 161.144C105.938 161.144 106.856 161.462 107.516 162.098C108.188 162.722 108.524 163.628 108.524 164.816V168.2ZM102.26 167.516C102.26 167.996 102.44 168.362 102.8 168.614C103.172 168.854 103.616 168.974 104.132 168.974C105.32 168.974 106.304 168.554 107.084 167.714V166.13C106.268 165.962 105.536 165.878 104.888 165.878C104.156 165.878 103.532 166.01 103.016 166.274C102.512 166.526 102.26 166.94 102.26 167.516ZM112.84 170H111.4V161.36H117.718V162.692H112.84V170ZM126.278 168.2C126.278 168.644 126.5 168.866 126.944 168.866C127.136 168.866 127.358 168.824 127.61 168.74V169.91C127.25 170.042 126.89 170.108 126.53 170.108C125.702 170.108 125.174 169.76 124.946 169.064C124.022 169.832 122.9 170.216 121.58 170.216C120.74 170.216 120.02 169.994 119.42 169.55C118.832 169.094 118.538 168.44 118.538 167.588C118.538 166.568 118.916 165.83 119.672 165.374C120.44 164.906 121.364 164.672 122.444 164.672C123.236 164.672 124.034 164.762 124.838 164.942V164.636C124.838 163.976 124.622 163.454 124.19 163.07C123.758 162.674 123.152 162.476 122.372 162.476C121.28 162.476 120.23 162.692 119.222 163.124V161.72C120.35 161.336 121.448 161.144 122.516 161.144C123.692 161.144 124.61 161.462 125.27 162.098C125.942 162.722 126.278 163.628 126.278 164.816V168.2ZM120.014 167.516C120.014 167.996 120.194 168.362 120.554 168.614C120.926 168.854 121.37 168.974 121.886 168.974C123.074 168.974 124.058 168.554 124.838 167.714V166.13C124.022 165.962 123.29 165.878 122.642 165.878C121.91 165.878 121.286 166.01 120.77 166.274C120.266 166.526 120.014 166.94 120.014 167.516ZM135.616 167.678C135.616 168.482 135.268 169.106 134.572 169.55C133.888 169.994 132.94 170.216 131.728 170.216C130.516 170.216 129.454 169.994 128.542 169.55V168.182C129.418 168.65 130.42 168.884 131.548 168.884C133.3 168.884 134.176 168.428 134.176 167.516C134.176 166.688 133.54 166.274 132.268 166.274H130.378V164.942H132.268C133.42 164.942 133.996 164.57 133.996 163.826C133.996 163.37 133.78 163.028 133.348 162.8C132.916 162.572 132.34 162.458 131.62 162.458C130.576 162.458 129.598 162.686 128.686 163.142V161.792C129.658 161.348 130.69 161.126 131.782 161.126C132.958 161.126 133.858 161.354 134.482 161.81C135.118 162.254 135.436 162.86 135.436 163.628C135.436 164.144 135.292 164.57 135.004 164.906C134.716 165.242 134.326 165.464 133.834 165.572C134.35 165.704 134.776 165.956 135.112 166.328C135.448 166.7 135.616 167.15 135.616 167.678ZM138.956 170H137.732V161.36H139.172V167.678L144.464 161.36H145.688V170H144.248V163.682L138.956 170ZM149.79 170H148.35V161.36H149.79V165.014H154.794V161.36H156.234V170H154.794V166.346H149.79V170ZM163.271 158.732C164.411 157.94 165.719 157.544 167.195 157.544C168.467 157.544 169.481 157.832 170.237 158.408C170.993 158.984 171.371 159.788 171.371 160.82C171.371 161.312 171.275 161.774 171.083 162.206C170.903 162.638 170.627 163.034 170.255 163.394C169.895 163.754 169.541 164.06 169.193 164.312C168.857 164.552 168.431 164.822 167.915 165.122C167.855 165.158 167.669 165.266 167.357 165.446C167.057 165.626 166.865 165.74 166.781 165.788C166.709 165.836 166.541 165.944 166.277 166.112C166.025 166.268 165.857 166.382 165.773 166.454C165.701 166.526 165.569 166.64 165.377 166.796C165.197 166.952 165.071 167.084 164.999 167.192C164.939 167.3 164.855 167.438 164.747 167.606C164.651 167.762 164.585 167.918 164.549 168.074C164.513 168.23 164.495 168.398 164.495 168.578L171.461 168.56V170H162.839V169.28C162.839 168.608 162.947 168.002 163.163 167.462C163.379 166.91 163.685 166.442 164.081 166.058C164.489 165.662 164.891 165.332 165.287 165.068C165.683 164.792 166.145 164.498 166.673 164.186C166.793 164.126 166.883 164.078 166.943 164.042C168.035 163.406 168.749 162.92 169.085 162.584C169.601 162.056 169.859 161.462 169.859 160.802C169.859 160.202 169.613 159.746 169.121 159.434C168.641 159.11 167.957 158.948 167.069 158.948C165.773 158.948 164.507 159.38 163.271 160.244V158.732Z" fill="#454545"/>
<path d="M97.356 196.4H98.652V209H97.14V199.262L92.622 206.03H91.686L87.168 199.262V209H85.656V196.4H86.952L92.154 204.176L97.356 196.4ZM108.524 207.2C108.524 207.644 108.746 207.866 109.19 207.866C109.382 207.866 109.604 207.824 109.856 207.74V208.91C109.496 209.042 109.136 209.108 108.776 209.108C107.948 209.108 107.42 208.76 107.192 208.064C106.268 208.832 105.146 209.216 103.826 209.216C102.986 209.216 102.266 208.994 101.666 208.55C101.078 208.094 100.784 207.44 100.784 206.588C100.784 205.568 101.162 204.83 101.918 204.374C102.686 203.906 103.61 203.672 104.69 203.672C105.482 203.672 106.28 203.762 107.084 203.942V203.636C107.084 202.976 106.868 202.454 106.436 202.07C106.004 201.674 105.398 201.476 104.618 201.476C103.526 201.476 102.476 201.692 101.468 202.124V200.72C102.596 200.336 103.694 200.144 104.762 200.144C105.938 200.144 106.856 200.462 107.516 201.098C108.188 201.722 108.524 202.628 108.524 203.816V207.2ZM102.26 206.516C102.26 206.996 102.44 207.362 102.8 207.614C103.172 207.854 103.616 207.974 104.132 207.974C105.32 207.974 106.304 207.554 107.084 206.714V205.13C106.268 204.962 105.536 204.878 104.888 204.878C104.156 204.878 103.532 205.01 103.016 205.274C102.512 205.526 102.26 205.94 102.26 206.516ZM112.84 209H111.4V200.36H117.718V201.692H112.84V209ZM126.278 207.2C126.278 207.644 126.5 207.866 126.944 207.866C127.136 207.866 127.358 207.824 127.61 207.74V208.91C127.25 209.042 126.89 209.108 126.53 209.108C125.702 209.108 125.174 208.76 124.946 208.064C124.022 208.832 122.9 209.216 121.58 209.216C120.74 209.216 120.02 208.994 119.42 208.55C118.832 208.094 118.538 207.44 118.538 206.588C118.538 205.568 118.916 204.83 119.672 204.374C120.44 203.906 121.364 203.672 122.444 203.672C123.236 203.672 124.034 203.762 124.838 203.942V203.636C124.838 202.976 124.622 202.454 124.19 202.07C123.758 201.674 123.152 201.476 122.372 201.476C121.28 201.476 120.23 201.692 119.222 202.124V200.72C120.35 200.336 121.448 200.144 122.516 200.144C123.692 200.144 124.61 200.462 125.27 201.098C125.942 201.722 126.278 202.628 126.278 203.816V207.2ZM120.014 206.516C120.014 206.996 120.194 207.362 120.554 207.614C120.926 207.854 121.37 207.974 121.886 207.974C123.074 207.974 124.058 207.554 124.838 206.714V205.13C124.022 204.962 123.29 204.878 122.642 204.878C121.91 204.878 121.286 205.01 120.77 205.274C120.266 205.526 120.014 205.94 120.014 206.516ZM135.616 206.678C135.616 207.482 135.268 208.106 134.572 208.55C133.888 208.994 132.94 209.216 131.728 209.216C130.516 209.216 129.454 208.994 128.542 208.55V207.182C129.418 207.65 130.42 207.884 131.548 207.884C133.3 207.884 134.176 207.428 134.176 206.516C134.176 205.688 133.54 205.274 132.268 205.274H130.378V203.942H132.268C133.42 203.942 133.996 203.57 133.996 202.826C133.996 202.37 133.78 202.028 133.348 201.8C132.916 201.572 132.34 201.458 131.62 201.458C130.576 201.458 129.598 201.686 128.686 202.142V200.792C129.658 200.348 130.69 200.126 131.782 200.126C132.958 200.126 133.858 200.354 134.482 200.81C135.118 201.254 135.436 201.86 135.436 202.628C135.436 203.144 135.292 203.57 135.004 203.906C134.716 204.242 134.326 204.464 133.834 204.572C134.35 204.704 134.776 204.956 135.112 205.328C135.448 205.7 135.616 206.15 135.616 206.678ZM138.956 209H137.732V200.36H139.172V206.678L144.464 200.36H145.688V209H144.248V202.682L138.956 209ZM149.79 209H148.35V200.36H149.79V204.014H154.794V200.36H156.234V209H154.794V205.346H149.79V209ZM171.227 199.874C171.227 200.498 171.059 201.062 170.723 201.566C170.399 202.058 169.973 202.394 169.445 202.574C170.069 202.766 170.603 203.12 171.047 203.636C171.503 204.14 171.731 204.818 171.731 205.67C171.731 206.81 171.305 207.686 170.453 208.298C169.613 208.91 168.545 209.216 167.249 209.216C165.605 209.216 164.183 208.946 162.983 208.406V206.912C164.147 207.512 165.527 207.806 167.123 207.794C169.223 207.794 170.273 207.062 170.273 205.598C170.273 204.134 169.277 203.402 167.285 203.402H165.413V201.962L167.123 201.98C167.987 201.98 168.641 201.8 169.085 201.44C169.541 201.068 169.769 200.588 169.769 200C169.769 199.364 169.517 198.866 169.013 198.506C168.509 198.134 167.795 197.948 166.871 197.948C165.599 197.948 164.375 198.26 163.199 198.884V197.408C164.327 196.832 165.617 196.544 167.069 196.544C168.317 196.544 169.319 196.85 170.075 197.462C170.843 198.074 171.227 198.878 171.227 199.874Z" fill="#454545"/>
<path d="M97.356 235.4H98.652V248H97.14V238.262L92.622 245.03H91.686L87.168 238.262V248H85.656V235.4H86.952L92.154 243.176L97.356 235.4ZM108.524 246.2C108.524 246.644 108.746 246.866 109.19 246.866C109.382 246.866 109.604 246.824 109.856 246.74V247.91C109.496 248.042 109.136 248.108 108.776 248.108C107.948 248.108 107.42 247.76 107.192 247.064C106.268 247.832 105.146 248.216 103.826 248.216C102.986 248.216 102.266 247.994 101.666 247.55C101.078 247.094 100.784 246.44 100.784 245.588C100.784 244.568 101.162 243.83 101.918 243.374C102.686 242.906 103.61 242.672 104.69 242.672C105.482 242.672 106.28 242.762 107.084 242.942V242.636C107.084 241.976 106.868 241.454 106.436 241.07C106.004 240.674 105.398 240.476 104.618 240.476C103.526 240.476 102.476 240.692 101.468 241.124V239.72C102.596 239.336 103.694 239.144 104.762 239.144C105.938 239.144 106.856 239.462 107.516 240.098C108.188 240.722 108.524 241.628 108.524 242.816V246.2ZM102.26 245.516C102.26 245.996 102.44 246.362 102.8 246.614C103.172 246.854 103.616 246.974 104.132 246.974C105.32 246.974 106.304 246.554 107.084 245.714V244.13C106.268 243.962 105.536 243.878 104.888 243.878C104.156 243.878 103.532 244.01 103.016 244.274C102.512 244.526 102.26 244.94 102.26 245.516ZM112.84 248H111.4V239.36H117.718V240.692H112.84V248ZM126.278 246.2C126.278 246.644 126.5 246.866 126.944 246.866C127.136 246.866 127.358 246.824 127.61 246.74V247.91C127.25 248.042 126.89 248.108 126.53 248.108C125.702 248.108 125.174 247.76 124.946 247.064C124.022 247.832 122.9 248.216 121.58 248.216C120.74 248.216 120.02 247.994 119.42 247.55C118.832 247.094 118.538 246.44 118.538 245.588C118.538 244.568 118.916 243.83 119.672 243.374C120.44 242.906 121.364 242.672 122.444 242.672C123.236 242.672 124.034 242.762 124.838 242.942V242.636C124.838 241.976 124.622 241.454 124.19 241.07C123.758 240.674 123.152 240.476 122.372 240.476C121.28 240.476 120.23 240.692 119.222 241.124V239.72C120.35 239.336 121.448 239.144 122.516 239.144C123.692 239.144 124.61 239.462 125.27 240.098C125.942 240.722 126.278 241.628 126.278 242.816V246.2ZM120.014 245.516C120.014 245.996 120.194 246.362 120.554 246.614C120.926 246.854 121.37 246.974 121.886 246.974C123.074 246.974 124.058 246.554 124.838 245.714V244.13C124.022 243.962 123.29 243.878 122.642 243.878C121.91 243.878 121.286 244.01 120.77 244.274C120.266 244.526 120.014 244.94 120.014 245.516ZM135.616 245.678C135.616 246.482 135.268 247.106 134.572 247.55C133.888 247.994 132.94 248.216 131.728 248.216C130.516 248.216 129.454 247.994 128.542 247.55V246.182C129.418 246.65 130.42 246.884 131.548 246.884C133.3 246.884 134.176 246.428 134.176 245.516C134.176 244.688 133.54 244.274 132.268 244.274H130.378V242.942H132.268C133.42 242.942 133.996 242.57 133.996 241.826C133.996 241.37 133.78 241.028 133.348 240.8C132.916 240.572 132.34 240.458 131.62 240.458C130.576 240.458 129.598 240.686 128.686 241.142V239.792C129.658 239.348 130.69 239.126 131.782 239.126C132.958 239.126 133.858 239.354 134.482 239.81C135.118 240.254 135.436 240.86 135.436 241.628C135.436 242.144 135.292 242.57 135.004 242.906C134.716 243.242 134.326 243.464 133.834 243.572C134.35 243.704 134.776 243.956 135.112 244.328C135.448 244.7 135.616 245.15 135.616 245.678ZM138.956 248H137.732V239.36H139.172V245.678L144.464 239.36H145.688V248H144.248V241.682L138.956 248ZM149.79 248H148.35V239.36H149.79V243.014H154.794V239.36H156.234V248H154.794V244.346H149.79V248ZM169.175 235.76H170.813V243.878H173.117V245.282H170.813V248H169.319V245.282H162.497V243.932L169.175 235.76ZM169.319 243.878V237.794L164.351 243.878H169.319Z" fill="#454545"/>
<path d="M97.356 274.4H98.652V287H97.14V277.262L92.622 284.03H91.686L87.168 277.262V287H85.656V274.4H86.952L92.154 282.176L97.356 274.4ZM108.524 285.2C108.524 285.644 108.746 285.866 109.19 285.866C109.382 285.866 109.604 285.824 109.856 285.74V286.91C109.496 287.042 109.136 287.108 108.776 287.108C107.948 287.108 107.42 286.76 107.192 286.064C106.268 286.832 105.146 287.216 103.826 287.216C102.986 287.216 102.266 286.994 101.666 286.55C101.078 286.094 100.784 285.44 100.784 284.588C100.784 283.568 101.162 282.83 101.918 282.374C102.686 281.906 103.61 281.672 104.69 281.672C105.482 281.672 106.28 281.762 107.084 281.942V281.636C107.084 280.976 106.868 280.454 106.436 280.07C106.004 279.674 105.398 279.476 104.618 279.476C103.526 279.476 102.476 279.692 101.468 280.124V278.72C102.596 278.336 103.694 278.144 104.762 278.144C105.938 278.144 106.856 278.462 107.516 279.098C108.188 279.722 108.524 280.628 108.524 281.816V285.2ZM102.26 284.516C102.26 284.996 102.44 285.362 102.8 285.614C103.172 285.854 103.616 285.974 104.132 285.974C105.32 285.974 106.304 285.554 107.084 284.714V283.13C106.268 282.962 105.536 282.878 104.888 282.878C104.156 282.878 103.532 283.01 103.016 283.274C102.512 283.526 102.26 283.94 102.26 284.516ZM112.84 287H111.4V278.36H117.718V279.692H112.84V287ZM126.278 285.2C126.278 285.644 126.5 285.866 126.944 285.866C127.136 285.866 127.358 285.824 127.61 285.74V286.91C127.25 287.042 126.89 287.108 126.53 287.108C125.702 287.108 125.174 286.76 124.946 286.064C124.022 286.832 122.9 287.216 121.58 287.216C120.74 287.216 120.02 286.994 119.42 286.55C118.832 286.094 118.538 285.44 118.538 284.588C118.538 283.568 118.916 282.83 119.672 282.374C120.44 281.906 121.364 281.672 122.444 281.672C123.236 281.672 124.034 281.762 124.838 281.942V281.636C124.838 280.976 124.622 280.454 124.19 280.07C123.758 279.674 123.152 279.476 122.372 279.476C121.28 279.476 120.23 279.692 119.222 280.124V278.72C120.35 278.336 121.448 278.144 122.516 278.144C123.692 278.144 124.61 278.462 125.27 279.098C125.942 279.722 126.278 280.628 126.278 281.816V285.2ZM120.014 284.516C120.014 284.996 120.194 285.362 120.554 285.614C120.926 285.854 121.37 285.974 121.886 285.974C123.074 285.974 124.058 285.554 124.838 284.714V283.13C124.022 282.962 123.29 282.878 122.642 282.878C121.91 282.878 121.286 283.01 120.77 283.274C120.266 283.526 120.014 283.94 120.014 284.516ZM135.616 284.678C135.616 285.482 135.268 286.106 134.572 286.55C133.888 286.994 132.94 287.216 131.728 287.216C130.516 287.216 129.454 286.994 128.542 286.55V285.182C129.418 285.65 130.42 285.884 131.548 285.884C133.3 285.884 134.176 285.428 134.176 284.516C134.176 283.688 133.54 283.274 132.268 283.274H130.378V281.942H132.268C133.42 281.942 133.996 281.57 133.996 280.826C133.996 280.37 133.78 280.028 133.348 279.8C132.916 279.572 132.34 279.458 131.62 279.458C130.576 279.458 129.598 279.686 128.686 280.142V278.792C129.658 278.348 130.69 278.126 131.782 278.126C132.958 278.126 133.858 278.354 134.482 278.81C135.118 279.254 135.436 279.86 135.436 280.628C135.436 281.144 135.292 281.57 135.004 281.906C134.716 282.242 134.326 282.464 133.834 282.572C134.35 282.704 134.776 282.956 135.112 283.328C135.448 283.7 135.616 284.15 135.616 284.678ZM138.956 287H137.732V278.36H139.172V284.678L144.464 278.36H145.688V287H144.248V280.682L138.956 287ZM149.79 287H148.35V278.36H149.79V282.014H154.794V278.36H156.234V287H154.794V283.346H149.79V287ZM163.739 274.76H171.083V276.2H165.161L164.945 279.656C165.593 279.476 166.289 279.386 167.033 279.386C167.645 279.386 168.215 279.458 168.743 279.602C169.271 279.734 169.757 279.95 170.201 280.25C170.657 280.538 171.017 280.946 171.281 281.474C171.545 281.99 171.677 282.602 171.677 283.31C171.677 284.522 171.227 285.476 170.327 286.172C169.439 286.868 168.305 287.216 166.925 287.216C165.437 287.216 164.129 286.94 163.001 286.388V284.948C164.081 285.524 165.329 285.812 166.745 285.812C167.777 285.812 168.599 285.596 169.211 285.164C169.835 284.732 170.147 284.114 170.147 283.31C170.147 281.606 168.935 280.754 166.511 280.754C165.455 280.754 164.399 280.946 163.343 281.33L163.739 274.76Z" fill="#454545"/>
<path d="M97.356 313.4H98.652V326H97.14V316.262L92.622 323.03H91.686L87.168 316.262V326H85.656V313.4H86.952L92.154 321.176L97.356 313.4ZM108.524 324.2C108.524 324.644 108.746 324.866 109.19 324.866C109.382 324.866 109.604 324.824 109.856 324.74V325.91C109.496 326.042 109.136 326.108 108.776 326.108C107.948 326.108 107.42 325.76 107.192 325.064C106.268 325.832 105.146 326.216 103.826 326.216C102.986 326.216 102.266 325.994 101.666 325.55C101.078 325.094 100.784 324.44 100.784 323.588C100.784 322.568 101.162 321.83 101.918 321.374C102.686 320.906 103.61 320.672 104.69 320.672C105.482 320.672 106.28 320.762 107.084 320.942V320.636C107.084 319.976 106.868 319.454 106.436 319.07C106.004 318.674 105.398 318.476 104.618 318.476C103.526 318.476 102.476 318.692 101.468 319.124V317.72C102.596 317.336 103.694 317.144 104.762 317.144C105.938 317.144 106.856 317.462 107.516 318.098C108.188 318.722 108.524 319.628 108.524 320.816V324.2ZM102.26 323.516C102.26 323.996 102.44 324.362 102.8 324.614C103.172 324.854 103.616 324.974 104.132 324.974C105.32 324.974 106.304 324.554 107.084 323.714V322.13C106.268 321.962 105.536 321.878 104.888 321.878C104.156 321.878 103.532 322.01 103.016 322.274C102.512 322.526 102.26 322.94 102.26 323.516ZM112.84 326H111.4V317.36H117.718V318.692H112.84V326ZM126.278 324.2C126.278 324.644 126.5 324.866 126.944 324.866C127.136 324.866 127.358 324.824 127.61 324.74V325.91C127.25 326.042 126.89 326.108 126.53 326.108C125.702 326.108 125.174 325.76 124.946 325.064C124.022 325.832 122.9 326.216 121.58 326.216C120.74 326.216 120.02 325.994 119.42 325.55C118.832 325.094 118.538 324.44 118.538 323.588C118.538 322.568 118.916 321.83 119.672 321.374C120.44 320.906 121.364 320.672 122.444 320.672C123.236 320.672 124.034 320.762 124.838 320.942V320.636C124.838 319.976 124.622 319.454 124.19 319.07C123.758 318.674 123.152 318.476 122.372 318.476C121.28 318.476 120.23 318.692 119.222 319.124V317.72C120.35 317.336 121.448 317.144 122.516 317.144C123.692 317.144 124.61 317.462 125.27 318.098C125.942 318.722 126.278 319.628 126.278 320.816V324.2ZM120.014 323.516C120.014 323.996 120.194 324.362 120.554 324.614C120.926 324.854 121.37 324.974 121.886 324.974C123.074 324.974 124.058 324.554 124.838 323.714V322.13C124.022 321.962 123.29 321.878 122.642 321.878C121.91 321.878 121.286 322.01 120.77 322.274C120.266 322.526 120.014 322.94 120.014 323.516ZM135.616 323.678C135.616 324.482 135.268 325.106 134.572 325.55C133.888 325.994 132.94 326.216 131.728 326.216C130.516 326.216 129.454 325.994 128.542 325.55V324.182C129.418 324.65 130.42 324.884 131.548 324.884C133.3 324.884 134.176 324.428 134.176 323.516C134.176 322.688 133.54 322.274 132.268 322.274H130.378V320.942H132.268C133.42 320.942 133.996 320.57 133.996 319.826C133.996 319.37 133.78 319.028 133.348 318.8C132.916 318.572 132.34 318.458 131.62 318.458C130.576 318.458 129.598 318.686 128.686 319.142V317.792C129.658 317.348 130.69 317.126 131.782 317.126C132.958 317.126 133.858 317.354 134.482 317.81C135.118 318.254 135.436 318.86 135.436 319.628C135.436 320.144 135.292 320.57 135.004 320.906C134.716 321.242 134.326 321.464 133.834 321.572C134.35 321.704 134.776 321.956 135.112 322.328C135.448 322.7 135.616 323.15 135.616 323.678ZM138.956 326H137.732V317.36H139.172V323.678L144.464 317.36H145.688V326H144.248V319.682L138.956 326ZM149.79 326H148.35V317.36H149.79V321.014H154.794V317.36H156.234V326H154.794V322.346H149.79V326ZM164.513 319.538C165.677 318.758 166.955 318.368 168.347 318.368C169.463 318.368 170.441 318.71 171.281 319.394C172.121 320.066 172.541 321.002 172.541 322.202C172.541 323.462 172.121 324.446 171.281 325.154C170.453 325.862 169.409 326.216 168.149 326.216C166.421 326.216 165.125 325.682 164.261 324.614C163.409 323.534 162.983 322.022 162.983 320.078C162.983 317.918 163.493 316.292 164.513 315.2C165.545 314.096 166.889 313.544 168.545 313.544C169.613 313.544 170.603 313.778 171.515 314.246V315.686C170.627 315.218 169.649 314.984 168.581 314.984C167.453 314.984 166.511 315.35 165.755 316.082C165.011 316.802 164.597 317.954 164.513 319.538ZM164.531 321.05C164.759 323.558 165.929 324.812 168.041 324.812C168.929 324.812 169.643 324.608 170.183 324.2C170.735 323.792 171.011 323.15 171.011 322.274C171.011 321.386 170.729 320.75 170.165 320.366C169.601 319.97 168.869 319.772 167.969 319.772C166.637 319.772 165.491 320.198 164.531 321.05Z" fill="#454545"/>
<path d="M97.356 352.4H98.652V365H97.14V355.262L92.622 362.03H91.686L87.168 355.262V365H85.656V352.4H86.952L92.154 360.176L97.356 352.4ZM108.524 363.2C108.524 363.644 108.746 363.866 109.19 363.866C109.382 363.866 109.604 363.824 109.856 363.74V364.91C109.496 365.042 109.136 365.108 108.776 365.108C107.948 365.108 107.42 364.76 107.192 364.064C106.268 364.832 105.146 365.216 103.826 365.216C102.986 365.216 102.266 364.994 101.666 364.55C101.078 364.094 100.784 363.44 100.784 362.588C100.784 361.568 101.162 360.83 101.918 360.374C102.686 359.906 103.61 359.672 104.69 359.672C105.482 359.672 106.28 359.762 107.084 359.942V359.636C107.084 358.976 106.868 358.454 106.436 358.07C106.004 357.674 105.398 357.476 104.618 357.476C103.526 357.476 102.476 357.692 101.468 358.124V356.72C102.596 356.336 103.694 356.144 104.762 356.144C105.938 356.144 106.856 356.462 107.516 357.098C108.188 357.722 108.524 358.628 108.524 359.816V363.2ZM102.26 362.516C102.26 362.996 102.44 363.362 102.8 363.614C103.172 363.854 103.616 363.974 104.132 363.974C105.32 363.974 106.304 363.554 107.084 362.714V361.13C106.268 360.962 105.536 360.878 104.888 360.878C104.156 360.878 103.532 361.01 103.016 361.274C102.512 361.526 102.26 361.94 102.26 362.516ZM112.84 365H111.4V356.36H117.718V357.692H112.84V365ZM126.278 363.2C126.278 363.644 126.5 363.866 126.944 363.866C127.136 363.866 127.358 363.824 127.61 363.74V364.91C127.25 365.042 126.89 365.108 126.53 365.108C125.702 365.108 125.174 364.76 124.946 364.064C124.022 364.832 122.9 365.216 121.58 365.216C120.74 365.216 120.02 364.994 119.42 364.55C118.832 364.094 118.538 363.44 118.538 362.588C118.538 361.568 118.916 360.83 119.672 360.374C120.44 359.906 121.364 359.672 122.444 359.672C123.236 359.672 124.034 359.762 124.838 359.942V359.636C124.838 358.976 124.622 358.454 124.19 358.07C123.758 357.674 123.152 357.476 122.372 357.476C121.28 357.476 120.23 357.692 119.222 358.124V356.72C120.35 356.336 121.448 356.144 122.516 356.144C123.692 356.144 124.61 356.462 125.27 357.098C125.942 357.722 126.278 358.628 126.278 359.816V363.2ZM120.014 362.516C120.014 362.996 120.194 363.362 120.554 363.614C120.926 363.854 121.37 363.974 121.886 363.974C123.074 363.974 124.058 363.554 124.838 362.714V361.13C124.022 360.962 123.29 360.878 122.642 360.878C121.91 360.878 121.286 361.01 120.77 361.274C120.266 361.526 120.014 361.94 120.014 362.516ZM135.616 362.678C135.616 363.482 135.268 364.106 134.572 364.55C133.888 364.994 132.94 365.216 131.728 365.216C130.516 365.216 129.454 364.994 128.542 364.55V363.182C129.418 363.65 130.42 363.884 131.548 363.884C133.3 363.884 134.176 363.428 134.176 362.516C134.176 361.688 133.54 361.274 132.268 361.274H130.378V359.942H132.268C133.42 359.942 133.996 359.57 133.996 358.826C133.996 358.37 133.78 358.028 133.348 357.8C132.916 357.572 132.34 357.458 131.62 357.458C130.576 357.458 129.598 357.686 128.686 358.142V356.792C129.658 356.348 130.69 356.126 131.782 356.126C132.958 356.126 133.858 356.354 134.482 356.81C135.118 357.254 135.436 357.86 135.436 358.628C135.436 359.144 135.292 359.57 135.004 359.906C134.716 360.242 134.326 360.464 133.834 360.572C134.35 360.704 134.776 360.956 135.112 361.328C135.448 361.7 135.616 362.15 135.616 362.678ZM138.956 365H137.732V356.36H139.172V362.678L144.464 356.36H145.688V365H144.248V358.682L138.956 365ZM149.79 365H148.35V356.36H149.79V360.014H154.794V356.36H156.234V365H154.794V361.346H149.79V365ZM162.533 352.76H171.353V354.128L166.241 365H164.621L169.697 354.2H162.533V352.76Z" fill="#454545"/>
<path d="M246.305 80.4H256.691V82.29H252.533V93H250.481V82.29H246.305V80.4ZM256.964 92.028C256.052 91.224 255.596 90.108 255.596 88.68C255.596 87.252 256.052 86.136 256.964 85.332C257.888 84.528 258.992 84.126 260.276 84.126C261.572 84.126 262.676 84.528 263.588 85.332C264.5 86.136 264.956 87.252 264.956 88.68C264.956 90.108 264.5 91.224 263.588 92.028C262.676 92.832 261.572 93.234 260.276 93.234C258.992 93.234 257.888 92.832 256.964 92.028ZM262.238 90.714C262.742 90.198 262.994 89.52 262.994 88.68C262.994 87.84 262.742 87.168 262.238 86.664C261.734 86.148 261.08 85.89 260.276 85.89C259.46 85.89 258.8 86.148 258.296 86.664C257.792 87.168 257.54 87.84 257.54 88.68C257.54 89.52 257.792 90.198 258.296 90.714C258.8 91.218 259.46 91.47 260.276 91.47C261.08 91.47 261.734 91.218 262.238 90.714ZM271.899 93H266.823V84.36H271.755C272.607 84.36 273.273 84.576 273.753 85.008C274.245 85.428 274.491 85.98 274.491 86.664C274.491 87.612 274.083 88.266 273.267 88.626C273.699 88.758 274.053 88.998 274.329 89.346C274.605 89.694 274.743 90.12 274.743 90.624C274.743 91.332 274.503 91.908 274.023 92.352C273.555 92.784 272.847 93 271.899 93ZM268.749 89.328V91.542H271.431C272.343 91.542 272.799 91.176 272.799 90.444C272.799 89.7 272.355 89.328 271.467 89.328H268.749ZM268.749 85.818V87.96H271.323C272.139 87.96 272.547 87.612 272.547 86.916C272.547 86.532 272.427 86.256 272.187 86.088C271.959 85.908 271.671 85.818 271.323 85.818H268.749ZM284.047 91.002C284.047 91.422 284.257 91.632 284.677 91.632C284.821 91.632 285.013 91.596 285.253 91.524V92.91C284.893 93.054 284.485 93.126 284.029 93.126C283.165 93.126 282.589 92.79 282.301 92.118C281.377 92.862 280.291 93.234 279.043 93.234C278.203 93.234 277.489 93.006 276.901 92.55C276.313 92.082 276.019 91.428 276.019 90.588C276.019 89.58 276.397 88.848 277.153 88.392C277.909 87.924 278.815 87.69 279.871 87.69C280.567 87.69 281.317 87.774 282.121 87.942V87.636C282.121 87.084 281.923 86.64 281.527 86.304C281.131 85.968 280.573 85.8 279.853 85.8C278.785 85.8 277.747 86.022 276.739 86.466V84.702C277.867 84.318 278.971 84.126 280.051 84.126C281.311 84.126 282.289 84.438 282.985 85.062C283.693 85.686 284.047 86.634 284.047 87.906V91.002ZM280.249 89.04C279.613 89.04 279.079 89.154 278.647 89.382C278.215 89.61 277.999 89.97 277.999 90.462C277.999 90.87 278.155 91.188 278.467 91.416C278.779 91.632 279.163 91.74 279.619 91.74C280.603 91.74 281.437 91.398 282.121 90.714V89.256C281.425 89.112 280.801 89.04 280.249 89.04ZM288.414 85.71C289.29 84.654 290.4 84.126 291.744 84.126C293.016 84.126 294.048 84.57 294.84 85.458C295.632 86.334 296.028 87.408 296.028 88.68C296.028 89.952 295.632 91.032 294.84 91.92C294.048 92.796 293.016 93.234 291.744 93.234C290.448 93.234 289.41 92.784 288.63 91.884V96.96H286.704V84.36H288.414V85.71ZM293.31 90.75C293.814 90.21 294.066 89.52 294.066 88.68C294.066 87.84 293.814 87.156 293.31 86.628C292.806 86.088 292.164 85.818 291.384 85.818C290.748 85.818 290.184 85.992 289.692 86.34C289.212 86.688 288.858 87.114 288.63 87.618V89.724C288.858 90.24 289.212 90.672 289.692 91.02C290.184 91.368 290.748 91.542 291.384 91.542C292.164 91.542 292.806 91.278 293.31 90.75ZM304.855 80.76H306.367V91.146H308.545V93H301.885V91.146H304.333V82.866L301.885 83.784V81.894L304.855 80.76Z" fill="#454545"/>
<path d="M386.539 80.4H396.925V82.29H392.767V93H390.715V82.29H386.539V80.4ZM397.198 92.028C396.286 91.224 395.83 90.108 395.83 88.68C395.83 87.252 396.286 86.136 397.198 85.332C398.122 84.528 399.226 84.126 400.51 84.126C401.806 84.126 402.91 84.528 403.822 85.332C404.734 86.136 405.19 87.252 405.19 88.68C405.19 90.108 404.734 91.224 403.822 92.028C402.91 92.832 401.806 93.234 400.51 93.234C399.226 93.234 398.122 92.832 397.198 92.028ZM402.472 90.714C402.976 90.198 403.228 89.52 403.228 88.68C403.228 87.84 402.976 87.168 402.472 86.664C401.968 86.148 401.314 85.89 400.51 85.89C399.694 85.89 399.034 86.148 398.53 86.664C398.026 87.168 397.774 87.84 397.774 88.68C397.774 89.52 398.026 90.198 398.53 90.714C399.034 91.218 399.694 91.47 400.51 91.47C401.314 91.47 401.968 91.218 402.472 90.714ZM412.134 93H407.058V84.36H411.99C412.842 84.36 413.508 84.576 413.988 85.008C414.48 85.428 414.726 85.98 414.726 86.664C414.726 87.612 414.318 88.266 413.502 88.626C413.934 88.758 414.288 88.998 414.564 89.346C414.84 89.694 414.978 90.12 414.978 90.624C414.978 91.332 414.738 91.908 414.258 92.352C413.79 92.784 413.082 93 412.134 93ZM408.984 89.328V91.542H411.666C412.578 91.542 413.034 91.176 413.034 90.444C413.034 89.7 412.59 89.328 411.702 89.328H408.984ZM408.984 85.818V87.96H411.558C412.374 87.96 412.782 87.612 412.782 86.916C412.782 86.532 412.662 86.256 412.422 86.088C412.194 85.908 411.906 85.818 411.558 85.818H408.984ZM424.281 91.002C424.281 91.422 424.491 91.632 424.911 91.632C425.055 91.632 425.247 91.596 425.487 91.524V92.91C425.127 93.054 424.719 93.126 424.263 93.126C423.399 93.126 422.823 92.79 422.535 92.118C421.611 92.862 420.525 93.234 419.277 93.234C418.437 93.234 417.723 93.006 417.135 92.55C416.547 92.082 416.253 91.428 416.253 90.588C416.253 89.58 416.631 88.848 417.387 88.392C418.143 87.924 419.049 87.69 420.105 87.69C420.801 87.69 421.551 87.774 422.355 87.942V87.636C422.355 87.084 422.157 86.64 421.761 86.304C421.365 85.968 420.807 85.8 420.087 85.8C419.019 85.8 417.981 86.022 416.973 86.466V84.702C418.101 84.318 419.205 84.126 420.285 84.126C421.545 84.126 422.523 84.438 423.219 85.062C423.927 85.686 424.281 86.634 424.281 87.906V91.002ZM420.483 89.04C419.847 89.04 419.313 89.154 418.881 89.382C418.449 89.61 418.233 89.97 418.233 90.462C418.233 90.87 418.389 91.188 418.701 91.416C419.013 91.632 419.397 91.74 419.853 91.74C420.837 91.74 421.671 91.398 422.355 90.714V89.256C421.659 89.112 421.035 89.04 420.483 89.04ZM428.648 85.71C429.524 84.654 430.634 84.126 431.978 84.126C433.25 84.126 434.282 84.57 435.074 85.458C435.866 86.334 436.262 87.408 436.262 88.68C436.262 89.952 435.866 91.032 435.074 91.92C434.282 92.796 433.25 93.234 431.978 93.234C430.682 93.234 429.644 92.784 428.864 91.884V96.96H426.938V84.36H428.648V85.71ZM433.544 90.75C434.048 90.21 434.3 89.52 434.3 88.68C434.3 87.84 434.048 87.156 433.544 86.628C433.04 86.088 432.398 85.818 431.618 85.818C430.982 85.818 430.418 85.992 429.926 86.34C429.446 86.688 429.092 87.114 428.864 87.618V89.724C429.092 90.24 429.446 90.672 429.926 91.02C430.418 91.368 430.982 91.542 431.618 91.542C432.398 91.542 433.04 91.278 433.544 90.75ZM442.372 81.768C443.584 80.94 444.94 80.526 446.44 80.526C447.724 80.526 448.762 80.826 449.554 81.426C450.346 82.014 450.742 82.86 450.742 83.964C450.742 84.888 450.436 85.68 449.824 86.34C449.224 86.988 448.402 87.624 447.358 88.248C447.274 88.296 447.118 88.386 446.89 88.518C446.674 88.65 446.518 88.746 446.422 88.806C446.338 88.854 446.2 88.938 446.008 89.058C445.816 89.178 445.672 89.268 445.576 89.328C445.492 89.388 445.372 89.478 445.216 89.598C445.072 89.706 444.964 89.802 444.892 89.886C444.82 89.958 444.736 90.054 444.64 90.174C444.544 90.282 444.472 90.384 444.424 90.48C444.388 90.576 444.352 90.684 444.316 90.804C444.28 90.924 444.262 91.044 444.262 91.164L450.832 91.146V93H441.958V92.064C441.958 91.392 442.048 90.798 442.228 90.282C442.42 89.754 442.75 89.274 443.218 88.842C443.698 88.398 444.07 88.086 444.334 87.906C444.598 87.714 445.066 87.42 445.738 87.024C445.798 86.976 445.846 86.94 445.882 86.916C445.93 86.892 445.978 86.868 446.026 86.844C447.034 86.256 447.682 85.83 447.97 85.566C448.45 85.098 448.69 84.576 448.69 84C448.69 83.472 448.474 83.07 448.042 82.794C447.622 82.518 447.028 82.38 446.26 82.38C444.928 82.38 443.632 82.836 442.372 83.748V81.768Z" fill="#454545"/>
<path d="M528.478 80.4H538.864V82.29H534.706V93H532.654V82.29H528.478V80.4ZM539.137 92.028C538.225 91.224 537.769 90.108 537.769 88.68C537.769 87.252 538.225 86.136 539.137 85.332C540.061 84.528 541.165 84.126 542.449 84.126C543.745 84.126 544.849 84.528 545.761 85.332C546.673 86.136 547.129 87.252 547.129 88.68C547.129 90.108 546.673 91.224 545.761 92.028C544.849 92.832 543.745 93.234 542.449 93.234C541.165 93.234 540.061 92.832 539.137 92.028ZM544.411 90.714C544.915 90.198 545.167 89.52 545.167 88.68C545.167 87.84 544.915 87.168 544.411 86.664C543.907 86.148 543.253 85.89 542.449 85.89C541.633 85.89 540.973 86.148 540.469 86.664C539.965 87.168 539.713 87.84 539.713 88.68C539.713 89.52 539.965 90.198 540.469 90.714C540.973 91.218 541.633 91.47 542.449 91.47C543.253 91.47 543.907 91.218 544.411 90.714ZM554.072 93H548.996V84.36H553.928C554.78 84.36 555.446 84.576 555.926 85.008C556.418 85.428 556.664 85.98 556.664 86.664C556.664 87.612 556.256 88.266 555.44 88.626C555.872 88.758 556.226 88.998 556.502 89.346C556.778 89.694 556.916 90.12 556.916 90.624C556.916 91.332 556.676 91.908 556.196 92.352C555.728 92.784 555.02 93 554.072 93ZM550.922 89.328V91.542H553.604C554.516 91.542 554.972 91.176 554.972 90.444C554.972 89.7 554.528 89.328 553.64 89.328H550.922ZM550.922 85.818V87.96H553.496C554.312 87.96 554.72 87.612 554.72 86.916C554.72 86.532 554.6 86.256 554.36 86.088C554.132 85.908 553.844 85.818 553.496 85.818H550.922ZM566.219 91.002C566.219 91.422 566.429 91.632 566.849 91.632C566.993 91.632 567.185 91.596 567.425 91.524V92.91C567.065 93.054 566.657 93.126 566.201 93.126C565.337 93.126 564.761 92.79 564.473 92.118C563.549 92.862 562.463 93.234 561.215 93.234C560.375 93.234 559.661 93.006 559.073 92.55C558.485 92.082 558.191 91.428 558.191 90.588C558.191 89.58 558.569 88.848 559.325 88.392C560.081 87.924 560.987 87.69 562.043 87.69C562.739 87.69 563.489 87.774 564.293 87.942V87.636C564.293 87.084 564.095 86.64 563.699 86.304C563.303 85.968 562.745 85.8 562.025 85.8C560.957 85.8 559.919 86.022 558.911 86.466V84.702C560.039 84.318 561.143 84.126 562.223 84.126C563.483 84.126 564.461 84.438 565.157 85.062C565.865 85.686 566.219 86.634 566.219 87.906V91.002ZM562.421 89.04C561.785 89.04 561.251 89.154 560.819 89.382C560.387 89.61 560.171 89.97 560.171 90.462C560.171 90.87 560.327 91.188 560.639 91.416C560.951 91.632 561.335 91.74 561.791 91.74C562.775 91.74 563.609 91.398 564.293 90.714V89.256C563.597 89.112 562.973 89.04 562.421 89.04ZM570.587 85.71C571.463 84.654 572.573 84.126 573.917 84.126C575.189 84.126 576.221 84.57 577.013 85.458C577.805 86.334 578.201 87.408 578.201 88.68C578.201 89.952 577.805 91.032 577.013 91.92C576.221 92.796 575.189 93.234 573.917 93.234C572.621 93.234 571.583 92.784 570.803 91.884V96.96H568.877V84.36H570.587V85.71ZM575.483 90.75C575.987 90.21 576.239 89.52 576.239 88.68C576.239 87.84 575.987 87.156 575.483 86.628C574.979 86.088 574.337 85.818 573.557 85.818C572.921 85.818 572.357 85.992 571.865 86.34C571.385 86.688 571.031 87.114 570.803 87.618V89.724C571.031 90.24 571.385 90.672 571.865 91.02C572.357 91.368 572.921 91.542 573.557 91.542C574.337 91.542 574.979 91.278 575.483 90.75ZM592.446 83.874C592.446 84.51 592.278 85.068 591.942 85.548C591.618 86.028 591.18 86.358 590.628 86.538C591.288 86.742 591.84 87.102 592.284 87.618C592.728 88.134 592.95 88.818 592.95 89.67C592.95 90.834 592.506 91.722 591.618 92.334C590.73 92.934 589.614 93.234 588.27 93.234C586.698 93.234 585.282 92.964 584.022 92.424V90.444C585.198 91.092 586.56 91.404 588.108 91.38C590.028 91.356 590.988 90.714 590.988 89.454C590.988 88.23 590.124 87.618 588.396 87.618H586.452V85.764L588.162 85.782C588.906 85.782 589.476 85.638 589.872 85.35C590.28 85.05 590.484 84.642 590.484 84.126C590.484 83.574 590.256 83.148 589.8 82.848C589.356 82.536 588.72 82.38 587.892 82.38C586.62 82.38 585.402 82.716 584.238 83.388V81.426C585.378 80.826 586.686 80.526 588.162 80.526C589.446 80.526 590.478 80.826 591.258 81.426C592.05 82.026 592.446 82.842 592.446 83.874Z" fill="#454545"/>
</svg>
