<svg width="565" height="434" viewBox="0 0 565 434" fill="none" xmlns="http://www.w3.org/2000/svg">
<path d="M152.5 5C152.5 2.51472 154.515 0.5 157 0.5H408C410.485 0.5 412.5 2.51472 412.5 5V169C412.5 171.485 410.485 173.5 408 173.5H157C154.515 173.5 152.5 171.485 152.5 169V5Z" fill="white" stroke="#DDDDE6"/>
<path d="M304.5 265C304.5 262.515 306.515 260.5 309 260.5H560C562.485 260.5 564.5 262.515 564.5 265V429C564.5 431.485 562.485 433.5 560 433.5H309C306.515 433.5 304.5 431.485 304.5 429V265Z" fill="white" stroke="#DDDDE6"/>
<path d="M0.5 265C0.5 262.515 2.51472 260.5 5 260.5H256C258.485 260.5 260.5 262.515 260.5 265V429C260.5 431.485 258.485 433.5 256 433.5H5.00001C2.51472 433.5 0.5 431.485 0.5 429V265Z" fill="white" stroke="#DDDDE6"/>
<path d="M394.16 307H391.06L396.78 293H400.02L405.72 307H402.62L401.6 304.38H395.2L394.16 307ZM398.08 296.88L396.14 301.9H400.66L398.7 296.88C398.567 296.507 398.467 296.14 398.4 295.78C398.32 296.193 398.213 296.56 398.08 296.88ZM409.745 307H406.965V297.4H409.745V301.04H413.625V297.4H416.405V307H413.625V303.36H409.745V307ZM427.342 304.52C427.342 304.947 427.569 305.16 428.022 305.16C428.209 305.16 428.382 305.133 428.542 305.08V306.9C428.035 307.087 427.522 307.18 427.002 307.18C425.989 307.18 425.282 306.82 424.882 306.1C423.882 306.887 422.729 307.28 421.422 307.28C420.475 307.28 419.675 307.02 419.022 306.5C418.382 305.967 418.062 305.247 418.062 304.34C418.062 303.58 418.289 302.947 418.742 302.44C419.195 301.933 419.722 301.593 420.322 301.42C420.922 301.233 421.575 301.14 422.282 301.14C423.069 301.14 423.829 301.227 424.562 301.4V301.06C424.562 300.567 424.369 300.173 423.982 299.88C423.595 299.587 423.035 299.44 422.302 299.44C421.235 299.44 420.102 299.68 418.902 300.16V297.76C420.182 297.333 421.422 297.12 422.622 297.12C425.769 297.12 427.342 298.567 427.342 301.46V304.52ZM422.922 302.8C422.349 302.8 421.869 302.907 421.482 303.12C421.095 303.333 420.902 303.667 420.902 304.12C420.902 304.467 421.042 304.753 421.322 304.98C421.615 305.193 421.975 305.3 422.402 305.3C423.242 305.3 423.962 305.04 424.562 304.52V303.02C423.949 302.873 423.402 302.8 422.922 302.8ZM434.292 299.6C434.212 300.773 434.098 301.787 433.952 302.64C433.818 303.48 433.618 304.267 433.352 305C433.085 305.72 432.725 306.267 432.272 306.64C431.818 307.013 431.272 307.2 430.632 307.2C430.138 307.2 429.632 307.107 429.112 306.92V304.72C429.312 304.8 429.505 304.84 429.692 304.84C430.385 304.84 430.872 304.22 431.152 302.98C431.432 301.74 431.625 299.88 431.732 297.4H439.532V307H436.752V299.6H434.292ZM442.887 305.94C441.86 305.047 441.347 303.8 441.347 302.2C441.347 300.6 441.86 299.353 442.887 298.46C443.914 297.567 445.167 297.12 446.647 297.12C448.14 297.12 449.394 297.567 450.407 298.46C451.434 299.353 451.947 300.6 451.947 302.2C451.947 303.8 451.434 305.047 450.407 305.94C449.394 306.833 448.14 307.28 446.647 307.28C445.167 307.28 443.914 306.833 442.887 305.94ZM448.467 304.08C448.907 303.587 449.127 302.96 449.127 302.2C449.127 301.44 448.907 300.82 448.467 300.34C448.027 299.847 447.42 299.6 446.647 299.6C445.874 299.6 445.267 299.847 444.827 300.34C444.4 300.82 444.187 301.44 444.187 302.2C444.187 302.96 444.4 303.587 444.827 304.08C445.267 304.56 445.874 304.8 446.647 304.8C447.42 304.8 448.027 304.56 448.467 304.08ZM456.542 307H453.762V297.4H461.082V299.74H456.542V307ZM467.084 294.56C468.431 293.6 469.991 293.12 471.764 293.12C473.218 293.12 474.404 293.46 475.324 294.14C476.258 294.82 476.724 295.82 476.724 297.14C476.724 298.167 476.391 299.047 475.724 299.78C475.071 300.5 474.178 301.193 473.044 301.86C471.711 302.647 470.891 303.18 470.584 303.46C470.224 303.807 470.038 304.133 470.024 304.44L476.824 304.42V307H466.624V305.66C466.624 304.927 466.731 304.267 466.944 303.68C467.171 303.093 467.531 302.567 468.024 302.1C468.531 301.633 468.951 301.287 469.284 301.06C469.618 300.82 470.124 300.5 470.804 300.1C470.844 300.073 470.878 300.053 470.904 300.04C470.931 300.027 470.964 300.007 471.004 299.98C471.044 299.953 471.078 299.933 471.104 299.92C471.184 299.867 471.351 299.773 471.604 299.64C471.871 299.493 472.044 299.393 472.124 299.34C472.204 299.287 472.344 299.2 472.544 299.08C472.744 298.947 472.884 298.847 472.964 298.78C473.044 298.7 473.144 298.593 473.264 298.46C473.398 298.327 473.491 298.207 473.544 298.1C473.598 297.993 473.644 297.867 473.684 297.72C473.724 297.573 473.744 297.42 473.744 297.26C473.744 296.767 473.544 296.393 473.144 296.14C472.744 295.873 472.191 295.74 471.484 295.74C469.964 295.74 468.498 296.28 467.084 297.36V294.56Z" fill="#37376D"/>
<path d="M249.196 33L244.416 40.28L239.616 33H236.836V47H239.836V38.36L243.536 44H245.276L248.976 38.38V47H251.976V33H249.196ZM254.916 33.2598C254.916 32.2897 255.456 31.8047 256.537 31.8047C257.618 31.8047 258.158 32.2897 258.158 33.2598C258.158 33.722 258.021 34.0833 257.748 34.3438C257.481 34.5977 257.077 34.7246 256.537 34.7246C255.456 34.7246 254.916 34.2363 254.916 33.2598ZM258.021 47H255.043V36.082H258.021V47ZM268.574 35.44V33.36C267.514 33.94 266.534 34.12 265.514 34.12C264.494 34.12 263.514 33.94 262.454 33.36V35.44C263.334 35.98 264.274 36.24 265.514 36.24C266.754 36.24 267.694 35.98 268.574 35.44ZM263.194 47L267.474 41.6V47H270.234V37.4H267.834L263.554 42.8V37.4H260.774V47H263.194ZM281.984 47V39.74H285.044V37.4H276.164V39.74H279.224V47H281.984ZM285.742 42.2C285.742 45.56 288.262 47.28 291.042 47.28C293.842 47.28 296.342 45.56 296.342 42.2C296.342 38.84 293.842 37.12 291.042 37.12C288.262 37.12 285.742 38.84 285.742 42.2ZM293.522 42.2C293.522 43.68 292.642 44.8 291.042 44.8C289.462 44.8 288.582 43.68 288.582 42.2C288.582 40.72 289.462 39.6 291.042 39.6C292.642 39.6 293.522 40.72 293.522 42.2ZM304.037 47C306.457 47 307.257 45.76 307.257 44.4C307.257 43.24 306.597 42.48 305.557 42.14C306.497 41.78 307.037 41.04 307.037 39.94C307.037 38.64 306.157 37.4 303.877 37.4H298.157V47H304.037ZM300.937 43.02H303.217C303.897 43.02 304.497 43.26 304.497 44.08C304.497 44.84 303.917 45.1 303.217 45.1H300.937V43.02ZM300.917 39.3H303.017C303.657 39.3 304.237 39.54 304.237 40.34C304.237 41.08 303.697 41.34 303.037 41.34H300.917V39.3ZM317.713 44.52V41.46C317.713 38.3 315.873 37.12 312.993 37.12C311.513 37.12 310.053 37.5 309.273 37.76V40.16C310.173 39.8 311.353 39.44 312.673 39.44C314.173 39.44 314.933 40.1 314.933 41.06V41.4C314.253 41.24 313.413 41.14 312.653 41.14C310.733 41.14 308.433 41.9 308.433 44.34C308.433 46.24 309.993 47.28 311.793 47.28C313.213 47.28 314.313 46.84 315.253 46.1C315.653 46.82 316.393 47.18 317.373 47.18C317.913 47.18 318.473 47.06 318.913 46.9V45.08C318.733 45.14 318.553 45.16 318.393 45.16C318.033 45.16 317.713 45.02 317.713 44.52ZM313.293 42.8C313.873 42.8 314.513 42.92 314.933 43.02V44.52C314.293 45.08 313.553 45.3 312.773 45.3C311.933 45.3 311.273 44.84 311.273 44.12C311.273 43.14 312.273 42.8 313.293 42.8ZM322.863 38.8V37.4H320.403V51.4H323.183V45.98C323.803 46.66 324.823 47.28 326.343 47.28C329.383 47.28 331.023 44.82 331.023 42.2C331.023 39.58 329.383 37.12 326.343 37.12C324.563 37.12 323.463 37.94 322.863 38.8ZM328.183 42.2C328.183 43.7 327.243 44.94 325.663 44.94C324.443 44.94 323.543 44.18 323.163 43.34V41.06C323.543 40.22 324.443 39.46 325.663 39.46C327.243 39.46 328.183 40.7 328.183 42.2Z" fill="#37376D"/>
<path d="M413.906 317.76H415.418V328.146H417.596V330H410.936V328.146H413.384V319.866L410.936 320.784V318.894L413.906 317.76ZM422.882 321.63C422.882 320.334 423.314 319.326 424.178 318.606C425.042 317.886 426.122 317.526 427.418 317.526C429.23 317.526 430.568 318.066 431.432 319.146C432.308 320.226 432.746 321.768 432.746 323.772C432.746 325.908 432.218 327.522 431.162 328.614C430.106 329.694 428.744 330.234 427.076 330.234C425.96 330.234 424.904 329.994 423.908 329.514V327.642C424.832 328.158 425.822 328.416 426.878 328.416C427.91 328.416 428.768 328.11 429.452 327.498C430.148 326.886 430.556 325.896 430.676 324.528C429.572 325.188 428.384 325.518 427.112 325.518C425.972 325.518 424.982 325.176 424.142 324.492C423.302 323.808 422.882 322.854 422.882 321.63ZM427.562 319.29C426.794 319.29 426.164 319.476 425.672 319.848C425.192 320.208 424.952 320.772 424.952 321.54C424.952 322.32 425.21 322.884 425.726 323.232C426.242 323.568 426.902 323.736 427.706 323.736C428.81 323.736 429.794 323.394 430.658 322.71C430.442 320.43 429.41 319.29 427.562 319.29ZM435.857 328.488C434.933 327.312 434.471 325.776 434.471 323.88C434.471 321.984 434.933 320.454 435.857 319.29C436.781 318.114 438.149 317.526 439.961 317.526C441.773 317.526 443.141 318.114 444.065 319.29C444.989 320.454 445.451 321.984 445.451 323.88C445.451 325.776 444.989 327.312 444.065 328.488C443.141 329.652 441.773 330.234 439.961 330.234C438.149 330.234 436.781 329.652 435.857 328.488ZM439.961 328.362C442.241 328.362 443.381 326.868 443.381 323.88C443.381 320.892 442.241 319.398 439.961 319.398C437.681 319.398 436.541 320.892 436.541 323.88C436.541 326.868 437.681 328.362 439.961 328.362ZM448.566 328.488C447.642 327.312 447.18 325.776 447.18 323.88C447.18 321.984 447.642 320.454 448.566 319.29C449.49 318.114 450.858 317.526 452.67 317.526C454.482 317.526 455.85 318.114 456.774 319.29C457.698 320.454 458.16 321.984 458.16 323.88C458.16 325.776 457.698 327.312 456.774 328.488C455.85 329.652 454.482 330.234 452.67 330.234C450.858 330.234 449.49 329.652 448.566 328.488ZM452.67 328.362C454.95 328.362 456.09 326.868 456.09 323.88C456.09 320.892 454.95 319.398 452.67 319.398C450.39 319.398 449.25 320.892 449.25 323.88C449.25 326.868 450.39 328.362 452.67 328.362Z" fill="#0FA7F0"/>
<path d="M92.16 307H89.06L94.78 293H98.02L103.72 307H100.62L99.6 304.38H93.2L92.16 307ZM96.08 296.88L94.14 301.9H98.66L96.7 296.88C96.5667 296.507 96.4667 296.14 96.4 295.78C96.32 296.193 96.2133 296.56 96.08 296.88ZM107.745 307H104.965V297.4H107.745V301.04H111.625V297.4H114.405V307H111.625V303.36H107.745V307ZM125.342 304.52C125.342 304.947 125.569 305.16 126.022 305.16C126.209 305.16 126.382 305.133 126.542 305.08V306.9C126.035 307.087 125.522 307.18 125.002 307.18C123.989 307.18 123.282 306.82 122.882 306.1C121.882 306.887 120.729 307.28 119.422 307.28C118.475 307.28 117.675 307.02 117.022 306.5C116.382 305.967 116.062 305.247 116.062 304.34C116.062 303.58 116.289 302.947 116.742 302.44C117.195 301.933 117.722 301.593 118.322 301.42C118.922 301.233 119.575 301.14 120.282 301.14C121.069 301.14 121.829 301.227 122.562 301.4V301.06C122.562 300.567 122.369 300.173 121.982 299.88C121.595 299.587 121.035 299.44 120.302 299.44C119.235 299.44 118.102 299.68 116.902 300.16V297.76C118.182 297.333 119.422 297.12 120.622 297.12C123.769 297.12 125.342 298.567 125.342 301.46V304.52ZM120.922 302.8C120.349 302.8 119.869 302.907 119.482 303.12C119.095 303.333 118.902 303.667 118.902 304.12C118.902 304.467 119.042 304.753 119.322 304.98C119.615 305.193 119.975 305.3 120.402 305.3C121.242 305.3 121.962 305.04 122.562 304.52V303.02C121.949 302.873 121.402 302.8 120.922 302.8ZM132.292 299.6C132.212 300.773 132.098 301.787 131.952 302.64C131.818 303.48 131.618 304.267 131.352 305C131.085 305.72 130.725 306.267 130.272 306.64C129.818 307.013 129.272 307.2 128.632 307.2C128.138 307.2 127.632 307.107 127.112 306.92V304.72C127.312 304.8 127.505 304.84 127.692 304.84C128.385 304.84 128.872 304.22 129.152 302.98C129.432 301.74 129.625 299.88 129.732 297.4H137.532V307H134.752V299.6H132.292ZM140.887 305.94C139.86 305.047 139.347 303.8 139.347 302.2C139.347 300.6 139.86 299.353 140.887 298.46C141.914 297.567 143.167 297.12 144.647 297.12C146.14 297.12 147.394 297.567 148.407 298.46C149.434 299.353 149.947 300.6 149.947 302.2C149.947 303.8 149.434 305.047 148.407 305.94C147.394 306.833 146.14 307.28 144.647 307.28C143.167 307.28 141.914 306.833 140.887 305.94ZM146.467 304.08C146.907 303.587 147.127 302.96 147.127 302.2C147.127 301.44 146.907 300.82 146.467 300.34C146.027 299.847 145.42 299.6 144.647 299.6C143.874 299.6 143.267 299.847 142.827 300.34C142.4 300.82 142.187 301.44 142.187 302.2C142.187 302.96 142.4 303.587 142.827 304.08C143.267 304.56 143.874 304.8 144.647 304.8C145.42 304.8 146.027 304.56 146.467 304.08ZM154.542 307H151.762V297.4H159.082V299.74H154.542V307ZM168.144 293.4H170.324V304.42H172.604V307H164.844V304.42H167.404V296.4L164.844 297.36V294.66L168.144 293.4Z" fill="#37376D"/>
<path d="M375.57 376.12L369.634 383.384V384.584H375.698V387H377.026V384.584H379.074V383.336H377.026V376.12H375.57ZM375.698 383.336H371.282L375.698 377.928V383.336ZM385.931 387V381.208L388.427 385H389.387L391.883 381.208V387H393.099V379.32H391.707L388.907 383.576L386.107 379.32H384.715V387H385.931ZM397.047 387H395.641V378.422H397.047V387ZM395.531 376.102C395.531 375.789 395.609 375.562 395.766 375.422C395.927 375.281 396.125 375.211 396.359 375.211C396.578 375.211 396.768 375.281 396.93 375.422C397.096 375.562 397.18 375.789 397.18 376.102C397.18 376.409 397.096 376.635 396.93 376.781C396.768 376.927 396.578 377 396.359 377C396.125 377 395.927 376.927 395.766 376.781C395.609 376.635 395.531 376.409 395.531 376.102ZM399.062 383.192C399.062 385.928 401.158 387.192 403.174 387.192C404.134 387.192 404.95 387.016 405.67 386.664V385.384C405.03 385.768 404.182 386.008 403.35 386.008C401.846 386.008 400.342 385.128 400.342 383.16C400.342 381.144 401.894 380.312 403.382 380.312C404.198 380.312 405.014 380.552 405.59 381V379.752C404.934 379.32 404.086 379.128 403.222 379.128C401.222 379.128 399.062 380.392 399.062 383.192ZM408.919 386.328C408.919 385.8 408.535 385.528 408.087 385.528C407.639 385.528 407.239 385.8 407.239 386.328C407.239 386.872 407.639 387.144 408.087 387.144C408.535 387.144 408.919 386.872 408.919 386.328ZM416.117 380.6V379.32H414.965V390.52H416.245V385.848C416.805 386.504 417.749 387.192 419.221 387.192C421.413 387.192 423.061 385.464 423.061 383.16C423.061 380.856 421.413 379.128 419.221 379.128C417.749 379.128 416.805 379.816 416.117 380.6ZM421.781 383.16C421.781 384.92 420.565 386.008 419.077 386.008C417.701 386.008 416.677 385.112 416.245 384.12V382.2C416.677 381.208 417.701 380.312 419.077 380.312C420.565 380.312 421.781 381.4 421.781 383.16ZM424.375 383.16C424.375 385.784 426.391 387.192 428.471 387.192C430.567 387.192 432.567 385.784 432.567 383.16C432.567 380.536 430.567 379.128 428.471 379.128C426.391 379.128 424.375 380.536 424.375 383.16ZM431.287 383.16C431.287 384.936 430.039 385.976 428.471 385.976C426.903 385.976 425.655 384.936 425.655 383.16C425.655 381.384 426.903 380.344 428.471 380.344C430.039 380.344 431.287 381.384 431.287 383.16ZM440.022 384.936C440.022 383.944 439.302 383.288 438.438 383.064C439.302 382.872 439.862 382.264 439.862 381.336C439.862 379.992 438.758 379.112 436.614 379.112C435.59 379.112 434.63 379.352 433.862 379.704V380.904C434.566 380.552 435.558 380.296 436.47 380.296C437.67 380.296 438.582 380.664 438.582 381.512C438.582 382.248 437.91 382.504 437.046 382.504H435.366V383.688H437.046C437.814 383.688 438.742 383.848 438.742 384.792C438.742 385.784 437.622 386.008 436.406 386.008C435.478 386.008 434.39 385.736 433.734 385.384V386.6C434.454 386.952 435.478 387.192 436.566 387.192C438.694 387.192 440.022 386.392 440.022 384.936ZM441.375 383.192C441.375 385.928 443.471 387.192 445.487 387.192C446.447 387.192 447.263 387.016 447.983 386.664V385.384C447.343 385.768 446.495 386.008 445.663 386.008C444.159 386.008 442.655 385.128 442.655 383.16C442.655 381.144 444.207 380.312 445.695 380.312C446.511 380.312 447.327 380.552 447.903 381V379.752C447.247 379.32 446.399 379.128 445.535 379.128C443.535 379.128 441.375 380.392 441.375 383.192ZM453.056 387V380.504H455.872V379.32H448.944V380.504H451.776V387H453.056ZM458.477 380.6V379.32H457.325V390.52H458.605V385.848C459.165 386.504 460.109 387.192 461.581 387.192C463.773 387.192 465.421 385.464 465.421 383.16C465.421 380.856 463.773 379.128 461.581 379.128C460.109 379.128 459.165 379.816 458.477 380.6ZM464.141 383.16C464.141 384.92 462.925 386.008 461.437 386.008C460.061 386.008 459.037 385.112 458.605 384.12V382.2C459.037 381.208 460.061 380.312 461.437 380.312C462.925 380.312 464.141 381.4 464.141 383.16ZM466.734 383.16C466.734 385.784 468.75 387.192 470.83 387.192C472.926 387.192 474.926 385.784 474.926 383.16C474.926 380.536 472.926 379.128 470.83 379.128C468.75 379.128 466.734 380.536 466.734 383.16ZM473.646 383.16C473.646 384.936 472.398 385.976 470.83 385.976C469.262 385.976 468.014 384.936 468.014 383.16C468.014 381.384 469.262 380.344 470.83 380.344C472.398 380.344 473.646 381.384 473.646 383.16ZM482.762 387V379.32H481.482V383.208C480.89 383.448 480.346 383.544 479.578 383.544C478.298 383.544 477.514 383.176 477.514 381.88V379.32H476.234V381.976C476.234 383.864 477.434 384.728 479.194 384.728C480.154 384.728 480.778 384.6 481.482 384.328V387H482.762ZM486.417 387V383.704H487.921L490.737 387H492.241L488.977 383.144L491.889 379.32H490.401L487.969 382.52H486.417V379.32H485.137V387H486.417ZM494.6 387L499.304 381.384V387H500.584V379.32H499.496L494.792 384.936V379.32H493.512V387H494.6Z" fill="#37376D"/>
<path d="M259.188 58.768C260.4 57.94 261.756 57.526 263.256 57.526C264.54 57.526 265.578 57.826 266.37 58.426C267.162 59.014 267.558 59.86 267.558 60.964C267.558 61.888 267.252 62.68 266.64 63.34C266.04 63.988 265.218 64.624 264.174 65.248C264.09 65.296 263.934 65.386 263.706 65.518C263.49 65.65 263.334 65.746 263.238 65.806C263.154 65.854 263.016 65.938 262.824 66.058C262.632 66.178 262.488 66.268 262.392 66.328C262.308 66.388 262.188 66.478 262.032 66.598C261.888 66.706 261.78 66.802 261.708 66.886C261.636 66.958 261.552 67.054 261.456 67.174C261.36 67.282 261.288 67.384 261.24 67.48C261.204 67.576 261.168 67.684 261.132 67.804C261.096 67.924 261.078 68.044 261.078 68.164L267.648 68.146V70H258.774V69.064C258.774 68.392 258.864 67.798 259.044 67.282C259.236 66.754 259.566 66.274 260.034 65.842C260.514 65.398 260.886 65.086 261.15 64.906C261.414 64.714 261.882 64.42 262.554 64.024C262.614 63.976 262.662 63.94 262.698 63.916C262.746 63.892 262.794 63.868 262.842 63.844C263.85 63.256 264.498 62.83 264.786 62.566C265.266 62.098 265.506 61.576 265.506 61C265.506 60.472 265.29 60.07 264.858 59.794C264.438 59.518 263.844 59.38 263.076 59.38C261.744 59.38 260.448 59.836 259.188 60.748V58.768ZM276.689 57.76H278.201V68.146H280.379V70H273.719V68.146H276.167V59.866L273.719 60.784V58.894L276.689 57.76ZM283.031 68.488C282.107 67.312 281.645 65.776 281.645 63.88C281.645 61.984 282.107 60.454 283.031 59.29C283.955 58.114 285.323 57.526 287.135 57.526C288.947 57.526 290.315 58.114 291.239 59.29C292.163 60.454 292.625 61.984 292.625 63.88C292.625 65.776 292.163 67.312 291.239 68.488C290.315 69.652 288.947 70.234 287.135 70.234C285.323 70.234 283.955 69.652 283.031 68.488ZM287.135 68.362C289.415 68.362 290.555 66.868 290.555 63.88C290.555 60.892 289.415 59.398 287.135 59.398C284.855 59.398 283.715 60.892 283.715 63.88C283.715 66.868 284.855 68.362 287.135 68.362ZM295.74 68.488C294.816 67.312 294.354 65.776 294.354 63.88C294.354 61.984 294.816 60.454 295.74 59.29C296.664 58.114 298.032 57.526 299.844 57.526C301.656 57.526 303.024 58.114 303.948 59.29C304.872 60.454 305.334 61.984 305.334 63.88C305.334 65.776 304.872 67.312 303.948 68.488C303.024 69.652 301.656 70.234 299.844 70.234C298.032 70.234 296.664 69.652 295.74 68.488ZM299.844 68.362C302.124 68.362 303.264 66.868 303.264 63.88C303.264 60.892 302.124 59.398 299.844 59.398C297.564 59.398 296.424 60.892 296.424 63.88C296.424 66.868 297.564 68.362 299.844 68.362Z" fill="#0FA7F0"/>
<path d="M401.689 406.96C401.689 405.28 400.617 404.4 399.449 404.08C400.537 403.712 401.241 402.864 401.241 401.632C401.241 399.568 399.449 398.576 396.825 398.576C395.657 398.576 394.409 398.768 393.113 399.312V401.6C394.473 400.944 395.609 400.72 396.617 400.736C398.041 400.736 398.841 401.12 398.841 402.016C398.841 402.8 398.153 403.184 397.097 403.184H394.745L394.729 405.296H397.257C398.345 405.296 399.273 405.568 399.273 406.608C399.273 407.76 398.105 408.064 396.889 408.064C395.705 408.08 394.393 407.92 392.921 407.2V409.504C394.409 410.032 395.737 410.224 397.065 410.224C399.289 410.224 401.689 409.456 401.689 406.96ZM405.356 410V407.088H408.46V410H410.684V402.32H408.46V405.232H405.356V402.32H403.132V410H405.356ZM414.505 410L417.929 405.68V410H420.137V402.32H418.217L414.793 406.64V402.32H412.569V410H414.505ZM433.638 410L430.982 406.144L433.414 402.32H431.046L429.206 405.376H428.486V402.32H426.262V405.376H425.542L423.702 402.32H421.334L423.766 406.144L421.11 410H423.494L425.398 407.136H426.262V410H428.486V407.136H429.35L431.254 410H433.638ZM436.84 410V406.96H437.736L439.944 410H442.44L439.576 406.112L442.216 402.32H439.72L437.768 405.184H436.84V402.32H434.616V410H436.84ZM450.152 408.016V405.568C450.152 403.04 448.68 402.096 446.376 402.096C445.192 402.096 444.024 402.4 443.4 402.608V404.528C444.12 404.24 445.064 403.952 446.12 403.952C447.32 403.952 447.928 404.48 447.928 405.248V405.52C447.384 405.392 446.712 405.312 446.104 405.312C444.568 405.312 442.728 405.92 442.728 407.872C442.728 409.392 443.976 410.224 445.416 410.224C446.552 410.224 447.432 409.872 448.184 409.28C448.504 409.856 449.096 410.144 449.88 410.144C450.312 410.144 450.76 410.048 451.112 409.92V408.464C450.968 408.512 450.824 408.528 450.696 408.528C450.408 408.528 450.152 408.416 450.152 408.016ZM446.616 406.64C447.08 406.64 447.592 406.736 447.928 406.816V408.016C447.416 408.464 446.824 408.64 446.2 408.64C445.528 408.64 445 408.272 445 407.696C445 406.912 445.8 406.64 446.616 406.64ZM455.306 399.104V401.168H460.922L456.618 410H459.21L463.674 400.832V399.104H455.306ZM468.897 410.96L475.441 397.84H473.841L467.297 410.96H468.897ZM470.225 401.328C470.225 399.52 468.881 398.576 467.345 398.576C465.793 398.576 464.433 399.52 464.433 401.328C464.433 403.136 465.793 404.08 467.345 404.08C468.881 404.08 470.225 403.136 470.225 401.328ZM466.225 401.328C466.225 400.752 466.561 400.224 467.345 400.224C468.097 400.224 468.433 400.752 468.433 401.328C468.433 401.904 468.097 402.432 467.345 402.432C466.561 402.432 466.225 401.904 466.225 401.328ZM478.241 407.472C478.241 405.664 476.897 404.72 475.361 404.72C473.809 404.72 472.449 405.664 472.449 407.472C472.449 409.28 473.809 410.224 475.361 410.224C476.897 410.224 478.241 409.28 478.241 407.472ZM474.241 407.472C474.241 406.896 474.577 406.368 475.361 406.368C476.113 406.368 476.449 406.896 476.449 407.472C476.449 408.048 476.113 408.576 475.361 408.576C474.577 408.576 474.241 408.048 474.241 407.472Z" fill="#37376D"/>
<path d="M110.906 317.76H112.418V328.146H114.596V330H107.936V328.146H110.384V319.866L107.936 320.784V318.894L110.906 317.76ZM122.186 323.232C123.302 322.56 124.49 322.224 125.75 322.224C126.89 322.224 127.88 322.572 128.72 323.268C129.56 323.952 129.98 324.906 129.98 326.13C129.98 327.426 129.548 328.434 128.684 329.154C127.82 329.874 126.746 330.234 125.462 330.234C123.638 330.234 122.288 329.694 121.412 328.614C120.548 327.534 120.116 325.992 120.116 323.988C120.116 321.84 120.644 320.226 121.7 319.146C122.756 318.066 124.118 317.526 125.786 317.526C126.914 317.526 127.97 317.766 128.954 318.246V320.118C128.03 319.602 127.04 319.344 125.984 319.344C124.952 319.344 124.088 319.65 123.392 320.262C122.708 320.874 122.306 321.864 122.186 323.232ZM122.204 325.05C122.42 327.33 123.452 328.47 125.3 328.47C126.068 328.47 126.692 328.29 127.172 327.93C127.664 327.558 127.91 326.988 127.91 326.22C127.91 325.44 127.652 324.882 127.136 324.546C126.632 324.198 125.978 324.024 125.174 324.024C124.058 324.024 123.068 324.366 122.204 325.05ZM132.263 317.76H139.805V319.596H134.153L133.973 322.548C134.561 322.404 135.179 322.332 135.827 322.332C137.135 322.332 138.221 322.65 139.085 323.286C139.949 323.91 140.381 324.894 140.381 326.238C140.381 327.51 139.907 328.494 138.959 329.19C138.023 329.886 136.847 330.234 135.431 330.234C133.955 330.234 132.647 329.958 131.507 329.406V327.48C132.539 328.08 133.769 328.38 135.197 328.38C136.133 328.38 136.883 328.194 137.447 327.822C138.023 327.45 138.311 326.916 138.311 326.22C138.311 324.756 137.201 324.024 134.981 324.024C133.949 324.024 132.911 324.204 131.867 324.564L132.263 317.76ZM143.369 328.488C142.445 327.312 141.983 325.776 141.983 323.88C141.983 321.984 142.445 320.454 143.369 319.29C144.293 318.114 145.661 317.526 147.473 317.526C149.285 317.526 150.653 318.114 151.577 319.29C152.501 320.454 152.963 321.984 152.963 323.88C152.963 325.776 152.501 327.312 151.577 328.488C150.653 329.652 149.285 330.234 147.473 330.234C145.661 330.234 144.293 329.652 143.369 328.488ZM147.473 328.362C149.753 328.362 150.893 326.868 150.893 323.88C150.893 320.892 149.753 319.398 147.473 319.398C145.193 319.398 144.053 320.892 144.053 323.88C144.053 326.868 145.193 328.362 147.473 328.362Z" fill="#0FA7F0"/>
<path d="M219.614 121.256C219.774 118.248 221.406 117.208 223.23 117.208C224.094 117.208 225.022 117.4 225.838 117.832V116.552C225.054 116.152 224.126 115.928 223.198 115.928C220.398 115.928 218.254 117.736 218.254 121.736C218.254 125.096 219.694 127.192 222.846 127.192C224.974 127.192 226.75 125.944 226.75 123.624C226.75 121.352 224.83 120.216 223.022 120.216C221.774 120.216 220.718 120.52 219.614 121.256ZM219.63 122.6C220.51 121.816 221.614 121.464 222.686 121.464C224.094 121.464 225.39 121.976 225.39 123.688C225.39 125.336 224.206 125.944 222.75 125.944C220.974 125.944 219.838 124.888 219.63 122.6ZM233.744 127V121.208L236.24 125H237.2L239.696 121.208V127H240.912V119.32H239.52L236.72 123.576L233.92 119.32H232.528V127H233.744ZM244.859 127H243.453V118.422H244.859V127ZM243.344 116.102C243.344 115.789 243.422 115.562 243.578 115.422C243.74 115.281 243.938 115.211 244.172 115.211C244.391 115.211 244.581 115.281 244.742 115.422C244.909 115.562 244.992 115.789 244.992 116.102C244.992 116.409 244.909 116.635 244.742 116.781C244.581 116.927 244.391 117 244.172 117C243.938 117 243.74 116.927 243.578 116.781C243.422 116.635 243.344 116.409 243.344 116.102ZM246.875 123.192C246.875 125.928 248.971 127.192 250.987 127.192C251.947 127.192 252.763 127.016 253.483 126.664V125.384C252.843 125.768 251.995 126.008 251.163 126.008C249.659 126.008 248.155 125.128 248.155 123.16C248.155 121.144 249.707 120.312 251.195 120.312C252.011 120.312 252.827 120.552 253.403 121V119.752C252.747 119.32 251.899 119.128 251.035 119.128C249.035 119.128 246.875 120.392 246.875 123.192ZM256.732 126.328C256.732 125.8 256.348 125.528 255.9 125.528C255.452 125.528 255.052 125.8 255.052 126.328C255.052 126.872 255.452 127.144 255.9 127.144C256.348 127.144 256.732 126.872 256.732 126.328ZM263.93 120.6V119.32H262.778V130.52H264.058V125.848C264.618 126.504 265.562 127.192 267.034 127.192C269.226 127.192 270.874 125.464 270.874 123.16C270.874 120.856 269.226 119.128 267.034 119.128C265.562 119.128 264.618 119.816 263.93 120.6ZM269.594 123.16C269.594 124.92 268.378 126.008 266.89 126.008C265.514 126.008 264.49 125.112 264.058 124.12V122.2C264.49 121.208 265.514 120.312 266.89 120.312C268.378 120.312 269.594 121.4 269.594 123.16ZM272.187 123.16C272.187 125.784 274.203 127.192 276.283 127.192C278.379 127.192 280.379 125.784 280.379 123.16C280.379 120.536 278.379 119.128 276.283 119.128C274.203 119.128 272.187 120.536 272.187 123.16ZM279.099 123.16C279.099 124.936 277.851 125.976 276.283 125.976C274.715 125.976 273.467 124.936 273.467 123.16C273.467 121.384 274.715 120.344 276.283 120.344C277.851 120.344 279.099 121.384 279.099 123.16ZM287.834 124.936C287.834 123.944 287.114 123.288 286.25 123.064C287.114 122.872 287.674 122.264 287.674 121.336C287.674 119.992 286.57 119.112 284.426 119.112C283.402 119.112 282.442 119.352 281.674 119.704V120.904C282.378 120.552 283.37 120.296 284.282 120.296C285.482 120.296 286.394 120.664 286.394 121.512C286.394 122.248 285.722 122.504 284.858 122.504H283.178V123.688H284.858C285.626 123.688 286.554 123.848 286.554 124.792C286.554 125.784 285.434 126.008 284.218 126.008C283.29 126.008 282.202 125.736 281.546 125.384V126.6C282.266 126.952 283.29 127.192 284.378 127.192C286.506 127.192 287.834 126.392 287.834 124.936ZM289.187 123.192C289.187 125.928 291.283 127.192 293.299 127.192C294.259 127.192 295.075 127.016 295.795 126.664V125.384C295.155 125.768 294.307 126.008 293.475 126.008C291.971 126.008 290.467 125.128 290.467 123.16C290.467 121.144 292.019 120.312 293.507 120.312C294.323 120.312 295.139 120.552 295.715 121V119.752C295.059 119.32 294.211 119.128 293.347 119.128C291.347 119.128 289.187 120.392 289.187 123.192ZM300.868 127V120.504H303.684V119.32H296.756V120.504H299.588V127H300.868ZM306.289 120.6V119.32H305.137V130.52H306.417V125.848C306.977 126.504 307.921 127.192 309.393 127.192C311.585 127.192 313.233 125.464 313.233 123.16C313.233 120.856 311.585 119.128 309.393 119.128C307.921 119.128 306.977 119.816 306.289 120.6ZM311.953 123.16C311.953 124.92 310.737 126.008 309.249 126.008C307.873 126.008 306.849 125.112 306.417 124.12V122.2C306.849 121.208 307.873 120.312 309.249 120.312C310.737 120.312 311.953 121.4 311.953 123.16ZM314.547 123.16C314.547 125.784 316.563 127.192 318.643 127.192C320.739 127.192 322.739 125.784 322.739 123.16C322.739 120.536 320.739 119.128 318.643 119.128C316.563 119.128 314.547 120.536 314.547 123.16ZM321.459 123.16C321.459 124.936 320.211 125.976 318.643 125.976C317.075 125.976 315.827 124.936 315.827 123.16C315.827 121.384 317.075 120.344 318.643 120.344C320.211 120.344 321.459 121.384 321.459 123.16ZM330.575 127V119.32H329.295V123.208C328.703 123.448 328.159 123.544 327.391 123.544C326.111 123.544 325.327 123.176 325.327 121.88V119.32H324.047V121.976C324.047 123.864 325.247 124.728 327.007 124.728C327.967 124.728 328.591 124.6 329.295 124.328V127H330.575ZM334.23 127V123.704H335.734L338.55 127H340.054L336.79 123.144L339.702 119.32H338.214L335.782 122.52H334.23V119.32H332.95V127H334.23ZM342.413 127L347.117 121.384V127H348.397V119.32H347.309L342.605 124.936V119.32H341.325V127H342.413Z" fill="#37376D"/>
<path d="M73.8553 378.888C73.8553 377.128 72.3833 375.928 70.1593 375.928C68.7993 375.928 67.6953 376.2 66.7193 376.696V378.008C67.7753 377.448 68.8313 377.176 69.9833 377.176C71.6473 377.176 72.5593 377.88 72.5593 379C72.5593 380.008 71.7913 380.76 70.2073 380.76L68.6873 380.744V382.024H70.3513C71.8233 382.024 73.0073 382.488 73.0073 383.976C73.0073 385.4 71.8073 385.928 70.2073 385.928C68.7673 385.944 67.6313 385.72 66.5273 385.144V386.472C67.5993 386.952 68.7673 387.192 70.3193 387.192C72.4953 387.192 74.3033 386.152 74.3033 384.04C74.3033 382.376 73.1993 381.576 72.2713 381.288C73.1993 380.968 73.8553 380.008 73.8553 378.888ZM81.4703 387V381.208L83.9663 385H84.9263L87.4223 381.208V387H88.6383V379.32H87.2463L84.4463 383.576L81.6463 379.32H80.2543V387H81.4703ZM92.5859 387H91.1797V378.422H92.5859V387ZM91.0703 376.102C91.0703 375.789 91.1484 375.562 91.3047 375.422C91.4661 375.281 91.6641 375.211 91.8984 375.211C92.1172 375.211 92.3073 375.281 92.4688 375.422C92.6354 375.562 92.7188 375.789 92.7188 376.102C92.7188 376.409 92.6354 376.635 92.4688 376.781C92.3073 376.927 92.1172 377 91.8984 377C91.6641 377 91.4661 376.927 91.3047 376.781C91.1484 376.635 91.0703 376.409 91.0703 376.102ZM94.6013 383.192C94.6013 385.928 96.6973 387.192 98.7133 387.192C99.6733 387.192 100.489 387.016 101.209 386.664V385.384C100.569 385.768 99.7213 386.008 98.8893 386.008C97.3853 386.008 95.8813 385.128 95.8813 383.16C95.8813 381.144 97.4333 380.312 98.9213 380.312C99.7373 380.312 100.553 380.552 101.129 381V379.752C100.473 379.32 99.6253 379.128 98.7613 379.128C96.7613 379.128 94.6013 380.392 94.6013 383.192ZM104.458 386.328C104.458 385.8 104.074 385.528 103.626 385.528C103.178 385.528 102.778 385.8 102.778 386.328C102.778 386.872 103.178 387.144 103.626 387.144C104.074 387.144 104.458 386.872 104.458 386.328ZM111.656 380.6V379.32H110.504V390.52H111.784V385.848C112.344 386.504 113.288 387.192 114.76 387.192C116.952 387.192 118.6 385.464 118.6 383.16C118.6 380.856 116.952 379.128 114.76 379.128C113.288 379.128 112.344 379.816 111.656 380.6ZM117.32 383.16C117.32 384.92 116.104 386.008 114.616 386.008C113.24 386.008 112.216 385.112 111.784 384.12V382.2C112.216 381.208 113.24 380.312 114.616 380.312C116.104 380.312 117.32 381.4 117.32 383.16ZM119.914 383.16C119.914 385.784 121.93 387.192 124.01 387.192C126.106 387.192 128.106 385.784 128.106 383.16C128.106 380.536 126.106 379.128 124.01 379.128C121.93 379.128 119.914 380.536 119.914 383.16ZM126.826 383.16C126.826 384.936 125.578 385.976 124.01 385.976C122.442 385.976 121.194 384.936 121.194 383.16C121.194 381.384 122.442 380.344 124.01 380.344C125.578 380.344 126.826 381.384 126.826 383.16ZM135.561 384.936C135.561 383.944 134.841 383.288 133.977 383.064C134.841 382.872 135.401 382.264 135.401 381.336C135.401 379.992 134.297 379.112 132.153 379.112C131.129 379.112 130.169 379.352 129.401 379.704V380.904C130.105 380.552 131.097 380.296 132.009 380.296C133.209 380.296 134.121 380.664 134.121 381.512C134.121 382.248 133.449 382.504 132.585 382.504H130.905V383.688H132.585C133.353 383.688 134.281 383.848 134.281 384.792C134.281 385.784 133.161 386.008 131.945 386.008C131.017 386.008 129.929 385.736 129.273 385.384V386.6C129.993 386.952 131.017 387.192 132.105 387.192C134.233 387.192 135.561 386.392 135.561 384.936ZM136.914 383.192C136.914 385.928 139.01 387.192 141.026 387.192C141.986 387.192 142.802 387.016 143.522 386.664V385.384C142.882 385.768 142.034 386.008 141.202 386.008C139.698 386.008 138.194 385.128 138.194 383.16C138.194 381.144 139.746 380.312 141.234 380.312C142.05 380.312 142.866 380.552 143.442 381V379.752C142.786 379.32 141.938 379.128 141.074 379.128C139.074 379.128 136.914 380.392 136.914 383.192ZM148.595 387V380.504H151.411V379.32H144.483V380.504H147.315V387H148.595ZM154.016 380.6V379.32H152.864V390.52H154.144V385.848C154.704 386.504 155.648 387.192 157.12 387.192C159.312 387.192 160.96 385.464 160.96 383.16C160.96 380.856 159.312 379.128 157.12 379.128C155.648 379.128 154.704 379.816 154.016 380.6ZM159.68 383.16C159.68 384.92 158.464 386.008 156.976 386.008C155.6 386.008 154.576 385.112 154.144 384.12V382.2C154.576 381.208 155.6 380.312 156.976 380.312C158.464 380.312 159.68 381.4 159.68 383.16ZM162.273 383.16C162.273 385.784 164.289 387.192 166.369 387.192C168.465 387.192 170.465 385.784 170.465 383.16C170.465 380.536 168.465 379.128 166.369 379.128C164.289 379.128 162.273 380.536 162.273 383.16ZM169.185 383.16C169.185 384.936 167.937 385.976 166.369 385.976C164.801 385.976 163.553 384.936 163.553 383.16C163.553 381.384 164.801 380.344 166.369 380.344C167.937 380.344 169.185 381.384 169.185 383.16ZM178.301 387V379.32H177.021V383.208C176.429 383.448 175.885 383.544 175.117 383.544C173.837 383.544 173.053 383.176 173.053 381.88V379.32H171.773V381.976C171.773 383.864 172.973 384.728 174.733 384.728C175.693 384.728 176.317 384.6 177.021 384.328V387H178.301ZM181.956 387V383.704H183.46L186.276 387H187.78L184.516 383.144L187.428 379.32H185.94L183.508 382.52H181.956V379.32H180.676V387H181.956ZM190.139 387L194.843 381.384V387H196.123V379.32H195.035L190.331 384.936V379.32H189.051V387H190.139Z" fill="#37376D"/>
<path d="M249.509 146.96C249.509 145.28 248.437 144.4 247.269 144.08C248.357 143.712 249.061 142.864 249.061 141.632C249.061 139.568 247.269 138.576 244.645 138.576C243.477 138.576 242.229 138.768 240.933 139.312V141.6C242.293 140.944 243.429 140.72 244.437 140.736C245.861 140.736 246.661 141.12 246.661 142.016C246.661 142.8 245.973 143.184 244.917 143.184H242.565L242.549 145.296H245.077C246.165 145.296 247.093 145.568 247.093 146.608C247.093 147.76 245.925 148.064 244.709 148.064C243.525 148.08 242.213 147.92 240.741 147.2V149.504C242.229 150.032 243.557 150.224 244.885 150.224C247.109 150.224 249.509 149.456 249.509 146.96ZM253.176 150V147.088H256.28V150H258.504V142.32H256.28V145.232H253.176V142.32H250.952V150H253.176ZM262.325 150L265.749 145.68V150H267.957V142.32H266.037L262.613 146.64V142.32H260.389V150H262.325ZM281.458 150L278.802 146.144L281.234 142.32H278.866L277.026 145.376H276.306V142.32H274.082V145.376H273.362L271.522 142.32H269.154L271.586 146.144L268.93 150H271.314L273.218 147.136H274.082V150H276.306V147.136H277.17L279.074 150H281.458ZM284.66 150V146.96H285.556L287.764 150H290.26L287.396 146.112L290.036 142.32H287.54L285.588 145.184H284.66V142.32H282.436V150H284.66ZM297.972 148.016V145.568C297.972 143.04 296.5 142.096 294.196 142.096C293.012 142.096 291.844 142.4 291.22 142.608V144.528C291.94 144.24 292.884 143.952 293.94 143.952C295.14 143.952 295.748 144.48 295.748 145.248V145.52C295.204 145.392 294.532 145.312 293.924 145.312C292.388 145.312 290.548 145.92 290.548 147.872C290.548 149.392 291.796 150.224 293.236 150.224C294.372 150.224 295.252 149.872 296.004 149.28C296.324 149.856 296.916 150.144 297.7 150.144C298.132 150.144 298.58 150.048 298.932 149.92V148.464C298.788 148.512 298.644 148.528 298.516 148.528C298.228 148.528 297.972 148.416 297.972 148.016ZM294.436 146.64C294.9 146.64 295.412 146.736 295.748 146.816V148.016C295.236 148.464 294.644 148.64 294.02 148.64C293.348 148.64 292.82 148.272 292.82 147.696C292.82 146.912 293.62 146.64 294.436 146.64ZM304.151 139.104L303.767 145.424C304.711 145.088 305.719 144.96 306.503 144.96C308.247 144.96 309.159 145.488 309.159 146.56C309.159 147.616 308.103 148.128 306.679 148.128C305.591 148.128 304.327 147.824 303.447 147.264V149.488C304.407 149.952 305.687 150.224 306.951 150.224C309.351 150.224 311.559 149.12 311.559 146.592C311.559 144.096 309.751 143.12 307.575 143.12C307.127 143.12 306.631 143.184 306.167 143.28L306.311 141.152L311.063 141.168V139.104H304.151ZM317.076 150.96L323.62 137.84H322.02L315.476 150.96H317.076ZM318.404 141.328C318.404 139.52 317.06 138.576 315.524 138.576C313.972 138.576 312.612 139.52 312.612 141.328C312.612 143.136 313.972 144.08 315.524 144.08C317.06 144.08 318.404 143.136 318.404 141.328ZM314.404 141.328C314.404 140.752 314.74 140.224 315.524 140.224C316.276 140.224 316.612 140.752 316.612 141.328C316.612 141.904 316.276 142.432 315.524 142.432C314.74 142.432 314.404 141.904 314.404 141.328ZM326.42 147.472C326.42 145.664 325.076 144.72 323.54 144.72C321.988 144.72 320.628 145.664 320.628 147.472C320.628 149.28 321.988 150.224 323.54 150.224C325.076 150.224 326.42 149.28 326.42 147.472ZM322.42 147.472C322.42 146.896 322.756 146.368 323.54 146.368C324.292 146.368 324.628 146.896 324.628 147.472C324.628 148.048 324.292 148.576 323.54 148.576C322.756 148.576 322.42 148.048 322.42 147.472Z" fill="#37376D"/>
<path d="M92.8842 406.96C92.8842 405.28 91.8122 404.4 90.6442 404.08C91.7322 403.712 92.4362 402.864 92.4362 401.632C92.4362 399.568 90.6442 398.576 88.0202 398.576C86.8522 398.576 85.6042 398.768 84.3082 399.312V401.6C85.6682 400.944 86.8042 400.72 87.8122 400.736C89.2362 400.736 90.0362 401.12 90.0362 402.016C90.0362 402.8 89.3482 403.184 88.2922 403.184H85.9402L85.9242 405.296H88.4522C89.5402 405.296 90.4682 405.568 90.4682 406.608C90.4682 407.76 89.3002 408.064 88.0842 408.064C86.9002 408.08 85.5882 407.92 84.1162 407.2V409.504C85.6042 410.032 86.9322 410.224 88.2602 410.224C90.4842 410.224 92.8842 409.456 92.8842 406.96ZM96.5508 410V407.088H99.6548V410H101.879V402.32H99.6548V405.232H96.5508V402.32H94.3268V410H96.5508ZM105.7 410L109.124 405.68V410H111.332V402.32H109.412L105.988 406.64V402.32H103.764V410H105.7ZM124.833 410L122.177 406.144L124.609 402.32H122.241L120.401 405.376H119.681V402.32H117.457V405.376H116.737L114.897 402.32H112.529L114.961 406.144L112.305 410H114.689L116.593 407.136H117.457V410H119.681V407.136H120.545L122.449 410H124.833ZM128.035 410V406.96H128.931L131.139 410H133.635L130.771 406.112L133.411 402.32H130.915L128.963 405.184H128.035V402.32H125.811V410H128.035ZM141.347 408.016V405.568C141.347 403.04 139.875 402.096 137.571 402.096C136.387 402.096 135.219 402.4 134.595 402.608V404.528C135.315 404.24 136.259 403.952 137.315 403.952C138.515 403.952 139.123 404.48 139.123 405.248V405.52C138.579 405.392 137.907 405.312 137.299 405.312C135.763 405.312 133.923 405.92 133.923 407.872C133.923 409.392 135.171 410.224 136.611 410.224C137.747 410.224 138.627 409.872 139.379 409.28C139.699 409.856 140.291 410.144 141.075 410.144C141.507 410.144 141.955 410.048 142.307 409.92V408.464C142.163 408.512 142.019 408.528 141.891 408.528C141.603 408.528 141.347 408.416 141.347 408.016ZM137.811 406.64C138.275 406.64 138.787 406.736 139.123 406.816V408.016C138.611 408.464 138.019 408.64 137.395 408.64C136.723 408.64 136.195 408.272 136.195 407.696C136.195 406.912 136.995 406.64 137.811 406.64ZM149.558 399.12L146.918 400.128V402.288L148.966 401.52V407.936H146.918V410H153.126V407.936H151.302V399.12H149.558ZM154.165 404.56C154.165 407.696 155.653 410.224 159.125 410.224C162.597 410.224 164.085 407.696 164.085 404.56C164.085 401.424 162.597 398.896 159.125 398.896C155.653 398.896 154.165 401.424 154.165 404.56ZM161.685 404.56C161.685 406.88 160.885 408.112 159.125 408.112C157.365 408.112 156.565 406.88 156.565 404.56C156.565 402.24 157.365 401.008 159.125 401.008C160.885 401.008 161.685 402.24 161.685 404.56ZM169.701 410.96L176.245 397.84H174.645L168.101 410.96H169.701ZM171.029 401.328C171.029 399.52 169.685 398.576 168.149 398.576C166.597 398.576 165.237 399.52 165.237 401.328C165.237 403.136 166.597 404.08 168.149 404.08C169.685 404.08 171.029 403.136 171.029 401.328ZM167.029 401.328C167.029 400.752 167.365 400.224 168.149 400.224C168.901 400.224 169.237 400.752 169.237 401.328C169.237 401.904 168.901 402.432 168.149 402.432C167.365 402.432 167.029 401.904 167.029 401.328ZM179.045 407.472C179.045 405.664 177.701 404.72 176.165 404.72C174.613 404.72 173.253 405.664 173.253 407.472C173.253 409.28 174.613 410.224 176.165 410.224C177.701 410.224 179.045 409.28 179.045 407.472ZM175.045 407.472C175.045 406.896 175.381 406.368 176.165 406.368C176.917 406.368 177.253 406.896 177.253 407.472C177.253 408.048 176.917 408.576 176.165 408.576C175.381 408.576 175.045 408.048 175.045 407.472Z" fill="#37376D"/>
<path d="M435 254V219C435 216.239 432.761 214 430 214H136C133.239 214 131 216.239 131 219V254" stroke="#DDDDE6"/>
<path d="M397 343L399.821 347.117L404.608 348.528L401.565 352.483L401.702 357.472L397 355.8L392.298 357.472L392.435 352.483L389.392 348.528L394.179 347.117L397 343Z" fill="#F28100"/>
<path d="M416 343L418.821 347.117L423.608 348.528L420.565 352.483L420.702 357.472L416 355.8L411.298 357.472L411.435 352.483L408.392 348.528L413.179 347.117L416 343Z" fill="#F28100"/>
<path d="M435 343L437.821 347.117L442.608 348.528L439.565 352.483L439.702 357.472L435 355.8L430.298 357.472L430.435 352.483L427.392 348.528L432.179 347.117L435 343Z" fill="#F28100"/>
<path d="M454 343L456.821 347.117L461.608 348.528L458.565 352.483L458.702 357.472L454 355.8L449.298 357.472L449.435 352.483L446.392 348.528L451.179 347.117L454 343Z" fill="#F28100"/>
<path d="M473 343L475.821 347.117L480.608 348.528L477.565 352.483L477.702 357.472L473 355.8L468.298 357.472L468.435 352.483L465.392 348.528L470.179 347.117L473 343Z" fill="#F28100"/>
<line x1="283.5" y1="174" x2="283.5" y2="214" stroke="#DDDDE6"/>
<circle cx="131" cy="260" r="5.5" fill="white" stroke="#DDDDE6"/>
<circle cx="435" cy="260" r="5.5" fill="white" stroke="#DDDDE6"/>
<path d="M245 83L247.821 87.1167L252.608 88.5279L249.565 92.4833L249.702 97.4721L245 95.8L240.298 97.4721L240.435 92.4833L237.392 88.5279L242.179 87.1167L245 83Z" fill="#F28100"/>
<path d="M264 83L266.821 87.1167L271.608 88.5279L268.565 92.4833L268.702 97.4721L264 95.8L259.298 97.4721L259.435 92.4833L256.392 88.5279L261.179 87.1167L264 83Z" fill="#F28100"/>
<path d="M283 83L285.821 87.1167L290.608 88.5279L287.565 92.4833L287.702 97.4721L283 95.8L278.298 97.4721L278.435 92.4833L275.392 88.5279L280.179 87.1167L283 83Z" fill="#F28100"/>
<path d="M302 83L304.821 87.1167L309.608 88.5279L306.565 92.4833L306.702 97.4721L302 95.8L297.298 97.4721L297.435 92.4833L294.392 88.5279L299.179 87.1167L302 83Z" fill="#F28100"/>
<path d="M321 83L323.821 87.1167L328.608 88.5279L325.565 92.4833L325.702 97.4721L321 95.8L316.298 97.4721L316.435 92.4833L313.392 88.5279L318.179 87.1167L321 83Z" fill="#D5D5E4"/>
<path d="M93 343L95.8214 347.117L100.608 348.528L97.5651 352.483L97.7023 357.472L93 355.8L88.2977 357.472L88.4349 352.483L85.3915 348.528L90.1786 347.117L93 343Z" fill="#F28100"/>
<path d="M112 343L114.821 347.117L119.608 348.528L116.565 352.483L116.702 357.472L112 355.8L107.298 357.472L107.435 352.483L104.392 348.528L109.179 347.117L112 343Z" fill="#F28100"/>
<path d="M131 343L133.821 347.117L138.608 348.528L135.565 352.483L135.702 357.472L131 355.8L126.298 357.472L126.435 352.483L123.392 348.528L128.179 347.117L131 343Z" fill="#F28100"/>
<path d="M150 343L152.821 347.117L157.608 348.528L154.565 352.483L154.702 357.472L150 355.8L145.298 357.472L145.435 352.483L142.392 348.528L147.179 347.117L150 343Z" fill="#D5D5E4"/>
<path d="M169 343L171.821 347.117L176.608 348.528L173.565 352.483L173.702 357.472L169 355.8L164.298 357.472L164.435 352.483L161.392 348.528L166.179 347.117L169 343Z" fill="#D5D5E4"/>
</svg>
