<svg width="565" height="274" viewBox="0 0 565 274" fill="none" xmlns="http://www.w3.org/2000/svg">
<path d="M201 5C201 2.23858 203.239 0 206 0H358C360.761 0 363 2.23858 363 5V82C363 84.7614 360.761 87 358 87H206C203.239 87 201 84.7614 201 82V5Z" fill="#37376D"/>
<path d="M201.5 192C201.5 189.515 203.515 187.5 206 187.5H358C360.485 187.5 362.5 189.515 362.5 192V269C362.5 271.485 360.485 273.5 358 273.5H206C203.515 273.5 201.5 271.485 201.5 269V192Z" fill="white" stroke="#DDDDE6"/>
<path d="M403.5 192C403.5 189.515 405.515 187.5 408 187.5H560C562.485 187.5 564.5 189.515 564.5 192V269C564.5 271.485 562.485 273.5 560 273.5H408C405.515 273.5 403.5 271.485 403.5 269V192Z" fill="white" stroke="#DDDDE6"/>
<path d="M0.5 192C0.5 189.515 2.51472 187.5 5 187.5H157C159.485 187.5 161.5 189.515 161.5 192V269C161.5 271.485 159.485 273.5 157 273.5H5C2.51472 273.5 0.5 271.485 0.5 269V192Z" fill="white" stroke="#DDDDE6"/>
<path d="M252.017 24.4L247.229 31.618L242.441 24.4H240.587V37H242.639V28.162L246.617 34.156H247.841L251.819 28.18V37H253.871V24.4H252.017ZM258.516 37H256.934V27.3496H258.516V37ZM256.811 24.7393C256.811 24.3877 256.898 24.1328 257.074 23.9746C257.256 23.8164 257.479 23.7373 257.742 23.7373C257.988 23.7373 258.202 23.8164 258.384 23.9746C258.571 24.1328 258.665 24.3877 258.665 24.7393C258.665 25.085 258.571 25.3398 258.384 25.5039C258.202 25.668 257.988 25.75 257.742 25.75C257.479 25.75 257.256 25.668 257.074 25.5039C256.898 25.3398 256.811 25.085 256.811 24.7393ZM267.983 26.416V24.85C267.065 25.426 266.255 25.606 265.355 25.606C264.455 25.606 263.645 25.426 262.727 24.85V26.416C263.519 26.956 264.383 27.154 265.355 27.154C266.327 27.154 267.191 26.956 267.983 26.416ZM262.907 37L267.533 31.348V37H269.459V28.36H267.803L263.177 34.012V28.36H261.251V37H262.907ZM280.136 37V30.052H283.106V28.36H275.222V30.052H278.21V37H280.136ZM283.844 32.68C283.844 35.668 286.112 37.234 288.524 37.234C290.954 37.234 293.204 35.668 293.204 32.68C293.204 29.692 290.954 28.126 288.524 28.126C286.112 28.126 283.844 29.692 283.844 32.68ZM291.242 32.68C291.242 34.372 290.126 35.47 288.524 35.47C286.904 35.47 285.788 34.372 285.788 32.68C285.788 30.988 286.904 29.89 288.524 29.89C290.126 29.89 291.242 30.988 291.242 32.68ZM300.147 37C302.145 37 302.991 35.956 302.991 34.624C302.991 33.562 302.325 32.878 301.515 32.626C302.253 32.302 302.739 31.618 302.739 30.664C302.739 29.314 301.749 28.36 300.003 28.36H295.071V37H300.147ZM296.997 33.328H299.715C300.381 33.328 301.047 33.562 301.047 34.444C301.047 35.272 300.471 35.542 299.679 35.542H296.997V33.328ZM296.997 29.818H299.571C300.165 29.818 300.795 30.07 300.795 30.916C300.795 31.69 300.255 31.96 299.571 31.96H296.997V29.818ZM312.295 35.002V31.906C312.295 29.296 310.747 28.126 308.299 28.126C306.913 28.126 305.671 28.468 304.987 28.702V30.466C305.761 30.124 306.823 29.8 308.101 29.8C309.577 29.8 310.369 30.556 310.369 31.636V31.942C309.685 31.798 308.857 31.69 308.119 31.69C306.319 31.69 304.267 32.374 304.267 34.588C304.267 36.37 305.725 37.234 307.291 37.234C308.641 37.234 309.703 36.802 310.549 36.118C310.855 36.82 311.485 37.126 312.277 37.126C312.709 37.126 313.141 37.054 313.501 36.91V35.524C313.321 35.578 313.123 35.632 312.925 35.632C312.583 35.632 312.295 35.488 312.295 35.002ZM308.497 33.04C309.109 33.04 309.847 33.148 310.369 33.256V34.714C309.685 35.398 308.785 35.74 307.867 35.74C307.003 35.74 306.247 35.308 306.247 34.462C306.247 33.382 307.399 33.04 308.497 33.04ZM316.662 29.71V28.36H314.952V40.96H316.878V35.884C317.472 36.568 318.48 37.234 319.992 37.234C322.584 37.234 324.276 35.164 324.276 32.68C324.276 30.196 322.584 28.126 319.992 28.126C318.372 28.126 317.346 28.882 316.662 29.71ZM322.314 32.68C322.314 34.372 321.198 35.542 319.632 35.542C318.3 35.542 317.292 34.678 316.878 33.724V31.618C317.292 30.682 318.3 29.818 319.632 29.818C321.198 29.818 322.314 30.988 322.314 32.68Z" fill="white"/>
<path d="M245.286 224H243.108L248.436 211.4H250.686L255.996 224H253.836L252.72 221.282H246.402L245.286 224ZM249.318 214.1L247.104 219.482H252L249.786 214.1C249.69 213.836 249.612 213.602 249.552 213.398C249.492 213.602 249.414 213.836 249.318 214.1ZM259.228 224H257.302V215.36H259.228V218.834H263.548V215.36H265.474V224H263.548V220.526H259.228V224ZM275.246 222.002C275.246 222.422 275.456 222.632 275.876 222.632C276.02 222.632 276.212 222.596 276.452 222.524V223.91C276.092 224.054 275.684 224.126 275.228 224.126C274.364 224.126 273.788 223.79 273.5 223.118C272.576 223.862 271.49 224.234 270.242 224.234C269.402 224.234 268.688 224.006 268.1 223.55C267.512 223.082 267.218 222.428 267.218 221.588C267.218 220.58 267.596 219.848 268.352 219.392C269.108 218.924 270.014 218.69 271.07 218.69C271.766 218.69 272.516 218.774 273.32 218.942V218.636C273.32 218.084 273.122 217.64 272.726 217.304C272.33 216.968 271.772 216.8 271.052 216.8C269.984 216.8 268.946 217.022 267.938 217.466V215.702C269.066 215.318 270.17 215.126 271.25 215.126C272.51 215.126 273.488 215.438 274.184 216.062C274.892 216.686 275.246 217.634 275.246 218.906V222.002ZM271.448 220.04C270.812 220.04 270.278 220.154 269.846 220.382C269.414 220.61 269.198 220.97 269.198 221.462C269.198 221.87 269.354 222.188 269.666 222.416C269.978 222.632 270.362 222.74 270.818 222.74C271.802 222.74 272.636 222.398 273.32 221.714V220.256C272.624 220.112 272 220.04 271.448 220.04ZM281.341 216.998C281.269 218.126 281.173 219.092 281.053 219.896C280.933 220.7 280.753 221.444 280.513 222.128C280.273 222.8 279.955 223.31 279.559 223.658C279.175 223.994 278.701 224.162 278.137 224.162C277.765 224.162 277.369 224.084 276.949 223.928V222.416C277.153 222.488 277.339 222.524 277.507 222.524C278.191 222.524 278.671 221.93 278.947 220.742C279.235 219.542 279.427 217.748 279.523 215.36H286.183V224H284.257V216.998H281.341ZM289.419 223.028C288.507 222.224 288.051 221.108 288.051 219.68C288.051 218.252 288.507 217.136 289.419 216.332C290.343 215.528 291.447 215.126 292.731 215.126C294.027 215.126 295.131 215.528 296.043 216.332C296.955 217.136 297.411 218.252 297.411 219.68C297.411 221.108 296.955 222.224 296.043 223.028C295.131 223.832 294.027 224.234 292.731 224.234C291.447 224.234 290.343 223.832 289.419 223.028ZM294.693 221.714C295.197 221.198 295.449 220.52 295.449 219.68C295.449 218.84 295.197 218.168 294.693 217.664C294.189 217.148 293.535 216.89 292.731 216.89C291.915 216.89 291.255 217.148 290.751 217.664C290.247 218.168 289.995 218.84 289.995 219.68C289.995 220.52 290.247 221.198 290.751 221.714C291.255 222.218 291.915 222.47 292.731 222.47C293.535 222.47 294.189 222.218 294.693 221.714ZM301.204 224H299.278V215.36H305.722V217.052H301.204V224ZM311.459 212.768C312.671 211.94 314.027 211.526 315.527 211.526C316.811 211.526 317.849 211.826 318.641 212.426C319.433 213.014 319.829 213.86 319.829 214.964C319.829 215.888 319.523 216.68 318.911 217.34C318.311 217.988 317.489 218.624 316.445 219.248C316.361 219.296 316.205 219.386 315.977 219.518C315.761 219.65 315.605 219.746 315.509 219.806C315.425 219.854 315.287 219.938 315.095 220.058C314.903 220.178 314.759 220.268 314.663 220.328C314.579 220.388 314.459 220.478 314.303 220.598C314.159 220.706 314.051 220.802 313.979 220.886C313.907 220.958 313.823 221.054 313.727 221.174C313.631 221.282 313.559 221.384 313.511 221.48C313.475 221.576 313.439 221.684 313.403 221.804C313.367 221.924 313.349 222.044 313.349 222.164L319.919 222.146V224H311.045V223.064C311.045 222.392 311.135 221.798 311.315 221.282C311.507 220.754 311.837 220.274 312.305 219.842C312.785 219.398 313.157 219.086 313.421 218.906C313.685 218.714 314.153 218.42 314.825 218.024C314.885 217.976 314.933 217.94 314.969 217.916C315.017 217.892 315.065 217.868 315.113 217.844C316.121 217.256 316.769 216.83 317.057 216.566C317.537 216.098 317.777 215.576 317.777 215C317.777 214.472 317.561 214.07 317.129 213.794C316.709 213.518 316.115 213.38 315.347 213.38C314.015 213.38 312.719 213.836 311.459 214.748V212.768Z" fill="#37376D"/>
<path d="M447.286 224H445.108L450.436 211.4H452.686L457.996 224H455.836L454.72 221.282H448.402L447.286 224ZM451.318 214.1L449.104 219.482H454L451.786 214.1C451.69 213.836 451.612 213.602 451.552 213.398C451.492 213.602 451.414 213.836 451.318 214.1ZM461.228 224H459.302V215.36H461.228V218.834H465.548V215.36H467.474V224H465.548V220.526H461.228V224ZM477.246 222.002C477.246 222.422 477.456 222.632 477.876 222.632C478.02 222.632 478.212 222.596 478.452 222.524V223.91C478.092 224.054 477.684 224.126 477.228 224.126C476.364 224.126 475.788 223.79 475.5 223.118C474.576 223.862 473.49 224.234 472.242 224.234C471.402 224.234 470.688 224.006 470.1 223.55C469.512 223.082 469.218 222.428 469.218 221.588C469.218 220.58 469.596 219.848 470.352 219.392C471.108 218.924 472.014 218.69 473.07 218.69C473.766 218.69 474.516 218.774 475.32 218.942V218.636C475.32 218.084 475.122 217.64 474.726 217.304C474.33 216.968 473.772 216.8 473.052 216.8C471.984 216.8 470.946 217.022 469.938 217.466V215.702C471.066 215.318 472.17 215.126 473.25 215.126C474.51 215.126 475.488 215.438 476.184 216.062C476.892 216.686 477.246 217.634 477.246 218.906V222.002ZM473.448 220.04C472.812 220.04 472.278 220.154 471.846 220.382C471.414 220.61 471.198 220.97 471.198 221.462C471.198 221.87 471.354 222.188 471.666 222.416C471.978 222.632 472.362 222.74 472.818 222.74C473.802 222.74 474.636 222.398 475.32 221.714V220.256C474.624 220.112 474 220.04 473.448 220.04ZM483.341 216.998C483.269 218.126 483.173 219.092 483.053 219.896C482.933 220.7 482.753 221.444 482.513 222.128C482.273 222.8 481.955 223.31 481.559 223.658C481.175 223.994 480.701 224.162 480.137 224.162C479.765 224.162 479.369 224.084 478.949 223.928V222.416C479.153 222.488 479.339 222.524 479.507 222.524C480.191 222.524 480.671 221.93 480.947 220.742C481.235 219.542 481.427 217.748 481.523 215.36H488.183V224H486.257V216.998H483.341ZM491.419 223.028C490.507 222.224 490.051 221.108 490.051 219.68C490.051 218.252 490.507 217.136 491.419 216.332C492.343 215.528 493.447 215.126 494.731 215.126C496.027 215.126 497.131 215.528 498.043 216.332C498.955 217.136 499.411 218.252 499.411 219.68C499.411 221.108 498.955 222.224 498.043 223.028C497.131 223.832 496.027 224.234 494.731 224.234C493.447 224.234 492.343 223.832 491.419 223.028ZM496.693 221.714C497.197 221.198 497.449 220.52 497.449 219.68C497.449 218.84 497.197 218.168 496.693 217.664C496.189 217.148 495.535 216.89 494.731 216.89C493.915 216.89 493.255 217.148 492.751 217.664C492.247 218.168 491.995 218.84 491.995 219.68C491.995 220.52 492.247 221.198 492.751 221.714C493.255 222.218 493.915 222.47 494.731 222.47C495.535 222.47 496.189 222.218 496.693 221.714ZM503.204 224H501.278V215.36H507.722V217.052H503.204V224ZM521.595 214.874C521.595 215.51 521.427 216.068 521.091 216.548C520.767 217.028 520.329 217.358 519.777 217.538C520.437 217.742 520.989 218.102 521.433 218.618C521.877 219.134 522.099 219.818 522.099 220.67C522.099 221.834 521.655 222.722 520.767 223.334C519.879 223.934 518.763 224.234 517.419 224.234C515.847 224.234 514.431 223.964 513.171 223.424V221.444C514.347 222.092 515.709 222.404 517.257 222.38C519.177 222.356 520.137 221.714 520.137 220.454C520.137 219.23 519.273 218.618 517.545 218.618H515.601V216.764L517.311 216.782C518.055 216.782 518.625 216.638 519.021 216.35C519.429 216.05 519.633 215.642 519.633 215.126C519.633 214.574 519.405 214.148 518.949 213.848C518.505 213.536 517.869 213.38 517.041 213.38C515.769 213.38 514.551 213.716 513.387 214.388V212.426C514.527 211.826 515.835 211.526 517.311 211.526C518.595 211.526 519.627 211.826 520.407 212.426C521.199 213.026 521.595 213.842 521.595 214.874Z" fill="#37376D"/>
<path d="M45.286 224H43.108L48.436 211.4H50.686L55.996 224H53.836L52.72 221.282H46.402L45.286 224ZM49.318 214.1L47.104 219.482H52L49.786 214.1C49.69 213.836 49.612 213.602 49.552 213.398C49.492 213.602 49.414 213.836 49.318 214.1ZM59.2277 224H57.3017V215.36H59.2277V218.834H63.5477V215.36H65.4737V224H63.5477V220.526H59.2277V224ZM75.2457 222.002C75.2457 222.422 75.4557 222.632 75.8757 222.632C76.0197 222.632 76.2117 222.596 76.4517 222.524V223.91C76.0917 224.054 75.6837 224.126 75.2277 224.126C74.3637 224.126 73.7877 223.79 73.4997 223.118C72.5757 223.862 71.4897 224.234 70.2417 224.234C69.4017 224.234 68.6877 224.006 68.0997 223.55C67.5117 223.082 67.2177 222.428 67.2177 221.588C67.2177 220.58 67.5957 219.848 68.3517 219.392C69.1077 218.924 70.0137 218.69 71.0697 218.69C71.7657 218.69 72.5157 218.774 73.3197 218.942V218.636C73.3197 218.084 73.1217 217.64 72.7257 217.304C72.3297 216.968 71.7717 216.8 71.0517 216.8C69.9837 216.8 68.9457 217.022 67.9377 217.466V215.702C69.0657 215.318 70.1697 215.126 71.2497 215.126C72.5097 215.126 73.4877 215.438 74.1837 216.062C74.8917 216.686 75.2457 217.634 75.2457 218.906V222.002ZM71.4477 220.04C70.8117 220.04 70.2777 220.154 69.8457 220.382C69.4137 220.61 69.1977 220.97 69.1977 221.462C69.1977 221.87 69.3537 222.188 69.6657 222.416C69.9777 222.632 70.3617 222.74 70.8177 222.74C71.8017 222.74 72.6357 222.398 73.3197 221.714V220.256C72.6237 220.112 71.9997 220.04 71.4477 220.04ZM81.3413 216.998C81.2693 218.126 81.1733 219.092 81.0533 219.896C80.9333 220.7 80.7533 221.444 80.5133 222.128C80.2733 222.8 79.9553 223.31 79.5593 223.658C79.1753 223.994 78.7013 224.162 78.1373 224.162C77.7653 224.162 77.3693 224.084 76.9493 223.928V222.416C77.1533 222.488 77.3393 222.524 77.5073 222.524C78.1913 222.524 78.6713 221.93 78.9473 220.742C79.2353 219.542 79.4273 217.748 79.5233 215.36H86.1833V224H84.2573V216.998H81.3413ZM89.4188 223.028C88.5068 222.224 88.0508 221.108 88.0508 219.68C88.0508 218.252 88.5068 217.136 89.4188 216.332C90.3428 215.528 91.4468 215.126 92.7308 215.126C94.0268 215.126 95.1308 215.528 96.0428 216.332C96.9548 217.136 97.4108 218.252 97.4108 219.68C97.4108 221.108 96.9548 222.224 96.0428 223.028C95.1308 223.832 94.0268 224.234 92.7308 224.234C91.4468 224.234 90.3428 223.832 89.4188 223.028ZM94.6928 221.714C95.1968 221.198 95.4488 220.52 95.4488 219.68C95.4488 218.84 95.1968 218.168 94.6928 217.664C94.1888 217.148 93.5348 216.89 92.7308 216.89C91.9148 216.89 91.2548 217.148 90.7508 217.664C90.2468 218.168 89.9948 218.84 89.9948 219.68C89.9948 220.52 90.2468 221.198 90.7508 221.714C91.2548 222.218 91.9148 222.47 92.7308 222.47C93.5348 222.47 94.1888 222.218 94.6928 221.714ZM101.204 224H99.2783V215.36H105.722V217.052H101.204V224ZM114.177 211.76H115.689V222.146H117.867V224H111.207V222.146H113.655V213.866L111.207 214.784V212.894L114.177 211.76Z" fill="#37376D"/>
<path d="M258.188 47.768C259.4 46.94 260.756 46.526 262.256 46.526C263.54 46.526 264.578 46.826 265.37 47.426C266.162 48.014 266.558 48.86 266.558 49.964C266.558 50.888 266.252 51.68 265.64 52.34C265.04 52.988 264.218 53.624 263.174 54.248C263.09 54.296 262.934 54.386 262.706 54.518C262.49 54.65 262.334 54.746 262.238 54.806C262.154 54.854 262.016 54.938 261.824 55.058C261.632 55.178 261.488 55.268 261.392 55.328C261.308 55.388 261.188 55.478 261.032 55.598C260.888 55.706 260.78 55.802 260.708 55.886C260.636 55.958 260.552 56.054 260.456 56.174C260.36 56.282 260.288 56.384 260.24 56.48C260.204 56.576 260.168 56.684 260.132 56.804C260.096 56.924 260.078 57.044 260.078 57.164L266.648 57.146V59H257.774V58.064C257.774 57.392 257.864 56.798 258.044 56.282C258.236 55.754 258.566 55.274 259.034 54.842C259.514 54.398 259.886 54.086 260.15 53.906C260.414 53.714 260.882 53.42 261.554 53.024C261.614 52.976 261.662 52.94 261.698 52.916C261.746 52.892 261.794 52.868 261.842 52.844C262.85 52.256 263.498 51.83 263.786 51.566C264.266 51.098 264.506 50.576 264.506 50C264.506 49.472 264.29 49.07 263.858 48.794C263.438 48.518 262.844 48.38 262.076 48.38C260.744 48.38 259.448 48.836 258.188 49.748V47.768ZM275.689 46.76H277.201V57.146H279.379V59H272.719V57.146H275.167V48.866L272.719 49.784V47.894L275.689 46.76ZM282.031 57.488C281.107 56.312 280.645 54.776 280.645 52.88C280.645 50.984 281.107 49.454 282.031 48.29C282.955 47.114 284.323 46.526 286.135 46.526C287.947 46.526 289.315 47.114 290.239 48.29C291.163 49.454 291.625 50.984 291.625 52.88C291.625 54.776 291.163 56.312 290.239 57.488C289.315 58.652 287.947 59.234 286.135 59.234C284.323 59.234 282.955 58.652 282.031 57.488ZM286.135 57.362C288.415 57.362 289.555 55.868 289.555 52.88C289.555 49.892 288.415 48.398 286.135 48.398C283.855 48.398 282.715 49.892 282.715 52.88C282.715 55.868 283.855 57.362 286.135 57.362ZM294.74 57.488C293.816 56.312 293.354 54.776 293.354 52.88C293.354 50.984 293.816 49.454 294.74 48.29C295.664 47.114 297.032 46.526 298.844 46.526C300.656 46.526 302.024 47.114 302.948 48.29C303.872 49.454 304.334 50.984 304.334 52.88C304.334 54.776 303.872 56.312 302.948 57.488C302.024 58.652 300.656 59.234 298.844 59.234C297.032 59.234 295.664 58.652 294.74 57.488ZM298.844 57.362C301.124 57.362 302.264 55.868 302.264 52.88C302.264 49.892 301.124 48.398 298.844 48.398C296.564 48.398 295.424 49.892 295.424 52.88C295.424 55.868 296.564 57.362 298.844 57.362Z" fill="white"/>
<path d="M260.188 234.768C261.4 233.94 262.756 233.526 264.256 233.526C265.54 233.526 266.578 233.826 267.37 234.426C268.162 235.014 268.558 235.86 268.558 236.964C268.558 237.888 268.252 238.68 267.64 239.34C267.04 239.988 266.218 240.624 265.174 241.248C265.09 241.296 264.934 241.386 264.706 241.518C264.49 241.65 264.334 241.746 264.238 241.806C264.154 241.854 264.016 241.938 263.824 242.058C263.632 242.178 263.488 242.268 263.392 242.328C263.308 242.388 263.188 242.478 263.032 242.598C262.888 242.706 262.78 242.802 262.708 242.886C262.636 242.958 262.552 243.054 262.456 243.174C262.36 243.282 262.288 243.384 262.24 243.48C262.204 243.576 262.168 243.684 262.132 243.804C262.096 243.924 262.078 244.044 262.078 244.164L268.648 244.146V246H259.774V245.064C259.774 244.392 259.864 243.798 260.044 243.282C260.236 242.754 260.566 242.274 261.034 241.842C261.514 241.398 261.886 241.086 262.15 240.906C262.414 240.714 262.882 240.42 263.554 240.024C263.614 239.976 263.662 239.94 263.698 239.916C263.746 239.892 263.794 239.868 263.842 239.844C264.85 239.256 265.498 238.83 265.786 238.566C266.266 238.098 266.506 237.576 266.506 237C266.506 236.472 266.29 236.07 265.858 235.794C265.438 235.518 264.844 235.38 264.076 235.38C262.744 235.38 261.448 235.836 260.188 236.748V234.768ZM277.689 233.76H279.201V244.146H281.379V246H274.719V244.146H277.167V235.866L274.719 236.784V234.894L277.689 233.76ZM288.729 233.76H290.835V241.716H292.941V243.498H290.835V246H288.855V243.498H282.213V241.752L288.729 233.76ZM288.855 241.716V236.37L284.499 241.716H288.855ZM295.721 244.488C294.797 243.312 294.335 241.776 294.335 239.88C294.335 237.984 294.797 236.454 295.721 235.29C296.645 234.114 298.013 233.526 299.825 233.526C301.637 233.526 303.005 234.114 303.929 235.29C304.853 236.454 305.315 237.984 305.315 239.88C305.315 241.776 304.853 243.312 303.929 244.488C303.005 245.652 301.637 246.234 299.825 246.234C298.013 246.234 296.645 245.652 295.721 244.488ZM299.825 244.362C302.105 244.362 303.245 242.868 303.245 239.88C303.245 236.892 302.105 235.398 299.825 235.398C297.545 235.398 296.405 236.892 296.405 239.88C296.405 242.868 297.545 244.362 299.825 244.362Z" fill="#0FA7F0"/>
<path d="M460.188 234.768C461.4 233.94 462.756 233.526 464.256 233.526C465.54 233.526 466.578 233.826 467.37 234.426C468.162 235.014 468.558 235.86 468.558 236.964C468.558 237.888 468.252 238.68 467.64 239.34C467.04 239.988 466.218 240.624 465.174 241.248C465.09 241.296 464.934 241.386 464.706 241.518C464.49 241.65 464.334 241.746 464.238 241.806C464.154 241.854 464.016 241.938 463.824 242.058C463.632 242.178 463.488 242.268 463.392 242.328C463.308 242.388 463.188 242.478 463.032 242.598C462.888 242.706 462.78 242.802 462.708 242.886C462.636 242.958 462.552 243.054 462.456 243.174C462.36 243.282 462.288 243.384 462.24 243.48C462.204 243.576 462.168 243.684 462.132 243.804C462.096 243.924 462.078 244.044 462.078 244.164L468.648 244.146V246H459.774V245.064C459.774 244.392 459.864 243.798 460.044 243.282C460.236 242.754 460.566 242.274 461.034 241.842C461.514 241.398 461.886 241.086 462.15 240.906C462.414 240.714 462.882 240.42 463.554 240.024C463.614 239.976 463.662 239.94 463.698 239.916C463.746 239.892 463.794 239.868 463.842 239.844C464.85 239.256 465.498 238.83 465.786 238.566C466.266 238.098 466.506 237.576 466.506 237C466.506 236.472 466.29 236.07 465.858 235.794C465.438 235.518 464.844 235.38 464.076 235.38C462.744 235.38 461.448 235.836 460.188 236.748V234.768ZM483.107 236.874C483.107 237.51 482.939 238.068 482.603 238.548C482.279 239.028 481.841 239.358 481.289 239.538C481.949 239.742 482.501 240.102 482.945 240.618C483.389 241.134 483.611 241.818 483.611 242.67C483.611 243.834 483.167 244.722 482.279 245.334C481.391 245.934 480.275 246.234 478.931 246.234C477.359 246.234 475.943 245.964 474.683 245.424V243.444C475.859 244.092 477.221 244.404 478.769 244.38C480.689 244.356 481.649 243.714 481.649 242.454C481.649 241.23 480.785 240.618 479.057 240.618H477.113V238.764L478.823 238.782C479.567 238.782 480.137 238.638 480.533 238.35C480.941 238.05 481.145 237.642 481.145 237.126C481.145 236.574 480.917 236.148 480.461 235.848C480.017 235.536 479.381 235.38 478.553 235.38C477.281 235.38 476.063 235.716 474.899 236.388V234.426C476.039 233.826 477.347 233.526 478.823 233.526C480.107 233.526 481.139 233.826 481.919 234.426C482.711 235.026 483.107 235.842 483.107 236.874ZM485.624 234.768C486.836 233.94 488.192 233.526 489.692 233.526C490.976 233.526 492.014 233.826 492.806 234.426C493.598 235.014 493.994 235.86 493.994 236.964C493.994 237.888 493.688 238.68 493.076 239.34C492.476 239.988 491.654 240.624 490.61 241.248C490.526 241.296 490.37 241.386 490.142 241.518C489.926 241.65 489.77 241.746 489.674 241.806C489.59 241.854 489.452 241.938 489.26 242.058C489.068 242.178 488.924 242.268 488.828 242.328C488.744 242.388 488.624 242.478 488.468 242.598C488.324 242.706 488.216 242.802 488.144 242.886C488.072 242.958 487.988 243.054 487.892 243.174C487.796 243.282 487.724 243.384 487.676 243.48C487.64 243.576 487.604 243.684 487.568 243.804C487.532 243.924 487.514 244.044 487.514 244.164L494.084 244.146V246H485.21V245.064C485.21 244.392 485.3 243.798 485.48 243.282C485.672 242.754 486.002 242.274 486.47 241.842C486.95 241.398 487.322 241.086 487.586 240.906C487.85 240.714 488.318 240.42 488.99 240.024C489.05 239.976 489.098 239.94 489.134 239.916C489.182 239.892 489.23 239.868 489.278 239.844C490.286 239.256 490.934 238.83 491.222 238.566C491.702 238.098 491.942 237.576 491.942 237C491.942 236.472 491.726 236.07 491.294 235.794C490.874 235.518 490.28 235.38 489.512 235.38C488.18 235.38 486.884 235.836 485.624 236.748V234.768ZM497.215 244.488C496.291 243.312 495.829 241.776 495.829 239.88C495.829 237.984 496.291 236.454 497.215 235.29C498.139 234.114 499.507 233.526 501.319 233.526C503.131 233.526 504.499 234.114 505.423 235.29C506.347 236.454 506.809 237.984 506.809 239.88C506.809 241.776 506.347 243.312 505.423 244.488C504.499 245.652 503.131 246.234 501.319 246.234C499.507 246.234 498.139 245.652 497.215 244.488ZM501.319 244.362C503.599 244.362 504.739 242.868 504.739 239.88C504.739 236.892 503.599 235.398 501.319 235.398C499.039 235.398 497.899 236.892 497.899 239.88C497.899 242.868 499.039 244.362 501.319 244.362Z" fill="#0FA7F0"/>
<path d="M59.906 233.76H61.418V244.146H63.596V246H56.936V244.146H59.384V235.866L56.936 236.784V234.894L59.906 233.76ZM68.882 237.63C68.882 236.334 69.314 235.326 70.178 234.606C71.042 233.886 72.122 233.526 73.418 233.526C75.23 233.526 76.568 234.066 77.432 235.146C78.308 236.226 78.746 237.768 78.746 239.772C78.746 241.908 78.218 243.522 77.162 244.614C76.106 245.694 74.744 246.234 73.076 246.234C71.96 246.234 70.904 245.994 69.908 245.514V243.642C70.832 244.158 71.822 244.416 72.878 244.416C73.91 244.416 74.768 244.11 75.452 243.498C76.148 242.886 76.556 241.896 76.676 240.528C75.572 241.188 74.384 241.518 73.112 241.518C71.972 241.518 70.982 241.176 70.142 240.492C69.302 239.808 68.882 238.854 68.882 237.63ZM73.562 235.29C72.794 235.29 72.164 235.476 71.672 235.848C71.192 236.208 70.952 236.772 70.952 237.54C70.952 238.32 71.21 238.884 71.726 239.232C72.242 239.568 72.902 239.736 73.706 239.736C74.81 239.736 75.794 239.394 76.658 238.71C76.442 236.43 75.41 235.29 73.562 235.29ZM81.8574 244.488C80.9334 243.312 80.4714 241.776 80.4714 239.88C80.4714 237.984 80.9334 236.454 81.8574 235.29C82.7814 234.114 84.1494 233.526 85.9614 233.526C87.7734 233.526 89.1414 234.114 90.0654 235.29C90.9894 236.454 91.4514 237.984 91.4514 239.88C91.4514 241.776 90.9894 243.312 90.0654 244.488C89.1414 245.652 87.7734 246.234 85.9614 246.234C84.1494 246.234 82.7814 245.652 81.8574 244.488ZM85.9614 244.362C88.2414 244.362 89.3814 242.868 89.3814 239.88C89.3814 236.892 88.2414 235.398 85.9614 235.398C83.6814 235.398 82.5414 236.892 82.5414 239.88C82.5414 242.868 83.6814 244.362 85.9614 244.362ZM94.5664 244.488C93.6424 243.312 93.1804 241.776 93.1804 239.88C93.1804 237.984 93.6424 236.454 94.5664 235.29C95.4904 234.114 96.8584 233.526 98.6704 233.526C100.482 233.526 101.85 234.114 102.774 235.29C103.698 236.454 104.16 237.984 104.16 239.88C104.16 241.776 103.698 243.312 102.774 244.488C101.85 245.652 100.482 246.234 98.6704 246.234C96.8584 246.234 95.4904 245.652 94.5664 244.488ZM98.6704 244.362C100.95 244.362 102.09 242.868 102.09 239.88C102.09 236.892 100.95 235.398 98.6704 235.398C96.3904 235.398 95.2504 236.892 95.2504 239.88C95.2504 242.868 96.3904 244.362 98.6704 244.362Z" fill="#F28100"/>
<path d="M484 187V142C484 139.239 481.761 137 479 137H86C83.2386 137 81 139.239 81 142V187" stroke="#DDDDE6"/>
<line x1="283.5" y1="87" x2="283.5" y2="187" stroke="#DDDDE6"/>
<circle cx="81" cy="188" r="5.5" fill="white" stroke="#DDDDE6"/>
<circle cx="283" cy="188" r="5.5" fill="white" stroke="#DDDDE6"/>
<circle cx="484" cy="188" r="5.5" fill="white" stroke="#DDDDE6"/>
</svg>
