<svg width="719" height="423" viewBox="0 0 719 423" fill="none" xmlns="http://www.w3.org/2000/svg">
<g filter="url(#filter0_d_1735_180)">
<path d="M50 61C50 52.7157 56.7157 46 65 46H654C662.284 46 669 52.7157 669 61V354C669 362.284 662.284 369 654 369H65C56.7157 369 50 362.284 50 354V61Z" fill="white"/>
</g>
<path d="M278 75C278 72.2386 280.239 70 283 70H435C437.761 70 440 72.2386 440 75V152C440 154.761 437.761 157 435 157H283C280.239 157 278 154.761 278 152V75Z" fill="#37376D"/>
<path d="M283 257.5H435C437.485 257.5 439.5 259.515 439.5 262V339C439.5 341.485 437.485 343.5 435 343.5H283C280.515 343.5 278.5 341.485 278.5 339V262C278.5 259.515 280.515 257.5 283 257.5Z" fill="white" stroke="#DDDDE6"/>
<path d="M485 257.5H637C639.485 257.5 641.5 259.515 641.5 262V339C641.5 341.485 639.485 343.5 637 343.5H485C482.515 343.5 480.5 341.485 480.5 339V262C480.5 259.515 482.515 257.5 485 257.5Z" fill="white" stroke="#DDDDE6"/>
<path d="M82 257.5H234C236.485 257.5 238.5 259.515 238.5 262V339C238.5 341.485 236.485 343.5 234 343.5H82C79.5147 343.5 77.5 341.485 77.5 339V262C77.5 259.515 79.5147 257.5 82 257.5Z" fill="white" stroke="#DDDDE6"/>
<path d="M329.017 94.4L324.229 101.618L319.441 94.4H317.587V107H319.639V98.162L323.617 104.156H324.841L328.819 98.18V107H330.871V94.4H329.017ZM335.516 107H333.934V97.3496H335.516V107ZM333.811 94.7393C333.811 94.3877 333.898 94.1328 334.074 93.9746C334.256 93.8164 334.479 93.7373 334.742 93.7373C334.988 93.7373 335.202 93.8164 335.384 93.9746C335.571 94.1328 335.665 94.3877 335.665 94.7393C335.665 95.085 335.571 95.3398 335.384 95.5039C335.202 95.668 334.988 95.75 334.742 95.75C334.479 95.75 334.256 95.668 334.074 95.5039C333.898 95.3398 333.811 95.085 333.811 94.7393ZM344.983 96.416V94.85C344.065 95.426 343.255 95.606 342.355 95.606C341.455 95.606 340.645 95.426 339.727 94.85V96.416C340.519 96.956 341.383 97.154 342.355 97.154C343.327 97.154 344.191 96.956 344.983 96.416ZM339.907 107L344.533 101.348V107H346.459V98.36H344.803L340.177 104.012V98.36H338.251V107H339.907ZM357.136 107V100.052H360.106V98.36H352.222V100.052H355.21V107H357.136ZM360.844 102.68C360.844 105.668 363.112 107.234 365.524 107.234C367.954 107.234 370.204 105.668 370.204 102.68C370.204 99.692 367.954 98.126 365.524 98.126C363.112 98.126 360.844 99.692 360.844 102.68ZM368.242 102.68C368.242 104.372 367.126 105.47 365.524 105.47C363.904 105.47 362.788 104.372 362.788 102.68C362.788 100.988 363.904 99.89 365.524 99.89C367.126 99.89 368.242 100.988 368.242 102.68ZM377.147 107C379.145 107 379.991 105.956 379.991 104.624C379.991 103.562 379.325 102.878 378.515 102.626C379.253 102.302 379.739 101.618 379.739 100.664C379.739 99.314 378.749 98.36 377.003 98.36H372.071V107H377.147ZM373.997 103.328H376.715C377.381 103.328 378.047 103.562 378.047 104.444C378.047 105.272 377.471 105.542 376.679 105.542H373.997V103.328ZM373.997 99.818H376.571C377.165 99.818 377.795 100.07 377.795 100.916C377.795 101.69 377.255 101.96 376.571 101.96H373.997V99.818ZM389.295 105.002V101.906C389.295 99.296 387.747 98.126 385.299 98.126C383.913 98.126 382.671 98.468 381.987 98.702V100.466C382.761 100.124 383.823 99.8 385.101 99.8C386.577 99.8 387.369 100.556 387.369 101.636V101.942C386.685 101.798 385.857 101.69 385.119 101.69C383.319 101.69 381.267 102.374 381.267 104.588C381.267 106.37 382.725 107.234 384.291 107.234C385.641 107.234 386.703 106.802 387.549 106.118C387.855 106.82 388.485 107.126 389.277 107.126C389.709 107.126 390.141 107.054 390.501 106.91V105.524C390.321 105.578 390.123 105.632 389.925 105.632C389.583 105.632 389.295 105.488 389.295 105.002ZM385.497 103.04C386.109 103.04 386.847 103.148 387.369 103.256V104.714C386.685 105.398 385.785 105.74 384.867 105.74C384.003 105.74 383.247 105.308 383.247 104.462C383.247 103.382 384.399 103.04 385.497 103.04ZM393.662 99.71V98.36H391.952V110.96H393.878V105.884C394.472 106.568 395.48 107.234 396.992 107.234C399.584 107.234 401.276 105.164 401.276 102.68C401.276 100.196 399.584 98.126 396.992 98.126C395.372 98.126 394.346 98.882 393.662 99.71ZM399.314 102.68C399.314 104.372 398.198 105.542 396.632 105.542C395.3 105.542 394.292 104.678 393.878 103.724V101.618C394.292 100.682 395.3 99.818 396.632 99.818C398.198 99.818 399.314 100.988 399.314 102.68Z" fill="white"/>
<path d="M322.286 294H320.108L325.436 281.4H327.686L332.996 294H330.836L329.72 291.282H323.402L322.286 294ZM326.318 284.1L324.104 289.482H329L326.786 284.1C326.69 283.836 326.612 283.602 326.552 283.398C326.492 283.602 326.414 283.836 326.318 284.1ZM336.228 294H334.302V285.36H336.228V288.834H340.548V285.36H342.474V294H340.548V290.526H336.228V294ZM352.246 292.002C352.246 292.422 352.456 292.632 352.876 292.632C353.02 292.632 353.212 292.596 353.452 292.524V293.91C353.092 294.054 352.684 294.126 352.228 294.126C351.364 294.126 350.788 293.79 350.5 293.118C349.576 293.862 348.49 294.234 347.242 294.234C346.402 294.234 345.688 294.006 345.1 293.55C344.512 293.082 344.218 292.428 344.218 291.588C344.218 290.58 344.596 289.848 345.352 289.392C346.108 288.924 347.014 288.69 348.07 288.69C348.766 288.69 349.516 288.774 350.32 288.942V288.636C350.32 288.084 350.122 287.64 349.726 287.304C349.33 286.968 348.772 286.8 348.052 286.8C346.984 286.8 345.946 287.022 344.938 287.466V285.702C346.066 285.318 347.17 285.126 348.25 285.126C349.51 285.126 350.488 285.438 351.184 286.062C351.892 286.686 352.246 287.634 352.246 288.906V292.002ZM348.448 290.04C347.812 290.04 347.278 290.154 346.846 290.382C346.414 290.61 346.198 290.97 346.198 291.462C346.198 291.87 346.354 292.188 346.666 292.416C346.978 292.632 347.362 292.74 347.818 292.74C348.802 292.74 349.636 292.398 350.32 291.714V290.256C349.624 290.112 349 290.04 348.448 290.04ZM358.341 286.998C358.269 288.126 358.173 289.092 358.053 289.896C357.933 290.7 357.753 291.444 357.513 292.128C357.273 292.8 356.955 293.31 356.559 293.658C356.175 293.994 355.701 294.162 355.137 294.162C354.765 294.162 354.369 294.084 353.949 293.928V292.416C354.153 292.488 354.339 292.524 354.507 292.524C355.191 292.524 355.671 291.93 355.947 290.742C356.235 289.542 356.427 287.748 356.523 285.36H363.183V294H361.257V286.998H358.341ZM366.419 293.028C365.507 292.224 365.051 291.108 365.051 289.68C365.051 288.252 365.507 287.136 366.419 286.332C367.343 285.528 368.447 285.126 369.731 285.126C371.027 285.126 372.131 285.528 373.043 286.332C373.955 287.136 374.411 288.252 374.411 289.68C374.411 291.108 373.955 292.224 373.043 293.028C372.131 293.832 371.027 294.234 369.731 294.234C368.447 294.234 367.343 293.832 366.419 293.028ZM371.693 291.714C372.197 291.198 372.449 290.52 372.449 289.68C372.449 288.84 372.197 288.168 371.693 287.664C371.189 287.148 370.535 286.89 369.731 286.89C368.915 286.89 368.255 287.148 367.751 287.664C367.247 288.168 366.995 288.84 366.995 289.68C366.995 290.52 367.247 291.198 367.751 291.714C368.255 292.218 368.915 292.47 369.731 292.47C370.535 292.47 371.189 292.218 371.693 291.714ZM378.204 294H376.278V285.36H382.722V287.052H378.204V294ZM388.459 282.768C389.671 281.94 391.027 281.526 392.527 281.526C393.811 281.526 394.849 281.826 395.641 282.426C396.433 283.014 396.829 283.86 396.829 284.964C396.829 285.888 396.523 286.68 395.911 287.34C395.311 287.988 394.489 288.624 393.445 289.248C393.361 289.296 393.205 289.386 392.977 289.518C392.761 289.65 392.605 289.746 392.509 289.806C392.425 289.854 392.287 289.938 392.095 290.058C391.903 290.178 391.759 290.268 391.663 290.328C391.579 290.388 391.459 290.478 391.303 290.598C391.159 290.706 391.051 290.802 390.979 290.886C390.907 290.958 390.823 291.054 390.727 291.174C390.631 291.282 390.559 291.384 390.511 291.48C390.475 291.576 390.439 291.684 390.403 291.804C390.367 291.924 390.349 292.044 390.349 292.164L396.919 292.146V294H388.045V293.064C388.045 292.392 388.135 291.798 388.315 291.282C388.507 290.754 388.837 290.274 389.305 289.842C389.785 289.398 390.157 289.086 390.421 288.906C390.685 288.714 391.153 288.42 391.825 288.024C391.885 287.976 391.933 287.94 391.969 287.916C392.017 287.892 392.065 287.868 392.113 287.844C393.121 287.256 393.769 286.83 394.057 286.566C394.537 286.098 394.777 285.576 394.777 285C394.777 284.472 394.561 284.07 394.129 283.794C393.709 283.518 393.115 283.38 392.347 283.38C391.015 283.38 389.719 283.836 388.459 284.748V282.768Z" fill="#37376D"/>
<path d="M524.286 294H522.108L527.436 281.4H529.686L534.996 294H532.836L531.72 291.282H525.402L524.286 294ZM528.318 284.1L526.104 289.482H531L528.786 284.1C528.69 283.836 528.612 283.602 528.552 283.398C528.492 283.602 528.414 283.836 528.318 284.1ZM538.228 294H536.302V285.36H538.228V288.834H542.548V285.36H544.474V294H542.548V290.526H538.228V294ZM554.246 292.002C554.246 292.422 554.456 292.632 554.876 292.632C555.02 292.632 555.212 292.596 555.452 292.524V293.91C555.092 294.054 554.684 294.126 554.228 294.126C553.364 294.126 552.788 293.79 552.5 293.118C551.576 293.862 550.49 294.234 549.242 294.234C548.402 294.234 547.688 294.006 547.1 293.55C546.512 293.082 546.218 292.428 546.218 291.588C546.218 290.58 546.596 289.848 547.352 289.392C548.108 288.924 549.014 288.69 550.07 288.69C550.766 288.69 551.516 288.774 552.32 288.942V288.636C552.32 288.084 552.122 287.64 551.726 287.304C551.33 286.968 550.772 286.8 550.052 286.8C548.984 286.8 547.946 287.022 546.938 287.466V285.702C548.066 285.318 549.17 285.126 550.25 285.126C551.51 285.126 552.488 285.438 553.184 286.062C553.892 286.686 554.246 287.634 554.246 288.906V292.002ZM550.448 290.04C549.812 290.04 549.278 290.154 548.846 290.382C548.414 290.61 548.198 290.97 548.198 291.462C548.198 291.87 548.354 292.188 548.666 292.416C548.978 292.632 549.362 292.74 549.818 292.74C550.802 292.74 551.636 292.398 552.32 291.714V290.256C551.624 290.112 551 290.04 550.448 290.04ZM560.341 286.998C560.269 288.126 560.173 289.092 560.053 289.896C559.933 290.7 559.753 291.444 559.513 292.128C559.273 292.8 558.955 293.31 558.559 293.658C558.175 293.994 557.701 294.162 557.137 294.162C556.765 294.162 556.369 294.084 555.949 293.928V292.416C556.153 292.488 556.339 292.524 556.507 292.524C557.191 292.524 557.671 291.93 557.947 290.742C558.235 289.542 558.427 287.748 558.523 285.36H565.183V294H563.257V286.998H560.341ZM568.419 293.028C567.507 292.224 567.051 291.108 567.051 289.68C567.051 288.252 567.507 287.136 568.419 286.332C569.343 285.528 570.447 285.126 571.731 285.126C573.027 285.126 574.131 285.528 575.043 286.332C575.955 287.136 576.411 288.252 576.411 289.68C576.411 291.108 575.955 292.224 575.043 293.028C574.131 293.832 573.027 294.234 571.731 294.234C570.447 294.234 569.343 293.832 568.419 293.028ZM573.693 291.714C574.197 291.198 574.449 290.52 574.449 289.68C574.449 288.84 574.197 288.168 573.693 287.664C573.189 287.148 572.535 286.89 571.731 286.89C570.915 286.89 570.255 287.148 569.751 287.664C569.247 288.168 568.995 288.84 568.995 289.68C568.995 290.52 569.247 291.198 569.751 291.714C570.255 292.218 570.915 292.47 571.731 292.47C572.535 292.47 573.189 292.218 573.693 291.714ZM580.204 294H578.278V285.36H584.722V287.052H580.204V294ZM598.595 284.874C598.595 285.51 598.427 286.068 598.091 286.548C597.767 287.028 597.329 287.358 596.777 287.538C597.437 287.742 597.989 288.102 598.433 288.618C598.877 289.134 599.099 289.818 599.099 290.67C599.099 291.834 598.655 292.722 597.767 293.334C596.879 293.934 595.763 294.234 594.419 294.234C592.847 294.234 591.431 293.964 590.171 293.424V291.444C591.347 292.092 592.709 292.404 594.257 292.38C596.177 292.356 597.137 291.714 597.137 290.454C597.137 289.23 596.273 288.618 594.545 288.618H592.601V286.764L594.311 286.782C595.055 286.782 595.625 286.638 596.021 286.35C596.429 286.05 596.633 285.642 596.633 285.126C596.633 284.574 596.405 284.148 595.949 283.848C595.505 283.536 594.869 283.38 594.041 283.38C592.769 283.38 591.551 283.716 590.387 284.388V282.426C591.527 281.826 592.835 281.526 594.311 281.526C595.595 281.526 596.627 281.826 597.407 282.426C598.199 283.026 598.595 283.842 598.595 284.874Z" fill="#37376D"/>
<path d="M122.286 294H120.108L125.436 281.4H127.686L132.996 294H130.836L129.72 291.282H123.402L122.286 294ZM126.318 284.1L124.104 289.482H129L126.786 284.1C126.69 283.836 126.612 283.602 126.552 283.398C126.492 283.602 126.414 283.836 126.318 284.1ZM136.228 294H134.302V285.36H136.228V288.834H140.548V285.36H142.474V294H140.548V290.526H136.228V294ZM152.246 292.002C152.246 292.422 152.456 292.632 152.876 292.632C153.02 292.632 153.212 292.596 153.452 292.524V293.91C153.092 294.054 152.684 294.126 152.228 294.126C151.364 294.126 150.788 293.79 150.5 293.118C149.576 293.862 148.49 294.234 147.242 294.234C146.402 294.234 145.688 294.006 145.1 293.55C144.512 293.082 144.218 292.428 144.218 291.588C144.218 290.58 144.596 289.848 145.352 289.392C146.108 288.924 147.014 288.69 148.07 288.69C148.766 288.69 149.516 288.774 150.32 288.942V288.636C150.32 288.084 150.122 287.64 149.726 287.304C149.33 286.968 148.772 286.8 148.052 286.8C146.984 286.8 145.946 287.022 144.938 287.466V285.702C146.066 285.318 147.17 285.126 148.25 285.126C149.51 285.126 150.488 285.438 151.184 286.062C151.892 286.686 152.246 287.634 152.246 288.906V292.002ZM148.448 290.04C147.812 290.04 147.278 290.154 146.846 290.382C146.414 290.61 146.198 290.97 146.198 291.462C146.198 291.87 146.354 292.188 146.666 292.416C146.978 292.632 147.362 292.74 147.818 292.74C148.802 292.74 149.636 292.398 150.32 291.714V290.256C149.624 290.112 149 290.04 148.448 290.04ZM158.341 286.998C158.269 288.126 158.173 289.092 158.053 289.896C157.933 290.7 157.753 291.444 157.513 292.128C157.273 292.8 156.955 293.31 156.559 293.658C156.175 293.994 155.701 294.162 155.137 294.162C154.765 294.162 154.369 294.084 153.949 293.928V292.416C154.153 292.488 154.339 292.524 154.507 292.524C155.191 292.524 155.671 291.93 155.947 290.742C156.235 289.542 156.427 287.748 156.523 285.36H163.183V294H161.257V286.998H158.341ZM166.419 293.028C165.507 292.224 165.051 291.108 165.051 289.68C165.051 288.252 165.507 287.136 166.419 286.332C167.343 285.528 168.447 285.126 169.731 285.126C171.027 285.126 172.131 285.528 173.043 286.332C173.955 287.136 174.411 288.252 174.411 289.68C174.411 291.108 173.955 292.224 173.043 293.028C172.131 293.832 171.027 294.234 169.731 294.234C168.447 294.234 167.343 293.832 166.419 293.028ZM171.693 291.714C172.197 291.198 172.449 290.52 172.449 289.68C172.449 288.84 172.197 288.168 171.693 287.664C171.189 287.148 170.535 286.89 169.731 286.89C168.915 286.89 168.255 287.148 167.751 287.664C167.247 288.168 166.995 288.84 166.995 289.68C166.995 290.52 167.247 291.198 167.751 291.714C168.255 292.218 168.915 292.47 169.731 292.47C170.535 292.47 171.189 292.218 171.693 291.714ZM178.204 294H176.278V285.36H182.722V287.052H178.204V294ZM191.177 281.76H192.689V292.146H194.867V294H188.207V292.146H190.655V283.866L188.207 284.784V282.894L191.177 281.76Z" fill="#37376D"/>
<path d="M309.53 116.4V129H314.894C316.892 129 319.682 128.37 319.682 125.508C319.682 123.546 318.332 122.682 317.198 122.358C318.26 122.016 319.178 121.116 319.178 119.586C319.178 117.444 317.486 116.4 314.858 116.4H309.53ZM317.594 125.292C317.594 127.038 316.1 127.2 314.696 127.2H311.582V123.366H314.984C316.118 123.366 317.594 123.618 317.594 125.292ZM317.09 119.91C317.09 121.134 316.118 121.638 314.93 121.638L311.582 121.62V118.182H314.642C316.154 118.182 317.09 118.65 317.09 119.91ZM327.831 129V125.526H332.151V129H334.077V120.36H332.151V123.834H327.831V120.36H325.905V129H327.831ZM343.849 127.002V123.906C343.849 121.296 342.301 120.126 339.853 120.126C338.467 120.126 337.225 120.468 336.541 120.702V122.466C337.315 122.124 338.377 121.8 339.655 121.8C341.131 121.8 341.923 122.556 341.923 123.636V123.942C341.239 123.798 340.411 123.69 339.673 123.69C337.873 123.69 335.821 124.374 335.821 126.588C335.821 128.37 337.279 129.234 338.845 129.234C340.195 129.234 341.257 128.802 342.103 128.118C342.409 128.82 343.039 129.126 343.831 129.126C344.263 129.126 344.695 129.054 345.055 128.91V127.524C344.875 127.578 344.677 127.632 344.479 127.632C344.137 127.632 343.849 127.488 343.849 127.002ZM340.051 125.04C340.663 125.04 341.401 125.148 341.923 125.256V126.714C341.239 127.398 340.339 127.74 339.421 127.74C338.557 127.74 337.801 127.308 337.801 126.462C337.801 125.382 338.953 125.04 340.051 125.04ZM347.947 129L350.089 126.174H352.051V129H353.977V120.36H349.513C347.353 120.36 346.183 121.71 346.183 123.276C346.183 124.464 346.849 125.526 348.109 125.958L345.733 129H347.947ZM348.145 123.294C348.145 122.448 348.775 121.962 349.837 121.962H352.051V124.626H349.837C348.775 124.626 348.145 124.14 348.145 123.294ZM361.462 129C363.46 129 364.306 127.956 364.306 126.624C364.306 125.562 363.64 124.878 362.83 124.626C363.568 124.302 364.054 123.618 364.054 122.664C364.054 121.314 363.064 120.36 361.318 120.36H356.386V129H361.462ZM358.312 125.328H361.03C361.696 125.328 362.362 125.562 362.362 126.444C362.362 127.272 361.786 127.542 360.994 127.542H358.312V125.328ZM358.312 121.818H360.886C361.48 121.818 362.11 122.07 362.11 122.916C362.11 123.69 361.57 123.96 360.886 123.96H358.312V121.818ZM368.173 129V125.526H372.493V129H374.419V120.36H372.493V123.834H368.173V120.36H366.247V129H368.173ZM376.289 124.68C376.289 127.668 378.557 129.234 380.969 129.234C383.399 129.234 385.649 127.668 385.649 124.68C385.649 121.692 383.399 120.126 380.969 120.126C378.557 120.126 376.289 121.692 376.289 124.68ZM383.687 124.68C383.687 126.372 382.571 127.47 380.969 127.47C379.349 127.47 378.233 126.372 378.233 124.68C378.233 122.988 379.349 121.89 380.969 121.89C382.571 121.89 383.687 122.988 383.687 124.68ZM386.977 124.752C386.977 127.83 389.335 129.234 391.639 129.234C392.737 129.234 393.673 129.036 394.501 128.64V126.858C393.817 127.254 392.899 127.524 391.981 127.524C390.433 127.524 388.939 126.642 388.939 124.68C388.939 122.646 390.487 121.836 392.017 121.836C392.899 121.836 393.781 122.106 394.411 122.556V120.792C393.655 120.342 392.719 120.126 391.747 120.126C389.443 120.126 386.977 121.53 386.977 124.752ZM400.443 129V122.052H403.413V120.36H395.529V122.052H398.517V129H400.443ZM406.824 129H405.242V119.35H406.824V129ZM405.119 116.739C405.119 116.388 405.207 116.133 405.383 115.975C405.564 115.816 405.787 115.737 406.051 115.737C406.297 115.737 406.511 115.816 406.692 115.975C406.88 116.133 406.974 116.388 406.974 116.739C406.974 117.085 406.88 117.34 406.692 117.504C406.511 117.668 406.297 117.75 406.051 117.75C405.787 117.75 405.564 117.668 405.383 117.504C405.207 117.34 405.119 117.085 405.119 116.739Z" fill="white"/>
<path d="M322.433 312.58C322.433 310.618 321.101 309.664 319.877 309.376C321.065 308.98 321.929 308.008 321.929 306.55C321.929 304.264 319.913 303.166 317.105 303.166C315.683 303.166 314.369 303.4 313.001 303.976V305.992C314.441 305.308 315.647 305.056 316.943 305.074C318.707 305.074 319.841 305.542 319.841 306.838C319.841 307.972 318.833 308.548 317.303 308.548H314.783V310.42H317.483C318.923 310.42 320.345 310.816 320.345 312.328C320.345 313.93 318.743 314.326 317.195 314.326C315.719 314.344 314.297 314.146 312.785 313.426V315.424C314.315 316 315.755 316.234 317.357 316.234C319.769 316.234 322.433 315.352 322.433 312.58ZM331.76 314.002V310.906C331.76 308.296 330.212 307.126 327.764 307.126C326.378 307.126 325.136 307.468 324.452 307.702V309.466C325.226 309.124 326.288 308.8 327.566 308.8C329.042 308.8 329.834 309.556 329.834 310.636V310.942C329.15 310.798 328.322 310.69 327.584 310.69C325.784 310.69 323.732 311.374 323.732 313.588C323.732 315.37 325.19 316.234 326.756 316.234C328.106 316.234 329.168 315.802 330.014 315.118C330.32 315.82 330.95 316.126 331.742 316.126C332.174 316.126 332.606 316.054 332.966 315.91V314.524C332.786 314.578 332.588 314.632 332.39 314.632C332.048 314.632 331.76 314.488 331.76 314.002ZM327.962 312.04C328.574 312.04 329.312 312.148 329.834 312.256V313.714C329.15 314.398 328.25 314.74 327.332 314.74C326.468 314.74 325.712 314.308 325.712 313.462C325.712 312.382 326.864 312.04 327.962 312.04ZM336.344 316V312.418H337.73L340.574 316H342.788L339.314 311.644L342.446 307.36H340.25L337.766 310.78H336.344V307.36H334.418V316H336.344ZM345.956 316H344.374V306.35H345.956V316ZM344.251 303.739C344.251 303.388 344.339 303.133 344.515 302.975C344.696 302.816 344.919 302.737 345.183 302.737C345.429 302.737 345.643 302.816 345.824 302.975C346.012 303.133 346.105 303.388 346.105 303.739C346.105 304.085 346.012 304.34 345.824 304.504C345.643 304.668 345.429 304.75 345.183 304.75C344.919 304.75 344.696 304.668 344.515 304.504C344.339 304.34 344.251 304.085 344.251 303.739ZM350.617 316V312.526H354.937V316H356.863V307.36H354.937V310.834H350.617V307.36H348.691V316H350.617ZM366.437 316V307.36H364.511V311.536C363.935 311.752 363.377 311.86 362.657 311.86C361.451 311.86 360.677 311.482 360.677 310.222V307.36H358.751V310.384C358.751 312.562 360.173 313.552 362.099 313.552C363.071 313.552 363.773 313.408 364.511 313.138V316H366.437ZM370.509 316L375.135 310.348V316H377.061V307.36H375.405L370.779 313.012V307.36H368.853V316H370.509ZM384.547 316C386.545 316 387.391 314.956 387.391 313.624C387.391 312.562 386.725 311.878 385.915 311.626C386.653 311.302 387.139 310.618 387.139 309.664C387.139 308.314 386.149 307.36 384.403 307.36H379.471V316H384.547ZM381.397 312.328H384.115C384.781 312.328 385.447 312.562 385.447 313.444C385.447 314.272 384.871 314.542 384.079 314.542H381.397V312.328ZM381.397 308.818H383.971C384.565 308.818 385.195 309.07 385.195 309.916C385.195 310.69 384.655 310.96 383.971 310.96H381.397V308.818ZM388.792 311.752C388.792 314.83 391.15 316.234 393.454 316.234C394.552 316.234 395.488 316.036 396.316 315.64V313.858C395.632 314.254 394.714 314.524 393.796 314.524C392.248 314.524 390.754 313.642 390.754 311.68C390.754 309.646 392.302 308.836 393.832 308.836C394.714 308.836 395.596 309.106 396.226 309.556V307.792C395.47 307.342 394.534 307.126 393.562 307.126C391.258 307.126 388.792 308.53 388.792 311.752ZM399.684 316L401.826 313.174H403.788V316H405.714V307.36H401.25C399.09 307.36 397.92 308.71 397.92 310.276C397.92 311.464 398.586 312.526 399.846 312.958L397.47 316H399.684ZM399.882 310.294C399.882 309.448 400.512 308.962 401.574 308.962H403.788V311.626H401.574C400.512 311.626 399.882 311.14 399.882 310.294Z" fill="#F28100"/>
<path d="M512.853 303.4V316H518.217C520.215 316 523.005 315.37 523.005 312.508C523.005 310.546 521.655 309.682 520.521 309.358C521.583 309.016 522.501 308.116 522.501 306.586C522.501 304.444 520.809 303.4 518.181 303.4H512.853ZM520.917 312.292C520.917 314.038 519.423 314.2 518.019 314.2H514.905V310.366H518.307C519.441 310.366 520.917 310.618 520.917 312.292ZM520.413 306.91C520.413 308.134 519.441 308.638 518.253 308.638L514.905 308.62V305.182H517.965C519.477 305.182 520.413 305.65 520.413 306.91ZM531.154 316V312.526H535.474V316H537.4V307.36H535.474V310.834H531.154V307.36H529.228V316H531.154ZM547.172 314.002V310.906C547.172 308.296 545.624 307.126 543.176 307.126C541.79 307.126 540.548 307.468 539.864 307.702V309.466C540.638 309.124 541.7 308.8 542.978 308.8C544.454 308.8 545.246 309.556 545.246 310.636V310.942C544.562 310.798 543.734 310.69 542.996 310.69C541.196 310.69 539.144 311.374 539.144 313.588C539.144 315.37 540.602 316.234 542.168 316.234C543.518 316.234 544.58 315.802 545.426 315.118C545.732 315.82 546.362 316.126 547.154 316.126C547.586 316.126 548.018 316.054 548.378 315.91V314.524C548.198 314.578 548 314.632 547.802 314.632C547.46 314.632 547.172 314.488 547.172 314.002ZM543.374 312.04C543.986 312.04 544.724 312.148 545.246 312.256V313.714C544.562 314.398 543.662 314.74 542.744 314.74C541.88 314.74 541.124 314.308 541.124 313.462C541.124 312.382 542.276 312.04 543.374 312.04ZM551.27 316L553.412 313.174H555.374V316H557.3V307.36H552.836C550.676 307.36 549.506 308.71 549.506 310.276C549.506 311.464 550.172 312.526 551.432 312.958L549.056 316H551.27ZM551.468 310.294C551.468 309.448 552.098 308.962 553.16 308.962H555.374V311.626H553.16C552.098 311.626 551.468 311.14 551.468 310.294ZM564.785 316C566.783 316 567.629 314.956 567.629 313.624C567.629 312.562 566.963 311.878 566.153 311.626C566.891 311.302 567.377 310.618 567.377 309.664C567.377 308.314 566.387 307.36 564.641 307.36H559.709V316H564.785ZM561.635 312.328H564.353C565.019 312.328 565.685 312.562 565.685 313.444C565.685 314.272 565.109 314.542 564.317 314.542H561.635V312.328ZM561.635 308.818H564.209C564.803 308.818 565.433 309.07 565.433 309.916C565.433 310.69 564.893 310.96 564.209 310.96H561.635V308.818ZM571.496 316V312.526H575.816V316H577.742V307.36H575.816V310.834H571.496V307.36H569.57V316H571.496ZM579.612 311.68C579.612 314.668 581.88 316.234 584.292 316.234C586.722 316.234 588.972 314.668 588.972 311.68C588.972 308.692 586.722 307.126 584.292 307.126C581.88 307.126 579.612 308.692 579.612 311.68ZM587.01 311.68C587.01 313.372 585.894 314.47 584.292 314.47C582.672 314.47 581.556 313.372 581.556 311.68C581.556 309.988 582.672 308.89 584.292 308.89C585.894 308.89 587.01 309.988 587.01 311.68ZM590.3 311.752C590.3 314.83 592.658 316.234 594.962 316.234C596.06 316.234 596.996 316.036 597.824 315.64V313.858C597.14 314.254 596.222 314.524 595.304 314.524C593.756 314.524 592.262 313.642 592.262 311.68C592.262 309.646 593.81 308.836 595.34 308.836C596.222 308.836 597.104 309.106 597.734 309.556V307.792C596.978 307.342 596.042 307.126 595.07 307.126C592.766 307.126 590.3 308.53 590.3 311.752ZM603.766 316V309.052H606.736V307.36H598.852V309.052H601.84V316H603.766ZM610.147 316H608.565V306.35H610.147V316ZM608.442 303.739C608.442 303.388 608.53 303.133 608.706 302.975C608.888 302.816 609.11 302.737 609.374 302.737C609.62 302.737 609.834 302.816 610.016 302.975C610.203 303.133 610.297 303.388 610.297 303.739C610.297 304.085 610.203 304.34 610.016 304.504C609.834 304.668 609.62 304.75 609.374 304.75C609.11 304.75 608.888 304.668 608.706 304.504C608.53 304.34 608.442 304.085 608.442 303.739Z" fill="#0FA7F0"/>
<path d="M107.413 303.4V308.746H100.771V303.4H98.7195V316H100.771V310.636H107.413V316H109.465V303.4H107.413ZM111.443 311.68C111.443 314.722 113.693 316.234 116.339 316.234C117.545 316.234 118.643 316.018 119.435 315.64V313.984C118.697 314.344 117.743 314.596 116.699 314.596C115.115 314.596 113.603 313.948 113.387 312.4H119.885C120.443 309.898 119.255 307.126 115.817 307.126C113.819 307.126 111.443 308.548 111.443 311.68ZM118.157 310.96H113.369C113.441 309.502 114.611 308.728 115.907 308.728C117.797 308.728 118.265 310.204 118.157 310.96ZM132.831 313.642C132.831 312.562 132.111 311.842 131.121 311.572C132.021 311.338 132.651 310.672 132.651 309.646C132.651 308.242 131.535 307.108 128.871 307.108C127.683 307.108 126.531 307.396 125.703 307.792V309.448C126.441 309.052 127.629 308.746 128.637 308.746C129.879 308.746 130.707 309.124 130.707 309.898C130.707 310.618 130.005 310.87 129.087 310.87H127.323V312.346H129.087C129.951 312.346 130.887 312.49 130.887 313.408C130.887 314.362 129.807 314.596 128.529 314.596C127.485 314.596 126.243 314.272 125.541 313.876V315.532C126.333 315.946 127.485 316.234 128.781 316.234C131.445 316.234 132.831 315.154 132.831 313.642ZM136.691 316V312.526H141.011V316H142.937V307.36H141.011V310.834H136.691V307.36H134.765V316H136.691ZM152.709 314.002V310.906C152.709 308.296 151.161 307.126 148.713 307.126C147.327 307.126 146.085 307.468 145.401 307.702V309.466C146.175 309.124 147.237 308.8 148.515 308.8C149.991 308.8 150.783 309.556 150.783 310.636V310.942C150.099 310.798 149.271 310.69 148.533 310.69C146.733 310.69 144.681 311.374 144.681 313.588C144.681 315.37 146.139 316.234 147.705 316.234C149.055 316.234 150.117 315.802 150.963 315.118C151.269 315.82 151.899 316.126 152.691 316.126C153.123 316.126 153.555 316.054 153.915 315.91V314.524C153.735 314.578 153.537 314.632 153.339 314.632C152.997 314.632 152.709 314.488 152.709 314.002ZM148.911 312.04C149.523 312.04 150.261 312.148 150.783 312.256V313.714C150.099 314.398 149.199 314.74 148.281 314.74C147.417 314.74 146.661 314.308 146.661 313.462C146.661 312.382 147.813 312.04 148.911 312.04ZM162.098 305.416V303.85C161.18 304.426 160.37 304.606 159.47 304.606C158.57 304.606 157.76 304.426 156.842 303.85V305.416C157.634 305.956 158.498 306.154 159.47 306.154C160.442 306.154 161.306 305.956 162.098 305.416ZM157.022 316L161.648 310.348V316H163.574V307.36H161.918L157.292 313.012V307.36H155.366V316H157.022ZM167.027 318.322V316H173.975V318.322H175.793V314.416H174.515V307.36H167.765C167.801 310.366 167.441 312.562 166.397 314.416H165.209V318.322H167.027ZM169.565 308.944H172.571V314.416H168.413C169.133 312.886 169.493 311.266 169.565 308.944ZM176.834 311.68C176.834 314.722 179.084 316.234 181.73 316.234C182.936 316.234 184.034 316.018 184.826 315.64V313.984C184.088 314.344 183.134 314.596 182.09 314.596C180.506 314.596 178.994 313.948 178.778 312.4H185.276C185.834 309.898 184.646 307.126 181.208 307.126C179.21 307.126 176.834 308.548 176.834 311.68ZM183.548 310.96H178.76C178.832 309.502 180.002 308.728 181.298 308.728C183.188 308.728 183.656 310.204 183.548 310.96ZM189.126 316V312.526H193.446V316H195.372V307.36H193.446V310.834H189.126V307.36H187.2V316H189.126ZM199.438 316L204.064 310.348V316H205.99V307.36H204.334L199.708 313.012V307.36H197.782V316H199.438ZM215.131 305.416V303.85C214.213 304.426 213.403 304.606 212.503 304.606C211.603 304.606 210.793 304.426 209.875 303.85V305.416C210.667 305.956 211.531 306.154 212.503 306.154C213.475 306.154 214.339 305.956 215.131 305.416ZM210.055 316L214.681 310.348V316H216.607V307.36H214.951L210.325 313.012V307.36H208.399V316H210.055Z" fill="#9B9BB6"/>
<path d="M561 257V212C561 209.239 558.761 207 556 207H163C160.239 207 158 209.239 158 212V257" stroke="#DDDDE6"/>
<line x1="360.5" y1="157" x2="360.5" y2="257" stroke="#DDDDE6"/>
<circle cx="158" cy="258" r="5.5" fill="white" stroke="#DDDDE6"/>
<circle cx="360" cy="258" r="5.5" fill="white" stroke="#DDDDE6"/>
<circle cx="561" cy="258" r="5.5" fill="white" stroke="#DDDDE6"/>
<defs>
<filter id="filter0_d_1735_180" x="0" y="0" width="719" height="423" filterUnits="userSpaceOnUse" color-interpolation-filters="sRGB">
<feFlood flood-opacity="0" result="BackgroundImageFix"/>
<feColorMatrix in="SourceAlpha" type="matrix" values="0 0 0 0 0 0 0 0 0 0 0 0 0 0 0 0 0 0 127 0" result="hardAlpha"/>
<feOffset dy="4"/>
<feGaussianBlur stdDeviation="25"/>
<feComposite in2="hardAlpha" operator="out"/>
<feColorMatrix type="matrix" values="0 0 0 0 0 0 0 0 0 0 0 0 0 0 0 0 0 0 0.1 0"/>
<feBlend mode="normal" in2="BackgroundImageFix" result="effect1_dropShadow_1735_180"/>
<feBlend mode="normal" in="SourceGraphic" in2="effect1_dropShadow_1735_180" result="shape"/>
</filter>
</defs>
</svg>
