<svg width="719" height="423" viewBox="0 0 719 423" fill="none" xmlns="http://www.w3.org/2000/svg">
<g filter="url(#filter0_d_1713_313)">
<path d="M50 61C50 52.7157 56.7157 46 65 46H654C662.284 46 669 52.7157 669 61V354C669 362.284 662.284 369 654 369H65C56.7157 369 50 362.284 50 354V61Z" fill="white"/>
</g>
<path d="M112 120L339 120" stroke="black"/>
<path d="M119.33 91.3896C118.041 91.3896 117.01 91.75 116.236 92.4707C115.463 93.1855 115 94.2285 114.848 95.5996H121.105V97.0059H114.804C114.874 98.5703 115.29 99.7539 116.052 100.557C116.819 101.359 117.912 101.761 119.33 101.761C120.291 101.761 121.363 101.591 122.547 101.251V102.657C121.621 103.003 120.476 103.176 119.11 103.176C117.159 103.176 115.668 102.607 114.637 101.471C113.611 100.334 113.099 98.6963 113.099 96.5576C113.099 94.5127 113.649 92.9014 114.751 91.7236C115.853 90.54 117.391 89.9482 119.365 89.9482C120.742 89.9482 121.97 90.2119 123.048 90.7393L122.389 92.1279C121.363 91.6357 120.344 91.3896 119.33 91.3896ZM134.276 103C136.148 103 137.066 102.028 137.066 100.606C137.066 99.526 136.346 98.842 135.644 98.608C136.292 98.32 136.796 97.6 136.796 96.7C136.796 95.17 135.644 94.36 134.132 94.36H129.398V103H134.276ZM130.838 99.256H134.132C134.852 99.256 135.626 99.49 135.626 100.516C135.626 101.47 134.978 101.74 134.078 101.74H130.838V99.256ZM130.838 95.62H133.988C134.6 95.62 135.338 95.872 135.338 96.844C135.338 97.726 134.744 98.014 133.988 98.014H130.838V95.62ZM145.11 103V96.484L147.918 100.75H148.998L151.806 96.484V103H153.174V94.36H151.608L148.458 99.148L145.308 94.36H143.742V103H145.11ZM155.242 98.68C155.242 101.632 157.51 103.216 159.85 103.216C162.208 103.216 164.458 101.632 164.458 98.68C164.458 95.728 162.208 94.144 159.85 94.144C157.51 94.144 155.242 95.728 155.242 98.68ZM163.018 98.68C163.018 100.678 161.614 101.848 159.85 101.848C158.086 101.848 156.682 100.678 156.682 98.68C156.682 96.682 158.086 95.512 159.85 95.512C161.614 95.512 163.018 96.682 163.018 98.68ZM170.772 103.176C169.308 103.176 168.177 102.754 167.38 101.91C166.583 101.061 166.185 99.833 166.185 98.2275C166.185 96.5928 166.586 95.3418 167.389 94.4746C168.197 93.6074 169.343 93.1738 170.825 93.1738C171.317 93.1738 171.798 93.2236 172.267 93.3232C172.735 93.417 173.143 93.54 173.488 93.6924L173.022 94.9932C172.22 94.6885 171.476 94.5361 170.79 94.5361C169.864 94.5361 169.161 94.7705 168.681 95.2393C168.206 95.708 167.919 96.4229 167.819 97.3838H172.557V98.6758H167.802C167.854 99.7539 168.121 100.551 168.602 101.066C169.082 101.576 169.794 101.831 170.737 101.831C171.282 101.831 171.763 101.778 172.179 101.673C172.595 101.562 172.984 101.433 173.348 101.286V102.657C172.645 103.003 171.786 103.176 170.772 103.176ZM176.804 103V96.484L179.612 100.75H180.692L183.5 96.484V103H184.868V94.36H183.302L180.152 99.148L177.002 94.36H175.436V103H176.804ZM191.165 101.362L187.907 94.36H186.377L190.481 103.018L190.157 103.81C189.599 105.214 188.897 105.916 187.925 105.916C187.673 105.916 187.421 105.88 187.169 105.808V107.05C187.493 107.14 187.799 107.176 188.105 107.176C189.365 107.176 190.463 106.384 191.363 104.296L195.611 94.36H194.081L191.165 101.362ZM203.137 103V99.292H204.829L207.997 103H209.689L206.017 98.662L209.293 94.36H207.619L204.883 97.96H203.137V94.36H201.697V103H203.137ZM218.069 101.2V97.816C218.069 95.404 216.611 94.144 214.307 94.144C212.885 94.144 211.697 94.486 211.013 94.72V96.124C211.769 95.8 212.831 95.476 214.163 95.476C215.747 95.476 216.629 96.34 216.629 97.636V97.942C215.909 97.78 214.991 97.672 214.235 97.672C212.381 97.672 210.329 98.356 210.329 100.588C210.329 102.406 211.841 103.216 213.371 103.216C214.775 103.216 215.873 102.784 216.737 102.064C216.989 102.82 217.619 103.108 218.321 103.108C218.681 103.108 219.059 103.036 219.401 102.91V101.74C219.185 101.812 218.951 101.866 218.735 101.866C218.357 101.866 218.069 101.722 218.069 101.2ZM211.805 100.516C211.805 99.256 213.173 98.878 214.433 98.878C215.135 98.878 216.017 99.004 216.629 99.13V100.714C215.873 101.524 214.775 101.974 213.677 101.974C212.723 101.974 211.805 101.524 211.805 100.516ZM224.141 103V95.692H227.309V94.36H219.515V95.692H222.701V103H224.141ZM235.875 101.2V97.816C235.875 95.404 234.417 94.144 232.113 94.144C230.691 94.144 229.503 94.486 228.819 94.72V96.124C229.575 95.8 230.637 95.476 231.969 95.476C233.553 95.476 234.435 96.34 234.435 97.636V97.942C233.715 97.78 232.797 97.672 232.041 97.672C230.187 97.672 228.135 98.356 228.135 100.588C228.135 102.406 229.647 103.216 231.177 103.216C232.581 103.216 233.679 102.784 234.543 102.064C234.795 102.82 235.425 103.108 236.127 103.108C236.487 103.108 236.865 103.036 237.207 102.91V101.74C236.991 101.812 236.757 101.866 236.541 101.866C236.163 101.866 235.875 101.722 235.875 101.2ZM229.611 100.516C229.611 99.256 230.979 98.878 232.239 98.878C232.941 98.878 233.823 99.004 234.435 99.13V100.714C233.679 101.524 232.581 101.974 231.483 101.974C230.529 101.974 229.611 101.524 229.611 100.516ZM241.812 95.692H245.322V103H246.762V94.36H240.408C240.246 99.004 239.742 101.92 238.212 101.92C238.032 101.92 237.834 101.884 237.636 101.812V102.946C238.014 103.09 238.356 103.144 238.68 103.144C240.912 103.144 241.524 100.12 241.812 95.692ZM248.828 98.68C248.828 101.632 251.096 103.216 253.436 103.216C255.794 103.216 258.044 101.632 258.044 98.68C258.044 95.728 255.794 94.144 253.436 94.144C251.096 94.144 248.828 95.728 248.828 98.68ZM256.604 98.68C256.604 100.678 255.2 101.848 253.436 101.848C251.672 101.848 250.268 100.678 250.268 98.68C250.268 96.682 251.672 95.512 253.436 95.512C255.2 95.512 256.604 96.682 256.604 98.68ZM266.431 100.678C266.431 99.562 265.621 98.824 264.649 98.572C265.621 98.356 266.251 97.672 266.251 96.628C266.251 95.116 265.009 94.126 262.597 94.126C261.445 94.126 260.365 94.396 259.501 94.792V96.142C260.293 95.746 261.409 95.458 262.435 95.458C263.785 95.458 264.811 95.872 264.811 96.826C264.811 97.654 264.055 97.942 263.083 97.942H261.193V99.274H263.083C263.947 99.274 264.991 99.454 264.991 100.516C264.991 101.632 263.731 101.884 262.363 101.884C261.319 101.884 260.095 101.578 259.357 101.182V102.55C260.167 102.946 261.319 103.216 262.543 103.216C264.937 103.216 266.431 102.316 266.431 100.678ZM270.326 103H268.744V93.3496H270.326V103ZM268.621 90.7393C268.621 90.3877 268.709 90.1328 268.885 89.9746C269.066 89.8164 269.289 89.7373 269.553 89.7373C269.799 89.7373 270.013 89.8164 270.194 89.9746C270.382 90.1328 270.476 90.3877 270.476 90.7393C270.476 91.085 270.382 91.3398 270.194 91.5039C270.013 91.668 269.799 91.75 269.553 91.75C269.289 91.75 269.066 91.668 268.885 91.5039C268.709 91.3398 268.621 91.085 268.621 90.7393Z" fill="#37376D"/>
<path d="M335.165 101.75L331 98L339.33 98L335.165 101.75Z" fill="#000C2C"/>
<path d="M379 120L606 120" stroke="black"/>
<path d="M379.252 90.4H389.62V91.84H385.192V103H383.68V91.84H379.252V90.4ZM389.913 102.01C389.001 101.194 388.545 100.084 388.545 98.68C388.545 97.276 389.001 96.172 389.913 95.368C390.825 94.552 391.905 94.144 393.153 94.144C394.413 94.144 395.493 94.552 396.393 95.368C397.305 96.172 397.761 97.276 397.761 98.68C397.761 100.084 397.305 101.194 396.393 102.01C395.493 102.814 394.413 103.216 393.153 103.216C391.905 103.216 390.825 102.814 389.913 102.01ZM395.421 101.002C396.021 100.426 396.321 99.652 396.321 98.68C396.321 97.708 396.021 96.94 395.421 96.376C394.821 95.8 394.065 95.512 393.153 95.512C392.241 95.512 391.485 95.8 390.885 96.376C390.285 96.94 389.985 97.708 389.985 98.68C389.985 99.652 390.285 100.426 390.885 101.002C391.485 101.566 392.241 101.848 393.153 101.848C394.065 101.848 394.821 101.566 395.421 101.002ZM404.704 103H399.826V94.36H404.56C405.34 94.36 405.976 94.564 406.468 94.972C406.972 95.38 407.224 95.956 407.224 96.7C407.224 97.132 407.116 97.522 406.9 97.87C406.684 98.218 406.408 98.464 406.072 98.608C406.468 98.74 406.804 98.98 407.08 99.328C407.356 99.676 407.494 100.102 407.494 100.606C407.494 101.338 407.254 101.92 406.774 102.352C406.306 102.784 405.616 103 404.704 103ZM401.266 99.256V101.74H404.506C405.538 101.74 406.054 101.332 406.054 100.516C406.054 99.676 405.556 99.256 404.56 99.256H401.266ZM401.266 95.62V98.014H404.416C405.316 98.014 405.766 97.624 405.766 96.844C405.766 96.4 405.634 96.088 405.37 95.908C405.106 95.716 404.788 95.62 404.416 95.62H401.266ZM416.707 101.2C416.707 101.644 416.929 101.866 417.373 101.866C417.565 101.866 417.787 101.824 418.039 101.74V102.91C417.679 103.042 417.319 103.108 416.959 103.108C416.131 103.108 415.603 102.76 415.375 102.064C414.451 102.832 413.329 103.216 412.009 103.216C411.169 103.216 410.449 102.994 409.849 102.55C409.261 102.094 408.967 101.44 408.967 100.588C408.967 99.568 409.345 98.83 410.101 98.374C410.869 97.906 411.793 97.672 412.873 97.672C413.665 97.672 414.463 97.762 415.267 97.942V97.636C415.267 96.976 415.051 96.454 414.619 96.07C414.187 95.674 413.581 95.476 412.801 95.476C411.709 95.476 410.659 95.692 409.651 96.124V94.72C410.779 94.336 411.877 94.144 412.945 94.144C414.121 94.144 415.039 94.462 415.699 95.098C416.371 95.722 416.707 96.628 416.707 97.816V101.2ZM410.443 100.516C410.443 100.996 410.623 101.362 410.983 101.614C411.355 101.854 411.799 101.974 412.315 101.974C413.503 101.974 414.487 101.554 415.267 100.714V99.13C414.451 98.962 413.719 98.878 413.071 98.878C412.339 98.878 411.715 99.01 411.199 99.274C410.695 99.526 410.443 99.94 410.443 100.516ZM420.88 95.8C421.852 94.696 423.016 94.144 424.372 94.144C425.608 94.144 426.634 94.576 427.45 95.44C428.278 96.304 428.692 97.384 428.692 98.68C428.692 99.976 428.278 101.056 427.45 101.92C426.634 102.784 425.608 103.216 424.372 103.216C423.004 103.216 421.888 102.712 421.024 101.704V106.96H419.584V94.36H420.88V95.8ZM426.37 101.002C426.958 100.414 427.252 99.64 427.252 98.68C427.252 97.72 426.958 96.946 426.37 96.358C425.794 95.77 425.074 95.476 424.21 95.476C423.478 95.476 422.83 95.68 422.266 96.088C421.702 96.496 421.288 97 421.024 97.6V99.76C421.288 100.36 421.702 100.864 422.266 101.272C422.83 101.68 423.478 101.884 424.21 101.884C425.074 101.884 425.794 101.59 426.37 101.002ZM436.686 103H435.246V94.36H436.686V97.96H438.432L441.168 94.36H442.842L439.566 98.662L443.238 103H441.546L438.378 99.292H436.686V103ZM445.002 102.01C444.09 101.194 443.634 100.084 443.634 98.68C443.634 97.276 444.09 96.172 445.002 95.368C445.914 94.552 446.994 94.144 448.242 94.144C449.502 94.144 450.582 94.552 451.482 95.368C452.394 96.172 452.85 97.276 452.85 98.68C452.85 100.084 452.394 101.194 451.482 102.01C450.582 102.814 449.502 103.216 448.242 103.216C446.994 103.216 445.914 102.814 445.002 102.01ZM450.51 101.002C451.11 100.426 451.41 99.652 451.41 98.68C451.41 97.708 451.11 96.94 450.51 96.376C449.91 95.8 449.154 95.512 448.242 95.512C447.33 95.512 446.574 95.8 445.974 96.376C445.374 96.94 445.074 97.708 445.074 98.68C445.074 99.652 445.374 100.426 445.974 101.002C446.574 101.566 447.33 101.848 448.242 101.848C449.154 101.848 449.91 101.566 450.51 101.002ZM456.356 103H454.916V94.36H456.356V98.014H461.36V94.36H462.8V103H461.36V99.346H456.356V103ZM466.903 103H465.463V94.36H466.903V97.96H468.649L471.385 94.36H473.059L469.783 98.662L473.455 103H471.763L468.595 99.292H466.903V103ZM478.521 101.362L481.437 94.36H482.967L478.719 104.296C477.891 106.216 476.805 107.176 475.461 107.176C475.137 107.176 474.825 107.134 474.525 107.05V105.808C474.777 105.88 475.029 105.916 475.281 105.916C476.205 105.916 476.949 105.214 477.513 103.81L477.837 103.018L473.733 94.36H475.263L478.521 101.362ZM485.866 95.8C486.838 94.696 488.002 94.144 489.358 94.144C490.594 94.144 491.62 94.576 492.436 95.44C493.264 96.304 493.678 97.384 493.678 98.68C493.678 99.976 493.264 101.056 492.436 101.92C491.62 102.784 490.594 103.216 489.358 103.216C487.99 103.216 486.874 102.712 486.01 101.704V106.96H484.57V94.36H485.866V95.8ZM491.356 101.002C491.944 100.414 492.238 99.64 492.238 98.68C492.238 97.72 491.944 96.946 491.356 96.358C490.78 95.77 490.06 95.476 489.196 95.476C488.464 95.476 487.816 95.68 487.252 96.088C486.688 96.496 486.274 97 486.01 97.6V99.76C486.274 100.36 486.688 100.864 487.252 101.272C487.816 101.68 488.464 101.884 489.196 101.884C490.06 101.884 490.78 101.59 491.356 101.002ZM495.156 98.68C495.156 97.264 495.588 96.154 496.452 95.35C497.328 94.546 498.33 94.144 499.458 94.144C500.514 94.144 501.384 94.408 502.068 94.936C502.764 95.464 503.22 96.118 503.436 96.898C503.652 97.666 503.664 98.47 503.472 99.31H496.596C496.68 100.162 497.058 100.804 497.73 101.236C498.402 101.668 499.212 101.884 500.16 101.884C501.216 101.884 502.164 101.65 503.004 101.182V102.586C502.2 103.006 501.18 103.216 499.944 103.216C498.576 103.216 497.436 102.826 496.524 102.046C495.612 101.266 495.156 100.144 495.156 98.68ZM502.194 98.05C502.23 97.798 502.212 97.534 502.14 97.258C502.068 96.982 501.936 96.706 501.744 96.43C501.564 96.154 501.282 95.926 500.898 95.746C500.514 95.566 500.064 95.476 499.548 95.476C498.768 95.476 498.09 95.704 497.514 96.16C496.95 96.616 496.644 97.246 496.596 98.05H502.194ZM507.016 103H505.576V94.36H507.016V98.014H512.02V94.36H513.46V103H512.02V99.346H507.016V103ZM519.723 103H518.283V95.692H515.097V94.36H522.891V95.692H519.723V103ZM531.457 101.2C531.457 101.644 531.679 101.866 532.123 101.866C532.315 101.866 532.537 101.824 532.789 101.74V102.91C532.429 103.042 532.069 103.108 531.709 103.108C530.881 103.108 530.353 102.76 530.125 102.064C529.201 102.832 528.079 103.216 526.759 103.216C525.919 103.216 525.199 102.994 524.599 102.55C524.011 102.094 523.717 101.44 523.717 100.588C523.717 99.568 524.095 98.83 524.851 98.374C525.619 97.906 526.543 97.672 527.623 97.672C528.415 97.672 529.213 97.762 530.017 97.942V97.636C530.017 96.976 529.801 96.454 529.369 96.07C528.937 95.674 528.331 95.476 527.551 95.476C526.459 95.476 525.409 95.692 524.401 96.124V94.72C525.529 94.336 526.627 94.144 527.695 94.144C528.871 94.144 529.789 94.462 530.449 95.098C531.121 95.722 531.457 96.628 531.457 97.816V101.2ZM525.193 100.516C525.193 100.996 525.373 101.362 525.733 101.614C526.105 101.854 526.549 101.974 527.065 101.974C528.253 101.974 529.237 101.554 530.017 100.714V99.13C529.201 98.962 528.469 98.878 527.821 98.878C527.089 98.878 526.465 99.01 525.949 99.274C525.445 99.526 525.193 99.94 525.193 100.516Z" fill="#37376D"/>
<path d="M602.165 101.75L598 98L606.33 98L602.165 101.75Z" fill="#000C2C"/>
<circle opacity="0.6" cx="194" cy="239" r="82" fill="#FFE264"/>
<path d="M276 239C276 258.362 269.149 277.099 256.66 291.894C244.171 306.689 226.849 316.587 207.762 319.837C188.675 323.086 169.054 319.477 152.373 309.648C135.692 299.819 123.026 284.405 116.62 266.134C110.213 247.863 110.478 227.915 117.367 209.82C124.257 191.726 137.327 176.654 154.264 167.271C171.2 157.889 190.91 154.802 209.904 158.557C228.898 162.312 245.951 172.667 258.042 187.789L194 239H276Z" fill="#F28100"/>
<path d="M276 239C276 256.72 270.26 273.963 259.639 288.148C249.018 302.332 234.089 312.695 217.085 317.683C200.082 322.672 181.92 322.019 165.32 315.821C148.719 309.623 134.572 298.214 124.998 283.303C115.425 268.392 110.939 250.781 112.212 233.107C113.486 215.433 120.45 198.647 132.063 185.262C143.675 171.878 159.311 162.615 176.629 158.861C193.947 155.107 212.015 157.064 228.127 164.439L194 239H276Z" fill="#0FA7F0"/>
<circle opacity="0.6" cx="333.5" cy="303.5" r="17.5" fill="#FFE264"/>
<path d="M351 303.5C351 307.632 349.538 311.631 346.873 314.788C344.207 317.946 340.511 320.058 336.437 320.752C332.364 321.445 328.176 320.675 324.616 318.577C321.056 316.48 318.353 313.19 316.986 309.291C315.619 305.392 315.675 301.134 317.145 297.273C318.616 293.411 321.405 290.194 325.02 288.192C328.634 286.19 332.841 285.531 336.894 286.332C340.948 287.134 344.587 289.344 347.168 292.571L333.5 303.5H351Z" fill="#F28100"/>
<path d="M351 303.5C351 305.798 350.547 308.074 349.668 310.197C348.788 312.32 347.499 314.249 345.874 315.874C344.249 317.499 342.32 318.788 340.197 319.668C338.074 320.547 335.798 321 333.5 321C331.202 321 328.926 320.547 326.803 319.668C324.68 318.788 322.751 317.499 321.126 315.874C319.501 314.249 318.212 312.32 317.332 310.197C316.453 308.074 316 305.798 316 303.5L333.5 303.5H351Z" fill="#0FA7F0"/>
<path opacity="0.6" d="M398.246 314.33C400.884 310.982 402.209 306.787 401.973 302.532C401.737 298.276 399.957 294.253 396.965 291.217C393.974 288.182 389.978 286.342 385.726 286.043C381.475 285.744 377.26 287.008 373.874 289.595C370.488 292.183 368.162 295.918 367.334 300.099C366.505 304.279 367.231 308.619 369.375 312.302C371.519 315.986 374.933 318.761 378.977 320.106C383.021 321.451 387.417 321.274 391.34 319.608L384.5 303.5L398.246 314.33Z" fill="#FFE264"/>
<path d="M402 303.5C402 307.959 400.298 312.25 397.241 315.497C394.184 318.743 390.003 320.7 385.552 320.968C381.101 321.236 376.716 319.795 373.291 316.939C369.867 314.083 367.662 310.027 367.127 305.601C366.591 301.174 367.766 296.709 370.411 293.119C373.056 289.529 376.972 287.085 381.359 286.284C385.745 285.484 390.272 286.388 394.015 288.813C397.757 291.237 400.433 294.999 401.496 299.329L384.5 303.5H402Z" fill="#F28100"/>
<path d="M402 303.5C402 306.961 400.974 310.345 399.051 313.222C397.128 316.1 394.395 318.343 391.197 319.668C387.999 320.992 384.481 321.339 381.086 320.664C377.691 319.989 374.573 318.322 372.126 315.874C369.678 313.427 368.011 310.309 367.336 306.914C366.661 303.519 367.008 300.001 368.332 296.803C369.657 293.605 371.9 290.872 374.778 288.949C377.655 287.026 381.039 286 384.5 286V303.5H402Z" fill="#0FA7F0"/>
<path opacity="0.6" d="M551.246 314.33C553.884 310.982 555.209 306.787 554.973 302.532C554.737 298.276 552.957 294.253 549.965 291.217C546.974 288.182 542.978 286.342 538.726 286.043C534.475 285.744 530.26 287.008 526.874 289.595C523.488 292.183 521.162 295.918 520.334 300.099C519.505 304.279 520.231 308.619 522.375 312.302C524.519 315.986 527.933 318.761 531.977 320.106C536.021 321.451 540.417 321.274 544.34 319.608L537.5 303.5L551.246 314.33Z" fill="#FFE264"/>
<path d="M555 303.5C555 307.549 553.596 311.472 551.028 314.602C548.459 317.732 544.885 319.874 540.914 320.664C536.943 321.454 532.821 320.842 529.251 318.934C525.68 317.025 522.881 313.937 521.332 310.197C519.783 306.456 519.578 302.294 520.754 298.42C521.929 294.546 524.411 291.199 527.778 288.949C531.144 286.7 535.186 285.687 539.215 286.084C543.245 286.481 547.011 288.263 549.874 291.126L537.5 303.5H555Z" fill="#F28100"/>
<path d="M555 303.5C555 306.961 553.974 310.345 552.051 313.222C550.128 316.1 547.395 318.343 544.197 319.668C540.999 320.992 537.481 321.339 534.086 320.664C530.691 319.989 527.573 318.322 525.126 315.874C522.678 313.427 521.011 310.309 520.336 306.914C519.661 303.519 520.008 300.001 521.332 296.803C522.657 293.605 524.9 290.872 527.778 288.949C530.655 287.026 534.039 286 537.5 286V303.5H555Z" fill="#0FA7F0"/>
<path opacity="0.6" d="M500.246 314.33C502.884 310.982 504.209 306.787 503.973 302.532C503.737 298.276 501.957 294.253 498.965 291.217C495.974 288.182 491.978 286.342 487.726 286.043C483.475 285.744 479.26 287.008 475.874 289.595C472.488 292.183 470.162 295.918 469.334 300.099C468.505 304.279 469.231 308.619 471.375 312.302C473.519 315.986 476.933 318.761 480.977 320.106C485.021 321.451 489.417 321.274 493.34 319.608L486.5 303.5L500.246 314.33Z" fill="#FFE264"/>
<path d="M504 303.5C504 307.176 502.842 310.76 500.691 313.741C498.539 316.722 495.504 318.95 492.014 320.109C488.525 321.267 484.76 321.297 481.252 320.195C477.745 319.092 474.674 316.913 472.475 313.967C470.276 311.02 469.061 307.456 469.002 303.78C468.943 300.104 470.044 296.503 472.147 293.488C474.251 290.472 477.25 288.196 480.72 286.982C484.191 285.768 487.955 285.677 491.48 286.723L486.5 303.5H504Z" fill="#F28100"/>
<path d="M504 303.5C504 306.961 502.974 310.345 501.051 313.222C499.128 316.1 496.395 318.343 493.197 319.668C489.999 320.992 486.481 321.339 483.086 320.664C479.691 319.989 476.573 318.322 474.126 315.874C471.678 313.427 470.011 310.309 469.336 306.914C468.661 303.519 469.008 300.001 470.332 296.803C471.657 293.605 473.9 290.872 476.778 288.949C479.655 287.026 483.039 286 486.5 286V303.5H504Z" fill="#0FA7F0"/>
<path opacity="0.6" d="M449.246 314.33C451.884 310.982 453.209 306.787 452.973 302.532C452.737 298.276 450.957 294.253 447.965 291.217C444.974 288.182 440.978 286.342 436.726 286.043C432.475 285.744 428.26 287.008 424.874 289.595C421.488 292.183 419.162 295.918 418.334 300.099C417.505 304.279 418.231 308.619 420.375 312.302C422.519 315.986 425.933 318.761 429.977 320.106C434.021 321.451 438.417 321.274 442.34 319.608L435.5 303.5L449.246 314.33Z" fill="#FFE264"/>
<path d="M453 303.5C453 306.961 451.974 310.345 450.051 313.222C448.128 316.1 445.395 318.343 442.197 319.668C438.999 320.992 435.481 321.339 432.086 320.664C428.691 319.989 425.573 318.322 423.126 315.874C420.678 313.427 419.011 310.309 418.336 306.914C417.661 303.519 418.008 300.001 419.332 296.803C420.657 293.605 422.9 290.872 425.778 288.949C428.655 287.026 432.039 286 435.5 286V303.5H453Z" fill="#F28100"/>
<path d="M449.845 313.524C447.862 316.361 445.083 318.547 441.858 319.804C438.633 321.062 435.108 321.335 431.728 320.589C428.349 319.843 425.266 318.111 422.87 315.613C420.474 313.115 418.873 309.963 418.269 306.555C417.664 303.147 418.084 299.636 419.475 296.467C420.866 293.298 423.166 290.612 426.083 288.75C429.001 286.887 432.405 285.932 435.865 286.004C439.326 286.076 442.687 287.173 445.524 289.155L435.5 303.5L449.845 313.524Z" fill="#0FA7F0"/>
<path opacity="0.6" d="M603.379 312.712C605.623 309.088 606.467 304.77 605.753 300.568C605.039 296.366 602.816 292.57 599.501 289.89C596.187 287.211 592.009 285.834 587.75 286.016C583.492 286.199 579.447 287.929 576.374 290.882C573.301 293.835 571.412 297.808 571.06 302.055C570.708 306.303 571.918 310.533 574.464 313.951C577.009 317.37 580.714 319.742 584.884 320.622C589.054 321.503 593.402 320.832 597.112 318.734L588.5 303.5L603.379 312.712Z" fill="#FFE264"/>
<path d="M603.901 311.81C602.258 314.856 599.748 317.346 596.689 318.966C593.63 320.585 590.16 321.262 586.717 320.909C583.273 320.556 580.012 319.19 577.345 316.984C574.678 314.778 572.726 311.83 571.734 308.514C570.742 305.198 570.756 301.663 571.774 298.354C572.791 295.046 574.767 292.114 577.451 289.929C580.135 287.744 583.407 286.403 586.853 286.078C590.299 285.752 593.764 286.455 596.81 288.099L588.5 303.5L603.901 311.81Z" fill="#F28100"/>
<path d="M588.5 321C585.039 321 581.655 319.974 578.778 318.051C575.9 316.128 573.657 313.395 572.332 310.197C571.008 306.999 570.661 303.481 571.336 300.086C572.011 296.691 573.678 293.573 576.126 291.126C578.573 288.678 581.691 287.011 585.086 286.336C588.481 285.661 591.999 286.008 595.197 287.332C598.395 288.657 601.128 290.9 603.051 293.778C604.974 296.655 606 300.039 606 303.5L588.5 303.5V321Z" fill="#0FA7F0"/>
<path d="M316 224C316 222.895 316.895 222 318 222H327C328.105 222 329 222.895 329 224V257C329 258.105 328.105 259 327 259H318C316.895 259 316 258.105 316 257V224Z" fill="#0FA7F0"/>
<path d="M408 224C408 222.895 408.895 222 410 222H419C420.105 222 421 222.895 421 224V257C421 258.105 420.105 259 419 259H410C408.895 259 408 258.105 408 257V224Z" fill="#0FA7F0"/>
<path d="M339 224C339 222.895 339.895 222 341 222H350C351.105 222 352 222.895 352 224V257C352 258.105 351.105 259 350 259H341C339.895 259 339 258.105 339 257V224Z" fill="#0FA7F0"/>
<path d="M431 224C431 222.895 431.895 222 433 222H442C443.105 222 444 222.895 444 224V257C444 258.105 443.105 259 442 259H433C431.895 259 431 258.105 431 257V224Z" fill="#0FA7F0"/>
<path d="M500 224C500 222.895 500.895 222 502 222H511C512.105 222 513 222.895 513 224V257C513 258.105 512.105 259 511 259H502C500.895 259 500 258.105 500 257V224Z" fill="#0FA7F0"/>
<path d="M569 224C569 222.895 569.895 222 571 222H580C581.105 222 582 222.895 582 224V257C582 258.105 581.105 259 580 259H571C569.895 259 569 258.105 569 257V224Z" fill="#0FA7F0"/>
<path d="M592 224C592 222.895 592.895 222 594 222H603C604.105 222 605 222.895 605 224V257C605 258.105 604.105 259 603 259H594C592.895 259 592 258.105 592 257V224Z" fill="#0FA7F0"/>
<path d="M362 213C362 211.895 362.895 211 364 211H373C374.105 211 375 211.895 375 213V257C375 258.105 374.105 259 373 259H364C362.895 259 362 258.105 362 257V213Z" fill="#0FA7F0"/>
<path d="M454 213C454 211.895 454.895 211 456 211H465C466.105 211 467 211.895 467 213V257C467 258.105 466.105 259 465 259H456C454.895 259 454 258.105 454 257V213Z" fill="#0FA7F0"/>
<path d="M523 213C523 211.895 523.895 211 525 211H534C535.105 211 536 211.895 536 213V257C536 258.105 535.105 259 534 259H525C523.895 259 523 258.105 523 257V213Z" fill="#0FA7F0"/>
<path d="M546 213C546 211.895 546.895 211 548 211H557C558.105 211 559 211.895 559 213V257C559 258.105 558.105 259 557 259H548C546.895 259 546 258.105 546 257V213Z" fill="#0FA7F0"/>
<path d="M385 182C385 180.895 385.895 180 387 180H396C397.105 180 398 180.895 398 182V257C398 258.105 397.105 259 396 259H387C385.895 259 385 258.105 385 257V182Z" fill="#0FA7F0"/>
<path d="M477 182C477 180.895 477.895 180 479 180H488C489.105 180 490 180.895 490 182V257C490 258.105 489.105 259 488 259H479C477.895 259 477 258.105 477 257V182Z" fill="#0FA7F0"/>
<path d="M316 180C316 178.895 316.895 178 318 178H327C328.105 178 329 178.895 329 180V219C329 220.105 328.105 221 327 221H318C316.895 221 316 220.105 316 219V180Z" fill="#FFEEA2"/>
<path d="M408 180C408 178.895 408.895 178 410 178H419C420.105 178 421 178.895 421 180V219C421 220.105 420.105 221 419 221H410C408.895 221 408 220.105 408 219V180Z" fill="#FFEEA2"/>
<path d="M339 213C339 211.895 339.895 211 341 211H350C351.105 211 352 211.895 352 213V219C352 220.105 351.105 221 350 221H341C339.895 221 339 220.105 339 219V213Z" fill="#FFEEA2"/>
<path d="M431 213C431 211.895 431.895 211 433 211H442C443.105 211 444 211.895 444 213V219C444 220.105 443.105 221 442 221H433C431.895 221 431 220.105 431 219V213Z" fill="#FFEEA2"/>
<path d="M500 213C500 211.895 500.895 211 502 211H511C512.105 211 513 211.895 513 213V219C513 220.105 512.105 221 511 221H502C500.895 221 500 220.105 500 219V213Z" fill="#FFEEA2"/>
<path d="M569 213C569 211.895 569.895 211 571 211H580C581.105 211 582 211.895 582 213V219C582 220.105 581.105 221 580 221H571C569.895 221 569 220.105 569 219V213Z" fill="#FFEEA2"/>
<path d="M592 213C592 211.895 592.895 211 594 211H603C604.105 211 605 211.895 605 213V219C605 220.105 604.105 221 603 221H594C592.895 221 592 220.105 592 219V213Z" fill="#FFEEA2"/>
<path d="M362 171C362 169.895 362.895 169 364 169H373C374.105 169 375 169.895 375 171V208C375 209.105 374.105 210 373 210H364C362.895 210 362 209.105 362 208V171Z" fill="#FFEEA2"/>
<path d="M454 171C454 169.895 454.895 169 456 169H465C466.105 169 467 169.895 467 171V208C467 209.105 466.105 210 465 210H456C454.895 210 454 209.105 454 208V171Z" fill="#FFEEA2"/>
<path d="M523 171C523 169.895 523.895 169 525 169H534C535.105 169 536 169.895 536 171V208C536 209.105 535.105 210 534 210H525C523.895 210 523 209.105 523 208V171Z" fill="#FFEEA2"/>
<path d="M546 193C546 191.895 546.895 191 548 191H557C558.105 191 559 191.895 559 193V208C559 209.105 558.105 210 557 210H548C546.895 210 546 209.105 546 208V193Z" fill="#FFEEA2"/>
<path d="M385 171C385 169.895 385.895 169 387 169H396C397.105 169 398 169.895 398 171V177C398 178.105 397.105 179 396 179H387C385.895 179 385 178.105 385 177V171Z" fill="#FFEEA2"/>
<path d="M477 171C477 169.895 477.895 169 479 169H488C489.105 169 490 169.895 490 171V177C490 178.105 489.105 179 488 179H479C477.895 179 477 178.105 477 177V171Z" fill="#FFEEA2"/>
<rect x="316" y="157" width="13" height="20" rx="2" fill="#F28100"/>
<rect x="408" y="157" width="13" height="20" rx="2" fill="#F28100"/>
<rect x="339" y="157" width="13" height="53" rx="2" fill="#F28100"/>
<rect x="431" y="157" width="13" height="53" rx="2" fill="#F28100"/>
<rect x="500" y="157" width="13" height="53" rx="2" fill="#F28100"/>
<rect x="569" y="157" width="13" height="53" rx="2" fill="#F28100"/>
<rect x="592" y="157" width="13" height="53" rx="2" fill="#F28100"/>
<rect x="362" y="157" width="13" height="11" rx="2" fill="#F28100"/>
<rect x="454" y="157" width="13" height="11" rx="2" fill="#F28100"/>
<rect x="523" y="157" width="13" height="11" rx="2" fill="#F28100"/>
<rect x="546" y="157" width="13" height="33" rx="2" fill="#F28100"/>
<rect x="385" y="157" width="13" height="11" rx="2" fill="#F28100"/>
<rect x="477" y="157" width="13" height="11" rx="2" fill="#F28100"/>
<defs>
<filter id="filter0_d_1713_313" x="0" y="0" width="719" height="423" filterUnits="userSpaceOnUse" color-interpolation-filters="sRGB">
<feFlood flood-opacity="0" result="BackgroundImageFix"/>
<feColorMatrix in="SourceAlpha" type="matrix" values="0 0 0 0 0 0 0 0 0 0 0 0 0 0 0 0 0 0 127 0" result="hardAlpha"/>
<feOffset dy="4"/>
<feGaussianBlur stdDeviation="25"/>
<feComposite in2="hardAlpha" operator="out"/>
<feColorMatrix type="matrix" values="0 0 0 0 0 0 0 0 0 0 0 0 0 0 0 0 0 0 0.1 0"/>
<feBlend mode="normal" in2="BackgroundImageFix" result="effect1_dropShadow_1713_313"/>
<feBlend mode="normal" in="SourceGraphic" in2="effect1_dropShadow_1713_313" result="shape"/>
</filter>
</defs>
</svg>
