<svg width="719" height="423" viewBox="0 0 719 423" fill="none" xmlns="http://www.w3.org/2000/svg">
<g filter="url(#filter0_d_1712_178)">
<path d="M50 61C50 52.7157 56.7157 46 65 46H654C662.284 46 669 52.7157 669 61V354C669 362.284 662.284 369 654 369H65C56.7157 369 50 362.284 50 354V61Z" fill="white"/>
</g>
<path fill-rule="evenodd" clip-rule="evenodd" d="M337 149H86V148H337V149Z" fill="black"/>
<path fill-rule="evenodd" clip-rule="evenodd" d="M337 240H86V239H337V240Z" fill="black"/>
<path d="M520.782 316.97H519.342V312.56H520.872C522.24 310.088 522.924 306.368 522.924 301.4H530.664V312.56H532.248V316.97H530.808V314H520.782V316.97ZM524.472 302.84C524.208 307.328 523.572 310.568 522.564 312.56H529.152V302.84H524.472Z" fill="#9B9BB6"/>
<path d="M534.641 313.01C533.729 312.194 533.273 311.084 533.273 309.68C533.273 308.276 533.729 307.172 534.641 306.368C535.553 305.552 536.633 305.144 537.881 305.144C539.141 305.144 540.221 305.552 541.121 306.368C542.033 307.172 542.489 308.276 542.489 309.68C542.489 311.084 542.033 312.194 541.121 313.01C540.221 313.814 539.141 314.216 537.881 314.216C536.633 314.216 535.553 313.814 534.641 313.01ZM540.149 312.002C540.749 311.426 541.049 310.652 541.049 309.68C541.049 308.708 540.749 307.94 540.149 307.376C539.549 306.8 538.793 306.512 537.881 306.512C536.969 306.512 536.213 306.8 535.613 307.376C535.013 307.94 534.713 308.708 534.713 309.68C534.713 310.652 535.013 311.426 535.613 312.002C536.213 312.566 536.969 312.848 537.881 312.848C538.793 312.848 539.549 312.566 540.149 312.002Z" fill="#9B9BB6"/>
<path fill-rule="evenodd" clip-rule="evenodd" d="M490 331H379V330H490V331Z" fill="black"/>
<path fill-rule="evenodd" clip-rule="evenodd" d="M630 331H519V330H630V331Z" fill="black"/>
<path fill-rule="evenodd" clip-rule="evenodd" d="M630 240H379V239H630V240Z" fill="black"/>
<path d="M626.165 218.75L622 215L630.33 215L626.165 218.75Z" fill="#000C2C"/>
<path fill-rule="evenodd" clip-rule="evenodd" d="M631 149H380V148H631V149Z" fill="black"/>
<path d="M626.165 130.75L622 127L630.33 127L626.165 130.75Z" fill="#000C2C"/>
<path fill-rule="evenodd" clip-rule="evenodd" d="M337 331H86V330H337V331Z" fill="black"/>
<path d="M333.165 311.75L329 308L337.33 308L333.165 311.75Z" fill="#000C2C"/>
<path d="M96.638 82.4V87.962H89.168V82.4H87.656V95H89.168V89.402H96.638V95H98.15V82.4H96.638ZM108.01 93.2V89.816C108.01 87.404 106.552 86.144 104.248 86.144C102.826 86.144 101.638 86.486 100.954 86.72V88.124C101.71 87.8 102.772 87.476 104.104 87.476C105.688 87.476 106.57 88.34 106.57 89.636V89.942C105.85 89.78 104.932 89.672 104.176 89.672C102.322 89.672 100.27 90.356 100.27 92.588C100.27 94.406 101.782 95.216 103.312 95.216C104.716 95.216 105.814 94.784 106.678 94.064C106.93 94.82 107.56 95.108 108.262 95.108C108.622 95.108 109 95.036 109.342 94.91V93.74C109.126 93.812 108.892 93.866 108.676 93.866C108.298 93.866 108.01 93.722 108.01 93.2ZM101.746 92.516C101.746 91.256 103.114 90.878 104.374 90.878C105.076 90.878 105.958 91.004 106.57 91.13V92.714C105.814 93.524 104.716 93.974 103.618 93.974C102.664 93.974 101.746 93.524 101.746 92.516ZM117.349 92.678C117.349 91.562 116.539 90.824 115.567 90.572C116.539 90.356 117.169 89.672 117.169 88.628C117.169 87.116 115.927 86.126 113.515 86.126C112.363 86.126 111.283 86.396 110.419 86.792V88.142C111.211 87.746 112.327 87.458 113.353 87.458C114.703 87.458 115.729 87.872 115.729 88.826C115.729 89.654 114.973 89.942 114.001 89.942H112.111V91.274H114.001C114.865 91.274 115.909 91.454 115.909 92.516C115.909 93.632 114.649 93.884 113.281 93.884C112.237 93.884 111.013 93.578 110.275 93.182V94.55C111.085 94.946 112.237 95.216 113.461 95.216C115.855 95.216 117.349 94.316 117.349 92.678ZM124.343 95C126.215 95 127.133 94.028 127.133 92.606C127.133 91.526 126.413 90.842 125.711 90.608C126.359 90.32 126.863 89.6 126.863 88.7C126.863 87.17 125.711 86.36 124.199 86.36H119.465V95H124.343ZM120.905 91.256H124.199C124.919 91.256 125.693 91.49 125.693 92.516C125.693 93.47 125.045 93.74 124.145 93.74H120.905V91.256ZM120.905 87.62H124.055C124.667 87.62 125.405 87.872 125.405 88.844C125.405 89.726 124.811 90.014 124.055 90.014H120.905V87.62ZM136.346 93.2V89.816C136.346 87.404 134.888 86.144 132.584 86.144C131.162 86.144 129.974 86.486 129.29 86.72V88.124C130.046 87.8 131.108 87.476 132.44 87.476C134.024 87.476 134.906 88.34 134.906 89.636V89.942C134.186 89.78 133.268 89.672 132.512 89.672C130.658 89.672 128.606 90.356 128.606 92.588C128.606 94.406 130.118 95.216 131.648 95.216C133.052 95.216 134.15 94.784 135.014 94.064C135.266 94.82 135.896 95.108 136.598 95.108C136.958 95.108 137.336 95.036 137.678 94.91V93.74C137.462 93.812 137.228 93.866 137.012 93.866C136.634 93.866 136.346 93.722 136.346 93.2ZM130.082 92.516C130.082 91.256 131.45 90.878 132.71 90.878C133.412 90.878 134.294 91.004 134.906 91.13V92.714C134.15 93.524 133.052 93.974 131.954 93.974C131 93.974 130.082 93.524 130.082 92.516Z" fill="#37376D"/>
<path d="M87.656 119.4V132H92.966C94.802 132 97.61 131.406 97.61 128.544C97.61 126.492 96.134 125.664 95.09 125.376C96.08 125.088 97.106 124.188 97.106 122.586C97.106 120.462 95.396 119.4 92.822 119.4H87.656ZM96.08 128.382C96.08 130.452 94.244 130.56 92.66 130.56H89.168V126.204H93.074C94.28 126.204 96.08 126.42 96.08 128.382ZM95.576 122.802C95.576 124.242 94.424 124.764 93.11 124.764H89.168V120.84H92.696C94.478 120.84 95.576 121.308 95.576 122.802ZM104.567 132C106.439 132 107.357 131.028 107.357 129.606C107.357 128.526 106.637 127.842 105.935 127.608C106.583 127.32 107.087 126.6 107.087 125.7C107.087 124.17 105.935 123.36 104.423 123.36H99.6894V132H104.567ZM101.129 128.256H104.423C105.143 128.256 105.917 128.49 105.917 129.516C105.917 130.47 105.269 130.74 104.369 130.74H101.129V128.256ZM101.129 124.62H104.279C104.891 124.62 105.629 124.872 105.629 125.844C105.629 126.726 105.035 127.014 104.279 127.014H101.129V124.62ZM108.957 127.68C108.957 130.758 111.189 132.216 113.745 132.216C114.879 132.216 116.013 132 116.805 131.586V130.182C116.067 130.596 115.023 130.884 113.961 130.884C112.215 130.884 110.577 130.128 110.397 128.31H117.273C117.813 125.862 116.589 123.144 113.259 123.144C111.207 123.144 108.957 124.656 108.957 127.68ZM115.995 127.05H110.397C110.505 125.358 111.873 124.476 113.349 124.476C115.545 124.476 116.121 126.132 115.995 127.05ZM119.776 134.34V132H127.3V134.34H128.704V130.704H127.444V123.36H121C121.036 126.582 120.604 128.796 119.524 130.704H118.372V134.34H119.776ZM122.386 124.656H126.004V130.704H121.09C121.882 129.048 122.314 127.248 122.386 124.656ZM132.406 132H130.824V122.35H132.406V132ZM130.701 119.739C130.701 119.388 130.789 119.133 130.965 118.975C131.146 118.816 131.369 118.737 131.633 118.737C131.879 118.737 132.093 118.816 132.274 118.975C132.462 119.133 132.556 119.388 132.556 119.739C132.556 120.085 132.462 120.34 132.274 120.504C132.093 120.668 131.879 120.75 131.633 120.75C131.369 120.75 131.146 120.668 130.965 120.504C130.789 120.34 130.701 120.085 130.701 119.739ZM138.868 132V124.692H142.036V123.36H134.242V124.692H137.428V132H138.868ZM147.774 132C149.88 132 151.122 130.794 151.122 129.192C151.122 127.59 149.88 126.384 147.774 126.384H145.11V123.36H143.67V132H147.774ZM145.11 127.68H147.594C148.854 127.68 149.664 128.166 149.664 129.192C149.664 130.218 148.854 130.704 147.594 130.704H145.11V127.68ZM161.051 132V124.692H164.219V123.36H156.425V124.692H159.611V132H161.051ZM164.978 127.68C164.978 130.758 167.21 132.216 169.766 132.216C170.9 132.216 172.034 132 172.826 131.586V130.182C172.088 130.596 171.044 130.884 169.982 130.884C168.236 130.884 166.598 130.128 166.418 128.31H173.294C173.834 125.862 172.61 123.144 169.28 123.144C167.228 123.144 164.978 124.656 164.978 127.68ZM172.016 127.05H166.418C166.526 125.358 167.894 124.476 169.37 124.476C171.566 124.476 172.142 126.132 172.016 127.05ZM176.838 132V128.292H178.53L181.698 132H183.39L179.718 127.662L182.994 123.36H181.32L178.584 126.96H176.838V123.36H175.398V132H176.838ZM183.787 127.716C183.787 130.794 186.145 132.216 188.413 132.216C189.493 132.216 190.411 132.018 191.221 131.622V130.182C190.501 130.614 189.547 130.884 188.611 130.884C186.919 130.884 185.227 129.894 185.227 127.68C185.227 125.412 186.973 124.476 188.647 124.476C189.565 124.476 190.483 124.746 191.131 125.25V123.846C190.393 123.36 189.439 123.144 188.467 123.144C186.217 123.144 183.787 124.566 183.787 127.716ZM196.928 132V124.692H200.096V123.36H192.302V124.692H195.488V132H196.928ZM206.753 134.34V132H214.277V134.34H215.681V130.704H214.421V123.36H207.977C208.013 126.582 207.581 128.796 206.501 130.704H205.349V134.34H206.753ZM209.363 124.656H212.981V130.704H208.067C208.859 129.048 209.291 127.248 209.363 124.656ZM220.663 124.692H224.173V132H225.613V123.36H219.259C219.097 128.004 218.593 130.92 217.063 130.92C216.883 130.92 216.685 130.884 216.487 130.812V131.946C216.865 132.09 217.207 132.144 217.531 132.144C219.763 132.144 220.375 129.12 220.663 124.692ZM229.137 132L231.495 128.976H233.925V132H235.365V123.36H231.117C229.011 123.36 227.877 124.656 227.877 126.168C227.877 127.374 228.597 128.436 229.947 128.832L227.445 132H229.137ZM229.317 126.168C229.317 125.214 230.037 124.656 231.243 124.656H233.925V127.68H231.243C230.037 127.68 229.317 127.122 229.317 126.168ZM243.952 132V124.692H248.956V132H250.396V123.36H242.512V132H243.952ZM252.465 127.68C252.465 130.632 254.733 132.216 257.073 132.216C259.431 132.216 261.681 130.632 261.681 127.68C261.681 124.728 259.431 123.144 257.073 123.144C254.733 123.144 252.465 124.728 252.465 127.68ZM260.241 127.68C260.241 129.678 258.837 130.848 257.073 130.848C255.309 130.848 253.905 129.678 253.905 127.68C253.905 125.682 255.309 124.512 257.073 124.512C258.837 124.512 260.241 125.682 260.241 127.68ZM275.806 132V123.36H274.366V130.668H270.496V123.36H269.056V130.668H265.186V123.36H263.746V132H275.806ZM282.113 130.362L278.855 123.36H277.325L281.429 132.018L281.105 132.81C280.547 134.214 279.845 134.916 278.873 134.916C278.621 134.916 278.369 134.88 278.117 134.808V136.05C278.441 136.14 278.747 136.176 279.053 136.176C280.313 136.176 281.411 135.384 282.311 133.296L286.559 123.36H285.029L282.113 130.362ZM289.602 132V128.292H291.294L294.462 132H296.154L292.482 127.662L295.758 123.36H294.084L291.348 126.96H289.602V123.36H288.162V132H289.602ZM301.22 130.362L297.962 123.36H296.432L300.536 132.018L300.212 132.81C299.654 134.214 298.952 134.916 297.98 134.916C297.728 134.916 297.476 134.88 297.224 134.808V136.05C297.548 136.14 297.854 136.176 298.16 136.176C299.42 136.176 300.518 135.384 301.418 133.296L305.666 123.36H304.136L301.22 130.362ZM307.833 131.244C307.833 130.65 307.401 130.344 306.897 130.344C306.393 130.344 305.943 130.65 305.943 131.244C305.943 131.856 306.393 132.162 306.897 132.162C307.401 132.162 307.833 131.856 307.833 131.244ZM311.7 131.244C311.7 130.65 311.268 130.344 310.764 130.344C310.26 130.344 309.81 130.65 309.81 131.244C309.81 131.856 310.26 132.162 310.764 132.162C311.268 132.162 311.7 131.856 311.7 131.244ZM315.568 131.244C315.568 130.65 315.136 130.344 314.632 130.344C314.128 130.344 313.678 130.65 313.678 131.244C313.678 131.856 314.128 132.162 314.632 132.162C315.136 132.162 315.568 131.856 315.568 131.244Z" fill="#9B9BB6"/>
<path d="M87.656 210.4V223H92.966C94.802 223 97.61 222.406 97.61 219.544C97.61 217.492 96.134 216.664 95.09 216.376C96.08 216.088 97.106 215.188 97.106 213.586C97.106 211.462 95.396 210.4 92.822 210.4H87.656ZM96.08 219.382C96.08 221.452 94.244 221.56 92.66 221.56H89.168V217.204H93.074C94.28 217.204 96.08 217.42 96.08 219.382ZM95.576 213.802C95.576 215.242 94.424 215.764 93.11 215.764H89.168V211.84H92.696C94.478 211.84 95.576 212.308 95.576 213.802ZM104.567 223C106.439 223 107.357 222.028 107.357 220.606C107.357 219.526 106.637 218.842 105.935 218.608C106.583 218.32 107.087 217.6 107.087 216.7C107.087 215.17 105.935 214.36 104.423 214.36H99.6894V223H104.567ZM101.129 219.256H104.423C105.143 219.256 105.917 219.49 105.917 220.516C105.917 221.47 105.269 221.74 104.369 221.74H101.129V219.256ZM101.129 215.62H104.279C104.891 215.62 105.629 215.872 105.629 216.844C105.629 217.726 105.035 218.014 104.279 218.014H101.129V215.62ZM108.957 218.68C108.957 221.758 111.189 223.216 113.745 223.216C114.879 223.216 116.013 223 116.805 222.586V221.182C116.067 221.596 115.023 221.884 113.961 221.884C112.215 221.884 110.577 221.128 110.397 219.31H117.273C117.813 216.862 116.589 214.144 113.259 214.144C111.207 214.144 108.957 215.656 108.957 218.68ZM115.995 218.05H110.397C110.505 216.358 111.873 215.476 113.349 215.476C115.545 215.476 116.121 217.132 115.995 218.05ZM119.776 225.34V223H127.3V225.34H128.704V221.704H127.444V214.36H121C121.036 217.582 120.604 219.796 119.524 221.704H118.372V225.34H119.776ZM122.386 215.656H126.004V221.704H121.09C121.882 220.048 122.314 218.248 122.386 215.656ZM132.406 223H130.824V213.35H132.406V223ZM130.701 210.739C130.701 210.388 130.789 210.133 130.965 209.975C131.146 209.816 131.369 209.737 131.633 209.737C131.879 209.737 132.093 209.816 132.274 209.975C132.462 210.133 132.556 210.388 132.556 210.739C132.556 211.085 132.462 211.34 132.274 211.504C132.093 211.668 131.879 211.75 131.633 211.75C131.369 211.75 131.146 211.668 130.965 211.504C130.789 211.34 130.701 211.085 130.701 210.739ZM138.868 223V215.692H142.036V214.36H134.242V215.692H137.428V223H138.868ZM147.774 223C149.88 223 151.122 221.794 151.122 220.192C151.122 218.59 149.88 217.384 147.774 217.384H145.11V214.36H143.67V223H147.774ZM145.11 218.68H147.594C148.854 218.68 149.664 219.166 149.664 220.192C149.664 221.218 148.854 221.704 147.594 221.704H145.11V218.68ZM161.051 223V215.692H164.219V214.36H156.425V215.692H159.611V223H161.051ZM164.978 218.68C164.978 221.758 167.21 223.216 169.766 223.216C170.9 223.216 172.034 223 172.826 222.586V221.182C172.088 221.596 171.044 221.884 169.982 221.884C168.236 221.884 166.598 221.128 166.418 219.31H173.294C173.834 216.862 172.61 214.144 169.28 214.144C167.228 214.144 164.978 215.656 164.978 218.68ZM172.016 218.05H166.418C166.526 216.358 167.894 215.476 169.37 215.476C171.566 215.476 172.142 217.132 172.016 218.05ZM176.838 223V219.292H178.53L181.698 223H183.39L179.718 218.662L182.994 214.36H181.32L178.584 217.96H176.838V214.36H175.398V223H176.838ZM183.787 218.716C183.787 221.794 186.145 223.216 188.413 223.216C189.493 223.216 190.411 223.018 191.221 222.622V221.182C190.501 221.614 189.547 221.884 188.611 221.884C186.919 221.884 185.227 220.894 185.227 218.68C185.227 216.412 186.973 215.476 188.647 215.476C189.565 215.476 190.483 215.746 191.131 216.25V214.846C190.393 214.36 189.439 214.144 188.467 214.144C186.217 214.144 183.787 215.566 183.787 218.716ZM196.928 223V215.692H200.096V214.36H192.302V215.692H195.488V223H196.928ZM206.753 225.34V223H214.277V225.34H215.681V221.704H214.421V214.36H207.977C208.013 217.582 207.581 219.796 206.501 221.704H205.349V225.34H206.753ZM209.363 215.656H212.981V221.704H208.067C208.859 220.048 209.291 218.248 209.363 215.656ZM220.663 215.692H224.173V223H225.613V214.36H219.259C219.097 219.004 218.593 221.92 217.063 221.92C216.883 221.92 216.685 221.884 216.487 221.812V222.946C216.865 223.09 217.207 223.144 217.531 223.144C219.763 223.144 220.375 220.12 220.663 215.692ZM229.137 223L231.495 219.976H233.925V223H235.365V214.36H231.117C229.011 214.36 227.877 215.656 227.877 217.168C227.877 218.374 228.597 219.436 229.947 219.832L227.445 223H229.137ZM229.317 217.168C229.317 216.214 230.037 215.656 231.243 215.656H233.925V218.68H231.243C230.037 218.68 229.317 218.122 229.317 217.168ZM243.952 223V215.692H248.956V223H250.396V214.36H242.512V223H243.952ZM252.465 218.68C252.465 221.632 254.733 223.216 257.073 223.216C259.431 223.216 261.681 221.632 261.681 218.68C261.681 215.728 259.431 214.144 257.073 214.144C254.733 214.144 252.465 215.728 252.465 218.68ZM260.241 218.68C260.241 220.678 258.837 221.848 257.073 221.848C255.309 221.848 253.905 220.678 253.905 218.68C253.905 216.682 255.309 215.512 257.073 215.512C258.837 215.512 260.241 216.682 260.241 218.68ZM275.806 223V214.36H274.366V221.668H270.496V214.36H269.056V221.668H265.186V214.36H263.746V223H275.806ZM282.113 221.362L278.855 214.36H277.325L281.429 223.018L281.105 223.81C280.547 225.214 279.845 225.916 278.873 225.916C278.621 225.916 278.369 225.88 278.117 225.808V227.05C278.441 227.14 278.747 227.176 279.053 227.176C280.313 227.176 281.411 226.384 282.311 224.296L286.559 214.36H285.029L282.113 221.362ZM289.602 223V219.292H291.294L294.462 223H296.154L292.482 218.662L295.758 214.36H294.084L291.348 217.96H289.602V214.36H288.162V223H289.602ZM301.22 221.362L297.962 214.36H296.432L300.536 223.018L300.212 223.81C299.654 225.214 298.952 225.916 297.98 225.916C297.728 225.916 297.476 225.88 297.224 225.808V227.05C297.548 227.14 297.854 227.176 298.16 227.176C299.42 227.176 300.518 226.384 301.418 224.296L305.666 214.36H304.136L301.22 221.362ZM307.833 222.244C307.833 221.65 307.401 221.344 306.897 221.344C306.393 221.344 305.943 221.65 305.943 222.244C305.943 222.856 306.393 223.162 306.897 223.162C307.401 223.162 307.833 222.856 307.833 222.244ZM311.7 222.244C311.7 221.65 311.268 221.344 310.764 221.344C310.26 221.344 309.81 221.65 309.81 222.244C309.81 222.856 310.26 223.162 310.764 223.162C311.268 223.162 311.7 222.856 311.7 222.244ZM315.568 222.244C315.568 221.65 315.136 221.344 314.632 221.344C314.128 221.344 313.678 221.65 313.678 222.244C313.678 222.856 314.128 223.162 314.632 223.162C315.136 223.162 315.568 222.856 315.568 222.244Z" fill="#9B9BB6"/>
<path d="M87.656 301.4V314H92.966C94.802 314 97.61 313.406 97.61 310.544C97.61 308.492 96.134 307.664 95.09 307.376C96.08 307.088 97.106 306.188 97.106 304.586C97.106 302.462 95.396 301.4 92.822 301.4H87.656ZM96.08 310.382C96.08 312.452 94.244 312.56 92.66 312.56H89.168V308.204H93.074C94.28 308.204 96.08 308.42 96.08 310.382ZM95.576 304.802C95.576 306.242 94.424 306.764 93.11 306.764H89.168V302.84H92.696C94.478 302.84 95.576 303.308 95.576 304.802ZM100.913 314L106.205 307.682V314H107.645V305.36H106.421L101.129 311.678V305.36H99.6894V314H100.913ZM118.749 309.932C118.749 307.358 116.751 305.72 114.501 305.72C113.151 305.72 111.927 306.386 111.315 307.34C111.675 306.242 112.161 305.072 113.367 304.352C115.347 303.2 116.733 303.578 117.975 302.696V301.184C116.715 302.408 115.005 301.76 112.521 303.29C110.973 304.262 109.857 306.26 109.857 309.158C109.857 312.434 111.729 314.216 114.339 314.216C116.949 314.216 118.749 312.632 118.749 309.932ZM111.297 309.968C111.297 308.51 112.503 307.088 114.303 307.088C116.193 307.088 117.309 308.33 117.309 309.968C117.309 311.606 116.193 312.848 114.303 312.848C112.485 312.848 111.297 311.606 111.297 309.968ZM122.132 306.8V305.36H120.836V317.96H122.276V312.704C122.906 313.442 123.968 314.216 125.624 314.216C128.09 314.216 129.944 312.272 129.944 309.68C129.944 307.088 128.09 305.144 125.624 305.144C123.968 305.144 122.906 305.918 122.132 306.8ZM128.504 309.68C128.504 311.66 127.136 312.884 125.462 312.884C123.914 312.884 122.762 311.876 122.276 310.76V308.6C122.762 307.484 123.914 306.476 125.462 306.476C127.136 306.476 128.504 307.7 128.504 309.68ZM139.036 312.2V308.816C139.036 306.404 137.578 305.144 135.274 305.144C133.852 305.144 132.664 305.486 131.98 305.72V307.124C132.736 306.8 133.798 306.476 135.13 306.476C136.714 306.476 137.596 307.34 137.596 308.636V308.942C136.876 308.78 135.958 308.672 135.202 308.672C133.348 308.672 131.296 309.356 131.296 311.588C131.296 313.406 132.808 314.216 134.338 314.216C135.742 314.216 136.84 313.784 137.704 313.064C137.956 313.82 138.586 314.108 139.288 314.108C139.648 314.108 140.026 314.036 140.368 313.91V312.74C140.152 312.812 139.918 312.866 139.702 312.866C139.324 312.866 139.036 312.722 139.036 312.2ZM132.772 311.516C132.772 310.256 134.14 309.878 135.4 309.878C136.102 309.878 136.984 310.004 137.596 310.13V311.714C136.84 312.524 135.742 312.974 134.644 312.974C133.69 312.974 132.772 312.524 132.772 311.516ZM145.108 314V306.692H148.276V305.36H140.482V306.692H143.668V314H145.108ZM151.134 314L156.426 307.682V314H157.866V305.36H156.642L151.35 311.678V305.36H149.91V314H151.134ZM162.075 313.244C162.075 312.65 161.643 312.344 161.139 312.344C160.635 312.344 160.185 312.65 160.185 313.244C160.185 313.856 160.635 314.162 161.139 314.162C161.643 314.162 162.075 313.856 162.075 313.244ZM165.943 313.244C165.943 312.65 165.511 312.344 165.007 312.344C164.503 312.344 164.053 312.65 164.053 313.244C164.053 313.856 164.503 314.162 165.007 314.162C165.511 314.162 165.943 313.856 165.943 313.244ZM169.81 313.244C169.81 312.65 169.378 312.344 168.874 312.344C168.37 312.344 167.92 312.65 167.92 313.244C167.92 313.856 168.37 314.162 168.874 314.162C169.378 314.162 169.81 313.856 169.81 313.244Z" fill="#9B9BB6"/>
<path d="M89.168 186V180.294H92.084L96.206 186H97.934L93.272 179.538L97.556 173.4H95.828L92.03 178.854H89.168V173.4H87.656V186H89.168ZM106.217 184.2V180.816C106.217 178.404 104.759 177.144 102.455 177.144C101.033 177.144 99.8452 177.486 99.1612 177.72V179.124C99.9172 178.8 100.979 178.476 102.311 178.476C103.895 178.476 104.777 179.34 104.777 180.636V180.942C104.057 180.78 103.139 180.672 102.383 180.672C100.529 180.672 98.4772 181.356 98.4772 183.588C98.4772 185.406 99.9892 186.216 101.519 186.216C102.923 186.216 104.021 185.784 104.885 185.064C105.137 185.82 105.767 186.108 106.469 186.108C106.829 186.108 107.207 186.036 107.549 185.91V184.74C107.333 184.812 107.099 184.866 106.883 184.866C106.505 184.866 106.217 184.722 106.217 184.2ZM99.9532 183.516C99.9532 182.256 101.321 181.878 102.581 181.878C103.283 181.878 104.165 182.004 104.777 182.13V183.714C104.021 184.524 102.923 184.974 101.825 184.974C100.871 184.974 99.9532 184.524 99.9532 183.516ZM112.289 186V178.692H115.457V177.36H107.663V178.692H110.849V186H112.289ZM116.217 181.68C116.217 184.758 118.449 186.216 121.005 186.216C122.139 186.216 123.273 186 124.065 185.586V184.182C123.327 184.596 122.283 184.884 121.221 184.884C119.475 184.884 117.837 184.128 117.657 182.31H124.533C125.073 179.862 123.849 177.144 120.519 177.144C118.467 177.144 116.217 178.656 116.217 181.68ZM123.255 181.05H117.657C117.765 179.358 119.133 178.476 120.609 178.476C122.805 178.476 123.381 180.132 123.255 181.05ZM128.077 186V178.692H132.955V177.36H126.637V186H128.077ZM133.689 181.68C133.689 184.632 135.957 186.216 138.297 186.216C140.655 186.216 142.905 184.632 142.905 181.68C142.905 178.728 140.655 177.144 138.297 177.144C135.957 177.144 133.689 178.728 133.689 181.68ZM141.465 181.68C141.465 183.678 140.061 184.848 138.297 184.848C136.533 184.848 135.129 183.678 135.129 181.68C135.129 179.682 136.533 178.512 138.297 178.512C140.061 178.512 141.465 179.682 141.465 181.68ZM146.267 178.8V177.36H144.971V189.96H146.411V184.704C147.041 185.442 148.103 186.216 149.759 186.216C152.225 186.216 154.079 184.272 154.079 181.68C154.079 179.088 152.225 177.144 149.759 177.144C148.103 177.144 147.041 177.918 146.267 178.8ZM152.639 181.68C152.639 183.66 151.271 184.884 149.597 184.884C148.049 184.884 146.897 183.876 146.411 182.76V180.6C146.897 179.484 148.049 178.476 149.597 178.476C151.271 178.476 152.639 179.7 152.639 181.68ZM157.93 186H156.348V176.35H157.93V186ZM156.225 173.739C156.225 173.388 156.312 173.133 156.488 172.975C156.67 172.816 156.893 172.737 157.156 172.737C157.402 172.737 157.616 172.816 157.798 172.975C157.985 173.133 158.079 173.388 158.079 173.739C158.079 174.085 157.985 174.34 157.798 174.504C157.616 174.668 157.402 174.75 157.156 174.75C156.893 174.75 156.67 174.668 156.488 174.504C156.312 174.34 156.225 174.085 156.225 173.739ZM161.655 186L164.013 182.976H166.443V186H167.883V177.36H163.635C161.529 177.36 160.395 178.656 160.395 180.168C160.395 181.374 161.115 182.436 162.465 182.832L159.963 186H161.655ZM161.835 180.168C161.835 179.214 162.555 178.656 163.761 178.656H166.443V181.68H163.761C162.555 181.68 161.835 181.122 161.835 180.168Z" fill="#37376D"/>
<path d="M87.656 264.4V277H92.966C94.802 277 97.61 276.406 97.61 273.544C97.61 271.492 96.134 270.664 95.09 270.376C96.08 270.088 97.106 269.188 97.106 267.586C97.106 265.462 95.396 264.4 92.822 264.4H87.656ZM96.08 273.382C96.08 275.452 94.244 275.56 92.66 275.56H89.168V271.204H93.074C94.28 271.204 96.08 271.42 96.08 273.382ZM95.576 267.802C95.576 269.242 94.424 269.764 93.11 269.764H89.168V265.84H92.696C94.478 265.84 95.576 266.308 95.576 267.802ZM100.913 277L106.205 270.682V277H107.645V268.36H106.421L101.129 274.678V268.36H99.6894V277H100.913ZM111.603 269.8V268.36H110.307V280.96H111.747V275.704C112.377 276.442 113.439 277.216 115.095 277.216C117.561 277.216 119.415 275.272 119.415 272.68C119.415 270.088 117.561 268.144 115.095 268.144C113.439 268.144 112.377 268.918 111.603 269.8ZM117.975 272.68C117.975 274.66 116.607 275.884 114.933 275.884C113.385 275.884 112.233 274.876 111.747 273.76V271.6C112.233 270.484 113.385 269.476 114.933 269.476C116.607 269.476 117.975 270.7 117.975 272.68ZM120.892 272.68C120.892 275.632 123.16 277.216 125.5 277.216C127.858 277.216 130.108 275.632 130.108 272.68C130.108 269.728 127.858 268.144 125.5 268.144C123.16 268.144 120.892 269.728 120.892 272.68ZM128.668 272.68C128.668 274.678 127.264 275.848 125.5 275.848C123.736 275.848 122.332 274.678 122.332 272.68C122.332 270.682 123.736 269.512 125.5 269.512C127.264 269.512 128.668 270.682 128.668 272.68ZM140.616 272.932C140.616 270.358 138.618 268.72 136.368 268.72C135.018 268.72 133.794 269.386 133.182 270.34C133.542 269.242 134.028 268.072 135.234 267.352C137.214 266.2 138.6 266.578 139.842 265.696V264.184C138.582 265.408 136.872 264.76 134.388 266.29C132.84 267.262 131.724 269.26 131.724 272.158C131.724 275.434 133.596 277.216 136.206 277.216C138.816 277.216 140.616 275.632 140.616 272.932ZM133.164 272.968C133.164 271.51 134.37 270.088 136.17 270.088C138.06 270.088 139.176 271.33 139.176 272.968C139.176 274.606 138.06 275.848 136.17 275.848C134.352 275.848 133.164 274.606 133.164 272.968ZM144.143 277V273.346H149.147V277H150.587V268.36H149.147V272.014H144.143V268.36H142.703V277H144.143ZM154.474 277L159.766 270.682V277H161.206V268.36H159.982L154.69 274.678V268.36H153.25V277H154.474ZM165.307 277V273.292H166.999L170.167 277H171.859L168.187 272.662L171.463 268.36H169.789L167.053 271.96H165.307V268.36H163.867V277H165.307Z" fill="#37376D"/>
<path d="M390.638 82.4V87.962H383.168V82.4H381.656V95H383.168V89.402H390.638V95H392.15V82.4H390.638ZM402.01 93.2V89.816C402.01 87.404 400.552 86.144 398.248 86.144C396.826 86.144 395.638 86.486 394.954 86.72V88.124C395.71 87.8 396.772 87.476 398.104 87.476C399.688 87.476 400.57 88.34 400.57 89.636V89.942C399.85 89.78 398.932 89.672 398.176 89.672C396.322 89.672 394.27 90.356 394.27 92.588C394.27 94.406 395.782 95.216 397.312 95.216C398.716 95.216 399.814 94.784 400.678 94.064C400.93 94.82 401.56 95.108 402.262 95.108C402.622 95.108 403 95.036 403.342 94.91V93.74C403.126 93.812 402.892 93.866 402.676 93.866C402.298 93.866 402.01 93.722 402.01 93.2ZM395.746 92.516C395.746 91.256 397.114 90.878 398.374 90.878C399.076 90.878 399.958 91.004 400.57 91.13V92.714C399.814 93.524 398.716 93.974 397.618 93.974C396.664 93.974 395.746 93.524 395.746 92.516ZM405.751 95L408.109 91.976H410.539V95H411.979V86.36H407.731C405.625 86.36 404.491 87.656 404.491 89.168C404.491 90.374 405.211 91.436 406.561 91.832L404.059 95H405.751ZM405.931 89.168C405.931 88.214 406.651 87.656 407.857 87.656H410.539V90.68H407.857C406.651 90.68 405.931 90.122 405.931 89.168ZM419.521 95C421.393 95 422.311 94.028 422.311 92.606C422.311 91.526 421.591 90.842 420.889 90.608C421.537 90.32 422.041 89.6 422.041 88.7C422.041 87.17 420.889 86.36 419.377 86.36H414.643V95H419.521ZM416.083 91.256H419.377C420.097 91.256 420.871 91.49 420.871 92.516C420.871 93.47 420.223 93.74 419.323 93.74H416.083V91.256ZM416.083 87.62H419.233C419.845 87.62 420.583 87.872 420.583 88.844C420.583 89.726 419.989 90.014 419.233 90.014H416.083V87.62ZM425.944 95V91.346H430.948V95H432.388V86.36H430.948V90.014H425.944V86.36H424.504V95H425.944ZM436.83 95H435.248V85.3496H436.83V95ZM435.125 82.7393C435.125 82.3877 435.213 82.1328 435.389 81.9746C435.57 81.8164 435.793 81.7373 436.057 81.7373C436.303 81.7373 436.517 81.8164 436.698 81.9746C436.886 82.1328 436.979 82.3877 436.979 82.7393C436.979 83.085 436.886 83.3398 436.698 83.5039C436.517 83.668 436.303 83.75 436.057 83.75C435.793 83.75 435.57 83.668 435.389 83.5039C435.213 83.3398 435.125 83.085 435.125 82.7393ZM439.097 90.716C439.097 93.794 441.455 95.216 443.723 95.216C444.803 95.216 445.721 95.018 446.531 94.622V93.182C445.811 93.614 444.857 93.884 443.921 93.884C442.229 93.884 440.537 92.894 440.537 90.68C440.537 88.412 442.283 87.476 443.957 87.476C444.875 87.476 445.793 87.746 446.441 88.25V86.846C445.703 86.36 444.749 86.144 443.777 86.144C441.527 86.144 439.097 87.566 439.097 90.716ZM452.239 95V87.692H455.407V86.36H447.613V87.692H450.799V95H452.239ZM461.145 95C463.251 95 464.493 93.794 464.493 92.192C464.493 90.59 463.251 89.384 461.145 89.384H458.481V86.36H457.041V95H461.145ZM458.481 90.68H460.965C462.225 90.68 463.035 91.166 463.035 92.192C463.035 93.218 462.225 93.704 460.965 93.704H458.481V90.68Z" fill="#37376D"/>
<path d="M381.656 119.4V132H386.966C388.802 132 391.61 131.406 391.61 128.544C391.61 126.492 390.134 125.664 389.09 125.376C390.08 125.088 391.106 124.188 391.106 122.586C391.106 120.462 389.396 119.4 386.822 119.4H381.656ZM390.08 128.382C390.08 130.452 388.244 130.56 386.66 130.56H383.168V126.204H387.074C388.28 126.204 390.08 126.42 390.08 128.382ZM389.576 122.802C389.576 124.242 388.424 124.764 387.11 124.764H383.168V120.84H386.696C388.478 120.84 389.576 121.308 389.576 122.802ZM394.913 132L400.205 125.682V132H401.645V123.36H400.421L395.129 129.678V123.36H393.689V132H394.913ZM412.749 127.932C412.749 125.358 410.751 123.72 408.501 123.72C407.151 123.72 405.927 124.386 405.315 125.34C405.675 124.242 406.161 123.072 407.367 122.352C409.347 121.2 410.733 121.578 411.975 120.696V119.184C410.715 120.408 409.005 119.76 406.521 121.29C404.973 122.262 403.857 124.26 403.857 127.158C403.857 130.434 405.729 132.216 408.339 132.216C410.949 132.216 412.749 130.632 412.749 127.932ZM405.297 127.968C405.297 126.51 406.503 125.088 408.303 125.088C410.193 125.088 411.309 126.33 411.309 127.968C411.309 129.606 410.193 130.848 408.303 130.848C406.485 130.848 405.297 129.606 405.297 127.968ZM416.132 124.8V123.36H414.836V135.96H416.276V130.704C416.906 131.442 417.968 132.216 419.624 132.216C422.09 132.216 423.944 130.272 423.944 127.68C423.944 125.088 422.09 123.144 419.624 123.144C417.968 123.144 416.906 123.918 416.132 124.8ZM422.504 127.68C422.504 129.66 421.136 130.884 419.462 130.884C417.914 130.884 416.762 129.876 416.276 128.76V126.6C416.762 125.484 417.914 124.476 419.462 124.476C421.136 124.476 422.504 125.7 422.504 127.68ZM433.036 130.2V126.816C433.036 124.404 431.578 123.144 429.274 123.144C427.852 123.144 426.664 123.486 425.98 123.72V125.124C426.736 124.8 427.798 124.476 429.13 124.476C430.714 124.476 431.596 125.34 431.596 126.636V126.942C430.876 126.78 429.958 126.672 429.202 126.672C427.348 126.672 425.296 127.356 425.296 129.588C425.296 131.406 426.808 132.216 428.338 132.216C429.742 132.216 430.84 131.784 431.704 131.064C431.956 131.82 432.586 132.108 433.288 132.108C433.648 132.108 434.026 132.036 434.368 131.91V130.74C434.152 130.812 433.918 130.866 433.702 130.866C433.324 130.866 433.036 130.722 433.036 130.2ZM426.772 129.516C426.772 128.256 428.14 127.878 429.4 127.878C430.102 127.878 430.984 128.004 431.596 128.13V129.714C430.84 130.524 429.742 130.974 428.644 130.974C427.69 130.974 426.772 130.524 426.772 129.516ZM439.108 132V124.692H442.276V123.36H434.482V124.692H437.668V132H439.108ZM445.134 132L450.426 125.682V132H451.866V123.36H450.642L445.35 129.678V123.36H443.91V132H445.134Z" fill="#9B9BB6"/>
<path d="M381.656 210.4V223H386.966C388.802 223 391.61 222.406 391.61 219.544C391.61 217.492 390.134 216.664 389.09 216.376C390.08 216.088 391.106 215.188 391.106 213.586C391.106 211.462 389.396 210.4 386.822 210.4H381.656ZM390.08 219.382C390.08 221.452 388.244 221.56 386.66 221.56H383.168V217.204H387.074C388.28 217.204 390.08 217.42 390.08 219.382ZM389.576 213.802C389.576 215.242 388.424 215.764 387.11 215.764H383.168V211.84H386.696C388.478 211.84 389.576 212.308 389.576 213.802ZM394.913 223L400.205 216.682V223H401.645V214.36H400.421L395.129 220.678V214.36H393.689V223H394.913ZM412.749 218.932C412.749 216.358 410.751 214.72 408.501 214.72C407.151 214.72 405.927 215.386 405.315 216.34C405.675 215.242 406.161 214.072 407.367 213.352C409.347 212.2 410.733 212.578 411.975 211.696V210.184C410.715 211.408 409.005 210.76 406.521 212.29C404.973 213.262 403.857 215.26 403.857 218.158C403.857 221.434 405.729 223.216 408.339 223.216C410.949 223.216 412.749 221.632 412.749 218.932ZM405.297 218.968C405.297 217.51 406.503 216.088 408.303 216.088C410.193 216.088 411.309 217.33 411.309 218.968C411.309 220.606 410.193 221.848 408.303 221.848C406.485 221.848 405.297 220.606 405.297 218.968ZM416.132 215.8V214.36H414.836V226.96H416.276V221.704C416.906 222.442 417.968 223.216 419.624 223.216C422.09 223.216 423.944 221.272 423.944 218.68C423.944 216.088 422.09 214.144 419.624 214.144C417.968 214.144 416.906 214.918 416.132 215.8ZM422.504 218.68C422.504 220.66 421.136 221.884 419.462 221.884C417.914 221.884 416.762 220.876 416.276 219.76V217.6C416.762 216.484 417.914 215.476 419.462 215.476C421.136 215.476 422.504 216.7 422.504 218.68ZM433.036 221.2V217.816C433.036 215.404 431.578 214.144 429.274 214.144C427.852 214.144 426.664 214.486 425.98 214.72V216.124C426.736 215.8 427.798 215.476 429.13 215.476C430.714 215.476 431.596 216.34 431.596 217.636V217.942C430.876 217.78 429.958 217.672 429.202 217.672C427.348 217.672 425.296 218.356 425.296 220.588C425.296 222.406 426.808 223.216 428.338 223.216C429.742 223.216 430.84 222.784 431.704 222.064C431.956 222.82 432.586 223.108 433.288 223.108C433.648 223.108 434.026 223.036 434.368 222.91V221.74C434.152 221.812 433.918 221.866 433.702 221.866C433.324 221.866 433.036 221.722 433.036 221.2ZM426.772 220.516C426.772 219.256 428.14 218.878 429.4 218.878C430.102 218.878 430.984 219.004 431.596 219.13V220.714C430.84 221.524 429.742 221.974 428.644 221.974C427.69 221.974 426.772 221.524 426.772 220.516ZM439.108 223V215.692H442.276V214.36H434.482V215.692H437.668V223H439.108ZM445.134 223L450.426 216.682V223H451.866V214.36H450.642L445.35 220.678V214.36H443.91V223H445.134ZM456.075 222.244C456.075 221.65 455.643 221.344 455.139 221.344C454.635 221.344 454.185 221.65 454.185 222.244C454.185 222.856 454.635 223.162 455.139 223.162C455.643 223.162 456.075 222.856 456.075 222.244ZM459.943 222.244C459.943 221.65 459.511 221.344 459.007 221.344C458.503 221.344 458.053 221.65 458.053 222.244C458.053 222.856 458.503 223.162 459.007 223.162C459.511 223.162 459.943 222.856 459.943 222.244ZM463.81 222.244C463.81 221.65 463.378 221.344 462.874 221.344C462.37 221.344 461.92 221.65 461.92 222.244C461.92 222.856 462.37 223.162 462.874 223.162C463.378 223.162 463.81 222.856 463.81 222.244Z" fill="#9B9BB6"/>
<path d="M381.656 301.4V314H386.966C388.802 314 391.61 313.406 391.61 310.544C391.61 308.492 390.134 307.664 389.09 307.376C390.08 307.088 391.106 306.188 391.106 304.586C391.106 302.462 389.396 301.4 386.822 301.4H381.656ZM390.08 310.382C390.08 312.452 388.244 312.56 386.66 312.56H383.168V308.204H387.074C388.28 308.204 390.08 308.42 390.08 310.382ZM389.576 304.802C389.576 306.242 388.424 306.764 387.11 306.764H383.168V302.84H386.696C388.478 302.84 389.576 303.308 389.576 304.802ZM395.574 314H393.992V304.35H395.574V314ZM393.869 301.739C393.869 301.388 393.957 301.133 394.133 300.975C394.314 300.816 394.537 300.737 394.801 300.737C395.047 300.737 395.261 300.816 395.442 300.975C395.63 301.133 395.724 301.388 395.724 301.739C395.724 302.085 395.63 302.34 395.442 302.504C395.261 302.668 395.047 302.75 394.801 302.75C394.537 302.75 394.314 302.668 394.133 302.504C393.957 302.34 393.869 302.085 393.869 301.739ZM398.976 316.34V314H406.5V316.34H407.904V312.704H406.644V305.36H400.2C400.236 308.582 399.804 310.796 398.724 312.704H397.572V316.34H398.976ZM401.586 306.656H405.204V312.704H400.29C401.082 311.048 401.514 309.248 401.586 306.656Z" fill="#9B9BB6"/>
<path d="M381.782 188.97V186H391.808V188.97H393.248V184.56H391.664V173.4H383.924C383.924 177.27 383.492 181.626 381.872 184.56H380.342V188.97H381.782ZM385.472 174.84H390.152V184.56H383.564C384.824 182.076 385.274 178.242 385.472 174.84ZM394.273 181.68C394.273 184.632 396.541 186.216 398.881 186.216C401.239 186.216 403.489 184.632 403.489 181.68C403.489 178.728 401.239 177.144 398.881 177.144C396.541 177.144 394.273 178.728 394.273 181.68ZM402.049 181.68C402.049 183.678 400.645 184.848 398.881 184.848C397.117 184.848 395.713 183.678 395.713 181.68C395.713 179.682 397.117 178.512 398.881 178.512C400.645 178.512 402.049 179.682 402.049 181.68ZM406.995 186V178.692H411.999V186H413.439V177.36H405.555V186H406.995ZM419.738 184.362L416.48 177.36H414.95L419.054 186.018L418.73 186.81C418.172 188.214 417.47 188.916 416.498 188.916C416.246 188.916 415.994 188.88 415.742 188.808V190.05C416.066 190.14 416.372 190.176 416.678 190.176C417.938 190.176 419.036 189.384 419.936 187.296L424.184 177.36H422.654L419.738 184.362ZM424.877 181.716C424.877 184.794 427.235 186.216 429.503 186.216C430.583 186.216 431.501 186.018 432.311 185.622V184.182C431.591 184.614 430.637 184.884 429.701 184.884C428.009 184.884 426.317 183.894 426.317 181.68C426.317 179.412 428.063 178.476 429.737 178.476C430.655 178.476 431.573 178.746 432.221 179.25V177.846C431.483 177.36 430.529 177.144 429.557 177.144C427.307 177.144 424.877 178.566 424.877 181.716ZM438.018 186V178.692H441.186V177.36H433.392V178.692H436.578V186H438.018ZM444.044 186L449.336 179.682V186H450.776V177.36H449.552L444.26 183.678V177.36H442.82V186H444.044ZM454.805 186V179.484L457.613 183.75H458.693L461.501 179.484V186H462.869V177.36H461.303L458.153 182.148L455.003 177.36H453.437V186H454.805ZM464.937 181.68C464.937 184.758 467.169 186.216 469.725 186.216C470.859 186.216 471.993 186 472.785 185.586V184.182C472.047 184.596 471.003 184.884 469.941 184.884C468.195 184.884 466.557 184.128 466.377 182.31H473.253C473.793 179.862 472.569 177.144 469.239 177.144C467.187 177.144 464.937 178.656 464.937 181.68ZM471.975 181.05H466.377C466.485 179.358 467.853 178.476 469.329 178.476C471.525 178.476 472.101 180.132 471.975 181.05ZM484.718 186C486.59 186 487.508 185.028 487.508 183.606C487.508 182.526 486.788 181.842 486.086 181.608C486.734 181.32 487.238 180.6 487.238 179.7C487.238 178.17 486.086 177.36 484.574 177.36H479.84V186H484.718ZM481.28 182.256H484.574C485.294 182.256 486.068 182.49 486.068 183.516C486.068 184.47 485.42 184.74 484.52 184.74H481.28V182.256ZM481.28 178.62H484.43C485.042 178.62 485.78 178.872 485.78 179.844C485.78 180.726 485.186 181.014 484.43 181.014H481.28V178.62ZM491.48 186H489.898V176.35H491.48V186ZM489.775 173.739C489.775 173.388 489.863 173.133 490.039 172.975C490.221 172.816 490.443 172.737 490.707 172.737C490.953 172.737 491.167 172.816 491.349 172.975C491.536 173.133 491.63 173.388 491.63 173.739C491.63 174.085 491.536 174.34 491.349 174.504C491.167 174.668 490.953 174.75 490.707 174.75C490.443 174.75 490.221 174.668 490.039 174.504C489.863 174.34 489.775 174.085 489.775 173.739ZM494.882 188.34V186H502.406V188.34H503.81V184.704H502.55V177.36H496.106C496.142 180.582 495.71 182.796 494.63 184.704H493.478V188.34H494.882ZM497.492 178.656H501.11V184.704H496.196C496.988 183.048 497.42 181.248 497.492 178.656ZM511.15 177.36L508.81 180.546L506.452 177.36H504.796L507.982 181.554L504.616 186H506.272L508.81 182.58L511.33 186H512.986L509.638 181.554L512.806 177.36H511.15ZM515.763 186L521.055 179.682V186H522.495V177.36H521.271L515.979 183.678V177.36H514.539V186H515.763ZM528.216 178.692H531.726V186H533.166V177.36H526.812C526.65 182.004 526.146 184.92 524.616 184.92C524.436 184.92 524.238 184.884 524.04 184.812V185.946C524.418 186.09 524.76 186.144 525.084 186.144C527.316 186.144 527.928 183.12 528.216 178.692ZM535.232 181.68C535.232 184.758 537.464 186.216 540.02 186.216C541.154 186.216 542.288 186 543.08 185.586V184.182C542.342 184.596 541.298 184.884 540.236 184.884C538.49 184.884 536.852 184.128 536.672 182.31H543.548C544.088 179.862 542.864 177.144 539.534 177.144C537.482 177.144 535.232 178.656 535.232 181.68ZM542.27 181.05H536.672C536.78 179.358 538.148 178.476 539.624 178.476C541.82 178.476 542.396 180.132 542.27 181.05ZM547.092 186V182.346H552.096V186H553.536V177.36H552.096V181.014H547.092V177.36H545.652V186H547.092ZM557.639 186V182.346H562.643V186H564.083V177.36H562.643V181.014H557.639V177.36H556.199V186H557.639ZM567.61 186L569.968 182.976H572.398V186H573.838V177.36H569.59C567.484 177.36 566.35 178.656 566.35 180.168C566.35 181.374 567.07 182.436 568.42 182.832L565.918 186H567.61ZM567.79 180.168C567.79 179.214 568.51 178.656 569.716 178.656H572.398V181.68H569.716C568.51 181.68 567.79 181.122 567.79 180.168ZM583.054 171.438C581.47 173.724 580.444 176.802 580.444 179.7C580.444 182.598 581.47 185.676 583.054 187.962H584.458C582.928 185.676 582.064 182.526 582.064 179.7C582.064 176.874 582.928 173.724 584.458 171.438H583.054ZM589.95 187.08L597.312 172.32H595.872L588.51 187.08H589.95ZM591.336 176.01C591.336 174.192 589.95 173.184 588.402 173.184C586.836 173.184 585.432 174.192 585.432 176.01C585.432 177.828 586.836 178.836 588.402 178.836C589.95 178.836 591.336 177.828 591.336 176.01ZM586.8 176.01C586.8 175.164 587.34 174.444 588.402 174.444C589.428 174.444 589.968 175.164 589.968 176.01C589.968 176.856 589.428 177.576 588.402 177.576C587.34 177.576 586.8 176.856 586.8 176.01ZM600.372 183.39C600.372 181.572 598.986 180.564 597.438 180.564C595.872 180.564 594.468 181.572 594.468 183.39C594.468 185.208 595.872 186.216 597.438 186.216C598.986 186.216 600.372 185.208 600.372 183.39ZM595.836 183.39C595.836 182.544 596.376 181.824 597.438 181.824C598.464 181.824 599.004 182.544 599.004 183.39C599.004 184.236 598.464 184.956 597.438 184.956C596.376 184.956 595.836 184.236 595.836 183.39ZM601.353 171.438C602.883 173.724 603.747 176.874 603.747 179.7C603.747 182.526 602.883 185.676 601.353 187.962H602.757C604.341 185.676 605.367 182.598 605.367 179.7C605.367 176.802 604.341 173.724 602.757 171.438H601.353Z" fill="#37376D"/>
<path d="M381.656 264.4V277H386.966C388.802 277 391.61 276.406 391.61 273.544C391.61 271.492 390.134 270.664 389.09 270.376C390.08 270.088 391.106 269.188 391.106 267.586C391.106 265.462 389.396 264.4 386.822 264.4H381.656ZM390.08 273.382C390.08 275.452 388.244 275.56 386.66 275.56H383.168V271.204H387.074C388.28 271.204 390.08 271.42 390.08 273.382ZM389.576 267.802C389.576 269.242 388.424 269.764 387.11 269.764H383.168V265.84H386.696C388.478 265.84 389.576 266.308 389.576 267.802ZM395.574 277H393.992V267.35H395.574V277ZM393.869 264.739C393.869 264.388 393.957 264.133 394.133 263.975C394.314 263.816 394.537 263.737 394.801 263.737C395.047 263.737 395.261 263.816 395.442 263.975C395.63 264.133 395.724 264.388 395.724 264.739C395.724 265.085 395.63 265.34 395.442 265.504C395.261 265.668 395.047 265.75 394.801 265.75C394.537 265.75 394.314 265.668 394.133 265.504C393.957 265.34 393.869 265.085 393.869 264.739ZM398.976 279.34V277H406.5V279.34H407.904V275.704H406.644V268.36H400.2C400.236 271.582 399.804 273.796 398.724 275.704H397.572V279.34H398.976ZM401.586 269.656H405.204V275.704H400.29C401.082 274.048 401.514 272.248 401.586 269.656ZM415.244 268.36L412.904 271.546L410.546 268.36H408.89L412.076 272.554L408.71 277H410.366L412.904 273.58L415.424 277H417.08L413.732 272.554L416.9 268.36H415.244ZM419.857 277L425.149 270.682V277H426.589V268.36H425.365L420.073 274.678V268.36H418.633V277H419.857ZM432.31 269.692H435.82V277H437.26V268.36H430.906C430.744 273.004 430.24 275.92 428.71 275.92C428.53 275.92 428.332 275.884 428.134 275.812V276.946C428.512 277.09 428.854 277.144 429.178 277.144C431.41 277.144 432.022 274.12 432.31 269.692ZM439.326 272.68C439.326 275.758 441.558 277.216 444.114 277.216C445.248 277.216 446.382 277 447.174 276.586V275.182C446.436 275.596 445.392 275.884 444.33 275.884C442.584 275.884 440.946 275.128 440.766 273.31H447.642C448.182 270.862 446.958 268.144 443.628 268.144C441.576 268.144 439.326 269.656 439.326 272.68ZM446.364 272.05H440.766C440.874 270.358 442.242 269.476 443.718 269.476C445.914 269.476 446.49 271.132 446.364 272.05ZM451.186 277V273.346H456.19V277H457.63V268.36H456.19V272.014H451.186V268.36H449.746V277H451.186ZM461.733 277V273.346H466.737V277H468.177V268.36H466.737V272.014H461.733V268.36H460.293V277H461.733ZM471.704 277L474.062 273.976H476.492V277H477.932V268.36H473.684C471.578 268.36 470.444 269.656 470.444 271.168C470.444 272.374 471.164 273.436 472.514 273.832L470.012 277H471.704ZM471.884 271.168C471.884 270.214 472.604 269.656 473.81 269.656H476.492V272.68H473.81C472.604 272.68 471.884 272.122 471.884 271.168Z" fill="#37376D"/>
<defs>
<filter id="filter0_d_1712_178" x="0" y="0" width="719" height="423" filterUnits="userSpaceOnUse" color-interpolation-filters="sRGB">
<feFlood flood-opacity="0" result="BackgroundImageFix"/>
<feColorMatrix in="SourceAlpha" type="matrix" values="0 0 0 0 0 0 0 0 0 0 0 0 0 0 0 0 0 0 127 0" result="hardAlpha"/>
<feOffset dy="4"/>
<feGaussianBlur stdDeviation="25"/>
<feComposite in2="hardAlpha" operator="out"/>
<feColorMatrix type="matrix" values="0 0 0 0 0 0 0 0 0 0 0 0 0 0 0 0 0 0 0.1 0"/>
<feBlend mode="normal" in2="BackgroundImageFix" result="effect1_dropShadow_1712_178"/>
<feBlend mode="normal" in="SourceGraphic" in2="effect1_dropShadow_1712_178" result="shape"/>
</filter>
</defs>
</svg>
