<svg width="565" height="287" viewBox="0 0 565 287" fill="none" xmlns="http://www.w3.org/2000/svg">
<g clip-path="url(#clip0_1711_133)">
<line y1="228.5" x2="565" y2="228.5" stroke="#DDDDE6" stroke-dasharray="7 7"/>
<line y1="169.5" x2="565" y2="169.5" stroke="#DDDDE6" stroke-dasharray="7 7"/>
<line y1="110.5" x2="565" y2="110.5" stroke="#DDDDE6" stroke-dasharray="7 7"/>
<line y1="51.5" x2="565" y2="51.5" stroke="#DDDDE6" stroke-dasharray="7 7"/>
<line x1="112.5" y1="287" x2="112.5" y2="2.18557e-08" stroke="#DDDDE6"/>
<line x1="225.5" y1="287" x2="225.5" y2="2.18557e-08" stroke="#DDDDE6"/>
<line x1="338.5" y1="287" x2="338.5" y2="2.18557e-08" stroke="#DDDDE6"/>
<line x1="451.5" y1="287" x2="451.5" y2="2.18557e-08" stroke="#DDDDE6"/>
<path d="M34.1898 215.298L1.5963 247.412C1.2148 247.788 1 248.302 1 248.837V285.5C1 286.605 1.89544 287.5 3.00001 287.5H563C564.105 287.5 565 286.605 565 285.5V195.418C565 194.569 564.463 193.812 563.662 193.531L527.053 180.694C526.692 180.567 526.375 180.34 526.139 180.038L514.781 165.499C514.304 164.889 513.518 164.609 512.763 164.78L489.266 170.1C488.264 170.327 487.252 169.757 486.927 168.782L482.182 154.546C481.814 153.442 480.584 152.884 479.511 153.334L467.726 158.276C466.755 158.684 465.634 158.268 465.163 157.326L459.261 145.522C459.091 145.181 458.826 144.896 458.499 144.7L400.974 110.284C400.664 110.098 400.309 110 399.947 110H331.488C330.865 110 330.278 110.29 329.9 110.785L299.059 151.115C298.452 151.909 297.352 152.132 296.483 151.639L280.605 142.627C279.931 142.244 279.096 142.286 278.463 142.734L259.519 156.133C259.181 156.372 258.778 156.5 258.364 156.5H227.082C226.702 156.5 226.33 156.608 226.009 156.813L194.533 176.843C193.899 177.246 193.092 177.26 192.445 176.879L186.601 173.442C185.698 172.911 184.539 173.166 183.943 174.027L176.596 184.638C176.223 185.178 175.608 185.5 174.952 185.5H152.566C152.196 185.5 151.833 185.397 151.518 185.203L140.295 178.297C139.53 177.826 138.544 177.923 137.886 178.535L104.576 209.466C104.206 209.809 103.719 210 103.215 210H75.9829C75.6655 210 75.3527 210.076 75.0703 210.22L56.68 219.651C56.2421 219.876 55.7368 219.931 55.2607 219.806L36.1003 214.788C35.418 214.609 34.6922 214.803 34.1898 215.298Z" fill="url(#paint0_linear_1711_133)"/>
<path d="M1 248L34.1898 215.298C34.6922 214.803 35.418 214.609 36.1002 214.788L55.2607 219.806C55.7368 219.931 56.2421 219.876 56.68 219.651L75.0703 210.22C75.3527 210.076 75.6655 210 75.9829 210H103.215C103.719 210 104.206 209.809 104.576 209.466L137.886 178.535C138.544 177.923 139.53 177.826 140.295 178.297L151.518 185.203C151.833 185.397 152.196 185.5 152.566 185.5H174.952C175.608 185.5 176.223 185.178 176.596 184.638L183.943 174.027C184.539 173.166 185.698 172.911 186.601 173.442L192.445 176.879C193.092 177.26 193.899 177.246 194.533 176.843L226.009 156.813C226.33 156.608 226.702 156.5 227.082 156.5H258.364C258.778 156.5 259.181 156.372 259.519 156.133L278.463 142.734C279.096 142.286 279.931 142.244 280.605 142.627L296.501 151.649C297.362 152.138 298.452 151.923 299.063 151.143L329.899 111.767C330.279 111.283 330.859 111 331.474 111H399.961C400.314 111 400.661 111.093 400.966 111.271L458.483 144.7C458.82 144.896 459.093 145.186 459.267 145.534L465.163 157.326C465.634 158.268 466.755 158.684 467.726 158.276L479.511 153.334C480.584 152.884 481.814 153.442 482.182 154.546L486.927 168.782C487.252 169.757 488.264 170.327 489.266 170.1L512.763 164.78C513.518 164.609 514.304 164.889 514.781 165.499L526.139 180.038C526.375 180.34 526.692 180.567 527.053 180.694L565 194" stroke="#0FA7F0" stroke-width="2"/>
<path d="M136.115 51V39.84H143.369V51H144.881V38.4H134.603V51H136.115ZM149.646 51H148.064V41.3496H149.646V51ZM147.941 38.7393C147.941 38.3877 148.029 38.1328 148.205 37.9746C148.387 37.8164 148.609 37.7373 148.873 37.7373C149.119 37.7373 149.333 37.8164 149.515 37.9746C149.702 38.1328 149.796 38.3877 149.796 38.7393C149.796 39.085 149.702 39.3398 149.515 39.5039C149.333 39.668 149.119 39.75 148.873 39.75C148.609 39.75 148.387 39.668 148.205 39.5039C148.029 39.3398 147.941 39.085 147.941 38.7393ZM153.048 53.34V51H160.572V53.34H161.976V49.704H160.716V42.36H154.272C154.308 45.582 153.876 47.796 152.796 49.704H151.644V53.34H153.048ZM155.658 43.656H159.276V49.704H154.362C155.154 48.048 155.586 46.248 155.658 43.656ZM168.776 51C170.648 51 171.566 50.028 171.566 48.606C171.566 47.526 170.846 46.842 170.144 46.608C170.792 46.32 171.296 45.6 171.296 44.7C171.296 43.17 170.144 42.36 168.632 42.36H163.898V51H168.776ZM165.338 47.256H168.632C169.352 47.256 170.126 47.49 170.126 48.516C170.126 49.47 169.478 49.74 168.578 49.74H165.338V47.256ZM165.338 43.62H168.488C169.1 43.62 169.838 43.872 169.838 44.844C169.838 45.726 169.244 46.014 168.488 46.014H165.338V43.62ZM174.984 51L180.276 44.682V51H181.716V42.36H180.492L175.2 48.678V42.36H173.76V51H174.984ZM197.697 53.34V49.668H196.437V42.36H194.997V49.668H191.127V42.36H189.687V49.668H185.817V42.36H184.377V51H196.293V53.34H197.697ZM198.847 46.68C198.847 49.758 201.079 51.216 203.635 51.216C204.769 51.216 205.903 51 206.695 50.586V49.182C205.957 49.596 204.913 49.884 203.851 49.884C202.105 49.884 200.467 49.128 200.287 47.31H207.163C207.703 44.862 206.479 42.144 203.149 42.144C201.097 42.144 198.847 43.656 198.847 46.68ZM205.885 46.05H200.287C200.395 44.358 201.763 43.476 203.239 43.476C205.435 43.476 206.011 45.132 205.885 46.05ZM210.708 51V47.346H215.712V51H217.152V42.36H215.712V46.014H210.708V42.36H209.268V51H210.708ZM221.038 51L226.33 44.682V51H227.77V42.36H226.546L221.254 48.678V42.36H219.814V51H221.038ZM236.93 40.272V38.976C236.03 39.57 235.292 39.768 234.41 39.768C233.528 39.768 232.79 39.57 231.89 38.976V40.272C232.7 40.848 233.546 41.028 234.41 41.028C235.274 41.028 236.12 40.848 236.93 40.272ZM231.656 51L236.948 44.682V51H238.388V42.36H237.164L231.872 48.678V42.36H230.432V51H231.656ZM246.971 51V43.692H251.975V51H253.415V42.36H245.531V51H246.971ZM255.484 46.68C255.484 49.632 257.752 51.216 260.092 51.216C262.45 51.216 264.7 49.632 264.7 46.68C264.7 43.728 262.45 42.144 260.092 42.144C257.752 42.144 255.484 43.728 255.484 46.68ZM263.26 46.68C263.26 48.678 261.856 49.848 260.092 49.848C258.328 49.848 256.924 48.678 256.924 46.68C256.924 44.682 258.328 43.512 260.092 43.512C261.856 43.512 263.26 44.682 263.26 46.68ZM268.206 51V43.692H273.21V51H274.65V42.36H266.766V51H268.206ZM278.536 51L283.828 44.682V51H285.268V42.36H284.044L278.752 48.678V42.36H277.312V51H278.536ZM291.53 51V43.692H294.698V42.36H286.904V43.692H290.09V51H291.53ZM177.432 71V67.346H182.436V71H183.876V62.36H182.436V66.014H177.432V62.36H175.992V71H177.432ZM193.559 69.2V65.816C193.559 63.404 192.101 62.144 189.797 62.144C188.375 62.144 187.187 62.486 186.503 62.72V64.124C187.259 63.8 188.321 63.476 189.653 63.476C191.237 63.476 192.119 64.34 192.119 65.636V65.942C191.399 65.78 190.481 65.672 189.725 65.672C187.871 65.672 185.819 66.356 185.819 68.588C185.819 70.406 187.331 71.216 188.861 71.216C190.265 71.216 191.363 70.784 192.227 70.064C192.479 70.82 193.109 71.108 193.811 71.108C194.171 71.108 194.549 71.036 194.891 70.91V69.74C194.675 69.812 194.441 69.866 194.225 69.866C193.847 69.866 193.559 69.722 193.559 69.2ZM187.295 68.516C187.295 67.256 188.663 66.878 189.923 66.878C190.625 66.878 191.507 67.004 192.119 67.13V68.714C191.363 69.524 190.265 69.974 189.167 69.974C188.213 69.974 187.295 69.524 187.295 68.516ZM205.796 71C207.668 71 208.586 70.028 208.586 68.606C208.586 67.526 207.866 66.842 207.164 66.608C207.812 66.32 208.316 65.6 208.316 64.7C208.316 63.17 207.164 62.36 205.652 62.36H200.918V71H205.796ZM202.358 67.256H205.652C206.372 67.256 207.146 67.49 207.146 68.516C207.146 69.47 206.498 69.74 205.598 69.74H202.358V67.256ZM202.358 63.62H205.508C206.12 63.62 206.858 63.872 206.858 64.844C206.858 65.726 206.264 66.014 205.508 66.014H202.358V63.62ZM212.559 71H210.977V61.3496H212.559V71ZM210.854 58.7393C210.854 58.3877 210.941 58.1328 211.117 57.9746C211.299 57.8164 211.521 57.7373 211.785 57.7373C212.031 57.7373 212.245 57.8164 212.427 57.9746C212.614 58.1328 212.708 58.3877 212.708 58.7393C212.708 59.085 212.614 59.3398 212.427 59.5039C212.245 59.668 212.031 59.75 211.785 59.75C211.521 59.75 211.299 59.668 211.117 59.5039C210.941 59.3398 210.854 59.085 210.854 58.7393ZM215.96 73.34V71H223.484V73.34H224.888V69.704H223.628V62.36H217.184C217.22 65.582 216.788 67.796 215.708 69.704H214.556V73.34H215.96ZM218.57 63.656H222.188V69.704H217.274C218.066 68.048 218.498 66.248 218.57 63.656ZM226.041 66.68C226.041 69.758 228.273 71.216 230.829 71.216C231.963 71.216 233.097 71 233.889 70.586V69.182C233.151 69.596 232.107 69.884 231.045 69.884C229.299 69.884 227.661 69.128 227.481 67.31H234.357C234.897 64.862 233.673 62.144 230.343 62.144C228.291 62.144 226.041 63.656 226.041 66.68ZM233.079 66.05H227.481C227.589 64.358 228.957 63.476 230.433 63.476C232.629 63.476 233.205 65.132 233.079 66.05ZM235.867 66.68C235.867 69.632 238.135 71.216 240.475 71.216C242.833 71.216 245.083 69.632 245.083 66.68C245.083 63.728 242.833 62.144 240.475 62.144C238.135 62.144 235.867 63.728 235.867 66.68ZM243.643 66.68C243.643 68.678 242.239 69.848 240.475 69.848C238.711 69.848 237.307 68.678 237.307 66.68C237.307 64.682 238.711 63.512 240.475 63.512C242.239 63.512 243.643 64.682 243.643 66.68ZM248.588 71V67.292H250.28L253.448 71H255.14L251.468 66.662L254.744 62.36H253.07L250.334 65.96H248.588V62.36H247.148V71H248.588ZM263.52 69.2V65.816C263.52 63.404 262.062 62.144 259.758 62.144C258.336 62.144 257.148 62.486 256.464 62.72V64.124C257.22 63.8 258.282 63.476 259.614 63.476C261.198 63.476 262.08 64.34 262.08 65.636V65.942C261.36 65.78 260.442 65.672 259.686 65.672C257.832 65.672 255.78 66.356 255.78 68.588C255.78 70.406 257.292 71.216 258.822 71.216C260.226 71.216 261.324 70.784 262.188 70.064C262.44 70.82 263.07 71.108 263.772 71.108C264.132 71.108 264.51 71.036 264.852 70.91V69.74C264.636 69.812 264.402 69.866 264.186 69.866C263.808 69.866 263.52 69.722 263.52 69.2ZM257.256 68.516C257.256 67.256 258.624 66.878 259.884 66.878C260.586 66.878 261.468 67.004 262.08 67.13V68.714C261.324 69.524 260.226 69.974 259.128 69.974C258.174 69.974 257.256 69.524 257.256 68.516ZM267.692 63.8V62.36H266.396V74.96H267.836V69.704C268.466 70.442 269.528 71.216 271.184 71.216C273.65 71.216 275.504 69.272 275.504 66.68C275.504 64.088 273.65 62.144 271.184 62.144C269.528 62.144 268.466 62.918 267.692 63.8ZM274.064 66.68C274.064 68.66 272.696 69.884 271.022 69.884C269.474 69.884 268.322 68.876 267.836 67.76V65.6C268.322 64.484 269.474 63.476 271.022 63.476C272.696 63.476 274.064 64.7 274.064 66.68ZM280.912 71V63.692H284.08V62.36H276.286V63.692H279.472V71H280.912ZM286.939 71L292.231 64.682V71H293.671V62.36H292.447L287.155 68.678V62.36H285.715V71H286.939ZM122.266 91L123.562 87.958H130.348L131.644 91H133.264L127.792 78.4H126.118L120.628 91H122.266ZM126.748 80.434C126.82 80.272 126.874 80.128 126.946 79.948C127.018 80.128 127.072 80.272 127.144 80.434L129.754 86.554H124.156L126.748 80.434ZM134.232 84.628C134.232 87.724 139.74 87.004 139.74 88.822C139.74 89.686 138.768 89.884 137.544 89.884C136.464 89.884 135.15 89.56 134.268 88.966V90.37C135.078 90.892 136.392 91.216 137.616 91.216C139.488 91.216 141.18 90.586 141.18 88.786C141.18 85.672 135.69 86.464 135.69 84.592C135.69 83.746 136.68 83.44 137.616 83.44C138.66 83.44 139.866 83.782 140.586 84.25V82.882C139.776 82.45 138.678 82.144 137.526 82.144C135.906 82.144 134.232 82.846 134.232 84.628ZM149.583 82.36V88.156C149.007 89.02 148.053 89.884 146.775 89.884C145.263 89.884 144.453 89.128 144.453 87.508V82.36H143.013V87.688C143.013 89.794 144.363 91.216 146.613 91.216C147.999 91.216 149.151 90.478 149.727 89.722V91H151.023V82.36H149.583ZM153.182 84.628C153.182 87.724 158.69 87.004 158.69 88.822C158.69 89.686 157.718 89.884 156.494 89.884C155.414 89.884 154.1 89.56 153.218 88.966V90.37C154.028 90.892 155.342 91.216 156.566 91.216C158.438 91.216 160.13 90.586 160.13 88.786C160.13 85.672 154.64 86.464 154.64 84.592C154.64 83.746 155.63 83.44 156.566 83.44C157.61 83.44 158.816 83.782 159.536 84.25V82.882C158.726 82.45 157.628 82.144 156.476 82.144C154.856 82.144 153.182 82.846 153.182 84.628ZM166.877 78.4V91H168.389V86.536H171.179C174.095 86.536 176.525 85.618 176.525 82.468C176.525 79.318 174.095 78.4 171.179 78.4H166.877ZM174.995 82.468C174.995 84.592 173.303 85.096 171.251 85.096H168.389V79.84H171.251C173.321 79.84 174.995 80.326 174.995 82.468ZM177.931 84.79C177.913 88.984 181.369 91.216 184.537 91.216C185.887 91.216 187.147 90.91 188.191 90.37V88.858C187.327 89.47 186.157 89.776 184.861 89.776C182.251 89.776 179.443 88.156 179.461 84.79C179.479 81.19 182.197 79.624 184.807 79.624C185.995 79.624 187.183 79.93 188.101 80.542V79.03C187.039 78.472 185.815 78.184 184.555 78.184C181.279 78.184 177.949 80.416 177.931 84.79ZM190.537 78.4V91H192.049V78.4H190.537ZM194.691 85.852V87.22H201.117V85.852H194.691ZM203.773 78.4V91H212.377V89.56H205.285V85.366H211.729V83.926H205.285V79.84H212.269V78.4H203.773ZM220.029 82.36L217.689 85.546L215.331 82.36H213.675L216.861 86.554L213.495 91H215.151L217.689 87.58L220.209 91H221.865L218.517 86.554L221.685 82.36H220.029ZM227.396 84.7C227.396 89.452 230.78 91.216 234.236 91.216C235.604 91.216 237.008 90.91 238.178 90.37V84.304H236.666V89.308C236.036 89.614 235.19 89.776 234.344 89.776C231.698 89.776 228.926 88.498 228.926 84.7C228.926 81.1 231.662 79.624 234.308 79.624C235.622 79.624 236.9 79.93 237.872 80.542V79.03C236.756 78.472 235.424 78.184 234.092 78.184C230.744 78.184 227.396 80.362 227.396 84.7ZM239.998 86.68C239.998 89.758 242.23 91.216 244.786 91.216C245.92 91.216 247.054 91 247.846 90.586V89.182C247.108 89.596 246.064 89.884 245.002 89.884C243.256 89.884 241.618 89.128 241.438 87.31H248.314C248.854 84.862 247.63 82.144 244.3 82.144C242.248 82.144 239.998 83.656 239.998 86.68ZM247.036 86.05H241.438C241.546 84.358 242.914 83.476 244.39 83.476C246.586 83.476 247.162 85.132 247.036 86.05ZM250.636 78.4V91H252.148V85.618H258.646V84.178H252.148V79.84H259.168V78.4H250.636ZM260.142 86.68C260.142 89.632 262.41 91.216 264.75 91.216C267.108 91.216 269.358 89.632 269.358 86.68C269.358 83.728 267.108 82.144 264.75 82.144C262.41 82.144 260.142 83.728 260.142 86.68ZM267.918 86.68C267.918 88.678 266.514 89.848 264.75 89.848C262.986 89.848 261.582 88.678 261.582 86.68C261.582 84.682 262.986 83.512 264.75 83.512C266.514 83.512 267.918 84.682 267.918 86.68ZM272.72 83.89V82.36H271.424V91H272.864V85.618C273.386 84.232 274.754 83.422 276.446 83.62V82.18C274.934 82.054 273.404 82.756 272.72 83.89ZM277.105 86.716C277.105 89.794 279.463 91.216 281.731 91.216C282.811 91.216 283.729 91.018 284.539 90.622V89.182C283.819 89.614 282.865 89.884 281.929 89.884C280.237 89.884 278.545 88.894 278.545 86.68C278.545 84.412 280.291 83.476 281.965 83.476C282.883 83.476 283.801 83.746 284.449 84.25V82.846C283.711 82.36 282.757 82.144 281.785 82.144C279.535 82.144 277.105 83.566 277.105 86.716ZM285.877 86.68C285.877 89.758 288.109 91.216 290.665 91.216C291.799 91.216 292.933 91 293.725 90.586V89.182C292.987 89.596 291.943 89.884 290.881 89.884C289.135 89.884 287.497 89.128 287.317 87.31H294.193C294.733 84.862 293.509 82.144 290.179 82.144C288.127 82.144 285.877 83.656 285.877 86.68ZM292.915 86.05H287.317C287.425 84.358 288.793 83.476 290.269 83.476C292.465 83.476 293.041 85.132 292.915 86.05ZM212.176 111V106.032H215.2L219.322 111H221.212L216.946 105.906C218.728 105.582 220.312 104.538 220.312 102.216C220.312 99.336 217.864 98.4 215.596 98.4H210.664V111H212.176ZM212.176 99.84H215.668C217.18 99.84 218.782 100.326 218.782 102.216C218.782 104.088 217.18 104.592 215.668 104.592H212.176V99.84ZM221.459 98.4V99.84H225.887V111H227.399V99.84H231.827V98.4H221.459ZM233.906 111L237.884 105.726L241.844 111H243.644L238.784 104.52L243.374 98.4H241.574L237.884 103.314L234.176 98.4H232.376L236.984 104.52L232.106 111H233.906ZM257.123 101.874C257.123 99.894 255.467 98.544 252.965 98.544C251.435 98.544 250.193 98.85 249.095 99.408V100.884C250.283 100.254 251.471 99.948 252.767 99.948C254.639 99.948 255.665 100.74 255.665 102C255.665 103.134 254.801 103.98 253.019 103.98L251.309 103.962V105.402H253.181C254.837 105.402 256.169 105.924 256.169 107.598C256.169 109.2 254.819 109.794 253.019 109.794C251.399 109.812 250.121 109.56 248.879 108.912V110.406C250.085 110.946 251.399 111.216 253.145 111.216C255.593 111.216 257.627 110.046 257.627 107.67C257.627 105.798 256.385 104.898 255.341 104.574C256.385 104.214 257.123 103.134 257.123 101.874ZM259.426 104.88C259.426 108.498 261.118 111.216 264.826 111.216C268.552 111.216 270.244 108.498 270.244 104.88C270.244 101.262 268.552 98.544 264.826 98.544C261.118 98.544 259.426 101.262 259.426 104.88ZM268.714 104.88C268.714 107.94 267.508 109.776 264.826 109.776C262.162 109.776 260.956 107.94 260.956 104.88C260.956 101.82 262.162 99.984 264.826 99.984C267.508 99.984 268.714 101.82 268.714 104.88ZM273.63 104.538C273.81 101.154 275.646 99.984 277.698 99.984C278.67 99.984 279.714 100.2 280.632 100.686V99.246C279.75 98.796 278.706 98.544 277.662 98.544C274.512 98.544 272.1 100.578 272.1 105.078C272.1 108.858 273.72 111.216 277.266 111.216C279.66 111.216 281.658 109.812 281.658 107.202C281.658 104.646 279.498 103.368 277.464 103.368C276.06 103.368 274.872 103.71 273.63 104.538ZM273.648 106.05C274.638 105.168 275.88 104.772 277.086 104.772C278.67 104.772 280.128 105.348 280.128 107.274C280.128 109.128 278.796 109.812 277.158 109.812C275.16 109.812 273.882 108.624 273.648 106.05ZM283.262 104.88C283.262 108.498 284.954 111.216 288.662 111.216C292.388 111.216 294.08 108.498 294.08 104.88C294.08 101.262 292.388 98.544 288.662 98.544C284.954 98.544 283.262 101.262 283.262 104.88ZM292.55 104.88C292.55 107.94 291.344 109.776 288.662 109.776C285.998 109.776 284.792 107.94 284.792 104.88C284.792 101.82 285.998 99.984 288.662 99.984C291.344 99.984 292.55 101.82 292.55 104.88Z" fill="black"/>
<rect x="402" y="152.005" width="6" height="17.7469" transform="rotate(-45 402 152.005)" fill="#37376D"/>
<path d="M408 165.996L419.996 154L447.161 181.165C450.473 184.478 450.473 189.849 447.161 193.161V193.161C443.848 196.474 438.478 196.474 435.165 193.161L408 165.996Z" fill="#37376D"/>
<circle cx="366" cy="112" r="52" fill="#0FA7F0" fill-opacity="0.2" stroke="#37376D" stroke-width="6"/>
</g>
<defs>
<linearGradient id="paint0_linear_1711_133" x1="283" y1="124" x2="283" y2="287.5" gradientUnits="userSpaceOnUse">
<stop stop-color="#0FA7F0" stop-opacity="0.2"/>
<stop offset="1" stop-color="#0FA7F0" stop-opacity="0"/>
</linearGradient>
<clipPath id="clip0_1711_133">
<rect width="565" height="287" fill="white"/>
</clipPath>
</defs>
</svg>
