<svg width="533" height="348" viewBox="0 0 533 348" fill="none" xmlns="http://www.w3.org/2000/svg">
<path d="M0 15C0 6.71573 6.71573 0 15 0H518C526.284 0 533 6.71573 533 15V333C533 341.284 526.284 348 518 348H15C6.71572 348 0 341.284 0 333V15Z" fill="white"/>
<path d="M55.725 72H52.575V57.3H65.364V72H62.235V60.135H55.725V72ZM68.998 70.887C67.92 69.949 67.381 68.64 67.381 66.96C67.381 65.28 67.92 63.971 68.998 63.033C70.076 62.095 71.392 61.626 72.946 61.626C74.514 61.626 75.83 62.095 76.894 63.033C77.972 63.971 78.511 65.28 78.511 66.96C78.511 68.64 77.972 69.949 76.894 70.887C75.83 71.825 74.514 72.294 72.946 72.294C71.392 72.294 70.076 71.825 68.998 70.887ZM74.857 68.934C75.319 68.416 75.55 67.758 75.55 66.96C75.55 66.162 75.319 65.511 74.857 65.007C74.395 64.489 73.758 64.23 72.946 64.23C72.134 64.23 71.497 64.489 71.035 65.007C70.587 65.511 70.363 66.162 70.363 66.96C70.363 67.758 70.587 68.416 71.035 68.934C71.497 69.438 72.134 69.69 72.946 69.69C73.758 69.69 74.395 69.438 74.857 68.934ZM84.7052 64.23C84.6212 65.462 84.5022 66.526 84.3482 67.422C84.2082 68.304 83.9982 69.13 83.7182 69.9C83.4382 70.656 83.0602 71.23 82.5842 71.622C82.1082 72.014 81.5342 72.21 80.8622 72.21C80.3442 72.21 79.8122 72.112 79.2662 71.916V69.606C79.4762 69.69 79.6792 69.732 79.8752 69.732C80.6032 69.732 81.1142 69.081 81.4082 67.779C81.7022 66.477 81.9052 64.524 82.0172 61.92H90.2072V72H87.2882V64.23H84.7052ZM95.0744 72H91.7984L94.4444 68.619C93.7724 68.325 93.2614 67.898 92.9114 67.338C92.5614 66.778 92.3864 66.148 92.3864 65.448C92.3864 64.454 92.7364 63.621 93.4364 62.949C94.1504 62.263 95.1444 61.92 96.4184 61.92H101.878V72H98.9594V68.997H97.3214L95.0744 72ZM95.3474 65.532C95.3474 65.938 95.4874 66.253 95.7674 66.477C96.0614 66.701 96.4744 66.813 97.0064 66.813H98.9594V64.23H97.0064C95.9004 64.23 95.3474 64.664 95.3474 65.532Z" fill="black"/>
<rect x="51.5" y="96.5" width="129" height="195" rx="2.5" fill="white" stroke="#E6E6E6"/>
<rect x="200.5" y="96.5" width="129" height="87" rx="2.5" fill="white" stroke="#E6E6E6"/>
<rect x="200.5" y="204.5" width="129" height="87" rx="2.5" fill="white" stroke="#E6E6E6"/>
<rect x="350.5" y="204.5" width="129" height="87" rx="2.5" fill="white" stroke="#E6E6E6"/>
<rect x="350.5" y="96.5" width="129" height="87" rx="2.5" fill="white" stroke="#E6E6E6"/>
<path d="M51.5 99C51.5 97.6193 52.6193 96.5 54 96.5H178C179.381 96.5 180.5 97.6193 180.5 99V125.5H51.5V99Z" fill="#F8F8F8" stroke="#E6E6E6"/>
<path d="M200.5 99C200.5 97.6193 201.619 96.5 203 96.5H327C328.381 96.5 329.5 97.6193 329.5 99V125.5H200.5V99Z" fill="#F8F8F8" stroke="#E6E6E6"/>
<path d="M200.5 207C200.5 205.619 201.619 204.5 203 204.5H327C328.381 204.5 329.5 205.619 329.5 207V233.5H200.5V207Z" fill="#F8F8F8" stroke="#E6E6E6"/>
<path d="M350.5 207C350.5 205.619 351.619 204.5 353 204.5H477C478.381 204.5 479.5 205.619 479.5 207V233.5H350.5V207Z" fill="#F8F8F8" stroke="#E6E6E6"/>
<path d="M350.5 99C350.5 97.6193 351.619 96.5 353 96.5H477C478.381 96.5 479.5 97.6193 479.5 99V125.5H350.5V99Z" fill="#F8F8F8" stroke="#E6E6E6"/>
<path d="M51.5 125.5H180.5V154.5H51.5V125.5Z" fill="white" stroke="#E6E6E6"/>
<path d="M51.5 154.5H180.5V183.5H51.5V154.5Z" fill="white" stroke="#E6E6E6"/>
<path d="M51.5 183.5H180.5V212.5H51.5V183.5Z" fill="white" stroke="#E6E6E6"/>
<path d="M51.5 212.5H180.5V241.5H51.5V212.5Z" fill="white" stroke="#E6E6E6"/>
<path d="M51.5 241.5H180.5V270.5H51.5V241.5Z" fill="white" stroke="#E6E6E6"/>
<path d="M65.548 113.092L68.608 106.6H67.528L65.104 111.82L62.212 106.6H61.096L64.564 112.768L64.42 113.08C63.904 114.064 63.34 114.184 62.728 114.184C62.392 114.184 62.044 114.112 61.768 114.028V114.976C62.128 115.084 62.536 115.144 62.908 115.144C63.832 115.144 64.768 114.736 65.548 113.092ZM68.1365 112.144C68.1365 114.196 69.7085 115.144 71.2205 115.144C71.9405 115.144 72.5525 115.012 73.0925 114.748V113.788C72.6125 114.076 71.9765 114.256 71.3525 114.256C70.2245 114.256 69.0965 113.596 69.0965 112.12C69.0965 110.608 70.2605 109.984 71.3765 109.984C71.9885 109.984 72.6005 110.164 73.0325 110.5V109.564C72.5405 109.24 71.9045 109.096 71.2565 109.096C69.7565 109.096 68.1365 110.044 68.1365 112.144ZM75.6836 115H74.6289V108.566H75.6836V115ZM74.5469 106.826C74.5469 106.592 74.6055 106.422 74.7227 106.316C74.8438 106.211 74.9922 106.158 75.168 106.158C75.332 106.158 75.4746 106.211 75.5957 106.316C75.7207 106.422 75.7832 106.592 75.7832 106.826C75.7832 107.057 75.7207 107.227 75.5957 107.336C75.4746 107.445 75.332 107.5 75.168 107.5C74.9922 107.5 74.8438 107.445 74.7227 107.336C74.6055 107.227 74.5469 107.057 74.5469 106.826ZM81.5394 115V110.128H84.8754V115H85.8354V109.24H80.5794V115H81.5394ZM87.2147 112.12C87.2147 114.088 88.7267 115.144 90.2867 115.144C91.8587 115.144 93.3587 114.088 93.3587 112.12C93.3587 110.152 91.8587 109.096 90.2867 109.096C88.7267 109.096 87.2147 110.152 87.2147 112.12ZM92.3987 112.12C92.3987 113.452 91.4627 114.232 90.2867 114.232C89.1107 114.232 88.1747 113.452 88.1747 112.12C88.1747 110.788 89.1107 110.008 90.2867 110.008C91.4627 110.008 92.3987 110.788 92.3987 112.12ZM96.6233 110.128H98.9633V115H99.9233V109.24H95.6873C95.5793 112.336 95.2433 114.28 94.2233 114.28C94.1033 114.28 93.9713 114.256 93.8393 114.208V114.964C94.0913 115.06 94.3193 115.096 94.5353 115.096C96.0233 115.096 96.4313 113.08 96.6233 110.128ZM102.273 115L103.845 112.984H105.465V115H106.425V109.24H103.593C102.189 109.24 101.433 110.104 101.433 111.112C101.433 111.916 101.913 112.624 102.813 112.888L101.145 115H102.273ZM102.393 111.112C102.393 110.476 102.873 110.104 103.677 110.104H105.465V112.12H103.677C102.873 112.12 102.393 111.748 102.393 111.112Z" fill="#8E8E8E"/>
<path d="M215.688 115.444V114.352C218.304 114.28 220.02 113.02 220.02 110.8C220.02 108.58 218.304 107.32 215.688 107.248V106.156H214.68V107.248C212.064 107.32 210.348 108.58 210.348 110.8C210.348 113.02 212.064 114.28 214.68 114.352V115.444H215.688ZM211.368 110.8C211.368 109.228 212.472 108.244 214.68 108.16V113.44C212.472 113.356 211.368 112.372 211.368 110.8ZM215.688 108.16C217.896 108.244 219 109.228 219 110.8C219 112.372 217.896 113.356 215.688 113.44V108.16ZM222.445 115H221.391V108.566H222.445V115ZM221.309 106.826C221.309 106.592 221.367 106.422 221.484 106.316C221.605 106.211 221.754 106.158 221.93 106.158C222.094 106.158 222.236 106.211 222.357 106.316C222.482 106.422 222.545 106.592 222.545 106.826C222.545 107.057 222.482 107.227 222.357 107.336C222.236 107.445 222.094 107.5 221.93 107.5C221.754 107.5 221.605 107.445 221.484 107.336C221.367 107.227 221.309 107.057 221.309 106.826ZM226.393 110.128H228.733V115H229.693V109.24H225.457C225.349 112.336 225.013 114.28 223.993 114.28C223.873 114.28 223.741 114.256 223.609 114.208V114.964C223.861 115.06 224.089 115.096 224.305 115.096C225.793 115.096 226.201 113.08 226.393 110.128ZM234.202 115C235.606 115 236.434 114.196 236.434 113.128C236.434 112.06 235.606 111.256 234.202 111.256H232.426V109.24H231.466V115H234.202ZM232.426 112.12H234.082C234.922 112.12 235.462 112.444 235.462 113.128C235.462 113.812 234.922 114.136 234.082 114.136H232.426V112.12ZM239.327 115V110.128H241.439V109.24H236.243V110.128H238.367V115H239.327ZM243.393 110.2V109.24H242.529V117.64H243.489V114.136C243.909 114.628 244.617 115.144 245.721 115.144C247.365 115.144 248.601 113.848 248.601 112.12C248.601 110.392 247.365 109.096 245.721 109.096C244.617 109.096 243.909 109.612 243.393 110.2ZM247.641 112.12C247.641 113.44 246.729 114.256 245.613 114.256C244.581 114.256 243.813 113.584 243.489 112.84V111.4C243.813 110.656 244.581 109.984 245.613 109.984C246.729 109.984 247.641 110.8 247.641 112.12ZM250.798 115L254.326 110.788V115H255.286V109.24H254.47L250.942 113.452V109.24H249.982V115H250.798Z" fill="#8E8E8E"/>
<path d="M211.104 214.6V223H212.112V220.024H213.972C215.916 220.024 217.536 219.412 217.536 217.312C217.536 215.212 215.916 214.6 213.972 214.6H211.104ZM216.516 217.312C216.516 218.728 215.388 219.064 214.02 219.064H212.112V215.56H214.02C215.4 215.56 216.516 215.884 216.516 217.312ZM219.21 223L220.782 220.984H222.402V223H223.362V217.24H220.53C219.126 217.24 218.37 218.104 218.37 219.112C218.37 219.916 218.85 220.624 219.75 220.888L218.082 223H219.21ZM219.33 219.112C219.33 218.476 219.81 218.104 220.614 218.104H222.402V220.12H220.614C219.81 220.12 219.33 219.748 219.33 219.112ZM225.498 224.56V223H230.514V224.56H231.45V222.136H230.61V217.24H226.314C226.338 219.388 226.05 220.864 225.33 222.136H224.562V224.56H225.498ZM227.238 218.104H229.65V222.136H226.374C226.902 221.032 227.19 219.832 227.238 218.104ZM233.692 223V220.528H234.82L236.932 223H238.06L235.612 220.108L237.796 217.24H236.68L234.856 219.64H233.692V217.24H232.732V223H233.692ZM239.829 223L243.357 218.788V223H244.317V217.24H243.501L239.973 221.452V217.24H239.013V223H239.829Z" fill="#8E8E8E"/>
<path d="M366.768 220.732C366.768 219.376 365.808 218.764 365.04 218.608C365.808 218.356 366.42 217.696 366.42 216.676C366.42 215.176 365.076 214.456 363.3 214.456C362.292 214.456 361.452 214.624 360.6 214.996V216.004C361.5 215.584 362.28 215.404 363.216 215.416C364.488 215.416 365.4 215.764 365.4 216.796C365.4 217.696 364.572 218.164 363.372 218.164H361.764V219.124H363.48C364.572 219.124 365.736 219.424 365.736 220.636C365.736 221.884 364.512 222.184 363.372 222.184C362.304 222.196 361.38 222.04 360.456 221.608V222.616C361.392 222.976 362.316 223.144 363.444 223.144C365.004 223.144 366.768 222.544 366.768 220.732ZM369.102 223V220.564H372.438V223H373.398V217.24H372.438V219.676H369.102V217.24H368.142V223H369.102ZM379.853 221.8V219.544C379.853 217.936 378.881 217.096 377.345 217.096C376.397 217.096 375.605 217.324 375.149 217.48V218.416C375.653 218.2 376.361 217.984 377.249 217.984C378.305 217.984 378.893 218.56 378.893 219.424V219.628C378.413 219.52 377.801 219.448 377.297 219.448C376.061 219.448 374.693 219.904 374.693 221.392C374.693 222.604 375.701 223.144 376.721 223.144C377.657 223.144 378.389 222.856 378.965 222.376C379.133 222.88 379.553 223.072 380.021 223.072C380.261 223.072 380.513 223.024 380.741 222.94V222.16C380.597 222.208 380.441 222.244 380.297 222.244C380.045 222.244 379.853 222.148 379.853 221.8ZM375.677 221.344C375.677 220.504 376.589 220.252 377.429 220.252C377.897 220.252 378.485 220.336 378.893 220.42V221.476C378.389 222.016 377.657 222.316 376.925 222.316C376.289 222.316 375.677 222.016 375.677 221.344ZM386.165 223V217.24H385.205V220.156C384.761 220.336 384.353 220.408 383.777 220.408C382.817 220.408 382.229 220.132 382.229 219.16V217.24H381.269V219.232C381.269 220.648 382.169 221.296 383.489 221.296C384.209 221.296 384.677 221.2 385.205 220.996V223H386.165ZM387.551 220.12C387.551 222.172 389.039 223.144 390.743 223.144C391.499 223.144 392.255 223 392.783 222.724V221.788C392.291 222.064 391.595 222.256 390.887 222.256C389.723 222.256 388.631 221.752 388.511 220.54H393.095C393.455 218.908 392.639 217.096 390.419 217.096C389.051 217.096 387.551 218.104 387.551 220.12ZM392.243 219.7H388.511C388.583 218.572 389.495 217.984 390.479 217.984C391.943 217.984 392.327 219.088 392.243 219.7ZM395.457 223V220.564H398.793V223H399.753V217.24H398.793V219.676H395.457V217.24H394.497V223H395.457ZM402.489 223V220.564H405.825V223H406.785V217.24H405.825V219.676H402.489V217.24H401.529V223H402.489ZM409.136 223L410.708 220.984H412.328V223H413.288V217.24H410.456C409.052 217.24 408.296 218.104 408.296 219.112C408.296 219.916 408.776 220.624 409.676 220.888L408.008 223H409.136ZM409.256 219.112C409.256 218.476 409.736 218.104 410.54 218.104H412.328V220.12H410.54C409.736 220.12 409.256 219.748 409.256 219.112Z" fill="#8E8E8E"/>
<path d="M462.085 213.167H467.918C468.227 213.167 468.524 213.289 468.743 213.508C468.962 213.727 469.085 214.024 469.085 214.333V223.667C469.085 223.976 468.962 224.273 468.743 224.491C468.524 224.71 468.227 224.833 467.918 224.833H462.085C461.775 224.833 461.478 224.71 461.26 224.491C461.041 224.273 460.918 223.976 460.918 223.667V214.333C460.918 214.024 461.041 213.727 461.26 213.508C461.478 213.289 461.775 213.167 462.085 213.167ZM462.085 214.333V216.667H467.918V214.333H462.085ZM462.085 217.833V219H463.251V217.833H462.085ZM464.418 217.833V219H465.585V217.833H464.418ZM466.751 217.833V219H467.918V217.833H466.751ZM462.085 220.167V221.333H463.251V220.167H462.085ZM464.418 220.167V221.333H465.585V220.167H464.418ZM466.751 220.167V221.333H467.918V220.167H466.751ZM462.085 222.5V223.667H463.251V222.5H462.085ZM464.418 222.5V223.667H465.585V222.5H464.418ZM466.751 222.5V223.667H467.918V222.5H466.751Z" fill="#8E8E8E"/>
<path d="M212.112 173V165.56H216.948V173H217.956V164.6H211.104V173H212.112ZM219.422 170.12C219.422 172.172 220.91 173.144 222.614 173.144C223.37 173.144 224.126 173 224.654 172.724V171.788C224.162 172.064 223.466 172.256 222.758 172.256C221.594 172.256 220.502 171.752 220.382 170.54H224.966C225.326 168.908 224.51 167.096 222.29 167.096C220.922 167.096 219.422 168.104 219.422 170.12ZM224.114 169.7H220.382C220.454 168.572 221.366 167.984 222.35 167.984C223.814 167.984 224.198 169.088 224.114 169.7ZM227.232 168.2V167.24H226.368V175.64H227.328V172.136C227.748 172.628 228.456 173.144 229.56 173.144C231.204 173.144 232.44 171.848 232.44 170.12C232.44 168.392 231.204 167.096 229.56 167.096C228.456 167.096 227.748 167.612 227.232 168.2ZM231.48 170.12C231.48 171.44 230.568 172.256 229.452 172.256C228.42 172.256 227.652 171.584 227.328 170.84V169.4C227.652 168.656 228.42 167.984 229.452 167.984C230.568 167.984 231.48 168.8 231.48 170.12ZM233.426 170.12C233.426 172.172 234.914 173.144 236.618 173.144C237.374 173.144 238.13 173 238.658 172.724V171.788C238.166 172.064 237.47 172.256 236.762 172.256C235.598 172.256 234.506 171.752 234.386 170.54H238.97C239.33 168.908 238.514 167.096 236.294 167.096C234.926 167.096 233.426 168.104 233.426 170.12ZM238.118 169.7H234.386C234.458 168.572 235.37 167.984 236.354 167.984C237.818 167.984 238.202 169.088 238.118 169.7ZM242.655 173V168.128H244.767V167.24H239.571V168.128H241.695V173H242.655ZM246.316 173L247.888 170.984H249.508V173H250.468V167.24H247.636C246.232 167.24 245.476 168.104 245.476 169.112C245.476 169.916 245.956 170.624 246.856 170.888L245.188 173H246.316ZM246.436 169.112C246.436 168.476 246.916 168.104 247.72 168.104H249.508V170.12H247.72C246.916 170.12 246.436 169.748 246.436 169.112ZM253.203 173V168.128H256.455V167.24H252.243V173H253.203ZM258.512 173V170.564H261.848V173H262.808V167.24H261.848V169.676H258.512V167.24H257.552V173H258.512ZM265.77 173H264.715V166.566H265.77V173ZM264.633 164.826C264.633 164.592 264.691 164.422 264.809 164.316C264.93 164.211 265.078 164.158 265.254 164.158C265.418 164.158 265.561 164.211 265.682 164.316C265.807 164.422 265.869 164.592 265.869 164.826C265.869 165.057 265.807 165.227 265.682 165.336C265.561 165.445 265.418 165.5 265.254 165.5C265.078 165.5 264.93 165.445 264.809 165.336C264.691 165.227 264.633 165.057 264.633 164.826ZM270.077 173V168.128H272.189V167.24H266.993V168.128H269.117V173H270.077ZM276.015 173C277.419 173 278.247 172.196 278.247 171.128C278.247 170.06 277.419 169.256 276.015 169.256H274.239V167.24H273.279V173H276.015ZM274.239 170.12H275.895C276.735 170.12 277.275 170.444 277.275 171.128C277.275 171.812 276.735 172.136 275.895 172.136H274.239V170.12ZM283.426 173V168.128H286.762V173H287.722V167.24H282.466V173H283.426ZM289.101 170.12C289.101 172.088 290.613 173.144 292.173 173.144C293.745 173.144 295.245 172.088 295.245 170.12C295.245 168.152 293.745 167.096 292.173 167.096C290.613 167.096 289.101 168.152 289.101 170.12ZM294.285 170.12C294.285 171.452 293.349 172.232 292.173 172.232C290.997 172.232 290.061 171.452 290.061 170.12C290.061 168.788 290.997 168.008 292.173 168.008C293.349 168.008 294.285 168.788 294.285 170.12ZM298.51 168.128H300.85V173H301.81V167.24H297.574C297.466 170.336 297.13 172.28 296.11 172.28C295.99 172.28 295.858 172.256 295.726 172.208V172.964C295.978 173.06 296.206 173.096 296.422 173.096C297.91 173.096 298.318 171.08 298.51 168.128ZM303.187 170.12C303.187 172.172 304.675 173.144 306.379 173.144C307.135 173.144 307.891 173 308.419 172.724V171.788C307.927 172.064 307.231 172.256 306.523 172.256C305.359 172.256 304.267 171.752 304.147 170.54H308.731C309.091 168.908 308.275 167.096 306.055 167.096C304.687 167.096 303.187 168.104 303.187 170.12ZM307.879 169.7H304.147C304.219 168.572 305.131 167.984 306.115 167.984C307.579 167.984 307.963 169.088 307.879 169.7Z" fill="#8E8E8E"/>
<path d="M212.112 281V273.56H216.948V281H217.956V272.6H211.104V281H212.112ZM219.422 278.12C219.422 280.172 220.91 281.144 222.614 281.144C223.37 281.144 224.126 281 224.654 280.724V279.788C224.162 280.064 223.466 280.256 222.758 280.256C221.594 280.256 220.502 279.752 220.382 278.54H224.966C225.326 276.908 224.51 275.096 222.29 275.096C220.922 275.096 219.422 276.104 219.422 278.12ZM224.114 277.7H220.382C220.454 276.572 221.366 275.984 222.35 275.984C223.814 275.984 224.198 277.088 224.114 277.7ZM227.232 276.2V275.24H226.368V283.64H227.328V280.136C227.748 280.628 228.456 281.144 229.56 281.144C231.204 281.144 232.44 279.848 232.44 278.12C232.44 276.392 231.204 275.096 229.56 275.096C228.456 275.096 227.748 275.612 227.232 276.2ZM231.48 278.12C231.48 279.44 230.568 280.256 229.452 280.256C228.42 280.256 227.652 279.584 227.328 278.84V277.4C227.652 276.656 228.42 275.984 229.452 275.984C230.568 275.984 231.48 276.8 231.48 278.12ZM233.426 278.12C233.426 280.172 234.914 281.144 236.618 281.144C237.374 281.144 238.13 281 238.658 280.724V279.788C238.166 280.064 237.47 280.256 236.762 280.256C235.598 280.256 234.506 279.752 234.386 278.54H238.97C239.33 276.908 238.514 275.096 236.294 275.096C234.926 275.096 233.426 276.104 233.426 278.12ZM238.118 277.7H234.386C234.458 276.572 235.37 275.984 236.354 275.984C237.818 275.984 238.202 277.088 238.118 277.7ZM242.655 281V276.128H244.767V275.24H239.571V276.128H241.695V281H242.655ZM246.316 281L247.888 278.984H249.508V281H250.468V275.24H247.636C246.232 275.24 245.476 276.104 245.476 277.112C245.476 277.916 245.956 278.624 246.856 278.888L245.188 281H246.316ZM246.436 277.112C246.436 276.476 246.916 276.104 247.72 276.104H249.508V278.12H247.72C246.916 278.12 246.436 277.748 246.436 277.112ZM253.203 281V276.128H256.455V275.24H252.243V281H253.203ZM258.512 281V278.564H261.848V281H262.808V275.24H261.848V277.676H258.512V275.24H257.552V281H258.512ZM265.77 281H264.715V274.566H265.77V281ZM264.633 272.826C264.633 272.592 264.691 272.422 264.809 272.316C264.93 272.211 265.078 272.158 265.254 272.158C265.418 272.158 265.561 272.211 265.682 272.316C265.807 272.422 265.869 272.592 265.869 272.826C265.869 273.057 265.807 273.227 265.682 273.336C265.561 273.445 265.418 273.5 265.254 273.5C265.078 273.5 264.93 273.445 264.809 273.336C264.691 273.227 264.633 273.057 264.633 272.826ZM270.077 281V276.128H272.189V275.24H266.993V276.128H269.117V281H270.077ZM276.015 281C277.419 281 278.247 280.196 278.247 279.128C278.247 278.06 277.419 277.256 276.015 277.256H274.239V275.24H273.279V281H276.015ZM274.239 278.12H275.895C276.735 278.12 277.275 278.444 277.275 279.128C277.275 279.812 276.735 280.136 275.895 280.136H274.239V278.12ZM283.426 281V276.128H286.762V281H287.722V275.24H282.466V281H283.426ZM289.101 278.12C289.101 280.088 290.613 281.144 292.173 281.144C293.745 281.144 295.245 280.088 295.245 278.12C295.245 276.152 293.745 275.096 292.173 275.096C290.613 275.096 289.101 276.152 289.101 278.12ZM294.285 278.12C294.285 279.452 293.349 280.232 292.173 280.232C290.997 280.232 290.061 279.452 290.061 278.12C290.061 276.788 290.997 276.008 292.173 276.008C293.349 276.008 294.285 276.788 294.285 278.12ZM298.51 276.128H300.85V281H301.81V275.24H297.574C297.466 278.336 297.13 280.28 296.11 280.28C295.99 280.28 295.858 280.256 295.726 280.208V280.964C295.978 281.06 296.206 281.096 296.422 281.096C297.91 281.096 298.318 279.08 298.51 276.128ZM303.187 278.12C303.187 280.172 304.675 281.144 306.379 281.144C307.135 281.144 307.891 281 308.419 280.724V279.788C307.927 280.064 307.231 280.256 306.523 280.256C305.359 280.256 304.267 279.752 304.147 278.54H308.731C309.091 276.908 308.275 275.096 306.055 275.096C304.687 275.096 303.187 276.104 303.187 278.12ZM307.879 277.7H304.147C304.219 276.572 305.131 275.984 306.115 275.984C307.579 275.984 307.963 277.088 307.879 277.7Z" fill="#8E8E8E"/>
<path d="M363.112 173V165.56H367.948V173H368.956V164.6H362.104V173H363.112ZM370.422 170.12C370.422 172.172 371.91 173.144 373.614 173.144C374.37 173.144 375.126 173 375.654 172.724V171.788C375.162 172.064 374.466 172.256 373.758 172.256C372.594 172.256 371.502 171.752 371.382 170.54H375.966C376.326 168.908 375.51 167.096 373.29 167.096C371.922 167.096 370.422 168.104 370.422 170.12ZM375.114 169.7H371.382C371.454 168.572 372.366 167.984 373.35 167.984C374.814 167.984 375.198 169.088 375.114 169.7ZM378.232 168.2V167.24H377.368V175.64H378.328V172.136C378.748 172.628 379.456 173.144 380.56 173.144C382.204 173.144 383.44 171.848 383.44 170.12C383.44 168.392 382.204 167.096 380.56 167.096C379.456 167.096 378.748 167.612 378.232 168.2ZM382.48 170.12C382.48 171.44 381.568 172.256 380.452 172.256C379.42 172.256 378.652 171.584 378.328 170.84V169.4C378.652 168.656 379.42 167.984 380.452 167.984C381.568 167.984 382.48 168.8 382.48 170.12ZM384.426 170.12C384.426 172.172 385.914 173.144 387.618 173.144C388.374 173.144 389.13 173 389.658 172.724V171.788C389.166 172.064 388.47 172.256 387.762 172.256C386.598 172.256 385.506 171.752 385.386 170.54H389.97C390.33 168.908 389.514 167.096 387.294 167.096C385.926 167.096 384.426 168.104 384.426 170.12ZM389.118 169.7H385.386C385.458 168.572 386.37 167.984 387.354 167.984C388.818 167.984 389.202 169.088 389.118 169.7ZM393.655 173V168.128H395.767V167.24H390.571V168.128H392.695V173H393.655ZM397.316 173L398.888 170.984H400.508V173H401.468V167.24H398.636C397.232 167.24 396.476 168.104 396.476 169.112C396.476 169.916 396.956 170.624 397.856 170.888L396.188 173H397.316ZM397.436 169.112C397.436 168.476 397.916 168.104 398.72 168.104H400.508V170.12H398.72C397.916 170.12 397.436 169.748 397.436 169.112ZM404.203 173V168.128H407.455V167.24H403.243V173H404.203ZM409.512 173V170.564H412.848V173H413.808V167.24H412.848V169.676H409.512V167.24H408.552V173H409.512ZM416.77 173H415.715V166.566H416.77V173ZM415.633 164.826C415.633 164.592 415.691 164.422 415.809 164.316C415.93 164.211 416.078 164.158 416.254 164.158C416.418 164.158 416.561 164.211 416.682 164.316C416.807 164.422 416.869 164.592 416.869 164.826C416.869 165.057 416.807 165.227 416.682 165.336C416.561 165.445 416.418 165.5 416.254 165.5C416.078 165.5 415.93 165.445 415.809 165.336C415.691 165.227 415.633 165.057 415.633 164.826ZM421.077 173V168.128H423.189V167.24H417.993V168.128H420.117V173H421.077ZM427.015 173C428.419 173 429.247 172.196 429.247 171.128C429.247 170.06 428.419 169.256 427.015 169.256H425.239V167.24H424.279V173H427.015ZM425.239 170.12H426.895C427.735 170.12 428.275 170.444 428.275 171.128C428.275 171.812 427.735 172.136 426.895 172.136H425.239V170.12ZM434.426 173V168.128H437.762V173H438.722V167.24H433.466V173H434.426ZM440.101 170.12C440.101 172.088 441.613 173.144 443.173 173.144C444.745 173.144 446.245 172.088 446.245 170.12C446.245 168.152 444.745 167.096 443.173 167.096C441.613 167.096 440.101 168.152 440.101 170.12ZM445.285 170.12C445.285 171.452 444.349 172.232 443.173 172.232C441.997 172.232 441.061 171.452 441.061 170.12C441.061 168.788 441.997 168.008 443.173 168.008C444.349 168.008 445.285 168.788 445.285 170.12ZM449.51 168.128H451.85V173H452.81V167.24H448.574C448.466 170.336 448.13 172.28 447.11 172.28C446.99 172.28 446.858 172.256 446.726 172.208V172.964C446.978 173.06 447.206 173.096 447.422 173.096C448.91 173.096 449.318 171.08 449.51 168.128ZM454.187 170.12C454.187 172.172 455.675 173.144 457.379 173.144C458.135 173.144 458.891 173 459.419 172.724V171.788C458.927 172.064 458.231 172.256 457.523 172.256C456.359 172.256 455.267 171.752 455.147 170.54H459.731C460.091 168.908 459.275 167.096 457.055 167.096C455.687 167.096 454.187 168.104 454.187 170.12ZM458.879 169.7H455.147C455.219 168.572 456.131 167.984 457.115 167.984C458.579 167.984 458.963 169.088 458.879 169.7Z" fill="#8E8E8E"/>
<path d="M362.112 115H361.104V106.6H362.112V110.236H364.02L366.552 106.6H367.704L364.848 110.692L367.956 115H366.804L364.056 111.196H362.112V115ZM368.986 114.34C368.378 113.796 368.074 113.056 368.074 112.12C368.074 111.184 368.378 110.448 368.986 109.912C369.594 109.368 370.314 109.096 371.146 109.096C371.986 109.096 372.706 109.368 373.306 109.912C373.914 110.448 374.218 111.184 374.218 112.12C374.218 113.056 373.914 113.796 373.306 114.34C372.706 114.876 371.986 115.144 371.146 115.144C370.314 115.144 369.594 114.876 368.986 114.34ZM372.658 113.668C373.058 113.284 373.258 112.768 373.258 112.12C373.258 111.472 373.058 110.96 372.658 110.584C372.258 110.2 371.754 110.008 371.146 110.008C370.538 110.008 370.034 110.2 369.634 110.584C369.234 110.96 369.034 111.472 369.034 112.12C369.034 112.768 369.234 113.284 369.634 113.668C370.034 114.044 370.538 114.232 371.146 114.232C371.754 114.232 372.258 114.044 372.658 113.668ZM377.483 110.128C377.443 110.76 377.395 111.312 377.339 111.784C377.283 112.256 377.203 112.712 377.099 113.152C376.995 113.584 376.867 113.936 376.715 114.208C376.571 114.48 376.387 114.696 376.163 114.856C375.939 115.016 375.683 115.096 375.395 115.096C375.163 115.096 374.931 115.052 374.699 114.964V114.208C374.827 114.256 374.955 114.28 375.083 114.28C375.563 114.28 375.911 113.86 376.127 113.02C376.351 112.172 376.491 110.912 376.547 109.24H380.783V115H379.823V110.128H377.483ZM383.072 114.34C382.464 113.796 382.16 113.056 382.16 112.12C382.16 111.184 382.464 110.448 383.072 109.912C383.68 109.368 384.4 109.096 385.232 109.096C386.072 109.096 386.792 109.368 387.392 109.912C388 110.448 388.304 111.184 388.304 112.12C388.304 113.056 388 113.796 387.392 114.34C386.792 114.876 386.072 115.144 385.232 115.144C384.4 115.144 383.68 114.876 383.072 114.34ZM386.744 113.668C387.144 113.284 387.344 112.768 387.344 112.12C387.344 111.472 387.144 110.96 386.744 110.584C386.344 110.2 385.84 110.008 385.232 110.008C384.624 110.008 384.12 110.2 383.72 110.584C383.32 110.96 383.12 111.472 383.12 112.12C383.12 112.768 383.32 113.284 383.72 113.668C384.12 114.044 384.624 114.232 385.232 114.232C385.84 114.232 386.344 114.044 386.744 113.668ZM390.641 115H389.681V109.24H390.641V111.676H393.977V109.24H394.937V115H393.977V112.564H390.641V115ZM397.672 115H396.712V109.24H397.672V111.64H398.836L400.66 109.24H401.776L399.592 112.108L402.04 115H400.912L398.8 112.528H397.672V115ZM403.809 115H402.993V109.24H403.953V113.452L407.481 109.24H408.297V115H407.337V110.788L403.809 115Z" fill="#8E8E8E"/>
<path d="M380.044 140.72C380.044 139.46 379.24 138.8 378.364 138.56C379.18 138.284 379.708 137.648 379.708 136.724C379.708 135.176 378.364 134.432 376.396 134.432C375.52 134.432 374.584 134.576 373.612 134.984V136.7C374.632 136.208 375.484 136.04 376.24 136.052C377.308 136.052 377.908 136.34 377.908 137.012C377.908 137.6 377.392 137.888 376.6 137.888H374.836L374.824 139.472H376.72C377.536 139.472 378.232 139.676 378.232 140.456C378.232 141.32 377.356 141.548 376.444 141.548C375.556 141.56 374.572 141.44 373.468 140.9V142.628C374.584 143.024 375.58 143.168 376.576 143.168C378.244 143.168 380.044 142.592 380.044 140.72ZM382.794 143V140.816H385.122V143H386.79V137.24H385.122V139.424H382.794V137.24H381.126V143H382.794ZM393.352 141.512V139.676C393.352 137.78 392.248 137.072 390.52 137.072C389.632 137.072 388.756 137.3 388.288 137.456V138.896C388.828 138.68 389.536 138.464 390.328 138.464C391.228 138.464 391.684 138.86 391.684 139.436V139.64C391.276 139.544 390.772 139.484 390.316 139.484C389.164 139.484 387.784 139.94 387.784 141.404C387.784 142.544 388.72 143.168 389.8 143.168C390.652 143.168 391.312 142.904 391.876 142.46C392.116 142.892 392.56 143.108 393.148 143.108C393.472 143.108 393.808 143.036 394.072 142.94V141.848C393.964 141.884 393.856 141.896 393.76 141.896C393.544 141.896 393.352 141.812 393.352 141.512ZM390.7 140.48C391.048 140.48 391.432 140.552 391.684 140.612V141.512C391.3 141.848 390.856 141.98 390.388 141.98C389.884 141.98 389.488 141.704 389.488 141.272C389.488 140.684 390.088 140.48 390.7 140.48ZM399.913 143V137.24H398.257V139.856C397.945 139.988 397.621 140.036 397.237 140.036C396.625 140.036 396.205 139.82 396.205 139.136V137.24H394.537V139.292C394.537 140.78 395.545 141.44 396.781 141.44C397.357 141.44 397.801 141.368 398.257 141.2V143H399.913ZM401.005 140.12C401.005 142.124 402.517 143.168 404.341 143.168C405.205 143.168 405.913 143.036 406.453 142.808V141.5C405.961 141.716 405.373 141.848 404.713 141.848C403.765 141.848 402.877 141.5 402.685 140.66H406.741C407.125 138.956 406.357 137.072 403.969 137.072C402.673 137.072 401.005 137.948 401.005 140.12ZM405.241 139.58H402.673C402.697 138.788 403.321 138.344 404.029 138.344C405.073 138.344 405.301 139.184 405.241 139.58ZM409.536 143V140.816H411.864V143H413.532V137.24H411.864V139.424H409.536V137.24H407.868V143H409.536ZM416.614 143V140.816H418.942V143H420.61V137.24H418.942V139.424H416.614V137.24H414.946V143H416.614ZM423.392 143L424.676 141.284H425.612V143H427.28V137.24H424.16C422.648 137.24 421.856 138.176 421.856 139.256C421.856 140.036 422.252 140.732 423.032 141.068L421.52 143H423.392ZM423.548 139.304C423.548 138.824 423.896 138.56 424.496 138.56H425.612V140.036H424.496C423.896 140.036 423.548 139.772 423.548 139.304Z" fill="#454545"/>
<path d="M212.7 252V248.568H214.056L216.348 252H218.34L215.46 247.692L218.184 243.6H216.18L214.056 246.936H212.7V243.6H210.9V252H212.7ZM224.071 250.512V248.676C224.071 246.78 222.967 246.072 221.239 246.072C220.351 246.072 219.475 246.3 219.007 246.456V247.896C219.547 247.68 220.255 247.464 221.047 247.464C221.947 247.464 222.403 247.86 222.403 248.436V248.64C221.995 248.544 221.491 248.484 221.035 248.484C219.883 248.484 218.503 248.94 218.503 250.404C218.503 251.544 219.439 252.168 220.519 252.168C221.371 252.168 222.031 251.904 222.595 251.46C222.835 251.892 223.279 252.108 223.867 252.108C224.191 252.108 224.527 252.036 224.791 251.94V250.848C224.683 250.884 224.575 250.896 224.479 250.896C224.263 250.896 224.071 250.812 224.071 250.512ZM221.419 249.48C221.767 249.48 222.151 249.552 222.403 249.612V250.512C222.019 250.848 221.575 250.98 221.107 250.98C220.603 250.98 220.207 250.704 220.207 250.272C220.207 249.684 220.807 249.48 221.419 249.48ZM228.45 252V247.644H230.286V246.24H224.958V247.644H226.794V252H228.45ZM230.704 249.12C230.704 251.124 232.216 252.168 234.04 252.168C234.904 252.168 235.612 252.036 236.152 251.808V250.5C235.66 250.716 235.072 250.848 234.412 250.848C233.464 250.848 232.576 250.5 232.384 249.66H236.44C236.824 247.956 236.056 246.072 233.668 246.072C232.372 246.072 230.704 246.948 230.704 249.12ZM234.94 248.58H232.372C232.396 247.788 233.02 247.344 233.728 247.344C234.772 247.344 235 248.184 234.94 248.58ZM239.235 252V247.644H241.959V246.24H237.567V252H239.235ZM242.376 249.12C242.376 251.136 243.888 252.168 245.556 252.168C247.236 252.168 248.736 251.136 248.736 249.12C248.736 247.104 247.236 246.072 245.556 246.072C243.888 246.072 242.376 247.104 242.376 249.12ZM247.044 249.12C247.044 250.008 246.516 250.68 245.556 250.68C244.608 250.68 244.08 250.008 244.08 249.12C244.08 248.232 244.608 247.56 245.556 247.56C246.516 247.56 247.044 248.232 247.044 249.12ZM251.301 247.08V246.24H249.825V254.64H251.493V251.388C251.865 251.796 252.477 252.168 253.389 252.168C255.213 252.168 256.197 250.692 256.197 249.12C256.197 247.548 255.213 246.072 253.389 246.072C252.321 246.072 251.661 246.564 251.301 247.08ZM254.493 249.12C254.493 250.02 253.929 250.764 252.981 250.764C252.249 250.764 251.709 250.308 251.481 249.804V248.436C251.709 247.932 252.249 247.476 252.981 247.476C253.929 247.476 254.493 248.22 254.493 249.12ZM257.443 243.756C257.443 243.174 257.768 242.883 258.416 242.883C259.064 242.883 259.389 243.174 259.389 243.756C259.389 244.033 259.307 244.25 259.143 244.406C258.982 244.559 258.74 244.635 258.416 244.635C257.768 244.635 257.443 244.342 257.443 243.756ZM259.307 252H257.52V245.449H259.307V252ZM262.326 252L263.61 250.284H264.546V252H266.214V246.24H263.094C261.582 246.24 260.79 247.176 260.79 248.256C260.79 249.036 261.186 249.732 261.966 250.068L260.454 252H262.326ZM262.482 248.304C262.482 247.824 262.83 247.56 263.43 247.56H264.546V249.036H263.43C262.83 249.036 262.482 248.772 262.482 248.304Z" fill="#454545"/>
<path d="M368.316 243.6L365.448 247.968L362.568 243.6H360.9V252H362.7V246.816L364.92 250.2H365.964L368.184 246.828V252H369.984V243.6H368.316ZM373.275 252V246.24H371.607V252H373.275ZM373.419 244.332C373.419 243.684 372.963 243.396 372.435 243.396C371.919 243.396 371.463 243.684 371.463 244.332C371.463 244.992 371.919 245.28 372.435 245.28C372.963 245.28 373.419 244.992 373.419 244.332ZM376.188 246.972V246.24H374.712V252H376.38V248.244C376.62 247.896 377.076 247.512 377.664 247.512C378.312 247.512 378.78 247.872 378.78 248.652V252H380.448V248.436C380.448 247.104 379.62 246.072 378.108 246.072C377.28 246.072 376.632 246.456 376.188 246.972ZM383.59 251.172C383.59 250.5 383.122 250.188 382.582 250.188C382.042 250.188 381.562 250.5 381.562 251.172C381.562 251.844 382.042 252.156 382.582 252.156C383.122 252.156 383.59 251.844 383.59 251.172ZM393.358 253.824V250.38H392.29V243.6H390.49V250.38H386.77V243.6H384.97V252H391.774V253.824H393.358ZM394.576 243.756C394.576 243.174 394.9 242.883 395.549 242.883C396.197 242.883 396.521 243.174 396.521 243.756C396.521 244.033 396.439 244.25 396.275 244.406C396.115 244.559 395.873 244.635 395.549 244.635C394.9 244.635 394.576 244.342 394.576 243.756ZM396.439 252H394.652V245.449H396.439V252ZM399.759 252V249.816H402.087V252H403.755V246.24H402.087V248.424H399.759V246.24H398.091V252H399.759ZM410.317 250.512V248.676C410.317 246.78 409.213 246.072 407.485 246.072C406.597 246.072 405.721 246.3 405.253 246.456V247.896C405.793 247.68 406.501 247.464 407.293 247.464C408.193 247.464 408.649 247.86 408.649 248.436V248.64C408.241 248.544 407.737 248.484 407.281 248.484C406.129 248.484 404.749 248.94 404.749 250.404C404.749 251.544 405.685 252.168 406.765 252.168C407.617 252.168 408.277 251.904 408.841 251.46C409.081 251.892 409.525 252.108 410.113 252.108C410.437 252.108 410.773 252.036 411.037 251.94V250.848C410.929 250.884 410.821 250.896 410.725 250.896C410.509 250.896 410.317 250.812 410.317 250.512ZM407.665 249.48C408.013 249.48 408.397 249.552 408.649 249.612V250.512C408.265 250.848 407.821 250.98 407.353 250.98C406.849 250.98 406.453 250.704 406.453 250.272C406.453 249.684 407.053 249.48 407.665 249.48Z" fill="#454545"/>
<path d="M452 245H447.415L450.415 248L447.415 251H452V252H446V251L449 248L446 245V244H452V245Z" fill="#8E8E8E"/>
<path d="M367 136H362.415L365.415 139L362.415 142H367V143H361V142L364 139L361 136V135H367V136Z" fill="#8E8E8E"/>
<path d="M84.112 144H83.104V135.6H84.112V139.236H86.02L88.552 135.6H89.704L86.848 139.692L89.956 144H88.804L86.056 140.196H84.112V144ZM90.986 143.34C90.378 142.796 90.074 142.056 90.074 141.12C90.074 140.184 90.378 139.448 90.986 138.912C91.594 138.368 92.314 138.096 93.146 138.096C93.986 138.096 94.706 138.368 95.306 138.912C95.914 139.448 96.218 140.184 96.218 141.12C96.218 142.056 95.914 142.796 95.306 143.34C94.706 143.876 93.986 144.144 93.146 144.144C92.314 144.144 91.594 143.876 90.986 143.34ZM94.658 142.668C95.058 142.284 95.258 141.768 95.258 141.12C95.258 140.472 95.058 139.96 94.658 139.584C94.258 139.2 93.754 139.008 93.146 139.008C92.538 139.008 92.034 139.2 91.634 139.584C91.234 139.96 91.034 140.472 91.034 141.12C91.034 141.768 91.234 142.284 91.634 142.668C92.034 143.044 92.538 143.232 93.146 143.232C93.754 143.232 94.258 143.044 94.658 142.668ZM98.555 144H97.595V138.24H98.555V140.676H101.891V138.24H102.851V144H101.891V141.564H98.555V144ZM107.026 144H106.066V139.128H103.942V138.24H109.138V139.128H107.026V144ZM111.092 139.2C111.74 138.464 112.516 138.096 113.42 138.096C114.244 138.096 114.928 138.384 115.472 138.96C116.024 139.536 116.3 140.256 116.3 141.12C116.3 141.984 116.024 142.704 115.472 143.28C114.928 143.856 114.244 144.144 113.42 144.144C112.508 144.144 111.764 143.808 111.188 143.136V146.64H110.228V138.24H111.092V139.2ZM114.752 142.668C115.144 142.276 115.34 141.76 115.34 141.12C115.34 140.48 115.144 139.964 114.752 139.572C114.368 139.18 113.888 138.984 113.312 138.984C112.824 138.984 112.392 139.12 112.016 139.392C111.64 139.664 111.364 140 111.188 140.4V141.84C111.364 142.24 111.64 142.576 112.016 142.848C112.392 143.12 112.824 143.256 113.312 143.256C113.888 143.256 114.368 143.06 114.752 142.668ZM122.361 142.8C122.361 143.096 122.509 143.244 122.805 143.244C122.933 143.244 123.081 143.216 123.249 143.16V143.94C123.009 144.028 122.769 144.072 122.529 144.072C121.977 144.072 121.625 143.84 121.473 143.376C120.857 143.888 120.109 144.144 119.229 144.144C118.669 144.144 118.189 143.996 117.789 143.7C117.397 143.396 117.201 142.96 117.201 142.392C117.201 141.712 117.453 141.22 117.957 140.916C118.469 140.604 119.085 140.448 119.805 140.448C120.333 140.448 120.865 140.508 121.401 140.628V140.424C121.401 139.984 121.257 139.636 120.969 139.38C120.681 139.116 120.277 138.984 119.757 138.984C119.029 138.984 118.329 139.128 117.657 139.416V138.48C118.409 138.224 119.141 138.096 119.853 138.096C120.637 138.096 121.249 138.308 121.689 138.732C122.137 139.148 122.361 139.752 122.361 140.544V142.8ZM118.185 142.344C118.185 142.664 118.305 142.908 118.545 143.076C118.793 143.236 119.089 143.316 119.433 143.316C120.225 143.316 120.881 143.036 121.401 142.476V141.42C120.857 141.308 120.369 141.252 119.937 141.252C119.449 141.252 119.033 141.34 118.689 141.516C118.353 141.684 118.185 141.96 118.185 142.344ZM125.239 144H124.279V138.24H128.491V139.128H125.239V144ZM128.98 141.12C128.98 140.176 129.268 139.436 129.844 138.9C130.428 138.364 131.096 138.096 131.848 138.096C132.552 138.096 133.132 138.272 133.588 138.624C134.052 138.976 134.356 139.412 134.5 139.932C134.644 140.444 134.652 140.98 134.524 141.54H129.94C129.996 142.108 130.248 142.536 130.696 142.824C131.144 143.112 131.684 143.256 132.316 143.256C133.02 143.256 133.652 143.1 134.212 142.788V143.724C133.676 144.004 132.996 144.144 132.172 144.144C131.26 144.144 130.5 143.884 129.892 143.364C129.284 142.844 128.98 142.096 128.98 141.12ZM133.672 140.7C133.696 140.532 133.684 140.356 133.636 140.172C133.588 139.988 133.5 139.804 133.372 139.62C133.252 139.436 133.064 139.284 132.808 139.164C132.552 139.044 132.252 138.984 131.908 138.984C131.388 138.984 130.936 139.136 130.552 139.44C130.176 139.744 129.972 140.164 129.94 140.7H133.672ZM136.887 144H135.927V138.24H136.887V140.676H140.223V138.24H141.183V144H140.223V141.564H136.887V144ZM145.358 144H144.398V139.128H142.274V138.24H147.47V139.128H145.358V144Z" fill="#454545"/>
<path fill-rule="evenodd" clip-rule="evenodd" d="M170 138H161V137H170V138Z" fill="#E6E6E6"/>
<path fill-rule="evenodd" clip-rule="evenodd" d="M170 141H161V140H170V141Z" fill="#E6E6E6"/>
<path fill-rule="evenodd" clip-rule="evenodd" d="M170 144H161V143H170V144Z" fill="#E6E6E6"/>
<path d="M83.104 164.6V173H86.644C87.868 173 89.74 172.604 89.74 170.696C89.74 169.328 88.756 168.776 88.06 168.584C88.72 168.392 89.404 167.792 89.404 166.724C89.404 165.308 88.264 164.6 86.548 164.6H83.104ZM88.72 170.588C88.72 171.968 87.496 172.04 86.44 172.04H84.112V169.136H86.716C87.52 169.136 88.72 169.28 88.72 170.588ZM88.384 166.868C88.384 167.828 87.616 168.176 86.74 168.176H84.112V165.56H86.464C87.652 165.56 88.384 165.872 88.384 166.868ZM92.3828 173H91.3281V166.566H92.3828V173ZM91.2461 164.826C91.2461 164.592 91.3047 164.422 91.4219 164.316C91.543 164.211 91.6914 164.158 91.8672 164.158C92.0312 164.158 92.1738 164.211 92.2949 164.316C92.4199 164.422 92.4824 164.592 92.4824 164.826C92.4824 165.057 92.4199 165.227 92.2949 165.336C92.1738 165.445 92.0312 165.5 91.8672 165.5C91.6914 165.5 91.543 165.445 91.4219 165.336C91.3047 165.227 91.2461 165.057 91.2461 164.826ZM94.6503 174.56V173H99.6663V174.56H100.602V172.136H99.7623V167.24H95.4663C95.4903 169.388 95.2023 170.864 94.4823 172.136H93.7143V174.56H94.6503ZM96.3903 168.104H98.8023V172.136H95.5263C96.0543 171.032 96.3423 169.832 96.3903 168.104ZM102.844 173V168.128H106.096V167.24H101.884V173H102.844ZM109.617 171.908L107.445 167.24H106.425L109.161 173.012L108.945 173.54C108.573 174.476 108.105 174.944 107.457 174.944C107.289 174.944 107.121 174.92 106.953 174.872V175.7C107.169 175.76 107.373 175.784 107.577 175.784C108.417 175.784 109.149 175.256 109.749 173.864L112.581 167.24H111.561L109.617 171.908ZM114.61 173V170.528H115.738L117.85 173H118.978L116.53 170.108L118.714 167.24H117.598L115.774 169.64H114.61V167.24H113.65V173H114.61ZM120.747 173L124.275 168.788V173H125.235V167.24H124.419L120.891 171.452V167.24H119.931V173H120.747Z" fill="#454545"/>
<path d="M153 165H148.415L151.415 168L148.415 171H153V172H147V171L150 168L147 165V164H153V165Z" fill="#8E8E8E"/>
<path d="M153 195H148.415L151.415 198L148.415 201H153V202H147V201L150 198L147 195V194H153V195Z" fill="#8E8E8E"/>
<path d="M153 224H148.415L151.415 227L148.415 230H153V231H147V230L150 227L147 224V223H153V224Z" fill="#8E8E8E"/>
<path d="M153 253H148.415L151.415 256L148.415 259H153V260H147V259L150 256L147 253V252H153V253Z" fill="#8E8E8E"/>
<path fill-rule="evenodd" clip-rule="evenodd" d="M170 166H161V165H170V166Z" fill="#E6E6E6"/>
<path fill-rule="evenodd" clip-rule="evenodd" d="M170 169H161V168H170V169Z" fill="#E6E6E6"/>
<path fill-rule="evenodd" clip-rule="evenodd" d="M170 172H161V171H170V172Z" fill="#E6E6E6"/>
<path fill-rule="evenodd" clip-rule="evenodd" d="M170 196H161V195H170V196Z" fill="#E6E6E6"/>
<path fill-rule="evenodd" clip-rule="evenodd" d="M170 199H161V198H170V199Z" fill="#E6E6E6"/>
<path fill-rule="evenodd" clip-rule="evenodd" d="M170 202H161V201H170V202Z" fill="#E6E6E6"/>
<path fill-rule="evenodd" clip-rule="evenodd" d="M170 225H161V224H170V225Z" fill="#E6E6E6"/>
<path fill-rule="evenodd" clip-rule="evenodd" d="M170 228H161V227H170V228Z" fill="#E6E6E6"/>
<path fill-rule="evenodd" clip-rule="evenodd" d="M170 231H161V230H170V231Z" fill="#E6E6E6"/>
<path fill-rule="evenodd" clip-rule="evenodd" d="M170 254H161V253H170V254Z" fill="#E6E6E6"/>
<path fill-rule="evenodd" clip-rule="evenodd" d="M170 257H161V256H170V257Z" fill="#E6E6E6"/>
<path fill-rule="evenodd" clip-rule="evenodd" d="M170 260H161V259H170V260Z" fill="#E6E6E6"/>
<path d="M84.112 201V193.56H88.948V201H89.956V192.6H83.104V201H84.112ZM91.4217 198.12C91.4217 200.088 92.9337 201.144 94.4937 201.144C96.0657 201.144 97.5657 200.088 97.5657 198.12C97.5657 196.152 96.0657 195.096 94.4937 195.096C92.9337 195.096 91.4217 196.152 91.4217 198.12ZM96.6057 198.12C96.6057 199.452 95.6697 200.232 94.4937 200.232C93.3177 200.232 92.3817 199.452 92.3817 198.12C92.3817 196.788 93.3177 196.008 94.4937 196.008C95.6697 196.008 96.6057 196.788 96.6057 198.12ZM103.157 199.452C103.157 198.708 102.617 198.216 101.969 198.048C102.617 197.904 103.037 197.448 103.037 196.752C103.037 195.744 102.209 195.084 100.601 195.084C99.8329 195.084 99.1129 195.264 98.5369 195.528V196.428C99.0649 196.164 99.8089 195.972 100.493 195.972C101.393 195.972 102.077 196.248 102.077 196.884C102.077 197.436 101.573 197.628 100.925 197.628H99.6649V198.516H100.925C101.501 198.516 102.197 198.636 102.197 199.344C102.197 200.088 101.357 200.256 100.445 200.256C99.7489 200.256 98.9329 200.052 98.4409 199.788V200.7C98.9809 200.964 99.7489 201.144 100.565 201.144C102.161 201.144 103.157 200.544 103.157 199.452ZM105.384 201L108.912 196.788V201H109.872V195.24H109.056L105.528 199.452V195.24H104.568V201H105.384ZM117.574 202.56V200.112H116.722V195.24H115.762V200.112H112.606V195.24H111.646V201H116.638V202.56H117.574ZM120.039 201H118.984V194.566H120.039V201ZM118.902 192.826C118.902 192.592 118.961 192.422 119.078 192.316C119.199 192.211 119.348 192.158 119.523 192.158C119.688 192.158 119.83 192.211 119.951 192.316C120.076 192.422 120.139 192.592 120.139 192.826C120.139 193.057 120.076 193.227 119.951 193.336C119.83 193.445 119.688 193.5 119.523 193.5C119.348 193.5 119.199 193.445 119.078 193.336C118.961 193.227 118.902 193.057 118.902 192.826ZM122.523 201L124.095 198.984H125.715V201H126.675V195.24H123.843C122.439 195.24 121.683 196.104 121.683 197.112C121.683 197.916 122.163 198.624 123.063 198.888L121.395 201H122.523ZM122.643 197.112C122.643 196.476 123.123 196.104 123.927 196.104H125.715V198.12H123.927C123.123 198.12 122.643 197.748 122.643 197.112Z" fill="#454545"/>
<path d="M83.104 221.6H85.972C88.348 221.6 89.536 222.504 89.536 224.312C89.536 226.12 88.348 227.024 85.972 227.024H84.112V230H83.104V221.6ZM88.516 224.312C88.516 223.968 88.452 223.68 88.324 223.448C88.196 223.208 88.012 223.028 87.772 222.908C87.54 222.78 87.284 222.692 87.004 222.644C86.724 222.588 86.396 222.56 86.02 222.56H84.112V226.064H86.02C86.796 226.064 87.404 225.936 87.844 225.68C88.292 225.424 88.516 224.968 88.516 224.312ZM90.1326 227.12C90.1326 226.176 90.4206 225.436 90.9966 224.9C91.5806 224.364 92.2486 224.096 93.0006 224.096C93.7046 224.096 94.2846 224.272 94.7406 224.624C95.2046 224.976 95.5086 225.412 95.6526 225.932C95.7966 226.444 95.8046 226.98 95.6766 227.54H91.0926C91.1486 228.108 91.4006 228.536 91.8486 228.824C92.2966 229.112 92.8366 229.256 93.4686 229.256C94.1726 229.256 94.8046 229.1 95.3646 228.788V229.724C94.8286 230.004 94.1486 230.144 93.3246 230.144C92.4126 230.144 91.6526 229.884 91.0446 229.364C90.4366 228.844 90.1326 228.096 90.1326 227.12ZM94.8246 226.7C94.8486 226.532 94.8366 226.356 94.7886 226.172C94.7406 225.988 94.6526 225.804 94.5246 225.62C94.4046 225.436 94.2166 225.284 93.9606 225.164C93.7046 225.044 93.4046 224.984 93.0606 224.984C92.5406 224.984 92.0886 225.136 91.7046 225.44C91.3286 225.744 91.1246 226.164 91.0926 226.7H94.8246ZM101.411 222.848C100.939 223.184 100.379 223.352 99.7314 223.352C99.0834 223.352 98.5234 223.184 98.0514 222.848V221.984C98.5874 222.336 99.1474 222.512 99.7314 222.512C100.315 222.512 100.875 222.336 101.411 221.984V222.848ZM97.8954 230H97.0794V224.24H98.0394V228.452L101.567 224.24H102.383V230H101.423V225.788L97.8954 230ZM106.558 230H105.598V225.128H103.474V224.24H108.67V225.128H106.558V230ZM110.575 230H109.759V224.24H110.719V228.452L114.247 224.24H115.063V230H114.103V225.788L110.575 230ZM117.797 230H116.837V224.24H117.797V226.676H121.133V224.24H122.093V230H121.133V227.564H117.797V230ZM124.828 230H123.868V224.24H128.08V225.128H124.828V230Z" fill="#454545"/>
<path d="M91.024 260.98V258.04H89.98V250.6H88.972V258.04H84.112V250.6H83.104V259H90.076L90.064 260.98H91.024ZM93.4844 259H92.4297V252.566H93.4844V259ZM92.3477 250.826C92.3477 250.592 92.4062 250.422 92.5234 250.316C92.6445 250.211 92.793 250.158 92.9688 250.158C93.1328 250.158 93.2754 250.211 93.3965 250.316C93.5215 250.422 93.584 250.592 93.584 250.826C93.584 251.057 93.5215 251.227 93.3965 251.336C93.2754 251.445 93.1328 251.5 92.9688 251.5C92.793 251.5 92.6445 251.445 92.5234 251.336C92.4062 251.227 92.3477 251.057 92.3477 250.826ZM96.3519 259V256.564H99.6879V259H100.648V253.24H99.6879V255.676H96.3519V253.24H95.3919V259H96.3519ZM107.103 257.8V255.544C107.103 253.936 106.131 253.096 104.595 253.096C103.647 253.096 102.855 253.324 102.399 253.48V254.416C102.903 254.2 103.611 253.984 104.499 253.984C105.555 253.984 106.143 254.56 106.143 255.424V255.628C105.663 255.52 105.051 255.448 104.547 255.448C103.311 255.448 101.943 255.904 101.943 257.392C101.943 258.604 102.951 259.144 103.971 259.144C104.907 259.144 105.639 258.856 106.215 258.376C106.383 258.88 106.803 259.072 107.271 259.072C107.511 259.072 107.763 259.024 107.991 258.94V258.16C107.847 258.208 107.691 258.244 107.547 258.244C107.295 258.244 107.103 258.148 107.103 257.8ZM102.927 257.344C102.927 256.504 103.839 256.252 104.679 256.252C105.147 256.252 105.735 256.336 106.143 256.42V257.476C105.639 258.016 104.907 258.316 104.175 258.316C103.539 258.316 102.927 258.016 102.927 257.344Z" fill="#454545"/>
<rect x="60" y="249" width="13" height="13" rx="3" fill="#454545"/>
<path d="M64 255.5L66 257.5L69.5 254" stroke="white" stroke-linecap="round" stroke-linejoin="round"/>
<rect x="60.5" y="162.5" width="12" height="12" rx="2.5" stroke="#E6E6E6"/>
<path d="M64 168.5L66 170.5L69.5 167" stroke="white" stroke-linecap="round" stroke-linejoin="round"/>
<rect x="60.5" y="133.5" width="12" height="12" rx="2.5" stroke="#E6E6E6"/>
<path d="M64 139.5L66 141.5L69.5 138" stroke="white" stroke-linecap="round" stroke-linejoin="round"/>
<rect x="60.5" y="191.5" width="12" height="12" rx="2.5" stroke="#E6E6E6"/>
<path d="M64 197.5L66 199.5L69.5 196" stroke="white" stroke-linecap="round" stroke-linejoin="round"/>
<rect x="60.5" y="220.5" width="12" height="12" rx="2.5" stroke="#E6E6E6"/>
<path d="M64 226.5L66 228.5L69.5 225" stroke="white" stroke-linecap="round" stroke-linejoin="round"/>
<line x1="350" y1="153.5" x2="480" y2="153.5" stroke="#E6E6E6"/>
<line x1="200" y1="262.5" x2="330" y2="262.5" stroke="#E6E6E6"/>
<line x1="350" y1="262.5" x2="480" y2="262.5" stroke="#E6E6E6"/>
<path fill-rule="evenodd" clip-rule="evenodd" d="M469 137H460V136H469V137Z" fill="#E6E6E6"/>
<path fill-rule="evenodd" clip-rule="evenodd" d="M469 140H460V139H469V140Z" fill="#E6E6E6"/>
<path fill-rule="evenodd" clip-rule="evenodd" d="M469 143H460V142H469V143Z" fill="#E6E6E6"/>
<path fill-rule="evenodd" clip-rule="evenodd" d="M319 246H310V245H319V246Z" fill="#E6E6E6"/>
<path fill-rule="evenodd" clip-rule="evenodd" d="M319 249H310V248H319V249Z" fill="#E6E6E6"/>
<path fill-rule="evenodd" clip-rule="evenodd" d="M319 252H310V251H319V252Z" fill="#E6E6E6"/>
<path fill-rule="evenodd" clip-rule="evenodd" d="M469 246H460V245H469V246Z" fill="#E6E6E6"/>
<path fill-rule="evenodd" clip-rule="evenodd" d="M469 249H460V248H469V249Z" fill="#E6E6E6"/>
<path fill-rule="evenodd" clip-rule="evenodd" d="M469 252H460V251H469V252Z" fill="#E6E6E6"/>
<rect x="351" y="262" width="128" height="2" fill="#454545"/>
<rect x="355.5" y="269.5" width="127" height="25" rx="1.5" fill="white" stroke="#E6E6E6"/>
<path d="M372.316 277.6L369.448 281.968L366.568 277.6H364.9V286H366.7V280.816L368.92 284.2H369.964L372.184 280.828V286H373.984V277.6H372.316ZM380.649 284.512V282.676C380.649 280.78 379.545 280.072 377.817 280.072C376.929 280.072 376.053 280.3 375.585 280.456V281.896C376.125 281.68 376.833 281.464 377.625 281.464C378.525 281.464 378.981 281.86 378.981 282.436V282.64C378.573 282.544 378.069 282.484 377.613 282.484C376.461 282.484 375.081 282.94 375.081 284.404C375.081 285.544 376.017 286.168 377.097 286.168C377.949 286.168 378.609 285.904 379.173 285.46C379.413 285.892 379.857 286.108 380.445 286.108C380.769 286.108 381.105 286.036 381.369 285.94V284.848C381.261 284.884 381.153 284.896 381.057 284.896C380.841 284.896 380.649 284.812 380.649 284.512ZM377.997 283.48C378.345 283.48 378.729 283.552 378.981 283.612V284.512C378.597 284.848 378.153 284.98 377.685 284.98C377.181 284.98 376.785 284.704 376.785 284.272C376.785 283.684 377.385 283.48 377.997 283.48ZM385.793 280.24L384.641 281.968L383.465 280.24H381.581L383.669 283.096L381.473 286H383.357L384.641 284.236L385.913 286H387.797L385.601 283.096L387.677 280.24H385.793ZM390.321 285.172C390.321 284.5 389.853 284.188 389.312 284.188C388.773 284.188 388.293 284.5 388.293 285.172C388.293 285.844 388.773 286.156 389.312 286.156C389.853 286.156 390.321 285.844 390.321 285.172ZM400.089 287.824V284.38H399.021V277.6H397.221V284.38H393.501V277.6H391.701V286H398.505V287.824H400.089ZM401.307 277.756C401.307 277.174 401.631 276.883 402.279 276.883C402.928 276.883 403.252 277.174 403.252 277.756C403.252 278.033 403.17 278.25 403.006 278.406C402.846 278.559 402.604 278.635 402.279 278.635C401.631 278.635 401.307 278.342 401.307 277.756ZM403.17 286H401.383V279.449H403.17V286ZM406.489 286V283.816H408.817V286H410.485V280.24H408.817V282.424H406.489V280.24H404.821V286H406.489ZM417.047 284.512V282.676C417.047 280.78 415.943 280.072 414.215 280.072C413.327 280.072 412.451 280.3 411.983 280.456V281.896C412.523 281.68 413.231 281.464 414.023 281.464C414.923 281.464 415.379 281.86 415.379 282.436V282.64C414.971 282.544 414.467 282.484 414.011 282.484C412.859 282.484 411.479 282.94 411.479 284.404C411.479 285.544 412.415 286.168 413.495 286.168C414.347 286.168 415.007 285.904 415.571 285.46C415.811 285.892 416.255 286.108 416.843 286.108C417.167 286.108 417.503 286.036 417.767 285.94V284.848C417.659 284.884 417.551 284.896 417.455 284.896C417.239 284.896 417.047 284.812 417.047 284.512ZM414.395 283.48C414.743 283.48 415.127 283.552 415.379 283.612V284.512C414.995 284.848 414.551 284.98 414.083 284.98C413.579 284.98 413.183 284.704 413.183 284.272C413.183 283.684 413.783 283.48 414.395 283.48Z" fill="#454545"/>
<path fill-rule="evenodd" clip-rule="evenodd" d="M461.851 284L459 282L461.851 280V281.654H468.149V280L471 282L468.149 284V282.346H461.851V284Z" fill="white"/>
<path fill-rule="evenodd" clip-rule="evenodd" d="M467 285.149L465 288L463 285.149L464.654 285.149L464.654 278.851L463 278.851L465 276L467 278.851L465.346 278.851L465.346 285.149L467 285.149Z" fill="white"/>
<path d="M461.996 291.309L460.246 293.059C460.075 293.23 459.799 293.23 459.627 293.059C459.456 292.888 459.456 292.612 459.627 292.44L460.631 291.437H456.437V295.631L457.44 294.628C457.611 294.457 457.888 294.457 458.059 294.628C458.23 294.799 458.23 295.076 458.059 295.247L456.309 296.997C456.143 297.162 455.865 297.172 455.69 296.997L453.94 295.247C453.768 295.076 453.768 294.799 453.94 294.628C454.111 294.457 454.387 294.457 454.558 294.628L455.562 295.631V291.437H451.368L452.371 292.44C452.542 292.612 452.542 292.888 452.371 293.059C452.2 293.23 451.924 293.23 451.752 293.059L450.002 291.309C449.833 291.14 449.832 290.861 450.002 290.69L451.752 288.94C451.924 288.769 452.2 288.769 452.371 288.94C452.542 289.111 452.542 289.388 452.371 289.559L451.368 290.562H455.562V286.368L454.559 287.372C454.388 287.543 454.111 287.543 453.94 287.372C453.769 287.201 453.769 286.924 453.94 286.753L455.69 285.003C455.859 284.834 456.138 284.832 456.309 285.003L458.059 286.753C458.23 286.924 458.23 287.201 458.059 287.372C457.973 287.457 457.861 287.5 457.749 287.5C457.637 287.5 457.525 287.457 457.44 287.372L456.437 286.368V290.562H460.631L459.627 289.559C459.456 289.388 459.456 289.112 459.627 288.94C459.799 288.769 460.075 288.769 460.246 288.94L461.996 290.69C462.167 290.861 462.165 291.14 461.996 291.309Z" fill="#454545"/>
<path d="M392.5 54C392.5 52.6193 393.619 51.5 395 51.5H477C478.381 51.5 479.5 52.6193 479.5 54V76C479.5 77.3807 478.381 78.5 477 78.5H395C393.619 78.5 392.5 77.3807 392.5 76V54Z" stroke="#E6E6E6"/>
<path d="M402.396 65.238C402.396 67.922 404.497 69.154 406.554 69.154C407.368 69.154 408.127 68.978 408.787 68.659V67.042C408.325 67.46 407.599 67.68 406.807 67.68C405.465 67.68 404.079 66.932 404.09 65.238C404.09 63.379 405.454 62.609 406.807 62.609C407.522 62.609 408.237 62.829 408.732 63.214V61.641C408.072 61.311 407.302 61.146 406.532 61.146C404.475 61.146 402.407 62.422 402.396 65.238ZM411.672 69V65.854H412.915L415.016 69H416.842L414.202 65.051L416.699 61.3H414.862L412.915 64.358H411.672V61.3H410.022V69H411.672ZM418.541 69L419.113 67.559H422.633L423.194 69H424.899L421.764 61.3H419.982L416.836 69H418.541ZM420.697 63.434C420.763 63.28 420.818 63.126 420.873 62.829C420.928 63.126 420.983 63.28 421.038 63.434L422.116 66.195H419.63L420.697 63.434ZM424.976 65.238C424.976 67.922 427.077 69.154 429.134 69.154C429.948 69.154 430.707 68.978 431.367 68.659V67.042C430.905 67.46 430.179 67.68 429.387 67.68C428.045 67.68 426.659 66.932 426.67 65.238C426.67 63.379 428.034 62.609 429.387 62.609C430.102 62.609 430.817 62.829 431.312 63.214V61.641C430.652 61.311 429.882 61.146 429.112 61.146C427.055 61.146 424.987 62.422 424.976 65.238ZM436.342 67.24L439.136 61.3H437.321L435.638 65.26L433.614 61.3H431.788L434.857 66.745L434.725 67.02C434.45 67.592 434.043 67.713 433.537 67.713C433.229 67.713 432.91 67.658 432.646 67.57V68.967C433.031 69.077 433.438 69.154 433.812 69.154C434.791 69.154 435.638 68.736 436.342 67.24ZM439.929 61.3V69H443.24C444.582 69 446.265 68.593 446.265 66.844C446.265 65.711 445.55 65.15 444.791 64.93C445.473 64.699 445.957 64.149 445.957 63.247C445.957 61.927 444.934 61.3 443.295 61.3H439.929ZM444.615 66.668C444.615 67.504 443.955 67.658 443.218 67.658H441.568V65.678H443.306C443.966 65.678 444.615 65.854 444.615 66.668ZM444.318 63.533C444.318 64.127 443.867 64.413 443.24 64.413H441.579V62.653H443.152C443.878 62.653 444.318 62.928 444.318 63.533ZM448.146 69L448.718 67.559H452.238L452.799 69H454.504L451.369 61.3H449.587L446.441 69H448.146ZM450.302 63.434C450.368 63.28 450.423 63.126 450.478 62.829C450.533 63.126 450.588 63.28 450.643 63.434L451.721 66.195H449.235L450.302 63.434ZM453.813 61.3V62.785H456.178V69H457.817V62.785H460.182V61.3H453.813ZM467.909 69V61.3H466.358L462.772 66.327C462.794 66.008 462.805 65.623 462.805 65.271V61.3H461.155V69H462.706L466.292 63.973C466.27 64.292 466.259 64.677 466.259 65.029V69H467.909Z" fill="#454545"/>
<path d="M150.5 54C150.5 52.6193 151.619 51.5 153 51.5H264C265.381 51.5 266.5 52.6193 266.5 54V76C266.5 77.3807 265.381 78.5 264 78.5H153C151.619 78.5 150.5 77.3807 150.5 76V54Z" stroke="#E6E6E6"/>
<path d="M161.287 71.145V69H168.528V71.145H169.568V67.96H168.424V59.9H162.834C162.834 62.695 162.522 65.841 161.352 67.96H160.247V71.145H161.287ZM163.952 60.94H167.332V67.96H162.574C163.484 66.166 163.809 63.397 163.952 60.94ZM170.308 65.88C170.308 68.012 171.946 69.156 173.636 69.156C175.339 69.156 176.964 68.012 176.964 65.88C176.964 63.748 175.339 62.604 173.636 62.604C171.946 62.604 170.308 63.748 170.308 65.88ZM175.924 65.88C175.924 67.323 174.91 68.168 173.636 68.168C172.362 68.168 171.348 67.323 171.348 65.88C171.348 64.437 172.362 63.592 173.636 63.592C174.91 63.592 175.924 64.437 175.924 65.88ZM178.681 70.69V69H184.115V70.69H185.129V68.064H184.219V62.76H179.565C179.591 65.087 179.279 66.686 178.499 68.064H177.667V70.69H178.681ZM180.566 63.696H183.179V68.064H179.63C180.202 66.868 180.514 65.568 180.566 63.696ZM191.588 67.7V65.256C191.588 63.514 190.535 62.604 188.871 62.604C187.844 62.604 186.986 62.851 186.492 63.02V64.034C187.038 63.8 187.805 63.566 188.767 63.566C189.911 63.566 190.548 64.19 190.548 65.126V65.347C190.028 65.23 189.365 65.152 188.819 65.152C187.48 65.152 185.998 65.646 185.998 67.258C185.998 68.571 187.09 69.156 188.195 69.156C189.209 69.156 190.002 68.844 190.626 68.324C190.808 68.87 191.263 69.078 191.77 69.078C192.03 69.078 192.303 69.026 192.55 68.935V68.09C192.394 68.142 192.225 68.181 192.069 68.181C191.796 68.181 191.588 68.077 191.588 67.7ZM187.064 67.206C187.064 66.296 188.052 66.023 188.962 66.023C189.469 66.023 190.106 66.114 190.548 66.205V67.349C190.002 67.934 189.209 68.259 188.416 68.259C187.727 68.259 187.064 67.934 187.064 67.206ZM195.973 69V63.722H198.261V62.76H192.632V63.722H194.933V69H195.973ZM200.325 69L204.147 64.437V69H205.187V62.76H204.303L200.481 67.323V62.76H199.441V69H200.325ZM211.387 69V63.722H215.001V69H216.041V62.76H210.347V69H211.387ZM217.535 65.88C217.535 68.012 219.173 69.156 220.863 69.156C222.566 69.156 224.191 68.012 224.191 65.88C224.191 63.748 222.566 62.604 220.863 62.604C219.173 62.604 217.535 63.748 217.535 65.88ZM223.151 65.88C223.151 67.323 222.137 68.168 220.863 68.168C219.589 68.168 218.575 67.323 218.575 65.88C218.575 64.437 219.589 63.592 220.863 63.592C222.137 63.592 223.151 64.437 223.151 65.88ZM227.728 63.722H230.263V69H231.303V62.76H226.714C226.597 66.114 226.233 68.22 225.128 68.22C224.998 68.22 224.855 68.194 224.712 68.142V68.961C224.985 69.065 225.232 69.104 225.466 69.104C227.078 69.104 227.52 66.92 227.728 63.722ZM232.795 65.88C232.795 68.103 234.407 69.156 236.253 69.156C237.072 69.156 237.891 69 238.463 68.701V67.687C237.93 67.986 237.176 68.194 236.409 68.194C235.148 68.194 233.965 67.648 233.835 66.335H238.801C239.191 64.567 238.307 62.604 235.902 62.604C234.42 62.604 232.795 63.696 232.795 65.88ZM237.878 65.425H233.835C233.913 64.203 234.901 63.566 235.967 63.566C237.553 63.566 237.969 64.762 237.878 65.425Z" fill="#454545"/>
<path d="M278 54C278 52.3431 279.343 51 281 51H379C380.657 51 382 52.3431 382 54V76C382 77.6569 380.657 79 379 79H281C279.343 79 278 77.6569 278 76V54Z" fill="#454545"/>
<path d="M295.457 66.91C295.457 65.755 294.72 65.15 293.917 64.93C294.665 64.677 295.149 64.094 295.149 63.247C295.149 61.828 293.917 61.146 292.113 61.146C291.31 61.146 290.452 61.278 289.561 61.652V63.225C290.496 62.774 291.277 62.62 291.97 62.631C292.949 62.631 293.499 62.895 293.499 63.511C293.499 64.05 293.026 64.314 292.3 64.314H290.683L290.672 65.766H292.41C293.158 65.766 293.796 65.953 293.796 66.668C293.796 67.46 292.993 67.669 292.157 67.669C291.343 67.68 290.441 67.57 289.429 67.075V68.659C290.452 69.022 291.365 69.154 292.278 69.154C293.807 69.154 295.457 68.626 295.457 66.91ZM297.366 69L297.938 67.559H301.458L302.019 69H303.724L300.589 61.3H298.807L295.661 69H297.366ZM299.522 63.434C299.588 63.28 299.643 63.126 299.698 62.829C299.753 63.126 299.808 63.28 299.863 63.434L300.941 66.195H298.455L299.522 63.434ZM303.801 65.238C303.801 67.922 305.902 69.154 307.959 69.154C308.773 69.154 309.532 68.978 310.192 68.659V67.042C309.73 67.46 309.004 67.68 308.212 67.68C306.87 67.68 305.484 66.932 305.495 65.238C305.495 63.379 306.859 62.609 308.212 62.609C308.927 62.609 309.642 62.829 310.137 63.214V61.641C309.477 61.311 308.707 61.146 307.937 61.146C305.88 61.146 303.812 62.422 303.801 65.238ZM310.746 61.3V62.785H313.111V69H314.75V62.785H317.115V61.3H310.746ZM317.412 65.15C317.412 67.24 318.776 69.154 321.504 69.154C324.232 69.154 325.596 67.24 325.596 65.15C325.596 63.06 324.232 61.146 321.504 61.146C318.776 61.146 317.412 63.06 317.412 65.15ZM323.902 65.15C323.902 66.503 323.099 67.625 321.504 67.625C319.898 67.625 319.095 66.503 319.095 65.15C319.095 63.797 319.898 62.675 321.504 62.675C323.099 62.675 323.902 63.797 323.902 65.15ZM326.392 65.238C326.392 67.922 328.493 69.154 330.55 69.154C331.364 69.154 332.123 68.978 332.783 68.659V67.042C332.321 67.46 331.595 67.68 330.803 67.68C329.461 67.68 328.075 66.932 328.086 65.238C328.086 63.379 329.45 62.609 330.803 62.609C331.518 62.609 332.233 62.829 332.728 63.214V61.641C332.068 61.311 331.298 61.146 330.528 61.146C328.471 61.146 326.403 62.422 326.392 65.238ZM337.758 67.24L340.552 61.3H338.737L337.054 65.26L335.03 61.3H333.204L336.273 66.745L336.141 67.02C335.866 67.592 335.459 67.713 334.953 67.713C334.645 67.713 334.326 67.658 334.062 67.57V68.967C334.447 69.077 334.854 69.154 335.228 69.154C336.207 69.154 337.054 68.736 337.758 67.24ZM341.345 61.3V69H344.656C345.998 69 347.681 68.593 347.681 66.844C347.681 65.711 346.966 65.15 346.207 64.93C346.889 64.699 347.373 64.149 347.373 63.247C347.373 61.927 346.35 61.3 344.711 61.3H341.345ZM346.031 66.668C346.031 67.504 345.371 67.658 344.634 67.658H342.984V65.678H344.722C345.382 65.678 346.031 65.854 346.031 66.668ZM345.734 63.533C345.734 64.127 345.283 64.413 344.656 64.413H342.995V62.653H344.568C345.294 62.653 345.734 62.928 345.734 63.533ZM349.562 69L350.134 67.559H353.654L354.215 69H355.92L352.785 61.3H351.003L347.857 69H349.562ZM351.718 63.434C351.784 63.28 351.839 63.126 351.894 62.829C351.949 63.126 352.004 63.28 352.059 63.434L353.137 66.195H350.651L351.718 63.434ZM355.229 61.3V62.785H357.594V69H359.233V62.785H361.598V61.3H355.229ZM369.325 69V61.3H367.774L364.188 66.327C364.21 66.008 364.221 65.623 364.221 65.271V61.3H362.571V69H364.122L367.708 63.973C367.686 64.292 367.675 64.677 367.675 65.029V69H369.325Z" fill="white"/>
<path d="M251.167 59.1665H257C257.309 59.1665 257.606 59.2894 257.825 59.5082C258.044 59.727 258.167 60.0238 258.167 60.3332V69.6665C258.167 69.9759 258.044 70.2727 257.825 70.4915C257.606 70.7103 257.309 70.8332 257 70.8332H251.167C250.857 70.8332 250.561 70.7103 250.342 70.4915C250.123 70.2727 250 69.9759 250 69.6665V60.3332C250 60.0238 250.123 59.727 250.342 59.5082C250.561 59.2894 250.857 59.1665 251.167 59.1665ZM251.167 60.3332V62.6665H257V60.3332H251.167ZM251.167 63.8332V64.9998H252.333V63.8332H251.167ZM253.5 63.8332V64.9998H254.667V63.8332H253.5ZM255.833 63.8332V64.9998H257V63.8332H255.833ZM251.167 66.1665V67.3332H252.333V66.1665H251.167ZM253.5 66.1665V67.3332H254.667V66.1665H253.5ZM255.833 66.1665V67.3332H257V66.1665H255.833ZM251.167 68.4998V69.6665H252.333V68.4998H251.167ZM253.5 68.4998V69.6665H254.667V68.4998H253.5ZM255.833 68.4998V69.6665H257V68.4998H255.833Z" fill="#8E8E8E"/>
</svg>
