<svg width="619" height="323" viewBox="0 0 619 323" fill="none" xmlns="http://www.w3.org/2000/svg">
<rect width="619" height="323" rx="20" fill="white"/>
<g clip-path="url(#clip0_1720_2498)">
<g clip-path="url(#clip1_1720_2498)">
<rect x="24" y="25" width="181" height="48" fill="#F9F9FB"/>
<path d="M43.032 55V44.776L43.432 45.192H39.208V43.8H48.44V45.192H44.216L44.6 44.776V55H43.032ZM52.8856 55.096C52.0323 55.096 51.275 54.9093 50.6136 54.536C49.9523 54.1627 49.4296 53.6507 49.0456 53C48.6616 52.3387 48.4696 51.592 48.4696 50.76C48.4696 49.9173 48.6616 49.1707 49.0456 48.52C49.4296 47.8693 49.9523 47.3627 50.6136 47C51.275 46.6267 52.0323 46.44 52.8856 46.44C53.7283 46.44 54.4803 46.6267 55.1416 47C55.8136 47.3627 56.3363 47.8693 56.7096 48.52C57.0936 49.16 57.2856 49.9067 57.2856 50.76C57.2856 51.6027 57.0936 52.3493 56.7096 53C56.3363 53.6507 55.8136 54.1627 55.1416 54.536C54.4803 54.9093 53.7283 55.096 52.8856 55.096ZM52.8856 53.752C53.4296 53.752 53.915 53.6293 54.3416 53.384C54.779 53.1387 55.1203 52.792 55.3656 52.344C55.611 51.8853 55.7336 51.3573 55.7336 50.76C55.7336 50.152 55.611 49.6293 55.3656 49.192C55.1203 48.744 54.779 48.3973 54.3416 48.152C53.915 47.9067 53.4296 47.784 52.8856 47.784C52.3416 47.784 51.8563 47.9067 51.4296 48.152C51.003 48.3973 50.6616 48.744 50.4056 49.192C50.1496 49.6293 50.0216 50.152 50.0216 50.76C50.0216 51.3573 50.1496 51.8853 50.4056 52.344C50.6616 52.792 51.003 53.1387 51.4296 53.384C51.8563 53.6293 52.3416 53.752 52.8856 53.752ZM59.5036 55V46.52H63.4396C64.4316 46.52 65.2103 46.712 65.7756 47.096C66.3516 47.4693 66.6396 48.0027 66.6396 48.696C66.6396 49.3893 66.3676 49.928 65.8236 50.312C65.2903 50.6853 64.581 50.872 63.6956 50.872L63.9356 50.456C64.949 50.456 65.701 50.6427 66.1916 51.016C66.6823 51.3893 66.9276 51.9387 66.9276 52.664C66.9276 53.4 66.6503 53.976 66.0956 54.392C65.5516 54.7973 64.7143 55 63.5836 55H59.5036ZM61.0076 53.816H63.4716C64.1116 53.816 64.5916 53.72 64.9116 53.528C65.2316 53.3253 65.3916 53.0053 65.3916 52.568C65.3916 52.12 65.2423 51.7947 64.9436 51.592C64.6556 51.3787 64.197 51.272 63.5676 51.272H61.0076V53.816ZM61.0076 50.168H63.3116C63.8983 50.168 64.341 50.0613 64.6396 49.848C64.949 49.624 65.1036 49.3147 65.1036 48.92C65.1036 48.5147 64.949 48.2107 64.6396 48.008C64.341 47.8053 63.8983 47.704 63.3116 47.704H61.0076V50.168ZM74.5318 55V53.208L74.4518 52.872V49.816C74.4518 49.1653 74.2598 48.664 73.8758 48.312C73.5024 47.9493 72.9371 47.768 72.1798 47.768C71.6784 47.768 71.1878 47.8533 70.7078 48.024C70.2278 48.184 69.8224 48.4027 69.4918 48.68L68.8518 47.528C69.2891 47.176 69.8118 46.9093 70.4198 46.728C71.0384 46.536 71.6838 46.44 72.3558 46.44C73.5184 46.44 74.4144 46.7227 75.0438 47.288C75.6731 47.8533 75.9878 48.7173 75.9878 49.88V55H74.5318ZM71.7478 55.096C71.1184 55.096 70.5638 54.9893 70.0838 54.776C69.6144 54.5627 69.2518 54.2693 68.9958 53.896C68.7398 53.512 68.6118 53.08 68.6118 52.6C68.6118 52.1413 68.7184 51.7253 68.9318 51.352C69.1558 50.9787 69.5131 50.68 70.0038 50.456C70.5051 50.232 71.1771 50.12 72.0198 50.12H74.7078V51.224H72.0838C71.3158 51.224 70.7984 51.352 70.5318 51.608C70.2651 51.864 70.1318 52.1733 70.1318 52.536C70.1318 52.952 70.2971 53.288 70.6278 53.544C70.9584 53.7893 71.4171 53.912 72.0038 53.912C72.5798 53.912 73.0811 53.784 73.5078 53.528C73.9451 53.272 74.2598 52.8987 74.4518 52.408L74.7558 53.464C74.5531 53.9653 74.1958 54.3653 73.6838 54.664C73.1718 54.952 72.5264 55.096 71.7478 55.096ZM83.2496 55.096C82.5456 55.096 81.9003 54.936 81.3136 54.616C80.7376 54.2853 80.2736 53.8 79.9216 53.16C79.5803 52.52 79.4096 51.72 79.4096 50.76C79.4096 49.8 79.575 49 79.9056 48.36C80.247 47.72 80.7056 47.24 81.2816 46.92C81.8683 46.6 82.5243 46.44 83.2496 46.44C84.0816 46.44 84.8176 46.6213 85.4576 46.984C86.0976 47.3467 86.6043 47.8533 86.9776 48.504C87.351 49.144 87.5376 49.896 87.5376 50.76C87.5376 51.624 87.351 52.3813 86.9776 53.032C86.6043 53.6827 86.0976 54.1893 85.4576 54.552C84.8176 54.9147 84.0816 55.096 83.2496 55.096ZM78.7536 58.104V46.52H80.2256V48.808L80.1296 50.776L80.2896 52.744V58.104H78.7536ZM83.1216 53.752C83.6656 53.752 84.151 53.6293 84.5776 53.384C85.015 53.1387 85.3563 52.792 85.6016 52.344C85.8576 51.8853 85.9856 51.3573 85.9856 50.76C85.9856 50.152 85.8576 49.6293 85.6016 49.192C85.3563 48.744 85.015 48.3973 84.5776 48.152C84.151 47.9067 83.6656 47.784 83.1216 47.784C82.5883 47.784 82.103 47.9067 81.6656 48.152C81.239 48.3973 80.8976 48.744 80.6416 49.192C80.3963 49.6293 80.2736 50.152 80.2736 50.76C80.2736 51.3573 80.3963 51.8853 80.6416 52.344C80.8976 52.792 81.239 53.1387 81.6656 53.384C82.103 53.6293 82.5883 53.752 83.1216 53.752ZM89.7693 55V46.52H91.3053V52.696L96.5052 46.52H97.8973V55H96.3612V48.824L91.1773 55H89.7693Z" fill="#454545"/>
<rect x="24" y="25" width="181" height="48" stroke="#DDDDE6" stroke-width="2"/>
<rect x="205" y="25" width="105" height="48" fill="#F9F9FB"/>
<path d="M226.744 55V43.8H231.56C232.776 43.8 233.731 44.0453 234.424 44.536C235.117 45.0267 235.464 45.7413 235.464 46.68C235.464 47.5973 235.133 48.3013 234.472 48.792C233.811 49.272 232.941 49.512 231.864 49.512L232.152 49.032C233.4 49.032 234.355 49.2827 235.016 49.784C235.688 50.2747 236.024 50.9947 236.024 51.944C236.024 52.904 235.672 53.656 234.968 54.2C234.275 54.7333 233.24 55 231.864 55H226.744ZM228.328 53.736H231.832C232.685 53.736 233.325 53.5813 233.752 53.272C234.189 52.952 234.408 52.4667 234.408 51.816C234.408 51.1653 234.189 50.6907 233.752 50.392C233.325 50.0933 232.685 49.944 231.832 49.944H228.328V53.736ZM228.328 48.728H231.448C232.227 48.728 232.819 48.5733 233.224 48.264C233.64 47.9547 233.848 47.5013 233.848 46.904C233.848 46.296 233.64 45.8373 233.224 45.528C232.819 45.2187 232.227 45.064 231.448 45.064H228.328V48.728ZM238.441 55V46.52H239.977V55H238.441ZM239.209 44.888C238.91 44.888 238.66 44.792 238.457 44.6C238.265 44.408 238.169 44.1733 238.169 43.896C238.169 43.608 238.265 43.368 238.457 43.176C238.66 42.984 238.91 42.888 239.209 42.888C239.508 42.888 239.753 42.984 239.945 43.176C240.148 43.3573 240.249 43.5867 240.249 43.864C240.249 44.152 240.153 44.3973 239.961 44.6C239.769 44.792 239.518 44.888 239.209 44.888ZM248.764 54.28V47.864H245.084L245.004 49.496C244.983 50.0293 244.946 50.5467 244.892 51.048C244.85 51.5387 244.775 51.992 244.668 52.408C244.572 52.824 244.428 53.1653 244.236 53.432C244.044 53.6987 243.788 53.864 243.468 53.928L241.948 53.656C242.279 53.6667 242.546 53.56 242.748 53.336C242.951 53.1013 243.106 52.7813 243.212 52.376C243.33 51.9707 243.415 51.512 243.468 51C243.522 50.4773 243.564 49.9387 243.596 49.384L243.724 46.52H250.3V54.28H248.764ZM241.612 56.968V53.656H251.596V56.968H250.156V55H243.068V56.968H241.612ZM253.597 55V46.52H259.837V47.864H254.765L255.133 47.512V55H253.597ZM261.842 58.2C261.437 58.2 261.042 58.1307 260.658 57.992C260.274 57.864 259.943 57.672 259.666 57.416L260.322 56.264C260.535 56.4667 260.77 56.6213 261.026 56.728C261.282 56.8347 261.554 56.888 261.842 56.888C262.215 56.888 262.525 56.792 262.77 56.6C263.015 56.408 263.245 56.0667 263.458 55.576L263.986 54.408L264.146 54.216L267.474 46.52H268.978L264.866 55.848C264.621 56.4453 264.343 56.9147 264.034 57.256C263.735 57.5973 263.405 57.8373 263.042 57.976C262.679 58.1253 262.279 58.2 261.842 58.2ZM263.858 55.272L259.986 46.52H261.586L264.882 54.072L263.858 55.272ZM276.695 55L273.415 50.872L274.679 50.104L278.503 55H276.695ZM270.551 55V46.52H272.087V55H270.551ZM271.623 51.416V50.104H274.423V51.416H271.623ZM274.807 50.936L273.383 50.744L276.631 46.52H278.279L274.807 50.936ZM280.113 55V46.52H281.649V52.696L286.849 46.52H288.241V55H286.705V48.824L281.521 55H280.113Z" fill="#454545"/>
<rect x="205" y="25" width="105" height="48" stroke="#DDDDE6" stroke-width="2"/>
<rect x="310" y="25" width="100" height="48" fill="#F9F9FB"/>
<path d="M326.244 55V43.8H330.612C331.593 43.8 332.431 43.9547 333.124 44.264C333.817 44.5733 334.351 45.0213 334.724 45.608C335.097 46.1947 335.284 46.8933 335.284 47.704C335.284 48.5147 335.097 49.2133 334.724 49.8C334.351 50.376 333.817 50.824 333.124 51.144C332.431 51.4533 331.593 51.608 330.612 51.608H327.124L327.844 50.856V55H326.244ZM327.844 51.016L327.124 50.216H330.564C331.588 50.216 332.361 49.9973 332.884 49.56C333.417 49.1227 333.684 48.504 333.684 47.704C333.684 46.904 333.417 46.2853 332.884 45.848C332.361 45.4107 331.588 45.192 330.564 45.192H327.124L327.844 44.392V51.016ZM340.998 55.096C340.092 55.096 339.292 54.9093 338.598 54.536C337.916 54.1627 337.382 53.6507 336.998 53C336.625 52.3493 336.438 51.6027 336.438 50.76C336.438 49.9173 336.62 49.1707 336.982 48.52C337.356 47.8693 337.862 47.3627 338.502 47C339.153 46.6267 339.884 46.44 340.694 46.44C341.516 46.44 342.241 46.6213 342.87 46.984C343.5 47.3467 343.99 47.8587 344.342 48.52C344.705 49.1707 344.886 49.9333 344.886 50.808C344.886 50.872 344.881 50.9467 344.87 51.032C344.87 51.1173 344.865 51.1973 344.854 51.272H337.638V50.168H344.054L343.43 50.552C343.441 50.008 343.329 49.5227 343.094 49.096C342.86 48.6693 342.534 48.3387 342.118 48.104C341.713 47.8587 341.238 47.736 340.694 47.736C340.161 47.736 339.686 47.8587 339.27 48.104C338.854 48.3387 338.529 48.6747 338.294 49.112C338.06 49.5387 337.942 50.0293 337.942 50.584V50.84C337.942 51.4053 338.07 51.912 338.326 52.36C338.593 52.7973 338.961 53.1387 339.43 53.384C339.9 53.6293 340.438 53.752 341.046 53.752C341.548 53.752 342.001 53.6667 342.406 53.496C342.822 53.3253 343.185 53.0693 343.494 52.728L344.342 53.72C343.958 54.168 343.478 54.5093 342.902 54.744C342.337 54.9787 341.702 55.096 340.998 55.096ZM347.269 55V46.52H348.805V52.696L354.005 46.52H355.397V55H353.861V48.824L348.677 55H347.269ZM351.237 45.416C350.459 45.416 349.845 45.2293 349.397 44.856C348.96 44.472 348.736 43.9227 348.725 43.208H349.765C349.776 43.6133 349.909 43.9333 350.165 44.168C350.432 44.4027 350.784 44.52 351.221 44.52C351.659 44.52 352.011 44.4027 352.277 44.168C352.544 43.9333 352.683 43.6133 352.693 43.208H353.765C353.755 43.9227 353.525 44.472 353.077 44.856C352.629 45.2293 352.016 45.416 351.237 45.416ZM360.059 55V47.464L360.443 47.864H356.955V46.52H364.699V47.864H361.227L361.595 47.464V55H360.059ZM366.269 55V46.52H367.805V52.696L373.005 46.52H374.397V55H372.861V48.824L367.677 55H366.269ZM377.379 55V46.52H378.915V50.12H383.747V46.52H385.283V55H383.747V51.448H378.915V55H377.379ZM388.269 55V46.52H394.509V47.864H389.437L389.805 47.512V55H388.269Z" fill="#454545"/>
<rect x="310" y="25" width="100" height="48" stroke="#DDDDE6" stroke-width="2"/>
<rect x="410" y="25" width="181" height="48" fill="#F9F9FB"/>
<path d="M467.744 55V43.8H477.392V55H475.824V44.776L476.208 45.192H468.928L469.328 44.776V55H467.744ZM484.261 55.096C483.407 55.096 482.65 54.9093 481.989 54.536C481.327 54.1627 480.805 53.6507 480.421 53C480.037 52.3387 479.845 51.592 479.845 50.76C479.845 49.9173 480.037 49.1707 480.421 48.52C480.805 47.8693 481.327 47.3627 481.989 47C482.65 46.6267 483.407 46.44 484.261 46.44C485.103 46.44 485.855 46.6267 486.517 47C487.189 47.3627 487.711 47.8693 488.085 48.52C488.469 49.16 488.661 49.9067 488.661 50.76C488.661 51.6027 488.469 52.3493 488.085 53C487.711 53.6507 487.189 54.1627 486.517 54.536C485.855 54.9093 485.103 55.096 484.261 55.096ZM484.261 53.752C484.805 53.752 485.29 53.6293 485.717 53.384C486.154 53.1387 486.495 52.792 486.741 52.344C486.986 51.8853 487.109 51.3573 487.109 50.76C487.109 50.152 486.986 49.6293 486.741 49.192C486.495 48.744 486.154 48.3973 485.717 48.152C485.29 47.9067 484.805 47.784 484.261 47.784C483.717 47.784 483.231 47.9067 482.805 48.152C482.378 48.3973 482.037 48.744 481.781 49.192C481.525 49.6293 481.397 50.152 481.397 50.76C481.397 51.3573 481.525 51.8853 481.781 52.344C482.037 52.792 482.378 53.1387 482.805 53.384C483.231 53.6293 483.717 53.752 484.261 53.752ZM493.265 55.112C494.012 55.112 494.673 55.0053 495.249 54.792C495.836 54.568 496.3 54.264 496.641 53.88C496.982 53.4853 497.153 53.032 497.153 52.52C497.153 51.88 496.881 51.3733 496.337 51C495.793 50.6267 495.046 50.44 494.097 50.44L494.033 50.808C494.588 50.808 495.078 50.7173 495.505 50.536C495.932 50.3547 496.273 50.1093 496.529 49.8C496.785 49.48 496.913 49.1173 496.913 48.712C496.913 48.232 496.742 47.816 496.401 47.464C496.07 47.112 495.617 46.8453 495.041 46.664C494.465 46.472 493.809 46.3867 493.073 46.408C492.582 46.4187 492.086 46.4933 491.585 46.632C491.094 46.76 490.593 46.9467 490.081 47.192L490.497 48.392C490.956 48.168 491.404 48.0027 491.841 47.896C492.289 47.7893 492.726 47.7307 493.153 47.72C493.59 47.72 493.969 47.768 494.289 47.864C494.62 47.96 494.876 48.0987 495.057 48.28C495.238 48.4613 495.329 48.68 495.329 48.936C495.329 49.1707 495.249 49.3787 495.089 49.56C494.94 49.7307 494.726 49.8587 494.449 49.944C494.172 50.0293 493.846 50.072 493.473 50.072H492.033V51.176H493.569C494.198 51.176 494.689 51.2827 495.041 51.496C495.393 51.7093 495.569 52.0133 495.569 52.408C495.569 52.6853 495.473 52.9307 495.281 53.144C495.089 53.3467 494.812 53.5067 494.449 53.624C494.097 53.7413 493.676 53.8 493.185 53.8C492.652 53.8 492.124 53.7307 491.601 53.592C491.078 53.4427 490.614 53.24 490.209 52.984L489.745 54.152C490.225 54.4613 490.769 54.7013 491.377 54.872C491.996 55.032 492.625 55.112 493.265 55.112ZM499.488 55V46.52H501.024V52.696L506.224 46.52H507.616V55H506.08V48.824L500.896 55H499.488ZM510.597 55V46.52H512.133V53.656H516.773V46.52H518.309V55H510.597ZM518.197 56.968V54.92L518.581 55H516.773V53.656H519.653V56.968H518.197ZM521.644 55V46.52H523.18V55H521.644ZM522.412 44.888C522.114 44.888 521.863 44.792 521.66 44.6C521.468 44.408 521.372 44.1733 521.372 43.896C521.372 43.608 521.468 43.368 521.66 43.176C521.863 42.984 522.114 42.888 522.412 42.888C522.711 42.888 522.956 42.984 523.148 43.176C523.351 43.3573 523.452 43.5867 523.452 43.864C523.452 44.152 523.356 44.3973 523.164 44.6C522.972 44.792 522.722 44.888 522.412 44.888ZM531.6 55V52.024L531.84 52.312H529.136C528.005 52.312 527.12 52.072 526.48 51.592C525.85 51.112 525.536 50.4133 525.536 49.496C525.536 48.5147 525.872 47.7733 526.544 47.272C527.226 46.7707 528.133 46.52 529.264 46.52H532.976V55H531.6ZM525.456 55L527.76 51.752H529.344L527.104 55H525.456ZM531.6 51.544V47.432L531.84 47.864H529.312C528.608 47.864 528.064 47.9973 527.68 48.264C527.296 48.52 527.104 48.9467 527.104 49.544C527.104 50.6533 527.818 51.208 529.248 51.208H531.84L531.6 51.544Z" fill="#454545"/>
<rect x="410" y="25" width="181" height="48" stroke="#DDDDE6" stroke-width="2"/>
</g>
<g clip-path="url(#clip2_1720_2498)">
<rect x="24" y="73" width="181" height="56" fill="white"/>
<path d="M41.124 107V94.4H42.222L47.982 104.228H47.406L53.112 94.4H54.21V107H52.932V96.398H53.238L47.982 105.398H47.352L42.06 96.398H42.402V107H41.124ZM58.15 107V97.55H59.428V107H58.15ZM58.798 95.462C58.534 95.462 58.312 95.372 58.132 95.192C57.952 95.012 57.862 94.796 57.862 94.544C57.862 94.292 57.952 94.082 58.132 93.914C58.312 93.734 58.534 93.644 58.798 93.644C59.062 93.644 59.284 93.728 59.464 93.896C59.644 94.064 59.734 94.274 59.734 94.526C59.734 94.79 59.644 95.012 59.464 95.192C59.296 95.372 59.074 95.462 58.798 95.462ZM63.0719 107V97.55H64.3499V105.056L70.6679 97.55H71.8019V107H70.5239V99.476L64.2239 107H63.0719ZM67.3559 96.182C66.5639 96.182 65.9219 95.984 65.4299 95.588C64.9499 95.18 64.6979 94.598 64.6739 93.842H65.5919C65.6039 94.322 65.7719 94.7 66.0959 94.976C66.4199 95.252 66.8399 95.39 67.3559 95.39C67.8719 95.39 68.2919 95.252 68.6159 94.976C68.9519 94.7 69.1259 94.322 69.1379 93.842H70.0559C70.0439 94.598 69.7919 95.18 69.2999 95.588C68.8079 95.984 68.1599 96.182 67.3559 96.182ZM81.9754 107V98.324L82.2994 98.666H78.3934V97.55H86.8354V98.666H82.9294L83.2534 98.324V107H81.9754ZM92.1318 107.09C91.2198 107.09 90.3978 106.886 89.6658 106.478C88.9458 106.058 88.3758 105.488 87.9558 104.768C87.5358 104.036 87.3258 103.202 87.3258 102.266C87.3258 101.318 87.5358 100.484 87.9558 99.764C88.3758 99.044 88.9458 98.48 89.6658 98.072C90.3858 97.664 91.2078 97.46 92.1318 97.46C93.0678 97.46 93.8958 97.664 94.6158 98.072C95.3478 98.48 95.9178 99.044 96.3258 99.764C96.7458 100.484 96.9558 101.318 96.9558 102.266C96.9558 103.202 96.7458 104.036 96.3258 104.768C95.9178 105.488 95.3478 106.058 94.6158 106.478C93.8838 106.886 93.0558 107.09 92.1318 107.09ZM92.1318 105.956C92.8158 105.956 93.4218 105.806 93.9498 105.506C94.4778 105.194 94.8918 104.762 95.1918 104.21C95.5038 103.646 95.6598 102.998 95.6598 102.266C95.6598 101.522 95.5038 100.874 95.1918 100.322C94.8918 99.77 94.4778 99.344 93.9498 99.044C93.4218 98.732 92.8218 98.576 92.1498 98.576C91.4778 98.576 90.8778 98.732 90.3498 99.044C89.8218 99.344 89.4018 99.77 89.0898 100.322C88.7778 100.874 88.6218 101.522 88.6218 102.266C88.6218 102.998 88.7778 103.646 89.0898 104.21C89.4018 104.762 89.8218 105.194 90.3498 105.506C90.8778 105.806 91.4718 105.956 92.1318 105.956ZM99.6871 107V97.55H103.863C104.931 97.55 105.771 97.754 106.383 98.162C107.007 98.57 107.319 99.17 107.319 99.962C107.319 100.73 107.025 101.324 106.437 101.744C105.849 102.152 105.075 102.356 104.115 102.356L104.367 101.978C105.495 101.978 106.323 102.188 106.851 102.608C107.379 103.028 107.643 103.634 107.643 104.426C107.643 105.242 107.343 105.878 106.743 106.334C106.155 106.778 105.237 107 103.989 107H99.6871ZM100.929 105.992H103.935C104.739 105.992 105.345 105.866 105.753 105.614C106.173 105.35 106.383 104.93 106.383 104.354C106.383 103.778 106.197 103.358 105.825 103.094C105.453 102.83 104.865 102.698 104.061 102.698H100.929V105.992ZM100.929 101.744H103.773C104.505 101.744 105.063 101.606 105.447 101.33C105.843 101.054 106.041 100.652 106.041 100.124C106.041 99.596 105.843 99.2 105.447 98.936C105.063 98.672 104.505 98.54 103.773 98.54H100.929V101.744ZM116.506 107V104.912L116.452 104.57V101.078C116.452 100.274 116.224 99.656 115.768 99.224C115.324 98.792 114.658 98.576 113.77 98.576C113.158 98.576 112.576 98.678 112.024 98.882C111.472 99.086 111.004 99.356 110.62 99.692L110.044 98.738C110.524 98.33 111.1 98.018 111.772 97.802C112.444 97.574 113.152 97.46 113.896 97.46C115.12 97.46 116.062 97.766 116.722 98.378C117.394 98.978 117.73 99.896 117.73 101.132V107H116.506ZM113.248 107.09C112.54 107.09 111.922 106.976 111.394 106.748C110.878 106.508 110.482 106.184 110.206 105.776C109.93 105.356 109.792 104.876 109.792 104.336C109.792 103.844 109.906 103.4 110.134 103.004C110.374 102.596 110.758 102.272 111.286 102.032C111.826 101.78 112.546 101.654 113.446 101.654H116.704V102.608H113.482C112.57 102.608 111.934 102.77 111.574 103.094C111.226 103.418 111.052 103.82 111.052 104.3C111.052 104.84 111.262 105.272 111.682 105.596C112.102 105.92 112.69 106.082 113.446 106.082C114.166 106.082 114.784 105.92 115.3 105.596C115.828 105.26 116.212 104.78 116.452 104.156L116.74 105.038C116.5 105.662 116.08 106.16 115.48 106.532C114.892 106.904 114.148 107.09 113.248 107.09ZM126.01 107.09C125.194 107.09 124.456 106.904 123.796 106.532C123.136 106.148 122.608 105.602 122.212 104.894C121.828 104.174 121.636 103.298 121.636 102.266C121.636 101.234 121.828 100.364 122.212 99.656C122.596 98.936 123.118 98.39 123.778 98.018C124.438 97.646 125.182 97.46 126.01 97.46C126.91 97.46 127.714 97.664 128.422 98.072C129.142 98.468 129.706 99.032 130.114 99.764C130.522 100.484 130.726 101.318 130.726 102.266C130.726 103.226 130.522 104.066 130.114 104.786C129.706 105.506 129.142 106.07 128.422 106.478C127.714 106.886 126.91 107.09 126.01 107.09ZM121.132 110.492V97.55H122.356V100.394L122.23 102.284L122.41 104.192V110.492H121.132ZM125.92 105.956C126.592 105.956 127.192 105.806 127.72 105.506C128.248 105.194 128.668 104.762 128.98 104.21C129.292 103.646 129.448 102.998 129.448 102.266C129.448 101.534 129.292 100.892 128.98 100.34C128.668 99.788 128.248 99.356 127.72 99.044C127.192 98.732 126.592 98.576 125.92 98.576C125.248 98.576 124.642 98.732 124.102 99.044C123.574 99.356 123.154 99.788 122.842 100.34C122.542 100.892 122.392 101.534 122.392 102.266C122.392 102.998 122.542 103.646 122.842 104.21C123.154 104.762 123.574 105.194 124.102 105.506C124.642 105.806 125.248 105.956 125.92 105.956ZM139.497 107V94.94L140.073 95.552H136.527V94.4H140.793V107H139.497Z" fill="#454545"/>
<rect x="24" y="73" width="181" height="56" stroke="#DDDDE6" stroke-width="2"/>
<rect x="205" y="73" width="105" height="56" fill="white"/>
<path d="M245.716 107.144C244.828 107.144 243.964 107.006 243.124 106.73C242.296 106.454 241.618 106.082 241.09 105.614L241.918 104.192C242.338 104.588 242.884 104.912 243.556 105.164C244.228 105.416 244.948 105.542 245.716 105.542C246.652 105.542 247.378 105.344 247.894 104.948C248.422 104.54 248.686 103.994 248.686 103.31C248.686 102.65 248.434 102.122 247.93 101.726C247.438 101.318 246.652 101.114 245.572 101.114H244.564V99.854L248.308 95.246L248.56 95.966H241.666V94.4H249.982V95.624L246.256 100.214L245.32 99.656H245.914C247.438 99.656 248.578 99.998 249.334 100.682C250.102 101.366 250.486 102.236 250.486 103.292C250.486 104 250.312 104.648 249.964 105.236C249.616 105.824 249.088 106.292 248.38 106.64C247.684 106.976 246.796 107.144 245.716 107.144ZM257.457 107.144C256.341 107.144 255.387 106.898 254.595 106.406C253.803 105.914 253.197 105.206 252.777 104.282C252.369 103.346 252.165 102.206 252.165 100.862C252.165 99.434 252.417 98.228 252.921 97.244C253.425 96.26 254.127 95.516 255.027 95.012C255.927 94.508 256.959 94.256 258.123 94.256C258.723 94.256 259.293 94.316 259.833 94.436C260.385 94.556 260.859 94.742 261.255 94.994L260.571 96.398C260.247 96.17 259.875 96.014 259.455 95.93C259.047 95.846 258.615 95.804 258.159 95.804C256.875 95.804 255.855 96.206 255.099 97.01C254.343 97.802 253.965 98.984 253.965 100.556C253.965 100.808 253.977 101.108 254.001 101.456C254.025 101.804 254.085 102.146 254.181 102.482L253.569 101.87C253.749 101.318 254.031 100.856 254.415 100.484C254.811 100.1 255.279 99.818 255.819 99.638C256.371 99.446 256.965 99.35 257.601 99.35C258.441 99.35 259.185 99.506 259.833 99.818C260.481 100.13 260.991 100.574 261.363 101.15C261.735 101.714 261.921 102.386 261.921 103.166C261.921 103.97 261.723 104.672 261.327 105.272C260.931 105.872 260.397 106.334 259.725 106.658C259.053 106.982 258.297 107.144 257.457 107.144ZM257.385 105.686C257.937 105.686 258.417 105.584 258.825 105.38C259.245 105.176 259.575 104.894 259.815 104.534C260.055 104.162 260.175 103.73 260.175 103.238C260.175 102.494 259.917 101.906 259.401 101.474C258.885 101.03 258.183 100.808 257.295 100.808C256.719 100.808 256.215 100.916 255.783 101.132C255.351 101.348 255.009 101.642 254.757 102.014C254.517 102.374 254.397 102.788 254.397 103.256C254.397 103.688 254.511 104.09 254.739 104.462C254.967 104.822 255.303 105.116 255.747 105.344C256.191 105.572 256.737 105.686 257.385 105.686ZM267.36 94.256C268.5 94.256 269.46 94.502 270.24 94.994C271.032 95.486 271.632 96.2 272.04 97.136C272.448 98.06 272.652 99.194 272.652 100.538C272.652 101.966 272.4 103.172 271.896 104.156C271.392 105.14 270.696 105.884 269.808 106.388C268.92 106.892 267.882 107.144 266.694 107.144C266.106 107.144 265.536 107.084 264.984 106.964C264.444 106.844 263.97 106.658 263.562 106.406L264.246 105.002C264.582 105.218 264.954 105.374 265.362 105.47C265.782 105.554 266.22 105.596 266.676 105.596C267.948 105.596 268.962 105.2 269.718 104.408C270.474 103.604 270.852 102.416 270.852 100.844C270.852 100.592 270.84 100.292 270.816 99.944C270.792 99.596 270.738 99.254 270.654 98.918L271.248 99.53C271.08 100.082 270.798 100.55 270.402 100.934C270.018 101.306 269.55 101.588 268.998 101.78C268.458 101.96 267.864 102.05 267.216 102.05C266.388 102.05 265.65 101.894 265.002 101.582C264.354 101.27 263.844 100.832 263.472 100.268C263.1 99.692 262.914 99.014 262.914 98.234C262.914 97.418 263.106 96.716 263.49 96.128C263.886 95.528 264.42 95.066 265.092 94.742C265.776 94.418 266.532 94.256 267.36 94.256ZM267.432 95.714C266.892 95.714 266.412 95.816 265.992 96.02C265.572 96.224 265.242 96.506 265.002 96.866C264.774 97.226 264.66 97.658 264.66 98.162C264.66 98.906 264.918 99.5 265.434 99.944C265.95 100.376 266.646 100.592 267.522 100.592C268.098 100.592 268.602 100.484 269.034 100.268C269.478 100.052 269.82 99.758 270.06 99.386C270.312 99.014 270.438 98.6 270.438 98.144C270.438 97.7 270.324 97.298 270.096 96.938C269.868 96.578 269.532 96.284 269.088 96.056C268.644 95.828 268.092 95.714 267.432 95.714Z" fill="#454545"/>
<rect x="205" y="73" width="105" height="56" stroke="#DDDDE6" stroke-width="2"/>
<rect x="310" y="73" width="100" height="56" fill="white"/>
<path d="M344 91L346.974 96.9064L353.511 97.9098L348.812 102.564L349.878 109.09L344 106.06L338.122 109.09L339.188 102.564L334.489 97.9098L341.026 96.9064L344 91Z" fill="#F28100"/>
<path d="M357.684 103.904V102.644L364.128 94.4H366.072L359.682 102.644L358.764 102.356H368.826V103.904H357.684ZM364.686 107V103.904L364.74 102.356V99.62H366.432V107H364.686ZM371.445 107.108C371.109 107.108 370.821 106.994 370.581 106.766C370.341 106.526 370.221 106.226 370.221 105.866C370.221 105.506 370.341 105.212 370.581 104.984C370.821 104.756 371.109 104.642 371.445 104.642C371.769 104.642 372.045 104.756 372.273 104.984C372.513 105.212 372.633 105.506 372.633 105.866C372.633 106.226 372.513 106.526 372.273 106.766C372.045 106.994 371.769 107.108 371.445 107.108ZM379.424 107.144C378.404 107.144 377.522 106.994 376.778 106.694C376.034 106.394 375.458 105.968 375.05 105.416C374.642 104.852 374.438 104.192 374.438 103.436C374.438 102.692 374.63 102.062 375.014 101.546C375.41 101.018 375.98 100.622 376.724 100.358C377.468 100.082 378.368 99.944 379.424 99.944C380.48 99.944 381.38 100.082 382.124 100.358C382.88 100.622 383.456 101.018 383.852 101.546C384.248 102.074 384.446 102.704 384.446 103.436C384.446 104.192 384.242 104.852 383.834 105.416C383.426 105.968 382.844 106.394 382.088 106.694C381.332 106.994 380.444 107.144 379.424 107.144ZM379.424 105.686C380.432 105.686 381.218 105.482 381.782 105.074C382.358 104.654 382.646 104.09 382.646 103.382C382.646 102.686 382.358 102.14 381.782 101.744C381.218 101.336 380.432 101.132 379.424 101.132C378.428 101.132 377.648 101.336 377.084 101.744C376.52 102.14 376.238 102.686 376.238 103.382C376.238 104.09 376.52 104.654 377.084 105.074C377.648 105.482 378.428 105.686 379.424 105.686ZM379.424 100.916C378.464 100.916 377.648 100.79 376.976 100.538C376.304 100.274 375.788 99.902 375.428 99.422C375.068 98.93 374.888 98.348 374.888 97.676C374.888 96.968 375.074 96.362 375.446 95.858C375.83 95.342 376.364 94.946 377.048 94.67C377.732 94.394 378.524 94.256 379.424 94.256C380.336 94.256 381.134 94.394 381.818 94.67C382.502 94.946 383.036 95.342 383.42 95.858C383.804 96.362 383.996 96.968 383.996 97.676C383.996 98.348 383.816 98.93 383.456 99.422C383.096 99.902 382.574 100.274 381.89 100.538C381.206 100.79 380.384 100.916 379.424 100.916ZM379.424 99.764C380.3 99.764 380.984 99.584 381.476 99.224C381.98 98.864 382.232 98.372 382.232 97.748C382.232 97.112 381.974 96.614 381.458 96.254C380.942 95.894 380.264 95.714 379.424 95.714C378.584 95.714 377.912 95.894 377.408 96.254C376.916 96.614 376.67 97.112 376.67 97.748C376.67 98.372 376.91 98.864 377.39 99.224C377.882 99.584 378.56 99.764 379.424 99.764Z" fill="#454545"/>
<rect x="310" y="73" width="100" height="56" stroke="#DDDDE6" stroke-width="2"/>
<rect x="410" y="73" width="181" height="56" fill="white"/>
<g clip-path="url(#clip3_1720_2498)">
<rect x="455.5" y="98.5" width="90" height="5" rx="2.5" fill="#DDDDE6"/>
<rect x="455.375" y="99" width="83" height="5" rx="2.5" fill="#80DA39"/>
</g>
<rect x="410" y="73" width="181" height="56" stroke="#DDDDE6" stroke-width="2"/>
</g>
<rect x="24" y="73" width="567" height="56" stroke="#DDDDE6" stroke-width="2"/>
<g clip-path="url(#clip4_1720_2498)">
<rect x="24" y="129" width="181" height="56" fill="white"/>
<path d="M41.124 163V150.4H42.222L47.982 160.228H47.406L53.112 150.4H54.21V163H52.932V152.398H53.238L47.982 161.398H47.352L42.06 152.398H42.402V163H41.124ZM58.15 163V153.55H59.428V163H58.15ZM58.798 151.462C58.534 151.462 58.312 151.372 58.132 151.192C57.952 151.012 57.862 150.796 57.862 150.544C57.862 150.292 57.952 150.082 58.132 149.914C58.312 149.734 58.534 149.644 58.798 149.644C59.062 149.644 59.284 149.728 59.464 149.896C59.644 150.064 59.734 150.274 59.734 150.526C59.734 150.79 59.644 151.012 59.464 151.192C59.296 151.372 59.074 151.462 58.798 151.462ZM63.0719 163V153.55H64.3499V161.056L70.6679 153.55H71.8019V163H70.5239V155.476L64.2239 163H63.0719ZM67.3559 152.182C66.5639 152.182 65.9219 151.984 65.4299 151.588C64.9499 151.18 64.6979 150.598 64.6739 149.842H65.5919C65.6039 150.322 65.7719 150.7 66.0959 150.976C66.4199 151.252 66.8399 151.39 67.3559 151.39C67.8719 151.39 68.2919 151.252 68.6159 150.976C68.9519 150.7 69.1259 150.322 69.1379 149.842H70.0559C70.0439 150.598 69.7919 151.18 69.2999 151.588C68.8079 151.984 68.1599 152.182 67.3559 152.182ZM81.9754 163V154.324L82.2994 154.666H78.3934V153.55H86.8354V154.666H82.9294L83.2534 154.324V163H81.9754ZM92.1318 163.09C91.2198 163.09 90.3978 162.886 89.6658 162.478C88.9458 162.058 88.3758 161.488 87.9558 160.768C87.5358 160.036 87.3258 159.202 87.3258 158.266C87.3258 157.318 87.5358 156.484 87.9558 155.764C88.3758 155.044 88.9458 154.48 89.6658 154.072C90.3858 153.664 91.2078 153.46 92.1318 153.46C93.0678 153.46 93.8958 153.664 94.6158 154.072C95.3478 154.48 95.9178 155.044 96.3258 155.764C96.7458 156.484 96.9558 157.318 96.9558 158.266C96.9558 159.202 96.7458 160.036 96.3258 160.768C95.9178 161.488 95.3478 162.058 94.6158 162.478C93.8838 162.886 93.0558 163.09 92.1318 163.09ZM92.1318 161.956C92.8158 161.956 93.4218 161.806 93.9498 161.506C94.4778 161.194 94.8918 160.762 95.1918 160.21C95.5038 159.646 95.6598 158.998 95.6598 158.266C95.6598 157.522 95.5038 156.874 95.1918 156.322C94.8918 155.77 94.4778 155.344 93.9498 155.044C93.4218 154.732 92.8218 154.576 92.1498 154.576C91.4778 154.576 90.8778 154.732 90.3498 155.044C89.8218 155.344 89.4018 155.77 89.0898 156.322C88.7778 156.874 88.6218 157.522 88.6218 158.266C88.6218 158.998 88.7778 159.646 89.0898 160.21C89.4018 160.762 89.8218 161.194 90.3498 161.506C90.8778 161.806 91.4718 161.956 92.1318 161.956ZM99.6871 163V153.55H103.863C104.931 153.55 105.771 153.754 106.383 154.162C107.007 154.57 107.319 155.17 107.319 155.962C107.319 156.73 107.025 157.324 106.437 157.744C105.849 158.152 105.075 158.356 104.115 158.356L104.367 157.978C105.495 157.978 106.323 158.188 106.851 158.608C107.379 159.028 107.643 159.634 107.643 160.426C107.643 161.242 107.343 161.878 106.743 162.334C106.155 162.778 105.237 163 103.989 163H99.6871ZM100.929 161.992H103.935C104.739 161.992 105.345 161.866 105.753 161.614C106.173 161.35 106.383 160.93 106.383 160.354C106.383 159.778 106.197 159.358 105.825 159.094C105.453 158.83 104.865 158.698 104.061 158.698H100.929V161.992ZM100.929 157.744H103.773C104.505 157.744 105.063 157.606 105.447 157.33C105.843 157.054 106.041 156.652 106.041 156.124C106.041 155.596 105.843 155.2 105.447 154.936C105.063 154.672 104.505 154.54 103.773 154.54H100.929V157.744ZM116.506 163V160.912L116.452 160.57V157.078C116.452 156.274 116.224 155.656 115.768 155.224C115.324 154.792 114.658 154.576 113.77 154.576C113.158 154.576 112.576 154.678 112.024 154.882C111.472 155.086 111.004 155.356 110.62 155.692L110.044 154.738C110.524 154.33 111.1 154.018 111.772 153.802C112.444 153.574 113.152 153.46 113.896 153.46C115.12 153.46 116.062 153.766 116.722 154.378C117.394 154.978 117.73 155.896 117.73 157.132V163H116.506ZM113.248 163.09C112.54 163.09 111.922 162.976 111.394 162.748C110.878 162.508 110.482 162.184 110.206 161.776C109.93 161.356 109.792 160.876 109.792 160.336C109.792 159.844 109.906 159.4 110.134 159.004C110.374 158.596 110.758 158.272 111.286 158.032C111.826 157.78 112.546 157.654 113.446 157.654H116.704V158.608H113.482C112.57 158.608 111.934 158.77 111.574 159.094C111.226 159.418 111.052 159.82 111.052 160.3C111.052 160.84 111.262 161.272 111.682 161.596C112.102 161.92 112.69 162.082 113.446 162.082C114.166 162.082 114.784 161.92 115.3 161.596C115.828 161.26 116.212 160.78 116.452 160.156L116.74 161.038C116.5 161.662 116.08 162.16 115.48 162.532C114.892 162.904 114.148 163.09 113.248 163.09ZM126.01 163.09C125.194 163.09 124.456 162.904 123.796 162.532C123.136 162.148 122.608 161.602 122.212 160.894C121.828 160.174 121.636 159.298 121.636 158.266C121.636 157.234 121.828 156.364 122.212 155.656C122.596 154.936 123.118 154.39 123.778 154.018C124.438 153.646 125.182 153.46 126.01 153.46C126.91 153.46 127.714 153.664 128.422 154.072C129.142 154.468 129.706 155.032 130.114 155.764C130.522 156.484 130.726 157.318 130.726 158.266C130.726 159.226 130.522 160.066 130.114 160.786C129.706 161.506 129.142 162.07 128.422 162.478C127.714 162.886 126.91 163.09 126.01 163.09ZM121.132 166.492V153.55H122.356V156.394L122.23 158.284L122.41 160.192V166.492H121.132ZM125.92 161.956C126.592 161.956 127.192 161.806 127.72 161.506C128.248 161.194 128.668 160.762 128.98 160.21C129.292 159.646 129.448 158.998 129.448 158.266C129.448 157.534 129.292 156.892 128.98 156.34C128.668 155.788 128.248 155.356 127.72 155.044C127.192 154.732 126.592 154.576 125.92 154.576C125.248 154.576 124.642 154.732 124.102 155.044C123.574 155.356 123.154 155.788 122.842 156.34C122.542 156.892 122.392 157.534 122.392 158.266C122.392 158.998 122.542 159.646 122.842 160.21C123.154 160.762 123.574 161.194 124.102 161.506C124.642 161.806 125.248 161.956 125.92 161.956ZM137.067 163V162.082L142.305 156.952C142.785 156.484 143.145 156.076 143.385 155.728C143.625 155.368 143.787 155.032 143.871 154.72C143.955 154.408 143.997 154.114 143.997 153.838C143.997 153.106 143.745 152.53 143.241 152.11C142.749 151.69 142.017 151.48 141.045 151.48C140.301 151.48 139.641 151.594 139.065 151.822C138.501 152.05 138.015 152.404 137.607 152.884L136.689 152.092C137.181 151.516 137.811 151.072 138.579 150.76C139.347 150.448 140.205 150.292 141.153 150.292C142.005 150.292 142.743 150.43 143.367 150.706C143.991 150.97 144.471 151.36 144.807 151.876C145.155 152.392 145.329 152.998 145.329 153.694C145.329 154.102 145.269 154.504 145.149 154.9C145.041 155.296 144.837 155.716 144.537 156.16C144.249 156.592 143.823 157.084 143.259 157.636L138.453 162.352L138.093 161.848H145.905V163H137.067Z" fill="#454545"/>
<rect x="24" y="129" width="181" height="56" stroke="#DDDDE6" stroke-width="2"/>
<rect x="205" y="129" width="105" height="56" fill="white"/>
<path d="M247.432 163.144C246.544 163.144 245.68 163.006 244.84 162.73C244.012 162.454 243.334 162.082 242.806 161.614L243.634 160.192C244.054 160.588 244.6 160.912 245.272 161.164C245.944 161.416 246.658 161.542 247.414 161.542C248.374 161.542 249.112 161.338 249.628 160.93C250.144 160.522 250.402 159.976 250.402 159.292C250.402 158.824 250.288 158.416 250.06 158.068C249.832 157.72 249.436 157.456 248.872 157.276C248.32 157.084 247.558 156.988 246.586 156.988H243.724L244.39 150.4H251.5V151.966H245.056L245.992 151.084L245.47 156.286L244.534 155.422H246.964C248.224 155.422 249.238 155.584 250.006 155.908C250.774 156.232 251.332 156.682 251.68 157.258C252.028 157.822 252.202 158.476 252.202 159.22C252.202 159.94 252.028 160.6 251.68 161.2C251.332 161.788 250.804 162.262 250.096 162.622C249.4 162.97 248.512 163.144 247.432 163.144ZM255.824 163V151.12L256.598 151.966H252.98V150.4H257.606V163H255.824ZM265.51 163.144C264.526 163.144 263.644 162.892 262.864 162.388C262.096 161.884 261.484 161.152 261.028 160.192C260.584 159.232 260.362 158.068 260.362 156.7C260.362 155.332 260.584 154.168 261.028 153.208C261.484 152.248 262.096 151.516 262.864 151.012C263.644 150.508 264.526 150.256 265.51 150.256C266.482 150.256 267.358 150.508 268.138 151.012C268.918 151.516 269.53 152.248 269.974 153.208C270.418 154.168 270.64 155.332 270.64 156.7C270.64 158.068 270.418 159.232 269.974 160.192C269.53 161.152 268.918 161.884 268.138 162.388C267.358 162.892 266.482 163.144 265.51 163.144ZM265.51 161.542C266.17 161.542 266.746 161.362 267.238 161.002C267.742 160.642 268.132 160.102 268.408 159.382C268.696 158.662 268.84 157.768 268.84 156.7C268.84 155.632 268.696 154.738 268.408 154.018C268.132 153.298 267.742 152.758 267.238 152.398C266.746 152.038 266.17 151.858 265.51 151.858C264.85 151.858 264.268 152.038 263.764 152.398C263.26 152.758 262.864 153.298 262.576 154.018C262.3 154.738 262.162 155.632 262.162 156.7C262.162 157.768 262.3 158.662 262.576 159.382C262.864 160.102 263.26 160.642 263.764 161.002C264.268 161.362 264.85 161.542 265.51 161.542Z" fill="#454545"/>
<rect x="205" y="129" width="105" height="56" stroke="#DDDDE6" stroke-width="2"/>
<rect x="310" y="129" width="100" height="56" fill="white"/>
<path d="M344.5 147L347.474 152.906L354.011 153.91L349.312 158.564L350.378 165.09L344.5 162.06L338.622 165.09L339.688 158.564L334.989 153.91L341.526 152.906L344.5 147Z" fill="#F28100"/>
<path d="M358.184 159.904V158.644L364.628 150.4H366.572L360.182 158.644L359.264 158.356H369.326V159.904H358.184ZM365.186 163V159.904L365.24 158.356V155.62H366.932V163H365.186ZM371.945 163.108C371.609 163.108 371.321 162.994 371.081 162.766C370.841 162.526 370.721 162.226 370.721 161.866C370.721 161.506 370.841 161.212 371.081 160.984C371.321 160.756 371.609 160.642 371.945 160.642C372.269 160.642 372.545 160.756 372.773 160.984C373.013 161.212 373.133 161.506 373.133 161.866C373.133 162.226 373.013 162.526 372.773 162.766C372.545 162.994 372.269 163.108 371.945 163.108ZM379.916 163.144C378.8 163.144 377.846 162.898 377.054 162.406C376.262 161.914 375.656 161.206 375.236 160.282C374.828 159.346 374.624 158.206 374.624 156.862C374.624 155.434 374.876 154.228 375.38 153.244C375.884 152.26 376.586 151.516 377.486 151.012C378.386 150.508 379.418 150.256 380.582 150.256C381.182 150.256 381.752 150.316 382.292 150.436C382.844 150.556 383.318 150.742 383.714 150.994L383.03 152.398C382.706 152.17 382.334 152.014 381.914 151.93C381.506 151.846 381.074 151.804 380.618 151.804C379.334 151.804 378.314 152.206 377.558 153.01C376.802 153.802 376.424 154.984 376.424 156.556C376.424 156.808 376.436 157.108 376.46 157.456C376.484 157.804 376.544 158.146 376.64 158.482L376.028 157.87C376.208 157.318 376.49 156.856 376.874 156.484C377.27 156.1 377.738 155.818 378.278 155.638C378.83 155.446 379.424 155.35 380.06 155.35C380.9 155.35 381.644 155.506 382.292 155.818C382.94 156.13 383.45 156.574 383.822 157.15C384.194 157.714 384.38 158.386 384.38 159.166C384.38 159.97 384.182 160.672 383.786 161.272C383.39 161.872 382.856 162.334 382.184 162.658C381.512 162.982 380.756 163.144 379.916 163.144ZM379.844 161.686C380.396 161.686 380.876 161.584 381.284 161.38C381.704 161.176 382.034 160.894 382.274 160.534C382.514 160.162 382.634 159.73 382.634 159.238C382.634 158.494 382.376 157.906 381.86 157.474C381.344 157.03 380.642 156.808 379.754 156.808C379.178 156.808 378.674 156.916 378.242 157.132C377.81 157.348 377.468 157.642 377.216 158.014C376.976 158.374 376.856 158.788 376.856 159.256C376.856 159.688 376.97 160.09 377.198 160.462C377.426 160.822 377.762 161.116 378.206 161.344C378.65 161.572 379.196 161.686 379.844 161.686Z" fill="#454545"/>
<rect x="310" y="129" width="100" height="56" stroke="#DDDDE6" stroke-width="2"/>
<rect x="410" y="129" width="181" height="56" fill="white"/>
<g clip-path="url(#clip5_1720_2498)">
<rect x="455.5" y="154.5" width="90" height="5" rx="2.5" fill="#DDDDE6"/>
<rect x="455.375" y="155" width="70" height="5" rx="2.5" fill="#80DA39"/>
</g>
<rect x="410" y="129" width="181" height="56" stroke="#DDDDE6" stroke-width="2"/>
</g>
<rect x="24" y="129" width="567" height="56" stroke="#DDDDE6" stroke-width="2"/>
<g clip-path="url(#clip6_1720_2498)">
<rect x="24" y="185" width="181" height="57" fill="white"/>
<path d="M49.746 219.5L44.904 213.218L45.984 212.57L51.276 219.5H49.746ZM41.124 219.5V206.9H42.42V219.5H41.124ZM42.024 213.722V212.552H45.966V213.722H42.024ZM46.092 213.344L44.868 213.128L49.566 206.9H51.006L46.092 213.344ZM56.7998 219.59C55.8878 219.59 55.0658 219.386 54.3338 218.978C53.6138 218.558 53.0438 217.988 52.6238 217.268C52.2038 216.536 51.9938 215.702 51.9938 214.766C51.9938 213.818 52.2038 212.984 52.6238 212.264C53.0438 211.544 53.6138 210.98 54.3338 210.572C55.0538 210.164 55.8758 209.96 56.7998 209.96C57.7358 209.96 58.5638 210.164 59.2838 210.572C60.0158 210.98 60.5858 211.544 60.9938 212.264C61.4138 212.984 61.6238 213.818 61.6238 214.766C61.6238 215.702 61.4138 216.536 60.9938 217.268C60.5858 217.988 60.0158 218.558 59.2838 218.978C58.5518 219.386 57.7238 219.59 56.7998 219.59ZM56.7998 218.456C57.4838 218.456 58.0898 218.306 58.6178 218.006C59.1458 217.694 59.5598 217.262 59.8598 216.71C60.1718 216.146 60.3278 215.498 60.3278 214.766C60.3278 214.022 60.1718 213.374 59.8598 212.822C59.5598 212.27 59.1458 211.844 58.6178 211.544C58.0898 211.232 57.4898 211.076 56.8178 211.076C56.1458 211.076 55.5458 211.232 55.0178 211.544C54.4898 211.844 54.0698 212.27 53.7578 212.822C53.4458 213.374 53.2898 214.022 53.2898 214.766C53.2898 215.498 53.4458 216.146 53.7578 216.71C54.0698 217.262 54.4898 217.694 55.0178 218.006C55.5458 218.306 56.1398 218.456 56.7998 218.456ZM64.3551 219.5V210.05H65.6331V214.226H71.5911V210.05H72.8691V219.5H71.5911V215.324H65.6331V219.5H64.3551ZM83.4316 219.5L79.5436 214.82L80.6056 214.19L84.9436 219.5H83.4316ZM76.5016 219.5V210.05H77.7796V219.5H76.5016ZM77.3836 215.288V214.19H80.4256V215.288H77.3836ZM80.7136 214.91L79.5256 214.73L83.2876 210.05H84.6736L80.7136 214.91ZM86.5777 223.082C86.1337 223.082 85.7077 223.01 85.2997 222.866C84.9037 222.722 84.5617 222.506 84.2737 222.218L84.8677 221.264C85.1077 221.492 85.3657 221.666 85.6417 221.786C85.9297 221.918 86.2477 221.984 86.5957 221.984C87.0157 221.984 87.3757 221.864 87.6757 221.624C87.9877 221.396 88.2817 220.988 88.5577 220.4L89.1697 219.014L89.3137 218.816L93.2017 210.05H94.4617L89.7277 220.634C89.4637 221.246 89.1697 221.732 88.8457 222.092C88.5337 222.452 88.1917 222.704 87.8197 222.848C87.4477 223.004 87.0337 223.082 86.5777 223.082ZM89.0977 219.77L84.7417 210.05H86.0737L89.9257 218.726L89.0977 219.77ZM101.331 219.59C100.515 219.59 99.7768 219.404 99.1168 219.032C98.4568 218.648 97.9288 218.102 97.5328 217.394C97.1488 216.674 96.9568 215.798 96.9568 214.766C96.9568 213.734 97.1488 212.864 97.5328 212.156C97.9168 211.436 98.4388 210.89 99.0988 210.518C99.7588 210.146 100.503 209.96 101.331 209.96C102.231 209.96 103.035 210.164 103.743 210.572C104.463 210.968 105.027 211.532 105.435 212.264C105.843 212.984 106.047 213.818 106.047 214.766C106.047 215.726 105.843 216.566 105.435 217.286C105.027 218.006 104.463 218.57 103.743 218.978C103.035 219.386 102.231 219.59 101.331 219.59ZM96.4528 222.992V210.05H97.6768V212.894L97.5508 214.784L97.7308 216.692V222.992H96.4528ZM101.241 218.456C101.913 218.456 102.513 218.306 103.041 218.006C103.569 217.694 103.989 217.262 104.301 216.71C104.613 216.146 104.769 215.498 104.769 214.766C104.769 214.034 104.613 213.392 104.301 212.84C103.989 212.288 103.569 211.856 103.041 211.544C102.513 211.232 101.913 211.076 101.241 211.076C100.569 211.076 99.9628 211.232 99.4228 211.544C98.8948 211.856 98.4748 212.288 98.1628 212.84C97.8628 213.392 97.7128 214.034 97.7128 214.766C97.7128 215.498 97.8628 216.146 98.1628 216.71C98.4748 217.262 98.8948 217.694 99.4228 218.006C99.9628 218.306 100.569 218.456 101.241 218.456ZM112.843 219.59C111.859 219.59 110.995 219.386 110.251 218.978C109.507 218.558 108.925 217.988 108.505 217.268C108.085 216.536 107.875 215.702 107.875 214.766C107.875 213.83 108.073 213.002 108.469 212.282C108.877 211.562 109.429 210.998 110.125 210.59C110.833 210.17 111.625 209.96 112.501 209.96C113.389 209.96 114.175 210.164 114.859 210.572C115.555 210.968 116.101 211.532 116.497 212.264C116.893 212.984 117.091 213.818 117.091 214.766C117.091 214.826 117.085 214.892 117.073 214.964C117.073 215.024 117.073 215.09 117.073 215.162H108.847V214.208H116.389L115.885 214.586C115.885 213.902 115.735 213.296 115.435 212.768C115.147 212.228 114.751 211.808 114.247 211.508C113.743 211.208 113.161 211.058 112.501 211.058C111.853 211.058 111.271 211.208 110.755 211.508C110.239 211.808 109.837 212.228 109.549 212.768C109.261 213.308 109.117 213.926 109.117 214.622V214.82C109.117 215.54 109.273 216.176 109.585 216.728C109.909 217.268 110.353 217.694 110.917 218.006C111.493 218.306 112.147 218.456 112.879 218.456C113.455 218.456 113.989 218.354 114.481 218.15C114.985 217.946 115.417 217.634 115.777 217.214L116.497 218.042C116.077 218.546 115.549 218.93 114.913 219.194C114.289 219.458 113.599 219.59 112.843 219.59ZM119.92 219.5V210.05H121.198V214.226H127.156V210.05H128.434V219.5H127.156V215.324H121.198V219.5H119.92ZM133.866 219.5V210.824L134.19 211.166H130.284V210.05H138.726V211.166H134.82L135.144 210.824V219.5H133.866ZM146.599 219.5V207.44L147.175 208.052H143.629V206.9H147.895V219.5H146.599Z" fill="#454545"/>
<rect x="24" y="185" width="181" height="57" stroke="#DDDDE6" stroke-width="2"/>
<rect x="205" y="185" width="105" height="57" fill="white"/>
<path d="M247.716 219.644C246.828 219.644 245.964 219.506 245.124 219.23C244.296 218.954 243.618 218.582 243.09 218.114L243.918 216.692C244.338 217.088 244.884 217.412 245.556 217.664C246.228 217.916 246.948 218.042 247.716 218.042C248.652 218.042 249.378 217.844 249.894 217.448C250.422 217.04 250.686 216.494 250.686 215.81C250.686 215.15 250.434 214.622 249.93 214.226C249.438 213.818 248.652 213.614 247.572 213.614H246.564V212.354L250.308 207.746L250.56 208.466H243.666V206.9H251.982V208.124L248.256 212.714L247.32 212.156H247.914C249.438 212.156 250.578 212.498 251.334 213.182C252.102 213.866 252.486 214.736 252.486 215.792C252.486 216.5 252.312 217.148 251.964 217.736C251.616 218.324 251.088 218.792 250.38 219.14C249.684 219.476 248.796 219.644 247.716 219.644ZM259.457 219.644C258.341 219.644 257.387 219.398 256.595 218.906C255.803 218.414 255.197 217.706 254.777 216.782C254.369 215.846 254.165 214.706 254.165 213.362C254.165 211.934 254.417 210.728 254.921 209.744C255.425 208.76 256.127 208.016 257.027 207.512C257.927 207.008 258.959 206.756 260.123 206.756C260.723 206.756 261.293 206.816 261.833 206.936C262.385 207.056 262.859 207.242 263.255 207.494L262.571 208.898C262.247 208.67 261.875 208.514 261.455 208.43C261.047 208.346 260.615 208.304 260.159 208.304C258.875 208.304 257.855 208.706 257.099 209.51C256.343 210.302 255.965 211.484 255.965 213.056C255.965 213.308 255.977 213.608 256.001 213.956C256.025 214.304 256.085 214.646 256.181 214.982L255.569 214.37C255.749 213.818 256.031 213.356 256.415 212.984C256.811 212.6 257.279 212.318 257.819 212.138C258.371 211.946 258.965 211.85 259.601 211.85C260.441 211.85 261.185 212.006 261.833 212.318C262.481 212.63 262.991 213.074 263.363 213.65C263.735 214.214 263.921 214.886 263.921 215.666C263.921 216.47 263.723 217.172 263.327 217.772C262.931 218.372 262.397 218.834 261.725 219.158C261.053 219.482 260.297 219.644 259.457 219.644ZM259.385 218.186C259.937 218.186 260.417 218.084 260.825 217.88C261.245 217.676 261.575 217.394 261.815 217.034C262.055 216.662 262.175 216.23 262.175 215.738C262.175 214.994 261.917 214.406 261.401 213.974C260.885 213.53 260.183 213.308 259.295 213.308C258.719 213.308 258.215 213.416 257.783 213.632C257.351 213.848 257.009 214.142 256.757 214.514C256.517 214.874 256.397 215.288 256.397 215.756C256.397 216.188 256.511 216.59 256.739 216.962C256.967 217.322 257.303 217.616 257.747 217.844C258.191 218.072 258.737 218.186 259.385 218.186ZM267.398 219.5V207.62L268.172 208.466H264.554V206.9H269.18V219.5H267.398Z" fill="#454545"/>
<rect x="205" y="185" width="105" height="57" stroke="#DDDDE6" stroke-width="2"/>
<rect x="310" y="185" width="100" height="57" fill="white"/>
<path d="M345 203.5L347.974 209.406L354.511 210.41L349.812 215.064L350.878 221.59L345 218.56L339.122 221.59L340.188 215.064L335.489 210.41L342.026 209.406L345 203.5Z" fill="#F28100"/>
<path d="M362.716 219.644C361.828 219.644 360.964 219.506 360.124 219.23C359.296 218.954 358.618 218.582 358.09 218.114L358.918 216.692C359.338 217.088 359.884 217.412 360.556 217.664C361.228 217.916 361.948 218.042 362.716 218.042C363.652 218.042 364.378 217.844 364.894 217.448C365.422 217.04 365.686 216.494 365.686 215.81C365.686 215.15 365.434 214.622 364.93 214.226C364.438 213.818 363.652 213.614 362.572 213.614H361.564V212.354L365.308 207.746L365.56 208.466H358.666V206.9H366.982V208.124L363.256 212.714L362.32 212.156H362.914C364.438 212.156 365.578 212.498 366.334 213.182C367.102 213.866 367.486 214.736 367.486 215.792C367.486 216.5 367.312 217.148 366.964 217.736C366.616 218.324 366.088 218.792 365.38 219.14C364.684 219.476 363.796 219.644 362.716 219.644ZM370.353 219.608C370.017 219.608 369.729 219.494 369.489 219.266C369.249 219.026 369.129 218.726 369.129 218.366C369.129 218.006 369.249 217.712 369.489 217.484C369.729 217.256 370.017 217.142 370.353 217.142C370.677 217.142 370.953 217.256 371.181 217.484C371.421 217.712 371.541 218.006 371.541 218.366C371.541 218.726 371.421 219.026 371.181 219.266C370.953 219.494 370.677 219.608 370.353 219.608ZM372.905 216.404V215.144L379.349 206.9H381.293L374.903 215.144L373.985 214.856H384.047V216.404H372.905ZM379.907 219.5V216.404L379.961 214.856V212.12H381.653V219.5H379.907Z" fill="#454545"/>
<rect x="310" y="185" width="100" height="57" stroke="#DDDDE6" stroke-width="2"/>
<rect x="410" y="185" width="181" height="57" fill="white"/>
<g clip-path="url(#clip7_1720_2498)">
<rect x="455.5" y="211" width="90" height="5" rx="2.5" fill="#DDDDE6"/>
<rect x="455.375" y="212" width="49" height="5" rx="2.5" fill="#F28100"/>
</g>
<rect x="410" y="185" width="181" height="57" stroke="#DDDDE6" stroke-width="2"/>
</g>
<rect x="24" y="185" width="567" height="57" stroke="#DDDDE6" stroke-width="2"/>
<g clip-path="url(#clip8_1720_2498)">
<rect x="24" y="242" width="181" height="56" fill="white"/>
<path d="M49.746 276L44.904 269.718L45.984 269.07L51.276 276H49.746ZM41.124 276V263.4H42.42V276H41.124ZM42.024 270.222V269.052H45.966V270.222H42.024ZM46.092 269.844L44.868 269.628L49.566 263.4H51.006L46.092 269.844ZM56.7998 276.09C55.8878 276.09 55.0658 275.886 54.3338 275.478C53.6138 275.058 53.0438 274.488 52.6238 273.768C52.2038 273.036 51.9938 272.202 51.9938 271.266C51.9938 270.318 52.2038 269.484 52.6238 268.764C53.0438 268.044 53.6138 267.48 54.3338 267.072C55.0538 266.664 55.8758 266.46 56.7998 266.46C57.7358 266.46 58.5638 266.664 59.2838 267.072C60.0158 267.48 60.5858 268.044 60.9938 268.764C61.4138 269.484 61.6238 270.318 61.6238 271.266C61.6238 272.202 61.4138 273.036 60.9938 273.768C60.5858 274.488 60.0158 275.058 59.2838 275.478C58.5518 275.886 57.7238 276.09 56.7998 276.09ZM56.7998 274.956C57.4838 274.956 58.0898 274.806 58.6178 274.506C59.1458 274.194 59.5598 273.762 59.8598 273.21C60.1718 272.646 60.3278 271.998 60.3278 271.266C60.3278 270.522 60.1718 269.874 59.8598 269.322C59.5598 268.77 59.1458 268.344 58.6178 268.044C58.0898 267.732 57.4898 267.576 56.8178 267.576C56.1458 267.576 55.5458 267.732 55.0178 268.044C54.4898 268.344 54.0698 268.77 53.7578 269.322C53.4458 269.874 53.2898 270.522 53.2898 271.266C53.2898 271.998 53.4458 272.646 53.7578 273.21C54.0698 273.762 54.4898 274.194 55.0178 274.506C55.5458 274.806 56.1398 274.956 56.7998 274.956ZM64.3551 276V266.55H65.6331V270.726H71.5911V266.55H72.8691V276H71.5911V271.824H65.6331V276H64.3551ZM83.4316 276L79.5436 271.32L80.6056 270.69L84.9436 276H83.4316ZM76.5016 276V266.55H77.7796V276H76.5016ZM77.3836 271.788V270.69H80.4256V271.788H77.3836ZM80.7136 271.41L79.5256 271.23L83.2876 266.55H84.6736L80.7136 271.41ZM86.5777 279.582C86.1337 279.582 85.7077 279.51 85.2997 279.366C84.9037 279.222 84.5617 279.006 84.2737 278.718L84.8677 277.764C85.1077 277.992 85.3657 278.166 85.6417 278.286C85.9297 278.418 86.2477 278.484 86.5957 278.484C87.0157 278.484 87.3757 278.364 87.6757 278.124C87.9877 277.896 88.2817 277.488 88.5577 276.9L89.1697 275.514L89.3137 275.316L93.2017 266.55H94.4617L89.7277 277.134C89.4637 277.746 89.1697 278.232 88.8457 278.592C88.5337 278.952 88.1917 279.204 87.8197 279.348C87.4477 279.504 87.0337 279.582 86.5777 279.582ZM89.0977 276.27L84.7417 266.55H86.0737L89.9257 275.226L89.0977 276.27ZM101.331 276.09C100.515 276.09 99.7768 275.904 99.1168 275.532C98.4568 275.148 97.9288 274.602 97.5328 273.894C97.1488 273.174 96.9568 272.298 96.9568 271.266C96.9568 270.234 97.1488 269.364 97.5328 268.656C97.9168 267.936 98.4388 267.39 99.0988 267.018C99.7588 266.646 100.503 266.46 101.331 266.46C102.231 266.46 103.035 266.664 103.743 267.072C104.463 267.468 105.027 268.032 105.435 268.764C105.843 269.484 106.047 270.318 106.047 271.266C106.047 272.226 105.843 273.066 105.435 273.786C105.027 274.506 104.463 275.07 103.743 275.478C103.035 275.886 102.231 276.09 101.331 276.09ZM96.4528 279.492V266.55H97.6768V269.394L97.5508 271.284L97.7308 273.192V279.492H96.4528ZM101.241 274.956C101.913 274.956 102.513 274.806 103.041 274.506C103.569 274.194 103.989 273.762 104.301 273.21C104.613 272.646 104.769 271.998 104.769 271.266C104.769 270.534 104.613 269.892 104.301 269.34C103.989 268.788 103.569 268.356 103.041 268.044C102.513 267.732 101.913 267.576 101.241 267.576C100.569 267.576 99.9628 267.732 99.4228 268.044C98.8948 268.356 98.4748 268.788 98.1628 269.34C97.8628 269.892 97.7128 270.534 97.7128 271.266C97.7128 271.998 97.8628 272.646 98.1628 273.21C98.4748 273.762 98.8948 274.194 99.4228 274.506C99.9628 274.806 100.569 274.956 101.241 274.956ZM112.843 276.09C111.859 276.09 110.995 275.886 110.251 275.478C109.507 275.058 108.925 274.488 108.505 273.768C108.085 273.036 107.875 272.202 107.875 271.266C107.875 270.33 108.073 269.502 108.469 268.782C108.877 268.062 109.429 267.498 110.125 267.09C110.833 266.67 111.625 266.46 112.501 266.46C113.389 266.46 114.175 266.664 114.859 267.072C115.555 267.468 116.101 268.032 116.497 268.764C116.893 269.484 117.091 270.318 117.091 271.266C117.091 271.326 117.085 271.392 117.073 271.464C117.073 271.524 117.073 271.59 117.073 271.662H108.847V270.708H116.389L115.885 271.086C115.885 270.402 115.735 269.796 115.435 269.268C115.147 268.728 114.751 268.308 114.247 268.008C113.743 267.708 113.161 267.558 112.501 267.558C111.853 267.558 111.271 267.708 110.755 268.008C110.239 268.308 109.837 268.728 109.549 269.268C109.261 269.808 109.117 270.426 109.117 271.122V271.32C109.117 272.04 109.273 272.676 109.585 273.228C109.909 273.768 110.353 274.194 110.917 274.506C111.493 274.806 112.147 274.956 112.879 274.956C113.455 274.956 113.989 274.854 114.481 274.65C114.985 274.446 115.417 274.134 115.777 273.714L116.497 274.542C116.077 275.046 115.549 275.43 114.913 275.694C114.289 275.958 113.599 276.09 112.843 276.09ZM119.92 276V266.55H121.198V270.726H127.156V266.55H128.434V276H127.156V271.824H121.198V276H119.92ZM133.866 276V267.324L134.19 267.666H130.284V266.55H138.726V267.666H134.82L135.144 267.324V276H133.866ZM144.169 276V275.082L149.407 269.952C149.887 269.484 150.247 269.076 150.487 268.728C150.727 268.368 150.889 268.032 150.973 267.72C151.057 267.408 151.099 267.114 151.099 266.838C151.099 266.106 150.847 265.53 150.343 265.11C149.851 264.69 149.119 264.48 148.147 264.48C147.403 264.48 146.743 264.594 146.167 264.822C145.603 265.05 145.117 265.404 144.709 265.884L143.791 265.092C144.283 264.516 144.913 264.072 145.681 263.76C146.449 263.448 147.307 263.292 148.255 263.292C149.107 263.292 149.845 263.43 150.469 263.706C151.093 263.97 151.573 264.36 151.909 264.876C152.257 265.392 152.431 265.998 152.431 266.694C152.431 267.102 152.371 267.504 152.251 267.9C152.143 268.296 151.939 268.716 151.639 269.16C151.351 269.592 150.925 270.084 150.361 270.636L145.555 275.352L145.195 274.848H153.007V276H144.169Z" fill="#454545"/>
<rect x="24" y="242" width="181" height="56" stroke="#DDDDE6" stroke-width="2"/>
<rect x="205" y="242" width="105" height="56" fill="white"/>
<path d="M241.684 272.904V271.644L248.128 263.4H250.072L243.682 271.644L242.764 271.356H252.826V272.904H241.684ZM248.686 276V272.904L248.74 271.356V268.62H250.432V276H248.686ZM257.546 276.144C256.658 276.144 255.794 276.006 254.954 275.73C254.126 275.454 253.448 275.082 252.92 274.614L253.748 273.192C254.168 273.588 254.714 273.912 255.386 274.164C256.058 274.416 256.778 274.542 257.546 274.542C258.482 274.542 259.208 274.344 259.724 273.948C260.252 273.54 260.516 272.994 260.516 272.31C260.516 271.65 260.264 271.122 259.76 270.726C259.268 270.318 258.482 270.114 257.402 270.114H256.394V268.854L260.138 264.246L260.39 264.966H253.496V263.4H261.812V264.624L258.086 269.214L257.15 268.656H257.744C259.268 268.656 260.408 268.998 261.164 269.682C261.932 270.366 262.316 271.236 262.316 272.292C262.316 273 262.142 273.648 261.794 274.236C261.446 274.824 260.918 275.292 260.21 275.64C259.514 275.976 258.626 276.144 257.546 276.144ZM263.709 276V274.776L268.839 269.826C269.295 269.394 269.631 269.016 269.847 268.692C270.075 268.356 270.225 268.05 270.297 267.774C270.381 267.486 270.423 267.21 270.423 266.946C270.423 266.298 270.195 265.788 269.739 265.416C269.283 265.044 268.617 264.858 267.741 264.858C267.069 264.858 266.463 264.972 265.923 265.2C265.383 265.416 264.915 265.758 264.519 266.226L263.295 265.164C263.775 264.552 264.417 264.084 265.221 263.76C266.037 263.424 266.931 263.256 267.903 263.256C268.779 263.256 269.541 263.4 270.189 263.688C270.837 263.964 271.335 264.366 271.683 264.894C272.043 265.422 272.223 266.046 272.223 266.766C272.223 267.174 272.169 267.576 272.061 267.972C271.953 268.368 271.749 268.788 271.449 269.232C271.149 269.676 270.717 270.174 270.153 270.726L265.581 275.136L265.149 274.434H272.763V276H263.709Z" fill="#454545"/>
<rect x="205" y="242" width="105" height="56" stroke="#DDDDE6" stroke-width="2"/>
<rect x="310" y="242" width="100" height="56" fill="white"/>
<path d="M347.5 260L350.474 265.906L357.011 266.91L352.312 271.564L353.378 278.09L347.5 275.06L341.622 278.09L342.688 271.564L337.989 266.91L344.526 265.906L347.5 260Z" fill="#F28100"/>
<path d="M361.166 276V274.776L366.296 269.826C366.752 269.394 367.088 269.016 367.304 268.692C367.532 268.356 367.682 268.05 367.754 267.774C367.838 267.486 367.88 267.21 367.88 266.946C367.88 266.298 367.652 265.788 367.196 265.416C366.74 265.044 366.074 264.858 365.198 264.858C364.526 264.858 363.92 264.972 363.38 265.2C362.84 265.416 362.372 265.758 361.976 266.226L360.752 265.164C361.232 264.552 361.874 264.084 362.678 263.76C363.494 263.424 364.388 263.256 365.36 263.256C366.236 263.256 366.998 263.4 367.646 263.688C368.294 263.964 368.792 264.366 369.14 264.894C369.5 265.422 369.68 266.046 369.68 266.766C369.68 267.174 369.626 267.576 369.518 267.972C369.41 268.368 369.206 268.788 368.906 269.232C368.606 269.676 368.174 270.174 367.61 270.726L363.038 275.136L362.606 274.434H370.22V276H361.166ZM373.064 276.108C372.728 276.108 372.44 275.994 372.2 275.766C371.96 275.526 371.84 275.226 371.84 274.866C371.84 274.506 371.96 274.212 372.2 273.984C372.44 273.756 372.728 273.642 373.064 273.642C373.388 273.642 373.664 273.756 373.892 273.984C374.132 274.212 374.252 274.506 374.252 274.866C374.252 275.226 374.132 275.526 373.892 275.766C373.664 275.994 373.388 276.108 373.064 276.108ZM377.849 276V264.12L378.623 264.966H375.005V263.4H379.631V276H377.849Z" fill="#454545"/>
<rect x="310" y="242" width="100" height="56" stroke="#DDDDE6" stroke-width="2"/>
<rect x="410" y="242" width="181" height="56" fill="white"/>
<g clip-path="url(#clip9_1720_2498)">
<rect x="455.5" y="267.5" width="90" height="5" rx="2.5" fill="#DDDDE6"/>
<rect x="455.375" y="269" width="15" height="5" rx="2.5" fill="#F82C2C"/>
</g>
<rect x="410" y="242" width="181" height="56" stroke="#DDDDE6" stroke-width="2"/>
</g>
<rect x="24" y="242" width="567" height="56" stroke="#DDDDE6" stroke-width="2"/>
</g>
<rect x="24" y="25" width="567" height="273" rx="15" stroke="#DDDDE6" stroke-width="2"/>
<defs>
<clipPath id="clip0_1720_2498">
<rect x="24" y="25" width="567" height="273" rx="15" fill="white"/>
</clipPath>
<clipPath id="clip1_1720_2498">
<rect width="567" height="48" fill="white" transform="translate(24 25)"/>
</clipPath>
<clipPath id="clip2_1720_2498">
<rect x="24" y="73" width="567" height="56" fill="white"/>
</clipPath>
<clipPath id="clip3_1720_2498">
<rect x="455.5" y="98.5" width="90" height="5" rx="2.5" fill="white"/>
</clipPath>
<clipPath id="clip4_1720_2498">
<rect x="24" y="129" width="567" height="56" fill="white"/>
</clipPath>
<clipPath id="clip5_1720_2498">
<rect x="455.5" y="154.5" width="90" height="5" rx="2.5" fill="white"/>
</clipPath>
<clipPath id="clip6_1720_2498">
<rect x="24" y="185" width="567" height="57" fill="white"/>
</clipPath>
<clipPath id="clip7_1720_2498">
<rect x="455.5" y="211" width="90" height="5" rx="2.5" fill="white"/>
</clipPath>
<clipPath id="clip8_1720_2498">
<rect x="24" y="242" width="567" height="56" fill="white"/>
</clipPath>
<clipPath id="clip9_1720_2498">
<rect x="455.5" y="267.5" width="90" height="5" rx="2.5" fill="white"/>
</clipPath>
</defs>
</svg>
