<svg width="567" height="345" viewBox="0 0 567 345" fill="none" xmlns="http://www.w3.org/2000/svg">
<g clip-path="url(#clip0_1711_135)">
<line x1="2" y1="236.5" x2="567" y2="236.5" stroke="#37376D"/>
<line x1="2" y1="177.5" x2="567" y2="177.5" stroke="#DDDDE6" stroke-dasharray="7 7"/>
<line x1="2" y1="118.5" x2="567" y2="118.5" stroke="#DDDDE6" stroke-dasharray="7 7"/>
<line x1="2" y1="59.5" x2="567" y2="59.5" stroke="#DDDDE6" stroke-dasharray="7 7"/>
<line x1="2" y1="0.5" x2="567" y2="0.5" stroke="#DDDDE6" stroke-dasharray="7 7"/>
<path d="M61.4 329.535L61.4 328.239L74 328.239L74 329.751L64.262 329.751L71.03 334.269L71.03 335.205L64.262 339.723L74 339.723L74 341.235L61.4 341.235L61.4 339.939L69.176 334.737L61.4 329.535ZM72.2 318.367C72.644 318.367 72.866 318.145 72.866 317.701C72.866 317.509 72.824 317.287 72.74 317.035L73.91 317.035C74.042 317.395 74.108 317.755 74.108 318.115C74.108 318.943 73.76 319.471 73.064 319.699C73.832 320.623 74.216 321.745 74.216 323.065C74.216 323.905 73.994 324.625 73.55 325.225C73.094 325.813 72.44 326.107 71.588 326.107C70.568 326.107 69.83 325.729 69.374 324.973C68.906 324.205 68.672 323.281 68.672 322.201C68.672 321.409 68.762 320.611 68.942 319.807L68.636 319.807C67.976 319.807 67.454 320.023 67.07 320.455C66.674 320.887 66.476 321.493 66.476 322.273C66.476 323.365 66.692 324.415 67.124 325.423L65.72 325.423C65.336 324.295 65.144 323.197 65.144 322.129C65.144 320.953 65.462 320.035 66.098 319.375C66.722 318.703 67.628 318.367 68.816 318.367L72.2 318.367ZM71.516 324.631C71.996 324.631 72.362 324.451 72.614 324.091C72.854 323.719 72.974 323.275 72.974 322.759C72.974 321.571 72.554 320.587 71.714 319.807L70.13 319.807C69.962 320.623 69.878 321.355 69.878 322.003C69.878 322.735 70.01 323.359 70.274 323.875C70.526 324.379 70.94 324.631 71.516 324.631ZM74 314.05L74 315.49L65.36 315.49L65.36 309.172L66.692 309.172L66.692 314.05L74 314.05ZM72.2 300.613C72.644 300.613 72.866 300.391 72.866 299.947C72.866 299.755 72.824 299.533 72.74 299.281L73.91 299.281C74.042 299.641 74.108 300.001 74.108 300.361C74.108 301.189 73.76 301.717 73.064 301.945C73.832 302.869 74.216 303.991 74.216 305.311C74.216 306.151 73.994 306.871 73.55 307.471C73.094 308.059 72.44 308.353 71.588 308.353C70.568 308.353 69.83 307.975 69.374 307.219C68.906 306.451 68.672 305.527 68.672 304.447C68.672 303.655 68.762 302.857 68.942 302.053L68.636 302.053C67.976 302.053 67.454 302.269 67.07 302.701C66.674 303.133 66.476 303.739 66.476 304.519C66.476 305.611 66.692 306.661 67.124 307.669L65.72 307.669C65.336 306.541 65.144 305.443 65.144 304.375C65.144 303.199 65.462 302.281 66.098 301.621C66.722 300.949 67.628 300.613 68.816 300.613L72.2 300.613ZM71.516 306.877C71.996 306.877 72.362 306.697 72.614 306.337C72.854 305.965 72.974 305.521 72.974 305.005C72.974 303.817 72.554 302.833 71.714 302.053L70.13 302.053C69.962 302.869 69.878 303.601 69.878 304.249C69.878 304.981 70.01 305.605 70.274 306.121C70.526 306.625 70.94 306.877 71.516 306.877ZM71.678 291.274C72.482 291.274 73.106 291.622 73.55 292.318C73.994 293.002 74.216 293.95 74.216 295.162C74.216 296.374 73.994 297.436 73.55 298.348L72.182 298.348C72.65 297.472 72.884 296.47 72.884 295.342C72.884 293.59 72.428 292.714 71.516 292.714C70.688 292.714 70.274 293.35 70.274 294.622L70.274 296.512L68.942 296.512L68.942 294.622C68.942 293.47 68.57 292.894 67.826 292.894C67.37 292.894 67.028 293.11 66.8 293.542C66.572 293.974 66.458 294.55 66.458 295.27C66.458 296.314 66.686 297.292 67.142 298.204L65.792 298.204C65.348 297.232 65.126 296.2 65.126 295.108C65.126 293.932 65.354 293.032 65.81 292.408C66.254 291.772 66.86 291.454 67.628 291.454C68.144 291.454 68.57 291.598 68.906 291.886C69.242 292.174 69.464 292.564 69.572 293.056C69.704 292.54 69.956 292.114 70.328 291.778C70.7 291.442 71.15 291.274 71.678 291.274ZM74 287.934L74 289.158L65.36 289.158L65.36 287.718L71.678 287.718L65.36 282.426L65.36 281.202L74 281.202L74 282.642L67.682 282.642L74 287.934ZM74 277.101L74 278.541L65.36 278.541L65.36 277.101L69.014 277.101L69.014 272.097L65.36 272.097L65.36 270.657L74 270.657L74 272.097L70.346 272.097L70.346 277.101L74 277.101ZM61.76 260.92L61.76 259.804L72.56 259.804L72.56 257.518L74 257.518L74 263.89L72.56 263.89L72.56 261.316L63.362 261.316L64.334 263.89L62.894 263.89L61.76 260.92Z" fill="#37376D"/>
<path d="M15 200.337L3.84 200.337L3.84 193.083L15 193.083L15 191.571L2.4 191.571L2.4 201.849L15 201.849L15 200.337ZM7.8 187.289L6.36 187.289L6.36 188.585L18.96 188.585L18.96 187.145L13.704 187.145C14.442 186.515 15.216 185.453 15.216 183.797C15.216 181.331 13.272 179.477 10.68 179.477C8.088 179.477 6.144 181.331 6.144 183.797C6.144 185.453 6.918 186.515 7.8 187.289ZM10.68 180.917C12.66 180.917 13.884 182.285 13.884 183.959C13.884 185.507 12.876 186.659 11.76 187.145L9.6 187.145C8.484 186.659 7.476 185.507 7.476 183.959C7.476 182.285 8.7 180.917 10.68 180.917ZM10.68 177.999C13.758 177.999 15.216 175.767 15.216 173.211C15.216 172.077 15 170.943 14.586 170.151L13.182 170.151C13.596 170.889 13.884 171.933 13.884 172.995C13.884 174.741 13.128 176.379 11.31 176.559L11.31 169.683C8.862 169.143 6.144 170.367 6.144 173.697C6.144 175.749 7.656 177.999 10.68 177.999ZM10.05 170.961L10.05 176.559C8.358 176.451 7.476 175.083 7.476 173.607C7.476 171.411 9.132 170.835 10.05 170.961ZM17.34 167.18L15 167.18L15 159.656L17.34 159.656L17.34 158.252L13.704 158.252L13.704 159.512L6.36 159.512L6.36 165.956C9.582 165.92 11.796 166.352 13.704 167.432L13.704 168.584L17.34 168.584L17.34 167.18ZM7.656 164.57L7.656 160.952L13.704 160.952L13.704 165.866C12.048 165.074 10.248 164.642 7.656 164.57ZM10.716 157.099C13.794 157.099 15.216 154.741 15.216 152.473C15.216 151.393 15.018 150.475 14.622 149.665L13.182 149.665C13.614 150.385 13.884 151.339 13.884 152.275C13.884 153.967 12.894 155.659 10.68 155.659C8.412 155.659 7.476 153.913 7.476 152.239C7.476 151.321 7.746 150.403 8.25 149.755L6.846 149.755C6.36 150.493 6.144 151.447 6.144 152.419C6.144 154.669 7.566 157.099 10.716 157.099ZM15 143.958L7.692 143.958L7.692 140.79L6.36 140.79L6.36 148.584L7.692 148.584L7.692 145.398L15 145.398L15 143.958ZM13.2 132.223L9.816 132.223C7.404 132.223 6.144 133.681 6.144 135.985C6.144 137.407 6.486 138.595 6.72 139.279L8.124 139.279C7.8 138.523 7.476 137.461 7.476 136.129C7.476 134.545 8.34 133.663 9.636 133.663L9.942 133.663C9.78 134.383 9.672 135.301 9.672 136.057C9.672 137.911 10.356 139.963 12.588 139.963C14.406 139.963 15.216 138.451 15.216 136.921C15.216 135.517 14.784 134.419 14.064 133.555C14.82 133.303 15.108 132.673 15.108 131.971C15.108 131.611 15.036 131.233 14.91 130.891L13.74 130.891C13.812 131.107 13.866 131.341 13.866 131.557C13.866 131.935 13.722 132.223 13.2 132.223ZM12.516 138.487C11.256 138.487 10.878 137.119 10.878 135.859C10.878 135.157 11.004 134.275 11.13 133.663L12.714 133.663C13.524 134.419 13.974 135.517 13.974 136.615C13.974 137.569 13.524 138.487 12.516 138.487ZM15 124.469C15 122.597 14.028 121.679 12.606 121.679C11.526 121.679 10.842 122.399 10.608 123.101C10.32 122.453 9.6 121.949 8.7 121.949C7.17 121.949 6.36 123.101 6.36 124.613L6.36 129.347L15 129.347L15 124.469ZM11.256 127.907L11.256 124.613C11.256 123.893 11.49 123.119 12.516 123.119C13.47 123.119 13.74 123.767 13.74 124.667L13.74 127.907L11.256 127.907ZM7.62 127.907L7.62 124.757C7.62 124.145 7.872 123.407 8.844 123.407C9.726 123.407 10.014 124.001 10.014 124.757L10.014 127.907L7.62 127.907ZM7.692 116.425L7.692 112.915L15 112.915L15 111.475L6.36 111.475L6.36 117.829C11.004 117.991 13.92 118.495 13.92 120.025C13.92 120.205 13.884 120.403 13.812 120.601L14.946 120.601C15.09 120.223 15.144 119.881 15.144 119.557C15.144 117.325 12.12 116.713 7.692 116.425ZM10.68 109.409C13.758 109.409 15.216 107.177 15.216 104.621C15.216 103.487 15 102.353 14.586 101.561L13.182 101.561C13.596 102.299 13.884 103.343 13.884 104.405C13.884 106.151 13.128 107.789 11.31 107.969L11.31 101.093C8.862 100.553 6.144 101.777 6.144 105.107C6.144 107.159 7.656 109.409 10.68 109.409ZM10.05 102.371L10.05 107.969C8.358 107.861 7.476 106.493 7.476 105.017C7.476 102.821 9.132 102.245 10.05 102.371ZM15 97.5493L11.346 97.5493L11.346 92.5453L15 92.5453L15 91.1053L6.35999 91.1053L6.35999 92.5453L10.014 92.5453L10.014 97.5493L6.36 97.5493L6.36 98.9893L15 98.9893L15 97.5493ZM15 86.6631L15 88.2451L5.3496 88.2451L5.3496 86.6631L15 86.6631ZM2.73925 88.3682C2.38769 88.3682 2.13281 88.2803 1.9746 88.1045C1.8164 87.9229 1.7373 87.7002 1.7373 87.4365C1.7373 87.1904 1.8164 86.9766 1.9746 86.7949C2.13281 86.6074 2.38769 86.5137 2.73925 86.5137C3.08496 86.5137 3.33984 86.6074 3.5039 86.7949C3.66796 86.9766 3.74999 87.1904 3.74999 87.4365C3.74999 87.7002 3.66796 87.9229 3.5039 88.1045C3.33984 88.2803 3.08496 88.3682 2.73925 88.3682ZM10.716 84.3958C13.794 84.3958 15.216 82.0378 15.216 79.7698C15.216 78.6898 15.018 77.7718 14.622 76.9618L13.182 76.9618C13.614 77.6818 13.884 78.6358 13.884 79.5718C13.884 81.2638 12.894 82.9558 10.68 82.9558C8.41199 82.9558 7.47599 81.2098 7.47599 79.5358C7.47599 78.6178 7.74599 77.6998 8.24999 77.0518L6.84599 77.0518C6.35999 77.7898 6.14399 78.7438 6.14399 79.7158C6.14399 81.9658 7.56599 84.3958 10.716 84.3958ZM15 71.2545L7.69199 71.2545L7.69199 68.0865L6.35999 68.0865L6.35999 75.8805L7.69199 75.8805L7.69199 72.6945L15 72.6945L15 71.2545ZM15 62.3482C15 60.2422 13.794 59.0002 12.192 59.0002C10.59 59.0002 9.38399 60.2422 9.38399 62.3482L9.38399 65.0122L6.35999 65.0122L6.35999 66.4522L15 66.4522L15 62.3482ZM10.68 65.0122L10.68 62.5282C10.68 61.2682 11.166 60.4582 12.192 60.4582C13.218 60.4582 13.704 61.2682 13.704 62.5282L13.704 65.0122L10.68 65.0122ZM0.437993 50.6009C2.72399 52.1849 5.80199 53.2109 8.69999 53.2109C11.598 53.2109 14.676 52.1849 16.962 50.6009L16.962 49.1969C14.676 50.7269 11.526 51.5909 8.69999 51.5909C5.87399 51.5909 2.72399 50.7269 0.437993 49.1969L0.437993 50.6009ZM16.08 43.7054L1.31999 36.3434L1.31999 37.7834L16.08 45.1454L16.08 43.7054ZM5.00999 42.3194C3.19199 42.3194 2.18399 43.7054 2.18399 45.2534C2.18399 46.8194 3.19199 48.2234 5.00999 48.2234C6.82799 48.2234 7.83599 46.8194 7.83599 45.2534C7.83599 43.7054 6.82799 42.3194 5.00999 42.3194ZM5.00999 46.8554C4.16399 46.8554 3.44399 46.3154 3.44399 45.2534C3.44399 44.2274 4.16399 43.6874 5.00999 43.6874C5.85599 43.6874 6.57599 44.2274 6.57599 45.2534C6.57599 46.3154 5.85599 46.8554 5.00999 46.8554ZM12.39 33.2834C10.572 33.2834 9.56399 34.6694 9.56399 36.2174C9.56399 37.7834 10.572 39.1874 12.39 39.1874C14.208 39.1874 15.216 37.7834 15.216 36.2174C15.216 34.6694 14.208 33.2834 12.39 33.2834ZM12.39 37.8194C11.544 37.8194 10.824 37.2794 10.824 36.2174C10.824 35.1914 11.544 34.6514 12.39 34.6514C13.236 34.6514 13.956 35.1914 13.956 36.2174C13.956 37.2794 13.236 37.8194 12.39 37.8194ZM0.437992 32.3027C2.72399 30.7727 5.87399 29.9087 8.69999 29.9087C11.526 29.9087 14.676 30.7727 16.962 32.3027L16.962 30.8987C14.676 29.3147 11.598 28.2887 8.69999 28.2887C5.80199 28.2887 2.72399 29.3147 0.437992 30.8987L0.437992 32.3027Z" fill="#37376D"/>
<path d="M127.4 330.335L127.4 329.039L140 329.039L140 330.551L130.262 330.551L137.03 335.069L137.03 336.005L130.262 340.523L140 340.523L140 342.035L127.4 342.035L127.4 340.739L135.176 335.537L127.4 330.335ZM138.2 319.168C138.644 319.168 138.866 318.946 138.866 318.502C138.866 318.31 138.824 318.088 138.74 317.836L139.91 317.836C140.042 318.196 140.108 318.556 140.108 318.916C140.108 319.744 139.76 320.272 139.064 320.5C139.832 321.424 140.216 322.546 140.216 323.866C140.216 324.706 139.994 325.426 139.55 326.026C139.094 326.614 138.44 326.908 137.588 326.908C136.568 326.908 135.83 326.53 135.374 325.774C134.906 325.006 134.672 324.082 134.672 323.002C134.672 322.21 134.762 321.412 134.942 320.608L134.636 320.608C133.976 320.608 133.454 320.824 133.07 321.256C132.674 321.688 132.476 322.294 132.476 323.074C132.476 324.166 132.692 325.216 133.124 326.224L131.72 326.224C131.336 325.096 131.144 323.998 131.144 322.93C131.144 321.754 131.462 320.836 132.098 320.176C132.722 319.504 133.628 319.168 134.816 319.168L138.2 319.168ZM137.516 325.432C137.996 325.432 138.362 325.252 138.614 324.892C138.854 324.52 138.974 324.076 138.974 323.56C138.974 322.372 138.554 321.388 137.714 320.608L136.13 320.608C135.962 321.424 135.878 322.156 135.878 322.804C135.878 323.536 136.01 324.16 136.274 324.676C136.526 325.18 136.94 325.432 137.516 325.432ZM140 314.851L140 316.291L131.36 316.291L131.36 309.973L132.692 309.973L132.692 314.851L140 314.851ZM138.2 301.414C138.644 301.414 138.866 301.192 138.866 300.748C138.866 300.556 138.824 300.334 138.74 300.082L139.91 300.082C140.042 300.442 140.108 300.802 140.108 301.162C140.108 301.99 139.76 302.518 139.064 302.746C139.832 303.67 140.216 304.792 140.216 306.112C140.216 306.952 139.994 307.672 139.55 308.272C139.094 308.86 138.44 309.154 137.588 309.154C136.568 309.154 135.83 308.776 135.374 308.02C134.906 307.252 134.672 306.328 134.672 305.248C134.672 304.456 134.762 303.658 134.942 302.854L134.636 302.854C133.976 302.854 133.454 303.07 133.07 303.502C132.674 303.934 132.476 304.54 132.476 305.32C132.476 306.412 132.692 307.462 133.124 308.47L131.72 308.47C131.336 307.342 131.144 306.244 131.144 305.176C131.144 304 131.462 303.082 132.098 302.422C132.722 301.75 133.628 301.414 134.816 301.414L138.2 301.414ZM137.516 307.678C137.996 307.678 138.362 307.498 138.614 307.138C138.854 306.766 138.974 306.322 138.974 305.806C138.974 304.618 138.554 303.634 137.714 302.854L136.13 302.854C135.962 303.67 135.878 304.402 135.878 305.05C135.878 305.782 136.01 306.406 136.274 306.922C136.526 307.426 136.94 307.678 137.516 307.678ZM137.678 292.075C138.482 292.075 139.106 292.423 139.55 293.119C139.994 293.803 140.216 294.751 140.216 295.963C140.216 297.175 139.994 298.237 139.55 299.149L138.182 299.149C138.65 298.273 138.884 297.271 138.884 296.143C138.884 294.391 138.428 293.515 137.516 293.515C136.688 293.515 136.274 294.151 136.274 295.423L136.274 297.313L134.942 297.313L134.942 295.423C134.942 294.271 134.57 293.695 133.826 293.695C133.37 293.695 133.028 293.911 132.8 294.343C132.572 294.775 132.458 295.351 132.458 296.071C132.458 297.115 132.686 298.093 133.142 299.005L131.792 299.005C131.348 298.033 131.126 297.001 131.126 295.909C131.126 294.733 131.354 293.833 131.81 293.209C132.254 292.573 132.86 292.255 133.628 292.255C134.144 292.255 134.57 292.399 134.906 292.687C135.242 292.975 135.464 293.365 135.572 293.857C135.704 293.341 135.956 292.915 136.328 292.579C136.7 292.243 137.15 292.075 137.678 292.075ZM140 288.735L140 289.959L131.36 289.959L131.36 288.519L137.678 288.519L131.36 283.227L131.36 282.003L140 282.003L140 283.443L133.682 283.443L140 288.735ZM140 277.902L140 279.342L131.36 279.342L131.36 277.902L135.014 277.902L135.014 272.898L131.36 272.898L131.36 271.458L140 271.458L140 272.898L136.346 272.898L136.346 277.902L140 277.902ZM128.732 264.421C127.94 263.281 127.544 261.973 127.544 260.497C127.544 259.225 127.832 258.211 128.408 257.455C128.984 256.699 129.788 256.321 130.82 256.321C131.312 256.321 131.774 256.417 132.206 256.609C132.638 256.789 133.034 257.065 133.394 257.437C133.754 257.797 134.06 258.151 134.312 258.499C134.552 258.835 134.822 259.261 135.122 259.777C135.158 259.837 135.266 260.023 135.446 260.335C135.626 260.635 135.74 260.827 135.788 260.911C135.836 260.983 135.944 261.151 136.112 261.415C136.268 261.667 136.382 261.835 136.454 261.919C136.526 261.991 136.64 262.123 136.796 262.315C136.952 262.495 137.084 262.621 137.192 262.693C137.3 262.753 137.438 262.837 137.606 262.945C137.762 263.041 137.918 263.107 138.074 263.143C138.23 263.179 138.398 263.197 138.578 263.197L138.56 256.231L140 256.231L140 264.853L139.28 264.853C138.608 264.853 138.002 264.745 137.462 264.529C136.91 264.313 136.442 264.007 136.058 263.611C135.662 263.203 135.332 262.801 135.068 262.405C134.792 262.009 134.498 261.547 134.186 261.019C134.126 260.899 134.078 260.809 134.042 260.749C133.406 259.657 132.92 258.943 132.584 258.607C132.056 258.091 131.462 257.833 130.802 257.833C130.202 257.833 129.746 258.079 129.434 258.571C129.11 259.051 128.948 259.735 128.948 260.623C128.948 261.919 129.38 263.185 130.244 264.421L128.732 264.421Z" fill="#37376D"/>
<path d="M194.4 330.45L194.4 329.154L207 329.154L207 330.666L197.262 330.666L204.03 335.184L204.03 336.12L197.262 340.638L207 340.638L207 342.15L194.4 342.15L194.4 340.854L202.176 335.652L194.4 330.45ZM205.2 319.282C205.644 319.282 205.866 319.06 205.866 318.616C205.866 318.424 205.824 318.202 205.74 317.95L206.91 317.95C207.042 318.31 207.108 318.67 207.108 319.03C207.108 319.858 206.76 320.386 206.064 320.614C206.832 321.538 207.216 322.66 207.216 323.98C207.216 324.82 206.994 325.54 206.55 326.14C206.094 326.728 205.44 327.022 204.588 327.022C203.568 327.022 202.83 326.644 202.374 325.888C201.906 325.12 201.672 324.196 201.672 323.116C201.672 322.324 201.762 321.526 201.942 320.722L201.636 320.722C200.976 320.722 200.454 320.938 200.07 321.37C199.674 321.802 199.476 322.408 199.476 323.188C199.476 324.28 199.692 325.33 200.124 326.338L198.72 326.338C198.336 325.21 198.144 324.112 198.144 323.044C198.144 321.868 198.462 320.95 199.098 320.29C199.722 319.618 200.628 319.282 201.816 319.282L205.2 319.282ZM204.516 325.546C204.996 325.546 205.362 325.366 205.614 325.006C205.854 324.634 205.974 324.19 205.974 323.674C205.974 322.486 205.554 321.502 204.714 320.722L203.13 320.722C202.962 321.538 202.878 322.27 202.878 322.918C202.878 323.65 203.01 324.274 203.274 324.79C203.526 325.294 203.94 325.546 204.516 325.546ZM207 314.965L207 316.405L198.36 316.405L198.36 310.087L199.692 310.087L199.692 314.965L207 314.965ZM205.2 301.528C205.644 301.528 205.866 301.306 205.866 300.862C205.866 300.67 205.824 300.448 205.74 300.196L206.91 300.196C207.042 300.556 207.108 300.916 207.108 301.276C207.108 302.104 206.76 302.632 206.064 302.86C206.832 303.784 207.216 304.906 207.216 306.226C207.216 307.066 206.994 307.786 206.55 308.386C206.094 308.974 205.44 309.268 204.588 309.268C203.568 309.268 202.83 308.89 202.374 308.134C201.906 307.366 201.672 306.442 201.672 305.362C201.672 304.57 201.762 303.772 201.942 302.968L201.636 302.968C200.976 302.968 200.454 303.184 200.07 303.616C199.674 304.048 199.476 304.654 199.476 305.434C199.476 306.526 199.692 307.576 200.124 308.584L198.72 308.584C198.336 307.456 198.144 306.358 198.144 305.29C198.144 304.114 198.462 303.196 199.098 302.536C199.722 301.864 200.628 301.528 201.816 301.528L205.2 301.528ZM204.516 307.792C204.996 307.792 205.362 307.612 205.614 307.252C205.854 306.88 205.974 306.436 205.974 305.92C205.974 304.732 205.554 303.748 204.714 302.968L203.13 302.968C202.962 303.784 202.878 304.516 202.878 305.164C202.878 305.896 203.01 306.52 203.274 307.036C203.526 307.54 203.94 307.792 204.516 307.792ZM204.678 292.189C205.482 292.189 206.106 292.537 206.55 293.233C206.994 293.917 207.216 294.865 207.216 296.077C207.216 297.289 206.994 298.351 206.55 299.263L205.182 299.263C205.65 298.387 205.884 297.385 205.884 296.257C205.884 294.505 205.428 293.629 204.516 293.629C203.688 293.629 203.274 294.265 203.274 295.537L203.274 297.427L201.942 297.427L201.942 295.537C201.942 294.385 201.57 293.809 200.826 293.809C200.37 293.809 200.028 294.025 199.8 294.457C199.572 294.889 199.458 295.465 199.458 296.185C199.458 297.229 199.686 298.207 200.142 299.119L198.792 299.119C198.348 298.147 198.126 297.115 198.126 296.023C198.126 294.847 198.354 293.947 198.81 293.323C199.254 292.687 199.86 292.369 200.628 292.369C201.144 292.369 201.57 292.513 201.906 292.801C202.242 293.089 202.464 293.479 202.572 293.971C202.704 293.455 202.956 293.029 203.328 292.693C203.7 292.357 204.15 292.189 204.678 292.189ZM207 288.849L207 290.073L198.36 290.073L198.36 288.633L204.678 288.633L198.36 283.341L198.36 282.117L207 282.117L207 283.557L200.682 283.557L207 288.849ZM207 278.016L207 279.456L198.36 279.456L198.36 278.016L202.014 278.016L202.014 273.012L198.36 273.012L198.36 271.572L207 271.572L207 273.012L203.346 273.012L203.346 278.016L207 278.016ZM197.874 256.579C198.498 256.579 199.062 256.747 199.566 257.083C200.058 257.407 200.394 257.833 200.574 258.361C200.766 257.737 201.12 257.203 201.636 256.759C202.14 256.303 202.818 256.075 203.67 256.075C204.81 256.075 205.686 256.501 206.298 257.353C206.91 258.193 207.216 259.261 207.216 260.557C207.216 262.201 206.946 263.623 206.406 264.823L204.912 264.823C205.512 263.659 205.806 262.279 205.794 260.683C205.794 258.583 205.062 257.533 203.598 257.533C202.134 257.533 201.402 258.529 201.402 260.521L201.402 262.393L199.962 262.393L199.98 260.683C199.98 259.819 199.8 259.165 199.44 258.721C199.068 258.265 198.588 258.037 198 258.037C197.364 258.037 196.866 258.289 196.506 258.793C196.134 259.297 195.948 260.011 195.948 260.935C195.948 262.207 196.26 263.431 196.884 264.607L195.408 264.607C194.832 263.479 194.544 262.189 194.544 260.737C194.544 259.489 194.85 258.487 195.462 257.731C196.074 256.963 196.878 256.579 197.874 256.579Z" fill="#37376D"/>
<path d="M261.4 331.468L261.4 330.172L274 330.172L274 331.684L264.262 331.684L271.03 336.202L271.03 337.138L264.262 341.656L274 341.656L274 343.168L261.4 343.168L261.4 341.872L269.176 336.67L261.4 331.468ZM272.2 320.3C272.644 320.3 272.866 320.078 272.866 319.634C272.866 319.442 272.824 319.22 272.74 318.968L273.91 318.968C274.042 319.328 274.108 319.688 274.108 320.048C274.108 320.876 273.76 321.404 273.064 321.632C273.832 322.556 274.216 323.678 274.216 324.998C274.216 325.838 273.994 326.558 273.55 327.158C273.094 327.746 272.44 328.04 271.588 328.04C270.568 328.04 269.83 327.662 269.374 326.906C268.906 326.138 268.672 325.214 268.672 324.134C268.672 323.342 268.762 322.544 268.942 321.74L268.636 321.74C267.976 321.74 267.454 321.956 267.07 322.388C266.674 322.82 266.476 323.426 266.476 324.206C266.476 325.298 266.692 326.348 267.124 327.356L265.72 327.356C265.336 326.228 265.144 325.13 265.144 324.062C265.144 322.886 265.462 321.968 266.098 321.308C266.722 320.636 267.628 320.3 268.816 320.3L272.2 320.3ZM271.516 326.564C271.996 326.564 272.362 326.384 272.614 326.024C272.854 325.652 272.974 325.208 272.974 324.692C272.974 323.504 272.554 322.52 271.714 321.74L270.13 321.74C269.962 322.556 269.878 323.288 269.878 323.936C269.878 324.668 270.01 325.292 270.274 325.808C270.526 326.312 270.94 326.564 271.516 326.564ZM274 315.984L274 317.424L265.36 317.424L265.36 311.106L266.692 311.106L266.692 315.984L274 315.984ZM272.2 302.546C272.644 302.546 272.866 302.324 272.866 301.88C272.866 301.688 272.824 301.466 272.74 301.214L273.91 301.214C274.042 301.574 274.108 301.934 274.108 302.294C274.108 303.122 273.76 303.65 273.064 303.878C273.832 304.802 274.216 305.924 274.216 307.244C274.216 308.084 273.994 308.804 273.55 309.404C273.094 309.992 272.44 310.286 271.588 310.286C270.568 310.286 269.83 309.908 269.374 309.152C268.906 308.384 268.672 307.46 268.672 306.38C268.672 305.588 268.762 304.79 268.942 303.986L268.636 303.986C267.976 303.986 267.454 304.202 267.07 304.634C266.674 305.066 266.476 305.672 266.476 306.452C266.476 307.544 266.692 308.594 267.124 309.602L265.72 309.602C265.336 308.474 265.144 307.376 265.144 306.308C265.144 305.132 265.462 304.214 266.098 303.554C266.722 302.882 267.628 302.546 268.816 302.546L272.2 302.546ZM271.516 308.81C271.996 308.81 272.362 308.63 272.614 308.27C272.854 307.898 272.974 307.454 272.974 306.938C272.974 305.75 272.554 304.766 271.714 303.986L270.13 303.986C269.962 304.802 269.878 305.534 269.878 306.182C269.878 306.914 270.01 307.538 270.274 308.054C270.526 308.558 270.94 308.81 271.516 308.81ZM271.678 293.208C272.482 293.208 273.106 293.556 273.55 294.252C273.994 294.936 274.216 295.884 274.216 297.096C274.216 298.308 273.994 299.37 273.55 300.282L272.182 300.282C272.65 299.406 272.884 298.404 272.884 297.276C272.884 295.524 272.428 294.648 271.516 294.648C270.688 294.648 270.274 295.284 270.274 296.556L270.274 298.446L268.942 298.446L268.942 296.556C268.942 295.404 268.57 294.828 267.826 294.828C267.37 294.828 267.028 295.044 266.8 295.476C266.572 295.908 266.458 296.484 266.458 297.204C266.458 298.248 266.686 299.226 267.142 300.138L265.792 300.138C265.348 299.166 265.126 298.134 265.126 297.042C265.126 295.866 265.354 294.966 265.81 294.342C266.254 293.706 266.86 293.388 267.628 293.388C268.144 293.388 268.57 293.532 268.906 293.82C269.242 294.108 269.464 294.498 269.572 294.99C269.704 294.474 269.956 294.048 270.328 293.712C270.7 293.376 271.15 293.208 271.678 293.208ZM274 289.868L274 291.092L265.36 291.092L265.36 289.652L271.678 289.652L265.36 284.36L265.36 283.136L274 283.136L274 284.576L267.682 284.576L274 289.868ZM274 279.035L274 280.475L265.36 280.475L265.36 279.035L269.014 279.035L269.014 274.031L265.36 274.031L265.36 272.591L274 272.591L274 274.031L270.346 274.031L270.346 279.035L274 279.035ZM261.76 259.649L261.76 258.011L269.878 258.011L269.878 255.707L271.282 255.707L271.282 258.011L274 258.011L274 259.505L271.282 259.505L271.282 266.327L269.932 266.327L261.76 259.649ZM269.878 259.505L263.794 259.505L269.878 264.473L269.878 259.505Z" fill="#37376D"/>
<path d="M328.4 330.379L328.4 329.083L341 329.083L341 330.595L331.262 330.595L338.03 335.113L338.03 336.049L331.262 340.567L341 340.567L341 342.079L328.4 342.079L328.4 340.783L336.176 335.581L328.4 330.379ZM339.2 319.211C339.644 319.211 339.866 318.989 339.866 318.545C339.866 318.353 339.824 318.131 339.74 317.879L340.91 317.879C341.042 318.239 341.108 318.599 341.108 318.959C341.108 319.787 340.76 320.315 340.064 320.543C340.832 321.467 341.216 322.589 341.216 323.909C341.216 324.749 340.994 325.469 340.55 326.069C340.094 326.657 339.44 326.951 338.588 326.951C337.568 326.951 336.83 326.573 336.374 325.817C335.906 325.049 335.672 324.125 335.672 323.045C335.672 322.253 335.762 321.455 335.942 320.651L335.636 320.651C334.976 320.651 334.454 320.867 334.07 321.299C333.674 321.731 333.476 322.337 333.476 323.117C333.476 324.209 333.692 325.259 334.124 326.267L332.72 326.267C332.336 325.139 332.144 324.041 332.144 322.973C332.144 321.797 332.462 320.879 333.098 320.219C333.722 319.547 334.628 319.211 335.816 319.211L339.2 319.211ZM338.516 325.475C338.996 325.475 339.362 325.295 339.614 324.935C339.854 324.563 339.974 324.119 339.974 323.603C339.974 322.415 339.554 321.431 338.714 320.651L337.13 320.651C336.962 321.467 336.878 322.199 336.878 322.847C336.878 323.579 337.01 324.203 337.274 324.719C337.526 325.223 337.94 325.475 338.516 325.475ZM341 314.895L341 316.335L332.36 316.335L332.36 310.017L333.692 310.017L333.692 314.895L341 314.895ZM339.2 301.458C339.644 301.458 339.866 301.236 339.866 300.792C339.866 300.6 339.824 300.378 339.74 300.126L340.91 300.126C341.042 300.486 341.108 300.846 341.108 301.206C341.108 302.034 340.76 302.562 340.064 302.79C340.832 303.714 341.216 304.836 341.216 306.156C341.216 306.996 340.994 307.716 340.55 308.316C340.094 308.904 339.44 309.198 338.588 309.198C337.568 309.198 336.83 308.82 336.374 308.064C335.906 307.296 335.672 306.372 335.672 305.292C335.672 304.5 335.762 303.702 335.942 302.898L335.636 302.898C334.976 302.898 334.454 303.114 334.07 303.546C333.674 303.978 333.476 304.584 333.476 305.364C333.476 306.456 333.692 307.506 334.124 308.514L332.72 308.514C332.336 307.386 332.144 306.288 332.144 305.22C332.144 304.044 332.462 303.126 333.098 302.466C333.722 301.794 334.628 301.458 335.816 301.458L339.2 301.458ZM338.516 307.722C338.996 307.722 339.362 307.542 339.614 307.182C339.854 306.81 339.974 306.366 339.974 305.85C339.974 304.662 339.554 303.678 338.714 302.898L337.13 302.898C336.962 303.714 336.878 304.446 336.878 305.094C336.878 305.826 337.01 306.45 337.274 306.966C337.526 307.47 337.94 307.722 338.516 307.722ZM338.678 292.119C339.482 292.119 340.106 292.467 340.55 293.163C340.994 293.847 341.216 294.795 341.216 296.007C341.216 297.219 340.994 298.281 340.55 299.193L339.182 299.193C339.65 298.317 339.884 297.315 339.884 296.187C339.884 294.435 339.428 293.559 338.516 293.559C337.688 293.559 337.274 294.195 337.274 295.467L337.274 297.357L335.942 297.357L335.942 295.467C335.942 294.315 335.57 293.739 334.826 293.739C334.37 293.739 334.028 293.955 333.8 294.387C333.572 294.819 333.458 295.395 333.458 296.115C333.458 297.159 333.686 298.137 334.142 299.049L332.792 299.049C332.348 298.077 332.126 297.045 332.126 295.953C332.126 294.777 332.354 293.877 332.81 293.253C333.254 292.617 333.86 292.299 334.628 292.299C335.144 292.299 335.57 292.443 335.906 292.731C336.242 293.019 336.464 293.409 336.572 293.901C336.704 293.385 336.956 292.959 337.328 292.623C337.7 292.287 338.15 292.119 338.678 292.119ZM341 288.779L341 290.003L332.36 290.003L332.36 288.563L338.678 288.563L332.36 283.271L332.36 282.047L341 282.047L341 283.487L334.682 283.487L341 288.779ZM341 277.946L341 279.386L332.36 279.386L332.36 277.946L336.014 277.946L336.014 272.942L332.36 272.942L332.36 271.502L341 271.502L341 272.942L337.346 272.942L337.346 277.946L341 277.946ZM328.76 263.996L328.76 256.652L330.2 256.652L330.2 262.574L333.656 262.79C333.476 262.142 333.386 261.446 333.386 260.702C333.386 260.09 333.458 259.52 333.602 258.992C333.734 258.464 333.95 257.978 334.25 257.534C334.538 257.078 334.946 256.718 335.474 256.454C335.99 256.19 336.602 256.058 337.31 256.058C338.522 256.058 339.476 256.508 340.172 257.408C340.868 258.296 341.216 259.43 341.216 260.81C341.216 262.298 340.94 263.606 340.388 264.734L338.948 264.734C339.524 263.654 339.812 262.406 339.812 260.99C339.812 259.958 339.596 259.136 339.164 258.524C338.732 257.9 338.114 257.588 337.31 257.588C335.606 257.588 334.754 258.8 334.754 261.224C334.754 262.28 334.946 263.336 335.33 264.392L328.76 263.996Z" fill="#37376D"/>
<path d="M395.4 331.257L395.4 329.961L408 329.961L408 331.473L398.262 331.473L405.03 335.991L405.03 336.927L398.262 341.445L408 341.445L408 342.957L395.4 342.957L395.4 341.661L403.176 336.459L395.4 331.257ZM406.2 320.089C406.644 320.089 406.866 319.867 406.866 319.423C406.866 319.231 406.824 319.009 406.74 318.757L407.91 318.757C408.042 319.117 408.108 319.477 408.108 319.837C408.108 320.665 407.76 321.193 407.064 321.421C407.832 322.345 408.216 323.467 408.216 324.787C408.216 325.627 407.994 326.347 407.55 326.947C407.094 327.535 406.44 327.829 405.588 327.829C404.568 327.829 403.83 327.451 403.374 326.695C402.906 325.927 402.672 325.003 402.672 323.923C402.672 323.131 402.762 322.333 402.942 321.529L402.636 321.529C401.976 321.529 401.454 321.745 401.07 322.177C400.674 322.609 400.476 323.215 400.476 323.995C400.476 325.087 400.692 326.137 401.124 327.145L399.72 327.145C399.336 326.017 399.144 324.919 399.144 323.851C399.144 322.675 399.462 321.757 400.098 321.097C400.722 320.425 401.628 320.089 402.816 320.089L406.2 320.089ZM405.516 326.353C405.996 326.353 406.362 326.173 406.614 325.813C406.854 325.441 406.974 324.997 406.974 324.481C406.974 323.293 406.554 322.309 405.714 321.529L404.13 321.529C403.962 322.345 403.878 323.077 403.878 323.725C403.878 324.457 404.01 325.081 404.274 325.597C404.526 326.101 404.94 326.353 405.516 326.353ZM408 315.773L408 317.213L399.36 317.213L399.36 310.895L400.692 310.895L400.692 315.773L408 315.773ZM406.2 302.335C406.644 302.335 406.866 302.113 406.866 301.669C406.866 301.477 406.824 301.255 406.74 301.003L407.91 301.003C408.042 301.363 408.108 301.723 408.108 302.083C408.108 302.911 407.76 303.439 407.064 303.667C407.832 304.591 408.216 305.713 408.216 307.033C408.216 307.873 407.994 308.593 407.55 309.193C407.094 309.781 406.44 310.075 405.588 310.075C404.568 310.075 403.83 309.697 403.374 308.941C402.906 308.173 402.672 307.249 402.672 306.169C402.672 305.377 402.762 304.579 402.942 303.775L402.636 303.775C401.976 303.775 401.454 303.991 401.07 304.423C400.674 304.855 400.476 305.461 400.476 306.241C400.476 307.333 400.692 308.383 401.124 309.391L399.72 309.391C399.336 308.263 399.144 307.165 399.144 306.097C399.144 304.921 399.462 304.003 400.098 303.343C400.722 302.671 401.628 302.335 402.816 302.335L406.2 302.335ZM405.516 308.599C405.996 308.599 406.362 308.419 406.614 308.059C406.854 307.687 406.974 307.243 406.974 306.727C406.974 305.539 406.554 304.555 405.714 303.775L404.13 303.775C403.962 304.591 403.878 305.323 403.878 305.971C403.878 306.703 404.01 307.327 404.274 307.843C404.526 308.347 404.94 308.599 405.516 308.599ZM405.678 292.997C406.482 292.997 407.106 293.345 407.55 294.041C407.994 294.725 408.216 295.673 408.216 296.885C408.216 298.097 407.994 299.159 407.55 300.071L406.182 300.071C406.65 299.195 406.884 298.193 406.884 297.065C406.884 295.313 406.428 294.437 405.516 294.437C404.688 294.437 404.274 295.073 404.274 296.345L404.274 298.235L402.942 298.235L402.942 296.345C402.942 295.193 402.57 294.617 401.826 294.617C401.37 294.617 401.028 294.833 400.8 295.265C400.572 295.697 400.458 296.273 400.458 296.993C400.458 298.037 400.686 299.015 401.142 299.927L399.792 299.927C399.348 298.955 399.126 297.923 399.126 296.831C399.126 295.655 399.354 294.755 399.81 294.131C400.254 293.495 400.86 293.177 401.628 293.177C402.144 293.177 402.57 293.321 402.906 293.609C403.242 293.897 403.464 294.287 403.572 294.779C403.704 294.263 403.956 293.837 404.328 293.501C404.7 293.165 405.15 292.997 405.678 292.997ZM408 289.657L408 290.881L399.36 290.881L399.36 289.441L405.678 289.441L399.36 284.149L399.36 282.925L408 282.925L408 284.365L401.682 284.365L408 289.657ZM408 278.824L408 280.264L399.36 280.264L399.36 278.824L403.014 278.824L403.014 273.82L399.36 273.82L399.36 272.38L408 272.38L408 273.82L404.346 273.82L404.346 278.824L408 278.824ZM401.538 264.1C400.758 262.936 400.368 261.658 400.368 260.266C400.368 259.15 400.71 258.172 401.394 257.332C402.066 256.492 403.002 256.072 404.202 256.072C405.462 256.072 406.446 256.492 407.154 257.332C407.862 258.16 408.216 259.204 408.216 260.464C408.216 262.192 407.682 263.488 406.614 264.352C405.534 265.204 404.022 265.63 402.078 265.63C399.918 265.63 398.292 265.12 397.2 264.1C396.096 263.068 395.544 261.724 395.544 260.068C395.544 259 395.778 258.01 396.246 257.098L397.686 257.098C397.218 257.986 396.984 258.964 396.984 260.032C396.984 261.16 397.35 262.102 398.082 262.858C398.802 263.602 399.954 264.016 401.538 264.1ZM403.05 264.082C405.558 263.854 406.812 262.684 406.812 260.572C406.812 259.684 406.608 258.97 406.2 258.43C405.792 257.878 405.15 257.602 404.274 257.602C403.386 257.602 402.75 257.884 402.366 258.448C401.97 259.012 401.772 259.744 401.772 260.644C401.772 261.976 402.198 263.122 403.05 264.082Z" fill="#37376D"/>
<path d="M462.4 330.51L462.4 329.214L475 329.214L475 330.726L465.262 330.726L472.03 335.244L472.03 336.18L465.262 340.698L475 340.698L475 342.21L462.4 342.21L462.4 340.914L470.176 335.712L462.4 330.51ZM473.2 319.342C473.644 319.342 473.866 319.12 473.866 318.676C473.866 318.484 473.824 318.262 473.74 318.01L474.91 318.01C475.042 318.37 475.108 318.73 475.108 319.09C475.108 319.918 474.76 320.446 474.064 320.674C474.832 321.598 475.216 322.72 475.216 324.04C475.216 324.88 474.994 325.6 474.55 326.2C474.094 326.788 473.44 327.082 472.588 327.082C471.568 327.082 470.83 326.704 470.374 325.948C469.906 325.18 469.672 324.256 469.672 323.176C469.672 322.384 469.762 321.586 469.942 320.782L469.636 320.782C468.976 320.782 468.454 320.998 468.07 321.43C467.674 321.862 467.476 322.468 467.476 323.248C467.476 324.34 467.692 325.39 468.124 326.398L466.72 326.398C466.336 325.27 466.144 324.172 466.144 323.104C466.144 321.928 466.462 321.01 467.098 320.35C467.722 319.678 468.628 319.342 469.816 319.342L473.2 319.342ZM472.516 325.606C472.996 325.606 473.362 325.426 473.614 325.066C473.854 324.694 473.974 324.25 473.974 323.734C473.974 322.546 473.554 321.562 472.714 320.782L471.13 320.782C470.962 321.598 470.878 322.33 470.878 322.978C470.878 323.71 471.01 324.334 471.274 324.85C471.526 325.354 471.94 325.606 472.516 325.606ZM475 315.026L475 316.466L466.36 316.466L466.36 310.148L467.692 310.148L467.692 315.026L475 315.026ZM473.2 301.588C473.644 301.588 473.866 301.366 473.866 300.922C473.866 300.73 473.824 300.508 473.74 300.256L474.91 300.256C475.042 300.616 475.108 300.976 475.108 301.336C475.108 302.164 474.76 302.692 474.064 302.92C474.832 303.844 475.216 304.966 475.216 306.286C475.216 307.126 474.994 307.846 474.55 308.446C474.094 309.034 473.44 309.328 472.588 309.328C471.568 309.328 470.83 308.95 470.374 308.194C469.906 307.426 469.672 306.502 469.672 305.422C469.672 304.63 469.762 303.832 469.942 303.028L469.636 303.028C468.976 303.028 468.454 303.244 468.07 303.676C467.674 304.108 467.476 304.714 467.476 305.494C467.476 306.586 467.692 307.636 468.124 308.644L466.72 308.644C466.336 307.516 466.144 306.418 466.144 305.35C466.144 304.174 466.462 303.256 467.098 302.596C467.722 301.924 468.628 301.588 469.816 301.588L473.2 301.588ZM472.516 307.852C472.996 307.852 473.362 307.672 473.614 307.312C473.854 306.94 473.974 306.496 473.974 305.98C473.974 304.792 473.554 303.808 472.714 303.028L471.13 303.028C470.962 303.844 470.878 304.576 470.878 305.224C470.878 305.956 471.01 306.58 471.274 307.096C471.526 307.6 471.94 307.852 472.516 307.852ZM472.678 292.25C473.482 292.25 474.106 292.598 474.55 293.294C474.994 293.978 475.216 294.926 475.216 296.138C475.216 297.35 474.994 298.412 474.55 299.324L473.182 299.324C473.65 298.448 473.884 297.446 473.884 296.318C473.884 294.566 473.428 293.69 472.516 293.69C471.688 293.69 471.274 294.326 471.274 295.598L471.274 297.488L469.942 297.488L469.942 295.598C469.942 294.446 469.57 293.87 468.826 293.87C468.37 293.87 468.028 294.086 467.8 294.518C467.572 294.95 467.458 295.526 467.458 296.246C467.458 297.29 467.686 298.268 468.142 299.18L466.792 299.18C466.348 298.208 466.126 297.176 466.126 296.084C466.126 294.908 466.354 294.008 466.81 293.384C467.254 292.748 467.86 292.43 468.628 292.43C469.144 292.43 469.57 292.574 469.906 292.862C470.242 293.15 470.464 293.54 470.572 294.032C470.704 293.516 470.956 293.09 471.328 292.754C471.7 292.418 472.15 292.25 472.678 292.25ZM475 288.91L475 290.134L466.36 290.134L466.36 288.694L472.678 288.694L466.36 283.402L466.36 282.178L475 282.178L475 283.618L468.682 283.618L475 288.91ZM475 278.077L475 279.517L466.36 279.517L466.36 278.077L470.014 278.077L470.014 273.073L466.36 273.073L466.36 271.633L475 271.633L475 273.073L471.346 273.073L471.346 278.077L475 278.077ZM462.76 265.333L462.76 256.513L464.128 256.513L475 261.625L475 263.245L464.2 258.169L464.2 265.333L462.76 265.333Z" fill="#37376D"/>
<path d="M529.4 331.495L529.4 330.199L542 330.199L542 331.711L532.262 331.711L539.03 336.229L539.03 337.165L532.262 341.683L542 341.683L542 343.195L529.4 343.195L529.4 341.899L537.176 336.697L529.4 331.495ZM540.2 320.327C540.644 320.327 540.866 320.105 540.866 319.661C540.866 319.469 540.824 319.247 540.74 318.995L541.91 318.995C542.042 319.355 542.108 319.715 542.108 320.075C542.108 320.903 541.76 321.431 541.064 321.659C541.832 322.583 542.216 323.705 542.216 325.025C542.216 325.865 541.994 326.585 541.55 327.185C541.094 327.773 540.44 328.067 539.588 328.067C538.568 328.067 537.83 327.689 537.374 326.933C536.906 326.165 536.672 325.241 536.672 324.161C536.672 323.369 536.762 322.571 536.942 321.767L536.636 321.767C535.976 321.767 535.454 321.983 535.07 322.415C534.674 322.847 534.476 323.453 534.476 324.233C534.476 325.325 534.692 326.375 535.124 327.383L533.72 327.383C533.336 326.255 533.144 325.157 533.144 324.089C533.144 322.913 533.462 321.995 534.098 321.335C534.722 320.663 535.628 320.327 536.816 320.327L540.2 320.327ZM539.516 326.591C539.996 326.591 540.362 326.411 540.614 326.051C540.854 325.679 540.974 325.235 540.974 324.719C540.974 323.531 540.554 322.547 539.714 321.767L538.13 321.767C537.962 322.583 537.878 323.315 537.878 323.963C537.878 324.695 538.01 325.319 538.274 325.835C538.526 326.339 538.94 326.591 539.516 326.591ZM542 316.01L542 317.45L533.36 317.45L533.36 311.132L534.692 311.132L534.692 316.01L542 316.01ZM540.2 302.573C540.644 302.573 540.866 302.351 540.866 301.907C540.866 301.715 540.824 301.493 540.74 301.241L541.91 301.241C542.042 301.601 542.108 301.961 542.108 302.321C542.108 303.149 541.76 303.677 541.064 303.905C541.832 304.829 542.216 305.951 542.216 307.271C542.216 308.111 541.994 308.831 541.55 309.431C541.094 310.019 540.44 310.313 539.588 310.313C538.568 310.313 537.83 309.935 537.374 309.179C536.906 308.411 536.672 307.487 536.672 306.407C536.672 305.615 536.762 304.817 536.942 304.013L536.636 304.013C535.976 304.013 535.454 304.229 535.07 304.661C534.674 305.093 534.476 305.699 534.476 306.479C534.476 307.571 534.692 308.621 535.124 309.629L533.72 309.629C533.336 308.501 533.144 307.403 533.144 306.335C533.144 305.159 533.462 304.241 534.098 303.581C534.722 302.909 535.628 302.573 536.816 302.573L540.2 302.573ZM539.516 308.837C539.996 308.837 540.362 308.657 540.614 308.297C540.854 307.925 540.974 307.481 540.974 306.965C540.974 305.777 540.554 304.793 539.714 304.013L538.13 304.013C537.962 304.829 537.878 305.561 537.878 306.209C537.878 306.941 538.01 307.565 538.274 308.081C538.526 308.585 538.94 308.837 539.516 308.837ZM539.678 293.234C540.482 293.234 541.106 293.582 541.55 294.278C541.994 294.962 542.216 295.91 542.216 297.122C542.216 298.334 541.994 299.396 541.55 300.308L540.182 300.308C540.65 299.432 540.884 298.43 540.884 297.302C540.884 295.55 540.428 294.674 539.516 294.674C538.688 294.674 538.274 295.31 538.274 296.582L538.274 298.472L536.942 298.472L536.942 296.582C536.942 295.43 536.57 294.854 535.826 294.854C535.37 294.854 535.028 295.07 534.8 295.502C534.572 295.934 534.458 296.51 534.458 297.23C534.458 298.274 534.686 299.252 535.142 300.164L533.792 300.164C533.348 299.192 533.126 298.16 533.126 297.068C533.126 295.892 533.354 294.992 533.81 294.368C534.254 293.732 534.86 293.414 535.628 293.414C536.144 293.414 536.57 293.558 536.906 293.846C537.242 294.134 537.464 294.524 537.572 295.016C537.704 294.5 537.956 294.074 538.328 293.738C538.7 293.402 539.15 293.234 539.678 293.234ZM542 289.894L542 291.118L533.36 291.118L533.36 289.678L539.678 289.678L533.36 284.386L533.36 283.162L542 283.162L542 284.602L535.682 284.602L542 289.894ZM542 279.061L542 280.501L533.36 280.501L533.36 279.061L537.014 279.061L537.014 274.057L533.36 274.057L533.36 272.617L542 272.617L542 274.057L538.346 274.057L538.346 279.061L542 279.061ZM532.712 265.49C531.848 265.49 531.104 265.112 530.48 264.356C529.856 263.6 529.544 262.49 529.544 261.026C529.544 259.67 529.874 258.578 530.534 257.75C531.194 256.922 531.986 256.496 532.91 256.472C534.17 256.436 535.202 256.994 536.006 258.146C536.702 256.742 537.662 256.04 538.886 256.04C539.822 256.04 540.614 256.454 541.262 257.282C541.898 258.098 542.216 259.31 542.216 260.918C542.216 262.514 541.868 263.75 541.172 264.626C540.476 265.49 539.63 265.922 538.634 265.922C538.034 265.922 537.44 265.748 536.852 265.4C536.252 265.04 535.748 264.518 535.34 263.834C534.668 264.938 533.792 265.49 532.712 265.49ZM536.492 260.846C536.324 261.47 536.144 262.04 535.952 262.556C536.24 263.156 536.612 263.618 537.068 263.942C537.524 264.254 537.992 264.41 538.472 264.41C539.204 264.41 539.78 264.11 540.2 263.51C540.608 262.898 540.812 262.022 540.812 260.882C540.812 259.922 540.644 259.13 540.308 258.506C539.96 257.87 539.51 257.552 538.958 257.552C538.49 257.552 538.094 257.72 537.77 258.056C537.434 258.38 537.206 258.698 537.086 259.01C536.966 259.322 536.798 259.838 536.582 260.558C536.546 260.69 536.516 260.786 536.492 260.846ZM533.18 257.984C532.544 257.984 532.016 258.254 531.596 258.794C531.164 259.334 530.948 260.09 530.948 261.062C530.948 261.95 531.116 262.658 531.452 263.186C531.776 263.714 532.19 263.978 532.694 263.978C533.042 263.978 533.348 263.906 533.612 263.762C533.864 263.606 534.08 263.378 534.26 263.078C534.428 262.766 534.566 262.484 534.674 262.232C534.77 261.98 534.878 261.644 534.998 261.224C535.01 261.176 535.022 261.14 535.034 261.116C535.034 261.092 535.04 261.062 535.052 261.026C535.064 260.99 535.076 260.954 535.088 260.918C535.1 260.882 535.16 260.678 535.268 260.306C535.364 259.922 535.442 259.628 535.502 259.424C534.878 258.464 534.104 257.984 533.18 257.984Z" fill="#37376D"/>
<path d="M50 132C50 130.895 50.8954 130 52 130H85C86.1046 130 87 130.895 87 132V234C87 235.105 86.1046 236 85 236H52C50.8954 236 50 235.105 50 234V132Z" fill="#0FA7F0"/>
<path d="M117 132C117 130.895 117.895 130 119 130H152C153.105 130 154 130.895 154 132V234C154 235.105 153.105 236 152 236H119C117.895 236 117 235.105 117 234V132Z" fill="#0FA7F0"/>
<path d="M184 112C184 110.895 184.895 110 186 110H219C220.105 110 221 110.895 221 112V234C221 235.105 220.105 236 219 236H186C184.895 236 184 235.105 184 234V112Z" fill="#0FA7F0"/>
<path d="M251 132C251 130.895 251.895 130 253 130H286C287.105 130 288 130.895 288 132V234C288 235.105 287.105 236 286 236H253C251.895 236 251 235.105 251 234V132Z" fill="#0FA7F0"/>
<path d="M318 62C318 60.8954 318.895 60 320 60H336.5H353C354.105 60 355 60.8954 355 62V234C355 235.105 354.105 236 353 236H320C318.895 236 318 235.105 318 234V62Z" fill="#0FA7F0"/>
<path d="M385 112C385 110.895 385.895 110 387 110H420C421.105 110 422 110.895 422 112V234C422 235.105 421.105 236 420 236H387C385.895 236 385 235.105 385 234V112Z" fill="#0FA7F0"/>
<path d="M452 182C452 180.895 452.895 180 454 180H487C488.105 180 489 180.895 489 182V234C489 235.105 488.105 236 487 236H454C452.895 236 452 235.105 452 234V182Z" fill="#0FA7F0"/>
<path d="M519 132C519 130.895 519.895 130 521 130H554C555.105 130 556 130.895 556 132V234C556 235.105 555.105 236 554 236H521C519.895 236 519 235.105 519 234V132Z" fill="#0FA7F0"/>
<path d="M50 32C50 30.8954 50.8954 30 52 30H85C86.1046 30 87 30.8954 87 32V125C87 126.105 86.1046 127 85 127H52C50.8954 127 50 126.105 50 125V32Z" fill="#FFEEA2"/>
<path d="M117 77C117 75.8954 117.895 75 119 75H152C153.105 75 154 75.8954 154 77V125C154 126.105 153.105 127 152 127H119C117.895 127 117 126.105 117 125V77Z" fill="#FFEEA2"/>
<path d="M184 97C184 95.8954 184.895 95 186 95H219C220.105 95 221 95.8954 221 97V105C221 106.105 220.105 107 219 107H186C184.895 107 184 106.105 184 105V97Z" fill="#FFEEA2"/>
<path d="M251 47C251 45.8954 251.895 45 253 45H286C287.105 45 288 45.8954 288 47V125C288 126.105 287.105 127 286 127H253C251.895 127 251 126.105 251 125V47Z" fill="#FFEEA2"/>
<path d="M318 27C318 25.8954 318.895 25 320 25H353C354.105 25 355 25.8954 355 27V55C355 56.1046 354.105 57 353 57H320C318.895 57 318 56.1046 318 55V27Z" fill="#FFEEA2"/>
<path d="M385 77C385 75.8954 385.895 75 387 75H420C421.105 75 422 75.8954 422 77V105C422 106.105 421.105 107 420 107H387C385.895 107 385 106.105 385 105V77Z" fill="#FFEEA2"/>
<path d="M452 97C452 95.8954 452.895 95 454 95H487C488.105 95 489 95.8954 489 97V175C489 176.105 488.105 177 487 177H454C452.895 177 452 176.105 452 175V97Z" fill="#FFEEA2"/>
<path d="M519 67C519 65.8954 519.895 65 521 65H554C555.105 65 556 65.8954 556 67V125C556 126.105 555.105 127 554 127H521C519.895 127 519 126.105 519 125V67Z" fill="#FFEEA2"/>
<path d="M50 2C50 0.895431 50.8954 0 52 0H85C86.1046 0 87 0.895431 87 2V25C87 26.1046 86.1046 27 85 27H52C50.8954 27 50 26.1046 50 25V2Z" fill="#F28100"/>
<path d="M117 2C117 0.895431 117.895 0 119 0H152C153.105 0 154 0.895431 154 2V70C154 71.1046 153.105 72 152 72H119C117.895 72 117 71.1046 117 70V2Z" fill="#F28100"/>
<path d="M184 2C184 0.89543 184.895 0 186 0H219C220.105 0 221 0.895431 221 2V90C221 91.1046 220.105 92 219 92H186C184.895 92 184 91.1046 184 90V2Z" fill="#F28100"/>
<path d="M251 2C251 0.89543 251.895 0 253 0H286C287.105 0 288 0.895431 288 2V40C288 41.1046 287.105 42 286 42H253C251.895 42 251 41.1046 251 40V2Z" fill="#F28100"/>
<path d="M318 2C318 0.89543 318.895 0 320 0H353C354.105 0 355 0.895431 355 2V20C355 21.1046 354.105 22 353 22H320C318.895 22 318 21.1046 318 20V2Z" fill="#F28100"/>
<path d="M385 2C385 0.895431 385.895 0 387 0H420C421.105 0 422 0.895431 422 2V70C422 71.1046 421.105 72 420 72H387C385.895 72 385 71.1046 385 70V2Z" fill="#F28100"/>
<path d="M452 2C452 0.89543 452.895 0 454 0H487C488.105 0 489 0.895431 489 2V90C489 91.1046 488.105 92 487 92H454C452.895 92 452 91.1046 452 90V2Z" fill="#F28100"/>
<path d="M519 2C519 0.895432 519.895 0 521 0H554C555.105 0 556 0.89543 556 2V60C556 61.1046 555.105 62 554 62H521C519.895 62 519 61.1046 519 60V2Z" fill="#F28100"/>
<line x1="35.5" y1="237" x2="35.5" y2="257" stroke="#37376D"/>
<line x1="235.5" y1="237" x2="235.5" y2="257" stroke="#37376D"/>
<line x1="436.5" y1="237" x2="436.5" y2="257" stroke="#37376D"/>
<line x1="102.5" y1="237" x2="102.5" y2="257" stroke="#37376D"/>
<line x1="302.5" y1="237" x2="302.5" y2="257" stroke="#37376D"/>
<line x1="503.5" y1="237" x2="503.5" y2="257" stroke="#37376D"/>
<line x1="169.5" y1="237" x2="169.5" y2="257" stroke="#37376D"/>
<line x1="369.5" y1="237" x2="369.5" y2="257" stroke="#37376D"/>
</g>
<defs>
<clipPath id="clip0_1711_135">
<rect width="567" height="345" fill="white"/>
</clipPath>
</defs>
</svg>
