<svg width="200" height="200" viewBox="0 0 200 200" fill="none" xmlns="http://www.w3.org/2000/svg">
<rect width="200" height="200" rx="15" fill="white"/>
<path d="M21.298 147V139.3H27.777V147H26.974V139.784L27.183 140.004H21.892L22.101 139.784V147H21.298ZM33.1691 147.055C32.6705 147.055 32.2195 146.941 31.8161 146.714C31.4128 146.479 31.0901 146.146 30.8481 145.713C30.6135 145.273 30.4961 144.738 30.4961 144.107C30.4961 143.476 30.6135 142.945 30.8481 142.512C31.0828 142.072 31.4018 141.738 31.8051 141.511C32.2085 141.284 32.6631 141.17 33.1691 141.17C33.7191 141.17 34.2105 141.295 34.6431 141.544C35.0831 141.786 35.4278 142.131 35.6771 142.578C35.9265 143.018 36.0511 143.528 36.0511 144.107C36.0511 144.694 35.9265 145.207 35.6771 145.647C35.4278 146.087 35.0831 146.432 34.6431 146.681C34.2105 146.93 33.7191 147.055 33.1691 147.055ZM30.1881 149.134V141.225H30.9361V142.963L30.8591 144.118L30.9691 145.284V149.134H30.1881ZM33.1141 146.362C33.5248 146.362 33.8915 146.27 34.2141 146.087C34.5368 145.896 34.7935 145.632 34.9841 145.295C35.1748 144.95 35.2701 144.554 35.2701 144.107C35.2701 143.66 35.1748 143.267 34.9841 142.93C34.7935 142.593 34.5368 142.329 34.2141 142.138C33.8915 141.947 33.5248 141.852 33.1141 141.852C32.7035 141.852 32.3331 141.947 32.0031 142.138C31.6805 142.329 31.4238 142.593 31.2331 142.93C31.0498 143.267 30.9581 143.66 30.9581 144.107C30.9581 144.554 31.0498 144.95 31.2331 145.295C31.4238 145.632 31.6805 145.896 32.0031 146.087C32.3331 146.27 32.7035 146.362 33.1141 146.362ZM40.1052 147.055C39.5478 147.055 39.0455 146.93 38.5982 146.681C38.1582 146.424 37.8098 146.076 37.5532 145.636C37.2965 145.189 37.1682 144.679 37.1682 144.107C37.1682 143.528 37.2965 143.018 37.5532 142.578C37.8098 142.138 38.1582 141.793 38.5982 141.544C39.0382 141.295 39.5405 141.17 40.1052 141.17C40.6772 141.17 41.1832 141.295 41.6232 141.544C42.0705 141.793 42.4188 142.138 42.6682 142.578C42.9248 143.018 43.0532 143.528 43.0532 144.107C43.0532 144.679 42.9248 145.189 42.6682 145.636C42.4188 146.076 42.0705 146.424 41.6232 146.681C41.1758 146.93 40.6698 147.055 40.1052 147.055ZM40.1052 146.362C40.5232 146.362 40.8935 146.27 41.2162 146.087C41.5388 145.896 41.7918 145.632 41.9752 145.295C42.1658 144.95 42.2612 144.554 42.2612 144.107C42.2612 143.652 42.1658 143.256 41.9752 142.919C41.7918 142.582 41.5388 142.321 41.2162 142.138C40.8935 141.947 40.5268 141.852 40.1162 141.852C39.7055 141.852 39.3388 141.947 39.0162 142.138C38.6935 142.321 38.4368 142.582 38.2462 142.919C38.0555 143.256 37.9602 143.652 37.9602 144.107C37.9602 144.554 38.0555 144.95 38.2462 145.295C38.4368 145.632 38.6935 145.896 39.0162 146.087C39.3388 146.27 39.7018 146.362 40.1052 146.362ZM48.6501 146.626V141.907H45.8671L45.8011 143.194C45.7864 143.583 45.7608 143.964 45.7241 144.338C45.6948 144.712 45.6398 145.057 45.5591 145.372C45.4858 145.68 45.3794 145.933 45.2401 146.131C45.1008 146.322 44.9211 146.432 44.7011 146.461L43.9201 146.318C44.1474 146.325 44.3344 146.245 44.4811 146.076C44.6278 145.9 44.7414 145.662 44.8221 145.361C44.9028 145.06 44.9614 144.719 44.9981 144.338C45.0348 143.949 45.0641 143.553 45.0861 143.15L45.1631 141.225H49.4311V146.626H48.6501ZM43.6781 148.397V146.318H50.3331V148.397H49.5961V147H44.4151V148.397H43.6781ZM51.9541 149.189C51.6828 149.189 51.4225 149.145 51.1731 149.057C50.9311 148.969 50.7221 148.837 50.5461 148.661L50.9091 148.078C51.0558 148.217 51.2135 148.324 51.3821 148.397C51.5581 148.478 51.7525 148.518 51.9651 148.518C52.2218 148.518 52.4418 148.445 52.6251 148.298C52.8158 148.159 52.9955 147.909 53.1641 147.55L53.5381 146.703L53.6261 146.582L56.0021 141.225H56.7721L53.8791 147.693C53.7178 148.067 53.5381 148.364 53.3401 148.584C53.1495 148.804 52.9405 148.958 52.7131 149.046C52.4858 149.141 52.2328 149.189 51.9541 149.189ZM53.4941 147.165L50.8321 141.225H51.6461L54.0001 146.527L53.4941 147.165ZM62.2239 147L59.8479 144.14L60.4969 143.755L63.1479 147H62.2239ZM57.9889 147V141.225H58.7699V147H57.9889ZM58.5279 144.426V143.755H60.3869V144.426H58.5279ZM60.5629 144.195L59.8369 144.085L62.1359 141.225H62.9829L60.5629 144.195ZM65.3624 147V141.698L65.5604 141.907H63.1734V141.225H68.3324V141.907H65.9454L66.1434 141.698V147H65.3624ZM74.2325 147.066C73.6825 147.066 73.1582 146.978 72.6595 146.802C72.1608 146.619 71.7648 146.377 71.4715 146.076L71.8565 145.449C72.0985 145.706 72.4285 145.918 72.8465 146.087C73.2718 146.256 73.7302 146.34 74.2215 146.34C74.8742 146.34 75.3692 146.197 75.7065 145.911C76.0512 145.618 76.2235 145.236 76.2235 144.767C76.2235 144.437 76.1428 144.155 75.9815 143.92C75.8275 143.678 75.5635 143.491 75.1895 143.359C74.8155 143.227 74.3022 143.161 73.6495 143.161H72.0105L72.4065 139.3H76.6195V140.004H72.7255L73.1325 139.619L72.7915 142.853L72.3845 142.457H73.8255C74.6028 142.457 75.2262 142.552 75.6955 142.743C76.1648 142.934 76.5022 143.201 76.7075 143.546C76.9202 143.883 77.0265 144.279 77.0265 144.734C77.0265 145.167 76.9238 145.563 76.7185 145.922C76.5132 146.274 76.2052 146.553 75.7945 146.758C75.3838 146.963 74.8632 147.066 74.2325 147.066Z" fill="#636370"/>
<path d="M21.298 175V167.3H27.777V175H26.974V167.784L27.183 168.004H21.892L22.101 167.784V175H21.298ZM33.1691 175.055C32.6705 175.055 32.2195 174.941 31.8161 174.714C31.4128 174.479 31.0901 174.146 30.8481 173.713C30.6135 173.273 30.4961 172.738 30.4961 172.107C30.4961 171.476 30.6135 170.945 30.8481 170.512C31.0828 170.072 31.4018 169.738 31.8051 169.511C32.2085 169.284 32.6631 169.17 33.1691 169.17C33.7191 169.17 34.2105 169.295 34.6431 169.544C35.0831 169.786 35.4278 170.131 35.6771 170.578C35.9265 171.018 36.0511 171.528 36.0511 172.107C36.0511 172.694 35.9265 173.207 35.6771 173.647C35.4278 174.087 35.0831 174.432 34.6431 174.681C34.2105 174.93 33.7191 175.055 33.1691 175.055ZM30.1881 177.134V169.225H30.9361V170.963L30.8591 172.118L30.9691 173.284V177.134H30.1881ZM33.1141 174.362C33.5248 174.362 33.8915 174.27 34.2141 174.087C34.5368 173.896 34.7935 173.632 34.9841 173.295C35.1748 172.95 35.2701 172.554 35.2701 172.107C35.2701 171.66 35.1748 171.267 34.9841 170.93C34.7935 170.593 34.5368 170.329 34.2141 170.138C33.8915 169.947 33.5248 169.852 33.1141 169.852C32.7035 169.852 32.3331 169.947 32.0031 170.138C31.6805 170.329 31.4238 170.593 31.2331 170.93C31.0498 171.267 30.9581 171.66 30.9581 172.107C30.9581 172.554 31.0498 172.95 31.2331 173.295C31.4238 173.632 31.6805 173.896 32.0031 174.087C32.3331 174.27 32.7035 174.362 33.1141 174.362ZM40.1052 175.055C39.5478 175.055 39.0455 174.93 38.5982 174.681C38.1582 174.424 37.8098 174.076 37.5532 173.636C37.2965 173.189 37.1682 172.679 37.1682 172.107C37.1682 171.528 37.2965 171.018 37.5532 170.578C37.8098 170.138 38.1582 169.793 38.5982 169.544C39.0382 169.295 39.5405 169.17 40.1052 169.17C40.6772 169.17 41.1832 169.295 41.6232 169.544C42.0705 169.793 42.4188 170.138 42.6682 170.578C42.9248 171.018 43.0532 171.528 43.0532 172.107C43.0532 172.679 42.9248 173.189 42.6682 173.636C42.4188 174.076 42.0705 174.424 41.6232 174.681C41.1758 174.93 40.6698 175.055 40.1052 175.055ZM40.1052 174.362C40.5232 174.362 40.8935 174.27 41.2162 174.087C41.5388 173.896 41.7918 173.632 41.9752 173.295C42.1658 172.95 42.2612 172.554 42.2612 172.107C42.2612 171.652 42.1658 171.256 41.9752 170.919C41.7918 170.582 41.5388 170.321 41.2162 170.138C40.8935 169.947 40.5268 169.852 40.1162 169.852C39.7055 169.852 39.3388 169.947 39.0162 170.138C38.6935 170.321 38.4368 170.582 38.2462 170.919C38.0555 171.256 37.9602 171.652 37.9602 172.107C37.9602 172.554 38.0555 172.95 38.2462 173.295C38.4368 173.632 38.6935 173.896 39.0162 174.087C39.3388 174.27 39.7018 174.362 40.1052 174.362ZM48.6501 174.626V169.907H45.8671L45.8011 171.194C45.7864 171.583 45.7608 171.964 45.7241 172.338C45.6948 172.712 45.6398 173.057 45.5591 173.372C45.4858 173.68 45.3794 173.933 45.2401 174.131C45.1008 174.322 44.9211 174.432 44.7011 174.461L43.9201 174.318C44.1474 174.325 44.3344 174.245 44.4811 174.076C44.6278 173.9 44.7414 173.662 44.8221 173.361C44.9028 173.06 44.9614 172.719 44.9981 172.338C45.0348 171.949 45.0641 171.553 45.0861 171.15L45.1631 169.225H49.4311V174.626H48.6501ZM43.6781 176.397V174.318H50.3331V176.397H49.5961V175H44.4151V176.397H43.6781ZM51.9541 177.189C51.6828 177.189 51.4225 177.145 51.1731 177.057C50.9311 176.969 50.7221 176.837 50.5461 176.661L50.9091 176.078C51.0558 176.217 51.2135 176.324 51.3821 176.397C51.5581 176.478 51.7525 176.518 51.9651 176.518C52.2218 176.518 52.4418 176.445 52.6251 176.298C52.8158 176.159 52.9955 175.909 53.1641 175.55L53.5381 174.703L53.6261 174.582L56.0021 169.225H56.7721L53.8791 175.693C53.7178 176.067 53.5381 176.364 53.3401 176.584C53.1495 176.804 52.9405 176.958 52.7131 177.046C52.4858 177.141 52.2328 177.189 51.9541 177.189ZM53.4941 175.165L50.8321 169.225H51.6461L54.0001 174.527L53.4941 175.165ZM62.2239 175L59.8479 172.14L60.4969 171.755L63.1479 175H62.2239ZM57.9889 175V169.225H58.7699V175H57.9889ZM58.5279 172.426V171.755H60.3869V172.426H58.5279ZM60.5629 172.195L59.8369 172.085L62.1359 169.225H62.9829L60.5629 172.195ZM65.3624 175V169.698L65.5604 169.907H63.1734V169.225H68.3324V169.907H65.9454L66.1434 169.698V175H65.3624ZM74.9585 175.066C74.2765 175.066 73.7008 174.916 73.2315 174.615C72.7622 174.307 72.4065 173.867 72.1645 173.295C71.9225 172.716 71.8015 172.023 71.8015 171.216C71.8015 170.343 71.9482 169.614 72.2415 169.027C72.5422 168.433 72.9565 167.986 73.4845 167.685C74.0125 167.384 74.6248 167.234 75.3215 167.234C75.6662 167.234 75.9962 167.267 76.3115 167.333C76.6268 167.399 76.9055 167.505 77.1475 167.652L76.8285 168.29C76.6305 168.158 76.4032 168.066 76.1465 168.015C75.8898 167.956 75.6185 167.927 75.3325 167.927C74.5038 167.927 73.8402 168.191 73.3415 168.719C72.8502 169.247 72.6045 170.035 72.6045 171.084C72.6045 171.245 72.6118 171.447 72.6265 171.689C72.6485 171.924 72.6925 172.158 72.7585 172.393L72.4835 172.184C72.5642 171.803 72.7218 171.48 72.9565 171.216C73.1912 170.945 73.4845 170.739 73.8365 170.6C74.1885 170.461 74.5735 170.391 74.9915 170.391C75.5048 170.391 75.9558 170.486 76.3445 170.677C76.7332 170.868 77.0375 171.135 77.2575 171.48C77.4775 171.825 77.5875 172.232 77.5875 172.701C77.5875 173.178 77.4738 173.596 77.2465 173.955C77.0192 174.307 76.7038 174.582 76.3005 174.78C75.9045 174.971 75.4572 175.066 74.9585 175.066ZM74.9255 174.395C75.2922 174.395 75.6148 174.329 75.8935 174.197C76.1795 174.058 76.4032 173.863 76.5645 173.614C76.7258 173.357 76.8065 173.06 76.8065 172.723C76.8065 172.217 76.6305 171.814 76.2785 171.513C75.9338 171.212 75.4645 171.062 74.8705 171.062C74.4745 171.062 74.1298 171.135 73.8365 171.282C73.5432 171.429 73.3122 171.63 73.1435 171.887C72.9748 172.136 72.8905 172.422 72.8905 172.745C72.8905 173.024 72.9675 173.291 73.1215 173.548C73.2755 173.797 73.5028 174.003 73.8035 174.164C74.1115 174.318 74.4855 174.395 74.9255 174.395Z" fill="#636370"/>
<path d="M21.298 119V111.3H27.777V119H26.974V111.784L27.183 112.004H21.892L22.101 111.784V119H21.298ZM33.1691 119.055C32.6705 119.055 32.2195 118.941 31.8161 118.714C31.4128 118.479 31.0901 118.146 30.8481 117.713C30.6135 117.273 30.4961 116.738 30.4961 116.107C30.4961 115.476 30.6135 114.945 30.8481 114.512C31.0828 114.072 31.4018 113.738 31.8051 113.511C32.2085 113.284 32.6631 113.17 33.1691 113.17C33.7191 113.17 34.2105 113.295 34.6431 113.544C35.0831 113.786 35.4278 114.131 35.6771 114.578C35.9265 115.018 36.0511 115.528 36.0511 116.107C36.0511 116.694 35.9265 117.207 35.6771 117.647C35.4278 118.087 35.0831 118.432 34.6431 118.681C34.2105 118.93 33.7191 119.055 33.1691 119.055ZM30.1881 121.134V113.225H30.9361V114.963L30.8591 116.118L30.9691 117.284V121.134H30.1881ZM33.1141 118.362C33.5248 118.362 33.8915 118.27 34.2141 118.087C34.5368 117.896 34.7935 117.632 34.9841 117.295C35.1748 116.95 35.2701 116.554 35.2701 116.107C35.2701 115.66 35.1748 115.267 34.9841 114.93C34.7935 114.593 34.5368 114.329 34.2141 114.138C33.8915 113.947 33.5248 113.852 33.1141 113.852C32.7035 113.852 32.3331 113.947 32.0031 114.138C31.6805 114.329 31.4238 114.593 31.2331 114.93C31.0498 115.267 30.9581 115.66 30.9581 116.107C30.9581 116.554 31.0498 116.95 31.2331 117.295C31.4238 117.632 31.6805 117.896 32.0031 118.087C32.3331 118.27 32.7035 118.362 33.1141 118.362ZM40.1052 119.055C39.5478 119.055 39.0455 118.93 38.5982 118.681C38.1582 118.424 37.8098 118.076 37.5532 117.636C37.2965 117.189 37.1682 116.679 37.1682 116.107C37.1682 115.528 37.2965 115.018 37.5532 114.578C37.8098 114.138 38.1582 113.793 38.5982 113.544C39.0382 113.295 39.5405 113.17 40.1052 113.17C40.6772 113.17 41.1832 113.295 41.6232 113.544C42.0705 113.793 42.4188 114.138 42.6682 114.578C42.9248 115.018 43.0532 115.528 43.0532 116.107C43.0532 116.679 42.9248 117.189 42.6682 117.636C42.4188 118.076 42.0705 118.424 41.6232 118.681C41.1758 118.93 40.6698 119.055 40.1052 119.055ZM40.1052 118.362C40.5232 118.362 40.8935 118.27 41.2162 118.087C41.5388 117.896 41.7918 117.632 41.9752 117.295C42.1658 116.95 42.2612 116.554 42.2612 116.107C42.2612 115.652 42.1658 115.256 41.9752 114.919C41.7918 114.582 41.5388 114.321 41.2162 114.138C40.8935 113.947 40.5268 113.852 40.1162 113.852C39.7055 113.852 39.3388 113.947 39.0162 114.138C38.6935 114.321 38.4368 114.582 38.2462 114.919C38.0555 115.256 37.9602 115.652 37.9602 116.107C37.9602 116.554 38.0555 116.95 38.2462 117.295C38.4368 117.632 38.6935 117.896 39.0162 118.087C39.3388 118.27 39.7018 118.362 40.1052 118.362ZM48.6501 118.626V113.907H45.8671L45.8011 115.194C45.7864 115.583 45.7608 115.964 45.7241 116.338C45.6948 116.712 45.6398 117.057 45.5591 117.372C45.4858 117.68 45.3794 117.933 45.2401 118.131C45.1008 118.322 44.9211 118.432 44.7011 118.461L43.9201 118.318C44.1474 118.325 44.3344 118.245 44.4811 118.076C44.6278 117.9 44.7414 117.662 44.8221 117.361C44.9028 117.06 44.9614 116.719 44.9981 116.338C45.0348 115.949 45.0641 115.553 45.0861 115.15L45.1631 113.225H49.4311V118.626H48.6501ZM43.6781 120.397V118.318H50.3331V120.397H49.5961V119H44.4151V120.397H43.6781ZM51.9541 121.189C51.6828 121.189 51.4225 121.145 51.1731 121.057C50.9311 120.969 50.7221 120.837 50.5461 120.661L50.9091 120.078C51.0558 120.217 51.2135 120.324 51.3821 120.397C51.5581 120.478 51.7525 120.518 51.9651 120.518C52.2218 120.518 52.4418 120.445 52.6251 120.298C52.8158 120.159 52.9955 119.909 53.1641 119.55L53.5381 118.703L53.6261 118.582L56.0021 113.225H56.7721L53.8791 119.693C53.7178 120.067 53.5381 120.364 53.3401 120.584C53.1495 120.804 52.9405 120.958 52.7131 121.046C52.4858 121.141 52.2328 121.189 51.9541 121.189ZM53.4941 119.165L50.8321 113.225H51.6461L54.0001 118.527L53.4941 119.165ZM62.2239 119L59.8479 116.14L60.4969 115.755L63.1479 119H62.2239ZM57.9889 119V113.225H58.7699V119H57.9889ZM58.5279 116.426V115.755H60.3869V116.426H58.5279ZM60.5629 116.195L59.8369 116.085L62.1359 113.225H62.9829L60.5629 116.195ZM65.3624 119V113.698L65.5604 113.907H63.1734V113.225H68.3324V113.907H65.9454L66.1434 113.698V119H65.3624ZM71.6695 116.976V116.404L75.7505 111.3H76.6305L72.5825 116.404L72.1535 116.272H78.3465V116.976H71.6695ZM76.0145 119V116.976L76.0365 116.272V114.49H76.8065V119H76.0145Z" fill="#636370"/>
<path d="M21.298 91V83.3H27.777V91H26.974V83.784L27.183 84.004H21.892L22.101 83.784V91H21.298ZM33.1691 91.055C32.6705 91.055 32.2195 90.9413 31.8161 90.714C31.4128 90.4793 31.0901 90.1457 30.8481 89.713C30.6135 89.273 30.4961 88.7377 30.4961 88.107C30.4961 87.4763 30.6135 86.9447 30.8481 86.512C31.0828 86.072 31.4018 85.7383 31.8051 85.511C32.2085 85.2837 32.6631 85.17 33.1691 85.17C33.7191 85.17 34.2105 85.2947 34.6431 85.544C35.0831 85.786 35.4278 86.1307 35.6771 86.578C35.9265 87.018 36.0511 87.5277 36.0511 88.107C36.0511 88.6937 35.9265 89.207 35.6771 89.647C35.4278 90.087 35.0831 90.4317 34.6431 90.681C34.2105 90.9303 33.7191 91.055 33.1691 91.055ZM30.1881 93.134V85.225H30.9361V86.963L30.8591 88.118L30.9691 89.284V93.134H30.1881ZM33.1141 90.362C33.5248 90.362 33.8915 90.2703 34.2141 90.087C34.5368 89.8963 34.7935 89.6323 34.9841 89.295C35.1748 88.9503 35.2701 88.5543 35.2701 88.107C35.2701 87.6597 35.1748 87.2673 34.9841 86.93C34.7935 86.5927 34.5368 86.3287 34.2141 86.138C33.8915 85.9473 33.5248 85.852 33.1141 85.852C32.7035 85.852 32.3331 85.9473 32.0031 86.138C31.6805 86.3287 31.4238 86.5927 31.2331 86.93C31.0498 87.2673 30.9581 87.6597 30.9581 88.107C30.9581 88.5543 31.0498 88.9503 31.2331 89.295C31.4238 89.6323 31.6805 89.8963 32.0031 90.087C32.3331 90.2703 32.7035 90.362 33.1141 90.362ZM40.1052 91.055C39.5478 91.055 39.0455 90.9303 38.5982 90.681C38.1582 90.4243 37.8098 90.076 37.5532 89.636C37.2965 89.1887 37.1682 88.679 37.1682 88.107C37.1682 87.5277 37.2965 87.018 37.5532 86.578C37.8098 86.138 38.1582 85.7933 38.5982 85.544C39.0382 85.2947 39.5405 85.17 40.1052 85.17C40.6772 85.17 41.1832 85.2947 41.6232 85.544C42.0705 85.7933 42.4188 86.138 42.6682 86.578C42.9248 87.018 43.0532 87.5277 43.0532 88.107C43.0532 88.679 42.9248 89.1887 42.6682 89.636C42.4188 90.076 42.0705 90.4243 41.6232 90.681C41.1758 90.9303 40.6698 91.055 40.1052 91.055ZM40.1052 90.362C40.5232 90.362 40.8935 90.2703 41.2162 90.087C41.5388 89.8963 41.7918 89.6323 41.9752 89.295C42.1658 88.9503 42.2612 88.5543 42.2612 88.107C42.2612 87.6523 42.1658 87.2563 41.9752 86.919C41.7918 86.5817 41.5388 86.3213 41.2162 86.138C40.8935 85.9473 40.5268 85.852 40.1162 85.852C39.7055 85.852 39.3388 85.9473 39.0162 86.138C38.6935 86.3213 38.4368 86.5817 38.2462 86.919C38.0555 87.2563 37.9602 87.6523 37.9602 88.107C37.9602 88.5543 38.0555 88.9503 38.2462 89.295C38.4368 89.6323 38.6935 89.8963 39.0162 90.087C39.3388 90.2703 39.7018 90.362 40.1052 90.362ZM48.6501 90.626V85.907H45.8671L45.8011 87.194C45.7864 87.5827 45.7608 87.964 45.7241 88.338C45.6948 88.712 45.6398 89.0567 45.5591 89.372C45.4858 89.68 45.3794 89.933 45.2401 90.131C45.1008 90.3217 44.9211 90.4317 44.7011 90.461L43.9201 90.318C44.1474 90.3253 44.3344 90.2447 44.4811 90.076C44.6278 89.9 44.7414 89.6617 44.8221 89.361C44.9028 89.0603 44.9614 88.7193 44.9981 88.338C45.0348 87.9493 45.0641 87.5533 45.0861 87.15L45.1631 85.225H49.4311V90.626H48.6501ZM43.6781 92.397V90.318H50.3331V92.397H49.5961V91H44.4151V92.397H43.6781ZM51.9541 93.189C51.6828 93.189 51.4225 93.145 51.1731 93.057C50.9311 92.969 50.7221 92.837 50.5461 92.661L50.9091 92.078C51.0558 92.2173 51.2135 92.3237 51.3821 92.397C51.5581 92.4777 51.7525 92.518 51.9651 92.518C52.2218 92.518 52.4418 92.4447 52.6251 92.298C52.8158 92.1587 52.9955 91.9093 53.1641 91.55L53.5381 90.703L53.6261 90.582L56.0021 85.225H56.7721L53.8791 91.693C53.7178 92.067 53.5381 92.364 53.3401 92.584C53.1495 92.804 52.9405 92.958 52.7131 93.046C52.4858 93.1413 52.2328 93.189 51.9541 93.189ZM53.4941 91.165L50.8321 85.225H51.6461L54.0001 90.527L53.4941 91.165ZM62.2239 91L59.8479 88.14L60.4969 87.755L63.1479 91H62.2239ZM57.9889 91V85.225H58.7699V91H57.9889ZM58.5279 88.426V87.755H60.3869V88.426H58.5279ZM60.5629 88.195L59.8369 88.085L62.1359 85.225H62.9829L60.5629 88.195ZM65.3624 91V85.698L65.5604 85.907H63.1734V85.225H68.3324V85.907H65.9454L66.1434 85.698V91H65.3624ZM74.1005 91.066C73.5432 91.066 73.0152 90.978 72.5165 90.802C72.0252 90.6187 71.6292 90.3767 71.3285 90.076L71.7135 89.449C71.9628 89.7057 72.2965 89.9183 72.7145 90.087C73.1398 90.2557 73.6018 90.34 74.1005 90.34C74.7385 90.34 75.2262 90.2007 75.5635 89.922C75.9082 89.6433 76.0805 89.2693 76.0805 88.8C76.0805 88.3307 75.9118 87.9567 75.5745 87.678C75.2445 87.3993 74.7202 87.26 74.0015 87.26H73.4515V86.677L75.8275 83.696L75.9375 84.004H71.6475V83.3H76.5975V83.861L74.2215 86.842L73.8365 86.589H74.1335C75.0575 86.589 75.7468 86.7943 76.2015 87.205C76.6635 87.6157 76.8945 88.1437 76.8945 88.789C76.8945 89.2217 76.7918 89.6103 76.5865 89.955C76.3812 90.2997 76.0695 90.571 75.6515 90.769C75.2408 90.967 74.7238 91.066 74.1005 91.066Z" fill="#636370"/>
<path d="M21.298 63V55.3H27.777V63H26.974V55.784L27.183 56.004H21.892L22.101 55.784V63H21.298ZM33.1691 63.055C32.6705 63.055 32.2195 62.9413 31.8161 62.714C31.4128 62.4793 31.0901 62.1457 30.8481 61.713C30.6135 61.273 30.4961 60.7377 30.4961 60.107C30.4961 59.4763 30.6135 58.9447 30.8481 58.512C31.0828 58.072 31.4018 57.7383 31.8051 57.511C32.2085 57.2837 32.6631 57.17 33.1691 57.17C33.7191 57.17 34.2105 57.2947 34.6431 57.544C35.0831 57.786 35.4278 58.1307 35.6771 58.578C35.9265 59.018 36.0511 59.5277 36.0511 60.107C36.0511 60.6937 35.9265 61.207 35.6771 61.647C35.4278 62.087 35.0831 62.4317 34.6431 62.681C34.2105 62.9303 33.7191 63.055 33.1691 63.055ZM30.1881 65.134V57.225H30.9361V58.963L30.8591 60.118L30.9691 61.284V65.134H30.1881ZM33.1141 62.362C33.5248 62.362 33.8915 62.2703 34.2141 62.087C34.5368 61.8963 34.7935 61.6323 34.9841 61.295C35.1748 60.9503 35.2701 60.5543 35.2701 60.107C35.2701 59.6597 35.1748 59.2673 34.9841 58.93C34.7935 58.5927 34.5368 58.3287 34.2141 58.138C33.8915 57.9473 33.5248 57.852 33.1141 57.852C32.7035 57.852 32.3331 57.9473 32.0031 58.138C31.6805 58.3287 31.4238 58.5927 31.2331 58.93C31.0498 59.2673 30.9581 59.6597 30.9581 60.107C30.9581 60.5543 31.0498 60.9503 31.2331 61.295C31.4238 61.6323 31.6805 61.8963 32.0031 62.087C32.3331 62.2703 32.7035 62.362 33.1141 62.362ZM40.1052 63.055C39.5478 63.055 39.0455 62.9303 38.5982 62.681C38.1582 62.4243 37.8098 62.076 37.5532 61.636C37.2965 61.1887 37.1682 60.679 37.1682 60.107C37.1682 59.5277 37.2965 59.018 37.5532 58.578C37.8098 58.138 38.1582 57.7933 38.5982 57.544C39.0382 57.2947 39.5405 57.17 40.1052 57.17C40.6772 57.17 41.1832 57.2947 41.6232 57.544C42.0705 57.7933 42.4188 58.138 42.6682 58.578C42.9248 59.018 43.0532 59.5277 43.0532 60.107C43.0532 60.679 42.9248 61.1887 42.6682 61.636C42.4188 62.076 42.0705 62.4243 41.6232 62.681C41.1758 62.9303 40.6698 63.055 40.1052 63.055ZM40.1052 62.362C40.5232 62.362 40.8935 62.2703 41.2162 62.087C41.5388 61.8963 41.7918 61.6323 41.9752 61.295C42.1658 60.9503 42.2612 60.5543 42.2612 60.107C42.2612 59.6523 42.1658 59.2563 41.9752 58.919C41.7918 58.5817 41.5388 58.3213 41.2162 58.138C40.8935 57.9473 40.5268 57.852 40.1162 57.852C39.7055 57.852 39.3388 57.9473 39.0162 58.138C38.6935 58.3213 38.4368 58.5817 38.2462 58.919C38.0555 59.2563 37.9602 59.6523 37.9602 60.107C37.9602 60.5543 38.0555 60.9503 38.2462 61.295C38.4368 61.6323 38.6935 61.8963 39.0162 62.087C39.3388 62.2703 39.7018 62.362 40.1052 62.362ZM48.6501 62.626V57.907H45.8671L45.8011 59.194C45.7864 59.5827 45.7608 59.964 45.7241 60.338C45.6948 60.712 45.6398 61.0567 45.5591 61.372C45.4858 61.68 45.3794 61.933 45.2401 62.131C45.1008 62.3217 44.9211 62.4317 44.7011 62.461L43.9201 62.318C44.1474 62.3253 44.3344 62.2447 44.4811 62.076C44.6278 61.9 44.7414 61.6617 44.8221 61.361C44.9028 61.0603 44.9614 60.7193 44.9981 60.338C45.0348 59.9493 45.0641 59.5533 45.0861 59.15L45.1631 57.225H49.4311V62.626H48.6501ZM43.6781 64.397V62.318H50.3331V64.397H49.5961V63H44.4151V64.397H43.6781ZM51.9541 65.189C51.6828 65.189 51.4225 65.145 51.1731 65.057C50.9311 64.969 50.7221 64.837 50.5461 64.661L50.9091 64.078C51.0558 64.2173 51.2135 64.3237 51.3821 64.397C51.5581 64.4777 51.7525 64.518 51.9651 64.518C52.2218 64.518 52.4418 64.4447 52.6251 64.298C52.8158 64.1587 52.9955 63.9093 53.1641 63.55L53.5381 62.703L53.6261 62.582L56.0021 57.225H56.7721L53.8791 63.693C53.7178 64.067 53.5381 64.364 53.3401 64.584C53.1495 64.804 52.9405 64.958 52.7131 65.046C52.4858 65.1413 52.2328 65.189 51.9541 65.189ZM53.4941 63.165L50.8321 57.225H51.6461L54.0001 62.527L53.4941 63.165ZM62.2239 63L59.8479 60.14L60.4969 59.755L63.1479 63H62.2239ZM57.9889 63V57.225H58.7699V63H57.9889ZM58.5279 60.426V59.755H60.3869V60.426H58.5279ZM60.5629 60.195L59.8369 60.085L62.1359 57.225H62.9829L60.5629 60.195ZM65.3624 63V57.698L65.5604 57.907H63.1734V57.225H68.3324V57.907H65.9454L66.1434 57.698V63H65.3624ZM71.6585 63V62.439L74.8595 59.304C75.1528 59.018 75.3728 58.7687 75.5195 58.556C75.6662 58.336 75.7652 58.1307 75.8165 57.94C75.8678 57.7493 75.8935 57.5697 75.8935 57.401C75.8935 56.9537 75.7395 56.6017 75.4315 56.345C75.1308 56.0883 74.6835 55.96 74.0895 55.96C73.6348 55.96 73.2315 56.0297 72.8795 56.169C72.5348 56.3083 72.2378 56.5247 71.9885 56.818L71.4275 56.334C71.7282 55.982 72.1132 55.7107 72.5825 55.52C73.0518 55.3293 73.5762 55.234 74.1555 55.234C74.6762 55.234 75.1272 55.3183 75.5085 55.487C75.8898 55.6483 76.1832 55.8867 76.3885 56.202C76.6012 56.5173 76.7075 56.8877 76.7075 57.313C76.7075 57.5623 76.6708 57.808 76.5975 58.05C76.5315 58.292 76.4068 58.5487 76.2235 58.82C76.0475 59.084 75.7872 59.3847 75.4425 59.722L72.5055 62.604L72.2855 62.296H77.0595V63H71.6585Z" fill="#636370"/>
<path d="M21.298 35V27.3H27.777V35H26.974V27.784L27.183 28.004H21.892L22.101 27.784V35H21.298ZM33.1691 35.055C32.6705 35.055 32.2195 34.9413 31.8161 34.714C31.4128 34.4793 31.0901 34.1457 30.8481 33.713C30.6135 33.273 30.4961 32.7377 30.4961 32.107C30.4961 31.4763 30.6135 30.9447 30.8481 30.512C31.0828 30.072 31.4018 29.7383 31.8051 29.511C32.2085 29.2837 32.6631 29.17 33.1691 29.17C33.7191 29.17 34.2105 29.2947 34.6431 29.544C35.0831 29.786 35.4278 30.1307 35.6771 30.578C35.9265 31.018 36.0511 31.5277 36.0511 32.107C36.0511 32.6937 35.9265 33.207 35.6771 33.647C35.4278 34.087 35.0831 34.4317 34.6431 34.681C34.2105 34.9303 33.7191 35.055 33.1691 35.055ZM30.1881 37.134V29.225H30.9361V30.963L30.8591 32.118L30.9691 33.284V37.134H30.1881ZM33.1141 34.362C33.5248 34.362 33.8915 34.2703 34.2141 34.087C34.5368 33.8963 34.7935 33.6323 34.9841 33.295C35.1748 32.9503 35.2701 32.5543 35.2701 32.107C35.2701 31.6597 35.1748 31.2673 34.9841 30.93C34.7935 30.5927 34.5368 30.3287 34.2141 30.138C33.8915 29.9473 33.5248 29.852 33.1141 29.852C32.7035 29.852 32.3331 29.9473 32.0031 30.138C31.6805 30.3287 31.4238 30.5927 31.2331 30.93C31.0498 31.2673 30.9581 31.6597 30.9581 32.107C30.9581 32.5543 31.0498 32.9503 31.2331 33.295C31.4238 33.6323 31.6805 33.8963 32.0031 34.087C32.3331 34.2703 32.7035 34.362 33.1141 34.362ZM40.1052 35.055C39.5478 35.055 39.0455 34.9303 38.5982 34.681C38.1582 34.4243 37.8098 34.076 37.5532 33.636C37.2965 33.1887 37.1682 32.679 37.1682 32.107C37.1682 31.5277 37.2965 31.018 37.5532 30.578C37.8098 30.138 38.1582 29.7933 38.5982 29.544C39.0382 29.2947 39.5405 29.17 40.1052 29.17C40.6772 29.17 41.1832 29.2947 41.6232 29.544C42.0705 29.7933 42.4188 30.138 42.6682 30.578C42.9248 31.018 43.0532 31.5277 43.0532 32.107C43.0532 32.679 42.9248 33.1887 42.6682 33.636C42.4188 34.076 42.0705 34.4243 41.6232 34.681C41.1758 34.9303 40.6698 35.055 40.1052 35.055ZM40.1052 34.362C40.5232 34.362 40.8935 34.2703 41.2162 34.087C41.5388 33.8963 41.7918 33.6323 41.9752 33.295C42.1658 32.9503 42.2612 32.5543 42.2612 32.107C42.2612 31.6523 42.1658 31.2563 41.9752 30.919C41.7918 30.5817 41.5388 30.3213 41.2162 30.138C40.8935 29.9473 40.5268 29.852 40.1162 29.852C39.7055 29.852 39.3388 29.9473 39.0162 30.138C38.6935 30.3213 38.4368 30.5817 38.2462 30.919C38.0555 31.2563 37.9602 31.6523 37.9602 32.107C37.9602 32.5543 38.0555 32.9503 38.2462 33.295C38.4368 33.6323 38.6935 33.8963 39.0162 34.087C39.3388 34.2703 39.7018 34.362 40.1052 34.362ZM48.6501 34.626V29.907H45.8671L45.8011 31.194C45.7864 31.5827 45.7608 31.964 45.7241 32.338C45.6948 32.712 45.6398 33.0567 45.5591 33.372C45.4858 33.68 45.3794 33.933 45.2401 34.131C45.1008 34.3217 44.9211 34.4317 44.7011 34.461L43.9201 34.318C44.1474 34.3253 44.3344 34.2447 44.4811 34.076C44.6278 33.9 44.7414 33.6617 44.8221 33.361C44.9028 33.0603 44.9614 32.7193 44.9981 32.338C45.0348 31.9493 45.0641 31.5533 45.0861 31.15L45.1631 29.225H49.4311V34.626H48.6501ZM43.6781 36.397V34.318H50.3331V36.397H49.5961V35H44.4151V36.397H43.6781ZM51.9541 37.189C51.6828 37.189 51.4225 37.145 51.1731 37.057C50.9311 36.969 50.7221 36.837 50.5461 36.661L50.9091 36.078C51.0558 36.2173 51.2135 36.3237 51.3821 36.397C51.5581 36.4777 51.7525 36.518 51.9651 36.518C52.2218 36.518 52.4418 36.4447 52.6251 36.298C52.8158 36.1587 52.9955 35.9093 53.1641 35.55L53.5381 34.703L53.6261 34.582L56.0021 29.225H56.7721L53.8791 35.693C53.7178 36.067 53.5381 36.364 53.3401 36.584C53.1495 36.804 52.9405 36.958 52.7131 37.046C52.4858 37.1413 52.2328 37.189 51.9541 37.189ZM53.4941 35.165L50.8321 29.225H51.6461L54.0001 34.527L53.4941 35.165ZM62.2239 35L59.8479 32.14L60.4969 31.755L63.1479 35H62.2239ZM57.9889 35V29.225H58.7699V35H57.9889ZM58.5279 32.426V31.755H60.3869V32.426H58.5279ZM60.5629 32.195L59.8369 32.085L62.1359 29.225H62.9829L60.5629 32.195ZM65.3624 35V29.698L65.5604 29.907H63.1734V29.225H68.3324V29.907H65.9454L66.1434 29.698V35H65.3624ZM73.1435 35V27.63L73.4955 28.004H71.3285V27.3H73.9355V35H73.1435Z" fill="#636370"/>
<rect width="38" height="20" transform="translate(142 49)" fill="#FEDBDB"/>
<path d="M151.97 64.32V53.98H152.52V64.32H151.97ZM152.201 63.066C151.629 63.066 151.079 62.9743 150.551 62.791C150.03 62.6003 149.627 62.3583 149.341 62.065L149.66 61.438C149.931 61.702 150.294 61.9257 150.749 62.109C151.211 62.285 151.695 62.373 152.201 62.373C152.685 62.373 153.077 62.3143 153.378 62.197C153.686 62.0723 153.909 61.9073 154.049 61.702C154.195 61.4967 154.269 61.2693 154.269 61.02C154.269 60.7193 154.181 60.4773 154.005 60.294C153.836 60.1107 153.612 59.9677 153.334 59.865C153.055 59.755 152.747 59.6597 152.41 59.579C152.072 59.4983 151.735 59.414 151.398 59.326C151.06 59.2307 150.749 59.106 150.463 58.952C150.184 58.798 149.957 58.5963 149.781 58.347C149.612 58.0903 149.528 57.7567 149.528 57.346C149.528 56.9647 149.627 56.6163 149.825 56.301C150.03 55.9783 150.342 55.7217 150.76 55.531C151.178 55.333 151.713 55.234 152.366 55.234C152.798 55.234 153.227 55.2963 153.653 55.421C154.078 55.5383 154.445 55.7033 154.753 55.916L154.478 56.565C154.148 56.345 153.796 56.1837 153.422 56.081C153.055 55.9783 152.699 55.927 152.355 55.927C151.893 55.927 151.511 55.9893 151.211 56.114C150.91 56.2387 150.686 56.4073 150.54 56.62C150.4 56.8253 150.331 57.06 150.331 57.324C150.331 57.6247 150.415 57.8667 150.584 58.05C150.76 58.2333 150.987 58.3763 151.266 58.479C151.552 58.5817 151.863 58.6733 152.201 58.754C152.538 58.8347 152.872 58.9227 153.202 59.018C153.539 59.1133 153.847 59.238 154.126 59.392C154.412 59.5387 154.639 59.7367 154.808 59.986C154.984 60.2353 155.072 60.5617 155.072 60.965C155.072 61.339 154.969 61.6873 154.764 62.01C154.558 62.3253 154.243 62.582 153.818 62.78C153.4 62.9707 152.861 63.066 152.201 63.066ZM157.398 63V55.63L157.75 56.004H155.583V55.3H158.19V63H157.398ZM163.187 63.066C162.505 63.066 161.93 62.9157 161.46 62.615C160.991 62.307 160.635 61.867 160.393 61.295C160.151 60.7157 160.03 60.0227 160.03 59.216C160.03 58.3433 160.177 57.6137 160.47 57.027C160.771 56.433 161.185 55.9857 161.713 55.685C162.241 55.3843 162.854 55.234 163.55 55.234C163.895 55.234 164.225 55.267 164.54 55.333C164.856 55.399 165.134 55.5053 165.376 55.652L165.057 56.29C164.859 56.158 164.632 56.0663 164.375 56.015C164.119 55.9563 163.847 55.927 163.561 55.927C162.733 55.927 162.069 56.191 161.57 56.719C161.079 57.247 160.833 58.0353 160.833 59.084C160.833 59.2453 160.841 59.447 160.855 59.689C160.877 59.9237 160.921 60.1583 160.987 60.393L160.712 60.184C160.793 59.8027 160.951 59.48 161.185 59.216C161.42 58.9447 161.713 58.7393 162.065 58.6C162.417 58.4607 162.802 58.391 163.22 58.391C163.734 58.391 164.185 58.4863 164.573 58.677C164.962 58.8677 165.266 59.1353 165.486 59.48C165.706 59.8247 165.816 60.2317 165.816 60.701C165.816 61.1777 165.703 61.5957 165.475 61.955C165.248 62.307 164.933 62.582 164.529 62.78C164.133 62.9707 163.686 63.066 163.187 63.066ZM163.154 62.395C163.521 62.395 163.844 62.329 164.122 62.197C164.408 62.0577 164.632 61.8633 164.793 61.614C164.955 61.3573 165.035 61.0603 165.035 60.723C165.035 60.217 164.859 59.8137 164.507 59.513C164.163 59.2123 163.693 59.062 163.099 59.062C162.703 59.062 162.359 59.1353 162.065 59.282C161.772 59.4287 161.541 59.6303 161.372 59.887C161.204 60.1363 161.119 60.4223 161.119 60.745C161.119 61.0237 161.196 61.2913 161.35 61.548C161.504 61.7973 161.732 62.0027 162.032 62.164C162.34 62.318 162.714 62.395 163.154 62.395ZM169.66 63.066C169.044 63.066 168.512 62.978 168.065 62.802C167.625 62.626 167.284 62.373 167.042 62.043C166.807 61.7057 166.69 61.3097 166.69 60.855C166.69 60.415 166.803 60.041 167.031 59.733C167.265 59.4177 167.603 59.1757 168.043 59.007C168.49 58.8383 169.029 58.754 169.66 58.754C170.283 58.754 170.818 58.8383 171.266 59.007C171.713 59.1757 172.054 59.4177 172.289 59.733C172.531 60.041 172.652 60.415 172.652 60.855C172.652 61.3097 172.531 61.7057 172.289 62.043C172.047 62.373 171.702 62.626 171.255 62.802C170.807 62.978 170.276 63.066 169.66 63.066ZM169.66 62.395C170.342 62.395 170.873 62.2557 171.255 61.977C171.643 61.6983 171.838 61.3207 171.838 60.844C171.838 60.3673 171.643 59.9933 171.255 59.722C170.873 59.4433 170.342 59.304 169.66 59.304C168.978 59.304 168.446 59.4433 168.065 59.722C167.683 59.9933 167.493 60.3673 167.493 60.844C167.493 61.3207 167.683 61.6983 168.065 61.977C168.446 62.2557 168.978 62.395 169.66 62.395ZM169.66 59.205C169.088 59.205 168.6 59.128 168.197 58.974C167.801 58.82 167.496 58.6 167.284 58.314C167.071 58.0207 166.965 57.6723 166.965 57.269C166.965 56.8437 167.075 56.4807 167.295 56.18C167.522 55.872 167.837 55.6373 168.241 55.476C168.644 55.3147 169.117 55.234 169.66 55.234C170.202 55.234 170.675 55.3147 171.079 55.476C171.489 55.6373 171.808 55.872 172.036 56.18C172.263 56.4807 172.377 56.8437 172.377 57.269C172.377 57.6723 172.27 58.0207 172.058 58.314C171.845 58.6 171.533 58.82 171.123 58.974C170.719 59.128 170.232 59.205 169.66 59.205ZM169.66 58.677C170.261 58.677 170.73 58.5523 171.068 58.303C171.405 58.0537 171.574 57.72 171.574 57.302C171.574 56.862 171.398 56.521 171.046 56.279C170.701 56.0297 170.239 55.905 169.66 55.905C169.08 55.905 168.618 56.0297 168.274 56.279C167.929 56.521 167.757 56.8583 167.757 57.291C167.757 57.7163 167.922 58.0537 168.252 58.303C168.589 58.5523 169.058 58.677 169.66 58.677Z" fill="#F82C2C"/>
<rect width="38" height="20" transform="translate(142 133)" fill="#FEDBDB"/>
<path d="M154.295 148.32V137.98H154.845V148.32H154.295ZM154.526 147.066C153.954 147.066 153.404 146.974 152.876 146.791C152.356 146.6 151.952 146.358 151.666 146.065L151.985 145.438C152.257 145.702 152.62 145.926 153.074 146.109C153.536 146.285 154.02 146.373 154.526 146.373C155.01 146.373 155.403 146.314 155.703 146.197C156.011 146.072 156.235 145.907 156.374 145.702C156.521 145.497 156.594 145.269 156.594 145.02C156.594 144.719 156.506 144.477 156.33 144.294C156.162 144.111 155.938 143.968 155.659 143.865C155.381 143.755 155.073 143.66 154.735 143.579C154.398 143.498 154.061 143.414 153.723 143.326C153.386 143.231 153.074 143.106 152.788 142.952C152.51 142.798 152.282 142.596 152.106 142.347C151.938 142.09 151.853 141.757 151.853 141.346C151.853 140.965 151.952 140.616 152.15 140.301C152.356 139.978 152.667 139.722 153.085 139.531C153.503 139.333 154.039 139.234 154.691 139.234C155.124 139.234 155.553 139.296 155.978 139.421C156.404 139.538 156.77 139.703 157.078 139.916L156.803 140.565C156.473 140.345 156.121 140.184 155.747 140.081C155.381 139.978 155.025 139.927 154.68 139.927C154.218 139.927 153.837 139.989 153.536 140.114C153.236 140.239 153.012 140.407 152.865 140.62C152.726 140.825 152.656 141.06 152.656 141.324C152.656 141.625 152.741 141.867 152.909 142.05C153.085 142.233 153.313 142.376 153.591 142.479C153.877 142.582 154.189 142.673 154.526 142.754C154.864 142.835 155.197 142.923 155.527 143.018C155.865 143.113 156.173 143.238 156.451 143.392C156.737 143.539 156.965 143.737 157.133 143.986C157.309 144.235 157.397 144.562 157.397 144.965C157.397 145.339 157.295 145.687 157.089 146.01C156.884 146.325 156.569 146.582 156.143 146.78C155.725 146.971 155.186 147.066 154.526 147.066ZM158.346 147V146.439L161.547 143.304C161.84 143.018 162.06 142.769 162.207 142.556C162.354 142.336 162.453 142.131 162.504 141.94C162.555 141.749 162.581 141.57 162.581 141.401C162.581 140.954 162.427 140.602 162.119 140.345C161.818 140.088 161.371 139.96 160.777 139.96C160.322 139.96 159.919 140.03 159.567 140.169C159.222 140.308 158.925 140.525 158.676 140.818L158.115 140.334C158.416 139.982 158.801 139.711 159.27 139.52C159.739 139.329 160.264 139.234 160.843 139.234C161.364 139.234 161.815 139.318 162.196 139.487C162.577 139.648 162.871 139.887 163.076 140.202C163.289 140.517 163.395 140.888 163.395 141.313C163.395 141.562 163.358 141.808 163.285 142.05C163.219 142.292 163.094 142.549 162.911 142.82C162.735 143.084 162.475 143.385 162.13 143.722L159.193 146.604L158.973 146.296H163.747V147H158.346ZM167.876 147.066C167.194 147.066 166.619 146.916 166.149 146.615C165.68 146.307 165.324 145.867 165.082 145.295C164.84 144.716 164.719 144.023 164.719 143.216C164.719 142.343 164.866 141.614 165.159 141.027C165.46 140.433 165.874 139.986 166.402 139.685C166.93 139.384 167.543 139.234 168.239 139.234C168.584 139.234 168.914 139.267 169.229 139.333C169.545 139.399 169.823 139.505 170.065 139.652L169.746 140.29C169.548 140.158 169.321 140.066 169.064 140.015C168.808 139.956 168.536 139.927 168.25 139.927C167.422 139.927 166.758 140.191 166.259 140.719C165.768 141.247 165.522 142.035 165.522 143.084C165.522 143.245 165.53 143.447 165.544 143.689C165.566 143.924 165.61 144.158 165.676 144.393L165.401 144.184C165.482 143.803 165.64 143.48 165.874 143.216C166.109 142.945 166.402 142.739 166.754 142.6C167.106 142.461 167.491 142.391 167.909 142.391C168.423 142.391 168.874 142.486 169.262 142.677C169.651 142.868 169.955 143.135 170.175 143.48C170.395 143.825 170.505 144.232 170.505 144.701C170.505 145.178 170.392 145.596 170.164 145.955C169.937 146.307 169.622 146.582 169.218 146.78C168.822 146.971 168.375 147.066 167.876 147.066ZM167.843 146.395C168.21 146.395 168.533 146.329 168.811 146.197C169.097 146.058 169.321 145.863 169.482 145.614C169.644 145.357 169.724 145.06 169.724 144.723C169.724 144.217 169.548 143.814 169.196 143.513C168.852 143.212 168.382 143.062 167.788 143.062C167.392 143.062 167.048 143.135 166.754 143.282C166.461 143.429 166.23 143.63 166.061 143.887C165.893 144.136 165.808 144.422 165.808 144.745C165.808 145.024 165.885 145.291 166.039 145.548C166.193 145.797 166.421 146.003 166.721 146.164C167.029 146.318 167.403 146.395 167.843 146.395Z" fill="#F82C2C"/>
<rect width="38" height="20" transform="translate(142 161)" fill="#F3FCEC"/>
<path d="M154.483 176.32V165.98H155.033V176.32H154.483ZM154.714 175.066C154.142 175.066 153.592 174.974 153.064 174.791C152.544 174.6 152.14 174.358 151.854 174.065L152.173 173.438C152.445 173.702 152.808 173.926 153.262 174.109C153.724 174.285 154.208 174.373 154.714 174.373C155.198 174.373 155.591 174.314 155.891 174.197C156.199 174.072 156.423 173.907 156.562 173.702C156.709 173.497 156.782 173.269 156.782 173.02C156.782 172.719 156.694 172.477 156.518 172.294C156.35 172.111 156.126 171.968 155.847 171.865C155.569 171.755 155.261 171.66 154.923 171.579C154.586 171.498 154.249 171.414 153.911 171.326C153.574 171.231 153.262 171.106 152.976 170.952C152.698 170.798 152.47 170.596 152.294 170.347C152.126 170.09 152.041 169.757 152.041 169.346C152.041 168.965 152.14 168.616 152.338 168.301C152.544 167.978 152.855 167.722 153.273 167.531C153.691 167.333 154.227 167.234 154.879 167.234C155.312 167.234 155.741 167.296 156.166 167.421C156.592 167.538 156.958 167.703 157.266 167.916L156.991 168.565C156.661 168.345 156.309 168.184 155.935 168.081C155.569 167.978 155.213 167.927 154.868 167.927C154.406 167.927 154.025 167.989 153.724 168.114C153.424 168.239 153.2 168.407 153.053 168.62C152.914 168.825 152.844 169.06 152.844 169.324C152.844 169.625 152.929 169.867 153.097 170.05C153.273 170.233 153.501 170.376 153.779 170.479C154.065 170.582 154.377 170.673 154.714 170.754C155.052 170.835 155.385 170.923 155.715 171.018C156.053 171.113 156.361 171.238 156.639 171.392C156.925 171.539 157.153 171.737 157.321 171.986C157.497 172.235 157.585 172.562 157.585 172.965C157.585 173.339 157.483 173.687 157.277 174.01C157.072 174.325 156.757 174.582 156.331 174.78C155.913 174.971 155.374 175.066 154.714 175.066ZM161.108 175.066C160.558 175.066 160.034 174.978 159.535 174.802C159.036 174.619 158.64 174.377 158.347 174.076L158.732 173.449C158.974 173.706 159.304 173.918 159.722 174.087C160.147 174.256 160.606 174.34 161.097 174.34C161.75 174.34 162.245 174.197 162.582 173.911C162.927 173.618 163.099 173.236 163.099 172.767C163.099 172.437 163.018 172.155 162.857 171.92C162.703 171.678 162.439 171.491 162.065 171.359C161.691 171.227 161.178 171.161 160.525 171.161H158.886L159.282 167.3H163.495V168.004H159.601L160.008 167.619L159.667 170.853L159.26 170.457H160.701C161.478 170.457 162.102 170.552 162.571 170.743C163.04 170.934 163.378 171.201 163.583 171.546C163.796 171.883 163.902 172.279 163.902 172.734C163.902 173.167 163.799 173.563 163.594 173.922C163.389 174.274 163.081 174.553 162.67 174.758C162.259 174.963 161.739 175.066 161.108 175.066ZM166.11 175L169.432 167.652L169.674 168.004H164.911L165.318 167.619V169.445H164.537V167.3H170.191V167.861L166.968 175H166.11Z" fill="#63C714"/>
<rect width="38" height="20" transform="translate(142 105)" fill="#F3FCEC"/>
<path d="M152.587 120.32V109.98H153.137V120.32H152.587ZM152.818 119.066C152.246 119.066 151.696 118.974 151.168 118.791C150.648 118.6 150.244 118.358 149.958 118.065L150.277 117.438C150.549 117.702 150.912 117.926 151.366 118.109C151.828 118.285 152.312 118.373 152.818 118.373C153.302 118.373 153.695 118.314 153.995 118.197C154.303 118.072 154.527 117.907 154.666 117.702C154.813 117.497 154.886 117.269 154.886 117.02C154.886 116.719 154.798 116.477 154.622 116.294C154.454 116.111 154.23 115.968 153.951 115.865C153.673 115.755 153.365 115.66 153.027 115.579C152.69 115.498 152.353 115.414 152.015 115.326C151.678 115.231 151.366 115.106 151.08 114.952C150.802 114.798 150.574 114.596 150.398 114.347C150.23 114.09 150.145 113.757 150.145 113.346C150.145 112.965 150.244 112.616 150.442 112.301C150.648 111.978 150.959 111.722 151.377 111.531C151.795 111.333 152.331 111.234 152.983 111.234C153.416 111.234 153.845 111.296 154.27 111.421C154.696 111.538 155.062 111.703 155.37 111.916L155.095 112.565C154.765 112.345 154.413 112.184 154.039 112.081C153.673 111.978 153.317 111.927 152.972 111.927C152.51 111.927 152.129 111.989 151.828 112.114C151.528 112.239 151.304 112.407 151.157 112.62C151.018 112.825 150.948 113.06 150.948 113.324C150.948 113.625 151.033 113.867 151.201 114.05C151.377 114.233 151.605 114.376 151.883 114.479C152.169 114.582 152.481 114.673 152.818 114.754C153.156 114.835 153.489 114.923 153.819 115.018C154.157 115.113 154.465 115.238 154.743 115.392C155.029 115.539 155.257 115.737 155.425 115.986C155.601 116.235 155.689 116.562 155.689 116.965C155.689 117.339 155.587 117.687 155.381 118.01C155.176 118.325 154.861 118.582 154.435 118.78C154.017 118.971 153.478 119.066 152.818 119.066ZM158.016 119V111.63L158.368 112.004H156.201V111.3H158.808V119H158.016ZM160.505 119V118.439L163.706 115.304C164 115.018 164.22 114.769 164.366 114.556C164.513 114.336 164.612 114.131 164.663 113.94C164.715 113.749 164.74 113.57 164.74 113.401C164.74 112.954 164.586 112.602 164.278 112.345C163.978 112.088 163.53 111.96 162.936 111.96C162.482 111.96 162.078 112.03 161.726 112.169C161.382 112.308 161.085 112.525 160.835 112.818L160.274 112.334C160.575 111.982 160.96 111.711 161.429 111.52C161.899 111.329 162.423 111.234 163.002 111.234C163.523 111.234 163.974 111.318 164.355 111.487C164.737 111.648 165.03 111.887 165.235 112.202C165.448 112.517 165.554 112.888 165.554 113.313C165.554 113.562 165.518 113.808 165.444 114.05C165.378 114.292 165.254 114.549 165.07 114.82C164.894 115.084 164.634 115.385 164.289 115.722L161.352 118.604L161.132 118.296H165.906V119H160.505ZM169.331 119.066C168.781 119.066 168.257 118.978 167.758 118.802C167.259 118.619 166.863 118.377 166.57 118.076L166.955 117.449C167.197 117.706 167.527 117.918 167.945 118.087C168.37 118.256 168.829 118.34 169.32 118.34C169.973 118.34 170.468 118.197 170.805 117.911C171.15 117.618 171.322 117.236 171.322 116.767C171.322 116.437 171.241 116.155 171.08 115.92C170.926 115.678 170.662 115.491 170.288 115.359C169.914 115.227 169.401 115.161 168.748 115.161H167.109L167.505 111.3H171.718V112.004H167.824L168.231 111.619L167.89 114.853L167.483 114.457H168.924C169.701 114.457 170.325 114.552 170.794 114.743C171.263 114.934 171.601 115.201 171.806 115.546C172.019 115.883 172.125 116.279 172.125 116.734C172.125 117.167 172.022 117.563 171.817 117.922C171.612 118.274 171.304 118.553 170.893 118.758C170.482 118.963 169.962 119.066 169.331 119.066Z" fill="#63C714"/>
<rect width="38" height="20" transform="translate(142 77)" fill="#F3FCEC"/>
<path d="M151.97 92.32V81.98H152.52V92.32H151.97ZM152.201 91.066C151.629 91.066 151.079 90.9743 150.551 90.791C150.03 90.6003 149.627 90.3583 149.341 90.065L149.66 89.438C149.931 89.702 150.294 89.9257 150.749 90.109C151.211 90.285 151.695 90.373 152.201 90.373C152.685 90.373 153.077 90.3143 153.378 90.197C153.686 90.0723 153.909 89.9073 154.049 89.702C154.195 89.4967 154.269 89.2693 154.269 89.02C154.269 88.7193 154.181 88.4773 154.005 88.294C153.836 88.1107 153.612 87.9677 153.334 87.865C153.055 87.755 152.747 87.6597 152.41 87.579C152.072 87.4983 151.735 87.414 151.398 87.326C151.06 87.2307 150.749 87.106 150.463 86.952C150.184 86.798 149.957 86.5963 149.781 86.347C149.612 86.0903 149.528 85.7567 149.528 85.346C149.528 84.9647 149.627 84.6163 149.825 84.301C150.03 83.9783 150.342 83.7217 150.76 83.531C151.178 83.333 151.713 83.234 152.366 83.234C152.798 83.234 153.227 83.2963 153.653 83.421C154.078 83.5383 154.445 83.7033 154.753 83.916L154.478 84.565C154.148 84.345 153.796 84.1837 153.422 84.081C153.055 83.9783 152.699 83.927 152.355 83.927C151.893 83.927 151.511 83.9893 151.211 84.114C150.91 84.2387 150.686 84.4073 150.54 84.62C150.4 84.8253 150.331 85.06 150.331 85.324C150.331 85.6247 150.415 85.8667 150.584 86.05C150.76 86.2333 150.987 86.3763 151.266 86.479C151.552 86.5817 151.863 86.6733 152.201 86.754C152.538 86.8347 152.872 86.9227 153.202 87.018C153.539 87.1133 153.847 87.238 154.126 87.392C154.412 87.5387 154.639 87.7367 154.808 87.986C154.984 88.2353 155.072 88.5617 155.072 88.965C155.072 89.339 154.969 89.6873 154.764 90.01C154.558 90.3253 154.243 90.582 153.818 90.78C153.4 90.9707 152.861 91.066 152.201 91.066ZM157.398 91V83.63L157.75 84.004H155.583V83.3H158.19V91H157.398ZM162.956 91.066C162.34 91.066 161.809 90.978 161.361 90.802C160.921 90.626 160.58 90.373 160.338 90.043C160.104 89.7057 159.986 89.3097 159.986 88.855C159.986 88.415 160.1 88.041 160.327 87.733C160.562 87.4177 160.899 87.1757 161.339 87.007C161.787 86.8383 162.326 86.754 162.956 86.754C163.58 86.754 164.115 86.8383 164.562 87.007C165.01 87.1757 165.351 87.4177 165.585 87.733C165.827 88.041 165.948 88.415 165.948 88.855C165.948 89.3097 165.827 89.7057 165.585 90.043C165.343 90.373 164.999 90.626 164.551 90.802C164.104 90.978 163.572 91.066 162.956 91.066ZM162.956 90.395C163.638 90.395 164.17 90.2557 164.551 89.977C164.94 89.6983 165.134 89.3207 165.134 88.844C165.134 88.3673 164.94 87.9933 164.551 87.722C164.17 87.4433 163.638 87.304 162.956 87.304C162.274 87.304 161.743 87.4433 161.361 87.722C160.98 87.9933 160.789 88.3673 160.789 88.844C160.789 89.3207 160.98 89.6983 161.361 89.977C161.743 90.2557 162.274 90.395 162.956 90.395ZM162.956 87.205C162.384 87.205 161.897 87.128 161.493 86.974C161.097 86.82 160.793 86.6 160.58 86.314C160.368 86.0207 160.261 85.6723 160.261 85.269C160.261 84.8437 160.371 84.4807 160.591 84.18C160.819 83.872 161.134 83.6373 161.537 83.476C161.941 83.3147 162.414 83.234 162.956 83.234C163.499 83.234 163.972 83.3147 164.375 83.476C164.786 83.6373 165.105 83.872 165.332 84.18C165.56 84.4807 165.673 84.8437 165.673 85.269C165.673 85.6723 165.567 86.0207 165.354 86.314C165.142 86.6 164.83 86.82 164.419 86.974C164.016 87.128 163.528 87.205 162.956 87.205ZM162.956 86.677C163.558 86.677 164.027 86.5523 164.364 86.303C164.702 86.0537 164.87 85.72 164.87 85.302C164.87 84.862 164.694 84.521 164.342 84.279C163.998 84.0297 163.536 83.905 162.956 83.905C162.377 83.905 161.915 84.0297 161.57 84.279C161.226 84.521 161.053 84.8583 161.053 85.291C161.053 85.7163 161.218 86.0537 161.548 86.303C161.886 86.5523 162.355 86.677 162.956 86.677ZM169.443 83.234C170.125 83.234 170.701 83.388 171.17 83.696C171.639 83.9967 171.995 84.433 172.237 85.005C172.479 85.577 172.6 86.27 172.6 87.084C172.6 87.9493 172.45 88.679 172.149 89.273C171.856 89.867 171.445 90.3143 170.917 90.615C170.389 90.9157 169.777 91.066 169.08 91.066C168.735 91.066 168.405 91.033 168.09 90.967C167.782 90.901 167.503 90.7947 167.254 90.648L167.573 90.01C167.771 90.142 167.998 90.2373 168.255 90.296C168.519 90.3473 168.79 90.373 169.069 90.373C169.898 90.373 170.558 90.109 171.049 89.581C171.548 89.053 171.797 88.2647 171.797 87.216C171.797 87.0473 171.786 86.8457 171.764 86.611C171.749 86.3763 171.709 86.1417 171.643 85.907L171.918 86.116C171.845 86.4973 171.687 86.8237 171.445 87.095C171.21 87.359 170.917 87.5607 170.565 87.7C170.22 87.8393 169.835 87.909 169.41 87.909C168.904 87.909 168.453 87.8137 168.057 87.623C167.668 87.4323 167.364 87.1647 167.144 86.82C166.924 86.4753 166.814 86.0683 166.814 85.599C166.814 85.115 166.928 84.697 167.155 84.345C167.382 83.993 167.694 83.7217 168.09 83.531C168.493 83.333 168.944 83.234 169.443 83.234ZM169.476 83.905C169.109 83.905 168.783 83.9747 168.497 84.114C168.218 84.246 167.998 84.4367 167.837 84.686C167.676 84.9353 167.595 85.2323 167.595 85.577C167.595 86.083 167.767 86.4863 168.112 86.787C168.464 87.0877 168.937 87.238 169.531 87.238C169.927 87.238 170.272 87.1647 170.565 87.018C170.866 86.8713 171.097 86.6697 171.258 86.413C171.427 86.1563 171.511 85.8703 171.511 85.555C171.511 85.269 171.434 85.0013 171.28 84.752C171.126 84.5027 170.899 84.301 170.598 84.147C170.297 83.9857 169.923 83.905 169.476 83.905Z" fill="#63C714"/>
<path d="M106.295 148.32V137.98H106.845V148.32H106.295ZM106.526 147.066C105.954 147.066 105.404 146.974 104.876 146.791C104.356 146.6 103.952 146.358 103.666 146.065L103.985 145.438C104.257 145.702 104.62 145.926 105.074 146.109C105.536 146.285 106.02 146.373 106.526 146.373C107.01 146.373 107.403 146.314 107.703 146.197C108.011 146.072 108.235 145.907 108.374 145.702C108.521 145.497 108.594 145.269 108.594 145.02C108.594 144.719 108.506 144.477 108.33 144.294C108.162 144.111 107.938 143.968 107.659 143.865C107.381 143.755 107.073 143.66 106.735 143.579C106.398 143.498 106.061 143.414 105.723 143.326C105.386 143.231 105.074 143.106 104.788 142.952C104.51 142.798 104.282 142.596 104.106 142.347C103.938 142.09 103.853 141.757 103.853 141.346C103.853 140.965 103.952 140.616 104.15 140.301C104.356 139.978 104.667 139.722 105.085 139.531C105.503 139.333 106.039 139.234 106.691 139.234C107.124 139.234 107.553 139.296 107.978 139.421C108.404 139.538 108.77 139.703 109.078 139.916L108.803 140.565C108.473 140.345 108.121 140.184 107.747 140.081C107.381 139.978 107.025 139.927 106.68 139.927C106.218 139.927 105.837 139.989 105.536 140.114C105.236 140.239 105.012 140.407 104.865 140.62C104.726 140.825 104.656 141.06 104.656 141.324C104.656 141.625 104.741 141.867 104.909 142.05C105.085 142.233 105.313 142.376 105.591 142.479C105.877 142.582 106.189 142.673 106.526 142.754C106.864 142.835 107.197 142.923 107.527 143.018C107.865 143.113 108.173 143.238 108.451 143.392C108.737 143.539 108.965 143.737 109.133 143.986C109.309 144.235 109.397 144.562 109.397 144.965C109.397 145.339 109.295 145.687 109.089 146.01C108.884 146.325 108.569 146.582 108.143 146.78C107.725 146.971 107.186 147.066 106.526 147.066ZM112.92 147.066C112.37 147.066 111.846 146.978 111.347 146.802C110.848 146.619 110.452 146.377 110.159 146.076L110.544 145.449C110.786 145.706 111.116 145.918 111.534 146.087C111.959 146.256 112.418 146.34 112.909 146.34C113.562 146.34 114.057 146.197 114.394 145.911C114.739 145.618 114.911 145.236 114.911 144.767C114.911 144.437 114.83 144.155 114.669 143.92C114.515 143.678 114.251 143.491 113.877 143.359C113.503 143.227 112.99 143.161 112.337 143.161H110.698L111.094 139.3H115.307V140.004H111.413L111.82 139.619L111.479 142.853L111.072 142.457H112.513C113.29 142.457 113.914 142.552 114.383 142.743C114.852 142.934 115.19 143.201 115.395 143.546C115.608 143.883 115.714 144.279 115.714 144.734C115.714 145.167 115.611 145.563 115.406 145.922C115.201 146.274 114.893 146.553 114.482 146.758C114.071 146.963 113.551 147.066 112.92 147.066ZM119.117 139.234C119.799 139.234 120.375 139.388 120.844 139.696C121.314 139.997 121.669 140.433 121.911 141.005C122.153 141.577 122.274 142.27 122.274 143.084C122.274 143.949 122.124 144.679 121.823 145.273C121.53 145.867 121.119 146.314 120.591 146.615C120.063 146.916 119.451 147.066 118.754 147.066C118.41 147.066 118.08 147.033 117.764 146.967C117.456 146.901 117.178 146.795 116.928 146.648L117.247 146.01C117.445 146.142 117.673 146.237 117.929 146.296C118.193 146.347 118.465 146.373 118.743 146.373C119.572 146.373 120.232 146.109 120.723 145.581C121.222 145.053 121.471 144.265 121.471 143.216C121.471 143.047 121.46 142.846 121.438 142.611C121.424 142.376 121.383 142.142 121.317 141.907L121.592 142.116C121.519 142.497 121.361 142.824 121.119 143.095C120.885 143.359 120.591 143.561 120.239 143.7C119.895 143.839 119.51 143.909 119.084 143.909C118.578 143.909 118.127 143.814 117.731 143.623C117.343 143.432 117.038 143.165 116.818 142.82C116.598 142.475 116.488 142.068 116.488 141.599C116.488 141.115 116.602 140.697 116.829 140.345C117.057 139.993 117.368 139.722 117.764 139.531C118.168 139.333 118.619 139.234 119.117 139.234ZM119.15 139.905C118.784 139.905 118.457 139.975 118.171 140.114C117.893 140.246 117.673 140.437 117.511 140.686C117.35 140.935 117.269 141.232 117.269 141.577C117.269 142.083 117.442 142.486 117.786 142.787C118.138 143.088 118.611 143.238 119.205 143.238C119.601 143.238 119.946 143.165 120.239 143.018C120.54 142.871 120.771 142.67 120.932 142.413C121.101 142.156 121.185 141.87 121.185 141.555C121.185 141.269 121.108 141.001 120.954 140.752C120.8 140.503 120.573 140.301 120.272 140.147C119.972 139.986 119.598 139.905 119.15 139.905Z" fill="#636370"/>
<path d="M104.297 64.32V53.98H104.847V64.32H104.297ZM104.528 63.066C103.956 63.066 103.406 62.9743 102.878 62.791C102.358 62.6003 101.954 62.3583 101.668 62.065L101.987 61.438C102.259 61.702 102.622 61.9257 103.076 62.109C103.538 62.285 104.022 62.373 104.528 62.373C105.012 62.373 105.405 62.3143 105.705 62.197C106.013 62.0723 106.237 61.9073 106.376 61.702C106.523 61.4967 106.596 61.2693 106.596 61.02C106.596 60.7193 106.508 60.4773 106.332 60.294C106.164 60.1107 105.94 59.9677 105.661 59.865C105.383 59.755 105.075 59.6597 104.737 59.579C104.4 59.4983 104.063 59.414 103.725 59.326C103.388 59.2307 103.076 59.106 102.79 58.952C102.512 58.798 102.284 58.5963 102.108 58.347C101.94 58.0903 101.855 57.7567 101.855 57.346C101.855 56.9647 101.954 56.6163 102.152 56.301C102.358 55.9783 102.669 55.7217 103.087 55.531C103.505 55.333 104.041 55.234 104.693 55.234C105.126 55.234 105.555 55.2963 105.98 55.421C106.406 55.5383 106.772 55.7033 107.08 55.916L106.805 56.565C106.475 56.345 106.123 56.1837 105.749 56.081C105.383 55.9783 105.027 55.927 104.682 55.927C104.22 55.927 103.839 55.9893 103.538 56.114C103.238 56.2387 103.014 56.4073 102.867 56.62C102.728 56.8253 102.658 57.06 102.658 57.324C102.658 57.6247 102.743 57.8667 102.911 58.05C103.087 58.2333 103.315 58.3763 103.593 58.479C103.879 58.5817 104.191 58.6733 104.528 58.754C104.866 58.8347 105.199 58.9227 105.529 59.018C105.867 59.1133 106.175 59.238 106.453 59.392C106.739 59.5387 106.967 59.7367 107.135 59.986C107.311 60.2353 107.399 60.5617 107.399 60.965C107.399 61.339 107.297 61.6873 107.091 62.01C106.886 62.3253 106.571 62.582 106.145 62.78C105.727 62.9707 105.188 63.066 104.528 63.066ZM108.348 63V62.439L111.549 59.304C111.842 59.018 112.062 58.7687 112.209 58.556C112.356 58.336 112.455 58.1307 112.506 57.94C112.557 57.7493 112.583 57.5697 112.583 57.401C112.583 56.9537 112.429 56.6017 112.121 56.345C111.82 56.0883 111.373 55.96 110.779 55.96C110.324 55.96 109.921 56.0297 109.569 56.169C109.224 56.3083 108.927 56.5247 108.678 56.818L108.117 56.334C108.418 55.982 108.803 55.7107 109.272 55.52C109.741 55.3293 110.266 55.234 110.845 55.234C111.366 55.234 111.817 55.3183 112.198 55.487C112.579 55.6483 112.873 55.8867 113.078 56.202C113.291 56.5173 113.397 56.8877 113.397 57.313C113.397 57.5623 113.36 57.808 113.287 58.05C113.221 58.292 113.096 58.5487 112.913 58.82C112.737 59.084 112.477 59.3847 112.132 59.722L109.195 62.604L108.975 62.296H113.749V63H108.348ZM116.085 63V55.63L116.437 56.004H114.27V55.3H116.877V63H116.085ZM121.116 55.234C121.798 55.234 122.373 55.388 122.843 55.696C123.312 55.9967 123.668 56.433 123.91 57.005C124.152 57.577 124.273 58.27 124.273 59.084C124.273 59.9493 124.122 60.679 123.822 61.273C123.528 61.867 123.118 62.3143 122.59 62.615C122.062 62.9157 121.449 63.066 120.753 63.066C120.408 63.066 120.078 63.033 119.763 62.967C119.455 62.901 119.176 62.7947 118.927 62.648L119.246 62.01C119.444 62.142 119.671 62.2373 119.928 62.296C120.192 62.3473 120.463 62.373 120.742 62.373C121.57 62.373 122.23 62.109 122.722 61.581C123.22 61.053 123.47 60.2647 123.47 59.216C123.47 59.0473 123.459 58.8457 123.437 58.611C123.422 58.3763 123.382 58.1417 123.316 57.907L123.591 58.116C123.517 58.4973 123.36 58.8237 123.118 59.095C122.883 59.359 122.59 59.5607 122.238 59.7C121.893 59.8393 121.508 59.909 121.083 59.909C120.577 59.909 120.126 59.8137 119.73 59.623C119.341 59.4323 119.037 59.1647 118.817 58.82C118.597 58.4753 118.487 58.0683 118.487 57.599C118.487 57.115 118.6 56.697 118.828 56.345C119.055 55.993 119.367 55.7217 119.763 55.531C120.166 55.333 120.617 55.234 121.116 55.234ZM121.149 55.905C120.782 55.905 120.456 55.9747 120.17 56.114C119.891 56.246 119.671 56.4367 119.51 56.686C119.348 56.9353 119.268 57.2323 119.268 57.577C119.268 58.083 119.44 58.4863 119.785 58.787C120.137 59.0877 120.61 59.238 121.204 59.238C121.6 59.238 121.944 59.1647 122.238 59.018C122.538 58.8713 122.769 58.6697 122.931 58.413C123.099 58.1563 123.184 57.8703 123.184 57.555C123.184 57.269 123.107 57.0013 122.953 56.752C122.799 56.5027 122.571 56.301 122.271 56.147C121.97 55.9857 121.596 55.905 121.149 55.905Z" fill="#636370"/>
<path d="M103.884 92.32V81.98H104.434V92.32H103.884ZM104.115 91.066C103.543 91.066 102.993 90.9743 102.465 90.791C101.944 90.6003 101.541 90.3583 101.255 90.065L101.574 89.438C101.845 89.702 102.208 89.9257 102.663 90.109C103.125 90.285 103.609 90.373 104.115 90.373C104.599 90.373 104.991 90.3143 105.292 90.197C105.6 90.0723 105.823 89.9073 105.963 89.702C106.109 89.4967 106.183 89.2693 106.183 89.02C106.183 88.7193 106.095 88.4773 105.919 88.294C105.75 88.1107 105.526 87.9677 105.248 87.865C104.969 87.755 104.661 87.6597 104.324 87.579C103.986 87.4983 103.649 87.414 103.312 87.326C102.974 87.2307 102.663 87.106 102.377 86.952C102.098 86.798 101.871 86.5963 101.695 86.347C101.526 86.0903 101.442 85.7567 101.442 85.346C101.442 84.9647 101.541 84.6163 101.739 84.301C101.944 83.9783 102.256 83.7217 102.674 83.531C103.092 83.333 103.627 83.234 104.28 83.234C104.712 83.234 105.141 83.2963 105.567 83.421C105.992 83.5383 106.359 83.7033 106.667 83.916L106.392 84.565C106.062 84.345 105.71 84.1837 105.336 84.081C104.969 83.9783 104.613 83.927 104.269 83.927C103.807 83.927 103.425 83.9893 103.125 84.114C102.824 84.2387 102.6 84.4073 102.454 84.62C102.314 84.8253 102.245 85.06 102.245 85.324C102.245 85.6247 102.329 85.8667 102.498 86.05C102.674 86.2333 102.901 86.3763 103.18 86.479C103.466 86.5817 103.777 86.6733 104.115 86.754C104.452 86.8347 104.786 86.9227 105.116 87.018C105.453 87.1133 105.761 87.238 106.04 87.392C106.326 87.5387 106.553 87.7367 106.722 87.986C106.898 88.2353 106.986 88.5617 106.986 88.965C106.986 89.339 106.883 89.6873 106.678 90.01C106.472 90.3253 106.157 90.582 105.732 90.78C105.314 90.9707 104.775 91.066 104.115 91.066ZM109.312 91V83.63L109.664 84.004H107.497V83.3H110.104V91H109.312ZM111.813 88.976V88.404L115.894 83.3H116.774L112.726 88.404L112.297 88.272H118.49V88.976H111.813ZM116.158 91V88.976L116.18 88.272V86.49H116.95V91H116.158ZM121.529 83.234C122.211 83.234 122.787 83.388 123.256 83.696C123.725 83.9967 124.081 84.433 124.323 85.005C124.565 85.577 124.686 86.27 124.686 87.084C124.686 87.9493 124.536 88.679 124.235 89.273C123.942 89.867 123.531 90.3143 123.003 90.615C122.475 90.9157 121.863 91.066 121.166 91.066C120.821 91.066 120.491 91.033 120.176 90.967C119.868 90.901 119.589 90.7947 119.34 90.648L119.659 90.01C119.857 90.142 120.084 90.2373 120.341 90.296C120.605 90.3473 120.876 90.373 121.155 90.373C121.984 90.373 122.644 90.109 123.135 89.581C123.634 89.053 123.883 88.2647 123.883 87.216C123.883 87.0473 123.872 86.8457 123.85 86.611C123.835 86.3763 123.795 86.1417 123.729 85.907L124.004 86.116C123.931 86.4973 123.773 86.8237 123.531 87.095C123.296 87.359 123.003 87.5607 122.651 87.7C122.306 87.8393 121.921 87.909 121.496 87.909C120.99 87.909 120.539 87.8137 120.143 87.623C119.754 87.4323 119.45 87.1647 119.23 86.82C119.01 86.4753 118.9 86.0683 118.9 85.599C118.9 85.115 119.014 84.697 119.241 84.345C119.468 83.993 119.78 83.7217 120.176 83.531C120.579 83.333 121.03 83.234 121.529 83.234ZM121.562 83.905C121.195 83.905 120.869 83.9747 120.583 84.114C120.304 84.246 120.084 84.4367 119.923 84.686C119.762 84.9353 119.681 85.2323 119.681 85.577C119.681 86.083 119.853 86.4863 120.198 86.787C120.55 87.0877 121.023 87.238 121.617 87.238C122.013 87.238 122.358 87.1647 122.651 87.018C122.952 86.8713 123.183 86.6697 123.344 86.413C123.513 86.1563 123.597 85.8703 123.597 85.555C123.597 85.269 123.52 85.0013 123.366 84.752C123.212 84.5027 122.985 84.301 122.684 84.147C122.383 83.9857 122.009 83.905 121.562 83.905Z" fill="#636370"/>
<path d="M106.113 120.32V109.98H106.663V120.32H106.113ZM106.344 119.066C105.772 119.066 105.222 118.974 104.694 118.791C104.173 118.6 103.77 118.358 103.484 118.065L103.803 117.438C104.074 117.702 104.437 117.926 104.892 118.109C105.354 118.285 105.838 118.373 106.344 118.373C106.828 118.373 107.22 118.314 107.521 118.197C107.829 118.072 108.052 117.907 108.192 117.702C108.338 117.497 108.412 117.269 108.412 117.02C108.412 116.719 108.324 116.477 108.148 116.294C107.979 116.111 107.755 115.968 107.477 115.865C107.198 115.755 106.89 115.66 106.553 115.579C106.215 115.498 105.878 115.414 105.541 115.326C105.203 115.231 104.892 115.106 104.606 114.952C104.327 114.798 104.1 114.596 103.924 114.347C103.755 114.09 103.671 113.757 103.671 113.346C103.671 112.965 103.77 112.616 103.968 112.301C104.173 111.978 104.485 111.722 104.903 111.531C105.321 111.333 105.856 111.234 106.509 111.234C106.941 111.234 107.37 111.296 107.796 111.421C108.221 111.538 108.588 111.703 108.896 111.916L108.621 112.565C108.291 112.345 107.939 112.184 107.565 112.081C107.198 111.978 106.842 111.927 106.498 111.927C106.036 111.927 105.654 111.989 105.354 112.114C105.053 112.239 104.829 112.407 104.683 112.62C104.543 112.825 104.474 113.06 104.474 113.324C104.474 113.625 104.558 113.867 104.727 114.05C104.903 114.233 105.13 114.376 105.409 114.479C105.695 114.582 106.006 114.673 106.344 114.754C106.681 114.835 107.015 114.923 107.345 115.018C107.682 115.113 107.99 115.238 108.269 115.392C108.555 115.539 108.782 115.737 108.951 115.986C109.127 116.235 109.215 116.562 109.215 116.965C109.215 117.339 109.112 117.687 108.907 118.01C108.701 118.325 108.386 118.582 107.961 118.78C107.543 118.971 107.004 119.066 106.344 119.066ZM112.597 111.234C113.279 111.234 113.855 111.388 114.324 111.696C114.793 111.997 115.149 112.433 115.391 113.005C115.633 113.577 115.754 114.27 115.754 115.084C115.754 115.949 115.604 116.679 115.303 117.273C115.01 117.867 114.599 118.314 114.071 118.615C113.543 118.916 112.931 119.066 112.234 119.066C111.889 119.066 111.559 119.033 111.244 118.967C110.936 118.901 110.657 118.795 110.408 118.648L110.727 118.01C110.925 118.142 111.152 118.237 111.409 118.296C111.673 118.347 111.944 118.373 112.223 118.373C113.052 118.373 113.712 118.109 114.203 117.581C114.702 117.053 114.951 116.265 114.951 115.216C114.951 115.047 114.94 114.846 114.918 114.611C114.903 114.376 114.863 114.142 114.797 113.907L115.072 114.116C114.999 114.497 114.841 114.824 114.599 115.095C114.364 115.359 114.071 115.561 113.719 115.7C113.374 115.839 112.989 115.909 112.564 115.909C112.058 115.909 111.607 115.814 111.211 115.623C110.822 115.432 110.518 115.165 110.298 114.82C110.078 114.475 109.968 114.068 109.968 113.599C109.968 113.115 110.082 112.697 110.309 112.345C110.536 111.993 110.848 111.722 111.244 111.531C111.647 111.333 112.098 111.234 112.597 111.234ZM112.63 111.905C112.263 111.905 111.937 111.975 111.651 112.114C111.372 112.246 111.152 112.437 110.991 112.686C110.83 112.935 110.749 113.232 110.749 113.577C110.749 114.083 110.921 114.486 111.266 114.787C111.618 115.088 112.091 115.238 112.685 115.238C113.081 115.238 113.426 115.165 113.719 115.018C114.02 114.871 114.251 114.67 114.412 114.413C114.581 114.156 114.665 113.87 114.665 113.555C114.665 113.269 114.588 113.001 114.434 112.752C114.28 112.503 114.053 112.301 113.752 112.147C113.451 111.986 113.077 111.905 112.63 111.905ZM119.3 111.234C119.982 111.234 120.558 111.388 121.027 111.696C121.496 111.997 121.852 112.433 122.094 113.005C122.336 113.577 122.457 114.27 122.457 115.084C122.457 115.949 122.307 116.679 122.006 117.273C121.713 117.867 121.302 118.314 120.774 118.615C120.246 118.916 119.634 119.066 118.937 119.066C118.592 119.066 118.262 119.033 117.947 118.967C117.639 118.901 117.36 118.795 117.111 118.648L117.43 118.01C117.628 118.142 117.855 118.237 118.112 118.296C118.376 118.347 118.647 118.373 118.926 118.373C119.755 118.373 120.415 118.109 120.906 117.581C121.405 117.053 121.654 116.265 121.654 115.216C121.654 115.047 121.643 114.846 121.621 114.611C121.606 114.376 121.566 114.142 121.5 113.907L121.775 114.116C121.702 114.497 121.544 114.824 121.302 115.095C121.067 115.359 120.774 115.561 120.422 115.7C120.077 115.839 119.692 115.909 119.267 115.909C118.761 115.909 118.31 115.814 117.914 115.623C117.525 115.432 117.221 115.165 117.001 114.82C116.781 114.475 116.671 114.068 116.671 113.599C116.671 113.115 116.785 112.697 117.012 112.345C117.239 111.993 117.551 111.722 117.947 111.531C118.35 111.333 118.801 111.234 119.3 111.234ZM119.333 111.905C118.966 111.905 118.64 111.975 118.354 112.114C118.075 112.246 117.855 112.437 117.694 112.686C117.533 112.935 117.452 113.232 117.452 113.577C117.452 114.083 117.624 114.486 117.969 114.787C118.321 115.088 118.794 115.238 119.388 115.238C119.784 115.238 120.129 115.165 120.422 115.018C120.723 114.871 120.954 114.67 121.115 114.413C121.284 114.156 121.368 113.87 121.368 113.555C121.368 113.269 121.291 113.001 121.137 112.752C120.983 112.503 120.756 112.301 120.455 112.147C120.154 111.986 119.78 111.905 119.333 111.905Z" fill="#636370"/>
<path d="M106.349 176.32V165.98H106.899V176.32H106.349ZM106.58 175.066C106.008 175.066 105.458 174.974 104.93 174.791C104.409 174.6 104.006 174.358 103.72 174.065L104.039 173.438C104.31 173.702 104.673 173.926 105.128 174.109C105.59 174.285 106.074 174.373 106.58 174.373C107.064 174.373 107.456 174.314 107.757 174.197C108.065 174.072 108.289 173.907 108.428 173.702C108.575 173.497 108.648 173.269 108.648 173.02C108.648 172.719 108.56 172.477 108.384 172.294C108.215 172.111 107.992 171.968 107.713 171.865C107.434 171.755 107.126 171.66 106.789 171.579C106.452 171.498 106.114 171.414 105.777 171.326C105.44 171.231 105.128 171.106 104.842 170.952C104.563 170.798 104.336 170.596 104.16 170.347C103.991 170.09 103.907 169.757 103.907 169.346C103.907 168.965 104.006 168.616 104.204 168.301C104.409 167.978 104.721 167.722 105.139 167.531C105.557 167.333 106.092 167.234 106.745 167.234C107.178 167.234 107.607 167.296 108.032 167.421C108.457 167.538 108.824 167.703 109.132 167.916L108.857 168.565C108.527 168.345 108.175 168.184 107.801 168.081C107.434 167.978 107.079 167.927 106.734 167.927C106.272 167.927 105.891 167.989 105.59 168.114C105.289 168.239 105.066 168.407 104.919 168.62C104.78 168.825 104.71 169.06 104.71 169.324C104.71 169.625 104.794 169.867 104.963 170.05C105.139 170.233 105.366 170.376 105.645 170.479C105.931 170.582 106.243 170.673 106.58 170.754C106.917 170.835 107.251 170.923 107.581 171.018C107.918 171.113 108.226 171.238 108.505 171.392C108.791 171.539 109.018 171.737 109.187 171.986C109.363 172.235 109.451 172.562 109.451 172.965C109.451 173.339 109.348 173.687 109.143 174.01C108.938 174.325 108.622 174.582 108.197 174.78C107.779 174.971 107.24 175.066 106.58 175.066ZM112.756 175.066C112.198 175.066 111.67 174.978 111.172 174.802C110.68 174.619 110.284 174.377 109.984 174.076L110.369 173.449C110.618 173.706 110.952 173.918 111.37 174.087C111.795 174.256 112.257 174.34 112.756 174.34C113.394 174.34 113.881 174.201 114.219 173.922C114.563 173.643 114.736 173.269 114.736 172.8C114.736 172.331 114.567 171.957 114.23 171.678C113.9 171.399 113.375 171.26 112.657 171.26H112.107V170.677L114.483 167.696L114.593 168.004H110.303V167.3H115.253V167.861L112.877 170.842L112.492 170.589H112.789C113.713 170.589 114.402 170.794 114.857 171.205C115.319 171.616 115.55 172.144 115.55 172.789C115.55 173.222 115.447 173.61 115.242 173.955C115.036 174.3 114.725 174.571 114.307 174.769C113.896 174.967 113.379 175.066 112.756 175.066ZM119.064 167.234C119.746 167.234 120.321 167.388 120.791 167.696C121.26 167.997 121.616 168.433 121.858 169.005C122.1 169.577 122.221 170.27 122.221 171.084C122.221 171.949 122.07 172.679 121.77 173.273C121.476 173.867 121.066 174.314 120.538 174.615C120.01 174.916 119.397 175.066 118.701 175.066C118.356 175.066 118.026 175.033 117.711 174.967C117.403 174.901 117.124 174.795 116.875 174.648L117.194 174.01C117.392 174.142 117.619 174.237 117.876 174.296C118.14 174.347 118.411 174.373 118.69 174.373C119.518 174.373 120.178 174.109 120.67 173.581C121.168 173.053 121.418 172.265 121.418 171.216C121.418 171.047 121.407 170.846 121.385 170.611C121.37 170.376 121.33 170.142 121.264 169.907L121.539 170.116C121.465 170.497 121.308 170.824 121.066 171.095C120.831 171.359 120.538 171.561 120.186 171.7C119.841 171.839 119.456 171.909 119.031 171.909C118.525 171.909 118.074 171.814 117.678 171.623C117.289 171.432 116.985 171.165 116.765 170.82C116.545 170.475 116.435 170.068 116.435 169.599C116.435 169.115 116.548 168.697 116.776 168.345C117.003 167.993 117.315 167.722 117.711 167.531C118.114 167.333 118.565 167.234 119.064 167.234ZM119.097 167.905C118.73 167.905 118.404 167.975 118.118 168.114C117.839 168.246 117.619 168.437 117.458 168.686C117.296 168.935 117.216 169.232 117.216 169.577C117.216 170.083 117.388 170.486 117.733 170.787C118.085 171.088 118.558 171.238 119.152 171.238C119.548 171.238 119.892 171.165 120.186 171.018C120.486 170.871 120.717 170.67 120.879 170.413C121.047 170.156 121.132 169.87 121.132 169.555C121.132 169.269 121.055 169.001 120.901 168.752C120.747 168.503 120.519 168.301 120.219 168.147C119.918 167.986 119.544 167.905 119.097 167.905Z" fill="#636370"/>
<path d="M104.125 36.32V25.98H104.675V36.32H104.125ZM104.356 35.066C103.784 35.066 103.234 34.9743 102.706 34.791C102.186 34.6003 101.782 34.3583 101.496 34.065L101.815 33.438C102.087 33.702 102.45 33.9257 102.904 34.109C103.366 34.285 103.85 34.373 104.356 34.373C104.84 34.373 105.233 34.3143 105.533 34.197C105.841 34.0723 106.065 33.9073 106.204 33.702C106.351 33.4967 106.424 33.2693 106.424 33.02C106.424 32.7193 106.336 32.4773 106.16 32.294C105.992 32.1107 105.768 31.9677 105.489 31.865C105.211 31.755 104.903 31.6597 104.565 31.579C104.228 31.4983 103.891 31.414 103.553 31.326C103.216 31.2307 102.904 31.106 102.618 30.952C102.34 30.798 102.112 30.5963 101.936 30.347C101.768 30.0903 101.683 29.7567 101.683 29.346C101.683 28.9647 101.782 28.6163 101.98 28.301C102.186 27.9783 102.497 27.7217 102.915 27.531C103.333 27.333 103.869 27.234 104.521 27.234C104.954 27.234 105.383 27.2963 105.808 27.421C106.234 27.5383 106.6 27.7033 106.908 27.916L106.633 28.565C106.303 28.345 105.951 28.1837 105.577 28.081C105.211 27.9783 104.855 27.927 104.51 27.927C104.048 27.927 103.667 27.9893 103.366 28.114C103.066 28.2387 102.842 28.4073 102.695 28.62C102.556 28.8253 102.486 29.06 102.486 29.324C102.486 29.6247 102.571 29.8667 102.739 30.05C102.915 30.2333 103.143 30.3763 103.421 30.479C103.707 30.5817 104.019 30.6733 104.356 30.754C104.694 30.8347 105.027 30.9227 105.357 31.018C105.695 31.1133 106.003 31.238 106.281 31.392C106.567 31.5387 106.795 31.7367 106.963 31.986C107.139 32.2353 107.227 32.5617 107.227 32.965C107.227 33.339 107.125 33.6873 106.919 34.01C106.714 34.3253 106.399 34.582 105.973 34.78C105.555 34.9707 105.016 35.066 104.356 35.066ZM109.554 35V27.63L109.906 28.004H107.739V27.3H110.346V35H109.554ZM114.584 27.234C115.266 27.234 115.842 27.388 116.311 27.696C116.781 27.9967 117.136 28.433 117.378 29.005C117.62 29.577 117.741 30.27 117.741 31.084C117.741 31.9493 117.591 32.679 117.29 33.273C116.997 33.867 116.586 34.3143 116.058 34.615C115.53 34.9157 114.918 35.066 114.221 35.066C113.877 35.066 113.547 35.033 113.231 34.967C112.923 34.901 112.645 34.7947 112.395 34.648L112.714 34.01C112.912 34.142 113.14 34.2373 113.396 34.296C113.66 34.3473 113.932 34.373 114.21 34.373C115.039 34.373 115.699 34.109 116.19 33.581C116.689 33.053 116.938 32.2647 116.938 31.216C116.938 31.0473 116.927 30.8457 116.905 30.611C116.891 30.3763 116.85 30.1417 116.784 29.907L117.059 30.116C116.986 30.4973 116.828 30.8237 116.586 31.095C116.352 31.359 116.058 31.5607 115.706 31.7C115.362 31.8393 114.977 31.909 114.551 31.909C114.045 31.909 113.594 31.8137 113.198 31.623C112.81 31.4323 112.505 31.1647 112.285 30.82C112.065 30.4753 111.955 30.0683 111.955 29.599C111.955 29.115 112.069 28.697 112.296 28.345C112.524 27.993 112.835 27.7217 113.231 27.531C113.635 27.333 114.086 27.234 114.584 27.234ZM114.617 27.905C114.251 27.905 113.924 27.9747 113.638 28.114C113.36 28.246 113.14 28.4367 112.978 28.686C112.817 28.9353 112.736 29.2323 112.736 29.577C112.736 30.083 112.909 30.4863 113.253 30.787C113.605 31.0877 114.078 31.238 114.672 31.238C115.068 31.238 115.413 31.1647 115.706 31.018C116.007 30.8713 116.238 30.6697 116.399 30.413C116.568 30.1563 116.652 29.8703 116.652 29.555C116.652 29.269 116.575 29.0013 116.421 28.752C116.267 28.5027 116.04 28.301 115.739 28.147C115.439 27.9857 115.065 27.905 114.617 27.905ZM121.287 27.234C121.969 27.234 122.545 27.388 123.014 27.696C123.484 27.9967 123.839 28.433 124.081 29.005C124.323 29.577 124.444 30.27 124.444 31.084C124.444 31.9493 124.294 32.679 123.993 33.273C123.7 33.867 123.289 34.3143 122.761 34.615C122.233 34.9157 121.621 35.066 120.924 35.066C120.58 35.066 120.25 35.033 119.934 34.967C119.626 34.901 119.348 34.7947 119.098 34.648L119.417 34.01C119.615 34.142 119.843 34.2373 120.099 34.296C120.363 34.3473 120.635 34.373 120.913 34.373C121.742 34.373 122.402 34.109 122.893 33.581C123.392 33.053 123.641 32.2647 123.641 31.216C123.641 31.0473 123.63 30.8457 123.608 30.611C123.594 30.3763 123.553 30.1417 123.487 29.907L123.762 30.116C123.689 30.4973 123.531 30.8237 123.289 31.095C123.055 31.359 122.761 31.5607 122.409 31.7C122.065 31.8393 121.68 31.909 121.254 31.909C120.748 31.909 120.297 31.8137 119.901 31.623C119.513 31.4323 119.208 31.1647 118.988 30.82C118.768 30.4753 118.658 30.0683 118.658 29.599C118.658 29.115 118.772 28.697 118.999 28.345C119.227 27.993 119.538 27.7217 119.934 27.531C120.338 27.333 120.789 27.234 121.287 27.234ZM121.32 27.905C120.954 27.905 120.627 27.9747 120.341 28.114C120.063 28.246 119.843 28.4367 119.681 28.686C119.52 28.9353 119.439 29.2323 119.439 29.577C119.439 30.083 119.612 30.4863 119.956 30.787C120.308 31.0877 120.781 31.238 121.375 31.238C121.771 31.238 122.116 31.1647 122.409 31.018C122.71 30.8713 122.941 30.6697 123.102 30.413C123.271 30.1563 123.355 29.8703 123.355 29.555C123.355 29.269 123.278 29.0013 123.124 28.752C122.97 28.5027 122.743 28.301 122.442 28.147C122.142 27.9857 121.768 27.905 121.32 27.905Z" fill="#636370"/>
<path d="M151.433 36.32V25.98H151.983V36.32H151.433ZM151.664 35.066C151.092 35.066 150.542 34.9743 150.014 34.791C149.493 34.6003 149.09 34.3583 148.804 34.065L149.123 33.438C149.394 33.702 149.757 33.9257 150.212 34.109C150.674 34.285 151.158 34.373 151.664 34.373C152.148 34.373 152.54 34.3143 152.841 34.197C153.149 34.0723 153.372 33.9073 153.512 33.702C153.658 33.4967 153.732 33.2693 153.732 33.02C153.732 32.7193 153.644 32.4773 153.468 32.294C153.299 32.1107 153.075 31.9677 152.797 31.865C152.518 31.755 152.21 31.6597 151.873 31.579C151.535 31.4983 151.198 31.414 150.861 31.326C150.523 31.2307 150.212 31.106 149.926 30.952C149.647 30.798 149.42 30.5963 149.244 30.347C149.075 30.0903 148.991 29.7567 148.991 29.346C148.991 28.9647 149.09 28.6163 149.288 28.301C149.493 27.9783 149.805 27.7217 150.223 27.531C150.641 27.333 151.176 27.234 151.829 27.234C152.261 27.234 152.69 27.2963 153.116 27.421C153.541 27.5383 153.908 27.7033 154.216 27.916L153.941 28.565C153.611 28.345 153.259 28.1837 152.885 28.081C152.518 27.9783 152.162 27.927 151.818 27.927C151.356 27.927 150.974 27.9893 150.674 28.114C150.373 28.2387 150.149 28.4073 150.003 28.62C149.863 28.8253 149.794 29.06 149.794 29.324C149.794 29.6247 149.878 29.8667 150.047 30.05C150.223 30.2333 150.45 30.3763 150.729 30.479C151.015 30.5817 151.326 30.6733 151.664 30.754C152.001 30.8347 152.335 30.9227 152.665 31.018C153.002 31.1133 153.31 31.238 153.589 31.392C153.875 31.5387 154.102 31.7367 154.271 31.986C154.447 32.2353 154.535 32.5617 154.535 32.965C154.535 33.339 154.432 33.6873 154.227 34.01C154.021 34.3253 153.706 34.582 153.281 34.78C152.863 34.9707 152.324 35.066 151.664 35.066ZM155.483 35V34.439L158.684 31.304C158.978 31.018 159.198 30.7687 159.344 30.556C159.491 30.336 159.59 30.1307 159.641 29.94C159.693 29.7493 159.718 29.5697 159.718 29.401C159.718 28.9537 159.564 28.6017 159.256 28.345C158.956 28.0883 158.508 27.96 157.914 27.96C157.46 27.96 157.056 28.0297 156.704 28.169C156.36 28.3083 156.063 28.5247 155.813 28.818L155.252 28.334C155.553 27.982 155.938 27.7107 156.407 27.52C156.877 27.3293 157.401 27.234 157.98 27.234C158.501 27.234 158.952 27.3183 159.333 27.487C159.715 27.6483 160.008 27.8867 160.213 28.202C160.426 28.5173 160.532 28.8877 160.532 29.313C160.532 29.5623 160.496 29.808 160.422 30.05C160.356 30.292 160.232 30.5487 160.048 30.82C159.872 31.084 159.612 31.3847 159.267 31.722L156.33 34.604L156.11 34.296H160.884V35H155.483ZM164.309 35.066C163.759 35.066 163.235 34.978 162.736 34.802C162.237 34.6187 161.841 34.3767 161.548 34.076L161.933 33.449C162.175 33.7057 162.505 33.9183 162.923 34.087C163.348 34.2557 163.807 34.34 164.298 34.34C164.951 34.34 165.446 34.197 165.783 33.911C166.128 33.6177 166.3 33.2363 166.3 32.767C166.3 32.437 166.219 32.1547 166.058 31.92C165.904 31.678 165.64 31.491 165.266 31.359C164.892 31.227 164.379 31.161 163.726 31.161H162.087L162.483 27.3H166.696V28.004H162.802L163.209 27.619L162.868 30.853L162.461 30.457H163.902C164.679 30.457 165.303 30.5523 165.772 30.743C166.241 30.9337 166.579 31.2013 166.784 31.546C166.997 31.8833 167.103 32.2793 167.103 32.734C167.103 33.1667 167 33.5627 166.795 33.922C166.59 34.274 166.282 34.5527 165.871 34.758C165.46 34.9633 164.94 35.066 164.309 35.066ZM170.486 35.066C169.936 35.066 169.412 34.978 168.913 34.802C168.414 34.6187 168.018 34.3767 167.725 34.076L168.11 33.449C168.352 33.7057 168.682 33.9183 169.1 34.087C169.525 34.2557 169.984 34.34 170.475 34.34C171.128 34.34 171.623 34.197 171.96 33.911C172.305 33.6177 172.477 33.2363 172.477 32.767C172.477 32.437 172.396 32.1547 172.235 31.92C172.081 31.678 171.817 31.491 171.443 31.359C171.069 31.227 170.556 31.161 169.903 31.161H168.264L168.66 27.3H172.873V28.004H168.979L169.386 27.619L169.045 30.853L168.638 30.457H170.079C170.856 30.457 171.48 30.5523 171.949 30.743C172.418 30.9337 172.756 31.2013 172.961 31.546C173.174 31.8833 173.28 32.2793 173.28 32.734C173.28 33.1667 173.177 33.5627 172.972 33.922C172.767 34.274 172.459 34.5527 172.048 34.758C171.637 34.9633 171.117 35.066 170.486 35.066Z" fill="#636370"/>
</svg>
