<svg width="719" height="562" viewBox="0 0 719 562" fill="none" xmlns="http://www.w3.org/2000/svg">
<g filter="url(#filter0_d_1713_316)">
<rect x="50" y="46" width="619" height="462" rx="20" fill="white"/>
</g>
<rect x="360" y="129" width="272" height="338" rx="20" fill="#E8F7FF"/>
<path d="M87.575 79.3V94H90.725V89.17H93.119C96.668 89.17 99.461 88.036 99.461 84.235C99.461 80.434 96.668 79.3 93.119 79.3H87.575ZM96.248 84.235C96.248 85.957 94.883 86.398 93.266 86.398H90.725V82.072H93.266C94.883 82.072 96.248 82.492 96.248 84.235ZM103.643 94L108.137 88.33V94H111.035V83.92H108.515L104.021 89.59V83.92H101.102V94H103.643ZM116.429 94V90.178H120.503V94H123.422V83.92H120.503V87.742H116.429V83.92H113.51V94H116.429ZM125.329 88.96C125.329 92.488 127.975 94.294 130.894 94.294C133.834 94.294 136.459 92.488 136.459 88.96C136.459 85.432 133.834 83.626 130.894 83.626C127.975 83.626 125.329 85.432 125.329 88.96ZM133.498 88.96C133.498 90.514 132.574 91.69 130.894 91.69C129.235 91.69 128.311 90.514 128.311 88.96C128.311 87.406 129.235 86.23 130.894 86.23C132.574 86.23 133.498 87.406 133.498 88.96ZM141.284 94V90.01H142.46L145.358 94H148.634L144.875 88.897L148.34 83.92H145.064L142.502 87.679H141.284V83.92H138.365V94H141.284ZM157.444 94V90.178H161.518V94H164.437V83.92H161.518V87.742H157.444V83.92H154.525V94H157.444ZM166.345 88.96C166.345 92.488 168.991 94.294 171.91 94.294C174.85 94.294 177.475 92.488 177.475 88.96C177.475 85.432 174.85 83.626 171.91 83.626C168.991 83.626 166.345 85.432 166.345 88.96ZM174.514 88.96C174.514 90.514 173.59 91.69 171.91 91.69C170.251 91.69 169.327 90.514 169.327 88.96C169.327 87.406 170.251 86.23 171.91 86.23C173.59 86.23 174.514 87.406 174.514 88.96ZM183.76 90.724L180.82 83.92H177.733L182.5 94.147L182.479 94.189C181.933 95.68 181.135 96.394 180.085 96.394C179.686 96.394 179.287 96.331 178.888 96.247V98.662C179.413 98.788 179.938 98.893 180.463 98.893C182.101 98.893 183.676 98.032 184.81 95.218L189.283 83.92H186.259L183.76 90.724ZM195.95 94V86.377H199.163V83.92H189.839V86.377H193.052V94H195.95ZM211.04 89.401C211.04 86.314 209.045 84.55 206.567 84.55C205.034 84.55 203.921 85.243 203.291 86.125C203.438 85.138 203.984 83.899 205.139 83.269C207.092 82.24 208.793 82.786 210.158 81.673V79.006C208.751 80.371 206.294 79.573 203.396 81.379C201.59 82.513 200.309 84.592 200.309 88.204C200.309 92.551 202.724 94.294 205.685 94.294C208.73 94.294 211.04 92.614 211.04 89.401ZM203.291 89.422C203.291 88.351 203.921 86.881 205.685 86.881C207.47 86.881 208.058 88.288 208.058 89.422C208.058 90.556 207.47 91.963 205.685 91.963C203.921 91.963 203.291 90.556 203.291 89.422ZM217.229 90.724L214.289 83.92H211.202L215.969 94.147L215.948 94.189C215.402 95.68 214.604 96.394 213.554 96.394C213.155 96.394 212.756 96.331 212.357 96.247V98.662C212.882 98.788 213.407 98.893 213.932 98.893C215.57 98.893 217.145 98.032 218.279 95.218L222.752 83.92H219.728L217.229 90.724ZM227.13 94V90.01H228.306L231.204 94H234.48L230.721 88.897L234.186 83.92H230.91L228.348 87.679H227.13V83.92H224.211V94H227.13ZM235.984 79.5728C235.984 78.5542 236.551 78.0449 237.686 78.0449C238.821 78.0449 239.388 78.5542 239.388 79.5728C239.388 80.0581 239.245 80.4375 238.958 80.7109C238.677 80.9775 238.253 81.1108 237.686 81.1108C236.551 81.1108 235.984 80.5981 235.984 79.5728ZM239.245 94H236.117V82.5361H239.245V94ZM248.309 94C250.85 94 251.69 92.698 251.69 91.27C251.69 90.052 250.997 89.254 249.905 88.897C250.892 88.519 251.459 87.742 251.459 86.587C251.459 85.222 250.535 83.92 248.141 83.92H242.135V94H248.309ZM245.054 89.821H247.448C248.162 89.821 248.792 90.073 248.792 90.934C248.792 91.732 248.183 92.005 247.448 92.005H245.054V89.821ZM245.033 85.915H247.238C247.91 85.915 248.519 86.167 248.519 87.007C248.519 87.784 247.952 88.057 247.259 88.057H245.033V85.915Z" fill="#37376D"/>
<path fill-rule="evenodd" clip-rule="evenodd" d="M331 199H86V198H331V199Z" fill="black"/>
<path fill-rule="evenodd" clip-rule="evenodd" d="M331 289H86V288H331V289Z" fill="black"/>
<path fill-rule="evenodd" clip-rule="evenodd" d="M331 467H86V466H331V467Z" fill="black"/>
<path fill-rule="evenodd" clip-rule="evenodd" d="M199 378H86V377H199V378Z" fill="black"/>
<path fill-rule="evenodd" clip-rule="evenodd" d="M333 378H220V377H333V378Z" fill="black"/>
<rect x="86" y="158" width="138" height="29" rx="14.5" fill="#DDDDE6"/>
<path d="M86 262.5C86 254.492 92.4919 248 100.5 248H179.5C187.508 248 194 254.492 194 262.5V262.5C194 270.508 187.508 277 179.5 277H100.5C92.4919 277 86 270.508 86 262.5V262.5Z" fill="#DDDDE6"/>
<path d="M86 440.5C86 432.492 92.4919 426 100.5 426H228.5C236.508 426 243 432.492 243 440.5V440.5C243 448.508 236.508 455 228.5 455H100.5C92.4919 455 86 448.508 86 440.5V440.5Z" fill="#DDDDE6"/>
<path d="M86 351.5C86 343.492 92.4919 337 100.5 337H169.5C177.508 337 184 343.492 184 351.5V351.5C184 359.508 177.508 366 169.5 366H100.5C92.4919 366 86 359.508 86 351.5V351.5Z" fill="#DDDDE6"/>
<path d="M220 351.5C220 343.492 226.492 337 234.5 337H308.5C316.508 337 323 343.492 323 351.5V351.5C323 359.508 316.508 366 308.5 366H234.5C226.492 366 220 359.508 220 351.5V351.5Z" fill="#DDDDE6"/>
<path d="M219 172.5C219 178.299 214.299 183 208.5 183C202.701 183 198 178.299 198 172.5C198 166.701 202.701 162 208.5 162C214.299 162 219 166.701 219 172.5Z" fill="#AFAFBD"/>
<path fill-rule="evenodd" clip-rule="evenodd" d="M208.5 171.793L205.672 168.964L204.965 169.671L207.793 172.5L204.965 175.329L205.672 176.036L208.5 173.207L211.329 176.035L212.036 175.328L209.208 172.5L212.036 169.672L211.329 168.965L208.5 171.793Z" fill="#37376D"/>
<path d="M189 262.5C189 268.299 184.299 273 178.5 273C172.701 273 168 268.299 168 262.5C168 256.701 172.701 252 178.5 252C184.299 252 189 256.701 189 262.5Z" fill="#AFAFBD"/>
<path fill-rule="evenodd" clip-rule="evenodd" d="M178.5 261.793L175.672 258.964L174.965 259.671L177.793 262.5L174.965 265.329L175.672 266.036L178.5 263.207L181.329 266.035L182.036 265.328L179.208 262.5L182.036 259.672L181.329 258.965L178.5 261.793Z" fill="#37376D"/>
<path d="M238 440.5C238 446.299 233.299 451 227.5 451C221.701 451 217 446.299 217 440.5C217 434.701 221.701 430 227.5 430C233.299 430 238 434.701 238 440.5Z" fill="#AFAFBD"/>
<path fill-rule="evenodd" clip-rule="evenodd" d="M227.5 439.793L224.672 436.964L223.965 437.671L226.793 440.5L223.965 443.329L224.672 444.036L227.5 441.207L230.329 444.035L231.036 443.328L228.208 440.5L231.036 437.672L230.329 436.965L227.5 439.793Z" fill="#37376D"/>
<path d="M179 351.5C179 357.299 174.299 362 168.5 362C162.701 362 158 357.299 158 351.5C158 345.701 162.701 341 168.5 341C174.299 341 179 345.701 179 351.5Z" fill="#AFAFBD"/>
<path fill-rule="evenodd" clip-rule="evenodd" d="M168.5 350.793L165.672 347.964L164.965 348.671L167.793 351.5L164.965 354.329L165.672 355.036L168.5 352.207L171.329 355.035L172.036 354.328L169.208 351.5L172.036 348.672L171.329 347.965L168.5 350.793Z" fill="#37376D"/>
<path d="M318 351.5C318 357.299 313.299 362 307.5 362C301.701 362 297 357.299 297 351.5C297 345.701 301.701 341 307.5 341C313.299 341 318 345.701 318 351.5Z" fill="#AFAFBD"/>
<path fill-rule="evenodd" clip-rule="evenodd" d="M307.5 350.793L304.672 347.964L303.965 348.671L306.793 351.5L303.965 354.329L304.672 355.036L307.5 352.207L310.329 355.035L311.036 354.328L308.208 351.5L311.036 348.672L310.329 347.965L307.5 350.793Z" fill="#37376D"/>
<path d="M87.782 148.97V146H97.808V148.97H99.248V144.56H97.664V133.4H89.924C89.924 137.27 89.492 141.626 87.872 144.56H86.342V148.97H87.782ZM91.472 134.84H96.152V144.56H89.564C90.824 142.076 91.274 138.242 91.472 134.84ZM102.928 146H101.346V136.35H102.928V146ZM101.223 133.739C101.223 133.388 101.311 133.133 101.486 132.975C101.668 132.816 101.891 132.737 102.154 132.737C102.4 132.737 102.614 132.816 102.796 132.975C102.983 133.133 103.077 133.388 103.077 133.739C103.077 134.085 102.983 134.34 102.796 134.504C102.614 134.668 102.4 134.75 102.154 134.75C101.891 134.75 101.668 134.668 101.486 134.504C101.311 134.34 101.223 134.085 101.223 133.739ZM112.809 144.2V140.816C112.809 138.404 111.351 137.144 109.047 137.144C107.625 137.144 106.437 137.486 105.753 137.72V139.124C106.509 138.8 107.571 138.476 108.903 138.476C110.487 138.476 111.369 139.34 111.369 140.636V140.942C110.649 140.78 109.731 140.672 108.975 140.672C107.121 140.672 105.069 141.356 105.069 143.588C105.069 145.406 106.581 146.216 108.111 146.216C109.515 146.216 110.613 145.784 111.477 145.064C111.729 145.82 112.359 146.108 113.061 146.108C113.421 146.108 113.799 146.036 114.141 145.91V144.74C113.925 144.812 113.691 144.866 113.475 144.866C113.097 144.866 112.809 144.722 112.809 144.2ZM106.545 143.516C106.545 142.256 107.913 141.878 109.173 141.878C109.875 141.878 110.757 142.004 111.369 142.13V143.714C110.613 144.524 109.515 144.974 108.417 144.974C107.463 144.974 106.545 144.524 106.545 143.516ZM117.126 146V138.692H122.004V137.36H115.686V146H117.126ZM122.738 141.68C122.738 144.632 125.006 146.216 127.346 146.216C129.704 146.216 131.954 144.632 131.954 141.68C131.954 138.728 129.704 137.144 127.346 137.144C125.006 137.144 122.738 138.728 122.738 141.68ZM130.514 141.68C130.514 143.678 129.11 144.848 127.346 144.848C125.582 144.848 124.178 143.678 124.178 141.68C124.178 139.682 125.582 138.512 127.346 138.512C129.11 138.512 130.514 139.682 130.514 141.68ZM135.46 146V142.346H140.464V146H141.904V137.36H140.464V141.014H135.46V137.36H134.02V146H135.46ZM151.586 144.2V140.816C151.586 138.404 150.128 137.144 147.824 137.144C146.402 137.144 145.214 137.486 144.53 137.72V139.124C145.286 138.8 146.348 138.476 147.68 138.476C149.264 138.476 150.146 139.34 150.146 140.636V140.942C149.426 140.78 148.508 140.672 147.752 140.672C145.898 140.672 143.846 141.356 143.846 143.588C143.846 145.406 145.358 146.216 146.888 146.216C148.292 146.216 149.39 145.784 150.254 145.064C150.506 145.82 151.136 146.108 151.838 146.108C152.198 146.108 152.576 146.036 152.918 145.91V144.74C152.702 144.812 152.468 144.866 152.252 144.866C151.874 144.866 151.586 144.722 151.586 144.2ZM145.322 143.516C145.322 142.256 146.69 141.878 147.95 141.878C148.652 141.878 149.534 142.004 150.146 142.13V143.714C149.39 144.524 148.292 144.974 147.194 144.974C146.24 144.974 145.322 144.524 145.322 143.516ZM157.523 138.692H161.033V146H162.473V137.36H156.119C155.957 142.004 155.453 144.92 153.923 144.92C153.743 144.92 153.545 144.884 153.347 144.812V145.946C153.725 146.09 154.067 146.144 154.391 146.144C156.623 146.144 157.235 143.12 157.523 138.692ZM169.237 146C171.343 146 172.585 144.794 172.585 143.192C172.585 141.59 171.343 140.384 169.237 140.384H166.573V137.36H165.133V146H169.237ZM166.573 141.68H169.057C170.317 141.68 171.127 142.166 171.127 143.192C171.127 144.218 170.317 144.704 169.057 144.704H166.573V141.68Z" fill="#37376D"/>
<path d="M390.35 160.4V173H393.05V168.86H395.102C398.144 168.86 400.538 167.888 400.538 164.63C400.538 161.372 398.144 160.4 395.102 160.4H390.35ZM397.784 164.63C397.784 166.106 396.614 166.484 395.228 166.484H393.05V162.776H395.228C396.614 162.776 397.784 163.136 397.784 164.63ZM401.16 168.68C401.16 171.686 403.428 173.252 406.164 173.252C407.46 173.252 408.522 173.054 409.332 172.712V170.75C408.594 171.074 407.712 171.272 406.722 171.272C405.3 171.272 403.968 170.75 403.68 169.49H409.764C410.34 166.934 409.188 164.108 405.606 164.108C403.662 164.108 401.16 165.422 401.16 168.68ZM407.514 167.87H403.662C403.698 166.682 404.634 166.016 405.696 166.016C407.262 166.016 407.604 167.276 407.514 167.87ZM418.547 170.606C418.547 169.58 417.917 168.86 416.909 168.554C417.719 168.338 418.367 167.69 418.367 166.664C418.367 165.404 417.413 164.09 414.425 164.09C413.219 164.09 411.977 164.378 411.167 164.81V166.79C411.851 166.43 413.111 166.07 414.119 166.07C415.235 166.07 415.811 166.412 415.811 166.988C415.811 167.582 415.199 167.798 414.335 167.798H412.733V169.454H414.335C415.181 169.454 415.991 169.544 415.991 170.3C415.991 171.038 415.145 171.272 413.975 171.272C412.913 171.272 411.653 170.894 411.005 170.534V172.532C411.797 172.946 412.949 173.234 414.299 173.234C417.269 173.234 418.547 171.956 418.547 170.606ZM424.085 170.192L421.565 164.36H418.919L423.005 173.126L422.987 173.162C422.519 174.44 421.835 175.052 420.935 175.052C420.593 175.052 420.251 174.998 419.909 174.926V176.996C420.359 177.104 420.809 177.194 421.259 177.194C422.663 177.194 424.013 176.456 424.985 174.044L428.819 164.36H426.227L424.085 170.192ZM433.095 166.34H435.309V173H437.811V164.36H430.791C430.629 168.23 430.323 171.056 428.955 171.056C428.793 171.056 428.613 171.02 428.433 170.948V172.928C428.937 173.108 429.405 173.18 429.801 173.18C432.177 173.18 432.843 170.228 433.095 166.34ZM444.431 173C446.699 173 447.923 171.686 447.923 170.03C447.923 168.374 446.699 167.06 444.431 167.06H442.433V164.36H439.931V173H444.431ZM442.415 168.86H443.819C444.809 168.86 445.349 169.292 445.349 170.03C445.349 170.768 444.809 171.2 443.819 171.2H442.415V168.86ZM452.921 173V166.466H455.675V164.36H447.683V166.466H450.437V173H452.921ZM464.616 170.768V168.014C464.616 165.17 462.96 164.108 460.368 164.108C459.036 164.108 457.722 164.45 457.02 164.684V166.844C457.83 166.52 458.892 166.196 460.08 166.196C461.43 166.196 462.114 166.79 462.114 167.654V167.96C461.502 167.816 460.746 167.726 460.062 167.726C458.334 167.726 456.264 168.41 456.264 170.606C456.264 172.316 457.668 173.252 459.288 173.252C460.566 173.252 461.556 172.856 462.402 172.19C462.762 172.838 463.428 173.162 464.31 173.162C464.796 173.162 465.3 173.054 465.696 172.91V171.272C465.534 171.326 465.372 171.344 465.228 171.344C464.904 171.344 464.616 171.218 464.616 170.768ZM460.638 169.22C461.16 169.22 461.736 169.328 462.114 169.418V170.768C461.538 171.272 460.872 171.47 460.17 171.47C459.414 171.47 458.82 171.056 458.82 170.408C458.82 169.526 459.72 169.22 460.638 169.22ZM471.184 173V166.466H473.938V164.36H465.946V166.466H468.7V173H471.184ZM477.459 173L481.311 168.14V173H483.795V164.36H481.635L477.783 169.22V164.36H475.281V173H477.459ZM488.904 166.286C488.904 165.278 488.202 164.81 487.392 164.81C486.582 164.81 485.862 165.278 485.862 166.286C485.862 167.312 486.582 167.762 487.392 167.762C488.202 167.762 488.904 167.312 488.904 166.286ZM488.904 171.758C488.904 170.75 488.202 170.282 487.392 170.282C486.582 170.282 485.862 170.75 485.862 171.758C485.862 172.766 486.582 173.234 487.392 173.234C488.202 173.234 488.904 172.766 488.904 171.758Z" fill="#37376D"/>
<path d="M402.356 206.4L397.154 214.176L391.952 206.4H390.656V219H392.168V209.262L396.686 216.03H397.622L402.14 209.262V219H403.652V206.4H402.356ZM405.857 214.68C405.857 217.632 408.125 219.216 410.465 219.216C412.823 219.216 415.073 217.632 415.073 214.68C415.073 211.728 412.823 210.144 410.465 210.144C408.125 210.144 405.857 211.728 405.857 214.68ZM413.633 214.68C413.633 216.678 412.229 217.848 410.465 217.848C408.701 217.848 407.297 216.678 407.297 214.68C407.297 212.682 408.701 211.512 410.465 211.512C412.229 211.512 413.633 212.682 413.633 214.68ZM417.45 221.34V219H424.974V221.34H426.378V217.704H425.118V210.36H418.674C418.71 213.582 418.278 215.796 417.198 217.704H416.046V221.34H417.45ZM420.06 211.656H423.678V217.704H418.764C419.556 216.048 419.988 214.248 420.06 211.656ZM427.531 214.68C427.531 217.758 429.763 219.216 432.319 219.216C433.453 219.216 434.587 219 435.379 218.586V217.182C434.641 217.596 433.597 217.884 432.535 217.884C430.789 217.884 429.151 217.128 428.971 215.31H435.847C436.387 212.862 435.163 210.144 431.833 210.144C429.781 210.144 427.531 211.656 427.531 214.68ZM434.569 214.05H428.971C429.079 212.358 430.447 211.476 431.923 211.476C434.119 211.476 434.695 213.132 434.569 214.05ZM441.011 211.692H444.521V219H445.961V210.36H439.607C439.445 215.004 438.941 217.92 437.411 217.92C437.231 217.92 437.033 217.884 436.835 217.812V218.946C437.213 219.09 437.555 219.144 437.879 219.144C440.111 219.144 440.723 216.12 441.011 211.692ZM448.027 214.68C448.027 217.758 450.259 219.216 452.815 219.216C453.949 219.216 455.083 219 455.875 218.586V217.182C455.137 217.596 454.093 217.884 453.031 217.884C451.285 217.884 449.647 217.128 449.467 215.31H456.343C456.883 212.862 455.659 210.144 452.329 210.144C450.277 210.144 448.027 211.656 448.027 214.68ZM455.065 214.05H449.467C449.575 212.358 450.943 211.476 452.419 211.476C454.615 211.476 455.191 213.132 455.065 214.05ZM464.945 208.272V206.976C464.045 207.57 463.307 207.768 462.425 207.768C461.543 207.768 460.805 207.57 459.905 206.976V208.272C460.715 208.848 461.561 209.028 462.425 209.028C463.289 209.028 464.135 208.848 464.945 208.272ZM459.671 219L464.963 212.682V219H466.403V210.36H465.179L459.887 216.678V210.36H458.447V219H459.671ZM474.987 219V215.346H479.991V219H481.431V210.36H479.991V214.014H474.987V210.36H473.547V219H474.987ZM491.114 217.2V213.816C491.114 211.404 489.656 210.144 487.352 210.144C485.93 210.144 484.742 210.486 484.058 210.72V212.124C484.814 211.8 485.876 211.476 487.208 211.476C488.792 211.476 489.674 212.34 489.674 213.636V213.942C488.954 213.78 488.036 213.672 487.28 213.672C485.426 213.672 483.374 214.356 483.374 216.588C483.374 218.406 484.886 219.216 486.416 219.216C487.82 219.216 488.918 218.784 489.782 218.064C490.034 218.82 490.664 219.108 491.366 219.108C491.726 219.108 492.104 219.036 492.446 218.91V217.74C492.23 217.812 491.996 217.866 491.78 217.866C491.402 217.866 491.114 217.722 491.114 217.2ZM484.85 216.516C484.85 215.256 486.218 214.878 487.478 214.878C488.18 214.878 489.062 215.004 489.674 215.13V216.714C488.918 217.524 487.82 217.974 486.722 217.974C485.768 217.974 484.85 217.524 484.85 216.516ZM499.769 211.8V210.36H498.473V222.96H499.913V217.704C500.543 218.442 501.605 219.216 503.261 219.216C505.727 219.216 507.581 217.272 507.581 214.68C507.581 212.088 505.727 210.144 503.261 210.144C501.605 210.144 500.543 210.918 499.769 211.8ZM506.141 214.68C506.141 216.66 504.773 217.884 503.099 217.884C501.551 217.884 500.399 216.876 499.913 215.76V213.6C500.399 212.484 501.551 211.476 503.099 211.476C504.773 211.476 506.141 212.7 506.141 214.68ZM513.756 219C515.862 219 517.104 217.794 517.104 216.192C517.104 214.59 515.862 213.384 513.756 213.384H511.092V210.36H509.652V219H513.756ZM511.092 214.68H513.576C514.836 214.68 515.646 215.166 515.646 216.192C515.646 217.218 514.836 217.704 513.576 217.704H511.092V214.68ZM520.218 219V210.36H518.778V219H520.218ZM524.329 219V215.346H529.333V219H530.773V210.36H529.333V214.014H524.329V210.36H522.889V219H524.329ZM534.876 219V215.292H536.568L539.736 219H541.428L537.756 214.662L541.032 210.36H539.358L536.622 213.96H534.876V210.36H533.436V219H534.876ZM546.493 217.362L543.235 210.36H541.705L545.809 219.018L545.485 219.81C544.927 221.214 544.225 221.916 543.253 221.916C543.001 221.916 542.749 221.88 542.497 221.808V223.05C542.821 223.14 543.127 223.176 543.433 223.176C544.693 223.176 545.791 222.384 546.691 220.296L550.939 210.36H549.409L546.493 217.362ZM554.235 211.98C554.235 211.368 553.803 211.062 553.281 211.062C552.795 211.062 552.345 211.368 552.345 211.98C552.345 212.592 552.795 212.898 553.281 212.898C553.803 212.898 554.235 212.592 554.235 211.98ZM554.235 218.244C554.235 217.65 553.803 217.344 553.281 217.344C552.795 217.344 552.345 217.65 552.345 218.244C552.345 218.856 552.795 219.162 553.281 219.162C553.803 219.162 554.235 218.856 554.235 218.244ZM561.479 206.742L561.047 213.852C562.109 213.474 563.243 213.33 564.125 213.33C566.087 213.33 567.113 213.924 567.113 215.13C567.113 216.318 565.925 216.894 564.323 216.894C563.099 216.894 561.677 216.552 560.687 215.922V218.424C561.767 218.946 563.207 219.252 564.629 219.252C567.329 219.252 569.813 218.01 569.813 215.166C569.813 212.358 567.779 211.26 565.331 211.26C564.827 211.26 564.269 211.332 563.747 211.44L563.909 209.046L569.255 209.064V206.742H561.479ZM573.933 211.908C574.257 209.478 575.769 208.776 577.425 208.776C578.469 208.776 579.585 209.082 580.431 209.64V207.264C579.387 206.778 578.217 206.508 577.065 206.508C573.951 206.508 571.251 208.398 571.251 212.88C571.251 216.84 572.853 219.252 576.795 219.252C579.297 219.252 581.475 217.83 581.475 215.04C581.475 212.412 579.405 211.08 577.209 211.08C576.003 211.08 575.013 211.332 573.933 211.908ZM573.933 214.086C574.707 213.582 575.571 213.33 576.381 213.33C577.641 213.33 578.775 213.762 578.775 215.166C578.775 216.516 577.767 217.056 576.579 217.056C575.175 217.056 574.185 216.372 573.933 214.086ZM402.356 252.4L397.154 260.176L391.952 252.4H390.656V265H392.168V255.262L396.686 262.03H397.622L402.14 255.262V265H403.652V252.4H402.356ZM408.424 265H406.842V255.35H408.424V265ZM406.719 252.739C406.719 252.388 406.807 252.133 406.982 251.975C407.164 251.816 407.387 251.737 407.65 251.737C407.896 251.737 408.11 251.816 408.292 251.975C408.479 252.133 408.573 252.388 408.573 252.739C408.573 253.085 408.479 253.34 408.292 253.504C408.11 253.668 407.896 253.75 407.65 253.75C407.387 253.75 407.164 253.668 406.982 253.504C406.807 253.34 406.719 253.085 406.719 252.739ZM412.725 265V261.346H417.729V265H419.169V256.36H417.729V260.014H412.725V256.36H411.285V265H412.725ZM423.38 264.244C423.38 263.65 422.948 263.344 422.444 263.344C421.94 263.344 421.49 263.65 421.49 264.244C421.49 264.856 421.94 265.162 422.444 265.162C422.948 265.162 423.38 264.856 423.38 264.244ZM439.074 267.34V263.668H437.796V256.36H436.356V263.668H431.622V256.36H430.182V265H437.67V267.34H439.074ZM442.771 265H441.189V255.35H442.771V265ZM441.066 252.739C441.066 252.388 441.154 252.133 441.33 251.975C441.512 251.816 441.734 251.737 441.998 251.737C442.244 251.737 442.458 251.816 442.64 251.975C442.827 252.133 442.921 252.388 442.921 252.739C442.921 253.085 442.827 253.34 442.64 253.504C442.458 253.668 442.244 253.75 441.998 253.75C441.734 253.75 441.512 253.668 441.33 253.504C441.154 253.34 441.066 253.085 441.066 252.739ZM447.073 265V261.346H452.077V265H453.517V256.36H452.077V260.014H447.073V256.36H445.633V265H447.073ZM463.2 263.2V259.816C463.2 257.404 461.742 256.144 459.438 256.144C458.016 256.144 456.828 256.486 456.144 256.72V258.124C456.9 257.8 457.962 257.476 459.294 257.476C460.878 257.476 461.76 258.34 461.76 259.636V259.942C461.04 259.78 460.122 259.672 459.366 259.672C457.512 259.672 455.46 260.356 455.46 262.588C455.46 264.406 456.972 265.216 458.502 265.216C459.906 265.216 461.004 264.784 461.868 264.064C462.12 264.82 462.75 265.108 463.452 265.108C463.812 265.108 464.19 265.036 464.532 264.91V263.74C464.316 263.812 464.082 263.866 463.866 263.866C463.488 263.866 463.2 263.722 463.2 263.2ZM456.936 262.516C456.936 261.256 458.304 260.878 459.564 260.878C460.266 260.878 461.148 261.004 461.76 261.13V262.714C461.004 263.524 459.906 263.974 458.808 263.974C457.854 263.974 456.936 263.524 456.936 262.516ZM470.379 259.852V261.22H476.805V259.852H470.379ZM488.781 267.34V265.216C491.013 265.036 492.777 264.046 492.777 261.544C492.777 257.062 486.027 258.232 486.027 256.054C486.027 255.28 486.711 254.902 488.079 254.884C489.483 254.866 490.905 255.244 491.967 256V253.48C491.139 253.012 489.969 252.688 488.781 252.58V250.42H486.819V252.562C484.785 252.832 483.273 253.966 483.273 256.09C483.273 260.554 490.005 259.312 490.005 261.67C490.005 262.57 489.195 262.876 487.719 262.876C486.279 262.876 484.641 262.498 483.201 261.544V264.118C484.209 264.694 485.487 265.072 486.819 265.198V267.34H488.781ZM498.522 255.892C498.522 257.134 499.134 257.944 499.98 258.52C498.828 259.204 498.072 260.374 498.072 261.598C498.072 263.47 499.62 265.252 503.274 265.252C506.964 265.252 508.44 263.488 508.44 261.688C508.44 260.212 507.558 259.348 506.442 258.79C507.432 258.052 508.008 257.152 507.99 255.964C507.972 254.254 506.352 252.508 503.238 252.508C499.89 252.508 498.522 254.254 498.522 255.892ZM503.544 259.96C504.75 260.374 505.758 260.716 505.758 261.76C505.758 262.588 504.768 263.128 503.472 263.128C501.618 263.128 500.79 262.318 500.772 261.274C500.754 260.644 501.06 259.906 501.726 259.348C502.356 259.582 503.004 259.762 503.544 259.96ZM505.398 256.162C505.416 256.756 505.11 257.476 504.534 258.052C504.138 257.944 503.76 257.818 503.4 257.728C502.194 257.332 501.096 256.99 501.096 255.91C501.096 255.226 501.834 254.632 503.13 254.632C504.642 254.632 505.398 255.316 505.398 256.162ZM509.956 258.88C509.956 262.408 511.63 265.252 515.536 265.252C519.442 265.252 521.116 262.408 521.116 258.88C521.116 255.352 519.442 252.508 515.536 252.508C511.63 252.508 509.956 255.352 509.956 258.88ZM518.416 258.88C518.416 261.49 517.516 262.876 515.536 262.876C513.556 262.876 512.656 261.49 512.656 258.88C512.656 256.27 513.556 254.884 515.536 254.884C517.516 254.884 518.416 256.27 518.416 258.88ZM522.665 258.88C522.665 262.408 524.339 265.252 528.245 265.252C532.151 265.252 533.825 262.408 533.825 258.88C533.825 255.352 532.151 252.508 528.245 252.508C524.339 252.508 522.665 255.352 522.665 258.88ZM531.125 258.88C531.125 261.49 530.225 262.876 528.245 262.876C526.265 262.876 525.365 261.49 525.365 258.88C525.365 256.27 526.265 254.884 528.245 254.884C530.225 254.884 531.125 256.27 531.125 258.88ZM402.356 298.4L397.154 306.176L391.952 298.4H390.656V311H392.168V301.262L396.686 308.03H397.622L402.14 301.262V311H403.652V298.4H402.356ZM413.524 309.2V305.816C413.524 303.404 412.066 302.144 409.762 302.144C408.34 302.144 407.152 302.486 406.468 302.72V304.124C407.224 303.8 408.286 303.476 409.618 303.476C411.202 303.476 412.084 304.34 412.084 305.636V305.942C411.364 305.78 410.446 305.672 409.69 305.672C407.836 305.672 405.784 306.356 405.784 308.588C405.784 310.406 407.296 311.216 408.826 311.216C410.23 311.216 411.328 310.784 412.192 310.064C412.444 310.82 413.074 311.108 413.776 311.108C414.136 311.108 414.514 311.036 414.856 310.91V309.74C414.64 309.812 414.406 309.866 414.19 309.866C413.812 309.866 413.524 309.722 413.524 309.2ZM407.26 308.516C407.26 307.256 408.628 306.878 409.888 306.878C410.59 306.878 411.472 307.004 412.084 307.13V308.714C411.328 309.524 410.23 309.974 409.132 309.974C408.178 309.974 407.26 309.524 407.26 308.516ZM417.84 311V307.292H419.532L422.7 311H424.392L420.72 306.662L423.996 302.36H422.322L419.586 305.96H417.84V302.36H416.4V311H417.84ZM424.789 306.716C424.789 309.794 427.147 311.216 429.415 311.216C430.495 311.216 431.413 311.018 432.223 310.622V309.182C431.503 309.614 430.549 309.884 429.613 309.884C427.921 309.884 426.229 308.894 426.229 306.68C426.229 304.412 427.975 303.476 429.649 303.476C430.567 303.476 431.485 303.746 432.133 304.25V302.846C431.395 302.36 430.441 302.144 429.469 302.144C427.219 302.144 424.789 303.566 424.789 306.716ZM435.878 310.244C435.878 309.65 435.446 309.344 434.942 309.344C434.438 309.344 433.988 309.65 433.988 310.244C433.988 310.856 434.438 311.162 434.942 311.162C435.446 311.162 435.878 310.856 435.878 310.244ZM451.572 313.34V309.668H450.294V302.36H448.854V309.668H444.12V302.36H442.68V311H450.168V313.34H451.572ZM455.27 311H453.688V301.35H455.27V311ZM453.564 298.739C453.564 298.388 453.652 298.133 453.828 297.975C454.01 297.816 454.232 297.737 454.496 297.737C454.742 297.737 454.956 297.816 455.138 297.975C455.325 298.133 455.419 298.388 455.419 298.739C455.419 299.085 455.325 299.34 455.138 299.504C454.956 299.668 454.742 299.75 454.496 299.75C454.232 299.75 454.01 299.668 453.828 299.504C453.652 299.34 453.564 299.085 453.564 298.739ZM459.571 311V307.346H464.575V311H466.015V302.36H464.575V306.014H459.571V302.36H458.131V311H459.571ZM475.698 309.2V305.816C475.698 303.404 474.24 302.144 471.936 302.144C470.514 302.144 469.326 302.486 468.642 302.72V304.124C469.398 303.8 470.46 303.476 471.792 303.476C473.376 303.476 474.258 304.34 474.258 305.636V305.942C473.538 305.78 472.62 305.672 471.864 305.672C470.01 305.672 467.958 306.356 467.958 308.588C467.958 310.406 469.47 311.216 471 311.216C472.404 311.216 473.502 310.784 474.366 310.064C474.618 310.82 475.248 311.108 475.95 311.108C476.31 311.108 476.688 311.036 477.03 310.91V309.74C476.814 309.812 476.58 309.866 476.364 309.866C475.986 309.866 475.698 309.722 475.698 309.2ZM469.434 308.516C469.434 307.256 470.802 306.878 472.062 306.878C472.764 306.878 473.646 307.004 474.258 307.13V308.714C473.502 309.524 472.404 309.974 471.306 309.974C470.352 309.974 469.434 309.524 469.434 308.516ZM482.877 305.852V307.22H489.303V305.852H482.877ZM501.279 313.34V311.216C503.511 311.036 505.275 310.046 505.275 307.544C505.275 303.062 498.525 304.232 498.525 302.054C498.525 301.28 499.209 300.902 500.577 300.884C501.981 300.866 503.403 301.244 504.465 302V299.48C503.637 299.012 502.467 298.688 501.279 298.58V296.42H499.317V298.562C497.283 298.832 495.771 299.966 495.771 302.09C495.771 306.554 502.503 305.312 502.503 307.67C502.503 308.57 501.693 308.876 500.217 308.876C498.777 308.876 497.139 308.498 495.699 307.544V310.118C496.707 310.694 497.985 311.072 499.317 311.198V313.34H501.279ZM509.73 298.76L506.76 299.894V302.324L509.064 301.46V308.678H506.76V311H513.744V308.678H511.692V298.76H509.73ZM519.263 299.804V302.324C520.559 301.334 521.999 300.866 523.223 300.866C524.465 300.866 525.257 301.334 525.257 302.234C525.257 303.404 524.159 303.89 522.881 304.628C521.081 305.69 518.849 306.842 518.849 309.794V311H528.029V308.678L521.909 308.696C521.927 307.904 523.169 307.238 524.627 306.374C526.229 305.42 527.939 304.196 527.939 302.126C527.939 299.624 525.941 298.508 523.475 298.508C521.981 298.508 520.523 298.904 519.263 299.804ZM529.626 304.88C529.626 308.408 531.3 311.252 535.206 311.252C539.112 311.252 540.786 308.408 540.786 304.88C540.786 301.352 539.112 298.508 535.206 298.508C531.3 298.508 529.626 301.352 529.626 304.88ZM538.086 304.88C538.086 307.49 537.186 308.876 535.206 308.876C533.226 308.876 532.326 307.49 532.326 304.88C532.326 302.27 533.226 300.884 535.206 300.884C537.186 300.884 538.086 302.27 538.086 304.88ZM542.335 304.88C542.335 308.408 544.009 311.252 547.915 311.252C551.821 311.252 553.495 308.408 553.495 304.88C553.495 301.352 551.821 298.508 547.915 298.508C544.009 298.508 542.335 301.352 542.335 304.88ZM550.795 304.88C550.795 307.49 549.895 308.876 547.915 308.876C545.935 308.876 545.035 307.49 545.035 304.88C545.035 302.27 545.935 300.884 547.915 300.884C549.895 300.884 550.795 302.27 550.795 304.88ZM392.168 357V345.84H399.422V357H400.934V344.4H390.656V357H392.168ZM405.216 349.8V348.36H403.92V360.96H405.36V355.704C405.99 356.442 407.052 357.216 408.708 357.216C411.174 357.216 413.028 355.272 413.028 352.68C413.028 350.088 411.174 348.144 408.708 348.144C407.052 348.144 405.99 348.918 405.216 349.8ZM411.588 352.68C411.588 354.66 410.22 355.884 408.546 355.884C406.998 355.884 405.846 354.876 405.36 353.76V351.6C405.846 350.484 406.998 349.476 408.546 349.476C410.22 349.476 411.588 350.7 411.588 352.68ZM414.506 352.68C414.506 355.632 416.774 357.216 419.114 357.216C421.472 357.216 423.722 355.632 423.722 352.68C423.722 349.728 421.472 348.144 419.114 348.144C416.774 348.144 414.506 349.728 414.506 352.68ZM422.282 352.68C422.282 354.678 420.878 355.848 419.114 355.848C417.35 355.848 415.946 354.678 415.946 352.68C415.946 350.682 417.35 349.512 419.114 349.512C420.878 349.512 422.282 350.682 422.282 352.68ZM430.801 348.36L428.461 351.546L426.103 348.36H424.447L427.633 352.554L424.267 357H425.923L428.461 353.58L430.981 357H432.637L429.289 352.554L432.457 348.36H430.801ZM433.191 352.68C433.191 355.632 435.459 357.216 437.799 357.216C440.157 357.216 442.407 355.632 442.407 352.68C442.407 349.728 440.157 348.144 437.799 348.144C435.459 348.144 433.191 349.728 433.191 352.68ZM440.967 352.68C440.967 354.678 439.563 355.848 437.799 355.848C436.035 355.848 434.631 354.678 434.631 352.68C434.631 350.682 436.035 349.512 437.799 349.512C439.563 349.512 440.967 350.682 440.967 352.68ZM444.784 359.34V357H452.308V359.34H453.712V355.704H452.452V348.36H446.008C446.044 351.582 445.612 353.796 444.532 355.704H443.38V359.34H444.784ZM447.394 349.656H451.012V355.704H446.098C446.89 354.048 447.322 352.248 447.394 349.656ZM456.859 357L462.151 350.682V357H463.591V348.36H462.367L457.075 354.678V348.36H455.635V357H456.859ZM469.852 357V349.692H473.02V348.36H465.226V349.692H468.412V357H469.852ZM478.758 357C480.864 357 482.106 355.794 482.106 354.192C482.106 352.59 480.864 351.384 478.758 351.384H476.094V348.36H474.654V357H478.758ZM476.094 352.68H478.578C479.838 352.68 480.648 353.166 480.648 354.192C480.648 355.218 479.838 355.704 478.578 355.704H476.094V352.68ZM495.456 355.2V351.816C495.456 349.404 493.998 348.144 491.694 348.144C490.272 348.144 489.084 348.486 488.4 348.72V350.124C489.156 349.8 490.218 349.476 491.55 349.476C493.134 349.476 494.016 350.34 494.016 351.636V351.942C493.296 351.78 492.378 351.672 491.622 351.672C489.768 351.672 487.716 352.356 487.716 354.588C487.716 356.406 489.228 357.216 490.758 357.216C492.162 357.216 493.26 356.784 494.124 356.064C494.376 356.82 495.006 357.108 495.708 357.108C496.068 357.108 496.446 357.036 496.788 356.91V355.74C496.572 355.812 496.338 355.866 496.122 355.866C495.744 355.866 495.456 355.722 495.456 355.2ZM489.192 354.516C489.192 353.256 490.56 352.878 491.82 352.878C492.522 352.878 493.404 353.004 494.016 353.13V354.714C493.26 355.524 492.162 355.974 491.064 355.974C490.11 355.974 489.192 355.524 489.192 354.516ZM499.772 357V353.292H501.464L504.632 357H506.324L502.652 352.662L505.928 348.36H504.254L501.518 351.96H499.772V348.36H498.332V357H499.772ZM516.646 359.34V355.668H515.368V348.36H513.928V355.668H509.194V348.36H507.754V357H515.242V359.34H516.646ZM520.344 357H518.762V347.35H520.344V357ZM518.639 344.739C518.639 344.388 518.727 344.133 518.902 343.975C519.084 343.816 519.307 343.737 519.57 343.737C519.816 343.737 520.03 343.816 520.212 343.975C520.399 344.133 520.493 344.388 520.493 344.739C520.493 345.085 520.399 345.34 520.212 345.504C520.03 345.668 519.816 345.75 519.57 345.75C519.307 345.75 519.084 345.668 518.902 345.504C518.727 345.34 518.639 345.085 518.639 344.739ZM529.703 346.272V344.976C528.803 345.57 528.065 345.768 527.183 345.768C526.301 345.768 525.563 345.57 524.663 344.976V346.272C525.473 346.848 526.319 347.028 527.183 347.028C528.047 347.028 528.893 346.848 529.703 346.272ZM524.429 357L529.721 350.682V357H531.161V348.36H529.937L524.645 354.678V348.36H523.205V357H524.429ZM535.514 349.98C535.514 349.368 535.082 349.062 534.56 349.062C534.074 349.062 533.624 349.368 533.624 349.98C533.624 350.592 534.074 350.898 534.56 350.898C535.082 350.898 535.514 350.592 535.514 349.98ZM535.514 356.244C535.514 355.65 535.082 355.344 534.56 355.344C534.074 355.344 533.624 355.65 533.624 356.244C533.624 356.856 534.074 357.162 534.56 357.162C535.082 357.162 535.514 356.856 535.514 356.244ZM547.87 344.76L541.552 352.536V354.768H547.978V357H550.552V354.768H552.406V352.518H550.552V344.76H547.87ZM547.978 352.518H544.36L547.978 348.054V352.518ZM392.168 403V391.84H399.422V403H400.934V390.4H390.656V403H392.168ZM403.133 398.68C403.133 401.632 405.401 403.216 407.741 403.216C410.099 403.216 412.349 401.632 412.349 398.68C412.349 395.728 410.099 394.144 407.741 394.144C405.401 394.144 403.133 395.728 403.133 398.68ZM410.909 398.68C410.909 400.678 409.505 401.848 407.741 401.848C405.977 401.848 404.573 400.678 404.573 398.68C404.573 396.682 405.977 395.512 407.741 395.512C409.505 395.512 410.909 396.682 410.909 398.68ZM415.854 403V395.692H420.858V403H422.298V394.36H414.414V403H415.854ZM428.597 401.362L425.339 394.36H423.809L427.913 403.018L427.589 403.81C427.031 405.214 426.329 405.916 425.357 405.916C425.105 405.916 424.853 405.88 424.601 405.808V407.05C424.925 407.14 425.231 407.176 425.537 407.176C426.797 407.176 427.895 406.384 428.795 404.296L433.043 394.36H431.513L428.597 401.362ZM436.951 395.692H440.461V403H441.901V394.36H435.547C435.385 399.004 434.881 401.92 433.351 401.92C433.171 401.92 432.973 401.884 432.775 401.812V402.946C433.153 403.09 433.495 403.144 433.819 403.144C436.051 403.144 436.663 400.12 436.951 395.692ZM445.425 403L447.783 399.976H450.213V403H451.653V394.36H447.405C445.299 394.36 444.165 395.656 444.165 397.168C444.165 398.374 444.885 399.436 446.235 399.832L443.733 403H445.425ZM445.605 397.168C445.605 396.214 446.325 395.656 447.531 395.656H450.213V398.68H447.531C446.325 398.68 445.605 398.122 445.605 397.168ZM455.612 395.8V394.36H454.316V406.96H455.756V401.704C456.386 402.442 457.448 403.216 459.104 403.216C461.57 403.216 463.424 401.272 463.424 398.68C463.424 396.088 461.57 394.144 459.104 394.144C457.448 394.144 456.386 394.918 455.612 395.8ZM461.984 398.68C461.984 400.66 460.616 401.884 458.942 401.884C457.394 401.884 456.242 400.876 455.756 399.76V397.6C456.242 396.484 457.394 395.476 458.942 395.476C460.616 395.476 461.984 396.7 461.984 398.68ZM466.936 403V399.346H471.94V403H473.38V394.36H471.94V398.014H466.936V394.36H465.496V403H466.936ZM477.822 403H476.24V393.35H477.822V403ZM476.117 390.739C476.117 390.388 476.205 390.133 476.381 389.975C476.562 389.816 476.785 389.737 477.049 389.737C477.295 389.737 477.509 389.816 477.69 389.975C477.878 390.133 477.972 390.388 477.972 390.739C477.972 391.085 477.878 391.34 477.69 391.504C477.509 391.668 477.295 391.75 477.049 391.75C476.785 391.75 476.562 391.668 476.381 391.504C476.205 391.34 476.117 391.085 476.117 390.739ZM480.09 398.716C480.09 401.794 482.448 403.216 484.716 403.216C485.796 403.216 486.714 403.018 487.524 402.622V401.182C486.804 401.614 485.85 401.884 484.914 401.884C483.222 401.884 481.53 400.894 481.53 398.68C481.53 396.412 483.276 395.476 484.95 395.476C485.868 395.476 486.786 395.746 487.434 396.25V394.846C486.696 394.36 485.742 394.144 484.77 394.144C482.52 394.144 480.09 395.566 480.09 398.716ZM493.231 403V395.692H496.399V394.36H488.605V395.692H491.791V403H493.231ZM502.137 403C504.243 403 505.485 401.794 505.485 400.192C505.485 398.59 504.243 397.384 502.137 397.384H499.473V394.36H498.033V403H502.137ZM499.473 398.68H501.957C503.217 398.68 504.027 399.166 504.027 400.192C504.027 401.218 503.217 401.704 501.957 401.704H499.473V398.68ZM511.22 398.716C511.22 401.794 513.578 403.216 515.846 403.216C516.926 403.216 517.844 403.018 518.654 402.622V401.182C517.934 401.614 516.98 401.884 516.044 401.884C514.352 401.884 512.66 400.894 512.66 398.68C512.66 396.412 514.406 395.476 516.08 395.476C516.998 395.476 517.916 395.746 518.564 396.25V394.846C517.826 394.36 516.872 394.144 515.9 394.144C513.65 394.144 511.22 395.566 511.22 398.716ZM520.009 398.68C520.009 401.758 522.241 403.216 524.797 403.216C525.931 403.216 527.065 403 527.857 402.586V401.182C527.119 401.596 526.075 401.884 525.013 401.884C523.267 401.884 521.629 401.128 521.449 399.31H528.325C528.865 396.862 527.641 394.144 524.311 394.144C522.259 394.144 520.009 395.656 520.009 398.68ZM527.047 398.05H521.449C521.557 396.358 522.925 395.476 524.401 395.476C526.597 395.476 527.173 397.132 527.047 398.05ZM531.87 403V395.692H536.748V394.36H530.43V403H531.87ZM539.761 403V396.484L542.569 400.75H543.649L546.457 396.484V403H547.825V394.36H546.259L543.109 399.148L539.959 394.36H538.393V403H539.761ZM549.892 398.68C549.892 401.758 552.124 403.216 554.68 403.216C555.814 403.216 556.948 403 557.74 402.586V401.182C557.002 401.596 555.958 401.884 554.896 401.884C553.15 401.884 551.512 401.128 551.332 399.31H558.208C558.748 396.862 557.524 394.144 554.194 394.144C552.142 394.144 549.892 395.656 549.892 398.68ZM556.93 398.05H551.332C551.44 396.358 552.808 395.476 554.284 395.476C556.48 395.476 557.056 397.132 556.93 398.05ZM561.752 403V399.346H566.756V403H568.196V394.36H566.756V398.014H561.752V394.36H560.312V403H561.752ZM574.459 403V395.692H577.627V394.36H569.833V395.692H573.019V403H574.459ZM586.194 401.2V397.816C586.194 395.404 584.736 394.144 582.432 394.144C581.01 394.144 579.822 394.486 579.138 394.72V396.124C579.894 395.8 580.956 395.476 582.288 395.476C583.872 395.476 584.754 396.34 584.754 397.636V397.942C584.034 397.78 583.116 397.672 582.36 397.672C580.506 397.672 578.454 398.356 578.454 400.588C578.454 402.406 579.966 403.216 581.496 403.216C582.9 403.216 583.998 402.784 584.862 402.064C585.114 402.82 585.744 403.108 586.446 403.108C586.806 403.108 587.184 403.036 587.526 402.91V401.74C587.31 401.812 587.076 401.866 586.86 401.866C586.482 401.866 586.194 401.722 586.194 401.2ZM579.93 400.516C579.93 399.256 581.298 398.878 582.558 398.878C583.26 398.878 584.142 399.004 584.754 399.13V400.714C583.998 401.524 582.9 401.974 581.802 401.974C580.848 401.974 579.93 401.524 579.93 400.516ZM590.762 395.98C590.762 395.368 590.33 395.062 589.808 395.062C589.322 395.062 588.872 395.368 588.872 395.98C588.872 396.592 589.322 396.898 589.808 396.898C590.33 396.898 590.762 396.592 590.762 395.98ZM590.762 402.244C590.762 401.65 590.33 401.344 589.808 401.344C589.322 401.344 588.872 401.65 588.872 402.244C588.872 402.856 589.322 403.162 589.808 403.162C590.33 403.162 590.762 402.856 590.762 402.244ZM395.354 426C397.532 426 398.252 424.884 398.252 423.66C398.252 422.616 397.658 421.932 396.722 421.626C397.568 421.302 398.054 420.636 398.054 419.646C398.054 418.476 397.262 417.36 395.21 417.36H390.062V426H395.354ZM392.564 422.418H394.616C395.228 422.418 395.768 422.634 395.768 423.372C395.768 424.056 395.246 424.29 394.616 424.29H392.564V422.418ZM392.546 419.07H394.436C395.012 419.07 395.534 419.286 395.534 420.006C395.534 420.672 395.048 420.906 394.454 420.906H392.546V419.07ZM404.441 426C406.709 426 407.933 424.686 407.933 423.03C407.933 421.374 406.709 420.06 404.441 420.06H402.443V417.36H399.941V426H404.441ZM402.425 421.86H403.829C404.819 421.86 405.359 422.292 405.359 423.03C405.359 423.768 404.819 424.2 403.829 424.2H402.425V421.86ZM411.839 426V417.36H409.337V426H411.839ZM413.482 421.806C413.482 424.884 415.84 426.252 418.198 426.252C419.296 426.252 420.268 426.036 421.114 425.676V423.462C420.484 423.84 419.602 424.092 418.684 424.092C417.334 424.092 416.038 423.336 416.038 421.68C416.038 419.934 417.352 419.268 418.72 419.268C419.548 419.268 420.412 419.52 421.024 419.916V417.72C420.25 417.306 419.314 417.09 418.36 417.09C415.966 417.09 413.482 418.494 413.482 421.806ZM422.254 421.68C422.254 424.704 424.522 426.252 427.024 426.252C429.544 426.252 431.794 424.704 431.794 421.68C431.794 418.656 429.544 417.108 427.024 417.108C424.522 417.108 422.254 418.656 422.254 421.68ZM429.256 421.68C429.256 423.012 428.464 424.02 427.024 424.02C425.602 424.02 424.81 423.012 424.81 421.68C424.81 420.348 425.602 419.34 427.024 419.34C428.464 419.34 429.256 420.348 429.256 421.68ZM435.929 426V422.58H436.937L439.421 426H442.229L439.007 421.626L441.977 417.36H439.169L436.973 420.582H435.929V417.36H433.427V426H435.929ZM450.905 423.768V421.014C450.905 418.17 449.249 417.108 446.657 417.108C445.325 417.108 444.011 417.45 443.309 417.684V419.844C444.119 419.52 445.181 419.196 446.369 419.196C447.719 419.196 448.403 419.79 448.403 420.654V420.96C447.791 420.816 447.035 420.726 446.351 420.726C444.623 420.726 442.553 421.41 442.553 423.606C442.553 425.316 443.957 426.252 445.577 426.252C446.855 426.252 447.845 425.856 448.691 425.19C449.051 425.838 449.717 426.162 450.599 426.162C451.085 426.162 451.589 426.054 451.985 425.91V424.272C451.823 424.326 451.661 424.344 451.517 424.344C451.193 424.344 450.905 424.218 450.905 423.768ZM446.927 422.22C447.449 422.22 448.025 422.328 448.403 422.418V423.768C447.827 424.272 447.161 424.47 446.459 424.47C445.703 424.47 445.109 424.056 445.109 423.408C445.109 422.526 446.009 422.22 446.927 422.22Z" fill="#37376D"/>
<path d="M89.168 236V224.84H96.422V236H97.934V223.4H87.656V236H89.168ZM102.216 228.8V227.36H100.92V239.96H102.36V234.704C102.99 235.442 104.052 236.216 105.708 236.216C108.174 236.216 110.028 234.272 110.028 231.68C110.028 229.088 108.174 227.144 105.708 227.144C104.052 227.144 102.99 227.918 102.216 228.8ZM108.588 231.68C108.588 233.66 107.22 234.884 105.546 234.884C103.998 234.884 102.846 233.876 102.36 232.76V230.6C102.846 229.484 103.998 228.476 105.546 228.476C107.22 228.476 108.588 229.7 108.588 231.68ZM111.506 231.68C111.506 234.632 113.774 236.216 116.114 236.216C118.472 236.216 120.722 234.632 120.722 231.68C120.722 228.728 118.472 227.144 116.114 227.144C113.774 227.144 111.506 228.728 111.506 231.68ZM119.282 231.68C119.282 233.678 117.878 234.848 116.114 234.848C114.35 234.848 112.946 233.678 112.946 231.68C112.946 229.682 114.35 228.512 116.114 228.512C117.878 228.512 119.282 229.682 119.282 231.68ZM131.679 238.34V234.668H130.401V227.36H128.961V234.668H124.227V227.36H122.787V236H130.275V238.34H131.679ZM132.828 231.68C132.828 234.758 135.06 236.216 137.616 236.216C138.75 236.216 139.884 236 140.676 235.586V234.182C139.938 234.596 138.894 234.884 137.832 234.884C136.086 234.884 134.448 234.128 134.268 232.31H141.144C141.684 229.862 140.46 227.144 137.13 227.144C135.078 227.144 132.828 228.656 132.828 231.68ZM139.866 231.05H134.268C134.376 229.358 135.744 228.476 137.22 228.476C139.416 228.476 139.992 230.132 139.866 231.05ZM142.654 231.716C142.654 234.794 145.012 236.216 147.28 236.216C148.36 236.216 149.278 236.018 150.088 235.622V234.182C149.368 234.614 148.414 234.884 147.478 234.884C145.786 234.884 144.094 233.894 144.094 231.68C144.094 229.412 145.84 228.476 147.514 228.476C148.432 228.476 149.35 228.746 149.998 229.25V227.846C149.26 227.36 148.306 227.144 147.334 227.144C145.084 227.144 142.654 228.566 142.654 231.716ZM151.443 231.68C151.443 234.632 153.711 236.216 156.051 236.216C158.409 236.216 160.659 234.632 160.659 231.68C160.659 228.728 158.409 227.144 156.051 227.144C153.711 227.144 151.443 228.728 151.443 231.68ZM159.219 231.68C159.219 233.678 157.815 234.848 156.051 234.848C154.287 234.848 152.883 233.678 152.883 231.68C152.883 229.682 154.287 228.512 156.051 228.512C157.815 228.512 159.219 229.682 159.219 231.68ZM164.021 228.8V227.36H162.725V239.96H164.165V234.704C164.795 235.442 165.857 236.216 167.513 236.216C169.979 236.216 171.833 234.272 171.833 231.68C171.833 229.088 169.979 227.144 167.513 227.144C165.857 227.144 164.795 227.918 164.021 228.8ZM170.393 231.68C170.393 233.66 169.025 234.884 167.351 234.884C165.803 234.884 164.651 233.876 164.165 232.76V230.6C164.651 229.484 165.803 228.476 167.351 228.476C169.025 228.476 170.393 229.7 170.393 231.68Z" fill="#37376D"/>
<path d="M87.656 401.4V414H92.966C94.802 414 97.61 413.406 97.61 410.544C97.61 408.492 96.134 407.664 95.09 407.376C96.08 407.088 97.106 406.188 97.106 404.586C97.106 402.462 95.396 401.4 92.822 401.4H87.656ZM96.08 410.382C96.08 412.452 94.244 412.56 92.66 412.56H89.168V408.204H93.074C94.28 408.204 96.08 408.42 96.08 410.382ZM95.576 404.802C95.576 406.242 94.424 406.764 93.11 406.764H89.168V402.84H92.696C94.478 402.84 95.576 403.308 95.576 404.802ZM101.574 414H99.9922V404.35H101.574V414ZM99.8691 401.739C99.8691 401.388 99.957 401.133 100.133 400.975C100.314 400.816 100.537 400.737 100.801 400.737C101.047 400.737 101.261 400.816 101.442 400.975C101.63 401.133 101.724 401.388 101.724 401.739C101.724 402.085 101.63 402.34 101.442 402.504C101.261 402.668 101.047 402.75 100.801 402.75C100.537 402.75 100.314 402.668 100.133 402.504C99.957 402.34 99.8691 402.085 99.8691 401.739ZM104.976 416.34V414H112.5V416.34H113.904V412.704H112.644V405.36H106.2C106.236 408.582 105.804 410.796 104.724 412.704H103.572V416.34H104.976ZM107.586 406.656H111.204V412.704H106.29C107.082 411.048 107.514 409.248 107.586 406.656ZM115.056 409.68C115.056 412.758 117.288 414.216 119.844 414.216C120.978 414.216 122.112 414 122.904 413.586V412.182C122.166 412.596 121.122 412.884 120.06 412.884C118.314 412.884 116.676 412.128 116.496 410.31H123.372C123.912 407.862 122.688 405.144 119.358 405.144C117.306 405.144 115.056 406.656 115.056 409.68ZM122.094 409.05H116.496C116.604 407.358 117.972 406.476 119.448 406.476C121.644 406.476 122.22 408.132 122.094 409.05ZM124.883 409.68C124.883 412.632 127.151 414.216 129.491 414.216C131.849 414.216 134.099 412.632 134.099 409.68C134.099 406.728 131.849 405.144 129.491 405.144C127.151 405.144 124.883 406.728 124.883 409.68ZM132.659 409.68C132.659 411.678 131.255 412.848 129.491 412.848C127.727 412.848 126.323 411.678 126.323 409.68C126.323 407.682 127.727 406.512 129.491 406.512C131.255 406.512 132.659 407.682 132.659 409.68ZM137.604 414V410.292H139.296L142.464 414H144.156L140.484 409.662L143.76 405.36H142.086L139.35 408.96H137.604V405.36H136.164V414H137.604ZM152.536 412.2V408.816C152.536 406.404 151.078 405.144 148.774 405.144C147.352 405.144 146.164 405.486 145.48 405.72V407.124C146.236 406.8 147.298 406.476 148.63 406.476C150.214 406.476 151.096 407.34 151.096 408.636V408.942C150.376 408.78 149.458 408.672 148.702 408.672C146.848 408.672 144.796 409.356 144.796 411.588C144.796 413.406 146.308 414.216 147.838 414.216C149.242 414.216 150.34 413.784 151.204 413.064C151.456 413.82 152.086 414.108 152.788 414.108C153.148 414.108 153.526 414.036 153.868 413.91V412.74C153.652 412.812 153.418 412.866 153.202 412.866C152.824 412.866 152.536 412.722 152.536 412.2ZM146.272 411.516C146.272 410.256 147.64 409.878 148.9 409.878C149.602 409.878 150.484 410.004 151.096 410.13V411.714C150.34 412.524 149.242 412.974 148.144 412.974C147.19 412.974 146.272 412.524 146.272 411.516ZM156.708 406.8V405.36H155.412V417.96H156.852V412.704C157.482 413.442 158.544 414.216 160.2 414.216C162.666 414.216 164.52 412.272 164.52 409.68C164.52 407.088 162.666 405.144 160.2 405.144C158.544 405.144 157.482 405.918 156.708 406.8ZM163.08 409.68C163.08 411.66 161.712 412.884 160.038 412.884C158.49 412.884 157.338 411.876 156.852 410.76V408.6C157.338 407.484 158.49 406.476 160.038 406.476C161.712 406.476 163.08 407.7 163.08 409.68ZM169.928 414V406.692H173.096V405.36H165.302V406.692H168.488V414H169.928ZM181.663 412.2V408.816C181.663 406.404 180.205 405.144 177.901 405.144C176.479 405.144 175.291 405.486 174.607 405.72V407.124C175.363 406.8 176.425 406.476 177.757 406.476C179.341 406.476 180.223 407.34 180.223 408.636V408.942C179.503 408.78 178.585 408.672 177.829 408.672C175.975 408.672 173.923 409.356 173.923 411.588C173.923 413.406 175.435 414.216 176.965 414.216C178.369 414.216 179.467 413.784 180.331 413.064C180.583 413.82 181.213 414.108 181.915 414.108C182.275 414.108 182.653 414.036 182.995 413.91V412.74C182.779 412.812 182.545 412.866 182.329 412.866C181.951 412.866 181.663 412.722 181.663 412.2ZM175.399 411.516C175.399 410.256 176.767 409.878 178.027 409.878C178.729 409.878 179.611 410.004 180.223 410.13V411.714C179.467 412.524 178.369 412.974 177.271 412.974C176.317 412.974 175.399 412.524 175.399 411.516Z" fill="#37376D"/>
<path d="M87.224 321.094C86.948 320.326 86.81 319.528 86.81 318.7C86.81 317.872 86.948 317.074 87.224 316.306C87.512 315.538 87.92 314.848 88.448 314.236C88.976 313.612 89.666 313.114 90.518 312.742C91.37 312.37 92.33 312.184 93.398 312.184C94.466 312.184 95.426 312.37 96.278 312.742C97.13 313.114 97.82 313.612 98.348 314.236C98.876 314.848 99.278 315.538 99.554 316.306C99.842 317.074 99.986 317.872 99.986 318.7C99.986 319.528 99.842 320.326 99.554 321.094C99.278 321.862 98.876 322.558 98.348 323.182C97.82 323.794 97.13 324.286 96.278 324.658C95.426 325.03 94.466 325.216 93.398 325.216C92.33 325.216 91.37 325.03 90.518 324.658C89.666 324.286 88.976 323.794 88.448 323.182C87.92 322.558 87.512 321.862 87.224 321.094ZM98.132 320.59C98.348 319.99 98.456 319.36 98.456 318.7C98.456 318.04 98.348 317.41 98.132 316.81C97.928 316.21 97.622 315.67 97.214 315.19C96.818 314.71 96.29 314.332 95.63 314.056C94.97 313.768 94.226 313.624 93.398 313.624C92.57 313.624 91.826 313.768 91.166 314.056C90.506 314.332 89.972 314.71 89.564 315.19C89.168 315.67 88.862 316.21 88.646 316.81C88.442 317.41 88.34 318.04 88.34 318.7C88.34 319.36 88.442 319.99 88.646 320.59C88.862 321.19 89.168 321.73 89.564 322.21C89.972 322.69 90.506 323.074 91.166 323.362C91.826 323.638 92.57 323.776 93.398 323.776C94.226 323.776 94.97 323.638 95.63 323.362C96.29 323.074 96.818 322.69 97.214 322.21C97.622 321.73 97.928 321.19 98.132 320.59ZM110.689 321.598C110.689 322.246 110.539 322.816 110.239 323.308C109.951 323.788 109.555 324.166 109.051 324.442C108.559 324.706 108.031 324.898 107.467 325.018C106.915 325.15 106.327 325.216 105.703 325.216C104.083 325.216 102.589 324.952 101.221 324.424V322.912C102.493 323.512 103.951 323.8 105.595 323.776C107.959 323.776 109.141 323.002 109.141 321.454C109.141 319.942 108.013 319.186 105.757 319.186H103.183V317.746H105.595C106.519 317.746 107.257 317.572 107.809 317.224C108.361 316.864 108.637 316.354 108.637 315.694C108.637 314.314 107.545 313.624 105.361 313.624C104.041 313.612 102.733 313.906 101.437 314.506V312.994C102.673 312.454 104.023 312.184 105.487 312.184C106.879 312.184 108.007 312.472 108.871 313.048C109.735 313.612 110.167 314.434 110.167 315.514C110.167 316.246 109.975 316.864 109.591 317.368C109.207 317.86 108.709 318.208 108.097 318.412C108.781 318.556 109.381 318.892 109.897 319.42C110.425 319.948 110.689 320.674 110.689 321.598ZM118.258 322.138C117.286 324.19 115.966 325.216 114.298 325.216C113.722 325.216 113.152 325.132 112.588 324.964V323.542C113.104 323.698 113.584 323.776 114.028 323.776C114.568 323.776 115.036 323.668 115.432 323.452C115.84 323.236 116.218 322.792 116.566 322.12L116.782 321.652L111.58 312.4H113.254L117.592 320.23L121.228 312.4H122.848L118.258 322.138Z" fill="#37376D"/>
<path d="M220.9 315.514C220.9 314.446 221.314 313.624 222.142 313.048C222.97 312.472 223.996 312.184 225.22 312.184C226.696 312.184 227.968 312.49 229.036 313.102V314.614C227.98 313.93 226.744 313.6 225.328 313.624C223.396 313.624 222.43 314.236 222.43 315.46C222.43 315.952 222.616 316.372 222.988 316.72C223.36 317.068 223.822 317.332 224.374 317.512C224.926 317.692 225.526 317.902 226.174 318.142C226.834 318.37 227.44 318.61 227.992 318.862C228.544 319.102 229.006 319.474 229.378 319.978C229.75 320.482 229.936 321.088 229.936 321.796C229.936 322.396 229.804 322.924 229.54 323.38C229.288 323.836 228.94 324.196 228.496 324.46C228.052 324.724 227.56 324.916 227.02 325.036C226.48 325.156 225.898 325.216 225.274 325.216C223.678 325.216 222.238 324.856 220.954 324.136V322.624C222.214 323.392 223.618 323.776 225.166 323.776C227.326 323.776 228.406 323.152 228.406 321.904C228.406 321.448 228.268 321.058 227.992 320.734C227.716 320.398 227.356 320.128 226.912 319.924C226.468 319.72 225.976 319.534 225.436 319.366C224.908 319.198 224.38 319.018 223.852 318.826C223.324 318.622 222.838 318.394 222.394 318.142C221.95 317.878 221.59 317.524 221.314 317.08C221.038 316.636 220.9 316.114 220.9 315.514ZM231.429 315.514C231.429 314.446 231.843 313.624 232.671 313.048C233.499 312.472 234.525 312.184 235.749 312.184C237.225 312.184 238.497 312.49 239.565 313.102V314.614C238.509 313.93 237.273 313.6 235.857 313.624C233.925 313.624 232.959 314.236 232.959 315.46C232.959 315.952 233.145 316.372 233.517 316.72C233.889 317.068 234.351 317.332 234.903 317.512C235.455 317.692 236.055 317.902 236.703 318.142C237.363 318.37 237.969 318.61 238.521 318.862C239.073 319.102 239.535 319.474 239.907 319.978C240.279 320.482 240.465 321.088 240.465 321.796C240.465 322.396 240.333 322.924 240.069 323.38C239.817 323.836 239.469 324.196 239.025 324.46C238.581 324.724 238.089 324.916 237.549 325.036C237.009 325.156 236.427 325.216 235.803 325.216C234.207 325.216 232.767 324.856 231.483 324.136V322.624C232.743 323.392 234.147 323.776 235.695 323.776C237.855 323.776 238.935 323.152 238.935 321.904C238.935 321.448 238.797 321.058 238.521 320.734C238.245 320.398 237.885 320.128 237.441 319.924C236.997 319.72 236.505 319.534 235.965 319.366C235.437 319.198 234.909 319.018 234.381 318.826C233.853 318.622 233.367 318.394 232.923 318.142C232.479 317.878 232.119 317.524 231.843 317.08C231.567 316.636 231.429 316.114 231.429 315.514ZM242.715 312.4H246.855C249.003 312.4 250.647 312.982 251.787 314.146C252.939 315.298 253.515 316.816 253.515 318.7C253.515 320.584 252.939 322.108 251.787 323.272C250.647 324.424 249.003 325 246.855 325H242.715V312.4ZM250.671 322.282C251.547 321.43 251.985 320.236 251.985 318.7C251.985 317.164 251.547 315.97 250.671 315.118C249.807 314.266 248.535 313.84 246.855 313.84H244.227V323.56H246.855C248.535 323.56 249.807 323.134 250.671 322.282Z" fill="#37376D"/>
<path d="M101.924 165.76L98.954 166.894V168.334L101.528 167.362V176.56H98.954V178H105.326V176.56H103.04V165.76H101.924ZM107.426 165.76L107.03 172.33C107.966 171.988 109.118 171.754 110.198 171.754C112.106 171.754 113.834 172.312 113.834 174.31C113.834 175.966 112.43 176.812 110.432 176.812C109.118 176.812 107.732 176.506 106.688 175.948V177.388C107.75 177.91 109.19 178.216 110.612 178.216C113.276 178.216 115.364 176.794 115.364 174.31C115.364 171.376 113.024 170.386 110.72 170.386C110 170.386 109.28 170.476 108.632 170.656L108.848 167.2H114.77V165.76H107.426ZM122.513 180.34V178H130.037V180.34H131.441V176.704H130.181V169.36H123.737C123.773 172.582 123.341 174.796 122.261 176.704H121.109V180.34H122.513ZM125.123 170.656H128.741V176.704H123.827C124.619 175.048 125.051 173.248 125.123 170.656ZM146.107 173.68C146.107 170.728 143.857 169.144 141.499 169.144C139.339 169.144 137.233 170.512 136.927 173.014H134.803V169.36H133.363V178H134.803V174.346H136.927C137.233 176.848 139.339 178.216 141.499 178.216C143.857 178.216 146.107 176.632 146.107 173.68ZM138.331 173.68C138.331 171.682 139.735 170.512 141.499 170.512C143.263 170.512 144.667 171.682 144.667 173.68C144.667 175.678 143.263 176.848 141.499 176.848C139.735 176.848 138.331 175.678 138.331 173.68ZM154.68 167.272V165.976C153.78 166.57 153.042 166.768 152.16 166.768C151.278 166.768 150.54 166.57 149.64 165.976V167.272C150.45 167.848 151.296 168.028 152.16 168.028C153.024 168.028 153.87 167.848 154.68 167.272ZM149.406 178L154.698 171.682V178H156.138V169.36H154.914L149.622 175.678V169.36H148.182V178H149.406ZM160.167 178V171.484L162.975 175.75H164.055L166.863 171.484V178H168.231V169.36H166.665L163.515 174.148L160.365 169.36H158.799V178H160.167ZM172.672 178H171.09V168.35H172.672V178ZM170.967 165.739C170.967 165.388 171.055 165.133 171.23 164.975C171.412 164.816 171.635 164.737 171.898 164.737C172.145 164.737 172.358 164.816 172.54 164.975C172.728 165.133 172.821 165.388 172.821 165.739C172.821 166.085 172.728 166.34 172.54 166.504C172.358 166.668 172.145 166.75 171.898 166.75C171.635 166.75 171.412 166.668 171.23 166.504C171.055 166.34 170.967 166.085 170.967 165.739ZM180.411 178C182.283 178 183.201 177.028 183.201 175.606C183.201 174.526 182.481 173.842 181.779 173.608C182.427 173.32 182.931 172.6 182.931 171.7C182.931 170.17 181.779 169.36 180.267 169.36H175.533V178H180.411ZM176.973 174.256H180.267C180.987 174.256 181.761 174.49 181.761 175.516C181.761 176.47 181.113 176.74 180.213 176.74H176.973V174.256ZM176.973 170.62H180.123C180.735 170.62 181.473 170.872 181.473 171.844C181.473 172.726 180.879 173.014 180.123 173.014H176.973V170.62Z" fill="#37376D"/>
<path d="M98.81 261.79C98.81 260.398 99.14 259.192 99.8 258.172C100.46 257.14 101.282 256.384 102.266 255.904C103.25 255.424 104.306 255.184 105.434 255.184C106.73 255.184 107.912 255.466 108.98 256.03V257.542C108.068 256.93 106.97 256.624 105.686 256.624C104.246 256.624 102.998 257.068 101.942 257.956C100.886 258.832 100.352 260.11 100.34 261.79C100.34 262.858 100.61 263.782 101.15 264.562C101.702 265.342 102.374 265.906 103.166 266.254C103.97 266.602 104.828 266.776 105.74 266.776C107.096 266.776 108.206 266.47 109.07 265.858V267.37C107.978 267.934 106.76 268.216 105.416 268.216C104.612 268.216 103.82 268.078 103.04 267.802C102.26 267.514 101.552 267.112 100.916 266.596C100.28 266.068 99.77 265.39 99.386 264.562C99.002 263.722 98.81 262.798 98.81 261.79ZM111.602 267.01C110.69 266.194 110.234 265.084 110.234 263.68C110.234 262.276 110.69 261.172 111.602 260.368C112.514 259.552 113.594 259.144 114.842 259.144C116.102 259.144 117.182 259.552 118.082 260.368C118.994 261.172 119.45 262.276 119.45 263.68C119.45 265.084 118.994 266.194 118.082 267.01C117.182 267.814 116.102 268.216 114.842 268.216C113.594 268.216 112.514 267.814 111.602 267.01ZM117.11 266.002C117.71 265.426 118.01 264.652 118.01 263.68C118.01 262.708 117.71 261.94 117.11 261.376C116.51 260.8 115.754 260.512 114.842 260.512C113.93 260.512 113.174 260.8 112.574 261.376C111.974 261.94 111.674 262.708 111.674 263.68C111.674 264.652 111.974 265.426 112.574 266.002C113.174 266.566 113.93 266.848 114.842 266.848C115.754 266.848 116.51 266.566 117.11 266.002ZM122.812 260.89C123.148 260.326 123.664 259.888 124.36 259.576C125.056 259.252 125.782 259.12 126.538 259.18V260.62C125.698 260.524 124.954 260.662 124.306 261.034C123.67 261.394 123.22 261.922 122.956 262.618V268H121.516V259.36H122.812V260.89ZM127.197 263.68C127.197 262.264 127.629 261.154 128.493 260.35C129.369 259.546 130.371 259.144 131.499 259.144C132.555 259.144 133.425 259.408 134.109 259.936C134.805 260.464 135.261 261.118 135.477 261.898C135.693 262.666 135.705 263.47 135.513 264.31H128.637C128.721 265.162 129.099 265.804 129.771 266.236C130.443 266.668 131.253 266.884 132.201 266.884C133.257 266.884 134.205 266.65 135.045 266.182V267.586C134.241 268.006 133.221 268.216 131.985 268.216C130.617 268.216 129.477 267.826 128.565 267.046C127.653 266.266 127.197 265.144 127.197 263.68ZM134.235 263.05C134.271 262.798 134.253 262.534 134.181 262.258C134.109 261.982 133.977 261.706 133.785 261.43C133.605 261.154 133.323 260.926 132.939 260.746C132.555 260.566 132.105 260.476 131.589 260.476C130.809 260.476 130.131 260.704 129.555 261.16C128.991 261.616 128.685 262.246 128.637 263.05H134.235ZM143.611 268H142.171V259.36H143.611V268ZM143.557 255.94C143.737 256.096 143.827 256.318 143.827 256.606C143.827 256.894 143.737 257.122 143.557 257.29C143.377 257.446 143.155 257.524 142.891 257.524C142.627 257.524 142.405 257.446 142.225 257.29C142.045 257.122 141.955 256.894 141.955 256.606C141.955 256.318 142.045 256.096 142.225 255.94C142.405 255.772 142.627 255.688 142.891 255.688C143.155 255.688 143.377 255.772 143.557 255.94ZM145.472 255.76H154.292V257.128L149.18 268H147.56L152.636 257.2H145.472V255.76Z" fill="#37376D"/>
<path d="M103.361 446H98.7207V445.068L100.232 444.726V434.442L98.7207 434.082V433.15H103.361V434.082L101.85 434.442V444.726L103.361 445.068V446ZM106.872 446V442.346H111.876V446H113.316V437.36H111.876V441.014H106.872V437.36H105.432V446H106.872ZM119.578 446V438.692H122.746V437.36H114.952V438.692H118.138V446H119.578ZM123.506 441.68C123.506 444.758 125.738 446.216 128.294 446.216C129.428 446.216 130.562 446 131.354 445.586V444.182C130.616 444.596 129.572 444.884 128.51 444.884C126.764 444.884 125.126 444.128 124.946 442.31H131.822C132.362 439.862 131.138 437.144 127.808 437.144C125.756 437.144 123.506 438.656 123.506 441.68ZM130.544 441.05H124.946C125.054 439.358 126.422 438.476 127.898 438.476C130.094 438.476 130.67 440.132 130.544 441.05ZM135.366 446V438.692H140.244V437.36H133.926V446H135.366ZM143.185 438.8V437.36H141.889V449.96H143.329V444.704C143.959 445.442 145.021 446.216 146.677 446.216C149.143 446.216 150.997 444.272 150.997 441.68C150.997 439.088 149.143 437.144 146.677 437.144C145.021 437.144 143.959 437.918 143.185 438.8ZM149.557 441.68C149.557 443.66 148.189 444.884 146.515 444.884C144.967 444.884 143.815 443.876 143.329 442.76V440.6C143.815 439.484 144.967 438.476 146.515 438.476C148.189 438.476 149.557 439.7 149.557 441.68ZM152.474 441.68C152.474 444.632 154.742 446.216 157.082 446.216C159.44 446.216 161.69 444.632 161.69 441.68C161.69 438.728 159.44 437.144 157.082 437.144C154.742 437.144 152.474 438.728 152.474 441.68ZM160.25 441.68C160.25 443.678 158.846 444.848 157.082 444.848C155.318 444.848 153.914 443.678 153.914 441.68C153.914 439.682 155.318 438.512 157.082 438.512C158.846 438.512 160.25 439.682 160.25 441.68ZM168.634 446C170.506 446 171.424 445.028 171.424 443.606C171.424 442.526 170.704 441.842 170.002 441.608C170.65 441.32 171.154 440.6 171.154 439.7C171.154 438.17 170.002 437.36 168.49 437.36H163.756V446H168.634ZM165.196 442.256H168.49C169.21 442.256 169.984 442.49 169.984 443.516C169.984 444.47 169.336 444.74 168.436 444.74H165.196V442.256ZM165.196 438.62H168.346C168.958 438.62 169.696 438.872 169.696 439.844C169.696 440.726 169.102 441.014 168.346 441.014H165.196V438.62ZM180.637 444.2V440.816C180.637 438.404 179.179 437.144 176.875 437.144C175.453 437.144 174.265 437.486 173.581 437.72V439.124C174.337 438.8 175.399 438.476 176.731 438.476C178.315 438.476 179.197 439.34 179.197 440.636V440.942C178.477 440.78 177.559 440.672 176.803 440.672C174.949 440.672 172.897 441.356 172.897 443.588C172.897 445.406 174.409 446.216 175.939 446.216C177.343 446.216 178.441 445.784 179.305 445.064C179.557 445.82 180.187 446.108 180.889 446.108C181.249 446.108 181.627 446.036 181.969 445.91V444.74C181.753 444.812 181.519 444.866 181.303 444.866C180.925 444.866 180.637 444.722 180.637 444.2ZM174.373 443.516C174.373 442.256 175.741 441.878 177.001 441.878C177.703 441.878 178.585 442.004 179.197 442.13V443.714C178.441 444.524 177.343 444.974 176.245 444.974C175.291 444.974 174.373 444.524 174.373 443.516ZM184.954 446V442.346H189.958V446H191.398V437.36H189.958V441.014H184.954V437.36H183.514V446H184.954ZM201.081 444.2V440.816C201.081 438.404 199.623 437.144 197.319 437.144C195.897 437.144 194.709 437.486 194.025 437.72V439.124C194.781 438.8 195.843 438.476 197.175 438.476C198.759 438.476 199.641 439.34 199.641 440.636V440.942C198.921 440.78 198.003 440.672 197.247 440.672C195.393 440.672 193.341 441.356 193.341 443.588C193.341 445.406 194.853 446.216 196.383 446.216C197.787 446.216 198.885 445.784 199.749 445.064C200.001 445.82 200.631 446.108 201.333 446.108C201.693 446.108 202.071 446.036 202.413 445.91V444.74C202.197 444.812 201.963 444.866 201.747 444.866C201.369 444.866 201.081 444.722 201.081 444.2ZM194.817 443.516C194.817 442.256 196.185 441.878 197.445 441.878C198.147 441.878 199.029 442.004 199.641 442.13V443.714C198.885 444.524 197.787 444.974 196.689 444.974C195.735 444.974 194.817 444.524 194.817 443.516Z" fill="#37376D"/>
<path d="M101.924 344.76H103.04V355.56H105.326V357H98.954V355.56H101.528V346.362L98.954 347.334V345.894L101.924 344.76ZM108.2 350.538C109.364 349.758 110.642 349.368 112.034 349.368C113.15 349.368 114.128 349.71 114.968 350.394C115.808 351.066 116.228 352.002 116.228 353.202C116.228 354.462 115.808 355.446 114.968 356.154C114.14 356.862 113.096 357.216 111.836 357.216C110.108 357.216 108.812 356.682 107.948 355.614C107.096 354.534 106.67 353.022 106.67 351.078C106.67 348.918 107.18 347.292 108.2 346.2C109.232 345.096 110.576 344.544 112.232 344.544C113.3 344.544 114.29 344.778 115.202 345.246V346.686C114.314 346.218 113.336 345.984 112.268 345.984C111.14 345.984 110.198 346.35 109.442 347.082C108.698 347.802 108.284 348.954 108.2 350.538ZM108.218 352.05C108.446 354.558 109.616 355.812 111.728 355.812C112.616 355.812 113.33 355.608 113.87 355.2C114.422 354.792 114.698 354.15 114.698 353.274C114.698 352.386 114.416 351.75 113.852 351.366C113.288 350.97 112.556 350.772 111.656 350.772C110.324 350.772 109.178 351.198 108.218 352.05ZM122.224 350.7C122.224 349.32 122.554 348.126 123.214 347.118C123.874 346.098 124.702 345.354 125.698 344.886C126.694 344.418 127.768 344.184 128.92 344.184C130.312 344.184 131.572 344.466 132.7 345.03V346.542C131.728 345.93 130.54 345.624 129.136 345.624C128.452 345.624 127.798 345.726 127.174 345.93C126.55 346.122 125.974 346.416 125.446 346.812C124.93 347.196 124.516 347.724 124.204 348.396C123.904 349.068 123.754 349.836 123.754 350.7C123.754 351.612 123.91 352.41 124.222 353.094C124.534 353.766 124.954 354.294 125.482 354.678C126.01 355.05 126.58 355.326 127.192 355.506C127.816 355.686 128.476 355.776 129.172 355.776C130.072 355.776 130.846 355.62 131.494 355.308V350.304H133.006V356.37C131.782 356.934 130.468 357.216 129.064 357.216C128.164 357.216 127.318 357.096 126.526 356.856C125.734 356.616 125.008 356.25 124.348 355.758C123.7 355.254 123.184 354.57 122.8 353.706C122.416 352.842 122.224 351.84 122.224 350.7ZM135.744 344.4H140.91C142.23 344.4 143.274 344.676 144.042 345.228C144.81 345.768 145.194 346.554 145.194 347.586C145.194 348.33 144.996 348.942 144.6 349.422C144.204 349.89 143.73 350.208 143.178 350.376C143.85 350.556 144.438 350.904 144.942 351.42C145.446 351.924 145.698 352.632 145.698 353.544C145.698 354.096 145.59 354.582 145.374 355.002C145.17 355.422 144.906 355.758 144.582 356.01C144.27 356.25 143.898 356.448 143.466 356.604C143.046 356.76 142.638 356.868 142.242 356.928C141.858 356.976 141.462 357 141.054 357H135.744V344.4ZM144.168 353.382C144.168 351.93 143.166 351.204 141.162 351.204H137.256V355.56H140.748C141.132 355.56 141.456 355.554 141.72 355.542C141.984 355.518 142.284 355.47 142.62 355.398C142.956 355.314 143.226 355.2 143.43 355.056C143.634 354.9 143.808 354.684 143.952 354.408C144.096 354.12 144.168 353.778 144.168 353.382ZM143.664 347.802C143.664 347.094 143.418 346.59 142.926 346.29C142.446 345.99 141.732 345.84 140.784 345.84H137.256V349.764H141.198C141.918 349.764 142.506 349.608 142.962 349.296C143.43 348.972 143.664 348.474 143.664 347.802Z" fill="#37376D"/>
<path d="M233.692 344.76L233.296 351.33C234.232 350.988 235.384 350.754 236.464 350.754C238.372 350.754 240.1 351.312 240.1 353.31C240.1 354.966 238.696 355.812 236.698 355.812C235.384 355.812 233.998 355.506 232.954 354.948V356.388C234.016 356.91 235.456 357.216 236.878 357.216C239.542 357.216 241.63 355.794 241.63 353.31C241.63 350.376 239.29 349.386 236.986 349.386C236.266 349.386 235.546 349.476 234.898 349.656L235.114 346.2H241.036V344.76H233.692ZM246.348 344.76L243.378 345.894V347.334L245.952 346.362V355.56H243.378V357H249.75V355.56H247.464V344.76H246.348ZM251.382 345.732V347.244C252.642 346.362 253.938 345.948 255.18 345.948C256.944 345.948 257.97 346.596 257.97 347.802C257.97 349.386 256.584 350.142 255.054 351.042C253.146 352.158 250.95 353.292 250.95 356.28V357H259.572V355.56L252.606 355.578C252.642 353.958 254.316 353.13 256.026 352.122C257.736 351.114 259.482 349.908 259.482 347.82C259.482 345.732 257.808 344.544 255.306 344.544C253.956 344.544 252.606 344.886 251.382 345.732ZM265.805 350.7C265.805 355.452 269.189 357.216 272.645 357.216C274.013 357.216 275.417 356.91 276.587 356.37V350.304H275.075V355.308C274.445 355.614 273.599 355.776 272.753 355.776C270.107 355.776 267.335 354.498 267.335 350.7C267.335 347.1 270.071 345.624 272.717 345.624C274.031 345.624 275.309 345.93 276.281 346.542V345.03C275.165 344.472 273.833 344.184 272.501 344.184C269.153 344.184 265.805 346.362 265.805 350.7ZM279.324 344.4V357H284.634C286.47 357 289.278 356.406 289.278 353.544C289.278 351.492 287.802 350.664 286.758 350.376C287.748 350.088 288.774 349.188 288.774 347.586C288.774 345.462 287.064 344.4 284.49 344.4H279.324ZM287.748 353.382C287.748 355.452 285.912 355.56 284.328 355.56H280.836V351.204H284.742C285.948 351.204 287.748 351.42 287.748 353.382ZM287.244 347.802C287.244 349.242 286.092 349.764 284.778 349.764H280.836V345.84H284.364C286.146 345.84 287.244 346.308 287.244 347.802Z" fill="#37376D"/>
<defs>
<filter id="filter0_d_1713_316" x="0" y="0" width="719" height="562" filterUnits="userSpaceOnUse" color-interpolation-filters="sRGB">
<feFlood flood-opacity="0" result="BackgroundImageFix"/>
<feColorMatrix in="SourceAlpha" type="matrix" values="0 0 0 0 0 0 0 0 0 0 0 0 0 0 0 0 0 0 127 0" result="hardAlpha"/>
<feOffset dy="4"/>
<feGaussianBlur stdDeviation="25"/>
<feComposite in2="hardAlpha" operator="out"/>
<feColorMatrix type="matrix" values="0 0 0 0 0 0 0 0 0 0 0 0 0 0 0 0 0 0 0.1 0"/>
<feBlend mode="normal" in2="BackgroundImageFix" result="effect1_dropShadow_1713_316"/>
<feBlend mode="normal" in="SourceGraphic" in2="effect1_dropShadow_1713_316" result="shape"/>
</filter>
</defs>
</svg>
