<svg width="565" height="553" viewBox="0 0 565 553" fill="none" xmlns="http://www.w3.org/2000/svg">
<g clip-path="url(#clip0_1713_317)">
<rect width="325.621" height="325.621" rx="20" transform="matrix(0.866044 -0.499967 0.866044 0.499967 0.996094 389.837)" fill="#0FA7F0" fill-opacity="0.4"/>
<rect width="325.621" height="325.621" rx="20" transform="matrix(0.866044 -0.499967 0.866044 0.499967 0.996094 318.141)" fill="#0FA7F0" fill-opacity="0.6"/>
<rect width="325.621" height="325.621" rx="20" transform="matrix(0.866044 -0.499967 0.866044 0.499967 0.996094 246.445)" fill="#0FA7F0" fill-opacity="0.8"/>
<rect width="325.621" height="325.621" rx="20" transform="matrix(0.866044 -0.499967 0.866044 0.499967 0.996094 162.8)" fill="#0FA7F0"/>
<path d="M304.224 248.705L302.679 244.243L310.39 245.146L313.591 243.298L302.424 242.122L300.587 236.106L297.386 237.954L298.768 241.986L291.766 241.198L288.584 243.035L299.005 244.096L301.042 250.542L304.224 248.705ZM319.972 237.01L317.19 235.404C314.316 233.745 311.57 234.091 308.951 235.603C307.605 236.38 306.623 237.346 306.15 237.892L308.333 239.152C308.824 238.49 309.57 237.682 310.77 236.989C312.134 236.201 313.425 236.149 314.298 236.653L314.607 236.831C313.843 237.104 312.989 237.493 312.298 237.892C310.552 238.9 309.151 240.506 311.37 241.787C313.098 242.785 315.462 242.512 317.099 241.567C318.39 240.821 318.99 240.013 319.172 239.131C320.191 239.299 321.191 239.099 322.082 238.585C322.573 238.301 322.973 237.944 323.228 237.629L321.573 236.674C321.464 236.8 321.318 236.905 321.173 236.989C320.845 237.178 320.427 237.272 319.972 237.01ZM314.389 238.427C314.917 238.123 315.608 237.85 316.08 237.682L317.445 238.469C317.372 239.099 316.899 239.603 316.19 240.013C315.426 240.454 314.407 240.559 313.753 240.181C312.861 239.666 313.462 238.963 314.389 238.427ZM319.454 231.304L318.181 230.569L315.944 231.86L328.675 239.21L331.202 237.75L326.274 234.905C327.456 234.937 328.947 234.727 330.33 233.929C333.094 232.333 332.348 230.18 329.966 228.805C327.583 227.43 323.855 226.999 321.091 228.595C319.472 229.529 319.217 230.537 319.454 231.304ZM327.383 230.296C328.747 231.083 329.02 232.228 327.583 233.057C326.474 233.698 324.964 233.771 323.855 233.53L321.782 232.333C321.363 231.692 321.491 230.821 322.6 230.18C324.037 229.351 326.019 229.508 327.383 230.296ZM341.534 224.562L338.751 222.956C335.878 221.297 333.132 221.644 330.513 223.156C329.167 223.933 328.185 224.898 327.712 225.444L329.894 226.704C330.385 226.043 331.131 225.234 332.331 224.541C333.695 223.754 334.987 223.702 335.86 224.206L336.169 224.384C335.405 224.657 334.55 225.045 333.859 225.444C332.113 226.452 330.713 228.059 332.932 229.34C334.659 230.337 337.024 230.064 338.66 229.119C339.952 228.374 340.552 227.565 340.734 226.683C341.752 226.851 342.752 226.652 343.644 226.137C344.135 225.854 344.535 225.497 344.789 225.182L343.134 224.227C343.025 224.353 342.88 224.458 342.734 224.541C342.407 224.73 341.989 224.825 341.534 224.562ZM335.951 225.98C336.478 225.675 337.169 225.402 337.642 225.234L339.006 226.022C338.933 226.652 338.46 227.156 337.751 227.565C336.987 228.006 335.969 228.111 335.314 227.733C334.423 227.219 335.023 226.515 335.951 225.98ZM348.763 222.993L345.307 220.998L346.326 220.41L352.291 220.956L355.128 219.318L347.453 218.646L346.144 214.426L343.307 216.064L344.343 219.224L343.289 219.833L340.033 217.953L337.505 219.413L346.235 224.453L348.763 222.993ZM360.709 216.097L354.107 212.285L356.89 210.679L354.762 209.451L346.687 214.112L348.815 215.341L351.597 213.734L358.199 217.546L360.709 216.097ZM359.761 211.604C362.798 213.357 366.672 212.948 369.437 211.352C370.746 210.596 371.619 209.861 372.092 209.189L370.11 208.045C369.691 208.664 369 209.294 368 209.872C366.563 210.701 364.69 211.174 363.126 210.607L369.273 207.058C367.272 205.231 363.253 204.255 359.634 206.344C357.67 207.478 356.469 209.704 359.761 211.604ZM365.363 207.425L361.471 209.672C360.307 208.958 360.58 208.024 361.653 207.404C363.235 206.491 364.854 207.026 365.363 207.425ZM369.308 202.523L368.035 201.788L365.798 203.079L378.529 210.429L381.057 208.97L376.128 206.124C377.31 206.156 378.802 205.946 380.184 205.148C382.948 203.552 382.202 201.4 379.82 200.024C377.438 198.649 373.709 198.218 370.945 199.814C369.326 200.749 369.072 201.757 369.308 202.523ZM377.237 201.515C378.601 202.302 378.874 203.447 377.438 204.276C376.328 204.917 374.819 204.99 373.709 204.749L371.636 203.552C371.218 202.911 371.345 202.04 372.454 201.4C373.891 200.57 375.873 200.728 377.237 201.515ZM388.042 200.317L387.023 195.236L391.934 198.071L394.444 196.622L385.714 191.582L383.531 192.842L384.55 197.924L379.639 195.089L377.111 196.548L385.841 201.588L388.042 200.317ZM391.858 193.222C394.968 195.017 398.732 194.44 401.115 193.064C402.224 192.424 402.988 191.731 403.479 191.027L401.242 189.736C400.988 190.324 400.351 190.985 399.424 191.521C398.06 192.308 395.986 192.623 394.313 191.657C392.549 190.639 393.204 189.484 394.586 188.686C395.422 188.203 396.55 187.846 397.568 187.72L395.35 186.439C394.149 186.649 392.985 187.069 392.021 187.626C389.603 189.022 388.511 191.29 391.858 193.222ZM410.066 187.603L403.464 183.792L406.247 182.185L404.119 180.957L396.044 185.618L398.172 186.847L400.954 185.241L407.556 189.052L410.066 187.603ZM416.406 183.943L415.387 178.861L420.298 181.696L422.807 180.247L414.078 175.208L411.895 176.467L412.914 181.549L408.003 178.714L405.475 180.174L414.205 185.213L416.406 183.943ZM427.478 177.551L424.023 175.556L425.041 174.968L431.006 175.514L433.844 173.876L426.169 173.204L424.859 168.983L422.022 170.621L423.059 173.781L422.004 174.39L418.748 172.511L416.22 173.97L424.95 179.01L427.478 177.551ZM437.115 171.988L436.096 166.906L441.007 169.741L443.516 168.292L434.787 163.252L432.604 164.512L433.623 169.594L428.712 166.759L426.184 168.218L434.914 173.258L437.115 171.988ZM368.062 234.85L361.46 231.039L364.243 229.432L362.115 228.204L354.04 232.866L356.168 234.094L358.951 232.488L365.552 236.299L368.062 234.85ZM367.115 230.357C370.17 232.121 374.026 231.701 376.554 230.242C379.1 228.772 379.809 226.557 376.754 224.793C373.698 223.029 369.861 223.438 367.315 224.908C364.787 226.368 364.059 228.594 367.115 230.357ZM374.189 226.273C375.535 227.05 375.753 228.1 374.298 228.94C372.862 229.769 371.043 229.644 369.697 228.867C368.351 228.09 368.133 227.04 369.57 226.21C371.025 225.37 372.843 225.496 374.189 226.273ZM388.116 223.273C390.317 222.003 389.916 220.932 388.68 220.218C387.625 219.609 386.334 219.556 385.079 219.924C385.606 219.241 385.424 218.569 384.424 217.992C383.242 217.309 381.314 217.12 379.241 218.317L374.039 221.32L382.769 226.36L388.116 223.273ZM381.678 222.811L383.751 221.614C384.369 221.257 385.133 221.068 385.879 221.499C386.57 221.898 386.279 222.339 385.643 222.706L383.569 223.903L381.678 222.811ZM378.277 220.869L380.186 219.766C380.768 219.43 381.514 219.252 382.242 219.672C382.914 220.06 382.66 220.48 382.06 220.827L380.132 221.94L378.277 220.869ZM398.297 214.791L395.515 213.185C392.641 211.526 389.895 211.873 387.276 213.384C385.93 214.161 384.948 215.127 384.475 215.673L386.658 216.933C387.149 216.272 387.895 215.463 389.095 214.77C390.459 213.983 391.75 213.93 392.623 214.434L392.932 214.613C392.168 214.886 391.314 215.274 390.623 215.673C388.877 216.681 387.476 218.288 389.695 219.569C391.423 220.566 393.787 220.293 395.424 219.348C396.715 218.603 397.315 217.794 397.497 216.912C398.516 217.08 399.516 216.881 400.407 216.366C400.898 216.083 401.298 215.726 401.553 215.411L399.898 214.455C399.789 214.581 399.643 214.686 399.498 214.77C399.17 214.959 398.752 215.054 398.297 214.791ZM392.714 216.209C393.242 215.904 393.933 215.631 394.405 215.463L395.77 216.251C395.697 216.881 395.224 217.385 394.515 217.794C393.751 218.235 392.732 218.34 392.078 217.962C391.186 217.448 391.787 216.744 392.714 216.209ZM397.779 209.085L396.506 208.35L394.269 209.642L407 216.991L409.527 215.532L404.599 212.687C405.781 212.718 407.272 212.508 408.655 211.71C411.419 210.114 410.673 207.962 408.291 206.586C405.908 205.211 402.18 204.781 399.416 206.376C397.797 207.311 397.542 208.319 397.779 209.085ZM405.708 208.077C407.072 208.865 407.345 210.009 405.908 210.839C404.799 211.479 403.289 211.553 402.18 211.311L400.107 210.114C399.688 209.474 399.816 208.602 400.925 207.962C402.362 207.132 404.344 207.29 405.708 208.077ZM415.285 204.312L406.846 202.381L404.173 203.924L417.158 206.654L417.177 206.685C417.995 207.704 417.922 208.46 417.013 208.985C416.667 209.184 416.267 209.352 415.849 209.51L417.941 210.717C418.504 210.518 419.05 210.308 419.505 210.045C420.923 209.226 421.542 208.008 420.087 206.034L414.176 198.149L411.557 199.661L415.285 204.312Z" fill="white"/>
<path d="M342.023 417.457L336.803 414.444L335.185 415.378L324.909 409.446L322.181 411.021L332.457 416.953L326.819 420.208L316.543 414.276L313.815 415.851L326.546 423.2L336.858 417.247L339.622 418.843L342.023 417.457ZM328.61 407.583C327.728 407.073 327.778 406.535 328.761 405.968C329.743 405.4 330.676 405.371 331.558 405.881C331.978 406.123 332.182 406.385 332.171 406.665C332.159 406.938 331.907 407.217 331.416 407.501C330.433 408.068 329.498 408.095 328.61 407.583ZM343.928 413.165L341.22 414.729L331.291 408.998L334 407.434L343.928 413.165ZM348.959 410.261L345.649 408.35L349.177 406.313L352.487 408.224L355.015 406.765L346.285 401.725L343.757 403.185L347.068 405.096L343.539 407.132L340.229 405.222L337.701 406.681L346.431 411.721L348.959 410.261ZM352.303 403.291C355.358 405.055 359.214 404.635 361.742 403.176C364.288 401.706 364.997 399.491 361.942 397.727C358.886 395.963 355.049 396.372 352.503 397.842C349.975 399.302 349.247 401.527 352.303 403.291ZM359.377 399.207C360.723 399.984 360.941 401.034 359.486 401.874C358.05 402.703 356.231 402.577 354.885 401.8C353.539 401.023 353.321 399.974 354.758 399.144C356.213 398.304 358.031 398.43 359.377 399.207ZM373.304 396.207C375.504 394.936 375.104 393.866 373.868 393.152C372.813 392.543 371.522 392.49 370.267 392.858C370.794 392.175 370.612 391.503 369.612 390.926C368.43 390.243 366.502 390.054 364.429 391.251L359.227 394.254L367.957 399.294L373.304 396.207ZM366.866 395.745L368.939 394.548C369.557 394.191 370.321 394.002 371.067 394.433C371.758 394.832 371.467 395.272 370.83 395.64L368.757 396.837L366.866 395.745ZM363.465 393.803L365.374 392.7C365.956 392.364 366.702 392.186 367.429 392.606C368.102 392.994 367.848 393.414 367.248 393.761L365.32 394.873L363.465 393.803ZM365.676 386.184C364.794 385.675 364.844 385.137 365.827 384.569C366.81 384.002 367.742 383.973 368.624 384.482C369.045 384.725 369.249 384.986 369.237 385.266C369.225 385.54 368.974 385.818 368.482 386.102C367.5 386.669 366.564 386.697 365.676 386.184ZM380.995 391.767L378.286 393.331L368.358 387.599L371.067 386.035L380.995 391.767ZM391.476 388.383L389.166 387.05L395.495 383.396L397.805 384.729L400.133 383.385L395.895 380.939L394.586 381.695L387.784 377.768L380.6 381.916C383.419 383.48 385.347 384.908 386.129 386.577L384.91 387.281L389.148 389.727L391.476 388.383ZM384.856 381.685L387.202 380.33L392.076 383.144L388.748 385.065C387.984 383.868 386.838 382.913 384.856 381.685ZM387.131 373.798C386.249 373.289 386.299 372.751 387.282 372.183C388.265 371.616 389.197 371.587 390.079 372.096C390.5 372.339 390.704 372.6 390.692 372.881C390.68 373.154 390.429 373.432 389.937 373.716C388.954 374.283 388.019 374.311 387.131 373.798ZM402.45 379.381L399.741 380.945L389.813 375.213L392.521 373.65L402.45 379.381ZM410.499 372.13L407.717 370.524C404.843 368.865 402.097 369.211 399.478 370.723C398.132 371.5 397.15 372.466 396.677 373.012L398.86 374.272C399.351 373.61 400.096 372.802 401.297 372.109C402.661 371.322 403.952 371.269 404.825 371.773L405.134 371.952C404.37 372.225 403.516 372.613 402.825 373.012C401.079 374.02 399.678 375.626 401.897 376.907C403.625 377.905 405.989 377.632 407.626 376.687C408.917 375.941 409.517 375.133 409.699 374.251C410.718 374.419 411.718 374.219 412.609 373.705C413.1 373.422 413.5 373.065 413.755 372.75L412.1 371.794C411.991 371.92 411.845 372.025 411.7 372.109C411.372 372.298 410.954 372.393 410.499 372.13ZM404.916 373.548C405.443 373.243 406.135 372.97 406.607 372.802L407.971 373.589C407.899 374.219 407.426 374.723 406.717 375.133C405.953 375.574 404.934 375.679 404.279 375.301C403.388 374.786 403.988 374.083 404.916 373.548ZM417.728 370.561L411.126 366.749L414.655 364.713L421.257 368.524L423.785 367.064L415.055 362.025L406.471 366.98L415.2 372.02L417.728 370.561ZM431.475 360.021L428.692 358.415C425.819 356.756 423.072 357.102 420.453 358.614C419.108 359.391 418.126 360.357 417.653 360.903L419.835 362.163C420.326 361.501 421.072 360.693 422.272 360C423.636 359.213 424.927 359.16 425.8 359.664L426.11 359.843C425.346 360.116 424.491 360.504 423.8 360.903C422.054 361.911 420.654 363.517 422.872 364.798C424.6 365.796 426.964 365.523 428.601 364.578C429.893 363.832 430.493 363.024 430.675 362.142C431.693 362.31 432.693 362.11 433.584 361.596C434.075 361.312 434.476 360.955 434.73 360.64L433.075 359.685C432.966 359.811 432.821 359.916 432.675 360C432.348 360.189 431.929 360.284 431.475 360.021ZM425.891 361.438C426.419 361.134 427.11 360.861 427.583 360.693L428.947 361.48C428.874 362.11 428.401 362.614 427.692 363.024C426.928 363.465 425.91 363.57 425.255 363.192C424.364 362.677 424.964 361.974 425.891 361.438ZM440.922 354.378C439.886 353.779 438.522 353.727 437.194 354.136C437.794 353.538 437.794 352.782 436.758 352.184C435.485 351.449 433.193 351.239 430.174 352.981C428.955 353.685 427.992 354.577 427.61 355.302L429.61 356.457C429.938 355.848 430.847 354.903 431.865 354.315C432.993 353.664 433.92 353.527 434.502 353.863C435.103 354.21 434.703 354.693 433.83 355.197L432.211 356.131L433.884 357.097L435.503 356.163C436.358 355.669 437.267 355.249 438.031 355.69C438.776 356.121 438.158 356.751 436.976 357.433C435.903 358.053 434.248 358.567 433.229 358.735L435.248 359.901C436.467 359.68 437.922 359.176 439.286 358.389C442.286 356.656 442.286 355.165 440.922 354.378ZM440.182 352.558C443.238 354.322 447.093 353.902 449.621 352.443C452.168 350.973 452.877 348.758 449.821 346.994C446.766 345.23 442.929 345.639 440.382 347.109C437.854 348.569 437.127 350.794 440.182 352.558ZM447.257 348.474C448.603 349.251 448.821 350.301 447.366 351.141C445.929 351.97 444.111 351.844 442.765 351.067C441.419 350.29 441.201 349.241 442.638 348.411C444.093 347.571 445.911 347.697 447.257 348.474ZM458.365 347.101L455.055 345.19L458.583 343.154L461.893 345.064L464.421 343.605L455.691 338.565L453.163 340.025L456.473 341.936L452.945 343.972L449.635 342.062L447.107 343.521L455.837 348.561L458.365 347.101ZM468.765 341.097L467.746 336.016L472.657 338.85L475.167 337.402L466.437 332.362L464.254 333.622L465.273 338.703L460.362 335.869L457.834 337.328L466.564 342.368L468.765 341.097Z" fill="white"/>
<path d="M320.224 341.015C323.679 343.01 329.099 343.535 333.61 340.931C338.12 338.328 337.211 335.199 333.755 333.204C330.299 331.209 324.88 330.684 320.369 333.288C315.859 335.892 316.768 339.021 320.224 341.015ZM330.954 334.821C333.191 336.112 333.719 337.95 331.082 339.472C328.426 341.005 325.244 340.7 323.007 339.409C320.77 338.118 320.242 336.28 322.897 334.747C325.535 333.225 328.717 333.529 330.954 334.821ZM337.127 333.714C340.237 335.509 344.002 334.932 346.384 333.557C347.494 332.916 348.257 332.223 348.748 331.52L346.511 330.228C346.257 330.816 345.62 331.478 344.693 332.013C343.329 332.801 341.255 333.116 339.582 332.15C337.818 331.131 338.473 329.976 339.855 329.178C340.692 328.695 341.819 328.338 342.838 328.212L340.619 326.932C339.419 327.142 338.255 327.561 337.291 328.118C334.872 329.514 333.781 331.782 337.127 333.714ZM345.862 328.524C348.918 330.288 352.773 329.868 355.301 328.409C357.847 326.939 358.557 324.723 355.501 322.96C352.446 321.196 348.608 321.605 346.062 323.075C343.534 324.534 342.807 326.76 345.862 328.524ZM352.937 324.44C354.283 325.217 354.501 326.267 353.046 327.107C351.609 327.936 349.791 327.81 348.445 327.033C347.099 326.256 346.881 325.206 348.317 324.377C349.772 323.537 351.591 323.663 352.937 324.44ZM366.463 317.072C363.79 315.529 360.535 315.644 358.388 316.883C357.061 317.65 356.697 318.553 356.915 319.308C356.188 318.741 355.588 317.849 356.042 316.957C356.843 315.466 358.789 314.888 359.007 313.649L356.697 312.316C356.661 313.702 353.842 314.531 352.896 316.883C352.314 318.353 353.005 320.033 356.133 321.839C359.898 324.012 363.499 323.676 366.063 322.196C368.7 320.673 369.246 318.678 366.463 317.072ZM359.771 320.957C358.843 320.421 358.116 319.371 359.643 318.49C361.189 317.597 362.917 318.007 363.899 318.574C364.881 319.14 365.591 320.138 364.045 321.03C362.517 321.912 360.753 321.524 359.771 320.957ZM374.32 317.135L373.302 312.053L378.212 314.888L380.722 313.439L371.992 308.4L369.81 309.66L370.829 314.741L365.918 311.906L363.39 313.366L372.12 318.405L374.32 317.135ZM378.136 310.039C381.246 311.835 385.011 311.257 387.394 309.882C388.503 309.241 389.267 308.548 389.758 307.845L387.521 306.554C387.266 307.142 386.63 307.803 385.702 308.338C384.338 309.126 382.265 309.441 380.592 308.475C378.827 307.457 379.482 306.302 380.864 305.504C381.701 305.021 382.829 304.664 383.847 304.538L381.628 303.257C380.428 303.467 379.264 303.887 378.3 304.443C375.881 305.84 374.79 308.107 378.136 310.039ZM396.344 304.421L389.743 300.609L392.525 299.003L390.397 297.774L382.322 302.436L384.45 303.665L387.233 302.058L393.835 305.869L396.344 304.421ZM388.221 294.684C387.339 294.174 387.39 293.636 388.372 293.069C389.355 292.501 390.287 292.472 391.17 292.982C391.59 293.224 391.794 293.486 391.782 293.766C391.77 294.039 391.519 294.318 391.028 294.602C390.045 295.169 389.109 295.196 388.221 294.684ZM403.54 300.267L400.831 301.83L390.903 296.099L393.612 294.535L403.54 300.267ZM412.602 295.035L406 291.224L410.129 288.84L408.001 287.612L401.345 291.455L410.074 296.494L412.602 295.035ZM405.822 284.523C404.94 284.014 404.99 283.475 405.973 282.908C406.956 282.341 407.888 282.311 408.77 282.821C409.191 283.063 409.395 283.325 409.383 283.605C409.371 283.879 409.12 284.157 408.628 284.441C407.646 285.008 406.71 285.035 405.822 284.523ZM421.141 290.106L418.432 291.669L408.504 285.938L411.213 284.374L421.141 290.106ZM426.171 287.201L419.57 283.39L423.098 281.353L429.7 285.165L432.228 283.705L423.498 278.665L414.914 283.621L423.643 288.661L426.171 287.201ZM429.515 280.231C432.57 281.995 436.426 281.575 438.954 280.116C441.5 278.646 442.21 276.431 439.154 274.667C436.099 272.903 432.261 273.312 429.715 274.782C427.187 276.242 426.46 278.468 429.515 280.231ZM436.59 276.147C437.936 276.924 438.154 277.974 436.699 278.814C435.262 279.644 433.443 279.518 432.098 278.741C430.752 277.964 430.533 276.914 431.97 276.084C433.425 275.244 435.244 275.37 436.59 276.147ZM449.449 273.763L442.847 269.952L445.63 268.346L443.502 267.117L435.427 271.779L437.555 273.007L440.337 271.401L446.939 275.212L449.449 273.763ZM448.501 269.271C451.538 271.024 455.412 270.615 458.177 269.019C459.486 268.263 460.359 267.528 460.832 266.856L458.85 265.712C458.431 266.331 457.74 266.961 456.74 267.538C455.303 268.368 453.43 268.84 451.866 268.273L458.013 264.725C456.012 262.898 451.993 261.921 448.374 264.011C446.41 265.145 445.209 267.37 448.501 269.271ZM454.103 265.092L450.211 267.339C449.047 266.625 449.32 265.691 450.393 265.071C451.975 264.158 453.594 264.693 454.103 265.092ZM468.014 260.253C466.978 259.654 465.614 259.602 464.286 260.011C464.886 259.413 464.886 258.657 463.85 258.058C462.576 257.323 460.285 257.113 457.266 258.856C456.047 259.56 455.083 260.452 454.702 261.177L456.702 262.332C457.029 261.723 457.939 260.778 458.957 260.19C460.085 259.539 461.012 259.402 461.594 259.738C462.195 260.085 461.794 260.568 460.921 261.072L459.303 262.006L460.976 262.972L462.595 262.038C463.449 261.544 464.359 261.124 465.123 261.565C465.868 261.996 465.25 262.626 464.068 263.308C462.995 263.927 461.34 264.442 460.321 264.61L462.34 265.775C463.559 265.555 465.014 265.051 466.378 264.263C469.378 262.531 469.378 261.04 468.014 260.253ZM474.331 259.399L473.312 254.317L478.223 257.152L480.733 255.703L472.003 250.664L469.82 251.924L470.839 257.005L465.928 254.17L463.4 255.63L472.13 260.669L474.331 259.399Z" fill="white"/>
<path d="M363.064 459.821L375.795 467.17L381.269 464.01C383.488 462.729 385.597 460.734 382.706 459.065C380.832 457.984 378.723 458.131 377.104 458.645C377.85 457.774 377.741 456.787 376.249 455.926C374.067 454.666 371.339 455.044 368.629 456.608L363.064 459.821ZM379.687 460.472C381.069 461.27 380.232 462.047 379.014 462.75L376.286 464.325L373.012 462.435L375.885 460.776C376.977 460.146 378.341 459.695 379.687 460.472ZM374.012 457.763C374.994 458.33 374.722 459.034 373.685 459.632L370.939 461.217L368.029 459.537L370.629 458.036C371.83 457.343 373.012 457.186 374.012 457.763ZM375.727 452.783C374.845 452.274 374.895 451.736 375.878 451.168C376.861 450.601 377.793 450.572 378.675 451.081C379.096 451.324 379.3 451.585 379.288 451.865C379.276 452.139 379.025 452.417 378.533 452.701C377.55 453.268 376.615 453.296 375.727 452.783ZM391.046 458.366L388.337 459.93L378.409 454.198L381.117 452.634L391.046 458.366ZM397.495 457.31L395.185 455.976L401.514 452.322L403.824 453.656L406.152 452.312L401.914 449.866L400.605 450.622L393.803 446.695L386.619 450.842C389.438 452.406 391.366 453.834 392.148 455.504L390.929 456.207L395.167 458.654L397.495 457.31ZM390.875 450.611L393.221 449.257L398.095 452.071L394.767 453.992C394.003 452.795 392.857 451.84 390.875 450.611ZM407.941 448.613L401.339 444.801L405.467 442.418L403.339 441.19L396.683 445.032L405.413 450.072L407.941 448.613ZM414.787 441.385L406.348 439.453L403.674 440.996L416.66 443.726L416.678 443.757C417.496 444.776 417.424 445.532 416.514 446.057C416.169 446.256 415.769 446.424 415.35 446.582L417.442 447.789C418.006 447.59 418.551 447.38 419.006 447.117C420.425 446.298 421.043 445.08 419.588 443.106L413.677 435.221L411.058 436.733L414.787 441.385ZM426.198 438.072L422.743 436.077L423.761 435.489L429.727 436.035L432.564 434.398L424.889 433.726L423.58 429.505L420.742 431.143L421.779 434.303L420.724 434.912L417.469 433.033L414.941 434.492L423.671 439.532L426.198 438.072ZM435.835 432.509L434.816 427.428L439.727 430.262L442.237 428.813L433.507 423.774L431.325 425.034L432.343 430.115L427.432 427.281L424.905 428.74L433.634 433.78L435.835 432.509Z" fill="white"/>
<g clip-path="url(#clip1_1713_317)">
<path d="M205.826 86.9478C205.2 87.3093 204.848 87.7997 204.848 88.311C204.848 88.8224 205.2 89.3127 205.826 89.6743L229.441 103.307C230.067 103.669 230.917 103.872 231.803 103.872C232.688 103.872 233.538 103.669 234.164 103.307C242.312 98.6137 253.353 95.9779 264.863 95.9779C276.374 95.9779 287.414 98.6137 295.562 103.307C296.189 103.669 297.038 103.872 297.924 103.872C298.81 103.872 299.659 103.669 300.285 103.307L323.9 89.6743C324.526 89.3127 324.878 88.8224 324.878 88.311C324.878 87.7997 324.526 87.3093 323.9 86.9478C291.347 68.1549 238.379 68.1549 205.826 86.9478ZM297.846 99.2622C288.707 94.6601 276.99 92.1246 264.863 92.1246C252.736 92.1246 241.019 94.6601 231.88 99.2622L212.961 88.3403C242.243 72.8303 287.484 72.8302 316.765 88.3403L297.846 99.2622Z" fill="white"/>
<path d="M130.262 138.752L134.985 136.026L139.708 138.752L134.985 141.479L130.262 138.752Z" fill="white"/>
<path d="M139.707 133.299L151.514 126.483L156.237 129.209L144.43 136.026L139.707 133.299Z" fill="white"/>
<path d="M346.505 144.679C349.4 136.823 348.849 128.674 344.902 120.973C340.954 113.272 333.736 106.262 323.903 100.581C323.276 100.219 322.427 100.016 321.541 100.016C320.655 100.016 319.806 100.219 319.18 100.581L295.565 114.213C294.939 114.575 294.587 115.065 294.587 115.577C294.587 116.088 294.939 116.578 295.565 116.94C301.637 120.445 305.771 124.911 307.447 129.773C309.122 134.635 308.262 139.674 304.976 144.254C301.69 148.834 296.125 152.748 288.986 155.502C281.846 158.256 273.452 159.726 264.866 159.726C256.279 159.726 247.885 158.256 240.745 155.502C233.606 152.748 228.041 148.834 224.755 144.254C221.469 139.674 220.609 134.635 222.285 129.773C223.96 124.911 228.095 120.445 234.166 116.94C234.793 116.578 235.145 116.088 235.145 115.577C235.145 115.065 234.793 114.575 234.166 114.213L210.552 100.581C209.925 100.219 209.076 100.016 208.19 100.016C207.304 100.016 206.455 100.219 205.829 100.581C192.039 108.527 183.523 119.017 181.769 130.22L167.573 131.391C166.857 131.45 166.195 131.641 165.684 131.936L142.069 145.569L146.792 148.295L169.619 135.117L181.425 134.143C181.278 141.277 183.88 148.339 189.042 154.821C194.203 161.302 201.795 167.04 211.269 171.62C220.742 176.2 231.861 179.507 243.82 181.302C255.779 183.098 268.28 183.336 280.418 182L280.418 188.395L248.335 206.917L253.058 209.643L286.119 190.557C286.745 190.196 287.097 189.705 287.097 189.194L287.097 181.11C300.653 178.955 313.043 174.855 323.116 169.192C333.189 163.53 340.617 156.488 344.708 148.722L359.797 147.477C360.512 147.418 361.175 147.227 361.686 146.932L392.385 129.209L387.662 126.483L357.75 143.751L346.505 144.679ZM302.571 115.622L321.49 104.7C348.357 121.604 348.354 147.72 321.487 164.624L302.569 153.702C310.541 148.427 314.934 141.663 314.935 134.662C314.935 127.661 310.543 120.897 302.571 115.622ZM208.241 104.7L227.16 115.622C219.188 120.897 214.796 127.661 214.797 134.662C214.797 141.663 219.19 148.427 227.162 153.702L208.244 164.624C181.378 147.72 181.374 121.604 208.241 104.7ZM212.968 167.35L231.886 156.429C241.023 161.031 252.739 163.567 264.866 163.567C276.992 163.567 288.708 161.031 297.846 156.429L316.764 167.35C287.482 182.86 242.249 182.86 212.968 167.35Z" fill="white"/>
<path d="M394.746 136.026L399.469 133.299L404.192 136.026L399.469 138.752L394.746 136.026Z" fill="white"/>
<path d="M371.133 149.659L390.025 138.752L394.748 141.479L375.856 152.385L371.133 149.659Z" fill="white"/>
<path d="M260.141 213.733L264.864 211.006L269.587 213.733L264.864 216.459L260.141 213.733Z" fill="white"/>
<path d="M269.59 208.28L288.482 197.374L293.205 200.1L274.313 211.006L269.59 208.28Z" fill="white"/>
<path d="M295.566 127.846L257.782 106.034C257.156 105.672 256.306 105.469 255.421 105.469C254.535 105.469 253.685 105.672 253.059 106.034L243.613 111.487C242.987 111.848 242.635 112.339 242.635 112.85C242.635 113.361 242.987 113.852 243.613 114.213L248.336 116.94L241.252 121.03C240.626 121.391 240.274 121.882 240.274 122.393C240.274 122.904 240.626 123.395 241.252 123.756L248.336 127.846L241.252 131.936C240.626 132.298 240.274 132.788 240.274 133.299C240.274 133.811 240.626 134.301 241.252 134.663L245.975 137.389L238.89 141.479C238.264 141.841 237.912 142.331 237.912 142.842C237.912 143.354 238.264 143.844 238.89 144.206L253.059 152.385C253.685 152.747 254.535 152.95 255.421 152.95C256.306 152.95 257.156 152.747 257.782 152.385L295.566 130.573C296.192 130.211 296.544 129.721 296.544 129.209C296.544 128.698 296.192 128.208 295.566 127.846ZM245.975 142.842L250.698 140.116L260.144 145.569L255.421 148.295L245.975 142.842ZM248.336 133.299L253.059 130.573L269.59 140.116L264.867 142.842L248.336 133.299ZM248.336 122.393L253.059 119.667L279.035 134.663L274.312 137.389L248.336 122.393ZM288.481 129.209L283.758 131.936L250.698 112.85L255.421 110.124L288.481 129.209Z" fill="white"/>
<path d="M271.949 146.932L276.672 144.206L281.395 146.932L276.672 149.659L271.949 146.932Z" fill="white"/>
<path d="M262.504 152.385L267.227 149.659L271.95 152.385L267.227 155.112L262.504 152.385Z" fill="white"/>
<path d="M281.395 141.479L286.117 138.752L290.84 141.479L286.117 144.206L281.395 141.479Z" fill="white"/>
<path d="M290.84 136.026L295.563 133.299L300.286 136.026L295.563 138.752L290.84 136.026Z" fill="white"/>
</g>
</g>
<defs>
<clipPath id="clip0_1713_317">
<rect width="564.005" height="552.637" fill="white" transform="translate(0.996094)"/>
</clipPath>
<clipPath id="clip1_1713_317">
<rect width="174.511" height="174.511" fill="white" transform="matrix(0.866044 -0.499967 0.866044 0.499967 113.73 134.663)"/>
</clipPath>
</defs>
</svg>
