<svg width="619" height="323" viewBox="0 0 619 323" fill="none" xmlns="http://www.w3.org/2000/svg">
<path d="M0 15C0 6.71574 6.71573 0 15 0H604C612.284 0 619 6.71573 619 15V308C619 316.284 612.284 323 604 323H15C6.71572 323 0 316.284 0 308V15Z" fill="white"/>
<path d="M62 74L289 74" stroke="black"/>
<path d="M63.962 58V45.4H65.438L71.09 54.922H70.298L75.878 45.4H77.354L77.372 58H75.644L75.626 48.118H76.04L71.072 56.47H70.244L65.24 48.118H65.69V58H63.962ZM81.006 58V48.46H82.734V58H81.006ZM81.87 46.624C81.534 46.624 81.252 46.516 81.024 46.3C80.808 46.084 80.7 45.82 80.7 45.508C80.7 45.184 80.808 44.914 81.024 44.698C81.252 44.482 81.534 44.374 81.87 44.374C82.206 44.374 82.482 44.482 82.698 44.698C82.926 44.902 83.04 45.16 83.04 45.472C83.04 45.796 82.932 46.072 82.716 46.3C82.5 46.516 82.218 46.624 81.87 46.624ZM86.1037 58V48.46H87.8317V55.408L93.6817 48.46H95.2477V58H93.5197V51.052L87.6877 58H86.1037ZM90.5677 47.218C89.6917 47.218 89.0017 47.008 88.4977 46.588C88.0057 46.156 87.7537 45.538 87.7417 44.734H88.9117C88.9237 45.19 89.0737 45.55 89.3617 45.814C89.6617 46.078 90.0577 46.21 90.5497 46.21C91.0417 46.21 91.4377 46.078 91.7377 45.814C92.0377 45.55 92.1937 45.19 92.2057 44.734H93.4117C93.3997 45.538 93.1417 46.156 92.6377 46.588C92.1337 47.008 91.4437 47.218 90.5677 47.218ZM105.326 58V49.522L105.758 49.972H101.834V48.46H110.546V49.972H106.64L107.054 49.522V58H105.326ZM115.977 58.108C115.017 58.108 114.165 57.898 113.421 57.478C112.677 57.058 112.089 56.482 111.657 55.75C111.225 55.006 111.009 54.166 111.009 53.23C111.009 52.282 111.225 51.442 111.657 50.71C112.089 49.978 112.677 49.408 113.421 49C114.165 48.58 115.017 48.37 115.977 48.37C116.925 48.37 117.771 48.58 118.515 49C119.271 49.408 119.859 49.978 120.279 50.71C120.711 51.43 120.927 52.27 120.927 53.23C120.927 54.178 120.711 55.018 120.279 55.75C119.859 56.482 119.271 57.058 118.515 57.478C117.771 57.898 116.925 58.108 115.977 58.108ZM115.977 56.596C116.589 56.596 117.135 56.458 117.615 56.182C118.107 55.906 118.491 55.516 118.767 55.012C119.043 54.496 119.181 53.902 119.181 53.23C119.181 52.546 119.043 51.958 118.767 51.466C118.491 50.962 118.107 50.572 117.615 50.296C117.135 50.02 116.589 49.882 115.977 49.882C115.365 49.882 114.819 50.02 114.339 50.296C113.859 50.572 113.475 50.962 113.187 51.466C112.899 51.958 112.755 52.546 112.755 53.23C112.755 53.902 112.899 54.496 113.187 55.012C113.475 55.516 113.859 55.906 114.339 56.182C114.819 56.458 115.365 56.596 115.977 56.596ZM123.422 58V48.46H127.85C128.966 48.46 129.842 48.676 130.478 49.108C131.126 49.528 131.45 50.128 131.45 50.908C131.45 51.688 131.144 52.294 130.532 52.726C129.932 53.146 129.134 53.356 128.138 53.356L128.408 52.888C129.548 52.888 130.394 53.098 130.946 53.518C131.498 53.938 131.774 54.556 131.774 55.372C131.774 56.2 131.462 56.848 130.838 57.316C130.226 57.772 129.284 58 128.012 58H123.422ZM125.114 56.668H127.886C128.606 56.668 129.146 56.56 129.506 56.344C129.866 56.116 130.046 55.756 130.046 55.264C130.046 54.76 129.878 54.394 129.542 54.166C129.218 53.926 128.702 53.806 127.994 53.806H125.114V56.668ZM125.114 52.564H127.706C128.366 52.564 128.864 52.444 129.2 52.204C129.548 51.952 129.722 51.604 129.722 51.16C129.722 50.704 129.548 50.362 129.2 50.134C128.864 49.906 128.366 49.792 127.706 49.792H125.114V52.564ZM140.329 58V55.984L140.239 55.606V52.168C140.239 51.436 140.023 50.872 139.591 50.476C139.171 50.068 138.535 49.864 137.683 49.864C137.119 49.864 136.567 49.96 136.027 50.152C135.487 50.332 135.031 50.578 134.659 50.89L133.939 49.594C134.431 49.198 135.019 48.898 135.703 48.694C136.399 48.478 137.125 48.37 137.881 48.37C139.189 48.37 140.197 48.688 140.905 49.324C141.613 49.96 141.967 50.932 141.967 52.24V58H140.329ZM137.197 58.108C136.489 58.108 135.865 57.988 135.325 57.748C134.797 57.508 134.389 57.178 134.101 56.758C133.813 56.326 133.669 55.84 133.669 55.3C133.669 54.784 133.789 54.316 134.029 53.896C134.281 53.476 134.683 53.14 135.235 52.888C135.799 52.636 136.555 52.51 137.503 52.51H140.527V53.752H137.575C136.711 53.752 136.129 53.896 135.829 54.184C135.529 54.472 135.379 54.82 135.379 55.228C135.379 55.696 135.565 56.074 135.937 56.362C136.309 56.638 136.825 56.776 137.485 56.776C138.133 56.776 138.697 56.632 139.177 56.344C139.669 56.056 140.023 55.636 140.239 55.084L140.581 56.272C140.353 56.836 139.951 57.286 139.375 57.622C138.799 57.946 138.073 58.108 137.197 58.108ZM150.136 58.108C149.344 58.108 148.618 57.928 147.958 57.568C147.31 57.196 146.788 56.65 146.392 55.93C146.008 55.21 145.816 54.31 145.816 53.23C145.816 52.15 146.002 51.25 146.374 50.53C146.758 49.81 147.274 49.27 147.922 48.91C148.582 48.55 149.32 48.37 150.136 48.37C151.072 48.37 151.9 48.574 152.62 48.982C153.34 49.39 153.91 49.96 154.33 50.692C154.75 51.412 154.96 52.258 154.96 53.23C154.96 54.202 154.75 55.054 154.33 55.786C153.91 56.518 153.34 57.088 152.62 57.496C151.9 57.904 151.072 58.108 150.136 58.108ZM145.078 61.492V48.46H146.734V51.034L146.626 53.248L146.806 55.462V61.492H145.078ZM149.992 56.596C150.604 56.596 151.15 56.458 151.63 56.182C152.122 55.906 152.506 55.516 152.782 55.012C153.07 54.496 153.214 53.902 153.214 53.23C153.214 52.546 153.07 51.958 152.782 51.466C152.506 50.962 152.122 50.572 151.63 50.296C151.15 50.02 150.604 49.882 149.992 49.882C149.392 49.882 148.846 50.02 148.354 50.296C147.874 50.572 147.49 50.962 147.202 51.466C146.926 51.958 146.788 52.546 146.788 53.23C146.788 53.902 146.926 54.496 147.202 55.012C147.49 55.516 147.874 55.906 148.354 56.182C148.846 56.458 149.392 56.596 149.992 56.596Z" fill="#37376D"/>
<path d="M285.163 55.75L280.998 52L289.328 52L285.163 55.75Z" fill="#000C2C"/>
<path d="M329 74L556 74" stroke="black"/>
<path d="M339.44 58L334.868 51.79L336.326 50.89L341.492 58H339.44ZM330.962 58V45.4H332.726V58H330.962ZM332.186 52.456V50.872H336.272V52.456H332.186ZM336.488 51.898L334.832 51.646L339.35 45.4H341.276L336.488 51.898ZM347.012 58.108C346.052 58.108 345.2 57.898 344.456 57.478C343.712 57.058 343.124 56.482 342.692 55.75C342.26 55.006 342.044 54.166 342.044 53.23C342.044 52.282 342.26 51.442 342.692 50.71C343.124 49.978 343.712 49.408 344.456 49C345.2 48.58 346.052 48.37 347.012 48.37C347.96 48.37 348.806 48.58 349.55 49C350.306 49.408 350.894 49.978 351.314 50.71C351.746 51.43 351.962 52.27 351.962 53.23C351.962 54.178 351.746 55.018 351.314 55.75C350.894 56.482 350.306 57.058 349.55 57.478C348.806 57.898 347.96 58.108 347.012 58.108ZM347.012 56.596C347.624 56.596 348.17 56.458 348.65 56.182C349.142 55.906 349.526 55.516 349.802 55.012C350.078 54.496 350.216 53.902 350.216 53.23C350.216 52.546 350.078 51.958 349.802 51.466C349.526 50.962 349.142 50.572 348.65 50.296C348.17 50.02 347.624 49.882 347.012 49.882C346.4 49.882 345.854 50.02 345.374 50.296C344.894 50.572 344.51 50.962 344.222 51.466C343.934 51.958 343.79 52.546 343.79 53.23C343.79 53.902 343.934 54.496 344.222 55.012C344.51 55.516 344.894 55.906 345.374 56.182C345.854 56.458 346.4 56.596 347.012 56.596ZM354.457 58V48.46H356.185V52.51H361.621V48.46H363.349V58H361.621V54.004H356.185V58H354.457ZM373.621 58L369.931 53.356L371.353 52.492L375.655 58H373.621ZM366.709 58V48.46H368.437V58H366.709ZM367.915 53.968V52.492H371.065V53.968H367.915ZM371.497 53.428L369.895 53.212L373.549 48.46H375.403L371.497 53.428ZM377.408 61.6C376.952 61.6 376.508 61.522 376.076 61.366C375.644 61.222 375.272 61.006 374.96 60.718L375.698 59.422C375.938 59.65 376.202 59.824 376.49 59.944C376.778 60.064 377.084 60.124 377.408 60.124C377.828 60.124 378.176 60.016 378.452 59.8C378.728 59.584 378.986 59.2 379.226 58.648L379.82 57.334L380 57.118L383.744 48.46H385.436L380.81 58.954C380.534 59.626 380.222 60.154 379.874 60.538C379.538 60.922 379.166 61.192 378.758 61.348C378.35 61.516 377.9 61.6 377.408 61.6ZM379.676 58.306L375.32 48.46H377.12L380.828 56.956L379.676 58.306ZM392.263 58.108C391.471 58.108 390.745 57.928 390.085 57.568C389.437 57.196 388.915 56.65 388.519 55.93C388.135 55.21 387.943 54.31 387.943 53.23C387.943 52.15 388.129 51.25 388.501 50.53C388.885 49.81 389.401 49.27 390.049 48.91C390.709 48.55 391.447 48.37 392.263 48.37C393.199 48.37 394.027 48.574 394.747 48.982C395.467 49.39 396.037 49.96 396.457 50.692C396.877 51.412 397.087 52.258 397.087 53.23C397.087 54.202 396.877 55.054 396.457 55.786C396.037 56.518 395.467 57.088 394.747 57.496C394.027 57.904 393.199 58.108 392.263 58.108ZM387.205 61.492V48.46H388.861V51.034L388.753 53.248L388.933 55.462V61.492H387.205ZM392.119 56.596C392.731 56.596 393.277 56.458 393.757 56.182C394.249 55.906 394.633 55.516 394.909 55.012C395.197 54.496 395.341 53.902 395.341 53.23C395.341 52.546 395.197 51.958 394.909 51.466C394.633 50.962 394.249 50.572 393.757 50.296C393.277 50.02 392.731 49.882 392.119 49.882C391.519 49.882 390.973 50.02 390.481 50.296C390.001 50.572 389.617 50.962 389.329 51.466C389.053 51.958 388.915 52.546 388.915 53.23C388.915 53.902 389.053 54.496 389.329 55.012C389.617 55.516 390.001 55.906 390.481 56.182C390.973 56.458 391.519 56.596 392.119 56.596ZM403.846 58.108C402.826 58.108 401.926 57.898 401.146 57.478C400.378 57.058 399.778 56.482 399.346 55.75C398.926 55.018 398.716 54.178 398.716 53.23C398.716 52.282 398.92 51.442 399.328 50.71C399.748 49.978 400.318 49.408 401.038 49C401.77 48.58 402.592 48.37 403.504 48.37C404.428 48.37 405.244 48.574 405.952 48.982C406.66 49.39 407.212 49.966 407.608 50.71C408.016 51.442 408.22 52.3 408.22 53.284C408.22 53.356 408.214 53.44 408.202 53.536C408.202 53.632 408.196 53.722 408.184 53.806H400.066V52.564H407.284L406.582 52.996C406.594 52.384 406.468 51.838 406.204 51.358C405.94 50.878 405.574 50.506 405.106 50.242C404.65 49.966 404.116 49.828 403.504 49.828C402.904 49.828 402.37 49.966 401.902 50.242C401.434 50.506 401.068 50.884 400.804 51.376C400.54 51.856 400.408 52.408 400.408 53.032V53.32C400.408 53.956 400.552 54.526 400.84 55.03C401.14 55.522 401.554 55.906 402.082 56.182C402.61 56.458 403.216 56.596 403.9 56.596C404.464 56.596 404.974 56.5 405.43 56.308C405.898 56.116 406.306 55.828 406.654 55.444L407.608 56.56C407.176 57.064 406.636 57.448 405.988 57.712C405.352 57.976 404.638 58.108 403.846 58.108ZM410.901 58V48.46H412.629V52.51H418.065V48.46H419.793V58H418.065V54.004H412.629V58H410.901ZM425.043 58V49.522L425.475 49.972H421.551V48.46H430.263V49.972H426.357L426.771 49.522V58H425.043Z" fill="#37376D"/>
<path d="M552.163 55.75L547.998 52L556.328 52L552.163 55.75Z" fill="#000C2C"/>
<circle opacity="0.6" cx="144" cy="193" r="82" fill="#FFE264"/>
<path d="M226 193C226 212.362 219.149 231.099 206.66 245.894C194.171 260.689 176.849 270.587 157.762 273.837C138.675 277.086 119.054 273.477 102.373 263.648C85.6917 253.819 73.0264 238.405 66.6195 220.134C60.2127 201.863 60.4776 181.915 67.3674 163.82C74.2572 145.726 87.3273 130.654 104.264 121.271C121.2 111.889 140.91 108.802 159.904 112.557C178.898 116.312 195.951 126.667 208.042 141.789L144 193H226Z" fill="#F28100"/>
<path d="M226 193C226 210.72 220.26 227.963 209.639 242.148C199.018 256.332 184.089 266.695 167.085 271.683C150.082 276.672 131.92 276.019 115.32 269.821C98.7188 263.623 84.5723 252.214 74.9984 237.303C65.4246 222.392 60.9385 204.781 62.212 187.107C63.4855 169.433 70.45 152.647 82.0627 139.262C93.6753 125.878 109.311 116.615 126.629 112.861C143.947 109.107 162.015 111.064 178.127 118.439L144 193H226Z" fill="#0FA7F0"/>
<circle opacity="0.6" cx="283.5" cy="257.5" r="17.5" fill="#FFE264"/>
<path d="M301 257.5C301 261.632 299.538 265.631 296.873 268.788C294.207 271.946 290.511 274.058 286.437 274.752C282.364 275.445 278.176 274.675 274.616 272.577C271.056 270.48 268.353 267.19 266.986 263.291C265.619 259.392 265.675 255.134 267.145 251.273C268.616 247.411 271.405 244.194 275.02 242.192C278.634 240.19 282.841 239.531 286.894 240.332C290.948 241.134 294.587 243.344 297.168 246.571L283.5 257.5H301Z" fill="#F28100"/>
<path d="M301 257.5C301 259.798 300.547 262.074 299.668 264.197C298.788 266.32 297.499 268.249 295.874 269.874C294.249 271.499 292.32 272.788 290.197 273.668C288.074 274.547 285.798 275 283.5 275C281.202 275 278.926 274.547 276.803 273.668C274.68 272.788 272.751 271.499 271.126 269.874C269.501 268.249 268.212 266.32 267.332 264.197C266.453 262.074 266 259.798 266 257.5L283.5 257.5H301Z" fill="#0FA7F0"/>
<path opacity="0.6" d="M348.246 268.33C350.884 264.982 352.209 260.787 351.973 256.532C351.737 252.276 349.957 248.253 346.965 245.217C343.974 242.182 339.978 240.342 335.726 240.043C331.475 239.744 327.26 241.008 323.874 243.595C320.488 246.183 318.162 249.918 317.334 254.099C316.505 258.279 317.231 262.619 319.375 266.302C321.519 269.986 324.933 272.761 328.977 274.106C333.021 275.451 337.417 275.274 341.34 273.608L334.5 257.5L348.246 268.33Z" fill="#FFE264"/>
<path d="M352 257.5C352 261.959 350.298 266.25 347.241 269.497C344.184 272.743 340.003 274.7 335.552 274.968C331.101 275.236 326.716 273.795 323.291 270.939C319.867 268.083 317.662 264.027 317.127 259.601C316.591 255.174 317.766 250.709 320.411 247.119C323.056 243.529 326.972 241.085 331.359 240.284C335.745 239.484 340.272 240.388 344.015 242.813C347.757 245.237 350.433 248.999 351.496 253.329L334.5 257.5H352Z" fill="#F28100"/>
<path d="M352 257.5C352 260.961 350.974 264.345 349.051 267.222C347.128 270.1 344.395 272.343 341.197 273.668C337.999 274.992 334.481 275.339 331.086 274.664C327.691 273.989 324.573 272.322 322.126 269.874C319.678 267.427 318.011 264.309 317.336 260.914C316.661 257.519 317.008 254.001 318.332 250.803C319.657 247.605 321.9 244.872 324.778 242.949C327.655 241.026 331.039 240 334.5 240V257.5H352Z" fill="#0FA7F0"/>
<path opacity="0.6" d="M501.246 268.33C503.884 264.982 505.209 260.787 504.973 256.532C504.737 252.276 502.957 248.253 499.965 245.217C496.974 242.182 492.978 240.342 488.726 240.043C484.475 239.744 480.26 241.008 476.874 243.595C473.488 246.183 471.162 249.918 470.334 254.099C469.505 258.279 470.231 262.619 472.375 266.302C474.519 269.986 477.933 272.761 481.977 274.106C486.021 275.451 490.417 275.274 494.34 273.608L487.5 257.5L501.246 268.33Z" fill="#FFE264"/>
<path d="M505 257.5C505 261.549 503.596 265.472 501.028 268.602C498.459 271.732 494.885 273.874 490.914 274.664C486.943 275.454 482.821 274.842 479.251 272.934C475.68 271.025 472.881 267.937 471.332 264.197C469.783 260.456 469.578 256.294 470.754 252.42C471.929 248.546 474.411 245.199 477.778 242.949C481.144 240.7 485.186 239.687 489.215 240.084C493.245 240.481 497.011 242.263 499.874 245.126L487.5 257.5H505Z" fill="#F28100"/>
<path d="M505 257.5C505 260.961 503.974 264.345 502.051 267.222C500.128 270.1 497.395 272.343 494.197 273.668C490.999 274.992 487.481 275.339 484.086 274.664C480.691 273.989 477.573 272.322 475.126 269.874C472.678 267.427 471.011 264.309 470.336 260.914C469.661 257.519 470.008 254.001 471.332 250.803C472.657 247.605 474.9 244.872 477.778 242.949C480.655 241.026 484.039 240 487.5 240V257.5H505Z" fill="#0FA7F0"/>
<path opacity="0.6" d="M450.246 268.33C452.884 264.982 454.209 260.787 453.973 256.532C453.737 252.276 451.957 248.253 448.965 245.217C445.974 242.182 441.978 240.342 437.726 240.043C433.475 239.744 429.26 241.008 425.874 243.595C422.488 246.183 420.162 249.918 419.334 254.099C418.505 258.279 419.231 262.619 421.375 266.302C423.519 269.986 426.933 272.761 430.977 274.106C435.021 275.451 439.417 275.274 443.34 273.608L436.5 257.5L450.246 268.33Z" fill="#FFE264"/>
<path d="M454 257.5C454 261.176 452.842 264.76 450.691 267.741C448.539 270.722 445.504 272.95 442.014 274.109C438.525 275.267 434.76 275.297 431.252 274.195C427.745 273.092 424.674 270.913 422.475 267.967C420.276 265.02 419.061 261.456 419.002 257.78C418.943 254.104 420.044 250.503 422.147 247.488C424.251 244.472 427.25 242.196 430.72 240.982C434.191 239.768 437.955 239.677 441.48 240.723L436.5 257.5H454Z" fill="#F28100"/>
<path d="M454 257.5C454 260.961 452.974 264.345 451.051 267.222C449.128 270.1 446.395 272.343 443.197 273.668C439.999 274.992 436.481 275.339 433.086 274.664C429.691 273.989 426.573 272.322 424.126 269.874C421.678 267.427 420.011 264.309 419.336 260.914C418.661 257.519 419.008 254.001 420.332 250.803C421.657 247.605 423.9 244.872 426.778 242.949C429.655 241.026 433.039 240 436.5 240V257.5H454Z" fill="#0FA7F0"/>
<path opacity="0.6" d="M399.246 268.33C401.884 264.982 403.209 260.787 402.973 256.532C402.737 252.276 400.957 248.253 397.965 245.217C394.974 242.182 390.978 240.342 386.726 240.043C382.475 239.744 378.26 241.008 374.874 243.595C371.488 246.183 369.162 249.918 368.334 254.099C367.505 258.279 368.231 262.619 370.375 266.302C372.519 269.986 375.933 272.761 379.977 274.106C384.021 275.451 388.417 275.274 392.34 273.608L385.5 257.5L399.246 268.33Z" fill="#FFE264"/>
<path d="M403 257.5C403 260.961 401.974 264.345 400.051 267.222C398.128 270.1 395.395 272.343 392.197 273.668C388.999 274.992 385.481 275.339 382.086 274.664C378.691 273.989 375.573 272.322 373.126 269.874C370.678 267.427 369.011 264.309 368.336 260.914C367.661 257.519 368.008 254.001 369.332 250.803C370.657 247.605 372.9 244.872 375.778 242.949C378.655 241.026 382.039 240 385.5 240V257.5H403Z" fill="#F28100"/>
<path d="M399.845 267.524C397.862 270.361 395.083 272.547 391.858 273.804C388.633 275.062 385.108 275.335 381.728 274.589C378.349 273.843 375.266 272.111 372.87 269.613C370.474 267.115 368.873 263.963 368.269 260.555C367.664 257.147 368.084 253.636 369.475 250.467C370.866 247.298 373.166 244.612 376.083 242.75C379.001 240.887 382.405 239.932 385.865 240.004C389.326 240.076 392.687 241.173 395.524 243.155L385.5 257.5L399.845 267.524Z" fill="#0FA7F0"/>
<path opacity="0.6" d="M553.379 266.712C555.623 263.088 556.467 258.77 555.753 254.568C555.039 250.366 552.816 246.57 549.501 243.89C546.187 241.211 542.009 239.834 537.75 240.016C533.492 240.199 529.447 241.929 526.374 244.882C523.301 247.835 521.412 251.808 521.06 256.055C520.708 260.303 521.918 264.533 524.464 267.951C527.009 271.37 530.714 273.742 534.884 274.622C539.054 275.503 543.402 274.832 547.112 272.734L538.5 257.5L553.379 266.712Z" fill="#FFE264"/>
<path d="M553.901 265.81C552.258 268.856 549.748 271.346 546.689 272.966C543.63 274.585 540.16 275.262 536.717 274.909C533.273 274.556 530.012 273.19 527.345 270.984C524.678 268.778 522.726 265.83 521.734 262.514C520.742 259.198 520.756 255.663 521.774 252.354C522.791 249.046 524.767 246.114 527.451 243.929C530.135 241.744 533.407 240.403 536.853 240.078C540.299 239.752 543.764 240.455 546.81 242.099L538.5 257.5L553.901 265.81Z" fill="#F28100"/>
<path d="M538.5 275C535.039 275 531.655 273.974 528.778 272.051C525.9 270.128 523.657 267.395 522.332 264.197C521.008 260.999 520.661 257.481 521.336 254.086C522.011 250.691 523.678 247.573 526.126 245.126C528.573 242.678 531.691 241.011 535.086 240.336C538.481 239.661 541.999 240.008 545.197 241.332C548.395 242.657 551.128 244.9 553.051 247.778C554.974 250.655 556 254.039 556 257.5L538.5 257.5V275Z" fill="#0FA7F0"/>
<path d="M266 178C266 176.895 266.895 176 268 176H277C278.105 176 279 176.895 279 178V211C279 212.105 278.105 213 277 213H268C266.895 213 266 212.105 266 211V178Z" fill="#0FA7F0"/>
<path d="M358 178C358 176.895 358.895 176 360 176H369C370.105 176 371 176.895 371 178V211C371 212.105 370.105 213 369 213H360C358.895 213 358 212.105 358 211V178Z" fill="#0FA7F0"/>
<path d="M289 178C289 176.895 289.895 176 291 176H300C301.105 176 302 176.895 302 178V211C302 212.105 301.105 213 300 213H291C289.895 213 289 212.105 289 211V178Z" fill="#0FA7F0"/>
<path d="M381 178C381 176.895 381.895 176 383 176H392C393.105 176 394 176.895 394 178V211C394 212.105 393.105 213 392 213H383C381.895 213 381 212.105 381 211V178Z" fill="#0FA7F0"/>
<path d="M450 178C450 176.895 450.895 176 452 176H461C462.105 176 463 176.895 463 178V211C463 212.105 462.105 213 461 213H452C450.895 213 450 212.105 450 211V178Z" fill="#0FA7F0"/>
<path d="M519 178C519 176.895 519.895 176 521 176H530C531.105 176 532 176.895 532 178V211C532 212.105 531.105 213 530 213H521C519.895 213 519 212.105 519 211V178Z" fill="#0FA7F0"/>
<path d="M542 178C542 176.895 542.895 176 544 176H553C554.105 176 555 176.895 555 178V211C555 212.105 554.105 213 553 213H544C542.895 213 542 212.105 542 211V178Z" fill="#0FA7F0"/>
<path d="M312 167C312 165.895 312.895 165 314 165H323C324.105 165 325 165.895 325 167V211C325 212.105 324.105 213 323 213H314C312.895 213 312 212.105 312 211V167Z" fill="#0FA7F0"/>
<path d="M404 167C404 165.895 404.895 165 406 165H415C416.105 165 417 165.895 417 167V211C417 212.105 416.105 213 415 213H406C404.895 213 404 212.105 404 211V167Z" fill="#0FA7F0"/>
<path d="M473 167C473 165.895 473.895 165 475 165H484C485.105 165 486 165.895 486 167V211C486 212.105 485.105 213 484 213H475C473.895 213 473 212.105 473 211V167Z" fill="#0FA7F0"/>
<path d="M496 167C496 165.895 496.895 165 498 165H507C508.105 165 509 165.895 509 167V211C509 212.105 508.105 213 507 213H498C496.895 213 496 212.105 496 211V167Z" fill="#0FA7F0"/>
<path d="M335 136C335 134.895 335.895 134 337 134H346C347.105 134 348 134.895 348 136V211C348 212.105 347.105 213 346 213H337C335.895 213 335 212.105 335 211V136Z" fill="#0FA7F0"/>
<path d="M427 136C427 134.895 427.895 134 429 134H438C439.105 134 440 134.895 440 136V211C440 212.105 439.105 213 438 213H429C427.895 213 427 212.105 427 211V136Z" fill="#0FA7F0"/>
<path d="M266 134C266 132.895 266.895 132 268 132H277C278.105 132 279 132.895 279 134V173C279 174.105 278.105 175 277 175H268C266.895 175 266 174.105 266 173V134Z" fill="#FFEEA2"/>
<path d="M358 134C358 132.895 358.895 132 360 132H369C370.105 132 371 132.895 371 134V173C371 174.105 370.105 175 369 175H360C358.895 175 358 174.105 358 173V134Z" fill="#FFEEA2"/>
<path d="M289 167C289 165.895 289.895 165 291 165H300C301.105 165 302 165.895 302 167V173C302 174.105 301.105 175 300 175H291C289.895 175 289 174.105 289 173V167Z" fill="#FFEEA2"/>
<path d="M381 167C381 165.895 381.895 165 383 165H392C393.105 165 394 165.895 394 167V173C394 174.105 393.105 175 392 175H383C381.895 175 381 174.105 381 173V167Z" fill="#FFEEA2"/>
<path d="M450 167C450 165.895 450.895 165 452 165H461C462.105 165 463 165.895 463 167V173C463 174.105 462.105 175 461 175H452C450.895 175 450 174.105 450 173V167Z" fill="#FFEEA2"/>
<path d="M519 167C519 165.895 519.895 165 521 165H530C531.105 165 532 165.895 532 167V173C532 174.105 531.105 175 530 175H521C519.895 175 519 174.105 519 173V167Z" fill="#FFEEA2"/>
<path d="M542 167C542 165.895 542.895 165 544 165H553C554.105 165 555 165.895 555 167V173C555 174.105 554.105 175 553 175H544C542.895 175 542 174.105 542 173V167Z" fill="#FFEEA2"/>
<path d="M312 125C312 123.895 312.895 123 314 123H323C324.105 123 325 123.895 325 125V162C325 163.105 324.105 164 323 164H314C312.895 164 312 163.105 312 162V125Z" fill="#FFEEA2"/>
<path d="M404 125C404 123.895 404.895 123 406 123H415C416.105 123 417 123.895 417 125V162C417 163.105 416.105 164 415 164H406C404.895 164 404 163.105 404 162V125Z" fill="#FFEEA2"/>
<path d="M473 125C473 123.895 473.895 123 475 123H484C485.105 123 486 123.895 486 125V162C486 163.105 485.105 164 484 164H475C473.895 164 473 163.105 473 162V125Z" fill="#FFEEA2"/>
<path d="M496 147C496 145.895 496.895 145 498 145H507C508.105 145 509 145.895 509 147V162C509 163.105 508.105 164 507 164H498C496.895 164 496 163.105 496 162V147Z" fill="#FFEEA2"/>
<path d="M335 125C335 123.895 335.895 123 337 123H346C347.105 123 348 123.895 348 125V131C348 132.105 347.105 133 346 133H337C335.895 133 335 132.105 335 131V125Z" fill="#FFEEA2"/>
<path d="M427 125C427 123.895 427.895 123 429 123H438C439.105 123 440 123.895 440 125V131C440 132.105 439.105 133 438 133H429C427.895 133 427 132.105 427 131V125Z" fill="#FFEEA2"/>
<rect x="266" y="111" width="13" height="20" rx="2" fill="#F28100"/>
<rect x="358" y="111" width="13" height="20" rx="2" fill="#F28100"/>
<rect x="289" y="111" width="13" height="53" rx="2" fill="#F28100"/>
<rect x="381" y="111" width="13" height="53" rx="2" fill="#F28100"/>
<rect x="450" y="111" width="13" height="53" rx="2" fill="#F28100"/>
<rect x="519" y="111" width="13" height="53" rx="2" fill="#F28100"/>
<rect x="542" y="111" width="13" height="53" rx="2" fill="#F28100"/>
<rect x="312" y="111" width="13" height="11" rx="2" fill="#F28100"/>
<rect x="404" y="111" width="13" height="11" rx="2" fill="#F28100"/>
<rect x="473" y="111" width="13" height="11" rx="2" fill="#F28100"/>
<rect x="496" y="111" width="13" height="33" rx="2" fill="#F28100"/>
<rect x="335" y="111" width="13" height="11" rx="2" fill="#F28100"/>
<rect x="427" y="111" width="13" height="11" rx="2" fill="#F28100"/>
</svg>
