<svg width="390" height="262" viewBox="0 0 390 262" fill="none" xmlns="http://www.w3.org/2000/svg">
<rect x="0.5" y="0.5" width="389" height="261" rx="4.5" fill="white" stroke="#E6E6E6"/>
<rect x="27.5" y="114.5" width="335" height="116" rx="2.5" fill="white" stroke="#E6E6E6"/>
<path d="M27.5 117C27.5 115.619 28.6193 114.5 30 114.5H360C361.381 114.5 362.5 115.619 362.5 117V143.5H27.5V117Z" fill="#F8F8F8" stroke="#E6E6E6"/>
<path d="M27.5 143.5H362.5V172.5H27.5V143.5Z" fill="white" stroke="#E6E6E6"/>
<path d="M27.5 172.5H362.5V201.5H27.5V172.5Z" fill="white" stroke="#E6E6E6"/>
<path d="M88.5 72C88.5 69.5147 90.5147 67.5 93 67.5H157C159.485 67.5 161.5 69.5147 161.5 72V88C161.5 90.4853 159.485 92.5 157 92.5H93C90.5147 92.5 88.5 90.4853 88.5 88V72Z" fill="white" stroke="#E6E6E6"/>
<path d="M182.5 72C182.5 69.5147 184.515 67.5 187 67.5H274C276.485 67.5 278.5 69.5147 278.5 72V88C278.5 90.4853 276.485 92.5 274 92.5H187C184.515 92.5 182.5 90.4853 182.5 88V72Z" fill="white" stroke="#E6E6E6"/>
<path d="M300.5 72C300.5 69.5147 302.515 67.5 305 67.5H331.5V92.5H305C302.515 92.5 300.5 90.4853 300.5 88V72Z" fill="#F8F8F8" stroke="#E6E6E6"/>
<path d="M362.5 72C362.5 69.5147 360.485 67.5 358 67.5H331.5V92.5H358C360.485 92.5 362.5 90.4853 362.5 88V72Z" fill="white" stroke="#E6E6E6"/>
<path d="M25.648 30.844C25.648 29.74 25.84 28.75 26.224 27.874C26.62 26.986 27.136 26.278 27.772 25.75C28.42 25.222 29.14 24.826 29.932 24.562C30.724 24.286 31.552 24.148 32.416 24.148C33.736 24.148 34.936 24.418 36.016 24.958V27.532C35.164 26.872 34.114 26.542 32.866 26.542C31.642 26.542 30.592 26.908 29.716 27.64C28.852 28.36 28.42 29.428 28.42 30.844C28.42 31.516 28.546 32.116 28.798 32.644C29.05 33.16 29.386 33.574 29.806 33.886C30.238 34.198 30.712 34.438 31.228 34.606C31.756 34.762 32.302 34.84 32.866 34.84C34.258 34.84 35.338 34.492 36.106 33.796V36.442C34.99 36.982 33.772 37.252 32.452 37.252C31.588 37.252 30.76 37.12 29.968 36.856C29.176 36.592 28.45 36.208 27.79 35.704C27.142 35.2 26.62 34.528 26.224 33.688C25.84 32.848 25.648 31.9 25.648 30.844ZM41.8639 37H39.3799V30.466H36.6259V28.36H44.6179V30.466H41.8639V37ZM53.5594 34.768C53.5594 35.152 53.7634 35.344 54.1714 35.344C54.3394 35.344 54.4954 35.32 54.6394 35.272V36.91C54.1834 37.078 53.7214 37.162 53.2534 37.162C52.3414 37.162 51.7054 36.838 51.3454 36.19C50.4454 36.898 49.4074 37.252 48.2314 37.252C47.3794 37.252 46.6594 37.018 46.0714 36.55C45.4954 36.07 45.2074 35.422 45.2074 34.606C45.2074 33.922 45.4114 33.352 45.8194 32.896C46.2274 32.44 46.7014 32.134 47.2414 31.978C47.7814 31.81 48.3694 31.726 49.0054 31.726C49.7134 31.726 50.3974 31.804 51.0574 31.96V31.654C51.0574 31.21 50.8834 30.856 50.5354 30.592C50.1874 30.328 49.6834 30.196 49.0234 30.196C48.0634 30.196 47.0434 30.412 45.9634 30.844V28.684C47.1154 28.3 48.2314 28.108 49.3114 28.108C52.1434 28.108 53.5594 29.41 53.5594 32.014V34.768ZM49.5814 33.22C49.0654 33.22 48.6334 33.316 48.2854 33.508C47.9374 33.7 47.7634 34 47.7634 34.408C47.7634 34.72 47.8894 34.978 48.1414 35.182C48.4054 35.374 48.7294 35.47 49.1134 35.47C49.8694 35.47 50.5174 35.236 51.0574 34.768V33.418C50.5054 33.286 50.0134 33.22 49.5814 33.22ZM60.1276 37H57.6436V30.466H54.8896V28.36H62.8816V30.466H60.1276V37ZM68.3821 34.192L70.5241 28.36H73.1161L69.2821 38.044C68.4301 40.144 67.1881 41.194 65.5561 41.194C65.2081 41.194 64.7581 41.128 64.2061 40.996V38.926C64.6021 39.01 64.9441 39.052 65.2321 39.052C66.1441 39.052 66.8281 38.422 67.2841 37.162L67.3021 37.126L63.2161 28.36H65.8621L68.3821 34.192ZM73.494 32.806C73.494 32.014 73.632 31.306 73.908 30.682C74.196 30.058 74.574 29.566 75.042 29.206C75.51 28.834 76.026 28.558 76.59 28.378C77.154 28.186 77.748 28.09 78.372 28.09C79.368 28.09 80.256 28.3 81.036 28.72V30.916C80.364 30.484 79.596 30.268 78.732 30.268C77.976 30.268 77.34 30.466 76.824 30.862C76.308 31.258 76.05 31.864 76.05 32.68C76.05 33.46 76.308 34.06 76.824 34.48C77.34 34.888 77.964 35.092 78.696 35.092C79.62 35.092 80.43 34.882 81.126 34.462V36.676C80.226 37.06 79.254 37.252 78.21 37.252C76.914 37.252 75.804 36.874 74.88 36.118C73.956 35.35 73.494 34.246 73.494 32.806Z" fill="#454545"/>
<path d="M31.162 78.481V77.298C33.996 77.22 35.855 75.855 35.855 73.45C35.855 71.045 33.996 69.68 31.162 69.602V68.419H30.07V69.602C27.236 69.68 25.377 71.045 25.377 73.45C25.377 75.855 27.236 77.22 30.07 77.298V78.481H31.162ZM26.482 73.45C26.482 71.747 27.678 70.681 30.07 70.59V76.31C27.678 76.219 26.482 75.153 26.482 73.45ZM31.162 70.59C33.554 70.681 34.75 71.747 34.75 73.45C34.75 75.153 33.554 76.219 31.162 76.31V70.59ZM38.0814 78L41.9034 73.437V78H42.9434V71.76H42.0594L38.2374 76.323V71.76H37.1974V78H38.0814ZM47.0753 72.722H49.6103V78H50.6503V71.76H46.0613C45.9443 75.114 45.5803 77.22 44.4753 77.22C44.3453 77.22 44.2023 77.194 44.0593 77.142V77.961C44.3323 78.065 44.5793 78.104 44.8133 78.104C46.4253 78.104 46.8673 75.92 47.0753 72.722ZM55.5354 78C57.0564 78 57.9534 77.129 57.9534 75.972C57.9534 74.815 57.0564 73.944 55.5354 73.944H53.6114V71.76H52.5714V78H55.5354ZM53.6114 74.88H55.4054C56.3154 74.88 56.9004 75.231 56.9004 75.972C56.9004 76.713 56.3154 77.064 55.4054 77.064H53.6114V74.88ZM61.0874 78V72.722H63.3754V71.76H57.7464V72.722H60.0474V78H61.0874ZM65.4918 72.8V71.76H64.5558V80.86H65.5958V77.064C66.0508 77.597 66.8178 78.156 68.0138 78.156C69.7948 78.156 71.1338 76.752 71.1338 74.88C71.1338 73.008 69.7948 71.604 68.0138 71.604C66.8178 71.604 66.0508 72.163 65.4918 72.8ZM70.0938 74.88C70.0938 76.31 69.1058 77.194 67.8968 77.194C66.7788 77.194 65.9468 76.466 65.5958 75.66V74.1C65.9468 73.294 66.7788 72.566 67.8968 72.566C69.1058 72.566 70.0938 73.45 70.0938 74.88ZM30.629 91.323C30.629 90.517 30.044 89.984 29.342 89.802C30.044 89.646 30.499 89.152 30.499 88.398C30.499 87.306 29.602 86.591 27.86 86.591C27.028 86.591 26.248 86.786 25.624 87.072V88.047C26.196 87.761 27.002 87.553 27.743 87.553C28.718 87.553 29.459 87.852 29.459 88.541C29.459 89.139 28.913 89.347 28.211 89.347H26.846V90.309H28.211C28.835 90.309 29.589 90.439 29.589 91.206C29.589 92.012 28.679 92.194 27.691 92.194C26.937 92.194 26.053 91.973 25.52 91.687V92.675C26.105 92.961 26.937 93.156 27.821 93.156C29.55 93.156 30.629 92.506 30.629 91.323ZM37.2273 91.7V89.256C37.2273 87.514 36.1743 86.604 34.5103 86.604C33.4833 86.604 32.6253 86.851 32.1313 87.02V88.034C32.6773 87.8 33.4443 87.566 34.4063 87.566C35.5503 87.566 36.1873 88.19 36.1873 89.126V89.347C35.6673 89.23 35.0043 89.152 34.4583 89.152C33.1193 89.152 31.6373 89.646 31.6373 91.258C31.6373 92.571 32.7293 93.156 33.8343 93.156C34.8483 93.156 35.6413 92.844 36.2653 92.324C36.4473 92.87 36.9023 93.078 37.4093 93.078C37.6693 93.078 37.9423 93.026 38.1893 92.935V92.09C38.0333 92.142 37.8643 92.181 37.7083 92.181C37.4353 92.181 37.2273 92.077 37.2273 91.7ZM32.7033 91.206C32.7033 90.296 33.6913 90.023 34.6013 90.023C35.1083 90.023 35.7453 90.114 36.1873 90.205V91.349C35.6413 91.934 34.8483 92.259 34.0553 92.259C33.3663 92.259 32.7033 91.934 32.7033 91.206ZM40.5268 87.93C40.5268 87.488 40.2148 87.267 39.8378 87.267C39.4868 87.267 39.1618 87.488 39.1618 87.93C39.1618 88.372 39.4868 88.593 39.8378 88.593C40.2148 88.593 40.5268 88.372 40.5268 87.93ZM40.5268 92.454C40.5268 92.025 40.2148 91.804 39.8378 91.804C39.4868 91.804 39.1618 92.025 39.1618 92.454C39.1618 92.896 39.4868 93.117 39.8378 93.117C40.2148 93.117 40.5268 92.896 40.5268 92.454Z" fill="#8E8E8E"/>
<path d="M102.468 75.6V78.984H98.7V75.6H96.9V84H98.7V80.616H102.468V84H104.268V75.6H102.468ZM107.06 84L107.684 82.428H111.524L112.136 84H113.996L110.576 75.6H108.632L105.2 84H107.06ZM109.412 77.928C109.484 77.76 109.544 77.592 109.604 77.268C109.664 77.592 109.724 77.76 109.784 77.928L110.96 80.94H108.248L109.412 77.928ZM121.079 81.72C121.079 80.46 120.275 79.8 119.399 79.56C120.215 79.284 120.743 78.648 120.743 77.724C120.743 76.176 119.399 75.432 117.431 75.432C116.555 75.432 115.619 75.576 114.647 75.984V77.7C115.667 77.208 116.519 77.04 117.275 77.052C118.343 77.052 118.943 77.34 118.943 78.012C118.943 78.6 118.427 78.888 117.635 78.888H115.871L115.859 80.472H117.755C118.571 80.472 119.267 80.676 119.267 81.456C119.267 82.32 118.391 82.548 117.479 82.548C116.591 82.56 115.607 82.44 114.503 81.9V83.628C115.619 84.024 116.615 84.168 117.611 84.168C119.279 84.168 121.079 83.592 121.079 81.72ZM122.423 75.6V84H126.035C127.499 84 129.335 83.556 129.335 81.648C129.335 80.412 128.555 79.8 127.727 79.56C128.471 79.308 128.999 78.708 128.999 77.724C128.999 76.284 127.883 75.6 126.095 75.6H122.423ZM127.535 81.456C127.535 82.368 126.815 82.536 126.011 82.536H124.211V80.376H126.107C126.827 80.376 127.535 80.568 127.535 81.456ZM127.211 78.036C127.211 78.684 126.719 78.996 126.035 78.996H124.223V77.076H125.939C126.731 77.076 127.211 77.376 127.211 78.036ZM130.194 79.8C130.194 82.08 131.682 84.168 134.658 84.168C137.634 84.168 139.122 82.08 139.122 79.8C139.122 77.52 137.634 75.432 134.658 75.432C131.682 75.432 130.194 77.52 130.194 79.8ZM137.274 79.8C137.274 81.276 136.398 82.5 134.658 82.5C132.906 82.5 132.03 81.276 132.03 79.8C132.03 78.324 132.906 77.1 134.658 77.1C136.398 77.1 137.274 78.324 137.274 79.8ZM152.387 79.8C152.387 77.52 150.899 75.432 147.923 75.432C145.319 75.432 143.879 77.088 143.591 78.984H142.259V75.6H140.459V84H142.259V80.604H143.591C143.867 82.5 145.307 84.168 147.923 84.168C150.899 84.168 152.387 82.08 152.387 79.8ZM145.307 79.8C145.307 78.324 146.183 77.1 147.935 77.1C149.675 77.1 150.551 78.324 150.551 79.8C150.551 81.276 149.675 82.5 147.935 82.5C146.183 82.5 145.307 81.276 145.307 79.8Z" fill="#454545"/>
<path d="M198.044 81.72C198.044 80.46 197.24 79.8 196.364 79.56C197.18 79.284 197.708 78.648 197.708 77.724C197.708 76.176 196.364 75.432 194.396 75.432C193.52 75.432 192.584 75.576 191.612 75.984V77.7C192.632 77.208 193.484 77.04 194.24 77.052C195.308 77.052 195.908 77.34 195.908 78.012C195.908 78.6 195.392 78.888 194.6 78.888H192.836L192.824 80.472H194.72C195.536 80.472 196.232 80.676 196.232 81.456C196.232 82.32 195.356 82.548 194.444 82.548C193.556 82.56 192.572 82.44 191.468 81.9V83.628C192.584 84.024 193.58 84.168 194.576 84.168C196.244 84.168 198.044 83.592 198.044 81.72ZM204.956 75.6V78.984H201.188V75.6H199.388V84H201.188V80.616H204.956V84H206.756V75.6H204.956ZM209.548 84L210.172 82.428H214.012L214.624 84H216.484L213.064 75.6H211.12L207.688 84H209.548ZM211.9 77.928C211.972 77.76 212.032 77.592 212.092 77.268C212.152 77.592 212.212 77.76 212.272 77.928L213.448 80.94H210.736L211.9 77.928ZM223.226 84V75.6H221.426V79.368C220.862 79.596 220.286 79.704 219.758 79.704C218.75 79.704 218.03 79.308 218.03 78.396V75.6H216.23V78.456C216.23 80.4 217.442 81.336 219.302 81.348C219.962 81.348 220.682 81.228 221.426 80.988V84H223.226ZM225.029 75.6V84H231.017V82.416H226.829V80.544H230.585V78.972H226.829V77.184H230.945V75.6H225.029ZM238.003 75.6V78.984H234.235V75.6H232.435V84H234.235V80.616H238.003V84H239.803V75.6H238.003ZM247.167 75.6V78.984H243.399V75.6H241.599V84H243.399V80.616H247.167V84H248.967V75.6H247.167ZM252.119 84L254.243 81.144H255.503V84H257.303V75.6H253.883C252.107 75.6 250.511 76.392 250.511 78.408C250.511 79.776 251.303 80.556 252.383 80.916L250.043 84H252.119ZM252.359 78.408C252.359 77.568 252.983 77.184 253.895 77.184H255.503V79.644H253.895C252.983 79.644 252.359 79.248 252.359 78.408ZM266.523 75.6L263.655 79.968L260.775 75.6H259.107V84H260.907V78.816L263.127 82.2H264.171L266.391 78.828V84H268.191V75.6H266.523Z" fill="#454545"/>
<path d="M308.896 84H307.036L310.468 75.6H312.412L315.832 84H313.972L313.36 82.428H309.52L308.896 84ZM311.248 77.928L310.084 80.94H312.796L311.62 77.928C311.54 77.704 311.48 77.484 311.44 77.268C311.392 77.516 311.328 77.736 311.248 77.928ZM318.127 84H316.051L318.391 80.916C317.143 80.5 316.519 79.664 316.519 78.408C316.519 77.464 316.839 76.76 317.479 76.296C318.119 75.832 318.923 75.6 319.891 75.6H323.311V84H321.511V81.144H320.251L318.127 84ZM318.775 77.496C318.503 77.696 318.367 78 318.367 78.408C318.367 78.816 318.503 79.124 318.775 79.332C319.055 79.54 319.431 79.644 319.903 79.644H321.511V77.184H319.903C319.431 77.184 319.055 77.288 318.775 77.496Z" fill="#454545"/>
<path d="M340.256 84H338.18L340.52 80.916C339.272 80.5 338.648 79.664 338.648 78.408C338.648 77.464 338.968 76.76 339.608 76.296C340.248 75.832 341.052 75.6 342.02 75.6H345.44V84H343.64V81.144H342.38L340.256 84ZM340.904 77.496C340.632 77.696 340.496 78 340.496 78.408C340.496 78.816 340.632 79.124 340.904 79.332C341.184 79.54 341.56 79.644 342.032 79.644H343.64V77.184H342.032C341.56 77.184 341.184 77.288 340.904 77.496ZM348.24 84H346.38L349.812 75.6H351.756L355.176 84H353.316L352.704 82.428H348.864L348.24 84ZM350.592 77.928L349.428 80.94H352.14L350.964 77.928C350.884 77.704 350.824 77.484 350.784 77.268C350.736 77.516 350.672 77.736 350.592 77.928Z" fill="#8E8E8E"/>
<path d="M58.432 128.8C58.432 131.08 59.92 133.168 62.896 133.168C65.872 133.168 67.36 131.08 67.36 128.8C67.36 126.52 65.872 124.432 62.896 124.432C59.92 124.432 58.432 126.52 58.432 128.8ZM65.512 128.8C65.512 130.276 64.636 131.5 62.896 131.5C61.144 131.5 60.268 130.276 60.268 128.8C60.268 127.324 61.144 126.1 62.896 126.1C64.636 126.1 65.512 127.324 65.512 128.8ZM74.3969 130.372C74.3969 128.608 73.2569 127.6 71.8409 127.6C70.9649 127.6 70.3289 127.996 69.9689 128.5C70.0529 127.936 70.3649 127.228 71.0249 126.868C72.1409 126.28 73.1129 126.592 73.8929 125.956V124.432C73.0889 125.212 71.6849 124.756 70.0289 125.788C68.9969 126.436 68.2649 127.624 68.2649 129.688C68.2649 132.172 69.6449 133.168 71.3369 133.168C73.0769 133.168 74.3969 132.208 74.3969 130.372ZM69.9689 130.384C69.9689 129.772 70.3289 128.932 71.3369 128.932C72.3569 128.932 72.6929 129.736 72.6929 130.384C72.6929 131.032 72.3569 131.836 71.3369 131.836C70.3289 131.836 69.9689 131.032 69.9689 130.384ZM76.977 128.08V127.24H75.501V135.64H77.169V132.388C77.541 132.796 78.153 133.168 79.065 133.168C80.889 133.168 81.873 131.692 81.873 130.12C81.873 128.548 80.889 127.072 79.065 127.072C77.997 127.072 77.337 127.564 76.977 128.08ZM80.169 130.12C80.169 131.02 79.605 131.764 78.657 131.764C77.925 131.764 77.385 131.308 77.157 130.804V129.436C77.385 128.932 77.925 128.476 78.657 128.476C79.605 128.476 80.169 129.22 80.169 130.12ZM88.1138 131.512V129.676C88.1138 127.78 87.0098 127.072 85.2818 127.072C84.3938 127.072 83.5178 127.3 83.0498 127.456V128.896C83.5898 128.68 84.2978 128.464 85.0898 128.464C85.9898 128.464 86.4458 128.86 86.4458 129.436V129.64C86.0378 129.544 85.5338 129.484 85.0778 129.484C83.9258 129.484 82.5458 129.94 82.5458 131.404C82.5458 132.544 83.4818 133.168 84.5618 133.168C85.4138 133.168 86.0738 132.904 86.6378 132.46C86.8778 132.892 87.3218 133.108 87.9098 133.108C88.2338 133.108 88.5698 133.036 88.8338 132.94V131.848C88.7258 131.884 88.6178 131.896 88.5218 131.896C88.3058 131.896 88.1138 131.812 88.1138 131.512ZM85.4618 130.48C85.8098 130.48 86.1938 130.552 86.4458 130.612V131.512C86.0618 131.848 85.6178 131.98 85.1498 131.98C84.6458 131.98 84.2498 131.704 84.2498 131.272C84.2498 130.684 84.8498 130.48 85.4618 130.48ZM92.4926 133V128.644H94.3286V127.24H89.0006V128.644H90.8366V133H92.4926ZM96.6756 133L99.2436 129.76V133H100.9V127.24H99.4596L96.8916 130.48V127.24H95.2236V133H96.6756ZM108.502 133C109.954 133 110.434 132.256 110.434 131.44C110.434 130.744 110.038 130.288 109.414 130.084C109.978 129.868 110.302 129.424 110.302 128.764C110.302 127.984 109.774 127.24 108.406 127.24H104.974V133H108.502ZM106.642 130.612H108.01C108.418 130.612 108.778 130.756 108.778 131.248C108.778 131.704 108.43 131.86 108.01 131.86H106.642V130.612ZM106.63 128.38H107.89C108.274 128.38 108.622 128.524 108.622 129.004C108.622 129.448 108.298 129.604 107.902 129.604H106.63V128.38ZM111.236 130.204C111.236 132.256 112.808 133.168 114.38 133.168C115.112 133.168 115.76 133.024 116.324 132.784V131.308C115.904 131.56 115.316 131.728 114.704 131.728C113.804 131.728 112.94 131.224 112.94 130.12C112.94 128.956 113.816 128.512 114.728 128.512C115.28 128.512 115.856 128.68 116.264 128.944V127.48C115.748 127.204 115.124 127.06 114.488 127.06C112.892 127.06 111.236 127.996 111.236 130.204ZM117.083 130.12C117.083 132.124 118.595 133.168 120.419 133.168C121.283 133.168 121.991 133.036 122.531 132.808V131.5C122.039 131.716 121.451 131.848 120.791 131.848C119.843 131.848 118.955 131.5 118.763 130.66H122.819C123.203 128.956 122.435 127.072 120.047 127.072C118.751 127.072 117.083 127.948 117.083 130.12ZM121.319 129.58H118.751C118.775 128.788 119.399 128.344 120.107 128.344C121.151 128.344 121.379 129.184 121.319 129.58Z" fill="#454545"/>
<path d="M242.12 126.916C242.12 127.332 242.008 127.708 241.784 128.044C241.568 128.372 241.284 128.596 240.932 128.716C241.348 128.844 241.704 129.08 242 129.424C242.304 129.76 242.456 130.212 242.456 130.78C242.456 131.54 242.172 132.124 241.604 132.532C241.044 132.94 240.332 133.144 239.468 133.144C238.372 133.144 237.424 132.964 236.624 132.604V131.608C237.4 132.008 238.32 132.204 239.384 132.196C240.784 132.196 241.484 131.708 241.484 130.732C241.484 129.756 240.82 129.268 239.492 129.268H238.244V128.308L239.384 128.32C239.96 128.32 240.396 128.2 240.692 127.96C240.996 127.712 241.148 127.392 241.148 127C241.148 126.576 240.98 126.244 240.644 126.004C240.308 125.756 239.832 125.632 239.216 125.632C238.368 125.632 237.552 125.84 236.768 126.256V125.272C237.52 124.888 238.38 124.696 239.348 124.696C240.18 124.696 240.848 124.9 241.352 125.308C241.864 125.716 242.12 126.252 242.12 126.916ZM247.735 133H246.919V127.24H247.879V131.452L251.407 127.24H252.223V133H251.263V128.788L247.735 133ZM258.305 131.452C258.305 131.988 258.073 132.404 257.609 132.7C257.153 132.996 256.521 133.144 255.713 133.144C254.905 133.144 254.197 132.996 253.589 132.7V131.788C254.173 132.1 254.841 132.256 255.593 132.256C256.761 132.256 257.345 131.952 257.345 131.344C257.345 130.792 256.921 130.516 256.073 130.516H254.813V129.628H256.073C256.841 129.628 257.225 129.38 257.225 128.884C257.225 128.58 257.081 128.352 256.793 128.2C256.505 128.048 256.121 127.972 255.641 127.972C254.945 127.972 254.293 128.124 253.685 128.428V127.528C254.333 127.232 255.021 127.084 255.749 127.084C256.533 127.084 257.133 127.236 257.549 127.54C257.973 127.836 258.185 128.24 258.185 128.752C258.185 129.096 258.089 129.38 257.897 129.604C257.705 129.828 257.445 129.976 257.117 130.048C257.461 130.136 257.745 130.304 257.969 130.552C258.193 130.8 258.305 131.1 258.305 131.452ZM267.936 126.916C267.936 127.332 267.824 127.708 267.6 128.044C267.384 128.372 267.1 128.596 266.748 128.716C267.164 128.844 267.52 129.08 267.816 129.424C268.12 129.76 268.272 130.212 268.272 130.78C268.272 131.54 267.988 132.124 267.42 132.532C266.86 132.94 266.148 133.144 265.284 133.144C264.188 133.144 263.24 132.964 262.44 132.604V131.608C263.216 132.008 264.136 132.204 265.2 132.196C266.6 132.196 267.3 131.708 267.3 130.732C267.3 129.756 266.636 129.268 265.308 129.268H264.06V128.308L265.2 128.32C265.776 128.32 266.212 128.2 266.508 127.96C266.812 127.712 266.964 127.392 266.964 127C266.964 126.576 266.796 126.244 266.46 126.004C266.124 125.756 265.648 125.632 265.032 125.632C264.184 125.632 263.368 125.84 262.584 126.256V125.272C263.336 124.888 264.196 124.696 265.164 124.696C265.996 124.696 266.664 124.9 267.168 125.308C267.68 125.716 267.936 126.252 267.936 126.916Z" fill="#8E8E8E"/>
<path d="M288.112 133V125.56H292.948V133H293.956V124.6H287.104V133H288.112ZM295.422 130.12C295.422 132.088 296.934 133.144 298.494 133.144C300.066 133.144 301.566 132.088 301.566 130.12C301.566 128.152 300.066 127.096 298.494 127.096C296.934 127.096 295.422 128.152 295.422 130.12ZM300.606 130.12C300.606 131.452 299.67 132.232 298.494 132.232C297.318 132.232 296.382 131.452 296.382 130.12C296.382 128.788 297.318 128.008 298.494 128.008C299.67 128.008 300.606 128.788 300.606 130.12ZM310.983 133V127.24H310.023V132.112H307.443V127.24H306.483V132.112H303.903V127.24H302.943V133H310.983ZM315.187 131.908L313.015 127.24H311.995L314.731 133.012L314.515 133.54C314.143 134.476 313.675 134.944 313.027 134.944C312.859 134.944 312.691 134.92 312.523 134.872V135.7C312.739 135.76 312.943 135.784 313.147 135.784C313.987 135.784 314.719 135.256 315.319 133.864L318.151 127.24H317.131L315.187 131.908ZM320.18 133V130.528H321.308L323.42 133H324.548L322.1 130.108L324.284 127.24H323.168L321.344 129.64H320.18V127.24H319.22V133H320.18Z" fill="#8E8E8E"/>
<path d="M58.9 153.6V162H62.512C63.976 162 65.812 161.556 65.812 159.648C65.812 158.412 65.032 157.8 64.204 157.56C64.948 157.308 65.476 156.708 65.476 155.724C65.476 154.284 64.36 153.6 62.572 153.6H58.9ZM64.012 159.456C64.012 160.368 63.292 160.536 62.488 160.536H60.688V158.376H62.584C63.304 158.376 64.012 158.568 64.012 159.456ZM63.688 156.036C63.688 156.684 63.196 156.996 62.512 156.996H60.7V155.076H62.416C63.208 155.076 63.688 155.376 63.688 156.036ZM68.3397 162L70.9077 158.76V162H72.5637V156.24H71.1237L68.5557 159.48V156.24H66.8877V162H68.3397ZM83.1935 163.524V160.632H82.3295V156.24H80.6735V160.596H78.9815V156.24H77.3255V160.596H75.6455V156.24H73.9775V162H81.6575V163.524H83.1935ZM83.7903 159.12C83.7903 161.124 85.3023 162.168 87.1263 162.168C87.9903 162.168 88.6983 162.036 89.2383 161.808V160.5C88.7463 160.716 88.1583 160.848 87.4983 160.848C86.5503 160.848 85.6623 160.5 85.4703 159.66H89.5263C89.9103 157.956 89.1423 156.072 86.7543 156.072C85.4583 156.072 83.7903 156.948 83.7903 159.12ZM88.0263 158.58H85.4583C85.4823 157.788 86.1063 157.344 86.8143 157.344C87.8583 157.344 88.0863 158.184 88.0263 158.58Z" fill="#454545"/>
<path d="M64.468 182.6V185.984H60.7V182.6H58.9V191H60.7V187.616H64.468V191H66.268V182.6H64.468ZM69.3241 191L71.8921 187.76V191H73.5481V185.24H72.1081L69.5401 188.48V185.24H67.8721V191H69.3241ZM83.6739 191L81.6819 188.108L83.5059 185.24H81.7299L80.3499 187.532H79.8099V185.24H78.1419V187.532H77.6019L76.2219 185.24H74.4459L76.2699 188.108L74.2779 191H76.0659L77.4939 188.852H78.1419V191H79.8099V188.852H80.4579L81.8859 191H83.6739ZM89.4712 191V185.24H87.8152V187.856C87.5032 187.988 87.1792 188.036 86.7952 188.036C86.1832 188.036 85.7632 187.82 85.7632 187.136V185.24H84.0952V187.292C84.0952 188.78 85.1032 189.44 86.3392 189.44C86.9152 189.44 87.3592 189.368 87.8152 189.2V191H89.4712ZM90.5637 188.12C90.5637 190.124 92.0757 191.168 93.8997 191.168C94.7637 191.168 95.4717 191.036 96.0117 190.808V189.5C95.5197 189.716 94.9317 189.848 94.2717 189.848C93.3237 189.848 92.4357 189.5 92.2437 188.66H96.2997C96.6837 186.956 95.9157 185.072 93.5277 185.072C92.2317 185.072 90.5637 185.948 90.5637 188.12ZM94.7997 187.58H92.2317C92.2557 186.788 92.8797 186.344 93.5877 186.344C94.6317 186.344 94.8597 187.184 94.7997 187.58Z" fill="#454545"/>
<path d="M59.836 220.824V219H65.764V220.824H67.348V217.416H66.28V210.6H60.568C60.568 212.94 60.316 215.484 59.236 217.416H58.252V220.824H59.836ZM62.248 212.22H64.48V217.416H61.144C61.864 216.036 62.128 214.08 62.248 212.22ZM67.9465 216.12C67.9465 218.136 69.4585 219.168 71.1265 219.168C72.8065 219.168 74.3065 218.136 74.3065 216.12C74.3065 214.104 72.8065 213.072 71.1265 213.072C69.4585 213.072 67.9465 214.104 67.9465 216.12ZM72.6145 216.12C72.6145 217.008 72.0865 217.68 71.1265 217.68C70.1785 217.68 69.6505 217.008 69.6505 216.12C69.6505 215.232 70.1785 214.56 71.1265 214.56C72.0865 214.56 72.6145 215.232 72.6145 216.12ZM76.8715 214.08V213.24H75.3955V221.64H77.0635V218.388C77.4355 218.796 78.0475 219.168 78.9595 219.168C80.7835 219.168 81.7675 217.692 81.7675 216.12C81.7675 214.548 80.7835 213.072 78.9595 213.072C77.8915 213.072 77.2315 213.564 76.8715 214.08ZM80.0635 216.12C80.0635 217.02 79.4995 217.764 78.5515 217.764C77.8195 217.764 77.2795 217.308 77.0515 216.804V215.436C77.2795 214.932 77.8195 214.476 78.5515 214.476C79.4995 214.476 80.0635 215.22 80.0635 216.12ZM83.0137 210.756C83.0137 210.174 83.3379 209.883 83.9863 209.883C84.6348 209.883 84.959 210.174 84.959 210.756C84.959 211.033 84.877 211.25 84.7129 211.406C84.5527 211.559 84.3105 211.635 83.9863 211.635C83.3379 211.635 83.0137 211.342 83.0137 210.756ZM84.877 219H83.0898V212.449H84.877V219ZM90.0563 219C91.5083 219 91.9883 218.256 91.9883 217.44C91.9883 216.744 91.5923 216.288 90.9683 216.084C91.5323 215.868 91.8563 215.424 91.8563 214.764C91.8563 213.984 91.3283 213.24 89.9603 213.24H86.5283V219H90.0563ZM88.1963 216.612H89.5643C89.9723 216.612 90.3323 216.756 90.3323 217.248C90.3323 217.704 89.9843 217.86 89.5643 217.86H88.1963V216.612ZM88.1843 214.38H89.4443C89.8283 214.38 90.1763 214.524 90.1763 215.004C90.1763 215.448 89.8523 215.604 89.4563 215.604H88.1843V214.38ZM94.7823 219V216.816H97.1103V219H98.7783V213.24H97.1103V215.424H94.7823V213.24H93.1143V219H94.7823ZM109.132 216.12C109.132 214.104 107.62 213.072 105.952 213.072C104.548 213.072 103.204 213.888 102.904 215.46H101.86V213.24H100.192V219H101.86V216.78H102.904C103.204 218.352 104.548 219.168 105.952 219.168C107.62 219.168 109.132 218.136 109.132 216.12ZM104.476 216.12C104.476 215.232 104.956 214.488 105.952 214.488C106.948 214.488 107.44 215.232 107.44 216.12C107.44 217.008 106.948 217.752 105.952 217.752C104.956 217.752 104.476 217.008 104.476 216.12ZM113.342 219.117C112.256 219.117 111.436 218.834 110.881 218.268C110.33 217.697 110.055 216.861 110.055 215.76C110.055 214.596 110.318 213.732 110.846 213.17C111.373 212.607 112.201 212.326 113.33 212.326C114.049 212.326 114.746 212.471 115.422 212.76L114.906 214.031C114.242 213.777 113.701 213.65 113.283 213.65C112.873 213.65 112.555 213.77 112.328 214.008C112.105 214.246 111.965 214.609 111.906 215.098H114.373V216.287H111.906C111.961 216.799 112.096 217.178 112.311 217.424C112.525 217.666 112.834 217.787 113.236 217.787C113.545 217.787 113.854 217.752 114.162 217.682C114.475 217.611 114.83 217.49 115.229 217.318V218.689C114.674 218.975 114.045 219.117 113.342 219.117Z" fill="#454545"/>
<rect x="38" y="122" width="13" height="13" rx="3" fill="#454545"/>
<path d="M42 128.5L44 130.5L47.5 127" stroke="white" stroke-linecap="round" stroke-linejoin="round"/>
<rect x="38" y="151" width="13" height="13" rx="3" fill="#454545"/>
<path d="M42 157.5L44 159.5L47.5 156" stroke="white" stroke-linecap="round" stroke-linejoin="round"/>
<rect x="38" y="180" width="13" height="13" rx="3" fill="#454545"/>
<path d="M42 186.5L44 188.5L47.5 185" stroke="white" stroke-linecap="round" stroke-linejoin="round"/>
<rect x="38" y="208" width="13" height="13" rx="3" fill="#454545"/>
<path d="M42 214.5L44 216.5L47.5 213" stroke="white" stroke-linecap="round" stroke-linejoin="round"/>
<line x1="277.5" y1="115" x2="277.5" y2="143" stroke="#E6E6E6"/>
</svg>
