<svg width="465" height="216" viewBox="0 0 465 216" fill="none" xmlns="http://www.w3.org/2000/svg">
<rect x="0.5" y="0.5" width="464" height="215" rx="4.5" fill="white" stroke="#E6E6E6"/>
<path d="M0 5C0 2.23858 2.23858 0 5 0H460C462.761 0 465 2.23858 465 5V36H0V5Z" fill="#0FA7F0"/>
<path d="M13.576 17.528C13.576 21.432 16.632 23.224 19.624 23.224C20.808 23.224 21.912 22.968 22.872 22.504V20.152C22.2 20.76 21.144 21.08 19.992 21.08C18.04 21.08 16.024 19.992 16.04 17.528C16.04 14.824 18.024 13.704 19.992 13.704C21.032 13.704 22.072 14.024 22.792 14.584V12.296C21.832 11.816 20.712 11.576 19.592 11.576C16.6 11.576 13.592 13.432 13.576 17.528ZM27.9901 23V17.192H30.4381V15.32H23.3341V17.192H25.7821V23H27.9901ZM36.3355 23C38.2715 23 38.9115 22.008 38.9115 20.92C38.9115 19.992 38.3835 19.384 37.5515 19.112C38.3035 18.824 38.7355 18.232 38.7355 17.352C38.7355 16.312 38.0315 15.32 36.2075 15.32H31.6315V23H36.3355ZM33.8555 19.816H35.6795C36.2235 19.816 36.7035 20.008 36.7035 20.664C36.7035 21.272 36.2395 21.48 35.6795 21.48H33.8555V19.816ZM33.8395 16.84H35.5195C36.0315 16.84 36.4955 17.032 36.4955 17.672C36.4955 18.264 36.0635 18.472 35.5355 18.472H33.8395V16.84ZM39.9808 19.16C39.9808 21.848 41.9968 23.224 44.2208 23.224C46.4608 23.224 48.4608 21.848 48.4608 19.16C48.4608 16.472 46.4608 15.096 44.2208 15.096C41.9968 15.096 39.9808 16.472 39.9808 19.16ZM46.2048 19.16C46.2048 20.344 45.5008 21.24 44.2208 21.24C42.9568 21.24 42.2528 20.344 42.2528 19.16C42.2528 17.976 42.9568 17.08 44.2208 17.08C45.5008 17.08 46.2048 17.976 46.2048 19.16ZM51.8808 16.44V15.32H49.9128V26.52H52.1368V22.184C52.6328 22.728 53.4488 23.224 54.6648 23.224C57.0968 23.224 58.4088 21.256 58.4088 19.16C58.4088 17.064 57.0968 15.096 54.6648 15.096C53.2408 15.096 52.3608 15.752 51.8808 16.44ZM56.1368 19.16C56.1368 20.36 55.3848 21.352 54.1208 21.352C53.1448 21.352 52.4248 20.744 52.1208 20.072V18.248C52.4248 17.576 53.1448 16.968 54.1208 16.968C55.3848 16.968 56.1368 17.96 56.1368 19.16ZM59.4339 19.16C59.4339 21.832 61.4499 23.224 63.8819 23.224C65.0339 23.224 65.9779 23.048 66.6979 22.744V21C66.0419 21.288 65.2579 21.464 64.3779 21.464C63.1139 21.464 61.9299 21 61.6739 19.88H67.0819C67.5939 17.608 66.5699 15.096 63.3859 15.096C61.6579 15.096 59.4339 16.264 59.4339 19.16ZM65.0819 18.44H61.6579C61.6899 17.384 62.5219 16.792 63.4659 16.792C64.8579 16.792 65.1619 17.912 65.0819 18.44ZM70.8086 23V20.088H73.9126V23H76.1366V15.32H73.9126V18.232H70.8086V15.32H68.5846V23H70.8086ZM80.2461 23V20.088H83.3501V23H85.5741V15.32H83.3501V18.232H80.2461V15.32H78.0221V23H80.2461ZM89.2836 23L90.9956 20.712H92.2436V23H94.4676V15.32H90.3076C88.2916 15.32 87.2356 16.568 87.2356 18.008C87.2356 19.048 87.7636 19.976 88.8036 20.424L86.7876 23H89.2836ZM89.4916 18.072C89.4916 17.432 89.9556 17.08 90.7556 17.08H92.2436V19.048H90.7556C89.9556 19.048 89.4916 18.696 89.4916 18.072ZM102.121 23V20.088H105.225V23H107.449V15.32H105.225V18.232H102.121V15.32H99.8971V23H102.121ZM108.903 19.16C108.903 21.848 110.919 23.224 113.143 23.224C115.383 23.224 117.383 21.848 117.383 19.16C117.383 16.472 115.383 15.096 113.143 15.096C110.919 15.096 108.903 16.472 108.903 19.16ZM115.127 19.16C115.127 20.344 114.423 21.24 113.143 21.24C111.879 21.24 111.175 20.344 111.175 19.16C111.175 17.976 111.879 17.08 113.143 17.08C114.423 17.08 115.127 17.976 115.127 19.16ZM123.539 23C125.475 23 126.115 22.008 126.115 20.92C126.115 19.992 125.587 19.384 124.755 19.112C125.507 18.824 125.939 18.232 125.939 17.352C125.939 16.312 125.235 15.32 123.411 15.32H118.835V23H123.539ZM121.059 19.816H122.883C123.427 19.816 123.907 20.008 123.907 20.664C123.907 21.272 123.443 21.48 122.883 21.48H121.059V19.816ZM121.043 16.84H122.723C123.235 16.84 123.699 17.032 123.699 17.672C123.699 18.264 123.267 18.472 122.739 18.472H121.043V16.84ZM127.184 19.16C127.184 21.848 129.2 23.224 131.424 23.224C133.664 23.224 135.664 21.848 135.664 19.16C135.664 16.472 133.664 15.096 131.424 15.096C129.2 15.096 127.184 16.472 127.184 19.16ZM133.408 19.16C133.408 20.344 132.704 21.24 131.424 21.24C130.16 21.24 129.456 20.344 129.456 19.16C129.456 17.976 130.16 17.08 131.424 17.08C132.704 17.08 133.408 17.976 133.408 19.16ZM139.805 23H137.422V14.2656H139.805V23ZM135.961 12.0234C135.961 11.6849 136.057 11.4245 136.25 11.2422C136.448 11.0599 136.714 10.9688 137.047 10.9688C137.391 10.9688 137.659 11.0651 137.852 11.2578C138.049 11.4505 138.148 11.7057 138.148 12.0234C138.148 12.3359 138.049 12.5885 137.852 12.7812C137.654 12.9688 137.385 13.0625 137.047 13.0625C136.714 13.0625 136.448 12.9714 136.25 12.7891C136.057 12.6068 135.961 12.3516 135.961 12.0234ZM139.109 12.0234C139.109 11.6589 139.214 11.3932 139.422 11.2266C139.635 11.0547 139.898 10.9688 140.211 10.9688C140.549 10.9688 140.818 11.0625 141.016 11.25C141.219 11.4375 141.32 11.6953 141.32 12.0234C141.32 12.3411 141.219 12.5938 141.016 12.7812C140.812 12.9688 140.544 13.0625 140.211 13.0625C139.898 13.0625 139.635 12.9792 139.422 12.8125C139.214 12.6406 139.109 12.3776 139.109 12.0234ZM147.777 23V19.96H148.673L150.881 23H153.377L150.513 19.112L153.153 15.32H150.657L148.705 18.184H147.777V15.32H145.553V23H147.777ZM153.481 19.16C153.481 21.848 155.497 23.224 157.721 23.224C159.961 23.224 161.961 21.848 161.961 19.16C161.961 16.472 159.961 15.096 157.721 15.096C155.497 15.096 153.481 16.472 153.481 19.16ZM159.705 19.16C159.705 20.344 159.001 21.24 157.721 21.24C156.457 21.24 155.753 20.344 155.753 19.16C155.753 17.976 156.457 17.08 157.721 17.08C159.001 17.08 159.705 17.976 159.705 19.16ZM165.637 23V20.088H168.741V23H170.965V15.32H168.741V18.232H165.637V15.32H163.413V23H165.637ZM178.946 26.52V23.224C181.49 23.128 183.378 21.608 183.378 19.16C183.378 16.712 181.49 15.192 178.946 15.096V11.8H176.834V15.096C174.29 15.192 172.402 16.712 172.402 19.16C172.402 21.608 174.29 23.128 176.834 23.224V26.52H178.946ZM174.626 19.16C174.626 18.008 175.362 17.032 176.85 16.952V21.368C175.362 21.288 174.626 20.312 174.626 19.16ZM178.962 16.952C180.45 17.032 181.186 18.008 181.186 19.16C181.186 20.312 180.45 21.288 178.962 21.368V16.952ZM185.023 12.0078C185.023 11.2318 185.456 10.8438 186.32 10.8438C187.185 10.8438 187.617 11.2318 187.617 12.0078C187.617 12.3776 187.508 12.6667 187.289 12.875C187.076 13.0781 186.753 13.1797 186.32 13.1797C185.456 13.1797 185.023 12.7891 185.023 12.0078ZM187.508 23H185.125V14.2656H187.508V23ZM191.934 23V17.192H195.566V15.32H189.71V23H191.934ZM200.453 20.504L198.213 15.32H195.861L199.493 23.112L199.477 23.144C199.061 24.28 198.453 24.824 197.653 24.824C197.349 24.824 197.045 24.776 196.741 24.712V26.552C197.141 26.648 197.541 26.728 197.941 26.728C199.189 26.728 200.389 26.072 201.253 23.928L204.661 15.32H202.357L200.453 20.504ZM207.74 16.44V15.32H205.772V26.52H207.996V22.184C208.492 22.728 209.308 23.224 210.524 23.224C212.956 23.224 214.268 21.256 214.268 19.16C214.268 17.064 212.956 15.096 210.524 15.096C209.1 15.096 208.22 15.752 207.74 16.44ZM211.996 19.16C211.996 20.36 211.244 21.352 209.98 21.352C209.004 21.352 208.284 20.744 207.98 20.072V18.248C208.284 17.576 209.004 16.968 209.98 16.968C211.244 16.968 211.996 17.96 211.996 19.16ZM222.589 21.016V18.568C222.589 16.04 221.117 15.096 218.813 15.096C217.629 15.096 216.461 15.4 215.837 15.608V17.528C216.557 17.24 217.501 16.952 218.557 16.952C219.757 16.952 220.365 17.48 220.365 18.248V18.52C219.821 18.392 219.149 18.312 218.541 18.312C217.005 18.312 215.165 18.92 215.165 20.872C215.165 22.392 216.413 23.224 217.853 23.224C218.989 23.224 219.869 22.872 220.621 22.28C220.941 22.856 221.533 23.144 222.317 23.144C222.749 23.144 223.197 23.048 223.549 22.92V21.464C223.405 21.512 223.261 21.528 223.133 21.528C222.845 21.528 222.589 21.416 222.589 21.016ZM219.053 19.64C219.517 19.64 220.029 19.736 220.365 19.816V21.016C219.853 21.464 219.261 21.64 218.637 21.64C217.965 21.64 217.437 21.272 217.437 20.696C217.437 19.912 218.237 19.64 219.053 19.64ZM233.365 25.032V21.176H232.213V15.32H229.989V21.128H226.965V15.32H224.741V23H231.317V25.032H233.365ZM234.961 12.0078C234.961 11.2318 235.393 10.8438 236.258 10.8438C237.122 10.8438 237.555 11.2318 237.555 12.0078C237.555 12.3776 237.445 12.6667 237.227 12.875C237.013 13.0781 236.69 13.1797 236.258 13.1797C235.393 13.1797 234.961 12.7891 234.961 12.0078ZM237.445 23H235.062V14.2656H237.445V23ZM242.336 23H239.953V14.2656H242.336V23ZM238.492 12.0234C238.492 11.6849 238.589 11.4245 238.781 11.2422C238.979 11.0599 239.245 10.9688 239.578 10.9688C239.922 10.9688 240.19 11.0651 240.383 11.2578C240.581 11.4505 240.68 11.7057 240.68 12.0234C240.68 12.3359 240.581 12.5885 240.383 12.7812C240.185 12.9688 239.917 13.0625 239.578 13.0625C239.245 13.0625 238.979 12.9714 238.781 12.7891C238.589 12.6068 238.492 12.3516 238.492 12.0234ZM241.641 12.0234C241.641 11.6589 241.745 11.3932 241.953 11.2266C242.167 11.0547 242.43 10.9688 242.742 10.9688C243.081 10.9688 243.349 11.0625 243.547 11.25C243.75 11.4375 243.852 11.6953 243.852 12.0234C243.852 12.3411 243.75 12.5938 243.547 12.7812C243.344 12.9688 243.076 13.0625 242.742 13.0625C242.43 13.0625 242.167 12.9792 241.953 12.8125C241.745 12.6406 241.641 12.3776 241.641 12.0234Z" fill="white"/>
<line x1="23" y1="114.5" x2="443" y2="114.5" stroke="#E6E6E6"/>
<path d="M31.624 56.8V61.312H26.6V56.8H24.2V68H26.6V63.488H31.624V68H34.024V56.8H31.624ZM42.9018 66.016V63.568C42.9018 61.04 41.4298 60.096 39.1258 60.096C37.9418 60.096 36.7738 60.4 36.1497 60.608V62.528C36.8698 62.24 37.8138 61.952 38.8698 61.952C40.0698 61.952 40.6778 62.48 40.6778 63.248V63.52C40.1338 63.392 39.4618 63.312 38.8538 63.312C37.3178 63.312 35.4778 63.92 35.4778 65.872C35.4778 67.392 36.7258 68.224 38.1658 68.224C39.3018 68.224 40.1818 67.872 40.9338 67.28C41.2538 67.856 41.8458 68.144 42.6298 68.144C43.0618 68.144 43.5098 68.048 43.8618 67.92V66.464C43.7178 66.512 43.5738 66.528 43.4458 66.528C43.1578 66.528 42.9018 66.416 42.9018 66.016ZM39.3658 64.64C39.8298 64.64 40.3418 64.736 40.6778 64.816V66.016C40.1658 66.464 39.5738 66.64 38.9498 66.64C38.2778 66.64 37.7498 66.272 37.7498 65.696C37.7498 64.912 38.5498 64.64 39.3658 64.64ZM51.3574 65.872C51.3574 64.96 50.7974 64.32 49.9014 64.048C50.6214 63.856 51.1974 63.28 51.1974 62.368C51.1974 61.248 50.3494 60.08 47.6934 60.08C46.6214 60.08 45.5174 60.336 44.7974 60.72V62.48C45.4054 62.16 46.5254 61.84 47.4214 61.84C48.4134 61.84 48.9254 62.144 48.9254 62.656C48.9254 63.184 48.3814 63.376 47.6134 63.376H46.1894V64.848H47.6134C48.3654 64.848 49.0854 64.928 49.0854 65.6C49.0854 66.256 48.3334 66.464 47.2934 66.464C46.3494 66.464 45.2294 66.128 44.6534 65.808V67.584C45.3574 67.952 46.3814 68.208 47.5814 68.208C50.2214 68.208 51.3574 67.072 51.3574 65.872ZM57.5543 68C59.4903 68 60.1302 67.008 60.1302 65.92C60.1302 64.992 59.6023 64.384 58.7703 64.112C59.5223 63.824 59.9543 63.232 59.9543 62.352C59.9543 61.312 59.2503 60.32 57.4263 60.32H52.8503V68H57.5543ZM55.0743 64.816H56.8983C57.4423 64.816 57.9223 65.008 57.9223 65.664C57.9223 66.272 57.4583 66.48 56.8983 66.48H55.0743V64.816ZM55.0583 61.84H56.7383C57.2503 61.84 57.7143 62.032 57.7143 62.672C57.7143 63.264 57.2823 63.472 56.7543 63.472H55.0583V61.84ZM68.4955 66.016V63.568C68.4955 61.04 67.0235 60.096 64.7195 60.096C63.5355 60.096 62.3675 60.4 61.7435 60.608V62.528C62.4635 62.24 63.4075 61.952 64.4635 61.952C65.6635 61.952 66.2715 62.48 66.2715 63.248V63.52C65.7275 63.392 65.0555 63.312 64.4475 63.312C62.9115 63.312 61.0715 63.92 61.0715 65.872C61.0715 67.392 62.3195 68.224 63.7595 68.224C64.8955 68.224 65.7755 67.872 66.5275 67.28C66.8475 67.856 67.4395 68.144 68.2235 68.144C68.6555 68.144 69.1035 68.048 69.4555 67.92V66.464C69.3115 66.512 69.1675 66.528 69.0395 66.528C68.7515 66.528 68.4955 66.416 68.4955 66.016ZM64.9595 64.64C65.4235 64.64 65.9355 64.736 66.2715 64.816V66.016C65.7595 66.464 65.1675 66.64 64.5435 66.64C63.8715 66.64 63.3435 66.272 63.3435 65.696C63.3435 64.912 64.1435 64.64 64.9595 64.64Z" fill="#454545"/>
<path d="M77.09 60.88L78.13 62.848L79.826 61.664L78.418 60.224L80.402 59.824L79.698 57.872L77.874 58.784L78.13 56.8H76.05L76.306 58.784L74.482 57.872L73.778 59.824L75.762 60.224L74.354 61.664L76.05 62.848L77.09 60.88Z" fill="#F64810"/>
<path d="M24.568 101L25.72 98.296H31.752L32.904 101H34.344L29.48 89.8H27.992L23.112 101H24.568ZM28.552 91.608C28.616 91.464 28.664 91.336 28.728 91.176C28.792 91.336 28.84 91.464 28.904 91.608L31.224 97.048H26.248L28.552 91.608ZM36.9328 101V97.752H41.3808V101H42.6608V93.32H41.3808V96.568H36.9328V93.32H35.6528V101H36.9328ZM51.2678 99.4V96.392C51.2678 94.248 49.9718 93.128 47.9238 93.128C46.6598 93.128 45.6038 93.432 44.9958 93.64V94.888C45.6678 94.6 46.6118 94.312 47.7958 94.312C49.2038 94.312 49.9878 95.08 49.9878 96.232V96.504C49.3478 96.36 48.5318 96.264 47.8598 96.264C46.2118 96.264 44.3878 96.872 44.3878 98.856C44.3878 100.472 45.7318 101.192 47.0918 101.192C48.3398 101.192 49.3158 100.808 50.0838 100.168C50.3078 100.84 50.8678 101.096 51.4918 101.096C51.8118 101.096 52.1478 101.032 52.4518 100.92V99.88C52.2598 99.944 52.0518 99.992 51.8598 99.992C51.5238 99.992 51.2678 99.864 51.2678 99.4ZM45.6998 98.792C45.6998 97.672 46.9158 97.336 48.0358 97.336C48.6598 97.336 49.4438 97.448 49.9878 97.56V98.968C49.3158 99.688 48.3398 100.088 47.3638 100.088C46.5158 100.088 45.6998 99.688 45.6998 98.792ZM56.5446 94.504H59.6646V101H60.9446V93.32H55.2966C55.1526 97.448 54.7046 100.04 53.3446 100.04C53.1846 100.04 53.0086 100.008 52.8326 99.944V100.952C53.1686 101.08 53.4726 101.128 53.7606 101.128C55.7446 101.128 56.2886 98.44 56.5446 94.504ZM64.8906 101H63.4844V92.4219H64.8906V101ZM63.375 90.1016C63.375 89.7891 63.4531 89.5625 63.6094 89.4219C63.7708 89.2812 63.9688 89.2109 64.2031 89.2109C64.4219 89.2109 64.612 89.2812 64.7734 89.4219C64.9401 89.5625 65.0234 89.7891 65.0234 90.1016C65.0234 90.4089 64.9401 90.6354 64.7734 90.7812C64.612 90.9271 64.4219 91 64.2031 91C63.9688 91 63.7708 90.9271 63.6094 90.7812C63.4531 90.6354 63.375 90.4089 63.375 90.1016ZM73.178 98.936C73.178 97.944 72.458 97.288 71.594 97.064C72.458 96.872 73.018 96.264 73.018 95.336C73.018 93.992 71.914 93.112 69.77 93.112C68.746 93.112 67.786 93.352 67.018 93.704V94.904C67.722 94.552 68.714 94.296 69.626 94.296C70.826 94.296 71.738 94.664 71.738 95.512C71.738 96.248 71.066 96.504 70.202 96.504H68.522V97.688H70.202C70.97 97.688 71.898 97.848 71.898 98.792C71.898 99.784 70.778 100.008 69.562 100.008C68.634 100.008 67.546 99.736 66.89 99.384V100.6C67.61 100.952 68.634 101.192 69.722 101.192C71.85 101.192 73.178 100.392 73.178 98.936ZM85.2834 99.4V96.392C85.2834 94.248 83.9874 93.128 81.9394 93.128C80.6754 93.128 79.6194 93.432 79.0114 93.64V94.888C79.6834 94.6 80.6274 94.312 81.8114 94.312C83.2194 94.312 84.0034 95.08 84.0034 96.232V96.504C83.3634 96.36 82.5474 96.264 81.8754 96.264C80.2274 96.264 78.4034 96.872 78.4034 98.856C78.4034 100.472 79.7474 101.192 81.1074 101.192C82.3554 101.192 83.3314 100.808 84.0994 100.168C84.3234 100.84 84.8834 101.096 85.5074 101.096C85.8274 101.096 86.1634 101.032 86.4674 100.92V99.88C86.2754 99.944 86.0674 99.992 85.8754 99.992C85.5394 99.992 85.2834 99.864 85.2834 99.4ZM79.7154 98.792C79.7154 97.672 80.9314 97.336 82.0514 97.336C82.6754 97.336 83.4594 97.448 84.0034 97.56V98.968C83.3314 99.688 82.3554 100.088 81.3794 100.088C80.5314 100.088 79.7154 99.688 79.7154 98.792ZM89.1203 101V97.752H93.5683V101H94.8483V93.32H93.5683V96.568H89.1203V93.32H87.8403V101H89.1203ZM103.455 99.4V96.392C103.455 94.248 102.159 93.128 100.111 93.128C98.8473 93.128 97.7913 93.432 97.1833 93.64V94.888C97.8553 94.6 98.7993 94.312 99.9833 94.312C101.391 94.312 102.175 95.08 102.175 96.232V96.504C101.535 96.36 100.719 96.264 100.047 96.264C98.3993 96.264 96.5753 96.872 96.5753 98.856C96.5753 100.472 97.9193 101.192 99.2793 101.192C100.527 101.192 101.503 100.808 102.271 100.168C102.495 100.84 103.055 101.096 103.679 101.096C103.999 101.096 104.335 101.032 104.639 100.92V99.88C104.447 99.944 104.239 99.992 104.047 99.992C103.711 99.992 103.455 99.864 103.455 99.4ZM97.8873 98.792C97.8873 97.672 99.1033 97.336 100.223 97.336C100.847 97.336 101.631 97.448 102.175 97.56V98.968C101.503 99.688 100.527 100.088 99.5513 100.088C98.7033 100.088 97.8873 99.688 97.8873 98.792ZM108.732 94.504H111.852V101H113.132V93.32H107.484C107.34 97.448 106.892 100.04 105.532 100.04C105.372 100.04 105.196 100.008 105.02 99.944V100.952C105.356 101.08 105.66 101.128 105.948 101.128C107.932 101.128 108.476 98.44 108.732 94.504ZM114.969 97.16C114.969 99.784 116.985 101.192 119.065 101.192C121.161 101.192 123.161 99.784 123.161 97.16C123.161 94.536 121.161 93.128 119.065 93.128C116.985 93.128 114.969 94.536 114.969 97.16ZM121.881 97.16C121.881 98.936 120.633 99.976 119.065 99.976C117.497 99.976 116.249 98.936 116.249 97.16C116.249 95.384 117.497 94.344 119.065 94.344C120.633 94.344 121.881 95.384 121.881 97.16ZM126.277 101V94.504H130.613V93.32H124.997V101H126.277ZM133.656 101H132.25V92.4219H133.656V101ZM132.141 90.1016C132.141 89.7891 132.219 89.5625 132.375 89.4219C132.536 89.2812 132.734 89.2109 132.969 89.2109C133.188 89.2109 133.378 89.2812 133.539 89.4219C133.706 89.5625 133.789 89.7891 133.789 90.1016C133.789 90.4089 133.706 90.6354 133.539 90.7812C133.378 90.9271 133.188 91 132.969 91C132.734 91 132.536 90.9271 132.375 90.7812C132.219 90.6354 132.141 90.4089 132.141 90.1016ZM140.536 101C142.2 101 143.016 100.136 143.016 98.872C143.016 97.912 142.376 97.304 141.752 97.096C142.328 96.84 142.776 96.2 142.776 95.4C142.776 94.04 141.752 93.32 140.408 93.32H136.2V101H140.536ZM137.48 97.672H140.408C141.048 97.672 141.736 97.88 141.736 98.792C141.736 99.64 141.16 99.88 140.36 99.88H137.48V97.672ZM137.48 94.44H140.28C140.824 94.44 141.48 94.664 141.48 95.528C141.48 96.312 140.952 96.568 140.28 96.568H137.48V94.44Z" fill="#454545"/>
<path d="M52.024 143.976C52.024 142.168 50.744 141.352 49.72 141.144C50.744 140.808 51.56 139.928 51.56 138.568C51.56 136.568 49.768 135.608 47.4 135.608C46.056 135.608 44.936 135.832 43.8 136.328V137.672C45 137.112 46.04 136.872 47.288 136.888C48.984 136.888 50.2 137.352 50.2 138.728C50.2 139.928 49.096 140.552 47.496 140.552H45.352V141.832H47.64C49.096 141.832 50.648 142.232 50.648 143.848C50.648 145.512 49.016 145.912 47.496 145.912C46.072 145.928 44.84 145.72 43.608 145.144V146.488C44.856 146.968 46.088 147.192 47.592 147.192C49.672 147.192 52.024 146.392 52.024 143.976ZM60.1896 145.4V142.392C60.1896 140.248 58.8936 139.128 56.8456 139.128C55.5816 139.128 54.5256 139.432 53.9176 139.64V140.888C54.5896 140.6 55.5336 140.312 56.7176 140.312C58.1256 140.312 58.9096 141.08 58.9096 142.232V142.504C58.2696 142.36 57.4536 142.264 56.7816 142.264C55.1336 142.264 53.3096 142.872 53.3096 144.856C53.3096 146.472 54.6536 147.192 56.0136 147.192C57.2616 147.192 58.2376 146.808 59.0056 146.168C59.2296 146.84 59.7896 147.096 60.4136 147.096C60.7336 147.096 61.0696 147.032 61.3736 146.92V145.88C61.1816 145.944 60.9736 145.992 60.7816 145.992C60.4456 145.992 60.1896 145.864 60.1896 145.4ZM54.6216 144.792C54.6216 143.672 55.8376 143.336 56.9576 143.336C57.5816 143.336 58.3656 143.448 58.9096 143.56V144.968C58.2376 145.688 57.2616 146.088 56.2856 146.088C55.4376 146.088 54.6216 145.688 54.6216 144.792ZM64.0265 147V140.504H68.3625V139.32H62.7465V147H64.0265ZM75.9709 145.4V142.392C75.9709 140.248 74.6749 139.128 72.6269 139.128C71.3629 139.128 70.3069 139.432 69.6989 139.64V140.888C70.3709 140.6 71.3149 140.312 72.4989 140.312C73.9069 140.312 74.6909 141.08 74.6909 142.232V142.504C74.0509 142.36 73.2349 142.264 72.5629 142.264C70.9149 142.264 69.0909 142.872 69.0909 144.856C69.0909 146.472 70.4349 147.192 71.7949 147.192C73.0429 147.192 74.0189 146.808 74.7869 146.168C75.0109 146.84 75.5709 147.096 76.1949 147.096C76.5149 147.096 76.8509 147.032 77.1549 146.92V145.88C76.9629 145.944 76.7549 145.992 76.5629 145.992C76.2269 145.992 75.9709 145.864 75.9709 145.4ZM70.4029 144.792C70.4029 143.672 71.6189 143.336 72.7389 143.336C73.3629 143.336 74.1469 143.448 74.6909 143.56V144.968C74.0189 145.688 73.0429 146.088 72.0669 146.088C71.2189 146.088 70.4029 145.688 70.4029 144.792ZM81.2478 140.504H84.3678V147H85.6478V139.32H79.9998C79.8558 143.448 79.4078 146.04 78.0478 146.04C77.8878 146.04 77.7118 146.008 77.5358 145.944V146.952C77.8717 147.08 78.1758 147.128 78.4638 147.128C80.4478 147.128 80.9918 144.44 81.2478 140.504ZM91.6601 147C93.5321 147 94.6361 145.928 94.6361 144.504C94.6361 143.08 93.5321 142.008 91.6601 142.008H89.2921V139.32H88.0121V147H91.6601ZM89.2921 143.16H91.5001C92.6201 143.16 93.3401 143.592 93.3401 144.504C93.3401 145.416 92.6201 145.848 91.5001 145.848H89.2921V143.16ZM97.5578 147V143.752H102.006V147H103.286V139.32H102.006V142.568H97.5578V139.32H96.2778V147H97.5578ZM111.893 145.4V142.392C111.893 140.248 110.597 139.128 108.549 139.128C107.285 139.128 106.229 139.432 105.621 139.64V140.888C106.293 140.6 107.237 140.312 108.421 140.312C109.829 140.312 110.613 141.08 110.613 142.232V142.504C109.973 142.36 109.157 142.264 108.485 142.264C106.837 142.264 105.013 142.872 105.013 144.856C105.013 146.472 106.357 147.192 107.717 147.192C108.965 147.192 109.941 146.808 110.709 146.168C110.933 146.84 111.493 147.096 112.117 147.096C112.437 147.096 112.773 147.032 113.077 146.92V145.88C112.885 145.944 112.677 145.992 112.485 145.992C112.149 145.992 111.893 145.864 111.893 145.4ZM106.325 144.792C106.325 143.672 107.541 143.336 108.661 143.336C109.285 143.336 110.069 143.448 110.613 143.56V144.968C109.941 145.688 108.965 146.088 107.989 146.088C107.141 146.088 106.325 145.688 106.325 144.792Z" fill="#454545"/>
<path d="M158.024 143.976C158.024 142.168 156.744 141.352 155.72 141.144C156.744 140.808 157.56 139.928 157.56 138.568C157.56 136.568 155.768 135.608 153.4 135.608C152.056 135.608 150.936 135.832 149.8 136.328V137.672C151 137.112 152.04 136.872 153.288 136.888C154.984 136.888 156.2 137.352 156.2 138.728C156.2 139.928 155.096 140.552 153.496 140.552H151.352V141.832H153.64C155.096 141.832 156.648 142.232 156.648 143.848C156.648 145.512 155.016 145.912 153.496 145.912C152.072 145.928 150.84 145.72 149.608 145.144V146.488C150.856 146.968 152.088 147.192 153.592 147.192C155.672 147.192 158.024 146.392 158.024 143.976ZM166.19 145.4V142.392C166.19 140.248 164.894 139.128 162.846 139.128C161.582 139.128 160.526 139.432 159.918 139.64V140.888C160.59 140.6 161.534 140.312 162.718 140.312C164.126 140.312 164.91 141.08 164.91 142.232V142.504C164.27 142.36 163.454 142.264 162.782 142.264C161.134 142.264 159.31 142.872 159.31 144.856C159.31 146.472 160.654 147.192 162.014 147.192C163.262 147.192 164.238 146.808 165.006 146.168C165.23 146.84 165.79 147.096 166.414 147.096C166.734 147.096 167.07 147.032 167.374 146.92V145.88C167.182 145.944 166.974 145.992 166.782 145.992C166.446 145.992 166.19 145.864 166.19 145.4ZM160.622 144.792C160.622 143.672 161.838 143.336 162.958 143.336C163.582 143.336 164.366 143.448 164.91 143.56V144.968C164.238 145.688 163.262 146.088 162.286 146.088C161.438 146.088 160.622 145.688 160.622 144.792ZM178.475 144.936C178.475 143.944 177.755 143.288 176.891 143.064C177.755 142.872 178.315 142.264 178.315 141.336C178.315 139.992 177.211 139.112 175.067 139.112C174.043 139.112 173.083 139.352 172.315 139.704V140.904C173.019 140.552 174.011 140.296 174.923 140.296C176.123 140.296 177.035 140.664 177.035 141.512C177.035 142.248 176.363 142.504 175.499 142.504H173.819V143.688H175.499C176.267 143.688 177.195 143.848 177.195 144.792C177.195 145.784 176.075 146.008 174.859 146.008C173.931 146.008 172.843 145.736 172.187 145.384V146.6C172.907 146.952 173.931 147.192 175.019 147.192C177.147 147.192 178.475 146.392 178.475 144.936ZM186.596 145.4V142.392C186.596 140.248 185.3 139.128 183.252 139.128C181.988 139.128 180.932 139.432 180.324 139.64V140.888C180.996 140.6 181.94 140.312 183.124 140.312C184.532 140.312 185.316 141.08 185.316 142.232V142.504C184.676 142.36 183.86 142.264 183.188 142.264C181.54 142.264 179.716 142.872 179.716 144.856C179.716 146.472 181.06 147.192 182.42 147.192C183.668 147.192 184.644 146.808 185.412 146.168C185.636 146.84 186.196 147.096 186.82 147.096C187.14 147.096 187.476 147.032 187.78 146.92V145.88C187.588 145.944 187.38 145.992 187.188 145.992C186.852 145.992 186.596 145.864 186.596 145.4ZM181.028 144.792C181.028 143.672 182.244 143.336 183.364 143.336C183.988 143.336 184.772 143.448 185.316 143.56V144.968C184.644 145.688 183.668 146.088 182.692 146.088C181.844 146.088 181.028 145.688 181.028 144.792ZM190.369 147V141.208L192.865 145H193.825L196.321 141.208V147H197.537V139.32H196.145L193.345 143.576L190.545 139.32H189.153V147H190.369ZM199.375 143.16C199.375 145.784 201.391 147.192 203.471 147.192C205.567 147.192 207.567 145.784 207.567 143.16C207.567 140.536 205.567 139.128 203.471 139.128C201.391 139.128 199.375 140.536 199.375 143.16ZM206.287 143.16C206.287 144.936 205.039 145.976 203.471 145.976C201.903 145.976 200.655 144.936 200.655 143.16C200.655 141.384 201.903 140.344 203.471 140.344C205.039 140.344 206.287 141.384 206.287 143.16ZM213.739 147C215.403 147 216.219 146.136 216.219 144.872C216.219 143.912 215.579 143.304 214.955 143.096C215.531 142.84 215.979 142.2 215.979 141.4C215.979 140.04 214.955 139.32 213.611 139.32H209.403V147H213.739ZM210.683 143.672H213.611C214.251 143.672 214.939 143.88 214.939 144.792C214.939 145.64 214.363 145.88 213.563 145.88H210.683V143.672ZM210.683 140.44H213.483C214.027 140.44 214.683 140.664 214.683 141.528C214.683 142.312 214.155 142.568 213.483 142.568H210.683V140.44ZM224.168 147V139.32H222.888V143.208C222.296 143.448 221.752 143.544 220.984 143.544C219.704 143.544 218.92 143.176 218.92 141.88V139.32H217.64V141.976C217.64 143.864 218.84 144.728 220.6 144.728C221.56 144.728 222.184 144.6 222.888 144.328V147H224.168ZM229.775 145.544L226.879 139.32H225.519L229.167 147.016L228.879 147.72C228.383 148.968 227.759 149.592 226.895 149.592C226.671 149.592 226.447 149.56 226.223 149.496V150.6C226.511 150.68 226.783 150.712 227.055 150.712C228.175 150.712 229.151 150.008 229.951 148.152L233.727 139.32H232.367L229.775 145.544ZM239.489 147C241.153 147 241.969 146.136 241.969 144.872C241.969 143.912 241.329 143.304 240.705 143.096C241.281 142.84 241.729 142.2 241.729 141.4C241.729 140.04 240.705 139.32 239.361 139.32H235.153V147H239.489ZM236.433 143.672H239.361C240.001 143.672 240.689 143.88 240.689 144.792C240.689 145.64 240.113 145.88 239.313 145.88H236.433V143.672ZM236.433 140.44H239.233C239.777 140.44 240.433 140.664 240.433 141.528C240.433 142.312 239.905 142.568 239.233 142.568H236.433V140.44ZM250.158 145.4V142.392C250.158 140.248 248.862 139.128 246.814 139.128C245.55 139.128 244.494 139.432 243.886 139.64V140.888C244.558 140.6 245.502 140.312 246.686 140.312C248.094 140.312 248.878 141.08 248.878 142.232V142.504C248.238 142.36 247.422 142.264 246.75 142.264C245.102 142.264 243.278 142.872 243.278 144.856C243.278 146.472 244.622 147.192 245.982 147.192C247.23 147.192 248.206 146.808 248.974 146.168C249.198 146.84 249.758 147.096 250.382 147.096C250.702 147.096 251.038 147.032 251.342 146.92V145.88C251.15 145.944 250.942 145.992 250.75 145.992C250.414 145.992 250.158 145.864 250.158 145.4ZM244.59 144.792C244.59 143.672 245.806 143.336 246.926 143.336C247.55 143.336 248.334 143.448 248.878 143.56V144.968C248.206 145.688 247.23 146.088 246.254 146.088C245.406 146.088 244.59 145.688 244.59 144.792ZM253.995 147V143.752H258.443V147H259.723V139.32H258.443V142.568H253.995V139.32H252.715V147H253.995ZM263.37 147V143.752H267.818V147H269.098V139.32H267.818V142.568H263.37V139.32H262.09V147H263.37ZM272.233 147L274.329 144.312H276.489V147H277.769V139.32H273.993C272.121 139.32 271.113 140.472 271.113 141.816C271.113 142.888 271.753 143.832 272.953 144.184L270.729 147H272.233ZM272.393 141.816C272.393 140.968 273.033 140.472 274.105 140.472H276.489V143.16H274.105C273.033 143.16 272.393 142.664 272.393 141.816ZM281.353 147V141.208L283.849 145H284.809L287.305 141.208V147H288.521V139.32H287.129L284.329 143.576L281.529 139.32H280.137V147H281.353Z" fill="#454545"/>
<rect x="23.5" y="135.5" width="12" height="12" rx="2.5" stroke="#E6E6E6"/>
<rect x="129.5" y="135.5" width="12" height="12" rx="2.5" stroke="#E6E6E6"/>
<path d="M23 171C23 169.343 24.3431 168 26 168H114C115.657 168 117 169.343 117 171V193C117 194.657 115.657 196 114 196H26C24.3431 196 23 194.657 23 193V171Z" fill="#0FA7F0"/>
<path d="M33.468 181.554C33.468 184.726 35.951 186.182 38.382 186.182C39.344 186.182 40.241 185.974 41.021 185.597V183.686C40.475 184.18 39.617 184.44 38.681 184.44C37.095 184.44 35.457 183.556 35.47 181.554C35.47 179.357 37.082 178.447 38.681 178.447C39.526 178.447 40.371 178.707 40.956 179.162V177.303C40.176 176.913 39.266 176.718 38.356 176.718C35.925 176.718 33.481 178.226 33.468 181.554ZM41.6749 176.9V178.655H44.4699V186H46.4069V178.655H49.2019V176.9H41.6749ZM50.352 176.9V186H54.265C55.851 186 57.84 185.519 57.84 183.452C57.84 182.113 56.995 181.45 56.098 181.19C56.904 180.917 57.476 180.267 57.476 179.201C57.476 177.641 56.267 176.9 54.33 176.9H50.352ZM55.89 183.244C55.89 184.232 55.11 184.414 54.239 184.414H52.289V182.074H54.343C55.123 182.074 55.89 182.282 55.89 183.244ZM55.539 179.539C55.539 180.241 55.006 180.579 54.265 180.579H52.302V178.499H54.161C55.019 178.499 55.539 178.824 55.539 179.539ZM58.7698 181.45C58.7698 183.92 60.3818 186.182 63.6058 186.182C66.8298 186.182 68.4418 183.92 68.4418 181.45C68.4418 178.98 66.8298 176.718 63.6058 176.718C60.3818 176.718 58.7698 178.98 58.7698 181.45ZM66.4398 181.45C66.4398 183.049 65.4908 184.375 63.6058 184.375C61.7078 184.375 60.7588 183.049 60.7588 181.45C60.7588 179.851 61.7078 178.525 63.6058 178.525C65.4908 178.525 66.4398 179.851 66.4398 181.45ZM69.89 176.9V186H71.84V183.01H73.322C75.519 183.01 77.248 182.308 77.248 179.955C77.248 177.602 75.519 176.9 73.322 176.9H69.89ZM75.259 179.955C75.259 181.021 74.414 181.294 73.413 181.294H71.84V178.616H73.413C74.414 178.616 75.259 178.876 75.259 179.955ZM86.5429 186V176.9H84.7099L80.4719 182.841C80.4979 182.464 80.5109 182.009 80.5109 181.593V176.9H78.5609V186H80.3939L84.6319 180.059C84.6059 180.436 84.5929 180.891 84.5929 181.307V186H86.5429ZM87.6827 176.9V178.655H90.4777V186H92.4147V178.655H95.2097V176.9H87.6827ZM104.342 186V176.9H102.509L98.2708 182.841C98.2968 182.464 98.3098 182.009 98.3098 181.593V176.9H96.3598V186H98.1928L102.431 180.059C102.405 180.436 102.392 180.891 102.392 181.307V186H104.342Z" fill="white"/>
</svg>
