<svg width="377" height="264" viewBox="0 0 377 264" fill="none" xmlns="http://www.w3.org/2000/svg">
<path fill-rule="evenodd" clip-rule="evenodd" d="M245 1H5C2.79086 1 1 2.79086 1 5V186C1 188.209 2.79086 190 5 190H245C247.209 190 249 188.209 249 186V5C249 2.79086 247.209 1 245 1ZM5 0C2.23858 0 0 2.23857 0 5V186C0 188.761 2.23857 191 5 191H245C247.761 191 250 188.761 250 186V5C250 2.23858 247.761 0 245 0H5Z" fill="#E6E6E6"/>
<path d="M0 5C0 2.23858 2.23858 0 5 0H245C247.761 0 250 2.23858 250 5V35H0V5Z" fill="#0FA7F0"/>
<path d="M21 58C21 56.3431 22.3431 55 24 55H226C227.657 55 229 56.3431 229 58V67C229 68.6569 227.657 70 226 70H24C22.3431 70 21 68.6569 21 67V58Z" fill="#E6E6E6"/>
<path d="M26 61C26 59.8954 26.8954 59 28 59H69C70.1046 59 71 59.8954 71 61V64C71 65.1046 70.1046 66 69 66H28C26.8954 66 26 65.1046 26 64V61Z" fill="#B3B3B3"/>
<path d="M77 61C77 59.8954 77.8954 59 79 59H120C121.105 59 122 59.8954 122 61V64C122 65.1046 121.105 66 120 66H79C77.8954 66 77 65.1046 77 64V61Z" fill="#B3B3B3"/>
<path d="M128 61C128 59.8954 128.895 59 130 59H171C172.105 59 173 59.8954 173 61V64C173 65.1046 172.105 66 171 66H130C128.895 66 128 65.1046 128 64V61Z" fill="#B3B3B3"/>
<path d="M179 61C179 59.8954 179.895 59 181 59H222C223.105 59 224 59.8954 224 61V64C224 65.1046 223.105 66 222 66H181C179.895 66 179 65.1046 179 64V61Z" fill="#B3B3B3"/>
<path fill-rule="evenodd" clip-rule="evenodd" d="M229 88H21V87H229V88Z" fill="#E1E1E9"/>
<path d="M26 77C26 75.8954 26.8954 75 28 75H69C70.1046 75 71 75.8954 71 77V80C71 81.1046 70.1046 82 69 82H28C26.8954 82 26 81.1046 26 80V77Z" fill="#B3B3B3"/>
<path d="M77 77C77 75.8954 77.8954 75 79 75H120C121.105 75 122 75.8954 122 77V80C122 81.1046 121.105 82 120 82H79C77.8954 82 77 81.1046 77 80V77Z" fill="#E6E6E6"/>
<path d="M128 77C128 75.8954 128.895 75 130 75H171C172.105 75 173 75.8954 173 77V80C173 81.1046 172.105 82 171 82H130C128.895 82 128 81.1046 128 80V77Z" fill="#E6E6E6"/>
<path d="M179 77C179 75.8954 179.895 75 181 75H222C223.105 75 224 75.8954 224 77V80C224 81.1046 223.105 82 222 82H181C179.895 82 179 81.1046 179 80V77Z" fill="#E6E6E6"/>
<path fill-rule="evenodd" clip-rule="evenodd" d="M229 106H21V105H229V106Z" fill="#E1E1E9"/>
<path d="M26 95C26 93.8954 26.8954 93 28 93H69C70.1046 93 71 93.8954 71 95V98C71 99.1046 70.1046 100 69 100H28C26.8954 100 26 99.1046 26 98V95Z" fill="#B3B3B3"/>
<path d="M77 95C77 93.8954 77.8954 93 79 93H120C121.105 93 122 93.8954 122 95V98C122 99.1046 121.105 100 120 100H79C77.8954 100 77 99.1046 77 98V95Z" fill="#E6E6E6"/>
<path d="M128 95C128 93.8954 128.895 93 130 93H171C172.105 93 173 93.8954 173 95V98C173 99.1046 172.105 100 171 100H130C128.895 100 128 99.1046 128 98V95Z" fill="#E6E6E6"/>
<path d="M179 95C179 93.8954 179.895 93 181 93H222C223.105 93 224 93.8954 224 95V98C224 99.1046 223.105 100 222 100H181C179.895 100 179 99.1046 179 98V95Z" fill="#E6E6E6"/>
<path fill-rule="evenodd" clip-rule="evenodd" d="M229 124H21V123H229V124Z" fill="#E1E1E9"/>
<path d="M26 113C26 111.895 26.8954 111 28 111H69C70.1046 111 71 111.895 71 113V116C71 117.105 70.1046 118 69 118H28C26.8954 118 26 117.105 26 116V113Z" fill="#B3B3B3"/>
<path d="M77 113C77 111.895 77.8954 111 79 111H120C121.105 111 122 111.895 122 113V116C122 117.105 121.105 118 120 118H79C77.8954 118 77 117.105 77 116V113Z" fill="#E6E6E6"/>
<path d="M128 113C128 111.895 128.895 111 130 111H171C172.105 111 173 111.895 173 113V116C173 117.105 172.105 118 171 118H130C128.895 118 128 117.105 128 116V113Z" fill="#E6E6E6"/>
<path d="M179 113C179 111.895 179.895 111 181 111H222C223.105 111 224 111.895 224 113V116C224 117.105 223.105 118 222 118H181C179.895 118 179 117.105 179 116V113Z" fill="#E6E6E6"/>
<path fill-rule="evenodd" clip-rule="evenodd" d="M229 142H21V141H229V142Z" fill="#E1E1E9"/>
<path d="M26 131C26 129.895 26.8954 129 28 129H69C70.1046 129 71 129.895 71 131V134C71 135.105 70.1046 136 69 136H28C26.8954 136 26 135.105 26 134V131Z" fill="#B3B3B3"/>
<path d="M77 131C77 129.895 77.8954 129 79 129H120C121.105 129 122 129.895 122 131V134C122 135.105 121.105 136 120 136H79C77.8954 136 77 135.105 77 134V131Z" fill="#E6E6E6"/>
<path d="M128 131C128 129.895 128.895 129 130 129H171C172.105 129 173 129.895 173 131V134C173 135.105 172.105 136 171 136H130C128.895 136 128 135.105 128 134V131Z" fill="#E6E6E6"/>
<path d="M179 131C179 129.895 179.895 129 181 129H222C223.105 129 224 129.895 224 131V134C224 135.105 223.105 136 222 136H181C179.895 136 179 135.105 179 134V131Z" fill="#E6E6E6"/>
<path fill-rule="evenodd" clip-rule="evenodd" d="M229 160H21V159H229V160Z" fill="#E1E1E9"/>
<path d="M26 149C26 147.895 26.8954 147 28 147H69C70.1046 147 71 147.895 71 149V152C71 153.105 70.1046 154 69 154H28C26.8954 154 26 153.105 26 152V149Z" fill="#B3B3B3"/>
<path d="M77 149C77 147.895 77.8954 147 79 147H120C121.105 147 122 147.895 122 149V152C122 153.105 121.105 154 120 154H79C77.8954 154 77 153.105 77 152V149Z" fill="#E6E6E6"/>
<path d="M128 149C128 147.895 128.895 147 130 147H171C172.105 147 173 147.895 173 149V152C173 153.105 172.105 154 171 154H130C128.895 154 128 153.105 128 152V149Z" fill="#E6E6E6"/>
<path d="M179 149C179 147.895 179.895 147 181 147H222C223.105 147 224 147.895 224 149V152C224 153.105 223.105 154 222 154H181C179.895 154 179 153.105 179 152V149Z" fill="#E6E6E6"/>
<path d="M26 167C26 165.895 26.8954 165 28 165H69C70.1046 165 71 165.895 71 167V170C71 171.105 70.1046 172 69 172H28C26.8954 172 26 171.105 26 170V167Z" fill="#B3B3B3"/>
<path d="M77 167C77 165.895 77.8954 165 79 165H120C121.105 165 122 165.895 122 167V170C122 171.105 121.105 172 120 172H79C77.8954 172 77 171.105 77 170V167Z" fill="#E6E6E6"/>
<path d="M128 167C128 165.895 128.895 165 130 165H171C172.105 165 173 165.895 173 167V170C173 171.105 172.105 172 171 172H130C128.895 172 128 171.105 128 170V167Z" fill="#E6E6E6"/>
<path d="M179 167C179 165.895 179.895 165 181 165H222C223.105 165 224 165.895 224 167V170C224 171.105 223.105 172 222 172H181C179.895 172 179 171.105 179 170V167Z" fill="#E6E6E6"/>
<path d="M13.208 11.8V13.96H16.648V23H19.032V13.96H22.472V11.8H13.208ZM28.9018 21.016V18.568C28.9018 16.04 27.4298 15.096 25.1258 15.096C23.9418 15.096 22.7738 15.4 22.1497 15.608V17.528C22.8698 17.24 23.8138 16.952 24.8698 16.952C26.0698 16.952 26.6778 17.48 26.6778 18.248V18.52C26.1338 18.392 25.4618 18.312 24.8538 18.312C23.3178 18.312 21.4778 18.92 21.4778 20.872C21.4778 22.392 22.7258 23.224 24.1658 23.224C25.3018 23.224 26.1818 22.872 26.9338 22.28C27.2538 22.856 27.8458 23.144 28.6298 23.144C29.0618 23.144 29.5098 23.048 29.8618 22.92V21.464C29.7178 21.512 29.5738 21.528 29.4458 21.528C29.1578 21.528 28.9018 21.416 28.9018 21.016ZM25.3658 19.64C25.8298 19.64 26.3418 19.736 26.6778 19.816V21.016C26.1658 21.464 25.5738 21.64 24.9498 21.64C24.2778 21.64 23.7498 21.272 23.7498 20.696C23.7498 19.912 24.5498 19.64 25.3658 19.64ZM38.9094 19.496C38.9094 17.144 37.3894 15.8 35.5014 15.8C34.3334 15.8 33.4854 16.328 33.0054 17C33.1174 16.248 33.5334 15.304 34.4134 14.824C35.9014 14.04 37.1974 14.456 38.2374 13.608V11.576C37.1654 12.616 35.2934 12.008 33.0854 13.384C31.7094 14.248 30.7334 15.832 30.7334 18.584C30.7334 21.896 32.5734 23.224 34.8294 23.224C37.1494 23.224 38.9094 21.944 38.9094 19.496ZM33.0054 19.512C33.0054 18.696 33.4854 17.576 34.8294 17.576C36.1894 17.576 36.6374 18.648 36.6374 19.512C36.6374 20.376 36.1894 21.448 34.8294 21.448C33.4854 21.448 33.0054 20.376 33.0054 19.512ZM43.6958 17.08H45.6638V23H47.8878V15.32H41.6478C41.5038 18.76 41.2318 21.272 40.0158 21.272C39.8717 21.272 39.7118 21.24 39.5518 21.176V22.936C39.9998 23.096 40.4158 23.16 40.7678 23.16C42.8798 23.16 43.4718 20.536 43.6958 17.08ZM51.7081 23L55.1321 18.68V23H57.3401V15.32H55.4201L51.9961 19.64V15.32H49.7721V23H51.7081ZM67.8493 25.032V21.176H66.6973V15.32H64.4733V21.128H61.4493V15.32H59.2253V23H65.8013V25.032H67.8493ZM71.0649 23L72.7769 20.712H74.0249V23H76.2489V15.32H72.0889C70.0729 15.32 69.0169 16.568 69.0169 18.008C69.0169 19.048 69.5449 19.976 70.5849 20.424L68.5689 23H71.0649ZM71.2729 18.072C71.2729 17.432 71.7369 17.08 72.5369 17.08H74.0249V19.048H72.5369C71.7369 19.048 71.2729 18.696 71.2729 18.072Z" fill="white"/>
<rect x="127.5" y="73.5" width="249" height="190" rx="4.5" fill="white" stroke="#E6E6E6"/>
<path opacity="0.6" d="M311 184C311 216.585 284.585 243 252 243C219.415 243 193 216.585 193 184C193 151.415 219.415 125 252 125C284.585 125 311 151.415 311 184Z" fill="#FFE264"/>
<path d="M311 184C311 197.931 306.07 211.412 297.084 222.058C288.098 232.703 275.635 239.825 261.902 242.163C248.169 244.501 234.051 241.904 222.049 234.832C210.046 227.76 200.934 216.669 196.324 203.523C191.714 190.377 191.905 176.024 196.862 163.005C201.819 149.986 211.223 139.141 223.409 132.39C235.595 125.64 249.777 123.419 263.443 126.12C277.109 128.822 289.379 136.273 298.079 147.153L252 184H311Z" fill="#F28100"/>
<path d="M311 184C311 196.75 306.87 209.156 299.228 219.362C291.586 229.568 280.844 237.024 268.61 240.613C256.376 244.203 243.308 243.733 231.364 239.273C219.42 234.814 209.241 226.605 202.353 215.877C195.464 205.148 192.236 192.477 193.153 179.76C194.069 167.043 199.08 154.965 207.435 145.335C215.791 135.705 227.041 129.04 239.501 126.339C251.962 123.638 264.962 125.046 276.555 130.353L252 184H311Z" fill="#0FA7F0"/>
<path d="M127 78C127 75.2386 129.239 73 132 73H372C374.761 73 377 75.2386 377 78V108H127V78Z" fill="#0FA7F0"/>
<path d="M143.6 96V86.96H149.024V84.8H141.2V96H143.6ZM150.506 89.44V88.32H148.538V99.52H150.762V95.184C151.258 95.728 152.074 96.224 153.29 96.224C155.722 96.224 157.034 94.256 157.034 92.16C157.034 90.064 155.722 88.096 153.29 88.096C151.866 88.096 150.986 88.752 150.506 89.44ZM154.762 92.16C154.762 93.36 154.01 94.352 152.746 94.352C151.77 94.352 151.05 93.744 150.746 93.072V91.248C151.05 90.576 151.77 89.968 152.746 89.968C154.01 89.968 154.762 90.96 154.762 92.16ZM165.355 94.016V91.568C165.355 89.04 163.883 88.096 161.579 88.096C160.395 88.096 159.227 88.4 158.603 88.608V90.528C159.323 90.24 160.267 89.952 161.323 89.952C162.523 89.952 163.131 90.48 163.131 91.248V91.52C162.587 91.392 161.915 91.312 161.307 91.312C159.771 91.312 157.931 91.92 157.931 93.872C157.931 95.392 159.179 96.224 160.619 96.224C161.755 96.224 162.635 95.872 163.387 95.28C163.707 95.856 164.299 96.144 165.083 96.144C165.515 96.144 165.963 96.048 166.315 95.92V94.464C166.171 94.512 166.027 94.528 165.899 94.528C165.611 94.528 165.355 94.416 165.355 94.016ZM161.819 92.64C162.283 92.64 162.795 92.736 163.131 92.816V94.016C162.619 94.464 162.027 94.64 161.403 94.64C160.731 94.64 160.203 94.272 160.203 93.696C160.203 92.912 161.003 92.64 161.819 92.64ZM173.603 99.52V96.224C176.147 96.128 178.035 94.608 178.035 92.16C178.035 89.712 176.147 88.192 173.603 88.096V84.8H171.491V88.096C168.947 88.192 167.059 89.712 167.059 92.16C167.059 94.608 168.947 96.128 171.491 96.224V99.52H173.603ZM169.283 92.16C169.283 91.008 170.019 90.032 171.507 89.952V94.368C170.019 94.288 169.283 93.312 169.283 92.16ZM173.619 89.952C175.107 90.032 175.843 91.008 175.843 92.16C175.843 93.312 175.107 94.288 173.619 94.368V89.952ZM179.68 85.0078C179.68 84.2318 180.112 83.8438 180.977 83.8438C181.841 83.8438 182.273 84.2318 182.273 85.0078C182.273 85.3776 182.164 85.6667 181.945 85.875C181.732 86.0781 181.409 86.1797 180.977 86.1797C180.112 86.1797 179.68 85.7891 179.68 85.0078ZM182.164 96H179.781V87.2656H182.164V96ZM186.59 96V92.96H187.486L189.694 96H192.19L189.326 92.112L191.966 88.32H189.47L187.518 91.184H186.59V88.32H184.366V96H186.59Z" fill="white"/>
</svg>
