<svg width="719" height="423" viewBox="0 0 719 423" fill="none" xmlns="http://www.w3.org/2000/svg">
<g filter="url(#filter0_d_1713_424)">
<path d="M50 61C50 52.7157 56.7157 46 65 46H654C662.284 46 669 52.7157 669 61V354C669 362.284 662.284 369 654 369H65C56.7157 369 50 362.284 50 354V61Z" fill="white"/>
</g>
<path fill-rule="evenodd" clip-rule="evenodd" d="M407 149H86V148H407V149Z" fill="black"/>
<path fill-rule="evenodd" clip-rule="evenodd" d="M407 240H86V239H407V240Z" fill="black"/>
<path d="M95.1795 304.874C95.1795 305.498 95.0115 306.062 94.6755 306.566C94.3515 307.058 93.9255 307.394 93.3975 307.574C94.0215 307.766 94.5555 308.12 94.9995 308.636C95.4555 309.14 95.6835 309.818 95.6835 310.67C95.6835 311.81 95.2575 312.686 94.4055 313.298C93.5655 313.91 92.4975 314.216 91.2015 314.216C89.5575 314.216 88.1355 313.946 86.9355 313.406V311.912C88.0995 312.512 89.4795 312.806 91.0755 312.794C93.1755 312.794 94.2255 312.062 94.2255 310.598C94.2255 309.134 93.2295 308.402 91.2375 308.402H89.3655V306.962L91.0755 306.98C91.9395 306.98 92.5935 306.8 93.0375 306.44C93.4935 306.068 93.7215 305.588 93.7215 305C93.7215 304.364 93.4695 303.866 92.9655 303.506C92.4615 303.134 91.7475 302.948 90.8235 302.948C89.5515 302.948 88.3275 303.26 87.1515 303.884V302.408C88.2795 301.832 89.5695 301.544 91.0215 301.544C92.2695 301.544 93.2715 301.85 94.0275 302.462C94.7955 303.074 95.1795 303.878 95.1795 304.874Z" fill="#37376D"/>
<path d="M98.85 312.47C97.938 311.306 97.482 309.776 97.482 307.88C97.482 305.984 97.938 304.454 98.85 303.29C99.762 302.126 101.106 301.544 102.882 301.544C104.67 301.544 106.02 302.126 106.932 303.29C107.844 304.442 108.3 305.972 108.3 307.88C108.3 309.788 107.844 311.324 106.932 312.488C106.02 313.64 104.67 314.216 102.882 314.216C101.106 314.216 99.762 313.634 98.85 312.47ZM105.798 311.516C106.446 310.664 106.77 309.452 106.77 307.88C106.77 306.308 106.446 305.102 105.798 304.262C105.162 303.41 104.19 302.984 102.882 302.984C101.574 302.984 100.602 303.41 99.966 304.262C99.33 305.102 99.012 306.308 99.012 307.88C99.012 309.452 99.33 310.664 99.966 311.516C100.602 312.356 101.574 312.776 102.882 312.776C104.19 312.776 105.162 312.356 105.798 311.516Z" fill="#37376D"/>
<path fill-rule="evenodd" clip-rule="evenodd" d="M407 331H86V330H407V331Z" fill="black"/>
<path d="M403.165 315.75L399 312L407.33 312L403.165 315.75Z" fill="#000C2C"/>
<path d="M403.165 301L407.33 304.75H399L403.165 301Z" fill="#000C2C"/>
<path d="M85 124.5C85 116.492 91.4919 110 99.5 110H144.5C152.508 110 159 116.492 159 124.5V124.5C159 132.508 152.508 139 144.5 139H99.5C91.4919 139 85 132.508 85 124.5V124.5Z" fill="#DDDDE6"/>
<path d="M101.168 130H99.6562V117.4H109.934V130H108.422V118.84H101.168V130Z" fill="#37376D"/>
<path d="M114.36 130H112.92V121.36H114.36V125.014H119.364V121.36H120.804V130H119.364V126.346H114.36V130Z" fill="#37376D"/>
<path d="M154 124.5C154 130.299 149.299 135 143.5 135C137.701 135 133 130.299 133 124.5C133 118.701 137.701 114 143.5 114C149.299 114 154 118.701 154 124.5Z" fill="#AFAFBD"/>
<path fill-rule="evenodd" clip-rule="evenodd" d="M143.5 123.793L140.672 120.964L139.965 121.671L142.793 124.5L139.965 127.329L140.672 128.036L143.5 125.207L146.329 128.035L147.036 127.328L144.208 124.5L147.036 121.672L146.329 120.965L143.5 123.793Z" fill="#37376D"/>
<path d="M85 214.5C85 206.492 91.4919 200 99.5 200H144.5C152.508 200 159 206.492 159 214.5V214.5C159 222.508 152.508 229 144.5 229H99.5C91.4919 229 85 222.508 85 214.5V214.5Z" fill="#DDDDE6"/>
<path d="M101.923 207.76H103.039V218.56H105.325V220H98.9531V218.56H101.527V209.362L98.9531 210.334V208.894L101.923 207.76Z" fill="#37376D"/>
<path d="M108.019 218.47C107.107 217.306 106.652 215.776 106.652 213.88C106.652 211.984 107.107 210.454 108.019 209.29C108.931 208.126 110.275 207.544 112.051 207.544C113.839 207.544 115.189 208.126 116.101 209.29C117.013 210.442 117.469 211.972 117.469 213.88C117.469 215.788 117.013 217.324 116.101 218.488C115.189 219.64 113.839 220.216 112.051 220.216C110.275 220.216 108.931 219.634 108.019 218.47ZM114.968 217.516C115.616 216.664 115.94 215.452 115.94 213.88C115.94 212.308 115.616 211.102 114.968 210.262C114.332 209.41 113.359 208.984 112.051 208.984C110.743 208.984 109.771 209.41 109.135 210.262C108.499 211.102 108.181 212.308 108.181 213.88C108.181 215.452 108.499 216.664 109.135 217.516C109.771 218.356 110.743 218.776 112.051 218.776C113.359 218.776 114.332 218.356 114.968 217.516Z" fill="#37376D"/>
<path d="M154 214.5C154 220.299 149.299 225 143.5 225C137.701 225 133 220.299 133 214.5C133 208.701 137.701 204 143.5 204C149.299 204 154 208.701 154 214.5Z" fill="#AFAFBD"/>
<path fill-rule="evenodd" clip-rule="evenodd" d="M143.5 213.793L140.672 210.964L139.965 211.671L142.793 214.5L139.965 217.329L140.672 218.036L143.5 215.207L146.329 218.035L147.036 217.328L144.208 214.5L147.036 211.672L146.329 210.965L143.5 213.793Z" fill="#37376D"/>
<path d="M169 124.5C169 116.492 175.492 110 183.5 110H228.5C236.508 110 243 116.492 243 124.5V124.5C243 132.508 236.508 139 228.5 139H183.5C175.492 139 169 132.508 169 124.5V124.5Z" fill="#DDDDE6"/>
<path d="M183.656 117.4H188.822C190.142 117.4 191.186 117.676 191.954 118.228C192.722 118.768 193.106 119.554 193.106 120.586C193.106 121.33 192.908 121.942 192.512 122.422C192.116 122.89 191.642 123.208 191.09 123.376C191.762 123.556 192.35 123.904 192.854 124.42C193.358 124.924 193.61 125.632 193.61 126.544C193.61 127.096 193.502 127.582 193.286 128.002C193.082 128.422 192.818 128.758 192.494 129.01C192.182 129.25 191.81 129.448 191.378 129.604C190.958 129.76 190.55 129.868 190.154 129.928C189.77 129.976 189.374 130 188.966 130H183.656V117.4ZM192.08 126.382C192.08 124.93 191.078 124.204 189.074 124.204H185.168V128.56H188.66C189.044 128.56 189.368 128.554 189.632 128.542C189.896 128.518 190.196 128.47 190.532 128.398C190.868 128.314 191.138 128.2 191.342 128.056C191.546 127.9 191.72 127.684 191.864 127.408C192.008 127.12 192.08 126.778 192.08 126.382ZM191.576 120.802C191.576 120.094 191.33 119.59 190.838 119.29C190.358 118.99 189.644 118.84 188.696 118.84H185.168V122.764H189.11C189.83 122.764 190.418 122.608 190.874 122.296C191.342 121.972 191.576 121.474 191.576 120.802Z" fill="#37376D"/>
<path d="M199.237 130H197.797V122.692H194.611V121.36H202.405V122.692H199.237V130Z" fill="#37376D"/>
<path d="M238 124.5C238 130.299 233.299 135 227.5 135C221.701 135 217 130.299 217 124.5C217 118.701 221.701 114 227.5 114C233.299 114 238 118.701 238 124.5Z" fill="#AFAFBD"/>
<path fill-rule="evenodd" clip-rule="evenodd" d="M227.5 123.793L224.672 120.964L223.965 121.671L226.793 124.5L223.965 127.329L224.672 128.036L227.5 125.207L230.329 128.035L231.036 127.328L228.208 124.5L231.036 121.672L230.329 120.965L227.5 123.793Z" fill="#37376D"/>
<path d="M169 214.5C169 206.492 175.492 200 183.5 200H228.5C236.508 200 243 206.492 243 214.5V214.5C243 222.508 236.508 229 228.5 229H183.5C175.492 229 169 222.508 169 214.5V214.5Z" fill="#DDDDE6"/>
<path d="M185.923 207.76H187.039V218.56H189.325V220H182.953V218.56H185.527V209.362L182.953 210.334V208.894L185.923 207.76Z" fill="#37376D"/>
<path d="M190.957 208.732C192.097 207.94 193.406 207.544 194.882 207.544C196.154 207.544 197.168 207.832 197.924 208.408C198.679 208.984 199.057 209.788 199.057 210.82C199.057 211.312 198.962 211.774 198.77 212.206C198.59 212.638 198.313 213.034 197.941 213.394C197.581 213.754 197.227 214.06 196.879 214.312C196.543 214.552 196.117 214.822 195.601 215.122C195.541 215.158 195.355 215.266 195.043 215.446C194.743 215.626 194.551 215.74 194.467 215.788C194.395 215.836 194.227 215.944 193.964 216.112C193.712 216.268 193.543 216.382 193.459 216.454C193.387 216.526 193.255 216.64 193.063 216.796C192.883 216.952 192.757 217.084 192.685 217.192C192.625 217.3 192.541 217.438 192.433 217.606C192.337 217.762 192.271 217.918 192.235 218.074C192.199 218.23 192.181 218.398 192.181 218.578L199.147 218.56V220H190.525V219.28C190.525 218.608 190.634 218.002 190.85 217.462C191.066 216.91 191.371 216.442 191.767 216.058C192.175 215.662 192.577 215.332 192.973 215.068C193.369 214.792 193.832 214.498 194.359 214.186C194.48 214.126 194.569 214.078 194.629 214.042C195.721 213.406 196.435 212.92 196.771 212.584C197.287 212.056 197.545 211.462 197.545 210.802C197.545 210.202 197.299 209.746 196.807 209.434C196.327 209.11 195.643 208.948 194.755 208.948C193.459 208.948 192.193 209.38 190.957 210.244V208.732Z" fill="#37376D"/>
<path d="M238 214.5C238 220.299 233.299 225 227.5 225C221.701 225 217 220.299 217 214.5C217 208.701 221.701 204 227.5 204C233.299 204 238 208.701 238 214.5Z" fill="#AFAFBD"/>
<path fill-rule="evenodd" clip-rule="evenodd" d="M227.5 213.793L224.672 210.964L223.965 211.671L226.793 214.5L223.965 217.329L224.672 218.036L227.5 215.207L230.329 218.035L231.036 217.328L228.208 214.5L231.036 211.672L230.329 210.965L227.5 213.793Z" fill="#37376D"/>
<path d="M253 124.5C253 116.492 259.492 110 267.5 110H312.5C320.508 110 327 116.492 327 124.5V124.5C327 132.508 320.508 139 312.5 139H267.5C259.492 139 253 132.508 253 124.5V124.5Z" fill="#DDDDE6"/>
<path d="M266.811 123.79C266.811 122.398 267.141 121.192 267.801 120.172C268.461 119.14 269.283 118.384 270.267 117.904C271.251 117.424 272.307 117.184 273.435 117.184C274.731 117.184 275.913 117.466 276.981 118.03V119.542C276.069 118.93 274.971 118.624 273.687 118.624C272.247 118.624 270.999 119.068 269.943 119.956C268.887 120.832 268.353 122.11 268.341 123.79C268.341 124.858 268.611 125.782 269.151 126.562C269.703 127.342 270.375 127.906 271.167 128.254C271.971 128.602 272.829 128.776 273.741 128.776C275.097 128.776 276.207 128.47 277.071 127.858V129.37C275.979 129.934 274.761 130.216 273.417 130.216C272.613 130.216 271.821 130.078 271.041 129.802C270.261 129.514 269.553 129.112 268.917 128.596C268.281 128.068 267.771 127.39 267.387 126.562C267.003 125.722 266.811 124.798 266.811 123.79Z" fill="#37376D"/>
<path d="M280.353 122.8C281.325 121.696 282.489 121.144 283.845 121.144C285.081 121.144 286.107 121.576 286.923 122.44C287.751 123.304 288.165 124.384 288.165 125.68C288.165 126.976 287.751 128.056 286.923 128.92C286.107 129.784 285.081 130.216 283.845 130.216C282.477 130.216 281.361 129.712 280.497 128.704V133.96H279.057V121.36H280.353V122.8ZM285.843 128.002C286.431 127.414 286.725 126.64 286.725 125.68C286.725 124.72 286.431 123.946 285.843 123.358C285.267 122.77 284.547 122.476 283.683 122.476C282.951 122.476 282.303 122.68 281.739 123.088C281.175 123.496 280.761 124 280.497 124.6V126.76C280.761 127.36 281.175 127.864 281.739 128.272C282.303 128.68 282.951 128.884 283.683 128.884C284.547 128.884 285.267 128.59 285.843 128.002Z" fill="#37376D"/>
<path d="M322 124.5C322 130.299 317.299 135 311.5 135C305.701 135 301 130.299 301 124.5C301 118.701 305.701 114 311.5 114C317.299 114 322 118.701 322 124.5Z" fill="#AFAFBD"/>
<path fill-rule="evenodd" clip-rule="evenodd" d="M311.5 123.793L308.672 120.964L307.965 121.671L310.793 124.5L307.965 127.329L308.672 128.036L311.5 125.207L314.329 128.035L315.036 127.328L312.208 124.5L315.036 121.672L314.329 120.965L311.5 123.793Z" fill="#37376D"/>
<path d="M337 124.5C337 116.492 343.492 110 351.5 110H396.5C404.508 110 411 116.492 411 124.5V124.5C411 132.508 404.508 139 396.5 139H351.5C343.492 139 337 132.508 337 124.5V124.5Z" fill="#DDDDE6"/>
<path d="M360.674 130H359.162V125.068C357.914 125.488 356.684 125.698 355.472 125.698C353.996 125.674 352.85 125.302 352.034 124.582C351.23 123.862 350.828 122.806 350.828 121.414V117.4H352.34V121.486C352.34 123.31 353.504 124.234 355.832 124.258C356.972 124.258 358.082 124.048 359.162 123.628V117.4H360.674V130Z" fill="#37376D"/>
<path d="M366.956 130H365.516V122.692H362.33V121.36H370.124V122.692H366.956V130Z" fill="#37376D"/>
<path d="M406 124.5C406 130.299 401.299 135 395.5 135C389.701 135 385 130.299 385 124.5C385 118.701 389.701 114 395.5 114C401.299 114 406 118.701 406 124.5Z" fill="#AFAFBD"/>
<path fill-rule="evenodd" clip-rule="evenodd" d="M395.5 123.793L392.672 120.964L391.965 121.671L394.793 124.5L391.965 127.329L392.672 128.036L395.5 125.207L398.329 128.035L399.036 127.328L396.208 124.5L399.036 121.672L398.329 120.965L395.5 123.793Z" fill="#37376D"/>
<path d="M253 214.5C253 206.492 259.492 200 267.5 200H312.5C320.508 200 327 206.492 327 214.5V214.5C327 222.508 320.508 229 312.5 229H267.5C259.492 229 253 222.508 253 214.5V214.5Z" fill="#DDDDE6"/>
<path d="M269.923 207.76H271.039V218.56H273.325V220H266.953V218.56H269.527V209.362L266.953 210.334V208.894L269.923 207.76Z" fill="#37376D"/>
<path d="M280.861 207.76H282.5V215.878H284.803V217.282H282.5V220H281.005V217.282H274.183V215.932L280.861 207.76ZM281.005 215.878V209.794L276.037 215.878H281.005Z" fill="#37376D"/>
<path d="M322 214.5C322 220.299 317.299 225 311.5 225C305.701 225 301 220.299 301 214.5C301 208.701 305.701 204 311.5 204C317.299 204 322 208.701 322 214.5Z" fill="#AFAFBD"/>
<path fill-rule="evenodd" clip-rule="evenodd" d="M311.5 213.793L308.672 210.964L307.965 211.671L310.793 214.5L307.965 217.329L308.672 218.036L311.5 215.207L314.329 218.035L315.036 217.328L312.208 214.5L315.036 211.672L314.329 210.965L311.5 213.793Z" fill="#37376D"/>
<path d="M337 214.5C337 206.492 343.492 200 351.5 200H396.5C404.508 200 411 206.492 411 214.5V214.5C411 222.508 404.508 229 396.5 229H351.5C343.492 229 337 222.508 337 214.5V214.5Z" fill="#DDDDE6"/>
<path d="M353.923 207.76H355.039V218.56H357.325V220H350.953V218.56H353.527V209.362L350.953 210.334V208.894L353.923 207.76Z" fill="#37376D"/>
<path d="M360.2 213.538C361.364 212.758 362.641 212.368 364.033 212.368C365.149 212.368 366.128 212.71 366.968 213.394C367.808 214.066 368.227 215.002 368.227 216.202C368.227 217.462 367.808 218.446 366.968 219.154C366.14 219.862 365.095 220.216 363.835 220.216C362.107 220.216 360.811 219.682 359.947 218.614C359.095 217.534 358.669 216.022 358.669 214.078C358.669 211.918 359.179 210.292 360.2 209.2C361.232 208.096 362.575 207.544 364.231 207.544C365.299 207.544 366.289 207.778 367.201 208.246V209.686C366.313 209.218 365.336 208.984 364.267 208.984C363.14 208.984 362.197 209.35 361.441 210.082C360.697 210.802 360.284 211.954 360.2 213.538ZM360.217 215.05C360.445 217.558 361.615 218.812 363.727 218.812C364.615 218.812 365.329 218.608 365.87 218.2C366.422 217.792 366.698 217.15 366.698 216.274C366.698 215.386 366.416 214.75 365.852 214.366C365.288 213.97 364.556 213.772 363.656 213.772C362.324 213.772 361.177 214.198 360.217 215.05Z" fill="#37376D"/>
<path d="M406 214.5C406 220.299 401.299 225 395.5 225C389.701 225 385 220.299 385 214.5C385 208.701 389.701 204 395.5 204C401.299 204 406 208.701 406 214.5Z" fill="#AFAFBD"/>
<path fill-rule="evenodd" clip-rule="evenodd" d="M395.5 213.793L392.672 210.964L391.965 211.671L394.793 214.5L391.965 217.329L392.672 218.036L395.5 215.207L398.329 218.035L399.036 217.328L396.208 214.5L399.036 211.672L398.329 210.965L395.5 213.793Z" fill="#37376D"/>
<path d="M463 111C463 108.239 464.555 106 466.474 106H566.526C568.445 106 570 108.239 570 111V130C570 132.761 568.445 135 566.526 135H466.474C464.555 135 463 132.761 463 130V111Z" fill="#E8F7FF"/>
<path d="M462.738 268C462.738 265.239 464.977 263 467.738 263H574.738C577.5 263 579.738 265.239 579.738 268V287C579.738 289.761 577.5 292 574.738 292H467.738C464.977 292 462.738 289.761 462.738 287V268Z" fill="#E8F7FF"/>
<path d="M474.907 283H473.395V270.4H474.907V275.854H477.769L481.567 270.4H483.295L479.011 276.538L483.673 283H481.945L477.823 277.294H474.907V283Z" fill="#37376D"/>
<path d="M485.218 282.01C484.306 281.194 483.85 280.084 483.85 278.68C483.85 277.276 484.306 276.172 485.218 275.368C486.13 274.552 487.21 274.144 488.458 274.144C489.718 274.144 490.798 274.552 491.698 275.368C492.61 276.172 493.066 277.276 493.066 278.68C493.066 280.084 492.61 281.194 491.698 282.01C490.798 282.814 489.718 283.216 488.458 283.216C487.21 283.216 486.13 282.814 485.218 282.01ZM490.726 281.002C491.326 280.426 491.626 279.652 491.626 278.68C491.626 277.708 491.326 276.94 490.726 276.376C490.126 275.8 489.37 275.512 488.458 275.512C487.546 275.512 486.79 275.8 486.19 276.376C485.59 276.94 485.29 277.708 485.29 278.68C485.29 279.652 485.59 280.426 486.19 281.002C486.79 281.566 487.546 281.848 488.458 281.848C489.37 281.848 490.126 281.566 490.726 281.002Z" fill="#37376D"/>
<path d="M496.571 283H495.131V274.36H496.571V278.014H501.575V274.36H503.015V283H501.575V279.346H496.571V283Z" fill="#37376D"/>
<path d="M509.278 283H507.838V275.692H504.652V274.36H512.446V275.692H509.278V283Z" fill="#37376D"/>
<path d="M515.376 275.8C516.348 274.696 517.512 274.144 518.868 274.144C520.104 274.144 521.13 274.576 521.946 275.44C522.774 276.304 523.188 277.384 523.188 278.68C523.188 279.976 522.774 281.056 521.946 281.92C521.13 282.784 520.104 283.216 518.868 283.216C517.5 283.216 516.384 282.712 515.52 281.704V286.96H514.08V274.36H515.376V275.8ZM520.866 281.002C521.454 280.414 521.748 279.64 521.748 278.68C521.748 277.72 521.454 276.946 520.866 276.358C520.29 275.77 519.57 275.476 518.706 275.476C517.974 275.476 517.326 275.68 516.762 276.088C516.198 276.496 515.784 277 515.52 277.6V279.76C515.784 280.36 516.198 280.864 516.762 281.272C517.326 281.68 517.974 281.884 518.706 281.884C519.57 281.884 520.29 281.59 520.866 281.002Z" fill="#37376D"/>
<path d="M532.28 281.2C532.28 281.644 532.502 281.866 532.946 281.866C533.138 281.866 533.36 281.824 533.612 281.74V282.91C533.252 283.042 532.892 283.108 532.532 283.108C531.704 283.108 531.176 282.76 530.948 282.064C530.024 282.832 528.902 283.216 527.582 283.216C526.742 283.216 526.022 282.994 525.422 282.55C524.834 282.094 524.54 281.44 524.54 280.588C524.54 279.568 524.918 278.83 525.674 278.374C526.442 277.906 527.366 277.672 528.446 277.672C529.238 277.672 530.036 277.762 530.84 277.942V277.636C530.84 276.976 530.624 276.454 530.192 276.07C529.76 275.674 529.154 275.476 528.374 275.476C527.282 275.476 526.232 275.692 525.224 276.124V274.72C526.352 274.336 527.45 274.144 528.518 274.144C529.694 274.144 530.612 274.462 531.272 275.098C531.944 275.722 532.28 276.628 532.28 277.816V281.2ZM526.016 280.516C526.016 280.996 526.196 281.362 526.556 281.614C526.928 281.854 527.372 281.974 527.888 281.974C529.076 281.974 530.06 281.554 530.84 280.714V279.13C530.024 278.962 529.292 278.878 528.644 278.878C527.912 278.878 527.288 279.01 526.772 279.274C526.268 279.526 526.016 279.94 526.016 280.516Z" fill="#37376D"/>
<path d="M536.596 283H535.156V274.36H541.474V275.692H536.596V283Z" fill="#37376D"/>
<path d="M542.209 278.68C542.209 277.264 542.641 276.154 543.505 275.35C544.381 274.546 545.383 274.144 546.511 274.144C547.567 274.144 548.437 274.408 549.121 274.936C549.817 275.464 550.273 276.118 550.489 276.898C550.705 277.666 550.717 278.47 550.525 279.31H543.649C543.733 280.162 544.111 280.804 544.783 281.236C545.455 281.668 546.265 281.884 547.213 281.884C548.269 281.884 549.217 281.65 550.057 281.182V282.586C549.253 283.006 548.233 283.216 546.997 283.216C545.629 283.216 544.489 282.826 543.577 282.046C542.665 281.266 542.209 280.144 542.209 278.68ZM549.247 278.05C549.283 277.798 549.265 277.534 549.193 277.258C549.121 276.982 548.989 276.706 548.797 276.43C548.617 276.154 548.335 275.926 547.951 275.746C547.567 275.566 547.117 275.476 546.601 275.476C545.821 275.476 545.143 275.704 544.567 276.16C544.003 276.616 543.697 277.246 543.649 278.05H549.247Z" fill="#37376D"/>
<path d="M554.069 283H552.629V274.36H554.069V278.014H559.073V274.36H560.513V283H559.073V279.346H554.069V283Z" fill="#37376D"/>
<path d="M566.776 283H565.336V275.692H562.15V274.36H569.944V275.692H566.776V283Z" fill="#37376D"/>
<path d="M462.738 150C462.738 147.239 464.977 145 467.738 145H531.738C534.5 145 536.738 147.239 536.738 150V169C536.738 171.761 534.5 174 531.738 174H467.738C464.977 174 462.738 171.761 462.738 169V150Z" fill="#E8F7FF"/>
<path d="M472.549 158.79C472.549 157.398 472.879 156.192 473.539 155.172C474.199 154.14 475.021 153.384 476.005 152.904C476.989 152.424 478.045 152.184 479.173 152.184C480.469 152.184 481.651 152.466 482.719 153.03V154.542C481.807 153.93 480.709 153.624 479.425 153.624C477.985 153.624 476.737 154.068 475.681 154.956C474.625 155.832 474.091 157.11 474.079 158.79C474.079 159.858 474.349 160.782 474.889 161.562C475.441 162.342 476.113 162.906 476.905 163.254C477.709 163.602 478.567 163.776 479.479 163.776C480.835 163.776 481.945 163.47 482.809 162.858V164.37C481.717 164.934 480.499 165.216 479.155 165.216C478.351 165.216 477.559 165.078 476.779 164.802C475.999 164.514 475.291 164.112 474.655 163.596C474.019 163.068 473.509 162.39 473.125 161.562C472.741 160.722 472.549 159.798 472.549 158.79Z" fill="#37376D"/>
<path d="M487.763 165H486.323V157.692H483.137V156.36H490.931V157.692H487.763V165Z" fill="#37376D"/>
<path d="M499.497 163.2C499.497 163.644 499.719 163.866 500.163 163.866C500.355 163.866 500.577 163.824 500.829 163.74V164.91C500.469 165.042 500.109 165.108 499.749 165.108C498.921 165.108 498.393 164.76 498.165 164.064C497.241 164.832 496.119 165.216 494.799 165.216C493.959 165.216 493.239 164.994 492.639 164.55C492.051 164.094 491.757 163.44 491.757 162.588C491.757 161.568 492.135 160.83 492.891 160.374C493.659 159.906 494.583 159.672 495.663 159.672C496.455 159.672 497.253 159.762 498.057 159.942V159.636C498.057 158.976 497.841 158.454 497.409 158.07C496.977 157.674 496.371 157.476 495.591 157.476C494.499 157.476 493.449 157.692 492.441 158.124V156.72C493.569 156.336 494.667 156.144 495.735 156.144C496.911 156.144 497.829 156.462 498.489 157.098C499.161 157.722 499.497 158.628 499.497 159.816V163.2ZM493.233 162.516C493.233 162.996 493.413 163.362 493.773 163.614C494.145 163.854 494.589 163.974 495.105 163.974C496.293 163.974 497.277 163.554 498.057 162.714V161.13C497.241 160.962 496.509 160.878 495.861 160.878C495.129 160.878 494.505 161.01 493.989 161.274C493.485 161.526 493.233 161.94 493.233 162.516Z" fill="#37376D"/>
<path d="M505.569 165H504.129V157.692H500.943V156.36H508.737V157.692H505.569V165Z" fill="#37376D"/>
<path d="M514.008 163.362L516.924 156.36H518.454L514.206 166.296C513.378 168.216 512.292 169.176 510.948 169.176C510.624 169.176 510.312 169.134 510.012 169.05V167.808C510.264 167.88 510.516 167.916 510.768 167.916C511.692 167.916 512.436 167.214 513 165.81L513.324 165.018L509.22 156.36H510.75L514.008 163.362Z" fill="#37376D"/>
<path d="M519.147 160.716C519.147 159.96 519.285 159.282 519.561 158.682C519.837 158.082 520.197 157.602 520.641 157.242C521.097 156.882 521.595 156.612 522.135 156.432C522.687 156.24 523.251 156.144 523.827 156.144C524.895 156.144 525.783 156.378 526.491 156.846V158.25C525.831 157.734 525.003 157.476 524.007 157.476C523.071 157.476 522.267 157.746 521.595 158.286C520.923 158.826 520.587 159.624 520.587 160.68C520.587 161.724 520.917 162.522 521.577 163.074C522.249 163.614 523.047 163.884 523.971 163.884C524.931 163.884 525.801 163.65 526.581 163.182V164.622C525.765 165.018 524.829 165.216 523.773 165.216C522.525 165.216 521.439 164.826 520.515 164.046C519.603 163.266 519.147 162.156 519.147 160.716Z" fill="#37376D"/>
<path d="M462.738 307C462.738 304.239 464.977 302 467.738 302H531.738C534.5 302 536.738 304.239 536.738 307V326C536.738 328.761 534.5 331 531.738 331H467.738C464.977 331 462.738 328.761 462.738 326V307Z" fill="#E8F7FF"/>
<path d="M472.549 315.79C472.549 314.398 472.879 313.192 473.539 312.172C474.199 311.14 475.021 310.384 476.005 309.904C476.989 309.424 478.045 309.184 479.173 309.184C480.469 309.184 481.651 309.466 482.719 310.03V311.542C481.807 310.93 480.709 310.624 479.425 310.624C477.985 310.624 476.737 311.068 475.681 311.956C474.625 312.832 474.091 314.11 474.079 315.79C474.079 316.858 474.349 317.782 474.889 318.562C475.441 319.342 476.113 319.906 476.905 320.254C477.709 320.602 478.567 320.776 479.479 320.776C480.835 320.776 481.945 320.47 482.809 319.858V321.37C481.717 321.934 480.499 322.216 479.155 322.216C478.351 322.216 477.559 322.078 476.779 321.802C475.999 321.514 475.291 321.112 474.655 320.596C474.019 320.068 473.509 319.39 473.125 318.562C472.741 317.722 472.549 316.798 472.549 315.79Z" fill="#37376D"/>
<path d="M487.763 322H486.323V314.692H483.137V313.36H490.931V314.692H487.763V322Z" fill="#37376D"/>
<path d="M499.497 320.2C499.497 320.644 499.719 320.866 500.163 320.866C500.355 320.866 500.577 320.824 500.829 320.74V321.91C500.469 322.042 500.109 322.108 499.749 322.108C498.921 322.108 498.393 321.76 498.165 321.064C497.241 321.832 496.119 322.216 494.799 322.216C493.959 322.216 493.239 321.994 492.639 321.55C492.051 321.094 491.757 320.44 491.757 319.588C491.757 318.568 492.135 317.83 492.891 317.374C493.659 316.906 494.583 316.672 495.663 316.672C496.455 316.672 497.253 316.762 498.057 316.942V316.636C498.057 315.976 497.841 315.454 497.409 315.07C496.977 314.674 496.371 314.476 495.591 314.476C494.499 314.476 493.449 314.692 492.441 315.124V313.72C493.569 313.336 494.667 313.144 495.735 313.144C496.911 313.144 497.829 313.462 498.489 314.098C499.161 314.722 499.497 315.628 499.497 316.816V320.2ZM493.233 319.516C493.233 319.996 493.413 320.362 493.773 320.614C494.145 320.854 494.589 320.974 495.105 320.974C496.293 320.974 497.277 320.554 498.057 319.714V318.13C497.241 317.962 496.509 317.878 495.861 317.878C495.129 317.878 494.505 318.01 493.989 318.274C493.485 318.526 493.233 318.94 493.233 319.516Z" fill="#37376D"/>
<path d="M505.569 322H504.129V314.692H500.943V313.36H508.737V314.692H505.569V322Z" fill="#37376D"/>
<path d="M514.008 320.362L516.924 313.36H518.454L514.206 323.296C513.378 325.216 512.292 326.176 510.948 326.176C510.624 326.176 510.312 326.134 510.012 326.05V324.808C510.264 324.88 510.516 324.916 510.768 324.916C511.692 324.916 512.436 324.214 513 322.81L513.324 322.018L509.22 313.36H510.75L514.008 320.362Z" fill="#37376D"/>
<path d="M519.147 317.716C519.147 316.96 519.285 316.282 519.561 315.682C519.837 315.082 520.197 314.602 520.641 314.242C521.097 313.882 521.595 313.612 522.135 313.432C522.687 313.24 523.251 313.144 523.827 313.144C524.895 313.144 525.783 313.378 526.491 313.846V315.25C525.831 314.734 525.003 314.476 524.007 314.476C523.071 314.476 522.267 314.746 521.595 315.286C520.923 315.826 520.587 316.624 520.587 317.68C520.587 318.724 520.917 319.522 521.577 320.074C522.249 320.614 523.047 320.884 523.971 320.884C524.931 320.884 525.801 320.65 526.581 320.182V321.622C525.765 322.018 524.829 322.216 523.773 322.216C522.525 322.216 521.439 321.826 520.515 321.046C519.603 320.266 519.147 319.156 519.147 317.716Z" fill="#37376D"/>
<path d="M462.738 189C462.738 186.239 464.977 184 467.738 184H511.738C514.5 184 516.738 186.239 516.738 189V208C516.738 210.761 514.5 213 511.738 213H467.738C464.977 213 462.738 210.761 462.738 208V189Z" fill="#FFECD7"/>
<path fill-rule="evenodd" clip-rule="evenodd" d="M447.272 119.565L442.707 115L442 115.707L446.565 120.272L442 124.836L442.707 125.543L447.272 120.979L451.836 125.543L452.543 124.836L447.979 120.272L452.543 115.707L451.836 115L447.272 119.565Z" fill="#F28100"/>
<path fill-rule="evenodd" clip-rule="evenodd" d="M447.272 276.565L442.707 272L442 272.707L446.565 277.272L442 281.836L442.707 282.543L447.272 277.979L451.836 282.543L452.543 281.836L447.979 277.272L452.543 272.707L451.836 272L447.272 276.565Z" fill="#F28100"/>
<path fill-rule="evenodd" clip-rule="evenodd" d="M447.272 158.565L442.707 154L442 154.707L446.565 159.272L442 163.836L442.707 164.543L447.272 159.979L451.836 164.543L452.543 163.836L447.979 159.272L452.543 154.707L451.836 154L447.272 158.565Z" fill="#F28100"/>
<path fill-rule="evenodd" clip-rule="evenodd" d="M447.272 315.565L442.707 311L442 311.707L446.565 316.272L442 320.836L442.707 321.543L447.272 316.979L451.836 321.543L452.543 320.836L447.979 316.272L452.543 311.707L451.836 311L447.272 315.565Z" fill="#F28100"/>
<path fill-rule="evenodd" clip-rule="evenodd" d="M468.01 237.565L463.445 233L462.738 233.707L467.303 238.272L462.738 242.836L463.445 243.543L468.01 238.979L472.574 243.543L473.281 242.836L468.717 238.272L473.281 233.707L472.574 233L468.01 237.565Z" fill="#F28100"/>
<path fill-rule="evenodd" clip-rule="evenodd" d="M447.272 197.565L442.707 193L442 193.707L446.565 198.272L442 202.836L442.707 203.543L447.272 198.979L451.836 203.543L452.543 202.836L447.979 198.272L452.543 193.707L451.836 193L447.272 197.565Z" fill="#F28100"/>
<path d="M88.782 97.97V95H98.808V97.97H100.248V93.56H98.664V82.4H90.924C90.924 86.27 90.492 90.626 88.872 93.56H87.342V97.97H88.782ZM92.472 83.84H97.152V93.56H90.564C91.824 91.076 92.274 87.242 92.472 83.84ZM103.465 95V91.346H108.469V95H109.909V86.36H108.469V90.014H103.465V86.36H102.025V95H103.465ZM114.352 95H112.77V85.3496H114.352V95ZM112.646 82.7393C112.646 82.3877 112.734 82.1328 112.91 81.9746C113.092 81.8164 113.314 81.7373 113.578 81.7373C113.824 81.7373 114.038 81.8164 114.22 81.9746C114.407 82.1328 114.501 82.3877 114.501 82.7393C114.501 83.085 114.407 83.3398 114.22 83.5039C114.038 83.668 113.824 83.75 113.578 83.75C113.314 83.75 113.092 83.668 112.91 83.5039C112.734 83.3398 112.646 83.085 112.646 82.7393ZM125.295 95V87.692H128.463V86.36H120.669V87.692H123.855V95H125.295ZM131.322 95L136.614 88.682V95H138.054V86.36H136.83L131.538 92.678V86.36H130.098V95H131.322ZM152.829 95L149.391 90.662L152.433 86.36H150.831L148.203 90.05H146.889V86.36H145.449V90.05H144.135L141.507 86.36H139.905L142.947 90.662L139.509 95H141.129L144.063 91.382H145.449V95H146.889V91.382H148.275L151.209 95H152.829ZM155.725 95V91.346H160.729V95H162.169V86.36H160.729V90.014H155.725V86.36H154.285V95H155.725ZM165.696 95L168.054 91.976H170.484V95H171.924V86.36H167.676C165.57 86.36 164.436 87.656 164.436 89.168C164.436 90.374 165.156 91.436 166.506 91.832L164.004 95H165.696ZM165.876 89.168C165.876 88.214 166.596 87.656 167.802 87.656H170.484V90.68H167.802C166.596 90.68 165.876 90.122 165.876 89.168Z" fill="#37376D"/>
<path d="M474.656 113.4V126H479.966C481.802 126 484.61 125.406 484.61 122.544C484.61 120.492 483.134 119.664 482.09 119.376C483.08 119.088 484.106 118.188 484.106 116.586C484.106 114.462 482.396 113.4 479.822 113.4H474.656ZM483.08 122.382C483.08 124.452 481.244 124.56 479.66 124.56H476.168V120.204H480.074C481.28 120.204 483.08 120.42 483.08 122.382ZM482.576 116.802C482.576 118.242 481.424 118.764 480.11 118.764H476.168V114.84H479.696C481.478 114.84 482.576 115.308 482.576 116.802ZM487.913 126L493.205 119.682V126H494.645V117.36H493.421L488.129 123.678V117.36H486.689V126H487.913ZM498.603 118.8V117.36H497.307V129.96H498.747V124.704C499.377 125.442 500.439 126.216 502.095 126.216C504.561 126.216 506.415 124.272 506.415 121.68C506.415 119.088 504.561 117.144 502.095 117.144C500.439 117.144 499.377 117.918 498.603 118.8ZM504.975 121.68C504.975 123.66 503.607 124.884 501.933 124.884C500.385 124.884 499.233 123.876 498.747 122.76V120.6C499.233 119.484 500.385 118.476 501.933 118.476C503.607 118.476 504.975 119.7 504.975 121.68ZM507.892 121.68C507.892 124.632 510.16 126.216 512.5 126.216C514.858 126.216 517.108 124.632 517.108 121.68C517.108 118.728 514.858 117.144 512.5 117.144C510.16 117.144 507.892 118.728 507.892 121.68ZM515.668 121.68C515.668 123.678 514.264 124.848 512.5 124.848C510.736 124.848 509.332 123.678 509.332 121.68C509.332 119.682 510.736 118.512 512.5 118.512C514.264 118.512 515.668 119.682 515.668 121.68ZM527.616 121.932C527.616 119.358 525.618 117.72 523.368 117.72C522.018 117.72 520.794 118.386 520.182 119.34C520.542 118.242 521.028 117.072 522.234 116.352C524.214 115.2 525.6 115.578 526.842 114.696V113.184C525.582 114.408 523.872 113.76 521.388 115.29C519.84 116.262 518.724 118.26 518.724 121.158C518.724 124.434 520.596 126.216 523.206 126.216C525.816 126.216 527.616 124.632 527.616 121.932ZM520.164 121.968C520.164 120.51 521.37 119.088 523.17 119.088C525.06 119.088 526.176 120.33 526.176 121.968C526.176 123.606 525.06 124.848 523.17 124.848C521.352 124.848 520.164 123.606 520.164 121.968ZM531.143 126V122.346H536.147V126H537.587V117.36H536.147V121.014H531.143V117.36H529.703V126H531.143ZM541.474 126L546.766 119.682V126H548.206V117.36H546.982L541.69 123.678V117.36H540.25V126H541.474ZM552.307 126V122.292H553.999L557.167 126H558.859L555.187 121.662L558.463 117.36H556.789L554.053 120.96H552.307V117.36H550.867V126H552.307Z" fill="#37376D"/>
<path d="M484 228C484 225.239 485.439 223 487.214 223H579.786C581.561 223 583 225.239 583 228V247C583 249.761 581.561 252 579.786 252H487.214C485.439 252 484 249.761 484 247V228Z" fill="#E8F7FF"/>
<path d="M497.168 243V231.84H503.936V230.4H495.656V243H497.168ZM505.013 235.8V234.36H503.717V246.96H505.157V241.704C505.787 242.442 506.849 243.216 508.505 243.216C510.971 243.216 512.825 241.272 512.825 238.68C512.825 236.088 510.971 234.144 508.505 234.144C506.849 234.144 505.787 234.918 505.013 235.8ZM511.385 238.68C511.385 240.66 510.017 241.884 508.343 241.884C506.795 241.884 505.643 240.876 505.157 239.76V237.6C505.643 236.484 506.795 235.476 508.343 235.476C510.017 235.476 511.385 236.7 511.385 238.68ZM518.234 241.362L514.976 234.36H513.446L517.55 243.018L517.226 243.81C516.668 245.214 515.966 245.916 514.994 245.916C514.742 245.916 514.49 245.88 514.238 245.808V247.05C514.562 247.14 514.868 247.176 515.174 247.176C516.434 247.176 517.532 246.384 518.432 244.296L522.68 234.36H521.15L518.234 241.362ZM525.723 243V235.692H530.727V243H532.167V234.36H524.283V243H525.723ZM541.85 241.2V237.816C541.85 235.404 540.392 234.144 538.088 234.144C536.666 234.144 535.478 234.486 534.794 234.72V236.124C535.55 235.8 536.612 235.476 537.944 235.476C539.528 235.476 540.41 236.34 540.41 237.636V237.942C539.69 237.78 538.772 237.672 538.016 237.672C536.162 237.672 534.11 238.356 534.11 240.588C534.11 242.406 535.622 243.216 537.152 243.216C538.556 243.216 539.654 242.784 540.518 242.064C540.77 242.82 541.4 243.108 542.102 243.108C542.462 243.108 542.84 243.036 543.182 242.91V241.74C542.966 241.812 542.732 241.866 542.516 241.866C542.138 241.866 541.85 241.722 541.85 241.2ZM535.586 240.516C535.586 239.256 536.954 238.878 538.214 238.878C538.916 238.878 539.798 239.004 540.41 239.13V240.714C539.654 241.524 538.556 241.974 537.458 241.974C536.504 241.974 535.586 241.524 535.586 240.516ZM558.101 245.34V241.668H556.823V234.36H555.383V241.668H550.649V234.36H549.209V243H556.697V245.34H558.101ZM561.799 243H560.217V233.35H561.799V243ZM560.094 230.739C560.094 230.388 560.182 230.133 560.357 229.975C560.539 229.816 560.762 229.737 561.025 229.737C561.271 229.737 561.485 229.816 561.667 229.975C561.854 230.133 561.948 230.388 561.948 230.739C561.948 231.085 561.854 231.34 561.667 231.504C561.485 231.668 561.271 231.75 561.025 231.75C560.762 231.75 560.539 231.668 560.357 231.504C560.182 231.34 560.094 231.085 560.094 230.739ZM566.1 243V239.346H571.104V243H572.544V234.36H571.104V238.014H566.1V234.36H564.66V243H566.1Z" fill="#37376D"/>
<path d="M474.764 204L476.06 200.958H482.846L484.142 204H485.762L480.29 191.4H478.616L473.126 204H474.764ZM479.246 193.434C479.318 193.272 479.372 193.128 479.444 192.948C479.516 193.128 479.57 193.272 479.642 193.434L482.252 199.554H476.654L479.246 193.434ZM495.413 199.932C495.413 197.358 493.415 195.72 491.165 195.72C489.815 195.72 488.591 196.386 487.979 197.34C488.339 196.242 488.825 195.072 490.031 194.352C492.011 193.2 493.397 193.578 494.639 192.696V191.184C493.379 192.408 491.669 191.76 489.185 193.29C487.637 194.262 486.521 196.26 486.521 199.158C486.521 202.434 488.393 204.216 491.003 204.216C493.613 204.216 495.413 202.632 495.413 199.932ZM487.961 199.968C487.961 198.51 489.167 197.088 490.967 197.088C492.857 197.088 493.973 198.33 493.973 199.968C493.973 201.606 492.857 202.848 490.967 202.848C489.149 202.848 487.961 201.606 487.961 199.968ZM496.906 199.68C496.906 202.632 499.174 204.216 501.514 204.216C503.872 204.216 506.122 202.632 506.122 199.68C506.122 196.728 503.872 195.144 501.514 195.144C499.174 195.144 496.906 196.728 496.906 199.68ZM504.682 199.68C504.682 201.678 503.278 202.848 501.514 202.848C499.75 202.848 498.346 201.678 498.346 199.68C498.346 197.682 499.75 196.512 501.514 196.512C503.278 196.512 504.682 197.682 504.682 199.68Z" fill="#37376D"/>
<path d="M547 150C547 147.239 550.086 145 553.892 145H642.108C645.914 145 649 147.239 649 150V169C649 171.761 645.914 174 642.108 174H553.892C550.086 174 547 171.761 547 169V150Z" fill="#ECFFDE"/>
<path d="M556.782 167.97V165H566.808V167.97H568.248V163.56H566.664V152.4H558.924C558.924 156.27 558.492 160.626 556.872 163.56H555.342V167.97H556.782ZM560.472 153.84H565.152V163.56H558.564C559.824 161.076 560.274 157.242 560.472 153.84ZM569.273 160.68C569.273 163.632 571.541 165.216 573.881 165.216C576.239 165.216 578.489 163.632 578.489 160.68C578.489 157.728 576.239 156.144 573.881 156.144C571.541 156.144 569.273 157.728 569.273 160.68ZM577.049 160.68C577.049 162.678 575.645 163.848 573.881 163.848C572.117 163.848 570.713 162.678 570.713 160.68C570.713 158.682 572.117 157.512 573.881 157.512C575.645 157.512 577.049 158.682 577.049 160.68ZM581.851 157.8V156.36H580.555V168.96H581.995V163.704C582.625 164.442 583.687 165.216 585.343 165.216C587.809 165.216 589.663 163.272 589.663 160.68C589.663 158.088 587.809 156.144 585.343 156.144C583.687 156.144 582.625 156.918 581.851 157.8ZM588.223 160.68C588.223 162.66 586.855 163.884 585.181 163.884C583.633 163.884 582.481 162.876 581.995 161.76V159.6C582.481 158.484 583.633 157.476 585.181 157.476C586.855 157.476 588.223 158.7 588.223 160.68ZM593.514 165H591.932V155.35H593.514V165ZM591.809 152.739C591.809 152.388 591.896 152.133 592.072 151.975C592.254 151.816 592.477 151.737 592.74 151.737C592.986 151.737 593.2 151.816 593.382 151.975C593.569 152.133 593.663 152.388 593.663 152.739C593.663 153.085 593.569 153.34 593.382 153.504C593.2 153.668 592.986 153.75 592.74 153.75C592.477 153.75 592.254 153.668 592.072 153.504C591.896 153.34 591.809 153.085 591.809 152.739ZM601.253 165C603.125 165 604.043 164.028 604.043 162.606C604.043 161.526 603.323 160.842 602.621 160.608C603.269 160.32 603.773 159.6 603.773 158.7C603.773 157.17 602.621 156.36 601.109 156.36H596.375V165H601.253ZM597.815 161.256H601.109C601.829 161.256 602.603 161.49 602.603 162.516C602.603 163.47 601.955 163.74 601.055 163.74H597.815V161.256ZM597.815 157.62H600.965C601.577 157.62 602.315 157.872 602.315 158.844C602.315 159.726 601.721 160.014 600.965 160.014H597.815V157.62ZM607.676 165V161.346H612.68V165H614.12V156.36H612.68V160.014H607.676V156.36H606.236V165H607.676ZM629.527 160.68C629.527 157.728 627.277 156.144 624.919 156.144C622.759 156.144 620.653 157.512 620.347 160.014H618.223V156.36H616.783V165H618.223V161.346H620.347C620.653 163.848 622.759 165.216 624.919 165.216C627.277 165.216 629.527 163.632 629.527 160.68ZM621.751 160.68C621.751 158.682 623.155 157.512 624.919 157.512C626.683 157.512 628.087 158.682 628.087 160.68C628.087 162.678 626.683 163.848 624.919 163.848C623.155 163.848 621.751 162.678 621.751 160.68ZM635.851 165.176C634.386 165.176 633.255 164.754 632.458 163.91C631.661 163.061 631.263 161.833 631.263 160.228C631.263 158.593 631.664 157.342 632.467 156.475C633.275 155.607 634.421 155.174 635.903 155.174C636.396 155.174 636.876 155.224 637.345 155.323C637.813 155.417 638.221 155.54 638.566 155.692L638.101 156.993C637.298 156.688 636.554 156.536 635.868 156.536C634.942 156.536 634.239 156.771 633.759 157.239C633.284 157.708 632.997 158.423 632.897 159.384H637.635V160.676H632.88C632.933 161.754 633.199 162.551 633.68 163.066C634.16 163.576 634.872 163.831 635.815 163.831C636.36 163.831 636.841 163.778 637.257 163.673C637.673 163.562 638.062 163.433 638.426 163.286V164.657C637.723 165.003 636.864 165.176 635.851 165.176Z" fill="#37376D"/>
<path d="M547 307C547 304.239 550.086 302 553.892 302H642.108C645.914 302 649 304.239 649 307V326C649 328.761 645.914 331 642.108 331H553.892C550.086 331 547 328.761 547 326V307Z" fill="#ECFFDE"/>
<path d="M556.782 324.97V322H566.808V324.97H568.248V320.56H566.664V309.4H558.924C558.924 313.27 558.492 317.626 556.872 320.56H555.342V324.97H556.782ZM560.472 310.84H565.152V320.56H558.564C559.824 318.076 560.274 314.242 560.472 310.84ZM569.273 317.68C569.273 320.632 571.541 322.216 573.881 322.216C576.239 322.216 578.489 320.632 578.489 317.68C578.489 314.728 576.239 313.144 573.881 313.144C571.541 313.144 569.273 314.728 569.273 317.68ZM577.049 317.68C577.049 319.678 575.645 320.848 573.881 320.848C572.117 320.848 570.713 319.678 570.713 317.68C570.713 315.682 572.117 314.512 573.881 314.512C575.645 314.512 577.049 315.682 577.049 317.68ZM581.851 314.8V313.36H580.555V325.96H581.995V320.704C582.625 321.442 583.687 322.216 585.343 322.216C587.809 322.216 589.663 320.272 589.663 317.68C589.663 315.088 587.809 313.144 585.343 313.144C583.687 313.144 582.625 313.918 581.851 314.8ZM588.223 317.68C588.223 319.66 586.855 320.884 585.181 320.884C583.633 320.884 582.481 319.876 581.995 318.76V316.6C582.481 315.484 583.633 314.476 585.181 314.476C586.855 314.476 588.223 315.7 588.223 317.68ZM593.514 322H591.932V312.35H593.514V322ZM591.809 309.739C591.809 309.388 591.896 309.133 592.072 308.975C592.254 308.816 592.477 308.737 592.74 308.737C592.986 308.737 593.2 308.816 593.382 308.975C593.569 309.133 593.663 309.388 593.663 309.739C593.663 310.085 593.569 310.34 593.382 310.504C593.2 310.668 592.986 310.75 592.74 310.75C592.477 310.75 592.254 310.668 592.072 310.504C591.896 310.34 591.809 310.085 591.809 309.739ZM601.253 322C603.125 322 604.043 321.028 604.043 319.606C604.043 318.526 603.323 317.842 602.621 317.608C603.269 317.32 603.773 316.6 603.773 315.7C603.773 314.17 602.621 313.36 601.109 313.36H596.375V322H601.253ZM597.815 318.256H601.109C601.829 318.256 602.603 318.49 602.603 319.516C602.603 320.47 601.955 320.74 601.055 320.74H597.815V318.256ZM597.815 314.62H600.965C601.577 314.62 602.315 314.872 602.315 315.844C602.315 316.726 601.721 317.014 600.965 317.014H597.815V314.62ZM607.676 322V318.346H612.68V322H614.12V313.36H612.68V317.014H607.676V313.36H606.236V322H607.676ZM629.527 317.68C629.527 314.728 627.277 313.144 624.919 313.144C622.759 313.144 620.653 314.512 620.347 317.014H618.223V313.36H616.783V322H618.223V318.346H620.347C620.653 320.848 622.759 322.216 624.919 322.216C627.277 322.216 629.527 320.632 629.527 317.68ZM621.751 317.68C621.751 315.682 623.155 314.512 624.919 314.512C626.683 314.512 628.087 315.682 628.087 317.68C628.087 319.678 626.683 320.848 624.919 320.848C623.155 320.848 621.751 319.678 621.751 317.68ZM635.851 322.176C634.386 322.176 633.255 321.754 632.458 320.91C631.661 320.061 631.263 318.833 631.263 317.228C631.263 315.593 631.664 314.342 632.467 313.475C633.275 312.607 634.421 312.174 635.903 312.174C636.396 312.174 636.876 312.224 637.345 312.323C637.813 312.417 638.221 312.54 638.566 312.692L638.101 313.993C637.298 313.688 636.554 313.536 635.868 313.536C634.942 313.536 634.239 313.771 633.759 314.239C633.284 314.708 632.997 315.423 632.897 316.384H637.635V317.676H632.88C632.933 318.754 633.199 319.551 633.68 320.066C634.16 320.576 634.872 320.831 635.815 320.831C636.36 320.831 636.841 320.778 637.257 320.673C637.673 320.562 638.062 320.433 638.426 320.286V321.657C637.723 322.003 636.864 322.176 635.851 322.176Z" fill="#37376D"/>
<path d="M89.168 186V174.84H95.936V173.4H87.656V186H89.168ZM93.9978 181.68C93.9978 184.632 96.2658 186.216 98.6058 186.216C100.964 186.216 103.214 184.632 103.214 181.68C103.214 178.728 100.964 177.144 98.6058 177.144C96.2658 177.144 93.9978 178.728 93.9978 181.68ZM101.774 181.68C101.774 183.678 100.37 184.848 98.6058 184.848C96.8418 184.848 95.4378 183.678 95.4378 181.68C95.4378 179.682 96.8418 178.512 98.6058 178.512C100.37 178.512 101.774 179.682 101.774 181.68ZM105.591 188.34V186H113.115V188.34H114.519V184.704H113.259V177.36H106.815C106.851 180.582 106.419 182.796 105.339 184.704H104.187V188.34H105.591ZM108.201 178.656H111.819V184.704H106.905C107.697 183.048 108.129 181.248 108.201 178.656ZM117.665 186L122.957 179.682V186H124.397V177.36H123.173L117.881 183.678V177.36H116.441V186H117.665ZM128.499 186V182.346H133.503V186H134.943V177.36H133.503V181.014H128.499V177.36H127.059V186H128.499ZM138.829 186L144.121 179.682V186H145.561V177.36H144.337L139.045 183.678V177.36H137.605V186H138.829Z" fill="#37376D"/>
<path d="M87.836 277L91.814 271.726L95.774 277H97.574L92.714 270.52L97.304 264.4H95.504L91.814 269.314L88.106 264.4H86.306L90.914 270.52L86.036 277H87.836ZM103.724 277C105.596 277 106.514 276.028 106.514 274.606C106.514 273.526 105.794 272.842 105.092 272.608C105.74 272.32 106.244 271.6 106.244 270.7C106.244 269.17 105.092 268.36 103.58 268.36H98.8457V277H103.724ZM100.286 273.256H103.58C104.3 273.256 105.074 273.49 105.074 274.516C105.074 275.47 104.426 275.74 103.526 275.74H100.286V273.256ZM100.286 269.62H103.436C104.048 269.62 104.786 269.872 104.786 270.844C104.786 271.726 104.192 272.014 103.436 272.014H100.286V269.62ZM109.931 277L115.223 270.682V277H116.663V268.36H115.439L110.147 274.678V268.36H108.707V277H109.931ZM122.384 269.692H125.894V277H127.334V268.36H120.98C120.818 273.004 120.314 275.92 118.784 275.92C118.604 275.92 118.406 275.884 118.208 275.812V276.946C118.586 277.09 118.928 277.144 119.252 277.144C121.484 277.144 122.096 274.12 122.384 269.692ZM131.218 277L136.51 270.682V277H137.95V268.36H136.726L131.434 274.678V268.36H129.994V277H131.218ZM142.051 277V273.346H147.055V277H148.495V268.36H147.055V272.014H142.051V268.36H140.611V277H142.051ZM152.382 277L157.674 270.682V277H159.114V268.36H157.89L152.598 274.678V268.36H151.158V277H152.382Z" fill="#37376D"/>
<defs>
<filter id="filter0_d_1713_424" x="0" y="0" width="719" height="423" filterUnits="userSpaceOnUse" color-interpolation-filters="sRGB">
<feFlood flood-opacity="0" result="BackgroundImageFix"/>
<feColorMatrix in="SourceAlpha" type="matrix" values="0 0 0 0 0 0 0 0 0 0 0 0 0 0 0 0 0 0 127 0" result="hardAlpha"/>
<feOffset dy="4"/>
<feGaussianBlur stdDeviation="25"/>
<feComposite in2="hardAlpha" operator="out"/>
<feColorMatrix type="matrix" values="0 0 0 0 0 0 0 0 0 0 0 0 0 0 0 0 0 0 0.1 0"/>
<feBlend mode="normal" in2="BackgroundImageFix" result="effect1_dropShadow_1713_424"/>
<feBlend mode="normal" in="SourceGraphic" in2="effect1_dropShadow_1713_424" result="shape"/>
</filter>
</defs>
</svg>
