<svg width="626" height="323" viewBox="0 0 626 323" fill="none" xmlns="http://www.w3.org/2000/svg">
<rect width="626" height="323" rx="20" fill="white"/>
<g clip-path="url(#clip0_1720_2684)">
<g clip-path="url(#clip1_1720_2684)">
<rect x="31" y="27" width="176" height="48" fill="#F9F9FB"/>
<path d="M50.032 57V46.776L50.432 47.192H46.208V45.8H55.44V47.192H51.216L51.6 46.776V57H50.032ZM59.8856 57.096C59.0323 57.096 58.275 56.9093 57.6136 56.536C56.9523 56.1627 56.4296 55.6507 56.0456 55C55.6616 54.3387 55.4696 53.592 55.4696 52.76C55.4696 51.9173 55.6616 51.1707 56.0456 50.52C56.4296 49.8693 56.9523 49.3627 57.6136 49C58.275 48.6267 59.0323 48.44 59.8856 48.44C60.7283 48.44 61.4803 48.6267 62.1416 49C62.8136 49.3627 63.3363 49.8693 63.7096 50.52C64.0936 51.16 64.2856 51.9067 64.2856 52.76C64.2856 53.6027 64.0936 54.3493 63.7096 55C63.3363 55.6507 62.8136 56.1627 62.1416 56.536C61.4803 56.9093 60.7283 57.096 59.8856 57.096ZM59.8856 55.752C60.4296 55.752 60.915 55.6293 61.3416 55.384C61.779 55.1387 62.1203 54.792 62.3656 54.344C62.611 53.8853 62.7336 53.3573 62.7336 52.76C62.7336 52.152 62.611 51.6293 62.3656 51.192C62.1203 50.744 61.779 50.3973 61.3416 50.152C60.915 49.9067 60.4296 49.784 59.8856 49.784C59.3416 49.784 58.8563 49.9067 58.4296 50.152C58.003 50.3973 57.6616 50.744 57.4056 51.192C57.1496 51.6293 57.0216 52.152 57.0216 52.76C57.0216 53.3573 57.1496 53.8853 57.4056 54.344C57.6616 54.792 58.003 55.1387 58.4296 55.384C58.8563 55.6293 59.3416 55.752 59.8856 55.752ZM66.5036 57V48.52H70.4396C71.4316 48.52 72.2103 48.712 72.7756 49.096C73.3516 49.4693 73.6396 50.0027 73.6396 50.696C73.6396 51.3893 73.3676 51.928 72.8236 52.312C72.2903 52.6853 71.581 52.872 70.6956 52.872L70.9356 52.456C71.949 52.456 72.701 52.6427 73.1916 53.016C73.6823 53.3893 73.9276 53.9387 73.9276 54.664C73.9276 55.4 73.6503 55.976 73.0956 56.392C72.5516 56.7973 71.7143 57 70.5836 57H66.5036ZM68.0076 55.816H70.4716C71.1116 55.816 71.5916 55.72 71.9116 55.528C72.2316 55.3253 72.3916 55.0053 72.3916 54.568C72.3916 54.12 72.2423 53.7947 71.9436 53.592C71.6556 53.3787 71.197 53.272 70.5676 53.272H68.0076V55.816ZM68.0076 52.168H70.3116C70.8983 52.168 71.341 52.0613 71.6396 51.848C71.949 51.624 72.1036 51.3147 72.1036 50.92C72.1036 50.5147 71.949 50.2107 71.6396 50.008C71.341 49.8053 70.8983 49.704 70.3116 49.704H68.0076V52.168ZM81.5318 57V55.208L81.4518 54.872V51.816C81.4518 51.1653 81.2598 50.664 80.8758 50.312C80.5024 49.9493 79.9371 49.768 79.1798 49.768C78.6784 49.768 78.1878 49.8533 77.7078 50.024C77.2278 50.184 76.8224 50.4027 76.4918 50.68L75.8518 49.528C76.2891 49.176 76.8118 48.9093 77.4198 48.728C78.0384 48.536 78.6838 48.44 79.3558 48.44C80.5184 48.44 81.4144 48.7227 82.0438 49.288C82.6731 49.8533 82.9878 50.7173 82.9878 51.88V57H81.5318ZM78.7478 57.096C78.1184 57.096 77.5638 56.9893 77.0838 56.776C76.6144 56.5627 76.2518 56.2693 75.9958 55.896C75.7398 55.512 75.6118 55.08 75.6118 54.6C75.6118 54.1413 75.7184 53.7253 75.9318 53.352C76.1558 52.9787 76.5131 52.68 77.0038 52.456C77.5051 52.232 78.1771 52.12 79.0198 52.12H81.7078V53.224H79.0838C78.3158 53.224 77.7984 53.352 77.5318 53.608C77.2651 53.864 77.1318 54.1733 77.1318 54.536C77.1318 54.952 77.2971 55.288 77.6278 55.544C77.9584 55.7893 78.4171 55.912 79.0038 55.912C79.5798 55.912 80.0811 55.784 80.5078 55.528C80.9451 55.272 81.2598 54.8987 81.4518 54.408L81.7558 55.464C81.5531 55.9653 81.1958 56.3653 80.6838 56.664C80.1718 56.952 79.5264 57.096 78.7478 57.096ZM90.2496 57.096C89.5456 57.096 88.9003 56.936 88.3136 56.616C87.7376 56.2853 87.2736 55.8 86.9216 55.16C86.5803 54.52 86.4096 53.72 86.4096 52.76C86.4096 51.8 86.575 51 86.9056 50.36C87.247 49.72 87.7056 49.24 88.2816 48.92C88.8683 48.6 89.5243 48.44 90.2496 48.44C91.0816 48.44 91.8176 48.6213 92.4576 48.984C93.0976 49.3467 93.6043 49.8533 93.9776 50.504C94.351 51.144 94.5376 51.896 94.5376 52.76C94.5376 53.624 94.351 54.3813 93.9776 55.032C93.6043 55.6827 93.0976 56.1893 92.4576 56.552C91.8176 56.9147 91.0816 57.096 90.2496 57.096ZM85.7536 60.104V48.52H87.2256V50.808L87.1296 52.776L87.2896 54.744V60.104H85.7536ZM90.1216 55.752C90.6656 55.752 91.151 55.6293 91.5776 55.384C92.015 55.1387 92.3563 54.792 92.6016 54.344C92.8576 53.8853 92.9856 53.3573 92.9856 52.76C92.9856 52.152 92.8576 51.6293 92.6016 51.192C92.3563 50.744 92.015 50.3973 91.5776 50.152C91.151 49.9067 90.6656 49.784 90.1216 49.784C89.5883 49.784 89.103 49.9067 88.6656 50.152C88.239 50.3973 87.8976 50.744 87.6416 51.192C87.3963 51.6293 87.2736 52.152 87.2736 52.76C87.2736 53.3573 87.3963 53.8853 87.6416 54.344C87.8976 54.792 88.239 55.1387 88.6656 55.384C89.103 55.6293 89.5883 55.752 90.1216 55.752ZM96.7693 57V48.52H98.3053V54.696L103.505 48.52H104.897V57H103.361V50.824L98.1773 57H96.7693Z" fill="#454545"/>
<rect x="31" y="27" width="176" height="48" stroke="#DDDDE6" stroke-width="2"/>
<rect x="207" y="27" width="146.5" height="48" fill="#F9F9FB"/>
<path d="M255.762 55.784L256.322 54.6C256.813 54.984 257.351 55.272 257.938 55.464C258.535 55.656 259.127 55.7573 259.714 55.768C260.301 55.768 260.839 55.688 261.33 55.528C261.831 55.368 262.231 55.128 262.53 54.808C262.829 54.488 262.978 54.0933 262.978 53.624C262.978 53.048 262.743 52.6107 262.274 52.312C261.815 52.0133 261.175 51.864 260.354 51.864H257.858V50.568H260.242C260.957 50.568 261.511 50.424 261.906 50.136C262.311 49.8373 262.514 49.4267 262.514 48.904C262.514 48.5093 262.391 48.1787 262.146 47.912C261.911 47.6347 261.586 47.4267 261.17 47.288C260.765 47.1493 260.301 47.08 259.778 47.08C259.266 47.0693 258.738 47.1387 258.194 47.288C257.65 47.4267 257.127 47.6507 256.626 47.96L256.114 46.648C256.797 46.264 257.506 45.9973 258.242 45.848C258.989 45.688 259.709 45.64 260.402 45.704C261.095 45.7573 261.719 45.9173 262.274 46.184C262.839 46.44 263.287 46.7813 263.618 47.208C263.959 47.624 264.13 48.1253 264.13 48.712C264.13 49.2453 263.991 49.72 263.714 50.136C263.437 50.5413 263.053 50.856 262.562 51.08C262.071 51.2933 261.501 51.4 260.85 51.4L260.914 50.968C261.661 50.968 262.306 51.0907 262.85 51.336C263.405 51.5707 263.831 51.9067 264.13 52.344C264.439 52.7813 264.594 53.288 264.594 53.864C264.594 54.408 264.455 54.8933 264.178 55.32C263.901 55.736 263.522 56.088 263.042 56.376C262.573 56.6533 262.034 56.856 261.426 56.984C260.829 57.112 260.199 57.1547 259.538 57.112C258.877 57.0693 258.221 56.9413 257.57 56.728C256.93 56.5147 256.327 56.2 255.762 55.784ZM272.204 57V55.208L272.124 54.872V51.816C272.124 51.1653 271.932 50.664 271.548 50.312C271.174 49.9493 270.609 49.768 269.852 49.768C269.35 49.768 268.86 49.8533 268.38 50.024C267.9 50.184 267.494 50.4027 267.164 50.68L266.524 49.528C266.961 49.176 267.484 48.9093 268.092 48.728C268.71 48.536 269.356 48.44 270.028 48.44C271.19 48.44 272.086 48.7227 272.716 49.288C273.345 49.8533 273.66 50.7173 273.66 51.88V57H272.204ZM269.42 57.096C268.79 57.096 268.236 56.9893 267.756 56.776C267.286 56.5627 266.924 56.2693 266.668 55.896C266.412 55.512 266.284 55.08 266.284 54.6C266.284 54.1413 266.39 53.7253 266.604 53.352C266.828 52.9787 267.185 52.68 267.676 52.456C268.177 52.232 268.849 52.12 269.692 52.12H272.38V53.224H269.756C268.988 53.224 268.47 53.352 268.204 53.608C267.937 53.864 267.804 54.1733 267.804 54.536C267.804 54.952 267.969 55.288 268.3 55.544C268.63 55.7893 269.089 55.912 269.676 55.912C270.252 55.912 270.753 55.784 271.18 55.528C271.617 55.272 271.932 54.8987 272.124 54.408L272.428 55.464C272.225 55.9653 271.868 56.3653 271.356 56.664C270.844 56.952 270.198 57.096 269.42 57.096ZM276.426 57V48.52H284.282V57H282.746V49.48L283.114 49.864H277.594L277.962 49.48V57H276.426ZM292.454 57V55.208L292.374 54.872V51.816C292.374 51.1653 292.182 50.664 291.798 50.312C291.424 49.9493 290.859 49.768 290.102 49.768C289.6 49.768 289.11 49.8533 288.63 50.024C288.15 50.184 287.744 50.4027 287.414 50.68L286.774 49.528C287.211 49.176 287.734 48.9093 288.342 48.728C288.96 48.536 289.606 48.44 290.278 48.44C291.44 48.44 292.336 48.7227 292.966 49.288C293.595 49.8533 293.91 50.7173 293.91 51.88V57H292.454ZM289.67 57.096C289.04 57.096 288.486 56.9893 288.006 56.776C287.536 56.5627 287.174 56.2693 286.918 55.896C286.662 55.512 286.534 55.08 286.534 54.6C286.534 54.1413 286.64 53.7253 286.854 53.352C287.078 52.9787 287.435 52.68 287.926 52.456C288.427 52.232 289.099 52.12 289.942 52.12H292.63V53.224H290.006C289.238 53.224 288.72 53.352 288.454 53.608C288.187 53.864 288.054 54.1733 288.054 54.536C288.054 54.952 288.219 55.288 288.55 55.544C288.88 55.7893 289.339 55.912 289.926 55.912C290.502 55.912 291.003 55.784 291.43 55.528C291.867 55.272 292.182 54.8987 292.374 54.408L292.678 55.464C292.475 55.9653 292.118 56.3653 291.606 56.664C291.094 56.952 290.448 57.096 289.67 57.096ZM300.372 57.096C299.508 57.096 298.734 56.9093 298.052 56.536C297.38 56.1627 296.852 55.6507 296.468 55C296.084 54.3493 295.892 53.6027 295.892 52.76C295.892 51.9173 296.084 51.1707 296.468 50.52C296.852 49.8693 297.38 49.3627 298.052 49C298.734 48.6267 299.508 48.44 300.372 48.44C301.14 48.44 301.822 48.5947 302.42 48.904C303.028 49.2027 303.497 49.6507 303.828 50.248L302.66 51C302.382 50.584 302.041 50.28 301.636 50.088C301.241 49.8853 300.814 49.784 300.356 49.784C299.801 49.784 299.305 49.9067 298.868 50.152C298.43 50.3973 298.084 50.744 297.828 51.192C297.572 51.6293 297.444 52.152 297.444 52.76C297.444 53.368 297.572 53.896 297.828 54.344C298.084 54.792 298.43 55.1387 298.868 55.384C299.305 55.6293 299.801 55.752 300.356 55.752C300.814 55.752 301.241 55.656 301.636 55.464C302.041 55.2613 302.382 54.952 302.66 54.536L303.828 55.272C303.497 55.8587 303.028 56.312 302.42 56.632C301.822 56.9413 301.14 57.096 300.372 57.096Z" fill="#454545"/>
<rect x="207" y="27" width="146.5" height="48" stroke="#DDDDE6" stroke-width="2"/>
<rect x="353.5" y="27" width="98" height="48" fill="#F9F9FB"/>
<path d="M373.684 56.248V47.192H368.772L368.692 49.544C368.66 50.3333 368.607 51.0907 368.532 51.816C368.468 52.5413 368.372 53.1973 368.244 53.784C368.116 54.36 367.935 54.8347 367.7 55.208C367.476 55.5813 367.188 55.8107 366.836 55.896L365.108 55.608C365.524 55.64 365.865 55.5013 366.132 55.192C366.409 54.872 366.623 54.4293 366.772 53.864C366.932 53.288 367.049 52.6213 367.124 51.864C367.199 51.096 367.252 50.2747 367.284 49.4L367.396 45.8H375.268V56.248H373.684ZM364.708 59.448L364.724 55.608H376.916V59.448H375.428V57H366.212L366.196 59.448H364.708ZM382.292 57.096C381.439 57.096 380.681 56.9093 380.02 56.536C379.359 56.1627 378.836 55.6507 378.452 55C378.068 54.3387 377.876 53.592 377.876 52.76C377.876 51.9173 378.068 51.1707 378.452 50.52C378.836 49.8693 379.359 49.3627 380.02 49C380.681 48.6267 381.439 48.44 382.292 48.44C383.135 48.44 383.887 48.6267 384.548 49C385.22 49.3627 385.743 49.8693 386.116 50.52C386.5 51.16 386.692 51.9067 386.692 52.76C386.692 53.6027 386.5 54.3493 386.116 55C385.743 55.6507 385.22 56.1627 384.548 56.536C383.887 56.9093 383.135 57.096 382.292 57.096ZM382.292 55.752C382.836 55.752 383.321 55.6293 383.748 55.384C384.185 55.1387 384.527 54.792 384.772 54.344C385.017 53.8853 385.14 53.3573 385.14 52.76C385.14 52.152 385.017 51.6293 384.772 51.192C384.527 50.744 384.185 50.3973 383.748 50.152C383.321 49.9067 382.836 49.784 382.292 49.784C381.748 49.784 381.263 49.9067 380.836 50.152C380.409 50.3973 380.068 50.744 379.812 51.192C379.556 51.6293 379.428 52.152 379.428 52.76C379.428 53.3573 379.556 53.8853 379.812 54.344C380.068 54.792 380.409 55.1387 380.836 55.384C381.263 55.6293 381.748 55.752 382.292 55.752ZM392.606 57.096C391.742 57.096 390.969 56.9093 390.286 56.536C389.614 56.1627 389.086 55.6507 388.702 55C388.318 54.3493 388.126 53.6027 388.126 52.76C388.126 51.9173 388.318 51.1707 388.702 50.52C389.086 49.8693 389.614 49.3627 390.286 49C390.969 48.6267 391.742 48.44 392.606 48.44C393.374 48.44 394.057 48.5947 394.654 48.904C395.262 49.2027 395.731 49.6507 396.062 50.248L394.894 51C394.617 50.584 394.275 50.28 393.87 50.088C393.475 49.8853 393.049 49.784 392.59 49.784C392.035 49.784 391.539 49.9067 391.102 50.152C390.665 50.3973 390.318 50.744 390.062 51.192C389.806 51.6293 389.678 52.152 389.678 52.76C389.678 53.368 389.806 53.896 390.062 54.344C390.318 54.792 390.665 55.1387 391.102 55.384C391.539 55.6293 392.035 55.752 392.59 55.752C393.049 55.752 393.475 55.656 393.87 55.464C394.275 55.2613 394.617 54.952 394.894 54.536L396.062 55.272C395.731 55.8587 395.262 56.312 394.654 56.632C394.057 56.9413 393.374 57.096 392.606 57.096ZM399.621 57V49.464L400.005 49.864H396.517V48.52H404.261V49.864H400.789L401.157 49.464V57H399.621ZM406.264 60.2C405.858 60.2 405.464 60.1307 405.08 59.992C404.696 59.864 404.365 59.672 404.088 59.416L404.744 58.264C404.957 58.4667 405.192 58.6213 405.448 58.728C405.704 58.8347 405.976 58.888 406.264 58.888C406.637 58.888 406.946 58.792 407.192 58.6C407.437 58.408 407.666 58.0667 407.88 57.576L408.408 56.408L408.568 56.216L411.896 48.52H413.4L409.288 57.848C409.042 58.4453 408.765 58.9147 408.456 59.256C408.157 59.5973 407.826 59.8373 407.464 59.976C407.101 60.1253 406.701 60.2 406.264 60.2ZM408.28 57.272L404.408 48.52H406.008L409.304 56.072L408.28 57.272ZM414.972 57V48.52H422.828V57H421.292V49.48L421.66 49.864H416.14L416.508 49.48V57H414.972ZM425.801 57V48.52H427.337V52.12H432.169V48.52H433.705V57H432.169V53.448H427.337V57H425.801ZM436.691 57V48.52H438.227V57H436.691ZM437.459 46.888C437.16 46.888 436.91 46.792 436.707 46.6C436.515 46.408 436.419 46.1733 436.419 45.896C436.419 45.608 436.515 45.368 436.707 45.176C436.91 44.984 437.16 44.888 437.459 44.888C437.758 44.888 438.003 44.984 438.195 45.176C438.398 45.3573 438.499 45.5867 438.499 45.864C438.499 46.152 438.403 46.3973 438.211 46.6C438.019 46.792 437.768 46.888 437.459 46.888Z" fill="#454545"/>
<rect x="353.5" y="27" width="98" height="48" stroke="#DDDDE6" stroke-width="2"/>
<rect x="451.5" y="27" width="146.5" height="48" fill="#F9F9FB"/>
<path d="M490.994 57V45.8H495.362C496.343 45.8 497.181 45.9547 497.874 46.264C498.567 46.5733 499.101 47.0213 499.474 47.608C499.847 48.1947 500.034 48.8933 500.034 49.704C500.034 50.5147 499.847 51.2133 499.474 51.8C499.101 52.376 498.567 52.824 497.874 53.144C497.181 53.4533 496.343 53.608 495.362 53.608H491.874L492.594 52.856V57H490.994ZM492.594 53.016L491.874 52.216H495.314C496.338 52.216 497.111 51.9973 497.634 51.56C498.167 51.1227 498.434 50.504 498.434 49.704C498.434 48.904 498.167 48.2853 497.634 47.848C497.111 47.4107 496.338 47.192 495.314 47.192H491.874L492.594 46.392V53.016ZM505.748 57.096C504.842 57.096 504.042 56.9093 503.348 56.536C502.666 56.1627 502.132 55.6507 501.748 55C501.375 54.3493 501.188 53.6027 501.188 52.76C501.188 51.9173 501.37 51.1707 501.732 50.52C502.106 49.8693 502.612 49.3627 503.252 49C503.903 48.6267 504.634 48.44 505.444 48.44C506.266 48.44 506.991 48.6213 507.62 48.984C508.25 49.3467 508.74 49.8587 509.092 50.52C509.455 51.1707 509.636 51.9333 509.636 52.808C509.636 52.872 509.631 52.9467 509.62 53.032C509.62 53.1173 509.615 53.1973 509.604 53.272H502.388V52.168H508.804L508.18 52.552C508.191 52.008 508.079 51.5227 507.844 51.096C507.61 50.6693 507.284 50.3387 506.868 50.104C506.463 49.8587 505.988 49.736 505.444 49.736C504.911 49.736 504.436 49.8587 504.02 50.104C503.604 50.3387 503.279 50.6747 503.044 51.112C502.81 51.5387 502.692 52.0293 502.692 52.584V52.84C502.692 53.4053 502.82 53.912 503.076 54.36C503.343 54.7973 503.711 55.1387 504.18 55.384C504.65 55.6293 505.188 55.752 505.796 55.752C506.298 55.752 506.751 55.6667 507.156 55.496C507.572 55.3253 507.935 55.0693 508.244 54.728L509.092 55.72C508.708 56.168 508.228 56.5093 507.652 56.744C507.087 56.9787 506.452 57.096 505.748 57.096ZM512.019 57V48.52H513.555V54.696L518.755 48.52H520.147V57H518.611V50.824L513.427 57H512.019ZM515.987 47.416C515.209 47.416 514.595 47.2293 514.147 46.856C513.71 46.472 513.486 45.9227 513.475 45.208H514.515C514.526 45.6133 514.659 45.9333 514.915 46.168C515.182 46.4027 515.534 46.52 515.971 46.52C516.409 46.52 516.761 46.4027 517.027 46.168C517.294 45.9333 517.433 45.6133 517.443 45.208H518.515C518.505 45.9227 518.275 46.472 517.827 46.856C517.379 47.2293 516.766 47.416 515.987 47.416ZM524.809 57V49.464L525.193 49.864H521.705V48.52H529.449V49.864H525.977L526.345 49.464V57H524.809ZM531.019 57V48.52H532.555V54.696L537.755 48.52H539.147V57H537.611V50.824L532.427 57H531.019ZM542.129 57V48.52H543.665V52.12H548.497V48.52H550.033V57H548.497V53.448H543.665V57H542.129ZM553.019 57V48.52H559.259V49.864H554.187L554.555 49.512V57H553.019Z" fill="#454545"/>
<rect x="451.5" y="27" width="146.5" height="48" stroke="#DDDDE6" stroke-width="2"/>
</g>
<g clip-path="url(#clip2_1720_2684)">
<rect x="31" y="75" width="176" height="55" fill="white"/>
<path d="M57.34 95.9H58.654V108.5H57.34V95.9ZM49.456 108.5H48.124V95.9H49.456V108.5ZM57.466 102.686H49.312V101.516H57.466V102.686ZM68.4692 108.5V106.412L68.4152 106.07V102.578C68.4152 101.774 68.1872 101.156 67.7312 100.724C67.2872 100.292 66.6212 100.076 65.7332 100.076C65.1212 100.076 64.5392 100.178 63.9872 100.382C63.4352 100.586 62.9672 100.856 62.5832 101.192L62.0072 100.238C62.4872 99.83 63.0632 99.518 63.7352 99.302C64.4072 99.074 65.1152 98.96 65.8592 98.96C67.0832 98.96 68.0252 99.266 68.6852 99.878C69.3572 100.478 69.6932 101.396 69.6932 102.632V108.5H68.4692ZM65.2112 108.59C64.5032 108.59 63.8852 108.476 63.3572 108.248C62.8412 108.008 62.4452 107.684 62.1692 107.276C61.8932 106.856 61.7552 106.376 61.7552 105.836C61.7552 105.344 61.8692 104.9 62.0972 104.504C62.3372 104.096 62.7212 103.772 63.2492 103.532C63.7892 103.28 64.5092 103.154 65.4092 103.154H68.6672V104.108H65.4452C64.5332 104.108 63.8972 104.27 63.5372 104.594C63.1892 104.918 63.0152 105.32 63.0152 105.8C63.0152 106.34 63.2252 106.772 63.6452 107.096C64.0652 107.42 64.6532 107.582 65.4092 107.582C66.1292 107.582 66.7472 107.42 67.2632 107.096C67.7912 106.76 68.1752 106.28 68.4152 105.656L68.7032 106.538C68.4632 107.162 68.0432 107.66 67.4432 108.032C66.8552 108.404 66.1112 108.59 65.2112 108.59ZM75.44 108.608C76.22 108.608 76.922 108.488 77.546 108.248C78.182 108.008 78.686 107.678 79.058 107.258C79.43 106.826 79.616 106.328 79.616 105.764C79.616 105.044 79.31 104.474 78.698 104.054C78.098 103.634 77.258 103.424 76.178 103.424L76.124 103.766C76.736 103.766 77.282 103.67 77.762 103.478C78.242 103.286 78.626 103.016 78.914 102.668C79.202 102.32 79.346 101.912 79.346 101.444C79.346 100.916 79.166 100.466 78.806 100.094C78.446 99.71 77.96 99.416 77.348 99.212C76.748 99.008 76.07 98.918 75.314 98.942C74.762 98.942 74.21 99.02 73.658 99.176C73.118 99.32 72.572 99.536 72.02 99.824L72.38 100.814C72.872 100.562 73.37 100.376 73.874 100.256C74.378 100.124 74.864 100.052 75.332 100.04C75.848 100.04 76.31 100.1 76.718 100.22C77.126 100.34 77.444 100.52 77.672 100.76C77.912 101 78.032 101.288 78.032 101.624C78.032 101.936 77.93 102.206 77.726 102.434C77.534 102.662 77.258 102.836 76.898 102.956C76.538 103.076 76.124 103.136 75.656 103.136H74.126V104.072H75.746C76.538 104.072 77.162 104.216 77.618 104.504C78.074 104.78 78.302 105.17 78.302 105.674C78.302 106.022 78.182 106.334 77.942 106.61C77.702 106.886 77.366 107.102 76.934 107.258C76.502 107.414 75.992 107.498 75.404 107.51C74.816 107.51 74.222 107.426 73.622 107.258C73.022 107.078 72.494 106.82 72.038 106.484L71.624 107.438C72.14 107.834 72.734 108.128 73.406 108.32C74.078 108.512 74.756 108.608 75.44 108.608ZM82.5172 108.5V99.05H86.6932C87.7612 99.05 88.6012 99.254 89.2132 99.662C89.8372 100.07 90.1492 100.67 90.1492 101.462C90.1492 102.23 89.8552 102.824 89.2672 103.244C88.6792 103.652 87.9052 103.856 86.9452 103.856L87.1972 103.478C88.3252 103.478 89.1532 103.688 89.6812 104.108C90.2092 104.528 90.4732 105.134 90.4732 105.926C90.4732 106.742 90.1732 107.378 89.5732 107.834C88.9852 108.278 88.0672 108.5 86.8192 108.5H82.5172ZM83.7592 107.492H86.7652C87.5692 107.492 88.1752 107.366 88.5832 107.114C89.0032 106.85 89.2132 106.43 89.2132 105.854C89.2132 105.278 89.0272 104.858 88.6552 104.594C88.2832 104.33 87.6952 104.198 86.8912 104.198H83.7592V107.492ZM83.7592 103.244H86.6032C87.3352 103.244 87.8932 103.106 88.2772 102.83C88.6732 102.554 88.8712 102.152 88.8712 101.624C88.8712 101.096 88.6732 100.7 88.2772 100.436C87.8932 100.172 87.3352 100.04 86.6032 100.04H83.7592V103.244ZM99.3364 108.5V106.412L99.2824 106.07V102.578C99.2824 101.774 99.0544 101.156 98.5984 100.724C98.1544 100.292 97.4884 100.076 96.6004 100.076C95.9884 100.076 95.4064 100.178 94.8544 100.382C94.3024 100.586 93.8344 100.856 93.4504 101.192L92.8744 100.238C93.3544 99.83 93.9304 99.518 94.6024 99.302C95.2744 99.074 95.9824 98.96 96.7264 98.96C97.9504 98.96 98.8924 99.266 99.5524 99.878C100.224 100.478 100.56 101.396 100.56 102.632V108.5H99.3364ZM96.0784 108.59C95.3704 108.59 94.7524 108.476 94.2244 108.248C93.7084 108.008 93.3124 107.684 93.0364 107.276C92.7604 106.856 92.6224 106.376 92.6224 105.836C92.6224 105.344 92.7364 104.9 92.9644 104.504C93.2044 104.096 93.5884 103.772 94.1164 103.532C94.6564 103.28 95.3764 103.154 96.2764 103.154H99.5344V104.108H96.3124C95.4004 104.108 94.7644 104.27 94.4044 104.594C94.0564 104.918 93.8824 105.32 93.8824 105.8C93.8824 106.34 94.0924 106.772 94.5124 107.096C94.9324 107.42 95.5204 107.582 96.2764 107.582C96.9964 107.582 97.6144 107.42 98.1304 107.096C98.6584 106.76 99.0424 106.28 99.2824 105.656L99.5704 106.538C99.3304 107.162 98.9104 107.66 98.3104 108.032C97.7224 108.404 96.9784 108.59 96.0784 108.59ZM108.673 108.5V99.05H112.849C113.917 99.05 114.757 99.254 115.369 99.662C115.993 100.07 116.305 100.67 116.305 101.462C116.305 102.23 116.011 102.824 115.423 103.244C114.835 103.652 114.061 103.856 113.101 103.856L113.353 103.478C114.481 103.478 115.309 103.688 115.837 104.108C116.365 104.528 116.629 105.134 116.629 105.926C116.629 106.742 116.329 107.378 115.729 107.834C115.141 108.278 114.223 108.5 112.975 108.5H108.673ZM109.915 107.492H112.921C113.725 107.492 114.331 107.366 114.739 107.114C115.159 106.85 115.369 106.43 115.369 105.854C115.369 105.278 115.183 104.858 114.811 104.594C114.439 104.33 113.851 104.198 113.047 104.198H109.915V107.492ZM109.915 103.244H112.759C113.491 103.244 114.049 103.106 114.433 102.83C114.829 102.554 115.027 102.152 115.027 101.624C115.027 101.096 114.829 100.7 114.433 100.436C114.049 100.172 113.491 100.04 112.759 100.04H109.915V103.244ZM119.625 108.5V99.05H120.903V106.556L127.221 99.05H128.355V108.5H127.077V100.976L120.777 108.5H119.625ZM136.895 108.59C136.079 108.59 135.341 108.404 134.681 108.032C134.021 107.648 133.493 107.102 133.097 106.394C132.713 105.674 132.521 104.798 132.521 103.766C132.521 102.734 132.713 101.864 133.097 101.156C133.481 100.436 134.003 99.89 134.663 99.518C135.323 99.146 136.067 98.96 136.895 98.96C137.795 98.96 138.599 99.164 139.307 99.572C140.027 99.968 140.591 100.532 140.999 101.264C141.407 101.984 141.611 102.818 141.611 103.766C141.611 104.726 141.407 105.566 140.999 106.286C140.591 107.006 140.027 107.57 139.307 107.978C138.599 108.386 137.795 108.59 136.895 108.59ZM132.017 111.992V99.05H133.241V101.894L133.115 103.784L133.295 105.692V111.992H132.017ZM136.805 107.456C137.477 107.456 138.077 107.306 138.605 107.006C139.133 106.694 139.553 106.262 139.865 105.71C140.177 105.146 140.333 104.498 140.333 103.766C140.333 103.034 140.177 102.392 139.865 101.84C139.553 101.288 139.133 100.856 138.605 100.544C138.077 100.232 137.477 100.076 136.805 100.076C136.133 100.076 135.527 100.232 134.987 100.544C134.459 100.856 134.039 101.288 133.727 101.84C133.427 102.392 133.277 103.034 133.277 103.766C133.277 104.498 133.427 105.146 133.727 105.71C134.039 106.262 134.459 106.694 134.987 107.006C135.527 107.306 136.133 107.456 136.805 107.456ZM148.245 108.59C147.333 108.59 146.511 108.386 145.779 107.978C145.059 107.558 144.489 106.988 144.069 106.268C143.649 105.536 143.439 104.702 143.439 103.766C143.439 102.818 143.649 101.984 144.069 101.264C144.489 100.544 145.059 99.98 145.779 99.572C146.499 99.164 147.321 98.96 148.245 98.96C149.181 98.96 150.009 99.164 150.729 99.572C151.461 99.98 152.031 100.544 152.439 101.264C152.859 101.984 153.069 102.818 153.069 103.766C153.069 104.702 152.859 105.536 152.439 106.268C152.031 106.988 151.461 107.558 150.729 107.978C149.997 108.386 149.169 108.59 148.245 108.59ZM148.245 107.456C148.929 107.456 149.535 107.306 150.063 107.006C150.591 106.694 151.005 106.262 151.305 105.71C151.617 105.146 151.773 104.498 151.773 103.766C151.773 103.022 151.617 102.374 151.305 101.822C151.005 101.27 150.591 100.844 150.063 100.544C149.535 100.232 148.935 100.076 148.263 100.076C147.591 100.076 146.991 100.232 146.463 100.544C145.935 100.844 145.515 101.27 145.203 101.822C144.891 102.374 144.735 103.022 144.735 103.766C144.735 104.498 144.891 105.146 145.203 105.71C145.515 106.262 145.935 106.694 146.463 107.006C146.991 107.306 147.585 107.456 148.245 107.456ZM160.048 108.608C159.28 108.608 158.596 108.482 157.996 108.23C157.408 107.978 156.904 107.594 156.484 107.078C156.064 106.562 155.746 105.926 155.53 105.17C155.314 104.402 155.206 103.514 155.206 102.506C155.206 101.606 155.29 100.82 155.458 100.148C155.626 99.464 155.86 98.876 156.16 98.384C156.46 97.892 156.808 97.478 157.204 97.142C157.612 96.794 158.05 96.518 158.518 96.314C158.998 96.098 159.49 95.936 159.994 95.828L164.242 94.838L164.458 96.026L160.462 96.926C160.21 96.986 159.904 97.07 159.544 97.178C159.196 97.286 158.836 97.448 158.464 97.664C158.104 97.88 157.768 98.18 157.456 98.564C157.144 98.948 156.892 99.446 156.7 100.058C156.52 100.658 156.43 101.408 156.43 102.308C156.43 102.5 156.436 102.656 156.448 102.776C156.46 102.884 156.472 103.004 156.484 103.136C156.508 103.256 156.526 103.436 156.538 103.676L155.98 103.208C156.112 102.476 156.382 101.84 156.79 101.3C157.198 100.748 157.708 100.322 158.32 100.022C158.944 99.71 159.634 99.554 160.39 99.554C161.266 99.554 162.046 99.746 162.73 100.13C163.414 100.502 163.948 101.024 164.332 101.696C164.728 102.368 164.926 103.148 164.926 104.036C164.926 104.912 164.722 105.698 164.314 106.394C163.918 107.09 163.354 107.636 162.622 108.032C161.89 108.416 161.032 108.608 160.048 108.608ZM160.192 107.546C160.864 107.546 161.458 107.396 161.974 107.096C162.49 106.784 162.892 106.364 163.18 105.836C163.48 105.308 163.63 104.714 163.63 104.054C163.63 103.406 163.48 102.83 163.18 102.326C162.892 101.822 162.49 101.426 161.974 101.138C161.458 100.838 160.858 100.688 160.174 100.688C159.502 100.688 158.908 100.832 158.392 101.12C157.876 101.396 157.468 101.786 157.168 102.29C156.88 102.794 156.736 103.376 156.736 104.036C156.736 104.696 156.88 105.29 157.168 105.818C157.468 106.346 157.876 106.766 158.392 107.078C158.92 107.39 159.52 107.546 160.192 107.546ZM167.564 112.082C167.12 112.082 166.694 112.01 166.286 111.866C165.89 111.722 165.548 111.506 165.26 111.218L165.854 110.264C166.094 110.492 166.352 110.666 166.628 110.786C166.916 110.918 167.234 110.984 167.582 110.984C168.002 110.984 168.362 110.864 168.662 110.624C168.974 110.396 169.268 109.988 169.544 109.4L170.156 108.014L170.3 107.816L174.188 99.05H175.448L170.714 109.634C170.45 110.246 170.156 110.732 169.832 111.092C169.52 111.452 169.178 111.704 168.806 111.848C168.434 112.004 168.02 112.082 167.564 112.082ZM170.084 108.77L165.728 99.05H167.06L170.912 107.726L170.084 108.77ZM183.464 108.5V96.44L184.04 97.052H180.494V95.9H184.76V108.5H183.464Z" fill="#454545"/>
<rect x="31" y="75" width="176" height="55" stroke="#DDDDE6" stroke-width="2"/>
<rect x="207" y="75" width="146.5" height="55" fill="white"/>
<path d="M226.748 95.9H228.548V108.5H226.748V95.9ZM219.512 108.5H217.712V95.9H219.512V108.5ZM226.91 102.884H219.332V101.318H226.91V102.884ZM236.438 108.608C235.418 108.608 234.518 108.398 233.738 107.978C232.97 107.558 232.37 106.982 231.938 106.25C231.518 105.518 231.308 104.678 231.308 103.73C231.308 102.782 231.512 101.942 231.92 101.21C232.34 100.478 232.91 99.908 233.63 99.5C234.362 99.08 235.184 98.87 236.096 98.87C237.02 98.87 237.836 99.074 238.544 99.482C239.252 99.89 239.804 100.466 240.2 101.21C240.608 101.942 240.812 102.8 240.812 103.784C240.812 103.856 240.806 103.94 240.794 104.036C240.794 104.132 240.788 104.222 240.776 104.306H232.658V103.064H239.876L239.174 103.496C239.186 102.884 239.06 102.338 238.796 101.858C238.532 101.378 238.166 101.006 237.698 100.742C237.242 100.466 236.708 100.328 236.096 100.328C235.496 100.328 234.962 100.466 234.494 100.742C234.026 101.006 233.66 101.384 233.396 101.876C233.132 102.356 233 102.908 233 103.532V103.82C233 104.456 233.144 105.026 233.432 105.53C233.732 106.022 234.146 106.406 234.674 106.682C235.202 106.958 235.808 107.096 236.492 107.096C237.056 107.096 237.566 107 238.022 106.808C238.49 106.616 238.898 106.328 239.246 105.944L240.2 107.06C239.768 107.564 239.228 107.948 238.58 108.212C237.944 108.476 237.23 108.608 236.438 108.608ZM249.85 107.69V100.472H245.71L245.62 102.308C245.596 102.908 245.554 103.49 245.494 104.054C245.446 104.606 245.362 105.116 245.242 105.584C245.134 106.052 244.972 106.436 244.756 106.736C244.54 107.036 244.252 107.222 243.892 107.294L242.182 106.988C242.554 107 242.854 106.88 243.082 106.628C243.31 106.364 243.484 106.004 243.604 105.548C243.736 105.092 243.832 104.576 243.892 104C243.952 103.412 244 102.806 244.036 102.182L244.18 98.96H251.578V107.69H249.85ZM241.804 110.714V106.988H253.036V110.714H251.416V108.5H243.442V110.714H241.804ZM259.373 108.608C258.413 108.608 257.561 108.398 256.817 107.978C256.073 107.558 255.485 106.982 255.053 106.25C254.621 105.506 254.405 104.666 254.405 103.73C254.405 102.782 254.621 101.942 255.053 101.21C255.485 100.478 256.073 99.908 256.817 99.5C257.561 99.08 258.413 98.87 259.373 98.87C260.321 98.87 261.167 99.08 261.911 99.5C262.667 99.908 263.255 100.478 263.675 101.21C264.107 101.93 264.323 102.77 264.323 103.73C264.323 104.678 264.107 105.518 263.675 106.25C263.255 106.982 262.667 107.558 261.911 107.978C261.167 108.398 260.321 108.608 259.373 108.608ZM259.373 107.096C259.985 107.096 260.531 106.958 261.011 106.682C261.503 106.406 261.887 106.016 262.163 105.512C262.439 104.996 262.577 104.402 262.577 103.73C262.577 103.046 262.439 102.458 262.163 101.966C261.887 101.462 261.503 101.072 261.011 100.796C260.531 100.52 259.985 100.382 259.373 100.382C258.761 100.382 258.215 100.52 257.735 100.796C257.255 101.072 256.871 101.462 256.583 101.966C256.295 102.458 256.151 103.046 256.151 103.73C256.151 104.402 256.295 104.996 256.583 105.512C256.871 106.016 257.255 106.406 257.735 106.682C258.215 106.958 258.761 107.096 259.373 107.096ZM270.977 108.608C270.005 108.608 269.135 108.398 268.367 107.978C267.611 107.558 267.017 106.982 266.585 106.25C266.153 105.518 265.937 104.678 265.937 103.73C265.937 102.782 266.153 101.942 266.585 101.21C267.017 100.478 267.611 99.908 268.367 99.5C269.135 99.08 270.005 98.87 270.977 98.87C271.841 98.87 272.609 99.044 273.281 99.392C273.965 99.728 274.493 100.232 274.865 100.904L273.551 101.75C273.239 101.282 272.855 100.94 272.399 100.724C271.955 100.496 271.475 100.382 270.959 100.382C270.335 100.382 269.777 100.52 269.285 100.796C268.793 101.072 268.403 101.462 268.115 101.966C267.827 102.458 267.683 103.046 267.683 103.73C267.683 104.414 267.827 105.008 268.115 105.512C268.403 106.016 268.793 106.406 269.285 106.682C269.777 106.958 270.335 107.096 270.959 107.096C271.475 107.096 271.955 106.988 272.399 106.772C272.855 106.544 273.239 106.196 273.551 105.728L274.865 106.556C274.493 107.216 273.965 107.726 273.281 108.086C272.609 108.434 271.841 108.608 270.977 108.608ZM278.869 108.5V100.022L279.301 100.472H275.377V98.96H284.089V100.472H280.183L280.597 100.022V108.5H278.869ZM286.342 112.1C285.886 112.1 285.442 112.022 285.01 111.866C284.578 111.722 284.206 111.506 283.894 111.218L284.632 109.922C284.872 110.15 285.136 110.324 285.424 110.444C285.712 110.564 286.018 110.624 286.342 110.624C286.762 110.624 287.11 110.516 287.386 110.3C287.662 110.084 287.92 109.7 288.16 109.148L288.754 107.834L288.934 107.618L292.678 98.96H294.37L289.744 109.454C289.468 110.126 289.156 110.654 288.808 111.038C288.472 111.422 288.1 111.692 287.692 111.848C287.284 112.016 286.834 112.1 286.342 112.1ZM288.61 108.806L284.254 98.96H286.054L289.762 107.456L288.61 108.806ZM296.139 108.5V98.96H304.977V108.5H303.249V100.04L303.663 100.472H297.453L297.867 100.04V108.5H296.139ZM308.32 108.5V98.96H310.048V103.01H315.484V98.96H317.212V108.5H315.484V104.504H310.048V108.5H308.32ZM320.572 108.5V98.96H322.3V105.908L328.15 98.96H329.716V108.5H327.988V101.552L322.156 108.5H320.572ZM333.07 108.5V98.96H334.798V105.908L340.648 98.96H342.214V108.5H340.486V101.552L334.654 108.5H333.07ZM337.534 97.718C336.658 97.718 335.968 97.508 335.464 97.088C334.972 96.656 334.72 96.038 334.708 95.234H335.878C335.89 95.69 336.04 96.05 336.328 96.314C336.628 96.578 337.024 96.71 337.516 96.71C338.008 96.71 338.404 96.578 338.704 96.314C339.004 96.05 339.16 95.69 339.172 95.234H340.378C340.366 96.038 340.108 96.656 339.604 97.088C339.1 97.508 338.41 97.718 337.534 97.718Z" fill="#454545"/>
<rect x="207" y="75" width="146.5" height="55" stroke="#DDDDE6" stroke-width="2"/>
<rect x="353.5" y="75" width="98" height="55" fill="white"/>
<circle cx="402.5" cy="102.5" r="12" fill="#F82C2C" fill-opacity="0.1" stroke="#F82C2C"/>
<path d="M398.75 98.75L402.5 102.5M406.25 106.25L402.5 102.5M402.5 102.5L406.25 98.75M402.5 102.5L398.75 106.25" stroke="#F82C2C" stroke-width="2"/>
<rect x="353.5" y="75" width="98" height="55" stroke="#DDDDE6" stroke-width="2"/>
<rect x="451.5" y="75" width="146.5" height="55" fill="white"/>
<path d="M478.75 92.5L481.724 98.4064L488.261 99.4098L483.562 104.064L484.628 110.59L478.75 107.56L472.872 110.59L473.938 104.064L469.239 99.4098L475.776 98.4064L478.75 92.5Z" fill="#F28100"/>
<path d="M501.75 92.5L504.724 98.4064L511.261 99.4098L506.562 104.064L507.628 110.59L501.75 107.56L495.872 110.59L496.938 104.064L492.239 99.4098L498.776 98.4064L501.75 92.5Z" fill="#F28100"/>
<path d="M524.75 92.5L527.724 98.4064L534.261 99.4098L529.562 104.064L530.628 110.59L524.75 107.56L518.872 110.59L519.938 104.064L515.239 99.4098L521.776 98.4064L524.75 92.5Z" fill="#F28100"/>
<path d="M547.75 92.5L550.724 98.4064L557.261 99.4098L552.562 104.064L553.628 110.59L547.75 107.56L541.872 110.59L542.938 104.064L538.239 99.4098L544.776 98.4064L547.75 92.5Z" fill="#F28100"/>
<path d="M570.75 92.5L573.724 98.4064L580.261 99.4098L575.562 104.064L576.628 110.59L570.75 107.56L564.872 110.59L565.938 104.064L561.239 99.4098L567.776 98.4064L570.75 92.5Z" fill="#F28100"/>
<rect x="451.5" y="75" width="146.5" height="55" stroke="#DDDDE6" stroke-width="2"/>
</g>
<rect x="31" y="75" width="567" height="55" stroke="#DDDDE6" stroke-width="2"/>
<g clip-path="url(#clip3_1720_2684)">
<rect x="31" y="130" width="176" height="55" fill="white"/>
<path d="M57.34 150.9H58.654V163.5H57.34V150.9ZM49.456 163.5H48.124V150.9H49.456V163.5ZM57.466 157.686H49.312V156.516H57.466V157.686ZM68.4692 163.5V161.412L68.4152 161.07V157.578C68.4152 156.774 68.1872 156.156 67.7312 155.724C67.2872 155.292 66.6212 155.076 65.7332 155.076C65.1212 155.076 64.5392 155.178 63.9872 155.382C63.4352 155.586 62.9672 155.856 62.5832 156.192L62.0072 155.238C62.4872 154.83 63.0632 154.518 63.7352 154.302C64.4072 154.074 65.1152 153.96 65.8592 153.96C67.0832 153.96 68.0252 154.266 68.6852 154.878C69.3572 155.478 69.6932 156.396 69.6932 157.632V163.5H68.4692ZM65.2112 163.59C64.5032 163.59 63.8852 163.476 63.3572 163.248C62.8412 163.008 62.4452 162.684 62.1692 162.276C61.8932 161.856 61.7552 161.376 61.7552 160.836C61.7552 160.344 61.8692 159.9 62.0972 159.504C62.3372 159.096 62.7212 158.772 63.2492 158.532C63.7892 158.28 64.5092 158.154 65.4092 158.154H68.6672V159.108H65.4452C64.5332 159.108 63.8972 159.27 63.5372 159.594C63.1892 159.918 63.0152 160.32 63.0152 160.8C63.0152 161.34 63.2252 161.772 63.6452 162.096C64.0652 162.42 64.6532 162.582 65.4092 162.582C66.1292 162.582 66.7472 162.42 67.2632 162.096C67.7912 161.76 68.1752 161.28 68.4152 160.656L68.7032 161.538C68.4632 162.162 68.0432 162.66 67.4432 163.032C66.8552 163.404 66.1112 163.59 65.2112 163.59ZM75.44 163.608C76.22 163.608 76.922 163.488 77.546 163.248C78.182 163.008 78.686 162.678 79.058 162.258C79.43 161.826 79.616 161.328 79.616 160.764C79.616 160.044 79.31 159.474 78.698 159.054C78.098 158.634 77.258 158.424 76.178 158.424L76.124 158.766C76.736 158.766 77.282 158.67 77.762 158.478C78.242 158.286 78.626 158.016 78.914 157.668C79.202 157.32 79.346 156.912 79.346 156.444C79.346 155.916 79.166 155.466 78.806 155.094C78.446 154.71 77.96 154.416 77.348 154.212C76.748 154.008 76.07 153.918 75.314 153.942C74.762 153.942 74.21 154.02 73.658 154.176C73.118 154.32 72.572 154.536 72.02 154.824L72.38 155.814C72.872 155.562 73.37 155.376 73.874 155.256C74.378 155.124 74.864 155.052 75.332 155.04C75.848 155.04 76.31 155.1 76.718 155.22C77.126 155.34 77.444 155.52 77.672 155.76C77.912 156 78.032 156.288 78.032 156.624C78.032 156.936 77.93 157.206 77.726 157.434C77.534 157.662 77.258 157.836 76.898 157.956C76.538 158.076 76.124 158.136 75.656 158.136H74.126V159.072H75.746C76.538 159.072 77.162 159.216 77.618 159.504C78.074 159.78 78.302 160.17 78.302 160.674C78.302 161.022 78.182 161.334 77.942 161.61C77.702 161.886 77.366 162.102 76.934 162.258C76.502 162.414 75.992 162.498 75.404 162.51C74.816 162.51 74.222 162.426 73.622 162.258C73.022 162.078 72.494 161.82 72.038 161.484L71.624 162.438C72.14 162.834 72.734 163.128 73.406 163.32C74.078 163.512 74.756 163.608 75.44 163.608ZM82.5172 163.5V154.05H86.6932C87.7612 154.05 88.6012 154.254 89.2132 154.662C89.8372 155.07 90.1492 155.67 90.1492 156.462C90.1492 157.23 89.8552 157.824 89.2672 158.244C88.6792 158.652 87.9052 158.856 86.9452 158.856L87.1972 158.478C88.3252 158.478 89.1532 158.688 89.6812 159.108C90.2092 159.528 90.4732 160.134 90.4732 160.926C90.4732 161.742 90.1732 162.378 89.5732 162.834C88.9852 163.278 88.0672 163.5 86.8192 163.5H82.5172ZM83.7592 162.492H86.7652C87.5692 162.492 88.1752 162.366 88.5832 162.114C89.0032 161.85 89.2132 161.43 89.2132 160.854C89.2132 160.278 89.0272 159.858 88.6552 159.594C88.2832 159.33 87.6952 159.198 86.8912 159.198H83.7592V162.492ZM83.7592 158.244H86.6032C87.3352 158.244 87.8932 158.106 88.2772 157.83C88.6732 157.554 88.8712 157.152 88.8712 156.624C88.8712 156.096 88.6732 155.7 88.2772 155.436C87.8932 155.172 87.3352 155.04 86.6032 155.04H83.7592V158.244ZM99.3364 163.5V161.412L99.2824 161.07V157.578C99.2824 156.774 99.0544 156.156 98.5984 155.724C98.1544 155.292 97.4884 155.076 96.6004 155.076C95.9884 155.076 95.4064 155.178 94.8544 155.382C94.3024 155.586 93.8344 155.856 93.4504 156.192L92.8744 155.238C93.3544 154.83 93.9304 154.518 94.6024 154.302C95.2744 154.074 95.9824 153.96 96.7264 153.96C97.9504 153.96 98.8924 154.266 99.5524 154.878C100.224 155.478 100.56 156.396 100.56 157.632V163.5H99.3364ZM96.0784 163.59C95.3704 163.59 94.7524 163.476 94.2244 163.248C93.7084 163.008 93.3124 162.684 93.0364 162.276C92.7604 161.856 92.6224 161.376 92.6224 160.836C92.6224 160.344 92.7364 159.9 92.9644 159.504C93.2044 159.096 93.5884 158.772 94.1164 158.532C94.6564 158.28 95.3764 158.154 96.2764 158.154H99.5344V159.108H96.3124C95.4004 159.108 94.7644 159.27 94.4044 159.594C94.0564 159.918 93.8824 160.32 93.8824 160.8C93.8824 161.34 94.0924 161.772 94.5124 162.096C94.9324 162.42 95.5204 162.582 96.2764 162.582C96.9964 162.582 97.6144 162.42 98.1304 162.096C98.6584 161.76 99.0424 161.28 99.2824 160.656L99.5704 161.538C99.3304 162.162 98.9104 162.66 98.3104 163.032C97.7224 163.404 96.9784 163.59 96.0784 163.59ZM108.673 163.5V154.05H112.849C113.917 154.05 114.757 154.254 115.369 154.662C115.993 155.07 116.305 155.67 116.305 156.462C116.305 157.23 116.011 157.824 115.423 158.244C114.835 158.652 114.061 158.856 113.101 158.856L113.353 158.478C114.481 158.478 115.309 158.688 115.837 159.108C116.365 159.528 116.629 160.134 116.629 160.926C116.629 161.742 116.329 162.378 115.729 162.834C115.141 163.278 114.223 163.5 112.975 163.5H108.673ZM109.915 162.492H112.921C113.725 162.492 114.331 162.366 114.739 162.114C115.159 161.85 115.369 161.43 115.369 160.854C115.369 160.278 115.183 159.858 114.811 159.594C114.439 159.33 113.851 159.198 113.047 159.198H109.915V162.492ZM109.915 158.244H112.759C113.491 158.244 114.049 158.106 114.433 157.83C114.829 157.554 115.027 157.152 115.027 156.624C115.027 156.096 114.829 155.7 114.433 155.436C114.049 155.172 113.491 155.04 112.759 155.04H109.915V158.244ZM119.625 163.5V154.05H120.903V161.556L127.221 154.05H128.355V163.5H127.077V155.976L120.777 163.5H119.625ZM136.895 163.59C136.079 163.59 135.341 163.404 134.681 163.032C134.021 162.648 133.493 162.102 133.097 161.394C132.713 160.674 132.521 159.798 132.521 158.766C132.521 157.734 132.713 156.864 133.097 156.156C133.481 155.436 134.003 154.89 134.663 154.518C135.323 154.146 136.067 153.96 136.895 153.96C137.795 153.96 138.599 154.164 139.307 154.572C140.027 154.968 140.591 155.532 140.999 156.264C141.407 156.984 141.611 157.818 141.611 158.766C141.611 159.726 141.407 160.566 140.999 161.286C140.591 162.006 140.027 162.57 139.307 162.978C138.599 163.386 137.795 163.59 136.895 163.59ZM132.017 166.992V154.05H133.241V156.894L133.115 158.784L133.295 160.692V166.992H132.017ZM136.805 162.456C137.477 162.456 138.077 162.306 138.605 162.006C139.133 161.694 139.553 161.262 139.865 160.71C140.177 160.146 140.333 159.498 140.333 158.766C140.333 158.034 140.177 157.392 139.865 156.84C139.553 156.288 139.133 155.856 138.605 155.544C138.077 155.232 137.477 155.076 136.805 155.076C136.133 155.076 135.527 155.232 134.987 155.544C134.459 155.856 134.039 156.288 133.727 156.84C133.427 157.392 133.277 158.034 133.277 158.766C133.277 159.498 133.427 160.146 133.727 160.71C134.039 161.262 134.459 161.694 134.987 162.006C135.527 162.306 136.133 162.456 136.805 162.456ZM148.245 163.59C147.333 163.59 146.511 163.386 145.779 162.978C145.059 162.558 144.489 161.988 144.069 161.268C143.649 160.536 143.439 159.702 143.439 158.766C143.439 157.818 143.649 156.984 144.069 156.264C144.489 155.544 145.059 154.98 145.779 154.572C146.499 154.164 147.321 153.96 148.245 153.96C149.181 153.96 150.009 154.164 150.729 154.572C151.461 154.98 152.031 155.544 152.439 156.264C152.859 156.984 153.069 157.818 153.069 158.766C153.069 159.702 152.859 160.536 152.439 161.268C152.031 161.988 151.461 162.558 150.729 162.978C149.997 163.386 149.169 163.59 148.245 163.59ZM148.245 162.456C148.929 162.456 149.535 162.306 150.063 162.006C150.591 161.694 151.005 161.262 151.305 160.71C151.617 160.146 151.773 159.498 151.773 158.766C151.773 158.022 151.617 157.374 151.305 156.822C151.005 156.27 150.591 155.844 150.063 155.544C149.535 155.232 148.935 155.076 148.263 155.076C147.591 155.076 146.991 155.232 146.463 155.544C145.935 155.844 145.515 156.27 145.203 156.822C144.891 157.374 144.735 158.022 144.735 158.766C144.735 159.498 144.891 160.146 145.203 160.71C145.515 161.262 145.935 161.694 146.463 162.006C146.991 162.306 147.585 162.456 148.245 162.456ZM160.048 163.608C159.28 163.608 158.596 163.482 157.996 163.23C157.408 162.978 156.904 162.594 156.484 162.078C156.064 161.562 155.746 160.926 155.53 160.17C155.314 159.402 155.206 158.514 155.206 157.506C155.206 156.606 155.29 155.82 155.458 155.148C155.626 154.464 155.86 153.876 156.16 153.384C156.46 152.892 156.808 152.478 157.204 152.142C157.612 151.794 158.05 151.518 158.518 151.314C158.998 151.098 159.49 150.936 159.994 150.828L164.242 149.838L164.458 151.026L160.462 151.926C160.21 151.986 159.904 152.07 159.544 152.178C159.196 152.286 158.836 152.448 158.464 152.664C158.104 152.88 157.768 153.18 157.456 153.564C157.144 153.948 156.892 154.446 156.7 155.058C156.52 155.658 156.43 156.408 156.43 157.308C156.43 157.5 156.436 157.656 156.448 157.776C156.46 157.884 156.472 158.004 156.484 158.136C156.508 158.256 156.526 158.436 156.538 158.676L155.98 158.208C156.112 157.476 156.382 156.84 156.79 156.3C157.198 155.748 157.708 155.322 158.32 155.022C158.944 154.71 159.634 154.554 160.39 154.554C161.266 154.554 162.046 154.746 162.73 155.13C163.414 155.502 163.948 156.024 164.332 156.696C164.728 157.368 164.926 158.148 164.926 159.036C164.926 159.912 164.722 160.698 164.314 161.394C163.918 162.09 163.354 162.636 162.622 163.032C161.89 163.416 161.032 163.608 160.048 163.608ZM160.192 162.546C160.864 162.546 161.458 162.396 161.974 162.096C162.49 161.784 162.892 161.364 163.18 160.836C163.48 160.308 163.63 159.714 163.63 159.054C163.63 158.406 163.48 157.83 163.18 157.326C162.892 156.822 162.49 156.426 161.974 156.138C161.458 155.838 160.858 155.688 160.174 155.688C159.502 155.688 158.908 155.832 158.392 156.12C157.876 156.396 157.468 156.786 157.168 157.29C156.88 157.794 156.736 158.376 156.736 159.036C156.736 159.696 156.88 160.29 157.168 160.818C157.468 161.346 157.876 161.766 158.392 162.078C158.92 162.39 159.52 162.546 160.192 162.546ZM167.564 167.082C167.12 167.082 166.694 167.01 166.286 166.866C165.89 166.722 165.548 166.506 165.26 166.218L165.854 165.264C166.094 165.492 166.352 165.666 166.628 165.786C166.916 165.918 167.234 165.984 167.582 165.984C168.002 165.984 168.362 165.864 168.662 165.624C168.974 165.396 169.268 164.988 169.544 164.4L170.156 163.014L170.3 162.816L174.188 154.05H175.448L170.714 164.634C170.45 165.246 170.156 165.732 169.832 166.092C169.52 166.452 169.178 166.704 168.806 166.848C168.434 167.004 168.02 167.082 167.564 167.082ZM170.084 163.77L165.728 154.05H167.06L170.912 162.726L170.084 163.77ZM181.034 163.5V162.582L186.272 157.452C186.752 156.984 187.112 156.576 187.352 156.228C187.592 155.868 187.754 155.532 187.838 155.22C187.922 154.908 187.964 154.614 187.964 154.338C187.964 153.606 187.712 153.03 187.208 152.61C186.716 152.19 185.984 151.98 185.012 151.98C184.268 151.98 183.608 152.094 183.032 152.322C182.468 152.55 181.982 152.904 181.574 153.384L180.656 152.592C181.148 152.016 181.778 151.572 182.546 151.26C183.314 150.948 184.172 150.792 185.12 150.792C185.972 150.792 186.71 150.93 187.334 151.206C187.958 151.47 188.438 151.86 188.774 152.376C189.122 152.892 189.296 153.498 189.296 154.194C189.296 154.602 189.236 155.004 189.116 155.4C189.008 155.796 188.804 156.216 188.504 156.66C188.216 157.092 187.79 157.584 187.226 158.136L182.42 162.852L182.06 162.348H189.872V163.5H181.034Z" fill="#454545"/>
<rect x="31" y="130" width="176" height="55" stroke="#DDDDE6" stroke-width="2"/>
<rect x="207" y="130" width="146.5" height="55" fill="white"/>
<path d="M226.212 163.5V150.9H231.63C232.998 150.9 234.072 151.176 234.852 151.728C235.632 152.28 236.022 153.084 236.022 154.14C236.022 155.172 235.65 155.964 234.906 156.516C234.162 157.056 233.184 157.326 231.972 157.326L232.296 156.786C233.7 156.786 234.774 157.068 235.518 157.632C236.274 158.184 236.652 158.994 236.652 160.062C236.652 161.142 236.256 161.988 235.464 162.6C234.684 163.2 233.52 163.5 231.972 163.5H226.212ZM227.994 162.078H231.936C232.896 162.078 233.616 161.904 234.096 161.556C234.588 161.196 234.834 160.65 234.834 159.918C234.834 159.186 234.588 158.652 234.096 158.316C233.616 157.98 232.896 157.812 231.936 157.812H227.994V162.078ZM227.994 156.444H231.504C232.38 156.444 233.046 156.27 233.502 155.922C233.97 155.574 234.204 155.064 234.204 154.392C234.204 153.708 233.97 153.192 233.502 152.844C233.046 152.496 232.38 152.322 231.504 152.322H227.994V156.444ZM244.205 163.5V153.96H245.933V158.01H251.369V153.96H253.097V163.5H251.369V159.504H245.933V163.5H244.205ZM262.307 163.5V161.484L262.217 161.106V157.668C262.217 156.936 262.001 156.372 261.569 155.976C261.149 155.568 260.513 155.364 259.661 155.364C259.097 155.364 258.545 155.46 258.005 155.652C257.465 155.832 257.009 156.078 256.637 156.39L255.917 155.094C256.409 154.698 256.997 154.398 257.681 154.194C258.377 153.978 259.103 153.87 259.859 153.87C261.167 153.87 262.175 154.188 262.883 154.824C263.591 155.46 263.945 156.432 263.945 157.74V163.5H262.307ZM259.175 163.608C258.467 163.608 257.843 163.488 257.303 163.248C256.775 163.008 256.367 162.678 256.079 162.258C255.791 161.826 255.647 161.34 255.647 160.8C255.647 160.284 255.767 159.816 256.007 159.396C256.259 158.976 256.661 158.64 257.213 158.388C257.777 158.136 258.533 158.01 259.481 158.01H262.505V159.252H259.553C258.689 159.252 258.107 159.396 257.807 159.684C257.507 159.972 257.357 160.32 257.357 160.728C257.357 161.196 257.543 161.574 257.915 161.862C258.287 162.138 258.803 162.276 259.463 162.276C260.111 162.276 260.675 162.132 261.155 161.844C261.647 161.556 262.001 161.136 262.217 160.584L262.559 161.772C262.331 162.336 261.929 162.786 261.353 163.122C260.777 163.446 260.051 163.608 259.175 163.608ZM273.159 163.5V160.152L273.429 160.476H270.387C269.115 160.476 268.119 160.206 267.399 159.666C266.691 159.126 266.337 158.34 266.337 157.308C266.337 156.204 266.715 155.37 267.471 154.806C268.239 154.242 269.259 153.96 270.531 153.96H274.707V163.5H273.159ZM266.247 163.5L268.839 159.846H270.621L268.101 163.5H266.247ZM273.159 159.612V154.986L273.429 155.472H270.585C269.793 155.472 269.181 155.622 268.749 155.922C268.317 156.21 268.101 156.69 268.101 157.362C268.101 158.61 268.905 159.234 270.513 159.234H273.429L273.159 159.612ZM278.078 163.5V153.96H282.506C283.622 153.96 284.498 154.176 285.134 154.608C285.782 155.028 286.106 155.628 286.106 156.408C286.106 157.188 285.8 157.794 285.188 158.226C284.588 158.646 283.79 158.856 282.794 158.856L283.064 158.388C284.204 158.388 285.05 158.598 285.602 159.018C286.154 159.438 286.43 160.056 286.43 160.872C286.43 161.7 286.118 162.348 285.494 162.816C284.882 163.272 283.94 163.5 282.668 163.5H278.078ZM279.77 162.168H282.542C283.262 162.168 283.802 162.06 284.162 161.844C284.522 161.616 284.702 161.256 284.702 160.764C284.702 160.26 284.534 159.894 284.198 159.666C283.874 159.426 283.358 159.306 282.65 159.306H279.77V162.168ZM279.77 158.064H282.362C283.022 158.064 283.52 157.944 283.856 157.704C284.204 157.452 284.378 157.104 284.378 156.66C284.378 156.204 284.204 155.862 283.856 155.634C283.52 155.406 283.022 155.292 282.362 155.292H279.77V158.064ZM289.135 163.5V153.96H290.863V158.01H296.299V153.96H298.027V163.5H296.299V159.504H290.863V163.5H289.135ZM305.473 163.608C304.513 163.608 303.661 163.398 302.917 162.978C302.173 162.558 301.585 161.982 301.153 161.25C300.721 160.506 300.505 159.666 300.505 158.73C300.505 157.782 300.721 156.942 301.153 156.21C301.585 155.478 302.173 154.908 302.917 154.5C303.661 154.08 304.513 153.87 305.473 153.87C306.421 153.87 307.267 154.08 308.011 154.5C308.767 154.908 309.355 155.478 309.775 156.21C310.207 156.93 310.423 157.77 310.423 158.73C310.423 159.678 310.207 160.518 309.775 161.25C309.355 161.982 308.767 162.558 308.011 162.978C307.267 163.398 306.421 163.608 305.473 163.608ZM305.473 162.096C306.085 162.096 306.631 161.958 307.111 161.682C307.603 161.406 307.987 161.016 308.263 160.512C308.539 159.996 308.677 159.402 308.677 158.73C308.677 158.046 308.539 157.458 308.263 156.966C307.987 156.462 307.603 156.072 307.111 155.796C306.631 155.52 306.085 155.382 305.473 155.382C304.861 155.382 304.315 155.52 303.835 155.796C303.355 156.072 302.971 156.462 302.683 156.966C302.395 157.458 302.251 158.046 302.251 158.73C302.251 159.402 302.395 159.996 302.683 160.512C302.971 161.016 303.355 161.406 303.835 161.682C304.315 161.958 304.861 162.096 305.473 162.096ZM317.076 163.608C316.104 163.608 315.234 163.398 314.466 162.978C313.71 162.558 313.116 161.982 312.684 161.25C312.252 160.518 312.036 159.678 312.036 158.73C312.036 157.782 312.252 156.942 312.684 156.21C313.116 155.478 313.71 154.908 314.466 154.5C315.234 154.08 316.104 153.87 317.076 153.87C317.94 153.87 318.708 154.044 319.38 154.392C320.064 154.728 320.592 155.232 320.964 155.904L319.65 156.75C319.338 156.282 318.954 155.94 318.498 155.724C318.054 155.496 317.574 155.382 317.058 155.382C316.434 155.382 315.876 155.52 315.384 155.796C314.892 156.072 314.502 156.462 314.214 156.966C313.926 157.458 313.782 158.046 313.782 158.73C313.782 159.414 313.926 160.008 314.214 160.512C314.502 161.016 314.892 161.406 315.384 161.682C315.876 161.958 316.434 162.096 317.058 162.096C317.574 162.096 318.054 161.988 318.498 161.772C318.954 161.544 319.338 161.196 319.65 160.728L320.964 161.556C320.592 162.216 320.064 162.726 319.38 163.086C318.708 163.434 317.94 163.608 317.076 163.608ZM324.968 163.5V155.022L325.4 155.472H321.476V153.96H330.188V155.472H326.282L326.696 155.022V163.5H324.968ZM331.955 163.5V153.96H333.683V163.5H331.955ZM332.819 152.124C332.483 152.124 332.201 152.016 331.973 151.8C331.757 151.584 331.649 151.32 331.649 151.008C331.649 150.684 331.757 150.414 331.973 150.198C332.201 149.982 332.483 149.874 332.819 149.874C333.155 149.874 333.431 149.982 333.647 150.198C333.875 150.402 333.989 150.66 333.989 150.972C333.989 151.296 333.881 151.572 333.665 151.8C333.449 152.016 333.167 152.124 332.819 152.124Z" fill="#454545"/>
<rect x="207" y="130" width="146.5" height="55" stroke="#DDDDE6" stroke-width="2"/>
<rect x="353.5" y="130" width="98" height="55" fill="white"/>
<circle cx="402.5" cy="157.5" r="12" fill="#80DA39" fill-opacity="0.1" stroke="#80DA39"/>
<path d="M398 157L401.5 160.5L408 154" stroke="#80DA39" stroke-width="2"/>
<rect x="353.5" y="130" width="98" height="55" stroke="#DDDDE6" stroke-width="2"/>
<rect x="451.5" y="130" width="146.5" height="55" fill="white"/>
<path d="M478.75 147.5L481.724 153.406L488.261 154.41L483.562 159.064L484.628 165.59L478.75 162.56L472.872 165.59L473.938 159.064L469.239 154.41L475.776 153.406L478.75 147.5Z" fill="#F28100"/>
<path d="M501.75 147.5L504.724 153.406L511.261 154.41L506.562 159.064L507.628 165.59L501.75 162.56L495.872 165.59L496.938 159.064L492.239 154.41L498.776 153.406L501.75 147.5Z" fill="#F28100"/>
<path d="M524.75 147.5L527.724 153.406L534.261 154.41L529.562 159.064L530.628 165.59L524.75 162.56L518.872 165.59L519.938 159.064L515.239 154.41L521.776 153.406L524.75 147.5Z" fill="#D5D5E4"/>
<path d="M547.75 147.5L550.724 153.406L557.261 154.41L552.562 159.064L553.628 165.59L547.75 162.56L541.872 165.59L542.938 159.064L538.239 154.41L544.776 153.406L547.75 147.5Z" fill="#D5D5E4"/>
<path d="M570.75 147.5L573.724 153.406L580.261 154.41L575.562 159.064L576.628 165.59L570.75 162.56L564.872 165.59L565.938 159.064L561.239 154.41L567.776 153.406L570.75 147.5Z" fill="#D5D5E4"/>
<rect x="451.5" y="130" width="146.5" height="55" stroke="#DDDDE6" stroke-width="2"/>
</g>
<rect x="31" y="130" width="567" height="55" stroke="#DDDDE6" stroke-width="2"/>
<g clip-path="url(#clip4_1720_2684)">
<rect x="31" y="185" width="176" height="55" fill="white"/>
<path d="M57.34 205.9H58.654V218.5H57.34V205.9ZM49.456 218.5H48.124V205.9H49.456V218.5ZM57.466 212.686H49.312V211.516H57.466V212.686ZM68.4692 218.5V216.412L68.4152 216.07V212.578C68.4152 211.774 68.1872 211.156 67.7312 210.724C67.2872 210.292 66.6212 210.076 65.7332 210.076C65.1212 210.076 64.5392 210.178 63.9872 210.382C63.4352 210.586 62.9672 210.856 62.5832 211.192L62.0072 210.238C62.4872 209.83 63.0632 209.518 63.7352 209.302C64.4072 209.074 65.1152 208.96 65.8592 208.96C67.0832 208.96 68.0252 209.266 68.6852 209.878C69.3572 210.478 69.6932 211.396 69.6932 212.632V218.5H68.4692ZM65.2112 218.59C64.5032 218.59 63.8852 218.476 63.3572 218.248C62.8412 218.008 62.4452 217.684 62.1692 217.276C61.8932 216.856 61.7552 216.376 61.7552 215.836C61.7552 215.344 61.8692 214.9 62.0972 214.504C62.3372 214.096 62.7212 213.772 63.2492 213.532C63.7892 213.28 64.5092 213.154 65.4092 213.154H68.6672V214.108H65.4452C64.5332 214.108 63.8972 214.27 63.5372 214.594C63.1892 214.918 63.0152 215.32 63.0152 215.8C63.0152 216.34 63.2252 216.772 63.6452 217.096C64.0652 217.42 64.6532 217.582 65.4092 217.582C66.1292 217.582 66.7472 217.42 67.2632 217.096C67.7912 216.76 68.1752 216.28 68.4152 215.656L68.7032 216.538C68.4632 217.162 68.0432 217.66 67.4432 218.032C66.8552 218.404 66.1112 218.59 65.2112 218.59ZM75.44 218.608C76.22 218.608 76.922 218.488 77.546 218.248C78.182 218.008 78.686 217.678 79.058 217.258C79.43 216.826 79.616 216.328 79.616 215.764C79.616 215.044 79.31 214.474 78.698 214.054C78.098 213.634 77.258 213.424 76.178 213.424L76.124 213.766C76.736 213.766 77.282 213.67 77.762 213.478C78.242 213.286 78.626 213.016 78.914 212.668C79.202 212.32 79.346 211.912 79.346 211.444C79.346 210.916 79.166 210.466 78.806 210.094C78.446 209.71 77.96 209.416 77.348 209.212C76.748 209.008 76.07 208.918 75.314 208.942C74.762 208.942 74.21 209.02 73.658 209.176C73.118 209.32 72.572 209.536 72.02 209.824L72.38 210.814C72.872 210.562 73.37 210.376 73.874 210.256C74.378 210.124 74.864 210.052 75.332 210.04C75.848 210.04 76.31 210.1 76.718 210.22C77.126 210.34 77.444 210.52 77.672 210.76C77.912 211 78.032 211.288 78.032 211.624C78.032 211.936 77.93 212.206 77.726 212.434C77.534 212.662 77.258 212.836 76.898 212.956C76.538 213.076 76.124 213.136 75.656 213.136H74.126V214.072H75.746C76.538 214.072 77.162 214.216 77.618 214.504C78.074 214.78 78.302 215.17 78.302 215.674C78.302 216.022 78.182 216.334 77.942 216.61C77.702 216.886 77.366 217.102 76.934 217.258C76.502 217.414 75.992 217.498 75.404 217.51C74.816 217.51 74.222 217.426 73.622 217.258C73.022 217.078 72.494 216.82 72.038 216.484L71.624 217.438C72.14 217.834 72.734 218.128 73.406 218.32C74.078 218.512 74.756 218.608 75.44 218.608ZM82.5172 218.5V209.05H86.6932C87.7612 209.05 88.6012 209.254 89.2132 209.662C89.8372 210.07 90.1492 210.67 90.1492 211.462C90.1492 212.23 89.8552 212.824 89.2672 213.244C88.6792 213.652 87.9052 213.856 86.9452 213.856L87.1972 213.478C88.3252 213.478 89.1532 213.688 89.6812 214.108C90.2092 214.528 90.4732 215.134 90.4732 215.926C90.4732 216.742 90.1732 217.378 89.5732 217.834C88.9852 218.278 88.0672 218.5 86.8192 218.5H82.5172ZM83.7592 217.492H86.7652C87.5692 217.492 88.1752 217.366 88.5832 217.114C89.0032 216.85 89.2132 216.43 89.2132 215.854C89.2132 215.278 89.0272 214.858 88.6552 214.594C88.2832 214.33 87.6952 214.198 86.8912 214.198H83.7592V217.492ZM83.7592 213.244H86.6032C87.3352 213.244 87.8932 213.106 88.2772 212.83C88.6732 212.554 88.8712 212.152 88.8712 211.624C88.8712 211.096 88.6732 210.7 88.2772 210.436C87.8932 210.172 87.3352 210.04 86.6032 210.04H83.7592V213.244ZM99.3364 218.5V216.412L99.2824 216.07V212.578C99.2824 211.774 99.0544 211.156 98.5984 210.724C98.1544 210.292 97.4884 210.076 96.6004 210.076C95.9884 210.076 95.4064 210.178 94.8544 210.382C94.3024 210.586 93.8344 210.856 93.4504 211.192L92.8744 210.238C93.3544 209.83 93.9304 209.518 94.6024 209.302C95.2744 209.074 95.9824 208.96 96.7264 208.96C97.9504 208.96 98.8924 209.266 99.5524 209.878C100.224 210.478 100.56 211.396 100.56 212.632V218.5H99.3364ZM96.0784 218.59C95.3704 218.59 94.7524 218.476 94.2244 218.248C93.7084 218.008 93.3124 217.684 93.0364 217.276C92.7604 216.856 92.6224 216.376 92.6224 215.836C92.6224 215.344 92.7364 214.9 92.9644 214.504C93.2044 214.096 93.5884 213.772 94.1164 213.532C94.6564 213.28 95.3764 213.154 96.2764 213.154H99.5344V214.108H96.3124C95.4004 214.108 94.7644 214.27 94.4044 214.594C94.0564 214.918 93.8824 215.32 93.8824 215.8C93.8824 216.34 94.0924 216.772 94.5124 217.096C94.9324 217.42 95.5204 217.582 96.2764 217.582C96.9964 217.582 97.6144 217.42 98.1304 217.096C98.6584 216.76 99.0424 216.28 99.2824 215.656L99.5704 216.538C99.3304 217.162 98.9104 217.66 98.3104 218.032C97.7224 218.404 96.9784 218.59 96.0784 218.59ZM108.673 218.5V209.05H112.849C113.917 209.05 114.757 209.254 115.369 209.662C115.993 210.07 116.305 210.67 116.305 211.462C116.305 212.23 116.011 212.824 115.423 213.244C114.835 213.652 114.061 213.856 113.101 213.856L113.353 213.478C114.481 213.478 115.309 213.688 115.837 214.108C116.365 214.528 116.629 215.134 116.629 215.926C116.629 216.742 116.329 217.378 115.729 217.834C115.141 218.278 114.223 218.5 112.975 218.5H108.673ZM109.915 217.492H112.921C113.725 217.492 114.331 217.366 114.739 217.114C115.159 216.85 115.369 216.43 115.369 215.854C115.369 215.278 115.183 214.858 114.811 214.594C114.439 214.33 113.851 214.198 113.047 214.198H109.915V217.492ZM109.915 213.244H112.759C113.491 213.244 114.049 213.106 114.433 212.83C114.829 212.554 115.027 212.152 115.027 211.624C115.027 211.096 114.829 210.7 114.433 210.436C114.049 210.172 113.491 210.04 112.759 210.04H109.915V213.244ZM119.625 218.5V209.05H120.903V216.556L127.221 209.05H128.355V218.5H127.077V210.976L120.777 218.5H119.625ZM136.895 218.59C136.079 218.59 135.341 218.404 134.681 218.032C134.021 217.648 133.493 217.102 133.097 216.394C132.713 215.674 132.521 214.798 132.521 213.766C132.521 212.734 132.713 211.864 133.097 211.156C133.481 210.436 134.003 209.89 134.663 209.518C135.323 209.146 136.067 208.96 136.895 208.96C137.795 208.96 138.599 209.164 139.307 209.572C140.027 209.968 140.591 210.532 140.999 211.264C141.407 211.984 141.611 212.818 141.611 213.766C141.611 214.726 141.407 215.566 140.999 216.286C140.591 217.006 140.027 217.57 139.307 217.978C138.599 218.386 137.795 218.59 136.895 218.59ZM132.017 221.992V209.05H133.241V211.894L133.115 213.784L133.295 215.692V221.992H132.017ZM136.805 217.456C137.477 217.456 138.077 217.306 138.605 217.006C139.133 216.694 139.553 216.262 139.865 215.71C140.177 215.146 140.333 214.498 140.333 213.766C140.333 213.034 140.177 212.392 139.865 211.84C139.553 211.288 139.133 210.856 138.605 210.544C138.077 210.232 137.477 210.076 136.805 210.076C136.133 210.076 135.527 210.232 134.987 210.544C134.459 210.856 134.039 211.288 133.727 211.84C133.427 212.392 133.277 213.034 133.277 213.766C133.277 214.498 133.427 215.146 133.727 215.71C134.039 216.262 134.459 216.694 134.987 217.006C135.527 217.306 136.133 217.456 136.805 217.456ZM148.245 218.59C147.333 218.59 146.511 218.386 145.779 217.978C145.059 217.558 144.489 216.988 144.069 216.268C143.649 215.536 143.439 214.702 143.439 213.766C143.439 212.818 143.649 211.984 144.069 211.264C144.489 210.544 145.059 209.98 145.779 209.572C146.499 209.164 147.321 208.96 148.245 208.96C149.181 208.96 150.009 209.164 150.729 209.572C151.461 209.98 152.031 210.544 152.439 211.264C152.859 211.984 153.069 212.818 153.069 213.766C153.069 214.702 152.859 215.536 152.439 216.268C152.031 216.988 151.461 217.558 150.729 217.978C149.997 218.386 149.169 218.59 148.245 218.59ZM148.245 217.456C148.929 217.456 149.535 217.306 150.063 217.006C150.591 216.694 151.005 216.262 151.305 215.71C151.617 215.146 151.773 214.498 151.773 213.766C151.773 213.022 151.617 212.374 151.305 211.822C151.005 211.27 150.591 210.844 150.063 210.544C149.535 210.232 148.935 210.076 148.263 210.076C147.591 210.076 146.991 210.232 146.463 210.544C145.935 210.844 145.515 211.27 145.203 211.822C144.891 212.374 144.735 213.022 144.735 213.766C144.735 214.498 144.891 215.146 145.203 215.71C145.515 216.262 145.935 216.694 146.463 217.006C146.991 217.306 147.585 217.456 148.245 217.456ZM160.048 218.608C159.28 218.608 158.596 218.482 157.996 218.23C157.408 217.978 156.904 217.594 156.484 217.078C156.064 216.562 155.746 215.926 155.53 215.17C155.314 214.402 155.206 213.514 155.206 212.506C155.206 211.606 155.29 210.82 155.458 210.148C155.626 209.464 155.86 208.876 156.16 208.384C156.46 207.892 156.808 207.478 157.204 207.142C157.612 206.794 158.05 206.518 158.518 206.314C158.998 206.098 159.49 205.936 159.994 205.828L164.242 204.838L164.458 206.026L160.462 206.926C160.21 206.986 159.904 207.07 159.544 207.178C159.196 207.286 158.836 207.448 158.464 207.664C158.104 207.88 157.768 208.18 157.456 208.564C157.144 208.948 156.892 209.446 156.7 210.058C156.52 210.658 156.43 211.408 156.43 212.308C156.43 212.5 156.436 212.656 156.448 212.776C156.46 212.884 156.472 213.004 156.484 213.136C156.508 213.256 156.526 213.436 156.538 213.676L155.98 213.208C156.112 212.476 156.382 211.84 156.79 211.3C157.198 210.748 157.708 210.322 158.32 210.022C158.944 209.71 159.634 209.554 160.39 209.554C161.266 209.554 162.046 209.746 162.73 210.13C163.414 210.502 163.948 211.024 164.332 211.696C164.728 212.368 164.926 213.148 164.926 214.036C164.926 214.912 164.722 215.698 164.314 216.394C163.918 217.09 163.354 217.636 162.622 218.032C161.89 218.416 161.032 218.608 160.048 218.608ZM160.192 217.546C160.864 217.546 161.458 217.396 161.974 217.096C162.49 216.784 162.892 216.364 163.18 215.836C163.48 215.308 163.63 214.714 163.63 214.054C163.63 213.406 163.48 212.83 163.18 212.326C162.892 211.822 162.49 211.426 161.974 211.138C161.458 210.838 160.858 210.688 160.174 210.688C159.502 210.688 158.908 210.832 158.392 211.12C157.876 211.396 157.468 211.786 157.168 212.29C156.88 212.794 156.736 213.376 156.736 214.036C156.736 214.696 156.88 215.29 157.168 215.818C157.468 216.346 157.876 216.766 158.392 217.078C158.92 217.39 159.52 217.546 160.192 217.546ZM167.564 222.082C167.12 222.082 166.694 222.01 166.286 221.866C165.89 221.722 165.548 221.506 165.26 221.218L165.854 220.264C166.094 220.492 166.352 220.666 166.628 220.786C166.916 220.918 167.234 220.984 167.582 220.984C168.002 220.984 168.362 220.864 168.662 220.624C168.974 220.396 169.268 219.988 169.544 219.4L170.156 218.014L170.3 217.816L174.188 209.05H175.448L170.714 219.634C170.45 220.246 170.156 220.732 169.832 221.092C169.52 221.452 169.178 221.704 168.806 221.848C168.434 222.004 168.02 222.082 167.564 222.082ZM170.084 218.77L165.728 209.05H167.06L170.912 217.726L170.084 218.77ZM185.03 218.608C184.118 218.608 183.254 218.464 182.438 218.176C181.634 217.876 180.986 217.48 180.494 216.988L181.124 215.962C181.532 216.382 182.078 216.73 182.762 217.006C183.458 217.282 184.214 217.42 185.03 217.42C186.074 217.42 186.872 217.192 187.424 216.736C187.988 216.28 188.27 215.668 188.27 214.9C188.27 214.132 187.994 213.52 187.442 213.064C186.902 212.608 186.044 212.38 184.868 212.38H183.968V211.426L187.856 206.548L188.036 207.052H181.016V205.9H189.116V206.818L185.228 211.696L184.598 211.282H185.084C186.596 211.282 187.724 211.618 188.468 212.29C189.224 212.962 189.602 213.826 189.602 214.882C189.602 215.59 189.434 216.226 189.098 216.79C188.762 217.354 188.252 217.798 187.568 218.122C186.896 218.446 186.05 218.608 185.03 218.608Z" fill="#454545"/>
<rect x="31" y="185" width="176" height="55" stroke="#DDDDE6" stroke-width="2"/>
<rect x="207" y="185" width="146.5" height="55" fill="white"/>
<path d="M223.212 218.5V205.9H228.63C229.998 205.9 231.072 206.176 231.852 206.728C232.632 207.28 233.022 208.084 233.022 209.14C233.022 210.172 232.65 210.964 231.906 211.516C231.162 212.056 230.184 212.326 228.972 212.326L229.296 211.786C230.7 211.786 231.774 212.068 232.518 212.632C233.274 213.184 233.652 213.994 233.652 215.062C233.652 216.142 233.256 216.988 232.464 217.6C231.684 218.2 230.52 218.5 228.972 218.5H223.212ZM224.994 217.078H228.936C229.896 217.078 230.616 216.904 231.096 216.556C231.588 216.196 231.834 215.65 231.834 214.918C231.834 214.186 231.588 213.652 231.096 213.316C230.616 212.98 229.896 212.812 228.936 212.812H224.994V217.078ZM224.994 211.444H228.504C229.38 211.444 230.046 211.27 230.502 210.922C230.97 210.574 231.204 210.064 231.204 209.392C231.204 208.708 230.97 208.192 230.502 207.844C230.046 207.496 229.38 207.322 228.504 207.322H224.994V211.444ZM245.291 218.608C244.331 218.608 243.479 218.398 242.735 217.978C241.991 217.558 241.403 216.982 240.971 216.25C240.539 215.506 240.323 214.666 240.323 213.73C240.323 212.782 240.539 211.942 240.971 211.21C241.403 210.478 241.991 209.908 242.735 209.5C243.479 209.08 244.331 208.87 245.291 208.87C246.239 208.87 247.085 209.08 247.829 209.5C248.585 209.908 249.173 210.478 249.593 211.21C250.025 211.93 250.241 212.77 250.241 213.73C250.241 214.678 250.025 215.518 249.593 216.25C249.173 216.982 248.585 217.558 247.829 217.978C247.085 218.398 246.239 218.608 245.291 218.608ZM245.291 217.096C245.903 217.096 246.449 216.958 246.929 216.682C247.421 216.406 247.805 216.016 248.081 215.512C248.357 214.996 248.495 214.402 248.495 213.73C248.495 213.046 248.357 212.458 248.081 211.966C247.805 211.462 247.421 211.072 246.929 210.796C246.449 210.52 245.903 210.382 245.291 210.382C244.679 210.382 244.133 210.52 243.653 210.796C243.173 211.072 242.789 211.462 242.501 211.966C242.213 212.458 242.069 213.046 242.069 213.73C242.069 214.402 242.213 214.996 242.501 215.512C242.789 216.016 243.173 216.406 243.653 216.682C244.133 216.958 244.679 217.096 245.291 217.096ZM258.749 214.594C258.245 214.834 257.723 215.026 257.183 215.17C256.655 215.302 256.109 215.368 255.545 215.368C254.393 215.368 253.481 215.098 252.809 214.558C252.149 214.018 251.819 213.184 251.819 212.056V208.96H253.547V211.948C253.547 212.632 253.757 213.136 254.177 213.46C254.609 213.784 255.185 213.946 255.905 213.946C256.361 213.946 256.829 213.886 257.309 213.766C257.801 213.646 258.281 213.478 258.749 213.262V214.594ZM258.623 218.5V208.96H260.351V218.5H258.623ZM263.705 218.5V208.96H265.433V218.5H263.705ZM264.569 207.124C264.233 207.124 263.951 207.016 263.723 206.8C263.507 206.584 263.399 206.32 263.399 206.008C263.399 205.684 263.507 205.414 263.723 205.198C263.951 204.982 264.233 204.874 264.569 204.874C264.905 204.874 265.181 204.982 265.397 205.198C265.625 205.402 265.739 205.66 265.739 205.972C265.739 206.296 265.631 206.572 265.415 206.8C265.199 207.016 264.917 207.124 264.569 207.124ZM275.715 218.5L272.025 213.856L273.447 212.992L277.749 218.5H275.715ZM268.803 218.5V208.96H270.531V218.5H268.803ZM270.009 214.468V212.992H273.159V214.468H270.009ZM273.591 213.928L271.989 213.712L275.643 208.96H277.497L273.591 213.928ZM279.502 222.1C279.046 222.1 278.602 222.022 278.17 221.866C277.738 221.722 277.366 221.506 277.054 221.218L277.792 219.922C278.032 220.15 278.296 220.324 278.584 220.444C278.872 220.564 279.178 220.624 279.502 220.624C279.922 220.624 280.27 220.516 280.546 220.3C280.822 220.084 281.08 219.7 281.32 219.148L281.914 217.834L282.094 217.618L285.838 208.96H287.53L282.904 219.454C282.628 220.126 282.316 220.654 281.968 221.038C281.632 221.422 281.26 221.692 280.852 221.848C280.444 222.016 279.994 222.1 279.502 222.1ZM281.77 218.806L277.414 208.96H279.214L282.922 217.456L281.77 218.806ZM289.299 218.5V208.96H293.727C294.843 208.96 295.719 209.176 296.355 209.608C297.003 210.028 297.327 210.628 297.327 211.408C297.327 212.188 297.021 212.794 296.409 213.226C295.809 213.646 295.011 213.856 294.015 213.856L294.285 213.388C295.425 213.388 296.271 213.598 296.823 214.018C297.375 214.438 297.651 215.056 297.651 215.872C297.651 216.7 297.339 217.348 296.715 217.816C296.103 218.272 295.161 218.5 293.889 218.5H289.299ZM290.991 217.168H293.763C294.483 217.168 295.023 217.06 295.383 216.844C295.743 216.616 295.923 216.256 295.923 215.764C295.923 215.26 295.755 214.894 295.419 214.666C295.095 214.426 294.579 214.306 293.871 214.306H290.991V217.168ZM290.991 213.064H293.583C294.243 213.064 294.741 212.944 295.077 212.704C295.425 212.452 295.599 212.104 295.599 211.66C295.599 211.204 295.425 210.862 295.077 210.634C294.741 210.406 294.243 210.292 293.583 210.292H290.991V213.064ZM306.206 218.5V216.484L306.116 216.106V212.668C306.116 211.936 305.9 211.372 305.468 210.976C305.048 210.568 304.412 210.364 303.56 210.364C302.996 210.364 302.444 210.46 301.904 210.652C301.364 210.832 300.908 211.078 300.536 211.39L299.816 210.094C300.308 209.698 300.896 209.398 301.58 209.194C302.276 208.978 303.002 208.87 303.758 208.87C305.066 208.87 306.074 209.188 306.782 209.824C307.49 210.46 307.844 211.432 307.844 212.74V218.5H306.206ZM303.074 218.608C302.366 218.608 301.742 218.488 301.202 218.248C300.674 218.008 300.266 217.678 299.978 217.258C299.69 216.826 299.546 216.34 299.546 215.8C299.546 215.284 299.666 214.816 299.906 214.396C300.158 213.976 300.56 213.64 301.112 213.388C301.676 213.136 302.432 213.01 303.38 213.01H306.404V214.252H303.452C302.588 214.252 302.006 214.396 301.706 214.684C301.406 214.972 301.256 215.32 301.256 215.728C301.256 216.196 301.442 216.574 301.814 216.862C302.186 217.138 302.702 217.276 303.362 217.276C304.01 217.276 304.574 217.132 305.054 216.844C305.546 216.556 305.9 216.136 306.116 215.584L306.458 216.772C306.23 217.336 305.828 217.786 305.252 218.122C304.676 218.446 303.95 218.608 303.074 218.608ZM310.955 218.5V208.96H312.683V213.01H318.119V208.96H319.847V218.5H318.119V214.504H312.683V218.5H310.955ZM323.207 218.5V208.96H324.935V213.01H330.371V208.96H332.099V218.5H330.371V214.504H324.935V218.5H323.207ZM335.459 218.5V208.96H337.187V218.5H335.459ZM336.323 207.124C335.987 207.124 335.705 207.016 335.477 206.8C335.261 206.584 335.153 206.32 335.153 206.008C335.153 205.684 335.261 205.414 335.477 205.198C335.705 204.982 335.987 204.874 336.323 204.874C336.659 204.874 336.935 204.982 337.151 205.198C337.379 205.402 337.493 205.66 337.493 205.972C337.493 206.296 337.385 206.572 337.169 206.8C336.953 207.016 336.671 207.124 336.323 207.124Z" fill="#454545"/>
<rect x="207" y="185" width="146.5" height="55" stroke="#DDDDE6" stroke-width="2"/>
<rect x="353.5" y="185" width="98" height="55" fill="white"/>
<circle cx="402.5" cy="212.5" r="12" fill="#80DA39" fill-opacity="0.1" stroke="#80DA39"/>
<path d="M398 212L401.5 215.5L408 209" stroke="#80DA39" stroke-width="2"/>
<rect x="353.5" y="185" width="98" height="55" stroke="#DDDDE6" stroke-width="2"/>
<rect x="451.5" y="185" width="146.5" height="55" fill="white"/>
<path d="M478.75 202.5L481.724 208.406L488.261 209.41L483.562 214.064L484.628 220.59L478.75 217.56L472.872 220.59L473.938 214.064L469.239 209.41L475.776 208.406L478.75 202.5Z" fill="#F28100"/>
<path d="M501.75 202.5L504.724 208.406L511.261 209.41L506.562 214.064L507.628 220.59L501.75 217.56L495.872 220.59L496.938 214.064L492.239 209.41L498.776 208.406L501.75 202.5Z" fill="#F28100"/>
<path d="M524.75 202.5L527.724 208.406L534.261 209.41L529.562 214.064L530.628 220.59L524.75 217.56L518.872 220.59L519.938 214.064L515.239 209.41L521.776 208.406L524.75 202.5Z" fill="#F28100"/>
<path d="M547.75 202.5L550.724 208.406L557.261 209.41L552.562 214.064L553.628 220.59L547.75 217.56L541.872 220.59L542.938 214.064L538.239 209.41L544.776 208.406L547.75 202.5Z" fill="#D5D5E4"/>
<path d="M570.75 202.5L573.724 208.406L580.261 209.41L575.562 214.064L576.628 220.59L570.75 217.56L564.872 220.59L565.938 214.064L561.239 209.41L567.776 208.406L570.75 202.5Z" fill="#D5D5E4"/>
<rect x="451.5" y="185" width="146.5" height="55" stroke="#DDDDE6" stroke-width="2"/>
</g>
<rect x="31" y="185" width="567" height="55" stroke="#DDDDE6" stroke-width="2"/>
<g clip-path="url(#clip5_1720_2684)">
<rect x="31" y="240" width="176" height="55" fill="white"/>
<path d="M57.34 260.9H58.654V273.5H57.34V260.9ZM49.456 273.5H48.124V260.9H49.456V273.5ZM57.466 267.686H49.312V266.516H57.466V267.686ZM68.4692 273.5V271.412L68.4152 271.07V267.578C68.4152 266.774 68.1872 266.156 67.7312 265.724C67.2872 265.292 66.6212 265.076 65.7332 265.076C65.1212 265.076 64.5392 265.178 63.9872 265.382C63.4352 265.586 62.9672 265.856 62.5832 266.192L62.0072 265.238C62.4872 264.83 63.0632 264.518 63.7352 264.302C64.4072 264.074 65.1152 263.96 65.8592 263.96C67.0832 263.96 68.0252 264.266 68.6852 264.878C69.3572 265.478 69.6932 266.396 69.6932 267.632V273.5H68.4692ZM65.2112 273.59C64.5032 273.59 63.8852 273.476 63.3572 273.248C62.8412 273.008 62.4452 272.684 62.1692 272.276C61.8932 271.856 61.7552 271.376 61.7552 270.836C61.7552 270.344 61.8692 269.9 62.0972 269.504C62.3372 269.096 62.7212 268.772 63.2492 268.532C63.7892 268.28 64.5092 268.154 65.4092 268.154H68.6672V269.108H65.4452C64.5332 269.108 63.8972 269.27 63.5372 269.594C63.1892 269.918 63.0152 270.32 63.0152 270.8C63.0152 271.34 63.2252 271.772 63.6452 272.096C64.0652 272.42 64.6532 272.582 65.4092 272.582C66.1292 272.582 66.7472 272.42 67.2632 272.096C67.7912 271.76 68.1752 271.28 68.4152 270.656L68.7032 271.538C68.4632 272.162 68.0432 272.66 67.4432 273.032C66.8552 273.404 66.1112 273.59 65.2112 273.59ZM75.44 273.608C76.22 273.608 76.922 273.488 77.546 273.248C78.182 273.008 78.686 272.678 79.058 272.258C79.43 271.826 79.616 271.328 79.616 270.764C79.616 270.044 79.31 269.474 78.698 269.054C78.098 268.634 77.258 268.424 76.178 268.424L76.124 268.766C76.736 268.766 77.282 268.67 77.762 268.478C78.242 268.286 78.626 268.016 78.914 267.668C79.202 267.32 79.346 266.912 79.346 266.444C79.346 265.916 79.166 265.466 78.806 265.094C78.446 264.71 77.96 264.416 77.348 264.212C76.748 264.008 76.07 263.918 75.314 263.942C74.762 263.942 74.21 264.02 73.658 264.176C73.118 264.32 72.572 264.536 72.02 264.824L72.38 265.814C72.872 265.562 73.37 265.376 73.874 265.256C74.378 265.124 74.864 265.052 75.332 265.04C75.848 265.04 76.31 265.1 76.718 265.22C77.126 265.34 77.444 265.52 77.672 265.76C77.912 266 78.032 266.288 78.032 266.624C78.032 266.936 77.93 267.206 77.726 267.434C77.534 267.662 77.258 267.836 76.898 267.956C76.538 268.076 76.124 268.136 75.656 268.136H74.126V269.072H75.746C76.538 269.072 77.162 269.216 77.618 269.504C78.074 269.78 78.302 270.17 78.302 270.674C78.302 271.022 78.182 271.334 77.942 271.61C77.702 271.886 77.366 272.102 76.934 272.258C76.502 272.414 75.992 272.498 75.404 272.51C74.816 272.51 74.222 272.426 73.622 272.258C73.022 272.078 72.494 271.82 72.038 271.484L71.624 272.438C72.14 272.834 72.734 273.128 73.406 273.32C74.078 273.512 74.756 273.608 75.44 273.608ZM82.5172 273.5V264.05H86.6932C87.7612 264.05 88.6012 264.254 89.2132 264.662C89.8372 265.07 90.1492 265.67 90.1492 266.462C90.1492 267.23 89.8552 267.824 89.2672 268.244C88.6792 268.652 87.9052 268.856 86.9452 268.856L87.1972 268.478C88.3252 268.478 89.1532 268.688 89.6812 269.108C90.2092 269.528 90.4732 270.134 90.4732 270.926C90.4732 271.742 90.1732 272.378 89.5732 272.834C88.9852 273.278 88.0672 273.5 86.8192 273.5H82.5172ZM83.7592 272.492H86.7652C87.5692 272.492 88.1752 272.366 88.5832 272.114C89.0032 271.85 89.2132 271.43 89.2132 270.854C89.2132 270.278 89.0272 269.858 88.6552 269.594C88.2832 269.33 87.6952 269.198 86.8912 269.198H83.7592V272.492ZM83.7592 268.244H86.6032C87.3352 268.244 87.8932 268.106 88.2772 267.83C88.6732 267.554 88.8712 267.152 88.8712 266.624C88.8712 266.096 88.6732 265.7 88.2772 265.436C87.8932 265.172 87.3352 265.04 86.6032 265.04H83.7592V268.244ZM99.3364 273.5V271.412L99.2824 271.07V267.578C99.2824 266.774 99.0544 266.156 98.5984 265.724C98.1544 265.292 97.4884 265.076 96.6004 265.076C95.9884 265.076 95.4064 265.178 94.8544 265.382C94.3024 265.586 93.8344 265.856 93.4504 266.192L92.8744 265.238C93.3544 264.83 93.9304 264.518 94.6024 264.302C95.2744 264.074 95.9824 263.96 96.7264 263.96C97.9504 263.96 98.8924 264.266 99.5524 264.878C100.224 265.478 100.56 266.396 100.56 267.632V273.5H99.3364ZM96.0784 273.59C95.3704 273.59 94.7524 273.476 94.2244 273.248C93.7084 273.008 93.3124 272.684 93.0364 272.276C92.7604 271.856 92.6224 271.376 92.6224 270.836C92.6224 270.344 92.7364 269.9 92.9644 269.504C93.2044 269.096 93.5884 268.772 94.1164 268.532C94.6564 268.28 95.3764 268.154 96.2764 268.154H99.5344V269.108H96.3124C95.4004 269.108 94.7644 269.27 94.4044 269.594C94.0564 269.918 93.8824 270.32 93.8824 270.8C93.8824 271.34 94.0924 271.772 94.5124 272.096C94.9324 272.42 95.5204 272.582 96.2764 272.582C96.9964 272.582 97.6144 272.42 98.1304 272.096C98.6584 271.76 99.0424 271.28 99.2824 270.656L99.5704 271.538C99.3304 272.162 98.9104 272.66 98.3104 273.032C97.7224 273.404 96.9784 273.59 96.0784 273.59ZM108.673 273.5V264.05H112.849C113.917 264.05 114.757 264.254 115.369 264.662C115.993 265.07 116.305 265.67 116.305 266.462C116.305 267.23 116.011 267.824 115.423 268.244C114.835 268.652 114.061 268.856 113.101 268.856L113.353 268.478C114.481 268.478 115.309 268.688 115.837 269.108C116.365 269.528 116.629 270.134 116.629 270.926C116.629 271.742 116.329 272.378 115.729 272.834C115.141 273.278 114.223 273.5 112.975 273.5H108.673ZM109.915 272.492H112.921C113.725 272.492 114.331 272.366 114.739 272.114C115.159 271.85 115.369 271.43 115.369 270.854C115.369 270.278 115.183 269.858 114.811 269.594C114.439 269.33 113.851 269.198 113.047 269.198H109.915V272.492ZM109.915 268.244H112.759C113.491 268.244 114.049 268.106 114.433 267.83C114.829 267.554 115.027 267.152 115.027 266.624C115.027 266.096 114.829 265.7 114.433 265.436C114.049 265.172 113.491 265.04 112.759 265.04H109.915V268.244ZM119.625 273.5V264.05H120.903V271.556L127.221 264.05H128.355V273.5H127.077V265.976L120.777 273.5H119.625ZM136.895 273.59C136.079 273.59 135.341 273.404 134.681 273.032C134.021 272.648 133.493 272.102 133.097 271.394C132.713 270.674 132.521 269.798 132.521 268.766C132.521 267.734 132.713 266.864 133.097 266.156C133.481 265.436 134.003 264.89 134.663 264.518C135.323 264.146 136.067 263.96 136.895 263.96C137.795 263.96 138.599 264.164 139.307 264.572C140.027 264.968 140.591 265.532 140.999 266.264C141.407 266.984 141.611 267.818 141.611 268.766C141.611 269.726 141.407 270.566 140.999 271.286C140.591 272.006 140.027 272.57 139.307 272.978C138.599 273.386 137.795 273.59 136.895 273.59ZM132.017 276.992V264.05H133.241V266.894L133.115 268.784L133.295 270.692V276.992H132.017ZM136.805 272.456C137.477 272.456 138.077 272.306 138.605 272.006C139.133 271.694 139.553 271.262 139.865 270.71C140.177 270.146 140.333 269.498 140.333 268.766C140.333 268.034 140.177 267.392 139.865 266.84C139.553 266.288 139.133 265.856 138.605 265.544C138.077 265.232 137.477 265.076 136.805 265.076C136.133 265.076 135.527 265.232 134.987 265.544C134.459 265.856 134.039 266.288 133.727 266.84C133.427 267.392 133.277 268.034 133.277 268.766C133.277 269.498 133.427 270.146 133.727 270.71C134.039 271.262 134.459 271.694 134.987 272.006C135.527 272.306 136.133 272.456 136.805 272.456ZM148.245 273.59C147.333 273.59 146.511 273.386 145.779 272.978C145.059 272.558 144.489 271.988 144.069 271.268C143.649 270.536 143.439 269.702 143.439 268.766C143.439 267.818 143.649 266.984 144.069 266.264C144.489 265.544 145.059 264.98 145.779 264.572C146.499 264.164 147.321 263.96 148.245 263.96C149.181 263.96 150.009 264.164 150.729 264.572C151.461 264.98 152.031 265.544 152.439 266.264C152.859 266.984 153.069 267.818 153.069 268.766C153.069 269.702 152.859 270.536 152.439 271.268C152.031 271.988 151.461 272.558 150.729 272.978C149.997 273.386 149.169 273.59 148.245 273.59ZM148.245 272.456C148.929 272.456 149.535 272.306 150.063 272.006C150.591 271.694 151.005 271.262 151.305 270.71C151.617 270.146 151.773 269.498 151.773 268.766C151.773 268.022 151.617 267.374 151.305 266.822C151.005 266.27 150.591 265.844 150.063 265.544C149.535 265.232 148.935 265.076 148.263 265.076C147.591 265.076 146.991 265.232 146.463 265.544C145.935 265.844 145.515 266.27 145.203 266.822C144.891 267.374 144.735 268.022 144.735 268.766C144.735 269.498 144.891 270.146 145.203 270.71C145.515 271.262 145.935 271.694 146.463 272.006C146.991 272.306 147.585 272.456 148.245 272.456ZM160.048 273.608C159.28 273.608 158.596 273.482 157.996 273.23C157.408 272.978 156.904 272.594 156.484 272.078C156.064 271.562 155.746 270.926 155.53 270.17C155.314 269.402 155.206 268.514 155.206 267.506C155.206 266.606 155.29 265.82 155.458 265.148C155.626 264.464 155.86 263.876 156.16 263.384C156.46 262.892 156.808 262.478 157.204 262.142C157.612 261.794 158.05 261.518 158.518 261.314C158.998 261.098 159.49 260.936 159.994 260.828L164.242 259.838L164.458 261.026L160.462 261.926C160.21 261.986 159.904 262.07 159.544 262.178C159.196 262.286 158.836 262.448 158.464 262.664C158.104 262.88 157.768 263.18 157.456 263.564C157.144 263.948 156.892 264.446 156.7 265.058C156.52 265.658 156.43 266.408 156.43 267.308C156.43 267.5 156.436 267.656 156.448 267.776C156.46 267.884 156.472 268.004 156.484 268.136C156.508 268.256 156.526 268.436 156.538 268.676L155.98 268.208C156.112 267.476 156.382 266.84 156.79 266.3C157.198 265.748 157.708 265.322 158.32 265.022C158.944 264.71 159.634 264.554 160.39 264.554C161.266 264.554 162.046 264.746 162.73 265.13C163.414 265.502 163.948 266.024 164.332 266.696C164.728 267.368 164.926 268.148 164.926 269.036C164.926 269.912 164.722 270.698 164.314 271.394C163.918 272.09 163.354 272.636 162.622 273.032C161.89 273.416 161.032 273.608 160.048 273.608ZM160.192 272.546C160.864 272.546 161.458 272.396 161.974 272.096C162.49 271.784 162.892 271.364 163.18 270.836C163.48 270.308 163.63 269.714 163.63 269.054C163.63 268.406 163.48 267.83 163.18 267.326C162.892 266.822 162.49 266.426 161.974 266.138C161.458 265.838 160.858 265.688 160.174 265.688C159.502 265.688 158.908 265.832 158.392 266.12C157.876 266.396 157.468 266.786 157.168 267.29C156.88 267.794 156.736 268.376 156.736 269.036C156.736 269.696 156.88 270.29 157.168 270.818C157.468 271.346 157.876 271.766 158.392 272.078C158.92 272.39 159.52 272.546 160.192 272.546ZM167.564 277.082C167.12 277.082 166.694 277.01 166.286 276.866C165.89 276.722 165.548 276.506 165.26 276.218L165.854 275.264C166.094 275.492 166.352 275.666 166.628 275.786C166.916 275.918 167.234 275.984 167.582 275.984C168.002 275.984 168.362 275.864 168.662 275.624C168.974 275.396 169.268 274.988 169.544 274.4L170.156 273.014L170.3 272.816L174.188 264.05H175.448L170.714 274.634C170.45 275.246 170.156 275.732 169.832 276.092C169.52 276.452 169.178 276.704 168.806 276.848C168.434 277.004 168.02 277.082 167.564 277.082ZM170.084 273.77L165.728 264.05H167.06L170.912 272.726L170.084 273.77ZM181.052 270.188V269.252L187.73 260.9H189.17L182.546 269.252L181.844 269.036H191.978V270.188H181.052ZM188.162 273.5V270.188L188.198 269.036V266.12H189.458V273.5H188.162Z" fill="#454545"/>
<rect x="31" y="240" width="176" height="55" stroke="#DDDDE6" stroke-width="2"/>
<rect x="207" y="240" width="146.5" height="55" fill="white"/>
<path d="M226.212 273.5V260.9H231.63C232.998 260.9 234.072 261.176 234.852 261.728C235.632 262.28 236.022 263.084 236.022 264.14C236.022 265.172 235.65 265.964 234.906 266.516C234.162 267.056 233.184 267.326 231.972 267.326L232.296 266.786C233.7 266.786 234.774 267.068 235.518 267.632C236.274 268.184 236.652 268.994 236.652 270.062C236.652 271.142 236.256 271.988 235.464 272.6C234.684 273.2 233.52 273.5 231.972 273.5H226.212ZM227.994 272.078H231.936C232.896 272.078 233.616 271.904 234.096 271.556C234.588 271.196 234.834 270.65 234.834 269.918C234.834 269.186 234.588 268.652 234.096 268.316C233.616 267.98 232.896 267.812 231.936 267.812H227.994V272.078ZM227.994 266.444H231.504C232.38 266.444 233.046 266.27 233.502 265.922C233.97 265.574 234.204 265.064 234.204 264.392C234.204 263.708 233.97 263.192 233.502 262.844C233.046 262.496 232.38 262.322 231.504 262.322H227.994V266.444ZM244.205 273.5V263.96H245.933V268.01H251.369V263.96H253.097V273.5H251.369V269.504H245.933V273.5H244.205ZM262.307 273.5V271.484L262.217 271.106V267.668C262.217 266.936 262.001 266.372 261.569 265.976C261.149 265.568 260.513 265.364 259.661 265.364C259.097 265.364 258.545 265.46 258.005 265.652C257.465 265.832 257.009 266.078 256.637 266.39L255.917 265.094C256.409 264.698 256.997 264.398 257.681 264.194C258.377 263.978 259.103 263.87 259.859 263.87C261.167 263.87 262.175 264.188 262.883 264.824C263.591 265.46 263.945 266.432 263.945 267.74V273.5H262.307ZM259.175 273.608C258.467 273.608 257.843 273.488 257.303 273.248C256.775 273.008 256.367 272.678 256.079 272.258C255.791 271.826 255.647 271.34 255.647 270.8C255.647 270.284 255.767 269.816 256.007 269.396C256.259 268.976 256.661 268.64 257.213 268.388C257.777 268.136 258.533 268.01 259.481 268.01H262.505V269.252H259.553C258.689 269.252 258.107 269.396 257.807 269.684C257.507 269.972 257.357 270.32 257.357 270.728C257.357 271.196 257.543 271.574 257.915 271.862C258.287 272.138 258.803 272.276 259.463 272.276C260.111 272.276 260.675 272.132 261.155 271.844C261.647 271.556 262.001 271.136 262.217 270.584L262.559 271.772C262.331 272.336 261.929 272.786 261.353 273.122C260.777 273.446 260.051 273.608 259.175 273.608ZM273.159 273.5V270.152L273.429 270.476H270.387C269.115 270.476 268.119 270.206 267.399 269.666C266.691 269.126 266.337 268.34 266.337 267.308C266.337 266.204 266.715 265.37 267.471 264.806C268.239 264.242 269.259 263.96 270.531 263.96H274.707V273.5H273.159ZM266.247 273.5L268.839 269.846H270.621L268.101 273.5H266.247ZM273.159 269.612V264.986L273.429 265.472H270.585C269.793 265.472 269.181 265.622 268.749 265.922C268.317 266.21 268.101 266.69 268.101 267.362C268.101 268.61 268.905 269.234 270.513 269.234H273.429L273.159 269.612ZM278.078 273.5V263.96H282.506C283.622 263.96 284.498 264.176 285.134 264.608C285.782 265.028 286.106 265.628 286.106 266.408C286.106 267.188 285.8 267.794 285.188 268.226C284.588 268.646 283.79 268.856 282.794 268.856L283.064 268.388C284.204 268.388 285.05 268.598 285.602 269.018C286.154 269.438 286.43 270.056 286.43 270.872C286.43 271.7 286.118 272.348 285.494 272.816C284.882 273.272 283.94 273.5 282.668 273.5H278.078ZM279.77 272.168H282.542C283.262 272.168 283.802 272.06 284.162 271.844C284.522 271.616 284.702 271.256 284.702 270.764C284.702 270.26 284.534 269.894 284.198 269.666C283.874 269.426 283.358 269.306 282.65 269.306H279.77V272.168ZM279.77 268.064H282.362C283.022 268.064 283.52 267.944 283.856 267.704C284.204 267.452 284.378 267.104 284.378 266.66C284.378 266.204 284.204 265.862 283.856 265.634C283.52 265.406 283.022 265.292 282.362 265.292H279.77V268.064ZM289.135 273.5V263.96H290.863V268.01H296.299V263.96H298.027V273.5H296.299V269.504H290.863V273.5H289.135ZM305.473 273.608C304.513 273.608 303.661 273.398 302.917 272.978C302.173 272.558 301.585 271.982 301.153 271.25C300.721 270.506 300.505 269.666 300.505 268.73C300.505 267.782 300.721 266.942 301.153 266.21C301.585 265.478 302.173 264.908 302.917 264.5C303.661 264.08 304.513 263.87 305.473 263.87C306.421 263.87 307.267 264.08 308.011 264.5C308.767 264.908 309.355 265.478 309.775 266.21C310.207 266.93 310.423 267.77 310.423 268.73C310.423 269.678 310.207 270.518 309.775 271.25C309.355 271.982 308.767 272.558 308.011 272.978C307.267 273.398 306.421 273.608 305.473 273.608ZM305.473 272.096C306.085 272.096 306.631 271.958 307.111 271.682C307.603 271.406 307.987 271.016 308.263 270.512C308.539 269.996 308.677 269.402 308.677 268.73C308.677 268.046 308.539 267.458 308.263 266.966C307.987 266.462 307.603 266.072 307.111 265.796C306.631 265.52 306.085 265.382 305.473 265.382C304.861 265.382 304.315 265.52 303.835 265.796C303.355 266.072 302.971 266.462 302.683 266.966C302.395 267.458 302.251 268.046 302.251 268.73C302.251 269.402 302.395 269.996 302.683 270.512C302.971 271.016 303.355 271.406 303.835 271.682C304.315 271.958 304.861 272.096 305.473 272.096ZM317.076 273.608C316.104 273.608 315.234 273.398 314.466 272.978C313.71 272.558 313.116 271.982 312.684 271.25C312.252 270.518 312.036 269.678 312.036 268.73C312.036 267.782 312.252 266.942 312.684 266.21C313.116 265.478 313.71 264.908 314.466 264.5C315.234 264.08 316.104 263.87 317.076 263.87C317.94 263.87 318.708 264.044 319.38 264.392C320.064 264.728 320.592 265.232 320.964 265.904L319.65 266.75C319.338 266.282 318.954 265.94 318.498 265.724C318.054 265.496 317.574 265.382 317.058 265.382C316.434 265.382 315.876 265.52 315.384 265.796C314.892 266.072 314.502 266.462 314.214 266.966C313.926 267.458 313.782 268.046 313.782 268.73C313.782 269.414 313.926 270.008 314.214 270.512C314.502 271.016 314.892 271.406 315.384 271.682C315.876 271.958 316.434 272.096 317.058 272.096C317.574 272.096 318.054 271.988 318.498 271.772C318.954 271.544 319.338 271.196 319.65 270.728L320.964 271.556C320.592 272.216 320.064 272.726 319.38 273.086C318.708 273.434 317.94 273.608 317.076 273.608ZM324.968 273.5V265.022L325.4 265.472H321.476V263.96H330.188V265.472H326.282L326.696 265.022V273.5H324.968ZM331.955 273.5V263.96H333.683V273.5H331.955ZM332.819 262.124C332.483 262.124 332.201 262.016 331.973 261.8C331.757 261.584 331.649 261.32 331.649 261.008C331.649 260.684 331.757 260.414 331.973 260.198C332.201 259.982 332.483 259.874 332.819 259.874C333.155 259.874 333.431 259.982 333.647 260.198C333.875 260.402 333.989 260.66 333.989 260.972C333.989 261.296 333.881 261.572 333.665 261.8C333.449 262.016 333.167 262.124 332.819 262.124Z" fill="#454545"/>
<rect x="207" y="240" width="146.5" height="55" stroke="#DDDDE6" stroke-width="2"/>
<rect x="353.5" y="240" width="98" height="55" fill="white"/>
<circle cx="402.5" cy="267.5" r="12" fill="#80DA39" fill-opacity="0.1" stroke="#80DA39"/>
<path d="M398 267L401.5 270.5L408 264" stroke="#80DA39" stroke-width="2"/>
<rect x="353.5" y="240" width="98" height="55" stroke="#DDDDE6" stroke-width="2"/>
<rect x="451.5" y="240" width="146.5" height="55" fill="white"/>
<path d="M478.75 257.5L481.724 263.406L488.261 264.41L483.562 269.064L484.628 275.59L478.75 272.56L472.872 275.59L473.938 269.064L469.239 264.41L475.776 263.406L478.75 257.5Z" fill="#F28100"/>
<path d="M501.75 257.5L504.724 263.406L511.261 264.41L506.562 269.064L507.628 275.59L501.75 272.56L495.872 275.59L496.938 269.064L492.239 264.41L498.776 263.406L501.75 257.5Z" fill="#F28100"/>
<path d="M524.75 257.5L527.724 263.406L534.261 264.41L529.562 269.064L530.628 275.59L524.75 272.56L518.872 275.59L519.938 269.064L515.239 264.41L521.776 263.406L524.75 257.5Z" fill="#F28100"/>
<path d="M547.75 257.5L550.724 263.406L557.261 264.41L552.562 269.064L553.628 275.59L547.75 272.56L541.872 275.59L542.938 269.064L538.239 264.41L544.776 263.406L547.75 257.5Z" fill="#F28100"/>
<path d="M570.75 257.5L573.724 263.406L580.261 264.41L575.562 269.064L576.628 275.59L570.75 272.56L564.872 275.59L565.938 269.064L561.239 264.41L567.776 263.406L570.75 257.5Z" fill="#D5D5E4"/>
<rect x="451.5" y="240" width="146.5" height="55" stroke="#DDDDE6" stroke-width="2"/>
</g>
<rect x="31" y="240" width="567" height="55" stroke="#DDDDE6" stroke-width="2"/>
</g>
<rect x="31" y="27" width="567" height="268" rx="15" stroke="#DDDDE6" stroke-width="2"/>
<defs>
<clipPath id="clip0_1720_2684">
<rect x="31" y="27" width="567" height="268" rx="15" fill="white"/>
</clipPath>
<clipPath id="clip1_1720_2684">
<rect width="567" height="48" fill="white" transform="translate(31 27)"/>
</clipPath>
<clipPath id="clip2_1720_2684">
<rect x="31" y="75" width="567" height="55" fill="white"/>
</clipPath>
<clipPath id="clip3_1720_2684">
<rect x="31" y="130" width="567" height="55" fill="white"/>
</clipPath>
<clipPath id="clip4_1720_2684">
<rect x="31" y="185" width="567" height="55" fill="white"/>
</clipPath>
<clipPath id="clip5_1720_2684">
<rect x="31" y="240" width="567" height="55" fill="white"/>
</clipPath>
</defs>
</svg>
