<svg width="712" height="458" viewBox="0 0 712 458" fill="none" xmlns="http://www.w3.org/2000/svg">
<path d="M62.5 77C62.5 74.5147 64.5147 72.5 67 72.5H200.5V111.5H62.5V77Z" fill="#F9F9FB" stroke="#DDDDE6"/>
<rect x="200.5" y="72.5" width="142" height="39" fill="#F9F9FB" stroke="#DDDDE6"/>
<rect x="342.5" y="72.5" width="142" height="39" fill="#F9F9FB" stroke="#DDDDE6"/>
<path d="M484.5 72.5H642C644.485 72.5 646.5 74.5147 646.5 77V111.5H484.5V72.5Z" fill="#F9F9FB" stroke="#DDDDE6"/>
<rect x="62.5" y="111.5" width="138" height="39" fill="white" stroke="#DDDDE6"/>
<rect x="62.5" y="150.5" width="138" height="39" fill="white" stroke="#DDDDE6"/>
<rect x="62.5" y="189.5" width="138" height="39" fill="white" stroke="#DDDDE6"/>
<rect x="62.5" y="228.5" width="138" height="39" fill="white" stroke="#DDDDE6"/>
<rect x="62.5" y="267.5" width="138" height="39" fill="white" stroke="#DDDDE6"/>
<rect x="62.5" y="306.5" width="138" height="39" fill="white" stroke="#DDDDE6"/>
<path d="M62.5 345.5H200.5V384.5H67C64.5147 384.5 62.5 382.485 62.5 380V345.5Z" fill="white" stroke="#DDDDE6"/>
<rect x="200.5" y="111.5" width="142" height="39" fill="white" stroke="#DDDDE6"/>
<rect x="200.5" y="150.5" width="142" height="39" fill="white" stroke="#DDDDE6"/>
<rect x="200.5" y="189.5" width="142" height="39" fill="white" stroke="#DDDDE6"/>
<rect x="200.5" y="228.5" width="142" height="39" fill="white" stroke="#DDDDE6"/>
<rect x="200.5" y="267.5" width="142" height="39" fill="white" stroke="#DDDDE6"/>
<rect x="200.5" y="306.5" width="142" height="39" fill="white" stroke="#DDDDE6"/>
<rect x="200.5" y="345.5" width="142" height="39" fill="white" stroke="#DDDDE6"/>
<rect x="342.5" y="111.5" width="142" height="39" fill="white" stroke="#DDDDE6"/>
<rect x="342.5" y="150.5" width="142" height="39" fill="white" stroke="#DDDDE6"/>
<rect x="342.5" y="189.5" width="142" height="39" fill="white" stroke="#DDDDE6"/>
<rect x="342.5" y="228.5" width="142" height="39" fill="white" stroke="#DDDDE6"/>
<rect x="342.5" y="267.5" width="142" height="39" fill="white" stroke="#DDDDE6"/>
<rect x="484.5" y="267.5" width="162" height="39" fill="white" stroke="#DDDDE6"/>
<rect x="342.5" y="306.5" width="142" height="39" fill="white" stroke="#DDDDE6"/>
<rect x="484.5" y="306.5" width="162" height="39" fill="white" stroke="#DDDDE6"/>
<rect x="342.5" y="345.5" width="142" height="39" fill="white" stroke="#DDDDE6"/>
<rect x="484.5" y="111.5" width="162" height="39" fill="white" stroke="#DDDDE6"/>
<rect x="484.5" y="150.5" width="162" height="39" fill="white" stroke="#DDDDE6"/>
<rect x="484.5" y="189.5" width="162" height="39" fill="white" stroke="#DDDDE6"/>
<rect x="484.5" y="228.5" width="162" height="39" fill="white" stroke="#DDDDE6"/>
<path d="M484.5 345.5H646.5V380C646.5 382.485 644.485 384.5 642 384.5H484.5V345.5Z" fill="white" stroke="#DDDDE6"/>
<path d="M79.252 85.4V87.29H83.428V98H85.48V87.29H89.638V85.4H79.252ZM88.543 93.68C88.543 96.668 90.811 98.234 93.223 98.234C95.653 98.234 97.903 96.668 97.903 93.68C97.903 90.692 95.653 89.126 93.223 89.126C90.811 89.126 88.543 90.692 88.543 93.68ZM95.941 93.68C95.941 95.372 94.825 96.47 93.223 96.47C91.603 96.47 90.487 95.372 90.487 93.68C90.487 91.988 91.603 90.89 93.223 90.89C94.825 90.89 95.941 91.988 95.941 93.68ZM104.846 98C106.844 98 107.69 96.956 107.69 95.624C107.69 94.562 107.024 93.878 106.214 93.626C106.952 93.302 107.438 92.618 107.438 91.664C107.438 90.314 106.448 89.36 104.702 89.36H99.7705V98H104.846ZM101.696 94.328H104.414C105.08 94.328 105.746 94.562 105.746 95.444C105.746 96.272 105.17 96.542 104.378 96.542H101.696V94.328ZM101.696 90.818H104.27C104.864 90.818 105.494 91.07 105.494 91.916C105.494 92.69 104.954 92.96 104.27 92.96H101.696V90.818ZM116.994 96.002V92.906C116.994 90.296 115.446 89.126 112.998 89.126C111.612 89.126 110.37 89.468 109.686 89.702V91.466C110.46 91.124 111.522 90.8 112.8 90.8C114.276 90.8 115.068 91.556 115.068 92.636V92.942C114.384 92.798 113.556 92.69 112.818 92.69C111.018 92.69 108.966 93.374 108.966 95.588C108.966 97.37 110.424 98.234 111.99 98.234C113.34 98.234 114.402 97.802 115.248 97.118C115.554 97.82 116.184 98.126 116.976 98.126C117.408 98.126 117.84 98.054 118.2 97.91V96.524C118.02 96.578 117.822 96.632 117.624 96.632C117.282 96.632 116.994 96.488 116.994 96.002ZM113.196 94.04C113.808 94.04 114.546 94.148 115.068 94.256V95.714C114.384 96.398 113.484 96.74 112.566 96.74C111.702 96.74 110.946 96.308 110.946 95.462C110.946 94.382 112.098 94.04 113.196 94.04ZM121.361 90.71V89.36H119.651V101.96H121.577V96.884C122.171 97.568 123.179 98.234 124.691 98.234C127.283 98.234 128.975 96.164 128.975 93.68C128.975 91.196 127.283 89.126 124.691 89.126C123.071 89.126 122.045 89.882 121.361 90.71ZM127.013 93.68C127.013 95.372 125.897 96.542 124.331 96.542C122.999 96.542 121.991 95.678 121.577 94.724V92.618C121.991 91.682 122.999 90.818 124.331 90.818C125.897 90.818 127.013 91.988 127.013 93.68ZM132.505 98L137.131 92.348V98H139.057V89.36H137.401L132.775 95.012V89.36H130.849V98H132.505Z" fill="#454545"/>
<path d="M79.252 123.4H89.62V124.84H85.192V136H83.68V124.84H79.252V123.4ZM89.9126 135.01C89.0006 134.194 88.5446 133.084 88.5446 131.68C88.5446 130.276 89.0006 129.172 89.9126 128.368C90.8246 127.552 91.9046 127.144 93.1526 127.144C94.4126 127.144 95.4926 127.552 96.3926 128.368C97.3046 129.172 97.7606 130.276 97.7606 131.68C97.7606 133.084 97.3046 134.194 96.3926 135.01C95.4926 135.814 94.4126 136.216 93.1526 136.216C91.9046 136.216 90.8246 135.814 89.9126 135.01ZM95.4206 134.002C96.0206 133.426 96.3206 132.652 96.3206 131.68C96.3206 130.708 96.0206 129.94 95.4206 129.376C94.8206 128.8 94.0646 128.512 93.1526 128.512C92.2406 128.512 91.4846 128.8 90.8846 129.376C90.2846 129.94 89.9846 130.708 89.9846 131.68C89.9846 132.652 90.2846 133.426 90.8846 134.002C91.4846 134.566 92.2406 134.848 93.1526 134.848C94.0646 134.848 94.8206 134.566 95.4206 134.002ZM104.704 136H99.8261V127.36H104.56C105.34 127.36 105.976 127.564 106.468 127.972C106.972 128.38 107.224 128.956 107.224 129.7C107.224 130.132 107.116 130.522 106.9 130.87C106.684 131.218 106.408 131.464 106.072 131.608C106.468 131.74 106.804 131.98 107.08 132.328C107.356 132.676 107.494 133.102 107.494 133.606C107.494 134.338 107.254 134.92 106.774 135.352C106.306 135.784 105.616 136 104.704 136ZM101.266 132.256V134.74H104.506C105.538 134.74 106.054 134.332 106.054 133.516C106.054 132.676 105.556 132.256 104.56 132.256H101.266ZM101.266 128.62V131.014H104.416C105.316 131.014 105.766 130.624 105.766 129.844C105.766 129.4 105.634 129.088 105.37 128.908C105.106 128.716 104.788 128.62 104.416 128.62H101.266ZM116.707 134.2C116.707 134.644 116.929 134.866 117.373 134.866C117.565 134.866 117.787 134.824 118.039 134.74V135.91C117.679 136.042 117.319 136.108 116.959 136.108C116.131 136.108 115.603 135.76 115.375 135.064C114.451 135.832 113.329 136.216 112.009 136.216C111.169 136.216 110.449 135.994 109.849 135.55C109.261 135.094 108.967 134.44 108.967 133.588C108.967 132.568 109.345 131.83 110.101 131.374C110.869 130.906 111.793 130.672 112.873 130.672C113.665 130.672 114.463 130.762 115.267 130.942V130.636C115.267 129.976 115.051 129.454 114.619 129.07C114.187 128.674 113.581 128.476 112.801 128.476C111.709 128.476 110.659 128.692 109.651 129.124V127.72C110.779 127.336 111.877 127.144 112.945 127.144C114.121 127.144 115.039 127.462 115.699 128.098C116.371 128.722 116.707 129.628 116.707 130.816V134.2ZM110.443 133.516C110.443 133.996 110.623 134.362 110.983 134.614C111.355 134.854 111.799 134.974 112.315 134.974C113.503 134.974 114.487 134.554 115.267 133.714V132.13C114.451 131.962 113.719 131.878 113.071 131.878C112.339 131.878 111.715 132.01 111.199 132.274C110.695 132.526 110.443 132.94 110.443 133.516ZM120.88 128.8C121.852 127.696 123.016 127.144 124.372 127.144C125.608 127.144 126.634 127.576 127.45 128.44C128.278 129.304 128.692 130.384 128.692 131.68C128.692 132.976 128.278 134.056 127.45 134.92C126.634 135.784 125.608 136.216 124.372 136.216C123.004 136.216 121.888 135.712 121.024 134.704V139.96H119.584V127.36H120.88V128.8ZM126.37 134.002C126.958 133.414 127.252 132.64 127.252 131.68C127.252 130.72 126.958 129.946 126.37 129.358C125.794 128.77 125.074 128.476 124.21 128.476C123.478 128.476 122.83 128.68 122.266 129.088C121.702 129.496 121.288 130 121.024 130.6V132.76C121.288 133.36 121.702 133.864 122.266 134.272C122.83 134.68 123.478 134.884 124.21 134.884C125.074 134.884 125.794 134.59 126.37 134.002ZM137.838 123.76H138.954V134.56H141.24V136H134.868V134.56H137.442V125.362L134.868 126.334V124.894L137.838 123.76Z" fill="#454545"/>
<path d="M79.252 162.4H89.62V163.84H85.192V175H83.68V163.84H79.252V162.4ZM89.9126 174.01C89.0006 173.194 88.5446 172.084 88.5446 170.68C88.5446 169.276 89.0006 168.172 89.9126 167.368C90.8246 166.552 91.9046 166.144 93.1526 166.144C94.4126 166.144 95.4926 166.552 96.3926 167.368C97.3046 168.172 97.7606 169.276 97.7606 170.68C97.7606 172.084 97.3046 173.194 96.3926 174.01C95.4926 174.814 94.4126 175.216 93.1526 175.216C91.9046 175.216 90.8246 174.814 89.9126 174.01ZM95.4206 173.002C96.0206 172.426 96.3206 171.652 96.3206 170.68C96.3206 169.708 96.0206 168.94 95.4206 168.376C94.8206 167.8 94.0646 167.512 93.1526 167.512C92.2406 167.512 91.4846 167.8 90.8846 168.376C90.2846 168.94 89.9846 169.708 89.9846 170.68C89.9846 171.652 90.2846 172.426 90.8846 173.002C91.4846 173.566 92.2406 173.848 93.1526 173.848C94.0646 173.848 94.8206 173.566 95.4206 173.002ZM104.704 175H99.8261V166.36H104.56C105.34 166.36 105.976 166.564 106.468 166.972C106.972 167.38 107.224 167.956 107.224 168.7C107.224 169.132 107.116 169.522 106.9 169.87C106.684 170.218 106.408 170.464 106.072 170.608C106.468 170.74 106.804 170.98 107.08 171.328C107.356 171.676 107.494 172.102 107.494 172.606C107.494 173.338 107.254 173.92 106.774 174.352C106.306 174.784 105.616 175 104.704 175ZM101.266 171.256V173.74H104.506C105.538 173.74 106.054 173.332 106.054 172.516C106.054 171.676 105.556 171.256 104.56 171.256H101.266ZM101.266 167.62V170.014H104.416C105.316 170.014 105.766 169.624 105.766 168.844C105.766 168.4 105.634 168.088 105.37 167.908C105.106 167.716 104.788 167.62 104.416 167.62H101.266ZM116.707 173.2C116.707 173.644 116.929 173.866 117.373 173.866C117.565 173.866 117.787 173.824 118.039 173.74V174.91C117.679 175.042 117.319 175.108 116.959 175.108C116.131 175.108 115.603 174.76 115.375 174.064C114.451 174.832 113.329 175.216 112.009 175.216C111.169 175.216 110.449 174.994 109.849 174.55C109.261 174.094 108.967 173.44 108.967 172.588C108.967 171.568 109.345 170.83 110.101 170.374C110.869 169.906 111.793 169.672 112.873 169.672C113.665 169.672 114.463 169.762 115.267 169.942V169.636C115.267 168.976 115.051 168.454 114.619 168.07C114.187 167.674 113.581 167.476 112.801 167.476C111.709 167.476 110.659 167.692 109.651 168.124V166.72C110.779 166.336 111.877 166.144 112.945 166.144C114.121 166.144 115.039 166.462 115.699 167.098C116.371 167.722 116.707 168.628 116.707 169.816V173.2ZM110.443 172.516C110.443 172.996 110.623 173.362 110.983 173.614C111.355 173.854 111.799 173.974 112.315 173.974C113.503 173.974 114.487 173.554 115.267 172.714V171.13C114.451 170.962 113.719 170.878 113.071 170.878C112.339 170.878 111.715 171.01 111.199 171.274C110.695 171.526 110.443 171.94 110.443 172.516ZM120.88 167.8C121.852 166.696 123.016 166.144 124.372 166.144C125.608 166.144 126.634 166.576 127.45 167.44C128.278 168.304 128.692 169.384 128.692 170.68C128.692 171.976 128.278 173.056 127.45 173.92C126.634 174.784 125.608 175.216 124.372 175.216C123.004 175.216 121.888 174.712 121.024 173.704V178.96H119.584V166.36H120.88V167.8ZM126.37 173.002C126.958 172.414 127.252 171.64 127.252 170.68C127.252 169.72 126.958 168.946 126.37 168.358C125.794 167.77 125.074 167.476 124.21 167.476C123.478 167.476 122.83 167.68 122.266 168.088C121.702 168.496 121.288 169 121.024 169.6V171.76C121.288 172.36 121.702 172.864 122.266 173.272C122.83 173.68 123.478 173.884 124.21 173.884C125.074 173.884 125.794 173.59 126.37 173.002ZM135.138 163.732C136.278 162.94 137.586 162.544 139.062 162.544C140.334 162.544 141.348 162.832 142.104 163.408C142.86 163.984 143.238 164.788 143.238 165.82C143.238 166.312 143.142 166.774 142.95 167.206C142.77 167.638 142.494 168.034 142.122 168.394C141.762 168.754 141.408 169.06 141.06 169.312C140.724 169.552 140.298 169.822 139.782 170.122C139.722 170.158 139.536 170.266 139.224 170.446C138.924 170.626 138.732 170.74 138.648 170.788C138.576 170.836 138.408 170.944 138.144 171.112C137.892 171.268 137.724 171.382 137.64 171.454C137.568 171.526 137.436 171.64 137.244 171.796C137.064 171.952 136.938 172.084 136.866 172.192C136.806 172.3 136.722 172.438 136.614 172.606C136.518 172.762 136.452 172.918 136.416 173.074C136.38 173.23 136.362 173.398 136.362 173.578L143.328 173.56V175H134.706V174.28C134.706 173.608 134.814 173.002 135.03 172.462C135.246 171.91 135.552 171.442 135.948 171.058C136.356 170.662 136.758 170.332 137.154 170.068C137.55 169.792 138.012 169.498 138.54 169.186C138.66 169.126 138.75 169.078 138.81 169.042C139.902 168.406 140.616 167.92 140.952 167.584C141.468 167.056 141.726 166.462 141.726 165.802C141.726 165.202 141.48 164.746 140.988 164.434C140.508 164.11 139.824 163.948 138.936 163.948C137.64 163.948 136.374 164.38 135.138 165.244V163.732Z" fill="#454545"/>
<path d="M79.252 201.4H89.62V202.84H85.192V214H83.68V202.84H79.252V201.4ZM89.9126 213.01C89.0006 212.194 88.5446 211.084 88.5446 209.68C88.5446 208.276 89.0006 207.172 89.9126 206.368C90.8246 205.552 91.9046 205.144 93.1526 205.144C94.4126 205.144 95.4926 205.552 96.3926 206.368C97.3046 207.172 97.7606 208.276 97.7606 209.68C97.7606 211.084 97.3046 212.194 96.3926 213.01C95.4926 213.814 94.4126 214.216 93.1526 214.216C91.9046 214.216 90.8246 213.814 89.9126 213.01ZM95.4206 212.002C96.0206 211.426 96.3206 210.652 96.3206 209.68C96.3206 208.708 96.0206 207.94 95.4206 207.376C94.8206 206.8 94.0646 206.512 93.1526 206.512C92.2406 206.512 91.4846 206.8 90.8846 207.376C90.2846 207.94 89.9846 208.708 89.9846 209.68C89.9846 210.652 90.2846 211.426 90.8846 212.002C91.4846 212.566 92.2406 212.848 93.1526 212.848C94.0646 212.848 94.8206 212.566 95.4206 212.002ZM104.704 214H99.8261V205.36H104.56C105.34 205.36 105.976 205.564 106.468 205.972C106.972 206.38 107.224 206.956 107.224 207.7C107.224 208.132 107.116 208.522 106.9 208.87C106.684 209.218 106.408 209.464 106.072 209.608C106.468 209.74 106.804 209.98 107.08 210.328C107.356 210.676 107.494 211.102 107.494 211.606C107.494 212.338 107.254 212.92 106.774 213.352C106.306 213.784 105.616 214 104.704 214ZM101.266 210.256V212.74H104.506C105.538 212.74 106.054 212.332 106.054 211.516C106.054 210.676 105.556 210.256 104.56 210.256H101.266ZM101.266 206.62V209.014H104.416C105.316 209.014 105.766 208.624 105.766 207.844C105.766 207.4 105.634 207.088 105.37 206.908C105.106 206.716 104.788 206.62 104.416 206.62H101.266ZM116.707 212.2C116.707 212.644 116.929 212.866 117.373 212.866C117.565 212.866 117.787 212.824 118.039 212.74V213.91C117.679 214.042 117.319 214.108 116.959 214.108C116.131 214.108 115.603 213.76 115.375 213.064C114.451 213.832 113.329 214.216 112.009 214.216C111.169 214.216 110.449 213.994 109.849 213.55C109.261 213.094 108.967 212.44 108.967 211.588C108.967 210.568 109.345 209.83 110.101 209.374C110.869 208.906 111.793 208.672 112.873 208.672C113.665 208.672 114.463 208.762 115.267 208.942V208.636C115.267 207.976 115.051 207.454 114.619 207.07C114.187 206.674 113.581 206.476 112.801 206.476C111.709 206.476 110.659 206.692 109.651 207.124V205.72C110.779 205.336 111.877 205.144 112.945 205.144C114.121 205.144 115.039 205.462 115.699 206.098C116.371 206.722 116.707 207.628 116.707 208.816V212.2ZM110.443 211.516C110.443 211.996 110.623 212.362 110.983 212.614C111.355 212.854 111.799 212.974 112.315 212.974C113.503 212.974 114.487 212.554 115.267 211.714V210.13C114.451 209.962 113.719 209.878 113.071 209.878C112.339 209.878 111.715 210.01 111.199 210.274C110.695 210.526 110.443 210.94 110.443 211.516ZM120.88 206.8C121.852 205.696 123.016 205.144 124.372 205.144C125.608 205.144 126.634 205.576 127.45 206.44C128.278 207.304 128.692 208.384 128.692 209.68C128.692 210.976 128.278 212.056 127.45 212.92C126.634 213.784 125.608 214.216 124.372 214.216C123.004 214.216 121.888 213.712 121.024 212.704V217.96H119.584V205.36H120.88V206.8ZM126.37 212.002C126.958 211.414 127.252 210.64 127.252 209.68C127.252 208.72 126.958 207.946 126.37 207.358C125.794 206.77 125.074 206.476 124.21 206.476C123.478 206.476 122.83 206.68 122.266 207.088C121.702 207.496 121.288 208 121.024 208.6V210.76C121.288 211.36 121.702 211.864 122.266 212.272C122.83 212.68 123.478 212.884 124.21 212.884C125.074 212.884 125.794 212.59 126.37 212.002ZM143.094 204.874C143.094 205.498 142.926 206.062 142.59 206.566C142.266 207.058 141.84 207.394 141.312 207.574C141.936 207.766 142.47 208.12 142.914 208.636C143.37 209.14 143.598 209.818 143.598 210.67C143.598 211.81 143.172 212.686 142.32 213.298C141.48 213.91 140.412 214.216 139.116 214.216C137.472 214.216 136.05 213.946 134.85 213.406V211.912C136.014 212.512 137.394 212.806 138.99 212.794C141.09 212.794 142.14 212.062 142.14 210.598C142.14 209.134 141.144 208.402 139.152 208.402H137.28V206.962L138.99 206.98C139.854 206.98 140.508 206.8 140.952 206.44C141.408 206.068 141.636 205.588 141.636 205C141.636 204.364 141.384 203.866 140.88 203.506C140.376 203.134 139.662 202.948 138.738 202.948C137.466 202.948 136.242 203.26 135.066 203.884V202.408C136.194 201.832 137.484 201.544 138.936 201.544C140.184 201.544 141.186 201.85 141.942 202.462C142.71 203.074 143.094 203.878 143.094 204.874Z" fill="#454545"/>
<path d="M79.252 240.4H89.62V241.84H85.192V253H83.68V241.84H79.252V240.4ZM89.9126 252.01C89.0006 251.194 88.5446 250.084 88.5446 248.68C88.5446 247.276 89.0006 246.172 89.9126 245.368C90.8246 244.552 91.9046 244.144 93.1526 244.144C94.4126 244.144 95.4926 244.552 96.3926 245.368C97.3046 246.172 97.7606 247.276 97.7606 248.68C97.7606 250.084 97.3046 251.194 96.3926 252.01C95.4926 252.814 94.4126 253.216 93.1526 253.216C91.9046 253.216 90.8246 252.814 89.9126 252.01ZM95.4206 251.002C96.0206 250.426 96.3206 249.652 96.3206 248.68C96.3206 247.708 96.0206 246.94 95.4206 246.376C94.8206 245.8 94.0646 245.512 93.1526 245.512C92.2406 245.512 91.4846 245.8 90.8846 246.376C90.2846 246.94 89.9846 247.708 89.9846 248.68C89.9846 249.652 90.2846 250.426 90.8846 251.002C91.4846 251.566 92.2406 251.848 93.1526 251.848C94.0646 251.848 94.8206 251.566 95.4206 251.002ZM104.704 253H99.8261V244.36H104.56C105.34 244.36 105.976 244.564 106.468 244.972C106.972 245.38 107.224 245.956 107.224 246.7C107.224 247.132 107.116 247.522 106.9 247.87C106.684 248.218 106.408 248.464 106.072 248.608C106.468 248.74 106.804 248.98 107.08 249.328C107.356 249.676 107.494 250.102 107.494 250.606C107.494 251.338 107.254 251.92 106.774 252.352C106.306 252.784 105.616 253 104.704 253ZM101.266 249.256V251.74H104.506C105.538 251.74 106.054 251.332 106.054 250.516C106.054 249.676 105.556 249.256 104.56 249.256H101.266ZM101.266 245.62V248.014H104.416C105.316 248.014 105.766 247.624 105.766 246.844C105.766 246.4 105.634 246.088 105.37 245.908C105.106 245.716 104.788 245.62 104.416 245.62H101.266ZM116.707 251.2C116.707 251.644 116.929 251.866 117.373 251.866C117.565 251.866 117.787 251.824 118.039 251.74V252.91C117.679 253.042 117.319 253.108 116.959 253.108C116.131 253.108 115.603 252.76 115.375 252.064C114.451 252.832 113.329 253.216 112.009 253.216C111.169 253.216 110.449 252.994 109.849 252.55C109.261 252.094 108.967 251.44 108.967 250.588C108.967 249.568 109.345 248.83 110.101 248.374C110.869 247.906 111.793 247.672 112.873 247.672C113.665 247.672 114.463 247.762 115.267 247.942V247.636C115.267 246.976 115.051 246.454 114.619 246.07C114.187 245.674 113.581 245.476 112.801 245.476C111.709 245.476 110.659 245.692 109.651 246.124V244.72C110.779 244.336 111.877 244.144 112.945 244.144C114.121 244.144 115.039 244.462 115.699 245.098C116.371 245.722 116.707 246.628 116.707 247.816V251.2ZM110.443 250.516C110.443 250.996 110.623 251.362 110.983 251.614C111.355 251.854 111.799 251.974 112.315 251.974C113.503 251.974 114.487 251.554 115.267 250.714V249.13C114.451 248.962 113.719 248.878 113.071 248.878C112.339 248.878 111.715 249.01 111.199 249.274C110.695 249.526 110.443 249.94 110.443 250.516ZM120.88 245.8C121.852 244.696 123.016 244.144 124.372 244.144C125.608 244.144 126.634 244.576 127.45 245.44C128.278 246.304 128.692 247.384 128.692 248.68C128.692 249.976 128.278 251.056 127.45 251.92C126.634 252.784 125.608 253.216 124.372 253.216C123.004 253.216 121.888 252.712 121.024 251.704V256.96H119.584V244.36H120.88V245.8ZM126.37 251.002C126.958 250.414 127.252 249.64 127.252 248.68C127.252 247.72 126.958 246.946 126.37 246.358C125.794 245.77 125.074 245.476 124.21 245.476C123.478 245.476 122.83 245.68 122.266 246.088C121.702 246.496 121.288 247 121.024 247.6V249.76C121.288 250.36 121.702 250.864 122.266 251.272C122.83 251.68 123.478 251.884 124.21 251.884C125.074 251.884 125.794 251.59 126.37 251.002ZM141.042 240.76H142.68V248.878H144.984V250.282H142.68V253H141.186V250.282H134.364V248.932L141.042 240.76ZM141.186 248.878V242.794L136.218 248.878H141.186Z" fill="#454545"/>
<path d="M79.252 279.4H89.62V280.84H85.192V292H83.68V280.84H79.252V279.4ZM89.9126 291.01C89.0006 290.194 88.5446 289.084 88.5446 287.68C88.5446 286.276 89.0006 285.172 89.9126 284.368C90.8246 283.552 91.9046 283.144 93.1526 283.144C94.4126 283.144 95.4926 283.552 96.3926 284.368C97.3046 285.172 97.7606 286.276 97.7606 287.68C97.7606 289.084 97.3046 290.194 96.3926 291.01C95.4926 291.814 94.4126 292.216 93.1526 292.216C91.9046 292.216 90.8246 291.814 89.9126 291.01ZM95.4206 290.002C96.0206 289.426 96.3206 288.652 96.3206 287.68C96.3206 286.708 96.0206 285.94 95.4206 285.376C94.8206 284.8 94.0646 284.512 93.1526 284.512C92.2406 284.512 91.4846 284.8 90.8846 285.376C90.2846 285.94 89.9846 286.708 89.9846 287.68C89.9846 288.652 90.2846 289.426 90.8846 290.002C91.4846 290.566 92.2406 290.848 93.1526 290.848C94.0646 290.848 94.8206 290.566 95.4206 290.002ZM104.704 292H99.8261V283.36H104.56C105.34 283.36 105.976 283.564 106.468 283.972C106.972 284.38 107.224 284.956 107.224 285.7C107.224 286.132 107.116 286.522 106.9 286.87C106.684 287.218 106.408 287.464 106.072 287.608C106.468 287.74 106.804 287.98 107.08 288.328C107.356 288.676 107.494 289.102 107.494 289.606C107.494 290.338 107.254 290.92 106.774 291.352C106.306 291.784 105.616 292 104.704 292ZM101.266 288.256V290.74H104.506C105.538 290.74 106.054 290.332 106.054 289.516C106.054 288.676 105.556 288.256 104.56 288.256H101.266ZM101.266 284.62V287.014H104.416C105.316 287.014 105.766 286.624 105.766 285.844C105.766 285.4 105.634 285.088 105.37 284.908C105.106 284.716 104.788 284.62 104.416 284.62H101.266ZM116.707 290.2C116.707 290.644 116.929 290.866 117.373 290.866C117.565 290.866 117.787 290.824 118.039 290.74V291.91C117.679 292.042 117.319 292.108 116.959 292.108C116.131 292.108 115.603 291.76 115.375 291.064C114.451 291.832 113.329 292.216 112.009 292.216C111.169 292.216 110.449 291.994 109.849 291.55C109.261 291.094 108.967 290.44 108.967 289.588C108.967 288.568 109.345 287.83 110.101 287.374C110.869 286.906 111.793 286.672 112.873 286.672C113.665 286.672 114.463 286.762 115.267 286.942V286.636C115.267 285.976 115.051 285.454 114.619 285.07C114.187 284.674 113.581 284.476 112.801 284.476C111.709 284.476 110.659 284.692 109.651 285.124V283.72C110.779 283.336 111.877 283.144 112.945 283.144C114.121 283.144 115.039 283.462 115.699 284.098C116.371 284.722 116.707 285.628 116.707 286.816V290.2ZM110.443 289.516C110.443 289.996 110.623 290.362 110.983 290.614C111.355 290.854 111.799 290.974 112.315 290.974C113.503 290.974 114.487 290.554 115.267 289.714V288.13C114.451 287.962 113.719 287.878 113.071 287.878C112.339 287.878 111.715 288.01 111.199 288.274C110.695 288.526 110.443 288.94 110.443 289.516ZM120.88 284.8C121.852 283.696 123.016 283.144 124.372 283.144C125.608 283.144 126.634 283.576 127.45 284.44C128.278 285.304 128.692 286.384 128.692 287.68C128.692 288.976 128.278 290.056 127.45 290.92C126.634 291.784 125.608 292.216 124.372 292.216C123.004 292.216 121.888 291.712 121.024 290.704V295.96H119.584V283.36H120.88V284.8ZM126.37 290.002C126.958 289.414 127.252 288.64 127.252 287.68C127.252 286.72 126.958 285.946 126.37 285.358C125.794 284.77 125.074 284.476 124.21 284.476C123.478 284.476 122.83 284.68 122.266 285.088C121.702 285.496 121.288 286 121.024 286.6V288.76C121.288 289.36 121.702 289.864 122.266 290.272C122.83 290.68 123.478 290.884 124.21 290.884C125.074 290.884 125.794 290.59 126.37 290.002ZM135.606 279.76H142.95V281.2H137.028L136.812 284.656C137.46 284.476 138.156 284.386 138.9 284.386C139.512 284.386 140.082 284.458 140.61 284.602C141.138 284.734 141.624 284.95 142.068 285.25C142.524 285.538 142.884 285.946 143.148 286.474C143.412 286.99 143.544 287.602 143.544 288.31C143.544 289.522 143.094 290.476 142.194 291.172C141.306 291.868 140.172 292.216 138.792 292.216C137.304 292.216 135.996 291.94 134.868 291.388V289.948C135.948 290.524 137.196 290.812 138.612 290.812C139.644 290.812 140.466 290.596 141.078 290.164C141.702 289.732 142.014 289.114 142.014 288.31C142.014 286.606 140.802 285.754 138.378 285.754C137.322 285.754 136.266 285.946 135.21 286.33L135.606 279.76Z" fill="#454545"/>
<path d="M79.252 318.4H89.62V319.84H85.192V331H83.68V319.84H79.252V318.4ZM89.9126 330.01C89.0006 329.194 88.5446 328.084 88.5446 326.68C88.5446 325.276 89.0006 324.172 89.9126 323.368C90.8246 322.552 91.9046 322.144 93.1526 322.144C94.4126 322.144 95.4926 322.552 96.3926 323.368C97.3046 324.172 97.7606 325.276 97.7606 326.68C97.7606 328.084 97.3046 329.194 96.3926 330.01C95.4926 330.814 94.4126 331.216 93.1526 331.216C91.9046 331.216 90.8246 330.814 89.9126 330.01ZM95.4206 329.002C96.0206 328.426 96.3206 327.652 96.3206 326.68C96.3206 325.708 96.0206 324.94 95.4206 324.376C94.8206 323.8 94.0646 323.512 93.1526 323.512C92.2406 323.512 91.4846 323.8 90.8846 324.376C90.2846 324.94 89.9846 325.708 89.9846 326.68C89.9846 327.652 90.2846 328.426 90.8846 329.002C91.4846 329.566 92.2406 329.848 93.1526 329.848C94.0646 329.848 94.8206 329.566 95.4206 329.002ZM104.704 331H99.8261V322.36H104.56C105.34 322.36 105.976 322.564 106.468 322.972C106.972 323.38 107.224 323.956 107.224 324.7C107.224 325.132 107.116 325.522 106.9 325.87C106.684 326.218 106.408 326.464 106.072 326.608C106.468 326.74 106.804 326.98 107.08 327.328C107.356 327.676 107.494 328.102 107.494 328.606C107.494 329.338 107.254 329.92 106.774 330.352C106.306 330.784 105.616 331 104.704 331ZM101.266 327.256V329.74H104.506C105.538 329.74 106.054 329.332 106.054 328.516C106.054 327.676 105.556 327.256 104.56 327.256H101.266ZM101.266 323.62V326.014H104.416C105.316 326.014 105.766 325.624 105.766 324.844C105.766 324.4 105.634 324.088 105.37 323.908C105.106 323.716 104.788 323.62 104.416 323.62H101.266ZM116.707 329.2C116.707 329.644 116.929 329.866 117.373 329.866C117.565 329.866 117.787 329.824 118.039 329.74V330.91C117.679 331.042 117.319 331.108 116.959 331.108C116.131 331.108 115.603 330.76 115.375 330.064C114.451 330.832 113.329 331.216 112.009 331.216C111.169 331.216 110.449 330.994 109.849 330.55C109.261 330.094 108.967 329.44 108.967 328.588C108.967 327.568 109.345 326.83 110.101 326.374C110.869 325.906 111.793 325.672 112.873 325.672C113.665 325.672 114.463 325.762 115.267 325.942V325.636C115.267 324.976 115.051 324.454 114.619 324.07C114.187 323.674 113.581 323.476 112.801 323.476C111.709 323.476 110.659 323.692 109.651 324.124V322.72C110.779 322.336 111.877 322.144 112.945 322.144C114.121 322.144 115.039 322.462 115.699 323.098C116.371 323.722 116.707 324.628 116.707 325.816V329.2ZM110.443 328.516C110.443 328.996 110.623 329.362 110.983 329.614C111.355 329.854 111.799 329.974 112.315 329.974C113.503 329.974 114.487 329.554 115.267 328.714V327.13C114.451 326.962 113.719 326.878 113.071 326.878C112.339 326.878 111.715 327.01 111.199 327.274C110.695 327.526 110.443 327.94 110.443 328.516ZM120.88 323.8C121.852 322.696 123.016 322.144 124.372 322.144C125.608 322.144 126.634 322.576 127.45 323.44C128.278 324.304 128.692 325.384 128.692 326.68C128.692 327.976 128.278 329.056 127.45 329.92C126.634 330.784 125.608 331.216 124.372 331.216C123.004 331.216 121.888 330.712 121.024 329.704V334.96H119.584V322.36H120.88V323.8ZM126.37 329.002C126.958 328.414 127.252 327.64 127.252 326.68C127.252 325.72 126.958 324.946 126.37 324.358C125.794 323.77 125.074 323.476 124.21 323.476C123.478 323.476 122.83 323.68 122.266 324.088C121.702 324.496 121.288 325 121.024 325.6V327.76C121.288 328.36 121.702 328.864 122.266 329.272C122.83 329.68 123.478 329.884 124.21 329.884C125.074 329.884 125.794 329.59 126.37 329.002ZM136.38 324.538C137.544 323.758 138.822 323.368 140.214 323.368C141.33 323.368 142.308 323.71 143.148 324.394C143.988 325.066 144.408 326.002 144.408 327.202C144.408 328.462 143.988 329.446 143.148 330.154C142.32 330.862 141.276 331.216 140.016 331.216C138.288 331.216 136.992 330.682 136.128 329.614C135.276 328.534 134.85 327.022 134.85 325.078C134.85 322.918 135.36 321.292 136.38 320.2C137.412 319.096 138.756 318.544 140.412 318.544C141.48 318.544 142.47 318.778 143.382 319.246V320.686C142.494 320.218 141.516 319.984 140.448 319.984C139.32 319.984 138.378 320.35 137.622 321.082C136.878 321.802 136.464 322.954 136.38 324.538ZM136.398 326.05C136.626 328.558 137.796 329.812 139.908 329.812C140.796 329.812 141.51 329.608 142.05 329.2C142.602 328.792 142.878 328.15 142.878 327.274C142.878 326.386 142.596 325.75 142.032 325.366C141.468 324.97 140.736 324.772 139.836 324.772C138.504 324.772 137.358 325.198 136.398 326.05Z" fill="#454545"/>
<path d="M79.252 357.4H89.62V358.84H85.192V370H83.68V358.84H79.252V357.4ZM89.9126 369.01C89.0006 368.194 88.5446 367.084 88.5446 365.68C88.5446 364.276 89.0006 363.172 89.9126 362.368C90.8246 361.552 91.9046 361.144 93.1526 361.144C94.4126 361.144 95.4926 361.552 96.3926 362.368C97.3046 363.172 97.7606 364.276 97.7606 365.68C97.7606 367.084 97.3046 368.194 96.3926 369.01C95.4926 369.814 94.4126 370.216 93.1526 370.216C91.9046 370.216 90.8246 369.814 89.9126 369.01ZM95.4206 368.002C96.0206 367.426 96.3206 366.652 96.3206 365.68C96.3206 364.708 96.0206 363.94 95.4206 363.376C94.8206 362.8 94.0646 362.512 93.1526 362.512C92.2406 362.512 91.4846 362.8 90.8846 363.376C90.2846 363.94 89.9846 364.708 89.9846 365.68C89.9846 366.652 90.2846 367.426 90.8846 368.002C91.4846 368.566 92.2406 368.848 93.1526 368.848C94.0646 368.848 94.8206 368.566 95.4206 368.002ZM104.704 370H99.8261V361.36H104.56C105.34 361.36 105.976 361.564 106.468 361.972C106.972 362.38 107.224 362.956 107.224 363.7C107.224 364.132 107.116 364.522 106.9 364.87C106.684 365.218 106.408 365.464 106.072 365.608C106.468 365.74 106.804 365.98 107.08 366.328C107.356 366.676 107.494 367.102 107.494 367.606C107.494 368.338 107.254 368.92 106.774 369.352C106.306 369.784 105.616 370 104.704 370ZM101.266 366.256V368.74H104.506C105.538 368.74 106.054 368.332 106.054 367.516C106.054 366.676 105.556 366.256 104.56 366.256H101.266ZM101.266 362.62V365.014H104.416C105.316 365.014 105.766 364.624 105.766 363.844C105.766 363.4 105.634 363.088 105.37 362.908C105.106 362.716 104.788 362.62 104.416 362.62H101.266ZM116.707 368.2C116.707 368.644 116.929 368.866 117.373 368.866C117.565 368.866 117.787 368.824 118.039 368.74V369.91C117.679 370.042 117.319 370.108 116.959 370.108C116.131 370.108 115.603 369.76 115.375 369.064C114.451 369.832 113.329 370.216 112.009 370.216C111.169 370.216 110.449 369.994 109.849 369.55C109.261 369.094 108.967 368.44 108.967 367.588C108.967 366.568 109.345 365.83 110.101 365.374C110.869 364.906 111.793 364.672 112.873 364.672C113.665 364.672 114.463 364.762 115.267 364.942V364.636C115.267 363.976 115.051 363.454 114.619 363.07C114.187 362.674 113.581 362.476 112.801 362.476C111.709 362.476 110.659 362.692 109.651 363.124V361.72C110.779 361.336 111.877 361.144 112.945 361.144C114.121 361.144 115.039 361.462 115.699 362.098C116.371 362.722 116.707 363.628 116.707 364.816V368.2ZM110.443 367.516C110.443 367.996 110.623 368.362 110.983 368.614C111.355 368.854 111.799 368.974 112.315 368.974C113.503 368.974 114.487 368.554 115.267 367.714V366.13C114.451 365.962 113.719 365.878 113.071 365.878C112.339 365.878 111.715 366.01 111.199 366.274C110.695 366.526 110.443 366.94 110.443 367.516ZM120.88 362.8C121.852 361.696 123.016 361.144 124.372 361.144C125.608 361.144 126.634 361.576 127.45 362.44C128.278 363.304 128.692 364.384 128.692 365.68C128.692 366.976 128.278 368.056 127.45 368.92C126.634 369.784 125.608 370.216 124.372 370.216C123.004 370.216 121.888 369.712 121.024 368.704V373.96H119.584V361.36H120.88V362.8ZM126.37 368.002C126.958 367.414 127.252 366.64 127.252 365.68C127.252 364.72 126.958 363.946 126.37 363.358C125.794 362.77 125.074 362.476 124.21 362.476C123.478 362.476 122.83 362.68 122.266 363.088C121.702 363.496 121.288 364 121.024 364.6V366.76C121.288 367.36 121.702 367.864 122.266 368.272C122.83 368.68 123.478 368.884 124.21 368.884C125.074 368.884 125.794 368.59 126.37 368.002ZM134.4 357.76H143.22V359.128L138.108 370H136.488L141.564 359.2H134.4V357.76Z" fill="#454545"/>
<path d="M241.35 85.4H243.204V98H241.152V89.18L237.174 95.156H235.95L231.972 89.162V98H229.92V85.4H231.774L236.562 92.618L241.35 85.4ZM253.165 96.002C253.165 96.422 253.375 96.632 253.795 96.632C253.939 96.632 254.131 96.596 254.371 96.524V97.91C254.011 98.054 253.603 98.126 253.147 98.126C252.283 98.126 251.707 97.79 251.419 97.118C250.495 97.862 249.409 98.234 248.161 98.234C247.321 98.234 246.607 98.006 246.019 97.55C245.431 97.082 245.137 96.428 245.137 95.588C245.137 94.58 245.515 93.848 246.271 93.392C247.027 92.924 247.933 92.69 248.989 92.69C249.685 92.69 250.435 92.774 251.239 92.942V92.636C251.239 92.084 251.041 91.64 250.645 91.304C250.249 90.968 249.691 90.8 248.971 90.8C247.903 90.8 246.865 91.022 245.857 91.466V89.702C246.985 89.318 248.089 89.126 249.169 89.126C250.429 89.126 251.407 89.438 252.103 90.062C252.811 90.686 253.165 91.634 253.165 92.906V96.002ZM249.367 94.04C248.731 94.04 248.197 94.154 247.765 94.382C247.333 94.61 247.117 94.97 247.117 95.462C247.117 95.87 247.273 96.188 247.585 96.416C247.897 96.632 248.281 96.74 248.737 96.74C249.721 96.74 250.555 96.398 251.239 95.714V94.256C250.543 94.112 249.919 94.04 249.367 94.04ZM257.748 98H255.822V89.36H262.266V91.052H257.748V98ZM271.006 96.002C271.006 96.422 271.216 96.632 271.636 96.632C271.78 96.632 271.972 96.596 272.212 96.524V97.91C271.852 98.054 271.444 98.126 270.988 98.126C270.124 98.126 269.548 97.79 269.26 97.118C268.336 97.862 267.25 98.234 266.002 98.234C265.162 98.234 264.448 98.006 263.86 97.55C263.272 97.082 262.978 96.428 262.978 95.588C262.978 94.58 263.356 93.848 264.112 93.392C264.868 92.924 265.774 92.69 266.83 92.69C267.526 92.69 268.276 92.774 269.08 92.942V92.636C269.08 92.084 268.882 91.64 268.486 91.304C268.09 90.968 267.532 90.8 266.812 90.8C265.744 90.8 264.706 91.022 263.698 91.466V89.702C264.826 89.318 265.93 89.126 267.01 89.126C268.27 89.126 269.248 89.438 269.944 90.062C270.652 90.686 271.006 91.634 271.006 92.906V96.002ZM267.208 94.04C266.572 94.04 266.038 94.154 265.606 94.382C265.174 94.61 264.958 94.97 264.958 95.462C264.958 95.87 265.114 96.188 265.426 96.416C265.738 96.632 266.122 96.74 266.578 96.74C267.562 96.74 268.396 96.398 269.08 95.714V94.256C268.384 94.112 267.76 94.04 267.208 94.04ZM280.432 95.642C280.432 96.422 280.078 97.052 279.37 97.532C278.674 98 277.678 98.234 276.382 98.234C275.122 98.234 274.042 98 273.142 97.532V95.876C273.994 96.356 274.99 96.596 276.13 96.596C277.702 96.596 278.488 96.2 278.488 95.408C278.488 94.7 277.888 94.346 276.688 94.346H274.924V92.87H276.688C277.768 92.87 278.308 92.546 278.308 91.898C278.308 91.526 278.122 91.244 277.75 91.052C277.378 90.848 276.874 90.746 276.238 90.746C275.158 90.746 274.18 90.98 273.304 91.448V89.792C274.252 89.336 275.308 89.108 276.472 89.108C277.732 89.108 278.674 89.342 279.298 89.81C279.934 90.278 280.252 90.89 280.252 91.646C280.252 92.138 280.114 92.552 279.838 92.888C279.562 93.224 279.19 93.452 278.722 93.572C279.238 93.716 279.652 93.968 279.964 94.328C280.276 94.676 280.432 95.114 280.432 95.642ZM284.021 98H282.365V89.36H284.291V95.012L288.917 89.36H290.573V98H288.647V92.348L284.021 98ZM294.908 98H292.982V89.36H294.908V92.834H299.228V89.36H301.154V98H299.228V94.526H294.908V98ZM310.518 85.76H312.03V96.146H314.208V98H307.548V96.146H309.996V87.866L307.548 88.784V86.894L310.518 85.76Z" fill="#454545"/>
<path d="M382.084 85.4H383.938V98H381.886V89.18L377.908 95.156H376.684L372.706 89.162V98H370.654V85.4H372.508L377.296 92.618L382.084 85.4ZM393.899 96.002C393.899 96.422 394.109 96.632 394.529 96.632C394.673 96.632 394.865 96.596 395.105 96.524V97.91C394.745 98.054 394.337 98.126 393.881 98.126C393.017 98.126 392.441 97.79 392.153 97.118C391.229 97.862 390.143 98.234 388.895 98.234C388.055 98.234 387.341 98.006 386.753 97.55C386.165 97.082 385.871 96.428 385.871 95.588C385.871 94.58 386.249 93.848 387.005 93.392C387.761 92.924 388.667 92.69 389.723 92.69C390.419 92.69 391.169 92.774 391.973 92.942V92.636C391.973 92.084 391.775 91.64 391.379 91.304C390.983 90.968 390.425 90.8 389.705 90.8C388.637 90.8 387.599 91.022 386.591 91.466V89.702C387.719 89.318 388.823 89.126 389.903 89.126C391.163 89.126 392.141 89.438 392.837 90.062C393.545 90.686 393.899 91.634 393.899 92.906V96.002ZM390.101 94.04C389.465 94.04 388.931 94.154 388.499 94.382C388.067 94.61 387.851 94.97 387.851 95.462C387.851 95.87 388.007 96.188 388.319 96.416C388.631 96.632 389.015 96.74 389.471 96.74C390.455 96.74 391.289 96.398 391.973 95.714V94.256C391.277 94.112 390.653 94.04 390.101 94.04ZM398.483 98H396.557V89.36H403.001V91.052H398.483V98ZM411.741 96.002C411.741 96.422 411.951 96.632 412.371 96.632C412.515 96.632 412.707 96.596 412.947 96.524V97.91C412.587 98.054 412.179 98.126 411.723 98.126C410.859 98.126 410.283 97.79 409.995 97.118C409.071 97.862 407.985 98.234 406.737 98.234C405.897 98.234 405.183 98.006 404.595 97.55C404.007 97.082 403.713 96.428 403.713 95.588C403.713 94.58 404.091 93.848 404.847 93.392C405.603 92.924 406.509 92.69 407.565 92.69C408.261 92.69 409.011 92.774 409.815 92.942V92.636C409.815 92.084 409.617 91.64 409.221 91.304C408.825 90.968 408.267 90.8 407.547 90.8C406.479 90.8 405.441 91.022 404.433 91.466V89.702C405.561 89.318 406.665 89.126 407.745 89.126C409.005 89.126 409.983 89.438 410.679 90.062C411.387 90.686 411.741 91.634 411.741 92.906V96.002ZM407.943 94.04C407.307 94.04 406.773 94.154 406.341 94.382C405.909 94.61 405.693 94.97 405.693 95.462C405.693 95.87 405.849 96.188 406.161 96.416C406.473 96.632 406.857 96.74 407.313 96.74C408.297 96.74 409.131 96.398 409.815 95.714V94.256C409.119 94.112 408.495 94.04 407.943 94.04ZM421.166 95.642C421.166 96.422 420.812 97.052 420.104 97.532C419.408 98 418.412 98.234 417.116 98.234C415.856 98.234 414.776 98 413.876 97.532V95.876C414.728 96.356 415.724 96.596 416.864 96.596C418.436 96.596 419.222 96.2 419.222 95.408C419.222 94.7 418.622 94.346 417.422 94.346H415.658V92.87H417.422C418.502 92.87 419.042 92.546 419.042 91.898C419.042 91.526 418.856 91.244 418.484 91.052C418.112 90.848 417.608 90.746 416.972 90.746C415.892 90.746 414.914 90.98 414.038 91.448V89.792C414.986 89.336 416.042 89.108 417.206 89.108C418.466 89.108 419.408 89.342 420.032 89.81C420.668 90.278 420.986 90.89 420.986 91.646C420.986 92.138 420.848 92.552 420.572 92.888C420.296 93.224 419.924 93.452 419.456 93.572C419.972 93.716 420.386 93.968 420.698 94.328C421.01 94.676 421.166 95.114 421.166 95.642ZM424.756 98H423.1V89.36H425.026V95.012L429.652 89.36H431.308V98H429.382V92.348L424.756 98ZM435.643 98H433.717V89.36H435.643V92.834H439.963V89.36H441.889V98H439.963V94.526H435.643V98ZM448.535 86.768C449.747 85.94 451.103 85.526 452.603 85.526C453.887 85.526 454.925 85.826 455.717 86.426C456.509 87.014 456.905 87.86 456.905 88.964C456.905 89.888 456.599 90.68 455.987 91.34C455.387 91.988 454.565 92.624 453.521 93.248C453.437 93.296 453.281 93.386 453.053 93.518C452.837 93.65 452.681 93.746 452.585 93.806C452.501 93.854 452.363 93.938 452.171 94.058C451.979 94.178 451.835 94.268 451.739 94.328C451.655 94.388 451.535 94.478 451.379 94.598C451.235 94.706 451.127 94.802 451.055 94.886C450.983 94.958 450.899 95.054 450.803 95.174C450.707 95.282 450.635 95.384 450.587 95.48C450.551 95.576 450.515 95.684 450.479 95.804C450.443 95.924 450.425 96.044 450.425 96.164L456.995 96.146V98H448.121V97.064C448.121 96.392 448.211 95.798 448.391 95.282C448.583 94.754 448.913 94.274 449.381 93.842C449.861 93.398 450.233 93.086 450.497 92.906C450.761 92.714 451.229 92.42 451.901 92.024C451.961 91.976 452.009 91.94 452.045 91.916C452.093 91.892 452.141 91.868 452.189 91.844C453.197 91.256 453.845 90.83 454.133 90.566C454.613 90.098 454.853 89.576 454.853 89C454.853 88.472 454.637 88.07 454.205 87.794C453.785 87.518 453.191 87.38 452.423 87.38C451.091 87.38 449.795 87.836 448.535 88.748V86.768Z" fill="#454545"/>
<path d="M524.274 85.4H526.128V98H524.076V89.18L520.098 95.156H518.874L514.896 89.162V98H512.844V85.4H514.698L519.486 92.618L524.274 85.4ZM530.83 98H528.904V89.36H530.83V98ZM531.046 86.552C531.046 86.924 530.932 87.212 530.704 87.416C530.488 87.608 530.212 87.704 529.876 87.704C529.54 87.704 529.258 87.608 529.03 87.416C528.802 87.212 528.688 86.924 528.688 86.552C528.688 86.192 528.802 85.916 529.03 85.724C529.258 85.52 529.54 85.418 529.876 85.418C530.212 85.418 530.488 85.52 530.704 85.724C530.932 85.916 531.046 86.192 531.046 86.552ZM534.99 90.548C535.782 89.6 536.784 89.126 537.996 89.126C539.076 89.126 539.94 89.456 540.588 90.116C541.236 90.764 541.56 91.61 541.56 92.654V98H539.634V92.906C539.634 92.234 539.448 91.724 539.076 91.376C538.704 91.016 538.218 90.836 537.618 90.836C536.67 90.836 535.866 91.316 535.206 92.276V98H533.28V89.36H534.99V90.548ZM545.95 97.01C545.95 97.394 545.836 97.688 545.608 97.892C545.38 98.096 545.092 98.198 544.744 98.198C544.396 98.198 544.102 98.096 543.862 97.892C543.634 97.688 543.52 97.394 543.52 97.01C543.52 96.638 543.634 96.356 543.862 96.164C544.102 95.96 544.396 95.858 544.744 95.858C545.092 95.858 545.38 95.96 545.608 96.164C545.836 96.356 545.95 96.638 545.95 97.01ZM552.606 85.4H557.106C560.694 85.4 562.488 86.78 562.488 89.54C562.488 92.3 560.694 93.68 557.106 93.68H554.658V98H552.606V85.4ZM559.536 91.322C560.112 90.986 560.4 90.392 560.4 89.54C560.4 88.688 560.112 88.1 559.536 87.776C558.972 87.44 558.198 87.272 557.214 87.272H554.658V91.808H557.214C558.198 91.808 558.972 91.646 559.536 91.322ZM563.273 93.68C563.273 92.936 563.405 92.264 563.669 91.664C563.933 91.052 564.281 90.572 564.713 90.224C565.145 89.864 565.613 89.594 566.117 89.414C566.621 89.222 567.131 89.126 567.647 89.126C568.307 89.126 568.901 89.228 569.429 89.432C569.969 89.636 570.401 89.912 570.725 90.26C571.049 90.608 571.313 91.01 571.517 91.466C571.721 91.922 571.829 92.402 571.841 92.906C571.853 93.398 571.811 93.896 571.715 94.4H565.217C565.313 95.132 565.673 95.684 566.297 96.056C566.921 96.416 567.665 96.596 568.529 96.596C569.513 96.596 570.425 96.392 571.265 95.984V97.64C570.437 98.036 569.405 98.234 568.169 98.234C566.765 98.234 565.595 97.838 564.659 97.046C563.735 96.254 563.273 95.132 563.273 93.68ZM569.987 92.96C570.059 92.468 569.909 91.976 569.537 91.484C569.177 90.98 568.577 90.728 567.737 90.728C567.053 90.728 566.465 90.926 565.973 91.322C565.493 91.718 565.235 92.264 565.199 92.96H569.987ZM580.372 87.416C579.652 87.908 578.776 88.154 577.744 88.154C576.712 88.154 575.836 87.908 575.116 87.416V85.85C575.92 86.354 576.796 86.606 577.744 86.606C578.692 86.606 579.568 86.354 580.372 85.85V87.416ZM575.296 98H573.64V89.36H575.566V95.012L580.192 89.36H581.848V98H579.922V92.348L575.296 98ZM588.271 98H586.345V91.052H583.357V89.36H591.241V91.052H588.271V98ZM594.403 98H592.747V89.36H594.673V95.012L599.299 89.36H600.955V98H599.029V92.348L594.403 98ZM605.29 98H603.364V89.36H605.29V92.834H609.61V89.36H611.536V98H609.61V94.526H605.29V98ZM615.872 98H613.946V89.36H620.39V91.052H615.872V98Z" fill="#454545"/>
<path d="M234 123L236.821 127.117L241.608 128.528L238.565 132.483L238.702 137.472L234 135.8L229.298 137.472L229.435 132.483L226.392 128.528L231.179 127.117L234 123Z" fill="#F28100"/>
<path d="M253 123L255.821 127.117L260.608 128.528L257.565 132.483L257.702 137.472L253 135.8L248.298 137.472L248.435 132.483L245.392 128.528L250.179 127.117L253 123Z" fill="#F28100"/>
<path d="M272 123L274.821 127.117L279.608 128.528L276.565 132.483L276.702 137.472L272 135.8L267.298 137.472L267.435 132.483L264.392 128.528L269.179 127.117L272 123Z" fill="#F28100"/>
<path d="M291 123L293.821 127.117L298.608 128.528L295.565 132.483L295.702 137.472L291 135.8L286.298 137.472L286.435 132.483L283.392 128.528L288.179 127.117L291 123Z" fill="#F28100"/>
<path d="M310 123L312.821 127.117L317.608 128.528L314.565 132.483L314.702 137.472L310 135.8L305.298 137.472L305.435 132.483L302.392 128.528L307.179 127.117L310 123Z" fill="#D5D5E4"/>
<path d="M234 279L236.821 283.117L241.608 284.528L238.565 288.483L238.702 293.472L234 291.8L229.298 293.472L229.435 288.483L226.392 284.528L231.179 283.117L234 279Z" fill="#F28100"/>
<path d="M253 279L255.821 283.117L260.608 284.528L257.565 288.483L257.702 293.472L253 291.8L248.298 293.472L248.435 288.483L245.392 284.528L250.179 283.117L253 279Z" fill="#F28100"/>
<path d="M272 279L274.821 283.117L279.608 284.528L276.565 288.483L276.702 293.472L272 291.8L267.298 293.472L267.435 288.483L264.392 284.528L269.179 283.117L272 279Z" fill="#F28100"/>
<path d="M291 279L293.821 283.117L298.608 284.528L295.565 288.483L295.702 293.472L291 291.8L286.298 293.472L286.435 288.483L283.392 284.528L288.179 283.117L291 279Z" fill="#F28100"/>
<path d="M310 279L312.821 283.117L317.608 284.528L314.565 288.483L314.702 293.472L310 291.8L305.298 293.472L305.435 288.483L302.392 284.528L307.179 283.117L310 279Z" fill="#D5D5E4"/>
<path d="M234 201L236.821 205.117L241.608 206.528L238.565 210.483L238.702 215.472L234 213.8L229.298 215.472L229.435 210.483L226.392 206.528L231.179 205.117L234 201Z" fill="#F28100"/>
<path d="M253 201L255.821 205.117L260.608 206.528L257.565 210.483L257.702 215.472L253 213.8L248.298 215.472L248.435 210.483L245.392 206.528L250.179 205.117L253 201Z" fill="#F28100"/>
<path d="M272 201L274.821 205.117L279.608 206.528L276.565 210.483L276.702 215.472L272 213.8L267.298 215.472L267.435 210.483L264.392 206.528L269.179 205.117L272 201Z" fill="#F28100"/>
<path d="M291 201L293.821 205.117L298.608 206.528L295.565 210.483L295.702 215.472L291 213.8L286.298 215.472L286.435 210.483L283.392 206.528L288.179 205.117L291 201Z" fill="#F28100"/>
<path d="M310 201L312.821 205.117L317.608 206.528L314.565 210.483L314.702 215.472L310 213.8L305.298 215.472L305.435 210.483L302.392 206.528L307.179 205.117L310 201Z" fill="#D5D5E4"/>
<path d="M234 318L236.821 322.117L241.608 323.528L238.565 327.483L238.702 332.472L234 330.8L229.298 332.472L229.435 327.483L226.392 323.528L231.179 322.117L234 318Z" fill="#F28100"/>
<path d="M253 318L255.821 322.117L260.608 323.528L257.565 327.483L257.702 332.472L253 330.8L248.298 332.472L248.435 327.483L245.392 323.528L250.179 322.117L253 318Z" fill="#F28100"/>
<path d="M272 318L274.821 322.117L279.608 323.528L276.565 327.483L276.702 332.472L272 330.8L267.298 332.472L267.435 327.483L264.392 323.528L269.179 322.117L272 318Z" fill="#F28100"/>
<path d="M291 318L293.821 322.117L298.608 323.528L295.565 327.483L295.702 332.472L291 330.8L286.298 332.472L286.435 327.483L283.392 323.528L288.179 322.117L291 318Z" fill="#F28100"/>
<path d="M310 318L312.821 322.117L317.608 323.528L314.565 327.483L314.702 332.472L310 330.8L305.298 332.472L305.435 327.483L302.392 323.528L307.179 322.117L310 318Z" fill="#D5D5E4"/>
<path d="M234 161L236.821 165.117L241.608 166.528L238.565 170.483L238.702 175.472L234 173.8L229.298 175.472L229.435 170.483L226.392 166.528L231.179 165.117L234 161Z" fill="#F28100"/>
<path d="M253 161L255.821 165.117L260.608 166.528L257.565 170.483L257.702 175.472L253 173.8L248.298 175.472L248.435 170.483L245.392 166.528L250.179 165.117L253 161Z" fill="#F28100"/>
<path d="M272 161L274.821 165.117L279.608 166.528L276.565 170.483L276.702 175.472L272 173.8L267.298 175.472L267.435 170.483L264.392 166.528L269.179 165.117L272 161Z" fill="#D5D5E4"/>
<path d="M291 161L293.821 165.117L298.608 166.528L295.565 170.483L295.702 175.472L291 173.8L286.298 175.472L286.435 170.483L283.392 166.528L288.179 165.117L291 161Z" fill="#D5D5E4"/>
<path d="M310 161L312.821 165.117L317.608 166.528L314.565 170.483L314.702 175.472L310 173.8L305.298 175.472L305.435 170.483L302.392 166.528L307.179 165.117L310 161Z" fill="#D5D5E4"/>
<path d="M234 357L236.821 361.117L241.608 362.528L238.565 366.483L238.702 371.472L234 369.8L229.298 371.472L229.435 366.483L226.392 362.528L231.179 361.117L234 357Z" fill="#F28100"/>
<path d="M253 357L255.821 361.117L260.608 362.528L257.565 366.483L257.702 371.472L253 369.8L248.298 371.472L248.435 366.483L245.392 362.528L250.179 361.117L253 357Z" fill="#F28100"/>
<path d="M272 357L274.821 361.117L279.608 362.528L276.565 366.483L276.702 371.472L272 369.8L267.298 371.472L267.435 366.483L264.392 362.528L269.179 361.117L272 357Z" fill="#D5D5E4"/>
<path d="M291 357L293.821 361.117L298.608 362.528L295.565 366.483L295.702 371.472L291 369.8L286.298 371.472L286.435 366.483L283.392 362.528L288.179 361.117L291 357Z" fill="#D5D5E4"/>
<path d="M310 357L312.821 361.117L317.608 362.528L314.565 366.483L314.702 371.472L310 369.8L305.298 371.472L305.435 366.483L302.392 362.528L307.179 361.117L310 357Z" fill="#D5D5E4"/>
<path d="M234 240L236.821 244.117L241.608 245.528L238.565 249.483L238.702 254.472L234 252.8L229.298 254.472L229.435 249.483L226.392 245.528L231.179 244.117L234 240Z" fill="#F28100"/>
<path d="M253 240L255.821 244.117L260.608 245.528L257.565 249.483L257.702 254.472L253 252.8L248.298 254.472L248.435 249.483L245.392 245.528L250.179 244.117L253 240Z" fill="#D5D5E4"/>
<path d="M272 240L274.821 244.117L279.608 245.528L276.565 249.483L276.702 254.472L272 252.8L267.298 254.472L267.435 249.483L264.392 245.528L269.179 244.117L272 240Z" fill="#D5D5E4"/>
<path d="M291 240L293.821 244.117L298.608 245.528L295.565 249.483L295.702 254.472L291 252.8L286.298 254.472L286.435 249.483L283.392 245.528L288.179 244.117L291 240Z" fill="#D5D5E4"/>
<path d="M310 240L312.821 244.117L317.608 245.528L314.565 249.483L314.702 254.472L310 252.8L305.298 254.472L305.435 249.483L302.392 245.528L307.179 244.117L310 240Z" fill="#D5D5E4"/>
<path d="M376 123L378.821 127.117L383.608 128.528L380.565 132.483L380.702 137.472L376 135.8L371.298 137.472L371.435 132.483L368.392 128.528L373.179 127.117L376 123Z" fill="#F28100"/>
<path d="M395 123L397.821 127.117L402.608 128.528L399.565 132.483L399.702 137.472L395 135.8L390.298 137.472L390.435 132.483L387.392 128.528L392.179 127.117L395 123Z" fill="#F28100"/>
<path d="M414 123L416.821 127.117L421.608 128.528L418.565 132.483L418.702 137.472L414 135.8L409.298 137.472L409.435 132.483L406.392 128.528L411.179 127.117L414 123Z" fill="#F28100"/>
<path d="M433 123L435.821 127.117L440.608 128.528L437.565 132.483L437.702 137.472L433 135.8L428.298 137.472L428.435 132.483L425.392 128.528L430.179 127.117L433 123Z" fill="#D5D5E4"/>
<path d="M452 123L454.821 127.117L459.608 128.528L456.565 132.483L456.702 137.472L452 135.8L447.298 137.472L447.435 132.483L444.392 128.528L449.179 127.117L452 123Z" fill="#D5D5E4"/>
<path d="M376 279L378.821 283.117L383.608 284.528L380.565 288.483L380.702 293.472L376 291.8L371.298 293.472L371.435 288.483L368.392 284.528L373.179 283.117L376 279Z" fill="#F28100"/>
<path d="M395 279L397.821 283.117L402.608 284.528L399.565 288.483L399.702 293.472L395 291.8L390.298 293.472L390.435 288.483L387.392 284.528L392.179 283.117L395 279Z" fill="#F28100"/>
<path d="M414 279L416.821 283.117L421.608 284.528L418.565 288.483L418.702 293.472L414 291.8L409.298 293.472L409.435 288.483L406.392 284.528L411.179 283.117L414 279Z" fill="#F28100"/>
<path d="M433 279L435.821 283.117L440.608 284.528L437.565 288.483L437.702 293.472L433 291.8L428.298 293.472L428.435 288.483L425.392 284.528L430.179 283.117L433 279Z" fill="#D5D5E4"/>
<path d="M452 279L454.821 283.117L459.608 284.528L456.565 288.483L456.702 293.472L452 291.8L447.298 293.472L447.435 288.483L444.392 284.528L449.179 283.117L452 279Z" fill="#D5D5E4"/>
<path d="M376 201L378.821 205.117L383.608 206.528L380.565 210.483L380.702 215.472L376 213.8L371.298 215.472L371.435 210.483L368.392 206.528L373.179 205.117L376 201Z" fill="#F28100"/>
<path d="M395 201L397.821 205.117L402.608 206.528L399.565 210.483L399.702 215.472L395 213.8L390.298 215.472L390.435 210.483L387.392 206.528L392.179 205.117L395 201Z" fill="#F28100"/>
<path d="M414 201L416.821 205.117L421.608 206.528L418.565 210.483L418.702 215.472L414 213.8L409.298 215.472L409.435 210.483L406.392 206.528L411.179 205.117L414 201Z" fill="#F28100"/>
<path d="M433 201L435.821 205.117L440.608 206.528L437.565 210.483L437.702 215.472L433 213.8L428.298 215.472L428.435 210.483L425.392 206.528L430.179 205.117L433 201Z" fill="#F28100"/>
<path d="M452 201L454.821 205.117L459.608 206.528L456.565 210.483L456.702 215.472L452 213.8L447.298 215.472L447.435 210.483L444.392 206.528L449.179 205.117L452 201Z" fill="#D5D5E4"/>
<path d="M376 161L378.821 165.117L383.608 166.528L380.565 170.483L380.702 175.472L376 173.8L371.298 175.472L371.435 170.483L368.392 166.528L373.179 165.117L376 161Z" fill="#F28100"/>
<path d="M395 161L397.821 165.117L402.608 166.528L399.565 170.483L399.702 175.472L395 173.8L390.298 175.472L390.435 170.483L387.392 166.528L392.179 165.117L395 161Z" fill="#F28100"/>
<path d="M414 161L416.821 165.117L421.608 166.528L418.565 170.483L418.702 175.472L414 173.8L409.298 175.472L409.435 170.483L406.392 166.528L411.179 165.117L414 161Z" fill="#D5D5E4"/>
<path d="M433 161L435.821 165.117L440.608 166.528L437.565 170.483L437.702 175.472L433 173.8L428.298 175.472L428.435 170.483L425.392 166.528L430.179 165.117L433 161Z" fill="#D5D5E4"/>
<path d="M452 161L454.821 165.117L459.608 166.528L456.565 170.483L456.702 175.472L452 173.8L447.298 175.472L447.435 170.483L444.392 166.528L449.179 165.117L452 161Z" fill="#D5D5E4"/>
<path d="M376 318L378.821 322.117L383.608 323.528L380.565 327.483L380.702 332.472L376 330.8L371.298 332.472L371.435 327.483L368.392 323.528L373.179 322.117L376 318Z" fill="#F28100"/>
<path d="M395 318L397.821 322.117L402.608 323.528L399.565 327.483L399.702 332.472L395 330.8L390.298 332.472L390.435 327.483L387.392 323.528L392.179 322.117L395 318Z" fill="#F28100"/>
<path d="M414 318L416.821 322.117L421.608 323.528L418.565 327.483L418.702 332.472L414 330.8L409.298 332.472L409.435 327.483L406.392 323.528L411.179 322.117L414 318Z" fill="#F28100"/>
<path d="M433 318L435.821 322.117L440.608 323.528L437.565 327.483L437.702 332.472L433 330.8L428.298 332.472L428.435 327.483L425.392 323.528L430.179 322.117L433 318Z" fill="#F28100"/>
<path d="M452 318L454.821 322.117L459.608 323.528L456.565 327.483L456.702 332.472L452 330.8L447.298 332.472L447.435 327.483L444.392 323.528L449.179 322.117L452 318Z" fill="#D5D5E4"/>
<path d="M376 357L378.821 361.117L383.608 362.528L380.565 366.483L380.702 371.472L376 369.8L371.298 371.472L371.435 366.483L368.392 362.528L373.179 361.117L376 357Z" fill="#F28100"/>
<path d="M395 357L397.821 361.117L402.608 362.528L399.565 366.483L399.702 371.472L395 369.8L390.298 371.472L390.435 366.483L387.392 362.528L392.179 361.117L395 357Z" fill="#F28100"/>
<path d="M414 357L416.821 361.117L421.608 362.528L418.565 366.483L418.702 371.472L414 369.8L409.298 371.472L409.435 366.483L406.392 362.528L411.179 361.117L414 357Z" fill="#D5D5E4"/>
<path d="M433 357L435.821 361.117L440.608 362.528L437.565 366.483L437.702 371.472L433 369.8L428.298 371.472L428.435 366.483L425.392 362.528L430.179 361.117L433 357Z" fill="#D5D5E4"/>
<path d="M452 357L454.821 361.117L459.608 362.528L456.565 366.483L456.702 371.472L452 369.8L447.298 371.472L447.435 366.483L444.392 362.528L449.179 361.117L452 357Z" fill="#D5D5E4"/>
<path d="M376 240L378.821 244.117L383.608 245.528L380.565 249.483L380.702 254.472L376 252.8L371.298 254.472L371.435 249.483L368.392 245.528L373.179 244.117L376 240Z" fill="#F28100"/>
<path d="M395 240L397.821 244.117L402.608 245.528L399.565 249.483L399.702 254.472L395 252.8L390.298 254.472L390.435 249.483L387.392 245.528L392.179 244.117L395 240Z" fill="#F28100"/>
<path d="M414 240L416.821 244.117L421.608 245.528L418.565 249.483L418.702 254.472L414 252.8L409.298 254.472L409.435 249.483L406.392 245.528L411.179 244.117L414 240Z" fill="#D5D5E4"/>
<path d="M433 240L435.821 244.117L440.608 245.528L437.565 249.483L437.702 254.472L433 252.8L428.298 254.472L428.435 249.483L425.392 245.528L430.179 244.117L433 240Z" fill="#D5D5E4"/>
<path d="M452 240L454.821 244.117L459.608 245.528L456.565 249.483L456.702 254.472L452 252.8L447.298 254.472L447.435 249.483L444.392 245.528L449.179 244.117L452 240Z" fill="#D5D5E4"/>
<path d="M528 123L530.821 127.117L535.608 128.528L532.565 132.483L532.702 137.472L528 135.8L523.298 137.472L523.435 132.483L520.392 128.528L525.179 127.117L528 123Z" fill="#F28100"/>
<path d="M547 123L549.821 127.117L554.608 128.528L551.565 132.483L551.702 137.472L547 135.8L542.298 137.472L542.435 132.483L539.392 128.528L544.179 127.117L547 123Z" fill="#F28100"/>
<path d="M566 123L568.821 127.117L573.608 128.528L570.565 132.483L570.702 137.472L566 135.8L561.298 137.472L561.435 132.483L558.392 128.528L563.179 127.117L566 123Z" fill="#F28100"/>
<path d="M585 123L587.821 127.117L592.608 128.528L589.565 132.483L589.702 137.472L585 135.8L580.298 137.472L580.435 132.483L577.392 128.528L582.179 127.117L585 123Z" fill="#D5D5E4"/>
<path d="M604 123L606.821 127.117L611.608 128.528L608.565 132.483L608.702 137.472L604 135.8L599.298 137.472L599.435 132.483L596.392 128.528L601.179 127.117L604 123Z" fill="#D5D5E4"/>
<path d="M528 279L530.821 283.117L535.608 284.528L532.565 288.483L532.702 293.472L528 291.8L523.298 293.472L523.435 288.483L520.392 284.528L525.179 283.117L528 279Z" fill="#F28100"/>
<path d="M547 279L549.821 283.117L554.608 284.528L551.565 288.483L551.702 293.472L547 291.8L542.298 293.472L542.435 288.483L539.392 284.528L544.179 283.117L547 279Z" fill="#F28100"/>
<path d="M566 279L568.821 283.117L573.608 284.528L570.565 288.483L570.702 293.472L566 291.8L561.298 293.472L561.435 288.483L558.392 284.528L563.179 283.117L566 279Z" fill="#F28100"/>
<path d="M585 279L587.821 283.117L592.608 284.528L589.565 288.483L589.702 293.472L585 291.8L580.298 293.472L580.435 288.483L577.392 284.528L582.179 283.117L585 279Z" fill="#D5D5E4"/>
<path d="M604 279L606.821 283.117L611.608 284.528L608.565 288.483L608.702 293.472L604 291.8L599.298 293.472L599.435 288.483L596.392 284.528L601.179 283.117L604 279Z" fill="#D5D5E4"/>
<path d="M528 161L530.821 165.117L535.608 166.528L532.565 170.483L532.702 175.472L528 173.8L523.298 175.472L523.435 170.483L520.392 166.528L525.179 165.117L528 161Z" fill="#F28100"/>
<path d="M547 161L549.821 165.117L554.608 166.528L551.565 170.483L551.702 175.472L547 173.8L542.298 175.472L542.435 170.483L539.392 166.528L544.179 165.117L547 161Z" fill="#F28100"/>
<path d="M566 161L568.821 165.117L573.608 166.528L570.565 170.483L570.702 175.472L566 173.8L561.298 175.472L561.435 170.483L558.392 166.528L563.179 165.117L566 161Z" fill="#D5D5E4"/>
<path d="M585 161L587.821 165.117L592.608 166.528L589.565 170.483L589.702 175.472L585 173.8L580.298 175.472L580.435 170.483L577.392 166.528L582.179 165.117L585 161Z" fill="#D5D5E4"/>
<path d="M604 161L606.821 165.117L611.608 166.528L608.565 170.483L608.702 175.472L604 173.8L599.298 175.472L599.435 170.483L596.392 166.528L601.179 165.117L604 161Z" fill="#D5D5E4"/>
<path d="M528 201L530.821 205.117L535.608 206.528L532.565 210.483L532.702 215.472L528 213.8L523.298 215.472L523.435 210.483L520.392 206.528L525.179 205.117L528 201Z" fill="#F28100"/>
<path d="M547 201L549.821 205.117L554.608 206.528L551.565 210.483L551.702 215.472L547 213.8L542.298 215.472L542.435 210.483L539.392 206.528L544.179 205.117L547 201Z" fill="#F28100"/>
<path d="M566 201L568.821 205.117L573.608 206.528L570.565 210.483L570.702 215.472L566 213.8L561.298 215.472L561.435 210.483L558.392 206.528L563.179 205.117L566 201Z" fill="#F28100"/>
<path d="M585 201L587.821 205.117L592.608 206.528L589.565 210.483L589.702 215.472L585 213.8L580.298 215.472L580.435 210.483L577.392 206.528L582.179 205.117L585 201Z" fill="#F28100"/>
<path d="M604 201L606.821 205.117L611.608 206.528L608.565 210.483L608.702 215.472L604 213.8L599.298 215.472L599.435 210.483L596.392 206.528L601.179 205.117L604 201Z" fill="#D5D5E4"/>
<path d="M528 318L530.821 322.117L535.608 323.528L532.565 327.483L532.702 332.472L528 330.8L523.298 332.472L523.435 327.483L520.392 323.528L525.179 322.117L528 318Z" fill="#F28100"/>
<path d="M547 318L549.821 322.117L554.608 323.528L551.565 327.483L551.702 332.472L547 330.8L542.298 332.472L542.435 327.483L539.392 323.528L544.179 322.117L547 318Z" fill="#F28100"/>
<path d="M566 318L568.821 322.117L573.608 323.528L570.565 327.483L570.702 332.472L566 330.8L561.298 332.472L561.435 327.483L558.392 323.528L563.179 322.117L566 318Z" fill="#F28100"/>
<path d="M585 318L587.821 322.117L592.608 323.528L589.565 327.483L589.702 332.472L585 330.8L580.298 332.472L580.435 327.483L577.392 323.528L582.179 322.117L585 318Z" fill="#F28100"/>
<path d="M604 318L606.821 322.117L611.608 323.528L608.565 327.483L608.702 332.472L604 330.8L599.298 332.472L599.435 327.483L596.392 323.528L601.179 322.117L604 318Z" fill="#D5D5E4"/>
<path d="M528 357L530.821 361.117L535.608 362.528L532.565 366.483L532.702 371.472L528 369.8L523.298 371.472L523.435 366.483L520.392 362.528L525.179 361.117L528 357Z" fill="#F28100"/>
<path d="M547 357L549.821 361.117L554.608 362.528L551.565 366.483L551.702 371.472L547 369.8L542.298 371.472L542.435 366.483L539.392 362.528L544.179 361.117L547 357Z" fill="#F28100"/>
<path d="M566 357L568.821 361.117L573.608 362.528L570.565 366.483L570.702 371.472L566 369.8L561.298 371.472L561.435 366.483L558.392 362.528L563.179 361.117L566 357Z" fill="#D5D5E4"/>
<path d="M585 357L587.821 361.117L592.608 362.528L589.565 366.483L589.702 371.472L585 369.8L580.298 371.472L580.435 366.483L577.392 362.528L582.179 361.117L585 357Z" fill="#D5D5E4"/>
<path d="M604 357L606.821 361.117L611.608 362.528L608.565 366.483L608.702 371.472L604 369.8L599.298 371.472L599.435 366.483L596.392 362.528L601.179 361.117L604 357Z" fill="#D5D5E4"/>
<path d="M528 240L530.821 244.117L535.608 245.528L532.565 249.483L532.702 254.472L528 252.8L523.298 254.472L523.435 249.483L520.392 245.528L525.179 244.117L528 240Z" fill="#F28100"/>
<path d="M547 240L549.821 244.117L554.608 245.528L551.565 249.483L551.702 254.472L547 252.8L542.298 254.472L542.435 249.483L539.392 245.528L544.179 244.117L547 240Z" fill="#D5D5E4"/>
<path d="M566 240L568.821 244.117L573.608 245.528L570.565 249.483L570.702 254.472L566 252.8L561.298 254.472L561.435 249.483L558.392 245.528L563.179 244.117L566 240Z" fill="#D5D5E4"/>
<path d="M585 240L587.821 244.117L592.608 245.528L589.565 249.483L589.702 254.472L585 252.8L580.298 254.472L580.435 249.483L577.392 245.528L582.179 244.117L585 240Z" fill="#D5D5E4"/>
<path d="M604 240L606.821 244.117L611.608 245.528L608.565 249.483L608.702 254.472L604 252.8L599.298 254.472L599.435 249.483L596.392 245.528L601.179 244.117L604 240Z" fill="#D5D5E4"/>
</svg>
