<svg width="712" height="458" viewBox="0 0 712 458" fill="none" xmlns="http://www.w3.org/2000/svg">
<path d="M62.5 70C62.5 67.5147 64.5147 65.5 67 65.5H200.5V104.5H62.5V70Z" fill="#F9F9FB" stroke="#DDDDE6"/>
<rect x="200.5" y="65.5" width="142" height="39" fill="#F9F9FB" stroke="#DDDDE6"/>
<rect x="342.5" y="65.5" width="142" height="39" fill="#F9F9FB" stroke="#DDDDE6"/>
<path d="M484.5 65.5H642C644.485 65.5 646.5 67.5147 646.5 70V104.5H484.5V65.5Z" fill="#F9F9FB" stroke="#DDDDE6"/>
<rect x="62.5" y="104.5" width="138" height="39" fill="white" stroke="#DDDDE6"/>
<rect x="62.5" y="143.5" width="138" height="39" fill="white" stroke="#DDDDE6"/>
<rect x="62.5" y="182.5" width="138" height="39" fill="white" stroke="#DDDDE6"/>
<rect x="62.5" y="221.5" width="138" height="39" fill="white" stroke="#DDDDE6"/>
<rect x="62.5" y="260.5" width="138" height="39" fill="white" stroke="#DDDDE6"/>
<rect x="62.5" y="299.5" width="138" height="39" fill="white" stroke="#DDDDE6"/>
<path d="M62.5 338.5H200.5V377.5H67C64.5147 377.5 62.5 375.485 62.5 373V338.5Z" fill="white" stroke="#DDDDE6"/>
<rect x="200.5" y="104.5" width="142" height="39" fill="white" stroke="#DDDDE6"/>
<rect x="200.5" y="143.5" width="142" height="39" fill="white" stroke="#DDDDE6"/>
<rect x="200.5" y="182.5" width="142" height="39" fill="white" stroke="#DDDDE6"/>
<rect x="200.5" y="221.5" width="142" height="39" fill="white" stroke="#DDDDE6"/>
<rect x="200.5" y="260.5" width="142" height="39" fill="white" stroke="#DDDDE6"/>
<rect x="200.5" y="299.5" width="142" height="39" fill="white" stroke="#DDDDE6"/>
<rect x="200.5" y="338.5" width="142" height="39" fill="white" stroke="#DDDDE6"/>
<rect x="342.5" y="104.5" width="142" height="39" fill="white" stroke="#DDDDE6"/>
<rect x="342.5" y="143.5" width="142" height="39" fill="white" stroke="#DDDDE6"/>
<rect x="342.5" y="182.5" width="142" height="39" fill="white" stroke="#DDDDE6"/>
<rect x="342.5" y="221.5" width="142" height="39" fill="white" stroke="#DDDDE6"/>
<rect x="342.5" y="260.5" width="142" height="39" fill="white" stroke="#DDDDE6"/>
<rect x="484.5" y="260.5" width="162" height="39" fill="white" stroke="#DDDDE6"/>
<rect x="342.5" y="299.5" width="142" height="39" fill="white" stroke="#DDDDE6"/>
<rect x="484.5" y="299.5" width="162" height="39" fill="white" stroke="#DDDDE6"/>
<rect x="342.5" y="338.5" width="142" height="39" fill="white" stroke="#DDDDE6"/>
<rect x="484.5" y="104.5" width="162" height="39" fill="white" stroke="#DDDDE6"/>
<rect x="484.5" y="143.5" width="162" height="39" fill="white" stroke="#DDDDE6"/>
<rect x="484.5" y="182.5" width="162" height="39" fill="white" stroke="#DDDDE6"/>
<rect x="484.5" y="221.5" width="162" height="39" fill="white" stroke="#DDDDE6"/>
<path d="M484.5 338.5H646.5V373C646.5 375.485 644.485 377.5 642 377.5H484.5V338.5Z" fill="white" stroke="#DDDDE6"/>
<path d="M79.252 78.4V80.29H83.428V91H85.48V80.29H89.638V78.4H79.252ZM88.543 86.68C88.543 89.668 90.811 91.234 93.223 91.234C95.653 91.234 97.903 89.668 97.903 86.68C97.903 83.692 95.653 82.126 93.223 82.126C90.811 82.126 88.543 83.692 88.543 86.68ZM95.941 86.68C95.941 88.372 94.825 89.47 93.223 89.47C91.603 89.47 90.487 88.372 90.487 86.68C90.487 84.988 91.603 83.89 93.223 83.89C94.825 83.89 95.941 84.988 95.941 86.68ZM104.846 91C106.844 91 107.69 89.956 107.69 88.624C107.69 87.562 107.024 86.878 106.214 86.626C106.952 86.302 107.438 85.618 107.438 84.664C107.438 83.314 106.448 82.36 104.702 82.36H99.7705V91H104.846ZM101.696 87.328H104.414C105.08 87.328 105.746 87.562 105.746 88.444C105.746 89.272 105.17 89.542 104.378 89.542H101.696V87.328ZM101.696 83.818H104.27C104.864 83.818 105.494 84.07 105.494 84.916C105.494 85.69 104.954 85.96 104.27 85.96H101.696V83.818ZM116.994 89.002V85.906C116.994 83.296 115.446 82.126 112.998 82.126C111.612 82.126 110.37 82.468 109.686 82.702V84.466C110.46 84.124 111.522 83.8 112.8 83.8C114.276 83.8 115.068 84.556 115.068 85.636V85.942C114.384 85.798 113.556 85.69 112.818 85.69C111.018 85.69 108.966 86.374 108.966 88.588C108.966 90.37 110.424 91.234 111.99 91.234C113.34 91.234 114.402 90.802 115.248 90.118C115.554 90.82 116.184 91.126 116.976 91.126C117.408 91.126 117.84 91.054 118.2 90.91V89.524C118.02 89.578 117.822 89.632 117.624 89.632C117.282 89.632 116.994 89.488 116.994 89.002ZM113.196 87.04C113.808 87.04 114.546 87.148 115.068 87.256V88.714C114.384 89.398 113.484 89.74 112.566 89.74C111.702 89.74 110.946 89.308 110.946 88.462C110.946 87.382 112.098 87.04 113.196 87.04ZM121.361 83.71V82.36H119.651V94.96H121.577V89.884C122.171 90.568 123.179 91.234 124.691 91.234C127.283 91.234 128.975 89.164 128.975 86.68C128.975 84.196 127.283 82.126 124.691 82.126C123.071 82.126 122.045 82.882 121.361 83.71ZM127.013 86.68C127.013 88.372 125.897 89.542 124.331 89.542C122.999 89.542 121.991 88.678 121.577 87.724V85.618C121.991 84.682 122.999 83.818 124.331 83.818C125.897 83.818 127.013 84.988 127.013 86.68ZM132.505 91L137.131 85.348V91H139.057V82.36H137.401L132.775 88.012V82.36H130.849V91H132.505Z" fill="#454545"/>
<path d="M79.252 116.4H89.62V117.84H85.192V129H83.68V117.84H79.252V116.4ZM89.9126 128.01C89.0006 127.194 88.5446 126.084 88.5446 124.68C88.5446 123.276 89.0006 122.172 89.9126 121.368C90.8246 120.552 91.9046 120.144 93.1526 120.144C94.4126 120.144 95.4926 120.552 96.3926 121.368C97.3046 122.172 97.7606 123.276 97.7606 124.68C97.7606 126.084 97.3046 127.194 96.3926 128.01C95.4926 128.814 94.4126 129.216 93.1526 129.216C91.9046 129.216 90.8246 128.814 89.9126 128.01ZM95.4206 127.002C96.0206 126.426 96.3206 125.652 96.3206 124.68C96.3206 123.708 96.0206 122.94 95.4206 122.376C94.8206 121.8 94.0646 121.512 93.1526 121.512C92.2406 121.512 91.4846 121.8 90.8846 122.376C90.2846 122.94 89.9846 123.708 89.9846 124.68C89.9846 125.652 90.2846 126.426 90.8846 127.002C91.4846 127.566 92.2406 127.848 93.1526 127.848C94.0646 127.848 94.8206 127.566 95.4206 127.002ZM104.704 129H99.8261V120.36H104.56C105.34 120.36 105.976 120.564 106.468 120.972C106.972 121.38 107.224 121.956 107.224 122.7C107.224 123.132 107.116 123.522 106.9 123.87C106.684 124.218 106.408 124.464 106.072 124.608C106.468 124.74 106.804 124.98 107.08 125.328C107.356 125.676 107.494 126.102 107.494 126.606C107.494 127.338 107.254 127.92 106.774 128.352C106.306 128.784 105.616 129 104.704 129ZM101.266 125.256V127.74H104.506C105.538 127.74 106.054 127.332 106.054 126.516C106.054 125.676 105.556 125.256 104.56 125.256H101.266ZM101.266 121.62V124.014H104.416C105.316 124.014 105.766 123.624 105.766 122.844C105.766 122.4 105.634 122.088 105.37 121.908C105.106 121.716 104.788 121.62 104.416 121.62H101.266ZM116.707 127.2C116.707 127.644 116.929 127.866 117.373 127.866C117.565 127.866 117.787 127.824 118.039 127.74V128.91C117.679 129.042 117.319 129.108 116.959 129.108C116.131 129.108 115.603 128.76 115.375 128.064C114.451 128.832 113.329 129.216 112.009 129.216C111.169 129.216 110.449 128.994 109.849 128.55C109.261 128.094 108.967 127.44 108.967 126.588C108.967 125.568 109.345 124.83 110.101 124.374C110.869 123.906 111.793 123.672 112.873 123.672C113.665 123.672 114.463 123.762 115.267 123.942V123.636C115.267 122.976 115.051 122.454 114.619 122.07C114.187 121.674 113.581 121.476 112.801 121.476C111.709 121.476 110.659 121.692 109.651 122.124V120.72C110.779 120.336 111.877 120.144 112.945 120.144C114.121 120.144 115.039 120.462 115.699 121.098C116.371 121.722 116.707 122.628 116.707 123.816V127.2ZM110.443 126.516C110.443 126.996 110.623 127.362 110.983 127.614C111.355 127.854 111.799 127.974 112.315 127.974C113.503 127.974 114.487 127.554 115.267 126.714V125.13C114.451 124.962 113.719 124.878 113.071 124.878C112.339 124.878 111.715 125.01 111.199 125.274C110.695 125.526 110.443 125.94 110.443 126.516ZM120.88 121.8C121.852 120.696 123.016 120.144 124.372 120.144C125.608 120.144 126.634 120.576 127.45 121.44C128.278 122.304 128.692 123.384 128.692 124.68C128.692 125.976 128.278 127.056 127.45 127.92C126.634 128.784 125.608 129.216 124.372 129.216C123.004 129.216 121.888 128.712 121.024 127.704V132.96H119.584V120.36H120.88V121.8ZM126.37 127.002C126.958 126.414 127.252 125.64 127.252 124.68C127.252 123.72 126.958 122.946 126.37 122.358C125.794 121.77 125.074 121.476 124.21 121.476C123.478 121.476 122.83 121.68 122.266 122.088C121.702 122.496 121.288 123 121.024 123.6V125.76C121.288 126.36 121.702 126.864 122.266 127.272C122.83 127.68 123.478 127.884 124.21 127.884C125.074 127.884 125.794 127.59 126.37 127.002ZM137.838 116.76H138.954V127.56H141.24V129H134.868V127.56H137.442V118.362L134.868 119.334V117.894L137.838 116.76Z" fill="#454545"/>
<path d="M267.876 122.538C269.04 121.758 270.318 121.368 271.71 121.368C272.826 121.368 273.804 121.71 274.644 122.394C275.484 123.066 275.904 124.002 275.904 125.202C275.904 126.462 275.484 127.446 274.644 128.154C273.816 128.862 272.772 129.216 271.512 129.216C269.784 129.216 268.488 128.682 267.624 127.614C266.772 126.534 266.346 125.022 266.346 123.078C266.346 120.918 266.856 119.292 267.876 118.2C268.908 117.096 270.252 116.544 271.908 116.544C272.976 116.544 273.966 116.778 274.878 117.246V118.686C273.99 118.218 273.012 117.984 271.944 117.984C270.816 117.984 269.874 118.35 269.118 119.082C268.374 119.802 267.96 120.954 267.876 122.538ZM267.894 124.05C268.122 126.558 269.292 127.812 271.404 127.812C272.292 127.812 273.006 127.608 273.546 127.2C274.098 126.792 274.374 126.15 274.374 125.274C274.374 124.386 274.092 123.75 273.528 123.366C272.964 122.97 272.232 122.772 271.332 122.772C270 122.772 268.854 123.198 267.894 124.05Z" fill="#454545"/>
<path d="M266.643 155.76H275.463V157.128L270.351 168H268.731L273.807 157.2H266.643V155.76Z" fill="#454545"/>
<path d="M267.19 194.76H268.306V205.56H270.592V207H264.22V205.56H266.794V196.362L264.22 197.334V195.894L267.19 194.76ZM274.924 194.76H276.04V205.56H278.326V207H271.954V205.56H274.528V196.362L271.954 197.334V195.894L274.924 194.76Z" fill="#454545"/>
<path d="M266.643 233.76H275.463V235.128L270.351 246H268.731L273.807 235.2H266.643V233.76Z" fill="#454545"/>
<path d="M266.389 272.76H267.505V283.56H269.791V285H263.419V283.56H265.993V274.362L263.419 275.334V273.894L266.389 272.76ZM271.423 273.732C272.563 272.94 273.871 272.544 275.347 272.544C276.619 272.544 277.633 272.832 278.389 273.408C279.145 273.984 279.523 274.788 279.523 275.82C279.523 276.312 279.427 276.774 279.235 277.206C279.055 277.638 278.779 278.034 278.407 278.394C278.047 278.754 277.693 279.06 277.345 279.312C277.009 279.552 276.583 279.822 276.067 280.122C276.007 280.158 275.821 280.266 275.509 280.446C275.209 280.626 275.017 280.74 274.933 280.788C274.861 280.836 274.693 280.944 274.429 281.112C274.177 281.268 274.009 281.382 273.925 281.454C273.853 281.526 273.721 281.64 273.529 281.796C273.349 281.952 273.223 282.084 273.151 282.192C273.091 282.3 273.007 282.438 272.899 282.606C272.803 282.762 272.737 282.918 272.701 283.074C272.665 283.23 272.647 283.398 272.647 283.578L279.613 283.56V285H270.991V284.28C270.991 283.608 271.099 283.002 271.315 282.462C271.531 281.91 271.837 281.442 272.233 281.058C272.641 280.662 273.043 280.332 273.439 280.068C273.835 279.792 274.297 279.498 274.825 279.186C274.945 279.126 275.035 279.078 275.095 279.042C276.187 278.406 276.901 277.92 277.237 277.584C277.753 277.056 278.011 276.462 278.011 275.802C278.011 275.202 277.765 274.746 277.273 274.434C276.793 274.11 276.109 273.948 275.221 273.948C273.925 273.948 272.659 274.38 271.423 275.244V273.732Z" fill="#454545"/>
<path d="M266.103 315.558C266.103 314.298 266.517 313.314 267.345 312.606C268.185 311.898 269.235 311.544 270.495 311.544C272.223 311.544 273.513 312.084 274.365 313.164C275.229 314.232 275.661 315.738 275.661 317.682C275.661 319.842 275.145 321.474 274.113 322.578C273.093 323.67 271.755 324.216 270.099 324.216C269.031 324.216 268.041 323.982 267.129 323.514V322.074C268.017 322.542 268.995 322.776 270.063 322.776C271.191 322.776 272.127 322.416 272.871 321.696C273.627 320.964 274.047 319.806 274.131 318.222C272.955 319.002 271.677 319.392 270.297 319.392C269.181 319.392 268.203 319.056 267.363 318.384C266.523 317.7 266.103 316.758 266.103 315.558ZM270.603 312.948C269.715 312.948 268.995 313.152 268.443 313.56C267.903 313.968 267.633 314.61 267.633 315.486C267.633 316.374 267.915 317.016 268.479 317.412C269.043 317.796 269.775 317.988 270.675 317.988C272.007 317.988 273.153 317.562 274.113 316.71C273.885 314.202 272.715 312.948 270.603 312.948Z" fill="#454545"/>
<path d="M265.229 350.76H266.345V361.56H268.631V363H262.259V361.56H264.833V352.362L262.259 353.334V351.894L265.229 350.76ZM271.325 361.47C270.413 360.306 269.957 358.776 269.957 356.88C269.957 354.984 270.413 353.454 271.325 352.29C272.237 351.126 273.581 350.544 275.357 350.544C277.145 350.544 278.495 351.126 279.407 352.29C280.319 353.442 280.775 354.972 280.775 356.88C280.775 358.788 280.319 360.324 279.407 361.488C278.495 362.64 277.145 363.216 275.357 363.216C273.581 363.216 272.237 362.634 271.325 361.47ZM278.273 360.516C278.921 359.664 279.245 358.452 279.245 356.88C279.245 355.308 278.921 354.102 278.273 353.262C277.637 352.41 276.665 351.984 275.357 351.984C274.049 351.984 273.077 352.41 272.441 353.262C271.805 354.102 271.487 355.308 271.487 356.88C271.487 358.452 271.805 359.664 272.441 360.516C273.077 361.356 274.049 361.776 275.357 361.776C276.665 361.776 277.637 361.356 278.273 360.516Z" fill="#454545"/>
<path d="M417.398 119.874C417.398 120.498 417.23 121.062 416.894 121.566C416.57 122.058 416.144 122.394 415.616 122.574C416.24 122.766 416.774 123.12 417.218 123.636C417.674 124.14 417.902 124.818 417.902 125.67C417.902 126.81 417.476 127.686 416.624 128.298C415.784 128.91 414.716 129.216 413.42 129.216C411.776 129.216 410.354 128.946 409.154 128.406V126.912C410.318 127.512 411.698 127.806 413.294 127.794C415.394 127.794 416.444 127.062 416.444 125.598C416.444 124.134 415.448 123.402 413.456 123.402H411.584V121.962L413.294 121.98C414.158 121.98 414.812 121.8 415.256 121.44C415.712 121.068 415.94 120.588 415.94 120C415.94 119.364 415.688 118.866 415.184 118.506C414.68 118.134 413.966 117.948 413.042 117.948C411.77 117.948 410.546 118.26 409.37 118.884V117.408C410.498 116.832 411.788 116.544 413.24 116.544C414.488 116.544 415.49 116.85 416.246 117.462C417.014 118.074 417.398 118.878 417.398 119.874Z" fill="#454545"/>
<path d="M417.398 158.874C417.398 159.498 417.23 160.062 416.894 160.566C416.57 161.058 416.144 161.394 415.616 161.574C416.24 161.766 416.774 162.12 417.218 162.636C417.674 163.14 417.902 163.818 417.902 164.67C417.902 165.81 417.476 166.686 416.624 167.298C415.784 167.91 414.716 168.216 413.42 168.216C411.776 168.216 410.354 167.946 409.154 167.406V165.912C410.318 166.512 411.698 166.806 413.294 166.794C415.394 166.794 416.444 166.062 416.444 164.598C416.444 163.134 415.448 162.402 413.456 162.402H411.584V160.962L413.294 160.98C414.158 160.98 414.812 160.8 415.256 160.44C415.712 160.068 415.94 159.588 415.94 159C415.94 158.364 415.688 157.866 415.184 157.506C414.68 157.134 413.966 156.948 413.042 156.948C411.77 156.948 410.546 157.26 409.37 157.884V156.408C410.498 155.832 411.788 155.544 413.24 155.544C414.488 155.544 415.49 155.85 416.246 156.462C417.014 157.074 417.398 157.878 417.398 158.874Z" fill="#454545"/>
<path d="M417.398 197.874C417.398 198.498 417.23 199.062 416.894 199.566C416.57 200.058 416.144 200.394 415.616 200.574C416.24 200.766 416.774 201.12 417.218 201.636C417.674 202.14 417.902 202.818 417.902 203.67C417.902 204.81 417.476 205.686 416.624 206.298C415.784 206.91 414.716 207.216 413.42 207.216C411.776 207.216 410.354 206.946 409.154 206.406V204.912C410.318 205.512 411.698 205.806 413.294 205.794C415.394 205.794 416.444 205.062 416.444 203.598C416.444 202.134 415.448 201.402 413.456 201.402H411.584V199.962L413.294 199.98C414.158 199.98 414.812 199.8 415.256 199.44C415.712 199.068 415.94 198.588 415.94 198C415.94 197.364 415.688 196.866 415.184 196.506C414.68 196.134 413.966 195.948 413.042 195.948C411.77 195.948 410.546 196.26 409.37 196.884V195.408C410.498 194.832 411.788 194.544 413.24 194.544C414.488 194.544 415.49 194.85 416.246 195.462C417.014 196.074 417.398 196.878 417.398 197.874Z" fill="#454545"/>
<path d="M409.556 234.732C410.696 233.94 412.004 233.544 413.48 233.544C414.752 233.544 415.766 233.832 416.522 234.408C417.278 234.984 417.656 235.788 417.656 236.82C417.656 237.312 417.56 237.774 417.368 238.206C417.188 238.638 416.912 239.034 416.54 239.394C416.18 239.754 415.826 240.06 415.478 240.312C415.142 240.552 414.716 240.822 414.2 241.122C414.14 241.158 413.954 241.266 413.642 241.446C413.342 241.626 413.15 241.74 413.066 241.788C412.994 241.836 412.826 241.944 412.562 242.112C412.31 242.268 412.142 242.382 412.058 242.454C411.986 242.526 411.854 242.64 411.662 242.796C411.482 242.952 411.356 243.084 411.284 243.192C411.224 243.3 411.14 243.438 411.032 243.606C410.936 243.762 410.87 243.918 410.834 244.074C410.798 244.23 410.78 244.398 410.78 244.578L417.746 244.56V246H409.124V245.28C409.124 244.608 409.232 244.002 409.448 243.462C409.664 242.91 409.97 242.442 410.366 242.058C410.774 241.662 411.176 241.332 411.572 241.068C411.968 240.792 412.43 240.498 412.958 240.186C413.078 240.126 413.168 240.078 413.228 240.042C414.32 239.406 415.034 238.92 415.37 238.584C415.886 238.056 416.144 237.462 416.144 236.802C416.144 236.202 415.898 235.746 415.406 235.434C414.926 235.11 414.242 234.948 413.354 234.948C412.058 234.948 410.792 235.38 409.556 236.244V234.732Z" fill="#454545"/>
<path d="M409.556 273.732C410.696 272.94 412.004 272.544 413.48 272.544C414.752 272.544 415.766 272.832 416.522 273.408C417.278 273.984 417.656 274.788 417.656 275.82C417.656 276.312 417.56 276.774 417.368 277.206C417.188 277.638 416.912 278.034 416.54 278.394C416.18 278.754 415.826 279.06 415.478 279.312C415.142 279.552 414.716 279.822 414.2 280.122C414.14 280.158 413.954 280.266 413.642 280.446C413.342 280.626 413.15 280.74 413.066 280.788C412.994 280.836 412.826 280.944 412.562 281.112C412.31 281.268 412.142 281.382 412.058 281.454C411.986 281.526 411.854 281.64 411.662 281.796C411.482 281.952 411.356 282.084 411.284 282.192C411.224 282.3 411.14 282.438 411.032 282.606C410.936 282.762 410.87 282.918 410.834 283.074C410.798 283.23 410.78 283.398 410.78 283.578L417.746 283.56V285H409.124V284.28C409.124 283.608 409.232 283.002 409.448 282.462C409.664 281.91 409.97 281.442 410.366 281.058C410.774 280.662 411.176 280.332 411.572 280.068C411.968 279.792 412.43 279.498 412.958 279.186C413.078 279.126 413.168 279.078 413.228 279.042C414.32 278.406 415.034 277.92 415.37 277.584C415.886 277.056 416.144 276.462 416.144 275.802C416.144 275.202 415.898 274.746 415.406 274.434C414.926 274.11 414.242 273.948 413.354 273.948C412.058 273.948 410.792 274.38 409.556 275.244V273.732Z" fill="#454545"/>
<path d="M417.398 314.874C417.398 315.498 417.23 316.062 416.894 316.566C416.57 317.058 416.144 317.394 415.616 317.574C416.24 317.766 416.774 318.12 417.218 318.636C417.674 319.14 417.902 319.818 417.902 320.67C417.902 321.81 417.476 322.686 416.624 323.298C415.784 323.91 414.716 324.216 413.42 324.216C411.776 324.216 410.354 323.946 409.154 323.406V321.912C410.318 322.512 411.698 322.806 413.294 322.794C415.394 322.794 416.444 322.062 416.444 320.598C416.444 319.134 415.448 318.402 413.456 318.402H411.584V316.962L413.294 316.98C414.158 316.98 414.812 316.8 415.256 316.44C415.712 316.068 415.94 315.588 415.94 315C415.94 314.364 415.688 313.866 415.184 313.506C414.68 313.134 413.966 312.948 413.042 312.948C411.77 312.948 410.546 313.26 409.37 313.884V312.408C410.498 311.832 411.788 311.544 413.24 311.544C414.488 311.544 415.49 311.85 416.246 312.462C417.014 313.074 417.398 313.878 417.398 314.874Z" fill="#454545"/>
<path d="M417.398 353.874C417.398 354.498 417.23 355.062 416.894 355.566C416.57 356.058 416.144 356.394 415.616 356.574C416.24 356.766 416.774 357.12 417.218 357.636C417.674 358.14 417.902 358.818 417.902 359.67C417.902 360.81 417.476 361.686 416.624 362.298C415.784 362.91 414.716 363.216 413.42 363.216C411.776 363.216 410.354 362.946 409.154 362.406V360.912C410.318 361.512 411.698 361.806 413.294 361.794C415.394 361.794 416.444 361.062 416.444 359.598C416.444 358.134 415.448 357.402 413.456 357.402H411.584V355.962L413.294 355.98C414.158 355.98 414.812 355.8 415.256 355.44C415.712 355.068 415.94 354.588 415.94 354C415.94 353.364 415.688 352.866 415.184 352.506C414.68 352.134 413.966 351.948 413.042 351.948C411.77 351.948 410.546 352.26 409.37 352.884V351.408C410.498 350.832 411.788 350.544 413.24 350.544C414.488 350.544 415.49 350.85 416.246 351.462C417.014 352.074 417.398 352.878 417.398 353.874Z" fill="#454545"/>
<path d="M79.252 155.4H89.62V156.84H85.192V168H83.68V156.84H79.252V155.4ZM89.9126 167.01C89.0006 166.194 88.5446 165.084 88.5446 163.68C88.5446 162.276 89.0006 161.172 89.9126 160.368C90.8246 159.552 91.9046 159.144 93.1526 159.144C94.4126 159.144 95.4926 159.552 96.3926 160.368C97.3046 161.172 97.7606 162.276 97.7606 163.68C97.7606 165.084 97.3046 166.194 96.3926 167.01C95.4926 167.814 94.4126 168.216 93.1526 168.216C91.9046 168.216 90.8246 167.814 89.9126 167.01ZM95.4206 166.002C96.0206 165.426 96.3206 164.652 96.3206 163.68C96.3206 162.708 96.0206 161.94 95.4206 161.376C94.8206 160.8 94.0646 160.512 93.1526 160.512C92.2406 160.512 91.4846 160.8 90.8846 161.376C90.2846 161.94 89.9846 162.708 89.9846 163.68C89.9846 164.652 90.2846 165.426 90.8846 166.002C91.4846 166.566 92.2406 166.848 93.1526 166.848C94.0646 166.848 94.8206 166.566 95.4206 166.002ZM104.704 168H99.8261V159.36H104.56C105.34 159.36 105.976 159.564 106.468 159.972C106.972 160.38 107.224 160.956 107.224 161.7C107.224 162.132 107.116 162.522 106.9 162.87C106.684 163.218 106.408 163.464 106.072 163.608C106.468 163.74 106.804 163.98 107.08 164.328C107.356 164.676 107.494 165.102 107.494 165.606C107.494 166.338 107.254 166.92 106.774 167.352C106.306 167.784 105.616 168 104.704 168ZM101.266 164.256V166.74H104.506C105.538 166.74 106.054 166.332 106.054 165.516C106.054 164.676 105.556 164.256 104.56 164.256H101.266ZM101.266 160.62V163.014H104.416C105.316 163.014 105.766 162.624 105.766 161.844C105.766 161.4 105.634 161.088 105.37 160.908C105.106 160.716 104.788 160.62 104.416 160.62H101.266ZM116.707 166.2C116.707 166.644 116.929 166.866 117.373 166.866C117.565 166.866 117.787 166.824 118.039 166.74V167.91C117.679 168.042 117.319 168.108 116.959 168.108C116.131 168.108 115.603 167.76 115.375 167.064C114.451 167.832 113.329 168.216 112.009 168.216C111.169 168.216 110.449 167.994 109.849 167.55C109.261 167.094 108.967 166.44 108.967 165.588C108.967 164.568 109.345 163.83 110.101 163.374C110.869 162.906 111.793 162.672 112.873 162.672C113.665 162.672 114.463 162.762 115.267 162.942V162.636C115.267 161.976 115.051 161.454 114.619 161.07C114.187 160.674 113.581 160.476 112.801 160.476C111.709 160.476 110.659 160.692 109.651 161.124V159.72C110.779 159.336 111.877 159.144 112.945 159.144C114.121 159.144 115.039 159.462 115.699 160.098C116.371 160.722 116.707 161.628 116.707 162.816V166.2ZM110.443 165.516C110.443 165.996 110.623 166.362 110.983 166.614C111.355 166.854 111.799 166.974 112.315 166.974C113.503 166.974 114.487 166.554 115.267 165.714V164.13C114.451 163.962 113.719 163.878 113.071 163.878C112.339 163.878 111.715 164.01 111.199 164.274C110.695 164.526 110.443 164.94 110.443 165.516ZM120.88 160.8C121.852 159.696 123.016 159.144 124.372 159.144C125.608 159.144 126.634 159.576 127.45 160.44C128.278 161.304 128.692 162.384 128.692 163.68C128.692 164.976 128.278 166.056 127.45 166.92C126.634 167.784 125.608 168.216 124.372 168.216C123.004 168.216 121.888 167.712 121.024 166.704V171.96H119.584V159.36H120.88V160.8ZM126.37 166.002C126.958 165.414 127.252 164.64 127.252 163.68C127.252 162.72 126.958 161.946 126.37 161.358C125.794 160.77 125.074 160.476 124.21 160.476C123.478 160.476 122.83 160.68 122.266 161.088C121.702 161.496 121.288 162 121.024 162.6V164.76C121.288 165.36 121.702 165.864 122.266 166.272C122.83 166.68 123.478 166.884 124.21 166.884C125.074 166.884 125.794 166.59 126.37 166.002ZM135.138 156.732C136.278 155.94 137.586 155.544 139.062 155.544C140.334 155.544 141.348 155.832 142.104 156.408C142.86 156.984 143.238 157.788 143.238 158.82C143.238 159.312 143.142 159.774 142.95 160.206C142.77 160.638 142.494 161.034 142.122 161.394C141.762 161.754 141.408 162.06 141.06 162.312C140.724 162.552 140.298 162.822 139.782 163.122C139.722 163.158 139.536 163.266 139.224 163.446C138.924 163.626 138.732 163.74 138.648 163.788C138.576 163.836 138.408 163.944 138.144 164.112C137.892 164.268 137.724 164.382 137.64 164.454C137.568 164.526 137.436 164.64 137.244 164.796C137.064 164.952 136.938 165.084 136.866 165.192C136.806 165.3 136.722 165.438 136.614 165.606C136.518 165.762 136.452 165.918 136.416 166.074C136.38 166.23 136.362 166.398 136.362 166.578L143.328 166.56V168H134.706V167.28C134.706 166.608 134.814 166.002 135.03 165.462C135.246 164.91 135.552 164.442 135.948 164.058C136.356 163.662 136.758 163.332 137.154 163.068C137.55 162.792 138.012 162.498 138.54 162.186C138.66 162.126 138.75 162.078 138.81 162.042C139.902 161.406 140.616 160.92 140.952 160.584C141.468 160.056 141.726 159.462 141.726 158.802C141.726 158.202 141.48 157.746 140.988 157.434C140.508 157.11 139.824 156.948 138.936 156.948C137.64 156.948 136.374 157.38 135.138 158.244V156.732Z" fill="#454545"/>
<path d="M79.252 194.4H89.62V195.84H85.192V207H83.68V195.84H79.252V194.4ZM89.9126 206.01C89.0006 205.194 88.5446 204.084 88.5446 202.68C88.5446 201.276 89.0006 200.172 89.9126 199.368C90.8246 198.552 91.9046 198.144 93.1526 198.144C94.4126 198.144 95.4926 198.552 96.3926 199.368C97.3046 200.172 97.7606 201.276 97.7606 202.68C97.7606 204.084 97.3046 205.194 96.3926 206.01C95.4926 206.814 94.4126 207.216 93.1526 207.216C91.9046 207.216 90.8246 206.814 89.9126 206.01ZM95.4206 205.002C96.0206 204.426 96.3206 203.652 96.3206 202.68C96.3206 201.708 96.0206 200.94 95.4206 200.376C94.8206 199.8 94.0646 199.512 93.1526 199.512C92.2406 199.512 91.4846 199.8 90.8846 200.376C90.2846 200.94 89.9846 201.708 89.9846 202.68C89.9846 203.652 90.2846 204.426 90.8846 205.002C91.4846 205.566 92.2406 205.848 93.1526 205.848C94.0646 205.848 94.8206 205.566 95.4206 205.002ZM104.704 207H99.8261V198.36H104.56C105.34 198.36 105.976 198.564 106.468 198.972C106.972 199.38 107.224 199.956 107.224 200.7C107.224 201.132 107.116 201.522 106.9 201.87C106.684 202.218 106.408 202.464 106.072 202.608C106.468 202.74 106.804 202.98 107.08 203.328C107.356 203.676 107.494 204.102 107.494 204.606C107.494 205.338 107.254 205.92 106.774 206.352C106.306 206.784 105.616 207 104.704 207ZM101.266 203.256V205.74H104.506C105.538 205.74 106.054 205.332 106.054 204.516C106.054 203.676 105.556 203.256 104.56 203.256H101.266ZM101.266 199.62V202.014H104.416C105.316 202.014 105.766 201.624 105.766 200.844C105.766 200.4 105.634 200.088 105.37 199.908C105.106 199.716 104.788 199.62 104.416 199.62H101.266ZM116.707 205.2C116.707 205.644 116.929 205.866 117.373 205.866C117.565 205.866 117.787 205.824 118.039 205.74V206.91C117.679 207.042 117.319 207.108 116.959 207.108C116.131 207.108 115.603 206.76 115.375 206.064C114.451 206.832 113.329 207.216 112.009 207.216C111.169 207.216 110.449 206.994 109.849 206.55C109.261 206.094 108.967 205.44 108.967 204.588C108.967 203.568 109.345 202.83 110.101 202.374C110.869 201.906 111.793 201.672 112.873 201.672C113.665 201.672 114.463 201.762 115.267 201.942V201.636C115.267 200.976 115.051 200.454 114.619 200.07C114.187 199.674 113.581 199.476 112.801 199.476C111.709 199.476 110.659 199.692 109.651 200.124V198.72C110.779 198.336 111.877 198.144 112.945 198.144C114.121 198.144 115.039 198.462 115.699 199.098C116.371 199.722 116.707 200.628 116.707 201.816V205.2ZM110.443 204.516C110.443 204.996 110.623 205.362 110.983 205.614C111.355 205.854 111.799 205.974 112.315 205.974C113.503 205.974 114.487 205.554 115.267 204.714V203.13C114.451 202.962 113.719 202.878 113.071 202.878C112.339 202.878 111.715 203.01 111.199 203.274C110.695 203.526 110.443 203.94 110.443 204.516ZM120.88 199.8C121.852 198.696 123.016 198.144 124.372 198.144C125.608 198.144 126.634 198.576 127.45 199.44C128.278 200.304 128.692 201.384 128.692 202.68C128.692 203.976 128.278 205.056 127.45 205.92C126.634 206.784 125.608 207.216 124.372 207.216C123.004 207.216 121.888 206.712 121.024 205.704V210.96H119.584V198.36H120.88V199.8ZM126.37 205.002C126.958 204.414 127.252 203.64 127.252 202.68C127.252 201.72 126.958 200.946 126.37 200.358C125.794 199.77 125.074 199.476 124.21 199.476C123.478 199.476 122.83 199.68 122.266 200.088C121.702 200.496 121.288 201 121.024 201.6V203.76C121.288 204.36 121.702 204.864 122.266 205.272C122.83 205.68 123.478 205.884 124.21 205.884C125.074 205.884 125.794 205.59 126.37 205.002ZM143.094 197.874C143.094 198.498 142.926 199.062 142.59 199.566C142.266 200.058 141.84 200.394 141.312 200.574C141.936 200.766 142.47 201.12 142.914 201.636C143.37 202.14 143.598 202.818 143.598 203.67C143.598 204.81 143.172 205.686 142.32 206.298C141.48 206.91 140.412 207.216 139.116 207.216C137.472 207.216 136.05 206.946 134.85 206.406V204.912C136.014 205.512 137.394 205.806 138.99 205.794C141.09 205.794 142.14 205.062 142.14 203.598C142.14 202.134 141.144 201.402 139.152 201.402H137.28V199.962L138.99 199.98C139.854 199.98 140.508 199.8 140.952 199.44C141.408 199.068 141.636 198.588 141.636 198C141.636 197.364 141.384 196.866 140.88 196.506C140.376 196.134 139.662 195.948 138.738 195.948C137.466 195.948 136.242 196.26 135.066 196.884V195.408C136.194 194.832 137.484 194.544 138.936 194.544C140.184 194.544 141.186 194.85 141.942 195.462C142.71 196.074 143.094 196.878 143.094 197.874Z" fill="#454545"/>
<path d="M79.252 233.4H89.62V234.84H85.192V246H83.68V234.84H79.252V233.4ZM89.9126 245.01C89.0006 244.194 88.5446 243.084 88.5446 241.68C88.5446 240.276 89.0006 239.172 89.9126 238.368C90.8246 237.552 91.9046 237.144 93.1526 237.144C94.4126 237.144 95.4926 237.552 96.3926 238.368C97.3046 239.172 97.7606 240.276 97.7606 241.68C97.7606 243.084 97.3046 244.194 96.3926 245.01C95.4926 245.814 94.4126 246.216 93.1526 246.216C91.9046 246.216 90.8246 245.814 89.9126 245.01ZM95.4206 244.002C96.0206 243.426 96.3206 242.652 96.3206 241.68C96.3206 240.708 96.0206 239.94 95.4206 239.376C94.8206 238.8 94.0646 238.512 93.1526 238.512C92.2406 238.512 91.4846 238.8 90.8846 239.376C90.2846 239.94 89.9846 240.708 89.9846 241.68C89.9846 242.652 90.2846 243.426 90.8846 244.002C91.4846 244.566 92.2406 244.848 93.1526 244.848C94.0646 244.848 94.8206 244.566 95.4206 244.002ZM104.704 246H99.8261V237.36H104.56C105.34 237.36 105.976 237.564 106.468 237.972C106.972 238.38 107.224 238.956 107.224 239.7C107.224 240.132 107.116 240.522 106.9 240.87C106.684 241.218 106.408 241.464 106.072 241.608C106.468 241.74 106.804 241.98 107.08 242.328C107.356 242.676 107.494 243.102 107.494 243.606C107.494 244.338 107.254 244.92 106.774 245.352C106.306 245.784 105.616 246 104.704 246ZM101.266 242.256V244.74H104.506C105.538 244.74 106.054 244.332 106.054 243.516C106.054 242.676 105.556 242.256 104.56 242.256H101.266ZM101.266 238.62V241.014H104.416C105.316 241.014 105.766 240.624 105.766 239.844C105.766 239.4 105.634 239.088 105.37 238.908C105.106 238.716 104.788 238.62 104.416 238.62H101.266ZM116.707 244.2C116.707 244.644 116.929 244.866 117.373 244.866C117.565 244.866 117.787 244.824 118.039 244.74V245.91C117.679 246.042 117.319 246.108 116.959 246.108C116.131 246.108 115.603 245.76 115.375 245.064C114.451 245.832 113.329 246.216 112.009 246.216C111.169 246.216 110.449 245.994 109.849 245.55C109.261 245.094 108.967 244.44 108.967 243.588C108.967 242.568 109.345 241.83 110.101 241.374C110.869 240.906 111.793 240.672 112.873 240.672C113.665 240.672 114.463 240.762 115.267 240.942V240.636C115.267 239.976 115.051 239.454 114.619 239.07C114.187 238.674 113.581 238.476 112.801 238.476C111.709 238.476 110.659 238.692 109.651 239.124V237.72C110.779 237.336 111.877 237.144 112.945 237.144C114.121 237.144 115.039 237.462 115.699 238.098C116.371 238.722 116.707 239.628 116.707 240.816V244.2ZM110.443 243.516C110.443 243.996 110.623 244.362 110.983 244.614C111.355 244.854 111.799 244.974 112.315 244.974C113.503 244.974 114.487 244.554 115.267 243.714V242.13C114.451 241.962 113.719 241.878 113.071 241.878C112.339 241.878 111.715 242.01 111.199 242.274C110.695 242.526 110.443 242.94 110.443 243.516ZM120.88 238.8C121.852 237.696 123.016 237.144 124.372 237.144C125.608 237.144 126.634 237.576 127.45 238.44C128.278 239.304 128.692 240.384 128.692 241.68C128.692 242.976 128.278 244.056 127.45 244.92C126.634 245.784 125.608 246.216 124.372 246.216C123.004 246.216 121.888 245.712 121.024 244.704V249.96H119.584V237.36H120.88V238.8ZM126.37 244.002C126.958 243.414 127.252 242.64 127.252 241.68C127.252 240.72 126.958 239.946 126.37 239.358C125.794 238.77 125.074 238.476 124.21 238.476C123.478 238.476 122.83 238.68 122.266 239.088C121.702 239.496 121.288 240 121.024 240.6V242.76C121.288 243.36 121.702 243.864 122.266 244.272C122.83 244.68 123.478 244.884 124.21 244.884C125.074 244.884 125.794 244.59 126.37 244.002ZM141.042 233.76H142.68V241.878H144.984V243.282H142.68V246H141.186V243.282H134.364V241.932L141.042 233.76ZM141.186 241.878V235.794L136.218 241.878H141.186Z" fill="#454545"/>
<path d="M79.252 272.4H89.62V273.84H85.192V285H83.68V273.84H79.252V272.4ZM89.9126 284.01C89.0006 283.194 88.5446 282.084 88.5446 280.68C88.5446 279.276 89.0006 278.172 89.9126 277.368C90.8246 276.552 91.9046 276.144 93.1526 276.144C94.4126 276.144 95.4926 276.552 96.3926 277.368C97.3046 278.172 97.7606 279.276 97.7606 280.68C97.7606 282.084 97.3046 283.194 96.3926 284.01C95.4926 284.814 94.4126 285.216 93.1526 285.216C91.9046 285.216 90.8246 284.814 89.9126 284.01ZM95.4206 283.002C96.0206 282.426 96.3206 281.652 96.3206 280.68C96.3206 279.708 96.0206 278.94 95.4206 278.376C94.8206 277.8 94.0646 277.512 93.1526 277.512C92.2406 277.512 91.4846 277.8 90.8846 278.376C90.2846 278.94 89.9846 279.708 89.9846 280.68C89.9846 281.652 90.2846 282.426 90.8846 283.002C91.4846 283.566 92.2406 283.848 93.1526 283.848C94.0646 283.848 94.8206 283.566 95.4206 283.002ZM104.704 285H99.8261V276.36H104.56C105.34 276.36 105.976 276.564 106.468 276.972C106.972 277.38 107.224 277.956 107.224 278.7C107.224 279.132 107.116 279.522 106.9 279.87C106.684 280.218 106.408 280.464 106.072 280.608C106.468 280.74 106.804 280.98 107.08 281.328C107.356 281.676 107.494 282.102 107.494 282.606C107.494 283.338 107.254 283.92 106.774 284.352C106.306 284.784 105.616 285 104.704 285ZM101.266 281.256V283.74H104.506C105.538 283.74 106.054 283.332 106.054 282.516C106.054 281.676 105.556 281.256 104.56 281.256H101.266ZM101.266 277.62V280.014H104.416C105.316 280.014 105.766 279.624 105.766 278.844C105.766 278.4 105.634 278.088 105.37 277.908C105.106 277.716 104.788 277.62 104.416 277.62H101.266ZM116.707 283.2C116.707 283.644 116.929 283.866 117.373 283.866C117.565 283.866 117.787 283.824 118.039 283.74V284.91C117.679 285.042 117.319 285.108 116.959 285.108C116.131 285.108 115.603 284.76 115.375 284.064C114.451 284.832 113.329 285.216 112.009 285.216C111.169 285.216 110.449 284.994 109.849 284.55C109.261 284.094 108.967 283.44 108.967 282.588C108.967 281.568 109.345 280.83 110.101 280.374C110.869 279.906 111.793 279.672 112.873 279.672C113.665 279.672 114.463 279.762 115.267 279.942V279.636C115.267 278.976 115.051 278.454 114.619 278.07C114.187 277.674 113.581 277.476 112.801 277.476C111.709 277.476 110.659 277.692 109.651 278.124V276.72C110.779 276.336 111.877 276.144 112.945 276.144C114.121 276.144 115.039 276.462 115.699 277.098C116.371 277.722 116.707 278.628 116.707 279.816V283.2ZM110.443 282.516C110.443 282.996 110.623 283.362 110.983 283.614C111.355 283.854 111.799 283.974 112.315 283.974C113.503 283.974 114.487 283.554 115.267 282.714V281.13C114.451 280.962 113.719 280.878 113.071 280.878C112.339 280.878 111.715 281.01 111.199 281.274C110.695 281.526 110.443 281.94 110.443 282.516ZM120.88 277.8C121.852 276.696 123.016 276.144 124.372 276.144C125.608 276.144 126.634 276.576 127.45 277.44C128.278 278.304 128.692 279.384 128.692 280.68C128.692 281.976 128.278 283.056 127.45 283.92C126.634 284.784 125.608 285.216 124.372 285.216C123.004 285.216 121.888 284.712 121.024 283.704V288.96H119.584V276.36H120.88V277.8ZM126.37 283.002C126.958 282.414 127.252 281.64 127.252 280.68C127.252 279.72 126.958 278.946 126.37 278.358C125.794 277.77 125.074 277.476 124.21 277.476C123.478 277.476 122.83 277.68 122.266 278.088C121.702 278.496 121.288 279 121.024 279.6V281.76C121.288 282.36 121.702 282.864 122.266 283.272C122.83 283.68 123.478 283.884 124.21 283.884C125.074 283.884 125.794 283.59 126.37 283.002ZM135.606 272.76H142.95V274.2H137.028L136.812 277.656C137.46 277.476 138.156 277.386 138.9 277.386C139.512 277.386 140.082 277.458 140.61 277.602C141.138 277.734 141.624 277.95 142.068 278.25C142.524 278.538 142.884 278.946 143.148 279.474C143.412 279.99 143.544 280.602 143.544 281.31C143.544 282.522 143.094 283.476 142.194 284.172C141.306 284.868 140.172 285.216 138.792 285.216C137.304 285.216 135.996 284.94 134.868 284.388V282.948C135.948 283.524 137.196 283.812 138.612 283.812C139.644 283.812 140.466 283.596 141.078 283.164C141.702 282.732 142.014 282.114 142.014 281.31C142.014 279.606 140.802 278.754 138.378 278.754C137.322 278.754 136.266 278.946 135.21 279.33L135.606 272.76Z" fill="#454545"/>
<path d="M79.252 311.4H89.62V312.84H85.192V324H83.68V312.84H79.252V311.4ZM89.9126 323.01C89.0006 322.194 88.5446 321.084 88.5446 319.68C88.5446 318.276 89.0006 317.172 89.9126 316.368C90.8246 315.552 91.9046 315.144 93.1526 315.144C94.4126 315.144 95.4926 315.552 96.3926 316.368C97.3046 317.172 97.7606 318.276 97.7606 319.68C97.7606 321.084 97.3046 322.194 96.3926 323.01C95.4926 323.814 94.4126 324.216 93.1526 324.216C91.9046 324.216 90.8246 323.814 89.9126 323.01ZM95.4206 322.002C96.0206 321.426 96.3206 320.652 96.3206 319.68C96.3206 318.708 96.0206 317.94 95.4206 317.376C94.8206 316.8 94.0646 316.512 93.1526 316.512C92.2406 316.512 91.4846 316.8 90.8846 317.376C90.2846 317.94 89.9846 318.708 89.9846 319.68C89.9846 320.652 90.2846 321.426 90.8846 322.002C91.4846 322.566 92.2406 322.848 93.1526 322.848C94.0646 322.848 94.8206 322.566 95.4206 322.002ZM104.704 324H99.8261V315.36H104.56C105.34 315.36 105.976 315.564 106.468 315.972C106.972 316.38 107.224 316.956 107.224 317.7C107.224 318.132 107.116 318.522 106.9 318.87C106.684 319.218 106.408 319.464 106.072 319.608C106.468 319.74 106.804 319.98 107.08 320.328C107.356 320.676 107.494 321.102 107.494 321.606C107.494 322.338 107.254 322.92 106.774 323.352C106.306 323.784 105.616 324 104.704 324ZM101.266 320.256V322.74H104.506C105.538 322.74 106.054 322.332 106.054 321.516C106.054 320.676 105.556 320.256 104.56 320.256H101.266ZM101.266 316.62V319.014H104.416C105.316 319.014 105.766 318.624 105.766 317.844C105.766 317.4 105.634 317.088 105.37 316.908C105.106 316.716 104.788 316.62 104.416 316.62H101.266ZM116.707 322.2C116.707 322.644 116.929 322.866 117.373 322.866C117.565 322.866 117.787 322.824 118.039 322.74V323.91C117.679 324.042 117.319 324.108 116.959 324.108C116.131 324.108 115.603 323.76 115.375 323.064C114.451 323.832 113.329 324.216 112.009 324.216C111.169 324.216 110.449 323.994 109.849 323.55C109.261 323.094 108.967 322.44 108.967 321.588C108.967 320.568 109.345 319.83 110.101 319.374C110.869 318.906 111.793 318.672 112.873 318.672C113.665 318.672 114.463 318.762 115.267 318.942V318.636C115.267 317.976 115.051 317.454 114.619 317.07C114.187 316.674 113.581 316.476 112.801 316.476C111.709 316.476 110.659 316.692 109.651 317.124V315.72C110.779 315.336 111.877 315.144 112.945 315.144C114.121 315.144 115.039 315.462 115.699 316.098C116.371 316.722 116.707 317.628 116.707 318.816V322.2ZM110.443 321.516C110.443 321.996 110.623 322.362 110.983 322.614C111.355 322.854 111.799 322.974 112.315 322.974C113.503 322.974 114.487 322.554 115.267 321.714V320.13C114.451 319.962 113.719 319.878 113.071 319.878C112.339 319.878 111.715 320.01 111.199 320.274C110.695 320.526 110.443 320.94 110.443 321.516ZM120.88 316.8C121.852 315.696 123.016 315.144 124.372 315.144C125.608 315.144 126.634 315.576 127.45 316.44C128.278 317.304 128.692 318.384 128.692 319.68C128.692 320.976 128.278 322.056 127.45 322.92C126.634 323.784 125.608 324.216 124.372 324.216C123.004 324.216 121.888 323.712 121.024 322.704V327.96H119.584V315.36H120.88V316.8ZM126.37 322.002C126.958 321.414 127.252 320.64 127.252 319.68C127.252 318.72 126.958 317.946 126.37 317.358C125.794 316.77 125.074 316.476 124.21 316.476C123.478 316.476 122.83 316.68 122.266 317.088C121.702 317.496 121.288 318 121.024 318.6V320.76C121.288 321.36 121.702 321.864 122.266 322.272C122.83 322.68 123.478 322.884 124.21 322.884C125.074 322.884 125.794 322.59 126.37 322.002ZM136.38 317.538C137.544 316.758 138.822 316.368 140.214 316.368C141.33 316.368 142.308 316.71 143.148 317.394C143.988 318.066 144.408 319.002 144.408 320.202C144.408 321.462 143.988 322.446 143.148 323.154C142.32 323.862 141.276 324.216 140.016 324.216C138.288 324.216 136.992 323.682 136.128 322.614C135.276 321.534 134.85 320.022 134.85 318.078C134.85 315.918 135.36 314.292 136.38 313.2C137.412 312.096 138.756 311.544 140.412 311.544C141.48 311.544 142.47 311.778 143.382 312.246V313.686C142.494 313.218 141.516 312.984 140.448 312.984C139.32 312.984 138.378 313.35 137.622 314.082C136.878 314.802 136.464 315.954 136.38 317.538ZM136.398 319.05C136.626 321.558 137.796 322.812 139.908 322.812C140.796 322.812 141.51 322.608 142.05 322.2C142.602 321.792 142.878 321.15 142.878 320.274C142.878 319.386 142.596 318.75 142.032 318.366C141.468 317.97 140.736 317.772 139.836 317.772C138.504 317.772 137.358 318.198 136.398 319.05Z" fill="#454545"/>
<path d="M79.252 350.4H89.62V351.84H85.192V363H83.68V351.84H79.252V350.4ZM89.9126 362.01C89.0006 361.194 88.5446 360.084 88.5446 358.68C88.5446 357.276 89.0006 356.172 89.9126 355.368C90.8246 354.552 91.9046 354.144 93.1526 354.144C94.4126 354.144 95.4926 354.552 96.3926 355.368C97.3046 356.172 97.7606 357.276 97.7606 358.68C97.7606 360.084 97.3046 361.194 96.3926 362.01C95.4926 362.814 94.4126 363.216 93.1526 363.216C91.9046 363.216 90.8246 362.814 89.9126 362.01ZM95.4206 361.002C96.0206 360.426 96.3206 359.652 96.3206 358.68C96.3206 357.708 96.0206 356.94 95.4206 356.376C94.8206 355.8 94.0646 355.512 93.1526 355.512C92.2406 355.512 91.4846 355.8 90.8846 356.376C90.2846 356.94 89.9846 357.708 89.9846 358.68C89.9846 359.652 90.2846 360.426 90.8846 361.002C91.4846 361.566 92.2406 361.848 93.1526 361.848C94.0646 361.848 94.8206 361.566 95.4206 361.002ZM104.704 363H99.8261V354.36H104.56C105.34 354.36 105.976 354.564 106.468 354.972C106.972 355.38 107.224 355.956 107.224 356.7C107.224 357.132 107.116 357.522 106.9 357.87C106.684 358.218 106.408 358.464 106.072 358.608C106.468 358.74 106.804 358.98 107.08 359.328C107.356 359.676 107.494 360.102 107.494 360.606C107.494 361.338 107.254 361.92 106.774 362.352C106.306 362.784 105.616 363 104.704 363ZM101.266 359.256V361.74H104.506C105.538 361.74 106.054 361.332 106.054 360.516C106.054 359.676 105.556 359.256 104.56 359.256H101.266ZM101.266 355.62V358.014H104.416C105.316 358.014 105.766 357.624 105.766 356.844C105.766 356.4 105.634 356.088 105.37 355.908C105.106 355.716 104.788 355.62 104.416 355.62H101.266ZM116.707 361.2C116.707 361.644 116.929 361.866 117.373 361.866C117.565 361.866 117.787 361.824 118.039 361.74V362.91C117.679 363.042 117.319 363.108 116.959 363.108C116.131 363.108 115.603 362.76 115.375 362.064C114.451 362.832 113.329 363.216 112.009 363.216C111.169 363.216 110.449 362.994 109.849 362.55C109.261 362.094 108.967 361.44 108.967 360.588C108.967 359.568 109.345 358.83 110.101 358.374C110.869 357.906 111.793 357.672 112.873 357.672C113.665 357.672 114.463 357.762 115.267 357.942V357.636C115.267 356.976 115.051 356.454 114.619 356.07C114.187 355.674 113.581 355.476 112.801 355.476C111.709 355.476 110.659 355.692 109.651 356.124V354.72C110.779 354.336 111.877 354.144 112.945 354.144C114.121 354.144 115.039 354.462 115.699 355.098C116.371 355.722 116.707 356.628 116.707 357.816V361.2ZM110.443 360.516C110.443 360.996 110.623 361.362 110.983 361.614C111.355 361.854 111.799 361.974 112.315 361.974C113.503 361.974 114.487 361.554 115.267 360.714V359.13C114.451 358.962 113.719 358.878 113.071 358.878C112.339 358.878 111.715 359.01 111.199 359.274C110.695 359.526 110.443 359.94 110.443 360.516ZM120.88 355.8C121.852 354.696 123.016 354.144 124.372 354.144C125.608 354.144 126.634 354.576 127.45 355.44C128.278 356.304 128.692 357.384 128.692 358.68C128.692 359.976 128.278 361.056 127.45 361.92C126.634 362.784 125.608 363.216 124.372 363.216C123.004 363.216 121.888 362.712 121.024 361.704V366.96H119.584V354.36H120.88V355.8ZM126.37 361.002C126.958 360.414 127.252 359.64 127.252 358.68C127.252 357.72 126.958 356.946 126.37 356.358C125.794 355.77 125.074 355.476 124.21 355.476C123.478 355.476 122.83 355.68 122.266 356.088C121.702 356.496 121.288 357 121.024 357.6V359.76C121.288 360.36 121.702 360.864 122.266 361.272C122.83 361.68 123.478 361.884 124.21 361.884C125.074 361.884 125.794 361.59 126.37 361.002ZM134.4 350.76H143.22V352.128L138.108 363H136.488L141.564 352.2H134.4V350.76Z" fill="#454545"/>
<path d="M241.35 78.4H243.204V91H241.152V82.18L237.174 88.156H235.95L231.972 82.162V91H229.92V78.4H231.774L236.562 85.618L241.35 78.4ZM253.165 89.002C253.165 89.422 253.375 89.632 253.795 89.632C253.939 89.632 254.131 89.596 254.371 89.524V90.91C254.011 91.054 253.603 91.126 253.147 91.126C252.283 91.126 251.707 90.79 251.419 90.118C250.495 90.862 249.409 91.234 248.161 91.234C247.321 91.234 246.607 91.006 246.019 90.55C245.431 90.082 245.137 89.428 245.137 88.588C245.137 87.58 245.515 86.848 246.271 86.392C247.027 85.924 247.933 85.69 248.989 85.69C249.685 85.69 250.435 85.774 251.239 85.942V85.636C251.239 85.084 251.041 84.64 250.645 84.304C250.249 83.968 249.691 83.8 248.971 83.8C247.903 83.8 246.865 84.022 245.857 84.466V82.702C246.985 82.318 248.089 82.126 249.169 82.126C250.429 82.126 251.407 82.438 252.103 83.062C252.811 83.686 253.165 84.634 253.165 85.906V89.002ZM249.367 87.04C248.731 87.04 248.197 87.154 247.765 87.382C247.333 87.61 247.117 87.97 247.117 88.462C247.117 88.87 247.273 89.188 247.585 89.416C247.897 89.632 248.281 89.74 248.737 89.74C249.721 89.74 250.555 89.398 251.239 88.714V87.256C250.543 87.112 249.919 87.04 249.367 87.04ZM257.748 91H255.822V82.36H262.266V84.052H257.748V91ZM271.006 89.002C271.006 89.422 271.216 89.632 271.636 89.632C271.78 89.632 271.972 89.596 272.212 89.524V90.91C271.852 91.054 271.444 91.126 270.988 91.126C270.124 91.126 269.548 90.79 269.26 90.118C268.336 90.862 267.25 91.234 266.002 91.234C265.162 91.234 264.448 91.006 263.86 90.55C263.272 90.082 262.978 89.428 262.978 88.588C262.978 87.58 263.356 86.848 264.112 86.392C264.868 85.924 265.774 85.69 266.83 85.69C267.526 85.69 268.276 85.774 269.08 85.942V85.636C269.08 85.084 268.882 84.64 268.486 84.304C268.09 83.968 267.532 83.8 266.812 83.8C265.744 83.8 264.706 84.022 263.698 84.466V82.702C264.826 82.318 265.93 82.126 267.01 82.126C268.27 82.126 269.248 82.438 269.944 83.062C270.652 83.686 271.006 84.634 271.006 85.906V89.002ZM267.208 87.04C266.572 87.04 266.038 87.154 265.606 87.382C265.174 87.61 264.958 87.97 264.958 88.462C264.958 88.87 265.114 89.188 265.426 89.416C265.738 89.632 266.122 89.74 266.578 89.74C267.562 89.74 268.396 89.398 269.08 88.714V87.256C268.384 87.112 267.76 87.04 267.208 87.04ZM280.432 88.642C280.432 89.422 280.078 90.052 279.37 90.532C278.674 91 277.678 91.234 276.382 91.234C275.122 91.234 274.042 91 273.142 90.532V88.876C273.994 89.356 274.99 89.596 276.13 89.596C277.702 89.596 278.488 89.2 278.488 88.408C278.488 87.7 277.888 87.346 276.688 87.346H274.924V85.87H276.688C277.768 85.87 278.308 85.546 278.308 84.898C278.308 84.526 278.122 84.244 277.75 84.052C277.378 83.848 276.874 83.746 276.238 83.746C275.158 83.746 274.18 83.98 273.304 84.448V82.792C274.252 82.336 275.308 82.108 276.472 82.108C277.732 82.108 278.674 82.342 279.298 82.81C279.934 83.278 280.252 83.89 280.252 84.646C280.252 85.138 280.114 85.552 279.838 85.888C279.562 86.224 279.19 86.452 278.722 86.572C279.238 86.716 279.652 86.968 279.964 87.328C280.276 87.676 280.432 88.114 280.432 88.642ZM284.021 91H282.365V82.36H284.291V88.012L288.917 82.36H290.573V91H288.647V85.348L284.021 91ZM294.908 91H292.982V82.36H294.908V85.834H299.228V82.36H301.154V91H299.228V87.526H294.908V91ZM310.518 78.76H312.03V89.146H314.208V91H307.548V89.146H309.996V80.866L307.548 81.784V79.894L310.518 78.76Z" fill="#454545"/>
<path d="M382.084 78.4H383.938V91H381.886V82.18L377.908 88.156H376.684L372.706 82.162V91H370.654V78.4H372.508L377.296 85.618L382.084 78.4ZM393.899 89.002C393.899 89.422 394.109 89.632 394.529 89.632C394.673 89.632 394.865 89.596 395.105 89.524V90.91C394.745 91.054 394.337 91.126 393.881 91.126C393.017 91.126 392.441 90.79 392.153 90.118C391.229 90.862 390.143 91.234 388.895 91.234C388.055 91.234 387.341 91.006 386.753 90.55C386.165 90.082 385.871 89.428 385.871 88.588C385.871 87.58 386.249 86.848 387.005 86.392C387.761 85.924 388.667 85.69 389.723 85.69C390.419 85.69 391.169 85.774 391.973 85.942V85.636C391.973 85.084 391.775 84.64 391.379 84.304C390.983 83.968 390.425 83.8 389.705 83.8C388.637 83.8 387.599 84.022 386.591 84.466V82.702C387.719 82.318 388.823 82.126 389.903 82.126C391.163 82.126 392.141 82.438 392.837 83.062C393.545 83.686 393.899 84.634 393.899 85.906V89.002ZM390.101 87.04C389.465 87.04 388.931 87.154 388.499 87.382C388.067 87.61 387.851 87.97 387.851 88.462C387.851 88.87 388.007 89.188 388.319 89.416C388.631 89.632 389.015 89.74 389.471 89.74C390.455 89.74 391.289 89.398 391.973 88.714V87.256C391.277 87.112 390.653 87.04 390.101 87.04ZM398.483 91H396.557V82.36H403.001V84.052H398.483V91ZM411.741 89.002C411.741 89.422 411.951 89.632 412.371 89.632C412.515 89.632 412.707 89.596 412.947 89.524V90.91C412.587 91.054 412.179 91.126 411.723 91.126C410.859 91.126 410.283 90.79 409.995 90.118C409.071 90.862 407.985 91.234 406.737 91.234C405.897 91.234 405.183 91.006 404.595 90.55C404.007 90.082 403.713 89.428 403.713 88.588C403.713 87.58 404.091 86.848 404.847 86.392C405.603 85.924 406.509 85.69 407.565 85.69C408.261 85.69 409.011 85.774 409.815 85.942V85.636C409.815 85.084 409.617 84.64 409.221 84.304C408.825 83.968 408.267 83.8 407.547 83.8C406.479 83.8 405.441 84.022 404.433 84.466V82.702C405.561 82.318 406.665 82.126 407.745 82.126C409.005 82.126 409.983 82.438 410.679 83.062C411.387 83.686 411.741 84.634 411.741 85.906V89.002ZM407.943 87.04C407.307 87.04 406.773 87.154 406.341 87.382C405.909 87.61 405.693 87.97 405.693 88.462C405.693 88.87 405.849 89.188 406.161 89.416C406.473 89.632 406.857 89.74 407.313 89.74C408.297 89.74 409.131 89.398 409.815 88.714V87.256C409.119 87.112 408.495 87.04 407.943 87.04ZM421.166 88.642C421.166 89.422 420.812 90.052 420.104 90.532C419.408 91 418.412 91.234 417.116 91.234C415.856 91.234 414.776 91 413.876 90.532V88.876C414.728 89.356 415.724 89.596 416.864 89.596C418.436 89.596 419.222 89.2 419.222 88.408C419.222 87.7 418.622 87.346 417.422 87.346H415.658V85.87H417.422C418.502 85.87 419.042 85.546 419.042 84.898C419.042 84.526 418.856 84.244 418.484 84.052C418.112 83.848 417.608 83.746 416.972 83.746C415.892 83.746 414.914 83.98 414.038 84.448V82.792C414.986 82.336 416.042 82.108 417.206 82.108C418.466 82.108 419.408 82.342 420.032 82.81C420.668 83.278 420.986 83.89 420.986 84.646C420.986 85.138 420.848 85.552 420.572 85.888C420.296 86.224 419.924 86.452 419.456 86.572C419.972 86.716 420.386 86.968 420.698 87.328C421.01 87.676 421.166 88.114 421.166 88.642ZM424.756 91H423.1V82.36H425.026V88.012L429.652 82.36H431.308V91H429.382V85.348L424.756 91ZM435.643 91H433.717V82.36H435.643V85.834H439.963V82.36H441.889V91H439.963V87.526H435.643V91ZM448.535 79.768C449.747 78.94 451.103 78.526 452.603 78.526C453.887 78.526 454.925 78.826 455.717 79.426C456.509 80.014 456.905 80.86 456.905 81.964C456.905 82.888 456.599 83.68 455.987 84.34C455.387 84.988 454.565 85.624 453.521 86.248C453.437 86.296 453.281 86.386 453.053 86.518C452.837 86.65 452.681 86.746 452.585 86.806C452.501 86.854 452.363 86.938 452.171 87.058C451.979 87.178 451.835 87.268 451.739 87.328C451.655 87.388 451.535 87.478 451.379 87.598C451.235 87.706 451.127 87.802 451.055 87.886C450.983 87.958 450.899 88.054 450.803 88.174C450.707 88.282 450.635 88.384 450.587 88.48C450.551 88.576 450.515 88.684 450.479 88.804C450.443 88.924 450.425 89.044 450.425 89.164L456.995 89.146V91H448.121V90.064C448.121 89.392 448.211 88.798 448.391 88.282C448.583 87.754 448.913 87.274 449.381 86.842C449.861 86.398 450.233 86.086 450.497 85.906C450.761 85.714 451.229 85.42 451.901 85.024C451.961 84.976 452.009 84.94 452.045 84.916C452.093 84.892 452.141 84.868 452.189 84.844C453.197 84.256 453.845 83.83 454.133 83.566C454.613 83.098 454.853 82.576 454.853 82C454.853 81.472 454.637 81.07 454.205 80.794C453.785 80.518 453.191 80.38 452.423 80.38C451.091 80.38 449.795 80.836 448.535 81.748V79.768Z" fill="#454545"/>
<path d="M535.646 91V80.29H542.126V91H544.178V78.4H533.594V91H535.646ZM546.16 86.68C546.16 89.668 548.428 91.234 550.84 91.234C553.27 91.234 555.52 89.668 555.52 86.68C555.52 83.692 553.27 82.126 550.84 82.126C548.428 82.126 546.16 83.692 546.16 86.68ZM553.558 86.68C553.558 88.372 552.442 89.47 550.84 89.47C549.22 89.47 548.104 88.372 548.104 86.68C548.104 84.988 549.22 83.89 550.84 83.89C552.442 83.89 553.558 84.988 553.558 86.68ZM564.033 88.642C564.033 87.562 563.313 86.842 562.323 86.572C563.223 86.338 563.853 85.672 563.853 84.646C563.853 83.242 562.737 82.108 560.073 82.108C558.885 82.108 557.733 82.396 556.905 82.792V84.448C557.643 84.052 558.831 83.746 559.839 83.746C561.081 83.746 561.909 84.124 561.909 84.898C561.909 85.618 561.207 85.87 560.289 85.87H558.525V87.346H560.289C561.153 87.346 562.089 87.49 562.089 88.408C562.089 89.362 561.009 89.596 559.731 89.596C558.687 89.596 557.445 89.272 556.743 88.876V90.532C557.535 90.946 558.687 91.234 559.983 91.234C562.647 91.234 564.033 90.154 564.033 88.642ZM567.622 91L572.248 85.348V91H574.174V82.36H572.518L567.892 88.012V82.36H565.966V91H567.622ZM585.853 93.322V89.344H584.557V82.36H582.631V89.308H578.509V82.36H576.583V91H584.035V93.322H585.853ZM589.527 91H587.945V81.3496H589.527V91ZM587.822 78.7393C587.822 78.3877 587.91 78.1328 588.086 77.9746C588.268 77.8164 588.49 77.7373 588.754 77.7373C589 77.7373 589.214 77.8164 589.396 77.9746C589.583 78.1328 589.677 78.3877 589.677 78.7393C589.677 79.085 589.583 79.3398 589.396 79.5039C589.214 79.668 589 79.75 588.754 79.75C588.49 79.75 588.268 79.668 588.086 79.5039C587.91 79.3398 587.822 79.085 587.822 78.7393ZM593.703 91L595.845 88.174H597.807V91H599.733V82.36H595.269C593.109 82.36 591.939 83.71 591.939 85.276C591.939 86.464 592.605 87.526 593.865 87.958L591.489 91H593.703ZM593.901 85.294C593.901 84.448 594.531 83.962 595.593 83.962H597.807V86.626H595.593C594.531 86.626 593.901 86.14 593.901 85.294Z" fill="#454545"/>
<rect x="511" y="121" width="106" height="6" rx="3" fill="#F9F9FB"/>
<rect x="511" y="160" width="106" height="6" rx="3" fill="#F9F9FB"/>
<rect x="511" y="238" width="106" height="6" rx="3" fill="#F9F9FB"/>
<rect x="511" y="316" width="106" height="6" rx="3" fill="#F9F9FB"/>
<rect x="511" y="355" width="106" height="6" rx="3" fill="#F9F9FB"/>
<rect x="511" y="199" width="106" height="6" rx="3" fill="#F9F9FB"/>
<rect x="511" y="277" width="106" height="6" rx="3" fill="#F9F9FB"/>
<rect width="58" height="4" rx="2" transform="matrix(1 0 0 -1 512 126)" fill="#F28100"/>
<rect width="58" height="4" rx="2" transform="matrix(1 0 0 -1 512 165)" fill="#F28100"/>
<rect width="58" height="4" rx="2" transform="matrix(1 0 0 -1 512 243)" fill="#F28100"/>
<rect width="23" height="4" rx="2" transform="matrix(1 0 0 -1 512 321)" fill="#80DA39"/>
<rect width="23" height="4" rx="2" transform="matrix(1 0 0 -1 512 360)" fill="#80DA39"/>
<rect width="95" height="4" rx="2" transform="matrix(1 0 0 -1 512 204)" fill="#F64810"/>
<rect width="95" height="4" rx="2" transform="matrix(1 0 0 -1 512 282)" fill="#F64810"/>
</svg>
