<svg width="446" height="202" viewBox="0 0 446 202" fill="none" xmlns="http://www.w3.org/2000/svg">
<path d="M0.5 5C0.5 2.51472 2.51472 0.5 5 0.5H201C203.485 0.5 205.5 2.51472 205.5 5V197C205.5 199.485 203.485 201.5 201 201.5H5C2.51472 201.5 0.5 199.485 0.5 197V5Z" fill="white" stroke="#E6E6E6"/>
<path d="M236.5 5C236.5 2.51472 238.515 0.5 241 0.5H441C443.485 0.5 445.5 2.51472 445.5 5V197C445.5 199.485 443.485 201.5 441 201.5H241C238.515 201.5 236.5 199.485 236.5 197V5Z" fill="white" stroke="#E6E6E6"/>
<path d="M29.05 29.08V26.83H35.62V24.4H26.35V37H31.822C34.306 37 36.646 36.172 36.646 33.04C36.646 29.926 34.306 29.08 31.822 29.08H29.05ZM29.05 34.624V31.456H31.84C32.902 31.456 33.892 31.69 33.892 33.04C33.892 34.39 32.902 34.624 31.84 34.624H29.05ZM37.7225 32.68C37.7225 35.686 39.9905 37.252 42.7265 37.252C44.0225 37.252 45.0845 37.054 45.8945 36.712V34.75C45.1565 35.074 44.2745 35.272 43.2845 35.272C41.8625 35.272 40.5305 34.75 40.2425 33.49H46.3265C46.9025 30.934 45.7505 28.108 42.1685 28.108C40.2245 28.108 37.7225 29.422 37.7225 32.68ZM44.0765 31.87H40.2245C40.2605 30.682 41.1965 30.016 42.2585 30.016C43.8245 30.016 44.1665 31.276 44.0765 31.87ZM55.1091 34.606C55.1091 33.58 54.4791 32.86 53.4711 32.554C54.2811 32.338 54.9291 31.69 54.9291 30.664C54.9291 29.404 53.9751 28.09 50.9871 28.09C49.7811 28.09 48.5391 28.378 47.7291 28.81V30.79C48.4131 30.43 49.6731 30.07 50.6811 30.07C51.7971 30.07 52.3731 30.412 52.3731 30.988C52.3731 31.582 51.7611 31.798 50.8971 31.798H49.2951V33.454H50.8971C51.7431 33.454 52.5531 33.544 52.5531 34.3C52.5531 35.038 51.7071 35.272 50.5371 35.272C49.4751 35.272 48.2151 34.894 47.5671 34.534V36.532C48.3591 36.946 49.5111 37.234 50.8611 37.234C53.8311 37.234 55.1091 35.956 55.1091 34.606ZM64.9368 34.192L62.4168 28.36H59.7708L63.8568 37.126L63.8388 37.162C63.3708 38.44 62.6868 39.052 61.7868 39.052C61.4448 39.052 61.1028 38.998 60.7608 38.926V40.996C61.2108 41.104 61.6608 41.194 62.1108 41.194C63.5148 41.194 64.8648 40.456 65.8368 38.044L69.6708 28.36H67.0788L64.9368 34.192ZM73.3514 37V31.906L75.3854 35.128H76.6274L78.6614 31.906V37H81.0734V28.36H78.6974L75.9974 32.644L73.3154 28.36H70.9214V37H73.3514ZM82.7049 32.68C82.7049 35.704 84.9729 37.252 87.4749 37.252C89.9949 37.252 92.2449 35.704 92.2449 32.68C92.2449 29.656 89.9949 28.108 87.4749 28.108C84.9729 28.108 82.7049 29.656 82.7049 32.68ZM89.7069 32.68C89.7069 34.012 88.9149 35.02 87.4749 35.02C86.0529 35.02 85.2609 34.012 85.2609 32.68C85.2609 31.348 86.0529 30.34 87.4749 30.34C88.9149 30.34 89.7069 31.348 89.7069 32.68ZM99.1704 37C101.348 37 102.068 35.884 102.068 34.66C102.068 33.616 101.474 32.932 100.538 32.626C101.384 32.302 101.87 31.636 101.87 30.646C101.87 29.476 101.078 28.36 99.0264 28.36H93.8784V37H99.1704ZM96.3804 33.418H98.4324C99.0444 33.418 99.5844 33.634 99.5844 34.372C99.5844 35.056 99.0624 35.29 98.4324 35.29H96.3804V33.418ZM96.3624 30.07H98.2524C98.8284 30.07 99.3504 30.286 99.3504 31.006C99.3504 31.672 98.8644 31.906 98.2704 31.906H96.3624V30.07ZM106.259 37V33.724H109.751V37H112.253V28.36H109.751V31.636H106.259V28.36H103.757V37H106.259ZM113.889 32.68C113.889 35.704 116.157 37.252 118.659 37.252C121.179 37.252 123.429 35.704 123.429 32.68C123.429 29.656 121.179 28.108 118.659 28.108C116.157 28.108 113.889 29.656 113.889 32.68ZM120.891 32.68C120.891 34.012 120.099 35.02 118.659 35.02C117.237 35.02 116.445 34.012 116.445 32.68C116.445 31.348 117.237 30.34 118.659 30.34C120.099 30.34 120.891 31.348 120.891 32.68ZM127.564 37V30.466H131.65V28.36H125.062V37H127.564ZM132.275 32.68C132.275 35.704 134.543 37.252 137.045 37.252C139.565 37.252 141.815 35.704 141.815 32.68C141.815 29.656 139.565 28.108 137.045 28.108C134.543 28.108 132.275 29.656 132.275 32.68ZM139.277 32.68C139.277 34.012 138.485 35.02 137.045 35.02C135.623 35.02 134.831 34.012 134.831 32.68C134.831 31.348 135.623 30.34 137.045 30.34C138.485 30.34 139.277 31.348 139.277 32.68ZM32.92 63.96V60.252C35.782 60.144 37.906 58.434 37.906 55.68C37.906 52.926 35.782 51.216 32.92 51.108V47.4H30.544V51.108C27.682 51.216 25.558 52.926 25.558 55.68C25.558 58.434 27.682 60.144 30.544 60.252V63.96H32.92ZM28.06 55.68C28.06 54.384 28.888 53.286 30.562 53.196V58.164C28.888 58.074 28.06 56.976 28.06 55.68ZM32.938 53.196C34.612 53.286 35.44 54.384 35.44 55.68C35.44 56.976 34.612 58.074 32.938 58.164V53.196ZM39.0408 55.68C39.0408 58.704 41.3088 60.252 43.8108 60.252C46.3308 60.252 48.5808 58.704 48.5808 55.68C48.5808 52.656 46.3308 51.108 43.8108 51.108C41.3088 51.108 39.0408 52.656 39.0408 55.68ZM46.0428 55.68C46.0428 57.012 45.2508 58.02 43.8108 58.02C42.3888 58.02 41.5968 57.012 41.5968 55.68C41.5968 54.348 42.3888 53.34 43.8108 53.34C45.2508 53.34 46.0428 54.348 46.0428 55.68ZM52.4283 52.62V51.36H50.2143V63.96H52.7163V59.082C53.2743 59.694 54.1923 60.252 55.5603 60.252C58.2963 60.252 59.7723 58.038 59.7723 55.68C59.7723 53.322 58.2963 51.108 55.5603 51.108C53.9583 51.108 52.9683 51.846 52.4283 52.62ZM57.2163 55.68C57.2163 57.03 56.3703 58.146 54.9483 58.146C53.8503 58.146 53.0403 57.462 52.6983 56.706V54.654C53.0403 53.898 53.8503 53.214 54.9483 53.214C56.3703 53.214 57.2163 54.33 57.2163 55.68ZM63.8416 60V54.906L65.8756 58.128H67.1176L69.1516 54.906V60H71.5636V51.36H69.1876L66.4876 55.644L63.8056 51.36H61.4116V60H63.8416ZM81.4031 57.768V55.014C81.4031 52.17 79.7471 51.108 77.1551 51.108C75.8231 51.108 74.5091 51.45 73.8071 51.684V53.844C74.6171 53.52 75.6791 53.196 76.8671 53.196C78.2171 53.196 78.9011 53.79 78.9011 54.654V54.96C78.2891 54.816 77.5331 54.726 76.8491 54.726C75.1211 54.726 73.0511 55.41 73.0511 57.606C73.0511 59.316 74.4551 60.252 76.0751 60.252C77.3531 60.252 78.3431 59.856 79.1891 59.19C79.5491 59.838 80.2151 60.162 81.0971 60.162C81.5831 60.162 82.0871 60.054 82.4831 59.91V58.272C82.3211 58.326 82.1591 58.344 82.0151 58.344C81.6911 58.344 81.4031 58.218 81.4031 57.768ZM77.4251 56.22C77.9471 56.22 78.5231 56.328 78.9011 56.418V57.768C78.3251 58.272 77.6591 58.47 76.9571 58.47C76.2011 58.47 75.6071 58.056 75.6071 57.408C75.6071 56.526 76.5071 56.22 77.4251 56.22ZM87.9713 60V53.466H90.7253V51.36H82.7333V53.466H85.4873V60H87.9713ZM96.2259 57.192L93.7059 51.36H91.0599L95.1459 60.126L95.1279 60.162C94.6599 61.44 93.9759 62.052 93.0759 62.052C92.7339 62.052 92.3919 61.998 92.0499 61.926V63.996C92.4999 64.104 92.9499 64.194 93.3999 64.194C94.8039 64.194 96.1539 63.456 97.1259 61.044L100.96 51.36H98.3679L96.2259 57.192ZM107.502 60C109.68 60 110.4 58.884 110.4 57.66C110.4 56.616 109.806 55.932 108.87 55.626C109.716 55.302 110.202 54.636 110.202 53.646C110.202 52.476 109.41 51.36 107.358 51.36H102.21V60H107.502ZM104.712 56.418H106.764C107.376 56.418 107.916 56.634 107.916 57.372C107.916 58.056 107.394 58.29 106.764 58.29H104.712V56.418ZM104.694 53.07H106.584C107.16 53.07 107.682 53.286 107.682 54.006C107.682 54.672 107.196 54.906 106.602 54.906H104.694V53.07ZM119.811 57.768V55.014C119.811 52.17 118.155 51.108 115.563 51.108C114.231 51.108 112.917 51.45 112.215 51.684V53.844C113.025 53.52 114.087 53.196 115.275 53.196C116.625 53.196 117.309 53.79 117.309 54.654V54.96C116.697 54.816 115.941 54.726 115.257 54.726C113.529 54.726 111.459 55.41 111.459 57.606C111.459 59.316 112.863 60.252 114.483 60.252C115.761 60.252 116.751 59.856 117.597 59.19C117.957 59.838 118.623 60.162 119.505 60.162C119.991 60.162 120.495 60.054 120.891 59.91V58.272C120.729 58.326 120.567 58.344 120.423 58.344C120.099 58.344 119.811 58.218 119.811 57.768ZM115.833 56.22C116.355 56.22 116.931 56.328 117.309 56.418V57.768C116.733 58.272 116.067 58.47 115.365 58.47C114.609 58.47 114.015 58.056 114.015 57.408C114.015 56.526 114.915 56.22 115.833 56.22ZM124.734 60V56.724H128.226V60H130.728V51.36H128.226V54.636H124.734V51.36H122.232V60H124.734ZM135.351 60V56.724H138.843V60H141.345V51.36H138.843V54.636H135.351V51.36H132.849V60H135.351ZM145.518 60L147.444 57.426H148.848V60H151.35V51.36H146.67C144.402 51.36 143.214 52.764 143.214 54.384C143.214 55.554 143.808 56.598 144.978 57.102L142.71 60H145.518ZM145.752 54.456C145.752 53.736 146.274 53.34 147.174 53.34H148.848V55.554H147.174C146.274 55.554 145.752 55.158 145.752 54.456Z" fill="#454545"/>
<path d="M271.566 33.58C271.566 31.69 270.36 30.7 269.046 30.34C270.27 29.926 271.062 28.972 271.062 27.586C271.062 25.264 269.046 24.148 266.094 24.148C264.78 24.148 263.376 24.364 261.918 24.976V27.55C263.448 26.812 264.726 26.56 265.86 26.578C267.462 26.578 268.362 27.01 268.362 28.018C268.362 28.9 267.588 29.332 266.4 29.332H263.754L263.736 31.708H266.58C267.804 31.708 268.848 32.014 268.848 33.184C268.848 34.48 267.534 34.822 266.166 34.822C264.834 34.84 263.358 34.66 261.702 33.85V36.442C263.376 37.036 264.87 37.252 266.364 37.252C268.866 37.252 271.566 36.388 271.566 33.58ZM281.443 34.192L278.923 28.36H276.277L280.363 37.126L280.345 37.162C279.877 38.44 279.193 39.052 278.293 39.052C277.951 39.052 277.609 38.998 277.267 38.926V40.996C277.717 41.104 278.167 41.194 278.617 41.194C280.021 41.194 281.371 40.456 282.343 38.044L286.177 28.36H283.585L281.443 34.192ZM289.857 37V31.906L291.891 35.128H293.133L295.167 31.906V37H297.579V28.36H295.203L292.503 32.644L289.821 28.36H287.427V37H289.857ZM299.211 32.68C299.211 35.704 301.479 37.252 303.981 37.252C306.501 37.252 308.751 35.704 308.751 32.68C308.751 29.656 306.501 28.108 303.981 28.108C301.479 28.108 299.211 29.656 299.211 32.68ZM306.213 32.68C306.213 34.012 305.421 35.02 303.981 35.02C302.559 35.02 301.767 34.012 301.767 32.68C301.767 31.348 302.559 30.34 303.981 30.34C305.421 30.34 306.213 31.348 306.213 32.68ZM315.676 37C317.854 37 318.574 35.884 318.574 34.66C318.574 33.616 317.98 32.932 317.044 32.626C317.89 32.302 318.376 31.636 318.376 30.646C318.376 29.476 317.584 28.36 315.532 28.36H310.384V37H315.676ZM312.886 33.418H314.938C315.55 33.418 316.09 33.634 316.09 34.372C316.09 35.056 315.568 35.29 314.938 35.29H312.886V33.418ZM312.868 30.07H314.758C315.334 30.07 315.856 30.286 315.856 31.006C315.856 31.672 315.37 31.906 314.776 31.906H312.868V30.07ZM322.765 37V33.724H326.257V37H328.759V28.36H326.257V31.636H322.765V28.36H320.263V37H322.765ZM333.058 37L336.91 32.14V37H339.394V28.36H337.234L333.382 33.22V28.36H330.88V37H333.058ZM343.945 37V31.906L345.979 35.128H347.221L349.255 31.906V37H351.667V28.36H349.291L346.591 32.644L343.909 28.36H341.515V37H343.945ZM268.92 63.96V60.252C271.782 60.144 273.906 58.434 273.906 55.68C273.906 52.926 271.782 51.216 268.92 51.108V47.4H266.544V51.108C263.682 51.216 261.558 52.926 261.558 55.68C261.558 58.434 263.682 60.144 266.544 60.252V63.96H268.92ZM264.06 55.68C264.06 54.384 264.888 53.286 266.562 53.196V58.164C264.888 58.074 264.06 56.976 264.06 55.68ZM268.938 53.196C270.612 53.286 271.44 54.384 271.44 55.68C271.44 56.976 270.612 58.074 268.938 58.164V53.196ZM275.041 55.68C275.041 58.704 277.309 60.252 279.811 60.252C282.331 60.252 284.581 58.704 284.581 55.68C284.581 52.656 282.331 51.108 279.811 51.108C277.309 51.108 275.041 52.656 275.041 55.68ZM282.043 55.68C282.043 57.012 281.251 58.02 279.811 58.02C278.389 58.02 277.597 57.012 277.597 55.68C277.597 54.348 278.389 53.34 279.811 53.34C281.251 53.34 282.043 54.348 282.043 55.68ZM288.428 52.62V51.36H286.214V63.96H288.716V59.082C289.274 59.694 290.192 60.252 291.56 60.252C294.296 60.252 295.772 58.038 295.772 55.68C295.772 53.322 294.296 51.108 291.56 51.108C289.958 51.108 288.968 51.846 288.428 52.62ZM293.216 55.68C293.216 57.03 292.37 58.146 290.948 58.146C289.85 58.146 289.04 57.462 288.698 56.706V54.654C289.04 53.898 289.85 53.214 290.948 53.214C292.37 53.214 293.216 54.33 293.216 55.68ZM299.842 60V54.906L301.876 58.128H303.118L305.152 54.906V60H307.564V51.36H305.188L302.488 55.644L299.806 51.36H297.412V60H299.842ZM317.403 57.768V55.014C317.403 52.17 315.747 51.108 313.155 51.108C311.823 51.108 310.509 51.45 309.807 51.684V53.844C310.617 53.52 311.679 53.196 312.867 53.196C314.217 53.196 314.901 53.79 314.901 54.654V54.96C314.289 54.816 313.533 54.726 312.849 54.726C311.121 54.726 309.051 55.41 309.051 57.606C309.051 59.316 310.455 60.252 312.075 60.252C313.353 60.252 314.343 59.856 315.189 59.19C315.549 59.838 316.215 60.162 317.097 60.162C317.583 60.162 318.087 60.054 318.483 59.91V58.272C318.321 58.326 318.159 58.344 318.015 58.344C317.691 58.344 317.403 58.218 317.403 57.768ZM313.425 56.22C313.947 56.22 314.523 56.328 314.901 56.418V57.768C314.325 58.272 313.659 58.47 312.957 58.47C312.201 58.47 311.607 58.056 311.607 57.408C311.607 56.526 312.507 56.22 313.425 56.22ZM323.971 60V53.466H326.725V51.36H318.733V53.466H321.487V60H323.971ZM332.226 57.192L329.706 51.36H327.06L331.146 60.126L331.128 60.162C330.66 61.44 329.976 62.052 329.076 62.052C328.734 62.052 328.392 61.998 328.05 61.926V63.996C328.5 64.104 328.95 64.194 329.4 64.194C330.804 64.194 332.154 63.456 333.126 61.044L336.96 51.36H334.368L332.226 57.192ZM343.502 60C345.68 60 346.4 58.884 346.4 57.66C346.4 56.616 345.806 55.932 344.87 55.626C345.716 55.302 346.202 54.636 346.202 53.646C346.202 52.476 345.41 51.36 343.358 51.36H338.21V60H343.502ZM340.712 56.418H342.764C343.376 56.418 343.916 56.634 343.916 57.372C343.916 58.056 343.394 58.29 342.764 58.29H340.712V56.418ZM340.694 53.07H342.584C343.16 53.07 343.682 53.286 343.682 54.006C343.682 54.672 343.196 54.906 342.602 54.906H340.694V53.07ZM355.811 57.768V55.014C355.811 52.17 354.155 51.108 351.563 51.108C350.231 51.108 348.917 51.45 348.215 51.684V53.844C349.025 53.52 350.087 53.196 351.275 53.196C352.625 53.196 353.309 53.79 353.309 54.654V54.96C352.697 54.816 351.941 54.726 351.257 54.726C349.529 54.726 347.459 55.41 347.459 57.606C347.459 59.316 348.863 60.252 350.483 60.252C351.761 60.252 352.751 59.856 353.597 59.19C353.957 59.838 354.623 60.162 355.505 60.162C355.991 60.162 356.495 60.054 356.891 59.91V58.272C356.729 58.326 356.567 58.344 356.423 58.344C356.099 58.344 355.811 58.218 355.811 57.768ZM351.833 56.22C352.355 56.22 352.931 56.328 353.309 56.418V57.768C352.733 58.272 352.067 58.47 351.365 58.47C350.609 58.47 350.015 58.056 350.015 57.408C350.015 56.526 350.915 56.22 351.833 56.22ZM360.734 60V56.724H364.226V60H366.728V51.36H364.226V54.636H360.734V51.36H358.232V60H360.734ZM371.351 60V56.724H374.843V60H377.345V51.36H374.843V54.636H371.351V51.36H368.849V60H371.351ZM381.518 60L383.444 57.426H384.848V60H387.35V51.36H382.67C380.402 51.36 379.214 52.764 379.214 54.384C379.214 55.554 379.808 56.598 380.978 57.102L378.71 60H381.518ZM381.752 54.456C381.752 53.736 382.274 53.34 383.174 53.34H384.848V55.554H383.174C382.274 55.554 381.752 55.158 381.752 54.456ZM391.898 60V54.906L393.932 58.128H395.174L397.208 54.906V60H399.62V51.36H397.244L394.544 55.644L391.862 51.36H389.468V60H391.898Z" fill="#454545"/>
<path d="M25 82C25 80.3431 26.2267 79 27.7399 79H180.26C181.773 79 183 80.3431 183 82V91C183 92.6569 181.773 94 180.26 94H27.7399C26.2267 94 25 92.6569 25 91V82Z" fill="#E6E6E6"/>
<path d="M261 82C261 80.3431 262.227 79 263.74 79H416.26C417.773 79 419 80.3431 419 82V91C419 92.6569 417.773 94 416.26 94H263.74C262.227 94 261 92.6569 261 91V82Z" fill="#E6E6E6"/>
<path d="M30 85C30 83.8954 30.8954 83 32 83H73C74.1046 83 75 83.8954 75 85V88C75 89.1046 74.1046 90 73 90H32C30.8954 90 30 89.1046 30 88V85Z" fill="#B3B3B3"/>
<path d="M266 85C266 83.8954 266.895 83 268 83H309C310.105 83 311 83.8954 311 85V88C311 89.1046 310.105 90 309 90H268C266.895 90 266 89.1046 266 88V85Z" fill="#B3B3B3"/>
<path d="M81 85C81 83.8954 81.8954 83 83 83H124C125.105 83 126 83.8954 126 85V88C126 89.1046 125.105 90 124 90H83C81.8954 90 81 89.1046 81 88V85Z" fill="#B3B3B3"/>
<path d="M317 85C317 83.8954 317.895 83 319 83H360C361.105 83 362 83.8954 362 85V88C362 89.1046 361.105 90 360 90H319C317.895 90 317 89.1046 317 88V85Z" fill="#B3B3B3"/>
<path d="M132 85C132 83.8954 132.895 83 134 83H175C176.105 83 177 83.8954 177 85V88C177 89.1046 176.105 90 175 90H134C132.895 90 132 89.1046 132 88V85Z" fill="#B3B3B3"/>
<path d="M368 85C368 83.8954 368.895 83 370 83H411C412.105 83 413 83.8954 413 85V88C413 89.1046 412.105 90 411 90H370C368.895 90 368 89.1046 368 88V85Z" fill="#B3B3B3"/>
<path fill-rule="evenodd" clip-rule="evenodd" d="M183 112H25V111H183V112Z" fill="#E1E1E9"/>
<path d="M30 101C30 99.8954 30.8954 99 32 99H73C74.1046 99 75 99.8954 75 101V104C75 105.105 74.1046 106 73 106H32C30.8954 106 30 105.105 30 104V101Z" fill="#B3B3B3"/>
<path d="M81 101C81 99.8954 81.8954 99 83 99H124C125.105 99 126 99.8954 126 101V104C126 105.105 125.105 106 124 106H83C81.8954 106 81 105.105 81 104V101Z" fill="#E6E6E6"/>
<path d="M132 101C132 99.8954 132.895 99 134 99H175C176.105 99 177 99.8954 177 101V104C177 105.105 176.105 106 175 106H134C132.895 106 132 105.105 132 104V101Z" fill="#E6E6E6"/>
<path fill-rule="evenodd" clip-rule="evenodd" d="M419 112H261V111H419V112Z" fill="#E1E1E9"/>
<path d="M266 101C266 99.8954 266.895 99 268 99H309C310.105 99 311 99.8954 311 101V104C311 105.105 310.105 106 309 106H268C266.895 106 266 105.105 266 104V101Z" fill="#B3B3B3"/>
<path d="M317 101C317 99.8954 317.895 99 319 99H360C361.105 99 362 99.8954 362 101V104C362 105.105 361.105 106 360 106H319C317.895 106 317 105.105 317 104V101Z" fill="#F28100"/>
<path d="M368 101C368 99.8954 368.895 99 370 99H411C412.105 99 413 99.8954 413 101V104C413 105.105 412.105 106 411 106H370C368.895 106 368 105.105 368 104V101Z" fill="#F64810"/>
<path fill-rule="evenodd" clip-rule="evenodd" d="M183 129H25V128.154H183V129Z" fill="#E1E1E9"/>
<path d="M30 119.692C30 118.758 30.8954 118 32 118H73C74.1046 118 75 118.758 75 119.692V122.231C75 123.165 74.1046 123.923 73 123.923H32C30.8954 123.923 30 123.165 30 122.231V119.692Z" fill="#B3B3B3"/>
<path d="M81 119.692C81 118.758 81.8954 118 83 118H124C125.105 118 126 118.758 126 119.692V122.231C126 123.165 125.105 123.923 124 123.923H83C81.8954 123.923 81 123.165 81 122.231V119.692Z" fill="#E6E6E6"/>
<path d="M132 119.692C132 118.758 132.895 118 134 118H175C176.105 118 177 118.758 177 119.692V122.231C177 123.165 176.105 123.923 175 123.923H134C132.895 123.923 132 123.165 132 122.231V119.692Z" fill="#E6E6E6"/>
<path fill-rule="evenodd" clip-rule="evenodd" d="M419 129H261V128.154H419V129Z" fill="#E1E1E9"/>
<path d="M266 119.692C266 118.758 266.895 118 268 118H309C310.105 118 311 118.758 311 119.692V122.231C311 123.165 310.105 123.923 309 123.923H268C266.895 123.923 266 123.165 266 122.231V119.692Z" fill="#B3B3B3"/>
<path d="M317 119.692C317 118.758 317.895 118 319 118H360C361.105 118 362 118.758 362 119.692V122.231C362 123.165 361.105 123.923 360 123.923H319C317.895 123.923 317 123.165 317 122.231V119.692Z" fill="#F28100"/>
<path d="M368 119.692C368 118.758 368.895 118 370 118H411C412.105 118 413 118.758 413 119.692V122.231C413 123.165 412.105 123.923 411 123.923H370C368.895 123.923 368 123.165 368 122.231V119.692Z" fill="#F64810"/>
<path fill-rule="evenodd" clip-rule="evenodd" d="M183 146H25V145.154H183V146Z" fill="#E1E1E9"/>
<path d="M30 136.692C30 135.758 30.8954 135 32 135H73C74.1046 135 75 135.758 75 136.692V139.231C75 140.165 74.1046 140.923 73 140.923H32C30.8954 140.923 30 140.165 30 139.231V136.692Z" fill="#B3B3B3"/>
<path d="M81 136.692C81 135.758 81.8954 135 83 135H124C125.105 135 126 135.758 126 136.692V139.231C126 140.165 125.105 140.923 124 140.923H83C81.8954 140.923 81 140.165 81 139.231V136.692Z" fill="#E6E6E6"/>
<path d="M132 136.692C132 135.758 132.895 135 134 135H175C176.105 135 177 135.758 177 136.692V139.231C177 140.165 176.105 140.923 175 140.923H134C132.895 140.923 132 140.165 132 139.231V136.692Z" fill="#E6E6E6"/>
<path fill-rule="evenodd" clip-rule="evenodd" d="M419 146H261V145.154H419V146Z" fill="#E1E1E9"/>
<path d="M266 136.692C266 135.758 266.895 135 268 135H309C310.105 135 311 135.758 311 136.692V139.231C311 140.165 310.105 140.923 309 140.923H268C266.895 140.923 266 140.165 266 139.231V136.692Z" fill="#B3B3B3"/>
<path d="M317 136.692C317 135.758 317.895 135 319 135H360C361.105 135 362 135.758 362 136.692V139.231C362 140.165 361.105 140.923 360 140.923H319C317.895 140.923 317 140.165 317 139.231V136.692Z" fill="#F28100"/>
<path d="M368 136.692C368 135.758 368.895 135 370 135H411C412.105 135 413 135.758 413 136.692V139.231C413 140.165 412.105 140.923 411 140.923H370C368.895 140.923 368 140.165 368 139.231V136.692Z" fill="#F64810"/>
<path fill-rule="evenodd" clip-rule="evenodd" d="M183 163H25V162.154H183V163Z" fill="#E1E1E9"/>
<path d="M30 153.692C30 152.758 30.8954 152 32 152H73C74.1046 152 75 152.758 75 153.692V156.231C75 157.165 74.1046 157.923 73 157.923H32C30.8954 157.923 30 157.165 30 156.231V153.692Z" fill="#B3B3B3"/>
<path d="M81 153.692C81 152.758 81.8954 152 83 152H124C125.105 152 126 152.758 126 153.692V156.231C126 157.165 125.105 157.923 124 157.923H83C81.8954 157.923 81 157.165 81 156.231V153.692Z" fill="#E6E6E6"/>
<path d="M132 153.692C132 152.758 132.895 152 134 152H175C176.105 152 177 152.758 177 153.692V156.231C177 157.165 176.105 157.923 175 157.923H134C132.895 157.923 132 157.165 132 156.231V153.692Z" fill="#E6E6E6"/>
<path fill-rule="evenodd" clip-rule="evenodd" d="M419 163H261V162.154H419V163Z" fill="#E1E1E9"/>
<path d="M266 153.692C266 152.758 266.895 152 268 152H309C310.105 152 311 152.758 311 153.692V156.231C311 157.165 310.105 157.923 309 157.923H268C266.895 157.923 266 157.165 266 156.231V153.692Z" fill="#B3B3B3"/>
<path d="M317 153.692C317 152.758 317.895 152 319 152H360C361.105 152 362 152.758 362 153.692V156.231C362 157.165 361.105 157.923 360 157.923H319C317.895 157.923 317 157.165 317 156.231V153.692Z" fill="#F28100"/>
<path d="M368 153.692C368 152.758 368.895 152 370 152H411C412.105 152 413 152.758 413 153.692V156.231C413 157.165 412.105 157.923 411 157.923H370C368.895 157.923 368 157.165 368 156.231V153.692Z" fill="#F64810"/>
<path fill-rule="evenodd" clip-rule="evenodd" d="M183 180H25V179.154H183V180Z" fill="#E1E1E9"/>
<path d="M30 170.692C30 169.758 30.8954 169 32 169H73C74.1046 169 75 169.758 75 170.692V173.231C75 174.165 74.1046 174.923 73 174.923H32C30.8954 174.923 30 174.165 30 173.231V170.692Z" fill="#B3B3B3"/>
<path d="M81 170.692C81 169.758 81.8954 169 83 169H124C125.105 169 126 169.758 126 170.692V173.231C126 174.165 125.105 174.923 124 174.923H83C81.8954 174.923 81 174.165 81 173.231V170.692Z" fill="#E6E6E6"/>
<path d="M132 170.692C132 169.758 132.895 169 134 169H175C176.105 169 177 169.758 177 170.692V173.231C177 174.165 176.105 174.923 175 174.923H134C132.895 174.923 132 174.165 132 173.231V170.692Z" fill="#E6E6E6"/>
<path fill-rule="evenodd" clip-rule="evenodd" d="M419 180H261V179.154H419V180Z" fill="#E1E1E9"/>
<path d="M266 170.692C266 169.758 266.895 169 268 169H309C310.105 169 311 169.758 311 170.692V173.231C311 174.165 310.105 174.923 309 174.923H268C266.895 174.923 266 174.165 266 173.231V170.692Z" fill="#B3B3B3"/>
<path d="M317 170.692C317 169.758 317.895 169 319 169H360C361.105 169 362 169.758 362 170.692V173.231C362 174.165 361.105 174.923 360 174.923H319C317.895 174.923 317 174.165 317 173.231V170.692Z" fill="#F28100"/>
<path d="M368 170.692C368 169.758 368.895 169 370 169H411C412.105 169 413 169.758 413 170.692V173.231C413 174.165 412.105 174.923 411 174.923H370C368.895 174.923 368 174.165 368 173.231V170.692Z" fill="#F64810"/>
</svg>
