<svg width="465" height="216" viewBox="0 0 465 216" fill="none" xmlns="http://www.w3.org/2000/svg">
<path d="M0.5 4.99999C0.5 2.51471 2.51472 0.5 5 0.5H460C462.485 0.5 464.5 2.51472 464.5 5V211C464.5 213.485 462.485 215.5 460 215.5H5C2.51471 215.5 0.5 213.485 0.5 211V4.99999Z" fill="white" stroke="#E6E6E6"/>
<path d="M0 5C0 2.23858 2.23858 0 5 0H460C462.761 0 465 2.23858 465 5V36H0V5Z" fill="#0FA7F0"/>
<path d="M19.64 20.44L23.704 11.8H21.064L18.616 17.56L15.672 11.8H13.016L17.48 19.72L17.288 20.12C16.888 20.952 16.296 21.128 15.56 21.128C15.112 21.128 14.648 21.048 14.264 20.92V22.952C14.824 23.112 15.416 23.224 15.96 23.224C17.384 23.224 18.616 22.616 19.64 20.44ZM25.6211 23V17.192H28.7251V23H30.9491V15.32H23.3971V23H25.6211ZM34.8026 16.44V15.32H32.8346V26.52H35.0586V22.184C35.5546 22.728 36.3706 23.224 37.5866 23.224C40.0186 23.224 41.3306 21.256 41.3306 19.16C41.3306 17.064 40.0186 15.096 37.5866 15.096C36.1626 15.096 35.2826 15.752 34.8026 16.44ZM39.0586 19.16C39.0586 20.36 38.3066 21.352 37.0426 21.352C36.0666 21.352 35.3466 20.744 35.0426 20.072V18.248C35.3466 17.576 36.0666 16.968 37.0426 16.968C38.3066 16.968 39.0586 17.96 39.0586 19.16ZM49.6518 21.016V18.568C49.6518 16.04 48.1798 15.096 45.8758 15.096C44.6918 15.096 43.5238 15.4 42.8997 15.608V17.528C43.6198 17.24 44.5638 16.952 45.6198 16.952C46.8198 16.952 47.4278 17.48 47.4278 18.248V18.52C46.8838 18.392 46.2118 18.312 45.6038 18.312C44.0678 18.312 42.2278 18.92 42.2278 20.872C42.2278 22.392 43.4758 23.224 44.9158 23.224C46.0518 23.224 46.9318 22.872 47.6838 22.28C48.0038 22.856 48.5958 23.144 49.3798 23.144C49.8118 23.144 50.2598 23.048 50.6118 22.92V21.464C50.4678 21.512 50.3238 21.528 50.1958 21.528C49.9078 21.528 49.6518 21.416 49.6518 21.016ZM46.1158 19.64C46.5798 19.64 47.0918 19.736 47.4278 19.816V21.016C46.9158 21.464 46.3238 21.64 45.6998 21.64C45.0278 21.64 44.4998 21.272 44.4998 20.696C44.4998 19.912 45.2998 19.64 46.1158 19.64ZM56.5074 23C58.4434 23 59.0834 22.008 59.0834 20.92C59.0834 19.992 58.5554 19.384 57.7234 19.112C58.4754 18.824 58.9074 18.232 58.9074 17.352C58.9074 16.312 58.2034 15.32 56.3794 15.32H51.8034V23H56.5074ZM54.0274 19.816H55.8514C56.3954 19.816 56.8754 20.008 56.8754 20.664C56.8754 21.272 56.4114 21.48 55.8514 21.48H54.0274V19.816ZM54.0114 16.84H55.6914C56.2034 16.84 56.6674 17.032 56.6674 17.672C56.6674 18.264 56.2354 18.472 55.7074 18.472H54.0114V16.84ZM63.9926 17.08H65.9606V23H68.1846V15.32H61.9446C61.8006 18.76 61.5286 21.272 60.3126 21.272C60.1686 21.272 60.0086 21.24 59.8486 21.176V22.936C60.2966 23.096 60.7126 23.16 61.0646 23.16C63.1766 23.16 63.7686 20.536 63.9926 17.08ZM70.2734 12.0078C70.2734 11.2318 70.7057 10.8438 71.5703 10.8438C72.4349 10.8438 72.8672 11.2318 72.8672 12.0078C72.8672 12.3776 72.7578 12.6667 72.5391 12.875C72.3255 13.0781 72.0026 13.1797 71.5703 13.1797C70.7057 13.1797 70.2734 12.7891 70.2734 12.0078ZM72.7578 23H70.375V14.2656H72.7578V23ZM77.1836 23V20.088H80.2876V23H82.5116V15.32H80.2876V18.232H77.1836V15.32H74.9596V23H77.1836ZM86.6211 23V20.088H89.7251V23H91.9491V15.32H89.7251V18.232H86.6211V15.32H84.3971V23H86.6211ZM95.6586 23L97.3706 20.712H98.6186V23H100.843V15.32H96.6826C94.6666 15.32 93.6106 16.568 93.6106 18.008C93.6106 19.048 94.1386 19.976 95.1786 20.424L93.1626 23H95.6586ZM95.8666 18.072C95.8666 17.432 96.3306 17.08 97.1306 17.08H98.6186V19.048H97.1306C96.3306 19.048 95.8666 18.696 95.8666 18.072ZM108.496 23V19.96H109.392L111.6 23H114.096L111.232 19.112L113.872 15.32H111.376L109.424 18.184H108.496V15.32H106.272V23H108.496ZM114.2 19.16C114.2 21.848 116.216 23.224 118.44 23.224C120.68 23.224 122.68 21.848 122.68 19.16C122.68 16.472 120.68 15.096 118.44 15.096C116.216 15.096 114.2 16.472 114.2 19.16ZM120.424 19.16C120.424 20.344 119.72 21.24 118.44 21.24C117.176 21.24 116.472 20.344 116.472 19.16C116.472 17.976 117.176 17.08 118.44 17.08C119.72 17.08 120.424 17.976 120.424 19.16ZM126.356 23V20.088H129.46V23H131.684V15.32H129.46V18.232H126.356V15.32H124.132V23H126.356ZM139.665 26.52V23.224C142.209 23.128 144.097 21.608 144.097 19.16C144.097 16.712 142.209 15.192 139.665 15.096V11.8H137.553V15.096C135.009 15.192 133.121 16.712 133.121 19.16C133.121 21.608 135.009 23.128 137.553 23.224V26.52H139.665ZM135.345 19.16C135.345 18.008 136.081 17.032 137.569 16.952V21.368C136.081 21.288 135.345 20.312 135.345 19.16ZM139.681 16.952C141.169 17.032 141.905 18.008 141.905 19.16C141.905 20.312 141.169 21.288 139.681 21.368V16.952ZM145.742 12.0078C145.742 11.2318 146.174 10.8438 147.039 10.8438C147.904 10.8438 148.336 11.2318 148.336 12.0078C148.336 12.3776 148.227 12.6667 148.008 12.875C147.794 13.0781 147.471 13.1797 147.039 13.1797C146.174 13.1797 145.742 12.7891 145.742 12.0078ZM148.227 23H145.844V14.2656H148.227V23ZM152.652 23V17.192H156.284V15.32H150.428V23H152.652ZM161.171 20.504L158.931 15.32H156.579L160.211 23.112L160.195 23.144C159.779 24.28 159.171 24.824 158.371 24.824C158.067 24.824 157.763 24.776 157.459 24.712V26.552C157.859 26.648 158.259 26.728 158.659 26.728C159.907 26.728 161.107 26.072 161.971 23.928L165.379 15.32H163.075L161.171 20.504ZM168.459 16.44V15.32H166.491V26.52H168.715V22.184C169.211 22.728 170.027 23.224 171.243 23.224C173.675 23.224 174.987 21.256 174.987 19.16C174.987 17.064 173.675 15.096 171.243 15.096C169.819 15.096 168.939 15.752 168.459 16.44ZM172.715 19.16C172.715 20.36 171.963 21.352 170.699 21.352C169.723 21.352 169.003 20.744 168.699 20.072V18.248C169.003 17.576 169.723 16.968 170.699 16.968C171.963 16.968 172.715 17.96 172.715 19.16ZM183.308 21.016V18.568C183.308 16.04 181.836 15.096 179.532 15.096C178.348 15.096 177.18 15.4 176.556 15.608V17.528C177.276 17.24 178.22 16.952 179.276 16.952C180.476 16.952 181.084 17.48 181.084 18.248V18.52C180.54 18.392 179.868 18.312 179.26 18.312C177.724 18.312 175.884 18.92 175.884 20.872C175.884 22.392 177.132 23.224 178.572 23.224C179.708 23.224 180.588 22.872 181.34 22.28C181.66 22.856 182.252 23.144 183.036 23.144C183.468 23.144 183.916 23.048 184.268 22.92V21.464C184.124 21.512 183.98 21.528 183.852 21.528C183.564 21.528 183.308 21.416 183.308 21.016ZM179.772 19.64C180.236 19.64 180.748 19.736 181.084 19.816V21.016C180.572 21.464 179.98 21.64 179.356 21.64C178.684 21.64 178.156 21.272 178.156 20.696C178.156 19.912 178.956 19.64 179.772 19.64ZM194.084 25.032V21.176H192.932V15.32H190.708V21.128H187.684V15.32H185.46V23H192.036V25.032H194.084ZM195.68 12.0078C195.68 11.2318 196.112 10.8438 196.977 10.8438C197.841 10.8438 198.273 11.2318 198.273 12.0078C198.273 12.3776 198.164 12.6667 197.945 12.875C197.732 13.0781 197.409 13.1797 196.977 13.1797C196.112 13.1797 195.68 12.7891 195.68 12.0078ZM198.164 23H195.781V14.2656H198.164V23ZM202.19 23L203.902 20.712H205.15V23H207.374V15.32H203.214C201.198 15.32 200.142 16.568 200.142 18.008C200.142 19.048 200.67 19.976 201.71 20.424L199.694 23H202.19ZM202.398 18.072C202.398 17.432 202.862 17.08 203.662 17.08H205.15V19.048H203.662C202.862 19.048 202.398 18.696 202.398 18.072ZM211.417 23V18.472L213.225 21.336H214.329L216.137 18.472V23H218.281V15.32H216.169L213.769 19.128L211.385 15.32H209.257V23H211.417ZM222.099 23L225.523 18.68V23H227.731V15.32H225.811L222.387 19.64V15.32H220.163V23H222.099Z" fill="white"/>
<line x1="23" y1="124.5" x2="443" y2="124.5" stroke="#E6E6E6"/>
<line x1="23" y1="162.5" x2="443" y2="162.5" stroke="#E6E6E6"/>
<path d="M26.6 68V63.424H28.408L31.464 68H34.12L30.28 62.256L33.912 56.8H31.24L28.408 61.248H26.6V56.8H24.2V68H26.6ZM33.9495 64.16C33.9495 66.848 35.9655 68.224 38.1895 68.224C40.4295 68.224 42.4295 66.848 42.4295 64.16C42.4295 61.472 40.4295 60.096 38.1895 60.096C35.9655 60.096 33.9495 61.472 33.9495 64.16ZM40.1735 64.16C40.1735 65.344 39.4695 66.24 38.1895 66.24C36.9255 66.24 36.2215 65.344 36.2215 64.16C36.2215 62.976 36.9255 62.08 38.1895 62.08C39.4695 62.08 40.1735 62.976 40.1735 64.16ZM46.1055 68V65.088H49.2095V68H51.4335V60.32H49.2095V63.232H46.1055V60.32H43.8815V68H46.1055ZM59.415 71.52V68.224C61.959 68.128 63.847 66.608 63.847 64.16C63.847 61.712 61.959 60.192 59.415 60.096V56.8H57.303V60.096C54.759 60.192 52.871 61.712 52.871 64.16C52.871 66.608 54.759 68.128 57.303 68.224V71.52H59.415ZM55.095 64.16C55.095 63.008 55.831 62.032 57.319 61.952V66.368C55.831 66.288 55.095 65.312 55.095 64.16ZM59.431 61.952C60.919 62.032 61.655 63.008 61.655 64.16C61.655 65.312 60.919 66.288 59.431 66.368V61.952ZM65.4922 57.0078C65.4922 56.2318 65.9245 55.8438 66.7891 55.8438C67.6536 55.8438 68.0859 56.2318 68.0859 57.0078C68.0859 57.3776 67.9766 57.6667 67.7578 57.875C67.5443 58.0781 67.2214 58.1797 66.7891 58.1797C65.9245 58.1797 65.4922 57.7891 65.4922 57.0078ZM67.9766 68H65.5938V59.2656H67.9766V68ZM72.4024 68V62.192H76.0344V60.32H70.1784V68H72.4024ZM80.9213 65.504L78.6813 60.32H76.3293L79.9613 68.112L79.9453 68.144C79.5293 69.28 78.9213 69.824 78.1213 69.824C77.8173 69.824 77.5133 69.776 77.2093 69.712V71.552C77.6093 71.648 78.0093 71.728 78.4093 71.728C79.6573 71.728 80.8573 71.072 81.7213 68.928L85.1293 60.32H82.8253L80.9213 65.504ZM88.2089 61.44V60.32H86.2409V71.52H88.4649V67.184C88.9609 67.728 89.7769 68.224 90.9929 68.224C93.4249 68.224 94.7369 66.256 94.7369 64.16C94.7369 62.064 93.4249 60.096 90.9929 60.096C89.5689 60.096 88.6889 60.752 88.2089 61.44ZM92.4649 64.16C92.4649 65.36 91.7129 66.352 90.4489 66.352C89.4729 66.352 88.7529 65.744 88.4489 65.072V63.248C88.7529 62.576 89.4729 61.968 90.4489 61.968C91.7129 61.968 92.4649 62.96 92.4649 64.16ZM103.058 66.016V63.568C103.058 61.04 101.586 60.096 99.282 60.096C98.098 60.096 96.93 60.4 96.306 60.608V62.528C97.026 62.24 97.97 61.952 99.026 61.952C100.226 61.952 100.834 62.48 100.834 63.248V63.52C100.29 63.392 99.618 63.312 99.01 63.312C97.474 63.312 95.634 63.92 95.634 65.872C95.634 67.392 96.882 68.224 98.322 68.224C99.458 68.224 100.338 67.872 101.09 67.28C101.41 67.856 102.002 68.144 102.786 68.144C103.218 68.144 103.666 68.048 104.018 67.92V66.464C103.874 66.512 103.73 66.528 103.602 66.528C103.314 66.528 103.058 66.416 103.058 66.016ZM99.522 64.64C99.986 64.64 100.498 64.736 100.834 64.816V66.016C100.322 66.464 99.73 66.64 99.106 66.64C98.434 66.64 97.906 66.272 97.906 65.696C97.906 64.912 98.706 64.64 99.522 64.64ZM113.834 70.032V66.176H112.682V60.32H110.458V66.128H107.434V60.32H105.21V68H111.786V70.032H113.834ZM115.43 57.0078C115.43 56.2318 115.862 55.8438 116.727 55.8438C117.591 55.8438 118.023 56.2318 118.023 57.0078C118.023 57.3776 117.914 57.6667 117.695 57.875C117.482 58.0781 117.159 58.1797 116.727 58.1797C115.862 58.1797 115.43 57.7891 115.43 57.0078ZM117.914 68H115.531V59.2656H117.914V68ZM122.805 68H120.422V59.2656H122.805V68ZM118.961 57.0234C118.961 56.6849 119.057 56.4245 119.25 56.2422C119.448 56.0599 119.714 55.9688 120.047 55.9688C120.391 55.9688 120.659 56.0651 120.852 56.2578C121.049 56.4505 121.148 56.7057 121.148 57.0234C121.148 57.3359 121.049 57.5885 120.852 57.7812C120.654 57.9688 120.385 58.0625 120.047 58.0625C119.714 58.0625 119.448 57.9714 119.25 57.7891C119.057 57.6068 118.961 57.3516 118.961 57.0234ZM122.109 57.0234C122.109 56.6589 122.214 56.3932 122.422 56.2266C122.635 56.0547 122.898 55.9688 123.211 55.9688C123.549 55.9688 123.818 56.0625 124.016 56.25C124.219 56.4375 124.32 56.6953 124.32 57.0234C124.32 57.3411 124.219 57.5938 124.016 57.7812C123.812 57.9688 123.544 58.0625 123.211 58.0625C122.898 58.0625 122.635 57.9792 122.422 57.8125C122.214 57.6406 122.109 57.3776 122.109 57.0234Z" fill="#454545"/>
<path d="M24.568 110L25.72 107.296H31.752L32.904 110H34.344L29.48 98.8H27.992L23.112 110H24.568ZM28.552 100.608C28.616 100.464 28.664 100.336 28.728 100.176C28.792 100.336 28.84 100.464 28.904 100.608L31.224 106.048H26.248L28.552 100.608ZM36.9328 110V106.752H41.3808V110H42.6608V102.32H41.3808V105.568H36.9328V102.32H35.6528V110H36.9328ZM51.2678 108.4V105.392C51.2678 103.248 49.9718 102.128 47.9238 102.128C46.6598 102.128 45.6038 102.432 44.9958 102.64V103.888C45.6678 103.6 46.6118 103.312 47.7958 103.312C49.2038 103.312 49.9878 104.08 49.9878 105.232V105.504C49.3478 105.36 48.5318 105.264 47.8598 105.264C46.2118 105.264 44.3878 105.872 44.3878 107.856C44.3878 109.472 45.7318 110.192 47.0918 110.192C48.3398 110.192 49.3158 109.808 50.0838 109.168C50.3078 109.84 50.8678 110.096 51.4918 110.096C51.8118 110.096 52.1478 110.032 52.4518 109.92V108.88C52.2598 108.944 52.0518 108.992 51.8598 108.992C51.5238 108.992 51.2678 108.864 51.2678 108.4ZM45.6998 107.792C45.6998 106.672 46.9158 106.336 48.0358 106.336C48.6598 106.336 49.4438 106.448 49.9878 106.56V107.968C49.3158 108.688 48.3398 109.088 47.3638 109.088C46.5158 109.088 45.6998 108.688 45.6998 107.792ZM56.5446 103.504H59.6646V110H60.9446V102.32H55.2966C55.1526 106.448 54.7046 109.04 53.3446 109.04C53.1846 109.04 53.0086 109.008 52.8326 108.944V109.952C53.1686 110.08 53.4726 110.128 53.7606 110.128C55.7446 110.128 56.2886 107.44 56.5446 103.504ZM64.8906 110H63.4844V101.422H64.8906V110ZM63.375 99.1016C63.375 98.7891 63.4531 98.5625 63.6094 98.4219C63.7708 98.2812 63.9688 98.2109 64.2031 98.2109C64.4219 98.2109 64.612 98.2812 64.7734 98.4219C64.9401 98.5625 65.0234 98.7891 65.0234 99.1016C65.0234 99.4089 64.9401 99.6354 64.7734 99.7812C64.612 99.9271 64.4219 100 64.2031 100C63.9688 100 63.7708 99.9271 63.6094 99.7812C63.4531 99.6354 63.375 99.4089 63.375 99.1016ZM73.178 107.936C73.178 106.944 72.458 106.288 71.594 106.064C72.458 105.872 73.018 105.264 73.018 104.336C73.018 102.992 71.914 102.112 69.77 102.112C68.746 102.112 67.786 102.352 67.018 102.704V103.904C67.722 103.552 68.714 103.296 69.626 103.296C70.826 103.296 71.738 103.664 71.738 104.512C71.738 105.248 71.066 105.504 70.202 105.504H68.522V106.688H70.202C70.97 106.688 71.898 106.848 71.898 107.792C71.898 108.784 70.778 109.008 69.562 109.008C68.634 109.008 67.546 108.736 66.89 108.384V109.6C67.61 109.952 68.634 110.192 69.722 110.192C71.85 110.192 73.178 109.392 73.178 107.936ZM85.2834 108.4V105.392C85.2834 103.248 83.9874 102.128 81.9394 102.128C80.6754 102.128 79.6194 102.432 79.0114 102.64V103.888C79.6834 103.6 80.6274 103.312 81.8114 103.312C83.2194 103.312 84.0034 104.08 84.0034 105.232V105.504C83.3634 105.36 82.5474 105.264 81.8754 105.264C80.2274 105.264 78.4034 105.872 78.4034 107.856C78.4034 109.472 79.7474 110.192 81.1074 110.192C82.3554 110.192 83.3314 109.808 84.0994 109.168C84.3234 109.84 84.8834 110.096 85.5074 110.096C85.8274 110.096 86.1634 110.032 86.4674 109.92V108.88C86.2754 108.944 86.0674 108.992 85.8754 108.992C85.5394 108.992 85.2834 108.864 85.2834 108.4ZM79.7154 107.792C79.7154 106.672 80.9314 106.336 82.0514 106.336C82.6754 106.336 83.4594 106.448 84.0034 106.56V107.968C83.3314 108.688 82.3554 109.088 81.3794 109.088C80.5314 109.088 79.7154 108.688 79.7154 107.792ZM89.1203 110V106.752H93.5683V110H94.8483V102.32H93.5683V105.568H89.1203V102.32H87.8403V110H89.1203ZM103.455 108.4V105.392C103.455 103.248 102.159 102.128 100.111 102.128C98.8473 102.128 97.7913 102.432 97.1833 102.64V103.888C97.8553 103.6 98.7993 103.312 99.9833 103.312C101.391 103.312 102.175 104.08 102.175 105.232V105.504C101.535 105.36 100.719 105.264 100.047 105.264C98.3993 105.264 96.5753 105.872 96.5753 107.856C96.5753 109.472 97.9193 110.192 99.2793 110.192C100.527 110.192 101.503 109.808 102.271 109.168C102.495 109.84 103.055 110.096 103.679 110.096C103.999 110.096 104.335 110.032 104.639 109.92V108.88C104.447 108.944 104.239 108.992 104.047 108.992C103.711 108.992 103.455 108.864 103.455 108.4ZM97.8873 107.792C97.8873 106.672 99.1033 106.336 100.223 106.336C100.847 106.336 101.631 106.448 102.175 106.56V107.968C101.503 108.688 100.527 109.088 99.5513 109.088C98.7033 109.088 97.8873 108.688 97.8873 107.792ZM108.732 103.504H111.852V110H113.132V102.32H107.484C107.34 106.448 106.892 109.04 105.532 109.04C105.372 109.04 105.196 109.008 105.02 108.944V109.952C105.356 110.08 105.66 110.128 105.948 110.128C107.932 110.128 108.476 107.44 108.732 103.504ZM114.969 106.16C114.969 108.784 116.985 110.192 119.065 110.192C121.161 110.192 123.161 108.784 123.161 106.16C123.161 103.536 121.161 102.128 119.065 102.128C116.985 102.128 114.969 103.536 114.969 106.16ZM121.881 106.16C121.881 107.936 120.633 108.976 119.065 108.976C117.497 108.976 116.249 107.936 116.249 106.16C116.249 104.384 117.497 103.344 119.065 103.344C120.633 103.344 121.881 104.384 121.881 106.16ZM126.277 110V103.504H130.613V102.32H124.997V110H126.277ZM133.656 110H132.25V101.422H133.656V110ZM132.141 99.1016C132.141 98.7891 132.219 98.5625 132.375 98.4219C132.536 98.2812 132.734 98.2109 132.969 98.2109C133.188 98.2109 133.378 98.2812 133.539 98.4219C133.706 98.5625 133.789 98.7891 133.789 99.1016C133.789 99.4089 133.706 99.6354 133.539 99.7812C133.378 99.9271 133.188 100 132.969 100C132.734 100 132.536 99.9271 132.375 99.7812C132.219 99.6354 132.141 99.4089 132.141 99.1016ZM140.536 110C142.2 110 143.016 109.136 143.016 107.872C143.016 106.912 142.376 106.304 141.752 106.096C142.328 105.84 142.776 105.2 142.776 104.4C142.776 103.04 141.752 102.32 140.408 102.32H136.2V110H140.536ZM137.48 106.672H140.408C141.048 106.672 141.736 106.88 141.736 107.792C141.736 108.64 141.16 108.88 140.36 108.88H137.48V106.672ZM137.48 103.44H140.28C140.824 103.44 141.48 103.664 141.48 104.528C141.48 105.312 140.952 105.568 140.28 105.568H137.48V103.44Z" fill="#454545"/>
<path d="M24.568 148L25.72 145.296H31.752L32.904 148H34.344L29.48 136.8H27.992L23.112 148H24.568ZM28.552 138.608C28.616 138.464 28.664 138.336 28.728 138.176C28.792 138.336 28.84 138.464 28.904 138.608L31.224 144.048H26.248L28.552 138.608ZM36.9328 148V144.752H41.3808V148H42.6608V140.32H41.3808V143.568H36.9328V140.32H35.6528V148H36.9328ZM51.2678 146.4V143.392C51.2678 141.248 49.9718 140.128 47.9238 140.128C46.6598 140.128 45.6038 140.432 44.9958 140.64V141.888C45.6678 141.6 46.6118 141.312 47.7958 141.312C49.2038 141.312 49.9878 142.08 49.9878 143.232V143.504C49.3478 143.36 48.5318 143.264 47.8598 143.264C46.2118 143.264 44.3878 143.872 44.3878 145.856C44.3878 147.472 45.7318 148.192 47.0918 148.192C48.3398 148.192 49.3158 147.808 50.0838 147.168C50.3078 147.84 50.8678 148.096 51.4918 148.096C51.8118 148.096 52.1478 148.032 52.4518 147.92V146.88C52.2598 146.944 52.0518 146.992 51.8598 146.992C51.5238 146.992 51.2678 146.864 51.2678 146.4ZM45.6998 145.792C45.6998 144.672 46.9158 144.336 48.0358 144.336C48.6598 144.336 49.4438 144.448 49.9878 144.56V145.968C49.3158 146.688 48.3398 147.088 47.3638 147.088C46.5158 147.088 45.6998 146.688 45.6998 145.792ZM56.5446 141.504H59.6646V148H60.9446V140.32H55.2966C55.1526 144.448 54.7046 147.04 53.3446 147.04C53.1846 147.04 53.0086 147.008 52.8326 146.944V147.952C53.1686 148.08 53.4726 148.128 53.7606 148.128C55.7446 148.128 56.2886 145.44 56.5446 141.504ZM64.8906 148H63.4844V139.422H64.8906V148ZM63.375 137.102C63.375 136.789 63.4531 136.562 63.6094 136.422C63.7708 136.281 63.9688 136.211 64.2031 136.211C64.4219 136.211 64.612 136.281 64.7734 136.422C64.9401 136.562 65.0234 136.789 65.0234 137.102C65.0234 137.409 64.9401 137.635 64.7734 137.781C64.612 137.927 64.4219 138 64.2031 138C63.9688 138 63.7708 137.927 63.6094 137.781C63.4531 137.635 63.375 137.409 63.375 137.102ZM73.178 145.936C73.178 144.944 72.458 144.288 71.594 144.064C72.458 143.872 73.018 143.264 73.018 142.336C73.018 140.992 71.914 140.112 69.77 140.112C68.746 140.112 67.786 140.352 67.018 140.704V141.904C67.722 141.552 68.714 141.296 69.626 141.296C70.826 141.296 71.738 141.664 71.738 142.512C71.738 143.248 71.066 143.504 70.202 143.504H68.522V144.688H70.202C70.97 144.688 71.898 144.848 71.898 145.792C71.898 146.784 70.778 147.008 69.562 147.008C68.634 147.008 67.546 146.736 66.89 146.384V147.6C67.61 147.952 68.634 148.192 69.722 148.192C71.85 148.192 73.178 147.392 73.178 145.936ZM80.1954 141.6V140.32H79.0434V151.52H80.3234V146.848C80.8834 147.504 81.8274 148.192 83.2994 148.192C85.4914 148.192 87.1394 146.464 87.1394 144.16C87.1394 141.856 85.4914 140.128 83.2994 140.128C81.8274 140.128 80.8834 140.816 80.1954 141.6ZM85.8594 144.16C85.8594 145.92 84.6434 147.008 83.1554 147.008C81.7794 147.008 80.7554 146.112 80.3234 145.12V143.2C80.7554 142.208 81.7794 141.312 83.1554 141.312C84.6434 141.312 85.8594 142.4 85.8594 144.16ZM90.0689 148L94.7729 142.384V148H96.0529V140.32H94.9649L90.2609 145.936V140.32H88.9809V148H90.0689ZM99.6984 148V144.752H104.146V148H105.426V140.32H104.146V143.568H99.6984V140.32H98.4184V148H99.6984ZM109.073 148V144.704H110.577L113.393 148H114.897L111.633 144.144L114.545 140.32H113.057L110.625 143.52H109.073V140.32H107.793V148H109.073ZM119.4 146.544L116.504 140.32H115.144L118.792 148.016L118.504 148.72C118.008 149.968 117.384 150.592 116.52 150.592C116.296 150.592 116.072 150.56 115.848 150.496V151.6C116.136 151.68 116.408 151.712 116.68 151.712C117.8 151.712 118.776 151.008 119.576 149.152L123.352 140.32H121.992L119.4 146.544Z" fill="#454545"/>
<path d="M32.024 185.976C32.024 184.168 30.744 183.352 29.72 183.144C30.744 182.808 31.56 181.928 31.56 180.568C31.56 178.568 29.768 177.608 27.4 177.608C26.056 177.608 24.936 177.832 23.8 178.328V179.672C25 179.112 26.04 178.872 27.288 178.888C28.984 178.888 30.2 179.352 30.2 180.728C30.2 181.928 29.096 182.552 27.496 182.552H25.352V183.832H27.64C29.096 183.832 30.648 184.232 30.648 185.848C30.648 187.512 29.016 187.912 27.496 187.912C26.072 187.928 24.84 187.72 23.608 187.144V188.488C24.856 188.968 26.088 189.192 27.592 189.192C29.672 189.192 32.024 188.392 32.024 185.976ZM38.1919 189C39.8559 189 40.6719 188.136 40.6719 186.872C40.6719 185.912 40.0319 185.304 39.4079 185.096C39.9839 184.84 40.4319 184.2 40.4319 183.4C40.4319 182.04 39.4079 181.32 38.0639 181.32H33.8559V189H38.1919ZM35.1359 185.672H38.0639C38.7039 185.672 39.3919 185.88 39.3919 186.792C39.3919 187.64 38.8159 187.88 38.0159 187.88H35.1359V185.672ZM35.1359 182.44H37.9359C38.4799 182.44 39.1359 182.664 39.1359 183.528C39.1359 184.312 38.6079 184.568 37.9359 184.568H35.1359V182.44ZM42.0935 185.16C42.0935 187.896 44.0775 189.192 46.3495 189.192C47.3575 189.192 48.3655 189 49.0695 188.632V187.384C48.4135 187.752 47.4855 188.008 46.5415 188.008C44.9895 188.008 43.5335 187.336 43.3735 185.72H49.4855C49.9655 183.544 48.8775 181.128 45.9175 181.128C44.0935 181.128 42.0935 182.472 42.0935 185.16ZM48.3495 184.6H43.3735C43.4695 183.096 44.6855 182.312 45.9975 182.312C47.9495 182.312 48.4615 183.784 48.3495 184.6ZM51.7109 191.08V189H58.3989V191.08H59.6469V187.848H58.5269V181.32H52.7989C52.8309 184.184 52.4469 186.152 51.4869 187.848H50.4629V191.08H51.7109ZM54.0309 182.472H57.2469V187.848H52.8789C53.5829 186.376 53.9669 184.776 54.0309 182.472ZM60.6716 185.16C60.6716 187.896 62.6556 189.192 64.9276 189.192C65.9356 189.192 66.9436 189 67.6476 188.632V187.384C66.9916 187.752 66.0636 188.008 65.1196 188.008C63.5676 188.008 62.1116 187.336 61.9516 185.72H68.0636C68.5436 183.544 67.4556 181.128 64.4956 181.128C62.6716 181.128 60.6716 182.472 60.6716 185.16ZM66.9276 184.6H61.9516C62.0476 183.096 63.2636 182.312 64.5756 182.312C66.5276 182.312 67.0396 183.784 66.9276 184.6ZM71.214 189V185.752H75.662V189H76.942V181.32H75.662V184.568H71.214V181.32H69.934V189H71.214ZM80.589 189V185.752H85.037V189H86.317V181.32H85.037V184.568H80.589V181.32H79.309V189H80.589ZM89.452 189L91.548 186.312H93.708V189H94.988V181.32H91.212C89.34 181.32 88.332 182.472 88.332 183.816C88.332 184.888 88.972 185.832 90.172 186.184L87.948 189H89.452ZM89.612 183.816C89.612 182.968 90.252 182.472 91.324 182.472H93.708V185.16H91.324C90.252 185.16 89.612 184.664 89.612 183.816ZM109.244 191.08V187.816H108.108V181.32H106.828V187.816H102.62V181.32H101.34V189H107.996V191.08H109.244ZM112.531 189H111.125V180.422H112.531V189ZM111.016 178.102C111.016 177.789 111.094 177.562 111.25 177.422C111.411 177.281 111.609 177.211 111.844 177.211C112.062 177.211 112.253 177.281 112.414 177.422C112.581 177.562 112.664 177.789 112.664 178.102C112.664 178.409 112.581 178.635 112.414 178.781C112.253 178.927 112.062 179 111.844 179C111.609 179 111.411 178.927 111.25 178.781C111.094 178.635 111.016 178.409 111.016 178.102ZM116.355 189V185.752H120.803V189H122.083V181.32H120.803V184.568H116.355V181.32H115.075V189H116.355Z" fill="#454545"/>
<path d="M254.5 55C254.5 53.6193 255.619 52.5 257 52.5H440C441.381 52.5 442.5 53.6193 442.5 55V77C442.5 78.3807 441.381 79.5 440 79.5H257C255.619 79.5 254.5 78.3807 254.5 77V55Z" stroke="#E6E6E6"/>
<path d="M293.631 67.53C293.631 66.165 292.76 65.45 291.811 65.19C292.695 64.891 293.267 64.202 293.267 63.201C293.267 61.524 291.811 60.718 289.679 60.718C288.73 60.718 287.716 60.874 286.663 61.316V63.175C287.768 62.642 288.691 62.46 289.51 62.473C290.667 62.473 291.317 62.785 291.317 63.513C291.317 64.15 290.758 64.462 289.9 64.462H287.989L287.976 66.178H290.03C290.914 66.178 291.668 66.399 291.668 67.244C291.668 68.18 290.719 68.427 289.731 68.427C288.769 68.44 287.703 68.31 286.507 67.725V69.597C287.716 70.026 288.795 70.182 289.874 70.182C291.681 70.182 293.631 69.558 293.631 67.53ZM295.887 70L296.563 68.297H300.723L301.386 70H303.401L299.696 60.9H297.59L293.872 70H295.887ZM298.435 63.422C298.513 63.24 298.578 63.058 298.643 62.707C298.708 63.058 298.773 63.24 298.838 63.422L300.112 66.685H297.174L298.435 63.422ZM313.956 67.53C313.956 66.165 313.085 65.45 312.136 65.19C313.02 64.891 313.592 64.202 313.592 63.201C313.592 61.524 312.136 60.718 310.004 60.718C309.055 60.718 308.041 60.874 306.988 61.316V63.175C308.093 62.642 309.016 62.46 309.835 62.473C310.992 62.473 311.642 62.785 311.642 63.513C311.642 64.15 311.083 64.462 310.225 64.462H308.314L308.301 66.178H310.355C311.239 66.178 311.993 66.399 311.993 67.244C311.993 68.18 311.044 68.427 310.056 68.427C309.094 68.44 308.028 68.31 306.832 67.725V69.597C308.041 70.026 309.12 70.182 310.199 70.182C312.006 70.182 313.956 69.558 313.956 67.53ZM316.212 70L316.888 68.297H321.048L321.711 70H323.726L320.021 60.9H317.915L314.197 70H316.212ZM318.76 63.422C318.838 63.24 318.903 63.058 318.968 62.707C319.033 63.058 319.098 63.24 319.163 63.422L320.437 66.685H317.499L318.76 63.422ZM332.778 60.9L329.671 65.632L326.551 60.9H324.744V70H326.694V64.384L329.099 68.05H330.23L332.635 64.397V70H334.585V60.9H332.778ZM336.031 65.45C336.031 67.92 337.643 70.182 340.867 70.182C344.091 70.182 345.703 67.92 345.703 65.45C345.703 62.98 344.091 60.718 340.867 60.718C337.643 60.718 336.031 62.98 336.031 65.45ZM343.701 65.45C343.701 67.049 342.752 68.375 340.867 68.375C338.969 68.375 338.02 67.049 338.02 65.45C338.02 63.851 338.969 62.525 340.867 62.525C342.752 62.525 343.701 63.851 343.701 65.45ZM347.151 60.9V70H351.064C352.65 70 354.639 69.519 354.639 67.452C354.639 66.113 353.794 65.45 352.897 65.19C353.703 64.917 354.275 64.267 354.275 63.201C354.275 61.641 353.066 60.9 351.129 60.9H347.151ZM352.689 67.244C352.689 68.232 351.909 68.414 351.038 68.414H349.088V66.074H351.142C351.922 66.074 352.689 66.282 352.689 67.244ZM352.338 63.539C352.338 64.241 351.805 64.579 351.064 64.579H349.101V62.499H350.96C351.818 62.499 352.338 62.824 352.338 63.539ZM363.11 70V60.9H361.16V64.982C360.549 65.229 359.925 65.346 359.353 65.346C358.261 65.346 357.481 64.917 357.481 63.929V60.9H355.531V63.994C355.531 66.1 356.844 67.114 358.859 67.127C359.574 67.127 360.354 66.997 361.16 66.737V70H363.11ZM369.484 67.92L372.786 60.9H370.641L368.652 65.58L366.26 60.9H364.102L367.729 67.335L367.573 67.66C367.248 68.336 366.767 68.479 366.169 68.479C365.805 68.479 365.428 68.414 365.116 68.31V69.961C365.571 70.091 366.052 70.182 366.494 70.182C367.651 70.182 368.652 69.688 369.484 67.92ZM373.722 60.9V70H377.635C379.221 70 381.21 69.519 381.21 67.452C381.21 66.113 380.365 65.45 379.468 65.19C380.274 64.917 380.846 64.267 380.846 63.201C380.846 61.641 379.637 60.9 377.7 60.9H373.722ZM379.26 67.244C379.26 68.232 378.48 68.414 377.609 68.414H375.659V66.074H377.713C378.493 66.074 379.26 66.282 379.26 67.244ZM378.909 63.539C378.909 64.241 378.376 64.579 377.635 64.579H375.672V62.499H377.531C378.389 62.499 378.909 62.824 378.909 63.539ZM383.434 70L384.11 68.297H388.27L388.933 70H390.948L387.243 60.9H385.137L381.419 70H383.434ZM385.982 63.422C386.06 63.24 386.125 63.058 386.19 62.707C386.255 63.058 386.32 63.24 386.385 63.422L387.659 66.685H384.721L385.982 63.422ZM397.997 60.9V64.566H393.915V60.9H391.965V70H393.915V66.334H397.997V70H399.947V60.9H397.997ZM407.925 60.9V64.566H403.843V60.9H401.893V70H403.843V66.334H407.925V70H409.875V60.9H407.925ZM413.29 70L415.591 66.906H416.956V70H418.906V60.9H415.201C413.277 60.9 411.548 61.758 411.548 63.942C411.548 65.424 412.406 66.269 413.576 66.659L411.041 70H413.29ZM413.55 63.942C413.55 63.032 414.226 62.616 415.214 62.616H416.956V65.281H415.214C414.226 65.281 413.55 64.852 413.55 63.942ZM428.894 60.9L425.787 65.632L422.667 60.9H420.86V70H422.81V64.384L425.215 68.05H426.346L428.751 64.397V70H430.701V60.9H428.894Z" fill="#454545"/>
<path d="M271.5 71V66.5H274.5V71H278.25V65H280.5L273 58.25L265.5 65H267.75V71H271.5Z" fill="#454545"/>
<rect x="427.5" y="96.5" width="15" height="15" rx="2.5" stroke="#E6E6E6"/>
<rect x="427.5" y="177.5" width="15" height="15" rx="2.5" stroke="#E6E6E6"/>
<rect x="427" y="136" width="16" height="16" rx="3" fill="#454545"/>
<path d="M431.922 144L434.383 146.462L438.691 142.154" stroke="white" stroke-linecap="round" stroke-linejoin="round"/>
</svg>
