<svg width="719" height="423" viewBox="0 0 719 423" fill="none" xmlns="http://www.w3.org/2000/svg">
<g filter="url(#filter0_d_1713_314)">
<path d="M50 61C50 52.7157 56.7157 46 65 46H654C662.284 46 669 52.7157 669 61V354C669 362.284 662.284 369 654 369H65C56.7157 369 50 362.284 50 354V61Z" fill="white"/>
</g>
<path d="M383.168 93V87.294H386.084L390.206 93H391.934L387.272 86.538L391.556 80.4H389.828L386.03 85.854H383.168V80.4H381.656V93H383.168ZM400.217 91.2V87.816C400.217 85.404 398.759 84.144 396.455 84.144C395.033 84.144 393.845 84.486 393.161 84.72V86.124C393.917 85.8 394.979 85.476 396.311 85.476C397.895 85.476 398.777 86.34 398.777 87.636V87.942C398.057 87.78 397.139 87.672 396.383 87.672C394.529 87.672 392.477 88.356 392.477 90.588C392.477 92.406 393.989 93.216 395.519 93.216C396.923 93.216 398.021 92.784 398.885 92.064C399.137 92.82 399.767 93.108 400.469 93.108C400.829 93.108 401.207 93.036 401.549 92.91V91.74C401.333 91.812 401.099 91.866 400.883 91.866C400.505 91.866 400.217 91.722 400.217 91.2ZM393.953 90.516C393.953 89.256 395.321 88.878 396.581 88.878C397.283 88.878 398.165 89.004 398.777 89.13V90.714C398.021 91.524 396.923 91.974 395.825 91.974C394.871 91.974 393.953 91.524 393.953 90.516ZM406.289 93V85.692H409.457V84.36H401.663V85.692H404.849V93H406.289ZM410.217 88.68C410.217 91.758 412.449 93.216 415.005 93.216C416.139 93.216 417.273 93 418.065 92.586V91.182C417.327 91.596 416.283 91.884 415.221 91.884C413.475 91.884 411.837 91.128 411.657 89.31H418.533C419.073 86.862 417.849 84.144 414.519 84.144C412.467 84.144 410.217 85.656 410.217 88.68ZM417.255 88.05H411.657C411.765 86.358 413.133 85.476 414.609 85.476C416.805 85.476 417.381 87.132 417.255 88.05ZM422.077 93V85.692H426.955V84.36H420.637V93H422.077ZM427.689 88.68C427.689 91.632 429.957 93.216 432.297 93.216C434.655 93.216 436.905 91.632 436.905 88.68C436.905 85.728 434.655 84.144 432.297 84.144C429.957 84.144 427.689 85.728 427.689 88.68ZM435.465 88.68C435.465 90.678 434.061 91.848 432.297 91.848C430.533 91.848 429.129 90.678 429.129 88.68C429.129 86.682 430.533 85.512 432.297 85.512C434.061 85.512 435.465 86.682 435.465 88.68ZM440.267 85.8V84.36H438.971V96.96H440.411V91.704C441.041 92.442 442.103 93.216 443.759 93.216C446.225 93.216 448.079 91.272 448.079 88.68C448.079 86.088 446.225 84.144 443.759 84.144C442.103 84.144 441.041 84.918 440.267 85.8ZM446.639 88.68C446.639 90.66 445.271 91.884 443.597 91.884C442.049 91.884 440.897 90.876 440.411 89.76V87.6C440.897 86.484 442.049 85.476 443.597 85.476C445.271 85.476 446.639 86.7 446.639 88.68ZM451.93 93H450.348V83.3496H451.93V93ZM450.225 80.7393C450.225 80.3877 450.312 80.1328 450.488 79.9746C450.67 79.8164 450.893 79.7373 451.156 79.7373C451.402 79.7373 451.616 79.8164 451.798 79.9746C451.985 80.1328 452.079 80.3877 452.079 80.7393C452.079 81.085 451.985 81.3398 451.798 81.5039C451.616 81.668 451.402 81.75 451.156 81.75C450.893 81.75 450.67 81.668 450.488 81.5039C450.312 81.3398 450.225 81.085 450.225 80.7393ZM455.655 93L458.013 89.976H460.443V93H461.883V84.36H457.635C455.529 84.36 454.395 85.656 454.395 87.168C454.395 88.374 455.115 89.436 456.465 89.832L453.963 93H455.655ZM455.835 87.168C455.835 86.214 456.555 85.656 457.761 85.656H460.443V88.68H457.761C456.555 88.68 455.835 88.122 455.835 87.168Z" fill="#37376D"/>
<path d="M381.656 117.4V130H386.966C388.802 130 391.61 129.406 391.61 126.544C391.61 124.492 390.134 123.664 389.09 123.376C390.08 123.088 391.106 122.188 391.106 120.586C391.106 118.462 389.396 117.4 386.822 117.4H381.656ZM390.08 126.382C390.08 128.452 388.244 128.56 386.66 128.56H383.168V124.204H387.074C388.28 124.204 390.08 124.42 390.08 126.382ZM389.576 120.802C389.576 122.242 388.424 122.764 387.11 122.764H383.168V118.84H386.696C388.478 118.84 389.576 119.308 389.576 120.802ZM394.913 130L400.205 123.682V130H401.645V121.36H400.421L395.129 127.678V121.36H393.689V130H394.913ZM412.749 125.932C412.749 123.358 410.751 121.72 408.501 121.72C407.151 121.72 405.927 122.386 405.315 123.34C405.675 122.242 406.161 121.072 407.367 120.352C409.347 119.2 410.733 119.578 411.975 118.696V117.184C410.715 118.408 409.005 117.76 406.521 119.29C404.973 120.262 403.857 122.26 403.857 125.158C403.857 128.434 405.729 130.216 408.339 130.216C410.949 130.216 412.749 128.632 412.749 125.932ZM405.297 125.968C405.297 124.51 406.503 123.088 408.303 123.088C410.193 123.088 411.309 124.33 411.309 125.968C411.309 127.606 410.193 128.848 408.303 128.848C406.485 128.848 405.297 127.606 405.297 125.968ZM416.132 122.8V121.36H414.836V133.96H416.276V128.704C416.906 129.442 417.968 130.216 419.624 130.216C422.09 130.216 423.944 128.272 423.944 125.68C423.944 123.088 422.09 121.144 419.624 121.144C417.968 121.144 416.906 121.918 416.132 122.8ZM422.504 125.68C422.504 127.66 421.136 128.884 419.462 128.884C417.914 128.884 416.762 127.876 416.276 126.76V124.6C416.762 123.484 417.914 122.476 419.462 122.476C421.136 122.476 422.504 123.7 422.504 125.68ZM433.036 128.2V124.816C433.036 122.404 431.578 121.144 429.274 121.144C427.852 121.144 426.664 121.486 425.98 121.72V123.124C426.736 122.8 427.798 122.476 429.13 122.476C430.714 122.476 431.596 123.34 431.596 124.636V124.942C430.876 124.78 429.958 124.672 429.202 124.672C427.348 124.672 425.296 125.356 425.296 127.588C425.296 129.406 426.808 130.216 428.338 130.216C429.742 130.216 430.84 129.784 431.704 129.064C431.956 129.82 432.586 130.108 433.288 130.108C433.648 130.108 434.026 130.036 434.368 129.91V128.74C434.152 128.812 433.918 128.866 433.702 128.866C433.324 128.866 433.036 128.722 433.036 128.2ZM426.772 127.516C426.772 126.256 428.14 125.878 429.4 125.878C430.102 125.878 430.984 126.004 431.596 126.13V127.714C430.84 128.524 429.742 128.974 428.644 128.974C427.69 128.974 426.772 128.524 426.772 127.516ZM439.108 130V122.692H442.276V121.36H434.482V122.692H437.668V130H439.108ZM445.134 130L450.426 123.682V130H451.866V121.36H450.642L445.35 127.678V121.36H443.91V130H445.134Z" fill="#9B9BB6"/>
<path d="M380 146.5H631" stroke="black"/>
<path d="M626.165 128.75L622 125L630.33 125L626.165 128.75Z" fill="#000C2C"/>
<path d="M381.836 184H380.036L384.914 177.52L380.306 171.4H382.106L385.814 176.314L389.504 171.4H391.304L386.714 177.52L391.574 184H389.774L385.814 178.726L381.836 184ZM399.831 182.2C399.831 182.644 400.053 182.866 400.497 182.866C400.689 182.866 400.911 182.824 401.163 182.74V183.91C400.803 184.042 400.443 184.108 400.083 184.108C399.255 184.108 398.727 183.76 398.499 183.064C397.575 183.832 396.453 184.216 395.133 184.216C394.293 184.216 393.573 183.994 392.973 183.55C392.385 183.094 392.091 182.44 392.091 181.588C392.091 180.568 392.469 179.83 393.225 179.374C393.993 178.906 394.917 178.672 395.997 178.672C396.789 178.672 397.587 178.762 398.391 178.942V178.636C398.391 177.976 398.175 177.454 397.743 177.07C397.311 176.674 396.705 176.476 395.925 176.476C394.833 176.476 393.783 176.692 392.775 177.124V175.72C393.903 175.336 395.001 175.144 396.069 175.144C397.245 175.144 398.163 175.462 398.823 176.098C399.495 176.722 399.831 177.628 399.831 178.816V182.2ZM393.567 181.516C393.567 181.996 393.747 182.362 394.107 182.614C394.479 182.854 394.923 182.974 395.439 182.974C396.627 182.974 397.611 182.554 398.391 181.714V180.13C397.575 179.962 396.843 179.878 396.195 179.878C395.463 179.878 394.839 180.01 394.323 180.274C393.819 180.526 393.567 180.94 393.567 181.516ZM404.003 176.8C404.975 175.696 406.139 175.144 407.495 175.144C408.731 175.144 409.757 175.576 410.573 176.44C411.401 177.304 411.815 178.384 411.815 179.68C411.815 180.976 411.401 182.056 410.573 182.92C409.757 183.784 408.731 184.216 407.495 184.216C406.127 184.216 405.011 183.712 404.147 182.704V187.96H402.707V175.36H404.003V176.8ZM409.493 182.002C410.081 181.414 410.375 180.64 410.375 179.68C410.375 178.72 410.081 177.946 409.493 177.358C408.917 176.77 408.197 176.476 407.333 176.476C406.601 176.476 405.953 176.68 405.389 177.088C404.825 177.496 404.411 178 404.147 178.6V180.76C404.411 181.36 404.825 181.864 405.389 182.272C405.953 182.68 406.601 182.884 407.333 182.884C408.197 182.884 408.917 182.59 409.493 182.002ZM420.907 182.2C420.907 182.644 421.129 182.866 421.573 182.866C421.765 182.866 421.987 182.824 422.239 182.74V183.91C421.879 184.042 421.519 184.108 421.159 184.108C420.331 184.108 419.803 183.76 419.575 183.064C418.651 183.832 417.529 184.216 416.209 184.216C415.369 184.216 414.649 183.994 414.049 183.55C413.461 183.094 413.167 182.44 413.167 181.588C413.167 180.568 413.545 179.83 414.301 179.374C415.069 178.906 415.993 178.672 417.073 178.672C417.865 178.672 418.663 178.762 419.467 178.942V178.636C419.467 177.976 419.251 177.454 418.819 177.07C418.387 176.674 417.781 176.476 417.001 176.476C415.909 176.476 414.859 176.692 413.851 177.124V175.72C414.979 175.336 416.077 175.144 417.145 175.144C418.321 175.144 419.239 175.462 419.899 176.098C420.571 176.722 420.907 177.628 420.907 178.816V182.2ZM414.643 181.516C414.643 181.996 414.823 182.362 415.183 182.614C415.555 182.854 415.999 182.974 416.515 182.974C417.703 182.974 418.687 182.554 419.467 181.714V180.13C418.651 179.962 417.919 179.878 417.271 179.878C416.539 179.878 415.915 180.01 415.399 180.274C414.895 180.526 414.643 180.94 414.643 181.516ZM425.223 184H423.783V175.36H425.223V178.96H426.969L429.705 175.36H431.379L428.103 179.662L431.775 184H430.083L426.915 180.292H425.223V184ZM436.805 184H435.365V176.692H432.179V175.36H439.973V176.692H436.805V184ZM440.732 179.68C440.732 178.264 441.164 177.154 442.028 176.35C442.904 175.546 443.906 175.144 445.034 175.144C446.09 175.144 446.96 175.408 447.644 175.936C448.34 176.464 448.796 177.118 449.012 177.898C449.228 178.666 449.24 179.47 449.048 180.31H442.172C442.256 181.162 442.634 181.804 443.306 182.236C443.978 182.668 444.788 182.884 445.736 182.884C446.792 182.884 447.74 182.65 448.58 182.182V183.586C447.776 184.006 446.756 184.216 445.52 184.216C444.152 184.216 443.012 183.826 442.1 183.046C441.188 182.266 440.732 181.144 440.732 179.68ZM447.77 179.05C447.806 178.798 447.788 178.534 447.716 178.258C447.644 177.982 447.512 177.706 447.32 177.43C447.14 177.154 446.858 176.926 446.474 176.746C446.09 176.566 445.64 176.476 445.124 176.476C444.344 176.476 443.666 176.704 443.09 177.16C442.526 177.616 442.22 178.246 442.172 179.05H447.77ZM452.448 176.8C453.42 175.696 454.584 175.144 455.94 175.144C457.176 175.144 458.202 175.576 459.018 176.44C459.846 177.304 460.26 178.384 460.26 179.68C460.26 180.976 459.846 182.056 459.018 182.92C458.202 183.784 457.176 184.216 455.94 184.216C454.572 184.216 453.456 183.712 452.592 182.704V187.96H451.152V175.36H452.448V176.8ZM457.938 182.002C458.526 181.414 458.82 180.64 458.82 179.68C458.82 178.72 458.526 177.946 457.938 177.358C457.362 176.77 456.642 176.476 455.778 176.476C455.046 176.476 454.398 176.68 453.834 177.088C453.27 177.496 452.856 178 452.592 178.6V180.76C452.856 181.36 453.27 181.864 453.834 182.272C454.398 182.68 455.046 182.884 455.778 182.884C456.642 182.884 457.362 182.59 457.938 182.002ZM463.556 184H462.332V175.36H463.772V181.678L469.064 175.36H470.288V184H468.848V177.682L463.556 184ZM472.355 179.716C472.355 178.96 472.493 178.282 472.769 177.682C473.045 177.082 473.405 176.602 473.849 176.242C474.305 175.882 474.803 175.612 475.343 175.432C475.895 175.24 476.459 175.144 477.035 175.144C478.103 175.144 478.991 175.378 479.699 175.846V177.25C479.039 176.734 478.211 176.476 477.215 176.476C476.279 176.476 475.475 176.746 474.803 177.286C474.131 177.826 473.795 178.624 473.795 179.68C473.795 180.724 474.125 181.522 474.785 182.074C475.457 182.614 476.255 182.884 477.179 182.884C478.139 182.884 479.009 182.65 479.789 182.182V183.622C478.973 184.018 478.037 184.216 476.981 184.216C475.733 184.216 474.647 183.826 473.723 183.046C472.811 182.266 472.355 181.156 472.355 179.716ZM485.496 184H484.056V176.692H480.87V175.36H488.664V176.692H485.496V184ZM491.523 184H490.299V175.36H491.739V181.678L497.031 175.36H498.255V184H496.815V177.682L491.523 184ZM502.356 184H500.916V175.36H502.356V178.96H504.102L506.838 175.36H508.512L505.236 179.662L508.908 184H507.216L504.048 180.292H502.356V184ZM517.288 182.2C517.288 182.644 517.51 182.866 517.954 182.866C518.146 182.866 518.368 182.824 518.62 182.74V183.91C518.26 184.042 517.9 184.108 517.54 184.108C516.712 184.108 516.184 183.76 515.956 183.064C515.032 183.832 513.91 184.216 512.59 184.216C511.75 184.216 511.03 183.994 510.43 183.55C509.842 183.094 509.548 182.44 509.548 181.588C509.548 180.568 509.926 179.83 510.682 179.374C511.45 178.906 512.374 178.672 513.454 178.672C514.246 178.672 515.044 178.762 515.848 178.942V178.636C515.848 177.976 515.632 177.454 515.2 177.07C514.768 176.674 514.162 176.476 513.382 176.476C512.29 176.476 511.24 176.692 510.232 177.124V175.72C511.36 175.336 512.458 175.144 513.526 175.144C514.702 175.144 515.62 175.462 516.28 176.098C516.952 176.722 517.288 177.628 517.288 178.816V182.2ZM511.024 181.516C511.024 181.996 511.204 182.362 511.564 182.614C511.936 182.854 512.38 182.974 512.896 182.974C514.084 182.974 515.068 182.554 515.848 181.714V180.13C515.032 179.962 514.3 179.878 513.652 179.878C512.92 179.878 512.296 180.01 511.78 180.274C511.276 180.526 511.024 180.94 511.024 181.516Z" fill="#37376D"/>
<path d="M381.656 208.4V221H386.966C388.802 221 391.61 220.406 391.61 217.544C391.61 215.492 390.134 214.664 389.09 214.376C390.08 214.088 391.106 213.188 391.106 211.586C391.106 209.462 389.396 208.4 386.822 208.4H381.656ZM390.08 217.382C390.08 219.452 388.244 219.56 386.66 219.56H383.168V215.204H387.074C388.28 215.204 390.08 215.42 390.08 217.382ZM389.576 211.802C389.576 213.242 388.424 213.764 387.11 213.764H383.168V209.84H386.696C388.478 209.84 389.576 210.308 389.576 211.802ZM394.913 221L400.205 214.682V221H401.645V212.36H400.421L395.129 218.678V212.36H393.689V221H394.913ZM412.749 216.932C412.749 214.358 410.751 212.72 408.501 212.72C407.151 212.72 405.927 213.386 405.315 214.34C405.675 213.242 406.161 212.072 407.367 211.352C409.347 210.2 410.733 210.578 411.975 209.696V208.184C410.715 209.408 409.005 208.76 406.521 210.29C404.973 211.262 403.857 213.26 403.857 216.158C403.857 219.434 405.729 221.216 408.339 221.216C410.949 221.216 412.749 219.632 412.749 216.932ZM405.297 216.968C405.297 215.51 406.503 214.088 408.303 214.088C410.193 214.088 411.309 215.33 411.309 216.968C411.309 218.606 410.193 219.848 408.303 219.848C406.485 219.848 405.297 218.606 405.297 216.968ZM416.132 213.8V212.36H414.836V224.96H416.276V219.704C416.906 220.442 417.968 221.216 419.624 221.216C422.09 221.216 423.944 219.272 423.944 216.68C423.944 214.088 422.09 212.144 419.624 212.144C417.968 212.144 416.906 212.918 416.132 213.8ZM422.504 216.68C422.504 218.66 421.136 219.884 419.462 219.884C417.914 219.884 416.762 218.876 416.276 217.76V215.6C416.762 214.484 417.914 213.476 419.462 213.476C421.136 213.476 422.504 214.7 422.504 216.68ZM433.036 219.2V215.816C433.036 213.404 431.578 212.144 429.274 212.144C427.852 212.144 426.664 212.486 425.98 212.72V214.124C426.736 213.8 427.798 213.476 429.13 213.476C430.714 213.476 431.596 214.34 431.596 215.636V215.942C430.876 215.78 429.958 215.672 429.202 215.672C427.348 215.672 425.296 216.356 425.296 218.588C425.296 220.406 426.808 221.216 428.338 221.216C429.742 221.216 430.84 220.784 431.704 220.064C431.956 220.82 432.586 221.108 433.288 221.108C433.648 221.108 434.026 221.036 434.368 220.91V219.74C434.152 219.812 433.918 219.866 433.702 219.866C433.324 219.866 433.036 219.722 433.036 219.2ZM426.772 218.516C426.772 217.256 428.14 216.878 429.4 216.878C430.102 216.878 430.984 217.004 431.596 217.13V218.714C430.84 219.524 429.742 219.974 428.644 219.974C427.69 219.974 426.772 219.524 426.772 218.516ZM439.108 221V213.692H442.276V212.36H434.482V213.692H437.668V221H439.108ZM445.134 221L450.426 214.682V221H451.866V212.36H450.642L445.35 218.678V212.36H443.91V221H445.134Z" fill="#9B9BB6"/>
<path d="M380 237.5H631" stroke="black"/>
<path d="M626.165 219.75L622 216L630.33 216L626.165 219.75Z" fill="#000C2C"/>
<path d="M87.656 80.4V93H92.966C94.802 93 97.61 92.406 97.61 89.544C97.61 87.492 96.134 86.664 95.09 86.376C96.08 86.088 97.106 85.188 97.106 83.586C97.106 81.462 95.396 80.4 92.822 80.4H87.656ZM96.08 89.382C96.08 91.452 94.244 91.56 92.66 91.56H89.168V87.204H93.074C94.28 87.204 96.08 87.42 96.08 89.382ZM95.576 83.802C95.576 85.242 94.424 85.764 93.11 85.764H89.168V81.84H92.696C94.478 81.84 95.576 82.308 95.576 83.802ZM100.913 93L106.205 86.682V93H107.645V84.36H106.421L101.129 90.678V84.36H99.6894V93H100.913ZM111.603 85.8V84.36H110.307V96.96H111.747V91.704C112.377 92.442 113.439 93.216 115.095 93.216C117.561 93.216 119.415 91.272 119.415 88.68C119.415 86.088 117.561 84.144 115.095 84.144C113.439 84.144 112.377 84.918 111.603 85.8ZM117.975 88.68C117.975 90.66 116.607 91.884 114.933 91.884C113.385 91.884 112.233 90.876 111.747 89.76V87.6C112.233 86.484 113.385 85.476 114.933 85.476C116.607 85.476 117.975 86.7 117.975 88.68ZM120.892 88.68C120.892 91.632 123.16 93.216 125.5 93.216C127.858 93.216 130.108 91.632 130.108 88.68C130.108 85.728 127.858 84.144 125.5 84.144C123.16 84.144 120.892 85.728 120.892 88.68ZM128.668 88.68C128.668 90.678 127.264 91.848 125.5 91.848C123.736 91.848 122.332 90.678 122.332 88.68C122.332 86.682 123.736 85.512 125.5 85.512C127.264 85.512 128.668 86.682 128.668 88.68ZM140.616 88.932C140.616 86.358 138.618 84.72 136.368 84.72C135.018 84.72 133.794 85.386 133.182 86.34C133.542 85.242 134.028 84.072 135.234 83.352C137.214 82.2 138.6 82.578 139.842 81.696V80.184C138.582 81.408 136.872 80.76 134.388 82.29C132.84 83.262 131.724 85.26 131.724 88.158C131.724 91.434 133.596 93.216 136.206 93.216C138.816 93.216 140.616 91.632 140.616 88.932ZM133.164 88.968C133.164 87.51 134.37 86.088 136.17 86.088C138.06 86.088 139.176 87.33 139.176 88.968C139.176 90.606 138.06 91.848 136.17 91.848C134.352 91.848 133.164 90.606 133.164 88.968ZM144.143 93V89.346H149.147V93H150.587V84.36H149.147V88.014H144.143V84.36H142.703V93H144.143ZM154.474 93L159.766 86.682V93H161.206V84.36H159.982L154.69 90.678V84.36H153.25V93H154.474ZM165.307 93V89.292H166.999L170.167 93H171.859L168.187 88.662L171.463 84.36H169.789L167.053 87.96H165.307V84.36H163.867V93H165.307Z" fill="#37376D"/>
<path d="M87.656 117.4V130H92.966C94.802 130 97.61 129.406 97.61 126.544C97.61 124.492 96.134 123.664 95.09 123.376C96.08 123.088 97.106 122.188 97.106 120.586C97.106 118.462 95.396 117.4 92.822 117.4H87.656ZM96.08 126.382C96.08 128.452 94.244 128.56 92.66 128.56H89.168V124.204H93.074C94.28 124.204 96.08 124.42 96.08 126.382ZM95.576 120.802C95.576 122.242 94.424 122.764 93.11 122.764H89.168V118.84H92.696C94.478 118.84 95.576 119.308 95.576 120.802ZM100.913 130L106.205 123.682V130H107.645V121.36H106.421L101.129 127.678V121.36H99.6894V130H100.913ZM118.749 125.932C118.749 123.358 116.751 121.72 114.501 121.72C113.151 121.72 111.927 122.386 111.315 123.34C111.675 122.242 112.161 121.072 113.367 120.352C115.347 119.2 116.733 119.578 117.975 118.696V117.184C116.715 118.408 115.005 117.76 112.521 119.29C110.973 120.262 109.857 122.26 109.857 125.158C109.857 128.434 111.729 130.216 114.339 130.216C116.949 130.216 118.749 128.632 118.749 125.932ZM111.297 125.968C111.297 124.51 112.503 123.088 114.303 123.088C116.193 123.088 117.309 124.33 117.309 125.968C117.309 127.606 116.193 128.848 114.303 128.848C112.485 128.848 111.297 127.606 111.297 125.968ZM122.132 122.8V121.36H120.836V133.96H122.276V128.704C122.906 129.442 123.968 130.216 125.624 130.216C128.09 130.216 129.944 128.272 129.944 125.68C129.944 123.088 128.09 121.144 125.624 121.144C123.968 121.144 122.906 121.918 122.132 122.8ZM128.504 125.68C128.504 127.66 127.136 128.884 125.462 128.884C123.914 128.884 122.762 127.876 122.276 126.76V124.6C122.762 123.484 123.914 122.476 125.462 122.476C127.136 122.476 128.504 123.7 128.504 125.68ZM139.036 128.2V124.816C139.036 122.404 137.578 121.144 135.274 121.144C133.852 121.144 132.664 121.486 131.98 121.72V123.124C132.736 122.8 133.798 122.476 135.13 122.476C136.714 122.476 137.596 123.34 137.596 124.636V124.942C136.876 124.78 135.958 124.672 135.202 124.672C133.348 124.672 131.296 125.356 131.296 127.588C131.296 129.406 132.808 130.216 134.338 130.216C135.742 130.216 136.84 129.784 137.704 129.064C137.956 129.82 138.586 130.108 139.288 130.108C139.648 130.108 140.026 130.036 140.368 129.91V128.74C140.152 128.812 139.918 128.866 139.702 128.866C139.324 128.866 139.036 128.722 139.036 128.2ZM132.772 127.516C132.772 126.256 134.14 125.878 135.4 125.878C136.102 125.878 136.984 126.004 137.596 126.13V127.714C136.84 128.524 135.742 128.974 134.644 128.974C133.69 128.974 132.772 128.524 132.772 127.516ZM145.108 130V122.692H148.276V121.36H140.482V122.692H143.668V130H145.108ZM151.134 130L156.426 123.682V130H157.866V121.36H156.642L151.35 127.678V121.36H149.91V130H151.134Z" fill="#9B9BB6"/>
<path d="M86 146.5H337" stroke="black"/>
<path d="M332.165 128.75L328 125L336.33 125L332.165 128.75Z" fill="#000C2C"/>
<path d="M86.81 177.79C86.81 176.398 87.14 175.192 87.8 174.172C88.46 173.14 89.282 172.384 90.266 171.904C91.25 171.424 92.306 171.184 93.434 171.184C94.73 171.184 95.912 171.466 96.98 172.03V173.542C96.068 172.93 94.97 172.624 93.686 172.624C92.246 172.624 90.998 173.068 89.942 173.956C88.886 174.832 88.352 176.11 88.34 177.79C88.34 178.858 88.61 179.782 89.15 180.562C89.702 181.342 90.374 181.906 91.166 182.254C91.97 182.602 92.828 182.776 93.74 182.776C95.096 182.776 96.206 182.47 97.07 181.858V183.37C95.978 183.934 94.76 184.216 93.416 184.216C92.612 184.216 91.82 184.078 91.04 183.802C90.26 183.514 89.552 183.112 88.916 182.596C88.28 182.068 87.77 181.39 87.386 180.562C87.002 179.722 86.81 178.798 86.81 177.79ZM98.2341 179.68C98.2341 178.264 98.6661 177.154 99.5301 176.35C100.406 175.546 101.408 175.144 102.536 175.144C103.592 175.144 104.462 175.408 105.146 175.936C105.842 176.464 106.298 177.118 106.514 177.898C106.73 178.666 106.742 179.47 106.55 180.31H99.6741C99.7581 181.162 100.136 181.804 100.808 182.236C101.48 182.668 102.29 182.884 103.238 182.884C104.294 182.884 105.242 182.65 106.082 182.182V183.586C105.278 184.006 104.258 184.216 103.022 184.216C101.654 184.216 100.514 183.826 99.6021 183.046C98.6901 182.266 98.2341 181.144 98.2341 179.68ZM105.272 179.05C105.308 178.798 105.29 178.534 105.218 178.258C105.146 177.982 105.014 177.706 104.822 177.43C104.642 177.154 104.36 176.926 103.976 176.746C103.592 176.566 103.142 176.476 102.626 176.476C101.846 176.476 101.168 176.704 100.592 177.16C100.028 177.616 99.7221 178.246 99.6741 179.05H105.272ZM110.094 184H108.654V175.36H114.972V176.692H110.094V184ZM117.985 184H116.617V175.36H118.183L121.333 180.148L124.483 175.36H126.049V184H124.681V177.484L121.873 181.75H120.793L117.985 177.484V184ZM128.117 179.68C128.117 178.264 128.549 177.154 129.413 176.35C130.289 175.546 131.291 175.144 132.419 175.144C133.475 175.144 134.345 175.408 135.029 175.936C135.725 176.464 136.181 177.118 136.397 177.898C136.613 178.666 136.625 179.47 136.433 180.31H129.557C129.641 181.162 130.019 181.804 130.691 182.236C131.363 182.668 132.173 182.884 133.121 182.884C134.177 182.884 135.125 182.65 135.965 182.182V183.586C135.161 184.006 134.141 184.216 132.905 184.216C131.537 184.216 130.397 183.826 129.485 183.046C128.573 182.266 128.117 181.144 128.117 179.68ZM135.155 179.05C135.191 178.798 135.173 178.534 135.101 178.258C135.029 177.982 134.897 177.706 134.705 177.43C134.525 177.154 134.243 176.926 133.859 176.746C133.475 176.566 133.025 176.476 132.509 176.476C131.729 176.476 131.051 176.704 130.475 177.16C129.911 177.616 129.605 178.246 129.557 179.05H135.155ZM139.977 184H138.537V175.36H139.977V179.014H144.981V175.36H146.421V184H144.981V180.346H139.977V184ZM152.684 184H151.244V176.692H148.058V175.36H155.852V176.692H152.684V184Z" fill="#37376D"/>
<path d="M87.656 208.4V221H92.966C94.802 221 97.61 220.406 97.61 217.544C97.61 215.492 96.134 214.664 95.09 214.376C96.08 214.088 97.106 213.188 97.106 211.586C97.106 209.462 95.396 208.4 92.822 208.4H87.656ZM96.08 217.382C96.08 219.452 94.244 219.56 92.66 219.56H89.168V215.204H93.074C94.28 215.204 96.08 215.42 96.08 217.382ZM95.576 211.802C95.576 213.242 94.424 213.764 93.11 213.764H89.168V209.84H92.696C94.478 209.84 95.576 210.308 95.576 211.802ZM100.913 221L106.205 214.682V221H107.645V212.36H106.421L101.129 218.678V212.36H99.6894V221H100.913ZM118.749 216.932C118.749 214.358 116.751 212.72 114.501 212.72C113.151 212.72 111.927 213.386 111.315 214.34C111.675 213.242 112.161 212.072 113.367 211.352C115.347 210.2 116.733 210.578 117.975 209.696V208.184C116.715 209.408 115.005 208.76 112.521 210.29C110.973 211.262 109.857 213.26 109.857 216.158C109.857 219.434 111.729 221.216 114.339 221.216C116.949 221.216 118.749 219.632 118.749 216.932ZM111.297 216.968C111.297 215.51 112.503 214.088 114.303 214.088C116.193 214.088 117.309 215.33 117.309 216.968C117.309 218.606 116.193 219.848 114.303 219.848C112.485 219.848 111.297 218.606 111.297 216.968ZM122.132 213.8V212.36H120.836V224.96H122.276V219.704C122.906 220.442 123.968 221.216 125.624 221.216C128.09 221.216 129.944 219.272 129.944 216.68C129.944 214.088 128.09 212.144 125.624 212.144C123.968 212.144 122.906 212.918 122.132 213.8ZM128.504 216.68C128.504 218.66 127.136 219.884 125.462 219.884C123.914 219.884 122.762 218.876 122.276 217.76V215.6C122.762 214.484 123.914 213.476 125.462 213.476C127.136 213.476 128.504 214.7 128.504 216.68ZM139.036 219.2V215.816C139.036 213.404 137.578 212.144 135.274 212.144C133.852 212.144 132.664 212.486 131.98 212.72V214.124C132.736 213.8 133.798 213.476 135.13 213.476C136.714 213.476 137.596 214.34 137.596 215.636V215.942C136.876 215.78 135.958 215.672 135.202 215.672C133.348 215.672 131.296 216.356 131.296 218.588C131.296 220.406 132.808 221.216 134.338 221.216C135.742 221.216 136.84 220.784 137.704 220.064C137.956 220.82 138.586 221.108 139.288 221.108C139.648 221.108 140.026 221.036 140.368 220.91V219.74C140.152 219.812 139.918 219.866 139.702 219.866C139.324 219.866 139.036 219.722 139.036 219.2ZM132.772 218.516C132.772 217.256 134.14 216.878 135.4 216.878C136.102 216.878 136.984 217.004 137.596 217.13V218.714C136.84 219.524 135.742 219.974 134.644 219.974C133.69 219.974 132.772 219.524 132.772 218.516ZM145.108 221V213.692H148.276V212.36H140.482V213.692H143.668V221H145.108ZM151.134 221L156.426 214.682V221H157.866V212.36H156.642L151.35 218.678V212.36H149.91V221H151.134Z" fill="#9B9BB6"/>
<path d="M86 237.5H337" stroke="black"/>
<path d="M332.165 219.75L328 216L336.33 216L332.165 219.75Z" fill="#000C2C"/>
<path d="M97.152 271.598C97.152 269.564 95.712 268.646 94.56 268.412C95.712 268.034 96.63 267.044 96.63 265.514C96.63 263.264 94.614 262.184 91.95 262.184C90.438 262.184 89.178 262.436 87.9 262.994V264.506C89.25 263.876 90.42 263.606 91.824 263.624C93.732 263.624 95.1 264.146 95.1 265.694C95.1 267.044 93.858 267.746 92.058 267.746H89.646V269.186H92.22C93.858 269.186 95.604 269.636 95.604 271.454C95.604 273.326 93.768 273.776 92.058 273.776C90.456 273.794 89.07 273.56 87.684 272.912V274.424C89.088 274.964 90.474 275.216 92.166 275.216C94.506 275.216 97.152 274.316 97.152 271.598ZM107.401 275V267.692H110.569V266.36H102.775V267.692H105.961V275H107.401ZM111.328 270.68C111.328 273.758 113.56 275.216 116.116 275.216C117.25 275.216 118.384 275 119.176 274.586V273.182C118.438 273.596 117.394 273.884 116.332 273.884C114.586 273.884 112.948 273.128 112.768 271.31H119.644C120.184 268.862 118.96 266.144 115.63 266.144C113.578 266.144 111.328 267.656 111.328 270.68ZM118.366 270.05H112.768C112.876 268.358 114.244 267.476 115.72 267.476C117.916 267.476 118.492 269.132 118.366 270.05ZM123.188 275V267.692H128.066V266.36H121.748V275H123.188ZM128.801 270.68C128.801 273.632 131.069 275.216 133.409 275.216C135.767 275.216 138.017 273.632 138.017 270.68C138.017 267.728 135.767 266.144 133.409 266.144C131.069 266.144 128.801 267.728 128.801 270.68ZM136.577 270.68C136.577 272.678 135.173 273.848 133.409 273.848C131.645 273.848 130.241 272.678 130.241 270.68C130.241 268.682 131.645 267.512 133.409 267.512C135.173 267.512 136.577 268.682 136.577 270.68ZM141.45 275V268.484L144.258 272.75H145.338L148.146 268.484V275H149.514V266.36H147.948L144.798 271.148L141.648 266.36H140.082V275H141.45Z" fill="#37376D"/>
<path d="M87 329H630" stroke="black"/>
<rect x="86" y="289" width="123" height="29" rx="14.5" fill="#DDDDE6"/>
<path d="M109.638 296.4H111.15V309H109.638V303.402H102.168V309H100.656V296.4H102.168V301.962H109.638V296.4ZM114.711 308.01C113.799 307.194 113.343 306.084 113.343 304.68C113.343 303.276 113.799 302.172 114.711 301.368C115.623 300.552 116.703 300.144 117.951 300.144C119.211 300.144 120.291 300.552 121.191 301.368C122.103 302.172 122.559 303.276 122.559 304.68C122.559 306.084 122.103 307.194 121.191 308.01C120.291 308.814 119.211 309.216 117.951 309.216C116.703 309.216 115.623 308.814 114.711 308.01ZM120.219 307.002C120.819 306.426 121.119 305.652 121.119 304.68C121.119 303.708 120.819 302.94 120.219 302.376C119.619 301.8 118.863 301.512 117.951 301.512C117.039 301.512 116.283 301.8 115.683 302.376C115.083 302.94 114.783 303.708 114.783 304.68C114.783 305.652 115.083 306.426 115.683 307.002C116.283 307.566 117.039 307.848 117.951 307.848C118.863 307.848 119.619 307.566 120.219 307.002ZM129.503 309H124.625V300.36H129.359C130.139 300.36 130.775 300.564 131.267 300.972C131.771 301.38 132.023 301.956 132.023 302.7C132.023 303.132 131.915 303.522 131.699 303.87C131.483 304.218 131.207 304.464 130.871 304.608C131.267 304.74 131.603 304.98 131.879 305.328C132.155 305.676 132.293 306.102 132.293 306.606C132.293 307.338 132.053 307.92 131.573 308.352C131.105 308.784 130.415 309 129.503 309ZM126.065 305.256V307.74H129.305C130.337 307.74 130.853 307.332 130.853 306.516C130.853 305.676 130.355 305.256 129.359 305.256H126.065ZM126.065 301.62V304.014H129.215C130.115 304.014 130.565 303.624 130.565 302.844C130.565 302.4 130.433 302.088 130.169 301.908C129.905 301.716 129.587 301.62 129.215 301.62H126.065ZM135.71 309H134.486V300.36H135.926V306.678L141.218 300.36H142.442V309H141.002V302.682L135.71 309ZM146.543 309H145.103V300.36H146.543V304.014H151.547V300.36H152.987V309H151.547V305.346H146.543V309ZM157.09 309H155.65V300.36H157.09V303.96H158.836L161.572 300.36H163.246L159.97 304.662L163.642 309H161.95L158.782 305.292H157.09V309ZM172.022 307.2C172.022 307.644 172.244 307.866 172.688 307.866C172.88 307.866 173.102 307.824 173.354 307.74V308.91C172.994 309.042 172.634 309.108 172.274 309.108C171.446 309.108 170.918 308.76 170.69 308.064C169.766 308.832 168.644 309.216 167.324 309.216C166.484 309.216 165.764 308.994 165.164 308.55C164.576 308.094 164.282 307.44 164.282 306.588C164.282 305.568 164.66 304.83 165.416 304.374C166.184 303.906 167.108 303.672 168.188 303.672C168.98 303.672 169.778 303.762 170.582 303.942V303.636C170.582 302.976 170.366 302.454 169.934 302.07C169.502 301.674 168.896 301.476 168.116 301.476C167.024 301.476 165.974 301.692 164.966 302.124V300.72C166.094 300.336 167.192 300.144 168.26 300.144C169.436 300.144 170.354 300.462 171.014 301.098C171.686 301.722 172.022 302.628 172.022 303.816V307.2ZM165.758 306.516C165.758 306.996 165.938 307.362 166.298 307.614C166.67 307.854 167.114 307.974 167.63 307.974C168.818 307.974 169.802 307.554 170.582 306.714V305.13C169.766 304.962 169.034 304.878 168.386 304.878C167.654 304.878 167.03 305.01 166.514 305.274C166.01 305.526 165.758 305.94 165.758 306.516Z" fill="#37376D"/>
<circle cx="193.5" cy="303.5" r="10.5" fill="#AFAFBD"/>
<path fill-rule="evenodd" clip-rule="evenodd" d="M193.5 302.793L190.672 299.964L189.965 300.671L192.793 303.5L189.965 306.329L190.672 307.036L193.5 304.207L196.329 307.035L197.036 306.328L194.208 303.5L197.036 300.672L196.329 299.965L193.5 302.793Z" fill="#37376D"/>
<path d="M219 303.5C219 295.492 225.492 289 233.5 289H355.5C363.508 289 370 295.492 370 303.5C370 311.508 363.508 318 355.5 318H233.5C225.492 318 219 311.508 219 303.5Z" fill="#DDDDE6"/>
<path d="M233.836 309L237.814 303.726L241.774 309H243.574L238.714 302.52L243.304 296.4H241.504L237.814 301.314L234.106 296.4H232.306L236.914 302.52L232.036 309H233.836ZM246.713 309H245.131V299.35H246.713V309ZM245.008 296.739C245.008 296.388 245.096 296.133 245.271 295.975C245.453 295.816 245.676 295.737 245.939 295.737C246.186 295.737 246.399 295.816 246.581 295.975C246.769 296.133 246.862 296.388 246.862 296.739C246.862 297.085 246.769 297.34 246.581 297.504C246.399 297.668 246.186 297.75 245.939 297.75C245.676 297.75 245.453 297.668 245.271 297.504C245.096 297.34 245.008 297.085 245.008 296.739ZM253.174 309V301.692H256.342V300.36H248.548V301.692H251.734V309H253.174ZM263.899 309V301.692H268.903V309H270.343V300.36H262.459V309H263.899ZM274.302 301.8V300.36H273.006V312.96H274.446V307.704C275.076 308.442 276.138 309.216 277.794 309.216C280.26 309.216 282.114 307.272 282.114 304.68C282.114 302.088 280.26 300.144 277.794 300.144C276.138 300.144 275.076 300.918 274.302 301.8ZM280.674 304.68C280.674 306.66 279.306 307.884 277.632 307.884C276.084 307.884 274.932 306.876 274.446 305.76V303.6C274.932 302.484 276.084 301.476 277.632 301.476C279.306 301.476 280.674 302.7 280.674 304.68ZM283.592 304.68C283.592 307.632 285.86 309.216 288.2 309.216C290.558 309.216 292.808 307.632 292.808 304.68C292.808 301.728 290.558 300.144 288.2 300.144C285.86 300.144 283.592 301.728 283.592 304.68ZM291.368 304.68C291.368 306.678 289.964 307.848 288.2 307.848C286.436 307.848 285.032 306.678 285.032 304.68C285.032 302.682 286.436 301.512 288.2 301.512C289.964 301.512 291.368 302.682 291.368 304.68ZM295.185 311.34V309H302.709V311.34H304.113V307.704H302.853V300.36H296.409C296.445 303.582 296.013 305.796 294.933 307.704H293.781V311.34H295.185ZM297.795 301.656H301.413V307.704H296.499C297.291 306.048 297.723 304.248 297.795 301.656ZM313.055 307.2V303.816C313.055 301.404 311.597 300.144 309.293 300.144C307.871 300.144 306.683 300.486 305.999 300.72V302.124C306.755 301.8 307.817 301.476 309.149 301.476C310.733 301.476 311.615 302.34 311.615 303.636V303.942C310.895 303.78 309.977 303.672 309.221 303.672C307.367 303.672 305.315 304.356 305.315 306.588C305.315 308.406 306.827 309.216 308.357 309.216C309.761 309.216 310.859 308.784 311.723 308.064C311.975 308.82 312.605 309.108 313.307 309.108C313.667 309.108 314.045 309.036 314.387 308.91V307.74C314.171 307.812 313.937 307.866 313.721 307.866C313.343 307.866 313.055 307.722 313.055 307.2ZM306.791 306.516C306.791 305.256 308.159 304.878 309.419 304.878C310.121 304.878 311.003 305.004 311.615 305.13V306.714C310.859 307.524 309.761 307.974 308.663 307.974C307.709 307.974 306.791 307.524 306.791 306.516ZM328.046 309L324.608 304.662L327.65 300.36H326.048L323.42 304.05H322.106V300.36H320.666V304.05H319.352L316.724 300.36H315.122L318.164 304.662L314.726 309H316.346L319.28 305.382H320.666V309H322.106V305.382H323.492L326.426 309H328.046ZM333.138 307.362L329.88 300.36H328.35L332.454 309.018L332.13 309.81C331.572 311.214 330.87 311.916 329.898 311.916C329.646 311.916 329.394 311.88 329.142 311.808V313.05C329.466 313.14 329.772 313.176 330.078 313.176C331.338 313.176 332.436 312.384 333.336 310.296L337.584 300.36H336.054L333.138 307.362Z" fill="#37376D"/>
<circle cx="354.5" cy="303.5" r="10.5" fill="#AFAFBD"/>
<path fill-rule="evenodd" clip-rule="evenodd" d="M354.5 302.793L351.672 299.964L350.965 300.671L353.793 303.5L350.965 306.329L351.672 307.036L354.5 304.207L357.329 307.035L358.036 306.328L355.208 303.5L358.036 300.672L357.329 299.965L354.5 302.793Z" fill="#37376D"/>
<path d="M380 303.5C380 295.492 386.492 289 394.5 289H505.5C513.508 289 520 295.492 520 303.5C520 311.508 513.508 318 505.5 318H394.5C386.492 318 380 311.508 380 303.5Z" fill="#DDDDE6"/>
<path d="M393.81 302.79C393.792 306.984 397.248 309.216 400.416 309.216C401.766 309.216 403.026 308.91 404.07 308.37V306.858C403.206 307.47 402.036 307.776 400.74 307.776C398.13 307.776 395.322 306.156 395.34 302.79C395.358 299.19 398.076 297.624 400.686 297.624C401.874 297.624 403.062 297.93 403.98 298.542V297.03C402.918 296.472 401.694 296.184 400.434 296.184C397.158 296.184 393.828 298.416 393.81 302.79ZM409.253 307.362L405.995 300.36H404.465L408.569 309.018L408.245 309.81C407.687 311.214 406.985 311.916 406.013 311.916C405.761 311.916 405.509 311.88 405.257 311.808V313.05C405.581 313.14 405.887 313.176 406.193 313.176C407.453 313.176 408.551 312.384 409.451 310.296L413.699 300.36H412.169L409.253 307.362ZM416.743 309V301.692H421.747V309H423.187V300.36H415.303V309H416.743ZM425.256 304.68C425.256 307.758 427.488 309.216 430.044 309.216C431.178 309.216 432.312 309 433.104 308.586V307.182C432.366 307.596 431.322 307.884 430.26 307.884C428.514 307.884 426.876 307.128 426.696 305.31H433.572C434.112 302.862 432.888 300.144 429.558 300.144C427.506 300.144 425.256 301.656 425.256 304.68ZM432.294 304.05H426.696C426.804 302.358 428.172 301.476 429.648 301.476C431.844 301.476 432.42 303.132 432.294 304.05ZM436.972 301.8V300.36H435.676V312.96H437.116V307.704C437.746 308.442 438.808 309.216 440.464 309.216C442.93 309.216 444.784 307.272 444.784 304.68C444.784 302.088 442.93 300.144 440.464 300.144C438.808 300.144 437.746 300.918 436.972 301.8ZM443.344 304.68C443.344 306.66 441.976 307.884 440.302 307.884C438.754 307.884 437.602 306.876 437.116 305.76V303.6C437.602 302.484 438.754 301.476 440.302 301.476C441.976 301.476 443.344 302.7 443.344 304.68ZM460.23 311.34V307.668H458.952V300.36H457.512V307.668H452.778V300.36H451.338V309H458.826V311.34H460.23ZM463.928 309H462.346V299.35H463.928V309ZM462.223 296.739C462.223 296.388 462.311 296.133 462.486 295.975C462.668 295.816 462.891 295.737 463.154 295.737C463.4 295.737 463.614 295.816 463.796 295.975C463.983 296.133 464.077 296.388 464.077 296.739C464.077 297.085 463.983 297.34 463.796 297.504C463.614 297.668 463.4 297.75 463.154 297.75C462.891 297.75 462.668 297.668 462.486 297.504C462.311 297.34 462.223 297.085 462.223 296.739ZM468.229 309V305.346H473.233V309H474.673V300.36H473.233V304.014H468.229V300.36H466.789V309H468.229ZM484.356 307.2V303.816C484.356 301.404 482.898 300.144 480.594 300.144C479.172 300.144 477.984 300.486 477.3 300.72V302.124C478.056 301.8 479.118 301.476 480.45 301.476C482.034 301.476 482.916 302.34 482.916 303.636V303.942C482.196 303.78 481.278 303.672 480.522 303.672C478.668 303.672 476.616 304.356 476.616 306.588C476.616 308.406 478.128 309.216 479.658 309.216C481.062 309.216 482.16 308.784 483.024 308.064C483.276 308.82 483.906 309.108 484.608 309.108C484.968 309.108 485.346 309.036 485.688 308.91V307.74C485.472 307.812 485.238 307.866 485.022 307.866C484.644 307.866 484.356 307.722 484.356 307.2ZM478.092 306.516C478.092 305.256 479.46 304.878 480.72 304.878C481.422 304.878 482.304 305.004 482.916 305.13V306.714C482.16 307.524 481.062 307.974 479.964 307.974C479.01 307.974 478.092 307.524 478.092 306.516Z" fill="#37376D"/>
<circle cx="504.5" cy="303.5" r="10.5" fill="#AFAFBD"/>
<path fill-rule="evenodd" clip-rule="evenodd" d="M504.5 302.793L501.672 299.964L500.965 300.671L503.793 303.5L500.965 306.329L501.672 307.036L504.5 304.207L507.329 307.035L508.036 306.328L505.208 303.5L508.036 300.672L507.329 299.965L504.5 302.793Z" fill="#37376D"/>
<defs>
<filter id="filter0_d_1713_314" x="0" y="0" width="719" height="423" filterUnits="userSpaceOnUse" color-interpolation-filters="sRGB">
<feFlood flood-opacity="0" result="BackgroundImageFix"/>
<feColorMatrix in="SourceAlpha" type="matrix" values="0 0 0 0 0 0 0 0 0 0 0 0 0 0 0 0 0 0 127 0" result="hardAlpha"/>
<feOffset dy="4"/>
<feGaussianBlur stdDeviation="25"/>
<feComposite in2="hardAlpha" operator="out"/>
<feColorMatrix type="matrix" values="0 0 0 0 0 0 0 0 0 0 0 0 0 0 0 0 0 0 0.1 0"/>
<feBlend mode="normal" in2="BackgroundImageFix" result="effect1_dropShadow_1713_314"/>
<feBlend mode="normal" in="SourceGraphic" in2="effect1_dropShadow_1713_314" result="shape"/>
</filter>
</defs>
</svg>
