<svg width="465" height="216" viewBox="0 0 465 216" fill="none" xmlns="http://www.w3.org/2000/svg">
<path d="M0.5 4.99999C0.5 2.51471 2.51472 0.5 5 0.5H460C462.485 0.5 464.5 2.51472 464.5 5V211C464.5 213.485 462.485 215.5 460 215.5H5C2.51471 215.5 0.5 213.485 0.5 211V4.99999Z" fill="white" stroke="#E6E6E6"/>
<path d="M0 5C0 2.23858 2.23858 0 5 0H460C462.761 0 465 2.23858 465 5V36H0V5Z" fill="#0FA7F0"/>
<path d="M22.392 19.96C22.392 18.28 21.32 17.4 20.152 17.08C21.24 16.712 21.944 15.864 21.944 14.632C21.944 12.568 20.152 11.576 17.528 11.576C16.36 11.576 15.112 11.768 13.816 12.312V14.6C15.176 13.944 16.312 13.72 17.32 13.736C18.744 13.736 19.544 14.12 19.544 15.016C19.544 15.8 18.856 16.184 17.8 16.184H15.448L15.432 18.296H17.96C19.048 18.296 19.976 18.568 19.976 19.608C19.976 20.76 18.808 21.064 17.592 21.064C16.408 21.08 15.096 20.92 13.624 20.2V22.504C15.112 23.032 16.44 23.224 17.768 23.224C19.992 23.224 22.392 22.456 22.392 19.96ZM30.7924 21.016V18.568C30.7924 16.04 29.3204 15.096 27.0164 15.096C25.8324 15.096 24.6644 15.4 24.0404 15.608V17.528C24.7604 17.24 25.7044 16.952 26.7604 16.952C27.9604 16.952 28.5684 17.48 28.5684 18.248V18.52C28.0244 18.392 27.3524 18.312 26.7444 18.312C25.2084 18.312 23.3684 18.92 23.3684 20.872C23.3684 22.392 24.6164 23.224 26.0564 23.224C27.1924 23.224 28.0724 22.872 28.8244 22.28C29.1444 22.856 29.7364 23.144 30.5204 23.144C30.9524 23.144 31.4004 23.048 31.7524 22.92V21.464C31.6084 21.512 31.4644 21.528 31.3364 21.528C31.0484 21.528 30.7924 21.416 30.7924 21.016ZM27.2564 19.64C27.7204 19.64 28.2324 19.736 28.5684 19.816V21.016C28.0564 21.464 27.4644 21.64 26.8404 21.64C26.1684 21.64 25.6404 21.272 25.6404 20.696C25.6404 19.912 26.4404 19.64 27.2564 19.64ZM37.648 23C39.584 23 40.224 22.008 40.224 20.92C40.224 19.992 39.696 19.384 38.864 19.112C39.616 18.824 40.048 18.232 40.048 17.352C40.048 16.312 39.344 15.32 37.52 15.32H32.944V23H37.648ZM35.168 19.816H36.992C37.536 19.816 38.016 20.008 38.016 20.664C38.016 21.272 37.552 21.48 36.992 21.48H35.168V19.816ZM35.152 16.84H36.832C37.344 16.84 37.808 17.032 37.808 17.672C37.808 18.264 37.376 18.472 36.848 18.472H35.152V16.84ZM48.5893 21.016V18.568C48.5893 16.04 47.1173 15.096 44.8133 15.096C43.6293 15.096 42.4613 15.4 41.8372 15.608V17.528C42.5573 17.24 43.5013 16.952 44.5573 16.952C45.7573 16.952 46.3653 17.48 46.3653 18.248V18.52C45.8213 18.392 45.1493 18.312 44.5413 18.312C43.0053 18.312 41.1653 18.92 41.1653 20.872C41.1653 22.392 42.4133 23.224 43.8533 23.224C44.9893 23.224 45.8693 22.872 46.6213 22.28C46.9413 22.856 47.5333 23.144 48.3173 23.144C48.7493 23.144 49.1973 23.048 49.5493 22.92V21.464C49.4053 21.512 49.2613 21.528 49.1333 21.528C48.8453 21.528 48.5893 21.416 48.5893 21.016ZM45.0533 19.64C45.5173 19.64 46.0293 19.736 46.3653 19.816V21.016C45.8533 21.464 45.2613 21.64 44.6373 21.64C43.9653 21.64 43.4373 21.272 43.4373 20.696C43.4373 19.912 44.2373 19.64 45.0533 19.64ZM52.9649 23V20.088H56.0689V23H58.2929V15.32H56.0689V18.232H52.9649V15.32H50.7409V23H52.9649ZM64.1464 23V17.192H66.5944V15.32H59.4904V17.192H61.9384V23H64.1464ZM74.5424 21.016V18.568C74.5424 16.04 73.0704 15.096 70.7664 15.096C69.5824 15.096 68.4144 15.4 67.7904 15.608V17.528C68.5104 17.24 69.4544 16.952 70.5104 16.952C71.7104 16.952 72.3184 17.48 72.3184 18.248V18.52C71.7744 18.392 71.1024 18.312 70.4944 18.312C68.9584 18.312 67.1184 18.92 67.1184 20.872C67.1184 22.392 68.3664 23.224 69.8064 23.224C70.9424 23.224 71.8224 22.872 72.5744 22.28C72.8944 22.856 73.4864 23.144 74.2704 23.144C74.7024 23.144 75.1504 23.048 75.5024 22.92V21.464C75.3584 21.512 75.2144 21.528 75.0864 21.528C74.7984 21.528 74.5424 21.416 74.5424 21.016ZM71.0064 19.64C71.4704 19.64 71.9824 19.736 72.3184 19.816V21.016C71.8064 21.464 71.2144 21.64 70.5904 21.64C69.9184 21.64 69.3904 21.272 69.3904 20.696C69.3904 19.912 70.1904 19.64 71.0064 19.64ZM88.31 23L85.654 19.144L88.086 15.32H85.718L83.878 18.376H83.158V15.32H80.934V18.376H80.214L78.374 15.32H76.006L78.438 19.144L75.782 23H78.166L80.07 20.136H80.934V23H83.158V20.136H84.022L85.926 23H88.31ZM88.4808 19.16C88.4808 21.832 90.4968 23.224 92.9288 23.224C94.0808 23.224 95.0248 23.048 95.7448 22.744V21C95.0888 21.288 94.3048 21.464 93.4248 21.464C92.1608 21.464 90.9768 21 90.7208 19.88H96.1288C96.6408 17.608 95.6168 15.096 92.4328 15.096C90.7048 15.096 88.4808 16.264 88.4808 19.16ZM94.1288 18.44H90.7048C90.7368 17.384 91.5688 16.792 92.5128 16.792C93.9048 16.792 94.2088 17.912 94.1288 18.44ZM99.8555 23V20.088H102.96V23H105.184V15.32H102.96V18.232H99.8555V15.32H97.6315V23H99.8555ZM109.293 23V20.088H112.397V23H114.621V15.32H112.397V18.232H109.293V15.32H107.069V23H109.293ZM118.331 23L120.043 20.712H121.291V23H123.515V15.32H119.355C117.339 15.32 116.283 16.568 116.283 18.008C116.283 19.048 116.811 19.976 117.851 20.424L115.835 23H118.331ZM118.539 18.072C118.539 17.432 119.003 17.08 119.803 17.08H121.291V19.048H119.803C119.003 19.048 118.539 18.696 118.539 18.072ZM131.168 23V19.96H132.064L134.272 23H136.768L133.904 19.112L136.544 15.32H134.048L132.096 18.184H131.168V15.32H128.944V23H131.168ZM136.871 19.16C136.871 21.848 138.887 23.224 141.111 23.224C143.351 23.224 145.351 21.848 145.351 19.16C145.351 16.472 143.351 15.096 141.111 15.096C138.887 15.096 136.871 16.472 136.871 19.16ZM143.095 19.16C143.095 20.344 142.391 21.24 141.111 21.24C139.847 21.24 139.143 20.344 139.143 19.16C139.143 17.976 139.847 17.08 141.111 17.08C142.391 17.08 143.095 17.976 143.095 19.16ZM149.027 23V20.088H152.131V23H154.355V15.32H152.131V18.232H149.027V15.32H146.803V23H149.027ZM162.337 26.52V23.224C164.881 23.128 166.769 21.608 166.769 19.16C166.769 16.712 164.881 15.192 162.337 15.096V11.8H160.225V15.096C157.681 15.192 155.793 16.712 155.793 19.16C155.793 21.608 157.681 23.128 160.225 23.224V26.52H162.337ZM158.017 19.16C158.017 18.008 158.753 17.032 160.241 16.952V21.368C158.753 21.288 158.017 20.312 158.017 19.16ZM162.353 16.952C163.841 17.032 164.577 18.008 164.577 19.16C164.577 20.312 163.841 21.288 162.353 21.368V16.952ZM168.414 12.0078C168.414 11.2318 168.846 10.8438 169.711 10.8438C170.576 10.8438 171.008 11.2318 171.008 12.0078C171.008 12.3776 170.898 12.6667 170.68 12.875C170.466 13.0781 170.143 13.1797 169.711 13.1797C168.846 13.1797 168.414 12.7891 168.414 12.0078ZM170.898 23H168.516V14.2656H170.898V23ZM175.324 23V17.192H178.956V15.32H173.1V23H175.324ZM183.843 20.504L181.603 15.32H179.251L182.883 23.112L182.867 23.144C182.451 24.28 181.843 24.824 181.043 24.824C180.739 24.824 180.435 24.776 180.131 24.712V26.552C180.531 26.648 180.931 26.728 181.331 26.728C182.579 26.728 183.779 26.072 184.643 23.928L188.051 15.32H185.747L183.843 20.504ZM191.131 16.44V15.32H189.163V26.52H191.387V22.184C191.883 22.728 192.699 23.224 193.915 23.224C196.347 23.224 197.659 21.256 197.659 19.16C197.659 17.064 196.347 15.096 193.915 15.096C192.491 15.096 191.611 15.752 191.131 16.44ZM195.387 19.16C195.387 20.36 194.635 21.352 193.371 21.352C192.395 21.352 191.675 20.744 191.371 20.072V18.248C191.675 17.576 192.395 16.968 193.371 16.968C194.635 16.968 195.387 17.96 195.387 19.16ZM205.98 21.016V18.568C205.98 16.04 204.508 15.096 202.204 15.096C201.02 15.096 199.852 15.4 199.228 15.608V17.528C199.948 17.24 200.892 16.952 201.948 16.952C203.148 16.952 203.756 17.48 203.756 18.248V18.52C203.212 18.392 202.54 18.312 201.932 18.312C200.396 18.312 198.556 18.92 198.556 20.872C198.556 22.392 199.804 23.224 201.244 23.224C202.38 23.224 203.26 22.872 204.012 22.28C204.332 22.856 204.924 23.144 205.708 23.144C206.14 23.144 206.588 23.048 206.94 22.92V21.464C206.796 21.512 206.652 21.528 206.524 21.528C206.236 21.528 205.98 21.416 205.98 21.016ZM202.444 19.64C202.908 19.64 203.42 19.736 203.756 19.816V21.016C203.244 21.464 202.652 21.64 202.028 21.64C201.356 21.64 200.828 21.272 200.828 20.696C200.828 19.912 201.628 19.64 202.444 19.64ZM216.756 25.032V21.176H215.604V15.32H213.38V21.128H210.356V15.32H208.132V23H214.708V25.032H216.756ZM218.352 12.0078C218.352 11.2318 218.784 10.8438 219.648 10.8438C220.513 10.8438 220.945 11.2318 220.945 12.0078C220.945 12.3776 220.836 12.6667 220.617 12.875C220.404 13.0781 220.081 13.1797 219.648 13.1797C218.784 13.1797 218.352 12.7891 218.352 12.0078ZM220.836 23H218.453V14.2656H220.836V23ZM229.278 13.752V12.088C228.43 12.552 227.646 12.696 226.83 12.696C226.014 12.696 225.23 12.552 224.382 12.088V13.752C225.086 14.184 225.838 14.392 226.83 14.392C227.822 14.392 228.574 14.184 229.278 13.752ZM224.974 23L228.398 18.68V23H230.606V15.32H228.686L225.262 19.64V15.32H223.038V23H224.974Z" fill="white"/>
<line x1="23" y1="162.5" x2="443" y2="162.5" stroke="#E6E6E6"/>
<path d="M26.6 115V110.424H28.408L31.464 115H34.12L30.28 109.256L33.912 103.8H31.24L28.408 108.248H26.6V103.8H24.2V115H26.6ZM33.9495 111.16C33.9495 113.848 35.9655 115.224 38.1895 115.224C40.4295 115.224 42.4295 113.848 42.4295 111.16C42.4295 108.472 40.4295 107.096 38.1895 107.096C35.9655 107.096 33.9495 108.472 33.9495 111.16ZM40.1735 111.16C40.1735 112.344 39.4695 113.24 38.1895 113.24C36.9255 113.24 36.2215 112.344 36.2215 111.16C36.2215 109.976 36.9255 109.08 38.1895 109.08C39.4695 109.08 40.1735 109.976 40.1735 111.16ZM46.1055 115V112.088H49.2095V115H51.4335V107.32H49.2095V110.232H46.1055V107.32H43.8815V115H46.1055ZM59.415 118.52V115.224C61.959 115.128 63.847 113.608 63.847 111.16C63.847 108.712 61.959 107.192 59.415 107.096V103.8H57.303V107.096C54.759 107.192 52.871 108.712 52.871 111.16C52.871 113.608 54.759 115.128 57.303 115.224V118.52H59.415ZM55.095 111.16C55.095 110.008 55.831 109.032 57.319 108.952V113.368C55.831 113.288 55.095 112.312 55.095 111.16ZM59.431 108.952C60.919 109.032 61.655 110.008 61.655 111.16C61.655 112.312 60.919 113.288 59.431 113.368V108.952ZM65.4922 104.008C65.4922 103.232 65.9245 102.844 66.7891 102.844C67.6536 102.844 68.0859 103.232 68.0859 104.008C68.0859 104.378 67.9766 104.667 67.7578 104.875C67.5443 105.078 67.2214 105.18 66.7891 105.18C65.9245 105.18 65.4922 104.789 65.4922 104.008ZM67.9766 115H65.5938V106.266H67.9766V115ZM72.4024 115V109.192H76.0344V107.32H70.1784V115H72.4024ZM80.9213 112.504L78.6813 107.32H76.3293L79.9613 115.112L79.9453 115.144C79.5293 116.28 78.9213 116.824 78.1213 116.824C77.8173 116.824 77.5133 116.776 77.2093 116.712V118.552C77.6093 118.648 78.0093 118.728 78.4093 118.728C79.6573 118.728 80.8573 118.072 81.7213 115.928L85.1293 107.32H82.8253L80.9213 112.504ZM88.2089 108.44V107.32H86.2409V118.52H88.4649V114.184C88.9609 114.728 89.7769 115.224 90.9929 115.224C93.4249 115.224 94.7369 113.256 94.7369 111.16C94.7369 109.064 93.4249 107.096 90.9929 107.096C89.5689 107.096 88.6889 107.752 88.2089 108.44ZM92.4649 111.16C92.4649 112.36 91.7129 113.352 90.4489 113.352C89.4729 113.352 88.7529 112.744 88.4489 112.072V110.248C88.7529 109.576 89.4729 108.968 90.4489 108.968C91.7129 108.968 92.4649 109.96 92.4649 111.16ZM103.058 113.016V110.568C103.058 108.04 101.586 107.096 99.282 107.096C98.098 107.096 96.93 107.4 96.306 107.608V109.528C97.026 109.24 97.97 108.952 99.026 108.952C100.226 108.952 100.834 109.48 100.834 110.248V110.52C100.29 110.392 99.618 110.312 99.01 110.312C97.474 110.312 95.634 110.92 95.634 112.872C95.634 114.392 96.882 115.224 98.322 115.224C99.458 115.224 100.338 114.872 101.09 114.28C101.41 114.856 102.002 115.144 102.786 115.144C103.218 115.144 103.666 115.048 104.018 114.92V113.464C103.874 113.512 103.73 113.528 103.602 113.528C103.314 113.528 103.058 113.416 103.058 113.016ZM99.522 111.64C99.986 111.64 100.498 111.736 100.834 111.816V113.016C100.322 113.464 99.73 113.64 99.106 113.64C98.434 113.64 97.906 113.272 97.906 112.696C97.906 111.912 98.706 111.64 99.522 111.64ZM113.834 117.032V113.176H112.682V107.32H110.458V113.128H107.434V107.32H105.21V115H111.786V117.032H113.834ZM115.43 104.008C115.43 103.232 115.862 102.844 116.727 102.844C117.591 102.844 118.023 103.232 118.023 104.008C118.023 104.378 117.914 104.667 117.695 104.875C117.482 105.078 117.159 105.18 116.727 105.18C115.862 105.18 115.43 104.789 115.43 104.008ZM117.914 115H115.531V106.266H117.914V115ZM122.805 115H120.422V106.266H122.805V115ZM118.961 104.023C118.961 103.685 119.057 103.424 119.25 103.242C119.448 103.06 119.714 102.969 120.047 102.969C120.391 102.969 120.659 103.065 120.852 103.258C121.049 103.451 121.148 103.706 121.148 104.023C121.148 104.336 121.049 104.589 120.852 104.781C120.654 104.969 120.385 105.062 120.047 105.062C119.714 105.062 119.448 104.971 119.25 104.789C119.057 104.607 118.961 104.352 118.961 104.023ZM122.109 104.023C122.109 103.659 122.214 103.393 122.422 103.227C122.635 103.055 122.898 102.969 123.211 102.969C123.549 102.969 123.818 103.062 124.016 103.25C124.219 103.438 124.32 103.695 124.32 104.023C124.32 104.341 124.219 104.594 124.016 104.781C123.812 104.969 123.544 105.062 123.211 105.062C122.898 105.062 122.635 104.979 122.422 104.812C122.214 104.641 122.109 104.378 122.109 104.023Z" fill="#454545"/>
<path d="M82 80H244" stroke="#E6E6E6"/>
<path d="M315 80H443" stroke="#E6E6E6"/>
<path d="M25.816 70V60.08H32.264V70H33.608V58.8H24.472V70H25.816ZM35.5623 66.16C35.5623 68.784 37.5783 70.192 39.6583 70.192C41.7543 70.192 43.7543 68.784 43.7543 66.16C43.7543 63.536 41.7543 62.128 39.6583 62.128C37.5783 62.128 35.5623 63.536 35.5623 66.16ZM42.4743 66.16C42.4743 67.936 41.2263 68.976 39.6583 68.976C38.0903 68.976 36.8423 67.936 36.8423 66.16C36.8423 64.384 38.0903 63.344 39.6583 63.344C41.2263 63.344 42.4743 64.384 42.4743 66.16ZM56.3103 70V62.32H55.0303V68.816H51.5903V62.32H50.3103V68.816H46.8703V62.32H45.5903V70H56.3103ZM61.916 68.544L59.02 62.32H57.66L61.308 70.016L61.02 70.72C60.524 71.968 59.9 72.592 59.036 72.592C58.812 72.592 58.588 72.56 58.364 72.496V73.6C58.652 73.68 58.924 73.712 59.196 73.712C60.316 73.712 61.292 73.008 62.092 71.152L65.868 62.32H64.508L61.916 68.544ZM68.5734 70V66.704H70.0774L72.8934 70H74.3974L71.1334 66.144L74.0454 62.32H72.5574L70.1254 65.52H68.5734V62.32H67.2934V70H68.5734Z" fill="#454545"/>
<path d="M267.224 58.8H276.44V60.08H272.504V70H271.16V60.08H267.224V58.8ZM275.484 66.16C275.484 64.9013 275.868 63.9147 276.636 63.2C277.415 62.4853 278.305 62.128 279.308 62.128C280.247 62.128 281.02 62.3627 281.628 62.832C282.247 63.3013 282.652 63.8827 282.844 64.576C283.036 65.2587 283.047 65.9733 282.876 66.72H276.764C276.839 67.4773 277.175 68.048 277.772 68.432C278.369 68.816 279.089 69.008 279.932 69.008C280.871 69.008 281.713 68.8 282.46 68.384V69.632C281.745 70.0053 280.839 70.192 279.74 70.192C278.524 70.192 277.511 69.8453 276.7 69.152C275.889 68.4587 275.484 67.4613 275.484 66.16ZM281.74 65.6C281.772 65.376 281.756 65.1413 281.692 64.896C281.628 64.6507 281.511 64.4053 281.34 64.16C281.18 63.9147 280.929 63.712 280.588 63.552C280.247 63.392 279.847 63.312 279.388 63.312C278.695 63.312 278.092 63.5147 277.58 63.92C277.079 64.3253 276.807 64.8853 276.764 65.6H281.74ZM286.027 70H284.747V62.32H290.363V63.504H286.027V70ZM292.913 70H291.825V62.32H293.105V67.936L297.809 62.32H298.897V70H297.617V64.384L292.913 70Z" fill="#454545"/>
<path d="M114.488 70V58.8H113.144V68.72H108.152V58.8H106.808V68.72H101.816V58.8H100.472V70H114.488ZM120.26 68.544L117.364 62.32H116.004L119.652 70.016L119.364 70.72C118.868 71.968 118.244 72.592 117.38 72.592C117.156 72.592 116.932 72.56 116.708 72.496V73.6C116.996 73.68 117.268 73.712 117.54 73.712C118.66 73.712 119.636 73.008 120.436 71.152L124.212 62.32H122.852L120.26 68.544ZM126.917 70V66.704H128.421L131.237 70H132.741L129.477 66.144L132.389 62.32H130.901L128.469 65.52H126.917V62.32H125.637V70H126.917ZM140.19 68.4V65.392C140.19 63.248 138.894 62.128 136.846 62.128C135.582 62.128 134.526 62.432 133.918 62.64V63.888C134.59 63.6 135.534 63.312 136.718 63.312C138.126 63.312 138.91 64.08 138.91 65.232V65.504C138.27 65.36 137.454 65.264 136.782 65.264C135.134 65.264 133.31 65.872 133.31 67.856C133.31 69.472 134.654 70.192 136.014 70.192C137.262 70.192 138.238 69.808 139.006 69.168C139.23 69.84 139.79 70.096 140.414 70.096C140.734 70.096 141.07 70.032 141.374 69.92V68.88C141.182 68.944 140.974 68.992 140.782 68.992C140.446 68.992 140.19 68.864 140.19 68.4ZM134.622 67.792C134.622 66.672 135.838 66.336 136.958 66.336C137.582 66.336 138.366 66.448 138.91 66.56V67.968C138.238 68.688 137.262 69.088 136.286 69.088C135.438 69.088 134.622 68.688 134.622 67.792ZM145.587 70V63.504H148.403V62.32H141.475V63.504H144.307V70H145.587ZM150.944 70L155.648 64.384V70H156.928V62.32H155.84L151.136 67.936V62.32H149.856V70H150.944ZM160.669 69.328C160.669 68.8 160.285 68.528 159.837 68.528C159.389 68.528 158.989 68.8 158.989 69.328C158.989 69.872 159.389 70.144 159.837 70.144C160.285 70.144 160.669 69.872 160.669 69.328ZM164.107 69.328C164.107 68.8 163.723 68.528 163.275 68.528C162.827 68.528 162.427 68.8 162.427 69.328C162.427 69.872 162.827 70.144 163.275 70.144C163.723 70.144 164.107 69.872 164.107 69.328ZM167.544 69.328C167.544 68.8 167.16 68.528 166.712 68.528C166.264 68.528 165.864 68.8 165.864 69.328C165.864 69.872 166.264 70.144 166.712 70.144C167.16 70.144 167.544 69.872 167.544 69.328Z" fill="#9F9F9F"/>
<path d="M316.472 58.8V70H321.192C322.824 70 325.32 69.472 325.32 66.928C325.32 65.104 324.008 64.368 323.08 64.112C323.96 63.856 324.872 63.056 324.872 61.632C324.872 59.744 323.352 58.8 321.064 58.8H316.472ZM323.96 66.784C323.96 68.624 322.328 68.72 320.92 68.72H317.816V64.848H321.288C322.36 64.848 323.96 65.04 323.96 66.784ZM323.512 61.824C323.512 63.104 322.488 63.568 321.32 63.568H317.816V60.08H320.952C322.536 60.08 323.512 60.496 323.512 61.824ZM328.256 70L332.96 64.384V70H334.24V62.32H333.152L328.448 67.936V62.32H327.168V70H328.256ZM344.11 66.384C344.11 64.096 342.334 62.64 340.334 62.64C339.134 62.64 338.046 63.232 337.502 64.08C337.822 63.104 338.254 62.064 339.326 61.424C341.086 60.4 342.318 60.736 343.422 59.952V58.608C342.302 59.696 340.782 59.12 338.574 60.48C337.198 61.344 336.206 63.12 336.206 65.696C336.206 68.608 337.87 70.192 340.19 70.192C342.51 70.192 344.11 68.784 344.11 66.384ZM337.486 66.416C337.486 65.12 338.558 63.856 340.158 63.856C341.838 63.856 342.83 64.96 342.83 66.416C342.83 67.872 341.838 68.976 340.158 68.976C338.542 68.976 337.486 67.872 337.486 66.416ZM347.117 63.6V62.32H345.965V73.52H347.245V68.848C347.805 69.504 348.749 70.192 350.221 70.192C352.413 70.192 354.061 68.464 354.061 66.16C354.061 63.856 352.413 62.128 350.221 62.128C348.749 62.128 347.805 62.816 347.117 63.6ZM352.781 66.16C352.781 67.92 351.565 69.008 350.077 69.008C348.701 69.008 347.677 68.112 347.245 67.12V65.2C347.677 64.208 348.701 63.312 350.077 63.312C351.565 63.312 352.781 64.4 352.781 66.16ZM362.143 68.4V65.392C362.143 63.248 360.847 62.128 358.799 62.128C357.535 62.128 356.479 62.432 355.871 62.64V63.888C356.543 63.6 357.487 63.312 358.671 63.312C360.079 63.312 360.863 64.08 360.863 65.232V65.504C360.223 65.36 359.407 65.264 358.735 65.264C357.087 65.264 355.263 65.872 355.263 67.856C355.263 69.472 356.607 70.192 357.967 70.192C359.215 70.192 360.191 69.808 360.959 69.168C361.183 69.84 361.743 70.096 362.367 70.096C362.687 70.096 363.023 70.032 363.327 69.92V68.88C363.135 68.944 362.927 68.992 362.735 68.992C362.399 68.992 362.143 68.864 362.143 68.4ZM356.575 67.792C356.575 66.672 357.791 66.336 358.911 66.336C359.535 66.336 360.319 66.448 360.863 66.56V67.968C360.191 68.688 359.215 69.088 358.239 69.088C357.391 69.088 356.575 68.688 356.575 67.792ZM367.54 70V63.504H370.356V62.32H363.428V63.504H366.26V70H367.54ZM372.897 70L377.601 64.384V70H378.881V62.32H377.793L373.089 67.936V62.32H371.809V70H372.897ZM382.623 69.328C382.623 68.8 382.239 68.528 381.791 68.528C381.343 68.528 380.943 68.8 380.943 69.328C380.943 69.872 381.343 70.144 381.791 70.144C382.239 70.144 382.623 69.872 382.623 69.328ZM386.06 69.328C386.06 68.8 385.676 68.528 385.228 68.528C384.78 68.528 384.38 68.8 384.38 69.328C384.38 69.872 384.78 70.144 385.228 70.144C385.676 70.144 386.06 69.872 386.06 69.328ZM389.498 69.328C389.498 68.8 389.114 68.528 388.666 68.528C388.218 68.528 387.818 68.8 387.818 69.328C387.818 69.872 388.218 70.144 388.666 70.144C389.114 70.144 389.498 69.872 389.498 69.328Z" fill="#9F9F9F"/>
<path d="M381.111 111.96C381.111 110.28 380.039 109.4 378.871 109.08C379.959 108.712 380.663 107.864 380.663 106.632C380.663 104.568 378.871 103.576 376.247 103.576C375.079 103.576 373.831 103.768 372.535 104.312V106.6C373.895 105.944 375.031 105.72 376.039 105.736C377.463 105.736 378.263 106.12 378.263 107.016C378.263 107.8 377.575 108.184 376.519 108.184H374.167L374.151 110.296H376.679C377.767 110.296 378.695 110.568 378.695 111.608C378.695 112.76 377.527 113.064 376.311 113.064C375.127 113.08 373.815 112.92 372.343 112.2V114.504C373.831 115.032 375.159 115.224 376.487 115.224C378.711 115.224 381.111 114.456 381.111 111.96ZM389.511 113.016V110.568C389.511 108.04 388.039 107.096 385.735 107.096C384.551 107.096 383.383 107.4 382.759 107.608V109.528C383.479 109.24 384.423 108.952 385.479 108.952C386.679 108.952 387.287 109.48 387.287 110.248V110.52C386.743 110.392 386.071 110.312 385.463 110.312C383.927 110.312 382.087 110.92 382.087 112.872C382.087 114.392 383.335 115.224 384.775 115.224C385.911 115.224 386.791 114.872 387.543 114.28C387.863 114.856 388.455 115.144 389.239 115.144C389.671 115.144 390.119 115.048 390.471 114.92V113.464C390.327 113.512 390.183 113.528 390.055 113.528C389.767 113.528 389.511 113.416 389.511 113.016ZM385.975 111.64C386.439 111.64 386.951 111.736 387.287 111.816V113.016C386.775 113.464 386.183 113.64 385.559 113.64C384.887 113.64 384.359 113.272 384.359 112.696C384.359 111.912 385.159 111.64 385.975 111.64ZM393.887 115V109.192H397.519V107.32H391.663V115H393.887ZM405.449 113.016V110.568C405.449 108.04 403.977 107.096 401.673 107.096C400.489 107.096 399.321 107.4 398.697 107.608V109.528C399.417 109.24 400.361 108.952 401.417 108.952C402.617 108.952 403.225 109.48 403.225 110.248V110.52C402.681 110.392 402.009 110.312 401.401 110.312C399.865 110.312 398.025 110.92 398.025 112.872C398.025 114.392 399.273 115.224 400.713 115.224C401.849 115.224 402.729 114.872 403.481 114.28C403.801 114.856 404.393 115.144 405.177 115.144C405.609 115.144 406.057 115.048 406.409 114.92V113.464C406.265 113.512 406.121 113.528 405.993 113.528C405.705 113.528 405.449 113.416 405.449 113.016ZM401.913 111.64C402.377 111.64 402.889 111.736 403.225 111.816V113.016C402.713 113.464 402.121 113.64 401.497 113.64C400.825 113.64 400.297 113.272 400.297 112.696C400.297 111.912 401.097 111.64 401.913 111.64ZM411.008 109.08H412.976V115H415.2V107.32H408.96C408.816 110.76 408.544 113.272 407.328 113.272C407.184 113.272 407.024 113.24 406.864 113.176V114.936C407.312 115.096 407.728 115.16 408.08 115.16C410.192 115.16 410.784 112.536 411.008 109.08ZM421.085 115C423.101 115 424.189 113.832 424.189 112.36C424.189 110.888 423.101 109.72 421.085 109.72H419.309V107.32H417.085V115H421.085ZM419.293 111.32H420.541C421.421 111.32 421.901 111.704 421.901 112.36C421.901 113.016 421.421 113.4 420.541 113.4H419.293V111.32ZM427.715 115V112.088H430.819V115H433.043V107.32H430.819V110.232H427.715V107.32H425.491V115H427.715ZM441.792 113.016V110.568C441.792 108.04 440.32 107.096 438.016 107.096C436.832 107.096 435.664 107.4 435.04 107.608V109.528C435.76 109.24 436.704 108.952 437.76 108.952C438.96 108.952 439.568 109.48 439.568 110.248V110.52C439.024 110.392 438.352 110.312 437.744 110.312C436.208 110.312 434.368 110.92 434.368 112.872C434.368 114.392 435.616 115.224 437.056 115.224C438.192 115.224 439.072 114.872 439.824 114.28C440.144 114.856 440.736 115.144 441.52 115.144C441.952 115.144 442.4 115.048 442.752 114.92V113.464C442.608 113.512 442.464 113.528 442.336 113.528C442.048 113.528 441.792 113.416 441.792 113.016ZM438.256 111.64C438.72 111.64 439.232 111.736 439.568 111.816V113.016C439.056 113.464 438.464 113.64 437.84 113.64C437.168 113.64 436.64 113.272 436.64 112.696C436.64 111.912 437.44 111.64 438.256 111.64Z" fill="#454545"/>
<path d="M24.568 148L25.72 145.296H31.752L32.904 148H34.344L29.48 136.8H27.992L23.112 148H24.568ZM28.552 138.608C28.616 138.464 28.664 138.336 28.728 138.176C28.792 138.336 28.84 138.464 28.904 138.608L31.224 144.048H26.248L28.552 138.608ZM36.9328 148V144.752H41.3808V148H42.6608V140.32H41.3808V143.568H36.9328V140.32H35.6528V148H36.9328ZM51.2678 146.4V143.392C51.2678 141.248 49.9718 140.128 47.9238 140.128C46.6598 140.128 45.6038 140.432 44.9958 140.64V141.888C45.6678 141.6 46.6118 141.312 47.7958 141.312C49.2038 141.312 49.9878 142.08 49.9878 143.232V143.504C49.3478 143.36 48.5318 143.264 47.8598 143.264C46.2118 143.264 44.3878 143.872 44.3878 145.856C44.3878 147.472 45.7318 148.192 47.0918 148.192C48.3398 148.192 49.3158 147.808 50.0838 147.168C50.3078 147.84 50.8678 148.096 51.4918 148.096C51.8118 148.096 52.1478 148.032 52.4518 147.92V146.88C52.2598 146.944 52.0518 146.992 51.8598 146.992C51.5238 146.992 51.2678 146.864 51.2678 146.4ZM45.6998 145.792C45.6998 144.672 46.9158 144.336 48.0358 144.336C48.6598 144.336 49.4438 144.448 49.9878 144.56V145.968C49.3158 146.688 48.3398 147.088 47.3638 147.088C46.5158 147.088 45.6998 146.688 45.6998 145.792ZM56.5446 141.504H59.6646V148H60.9446V140.32H55.2966C55.1526 144.448 54.7046 147.04 53.3446 147.04C53.1846 147.04 53.0086 147.008 52.8326 146.944V147.952C53.1686 148.08 53.4726 148.128 53.7606 148.128C55.7446 148.128 56.2886 145.44 56.5446 141.504ZM64.8906 148H63.4844V139.422H64.8906V148ZM63.375 137.102C63.375 136.789 63.4531 136.562 63.6094 136.422C63.7708 136.281 63.9688 136.211 64.2031 136.211C64.4219 136.211 64.612 136.281 64.7734 136.422C64.9401 136.562 65.0234 136.789 65.0234 137.102C65.0234 137.409 64.9401 137.635 64.7734 137.781C64.612 137.927 64.4219 138 64.2031 138C63.9688 138 63.7708 137.927 63.6094 137.781C63.4531 137.635 63.375 137.409 63.375 137.102ZM73.178 145.936C73.178 144.944 72.458 144.288 71.594 144.064C72.458 143.872 73.018 143.264 73.018 142.336C73.018 140.992 71.914 140.112 69.77 140.112C68.746 140.112 67.786 140.352 67.018 140.704V141.904C67.722 141.552 68.714 141.296 69.626 141.296C70.826 141.296 71.738 141.664 71.738 142.512C71.738 143.248 71.066 143.504 70.202 143.504H68.522V144.688H70.202C70.97 144.688 71.898 144.848 71.898 145.792C71.898 146.784 70.778 147.008 69.562 147.008C68.634 147.008 67.546 146.736 66.89 146.384V147.6C67.61 147.952 68.634 148.192 69.722 148.192C71.85 148.192 73.178 147.392 73.178 145.936ZM85.2834 146.4V143.392C85.2834 141.248 83.9874 140.128 81.9394 140.128C80.6754 140.128 79.6194 140.432 79.0114 140.64V141.888C79.6834 141.6 80.6274 141.312 81.8114 141.312C83.2194 141.312 84.0034 142.08 84.0034 143.232V143.504C83.3634 143.36 82.5474 143.264 81.8754 143.264C80.2274 143.264 78.4034 143.872 78.4034 145.856C78.4034 147.472 79.7474 148.192 81.1074 148.192C82.3554 148.192 83.3314 147.808 84.0994 147.168C84.3234 147.84 84.8834 148.096 85.5074 148.096C85.8274 148.096 86.1634 148.032 86.4674 147.92V146.88C86.2754 146.944 86.0674 146.992 85.8754 146.992C85.5394 146.992 85.2834 146.864 85.2834 146.4ZM79.7154 145.792C79.7154 144.672 80.9314 144.336 82.0514 144.336C82.6754 144.336 83.4594 144.448 84.0034 144.56V145.968C83.3314 146.688 82.3554 147.088 81.3794 147.088C80.5314 147.088 79.7154 146.688 79.7154 145.792ZM89.1203 148V144.752H93.5683V148H94.8483V140.32H93.5683V143.568H89.1203V140.32H87.8403V148H89.1203ZM103.455 146.4V143.392C103.455 141.248 102.159 140.128 100.111 140.128C98.8473 140.128 97.7913 140.432 97.1833 140.64V141.888C97.8553 141.6 98.7993 141.312 99.9833 141.312C101.391 141.312 102.175 142.08 102.175 143.232V143.504C101.535 143.36 100.719 143.264 100.047 143.264C98.3993 143.264 96.5753 143.872 96.5753 145.856C96.5753 147.472 97.9193 148.192 99.2793 148.192C100.527 148.192 101.503 147.808 102.271 147.168C102.495 147.84 103.055 148.096 103.679 148.096C103.999 148.096 104.335 148.032 104.639 147.92V146.88C104.447 146.944 104.239 146.992 104.047 146.992C103.711 146.992 103.455 146.864 103.455 146.4ZM97.8873 145.792C97.8873 144.672 99.1033 144.336 100.223 144.336C100.847 144.336 101.631 144.448 102.175 144.56V145.968C101.503 146.688 100.527 147.088 99.5513 147.088C98.7033 147.088 97.8873 146.688 97.8873 145.792ZM108.732 141.504H111.852V148H113.132V140.32H107.484C107.34 144.448 106.892 147.04 105.532 147.04C105.372 147.04 105.196 147.008 105.02 146.944V147.952C105.356 148.08 105.66 148.128 105.948 148.128C107.932 148.128 108.476 145.44 108.732 141.504ZM114.969 144.16C114.969 146.784 116.985 148.192 119.065 148.192C121.161 148.192 123.161 146.784 123.161 144.16C123.161 141.536 121.161 140.128 119.065 140.128C116.985 140.128 114.969 141.536 114.969 144.16ZM121.881 144.16C121.881 145.936 120.633 146.976 119.065 146.976C117.497 146.976 116.249 145.936 116.249 144.16C116.249 142.384 117.497 141.344 119.065 141.344C120.633 141.344 121.881 142.384 121.881 144.16ZM126.277 148V141.504H130.613V140.32H124.997V148H126.277ZM133.656 148H132.25V139.422H133.656V148ZM132.141 137.102C132.141 136.789 132.219 136.562 132.375 136.422C132.536 136.281 132.734 136.211 132.969 136.211C133.188 136.211 133.378 136.281 133.539 136.422C133.706 136.562 133.789 136.789 133.789 137.102C133.789 137.409 133.706 137.635 133.539 137.781C133.378 137.927 133.188 138 132.969 138C132.734 138 132.536 137.927 132.375 137.781C132.219 137.635 132.141 137.409 132.141 137.102ZM140.536 148C142.2 148 143.016 147.136 143.016 145.872C143.016 144.912 142.376 144.304 141.752 144.096C142.328 143.84 142.776 143.2 142.776 142.4C142.776 141.04 141.752 140.32 140.408 140.32H136.2V148H140.536ZM137.48 144.672H140.408C141.048 144.672 141.736 144.88 141.736 145.792C141.736 146.64 141.16 146.88 140.36 146.88H137.48V144.672ZM137.48 141.44H140.28C140.824 141.44 141.48 141.664 141.48 142.528C141.48 143.312 140.952 143.568 140.28 143.568H137.48V141.44Z" fill="#454545"/>
<path d="M24.568 186L25.72 183.296H31.752L32.904 186H34.344L29.48 174.8H27.992L23.112 186H24.568ZM28.552 176.608C28.616 176.464 28.664 176.336 28.728 176.176C28.792 176.336 28.84 176.464 28.904 176.608L31.224 182.048H26.248L28.552 176.608ZM36.9328 186V182.752H41.3808V186H42.6608V178.32H41.3808V181.568H36.9328V178.32H35.6528V186H36.9328ZM51.2678 184.4V181.392C51.2678 179.248 49.9718 178.128 47.9238 178.128C46.6598 178.128 45.6038 178.432 44.9958 178.64V179.888C45.6678 179.6 46.6118 179.312 47.7958 179.312C49.2038 179.312 49.9878 180.08 49.9878 181.232V181.504C49.3478 181.36 48.5318 181.264 47.8598 181.264C46.2118 181.264 44.3878 181.872 44.3878 183.856C44.3878 185.472 45.7318 186.192 47.0918 186.192C48.3398 186.192 49.3158 185.808 50.0838 185.168C50.3078 185.84 50.8678 186.096 51.4918 186.096C51.8118 186.096 52.1478 186.032 52.4518 185.92V184.88C52.2598 184.944 52.0518 184.992 51.8598 184.992C51.5238 184.992 51.2678 184.864 51.2678 184.4ZM45.6998 183.792C45.6998 182.672 46.9158 182.336 48.0358 182.336C48.6598 182.336 49.4438 182.448 49.9878 182.56V183.968C49.3158 184.688 48.3398 185.088 47.3638 185.088C46.5158 185.088 45.6998 184.688 45.6998 183.792ZM56.5446 179.504H59.6646V186H60.9446V178.32H55.2966C55.1526 182.448 54.7046 185.04 53.3446 185.04C53.1846 185.04 53.0086 185.008 52.8326 184.944V185.952C53.1686 186.08 53.4726 186.128 53.7606 186.128C55.7446 186.128 56.2886 183.44 56.5446 179.504ZM64.8906 186H63.4844V177.422H64.8906V186ZM63.375 175.102C63.375 174.789 63.4531 174.562 63.6094 174.422C63.7708 174.281 63.9688 174.211 64.2031 174.211C64.4219 174.211 64.612 174.281 64.7734 174.422C64.9401 174.562 65.0234 174.789 65.0234 175.102C65.0234 175.409 64.9401 175.635 64.7734 175.781C64.612 175.927 64.4219 176 64.2031 176C63.9688 176 63.7708 175.927 63.6094 175.781C63.4531 175.635 63.375 175.409 63.375 175.102ZM73.178 183.936C73.178 182.944 72.458 182.288 71.594 182.064C72.458 181.872 73.018 181.264 73.018 180.336C73.018 178.992 71.914 178.112 69.77 178.112C68.746 178.112 67.786 178.352 67.018 178.704V179.904C67.722 179.552 68.714 179.296 69.626 179.296C70.826 179.296 71.738 179.664 71.738 180.512C71.738 181.248 71.066 181.504 70.202 181.504H68.522V182.688H70.202C70.97 182.688 71.898 182.848 71.898 183.792C71.898 184.784 70.778 185.008 69.562 185.008C68.634 185.008 67.546 184.736 66.89 184.384V185.6C67.61 185.952 68.634 186.192 69.722 186.192C71.85 186.192 73.178 185.392 73.178 183.936ZM80.1954 179.6V178.32H79.0434V189.52H80.3234V184.848C80.8834 185.504 81.8274 186.192 83.2994 186.192C85.4914 186.192 87.1394 184.464 87.1394 182.16C87.1394 179.856 85.4914 178.128 83.2994 178.128C81.8274 178.128 80.8834 178.816 80.1954 179.6ZM85.8594 182.16C85.8594 183.92 84.6434 185.008 83.1554 185.008C81.7794 185.008 80.7554 184.112 80.3234 183.12V181.2C80.7554 180.208 81.7794 179.312 83.1554 179.312C84.6434 179.312 85.8594 180.4 85.8594 182.16ZM90.0689 186L94.7729 180.384V186H96.0529V178.32H94.9649L90.2609 183.936V178.32H88.9809V186H90.0689ZM99.6984 186V182.752H104.146V186H105.426V178.32H104.146V181.568H99.6984V178.32H98.4184V186H99.6984ZM109.073 186V182.704H110.577L113.393 186H114.897L111.633 182.144L114.545 178.32H113.057L110.625 181.52H109.073V178.32H107.793V186H109.073ZM119.4 184.544L116.504 178.32H115.144L118.792 186.016L118.504 186.72C118.008 187.968 117.384 188.592 116.52 188.592C116.296 188.592 116.072 188.56 115.848 188.496V189.6C116.136 189.68 116.408 189.712 116.68 189.712C117.8 189.712 118.776 189.008 119.576 187.152L123.352 178.32H121.992L119.4 184.544Z" fill="#454545"/>
<rect x="427.5" y="134.5" width="15" height="15" rx="2.5" stroke="#E6E6E6"/>
<rect x="427" y="174" width="16" height="16" rx="3" fill="#454545"/>
<path d="M431.922 182L434.383 184.462L438.691 180.154" stroke="white" stroke-linecap="round" stroke-linejoin="round"/>
<path fill-rule="evenodd" clip-rule="evenodd" d="M86.3571 58.8571C83.8719 58.8571 81.8571 60.8719 81.8571 63.3571C81.8571 65.8424 83.8719 67.8571 86.3571 67.8571C87.5988 67.8571 88.7222 67.3549 89.5368 66.5414C90.353 65.7264 90.8571 64.6011 90.8571 63.3571C90.8571 60.8719 88.8424 58.8571 86.3571 58.8571ZM81 63.3571C81 60.3985 83.3985 58 86.3571 58C89.3158 58 91.7143 60.3985 91.7143 63.3571C91.7143 64.6832 91.2321 65.8972 90.4341 66.8325L92.8742 69.2681C93.0417 69.4353 93.042 69.7067 92.8748 69.8742C92.7075 70.0417 92.4362 70.042 92.2686 69.8748L89.8277 67.4383C88.893 68.2337 87.6809 68.7143 86.3571 68.7143C83.3985 68.7143 81 66.3158 81 63.3571Z" fill="#9F9F9F" stroke="#9F9F9F" stroke-width="0.5"/>
</svg>
