<svg width="565" height="553" viewBox="0 0 565 553" fill="none" xmlns="http://www.w3.org/2000/svg">
<rect width="325.621" height="325.621" rx="20" transform="matrix(0.866044 -0.499967 0.866044 0.499967 0 389.837)" fill="#0FA7F0" fill-opacity="0.4"/>
<rect width="325.621" height="325.621" rx="20" transform="matrix(0.866044 -0.499967 0.866044 0.499967 0 318.141)" fill="#0FA7F0" fill-opacity="0.6"/>
<rect width="325.621" height="325.621" rx="20" transform="matrix(0.866044 -0.499967 0.866044 0.499967 0 246.445)" fill="#0FA7F0" fill-opacity="0.8"/>
<rect width="325.621" height="325.621" rx="20" transform="matrix(0.866044 -0.499967 0.866044 0.499967 0 162.8)" fill="#0FA7F0"/>
<path d="M326.378 220.642L331.18 217.87C334.841 215.756 338.097 215.521 340.946 217.166C343.795 218.811 343.389 220.691 339.728 222.804L337.654 224.001L341.837 226.416L339.109 227.991L326.378 220.642ZM337.454 221.345C339.176 220.351 339.412 219.494 338.164 218.773C336.915 218.052 335.429 218.188 333.708 219.182L331.507 220.453L335.254 222.615L337.454 221.345ZM345.623 215.663C345.442 215.18 345.52 214.68 345.86 214.162C346.199 213.644 346.8 213.178 347.66 212.765L350.116 214.183C349.303 214.512 348.715 214.921 348.351 215.411C348 215.894 347.951 216.363 348.206 216.818L353.335 219.779L350.807 221.238L342.077 216.198L344.314 214.907L345.623 215.663ZM357.661 216.168C355.915 216.238 354.315 215.853 352.86 215.013C351.405 214.173 350.738 213.249 350.859 212.241C350.98 211.233 351.714 210.341 353.06 209.564C354.418 208.78 355.964 208.357 357.697 208.294C359.443 208.224 361.044 208.609 362.499 209.449C363.954 210.289 364.621 211.212 364.499 212.22C364.39 213.221 363.657 214.114 362.299 214.898C360.953 215.675 359.407 216.098 357.661 216.168ZM361.044 212.262C360.995 211.772 360.626 211.328 359.934 210.929C359.243 210.53 358.479 210.32 357.643 210.299C356.794 210.271 356.018 210.46 355.315 210.866C354.612 211.272 354.284 211.72 354.333 212.21C354.381 212.686 354.751 213.123 355.442 213.522C356.133 213.921 356.897 214.138 357.734 214.173C358.57 214.194 359.34 214.002 360.044 213.596C360.747 213.19 361.08 212.745 361.044 212.262ZM362.44 199.823L364.949 198.374L377.68 205.724L375.462 207.005L374.188 206.27C374.467 207.285 373.922 208.188 372.552 208.979C371.23 209.742 369.739 210.085 368.078 210.008C366.404 209.924 364.931 209.514 363.658 208.779C362.385 208.044 361.682 207.197 361.549 206.238C361.403 205.273 361.991 204.408 363.313 203.645C364.513 202.952 365.865 202.627 367.368 202.669L362.44 199.823ZM369.769 204.055C369.175 203.922 368.532 203.894 367.841 203.971C367.162 204.041 366.562 204.226 366.041 204.527C365.337 204.933 365.022 205.395 365.095 205.913C365.156 206.424 365.538 206.882 366.241 207.288C366.944 207.694 367.744 207.918 368.641 207.96C369.527 207.995 370.321 207.81 371.024 207.404C371.545 207.103 371.867 206.756 371.988 206.364C372.121 205.965 372.073 205.594 371.842 205.252L369.769 204.055ZM377.154 195.948L379.682 194.489L388.412 199.529L386.175 200.82L385.066 200.18C385.187 201.16 384.671 201.982 383.52 202.647C382.38 203.305 381.167 203.62 379.882 203.592C378.609 203.557 377.445 203.235 376.39 202.626L370.989 199.508L373.517 198.048L378.591 200.978C379.161 201.307 379.737 201.471 380.319 201.471C380.901 201.471 381.458 201.317 381.992 201.009C382.768 200.561 383.053 199.97 382.847 199.235L377.154 195.948ZM385.827 196.129C385.026 195.667 384.45 195.173 384.099 194.648C383.759 194.116 383.644 193.609 383.753 193.126C383.85 192.636 384.093 192.174 384.481 191.74C384.857 191.299 385.36 190.896 385.99 190.532C386.997 189.951 388.106 189.556 389.318 189.346L391.537 190.627C390.422 190.767 389.428 191.089 388.555 191.593C387.791 192.034 387.348 192.52 387.227 193.052C387.106 193.584 387.457 194.088 388.282 194.564C389.07 195.019 389.937 195.219 390.882 195.163C391.816 195.1 392.653 194.855 393.392 194.428C394.326 193.889 394.932 193.294 395.211 192.643L397.448 193.934C396.927 194.683 396.139 195.362 395.084 195.971C393.774 196.727 392.271 197.154 390.573 197.252C388.864 197.343 387.281 196.968 385.827 196.129ZM388.85 186.257L390.759 184.461L393.906 186.278L396.67 184.682L398.798 185.91L396.034 187.506L399.453 189.48C400.326 189.984 401.229 189.966 402.163 189.427C402.72 189.106 403.151 188.745 403.454 188.346L405.491 189.522C405.018 190.089 404.363 190.614 403.527 191.097C402.605 191.629 401.611 191.93 400.544 192C399.489 192.063 398.453 191.8 397.434 191.212L393.524 188.955L392.051 189.805L389.923 188.577L391.396 187.727L388.85 186.257ZM326.293 253.496C325.493 253.034 324.917 252.54 324.565 252.015C324.226 251.483 324.111 250.976 324.22 250.493C324.317 250.003 324.559 249.541 324.947 249.107C325.323 248.666 325.826 248.263 326.457 247.899C327.463 247.319 328.573 246.923 329.785 246.713L332.004 247.994C330.888 248.134 329.894 248.456 329.021 248.96C328.257 249.401 327.815 249.887 327.694 250.419C327.572 250.951 327.924 251.455 328.748 251.931C329.536 252.386 330.403 252.586 331.349 252.53C332.283 252.467 333.119 252.222 333.859 251.795C334.793 251.256 335.399 250.661 335.678 250.01L337.915 251.301C337.393 252.05 336.605 252.729 335.55 253.338C334.241 254.094 332.737 254.521 331.04 254.619C329.33 254.71 327.748 254.336 326.293 253.496ZM327.207 243.162L329.735 241.702L334.536 244.474C334.585 243.634 335.106 242.927 336.1 242.353C337.216 241.709 338.422 241.405 339.719 241.44C341.017 241.461 342.187 241.772 343.229 242.374L348.631 245.493L346.103 246.952L341.029 244.023C340.459 243.694 339.871 243.536 339.265 243.55C338.671 243.557 338.119 243.708 337.61 244.002C336.822 244.457 336.543 245.045 336.773 245.766L342.466 249.052L339.938 250.511L327.207 243.162ZM356.212 238.512C356.6 238.736 357 238.729 357.412 238.491C357.582 238.393 357.716 238.288 357.813 238.176L359.468 239.132C359.177 239.496 358.795 239.814 358.322 240.087C357.4 240.619 356.43 240.801 355.412 240.633C355.218 241.571 354.527 242.383 353.339 243.069C352.478 243.566 351.514 243.849 350.447 243.919C349.38 243.975 348.434 243.765 347.61 243.289C346.919 242.89 346.549 242.439 346.5 241.935C346.452 241.431 346.622 240.976 347.009 240.57C347.385 240.157 347.895 239.765 348.537 239.394C349.253 238.981 350.022 238.628 350.847 238.334L350.538 238.155C350.089 237.896 349.556 237.791 348.937 237.84C348.319 237.889 347.676 238.106 347.009 238.491C346.04 239.051 345.227 239.772 344.572 240.654L342.39 239.394C343.166 238.498 344.1 237.735 345.191 237.105C348.052 235.453 350.798 235.387 353.429 236.906L356.212 238.512ZM350.629 239.93C350.107 240.231 349.768 240.539 349.61 240.854C349.453 241.169 349.58 241.445 349.992 241.683C350.307 241.865 350.695 241.942 351.156 241.914C351.617 241.872 352.041 241.739 352.429 241.515C353.193 241.074 353.611 240.56 353.684 239.972L352.32 239.184C351.629 239.429 351.065 239.678 350.629 239.93ZM355.57 232.919C355.388 232.436 355.467 231.936 355.806 231.418C356.146 230.9 356.746 230.435 357.607 230.022L360.062 231.439C359.25 231.768 358.662 232.177 358.298 232.667C357.946 233.15 357.898 233.619 358.152 234.074L363.281 237.035L360.753 238.495L352.023 233.455L354.26 232.163L355.57 232.919ZM373.298 228.649C373.686 228.873 374.086 228.866 374.498 228.628C374.668 228.53 374.801 228.425 374.898 228.313L376.553 229.268C376.262 229.632 375.88 229.951 375.408 230.224C374.486 230.756 373.516 230.938 372.498 230.77C372.304 231.707 371.613 232.519 370.424 233.205C369.563 233.702 368.6 233.986 367.533 234.056C366.466 234.112 365.52 233.902 364.695 233.426C364.004 233.027 363.635 232.575 363.586 232.071C363.538 231.567 363.707 231.112 364.095 230.707C364.471 230.294 364.98 229.902 365.623 229.531C366.338 229.118 367.108 228.764 367.933 228.47L367.624 228.292C367.175 228.033 366.641 227.928 366.023 227.977C365.405 228.026 364.762 228.243 364.095 228.628C363.125 229.188 362.313 229.909 361.658 230.791L359.476 229.531C360.252 228.635 361.185 227.872 362.277 227.242C365.138 225.59 367.884 225.523 370.515 227.042L373.298 228.649ZM367.714 230.066C367.193 230.367 366.854 230.675 366.696 230.99C366.538 231.305 366.666 231.581 367.078 231.819C367.393 232.001 367.781 232.078 368.242 232.05C368.703 232.008 369.127 231.875 369.515 231.651C370.279 231.21 370.697 230.696 370.77 230.108L369.406 229.321C368.715 229.566 368.151 229.814 367.714 230.066ZM373.11 226.468C372.31 226.006 371.734 225.513 371.383 224.988C371.043 224.456 370.928 223.948 371.037 223.465C371.134 222.975 371.376 222.513 371.764 222.079C372.14 221.638 372.643 221.236 373.274 220.872C374.28 220.291 375.39 219.896 376.602 219.686L378.821 220.966C377.706 221.106 376.711 221.428 375.838 221.932C375.074 222.373 374.632 222.86 374.511 223.392C374.389 223.924 374.741 224.428 375.566 224.904C376.354 225.359 377.221 225.558 378.166 225.502C379.1 225.439 379.936 225.194 380.676 224.767C381.61 224.228 382.216 223.633 382.495 222.982L384.732 224.274C384.21 225.023 383.422 225.702 382.367 226.311C381.058 227.067 379.555 227.494 377.857 227.592C376.148 227.683 374.565 227.308 373.11 226.468ZM376.134 216.596L378.043 214.801L381.19 216.617L383.954 215.021L386.082 216.25L383.317 217.846L386.737 219.82C387.61 220.324 388.513 220.306 389.446 219.767C390.004 219.445 390.435 219.085 390.738 218.686L392.775 219.862C392.302 220.429 391.647 220.953 390.81 221.436C389.889 221.968 388.895 222.269 387.828 222.339C386.773 222.402 385.736 222.14 384.718 221.552L380.808 219.295L379.334 220.145L377.207 218.917L378.68 218.066L376.134 216.596ZM389.5 216.859C388.712 216.404 388.155 215.921 387.827 215.41C387.488 214.892 387.366 214.402 387.463 213.94C387.573 213.471 387.785 213.041 388.1 212.649C388.427 212.25 388.852 211.9 389.373 211.599C390.246 211.095 391.161 210.755 392.119 210.58C393.089 210.398 393.987 210.37 394.811 210.496C395.623 210.615 396.411 210.832 397.175 211.147C397.939 211.448 398.551 211.837 399.012 212.313L392.865 215.862C393.605 216.135 394.411 216.194 395.284 216.04C396.145 215.879 396.963 215.575 397.739 215.127C398.697 214.574 399.4 213.965 399.849 213.3L401.831 214.444C401.334 215.151 400.449 215.872 399.176 216.607C397.721 217.447 396.108 217.909 394.338 217.993C392.568 218.077 390.955 217.699 389.5 216.859ZM395.102 212.68C394.762 212.414 394.235 212.243 393.52 212.166C392.804 212.089 392.095 212.253 391.392 212.659C390.834 212.981 390.525 213.356 390.464 213.783C390.392 214.203 390.64 214.584 391.21 214.927L395.102 212.68ZM399.119 207.778C398.937 207.296 399.016 206.795 399.355 206.277C399.695 205.759 400.295 205.294 401.156 204.881L403.611 206.298C402.799 206.627 402.211 207.037 401.847 207.526C401.495 208.009 401.447 208.478 401.702 208.933L406.83 211.894L404.302 213.354L395.573 208.314L397.81 207.023L399.119 207.778ZM413.953 207.782L411.425 209.242L402.695 204.202L405.223 202.743L413.953 207.782ZM402.55 200.947C403.022 201.22 403.241 201.507 403.204 201.808C403.168 202.109 402.931 202.386 402.495 202.638C402.071 202.883 401.598 203.016 401.076 203.037C400.555 203.058 400.058 202.932 399.585 202.659C399.124 202.393 398.912 202.109 398.949 201.808C398.985 201.507 399.215 201.234 399.64 200.989C400.064 200.744 400.537 200.611 401.058 200.59C401.592 200.562 402.089 200.681 402.55 200.947ZM409.456 203.113C408.523 202.574 408.189 201.982 408.456 201.338C408.711 200.687 409.359 200.061 410.402 199.459C411.53 198.808 412.851 198.332 414.367 198.031L416.44 199.228C415.81 199.298 415.119 199.452 414.367 199.69C413.627 199.921 413.003 200.183 412.494 200.477C411.681 200.946 411.505 201.314 411.966 201.58C412.233 201.734 412.621 201.762 413.13 201.664C413.639 201.566 414.203 201.415 414.821 201.212C415.428 201.002 416.058 200.813 416.713 200.645C417.38 200.47 418.083 200.4 418.823 200.435C419.562 200.47 420.229 200.659 420.823 201.002C421.478 201.38 421.817 201.8 421.842 202.262C421.878 202.717 421.69 203.155 421.278 203.575C420.878 203.988 420.302 204.411 419.55 204.845C418.156 205.65 416.725 206.161 415.258 206.378L413.166 205.171C414.731 204.982 416.149 204.52 417.422 203.785C418.441 203.197 418.732 202.777 418.295 202.525C418.041 202.378 417.659 202.353 417.149 202.451C416.64 202.549 416.076 202.7 415.458 202.903C414.852 203.099 414.215 203.284 413.548 203.459C412.869 203.627 412.166 203.697 411.439 203.669C410.699 203.634 410.038 203.449 409.456 203.113ZM414.177 194.634L416.087 192.838L419.233 194.655L421.997 193.059L424.125 194.287L421.361 195.883L424.78 197.857C425.653 198.361 426.556 198.344 427.49 197.805C428.048 197.483 428.478 197.122 428.781 196.723L430.818 197.899C430.345 198.466 429.69 198.991 428.854 199.474C427.932 200.006 426.938 200.307 425.871 200.377C424.816 200.44 423.78 200.177 422.761 199.59L418.851 197.332L417.378 198.183L415.25 196.954L416.723 196.104L414.177 194.634ZM434.946 195.663L432.418 197.122L423.688 192.083L426.216 190.623L434.946 195.663ZM423.543 188.828C424.016 189.101 424.234 189.388 424.197 189.689C424.161 189.99 423.925 190.266 423.488 190.518C423.064 190.763 422.591 190.896 422.07 190.917C421.548 190.938 421.051 190.812 420.578 190.539C420.117 190.273 419.905 189.99 419.942 189.689C419.978 189.388 420.208 189.115 420.633 188.87C421.057 188.625 421.53 188.492 422.051 188.471C422.585 188.443 423.082 188.562 423.543 188.828ZM432.395 192.243C431.595 191.781 431.019 191.287 430.668 190.762C430.328 190.23 430.213 189.723 430.322 189.24C430.419 188.75 430.662 188.288 431.05 187.854C431.425 187.413 431.929 187.011 432.559 186.647C433.565 186.066 434.675 185.67 435.887 185.46L438.106 186.741C436.991 186.881 435.996 187.203 435.123 187.707C434.36 188.148 433.917 188.635 433.796 189.166C433.675 189.698 434.026 190.202 434.851 190.678C435.639 191.133 436.506 191.333 437.451 191.277C438.385 191.214 439.222 190.969 439.961 190.542C440.895 190.003 441.501 189.408 441.78 188.757L444.017 190.048C443.496 190.797 442.707 191.476 441.653 192.085C440.343 192.841 438.84 193.268 437.142 193.366C435.433 193.457 433.85 193.083 432.395 192.243ZM439.365 185.846C438.432 185.307 438.098 184.716 438.365 184.072C438.62 183.421 439.268 182.794 440.311 182.192C441.439 181.542 442.76 181.066 444.276 180.765L446.349 181.961C445.719 182.031 445.027 182.185 444.276 182.423C443.536 182.654 442.912 182.917 442.403 183.211C441.59 183.68 441.414 184.047 441.875 184.313C442.142 184.467 442.53 184.495 443.039 184.397C443.548 184.299 444.112 184.149 444.73 183.946C445.337 183.736 445.967 183.547 446.622 183.379C447.289 183.204 447.992 183.134 448.732 183.169C449.471 183.204 450.138 183.393 450.732 183.736C451.387 184.114 451.726 184.534 451.751 184.996C451.787 185.451 451.599 185.888 451.187 186.308C450.787 186.721 450.211 187.145 449.459 187.579C448.065 188.384 446.634 188.895 445.167 189.112L443.075 187.904C444.639 187.715 446.058 187.253 447.331 186.518C448.35 185.93 448.641 185.51 448.204 185.258C447.95 185.111 447.568 185.087 447.058 185.185C446.549 185.283 445.985 185.433 445.367 185.636C444.761 185.832 444.124 186.018 443.457 186.193C442.778 186.361 442.075 186.431 441.348 186.403C440.608 186.368 439.947 186.182 439.365 185.846Z" fill="white"/>
<path d="M336.121 402.399L340.922 399.627C344.584 397.513 347.839 397.278 350.689 398.923C353.538 400.568 353.132 402.448 349.47 404.561L347.397 405.758L351.58 408.173L348.852 409.748L336.121 402.399ZM347.197 403.102C348.918 402.108 349.155 401.251 347.906 400.53C346.657 399.809 345.172 399.945 343.45 400.939L341.25 402.21L344.996 404.372L347.197 403.102ZM355.366 397.42C355.184 396.937 355.263 396.437 355.602 395.919C355.942 395.401 356.542 394.935 357.403 394.522L359.858 395.94C359.046 396.269 358.458 396.678 358.094 397.168C357.742 397.651 357.694 398.12 357.948 398.575L363.077 401.536L360.549 402.995L351.819 397.955L354.056 396.664L355.366 397.42ZM370.2 397.424L367.672 398.883L358.942 393.844L361.47 392.384L370.2 397.424ZM358.796 390.589C359.269 390.862 359.488 391.149 359.451 391.45C359.415 391.751 359.178 392.027 358.742 392.279C358.318 392.524 357.845 392.657 357.323 392.678C356.802 392.699 356.305 392.573 355.832 392.3C355.371 392.034 355.159 391.751 355.195 391.45C355.232 391.149 355.462 390.876 355.887 390.631C356.311 390.386 356.784 390.253 357.305 390.232C357.839 390.204 358.336 390.323 358.796 390.589ZM367.649 394.004C366.849 393.542 366.273 393.048 365.921 392.523C365.582 391.991 365.467 391.484 365.576 391.001C365.673 390.511 365.915 390.049 366.303 389.615C366.679 389.174 367.182 388.771 367.813 388.407C368.819 387.827 369.929 387.431 371.141 387.221L373.36 388.502C372.244 388.642 371.25 388.964 370.377 389.468C369.613 389.909 369.171 390.395 369.05 390.927C368.928 391.459 369.28 391.963 370.104 392.439C370.893 392.894 371.759 393.094 372.705 393.038C373.639 392.975 374.475 392.73 375.215 392.303C376.149 391.764 376.755 391.169 377.034 390.518L379.271 391.809C378.749 392.558 377.961 393.237 376.906 393.846C375.597 394.602 374.093 395.029 372.396 395.127C370.686 395.218 369.104 394.844 367.649 394.004ZM376.438 388.783C375.65 388.328 375.092 387.845 374.765 387.334C374.425 386.816 374.304 386.326 374.401 385.864C374.51 385.395 374.722 384.965 375.037 384.573C375.365 384.174 375.789 383.824 376.31 383.523C377.183 383.019 378.099 382.679 379.057 382.504C380.027 382.322 380.924 382.294 381.748 382.42C382.561 382.539 383.349 382.756 384.113 383.071C384.877 383.372 385.489 383.761 385.95 384.237L379.802 387.786C380.542 388.059 381.348 388.118 382.221 387.964C383.082 387.803 383.9 387.499 384.676 387.051C385.634 386.498 386.338 385.889 386.786 385.224L388.769 386.368C388.271 387.075 387.386 387.796 386.113 388.531C384.658 389.371 383.046 389.833 381.275 389.917C379.505 390.001 377.893 389.623 376.438 388.783ZM382.039 384.604C381.7 384.338 381.172 384.167 380.457 384.09C379.742 384.013 379.032 384.177 378.329 384.583C377.771 384.905 377.462 385.28 377.402 385.707C377.329 386.127 377.577 386.508 378.147 386.851L382.039 384.604ZM390.088 377.375C389.906 376.892 389.985 376.391 390.324 375.874C390.664 375.356 391.264 374.89 392.125 374.477L394.58 375.895C393.768 376.223 393.18 376.633 392.816 377.123C392.464 377.606 392.416 378.075 392.671 378.53L397.799 381.491L395.271 382.95L386.542 377.91L388.779 376.619L390.088 377.375ZM407.816 373.104C408.204 373.328 408.604 373.321 409.016 373.083C409.186 372.985 409.32 372.88 409.417 372.768L411.072 373.724C410.781 374.088 410.399 374.406 409.926 374.679C409.004 375.211 408.034 375.393 407.016 375.225C406.822 376.163 406.131 376.975 404.943 377.661C404.082 378.158 403.118 378.441 402.051 378.511C400.984 378.567 400.038 378.357 399.214 377.881C398.523 377.482 398.153 377.031 398.104 376.527C398.056 376.023 398.225 375.568 398.613 375.162C398.989 374.749 399.499 374.357 400.141 373.986C400.857 373.573 401.626 373.22 402.451 372.926L402.142 372.747C401.693 372.488 401.16 372.383 400.541 372.432C399.923 372.481 399.28 372.698 398.613 373.083C397.643 373.643 396.831 374.364 396.176 375.246L393.994 373.986C394.77 373.09 395.704 372.327 396.795 371.697C399.656 370.045 402.402 369.979 405.033 371.498L407.816 373.104ZM402.233 374.522C401.711 374.823 401.372 375.131 401.214 375.445C401.057 375.76 401.184 376.037 401.596 376.275C401.911 376.457 402.299 376.534 402.76 376.506C403.221 376.464 403.645 376.331 404.033 376.107C404.797 375.666 405.215 375.152 405.288 374.564L403.924 373.776C403.233 374.021 402.669 374.27 402.233 374.522ZM406.974 367.396C406.853 366.416 407.368 365.593 408.52 364.928C409.635 364.285 410.842 363.98 412.139 364.015C413.436 364.036 414.606 364.348 415.649 364.949L421.05 368.068L418.522 369.527L413.448 366.598C412.878 366.269 412.29 366.111 411.684 366.125C411.09 366.132 410.538 366.283 410.029 366.577C409.241 367.032 408.962 367.62 409.193 368.341L414.885 371.627L412.357 373.086L403.627 368.047L405.864 366.755L406.974 367.396ZM422.648 365.886C420.975 365.802 419.502 365.392 418.229 364.657C416.956 363.922 416.252 363.075 416.119 362.116C415.973 361.15 416.562 360.286 417.883 359.523C419.253 358.732 420.817 358.417 422.575 358.578L421.302 357.843L423.521 356.562L432.014 361.465C432.815 361.927 433.372 362.41 433.688 362.914C434.015 363.425 434.1 363.915 433.942 364.384C433.809 364.853 433.53 365.301 433.106 365.728C432.693 366.162 432.154 366.572 431.487 366.956C430.153 367.726 428.65 368.279 426.977 368.615L424.758 367.334C426.382 367.096 427.807 366.624 429.032 365.917C430.923 364.825 431.117 363.845 429.614 362.977L428.813 362.515C428.886 363.383 428.322 364.164 427.122 364.857C425.8 365.62 424.309 365.963 422.648 365.886ZM424.339 359.932C423.745 359.799 423.103 359.771 422.412 359.848C421.733 359.918 421.132 360.104 420.611 360.405C419.908 360.811 419.593 361.273 419.665 361.791C419.726 362.302 420.108 362.76 420.811 363.166C421.514 363.572 422.315 363.796 423.212 363.838C424.097 363.873 424.891 363.688 425.594 363.282C426.116 362.981 426.443 362.638 426.576 362.253C426.722 361.861 426.686 361.497 426.467 361.161L424.339 359.932ZM429.542 358.126C428.754 357.671 428.196 357.188 427.869 356.677C427.53 356.159 427.408 355.669 427.505 355.207C427.614 354.738 427.827 354.308 428.142 353.916C428.469 353.517 428.894 353.167 429.415 352.866C430.288 352.362 431.203 352.022 432.161 351.847C433.131 351.665 434.028 351.637 434.853 351.763C435.665 351.882 436.453 352.099 437.217 352.414C437.981 352.715 438.593 353.104 439.054 353.58L432.907 357.128C433.646 357.401 434.453 357.461 435.326 357.307C436.186 357.146 437.005 356.841 437.781 356.393C438.739 355.84 439.442 355.232 439.891 354.567L441.873 355.711C441.376 356.418 440.491 357.139 439.218 357.874C437.763 358.714 436.15 359.176 434.38 359.26C432.61 359.344 430.997 358.966 429.542 358.126ZM435.144 353.947C434.804 353.681 434.277 353.51 433.562 353.433C432.846 353.356 432.137 353.52 431.434 353.926C430.876 354.248 430.567 354.623 430.506 355.05C430.433 355.469 430.682 355.851 431.252 356.194L435.144 353.947ZM437.669 351.208C436.736 350.669 436.402 350.078 436.669 349.434C436.924 348.783 437.572 348.156 438.615 347.554C439.743 346.903 441.064 346.427 442.58 346.126L444.653 347.323C444.023 347.393 443.332 347.547 442.58 347.785C441.84 348.016 441.216 348.279 440.707 348.573C439.894 349.042 439.719 349.409 440.179 349.675C440.446 349.829 440.834 349.857 441.343 349.759C441.852 349.661 442.416 349.511 443.035 349.308C443.641 349.098 444.271 348.909 444.926 348.741C445.593 348.566 446.296 348.496 447.036 348.531C447.775 348.566 448.442 348.755 449.036 349.098C449.691 349.476 450.031 349.896 450.055 350.358C450.091 350.813 449.903 351.25 449.491 351.67C449.091 352.083 448.515 352.506 447.763 352.94C446.369 353.745 444.938 354.256 443.471 354.473L441.38 353.266C442.944 353.077 444.362 352.615 445.635 351.88C446.654 351.292 446.945 350.872 446.508 350.62C446.254 350.473 445.872 350.449 445.363 350.547C444.853 350.645 444.29 350.795 443.671 350.998C443.065 351.194 442.428 351.38 441.762 351.555C441.083 351.723 440.379 351.793 439.652 351.765C438.912 351.73 438.251 351.544 437.669 351.208Z" fill="white"/>
<path d="M321.946 332.097L326.747 329.325C330.409 327.211 333.664 326.977 336.514 328.621C339.363 330.266 338.957 332.146 335.295 334.26L333.222 335.457L337.405 337.871L334.677 339.446L321.946 332.097ZM333.022 332.8C334.743 331.806 334.98 330.949 333.731 330.228C332.482 329.507 330.997 329.643 329.275 330.637L327.075 331.908L330.821 334.071L333.022 332.8ZM346.035 331.776C344.29 331.846 342.689 331.461 341.234 330.621C339.779 329.781 339.112 328.857 339.234 327.849C339.355 326.841 340.088 325.949 341.434 325.172C342.792 324.388 344.338 323.964 346.072 323.901C347.818 323.831 349.418 324.216 350.873 325.056C352.328 325.896 352.995 326.82 352.874 327.828C352.765 328.829 352.031 329.722 350.673 330.506C349.327 331.282 347.781 331.706 346.035 331.776ZM349.418 327.87C349.37 327.38 349 326.936 348.309 326.537C347.618 326.138 346.854 325.928 346.017 325.907C345.169 325.879 344.393 326.068 343.689 326.474C342.986 326.88 342.659 327.328 342.707 327.818C342.756 328.294 343.126 328.731 343.817 329.13C344.508 329.529 345.272 329.746 346.108 329.781C346.945 329.802 347.715 329.61 348.418 329.204C349.121 328.798 349.455 328.353 349.418 327.87ZM350.214 323.211C349.28 322.672 348.947 322.081 349.214 321.437C349.468 320.786 350.117 320.159 351.16 319.557C352.287 318.906 353.609 318.43 355.124 318.129L357.198 319.326C356.567 319.396 355.876 319.55 355.124 319.788C354.385 320.019 353.76 320.282 353.251 320.576C352.439 321.045 352.263 321.412 352.724 321.678C352.99 321.832 353.378 321.86 353.888 321.762C354.397 321.664 354.961 321.514 355.579 321.311C356.185 321.101 356.816 320.912 357.47 320.744C358.137 320.569 358.841 320.499 359.58 320.534C360.32 320.569 360.987 320.758 361.581 321.101C362.235 321.479 362.575 321.899 362.599 322.361C362.636 322.816 362.448 323.253 362.035 323.673C361.635 324.086 361.059 324.51 360.308 324.944C358.913 325.748 357.483 326.259 356.016 326.476L353.924 325.269C355.488 325.08 356.907 324.618 358.18 323.883C359.198 323.295 359.489 322.875 359.053 322.623C358.798 322.476 358.416 322.452 357.907 322.55C357.398 322.648 356.834 322.798 356.216 323.001C355.609 323.197 354.973 323.383 354.306 323.558C353.627 323.726 352.924 323.796 352.196 323.768C351.457 323.733 350.796 323.547 350.214 323.211ZM358.881 318.208C357.948 317.669 357.614 317.077 357.881 316.433C358.135 315.782 358.784 315.156 359.827 314.554C360.954 313.903 362.276 313.427 363.792 313.126L365.865 314.323C365.234 314.393 364.543 314.547 363.792 314.785C363.052 315.016 362.428 315.278 361.918 315.572C361.106 316.041 360.93 316.409 361.391 316.675C361.658 316.829 362.046 316.857 362.555 316.759C363.064 316.661 363.628 316.51 364.246 316.307C364.852 316.097 365.483 315.908 366.138 315.74C366.805 315.565 367.508 315.495 368.247 315.53C368.987 315.565 369.654 315.754 370.248 316.097C370.903 316.475 371.242 316.895 371.266 317.357C371.303 317.812 371.115 318.25 370.703 318.67C370.302 319.082 369.727 319.506 368.975 319.94C367.581 320.745 366.15 321.256 364.683 321.473L362.591 320.265C364.155 320.076 365.574 319.614 366.847 318.88C367.865 318.292 368.156 317.872 367.72 317.62C367.465 317.473 367.083 317.448 366.574 317.546C366.065 317.644 365.501 317.795 364.883 317.998C364.277 318.194 363.64 318.379 362.973 318.554C362.294 318.722 361.591 318.792 360.863 318.764C360.124 318.729 359.463 318.544 358.881 318.208ZM376.769 315.146L374.241 316.606L365.511 311.566L368.039 310.107L376.769 315.146ZM365.366 308.311C365.839 308.584 366.057 308.871 366.021 309.172C365.984 309.473 365.748 309.75 365.311 310.002C364.887 310.247 364.414 310.38 363.893 310.401C363.371 310.422 362.874 310.296 362.401 310.023C361.941 309.757 361.728 309.473 361.765 309.172C361.801 308.871 362.032 308.598 362.456 308.353C362.88 308.108 363.353 307.975 363.875 307.954C364.408 307.926 364.905 308.045 365.366 308.311ZM366.216 306.539L368.744 305.08L373.673 307.925C373.576 307.071 374.14 306.291 375.364 305.584C376.686 304.821 378.177 304.485 379.838 304.576C381.499 304.653 382.967 305.059 384.24 305.794C385.513 306.529 386.222 307.379 386.368 308.345C386.513 309.297 385.925 310.155 384.603 310.918C383.209 311.723 381.645 312.038 379.911 311.863L381.184 312.597L378.947 313.889L366.216 306.539ZM382.821 308.671C382.748 308.153 382.36 307.691 381.657 307.285C380.954 306.879 380.16 306.658 379.275 306.623C378.377 306.581 377.577 306.763 376.874 307.169C376.353 307.47 376.025 307.82 375.892 308.219C375.771 308.611 375.825 308.979 376.056 309.322L378.129 310.519C378.723 310.652 379.359 310.683 380.038 310.613C380.73 310.536 381.336 310.347 381.857 310.046C382.56 309.64 382.882 309.182 382.821 308.671ZM377.021 299.672L379.549 298.213L392.825 305.877L390.297 307.337L377.021 299.672ZM390.147 302.384C389.359 301.929 388.801 301.446 388.474 300.935C388.134 300.417 388.013 299.927 388.11 299.465C388.219 298.996 388.431 298.565 388.747 298.173C389.074 297.774 389.498 297.424 390.02 297.123C390.893 296.619 391.808 296.28 392.766 296.105C393.736 295.923 394.633 295.895 395.458 296.021C396.27 296.14 397.058 296.357 397.822 296.672C398.586 296.973 399.198 297.361 399.659 297.837L393.512 301.386C394.251 301.659 395.057 301.719 395.93 301.565C396.791 301.404 397.61 301.099 398.386 300.651C399.344 300.098 400.047 299.489 400.495 298.824L402.478 299.969C401.981 300.676 401.096 301.397 399.822 302.132C398.367 302.972 396.755 303.434 394.985 303.518C393.215 303.602 391.602 303.224 390.147 302.384ZM395.749 298.205C395.409 297.939 394.882 297.767 394.166 297.69C393.451 297.613 392.742 297.778 392.038 298.184C391.481 298.506 391.172 298.88 391.111 299.307C391.038 299.727 391.287 300.109 391.857 300.452L395.749 298.205ZM408.926 295.469C407.18 295.539 405.58 295.154 404.125 294.314C402.67 293.474 402.003 292.55 402.124 291.542C402.245 290.535 402.979 289.642 404.325 288.865C405.683 288.081 407.229 287.658 408.962 287.595C410.708 287.525 412.309 287.91 413.764 288.75C415.219 289.59 415.886 290.514 415.764 291.521C415.655 292.522 414.922 293.415 413.564 294.199C412.218 294.976 410.672 295.399 408.926 295.469ZM412.309 291.563C412.26 291.074 411.89 290.629 411.199 290.23C410.508 289.831 409.744 289.621 408.908 289.6C408.059 289.572 407.283 289.761 406.58 290.167C405.877 290.573 405.549 291.021 405.598 291.511C405.646 291.987 406.016 292.424 406.707 292.823C407.398 293.222 408.162 293.439 408.999 293.474C409.835 293.495 410.605 293.303 411.308 292.897C412.012 292.491 412.345 292.046 412.309 291.563ZM414.559 284.721C414.256 283.72 414.802 282.817 416.196 282.012C417.518 281.249 419.009 280.913 420.67 281.004C422.331 281.081 423.798 281.487 425.071 282.222C426.345 282.957 427.054 283.807 427.199 284.773C427.345 285.725 426.757 286.582 425.435 287.345C424.235 288.038 422.883 288.364 421.379 288.322L426.308 291.167L423.78 292.627L411.049 285.277L413.286 283.986L414.559 284.721ZM423.653 285.099C423.58 284.581 423.192 284.119 422.489 283.713C421.786 283.307 420.992 283.086 420.106 283.051C419.209 283.009 418.409 283.191 417.706 283.597C417.184 283.898 416.857 284.248 416.724 284.647C416.602 285.039 416.657 285.407 416.887 285.749L418.961 286.946C419.555 287.079 420.191 287.111 420.87 287.041C421.561 286.964 422.168 286.775 422.689 286.474C423.392 286.068 423.713 285.609 423.653 285.099ZM420.365 276.959L422.274 275.164L425.421 276.98L428.185 275.384L430.313 276.613L427.549 278.209L430.968 280.183C431.841 280.687 432.744 280.669 433.678 280.13C434.235 279.808 434.666 279.448 434.969 279.049L437.006 280.225C436.533 280.792 435.878 281.317 435.042 281.8C434.12 282.331 433.126 282.632 432.059 282.702C431.004 282.765 429.968 282.503 428.949 281.915L425.039 279.658L423.566 280.508L421.438 279.28L422.911 278.429L420.365 276.959ZM441.134 277.989L438.606 279.448L429.876 274.408L432.404 272.949L441.134 277.989ZM429.731 271.154C430.203 271.427 430.422 271.714 430.385 272.014C430.349 272.315 430.112 272.592 429.676 272.844C429.252 273.089 428.779 273.222 428.257 273.243C427.736 273.264 427.239 273.138 426.766 272.865C426.305 272.599 426.093 272.315 426.13 272.014C426.166 271.714 426.396 271.441 426.821 271.196C427.245 270.951 427.718 270.818 428.239 270.797C428.773 270.769 429.27 270.888 429.731 271.154ZM443.257 275.65C441.511 275.72 439.911 275.335 438.456 274.495C437.001 273.655 436.334 272.731 436.455 271.723C436.577 270.715 437.31 269.823 438.656 269.046C440.014 268.262 441.56 267.838 443.294 267.775C445.04 267.705 446.64 268.09 448.095 268.93C449.55 269.77 450.217 270.694 450.096 271.702C449.987 272.703 449.253 273.595 447.895 274.379C446.549 275.156 445.003 275.58 443.257 275.65ZM446.64 271.744C446.592 271.254 446.222 270.81 445.531 270.411C444.84 270.012 444.076 269.802 443.239 269.781C442.39 269.753 441.614 269.942 440.911 270.348C440.208 270.754 439.881 271.202 439.929 271.691C439.978 272.167 440.347 272.605 441.039 273.004C441.73 273.403 442.494 273.62 443.33 273.655C444.167 273.676 444.937 273.483 445.64 273.077C446.343 272.671 446.677 272.227 446.64 271.744ZM448.727 264.807C448.606 263.827 449.121 263.004 450.273 262.339C451.388 261.695 452.595 261.391 453.892 261.426C455.19 261.447 456.36 261.758 457.402 262.36L462.804 265.479L460.276 266.938L455.202 264.009C454.632 263.68 454.044 263.522 453.438 263.536C452.843 263.543 452.292 263.694 451.783 263.988C450.994 264.443 450.716 265.031 450.946 265.751L456.638 269.038L454.11 270.497L445.381 265.458L447.618 264.166L448.727 264.807ZM458.163 260.892C457.23 260.353 456.896 259.762 457.163 259.118C457.418 258.467 458.066 257.84 459.109 257.238C460.237 256.587 461.558 256.111 463.074 255.81L465.147 257.007C464.517 257.077 463.825 257.231 463.074 257.469C462.334 257.7 461.71 257.963 461.2 258.257C460.388 258.726 460.212 259.093 460.673 259.359C460.94 259.513 461.328 259.541 461.837 259.443C462.346 259.345 462.91 259.195 463.528 258.992C464.135 258.782 464.765 258.593 465.42 258.425C466.087 258.25 466.79 258.18 467.53 258.215C468.269 258.25 468.936 258.439 469.53 258.782C470.185 259.16 470.524 259.58 470.549 260.042C470.585 260.496 470.397 260.934 469.985 261.354C469.585 261.767 469.009 262.19 468.257 262.624C466.863 263.429 465.432 263.94 463.965 264.157L461.873 262.95C463.437 262.761 464.856 262.299 466.129 261.564C467.148 260.976 467.439 260.556 467.002 260.304C466.748 260.157 466.366 260.133 465.856 260.23C465.347 260.328 464.783 260.479 464.165 260.682C463.559 260.878 462.922 261.063 462.255 261.238C461.576 261.406 460.873 261.476 460.146 261.448C459.406 261.413 458.745 261.228 458.163 260.892Z" fill="white"/>
<path d="M377.1 465.842L374.372 467.417L361.641 460.067L366.879 457.043C367.546 456.658 368.225 456.343 368.916 456.098C369.619 455.846 370.371 455.664 371.171 455.552C371.984 455.433 372.808 455.454 373.645 455.615C374.493 455.769 375.306 456.07 376.082 456.518C378.01 457.631 378.343 458.895 377.082 460.309L385.684 460.886L382.538 462.702L374.645 462.114L372.644 463.269L377.1 465.842ZM366.77 459.878L370.371 461.957L373.008 460.435C373.627 460.078 373.99 459.7 374.099 459.301C374.209 458.888 373.96 458.506 373.354 458.156C372.735 457.799 372.081 457.652 371.39 457.715C370.698 457.778 370.038 457.992 369.407 458.356L366.77 459.878ZM381.498 458.263C380.71 457.808 380.152 457.325 379.825 456.814C379.485 456.296 379.364 455.806 379.461 455.344C379.57 454.875 379.782 454.445 380.098 454.053C380.425 453.654 380.849 453.304 381.371 453.003C382.244 452.499 383.159 452.16 384.117 451.985C385.087 451.803 385.984 451.775 386.809 451.901C387.621 452.02 388.409 452.237 389.173 452.552C389.937 452.853 390.549 453.241 391.01 453.717L384.862 457.266C385.602 457.539 386.408 457.598 387.281 457.444C388.142 457.283 388.961 456.979 389.737 456.531C390.694 455.978 391.398 455.369 391.846 454.704L393.829 455.848C393.332 456.555 392.446 457.276 391.173 458.011C389.718 458.851 388.106 459.313 386.336 459.397C384.565 459.481 382.953 459.103 381.498 458.263ZM387.099 454.084C386.76 453.819 386.233 453.647 385.517 453.57C384.802 453.493 384.093 453.658 383.389 454.063C382.832 454.385 382.522 454.76 382.462 455.187C382.389 455.607 382.638 455.988 383.207 456.331L387.099 454.084ZM393.436 446.332L396.127 444.778L401.256 451.897L398.601 453.429L386.27 450.469L388.962 448.915L397.255 451.12L393.436 446.332ZM408.632 447.638L406.104 449.098L397.374 444.058L399.902 442.599L408.632 447.638ZM397.229 440.803C397.702 441.076 397.92 441.363 397.884 441.664C397.847 441.965 397.611 442.242 397.174 442.494C396.75 442.739 396.277 442.872 395.756 442.893C395.234 442.914 394.737 442.788 394.264 442.515C393.804 442.249 393.592 441.965 393.628 441.664C393.664 441.363 393.895 441.09 394.319 440.845C394.743 440.6 395.216 440.467 395.738 440.446C396.271 440.418 396.768 440.537 397.229 440.803ZM405.954 444.145C405.166 443.69 404.609 443.207 404.281 442.696C403.942 442.178 403.82 441.688 403.917 441.226C404.027 440.757 404.239 440.326 404.554 439.934C404.881 439.535 405.306 439.185 405.827 438.884C406.7 438.38 407.615 438.041 408.573 437.866C409.543 437.684 410.44 437.656 411.265 437.782C412.077 437.901 412.865 438.118 413.629 438.433C414.393 438.734 415.005 439.122 415.466 439.598L409.319 443.147C410.059 443.42 410.865 443.48 411.738 443.326C412.599 443.165 413.417 442.86 414.193 442.412C415.151 441.859 415.854 441.25 416.303 440.585L418.285 441.73C417.788 442.437 416.903 443.158 415.63 443.893C414.175 444.732 412.562 445.194 410.792 445.278C409.022 445.362 407.409 444.984 405.954 444.145ZM411.556 439.966C411.216 439.7 410.689 439.528 409.974 439.451C409.258 439.374 408.549 439.539 407.846 439.945C407.288 440.267 406.979 440.641 406.918 441.068C406.846 441.488 407.094 441.87 407.664 442.213L411.556 439.966ZM422.672 429.454L425.345 427.91L431.274 434.567L428.601 436.11L421.181 433.822L425.145 438.105L422.454 439.659L410.923 436.236L413.615 434.682L421.181 437.223L416.943 432.761L419.344 431.375L427.055 433.832L422.672 429.454ZM428.468 428.922C427.534 428.383 427.201 427.791 427.468 427.147C427.722 426.496 428.371 425.87 429.414 425.268C430.541 424.617 431.863 424.141 433.378 423.84L435.452 425.037C434.821 425.107 434.13 425.261 433.378 425.499C432.639 425.73 432.014 425.992 431.505 426.286C430.693 426.755 430.517 427.123 430.978 427.389C431.244 427.543 431.632 427.571 432.142 427.473C432.651 427.375 433.215 427.224 433.833 427.021C434.439 426.811 435.07 426.622 435.724 426.454C436.391 426.279 437.094 426.209 437.834 426.244C438.574 426.279 439.241 426.468 439.835 426.811C440.489 427.189 440.829 427.609 440.853 428.071C440.889 428.526 440.702 428.964 440.289 429.384C439.889 429.797 439.313 430.22 438.562 430.654C437.167 431.459 435.737 431.97 434.269 432.187L432.178 430.98C433.742 430.791 435.161 430.329 436.434 429.594C437.452 429.006 437.743 428.586 437.307 428.334C437.052 428.187 436.67 428.162 436.161 428.26C435.652 428.358 435.088 428.509 434.469 428.712C433.863 428.908 433.227 429.093 432.56 429.268C431.881 429.436 431.178 429.506 430.45 429.478C429.711 429.443 429.05 429.258 428.468 428.922Z" fill="white"/>
<g clip-path="url(#clip0_1317_155)">
<path d="M204.83 86.9478C204.204 87.3093 203.852 87.7997 203.852 88.311C203.852 88.8224 204.204 89.3127 204.83 89.6743L228.445 103.307C229.071 103.669 229.921 103.872 230.806 103.872C231.692 103.872 232.542 103.669 233.168 103.307C241.316 98.6137 252.357 95.9779 263.867 95.9779C275.378 95.9779 286.418 98.6137 294.566 103.307C295.193 103.669 296.042 103.872 296.928 103.872C297.814 103.872 298.663 103.669 299.289 103.307L322.904 89.6743C323.53 89.3127 323.882 88.8224 323.882 88.311C323.882 87.7997 323.53 87.3093 322.904 86.9478C290.351 68.1549 237.383 68.1549 204.83 86.9478ZM296.85 99.2622C287.711 94.6601 275.994 92.1246 263.867 92.1246C251.74 92.1246 240.023 94.6601 230.884 99.2622L211.965 88.3403C241.246 72.8303 286.488 72.8302 315.769 88.3403L296.85 99.2622Z" fill="white"/>
<path d="M129.266 138.752L133.989 136.026L138.712 138.752L133.989 141.479L129.266 138.752Z" fill="white"/>
<path d="M138.711 133.299L150.518 126.483L155.241 129.209L143.434 136.026L138.711 133.299Z" fill="white"/>
<path d="M345.509 144.679C348.404 136.823 347.853 128.674 343.905 120.973C339.958 113.272 332.74 106.262 322.906 100.581C322.28 100.219 321.431 100.016 320.545 100.016C319.659 100.016 318.81 100.219 318.184 100.581L294.569 114.213C293.942 114.575 293.591 115.065 293.591 115.577C293.591 116.088 293.942 116.578 294.569 116.94C300.64 120.445 304.775 124.911 306.451 129.773C308.126 134.635 307.266 139.674 303.98 144.254C300.694 148.834 295.129 152.748 287.99 155.502C280.85 158.256 272.456 159.726 263.87 159.726C255.283 159.726 246.889 158.256 239.749 155.502C232.61 152.748 227.045 148.834 223.759 144.254C220.473 139.674 219.613 134.635 221.289 129.773C222.964 124.911 227.099 120.445 233.17 116.94C233.797 116.578 234.148 116.088 234.148 115.577C234.148 115.065 233.797 114.575 233.17 114.213L209.556 100.581C208.929 100.219 208.08 100.016 207.194 100.016C206.308 100.016 205.459 100.219 204.833 100.581C191.043 108.527 182.527 119.017 180.773 130.22L166.577 131.391C165.861 131.45 165.198 131.641 164.688 131.936L141.073 145.569L145.796 148.295L168.623 135.117L180.429 134.143C180.282 141.277 182.884 148.339 188.045 154.821C193.207 161.302 200.799 167.04 210.273 171.62C219.746 176.2 230.865 179.507 242.824 181.302C254.783 183.098 267.283 183.336 279.422 182L279.422 188.395L247.339 206.916L252.062 209.643L285.123 190.557C285.749 190.196 286.101 189.705 286.101 189.194L286.101 181.11C299.657 178.955 312.047 174.855 322.12 169.192C332.193 163.53 339.621 156.488 343.712 148.722L358.801 147.477C359.516 147.418 360.179 147.227 360.69 146.932L391.389 129.209L386.666 126.483L356.754 143.751L345.509 144.679ZM301.575 115.622L320.494 104.7C347.361 121.604 347.358 147.72 320.491 164.624L301.573 153.702C309.545 148.427 313.938 141.663 313.938 134.662C313.939 127.661 309.547 120.897 301.575 115.622V115.622ZM207.245 104.7L226.164 115.622C218.192 120.897 213.8 127.661 213.801 134.662C213.801 141.663 218.194 148.427 226.166 153.702L207.248 164.624C180.381 147.72 180.378 121.604 207.245 104.7ZM211.971 167.35L230.889 156.429C240.027 161.031 251.743 163.567 263.87 163.567C275.996 163.567 287.712 161.031 296.85 156.429L315.768 167.35C286.486 182.86 241.253 182.86 211.971 167.35Z" fill="white"/>
<path d="M393.75 136.026L398.473 133.299L403.196 136.026L398.473 138.752L393.75 136.026Z" fill="white"/>
<path d="M370.137 149.659L389.029 138.752L393.751 141.479L374.86 152.385L370.137 149.659Z" fill="white"/>
<path d="M259.145 213.733L263.867 211.006L268.59 213.733L263.867 216.459L259.145 213.733Z" fill="white"/>
<path d="M268.594 208.28L287.486 197.374L292.209 200.1L273.317 211.006L268.594 208.28Z" fill="white"/>
<path d="M294.57 127.846L256.786 106.034C256.16 105.672 255.31 105.469 254.425 105.469C253.539 105.469 252.689 105.672 252.063 106.034L242.617 111.487C241.991 111.848 241.639 112.339 241.639 112.85C241.639 113.361 241.991 113.852 242.617 114.213L247.34 116.94L240.256 121.03C239.629 121.391 239.278 121.882 239.278 122.393C239.278 122.904 239.629 123.395 240.256 123.756L247.34 127.846L240.256 131.936C239.629 132.298 239.278 132.788 239.278 133.299C239.278 133.811 239.629 134.301 240.256 134.663L244.979 137.389L237.894 141.479C237.268 141.841 236.916 142.331 236.916 142.842C236.916 143.354 237.268 143.844 237.894 144.206L252.063 152.385C252.689 152.747 253.539 152.95 254.425 152.95C255.31 152.95 256.16 152.747 256.786 152.385L294.57 130.573C295.196 130.211 295.548 129.721 295.548 129.209C295.548 128.698 295.196 128.208 294.57 127.846V127.846ZM244.979 142.842L249.702 140.116L259.148 145.569L254.425 148.295L244.979 142.842ZM247.34 133.299L252.063 130.573L268.593 140.116L263.87 142.842L247.34 133.299ZM247.34 122.393L252.063 119.667L278.039 134.663L273.316 137.389L247.34 122.393ZM287.485 129.209L282.762 131.936L249.702 112.85L254.425 110.124L287.485 129.209Z" fill="white"/>
<path d="M270.953 146.932L275.676 144.206L280.399 146.932L275.676 149.659L270.953 146.932Z" fill="white"/>
<path d="M261.508 152.385L266.231 149.659L270.954 152.385L266.231 155.112L261.508 152.385Z" fill="white"/>
<path d="M280.398 141.479L285.121 138.752L289.844 141.479L285.121 144.206L280.398 141.479Z" fill="white"/>
<path d="M289.844 136.026L294.567 133.299L299.29 136.026L294.567 138.752L289.844 136.026Z" fill="white"/>
</g>
<defs>
<clipPath id="clip0_1317_155">
<rect width="174.511" height="174.511" fill="white" transform="matrix(0.866044 -0.499967 0.866044 0.499967 112.734 134.663)"/>
</clipPath>
</defs>
</svg>
