<?xml version="1.0" encoding="utf-8"?>
<svg viewBox="0 0 825.85 564.67" width="825.85" height="564.67" xmlns="http://www.w3.org/2000/svg">
  <defs>
    <style>.cls-1{fill:#f4f7f9;}.cls-2{fill:#d3dae8;}.cls-3{fill:#edf0f2;}.cls-4{fill:#ffbe33;}.cls-5{fill:#ffe264;}.cls-6{fill:#419efa;}.cls-7{fill:#a1ddff;}.cls-8{fill:#f7741c;}.cls-9{fill:#ff8939;}.cls-10,.cls-11,.cls-13,.cls-14,.cls-15,.cls-16,.cls-20,.cls-21,.cls-22{fill:none;stroke-linecap:round;stroke-linejoin:round;}.cls-10,.cls-11{stroke:#aad5fe;}.cls-10{stroke-width:6.62px;}.cls-11{stroke-width:2.21px;}.cls-12{fill:#b4bfd6;}.cls-13,.cls-14{stroke:#b4bfd6;}.cls-13{stroke-width:2.03px;}.cls-14{stroke-width:1.44px;}.cls-15{stroke:#d3dae8;stroke-width:17.03px;}.cls-16{stroke:#bac2ce;stroke-width:1.6px;}.cls-17{fill:#6fb7ff;}.cls-18{fill:#f9a01a;}.cls-19{fill:#fff;}.cls-20{stroke:#fff;opacity:0.2;}.cls-20,.cls-21{stroke-width:1.6px;}.cls-21{stroke:#4ea3ea;}.cls-22{stroke:#288cdd;stroke-width:4.26px;}.cls-23{fill:#288cdd;}.cls-24{font-size:32.43px;fill:#184ec9;font-family:Montserrat-Bold, Montserrat;font-weight:700;}</style>
  </defs>
  <path class="cls-1" d="M821.51,171.79,710.26,236.06a20.26,20.26,0,0,1-20.26,0L575.79,170.42a8.68,8.68,0,0,1,0-15L688.48,90.27a17.38,17.38,0,0,1,17.37,0l115.66,66.48a8.68,8.68,0,0,1,0,15"/>
  <path class="cls-2" d="M820,145.7,708.75,210a20.27,20.27,0,0,1-20.27,0l-114.2-65.65c-3.17-1.82-4.31-4.79-4.31-8.34s0-19.69,0-19.69L687,64.18a17.37,17.37,0,0,1,17.36,0l120,52.57v21.43A8.61,8.61,0,0,1,820,145.7Z"/>
  <path class="cls-3" d="M820,125,708.75,189.3a20.32,20.32,0,0,1-20.27,0l-114.2-65.65a8.68,8.68,0,0,1,0-15L687,43.51a17.37,17.37,0,0,1,17.36,0L820,110a8.68,8.68,0,0,1,0,15"/>
  <path class="cls-1" d="M808.44,513.54,723.53,562.6a15.49,15.49,0,0,1-15.47,0l-87.17-50.11a6.63,6.63,0,0,1,0-11.48l86-49.69a13.23,13.23,0,0,1,13.25,0l88.28,50.74a6.63,6.63,0,0,1,0,11.48"/>
  <path class="cls-2" d="M807.28,493.63l-84.91,49a15.44,15.44,0,0,1-15.47,0l-87.17-50.1c-2.42-1.4-3.28-3.66-3.28-6.37s0-15,0-15l89.33-39.78a13.28,13.28,0,0,1,13.25,0l91.6,40.13v16.36A6.58,6.58,0,0,1,807.28,493.63Z"/>
  <path class="cls-3" d="M807.28,477.85l-84.91,49a15.44,15.44,0,0,1-15.47,0l-87.17-50.1a6.63,6.63,0,0,1,0-11.48l86-49.7a13.28,13.28,0,0,1,13.25,0l88.28,50.75a6.63,6.63,0,0,1,0,11.48"/>
  <path class="cls-1" d="M194.6,360.93,109.68,410a15.42,15.42,0,0,1-15.46,0L7,359.88A6.63,6.63,0,0,1,7,348.4l86-49.7a13.3,13.3,0,0,1,13.26,0l88.28,50.75a6.63,6.63,0,0,1,0,11.48"/>
  <path class="cls-2" d="M193.44,341l-84.92,49.06a15.47,15.47,0,0,1-15.46,0L5.88,340c-2.41-1.39-3.28-3.66-3.28-6.36s0-15,0-15L91.9,278.79a13.25,13.25,0,0,1,13.26,0l91.59,40.12v16.36A6.56,6.56,0,0,1,193.44,341Z"/>
  <path class="cls-3" d="M193.44,325.23l-84.92,49.06a15.47,15.47,0,0,1-15.46,0L5.88,324.18a6.63,6.63,0,0,1,0-11.48L91.9,263a13.25,13.25,0,0,1,13.26,0l88.28,50.74a6.63,6.63,0,0,1,0,11.48"/>
  <polygon class="cls-4" points="154.52 327.12 135.47 338.08 63.57 235.66 82.62 224.7 154.52 327.12"/>
  <polygon class="cls-4" points="82.62 315.65 63.57 288.51 135.47 247.13 154.52 274.27 82.62 315.65"/>
  <polygon class="cls-5" points="141.7 334.48 122.65 345.44 50.75 243.02 69.8 232.06 141.7 334.48"/>
  <polygon class="cls-5" points="69.8 323.01 50.75 295.87 122.65 254.49 141.7 281.63 69.8 323.01"/>
  <polygon class="cls-6" points="773.39 474.4 754.34 485.37 682.44 382.95 701.49 371.98 773.39 474.4"/>
  <polygon class="cls-6" points="701.49 462.93 682.44 435.79 754.34 394.41 773.39 421.55 701.49 462.93"/>
  <polygon class="cls-7" points="760.57 481.76 741.52 492.72 669.62 390.3 688.67 379.34 760.57 481.76"/>
  <polygon class="cls-7" points="688.67 470.29 669.62 443.15 741.52 401.77 760.57 428.91 688.67 470.29"/>
  <polygon class="cls-8" points="730.03 118.02 708.07 130.65 625.22 12.64 647.18 0 730.03 118.02"/>
  <polygon class="cls-8" points="647.18 104.81 625.22 73.53 708.07 25.85 730.03 57.12 647.18 104.81"/>
  <polygon class="cls-9" points="715.26 126.5 693.3 139.13 610.45 21.11 632.4 8.48 715.26 126.5"/>
  <polygon class="cls-9" points="632.4 113.28 610.45 82.01 693.3 34.33 715.26 65.6 632.4 113.28"/>
  <line class="cls-10" x1="12.5" y1="166.45" x2="53.95" y2="142.52"/>
  <line class="cls-10" x1="36.41" y1="168.9" x2="54.1" y2="158.7"/>
  <line class="cls-10" x1="12.5" y1="182.7" x2="25.53" y2="175.18"/>
  <circle class="cls-12" cx="566.28" cy="82.74" r="6.67"/>
  <path class="cls-13" d="M765.39,35.27C790,59.47,784.53,91,748.75,111.68c-42.52,24.54-111.66,24.42-154.45-.28s-43-64.62-.48-89.17"/>
  <path class="cls-14" d="M732.33,42.56c10,13.79,5.5,30.31-13.61,41.5-25.15,14.73-66.07,14.66-91.39-.17-19.74-11.56-24.17-28.68-13.22-42.65"/>
  <path class="cls-1" d="M443.4,334.43c-23.75,13.72-62.39,13.65-86.29-.15s-24-36.11-.27-49.83,62.39-13.64,86.29.16S467.16,320.72,443.4,334.43Z"/>
  <path class="cls-15" d="M377.71,194.94s-92-23.35-87.56-72C291.9,103.65,318.51,81,349,76.67"/>
  <path class="cls-16" d="M363.08,180.78a9.75,9.75,0,0,1,6.22,11.84c-1.45,5-7,7.68-12.36,5.82"/>
  <path class="cls-16" d="M345.9,174a9.85,9.85,0,0,1,5,5.14,9.43,9.43,0,0,1,.13,7.18,8.81,8.81,0,0,1-5.16,5,10,10,0,0,1-7.68-.34"/>
  <path class="cls-16" d="M329.75,165.55a8.77,8.77,0,0,1,2.7,2.43,9.78,9.78,0,0,1,1,10.32,8.7,8.7,0,0,1-5.68,4.47A9.76,9.76,0,0,1,324,183a11.08,11.08,0,0,1-3.86-1.41"/>
  <path class="cls-16" d="M315.45,155.22A9.67,9.67,0,0,1,317.6,158a11.51,11.51,0,0,1,1,3.35,9.89,9.89,0,0,1-1.7,7,8.49,8.49,0,0,1-6.28,3.55,9.09,9.09,0,0,1-3.87-.49,10.54,10.54,0,0,1-3.67-2.12"/>
  <path class="cls-16" d="M304.61,142.76a9.42,9.42,0,0,1,1.17,6.42,10.11,10.11,0,0,1-3.27,6.31,8.34,8.34,0,0,1-7,2,10.47,10.47,0,0,1-6.77-4.87"/>
  <path class="cls-16" d="M299.48,128.69c0,.22,0,.42,0,.66a4.84,4.84,0,0,1,0,.76,7.24,7.24,0,0,1-.26,1.51,13.31,13.31,0,0,1-1.33,2.94,11.52,11.52,0,0,1-5.48,4.57,7.72,7.72,0,0,1-7.21-.89,8.66,8.66,0,0,1-2.83-3.07,12.54,12.54,0,0,1-.95-2.1,11,11,0,0,1-.36-1.15,8.92,8.92,0,0,1-.19-1.32"/>
  <path class="cls-16" d="M302.54,115.44a8.92,8.92,0,0,1-4.67,4,11.89,11.89,0,0,1-7.06.74,7.57,7.57,0,0,1-5.52-4.77,10.67,10.67,0,0,1,.75-8.72"/>
  <path class="cls-16" d="M312.58,103.12a9.42,9.42,0,0,1-6.21,2.28,10.59,10.59,0,0,1-6.76-2.27,8.13,8.13,0,0,1-3-6.61,10.45,10.45,0,0,1,3.63-7.41"/>
  <path class="cls-16" d="M326.63,93.71a9.6,9.6,0,0,1-6.78.66A10.1,10.1,0,0,1,314,90.3a8.36,8.36,0,0,1-1.06-7.17A10.26,10.26,0,0,1,318.17,77"/>
  <path class="cls-16" d="M342.84,87.58A9.7,9.7,0,0,1,336,86.8a9.92,9.92,0,0,1-4.84-5.28,8.43,8.43,0,0,1,.54-7.22,10.23,10.23,0,0,1,6.36-4.79"/>
  <path class="cls-17" d="M439.83,256.58a24,24,0,0,0,6.28-5.13,15.87,15.87,0,0,0-.49-3.1,16.61,16.61,0,0,0-20.35-11.75L385.7,247.21c-4,1-6.43,4.09-7.5,8.08C399.05,264.25,425.07,265.1,439.83,256.58Z"/>
  <path class="cls-17" d="M366.18,229A16.31,16.31,0,0,0,352,220.85c-3.89,9.55,2.56,21.43,18.24,30.48,1.89,1.09,3.86,2.07,5.88,3,1.46-2.51,1.79-5,.53-7.2Z"/>
  <path class="cls-17" d="M449,247c-1.51,3.62-4.54,6.9-9.11,9.54-16.71,9.64-47.87,7.3-69.61-5.24-16.3-9.43-22.67-21.9-17.75-31.63L364,192.36l5.28-12.52,64.47,15.46,8,21.45,8,21.33A15.27,15.27,0,0,1,449,247Z"/>
  <path class="cls-18" d="M362.63,42.74l-12.8.48-3.68,51.06a12.34,12.34,0,0,0,0,1.49,10.19,10.19,0,1,0,20.33-1.49Z"/>
  <path class="cls-6" d="M448.3,248.31c-3.18-8.22-9.18-14.07-14.26-18.72-27-24.67-58.15-38.79-70-37.23l5.28-12.52,64.47,15.46,8,21.45,8,21.33A14.15,14.15,0,0,1,448.3,248.31Z"/>
  <path class="cls-4" d="M360.8,40.5c2.5,1.45,2.49,3.79,0,5.25a10.05,10.05,0,0,1-9.08,0c-2.5-1.45-2.49-3.8,0-5.25a10.05,10.05,0,0,1,9.08,0"/>
  <path class="cls-17" d="M476.88,169.81c-16.65,29.8-61.4,36.49-99.94,14.95s-56.3-63.15-39.65-92.95,61.39-36.48,99.94-14.94S493.52,140,476.88,169.81Z"/>
  <path class="cls-19" d="M433.15,169.75c-2.39,10.38-23.9,16.17-49.69,5.17-27-11.53-42.59-41.81-40.6-53.5s23.86-15,48.15-1,44.52,38.92,42.14,49.3"/>
  <path class="cls-20" d="M433.79,172.65c-3.58,8.75-24.54,15.72-50.33,4.71-27-11.53-43.89-42.27-41.9-55.39"/>
  <path class="cls-20" d="M351.34,75.92s27.22-9.69,62.29,3.23,52.6,36,60.9,50.29"/>
  <path class="cls-18" d="M479.81,88.2H467l-2.17,30.43c.43,8.51,8.91,18.55,18.51,25.37Z"/>
  <path class="cls-4" d="M477.92,85.42c2.5,1.44,2.49,3.79,0,5.24a10,10,0,0,1-9.08,0c-2.5-1.44-2.48-3.79,0-5.24a10,10,0,0,1,9.08,0"/>
  <path class="cls-4" d="M477.92,85.42c2.5,1.44,2.49,3.79,0,5.24a10,10,0,0,1-9.08,0c-2.5-1.44-2.48-3.79,0-5.24A10,10,0,0,1,477.92,85.42Z"/>
  <path class="cls-21" d="M464.61,116.75c0,5.77,4.26,18.25,17.88,26.76"/>
  <path class="cls-20" d="M462.88,114.45c0,5.77,3.41,22.31,19.5,30.79"/>
  <path class="cls-21" d="M433.15,169.75c-2.39,10.38-23.9,16.17-49.69,5.17-27-11.53-42.59-41.81-40.6-53.5s23.86-15,48.15-1,44.52,38.92,42.14,49.3"/>
  <path class="cls-15" d="M435.11,205.8s64.86,36.13,90.14-.21c32-46-44.21-78.41-75.85-79.79"/>
  <path class="cls-16" d="M447.81,222a9.59,9.59,0,0,1-5.37-5.23,8.86,8.86,0,0,1,.18-7.18,9.75,9.75,0,0,1,5.2-4.89,9.25,9.25,0,0,1,6.9-.06"/>
  <path class="cls-16" d="M466.67,228.16a9.68,9.68,0,0,1-6.07-4.54,8.84,8.84,0,0,1-.68-7.16,9.79,9.79,0,0,1,4.57-5.47,9.18,9.18,0,0,1,6.75-1"/>
  <path class="cls-16" d="M486.9,231.29a11.39,11.39,0,0,1-2.13-.29,9.84,9.84,0,0,1-1.9-.73,8.73,8.73,0,0,1-3-2.35A8.6,8.6,0,0,1,478,221a10.12,10.12,0,0,1,3.59-6.16,10.39,10.39,0,0,1,2.93-1.69,8,8,0,0,1,1.61-.39,7.15,7.15,0,0,1,1.67-.11"/>
  <path class="cls-16" d="M508.5,228.86a10.08,10.08,0,0,1-4.45.41,8.48,8.48,0,0,1-3.77-1.34,8.13,8.13,0,0,1-2.6-2.62,8.48,8.48,0,0,1-1.14-3.55,10.2,10.2,0,0,1,.32-3.68,11.49,11.49,0,0,1,1.4-3.21,12.13,12.13,0,0,1,2.11-2.43A8.56,8.56,0,0,1,503,211"/>
  <path class="cls-16" d="M528.25,216.8a12.11,12.11,0,0,1-3.85,2.61,6.94,6.94,0,0,1-2.07.57,9.42,9.42,0,0,1-2,.08,7.61,7.61,0,0,1-6.14-3.86,12.3,12.3,0,0,1-1.54-6.89,9.47,9.47,0,0,1,.21-1.56c.11-.49.27-.95.41-1.44a5.91,5.91,0,0,1,1.49-2.4"/>
  <path class="cls-16" d="M539.68,197.29a9.7,9.7,0,0,1-2.25,3.87,8.36,8.36,0,0,1-3.27,2.34A8,8,0,0,1,527,203a11.1,11.1,0,0,1-4.6-5.39,12,12,0,0,1-.78-3.1,9.26,9.26,0,0,1,.34-3"/>
  <path class="cls-16" d="M540.88,173.9a10.11,10.11,0,0,1-1.66,8.57,7.54,7.54,0,0,1-6.66,2.91,12.66,12.66,0,0,1-6.55-2.6,8.49,8.49,0,0,1-3.32-4.61"/>
  <path class="cls-16" d="M530.33,153.7a10.11,10.11,0,0,1,2.08,3.86,9.67,9.67,0,0,1,.4,2,10.26,10.26,0,0,1-.1,2,7.92,7.92,0,0,1-1.37,3.44,8.37,8.37,0,0,1-2.83,2.44,10.57,10.57,0,0,1-3.51,1.12,12,12,0,0,1-3.49,0,10.47,10.47,0,0,1-1.56-.37,8.84,8.84,0,0,1-1.49-.57,8.7,8.7,0,0,1-2.43-1.91"/>
  <path class="cls-16" d="M514.57,139.7a9.89,9.89,0,0,1,4.2,6.57,8.4,8.4,0,0,1-2.06,6.9,10.45,10.45,0,0,1-6.27,3.36A9,9,0,0,1,504,155.1"/>
  <path class="cls-16" d="M497,129.8a9.47,9.47,0,0,1,3.21,2.36,9.33,9.33,0,0,1,1.9,3.23,8.75,8.75,0,0,1-.68,7.16,9.91,9.91,0,0,1-5.52,4.51,9.75,9.75,0,0,1-3.42.49,9.31,9.31,0,0,1-3.39-.82"/>
  <path class="cls-16" d="M478.58,122.59a10.19,10.19,0,0,1,3.45,1.92,9.92,9.92,0,0,1,2.28,2.95,8.87,8.87,0,0,1,.29,7.18,9.79,9.79,0,0,1-4.87,5.22,9.2,9.2,0,0,1-3.35.92,8.58,8.58,0,0,1-3.5-.39"/>
  <path class="cls-16" d="M459.34,117.75a9.57,9.57,0,0,1,3.71,1.47,9.26,9.26,0,0,1,2.65,2.64,8.82,8.82,0,0,1,1.17,7.08,9.83,9.83,0,0,1-4.18,5.79,9.94,9.94,0,0,1-3.19,1.34,9.51,9.51,0,0,1-3.49.07"/>
  <path class="cls-22" d="M366.3,186.19c-2.54,2.31-6,11.08-6,15.69"/>
  <path class="cls-22" d="M439.23,198.4c-3-.21-8.7,0-10.93,6.28S430.21,217.57,439,219"/>
  <path class="cls-6" d="M367.71,229a16,16,0,1,0-27.65,16l10.38,18,27.65-16Z"/>
  <path class="cls-23" d="M378.32,246.86c2.7,4.69-1.34,12.09-9.05,16.54s-16.14,4.25-18.85-.44,1.34-12.09,9.05-16.54,16.14-4.25,18.85.44"/>
  <path class="cls-20" d="M348.86,259.1c.44-4.53,4.44-10.08,10.26-13.44,5.66-3.27,12.13-4,16.24-2.37"/>
  <path class="cls-6" d="M377.17,264.63c-2.28-8.51-.17-17.12,6.94-18.94l38-10.2a16,16,0,1,1,8.26,30.84l-38,10.19c-6.73,1.61-13.29-4.76-15.21-11.89"/>
  <path d="M 398.784 151.844 C 398.784 158.464 392.295 161.507 385.966 158.496 C 378.879 155.124 374.315 147.527 374.315 140.909 C 374.315 134.289 380.986 131.109 387.131 134.439 C 393.278 137.771 398.784 145.226 398.784 151.844" style="fill: rgb(24, 78, 201); fill-opacity: 1; fill-rule: nonzero; stroke: none;" id="path1102" transform="matrix(0.99191, -0.126946, 0.126946, 0.99191, -15.45536, 50.255188)"/>
  <path d="M 394.701 146.464 C 394.701 149.356 391.937 150.686 389.238 149.369 C 386.217 147.898 384.272 144.579 384.272 141.688 C 384.272 138.798 387.117 137.408 389.735 138.863 C 392.354 140.318 394.701 143.574 394.701 146.464" style="fill: rgb(255, 255, 255); fill-opacity: 1; fill-rule: nonzero; stroke: none;" id="path1106" transform="matrix(0.989162, -0.146831, 0.146831, 0.989162, -16.933924, 58.750389)"/>
</svg>