<svg width="1406" height="681" viewBox="0 0 1406 681" fill="none" xmlns="http://www.w3.org/2000/svg">
<path d="M150 258.5L6 341V678H1400V6L1228.5 125L1173.5 93L1016.5 167L843 93L707 197L573.5 114L417 197L378.5 167L184 279.5L150 258.5Z" fill="url(#paint0_linear)"/>
<path fill-rule="evenodd" clip-rule="evenodd" d="M1400.82 5.43001C1401.14 5.88376 1401.02 6.50683 1400.57 6.82168L1229.07 125.822C1228.75 126.043 1228.33 126.06 1228 125.864L1173.45 94.1286L1016.93 167.905C1016.67 168.026 1016.37 168.032 1016.11 167.92L843.144 94.1487L707.608 197.794C707.277 198.047 706.825 198.069 706.472 197.849L573.461 115.153L417.469 197.884C417.121 198.068 416.696 198.031 416.386 197.789L378.417 168.203L184.501 280.366C184.182 280.55 183.788 280.544 183.475 280.351L149.981 259.664L6.49728 341.868C6.01807 342.142 5.40703 341.976 5.13248 341.497C4.85794 341.018 5.02385 340.407 5.50306 340.132L149.503 257.632C149.821 257.45 150.214 257.457 150.526 257.649L184.017 278.335L378 166.134C378.352 165.93 378.793 165.961 379.115 166.211L417.104 195.813L573.032 113.117C573.346 112.95 573.726 112.963 574.028 113.151L706.942 195.786L842.393 92.2057C842.679 91.9868 843.061 91.9389 843.393 92.0803L1016.48 165.904L1173.07 92.0955C1173.37 91.9553 1173.72 91.9703 1174 92.1357L1228.45 123.816L1399.43 5.1785C1399.88 4.86365 1400.51 4.97626 1400.82 5.43001Z" fill="#CFEDFC"/>
<path fill-rule="evenodd" clip-rule="evenodd" d="M6.5 346C7.05228 346 7.5 346.448 7.5 347V350.464C7.5 351.016 7.05228 351.464 6.5 351.464C5.94772 351.464 5.5 351.016 5.5 350.464V347C5.5 346.448 5.94772 346 6.5 346ZM6.5 356.391C7.05228 356.391 7.5 356.838 7.5 357.391V364.318C7.5 364.87 7.05228 365.318 6.5 365.318C5.94772 365.318 5.5 364.87 5.5 364.318V357.391C5.5 356.838 5.94772 356.391 6.5 356.391ZM6.5 370.245C7.05228 370.245 7.5 370.693 7.5 371.245V378.172C7.5 378.724 7.05228 379.172 6.5 379.172C5.94772 379.172 5.5 378.724 5.5 378.172V371.245C5.5 370.693 5.94772 370.245 6.5 370.245ZM6.5 384.099C7.05228 384.099 7.5 384.547 7.5 385.099V392.026C7.5 392.578 7.05228 393.026 6.5 393.026C5.94772 393.026 5.5 392.578 5.5 392.026V385.099C5.5 384.547 5.94772 384.099 6.5 384.099ZM6.5 397.953C7.05228 397.953 7.5 398.401 7.5 398.953V405.88C7.5 406.432 7.05228 406.88 6.5 406.88C5.94772 406.88 5.5 406.432 5.5 405.88V398.953C5.5 398.401 5.94772 397.953 6.5 397.953ZM6.5 411.807C7.05228 411.807 7.5 412.255 7.5 412.807V419.734C7.5 420.287 7.05228 420.734 6.5 420.734C5.94772 420.734 5.5 420.287 5.5 419.734V412.807C5.5 412.255 5.94772 411.807 6.5 411.807ZM6.5 425.661C7.05228 425.661 7.5 426.109 7.5 426.661V433.589C7.5 434.141 7.05228 434.589 6.5 434.589C5.94772 434.589 5.5 434.141 5.5 433.589V426.661C5.5 426.109 5.94772 425.661 6.5 425.661ZM6.5 439.516C7.05228 439.516 7.5 439.963 7.5 440.516V447.443C7.5 447.995 7.05228 448.443 6.5 448.443C5.94772 448.443 5.5 447.995 5.5 447.443V440.516C5.5 439.963 5.94772 439.516 6.5 439.516ZM6.5 453.37C7.05228 453.37 7.5 453.818 7.5 454.37V461.297C7.5 461.849 7.05228 462.297 6.5 462.297C5.94772 462.297 5.5 461.849 5.5 461.297V454.37C5.5 453.818 5.94772 453.37 6.5 453.37ZM6.5 467.224C7.05228 467.224 7.5 467.672 7.5 468.224V475.151C7.5 475.703 7.05228 476.151 6.5 476.151C5.94772 476.151 5.5 475.703 5.5 475.151V468.224C5.5 467.672 5.94772 467.224 6.5 467.224ZM6.5 481.078C7.05228 481.078 7.5 481.526 7.5 482.078V489.005C7.5 489.558 7.05228 490.005 6.5 490.005C5.94772 490.005 5.5 489.558 5.5 489.005V482.078C5.5 481.526 5.94772 481.078 6.5 481.078ZM6.5 494.932C7.05228 494.932 7.5 495.38 7.5 495.932V502.859C7.5 503.412 7.05228 503.859 6.5 503.859C5.94772 503.859 5.5 503.412 5.5 502.859V495.932C5.5 495.38 5.94772 494.932 6.5 494.932ZM6.5 508.786C7.05228 508.786 7.5 509.234 7.5 509.786V516.714C7.5 517.266 7.05228 517.714 6.5 517.714C5.94772 517.714 5.5 517.266 5.5 516.714V509.786C5.5 509.234 5.94772 508.786 6.5 508.786ZM6.5 522.641C7.05228 522.641 7.5 523.088 7.5 523.641V530.568C7.5 531.12 7.05228 531.568 6.5 531.568C5.94772 531.568 5.5 531.12 5.5 530.568V523.641C5.5 523.088 5.94772 522.641 6.5 522.641ZM6.5 536.495C7.05228 536.495 7.5 536.942 7.5 537.495V544.422C7.5 544.974 7.05228 545.422 6.5 545.422C5.94772 545.422 5.5 544.974 5.5 544.422V537.495C5.5 536.942 5.94772 536.495 6.5 536.495ZM6.5 550.349C7.05228 550.349 7.5 550.797 7.5 551.349V558.276C7.5 558.828 7.05228 559.276 6.5 559.276C5.94772 559.276 5.5 558.828 5.5 558.276V551.349C5.5 550.797 5.94772 550.349 6.5 550.349ZM6.5 564.203C7.05228 564.203 7.5 564.651 7.5 565.203V572.13C7.5 572.682 7.05228 573.13 6.5 573.13C5.94772 573.13 5.5 572.682 5.5 572.13V565.203C5.5 564.651 5.94772 564.203 6.5 564.203ZM6.5 578.057C7.05228 578.057 7.5 578.505 7.5 579.057V585.984C7.5 586.537 7.05228 586.984 6.5 586.984C5.94772 586.984 5.5 586.537 5.5 585.984V579.057C5.5 578.505 5.94772 578.057 6.5 578.057ZM6.5 591.911C7.05228 591.911 7.5 592.359 7.5 592.911V599.838C7.5 600.391 7.05228 600.838 6.5 600.838C5.94772 600.838 5.5 600.391 5.5 599.838V592.911C5.5 592.359 5.94772 591.911 6.5 591.911ZM6.5 605.766C7.05228 605.766 7.5 606.213 7.5 606.766V613.693C7.5 614.245 7.05228 614.693 6.5 614.693C5.94772 614.693 5.5 614.245 5.5 613.693V606.766C5.5 606.213 5.94772 605.766 6.5 605.766ZM6.5 619.62C7.05228 619.62 7.5 620.067 7.5 620.62V627.547C7.5 628.099 7.05228 628.547 6.5 628.547C5.94772 628.547 5.5 628.099 5.5 627.547V620.62C5.5 620.067 5.94772 619.62 6.5 619.62ZM6.5 633.474C7.05228 633.474 7.5 633.922 7.5 634.474V641.401C7.5 641.953 7.05228 642.401 6.5 642.401C5.94772 642.401 5.5 641.953 5.5 641.401V634.474C5.5 633.922 5.94772 633.474 6.5 633.474ZM6.5 647.328C7.05228 647.328 7.5 647.776 7.5 648.328V655.255C7.5 655.807 7.05228 656.255 6.5 656.255C5.94772 656.255 5.5 655.807 5.5 655.255V648.328C5.5 647.776 5.94772 647.328 6.5 647.328ZM6.5 661.182C7.05228 661.182 7.5 661.63 7.5 662.182V669.109C7.5 669.662 7.05228 670.109 6.5 670.109C5.94772 670.109 5.5 669.662 5.5 669.109V662.182C5.5 661.63 5.94772 661.182 6.5 661.182ZM6.5 675.036C7.05228 675.036 7.5 675.484 7.5 676.036V679.5C7.5 680.052 7.05228 680.5 6.5 680.5C5.94772 680.5 5.5 680.052 5.5 679.5V676.036C5.5 675.484 5.94772 675.036 6.5 675.036Z" fill="url(#paint1_linear)"/>
<path fill-rule="evenodd" clip-rule="evenodd" d="M150 264C150.552 264 151 264.448 151 265L151 268.45C151 269.002 150.552 269.45 150 269.45C149.448 269.45 149 269.002 149 268.45L149 265C149 264.448 149.448 264 150 264ZM150 274.35C150.552 274.35 151 274.798 151 275.35L151 282.25C151 282.802 150.552 283.25 150 283.25C149.448 283.25 149 282.802 149 282.25L149 275.35C149 274.798 149.448 274.35 150 274.35ZM150 288.15C150.552 288.15 151 288.598 151 289.15L151 296.05C151 296.602 150.552 297.05 150 297.05C149.448 297.05 149 296.602 149 296.05L149 289.15C149 288.598 149.448 288.15 150 288.15ZM150 301.95C150.552 301.95 151 302.398 151 302.95L151 309.85C151 310.402 150.552 310.85 150 310.85C149.448 310.85 149 310.402 149 309.85L149 302.95C149 302.398 149.448 301.95 150 301.95ZM150 315.75C150.552 315.75 151 316.198 151 316.75L151 323.65C151 324.202 150.552 324.65 150 324.65C149.448 324.65 149 324.202 149 323.65L149 316.75C149 316.198 149.448 315.75 150 315.75ZM150 329.55C150.552 329.55 151 329.998 151 330.55L151 337.45C151 338.002 150.552 338.45 150 338.45C149.448 338.45 149 338.002 149 337.45L149 330.55C149 329.998 149.448 329.55 150 329.55ZM150 343.35C150.552 343.35 151 343.798 151 344.35L151 351.25C151 351.802 150.552 352.25 150 352.25C149.448 352.25 149 351.802 149 351.25L149 344.35C149 343.798 149.448 343.35 150 343.35ZM150 357.15C150.552 357.15 151 357.598 151 358.15L151 365.05C151 365.602 150.552 366.05 150 366.05C149.448 366.05 149 365.602 149 365.05L149 358.15C149 357.598 149.448 357.15 150 357.15ZM150 370.95C150.552 370.95 151 371.398 151 371.95L151 378.85C151 379.402 150.552 379.85 150 379.85C149.448 379.85 149 379.402 149 378.85L149 371.95C149 371.398 149.448 370.95 150 370.95ZM150 384.75C150.552 384.75 151 385.198 151 385.75L151 392.65C151 393.202 150.552 393.65 150 393.65C149.448 393.65 149 393.202 149 392.65L149 385.75C149 385.198 149.448 384.75 150 384.75ZM150 398.55C150.552 398.55 151 398.998 151 399.55L151 406.45C151 407.002 150.552 407.45 150 407.45C149.448 407.45 149 407.002 149 406.45L149 399.55C149 398.998 149.448 398.55 150 398.55ZM150 412.35C150.552 412.35 151 412.798 151 413.35L151 420.25C151 420.802 150.552 421.25 150 421.25C149.448 421.25 149 420.802 149 420.25L149 413.35C149 412.798 149.448 412.35 150 412.35ZM150 426.15C150.552 426.15 151 426.598 151 427.15L151 434.05C151 434.602 150.552 435.05 150 435.05C149.448 435.05 149 434.602 149 434.05L149 427.15C149 426.598 149.448 426.15 150 426.15ZM150 439.95C150.552 439.95 151 440.398 151 440.95L151 447.85C151 448.402 150.552 448.85 150 448.85C149.448 448.85 149 448.402 149 447.85L149 440.95C149 440.398 149.448 439.95 150 439.95ZM150 453.75C150.552 453.75 151 454.198 151 454.75L151 461.65C151 462.202 150.552 462.65 150 462.65C149.448 462.65 149 462.202 149 461.65L149 454.75C149 454.198 149.448 453.75 150 453.75ZM150 467.55C150.552 467.55 151 467.998 151 468.55L151 475.45C151 476.002 150.552 476.45 150 476.45C149.448 476.45 149 476.002 149 475.45L149 468.55C149 467.998 149.448 467.55 150 467.55ZM150 481.35C150.552 481.35 151 481.798 151 482.35L151 489.25C151 489.802 150.552 490.25 150 490.25C149.448 490.25 149 489.802 149 489.25L149 482.35C149 481.798 149.448 481.35 150 481.35ZM150 495.15C150.552 495.15 151 495.598 151 496.15L151 503.05C151 503.602 150.552 504.05 150 504.05C149.448 504.05 149 503.602 149 503.05L149 496.15C149 495.598 149.448 495.15 150 495.15ZM150 508.95C150.552 508.95 151 509.398 151 509.95L151 516.85C151 517.402 150.552 517.85 150 517.85C149.448 517.85 149 517.402 149 516.85L149 509.95C149 509.398 149.448 508.95 150 508.95ZM150 522.75C150.552 522.75 151 523.198 151 523.75L151 530.65C151 531.202 150.552 531.65 150 531.65C149.448 531.65 149 531.202 149 530.65L149 523.75C149 523.198 149.448 522.75 150 522.75ZM150 536.55C150.552 536.55 151 536.998 151 537.55L151 544.45C151 545.002 150.552 545.45 150 545.45C149.448 545.45 149 545.002 149 544.45L149 537.55C149 536.998 149.448 536.55 150 536.55ZM150 550.35C150.552 550.35 151 550.798 151 551.35L151 558.25C151 558.802 150.552 559.25 150 559.25C149.448 559.25 149 558.802 149 558.25L149 551.35C149 550.798 149.448 550.35 150 550.35ZM150 564.15C150.552 564.15 151 564.598 151 565.15L151 572.05C151 572.602 150.552 573.05 150 573.05C149.448 573.05 149 572.602 149 572.05L149 565.15C149 564.598 149.448 564.15 150 564.15ZM150 577.95C150.552 577.95 151 578.398 151 578.95L151 585.85C151 586.402 150.552 586.85 150 586.85C149.448 586.85 149 586.402 149 585.85L149 578.95C149 578.398 149.448 577.95 150 577.95ZM150 591.75C150.552 591.75 151 592.198 151 592.75L151 599.65C151 600.202 150.552 600.65 150 600.65C149.448 600.65 149 600.202 149 599.65L149 592.75C149 592.198 149.448 591.75 150 591.75ZM150 605.55C150.552 605.55 151 605.998 151 606.55L151 613.45C151 614.002 150.552 614.45 150 614.45C149.448 614.45 149 614.002 149 613.45L149 606.55C149 605.998 149.448 605.55 150 605.55ZM150 619.35C150.552 619.35 151 619.798 151 620.35L151 627.25C151 627.802 150.552 628.25 150 628.25C149.448 628.25 149 627.802 149 627.25L149 620.35C149 619.798 149.448 619.35 150 619.35ZM150 633.15C150.552 633.15 151 633.598 151 634.15L151 641.05C151 641.602 150.552 642.05 150 642.05C149.448 642.05 149 641.602 149 641.05L149 634.15C149 633.598 149.448 633.15 150 633.15ZM150 646.95C150.552 646.95 151 647.398 151 647.95L151 654.85C151 655.402 150.552 655.85 150 655.85C149.448 655.85 149 655.402 149 654.85L149 647.95C149 647.398 149.448 646.95 150 646.95ZM150 660.75C150.552 660.75 151 661.198 151 661.75L151 668.65C151 669.202 150.552 669.65 150 669.65C149.448 669.65 149 669.202 149 668.65L149 661.75C149 661.198 149.448 660.75 150 660.75ZM150 674.55C150.552 674.55 151 674.997 151 675.55L151 679C151 679.552 150.552 680 150 680C149.448 680 149 679.552 149 679L149 675.55C149 674.997 149.448 674.55 150 674.55Z" fill="url(#paint2_linear)"/>
<path fill-rule="evenodd" clip-rule="evenodd" d="M184 284C184.552 284 185 284.448 185 285L185 288.518C185 289.07 184.552 289.518 184 289.518C183.448 289.518 183 289.07 183 288.518L183 285C183 284.448 183.448 284 184 284ZM184 294.554C184.552 294.554 185 295.001 185 295.554L185 302.589C185 303.142 184.552 303.589 184 303.589C183.448 303.589 183 303.142 183 302.589L183 295.554C183 295.001 183.448 294.554 184 294.554ZM184 308.625C184.552 308.625 185 309.073 185 309.625L185 316.661C185 317.213 184.552 317.661 184 317.661C183.448 317.661 183 317.213 183 316.661L183 309.625C183 309.073 183.448 308.625 184 308.625ZM184 322.696C184.552 322.696 185 323.144 185 323.696L185 330.732C185 331.284 184.552 331.732 184 331.732C183.448 331.732 183 331.284 183 330.732L183 323.696C183 323.144 183.448 322.696 184 322.696ZM184 336.768C184.552 336.768 185 337.216 185 337.768L185 344.804C185 345.356 184.552 345.804 184 345.804C183.448 345.804 183 345.356 183 344.804L183 337.768C183 337.216 183.448 336.768 184 336.768ZM184 350.839C184.552 350.839 185 351.287 185 351.839L185 358.875C185 359.427 184.552 359.875 184 359.875C183.448 359.875 183 359.427 183 358.875L183 351.839C183 351.287 183.448 350.839 184 350.839ZM184 364.911C184.552 364.911 185 365.358 185 365.911L185 372.946C185 373.499 184.552 373.946 184 373.946C183.448 373.946 183 373.499 183 372.946L183 365.911C183 365.358 183.448 364.911 184 364.911ZM184 378.982C184.552 378.982 185 379.43 185 379.982L185 387.018C185 387.57 184.552 388.018 184 388.018C183.448 388.018 183 387.57 183 387.018L183 379.982C183 379.43 183.448 378.982 184 378.982ZM184 393.054C184.552 393.054 185 393.501 185 394.054L185 401.089C185 401.642 184.552 402.089 184 402.089C183.448 402.089 183 401.642 183 401.089L183 394.054C183 393.501 183.448 393.054 184 393.054ZM184 407.125C184.552 407.125 185 407.573 185 408.125L185 415.161C185 415.713 184.552 416.161 184 416.161C183.448 416.161 183 415.713 183 415.161L183 408.125C183 407.573 183.448 407.125 184 407.125ZM184 421.196C184.552 421.196 185 421.644 185 422.196L185 429.232C185 429.784 184.552 430.232 184 430.232C183.448 430.232 183 429.784 183 429.232L183 422.196C183 421.644 183.448 421.196 184 421.196ZM184 435.268C184.552 435.268 185 435.716 185 436.268L185 443.304C185 443.856 184.552 444.304 184 444.304C183.448 444.304 183 443.856 183 443.304L183 436.268C183 435.716 183.448 435.268 184 435.268ZM184 449.339C184.552 449.339 185 449.787 185 450.339L185 457.375C185 457.927 184.552 458.375 184 458.375C183.448 458.375 183 457.927 183 457.375L183 450.339C183 449.787 183.448 449.339 184 449.339ZM184 463.411C184.552 463.411 185 463.858 185 464.411L185 471.446C185 471.999 184.552 472.446 184 472.446C183.448 472.446 183 471.999 183 471.446L183 464.411C183 463.858 183.448 463.411 184 463.411ZM184 477.482C184.552 477.482 185 477.93 185 478.482L185 485.518C185 486.07 184.552 486.518 184 486.518C183.448 486.518 183 486.07 183 485.518L183 478.482C183 477.93 183.448 477.482 184 477.482ZM184 491.554C184.552 491.554 185 492.001 185 492.554L185 499.589C185 500.142 184.552 500.589 184 500.589C183.448 500.589 183 500.142 183 499.589L183 492.554C183 492.001 183.448 491.554 184 491.554ZM184 505.625C184.552 505.625 185 506.073 185 506.625L185 513.661C185 514.213 184.552 514.661 184 514.661C183.448 514.661 183 514.213 183 513.661L183 506.625C183 506.073 183.448 505.625 184 505.625ZM184 519.697C184.552 519.697 185 520.144 185 520.697L185 527.732C185 528.285 184.552 528.732 184 528.732C183.448 528.732 183 528.285 183 527.732L183 520.697C183 520.144 183.448 519.697 184 519.697ZM184 533.768C184.552 533.768 185 534.216 185 534.768L185 541.804C185 542.356 184.552 542.804 184 542.804C183.448 542.804 183 542.356 183 541.804L183 534.768C183 534.216 183.448 533.768 184 533.768ZM184 547.839C184.552 547.839 185 548.287 185 548.839L185 555.875C185 556.427 184.552 556.875 184 556.875C183.448 556.875 183 556.427 183 555.875L183 548.839C183 548.287 183.448 547.839 184 547.839ZM184 561.911C184.552 561.911 185 562.359 185 562.911L185 569.946C185 570.499 184.552 570.946 184 570.946C183.448 570.946 183 570.499 183 569.946L183 562.911C183 562.359 183.448 561.911 184 561.911ZM184 575.982C184.552 575.982 185 576.43 185 576.982L185 584.018C185 584.57 184.552 585.018 184 585.018C183.448 585.018 183 584.57 183 584.018L183 576.982C183 576.43 183.448 575.982 184 575.982ZM184 590.054C184.552 590.054 185 590.501 185 591.054L185 598.089C185 598.642 184.552 599.089 184 599.089C183.448 599.089 183 598.642 183 598.089L183 591.054C183 590.501 183.448 590.054 184 590.054ZM184 604.125C184.552 604.125 185 604.573 185 605.125L185 612.161C185 612.713 184.552 613.161 184 613.161C183.448 613.161 183 612.713 183 612.161L183 605.125C183 604.573 183.448 604.125 184 604.125ZM184 618.196C184.552 618.196 185 618.644 185 619.196L185 626.232C185 626.784 184.552 627.232 184 627.232C183.448 627.232 183 626.784 183 626.232L183 619.196C183 618.644 183.448 618.196 184 618.196ZM184 632.268C184.552 632.268 185 632.716 185 633.268L185 640.304C185 640.856 184.552 641.304 184 641.304C183.448 641.304 183 640.856 183 640.304L183 633.268C183 632.716 183.448 632.268 184 632.268ZM184 646.339C184.552 646.339 185 646.787 185 647.339L185 654.375C185 654.927 184.552 655.375 184 655.375C183.448 655.375 183 654.927 183 654.375L183 647.339C183 646.787 183.448 646.339 184 646.339ZM184 660.411C184.552 660.411 185 660.858 185 661.411L185 668.446C185 668.999 184.552 669.446 184 669.446C183.448 669.446 183 668.999 183 668.446L183 661.411C183 660.858 183.448 660.411 184 660.411ZM184 674.482C184.552 674.482 185 674.93 185 675.482L185 679C185 679.552 184.552 680 184 680C183.448 680 183 679.552 183 679L183 675.482C183 674.93 183.448 674.482 184 674.482Z" fill="url(#paint3_linear)"/>
<path fill-rule="evenodd" clip-rule="evenodd" d="M378 172C378.552 172 379 172.448 379 173L379 176.514C379 177.067 378.552 177.514 378 177.514C377.448 177.514 377 177.067 377 176.514L377 173C377 172.448 377.448 172 378 172ZM378 182.542C378.552 182.542 379 182.99 379 183.542L379 190.57C379 191.122 378.552 191.57 378 191.57C377.448 191.57 377 191.122 377 190.57L377 183.542C377 182.99 377.448 182.542 378 182.542ZM378 196.598C378.552 196.598 379 197.045 379 197.598L379 204.625C379 205.178 378.552 205.625 378 205.625C377.448 205.625 377 205.178 377 204.625L377 197.598C377 197.045 377.448 196.598 378 196.598ZM378 210.653C378.552 210.653 379 211.101 379 211.653L379 218.681C379 219.233 378.552 219.681 378 219.681C377.448 219.681 377 219.233 377 218.681L377 211.653C377 211.101 377.448 210.653 378 210.653ZM378 224.709C378.552 224.709 379 225.156 379 225.709L379 232.736C379 233.289 378.552 233.736 378 233.736C377.448 233.736 377 233.289 377 232.736L377 225.709C377 225.156 377.448 224.709 378 224.709ZM378 238.764C378.552 238.764 379 239.212 379 239.764L379 246.792C379 247.344 378.552 247.792 378 247.792C377.448 247.792 377 247.344 377 246.792L377 239.764C377 239.212 377.448 238.764 378 238.764ZM378 252.82C378.552 252.82 379 253.267 379 253.82L379 260.847C379 261.4 378.552 261.847 378 261.847C377.448 261.847 377 261.4 377 260.847L377 253.82C377 253.267 377.448 252.82 378 252.82ZM378 266.875C378.552 266.875 379 267.323 379 267.875L379 274.903C379 275.455 378.552 275.903 378 275.903C377.448 275.903 377 275.455 377 274.903L377 267.875C377 267.323 377.448 266.875 378 266.875ZM378 280.931C378.552 280.931 379 281.379 379 281.931L379 288.959C379 289.511 378.552 289.959 378 289.959C377.448 289.959 377 289.511 377 288.959L377 281.931C377 281.379 377.448 280.931 378 280.931ZM378 294.986C378.552 294.986 379 295.434 379 295.986L379 303.014C379 303.566 378.552 304.014 378 304.014C377.448 304.014 377 303.566 377 303.014L377 295.986C377 295.434 377.448 294.986 378 294.986ZM378 309.042C378.552 309.042 379 309.49 379 310.042L379 317.07C379 317.622 378.552 318.07 378 318.07C377.448 318.07 377 317.622 377 317.07L377 310.042C377 309.49 377.448 309.042 378 309.042ZM378 323.097C378.552 323.097 379 323.545 379 324.097L379 331.125C379 331.678 378.552 332.125 378 332.125C377.448 332.125 377 331.678 377 331.125L377 324.097C377 323.545 377.448 323.097 378 323.097ZM378 337.153C378.552 337.153 379 337.601 379 338.153L379 345.181C379 345.733 378.552 346.181 378 346.181C377.448 346.181 377 345.733 377 345.181L377 338.153C377 337.601 377.448 337.153 378 337.153ZM378 351.209C378.552 351.209 379 351.656 379 352.209L379 359.236C379 359.789 378.552 360.236 378 360.236C377.448 360.236 377 359.789 377 359.236L377 352.209C377 351.656 377.448 351.209 378 351.209ZM378 365.264C378.552 365.264 379 365.712 379 366.264L379 373.292C379 373.844 378.552 374.292 378 374.292C377.448 374.292 377 373.844 377 373.292L377 366.264C377 365.712 377.448 365.264 378 365.264ZM378 379.32C378.552 379.32 379 379.767 379 380.32L379 387.347C379 387.9 378.552 388.347 378 388.347C377.448 388.347 377 387.9 377 387.347L377 380.32C377 379.767 377.448 379.32 378 379.32ZM378 393.375C378.552 393.375 379 393.823 379 394.375L379 401.403C379 401.955 378.552 402.403 378 402.403C377.448 402.403 377 401.955 377 401.403L377 394.375C377 393.823 377.448 393.375 378 393.375ZM378 407.431C378.552 407.431 379 407.878 379 408.431L379 415.458C379 416.011 378.552 416.458 378 416.458C377.448 416.458 377 416.011 377 415.458L377 408.431C377 407.878 377.448 407.431 378 407.431ZM378 421.486C378.552 421.486 379 421.934 379 422.486L379 429.514C379 430.066 378.552 430.514 378 430.514C377.448 430.514 377 430.066 377 429.514L377 422.486C377 421.934 377.448 421.486 378 421.486ZM378 435.542C378.552 435.542 379 435.99 379 436.542L379 443.57C379 444.122 378.552 444.57 378 444.57C377.448 444.57 377 444.122 377 443.57L377 436.542C377 435.99 377.448 435.542 378 435.542ZM378 449.597C378.552 449.597 379 450.045 379 450.597L379 457.625C379 458.177 378.552 458.625 378 458.625C377.448 458.625 377 458.177 377 457.625L377 450.597C377 450.045 377.448 449.597 378 449.597ZM378 463.653C378.552 463.653 379 464.101 379 464.653L379 471.681C379 472.233 378.552 472.681 378 472.681C377.448 472.681 377 472.233 377 471.681L377 464.653C377 464.101 377.448 463.653 378 463.653ZM378 477.708C378.552 477.708 379 478.156 379 478.708L379 485.736C379 486.288 378.552 486.736 378 486.736C377.448 486.736 377 486.288 377 485.736L377 478.708C377 478.156 377.448 477.708 378 477.708ZM378 491.764C378.552 491.764 379 492.212 379 492.764L379 499.792C379 500.344 378.552 500.792 378 500.792C377.448 500.792 377 500.344 377 499.792L377 492.764C377 492.212 377.448 491.764 378 491.764ZM378 505.819C378.552 505.819 379 506.267 379 506.819L379 513.847C379 514.4 378.552 514.847 378 514.847C377.448 514.847 377 514.4 377 513.847L377 506.819C377 506.267 377.448 505.819 378 505.819ZM378 519.875C378.552 519.875 379 520.323 379 520.875L379 527.903C379 528.455 378.552 528.903 378 528.903C377.448 528.903 377 528.455 377 527.903L377 520.875C377 520.323 377.448 519.875 378 519.875ZM378 533.931C378.552 533.931 379 534.378 379 534.931L379 541.958C379 542.511 378.552 542.958 378 542.958C377.448 542.958 377 542.511 377 541.958L377 534.931C377 534.378 377.448 533.931 378 533.931ZM378 547.986C378.552 547.986 379 548.434 379 548.986L379 556.014C379 556.566 378.552 557.014 378 557.014C377.448 557.014 377 556.566 377 556.014L377 548.986C377 548.434 377.448 547.986 378 547.986ZM378 562.042C378.552 562.042 379 562.489 379 563.042L379 570.069C379 570.622 378.552 571.069 378 571.069C377.448 571.069 377 570.622 377 570.069L377 563.042C377 562.489 377.448 562.042 378 562.042ZM378 576.097C378.552 576.097 379 576.545 379 577.097L379 584.125C379 584.677 378.552 585.125 378 585.125C377.448 585.125 377 584.677 377 584.125L377 577.097C377 576.545 377.448 576.097 378 576.097ZM378 590.153C378.552 590.153 379 590.6 379 591.153L379 598.181C379 598.733 378.552 599.181 378 599.181C377.448 599.181 377 598.733 377 598.181L377 591.153C377 590.6 377.448 590.153 378 590.153ZM378 604.208C378.552 604.208 379 604.656 379 605.208L379 612.236C379 612.788 378.552 613.236 378 613.236C377.448 613.236 377 612.788 377 612.236L377 605.208C377 604.656 377.448 604.208 378 604.208ZM378 618.264C378.552 618.264 379 618.712 379 619.264L379 626.292C379 626.844 378.552 627.292 378 627.292C377.448 627.292 377 626.844 377 626.292L377 619.264C377 618.712 377.448 618.264 378 618.264ZM378 632.319C378.552 632.319 379 632.767 379 633.319L379 640.347C379 640.9 378.552 641.347 378 641.347C377.448 641.347 377 640.9 377 640.347L377 633.319C377 632.767 377.448 632.319 378 632.319ZM378 646.375C378.552 646.375 379 646.823 379 647.375L379 654.403C379 654.955 378.552 655.403 378 655.403C377.448 655.403 377 654.955 377 654.403L377 647.375C377 646.823 377.448 646.375 378 646.375ZM378 660.431C378.552 660.431 379 660.878 379 661.431L379 668.458C379 669.011 378.552 669.458 378 669.458C377.448 669.458 377 669.011 377 668.458L377 661.431C377 660.878 377.448 660.431 378 660.431ZM378 674.486C378.552 674.486 379 674.934 379 675.486L379 679C379 679.552 378.552 680 378 680C377.448 680 377 679.552 377 679L377 675.486C377 674.934 377.448 674.486 378 674.486Z" fill="url(#paint4_linear)"/>
<path fill-rule="evenodd" clip-rule="evenodd" d="M417 201C417.552 201 418 201.448 418 202L418 205.507C418 206.059 417.552 206.507 417 206.507C416.448 206.507 416 206.059 416 205.507L416 202C416 201.448 416.448 201 417 201ZM417 211.522C417.552 211.522 418 211.97 418 212.522L418 219.537C418 220.089 417.552 220.537 417 220.537C416.448 220.537 416 220.089 416 219.537L416 212.522C416 211.97 416.448 211.522 417 211.522ZM417 225.551C417.552 225.551 418 225.999 418 226.551L418 233.566C418 234.118 417.552 234.566 417 234.566C416.448 234.566 416 234.118 416 233.566L416 226.551C416 225.999 416.448 225.551 417 225.551ZM417 239.581C417.552 239.581 418 240.028 418 240.581L418 247.595C418 248.148 417.552 248.595 417 248.595C416.448 248.595 416 248.148 416 247.595L416 240.581C416 240.028 416.448 239.581 417 239.581ZM417 253.61C417.552 253.61 418 254.058 418 254.61L418 261.625C418 262.177 417.552 262.625 417 262.625C416.448 262.625 416 262.177 416 261.625L416 254.61C416 254.058 416.448 253.61 417 253.61ZM417 267.64C417.552 267.64 418 268.087 418 268.64L418 275.654C418 276.207 417.552 276.654 417 276.654C416.448 276.654 416 276.207 416 275.654L416 268.64C416 268.087 416.448 267.64 417 267.64ZM417 281.669C417.552 281.669 418 282.117 418 282.669L418 289.684C418 290.236 417.552 290.684 417 290.684C416.448 290.684 416 290.236 416 289.684L416 282.669C416 282.117 416.448 281.669 417 281.669ZM417 295.698C417.552 295.698 418 296.146 418 296.698L418 303.713C418 304.265 417.552 304.713 417 304.713C416.448 304.713 416 304.265 416 303.713L416 296.698C416 296.146 416.448 295.698 417 295.698ZM417 309.728C417.552 309.728 418 310.175 418 310.728L418 317.742C418 318.295 417.552 318.742 417 318.742C416.448 318.742 416 318.295 416 317.742L416 310.728C416 310.175 416.448 309.728 417 309.728ZM417 323.757C417.552 323.757 418 324.205 418 324.757L418 331.772C418 332.324 417.552 332.772 417 332.772C416.448 332.772 416 332.324 416 331.772L416 324.757C416 324.205 416.448 323.757 417 323.757ZM417 337.787C417.552 337.787 418 338.234 418 338.787L418 345.801C418 346.354 417.552 346.801 417 346.801C416.448 346.801 416 346.354 416 345.801L416 338.787C416 338.234 416.448 337.787 417 337.787ZM417 351.816C417.552 351.816 418 352.264 418 352.816L418 359.831C418 360.383 417.552 360.831 417 360.831C416.448 360.831 416 360.383 416 359.831L416 352.816C416 352.264 416.448 351.816 417 351.816ZM417 365.845C417.552 365.845 418 366.293 418 366.845L418 373.86C418 374.412 417.552 374.86 417 374.86C416.448 374.86 416 374.412 416 373.86L416 366.845C416 366.293 416.448 365.845 417 365.845ZM417 379.875C417.552 379.875 418 380.323 418 380.875L418 387.89C418 388.442 417.552 388.89 417 388.89C416.448 388.89 416 388.442 416 387.89L416 380.875C416 380.323 416.448 379.875 417 379.875ZM417 393.904C417.552 393.904 418 394.352 418 394.904L418 401.919C418 402.471 417.552 402.919 417 402.919C416.448 402.919 416 402.471 416 401.919L416 394.904C416 394.352 416.448 393.904 417 393.904ZM417 407.934C417.552 407.934 418 408.381 418 408.934L418 415.948C418 416.501 417.552 416.948 417 416.948C416.448 416.948 416 416.501 416 415.948L416 408.934C416 408.381 416.448 407.934 417 407.934ZM417 421.963C417.552 421.963 418 422.411 418 422.963L418 429.978C418 430.53 417.552 430.978 417 430.978C416.448 430.978 416 430.53 416 429.978L416 422.963C416 422.411 416.448 421.963 417 421.963ZM417 435.993C417.552 435.993 418 436.44 418 436.993L418 444.007C418 444.56 417.552 445.007 417 445.007C416.448 445.007 416 444.56 416 444.007L416 436.993C416 436.44 416.448 435.993 417 435.993ZM417 450.022C417.552 450.022 418 450.47 418 451.022L418 458.037C418 458.589 417.552 459.037 417 459.037C416.448 459.037 416 458.589 416 458.037L416 451.022C416 450.47 416.448 450.022 417 450.022ZM417 464.051C417.552 464.051 418 464.499 418 465.051L418 472.066C418 472.618 417.552 473.066 417 473.066C416.448 473.066 416 472.618 416 472.066L416 465.051C416 464.499 416.448 464.051 417 464.051ZM417 478.081C417.552 478.081 418 478.529 418 479.081L418 486.096C418 486.648 417.552 487.096 417 487.096C416.448 487.096 416 486.648 416 486.095L416 479.081C416 478.529 416.448 478.081 417 478.081ZM417 492.11C417.552 492.11 418 492.558 418 493.11L418 500.125C418 500.677 417.552 501.125 417 501.125C416.448 501.125 416 500.677 416 500.125L416 493.11C416 492.558 416.448 492.11 417 492.11ZM417 506.14C417.552 506.14 418 506.587 418 507.14L418 514.154C418 514.707 417.552 515.154 417 515.154C416.448 515.154 416 514.707 416 514.154L416 507.14C416 506.587 416.448 506.14 417 506.14ZM417 520.169C417.552 520.169 418 520.617 418 521.169L418 528.184C418 528.736 417.552 529.184 417 529.184C416.448 529.184 416 528.736 416 528.184L416 521.169C416 520.617 416.448 520.169 417 520.169ZM417 534.198C417.552 534.198 418 534.646 418 535.198L418 542.213C418 542.765 417.552 543.213 417 543.213C416.448 543.213 416 542.765 416 542.213L416 535.198C416 534.646 416.448 534.198 417 534.198ZM417 548.228C417.552 548.228 418 548.676 418 549.228L418 556.243C418 556.795 417.552 557.243 417 557.243C416.448 557.243 416 556.795 416 556.243L416 549.228C416 548.676 416.448 548.228 417 548.228ZM417 562.257C417.552 562.257 418 562.705 418 563.257L418 570.272C418 570.824 417.552 571.272 417 571.272C416.448 571.272 416 570.824 416 570.272L416 563.257C416 562.705 416.448 562.257 417 562.257ZM417 576.287C417.552 576.287 418 576.734 418 577.287L418 584.301C418 584.854 417.552 585.301 417 585.301C416.448 585.301 416 584.854 416 584.301L416 577.287C416 576.734 416.448 576.287 417 576.287ZM417 590.316C417.552 590.316 418 590.764 418 591.316L418 598.331C418 598.883 417.552 599.331 417 599.331C416.448 599.331 416 598.883 416 598.331L416 591.316C416 590.764 416.448 590.316 417 590.316ZM417 604.346C417.552 604.346 418 604.793 418 605.346L418 612.36C418 612.913 417.552 613.36 417 613.36C416.448 613.36 416 612.913 416 612.36L416 605.346C416 604.793 416.448 604.346 417 604.346ZM417 618.375C417.552 618.375 418 618.823 418 619.375L418 626.39C418 626.942 417.552 627.39 417 627.39C416.448 627.39 416 626.942 416 626.39L416 619.375C416 618.823 416.448 618.375 417 618.375ZM417 632.404C417.552 632.404 418 632.852 418 633.404L418 640.419C418 640.971 417.552 641.419 417 641.419C416.448 641.419 416 640.971 416 640.419L416 633.404C416 632.852 416.448 632.404 417 632.404ZM417 646.434C417.552 646.434 418 646.882 418 647.434L418 654.449C418 655.001 417.552 655.449 417 655.449C416.448 655.449 416 655.001 416 654.449L416 647.434C416 646.882 416.448 646.434 417 646.434ZM417 660.463C417.552 660.463 418 660.911 418 661.463L418 668.478C418 669.03 417.552 669.478 417 669.478C416.448 669.478 416 669.03 416 668.478L416 661.463C416 660.911 416.448 660.463 417 660.463ZM417 674.493C417.552 674.493 418 674.94 418 675.493L418 679C418 679.552 417.552 680 417 680C416.448 680 416 679.552 416 679L416 675.493C416 674.94 416.448 674.493 417 674.493Z" fill="url(#paint5_linear)"/>
<path fill-rule="evenodd" clip-rule="evenodd" d="M574 118C574.552 118 575 118.448 575 119L575 122.5C575 123.052 574.552 123.5 574 123.5C573.448 123.5 573 123.052 573 122.5L573 119C573 118.448 573.448 118 574 118ZM574 128.5C574.552 128.5 575 128.948 575 129.5L575 136.5C575 137.052 574.552 137.5 574 137.5C573.448 137.5 573 137.052 573 136.5L573 129.5C573 128.948 573.448 128.5 574 128.5ZM574 142.5C574.552 142.5 575 142.948 575 143.5L575 150.5C575 151.052 574.552 151.5 574 151.5C573.448 151.5 573 151.052 573 150.5L573 143.5C573 142.948 573.448 142.5 574 142.5ZM574 156.5C574.552 156.5 575 156.948 575 157.5L575 164.5C575 165.052 574.552 165.5 574 165.5C573.448 165.5 573 165.052 573 164.5L573 157.5C573 156.948 573.448 156.5 574 156.5ZM574 170.5C574.552 170.5 575 170.948 575 171.5L575 178.5C575 179.052 574.552 179.5 574 179.5C573.448 179.5 573 179.052 573 178.5L573 171.5C573 170.948 573.448 170.5 574 170.5ZM574 184.5C574.552 184.5 575 184.948 575 185.5L575 192.5C575 193.052 574.552 193.5 574 193.5C573.448 193.5 573 193.052 573 192.5L573 185.5C573 184.948 573.448 184.5 574 184.5ZM574 198.5C574.552 198.5 575 198.948 575 199.5L575 206.5C575 207.052 574.552 207.5 574 207.5C573.448 207.5 573 207.052 573 206.5L573 199.5C573 198.948 573.448 198.5 574 198.5ZM574 212.5C574.552 212.5 575 212.948 575 213.5L575 220.5C575 221.052 574.552 221.5 574 221.5C573.448 221.5 573 221.052 573 220.5L573 213.5C573 212.948 573.448 212.5 574 212.5ZM574 226.5C574.552 226.5 575 226.948 575 227.5L575 234.5C575 235.052 574.552 235.5 574 235.5C573.448 235.5 573 235.052 573 234.5L573 227.5C573 226.948 573.448 226.5 574 226.5ZM574 240.5C574.552 240.5 575 240.948 575 241.5L575 248.5C575 249.052 574.552 249.5 574 249.5C573.448 249.5 573 249.052 573 248.5L573 241.5C573 240.948 573.448 240.5 574 240.5ZM574 254.5C574.552 254.5 575 254.948 575 255.5L575 262.5C575 263.052 574.552 263.5 574 263.5C573.448 263.5 573 263.052 573 262.5L573 255.5C573 254.948 573.448 254.5 574 254.5ZM574 268.5C574.552 268.5 575 268.948 575 269.5L575 276.5C575 277.052 574.552 277.5 574 277.5C573.448 277.5 573 277.052 573 276.5L573 269.5C573 268.948 573.448 268.5 574 268.5ZM574 282.5C574.552 282.5 575 282.948 575 283.5L575 290.5C575 291.052 574.552 291.5 574 291.5C573.448 291.5 573 291.052 573 290.5L573 283.5C573 282.948 573.448 282.5 574 282.5ZM574 296.5C574.552 296.5 575 296.948 575 297.5L575 304.5C575 305.052 574.552 305.5 574 305.5C573.448 305.5 573 305.052 573 304.5L573 297.5C573 296.948 573.448 296.5 574 296.5ZM574 310.5C574.552 310.5 575 310.948 575 311.5L575 318.5C575 319.052 574.552 319.5 574 319.5C573.448 319.5 573 319.052 573 318.5L573 311.5C573 310.948 573.448 310.5 574 310.5ZM574 324.5C574.552 324.5 575 324.948 575 325.5L575 332.5C575 333.052 574.552 333.5 574 333.5C573.448 333.5 573 333.052 573 332.5L573 325.5C573 324.948 573.448 324.5 574 324.5ZM574 338.5C574.552 338.5 575 338.948 575 339.5L575 346.5C575 347.052 574.552 347.5 574 347.5C573.448 347.5 573 347.052 573 346.5L573 339.5C573 338.948 573.448 338.5 574 338.5ZM574 352.5C574.552 352.5 575 352.948 575 353.5L575 360.5C575 361.052 574.552 361.5 574 361.5C573.448 361.5 573 361.052 573 360.5L573 353.5C573 352.948 573.448 352.5 574 352.5ZM574 366.5C574.552 366.5 575 366.948 575 367.5L575 374.5C575 375.052 574.552 375.5 574 375.5C573.448 375.5 573 375.052 573 374.5L573 367.5C573 366.948 573.448 366.5 574 366.5ZM574 380.5C574.552 380.5 575 380.948 575 381.5L575 388.5C575 389.052 574.552 389.5 574 389.5C573.448 389.5 573 389.052 573 388.5L573 381.5C573 380.948 573.448 380.5 574 380.5ZM574 394.5C574.552 394.5 575 394.948 575 395.5L575 402.5C575 403.052 574.552 403.5 574 403.5C573.448 403.5 573 403.052 573 402.5L573 395.5C573 394.948 573.448 394.5 574 394.5ZM574 408.5C574.552 408.5 575 408.948 575 409.5L575 416.5C575 417.052 574.552 417.5 574 417.5C573.448 417.5 573 417.052 573 416.5L573 409.5C573 408.948 573.448 408.5 574 408.5ZM574 422.5C574.552 422.5 575 422.948 575 423.5L575 430.5C575 431.052 574.552 431.5 574 431.5C573.448 431.5 573 431.052 573 430.5L573 423.5C573 422.948 573.448 422.5 574 422.5ZM574 436.5C574.552 436.5 575 436.948 575 437.5L575 444.5C575 445.052 574.552 445.5 574 445.5C573.448 445.5 573 445.052 573 444.5L573 437.5C573 436.948 573.448 436.5 574 436.5ZM574 450.5C574.552 450.5 575 450.948 575 451.5L575 458.5C575 459.052 574.552 459.5 574 459.5C573.448 459.5 573 459.052 573 458.5L573 451.5C573 450.948 573.448 450.5 574 450.5ZM574 464.5C574.552 464.5 575 464.948 575 465.5L575 472.5C575 473.052 574.552 473.5 574 473.5C573.448 473.5 573 473.052 573 472.5L573 465.5C573 464.948 573.448 464.5 574 464.5ZM574 478.5C574.552 478.5 575 478.948 575 479.5L575 486.5C575 487.052 574.552 487.5 574 487.5C573.448 487.5 573 487.052 573 486.5L573 479.5C573 478.948 573.448 478.5 574 478.5ZM574 492.5C574.552 492.5 575 492.948 575 493.5L575 500.5C575 501.052 574.552 501.5 574 501.5C573.448 501.5 573 501.052 573 500.5L573 493.5C573 492.948 573.448 492.5 574 492.5ZM574 506.5C574.552 506.5 575 506.948 575 507.5L575 514.5C575 515.052 574.552 515.5 574 515.5C573.448 515.5 573 515.052 573 514.5L573 507.5C573 506.948 573.448 506.5 574 506.5ZM574 520.5C574.552 520.5 575 520.948 575 521.5L575 528.5C575 529.052 574.552 529.5 574 529.5C573.448 529.5 573 529.052 573 528.5L573 521.5C573 520.948 573.448 520.5 574 520.5ZM574 534.5C574.552 534.5 575 534.948 575 535.5L575 542.5C575 543.052 574.552 543.5 574 543.5C573.448 543.5 573 543.052 573 542.5L573 535.5C573 534.948 573.448 534.5 574 534.5ZM574 548.5C574.552 548.5 575 548.948 575 549.5L575 556.5C575 557.052 574.552 557.5 574 557.5C573.448 557.5 573 557.052 573 556.5L573 549.5C573 548.948 573.448 548.5 574 548.5ZM574 562.5C574.552 562.5 575 562.948 575 563.5L575 570.5C575 571.052 574.552 571.5 574 571.5C573.448 571.5 573 571.052 573 570.5L573 563.5C573 562.948 573.448 562.5 574 562.5ZM574 576.5C574.552 576.5 575 576.948 575 577.5L575 584.5C575 585.052 574.552 585.5 574 585.5C573.448 585.5 573 585.052 573 584.5L573 577.5C573 576.948 573.448 576.5 574 576.5ZM574 590.5C574.552 590.5 575 590.948 575 591.5L575 598.5C575 599.052 574.552 599.5 574 599.5C573.448 599.5 573 599.052 573 598.5L573 591.5C573 590.948 573.448 590.5 574 590.5ZM574 604.5C574.552 604.5 575 604.948 575 605.5L575 612.5C575 613.052 574.552 613.5 574 613.5C573.448 613.5 573 613.052 573 612.5L573 605.5C573 604.948 573.448 604.5 574 604.5ZM574 618.5C574.552 618.5 575 618.948 575 619.5L575 626.5C575 627.052 574.552 627.5 574 627.5C573.448 627.5 573 627.052 573 626.5L573 619.5C573 618.948 573.448 618.5 574 618.5ZM574 632.5C574.552 632.5 575 632.948 575 633.5L575 640.5C575 641.052 574.552 641.5 574 641.5C573.448 641.5 573 641.052 573 640.5L573 633.5C573 632.948 573.448 632.5 574 632.5ZM574 646.5C574.552 646.5 575 646.948 575 647.5L575 654.5C575 655.052 574.552 655.5 574 655.5C573.448 655.5 573 655.052 573 654.5L573 647.5C573 646.948 573.448 646.5 574 646.5ZM574 660.5C574.552 660.5 575 660.948 575 661.5L575 668.5C575 669.052 574.552 669.5 574 669.5C573.448 669.5 573 669.052 573 668.5L573 661.5C573 660.948 573.448 660.5 574 660.5ZM574 674.5C574.552 674.5 575 674.948 575 675.5L575 679C575 679.552 574.552 680 574 680C573.448 680 573 679.552 573 679L573 675.5C573 674.948 573.448 674.5 574 674.5Z" fill="url(#paint6_linear)"/>
<path fill-rule="evenodd" clip-rule="evenodd" d="M707 201C707.552 201 708 201.448 708 202L708 205.507C708 206.059 707.552 206.507 707 206.507C706.448 206.507 706 206.059 706 205.507L706 202C706 201.448 706.448 201 707 201ZM707 211.522C707.552 211.522 708 211.97 708 212.522L708 219.537C708 220.089 707.552 220.537 707 220.537C706.448 220.537 706 220.089 706 219.537L706 212.522C706 211.97 706.448 211.522 707 211.522ZM707 225.551C707.552 225.551 708 225.999 708 226.551L708 233.566C708 234.118 707.552 234.566 707 234.566C706.448 234.566 706 234.118 706 233.566L706 226.551C706 225.999 706.448 225.551 707 225.551ZM707 239.581C707.552 239.581 708 240.028 708 240.581L708 247.595C708 248.148 707.552 248.595 707 248.595C706.448 248.595 706 248.148 706 247.595L706 240.581C706 240.028 706.448 239.581 707 239.581ZM707 253.61C707.552 253.61 708 254.058 708 254.61L708 261.625C708 262.177 707.552 262.625 707 262.625C706.448 262.625 706 262.177 706 261.625L706 254.61C706 254.058 706.448 253.61 707 253.61ZM707 267.64C707.552 267.64 708 268.087 708 268.64L708 275.654C708 276.207 707.552 276.654 707 276.654C706.448 276.654 706 276.207 706 275.654L706 268.64C706 268.087 706.448 267.64 707 267.64ZM707 281.669C707.552 281.669 708 282.117 708 282.669L708 289.684C708 290.236 707.552 290.684 707 290.684C706.448 290.684 706 290.236 706 289.684L706 282.669C706 282.117 706.448 281.669 707 281.669ZM707 295.698C707.552 295.698 708 296.146 708 296.698L708 303.713C708 304.265 707.552 304.713 707 304.713C706.448 304.713 706 304.265 706 303.713L706 296.698C706 296.146 706.448 295.698 707 295.698ZM707 309.728C707.552 309.728 708 310.175 708 310.728L708 317.742C708 318.295 707.552 318.742 707 318.742C706.448 318.742 706 318.295 706 317.742L706 310.728C706 310.175 706.448 309.728 707 309.728ZM707 323.757C707.552 323.757 708 324.205 708 324.757L708 331.772C708 332.324 707.552 332.772 707 332.772C706.448 332.772 706 332.324 706 331.772L706 324.757C706 324.205 706.448 323.757 707 323.757ZM707 337.787C707.552 337.787 708 338.234 708 338.787L708 345.801C708 346.354 707.552 346.801 707 346.801C706.448 346.801 706 346.354 706 345.801L706 338.787C706 338.234 706.448 337.787 707 337.787ZM707 351.816C707.552 351.816 708 352.264 708 352.816L708 359.831C708 360.383 707.552 360.831 707 360.831C706.448 360.831 706 360.383 706 359.831L706 352.816C706 352.264 706.448 351.816 707 351.816ZM707 365.845C707.552 365.845 708 366.293 708 366.845L708 373.86C708 374.412 707.552 374.86 707 374.86C706.448 374.86 706 374.412 706 373.86L706 366.845C706 366.293 706.448 365.845 707 365.845ZM707 379.875C707.552 379.875 708 380.323 708 380.875L708 387.89C708 388.442 707.552 388.89 707 388.89C706.448 388.89 706 388.442 706 387.89L706 380.875C706 380.323 706.448 379.875 707 379.875ZM707 393.904C707.552 393.904 708 394.352 708 394.904L708 401.919C708 402.471 707.552 402.919 707 402.919C706.448 402.919 706 402.471 706 401.919L706 394.904C706 394.352 706.448 393.904 707 393.904ZM707 407.934C707.552 407.934 708 408.381 708 408.934L708 415.948C708 416.501 707.552 416.948 707 416.948C706.448 416.948 706 416.501 706 415.948L706 408.934C706 408.381 706.448 407.934 707 407.934ZM707 421.963C707.552 421.963 708 422.411 708 422.963L708 429.978C708 430.53 707.552 430.978 707 430.978C706.448 430.978 706 430.53 706 429.978L706 422.963C706 422.411 706.448 421.963 707 421.963ZM707 435.993C707.552 435.993 708 436.44 708 436.993L708 444.007C708 444.56 707.552 445.007 707 445.007C706.448 445.007 706 444.56 706 444.007L706 436.993C706 436.44 706.448 435.993 707 435.993ZM707 450.022C707.552 450.022 708 450.47 708 451.022L708 458.037C708 458.589 707.552 459.037 707 459.037C706.448 459.037 706 458.589 706 458.037L706 451.022C706 450.47 706.448 450.022 707 450.022ZM707 464.051C707.552 464.051 708 464.499 708 465.051L708 472.066C708 472.618 707.552 473.066 707 473.066C706.448 473.066 706 472.618 706 472.066L706 465.051C706 464.499 706.448 464.051 707 464.051ZM707 478.081C707.552 478.081 708 478.529 708 479.081L708 486.096C708 486.648 707.552 487.096 707 487.096C706.448 487.096 706 486.648 706 486.095L706 479.081C706 478.529 706.448 478.081 707 478.081ZM707 492.11C707.552 492.11 708 492.558 708 493.11L708 500.125C708 500.677 707.552 501.125 707 501.125C706.448 501.125 706 500.677 706 500.125L706 493.11C706 492.558 706.448 492.11 707 492.11ZM707 506.14C707.552 506.14 708 506.587 708 507.14L708 514.154C708 514.707 707.552 515.154 707 515.154C706.448 515.154 706 514.707 706 514.154L706 507.14C706 506.587 706.448 506.14 707 506.14ZM707 520.169C707.552 520.169 708 520.617 708 521.169L708 528.184C708 528.736 707.552 529.184 707 529.184C706.448 529.184 706 528.736 706 528.184L706 521.169C706 520.617 706.448 520.169 707 520.169ZM707 534.198C707.552 534.198 708 534.646 708 535.198L708 542.213C708 542.765 707.552 543.213 707 543.213C706.448 543.213 706 542.765 706 542.213L706 535.198C706 534.646 706.448 534.198 707 534.198ZM707 548.228C707.552 548.228 708 548.676 708 549.228L708 556.243C708 556.795 707.552 557.243 707 557.243C706.448 557.243 706 556.795 706 556.243L706 549.228C706 548.676 706.448 548.228 707 548.228ZM707 562.257C707.552 562.257 708 562.705 708 563.257L708 570.272C708 570.824 707.552 571.272 707 571.272C706.448 571.272 706 570.824 706 570.272L706 563.257C706 562.705 706.448 562.257 707 562.257ZM707 576.287C707.552 576.287 708 576.734 708 577.287L708 584.301C708 584.854 707.552 585.301 707 585.301C706.448 585.301 706 584.854 706 584.301L706 577.287C706 576.734 706.448 576.287 707 576.287ZM707 590.316C707.552 590.316 708 590.764 708 591.316L708 598.331C708 598.883 707.552 599.331 707 599.331C706.448 599.331 706 598.883 706 598.331L706 591.316C706 590.764 706.448 590.316 707 590.316ZM707 604.346C707.552 604.346 708 604.793 708 605.346L708 612.36C708 612.913 707.552 613.36 707 613.36C706.448 613.36 706 612.913 706 612.36L706 605.346C706 604.793 706.448 604.346 707 604.346ZM707 618.375C707.552 618.375 708 618.823 708 619.375L708 626.39C708 626.942 707.552 627.39 707 627.39C706.448 627.39 706 626.942 706 626.39L706 619.375C706 618.823 706.448 618.375 707 618.375ZM707 632.404C707.552 632.404 708 632.852 708 633.404L708 640.419C708 640.971 707.552 641.419 707 641.419C706.448 641.419 706 640.971 706 640.419L706 633.404C706 632.852 706.448 632.404 707 632.404ZM707 646.434C707.552 646.434 708 646.882 708 647.434L708 654.449C708 655.001 707.552 655.449 707 655.449C706.448 655.449 706 655.001 706 654.449L706 647.434C706 646.882 706.448 646.434 707 646.434ZM707 660.463C707.552 660.463 708 660.911 708 661.463L708 668.478C708 669.03 707.552 669.478 707 669.478C706.448 669.478 706 669.03 706 668.478L706 661.463C706 660.911 706.448 660.463 707 660.463ZM707 674.493C707.552 674.493 708 674.94 708 675.493L708 679C708 679.552 707.552 680 707 680C706.448 680 706 679.552 706 679L706 675.493C706 674.94 706.448 674.493 707 674.493Z" fill="url(#paint7_linear)"/>
<path fill-rule="evenodd" clip-rule="evenodd" d="M843 99C843.552 99 844 99.4477 844 100L844 103.531C844 104.083 843.552 104.531 843 104.531C842.448 104.531 842 104.083 842 103.531L842 100C842 99.4477 842.448 99 843 99ZM843 109.592C843.552 109.592 844 110.039 844 110.592L844 117.653C844 118.205 843.552 118.653 843 118.653C842.448 118.653 842 118.205 842 117.653L842 110.592C842 110.039 842.448 109.592 843 109.592ZM843 123.713C843.552 123.713 844 124.161 844 124.713L844 131.774C844 132.327 843.552 132.774 843 132.774C842.448 132.774 842 132.327 842 131.774L842 124.713C842 124.161 842.448 123.713 843 123.713ZM843 137.835C843.552 137.835 844 138.283 844 138.835L844 145.896C844 146.449 843.552 146.896 843 146.896C842.448 146.896 842 146.449 842 145.896L842 138.835C842 138.283 842.448 137.835 843 137.835ZM843 151.957C843.552 151.957 844 152.405 844 152.957L844 160.018C844 160.571 843.552 161.018 843 161.018C842.448 161.018 842 160.571 842 160.018L842 152.957C842 152.405 842.448 151.957 843 151.957ZM843 166.079C843.552 166.079 844 166.527 844 167.079L844 174.14C844 174.693 843.552 175.14 843 175.14C842.448 175.14 842 174.693 842 174.14L842 167.079C842 166.527 842.448 166.079 843 166.079ZM843 180.201C843.552 180.201 844 180.649 844 181.201L844 188.262C844 188.815 843.552 189.262 843 189.262C842.448 189.262 842 188.815 842 188.262L842 181.201C842 180.649 842.448 180.201 843 180.201ZM843 194.323C843.552 194.323 844 194.771 844 195.323L844 202.384C844 202.937 843.552 203.384 843 203.384C842.448 203.384 842 202.937 842 202.384L842 195.323C842 194.771 842.448 194.323 843 194.323ZM843 208.445C843.552 208.445 844 208.893 844 209.445L844 216.506C844 217.058 843.552 217.506 843 217.506C842.448 217.506 842 217.058 842 216.506L842 209.445C842 208.893 842.448 208.445 843 208.445ZM843 222.567C843.552 222.567 844 223.015 844 223.567L844 230.628C844 231.18 843.552 231.628 843 231.628C842.448 231.628 842 231.18 842 230.628L842 223.567C842 223.015 842.448 222.567 843 222.567ZM843 236.689C843.552 236.689 844 237.137 844 237.689L844 244.75C844 245.302 843.552 245.75 843 245.75C842.448 245.75 842 245.302 842 244.75L842 237.689C842 237.137 842.448 236.689 843 236.689ZM843 250.811C843.552 250.811 844 251.259 844 251.811L844 258.872C844 259.424 843.552 259.872 843 259.872C842.448 259.872 842 259.424 842 258.872L842 251.811C842 251.259 842.448 250.811 843 250.811ZM843 264.933C843.552 264.933 844 265.381 844 265.933L844 272.994C844 273.546 843.552 273.994 843 273.994C842.448 273.994 842 273.546 842 272.994L842 265.933C842 265.381 842.448 264.933 843 264.933ZM843 279.055C843.552 279.055 844 279.503 844 280.055L844 287.116C844 287.668 843.552 288.116 843 288.116C842.448 288.116 842 287.668 842 287.116L842 280.055C842 279.503 842.448 279.055 843 279.055ZM843 293.177C843.552 293.177 844 293.625 844 294.177L844 301.238C844 301.79 843.552 302.238 843 302.238C842.448 302.238 842 301.79 842 301.238L842 294.177C842 293.625 842.448 293.177 843 293.177ZM843 307.299C843.552 307.299 844 307.747 844 308.299L844 315.36C844 315.912 843.552 316.36 843 316.36C842.448 316.36 842 315.912 842 315.36L842 308.299C842 307.747 842.448 307.299 843 307.299ZM843 321.421C843.552 321.421 844 321.868 844 322.421L844 329.482C844 330.034 843.552 330.482 843 330.482C842.448 330.482 842 330.034 842 329.482L842 322.421C842 321.868 842.448 321.421 843 321.421ZM843 335.543C843.552 335.543 844 335.99 844 336.543L844 343.604C844 344.156 843.552 344.604 843 344.604C842.448 344.604 842 344.156 842 343.604L842 336.543C842 335.99 842.448 335.543 843 335.543ZM843 349.665C843.552 349.665 844 350.112 844 350.665L844 357.726C844 358.278 843.552 358.726 843 358.726C842.448 358.726 842 358.278 842 357.726L842 350.665C842 350.112 842.448 349.665 843 349.665ZM843 363.787C843.552 363.787 844 364.234 844 364.787L844 371.848C844 372.4 843.552 372.848 843 372.848C842.448 372.848 842 372.4 842 371.848L842 364.787C842 364.234 842.448 363.787 843 363.787ZM843 377.909C843.552 377.909 844 378.356 844 378.909L844 385.97C844 386.522 843.552 386.97 843 386.97C842.448 386.97 842 386.522 842 385.97L842 378.909C842 378.356 842.448 377.909 843 377.909ZM843 392.031C843.552 392.031 844 392.478 844 393.031L844 400.091C844 400.644 843.552 401.091 843 401.091C842.448 401.091 842 400.644 842 400.091L842 393.031C842 392.478 842.448 392.031 843 392.031ZM843 406.152C843.552 406.152 844 406.6 844 407.152L844 414.213C844 414.766 843.552 415.213 843 415.213C842.448 415.213 842 414.766 842 414.213L842 407.152C842 406.6 842.448 406.152 843 406.152ZM843 420.274C843.552 420.274 844 420.722 844 421.274L844 428.335C844 428.888 843.552 429.335 843 429.335C842.448 429.335 842 428.888 842 428.335L842 421.274C842 420.722 842.448 420.274 843 420.274ZM843 434.396C843.552 434.396 844 434.844 844 435.396L844 442.457C844 443.01 843.552 443.457 843 443.457C842.448 443.457 842 443.01 842 442.457L842 435.396C842 434.844 842.448 434.396 843 434.396ZM843 448.518C843.552 448.518 844 448.966 844 449.518L844 456.579C844 457.132 843.552 457.579 843 457.579C842.448 457.579 842 457.132 842 456.579L842 449.518C842 448.966 842.448 448.518 843 448.518ZM843 462.64C843.552 462.64 844 463.088 844 463.64L844 470.701C844 471.254 843.552 471.701 843 471.701C842.448 471.701 842 471.254 842 470.701L842 463.64C842 463.088 842.448 462.64 843 462.64ZM843 476.762C843.552 476.762 844 477.21 844 477.762L844 484.823C844 485.375 843.552 485.823 843 485.823C842.448 485.823 842 485.375 842 484.823L842 477.762C842 477.21 842.448 476.762 843 476.762ZM843 490.884C843.552 490.884 844 491.332 844 491.884L844 498.945C844 499.497 843.552 499.945 843 499.945C842.448 499.945 842 499.497 842 498.945L842 491.884C842 491.332 842.448 490.884 843 490.884ZM843 505.006C843.552 505.006 844 505.454 844 506.006L844 513.067C844 513.619 843.552 514.067 843 514.067C842.448 514.067 842 513.619 842 513.067L842 506.006C842 505.454 842.448 505.006 843 505.006ZM843 519.128C843.552 519.128 844 519.576 844 520.128L844 527.189C844 527.741 843.552 528.189 843 528.189C842.448 528.189 842 527.741 842 527.189L842 520.128C842 519.576 842.448 519.128 843 519.128ZM843 533.25C843.552 533.25 844 533.698 844 534.25L844 541.311C844 541.863 843.552 542.311 843 542.311C842.448 542.311 842 541.863 842 541.311L842 534.25C842 533.698 842.448 533.25 843 533.25ZM843 547.372C843.552 547.372 844 547.82 844 548.372L844 555.433C844 555.985 843.552 556.433 843 556.433C842.448 556.433 842 555.985 842 555.433L842 548.372C842 547.82 842.448 547.372 843 547.372ZM843 561.494C843.552 561.494 844 561.942 844 562.494L844 569.555C844 570.107 843.552 570.555 843 570.555C842.448 570.555 842 570.107 842 569.555L842 562.494C842 561.942 842.448 561.494 843 561.494ZM843 575.616C843.552 575.616 844 576.064 844 576.616L844 583.677C844 584.229 843.552 584.677 843 584.677C842.448 584.677 842 584.229 842 583.677L842 576.616C842 576.064 842.448 575.616 843 575.616ZM843 589.738C843.552 589.738 844 590.186 844 590.738L844 597.799C844 598.351 843.552 598.799 843 598.799C842.448 598.799 842 598.351 842 597.799L842 590.738C842 590.186 842.448 589.738 843 589.738ZM843 603.86C843.552 603.86 844 604.307 844 604.86L844 611.921C844 612.473 843.552 612.921 843 612.921C842.448 612.921 842 612.473 842 611.921L842 604.86C842 604.307 842.448 603.86 843 603.86ZM843 617.982C843.552 617.982 844 618.429 844 618.982L844 626.043C844 626.595 843.552 627.043 843 627.043C842.448 627.043 842 626.595 842 626.043L842 618.982C842 618.429 842.448 617.982 843 617.982ZM843 632.104C843.552 632.104 844 632.551 844 633.104L844 640.165C844 640.717 843.552 641.165 843 641.165C842.448 641.165 842 640.717 842 640.165L842 633.104C842 632.551 842.448 632.104 843 632.104ZM843 646.226C843.552 646.226 844 646.673 844 647.226L844 654.287C844 654.839 843.552 655.287 843 655.287C842.448 655.287 842 654.839 842 654.287L842 647.226C842 646.673 842.448 646.226 843 646.226ZM843 660.348C843.552 660.348 844 660.795 844 661.348L844 668.409C844 668.961 843.552 669.409 843 669.409C842.448 669.409 842 668.961 842 668.409L842 661.348C842 660.795 842.448 660.348 843 660.348ZM843 674.47C843.552 674.47 844 674.917 844 675.47L844 679C844 679.552 843.552 680 843 680C842.448 680 842 679.552 842 679L842 675.47C842 674.917 842.448 674.47 843 674.47Z" fill="url(#paint8_linear)"/>
<path fill-rule="evenodd" clip-rule="evenodd" d="M1016 171C1016.55 171 1017 171.448 1017 172L1017 175.521C1017 176.073 1016.55 176.521 1016 176.521C1015.45 176.521 1015 176.073 1015 175.521L1015 172C1015 171.448 1015.45 171 1016 171ZM1016 181.563C1016.55 181.563 1017 182.01 1017 182.563L1017 189.604C1017 190.157 1016.55 190.604 1016 190.604C1015.45 190.604 1015 190.157 1015 189.604L1015 182.563C1015 182.01 1015.45 181.563 1016 181.563ZM1016 195.646C1016.55 195.646 1017 196.094 1017 196.646L1017 203.688C1017 204.24 1016.55 204.688 1016 204.688C1015.45 204.688 1015 204.24 1015 203.688L1015 196.646C1015 196.094 1015.45 195.646 1016 195.646ZM1016 209.729C1016.55 209.729 1017 210.177 1017 210.729L1017 217.771C1017 218.323 1016.55 218.771 1016 218.771C1015.45 218.771 1015 218.323 1015 217.771L1015 210.729C1015 210.177 1015.45 209.729 1016 209.729ZM1016 223.813C1016.55 223.813 1017 224.26 1017 224.813L1017 231.854C1017 232.407 1016.55 232.854 1016 232.854C1015.45 232.854 1015 232.407 1015 231.854L1015 224.813C1015 224.26 1015.45 223.813 1016 223.813ZM1016 237.896C1016.55 237.896 1017 238.344 1017 238.896L1017 245.938C1017 246.49 1016.55 246.938 1016 246.938C1015.45 246.938 1015 246.49 1015 245.938L1015 238.896C1015 238.344 1015.45 237.896 1016 237.896ZM1016 251.979C1016.55 251.979 1017 252.427 1017 252.979L1017 260.021C1017 260.573 1016.55 261.021 1016 261.021C1015.45 261.021 1015 260.573 1015 260.021L1015 252.979C1015 252.427 1015.45 251.979 1016 251.979ZM1016 266.063C1016.55 266.063 1017 266.51 1017 267.063L1017 274.104C1017 274.657 1016.55 275.104 1016 275.104C1015.45 275.104 1015 274.657 1015 274.104L1015 267.063C1015 266.51 1015.45 266.063 1016 266.063ZM1016 280.146C1016.55 280.146 1017 280.594 1017 281.146L1017 288.188C1017 288.74 1016.55 289.188 1016 289.188C1015.45 289.188 1015 288.74 1015 288.188L1015 281.146C1015 280.594 1015.45 280.146 1016 280.146ZM1016 294.229C1016.55 294.229 1017 294.677 1017 295.229L1017 302.271C1017 302.823 1016.55 303.271 1016 303.271C1015.45 303.271 1015 302.823 1015 302.271L1015 295.229C1015 294.677 1015.45 294.229 1016 294.229ZM1016 308.313C1016.55 308.313 1017 308.76 1017 309.313L1017 316.354C1017 316.907 1016.55 317.354 1016 317.354C1015.45 317.354 1015 316.907 1015 316.354L1015 309.313C1015 308.76 1015.45 308.313 1016 308.313ZM1016 322.396C1016.55 322.396 1017 322.844 1017 323.396L1017 330.438C1017 330.99 1016.55 331.438 1016 331.438C1015.45 331.438 1015 330.99 1015 330.438L1015 323.396C1015 322.844 1015.45 322.396 1016 322.396ZM1016 336.479C1016.55 336.479 1017 336.927 1017 337.479L1017 344.521C1017 345.073 1016.55 345.521 1016 345.521C1015.45 345.521 1015 345.073 1015 344.521L1015 337.479C1015 336.927 1015.45 336.479 1016 336.479ZM1016 350.563C1016.55 350.563 1017 351.01 1017 351.563L1017 358.604C1017 359.156 1016.55 359.604 1016 359.604C1015.45 359.604 1015 359.156 1015 358.604L1015 351.563C1015 351.01 1015.45 350.563 1016 350.563ZM1016 364.646C1016.55 364.646 1017 365.094 1017 365.646L1017 372.687C1017 373.24 1016.55 373.687 1016 373.687C1015.45 373.687 1015 373.24 1015 372.687L1015 365.646C1015 365.094 1015.45 364.646 1016 364.646ZM1016 378.729C1016.55 378.729 1017 379.177 1017 379.729L1017 386.771C1017 387.323 1016.55 387.771 1016 387.771C1015.45 387.771 1015 387.323 1015 386.771L1015 379.729C1015 379.177 1015.45 378.729 1016 378.729ZM1016 392.812C1016.55 392.812 1017 393.26 1017 393.812L1017 400.854C1017 401.406 1016.55 401.854 1016 401.854C1015.45 401.854 1015 401.406 1015 400.854L1015 393.812C1015 393.26 1015.45 392.812 1016 392.812ZM1016 406.896C1016.55 406.896 1017 407.343 1017 407.896L1017 414.937C1017 415.49 1016.55 415.937 1016 415.937C1015.45 415.937 1015 415.49 1015 414.937L1015 407.896C1015 407.343 1015.45 406.896 1016 406.896ZM1016 420.979C1016.55 420.979 1017 421.427 1017 421.979L1017 429.021C1017 429.573 1016.55 430.021 1016 430.021C1015.45 430.021 1015 429.573 1015 429.021L1015 421.979C1015 421.427 1015.45 420.979 1016 420.979ZM1016 435.062C1016.55 435.062 1017 435.51 1017 436.062L1017 443.104C1017 443.656 1016.55 444.104 1016 444.104C1015.45 444.104 1015 443.656 1015 443.104L1015 436.062C1015 435.51 1015.45 435.062 1016 435.062ZM1016 449.146C1016.55 449.146 1017 449.594 1017 450.146L1017 457.187C1017 457.74 1016.55 458.187 1016 458.187C1015.45 458.187 1015 457.74 1015 457.187L1015 450.146C1015 449.594 1015.45 449.146 1016 449.146ZM1016 463.229C1016.55 463.229 1017 463.677 1017 464.229L1017 471.271C1017 471.823 1016.55 472.271 1016 472.271C1015.45 472.271 1015 471.823 1015 471.271L1015 464.229C1015 463.677 1015.45 463.229 1016 463.229ZM1016 477.312C1016.55 477.312 1017 477.76 1017 478.312L1017 485.354C1017 485.906 1016.55 486.354 1016 486.354C1015.45 486.354 1015 485.906 1015 485.354L1015 478.312C1015 477.76 1015.45 477.312 1016 477.312ZM1016 491.396C1016.55 491.396 1017 491.844 1017 492.396L1017 499.437C1017 499.99 1016.55 500.437 1016 500.437C1015.45 500.437 1015 499.99 1015 499.437L1015 492.396C1015 491.844 1015.45 491.396 1016 491.396ZM1016 505.479C1016.55 505.479 1017 505.927 1017 506.479L1017 513.521C1017 514.073 1016.55 514.521 1016 514.521C1015.45 514.521 1015 514.073 1015 513.521L1015 506.479C1015 505.927 1015.45 505.479 1016 505.479ZM1016 519.562C1016.55 519.562 1017 520.01 1017 520.562L1017 527.604C1017 528.156 1016.55 528.604 1016 528.604C1015.45 528.604 1015 528.156 1015 527.604L1015 520.562C1015 520.01 1015.45 519.562 1016 519.562ZM1016 533.646C1016.55 533.646 1017 534.094 1017 534.646L1017 541.687C1017 542.24 1016.55 542.687 1016 542.687C1015.45 542.687 1015 542.24 1015 541.687L1015 534.646C1015 534.094 1015.45 533.646 1016 533.646ZM1016 547.729C1016.55 547.729 1017 548.177 1017 548.729L1017 555.771C1017 556.323 1016.55 556.771 1016 556.771C1015.45 556.771 1015 556.323 1015 555.771L1015 548.729C1015 548.177 1015.45 547.729 1016 547.729ZM1016 561.812C1016.55 561.812 1017 562.26 1017 562.812L1017 569.854C1017 570.406 1016.55 570.854 1016 570.854C1015.45 570.854 1015 570.406 1015 569.854L1015 562.812C1015 562.26 1015.45 561.812 1016 561.812ZM1016 575.896C1016.55 575.896 1017 576.344 1017 576.896L1017 583.937C1017 584.49 1016.55 584.937 1016 584.937C1015.45 584.937 1015 584.49 1015 583.937L1015 576.896C1015 576.344 1015.45 575.896 1016 575.896ZM1016 589.979C1016.55 589.979 1017 590.427 1017 590.979L1017 598.021C1017 598.573 1016.55 599.021 1016 599.021C1015.45 599.021 1015 598.573 1015 598.021L1015 590.979C1015 590.427 1015.45 589.979 1016 589.979ZM1016 604.062C1016.55 604.062 1017 604.51 1017 605.062L1017 612.104C1017 612.656 1016.55 613.104 1016 613.104C1015.45 613.104 1015 612.656 1015 612.104L1015 605.062C1015 604.51 1015.45 604.062 1016 604.062ZM1016 618.146C1016.55 618.146 1017 618.594 1017 619.146L1017 626.187C1017 626.74 1016.55 627.187 1016 627.187C1015.45 627.187 1015 626.74 1015 626.187L1015 619.146C1015 618.594 1015.45 618.146 1016 618.146ZM1016 632.229C1016.55 632.229 1017 632.677 1017 633.229L1017 640.271C1017 640.823 1016.55 641.271 1016 641.271C1015.45 641.271 1015 640.823 1015 640.271L1015 633.229C1015 632.677 1015.45 632.229 1016 632.229ZM1016 646.312C1016.55 646.312 1017 646.76 1017 647.312L1017 654.354C1017 654.906 1016.55 655.354 1016 655.354C1015.45 655.354 1015 654.906 1015 654.354L1015 647.312C1015 646.76 1015.45 646.312 1016 646.312ZM1016 660.396C1016.55 660.396 1017 660.844 1017 661.396L1017 668.437C1017 668.99 1016.55 669.437 1016 669.437C1015.45 669.437 1015 668.99 1015 668.438L1015 661.396C1015 660.844 1015.45 660.396 1016 660.396ZM1016 674.479C1016.55 674.479 1017 674.927 1017 675.479L1017 679C1017 679.552 1016.55 680 1016 680C1015.45 680 1015 679.552 1015 679L1015 675.479C1015 674.927 1015.45 674.479 1016 674.479Z" fill="url(#paint9_linear)"/>
<path fill-rule="evenodd" clip-rule="evenodd" d="M1174 98C1174.55 98 1175 98.4477 1175 99L1175 102.536C1175 103.088 1174.55 103.536 1174 103.536C1173.45 103.536 1173 103.088 1173 102.536L1173 99C1173 98.4477 1173.45 98 1174 98ZM1174 108.609C1174.55 108.609 1175 109.057 1175 109.609L1175 116.683C1175 117.235 1174.55 117.683 1174 117.683C1173.45 117.683 1173 117.235 1173 116.683L1173 109.609C1173 109.057 1173.45 108.609 1174 108.609ZM1174 122.756C1174.55 122.756 1175 123.203 1175 123.756L1175 130.829C1175 131.381 1174.55 131.829 1174 131.829C1173.45 131.829 1173 131.381 1173 130.829L1173 123.756C1173 123.203 1173.45 122.756 1174 122.756ZM1174 136.902C1174.55 136.902 1175 137.35 1175 137.902L1175 144.975C1175 145.528 1174.55 145.975 1174 145.975C1173.45 145.975 1173 145.528 1173 144.975L1173 137.902C1173 137.35 1173.45 136.902 1174 136.902ZM1174 151.048C1174.55 151.048 1175 151.496 1175 152.048L1175 159.122C1175 159.674 1174.55 160.122 1174 160.122C1173.45 160.122 1173 159.674 1173 159.122L1173 152.048C1173 151.496 1173.45 151.048 1174 151.048ZM1174 165.195C1174.55 165.195 1175 165.643 1175 166.195L1175 173.268C1175 173.82 1174.55 174.268 1174 174.268C1173.45 174.268 1173 173.82 1173 173.268L1173 166.195C1173 165.643 1173.45 165.195 1174 165.195ZM1174 179.341C1174.55 179.341 1175 179.789 1175 180.341L1175 187.414C1175 187.967 1174.55 188.414 1174 188.414C1173.45 188.414 1173 187.967 1173 187.414L1173 180.341C1173 179.789 1173.45 179.341 1174 179.341ZM1174 193.488C1174.55 193.488 1175 193.935 1175 194.488L1175 201.561C1175 202.113 1174.55 202.561 1174 202.561C1173.45 202.561 1173 202.113 1173 201.561L1173 194.488C1173 193.935 1173.45 193.488 1174 193.488ZM1174 207.634C1174.55 207.634 1175 208.082 1175 208.634L1175 215.707C1175 216.259 1174.55 216.707 1174 216.707C1173.45 216.707 1173 216.259 1173 215.707L1173 208.634C1173 208.082 1173.45 207.634 1174 207.634ZM1174 221.78C1174.55 221.78 1175 222.228 1175 222.78L1175 229.853C1175 230.406 1174.55 230.853 1174 230.853C1173.45 230.853 1173 230.406 1173 229.853L1173 222.78C1173 222.228 1173.45 221.78 1174 221.78ZM1174 235.927C1174.55 235.927 1175 236.374 1175 236.927L1175 244C1175 244.552 1174.55 245 1174 245C1173.45 245 1173 244.552 1173 244L1173 236.927C1173 236.374 1173.45 235.927 1174 235.927ZM1174 250.073C1174.55 250.073 1175 250.521 1175 251.073L1175 258.146C1175 258.698 1174.55 259.146 1174 259.146C1173.45 259.146 1173 258.698 1173 258.146L1173 251.073C1173 250.521 1173.45 250.073 1174 250.073ZM1174 264.219C1174.55 264.219 1175 264.667 1175 265.219L1175 272.293C1175 272.845 1174.55 273.293 1174 273.293C1173.45 273.293 1173 272.845 1173 272.293L1173 265.219C1173 264.667 1173.45 264.219 1174 264.219ZM1174 278.366C1174.55 278.366 1175 278.813 1175 279.366L1175 286.439C1175 286.991 1174.55 287.439 1174 287.439C1173.45 287.439 1173 286.991 1173 286.439L1173 279.366C1173 278.813 1173.45 278.366 1174 278.366ZM1174 292.512C1174.55 292.512 1175 292.96 1175 293.512L1175 300.585C1175 301.138 1174.55 301.585 1174 301.585C1173.45 301.585 1173 301.138 1173 300.585L1173 293.512C1173 292.96 1173.45 292.512 1174 292.512ZM1174 306.658C1174.55 306.658 1175 307.106 1175 307.658L1175 314.732C1175 315.284 1174.55 315.732 1174 315.732C1173.45 315.732 1173 315.284 1173 314.732L1173 307.658C1173 307.106 1173.45 306.658 1174 306.658ZM1174 320.805C1174.55 320.805 1175 321.253 1175 321.805L1175 328.878C1175 329.43 1174.55 329.878 1174 329.878C1173.45 329.878 1173 329.43 1173 328.878L1173 321.805C1173 321.253 1173.45 320.805 1174 320.805ZM1174 334.951C1174.55 334.951 1175 335.399 1175 335.951L1175 343.024C1175 343.577 1174.55 344.024 1174 344.024C1173.45 344.024 1173 343.577 1173 343.024L1173 335.951C1173 335.399 1173.45 334.951 1174 334.951ZM1174 349.098C1174.55 349.098 1175 349.545 1175 350.098L1175 357.171C1175 357.723 1174.55 358.171 1174 358.171C1173.45 358.171 1173 357.723 1173 357.171L1173 350.098C1173 349.545 1173.45 349.098 1174 349.098ZM1174 363.244C1174.55 363.244 1175 363.692 1175 364.244L1175 371.317C1175 371.869 1174.55 372.317 1174 372.317C1173.45 372.317 1173 371.869 1173 371.317L1173 364.244C1173 363.692 1173.45 363.244 1174 363.244ZM1174 377.39C1174.55 377.39 1175 377.838 1175 378.39L1175 385.463C1175 386.016 1174.55 386.463 1174 386.463C1173.45 386.463 1173 386.016 1173 385.463L1173 378.39C1173 377.838 1173.45 377.39 1174 377.39ZM1174 391.537C1174.55 391.537 1175 391.984 1175 392.537L1175 399.61C1175 400.162 1174.55 400.61 1174 400.61C1173.45 400.61 1173 400.162 1173 399.61L1173 392.537C1173 391.984 1173.45 391.537 1174 391.537ZM1174 405.683C1174.55 405.683 1175 406.131 1175 406.683L1175 413.756C1175 414.308 1174.55 414.756 1174 414.756C1173.45 414.756 1173 414.308 1173 413.756L1173 406.683C1173 406.131 1173.45 405.683 1174 405.683ZM1174 419.829C1174.55 419.829 1175 420.277 1175 420.829L1175 427.902C1175 428.455 1174.55 428.902 1174 428.902C1173.45 428.902 1173 428.455 1173 427.902L1173 420.829C1173 420.277 1173.45 419.829 1174 419.829ZM1174 433.976C1174.55 433.976 1175 434.423 1175 434.976L1175 442.049C1175 442.601 1174.55 443.049 1174 443.049C1173.45 443.049 1173 442.601 1173 442.049L1173 434.976C1173 434.423 1173.45 433.976 1174 433.976ZM1174 448.122C1174.55 448.122 1175 448.57 1175 449.122L1175 456.195C1175 456.747 1174.55 457.195 1174 457.195C1173.45 457.195 1173 456.747 1173 456.195L1173 449.122C1173 448.57 1173.45 448.122 1174 448.122ZM1174 462.268C1174.55 462.268 1175 462.716 1175 463.268L1175 470.341C1175 470.894 1174.55 471.341 1174 471.341C1173.45 471.341 1173 470.894 1173 470.341L1173 463.268C1173 462.716 1173.45 462.268 1174 462.268ZM1174 476.415C1174.55 476.415 1175 476.862 1175 477.415L1175 484.488C1175 485.04 1174.55 485.488 1174 485.488C1173.45 485.488 1173 485.04 1173 484.488L1173 477.415C1173 476.862 1173.45 476.415 1174 476.415ZM1174 490.561C1174.55 490.561 1175 491.009 1175 491.561L1175 498.634C1175 499.186 1174.55 499.634 1174 499.634C1173.45 499.634 1173 499.186 1173 498.634L1173 491.561C1173 491.009 1173.45 490.561 1174 490.561ZM1174 504.707C1174.55 504.707 1175 505.155 1175 505.707L1175 512.78C1175 513.333 1174.55 513.78 1174 513.78C1173.45 513.78 1173 513.333 1173 512.78L1173 505.707C1173 505.155 1173.45 504.707 1174 504.707ZM1174 518.854C1174.55 518.854 1175 519.301 1175 519.854L1175 526.927C1175 527.479 1174.55 527.927 1174 527.927C1173.45 527.927 1173 527.479 1173 526.927L1173 519.854C1173 519.301 1173.45 518.854 1174 518.854ZM1174 533C1174.55 533 1175 533.448 1175 534L1175 541.073C1175 541.625 1174.55 542.073 1174 542.073C1173.45 542.073 1173 541.625 1173 541.073L1173 534C1173 533.448 1173.45 533 1174 533ZM1174 547.146C1174.55 547.146 1175 547.594 1175 548.146L1175 555.219C1175 555.772 1174.55 556.219 1174 556.219C1173.45 556.219 1173 555.772 1173 555.219L1173 548.146C1173 547.594 1173.45 547.146 1174 547.146ZM1174 561.293C1174.55 561.293 1175 561.74 1175 562.293L1175 569.366C1175 569.918 1174.55 570.366 1174 570.366C1173.45 570.366 1173 569.918 1173 569.366L1173 562.293C1173 561.74 1173.45 561.293 1174 561.293ZM1174 575.439C1174.55 575.439 1175 575.887 1175 576.439L1175 583.512C1175 584.064 1174.55 584.512 1174 584.512C1173.45 584.512 1173 584.064 1173 583.512L1173 576.439C1173 575.887 1173.45 575.439 1174 575.439ZM1174 589.585C1174.55 589.585 1175 590.033 1175 590.585L1175 597.659C1175 598.211 1174.55 598.659 1174 598.659C1173.45 598.659 1173 598.211 1173 597.659L1173 590.585C1173 590.033 1173.45 589.585 1174 589.585ZM1174 603.732C1174.55 603.732 1175 604.179 1175 604.732L1175 611.805C1175 612.357 1174.55 612.805 1174 612.805C1173.45 612.805 1173 612.357 1173 611.805L1173 604.732C1173 604.179 1173.45 603.732 1174 603.732ZM1174 617.878C1174.55 617.878 1175 618.326 1175 618.878L1175 625.951C1175 626.503 1174.55 626.951 1174 626.951C1173.45 626.951 1173 626.503 1173 625.951L1173 618.878C1173 618.326 1173.45 617.878 1174 617.878ZM1174 632.024C1174.55 632.024 1175 632.472 1175 633.024L1175 640.098C1175 640.65 1174.55 641.098 1174 641.098C1173.45 641.098 1173 640.65 1173 640.098L1173 633.024C1173 632.472 1173.45 632.024 1174 632.024ZM1174 646.171C1174.55 646.171 1175 646.618 1175 647.171L1175 654.244C1175 654.796 1174.55 655.244 1174 655.244C1173.45 655.244 1173 654.796 1173 654.244L1173 647.171C1173 646.618 1173.45 646.171 1174 646.171ZM1174 660.317C1174.55 660.317 1175 660.765 1175 661.317L1175 668.39C1175 668.943 1174.55 669.39 1174 669.39C1173.45 669.39 1173 668.943 1173 668.39L1173 661.317C1173 660.765 1173.45 660.317 1174 660.317ZM1174 674.463C1174.55 674.463 1175 674.911 1175 675.463L1175 679C1175 679.552 1174.55 680 1174 680C1173.45 680 1173 679.552 1173 679L1173 675.463C1173 674.911 1173.45 674.463 1174 674.463Z" fill="url(#paint10_linear)"/>
<path fill-rule="evenodd" clip-rule="evenodd" d="M1228 129C1228.55 129 1229 129.448 1229 130L1229 133.52C1229 134.072 1228.55 134.52 1228 134.52C1227.45 134.52 1227 134.072 1227 133.52L1227 130C1227 129.448 1227.45 129 1228 129ZM1228 139.558C1228.55 139.558 1229 140.006 1229 140.558L1229 147.596C1229 148.149 1228.55 148.596 1228 148.596C1227.45 148.596 1227 148.149 1227 147.596L1227 140.558C1227 140.006 1227.45 139.558 1228 139.558ZM1228 153.635C1228.55 153.635 1229 154.083 1229 154.635L1229 161.673C1229 162.226 1228.55 162.673 1228 162.673C1227.45 162.673 1227 162.226 1227 161.673L1227 154.635C1227 154.083 1227.45 153.635 1228 153.635ZM1228 167.712C1228.55 167.712 1229 168.16 1229 168.712L1229 175.75C1229 176.303 1228.55 176.75 1228 176.75C1227.45 176.75 1227 176.303 1227 175.75L1227 168.712C1227 168.16 1227.45 167.712 1228 167.712ZM1228 181.789C1228.55 181.789 1229 182.236 1229 182.789L1229 189.827C1229 190.379 1228.55 190.827 1228 190.827C1227.45 190.827 1227 190.379 1227 189.827L1227 182.789C1227 182.236 1227.45 181.789 1228 181.789ZM1228 195.866C1228.55 195.866 1229 196.313 1229 196.866L1229 203.904C1229 204.456 1228.55 204.904 1228 204.904C1227.45 204.904 1227 204.456 1227 203.904L1227 196.866C1227 196.313 1227.45 195.866 1228 195.866ZM1228 209.943C1228.55 209.943 1229 210.39 1229 210.943L1229 217.981C1229 218.533 1228.55 218.981 1228 218.981C1227.45 218.981 1227 218.533 1227 217.981L1227 210.943C1227 210.39 1227.45 209.943 1228 209.943ZM1228 224.019C1228.55 224.019 1229 224.467 1229 225.019L1229 232.058C1229 232.61 1228.55 233.058 1228 233.058C1227.45 233.058 1227 232.61 1227 232.058L1227 225.019C1227 224.467 1227.45 224.019 1228 224.019ZM1228 238.096C1228.55 238.096 1229 238.544 1229 239.096L1229 246.135C1229 246.687 1228.55 247.135 1228 247.135C1227.45 247.135 1227 246.687 1227 246.135L1227 239.096C1227 238.544 1227.45 238.096 1228 238.096ZM1228 252.173C1228.55 252.173 1229 252.621 1229 253.173L1229 260.212C1229 260.764 1228.55 261.212 1228 261.212C1227.45 261.212 1227 260.764 1227 260.212L1227 253.173C1227 252.621 1227.45 252.173 1228 252.173ZM1228 266.25C1228.55 266.25 1229 266.698 1229 267.25L1229 274.289C1229 274.841 1228.55 275.289 1228 275.289C1227.45 275.289 1227 274.841 1227 274.289L1227 267.25C1227 266.698 1227.45 266.25 1228 266.25ZM1228 280.327C1228.55 280.327 1229 280.775 1229 281.327L1229 288.365C1229 288.918 1228.55 289.365 1228 289.365C1227.45 289.365 1227 288.918 1227 288.365L1227 281.327C1227 280.775 1227.45 280.327 1228 280.327ZM1228 294.404C1228.55 294.404 1229 294.852 1229 295.404L1229 302.442C1229 302.995 1228.55 303.442 1228 303.442C1227.45 303.442 1227 302.995 1227 302.442L1227 295.404C1227 294.852 1227.45 294.404 1228 294.404ZM1228 308.481C1228.55 308.481 1229 308.929 1229 309.481L1229 316.519C1229 317.072 1228.55 317.519 1228 317.519C1227.45 317.519 1227 317.072 1227 316.519L1227 309.481C1227 308.929 1227.45 308.481 1228 308.481ZM1228 322.558C1228.55 322.558 1229 323.005 1229 323.558L1229 330.596C1229 331.148 1228.55 331.596 1228 331.596C1227.45 331.596 1227 331.148 1227 330.596L1227 323.558C1227 323.005 1227.45 322.558 1228 322.558ZM1228 336.635C1228.55 336.635 1229 337.082 1229 337.635L1229 344.673C1229 345.225 1228.55 345.673 1228 345.673C1227.45 345.673 1227 345.225 1227 344.673L1227 337.635C1227 337.082 1227.45 336.635 1228 336.635ZM1228 350.712C1228.55 350.712 1229 351.159 1229 351.712L1229 358.75C1229 359.302 1228.55 359.75 1228 359.75C1227.45 359.75 1227 359.302 1227 358.75L1227 351.712C1227 351.159 1227.45 350.712 1228 350.712ZM1228 364.788C1228.55 364.788 1229 365.236 1229 365.788L1229 372.827C1229 373.379 1228.55 373.827 1228 373.827C1227.45 373.827 1227 373.379 1227 372.827L1227 365.788C1227 365.236 1227.45 364.788 1228 364.788ZM1228 378.865C1228.55 378.865 1229 379.313 1229 379.865L1229 386.904C1229 387.456 1228.55 387.904 1228 387.904C1227.45 387.904 1227 387.456 1227 386.904L1227 379.865C1227 379.313 1227.45 378.865 1228 378.865ZM1228 392.942C1228.55 392.942 1229 393.39 1229 393.942L1229 400.981C1229 401.533 1228.55 401.981 1228 401.981C1227.45 401.981 1227 401.533 1227 400.981L1227 393.942C1227 393.39 1227.45 392.942 1228 392.942ZM1228 407.019C1228.55 407.019 1229 407.467 1229 408.019L1229 415.058C1229 415.61 1228.55 416.058 1228 416.058C1227.45 416.058 1227 415.61 1227 415.058L1227 408.019C1227 407.467 1227.45 407.019 1228 407.019ZM1228 421.096C1228.55 421.096 1229 421.544 1229 422.096L1229 429.135C1229 429.687 1228.55 430.135 1228 430.135C1227.45 430.135 1227 429.687 1227 429.135L1227 422.096C1227 421.544 1227.45 421.096 1228 421.096ZM1228 435.173C1228.55 435.173 1229 435.621 1229 436.173L1229 443.211C1229 443.764 1228.55 444.211 1228 444.211C1227.45 444.211 1227 443.764 1227 443.211L1227 436.173C1227 435.621 1227.45 435.173 1228 435.173ZM1228 449.25C1228.55 449.25 1229 449.698 1229 450.25L1229 457.288C1229 457.841 1228.55 458.288 1228 458.288C1227.45 458.288 1227 457.841 1227 457.288L1227 450.25C1227 449.698 1227.45 449.25 1228 449.25ZM1228 463.327C1228.55 463.327 1229 463.775 1229 464.327L1229 471.365C1229 471.918 1228.55 472.365 1228 472.365C1227.45 472.365 1227 471.918 1227 471.365L1227 464.327C1227 463.775 1227.45 463.327 1228 463.327ZM1228 477.404C1228.55 477.404 1229 477.852 1229 478.404L1229 485.442C1229 485.995 1228.55 486.442 1228 486.442C1227.45 486.442 1227 485.995 1227 485.442L1227 478.404C1227 477.852 1227.45 477.404 1228 477.404ZM1228 491.481C1228.55 491.481 1229 491.928 1229 492.481L1229 499.519C1229 500.072 1228.55 500.519 1228 500.519C1227.45 500.519 1227 500.072 1227 499.519L1227 492.481C1227 491.928 1227.45 491.481 1228 491.481ZM1228 505.558C1228.55 505.558 1229 506.005 1229 506.558L1229 513.596C1229 514.148 1228.55 514.596 1228 514.596C1227.45 514.596 1227 514.148 1227 513.596L1227 506.558C1227 506.005 1227.45 505.558 1228 505.558ZM1228 519.635C1228.55 519.635 1229 520.082 1229 520.635L1229 527.673C1229 528.225 1228.55 528.673 1228 528.673C1227.45 528.673 1227 528.225 1227 527.673L1227 520.635C1227 520.082 1227.45 519.635 1228 519.635ZM1228 533.712C1228.55 533.712 1229 534.159 1229 534.712L1229 541.75C1229 542.302 1228.55 542.75 1228 542.75C1227.45 542.75 1227 542.302 1227 541.75L1227 534.712C1227 534.159 1227.45 533.712 1228 533.712ZM1228 547.788C1228.55 547.788 1229 548.236 1229 548.788L1229 555.827C1229 556.379 1228.55 556.827 1228 556.827C1227.45 556.827 1227 556.379 1227 555.827L1227 548.788C1227 548.236 1227.45 547.788 1228 547.788ZM1228 561.865C1228.55 561.865 1229 562.313 1229 562.865L1229 569.904C1229 570.456 1228.55 570.904 1228 570.904C1227.45 570.904 1227 570.456 1227 569.904L1227 562.865C1227 562.313 1227.45 561.865 1228 561.865ZM1228 575.942C1228.55 575.942 1229 576.39 1229 576.942L1229 583.981C1229 584.533 1228.55 584.981 1228 584.981C1227.45 584.981 1227 584.533 1227 583.981L1227 576.942C1227 576.39 1227.45 575.942 1228 575.942ZM1228 590.019C1228.55 590.019 1229 590.467 1229 591.019L1229 598.058C1229 598.61 1228.55 599.058 1228 599.058C1227.45 599.058 1227 598.61 1227 598.058L1227 591.019C1227 590.467 1227.45 590.019 1228 590.019ZM1228 604.096C1228.55 604.096 1229 604.544 1229 605.096L1229 612.135C1229 612.687 1228.55 613.135 1228 613.135C1227.45 613.135 1227 612.687 1227 612.135L1227 605.096C1227 604.544 1227.45 604.096 1228 604.096ZM1228 618.173C1228.55 618.173 1229 618.621 1229 619.173L1229 626.212C1229 626.764 1228.55 627.212 1228 627.212C1227.45 627.212 1227 626.764 1227 626.212L1227 619.173C1227 618.621 1227.45 618.173 1228 618.173ZM1228 632.25C1228.55 632.25 1229 632.698 1229 633.25L1229 640.288C1229 640.841 1228.55 641.288 1228 641.288C1227.45 641.288 1227 640.841 1227 640.288L1227 633.25C1227 632.698 1227.45 632.25 1228 632.25ZM1228 646.327C1228.55 646.327 1229 646.775 1229 647.327L1229 654.365C1229 654.918 1228.55 655.365 1228 655.365C1227.45 655.365 1227 654.918 1227 654.365L1227 647.327C1227 646.775 1227.45 646.327 1228 646.327ZM1228 660.404C1228.55 660.404 1229 660.852 1229 661.404L1229 668.442C1229 668.995 1228.55 669.442 1228 669.442C1227.45 669.442 1227 668.995 1227 668.442L1227 661.404C1227 660.852 1227.45 660.404 1228 660.404ZM1228 674.481C1228.55 674.481 1229 674.928 1229 675.481L1229 679C1229 679.552 1228.55 680 1228 680C1227.45 680 1227 679.552 1227 679L1227 675.481C1227 674.928 1227.45 674.481 1228 674.481Z" fill="url(#paint11_linear)"/>
<path fill-rule="evenodd" clip-rule="evenodd" d="M1400 11C1400.55 11 1401 11.4477 1401 12L1401 15.4738C1401 16.0261 1400.55 16.4738 1400 16.4738C1399.45 16.4738 1399 16.0261 1399 15.4738L1399 12C1399 11.4477 1399.45 11 1400 11ZM1400 21.4218C1400.55 21.4218 1401 21.8695 1401 22.4218L1401 29.3697C1401 29.922 1400.55 30.3697 1400 30.3697C1399.45 30.3697 1399 29.922 1399 29.3697L1399 22.4218C1399 21.8695 1399.45 21.4218 1400 21.4218ZM1400 35.3176C1400.55 35.3176 1401 35.7653 1401 36.3176L1401 43.2655C1401 43.8178 1400.55 44.2655 1400 44.2655C1399.45 44.2655 1399 43.8178 1399 43.2655L1399 36.3176C1399 35.7653 1399.45 35.3176 1400 35.3176ZM1400 49.2135C1400.55 49.2135 1401 49.6612 1401 50.2135L1401 57.1614C1401 57.7137 1400.55 58.1614 1400 58.1614C1399.45 58.1614 1399 57.7137 1399 57.1614L1399 50.2135C1399 49.6612 1399.45 49.2135 1400 49.2135ZM1400 63.1094C1400.55 63.1094 1401 63.5571 1401 64.1094L1401 71.0573C1401 71.6096 1400.55 72.0573 1400 72.0573C1399.45 72.0573 1399 71.6096 1399 71.0573L1399 64.1094C1399 63.5571 1399.45 63.1094 1400 63.1094ZM1400 77.0052C1400.55 77.0052 1401 77.4529 1401 78.0052L1401 84.9532C1401 85.5055 1400.55 85.9532 1400 85.9532C1399.45 85.9532 1399 85.5055 1399 84.9532L1399 78.0052C1399 77.4529 1399.45 77.0052 1400 77.0052ZM1400 90.9011C1400.55 90.9011 1401 91.3488 1401 91.9011L1401 98.8491C1401 99.4014 1400.55 99.8491 1400 99.8491C1399.45 99.8491 1399 99.4014 1399 98.8491L1399 91.9011C1399 91.3488 1399.45 90.9011 1400 90.9011ZM1400 104.797C1400.55 104.797 1401 105.245 1401 105.797L1401 112.745C1401 113.297 1400.55 113.745 1400 113.745C1399.45 113.745 1399 113.297 1399 112.745L1399 105.797C1399 105.245 1399.45 104.797 1400 104.797ZM1400 118.693C1400.55 118.693 1401 119.141 1401 119.693L1401 126.641C1401 127.193 1400.55 127.641 1400 127.641C1399.45 127.641 1399 127.193 1399 126.641L1399 119.693C1399 119.141 1399.45 118.693 1400 118.693ZM1400 132.589C1400.55 132.589 1401 133.036 1401 133.589L1401 140.537C1401 141.089 1400.55 141.537 1400 141.537C1399.45 141.537 1399 141.089 1399 140.537L1399 133.589C1399 133.036 1399.45 132.589 1400 132.589ZM1400 146.485C1400.55 146.485 1401 146.932 1401 147.485L1401 154.433C1401 154.985 1400.55 155.433 1400 155.433C1399.45 155.433 1399 154.985 1399 154.433L1399 147.485C1399 146.932 1399.45 146.485 1400 146.485ZM1400 160.38C1400.55 160.38 1401 160.828 1401 161.38L1401 168.328C1401 168.881 1400.55 169.328 1400 169.328C1399.45 169.328 1399 168.881 1399 168.328L1399 161.38C1399 160.828 1399.45 160.38 1400 160.38ZM1400 174.276C1400.55 174.276 1401 174.724 1401 175.276L1401 182.224C1401 182.777 1400.55 183.224 1400 183.224C1399.45 183.224 1399 182.777 1399 182.224L1399 175.276C1399 174.724 1399.45 174.276 1400 174.276ZM1400 188.172C1400.55 188.172 1401 188.62 1401 189.172L1401 196.12C1401 196.672 1400.55 197.12 1400 197.12C1399.45 197.12 1399 196.672 1399 196.12L1399 189.172C1399 188.62 1399.45 188.172 1400 188.172ZM1400 202.068C1400.55 202.068 1401 202.516 1401 203.068L1401 210.016C1401 210.568 1400.55 211.016 1400 211.016C1399.45 211.016 1399 210.568 1399 210.016L1399 203.068C1399 202.516 1399.45 202.068 1400 202.068ZM1400 215.964C1400.55 215.964 1401 216.412 1401 216.964L1401 223.912C1401 224.464 1400.55 224.912 1400 224.912C1399.45 224.912 1399 224.464 1399 223.912L1399 216.964C1399 216.412 1399.45 215.964 1400 215.964ZM1400 229.86C1400.55 229.86 1401 230.307 1401 230.86L1401 237.808C1401 238.36 1400.55 238.808 1400 238.808C1399.45 238.808 1399 238.36 1399 237.808L1399 230.86C1399 230.307 1399.45 229.86 1400 229.86ZM1400 243.755C1400.55 243.755 1401 244.203 1401 244.755L1401 251.703C1401 252.256 1400.55 252.703 1400 252.703C1399.45 252.703 1399 252.256 1399 251.703L1399 244.755C1399 244.203 1399.45 243.755 1400 243.755ZM1400 257.651C1400.55 257.651 1401 258.099 1401 258.651L1401 265.599C1401 266.151 1400.55 266.599 1400 266.599C1399.45 266.599 1399 266.151 1399 265.599L1399 258.651C1399 258.099 1399.45 257.651 1400 257.651ZM1400 271.547C1400.55 271.547 1401 271.995 1401 272.547L1401 279.495C1401 280.047 1400.55 280.495 1400 280.495C1399.45 280.495 1399 280.047 1399 279.495L1399 272.547C1399 271.995 1399.45 271.547 1400 271.547ZM1400 285.443C1400.55 285.443 1401 285.891 1401 286.443L1401 293.391C1401 293.943 1400.55 294.391 1400 294.391C1399.45 294.391 1399 293.943 1399 293.391L1399 286.443C1399 285.891 1399.45 285.443 1400 285.443ZM1400 299.339C1400.55 299.339 1401 299.786 1401 300.339L1401 307.287C1401 307.839 1400.55 308.287 1400 308.287C1399.45 308.287 1399 307.839 1399 307.287L1399 300.339C1399 299.786 1399.45 299.339 1400 299.339ZM1400 313.234C1400.55 313.234 1401 313.682 1401 314.234L1401 321.182C1401 321.735 1400.55 322.182 1400 322.182C1399.45 322.182 1399 321.735 1399 321.182L1399 314.234C1399 313.682 1399.45 313.234 1400 313.234ZM1400 327.13C1400.55 327.13 1401 327.578 1401 328.13L1401 335.078C1401 335.63 1400.55 336.078 1400 336.078C1399.45 336.078 1399 335.63 1399 335.078L1399 328.13C1399 327.578 1399.45 327.13 1400 327.13ZM1400 341.026C1400.55 341.026 1401 341.474 1401 342.026L1401 348.974C1401 349.526 1400.55 349.974 1400 349.974C1399.45 349.974 1399 349.526 1399 348.974L1399 342.026C1399 341.474 1399.45 341.026 1400 341.026ZM1400 354.922C1400.55 354.922 1401 355.37 1401 355.922L1401 362.87C1401 363.422 1400.55 363.87 1400 363.87C1399.45 363.87 1399 363.422 1399 362.87L1399 355.922C1399 355.37 1399.45 354.922 1400 354.922ZM1400 368.818C1400.55 368.818 1401 369.265 1401 369.818L1401 376.766C1401 377.318 1400.55 377.766 1400 377.766C1399.45 377.766 1399 377.318 1399 376.766L1399 369.818C1399 369.265 1399.45 368.818 1400 368.818ZM1400 382.714C1400.55 382.714 1401 383.161 1401 383.714L1401 390.661C1401 391.214 1400.55 391.661 1400 391.661C1399.45 391.661 1399 391.214 1399 390.661L1399 383.714C1399 383.161 1399.45 382.714 1400 382.714ZM1400 396.609C1400.55 396.609 1401 397.057 1401 397.609L1401 404.557C1401 405.11 1400.55 405.557 1400 405.557C1399.45 405.557 1399 405.11 1399 404.557L1399 397.609C1399 397.057 1399.45 396.609 1400 396.609ZM1400 410.505C1400.55 410.505 1401 410.953 1401 411.505L1401 418.453C1401 419.005 1400.55 419.453 1400 419.453C1399.45 419.453 1399 419.005 1399 418.453L1399 411.505C1399 410.953 1399.45 410.505 1400 410.505ZM1400 424.401C1400.55 424.401 1401 424.849 1401 425.401L1401 432.349C1401 432.901 1400.55 433.349 1400 433.349C1399.45 433.349 1399 432.901 1399 432.349L1399 425.401C1399 424.849 1399.45 424.401 1400 424.401ZM1400 438.297C1400.55 438.297 1401 438.745 1401 439.297L1401 446.245C1401 446.797 1400.55 447.245 1400 447.245C1399.45 447.245 1399 446.797 1399 446.245L1399 439.297C1399 438.745 1399.45 438.297 1400 438.297ZM1400 452.193C1400.55 452.193 1401 452.64 1401 453.193L1401 460.141C1401 460.693 1400.55 461.141 1400 461.141C1399.45 461.141 1399 460.693 1399 460.141L1399 453.193C1399 452.64 1399.45 452.193 1400 452.193ZM1400 466.089C1400.55 466.089 1401 466.536 1401 467.089L1401 474.036C1401 474.589 1400.55 475.036 1400 475.036C1399.45 475.036 1399 474.589 1399 474.036L1399 467.089C1399 466.536 1399.45 466.089 1400 466.089ZM1400 479.984C1400.55 479.984 1401 480.432 1401 480.984L1401 487.932C1401 488.485 1400.55 488.932 1400 488.932C1399.45 488.932 1399 488.485 1399 487.932L1399 480.984C1399 480.432 1399.45 479.984 1400 479.984ZM1400 493.88C1400.55 493.88 1401 494.328 1401 494.88L1401 501.828C1401 502.38 1400.55 502.828 1400 502.828C1399.45 502.828 1399 502.38 1399 501.828L1399 494.88C1399 494.328 1399.45 493.88 1400 493.88ZM1400 507.776C1400.55 507.776 1401 508.224 1401 508.776L1401 515.724C1401 516.276 1400.55 516.724 1400 516.724C1399.45 516.724 1399 516.276 1399 515.724L1399 508.776C1399 508.224 1399.45 507.776 1400 507.776ZM1400 521.672C1400.55 521.672 1401 522.12 1401 522.672L1401 529.62C1401 530.172 1400.55 530.62 1400 530.62C1399.45 530.62 1399 530.172 1399 529.62L1399 522.672C1399 522.12 1399.45 521.672 1400 521.672ZM1400 535.568C1400.55 535.568 1401 536.015 1401 536.568L1401 543.516C1401 544.068 1400.55 544.516 1400 544.516C1399.45 544.516 1399 544.068 1399 543.516L1399 536.568C1399 536.015 1399.45 535.568 1400 535.568ZM1400 549.464C1400.55 549.464 1401 549.911 1401 550.464L1401 557.411C1401 557.964 1400.55 558.411 1400 558.411C1399.45 558.411 1399 557.964 1399 557.411L1399 550.464C1399 549.911 1399.45 549.464 1400 549.464ZM1400 563.359C1400.55 563.359 1401 563.807 1401 564.359L1401 571.307C1401 571.86 1400.55 572.307 1400 572.307C1399.45 572.307 1399 571.86 1399 571.307L1399 564.359C1399 563.807 1399.45 563.359 1400 563.359ZM1400 577.255C1400.55 577.255 1401 577.703 1401 578.255L1401 585.203C1401 585.755 1400.55 586.203 1400 586.203C1399.45 586.203 1399 585.755 1399 585.203L1399 578.255C1399 577.703 1399.45 577.255 1400 577.255ZM1400 591.151C1400.55 591.151 1401 591.599 1401 592.151L1401 599.099C1401 599.651 1400.55 600.099 1400 600.099C1399.45 600.099 1399 599.651 1399 599.099L1399 592.151C1399 591.599 1399.45 591.151 1400 591.151ZM1400 605.047C1400.55 605.047 1401 605.495 1401 606.047L1401 612.995C1401 613.547 1400.55 613.995 1400 613.995C1399.45 613.995 1399 613.547 1399 612.995L1399 606.047C1399 605.495 1399.45 605.047 1400 605.047ZM1400 618.943C1400.55 618.943 1401 619.39 1401 619.943L1401 626.891C1401 627.443 1400.55 627.891 1400 627.891C1399.45 627.891 1399 627.443 1399 626.891L1399 619.943C1399 619.39 1399.45 618.943 1400 618.943ZM1400 632.839C1400.55 632.839 1401 633.286 1401 633.839L1401 640.786C1401 641.339 1400.55 641.786 1400 641.786C1399.45 641.786 1399 641.339 1399 640.786L1399 633.839C1399 633.286 1399.45 632.839 1400 632.839ZM1400 646.734C1400.55 646.734 1401 647.182 1401 647.734L1401 654.682C1401 655.235 1400.55 655.682 1400 655.682C1399.45 655.682 1399 655.235 1399 654.682L1399 647.734C1399 647.182 1399.45 646.734 1400 646.734ZM1400 660.63C1400.55 660.63 1401 661.078 1401 661.63L1401 668.578C1401 669.13 1400.55 669.578 1400 669.578C1399.45 669.578 1399 669.13 1399 668.578L1399 661.63C1399 661.078 1399.45 660.63 1400 660.63ZM1400 674.526C1400.55 674.526 1401 674.974 1401 675.526L1401 679C1401 679.552 1400.55 680 1400 680C1399.45 680 1399 679.552 1399 679L1399 675.526C1399 674.974 1399.45 674.526 1400 674.526Z" fill="url(#paint12_linear)"/>
<path d="M12 341C12 344.314 9.31371 347 6 347C2.68629 347 0 344.314 0 341C0 337.686 2.68629 335 6 335C9.31371 335 12 337.686 12 341Z" fill="white"/>
<path fill-rule="evenodd" clip-rule="evenodd" d="M6 345C8.20914 345 10 343.209 10 341C10 338.791 8.20914 337 6 337C3.79086 337 2 338.791 2 341C2 343.209 3.79086 345 6 345ZM6 347C9.31371 347 12 344.314 12 341C12 337.686 9.31371 335 6 335C2.68629 335 0 337.686 0 341C0 344.314 2.68629 347 6 347Z" fill="#CFEDFC"/>
<path d="M156 259C156 262.314 153.314 265 150 265C146.686 265 144 262.314 144 259C144 255.686 146.686 253 150 253C153.314 253 156 255.686 156 259Z" fill="white"/>
<path fill-rule="evenodd" clip-rule="evenodd" d="M150 263C152.209 263 154 261.209 154 259C154 256.791 152.209 255 150 255C147.791 255 146 256.791 146 259C146 261.209 147.791 263 150 263ZM150 265C153.314 265 156 262.314 156 259C156 255.686 153.314 253 150 253C146.686 253 144 255.686 144 259C144 262.314 146.686 265 150 265Z" fill="#CFEDFC"/>
<path d="M190 279C190 282.314 187.314 285 184 285C180.686 285 178 282.314 178 279C178 275.686 180.686 273 184 273C187.314 273 190 275.686 190 279Z" fill="white"/>
<path fill-rule="evenodd" clip-rule="evenodd" d="M184 283C186.209 283 188 281.209 188 279C188 276.791 186.209 275 184 275C181.791 275 180 276.791 180 279C180 281.209 181.791 283 184 283ZM184 285C187.314 285 190 282.314 190 279C190 275.686 187.314 273 184 273C180.686 273 178 275.686 178 279C178 282.314 180.686 285 184 285Z" fill="#CFEDFC"/>
<path d="M384 168C384 171.314 381.314 174 378 174C374.686 174 372 171.314 372 168C372 164.686 374.686 162 378 162C381.314 162 384 164.686 384 168Z" fill="white"/>
<path fill-rule="evenodd" clip-rule="evenodd" d="M378 172C380.209 172 382 170.209 382 168C382 165.791 380.209 164 378 164C375.791 164 374 165.791 374 168C374 170.209 375.791 172 378 172ZM378 174C381.314 174 384 171.314 384 168C384 164.686 381.314 162 378 162C374.686 162 372 164.686 372 168C372 171.314 374.686 174 378 174Z" fill="#CFEDFC"/>
<path d="M423 196C423 199.314 420.314 202 417 202C413.686 202 411 199.314 411 196C411 192.686 413.686 190 417 190C420.314 190 423 192.686 423 196Z" fill="white"/>
<path fill-rule="evenodd" clip-rule="evenodd" d="M417 200C419.209 200 421 198.209 421 196C421 193.791 419.209 192 417 192C414.791 192 413 193.791 413 196C413 198.209 414.791 200 417 200ZM417 202C420.314 202 423 199.314 423 196C423 192.686 420.314 190 417 190C413.686 190 411 192.686 411 196C411 199.314 413.686 202 417 202Z" fill="#CFEDFC"/>
<path d="M713 196C713 199.314 710.314 202 707 202C703.686 202 701 199.314 701 196C701 192.686 703.686 190 707 190C710.314 190 713 192.686 713 196Z" fill="white"/>
<path fill-rule="evenodd" clip-rule="evenodd" d="M707 200C709.209 200 711 198.209 711 196C711 193.791 709.209 192 707 192C704.791 192 703 193.791 703 196C703 198.209 704.791 200 707 200ZM707 202C710.314 202 713 199.314 713 196C713 192.686 710.314 190 707 190C703.686 190 701 192.686 701 196C701 199.314 703.686 202 707 202Z" fill="#CFEDFC"/>
<path d="M580 115C580 118.314 577.314 121 574 121C570.686 121 568 118.314 568 115C568 111.686 570.686 109 574 109C577.314 109 580 111.686 580 115Z" fill="white"/>
<path fill-rule="evenodd" clip-rule="evenodd" d="M574 119C576.209 119 578 117.209 578 115C578 112.791 576.209 111 574 111C571.791 111 570 112.791 570 115C570 117.209 571.791 119 574 119ZM574 121C577.314 121 580 118.314 580 115C580 111.686 577.314 109 574 109C570.686 109 568 111.686 568 115C568 118.314 570.686 121 574 121Z" fill="#CFEDFC"/>
<path d="M849 94C849 97.3137 846.314 100 843 100C839.686 100 837 97.3137 837 94C837 90.6863 839.686 88 843 88C846.314 88 849 90.6863 849 94Z" fill="white"/>
<path fill-rule="evenodd" clip-rule="evenodd" d="M843 98C845.209 98 847 96.2091 847 94C847 91.7909 845.209 90 843 90C840.791 90 839 91.7909 839 94C839 96.2091 840.791 98 843 98ZM843 100C846.314 100 849 97.3137 849 94C849 90.6863 846.314 88 843 88C839.686 88 837 90.6863 837 94C837 97.3137 839.686 100 843 100Z" fill="#CFEDFC"/>
<path d="M1022 166C1022 169.314 1019.31 172 1016 172C1012.69 172 1010 169.314 1010 166C1010 162.686 1012.69 160 1016 160C1019.31 160 1022 162.686 1022 166Z" fill="white"/>
<path fill-rule="evenodd" clip-rule="evenodd" d="M1016 170C1018.21 170 1020 168.209 1020 166C1020 163.791 1018.21 162 1016 162C1013.79 162 1012 163.791 1012 166C1012 168.209 1013.79 170 1016 170ZM1016 172C1019.31 172 1022 169.314 1022 166C1022 162.686 1019.31 160 1016 160C1012.69 160 1010 162.686 1010 166C1010 169.314 1012.69 172 1016 172Z" fill="#CFEDFC"/>
<path d="M1180 94C1180 97.3137 1177.31 100 1174 100C1170.69 100 1168 97.3137 1168 94C1168 90.6863 1170.69 88 1174 88C1177.31 88 1180 90.6863 1180 94Z" fill="white"/>
<path fill-rule="evenodd" clip-rule="evenodd" d="M1174 98C1176.21 98 1178 96.2091 1178 94C1178 91.7909 1176.21 90 1174 90C1171.79 90 1170 91.7909 1170 94C1170 96.2091 1171.79 98 1174 98ZM1174 100C1177.31 100 1180 97.3137 1180 94C1180 90.6863 1177.31 88 1174 88C1170.69 88 1168 90.6863 1168 94C1168 97.3137 1170.69 100 1174 100Z" fill="#CFEDFC"/>
<path d="M1234 124C1234 127.314 1231.31 130 1228 130C1224.69 130 1222 127.314 1222 124C1222 120.686 1224.69 118 1228 118C1231.31 118 1234 120.686 1234 124Z" fill="white"/>
<path fill-rule="evenodd" clip-rule="evenodd" d="M1228 128C1230.21 128 1232 126.209 1232 124C1232 121.791 1230.21 120 1228 120C1225.79 120 1224 121.791 1224 124C1224 126.209 1225.79 128 1228 128ZM1228 130C1231.31 130 1234 127.314 1234 124C1234 120.686 1231.31 118 1228 118C1224.69 118 1222 120.686 1222 124C1222 127.314 1224.69 130 1228 130Z" fill="#CFEDFC"/>
<path d="M1406 6C1406 9.31371 1403.31 12 1400 12C1396.69 12 1394 9.31371 1394 6C1394 2.68629 1396.69 0 1400 0C1403.31 0 1406 2.68629 1406 6Z" fill="white"/>
<path fill-rule="evenodd" clip-rule="evenodd" d="M1400 10C1402.21 10 1404 8.20914 1404 6C1404 3.79086 1402.21 2 1400 2C1397.79 2 1396 3.79086 1396 6C1396 8.20914 1397.79 10 1400 10ZM1400 12C1403.31 12 1406 9.31371 1406 6C1406 2.68629 1403.31 0 1400 0C1396.69 0 1394 2.68629 1394 6C1394 9.31371 1396.69 12 1400 12Z" fill="#CFEDFC"/>
<defs>
<linearGradient id="paint0_linear" x1="703" y1="6" x2="703" y2="725.902" gradientUnits="userSpaceOnUse">
<stop stop-color="#ECF9FF"/>
<stop offset="1" stop-color="white"/>
</linearGradient>
<linearGradient id="paint1_linear" x1="7" y1="347" x2="7" y2="679.5" gradientUnits="userSpaceOnUse">
<stop stop-color="#CFEDFC"/>
<stop offset="1" stop-color="#CFEDFC" stop-opacity="0"/>
</linearGradient>
<linearGradient id="paint2_linear" x1="150.5" y1="265" x2="150.5" y2="679" gradientUnits="userSpaceOnUse">
<stop stop-color="#CFEDFC"/>
<stop offset="1" stop-color="#CFEDFC" stop-opacity="0"/>
</linearGradient>
<linearGradient id="paint3_linear" x1="184.019" y1="285" x2="184.019" y2="708.678" gradientUnits="userSpaceOnUse">
<stop stop-color="#CFEDFC"/>
<stop offset="1" stop-color="#CFEDFC" stop-opacity="0"/>
</linearGradient>
<linearGradient id="paint4_linear" x1="377.976" y1="173" x2="377.976" y2="717.114" gradientUnits="userSpaceOnUse">
<stop stop-color="#CFEDFC"/>
<stop offset="1" stop-color="#CFEDFC" stop-opacity="0"/>
</linearGradient>
<linearGradient id="paint5_linear" x1="416.977" y1="202" x2="416.977" y2="714.93" gradientUnits="userSpaceOnUse">
<stop stop-color="#CFEDFC"/>
<stop offset="1" stop-color="#CFEDFC" stop-opacity="0"/>
</linearGradient>
<linearGradient id="paint6_linear" x1="573.973" y1="119" x2="573.973" y2="721.182" gradientUnits="userSpaceOnUse">
<stop stop-color="#CFEDFC"/>
<stop offset="1" stop-color="#CFEDFC" stop-opacity="0"/>
</linearGradient>
<linearGradient id="paint7_linear" x1="706.977" y1="202" x2="706.977" y2="714.93" gradientUnits="userSpaceOnUse">
<stop stop-color="#CFEDFC"/>
<stop offset="1" stop-color="#CFEDFC" stop-opacity="0"/>
</linearGradient>
<linearGradient id="paint8_linear" x1="842.972" y1="100" x2="842.972" y2="722.613" gradientUnits="userSpaceOnUse">
<stop stop-color="#CFEDFC"/>
<stop offset="1" stop-color="#CFEDFC" stop-opacity="0"/>
</linearGradient>
<linearGradient id="paint9_linear" x1="1015.98" y1="172" x2="1015.98" y2="717.19" gradientUnits="userSpaceOnUse">
<stop stop-color="#CFEDFC"/>
<stop offset="1" stop-color="#CFEDFC" stop-opacity="0"/>
</linearGradient>
<linearGradient id="paint10_linear" x1="1173.97" y1="99" x2="1173.97" y2="722.688" gradientUnits="userSpaceOnUse">
<stop stop-color="#CFEDFC"/>
<stop offset="1" stop-color="#CFEDFC" stop-opacity="0"/>
</linearGradient>
<linearGradient id="paint11_linear" x1="1227.97" y1="130" x2="1227.97" y2="720.353" gradientUnits="userSpaceOnUse">
<stop stop-color="#CFEDFC"/>
<stop offset="1" stop-color="#CFEDFC" stop-opacity="0"/>
</linearGradient>
<linearGradient id="paint12_linear" x1="1399.97" y1="12" x2="1399.97" y2="729.241" gradientUnits="userSpaceOnUse">
<stop stop-color="#CFEDFC"/>
<stop offset="1" stop-color="#CFEDFC" stop-opacity="0"/>
</linearGradient>
</defs>
</svg>
