<svg width="719" height="423" viewBox="0 0 719 423" fill="none" xmlns="http://www.w3.org/2000/svg">
<g filter="url(#filter0_d)">
<path d="M50 61C50 52.7157 56.7157 46 65 46H654C662.284 46 669 52.7157 669 61V354C669 362.284 662.284 369 654 369H65C56.7157 369 50 362.284 50 354V61Z" fill="white"/>
</g>
<path d="M112 120L339 120" stroke="black"/>
<path d="M113.656 90.4H122.152V91.84H115.168V95.926H121.612V97.366H115.168V101.56H122.26V103H113.656V90.4ZM123.601 98.716C123.601 97.96 123.739 97.282 124.015 96.682C124.291 96.082 124.651 95.602 125.095 95.242C125.551 94.882 126.049 94.612 126.589 94.432C127.141 94.24 127.705 94.144 128.281 94.144C129.349 94.144 130.237 94.378 130.945 94.846V96.25C130.285 95.734 129.457 95.476 128.461 95.476C127.525 95.476 126.721 95.746 126.049 96.286C125.377 96.826 125.041 97.624 125.041 98.68C125.041 99.724 125.371 100.522 126.031 101.074C126.703 101.614 127.501 101.884 128.425 101.884C129.385 101.884 130.255 101.65 131.035 101.182V102.622C130.219 103.018 129.283 103.216 128.227 103.216C126.979 103.216 125.893 102.826 124.969 102.046C124.057 101.266 123.601 100.156 123.601 98.716ZM136.743 103H135.303V95.692H132.117V94.36H139.911V95.692H136.743V103ZM145.649 103H141.545V94.36H142.985V97.384H145.649C146.681 97.384 147.497 97.648 148.097 98.176C148.697 98.704 148.997 99.376 148.997 100.192C148.997 101.008 148.697 101.68 148.097 102.208C147.497 102.736 146.681 103 145.649 103ZM142.985 98.68V101.704H145.469C146.117 101.704 146.621 101.578 146.981 101.326C147.353 101.074 147.539 100.696 147.539 100.192C147.539 99.688 147.353 99.31 146.981 99.058C146.621 98.806 146.117 98.68 145.469 98.68H142.985ZM160.204 103H155.326V94.36H160.06C160.84 94.36 161.476 94.564 161.968 94.972C162.472 95.38 162.724 95.956 162.724 96.7C162.724 97.132 162.616 97.522 162.4 97.87C162.184 98.218 161.908 98.464 161.572 98.608C161.968 98.74 162.304 98.98 162.58 99.328C162.856 99.676 162.994 100.102 162.994 100.606C162.994 101.338 162.754 101.92 162.274 102.352C161.806 102.784 161.116 103 160.204 103ZM156.766 99.256V101.74H160.006C161.038 101.74 161.554 101.332 161.554 100.516C161.554 99.676 161.056 99.256 160.06 99.256H156.766ZM156.766 95.62V98.014H159.916C160.816 98.014 161.266 97.624 161.266 96.844C161.266 96.4 161.134 96.088 160.87 95.908C160.606 95.716 160.288 95.62 159.916 95.62H156.766ZM171.038 103H169.67V94.36H171.236L174.386 99.148L177.536 94.36H179.102V103H177.734V96.484L174.926 100.75H173.846L171.038 96.484V103ZM182.538 102.01C181.626 101.194 181.17 100.084 181.17 98.68C181.17 97.276 181.626 96.172 182.538 95.368C183.45 94.552 184.53 94.144 185.778 94.144C187.038 94.144 188.118 94.552 189.018 95.368C189.93 96.172 190.386 97.276 190.386 98.68C190.386 100.084 189.93 101.194 189.018 102.01C188.118 102.814 187.038 103.216 185.778 103.216C184.53 103.216 183.45 102.814 182.538 102.01ZM188.046 101.002C188.646 100.426 188.946 99.652 188.946 98.68C188.946 97.708 188.646 96.94 188.046 96.376C187.446 95.8 186.69 95.512 185.778 95.512C184.866 95.512 184.11 95.8 183.51 96.376C182.91 96.94 182.61 97.708 182.61 98.68C182.61 99.652 182.91 100.426 183.51 101.002C184.11 101.566 184.866 101.848 185.778 101.848C186.69 101.848 187.446 101.566 188.046 101.002ZM191.857 98.68C191.857 97.264 192.289 96.154 193.153 95.35C194.029 94.546 195.031 94.144 196.159 94.144C197.215 94.144 198.085 94.408 198.769 94.936C199.465 95.464 199.921 96.118 200.137 96.898C200.353 97.666 200.365 98.47 200.173 99.31H193.297C193.381 100.162 193.759 100.804 194.431 101.236C195.103 101.668 195.913 101.884 196.861 101.884C197.917 101.884 198.865 101.65 199.705 101.182V102.586C198.901 103.006 197.881 103.216 196.645 103.216C195.277 103.216 194.137 102.826 193.225 102.046C192.313 101.266 191.857 100.144 191.857 98.68ZM198.895 98.05C198.931 97.798 198.913 97.534 198.841 97.258C198.769 96.982 198.637 96.706 198.445 96.43C198.265 96.154 197.983 95.926 197.599 95.746C197.215 95.566 196.765 95.476 196.249 95.476C195.469 95.476 194.791 95.704 194.215 96.16C193.651 96.616 193.345 97.246 193.297 98.05H198.895ZM203.645 103H202.277V94.36H203.843L206.993 99.148L210.143 94.36H211.709V103H210.341V96.484L207.533 100.75H206.453L203.645 96.484V103ZM220.293 103H218.853V94.36H220.293V97.96H222.039L224.775 94.36H226.449L223.173 98.662L226.845 103H225.153L221.985 99.292H220.293V103ZM235.225 101.2C235.225 101.644 235.447 101.866 235.891 101.866C236.083 101.866 236.305 101.824 236.557 101.74V102.91C236.197 103.042 235.837 103.108 235.477 103.108C234.649 103.108 234.121 102.76 233.893 102.064C232.969 102.832 231.847 103.216 230.527 103.216C229.687 103.216 228.967 102.994 228.367 102.55C227.779 102.094 227.485 101.44 227.485 100.588C227.485 99.568 227.863 98.83 228.619 98.374C229.387 97.906 230.311 97.672 231.391 97.672C232.183 97.672 232.981 97.762 233.785 97.942V97.636C233.785 96.976 233.569 96.454 233.137 96.07C232.705 95.674 232.099 95.476 231.319 95.476C230.227 95.476 229.177 95.692 228.169 96.124V94.72C229.297 94.336 230.395 94.144 231.463 94.144C232.639 94.144 233.557 94.462 234.217 95.098C234.889 95.722 235.225 96.628 235.225 97.816V101.2ZM228.961 100.516C228.961 100.996 229.141 101.362 229.501 101.614C229.873 101.854 230.317 101.974 230.833 101.974C232.021 101.974 233.005 101.554 233.785 100.714V99.13C232.969 98.962 232.237 98.878 231.589 98.878C230.857 98.878 230.233 99.01 229.717 99.274C229.213 99.526 228.961 99.94 228.961 100.516ZM241.297 103H239.857V95.692H236.671V94.36H244.465V95.692H241.297V103ZM253.032 101.2C253.032 101.644 253.254 101.866 253.698 101.866C253.89 101.866 254.112 101.824 254.364 101.74V102.91C254.004 103.042 253.644 103.108 253.284 103.108C252.456 103.108 251.928 102.76 251.7 102.064C250.776 102.832 249.654 103.216 248.334 103.216C247.494 103.216 246.774 102.994 246.174 102.55C245.586 102.094 245.292 101.44 245.292 100.588C245.292 99.568 245.67 98.83 246.426 98.374C247.194 97.906 248.118 97.672 249.198 97.672C249.99 97.672 250.788 97.762 251.592 97.942V97.636C251.592 96.976 251.376 96.454 250.944 96.07C250.512 95.674 249.906 95.476 249.126 95.476C248.034 95.476 246.984 95.692 245.976 96.124V94.72C247.104 94.336 248.202 94.144 249.27 94.144C250.446 94.144 251.364 94.462 252.024 95.098C252.696 95.722 253.032 96.628 253.032 97.816V101.2ZM246.768 100.516C246.768 100.996 246.948 101.362 247.308 101.614C247.68 101.854 248.124 101.974 248.64 101.974C249.828 101.974 250.812 101.554 251.592 100.714V99.13C250.776 98.962 250.044 98.878 249.396 98.878C248.664 98.878 248.04 99.01 247.524 99.274C247.02 99.526 246.768 99.94 246.768 100.516ZM258.968 95.692C258.908 96.64 258.836 97.468 258.752 98.176C258.668 98.884 258.548 99.568 258.392 100.228C258.236 100.876 258.044 101.404 257.816 101.812C257.6 102.22 257.324 102.544 256.988 102.784C256.652 103.024 256.268 103.144 255.836 103.144C255.488 103.144 255.14 103.078 254.792 102.946V101.812C254.984 101.884 255.176 101.92 255.368 101.92C256.088 101.92 256.61 101.29 256.934 100.03C257.27 98.758 257.48 96.868 257.564 94.36H263.918V103H262.478V95.692H258.968ZM267.352 102.01C266.44 101.194 265.984 100.084 265.984 98.68C265.984 97.276 266.44 96.172 267.352 95.368C268.264 94.552 269.344 94.144 270.592 94.144C271.852 94.144 272.932 94.552 273.832 95.368C274.744 96.172 275.2 97.276 275.2 98.68C275.2 100.084 274.744 101.194 273.832 102.01C272.932 102.814 271.852 103.216 270.592 103.216C269.344 103.216 268.264 102.814 267.352 102.01ZM272.86 101.002C273.46 100.426 273.76 99.652 273.76 98.68C273.76 97.708 273.46 96.94 272.86 96.376C272.26 95.8 271.504 95.512 270.592 95.512C269.68 95.512 268.924 95.8 268.324 96.376C267.724 96.94 267.424 97.708 267.424 98.68C267.424 99.652 267.724 100.426 268.324 101.002C268.924 101.566 269.68 101.848 270.592 101.848C271.504 101.848 272.26 101.566 272.86 101.002ZM278.706 103H277.266V94.36H283.584V95.692H278.706V103ZM284.318 98.68C284.318 97.264 284.75 96.154 285.614 95.35C286.49 94.546 287.492 94.144 288.62 94.144C289.676 94.144 290.546 94.408 291.23 94.936C291.926 95.464 292.382 96.118 292.598 96.898C292.814 97.666 292.826 98.47 292.634 99.31H285.758C285.842 100.162 286.22 100.804 286.892 101.236C287.564 101.668 288.374 101.884 289.322 101.884C290.378 101.884 291.326 101.65 292.166 101.182V102.586C291.362 103.006 290.342 103.216 289.106 103.216C287.738 103.216 286.598 102.826 285.686 102.046C284.774 101.266 284.318 100.144 284.318 98.68ZM291.356 98.05C291.392 97.798 291.374 97.534 291.302 97.258C291.23 96.982 291.098 96.706 290.906 96.43C290.726 96.154 290.444 95.926 290.06 95.746C289.676 95.566 289.226 95.476 288.71 95.476C287.93 95.476 287.252 95.704 286.676 96.16C286.112 96.616 285.806 97.246 285.758 98.05H291.356Z" fill="#37376D"/>
<path d="M335.165 101.75L331 98L339.33 98L335.165 101.75Z" fill="#000C2C"/>
<path d="M379 120L606 120" stroke="black"/>
<path d="M379.252 90.4H389.62V91.84H385.192V103H383.68V91.84H379.252V90.4ZM389.913 102.01C389.001 101.194 388.545 100.084 388.545 98.68C388.545 97.276 389.001 96.172 389.913 95.368C390.825 94.552 391.905 94.144 393.153 94.144C394.413 94.144 395.493 94.552 396.393 95.368C397.305 96.172 397.761 97.276 397.761 98.68C397.761 100.084 397.305 101.194 396.393 102.01C395.493 102.814 394.413 103.216 393.153 103.216C391.905 103.216 390.825 102.814 389.913 102.01ZM395.421 101.002C396.021 100.426 396.321 99.652 396.321 98.68C396.321 97.708 396.021 96.94 395.421 96.376C394.821 95.8 394.065 95.512 393.153 95.512C392.241 95.512 391.485 95.8 390.885 96.376C390.285 96.94 389.985 97.708 389.985 98.68C389.985 99.652 390.285 100.426 390.885 101.002C391.485 101.566 392.241 101.848 393.153 101.848C394.065 101.848 394.821 101.566 395.421 101.002ZM404.704 103H399.826V94.36H404.56C405.34 94.36 405.976 94.564 406.468 94.972C406.972 95.38 407.224 95.956 407.224 96.7C407.224 97.132 407.116 97.522 406.9 97.87C406.684 98.218 406.408 98.464 406.072 98.608C406.468 98.74 406.804 98.98 407.08 99.328C407.356 99.676 407.494 100.102 407.494 100.606C407.494 101.338 407.254 101.92 406.774 102.352C406.306 102.784 405.616 103 404.704 103ZM401.266 99.256V101.74H404.506C405.538 101.74 406.054 101.332 406.054 100.516C406.054 99.676 405.556 99.256 404.56 99.256H401.266ZM401.266 95.62V98.014H404.416C405.316 98.014 405.766 97.624 405.766 96.844C405.766 96.4 405.634 96.088 405.37 95.908C405.106 95.716 404.788 95.62 404.416 95.62H401.266ZM416.707 101.2C416.707 101.644 416.929 101.866 417.373 101.866C417.565 101.866 417.787 101.824 418.039 101.74V102.91C417.679 103.042 417.319 103.108 416.959 103.108C416.131 103.108 415.603 102.76 415.375 102.064C414.451 102.832 413.329 103.216 412.009 103.216C411.169 103.216 410.449 102.994 409.849 102.55C409.261 102.094 408.967 101.44 408.967 100.588C408.967 99.568 409.345 98.83 410.101 98.374C410.869 97.906 411.793 97.672 412.873 97.672C413.665 97.672 414.463 97.762 415.267 97.942V97.636C415.267 96.976 415.051 96.454 414.619 96.07C414.187 95.674 413.581 95.476 412.801 95.476C411.709 95.476 410.659 95.692 409.651 96.124V94.72C410.779 94.336 411.877 94.144 412.945 94.144C414.121 94.144 415.039 94.462 415.699 95.098C416.371 95.722 416.707 96.628 416.707 97.816V101.2ZM410.443 100.516C410.443 100.996 410.623 101.362 410.983 101.614C411.355 101.854 411.799 101.974 412.315 101.974C413.503 101.974 414.487 101.554 415.267 100.714V99.13C414.451 98.962 413.719 98.878 413.071 98.878C412.339 98.878 411.715 99.01 411.199 99.274C410.695 99.526 410.443 99.94 410.443 100.516ZM420.88 95.8C421.852 94.696 423.016 94.144 424.372 94.144C425.608 94.144 426.634 94.576 427.45 95.44C428.278 96.304 428.692 97.384 428.692 98.68C428.692 99.976 428.278 101.056 427.45 101.92C426.634 102.784 425.608 103.216 424.372 103.216C423.004 103.216 421.888 102.712 421.024 101.704V106.96H419.584V94.36H420.88V95.8ZM426.37 101.002C426.958 100.414 427.252 99.64 427.252 98.68C427.252 97.72 426.958 96.946 426.37 96.358C425.794 95.77 425.074 95.476 424.21 95.476C423.478 95.476 422.83 95.68 422.266 96.088C421.702 96.496 421.288 97 421.024 97.6V99.76C421.288 100.36 421.702 100.864 422.266 101.272C422.83 101.68 423.478 101.884 424.21 101.884C425.074 101.884 425.794 101.59 426.37 101.002ZM436.686 103H435.246V94.36H436.686V97.96H438.432L441.168 94.36H442.842L439.566 98.662L443.238 103H441.546L438.378 99.292H436.686V103ZM445.002 102.01C444.09 101.194 443.634 100.084 443.634 98.68C443.634 97.276 444.09 96.172 445.002 95.368C445.914 94.552 446.994 94.144 448.242 94.144C449.502 94.144 450.582 94.552 451.482 95.368C452.394 96.172 452.85 97.276 452.85 98.68C452.85 100.084 452.394 101.194 451.482 102.01C450.582 102.814 449.502 103.216 448.242 103.216C446.994 103.216 445.914 102.814 445.002 102.01ZM450.51 101.002C451.11 100.426 451.41 99.652 451.41 98.68C451.41 97.708 451.11 96.94 450.51 96.376C449.91 95.8 449.154 95.512 448.242 95.512C447.33 95.512 446.574 95.8 445.974 96.376C445.374 96.94 445.074 97.708 445.074 98.68C445.074 99.652 445.374 100.426 445.974 101.002C446.574 101.566 447.33 101.848 448.242 101.848C449.154 101.848 449.91 101.566 450.51 101.002ZM456.356 103H454.916V94.36H456.356V98.014H461.36V94.36H462.8V103H461.36V99.346H456.356V103ZM466.903 103H465.463V94.36H466.903V97.96H468.649L471.385 94.36H473.059L469.783 98.662L473.455 103H471.763L468.595 99.292H466.903V103ZM478.521 101.362L481.437 94.36H482.967L478.719 104.296C477.891 106.216 476.805 107.176 475.461 107.176C475.137 107.176 474.825 107.134 474.525 107.05V105.808C474.777 105.88 475.029 105.916 475.281 105.916C476.205 105.916 476.949 105.214 477.513 103.81L477.837 103.018L473.733 94.36H475.263L478.521 101.362ZM485.866 95.8C486.838 94.696 488.002 94.144 489.358 94.144C490.594 94.144 491.62 94.576 492.436 95.44C493.264 96.304 493.678 97.384 493.678 98.68C493.678 99.976 493.264 101.056 492.436 101.92C491.62 102.784 490.594 103.216 489.358 103.216C487.99 103.216 486.874 102.712 486.01 101.704V106.96H484.57V94.36H485.866V95.8ZM491.356 101.002C491.944 100.414 492.238 99.64 492.238 98.68C492.238 97.72 491.944 96.946 491.356 96.358C490.78 95.77 490.06 95.476 489.196 95.476C488.464 95.476 487.816 95.68 487.252 96.088C486.688 96.496 486.274 97 486.01 97.6V99.76C486.274 100.36 486.688 100.864 487.252 101.272C487.816 101.68 488.464 101.884 489.196 101.884C490.06 101.884 490.78 101.59 491.356 101.002ZM495.156 98.68C495.156 97.264 495.588 96.154 496.452 95.35C497.328 94.546 498.33 94.144 499.458 94.144C500.514 94.144 501.384 94.408 502.068 94.936C502.764 95.464 503.22 96.118 503.436 96.898C503.652 97.666 503.664 98.47 503.472 99.31H496.596C496.68 100.162 497.058 100.804 497.73 101.236C498.402 101.668 499.212 101.884 500.16 101.884C501.216 101.884 502.164 101.65 503.004 101.182V102.586C502.2 103.006 501.18 103.216 499.944 103.216C498.576 103.216 497.436 102.826 496.524 102.046C495.612 101.266 495.156 100.144 495.156 98.68ZM502.194 98.05C502.23 97.798 502.212 97.534 502.14 97.258C502.068 96.982 501.936 96.706 501.744 96.43C501.564 96.154 501.282 95.926 500.898 95.746C500.514 95.566 500.064 95.476 499.548 95.476C498.768 95.476 498.09 95.704 497.514 96.16C496.95 96.616 496.644 97.246 496.596 98.05H502.194ZM507.016 103H505.576V94.36H507.016V98.014H512.02V94.36H513.46V103H512.02V99.346H507.016V103ZM519.723 103H518.283V95.692H515.097V94.36H522.891V95.692H519.723V103ZM531.457 101.2C531.457 101.644 531.679 101.866 532.123 101.866C532.315 101.866 532.537 101.824 532.789 101.74V102.91C532.429 103.042 532.069 103.108 531.709 103.108C530.881 103.108 530.353 102.76 530.125 102.064C529.201 102.832 528.079 103.216 526.759 103.216C525.919 103.216 525.199 102.994 524.599 102.55C524.011 102.094 523.717 101.44 523.717 100.588C523.717 99.568 524.095 98.83 524.851 98.374C525.619 97.906 526.543 97.672 527.623 97.672C528.415 97.672 529.213 97.762 530.017 97.942V97.636C530.017 96.976 529.801 96.454 529.369 96.07C528.937 95.674 528.331 95.476 527.551 95.476C526.459 95.476 525.409 95.692 524.401 96.124V94.72C525.529 94.336 526.627 94.144 527.695 94.144C528.871 94.144 529.789 94.462 530.449 95.098C531.121 95.722 531.457 96.628 531.457 97.816V101.2ZM525.193 100.516C525.193 100.996 525.373 101.362 525.733 101.614C526.105 101.854 526.549 101.974 527.065 101.974C528.253 101.974 529.237 101.554 530.017 100.714V99.13C529.201 98.962 528.469 98.878 527.821 98.878C527.089 98.878 526.465 99.01 525.949 99.274C525.445 99.526 525.193 99.94 525.193 100.516Z" fill="#37376D"/>
<path d="M602.165 101.75L598 98L606.33 98L602.165 101.75Z" fill="#000C2C"/>
<circle opacity="0.6" cx="194" cy="239" r="82" fill="#FFE264"/>
<path d="M276 239C276 258.362 269.149 277.099 256.66 291.894C244.171 306.689 226.849 316.587 207.762 319.837C188.675 323.086 169.054 319.477 152.373 309.648C135.692 299.819 123.026 284.405 116.62 266.134C110.213 247.863 110.478 227.915 117.367 209.82C124.257 191.726 137.327 176.654 154.264 167.271C171.2 157.889 190.91 154.802 209.904 158.557C228.898 162.312 245.951 172.667 258.042 187.789L194 239H276Z" fill="#F28100"/>
<path d="M276 239C276 256.72 270.26 273.963 259.639 288.148C249.018 302.332 234.089 312.695 217.085 317.683C200.082 322.672 181.92 322.019 165.32 315.821C148.719 309.623 134.572 298.214 124.998 283.303C115.425 268.392 110.939 250.781 112.212 233.107C113.486 215.433 120.45 198.647 132.063 185.262C143.675 171.878 159.311 162.615 176.629 158.861C193.947 155.107 212.015 157.064 228.127 164.439L194 239H276Z" fill="#0FA7F0"/>
<circle opacity="0.6" cx="333.5" cy="303.5" r="17.5" fill="#FFE264"/>
<path d="M351 303.5C351 307.632 349.538 311.631 346.873 314.788C344.207 317.946 340.511 320.058 336.437 320.752C332.364 321.445 328.176 320.675 324.616 318.577C321.056 316.48 318.353 313.19 316.986 309.291C315.619 305.392 315.675 301.134 317.145 297.273C318.616 293.411 321.405 290.194 325.02 288.192C328.634 286.19 332.841 285.531 336.894 286.332C340.948 287.134 344.587 289.344 347.168 292.571L333.5 303.5H351Z" fill="#F28100"/>
<path d="M351 303.5C351 305.798 350.547 308.074 349.668 310.197C348.788 312.32 347.499 314.249 345.874 315.874C344.249 317.499 342.32 318.788 340.197 319.668C338.074 320.547 335.798 321 333.5 321C331.202 321 328.926 320.547 326.803 319.668C324.68 318.788 322.751 317.499 321.126 315.874C319.501 314.249 318.212 312.32 317.332 310.197C316.453 308.074 316 305.798 316 303.5L333.5 303.5H351Z" fill="#0FA7F0"/>
<path opacity="0.6" d="M398.246 314.33C400.884 310.982 402.209 306.787 401.973 302.532C401.737 298.276 399.957 294.253 396.965 291.217C393.974 288.182 389.978 286.342 385.726 286.043C381.475 285.744 377.26 287.008 373.874 289.595C370.488 292.183 368.162 295.918 367.334 300.099C366.505 304.279 367.231 308.619 369.375 312.302C371.519 315.986 374.933 318.761 378.977 320.106C383.021 321.451 387.417 321.274 391.34 319.608L384.5 303.5L398.246 314.33Z" fill="#FFE264"/>
<path d="M402 303.5C402 307.959 400.298 312.25 397.241 315.497C394.184 318.743 390.003 320.7 385.552 320.968C381.101 321.236 376.716 319.795 373.291 316.939C369.867 314.083 367.662 310.027 367.127 305.601C366.591 301.174 367.766 296.709 370.411 293.119C373.056 289.529 376.972 287.085 381.359 286.284C385.745 285.484 390.272 286.388 394.015 288.813C397.757 291.237 400.433 294.999 401.496 299.329L384.5 303.5H402Z" fill="#F28100"/>
<path d="M402 303.5C402 306.961 400.974 310.345 399.051 313.222C397.128 316.1 394.395 318.343 391.197 319.668C387.999 320.992 384.481 321.339 381.086 320.664C377.691 319.989 374.573 318.322 372.126 315.874C369.678 313.427 368.011 310.309 367.336 306.914C366.661 303.519 367.008 300.001 368.332 296.803C369.657 293.605 371.9 290.872 374.778 288.949C377.655 287.026 381.039 286 384.5 286V303.5H402Z" fill="#0FA7F0"/>
<path opacity="0.6" d="M551.246 314.33C553.884 310.982 555.209 306.787 554.973 302.532C554.737 298.276 552.957 294.253 549.965 291.217C546.974 288.182 542.978 286.342 538.726 286.043C534.475 285.744 530.26 287.008 526.874 289.595C523.488 292.183 521.162 295.918 520.334 300.099C519.505 304.279 520.231 308.619 522.375 312.302C524.519 315.986 527.933 318.761 531.977 320.106C536.021 321.451 540.417 321.274 544.34 319.608L537.5 303.5L551.246 314.33Z" fill="#FFE264"/>
<path d="M555 303.5C555 307.549 553.596 311.472 551.028 314.602C548.459 317.732 544.885 319.874 540.914 320.664C536.943 321.454 532.821 320.842 529.251 318.934C525.68 317.025 522.881 313.937 521.332 310.197C519.783 306.456 519.578 302.294 520.754 298.42C521.929 294.546 524.411 291.199 527.778 288.949C531.144 286.7 535.186 285.687 539.215 286.084C543.245 286.481 547.011 288.263 549.874 291.126L537.5 303.5H555Z" fill="#F28100"/>
<path d="M555 303.5C555 306.961 553.974 310.345 552.051 313.222C550.128 316.1 547.395 318.343 544.197 319.668C540.999 320.992 537.481 321.339 534.086 320.664C530.691 319.989 527.573 318.322 525.126 315.874C522.678 313.427 521.011 310.309 520.336 306.914C519.661 303.519 520.008 300.001 521.332 296.803C522.657 293.605 524.9 290.872 527.778 288.949C530.655 287.026 534.039 286 537.5 286V303.5H555Z" fill="#0FA7F0"/>
<path opacity="0.6" d="M500.246 314.33C502.884 310.982 504.209 306.787 503.973 302.532C503.737 298.276 501.957 294.253 498.965 291.217C495.974 288.182 491.978 286.342 487.726 286.043C483.475 285.744 479.26 287.008 475.874 289.595C472.488 292.183 470.162 295.918 469.334 300.099C468.505 304.279 469.231 308.619 471.375 312.302C473.519 315.986 476.933 318.761 480.977 320.106C485.021 321.451 489.417 321.274 493.34 319.608L486.5 303.5L500.246 314.33Z" fill="#FFE264"/>
<path d="M504 303.5C504 307.176 502.842 310.76 500.691 313.741C498.539 316.722 495.504 318.95 492.014 320.109C488.525 321.267 484.76 321.297 481.252 320.195C477.745 319.092 474.674 316.913 472.475 313.967C470.276 311.02 469.061 307.456 469.002 303.78C468.943 300.104 470.044 296.503 472.147 293.488C474.251 290.472 477.25 288.196 480.72 286.982C484.191 285.768 487.955 285.677 491.48 286.723L486.5 303.5H504Z" fill="#F28100"/>
<path d="M504 303.5C504 306.961 502.974 310.345 501.051 313.222C499.128 316.1 496.395 318.343 493.197 319.668C489.999 320.992 486.481 321.339 483.086 320.664C479.691 319.989 476.573 318.322 474.126 315.874C471.678 313.427 470.011 310.309 469.336 306.914C468.661 303.519 469.008 300.001 470.332 296.803C471.657 293.605 473.9 290.872 476.778 288.949C479.655 287.026 483.039 286 486.5 286V303.5H504Z" fill="#0FA7F0"/>
<path opacity="0.6" d="M449.246 314.33C451.884 310.982 453.209 306.787 452.973 302.532C452.737 298.276 450.957 294.253 447.965 291.217C444.974 288.182 440.978 286.342 436.726 286.043C432.475 285.744 428.26 287.008 424.874 289.595C421.488 292.183 419.162 295.918 418.334 300.099C417.505 304.279 418.231 308.619 420.375 312.302C422.519 315.986 425.933 318.761 429.977 320.106C434.021 321.451 438.417 321.274 442.34 319.608L435.5 303.5L449.246 314.33Z" fill="#FFE264"/>
<path d="M453 303.5C453 306.961 451.974 310.345 450.051 313.222C448.128 316.1 445.395 318.343 442.197 319.668C438.999 320.992 435.481 321.339 432.086 320.664C428.691 319.989 425.573 318.322 423.126 315.874C420.678 313.427 419.011 310.309 418.336 306.914C417.661 303.519 418.008 300.001 419.332 296.803C420.657 293.605 422.9 290.872 425.778 288.949C428.655 287.026 432.039 286 435.5 286V303.5H453Z" fill="#F28100"/>
<path d="M449.845 313.524C447.862 316.361 445.083 318.547 441.858 319.804C438.633 321.062 435.108 321.335 431.728 320.589C428.349 319.843 425.266 318.111 422.87 315.613C420.474 313.115 418.873 309.963 418.269 306.555C417.664 303.147 418.084 299.636 419.475 296.467C420.866 293.298 423.166 290.612 426.083 288.75C429.001 286.887 432.405 285.932 435.865 286.004C439.326 286.076 442.687 287.173 445.524 289.155L435.5 303.5L449.845 313.524Z" fill="#0FA7F0"/>
<path opacity="0.6" d="M603.379 312.712C605.623 309.088 606.467 304.77 605.753 300.568C605.039 296.366 602.816 292.57 599.501 289.89C596.187 287.211 592.009 285.834 587.75 286.016C583.492 286.199 579.447 287.929 576.374 290.882C573.301 293.835 571.412 297.808 571.06 302.055C570.708 306.303 571.918 310.533 574.464 313.951C577.009 317.37 580.714 319.742 584.884 320.622C589.054 321.503 593.402 320.832 597.112 318.734L588.5 303.5L603.379 312.712Z" fill="#FFE264"/>
<path d="M603.901 311.81C602.258 314.856 599.748 317.346 596.689 318.966C593.63 320.585 590.16 321.262 586.717 320.909C583.273 320.556 580.012 319.19 577.345 316.984C574.678 314.778 572.726 311.83 571.734 308.514C570.742 305.198 570.756 301.663 571.774 298.354C572.791 295.046 574.767 292.114 577.451 289.929C580.135 287.744 583.407 286.403 586.853 286.078C590.299 285.752 593.764 286.455 596.81 288.099L588.5 303.5L603.901 311.81Z" fill="#F28100"/>
<path d="M588.5 321C585.039 321 581.655 319.974 578.778 318.051C575.9 316.128 573.657 313.395 572.332 310.197C571.008 306.999 570.661 303.481 571.336 300.086C572.011 296.691 573.678 293.573 576.126 291.126C578.573 288.678 581.691 287.011 585.086 286.336C588.481 285.661 591.999 286.008 595.197 287.332C598.395 288.657 601.128 290.9 603.051 293.778C604.974 296.655 606 300.039 606 303.5L588.5 303.5V321Z" fill="#0FA7F0"/>
<path d="M316 224C316 222.895 316.895 222 318 222H327C328.105 222 329 222.895 329 224V257C329 258.105 328.105 259 327 259H318C316.895 259 316 258.105 316 257V224Z" fill="#0FA7F0"/>
<path d="M408 224C408 222.895 408.895 222 410 222H419C420.105 222 421 222.895 421 224V257C421 258.105 420.105 259 419 259H410C408.895 259 408 258.105 408 257V224Z" fill="#0FA7F0"/>
<path d="M339 224C339 222.895 339.895 222 341 222H350C351.105 222 352 222.895 352 224V257C352 258.105 351.105 259 350 259H341C339.895 259 339 258.105 339 257V224Z" fill="#0FA7F0"/>
<path d="M431 224C431 222.895 431.895 222 433 222H442C443.105 222 444 222.895 444 224V257C444 258.105 443.105 259 442 259H433C431.895 259 431 258.105 431 257V224Z" fill="#0FA7F0"/>
<path d="M500 224C500 222.895 500.895 222 502 222H511C512.105 222 513 222.895 513 224V257C513 258.105 512.105 259 511 259H502C500.895 259 500 258.105 500 257V224Z" fill="#0FA7F0"/>
<path d="M569 224C569 222.895 569.895 222 571 222H580C581.105 222 582 222.895 582 224V257C582 258.105 581.105 259 580 259H571C569.895 259 569 258.105 569 257V224Z" fill="#0FA7F0"/>
<path d="M592 224C592 222.895 592.895 222 594 222H603C604.105 222 605 222.895 605 224V257C605 258.105 604.105 259 603 259H594C592.895 259 592 258.105 592 257V224Z" fill="#0FA7F0"/>
<path d="M362 213C362 211.895 362.895 211 364 211H373C374.105 211 375 211.895 375 213V257C375 258.105 374.105 259 373 259H364C362.895 259 362 258.105 362 257V213Z" fill="#0FA7F0"/>
<path d="M454 213C454 211.895 454.895 211 456 211H465C466.105 211 467 211.895 467 213V257C467 258.105 466.105 259 465 259H456C454.895 259 454 258.105 454 257V213Z" fill="#0FA7F0"/>
<path d="M523 213C523 211.895 523.895 211 525 211H534C535.105 211 536 211.895 536 213V257C536 258.105 535.105 259 534 259H525C523.895 259 523 258.105 523 257V213Z" fill="#0FA7F0"/>
<path d="M546 213C546 211.895 546.895 211 548 211H557C558.105 211 559 211.895 559 213V257C559 258.105 558.105 259 557 259H548C546.895 259 546 258.105 546 257V213Z" fill="#0FA7F0"/>
<path d="M385 182C385 180.895 385.895 180 387 180H396C397.105 180 398 180.895 398 182V257C398 258.105 397.105 259 396 259H387C385.895 259 385 258.105 385 257V182Z" fill="#0FA7F0"/>
<path d="M477 182C477 180.895 477.895 180 479 180H488C489.105 180 490 180.895 490 182V257C490 258.105 489.105 259 488 259H479C477.895 259 477 258.105 477 257V182Z" fill="#0FA7F0"/>
<path d="M316 180C316 178.895 316.895 178 318 178H327C328.105 178 329 178.895 329 180V219C329 220.105 328.105 221 327 221H318C316.895 221 316 220.105 316 219V180Z" fill="#FFEEA2"/>
<path d="M408 180C408 178.895 408.895 178 410 178H419C420.105 178 421 178.895 421 180V219C421 220.105 420.105 221 419 221H410C408.895 221 408 220.105 408 219V180Z" fill="#FFEEA2"/>
<path d="M339 213C339 211.895 339.895 211 341 211H350C351.105 211 352 211.895 352 213V219C352 220.105 351.105 221 350 221H341C339.895 221 339 220.105 339 219V213Z" fill="#FFEEA2"/>
<path d="M431 213C431 211.895 431.895 211 433 211H442C443.105 211 444 211.895 444 213V219C444 220.105 443.105 221 442 221H433C431.895 221 431 220.105 431 219V213Z" fill="#FFEEA2"/>
<path d="M500 213C500 211.895 500.895 211 502 211H511C512.105 211 513 211.895 513 213V219C513 220.105 512.105 221 511 221H502C500.895 221 500 220.105 500 219V213Z" fill="#FFEEA2"/>
<path d="M569 213C569 211.895 569.895 211 571 211H580C581.105 211 582 211.895 582 213V219C582 220.105 581.105 221 580 221H571C569.895 221 569 220.105 569 219V213Z" fill="#FFEEA2"/>
<path d="M592 213C592 211.895 592.895 211 594 211H603C604.105 211 605 211.895 605 213V219C605 220.105 604.105 221 603 221H594C592.895 221 592 220.105 592 219V213Z" fill="#FFEEA2"/>
<path d="M362 171C362 169.895 362.895 169 364 169H373C374.105 169 375 169.895 375 171V208C375 209.105 374.105 210 373 210H364C362.895 210 362 209.105 362 208V171Z" fill="#FFEEA2"/>
<path d="M454 171C454 169.895 454.895 169 456 169H465C466.105 169 467 169.895 467 171V208C467 209.105 466.105 210 465 210H456C454.895 210 454 209.105 454 208V171Z" fill="#FFEEA2"/>
<path d="M523 171C523 169.895 523.895 169 525 169H534C535.105 169 536 169.895 536 171V208C536 209.105 535.105 210 534 210H525C523.895 210 523 209.105 523 208V171Z" fill="#FFEEA2"/>
<path d="M546 193C546 191.895 546.895 191 548 191H557C558.105 191 559 191.895 559 193V208C559 209.105 558.105 210 557 210H548C546.895 210 546 209.105 546 208V193Z" fill="#FFEEA2"/>
<path d="M385 171C385 169.895 385.895 169 387 169H396C397.105 169 398 169.895 398 171V177C398 178.105 397.105 179 396 179H387C385.895 179 385 178.105 385 177V171Z" fill="#FFEEA2"/>
<path d="M477 171C477 169.895 477.895 169 479 169H488C489.105 169 490 169.895 490 171V177C490 178.105 489.105 179 488 179H479C477.895 179 477 178.105 477 177V171Z" fill="#FFEEA2"/>
<rect x="316" y="157" width="13" height="20" rx="2" fill="#F28100"/>
<rect x="408" y="157" width="13" height="20" rx="2" fill="#F28100"/>
<rect x="339" y="157" width="13" height="53" rx="2" fill="#F28100"/>
<rect x="431" y="157" width="13" height="53" rx="2" fill="#F28100"/>
<rect x="500" y="157" width="13" height="53" rx="2" fill="#F28100"/>
<rect x="569" y="157" width="13" height="53" rx="2" fill="#F28100"/>
<rect x="592" y="157" width="13" height="53" rx="2" fill="#F28100"/>
<rect x="362" y="157" width="13" height="11" rx="2" fill="#F28100"/>
<rect x="454" y="157" width="13" height="11" rx="2" fill="#F28100"/>
<rect x="523" y="157" width="13" height="11" rx="2" fill="#F28100"/>
<rect x="546" y="157" width="13" height="33" rx="2" fill="#F28100"/>
<rect x="385" y="157" width="13" height="11" rx="2" fill="#F28100"/>
<rect x="477" y="157" width="13" height="11" rx="2" fill="#F28100"/>
<defs>
<filter id="filter0_d" x="0" y="0" width="719" height="423" filterUnits="userSpaceOnUse" color-interpolation-filters="sRGB">
<feFlood flood-opacity="0" result="BackgroundImageFix"/>
<feColorMatrix in="SourceAlpha" type="matrix" values="0 0 0 0 0 0 0 0 0 0 0 0 0 0 0 0 0 0 127 0" result="hardAlpha"/>
<feOffset dy="4"/>
<feGaussianBlur stdDeviation="25"/>
<feComposite in2="hardAlpha" operator="out"/>
<feColorMatrix type="matrix" values="0 0 0 0 0 0 0 0 0 0 0 0 0 0 0 0 0 0 0.1 0"/>
<feBlend mode="normal" in2="BackgroundImageFix" result="effect1_dropShadow"/>
<feBlend mode="normal" in="SourceGraphic" in2="effect1_dropShadow" result="shape"/>
</filter>
</defs>
</svg>
