<svg width="719" height="423" viewBox="0 0 719 423" fill="none" xmlns="http://www.w3.org/2000/svg">
<g filter="url(#filter0_d)">
<path d="M50 61C50 52.7157 56.7157 46 65 46H654C662.284 46 669 52.7157 669 61V354C669 362.284 662.284 369 654 369H65C56.7157 369 50 362.284 50 354V61Z" fill="white"/>
</g>
<path d="M87.7818 97.9699H86.3418V93.5599H87.8718C89.2398 91.0879 89.9238 87.3679 89.9238 82.3999H97.6638V93.5599H99.2478V97.9699H97.8078V94.9999H87.7818V97.9699ZM91.4718 83.8399C91.2078 88.3279 90.5718 91.5679 89.5638 93.5599H96.1518V83.8399H91.4718Z" fill="#37376D"/>
<path d="M102.465 94.9999H101.025V86.3599H102.465V90.0139H107.469V86.3599H108.909V94.9999H107.469V91.3459H102.465V94.9999Z" fill="#37376D"/>
<path d="M112.796 94.9999H111.572V86.3599H113.012V92.6779L118.304 86.3599H119.528V94.9999H118.088V88.6819L112.796 94.9999Z" fill="#37376D"/>
<path d="M128.112 94.9999H126.672V86.3599H128.112V90.0139H133.116V86.3599H134.556V94.9999H133.116V91.3459H128.112V94.9999Z" fill="#37376D"/>
<path d="M136.625 90.6799C136.625 89.2639 137.057 88.1539 137.921 87.3499C138.797 86.5459 139.799 86.1439 140.927 86.1439C141.983 86.1439 142.853 86.4079 143.537 86.9359C144.233 87.4639 144.689 88.1179 144.905 88.8979C145.121 89.6659 145.133 90.4699 144.941 91.3099H138.065C138.149 92.1619 138.527 92.8039 139.199 93.2359C139.871 93.6679 140.681 93.8839 141.629 93.8839C142.685 93.8839 143.633 93.6499 144.473 93.1819V94.5859C143.669 95.0059 142.649 95.2159 141.413 95.2159C140.045 95.2159 138.905 94.8259 137.993 94.0459C137.081 93.2659 136.625 92.1439 136.625 90.6799ZM143.663 90.0499C143.699 89.7979 143.681 89.5339 143.609 89.2579C143.537 88.9819 143.405 88.7059 143.213 88.4299C143.033 88.1539 142.751 87.9259 142.367 87.7459C141.983 87.5659 141.533 87.4759 141.017 87.4759C140.237 87.4759 139.559 87.7039 138.983 88.1599C138.419 88.6159 138.113 89.2459 138.065 90.0499H143.663Z" fill="#37376D"/>
<path d="M147.444 97.3399H146.04V93.7039H147.192C148.212 91.9039 148.704 89.4559 148.668 86.3599H155.112V93.7039H156.372V97.3399H154.968V94.9999H147.444V97.3399ZM150.054 87.6559C149.994 90.0199 149.562 92.0359 148.758 93.7039H153.672V87.6559H150.054Z" fill="#37376D"/>
<path d="M157.525 90.6799C157.525 89.2639 157.957 88.1539 158.821 87.3499C159.697 86.5459 160.699 86.1439 161.827 86.1439C162.883 86.1439 163.753 86.4079 164.437 86.9359C165.133 87.4639 165.589 88.1179 165.805 88.8979C166.021 89.6659 166.033 90.4699 165.841 91.3099H158.965C159.049 92.1619 159.427 92.8039 160.099 93.2359C160.771 93.6679 161.581 93.8839 162.529 93.8839C163.585 93.8839 164.533 93.6499 165.373 93.1819V94.5859C164.569 95.0059 163.549 95.2159 162.313 95.2159C160.945 95.2159 159.805 94.8259 158.893 94.0459C157.981 93.2659 157.525 92.1439 157.525 90.6799ZM164.563 90.0499C164.599 89.7979 164.581 89.5339 164.509 89.2579C164.437 88.9819 164.305 88.7059 164.113 88.4299C163.933 88.1539 163.651 87.9259 163.267 87.7459C162.883 87.5659 162.433 87.4759 161.917 87.4759C161.137 87.4759 160.459 87.7039 159.883 88.1599C159.319 88.6159 159.013 89.2459 158.965 90.0499H164.563Z" fill="#37376D"/>
<path d="M171.005 87.6919C170.945 88.6399 170.873 89.4679 170.789 90.1759C170.705 90.8839 170.585 91.5679 170.429 92.2279C170.273 92.8759 170.081 93.4039 169.853 93.8119C169.637 94.2199 169.361 94.5439 169.025 94.7839C168.689 95.0239 168.305 95.1439 167.873 95.1439C167.525 95.1439 167.177 95.0779 166.829 94.9459V93.8119C167.021 93.8839 167.213 93.9199 167.405 93.9199C168.125 93.9199 168.647 93.2899 168.971 92.0299C169.307 90.7579 169.517 88.8679 169.601 86.3599H175.955V94.9999H174.515V87.6919H171.005Z" fill="#37376D"/>
<path d="M179.839 94.9999H178.615V86.3599H180.055V92.6779L185.347 86.3599H186.571V94.9999H185.131V88.6819L179.839 94.9999Z" fill="#37376D"/>
<path fill-rule="evenodd" clip-rule="evenodd" d="M407 149H86V148H407V149Z" fill="black"/>
<path d="M96.6741 186H95.1621V181.068C93.9141 181.488 92.6841 181.698 91.4721 181.698C89.9961 181.674 88.8501 181.302 88.0341 180.582C87.2301 179.862 86.8281 178.806 86.8281 177.414V173.4H88.3401V177.486C88.3401 179.31 89.5041 180.234 91.8321 180.258C92.9721 180.258 94.0821 180.048 95.1621 179.628V173.4H96.6741V186Z" fill="#37376D"/>
<path d="M106.534 184.2C106.534 184.644 106.756 184.866 107.2 184.866C107.392 184.866 107.614 184.824 107.866 184.74V185.91C107.506 186.042 107.146 186.108 106.786 186.108C105.958 186.108 105.43 185.76 105.202 185.064C104.278 185.832 103.156 186.216 101.836 186.216C100.996 186.216 100.276 185.994 99.6758 185.55C99.0878 185.094 98.7938 184.44 98.7938 183.588C98.7938 182.568 99.1718 181.83 99.9278 181.374C100.696 180.906 101.62 180.672 102.7 180.672C103.492 180.672 104.29 180.762 105.094 180.942V180.636C105.094 179.976 104.878 179.454 104.446 179.07C104.014 178.674 103.408 178.476 102.628 178.476C101.536 178.476 100.486 178.692 99.4778 179.124V177.72C100.606 177.336 101.704 177.144 102.772 177.144C103.948 177.144 104.866 177.462 105.526 178.098C106.198 178.722 106.534 179.628 106.534 180.816V184.2ZM100.27 183.516C100.27 183.996 100.45 184.362 100.81 184.614C101.182 184.854 101.626 184.974 102.142 184.974C103.33 184.974 104.314 184.554 105.094 183.714V182.13C104.278 181.962 103.546 181.878 102.898 181.878C102.166 181.878 101.542 182.01 101.026 182.274C100.522 182.526 100.27 182.94 100.27 183.516Z" fill="#37376D"/>
<path d="M108.816 181.716C108.816 180.96 108.954 180.282 109.23 179.682C109.506 179.082 109.866 178.602 110.31 178.242C110.766 177.882 111.264 177.612 111.804 177.432C112.356 177.24 112.92 177.144 113.496 177.144C114.564 177.144 115.452 177.378 116.16 177.846V179.25C115.5 178.734 114.672 178.476 113.676 178.476C112.74 178.476 111.936 178.746 111.264 179.286C110.592 179.826 110.256 180.624 110.256 181.68C110.256 182.724 110.586 183.522 111.246 184.074C111.918 184.614 112.716 184.884 113.64 184.884C114.6 184.884 115.47 184.65 116.25 184.182V185.622C115.434 186.018 114.498 186.216 113.442 186.216C112.194 186.216 111.108 185.826 110.184 185.046C109.272 184.266 108.816 183.156 108.816 181.716Z" fill="#37376D"/>
<path d="M122.462 186H118.358V177.36H119.798V180.384H122.462C123.494 180.384 124.31 180.648 124.91 181.176C125.51 181.704 125.81 182.376 125.81 183.192C125.81 184.008 125.51 184.68 124.91 185.208C124.31 185.736 123.494 186 122.462 186ZM119.798 181.68V184.704H122.282C122.93 184.704 123.434 184.578 123.794 184.326C124.166 184.074 124.352 183.696 124.352 183.192C124.352 182.688 124.166 182.31 123.794 182.058C123.434 181.806 122.93 181.68 122.282 181.68H119.798ZM128.924 186H127.484V177.36H128.924V186Z" fill="#37376D"/>
<path fill-rule="evenodd" clip-rule="evenodd" d="M407 240H86V239H407V240Z" fill="black"/>
<path d="M99.3563 264.4H100.652V277H99.1403V267.262L94.6223 274.03H93.6863L89.1683 267.262V277H87.6562V264.4H88.9523L94.1543 272.176L99.3563 264.4Z" fill="#37376D"/>
<path d="M104.869 277H103.645V268.36H105.085V274.678L110.377 268.36H111.601V277H110.161V270.682L104.869 277Z" fill="#37376D"/>
<path d="M115.702 277H114.262V268.36H115.702V272.014H120.706V268.36H122.146V277H120.706V273.346H115.702V277Z" fill="#37376D"/>
<path d="M128.445 275.362L131.361 268.36H132.891L128.643 278.296C127.815 280.216 126.729 281.176 125.385 281.176C125.061 281.176 124.749 281.134 124.449 281.05V279.808C124.701 279.88 124.953 279.916 125.205 279.916C126.129 279.916 126.873 279.214 127.437 277.81L127.761 277.018L123.657 268.36H125.187L128.445 275.362Z" fill="#37376D"/>
<path d="M138.094 277H136.654V269.692H133.468V268.36H141.262V269.692H138.094V277Z" fill="#37376D"/>
<path d="M147.001 277H142.897V268.36H144.337V271.384H147.001C148.033 271.384 148.849 271.648 149.449 272.176C150.049 272.704 150.349 273.376 150.349 274.192C150.349 275.008 150.049 275.68 149.449 276.208C148.849 276.736 148.033 277 147.001 277ZM144.337 272.68V275.704H146.821C147.469 275.704 147.973 275.578 148.333 275.326C148.705 275.074 148.891 274.696 148.891 274.192C148.891 273.688 148.705 273.31 148.333 273.058C147.973 272.806 147.469 272.68 146.821 272.68H144.337ZM153.463 277H152.023V268.36H153.463V277Z" fill="#37376D"/>
<path d="M95.1795 304.874C95.1795 305.498 95.0115 306.062 94.6755 306.566C94.3515 307.058 93.9255 307.394 93.3975 307.574C94.0215 307.766 94.5555 308.12 94.9995 308.636C95.4555 309.14 95.6835 309.818 95.6835 310.67C95.6835 311.81 95.2575 312.686 94.4055 313.298C93.5655 313.91 92.4975 314.216 91.2015 314.216C89.5575 314.216 88.1355 313.946 86.9355 313.406V311.912C88.0995 312.512 89.4795 312.806 91.0755 312.794C93.1755 312.794 94.2255 312.062 94.2255 310.598C94.2255 309.134 93.2295 308.402 91.2375 308.402H89.3655V306.962L91.0755 306.98C91.9395 306.98 92.5935 306.8 93.0375 306.44C93.4935 306.068 93.7215 305.588 93.7215 305C93.7215 304.364 93.4695 303.866 92.9655 303.506C92.4615 303.134 91.7475 302.948 90.8235 302.948C89.5515 302.948 88.3275 303.26 87.1515 303.884V302.408C88.2795 301.832 89.5695 301.544 91.0215 301.544C92.2695 301.544 93.2715 301.85 94.0275 302.462C94.7955 303.074 95.1795 303.878 95.1795 304.874Z" fill="#37376D"/>
<path d="M98.85 312.47C97.938 311.306 97.482 309.776 97.482 307.88C97.482 305.984 97.938 304.454 98.85 303.29C99.762 302.126 101.106 301.544 102.882 301.544C104.67 301.544 106.02 302.126 106.932 303.29C107.844 304.442 108.3 305.972 108.3 307.88C108.3 309.788 107.844 311.324 106.932 312.488C106.02 313.64 104.67 314.216 102.882 314.216C101.106 314.216 99.762 313.634 98.85 312.47ZM105.798 311.516C106.446 310.664 106.77 309.452 106.77 307.88C106.77 306.308 106.446 305.102 105.798 304.262C105.162 303.41 104.19 302.984 102.882 302.984C101.574 302.984 100.602 303.41 99.966 304.262C99.33 305.102 99.012 306.308 99.012 307.88C99.012 309.452 99.33 310.664 99.966 311.516C100.602 312.356 101.574 312.776 102.882 312.776C104.19 312.776 105.162 312.356 105.798 311.516Z" fill="#37376D"/>
<path fill-rule="evenodd" clip-rule="evenodd" d="M407 331H86V330H407V331Z" fill="black"/>
<path d="M403.165 315.75L399 312L407.33 312L403.165 315.75Z" fill="#000C2C"/>
<path d="M403.165 301L407.33 304.75H399L403.165 301Z" fill="#000C2C"/>
<path d="M85 124.5C85 116.492 91.4919 110 99.5 110H144.5C152.508 110 159 116.492 159 124.5C159 132.508 152.508 139 144.5 139H99.5C91.4919 139 85 132.508 85 124.5Z" fill="#DDDDE6"/>
<path d="M101.168 130H99.6562V117.4H109.934V130H108.422V118.84H101.168V130Z" fill="#37376D"/>
<path d="M114.36 130H112.92V121.36H114.36V125.014H119.364V121.36H120.804V130H119.364V126.346H114.36V130Z" fill="#37376D"/>
<path d="M154 124.5C154 130.299 149.299 135 143.5 135C137.701 135 133 130.299 133 124.5C133 118.701 137.701 114 143.5 114C149.299 114 154 118.701 154 124.5Z" fill="#AFAFBD"/>
<path fill-rule="evenodd" clip-rule="evenodd" d="M143.5 123.793L140.672 120.964L139.965 121.671L142.793 124.5L139.965 127.329L140.672 128.036L143.5 125.207L146.329 128.035L147.036 127.328L144.208 124.5L147.036 121.672L146.329 120.965L143.5 123.793Z" fill="#37376D"/>
<path d="M85 214.5C85 206.492 91.4919 200 99.5 200H144.5C152.508 200 159 206.492 159 214.5C159 222.508 152.508 229 144.5 229H99.5C91.4919 229 85 222.508 85 214.5Z" fill="#DDDDE6"/>
<path d="M101.923 207.76H103.039V218.56H105.325V220H98.9531V218.56H101.527V209.362L98.9531 210.334V208.894L101.923 207.76Z" fill="#37376D"/>
<path d="M108.019 218.47C107.108 217.306 106.652 215.776 106.652 213.88C106.652 211.984 107.108 210.454 108.019 209.29C108.931 208.126 110.275 207.544 112.051 207.544C113.839 207.544 115.189 208.126 116.101 209.29C117.014 210.442 117.469 211.972 117.469 213.88C117.469 215.788 117.014 217.324 116.101 218.488C115.189 219.64 113.839 220.216 112.051 220.216C110.275 220.216 108.931 219.634 108.019 218.47ZM114.968 217.516C115.616 216.664 115.94 215.452 115.94 213.88C115.94 212.308 115.616 211.102 114.968 210.262C114.332 209.41 113.359 208.984 112.051 208.984C110.743 208.984 109.771 209.41 109.135 210.262C108.5 211.102 108.181 212.308 108.181 213.88C108.181 215.452 108.5 216.664 109.135 217.516C109.771 218.356 110.743 218.776 112.051 218.776C113.359 218.776 114.332 218.356 114.968 217.516Z" fill="#37376D"/>
<path d="M154 214.5C154 220.299 149.299 225 143.5 225C137.701 225 133 220.299 133 214.5C133 208.701 137.701 204 143.5 204C149.299 204 154 208.701 154 214.5Z" fill="#AFAFBD"/>
<path fill-rule="evenodd" clip-rule="evenodd" d="M143.5 213.793L140.672 210.964L139.965 211.671L142.793 214.5L139.965 217.329L140.672 218.036L143.5 215.207L146.329 218.035L147.036 217.328L144.208 214.5L147.036 211.672L146.329 210.965L143.5 213.793Z" fill="#37376D"/>
<path d="M169 124.5C169 116.492 175.492 110 183.5 110H228.5C236.508 110 243 116.492 243 124.5C243 132.508 236.508 139 228.5 139H183.5C175.492 139 169 132.508 169 124.5Z" fill="#DDDDE6"/>
<path d="M183.656 117.4H188.822C190.142 117.4 191.186 117.676 191.954 118.228C192.722 118.768 193.106 119.554 193.106 120.586C193.106 121.33 192.908 121.942 192.512 122.422C192.116 122.89 191.642 123.208 191.09 123.376C191.762 123.556 192.35 123.904 192.854 124.42C193.358 124.924 193.61 125.632 193.61 126.544C193.61 127.096 193.502 127.582 193.286 128.002C193.082 128.422 192.818 128.758 192.494 129.01C192.182 129.25 191.81 129.448 191.378 129.604C190.958 129.76 190.55 129.868 190.154 129.928C189.77 129.976 189.374 130 188.966 130H183.656V117.4ZM192.08 126.382C192.08 124.93 191.078 124.204 189.074 124.204H185.168V128.56H188.66C189.044 128.56 189.368 128.554 189.632 128.542C189.896 128.518 190.196 128.47 190.532 128.398C190.868 128.314 191.138 128.2 191.342 128.056C191.546 127.9 191.72 127.684 191.864 127.408C192.008 127.12 192.08 126.778 192.08 126.382ZM191.576 120.802C191.576 120.094 191.33 119.59 190.838 119.29C190.358 118.99 189.644 118.84 188.696 118.84H185.168V122.764H189.11C189.83 122.764 190.418 122.608 190.874 122.296C191.342 121.972 191.576 121.474 191.576 120.802Z" fill="#37376D"/>
<path d="M199.237 130H197.797V122.692H194.611V121.36H202.405V122.692H199.237V130Z" fill="#37376D"/>
<path d="M238 124.5C238 130.299 233.299 135 227.5 135C221.701 135 217 130.299 217 124.5C217 118.701 221.701 114 227.5 114C233.299 114 238 118.701 238 124.5Z" fill="#AFAFBD"/>
<path fill-rule="evenodd" clip-rule="evenodd" d="M227.5 123.793L224.672 120.964L223.965 121.671L226.793 124.5L223.965 127.329L224.672 128.036L227.5 125.207L230.329 128.035L231.036 127.328L228.208 124.5L231.036 121.672L230.329 120.965L227.5 123.793Z" fill="#37376D"/>
<path d="M169 214.5C169 206.492 175.492 200 183.5 200H228.5C236.508 200 243 206.492 243 214.5C243 222.508 236.508 229 228.5 229H183.5C175.492 229 169 222.508 169 214.5Z" fill="#DDDDE6"/>
<path d="M185.923 207.76H187.039V218.56H189.325V220H182.953V218.56H185.527V209.362L182.953 210.334V208.894L185.923 207.76Z" fill="#37376D"/>
<path d="M190.957 208.732C192.097 207.94 193.406 207.544 194.882 207.544C196.154 207.544 197.168 207.832 197.924 208.408C198.679 208.984 199.057 209.788 199.057 210.82C199.057 211.312 198.962 211.774 198.77 212.206C198.59 212.638 198.313 213.034 197.941 213.394C197.582 213.754 197.227 214.06 196.879 214.312C196.543 214.552 196.117 214.822 195.601 215.122C195.542 215.158 195.356 215.266 195.043 215.446C194.743 215.626 194.551 215.74 194.467 215.788C194.395 215.836 194.227 215.944 193.964 216.112C193.712 216.268 193.543 216.382 193.459 216.454C193.387 216.526 193.255 216.64 193.063 216.796C192.883 216.952 192.757 217.084 192.685 217.192C192.625 217.3 192.541 217.438 192.433 217.606C192.337 217.762 192.271 217.918 192.235 218.074C192.199 218.23 192.181 218.398 192.181 218.578L199.147 218.56V220H190.525V219.28C190.525 218.608 190.634 218.002 190.85 217.462C191.066 216.91 191.372 216.442 191.767 216.058C192.175 215.662 192.577 215.332 192.973 215.068C193.369 214.792 193.832 214.498 194.359 214.186C194.479 214.126 194.569 214.078 194.629 214.042C195.721 213.406 196.435 212.92 196.771 212.584C197.287 212.056 197.545 211.462 197.545 210.802C197.545 210.202 197.299 209.746 196.807 209.434C196.328 209.11 195.643 208.948 194.755 208.948C193.459 208.948 192.193 209.38 190.957 210.244V208.732Z" fill="#37376D"/>
<path d="M238 214.5C238 220.299 233.299 225 227.5 225C221.701 225 217 220.299 217 214.5C217 208.701 221.701 204 227.5 204C233.299 204 238 208.701 238 214.5Z" fill="#AFAFBD"/>
<path fill-rule="evenodd" clip-rule="evenodd" d="M227.5 213.793L224.672 210.964L223.965 211.671L226.793 214.5L223.965 217.329L224.672 218.036L227.5 215.207L230.329 218.035L231.036 217.328L228.208 214.5L231.036 211.672L230.329 210.965L227.5 213.793Z" fill="#37376D"/>
<path d="M253 124.5C253 116.492 259.492 110 267.5 110H312.5C320.508 110 327 116.492 327 124.5C327 132.508 320.508 139 312.5 139H267.5C259.492 139 253 132.508 253 124.5Z" fill="#DDDDE6"/>
<path d="M266.811 123.79C266.811 122.398 267.141 121.192 267.801 120.172C268.461 119.14 269.283 118.384 270.267 117.904C271.251 117.424 272.307 117.184 273.435 117.184C274.731 117.184 275.913 117.466 276.981 118.03V119.542C276.069 118.93 274.971 118.624 273.687 118.624C272.247 118.624 270.999 119.068 269.943 119.956C268.887 120.832 268.353 122.11 268.341 123.79C268.341 124.858 268.611 125.782 269.151 126.562C269.703 127.342 270.375 127.906 271.167 128.254C271.971 128.602 272.829 128.776 273.741 128.776C275.097 128.776 276.207 128.47 277.071 127.858V129.37C275.979 129.934 274.761 130.216 273.417 130.216C272.613 130.216 271.821 130.078 271.041 129.802C270.261 129.514 269.553 129.112 268.917 128.596C268.281 128.068 267.771 127.39 267.387 126.562C267.003 125.722 266.811 124.798 266.811 123.79Z" fill="#37376D"/>
<path d="M280.353 122.8C281.325 121.696 282.489 121.144 283.845 121.144C285.081 121.144 286.107 121.576 286.923 122.44C287.751 123.304 288.165 124.384 288.165 125.68C288.165 126.976 287.751 128.056 286.923 128.92C286.107 129.784 285.081 130.216 283.845 130.216C282.477 130.216 281.361 129.712 280.497 128.704V133.96H279.057V121.36H280.353V122.8ZM285.843 128.002C286.431 127.414 286.725 126.64 286.725 125.68C286.725 124.72 286.431 123.946 285.843 123.358C285.267 122.77 284.547 122.476 283.683 122.476C282.951 122.476 282.303 122.68 281.739 123.088C281.175 123.496 280.761 124 280.497 124.6V126.76C280.761 127.36 281.175 127.864 281.739 128.272C282.303 128.68 282.951 128.884 283.683 128.884C284.547 128.884 285.267 128.59 285.843 128.002Z" fill="#37376D"/>
<path d="M322 124.5C322 130.299 317.299 135 311.5 135C305.701 135 301 130.299 301 124.5C301 118.701 305.701 114 311.5 114C317.299 114 322 118.701 322 124.5Z" fill="#AFAFBD"/>
<path fill-rule="evenodd" clip-rule="evenodd" d="M311.5 123.793L308.672 120.964L307.965 121.671L310.793 124.5L307.965 127.329L308.672 128.036L311.5 125.207L314.329 128.035L315.036 127.328L312.208 124.5L315.036 121.672L314.329 120.965L311.5 123.793Z" fill="#37376D"/>
<path d="M337 124.5C337 116.492 343.492 110 351.5 110H396.5C404.508 110 411 116.492 411 124.5C411 132.508 404.508 139 396.5 139H351.5C343.492 139 337 132.508 337 124.5Z" fill="#DDDDE6"/>
<path d="M360.674 130H359.162V125.068C357.914 125.488 356.684 125.698 355.472 125.698C353.996 125.674 352.85 125.302 352.034 124.582C351.23 123.862 350.828 122.806 350.828 121.414V117.4H352.34V121.486C352.34 123.31 353.504 124.234 355.832 124.258C356.972 124.258 358.082 124.048 359.162 123.628V117.4H360.674V130Z" fill="#37376D"/>
<path d="M366.956 130H365.516V122.692H362.33V121.36H370.124V122.692H366.956V130Z" fill="#37376D"/>
<path d="M406 124.5C406 130.299 401.299 135 395.5 135C389.701 135 385 130.299 385 124.5C385 118.701 389.701 114 395.5 114C401.299 114 406 118.701 406 124.5Z" fill="#AFAFBD"/>
<path fill-rule="evenodd" clip-rule="evenodd" d="M395.5 123.793L392.672 120.964L391.965 121.671L394.793 124.5L391.965 127.329L392.672 128.036L395.5 125.207L398.329 128.035L399.036 127.328L396.208 124.5L399.036 121.672L398.329 120.965L395.5 123.793Z" fill="#37376D"/>
<path d="M253 214.5C253 206.492 259.492 200 267.5 200H312.5C320.508 200 327 206.492 327 214.5C327 222.508 320.508 229 312.5 229H267.5C259.492 229 253 222.508 253 214.5Z" fill="#DDDDE6"/>
<path d="M269.923 207.76H271.039V218.56H273.325V220H266.953V218.56H269.527V209.362L266.953 210.334V208.894L269.923 207.76Z" fill="#37376D"/>
<path d="M280.861 207.76H282.5V215.878H284.803V217.282H282.5V220H281.005V217.282H274.183V215.932L280.861 207.76ZM281.005 215.878V209.794L276.037 215.878H281.005Z" fill="#37376D"/>
<path d="M322 214.5C322 220.299 317.299 225 311.5 225C305.701 225 301 220.299 301 214.5C301 208.701 305.701 204 311.5 204C317.299 204 322 208.701 322 214.5Z" fill="#AFAFBD"/>
<path fill-rule="evenodd" clip-rule="evenodd" d="M311.5 213.793L308.672 210.964L307.965 211.671L310.793 214.5L307.965 217.329L308.672 218.036L311.5 215.207L314.329 218.035L315.036 217.328L312.208 214.5L315.036 211.672L314.329 210.965L311.5 213.793Z" fill="#37376D"/>
<path d="M337 214.5C337 206.492 343.492 200 351.5 200H396.5C404.508 200 411 206.492 411 214.5C411 222.508 404.508 229 396.5 229H351.5C343.492 229 337 222.508 337 214.5Z" fill="#DDDDE6"/>
<path d="M353.923 207.76H355.039V218.56H357.325V220H350.953V218.56H353.527V209.362L350.953 210.334V208.894L353.923 207.76Z" fill="#37376D"/>
<path d="M360.2 213.538C361.364 212.758 362.641 212.368 364.033 212.368C365.149 212.368 366.128 212.71 366.968 213.394C367.808 214.066 368.227 215.002 368.227 216.202C368.227 217.462 367.808 218.446 366.968 219.154C366.14 219.862 365.095 220.216 363.835 220.216C362.108 220.216 360.811 219.682 359.947 218.614C359.095 217.534 358.669 216.022 358.669 214.078C358.669 211.918 359.179 210.292 360.2 209.2C361.231 208.096 362.575 207.544 364.231 207.544C365.299 207.544 366.29 207.778 367.201 208.246V209.686C366.313 209.218 365.335 208.984 364.267 208.984C363.139 208.984 362.198 209.35 361.441 210.082C360.697 210.802 360.283 211.954 360.2 213.538ZM360.217 215.05C360.445 217.558 361.615 218.812 363.727 218.812C364.615 218.812 365.33 218.608 365.87 218.2C366.422 217.792 366.698 217.15 366.698 216.274C366.698 215.386 366.416 214.75 365.852 214.366C365.288 213.97 364.556 213.772 363.656 213.772C362.323 213.772 361.177 214.198 360.217 215.05Z" fill="#37376D"/>
<path d="M406 214.5C406 220.299 401.299 225 395.5 225C389.701 225 385 220.299 385 214.5C385 208.701 389.701 204 395.5 204C401.299 204 406 208.701 406 214.5Z" fill="#AFAFBD"/>
<path fill-rule="evenodd" clip-rule="evenodd" d="M395.5 213.793L392.672 210.964L391.965 211.671L394.793 214.5L391.965 217.329L392.672 218.036L395.5 215.207L398.329 218.035L399.036 217.328L396.208 214.5L399.036 211.672L398.329 210.965L395.5 213.793Z" fill="#37376D"/>
<path d="M472.738 111C472.738 108.239 474.977 106 477.738 106H621.738C624.5 106 626.738 108.239 626.738 111V130C626.738 132.761 624.5 135 621.738 135H477.738C474.977 135 472.738 132.761 472.738 130V111Z" fill="#E8F7FF"/>
<path d="M484.907 126H483.395V113.4H493.673V126H492.161V114.84H484.907V126Z" fill="#37376D"/>
<path d="M497.954 118.8C498.926 117.696 500.09 117.144 501.446 117.144C502.682 117.144 503.708 117.576 504.524 118.44C505.352 119.304 505.766 120.384 505.766 121.68C505.766 122.976 505.352 124.056 504.524 124.92C503.708 125.784 502.682 126.216 501.446 126.216C500.078 126.216 498.962 125.712 498.098 124.704V129.96H496.658V117.36H497.954V118.8ZM503.444 124.002C504.032 123.414 504.326 122.64 504.326 121.68C504.326 120.72 504.032 119.946 503.444 119.358C502.868 118.77 502.148 118.476 501.284 118.476C500.552 118.476 499.904 118.68 499.34 119.088C498.776 119.496 498.362 120 498.098 120.6V122.76C498.362 123.36 498.776 123.864 499.34 124.272C499.904 124.68 500.552 124.884 501.284 124.884C502.148 124.884 502.868 124.59 503.444 124.002Z" fill="#37376D"/>
<path d="M508.612 125.01C507.7 124.194 507.244 123.084 507.244 121.68C507.244 120.276 507.7 119.172 508.612 118.368C509.524 117.552 510.604 117.144 511.852 117.144C513.112 117.144 514.192 117.552 515.092 118.368C516.004 119.172 516.46 120.276 516.46 121.68C516.46 123.084 516.004 124.194 515.092 125.01C514.192 125.814 513.112 126.216 511.852 126.216C510.604 126.216 509.524 125.814 508.612 125.01ZM514.12 124.002C514.72 123.426 515.02 122.652 515.02 121.68C515.02 120.708 514.72 119.94 514.12 119.376C513.52 118.8 512.764 118.512 511.852 118.512C510.94 118.512 510.184 118.8 509.584 119.376C508.984 119.94 508.684 120.708 508.684 121.68C508.684 122.652 508.984 123.426 509.584 124.002C510.184 124.566 510.94 124.848 511.852 124.848C512.764 124.848 513.52 124.566 514.12 124.002Z" fill="#37376D"/>
<path d="M519.75 126H518.526V117.36H519.966V123.678L525.258 117.36H526.482V126H525.042V119.682L519.75 126Z" fill="#37376D"/>
<path d="M535.605 123.678C535.605 124.482 535.257 125.106 534.561 125.55C533.877 125.994 532.929 126.216 531.717 126.216C530.505 126.216 529.443 125.994 528.531 125.55V124.182C529.407 124.65 530.409 124.884 531.537 124.884C533.289 124.884 534.165 124.428 534.165 123.516C534.165 122.688 533.529 122.274 532.257 122.274H530.367V120.942H532.257C533.409 120.942 533.985 120.57 533.985 119.826C533.985 119.37 533.769 119.028 533.337 118.8C532.905 118.572 532.329 118.458 531.609 118.458C530.565 118.458 529.587 118.686 528.675 119.142V117.792C529.647 117.348 530.679 117.126 531.771 117.126C532.947 117.126 533.847 117.354 534.471 117.81C535.107 118.254 535.425 118.86 535.425 119.628C535.425 120.144 535.281 120.57 534.993 120.906C534.705 121.242 534.315 121.464 533.823 121.572C534.339 121.704 534.765 121.956 535.101 122.328C535.437 122.7 535.605 123.15 535.605 123.678Z" fill="#37376D"/>
<path d="M542.599 126H537.721V117.36H542.455C543.235 117.36 543.871 117.564 544.363 117.972C544.867 118.38 545.119 118.956 545.119 119.7C545.119 120.132 545.011 120.522 544.795 120.87C544.579 121.218 544.303 121.464 543.967 121.608C544.363 121.74 544.699 121.98 544.975 122.328C545.251 122.676 545.389 123.102 545.389 123.606C545.389 124.338 545.149 124.92 544.669 125.352C544.201 125.784 543.511 126 542.599 126ZM539.161 122.256V124.74H542.401C543.433 124.74 543.949 124.332 543.949 123.516C543.949 122.676 543.451 122.256 542.455 122.256H539.161ZM539.161 118.62V121.014H542.311C543.211 121.014 543.661 120.624 543.661 119.844C543.661 119.4 543.529 119.088 543.265 118.908C543.001 118.716 542.683 118.62 542.311 118.62H539.161Z" fill="#37376D"/>
<path d="M548.356 125.01C547.444 124.194 546.988 123.084 546.988 121.68C546.988 120.276 547.444 119.172 548.356 118.368C549.268 117.552 550.348 117.144 551.596 117.144C552.856 117.144 553.936 117.552 554.836 118.368C555.748 119.172 556.204 120.276 556.204 121.68C556.204 123.084 555.748 124.194 554.836 125.01C553.936 125.814 552.856 126.216 551.596 126.216C550.348 126.216 549.268 125.814 548.356 125.01ZM553.864 124.002C554.464 123.426 554.764 122.652 554.764 121.68C554.764 120.708 554.464 119.94 553.864 119.376C553.264 118.8 552.508 118.512 551.596 118.512C550.684 118.512 549.928 118.8 549.328 119.376C548.728 119.94 548.428 120.708 548.428 121.68C548.428 122.652 548.728 123.426 549.328 124.002C549.928 124.566 550.684 124.848 551.596 124.848C552.508 124.848 553.264 124.566 553.864 124.002Z" fill="#37376D"/>
<path d="M558.581 128.34H557.177V124.704H558.329C559.349 122.904 559.841 120.456 559.805 117.36H566.249V124.704H567.509V128.34H566.105V126H558.581V128.34ZM561.191 118.656C561.131 121.02 560.699 123.036 559.895 124.704H564.809V118.656H561.191Z" fill="#37376D"/>
<path d="M570.656 126H569.432V117.36H570.872V123.678L576.164 117.36H577.388V126H575.948V119.682L570.656 126Z" fill="#37376D"/>
<path d="M583.649 126H582.209V118.692H579.023V117.36H586.817V118.692H583.649V126Z" fill="#37376D"/>
<path d="M587.576 121.68C587.576 120.264 588.008 119.154 588.872 118.35C589.748 117.546 590.75 117.144 591.878 117.144C592.934 117.144 593.804 117.408 594.488 117.936C595.184 118.464 595.64 119.118 595.856 119.898C596.072 120.666 596.084 121.47 595.892 122.31H589.016C589.1 123.162 589.478 123.804 590.15 124.236C590.822 124.668 591.632 124.884 592.58 124.884C593.636 124.884 594.584 124.65 595.424 124.182V125.586C594.62 126.006 593.6 126.216 592.364 126.216C590.996 126.216 589.856 125.826 588.944 125.046C588.032 124.266 587.576 123.144 587.576 121.68ZM594.614 121.05C594.65 120.798 594.632 120.534 594.56 120.258C594.488 119.982 594.356 119.706 594.164 119.43C593.984 119.154 593.702 118.926 593.318 118.746C592.934 118.566 592.484 118.476 591.968 118.476C591.188 118.476 590.51 118.704 589.934 119.16C589.37 119.616 589.064 120.246 589.016 121.05H594.614Z" fill="#37376D"/>
<path d="M601.056 118.692C600.996 119.64 600.924 120.468 600.84 121.176C600.756 121.884 600.636 122.568 600.48 123.228C600.324 123.876 600.132 124.404 599.904 124.812C599.688 125.22 599.412 125.544 599.076 125.784C598.74 126.024 598.356 126.144 597.924 126.144C597.576 126.144 597.228 126.078 596.88 125.946V124.812C597.072 124.884 597.264 124.92 597.456 124.92C598.176 124.92 598.698 124.29 599.022 123.03C599.358 121.758 599.568 119.868 599.652 117.36H606.006V126H604.566V118.692H601.056Z" fill="#37376D"/>
<path d="M612.77 126H608.666V117.36H610.106V120.384H612.77C613.802 120.384 614.618 120.648 615.218 121.176C615.818 121.704 616.118 122.376 616.118 123.192C616.118 124.008 615.818 124.68 615.218 125.208C614.618 125.736 613.802 126 612.77 126ZM610.106 121.68V124.704H612.59C613.238 124.704 613.742 124.578 614.102 124.326C614.474 124.074 614.66 123.696 614.66 123.192C614.66 122.688 614.474 122.31 614.102 122.058C613.742 121.806 613.238 121.68 612.59 121.68H610.106Z" fill="#37376D"/>
<path d="M472.738 268C472.738 265.239 474.977 263 477.738 263H584.738C587.5 263 589.738 265.239 589.738 268V287C589.738 289.761 587.5 292 584.738 292H477.738C474.977 292 472.738 289.761 472.738 287V268Z" fill="#E8F7FF"/>
<path d="M484.907 283H483.395V270.4H484.907V275.854H487.769L491.567 270.4H493.295L489.011 276.538L493.673 283H491.945L487.823 277.294H484.907V283Z" fill="#37376D"/>
<path d="M495.218 282.01C494.306 281.194 493.85 280.084 493.85 278.68C493.85 277.276 494.306 276.172 495.218 275.368C496.13 274.552 497.21 274.144 498.458 274.144C499.718 274.144 500.798 274.552 501.698 275.368C502.61 276.172 503.066 277.276 503.066 278.68C503.066 280.084 502.61 281.194 501.698 282.01C500.798 282.814 499.718 283.216 498.458 283.216C497.21 283.216 496.13 282.814 495.218 282.01ZM500.726 281.002C501.326 280.426 501.626 279.652 501.626 278.68C501.626 277.708 501.326 276.94 500.726 276.376C500.126 275.8 499.37 275.512 498.458 275.512C497.546 275.512 496.79 275.8 496.19 276.376C495.59 276.94 495.29 277.708 495.29 278.68C495.29 279.652 495.59 280.426 496.19 281.002C496.79 281.566 497.546 281.848 498.458 281.848C499.37 281.848 500.126 281.566 500.726 281.002Z" fill="#37376D"/>
<path d="M506.571 283H505.131V274.36H506.571V278.014H511.575V274.36H513.015V283H511.575V279.346H506.571V283Z" fill="#37376D"/>
<path d="M519.278 283H517.838V275.692H514.652V274.36H522.446V275.692H519.278V283Z" fill="#37376D"/>
<path d="M525.376 275.8C526.348 274.696 527.512 274.144 528.868 274.144C530.104 274.144 531.13 274.576 531.946 275.44C532.774 276.304 533.188 277.384 533.188 278.68C533.188 279.976 532.774 281.056 531.946 281.92C531.13 282.784 530.104 283.216 528.868 283.216C527.5 283.216 526.384 282.712 525.52 281.704V286.96H524.08V274.36H525.376V275.8ZM530.866 281.002C531.454 280.414 531.748 279.64 531.748 278.68C531.748 277.72 531.454 276.946 530.866 276.358C530.29 275.77 529.57 275.476 528.706 275.476C527.974 275.476 527.326 275.68 526.762 276.088C526.198 276.496 525.784 277 525.52 277.6V279.76C525.784 280.36 526.198 280.864 526.762 281.272C527.326 281.68 527.974 281.884 528.706 281.884C529.57 281.884 530.29 281.59 530.866 281.002Z" fill="#37376D"/>
<path d="M542.28 281.2C542.28 281.644 542.502 281.866 542.946 281.866C543.138 281.866 543.36 281.824 543.612 281.74V282.91C543.252 283.042 542.892 283.108 542.532 283.108C541.704 283.108 541.176 282.76 540.948 282.064C540.024 282.832 538.902 283.216 537.582 283.216C536.742 283.216 536.022 282.994 535.422 282.55C534.834 282.094 534.54 281.44 534.54 280.588C534.54 279.568 534.918 278.83 535.674 278.374C536.442 277.906 537.366 277.672 538.446 277.672C539.238 277.672 540.036 277.762 540.84 277.942V277.636C540.84 276.976 540.624 276.454 540.192 276.07C539.76 275.674 539.154 275.476 538.374 275.476C537.282 275.476 536.232 275.692 535.224 276.124V274.72C536.352 274.336 537.45 274.144 538.518 274.144C539.694 274.144 540.612 274.462 541.272 275.098C541.944 275.722 542.28 276.628 542.28 277.816V281.2ZM536.016 280.516C536.016 280.996 536.196 281.362 536.556 281.614C536.928 281.854 537.372 281.974 537.888 281.974C539.076 281.974 540.06 281.554 540.84 280.714V279.13C540.024 278.962 539.292 278.878 538.644 278.878C537.912 278.878 537.288 279.01 536.772 279.274C536.268 279.526 536.016 279.94 536.016 280.516Z" fill="#37376D"/>
<path d="M546.596 283H545.156V274.36H551.474V275.692H546.596V283Z" fill="#37376D"/>
<path d="M552.209 278.68C552.209 277.264 552.641 276.154 553.505 275.35C554.381 274.546 555.383 274.144 556.511 274.144C557.567 274.144 558.437 274.408 559.121 274.936C559.817 275.464 560.273 276.118 560.489 276.898C560.705 277.666 560.717 278.47 560.525 279.31H553.649C553.733 280.162 554.111 280.804 554.783 281.236C555.455 281.668 556.265 281.884 557.213 281.884C558.269 281.884 559.217 281.65 560.057 281.182V282.586C559.253 283.006 558.233 283.216 556.997 283.216C555.629 283.216 554.489 282.826 553.577 282.046C552.665 281.266 552.209 280.144 552.209 278.68ZM559.247 278.05C559.283 277.798 559.265 277.534 559.193 277.258C559.121 276.982 558.989 276.706 558.797 276.43C558.617 276.154 558.335 275.926 557.951 275.746C557.567 275.566 557.117 275.476 556.601 275.476C555.821 275.476 555.143 275.704 554.567 276.16C554.003 276.616 553.697 277.246 553.649 278.05H559.247Z" fill="#37376D"/>
<path d="M564.069 283H562.629V274.36H564.069V278.014H569.073V274.36H570.513V283H569.073V279.346H564.069V283Z" fill="#37376D"/>
<path d="M576.776 283H575.336V275.692H572.15V274.36H579.944V275.692H576.776V283Z" fill="#37376D"/>
<path d="M472.738 150C472.738 147.239 474.977 145 477.738 145H541.738C544.5 145 546.738 147.239 546.738 150V169C546.738 171.761 544.5 174 541.738 174H477.738C474.977 174 472.738 171.761 472.738 169V150Z" fill="#E8F7FF"/>
<path d="M482.549 158.79C482.549 157.398 482.879 156.192 483.539 155.172C484.199 154.14 485.021 153.384 486.005 152.904C486.989 152.424 488.045 152.184 489.173 152.184C490.469 152.184 491.651 152.466 492.719 153.03V154.542C491.807 153.93 490.709 153.624 489.425 153.624C487.985 153.624 486.737 154.068 485.681 154.956C484.625 155.832 484.091 157.11 484.079 158.79C484.079 159.858 484.349 160.782 484.889 161.562C485.441 162.342 486.113 162.906 486.905 163.254C487.709 163.602 488.567 163.776 489.479 163.776C490.835 163.776 491.945 163.47 492.809 162.858V164.37C491.717 164.934 490.499 165.216 489.155 165.216C488.351 165.216 487.559 165.078 486.779 164.802C485.999 164.514 485.291 164.112 484.655 163.596C484.019 163.068 483.509 162.39 483.125 161.562C482.741 160.722 482.549 159.798 482.549 158.79Z" fill="#37376D"/>
<path d="M497.763 165H496.323V157.692H493.137V156.36H500.931V157.692H497.763V165Z" fill="#37376D"/>
<path d="M509.497 163.2C509.497 163.644 509.719 163.866 510.163 163.866C510.355 163.866 510.577 163.824 510.829 163.74V164.91C510.469 165.042 510.109 165.108 509.749 165.108C508.921 165.108 508.393 164.76 508.165 164.064C507.241 164.832 506.119 165.216 504.799 165.216C503.959 165.216 503.239 164.994 502.639 164.55C502.051 164.094 501.757 163.44 501.757 162.588C501.757 161.568 502.135 160.83 502.891 160.374C503.659 159.906 504.583 159.672 505.663 159.672C506.455 159.672 507.253 159.762 508.057 159.942V159.636C508.057 158.976 507.841 158.454 507.409 158.07C506.977 157.674 506.371 157.476 505.591 157.476C504.499 157.476 503.449 157.692 502.441 158.124V156.72C503.569 156.336 504.667 156.144 505.735 156.144C506.911 156.144 507.829 156.462 508.489 157.098C509.161 157.722 509.497 158.628 509.497 159.816V163.2ZM503.233 162.516C503.233 162.996 503.413 163.362 503.773 163.614C504.145 163.854 504.589 163.974 505.105 163.974C506.293 163.974 507.277 163.554 508.057 162.714V161.13C507.241 160.962 506.509 160.878 505.861 160.878C505.129 160.878 504.505 161.01 503.989 161.274C503.485 161.526 503.233 161.94 503.233 162.516Z" fill="#37376D"/>
<path d="M515.569 165H514.129V157.692H510.943V156.36H518.737V157.692H515.569V165Z" fill="#37376D"/>
<path d="M524.008 163.362L526.924 156.36H528.454L524.206 166.296C523.378 168.216 522.292 169.176 520.948 169.176C520.624 169.176 520.312 169.134 520.012 169.05V167.808C520.264 167.88 520.516 167.916 520.768 167.916C521.692 167.916 522.436 167.214 523 165.81L523.324 165.018L519.22 156.36H520.75L524.008 163.362Z" fill="#37376D"/>
<path d="M529.147 160.716C529.147 159.96 529.285 159.282 529.561 158.682C529.837 158.082 530.197 157.602 530.641 157.242C531.097 156.882 531.595 156.612 532.135 156.432C532.687 156.24 533.251 156.144 533.827 156.144C534.895 156.144 535.783 156.378 536.491 156.846V158.25C535.831 157.734 535.003 157.476 534.007 157.476C533.071 157.476 532.267 157.746 531.595 158.286C530.923 158.826 530.587 159.624 530.587 160.68C530.587 161.724 530.917 162.522 531.577 163.074C532.249 163.614 533.047 163.884 533.971 163.884C534.931 163.884 535.801 163.65 536.581 163.182V164.622C535.765 165.018 534.829 165.216 533.773 165.216C532.525 165.216 531.439 164.826 530.515 164.046C529.603 163.266 529.147 162.156 529.147 160.716Z" fill="#37376D"/>
<path d="M472.738 307C472.738 304.239 474.977 302 477.738 302H541.738C544.5 302 546.738 304.239 546.738 307V326C546.738 328.761 544.5 331 541.738 331H477.738C474.977 331 472.738 328.761 472.738 326V307Z" fill="#E8F7FF"/>
<path d="M482.549 315.79C482.549 314.398 482.879 313.192 483.539 312.172C484.199 311.14 485.021 310.384 486.005 309.904C486.989 309.424 488.045 309.184 489.173 309.184C490.469 309.184 491.651 309.466 492.719 310.03V311.542C491.807 310.93 490.709 310.624 489.425 310.624C487.985 310.624 486.737 311.068 485.681 311.956C484.625 312.832 484.091 314.11 484.079 315.79C484.079 316.858 484.349 317.782 484.889 318.562C485.441 319.342 486.113 319.906 486.905 320.254C487.709 320.602 488.567 320.776 489.479 320.776C490.835 320.776 491.945 320.47 492.809 319.858V321.37C491.717 321.934 490.499 322.216 489.155 322.216C488.351 322.216 487.559 322.078 486.779 321.802C485.999 321.514 485.291 321.112 484.655 320.596C484.019 320.068 483.509 319.39 483.125 318.562C482.741 317.722 482.549 316.798 482.549 315.79Z" fill="#37376D"/>
<path d="M497.763 322H496.323V314.692H493.137V313.36H500.931V314.692H497.763V322Z" fill="#37376D"/>
<path d="M509.497 320.2C509.497 320.644 509.719 320.866 510.163 320.866C510.355 320.866 510.577 320.824 510.829 320.74V321.91C510.469 322.042 510.109 322.108 509.749 322.108C508.921 322.108 508.393 321.76 508.165 321.064C507.241 321.832 506.119 322.216 504.799 322.216C503.959 322.216 503.239 321.994 502.639 321.55C502.051 321.094 501.757 320.44 501.757 319.588C501.757 318.568 502.135 317.83 502.891 317.374C503.659 316.906 504.583 316.672 505.663 316.672C506.455 316.672 507.253 316.762 508.057 316.942V316.636C508.057 315.976 507.841 315.454 507.409 315.07C506.977 314.674 506.371 314.476 505.591 314.476C504.499 314.476 503.449 314.692 502.441 315.124V313.72C503.569 313.336 504.667 313.144 505.735 313.144C506.911 313.144 507.829 313.462 508.489 314.098C509.161 314.722 509.497 315.628 509.497 316.816V320.2ZM503.233 319.516C503.233 319.996 503.413 320.362 503.773 320.614C504.145 320.854 504.589 320.974 505.105 320.974C506.293 320.974 507.277 320.554 508.057 319.714V318.13C507.241 317.962 506.509 317.878 505.861 317.878C505.129 317.878 504.505 318.01 503.989 318.274C503.485 318.526 503.233 318.94 503.233 319.516Z" fill="#37376D"/>
<path d="M515.569 322H514.129V314.692H510.943V313.36H518.737V314.692H515.569V322Z" fill="#37376D"/>
<path d="M524.008 320.362L526.924 313.36H528.454L524.206 323.296C523.378 325.216 522.292 326.176 520.948 326.176C520.624 326.176 520.312 326.134 520.012 326.05V324.808C520.264 324.88 520.516 324.916 520.768 324.916C521.692 324.916 522.436 324.214 523 322.81L523.324 322.018L519.22 313.36H520.75L524.008 320.362Z" fill="#37376D"/>
<path d="M529.147 317.716C529.147 316.96 529.285 316.282 529.561 315.682C529.837 315.082 530.197 314.602 530.641 314.242C531.097 313.882 531.595 313.612 532.135 313.432C532.687 313.24 533.251 313.144 533.827 313.144C534.895 313.144 535.783 313.378 536.491 313.846V315.25C535.831 314.734 535.003 314.476 534.007 314.476C533.071 314.476 532.267 314.746 531.595 315.286C530.923 315.826 530.587 316.624 530.587 317.68C530.587 318.724 530.917 319.522 531.577 320.074C532.249 320.614 533.047 320.884 533.971 320.884C534.931 320.884 535.801 320.65 536.581 320.182V321.622C535.765 322.018 534.829 322.216 533.773 322.216C532.525 322.216 531.439 321.826 530.515 321.046C529.603 320.266 529.147 319.156 529.147 317.716Z" fill="#37376D"/>
<path d="M493.738 229C493.738 226.239 495.977 224 498.738 224H602.738C605.5 224 607.738 226.239 607.738 229V248C607.738 250.761 605.5 253 602.738 253H498.738C495.977 253 493.738 250.761 493.738 248V229Z" fill="#E8F7FF"/>
<path d="M505.645 244H504.133V231.4H512.413V232.84H505.645V244Z" fill="#37376D"/>
<path d="M513.49 236.8C514.462 235.696 515.626 235.144 516.982 235.144C518.218 235.144 519.244 235.576 520.06 236.44C520.888 237.304 521.302 238.384 521.302 239.68C521.302 240.976 520.888 242.056 520.06 242.92C519.244 243.784 518.218 244.216 516.982 244.216C515.614 244.216 514.498 243.712 513.634 242.704V247.96H512.194V235.36H513.49V236.8ZM518.98 242.002C519.568 241.414 519.862 240.64 519.862 239.68C519.862 238.72 519.568 237.946 518.98 237.358C518.404 236.77 517.684 236.476 516.82 236.476C516.088 236.476 515.44 236.68 514.876 237.088C514.312 237.496 513.898 238 513.634 238.6V240.76C513.898 241.36 514.312 241.864 514.876 242.272C515.44 242.68 516.088 242.884 516.82 242.884C517.684 242.884 518.404 242.59 518.98 242.002Z" fill="#37376D"/>
<path d="M526.71 242.362L529.626 235.36H531.156L526.908 245.296C526.08 247.216 524.994 248.176 523.65 248.176C523.326 248.176 523.014 248.134 522.714 248.05V246.808C522.966 246.88 523.218 246.916 523.47 246.916C524.394 246.916 525.138 246.214 525.702 244.81L526.026 244.018L521.922 235.36H523.452L526.71 242.362Z" fill="#37376D"/>
<path d="M534.2 244H532.76V235.36H540.644V244H539.204V236.692H534.2V244Z" fill="#37376D"/>
<path d="M544.747 244H543.307V235.36H551.191V244H549.751V236.692H544.747V244Z" fill="#37376D"/>
<path d="M560.874 242.2C560.874 242.644 561.096 242.866 561.54 242.866C561.732 242.866 561.954 242.824 562.206 242.74V243.91C561.846 244.042 561.486 244.108 561.126 244.108C560.298 244.108 559.77 243.76 559.542 243.064C558.618 243.832 557.496 244.216 556.176 244.216C555.336 244.216 554.616 243.994 554.016 243.55C553.428 243.094 553.134 242.44 553.134 241.588C553.134 240.568 553.512 239.83 554.268 239.374C555.036 238.906 555.96 238.672 557.04 238.672C557.832 238.672 558.63 238.762 559.434 238.942V238.636C559.434 237.976 559.218 237.454 558.786 237.07C558.354 236.674 557.748 236.476 556.968 236.476C555.876 236.476 554.826 236.692 553.818 237.124V235.72C554.946 235.336 556.044 235.144 557.112 235.144C558.288 235.144 559.206 235.462 559.866 236.098C560.538 236.722 560.874 237.628 560.874 238.816V242.2ZM554.61 241.516C554.61 241.996 554.79 242.362 555.15 242.614C555.522 242.854 555.966 242.974 556.482 242.974C557.67 242.974 558.654 242.554 559.434 241.714V240.13C558.618 239.962 557.886 239.878 557.238 239.878C556.506 239.878 555.882 240.01 555.366 240.274C554.862 240.526 554.61 240.94 554.61 241.516Z" fill="#37376D"/>
<path d="M577.125 246.34H575.721V244H568.233V235.36H569.673V242.668H574.407V235.36H575.847V242.668H577.125V246.34Z" fill="#37376D"/>
<path d="M578.273 239.68C578.273 238.264 578.705 237.154 579.569 236.35C580.445 235.546 581.447 235.144 582.575 235.144C583.631 235.144 584.501 235.408 585.185 235.936C585.881 236.464 586.337 237.118 586.553 237.898C586.769 238.666 586.781 239.47 586.589 240.31H579.713C579.797 241.162 580.175 241.804 580.847 242.236C581.519 242.668 582.329 242.884 583.277 242.884C584.333 242.884 585.281 242.65 586.121 242.182V243.586C585.317 244.006 584.297 244.216 583.061 244.216C581.693 244.216 580.553 243.826 579.641 243.046C578.729 242.266 578.273 241.144 578.273 239.68ZM585.311 239.05C585.347 238.798 585.329 238.534 585.257 238.258C585.185 237.982 585.053 237.706 584.861 237.43C584.681 237.154 584.399 236.926 584.015 236.746C583.631 236.566 583.181 236.476 582.665 236.476C581.885 236.476 581.207 236.704 580.631 237.16C580.067 237.616 579.761 238.246 579.713 239.05H585.311Z" fill="#37376D"/>
<path d="M590.134 244H588.694V235.36H590.134V239.014H595.138V235.36H596.578V244H595.138V240.346H590.134V244Z" fill="#37376D"/>
<path d="M472.738 189C472.738 186.239 474.977 184 477.738 184H521.738C524.5 184 526.738 186.239 526.738 189V208C526.738 210.761 524.5 213 521.738 213H477.738C474.977 213 472.738 210.761 472.738 208V189Z" fill="#FFECD7"/>
<path d="M493.889 204H492.377V195V193.92L484.799 204H483.395V191.4H484.907V200.382V201.462L492.485 191.4H493.889V204Z" fill="#37376D"/>
<path d="M499.789 196.692C499.729 197.64 499.657 198.468 499.573 199.176C499.489 199.884 499.369 200.568 499.213 201.228C499.057 201.876 498.865 202.404 498.637 202.812C498.421 203.22 498.145 203.544 497.809 203.784C497.473 204.024 497.089 204.144 496.657 204.144C496.309 204.144 495.961 204.078 495.613 203.946V202.812C495.805 202.884 495.997 202.92 496.189 202.92C496.909 202.92 497.431 202.29 497.755 201.03C498.091 199.758 498.301 197.868 498.385 195.36H504.739V204H503.299V196.692H499.789Z" fill="#37376D"/>
<path d="M508.623 204H507.399V195.36H508.839V201.678L514.131 195.36H515.355V204H513.915V197.682L508.623 204Z" fill="#37376D"/>
<path d="M556.738 150C556.738 147.239 558.977 145 561.738 145H625.738C628.5 145 630.738 147.239 630.738 150V169C630.738 171.761 628.5 174 625.738 174H561.738C558.977 174 556.738 171.761 556.738 169V150Z" fill="#ECFFDE"/>
<path d="M567.395 152.4H571.697C575.261 152.4 577.043 153.756 577.043 156.468C577.043 159.18 575.261 160.536 571.697 160.536H568.907V165H567.395V152.4ZM575.513 156.468C575.513 155.952 575.417 155.52 575.225 155.172C575.033 154.812 574.757 154.542 574.397 154.362C574.049 154.17 573.665 154.038 573.245 153.966C572.825 153.882 572.333 153.84 571.769 153.84H568.907V159.096H571.769C572.933 159.096 573.845 158.904 574.505 158.52C575.177 158.136 575.513 157.452 575.513 156.468Z" fill="#37376D"/>
<path d="M585.727 163.2C585.727 163.644 585.949 163.866 586.393 163.866C586.585 163.866 586.807 163.824 587.059 163.74V164.91C586.699 165.042 586.339 165.108 585.979 165.108C585.151 165.108 584.623 164.76 584.395 164.064C583.471 164.832 582.349 165.216 581.029 165.216C580.189 165.216 579.469 164.994 578.869 164.55C578.281 164.094 577.987 163.44 577.987 162.588C577.987 161.568 578.365 160.83 579.121 160.374C579.889 159.906 580.813 159.672 581.893 159.672C582.685 159.672 583.483 159.762 584.287 159.942V159.636C584.287 158.976 584.071 158.454 583.639 158.07C583.207 157.674 582.601 157.476 581.821 157.476C580.729 157.476 579.679 157.692 578.671 158.124V156.72C579.799 156.336 580.897 156.144 581.965 156.144C583.141 156.144 584.059 156.462 584.719 157.098C585.391 157.722 585.727 158.628 585.727 159.816V163.2ZM579.463 162.516C579.463 162.996 579.643 163.362 580.003 163.614C580.375 163.854 580.819 163.974 581.335 163.974C582.523 163.974 583.507 163.554 584.287 162.714V161.13C583.471 160.962 582.739 160.878 582.091 160.878C581.359 160.878 580.735 161.01 580.219 161.274C579.715 161.526 579.463 161.94 579.463 162.516Z" fill="#37376D"/>
<path d="M593.482 165H588.604V156.36H593.338C594.118 156.36 594.754 156.564 595.246 156.972C595.75 157.38 596.002 157.956 596.002 158.7C596.002 159.132 595.894 159.522 595.678 159.87C595.462 160.218 595.186 160.464 594.85 160.608C595.246 160.74 595.582 160.98 595.858 161.328C596.134 161.676 596.272 162.102 596.272 162.606C596.272 163.338 596.032 163.92 595.552 164.352C595.084 164.784 594.394 165 593.482 165ZM590.044 161.256V163.74H593.284C594.316 163.74 594.832 163.332 594.832 162.516C594.832 161.676 594.334 161.256 593.338 161.256H590.044ZM590.044 157.62V160.014H593.194C594.094 160.014 594.544 159.624 594.544 158.844C594.544 158.4 594.412 158.088 594.148 157.908C593.884 157.716 593.566 157.62 593.194 157.62H590.044Z" fill="#37376D"/>
<path d="M599.905 165H598.465V156.36H599.905V160.014H604.909V156.36H606.349V165H604.909V161.346H599.905V165Z" fill="#37376D"/>
<path d="M609.786 164.01C608.874 163.194 608.418 162.084 608.418 160.68C608.418 159.276 608.874 158.172 609.786 157.368C610.698 156.552 611.778 156.144 613.026 156.144C614.286 156.144 615.366 156.552 616.266 157.368C617.178 158.172 617.634 159.276 617.634 160.68C617.634 162.084 617.178 163.194 616.266 164.01C615.366 164.814 614.286 165.216 613.026 165.216C611.778 165.216 610.698 164.814 609.786 164.01ZM615.294 163.002C615.894 162.426 616.194 161.652 616.194 160.68C616.194 159.708 615.894 158.94 615.294 158.376C614.694 157.8 613.938 157.512 613.026 157.512C612.114 157.512 611.358 157.8 610.758 158.376C610.158 158.94 609.858 159.708 609.858 160.68C609.858 161.652 610.158 162.426 610.758 163.002C611.358 163.566 612.114 163.848 613.026 163.848C613.938 163.848 614.694 163.566 615.294 163.002Z" fill="#37376D"/>
<path d="M556.738 307C556.738 304.239 558.977 302 561.738 302H625.738C628.5 302 630.738 304.239 630.738 307V326C630.738 328.761 628.5 331 625.738 331H561.738C558.977 331 556.738 328.761 556.738 326V307Z" fill="#ECFFDE"/>
<path d="M567.395 309.4H571.697C575.261 309.4 577.043 310.756 577.043 313.468C577.043 316.18 575.261 317.536 571.697 317.536H568.907V322H567.395V309.4ZM575.513 313.468C575.513 312.952 575.417 312.52 575.225 312.172C575.033 311.812 574.757 311.542 574.397 311.362C574.049 311.17 573.665 311.038 573.245 310.966C572.825 310.882 572.333 310.84 571.769 310.84H568.907V316.096H571.769C572.933 316.096 573.845 315.904 574.505 315.52C575.177 315.136 575.513 314.452 575.513 313.468Z" fill="#37376D"/>
<path d="M585.727 320.2C585.727 320.644 585.949 320.866 586.393 320.866C586.585 320.866 586.807 320.824 587.059 320.74V321.91C586.699 322.042 586.339 322.108 585.979 322.108C585.151 322.108 584.623 321.76 584.395 321.064C583.471 321.832 582.349 322.216 581.029 322.216C580.189 322.216 579.469 321.994 578.869 321.55C578.281 321.094 577.987 320.44 577.987 319.588C577.987 318.568 578.365 317.83 579.121 317.374C579.889 316.906 580.813 316.672 581.893 316.672C582.685 316.672 583.483 316.762 584.287 316.942V316.636C584.287 315.976 584.071 315.454 583.639 315.07C583.207 314.674 582.601 314.476 581.821 314.476C580.729 314.476 579.679 314.692 578.671 315.124V313.72C579.799 313.336 580.897 313.144 581.965 313.144C583.141 313.144 584.059 313.462 584.719 314.098C585.391 314.722 585.727 315.628 585.727 316.816V320.2ZM579.463 319.516C579.463 319.996 579.643 320.362 580.003 320.614C580.375 320.854 580.819 320.974 581.335 320.974C582.523 320.974 583.507 320.554 584.287 319.714V318.13C583.471 317.962 582.739 317.878 582.091 317.878C581.359 317.878 580.735 318.01 580.219 318.274C579.715 318.526 579.463 318.94 579.463 319.516Z" fill="#37376D"/>
<path d="M593.482 322H588.604V313.36H593.338C594.118 313.36 594.754 313.564 595.246 313.972C595.75 314.38 596.002 314.956 596.002 315.7C596.002 316.132 595.894 316.522 595.678 316.87C595.462 317.218 595.186 317.464 594.85 317.608C595.246 317.74 595.582 317.98 595.858 318.328C596.134 318.676 596.272 319.102 596.272 319.606C596.272 320.338 596.032 320.92 595.552 321.352C595.084 321.784 594.394 322 593.482 322ZM590.044 318.256V320.74H593.284C594.316 320.74 594.832 320.332 594.832 319.516C594.832 318.676 594.334 318.256 593.338 318.256H590.044ZM590.044 314.62V317.014H593.194C594.094 317.014 594.544 316.624 594.544 315.844C594.544 315.4 594.412 315.088 594.148 314.908C593.884 314.716 593.566 314.62 593.194 314.62H590.044Z" fill="#37376D"/>
<path d="M599.905 322H598.465V313.36H599.905V317.014H604.909V313.36H606.349V322H604.909V318.346H599.905V322Z" fill="#37376D"/>
<path d="M609.786 321.01C608.874 320.194 608.418 319.084 608.418 317.68C608.418 316.276 608.874 315.172 609.786 314.368C610.698 313.552 611.778 313.144 613.026 313.144C614.286 313.144 615.366 313.552 616.266 314.368C617.178 315.172 617.634 316.276 617.634 317.68C617.634 319.084 617.178 320.194 616.266 321.01C615.366 321.814 614.286 322.216 613.026 322.216C611.778 322.216 610.698 321.814 609.786 321.01ZM615.294 320.002C615.894 319.426 616.194 318.652 616.194 317.68C616.194 316.708 615.894 315.94 615.294 315.376C614.694 314.8 613.938 314.512 613.026 314.512C612.114 314.512 611.358 314.8 610.758 315.376C610.158 315.94 609.858 316.708 609.858 317.68C609.858 318.652 610.158 319.426 610.758 320.002C611.358 320.566 612.114 320.848 613.026 320.848C613.938 320.848 614.694 320.566 615.294 320.002Z" fill="#37376D"/>
<path fill-rule="evenodd" clip-rule="evenodd" d="M457.272 119.565L452.707 115L452 115.707L456.565 120.272L452 124.836L452.707 125.543L457.272 120.979L461.836 125.543L462.543 124.836L457.979 120.272L462.543 115.707L461.836 115L457.272 119.565Z" fill="#F28100"/>
<path fill-rule="evenodd" clip-rule="evenodd" d="M457.272 276.565L452.707 272L452 272.707L456.565 277.272L452 281.836L452.707 282.543L457.272 277.979L461.836 282.543L462.543 281.836L457.979 277.272L462.543 272.707L461.836 272L457.272 276.565Z" fill="#F28100"/>
<path fill-rule="evenodd" clip-rule="evenodd" d="M457.272 158.565L452.707 154L452 154.707L456.565 159.272L452 163.836L452.707 164.543L457.272 159.979L461.836 164.543L462.543 163.836L457.979 159.272L462.543 154.707L461.836 154L457.272 158.565Z" fill="#F28100"/>
<path fill-rule="evenodd" clip-rule="evenodd" d="M457.272 315.565L452.707 311L452 311.707L456.565 316.272L452 320.836L452.707 321.543L457.272 316.979L461.836 321.543L462.543 320.836L457.979 316.272L462.543 311.707L461.836 311L457.272 315.565Z" fill="#F28100"/>
<path fill-rule="evenodd" clip-rule="evenodd" d="M478.01 237.565L473.445 233L472.738 233.707L477.303 238.272L472.738 242.836L473.445 243.543L478.01 238.979L482.574 243.543L483.281 242.836L478.717 238.272L483.281 233.707L482.574 233L478.01 237.565Z" fill="#F28100"/>
<path fill-rule="evenodd" clip-rule="evenodd" d="M457.272 197.565L452.707 193L452 193.707L456.565 198.272L452 202.836L452.707 203.543L457.272 198.979L461.836 203.543L462.543 202.836L457.979 198.272L462.543 193.707L461.836 193L457.272 197.565Z" fill="#F28100"/>
<defs>
<filter id="filter0_d" x="0" y="0" width="719" height="423" filterUnits="userSpaceOnUse" color-interpolation-filters="sRGB">
<feFlood flood-opacity="0" result="BackgroundImageFix"/>
<feColorMatrix in="SourceAlpha" type="matrix" values="0 0 0 0 0 0 0 0 0 0 0 0 0 0 0 0 0 0 127 0" result="hardAlpha"/>
<feOffset dy="4"/>
<feGaussianBlur stdDeviation="25"/>
<feComposite in2="hardAlpha" operator="out"/>
<feColorMatrix type="matrix" values="0 0 0 0 0 0 0 0 0 0 0 0 0 0 0 0 0 0 0.1 0"/>
<feBlend mode="normal" in2="BackgroundImageFix" result="effect1_dropShadow"/>
<feBlend mode="normal" in="SourceGraphic" in2="effect1_dropShadow" result="shape"/>
</filter>
</defs>
</svg>
