<svg width="719" height="423" viewBox="0 0 719 423" fill="none" xmlns="http://www.w3.org/2000/svg">
<g filter="url(#filter0_b)">
<path d="M50 61C50 52.7157 56.7157 46 65 46H654C662.284 46 669 52.7157 669 61V354C669 362.284 662.284 369 654 369H65C56.7157 369 50 362.284 50 354V61Z" fill="white"/>
</g>
<path d="M272 76C272 73.2386 274.239 71 277 71H429C431.761 71 434 73.2386 434 76V153C434 155.761 431.761 158 429 158H277C274.239 158 272 155.761 272 153V76Z" fill="#37376D"/>
<path d="M272.5 263C272.5 260.515 274.515 258.5 277 258.5H429C431.485 258.5 433.5 260.515 433.5 263V340C433.5 342.485 431.485 344.5 429 344.5H277C274.515 344.5 272.5 342.485 272.5 340V263Z" fill="white" stroke="#DDDDE6"/>
<path d="M474.5 263C474.5 260.515 476.515 258.5 479 258.5H631C633.485 258.5 635.5 260.515 635.5 263V340C635.5 342.485 633.485 344.5 631 344.5H479C476.515 344.5 474.5 342.485 474.5 340V263Z" fill="white" stroke="#DDDDE6"/>
<path d="M71.5 263C71.5 260.515 73.5147 258.5 76 258.5H228C230.485 258.5 232.5 260.515 232.5 263V340C232.5 342.485 230.485 344.5 228 344.5H76C73.5147 344.5 71.5 342.485 71.5 340V263Z" fill="white" stroke="#DDDDE6"/>
<path d="M319.96 95.4H321.814V108H319.762V99.18L315.784 105.156H314.56L310.582 99.162V108H308.53V95.4H310.384L315.172 102.618L319.96 95.4ZM325.171 107.028C324.259 106.224 323.803 105.108 323.803 103.68C323.803 102.252 324.259 101.136 325.171 100.332C326.095 99.528 327.199 99.126 328.483 99.126C329.779 99.126 330.883 99.528 331.795 100.332C332.707 101.136 333.163 102.252 333.163 103.68C333.163 105.108 332.707 106.224 331.795 107.028C330.883 107.832 329.779 108.234 328.483 108.234C327.199 108.234 326.095 107.832 325.171 107.028ZM330.445 105.714C330.949 105.198 331.201 104.52 331.201 103.68C331.201 102.84 330.949 102.168 330.445 101.664C329.941 101.148 329.287 100.89 328.483 100.89C327.667 100.89 327.007 101.148 326.503 101.664C325.999 102.168 325.747 102.84 325.747 103.68C325.747 104.52 325.999 105.198 326.503 105.714C327.007 106.218 327.667 106.47 328.483 106.47C329.287 106.47 329.941 106.218 330.445 105.714ZM341.762 97.416C341.042 97.908 340.166 98.154 339.134 98.154C338.102 98.154 337.226 97.908 336.506 97.416V95.85C337.31 96.354 338.186 96.606 339.134 96.606C340.082 96.606 340.958 96.354 341.762 95.85V97.416ZM336.686 108H335.03V99.36H336.956V105.012L341.582 99.36H343.238V108H341.312V102.348L336.686 108ZM353.915 108H351.989V101.052H349.001V99.36H356.885V101.052H353.915V108ZM358.991 107.028C358.079 106.224 357.623 105.108 357.623 103.68C357.623 102.252 358.079 101.136 358.991 100.332C359.915 99.528 361.019 99.126 362.303 99.126C363.599 99.126 364.703 99.528 365.615 100.332C366.527 101.136 366.983 102.252 366.983 103.68C366.983 105.108 366.527 106.224 365.615 107.028C364.703 107.832 363.599 108.234 362.303 108.234C361.019 108.234 359.915 107.832 358.991 107.028ZM364.265 105.714C364.769 105.198 365.021 104.52 365.021 103.68C365.021 102.84 364.769 102.168 364.265 101.664C363.761 101.148 363.107 100.89 362.303 100.89C361.487 100.89 360.827 101.148 360.323 101.664C359.819 102.168 359.567 102.84 359.567 103.68C359.567 104.52 359.819 105.198 360.323 105.714C360.827 106.218 361.487 106.47 362.303 106.47C363.107 106.47 363.761 106.218 364.265 105.714ZM373.927 108H368.851V99.36H373.783C374.635 99.36 375.301 99.576 375.781 100.008C376.273 100.428 376.519 100.98 376.519 101.664C376.519 102.612 376.111 103.266 375.295 103.626C375.727 103.758 376.081 103.998 376.357 104.346C376.633 104.694 376.771 105.12 376.771 105.624C376.771 106.332 376.531 106.908 376.051 107.352C375.583 107.784 374.875 108 373.927 108ZM370.777 104.328V106.542H373.459C374.371 106.542 374.827 106.176 374.827 105.444C374.827 104.7 374.383 104.328 373.495 104.328H370.777ZM370.777 100.818V102.96H373.351C374.167 102.96 374.575 102.612 374.575 101.916C374.575 101.532 374.455 101.256 374.215 101.088C373.987 100.908 373.699 100.818 373.351 100.818H370.777ZM386.074 106.002C386.074 106.422 386.284 106.632 386.704 106.632C386.848 106.632 387.04 106.596 387.28 106.524V107.91C386.92 108.054 386.512 108.126 386.056 108.126C385.192 108.126 384.616 107.79 384.328 107.118C383.404 107.862 382.318 108.234 381.07 108.234C380.23 108.234 379.516 108.006 378.928 107.55C378.34 107.082 378.046 106.428 378.046 105.588C378.046 104.58 378.424 103.848 379.18 103.392C379.936 102.924 380.842 102.69 381.898 102.69C382.594 102.69 383.344 102.774 384.148 102.942V102.636C384.148 102.084 383.95 101.64 383.554 101.304C383.158 100.968 382.6 100.8 381.88 100.8C380.812 100.8 379.774 101.022 378.766 101.466V99.702C379.894 99.318 380.998 99.126 382.078 99.126C383.338 99.126 384.316 99.438 385.012 100.062C385.72 100.686 386.074 101.634 386.074 102.906V106.002ZM382.276 104.04C381.64 104.04 381.106 104.154 380.674 104.382C380.242 104.61 380.026 104.97 380.026 105.462C380.026 105.87 380.182 106.188 380.494 106.416C380.806 106.632 381.19 106.74 381.646 106.74C382.63 106.74 383.464 106.398 384.148 105.714V104.256C383.452 104.112 382.828 104.04 382.276 104.04ZM390.441 100.71C391.317 99.654 392.427 99.126 393.771 99.126C395.043 99.126 396.075 99.57 396.867 100.458C397.659 101.334 398.055 102.408 398.055 103.68C398.055 104.952 397.659 106.032 396.867 106.92C396.075 107.796 395.043 108.234 393.771 108.234C392.475 108.234 391.437 107.784 390.657 106.884V111.96H388.731V99.36H390.441V100.71ZM395.337 105.75C395.841 105.21 396.093 104.52 396.093 103.68C396.093 102.84 395.841 102.156 395.337 101.628C394.833 101.088 394.191 100.818 393.411 100.818C392.775 100.818 392.211 100.992 391.719 101.34C391.239 101.688 390.885 102.114 390.657 102.618V104.724C390.885 105.24 391.239 105.672 391.719 106.02C392.211 106.368 392.775 106.542 393.411 106.542C394.191 106.542 394.833 106.278 395.337 105.75Z" fill="white"/>
<path d="M316.286 295H314.108L319.436 282.4H321.686L326.996 295H324.836L323.72 292.282H317.402L316.286 295ZM320.318 285.1L318.104 290.482H323L320.786 285.1C320.69 284.836 320.612 284.602 320.552 284.398C320.492 284.602 320.414 284.836 320.318 285.1ZM330.228 295H328.302V286.36H330.228V289.834H334.548V286.36H336.474V295H334.548V291.526H330.228V295ZM346.246 293.002C346.246 293.422 346.456 293.632 346.876 293.632C347.02 293.632 347.212 293.596 347.452 293.524V294.91C347.092 295.054 346.684 295.126 346.228 295.126C345.364 295.126 344.788 294.79 344.5 294.118C343.576 294.862 342.49 295.234 341.242 295.234C340.402 295.234 339.688 295.006 339.1 294.55C338.512 294.082 338.218 293.428 338.218 292.588C338.218 291.58 338.596 290.848 339.352 290.392C340.108 289.924 341.014 289.69 342.07 289.69C342.766 289.69 343.516 289.774 344.32 289.942V289.636C344.32 289.084 344.122 288.64 343.726 288.304C343.33 287.968 342.772 287.8 342.052 287.8C340.984 287.8 339.946 288.022 338.938 288.466V286.702C340.066 286.318 341.17 286.126 342.25 286.126C343.51 286.126 344.488 286.438 345.184 287.062C345.892 287.686 346.246 288.634 346.246 289.906V293.002ZM342.448 291.04C341.812 291.04 341.278 291.154 340.846 291.382C340.414 291.61 340.198 291.97 340.198 292.462C340.198 292.87 340.354 293.188 340.666 293.416C340.978 293.632 341.362 293.74 341.818 293.74C342.802 293.74 343.636 293.398 344.32 292.714V291.256C343.624 291.112 343 291.04 342.448 291.04ZM352.341 287.998C352.269 289.126 352.173 290.092 352.053 290.896C351.933 291.7 351.753 292.444 351.513 293.128C351.273 293.8 350.955 294.31 350.559 294.658C350.175 294.994 349.701 295.162 349.137 295.162C348.765 295.162 348.369 295.084 347.949 294.928V293.416C348.153 293.488 348.339 293.524 348.507 293.524C349.191 293.524 349.671 292.93 349.947 291.742C350.235 290.542 350.427 288.748 350.523 286.36H357.183V295H355.257V287.998H352.341ZM360.419 294.028C359.507 293.224 359.051 292.108 359.051 290.68C359.051 289.252 359.507 288.136 360.419 287.332C361.343 286.528 362.447 286.126 363.731 286.126C365.027 286.126 366.131 286.528 367.043 287.332C367.955 288.136 368.411 289.252 368.411 290.68C368.411 292.108 367.955 293.224 367.043 294.028C366.131 294.832 365.027 295.234 363.731 295.234C362.447 295.234 361.343 294.832 360.419 294.028ZM365.693 292.714C366.197 292.198 366.449 291.52 366.449 290.68C366.449 289.84 366.197 289.168 365.693 288.664C365.189 288.148 364.535 287.89 363.731 287.89C362.915 287.89 362.255 288.148 361.751 288.664C361.247 289.168 360.995 289.84 360.995 290.68C360.995 291.52 361.247 292.198 361.751 292.714C362.255 293.218 362.915 293.47 363.731 293.47C364.535 293.47 365.189 293.218 365.693 292.714ZM372.204 295H370.278V286.36H376.722V288.052H372.204V295ZM382.459 283.768C383.671 282.94 385.027 282.526 386.527 282.526C387.811 282.526 388.849 282.826 389.641 283.426C390.433 284.014 390.829 284.86 390.829 285.964C390.829 286.888 390.523 287.68 389.911 288.34C389.311 288.988 388.489 289.624 387.445 290.248C387.361 290.296 387.205 290.386 386.977 290.518C386.761 290.65 386.605 290.746 386.509 290.806C386.425 290.854 386.287 290.938 386.095 291.058C385.903 291.178 385.759 291.268 385.663 291.328C385.579 291.388 385.459 291.478 385.303 291.598C385.159 291.706 385.051 291.802 384.979 291.886C384.907 291.958 384.823 292.054 384.727 292.174C384.631 292.282 384.559 292.384 384.511 292.48C384.475 292.576 384.439 292.684 384.403 292.804C384.367 292.924 384.349 293.044 384.349 293.164L390.919 293.146V295H382.045V294.064C382.045 293.392 382.135 292.798 382.315 292.282C382.507 291.754 382.837 291.274 383.305 290.842C383.785 290.398 384.157 290.086 384.421 289.906C384.685 289.714 385.153 289.42 385.825 289.024C385.885 288.976 385.933 288.94 385.969 288.916C386.017 288.892 386.065 288.868 386.113 288.844C387.121 288.256 387.769 287.83 388.057 287.566C388.537 287.098 388.777 286.576 388.777 286C388.777 285.472 388.561 285.07 388.129 284.794C387.709 284.518 387.115 284.38 386.347 284.38C385.015 284.38 383.719 284.836 382.459 285.748V283.768Z" fill="#37376D"/>
<path d="M518.286 295H516.108L521.436 282.4H523.686L528.996 295H526.836L525.72 292.282H519.402L518.286 295ZM522.318 285.1L520.104 290.482H525L522.786 285.1C522.69 284.836 522.612 284.602 522.552 284.398C522.492 284.602 522.414 284.836 522.318 285.1ZM532.228 295H530.302V286.36H532.228V289.834H536.548V286.36H538.474V295H536.548V291.526H532.228V295ZM548.246 293.002C548.246 293.422 548.456 293.632 548.876 293.632C549.02 293.632 549.212 293.596 549.452 293.524V294.91C549.092 295.054 548.684 295.126 548.228 295.126C547.364 295.126 546.788 294.79 546.5 294.118C545.576 294.862 544.49 295.234 543.242 295.234C542.402 295.234 541.688 295.006 541.1 294.55C540.512 294.082 540.218 293.428 540.218 292.588C540.218 291.58 540.596 290.848 541.352 290.392C542.108 289.924 543.014 289.69 544.07 289.69C544.766 289.69 545.516 289.774 546.32 289.942V289.636C546.32 289.084 546.122 288.64 545.726 288.304C545.33 287.968 544.772 287.8 544.052 287.8C542.984 287.8 541.946 288.022 540.938 288.466V286.702C542.066 286.318 543.17 286.126 544.25 286.126C545.51 286.126 546.488 286.438 547.184 287.062C547.892 287.686 548.246 288.634 548.246 289.906V293.002ZM544.448 291.04C543.812 291.04 543.278 291.154 542.846 291.382C542.414 291.61 542.198 291.97 542.198 292.462C542.198 292.87 542.354 293.188 542.666 293.416C542.978 293.632 543.362 293.74 543.818 293.74C544.802 293.74 545.636 293.398 546.32 292.714V291.256C545.624 291.112 545 291.04 544.448 291.04ZM554.341 287.998C554.269 289.126 554.173 290.092 554.053 290.896C553.933 291.7 553.753 292.444 553.513 293.128C553.273 293.8 552.955 294.31 552.559 294.658C552.175 294.994 551.701 295.162 551.137 295.162C550.765 295.162 550.369 295.084 549.949 294.928V293.416C550.153 293.488 550.339 293.524 550.507 293.524C551.191 293.524 551.671 292.93 551.947 291.742C552.235 290.542 552.427 288.748 552.523 286.36H559.183V295H557.257V287.998H554.341ZM562.419 294.028C561.507 293.224 561.051 292.108 561.051 290.68C561.051 289.252 561.507 288.136 562.419 287.332C563.343 286.528 564.447 286.126 565.731 286.126C567.027 286.126 568.131 286.528 569.043 287.332C569.955 288.136 570.411 289.252 570.411 290.68C570.411 292.108 569.955 293.224 569.043 294.028C568.131 294.832 567.027 295.234 565.731 295.234C564.447 295.234 563.343 294.832 562.419 294.028ZM567.693 292.714C568.197 292.198 568.449 291.52 568.449 290.68C568.449 289.84 568.197 289.168 567.693 288.664C567.189 288.148 566.535 287.89 565.731 287.89C564.915 287.89 564.255 288.148 563.751 288.664C563.247 289.168 562.995 289.84 562.995 290.68C562.995 291.52 563.247 292.198 563.751 292.714C564.255 293.218 564.915 293.47 565.731 293.47C566.535 293.47 567.189 293.218 567.693 292.714ZM574.204 295H572.278V286.36H578.722V288.052H574.204V295ZM592.595 285.874C592.595 286.51 592.427 287.068 592.091 287.548C591.767 288.028 591.329 288.358 590.777 288.538C591.437 288.742 591.989 289.102 592.433 289.618C592.877 290.134 593.099 290.818 593.099 291.67C593.099 292.834 592.655 293.722 591.767 294.334C590.879 294.934 589.763 295.234 588.419 295.234C586.847 295.234 585.431 294.964 584.171 294.424V292.444C585.347 293.092 586.709 293.404 588.257 293.38C590.177 293.356 591.137 292.714 591.137 291.454C591.137 290.23 590.273 289.618 588.545 289.618H586.601V287.764L588.311 287.782C589.055 287.782 589.625 287.638 590.021 287.35C590.429 287.05 590.633 286.642 590.633 286.126C590.633 285.574 590.405 285.148 589.949 284.848C589.505 284.536 588.869 284.38 588.041 284.38C586.769 284.38 585.551 284.716 584.387 285.388V283.426C585.527 282.826 586.835 282.526 588.311 282.526C589.595 282.526 590.627 282.826 591.407 283.426C592.199 284.026 592.595 284.842 592.595 285.874Z" fill="#37376D"/>
<path d="M116.286 295H114.108L119.436 282.4H121.686L126.996 295H124.836L123.72 292.282H117.402L116.286 295ZM120.318 285.1L118.104 290.482H123L120.786 285.1C120.69 284.836 120.612 284.602 120.552 284.398C120.492 284.602 120.414 284.836 120.318 285.1ZM130.228 295H128.302V286.36H130.228V289.834H134.548V286.36H136.474V295H134.548V291.526H130.228V295ZM146.246 293.002C146.246 293.422 146.456 293.632 146.876 293.632C147.02 293.632 147.212 293.596 147.452 293.524V294.91C147.092 295.054 146.684 295.126 146.228 295.126C145.364 295.126 144.788 294.79 144.5 294.118C143.576 294.862 142.49 295.234 141.242 295.234C140.402 295.234 139.688 295.006 139.1 294.55C138.512 294.082 138.218 293.428 138.218 292.588C138.218 291.58 138.596 290.848 139.352 290.392C140.108 289.924 141.014 289.69 142.07 289.69C142.766 289.69 143.516 289.774 144.32 289.942V289.636C144.32 289.084 144.122 288.64 143.726 288.304C143.33 287.968 142.772 287.8 142.052 287.8C140.984 287.8 139.946 288.022 138.938 288.466V286.702C140.066 286.318 141.17 286.126 142.25 286.126C143.51 286.126 144.488 286.438 145.184 287.062C145.892 287.686 146.246 288.634 146.246 289.906V293.002ZM142.448 291.04C141.812 291.04 141.278 291.154 140.846 291.382C140.414 291.61 140.198 291.97 140.198 292.462C140.198 292.87 140.354 293.188 140.666 293.416C140.978 293.632 141.362 293.74 141.818 293.74C142.802 293.74 143.636 293.398 144.32 292.714V291.256C143.624 291.112 143 291.04 142.448 291.04ZM152.341 287.998C152.269 289.126 152.173 290.092 152.053 290.896C151.933 291.7 151.753 292.444 151.513 293.128C151.273 293.8 150.955 294.31 150.559 294.658C150.175 294.994 149.701 295.162 149.137 295.162C148.765 295.162 148.369 295.084 147.949 294.928V293.416C148.153 293.488 148.339 293.524 148.507 293.524C149.191 293.524 149.671 292.93 149.947 291.742C150.235 290.542 150.427 288.748 150.523 286.36H157.183V295H155.257V287.998H152.341ZM160.419 294.028C159.507 293.224 159.051 292.108 159.051 290.68C159.051 289.252 159.507 288.136 160.419 287.332C161.343 286.528 162.447 286.126 163.731 286.126C165.027 286.126 166.131 286.528 167.043 287.332C167.955 288.136 168.411 289.252 168.411 290.68C168.411 292.108 167.955 293.224 167.043 294.028C166.131 294.832 165.027 295.234 163.731 295.234C162.447 295.234 161.343 294.832 160.419 294.028ZM165.693 292.714C166.197 292.198 166.449 291.52 166.449 290.68C166.449 289.84 166.197 289.168 165.693 288.664C165.189 288.148 164.535 287.89 163.731 287.89C162.915 287.89 162.255 288.148 161.751 288.664C161.247 289.168 160.995 289.84 160.995 290.68C160.995 291.52 161.247 292.198 161.751 292.714C162.255 293.218 162.915 293.47 163.731 293.47C164.535 293.47 165.189 293.218 165.693 292.714ZM172.204 295H170.278V286.36H176.722V288.052H172.204V295ZM185.177 282.76H186.689V293.146H188.867V295H182.207V293.146H184.655V284.866L182.207 285.784V283.894L185.177 282.76Z" fill="#37376D"/>
<path d="M309.53 117.4H314.858C316.202 117.4 317.258 117.67 318.026 118.21C318.794 118.75 319.178 119.542 319.178 120.586C319.178 121.306 318.992 121.906 318.62 122.386C318.248 122.854 317.774 123.178 317.198 123.358C317.882 123.55 318.464 123.904 318.944 124.42C319.436 124.924 319.682 125.62 319.682 126.508C319.682 127.18 319.532 127.762 319.232 128.254C318.932 128.734 318.53 129.094 318.026 129.334C317.522 129.574 317.012 129.748 316.496 129.856C315.992 129.952 315.458 130 314.894 130H309.53V117.4ZM317.594 126.292C317.594 125.008 316.724 124.366 314.984 124.366H311.582V128.2H314.696C315.116 128.2 315.47 128.182 315.758 128.146C316.046 128.11 316.34 128.032 316.64 127.912C316.952 127.792 317.186 127.6 317.342 127.336C317.51 127.06 317.594 126.712 317.594 126.292ZM317.09 120.91C317.09 119.758 316.274 119.182 314.642 119.182H311.582V122.62L314.93 122.638C315.566 122.638 316.082 122.494 316.478 122.206C316.886 121.918 317.09 121.486 317.09 120.91ZM327.831 130H325.905V121.36H327.831V124.834H332.151V121.36H334.077V130H332.151V126.526H327.831V130ZM343.849 128.002C343.849 128.422 344.059 128.632 344.479 128.632C344.623 128.632 344.815 128.596 345.055 128.524V129.91C344.695 130.054 344.287 130.126 343.831 130.126C342.967 130.126 342.391 129.79 342.103 129.118C341.179 129.862 340.093 130.234 338.845 130.234C338.005 130.234 337.291 130.006 336.703 129.55C336.115 129.082 335.821 128.428 335.821 127.588C335.821 126.58 336.199 125.848 336.955 125.392C337.711 124.924 338.617 124.69 339.673 124.69C340.369 124.69 341.119 124.774 341.923 124.942V124.636C341.923 124.084 341.725 123.64 341.329 123.304C340.933 122.968 340.375 122.8 339.655 122.8C338.587 122.8 337.549 123.022 336.541 123.466V121.702C337.669 121.318 338.773 121.126 339.853 121.126C341.113 121.126 342.091 121.438 342.787 122.062C343.495 122.686 343.849 123.634 343.849 124.906V128.002ZM340.051 126.04C339.415 126.04 338.881 126.154 338.449 126.382C338.017 126.61 337.801 126.97 337.801 127.462C337.801 127.87 337.957 128.188 338.269 128.416C338.581 128.632 338.965 128.74 339.421 128.74C340.405 128.74 341.239 128.398 341.923 127.714V126.256C341.227 126.112 340.603 126.04 340.051 126.04ZM349.945 122.998C349.873 124.126 349.777 125.092 349.657 125.896C349.537 126.7 349.357 127.444 349.117 128.128C348.877 128.8 348.559 129.31 348.163 129.658C347.779 129.994 347.305 130.162 346.741 130.162C346.369 130.162 345.973 130.084 345.553 129.928V128.416C345.757 128.488 345.943 128.524 346.111 128.524C346.795 128.524 347.275 127.93 347.551 126.742C347.839 125.542 348.031 123.748 348.127 121.36H354.787V130H352.861V122.998H349.945ZM358.85 130H357.194V121.36H359.12V127.012L363.746 121.36H365.402V130H363.476V124.348L358.85 130ZM374.975 130H373.049V127.138C372.293 127.414 371.489 127.552 370.637 127.552C369.629 127.552 368.819 127.288 368.207 126.76C367.595 126.22 367.289 125.428 367.289 124.384V121.36H369.215V124.222C369.215 124.822 369.383 125.248 369.719 125.5C370.055 125.74 370.547 125.86 371.195 125.86C371.855 125.86 372.473 125.752 373.049 125.536V121.36H374.975V130ZM379.048 130H377.392V121.36H379.318V127.012L383.944 121.36H385.6V130H383.674V124.348L379.048 130ZM389.665 130H388.009V121.36H389.935V127.012L394.561 121.36H396.217V130H394.291V124.348L389.665 130Z" fill="white"/>
<path d="M312.35 313.58C312.35 314.456 312.086 315.182 311.558 315.758C311.03 316.322 310.4 316.712 309.668 316.928C308.948 317.132 308.15 317.234 307.274 317.234C305.666 317.234 304.142 316.964 302.702 316.424V314.426C303.998 315.05 305.468 315.35 307.112 315.326C309.212 315.326 310.262 314.66 310.262 313.328C310.262 312.056 309.308 311.42 307.4 311.42H304.7V309.548H307.22C308 309.548 308.618 309.404 309.074 309.116C309.53 308.816 309.758 308.39 309.758 307.838C309.758 306.662 308.792 306.074 306.86 306.074C305.564 306.05 304.25 306.356 302.918 306.992V304.976C304.202 304.436 305.57 304.166 307.022 304.166C308.486 304.166 309.656 304.454 310.532 305.03C311.408 305.606 311.846 306.446 311.846 307.55C311.846 308.258 311.66 308.858 311.288 309.35C310.916 309.83 310.418 310.172 309.794 310.376C310.502 310.544 311.102 310.898 311.594 311.438C312.098 311.966 312.35 312.68 312.35 313.58ZM321.677 315.002C321.677 315.422 321.887 315.632 322.307 315.632C322.451 315.632 322.643 315.596 322.883 315.524V316.91C322.523 317.054 322.115 317.126 321.659 317.126C320.795 317.126 320.219 316.79 319.931 316.118C319.007 316.862 317.921 317.234 316.673 317.234C315.833 317.234 315.119 317.006 314.531 316.55C313.943 316.082 313.649 315.428 313.649 314.588C313.649 313.58 314.027 312.848 314.783 312.392C315.539 311.924 316.445 311.69 317.501 311.69C318.197 311.69 318.947 311.774 319.751 311.942V311.636C319.751 311.084 319.553 310.64 319.157 310.304C318.761 309.968 318.203 309.8 317.483 309.8C316.415 309.8 315.377 310.022 314.369 310.466V308.702C315.497 308.318 316.601 308.126 317.681 308.126C318.941 308.126 319.919 308.438 320.615 309.062C321.323 309.686 321.677 310.634 321.677 311.906V315.002ZM317.879 313.04C317.243 313.04 316.709 313.154 316.277 313.382C315.845 313.61 315.629 313.97 315.629 314.462C315.629 314.87 315.785 315.188 316.097 315.416C316.409 315.632 316.793 315.74 317.249 315.74C318.233 315.74 319.067 315.398 319.751 314.714V313.256C319.055 313.112 318.431 313.04 317.879 313.04ZM326.261 317H324.335V308.36H326.261V311.78H327.683L330.167 308.36H332.363L329.231 312.644L332.705 317H330.491L327.647 313.418H326.261V317ZM334.356 316.028C333.444 315.224 332.988 314.108 332.988 312.68C332.988 311.252 333.444 310.136 334.356 309.332C335.28 308.528 336.384 308.126 337.668 308.126C338.964 308.126 340.068 308.528 340.98 309.332C341.892 310.136 342.348 311.252 342.348 312.68C342.348 314.108 341.892 315.224 340.98 316.028C340.068 316.832 338.964 317.234 337.668 317.234C336.384 317.234 335.28 316.832 334.356 316.028ZM339.63 314.714C340.134 314.198 340.386 313.52 340.386 312.68C340.386 311.84 340.134 311.168 339.63 310.664C339.126 310.148 338.472 309.89 337.668 309.89C336.852 309.89 336.192 310.148 335.688 310.664C335.184 311.168 334.932 311.84 334.932 312.68C334.932 313.52 335.184 314.198 335.688 314.714C336.192 315.218 336.852 315.47 337.668 315.47C338.472 315.47 339.126 315.218 339.63 314.714ZM346.142 317H344.216V308.36H346.142V311.834H350.462V308.36H352.388V317H350.462V313.526H346.142V317ZM361.962 317H360.036V314.138C359.28 314.414 358.476 314.552 357.624 314.552C356.616 314.552 355.806 314.288 355.194 313.76C354.582 313.22 354.276 312.428 354.276 311.384V308.36H356.202V311.222C356.202 311.822 356.37 312.248 356.706 312.5C357.042 312.74 357.534 312.86 358.182 312.86C358.842 312.86 359.46 312.752 360.036 312.536V308.36H361.962V317ZM366.034 317H364.378V308.36H366.304V314.012L370.93 308.36H372.586V317H370.66V311.348L366.034 317ZM378.433 309.998C378.361 311.126 378.265 312.092 378.145 312.896C378.025 313.7 377.845 314.444 377.605 315.128C377.365 315.8 377.047 316.31 376.651 316.658C376.267 316.994 375.793 317.162 375.229 317.162C374.857 317.162 374.461 317.084 374.041 316.928V315.416C374.245 315.488 374.431 315.524 374.599 315.524C375.283 315.524 375.763 314.93 376.039 313.742C376.327 312.542 376.519 310.748 376.615 308.36H383.275V317H381.349V309.998H378.433ZM385.143 312.752C385.143 311.252 385.617 310.106 386.565 309.314C387.513 308.522 388.629 308.126 389.913 308.126C390.945 308.126 391.833 308.348 392.577 308.792V310.556C391.905 310.076 391.107 309.836 390.183 309.836C389.331 309.836 388.605 310.076 388.005 310.556C387.405 311.024 387.105 311.732 387.105 312.68C387.105 313.604 387.399 314.312 387.987 314.804C388.587 315.284 389.307 315.524 390.147 315.524C391.059 315.524 391.899 315.302 392.667 314.858V316.64C391.839 317.036 390.885 317.234 389.805 317.234C388.545 317.234 387.453 316.85 386.529 316.082C385.605 315.302 385.143 314.192 385.143 312.752ZM396.035 317H393.821L396.197 313.958C395.585 313.742 395.111 313.394 394.775 312.914C394.439 312.434 394.271 311.888 394.271 311.276C394.271 310.448 394.565 309.758 395.153 309.206C395.753 308.642 396.569 308.36 397.601 308.36H402.065V317H400.139V314.174H398.177L396.035 317ZM396.683 310.322C396.383 310.55 396.233 310.874 396.233 311.294C396.233 311.714 396.383 312.044 396.683 312.284C396.983 312.512 397.397 312.626 397.925 312.626H400.139V309.962H397.925C397.397 309.962 396.983 310.082 396.683 310.322Z" fill="#F28100"/>
<path d="M511.53 304.4H516.858C518.202 304.4 519.258 304.67 520.026 305.21C520.794 305.75 521.178 306.542 521.178 307.586C521.178 308.306 520.992 308.906 520.62 309.386C520.248 309.854 519.774 310.178 519.198 310.358C519.882 310.55 520.464 310.904 520.944 311.42C521.436 311.924 521.682 312.62 521.682 313.508C521.682 314.18 521.532 314.762 521.232 315.254C520.932 315.734 520.53 316.094 520.026 316.334C519.522 316.574 519.012 316.748 518.496 316.856C517.992 316.952 517.458 317 516.894 317H511.53V304.4ZM519.594 313.292C519.594 312.008 518.724 311.366 516.984 311.366H513.582V315.2H516.696C517.116 315.2 517.47 315.182 517.758 315.146C518.046 315.11 518.34 315.032 518.64 314.912C518.952 314.792 519.186 314.6 519.342 314.336C519.51 314.06 519.594 313.712 519.594 313.292ZM519.09 307.91C519.09 306.758 518.274 306.182 516.642 306.182H513.582V309.62L516.93 309.638C517.566 309.638 518.082 309.494 518.478 309.206C518.886 308.918 519.09 308.486 519.09 307.91ZM529.831 317H527.905V308.36H529.831V311.834H534.151V308.36H536.077V317H534.151V313.526H529.831V317ZM545.849 315.002C545.849 315.422 546.059 315.632 546.479 315.632C546.623 315.632 546.815 315.596 547.055 315.524V316.91C546.695 317.054 546.287 317.126 545.831 317.126C544.967 317.126 544.391 316.79 544.103 316.118C543.179 316.862 542.093 317.234 540.845 317.234C540.005 317.234 539.291 317.006 538.703 316.55C538.115 316.082 537.821 315.428 537.821 314.588C537.821 313.58 538.199 312.848 538.955 312.392C539.711 311.924 540.617 311.69 541.673 311.69C542.369 311.69 543.119 311.774 543.923 311.942V311.636C543.923 311.084 543.725 310.64 543.329 310.304C542.933 309.968 542.375 309.8 541.655 309.8C540.587 309.8 539.549 310.022 538.541 310.466V308.702C539.669 308.318 540.773 308.126 541.853 308.126C543.113 308.126 544.091 308.438 544.787 309.062C545.495 309.686 545.849 310.634 545.849 311.906V315.002ZM542.051 313.04C541.415 313.04 540.881 313.154 540.449 313.382C540.017 313.61 539.801 313.97 539.801 314.462C539.801 314.87 539.957 315.188 540.269 315.416C540.581 315.632 540.965 315.74 541.421 315.74C542.405 315.74 543.239 315.398 543.923 314.714V313.256C543.227 313.112 542.603 313.04 542.051 313.04ZM551.945 309.998C551.873 311.126 551.777 312.092 551.657 312.896C551.537 313.7 551.357 314.444 551.117 315.128C550.877 315.8 550.559 316.31 550.163 316.658C549.779 316.994 549.305 317.162 548.741 317.162C548.369 317.162 547.973 317.084 547.553 316.928V315.416C547.757 315.488 547.943 315.524 548.111 315.524C548.795 315.524 549.275 314.93 549.551 313.742C549.839 312.542 550.031 310.748 550.127 308.36H556.787V317H554.861V309.998H551.945ZM560.85 317H559.194V308.36H561.12V314.012L565.746 308.36H567.402V317H565.476V311.348L560.85 317ZM576.975 317H575.049V314.138C574.293 314.414 573.489 314.552 572.637 314.552C571.629 314.552 570.819 314.288 570.207 313.76C569.595 313.22 569.289 312.428 569.289 311.384V308.36H571.215V311.222C571.215 311.822 571.383 312.248 571.719 312.5C572.055 312.74 572.547 312.86 573.195 312.86C573.855 312.86 574.473 312.752 575.049 312.536V308.36H576.975V317ZM581.048 317H579.392V308.36H581.318V314.012L585.944 308.36H587.6V317H585.674V311.348L581.048 317ZM591.665 317H590.009V308.36H591.935V314.012L596.561 308.36H598.217V317H596.291V311.348L591.665 317Z" fill="#0FA7F0"/>
<path d="M116.224 304.4H118.276V317H116.224V311.636H109.582V317H107.53V304.4H109.582V309.746H116.224V304.4ZM120.254 312.68C120.254 311.936 120.386 311.264 120.65 310.664C120.914 310.052 121.262 309.572 121.694 309.224C122.126 308.864 122.594 308.594 123.098 308.414C123.602 308.222 124.112 308.126 124.628 308.126C125.288 308.126 125.882 308.228 126.41 308.432C126.95 308.636 127.382 308.912 127.706 309.26C128.03 309.608 128.294 310.01 128.498 310.466C128.702 310.922 128.81 311.402 128.822 311.906C128.834 312.398 128.792 312.896 128.696 313.4H122.198C122.294 314.132 122.654 314.684 123.278 315.056C123.902 315.416 124.646 315.596 125.51 315.596C126.494 315.596 127.406 315.392 128.246 314.984V316.64C127.418 317.036 126.386 317.234 125.15 317.234C123.746 317.234 122.576 316.838 121.64 316.046C120.716 315.254 120.254 314.132 120.254 312.68ZM126.968 311.96C127.04 311.468 126.89 310.976 126.518 310.484C126.158 309.98 125.558 309.728 124.718 309.728C124.034 309.728 123.446 309.926 122.954 310.322C122.474 310.718 122.216 311.264 122.18 311.96H126.968ZM136.8 317H134.874V308.36H136.8V311.834H141.12V308.36H143.046V317H141.12V313.526H136.8V317ZM152.818 315.002C152.818 315.422 153.028 315.632 153.448 315.632C153.592 315.632 153.784 315.596 154.024 315.524V316.91C153.664 317.054 153.256 317.126 152.8 317.126C151.936 317.126 151.36 316.79 151.072 316.118C150.148 316.862 149.062 317.234 147.814 317.234C146.974 317.234 146.26 317.006 145.672 316.55C145.084 316.082 144.79 315.428 144.79 314.588C144.79 313.58 145.168 312.848 145.924 312.392C146.68 311.924 147.586 311.69 148.642 311.69C149.338 311.69 150.088 311.774 150.892 311.942V311.636C150.892 311.084 150.694 310.64 150.298 310.304C149.902 309.968 149.344 309.8 148.624 309.8C147.556 309.8 146.518 310.022 145.51 310.466V308.702C146.638 308.318 147.742 308.126 148.822 308.126C150.082 308.126 151.06 308.438 151.756 309.062C152.464 309.686 152.818 310.634 152.818 311.906V315.002ZM149.02 313.04C148.384 313.04 147.85 313.154 147.418 313.382C146.986 313.61 146.77 313.97 146.77 314.462C146.77 314.87 146.926 315.188 147.238 315.416C147.55 315.632 147.934 315.74 148.39 315.74C149.374 315.74 150.208 315.398 150.892 314.714V313.256C150.196 313.112 149.572 313.04 149.02 313.04ZM162.208 306.416C161.488 306.908 160.612 307.154 159.58 307.154C158.548 307.154 157.672 306.908 156.952 306.416V304.85C157.756 305.354 158.632 305.606 159.58 305.606C160.528 305.606 161.404 305.354 162.208 304.85V306.416ZM157.132 317H155.476V308.36H157.402V314.012L162.028 308.36H163.684V317H161.758V311.348L157.132 317ZM167.137 319.322H165.319V315.416H166.507C167.455 313.736 167.911 311.384 167.875 308.36H174.625V315.416H175.903V319.322H174.085V317H167.137V319.322ZM169.675 309.944C169.603 312.104 169.219 313.928 168.523 315.416H172.681V309.944H169.675ZM176.943 312.68C176.943 311.936 177.075 311.264 177.339 310.664C177.603 310.052 177.951 309.572 178.383 309.224C178.815 308.864 179.283 308.594 179.787 308.414C180.291 308.222 180.801 308.126 181.317 308.126C181.977 308.126 182.571 308.228 183.099 308.432C183.639 308.636 184.071 308.912 184.395 309.26C184.719 309.608 184.983 310.01 185.187 310.466C185.391 310.922 185.499 311.402 185.511 311.906C185.523 312.398 185.481 312.896 185.385 313.4H178.887C178.983 314.132 179.343 314.684 179.967 315.056C180.591 315.416 181.335 315.596 182.199 315.596C183.183 315.596 184.095 315.392 184.935 314.984V316.64C184.107 317.036 183.075 317.234 181.839 317.234C180.435 317.234 179.265 316.838 178.329 316.046C177.405 315.254 176.943 314.132 176.943 312.68ZM183.657 311.96C183.729 311.468 183.579 310.976 183.207 310.484C182.847 309.98 182.247 309.728 181.407 309.728C180.723 309.728 180.135 309.926 179.643 310.322C179.163 310.718 178.905 311.264 178.869 311.96H183.657ZM189.236 317H187.31V308.36H189.236V311.834H193.556V308.36H195.482V317H193.556V313.526H189.236V317Z" fill="#9B9BB6"/>
<path d="M555 258V213C555 210.239 552.761 208 550 208H157C154.239 208 152 210.239 152 213V258" stroke="#DDDDE6"/>
<line x1="354.5" y1="158" x2="354.5" y2="258" stroke="#DDDDE6"/>
<circle cx="152" cy="259" r="5.5" fill="white" stroke="#DDDDE6"/>
<circle cx="354" cy="259" r="5.5" fill="white" stroke="#DDDDE6"/>
<circle cx="555" cy="259" r="5.5" fill="white" stroke="#DDDDE6"/>
<defs>
<filter id="filter0_b" x="0" y="0" width="719" height="423" filterUnits="userSpaceOnUse" color-interpolation-filters="sRGB">
<feFlood flood-opacity="0" result="BackgroundImageFix"/>
<feColorMatrix in="SourceAlpha" type="matrix" values="0 0 0 0 0 0 0 0 0 0 0 0 0 0 0 0 0 0 127 0" result="hardAlpha"/>
<feOffset dy="4"/>
<feGaussianBlur stdDeviation="25"/>
<feComposite in2="hardAlpha" operator="out"/>
<feColorMatrix type="matrix" values="0 0 0 0 0 0 0 0 0 0 0 0 0 0 0 0 0 0 0.1 0"/>
<feBlend mode="normal" in2="BackgroundImageFix" result="effect1_dropShadow"/>
<feBlend mode="normal" in="SourceGraphic" in2="effect1_dropShadow" result="shape"/>
</filter>
</defs>
</svg>
