<svg width="719" height="423" viewBox="0 0 719 423" fill="none" xmlns="http://www.w3.org/2000/svg">
<g filter="url(#filter0_d)">
<path d="M50 61C50 52.7157 56.7157 46 65 46H654C662.284 46 669 52.7157 669 61V354C669 362.284 662.284 369 654 369H65C56.7157 369 50 362.284 50 354V61Z" fill="white"/>
</g>
<path d="M113.765 103H112.127L117.617 90.3999H119.291L124.763 103H123.143L121.847 99.9579H115.061L113.765 103ZM118.247 92.4339L115.655 98.5539H121.253L118.643 92.4339C118.619 92.3739 118.553 92.2119 118.445 91.9479C118.337 92.2239 118.271 92.3859 118.247 92.4339Z" fill="#37376D"/>
<path d="M127.675 103H126.235V94.3599H127.675V98.0139H132.679V94.3599H134.119V103H132.679V99.3459H127.675V103Z" fill="#37376D"/>
<path d="M143.802 101.2C143.802 101.644 144.024 101.866 144.468 101.866C144.66 101.866 144.882 101.824 145.134 101.74V102.91C144.774 103.042 144.414 103.108 144.054 103.108C143.226 103.108 142.698 102.76 142.47 102.064C141.546 102.832 140.424 103.216 139.104 103.216C138.264 103.216 137.544 102.994 136.944 102.55C136.356 102.094 136.062 101.44 136.062 100.588C136.062 99.5679 136.44 98.8299 137.196 98.3739C137.964 97.9059 138.888 97.6719 139.968 97.6719C140.76 97.6719 141.558 97.7619 142.362 97.9419V97.6359C142.362 96.9759 142.146 96.4539 141.714 96.0699C141.282 95.6739 140.676 95.4759 139.896 95.4759C138.804 95.4759 137.754 95.6919 136.746 96.1239V94.7199C137.874 94.3359 138.972 94.1439 140.04 94.1439C141.216 94.1439 142.134 94.4619 142.794 95.0979C143.466 95.7219 143.802 96.6279 143.802 97.8159V101.2ZM137.538 100.516C137.538 100.996 137.718 101.362 138.078 101.614C138.45 101.854 138.894 101.974 139.41 101.974C140.598 101.974 141.582 101.554 142.362 100.714V99.1299C141.546 98.9619 140.814 98.8779 140.166 98.8779C139.434 98.8779 138.81 99.0099 138.294 99.2739C137.79 99.5259 137.538 99.9399 137.538 100.516Z" fill="#37376D"/>
<path d="M149.739 95.6919C149.679 96.6399 149.607 97.4679 149.523 98.1759C149.439 98.8839 149.319 99.5679 149.163 100.228C149.007 100.876 148.815 101.404 148.587 101.812C148.371 102.22 148.095 102.544 147.759 102.784C147.423 103.024 147.039 103.144 146.607 103.144C146.259 103.144 145.911 103.078 145.563 102.946V101.812C145.755 101.884 145.947 101.92 146.139 101.92C146.859 101.92 147.381 101.29 147.705 100.03C148.041 98.7579 148.251 96.8679 148.335 94.3599H154.689V103H153.249V95.6919H149.739Z" fill="#37376D"/>
<path d="M158.573 103H157.349V94.3599H158.789V100.678L164.081 94.3599H165.305V103H163.865V96.6819L158.573 103Z" fill="#37376D"/>
<path d="M174.428 100.678C174.428 101.482 174.08 102.106 173.384 102.55C172.7 102.994 171.752 103.216 170.54 103.216C169.328 103.216 168.266 102.994 167.354 102.55V101.182C168.23 101.65 169.232 101.884 170.36 101.884C172.112 101.884 172.988 101.428 172.988 100.516C172.988 99.6879 172.352 99.2739 171.08 99.2739H169.19V97.9419H171.08C172.232 97.9419 172.808 97.5699 172.808 96.8259C172.808 96.3699 172.592 96.0279 172.16 95.7999C171.728 95.5719 171.152 95.4579 170.432 95.4579C169.388 95.4579 168.41 95.6859 167.498 96.1419V94.7919C168.47 94.3479 169.502 94.1259 170.594 94.1259C171.77 94.1259 172.67 94.3539 173.294 94.8099C173.93 95.2539 174.248 95.8599 174.248 96.6279C174.248 97.1439 174.104 97.5699 173.816 97.9059C173.528 98.2419 173.138 98.4639 172.646 98.5719C173.162 98.7039 173.588 98.9559 173.924 99.3279C174.26 99.6999 174.428 100.15 174.428 100.678Z" fill="#37376D"/>
<path d="M177.768 103H176.544V94.3599H177.984V100.678L183.276 94.3599H184.5V103H183.06V96.6819L177.768 103Z" fill="#37376D"/>
<path d="M188.457 95.7999C189.429 94.6959 190.593 94.1439 191.949 94.1439C193.185 94.1439 194.211 94.5759 195.027 95.4399C195.855 96.3039 196.269 97.3839 196.269 98.6799C196.269 99.9759 195.855 101.056 195.027 101.92C194.211 102.784 193.185 103.216 191.949 103.216C190.581 103.216 189.465 102.712 188.601 101.704V106.96H187.161V94.3599H188.457V95.7999ZM193.947 101.002C194.535 100.414 194.829 99.6399 194.829 98.6799C194.829 97.7199 194.535 96.9459 193.947 96.3579C193.371 95.7699 192.651 95.4759 191.787 95.4759C191.055 95.4759 190.407 95.6799 189.843 96.0879C189.279 96.4959 188.865 96.9999 188.601 97.5999V99.7599C188.865 100.36 189.279 100.864 189.843 101.272C190.407 101.68 191.055 101.884 191.787 101.884C192.651 101.884 193.371 101.59 193.947 101.002Z" fill="#37376D"/>
<path d="M199.115 102.01C198.203 101.194 197.747 100.084 197.747 98.6799C197.747 97.2759 198.203 96.1719 199.115 95.3679C200.027 94.5519 201.107 94.1439 202.355 94.1439C203.615 94.1439 204.695 94.5519 205.595 95.3679C206.507 96.1719 206.963 97.2759 206.963 98.6799C206.963 100.084 206.507 101.194 205.595 102.01C204.695 102.814 203.615 103.216 202.355 103.216C201.107 103.216 200.027 102.814 199.115 102.01ZM204.623 101.002C205.223 100.426 205.523 99.6519 205.523 98.6799C205.523 97.7079 205.223 96.9399 204.623 96.3759C204.023 95.7999 203.267 95.5119 202.355 95.5119C201.443 95.5119 200.687 95.7999 200.087 96.3759C199.487 96.9399 199.187 97.7079 199.187 98.6799C199.187 99.6519 199.487 100.426 200.087 101.002C200.687 101.566 201.443 101.848 202.355 101.848C203.267 101.848 204.023 101.566 204.623 101.002Z" fill="#37376D"/>
<path d="M213.906 103H209.028V94.3599H213.762C214.542 94.3599 215.178 94.5639 215.67 94.9719C216.174 95.3799 216.426 95.9559 216.426 96.6999C216.426 97.1319 216.318 97.5219 216.102 97.8699C215.886 98.2179 215.61 98.4639 215.274 98.6079C215.67 98.7399 216.006 98.9799 216.282 99.3279C216.558 99.6759 216.696 100.102 216.696 100.606C216.696 101.338 216.456 101.92 215.976 102.352C215.508 102.784 214.818 103 213.906 103ZM210.468 99.2559V101.74H213.708C214.74 101.74 215.256 101.332 215.256 100.516C215.256 99.6759 214.758 99.2559 213.762 99.2559H210.468ZM210.468 95.6199V98.0139H213.618C214.518 98.0139 214.968 97.6239 214.968 96.8439C214.968 96.3999 214.836 96.0879 214.572 95.9079C214.308 95.7159 213.99 95.6199 213.618 95.6199H210.468Z" fill="#37376D"/>
<path d="M225.91 101.2C225.91 101.644 226.132 101.866 226.576 101.866C226.768 101.866 226.99 101.824 227.242 101.74V102.91C226.882 103.042 226.522 103.108 226.162 103.108C225.334 103.108 224.806 102.76 224.578 102.064C223.654 102.832 222.532 103.216 221.212 103.216C220.372 103.216 219.652 102.994 219.052 102.55C218.464 102.094 218.17 101.44 218.17 100.588C218.17 99.5679 218.548 98.8299 219.304 98.3739C220.072 97.9059 220.996 97.6719 222.076 97.6719C222.868 97.6719 223.666 97.7619 224.47 97.9419V97.6359C224.47 96.9759 224.254 96.4539 223.822 96.0699C223.39 95.6739 222.784 95.4759 222.004 95.4759C220.912 95.4759 219.862 95.6919 218.854 96.1239V94.7199C219.982 94.3359 221.08 94.1439 222.148 94.1439C223.324 94.1439 224.242 94.4619 224.902 95.0979C225.574 95.7219 225.91 96.6279 225.91 97.8159V101.2ZM219.646 100.516C219.646 100.996 219.826 101.362 220.186 101.614C220.558 101.854 221.002 101.974 221.518 101.974C222.706 101.974 223.69 101.554 224.47 100.714V99.1299C223.654 98.9619 222.922 98.8779 222.274 98.8779C221.542 98.8779 220.918 99.0099 220.402 99.2739C219.898 99.5259 219.646 99.9399 219.646 100.516Z" fill="#37376D"/>
<path d="M231.982 103H230.542V95.6919H227.356V94.3599H235.15V95.6919H231.982V103Z" fill="#37376D"/>
<path d="M240.888 103H236.784V94.3599H238.224V97.3839H240.888C241.92 97.3839 242.736 97.6479 243.336 98.1759C243.936 98.7039 244.236 99.3759 244.236 100.192C244.236 101.008 243.936 101.68 243.336 102.208C242.736 102.736 241.92 103 240.888 103ZM238.224 98.6799V101.704H240.708C241.356 101.704 241.86 101.578 242.22 101.326C242.592 101.074 242.778 100.696 242.778 100.192C242.778 99.6879 242.592 99.3099 242.22 99.0579C241.86 98.8059 241.356 98.6799 240.708 98.6799H238.224Z" fill="#37376D"/>
<path d="M251.105 105.34H249.701V101.704H250.853C251.873 99.9039 252.365 97.4559 252.329 94.3599H258.773V101.704H260.033V105.34H258.629V103H251.105V105.34ZM253.715 95.6559C253.655 98.0199 253.223 100.036 252.419 101.704H257.333V95.6559H253.715Z" fill="#37376D"/>
<path d="M268.976 101.2C268.976 101.644 269.198 101.866 269.642 101.866C269.834 101.866 270.056 101.824 270.308 101.74V102.91C269.948 103.042 269.588 103.108 269.228 103.108C268.4 103.108 267.872 102.76 267.644 102.064C266.72 102.832 265.598 103.216 264.278 103.216C263.438 103.216 262.718 102.994 262.118 102.55C261.53 102.094 261.236 101.44 261.236 100.588C261.236 99.5679 261.614 98.8299 262.37 98.3739C263.138 97.9059 264.062 97.6719 265.142 97.6719C265.934 97.6719 266.732 97.7619 267.536 97.9419V97.6359C267.536 96.9759 267.32 96.4539 266.888 96.0699C266.456 95.6739 265.85 95.4759 265.07 95.4759C263.978 95.4759 262.928 95.6919 261.92 96.1239V94.7199C263.048 94.3359 264.146 94.1439 265.214 94.1439C266.39 94.1439 267.308 94.4619 267.968 95.0979C268.64 95.7219 268.976 96.6279 268.976 97.8159V101.2ZM262.712 100.516C262.712 100.996 262.892 101.362 263.252 101.614C263.624 101.854 264.068 101.974 264.584 101.974C265.772 101.974 266.756 101.554 267.536 100.714V99.1299C266.72 98.9619 265.988 98.8779 265.34 98.8779C264.608 98.8779 263.984 99.0099 263.468 99.2739C262.964 99.5259 262.712 99.9399 262.712 100.516Z" fill="#37376D"/>
<path d="M273.292 103H271.852V94.3599H273.292V98.0139H278.296V94.3599H279.736V103H278.296V99.3459H273.292V103Z" fill="#37376D"/>
<path d="M283.839 103H282.399V94.3599H283.839V98.0139H288.843V94.3599H290.283V103H288.843V99.3459H283.839V103Z" fill="#37376D"/>
<path d="M297.05 103H292.946V94.3599H294.386V97.3839H297.05C298.082 97.3839 298.898 97.6479 299.498 98.1759C300.098 98.7039 300.398 99.3759 300.398 100.192C300.398 101.008 300.098 101.68 299.498 102.208C298.898 102.736 298.082 103 297.05 103ZM294.386 98.6799V101.704H296.87C297.518 101.704 298.022 101.578 298.382 101.326C298.754 101.074 298.94 100.696 298.94 100.192C298.94 99.6879 298.754 99.3099 298.382 99.0579C298.022 98.8059 297.518 98.6799 296.87 98.6799H294.386ZM303.512 103H302.072V94.3599H303.512V103Z" fill="#37376D"/>
<path d="M305.589 98.6799C305.589 97.2639 306.021 96.1539 306.885 95.3499C307.761 94.5459 308.763 94.1439 309.891 94.1439C310.947 94.1439 311.817 94.4079 312.501 94.9359C313.197 95.4639 313.653 96.1179 313.869 96.8979C314.085 97.6659 314.097 98.4699 313.905 99.3099H307.029C307.113 100.162 307.491 100.804 308.163 101.236C308.835 101.668 309.645 101.884 310.593 101.884C311.649 101.884 312.597 101.65 313.437 101.182V102.586C312.633 103.006 311.613 103.216 310.377 103.216C309.009 103.216 307.869 102.826 306.957 102.046C306.045 101.266 305.589 100.144 305.589 98.6799ZM312.627 98.0499C312.663 97.7979 312.645 97.5339 312.573 97.2579C312.501 96.9819 312.369 96.7059 312.177 96.4299C311.997 96.1539 311.715 95.9259 311.331 95.7459C310.947 95.5659 310.497 95.4759 309.981 95.4759C309.201 95.4759 308.523 95.7039 307.947 96.1599C307.383 96.6159 307.077 97.2459 307.029 98.0499H312.627Z" fill="#37376D"/>
<path d="M321.625 96.5379C322.789 95.7579 324.067 95.3679 325.459 95.3679C326.575 95.3679 327.553 95.7099 328.393 96.3939C329.233 97.0659 329.653 98.0019 329.653 99.2019C329.653 100.462 329.233 101.446 328.393 102.154C327.565 102.862 326.521 103.216 325.261 103.216C323.533 103.216 322.237 102.682 321.373 101.614C320.521 100.534 320.095 99.0219 320.095 97.0779C320.095 94.9179 320.605 93.2919 321.625 92.1999C322.657 91.0959 324.001 90.5439 325.657 90.5439C326.725 90.5439 327.715 90.7779 328.627 91.2459V92.6859C327.739 92.2179 326.761 91.9839 325.693 91.9839C324.565 91.9839 323.623 92.3499 322.867 93.0819C322.123 93.8019 321.709 94.9539 321.625 96.5379ZM321.643 98.0499C321.871 100.558 323.041 101.812 325.153 101.812C326.041 101.812 326.755 101.608 327.295 101.2C327.847 100.792 328.123 100.15 328.123 99.2739C328.123 98.3859 327.841 97.7499 327.277 97.3659C326.713 96.9699 325.981 96.7719 325.081 96.7719C323.749 96.7719 322.603 97.1979 321.643 98.0499Z" fill="#37376D"/>
<path d="M337.449 95.7999C338.421 94.6959 339.585 94.1439 340.941 94.1439C342.177 94.1439 343.203 94.5759 344.019 95.4399C344.847 96.3039 345.261 97.3839 345.261 98.6799C345.261 99.9759 344.847 101.056 344.019 101.92C343.203 102.784 342.177 103.216 340.941 103.216C339.573 103.216 338.457 102.712 337.593 101.704V106.96H336.153V94.3599H337.449V95.7999ZM342.939 101.002C343.527 100.414 343.821 99.6399 343.821 98.6799C343.821 97.7199 343.527 96.9459 342.939 96.3579C342.363 95.7699 341.643 95.4759 340.779 95.4759C340.047 95.4759 339.399 95.6799 338.835 96.0879C338.271 96.4959 337.857 96.9999 337.593 97.5999V99.7599C337.857 100.36 338.271 100.864 338.835 101.272C339.399 101.68 340.047 101.884 340.779 101.884C341.643 101.884 342.363 101.59 342.939 101.002Z" fill="#37376D"/>
<path d="M354.353 101.2C354.353 101.644 354.575 101.866 355.019 101.866C355.211 101.866 355.433 101.824 355.685 101.74V102.91C355.325 103.042 354.965 103.108 354.605 103.108C353.777 103.108 353.249 102.76 353.021 102.064C352.097 102.832 350.975 103.216 349.655 103.216C348.815 103.216 348.095 102.994 347.495 102.55C346.907 102.094 346.613 101.44 346.613 100.588C346.613 99.5679 346.991 98.8299 347.747 98.3739C348.515 97.9059 349.439 97.6719 350.519 97.6719C351.311 97.6719 352.109 97.7619 352.913 97.9419V97.6359C352.913 96.9759 352.697 96.4539 352.265 96.0699C351.833 95.6739 351.227 95.4759 350.447 95.4759C349.355 95.4759 348.305 95.6919 347.297 96.1239V94.7199C348.425 94.3359 349.523 94.1439 350.591 94.1439C351.767 94.1439 352.685 94.4619 353.345 95.0979C354.017 95.7219 354.353 96.6279 354.353 97.8159V101.2ZM348.089 100.516C348.089 100.996 348.269 101.362 348.629 101.614C349.001 101.854 349.445 101.974 349.961 101.974C351.149 101.974 352.133 101.554 352.913 100.714V99.1299C352.097 98.9619 351.365 98.8779 350.717 98.8779C349.985 98.8779 349.361 99.0099 348.845 99.2739C348.341 99.5259 348.089 99.9399 348.089 100.516Z" fill="#37376D"/>
<path d="M363.691 100.678C363.691 101.482 363.343 102.106 362.647 102.55C361.963 102.994 361.015 103.216 359.803 103.216C358.591 103.216 357.529 102.994 356.617 102.55V101.182C357.493 101.65 358.495 101.884 359.623 101.884C361.375 101.884 362.251 101.428 362.251 100.516C362.251 99.6879 361.615 99.2739 360.343 99.2739H358.453V97.9419H360.343C361.495 97.9419 362.071 97.5699 362.071 96.8259C362.071 96.3699 361.855 96.0279 361.423 95.7999C360.991 95.5719 360.415 95.4579 359.695 95.4579C358.651 95.4579 357.673 95.6859 356.761 96.1419V94.7919C357.733 94.3479 358.765 94.1259 359.857 94.1259C361.033 94.1259 361.933 94.3539 362.557 94.8099C363.193 95.2539 363.511 95.8599 363.511 96.6279C363.511 97.1439 363.367 97.5699 363.079 97.9059C362.791 98.2419 362.401 98.4639 361.909 98.5719C362.425 98.7039 362.851 98.9559 363.187 99.3279C363.523 99.6999 363.691 100.15 363.691 100.678Z" fill="#37376D"/>
<path d="M375.168 103H370.29V94.3599H375.024C375.804 94.3599 376.44 94.5639 376.932 94.9719C377.436 95.3799 377.688 95.9559 377.688 96.6999C377.688 97.1319 377.58 97.5219 377.364 97.8699C377.148 98.2179 376.872 98.4639 376.536 98.6079C376.932 98.7399 377.268 98.9799 377.544 99.3279C377.82 99.6759 377.958 100.102 377.958 100.606C377.958 101.338 377.718 101.92 377.238 102.352C376.77 102.784 376.08 103 375.168 103ZM371.73 99.2559V101.74H374.97C376.002 101.74 376.518 101.332 376.518 100.516C376.518 99.6759 376.02 99.2559 375.024 99.2559H371.73ZM371.73 95.6199V98.0139H374.88C375.78 98.0139 376.23 97.6239 376.23 96.8439C376.23 96.3999 376.098 96.0879 375.834 95.9079C375.57 95.7159 375.252 95.6199 374.88 95.6199H371.73Z" fill="#37376D"/>
<path d="M385.174 105.34H383.77V101.704H384.922C385.942 99.9039 386.434 97.4559 386.398 94.3599H392.842V101.704H394.102V105.34H392.698V103H385.174V105.34ZM387.784 95.6559C387.724 98.0199 387.292 100.036 386.488 101.704H391.402V95.6559H387.784Z" fill="#37376D"/>
<path d="M395.255 98.6799C395.255 97.2639 395.687 96.1539 396.551 95.3499C397.427 94.5459 398.429 94.1439 399.557 94.1439C400.613 94.1439 401.483 94.4079 402.167 94.9359C402.863 95.4639 403.319 96.1179 403.535 96.8979C403.751 97.6659 403.763 98.4699 403.571 99.3099H396.695C396.779 100.162 397.157 100.804 397.829 101.236C398.501 101.668 399.311 101.884 400.259 101.884C401.315 101.884 402.263 101.65 403.103 101.182V102.586C402.299 103.006 401.279 103.216 400.043 103.216C398.675 103.216 397.535 102.826 396.623 102.046C395.711 101.266 395.255 100.144 395.255 98.6799ZM402.293 98.0499C402.329 97.7979 402.311 97.5339 402.239 97.2579C402.167 96.9819 402.035 96.7059 401.843 96.4299C401.663 96.1539 401.381 95.9259 400.997 95.7459C400.613 95.5659 400.163 95.4759 399.647 95.4759C398.867 95.4759 398.189 95.7039 397.613 96.1599C397.049 96.6159 396.743 97.2459 396.695 98.0499H402.293Z" fill="#37376D"/>
<path d="M407.115 103H405.675V94.3599H407.115V98.0139H412.119V94.3599H413.559V103H412.119V99.3459H407.115V103Z" fill="#37376D"/>
<path d="M420.326 103H416.222V94.3599H417.662V97.3839H420.326C421.358 97.3839 422.174 97.6479 422.774 98.1759C423.374 98.7039 423.674 99.3759 423.674 100.192C423.674 101.008 423.374 101.68 422.774 102.208C422.174 102.736 421.358 103 420.326 103ZM417.662 98.6799V101.704H420.146C420.794 101.704 421.298 101.578 421.658 101.326C422.03 101.074 422.216 100.696 422.216 100.192C422.216 99.6879 422.03 99.3099 421.658 99.0579C421.298 98.8059 420.794 98.6799 420.146 98.6799H417.662Z" fill="#37376D"/>
<path fill-rule="evenodd" clip-rule="evenodd" d="M605 120.5L112 120.5L112 119.5L605 119.5L605 120.5Z" fill="black"/>
<path d="M601.165 101.75L597 98L605.33 98L601.165 101.75Z" fill="#000C2C"/>
<path opacity="0.6" d="M276 239C276 284.287 239.287 321 194 321C148.713 321 112 284.287 112 239C112 193.713 148.713 157 194 157C239.287 157 276 193.713 276 239Z" fill="#FFE264"/>
<path d="M276 239C276 258.362 269.149 277.099 256.66 291.894C244.171 306.689 226.849 316.588 207.762 319.837C188.675 323.087 169.054 319.477 152.373 309.648C135.692 299.82 123.026 284.405 116.62 266.134C110.213 247.863 110.478 227.915 117.367 209.821C124.257 191.726 137.327 176.654 154.264 167.271C171.2 157.889 190.91 154.802 209.904 158.557C228.898 162.312 245.951 172.668 258.042 187.789L194 239H276Z" fill="#F28100"/>
<path d="M276 239C276 256.72 270.26 273.963 259.639 288.148C249.019 302.332 234.089 312.695 217.085 317.683C200.082 322.672 181.92 322.019 165.32 315.821C148.719 309.623 134.572 298.214 124.999 283.303C115.425 268.392 110.939 250.781 112.212 233.107C113.486 215.433 120.45 198.647 132.063 185.262C143.675 171.878 159.311 162.615 176.629 158.861C193.947 155.107 212.015 157.064 228.127 164.439L194 239H276Z" fill="#0FA7F0"/>
<path opacity="0.6" d="M351 303.5C351 313.165 343.165 321 333.5 321C323.835 321 316 313.165 316 303.5C316 293.835 323.835 286 333.5 286C343.165 286 351 293.835 351 303.5Z" fill="#FFE264"/>
<path d="M351 303.5C351 307.632 349.538 311.631 346.873 314.788C344.207 317.946 340.511 320.058 336.437 320.752C332.364 321.445 328.176 320.675 324.616 318.577C321.056 316.48 318.353 313.19 316.986 309.291C315.619 305.392 315.675 301.134 317.145 297.273C318.616 293.411 321.405 290.194 325.02 288.192C328.634 286.19 332.841 285.531 336.894 286.332C340.948 287.134 344.587 289.344 347.168 292.571L333.5 303.5H351Z" fill="#F28100"/>
<path d="M351 303.5C351 305.798 350.547 308.074 349.668 310.197C348.788 312.32 347.499 314.249 345.874 315.874C344.249 317.499 342.32 318.788 340.197 319.668C338.074 320.547 335.798 321 333.5 321C331.202 321 328.926 320.547 326.803 319.668C324.68 318.788 322.751 317.499 321.126 315.874C319.501 314.249 318.212 312.32 317.332 310.197C316.453 308.074 316 305.798 316 303.5L333.5 303.5H351Z" fill="#0FA7F0"/>
<path opacity="0.6" d="M398.246 314.33C400.884 310.983 402.209 306.787 401.973 302.532C401.737 298.276 399.957 294.253 396.965 291.217C393.974 288.182 389.978 286.342 385.726 286.043C381.475 285.744 377.26 287.008 373.874 289.595C370.488 292.183 368.162 295.918 367.334 300.099C366.505 304.279 367.231 308.619 369.375 312.302C371.519 315.986 374.933 318.761 378.977 320.106C383.021 321.451 387.417 321.274 391.34 319.608L384.5 303.5L398.246 314.33Z" fill="#FFE264"/>
<path d="M402 303.5C402 307.959 400.298 312.25 397.241 315.497C394.184 318.743 390.003 320.7 385.552 320.968C381.101 321.236 376.716 319.795 373.291 316.939C369.867 314.083 367.662 310.027 367.127 305.601C366.591 301.174 367.766 296.709 370.411 293.119C373.056 289.53 376.972 287.085 381.359 286.284C385.745 285.484 390.272 286.388 394.015 288.813C397.757 291.237 400.433 294.999 401.496 299.329L384.5 303.5H402Z" fill="#F28100"/>
<path d="M402 303.5C402 306.961 400.974 310.345 399.051 313.222C397.128 316.1 394.395 318.343 391.197 319.668C387.999 320.992 384.481 321.339 381.086 320.664C377.691 319.989 374.573 318.322 372.126 315.874C369.678 313.427 368.012 310.309 367.336 306.914C366.661 303.519 367.008 300.001 368.332 296.803C369.657 293.605 371.9 290.872 374.778 288.949C377.655 287.026 381.039 286 384.5 286V303.5H402Z" fill="#0FA7F0"/>
<path opacity="0.6" d="M551.246 314.33C553.884 310.983 555.209 306.787 554.973 302.532C554.737 298.276 552.957 294.253 549.965 291.217C546.974 288.182 542.978 286.342 538.726 286.043C534.475 285.744 530.26 287.008 526.874 289.595C523.488 292.183 521.162 295.918 520.334 300.099C519.505 304.279 520.231 308.619 522.375 312.302C524.519 315.986 527.933 318.761 531.977 320.106C536.021 321.451 540.417 321.274 544.34 319.608L537.5 303.5L551.246 314.33Z" fill="#FFE264"/>
<path d="M555 303.5C555 307.549 553.596 311.472 551.028 314.602C548.459 317.732 544.885 319.874 540.914 320.664C536.943 321.454 532.821 320.842 529.251 318.934C525.68 317.025 522.881 313.938 521.332 310.197C519.783 306.456 519.578 302.294 520.754 298.42C521.929 294.546 524.411 291.199 527.778 288.949C531.144 286.7 535.186 285.687 539.215 286.084C543.245 286.481 547.011 288.263 549.874 291.126L537.5 303.5H555Z" fill="#F28100"/>
<path d="M555 303.5C555 306.961 553.974 310.345 552.051 313.222C550.128 316.1 547.395 318.343 544.197 319.668C540.999 320.992 537.481 321.339 534.086 320.664C530.691 319.989 527.573 318.322 525.126 315.874C522.678 313.427 521.012 310.309 520.336 306.914C519.661 303.519 520.008 300.001 521.332 296.803C522.657 293.605 524.9 290.872 527.778 288.949C530.655 287.026 534.039 286 537.5 286V303.5H555Z" fill="#0FA7F0"/>
<path opacity="0.6" d="M500.246 314.33C502.884 310.983 504.209 306.787 503.973 302.532C503.737 298.276 501.957 294.253 498.965 291.217C495.974 288.182 491.978 286.342 487.726 286.043C483.475 285.744 479.26 287.008 475.874 289.595C472.488 292.183 470.162 295.918 469.334 300.099C468.505 304.279 469.231 308.619 471.375 312.302C473.519 315.986 476.933 318.761 480.977 320.106C485.021 321.451 489.417 321.274 493.34 319.608L486.5 303.5L500.246 314.33Z" fill="#FFE264"/>
<path d="M504 303.5C504 307.176 502.842 310.76 500.691 313.741C498.539 316.722 495.504 318.95 492.014 320.109C488.525 321.267 484.76 321.297 481.252 320.195C477.745 319.092 474.674 316.913 472.475 313.967C470.276 311.02 469.061 307.456 469.002 303.78C468.943 300.104 470.044 296.503 472.147 293.488C474.251 290.472 477.25 288.196 480.72 286.982C484.191 285.768 487.955 285.677 491.48 286.723L486.5 303.5H504Z" fill="#F28100"/>
<path d="M504 303.5C504 306.961 502.974 310.345 501.051 313.222C499.128 316.1 496.395 318.343 493.197 319.668C489.999 320.992 486.481 321.339 483.086 320.664C479.691 319.989 476.573 318.322 474.126 315.874C471.678 313.427 470.012 310.309 469.336 306.914C468.661 303.519 469.008 300.001 470.332 296.803C471.657 293.605 473.9 290.872 476.778 288.949C479.655 287.026 483.039 286 486.5 286V303.5H504Z" fill="#0FA7F0"/>
<path opacity="0.6" d="M449.246 314.33C451.884 310.983 453.209 306.787 452.973 302.532C452.737 298.276 450.957 294.253 447.965 291.217C444.974 288.182 440.978 286.342 436.726 286.043C432.475 285.744 428.26 287.008 424.874 289.595C421.488 292.183 419.162 295.918 418.334 300.099C417.505 304.279 418.231 308.619 420.375 312.302C422.519 315.986 425.933 318.761 429.977 320.106C434.021 321.451 438.417 321.274 442.34 319.608L435.5 303.5L449.246 314.33Z" fill="#FFE264"/>
<path d="M453 303.5C453 306.961 451.974 310.345 450.051 313.222C448.128 316.1 445.395 318.343 442.197 319.668C438.999 320.992 435.481 321.339 432.086 320.664C428.691 319.989 425.573 318.322 423.126 315.874C420.678 313.427 419.012 310.309 418.336 306.914C417.661 303.519 418.008 300.001 419.332 296.803C420.657 293.605 422.9 290.872 425.778 288.949C428.655 287.026 432.039 286 435.5 286V303.5H453Z" fill="#F28100"/>
<path d="M449.845 313.524C447.862 316.361 445.083 318.547 441.858 319.804C438.633 321.062 435.108 321.335 431.728 320.589C428.349 319.843 425.266 318.111 422.87 315.613C420.474 313.115 418.873 309.963 418.269 306.555C417.665 303.147 418.084 299.636 419.475 296.467C420.866 293.298 423.166 290.612 426.083 288.75C429.001 286.887 432.405 285.932 435.865 286.004C439.326 286.076 442.687 287.173 445.524 289.155L435.5 303.5L449.845 313.524Z" fill="#0FA7F0"/>
<path opacity="0.6" d="M603.379 312.712C605.623 309.088 606.467 304.77 605.753 300.568C605.039 296.366 602.816 292.57 599.501 289.89C596.187 287.211 592.009 285.834 587.75 286.016C583.492 286.199 579.447 287.929 576.374 290.882C573.301 293.835 571.412 297.808 571.06 302.056C570.708 306.303 571.918 310.533 574.464 313.951C577.009 317.37 580.714 319.742 584.884 320.622C589.054 321.503 593.402 320.832 597.112 318.734L588.5 303.5L603.379 312.712Z" fill="#FFE264"/>
<path d="M603.901 311.81C602.258 314.856 599.748 317.346 596.689 318.966C593.63 320.585 590.16 321.262 586.717 320.909C583.273 320.556 580.012 319.19 577.345 316.984C574.678 314.778 572.726 311.83 571.734 308.514C570.742 305.198 570.756 301.663 571.774 298.354C572.791 295.046 574.767 292.114 577.451 289.929C580.135 287.744 583.407 286.403 586.853 286.078C590.299 285.752 593.764 286.455 596.81 288.099L588.5 303.5L603.901 311.81Z" fill="#F28100"/>
<path d="M588.5 321C585.039 321 581.655 319.974 578.778 318.051C575.9 316.128 573.657 313.395 572.332 310.197C571.008 306.999 570.661 303.481 571.336 300.086C572.012 296.691 573.678 293.573 576.126 291.126C578.573 288.678 581.691 287.012 585.086 286.336C588.481 285.661 591.999 286.008 595.197 287.332C598.395 288.657 601.128 290.9 603.051 293.778C604.974 296.655 606 300.039 606 303.5L588.5 303.5V321Z" fill="#0FA7F0"/>
<path d="M316 224C316 222.895 316.895 222 318 222H327C328.105 222 329 222.895 329 224V257C329 258.105 328.105 259 327 259H318C316.895 259 316 258.105 316 257V224Z" fill="#0FA7F0"/>
<path d="M408 224C408 222.895 408.895 222 410 222H419C420.105 222 421 222.895 421 224V257C421 258.105 420.105 259 419 259H410C408.895 259 408 258.105 408 257V224Z" fill="#0FA7F0"/>
<path d="M339 224C339 222.895 339.895 222 341 222H350C351.105 222 352 222.895 352 224V257C352 258.105 351.105 259 350 259H341C339.895 259 339 258.105 339 257V224Z" fill="#0FA7F0"/>
<path d="M431 224C431 222.895 431.895 222 433 222H442C443.105 222 444 222.895 444 224V257C444 258.105 443.105 259 442 259H433C431.895 259 431 258.105 431 257V224Z" fill="#0FA7F0"/>
<path d="M500 224C500 222.895 500.895 222 502 222H511C512.105 222 513 222.895 513 224V257C513 258.105 512.105 259 511 259H502C500.895 259 500 258.105 500 257V224Z" fill="#0FA7F0"/>
<path d="M569 224C569 222.895 569.895 222 571 222H580C581.105 222 582 222.895 582 224V257C582 258.105 581.105 259 580 259H571C569.895 259 569 258.105 569 257V224Z" fill="#0FA7F0"/>
<path d="M592 224C592 222.895 592.895 222 594 222H603C604.105 222 605 222.895 605 224V257C605 258.105 604.105 259 603 259H594C592.895 259 592 258.105 592 257V224Z" fill="#0FA7F0"/>
<path d="M362 213C362 211.895 362.895 211 364 211H373C374.105 211 375 211.895 375 213V257C375 258.105 374.105 259 373 259H364C362.895 259 362 258.105 362 257V213Z" fill="#0FA7F0"/>
<path d="M454 213C454 211.895 454.895 211 456 211H465C466.105 211 467 211.895 467 213V257C467 258.105 466.105 259 465 259H456C454.895 259 454 258.105 454 257V213Z" fill="#0FA7F0"/>
<path d="M523 213C523 211.895 523.895 211 525 211H534C535.105 211 536 211.895 536 213V257C536 258.105 535.105 259 534 259H525C523.895 259 523 258.105 523 257V213Z" fill="#0FA7F0"/>
<path d="M546 213C546 211.895 546.895 211 548 211H557C558.105 211 559 211.895 559 213V257C559 258.105 558.105 259 557 259H548C546.895 259 546 258.105 546 257V213Z" fill="#0FA7F0"/>
<path d="M385 182C385 180.895 385.895 180 387 180H396C397.105 180 398 180.895 398 182V257C398 258.105 397.105 259 396 259H387C385.895 259 385 258.105 385 257V182Z" fill="#0FA7F0"/>
<path d="M477 182C477 180.895 477.895 180 479 180H488C489.105 180 490 180.895 490 182V257C490 258.105 489.105 259 488 259H479C477.895 259 477 258.105 477 257V182Z" fill="#0FA7F0"/>
<path d="M316 180C316 178.895 316.895 178 318 178H327C328.105 178 329 178.895 329 180V219C329 220.105 328.105 221 327 221H318C316.895 221 316 220.105 316 219V180Z" fill="#FFEEA2"/>
<path d="M408 180C408 178.895 408.895 178 410 178H419C420.105 178 421 178.895 421 180V219C421 220.105 420.105 221 419 221H410C408.895 221 408 220.105 408 219V180Z" fill="#FFEEA2"/>
<path d="M339 213C339 211.895 339.895 211 341 211H350C351.105 211 352 211.895 352 213V219C352 220.105 351.105 221 350 221H341C339.895 221 339 220.105 339 219V213Z" fill="#FFEEA2"/>
<path d="M431 213C431 211.895 431.895 211 433 211H442C443.105 211 444 211.895 444 213V219C444 220.105 443.105 221 442 221H433C431.895 221 431 220.105 431 219V213Z" fill="#FFEEA2"/>
<path d="M500 213C500 211.895 500.895 211 502 211H511C512.105 211 513 211.895 513 213V219C513 220.105 512.105 221 511 221H502C500.895 221 500 220.105 500 219V213Z" fill="#FFEEA2"/>
<path d="M569 213C569 211.895 569.895 211 571 211H580C581.105 211 582 211.895 582 213V219C582 220.105 581.105 221 580 221H571C569.895 221 569 220.105 569 219V213Z" fill="#FFEEA2"/>
<path d="M592 213C592 211.895 592.895 211 594 211H603C604.105 211 605 211.895 605 213V219C605 220.105 604.105 221 603 221H594C592.895 221 592 220.105 592 219V213Z" fill="#FFEEA2"/>
<path d="M362 171C362 169.895 362.895 169 364 169H373C374.105 169 375 169.895 375 171V208C375 209.105 374.105 210 373 210H364C362.895 210 362 209.105 362 208V171Z" fill="#FFEEA2"/>
<path d="M454 171C454 169.895 454.895 169 456 169H465C466.105 169 467 169.895 467 171V208C467 209.105 466.105 210 465 210H456C454.895 210 454 209.105 454 208V171Z" fill="#FFEEA2"/>
<path d="M523 171C523 169.895 523.895 169 525 169H534C535.105 169 536 169.895 536 171V208C536 209.105 535.105 210 534 210H525C523.895 210 523 209.105 523 208V171Z" fill="#FFEEA2"/>
<path d="M546 193C546 191.895 546.895 191 548 191H557C558.105 191 559 191.895 559 193V208C559 209.105 558.105 210 557 210H548C546.895 210 546 209.105 546 208V193Z" fill="#FFEEA2"/>
<path d="M385 171C385 169.895 385.895 169 387 169H396C397.105 169 398 169.895 398 171V177C398 178.105 397.105 179 396 179H387C385.895 179 385 178.105 385 177V171Z" fill="#FFEEA2"/>
<path d="M477 171C477 169.895 477.895 169 479 169H488C489.105 169 490 169.895 490 171V177C490 178.105 489.105 179 488 179H479C477.895 179 477 178.105 477 177V171Z" fill="#FFEEA2"/>
<path d="M316 159C316 157.895 316.895 157 318 157H327C328.105 157 329 157.895 329 159V175C329 176.105 328.105 177 327 177H318C316.895 177 316 176.105 316 175V159Z" fill="#F28100"/>
<path d="M408 159C408 157.895 408.895 157 410 157H419C420.105 157 421 157.895 421 159V175C421 176.105 420.105 177 419 177H410C408.895 177 408 176.105 408 175V159Z" fill="#F28100"/>
<path d="M339 159C339 157.895 339.895 157 341 157H350C351.105 157 352 157.895 352 159V208C352 209.105 351.105 210 350 210H341C339.895 210 339 209.105 339 208V159Z" fill="#F28100"/>
<path d="M431 159C431 157.895 431.895 157 433 157H442C443.105 157 444 157.895 444 159V208C444 209.105 443.105 210 442 210H433C431.895 210 431 209.105 431 208V159Z" fill="#F28100"/>
<path d="M500 159C500 157.895 500.895 157 502 157H511C512.105 157 513 157.895 513 159V208C513 209.105 512.105 210 511 210H502C500.895 210 500 209.105 500 208V159Z" fill="#F28100"/>
<path d="M569 159C569 157.895 569.895 157 571 157H580C581.105 157 582 157.895 582 159V208C582 209.105 581.105 210 580 210H571C569.895 210 569 209.105 569 208V159Z" fill="#F28100"/>
<path d="M592 159C592 157.895 592.895 157 594 157H603C604.105 157 605 157.895 605 159V208C605 209.105 604.105 210 603 210H594C592.895 210 592 209.105 592 208V159Z" fill="#F28100"/>
<path d="M362 159C362 157.895 362.895 157 364 157H373C374.105 157 375 157.895 375 159V166C375 167.105 374.105 168 373 168H364C362.895 168 362 167.105 362 166V159Z" fill="#F28100"/>
<path d="M454 159C454 157.895 454.895 157 456 157H465C466.105 157 467 157.895 467 159V166C467 167.105 466.105 168 465 168H456C454.895 168 454 167.105 454 166V159Z" fill="#F28100"/>
<path d="M523 159C523 157.895 523.895 157 525 157H534C535.105 157 536 157.895 536 159V166C536 167.105 535.105 168 534 168H525C523.895 168 523 167.105 523 166V159Z" fill="#F28100"/>
<path d="M546 159C546 157.895 546.895 157 548 157H557C558.105 157 559 157.895 559 159V188C559 189.105 558.105 190 557 190H548C546.895 190 546 189.105 546 188V159Z" fill="#F28100"/>
<path d="M385 159C385 157.895 385.895 157 387 157H396C397.105 157 398 157.895 398 159V166C398 167.105 397.105 168 396 168H387C385.895 168 385 167.105 385 166V159Z" fill="#F28100"/>
<path d="M477 159C477 157.895 477.895 157 479 157H488C489.105 157 490 157.895 490 159V166C490 167.105 489.105 168 488 168H479C477.895 168 477 167.105 477 166V159Z" fill="#F28100"/>
<defs>
<filter id="filter0_d" x="0" y="0" width="719" height="423" filterUnits="userSpaceOnUse" color-interpolation-filters="sRGB">
<feFlood flood-opacity="0" result="BackgroundImageFix"/>
<feColorMatrix in="SourceAlpha" type="matrix" values="0 0 0 0 0 0 0 0 0 0 0 0 0 0 0 0 0 0 127 0" result="hardAlpha"/>
<feOffset dy="4"/>
<feGaussianBlur stdDeviation="25"/>
<feComposite in2="hardAlpha" operator="out"/>
<feColorMatrix type="matrix" values="0 0 0 0 0 0 0 0 0 0 0 0 0 0 0 0 0 0 0.1 0"/>
<feBlend mode="normal" in2="BackgroundImageFix" result="effect1_dropShadow"/>
<feBlend mode="normal" in="SourceGraphic" in2="effect1_dropShadow" result="shape"/>
</filter>
</defs>
</svg>
