<svg width="719" height="423" viewBox="0 0 719 423" fill="none" xmlns="http://www.w3.org/2000/svg">
<g filter="url(#filter0_c)">
<path d="M50 61C50 52.7157 56.7157 46 65 46H654C662.284 46 669 52.7157 669 61V354C669 362.284 662.284 369 654 369H65C56.7157 369 50 362.284 50 354V61Z" fill="white"/>
</g>
<path d="M383.168 93H381.656V80.4H383.168V85.854H386.03L389.828 80.4H391.556L387.272 86.538L391.934 93H390.206L386.084 87.294H383.168V93ZM400.217 91.2C400.217 91.644 400.439 91.866 400.883 91.866C401.075 91.866 401.297 91.824 401.549 91.74V92.91C401.189 93.042 400.829 93.108 400.469 93.108C399.641 93.108 399.113 92.76 398.885 92.064C397.961 92.832 396.839 93.216 395.519 93.216C394.679 93.216 393.959 92.994 393.359 92.55C392.771 92.094 392.477 91.44 392.477 90.588C392.477 89.568 392.855 88.83 393.611 88.374C394.379 87.906 395.303 87.672 396.383 87.672C397.175 87.672 397.973 87.762 398.777 87.942V87.636C398.777 86.976 398.561 86.454 398.129 86.07C397.697 85.674 397.091 85.476 396.311 85.476C395.219 85.476 394.169 85.692 393.161 86.124V84.72C394.289 84.336 395.387 84.144 396.455 84.144C397.631 84.144 398.549 84.462 399.209 85.098C399.881 85.722 400.217 86.628 400.217 87.816V91.2ZM393.953 90.516C393.953 90.996 394.133 91.362 394.493 91.614C394.865 91.854 395.309 91.974 395.825 91.974C397.013 91.974 397.997 91.554 398.777 90.714V89.13C397.961 88.962 397.229 88.878 396.581 88.878C395.849 88.878 395.225 89.01 394.709 89.274C394.205 89.526 393.953 89.94 393.953 90.516ZM406.289 93H404.849V85.692H401.663V84.36H409.457V85.692H406.289V93ZM410.217 88.68C410.217 87.264 410.649 86.154 411.513 85.35C412.389 84.546 413.391 84.144 414.519 84.144C415.575 84.144 416.445 84.408 417.129 84.936C417.825 85.464 418.281 86.118 418.497 86.898C418.713 87.666 418.725 88.47 418.533 89.31H411.657C411.741 90.162 412.119 90.804 412.791 91.236C413.463 91.668 414.273 91.884 415.221 91.884C416.277 91.884 417.225 91.65 418.065 91.182V92.586C417.261 93.006 416.241 93.216 415.005 93.216C413.637 93.216 412.497 92.826 411.585 92.046C410.673 91.266 410.217 90.144 410.217 88.68ZM417.255 88.05C417.291 87.798 417.273 87.534 417.201 87.258C417.129 86.982 416.997 86.706 416.805 86.43C416.625 86.154 416.343 85.926 415.959 85.746C415.575 85.566 415.125 85.476 414.609 85.476C413.829 85.476 413.151 85.704 412.575 86.16C412.011 86.616 411.705 87.246 411.657 88.05H417.255ZM422.077 93H420.637V84.36H426.955V85.692H422.077V93ZM429.057 92.01C428.145 91.194 427.689 90.084 427.689 88.68C427.689 87.276 428.145 86.172 429.057 85.368C429.969 84.552 431.049 84.144 432.297 84.144C433.557 84.144 434.637 84.552 435.537 85.368C436.449 86.172 436.905 87.276 436.905 88.68C436.905 90.084 436.449 91.194 435.537 92.01C434.637 92.814 433.557 93.216 432.297 93.216C431.049 93.216 429.969 92.814 429.057 92.01ZM434.565 91.002C435.165 90.426 435.465 89.652 435.465 88.68C435.465 87.708 435.165 86.94 434.565 86.376C433.965 85.8 433.209 85.512 432.297 85.512C431.385 85.512 430.629 85.8 430.029 86.376C429.429 86.94 429.129 87.708 429.129 88.68C429.129 89.652 429.429 90.426 430.029 91.002C430.629 91.566 431.385 91.848 432.297 91.848C433.209 91.848 433.965 91.566 434.565 91.002ZM440.267 85.8C441.239 84.696 442.403 84.144 443.759 84.144C444.995 84.144 446.021 84.576 446.837 85.44C447.665 86.304 448.079 87.384 448.079 88.68C448.079 89.976 447.665 91.056 446.837 91.92C446.021 92.784 444.995 93.216 443.759 93.216C442.391 93.216 441.275 92.712 440.411 91.704V96.96H438.971V84.36H440.267V85.8ZM445.757 91.002C446.345 90.414 446.639 89.64 446.639 88.68C446.639 87.72 446.345 86.946 445.757 86.358C445.181 85.77 444.461 85.476 443.597 85.476C442.865 85.476 442.217 85.68 441.653 86.088C441.089 86.496 440.675 87 440.411 87.6V89.76C440.675 90.36 441.089 90.864 441.653 91.272C442.217 91.68 442.865 91.884 443.597 91.884C444.461 91.884 445.181 91.59 445.757 91.002ZM451.374 93H450.15V84.36H451.59V90.678L456.882 84.36H458.106V93H456.666V86.682L451.374 93ZM461.632 93H459.94L462.442 89.832C461.782 89.64 461.272 89.304 460.912 88.824C460.552 88.344 460.372 87.792 460.372 87.168C460.372 86.376 460.66 85.71 461.236 85.17C461.812 84.63 462.604 84.36 463.612 84.36H467.86V93H466.42V89.976H463.99L461.632 93ZM462.316 86.052C461.98 86.316 461.812 86.688 461.812 87.168C461.812 87.648 461.98 88.02 462.316 88.284C462.664 88.548 463.138 88.68 463.738 88.68H466.42V85.656H463.738C463.138 85.656 462.664 85.788 462.316 86.052Z" fill="#37376D"/>
<path d="M381.656 117.4H386.822C388.142 117.4 389.186 117.676 389.954 118.228C390.722 118.768 391.106 119.554 391.106 120.586C391.106 121.33 390.908 121.942 390.512 122.422C390.116 122.89 389.642 123.208 389.09 123.376C389.762 123.556 390.35 123.904 390.854 124.42C391.358 124.924 391.61 125.632 391.61 126.544C391.61 127.096 391.502 127.582 391.286 128.002C391.082 128.422 390.818 128.758 390.494 129.01C390.182 129.25 389.81 129.448 389.378 129.604C388.958 129.76 388.55 129.868 388.154 129.928C387.77 129.976 387.374 130 386.966 130H381.656V117.4ZM390.08 126.382C390.08 124.93 389.078 124.204 387.074 124.204H383.168V128.56H386.66C387.044 128.56 387.368 128.554 387.632 128.542C387.896 128.518 388.196 128.47 388.532 128.398C388.868 128.314 389.138 128.2 389.342 128.056C389.546 127.9 389.72 127.684 389.864 127.408C390.008 127.12 390.08 126.778 390.08 126.382ZM389.576 120.802C389.576 120.094 389.33 119.59 388.838 119.29C388.358 118.99 387.644 118.84 386.696 118.84H383.168V122.764H387.11C387.83 122.764 388.418 122.608 388.874 122.296C389.342 121.972 389.576 121.474 389.576 120.802ZM397.793 130H393.689V121.36H395.129V124.384H397.793C398.825 124.384 399.641 124.648 400.241 125.176C400.841 125.704 401.141 126.376 401.141 127.192C401.141 128.008 400.841 128.68 400.241 129.208C399.641 129.736 398.825 130 397.793 130ZM395.129 125.68V128.704H397.613C398.261 128.704 398.765 128.578 399.125 128.326C399.497 128.074 399.683 127.696 399.683 127.192C399.683 126.688 399.497 126.31 399.125 126.058C398.765 125.806 398.261 125.68 397.613 125.68H395.129ZM404.255 130H402.815V121.36H404.255V130ZM415.368 125.932C415.368 127.264 414.96 128.314 414.144 129.082C413.34 129.838 412.278 130.216 410.958 130.216C409.614 130.216 408.528 129.772 407.7 128.884C406.884 127.996 406.476 126.754 406.476 125.158C406.476 123.766 406.716 122.566 407.196 121.558C407.676 120.55 408.324 119.794 409.14 119.29C409.692 118.954 410.262 118.69 410.85 118.498C411.45 118.294 411.942 118.168 412.326 118.12C412.722 118.072 413.13 117.976 413.55 117.832C413.97 117.676 414.318 117.46 414.594 117.184V118.696C414.258 118.936 413.844 119.116 413.352 119.236C412.86 119.344 412.314 119.476 411.714 119.632C411.114 119.788 410.538 120.028 409.986 120.352C409.446 120.676 409.026 121.084 408.726 121.576C408.426 122.068 408.162 122.656 407.934 123.34C408.246 122.86 408.69 122.47 409.266 122.17C409.842 121.87 410.46 121.72 411.12 121.72C412.284 121.72 413.28 122.11 414.108 122.89C414.948 123.67 415.368 124.684 415.368 125.932ZM407.916 125.968C407.916 126.796 408.192 127.486 408.744 128.038C409.296 128.578 410.022 128.848 410.922 128.848C411.846 128.848 412.578 128.578 413.118 128.038C413.658 127.498 413.928 126.808 413.928 125.968C413.928 125.128 413.658 124.438 413.118 123.898C412.578 123.358 411.846 123.088 410.922 123.088C410.058 123.088 409.338 123.382 408.762 123.97C408.198 124.546 407.916 125.212 407.916 125.968ZM418.751 122.8C419.723 121.696 420.887 121.144 422.243 121.144C423.479 121.144 424.505 121.576 425.321 122.44C426.149 123.304 426.563 124.384 426.563 125.68C426.563 126.976 426.149 128.056 425.321 128.92C424.505 129.784 423.479 130.216 422.243 130.216C420.875 130.216 419.759 129.712 418.895 128.704V133.96H417.455V121.36H418.751V122.8ZM424.241 128.002C424.829 127.414 425.123 126.64 425.123 125.68C425.123 124.72 424.829 123.946 424.241 123.358C423.665 122.77 422.945 122.476 422.081 122.476C421.349 122.476 420.701 122.68 420.137 123.088C419.573 123.496 419.159 124 418.895 124.6V126.76C419.159 127.36 419.573 127.864 420.137 128.272C420.701 128.68 421.349 128.884 422.081 128.884C422.945 128.884 423.665 128.59 424.241 128.002ZM435.655 128.2C435.655 128.644 435.877 128.866 436.321 128.866C436.513 128.866 436.735 128.824 436.987 128.74V129.91C436.627 130.042 436.267 130.108 435.907 130.108C435.079 130.108 434.551 129.76 434.323 129.064C433.399 129.832 432.277 130.216 430.957 130.216C430.117 130.216 429.397 129.994 428.797 129.55C428.209 129.094 427.915 128.44 427.915 127.588C427.915 126.568 428.293 125.83 429.049 125.374C429.817 124.906 430.741 124.672 431.821 124.672C432.613 124.672 433.411 124.762 434.215 124.942V124.636C434.215 123.976 433.999 123.454 433.567 123.07C433.135 122.674 432.529 122.476 431.749 122.476C430.657 122.476 429.607 122.692 428.599 123.124V121.72C429.727 121.336 430.825 121.144 431.893 121.144C433.069 121.144 433.987 121.462 434.647 122.098C435.319 122.722 435.655 123.628 435.655 124.816V128.2ZM429.391 127.516C429.391 127.996 429.571 128.362 429.931 128.614C430.303 128.854 430.747 128.974 431.263 128.974C432.451 128.974 433.435 128.554 434.215 127.714V126.13C433.399 125.962 432.667 125.878 432.019 125.878C431.287 125.878 430.663 126.01 430.147 126.274C429.643 126.526 429.391 126.94 429.391 127.516ZM441.727 130H440.287V122.692H437.101V121.36H444.895V122.692H441.727V130ZM450.633 130H446.529V121.36H447.969V124.384H450.633C451.665 124.384 452.481 124.648 453.081 125.176C453.681 125.704 453.981 126.376 453.981 127.192C453.981 128.008 453.681 128.68 453.081 129.208C452.481 129.736 451.665 130 450.633 130ZM447.969 125.68V128.704H450.453C451.101 128.704 451.605 128.578 451.965 128.326C452.337 128.074 452.523 127.696 452.523 127.192C452.523 126.688 452.337 126.31 451.965 126.058C451.605 125.806 451.101 125.68 450.453 125.68H447.969Z" fill="#9B9BB6"/>
<path d="M380 146.5H631" stroke="black"/>
<path d="M626.165 128.75L622 125L630.33 125L626.165 128.75Z" fill="#000C2C"/>
<path d="M381.836 184H380.036L384.914 177.52L380.306 171.4H382.106L385.814 176.314L389.504 171.4H391.304L386.714 177.52L391.574 184H389.774L385.814 178.726L381.836 184ZM399.831 182.2C399.831 182.644 400.053 182.866 400.497 182.866C400.689 182.866 400.911 182.824 401.163 182.74V183.91C400.803 184.042 400.443 184.108 400.083 184.108C399.255 184.108 398.727 183.76 398.499 183.064C397.575 183.832 396.453 184.216 395.133 184.216C394.293 184.216 393.573 183.994 392.973 183.55C392.385 183.094 392.091 182.44 392.091 181.588C392.091 180.568 392.469 179.83 393.225 179.374C393.993 178.906 394.917 178.672 395.997 178.672C396.789 178.672 397.587 178.762 398.391 178.942V178.636C398.391 177.976 398.175 177.454 397.743 177.07C397.311 176.674 396.705 176.476 395.925 176.476C394.833 176.476 393.783 176.692 392.775 177.124V175.72C393.903 175.336 395.001 175.144 396.069 175.144C397.245 175.144 398.163 175.462 398.823 176.098C399.495 176.722 399.831 177.628 399.831 178.816V182.2ZM393.567 181.516C393.567 181.996 393.747 182.362 394.107 182.614C394.479 182.854 394.923 182.974 395.439 182.974C396.627 182.974 397.611 182.554 398.391 181.714V180.13C397.575 179.962 396.843 179.878 396.195 179.878C395.463 179.878 394.839 180.01 394.323 180.274C393.819 180.526 393.567 180.94 393.567 181.516ZM404.003 176.8C404.975 175.696 406.139 175.144 407.495 175.144C408.731 175.144 409.757 175.576 410.573 176.44C411.401 177.304 411.815 178.384 411.815 179.68C411.815 180.976 411.401 182.056 410.573 182.92C409.757 183.784 408.731 184.216 407.495 184.216C406.127 184.216 405.011 183.712 404.147 182.704V187.96H402.707V175.36H404.003V176.8ZM409.493 182.002C410.081 181.414 410.375 180.64 410.375 179.68C410.375 178.72 410.081 177.946 409.493 177.358C408.917 176.77 408.197 176.476 407.333 176.476C406.601 176.476 405.953 176.68 405.389 177.088C404.825 177.496 404.411 178 404.147 178.6V180.76C404.411 181.36 404.825 181.864 405.389 182.272C405.953 182.68 406.601 182.884 407.333 182.884C408.197 182.884 408.917 182.59 409.493 182.002ZM420.907 182.2C420.907 182.644 421.129 182.866 421.573 182.866C421.765 182.866 421.987 182.824 422.239 182.74V183.91C421.879 184.042 421.519 184.108 421.159 184.108C420.331 184.108 419.803 183.76 419.575 183.064C418.651 183.832 417.529 184.216 416.209 184.216C415.369 184.216 414.649 183.994 414.049 183.55C413.461 183.094 413.167 182.44 413.167 181.588C413.167 180.568 413.545 179.83 414.301 179.374C415.069 178.906 415.993 178.672 417.073 178.672C417.865 178.672 418.663 178.762 419.467 178.942V178.636C419.467 177.976 419.251 177.454 418.819 177.07C418.387 176.674 417.781 176.476 417.001 176.476C415.909 176.476 414.859 176.692 413.851 177.124V175.72C414.979 175.336 416.077 175.144 417.145 175.144C418.321 175.144 419.239 175.462 419.899 176.098C420.571 176.722 420.907 177.628 420.907 178.816V182.2ZM414.643 181.516C414.643 181.996 414.823 182.362 415.183 182.614C415.555 182.854 415.999 182.974 416.515 182.974C417.703 182.974 418.687 182.554 419.467 181.714V180.13C418.651 179.962 417.919 179.878 417.271 179.878C416.539 179.878 415.915 180.01 415.399 180.274C414.895 180.526 414.643 180.94 414.643 181.516ZM425.223 184H423.783V175.36H425.223V178.96H426.969L429.705 175.36H431.379L428.103 179.662L431.775 184H430.083L426.915 180.292H425.223V184ZM436.805 184H435.365V176.692H432.179V175.36H439.973V176.692H436.805V184ZM440.732 179.68C440.732 178.264 441.164 177.154 442.028 176.35C442.904 175.546 443.906 175.144 445.034 175.144C446.09 175.144 446.96 175.408 447.644 175.936C448.34 176.464 448.796 177.118 449.012 177.898C449.228 178.666 449.24 179.47 449.048 180.31H442.172C442.256 181.162 442.634 181.804 443.306 182.236C443.978 182.668 444.788 182.884 445.736 182.884C446.792 182.884 447.74 182.65 448.58 182.182V183.586C447.776 184.006 446.756 184.216 445.52 184.216C444.152 184.216 443.012 183.826 442.1 183.046C441.188 182.266 440.732 181.144 440.732 179.68ZM447.77 179.05C447.806 178.798 447.788 178.534 447.716 178.258C447.644 177.982 447.512 177.706 447.32 177.43C447.14 177.154 446.858 176.926 446.474 176.746C446.09 176.566 445.64 176.476 445.124 176.476C444.344 176.476 443.666 176.704 443.09 177.16C442.526 177.616 442.22 178.246 442.172 179.05H447.77ZM452.448 176.8C453.42 175.696 454.584 175.144 455.94 175.144C457.176 175.144 458.202 175.576 459.018 176.44C459.846 177.304 460.26 178.384 460.26 179.68C460.26 180.976 459.846 182.056 459.018 182.92C458.202 183.784 457.176 184.216 455.94 184.216C454.572 184.216 453.456 183.712 452.592 182.704V187.96H451.152V175.36H452.448V176.8ZM457.938 182.002C458.526 181.414 458.82 180.64 458.82 179.68C458.82 178.72 458.526 177.946 457.938 177.358C457.362 176.77 456.642 176.476 455.778 176.476C455.046 176.476 454.398 176.68 453.834 177.088C453.27 177.496 452.856 178 452.592 178.6V180.76C452.856 181.36 453.27 181.864 453.834 182.272C454.398 182.68 455.046 182.884 455.778 182.884C456.642 182.884 457.362 182.59 457.938 182.002ZM463.556 184H462.332V175.36H463.772V181.678L469.064 175.36H470.288V184H468.848V177.682L463.556 184ZM472.355 179.716C472.355 178.96 472.493 178.282 472.769 177.682C473.045 177.082 473.405 176.602 473.849 176.242C474.305 175.882 474.803 175.612 475.343 175.432C475.895 175.24 476.459 175.144 477.035 175.144C478.103 175.144 478.991 175.378 479.699 175.846V177.25C479.039 176.734 478.211 176.476 477.215 176.476C476.279 176.476 475.475 176.746 474.803 177.286C474.131 177.826 473.795 178.624 473.795 179.68C473.795 180.724 474.125 181.522 474.785 182.074C475.457 182.614 476.255 182.884 477.179 182.884C478.139 182.884 479.009 182.65 479.789 182.182V183.622C478.973 184.018 478.037 184.216 476.981 184.216C475.733 184.216 474.647 183.826 473.723 183.046C472.811 182.266 472.355 181.156 472.355 179.716ZM485.496 184H484.056V176.692H480.87V175.36H488.664V176.692H485.496V184ZM491.523 184H490.299V175.36H491.739V181.678L497.031 175.36H498.255V184H496.815V177.682L491.523 184ZM502.356 184H500.916V175.36H502.356V178.96H504.102L506.838 175.36H508.512L505.236 179.662L508.908 184H507.216L504.048 180.292H502.356V184ZM517.288 182.2C517.288 182.644 517.51 182.866 517.954 182.866C518.146 182.866 518.368 182.824 518.62 182.74V183.91C518.26 184.042 517.9 184.108 517.54 184.108C516.712 184.108 516.184 183.76 515.956 183.064C515.032 183.832 513.91 184.216 512.59 184.216C511.75 184.216 511.03 183.994 510.43 183.55C509.842 183.094 509.548 182.44 509.548 181.588C509.548 180.568 509.926 179.83 510.682 179.374C511.45 178.906 512.374 178.672 513.454 178.672C514.246 178.672 515.044 178.762 515.848 178.942V178.636C515.848 177.976 515.632 177.454 515.2 177.07C514.768 176.674 514.162 176.476 513.382 176.476C512.29 176.476 511.24 176.692 510.232 177.124V175.72C511.36 175.336 512.458 175.144 513.526 175.144C514.702 175.144 515.62 175.462 516.28 176.098C516.952 176.722 517.288 177.628 517.288 178.816V182.2ZM511.024 181.516C511.024 181.996 511.204 182.362 511.564 182.614C511.936 182.854 512.38 182.974 512.896 182.974C514.084 182.974 515.068 182.554 515.848 181.714V180.13C515.032 179.962 514.3 179.878 513.652 179.878C512.92 179.878 512.296 180.01 511.78 180.274C511.276 180.526 511.024 180.94 511.024 181.516Z" fill="#37376D"/>
<path d="M381.656 208.4H386.822C388.142 208.4 389.186 208.676 389.954 209.228C390.722 209.768 391.106 210.554 391.106 211.586C391.106 212.33 390.908 212.942 390.512 213.422C390.116 213.89 389.642 214.208 389.09 214.376C389.762 214.556 390.35 214.904 390.854 215.42C391.358 215.924 391.61 216.632 391.61 217.544C391.61 218.096 391.502 218.582 391.286 219.002C391.082 219.422 390.818 219.758 390.494 220.01C390.182 220.25 389.81 220.448 389.378 220.604C388.958 220.76 388.55 220.868 388.154 220.928C387.77 220.976 387.374 221 386.966 221H381.656V208.4ZM390.08 217.382C390.08 215.93 389.078 215.204 387.074 215.204H383.168V219.56H386.66C387.044 219.56 387.368 219.554 387.632 219.542C387.896 219.518 388.196 219.47 388.532 219.398C388.868 219.314 389.138 219.2 389.342 219.056C389.546 218.9 389.72 218.684 389.864 218.408C390.008 218.12 390.08 217.778 390.08 217.382ZM389.576 211.802C389.576 211.094 389.33 210.59 388.838 210.29C388.358 209.99 387.644 209.84 386.696 209.84H383.168V213.764H387.11C387.83 213.764 388.418 213.608 388.874 213.296C389.342 212.972 389.576 212.474 389.576 211.802ZM397.793 221H393.689V212.36H395.129V215.384H397.793C398.825 215.384 399.641 215.648 400.241 216.176C400.841 216.704 401.141 217.376 401.141 218.192C401.141 219.008 400.841 219.68 400.241 220.208C399.641 220.736 398.825 221 397.793 221ZM395.129 216.68V219.704H397.613C398.261 219.704 398.765 219.578 399.125 219.326C399.497 219.074 399.683 218.696 399.683 218.192C399.683 217.688 399.497 217.31 399.125 217.058C398.765 216.806 398.261 216.68 397.613 216.68H395.129ZM404.255 221H402.815V212.36H404.255V221ZM415.368 216.932C415.368 218.264 414.96 219.314 414.144 220.082C413.34 220.838 412.278 221.216 410.958 221.216C409.614 221.216 408.528 220.772 407.7 219.884C406.884 218.996 406.476 217.754 406.476 216.158C406.476 214.766 406.716 213.566 407.196 212.558C407.676 211.55 408.324 210.794 409.14 210.29C409.692 209.954 410.262 209.69 410.85 209.498C411.45 209.294 411.942 209.168 412.326 209.12C412.722 209.072 413.13 208.976 413.55 208.832C413.97 208.676 414.318 208.46 414.594 208.184V209.696C414.258 209.936 413.844 210.116 413.352 210.236C412.86 210.344 412.314 210.476 411.714 210.632C411.114 210.788 410.538 211.028 409.986 211.352C409.446 211.676 409.026 212.084 408.726 212.576C408.426 213.068 408.162 213.656 407.934 214.34C408.246 213.86 408.69 213.47 409.266 213.17C409.842 212.87 410.46 212.72 411.12 212.72C412.284 212.72 413.28 213.11 414.108 213.89C414.948 214.67 415.368 215.684 415.368 216.932ZM407.916 216.968C407.916 217.796 408.192 218.486 408.744 219.038C409.296 219.578 410.022 219.848 410.922 219.848C411.846 219.848 412.578 219.578 413.118 219.038C413.658 218.498 413.928 217.808 413.928 216.968C413.928 216.128 413.658 215.438 413.118 214.898C412.578 214.358 411.846 214.088 410.922 214.088C410.058 214.088 409.338 214.382 408.762 214.97C408.198 215.546 407.916 216.212 407.916 216.968ZM418.751 213.8C419.723 212.696 420.887 212.144 422.243 212.144C423.479 212.144 424.505 212.576 425.321 213.44C426.149 214.304 426.563 215.384 426.563 216.68C426.563 217.976 426.149 219.056 425.321 219.92C424.505 220.784 423.479 221.216 422.243 221.216C420.875 221.216 419.759 220.712 418.895 219.704V224.96H417.455V212.36H418.751V213.8ZM424.241 219.002C424.829 218.414 425.123 217.64 425.123 216.68C425.123 215.72 424.829 214.946 424.241 214.358C423.665 213.77 422.945 213.476 422.081 213.476C421.349 213.476 420.701 213.68 420.137 214.088C419.573 214.496 419.159 215 418.895 215.6V217.76C419.159 218.36 419.573 218.864 420.137 219.272C420.701 219.68 421.349 219.884 422.081 219.884C422.945 219.884 423.665 219.59 424.241 219.002ZM435.655 219.2C435.655 219.644 435.877 219.866 436.321 219.866C436.513 219.866 436.735 219.824 436.987 219.74V220.91C436.627 221.042 436.267 221.108 435.907 221.108C435.079 221.108 434.551 220.76 434.323 220.064C433.399 220.832 432.277 221.216 430.957 221.216C430.117 221.216 429.397 220.994 428.797 220.55C428.209 220.094 427.915 219.44 427.915 218.588C427.915 217.568 428.293 216.83 429.049 216.374C429.817 215.906 430.741 215.672 431.821 215.672C432.613 215.672 433.411 215.762 434.215 215.942V215.636C434.215 214.976 433.999 214.454 433.567 214.07C433.135 213.674 432.529 213.476 431.749 213.476C430.657 213.476 429.607 213.692 428.599 214.124V212.72C429.727 212.336 430.825 212.144 431.893 212.144C433.069 212.144 433.987 212.462 434.647 213.098C435.319 213.722 435.655 214.628 435.655 215.816V219.2ZM429.391 218.516C429.391 218.996 429.571 219.362 429.931 219.614C430.303 219.854 430.747 219.974 431.263 219.974C432.451 219.974 433.435 219.554 434.215 218.714V217.13C433.399 216.962 432.667 216.878 432.019 216.878C431.287 216.878 430.663 217.01 430.147 217.274C429.643 217.526 429.391 217.94 429.391 218.516ZM441.727 221H440.287V213.692H437.101V212.36H444.895V213.692H441.727V221ZM450.633 221H446.529V212.36H447.969V215.384H450.633C451.665 215.384 452.481 215.648 453.081 216.176C453.681 216.704 453.981 217.376 453.981 218.192C453.981 219.008 453.681 219.68 453.081 220.208C452.481 220.736 451.665 221 450.633 221ZM447.969 216.68V219.704H450.453C451.101 219.704 451.605 219.578 451.965 219.326C452.337 219.074 452.523 218.696 452.523 218.192C452.523 217.688 452.337 217.31 451.965 217.058C451.605 216.806 451.101 216.68 450.453 216.68H447.969Z" fill="#9B9BB6"/>
<path d="M380 237.5H631" stroke="black"/>
<path d="M626.165 219.75L622 216L630.33 216L626.165 219.75Z" fill="#000C2C"/>
<path d="M89.168 93H87.656V80.4H97.934V93H96.422V81.84H89.168V93ZM102.216 85.8C103.188 84.696 104.352 84.144 105.708 84.144C106.944 84.144 107.97 84.576 108.786 85.44C109.614 86.304 110.028 87.384 110.028 88.68C110.028 89.976 109.614 91.056 108.786 91.92C107.97 92.784 106.944 93.216 105.708 93.216C104.34 93.216 103.224 92.712 102.36 91.704V96.96H100.92V84.36H102.216V85.8ZM107.706 91.002C108.294 90.414 108.588 89.64 108.588 88.68C108.588 87.72 108.294 86.946 107.706 86.358C107.13 85.77 106.41 85.476 105.546 85.476C104.814 85.476 104.166 85.68 103.602 86.088C103.038 86.496 102.624 87 102.36 87.6V89.76C102.624 90.36 103.038 90.864 103.602 91.272C104.166 91.68 104.814 91.884 105.546 91.884C106.41 91.884 107.13 91.59 107.706 91.002ZM112.874 92.01C111.962 91.194 111.506 90.084 111.506 88.68C111.506 87.276 111.962 86.172 112.874 85.368C113.786 84.552 114.866 84.144 116.114 84.144C117.374 84.144 118.454 84.552 119.354 85.368C120.266 86.172 120.722 87.276 120.722 88.68C120.722 90.084 120.266 91.194 119.354 92.01C118.454 92.814 117.374 93.216 116.114 93.216C114.866 93.216 113.786 92.814 112.874 92.01ZM118.382 91.002C118.982 90.426 119.282 89.652 119.282 88.68C119.282 87.708 118.982 86.94 118.382 86.376C117.782 85.8 117.026 85.512 116.114 85.512C115.202 85.512 114.446 85.8 113.846 86.376C113.246 86.94 112.946 87.708 112.946 88.68C112.946 89.652 113.246 90.426 113.846 91.002C114.446 91.566 115.202 91.848 116.114 91.848C117.026 91.848 117.782 91.566 118.382 91.002ZM124.011 93H122.787V84.36H124.227V90.678L129.519 84.36H130.743V93H129.303V86.682L124.011 93ZM139.866 90.678C139.866 91.482 139.518 92.106 138.822 92.55C138.138 92.994 137.19 93.216 135.978 93.216C134.766 93.216 133.704 92.994 132.792 92.55V91.182C133.668 91.65 134.67 91.884 135.798 91.884C137.55 91.884 138.426 91.428 138.426 90.516C138.426 89.688 137.79 89.274 136.518 89.274H134.628V87.942H136.518C137.67 87.942 138.246 87.57 138.246 86.826C138.246 86.37 138.03 86.028 137.598 85.8C137.166 85.572 136.59 85.458 135.87 85.458C134.826 85.458 133.848 85.686 132.936 86.142V84.792C133.908 84.348 134.94 84.126 136.032 84.126C137.208 84.126 138.108 84.354 138.732 84.81C139.368 85.254 139.686 85.86 139.686 86.628C139.686 87.144 139.542 87.57 139.254 87.906C138.966 88.242 138.576 88.464 138.084 88.572C138.6 88.704 139.026 88.956 139.362 89.328C139.698 89.7 139.866 90.15 139.866 90.678ZM146.86 93H141.982V84.36H146.716C147.496 84.36 148.132 84.564 148.624 84.972C149.128 85.38 149.38 85.956 149.38 86.7C149.38 87.132 149.272 87.522 149.056 87.87C148.84 88.218 148.564 88.464 148.228 88.608C148.624 88.74 148.96 88.98 149.236 89.328C149.512 89.676 149.65 90.102 149.65 90.606C149.65 91.338 149.41 91.92 148.93 92.352C148.462 92.784 147.772 93 146.86 93ZM143.422 89.256V91.74H146.662C147.694 91.74 148.21 91.332 148.21 90.516C148.21 89.676 147.712 89.256 146.716 89.256H143.422ZM143.422 85.62V88.014H146.572C147.472 88.014 147.922 87.624 147.922 86.844C147.922 86.4 147.79 86.088 147.526 85.908C147.262 85.716 146.944 85.62 146.572 85.62H143.422ZM152.618 92.01C151.706 91.194 151.25 90.084 151.25 88.68C151.25 87.276 151.706 86.172 152.618 85.368C153.53 84.552 154.61 84.144 155.858 84.144C157.118 84.144 158.198 84.552 159.098 85.368C160.01 86.172 160.466 87.276 160.466 88.68C160.466 90.084 160.01 91.194 159.098 92.01C158.198 92.814 157.118 93.216 155.858 93.216C154.61 93.216 153.53 92.814 152.618 92.01ZM158.126 91.002C158.726 90.426 159.026 89.652 159.026 88.68C159.026 87.708 158.726 86.94 158.126 86.376C157.526 85.8 156.77 85.512 155.858 85.512C154.946 85.512 154.19 85.8 153.59 86.376C152.99 86.94 152.69 87.708 152.69 88.68C152.69 89.652 152.99 90.426 153.59 91.002C154.19 91.566 154.946 91.848 155.858 91.848C156.77 91.848 157.526 91.566 158.126 91.002ZM162.843 95.34H161.439V91.704H162.591C163.611 89.904 164.103 87.456 164.067 84.36H170.511V91.704H171.771V95.34H170.367V93H162.843V95.34ZM165.453 85.656C165.393 88.02 164.961 90.036 164.157 91.704H169.071V85.656H165.453ZM174.917 93H173.693V84.36H175.133V90.678L180.425 84.36H181.649V93H180.209V86.682L174.917 93ZM187.911 93H186.471V85.692H183.285V84.36H191.079V85.692H187.911V93ZM191.838 88.68C191.838 87.264 192.27 86.154 193.134 85.35C194.01 84.546 195.012 84.144 196.14 84.144C197.196 84.144 198.066 84.408 198.75 84.936C199.446 85.464 199.902 86.118 200.118 86.898C200.334 87.666 200.346 88.47 200.154 89.31H193.278C193.362 90.162 193.74 90.804 194.412 91.236C195.084 91.668 195.894 91.884 196.842 91.884C197.898 91.884 198.846 91.65 199.686 91.182V92.586C198.882 93.006 197.862 93.216 196.626 93.216C195.258 93.216 194.118 92.826 193.206 92.046C192.294 91.266 191.838 90.144 191.838 88.68ZM198.876 88.05C198.912 87.798 198.894 87.534 198.822 87.258C198.75 86.982 198.618 86.706 198.426 86.43C198.246 86.154 197.964 85.926 197.58 85.746C197.196 85.566 196.746 85.476 196.23 85.476C195.45 85.476 194.772 85.704 194.196 86.16C193.632 86.616 193.326 87.246 193.278 88.05H198.876ZM205.318 85.692C205.258 86.64 205.186 87.468 205.102 88.176C205.018 88.884 204.898 89.568 204.742 90.228C204.586 90.876 204.394 91.404 204.166 91.812C203.95 92.22 203.674 92.544 203.338 92.784C203.002 93.024 202.618 93.144 202.186 93.144C201.838 93.144 201.49 93.078 201.142 92.946V91.812C201.334 91.884 201.526 91.92 201.718 91.92C202.438 91.92 202.96 91.29 203.284 90.03C203.62 88.758 203.83 86.868 203.914 84.36H210.268V93H208.828V85.692H205.318ZM217.032 93H212.928V84.36H214.368V87.384H217.032C218.064 87.384 218.88 87.648 219.48 88.176C220.08 88.704 220.38 89.376 220.38 90.192C220.38 91.008 220.08 91.68 219.48 92.208C218.88 92.736 218.064 93 217.032 93ZM214.368 88.68V91.704H216.852C217.5 91.704 218.004 91.578 218.364 91.326C218.736 91.074 218.922 90.696 218.922 90.192C218.922 89.688 218.736 89.31 218.364 89.058C218.004 88.806 217.5 88.68 216.852 88.68H214.368Z" fill="#37376D"/>
<path d="M87.656 117.4H92.822C94.142 117.4 95.186 117.676 95.954 118.228C96.722 118.768 97.106 119.554 97.106 120.586C97.106 121.33 96.908 121.942 96.512 122.422C96.116 122.89 95.642 123.208 95.09 123.376C95.762 123.556 96.35 123.904 96.854 124.42C97.358 124.924 97.61 125.632 97.61 126.544C97.61 127.096 97.502 127.582 97.286 128.002C97.082 128.422 96.818 128.758 96.494 129.01C96.182 129.25 95.81 129.448 95.378 129.604C94.958 129.76 94.55 129.868 94.154 129.928C93.77 129.976 93.374 130 92.966 130H87.656V117.4ZM96.08 126.382C96.08 124.93 95.078 124.204 93.074 124.204H89.168V128.56H92.66C93.044 128.56 93.368 128.554 93.632 128.542C93.896 128.518 94.196 128.47 94.532 128.398C94.868 128.314 95.138 128.2 95.342 128.056C95.546 127.9 95.72 127.684 95.864 127.408C96.008 127.12 96.08 126.778 96.08 126.382ZM95.576 120.802C95.576 120.094 95.33 119.59 94.838 119.29C94.358 118.99 93.644 118.84 92.696 118.84H89.168V122.764H93.11C93.83 122.764 94.418 122.608 94.874 122.296C95.342 121.972 95.576 121.474 95.576 120.802ZM103.793 130H99.6894V121.36H101.129V124.384H103.793C104.825 124.384 105.641 124.648 106.241 125.176C106.841 125.704 107.141 126.376 107.141 127.192C107.141 128.008 106.841 128.68 106.241 129.208C105.641 129.736 104.825 130 103.793 130ZM101.129 125.68V128.704H103.613C104.261 128.704 104.765 128.578 105.125 128.326C105.497 128.074 105.683 127.696 105.683 127.192C105.683 126.688 105.497 126.31 105.125 126.058C104.765 125.806 104.261 125.68 103.613 125.68H101.129ZM110.255 130H108.815V121.36H110.255V130ZM121.368 125.932C121.368 127.264 120.96 128.314 120.144 129.082C119.34 129.838 118.278 130.216 116.958 130.216C115.614 130.216 114.528 129.772 113.7 128.884C112.884 127.996 112.476 126.754 112.476 125.158C112.476 123.766 112.716 122.566 113.196 121.558C113.676 120.55 114.324 119.794 115.14 119.29C115.692 118.954 116.262 118.69 116.85 118.498C117.45 118.294 117.942 118.168 118.326 118.12C118.722 118.072 119.13 117.976 119.55 117.832C119.97 117.676 120.318 117.46 120.594 117.184V118.696C120.258 118.936 119.844 119.116 119.352 119.236C118.86 119.344 118.314 119.476 117.714 119.632C117.114 119.788 116.538 120.028 115.986 120.352C115.446 120.676 115.026 121.084 114.726 121.576C114.426 122.068 114.162 122.656 113.934 123.34C114.246 122.86 114.69 122.47 115.266 122.17C115.842 121.87 116.46 121.72 117.12 121.72C118.284 121.72 119.28 122.11 120.108 122.89C120.948 123.67 121.368 124.684 121.368 125.932ZM113.916 125.968C113.916 126.796 114.192 127.486 114.744 128.038C115.296 128.578 116.022 128.848 116.922 128.848C117.846 128.848 118.578 128.578 119.118 128.038C119.658 127.498 119.928 126.808 119.928 125.968C119.928 125.128 119.658 124.438 119.118 123.898C118.578 123.358 117.846 123.088 116.922 123.088C116.058 123.088 115.338 123.382 114.762 123.97C114.198 124.546 113.916 125.212 113.916 125.968ZM124.751 122.8C125.723 121.696 126.887 121.144 128.243 121.144C129.479 121.144 130.505 121.576 131.321 122.44C132.149 123.304 132.563 124.384 132.563 125.68C132.563 126.976 132.149 128.056 131.321 128.92C130.505 129.784 129.479 130.216 128.243 130.216C126.875 130.216 125.759 129.712 124.895 128.704V133.96H123.455V121.36H124.751V122.8ZM130.241 128.002C130.829 127.414 131.123 126.64 131.123 125.68C131.123 124.72 130.829 123.946 130.241 123.358C129.665 122.77 128.945 122.476 128.081 122.476C127.349 122.476 126.701 122.68 126.137 123.088C125.573 123.496 125.159 124 124.895 124.6V126.76C125.159 127.36 125.573 127.864 126.137 128.272C126.701 128.68 127.349 128.884 128.081 128.884C128.945 128.884 129.665 128.59 130.241 128.002ZM141.655 128.2C141.655 128.644 141.877 128.866 142.321 128.866C142.513 128.866 142.735 128.824 142.987 128.74V129.91C142.627 130.042 142.267 130.108 141.907 130.108C141.079 130.108 140.551 129.76 140.323 129.064C139.399 129.832 138.277 130.216 136.957 130.216C136.117 130.216 135.397 129.994 134.797 129.55C134.209 129.094 133.915 128.44 133.915 127.588C133.915 126.568 134.293 125.83 135.049 125.374C135.817 124.906 136.741 124.672 137.821 124.672C138.613 124.672 139.411 124.762 140.215 124.942V124.636C140.215 123.976 139.999 123.454 139.567 123.07C139.135 122.674 138.529 122.476 137.749 122.476C136.657 122.476 135.607 122.692 134.599 123.124V121.72C135.727 121.336 136.825 121.144 137.893 121.144C139.069 121.144 139.987 121.462 140.647 122.098C141.319 122.722 141.655 123.628 141.655 124.816V128.2ZM135.391 127.516C135.391 127.996 135.571 128.362 135.931 128.614C136.303 128.854 136.747 128.974 137.263 128.974C138.451 128.974 139.435 128.554 140.215 127.714V126.13C139.399 125.962 138.667 125.878 138.019 125.878C137.287 125.878 136.663 126.01 136.147 126.274C135.643 126.526 135.391 126.94 135.391 127.516ZM147.727 130H146.287V122.692H143.101V121.36H150.895V122.692H147.727V130ZM156.633 130H152.529V121.36H153.969V124.384H156.633C157.665 124.384 158.481 124.648 159.081 125.176C159.681 125.704 159.981 126.376 159.981 127.192C159.981 128.008 159.681 128.68 159.081 129.208C158.481 129.736 157.665 130 156.633 130ZM153.969 125.68V128.704H156.453C157.101 128.704 157.605 128.578 157.965 128.326C158.337 128.074 158.523 127.696 158.523 127.192C158.523 126.688 158.337 126.31 157.965 126.058C157.605 125.806 157.101 125.68 156.453 125.68H153.969Z" fill="#9B9BB6"/>
<path d="M86 146.5H337" stroke="black"/>
<path d="M332.165 128.75L328 125L336.33 125L332.165 128.75Z" fill="#000C2C"/>
<path d="M86.81 177.79C86.81 176.398 87.14 175.192 87.8 174.172C88.46 173.14 89.282 172.384 90.266 171.904C91.25 171.424 92.306 171.184 93.434 171.184C94.73 171.184 95.912 171.466 96.98 172.03V173.542C96.068 172.93 94.97 172.624 93.686 172.624C92.246 172.624 90.998 173.068 89.942 173.956C88.886 174.832 88.352 176.11 88.34 177.79C88.34 178.858 88.61 179.782 89.15 180.562C89.702 181.342 90.374 181.906 91.166 182.254C91.97 182.602 92.828 182.776 93.74 182.776C95.096 182.776 96.206 182.47 97.07 181.858V183.37C95.978 183.934 94.76 184.216 93.416 184.216C92.612 184.216 91.82 184.078 91.04 183.802C90.26 183.514 89.552 183.112 88.916 182.596C88.28 182.068 87.77 181.39 87.386 180.562C87.002 179.722 86.81 178.798 86.81 177.79ZM98.2341 179.68C98.2341 178.264 98.6661 177.154 99.5301 176.35C100.406 175.546 101.408 175.144 102.536 175.144C103.592 175.144 104.462 175.408 105.146 175.936C105.842 176.464 106.298 177.118 106.514 177.898C106.73 178.666 106.742 179.47 106.55 180.31H99.6741C99.7581 181.162 100.136 181.804 100.808 182.236C101.48 182.668 102.29 182.884 103.238 182.884C104.294 182.884 105.242 182.65 106.082 182.182V183.586C105.278 184.006 104.258 184.216 103.022 184.216C101.654 184.216 100.514 183.826 99.6021 183.046C98.6901 182.266 98.2341 181.144 98.2341 179.68ZM105.272 179.05C105.308 178.798 105.29 178.534 105.218 178.258C105.146 177.982 105.014 177.706 104.822 177.43C104.642 177.154 104.36 176.926 103.976 176.746C103.592 176.566 103.142 176.476 102.626 176.476C101.846 176.476 101.168 176.704 100.592 177.16C100.028 177.616 99.7221 178.246 99.6741 179.05H105.272ZM110.094 184H108.654V175.36H114.972V176.692H110.094V184ZM117.985 184H116.617V175.36H118.183L121.333 180.148L124.483 175.36H126.049V184H124.681V177.484L121.873 181.75H120.793L117.985 177.484V184ZM128.117 179.68C128.117 178.264 128.549 177.154 129.413 176.35C130.289 175.546 131.291 175.144 132.419 175.144C133.475 175.144 134.345 175.408 135.029 175.936C135.725 176.464 136.181 177.118 136.397 177.898C136.613 178.666 136.625 179.47 136.433 180.31H129.557C129.641 181.162 130.019 181.804 130.691 182.236C131.363 182.668 132.173 182.884 133.121 182.884C134.177 182.884 135.125 182.65 135.965 182.182V183.586C135.161 184.006 134.141 184.216 132.905 184.216C131.537 184.216 130.397 183.826 129.485 183.046C128.573 182.266 128.117 181.144 128.117 179.68ZM135.155 179.05C135.191 178.798 135.173 178.534 135.101 178.258C135.029 177.982 134.897 177.706 134.705 177.43C134.525 177.154 134.243 176.926 133.859 176.746C133.475 176.566 133.025 176.476 132.509 176.476C131.729 176.476 131.051 176.704 130.475 177.16C129.911 177.616 129.605 178.246 129.557 179.05H135.155ZM139.977 184H138.537V175.36H139.977V179.014H144.981V175.36H146.421V184H144.981V180.346H139.977V184ZM152.684 184H151.244V176.692H148.058V175.36H155.852V176.692H152.684V184Z" fill="#37376D"/>
<path d="M87.656 208.4H92.822C94.142 208.4 95.186 208.676 95.954 209.228C96.722 209.768 97.106 210.554 97.106 211.586C97.106 212.33 96.908 212.942 96.512 213.422C96.116 213.89 95.642 214.208 95.09 214.376C95.762 214.556 96.35 214.904 96.854 215.42C97.358 215.924 97.61 216.632 97.61 217.544C97.61 218.096 97.502 218.582 97.286 219.002C97.082 219.422 96.818 219.758 96.494 220.01C96.182 220.25 95.81 220.448 95.378 220.604C94.958 220.76 94.55 220.868 94.154 220.928C93.77 220.976 93.374 221 92.966 221H87.656V208.4ZM96.08 217.382C96.08 215.93 95.078 215.204 93.074 215.204H89.168V219.56H92.66C93.044 219.56 93.368 219.554 93.632 219.542C93.896 219.518 94.196 219.47 94.532 219.398C94.868 219.314 95.138 219.2 95.342 219.056C95.546 218.9 95.72 218.684 95.864 218.408C96.008 218.12 96.08 217.778 96.08 217.382ZM95.576 211.802C95.576 211.094 95.33 210.59 94.838 210.29C94.358 209.99 93.644 209.84 92.696 209.84H89.168V213.764H93.11C93.83 213.764 94.418 213.608 94.874 213.296C95.342 212.972 95.576 212.474 95.576 211.802ZM103.793 221H99.6894V212.36H101.129V215.384H103.793C104.825 215.384 105.641 215.648 106.241 216.176C106.841 216.704 107.141 217.376 107.141 218.192C107.141 219.008 106.841 219.68 106.241 220.208C105.641 220.736 104.825 221 103.793 221ZM101.129 216.68V219.704H103.613C104.261 219.704 104.765 219.578 105.125 219.326C105.497 219.074 105.683 218.696 105.683 218.192C105.683 217.688 105.497 217.31 105.125 217.058C104.765 216.806 104.261 216.68 103.613 216.68H101.129ZM110.255 221H108.815V212.36H110.255V221ZM121.368 216.932C121.368 218.264 120.96 219.314 120.144 220.082C119.34 220.838 118.278 221.216 116.958 221.216C115.614 221.216 114.528 220.772 113.7 219.884C112.884 218.996 112.476 217.754 112.476 216.158C112.476 214.766 112.716 213.566 113.196 212.558C113.676 211.55 114.324 210.794 115.14 210.29C115.692 209.954 116.262 209.69 116.85 209.498C117.45 209.294 117.942 209.168 118.326 209.12C118.722 209.072 119.13 208.976 119.55 208.832C119.97 208.676 120.318 208.46 120.594 208.184V209.696C120.258 209.936 119.844 210.116 119.352 210.236C118.86 210.344 118.314 210.476 117.714 210.632C117.114 210.788 116.538 211.028 115.986 211.352C115.446 211.676 115.026 212.084 114.726 212.576C114.426 213.068 114.162 213.656 113.934 214.34C114.246 213.86 114.69 213.47 115.266 213.17C115.842 212.87 116.46 212.72 117.12 212.72C118.284 212.72 119.28 213.11 120.108 213.89C120.948 214.67 121.368 215.684 121.368 216.932ZM113.916 216.968C113.916 217.796 114.192 218.486 114.744 219.038C115.296 219.578 116.022 219.848 116.922 219.848C117.846 219.848 118.578 219.578 119.118 219.038C119.658 218.498 119.928 217.808 119.928 216.968C119.928 216.128 119.658 215.438 119.118 214.898C118.578 214.358 117.846 214.088 116.922 214.088C116.058 214.088 115.338 214.382 114.762 214.97C114.198 215.546 113.916 216.212 113.916 216.968ZM124.751 213.8C125.723 212.696 126.887 212.144 128.243 212.144C129.479 212.144 130.505 212.576 131.321 213.44C132.149 214.304 132.563 215.384 132.563 216.68C132.563 217.976 132.149 219.056 131.321 219.92C130.505 220.784 129.479 221.216 128.243 221.216C126.875 221.216 125.759 220.712 124.895 219.704V224.96H123.455V212.36H124.751V213.8ZM130.241 219.002C130.829 218.414 131.123 217.64 131.123 216.68C131.123 215.72 130.829 214.946 130.241 214.358C129.665 213.77 128.945 213.476 128.081 213.476C127.349 213.476 126.701 213.68 126.137 214.088C125.573 214.496 125.159 215 124.895 215.6V217.76C125.159 218.36 125.573 218.864 126.137 219.272C126.701 219.68 127.349 219.884 128.081 219.884C128.945 219.884 129.665 219.59 130.241 219.002ZM141.655 219.2C141.655 219.644 141.877 219.866 142.321 219.866C142.513 219.866 142.735 219.824 142.987 219.74V220.91C142.627 221.042 142.267 221.108 141.907 221.108C141.079 221.108 140.551 220.76 140.323 220.064C139.399 220.832 138.277 221.216 136.957 221.216C136.117 221.216 135.397 220.994 134.797 220.55C134.209 220.094 133.915 219.44 133.915 218.588C133.915 217.568 134.293 216.83 135.049 216.374C135.817 215.906 136.741 215.672 137.821 215.672C138.613 215.672 139.411 215.762 140.215 215.942V215.636C140.215 214.976 139.999 214.454 139.567 214.07C139.135 213.674 138.529 213.476 137.749 213.476C136.657 213.476 135.607 213.692 134.599 214.124V212.72C135.727 212.336 136.825 212.144 137.893 212.144C139.069 212.144 139.987 212.462 140.647 213.098C141.319 213.722 141.655 214.628 141.655 215.816V219.2ZM135.391 218.516C135.391 218.996 135.571 219.362 135.931 219.614C136.303 219.854 136.747 219.974 137.263 219.974C138.451 219.974 139.435 219.554 140.215 218.714V217.13C139.399 216.962 138.667 216.878 138.019 216.878C137.287 216.878 136.663 217.01 136.147 217.274C135.643 217.526 135.391 217.94 135.391 218.516ZM147.727 221H146.287V213.692H143.101V212.36H150.895V213.692H147.727V221ZM156.633 221H152.529V212.36H153.969V215.384H156.633C157.665 215.384 158.481 215.648 159.081 216.176C159.681 216.704 159.981 217.376 159.981 218.192C159.981 219.008 159.681 219.68 159.081 220.208C158.481 220.736 157.665 221 156.633 221ZM153.969 216.68V219.704H156.453C157.101 219.704 157.605 219.578 157.965 219.326C158.337 219.074 158.523 218.696 158.523 218.192C158.523 217.688 158.337 217.31 157.965 217.058C157.605 216.806 157.101 216.68 156.453 216.68H153.969Z" fill="#9B9BB6"/>
<path d="M86 237.5H337" stroke="black"/>
<path d="M332.165 219.75L328 216L336.33 216L332.165 219.75Z" fill="#000C2C"/>
<path d="M87.81 268.79C87.81 267.398 88.14 266.192 88.8 265.172C89.46 264.14 90.282 263.384 91.266 262.904C92.25 262.424 93.306 262.184 94.434 262.184C95.73 262.184 96.912 262.466 97.98 263.03V264.542C97.068 263.93 95.97 263.624 94.686 263.624C93.246 263.624 91.998 264.068 90.942 264.956C89.886 265.832 89.352 267.11 89.34 268.79C89.34 269.858 89.61 270.782 90.15 271.562C90.702 272.342 91.374 272.906 92.166 273.254C92.97 273.602 93.828 273.776 94.74 273.776C96.096 273.776 97.206 273.47 98.07 272.858V274.37C96.978 274.934 95.76 275.216 94.416 275.216C93.612 275.216 92.82 275.078 92.04 274.802C91.26 274.514 90.552 274.112 89.916 273.596C89.28 273.068 88.77 272.39 88.386 271.562C88.002 270.722 87.81 269.798 87.81 268.79ZM108.262 275H106.822V267.692H103.636V266.36H111.43V267.692H108.262V275ZM112.189 270.68C112.189 269.264 112.621 268.154 113.485 267.35C114.361 266.546 115.363 266.144 116.491 266.144C117.547 266.144 118.417 266.408 119.101 266.936C119.797 267.464 120.253 268.118 120.469 268.898C120.685 269.666 120.697 270.47 120.505 271.31H113.629C113.713 272.162 114.091 272.804 114.763 273.236C115.435 273.668 116.245 273.884 117.193 273.884C118.249 273.884 119.197 273.65 120.037 273.182V274.586C119.233 275.006 118.213 275.216 116.977 275.216C115.609 275.216 114.469 274.826 113.557 274.046C112.645 273.266 112.189 272.144 112.189 270.68ZM119.227 270.05C119.263 269.798 119.245 269.534 119.173 269.258C119.101 268.982 118.969 268.706 118.777 268.43C118.597 268.154 118.315 267.926 117.931 267.746C117.547 267.566 117.097 267.476 116.581 267.476C115.801 267.476 115.123 267.704 114.547 268.16C113.983 268.616 113.677 269.246 113.629 270.05H119.227ZM124.049 275H122.609V266.36H128.927V267.692H124.049V275ZM131.03 274.01C130.118 273.194 129.662 272.084 129.662 270.68C129.662 269.276 130.118 268.172 131.03 267.368C131.942 266.552 133.022 266.144 134.27 266.144C135.53 266.144 136.61 266.552 137.51 267.368C138.422 268.172 138.878 269.276 138.878 270.68C138.878 272.084 138.422 273.194 137.51 274.01C136.61 274.814 135.53 275.216 134.27 275.216C133.022 275.216 131.942 274.814 131.03 274.01ZM136.538 273.002C137.138 272.426 137.438 271.652 137.438 270.68C137.438 269.708 137.138 268.94 136.538 268.376C135.938 267.8 135.182 267.512 134.27 267.512C133.358 267.512 132.602 267.8 132.002 268.376C131.402 268.94 131.102 269.708 131.102 270.68C131.102 271.652 131.402 272.426 132.002 273.002C132.602 273.566 133.358 273.848 134.27 273.848C135.182 273.848 135.938 273.566 136.538 273.002ZM142.311 275H140.943V266.36H142.509L145.659 271.148L148.809 266.36H150.375V275H149.007V268.484L146.199 272.75H145.119L142.311 268.484V275Z" fill="#37376D"/>
<path d="M87 329H630" stroke="black"/>
<rect x="86" y="289" width="123" height="29" rx="14.5" fill="#DDDDE6"/>
<path d="M109.638 296.4H111.15V309H109.638V303.402H102.168V309H100.656V296.4H102.168V301.962H109.638V296.4ZM114.711 308.01C113.799 307.194 113.343 306.084 113.343 304.68C113.343 303.276 113.799 302.172 114.711 301.368C115.623 300.552 116.703 300.144 117.951 300.144C119.211 300.144 120.291 300.552 121.191 301.368C122.103 302.172 122.559 303.276 122.559 304.68C122.559 306.084 122.103 307.194 121.191 308.01C120.291 308.814 119.211 309.216 117.951 309.216C116.703 309.216 115.623 308.814 114.711 308.01ZM120.219 307.002C120.819 306.426 121.119 305.652 121.119 304.68C121.119 303.708 120.819 302.94 120.219 302.376C119.619 301.8 118.863 301.512 117.951 301.512C117.039 301.512 116.283 301.8 115.683 302.376C115.083 302.94 114.783 303.708 114.783 304.68C114.783 305.652 115.083 306.426 115.683 307.002C116.283 307.566 117.039 307.848 117.951 307.848C118.863 307.848 119.619 307.566 120.219 307.002ZM129.503 309H124.625V300.36H129.359C130.139 300.36 130.775 300.564 131.267 300.972C131.771 301.38 132.023 301.956 132.023 302.7C132.023 303.132 131.915 303.522 131.699 303.87C131.483 304.218 131.207 304.464 130.871 304.608C131.267 304.74 131.603 304.98 131.879 305.328C132.155 305.676 132.293 306.102 132.293 306.606C132.293 307.338 132.053 307.92 131.573 308.352C131.105 308.784 130.415 309 129.503 309ZM126.065 305.256V307.74H129.305C130.337 307.74 130.853 307.332 130.853 306.516C130.853 305.676 130.355 305.256 129.359 305.256H126.065ZM126.065 301.62V304.014H129.215C130.115 304.014 130.565 303.624 130.565 302.844C130.565 302.4 130.433 302.088 130.169 301.908C129.905 301.716 129.587 301.62 129.215 301.62H126.065ZM135.71 309H134.486V300.36H135.926V306.678L141.218 300.36H142.442V309H141.002V302.682L135.71 309ZM146.543 309H145.103V300.36H146.543V304.014H151.547V300.36H152.987V309H151.547V305.346H146.543V309ZM157.09 309H155.65V300.36H157.09V303.96H158.836L161.572 300.36H163.246L159.97 304.662L163.642 309H161.95L158.782 305.292H157.09V309ZM172.022 307.2C172.022 307.644 172.244 307.866 172.688 307.866C172.88 307.866 173.102 307.824 173.354 307.74V308.91C172.994 309.042 172.634 309.108 172.274 309.108C171.446 309.108 170.918 308.76 170.69 308.064C169.766 308.832 168.644 309.216 167.324 309.216C166.484 309.216 165.764 308.994 165.164 308.55C164.576 308.094 164.282 307.44 164.282 306.588C164.282 305.568 164.66 304.83 165.416 304.374C166.184 303.906 167.108 303.672 168.188 303.672C168.98 303.672 169.778 303.762 170.582 303.942V303.636C170.582 302.976 170.366 302.454 169.934 302.07C169.502 301.674 168.896 301.476 168.116 301.476C167.024 301.476 165.974 301.692 164.966 302.124V300.72C166.094 300.336 167.192 300.144 168.26 300.144C169.436 300.144 170.354 300.462 171.014 301.098C171.686 301.722 172.022 302.628 172.022 303.816V307.2ZM165.758 306.516C165.758 306.996 165.938 307.362 166.298 307.614C166.67 307.854 167.114 307.974 167.63 307.974C168.818 307.974 169.802 307.554 170.582 306.714V305.13C169.766 304.962 169.034 304.878 168.386 304.878C167.654 304.878 167.03 305.01 166.514 305.274C166.01 305.526 165.758 305.94 165.758 306.516Z" fill="#37376D"/>
<circle cx="193.5" cy="303.5" r="10.5" fill="#AFAFBD"/>
<path fill-rule="evenodd" clip-rule="evenodd" d="M193.5 302.793L190.672 299.964L189.965 300.671L192.793 303.5L189.965 306.329L190.672 307.036L193.5 304.207L196.329 307.035L197.036 306.328L194.208 303.5L197.036 300.672L196.329 299.965L193.5 302.793Z" fill="#37376D"/>
<path d="M219 303.5C219 295.492 225.492 289 233.5 289H350.5C358.508 289 365 295.492 365 303.5C365 311.508 358.508 318 350.5 318H233.5C225.492 318 219 311.508 219 303.5Z" fill="#DDDDE6"/>
<path d="M233.836 309H232.036L236.914 302.52L232.306 296.4H234.106L237.814 301.314L241.504 296.4H243.304L238.714 302.52L243.574 309H241.774L237.814 303.726L233.836 309ZM246.07 309H244.846V300.36H246.286V306.678L251.578 300.36H252.802V309H251.362V302.682L246.07 309ZM259.063 309H257.623V301.692H254.437V300.36H262.231V301.692H259.063V309ZM269.788 309H268.348V300.36H276.232V309H274.792V301.692H269.788V309ZM280.191 301.8C281.163 300.696 282.327 300.144 283.683 300.144C284.919 300.144 285.945 300.576 286.761 301.44C287.589 302.304 288.003 303.384 288.003 304.68C288.003 305.976 287.589 307.056 286.761 307.92C285.945 308.784 284.919 309.216 283.683 309.216C282.315 309.216 281.199 308.712 280.335 307.704V312.96H278.895V300.36H280.191V301.8ZM285.681 307.002C286.269 306.414 286.562 305.64 286.562 304.68C286.562 303.72 286.269 302.946 285.681 302.358C285.105 301.77 284.385 301.476 283.521 301.476C282.789 301.476 282.141 301.68 281.577 302.088C281.013 302.496 280.599 303 280.335 303.6V305.76C280.599 306.36 281.013 306.864 281.577 307.272C282.141 307.68 282.789 307.884 283.521 307.884C284.385 307.884 285.105 307.59 285.681 307.002ZM290.848 308.01C289.936 307.194 289.48 306.084 289.48 304.68C289.48 303.276 289.936 302.172 290.848 301.368C291.76 300.552 292.84 300.144 294.088 300.144C295.348 300.144 296.428 300.552 297.328 301.368C298.24 302.172 298.696 303.276 298.696 304.68C298.696 306.084 298.24 307.194 297.328 308.01C296.428 308.814 295.348 309.216 294.088 309.216C292.84 309.216 291.76 308.814 290.848 308.01ZM296.356 307.002C296.956 306.426 297.256 305.652 297.256 304.68C297.256 303.708 296.956 302.94 296.356 302.376C295.756 301.8 295 301.512 294.088 301.512C293.176 301.512 292.42 301.8 291.82 302.376C291.22 302.94 290.92 303.708 290.92 304.68C290.92 305.652 291.22 306.426 291.82 307.002C292.42 307.566 293.176 307.848 294.088 307.848C295 307.848 295.756 307.566 296.356 307.002ZM301.073 311.34H299.669V307.704H300.821C301.841 305.904 302.333 303.456 302.297 300.36H308.741V307.704H310.001V311.34H308.597V309H301.073V311.34ZM303.683 301.656C303.623 304.02 303.191 306.036 302.387 307.704H307.301V301.656H303.683ZM318.944 307.2C318.944 307.644 319.166 307.866 319.61 307.866C319.802 307.866 320.024 307.824 320.276 307.74V308.91C319.916 309.042 319.556 309.108 319.196 309.108C318.368 309.108 317.84 308.76 317.612 308.064C316.688 308.832 315.566 309.216 314.246 309.216C313.406 309.216 312.686 308.994 312.086 308.55C311.498 308.094 311.204 307.44 311.204 306.588C311.204 305.568 311.582 304.83 312.338 304.374C313.106 303.906 314.03 303.672 315.11 303.672C315.902 303.672 316.7 303.762 317.504 303.942V303.636C317.504 302.976 317.288 302.454 316.856 302.07C316.424 301.674 315.818 301.476 315.038 301.476C313.946 301.476 312.896 301.692 311.888 302.124V300.72C313.016 300.336 314.114 300.144 315.182 300.144C316.358 300.144 317.276 300.462 317.936 301.098C318.608 301.722 318.944 302.628 318.944 303.816V307.2ZM312.68 306.516C312.68 306.996 312.86 307.362 313.22 307.614C313.592 307.854 314.036 307.974 314.552 307.974C315.74 307.974 316.724 307.554 317.504 306.714V305.13C316.688 304.962 315.956 304.878 315.308 304.878C314.576 304.878 313.952 305.01 313.436 305.274C312.932 305.526 312.68 305.94 312.68 306.516ZM333.934 309H332.314L329.38 305.382H327.994V309H326.554V305.382H325.168L322.234 309H320.614L324.052 304.662L321.01 300.36H322.612L325.24 304.05H326.554V300.36H327.994V304.05H329.308L331.936 300.36H333.538L330.496 304.662L333.934 309Z" fill="#37376D"/>
<circle cx="349.5" cy="303.5" r="10.5" fill="#AFAFBD"/>
<path fill-rule="evenodd" clip-rule="evenodd" d="M349.5 302.793L346.672 299.964L345.965 300.671L348.793 303.5L345.965 306.329L346.672 307.036L349.5 304.207L352.329 307.035L353.036 306.328L350.208 303.5L353.036 300.672L352.329 299.965L349.5 302.793Z" fill="#37376D"/>
<path d="M375 303.5C375 295.492 381.492 289 389.5 289H500.5C508.508 289 515 295.492 515 303.5C515 311.508 508.508 318 500.5 318H389.5C381.492 318 375 311.508 375 303.5Z" fill="#DDDDE6"/>
<path d="M388.81 302.79C388.81 301.398 389.14 300.192 389.8 299.172C390.46 298.14 391.282 297.384 392.266 296.904C393.25 296.424 394.306 296.184 395.434 296.184C396.73 296.184 397.912 296.466 398.98 297.03V298.542C398.068 297.93 396.97 297.624 395.686 297.624C394.246 297.624 392.998 298.068 391.942 298.956C390.886 299.832 390.352 301.11 390.34 302.79C390.34 303.858 390.61 304.782 391.15 305.562C391.702 306.342 392.374 306.906 393.166 307.254C393.97 307.602 394.828 307.776 395.74 307.776C397.096 307.776 398.206 307.47 399.07 306.858V308.37C397.978 308.934 396.76 309.216 395.416 309.216C394.612 309.216 393.82 309.078 393.04 308.802C392.26 308.514 391.552 308.112 390.916 307.596C390.28 307.068 389.77 306.39 389.386 305.562C389.002 304.722 388.81 303.798 388.81 302.79ZM404.253 307.362L407.169 300.36H408.699L404.451 310.296C403.623 312.216 402.537 313.176 401.193 313.176C400.869 313.176 400.557 313.134 400.257 313.05V311.808C400.509 311.88 400.761 311.916 401.013 311.916C401.937 311.916 402.681 311.214 403.245 309.81L403.569 309.018L399.465 300.36H400.995L404.253 307.362ZM411.743 309H410.303V300.36H418.187V309H416.747V301.692H411.743V309ZM420.256 304.68C420.256 303.264 420.688 302.154 421.552 301.35C422.428 300.546 423.43 300.144 424.558 300.144C425.614 300.144 426.484 300.408 427.168 300.936C427.864 301.464 428.32 302.118 428.536 302.898C428.752 303.666 428.764 304.47 428.572 305.31H421.696C421.78 306.162 422.158 306.804 422.83 307.236C423.502 307.668 424.312 307.884 425.26 307.884C426.316 307.884 427.264 307.65 428.104 307.182V308.586C427.3 309.006 426.28 309.216 425.044 309.216C423.676 309.216 422.536 308.826 421.624 308.046C420.712 307.266 420.256 306.144 420.256 304.68ZM427.294 304.05C427.33 303.798 427.312 303.534 427.24 303.258C427.168 302.982 427.036 302.706 426.844 302.43C426.664 302.154 426.382 301.926 425.998 301.746C425.614 301.566 425.164 301.476 424.648 301.476C423.868 301.476 423.19 301.704 422.614 302.16C422.05 302.616 421.744 303.246 421.696 304.05H427.294ZM431.972 301.8C432.944 300.696 434.108 300.144 435.464 300.144C436.7 300.144 437.726 300.576 438.542 301.44C439.37 302.304 439.784 303.384 439.784 304.68C439.784 305.976 439.37 307.056 438.542 307.92C437.726 308.784 436.7 309.216 435.464 309.216C434.096 309.216 432.98 308.712 432.116 307.704V312.96H430.676V300.36H431.972V301.8ZM437.462 307.002C438.05 306.414 438.344 305.64 438.344 304.68C438.344 303.72 438.05 302.946 437.462 302.358C436.886 301.77 436.166 301.476 435.302 301.476C434.57 301.476 433.922 301.68 433.358 302.088C432.794 302.496 432.38 303 432.116 303.6V305.76C432.38 306.36 432.794 306.864 433.358 307.272C433.922 307.68 434.57 307.884 435.302 307.884C436.166 307.884 436.886 307.59 437.462 307.002ZM450.747 311.34H449.343V309H441.855V300.36H443.295V307.668H448.029V300.36H449.469V307.668H450.747V311.34ZM451.896 304.68C451.896 303.264 452.328 302.154 453.192 301.35C454.068 300.546 455.07 300.144 456.198 300.144C457.254 300.144 458.124 300.408 458.808 300.936C459.504 301.464 459.96 302.118 460.176 302.898C460.392 303.666 460.404 304.47 460.212 305.31H453.336C453.42 306.162 453.798 306.804 454.47 307.236C455.142 307.668 455.952 307.884 456.9 307.884C457.956 307.884 458.904 307.65 459.744 307.182V308.586C458.94 309.006 457.92 309.216 456.684 309.216C455.316 309.216 454.176 308.826 453.264 308.046C452.352 307.266 451.896 306.144 451.896 304.68ZM458.934 304.05C458.97 303.798 458.952 303.534 458.88 303.258C458.808 302.982 458.676 302.706 458.484 302.43C458.304 302.154 458.022 301.926 457.638 301.746C457.254 301.566 456.804 301.476 456.288 301.476C455.508 301.476 454.83 301.704 454.254 302.16C453.69 302.616 453.384 303.246 453.336 304.05H458.934ZM463.756 309H462.316V300.36H463.756V304.014H468.76V300.36H470.2V309H468.76V305.346H463.756V309ZM479.883 307.2C479.883 307.644 480.105 307.866 480.549 307.866C480.741 307.866 480.963 307.824 481.215 307.74V308.91C480.855 309.042 480.495 309.108 480.135 309.108C479.307 309.108 478.779 308.76 478.551 308.064C477.627 308.832 476.505 309.216 475.185 309.216C474.345 309.216 473.625 308.994 473.025 308.55C472.437 308.094 472.143 307.44 472.143 306.588C472.143 305.568 472.521 304.83 473.277 304.374C474.045 303.906 474.969 303.672 476.049 303.672C476.841 303.672 477.639 303.762 478.443 303.942V303.636C478.443 302.976 478.227 302.454 477.795 302.07C477.363 301.674 476.757 301.476 475.977 301.476C474.885 301.476 473.835 301.692 472.827 302.124V300.72C473.955 300.336 475.053 300.144 476.121 300.144C477.297 300.144 478.215 300.462 478.875 301.098C479.547 301.722 479.883 302.628 479.883 303.816V307.2ZM473.619 306.516C473.619 306.996 473.799 307.362 474.159 307.614C474.531 307.854 474.975 307.974 475.491 307.974C476.679 307.974 477.663 307.554 478.443 306.714V305.13C477.627 304.962 476.895 304.878 476.247 304.878C475.515 304.878 474.891 305.01 474.375 305.274C473.871 305.526 473.619 305.94 473.619 306.516Z" fill="#37376D"/>
<circle cx="499.5" cy="303.5" r="10.5" fill="#AFAFBD"/>
<path fill-rule="evenodd" clip-rule="evenodd" d="M499.5 302.793L496.672 299.964L495.965 300.671L498.793 303.5L495.965 306.329L496.672 307.036L499.5 304.207L502.329 307.035L503.036 306.328L500.208 303.5L503.036 300.672L502.329 299.965L499.5 302.793Z" fill="#37376D"/>
<defs>
<filter id="filter0_c" x="0" y="0" width="719" height="423" filterUnits="userSpaceOnUse" color-interpolation-filters="sRGB">
<feFlood flood-opacity="0" result="BackgroundImageFix"/>
<feColorMatrix in="SourceAlpha" type="matrix" values="0 0 0 0 0 0 0 0 0 0 0 0 0 0 0 0 0 0 127 0" result="hardAlpha"/>
<feOffset dy="4"/>
<feGaussianBlur stdDeviation="25"/>
<feComposite in2="hardAlpha" operator="out"/>
<feColorMatrix type="matrix" values="0 0 0 0 0 0 0 0 0 0 0 0 0 0 0 0 0 0 0.1 0"/>
<feBlend mode="normal" in2="BackgroundImageFix" result="effect1_dropShadow"/>
<feBlend mode="normal" in="SourceGraphic" in2="effect1_dropShadow" result="shape"/>
</filter>
</defs>
</svg>
