<svg width="719" height="423" viewBox="0 0 719 423" fill="none" xmlns="http://www.w3.org/2000/svg">
<g filter="url(#filter0_d)">
<path d="M50 61C50 52.7157 56.7157 46 65 46H654C662.284 46 669 52.7157 669 61V354C669 362.284 662.284 369 654 369H65C56.7157 369 50 362.284 50 354V61Z" fill="white"/>
</g>
<path d="M96.6383 82.3999H98.1503V94.9999H96.6383V89.4019H89.1683V94.9999H87.6562V82.3999H89.1683V87.9619H96.6383V82.3999Z" fill="#37376D"/>
<path d="M108.01 93.1999C108.01 93.6439 108.232 93.8659 108.676 93.8659C108.868 93.8659 109.09 93.8239 109.342 93.7399V94.9099C108.982 95.0419 108.622 95.1079 108.262 95.1079C107.434 95.1079 106.906 94.7599 106.678 94.0639C105.754 94.8319 104.632 95.2159 103.312 95.2159C102.472 95.2159 101.752 94.9939 101.152 94.5499C100.564 94.0939 100.27 93.4399 100.27 92.5879C100.27 91.5679 100.648 90.8299 101.404 90.3739C102.172 89.9059 103.096 89.6719 104.176 89.6719C104.968 89.6719 105.766 89.7619 106.57 89.9419V89.6359C106.57 88.9759 106.354 88.4539 105.922 88.0699C105.49 87.6739 104.884 87.4759 104.104 87.4759C103.012 87.4759 101.962 87.6919 100.954 88.1239V86.7199C102.082 86.3359 103.18 86.1439 104.248 86.1439C105.424 86.1439 106.342 86.4619 107.002 87.0979C107.674 87.7219 108.01 88.6279 108.01 89.8159V93.1999ZM101.746 92.5159C101.746 92.9959 101.926 93.3619 102.286 93.6139C102.658 93.8539 103.102 93.9739 103.618 93.9739C104.806 93.9739 105.79 93.5539 106.57 92.7139V91.1299C105.754 90.9619 105.022 90.8779 104.374 90.8779C103.642 90.8779 103.018 91.0099 102.502 91.2739C101.998 91.5259 101.746 91.9399 101.746 92.5159Z" fill="#37376D"/>
<path d="M117.349 92.6779C117.349 93.4819 117.001 94.1059 116.305 94.5499C115.621 94.9939 114.673 95.2159 113.461 95.2159C112.249 95.2159 111.187 94.9939 110.275 94.5499V93.1819C111.151 93.6499 112.153 93.8839 113.281 93.8839C115.033 93.8839 115.909 93.4279 115.909 92.5159C115.909 91.6879 115.273 91.2739 114.001 91.2739H112.111V89.9419H114.001C115.153 89.9419 115.729 89.5699 115.729 88.8259C115.729 88.3699 115.513 88.0279 115.081 87.7999C114.649 87.5719 114.073 87.4579 113.353 87.4579C112.309 87.4579 111.331 87.6859 110.419 88.1419V86.7919C111.391 86.3479 112.423 86.1259 113.515 86.1259C114.691 86.1259 115.591 86.3539 116.215 86.8099C116.851 87.2539 117.169 87.8599 117.169 88.6279C117.169 89.1439 117.025 89.5699 116.737 89.9059C116.449 90.2419 116.059 90.4639 115.567 90.5719C116.083 90.7039 116.509 90.9559 116.845 91.3279C117.181 91.6999 117.349 92.1499 117.349 92.6779Z" fill="#37376D"/>
<path d="M124.343 94.9999H119.465V86.3599H124.199C124.979 86.3599 125.615 86.5639 126.107 86.9719C126.611 87.3799 126.863 87.9559 126.863 88.6999C126.863 89.1319 126.755 89.5219 126.539 89.8699C126.323 90.2179 126.047 90.4639 125.711 90.6079C126.107 90.7399 126.443 90.9799 126.719 91.3279C126.995 91.6759 127.133 92.1019 127.133 92.6059C127.133 93.3379 126.893 93.9199 126.413 94.3519C125.945 94.7839 125.255 94.9999 124.343 94.9999ZM120.905 91.2559V93.7399H124.145C125.177 93.7399 125.693 93.3319 125.693 92.5159C125.693 91.6759 125.195 91.2559 124.199 91.2559H120.905ZM120.905 87.6199V90.0139H124.055C124.955 90.0139 125.405 89.6239 125.405 88.8439C125.405 88.3999 125.273 88.0879 125.009 87.9079C124.745 87.7159 124.427 87.6199 124.055 87.6199H120.905Z" fill="#37376D"/>
<path d="M136.346 93.1999C136.346 93.6439 136.568 93.8659 137.012 93.8659C137.204 93.8659 137.426 93.8239 137.678 93.7399V94.9099C137.318 95.0419 136.958 95.1079 136.598 95.1079C135.77 95.1079 135.242 94.7599 135.014 94.0639C134.09 94.8319 132.968 95.2159 131.648 95.2159C130.808 95.2159 130.088 94.9939 129.488 94.5499C128.9 94.0939 128.606 93.4399 128.606 92.5879C128.606 91.5679 128.984 90.8299 129.74 90.3739C130.508 89.9059 131.432 89.6719 132.512 89.6719C133.304 89.6719 134.102 89.7619 134.906 89.9419V89.6359C134.906 88.9759 134.69 88.4539 134.258 88.0699C133.826 87.6739 133.22 87.4759 132.44 87.4759C131.348 87.4759 130.298 87.6919 129.29 88.1239V86.7199C130.418 86.3359 131.516 86.1439 132.584 86.1439C133.76 86.1439 134.678 86.4619 135.338 87.0979C136.01 87.7219 136.346 88.6279 136.346 89.8159V93.1999ZM130.082 92.5159C130.082 92.9959 130.262 93.3619 130.622 93.6139C130.994 93.8539 131.438 93.9739 131.954 93.9739C133.142 93.9739 134.126 93.5539 134.906 92.7139V91.1299C134.09 90.9619 133.358 90.8779 132.71 90.8779C131.978 90.8779 131.354 91.0099 130.838 91.2739C130.334 91.5259 130.082 91.9399 130.082 92.5159Z" fill="#37376D"/>
<path d="M140.663 94.9999H139.223V86.3599H140.663V90.0139H145.667V86.3599H147.107V94.9999H145.667V91.3459H140.663V94.9999Z" fill="#37376D"/>
<path d="M150.994 94.9999H149.77V86.3599H151.21V92.6779L156.502 86.3599H157.726V94.9999H156.286V88.6819L150.994 94.9999Z" fill="#37376D"/>
<path d="M159.793 90.6799C159.793 89.2639 160.225 88.1539 161.089 87.3499C161.965 86.5459 162.967 86.1439 164.095 86.1439C165.151 86.1439 166.021 86.4079 166.705 86.9359C167.401 87.4639 167.857 88.1179 168.073 88.8979C168.289 89.6659 168.301 90.4699 168.109 91.3099H161.233C161.317 92.1619 161.695 92.8039 162.367 93.2359C163.039 93.6679 163.849 93.8839 164.797 93.8839C165.853 93.8839 166.801 93.6499 167.641 93.1819V94.5859C166.837 95.0059 165.817 95.2159 164.581 95.2159C163.213 95.2159 162.073 94.8259 161.161 94.0459C160.249 93.2659 159.793 92.1439 159.793 90.6799ZM166.831 90.0499C166.867 89.7979 166.849 89.5339 166.777 89.2579C166.705 88.9819 166.573 88.7059 166.381 88.4299C166.201 88.1539 165.919 87.9259 165.535 87.7459C165.151 87.5659 164.701 87.4759 164.185 87.4759C163.405 87.4759 162.727 87.7039 162.151 88.1599C161.587 88.6159 161.281 89.2459 161.233 90.0499H166.831Z" fill="#37376D"/>
<path d="M87.6562 119.4H92.8222C94.1423 119.4 95.1863 119.676 95.9543 120.228C96.7222 120.768 97.1063 121.554 97.1063 122.586C97.1063 123.33 96.9083 123.942 96.5123 124.422C96.1163 124.89 95.6423 125.208 95.0903 125.376C95.7623 125.556 96.3503 125.904 96.8543 126.42C97.3583 126.924 97.6103 127.632 97.6103 128.544C97.6103 129.096 97.5023 129.582 97.2863 130.002C97.0822 130.422 96.8183 130.758 96.4943 131.01C96.1823 131.25 95.8103 131.448 95.3783 131.604C94.9583 131.76 94.5503 131.868 94.1543 131.928C93.7703 131.976 93.3743 132 92.9663 132H87.6562V119.4ZM96.0802 128.382C96.0802 126.93 95.0782 126.204 93.0743 126.204H89.1683V130.56H92.6602C93.0442 130.56 93.3682 130.554 93.6323 130.542C93.8963 130.518 94.1962 130.47 94.5323 130.398C94.8683 130.314 95.1383 130.2 95.3423 130.056C95.5463 129.9 95.7203 129.684 95.8643 129.408C96.0082 129.12 96.0802 128.778 96.0802 128.382ZM95.5763 122.802C95.5763 122.094 95.3302 121.59 94.8383 121.29C94.3583 120.99 93.6443 120.84 92.6962 120.84H89.1683V124.764H93.1102C93.8302 124.764 94.4183 124.608 94.8743 124.296C95.3422 123.972 95.5763 123.474 95.5763 122.802Z" fill="#9B9BB6"/>
<path d="M104.568 132H99.6897V123.36H104.424C105.204 123.36 105.84 123.564 106.332 123.972C106.836 124.38 107.088 124.956 107.088 125.7C107.088 126.132 106.98 126.522 106.764 126.87C106.548 127.218 106.272 127.464 105.936 127.608C106.332 127.74 106.668 127.98 106.944 128.328C107.22 128.676 107.358 129.102 107.358 129.606C107.358 130.338 107.118 130.92 106.638 131.352C106.17 131.784 105.48 132 104.568 132ZM101.13 128.256V130.74H104.37C105.402 130.74 105.918 130.332 105.918 129.516C105.918 128.676 105.42 128.256 104.424 128.256H101.13ZM101.13 124.62V127.014H104.28C105.18 127.014 105.63 126.624 105.63 125.844C105.63 125.4 105.498 125.088 105.234 124.908C104.97 124.716 104.652 124.62 104.28 124.62H101.13Z" fill="#9B9BB6"/>
<path d="M108.957 127.68C108.957 126.264 109.389 125.154 110.253 124.35C111.129 123.546 112.131 123.144 113.259 123.144C114.315 123.144 115.185 123.408 115.869 123.936C116.565 124.464 117.021 125.118 117.237 125.898C117.453 126.666 117.465 127.47 117.273 128.31H110.397C110.481 129.162 110.859 129.804 111.531 130.236C112.203 130.668 113.013 130.884 113.961 130.884C115.017 130.884 115.965 130.65 116.805 130.182V131.586C116.001 132.006 114.981 132.216 113.745 132.216C112.377 132.216 111.237 131.826 110.325 131.046C109.413 130.266 108.957 129.144 108.957 127.68ZM115.995 127.05C116.031 126.798 116.013 126.534 115.941 126.258C115.869 125.982 115.737 125.706 115.545 125.43C115.365 125.154 115.083 124.926 114.699 124.746C114.315 124.566 113.865 124.476 113.349 124.476C112.569 124.476 111.891 124.704 111.315 125.16C110.751 125.616 110.445 126.246 110.397 127.05H115.995Z" fill="#9B9BB6"/>
<path d="M119.777 134.34H118.373V130.704H119.525C120.545 128.904 121.037 126.456 121.001 123.36H127.445V130.704H128.705V134.34H127.301V132H119.777V134.34ZM122.387 124.656C122.327 127.02 121.895 129.036 121.091 130.704H126.005V124.656H122.387Z" fill="#9B9BB6"/>
<path d="M131.851 132H130.627V123.36H132.067V129.678L137.359 123.36H138.583V132H137.143V125.682L131.851 132Z" fill="#9B9BB6"/>
<path d="M144.844 132H143.404V124.692H140.218V123.36H148.012V124.692H144.844V132Z" fill="#9B9BB6"/>
<path d="M148.771 127.68C148.771 126.264 149.203 125.154 150.067 124.35C150.943 123.546 151.945 123.144 153.073 123.144C154.129 123.144 154.999 123.408 155.683 123.936C156.379 124.464 156.835 125.118 157.051 125.898C157.267 126.666 157.279 127.47 157.087 128.31H150.211C150.295 129.162 150.673 129.804 151.345 130.236C152.017 130.668 152.827 130.884 153.775 130.884C154.831 130.884 155.779 130.65 156.619 130.182V131.586C155.815 132.006 154.795 132.216 153.559 132.216C152.191 132.216 151.051 131.826 150.139 131.046C149.227 130.266 148.771 129.144 148.771 127.68ZM155.809 127.05C155.845 126.798 155.827 126.534 155.755 126.258C155.683 125.982 155.551 125.706 155.359 125.43C155.179 125.154 154.897 124.926 154.513 124.746C154.129 124.566 153.679 124.476 153.163 124.476C152.383 124.476 151.705 124.704 151.129 125.16C150.565 125.616 150.259 126.246 150.211 127.05H155.809Z" fill="#9B9BB6"/>
<path d="M167.274 132H165.834V124.692H162.648V123.36H170.442V124.692H167.274V132Z" fill="#9B9BB6"/>
<path d="M171.201 127.68C171.201 126.264 171.633 125.154 172.497 124.35C173.373 123.546 174.375 123.144 175.503 123.144C176.559 123.144 177.429 123.408 178.113 123.936C178.809 124.464 179.265 125.118 179.481 125.898C179.697 126.666 179.709 127.47 179.517 128.31H172.641C172.725 129.162 173.103 129.804 173.775 130.236C174.447 130.668 175.257 130.884 176.205 130.884C177.261 130.884 178.209 130.65 179.049 130.182V131.586C178.245 132.006 177.225 132.216 175.989 132.216C174.621 132.216 173.481 131.826 172.569 131.046C171.657 130.266 171.201 129.144 171.201 127.68ZM178.239 127.05C178.275 126.798 178.257 126.534 178.185 126.258C178.113 125.982 177.981 125.706 177.789 125.43C177.609 125.154 177.327 124.926 176.943 124.746C176.559 124.566 176.109 124.476 175.593 124.476C174.813 124.476 174.135 124.704 173.559 125.16C172.995 125.616 172.689 126.246 172.641 127.05H178.239Z" fill="#9B9BB6"/>
<path d="M183.061 132H181.621V123.36H183.061V126.96H184.807L187.543 123.36H189.217L185.941 127.662L189.613 132H187.921L184.753 128.292H183.061V132Z" fill="#9B9BB6"/>
<path d="M190.01 127.716C190.01 126.96 190.148 126.282 190.424 125.682C190.7 125.082 191.06 124.602 191.504 124.242C191.96 123.882 192.458 123.612 192.998 123.432C193.55 123.24 194.114 123.144 194.69 123.144C195.758 123.144 196.646 123.378 197.354 123.846V125.25C196.694 124.734 195.866 124.476 194.87 124.476C193.934 124.476 193.13 124.746 192.458 125.286C191.786 125.826 191.45 126.624 191.45 127.68C191.45 128.724 191.78 129.522 192.44 130.074C193.112 130.614 193.91 130.884 194.834 130.884C195.794 130.884 196.664 130.65 197.444 130.182V131.622C196.628 132.018 195.692 132.216 194.636 132.216C193.388 132.216 192.302 131.826 191.378 131.046C190.466 130.266 190.01 129.156 190.01 127.716Z" fill="#9B9BB6"/>
<path d="M203.151 132H201.711V124.692H198.525V123.36H206.319V124.692H203.151V132Z" fill="#9B9BB6"/>
<path d="M212.976 134.34H211.572V130.704H212.724C213.744 128.904 214.236 126.456 214.2 123.36H220.644V130.704H221.904V134.34H220.5V132H212.976V134.34ZM215.586 124.656C215.526 127.02 215.094 129.036 214.29 130.704H219.204V124.656H215.586Z" fill="#9B9BB6"/>
<path d="M226.886 124.692C226.826 125.64 226.754 126.468 226.67 127.176C226.586 127.884 226.466 128.568 226.31 129.228C226.154 129.876 225.962 130.404 225.734 130.812C225.518 131.22 225.242 131.544 224.906 131.784C224.57 132.024 224.186 132.144 223.754 132.144C223.406 132.144 223.058 132.078 222.71 131.946V130.812C222.902 130.884 223.094 130.92 223.286 130.92C224.006 130.92 224.528 130.29 224.852 129.03C225.188 127.758 225.398 125.868 225.482 123.36H231.836V132H230.396V124.692H226.886Z" fill="#9B9BB6"/>
<path d="M235.36 132H233.668L236.17 128.832C235.51 128.64 235 128.304 234.64 127.824C234.28 127.344 234.1 126.792 234.1 126.168C234.1 125.376 234.388 124.71 234.964 124.17C235.54 123.63 236.332 123.36 237.34 123.36H241.588V132H240.148V128.976H237.718L235.36 132ZM236.044 125.052C235.708 125.316 235.54 125.688 235.54 126.168C235.54 126.648 235.708 127.02 236.044 127.284C236.392 127.548 236.866 127.68 237.466 127.68H240.148V124.656H237.466C236.866 124.656 236.392 124.788 236.044 125.052Z" fill="#9B9BB6"/>
<path d="M250.175 132H248.735V123.36H256.619V132H255.179V124.692H250.175V132Z" fill="#9B9BB6"/>
<path d="M260.055 131.01C259.143 130.194 258.687 129.084 258.687 127.68C258.687 126.276 259.143 125.172 260.055 124.368C260.967 123.552 262.047 123.144 263.295 123.144C264.555 123.144 265.635 123.552 266.535 124.368C267.447 125.172 267.903 126.276 267.903 127.68C267.903 129.084 267.447 130.194 266.535 131.01C265.635 131.814 264.555 132.216 263.295 132.216C262.047 132.216 260.967 131.814 260.055 131.01ZM265.563 130.002C266.163 129.426 266.463 128.652 266.463 127.68C266.463 126.708 266.163 125.94 265.563 125.376C264.963 124.8 264.207 124.512 263.295 124.512C262.383 124.512 261.627 124.8 261.027 125.376C260.427 125.94 260.127 126.708 260.127 127.68C260.127 128.652 260.427 129.426 261.027 130.002C261.627 130.566 262.383 130.848 263.295 130.848C264.207 130.848 264.963 130.566 265.563 130.002Z" fill="#9B9BB6"/>
<path d="M271.193 132H269.969V123.36H271.409V129.678L276.701 123.36H277.925V132H276.485V125.682L271.193 132Z" fill="#9B9BB6"/>
<path d="M279.992 127.716C279.992 126.96 280.13 126.282 280.406 125.682C280.682 125.082 281.042 124.602 281.486 124.242C281.942 123.882 282.44 123.612 282.98 123.432C283.532 123.24 284.096 123.144 284.672 123.144C285.74 123.144 286.628 123.378 287.336 123.846V125.25C286.676 124.734 285.848 124.476 284.852 124.476C283.916 124.476 283.112 124.746 282.44 125.286C281.768 125.826 281.432 126.624 281.432 127.68C281.432 128.724 281.762 129.522 282.422 130.074C283.094 130.614 283.892 130.884 284.816 130.884C285.776 130.884 286.646 130.65 287.426 130.182V131.622C286.61 132.018 285.674 132.216 284.618 132.216C283.37 132.216 282.284 131.826 281.36 131.046C280.448 130.266 279.992 129.156 279.992 127.716Z" fill="#9B9BB6"/>
<path d="M290.973 132H289.533V123.36H290.973V126.96H292.719L295.455 123.36H297.129L293.853 127.662L297.525 132H295.833L292.665 128.292H290.973V132Z" fill="#9B9BB6"/>
<path d="M305.905 130.2C305.905 130.644 306.127 130.866 306.571 130.866C306.763 130.866 306.985 130.824 307.237 130.74V131.91C306.877 132.042 306.517 132.108 306.157 132.108C305.329 132.108 304.801 131.76 304.573 131.064C303.649 131.832 302.527 132.216 301.207 132.216C300.367 132.216 299.647 131.994 299.047 131.55C298.459 131.094 298.165 130.44 298.165 129.588C298.165 128.568 298.543 127.83 299.299 127.374C300.067 126.906 300.991 126.672 302.071 126.672C302.863 126.672 303.661 126.762 304.465 126.942V126.636C304.465 125.976 304.249 125.454 303.817 125.07C303.385 124.674 302.779 124.476 301.999 124.476C300.907 124.476 299.857 124.692 298.849 125.124V123.72C299.977 123.336 301.075 123.144 302.143 123.144C303.319 123.144 304.237 123.462 304.897 124.098C305.569 124.722 305.905 125.628 305.905 126.816V130.2ZM299.641 129.516C299.641 129.996 299.821 130.362 300.181 130.614C300.553 130.854 300.997 130.974 301.513 130.974C302.701 130.974 303.685 130.554 304.465 129.714V128.13C303.649 127.962 302.917 127.878 302.269 127.878C301.537 127.878 300.913 128.01 300.397 128.274C299.893 128.526 299.641 128.94 299.641 129.516Z" fill="#9B9BB6"/>
<path d="M310.059 130.578C310.239 130.734 310.329 130.956 310.329 131.244C310.329 131.532 310.239 131.76 310.059 131.928C309.879 132.084 309.657 132.162 309.393 132.162C309.129 132.162 308.901 132.084 308.709 131.928C308.529 131.76 308.439 131.532 308.439 131.244C308.439 130.956 308.529 130.734 308.709 130.578C308.901 130.422 309.129 130.344 309.393 130.344C309.657 130.344 309.879 130.422 310.059 130.578Z" fill="#9B9BB6"/>
<path d="M313.927 130.578C314.107 130.734 314.197 130.956 314.197 131.244C314.197 131.532 314.107 131.76 313.927 131.928C313.747 132.084 313.525 132.162 313.261 132.162C312.997 132.162 312.769 132.084 312.577 131.928C312.397 131.76 312.307 131.532 312.307 131.244C312.307 130.956 312.397 130.734 312.577 130.578C312.769 130.422 312.997 130.344 313.261 130.344C313.525 130.344 313.747 130.422 313.927 130.578Z" fill="#9B9BB6"/>
<path d="M317.794 130.578C317.974 130.734 318.064 130.956 318.064 131.244C318.064 131.532 317.974 131.76 317.794 131.928C317.614 132.084 317.392 132.162 317.128 132.162C316.864 132.162 316.636 132.084 316.444 131.928C316.264 131.76 316.174 131.532 316.174 131.244C316.174 130.956 316.264 130.734 316.444 130.578C316.636 130.422 316.864 130.344 317.128 130.344C317.392 130.344 317.614 130.422 317.794 130.578Z" fill="#9B9BB6"/>
<path fill-rule="evenodd" clip-rule="evenodd" d="M337 149H86V148H337V149Z" fill="black"/>
<path d="M89.1683 186H87.6562V173.4H89.1683V178.854H92.0303L95.8282 173.4H97.5563L93.2723 179.538L97.9343 186H96.2063L92.0843 180.294H89.1683V186Z" fill="#37376D"/>
<path d="M106.217 184.2C106.217 184.644 106.439 184.866 106.883 184.866C107.075 184.866 107.297 184.824 107.549 184.74V185.91C107.189 186.042 106.829 186.108 106.469 186.108C105.641 186.108 105.113 185.76 104.885 185.064C103.961 185.832 102.839 186.216 101.519 186.216C100.679 186.216 99.9595 185.994 99.3595 185.55C98.7715 185.094 98.4775 184.44 98.4775 183.588C98.4775 182.568 98.8555 181.83 99.6115 181.374C100.379 180.906 101.303 180.672 102.383 180.672C103.175 180.672 103.973 180.762 104.777 180.942V180.636C104.777 179.976 104.561 179.454 104.129 179.07C103.697 178.674 103.091 178.476 102.311 178.476C101.219 178.476 100.169 178.692 99.1615 179.124V177.72C100.289 177.336 101.387 177.144 102.455 177.144C103.631 177.144 104.549 177.462 105.209 178.098C105.881 178.722 106.217 179.628 106.217 180.816V184.2ZM99.9535 183.516C99.9535 183.996 100.133 184.362 100.493 184.614C100.865 184.854 101.309 184.974 101.825 184.974C103.013 184.974 103.997 184.554 104.777 183.714V182.13C103.961 181.962 103.229 181.878 102.581 181.878C101.849 181.878 101.225 182.01 100.709 182.274C100.205 182.526 99.9535 182.94 99.9535 183.516Z" fill="#37376D"/>
<path d="M112.29 186H110.85V178.692H107.664V177.36H115.458V178.692H112.29V186Z" fill="#37376D"/>
<path d="M116.217 181.68C116.217 180.264 116.649 179.154 117.513 178.35C118.389 177.546 119.391 177.144 120.519 177.144C121.575 177.144 122.445 177.408 123.129 177.936C123.825 178.464 124.281 179.118 124.497 179.898C124.713 180.666 124.725 181.47 124.533 182.31H117.657C117.741 183.162 118.119 183.804 118.791 184.236C119.463 184.668 120.273 184.884 121.221 184.884C122.277 184.884 123.225 184.65 124.065 184.182V185.586C123.261 186.006 122.241 186.216 121.005 186.216C119.637 186.216 118.497 185.826 117.585 185.046C116.673 184.266 116.217 183.144 116.217 181.68ZM123.255 181.05C123.291 180.798 123.273 180.534 123.201 180.258C123.129 179.982 122.997 179.706 122.805 179.43C122.625 179.154 122.343 178.926 121.959 178.746C121.575 178.566 121.125 178.476 120.609 178.476C119.829 178.476 119.151 178.704 118.575 179.16C118.011 179.616 117.705 180.246 117.657 181.05H123.255Z" fill="#37376D"/>
<path d="M128.077 186H126.637V177.36H132.955V178.692H128.077V186Z" fill="#37376D"/>
<path d="M135.057 185.01C134.145 184.194 133.689 183.084 133.689 181.68C133.689 180.276 134.145 179.172 135.057 178.368C135.969 177.552 137.049 177.144 138.297 177.144C139.557 177.144 140.637 177.552 141.537 178.368C142.449 179.172 142.905 180.276 142.905 181.68C142.905 183.084 142.449 184.194 141.537 185.01C140.637 185.814 139.557 186.216 138.297 186.216C137.049 186.216 135.969 185.814 135.057 185.01ZM140.565 184.002C141.165 183.426 141.465 182.652 141.465 181.68C141.465 180.708 141.165 179.94 140.565 179.376C139.965 178.8 139.209 178.512 138.297 178.512C137.385 178.512 136.629 178.8 136.029 179.376C135.429 179.94 135.129 180.708 135.129 181.68C135.129 182.652 135.429 183.426 136.029 184.002C136.629 184.566 137.385 184.848 138.297 184.848C139.209 184.848 139.965 184.566 140.565 184.002Z" fill="#37376D"/>
<path d="M146.267 178.8C147.239 177.696 148.403 177.144 149.759 177.144C150.995 177.144 152.021 177.576 152.837 178.44C153.665 179.304 154.079 180.384 154.079 181.68C154.079 182.976 153.665 184.056 152.837 184.92C152.021 185.784 150.995 186.216 149.759 186.216C148.391 186.216 147.275 185.712 146.411 184.704V189.96H144.971V177.36H146.267V178.8ZM151.757 184.002C152.345 183.414 152.639 182.64 152.639 181.68C152.639 180.72 152.345 179.946 151.757 179.358C151.181 178.77 150.461 178.476 149.597 178.476C148.865 178.476 148.217 178.68 147.653 179.088C147.089 179.496 146.675 180 146.411 180.6V182.76C146.675 183.36 147.089 183.864 147.653 184.272C148.217 184.68 148.865 184.884 149.597 184.884C150.461 184.884 151.181 184.59 151.757 184.002Z" fill="#37376D"/>
<path d="M157.375 186H156.151V177.36H157.591V183.678L162.883 177.36H164.107V186H162.667V179.682L157.375 186Z" fill="#37376D"/>
<path d="M167.632 186H165.94L168.442 182.832C167.782 182.64 167.272 182.304 166.912 181.824C166.552 181.344 166.372 180.792 166.372 180.168C166.372 179.376 166.66 178.71 167.236 178.17C167.812 177.63 168.604 177.36 169.612 177.36H173.86V186H172.42V182.976H169.99L167.632 186ZM168.316 179.052C167.98 179.316 167.812 179.688 167.812 180.168C167.812 180.648 167.98 181.02 168.316 181.284C168.664 181.548 169.138 181.68 169.738 181.68H172.42V178.656H169.738C169.138 178.656 168.664 178.788 168.316 179.052Z" fill="#37376D"/>
<path d="M87.6562 210.4H92.8222C94.1423 210.4 95.1863 210.676 95.9543 211.228C96.7222 211.768 97.1063 212.554 97.1063 213.586C97.1063 214.33 96.9083 214.942 96.5123 215.422C96.1163 215.89 95.6423 216.208 95.0903 216.376C95.7623 216.556 96.3503 216.904 96.8543 217.42C97.3583 217.924 97.6103 218.632 97.6103 219.544C97.6103 220.096 97.5023 220.582 97.2863 221.002C97.0822 221.422 96.8183 221.758 96.4943 222.01C96.1823 222.25 95.8103 222.448 95.3783 222.604C94.9583 222.76 94.5503 222.868 94.1543 222.928C93.7703 222.976 93.3743 223 92.9663 223H87.6562V210.4ZM96.0802 219.382C96.0802 217.93 95.0782 217.204 93.0743 217.204H89.1683V221.56H92.6602C93.0442 221.56 93.3682 221.554 93.6323 221.542C93.8963 221.518 94.1962 221.47 94.5323 221.398C94.8683 221.314 95.1383 221.2 95.3423 221.056C95.5463 220.9 95.7203 220.684 95.8643 220.408C96.0082 220.12 96.0802 219.778 96.0802 219.382ZM95.5763 213.802C95.5763 213.094 95.3302 212.59 94.8383 212.29C94.3583 211.99 93.6443 211.84 92.6962 211.84H89.1683V215.764H93.1102C93.8302 215.764 94.4183 215.608 94.8743 215.296C95.3422 214.972 95.5763 214.474 95.5763 213.802Z" fill="#9B9BB6"/>
<path d="M104.568 223H99.6897V214.36H104.424C105.204 214.36 105.84 214.564 106.332 214.972C106.836 215.38 107.088 215.956 107.088 216.7C107.088 217.132 106.98 217.522 106.764 217.87C106.548 218.218 106.272 218.464 105.936 218.608C106.332 218.74 106.668 218.98 106.944 219.328C107.22 219.676 107.358 220.102 107.358 220.606C107.358 221.338 107.118 221.92 106.638 222.352C106.17 222.784 105.48 223 104.568 223ZM101.13 219.256V221.74H104.37C105.402 221.74 105.918 221.332 105.918 220.516C105.918 219.676 105.42 219.256 104.424 219.256H101.13ZM101.13 215.62V218.014H104.28C105.18 218.014 105.63 217.624 105.63 216.844C105.63 216.4 105.498 216.088 105.234 215.908C104.97 215.716 104.652 215.62 104.28 215.62H101.13Z" fill="#9B9BB6"/>
<path d="M108.957 218.68C108.957 217.264 109.389 216.154 110.253 215.35C111.129 214.546 112.131 214.144 113.259 214.144C114.315 214.144 115.185 214.408 115.869 214.936C116.565 215.464 117.021 216.118 117.237 216.898C117.453 217.666 117.465 218.47 117.273 219.31H110.397C110.481 220.162 110.859 220.804 111.531 221.236C112.203 221.668 113.013 221.884 113.961 221.884C115.017 221.884 115.965 221.65 116.805 221.182V222.586C116.001 223.006 114.981 223.216 113.745 223.216C112.377 223.216 111.237 222.826 110.325 222.046C109.413 221.266 108.957 220.144 108.957 218.68ZM115.995 218.05C116.031 217.798 116.013 217.534 115.941 217.258C115.869 216.982 115.737 216.706 115.545 216.43C115.365 216.154 115.083 215.926 114.699 215.746C114.315 215.566 113.865 215.476 113.349 215.476C112.569 215.476 111.891 215.704 111.315 216.16C110.751 216.616 110.445 217.246 110.397 218.05H115.995Z" fill="#9B9BB6"/>
<path d="M119.777 225.34H118.373V221.704H119.525C120.545 219.904 121.037 217.456 121.001 214.36H127.445V221.704H128.705V225.34H127.301V223H119.777V225.34ZM122.387 215.656C122.327 218.02 121.895 220.036 121.091 221.704H126.005V215.656H122.387Z" fill="#9B9BB6"/>
<path d="M131.851 223H130.627V214.36H132.067V220.678L137.359 214.36H138.583V223H137.143V216.682L131.851 223Z" fill="#9B9BB6"/>
<path d="M144.844 223H143.404V215.692H140.218V214.36H148.012V215.692H144.844V223Z" fill="#9B9BB6"/>
<path d="M148.771 218.68C148.771 217.264 149.203 216.154 150.067 215.35C150.943 214.546 151.945 214.144 153.073 214.144C154.129 214.144 154.999 214.408 155.683 214.936C156.379 215.464 156.835 216.118 157.051 216.898C157.267 217.666 157.279 218.47 157.087 219.31H150.211C150.295 220.162 150.673 220.804 151.345 221.236C152.017 221.668 152.827 221.884 153.775 221.884C154.831 221.884 155.779 221.65 156.619 221.182V222.586C155.815 223.006 154.795 223.216 153.559 223.216C152.191 223.216 151.051 222.826 150.139 222.046C149.227 221.266 148.771 220.144 148.771 218.68ZM155.809 218.05C155.845 217.798 155.827 217.534 155.755 217.258C155.683 216.982 155.551 216.706 155.359 216.43C155.179 216.154 154.897 215.926 154.513 215.746C154.129 215.566 153.679 215.476 153.163 215.476C152.383 215.476 151.705 215.704 151.129 216.16C150.565 216.616 150.259 217.246 150.211 218.05H155.809Z" fill="#9B9BB6"/>
<path d="M167.274 223H165.834V215.692H162.648V214.36H170.442V215.692H167.274V223Z" fill="#9B9BB6"/>
<path d="M171.201 218.68C171.201 217.264 171.633 216.154 172.497 215.35C173.373 214.546 174.375 214.144 175.503 214.144C176.559 214.144 177.429 214.408 178.113 214.936C178.809 215.464 179.265 216.118 179.481 216.898C179.697 217.666 179.709 218.47 179.517 219.31H172.641C172.725 220.162 173.103 220.804 173.775 221.236C174.447 221.668 175.257 221.884 176.205 221.884C177.261 221.884 178.209 221.65 179.049 221.182V222.586C178.245 223.006 177.225 223.216 175.989 223.216C174.621 223.216 173.481 222.826 172.569 222.046C171.657 221.266 171.201 220.144 171.201 218.68ZM178.239 218.05C178.275 217.798 178.257 217.534 178.185 217.258C178.113 216.982 177.981 216.706 177.789 216.43C177.609 216.154 177.327 215.926 176.943 215.746C176.559 215.566 176.109 215.476 175.593 215.476C174.813 215.476 174.135 215.704 173.559 216.16C172.995 216.616 172.689 217.246 172.641 218.05H178.239Z" fill="#9B9BB6"/>
<path d="M183.061 223H181.621V214.36H183.061V217.96H184.807L187.543 214.36H189.217L185.941 218.662L189.613 223H187.921L184.753 219.292H183.061V223Z" fill="#9B9BB6"/>
<path d="M190.01 218.716C190.01 217.96 190.148 217.282 190.424 216.682C190.7 216.082 191.06 215.602 191.504 215.242C191.96 214.882 192.458 214.612 192.998 214.432C193.55 214.24 194.114 214.144 194.69 214.144C195.758 214.144 196.646 214.378 197.354 214.846V216.25C196.694 215.734 195.866 215.476 194.87 215.476C193.934 215.476 193.13 215.746 192.458 216.286C191.786 216.826 191.45 217.624 191.45 218.68C191.45 219.724 191.78 220.522 192.44 221.074C193.112 221.614 193.91 221.884 194.834 221.884C195.794 221.884 196.664 221.65 197.444 221.182V222.622C196.628 223.018 195.692 223.216 194.636 223.216C193.388 223.216 192.302 222.826 191.378 222.046C190.466 221.266 190.01 220.156 190.01 218.716Z" fill="#9B9BB6"/>
<path d="M203.151 223H201.711V215.692H198.525V214.36H206.319V215.692H203.151V223Z" fill="#9B9BB6"/>
<path d="M212.976 225.34H211.572V221.704H212.724C213.744 219.904 214.236 217.456 214.2 214.36H220.644V221.704H221.904V225.34H220.5V223H212.976V225.34ZM215.586 215.656C215.526 218.02 215.094 220.036 214.29 221.704H219.204V215.656H215.586Z" fill="#9B9BB6"/>
<path d="M226.886 215.692C226.826 216.64 226.754 217.468 226.67 218.176C226.586 218.884 226.466 219.568 226.31 220.228C226.154 220.876 225.962 221.404 225.734 221.812C225.518 222.22 225.242 222.544 224.906 222.784C224.57 223.024 224.186 223.144 223.754 223.144C223.406 223.144 223.058 223.078 222.71 222.946V221.812C222.902 221.884 223.094 221.92 223.286 221.92C224.006 221.92 224.528 221.29 224.852 220.03C225.188 218.758 225.398 216.868 225.482 214.36H231.836V223H230.396V215.692H226.886Z" fill="#9B9BB6"/>
<path d="M235.36 223H233.668L236.17 219.832C235.51 219.64 235 219.304 234.64 218.824C234.28 218.344 234.1 217.792 234.1 217.168C234.1 216.376 234.388 215.71 234.964 215.17C235.54 214.63 236.332 214.36 237.34 214.36H241.588V223H240.148V219.976H237.718L235.36 223ZM236.044 216.052C235.708 216.316 235.54 216.688 235.54 217.168C235.54 217.648 235.708 218.02 236.044 218.284C236.392 218.548 236.866 218.68 237.466 218.68H240.148V215.656H237.466C236.866 215.656 236.392 215.788 236.044 216.052Z" fill="#9B9BB6"/>
<path d="M250.175 223H248.735V214.36H256.619V223H255.179V215.692H250.175V223Z" fill="#9B9BB6"/>
<path d="M260.055 222.01C259.143 221.194 258.687 220.084 258.687 218.68C258.687 217.276 259.143 216.172 260.055 215.368C260.967 214.552 262.047 214.144 263.295 214.144C264.555 214.144 265.635 214.552 266.535 215.368C267.447 216.172 267.903 217.276 267.903 218.68C267.903 220.084 267.447 221.194 266.535 222.01C265.635 222.814 264.555 223.216 263.295 223.216C262.047 223.216 260.967 222.814 260.055 222.01ZM265.563 221.002C266.163 220.426 266.463 219.652 266.463 218.68C266.463 217.708 266.163 216.94 265.563 216.376C264.963 215.8 264.207 215.512 263.295 215.512C262.383 215.512 261.627 215.8 261.027 216.376C260.427 216.94 260.127 217.708 260.127 218.68C260.127 219.652 260.427 220.426 261.027 221.002C261.627 221.566 262.383 221.848 263.295 221.848C264.207 221.848 264.963 221.566 265.563 221.002Z" fill="#9B9BB6"/>
<path d="M271.193 223H269.969V214.36H271.409V220.678L276.701 214.36H277.925V223H276.485V216.682L271.193 223Z" fill="#9B9BB6"/>
<path d="M279.992 218.716C279.992 217.96 280.13 217.282 280.406 216.682C280.682 216.082 281.042 215.602 281.486 215.242C281.942 214.882 282.44 214.612 282.98 214.432C283.532 214.24 284.096 214.144 284.672 214.144C285.74 214.144 286.628 214.378 287.336 214.846V216.25C286.676 215.734 285.848 215.476 284.852 215.476C283.916 215.476 283.112 215.746 282.44 216.286C281.768 216.826 281.432 217.624 281.432 218.68C281.432 219.724 281.762 220.522 282.422 221.074C283.094 221.614 283.892 221.884 284.816 221.884C285.776 221.884 286.646 221.65 287.426 221.182V222.622C286.61 223.018 285.674 223.216 284.618 223.216C283.37 223.216 282.284 222.826 281.36 222.046C280.448 221.266 279.992 220.156 279.992 218.716Z" fill="#9B9BB6"/>
<path d="M290.973 223H289.533V214.36H290.973V217.96H292.719L295.455 214.36H297.129L293.853 218.662L297.525 223H295.833L292.665 219.292H290.973V223Z" fill="#9B9BB6"/>
<path d="M305.905 221.2C305.905 221.644 306.127 221.866 306.571 221.866C306.763 221.866 306.985 221.824 307.237 221.74V222.91C306.877 223.042 306.517 223.108 306.157 223.108C305.329 223.108 304.801 222.76 304.573 222.064C303.649 222.832 302.527 223.216 301.207 223.216C300.367 223.216 299.647 222.994 299.047 222.55C298.459 222.094 298.165 221.44 298.165 220.588C298.165 219.568 298.543 218.83 299.299 218.374C300.067 217.906 300.991 217.672 302.071 217.672C302.863 217.672 303.661 217.762 304.465 217.942V217.636C304.465 216.976 304.249 216.454 303.817 216.07C303.385 215.674 302.779 215.476 301.999 215.476C300.907 215.476 299.857 215.692 298.849 216.124V214.72C299.977 214.336 301.075 214.144 302.143 214.144C303.319 214.144 304.237 214.462 304.897 215.098C305.569 215.722 305.905 216.628 305.905 217.816V221.2ZM299.641 220.516C299.641 220.996 299.821 221.362 300.181 221.614C300.553 221.854 300.997 221.974 301.513 221.974C302.701 221.974 303.685 221.554 304.465 220.714V219.13C303.649 218.962 302.917 218.878 302.269 218.878C301.537 218.878 300.913 219.01 300.397 219.274C299.893 219.526 299.641 219.94 299.641 220.516Z" fill="#9B9BB6"/>
<path d="M310.059 221.578C310.239 221.734 310.329 221.956 310.329 222.244C310.329 222.532 310.239 222.76 310.059 222.928C309.879 223.084 309.657 223.162 309.393 223.162C309.129 223.162 308.901 223.084 308.709 222.928C308.529 222.76 308.439 222.532 308.439 222.244C308.439 221.956 308.529 221.734 308.709 221.578C308.901 221.422 309.129 221.344 309.393 221.344C309.657 221.344 309.879 221.422 310.059 221.578Z" fill="#9B9BB6"/>
<path d="M313.927 221.578C314.107 221.734 314.197 221.956 314.197 222.244C314.197 222.532 314.107 222.76 313.927 222.928C313.747 223.084 313.525 223.162 313.261 223.162C312.997 223.162 312.769 223.084 312.577 222.928C312.397 222.76 312.307 222.532 312.307 222.244C312.307 221.956 312.397 221.734 312.577 221.578C312.769 221.422 312.997 221.344 313.261 221.344C313.525 221.344 313.747 221.422 313.927 221.578Z" fill="#9B9BB6"/>
<path d="M317.794 221.578C317.974 221.734 318.064 221.956 318.064 222.244C318.064 222.532 317.974 222.76 317.794 222.928C317.614 223.084 317.392 223.162 317.128 223.162C316.864 223.162 316.636 223.084 316.444 222.928C316.264 222.76 316.174 222.532 316.174 222.244C316.174 221.956 316.264 221.734 316.444 221.578C316.636 221.422 316.864 221.344 317.128 221.344C317.392 221.344 317.614 221.422 317.794 221.578Z" fill="#9B9BB6"/>
<path fill-rule="evenodd" clip-rule="evenodd" d="M337 240H86V239H337V240Z" fill="black"/>
<path d="M380.225 273.094C379.949 272.326 379.811 271.528 379.811 270.7C379.811 269.872 379.949 269.074 380.225 268.306C380.513 267.538 380.921 266.848 381.449 266.236C381.977 265.612 382.667 265.114 383.519 264.742C384.371 264.37 385.331 264.184 386.399 264.184C387.467 264.184 388.427 264.37 389.279 264.742C390.131 265.114 390.821 265.612 391.349 266.236C391.877 266.848 392.279 267.538 392.555 268.306C392.843 269.074 392.987 269.872 392.987 270.7C392.987 271.528 392.843 272.326 392.555 273.094C392.279 273.862 391.877 274.558 391.349 275.182C390.821 275.794 390.131 276.286 389.279 276.658C388.427 277.03 387.467 277.216 386.399 277.216C385.331 277.216 384.371 277.03 383.519 276.658C382.667 276.286 381.977 275.794 381.449 275.182C380.921 274.558 380.513 273.862 380.225 273.094ZM391.133 272.59C391.349 271.99 391.457 271.36 391.457 270.7C391.457 270.04 391.349 269.41 391.133 268.81C390.929 268.21 390.623 267.67 390.215 267.19C389.819 266.71 389.291 266.332 388.631 266.056C387.971 265.768 387.227 265.624 386.399 265.624C385.571 265.624 384.827 265.768 384.167 266.056C383.507 266.332 382.973 266.71 382.565 267.19C382.169 267.67 381.863 268.21 381.647 268.81C381.443 269.41 381.341 270.04 381.341 270.7C381.341 271.36 381.443 271.99 381.647 272.59C381.863 273.19 382.169 273.73 382.565 274.21C382.973 274.69 383.507 275.074 384.167 275.362C384.827 275.638 385.571 275.776 386.399 275.776C387.227 275.776 387.971 275.638 388.631 275.362C389.291 275.074 389.819 274.69 390.215 274.21C390.623 273.73 390.929 273.19 391.133 272.59Z" fill="#37376D"/>
<path d="M398.733 277H397.293V269.692H394.107V268.36H401.901V269.692H398.733V277Z" fill="#37376D"/>
<path d="M404.976 277H403.536V268.36H404.976V271.96H406.722L409.458 268.36H411.132L407.856 272.662L411.528 277H409.836L406.668 273.292H404.976V277Z" fill="#37376D"/>
<path d="M416.018 269.692C415.958 270.64 415.886 271.468 415.802 272.176C415.718 272.884 415.598 273.568 415.442 274.228C415.286 274.876 415.094 275.404 414.866 275.812C414.65 276.22 414.374 276.544 414.038 276.784C413.702 277.024 413.318 277.144 412.886 277.144C412.538 277.144 412.19 277.078 411.842 276.946V275.812C412.034 275.884 412.226 275.92 412.418 275.92C413.138 275.92 413.66 275.29 413.984 274.03C414.32 272.758 414.53 270.868 414.614 268.36H420.968V277H419.528V269.692H416.018Z" fill="#37376D"/>
<path d="M424.401 276.01C423.489 275.194 423.033 274.084 423.033 272.68C423.033 271.276 423.489 270.172 424.401 269.368C425.313 268.552 426.393 268.144 427.641 268.144C428.901 268.144 429.981 268.552 430.881 269.368C431.793 270.172 432.249 271.276 432.249 272.68C432.249 274.084 431.793 275.194 430.881 276.01C429.981 276.814 428.901 277.216 427.641 277.216C426.393 277.216 425.313 276.814 424.401 276.01ZM429.909 275.002C430.509 274.426 430.809 273.652 430.809 272.68C430.809 271.708 430.509 270.94 429.909 270.376C429.309 269.8 428.553 269.512 427.641 269.512C426.729 269.512 425.973 269.8 425.373 270.376C424.773 270.94 424.473 271.708 424.473 272.68C424.473 273.652 424.773 274.426 425.373 275.002C425.973 275.566 426.729 275.848 427.641 275.848C428.553 275.848 429.309 275.566 429.909 275.002Z" fill="#37376D"/>
<path d="M435.755 277H434.315V268.36H435.755V272.014H440.759V268.36H442.199V277H440.759V273.346H435.755V277Z" fill="#37376D"/>
<path d="M444.268 272.68C444.268 271.264 444.7 270.154 445.564 269.35C446.44 268.546 447.442 268.144 448.57 268.144C449.626 268.144 450.496 268.408 451.18 268.936C451.876 269.464 452.332 270.118 452.548 270.898C452.764 271.666 452.776 272.47 452.584 273.31H445.708C445.792 274.162 446.17 274.804 446.842 275.236C447.514 275.668 448.324 275.884 449.272 275.884C450.328 275.884 451.276 275.65 452.116 275.182V276.586C451.312 277.006 450.292 277.216 449.056 277.216C447.688 277.216 446.548 276.826 445.636 276.046C444.724 275.266 444.268 274.144 444.268 272.68ZM451.306 272.05C451.342 271.798 451.324 271.534 451.252 271.258C451.18 270.982 451.048 270.706 450.856 270.43C450.676 270.154 450.394 269.926 450.01 269.746C449.626 269.566 449.176 269.476 448.66 269.476C447.88 269.476 447.202 269.704 446.626 270.16C446.062 270.616 445.756 271.246 445.708 272.05H451.306Z" fill="#37376D"/>
<path d="M456.128 277H454.688V268.36H456.128V272.014H461.132V268.36H462.572V277H461.132V273.346H456.128V277Z" fill="#37376D"/>
<path d="M466.459 277H465.235V268.36H466.675V274.678L471.967 268.36H473.191V277H471.751V270.682L466.459 277Z" fill="#37376D"/>
<path d="M475.258 272.68C475.258 271.264 475.69 270.154 476.554 269.35C477.43 268.546 478.432 268.144 479.56 268.144C480.616 268.144 481.486 268.408 482.17 268.936C482.866 269.464 483.322 270.118 483.538 270.898C483.754 271.666 483.766 272.47 483.574 273.31H476.698C476.782 274.162 477.16 274.804 477.832 275.236C478.504 275.668 479.314 275.884 480.262 275.884C481.318 275.884 482.266 275.65 483.106 275.182V276.586C482.302 277.006 481.282 277.216 480.046 277.216C478.678 277.216 477.538 276.826 476.626 276.046C475.714 275.266 475.258 274.144 475.258 272.68ZM482.296 272.05C482.332 271.798 482.314 271.534 482.242 271.258C482.17 270.982 482.038 270.706 481.846 270.43C481.666 270.154 481.384 269.926 481 269.746C480.616 269.566 480.166 269.476 479.65 269.476C478.87 269.476 478.192 269.704 477.616 270.16C477.052 270.616 476.746 271.246 476.698 272.05H482.296Z" fill="#37376D"/>
<path d="M380.225 310.094C379.949 309.326 379.811 308.528 379.811 307.7C379.811 306.872 379.949 306.074 380.225 305.306C380.513 304.538 380.921 303.848 381.449 303.236C381.977 302.612 382.667 302.114 383.519 301.742C384.371 301.37 385.331 301.184 386.399 301.184C387.467 301.184 388.427 301.37 389.279 301.742C390.131 302.114 390.821 302.612 391.349 303.236C391.877 303.848 392.279 304.538 392.555 305.306C392.843 306.074 392.987 306.872 392.987 307.7C392.987 308.528 392.843 309.326 392.555 310.094C392.279 310.862 391.877 311.558 391.349 312.182C390.821 312.794 390.131 313.286 389.279 313.658C388.427 314.03 387.467 314.216 386.399 314.216C385.331 314.216 384.371 314.03 383.519 313.658C382.667 313.286 381.977 312.794 381.449 312.182C380.921 311.558 380.513 310.862 380.225 310.094ZM391.133 309.59C391.349 308.99 391.457 308.36 391.457 307.7C391.457 307.04 391.349 306.41 391.133 305.81C390.929 305.21 390.623 304.67 390.215 304.19C389.819 303.71 389.291 303.332 388.631 303.056C387.971 302.768 387.227 302.624 386.399 302.624C385.571 302.624 384.827 302.768 384.167 303.056C383.507 303.332 382.973 303.71 382.565 304.19C382.169 304.67 381.863 305.21 381.647 305.81C381.443 306.41 381.341 307.04 381.341 307.7C381.341 308.36 381.443 308.99 381.647 309.59C381.863 310.19 382.169 310.73 382.565 311.21C382.973 311.69 383.507 312.074 384.167 312.362C384.827 312.638 385.571 312.776 386.399 312.776C387.227 312.776 387.971 312.638 388.631 312.362C389.291 312.074 389.819 311.69 390.215 311.21C390.623 310.73 390.929 310.19 391.133 309.59Z" fill="#9B9BB6"/>
<path d="M398.733 314H397.293V306.692H394.107V305.36H401.901V306.692H398.733V314Z" fill="#9B9BB6"/>
<path d="M520.782 316.97H519.342V312.56H520.872C522.24 310.088 522.924 306.368 522.924 301.4H530.664V312.56H532.248V316.97H530.808V314H520.782V316.97ZM524.472 302.84C524.208 307.328 523.572 310.568 522.564 312.56H529.152V302.84H524.472Z" fill="#9B9BB6"/>
<path d="M534.641 313.01C533.729 312.194 533.273 311.084 533.273 309.68C533.273 308.276 533.729 307.172 534.641 306.368C535.553 305.552 536.633 305.144 537.881 305.144C539.141 305.144 540.221 305.552 541.121 306.368C542.033 307.172 542.489 308.276 542.489 309.68C542.489 311.084 542.033 312.194 541.121 313.01C540.221 313.814 539.141 314.216 537.881 314.216C536.633 314.216 535.553 313.814 534.641 313.01ZM540.149 312.002C540.749 311.426 541.049 310.652 541.049 309.68C541.049 308.708 540.749 307.94 540.149 307.376C539.549 306.8 538.793 306.512 537.881 306.512C536.969 306.512 536.213 306.8 535.613 307.376C535.013 307.94 534.713 308.708 534.713 309.68C534.713 310.652 535.013 311.426 535.613 312.002C536.213 312.566 536.969 312.848 537.881 312.848C538.793 312.848 539.549 312.566 540.149 312.002Z" fill="#9B9BB6"/>
<path fill-rule="evenodd" clip-rule="evenodd" d="M490 331H379V330H490V331Z" fill="black"/>
<path fill-rule="evenodd" clip-rule="evenodd" d="M630 331H519V330H630V331Z" fill="black"/>
<path d="M380.782 188.97H379.342V184.56H380.872C382.24 182.088 382.924 178.368 382.924 173.4H390.664V184.56H392.248V188.97H390.808V186H380.782V188.97ZM384.472 174.84C384.208 179.328 383.572 182.568 382.564 184.56H389.152V174.84H384.472Z" fill="#37376D"/>
<path d="M394.641 185.01C393.729 184.194 393.273 183.084 393.273 181.68C393.273 180.276 393.729 179.172 394.641 178.368C395.553 177.552 396.633 177.144 397.881 177.144C399.141 177.144 400.221 177.552 401.121 178.368C402.033 179.172 402.489 180.276 402.489 181.68C402.489 183.084 402.033 184.194 401.121 185.01C400.221 185.814 399.141 186.216 397.881 186.216C396.633 186.216 395.553 185.814 394.641 185.01ZM400.149 184.002C400.749 183.426 401.049 182.652 401.049 181.68C401.049 180.708 400.749 179.94 400.149 179.376C399.549 178.8 398.793 178.512 397.881 178.512C396.969 178.512 396.213 178.8 395.613 179.376C395.013 179.94 394.713 180.708 394.713 181.68C394.713 182.652 395.013 183.426 395.613 184.002C396.213 184.566 396.969 184.848 397.881 184.848C398.793 184.848 399.549 184.566 400.149 184.002Z" fill="#37376D"/>
<path d="M405.994 186H404.554V177.36H412.438V186H410.998V178.692H405.994V186Z" fill="#37376D"/>
<path d="M418.737 184.362L421.653 177.36H423.183L418.935 187.296C418.107 189.216 417.021 190.176 415.677 190.176C415.353 190.176 415.041 190.134 414.741 190.05V188.808C414.993 188.88 415.245 188.916 415.497 188.916C416.421 188.916 417.165 188.214 417.729 186.81L418.053 186.018L413.949 177.36H415.479L418.737 184.362Z" fill="#37376D"/>
<path d="M423.876 181.716C423.876 180.96 424.014 180.282 424.29 179.682C424.566 179.082 424.926 178.602 425.37 178.242C425.826 177.882 426.324 177.612 426.864 177.432C427.416 177.24 427.98 177.144 428.556 177.144C429.624 177.144 430.512 177.378 431.22 177.846V179.25C430.56 178.734 429.732 178.476 428.736 178.476C427.8 178.476 426.996 178.746 426.324 179.286C425.652 179.826 425.316 180.624 425.316 181.68C425.316 182.724 425.646 183.522 426.306 184.074C426.978 184.614 427.776 184.884 428.7 184.884C429.66 184.884 430.53 184.65 431.31 184.182V185.622C430.494 186.018 429.558 186.216 428.502 186.216C427.254 186.216 426.168 185.826 425.244 185.046C424.332 184.266 423.876 183.156 423.876 181.716Z" fill="#37376D"/>
<path d="M437.018 186H435.578V178.692H432.392V177.36H440.186V178.692H437.018V186Z" fill="#37376D"/>
<path d="M443.044 186H441.82V177.36H443.26V183.678L448.552 177.36H449.776V186H448.336V179.682L443.044 186Z" fill="#37376D"/>
<path d="M453.805 186H452.437V177.36H454.003L457.153 182.148L460.303 177.36H461.869V186H460.501V179.484L457.693 183.75H456.613L453.805 179.484V186Z" fill="#37376D"/>
<path d="M465.305 185.01C464.393 184.194 463.937 183.084 463.937 181.68C463.937 180.276 464.393 179.172 465.305 178.368C466.217 177.552 467.297 177.144 468.545 177.144C469.805 177.144 470.885 177.552 471.785 178.368C472.697 179.172 473.153 180.276 473.153 181.68C473.153 183.084 472.697 184.194 471.785 185.01C470.885 185.814 469.805 186.216 468.545 186.216C467.297 186.216 466.217 185.814 465.305 185.01ZM470.813 184.002C471.413 183.426 471.713 182.652 471.713 181.68C471.713 180.708 471.413 179.94 470.813 179.376C470.213 178.8 469.457 178.512 468.545 178.512C467.633 178.512 466.877 178.8 466.277 179.376C465.677 179.94 465.377 180.708 465.377 181.68C465.377 182.652 465.677 183.426 466.277 184.002C466.877 184.566 467.633 184.848 468.545 184.848C469.457 184.848 470.213 184.566 470.813 184.002Z" fill="#37376D"/>
<path d="M474.625 181.68C474.625 180.264 475.057 179.154 475.921 178.35C476.797 177.546 477.799 177.144 478.927 177.144C479.983 177.144 480.853 177.408 481.537 177.936C482.233 178.464 482.689 179.118 482.905 179.898C483.121 180.666 483.133 181.47 482.941 182.31H476.065C476.149 183.162 476.527 183.804 477.199 184.236C477.871 184.668 478.681 184.884 479.629 184.884C480.685 184.884 481.633 184.65 482.473 184.182V185.586C481.669 186.006 480.649 186.216 479.413 186.216C478.045 186.216 476.905 185.826 475.993 185.046C475.081 184.266 474.625 183.144 474.625 181.68ZM481.663 181.05C481.699 180.798 481.681 180.534 481.609 180.258C481.537 179.982 481.405 179.706 481.213 179.43C481.033 179.154 480.751 178.926 480.367 178.746C479.983 178.566 479.533 178.476 479.017 178.476C478.237 178.476 477.559 178.704 476.983 179.16C476.419 179.616 476.113 180.246 476.065 181.05H481.663Z" fill="#37376D"/>
<path d="M490.301 185.01C489.389 184.194 488.933 183.084 488.933 181.68C488.933 180.276 489.389 179.172 490.301 178.368C491.213 177.552 492.293 177.144 493.541 177.144C494.801 177.144 495.881 177.552 496.781 178.368C497.693 179.172 498.149 180.276 498.149 181.68C498.149 183.084 497.693 184.194 496.781 185.01C495.881 185.814 494.801 186.216 493.541 186.216C492.293 186.216 491.213 185.814 490.301 185.01ZM495.809 184.002C496.409 183.426 496.709 182.652 496.709 181.68C496.709 180.708 496.409 179.94 495.809 179.376C495.209 178.8 494.453 178.512 493.541 178.512C492.629 178.512 491.873 178.8 491.273 179.376C490.673 179.94 490.373 180.708 490.373 181.68C490.373 182.652 490.673 183.426 491.273 184.002C491.873 184.566 492.629 184.848 493.541 184.848C494.453 184.848 495.209 184.566 495.809 184.002Z" fill="#37376D"/>
<path d="M503.533 186H502.093V178.692H498.907V177.36H506.701V178.692H503.533V186Z" fill="#37376D"/>
<path d="M509.776 186H508.336V177.36H509.776V180.96H511.522L514.258 177.36H515.932L512.656 181.662L516.328 186H514.636L511.468 182.292H509.776V186Z" fill="#37376D"/>
<path d="M520.818 178.692C520.758 179.64 520.686 180.468 520.602 181.176C520.518 181.884 520.398 182.568 520.242 183.228C520.086 183.876 519.894 184.404 519.666 184.812C519.45 185.22 519.174 185.544 518.838 185.784C518.502 186.024 518.118 186.144 517.686 186.144C517.338 186.144 516.99 186.078 516.642 185.946V184.812C516.834 184.884 517.026 184.92 517.218 184.92C517.938 184.92 518.46 184.29 518.784 183.03C519.12 181.758 519.33 179.868 519.414 177.36H525.768V186H524.328V178.692H520.818Z" fill="#37376D"/>
<path d="M529.202 185.01C528.29 184.194 527.834 183.084 527.834 181.68C527.834 180.276 528.29 179.172 529.202 178.368C530.114 177.552 531.193 177.144 532.441 177.144C533.701 177.144 534.782 177.552 535.682 178.368C536.594 179.172 537.049 180.276 537.049 181.68C537.049 183.084 536.594 184.194 535.682 185.01C534.782 185.814 533.701 186.216 532.441 186.216C531.193 186.216 530.114 185.814 529.202 185.01ZM534.71 184.002C535.31 183.426 535.61 182.652 535.61 181.68C535.61 180.708 535.31 179.94 534.71 179.376C534.109 178.8 533.354 178.512 532.441 178.512C531.529 178.512 530.774 178.8 530.174 179.376C529.574 179.94 529.273 180.708 529.273 181.68C529.273 182.652 529.574 183.426 530.174 184.002C530.774 184.566 531.529 184.848 532.441 184.848C533.354 184.848 534.109 184.566 534.71 184.002Z" fill="#37376D"/>
<path d="M540.555 186H539.115V177.36H540.555V181.014H545.559V177.36H546.999V186H545.559V182.346H540.555V186Z" fill="#37376D"/>
<path d="M549.068 181.68C549.068 180.264 549.5 179.154 550.364 178.35C551.24 177.546 552.242 177.144 553.37 177.144C554.426 177.144 555.296 177.408 555.98 177.936C556.676 178.464 557.132 179.118 557.348 179.898C557.564 180.666 557.576 181.47 557.384 182.31H550.508C550.592 183.162 550.97 183.804 551.642 184.236C552.314 184.668 553.124 184.884 554.072 184.884C555.128 184.884 556.076 184.65 556.916 184.182V185.586C556.112 186.006 555.092 186.216 553.856 186.216C552.488 186.216 551.348 185.826 550.436 185.046C549.524 184.266 549.068 183.144 549.068 181.68ZM556.106 181.05C556.142 180.798 556.124 180.534 556.052 180.258C555.98 179.982 555.848 179.706 555.656 179.43C555.476 179.154 555.194 178.926 554.81 178.746C554.426 178.566 553.976 178.476 553.46 178.476C552.68 178.476 552.002 178.704 551.426 179.16C550.862 179.616 550.556 180.246 550.508 181.05H556.106Z" fill="#37376D"/>
<path d="M560.928 186H559.488V177.36H560.928V181.014H565.932V177.36H567.372V186H565.932V182.346H560.928V186Z" fill="#37376D"/>
<path d="M571.259 186H570.035V177.36H571.475V183.678L576.767 177.36H577.991V186H576.551V179.682L571.259 186Z" fill="#37376D"/>
<path d="M580.058 181.68C580.058 180.264 580.49 179.154 581.354 178.35C582.23 177.546 583.232 177.144 584.36 177.144C585.416 177.144 586.286 177.408 586.97 177.936C587.666 178.464 588.122 179.118 588.338 179.898C588.554 180.666 588.566 181.47 588.374 182.31H581.498C581.582 183.162 581.96 183.804 582.632 184.236C583.304 184.668 584.114 184.884 585.062 184.884C586.118 184.884 587.066 184.65 587.906 184.182V185.586C587.102 186.006 586.082 186.216 584.846 186.216C583.478 186.216 582.338 185.826 581.426 185.046C580.514 184.266 580.058 183.144 580.058 181.68ZM587.096 181.05C587.132 180.798 587.114 180.534 587.042 180.258C586.97 179.982 586.838 179.706 586.646 179.43C586.466 179.154 586.184 178.926 585.8 178.746C585.416 178.566 584.966 178.476 584.45 178.476C583.67 178.476 582.992 178.704 582.416 179.16C581.852 179.616 581.546 180.246 581.498 181.05H587.096Z" fill="#37376D"/>
<path d="M597.031 171.438H598.435C597.679 172.566 597.091 173.868 596.671 175.344C596.251 176.82 596.041 178.272 596.041 179.7C596.041 181.128 596.251 182.58 596.671 184.056C597.091 185.532 597.679 186.834 598.435 187.962H597.031C596.227 186.798 595.591 185.49 595.123 184.038C594.655 182.574 594.421 181.128 594.421 179.7C594.421 178.272 594.655 176.832 595.123 175.38C595.591 173.916 596.227 172.602 597.031 171.438Z" fill="#37376D"/>
<path d="M603.926 187.08H602.486L609.848 172.32H611.288L603.926 187.08ZM604.448 173.94C605.024 174.444 605.312 175.134 605.312 176.01C605.312 176.886 605.024 177.576 604.448 178.08C603.884 178.584 603.194 178.836 602.378 178.836C601.55 178.836 600.848 178.584 600.272 178.08C599.696 177.576 599.408 176.886 599.408 176.01C599.408 175.134 599.696 174.444 600.272 173.94C600.848 173.436 601.55 173.184 602.378 173.184C603.194 173.184 603.884 173.436 604.448 173.94ZM601.19 174.894C600.914 175.194 600.776 175.566 600.776 176.01C600.776 176.454 600.914 176.826 601.19 177.126C601.478 177.426 601.874 177.576 602.378 177.576C602.87 177.576 603.254 177.426 603.53 177.126C603.806 176.826 603.944 176.454 603.944 176.01C603.944 175.566 603.806 175.194 603.53 174.894C603.254 174.594 602.87 174.444 602.378 174.444C601.874 174.444 601.478 174.594 601.19 174.894ZM613.484 181.32C614.06 181.824 614.348 182.514 614.348 183.39C614.348 184.266 614.06 184.956 613.484 185.46C612.92 185.964 612.23 186.216 611.414 186.216C610.586 186.216 609.884 185.964 609.308 185.46C608.732 184.956 608.444 184.266 608.444 183.39C608.444 182.514 608.732 181.824 609.308 181.32C609.884 180.816 610.586 180.564 611.414 180.564C612.23 180.564 612.92 180.816 613.484 181.32ZM610.226 182.274C609.95 182.574 609.812 182.946 609.812 183.39C609.812 183.834 609.95 184.206 610.226 184.506C610.514 184.806 610.91 184.956 611.414 184.956C611.906 184.956 612.29 184.806 612.566 184.506C612.842 184.206 612.98 183.834 612.98 183.39C612.98 182.946 612.842 182.574 612.566 182.274C612.29 181.974 611.906 181.824 611.414 181.824C610.91 181.824 610.514 181.974 610.226 182.274Z" fill="#37376D"/>
<path d="M615.329 171.438H616.733C617.537 172.602 618.173 173.916 618.641 175.38C619.109 176.832 619.343 178.272 619.343 179.7C619.343 181.128 619.109 182.574 618.641 184.038C618.173 185.49 617.537 186.798 616.733 187.962H615.329C616.085 186.834 616.673 185.532 617.093 184.056C617.513 182.58 617.723 181.128 617.723 179.7C617.723 178.272 617.513 176.82 617.093 175.344C616.673 173.868 616.085 172.566 615.329 171.438Z" fill="#37376D"/>
<path d="M380.656 210.4H385.822C387.142 210.4 388.186 210.676 388.954 211.228C389.722 211.768 390.106 212.554 390.106 213.586C390.106 214.33 389.908 214.942 389.512 215.422C389.116 215.89 388.642 216.208 388.09 216.376C388.762 216.556 389.35 216.904 389.854 217.42C390.358 217.924 390.61 218.632 390.61 219.544C390.61 220.096 390.502 220.582 390.286 221.002C390.082 221.422 389.818 221.758 389.494 222.01C389.182 222.25 388.81 222.448 388.378 222.604C387.958 222.76 387.55 222.868 387.154 222.928C386.77 222.976 386.374 223 385.966 223H380.656V210.4ZM389.08 219.382C389.08 217.93 388.078 217.204 386.074 217.204H382.168V221.56H385.66C386.044 221.56 386.368 221.554 386.632 221.542C386.896 221.518 387.196 221.47 387.532 221.398C387.868 221.314 388.138 221.2 388.342 221.056C388.546 220.9 388.72 220.684 388.864 220.408C389.008 220.12 389.08 219.778 389.08 219.382ZM388.576 213.802C388.576 213.094 388.33 212.59 387.838 212.29C387.358 211.99 386.644 211.84 385.696 211.84H382.168V215.764H386.11C386.83 215.764 387.418 215.608 387.874 215.296C388.342 214.972 388.576 214.474 388.576 213.802Z" fill="#9B9BB6"/>
<path d="M396.794 223H392.69V214.36H394.13V217.384H396.794C397.826 217.384 398.642 217.648 399.242 218.176C399.842 218.704 400.142 219.376 400.142 220.192C400.142 221.008 399.842 221.68 399.242 222.208C398.642 222.736 397.826 223 396.794 223ZM394.13 218.68V221.704H396.614C397.262 221.704 397.766 221.578 398.126 221.326C398.498 221.074 398.684 220.696 398.684 220.192C398.684 219.688 398.498 219.31 398.126 219.058C397.766 218.806 397.262 218.68 396.614 218.68H394.13ZM403.256 223H401.816V214.36H403.256V223Z" fill="#9B9BB6"/>
<path d="M414.368 218.932C414.368 220.264 413.96 221.314 413.144 222.082C412.34 222.838 411.278 223.216 409.958 223.216C408.614 223.216 407.528 222.772 406.7 221.884C405.884 220.996 405.476 219.754 405.476 218.158C405.476 216.766 405.716 215.566 406.196 214.558C406.676 213.55 407.324 212.794 408.14 212.29C408.692 211.954 409.262 211.69 409.85 211.498C410.45 211.294 410.942 211.168 411.326 211.12C411.722 211.072 412.13 210.976 412.55 210.832C412.97 210.676 413.318 210.46 413.594 210.184V211.696C413.258 211.936 412.844 212.116 412.352 212.236C411.86 212.344 411.314 212.476 410.714 212.632C410.114 212.788 409.538 213.028 408.986 213.352C408.446 213.676 408.026 214.084 407.726 214.576C407.426 215.068 407.162 215.656 406.934 216.34C407.246 215.86 407.69 215.47 408.266 215.17C408.842 214.87 409.46 214.72 410.12 214.72C411.284 214.72 412.28 215.11 413.108 215.89C413.948 216.67 414.368 217.684 414.368 218.932ZM406.916 218.968C406.916 219.796 407.192 220.486 407.744 221.038C408.296 221.578 409.022 221.848 409.922 221.848C410.846 221.848 411.578 221.578 412.118 221.038C412.658 220.498 412.928 219.808 412.928 218.968C412.928 218.128 412.658 217.438 412.118 216.898C411.578 216.358 410.846 216.088 409.922 216.088C409.058 216.088 408.338 216.382 407.762 216.97C407.198 217.546 406.916 218.212 406.916 218.968Z" fill="#9B9BB6"/>
<path d="M417.751 215.8C418.723 214.696 419.887 214.144 421.243 214.144C422.479 214.144 423.505 214.576 424.321 215.44C425.149 216.304 425.563 217.384 425.563 218.68C425.563 219.976 425.149 221.056 424.321 221.92C423.505 222.784 422.479 223.216 421.243 223.216C419.875 223.216 418.759 222.712 417.895 221.704V226.96H416.455V214.36H417.751V215.8ZM423.241 221.002C423.829 220.414 424.123 219.64 424.123 218.68C424.123 217.72 423.829 216.946 423.241 216.358C422.665 215.77 421.945 215.476 421.081 215.476C420.349 215.476 419.701 215.68 419.137 216.088C418.573 216.496 418.159 217 417.895 217.6V219.76C418.159 220.36 418.573 220.864 419.137 221.272C419.701 221.68 420.349 221.884 421.081 221.884C421.945 221.884 422.665 221.59 423.241 221.002Z" fill="#9B9BB6"/>
<path d="M434.655 221.2C434.655 221.644 434.877 221.866 435.321 221.866C435.513 221.866 435.735 221.824 435.987 221.74V222.91C435.627 223.042 435.267 223.108 434.907 223.108C434.079 223.108 433.551 222.76 433.323 222.064C432.399 222.832 431.277 223.216 429.957 223.216C429.117 223.216 428.397 222.994 427.797 222.55C427.209 222.094 426.915 221.44 426.915 220.588C426.915 219.568 427.293 218.83 428.049 218.374C428.817 217.906 429.741 217.672 430.821 217.672C431.613 217.672 432.411 217.762 433.215 217.942V217.636C433.215 216.976 432.999 216.454 432.567 216.07C432.135 215.674 431.529 215.476 430.749 215.476C429.657 215.476 428.607 215.692 427.599 216.124V214.72C428.727 214.336 429.825 214.144 430.893 214.144C432.069 214.144 432.987 214.462 433.647 215.098C434.319 215.722 434.655 216.628 434.655 217.816V221.2ZM428.391 220.516C428.391 220.996 428.571 221.362 428.931 221.614C429.303 221.854 429.747 221.974 430.263 221.974C431.451 221.974 432.435 221.554 433.215 220.714V219.13C432.399 218.962 431.667 218.878 431.019 218.878C430.287 218.878 429.663 219.01 429.147 219.274C428.643 219.526 428.391 219.94 428.391 220.516Z" fill="#9B9BB6"/>
<path d="M440.727 223H439.287V215.692H436.101V214.36H443.895V215.692H440.727V223Z" fill="#9B9BB6"/>
<path d="M449.634 223H445.53V214.36H446.97V217.384H449.634C450.666 217.384 451.482 217.648 452.082 218.176C452.682 218.704 452.982 219.376 452.982 220.192C452.982 221.008 452.682 221.68 452.082 222.208C451.482 222.736 450.666 223 449.634 223ZM446.97 218.68V221.704H449.454C450.102 221.704 450.606 221.578 450.966 221.326C451.338 221.074 451.524 220.696 451.524 220.192C451.524 219.688 451.338 219.31 450.966 219.058C450.606 218.806 450.102 218.68 449.454 218.68H446.97Z" fill="#9B9BB6"/>
<path d="M456.106 221.578C456.286 221.734 456.376 221.956 456.376 222.244C456.376 222.532 456.286 222.76 456.106 222.928C455.926 223.084 455.704 223.162 455.44 223.162C455.176 223.162 454.948 223.084 454.756 222.928C454.576 222.76 454.486 222.532 454.486 222.244C454.486 221.956 454.576 221.734 454.756 221.578C454.948 221.422 455.176 221.344 455.44 221.344C455.704 221.344 455.926 221.422 456.106 221.578Z" fill="#9B9BB6"/>
<path d="M459.974 221.578C460.154 221.734 460.244 221.956 460.244 222.244C460.244 222.532 460.154 222.76 459.974 222.928C459.794 223.084 459.572 223.162 459.308 223.162C459.044 223.162 458.816 223.084 458.624 222.928C458.444 222.76 458.354 222.532 458.354 222.244C458.354 221.956 458.444 221.734 458.624 221.578C458.816 221.422 459.044 221.344 459.308 221.344C459.572 221.344 459.794 221.422 459.974 221.578Z" fill="#9B9BB6"/>
<path d="M463.841 221.578C464.021 221.734 464.111 221.956 464.111 222.244C464.111 222.532 464.021 222.76 463.841 222.928C463.661 223.084 463.439 223.162 463.175 223.162C462.911 223.162 462.683 223.084 462.491 222.928C462.311 222.76 462.221 222.532 462.221 222.244C462.221 221.956 462.311 221.734 462.491 221.578C462.683 221.422 462.911 221.344 463.175 221.344C463.439 221.344 463.661 221.422 463.841 221.578Z" fill="#9B9BB6"/>
<path fill-rule="evenodd" clip-rule="evenodd" d="M630 240H379V239H630V240Z" fill="black"/>
<path d="M626.165 218.75L622 215L630.33 215L626.165 218.75Z" fill="#000C2C"/>
<path d="M390.638 82.3999H392.15V94.9999H390.638V89.4019H383.168V94.9999H381.656V82.3999H383.168V87.9619H390.638V82.3999Z" fill="#37376D"/>
<path d="M402.01 93.1999C402.01 93.6439 402.232 93.8659 402.676 93.8659C402.868 93.8659 403.09 93.8239 403.342 93.7399V94.9099C402.982 95.0419 402.622 95.1079 402.262 95.1079C401.434 95.1079 400.906 94.7599 400.678 94.0639C399.754 94.8319 398.632 95.2159 397.312 95.2159C396.472 95.2159 395.752 94.9939 395.152 94.5499C394.564 94.0939 394.27 93.4399 394.27 92.5879C394.27 91.5679 394.648 90.8299 395.404 90.3739C396.172 89.9059 397.096 89.6719 398.176 89.6719C398.968 89.6719 399.766 89.7619 400.57 89.9419V89.6359C400.57 88.9759 400.354 88.4539 399.922 88.0699C399.49 87.6739 398.884 87.4759 398.104 87.4759C397.012 87.4759 395.962 87.6919 394.954 88.1239V86.7199C396.082 86.3359 397.18 86.1439 398.248 86.1439C399.424 86.1439 400.342 86.4619 401.002 87.0979C401.674 87.7219 402.01 88.6279 402.01 89.8159V93.1999ZM395.746 92.5159C395.746 92.9959 395.926 93.3619 396.286 93.6139C396.658 93.8539 397.102 93.9739 397.618 93.9739C398.806 93.9739 399.79 93.5539 400.57 92.7139V91.1299C399.754 90.9619 399.022 90.8779 398.374 90.8779C397.642 90.8779 397.018 91.0099 396.502 91.2739C395.998 91.5259 395.746 91.9399 395.746 92.5159Z" fill="#37376D"/>
<path d="M407.947 87.6919C407.887 88.6399 407.815 89.4679 407.731 90.1759C407.647 90.8839 407.527 91.5679 407.371 92.2279C407.215 92.8759 407.023 93.4039 406.795 93.8119C406.579 94.2199 406.303 94.5439 405.967 94.7839C405.631 95.0239 405.247 95.1439 404.815 95.1439C404.467 95.1439 404.119 95.0779 403.771 94.9459V93.8119C403.963 93.8839 404.155 93.9199 404.347 93.9199C405.067 93.9199 405.589 93.2899 405.913 92.0299C406.249 90.7579 406.459 88.8679 406.543 86.3599H412.897V94.9999H411.457V87.6919H407.947Z" fill="#37376D"/>
<path d="M416.781 94.9999H415.557V86.3599H416.997V92.6779L422.289 86.3599H423.513V94.9999H422.073V88.6819L416.781 94.9999Z" fill="#37376D"/>
<path d="M432.924 94.9999H431.484V91.9939C430.704 92.2939 429.846 92.4439 428.91 92.4439C427.878 92.4439 427.062 92.1859 426.462 91.6699C425.874 91.1539 425.58 90.3799 425.58 89.3479V86.3599H427.02V89.2399C427.02 89.9359 427.212 90.4219 427.596 90.6979C427.992 90.9739 428.574 91.1119 429.342 91.1119C430.146 91.1119 430.86 90.9859 431.484 90.7339V86.3599H432.924V94.9999Z" fill="#37376D"/>
<path d="M436.82 94.9999H435.596V86.3599H437.036V92.6779L442.328 86.3599H443.552V94.9999H442.112V88.6819L436.82 94.9999Z" fill="#37376D"/>
<path d="M445.619 90.6799C445.619 89.2639 446.051 88.1539 446.915 87.3499C447.791 86.5459 448.793 86.1439 449.921 86.1439C450.977 86.1439 451.847 86.4079 452.531 86.9359C453.227 87.4639 453.683 88.1179 453.899 88.8979C454.115 89.6659 454.127 90.4699 453.935 91.3099H447.059C447.143 92.1619 447.521 92.8039 448.193 93.2359C448.865 93.6679 449.675 93.8839 450.623 93.8839C451.679 93.8839 452.627 93.6499 453.467 93.1819V94.5859C452.663 95.0059 451.643 95.2159 450.407 95.2159C449.039 95.2159 447.899 94.8259 446.987 94.0459C446.075 93.2659 445.619 92.1439 445.619 90.6799ZM452.657 90.0499C452.693 89.7979 452.675 89.5339 452.603 89.2579C452.531 88.9819 452.399 88.7059 452.207 88.4299C452.027 88.1539 451.745 87.9259 451.361 87.7459C450.977 87.5659 450.527 87.4759 450.011 87.4759C449.231 87.4759 448.553 87.7039 447.977 88.1599C447.413 88.6159 447.107 89.2459 447.059 90.0499H452.657Z" fill="#37376D"/>
<path d="M381.656 119.4H386.822C388.142 119.4 389.186 119.676 389.954 120.228C390.722 120.768 391.106 121.554 391.106 122.586C391.106 123.33 390.908 123.942 390.512 124.422C390.116 124.89 389.642 125.208 389.09 125.376C389.762 125.556 390.35 125.904 390.854 126.42C391.358 126.924 391.61 127.632 391.61 128.544C391.61 129.096 391.502 129.582 391.286 130.002C391.082 130.422 390.818 130.758 390.494 131.01C390.182 131.25 389.81 131.448 389.378 131.604C388.958 131.76 388.55 131.868 388.154 131.928C387.77 131.976 387.374 132 386.966 132H381.656V119.4ZM390.08 128.382C390.08 126.93 389.078 126.204 387.074 126.204H383.168V130.56H386.66C387.044 130.56 387.368 130.554 387.632 130.542C387.896 130.518 388.196 130.47 388.532 130.398C388.868 130.314 389.138 130.2 389.342 130.056C389.546 129.9 389.72 129.684 389.864 129.408C390.008 129.12 390.08 128.778 390.08 128.382ZM389.576 122.802C389.576 122.094 389.33 121.59 388.838 121.29C388.358 120.99 387.644 120.84 386.696 120.84H383.168V124.764H387.11C387.83 124.764 388.418 124.608 388.874 124.296C389.342 123.972 389.576 123.474 389.576 122.802Z" fill="#9B9BB6"/>
<path d="M397.794 132H393.69V123.36H395.13V126.384H397.794C398.826 126.384 399.642 126.648 400.242 127.176C400.842 127.704 401.142 128.376 401.142 129.192C401.142 130.008 400.842 130.68 400.242 131.208C399.642 131.736 398.826 132 397.794 132ZM395.13 127.68V130.704H397.614C398.262 130.704 398.766 130.578 399.126 130.326C399.498 130.074 399.684 129.696 399.684 129.192C399.684 128.688 399.498 128.31 399.126 128.058C398.766 127.806 398.262 127.68 397.614 127.68H395.13ZM404.256 132H402.816V123.36H404.256V132Z" fill="#9B9BB6"/>
<path d="M415.368 127.932C415.368 129.264 414.96 130.314 414.144 131.082C413.34 131.838 412.278 132.216 410.958 132.216C409.614 132.216 408.528 131.772 407.7 130.884C406.884 129.996 406.476 128.754 406.476 127.158C406.476 125.766 406.716 124.566 407.196 123.558C407.676 122.55 408.324 121.794 409.14 121.29C409.692 120.954 410.262 120.69 410.85 120.498C411.45 120.294 411.942 120.168 412.326 120.12C412.722 120.072 413.13 119.976 413.55 119.832C413.97 119.676 414.318 119.46 414.594 119.184V120.696C414.258 120.936 413.844 121.116 413.352 121.236C412.86 121.344 412.314 121.476 411.714 121.632C411.114 121.788 410.538 122.028 409.986 122.352C409.446 122.676 409.026 123.084 408.726 123.576C408.426 124.068 408.162 124.656 407.934 125.34C408.246 124.86 408.69 124.47 409.266 124.17C409.842 123.87 410.46 123.72 411.12 123.72C412.284 123.72 413.28 124.11 414.108 124.89C414.948 125.67 415.368 126.684 415.368 127.932ZM407.916 127.968C407.916 128.796 408.192 129.486 408.744 130.038C409.296 130.578 410.022 130.848 410.922 130.848C411.846 130.848 412.578 130.578 413.118 130.038C413.658 129.498 413.928 128.808 413.928 127.968C413.928 127.128 413.658 126.438 413.118 125.898C412.578 125.358 411.846 125.088 410.922 125.088C410.058 125.088 409.338 125.382 408.762 125.97C408.198 126.546 407.916 127.212 407.916 127.968Z" fill="#9B9BB6"/>
<path d="M418.751 124.8C419.723 123.696 420.887 123.144 422.243 123.144C423.479 123.144 424.505 123.576 425.321 124.44C426.149 125.304 426.563 126.384 426.563 127.68C426.563 128.976 426.149 130.056 425.321 130.92C424.505 131.784 423.479 132.216 422.243 132.216C420.875 132.216 419.759 131.712 418.895 130.704V135.96H417.455V123.36H418.751V124.8ZM424.241 130.002C424.829 129.414 425.123 128.64 425.123 127.68C425.123 126.72 424.829 125.946 424.241 125.358C423.665 124.77 422.945 124.476 422.081 124.476C421.349 124.476 420.701 124.68 420.137 125.088C419.573 125.496 419.159 126 418.895 126.6V128.76C419.159 129.36 419.573 129.864 420.137 130.272C420.701 130.68 421.349 130.884 422.081 130.884C422.945 130.884 423.665 130.59 424.241 130.002Z" fill="#9B9BB6"/>
<path d="M435.655 130.2C435.655 130.644 435.877 130.866 436.321 130.866C436.513 130.866 436.735 130.824 436.987 130.74V131.91C436.627 132.042 436.267 132.108 435.907 132.108C435.079 132.108 434.551 131.76 434.323 131.064C433.399 131.832 432.277 132.216 430.957 132.216C430.117 132.216 429.397 131.994 428.797 131.55C428.209 131.094 427.915 130.44 427.915 129.588C427.915 128.568 428.293 127.83 429.049 127.374C429.817 126.906 430.741 126.672 431.821 126.672C432.613 126.672 433.411 126.762 434.215 126.942V126.636C434.215 125.976 433.999 125.454 433.567 125.07C433.135 124.674 432.529 124.476 431.749 124.476C430.657 124.476 429.607 124.692 428.599 125.124V123.72C429.727 123.336 430.825 123.144 431.893 123.144C433.069 123.144 433.987 123.462 434.647 124.098C435.319 124.722 435.655 125.628 435.655 126.816V130.2ZM429.391 129.516C429.391 129.996 429.571 130.362 429.931 130.614C430.303 130.854 430.747 130.974 431.263 130.974C432.451 130.974 433.435 130.554 434.215 129.714V128.13C433.399 127.962 432.667 127.878 432.019 127.878C431.287 127.878 430.663 128.01 430.147 128.274C429.643 128.526 429.391 128.94 429.391 129.516Z" fill="#9B9BB6"/>
<path d="M441.727 132H440.287V124.692H437.101V123.36H444.895V124.692H441.727V132Z" fill="#9B9BB6"/>
<path d="M450.634 132H446.53V123.36H447.97V126.384H450.634C451.666 126.384 452.482 126.648 453.082 127.176C453.682 127.704 453.982 128.376 453.982 129.192C453.982 130.008 453.682 130.68 453.082 131.208C452.482 131.736 451.666 132 450.634 132ZM447.97 127.68V130.704H450.454C451.102 130.704 451.606 130.578 451.966 130.326C452.338 130.074 452.524 129.696 452.524 129.192C452.524 128.688 452.338 128.31 451.966 128.058C451.606 127.806 451.102 127.68 450.454 127.68H447.97Z" fill="#9B9BB6"/>
<path fill-rule="evenodd" clip-rule="evenodd" d="M631 149H380V148H631V149Z" fill="black"/>
<path d="M626.165 130.75L622 127L630.33 127L626.165 130.75Z" fill="#000C2C"/>
<path d="M89.1683 277H87.6562V264.4H97.9343V277H96.4223V265.84H89.1683V277Z" fill="#37376D"/>
<path d="M102.216 269.8C103.188 268.696 104.352 268.144 105.708 268.144C106.944 268.144 107.97 268.576 108.786 269.44C109.614 270.304 110.028 271.384 110.028 272.68C110.028 273.976 109.614 275.056 108.786 275.92C107.97 276.784 106.944 277.216 105.708 277.216C104.34 277.216 103.224 276.712 102.36 275.704V280.96H100.92V268.36H102.216V269.8ZM107.706 275.002C108.294 274.414 108.588 273.64 108.588 272.68C108.588 271.72 108.294 270.946 107.706 270.358C107.13 269.77 106.41 269.476 105.546 269.476C104.814 269.476 104.166 269.68 103.602 270.088C103.038 270.496 102.624 271 102.36 271.6V273.76C102.624 274.36 103.038 274.864 103.602 275.272C104.166 275.68 104.814 275.884 105.546 275.884C106.41 275.884 107.13 275.59 107.706 275.002Z" fill="#37376D"/>
<path d="M112.874 276.01C111.962 275.194 111.506 274.084 111.506 272.68C111.506 271.276 111.962 270.172 112.874 269.368C113.786 268.552 114.866 268.144 116.114 268.144C117.374 268.144 118.454 268.552 119.354 269.368C120.266 270.172 120.722 271.276 120.722 272.68C120.722 274.084 120.266 275.194 119.354 276.01C118.454 276.814 117.374 277.216 116.114 277.216C114.866 277.216 113.786 276.814 112.874 276.01ZM118.382 275.002C118.982 274.426 119.282 273.652 119.282 272.68C119.282 271.708 118.982 270.94 118.382 270.376C117.782 269.8 117.026 269.512 116.114 269.512C115.202 269.512 114.446 269.8 113.846 270.376C113.246 270.94 112.946 271.708 112.946 272.68C112.946 273.652 113.246 274.426 113.846 275.002C114.446 275.566 115.202 275.848 116.114 275.848C117.026 275.848 117.782 275.566 118.382 275.002Z" fill="#37376D"/>
<path d="M124.011 277H122.787V268.36H124.227V274.678L129.519 268.36H130.743V277H129.303V270.682L124.011 277Z" fill="#37376D"/>
<path d="M139.867 274.678C139.867 275.482 139.519 276.106 138.823 276.55C138.139 276.994 137.191 277.216 135.979 277.216C134.767 277.216 133.705 276.994 132.793 276.55V275.182C133.669 275.65 134.671 275.884 135.799 275.884C137.551 275.884 138.427 275.428 138.427 274.516C138.427 273.688 137.791 273.274 136.519 273.274H134.629V271.942H136.519C137.671 271.942 138.247 271.57 138.247 270.826C138.247 270.37 138.031 270.028 137.599 269.8C137.167 269.572 136.591 269.458 135.871 269.458C134.827 269.458 133.849 269.686 132.937 270.142V268.792C133.909 268.348 134.941 268.126 136.033 268.126C137.209 268.126 138.109 268.354 138.733 268.81C139.369 269.254 139.687 269.86 139.687 270.628C139.687 271.144 139.543 271.57 139.255 271.906C138.967 272.242 138.577 272.464 138.085 272.572C138.601 272.704 139.027 272.956 139.363 273.328C139.699 273.7 139.867 274.15 139.867 274.678Z" fill="#37376D"/>
<path d="M146.861 277H141.983V268.36H146.717C147.497 268.36 148.133 268.564 148.625 268.972C149.129 269.38 149.381 269.956 149.381 270.7C149.381 271.132 149.273 271.522 149.057 271.87C148.841 272.218 148.565 272.464 148.229 272.608C148.625 272.74 148.961 272.98 149.237 273.328C149.513 273.676 149.651 274.102 149.651 274.606C149.651 275.338 149.411 275.92 148.931 276.352C148.463 276.784 147.773 277 146.861 277ZM143.423 273.256V275.74H146.663C147.695 275.74 148.211 275.332 148.211 274.516C148.211 273.676 147.713 273.256 146.717 273.256H143.423ZM143.423 269.62V272.014H146.573C147.473 272.014 147.923 271.624 147.923 270.844C147.923 270.4 147.791 270.088 147.527 269.908C147.263 269.716 146.945 269.62 146.573 269.62H143.423Z" fill="#37376D"/>
<path d="M152.618 276.01C151.706 275.194 151.25 274.084 151.25 272.68C151.25 271.276 151.706 270.172 152.618 269.368C153.53 268.552 154.61 268.144 155.858 268.144C157.118 268.144 158.198 268.552 159.098 269.368C160.01 270.172 160.466 271.276 160.466 272.68C160.466 274.084 160.01 275.194 159.098 276.01C158.198 276.814 157.118 277.216 155.858 277.216C154.61 277.216 153.53 276.814 152.618 276.01ZM158.126 275.002C158.726 274.426 159.026 273.652 159.026 272.68C159.026 271.708 158.726 270.94 158.126 270.376C157.526 269.8 156.77 269.512 155.858 269.512C154.946 269.512 154.19 269.8 153.59 270.376C152.99 270.94 152.69 271.708 152.69 272.68C152.69 273.652 152.99 274.426 153.59 275.002C154.19 275.566 154.946 275.848 155.858 275.848C156.77 275.848 157.526 275.566 158.126 275.002Z" fill="#37376D"/>
<path d="M162.843 279.34H161.439V275.704H162.591C163.611 273.904 164.103 271.456 164.067 268.36H170.511V275.704H171.771V279.34H170.367V277H162.843V279.34ZM165.453 269.656C165.393 272.02 164.961 274.036 164.157 275.704H169.071V269.656H165.453Z" fill="#37376D"/>
<path d="M174.918 277H173.694V268.36H175.134V274.678L180.426 268.36H181.65V277H180.21V270.682L174.918 277Z" fill="#37376D"/>
<path d="M187.911 277H186.471V269.692H183.285V268.36H191.079V269.692H187.911V277Z" fill="#37376D"/>
<path d="M191.838 272.68C191.838 271.264 192.27 270.154 193.134 269.35C194.01 268.546 195.012 268.144 196.14 268.144C197.196 268.144 198.066 268.408 198.75 268.936C199.446 269.464 199.902 270.118 200.118 270.898C200.334 271.666 200.346 272.47 200.154 273.31H193.278C193.362 274.162 193.74 274.804 194.412 275.236C195.084 275.668 195.894 275.884 196.842 275.884C197.898 275.884 198.846 275.65 199.686 275.182V276.586C198.882 277.006 197.862 277.216 196.626 277.216C195.258 277.216 194.118 276.826 193.206 276.046C192.294 275.266 191.838 274.144 191.838 272.68ZM198.876 272.05C198.912 271.798 198.894 271.534 198.822 271.258C198.75 270.982 198.618 270.706 198.426 270.43C198.246 270.154 197.964 269.926 197.58 269.746C197.196 269.566 196.746 269.476 196.23 269.476C195.45 269.476 194.772 269.704 194.196 270.16C193.632 270.616 193.326 271.246 193.278 272.05H198.876Z" fill="#37376D"/>
<path d="M205.318 269.692C205.258 270.64 205.186 271.468 205.102 272.176C205.018 272.884 204.898 273.568 204.742 274.228C204.586 274.876 204.394 275.404 204.166 275.812C203.95 276.22 203.674 276.544 203.338 276.784C203.002 277.024 202.618 277.144 202.186 277.144C201.838 277.144 201.49 277.078 201.142 276.946V275.812C201.334 275.884 201.526 275.92 201.718 275.92C202.438 275.92 202.96 275.29 203.284 274.03C203.62 272.758 203.83 270.868 203.914 268.36H210.268V277H208.828V269.692H205.318Z" fill="#37376D"/>
<path d="M217.032 277H212.928V268.36H214.368V271.384H217.032C218.064 271.384 218.88 271.648 219.48 272.176C220.08 272.704 220.38 273.376 220.38 274.192C220.38 275.008 220.08 275.68 219.48 276.208C218.88 276.736 218.064 277 217.032 277ZM214.368 272.68V275.704H216.852C217.5 275.704 218.004 275.578 218.364 275.326C218.736 275.074 218.922 274.696 218.922 274.192C218.922 273.688 218.736 273.31 218.364 273.058C218.004 272.806 217.5 272.68 216.852 272.68H214.368Z" fill="#37376D"/>
<path d="M87.6562 301.4H92.8222C94.1423 301.4 95.1863 301.676 95.9543 302.228C96.7222 302.768 97.1063 303.554 97.1063 304.586C97.1063 305.33 96.9083 305.942 96.5123 306.422C96.1163 306.89 95.6423 307.208 95.0903 307.376C95.7623 307.556 96.3503 307.904 96.8543 308.42C97.3583 308.924 97.6103 309.632 97.6103 310.544C97.6103 311.096 97.5023 311.582 97.2863 312.002C97.0822 312.422 96.8183 312.758 96.4943 313.01C96.1823 313.25 95.8103 313.448 95.3783 313.604C94.9583 313.76 94.5503 313.868 94.1543 313.928C93.7703 313.976 93.3743 314 92.9663 314H87.6562V301.4ZM96.0802 310.382C96.0802 308.93 95.0782 308.204 93.0743 308.204H89.1683V312.56H92.6602C93.0442 312.56 93.3682 312.554 93.6323 312.542C93.8963 312.518 94.1962 312.47 94.5323 312.398C94.8683 312.314 95.1383 312.2 95.3423 312.056C95.5463 311.9 95.7203 311.684 95.8643 311.408C96.0082 311.12 96.0802 310.778 96.0802 310.382ZM95.5763 304.802C95.5763 304.094 95.3302 303.59 94.8383 303.29C94.3583 302.99 93.6443 302.84 92.6962 302.84H89.1683V306.764H93.1102C93.8302 306.764 94.4183 306.608 94.8743 306.296C95.3422 305.972 95.5763 305.474 95.5763 304.802Z" fill="#9B9BB6"/>
<path d="M103.794 314H99.6897V305.36H101.13V308.384H103.794C104.826 308.384 105.642 308.648 106.242 309.176C106.842 309.704 107.142 310.376 107.142 311.192C107.142 312.008 106.842 312.68 106.242 313.208C105.642 313.736 104.826 314 103.794 314ZM101.13 309.68V312.704H103.614C104.262 312.704 104.766 312.578 105.126 312.326C105.498 312.074 105.684 311.696 105.684 311.192C105.684 310.688 105.498 310.31 105.126 310.058C104.766 309.806 104.262 309.68 103.614 309.68H101.13ZM110.256 314H108.816V305.36H110.256V314Z" fill="#9B9BB6"/>
<path d="M121.368 309.932C121.368 311.264 120.96 312.314 120.144 313.082C119.34 313.838 118.278 314.216 116.958 314.216C115.614 314.216 114.528 313.772 113.7 312.884C112.884 311.996 112.476 310.754 112.476 309.158C112.476 307.766 112.716 306.566 113.196 305.558C113.676 304.55 114.324 303.794 115.14 303.29C115.692 302.954 116.262 302.69 116.85 302.498C117.45 302.294 117.942 302.168 118.326 302.12C118.722 302.072 119.13 301.976 119.55 301.832C119.97 301.676 120.318 301.46 120.594 301.184V302.696C120.258 302.936 119.844 303.116 119.352 303.236C118.86 303.344 118.314 303.476 117.714 303.632C117.114 303.788 116.538 304.028 115.986 304.352C115.446 304.676 115.026 305.084 114.726 305.576C114.426 306.068 114.162 306.656 113.934 307.34C114.246 306.86 114.69 306.47 115.266 306.17C115.842 305.87 116.46 305.72 117.12 305.72C118.284 305.72 119.28 306.11 120.108 306.89C120.948 307.67 121.368 308.684 121.368 309.932ZM113.916 309.968C113.916 310.796 114.192 311.486 114.744 312.038C115.296 312.578 116.022 312.848 116.922 312.848C117.846 312.848 118.578 312.578 119.118 312.038C119.658 311.498 119.928 310.808 119.928 309.968C119.928 309.128 119.658 308.438 119.118 307.898C118.578 307.358 117.846 307.088 116.922 307.088C116.058 307.088 115.338 307.382 114.762 307.97C114.198 308.546 113.916 309.212 113.916 309.968Z" fill="#9B9BB6"/>
<path d="M124.751 306.8C125.723 305.696 126.887 305.144 128.243 305.144C129.479 305.144 130.505 305.576 131.321 306.44C132.149 307.304 132.563 308.384 132.563 309.68C132.563 310.976 132.149 312.056 131.321 312.92C130.505 313.784 129.479 314.216 128.243 314.216C126.875 314.216 125.759 313.712 124.895 312.704V317.96H123.455V305.36H124.751V306.8ZM130.241 312.002C130.829 311.414 131.123 310.64 131.123 309.68C131.123 308.72 130.829 307.946 130.241 307.358C129.665 306.77 128.945 306.476 128.081 306.476C127.349 306.476 126.701 306.68 126.137 307.088C125.573 307.496 125.159 308 124.895 308.6V310.76C125.159 311.36 125.573 311.864 126.137 312.272C126.701 312.68 127.349 312.884 128.081 312.884C128.945 312.884 129.665 312.59 130.241 312.002Z" fill="#9B9BB6"/>
<path d="M141.655 312.2C141.655 312.644 141.877 312.866 142.321 312.866C142.513 312.866 142.735 312.824 142.987 312.74V313.91C142.627 314.042 142.267 314.108 141.907 314.108C141.079 314.108 140.551 313.76 140.323 313.064C139.399 313.832 138.277 314.216 136.957 314.216C136.117 314.216 135.397 313.994 134.797 313.55C134.209 313.094 133.915 312.44 133.915 311.588C133.915 310.568 134.293 309.83 135.049 309.374C135.817 308.906 136.741 308.672 137.821 308.672C138.613 308.672 139.411 308.762 140.215 308.942V308.636C140.215 307.976 139.999 307.454 139.567 307.07C139.135 306.674 138.529 306.476 137.749 306.476C136.657 306.476 135.607 306.692 134.599 307.124V305.72C135.727 305.336 136.825 305.144 137.893 305.144C139.069 305.144 139.987 305.462 140.647 306.098C141.319 306.722 141.655 307.628 141.655 308.816V312.2ZM135.391 311.516C135.391 311.996 135.571 312.362 135.931 312.614C136.303 312.854 136.747 312.974 137.263 312.974C138.451 312.974 139.435 312.554 140.215 311.714V310.13C139.399 309.962 138.667 309.878 138.019 309.878C137.287 309.878 136.663 310.01 136.147 310.274C135.643 310.526 135.391 310.94 135.391 311.516Z" fill="#9B9BB6"/>
<path d="M147.727 314H146.287V306.692H143.101V305.36H150.895V306.692H147.727V314Z" fill="#9B9BB6"/>
<path d="M156.634 314H152.53V305.36H153.97V308.384H156.634C157.666 308.384 158.482 308.648 159.082 309.176C159.682 309.704 159.982 310.376 159.982 311.192C159.982 312.008 159.682 312.68 159.082 313.208C158.482 313.736 157.666 314 156.634 314ZM153.97 309.68V312.704H156.454C157.102 312.704 157.606 312.578 157.966 312.326C158.338 312.074 158.524 311.696 158.524 311.192C158.524 310.688 158.338 310.31 157.966 310.058C157.606 309.806 157.102 309.68 156.454 309.68H153.97Z" fill="#9B9BB6"/>
<path d="M163.106 312.578C163.286 312.734 163.376 312.956 163.376 313.244C163.376 313.532 163.286 313.76 163.106 313.928C162.926 314.084 162.704 314.162 162.44 314.162C162.176 314.162 161.948 314.084 161.756 313.928C161.576 313.76 161.486 313.532 161.486 313.244C161.486 312.956 161.576 312.734 161.756 312.578C161.948 312.422 162.176 312.344 162.44 312.344C162.704 312.344 162.926 312.422 163.106 312.578Z" fill="#9B9BB6"/>
<path d="M166.974 312.578C167.154 312.734 167.244 312.956 167.244 313.244C167.244 313.532 167.154 313.76 166.974 313.928C166.794 314.084 166.572 314.162 166.308 314.162C166.044 314.162 165.816 314.084 165.624 313.928C165.444 313.76 165.354 313.532 165.354 313.244C165.354 312.956 165.444 312.734 165.624 312.578C165.816 312.422 166.044 312.344 166.308 312.344C166.572 312.344 166.794 312.422 166.974 312.578Z" fill="#9B9BB6"/>
<path d="M170.841 312.578C171.021 312.734 171.111 312.956 171.111 313.244C171.111 313.532 171.021 313.76 170.841 313.928C170.661 314.084 170.439 314.162 170.175 314.162C169.911 314.162 169.683 314.084 169.491 313.928C169.311 313.76 169.221 313.532 169.221 313.244C169.221 312.956 169.311 312.734 169.491 312.578C169.683 312.422 169.911 312.344 170.175 312.344C170.439 312.344 170.661 312.422 170.841 312.578Z" fill="#9B9BB6"/>
<path fill-rule="evenodd" clip-rule="evenodd" d="M337 331H86V330H337V331Z" fill="black"/>
<path d="M333.165 311.75L329 308L337.33 308L333.165 311.75Z" fill="#000C2C"/>
<defs>
<filter id="filter0_d" x="0" y="0" width="719" height="423" filterUnits="userSpaceOnUse" color-interpolation-filters="sRGB">
<feFlood flood-opacity="0" result="BackgroundImageFix"/>
<feColorMatrix in="SourceAlpha" type="matrix" values="0 0 0 0 0 0 0 0 0 0 0 0 0 0 0 0 0 0 127 0" result="hardAlpha"/>
<feOffset dy="4"/>
<feGaussianBlur stdDeviation="25"/>
<feComposite in2="hardAlpha" operator="out"/>
<feColorMatrix type="matrix" values="0 0 0 0 0 0 0 0 0 0 0 0 0 0 0 0 0 0 0.1 0"/>
<feBlend mode="normal" in2="BackgroundImageFix" result="effect1_dropShadow"/>
<feBlend mode="normal" in="SourceGraphic" in2="effect1_dropShadow" result="shape"/>
</filter>
</defs>
</svg>
