<svg width="80" height="73" viewBox="0 0 80 73" fill="none" xmlns="http://www.w3.org/2000/svg">
<path d="M74.8275 0H5.1725C2.32031 0 0 2.32031 0 5.17234V67.2219C0 70.0739 2.32031 72.3944 5.1725 72.3944H74.8277C77.6797 72.3944 80.0002 70.0741 80.0002 67.2219V5.17234C80 2.32031 77.6797 0 74.8275 0ZM3.125 5.17234C3.125 4.04344 4.04344 3.12484 5.1725 3.12484H74.8277C75.9566 3.12484 76.8752 4.04328 76.8752 5.17234V11.5742H3.125V5.17234ZM76.875 67.222C76.875 68.3509 75.9566 69.2695 74.8275 69.2695H5.1725C4.04359 69.2695 3.125 68.3511 3.125 67.222V14.6992H76.875V67.222Z" fill="#0FA7F0"/>
<path d="M7.94121 5.96244C7.2723 6.08744 6.76027 6.66947 6.69136 7.34072C6.62199 8.01744 7.02339 8.67619 7.64902 8.93588C8.9834 9.48963 10.3054 8.00557 9.61543 6.74307C9.29386 6.15463 8.5998 5.82869 7.94121 5.96244Z" fill="#0FA7F0"/>
<path d="M15.0769 6.19587C13.8983 5.41056 12.325 6.54822 12.704 7.91056C12.8828 8.55275 13.4669 9.02056 14.1333 9.05478C14.7989 9.089 15.427 8.67525 15.6656 8.05556C15.9234 7.38603 15.6817 6.5915 15.0769 6.19587Z" fill="#0FA7F0"/>
<path d="M21.7794 6.89708C21.2552 5.61724 19.3785 5.64974 18.8818 6.92818C18.3671 8.25287 19.821 9.53599 21.0723 8.87068C21.7715 8.49896 22.0841 7.62865 21.7794 6.89708Z" fill="#0FA7F0"/>
<path d="M59.0191 44.6834C62.2326 44.6834 65.2541 43.4315 67.5266 41.159C69.8001 38.8874 71.0519 35.8659 71.0519 32.6504C71.0519 29.437 69.8001 26.4154 67.5266 24.142C65.253 21.8701 62.2316 20.6191 59.0191 20.6191C55.8048 20.6191 52.7832 21.8704 50.5112 24.1424C48.2382 26.4154 46.9863 29.437 46.9863 32.6504C46.9863 39.2854 52.3843 44.6834 59.0191 44.6834ZM66.1832 27.3546C67.3152 28.8788 67.9271 30.7179 67.9271 32.6505C67.9271 34.4668 67.3679 36.2591 66.3249 37.7465L60.5816 32.0034V23.8827C62.8123 24.2754 64.8332 25.537 66.1832 27.3546ZM52.7209 26.3523C54.0284 25.0448 55.6718 24.1965 57.4566 23.8826V32.6505C57.4566 33.0649 57.6213 33.4624 57.9143 33.7554L64.1148 39.9559C62.6307 40.9959 60.8685 41.5584 59.0191 41.5584C54.1073 41.5584 50.1113 37.5623 50.1113 32.6505C50.1113 30.2718 51.038 28.0351 52.7209 26.3523Z" fill="#0FA7F0"/>
<path d="M48.5488 53.5986H69.4894C70.3524 53.5986 71.0519 52.8991 71.0519 52.0361C71.0519 51.1732 70.3524 50.4736 69.4894 50.4736H48.5488C47.6859 50.4736 46.9863 51.1732 46.9863 52.0361C46.9863 52.8991 47.6859 53.5986 48.5488 53.5986Z" fill="#0FA7F0"/>
<path d="M9.53125 53.5986H38.5938C39.4567 53.5986 40.1562 52.899 40.1562 52.0361C40.1562 51.1731 39.4567 50.4736 38.5938 50.4736H36.5345V27.3857C36.5345 26.5228 35.835 25.8232 34.972 25.8232H27.2273C26.3644 25.8232 25.6648 26.5228 25.6648 27.3857V50.4736H21.6744V37.3678C21.6744 36.5048 20.9748 35.8053 20.1119 35.8053H12.367C11.5041 35.8053 10.8045 36.5048 10.8045 37.3678V50.4736H9.53125C8.66828 50.4736 7.96875 51.1731 7.96875 52.0361C7.96875 52.899 8.66828 53.5986 9.53125 53.5986ZM28.7898 28.9482H33.4095V50.4736H28.7898V28.9482ZM13.9295 38.9303H18.5494V50.4736H13.9295V38.9303Z" fill="#0FA7F0"/>
<path d="M69.4905 59.2695H16.7773C15.9144 59.2695 15.2148 59.9691 15.2148 60.832C15.2148 61.695 15.9144 62.3945 16.7773 62.3945H69.4905C70.3534 62.3945 71.053 61.695 71.053 60.832C71.053 59.9691 70.3534 59.2695 69.4905 59.2695Z" fill="#0FA7F0"/>
<path d="M8.08814 61.4303C8.34486 62.0466 8.97892 62.4377 9.64501 62.3899C10.2961 62.3432 10.8613 61.8769 11.035 61.2483C11.4024 59.9185 9.91407 58.7853 8.72767 59.4928C8.06876 59.8857 7.79861 60.7239 8.08814 61.4303Z" fill="#0FA7F0"/>
</svg>
