<svg width="80" height="80" viewBox="0 0 80 80" fill="none" xmlns="http://www.w3.org/2000/svg">
<path d="M67.6031 23.8297H60.0689C60.095 23.8128 60.1189 23.7934 60.1459 23.7778L62.1686 22.61C64.4508 21.2927 65.2601 18.2858 63.94 15.9991L60.1684 9.46656C58.8341 7.15562 55.8686 6.36078 53.5575 7.69516L51.5333 8.86375C50.3009 9.575 48.6111 8.59813 48.6111 7.17656V4.83969C48.6111 2.17109 46.4401 0 43.7716 0H36.2287C33.5602 0 31.3892 2.17109 31.3892 4.83953V7.17672C31.3892 8.59781 29.6995 9.57547 28.4669 8.86406L26.4427 7.69547C24.1316 6.36141 21.1659 7.15609 19.8317 9.46703L16.0603 15.9994C14.7261 18.3103 15.5206 21.2761 17.8317 22.6105L19.8544 23.7783C19.8814 23.7939 19.9053 23.8131 19.9312 23.83H12.3969C10.1103 23.83 8.25 25.6895 8.25 27.9753V64.8066C8.25 67.0931 10.1103 68.9534 12.3969 68.9534H31.968L31.302 74.6677C31.1587 75.9245 30.0977 76.8713 28.8333 76.8713C28.7994 76.8728 28.7666 76.8711 28.7331 76.8753H27.1634C26.3005 76.8753 25.6009 77.575 25.6009 78.4378C25.6009 79.3006 26.3005 80.0003 27.1634 80.0003H52.8367C53.6997 80.0003 54.3992 79.3006 54.3992 78.4378C54.3992 77.575 53.6997 76.8753 52.8367 76.8753H51.2669C51.2336 76.8716 51.2002 76.8711 51.1667 76.8713C49.9023 76.8713 48.8412 75.9244 48.698 74.6677C48.6978 74.6664 48.0322 68.9534 48.0322 68.9534H67.6031C69.8897 68.9534 71.75 67.0931 71.75 64.8066V27.975C71.75 25.6892 69.8897 23.8297 67.6031 23.8297ZM33.8631 76.875C34.1433 76.3083 34.3312 75.6858 34.4066 75.0252L35.1141 68.9533H44.8862L45.5936 75.0241C45.6692 75.6852 45.8573 76.3083 46.1376 76.8752H33.8631V76.875ZM36.2923 26.7094H43.7076C44.5706 26.7094 45.2701 26.0097 45.2701 25.1469V18.0259C47.6775 19.7208 49.1861 22.5205 49.1861 25.5508C49.1861 27.3611 48.6592 29.1125 47.6617 30.6169C46.6914 32.0827 45.3305 33.2348 43.7259 33.9486C43.0323 34.2573 42.6609 35.0198 42.8456 35.7562L45.4776 46.2523C45.3945 47.1191 44.6478 47.8061 43.7717 47.8061H36.228C35.3541 47.8061 34.6039 47.1194 34.5222 46.2531L37.1545 35.7562C37.3394 35.0192 36.9673 34.2563 36.2728 33.9481C32.9566 32.4759 30.8137 29.1797 30.8137 25.5508C30.8137 22.5203 32.3223 19.7208 34.7297 18.0259V25.1469C34.7298 26.0098 35.4295 26.7094 36.2923 26.7094ZM19.3942 19.9039C18.5755 19.4312 18.2939 18.3805 18.7666 17.5617L22.5381 11.0294C23.0108 10.2105 24.0616 9.92891 24.8803 10.4016L26.9045 11.5702C30.1897 13.4673 34.5144 10.9603 34.5144 7.17656V4.83953C34.5144 3.89406 35.2834 3.125 36.2289 3.125H43.7717C44.7172 3.125 45.4864 3.89422 45.4864 4.83969V7.17688C45.4864 10.9609 49.8108 13.4672 53.0961 11.5703L55.1202 10.4017C55.9391 9.92937 56.9897 10.2106 57.4623 11.0294L61.2339 17.5619C61.7012 18.3714 61.4139 19.4377 60.6064 19.9039L58.5837 21.0717C57.0681 21.9467 56.1477 23.5197 56.0939 25.3016C55.9877 27.1356 57.0034 28.9484 58.5837 29.8616L60.6064 31.0284C61.4144 31.4942 61.702 32.56 61.2341 33.3705L57.4625 39.903C56.9958 40.7114 55.9301 40.9975 55.1205 40.5298L53.0961 39.3614C51.1875 38.2588 48.7695 38.5917 47.1451 40.0528L46.1791 36.2003C47.8161 35.2498 49.2141 33.9342 50.2673 32.3433C51.6047 30.3262 52.3116 27.9777 52.3116 25.5511C52.3116 20.4098 49.0708 15.7641 44.2472 13.9913C43.768 13.815 43.2328 13.8842 42.8139 14.1766C42.3951 14.4688 42.1456 14.9472 42.1456 15.4578V23.5848H37.8553V15.4575C37.8553 14.9467 37.6058 14.4684 37.187 14.1762C36.7684 13.8837 36.2333 13.8145 35.7537 13.9909C30.9302 15.7639 27.6894 20.4095 27.6894 25.5508C27.6894 29.9675 30.0581 34.0164 33.8219 36.2005L32.8559 40.0522C31.2291 38.5886 28.8131 38.2589 26.9053 39.3606L24.8792 40.5298C24.0759 40.9945 23.0028 40.7064 22.5384 39.9023L18.7672 33.3692C18.2992 32.5602 18.5873 31.4939 19.3947 31.028L21.4181 29.8605C22.9994 28.9466 24.0058 27.1397 23.9073 25.3072C23.8555 23.5228 22.9347 21.9473 21.4173 21.0714L19.3942 19.9039ZM68.625 64.8063C68.625 65.3697 68.1666 65.8281 67.6031 65.8281H12.3969C11.8334 65.8281 11.375 65.3697 11.375 64.8063V60.7513H32.8523C33.7153 60.7513 34.4148 60.0516 34.4148 59.1888C34.4148 58.3259 33.7153 57.6263 32.8523 57.6263H11.375V27.975C11.375 27.4123 11.8334 26.9547 12.3969 26.9547H20.1284C20.0327 27.037 19.9847 27.0786 19.8542 27.1539L17.8314 28.3219C15.5495 29.6389 14.7419 32.6492 16.0603 34.9328L19.8312 41.4656C21.1481 43.747 24.1562 44.5564 26.4427 43.2367L28.4669 42.0681C29.6992 41.3569 31.3892 42.3339 31.3892 43.7555V46.0925C31.3892 48.7261 33.5969 50.933 36.2283 50.933H43.7722C46.4036 50.933 48.6112 48.7262 48.6112 46.0925V43.7555C48.6112 42.3342 50.3009 41.3567 51.5336 42.0681L53.5575 43.2367C55.8422 44.5558 58.8514 43.7481 60.1687 41.4659L63.9408 34.933C65.2611 32.6459 64.4503 29.6391 62.1683 28.3217L60.1461 27.1542C60.02 27.0814 59.9661 27.0361 59.8717 26.9548H67.6033C68.1667 26.9548 68.6251 27.4127 68.6251 27.9752V57.6264H46.6558C45.7928 57.6264 45.0933 58.3261 45.0933 59.1889C45.0933 60.0517 45.7928 60.7514 46.6558 60.7514H68.625V64.8063Z" fill="#0FA7F0"/>
<path d="M41.2862 58.5905C40.7495 57.3031 38.8459 57.3416 38.3743 58.6625C38.151 59.2877 38.3568 60.0122 38.8832 60.42C39.392 60.8142 40.1031 60.8566 40.6537 60.5239C41.3073 60.1291 41.5746 59.2947 41.2862 58.5905Z" fill="#0FA7F0"/>
</svg>
