<svg width="80" height="80" viewBox="0 0 80 80" fill="none" xmlns="http://www.w3.org/2000/svg">
<path d="M72.706 52.7747C70.651 51.5881 68.1227 51.942 66.4662 53.4755L62.7946 51.3556C64.5157 47.938 65.4868 44.0805 65.4868 40C65.4868 35.9195 64.5157 32.062 62.7946 28.6444L66.4687 26.5231C68.1504 28.0789 70.7207 28.3714 72.7062 27.2253C75.2319 25.767 76.1004 22.5258 74.6423 20C73.184 17.4742 69.9427 16.6059 67.417 18.0639C65.3621 19.2503 64.4043 21.6169 64.9038 23.8183L61.2198 25.9452C56.9168 19.5164 49.7526 15.158 41.5635 14.7063V10.3428C43.7198 9.67484 45.2904 7.66203 45.2904 5.28922C45.2904 2.37281 42.9176 0 40.001 0C37.0845 0 34.7116 2.37281 34.7116 5.28938C34.7116 7.66219 36.2823 9.675 38.4385 10.343V14.7256C30.3227 15.2706 23.2429 19.6542 19.0023 26.0722L15.0984 23.8183C15.5979 21.617 14.6402 19.2505 12.5852 18.0641C10.0596 16.6059 6.81821 17.4742 5.35993 20C3.90164 22.5258 4.77024 25.767 7.29602 27.2253C9.27461 28.3798 11.8576 28.0734 13.5335 26.5231L17.4435 28.7805C15.7649 32.1645 14.8191 35.9736 14.8191 40C14.8191 44.0264 15.7649 47.8355 17.4435 51.2194L13.536 53.4755C11.8795 51.9422 9.35118 51.5881 7.29618 52.7747C4.77024 54.233 3.9018 57.4742 5.35993 60C6.79914 62.4928 10.089 63.3772 12.5852 61.9361C14.6401 60.7497 15.5979 58.3831 15.0984 56.1817L19.0023 53.9278C23.2427 60.3459 30.3227 64.7294 38.4385 65.2744V69.657C36.2823 70.325 34.7116 72.3377 34.7116 74.7106C34.7116 77.6272 37.0845 80 40.001 80C42.9176 80 45.2904 77.6272 45.2904 74.7106C45.2904 72.3378 43.7198 70.3252 41.5635 69.657V65.2937C49.7526 64.842 56.9168 60.4836 61.2198 54.0548L64.9037 56.1817C64.4041 58.3831 65.3618 60.7495 67.4168 61.9361C69.9129 63.3772 73.2029 62.4927 74.6421 60C76.1002 57.4742 75.2318 54.233 72.706 52.7747ZM68.9791 20.7703C70.0124 20.1739 71.339 20.5291 71.9357 21.5625C72.5324 22.5959 72.177 23.9223 71.1435 24.5191C70.1098 25.1156 68.7835 24.7603 68.187 23.7269C67.5904 22.6934 67.9457 21.367 68.9791 20.7703ZM40.001 3.125C41.1945 3.125 42.1654 4.09594 42.1654 5.28938C42.1654 6.48281 41.1945 7.45359 40.001 7.45359C38.8076 7.45359 37.8366 6.48266 37.8366 5.28922C37.8366 4.09578 38.8076 3.125 40.001 3.125ZM8.85852 24.5191C7.82508 23.9223 7.46961 22.5959 8.06633 21.5625C8.66305 20.5289 9.98946 20.1737 11.0229 20.7703C12.0563 21.367 12.4118 22.6934 11.8151 23.7269C11.2185 24.7603 9.89211 25.1156 8.85852 24.5191ZM11.0229 59.2297C9.98961 59.8263 8.66305 59.4711 8.06633 58.4375C7.46961 57.4041 7.82508 56.0777 8.85852 55.4809C9.89211 54.8845 11.2185 55.2397 11.8151 56.2731C12.4118 57.3067 12.0563 58.633 11.0229 59.2297ZM40.001 76.875C38.8076 76.875 37.8366 75.9041 37.8366 74.7106C37.8366 73.5172 38.8076 72.5462 40.001 72.5462C41.1945 72.5462 42.1654 73.5172 42.1654 74.7106C42.1654 75.9041 41.1945 76.875 40.001 76.875ZM40.1529 62.2087C27.907 62.2087 17.9441 52.2459 17.9441 40C17.9441 27.7541 27.907 17.7913 40.1529 17.7913C52.3988 17.7913 62.3616 27.7541 62.3616 40C62.3616 52.2459 52.3988 62.2087 40.1529 62.2087ZM71.9357 58.4375C71.3388 59.4709 70.0124 59.8264 68.9791 59.2297C67.9457 58.633 67.5902 57.3066 68.187 56.2731C68.7837 55.2398 70.1099 54.8842 71.1435 55.4809C72.177 56.0777 72.5324 57.4041 71.9357 58.4375Z" fill="#0FA7F0"/>
<path d="M50.8256 24.5811H29.4805C28.6175 24.5811 27.918 25.2807 27.918 26.1436V33.152C27.918 34.0148 28.6175 34.7145 29.4805 34.7145C30.3434 34.7145 31.043 34.0148 31.043 33.152V27.7061H49.2631V52.2936H31.043V46.8998C31.043 46.037 30.3434 45.3373 29.4805 45.3373C28.6175 45.3373 27.918 46.037 27.918 46.8998V53.8561C27.918 54.7189 28.6175 55.4186 29.4805 55.4186H50.8256C51.6886 55.4186 52.3881 54.7189 52.3881 53.8561V26.1436C52.3881 25.2807 51.6886 24.5811 50.8256 24.5811Z" fill="#0FA7F0"/>
<path d="M36.584 34.415H43.8576C44.7205 34.415 45.4201 33.7154 45.4201 32.8525C45.4201 31.9897 44.7205 31.29 43.8576 31.29H36.584C35.721 31.29 35.0215 31.9897 35.0215 32.8525C35.0215 33.7154 35.721 34.415 36.584 34.415Z" fill="#0FA7F0"/>
<path d="M36.584 41.4785H43.8576C44.7205 41.4785 45.4201 40.7788 45.4201 39.916C45.4201 39.0532 44.7205 38.3535 43.8576 38.3535H36.584C35.721 38.3535 35.0215 39.0532 35.0215 39.916C35.0215 40.7788 35.721 41.4785 36.584 41.4785Z" fill="#0FA7F0"/>
<path d="M36.584 48.5415H43.8576C44.7205 48.5415 45.4201 47.8418 45.4201 46.979C45.4201 46.1162 44.7205 45.4165 43.8576 45.4165H36.584C35.721 45.4165 35.0215 46.1162 35.0215 46.979C35.0215 47.8418 35.721 48.5415 36.584 48.5415Z" fill="#0FA7F0"/>
<path d="M28.18 40.8671C28.9501 42.0111 30.7759 41.6285 31.0179 40.2669C31.2728 38.8332 29.5043 37.8711 28.4306 38.8425C27.8639 39.3552 27.7565 40.2318 28.18 40.8671Z" fill="#0FA7F0"/>
</svg>
