<svg viewBox="0 0 70 70" fill="none" xmlns="http://www.w3.org/2000/svg">
<circle cx="25.5" cy="25.5" r="18" stroke="#0FA7F0" stroke-width="3"/>
<path d="M67.4939 55.8786L53.902 42.2865C53.3749 41.7598 52.4946 41.7598 51.9675 42.2865L51.1999 43.0542L47.1777 39.0321C53.4381 29.0858 51.8859 15.756 43.596 7.46594C38.7816 2.65139 32.3803 0 25.5714 0C18.7624 0 12.3611 2.65139 7.54653 7.46607C0.071975 14.9406 -2.02433 26.613 2.43119 36.2136C3.68955 38.925 5.4334 41.4023 7.54666 43.5154C15.7816 51.7504 28.9972 53.3438 38.9285 47.2107L42.9855 51.2687L42.1775 52.0767C41.6434 52.6109 41.6434 53.477 42.1775 54.0111L55.7694 67.603C58.9651 70.7987 64.2983 70.7987 67.494 67.603C70.6895 64.4076 70.6895 59.0742 67.4939 55.8786ZM9.48096 41.5811C0.709632 32.8098 0.709632 18.1718 9.48096 9.40051C13.7789 5.10262 19.4932 2.73574 25.5714 2.73574C31.6495 2.73574 37.3638 5.10262 41.6617 9.40051C49.324 17.0628 50.4904 29.4943 44.3031 38.4189C42.6418 40.7796 40.6323 42.6613 38.3062 44.3552C29.3894 50.4018 17.0818 49.182 9.48096 41.5811ZM41.2109 45.6247C42.844 44.3509 44.2595 42.8913 45.5731 41.2962L49.2656 44.9887L44.9198 49.3345L41.2109 45.6247ZM65.5594 65.6689C63.418 67.8106 59.8454 67.8106 57.7037 65.6689L45.079 53.0443L52.9348 45.1884L65.5594 57.8131C67.7011 59.9544 67.7011 63.527 65.5594 65.6689Z" fill="#0FA7F0"/>
<path d="M12.1085 24.9526C11.6995 25.4551 11.6995 26.1759 12.1085 26.6786C12.3334 26.9552 17.7097 33.4535 25.6258 33.4535C33.5421 33.4535 38.9183 26.9554 39.1434 26.6786C39.5523 26.1761 39.5523 25.4553 39.1434 24.9526C38.9185 24.676 33.5421 18.1777 25.6258 18.1777C17.7097 18.1777 12.3334 24.6758 12.1085 24.9526ZM25.6258 29.6335C23.5206 29.6335 21.808 27.9209 21.808 25.8155C21.808 23.7103 23.5206 21.9977 25.6258 21.9977C27.7312 21.9977 29.4438 23.7103 29.4438 25.8155C29.4437 27.9209 27.731 29.6335 25.6258 29.6335ZM20.1676 22.1937C19.4764 23.2321 19.0724 24.4773 19.0724 25.8155C19.0724 27.1539 19.4764 28.3991 20.1676 29.4375C17.8111 28.3354 16.0129 26.7757 15.0408 25.8157C16.0136 24.8551 17.8117 23.2955 20.1676 22.1937ZM31.0841 29.4373C31.7753 28.399 32.1793 27.1537 32.1793 25.8155C32.1793 24.4772 31.7753 23.232 31.0839 22.1936C33.4405 23.2957 35.2388 24.8554 36.2109 25.8154C35.2383 26.776 33.44 28.3355 31.0841 29.4373Z" fill="#0FA7F0"/>
</svg>
