<svg viewBox="0 0 86 86" fill="none" xmlns="http://www.w3.org/2000/svg">
<path d="M85.996 69.8855C85.9951 69.8729 85.9953 69.8605 85.9941 69.8479C85.9896 69.798 85.9824 69.7491 85.9721 69.7013C85.9711 69.6965 85.9696 69.6918 85.9684 69.6871C85.9585 69.6431 85.9463 69.6001 85.9318 69.5581C85.9279 69.5469 85.9237 69.536 85.9195 69.5249C85.9054 69.4868 85.8895 69.4496 85.8718 69.4135C85.8688 69.4071 85.8668 69.4006 85.8636 69.3942L79.126 56.1049V12.3826C79.126 11.0378 78.0321 9.94385 76.6873 9.94385H9.31236C7.9676 9.94385 6.87362 11.0378 6.87362 12.3826V56.1045L0.136223 69.394C0.133031 69.4004 0.131016 69.407 0.127992 69.4134C0.110355 69.4495 0.0945664 69.4866 0.0802891 69.5245C0.0760898 69.5356 0.0718906 69.5467 0.0680273 69.558C0.05375 69.6001 0.0413203 69.6433 0.0314102 69.6873C0.0304023 69.6918 0.0288906 69.6964 0.0278828 69.7009C0.0176367 69.749 0.0104141 69.7978 0.00587891 69.8477C0.00470312 69.8602 0.00470312 69.8727 0.00403125 69.8852C0.00235156 69.9114 0 69.9372 0 69.9638V73.1596C0 74.7568 1.29924 76.056 2.89645 76.056H83.1035C84.7008 76.056 86 74.7568 86 73.1596V69.9638C86 69.9372 85.9977 69.9114 85.996 69.8855ZM9.39332 12.4637H76.6067V55.1461H9.39332V12.4637ZM8.90722 57.6655H77.0926L82.689 68.7039H55.0111L53.6218 63.6666C53.339 62.6412 52.3987 61.925 51.3349 61.925H34.6647C33.601 61.925 32.6605 62.6412 32.3778 63.6665L30.9886 68.7039H3.31083L8.90722 57.6655ZM52.3975 68.704H33.6025L34.7771 64.4447H51.2229L52.3975 68.704ZM83.4805 73.1594C83.4805 73.3672 83.3113 73.5363 83.1035 73.5363H2.89645C2.68868 73.5363 2.51953 73.3672 2.51953 73.1594V71.2234H83.4805V73.1594Z" fill="#0FA7F0"/>
<path d="M72.6596 35.9043C71.9638 35.9043 71.3999 36.4682 71.3999 37.1641V49.9389H14.6006V37.1641C14.6006 36.4682 14.0367 35.9043 13.3408 35.9043C12.6449 35.9043 12.0811 36.4682 12.0811 37.1641V50.483C12.0811 51.5723 12.9671 52.4585 14.0565 52.4585H71.9441C73.0334 52.4585 73.9196 51.5724 73.9196 50.483V37.1641C73.9194 36.4685 73.3555 35.9043 72.6596 35.9043Z" fill="#0FA7F0"/>
<path d="M71.943 15.1514H14.0556C12.9663 15.1514 12.0801 16.0374 12.0801 17.1268V47.4458C12.0801 48.1417 12.6439 48.7055 13.3398 48.7055C14.0357 48.7055 14.5996 48.1417 14.5996 47.4458V17.6709H71.3989V40.4458C71.3989 41.1417 71.9628 41.7055 72.6587 41.7055C73.3546 41.7055 73.9185 41.1417 73.9185 40.4458V17.1268C73.9185 16.0372 73.0324 15.1514 71.943 15.1514Z" fill="#0FA7F0"/>
<path fill-rule="evenodd" clip-rule="evenodd" d="M24.8476 21.5552H28.7562C29.8457 21.5552 30.7317 22.441 30.7317 23.5307V31.6537C30.7318 31.6606 30.7319 31.6675 30.7319 31.6744V44.9933C30.7319 46.0828 29.8457 46.9688 28.7564 46.9688H24.8476C23.7581 46.9688 22.8721 46.0826 22.8721 44.9933V36.8496V31.6744V23.5307C22.8721 22.4412 23.7583 21.5552 24.8476 21.5552ZM25.3916 31.6725C25.3916 31.6731 25.3916 31.6738 25.3916 31.6744V44.4493H28.2122V36.8523C28.2122 36.8514 28.2122 36.8505 28.2122 36.8496V24.0747H25.3916V31.6725Z" fill="#0FA7F0"/>
<path fill-rule="evenodd" clip-rule="evenodd" d="M46.6171 25.2148H50.5258C51.6152 25.2148 52.5012 26.1007 52.5012 27.1903V31.6538C52.5014 31.6607 52.5014 31.6676 52.5014 31.6745V44.9934C52.5014 46.0829 51.6152 46.9689 50.5259 46.9689H46.6171C45.5276 46.9689 44.6416 46.0827 44.6416 44.9934V36.8497V31.6745V27.1903C44.6416 26.1009 45.5278 25.2148 46.6171 25.2148ZM47.1611 31.6726C47.1611 31.6732 47.1611 31.6738 47.1611 31.6745V44.4494H49.9817V36.8524C49.9817 36.8515 49.9817 36.8506 49.9817 36.8497V27.7344H47.1611V31.6726Z" fill="#0FA7F0"/>
<path fill-rule="evenodd" clip-rule="evenodd" d="M35.6386 28.8745H39.5472C40.6367 28.8745 41.5227 29.7604 41.5227 30.85V31.6541C41.5228 31.6609 41.5229 31.6677 41.5229 31.6746V44.9935C41.5229 46.083 40.6367 46.969 39.5474 46.969H35.6386C34.5491 46.969 33.6631 46.0828 33.6631 44.9935V36.8498V31.6746V30.85C33.6631 29.7605 34.5493 28.8745 35.6386 28.8745ZM36.1826 31.6738C36.1826 31.6741 36.1826 31.6743 36.1826 31.6746L36.1826 36.8498L36.1826 44.4495H39.0032V36.8509C39.0032 36.8505 39.0032 36.8501 39.0032 36.8498L39.0032 31.6746L39.0032 31.394H36.1826V31.6738Z" fill="#0FA7F0"/>
<path fill-rule="evenodd" clip-rule="evenodd" d="M57.5966 21.5552H61.5053C62.5947 21.5552 63.4807 22.441 63.4807 23.5307V31.6537C63.4809 31.6606 63.4809 31.6675 63.4809 31.6744V44.9933C63.4809 46.0828 62.5947 46.9688 61.5054 46.9688H57.5966C56.5071 46.9688 55.6211 46.0826 55.6211 44.9933V36.8496V31.6744V23.5307C55.6211 22.4412 56.5073 21.5552 57.5966 21.5552ZM58.1406 31.6725C58.1406 31.6731 58.1406 31.6738 58.1406 31.6744V44.4493H60.9612V36.8523C60.9612 36.8514 60.9612 36.8505 60.9612 36.8496V24.0747H58.1406V31.6725Z" fill="#0FA7F0"/>
</svg>
