<svg viewBox="0 0 85 85" fill="none" xmlns="http://www.w3.org/2000/svg">
<path d="M85 60.955V35.4017C85 32.3194 82.4923 29.8119 79.4103 29.8119H44.3987V29.1553C44.3987 28.2932 44.0938 27.5016 43.5869 26.8809C43.9629 26.4207 44.2252 25.8695 44.3375 25.2722C45.762 24.4324 46.6701 22.8941 46.6701 21.2053C46.6701 20.4078 46.4648 19.6284 46.08 18.9339C46.4646 18.2395 46.6701 17.4602 46.6701 16.6625C46.6701 14.9808 45.7692 13.4561 44.3722 12.6157C44.3899 12.451 44.3987 12.2857 44.3987 12.1196C44.3987 9.72752 42.6167 7.74363 40.3104 7.42604C39.4684 6.01109 37.9356 5.11029 36.2535 5.11029C36.0375 5.11029 35.8194 5.12689 35.6009 5.1601C34.6614 4.39941 33.4878 3.97458 32.2786 3.97458C32.1171 3.97458 31.9552 3.98271 31.7912 3.99898C30.7811 3.24677 29.5654 2.83887 28.3038 2.83887C27.0423 2.83887 25.8266 3.24677 24.8163 3.99898C24.6522 3.98271 24.4903 3.97458 24.3289 3.97458C23.1165 3.97458 21.9617 4.38248 21.0239 5.13354C19.5279 5.28278 18.1965 6.14291 17.433 7.42621C15.1267 7.74363 13.3447 9.72752 13.3447 12.1196C13.3447 12.2855 13.3535 12.451 13.3712 12.6157C11.9744 13.4561 11.0732 14.9808 11.0732 16.6625C11.0732 17.4602 11.2786 18.2395 11.6634 18.9339C11.2786 19.6284 11.0732 20.4078 11.0732 21.2053C11.0732 22.8941 11.9812 24.4324 13.4061 25.2722C13.4687 25.6056 13.5794 25.924 13.7292 26.2208C12.8108 26.8744 12.209 27.9447 12.209 29.1552V31.4266C12.209 33.4128 13.8248 35.029 15.8113 35.029H16.4028L16.4996 35.6336C16.7239 37.0358 17.4482 38.3088 18.5393 39.218L19.0234 39.6215V43.3776C19.0234 43.7929 18.7564 44.1543 18.3593 44.2764L8.40504 47.3392C5.9251 48.1024 4.2588 50.3583 4.2588 52.9532V69.4727C4.2588 71.1141 4.82757 72.6245 5.77618 73.8203H2.75055C1.23383 73.8203 0 75.0542 0 76.5709V79.4101C0 80.9268 1.23383 82.1606 2.75055 82.1606H82.2495C83.7662 82.1606 85 80.9268 85 79.4101V76.5709C85 75.0542 83.7662 73.8203 82.2495 73.8203H67.7988L66.8286 66.5447H79.4103C82.4923 66.5447 85 64.0372 85 60.955ZM15.811 32.3672C15.2925 32.3672 14.8705 31.9454 14.8705 31.4268V29.1553C14.8705 28.8117 15.0578 28.5137 15.3337 28.3495L15.9767 32.3672H15.811ZM16.0074 24.652C16.0127 24.6116 16.0177 24.5715 16.0213 24.5306C16.0766 23.9223 15.7106 23.3544 15.1338 23.1534C14.2971 22.8618 13.735 22.0791 13.735 21.2055C13.735 20.5619 14.0298 20.0995 14.277 19.8249C14.7329 19.3186 14.7329 18.5496 14.2768 18.0432C14.0295 17.7687 13.7348 17.3063 13.7348 16.6627C13.7348 15.7353 14.367 14.9165 15.2724 14.6715C15.6393 14.572 15.9465 14.3207 16.1158 13.9803C16.2855 13.6402 16.3014 13.2436 16.1598 12.8908C16.0577 12.6373 16.0061 12.3778 16.0061 12.12C16.0061 10.9914 16.9112 10.0702 18.0338 10.0443C18.0904 10.0519 18.1473 10.0582 18.2053 10.0617C18.8013 10.0959 19.3455 9.7335 19.5414 9.17103C19.8281 8.34793 20.5901 7.79078 21.4464 7.77269C21.4721 7.77451 21.498 7.77567 21.5241 7.77601C21.8838 7.78032 22.2248 7.64519 22.4795 7.39533C22.9786 6.90592 23.6353 6.63631 24.3286 6.63631C24.5081 6.63631 24.6983 6.65955 24.9101 6.7072C25.3403 6.80398 25.7914 6.6813 26.1133 6.37915C26.7167 5.81287 27.4945 5.50093 28.3037 5.50093C29.1128 5.50093 29.8906 5.81287 30.4939 6.37932C30.8157 6.68146 31.2666 6.80432 31.697 6.70736C31.9089 6.65955 32.0991 6.63647 32.2786 6.63647C33.0218 6.63647 33.714 6.94825 34.2274 7.5142C34.583 7.90616 35.137 8.0501 35.6384 7.88109C35.8559 7.80788 36.0573 7.77219 36.2537 7.77219C37.1272 7.77219 37.9102 8.33432 38.2017 9.17087C38.3976 9.73316 38.9423 10.0971 39.5378 10.0615C39.5921 10.0584 39.6455 10.0524 39.7089 10.0441C40.8315 10.0698 41.7368 10.9912 41.7368 12.1198C41.7368 12.3776 41.6852 12.6371 41.5833 12.8904C41.4415 13.2432 41.4574 13.6398 41.6271 13.9802C41.7968 14.3205 42.1037 14.572 42.4708 14.6713C43.3759 14.9163 44.0083 15.7351 44.0083 16.6625C44.0083 17.3061 43.7134 17.7685 43.4662 18.0431C43.0102 18.5493 43.0102 19.3184 43.4662 19.8248C43.7136 20.0993 44.0083 20.5617 44.0083 21.2053C44.0083 22.0789 43.4461 22.8618 42.6094 23.1532C42.0327 23.3542 41.6666 23.9222 41.7219 24.5305C41.7255 24.5713 41.7305 24.6118 41.7362 24.6522C41.7186 25.0562 41.4357 25.4067 41.0361 25.5129C40.9934 25.5242 39.7206 25.553 39.7206 25.553L38.9552 20.961C38.842 20.2818 38.2281 19.8012 37.5431 19.8526C37.4813 19.8573 37.4209 19.8648 37.3602 19.8731L37.3524 19.8741C36.6704 19.8619 36.0395 19.5155 35.6592 18.9417C35.4125 18.57 34.9963 18.3464 34.55 18.3464C34.1039 18.3464 33.6874 18.57 33.4409 18.9416C33.0535 19.5256 32.4069 19.8742 31.7106 19.8742C31.0145 19.8742 30.3679 19.5256 29.9804 18.9416C29.7337 18.5698 29.3175 18.3462 28.8713 18.3462C28.4252 18.3462 28.0087 18.5698 27.7621 18.9414C27.3748 19.5254 26.7282 19.8741 26.0319 19.8741C25.3358 19.8741 24.6892 19.5254 24.3017 18.9414C24.055 18.5697 23.6388 18.3461 23.1925 18.3461C22.7465 18.3461 22.3299 18.5697 22.0834 18.9412C21.7029 19.515 21.072 19.8614 20.3902 19.8736L20.3824 19.8726C20.322 19.8643 20.261 19.8568 20.1993 19.8521C19.5145 19.7999 18.9005 20.2815 18.7873 20.9605L18.0222 25.553C18.0222 25.553 16.7495 25.5244 16.7068 25.5131C16.3075 25.4069 16.0245 25.0561 16.0074 24.652ZM41.737 29.1553V29.8119H41.0397L41.2738 28.3495C41.5497 28.5137 41.737 28.8117 41.737 29.1553ZM18.0077 28.2149H18.1878C19.3984 28.2149 20.4216 27.3479 20.621 26.1538L21.2375 22.4534C21.9501 22.3186 22.6178 22.022 23.193 21.5902C24.001 22.197 24.992 22.5363 26.0322 22.5363C27.0723 22.5363 28.0634 22.1968 28.8714 21.5902C29.6794 22.197 30.6704 22.5363 31.7106 22.5363C32.7507 22.5363 33.7418 22.1968 34.5498 21.5902C35.1249 22.0221 35.7928 22.3185 36.5053 22.4534L37.1219 26.1539C37.2672 27.0255 37.8526 27.7208 38.6283 28.0339L38.344 29.8119H36.8213C33.739 29.8119 31.2315 32.3196 31.2315 35.4017V41.3085C30.992 41.402 30.736 41.4528 30.4771 41.4528H26.13C25.6453 41.4528 25.1733 41.2819 24.8009 40.9715L20.2426 37.1729C19.646 36.6757 19.25 35.9797 19.1273 35.2129L18.0077 28.2149ZM19.1419 46.8205C20.6631 46.3526 21.685 44.9688 21.685 43.3776V41.8396L23.0971 43.0165C23.9469 43.7247 25.024 44.1147 26.1304 44.1147H30.4775C30.7307 44.1147 30.983 44.0931 31.2319 44.0526V52.6163C30.4509 52.7438 29.657 52.8099 28.8602 52.8099C24.4204 52.8099 20.2335 50.7785 17.4768 47.333L19.1419 46.8205ZM6.92069 52.953C6.92069 51.5341 7.83195 50.3004 9.18797 49.883L14.7739 48.1644C18.0037 52.7413 23.2618 55.4715 28.8602 55.4715C29.6552 55.4715 30.4479 55.4155 31.2319 55.3074V60.955C31.2319 64.0372 33.7394 66.5447 36.8216 66.5447H42.5888V73.7315C42.5888 73.7616 42.5913 73.7908 42.5933 73.8202H35.3132V72.3118C35.3132 69.2295 32.8055 66.722 29.7234 66.722H15.5271C15.4781 66.722 15.4385 66.6823 15.4385 66.6334V58.1156C15.4385 57.3806 14.8426 56.7846 14.1075 56.7846C13.3724 56.7846 12.7766 57.3805 12.7766 58.1156V66.6334C12.7766 68.1501 14.0104 69.3839 15.5271 69.3839H24.1335V73.8202H11.2683C8.87105 73.8202 6.92069 71.8698 6.92069 69.4725V52.953ZM32.6513 72.3119V73.8203H26.7954V69.3841H29.7234C31.3378 69.3839 32.6513 70.6974 32.6513 72.3119ZM82.2495 76.4821C82.2984 76.4821 82.3381 76.5217 82.3381 76.5707V79.4099C82.3381 79.4589 82.2984 79.4986 82.2495 79.4986H2.75055C2.70157 79.4986 2.66189 79.4589 2.66189 79.4099V76.5707C2.66189 76.5217 2.70157 76.4821 2.75055 76.4821H82.2495ZM45.2461 73.8203C45.2481 73.7909 45.2505 73.7616 45.2505 73.7317V66.5449H49.4029L48.4327 73.8205H45.2461V73.8203ZM51.1182 73.8203L53.428 56.4968C53.5276 55.7504 54.1702 55.1877 54.9233 55.1877H61.3086C62.0615 55.1877 62.7043 55.7504 62.8037 56.4968L65.1136 73.8203H51.1182ZM66.6337 63.883C66.5799 63.883 66.5274 63.8871 66.4752 63.8933L65.442 56.145C65.1669 54.0819 63.3899 52.526 61.3086 52.526H54.9233C52.8419 52.526 51.0647 54.0819 50.7897 56.145L49.7565 63.8933C49.7046 63.8871 49.6518 63.883 49.598 63.883H36.8214C35.2069 63.883 33.8934 62.5695 33.8934 60.955V35.4017C33.8934 33.7872 35.2069 32.4736 36.8214 32.4736H79.4103C81.0248 32.4736 82.3383 33.7872 82.3383 35.4017V60.955C82.3383 62.5695 81.0248 63.883 79.4103 63.883H66.6337Z" fill="#0FA7F0"/>
<path d="M58.1155 41.1689C55.816 41.1689 53.9453 43.0396 53.9453 45.3391C53.9453 47.6386 55.816 49.5092 58.1155 49.5092C60.4149 49.5092 62.2856 47.6386 62.2856 45.3391C62.2856 43.0398 60.4148 41.1689 58.1155 41.1689ZM58.1155 46.8475C57.2837 46.8475 56.607 46.1708 56.607 45.3391C56.607 44.5073 57.2837 43.8307 58.1155 43.8307C58.9472 43.8307 59.6239 44.5073 59.6239 45.3391C59.6237 46.1708 58.9472 46.8475 58.1155 46.8475Z" fill="#0FA7F0"/>
</svg>
