<svg width="566" height="288" viewBox="0 0 566 288" fill="none" xmlns="http://www.w3.org/2000/svg">
<path fill-rule="evenodd" clip-rule="evenodd" d="M565 288H0V287H565V288Z" fill="#37376D"/>
<path fill-rule="evenodd" clip-rule="evenodd" d="M3.53125 229H0V228H3.53125V229ZM17.6562 229H10.5938V228H17.6562V229ZM31.7812 229H24.7188V228H31.7812V229ZM45.9062 229H38.8438V228H45.9062V229ZM60.0312 229H52.9688V228H60.0312V229ZM74.1562 229H67.0938V228H74.1562V229ZM88.2812 229H81.2188V228H88.2812V229ZM102.406 229H95.3438V228H102.406V229ZM116.531 229H109.469V228H116.531V229ZM130.656 229H123.594V228H130.656V229ZM144.781 229H137.719V228H144.781V229ZM158.906 229H151.844V228H158.906V229ZM173.031 229H165.969V228H173.031V229ZM187.156 229H180.094V228H187.156V229ZM201.281 229H194.219V228H201.281V229ZM215.406 229H208.344V228H215.406V229ZM229.531 229H222.469V228H229.531V229ZM243.656 229H236.594V228H243.656V229ZM257.781 229H250.719V228H257.781V229ZM271.906 229H264.844V228H271.906V229ZM286.031 229H278.969V228H286.031V229ZM300.156 229H293.094V228H300.156V229ZM314.281 229H307.219V228H314.281V229ZM328.406 229H321.344V228H328.406V229ZM342.531 229H335.469V228H342.531V229ZM356.656 229H349.594V228H356.656V229ZM370.781 229H363.719V228H370.781V229ZM384.906 229H377.844V228H384.906V229ZM399.031 229H391.969V228H399.031V229ZM413.156 229H406.094V228H413.156V229ZM427.281 229H420.219V228H427.281V229ZM441.406 229H434.344V228H441.406V229ZM455.531 229H448.469V228H455.531V229ZM469.656 229H462.594V228H469.656V229ZM483.781 229H476.719V228H483.781V229ZM497.906 229H490.844V228H497.906V229ZM512.031 229H504.969V228H512.031V229ZM526.156 229H519.094V228H526.156V229ZM540.281 229H533.219V228H540.281V229ZM554.406 229H547.344V228H554.406V229ZM565 229H561.469V228H565V229Z" fill="#DDDDE6"/>
<path fill-rule="evenodd" clip-rule="evenodd" d="M3.53125 170H0V169H3.53125V170ZM17.6562 170H10.5938V169H17.6562V170ZM31.7812 170H24.7188V169H31.7812V170ZM45.9062 170H38.8438V169H45.9062V170ZM60.0312 170H52.9688V169H60.0312V170ZM74.1562 170H67.0938V169H74.1562V170ZM88.2812 170H81.2188V169H88.2812V170ZM102.406 170H95.3438V169H102.406V170ZM116.531 170H109.469V169H116.531V170ZM130.656 170H123.594V169H130.656V170ZM144.781 170H137.719V169H144.781V170ZM158.906 170H151.844V169H158.906V170ZM173.031 170H165.969V169H173.031V170ZM187.156 170H180.094V169H187.156V170ZM201.281 170H194.219V169H201.281V170ZM215.406 170H208.344V169H215.406V170ZM229.531 170H222.469V169H229.531V170ZM243.656 170H236.594V169H243.656V170ZM257.781 170H250.719V169H257.781V170ZM271.906 170H264.844V169H271.906V170ZM286.031 170H278.969V169H286.031V170ZM300.156 170H293.094V169H300.156V170ZM314.281 170H307.219V169H314.281V170ZM328.406 170H321.344V169H328.406V170ZM342.531 170H335.469V169H342.531V170ZM356.656 170H349.594V169H356.656V170ZM370.781 170H363.719V169H370.781V170ZM384.906 170H377.844V169H384.906V170ZM399.031 170H391.969V169H399.031V170ZM413.156 170H406.094V169H413.156V170ZM427.281 170H420.219V169H427.281V170ZM441.406 170H434.344V169H441.406V170ZM455.531 170H448.469V169H455.531V170ZM469.656 170H462.594V169H469.656V170ZM483.781 170H476.719V169H483.781V170ZM497.906 170H490.844V169H497.906V170ZM512.031 170H504.969V169H512.031V170ZM526.156 170H519.094V169H526.156V170ZM540.281 170H533.219V169H540.281V170ZM554.406 170H547.344V169H554.406V170ZM565 170H561.469V169H565V170Z" fill="#DDDDE6"/>
<path fill-rule="evenodd" clip-rule="evenodd" d="M3.53125 111H0V110H3.53125V111ZM17.6562 111H10.5938V110H17.6562V111ZM31.7812 111H24.7188V110H31.7812V111ZM45.9062 111H38.8438V110H45.9062V111ZM60.0312 111H52.9688V110H60.0312V111ZM74.1562 111H67.0938V110H74.1562V111ZM88.2812 111H81.2188V110H88.2812V111ZM102.406 111H95.3438V110H102.406V111ZM116.531 111H109.469V110H116.531V111ZM130.656 111H123.594V110H130.656V111ZM144.781 111H137.719V110H144.781V111ZM158.906 111H151.844V110H158.906V111ZM173.031 111H165.969V110H173.031V111ZM187.156 111H180.094V110H187.156V111ZM201.281 111H194.219V110H201.281V111ZM215.406 111H208.344V110H215.406V111ZM229.531 111H222.469V110H229.531V111ZM243.656 111H236.594V110H243.656V111ZM257.781 111H250.719V110H257.781V111ZM271.906 111H264.844V110H271.906V111ZM286.031 111H278.969V110H286.031V111ZM300.156 111H293.094V110H300.156V111ZM314.281 111H307.219V110H314.281V111ZM328.406 111H321.344V110H328.406V111ZM342.531 111H335.469V110H342.531V111ZM356.656 111H349.594V110H356.656V111ZM370.781 111H363.719V110H370.781V111ZM384.906 111H377.844V110H384.906V111ZM399.031 111H391.969V110H399.031V111ZM413.156 111H406.094V110H413.156V111ZM427.281 111H420.219V110H427.281V111ZM441.406 111H434.344V110H441.406V111ZM455.531 111H448.469V110H455.531V111ZM469.656 111H462.594V110H469.656V111ZM483.781 111H476.719V110H483.781V111ZM497.906 111H490.844V110H497.906V111ZM512.031 111H504.969V110H512.031V111ZM526.156 111H519.094V110H526.156V111ZM540.281 111H533.219V110H540.281V111ZM554.406 111H547.344V110H554.406V111ZM565 111H561.469V110H565V111Z" fill="#DDDDE6"/>
<path fill-rule="evenodd" clip-rule="evenodd" d="M3.53125 52H0V51H3.53125V52ZM17.6562 52H10.5938V51H17.6562V52ZM31.7812 52H24.7188V51H31.7812V52ZM45.9062 52H38.8438V51H45.9062V52ZM60.0312 52H52.9688V51H60.0312V52ZM74.1562 52H67.0938V51H74.1562V52ZM88.2812 52H81.2188V51H88.2812V52ZM102.406 52H95.3438V51H102.406V52ZM116.531 52H109.469V51H116.531V52ZM130.656 52H123.594V51H130.656V52ZM144.781 52H137.719V51H144.781V52ZM158.906 52H151.844V51H158.906V52ZM173.031 52H165.969V51H173.031V52ZM187.156 52H180.094V51H187.156V52ZM201.281 52H194.219V51H201.281V52ZM215.406 52H208.344V51H215.406V52ZM229.531 52H222.469V51H229.531V52ZM243.656 52H236.594V51H243.656V52ZM257.781 52H250.719V51H257.781V52ZM271.906 52H264.844V51H271.906V52ZM286.031 52H278.969V51H286.031V52ZM300.156 52H293.094V51H300.156V52ZM314.281 52H307.219V51H314.281V52ZM328.406 52H321.344V51H328.406V52ZM342.531 52H335.469V51H342.531V52ZM356.656 52H349.594V51H356.656V52ZM370.781 52H363.719V51H370.781V52ZM384.906 52H377.844V51H384.906V52ZM399.031 52H391.969V51H399.031V52ZM413.156 52H406.094V51H413.156V52ZM427.281 52H420.219V51H427.281V52ZM441.406 52H434.344V51H441.406V52ZM455.531 52H448.469V51H455.531V52ZM469.656 52H462.594V51H469.656V52ZM483.781 52H476.719V51H483.781V52ZM497.906 52H490.844V51H497.906V52ZM512.031 52H504.969V51H512.031V52ZM526.156 52H519.094V51H526.156V52ZM540.281 52H533.219V51H540.281V52ZM554.406 52H547.344V51H554.406V52ZM565 52H561.469V51H565V52Z" fill="#DDDDE6"/>
<path fill-rule="evenodd" clip-rule="evenodd" d="M113 -4.37114e-08L113 287L112 287L112 0L113 -4.37114e-08Z" fill="#DDDDE6"/>
<path fill-rule="evenodd" clip-rule="evenodd" d="M226 -4.37114e-08L226 287L225 287L225 0L226 -4.37114e-08Z" fill="#DDDDE6"/>
<path fill-rule="evenodd" clip-rule="evenodd" d="M339 -4.37114e-08L339 287L338 287L338 0L339 -4.37114e-08Z" fill="#DDDDE6"/>
<path fill-rule="evenodd" clip-rule="evenodd" d="M452 -4.37114e-08L452 287L451 287L451 0L452 -4.37114e-08Z" fill="#DDDDE6"/>
<path d="M34.1898 215.298L1.5963 247.412C1.2148 247.788 1 248.302 1 248.837V285.5C1 286.605 1.89544 287.5 3.00001 287.5H563C564.105 287.5 565 286.605 565 285.5V195.418C565 194.569 564.463 193.812 563.662 193.531L527.053 180.694C526.692 180.567 526.375 180.34 526.139 180.038L514.781 165.499C514.304 164.889 513.518 164.609 512.763 164.78L489.266 170.1C488.264 170.327 487.252 169.757 486.927 168.782L482.182 154.546C481.814 153.442 480.584 152.884 479.511 153.334L467.726 158.276C466.755 158.684 465.634 158.268 465.163 157.326L459.261 145.522C459.091 145.181 458.826 144.896 458.499 144.7L400.974 110.284C400.664 110.098 400.309 110 399.947 110H331.488C330.865 110 330.278 110.29 329.9 110.785L299.059 151.115C298.452 151.909 297.352 152.132 296.483 151.639L280.605 142.627C279.931 142.244 279.096 142.286 278.463 142.734L259.519 156.133C259.181 156.372 258.778 156.5 258.364 156.5H227.082C226.702 156.5 226.33 156.608 226.009 156.813L194.533 176.843C193.899 177.246 193.092 177.26 192.445 176.879L186.601 173.442C185.698 172.911 184.539 173.166 183.943 174.027L176.596 184.638C176.223 185.178 175.608 185.5 174.952 185.5H152.566C152.196 185.5 151.833 185.397 151.518 185.203L140.295 178.297C139.53 177.826 138.544 177.923 137.886 178.535L104.576 209.466C104.206 209.809 103.719 210 103.215 210H75.9829C75.6655 210 75.3527 210.076 75.0703 210.22L56.68 219.651C56.2421 219.876 55.7368 219.931 55.2607 219.806L36.1003 214.788C35.418 214.609 34.6922 214.803 34.1898 215.298Z" fill="url(#paint0_linear)"/>
<path fill-rule="evenodd" clip-rule="evenodd" d="M331.474 112C331.166 112 330.876 112.141 330.686 112.383L299.85 151.76C298.934 152.929 297.299 153.252 296.007 152.519L280.111 143.497C279.774 143.305 279.356 143.326 279.04 143.55L260.096 156.949C259.59 157.308 258.984 157.5 258.364 157.5H227.082C226.892 157.5 226.706 157.554 226.545 157.656L195.069 177.686C194.119 178.291 192.909 178.313 191.938 177.741L186.094 174.304C185.642 174.038 185.063 174.166 184.765 174.596L177.418 185.208C176.858 186.017 175.936 186.5 174.952 186.5H152.566C152.011 186.5 151.466 186.346 150.993 186.055L139.771 179.149C139.388 178.913 138.895 178.962 138.566 179.267L105.256 210.198C104.701 210.714 103.972 211 103.214 211H75.9826C75.8239 211 75.6675 211.038 75.5263 211.11L57.1361 220.541C56.4792 220.878 55.7212 220.961 55.007 220.774L35.8466 215.756C35.5055 215.666 35.1426 215.763 34.8914 216.011L1.70155 248.712L0.297852 247.288L33.4877 214.586C34.2412 213.844 35.33 213.553 36.3533 213.821L55.5138 218.839C55.7518 218.901 56.0045 218.874 56.2234 218.761L74.6137 209.331C75.0373 209.113 75.5065 209 75.9826 209H103.214C103.467 209 103.71 208.905 103.895 208.733L137.205 177.802C138.193 176.885 139.671 176.739 140.819 177.445L152.042 184.352C152.199 184.449 152.381 184.5 152.566 184.5H174.952C175.28 184.5 175.587 184.339 175.774 184.069L183.12 173.458C184.014 172.166 185.754 171.783 187.108 172.58L192.952 176.017C193.275 176.208 193.679 176.201 193.996 175.999L225.471 155.969C225.953 155.663 226.512 155.5 227.082 155.5H258.364C258.571 155.5 258.772 155.436 258.941 155.316L277.885 141.917C278.835 141.246 280.087 141.183 281.098 141.757L296.994 150.779C297.425 151.024 297.97 150.916 298.275 150.526L329.112 111.15C329.68 110.424 330.551 110 331.474 110H399.961C400.49 110 401.01 110.14 401.468 110.406L458.986 143.835C459.491 144.129 459.9 144.564 460.161 145.087L466.057 156.879C466.293 157.35 466.853 157.558 467.339 157.354L479.124 152.412C480.734 151.737 482.578 152.574 483.13 154.23L487.876 168.466C488.038 168.953 488.544 169.238 489.045 169.125L512.542 163.805C513.675 163.548 514.854 163.969 515.568 164.884L526.927 179.422C527.045 179.573 527.203 179.687 527.384 179.75L565.331 193.056L564.669 194.944L526.722 181.638C526.18 181.448 525.704 181.106 525.351 180.654L513.992 166.115C513.754 165.81 513.361 165.67 512.984 165.755L489.487 171.075C487.983 171.416 486.466 170.561 485.978 169.098L481.233 154.862C481.049 154.31 480.434 154.031 479.898 154.256L468.112 159.199C466.655 159.809 464.975 159.186 464.268 157.774L458.372 145.982C458.285 145.807 458.149 145.662 457.981 145.564L400.463 112.135C400.311 112.047 400.137 112 399.961 112H331.474Z" fill="#0FA7F0"/>
<path d="M126.693 50.9999H125.181V38.3999H135.459V50.9999H133.947V39.8399H126.693V50.9999Z" fill="black"/>
<path d="M139.026 50.0099C138.114 49.1939 137.658 48.0839 137.658 46.6799C137.658 45.2759 138.114 44.1719 139.026 43.3679C139.938 42.5519 141.018 42.1439 142.266 42.1439C143.526 42.1439 144.606 42.5519 145.506 43.3679C146.418 44.1719 146.874 45.2759 146.874 46.6799C146.874 48.0839 146.418 49.1939 145.506 50.0099C144.606 50.8139 143.526 51.2159 142.266 51.2159C141.018 51.2159 139.938 50.8139 139.026 50.0099ZM144.534 49.0019C145.134 48.4259 145.434 47.6519 145.434 46.6799C145.434 45.7079 145.134 44.9399 144.534 44.3759C143.934 43.7999 143.178 43.5119 142.266 43.5119C141.354 43.5119 140.598 43.7999 139.998 44.3759C139.398 44.9399 139.098 45.7079 139.098 46.6799C139.098 47.6519 139.398 48.4259 139.998 49.0019C140.598 49.5659 141.354 49.8479 142.266 49.8479C143.178 49.8479 143.934 49.5659 144.534 49.0019Z" fill="black"/>
<path d="M153.817 50.9999H148.939V42.3599H153.673C154.453 42.3599 155.089 42.5639 155.581 42.9719C156.085 43.3799 156.337 43.9559 156.337 44.6999C156.337 45.1319 156.229 45.5219 156.013 45.8699C155.797 46.2179 155.521 46.4639 155.185 46.6079C155.581 46.7399 155.917 46.9799 156.193 47.3279C156.469 47.6759 156.607 48.1019 156.607 48.6059C156.607 49.3379 156.367 49.9199 155.887 50.3519C155.419 50.7839 154.729 50.9999 153.817 50.9999ZM150.379 47.2559V49.7399H153.619C154.651 49.7399 155.167 49.3319 155.167 48.5159C155.167 47.6759 154.669 47.2559 153.673 47.2559H150.379ZM150.379 43.6199V46.0139H153.529C154.429 46.0139 154.879 45.6239 154.879 44.8439C154.879 44.3999 154.747 44.0879 154.483 43.9079C154.219 43.7159 153.901 43.6199 153.529 43.6199H150.379Z" fill="black"/>
<path d="M162.905 50.9999H158.801V42.3599H160.241V45.3839H162.905C163.937 45.3839 164.753 45.6479 165.353 46.1759C165.953 46.7039 166.253 47.3759 166.253 48.1919C166.253 49.0079 165.953 49.6799 165.353 50.2079C164.753 50.7359 163.937 50.9999 162.905 50.9999ZM160.241 46.6799V49.7039H162.725C163.373 49.7039 163.877 49.5779 164.237 49.3259C164.609 49.0739 164.795 48.6959 164.795 48.1919C164.795 47.6879 164.609 47.3099 164.237 47.0579C163.877 46.8059 163.373 46.6799 162.725 46.6799H160.241ZM169.367 50.9999H167.927V42.3599H169.367V50.9999Z" fill="black"/>
<path d="M184.097 50.9999H172.037V42.3599H173.477V49.6679H177.347V42.3599H178.787V49.6679H182.657V42.3599H184.097V50.9999Z" fill="black"/>
<path d="M186.174 46.6799C186.174 45.2639 186.606 44.1539 187.47 43.3499C188.346 42.5459 189.348 42.1439 190.476 42.1439C191.532 42.1439 192.402 42.4079 193.086 42.9359C193.782 43.4639 194.238 44.1179 194.454 44.8979C194.67 45.6659 194.682 46.4699 194.49 47.3099H187.614C187.698 48.1619 188.076 48.8039 188.748 49.2359C189.42 49.6679 190.23 49.8839 191.178 49.8839C192.234 49.8839 193.182 49.6499 194.022 49.1819V50.5859C193.218 51.0059 192.198 51.2159 190.962 51.2159C189.594 51.2159 188.454 50.8259 187.542 50.0459C186.63 49.2659 186.174 48.1439 186.174 46.6799ZM193.212 46.0499C193.248 45.7979 193.23 45.5339 193.158 45.2579C193.086 44.9819 192.954 44.7059 192.762 44.4299C192.582 44.1539 192.3 43.9259 191.916 43.7459C191.532 43.5659 191.082 43.4759 190.566 43.4759C189.786 43.4759 189.108 43.7039 188.532 44.1599C187.968 44.6159 187.662 45.2459 187.614 46.0499H193.212Z" fill="black"/>
<path d="M198.034 50.9999H196.594V42.3599H198.034V46.0139H203.038V42.3599H204.478V50.9999H203.038V47.3459H198.034V50.9999Z" fill="black"/>
<path d="M208.581 50.9999H207.141V42.3599H208.581V46.0139H213.585V42.3599H215.025V50.9999H213.585V47.3459H208.581V50.9999Z" fill="black"/>
<path d="M221.791 50.9999H217.687V42.3599H219.127V45.3839H221.791C222.823 45.3839 223.639 45.6479 224.239 46.1759C224.839 46.7039 225.139 47.3759 225.139 48.1919C225.139 49.0079 224.839 49.6799 224.239 50.2079C223.639 50.7359 222.823 50.9999 221.791 50.9999ZM219.127 46.6799V49.7039H221.611C222.259 49.7039 222.763 49.5779 223.123 49.3259C223.495 49.0739 223.681 48.6959 223.681 48.1919C223.681 47.6879 223.495 47.3099 223.123 47.0579C222.763 46.8059 222.259 46.6799 221.611 46.6799H219.127ZM228.253 50.9999H226.813V42.3599H228.253V50.9999Z" fill="black"/>
<path d="M237.422 40.2719C236.714 40.7759 235.874 41.0279 234.902 41.0279C233.93 41.0279 233.09 40.7759 232.382 40.2719V38.9759C233.186 39.5039 234.026 39.7679 234.902 39.7679C235.778 39.7679 236.618 39.5039 237.422 38.9759V40.2719ZM232.148 50.9999H230.924V42.3599H232.364V48.6779L237.656 42.3599H238.88V50.9999H237.44V44.6819L232.148 50.9999Z" fill="black"/>
<path d="M245.429 46.7159C245.429 45.9599 245.567 45.2819 245.843 44.6819C246.119 44.0819 246.479 43.6019 246.923 43.2419C247.379 42.8819 247.877 42.6119 248.417 42.4319C248.969 42.2399 249.533 42.1439 250.109 42.1439C251.177 42.1439 252.065 42.3779 252.773 42.8459V44.2499C252.113 43.7339 251.285 43.4759 250.289 43.4759C249.353 43.4759 248.549 43.7459 247.877 44.2859C247.205 44.8259 246.869 45.6239 246.869 46.6799C246.869 47.7239 247.199 48.5219 247.859 49.0739C248.531 49.6139 249.329 49.8839 250.253 49.8839C251.213 49.8839 252.083 49.6499 252.863 49.1819V50.6219C252.047 51.0179 251.111 51.2159 250.055 51.2159C248.807 51.2159 247.721 50.8259 246.797 50.0459C245.885 49.2659 245.429 48.1559 245.429 46.7159Z" fill="black"/>
<path d="M256.411 50.9999H254.971V42.3599H262.855V50.9999H261.415V43.6919H256.411V50.9999Z" fill="black"/>
<path d="M266.814 43.7999C267.786 42.6959 268.95 42.1439 270.306 42.1439C271.542 42.1439 272.568 42.5759 273.384 43.4399C274.212 44.3039 274.626 45.3839 274.626 46.6799C274.626 47.9759 274.212 49.0559 273.384 49.9199C272.568 50.7839 271.542 51.2159 270.306 51.2159C268.938 51.2159 267.822 50.7119 266.958 49.7039V54.9599H265.518V42.3599H266.814V43.7999ZM272.304 49.0019C272.892 48.4139 273.186 47.6399 273.186 46.6799C273.186 45.7199 272.892 44.9459 272.304 44.3579C271.728 43.7699 271.008 43.4759 270.144 43.4759C269.412 43.4759 268.764 43.6799 268.2 44.0879C267.636 44.4959 267.222 44.9999 266.958 45.5999V47.7599C267.222 48.3599 267.636 48.8639 268.2 49.2719C268.764 49.6799 269.412 49.8839 270.144 49.8839C271.008 49.8839 271.728 49.5899 272.304 49.0019Z" fill="black"/>
<path d="M277.471 50.0099C276.559 49.1939 276.103 48.0839 276.103 46.6799C276.103 45.2759 276.559 44.1719 277.471 43.3679C278.383 42.5519 279.463 42.1439 280.711 42.1439C281.971 42.1439 283.051 42.5519 283.951 43.3679C284.863 44.1719 285.319 45.2759 285.319 46.6799C285.319 48.0839 284.863 49.1939 283.951 50.0099C283.051 50.8139 281.971 51.2159 280.711 51.2159C279.463 51.2159 278.383 50.8139 277.471 50.0099ZM282.979 49.0019C283.579 48.4259 283.879 47.6519 283.879 46.6799C283.879 45.7079 283.579 44.9399 282.979 44.3759C282.379 43.7999 281.623 43.5119 280.711 43.5119C279.799 43.5119 279.043 43.7999 278.443 44.3759C277.843 44.9399 277.543 45.7079 277.543 46.6799C277.543 47.6519 277.843 48.4259 278.443 49.0019C279.043 49.5659 279.799 49.8479 280.711 49.8479C281.623 49.8479 282.379 49.5659 282.979 49.0019Z" fill="black"/>
<path d="M286.791 46.7159C286.791 45.9599 286.929 45.2819 287.205 44.6819C287.481 44.0819 287.841 43.6019 288.285 43.2419C288.741 42.8819 289.239 42.6119 289.779 42.4319C290.331 42.2399 290.895 42.1439 291.471 42.1439C292.539 42.1439 293.427 42.3779 294.135 42.8459V44.2499C293.475 43.7339 292.647 43.4759 291.651 43.4759C290.715 43.4759 289.911 43.7459 289.239 44.2859C288.567 44.8259 288.231 45.6239 288.231 46.6799C288.231 47.7239 288.561 48.5219 289.221 49.0739C289.893 49.6139 290.691 49.8839 291.615 49.8839C292.575 49.8839 293.445 49.6499 294.225 49.1819V50.6219C293.409 51.0179 292.473 51.2159 291.417 51.2159C290.169 51.2159 289.083 50.8259 288.159 50.0459C287.247 49.2659 286.791 48.1559 286.791 46.7159Z" fill="black"/>
<path d="M168.836 70.9999H167.396V62.3599H168.836V66.0139H173.84V62.3599H175.28V70.9999H173.84V67.3459H168.836V70.9999Z" fill="black"/>
<path d="M184.963 69.1999C184.963 69.6439 185.185 69.8659 185.629 69.8659C185.821 69.8659 186.043 69.8239 186.295 69.7399V70.9099C185.935 71.0419 185.575 71.1079 185.215 71.1079C184.387 71.1079 183.859 70.7599 183.631 70.0639C182.707 70.8319 181.585 71.2159 180.265 71.2159C179.425 71.2159 178.705 70.9939 178.105 70.5499C177.517 70.0939 177.223 69.4399 177.223 68.5879C177.223 67.5679 177.601 66.8299 178.357 66.3739C179.125 65.9059 180.049 65.6719 181.129 65.6719C181.921 65.6719 182.719 65.7619 183.523 65.9419V65.6359C183.523 64.9759 183.307 64.4539 182.875 64.0699C182.443 63.6739 181.837 63.4759 181.057 63.4759C179.965 63.4759 178.915 63.6919 177.907 64.1239V62.7199C179.035 62.3359 180.133 62.1439 181.201 62.1439C182.377 62.1439 183.295 62.4619 183.955 63.0979C184.627 63.7219 184.963 64.6279 184.963 65.8159V69.1999ZM178.699 68.5159C178.699 68.9959 178.879 69.3619 179.239 69.6139C179.611 69.8539 180.055 69.9739 180.571 69.9739C181.759 69.9739 182.743 69.5539 183.523 68.7139V67.1299C182.707 66.9619 181.975 66.8779 181.327 66.8779C180.595 66.8779 179.971 67.0099 179.455 67.2739C178.951 67.5259 178.699 67.9399 178.699 68.5159Z" fill="black"/>
<path d="M197.2 70.9999H192.322V62.3599H197.056C197.836 62.3599 198.472 62.5639 198.964 62.9719C199.468 63.3799 199.72 63.9559 199.72 64.6999C199.72 65.1319 199.612 65.5219 199.396 65.8699C199.18 66.2179 198.904 66.4639 198.568 66.6079C198.964 66.7399 199.3 66.9799 199.576 67.3279C199.852 67.6759 199.99 68.1019 199.99 68.6059C199.99 69.3379 199.75 69.9199 199.27 70.3519C198.802 70.7839 198.112 70.9999 197.2 70.9999ZM193.762 67.2559V69.7399H197.002C198.034 69.7399 198.55 69.3319 198.55 68.5159C198.55 67.6759 198.052 67.2559 197.056 67.2559H193.762ZM193.762 63.6199V66.0139H196.912C197.812 66.0139 198.262 65.6239 198.262 64.8439C198.262 64.3999 198.13 64.0879 197.866 63.9079C197.602 63.7159 197.284 63.6199 196.912 63.6199H193.762Z" fill="black"/>
<path d="M203.408 70.9999H202.184V62.3599H203.624V68.6779L208.916 62.3599H210.14V70.9999H208.7V64.6819L203.408 70.9999Z" fill="black"/>
<path d="M213.341 73.3399H211.937V69.7039H213.089C214.109 67.9039 214.601 65.4559 214.565 62.3599H221.009V69.7039H222.269V73.3399H220.865V70.9999H213.341V73.3399ZM215.951 63.6559C215.891 66.0199 215.459 68.0359 214.655 69.7039H219.569V63.6559H215.951Z" fill="black"/>
<path d="M223.422 66.6799C223.422 65.2639 223.854 64.1539 224.718 63.3499C225.594 62.5459 226.596 62.1439 227.724 62.1439C228.78 62.1439 229.65 62.4079 230.334 62.9359C231.03 63.4639 231.486 64.1179 231.702 64.8979C231.918 65.6659 231.93 66.4699 231.738 67.3099H224.862C224.946 68.1619 225.324 68.8039 225.996 69.2359C226.668 69.6679 227.478 69.8839 228.426 69.8839C229.482 69.8839 230.43 69.6499 231.27 69.1819V70.5859C230.466 71.0059 229.446 71.2159 228.21 71.2159C226.842 71.2159 225.702 70.8259 224.79 70.0459C223.878 69.2659 223.422 68.1439 223.422 66.6799ZM230.46 66.0499C230.496 65.7979 230.478 65.5339 230.406 65.2579C230.334 64.9819 230.202 64.7059 230.01 64.4299C229.83 64.1539 229.548 63.9259 229.164 63.7459C228.78 63.5659 228.33 63.4759 227.814 63.4759C227.034 63.4759 226.356 63.7039 225.78 64.1599C225.216 64.6159 224.91 65.2459 224.862 66.0499H230.46Z" fill="black"/>
<path d="M234.616 70.0099C233.704 69.1939 233.248 68.0839 233.248 66.6799C233.248 65.2759 233.704 64.1719 234.616 63.3679C235.528 62.5519 236.608 62.1439 237.856 62.1439C239.116 62.1439 240.196 62.5519 241.096 63.3679C242.008 64.1719 242.464 65.2759 242.464 66.6799C242.464 68.0839 242.008 69.1939 241.096 70.0099C240.196 70.8139 239.116 71.2159 237.856 71.2159C236.608 71.2159 235.528 70.8139 234.616 70.0099ZM240.124 69.0019C240.724 68.4259 241.024 67.6519 241.024 66.6799C241.024 65.7079 240.724 64.9399 240.124 64.3759C239.524 63.7999 238.768 63.5119 237.856 63.5119C236.944 63.5119 236.188 63.7999 235.588 64.3759C234.988 64.9399 234.688 65.7079 234.688 66.6799C234.688 67.6519 234.988 68.4259 235.588 69.0019C236.188 69.5659 236.944 69.8479 237.856 69.8479C238.768 69.8479 239.524 69.5659 240.124 69.0019Z" fill="black"/>
<path d="M245.969 70.9999H244.529V62.3599H245.969V65.9599H247.715L250.451 62.3599H252.125L248.849 66.6619L252.521 70.9999H250.829L247.661 67.2919H245.969V70.9999Z" fill="black"/>
<path d="M260.901 69.1999C260.901 69.6439 261.123 69.8659 261.567 69.8659C261.759 69.8659 261.981 69.8239 262.233 69.7399V70.9099C261.873 71.0419 261.513 71.1079 261.153 71.1079C260.325 71.1079 259.797 70.7599 259.569 70.0639C258.645 70.8319 257.523 71.2159 256.203 71.2159C255.363 71.2159 254.643 70.9939 254.043 70.5499C253.455 70.0939 253.161 69.4399 253.161 68.5879C253.161 67.5679 253.539 66.8299 254.295 66.3739C255.063 65.9059 255.987 65.6719 257.067 65.6719C257.859 65.6719 258.657 65.7619 259.461 65.9419V65.6359C259.461 64.9759 259.245 64.4539 258.813 64.0699C258.381 63.6739 257.775 63.4759 256.995 63.4759C255.903 63.4759 254.853 63.6919 253.845 64.1239V62.7199C254.973 62.3359 256.071 62.1439 257.139 62.1439C258.315 62.1439 259.233 62.4619 259.893 63.0979C260.565 63.7219 260.901 64.6279 260.901 65.8159V69.1999ZM254.637 68.5159C254.637 68.9959 254.817 69.3619 255.177 69.6139C255.549 69.8539 255.993 69.9739 256.509 69.9739C257.697 69.9739 258.681 69.5539 259.461 68.7139V67.1299C258.645 66.9619 257.913 66.8779 257.265 66.8779C256.533 66.8779 255.909 67.0099 255.393 67.2739C254.889 67.5259 254.637 67.9399 254.637 68.5159Z" fill="black"/>
<path d="M265.073 63.7999C266.045 62.6959 267.209 62.1439 268.565 62.1439C269.801 62.1439 270.827 62.5759 271.643 63.4399C272.471 64.3039 272.885 65.3839 272.885 66.6799C272.885 67.9759 272.471 69.0559 271.643 69.9199C270.827 70.7839 269.801 71.2159 268.565 71.2159C267.197 71.2159 266.081 70.7119 265.217 69.7039V74.9599H263.777V62.3599H265.073V63.7999ZM270.563 69.0019C271.151 68.4139 271.445 67.6399 271.445 66.6799C271.445 65.7199 271.151 64.9459 270.563 64.3579C269.987 63.7699 269.267 63.4759 268.403 63.4759C267.671 63.4759 267.023 63.6799 266.459 64.0879C265.895 64.4959 265.481 64.9999 265.217 65.5999V67.7599C265.481 68.3599 265.895 68.8639 266.459 69.2719C267.023 69.6799 267.671 69.8839 268.403 69.8839C269.267 69.8839 269.987 69.5899 270.563 69.0019Z" fill="black"/>
<path d="M278.293 70.9999H276.853V63.6919H273.667V62.3599H281.461V63.6919H278.293V70.9999Z" fill="black"/>
<path d="M287.2 70.9999H283.096V62.3599H284.536V65.3839H287.2C288.232 65.3839 289.048 65.6479 289.648 66.1759C290.248 66.7039 290.548 67.3759 290.548 68.1919C290.548 69.0079 290.248 69.6799 289.648 70.2079C289.048 70.7359 288.232 70.9999 287.2 70.9999ZM284.536 66.6799V69.7039H287.02C287.668 69.7039 288.172 69.5779 288.532 69.3259C288.904 69.0739 289.09 68.6959 289.09 68.1919C289.09 67.6879 288.904 67.3099 288.532 67.0579C288.172 66.8059 287.668 66.6799 287.02 66.6799H284.536ZM293.662 70.9999H292.222V62.3599H293.662V70.9999Z" fill="black"/>
<path d="M122.266 90.9999H120.628L126.118 78.3999H127.792L133.264 90.9999H131.644L130.348 87.9579H123.562L122.266 90.9999ZM126.748 80.4339L124.156 86.5539H129.754L127.144 80.4339C127.12 80.3739 127.054 80.2119 126.946 79.9479C126.838 80.2239 126.772 80.3859 126.748 80.4339Z" fill="black"/>
<path d="M134.232 84.6279C134.232 83.7999 134.55 83.1819 135.186 82.7739C135.834 82.3539 136.614 82.1439 137.526 82.1439C138.642 82.1439 139.662 82.3899 140.586 82.8819V84.2499C140.226 84.0099 139.77 83.8179 139.218 83.6739C138.666 83.5179 138.132 83.4399 137.616 83.4399C137.088 83.4399 136.632 83.5359 136.248 83.7279C135.876 83.9079 135.69 84.1959 135.69 84.5919C135.69 84.8799 135.822 85.1319 136.086 85.3479C136.362 85.5519 136.704 85.7079 137.112 85.8159C137.52 85.9239 137.958 86.0619 138.426 86.2299C138.906 86.3859 139.35 86.5539 139.758 86.7339C140.166 86.9019 140.502 87.1659 140.766 87.5259C141.042 87.8739 141.18 88.2939 141.18 88.7859C141.18 89.6259 140.844 90.2439 140.172 90.6399C139.5 91.0239 138.648 91.2159 137.616 91.2159C136.26 91.2159 135.144 90.9339 134.268 90.3699V88.9659C135.18 89.5779 136.272 89.8839 137.544 89.8839C139.008 89.8839 139.74 89.5299 139.74 88.8219C139.74 88.4979 139.548 88.2279 139.164 88.0119C138.792 87.7839 138.336 87.5979 137.796 87.4539C137.256 87.2979 136.716 87.1239 136.176 86.9319C135.636 86.7399 135.174 86.4519 134.79 86.0679C134.418 85.6839 134.232 85.2039 134.232 84.6279Z" fill="black"/>
<path d="M149.583 82.3599H151.023V90.9999H149.727V89.7219C149.415 90.1419 148.977 90.4959 148.413 90.7839C147.861 91.0719 147.261 91.2159 146.613 91.2159C145.497 91.2159 144.615 90.8979 143.967 90.2619C143.331 89.6139 143.013 88.7559 143.013 87.6879V82.3599H144.453V87.5079C144.453 89.0919 145.227 89.8839 146.775 89.8839C147.879 89.8839 148.815 89.3079 149.583 88.1559V82.3599Z" fill="black"/>
<path d="M153.181 84.6279C153.181 83.7999 153.499 83.1819 154.135 82.7739C154.783 82.3539 155.563 82.1439 156.475 82.1439C157.591 82.1439 158.611 82.3899 159.535 82.8819V84.2499C159.175 84.0099 158.719 83.8179 158.167 83.6739C157.615 83.5179 157.081 83.4399 156.565 83.4399C156.037 83.4399 155.581 83.5359 155.197 83.7279C154.825 83.9079 154.639 84.1959 154.639 84.5919C154.639 84.8799 154.771 85.1319 155.035 85.3479C155.311 85.5519 155.653 85.7079 156.061 85.8159C156.469 85.9239 156.907 86.0619 157.375 86.2299C157.855 86.3859 158.299 86.5539 158.707 86.7339C159.115 86.9019 159.451 87.1659 159.715 87.5259C159.991 87.8739 160.129 88.2939 160.129 88.7859C160.129 89.6259 159.793 90.2439 159.121 90.6399C158.449 91.0239 157.597 91.2159 156.565 91.2159C155.209 91.2159 154.093 90.9339 153.217 90.3699V88.9659C154.129 89.5779 155.221 89.8839 156.493 89.8839C157.957 89.8839 158.689 89.5299 158.689 88.8219C158.689 88.4979 158.497 88.2279 158.113 88.0119C157.741 87.7839 157.285 87.5979 156.745 87.4539C156.205 87.2979 155.665 87.1239 155.125 86.9319C154.585 86.7399 154.123 86.4519 153.739 86.0679C153.367 85.6839 153.181 85.2039 153.181 84.6279Z" fill="black"/>
<path d="M166.877 78.3999H171.179C174.743 78.3999 176.525 79.7559 176.525 82.4679C176.525 85.1799 174.743 86.5359 171.179 86.5359H168.389V90.9999H166.877V78.3999ZM174.995 82.4679C174.995 81.9519 174.899 81.5199 174.707 81.1719C174.515 80.8119 174.239 80.5419 173.879 80.3619C173.531 80.1699 173.147 80.0379 172.727 79.9659C172.307 79.8819 171.815 79.8399 171.251 79.8399H168.389V85.0959H171.251C172.415 85.0959 173.327 84.9039 173.987 84.5199C174.659 84.1359 174.995 83.4519 174.995 82.4679Z" fill="black"/>
<path d="M177.931 84.7899C177.931 83.3979 178.261 82.1919 178.921 81.1719C179.581 80.1399 180.403 79.3839 181.387 78.9039C182.371 78.4239 183.427 78.1839 184.555 78.1839C185.851 78.1839 187.033 78.4659 188.101 79.0299V80.5419C187.189 79.9299 186.091 79.6239 184.807 79.6239C183.367 79.6239 182.119 80.0679 181.063 80.9559C180.007 81.8319 179.473 83.1099 179.461 84.7899C179.461 85.8579 179.731 86.7819 180.271 87.5619C180.823 88.3419 181.495 88.9059 182.287 89.2539C183.091 89.6019 183.949 89.7759 184.861 89.7759C186.217 89.7759 187.327 89.4699 188.191 88.8579V90.3699C187.099 90.9339 185.881 91.2159 184.537 91.2159C183.733 91.2159 182.941 91.0779 182.161 90.8019C181.381 90.5139 180.673 90.1119 180.037 89.5959C179.401 89.0679 178.891 88.3899 178.507 87.5619C178.123 86.7219 177.931 85.7979 177.931 84.7899Z" fill="black"/>
<path d="M190.537 78.3999H192.049V90.9999H190.537V78.3999Z" fill="black"/>
<path d="M194.691 85.8519H201.117V87.2199H194.691V85.8519Z" fill="black"/>
<path d="M203.773 78.3999H212.269V79.8399H205.285V83.9259H211.729V85.3659H205.285V89.5599H212.377V90.9999H203.773V78.3999Z" fill="black"/>
<path d="M220.029 82.3599H221.685L218.517 86.5539L221.865 90.9999H220.209L217.689 87.5799L215.151 90.9999H213.495L216.861 86.5539L213.675 82.3599H215.331L217.689 85.5459L220.029 82.3599Z" fill="black"/>
<path d="M227.396 84.6999C227.396 83.3199 227.726 82.1259 228.386 81.1179C229.046 80.0979 229.874 79.3539 230.87 78.8859C231.866 78.4179 232.94 78.1839 234.092 78.1839C235.484 78.1839 236.744 78.4659 237.872 79.0299V80.5419C236.9 79.9299 235.712 79.6239 234.308 79.6239C233.624 79.6239 232.97 79.7259 232.346 79.9299C231.722 80.1219 231.146 80.4159 230.618 80.8119C230.102 81.1959 229.688 81.7239 229.376 82.3959C229.076 83.0679 228.926 83.8359 228.926 84.6999C228.926 85.6119 229.082 86.4099 229.394 87.0939C229.706 87.7659 230.126 88.2939 230.654 88.6779C231.182 89.0499 231.752 89.3259 232.364 89.5059C232.988 89.6859 233.648 89.7759 234.344 89.7759C235.244 89.7759 236.018 89.6199 236.666 89.3079V84.3039H238.178V90.3699C236.954 90.9339 235.64 91.2159 234.236 91.2159C233.336 91.2159 232.49 91.0959 231.698 90.8559C230.906 90.6159 230.18 90.2499 229.52 89.7579C228.872 89.2539 228.356 88.5699 227.972 87.7059C227.588 86.8419 227.396 85.8399 227.396 84.6999Z" fill="black"/>
<path d="M239.998 86.6799C239.998 85.2639 240.43 84.1539 241.294 83.3499C242.17 82.5459 243.172 82.1439 244.3 82.1439C245.356 82.1439 246.226 82.4079 246.91 82.9359C247.606 83.4639 248.062 84.1179 248.278 84.8979C248.494 85.6659 248.506 86.4699 248.314 87.3099H241.438C241.522 88.1619 241.9 88.8039 242.572 89.2359C243.244 89.6679 244.054 89.8839 245.002 89.8839C246.058 89.8839 247.006 89.6499 247.846 89.1819V90.5859C247.042 91.0059 246.022 91.2159 244.786 91.2159C243.418 91.2159 242.278 90.8259 241.366 90.0459C240.454 89.2659 239.998 88.1439 239.998 86.6799ZM247.036 86.0499C247.072 85.7979 247.054 85.5339 246.982 85.2579C246.91 84.9819 246.778 84.7059 246.586 84.4299C246.406 84.1539 246.124 83.9259 245.74 83.7459C245.356 83.5659 244.906 83.4759 244.39 83.4759C243.61 83.4759 242.932 83.7039 242.356 84.1599C241.792 84.6159 241.486 85.2459 241.438 86.0499H247.036Z" fill="black"/>
<path d="M250.636 78.3999H259.168V79.8399H252.148V84.1779H258.646V85.6179H252.148V90.9999H250.636V78.3999Z" fill="black"/>
<path d="M261.51 90.0099C260.598 89.1939 260.142 88.0839 260.142 86.6799C260.142 85.2759 260.598 84.1719 261.51 83.3679C262.422 82.5519 263.502 82.1439 264.75 82.1439C266.01 82.1439 267.09 82.5519 267.99 83.3679C268.902 84.1719 269.358 85.2759 269.358 86.6799C269.358 88.0839 268.902 89.1939 267.99 90.0099C267.09 90.8139 266.01 91.2159 264.75 91.2159C263.502 91.2159 262.422 90.8139 261.51 90.0099ZM267.018 89.0019C267.618 88.4259 267.918 87.6519 267.918 86.6799C267.918 85.7079 267.618 84.9399 267.018 84.3759C266.418 83.7999 265.662 83.5119 264.75 83.5119C263.838 83.5119 263.082 83.7999 262.482 84.3759C261.882 84.9399 261.582 85.7079 261.582 86.6799C261.582 87.6519 261.882 88.4259 262.482 89.0019C263.082 89.5659 263.838 89.8479 264.75 89.8479C265.662 89.8479 266.418 89.5659 267.018 89.0019Z" fill="black"/>
<path d="M272.72 83.8899C273.056 83.3259 273.572 82.8879 274.268 82.5759C274.964 82.2519 275.69 82.1199 276.446 82.1799V83.6199C275.606 83.5239 274.862 83.6619 274.214 84.0339C273.578 84.3939 273.128 84.9219 272.864 85.6179V90.9999H271.424V82.3599H272.72V83.8899Z" fill="black"/>
<path d="M277.105 86.7159C277.105 85.9599 277.243 85.2819 277.519 84.6819C277.795 84.0819 278.155 83.6019 278.599 83.2419C279.055 82.8819 279.553 82.6119 280.093 82.4319C280.645 82.2399 281.209 82.1439 281.785 82.1439C282.853 82.1439 283.741 82.3779 284.449 82.8459V84.2499C283.789 83.7339 282.961 83.4759 281.965 83.4759C281.029 83.4759 280.225 83.7459 279.553 84.2859C278.881 84.8259 278.545 85.6239 278.545 86.6799C278.545 87.7239 278.875 88.5219 279.535 89.0739C280.207 89.6139 281.005 89.8839 281.929 89.8839C282.889 89.8839 283.759 89.6499 284.539 89.1819V90.6219C283.723 91.0179 282.787 91.2159 281.731 91.2159C280.483 91.2159 279.397 90.8259 278.473 90.0459C277.561 89.2659 277.105 88.1559 277.105 86.7159Z" fill="black"/>
<path d="M285.877 86.6799C285.877 85.2639 286.309 84.1539 287.173 83.3499C288.049 82.5459 289.051 82.1439 290.179 82.1439C291.235 82.1439 292.105 82.4079 292.789 82.9359C293.485 83.4639 293.941 84.1179 294.157 84.8979C294.373 85.6659 294.385 86.4699 294.193 87.3099H287.317C287.401 88.1619 287.779 88.8039 288.451 89.2359C289.123 89.6679 289.933 89.8839 290.881 89.8839C291.937 89.8839 292.885 89.6499 293.725 89.1819V90.5859C292.921 91.0059 291.901 91.2159 290.665 91.2159C289.297 91.2159 288.157 90.8259 287.245 90.0459C286.333 89.2659 285.877 88.1439 285.877 86.6799ZM292.915 86.0499C292.951 85.7979 292.933 85.5339 292.861 85.2579C292.789 84.9819 292.657 84.7059 292.465 84.4299C292.285 84.1539 292.003 83.9259 291.619 83.7459C291.235 83.5659 290.785 83.4759 290.269 83.4759C289.489 83.4759 288.811 83.7039 288.235 84.1599C287.671 84.6159 287.365 85.2459 287.317 86.0499H292.915Z" fill="black"/>
<path d="M212.176 111H210.664V98.3999H215.596C216.424 98.3999 217.174 98.5139 217.846 98.7419C218.518 98.9579 219.094 99.3659 219.574 99.9659C220.066 100.554 220.312 101.304 220.312 102.216C220.312 103.296 220 104.136 219.376 104.736C218.752 105.336 217.942 105.726 216.946 105.906L221.212 111H219.322L215.2 106.032H212.176V111ZM212.176 99.8399V104.592H215.668C216.556 104.592 217.294 104.412 217.882 104.052C218.482 103.68 218.782 103.068 218.782 102.216C218.782 101.352 218.482 100.74 217.882 100.38C217.294 100.02 216.556 99.8399 215.668 99.8399H212.176Z" fill="black"/>
<path d="M221.459 98.3999H231.827V99.8399H227.399V111H225.887V99.8399H221.459V98.3999Z" fill="black"/>
<path d="M233.906 111H232.106L236.984 104.52L232.376 98.3999H234.176L237.884 103.314L241.574 98.3999H243.374L238.784 104.52L243.644 111H241.844L237.884 105.726L233.906 111Z" fill="black"/>
<path d="M257.123 101.874C257.123 102.498 256.955 103.062 256.619 103.566C256.295 104.058 255.869 104.394 255.341 104.574C255.965 104.766 256.499 105.12 256.943 105.636C257.399 106.14 257.627 106.818 257.627 107.67C257.627 108.81 257.201 109.686 256.349 110.298C255.509 110.91 254.441 111.216 253.145 111.216C251.501 111.216 250.079 110.946 248.879 110.406V108.912C250.043 109.512 251.423 109.806 253.019 109.794C255.119 109.794 256.169 109.062 256.169 107.598C256.169 106.134 255.173 105.402 253.181 105.402H251.309V103.962L253.019 103.98C253.883 103.98 254.537 103.8 254.981 103.44C255.437 103.068 255.665 102.588 255.665 102C255.665 101.364 255.413 100.866 254.909 100.506C254.405 100.134 253.691 99.9479 252.767 99.9479C251.495 99.9479 250.271 100.26 249.095 100.884V99.4079C250.223 98.8319 251.513 98.5439 252.965 98.5439C254.213 98.5439 255.215 98.8499 255.971 99.4619C256.739 100.074 257.123 100.878 257.123 101.874Z" fill="black"/>
<path d="M260.794 109.47C259.882 108.306 259.426 106.776 259.426 104.88C259.426 102.984 259.882 101.454 260.794 100.29C261.706 99.1259 263.05 98.5439 264.826 98.5439C266.614 98.5439 267.964 99.1259 268.876 100.29C269.788 101.442 270.244 102.972 270.244 104.88C270.244 106.788 269.788 108.324 268.876 109.488C267.964 110.64 266.614 111.216 264.826 111.216C263.05 111.216 261.706 110.634 260.794 109.47ZM267.742 108.516C268.39 107.664 268.714 106.452 268.714 104.88C268.714 103.308 268.39 102.102 267.742 101.262C267.106 100.41 266.134 99.9839 264.826 99.9839C263.518 99.9839 262.546 100.41 261.91 101.262C261.274 102.102 260.956 103.308 260.956 104.88C260.956 106.452 261.274 107.664 261.91 108.516C262.546 109.356 263.518 109.776 264.826 109.776C266.134 109.776 267.106 109.356 267.742 108.516Z" fill="black"/>
<path d="M273.63 104.538C274.794 103.758 276.072 103.368 277.464 103.368C278.58 103.368 279.558 103.71 280.398 104.394C281.238 105.066 281.658 106.002 281.658 107.202C281.658 108.462 281.238 109.446 280.398 110.154C279.57 110.862 278.526 111.216 277.266 111.216C275.538 111.216 274.242 110.682 273.378 109.614C272.526 108.534 272.1 107.022 272.1 105.078C272.1 102.918 272.61 101.292 273.63 100.2C274.662 99.0959 276.006 98.5439 277.662 98.5439C278.73 98.5439 279.72 98.7779 280.632 99.2459V100.686C279.744 100.218 278.766 99.9839 277.698 99.9839C276.57 99.9839 275.628 100.35 274.872 101.082C274.128 101.802 273.714 102.954 273.63 104.538ZM273.648 106.05C273.876 108.558 275.046 109.812 277.158 109.812C278.046 109.812 278.76 109.608 279.3 109.2C279.852 108.792 280.128 108.15 280.128 107.274C280.128 106.386 279.846 105.75 279.282 105.366C278.718 104.97 277.986 104.772 277.086 104.772C275.754 104.772 274.608 105.198 273.648 106.05Z" fill="black"/>
<path d="M284.63 109.47C283.718 108.306 283.262 106.776 283.262 104.88C283.262 102.984 283.718 101.454 284.63 100.29C285.542 99.1259 286.886 98.5439 288.662 98.5439C290.45 98.5439 291.8 99.1259 292.712 100.29C293.624 101.442 294.08 102.972 294.08 104.88C294.08 106.788 293.624 108.324 292.712 109.488C291.8 110.64 290.45 111.216 288.662 111.216C286.886 111.216 285.542 110.634 284.63 109.47ZM291.578 108.516C292.226 107.664 292.55 106.452 292.55 104.88C292.55 103.308 292.226 102.102 291.578 101.262C290.942 100.41 289.97 99.9839 288.662 99.9839C287.354 99.9839 286.382 100.41 285.746 101.262C285.11 102.102 284.792 103.308 284.792 104.88C284.792 106.452 285.11 107.664 285.746 108.516C286.382 109.356 287.354 109.776 288.662 109.776C289.97 109.776 290.942 109.356 291.578 108.516Z" fill="black"/>
<path d="M402 152.005L406.243 147.762L418.792 160.311L414.549 164.554L402 152.005Z" fill="#37376D"/>
<path d="M408 165.996L419.996 154L447.161 181.165C450.473 184.478 450.473 189.849 447.161 193.161C443.848 196.474 438.478 196.474 435.165 193.161L408 165.996Z" fill="#37376D"/>
<path d="M421 112C421 142.376 396.376 167 366 167C335.624 167 311 142.376 311 112C311 81.6243 335.624 57 366 57C396.376 57 421 81.6243 421 112Z" fill="#0FA7F0" fill-opacity="0.2"/>
<path fill-rule="evenodd" clip-rule="evenodd" d="M366 161C393.062 161 415 139.062 415 112C415 84.938 393.062 63 366 63C338.938 63 317 84.938 317 112C317 139.062 338.938 161 366 161ZM366 167C396.376 167 421 142.376 421 112C421 81.6243 396.376 57 366 57C335.624 57 311 81.6243 311 112C311 142.376 335.624 167 366 167Z" fill="#37376D"/>
<defs>
<linearGradient id="paint0_linear" x1="283" y1="124" x2="283" y2="287.5" gradientUnits="userSpaceOnUse">
<stop stop-color="#0FA7F0" stop-opacity="0.2"/>
<stop offset="1" stop-color="#0FA7F0" stop-opacity="0"/>
</linearGradient>
</defs>
</svg>
