<svg width="565" height="261" viewBox="0 0 565 261" fill="none" xmlns="http://www.w3.org/2000/svg">
<path fill-rule="evenodd" clip-rule="evenodd" d="M444 39.5C441.515 39.5 439.5 41.5147 439.5 44V57C439.5 60.0376 437.038 62.5 434 62.5H362V61.5H434C436.485 61.5 438.5 59.4853 438.5 57V44C438.5 40.9624 440.962 38.5 444 38.5H565V39.5H444ZM470 72.5C467.515 72.5 465.5 74.5147 465.5 77V90C465.5 93.0376 463.038 95.5 460 95.5H323V94.5H460C462.485 94.5 464.5 92.4853 464.5 90V77C464.5 73.9624 466.962 71.5 470 71.5H527V72.5H470ZM475 124.5H340V123.5H475C478.038 123.5 480.5 125.962 480.5 129V160C480.5 162.485 482.515 164.5 485 164.5H500C502.485 164.5 504.5 162.485 504.5 160V129C504.5 125.962 506.962 123.5 510 123.5H565V124.5H510C507.515 124.5 505.5 126.515 505.5 129V160C505.5 163.038 503.038 165.5 500 165.5H485C481.962 165.5 479.5 163.038 479.5 160V129C479.5 126.515 477.485 124.5 475 124.5Z" fill="#DDDDE6"/>
<path fill-rule="evenodd" clip-rule="evenodd" d="M528.5 207V124H529.5V207H528.5Z" fill="#DDDDE6"/>
<path d="M549 36C549 33.2386 551.239 31 554 31H560C562.761 31 565 33.2386 565 36V42C565 44.7614 562.761 47 560 47H554C551.239 47 549 44.7614 549 42V36Z" fill="#0FA7F0"/>
<path d="M486 7C486 4.23858 488.239 2 491 2H497C499.761 2 502 4.23858 502 7V13C502 15.7614 499.761 18 497 18H491C488.239 18 486 15.7614 486 13V7Z" fill="#0FA7F0"/>
<path d="M486 101C486 98.2386 488.239 96 491 96H497C499.761 96 502 98.2386 502 101V107C502 109.761 499.761 112 497 112H491C488.239 112 486 109.761 486 107V101Z" fill="#0FA7F0"/>
<path d="M521 68C521 65.2386 523.239 63 526 63H532C534.761 63 537 65.2386 537 68V74C537 76.7614 534.761 79 532 79H526C523.239 79 521 76.7614 521 74V68Z" fill="#0FA7F0"/>
<path d="M521 207C521 204.239 523.239 202 526 202H532C534.761 202 537 204.239 537 207V213C537 215.761 534.761 218 532 218H526C523.239 218 521 215.761 521 213V207Z" fill="#0FA7F0"/>
<path d="M549 121C549 118.239 551.239 116 554 116H560C562.761 116 565 118.239 565 121V127C565 129.761 562.761 132 560 132H554C551.239 132 549 129.761 549 127V121Z" fill="#0FA7F0"/>
<path d="M251.811 6.83024L256.719 52.246L257.537 60.864H238.451L239.405 52.246L244.177 6.83024L244.586 3H251.402L251.811 6.83024Z" fill="#F28100"/>
<path d="M403.543 6.83024L408.315 52.246L409.269 60.864H390.184L391.002 52.246L395.909 6.83024L396.318 3H403.134L403.543 6.83024Z" fill="#F28100"/>
<path d="M314.794 147.867C310.976 151.287 307.296 154.16 303.479 157.032C299.661 159.905 295.844 162.778 291.755 165.513C283.711 170.985 275.532 176.047 266.125 180.287C261.763 182.202 256.583 180.287 254.674 175.91C252.902 171.943 254.401 167.292 257.946 165.103L258.219 164.966C265.308 160.589 271.987 154.98 278.531 148.961C281.803 145.952 284.938 142.806 288.074 139.659C291.073 136.513 294.345 133.093 296.935 130.084C301.57 124.749 309.477 124.202 314.794 128.716C320.11 133.367 320.656 141.301 316.157 146.636C315.748 147.046 315.339 147.457 314.794 147.867Z" fill="#37376D"/>
<path d="M344.514 122.558C348.604 123.515 353.512 123.789 358.283 123.789C363.191 123.789 368.235 123.378 373.143 122.694C383.094 121.327 393.046 118.727 402.044 114.624L402.18 114.487C406.542 112.435 411.723 114.487 413.631 118.864C415.404 122.968 413.904 127.619 410.223 129.808C399.862 136.1 388.82 140.478 377.369 143.624C371.643 145.129 365.781 146.36 359.783 147.044C353.785 147.728 347.514 148.138 340.834 147.591H340.697C333.745 147.044 328.564 140.888 329.11 133.912C329.655 126.935 335.79 121.737 342.742 122.284C343.424 122.284 343.969 122.421 344.514 122.558Z" fill="#37376D"/>
<path d="M411.175 57.9916C411.175 87.1288 372.322 110.794 324.199 110.794C276.077 110.794 237.36 87.1288 237.36 57.9916C237.36 28.8544 276.349 5.18896 324.336 5.18896C372.322 5.18896 411.175 28.8544 411.175 57.9916Z" fill="#0FA7F0"/>
<path d="M381.183 57.9912C381.183 74.133 355.691 88.086 324.336 88.086C292.981 88.086 267.488 74.133 267.488 57.9912C267.488 41.8495 292.981 27.8965 324.336 27.8965C355.691 28.0333 381.183 41.9863 381.183 57.9912Z" fill="white"/>
<path d="M343.968 57.9914C343.968 68.9349 335.243 77.6897 324.337 77.6897C313.431 77.6897 304.706 68.9349 304.706 57.9914C304.706 47.0478 313.431 38.293 324.337 38.293C335.107 38.293 343.968 47.1846 343.968 57.9914Z" fill="#37376D"/>
<path d="M380.093 194.648L358.963 136.237C355.691 127.619 347.511 121.874 338.377 121.874H313.157C301.024 121.874 291.209 131.723 291.209 143.897V194.511H380.093V194.648Z" fill="#0FA7F0"/>
<path d="M230 165.786C234.771 161.545 241.997 159.493 248.677 160.724C255.356 161.819 261.764 166.059 265.445 171.942C269.262 177.824 270.216 185.347 268.444 191.914C266.671 198.48 261.9 204.225 255.902 206.687L249.086 196.017C251.13 193.555 252.085 190.956 252.357 188.357C252.494 185.758 251.948 183.432 250.585 181.38C249.358 179.328 247.45 177.824 244.996 176.866C242.542 175.909 239.815 175.772 236.68 176.456L230 165.786Z" fill="#F28100"/>
<path d="M423.855 103.407C421.537 105.596 420.174 107.922 419.493 110.384C418.947 112.846 419.22 115.309 420.038 117.497C420.992 119.686 422.628 121.601 424.809 122.832C426.99 124.063 429.717 124.747 432.852 124.474L437.896 136.101C432.443 139.658 425.082 140.342 418.675 138.153C412.267 135.965 406.542 130.766 403.951 124.337C401.225 117.908 401.225 110.247 404.224 104.091C407.087 97.7989 412.676 93.0111 418.947 91.5063L423.855 103.407Z" fill="#F28100"/>
<path d="M321.748 194.648H291.075V229.257H321.748V194.648Z" fill="#37376D"/>
<path d="M361.825 229.257H392.635L380.093 194.648H349.283L361.825 229.257Z" fill="#37376D"/>
<path d="M0 39H110V79H0V39Z" fill="#F9F9FB"/>
<path fill-rule="evenodd" clip-rule="evenodd" d="M109 40H1V78H109V40ZM0 39V79H110V39H0Z" fill="#DDDDE6"/>
<path d="M109 39H191V79H109V39Z" fill="#F9F9FB"/>
<path fill-rule="evenodd" clip-rule="evenodd" d="M190 40H110V78H190V40ZM109 39V79H191V39H109Z" fill="#DDDDE6"/>
<path d="M0 5C0 2.23858 2.23858 0 5 0H110V40H0V5Z" fill="white"/>
<path fill-rule="evenodd" clip-rule="evenodd" d="M109 1H5C2.79086 1 1 2.79086 1 5V39H109V1ZM5 0C2.23858 0 0 2.23858 0 5V40H110V0H5Z" fill="#DDDDE6"/>
<path d="M0 78H110V118H0V78Z" fill="white"/>
<path fill-rule="evenodd" clip-rule="evenodd" d="M109 79H1V117H109V79ZM0 78V118H110V78H0Z" fill="#DDDDE6"/>
<path d="M0 117H110V157H0V117Z" fill="#F9F9FB"/>
<path fill-rule="evenodd" clip-rule="evenodd" d="M109 118H1V156H109V118ZM0 117V157H110V117H0Z" fill="#DDDDE6"/>
<path d="M0 156H110V196H0V156Z" fill="white"/>
<path fill-rule="evenodd" clip-rule="evenodd" d="M109 157H1V195H109V157ZM0 156V196H110V156H0Z" fill="#DDDDE6"/>
<path d="M0 195H110V235H5C2.23858 235 0 232.761 0 230V195Z" fill="#F9F9FB"/>
<path fill-rule="evenodd" clip-rule="evenodd" d="M109 196H1V230C1 232.209 2.79086 234 5 234H109V196ZM0 195V230C0 232.761 2.23858 235 5 235H110V195H0Z" fill="#DDDDE6"/>
<path d="M109 0H186C188.761 0 191 2.23858 191 5V40H109V0Z" fill="white"/>
<path fill-rule="evenodd" clip-rule="evenodd" d="M186 1H110V39H190V5C190 2.79086 188.209 1 186 1ZM109 0V40H191V5C191 2.23858 188.761 0 186 0H109Z" fill="#DDDDE6"/>
<path d="M109 78H191V118H109V78Z" fill="white"/>
<path fill-rule="evenodd" clip-rule="evenodd" d="M190 79H110V117H190V79ZM109 78V118H191V78H109Z" fill="#DDDDE6"/>
<path d="M109 117H191V157H109V117Z" fill="#F9F9FB"/>
<path fill-rule="evenodd" clip-rule="evenodd" d="M190 118H110V156H190V118ZM109 117V157H191V117H109Z" fill="#DDDDE6"/>
<path d="M109 156H191V196H109V156Z" fill="white"/>
<path fill-rule="evenodd" clip-rule="evenodd" d="M190 157H110V195H190V157ZM109 156V196H191V156H109Z" fill="#DDDDE6"/>
<path d="M109 195H191V230C191 232.761 188.761 235 186 235H109V195Z" fill="#F9F9FB"/>
<path fill-rule="evenodd" clip-rule="evenodd" d="M190 196H110V234H186C188.209 234 190 232.209 190 230V196ZM109 195V235H186C188.761 235 191 232.761 191 230V195H109Z" fill="#DDDDE6"/>
<path d="M15.0598 50.7599H16.1758V61.5599H18.4618V62.9999H12.0898V61.5599H14.6638V52.3619L12.0898 53.3339V51.8939L15.0598 50.7599Z" fill="#37376D"/>
<path d="M24.0366 54.5579C24.0366 53.2979 24.4506 52.3139 25.2786 51.6059C26.1186 50.8979 27.1686 50.5439 28.4286 50.5439C30.1566 50.5439 31.4466 51.0839 32.2986 52.1639C33.1626 53.2319 33.5946 54.7379 33.5946 56.6819C33.5946 58.8419 33.0786 60.4739 32.0466 61.5779C31.0266 62.6699 29.6886 63.2159 28.0326 63.2159C26.9646 63.2159 25.9746 62.9819 25.0626 62.5139V61.0739C25.9506 61.5419 26.9286 61.7759 27.9966 61.7759C29.1246 61.7759 30.0606 61.4159 30.8046 60.6959C31.5606 59.9639 31.9806 58.8059 32.0646 57.2219C30.8886 58.0019 29.6106 58.3919 28.2306 58.3919C27.1146 58.3919 26.1366 58.0559 25.2966 57.3839C24.4566 56.6999 24.0366 55.7579 24.0366 54.5579ZM28.5366 51.9479C27.6486 51.9479 26.9286 52.1519 26.3766 52.5599C25.8366 52.9679 25.5666 53.6099 25.5666 54.4859C25.5666 55.3739 25.8486 56.0159 26.4126 56.4119C26.9766 56.7959 27.7086 56.9879 28.6086 56.9879C29.9406 56.9879 31.0866 56.5619 32.0466 55.7099C31.8186 53.2019 30.6486 51.9479 28.5366 51.9479Z" fill="#37376D"/>
<path d="M35.8287 53.7119C35.8287 52.8479 36.2067 52.1039 36.9627 51.4799C37.7188 50.8559 38.8287 50.5439 40.2927 50.5439C41.6488 50.5439 42.7407 50.8739 43.5688 51.5339C44.3968 52.1939 44.8228 52.9859 44.8468 53.9099C44.8828 55.1699 44.3247 56.2019 43.1728 57.0059C44.5768 57.7019 45.2788 58.6619 45.2788 59.8859C45.2788 60.8219 44.8647 61.6139 44.0367 62.2619C43.2207 62.8979 42.0087 63.2159 40.4007 63.2159C38.8047 63.2159 37.5687 62.8679 36.6927 62.1719C35.8287 61.4759 35.3967 60.6299 35.3967 59.6339C35.3967 59.0339 35.5707 58.4399 35.9187 57.8519C36.2787 57.2519 36.8007 56.7479 37.4847 56.3399C36.3807 55.6679 35.8287 54.7919 35.8287 53.7119ZM40.4727 57.4919C39.8487 57.3239 39.2788 57.1439 38.7628 56.9519C38.1628 57.2399 37.7007 57.6119 37.3767 58.0679C37.0647 58.5239 36.9087 58.9919 36.9087 59.4719C36.9087 60.2039 37.2087 60.7799 37.8088 61.1999C38.4207 61.6079 39.2968 61.8119 40.4368 61.8119C41.3967 61.8119 42.1887 61.6439 42.8127 61.3079C43.4487 60.9599 43.7667 60.5099 43.7667 59.9579C43.7667 59.4899 43.5988 59.0939 43.2628 58.7699C42.9388 58.4339 42.6208 58.2059 42.3088 58.0859C41.9967 57.9659 41.4807 57.7979 40.7607 57.5819C40.6287 57.5459 40.5327 57.5159 40.4727 57.4919ZM43.3347 54.1799C43.3347 53.5439 43.0647 53.0159 42.5247 52.5959C41.9847 52.1639 41.2288 51.9479 40.2568 51.9479C39.3687 51.9479 38.6607 52.1159 38.1327 52.4519C37.6047 52.7759 37.3407 53.1899 37.3407 53.6939C37.3407 54.0419 37.4127 54.3479 37.5567 54.6119C37.7127 54.8639 37.9408 55.0799 38.2407 55.2599C38.5527 55.4279 38.8347 55.5659 39.0868 55.6739C39.3388 55.7699 39.6747 55.8779 40.0947 55.9979C40.1427 56.0099 40.1787 56.0219 40.2027 56.0339C40.2267 56.0339 40.2568 56.0399 40.2927 56.0519C40.3287 56.0639 40.3647 56.0759 40.4007 56.0879C40.4367 56.0999 40.6408 56.1599 41.0128 56.2679C41.3967 56.3639 41.6908 56.4419 41.8948 56.5019C42.8547 55.8779 43.3347 55.1039 43.3347 54.1799Z" fill="#37376D"/>
<path d="M48.455 61.4699C47.543 60.3059 47.087 58.7759 47.087 56.8799C47.087 54.9839 47.543 53.4539 48.455 52.2899C49.367 51.1259 50.711 50.5439 52.487 50.5439C54.275 50.5439 55.625 51.1259 56.537 52.2899C57.449 53.4419 57.905 54.9719 57.905 56.8799C57.905 58.7879 57.449 60.3239 56.537 61.4879C55.625 62.6399 54.275 63.2159 52.487 63.2159C50.711 63.2159 49.367 62.6339 48.455 61.4699ZM55.403 60.5159C56.051 59.6639 56.375 58.4519 56.375 56.8799C56.375 55.3079 56.051 54.1019 55.403 53.2619C54.767 52.4099 53.795 51.9839 52.487 51.9839C51.1791 51.9839 50.2071 52.4099 49.571 53.2619C48.935 54.1019 48.6171 55.3079 48.6171 56.8799C48.6171 58.4519 48.935 59.6639 49.571 60.5159C50.2071 61.3559 51.1791 61.7759 52.487 61.7759C53.795 61.7759 54.767 61.3559 55.403 60.5159Z" fill="#37376D"/>
<path d="M66.0797 62.9999H64.6397V54.3599H70.9577V55.6919H66.0797V62.9999Z" fill="#37376D"/>
<path d="M73.8986 55.7999C74.8706 54.6959 76.0346 54.1439 77.3906 54.1439C78.6266 54.1439 79.6526 54.5759 80.4686 55.4399C81.2966 56.3039 81.7106 57.3839 81.7106 58.6799C81.7106 59.9759 81.2966 61.0559 80.4686 61.9199C79.6526 62.7839 78.6266 63.2159 77.3906 63.2159C76.0226 63.2159 74.9066 62.7119 74.0426 61.7039V66.9599H72.6026V54.3599H73.8986V55.7999ZM79.3886 61.0019C79.9766 60.4139 80.2706 59.6399 80.2706 58.6799C80.2706 57.7199 79.9766 56.9459 79.3886 56.3579C78.8126 55.7699 78.0926 55.4759 77.2286 55.4759C76.4966 55.4759 75.8486 55.6799 75.2846 56.0879C74.7206 56.4959 74.3066 56.9999 74.0426 57.5999V59.7599C74.3066 60.3599 74.7206 60.8639 75.2846 61.2719C75.8486 61.6799 76.4966 61.8839 77.2286 61.8839C78.0926 61.8839 78.8126 61.5899 79.3886 61.0019Z" fill="#37376D"/>
<path d="M85.2223 62.9999H83.7823V54.3599H85.2223V58.0139H90.2263V54.3599H91.6663V62.9999H90.2263V59.3459H85.2223V62.9999Z" fill="#37376D"/>
<path d="M95.6072 61.5779C95.7872 61.7339 95.8772 61.9559 95.8772 62.2439C95.8772 62.5319 95.7872 62.7599 95.6072 62.9279C95.4272 63.0839 95.2052 63.1619 94.9412 63.1619C94.6772 63.1619 94.4492 63.0839 94.2572 62.9279C94.0772 62.7599 93.9872 62.5319 93.9872 62.2439C93.9872 61.9559 94.0772 61.7339 94.2572 61.5779C94.4492 61.4219 94.6772 61.3439 94.9412 61.3439C95.2052 61.3439 95.4272 61.4219 95.6072 61.5779Z" fill="#37376D"/>
<path d="M17.2825 12.7599H18.3985V23.5599H20.6845V24.9999H14.3125V23.5599H16.8865V14.3619L14.3125 15.3339V13.8939L17.2825 12.7599Z" fill="#37376D"/>
<path d="M27.2673 12.7599H34.6113V14.1999H28.6893L28.4733 17.6559C29.1213 17.4759 29.8173 17.3859 30.5613 17.3859C31.1733 17.3859 31.7433 17.4579 32.2713 17.6019C32.7993 17.7339 33.2853 17.9499 33.7293 18.2499C34.1853 18.5379 34.5453 18.9459 34.8093 19.4739C35.0733 19.9899 35.2053 20.6019 35.2053 21.3099C35.2053 22.5219 34.7553 23.4759 33.8553 24.1719C32.9673 24.8679 31.8333 25.2159 30.4533 25.2159C28.9653 25.2159 27.6573 24.9399 26.5293 24.3879V22.9479C27.6093 23.5239 28.8573 23.8119 30.2733 23.8119C31.3053 23.8119 32.1273 23.5959 32.7393 23.1639C33.3633 22.7319 33.6753 22.1139 33.6753 21.3099C33.6753 19.6059 32.4633 18.7539 30.0393 18.7539C28.9833 18.7539 27.9273 18.9459 26.8713 19.3299L27.2673 12.7599Z" fill="#37376D"/>
<path d="M38.4651 18.5379C39.6291 17.7579 40.9071 17.3679 42.2991 17.3679C43.4151 17.3679 44.3931 17.7099 45.2331 18.3939C46.0731 19.0659 46.4931 20.0019 46.4931 21.2019C46.4931 22.4619 46.0731 23.4459 45.2331 24.1539C44.4051 24.8619 43.3611 25.2159 42.1011 25.2159C40.3731 25.2159 39.0771 24.6819 38.2131 23.6139C37.3611 22.5339 36.9351 21.0219 36.9351 19.0779C36.9351 16.9179 37.4451 15.2919 38.4651 14.1999C39.4971 13.0959 40.8411 12.5439 42.4971 12.5439C43.5651 12.5439 44.5551 12.7779 45.4671 13.2459V14.6859C44.5791 14.2179 43.6011 13.9839 42.5331 13.9839C41.4051 13.9839 40.4631 14.3499 39.7071 15.0819C38.9631 15.8019 38.5491 16.9539 38.4651 18.5379ZM38.4831 20.0499C38.7111 22.5579 39.8811 23.8119 41.9931 23.8119C42.8811 23.8119 43.5951 23.6079 44.1351 23.1999C44.6871 22.7919 44.9631 22.1499 44.9631 21.2739C44.9631 20.3859 44.6811 19.7499 44.1171 19.3659C43.5531 18.9699 42.8211 18.7719 41.9211 18.7719C40.5891 18.7719 39.4431 19.1979 38.4831 20.0499Z" fill="#37376D"/>
<path d="M48.8708 12.7599H56.2148V14.1999H50.2928L50.0768 17.6559C50.7248 17.4759 51.4208 17.3859 52.1648 17.3859C52.7768 17.3859 53.3468 17.4579 53.8748 17.6019C54.4028 17.7339 54.8888 17.9499 55.3328 18.2499C55.7888 18.5379 56.1488 18.9459 56.4128 19.4739C56.6768 19.9899 56.8088 20.6019 56.8088 21.3099C56.8088 22.5219 56.3588 23.4759 55.4588 24.1719C54.5708 24.8679 53.4368 25.2159 52.0568 25.2159C50.5688 25.2159 49.2608 24.9399 48.1328 24.3879V22.9479C49.2128 23.5239 50.4608 23.8119 51.8768 23.8119C52.9088 23.8119 53.7308 23.5959 54.3428 23.1639C54.9668 22.7319 55.2788 22.1139 55.2788 21.3099C55.2788 19.6059 54.0668 18.7539 51.6428 18.7539C50.5868 18.7539 49.5308 18.9459 48.4748 19.3299L48.8708 12.7599Z" fill="#37376D"/>
<path d="M64.8571 24.9999H63.4171V16.3599H69.7351V17.6919H64.8571V24.9999Z" fill="#37376D"/>
<path d="M72.676 17.7999C73.648 16.6959 74.812 16.1439 76.168 16.1439C77.404 16.1439 78.4299 16.5759 79.2459 17.4399C80.074 18.3039 80.488 19.3839 80.488 20.6799C80.488 21.9759 80.074 23.0559 79.2459 23.9199C78.4299 24.7839 77.404 25.2159 76.168 25.2159C74.8 25.2159 73.684 24.7119 72.82 23.7039V28.9599H71.38V16.3599H72.676V17.7999ZM78.166 23.0019C78.754 22.4139 79.048 21.6399 79.048 20.6799C79.048 19.7199 78.754 18.9459 78.166 18.3579C77.59 17.7699 76.87 17.4759 76.006 17.4759C75.274 17.4759 74.626 17.6799 74.062 18.0879C73.498 18.4959 73.084 18.9999 72.82 19.5999V21.7599C73.084 22.3599 73.498 22.8639 74.062 23.2719C74.626 23.6799 75.274 23.8839 76.006 23.8839C76.87 23.8839 77.59 23.5899 78.166 23.0019Z" fill="#37376D"/>
<path d="M83.9996 24.9999H82.5596V16.3599H83.9996V20.0139H89.0036V16.3599H90.4436V24.9999H89.0036V21.3459H83.9996V24.9999Z" fill="#37376D"/>
<path d="M94.3845 23.5779C94.5645 23.7339 94.6545 23.9559 94.6545 24.2439C94.6545 24.5319 94.5645 24.7599 94.3845 24.9279C94.2045 25.0839 93.9825 25.1619 93.7185 25.1619C93.4545 25.1619 93.2265 25.0839 93.0345 24.9279C92.8545 24.7599 92.7645 24.5319 92.7645 24.2439C92.7645 23.9559 92.8545 23.7339 93.0345 23.5779C93.2265 23.4219 93.4545 23.3439 93.7185 23.3439C93.9825 23.3439 94.2045 23.4219 94.3845 23.5779Z" fill="#37376D"/>
<path d="M13.2816 91.7319C14.4216 90.9399 15.7296 90.5439 17.2056 90.5439C18.4776 90.5439 19.4916 90.8319 20.2476 91.4079C21.0036 91.9839 21.3816 92.7879 21.3816 93.8199C21.3816 94.3119 21.2856 94.7739 21.0936 95.2059C20.9136 95.6379 20.6376 96.0339 20.2656 96.3939C19.9056 96.7539 19.5516 97.0599 19.2036 97.3119C18.8676 97.5519 18.4416 97.8219 17.9256 98.1219C17.8656 98.1579 17.6796 98.2659 17.3676 98.4459C17.0676 98.6259 16.8756 98.7399 16.7916 98.7879C16.7196 98.8359 16.5516 98.9439 16.2876 99.1119C16.0356 99.2679 15.8676 99.3819 15.7836 99.4539C15.7116 99.5259 15.5796 99.6399 15.3876 99.7959C15.2076 99.9519 15.0816 100.084 15.0096 100.192C14.9496 100.3 14.8656 100.438 14.7576 100.606C14.6616 100.762 14.5956 100.918 14.5596 101.074C14.5236 101.23 14.5056 101.398 14.5056 101.578L21.4716 101.56V103H12.8496V102.28C12.8496 101.608 12.9576 101.002 13.1736 100.462C13.3896 99.9099 13.6956 99.4419 14.0916 99.0579C14.4996 98.6619 14.9016 98.3319 15.2976 98.0679C15.6936 97.7919 16.1556 97.4979 16.6836 97.1859C16.8036 97.1259 16.8936 97.0779 16.9536 97.0419C18.0456 96.4059 18.7596 95.9199 19.0956 95.5839C19.6116 95.0559 19.8696 94.4619 19.8696 93.8019C19.8696 93.2019 19.6236 92.7459 19.1316 92.4339C18.6516 92.1099 17.9676 91.9479 17.0796 91.9479C15.7836 91.9479 14.5176 92.3799 13.2816 93.2439V91.7319Z" fill="#37376D"/>
<path d="M28.568 90.7599H35.912V92.1999H29.99L29.774 95.6559C30.422 95.4759 31.118 95.3859 31.862 95.3859C32.474 95.3859 33.044 95.4579 33.572 95.6019C34.1 95.7339 34.586 95.9499 35.03 96.2499C35.486 96.5379 35.846 96.9459 36.11 97.4739C36.374 97.9899 36.506 98.6019 36.506 99.3099C36.506 100.522 36.056 101.476 35.156 102.172C34.268 102.868 33.134 103.216 31.754 103.216C30.266 103.216 28.958 102.94 27.83 102.388V100.948C28.91 101.524 30.158 101.812 31.574 101.812C32.606 101.812 33.428 101.596 34.04 101.164C34.664 100.732 34.976 100.114 34.976 99.3099C34.976 97.6059 33.764 96.7539 31.34 96.7539C30.284 96.7539 29.228 96.9459 28.172 97.3299L28.568 90.7599Z" fill="#37376D"/>
<path d="M39.7658 96.5379C40.9298 95.7579 42.2078 95.3679 43.5998 95.3679C44.7158 95.3679 45.6938 95.7099 46.5338 96.3939C47.3738 97.0659 47.7938 98.0019 47.7938 99.2019C47.7938 100.462 47.3738 101.446 46.5338 102.154C45.7058 102.862 44.6618 103.216 43.4018 103.216C41.6738 103.216 40.3778 102.682 39.5138 101.614C38.6618 100.534 38.2358 99.0219 38.2358 97.0779C38.2358 94.9179 38.7458 93.2919 39.7658 92.1999C40.7978 91.0959 42.1418 90.5439 43.7978 90.5439C44.8658 90.5439 45.8558 90.7779 46.7678 91.2459V92.6859C45.8798 92.2179 44.9018 91.9839 43.8338 91.9839C42.7058 91.9839 41.7638 92.3499 41.0078 93.0819C40.2638 93.8019 39.8498 94.9539 39.7658 96.5379ZM39.7838 98.0499C40.0118 100.558 41.1818 101.812 43.2938 101.812C44.1818 101.812 44.8958 101.608 45.4358 101.2C45.9878 100.792 46.2638 100.15 46.2638 99.2739C46.2638 98.3859 45.9818 97.7499 45.4178 97.3659C44.8538 96.9699 44.1218 96.7719 43.2218 96.7719C41.8898 96.7719 40.7438 97.1979 39.7838 98.0499Z" fill="#37376D"/>
<path d="M50.1715 90.7599H57.5155V92.1999H51.5935L51.3775 95.6559C52.0255 95.4759 52.7215 95.3859 53.4655 95.3859C54.0775 95.3859 54.6475 95.4579 55.1755 95.6019C55.7035 95.7339 56.1895 95.9499 56.6335 96.2499C57.0895 96.5379 57.4495 96.9459 57.7135 97.4739C57.9775 97.9899 58.1095 98.6019 58.1095 99.3099C58.1095 100.522 57.6595 101.476 56.7595 102.172C55.8715 102.868 54.7375 103.216 53.3575 103.216C51.8695 103.216 50.5615 102.94 49.4335 102.388V100.948C50.5135 101.524 51.7615 101.812 53.1775 101.812C54.2095 101.812 55.0315 101.596 55.6435 101.164C56.2675 100.732 56.5795 100.114 56.5795 99.3099C56.5795 97.6059 55.3675 96.7539 52.9435 96.7539C51.8875 96.7539 50.8315 96.9459 49.7755 97.3299L50.1715 90.7599Z" fill="#37376D"/>
<path d="M66.1577 103H64.7177V94.3599H71.0357V95.6919H66.1577V103Z" fill="#37376D"/>
<path d="M73.9766 95.7999C74.9486 94.6959 76.1126 94.1439 77.4686 94.1439C78.7046 94.1439 79.7306 94.5759 80.5466 95.4399C81.3746 96.3039 81.7886 97.3839 81.7886 98.6799C81.7886 99.9759 81.3746 101.056 80.5466 101.92C79.7306 102.784 78.7046 103.216 77.4686 103.216C76.1006 103.216 74.9846 102.712 74.1206 101.704V106.96H72.6806V94.3599H73.9766V95.7999ZM79.4666 101.002C80.0546 100.414 80.3486 99.6399 80.3486 98.6799C80.3486 97.7199 80.0546 96.9459 79.4666 96.3579C78.8906 95.7699 78.1706 95.4759 77.3066 95.4759C76.5746 95.4759 75.9266 95.6799 75.3626 96.0879C74.7986 96.4959 74.3846 96.9999 74.1206 97.5999V99.7599C74.3846 100.36 74.7986 100.864 75.3626 101.272C75.9266 101.68 76.5746 101.884 77.3066 101.884C78.1706 101.884 78.8906 101.59 79.4666 101.002Z" fill="#37376D"/>
<path d="M85.3003 103H83.8603V94.3599H85.3003V98.0139H90.3043V94.3599H91.7443V103H90.3043V99.3459H85.3003V103Z" fill="#37376D"/>
<path d="M95.6852 101.578C95.8652 101.734 95.9552 101.956 95.9552 102.244C95.9552 102.532 95.8652 102.76 95.6852 102.928C95.5052 103.084 95.2832 103.162 95.0192 103.162C94.7552 103.162 94.5272 103.084 94.3352 102.928C94.1552 102.76 94.0652 102.532 94.0652 102.244C94.0652 101.956 94.1552 101.734 94.3352 101.578C94.5272 101.422 94.7552 101.344 95.0192 101.344C95.2832 101.344 95.5052 101.422 95.6852 101.578Z" fill="#37376D"/>
<path d="M19.4178 132.874C19.4178 133.498 19.2498 134.062 18.9138 134.566C18.5898 135.058 18.1638 135.394 17.6358 135.574C18.2598 135.766 18.7938 136.12 19.2378 136.636C19.6938 137.14 19.9218 137.818 19.9218 138.67C19.9218 139.81 19.4958 140.686 18.6438 141.298C17.8038 141.91 16.7358 142.216 15.4398 142.216C13.7958 142.216 12.3738 141.946 11.1738 141.406V139.912C12.3378 140.512 13.7178 140.806 15.3138 140.794C17.4138 140.794 18.4638 140.062 18.4638 138.598C18.4638 137.134 17.4678 136.402 15.4758 136.402H13.6038V134.962L15.3138 134.98C16.1778 134.98 16.8318 134.8 17.2758 134.44C17.7318 134.068 17.9598 133.588 17.9598 133C17.9598 132.364 17.7078 131.866 17.2038 131.506C16.6998 131.134 15.9858 130.948 15.0618 130.948C13.7898 130.948 12.5658 131.26 11.3898 131.884V130.408C12.5178 129.832 13.8078 129.544 15.2598 129.544C16.5078 129.544 17.5098 129.85 18.2658 130.462C19.0338 131.074 19.4178 131.878 19.4178 132.874Z" fill="#37376D"/>
<path d="M32.4127 129.76H34.0507V137.878H36.3547V139.282H34.0507V142H32.5567V139.282H25.7347V137.932L32.4127 129.76ZM32.5567 137.878V131.794L27.5887 137.878H32.5567Z" fill="#37376D"/>
<path d="M39.3523 135.538C40.5163 134.758 41.7943 134.368 43.1863 134.368C44.3023 134.368 45.2803 134.71 46.1203 135.394C46.9603 136.066 47.3803 137.002 47.3803 138.202C47.3803 139.462 46.9603 140.446 46.1203 141.154C45.2923 141.862 44.2483 142.216 42.9883 142.216C41.2603 142.216 39.9643 141.682 39.1003 140.614C38.2483 139.534 37.8223 138.022 37.8223 136.078C37.8223 133.918 38.3323 132.292 39.3523 131.2C40.3843 130.096 41.7283 129.544 43.3843 129.544C44.4523 129.544 45.4423 129.778 46.3543 130.246V131.686C45.4663 131.218 44.4883 130.984 43.4203 130.984C42.2923 130.984 41.3503 131.35 40.5943 132.082C39.8503 132.802 39.4363 133.954 39.3523 135.538ZM39.3703 137.05C39.5983 139.558 40.7683 140.812 42.8803 140.812C43.7683 140.812 44.4823 140.608 45.0223 140.2C45.5743 139.792 45.8503 139.15 45.8503 138.274C45.8503 137.386 45.5683 136.75 45.0043 136.366C44.4403 135.97 43.7083 135.772 42.8083 135.772C41.4763 135.772 40.3303 136.198 39.3703 137.05Z" fill="#37376D"/>
<path d="M50.352 140.47C49.44 139.306 48.984 137.776 48.984 135.88C48.984 133.984 49.44 132.454 50.352 131.29C51.264 130.126 52.608 129.544 54.384 129.544C56.172 129.544 57.522 130.126 58.434 131.29C59.346 132.442 59.802 133.972 59.802 135.88C59.802 137.788 59.346 139.324 58.434 140.488C57.522 141.64 56.172 142.216 54.384 142.216C52.608 142.216 51.264 141.634 50.352 140.47ZM57.3 139.516C57.948 138.664 58.272 137.452 58.272 135.88C58.272 134.308 57.948 133.102 57.3 132.262C56.664 131.41 55.692 130.984 54.384 130.984C53.076 130.984 52.104 131.41 51.468 132.262C50.832 133.102 50.514 134.308 50.514 135.88C50.514 137.452 50.832 138.664 51.468 139.516C52.104 140.356 53.076 140.776 54.384 140.776C55.692 140.776 56.664 140.356 57.3 139.516Z" fill="#37376D"/>
<path d="M67.9766 142H66.5366V133.36H72.8546V134.692H67.9766V142Z" fill="#37376D"/>
<path d="M75.7955 134.8C76.7675 133.696 77.9315 133.144 79.2875 133.144C80.5235 133.144 81.5495 133.576 82.3655 134.44C83.1935 135.304 83.6075 136.384 83.6075 137.68C83.6075 138.976 83.1935 140.056 82.3655 140.92C81.5495 141.784 80.5235 142.216 79.2875 142.216C77.9195 142.216 76.8035 141.712 75.9395 140.704V145.96H74.4995V133.36H75.7955V134.8ZM81.2855 140.002C81.8735 139.414 82.1675 138.64 82.1675 137.68C82.1675 136.72 81.8735 135.946 81.2855 135.358C80.7095 134.77 79.9895 134.476 79.1255 134.476C78.3935 134.476 77.7455 134.68 77.1815 135.088C76.6175 135.496 76.2035 136 75.9395 136.6V138.76C76.2035 139.36 76.6175 139.864 77.1815 140.272C77.7455 140.68 78.3935 140.884 79.1255 140.884C79.9895 140.884 80.7095 140.59 81.2855 140.002Z" fill="#37376D"/>
<path d="M87.1192 142H85.6792V133.36H87.1192V137.014H92.1232V133.36H93.5632V142H92.1232V138.346H87.1192V142Z" fill="#37376D"/>
<path d="M97.5041 140.578C97.6841 140.734 97.7741 140.956 97.7741 141.244C97.7741 141.532 97.6841 141.76 97.5041 141.928C97.3241 142.084 97.1021 142.162 96.8381 142.162C96.5741 142.162 96.3461 142.084 96.1541 141.928C95.9741 141.76 95.8841 141.532 95.8841 141.244C95.8841 140.956 95.9741 140.734 96.1541 140.578C96.3461 140.422 96.5741 140.344 96.8381 140.344C97.1021 140.344 97.3241 140.422 97.5041 140.578Z" fill="#37376D"/>
<path d="M17.2825 168.76H18.3985V179.56H20.6845V181H14.3125V179.56H16.8865V170.362L14.3125 171.334V169.894L17.2825 168.76Z" fill="#37376D"/>
<path d="M27.2673 168.76H34.6113V170.2H28.6893L28.4733 173.656C29.1213 173.476 29.8173 173.386 30.5613 173.386C31.1733 173.386 31.7433 173.458 32.2713 173.602C32.7993 173.734 33.2853 173.95 33.7293 174.25C34.1853 174.538 34.5453 174.946 34.8093 175.474C35.0733 175.99 35.2053 176.602 35.2053 177.31C35.2053 178.522 34.7553 179.476 33.8553 180.172C32.9673 180.868 31.8333 181.216 30.4533 181.216C28.9653 181.216 27.6573 180.94 26.5293 180.388V178.948C27.6093 179.524 28.8573 179.812 30.2733 179.812C31.3053 179.812 32.1273 179.596 32.7393 179.164C33.3633 178.732 33.6753 178.114 33.6753 177.31C33.6753 175.606 32.4633 174.754 30.0393 174.754C28.9833 174.754 27.9273 174.946 26.8713 175.33L27.2673 168.76Z" fill="#37376D"/>
<path d="M38.4651 174.538C39.6291 173.758 40.9071 173.368 42.2991 173.368C43.4151 173.368 44.3931 173.71 45.2331 174.394C46.0731 175.066 46.4931 176.002 46.4931 177.202C46.4931 178.462 46.0731 179.446 45.2331 180.154C44.4051 180.862 43.3611 181.216 42.1011 181.216C40.3731 181.216 39.0771 180.682 38.2131 179.614C37.3611 178.534 36.9351 177.022 36.9351 175.078C36.9351 172.918 37.4451 171.292 38.4651 170.2C39.4971 169.096 40.8411 168.544 42.4971 168.544C43.5651 168.544 44.5551 168.778 45.4671 169.246V170.686C44.5791 170.218 43.6011 169.984 42.5331 169.984C41.4051 169.984 40.4631 170.35 39.7071 171.082C38.9631 171.802 38.5491 172.954 38.4651 174.538ZM38.4831 176.05C38.7111 178.558 39.8811 179.812 41.9931 179.812C42.8811 179.812 43.5951 179.608 44.1351 179.2C44.6871 178.792 44.9631 178.15 44.9631 177.274C44.9631 176.386 44.6811 175.75 44.1171 175.366C43.5531 174.97 42.8211 174.772 41.9211 174.772C40.5891 174.772 39.4431 175.198 38.4831 176.05Z" fill="#37376D"/>
<path d="M48.8708 168.76H56.2148V170.2H50.2928L50.0768 173.656C50.7248 173.476 51.4208 173.386 52.1648 173.386C52.7768 173.386 53.3468 173.458 53.8748 173.602C54.4028 173.734 54.8888 173.95 55.3328 174.25C55.7888 174.538 56.1488 174.946 56.4128 175.474C56.6768 175.99 56.8088 176.602 56.8088 177.31C56.8088 178.522 56.3588 179.476 55.4588 180.172C54.5708 180.868 53.4368 181.216 52.0568 181.216C50.5688 181.216 49.2608 180.94 48.1328 180.388V178.948C49.2128 179.524 50.4608 179.812 51.8768 179.812C52.9088 179.812 53.7308 179.596 54.3428 179.164C54.9668 178.732 55.2788 178.114 55.2788 177.31C55.2788 175.606 54.0668 174.754 51.6428 174.754C50.5868 174.754 49.5308 174.946 48.4748 175.33L48.8708 168.76Z" fill="#37376D"/>
<path d="M64.8571 181H63.4171V172.36H69.7351V173.692H64.8571V181Z" fill="#37376D"/>
<path d="M72.676 173.8C73.648 172.696 74.812 172.144 76.168 172.144C77.404 172.144 78.4299 172.576 79.2459 173.44C80.074 174.304 80.488 175.384 80.488 176.68C80.488 177.976 80.074 179.056 79.2459 179.92C78.4299 180.784 77.404 181.216 76.168 181.216C74.8 181.216 73.684 180.712 72.82 179.704V184.96H71.38V172.36H72.676V173.8ZM78.166 179.002C78.754 178.414 79.048 177.64 79.048 176.68C79.048 175.72 78.754 174.946 78.166 174.358C77.59 173.77 76.87 173.476 76.006 173.476C75.274 173.476 74.626 173.68 74.062 174.088C73.498 174.496 73.084 175 72.82 175.6V177.76C73.084 178.36 73.498 178.864 74.062 179.272C74.626 179.68 75.274 179.884 76.006 179.884C76.87 179.884 77.59 179.59 78.166 179.002Z" fill="#37376D"/>
<path d="M83.9996 181H82.5596V172.36H83.9996V176.014H89.0036V172.36H90.4436V181H89.0036V177.346H83.9996V181Z" fill="#37376D"/>
<path d="M94.3845 179.578C94.5645 179.734 94.6545 179.956 94.6545 180.244C94.6545 180.532 94.5645 180.76 94.3845 180.928C94.2045 181.084 93.9825 181.162 93.7185 181.162C93.4545 181.162 93.2265 181.084 93.0345 180.928C92.8545 180.76 92.7645 180.532 92.7645 180.244C92.7645 179.956 92.8545 179.734 93.0345 179.578C93.2265 179.422 93.4545 179.344 93.7185 179.344C93.9825 179.344 94.2045 179.422 94.3845 179.578Z" fill="#37376D"/>
<path d="M17.2825 207.76H18.3985V218.56H20.6845V220H14.3125V218.56H16.8865V209.362L14.3125 210.334V208.894L17.2825 207.76Z" fill="#37376D"/>
<path d="M27.2673 207.76H34.6113V209.2H28.6893L28.4733 212.656C29.1213 212.476 29.8173 212.386 30.5613 212.386C31.1733 212.386 31.7433 212.458 32.2713 212.602C32.7993 212.734 33.2853 212.95 33.7293 213.25C34.1853 213.538 34.5453 213.946 34.8093 214.474C35.0733 214.99 35.2053 215.602 35.2053 216.31C35.2053 217.522 34.7553 218.476 33.8553 219.172C32.9673 219.868 31.8333 220.216 30.4533 220.216C28.9653 220.216 27.6573 219.94 26.5293 219.388V217.948C27.6093 218.524 28.8573 218.812 30.2733 218.812C31.3053 218.812 32.1273 218.596 32.7393 218.164C33.3633 217.732 33.6753 217.114 33.6753 216.31C33.6753 214.606 32.4633 213.754 30.0393 213.754C28.9833 213.754 27.9273 213.946 26.8713 214.33L27.2673 207.76Z" fill="#37376D"/>
<path d="M38.4651 213.538C39.6291 212.758 40.9071 212.368 42.2991 212.368C43.4151 212.368 44.3931 212.71 45.2331 213.394C46.0731 214.066 46.4931 215.002 46.4931 216.202C46.4931 217.462 46.0731 218.446 45.2331 219.154C44.4051 219.862 43.3611 220.216 42.1011 220.216C40.3731 220.216 39.0771 219.682 38.2131 218.614C37.3611 217.534 36.9351 216.022 36.9351 214.078C36.9351 211.918 37.4451 210.292 38.4651 209.2C39.4971 208.096 40.8411 207.544 42.4971 207.544C43.5651 207.544 44.5551 207.778 45.4671 208.246V209.686C44.5791 209.218 43.6011 208.984 42.5331 208.984C41.4051 208.984 40.4631 209.35 39.7071 210.082C38.9631 210.802 38.5491 211.954 38.4651 213.538ZM38.4831 215.05C38.7111 217.558 39.8811 218.812 41.9931 218.812C42.8811 218.812 43.5951 218.608 44.1351 218.2C44.6871 217.792 44.9631 217.15 44.9631 216.274C44.9631 215.386 44.6811 214.75 44.1171 214.366C43.5531 213.97 42.8211 213.772 41.9211 213.772C40.5891 213.772 39.4431 214.198 38.4831 215.05Z" fill="#37376D"/>
<path d="M48.8708 207.76H56.2148V209.2H50.2928L50.0768 212.656C50.7248 212.476 51.4208 212.386 52.1648 212.386C52.7768 212.386 53.3468 212.458 53.8748 212.602C54.4028 212.734 54.8888 212.95 55.3328 213.25C55.7888 213.538 56.1488 213.946 56.4128 214.474C56.6768 214.99 56.8088 215.602 56.8088 216.31C56.8088 217.522 56.3588 218.476 55.4588 219.172C54.5708 219.868 53.4368 220.216 52.0568 220.216C50.5688 220.216 49.2608 219.94 48.1328 219.388V217.948C49.2128 218.524 50.4608 218.812 51.8768 218.812C52.9088 218.812 53.7308 218.596 54.3428 218.164C54.9668 217.732 55.2788 217.114 55.2788 216.31C55.2788 214.606 54.0668 213.754 51.6428 213.754C50.5868 213.754 49.5308 213.946 48.4748 214.33L48.8708 207.76Z" fill="#37376D"/>
<path d="M64.8571 220H63.4171V211.36H69.7351V212.692H64.8571V220Z" fill="#37376D"/>
<path d="M72.676 212.8C73.648 211.696 74.812 211.144 76.168 211.144C77.404 211.144 78.4299 211.576 79.2459 212.44C80.074 213.304 80.488 214.384 80.488 215.68C80.488 216.976 80.074 218.056 79.2459 218.92C78.4299 219.784 77.404 220.216 76.168 220.216C74.8 220.216 73.684 219.712 72.82 218.704V223.96H71.38V211.36H72.676V212.8ZM78.166 218.002C78.754 217.414 79.048 216.64 79.048 215.68C79.048 214.72 78.754 213.946 78.166 213.358C77.59 212.77 76.87 212.476 76.006 212.476C75.274 212.476 74.626 212.68 74.062 213.088C73.498 213.496 73.084 214 72.82 214.6V216.76C73.084 217.36 73.498 217.864 74.062 218.272C74.626 218.68 75.274 218.884 76.006 218.884C76.87 218.884 77.59 218.59 78.166 218.002Z" fill="#37376D"/>
<path d="M83.9996 220H82.5596V211.36H83.9996V215.014H89.0036V211.36H90.4436V220H89.0036V216.346H83.9996V220Z" fill="#37376D"/>
<path d="M94.3845 218.578C94.5645 218.734 94.6545 218.956 94.6545 219.244C94.6545 219.532 94.5645 219.76 94.3845 219.928C94.2045 220.084 93.9825 220.162 93.7185 220.162C93.4545 220.162 93.2265 220.084 93.0345 219.928C92.8545 219.76 92.7645 219.532 92.7645 219.244C92.7645 218.956 92.8545 218.734 93.0345 218.578C93.2265 218.422 93.4545 218.344 93.7185 218.344C93.9825 218.344 94.2045 218.422 94.3845 218.578Z" fill="#37376D"/>
<path d="M124.113 17.6378H127.263V19.7618H124.113V22.9118H121.989V19.7618H118.839V17.6378H121.989V14.4878H124.113V17.6378Z" fill="#0FA7F0"/>
<path d="M129.046 13.8038C130.258 12.9398 131.662 12.5078 133.258 12.5078C134.566 12.5078 135.634 12.8138 136.462 13.4258C137.302 14.0378 137.722 14.9378 137.722 16.1258C137.722 17.0498 137.422 17.8418 136.822 18.5018C136.234 19.1498 135.43 19.7738 134.41 20.3738C133.21 21.0818 132.472 21.5618 132.196 21.8138C131.872 22.1258 131.704 22.4198 131.692 22.6958L137.812 22.6778V24.9998H128.632V23.7938C128.632 23.1338 128.728 22.5398 128.92 22.0118C129.124 21.4838 129.448 21.0098 129.892 20.5898C130.348 20.1698 130.726 19.8578 131.026 19.6538C131.326 19.4378 131.782 19.1498 132.394 18.7898C132.43 18.7658 132.46 18.7478 132.484 18.7358C132.508 18.7238 132.538 18.7058 132.574 18.6818C132.61 18.6578 132.64 18.6398 132.664 18.6278C132.736 18.5798 132.886 18.4958 133.114 18.3758C133.354 18.2438 133.51 18.1538 133.582 18.1058C133.654 18.0578 133.78 17.9798 133.96 17.8718C134.14 17.7518 134.266 17.6618 134.338 17.6018C134.41 17.5298 134.5 17.4338 134.608 17.3138C134.728 17.1938 134.812 17.0858 134.86 16.9898C134.908 16.8938 134.95 16.7798 134.986 16.6478C135.022 16.5158 135.04 16.3778 135.04 16.2338C135.04 15.7898 134.86 15.4538 134.5 15.2258C134.14 14.9858 133.642 14.8658 133.006 14.8658C131.638 14.8658 130.318 15.3518 129.046 16.3238V13.8038Z" fill="#0FA7F0"/>
<path d="M140.236 12.7418H148.012V15.0638L142.666 15.0458L142.504 17.4398C143.08 17.3198 143.608 17.2598 144.088 17.2598C145.408 17.2598 146.482 17.5778 147.31 18.2138C148.15 18.8498 148.57 19.8338 148.57 21.1658C148.57 22.5098 148.072 23.5298 147.076 24.2258C146.08 24.9098 144.85 25.2518 143.386 25.2518C141.898 25.2518 140.584 24.9758 139.444 24.4238V21.9218C140.464 22.5698 141.676 22.8938 143.08 22.8938C143.92 22.8938 144.592 22.7438 145.096 22.4438C145.612 22.1438 145.87 21.7058 145.87 21.1298C145.87 19.9298 144.874 19.3298 142.882 19.3298C141.802 19.3298 140.776 19.5038 139.804 19.8518L140.236 12.7418Z" fill="#0FA7F0"/>
<path d="M154.778 26.0798H152.978L160.34 11.3198H162.14L154.778 26.0798ZM155.336 12.9758C155.96 13.5158 156.272 14.2718 156.272 15.2438C156.272 16.2158 155.96 16.9778 155.336 17.5298C154.712 18.0698 153.944 18.3398 153.032 18.3398C152.108 18.3398 151.328 18.0698 150.692 17.5298C150.068 16.9778 149.756 16.2158 149.756 15.2438C149.756 14.2718 150.068 13.5158 150.692 12.9758C151.328 12.4238 152.108 12.1478 153.032 12.1478C153.944 12.1478 154.712 12.4238 155.336 12.9758ZM152.078 14.3618C151.874 14.6018 151.772 14.8958 151.772 15.2438C151.772 15.5918 151.874 15.8858 152.078 16.1258C152.294 16.3658 152.612 16.4858 153.032 16.4858C153.428 16.4858 153.728 16.3658 153.932 16.1258C154.148 15.8858 154.256 15.5918 154.256 15.2438C154.256 14.8958 154.148 14.6018 153.932 14.3618C153.728 14.1218 153.428 14.0018 153.032 14.0018C152.612 14.0018 152.294 14.1218 152.078 14.3618ZM164.354 19.8878C164.978 20.4278 165.29 21.1838 165.29 22.1558C165.29 23.1278 164.978 23.8898 164.354 24.4418C163.73 24.9818 162.962 25.2518 162.05 25.2518C161.126 25.2518 160.346 24.9818 159.71 24.4418C159.086 23.8898 158.774 23.1278 158.774 22.1558C158.774 21.1838 159.086 20.4278 159.71 19.8878C160.346 19.3358 161.126 19.0598 162.05 19.0598C162.962 19.0598 163.73 19.3358 164.354 19.8878ZM161.096 21.2738C160.892 21.5138 160.79 21.8078 160.79 22.1558C160.79 22.5038 160.892 22.7978 161.096 23.0378C161.312 23.2778 161.63 23.3978 162.05 23.3978C162.446 23.3978 162.746 23.2778 162.95 23.0378C163.166 22.7978 163.274 22.5038 163.274 22.1558C163.274 21.8078 163.166 21.5138 162.95 21.2738C162.746 21.0338 162.446 20.9138 162.05 20.9138C161.63 20.9138 161.312 21.0338 161.096 21.2738Z" fill="#0FA7F0"/>
<path d="M125.326 95.6378H128.476V97.7618H125.326V100.912H123.202V97.7618H120.052V95.6378H123.202V92.4878H125.326V95.6378Z" fill="#0FA7F0"/>
<path d="M133.012 90.7598H134.974V100.678H137.026V103H130.042V100.678H132.346V93.4598L130.042 94.3238V91.8938L133.012 90.7598Z" fill="#0FA7F0"/>
<path d="M139.023 90.7418H146.799V93.0638L141.453 93.0458L141.291 95.4398C141.867 95.3198 142.395 95.2598 142.875 95.2598C144.195 95.2598 145.269 95.5778 146.097 96.2138C146.937 96.8498 147.357 97.8338 147.357 99.1658C147.357 100.51 146.859 101.53 145.863 102.226C144.867 102.91 143.637 103.252 142.173 103.252C140.685 103.252 139.371 102.976 138.231 102.424V99.9218C139.251 100.57 140.463 100.894 141.867 100.894C142.707 100.894 143.379 100.744 143.883 100.444C144.399 100.144 144.657 99.7058 144.657 99.1298C144.657 97.9298 143.661 97.3298 141.669 97.3298C140.589 97.3298 139.563 97.5038 138.591 97.8518L139.023 90.7418Z" fill="#0FA7F0"/>
<path d="M153.565 104.08H151.765L159.127 89.3198H160.927L153.565 104.08ZM154.123 90.9758C154.747 91.5158 155.059 92.2718 155.059 93.2438C155.059 94.2158 154.747 94.9778 154.123 95.5298C153.499 96.0698 152.731 96.3398 151.819 96.3398C150.895 96.3398 150.115 96.0698 149.479 95.5298C148.855 94.9778 148.543 94.2158 148.543 93.2438C148.543 92.2718 148.855 91.5158 149.479 90.9758C150.115 90.4238 150.895 90.1478 151.819 90.1478C152.731 90.1478 153.499 90.4238 154.123 90.9758ZM150.865 92.3618C150.661 92.6018 150.559 92.8958 150.559 93.2438C150.559 93.5918 150.661 93.8858 150.865 94.1258C151.081 94.3658 151.399 94.4858 151.819 94.4858C152.215 94.4858 152.515 94.3658 152.719 94.1258C152.935 93.8858 153.043 93.5918 153.043 93.2438C153.043 92.8958 152.935 92.6018 152.719 92.3618C152.515 92.1218 152.215 92.0018 151.819 92.0018C151.399 92.0018 151.081 92.1218 150.865 92.3618ZM163.141 97.8878C163.765 98.4278 164.077 99.1838 164.077 100.156C164.077 101.128 163.765 101.89 163.141 102.442C162.517 102.982 161.749 103.252 160.837 103.252C159.913 103.252 159.133 102.982 158.497 102.442C157.873 101.89 157.561 101.128 157.561 100.156C157.561 99.1838 157.873 98.4278 158.497 97.8878C159.133 97.3358 159.913 97.0598 160.837 97.0598C161.749 97.0598 162.517 97.3358 163.141 97.8878ZM159.883 99.2738C159.679 99.5138 159.577 99.8078 159.577 100.156C159.577 100.504 159.679 100.798 159.883 101.038C160.099 101.278 160.417 101.398 160.837 101.398C161.233 101.398 161.533 101.278 161.737 101.038C161.953 100.798 162.061 100.504 162.061 100.156C162.061 99.8078 161.953 99.5138 161.737 99.2738C161.533 99.0338 161.233 98.9138 160.837 98.9138C160.417 98.9138 160.099 99.0338 159.883 99.2738Z" fill="#0FA7F0"/>
<path d="M123.181 134.638H126.331V136.762H123.181V139.912H121.057V136.762H117.907V134.638H121.057V131.488H123.181V134.638Z" fill="#0FA7F0"/>
<path d="M136.22 132.892C136.22 133.516 136.052 134.062 135.716 134.53C135.392 134.986 134.942 135.316 134.366 135.52C135.05 135.724 135.614 136.09 136.058 136.618C136.502 137.134 136.724 137.812 136.724 138.652C136.724 139.276 136.586 139.828 136.31 140.308C136.046 140.776 135.68 141.148 135.212 141.424C134.744 141.7 134.222 141.904 133.646 142.036C133.082 142.18 132.476 142.252 131.828 142.252C130.328 142.252 128.912 141.976 127.58 141.424V138.922C128.756 139.582 130.1 139.9 131.612 139.876C132.368 139.876 132.98 139.744 133.448 139.48C133.916 139.216 134.15 138.814 134.15 138.274C134.15 137.326 133.442 136.852 132.026 136.852H130.01L130.028 134.548L131.72 134.566C132.332 134.566 132.806 134.458 133.142 134.242C133.49 134.014 133.664 133.69 133.664 133.27C133.664 132.826 133.472 132.484 133.088 132.244C132.704 131.992 132.146 131.866 131.414 131.866C130.202 131.866 128.996 132.232 127.796 132.964V130.462C128.972 129.826 130.304 129.508 131.792 129.508C133.112 129.508 134.18 129.802 134.996 130.39C135.812 130.978 136.22 131.812 136.22 132.892Z" fill="#0FA7F0"/>
<path d="M139.616 140.488C138.692 139.3 138.23 137.764 138.23 135.88C138.23 133.996 138.692 132.466 139.616 131.29C140.552 130.102 141.95 129.508 143.81 129.508C145.67 129.508 147.062 130.102 147.986 131.29C148.922 132.466 149.39 133.996 149.39 135.88C149.39 137.764 148.922 139.3 147.986 140.488C147.062 141.664 145.67 142.252 143.81 142.252C141.95 142.252 140.552 141.664 139.616 140.488ZM143.81 139.876C145.73 139.876 146.69 138.544 146.69 135.88C146.69 133.216 145.73 131.884 143.81 131.884C141.89 131.884 140.93 133.216 140.93 135.88C140.93 138.544 141.89 139.876 143.81 139.876Z" fill="#0FA7F0"/>
<path d="M155.709 143.08H153.909L161.271 128.32H163.071L155.709 143.08ZM156.267 129.976C156.891 130.516 157.203 131.272 157.203 132.244C157.203 133.216 156.891 133.978 156.267 134.53C155.643 135.07 154.875 135.34 153.963 135.34C153.039 135.34 152.259 135.07 151.623 134.53C150.999 133.978 150.687 133.216 150.687 132.244C150.687 131.272 150.999 130.516 151.623 129.976C152.259 129.424 153.039 129.148 153.963 129.148C154.875 129.148 155.643 129.424 156.267 129.976ZM153.009 131.362C152.805 131.602 152.703 131.896 152.703 132.244C152.703 132.592 152.805 132.886 153.009 133.126C153.225 133.366 153.543 133.486 153.963 133.486C154.359 133.486 154.659 133.366 154.863 133.126C155.079 132.886 155.187 132.592 155.187 132.244C155.187 131.896 155.079 131.602 154.863 131.362C154.659 131.122 154.359 131.002 153.963 131.002C153.543 131.002 153.225 131.122 153.009 131.362ZM165.285 136.888C165.909 137.428 166.221 138.184 166.221 139.156C166.221 140.128 165.909 140.89 165.285 141.442C164.661 141.982 163.893 142.252 162.981 142.252C162.057 142.252 161.277 141.982 160.641 141.442C160.017 140.89 159.705 140.128 159.705 139.156C159.705 138.184 160.017 137.428 160.641 136.888C161.277 136.336 162.057 136.06 162.981 136.06C163.893 136.06 164.661 136.336 165.285 136.888ZM162.027 138.274C161.823 138.514 161.721 138.808 161.721 139.156C161.721 139.504 161.823 139.798 162.027 140.038C162.243 140.278 162.561 140.398 162.981 140.398C163.377 140.398 163.677 140.278 163.881 140.038C164.097 139.798 164.205 139.504 164.205 139.156C164.205 138.808 164.097 138.514 163.881 138.274C163.677 138.034 163.377 137.914 162.981 137.914C162.561 137.914 162.243 138.034 162.027 138.274Z" fill="#0FA7F0"/>
<path d="M120.305 175.564H127.001V177.67H120.305V175.564Z" fill="#F28100"/>
<path d="M128.921 169.804C130.133 168.94 131.537 168.508 133.133 168.508C134.441 168.508 135.509 168.814 136.337 169.426C137.177 170.038 137.597 170.938 137.597 172.126C137.597 173.05 137.297 173.842 136.697 174.502C136.109 175.15 135.305 175.774 134.285 176.374C133.085 177.082 132.347 177.562 132.071 177.814C131.747 178.126 131.579 178.42 131.567 178.696L137.687 178.678V181H128.507V179.794C128.507 179.134 128.603 178.54 128.795 178.012C128.999 177.484 129.323 177.01 129.767 176.59C130.223 176.17 130.601 175.858 130.901 175.654C131.201 175.438 131.657 175.15 132.269 174.79C132.305 174.766 132.335 174.748 132.359 174.736C132.383 174.724 132.413 174.706 132.449 174.682C132.485 174.658 132.515 174.64 132.539 174.628C132.611 174.58 132.761 174.496 132.989 174.376C133.229 174.244 133.385 174.154 133.457 174.106C133.529 174.058 133.655 173.98 133.835 173.872C134.015 173.752 134.141 173.662 134.213 173.602C134.285 173.53 134.375 173.434 134.483 173.314C134.603 173.194 134.687 173.086 134.735 172.99C134.783 172.894 134.825 172.78 134.861 172.648C134.897 172.516 134.915 172.378 134.915 172.234C134.915 171.79 134.735 171.454 134.375 171.226C134.015 170.986 133.517 170.866 132.881 170.866C131.513 170.866 130.193 171.352 128.921 172.324V169.804Z" fill="#F28100"/>
<path d="M140.112 168.742H147.888V171.064L142.542 171.046L142.38 173.44C142.956 173.32 143.484 173.26 143.964 173.26C145.284 173.26 146.358 173.578 147.186 174.214C148.026 174.85 148.446 175.834 148.446 177.166C148.446 178.51 147.948 179.53 146.952 180.226C145.956 180.91 144.726 181.252 143.262 181.252C141.774 181.252 140.46 180.976 139.32 180.424V177.922C140.34 178.57 141.552 178.894 142.956 178.894C143.796 178.894 144.468 178.744 144.972 178.444C145.488 178.144 145.746 177.706 145.746 177.13C145.746 175.93 144.75 175.33 142.758 175.33C141.678 175.33 140.652 175.504 139.68 175.852L140.112 168.742Z" fill="#F28100"/>
<path d="M154.654 182.08H152.854L160.216 167.32H162.016L154.654 182.08ZM155.212 168.976C155.836 169.516 156.148 170.272 156.148 171.244C156.148 172.216 155.836 172.978 155.212 173.53C154.588 174.07 153.82 174.34 152.908 174.34C151.984 174.34 151.204 174.07 150.568 173.53C149.944 172.978 149.632 172.216 149.632 171.244C149.632 170.272 149.944 169.516 150.568 168.976C151.204 168.424 151.984 168.148 152.908 168.148C153.82 168.148 154.588 168.424 155.212 168.976ZM151.954 170.362C151.75 170.602 151.648 170.896 151.648 171.244C151.648 171.592 151.75 171.886 151.954 172.126C152.17 172.366 152.488 172.486 152.908 172.486C153.304 172.486 153.604 172.366 153.808 172.126C154.024 171.886 154.132 171.592 154.132 171.244C154.132 170.896 154.024 170.602 153.808 170.362C153.604 170.122 153.304 170.002 152.908 170.002C152.488 170.002 152.17 170.122 151.954 170.362ZM164.23 175.888C164.854 176.428 165.166 177.184 165.166 178.156C165.166 179.128 164.854 179.89 164.23 180.442C163.606 180.982 162.838 181.252 161.926 181.252C161.002 181.252 160.222 180.982 159.586 180.442C158.962 179.89 158.65 179.128 158.65 178.156C158.65 177.184 158.962 176.428 159.586 175.888C160.222 175.336 161.002 175.06 161.926 175.06C162.838 175.06 163.606 175.336 164.23 175.888ZM160.972 177.274C160.768 177.514 160.666 177.808 160.666 178.156C160.666 178.504 160.768 178.798 160.972 179.038C161.188 179.278 161.506 179.398 161.926 179.398C162.322 179.398 162.622 179.278 162.826 179.038C163.042 178.798 163.15 178.504 163.15 178.156C163.15 177.808 163.042 177.514 162.826 177.274C162.622 177.034 162.322 176.914 161.926 176.914C161.506 176.914 161.188 177.034 160.972 177.274Z" fill="#F28100"/>
<path d="M120.138 214.564H126.834V216.67H120.138V214.564Z" fill="#F28100"/>
<path d="M137.317 210.892C137.317 211.516 137.149 212.062 136.813 212.53C136.489 212.986 136.039 213.316 135.463 213.52C136.147 213.724 136.711 214.09 137.155 214.618C137.599 215.134 137.821 215.812 137.821 216.652C137.821 217.276 137.683 217.828 137.407 218.308C137.143 218.776 136.777 219.148 136.309 219.424C135.841 219.7 135.319 219.904 134.743 220.036C134.179 220.18 133.573 220.252 132.925 220.252C131.425 220.252 130.009 219.976 128.677 219.424V216.922C129.853 217.582 131.197 217.9 132.709 217.876C133.465 217.876 134.077 217.744 134.545 217.48C135.013 217.216 135.247 216.814 135.247 216.274C135.247 215.326 134.539 214.852 133.123 214.852H131.107L131.125 212.548L132.817 212.566C133.429 212.566 133.903 212.458 134.239 212.242C134.587 212.014 134.761 211.69 134.761 211.27C134.761 210.826 134.569 210.484 134.185 210.244C133.801 209.992 133.243 209.866 132.511 209.866C131.299 209.866 130.093 210.232 128.893 210.964V208.462C130.069 207.826 131.401 207.508 132.889 207.508C134.209 207.508 135.277 207.802 136.093 208.39C136.909 208.978 137.317 209.812 137.317 210.892Z" fill="#F28100"/>
<path d="M148.04 210.892C148.04 211.516 147.872 212.062 147.536 212.53C147.212 212.986 146.762 213.316 146.186 213.52C146.87 213.724 147.434 214.09 147.878 214.618C148.322 215.134 148.544 215.812 148.544 216.652C148.544 217.276 148.406 217.828 148.13 218.308C147.866 218.776 147.5 219.148 147.032 219.424C146.564 219.7 146.042 219.904 145.466 220.036C144.902 220.18 144.296 220.252 143.648 220.252C142.148 220.252 140.732 219.976 139.4 219.424V216.922C140.576 217.582 141.92 217.9 143.432 217.876C144.188 217.876 144.8 217.744 145.268 217.48C145.736 217.216 145.97 216.814 145.97 216.274C145.97 215.326 145.262 214.852 143.846 214.852H141.83L141.848 212.548L143.54 212.566C144.152 212.566 144.626 212.458 144.962 212.242C145.31 212.014 145.484 211.69 145.484 211.27C145.484 210.826 145.292 210.484 144.908 210.244C144.524 209.992 143.966 209.866 143.234 209.866C142.022 209.866 140.816 210.232 139.616 210.964V208.462C140.792 207.826 142.124 207.508 143.612 207.508C144.932 207.508 146 207.802 146.816 208.39C147.632 208.978 148.04 209.812 148.04 210.892Z" fill="#F28100"/>
<path d="M154.821 221.08H153.021L160.383 206.32H162.183L154.821 221.08ZM155.379 207.976C156.003 208.516 156.315 209.272 156.315 210.244C156.315 211.216 156.003 211.978 155.379 212.53C154.755 213.07 153.987 213.34 153.075 213.34C152.151 213.34 151.371 213.07 150.735 212.53C150.111 211.978 149.799 211.216 149.799 210.244C149.799 209.272 150.111 208.516 150.735 207.976C151.371 207.424 152.151 207.148 153.075 207.148C153.987 207.148 154.755 207.424 155.379 207.976ZM152.121 209.362C151.917 209.602 151.815 209.896 151.815 210.244C151.815 210.592 151.917 210.886 152.121 211.126C152.337 211.366 152.655 211.486 153.075 211.486C153.471 211.486 153.771 211.366 153.975 211.126C154.191 210.886 154.299 210.592 154.299 210.244C154.299 209.896 154.191 209.602 153.975 209.362C153.771 209.122 153.471 209.002 153.075 209.002C152.655 209.002 152.337 209.122 152.121 209.362ZM164.397 214.888C165.021 215.428 165.333 216.184 165.333 217.156C165.333 218.128 165.021 218.89 164.397 219.442C163.773 219.982 163.005 220.252 162.093 220.252C161.169 220.252 160.389 219.982 159.753 219.442C159.129 218.89 158.817 218.128 158.817 217.156C158.817 216.184 159.129 215.428 159.753 214.888C160.389 214.336 161.169 214.06 162.093 214.06C163.005 214.06 163.773 214.336 164.397 214.888ZM161.139 216.274C160.935 216.514 160.833 216.808 160.833 217.156C160.833 217.504 160.935 217.798 161.139 218.038C161.355 218.278 161.673 218.398 162.093 218.398C162.489 218.398 162.789 218.278 162.993 218.038C163.209 217.798 163.317 217.504 163.317 217.156C163.317 216.808 163.209 216.514 162.993 216.274C162.789 216.034 162.489 215.914 162.093 215.914C161.673 215.914 161.355 216.034 161.139 216.274Z" fill="#F28100"/>
<path d="M118.108 58.5638H124.804V60.6698H118.108V58.5638Z" fill="#F28100"/>
<path d="M132.516 51.7598H135.198V59.5178H137.052V61.7678H135.198V63.9998H132.624V61.7678H126.198V59.5358L132.516 51.7598ZM132.624 59.5178V55.0538L129.006 59.5178H132.624Z" fill="#F28100"/>
<path d="M139.757 62.4878C138.833 61.2998 138.371 59.7638 138.371 57.8798C138.371 55.9958 138.833 54.4658 139.757 53.2898C140.693 52.1018 142.091 51.5078 143.951 51.5078C145.811 51.5078 147.203 52.1018 148.127 53.2898C149.063 54.4658 149.531 55.9958 149.531 57.8798C149.531 59.7638 149.063 61.2998 148.127 62.4878C147.203 63.6638 145.811 64.2518 143.951 64.2518C142.091 64.2518 140.693 63.6638 139.757 62.4878ZM143.951 61.8758C145.871 61.8758 146.831 60.5438 146.831 57.8798C146.831 55.2158 145.871 53.8838 143.951 53.8838C142.031 53.8838 141.071 55.2158 141.071 57.8798C141.071 60.5438 142.031 61.8758 143.951 61.8758Z" fill="#F28100"/>
<path d="M155.85 65.0798H154.05L161.412 50.3198H163.212L155.85 65.0798ZM156.408 51.9758C157.032 52.5158 157.344 53.2718 157.344 54.2438C157.344 55.2158 157.032 55.9778 156.408 56.5298C155.784 57.0698 155.016 57.3398 154.104 57.3398C153.18 57.3398 152.4 57.0698 151.764 56.5298C151.14 55.9778 150.828 55.2158 150.828 54.2438C150.828 53.2718 151.14 52.5158 151.764 51.9758C152.4 51.4238 153.18 51.1478 154.104 51.1478C155.016 51.1478 155.784 51.4238 156.408 51.9758ZM153.15 53.3618C152.946 53.6018 152.844 53.8958 152.844 54.2438C152.844 54.5918 152.946 54.8858 153.15 55.1258C153.366 55.3658 153.684 55.4858 154.104 55.4858C154.5 55.4858 154.8 55.3658 155.004 55.1258C155.22 54.8858 155.328 54.5918 155.328 54.2438C155.328 53.8958 155.22 53.6018 155.004 53.3618C154.8 53.1218 154.5 53.0018 154.104 53.0018C153.684 53.0018 153.366 53.1218 153.15 53.3618ZM165.426 58.8878C166.05 59.4278 166.362 60.1838 166.362 61.1558C166.362 62.1278 166.05 62.8898 165.426 63.4418C164.802 63.9818 164.034 64.2518 163.122 64.2518C162.198 64.2518 161.418 63.9818 160.782 63.4418C160.158 62.8898 159.846 62.1278 159.846 61.1558C159.846 60.1838 160.158 59.4278 160.782 58.8878C161.418 58.3358 162.198 58.0598 163.122 58.0598C164.034 58.0598 164.802 58.3358 165.426 58.8878ZM162.168 60.2738C161.964 60.5138 161.862 60.8078 161.862 61.1558C161.862 61.5038 161.964 61.7978 162.168 62.0378C162.384 62.2778 162.702 62.3978 163.122 62.3978C163.518 62.3978 163.818 62.2778 164.022 62.0378C164.238 61.7978 164.346 61.5038 164.346 61.1558C164.346 60.8078 164.238 60.5138 164.022 60.2738C163.818 60.0338 163.518 59.9138 163.122 59.9138C162.702 59.9138 162.384 60.0338 162.168 60.2738Z" fill="#F28100"/>
<path fill-rule="evenodd" clip-rule="evenodd" d="M494 18V39H493V18H494Z" fill="#DDDDE6"/>
<path fill-rule="evenodd" clip-rule="evenodd" d="M494.5 72L494.5 96L493.5 96L493.5 72L494.5 72Z" fill="#DDDDE6"/>
<path d="M404.303 200.173C404.807 201.903 405.507 203.572 406.393 205.137L403.87 208.319C403.046 209.359 403.139 210.842 404.066 211.779L408.412 216.125C409.349 217.063 410.832 217.145 411.872 216.321L415.034 213.818C416.661 214.756 418.391 215.487 420.193 216.002L420.667 220.07C420.821 221.388 421.933 222.376 423.252 222.376H429.4C430.718 222.376 431.83 221.388 431.985 220.07L432.438 216.146C434.374 215.641 436.228 214.889 437.968 213.911L441.027 216.331C442.067 217.155 443.55 217.062 444.487 216.136L448.833 211.79C449.77 210.852 449.853 209.369 449.029 208.329L446.65 205.312C447.638 203.602 448.411 201.78 448.926 199.874L452.592 199.452C453.91 199.298 454.899 198.185 454.899 196.867V190.719C454.899 189.401 453.91 188.289 452.592 188.134L448.977 187.712C448.483 185.827 447.741 184.025 446.794 182.336L449.019 179.525C449.842 178.484 449.75 177.001 448.823 176.064L444.487 171.729C443.55 170.791 442.067 170.709 441.027 171.533L438.298 173.696C436.527 172.656 434.631 171.863 432.644 171.327L432.232 167.795C432.078 166.476 430.965 165.488 429.647 165.488H423.499C422.181 165.488 421.069 166.476 420.914 167.795L420.502 171.327C418.463 171.873 416.517 172.697 414.704 173.778L411.872 171.533C410.832 170.709 409.349 170.802 408.412 171.729L404.066 176.075C403.129 177.012 403.046 178.495 403.87 179.535L406.239 182.532C405.291 184.241 404.57 186.064 404.097 187.959L400.307 188.392C398.989 188.546 398 189.658 398 190.976V197.125C398 198.443 398.989 199.555 400.307 199.71L404.303 200.173ZM426.578 183.541C432.18 183.541 436.743 188.103 436.743 193.706C436.743 199.308 432.18 203.87 426.578 203.87C420.976 203.87 416.414 199.308 416.414 193.706C416.414 188.103 420.976 183.541 426.578 183.541Z" fill="#F28100"/>
<path d="M487.36 201.687L484.116 198.948C483.117 198.103 481.644 198.144 480.697 199.04L478.905 200.719C477.391 199.988 475.785 199.473 474.126 199.174L473.622 196.703C473.365 195.426 472.18 194.54 470.882 194.643L466.65 195.003C465.352 195.117 464.333 196.177 464.291 197.485L464.209 199.998C462.582 200.585 461.047 201.388 459.647 202.398L457.505 200.976C456.413 200.256 454.961 200.462 454.117 201.46L451.377 204.725C450.533 205.724 450.574 207.197 451.47 208.144L453.344 210.142C452.695 211.604 452.232 213.139 451.964 214.714L449.287 215.26C448.01 215.518 447.124 216.702 447.227 218L447.587 222.232C447.701 223.53 448.761 224.55 450.069 224.591L452.963 224.683C453.489 226.063 454.178 227.371 455.013 228.597L453.396 231.037C452.675 232.129 452.881 233.581 453.88 234.426L457.124 237.165C458.123 238.01 459.595 237.968 460.543 237.072L462.664 235.085C464.055 235.734 465.517 236.218 467.021 236.506L467.608 239.41C467.865 240.687 469.049 241.573 470.347 241.47L474.58 241.109C475.877 240.996 476.897 239.935 476.938 238.627L477.031 235.785C478.576 235.239 480.038 234.498 481.387 233.581L483.725 235.126C484.816 235.847 486.268 235.641 487.113 234.642L489.852 231.398C490.697 230.399 490.656 228.926 489.76 227.979L487.875 225.981C488.565 224.519 489.07 222.974 489.358 221.388L491.933 220.863C493.21 220.605 494.095 219.421 493.992 218.123L493.632 213.89C493.518 212.593 492.458 211.573 491.15 211.532L488.565 211.45C488.029 209.946 487.308 208.525 486.413 207.207L487.823 205.085C488.565 203.994 488.359 202.532 487.36 201.687ZM471.408 226.156C466.835 226.547 462.798 223.139 462.417 218.566C462.026 213.994 465.435 209.957 470.007 209.576C474.58 209.184 478.617 212.593 478.998 217.165C479.389 221.738 475.98 225.775 471.408 226.156Z" fill="#F28100"/>
<path d="M419.112 237.546C417.814 237.68 416.815 238.772 416.805 240.08L416.774 242.685C416.753 243.993 417.721 245.105 419.019 245.27L420.934 245.517C421.254 246.681 421.707 247.793 422.294 248.844L421.058 250.368C420.234 251.387 420.296 252.85 421.212 253.787L423.035 255.651C423.952 256.588 425.414 256.691 426.454 255.888L427.989 254.704C429.07 255.342 430.213 255.847 431.408 256.197L431.614 258.174C431.748 259.472 432.839 260.471 434.147 260.481L436.753 260.512C438.061 260.533 439.173 259.564 439.338 258.267L439.575 256.393C440.872 256.073 442.108 255.589 443.282 254.951L444.724 256.114C445.743 256.938 447.206 256.877 448.143 255.96L450.007 254.137C450.944 253.221 451.047 251.758 450.244 250.718L449.142 249.286C449.821 248.154 450.347 246.949 450.707 245.682L452.417 245.507C453.714 245.373 454.713 244.281 454.724 242.974L454.754 240.368C454.775 239.06 453.807 237.948 452.509 237.783L450.841 237.567C450.522 236.31 450.048 235.095 449.43 233.962L450.47 232.685C451.294 231.666 451.232 230.203 450.316 229.266L448.493 227.402C447.577 226.465 446.114 226.362 445.074 227.165L443.828 228.123C442.654 227.413 441.397 226.867 440.079 226.496L439.914 224.879C439.78 223.581 438.689 222.583 437.381 222.572L434.775 222.541C433.468 222.521 432.355 223.489 432.19 224.786L431.984 226.393C430.625 226.743 429.317 227.279 428.102 227.979L426.815 226.928C425.795 226.105 424.333 226.166 423.396 227.083L421.521 228.916C420.584 229.833 420.481 231.295 421.284 232.335L422.386 233.756C421.748 234.889 421.243 236.094 420.914 237.361L419.112 237.546ZM435.929 234.601C439.667 234.642 442.664 237.721 442.623 241.46C442.582 245.198 439.502 248.195 435.764 248.154C432.026 248.112 429.029 245.033 429.07 241.295C429.111 237.557 432.191 234.56 435.929 234.601Z" fill="#F28100"/>
<path d="M176 15L180.33 22.5H171.67L176 15Z" fill="#0FA7F0"/>
<path d="M176 93L180.33 100.5H171.67L176 93Z" fill="#0FA7F0"/>
<path d="M176 132L180.33 139.5H171.67L176 132Z" fill="#0FA7F0"/>
<path d="M176 179L171.67 171.5L180.33 171.5L176 179Z" fill="#F28100"/>
<path d="M176 219L171.67 211.5L180.33 211.5L176 219Z" fill="#F28100"/>
<path d="M176 63L171.67 55.5L180.33 55.5L176 63Z" fill="#F28100"/>
</svg>
