<svg width="567" height="344" viewBox="0 0 567 344" fill="none" xmlns="http://www.w3.org/2000/svg">
<path fill-rule="evenodd" clip-rule="evenodd" d="M567 237H2V236H567V237Z" fill="#37376D"/>
<path fill-rule="evenodd" clip-rule="evenodd" d="M5.53125 178H2V177H5.53125V178ZM19.6562 178H12.5938V177H19.6562V178ZM33.7812 178H26.7188V177H33.7812V178ZM47.9062 178H40.8438V177H47.9062V178ZM62.0312 178H54.9688V177H62.0312V178ZM76.1562 178H69.0938V177H76.1562V178ZM90.2812 178H83.2188V177H90.2812V178ZM104.406 178H97.3438V177H104.406V178ZM118.531 178H111.469V177H118.531V178ZM132.656 178H125.594V177H132.656V178ZM146.781 178H139.719V177H146.781V178ZM160.906 178H153.844V177H160.906V178ZM175.031 178H167.969V177H175.031V178ZM189.156 178H182.094V177H189.156V178ZM203.281 178H196.219V177H203.281V178ZM217.406 178H210.344V177H217.406V178ZM231.531 178H224.469V177H231.531V178ZM245.656 178H238.594V177H245.656V178ZM259.781 178H252.719V177H259.781V178ZM273.906 178H266.844V177H273.906V178ZM288.031 178H280.969V177H288.031V178ZM302.156 178H295.094V177H302.156V178ZM316.281 178H309.219V177H316.281V178ZM330.406 178H323.344V177H330.406V178ZM344.531 178H337.469V177H344.531V178ZM358.656 178H351.594V177H358.656V178ZM372.781 178H365.719V177H372.781V178ZM386.906 178H379.844V177H386.906V178ZM401.031 178H393.969V177H401.031V178ZM415.156 178H408.094V177H415.156V178ZM429.281 178H422.219V177H429.281V178ZM443.406 178H436.344V177H443.406V178ZM457.531 178H450.469V177H457.531V178ZM471.656 178H464.594V177H471.656V178ZM485.781 178H478.719V177H485.781V178ZM499.906 178H492.844V177H499.906V178ZM514.031 178H506.969V177H514.031V178ZM528.156 178H521.094V177H528.156V178ZM542.281 178H535.219V177H542.281V178ZM556.406 178H549.344V177H556.406V178ZM567 178H563.469V177H567V178Z" fill="#DDDDE6"/>
<path fill-rule="evenodd" clip-rule="evenodd" d="M5.53125 119H2V118H5.53125V119ZM19.6562 119H12.5938V118H19.6562V119ZM33.7812 119H26.7188V118H33.7812V119ZM47.9062 119H40.8438V118H47.9062V119ZM62.0312 119H54.9688V118H62.0312V119ZM76.1562 119H69.0938V118H76.1562V119ZM90.2812 119H83.2188V118H90.2812V119ZM104.406 119H97.3438V118H104.406V119ZM118.531 119H111.469V118H118.531V119ZM132.656 119H125.594V118H132.656V119ZM146.781 119H139.719V118H146.781V119ZM160.906 119H153.844V118H160.906V119ZM175.031 119H167.969V118H175.031V119ZM189.156 119H182.094V118H189.156V119ZM203.281 119H196.219V118H203.281V119ZM217.406 119H210.344V118H217.406V119ZM231.531 119H224.469V118H231.531V119ZM245.656 119H238.594V118H245.656V119ZM259.781 119H252.719V118H259.781V119ZM273.906 119H266.844V118H273.906V119ZM288.031 119H280.969V118H288.031V119ZM302.156 119H295.094V118H302.156V119ZM316.281 119H309.219V118H316.281V119ZM330.406 119H323.344V118H330.406V119ZM344.531 119H337.469V118H344.531V119ZM358.656 119H351.594V118H358.656V119ZM372.781 119H365.719V118H372.781V119ZM386.906 119H379.844V118H386.906V119ZM401.031 119H393.969V118H401.031V119ZM415.156 119H408.094V118H415.156V119ZM429.281 119H422.219V118H429.281V119ZM443.406 119H436.344V118H443.406V119ZM457.531 119H450.469V118H457.531V119ZM471.656 119H464.594V118H471.656V119ZM485.781 119H478.719V118H485.781V119ZM499.906 119H492.844V118H499.906V119ZM514.031 119H506.969V118H514.031V119ZM528.156 119H521.094V118H528.156V119ZM542.281 119H535.219V118H542.281V119ZM556.406 119H549.344V118H556.406V119ZM567 119H563.469V118H567V119Z" fill="#DDDDE6"/>
<path fill-rule="evenodd" clip-rule="evenodd" d="M5.53125 60H2V59H5.53125V60ZM19.6562 60H12.5938V59H19.6562V60ZM33.7812 60H26.7188V59H33.7812V60ZM47.9062 60H40.8438V59H47.9062V60ZM62.0312 60H54.9688V59H62.0312V60ZM76.1562 60H69.0938V59H76.1562V60ZM90.2812 60H83.2188V59H90.2812V60ZM104.406 60H97.3438V59H104.406V60ZM118.531 60H111.469V59H118.531V60ZM132.656 60H125.594V59H132.656V60ZM146.781 60H139.719V59H146.781V60ZM160.906 60H153.844V59H160.906V60ZM175.031 60H167.969V59H175.031V60ZM189.156 60H182.094V59H189.156V60ZM203.281 60H196.219V59H203.281V60ZM217.406 60H210.344V59H217.406V60ZM231.531 60H224.469V59H231.531V60ZM245.656 60H238.594V59H245.656V60ZM259.781 60H252.719V59H259.781V60ZM273.906 60H266.844V59H273.906V60ZM288.031 60H280.969V59H288.031V60ZM302.156 60H295.094V59H302.156V60ZM316.281 60H309.219V59H316.281V60ZM330.406 60H323.344V59H330.406V60ZM344.531 60H337.469V59H344.531V60ZM358.656 60H351.594V59H358.656V60ZM372.781 60H365.719V59H372.781V60ZM386.906 60H379.844V59H386.906V60ZM401.031 60H393.969V59H401.031V60ZM415.156 60H408.094V59H415.156V60ZM429.281 60H422.219V59H429.281V60ZM443.406 60H436.344V59H443.406V60ZM457.531 60H450.469V59H457.531V60ZM471.656 60H464.594V59H471.656V60ZM485.781 60H478.719V59H485.781V60ZM499.906 60H492.844V59H499.906V60ZM514.031 60H506.969V59H514.031V60ZM528.156 60H521.094V59H528.156V60ZM542.281 60H535.219V59H542.281V60ZM556.406 60H549.344V59H556.406V60ZM567 60H563.469V59H567V60Z" fill="#DDDDE6"/>
<path fill-rule="evenodd" clip-rule="evenodd" d="M5.53125 1H2V0H5.53125V1ZM19.6562 1H12.5938V0H19.6562V1ZM33.7812 1H26.7188V0H33.7812V1ZM47.9062 1H40.8438V0H47.9062V1ZM62.0312 1H54.9688V0H62.0312V1ZM76.1562 1H69.0938V0H76.1562V1ZM90.2812 1H83.2188V0H90.2812V1ZM104.406 1H97.3438V0H104.406V1ZM118.531 1H111.469V0H118.531V1ZM132.656 1H125.594V0H132.656V1ZM146.781 1H139.719V0H146.781V1ZM160.906 1H153.844V0H160.906V1ZM175.031 1H167.969V0H175.031V1ZM189.156 1H182.094V0H189.156V1ZM203.281 1H196.219V0H203.281V1ZM217.406 1H210.344V0H217.406V1ZM231.531 1H224.469V0H231.531V1ZM245.656 1H238.594V0H245.656V1ZM259.781 1H252.719V0H259.781V1ZM273.906 1H266.844V0H273.906V1ZM288.031 1H280.969V0H288.031V1ZM302.156 1H295.094V0H302.156V1ZM316.281 1H309.219V0H316.281V1ZM330.406 1H323.344V0H330.406V1ZM344.531 1H337.469V0H344.531V1ZM358.656 1H351.594V0H358.656V1ZM372.781 1H365.719V0H372.781V1ZM386.906 1H379.844V0H386.906V1ZM401.031 1H393.969V0H401.031V1ZM415.156 1H408.094V0H415.156V1ZM429.281 1H422.219V0H429.281V1ZM443.406 1H436.344V0H443.406V1ZM457.531 1H450.469V0H457.531V1ZM471.656 1H464.594V0H471.656V1ZM485.781 1H478.719V0H485.781V1ZM499.906 1H492.844V0H499.906V1ZM514.031 1H506.969V0H514.031V1ZM528.156 1H521.094V0H528.156V1ZM542.281 1H535.219V0H542.281V1ZM556.406 1H549.344V0H556.406V1ZM567 1H563.469V0H567V1Z" fill="#DDDDE6"/>
<path d="M61.4004 329.535L61.4004 328.239L74.0004 328.239L74.0004 329.751L64.2624 329.751L71.0304 334.269L71.0304 335.205L64.2624 339.723L74.0004 339.723L74.0004 341.235L61.4004 341.235L61.4004 339.939L69.1764 334.737L61.4004 329.535Z" fill="#37376D"/>
<path d="M72.2004 318.367C72.6444 318.367 72.8664 318.145 72.8664 317.701C72.8664 317.509 72.8244 317.287 72.7404 317.035L73.9104 317.035C74.0424 317.395 74.1084 317.755 74.1084 318.115C74.1084 318.943 73.7604 319.471 73.0644 319.699C73.8324 320.623 74.2164 321.745 74.2164 323.065C74.2164 323.905 73.9944 324.625 73.5504 325.225C73.0944 325.813 72.4404 326.107 71.5884 326.107C70.5684 326.107 69.8304 325.729 69.3744 324.973C68.9064 324.205 68.6724 323.281 68.6724 322.201C68.6724 321.409 68.7624 320.611 68.9424 319.807L68.6364 319.807C67.9764 319.807 67.4544 320.023 67.0704 320.455C66.6744 320.887 66.4764 321.493 66.4764 322.273C66.4764 323.365 66.6924 324.415 67.1244 325.423L65.7204 325.423C65.3364 324.295 65.1444 323.197 65.1444 322.129C65.1444 320.953 65.4624 320.035 66.0984 319.375C66.7224 318.703 67.6284 318.367 68.8164 318.367L72.2004 318.367ZM71.5164 324.631C71.9964 324.631 72.3624 324.451 72.6144 324.091C72.8544 323.719 72.9744 323.275 72.9744 322.759C72.9744 321.571 72.5544 320.587 71.7144 319.807L70.1304 319.807C69.9624 320.623 69.8784 321.355 69.8784 322.003C69.8784 322.735 70.0104 323.359 70.2744 323.875C70.5264 324.379 70.9404 324.631 71.5164 324.631Z" fill="#37376D"/>
<path d="M74.0004 314.051L74.0004 315.491L65.3604 315.491L65.3604 309.173L66.6924 309.173L66.6924 314.051L74.0004 314.051Z" fill="#37376D"/>
<path d="M72.2004 300.613C72.6444 300.613 72.8664 300.391 72.8664 299.947C72.8664 299.755 72.8244 299.533 72.7404 299.281L73.9104 299.281C74.0424 299.641 74.1084 300.001 74.1084 300.361C74.1084 301.189 73.7604 301.717 73.0644 301.945C73.8324 302.869 74.2164 303.991 74.2164 305.311C74.2164 306.151 73.9944 306.871 73.5504 307.471C73.0944 308.059 72.4404 308.353 71.5884 308.353C70.5684 308.353 69.8304 307.975 69.3744 307.219C68.9064 306.451 68.6724 305.527 68.6724 304.447C68.6724 303.655 68.7624 302.857 68.9424 302.053L68.6364 302.053C67.9764 302.053 67.4544 302.269 67.0704 302.701C66.6744 303.133 66.4764 303.739 66.4764 304.519C66.4764 305.611 66.6924 306.661 67.1244 307.669L65.7204 307.669C65.3364 306.541 65.1444 305.443 65.1444 304.375C65.1444 303.199 65.4624 302.281 66.0984 301.621C66.7224 300.949 67.6284 300.613 68.8164 300.613L72.2004 300.613ZM71.5164 306.877C71.9964 306.877 72.3624 306.697 72.6144 306.337C72.8544 305.965 72.9744 305.521 72.9744 305.005C72.9744 303.817 72.5544 302.833 71.7144 302.053L70.1304 302.053C69.9624 302.869 69.8784 303.601 69.8784 304.249C69.8784 304.981 70.0104 305.605 70.2744 306.121C70.5264 306.625 70.9404 306.877 71.5164 306.877Z" fill="#37376D"/>
<path d="M71.6784 291.275C72.4824 291.275 73.1064 291.623 73.5504 292.319C73.9944 293.003 74.2164 293.951 74.2164 295.163C74.2164 296.375 73.9944 297.437 73.5504 298.349L72.1824 298.349C72.6504 297.473 72.8844 296.471 72.8844 295.343C72.8844 293.591 72.4284 292.715 71.5164 292.715C70.6884 292.715 70.2744 293.351 70.2744 294.623L70.2744 296.513L68.9424 296.513L68.9424 294.623C68.9424 293.471 68.5704 292.895 67.8264 292.895C67.3704 292.895 67.0284 293.111 66.8004 293.543C66.5724 293.975 66.4584 294.551 66.4584 295.271C66.4584 296.315 66.6864 297.293 67.1424 298.205L65.7924 298.205C65.3484 297.233 65.1264 296.201 65.1264 295.109C65.1264 293.933 65.3544 293.033 65.8104 292.409C66.2544 291.773 66.8604 291.455 67.6284 291.455C68.1444 291.455 68.5704 291.599 68.9064 291.887C69.2424 292.175 69.4644 292.565 69.5724 293.057C69.7044 292.541 69.9564 292.115 70.3284 291.779C70.7004 291.443 71.1504 291.275 71.6784 291.275Z" fill="#37376D"/>
<path d="M74.0004 287.934L74.0004 289.158L65.3604 289.158L65.3604 287.718L71.6784 287.718L65.3604 282.426L65.3604 281.202L74.0004 281.202L74.0004 282.642L67.6824 282.642L74.0004 287.934Z" fill="#37376D"/>
<path d="M74.0004 277.101L74.0004 278.541L65.3604 278.541L65.3604 277.101L69.0144 277.101L69.0144 272.097L65.3604 272.097L65.3604 270.657L74.0004 270.657L74.0004 272.097L70.3464 272.097L70.3464 277.101L74.0004 277.101Z" fill="#37376D"/>
<path d="M61.7604 260.92L61.7604 259.804L72.5604 259.804L72.5604 257.518L74.0004 257.518L74.0004 263.89L72.5604 263.89L72.5604 261.316L63.3624 261.316L64.3344 263.89L62.8944 263.89L61.7604 260.92Z" fill="#37376D"/>
<path d="M14.9995 208.634L14.9995 210.146L2.3995 210.146L2.3995 199.868L14.9995 199.868L14.9995 201.38L3.8395 201.38L3.8395 208.634L14.9995 208.634Z" fill="#37376D"/>
<path d="M7.7995 195.586C6.6955 194.614 6.1435 193.45 6.1435 192.094C6.1435 190.858 6.5755 189.832 7.4395 189.016C8.3035 188.188 9.3835 187.774 10.6795 187.774C11.9755 187.774 13.0555 188.188 13.9195 189.016C14.7835 189.832 15.2155 190.858 15.2155 192.094C15.2155 193.462 14.7115 194.578 13.7035 195.442L18.9595 195.442L18.9595 196.882L6.3595 196.882L6.3595 195.586L7.7995 195.586ZM13.0015 190.096C12.4135 189.508 11.6395 189.214 10.6795 189.214C9.7195 189.214 8.9455 189.508 8.3575 190.096C7.7695 190.672 7.4755 191.392 7.4755 192.256C7.4755 192.988 7.6795 193.636 8.0875 194.2C8.4955 194.764 8.9995 195.178 9.5995 195.442L11.7595 195.442C12.3595 195.178 12.8635 194.764 13.2715 194.2C13.6795 193.636 13.8835 192.988 13.8835 192.256C13.8835 191.392 13.5895 190.672 13.0015 190.096Z" fill="#37376D"/>
<path d="M10.6795 186.296C9.2635 186.296 8.1535 185.864 7.3495 185C6.5455 184.124 6.1435 183.122 6.1435 181.994C6.1435 180.938 6.4075 180.068 6.9355 179.384C7.4635 178.688 8.1175 178.232 8.8975 178.016C9.6655 177.8 10.4695 177.788 11.3095 177.98L11.3095 184.856C12.1615 184.772 12.8035 184.394 13.2355 183.722C13.6675 183.05 13.8835 182.24 13.8835 181.292C13.8835 180.236 13.6495 179.288 13.1815 178.448L14.5855 178.448C15.0055 179.252 15.2155 180.272 15.2155 181.508C15.2155 182.876 14.8255 184.016 14.0455 184.928C13.2655 185.84 12.1435 186.296 10.6795 186.296ZM10.0495 179.258C9.7975 179.222 9.5335 179.24 9.2575 179.312C8.9815 179.384 8.7055 179.516 8.4295 179.708C8.1535 179.888 7.9255 180.17 7.7455 180.554C7.5655 180.938 7.4755 181.388 7.4755 181.904C7.4755 182.684 7.7035 183.362 8.1595 183.938C8.6155 184.502 9.2455 184.808 10.0495 184.856L10.0495 179.258Z" fill="#37376D"/>
<path d="M17.3395 175.476L17.3395 176.88L13.7035 176.88L13.7035 175.728C11.9035 174.708 9.4555 174.216 6.3595 174.252L6.3595 167.808L13.7035 167.808L13.7035 166.548L17.3395 166.548L17.3395 167.952L14.9995 167.952L14.9995 175.476L17.3395 175.476ZM7.6555 172.866C10.0195 172.926 12.0355 173.358 13.7035 174.162L13.7035 169.248L7.6555 169.248L7.6555 172.866Z" fill="#37376D"/>
<path d="M10.7155 165.396C9.9595 165.396 9.2815 165.258 8.6815 164.982C8.0815 164.706 7.6015 164.346 7.2415 163.902C6.8815 163.446 6.6115 162.948 6.4315 162.408C6.2395 161.856 6.1435 161.292 6.1435 160.716C6.1435 159.648 6.3775 158.76 6.8455 158.052L8.2495 158.052C7.7335 158.712 7.4755 159.54 7.4755 160.536C7.4755 161.472 7.7455 162.276 8.2855 162.948C8.8255 163.62 9.6235 163.956 10.6795 163.956C11.7235 163.956 12.5215 163.626 13.0735 162.966C13.6135 162.294 13.8835 161.496 13.8835 160.572C13.8835 159.612 13.6495 158.742 13.1815 157.962L14.6215 157.962C15.0175 158.778 15.2155 159.714 15.2155 160.77C15.2155 162.018 14.8255 163.104 14.0455 164.028C13.2655 164.94 12.1555 165.396 10.7155 165.396Z" fill="#37376D"/>
<path d="M14.9995 152.254L14.9995 153.694L7.6915 153.694L7.6915 156.88L6.3595 156.88L6.3595 149.086L7.6915 149.086L7.6915 152.254L14.9995 152.254Z" fill="#37376D"/>
<path d="M13.1995 140.52C13.6435 140.52 13.8655 140.298 13.8655 139.854C13.8655 139.662 13.8235 139.44 13.7395 139.188L14.9095 139.188C15.0415 139.548 15.1075 139.908 15.1075 140.268C15.1075 141.096 14.7595 141.624 14.0635 141.852C14.8315 142.776 15.2155 143.898 15.2155 145.218C15.2155 146.058 14.9935 146.778 14.5495 147.378C14.0935 147.966 13.4395 148.26 12.5875 148.26C11.5675 148.26 10.8295 147.882 10.3735 147.126C9.9055 146.358 9.6715 145.434 9.6715 144.354C9.6715 143.562 9.7615 142.764 9.9415 141.96L9.6355 141.96C8.9755 141.96 8.4535 142.176 8.0695 142.608C7.6735 143.04 7.4755 143.646 7.4755 144.426C7.4755 145.518 7.6915 146.568 8.1235 147.576L6.7195 147.576C6.3355 146.448 6.1435 145.35 6.1435 144.282C6.1435 143.106 6.4615 142.188 7.0975 141.528C7.7215 140.856 8.6275 140.52 9.8155 140.52L13.1995 140.52ZM12.5155 146.784C12.9955 146.784 13.3615 146.604 13.6135 146.244C13.8535 145.872 13.9735 145.428 13.9735 144.912C13.9735 143.724 13.5535 142.74 12.7135 141.96L11.1295 141.96C10.9615 142.776 10.8775 143.508 10.8775 144.156C10.8775 144.888 11.0095 145.512 11.2735 146.028C11.5255 146.532 11.9395 146.784 12.5155 146.784Z" fill="#37376D"/>
<path d="M14.9995 132.765L14.9995 137.643L6.3595 137.643L6.3595 132.909C6.3595 132.129 6.5635 131.493 6.9715 131.001C7.3795 130.497 7.9555 130.245 8.6995 130.245C9.1315 130.245 9.5215 130.353 9.8695 130.569C10.2175 130.785 10.4635 131.061 10.6075 131.397C10.7395 131.001 10.9795 130.665 11.3275 130.389C11.6755 130.113 12.1015 129.975 12.6055 129.975C13.3375 129.975 13.9195 130.215 14.3515 130.695C14.7835 131.163 14.9995 131.853 14.9995 132.765ZM11.2555 136.203L13.7395 136.203L13.7395 132.963C13.7395 131.931 13.3315 131.415 12.5155 131.415C11.6755 131.415 11.2555 131.913 11.2555 132.909L11.2555 136.203ZM7.6195 136.203L10.0135 136.203L10.0135 133.053C10.0135 132.153 9.6235 131.703 8.8435 131.703C8.3995 131.703 8.0875 131.835 7.9075 132.099C7.7155 132.363 7.6195 132.681 7.6195 133.053L7.6195 136.203Z" fill="#37376D"/>
<path d="M7.6915 124.722C8.6395 124.782 9.4675 124.854 10.1755 124.938C10.8835 125.022 11.5675 125.142 12.2275 125.298C12.8755 125.454 13.4035 125.646 13.8115 125.874C14.2195 126.09 14.5435 126.366 14.7835 126.702C15.0235 127.038 15.1435 127.422 15.1435 127.854C15.1435 128.202 15.0775 128.55 14.9455 128.898L13.8115 128.898C13.8835 128.706 13.9195 128.514 13.9195 128.322C13.9195 127.602 13.2895 127.08 12.0295 126.756C10.7575 126.42 8.8675 126.21 6.3595 126.126L6.3595 119.772L14.9995 119.772L14.9995 121.212L7.6915 121.212L7.6915 124.722Z" fill="#37376D"/>
<path d="M10.6795 117.706C9.2635 117.706 8.1535 117.274 7.3495 116.41C6.5455 115.534 6.1435 114.532 6.1435 113.404C6.1435 112.348 6.4075 111.478 6.9355 110.794C7.4635 110.098 8.1175 109.642 8.8975 109.426C9.6655 109.21 10.4695 109.198 11.3095 109.39L11.3095 116.266C12.1615 116.182 12.8035 115.804 13.2355 115.132C13.6675 114.46 13.8835 113.65 13.8835 112.702C13.8835 111.646 13.6495 110.698 13.1815 109.858L14.5855 109.858C15.0055 110.662 15.2155 111.682 15.2155 112.918C15.2155 114.286 14.8255 115.426 14.0455 116.338C13.2655 117.25 12.1435 117.706 10.6795 117.706ZM10.0495 110.668C9.7975 110.632 9.5335 110.65 9.2575 110.722C8.9815 110.794 8.7055 110.926 8.4295 111.118C8.1535 111.298 7.9255 111.58 7.7455 111.964C7.5655 112.348 7.4755 112.798 7.4755 113.314C7.4755 114.094 7.7035 114.772 8.1595 115.348C8.6155 115.912 9.2455 116.218 10.0495 116.266L10.0495 110.668Z" fill="#37376D"/>
<path d="M14.9995 105.846L14.9995 107.286L6.3595 107.286L6.3595 105.846L10.0135 105.846L10.0135 100.842L6.3595 100.842L6.3595 99.4019L14.9995 99.4019L14.9995 100.842L11.3455 100.842L11.3455 105.846L14.9995 105.846Z" fill="#37376D"/>
<path d="M14.9995 95.299L14.9995 96.739L6.35949 96.739L6.35949 95.299L10.0135 95.299L10.0135 90.295L6.35949 90.295L6.35949 88.855L14.9995 88.855L14.9995 90.295L11.3455 90.295L11.3455 95.299L14.9995 95.299Z" fill="#37376D"/>
<path d="M14.0095 85.4182C13.1935 86.3302 12.0835 86.7862 10.6795 86.7862C9.27549 86.7862 8.17149 86.3302 7.36749 85.4182C6.55149 84.5062 6.14349 83.4262 6.14349 82.1782C6.14349 80.9182 6.55149 79.8382 7.36749 78.9382C8.17149 78.0262 9.27549 77.5702 10.6795 77.5702C12.0835 77.5702 13.1935 78.0262 14.0095 78.9382C14.8135 79.8382 15.2155 80.9182 15.2155 82.1782C15.2155 83.4262 14.8135 84.5062 14.0095 85.4182ZM13.0015 79.9102C12.4255 79.3102 11.6515 79.0102 10.6795 79.0102C9.70749 79.0102 8.93949 79.3102 8.37549 79.9102C7.79949 80.5102 7.51149 81.2662 7.51149 82.1782C7.51149 83.0902 7.79949 83.8462 8.37549 84.4462C8.93949 85.0462 9.7075 85.3462 10.6795 85.3462C11.6515 85.3462 12.4255 85.0462 13.0015 84.4462C13.5655 83.8462 13.8475 83.0902 13.8475 82.1782C13.8475 81.2662 13.5655 80.5102 13.0015 79.9102Z" fill="#37376D"/>
<path d="M10.7155 76.0987C9.95949 76.0987 9.28149 75.9607 8.68149 75.6847C8.08149 75.4087 7.60149 75.0487 7.24149 74.6047C6.88149 74.1487 6.61149 73.6507 6.43149 73.1107C6.23949 72.5587 6.14349 71.9947 6.14349 71.4187C6.14349 70.3507 6.37749 69.4627 6.84549 68.7547L8.24949 68.7547C7.73349 69.4147 7.47549 70.2427 7.47549 71.2387C7.47549 72.1747 7.74549 72.9787 8.28549 73.6507C8.82549 74.3227 9.62349 74.6587 10.6795 74.6587C11.7235 74.6587 12.5215 74.3287 13.0735 73.6687C13.6135 72.9967 13.8835 72.1987 13.8835 71.2747C13.8835 70.3147 13.6495 69.4447 13.1815 68.6647L14.6215 68.6647C15.0175 69.4807 15.2155 70.4167 15.2155 71.4727C15.2155 72.7207 14.8255 73.8067 14.0455 74.7307C13.2655 75.6427 12.1555 76.0987 10.7155 76.0987Z" fill="#37376D"/>
<path d="M14.9995 62.9574L14.9995 64.3974L7.69149 64.3974L7.69149 67.5834L6.35949 67.5834L6.35949 59.7894L7.69149 59.7894L7.69149 62.9574L14.9995 62.9574Z" fill="#37376D"/>
<path d="M14.9995 54.0511L14.9995 58.1551L6.35949 58.1551L6.35949 56.7151L9.38349 56.7151L9.38349 54.0511C9.38349 53.0191 9.64749 52.2031 10.1755 51.6031C10.7035 51.0031 11.3755 50.7031 12.1915 50.7031C13.0075 50.7031 13.6795 51.0031 14.2075 51.6031C14.7355 52.2031 14.9995 53.0191 14.9995 54.0511ZM10.6795 56.7151L13.7035 56.7151L13.7035 54.2311C13.7035 53.5831 13.5775 53.0791 13.3255 52.7191C13.0735 52.3471 12.6955 52.1611 12.1915 52.1611C11.6875 52.1611 11.3095 52.3471 11.0575 52.7191C10.8055 53.0791 10.6795 53.5831 10.6795 54.2311L10.6795 56.7151Z" fill="#37376D"/>
<path d="M0.437493 42.3038L0.437493 40.8998C1.56549 41.6558 2.86749 42.2438 4.34349 42.6638C5.81949 43.0838 7.27149 43.2938 8.69949 43.2938C10.1275 43.2938 11.5795 43.0838 13.0555 42.6638C14.5315 42.2438 15.8335 41.6558 16.9615 40.8998L16.9615 42.3038C15.7975 43.1078 14.4895 43.7438 13.0375 44.2118C11.5735 44.6798 10.1275 44.9138 8.69949 44.9138C7.27149 44.9138 5.83149 44.6798 4.37949 44.2118C2.91549 43.7438 1.60149 43.1078 0.437493 42.3038Z" fill="#37376D"/>
<path d="M16.0795 35.4083L16.0795 36.8483L1.31949 29.4863L1.31949 28.0463L16.0795 35.4083ZM2.93949 34.8863C3.44349 34.3103 4.13349 34.0223 5.00949 34.0223C5.88549 34.0223 6.57549 34.3103 7.07949 34.8863C7.58349 35.4503 7.83549 36.1403 7.83549 36.9563C7.83549 37.7843 7.58349 38.4863 7.07949 39.0623C6.57549 39.6383 5.88549 39.9263 5.00949 39.9263C4.13349 39.9263 3.44349 39.6383 2.93949 39.0623C2.43549 38.4863 2.18349 37.7843 2.18349 36.9563C2.18349 36.1403 2.43549 35.4503 2.93949 34.8863ZM3.89349 38.1443C4.19349 38.4203 4.56549 38.5583 5.00949 38.5583C5.45349 38.5583 5.82549 38.4203 6.12549 38.1443C6.42549 37.8563 6.57549 37.4603 6.57549 36.9563C6.57549 36.4643 6.42549 36.0803 6.12549 35.8043C5.82549 35.5283 5.45349 35.3903 5.00949 35.3903C4.56549 35.3903 4.19349 35.5283 3.89349 35.8043C3.59349 36.0803 3.44349 36.4643 3.44349 36.9563C3.44349 37.4603 3.59349 37.8563 3.89349 38.1443ZM10.3195 25.8503C10.8235 25.2743 11.5135 24.9863 12.3895 24.9863C13.2655 24.9863 13.9555 25.2743 14.4595 25.8503C14.9635 26.4143 15.2155 27.1043 15.2155 27.9203C15.2155 28.7483 14.9635 29.4503 14.4595 30.0263C13.9555 30.6023 13.2655 30.8903 12.3895 30.8903C11.5135 30.8903 10.8235 30.6023 10.3195 30.0263C9.81549 29.4503 9.56349 28.7483 9.56349 27.9203C9.56349 27.1043 9.81549 26.4143 10.3195 25.8503ZM11.2735 29.1083C11.5735 29.3843 11.9455 29.5223 12.3895 29.5223C12.8335 29.5223 13.2055 29.3843 13.5055 29.1083C13.8055 28.8203 13.9555 28.4243 13.9555 27.9203C13.9555 27.4283 13.8055 27.0443 13.5055 26.7683C13.2055 26.4923 12.8335 26.3543 12.3895 26.3543C11.9455 26.3543 11.5735 26.4923 11.2735 26.7683C10.9735 27.0443 10.8235 27.4283 10.8235 27.9203C10.8235 28.4243 10.9735 28.8203 11.2735 29.1083Z" fill="#37376D"/>
<path d="M0.437492 24.0055L0.437492 22.6015C1.60149 21.7975 2.91549 21.1615 4.37949 20.6935C5.83149 20.2255 7.27149 19.9915 8.69949 19.9915C10.1275 19.9915 11.5735 20.2255 13.0375 20.6935C14.4895 21.1615 15.7975 21.7975 16.9615 22.6015L16.9615 24.0055C15.8335 23.2495 14.5315 22.6615 13.0555 22.2415C11.5795 21.8215 10.1275 21.6115 8.69949 21.6115C7.27149 21.6115 5.81949 21.8215 4.34349 22.2415C2.86749 22.6615 1.56549 23.2495 0.437492 24.0055Z" fill="#37376D"/>
<path d="M127.4 330.336L127.4 329.04L140 329.04L140 330.552L130.262 330.552L137.03 335.07L137.03 336.006L130.262 340.524L140 340.524L140 342.036L127.4 342.036L127.4 340.74L135.176 335.538L127.4 330.336Z" fill="#37376D"/>
<path d="M138.2 319.168C138.644 319.168 138.866 318.946 138.866 318.502C138.866 318.31 138.824 318.088 138.74 317.836L139.91 317.836C140.042 318.196 140.108 318.556 140.108 318.916C140.108 319.744 139.76 320.272 139.064 320.5C139.832 321.424 140.216 322.546 140.216 323.866C140.216 324.706 139.994 325.426 139.55 326.026C139.094 326.614 138.44 326.908 137.588 326.908C136.568 326.908 135.83 326.53 135.374 325.774C134.906 325.006 134.672 324.082 134.672 323.002C134.672 322.21 134.762 321.412 134.942 320.608L134.636 320.608C133.976 320.608 133.454 320.824 133.07 321.256C132.674 321.688 132.476 322.294 132.476 323.074C132.476 324.166 132.692 325.216 133.124 326.224L131.72 326.224C131.336 325.096 131.144 323.998 131.144 322.93C131.144 321.754 131.462 320.836 132.098 320.176C132.722 319.504 133.628 319.168 134.816 319.168L138.2 319.168ZM137.516 325.432C137.996 325.432 138.362 325.252 138.614 324.892C138.854 324.52 138.974 324.076 138.974 323.56C138.974 322.372 138.554 321.388 137.714 320.608L136.13 320.608C135.962 321.424 135.878 322.156 135.878 322.804C135.878 323.536 136.01 324.16 136.274 324.676C136.526 325.18 136.94 325.432 137.516 325.432Z" fill="#37376D"/>
<path d="M140 314.851L140 316.291L131.36 316.291L131.36 309.973L132.692 309.973L132.692 314.851L140 314.851Z" fill="#37376D"/>
<path d="M138.2 301.414C138.644 301.414 138.866 301.192 138.866 300.748C138.866 300.556 138.824 300.334 138.74 300.082L139.91 300.082C140.042 300.442 140.108 300.802 140.108 301.162C140.108 301.99 139.76 302.518 139.064 302.746C139.832 303.67 140.216 304.792 140.216 306.112C140.216 306.952 139.994 307.672 139.55 308.272C139.094 308.86 138.44 309.154 137.588 309.154C136.568 309.154 135.83 308.776 135.374 308.02C134.906 307.252 134.672 306.328 134.672 305.248C134.672 304.456 134.762 303.658 134.942 302.854L134.636 302.854C133.976 302.854 133.454 303.07 133.07 303.502C132.674 303.934 132.476 304.54 132.476 305.32C132.476 306.412 132.692 307.462 133.124 308.47L131.72 308.47C131.336 307.342 131.144 306.244 131.144 305.176C131.144 304 131.462 303.082 132.098 302.422C132.722 301.75 133.628 301.414 134.816 301.414L138.2 301.414ZM137.516 307.678C137.996 307.678 138.362 307.498 138.614 307.138C138.854 306.766 138.974 306.322 138.974 305.806C138.974 304.618 138.554 303.634 137.714 302.854L136.13 302.854C135.962 303.67 135.878 304.402 135.878 305.05C135.878 305.782 136.01 306.406 136.274 306.922C136.526 307.426 136.94 307.678 137.516 307.678Z" fill="#37376D"/>
<path d="M137.678 292.075C138.482 292.075 139.106 292.423 139.55 293.119C139.994 293.803 140.216 294.751 140.216 295.963C140.216 297.175 139.994 298.237 139.55 299.149L138.182 299.149C138.65 298.273 138.884 297.271 138.884 296.143C138.884 294.391 138.428 293.515 137.516 293.515C136.688 293.515 136.274 294.151 136.274 295.423L136.274 297.313L134.942 297.313L134.942 295.423C134.942 294.271 134.57 293.695 133.826 293.695C133.37 293.695 133.028 293.911 132.8 294.343C132.572 294.775 132.458 295.351 132.458 296.071C132.458 297.115 132.686 298.093 133.142 299.005L131.792 299.005C131.348 298.033 131.126 297.001 131.126 295.909C131.126 294.733 131.354 293.833 131.81 293.209C132.254 292.573 132.86 292.255 133.628 292.255C134.144 292.255 134.57 292.399 134.906 292.687C135.242 292.975 135.464 293.365 135.572 293.857C135.704 293.341 135.956 292.915 136.328 292.579C136.7 292.243 137.15 292.075 137.678 292.075Z" fill="#37376D"/>
<path d="M140 288.735L140 289.959L131.36 289.959L131.36 288.519L137.678 288.519L131.36 283.227L131.36 282.003L140 282.003L140 283.443L133.682 283.443L140 288.735Z" fill="#37376D"/>
<path d="M140 277.902L140 279.342L131.36 279.342L131.36 277.902L135.014 277.902L135.014 272.898L131.36 272.898L131.36 271.458L140 271.458L140 272.898L136.346 272.898L136.346 277.902L140 277.902Z" fill="#37376D"/>
<path d="M128.732 264.421C127.94 263.281 127.544 261.973 127.544 260.497C127.544 259.225 127.832 258.211 128.408 257.455C128.984 256.699 129.788 256.321 130.82 256.321C131.312 256.321 131.774 256.417 132.206 256.609C132.638 256.789 133.034 257.065 133.394 257.437C133.754 257.797 134.06 258.151 134.312 258.499C134.552 258.835 134.822 259.261 135.122 259.777C135.158 259.837 135.266 260.023 135.446 260.335C135.626 260.635 135.74 260.827 135.788 260.911C135.836 260.983 135.944 261.151 136.112 261.415C136.268 261.667 136.382 261.835 136.454 261.919C136.526 261.991 136.64 262.123 136.796 262.315C136.952 262.495 137.084 262.621 137.192 262.693C137.3 262.753 137.438 262.837 137.606 262.945C137.762 263.041 137.918 263.107 138.074 263.143C138.23 263.179 138.398 263.197 138.578 263.197L138.56 256.231L140 256.231L140 264.853L139.28 264.853C138.608 264.853 138.002 264.745 137.462 264.529C136.91 264.313 136.442 264.007 136.058 263.611C135.662 263.203 135.332 262.801 135.068 262.405C134.792 262.009 134.498 261.547 134.186 261.019C134.126 260.899 134.078 260.809 134.042 260.749C133.406 259.657 132.92 258.943 132.584 258.607C132.056 258.091 131.462 257.833 130.802 257.833C130.202 257.833 129.746 258.079 129.434 258.571C129.11 259.051 128.948 259.735 128.948 260.623C128.948 261.919 129.38 263.185 130.244 264.421L128.732 264.421Z" fill="#37376D"/>
<path d="M194.4 330.45L194.4 329.154L207 329.154L207 330.666L197.262 330.666L204.03 335.184L204.03 336.12L197.262 340.638L207 340.638L207 342.15L194.4 342.15L194.4 340.854L202.176 335.652L194.4 330.45Z" fill="#37376D"/>
<path d="M205.2 319.282C205.644 319.282 205.866 319.06 205.866 318.616C205.866 318.424 205.824 318.202 205.74 317.95L206.91 317.95C207.042 318.31 207.108 318.67 207.108 319.03C207.108 319.858 206.76 320.386 206.064 320.614C206.832 321.538 207.216 322.66 207.216 323.98C207.216 324.82 206.994 325.54 206.55 326.14C206.094 326.728 205.44 327.022 204.588 327.022C203.568 327.022 202.83 326.644 202.374 325.888C201.906 325.12 201.672 324.196 201.672 323.116C201.672 322.324 201.762 321.526 201.942 320.722L201.636 320.722C200.976 320.722 200.454 320.938 200.07 321.37C199.674 321.802 199.476 322.408 199.476 323.188C199.476 324.28 199.692 325.33 200.124 326.338L198.72 326.338C198.336 325.21 198.144 324.112 198.144 323.044C198.144 321.868 198.462 320.95 199.098 320.29C199.722 319.618 200.628 319.282 201.816 319.282L205.2 319.282ZM204.516 325.546C204.996 325.546 205.362 325.366 205.614 325.006C205.854 324.634 205.974 324.19 205.974 323.674C205.974 322.486 205.554 321.502 204.714 320.722L203.13 320.722C202.962 321.538 202.878 322.27 202.878 322.918C202.878 323.65 203.01 324.274 203.274 324.79C203.526 325.294 203.94 325.546 204.516 325.546Z" fill="#37376D"/>
<path d="M207 314.966L207 316.406L198.36 316.406L198.36 310.088L199.692 310.088L199.692 314.966L207 314.966Z" fill="#37376D"/>
<path d="M205.2 301.528C205.644 301.528 205.866 301.306 205.866 300.862C205.866 300.67 205.824 300.448 205.74 300.196L206.91 300.196C207.042 300.556 207.108 300.916 207.108 301.276C207.108 302.104 206.76 302.632 206.064 302.86C206.832 303.784 207.216 304.906 207.216 306.226C207.216 307.066 206.994 307.786 206.55 308.386C206.094 308.974 205.44 309.268 204.588 309.268C203.568 309.268 202.83 308.89 202.374 308.134C201.906 307.366 201.672 306.442 201.672 305.362C201.672 304.57 201.762 303.772 201.942 302.968L201.636 302.968C200.976 302.968 200.454 303.184 200.07 303.616C199.674 304.048 199.476 304.654 199.476 305.434C199.476 306.526 199.692 307.576 200.124 308.584L198.72 308.584C198.336 307.456 198.144 306.358 198.144 305.29C198.144 304.114 198.462 303.196 199.098 302.536C199.722 301.864 200.628 301.528 201.816 301.528L205.2 301.528ZM204.516 307.792C204.996 307.792 205.362 307.612 205.614 307.252C205.854 306.88 205.974 306.436 205.974 305.92C205.974 304.732 205.554 303.748 204.714 302.968L203.13 302.968C202.962 303.784 202.878 304.516 202.878 305.164C202.878 305.896 203.01 306.52 203.274 307.036C203.526 307.54 203.94 307.792 204.516 307.792Z" fill="#37376D"/>
<path d="M204.678 292.19C205.482 292.19 206.106 292.538 206.55 293.234C206.994 293.918 207.216 294.866 207.216 296.078C207.216 297.29 206.994 298.352 206.55 299.264L205.182 299.264C205.65 298.388 205.884 297.386 205.884 296.258C205.884 294.506 205.428 293.63 204.516 293.63C203.688 293.63 203.274 294.266 203.274 295.538L203.274 297.428L201.942 297.428L201.942 295.538C201.942 294.386 201.57 293.81 200.826 293.81C200.37 293.81 200.028 294.026 199.8 294.458C199.572 294.89 199.458 295.466 199.458 296.186C199.458 297.23 199.686 298.208 200.142 299.12L198.792 299.12C198.348 298.148 198.126 297.116 198.126 296.024C198.126 294.848 198.354 293.948 198.81 293.324C199.254 292.688 199.86 292.37 200.628 292.37C201.144 292.37 201.57 292.514 201.906 292.802C202.242 293.09 202.464 293.48 202.572 293.972C202.704 293.456 202.956 293.03 203.328 292.694C203.7 292.358 204.15 292.19 204.678 292.19Z" fill="#37376D"/>
<path d="M207 288.85L207 290.074L198.36 290.074L198.36 288.634L204.678 288.634L198.36 283.342L198.36 282.118L207 282.118L207 283.558L200.682 283.558L207 288.85Z" fill="#37376D"/>
<path d="M207 278.016L207 279.456L198.36 279.456L198.36 278.016L202.014 278.016L202.014 273.012L198.36 273.012L198.36 271.572L207 271.572L207 273.012L203.346 273.012L203.346 278.016L207 278.016Z" fill="#37376D"/>
<path d="M197.874 256.579C198.498 256.579 199.062 256.747 199.566 257.083C200.058 257.407 200.394 257.833 200.574 258.361C200.766 257.737 201.12 257.203 201.636 256.759C202.14 256.303 202.818 256.075 203.67 256.075C204.81 256.075 205.686 256.501 206.298 257.353C206.91 258.193 207.216 259.261 207.216 260.557C207.216 262.201 206.946 263.623 206.406 264.823L204.912 264.823C205.512 263.659 205.806 262.279 205.794 260.683C205.794 258.583 205.062 257.533 203.598 257.533C202.134 257.533 201.402 258.529 201.402 260.521L201.402 262.393L199.962 262.393L199.98 260.683C199.98 259.819 199.8 259.165 199.44 258.721C199.068 258.265 198.588 258.037 198 258.037C197.364 258.037 196.866 258.289 196.506 258.793C196.134 259.297 195.948 260.011 195.948 260.935C195.948 262.207 196.26 263.431 196.884 264.607L195.408 264.607C194.832 263.479 194.544 262.189 194.544 260.737C194.544 259.489 194.85 258.487 195.462 257.731C196.074 256.963 196.878 256.579 197.874 256.579Z" fill="#37376D"/>
<path d="M261.4 331.468L261.4 330.172L274 330.172L274 331.684L264.262 331.684L271.03 336.202L271.03 337.138L264.262 341.656L274 341.656L274 343.168L261.4 343.168L261.4 341.872L269.176 336.67L261.4 331.468Z" fill="#37376D"/>
<path d="M272.2 320.301C272.644 320.301 272.866 320.079 272.866 319.635C272.866 319.443 272.824 319.221 272.74 318.969L273.91 318.969C274.042 319.329 274.108 319.689 274.108 320.049C274.108 320.877 273.76 321.405 273.064 321.633C273.832 322.557 274.216 323.679 274.216 324.999C274.216 325.839 273.994 326.559 273.55 327.159C273.094 327.747 272.44 328.041 271.588 328.041C270.568 328.041 269.83 327.663 269.374 326.907C268.906 326.139 268.672 325.215 268.672 324.135C268.672 323.343 268.762 322.545 268.942 321.741L268.636 321.741C267.976 321.741 267.454 321.957 267.07 322.389C266.674 322.821 266.476 323.427 266.476 324.207C266.476 325.299 266.692 326.349 267.124 327.357L265.72 327.357C265.336 326.229 265.144 325.131 265.144 324.063C265.144 322.887 265.462 321.969 266.098 321.309C266.722 320.637 267.628 320.301 268.816 320.301L272.2 320.301ZM271.516 326.565C271.996 326.565 272.362 326.385 272.614 326.025C272.854 325.653 272.974 325.209 272.974 324.693C272.974 323.505 272.554 322.521 271.714 321.741L270.13 321.741C269.962 322.557 269.878 323.289 269.878 323.937C269.878 324.669 270.01 325.293 270.274 325.809C270.526 326.313 270.94 326.565 271.516 326.565Z" fill="#37376D"/>
<path d="M274 315.984L274 317.424L265.36 317.424L265.36 311.106L266.692 311.106L266.692 315.984L274 315.984Z" fill="#37376D"/>
<path d="M272.2 302.547C272.644 302.547 272.866 302.325 272.866 301.881C272.866 301.689 272.824 301.467 272.74 301.215L273.91 301.215C274.042 301.575 274.108 301.935 274.108 302.295C274.108 303.123 273.76 303.651 273.064 303.879C273.832 304.803 274.216 305.925 274.216 307.245C274.216 308.085 273.994 308.805 273.55 309.405C273.094 309.993 272.44 310.287 271.588 310.287C270.568 310.287 269.83 309.909 269.374 309.153C268.906 308.385 268.672 307.461 268.672 306.381C268.672 305.589 268.762 304.791 268.942 303.987L268.636 303.987C267.976 303.987 267.454 304.203 267.07 304.635C266.674 305.067 266.476 305.673 266.476 306.453C266.476 307.545 266.692 308.595 267.124 309.603L265.72 309.603C265.336 308.475 265.144 307.377 265.144 306.309C265.144 305.133 265.462 304.215 266.098 303.555C266.722 302.883 267.628 302.547 268.816 302.547L272.2 302.547ZM271.516 308.811C271.996 308.811 272.362 308.631 272.614 308.271C272.854 307.899 272.974 307.455 272.974 306.939C272.974 305.751 272.554 304.767 271.714 303.987L270.13 303.987C269.962 304.803 269.878 305.535 269.878 306.183C269.878 306.915 270.01 307.539 270.274 308.055C270.526 308.559 270.94 308.811 271.516 308.811Z" fill="#37376D"/>
<path d="M271.678 293.208C272.482 293.208 273.106 293.556 273.55 294.252C273.994 294.936 274.216 295.884 274.216 297.096C274.216 298.308 273.994 299.37 273.55 300.282L272.182 300.282C272.65 299.406 272.884 298.404 272.884 297.276C272.884 295.524 272.428 294.648 271.516 294.648C270.688 294.648 270.274 295.284 270.274 296.556L270.274 298.446L268.942 298.446L268.942 296.556C268.942 295.404 268.57 294.828 267.826 294.828C267.37 294.828 267.028 295.044 266.8 295.476C266.572 295.908 266.458 296.484 266.458 297.204C266.458 298.248 266.686 299.226 267.142 300.138L265.792 300.138C265.348 299.166 265.126 298.134 265.126 297.042C265.126 295.866 265.354 294.966 265.81 294.342C266.254 293.706 266.86 293.388 267.628 293.388C268.144 293.388 268.57 293.532 268.906 293.82C269.242 294.108 269.464 294.498 269.572 294.99C269.704 294.474 269.956 294.048 270.328 293.712C270.7 293.376 271.15 293.208 271.678 293.208Z" fill="#37376D"/>
<path d="M274 289.868L274 291.092L265.36 291.092L265.36 289.652L271.678 289.652L265.36 284.36L265.36 283.136L274 283.136L274 284.576L267.682 284.576L274 289.868Z" fill="#37376D"/>
<path d="M274 279.035L274 280.475L265.36 280.475L265.36 279.035L269.014 279.035L269.014 274.031L265.36 274.031L265.36 272.591L274 272.591L274 274.031L270.346 274.031L270.346 279.035L274 279.035Z" fill="#37376D"/>
<path d="M261.76 259.65L261.76 258.012L269.878 258.012L269.878 255.708L271.282 255.708L271.282 258.012L274 258.012L274 259.506L271.282 259.506L271.282 266.328L269.932 266.328L261.76 259.65ZM269.878 259.506L263.794 259.506L269.878 264.474L269.878 259.506Z" fill="#37376D"/>
<path d="M328.4 330.38L328.4 329.084L341 329.084L341 330.596L331.262 330.596L338.03 335.114L338.03 336.05L331.262 340.568L341 340.568L341 342.08L328.4 342.08L328.4 340.784L336.176 335.582L328.4 330.38Z" fill="#37376D"/>
<path d="M339.2 319.212C339.644 319.212 339.866 318.99 339.866 318.546C339.866 318.354 339.824 318.132 339.74 317.88L340.91 317.88C341.042 318.24 341.108 318.6 341.108 318.96C341.108 319.788 340.76 320.316 340.064 320.544C340.832 321.468 341.216 322.59 341.216 323.91C341.216 324.75 340.994 325.47 340.55 326.07C340.094 326.658 339.44 326.952 338.588 326.952C337.568 326.952 336.83 326.574 336.374 325.818C335.906 325.05 335.672 324.126 335.672 323.046C335.672 322.254 335.762 321.456 335.942 320.652L335.636 320.652C334.976 320.652 334.454 320.868 334.07 321.3C333.674 321.732 333.476 322.338 333.476 323.118C333.476 324.21 333.692 325.26 334.124 326.268L332.72 326.268C332.336 325.14 332.144 324.042 332.144 322.974C332.144 321.798 332.462 320.88 333.098 320.22C333.722 319.548 334.628 319.212 335.816 319.212L339.2 319.212ZM338.516 325.476C338.996 325.476 339.362 325.296 339.614 324.936C339.854 324.564 339.974 324.12 339.974 323.604C339.974 322.416 339.554 321.432 338.714 320.652L337.13 320.652C336.962 321.468 336.878 322.2 336.878 322.848C336.878 323.58 337.01 324.204 337.274 324.72C337.526 325.224 337.94 325.476 338.516 325.476Z" fill="#37376D"/>
<path d="M341 314.895L341 316.335L332.36 316.335L332.36 310.017L333.692 310.017L333.692 314.895L341 314.895Z" fill="#37376D"/>
<path d="M339.2 301.458C339.644 301.458 339.866 301.236 339.866 300.792C339.866 300.6 339.824 300.378 339.74 300.126L340.91 300.126C341.042 300.486 341.108 300.846 341.108 301.206C341.108 302.034 340.76 302.562 340.064 302.79C340.832 303.714 341.216 304.836 341.216 306.156C341.216 306.996 340.994 307.716 340.55 308.316C340.094 308.904 339.44 309.198 338.588 309.198C337.568 309.198 336.83 308.82 336.374 308.064C335.906 307.296 335.672 306.372 335.672 305.292C335.672 304.5 335.762 303.702 335.942 302.898L335.636 302.898C334.976 302.898 334.454 303.114 334.07 303.546C333.674 303.978 333.476 304.584 333.476 305.364C333.476 306.456 333.692 307.506 334.124 308.514L332.72 308.514C332.336 307.386 332.144 306.288 332.144 305.22C332.144 304.044 332.462 303.126 333.098 302.466C333.722 301.794 334.628 301.458 335.816 301.458L339.2 301.458ZM338.516 307.722C338.996 307.722 339.362 307.542 339.614 307.182C339.854 306.81 339.974 306.366 339.974 305.85C339.974 304.662 339.554 303.678 338.714 302.898L337.13 302.898C336.962 303.714 336.878 304.446 336.878 305.094C336.878 305.826 337.01 306.45 337.274 306.966C337.526 307.47 337.94 307.722 338.516 307.722Z" fill="#37376D"/>
<path d="M338.678 292.119C339.482 292.119 340.106 292.467 340.55 293.163C340.994 293.847 341.216 294.795 341.216 296.007C341.216 297.219 340.994 298.281 340.55 299.193L339.182 299.193C339.65 298.317 339.884 297.315 339.884 296.187C339.884 294.435 339.428 293.559 338.516 293.559C337.688 293.559 337.274 294.195 337.274 295.467L337.274 297.357L335.942 297.357L335.942 295.467C335.942 294.315 335.57 293.739 334.826 293.739C334.37 293.739 334.028 293.955 333.8 294.387C333.572 294.819 333.458 295.395 333.458 296.115C333.458 297.159 333.686 298.137 334.142 299.049L332.792 299.049C332.348 298.077 332.126 297.045 332.126 295.953C332.126 294.777 332.354 293.877 332.81 293.253C333.254 292.617 333.86 292.299 334.628 292.299C335.144 292.299 335.57 292.443 335.906 292.731C336.242 293.019 336.464 293.409 336.572 293.901C336.704 293.385 336.956 292.959 337.328 292.623C337.7 292.287 338.15 292.119 338.678 292.119Z" fill="#37376D"/>
<path d="M341 288.779L341 290.003L332.36 290.003L332.36 288.563L338.678 288.563L332.36 283.271L332.36 282.047L341 282.047L341 283.487L334.682 283.487L341 288.779Z" fill="#37376D"/>
<path d="M341 277.946L341 279.386L332.36 279.386L332.36 277.946L336.014 277.946L336.014 272.942L332.36 272.942L332.36 271.502L341 271.502L341 272.942L337.346 272.942L337.346 277.946L341 277.946Z" fill="#37376D"/>
<path d="M328.76 263.997L328.76 256.653L330.2 256.653L330.2 262.575L333.656 262.791C333.476 262.143 333.386 261.447 333.386 260.703C333.386 260.091 333.458 259.521 333.602 258.993C333.734 258.465 333.95 257.979 334.25 257.535C334.538 257.079 334.946 256.719 335.474 256.455C335.99 256.191 336.602 256.059 337.31 256.059C338.522 256.059 339.476 256.509 340.172 257.409C340.868 258.297 341.216 259.431 341.216 260.811C341.216 262.299 340.94 263.607 340.388 264.735L338.948 264.735C339.524 263.655 339.812 262.407 339.812 260.991C339.812 259.959 339.596 259.137 339.164 258.525C338.732 257.901 338.114 257.589 337.31 257.589C335.606 257.589 334.754 258.801 334.754 261.225C334.754 262.281 334.946 263.337 335.33 264.393L328.76 263.997Z" fill="#37376D"/>
<path d="M395.4 331.258L395.4 329.962L408 329.962L408 331.474L398.262 331.474L405.03 335.992L405.03 336.928L398.262 341.446L408 341.446L408 342.958L395.4 342.958L395.4 341.662L403.176 336.46L395.4 331.258Z" fill="#37376D"/>
<path d="M406.2 320.09C406.644 320.09 406.866 319.868 406.866 319.424C406.866 319.232 406.824 319.01 406.74 318.758L407.91 318.758C408.042 319.118 408.108 319.478 408.108 319.838C408.108 320.666 407.76 321.194 407.064 321.422C407.832 322.346 408.216 323.468 408.216 324.788C408.216 325.628 407.994 326.348 407.55 326.948C407.094 327.536 406.44 327.83 405.588 327.83C404.568 327.83 403.83 327.452 403.374 326.696C402.906 325.928 402.672 325.004 402.672 323.924C402.672 323.132 402.762 322.334 402.942 321.53L402.636 321.53C401.976 321.53 401.454 321.746 401.07 322.178C400.674 322.61 400.476 323.216 400.476 323.996C400.476 325.088 400.692 326.138 401.124 327.146L399.72 327.146C399.336 326.018 399.144 324.92 399.144 323.852C399.144 322.676 399.462 321.758 400.098 321.098C400.722 320.426 401.628 320.09 402.816 320.09L406.2 320.09ZM405.516 326.354C405.996 326.354 406.362 326.174 406.614 325.814C406.854 325.442 406.974 324.998 406.974 324.482C406.974 323.294 406.554 322.31 405.714 321.53L404.13 321.53C403.962 322.346 403.878 323.078 403.878 323.726C403.878 324.458 404.01 325.082 404.274 325.598C404.526 326.102 404.94 326.354 405.516 326.354Z" fill="#37376D"/>
<path d="M408 315.773L408 317.213L399.36 317.213L399.36 310.895L400.692 310.895L400.692 315.773L408 315.773Z" fill="#37376D"/>
<path d="M406.2 302.336C406.644 302.336 406.866 302.114 406.866 301.67C406.866 301.478 406.824 301.256 406.74 301.004L407.91 301.004C408.042 301.364 408.108 301.724 408.108 302.084C408.108 302.912 407.76 303.44 407.064 303.668C407.832 304.592 408.216 305.714 408.216 307.034C408.216 307.874 407.994 308.594 407.55 309.194C407.094 309.782 406.44 310.076 405.588 310.076C404.568 310.076 403.83 309.698 403.374 308.942C402.906 308.174 402.672 307.25 402.672 306.17C402.672 305.378 402.762 304.58 402.942 303.776L402.636 303.776C401.976 303.776 401.454 303.992 401.07 304.424C400.674 304.856 400.476 305.462 400.476 306.242C400.476 307.334 400.692 308.384 401.124 309.392L399.72 309.392C399.336 308.264 399.144 307.166 399.144 306.098C399.144 304.922 399.462 304.004 400.098 303.344C400.722 302.672 401.628 302.336 402.816 302.336L406.2 302.336ZM405.516 308.6C405.996 308.6 406.362 308.42 406.614 308.06C406.854 307.688 406.974 307.244 406.974 306.728C406.974 305.54 406.554 304.556 405.714 303.776L404.13 303.776C403.962 304.592 403.878 305.324 403.878 305.972C403.878 306.704 404.01 307.328 404.274 307.844C404.526 308.348 404.94 308.6 405.516 308.6Z" fill="#37376D"/>
<path d="M405.678 292.997C406.482 292.997 407.106 293.345 407.55 294.041C407.994 294.725 408.216 295.673 408.216 296.885C408.216 298.097 407.994 299.159 407.55 300.071L406.182 300.071C406.65 299.195 406.884 298.193 406.884 297.065C406.884 295.313 406.428 294.437 405.516 294.437C404.688 294.437 404.274 295.073 404.274 296.345L404.274 298.235L402.942 298.235L402.942 296.345C402.942 295.193 402.57 294.617 401.826 294.617C401.37 294.617 401.028 294.833 400.8 295.265C400.572 295.697 400.458 296.273 400.458 296.993C400.458 298.037 400.686 299.015 401.142 299.927L399.792 299.927C399.348 298.955 399.126 297.923 399.126 296.831C399.126 295.655 399.354 294.755 399.81 294.131C400.254 293.495 400.86 293.177 401.628 293.177C402.144 293.177 402.57 293.321 402.906 293.609C403.242 293.897 403.464 294.287 403.572 294.779C403.704 294.263 403.956 293.837 404.328 293.501C404.7 293.165 405.15 292.997 405.678 292.997Z" fill="#37376D"/>
<path d="M408 289.657L408 290.881L399.36 290.881L399.36 289.441L405.678 289.441L399.36 284.149L399.36 282.925L408 282.925L408 284.365L401.682 284.365L408 289.657Z" fill="#37376D"/>
<path d="M408 278.824L408 280.264L399.36 280.264L399.36 278.824L403.014 278.824L403.014 273.82L399.36 273.82L399.36 272.38L408 272.38L408 273.82L404.346 273.82L404.346 278.824L408 278.824Z" fill="#37376D"/>
<path d="M401.538 264.101C400.758 262.937 400.368 261.659 400.368 260.267C400.368 259.151 400.71 258.173 401.394 257.333C402.066 256.493 403.002 256.073 404.202 256.073C405.462 256.073 406.446 256.493 407.154 257.333C407.862 258.161 408.216 259.205 408.216 260.465C408.216 262.193 407.682 263.489 406.614 264.353C405.534 265.205 404.022 265.631 402.078 265.631C399.918 265.631 398.292 265.121 397.2 264.101C396.096 263.069 395.544 261.725 395.544 260.069C395.544 259.001 395.778 258.011 396.246 257.099L397.686 257.099C397.218 257.987 396.984 258.965 396.984 260.033C396.984 261.161 397.35 262.103 398.082 262.859C398.802 263.603 399.954 264.017 401.538 264.101ZM403.05 264.083C405.558 263.855 406.812 262.685 406.812 260.573C406.812 259.685 406.608 258.971 406.2 258.431C405.792 257.879 405.15 257.603 404.274 257.603C403.386 257.603 402.75 257.885 402.366 258.449C401.97 259.013 401.772 259.745 401.772 260.645C401.772 261.977 402.198 263.123 403.05 264.083Z" fill="#37376D"/>
<path d="M462.4 330.51L462.4 329.214L475 329.214L475 330.726L465.262 330.726L472.03 335.244L472.03 336.18L465.262 340.698L475 340.698L475 342.21L462.4 342.21L462.4 340.914L470.176 335.712L462.4 330.51Z" fill="#37376D"/>
<path d="M473.2 319.343C473.644 319.343 473.866 319.121 473.866 318.677C473.866 318.485 473.824 318.263 473.74 318.011L474.91 318.011C475.042 318.371 475.108 318.731 475.108 319.091C475.108 319.919 474.76 320.447 474.064 320.675C474.832 321.599 475.216 322.721 475.216 324.041C475.216 324.881 474.994 325.601 474.55 326.201C474.094 326.789 473.44 327.083 472.588 327.083C471.568 327.083 470.83 326.705 470.374 325.949C469.906 325.181 469.672 324.257 469.672 323.177C469.672 322.385 469.762 321.587 469.942 320.783L469.636 320.783C468.976 320.783 468.454 320.999 468.07 321.431C467.674 321.863 467.476 322.469 467.476 323.249C467.476 324.341 467.692 325.391 468.124 326.399L466.72 326.399C466.336 325.271 466.144 324.173 466.144 323.105C466.144 321.929 466.462 321.011 467.098 320.351C467.722 319.679 468.628 319.343 469.816 319.343L473.2 319.343ZM472.516 325.607C472.996 325.607 473.362 325.427 473.614 325.067C473.854 324.695 473.974 324.251 473.974 323.735C473.974 322.547 473.554 321.563 472.714 320.783L471.13 320.783C470.962 321.599 470.878 322.331 470.878 322.979C470.878 323.711 471.01 324.335 471.274 324.851C471.526 325.355 471.94 325.607 472.516 325.607Z" fill="#37376D"/>
<path d="M475 315.026L475 316.466L466.36 316.466L466.36 310.148L467.692 310.148L467.692 315.026L475 315.026Z" fill="#37376D"/>
<path d="M473.2 301.589C473.644 301.589 473.866 301.367 473.866 300.923C473.866 300.731 473.824 300.509 473.74 300.257L474.91 300.257C475.042 300.617 475.108 300.977 475.108 301.337C475.108 302.165 474.76 302.693 474.064 302.921C474.832 303.845 475.216 304.967 475.216 306.287C475.216 307.127 474.994 307.847 474.55 308.447C474.094 309.035 473.44 309.329 472.588 309.329C471.568 309.329 470.83 308.951 470.374 308.195C469.906 307.427 469.672 306.503 469.672 305.423C469.672 304.631 469.762 303.833 469.942 303.029L469.636 303.029C468.976 303.029 468.454 303.245 468.07 303.677C467.674 304.109 467.476 304.715 467.476 305.495C467.476 306.587 467.692 307.637 468.124 308.645L466.72 308.645C466.336 307.517 466.144 306.419 466.144 305.351C466.144 304.175 466.462 303.257 467.098 302.597C467.722 301.925 468.628 301.589 469.816 301.589L473.2 301.589ZM472.516 307.853C472.996 307.853 473.362 307.673 473.614 307.313C473.854 306.941 473.974 306.497 473.974 305.981C473.974 304.793 473.554 303.809 472.714 303.029L471.13 303.029C470.962 303.845 470.878 304.577 470.878 305.225C470.878 305.957 471.01 306.581 471.274 307.097C471.526 307.601 471.94 307.853 472.516 307.853Z" fill="#37376D"/>
<path d="M472.678 292.25C473.482 292.25 474.106 292.598 474.55 293.294C474.994 293.978 475.216 294.926 475.216 296.138C475.216 297.35 474.994 298.412 474.55 299.324L473.182 299.324C473.65 298.448 473.884 297.446 473.884 296.318C473.884 294.566 473.428 293.69 472.516 293.69C471.688 293.69 471.274 294.326 471.274 295.598L471.274 297.488L469.942 297.488L469.942 295.598C469.942 294.446 469.57 293.87 468.826 293.87C468.37 293.87 468.028 294.086 467.8 294.518C467.572 294.95 467.458 295.526 467.458 296.246C467.458 297.29 467.686 298.268 468.142 299.18L466.792 299.18C466.348 298.208 466.126 297.176 466.126 296.084C466.126 294.908 466.354 294.008 466.81 293.384C467.254 292.748 467.86 292.43 468.628 292.43C469.144 292.43 469.57 292.574 469.906 292.862C470.242 293.15 470.464 293.54 470.572 294.032C470.704 293.516 470.956 293.09 471.328 292.754C471.7 292.418 472.15 292.25 472.678 292.25Z" fill="#37376D"/>
<path d="M475 288.91L475 290.134L466.36 290.134L466.36 288.694L472.678 288.694L466.36 283.402L466.36 282.178L475 282.178L475 283.618L468.682 283.618L475 288.91Z" fill="#37376D"/>
<path d="M475 278.077L475 279.517L466.36 279.517L466.36 278.077L470.014 278.077L470.014 273.073L466.36 273.073L466.36 271.633L475 271.633L475 273.073L471.346 273.073L471.346 278.077L475 278.077Z" fill="#37376D"/>
<path d="M462.76 265.334L462.76 256.514L464.128 256.514L475 261.626L475 263.246L464.2 258.17L464.2 265.334L462.76 265.334Z" fill="#37376D"/>
<path d="M529.4 331.495L529.4 330.199L542 330.199L542 331.711L532.262 331.711L539.03 336.229L539.03 337.165L532.262 341.683L542 341.683L542 343.195L529.4 343.195L529.4 341.899L537.176 336.697L529.4 331.495Z" fill="#37376D"/>
<path d="M540.2 320.327C540.644 320.327 540.866 320.105 540.866 319.661C540.866 319.469 540.824 319.247 540.74 318.995L541.91 318.995C542.042 319.355 542.108 319.715 542.108 320.075C542.108 320.903 541.76 321.431 541.064 321.659C541.832 322.583 542.216 323.705 542.216 325.025C542.216 325.865 541.994 326.585 541.55 327.185C541.094 327.773 540.44 328.067 539.588 328.067C538.568 328.067 537.83 327.689 537.374 326.933C536.906 326.165 536.672 325.241 536.672 324.161C536.672 323.369 536.762 322.571 536.942 321.767L536.636 321.767C535.976 321.767 535.454 321.983 535.07 322.415C534.674 322.847 534.476 323.453 534.476 324.233C534.476 325.325 534.692 326.375 535.124 327.383L533.72 327.383C533.336 326.255 533.144 325.157 533.144 324.089C533.144 322.913 533.462 321.995 534.098 321.335C534.722 320.663 535.628 320.327 536.816 320.327L540.2 320.327ZM539.516 326.591C539.996 326.591 540.362 326.411 540.614 326.051C540.854 325.679 540.974 325.235 540.974 324.719C540.974 323.531 540.554 322.547 539.714 321.767L538.13 321.767C537.962 322.583 537.878 323.315 537.878 323.963C537.878 324.695 538.01 325.319 538.274 325.835C538.526 326.339 538.94 326.591 539.516 326.591Z" fill="#37376D"/>
<path d="M542 316.01L542 317.45L533.36 317.45L533.36 311.132L534.692 311.132L534.692 316.01L542 316.01Z" fill="#37376D"/>
<path d="M540.2 302.573C540.644 302.573 540.866 302.351 540.866 301.907C540.866 301.715 540.824 301.493 540.74 301.241L541.91 301.241C542.042 301.601 542.108 301.961 542.108 302.321C542.108 303.149 541.76 303.677 541.064 303.905C541.832 304.829 542.216 305.951 542.216 307.271C542.216 308.111 541.994 308.831 541.55 309.431C541.094 310.019 540.44 310.313 539.588 310.313C538.568 310.313 537.83 309.935 537.374 309.179C536.906 308.411 536.672 307.487 536.672 306.407C536.672 305.615 536.762 304.817 536.942 304.013L536.636 304.013C535.976 304.013 535.454 304.229 535.07 304.661C534.674 305.093 534.476 305.699 534.476 306.479C534.476 307.571 534.692 308.621 535.124 309.629L533.72 309.629C533.336 308.501 533.144 307.403 533.144 306.335C533.144 305.159 533.462 304.241 534.098 303.581C534.722 302.909 535.628 302.573 536.816 302.573L540.2 302.573ZM539.516 308.837C539.996 308.837 540.362 308.657 540.614 308.297C540.854 307.925 540.974 307.481 540.974 306.965C540.974 305.777 540.554 304.793 539.714 304.013L538.13 304.013C537.962 304.829 537.878 305.561 537.878 306.209C537.878 306.941 538.01 307.565 538.274 308.081C538.526 308.585 538.94 308.837 539.516 308.837Z" fill="#37376D"/>
<path d="M539.678 293.235C540.482 293.235 541.106 293.583 541.55 294.279C541.994 294.963 542.216 295.911 542.216 297.123C542.216 298.335 541.994 299.397 541.55 300.309L540.182 300.309C540.65 299.433 540.884 298.431 540.884 297.303C540.884 295.551 540.428 294.675 539.516 294.675C538.688 294.675 538.274 295.311 538.274 296.583L538.274 298.473L536.942 298.473L536.942 296.583C536.942 295.431 536.57 294.855 535.826 294.855C535.37 294.855 535.028 295.071 534.8 295.503C534.572 295.935 534.458 296.511 534.458 297.231C534.458 298.275 534.686 299.253 535.142 300.165L533.792 300.165C533.348 299.193 533.126 298.161 533.126 297.069C533.126 295.893 533.354 294.993 533.81 294.369C534.254 293.733 534.86 293.415 535.628 293.415C536.144 293.415 536.57 293.559 536.906 293.847C537.242 294.135 537.464 294.525 537.572 295.017C537.704 294.501 537.956 294.075 538.328 293.739C538.7 293.403 539.15 293.235 539.678 293.235Z" fill="#37376D"/>
<path d="M542 289.894L542 291.118L533.36 291.118L533.36 289.678L539.678 289.678L533.36 284.386L533.36 283.162L542 283.162L542 284.602L535.682 284.602L542 289.894Z" fill="#37376D"/>
<path d="M542 279.061L542 280.501L533.36 280.501L533.36 279.061L537.014 279.061L537.014 274.057L533.36 274.057L533.36 272.617L542 272.617L542 274.057L538.346 274.057L538.346 279.061L542 279.061Z" fill="#37376D"/>
<path d="M532.712 265.49C531.848 265.49 531.104 265.112 530.48 264.356C529.856 263.6 529.544 262.49 529.544 261.026C529.544 259.67 529.874 258.578 530.534 257.75C531.194 256.922 531.986 256.496 532.91 256.472C534.17 256.436 535.202 256.994 536.006 258.146C536.702 256.742 537.662 256.04 538.886 256.04C539.822 256.04 540.614 256.454 541.262 257.282C541.898 258.098 542.216 259.31 542.216 260.918C542.216 262.514 541.868 263.75 541.172 264.626C540.476 265.49 539.63 265.922 538.634 265.922C538.034 265.922 537.44 265.748 536.852 265.4C536.252 265.04 535.748 264.518 535.34 263.834C534.668 264.938 533.792 265.49 532.712 265.49ZM536.492 260.846C536.324 261.47 536.144 262.04 535.952 262.556C536.24 263.156 536.612 263.618 537.068 263.942C537.524 264.254 537.992 264.41 538.472 264.41C539.204 264.41 539.78 264.11 540.2 263.51C540.608 262.898 540.812 262.022 540.812 260.882C540.812 259.922 540.644 259.13 540.308 258.506C539.96 257.87 539.51 257.552 538.958 257.552C538.49 257.552 538.094 257.72 537.77 258.056C537.434 258.38 537.206 258.698 537.086 259.01C536.966 259.322 536.798 259.838 536.582 260.558C536.546 260.69 536.516 260.786 536.492 260.846ZM533.18 257.984C532.544 257.984 532.016 258.254 531.596 258.794C531.164 259.334 530.948 260.09 530.948 261.062C530.948 261.95 531.116 262.658 531.452 263.186C531.776 263.714 532.19 263.978 532.694 263.978C533.042 263.978 533.348 263.906 533.612 263.762C533.864 263.606 534.08 263.378 534.26 263.078C534.428 262.766 534.566 262.484 534.674 262.232C534.77 261.98 534.878 261.644 534.998 261.224C535.01 261.176 535.022 261.14 535.034 261.116C535.034 261.092 535.04 261.062 535.052 261.026C535.064 260.99 535.076 260.954 535.088 260.918C535.1 260.882 535.16 260.678 535.268 260.306C535.364 259.922 535.442 259.628 535.502 259.424C534.878 258.464 534.104 257.984 533.18 257.984Z" fill="#37376D"/>
<path d="M50 132C50 130.895 50.8954 130 52 130H85C86.1046 130 87 130.895 87 132V234C87 235.105 86.1046 236 85 236H52C50.8954 236 50 235.105 50 234V132Z" fill="#0FA7F0"/>
<path d="M117 132C117 130.895 117.895 130 119 130H152C153.105 130 154 130.895 154 132V234C154 235.105 153.105 236 152 236H119C117.895 236 117 235.105 117 234V132Z" fill="#0FA7F0"/>
<path d="M184 112C184 110.895 184.895 110 186 110H219C220.105 110 221 110.895 221 112V234C221 235.105 220.105 236 219 236H186C184.895 236 184 235.105 184 234V112Z" fill="#0FA7F0"/>
<path d="M251 132C251 130.895 251.895 130 253 130H286C287.105 130 288 130.895 288 132V234C288 235.105 287.105 236 286 236H253C251.895 236 251 235.105 251 234V132Z" fill="#0FA7F0"/>
<path d="M318 62C318 60.8954 318.895 60 320 60H336.5H353C354.105 60 355 60.8954 355 62V234C355 235.105 354.105 236 353 236H320C318.895 236 318 235.105 318 234V62Z" fill="#0FA7F0"/>
<path d="M385 112C385 110.895 385.895 110 387 110H420C421.105 110 422 110.895 422 112V234C422 235.105 421.105 236 420 236H387C385.895 236 385 235.105 385 234V112Z" fill="#0FA7F0"/>
<path d="M452 182C452 180.895 452.895 180 454 180H487C488.105 180 489 180.895 489 182V234C489 235.105 488.105 236 487 236H454C452.895 236 452 235.105 452 234V182Z" fill="#0FA7F0"/>
<path d="M519 132C519 130.895 519.895 130 521 130H554C555.105 130 556 130.895 556 132V234C556 235.105 555.105 236 554 236H521C519.895 236 519 235.105 519 234V132Z" fill="#0FA7F0"/>
<path d="M50 32C50 30.8954 50.8954 30 52 30H85C86.1046 30 87 30.8954 87 32V125C87 126.105 86.1046 127 85 127H52C50.8954 127 50 126.105 50 125V32Z" fill="#FFEEA2"/>
<path d="M117 77C117 75.8954 117.895 75 119 75H152C153.105 75 154 75.8954 154 77V125C154 126.105 153.105 127 152 127H119C117.895 127 117 126.105 117 125V77Z" fill="#FFEEA2"/>
<path d="M184 97C184 95.8954 184.895 95 186 95H219C220.105 95 221 95.8954 221 97V105C221 106.105 220.105 107 219 107H186C184.895 107 184 106.105 184 105V97Z" fill="#FFEEA2"/>
<path d="M251 47C251 45.8954 251.895 45 253 45H286C287.105 45 288 45.8954 288 47V125C288 126.105 287.105 127 286 127H253C251.895 127 251 126.105 251 125V47Z" fill="#FFEEA2"/>
<path d="M318 27C318 25.8954 318.895 25 320 25H353C354.105 25 355 25.8954 355 27V55C355 56.1046 354.105 57 353 57H320C318.895 57 318 56.1046 318 55V27Z" fill="#FFEEA2"/>
<path d="M385 77C385 75.8954 385.895 75 387 75H420C421.105 75 422 75.8954 422 77V105C422 106.105 421.105 107 420 107H387C385.895 107 385 106.105 385 105V77Z" fill="#FFEEA2"/>
<path d="M452 97C452 95.8954 452.895 95 454 95H487C488.105 95 489 95.8954 489 97V175C489 176.105 488.105 177 487 177H454C452.895 177 452 176.105 452 175V97Z" fill="#FFEEA2"/>
<path d="M519 67C519 65.8954 519.895 65 521 65H554C555.105 65 556 65.8954 556 67V125C556 126.105 555.105 127 554 127H521C519.895 127 519 126.105 519 125V67Z" fill="#FFEEA2"/>
<path d="M50 2C50 0.895431 50.8954 0 52 0H85C86.1046 0 87 0.895431 87 2V25C87 26.1046 86.1046 27 85 27H52C50.8954 27 50 26.1046 50 25V2Z" fill="#F28100"/>
<path d="M117 2C117 0.895432 117.895 0 119 0H152C153.105 0 154 0.895431 154 2V70C154 71.1046 153.105 72 152 72H119C117.895 72 117 71.1046 117 70V2Z" fill="#F28100"/>
<path d="M184 2C184 0.89543 184.895 0 186 0H219C220.105 0 221 0.895431 221 2V90C221 91.1046 220.105 92 219 92H186C184.895 92 184 91.1046 184 90V2Z" fill="#F28100"/>
<path d="M251 2C251 0.89543 251.895 0 253 0H286C287.105 0 288 0.895431 288 2V40C288 41.1046 287.105 42 286 42H253C251.895 42 251 41.1046 251 40V2Z" fill="#F28100"/>
<path d="M318 2C318 0.89543 318.895 0 320 0H353C354.105 0 355 0.895431 355 2V20C355 21.1046 354.105 22 353 22H320C318.895 22 318 21.1046 318 20V2Z" fill="#F28100"/>
<path d="M385 2C385 0.895432 385.895 0 387 0H420C421.105 0 422 0.895431 422 2V70C422 71.1046 421.105 72 420 72H387C385.895 72 385 71.1046 385 70V2Z" fill="#F28100"/>
<path d="M452 2C452 0.89543 452.895 0 454 0H487C488.105 0 489 0.895431 489 2V90C489 91.1046 488.105 92 487 92H454C452.895 92 452 91.1046 452 90V2Z" fill="#F28100"/>
<path d="M519 2C519 0.895432 519.895 0 521 0H554C555.105 0 556 0.89543 556 2V60C556 61.1046 555.105 62 554 62H521C519.895 62 519 61.1046 519 60V2Z" fill="#F28100"/>
<path fill-rule="evenodd" clip-rule="evenodd" d="M35 257L35 237L36 237L36 257L35 257Z" fill="#37376D"/>
<path fill-rule="evenodd" clip-rule="evenodd" d="M235 257L235 237L236 237L236 257L235 257Z" fill="#37376D"/>
<path fill-rule="evenodd" clip-rule="evenodd" d="M436 257L436 237L437 237L437 257L436 257Z" fill="#37376D"/>
<path fill-rule="evenodd" clip-rule="evenodd" d="M102 257L102 237L103 237L103 257L102 257Z" fill="#37376D"/>
<path fill-rule="evenodd" clip-rule="evenodd" d="M302 257L302 237L303 237L303 257L302 257Z" fill="#37376D"/>
<path fill-rule="evenodd" clip-rule="evenodd" d="M503 257L503 237L504 237L504 257L503 257Z" fill="#37376D"/>
<path fill-rule="evenodd" clip-rule="evenodd" d="M169 257L169 237L170 237L170 257L169 257Z" fill="#37376D"/>
<path fill-rule="evenodd" clip-rule="evenodd" d="M369 257L369 237L370 237L370 257L369 257Z" fill="#37376D"/>
</svg>
