<svg width="80" height="80" viewBox="0 0 80 80" fill="none" xmlns="http://www.w3.org/2000/svg">
<g clip-path="url(#clip0)">
<path d="M58.6667 56H2.66667C1.19401 56 0 57.194 0 58.6667V77.3333C0 78.806 1.19401 80 2.66667 80H58.6667C60.1393 80 61.3333 78.806 61.3333 77.3333V58.6667C61.3333 57.194 60.1393 56 58.6667 56ZM58.6667 77.3333H2.66667V58.6667H58.6667V77.3333Z" fill="#0FA7F0"/>
<path d="M10.6665 72H47.9998V74.6667H10.6665V72Z" fill="#0FA7F0"/>
<path d="M50.6665 72H55.9998V74.6667H50.6665V72Z" fill="#0FA7F0"/>
<path d="M5.3335 72H8.00016V74.6667H5.3335V72Z" fill="#0FA7F0"/>
<path d="M10.6665 66.667H13.3332V69.3337H10.6665V66.667Z" fill="#0FA7F0"/>
<path d="M5.3335 66.667H8.00016V69.3337H5.3335V66.667Z" fill="#0FA7F0"/>
<path d="M16 66.667H18.6667V69.3337H16V66.667Z" fill="#0FA7F0"/>
<path d="M21.3335 66.667H24.0002V69.3337H21.3335V66.667Z" fill="#0FA7F0"/>
<path d="M26.6665 66.667H29.3332V69.3337H26.6665V66.667Z" fill="#0FA7F0"/>
<path d="M32 66.667H34.6667V69.3337H32V66.667Z" fill="#0FA7F0"/>
<path d="M37.3335 66.667H40.0002V69.3337H37.3335V66.667Z" fill="#0FA7F0"/>
<path d="M42.6665 66.667H45.3332V69.3337H42.6665V66.667Z" fill="#0FA7F0"/>
<path d="M48 66.667H50.6667V69.3337H48V66.667Z" fill="#0FA7F0"/>
<path d="M53.3335 66.667H56.0002V69.3337H53.3335V66.667Z" fill="#0FA7F0"/>
<path d="M10.6665 61.333H13.3332V63.9997H10.6665V61.333Z" fill="#0FA7F0"/>
<path d="M5.3335 61.333H8.00016V63.9997H5.3335V61.333Z" fill="#0FA7F0"/>
<path d="M16 61.333H18.6667V63.9997H16V61.333Z" fill="#0FA7F0"/>
<path d="M21.3335 61.333H24.0002V63.9997H21.3335V61.333Z" fill="#0FA7F0"/>
<path d="M26.6665 61.333H29.3332V63.9997H26.6665V61.333Z" fill="#0FA7F0"/>
<path d="M32 61.333H34.6667V63.9997H32V61.333Z" fill="#0FA7F0"/>
<path d="M37.3335 61.333H40.0002V63.9997H37.3335V61.333Z" fill="#0FA7F0"/>
<path d="M42.6665 61.333H45.3332V63.9997H42.6665V61.333Z" fill="#0FA7F0"/>
<path d="M48 61.333H50.6667V63.9997H48V61.333Z" fill="#0FA7F0"/>
<path d="M53.3335 61.333H56.0002V63.9997H53.3335V61.333Z" fill="#0FA7F0"/>
<path d="M75.9998 58.667H70.6665C68.4575 58.667 66.6665 60.458 66.6665 62.667V70.667C66.6665 74.3486 69.6515 77.3337 73.3332 77.3337C77.0148 77.3337 79.9998 74.3486 79.9998 70.667V62.667C79.9998 60.458 78.2088 58.667 75.9998 58.667ZM77.3332 70.667C77.3332 72.876 75.5422 74.667 73.3332 74.667C71.1242 74.667 69.3332 72.876 69.3332 70.667V62.667C69.3332 61.9307 69.9302 61.3337 70.6665 61.3337H75.9998C76.7362 61.3337 77.3332 61.9307 77.3332 62.667V70.667Z" fill="#0FA7F0"/>
<path d="M72 64H74.6667V66.6667H72V64Z" fill="#0FA7F0"/>
<path d="M30.6665 5.33301H35.9998V7.99967H30.6665V5.33301Z" fill="#0FA7F0"/>
<path d="M30.6665 10.667H41.3332V13.3337H30.6665V10.667Z" fill="#0FA7F0"/>
<path d="M68 40.0003V10.667C68 8.45801 66.209 6.66699 64 6.66699H58.6667V9.33366H64C64.7363 9.33366 65.3333 9.93066 65.3333 10.667V36.0003H14.6667V10.667C14.6667 9.93066 15.2637 9.33366 16 9.33366H21.3333V6.66699H16C13.791 6.66699 12 8.45801 12 10.667V40.0003C12 42.2093 13.791 44.0003 16 44.0003H32V50.667H28V53.3337H52V50.667H48V44.0003H64C66.209 44.0003 68 42.2093 68 40.0003ZM45.3333 50.667H34.6667V44.0003H45.3333V50.667ZM64 41.3337H16C15.2637 41.3337 14.6667 40.7367 14.6667 40.0003V38.667H65.3333V40.0003C65.3333 40.7367 64.7363 41.3337 64 41.3337Z" fill="#0FA7F0"/>
<path d="M20 29.3333V32H60V29.3333H56V8C56 7.64583 55.86 7.30664 55.6094 7.05599L48.931 0.389323C48.6803 0.139974 48.3411 0 47.9883 0H26.6667C25.194 0 24 1.19401 24 2.66667V29.3333H20ZM49.3333 4.5599L51.444 6.66667H49.3333V4.5599ZM26.6667 2.66667H46.6667V6.66667C46.6667 8.13932 47.8607 9.33333 49.3333 9.33333H53.3333V29.3333H26.6667V2.66667Z" fill="#0FA7F0"/>
<path d="M30.6665 16H49.3332V18.6667H30.6665V16Z" fill="#0FA7F0"/>
<path d="M30.6665 21.333H49.3332V23.9997H30.6665V21.333Z" fill="#0FA7F0"/>
</g>
<defs>
<clipPath id="clip0">
<rect width="80" height="80" fill="white"/>
</clipPath>
</defs>
</svg>
