<svg viewBox="0 0 183 48" fill="none" xmlns="http://www.w3.org/2000/svg">
<path d="M55.5566 16.165H62.3242C66.2863 16.165 68.6868 18.5157 68.6868 21.9691C68.6868 25.8289 65.7079 27.8313 61.9771 27.8313H59.2007V32.7938H55.5566V16.165ZM62.0928 24.552C63.9148 24.552 64.9849 23.4492 64.9849 21.9691C64.9849 20.315 63.857 19.4444 62.0349 19.4444H59.2007V24.523H62.0928V24.552Z" fill="white"/>
<path d="M73.4883 16.165H81.0656C83.1768 16.165 84.7964 16.7454 85.8954 17.8482C86.8209 18.7769 87.3125 20.0828 87.3125 21.708C87.3125 24.4069 85.8665 26.0901 83.7553 26.8736L87.8042 32.8228H83.5817L79.9666 27.4831H77.1323V32.7938H73.4883V16.165ZM80.8342 24.2328C82.5984 24.2328 83.6396 23.2751 83.6396 21.824C83.6396 20.2569 82.5406 19.4444 80.7764 19.4444H77.1612V24.2328H80.8342Z" fill="white"/>
<path d="M96.5376 16.165H92.8936V32.9099H96.5376V16.165Z" fill="white"/>
<path d="M103.045 24.4648C103.045 19.7345 106.602 15.8457 111.692 15.8457C114.816 15.8457 116.58 17.0355 118.113 18.5446L115.944 21.0694C114.671 19.9086 113.572 19.2121 111.663 19.2121C108.858 19.2121 106.863 21.5337 106.863 24.4358C106.863 27.2798 108.829 29.6595 111.663 29.6595C113.572 29.6595 114.729 28.9049 116.03 27.7151L118.344 30.2109C116.638 32.0392 114.729 33.0549 111.548 33.0549C106.689 33.0839 103.045 29.3112 103.045 24.4648Z" fill="white"/>
<path d="M123.377 16.165H135.9V19.4153H127.021V22.7817H134.83V26.061H127.021V29.5435H136.015V32.7938H123.377V16.165Z" fill="white"/>
<path d="M141.365 16.165H148.943C151.054 16.165 152.674 16.7454 153.773 17.8482C154.698 18.7769 155.19 20.0828 155.19 21.708C155.19 24.4069 153.744 26.0901 151.632 26.8736L155.681 32.8228H151.401L147.786 27.4831H144.952V32.7938H141.308V16.165H141.365ZM148.711 24.2328C150.476 24.2328 151.517 23.2751 151.517 21.824C151.517 20.2569 150.418 19.4444 148.654 19.4444H145.038V24.2328H148.711Z" fill="white"/>
<path d="M162.016 26.0027L165.891 22.8105C167.337 21.5916 167.916 20.9532 167.916 19.9955C167.916 19.0088 167.25 18.4574 166.354 18.4574C165.457 18.4574 164.821 18.9507 163.953 20.0245L162.16 18.5735C163.317 17.0064 164.445 16.1357 166.527 16.1357C168.957 16.1357 170.547 17.5577 170.547 19.7923C170.547 21.7657 169.535 22.7234 167.482 24.3195L165.573 25.7996H170.663V28.0342H162.016V26.0027Z" fill="#0FA7F0"/>
<path d="M177.979 25.5092H172.282L171.877 23.6809L178.297 16.2227H180.467V23.4198H182.028V25.5092H180.467V28.034H178.008V25.5092H177.979ZM177.979 23.4198V19.7632L174.885 23.4198H177.979Z" fill="#0FA7F0"/>
<path d="M180.987 30.9648H162.102V32.7351H180.987V30.9648Z" fill="#0FA7F0"/>
<path d="M99.6616 16.165H97.8975V32.9099H99.6616V16.165Z" fill="white"/>
<path d="M4.62723 0.812576L5.66839 10.4474L5.84191 12.2757H1.79297L1.99542 10.4474L3.00765 0.812576L3.09441 0H4.54047L4.62723 0.812576Z" fill="#F28100"/>
<path d="M36.8167 0.812576L37.8289 10.4474L38.0314 12.2757H33.9824L34.1559 10.4474L35.1971 0.812576L35.2839 0H36.7299L36.8167 0.812576Z" fill="#F28100"/>
<path d="M17.9887 30.7331C17.1789 31.4587 16.398 32.0681 15.5883 32.6775C14.7785 33.287 13.9687 33.8964 13.101 34.4768C11.3947 35.6376 9.65944 36.7114 7.66389 37.611C6.73842 38.0173 5.63942 37.611 5.23452 36.6824C4.85855 35.8408 5.17668 34.8541 5.92863 34.3897L5.98647 34.3607C7.49036 33.4321 8.90749 32.2422 10.2957 30.9653C10.9898 30.3269 11.655 29.6594 12.3202 28.9919C12.9564 28.3244 13.6505 27.5989 14.2 26.9605C15.1834 25.8287 16.8608 25.7126 17.9887 26.6703C19.1166 27.657 19.2323 29.3402 18.2779 30.472C18.1911 30.559 18.1044 30.6461 17.9887 30.7331Z" fill="#41418E"/>
<path d="M24.2935 25.3643C25.1612 25.5675 26.2023 25.6255 27.2145 25.6255C28.2557 25.6255 29.3258 25.5384 30.3669 25.3933C32.4782 25.1031 34.5894 24.5517 36.4982 23.6811L36.5271 23.6521C37.4526 23.2168 38.5516 23.6521 38.9565 24.5808C39.3325 25.4514 39.0143 26.4381 38.2335 26.9024C36.0355 28.2373 33.6929 29.166 31.2635 29.8335C30.0488 30.1527 28.8052 30.4139 27.5327 30.559C26.2602 30.7041 24.9298 30.7912 23.5127 30.6751H23.4837C22.0088 30.559 20.9098 29.2531 21.0254 27.773C21.1411 26.293 22.4426 25.1902 23.9175 25.3063C24.0622 25.3063 24.1778 25.3353 24.2935 25.3643Z" fill="#41418E"/>
<path d="M38.4358 11.6668C38.4358 17.8482 30.1933 22.8687 19.9842 22.8687C9.77509 22.8687 1.56152 17.8482 1.56152 11.6668C1.56152 5.4854 9.83293 0.464844 20.0131 0.464844C30.1933 0.464844 38.4358 5.4854 38.4358 11.6668Z" fill="#0FA7F0"/>
<path d="M32.0733 11.6658C32.0733 15.0902 26.665 18.0503 20.0132 18.0503C13.3614 18.0503 7.95312 15.0902 7.95312 11.6658C7.95312 8.24135 13.3614 5.28125 20.0132 5.28125C26.665 5.31027 32.0733 8.27037 32.0733 11.6658Z" fill="white"/>
<path d="M24.1779 11.6663C24.1779 13.9879 22.3269 15.8452 20.0133 15.8452C17.6996 15.8452 15.8486 13.9879 15.8486 11.6663C15.8486 9.34462 17.6996 7.4873 20.0133 7.4873C22.298 7.4873 24.1779 9.37364 24.1779 11.6663Z" fill="#41418E"/>
<path d="M31.8419 40.6577L27.3591 28.2659C26.665 26.4376 24.9297 25.2188 22.992 25.2188H17.6416C15.0677 25.2188 12.9854 27.3082 12.9854 29.8911V40.6287H31.8419V40.6577Z" fill="#0FA7F0"/>
<path d="M0 34.5346C1.01224 33.6349 2.54505 33.1996 3.96218 33.4608C5.37931 33.693 6.7386 34.5926 7.51947 35.8405C8.32925 37.0884 8.5317 38.6845 8.15573 40.0775C7.77976 41.4705 6.76752 42.6893 5.49499 43.2117L4.04894 40.9481C4.48276 40.4257 4.68521 39.8743 4.74305 39.323C4.77197 38.7716 4.65628 38.2782 4.36707 37.8429C4.10679 37.4076 3.70189 37.0884 3.18131 36.8852C2.66073 36.6821 2.08231 36.6531 1.41713 36.7982L0 34.5346Z" fill="#F28100"/>
<path d="M41.1259 21.3012C40.6342 21.7655 40.345 22.2588 40.2004 22.7812C40.0847 23.3036 40.1426 23.8259 40.3161 24.2903C40.5185 24.7546 40.8656 25.1609 41.3283 25.4221C41.791 25.6833 42.3695 25.8284 43.0347 25.7703L44.1047 28.2371C42.9479 28.9916 41.3862 29.1367 40.0269 28.6724C38.6676 28.2081 37.4529 27.1053 36.9034 25.7413C36.325 24.3773 36.325 22.7522 36.9612 21.4463C37.5686 20.1113 38.7543 19.0956 40.0847 18.7764L41.1259 21.3012Z" fill="#F28100"/>
<path d="M19.4638 40.6582H12.9565V48.0004H19.4638V40.6582Z" fill="#41418E"/>
<path d="M27.9664 48.0004H34.5026L31.8418 40.6582H25.3057L27.9664 48.0004Z" fill="#41418E"/>
</svg>
