<svg width="16" height="16" viewBox="0 0 16 16" fill="none" xmlns="http://www.w3.org/2000/svg">
    <path fill-rule="evenodd" clip-rule="evenodd" d="M5.33333 0.832031C5.60948 0.832031 5.83333 1.05589 5.83333 1.33203V1.83203H10.1667V1.33203C10.1667 1.05589 10.3905 0.832031 10.6667 0.832031C10.9428 0.832031 11.1667 1.05589 11.1667 1.33203V1.8522C12.1906 1.93742 13.0025 2.29226 13.5747 2.90847C14.2309 3.61513 14.5 4.58872 14.5 5.66536V11.332C14.5 12.4087 14.2309 13.3823 13.5747 14.0889C12.9123 14.8023 11.9286 15.1654 10.6667 15.1654H5.33333C4.07137 15.1654 3.08768 14.8023 2.42527 14.0889C1.76909 13.3823 1.5 12.4087 1.5 11.332V5.66536C1.5 4.58872 1.76909 3.61513 2.42527 2.90847C2.99747 2.29226 3.80939 1.93742 4.83333 1.8522V1.33203C4.83333 1.05589 5.05719 0.832031 5.33333 0.832031ZM4.83333 2.85622C4.04334 2.93648 3.50941 3.21055 3.15806 3.58892C2.74752 4.03105 2.51825 4.68846 2.50105 5.5587H13.499C13.4817 4.68846 13.2525 4.03105 12.8419 3.58892C12.4906 3.21055 11.9567 2.93648 11.1667 2.85622V3.33203C11.1667 3.60817 10.9428 3.83203 10.6667 3.83203C10.3905 3.83203 10.1667 3.60817 10.1667 3.33203V2.83203H5.83333V3.33203C5.83333 3.60817 5.60948 3.83203 5.33333 3.83203C5.05719 3.83203 4.83333 3.60817 4.83333 3.33203V2.85622ZM13.5 6.5587H2.5V11.332C2.5 12.2554 2.73091 12.9485 3.15806 13.4085C3.57899 13.8618 4.26197 14.1654 5.33333 14.1654H10.6667C11.738 14.1654 12.421 13.8618 12.8419 13.4085C13.2691 12.9485 13.5 12.2554 13.5 11.332V6.5587Z" fill="#777777"/>
    <path fill-rule="evenodd" clip-rule="evenodd" d="M4.8623 9.13346C4.8623 8.76527 5.16078 8.4668 5.52897 8.4668H5.53564C5.90383 8.4668 6.2023 8.76527 6.2023 9.13346C6.2023 9.50165 5.90383 9.80013 5.53564 9.80013H5.52897C5.16078 9.80013 4.8623 9.50165 4.8623 9.13346ZM7.32964 9.13346C7.32964 8.76527 7.62812 8.4668 7.9963 8.4668H8.00297C8.37116 8.4668 8.66964 8.76527 8.66964 9.13346C8.66964 9.50165 8.37116 9.80013 8.00297 9.80013H7.9963C7.62812 9.80013 7.32964 9.50165 7.32964 9.13346ZM9.7963 9.13346C9.7963 8.76527 10.0948 8.4668 10.463 8.4668H10.469C10.8372 8.4668 11.1356 8.76527 11.1356 9.13346C11.1356 9.50165 10.8372 9.80013 10.469 9.80013H10.463C10.0948 9.80013 9.7963 9.50165 9.7963 9.13346ZM4.8623 11.1335C4.8623 10.7653 5.16078 10.4668 5.52897 10.4668H5.53564C5.90383 10.4668 6.2023 10.7653 6.2023 11.1335C6.2023 11.5017 5.90383 11.8001 5.53564 11.8001H5.52897C5.16078 11.8001 4.8623 11.5017 4.8623 11.1335ZM7.32964 11.1335C7.32964 10.7653 7.62812 10.4668 7.9963 10.4668H8.00297C8.37116 10.4668 8.66964 10.7653 8.66964 11.1335C8.66964 11.5017 8.37116 11.8001 8.00297 11.8001H7.9963C7.62812 11.8001 7.32964 11.5017 7.32964 11.1335ZM9.7963 11.1335C9.7963 10.7653 10.0948 10.4668 10.463 10.4668H10.469C10.8372 10.4668 11.1356 10.7653 11.1356 11.1335C11.1356 11.5017 10.8372 11.8001 10.469 11.8001H10.463C10.0948 11.8001 9.7963 11.5017 9.7963 11.1335Z" fill="#777777"/>
</svg>
