<svg width="24" height="22" viewBox="0 0 24 22" fill="none" xmlns="http://www.w3.org/2000/svg">
<path fill-rule="evenodd" clip-rule="evenodd" d="M7.66667 4L8.20818 2.78159C8.68969 1.6982 9.76405 1 10.9496 1H13.0504C14.2359 1 15.3103 1.6982 15.7918 2.78158L16.3333 4H19C20.6569 4 22 5.34315 22 7V18C22 19.6569 20.6569 21 19 21H5C3.34315 21 2 19.6569 2 18V7C2 5.34315 3.34315 4 5 4H7.66667ZM10.9496 2.5H13.0504C13.6432 2.5 14.1803 2.8491 14.4211 3.39079L14.6919 4H9.30814L9.5789 3.39079C9.81965 2.8491 10.3568 2.5 10.9496 2.5ZM5 5.5C4.17157 5.5 3.5 6.17157 3.5 7V18C3.5 18.8284 4.17157 19.5 5 19.5H19C19.8284 19.5 20.5 18.8284 20.5 18V7C20.5 6.17157 19.8284 5.5 19 5.5H5Z" fill="#37376D"/>
<path fill-rule="evenodd" clip-rule="evenodd" d="M14.7324 13H19C20.6569 13 22 11.6569 22 10V7C22 5.34315 20.6569 4 19 4H5C3.34315 4 2 5.34315 2 7V10C2 11.6569 3.34315 13 5 13H9.26756C9.61337 13.5978 10.2597 14 11 14H13C13.7403 14 14.3866 13.5978 14.7324 13ZM19 5.5H5C4.17157 5.5 3.5 6.17157 3.5 7V10C3.5 10.8284 4.17157 11.5 5 11.5H9.06301C9.28503 10.6374 10.0681 10 11 10H13C13.9319 10 14.715 10.6374 14.937 11.5H19C19.8284 11.5 20.5 10.8284 20.5 10V7C20.5 6.17157 19.8284 5.5 19 5.5ZM11 11.5H13C13.2761 11.5 13.5 11.7239 13.5 12C13.5 12.2761 13.2761 12.5 13 12.5H11C10.7239 12.5 10.5 12.2761 10.5 12C10.5 11.7239 10.7239 11.5 11 11.5Z" fill="#37376D"/>
</svg>
