<svg width="16" height="16" viewBox="0 0 16 16" fill="none" xmlns="http://www.w3.org/2000/svg">
<path fill-rule="evenodd" clip-rule="evenodd" d="M8.00001 6.11328C6.95615 6.11328 6.11334 6.95609 6.11334 7.99995C6.11334 9.04381 6.95615 9.88661 8.00001 9.88661C9.04387 9.88661 9.88668 9.04381 9.88668 7.99995C9.88668 6.95609 9.04387 6.11328 8.00001 6.11328ZM5.11334 7.99995C5.11334 6.40381 6.40387 5.11328 8.00001 5.11328C9.59615 5.11328 10.8867 6.40381 10.8867 7.99995C10.8867 9.59609 9.59615 10.8866 8.00001 10.8866C6.40387 10.8866 5.11334 9.59609 5.11334 7.99995Z" fill="#777777"/>
<path fill-rule="evenodd" clip-rule="evenodd" d="M1.50501 5.99844C3.09896 3.49287 5.4347 1.98047 8.00002 1.98047C10.5654 1.98047 12.9013 3.493 14.4952 5.99877C14.8585 6.56833 15.0233 7.29791 15.0233 7.99713C15.0233 8.69636 14.8585 9.42594 14.4952 9.9955C12.9013 12.5013 10.5654 14.0138 8.00002 14.0138C5.43459 14.0138 3.09875 12.5013 1.50481 9.9955C1.14149 9.42594 0.976685 8.69636 0.976685 7.99713C0.976685 7.29777 1.14155 6.56805 1.50501 5.99844ZM8.00002 2.98047C5.85878 2.98047 3.80795 4.24127 2.34856 6.5355L2.34815 6.53615C2.11176 6.9065 1.97668 7.43663 1.97668 7.99713C1.97668 8.55764 2.11176 9.08777 2.34815 9.45812L2.34856 9.45877C3.80795 11.753 5.85878 13.0138 8.00002 13.0138C10.1413 13.0138 12.1921 11.753 13.6515 9.45877L13.6519 9.45812C13.8883 9.08777 14.0234 8.55764 14.0234 7.99713C14.0234 7.43663 13.8883 6.9065 13.6519 6.53615L13.6515 6.5355C12.1921 4.24127 10.1413 2.98047 8.00002 2.98047Z" fill="#777777"/>
</svg>
