<svg width="64" height="64" viewBox="0 0 64 64" fill="none" xmlns="http://www.w3.org/2000/svg">
<rect width="64" height="64" rx="16" fill="#FAFAFA"/>
<path d="M45.3337 24L27.5337 37.3067M45.3337 39.96L27.5337 26.64M23.3337 29.3333C23.9465 29.3333 24.5533 29.2126 25.1195 28.9781C25.6857 28.7436 26.2002 28.3998 26.6335 27.9665C27.0668 27.5332 27.4106 27.0187 27.6451 26.4525C27.8796 25.8863 28.0003 25.2795 28.0003 24.6667C28.0003 24.0538 27.8796 23.447 27.6451 22.8808C27.4106 22.3146 27.0668 21.8002 26.6335 21.3668C26.2002 20.9335 25.6857 20.5898 25.1195 20.3552C24.5533 20.1207 23.9465 20 23.3337 20C22.096 20 20.909 20.4917 20.0338 21.3668C19.1587 22.242 18.667 23.429 18.667 24.6667C18.667 25.9043 19.1587 27.0913 20.0338 27.9665C20.909 28.8417 22.096 29.3333 23.3337 29.3333V29.3333ZM23.3337 44C24.5713 44 25.7583 43.5083 26.6335 42.6332C27.5087 41.758 28.0003 40.571 28.0003 39.3333C28.0003 38.0957 27.5087 36.9087 26.6335 36.0335C25.7583 35.1583 24.5713 34.6667 23.3337 34.6667C22.096 34.6667 20.909 35.1583 20.0338 36.0335C19.1587 36.9087 18.667 38.0957 18.667 39.3333C18.667 40.571 19.1587 41.758 20.0338 42.6332C20.909 43.5083 22.096 44 23.3337 44V44Z" stroke="#181818" stroke-width="1.5" stroke-linecap="round" stroke-linejoin="round"/>
</svg>
