<svg width="64" height="64" viewBox="0 0 64 64" fill="none" xmlns="http://www.w3.org/2000/svg">
<rect width="64" height="64" rx="16" fill="#FAFAFA"/>
<path d="M38.6796 32.9725C39.058 32.9725 39.4208 32.8222 39.6884 32.5546C39.956 32.2871 40.1063 31.9242 40.1063 31.5458C40.1063 31.1674 39.956 30.8046 39.6884 30.537C39.4208 30.2694 39.058 30.1191 38.6796 30.1191C38.3012 30.1191 37.9383 30.2694 37.6708 30.537C37.4032 30.8046 37.2529 31.1674 37.2529 31.5458C37.2529 31.9242 37.4032 32.2871 37.6708 32.5546C37.9383 32.8222 38.3012 32.9725 38.6796 32.9725V32.9725Z" stroke="#181818" stroke-width="1.5" stroke-linecap="round" stroke-linejoin="round"/>
<path d="M28.0003 36.9346V42.668M18.667 31.868H32.0003M23.9337 42.668H32.0003M42.667 24.0013V26.388C42.3337 26.348 41.947 26.3213 41.5337 26.3213H35.827C32.9737 26.3213 32.027 27.268 32.027 30.1213V36.9346H24.0003C19.7337 36.9346 18.667 35.868 18.667 31.6013V24.0013C18.667 19.7346 19.7337 18.668 24.0003 18.668H37.3337C41.6003 18.668 42.667 19.7346 42.667 24.0013Z" stroke="#181818" stroke-width="1.5" stroke-linecap="round" stroke-linejoin="round"/>
<path d="M38.6796 32.9725C39.058 32.9725 39.4208 32.8222 39.6884 32.5546C39.956 32.2871 40.1063 31.9242 40.1063 31.5458C40.1063 31.1674 39.956 30.8046 39.6884 30.537C39.4208 30.2694 39.058 30.1191 38.6796 30.1191C38.3012 30.1191 37.9383 30.2694 37.6708 30.537C37.4032 30.8046 37.2529 31.1674 37.2529 31.5458C37.2529 31.9242 37.4032 32.2871 37.6708 32.5546C37.9383 32.8222 38.3012 32.9725 38.6796 32.9725V32.9725Z" stroke="#181818" stroke-width="1.5" stroke-miterlimit="10" stroke-linecap="round" stroke-linejoin="round"/>
<path d="M42.6664 26.387C42.333 26.347 41.9464 26.3203 41.533 26.3203H35.8264C32.973 26.3203 32.0264 27.267 32.0264 30.1203V41.5336C32.0264 44.387 32.973 45.3336 35.8264 45.3336H41.533C44.3864 45.3336 45.333 44.387 45.333 41.5336V30.1203C45.333 27.6803 44.6397 26.6403 42.6664 26.387V26.387ZM38.6797 30.1203C39.0474 30.1362 39.3948 30.2935 39.6493 30.5593C39.9039 30.8251 40.046 31.1789 40.046 31.547C40.046 31.915 39.9039 32.2689 39.6493 32.5347C39.3948 32.8005 39.0474 32.9577 38.6797 32.9736C38.312 32.9577 37.9646 32.8005 37.7101 32.5347C37.4555 32.2689 37.3134 31.915 37.3134 31.547C37.3134 31.1789 37.4555 30.8251 37.7101 30.5593C37.9646 30.2935 38.312 30.1362 38.6797 30.1203ZM38.6797 41.5336C37.1064 41.5336 35.8264 40.2536 35.8264 38.6803C35.8271 38.1338 35.9846 37.599 36.2802 37.1394C36.5758 36.6798 36.997 36.3146 37.4939 36.0872C37.9908 35.8598 38.5426 35.7797 39.0836 35.8565C39.6247 35.9333 40.1323 36.1637 40.5464 36.5203C41.1464 37.0536 41.533 37.827 41.533 38.6803C41.533 40.2536 40.253 41.5336 38.6797 41.5336V41.5336Z" stroke="#181818" stroke-width="1.5" stroke-miterlimit="10" stroke-linecap="round" stroke-linejoin="round"/>
<path d="M41.5338 38.6791C41.5338 40.2525 40.2538 41.5325 38.6805 41.5325C37.1071 41.5325 35.8271 40.2525 35.8271 38.6791C35.8279 38.1327 35.9854 37.5979 36.281 37.1382C36.5765 36.6786 36.9978 36.3134 37.4947 36.086C37.9916 35.8586 38.5433 35.7785 39.0844 35.8553C39.6254 35.9321 40.1331 36.1625 40.5471 36.5191C41.1471 37.0525 41.5338 37.8258 41.5338 38.6791V38.6791ZM38.6805 32.9725C39.0589 32.9725 39.4217 32.8222 39.6893 32.5546C39.9568 32.2871 40.1071 31.9242 40.1071 31.5458C40.1071 31.1674 39.9568 30.8046 39.6893 30.537C39.4217 30.2694 39.0589 30.1191 38.6805 30.1191C38.3021 30.1191 37.9392 30.2694 37.6717 30.537C37.4041 30.8046 37.2538 31.1674 37.2538 31.5458C37.2538 31.9242 37.4041 32.2871 37.6717 32.5546C37.9392 32.8222 38.3021 32.9725 38.6805 32.9725V32.9725Z" stroke="#181818" stroke-width="1.5" stroke-miterlimit="10" stroke-linecap="round" stroke-linejoin="round"/>
</svg>
