<svg width="64" height="64" viewBox="0 0 64 64" fill="none" xmlns="http://www.w3.org/2000/svg">
<rect width="64" height="64" rx="16" fill="#FAFAFA"/>
<path d="M36.0003 18.668V32.0013C36.0003 33.468 34.8003 34.668 33.3337 34.668H18.667V24.0013C18.667 21.0546 21.0537 18.668 24.0003 18.668H36.0003Z" stroke="#181818" stroke-width="1.5" stroke-linecap="round" stroke-linejoin="round"/>
<path d="M45.3337 34.668V38.668C45.3337 40.8813 43.547 42.668 41.3337 42.668H40.0003C40.0003 41.2013 38.8003 40.0013 37.3337 40.0013C35.867 40.0013 34.667 41.2013 34.667 42.668H29.3337C29.3337 41.2013 28.1337 40.0013 26.667 40.0013C25.2003 40.0013 24.0003 41.2013 24.0003 42.668H22.667C20.4537 42.668 18.667 40.8813 18.667 38.668V34.668H33.3337C34.8003 34.668 36.0003 33.468 36.0003 32.0013V22.668H38.4537C39.4137 22.668 40.2937 23.188 40.7737 24.0146L43.0537 28.0013H41.3337C40.6003 28.0013 40.0003 28.6013 40.0003 29.3346V33.3346C40.0003 34.068 40.6003 34.668 41.3337 34.668H45.3337Z" stroke="#181818" stroke-width="1.5" stroke-linecap="round" stroke-linejoin="round"/>
<path d="M26.6667 45.3333C27.3739 45.3333 28.0522 45.0524 28.5523 44.5523C29.0524 44.0522 29.3333 43.3739 29.3333 42.6667C29.3333 41.9594 29.0524 41.2811 28.5523 40.781C28.0522 40.281 27.3739 40 26.6667 40C25.9594 40 25.2811 40.281 24.781 40.781C24.281 41.2811 24 41.9594 24 42.6667C24 43.3739 24.281 44.0522 24.781 44.5523C25.2811 45.0524 25.9594 45.3333 26.6667 45.3333V45.3333ZM37.3333 45.3333C38.0406 45.3333 38.7189 45.0524 39.219 44.5523C39.719 44.0522 40 43.3739 40 42.6667C40 41.9594 39.719 41.2811 39.219 40.781C38.7189 40.281 38.0406 40 37.3333 40C36.6261 40 35.9478 40.281 35.4477 40.781C34.9476 41.2811 34.6667 41.9594 34.6667 42.6667C34.6667 43.3739 34.9476 44.0522 35.4477 44.5523C35.9478 45.0524 36.6261 45.3333 37.3333 45.3333ZM45.3333 32V34.6667H41.3333C40.6 34.6667 40 34.0667 40 33.3333V29.3333C40 28.6 40.6 28 41.3333 28H43.0533L45.3333 32Z" stroke="#181818" stroke-width="1.5" stroke-linecap="round" stroke-linejoin="round"/>
</svg>
