<svg width="64" height="64" viewBox="0 0 64 64" fill="none" xmlns="http://www.w3.org/2000/svg">
<rect width="64" height="64" rx="16" fill="#FAFAFA"/>
<path d="M21.8803 38.332C21.5603 42.1854 24.467 45.332 28.3336 45.332H34.7203C39.067 45.332 42.0536 41.8254 41.3336 37.532C40.5736 33.0254 36.227 29.332 31.6536 29.332C26.6936 29.332 22.2936 33.3854 21.8803 38.332ZM29.9603 25.9987C30.8443 25.9987 31.6922 25.6475 32.3173 25.0224C32.9424 24.3973 33.2936 23.5494 33.2936 22.6654C33.2936 21.7813 32.9424 20.9335 32.3173 20.3083C31.6922 19.6832 30.8443 19.332 29.9603 19.332C29.0762 19.332 28.2284 19.6832 27.6033 20.3083C26.9781 20.9335 26.627 21.7813 26.627 22.6654C26.627 23.5494 26.9781 24.3973 27.6033 25.0224C28.2284 25.6475 29.0762 25.9987 29.9603 25.9987ZM39.067 27.5987C39.7742 27.5987 40.4525 27.3177 40.9526 26.8177C41.4527 26.3176 41.7336 25.6393 41.7336 24.932C41.7336 24.2248 41.4527 23.5465 40.9526 23.0464C40.4525 22.5463 39.7742 22.2654 39.067 22.2654C38.3597 22.2654 37.6814 22.5463 37.1813 23.0464C36.6812 23.5465 36.4003 24.2248 36.4003 24.932C36.4003 25.6393 36.6812 26.3176 37.1813 26.8177C37.6814 27.3177 38.3597 27.5987 39.067 27.5987V27.5987ZM44.0003 32.932C44.2629 32.932 44.523 32.8803 44.7657 32.7798C45.0083 32.6793 45.2288 32.532 45.4145 32.3462C45.6002 32.1605 45.7475 31.94 45.848 31.6974C45.9486 31.4547 46.0003 31.1947 46.0003 30.932C46.0003 30.6694 45.9486 30.4093 45.848 30.1667C45.7475 29.924 45.6002 29.7035 45.4145 29.5178C45.2288 29.3321 45.0083 29.1848 44.7657 29.0843C44.523 28.9838 44.2629 28.932 44.0003 28.932C43.4699 28.932 42.9611 29.1427 42.5861 29.5178C42.211 29.8929 42.0003 30.4016 42.0003 30.932C42.0003 31.4625 42.211 31.9712 42.5861 32.3462C42.9611 32.7213 43.4699 32.932 44.0003 32.932V32.932ZM21.2936 30.2654C22.0009 30.2654 22.6791 29.9844 23.1792 29.4843C23.6793 28.9842 23.9603 28.3059 23.9603 27.5987C23.9603 26.8915 23.6793 26.2132 23.1792 25.7131C22.6791 25.213 22.0009 24.932 21.2936 24.932C20.5864 24.932 19.9081 25.213 19.408 25.7131C18.9079 26.2132 18.627 26.8915 18.627 27.5987C18.627 28.3059 18.9079 28.9842 19.408 29.4843C19.9081 29.9844 20.5864 30.2654 21.2936 30.2654V30.2654Z" stroke="#181818" stroke-width="1.5" stroke-linecap="round" stroke-linejoin="round"/>
</svg>
