<svg width="64" height="64" viewBox="0 0 64 64" fill="none" xmlns="http://www.w3.org/2000/svg">
<rect width="64" height="64" rx="16" fill="#FAFAFA"/>
<path d="M27.1335 18.5996L28.9202 20.3863M18.7602 31.8929L38.9202 31.0129M20.0002 45.3329H37.3335M25.3468 39.9996L20.0002 34.6529C18.2135 32.8663 18.2135 31.0929 20.0002 29.3063L28.9068 20.3996L38.7068 30.1996C39.2002 30.6929 39.2002 31.4929 38.7068 31.9863L30.6802 40.0129C28.9202 41.7729 27.1335 41.7729 25.3468 39.9996V39.9996Z" stroke="#181818" stroke-width="1.5" stroke-miterlimit="10" stroke-linecap="round" stroke-linejoin="round"/>
<path d="M41.1337 36C41.1337 36 38.667 38.68 38.667 40.32C38.667 41.68 39.7737 42.7867 41.1337 42.7867C42.4937 42.7867 43.6003 41.68 43.6003 40.32C43.6003 38.68 41.1337 36 41.1337 36V36Z" stroke="#181818" stroke-width="1.5" stroke-linecap="round" stroke-linejoin="round"/>
</svg>
