<svg width="64" height="64" viewBox="0 0 64 64" fill="none" xmlns="http://www.w3.org/2000/svg">
<rect width="64" height="64" rx="16" fill="#FAFAFA"/>
<path d="M29.3332 37.3346C29.3332 35.1213 29.3332 33.3346 33.3332 33.3346H38.6666C42.6666 33.3346 42.6666 32.0013 42.6666 29.3346V26.668C42.6666 24.0013 42.6666 22.668 38.6666 22.668H37.3332M31.9999 18.668H26.6666C25.7999 21.2642 25.7999 24.0717 26.6666 26.668H31.9999C32.8666 24.068 32.8666 21.268 31.9999 18.668Z" stroke="#181818" stroke-width="1.5" stroke-linecap="round" stroke-linejoin="round"/>
<path d="M26.6663 18.668H25.333C22.6663 18.668 21.333 20.0013 21.333 22.668C21.333 25.3346 22.6663 26.668 25.333 26.668H26.6663C25.333 24.0013 25.333 21.3346 26.6663 18.668ZM33.333 18.668H31.9997C33.333 21.3346 33.333 24.0013 31.9997 26.668H33.333C35.9997 26.668 37.333 25.3346 37.333 22.668C37.333 20.0013 35.9997 18.668 33.333 18.668ZM28.6663 45.3346H29.9997C31.9997 45.3346 31.9997 44.0013 31.9997 43.3346V39.3346C31.9997 38.668 31.9997 37.3346 29.9997 37.3346H28.6663C26.6663 37.3346 26.6663 38.668 26.6663 39.3346V43.3346C26.6663 44.0013 26.6663 45.3346 28.6663 45.3346Z" stroke="#181818" stroke-width="1.5" stroke-linecap="round" stroke-linejoin="round"/>
</svg>
