<svg width="28" height="28" viewBox="0 0 28 28" fill="none" xmlns="http://www.w3.org/2000/svg">
<circle cx="14" cy="14" r="13" fill="#F28100" stroke="white" stroke-width="2"/>
<path d="M15.122 20.0003H12.875V11.9203H15.122V20.0003ZM15.374 8.64429C15.374 9.07829 15.241 9.41429 14.975 9.65229C14.723 9.87629 14.401 9.98829 14.009 9.98829C13.617 9.98829 13.288 9.87629 13.022 9.65229C12.756 9.41429 12.623 9.07829 12.623 8.64429C12.623 8.22429 12.756 7.90229 13.022 7.67829C13.288 7.44029 13.617 7.32129 14.009 7.32129C14.401 7.32129 14.723 7.44029 14.975 7.67829C15.241 7.90229 15.374 8.22429 15.374 8.64429Z" fill="white"/>
</svg>
