<svg width="183" height="48" viewBox="0 0 183 48" fill="none" xmlns="http://www.w3.org/2000/svg">
<path d="M55.5566 16.1646H62.3242C66.2863 16.1646 68.6868 18.5152 68.6868 21.9687C68.6868 25.8284 65.7079 27.8308 61.9771 27.8308H59.2007V32.7933H55.5566V16.1646ZM62.0928 24.5515C63.9148 24.5515 64.9849 23.4487 64.9849 21.9687C64.9849 20.3145 63.857 19.4439 62.0349 19.4439H59.2007V24.5225H62.0928V24.5515Z" fill="#37376D"/>
<path d="M73.4883 16.1646H81.0656C83.1768 16.1646 84.7964 16.745 85.8954 17.8477C86.8209 18.7764 87.3125 20.0823 87.3125 21.7075C87.3125 24.4064 85.8665 26.0896 83.7553 26.8731L87.8042 32.8223H83.5817L79.9666 27.4826H77.1323V32.7933H73.4883V16.1646ZM80.8342 24.2323C82.5984 24.2323 83.6396 23.2746 83.6396 21.8236C83.6396 20.2564 82.5406 19.4439 80.7764 19.4439H77.1612V24.2323H80.8342Z" fill="#37376D"/>
<path d="M96.5376 16.1646H92.8936V32.9094H96.5376V16.1646Z" fill="#37376D"/>
<path d="M103.045 24.4643C103.045 19.734 106.602 15.8452 111.692 15.8452C114.816 15.8452 116.58 17.0351 118.113 18.5441L115.944 21.0689C114.671 19.9081 113.572 19.2116 111.663 19.2116C108.858 19.2116 106.863 21.5332 106.863 24.4353C106.863 27.2793 108.829 29.659 111.663 29.659C113.572 29.659 114.729 28.9045 116.03 27.7146L118.344 30.2104C116.638 32.0387 114.729 33.0544 111.548 33.0544C106.689 33.0834 103.045 29.3107 103.045 24.4643Z" fill="#37376D"/>
<path d="M123.377 16.1646H135.9V19.4149H127.021V22.7812H134.83V26.0606H127.021V29.543H136.015V32.7933H123.377V16.1646Z" fill="#37376D"/>
<path d="M141.365 16.1646H148.943C151.054 16.1646 152.674 16.745 153.773 17.8477C154.698 18.7764 155.19 20.0823 155.19 21.7075C155.19 24.4064 153.744 26.0896 151.632 26.8731L155.681 32.8223H151.401L147.786 27.4826H144.952V32.7933H141.308V16.1646H141.365ZM148.711 24.2323C150.476 24.2323 151.517 23.2746 151.517 21.8236C151.517 20.2564 150.418 19.4439 148.654 19.4439H145.038V24.2323H148.711Z" fill="#37376D"/>
<path d="M162.016 26.0022L165.891 22.81C167.337 21.5911 167.916 20.9527 167.916 19.995C167.916 19.0083 167.25 18.4569 166.354 18.4569C165.457 18.4569 164.821 18.9502 163.953 20.024L162.16 18.573C163.317 17.0059 164.445 16.1353 166.527 16.1353C168.957 16.1353 170.547 17.5573 170.547 19.7918C170.547 21.7652 169.535 22.7229 167.482 24.319L165.573 25.7991H170.663V28.0337H162.016V26.0022Z" fill="#0FA7F0"/>
<path d="M177.979 25.5092H172.282L171.877 23.6809L178.297 16.2227H180.467V23.4198H182.028V25.5092H180.467V28.034H178.008V25.5092H177.979ZM177.979 23.4198V19.7632L174.885 23.4198H177.979Z" fill="#0FA7F0"/>
<path d="M180.987 30.9648H162.102V32.7351H180.987V30.9648Z" fill="#0FA7F0"/>
<path d="M99.6616 16.1646H97.8975V32.9094H99.6616V16.1646Z" fill="#37376D"/>
<path d="M4.62723 0.812576L5.66839 10.4474L5.84191 12.2757H1.79297L1.99542 10.4474L3.00765 0.812576L3.09441 0H4.54047L4.62723 0.812576Z" fill="#F28100"/>
<path d="M36.8167 0.812576L37.8289 10.4474L38.0314 12.2757H33.9824L34.1559 10.4474L35.1971 0.812576L35.2839 0H36.7299L36.8167 0.812576Z" fill="#F28100"/>
<path d="M17.9887 30.7331C17.1789 31.4587 16.398 32.0681 15.5883 32.6775C14.7785 33.287 13.9687 33.8964 13.101 34.4768C11.3947 35.6376 9.65944 36.7114 7.66389 37.611C6.73842 38.0173 5.63942 37.611 5.23452 36.6824C4.85855 35.8408 5.17668 34.8541 5.92863 34.3897L5.98647 34.3607C7.49036 33.4321 8.90749 32.2422 10.2957 30.9653C10.9898 30.3269 11.655 29.6594 12.3202 28.9919C12.9564 28.3244 13.6505 27.5989 14.2 26.9605C15.1834 25.8287 16.8608 25.7126 17.9887 26.6703C19.1166 27.657 19.2323 29.3402 18.2779 30.472C18.1911 30.559 18.1044 30.6461 17.9887 30.7331Z" fill="#37376D"/>
<path d="M24.2935 25.3638C25.1612 25.567 26.2023 25.625 27.2145 25.625C28.2557 25.625 29.3258 25.5379 30.3669 25.3928C32.4782 25.1026 34.5894 24.5512 36.4982 23.6806L36.5271 23.6516C37.4526 23.2163 38.5516 23.6516 38.9565 24.5803C39.3325 25.4509 39.0143 26.4376 38.2335 26.9019C36.0355 28.2369 33.6929 29.1655 31.2635 29.833C30.0488 30.1522 28.8052 30.4134 27.5327 30.5585C26.2602 30.7036 24.9298 30.7907 23.5127 30.6746H23.4837C22.0088 30.5585 20.9098 29.2526 21.0254 27.7725C21.1411 26.2925 22.4426 25.1897 23.9175 25.3058C24.0622 25.3058 24.1778 25.3348 24.2935 25.3638Z" fill="#37376D"/>
<path d="M38.4358 11.6663C38.4358 17.8477 30.1933 22.8682 19.9842 22.8682C9.77509 22.8682 1.56152 17.8477 1.56152 11.6663C1.56152 5.48491 9.83293 0.464355 20.0131 0.464355C30.1933 0.464355 38.4358 5.48491 38.4358 11.6663Z" fill="#0FA7F0"/>
<path d="M32.0733 11.6663C32.0733 15.0907 26.665 18.0508 20.0132 18.0508C13.3614 18.0508 7.95312 15.0907 7.95312 11.6663C7.95312 8.24183 13.3614 5.28174 20.0132 5.28174C26.665 5.31076 32.0733 8.27086 32.0733 11.6663Z" fill="white"/>
<path d="M24.1779 11.6663C24.1779 13.9879 22.3269 15.8452 20.0133 15.8452C17.6996 15.8452 15.8486 13.9879 15.8486 11.6663C15.8486 9.34462 17.6996 7.4873 20.0133 7.4873C22.298 7.4873 24.1779 9.37364 24.1779 11.6663Z" fill="#37376D"/>
<path d="M31.8419 40.6577L27.3591 28.2659C26.665 26.4376 24.9297 25.2188 22.992 25.2188H17.6416C15.0677 25.2188 12.9854 27.3082 12.9854 29.8911V40.6287H31.8419V40.6577Z" fill="#0FA7F0"/>
<path d="M0 34.5346C1.01224 33.6349 2.54505 33.1996 3.96218 33.4608C5.37931 33.693 6.7386 34.5926 7.51947 35.8405C8.32925 37.0884 8.5317 38.6845 8.15573 40.0775C7.77976 41.4705 6.76752 42.6893 5.49499 43.2117L4.04894 40.9481C4.48276 40.4257 4.68521 39.8743 4.74305 39.323C4.77197 38.7716 4.65628 38.2782 4.36707 37.8429C4.10679 37.4076 3.70189 37.0884 3.18131 36.8852C2.66073 36.6821 2.08231 36.6531 1.41713 36.7982L0 34.5346Z" fill="#F28100"/>
<path d="M41.1259 21.3012C40.6342 21.7655 40.345 22.2588 40.2004 22.7812C40.0847 23.3036 40.1426 23.8259 40.3161 24.2903C40.5185 24.7546 40.8656 25.1609 41.3283 25.4221C41.791 25.6833 42.3695 25.8284 43.0347 25.7703L44.1047 28.2371C42.9479 28.9916 41.3862 29.1367 40.0269 28.6724C38.6676 28.2081 37.4529 27.1053 36.9034 25.7413C36.325 24.3773 36.325 22.7522 36.9612 21.4463C37.5686 20.1113 38.7543 19.0956 40.0847 18.7764L41.1259 21.3012Z" fill="#F28100"/>
<path d="M19.4638 40.6577H12.9565V47.9999H19.4638V40.6577Z" fill="#37376D"/>
<path d="M27.9664 47.9999H34.5026L31.8418 40.6577H25.3057L27.9664 47.9999Z" fill="#37376D"/>
</svg>
