<svg width="24" height="24" viewBox="0 0 24 24" fill="none" xmlns="http://www.w3.org/2000/svg">
<path fill-rule="evenodd" clip-rule="evenodd" d="M8.72805 6.70273L7.22042 4.64687C6.9613 4.29353 6.47163 4.20347 6.10376 4.44151C3.98931 5.80968 3.25573 8.02495 4.2141 9.76553C5.1013 11.3769 6.46408 13.3426 8.5461 15.4247C10.6281 17.5067 12.5939 18.8694 14.2052 19.7566C15.9458 20.715 18.1611 19.9814 19.5292 17.867C19.7673 17.4991 19.6772 17.0094 19.3239 16.7503L17.268 15.2427C16.8145 14.9101 16.2131 14.8592 15.7102 15.1107L14.8907 15.5204C14.3087 15.8114 13.5235 15.9079 12.7862 15.5286C12.2253 15.2401 11.336 14.679 10.3139 13.6569C9.29175 12.6348 8.7307 11.7455 8.44213 11.1845C8.06283 10.4473 8.15934 9.66209 8.45036 9.08005L8.86008 8.2606C9.11158 7.75761 9.06061 7.15621 8.72805 6.70273ZM5.28888 3.18215C2.74837 4.82601 1.44061 7.83829 2.90011 10.489C3.85264 12.219 5.29947 14.2994 7.48544 16.4853C9.6714 18.6713 11.7518 20.1181 13.4817 21.0706C16.1325 22.5301 19.1447 21.2224 20.7886 18.6819C21.4582 17.647 21.2049 16.2696 20.2109 15.5407L18.1551 14.0331C17.2481 13.368 16.0453 13.266 15.0393 13.769L14.2199 14.1788C13.9827 14.2974 13.7083 14.3161 13.4724 14.1948C13.0428 13.9737 12.2813 13.503 11.3745 12.5962C10.4677 11.6894 9.99701 10.928 9.77596 10.4983C9.65463 10.2625 9.67339 9.98809 9.792 9.75087L10.2017 8.93142C10.7047 7.92545 10.6028 6.72265 9.93766 5.81569L8.43002 3.75982C7.70113 2.76588 6.32371 2.51256 5.28888 3.18215Z" fill="#37376D"/>
</svg>
