<svg width="114" height="116" viewBox="0 0 114 116" fill="none" xmlns="http://www.w3.org/2000/svg">
<path d="M18.5 3.04492L22.3571 39.1489L23 46H8L8.75 39.1489L12.5 3.04492L12.8214 0H18.1786L18.5 3.04492Z" fill="#F28100"/>
<path d="M102.5 3.04492L106.25 39.1489L107 46H92L92.6429 39.1489L96.5 3.04492L96.8214 0H102.179L102.5 3.04492Z" fill="#F28100"/>
<path d="M114 68.5C114 94.7111 88.5176 116 56.9553 116C25.3929 116 0 94.7111 0 68.5C0 42.2889 25.5718 21 57.0447 21C88.5176 21 114 42.2889 114 68.5Z" fill="#0FA7F0"/>
<path d="M94 69C94 83.4818 77.4077 96 57 96C36.5923 96 20 83.4818 20 69C20 54.5182 36.5923 42 57 42C77.4077 42.1227 94 54.6409 94 69Z" fill="white"/>
<path d="M72 67.2679C73.3333 68.0378 73.3333 69.9622 72 70.732L52.5 81.9904C51.1667 82.7602 49.5 81.7979 49.5 80.2583L49.5 57.7417C49.5 56.2021 51.1667 55.2398 52.5 56.0096L72 67.2679Z" fill="#37376D"/>
</svg>
