<svg width="25" height="24" viewBox="0 0 25 24" fill="none" xmlns="http://www.w3.org/2000/svg">
<path d="M3.65897 7.87444C3.65897 6.82212 4.05915 5.93722 4.85953 5.21973C5.6599 4.45441 6.63536 4.04783 7.7859 4C8.88641 4 9.83686 4.43049 10.6372 5.29148C11.4376 6.10464 11.7878 7.03737 11.6877 8.08969C11.6877 8.66368 11.5126 9.50075 11.1625 10.6009C10.8123 11.6532 10.3871 12.8012 9.88688 14.0448C9.43667 15.2885 8.96145 16.4604 8.46122 17.5605C8.011 18.6129 7.66084 19.426 7.41072 20L5.15967 19.0673C5.50983 18.4454 5.93503 17.3931 6.43527 15.9103C6.9355 14.3797 7.31068 12.9686 7.56079 11.6771C6.41025 11.6771 5.45981 11.3184 4.70946 10.6009C4.00913 9.83558 3.65897 8.92676 3.65897 7.87444ZM13.2961 7.87444C13.2961 6.82212 13.6962 5.93722 14.4966 5.21973C15.297 4.45441 16.2724 4.04783 17.423 4C18.5235 4 19.4739 4.43049 20.2743 5.29148C21.0747 6.10464 21.4249 7.03737 21.3248 8.08969C21.3248 8.66368 21.1497 9.50075 20.7996 10.6009C20.4494 11.6532 20.0242 12.8012 19.524 14.0448C19.0738 15.2885 18.5985 16.4604 18.0983 17.5605C17.6481 18.6129 17.2979 19.426 17.0478 20L14.7968 19.0673C15.1469 18.4454 15.5721 17.3931 16.0724 15.9103C16.5726 14.3797 16.9478 12.9686 17.1979 11.6771C16.0473 11.6771 15.0969 11.3184 14.3465 10.6009C13.6462 9.83558 13.2961 8.92676 13.2961 7.87444Z" fill="#0FA7F0"/>
</svg>
