<svg width="104" height="113" viewBox="0 0 104 113" fill="none" xmlns="http://www.w3.org/2000/svg">
<path d="M10.8441 1.90422L13.284 24.4829L13.6906 28.7674H4.20215L4.67657 24.4829L7.04869 1.90422L7.25201 0H10.6407L10.8441 1.90422Z" fill="#F28100"/>
<path d="M86.2777 1.90422L88.6498 24.4829L89.1242 28.7674H79.6357L80.0424 24.4829L82.4823 1.90422L82.6856 0H86.0743L86.2777 1.90422Z" fill="#F28100"/>
<path d="M42.1553 72.021C40.2576 73.7212 38.4277 75.1493 36.53 76.5775C34.6323 78.0057 32.7346 79.4339 30.7013 80.794C26.7026 83.5143 22.6361 86.0306 17.9597 88.1389C15.7909 89.091 13.2154 88.1389 12.2666 85.9626C11.3855 83.9904 12.131 81.6781 13.8932 80.59L14.0287 80.522C17.553 78.3457 20.874 75.5574 24.1272 72.565C25.7538 71.0689 27.3126 69.5047 28.8714 67.9405C30.3625 66.3763 31.989 64.6761 33.2768 63.1799C35.5811 60.5276 39.512 60.2556 42.1553 62.4998C44.7985 64.8121 45.0696 68.7566 42.833 71.4089C42.6297 71.6129 42.4264 71.817 42.1553 72.021Z" fill="#37376D"/>
<path d="M56.9301 59.4384C58.9633 59.9145 61.4032 60.0505 63.7753 60.0505C66.2152 60.0505 68.7229 59.8465 71.1628 59.5064C76.1103 58.8263 81.0579 57.5342 85.531 55.4939L85.5988 55.4259C87.7676 54.4058 90.343 55.4259 91.2919 57.6022C92.173 59.6424 91.4274 61.9547 89.5975 63.0428C84.4466 66.1712 78.9569 68.3475 73.2638 69.9116C70.4173 70.6597 67.5029 71.2718 64.5209 71.6118C61.5388 71.9519 58.4211 72.1559 55.1002 71.8839H55.0324C51.5759 71.6118 49.0004 68.5515 49.2715 65.0831C49.5426 61.6147 52.5925 59.0304 56.049 59.3024C56.3879 59.3024 56.659 59.3704 56.9301 59.4384Z" fill="#37376D"/>
<path d="M90.072 27.339C90.072 41.8247 70.7562 53.5901 46.8317 53.5901C22.9072 53.5901 3.65918 41.8247 3.65918 27.339C3.65918 12.8533 23.0428 1.08789 46.8995 1.08789C70.7562 1.08789 90.072 12.8533 90.072 27.339Z" fill="#0FA7F0"/>
<path d="M75.1618 27.3387C75.1618 35.3637 62.488 42.3005 46.8998 42.3005C31.3116 42.3005 18.6377 35.3637 18.6377 27.3387C18.6377 19.3138 31.3116 12.377 46.8998 12.377C62.488 12.445 75.1618 19.3818 75.1618 27.3387Z" fill="white"/>
<path d="M56.6597 27.339C56.6597 32.7797 52.3222 37.1322 46.9002 37.1322C41.4782 37.1322 37.1406 32.7797 37.1406 27.339C37.1406 21.8984 41.4782 17.5459 46.9002 17.5459C52.2544 17.5459 56.6597 21.9664 56.6597 27.339Z" fill="#37376D"/>
<path d="M74.6198 95.2789L64.1147 66.2395C62.4881 61.955 58.4216 59.0986 53.8807 59.0986H41.3424C35.3104 59.0986 30.4307 63.9952 30.4307 70.0479V95.2109H74.6198V95.2789Z" fill="#0FA7F0"/>
<path d="M0 80.9295C2.37212 78.8213 5.96418 77.8011 9.28514 78.4132C12.6061 78.9573 15.7915 81.0655 17.6214 83.9899C19.5191 86.9142 19.9935 90.6547 19.1125 93.919C18.2314 97.1834 15.8593 100.04 12.8772 101.264L9.48846 95.9593C10.5051 94.7351 10.9795 93.443 11.1151 92.1508C11.1828 90.8587 10.9117 89.7025 10.234 88.6824C9.62401 87.6623 8.67517 86.9142 7.45522 86.4382C6.23528 85.9621 4.87978 85.8941 3.32096 86.2341L0 80.9295Z" fill="#F28100"/>
<path d="M96.3758 49.9177C95.2237 51.0058 94.5459 52.1619 94.2071 53.3861C93.936 54.6102 94.0715 55.8344 94.4782 56.9225C94.9526 58.0106 95.7659 58.9627 96.8503 59.5748C97.9347 60.1869 99.2902 60.5269 100.849 60.3909L103.357 66.1716C100.646 67.9398 96.9858 68.2798 93.8004 67.1917C90.615 66.1036 87.7685 63.5193 86.4807 60.3229C85.1253 57.1265 85.1253 53.3181 86.6163 50.2577C88.0396 47.1293 90.8183 44.7491 93.936 44.001L96.3758 49.9177Z" fill="#F28100"/>
<path d="M45.6126 95.2793H30.3633V112.485H45.6126V95.2793Z" fill="#37376D"/>
<path d="M65.538 112.485H80.8551L74.6198 95.2793H59.3027L65.538 112.485Z" fill="#37376D"/>
</svg>
