<svg width="228" height="161" viewBox="0 0 228 161" fill="none" xmlns="http://www.w3.org/2000/svg">
<path d="M32.903 4.35706L32.903 4.35771L38.5595 55.3676L38.5602 55.3743L39.4489 64.5H18.56L19.5968 55.3756L19.5971 55.3727L25.097 4.35706L25.0971 4.35619L25.5196 0.5H32.4804L32.903 4.35706Z" fill="white" stroke="#DDDDE6"/>
<path d="M207.453 55.3703L207.453 55.3731L208.443 64.5H188.549L189.397 55.3718L189.398 55.3654L194.797 4.35523L194.797 4.35461L195.2 0.5H201.8L202.203 4.35378L202.203 4.35461L207.453 55.3703Z" fill="white" stroke="#DDDDE6"/>
<path d="M227.5 97C227.5 114.412 214.923 130.277 194.365 141.819C173.823 153.351 145.411 160.5 114 160.5C82.5892 160.5 54.1768 153.351 33.6346 141.819C13.0766 130.277 0.5 114.412 0.5 97C0.5 79.5882 13.0766 63.7225 33.6346 52.1812C54.1768 40.6487 82.5892 33.5 114 33.5C145.411 33.5 173.823 40.6487 194.365 52.1812C214.923 63.7225 227.5 79.5882 227.5 97Z" fill="white" stroke="#DDDDE6"/>
</svg>
