<svg viewBox="0 0 463 461" fill="none" xmlns="http://www.w3.org/2000/svg">
<g clip-path="url(#clip0)">
<path d="M6.09131 381.723L135.711 457.237C144.525 462.298 155.413 462.298 164.097 457.237L456.777 290.38C464.943 285.709 464.943 273.901 456.777 269.23L325.084 192.548C317.566 188.137 308.234 188.137 300.716 192.548L6.09131 360.574C-2.07471 365.375 -2.07471 377.052 6.09131 381.723Z" fill="#F4F7F9"/>
<path d="M6.09211 315.551L135.711 391.065C144.525 396.125 155.413 396.125 164.098 391.065L456.778 224.207C460.796 221.872 462.87 217.72 462.87 213.698V189.045L319.252 123.132C311.734 118.721 302.402 118.721 294.884 123.132L0 280.389V305.041C0 309.063 2.07391 313.215 6.09211 315.551Z" fill="#D3DAE8"/>
<path d="M6.09211 315.551L135.711 391.065C144.525 396.125 155.413 396.125 164.098 391.065L456.778 224.207C460.796 221.872 462.87 217.72 462.87 213.698V189.045L319.252 123.132C311.734 118.721 302.402 118.721 294.884 123.132L0 280.389V305.041C0 309.063 2.07391 313.215 6.09211 315.551Z" fill="#D3DAE8"/>
<path d="M6.09131 290.898L135.711 366.413C144.525 371.473 155.413 371.473 164.097 366.413L456.777 199.555C464.943 194.884 464.943 183.077 456.777 178.406L325.214 101.724C317.696 97.3122 308.363 97.3122 300.846 101.724L6.09131 269.749C-2.07471 274.55 -2.07471 286.227 6.09131 290.898Z" fill="#EDF0F2"/>
<path d="M241.739 215.384C208.297 196.052 154.246 195.922 121.063 215.125C110.953 220.963 103.824 227.97 99.9355 235.495L181.596 250.157L121.452 284.93C154.894 304.263 208.945 304.392 242.128 285.189C275.44 265.987 275.181 234.717 241.739 215.384Z" fill="#6FB8FD"/>
<path d="M42.9042 261.315C42.9042 261.315 43.0339 271.306 42.9042 275.977C42.645 288.822 51.0703 301.797 68.0504 311.658L128.194 276.885V262.483L42.9042 261.315Z" fill="#FFBE33"/>
<path d="M241.739 229.787C208.297 210.454 154.246 210.324 121.063 229.527C112.768 234.328 99.9355 235.496 99.9355 235.496V249.898L181.596 264.559L121.452 284.93V299.332C154.894 318.665 208.945 318.795 242.128 299.592C258.33 290.25 266.626 278.053 266.885 265.727C266.885 264.819 266.885 250.027 266.885 250.027C266.885 250.027 257.682 238.999 241.739 229.787Z" fill="#F9A01A"/>
<path d="M181.596 250.157L99.9355 235.495V249.898L162.671 261.186L181.596 250.157Z" fill="#F9A01A"/>
<path d="M46.5324 247.822C37.5887 264.689 44.8473 283.892 68.0492 297.256L128.193 262.483L46.5324 247.822Z" fill="#FFE264"/>
<path d="M128.194 276.885V262.483L68.0508 297.256V311.658L128.194 276.885Z" fill="#F9A01A"/>
<path d="M241.739 215.384C208.297 196.052 154.246 195.922 121.063 215.125C110.953 220.963 103.824 227.97 99.9355 235.495L181.596 250.157L121.452 284.93C154.894 304.263 208.945 304.392 242.128 285.189C275.44 265.987 275.181 234.717 241.739 215.384Z" fill="#FFE264"/>
<path d="M201.818 298.164V312.567C216.594 310.491 230.723 306.209 242.259 299.592C245.11 297.905 247.703 296.218 250.036 294.402V279.999L181.727 250.157L201.818 298.164Z" fill="#F9A01A"/>
<path d="M181.596 250.157L201.687 298.164C216.463 296.088 230.592 291.807 242.128 285.189C244.98 283.503 247.572 281.816 249.905 279.999L181.596 250.157Z" fill="#FFE264"/>
<g opacity="0.1">
<g opacity="0.1">
<path opacity="0.1" d="M68.0508 311.658V297.256L128.194 262.483" stroke="white" stroke-miterlimit="10" stroke-linecap="round" stroke-linejoin="round"/>
</g>
</g>
<path d="M336.104 28.415V136.626" stroke="#D3DAE8" stroke-width="2" stroke-miterlimit="10" stroke-linecap="round" stroke-linejoin="round"/>
<path d="M383.025 55.5327V163.355" stroke="#D3DAE8" stroke-width="2" stroke-miterlimit="10" stroke-linecap="round" stroke-linejoin="round"/>
<path d="M429.947 136.626L289.311 55.2734" stroke="#D3DAE8" stroke-width="2" stroke-miterlimit="10" stroke-linecap="round" stroke-linejoin="round"/>
<path d="M314.197 98.4799L325.345 111.585C326.252 112.623 327.678 112.882 328.974 112.233L348.806 101.205L379.655 117.813C380.044 118.072 380.562 118.202 381.081 118.202C381.47 118.202 381.729 118.202 382.118 118.072L415.689 105.616L418.152 119.24L421.522 117.423V98.3501L405.19 88.8784L401.82 90.6949L413.097 99.5179L380.173 111.844L349.583 95.6254C348.676 95.1064 347.639 95.1064 346.861 95.6254L328.455 106.005L318.734 94.9766L314.197 98.4799Z" fill="#C1C9D6"/>
<path d="M311.346 100.815L322.104 113.401C323.011 114.439 324.437 114.699 325.733 114.05L345.565 103.021L376.415 119.629C376.803 119.889 377.322 120.018 377.84 120.018C378.229 120.018 378.488 120.018 378.877 119.889L412.449 107.433V119.24H418.152V100.296L401.561 90.8247L398.709 95.8849L409.727 102.243L377.84 114.05L346.732 97.3122C345.824 96.7932 344.787 96.7932 344.01 97.3122L324.826 107.952L315.753 97.3122L311.346 100.815Z" fill="#D3DAE8"/>
<path d="M373.823 124.041C372.526 124.041 371.619 125.079 371.619 126.765C371.619 129.231 373.434 132.345 375.508 133.512C376.156 133.901 376.804 134.031 377.322 134.031C378.619 134.031 379.526 132.993 379.526 131.307C379.526 128.841 377.711 125.727 375.637 124.56C374.86 124.3 374.341 124.041 373.823 124.041Z" stroke="#D3DAE8" stroke-width="2" stroke-miterlimit="10" stroke-linecap="round" stroke-linejoin="round"/>
<path d="M348.028 80.5745C346.732 80.5745 345.824 81.6125 345.824 83.2992C345.824 85.7644 347.639 88.8784 349.713 90.0462C350.361 90.4354 351.009 90.5652 351.527 90.5652C352.824 90.5652 353.731 89.5272 353.731 87.8404C353.731 85.3752 351.916 82.2612 349.842 81.0935C349.194 80.834 348.546 80.5745 348.028 80.5745Z" fill="white"/>
<path d="M348.028 80.5745C346.732 80.5745 345.824 81.6125 345.824 83.2992C345.824 85.7644 347.639 88.8784 349.713 90.0462C350.361 90.4354 351.009 90.5652 351.527 90.5652C352.824 90.5652 353.731 89.5272 353.731 87.8404C353.731 85.3752 351.916 82.2612 349.842 81.0935C349.194 80.834 348.546 80.5745 348.028 80.5745Z" stroke="#D3DAE8" stroke-width="2" stroke-miterlimit="10" stroke-linecap="round" stroke-linejoin="round"/>
<path d="M429.946 190.602L289.18 109.249V1.29761L429.946 82.6506V190.602Z" stroke="#D3DAE8" stroke-width="2" stroke-miterlimit="10" stroke-linecap="round" stroke-linejoin="round"/>
<path d="M350.62 235.755V124.819H312.383V235.755C312.383 238.609 314.327 241.334 317.956 243.54C325.474 247.822 337.529 247.951 344.917 243.54C348.806 241.464 350.62 238.609 350.62 235.755Z" fill="#419EFA"/>
<path d="M350.62 124.819H312.383V182.298H350.62V124.819Z" fill="#419EFA"/>
<path d="M345.047 132.604C337.659 136.886 325.475 136.886 318.086 132.604C310.568 128.322 310.568 121.316 317.957 117.034C325.345 112.752 337.529 112.752 344.918 117.034C352.435 121.316 352.436 128.322 345.047 132.604Z" fill="#A2DEFE"/>
<path d="M297.736 207.08V56.0518H259.498V207.08C259.498 209.935 261.442 212.659 265.072 214.865C272.59 219.147 284.644 219.277 292.032 214.865C295.921 212.789 297.736 209.935 297.736 207.08Z" fill="#8ACAFF"/>
<path d="M292.162 63.9665C284.774 68.2483 272.59 68.2483 265.202 63.9665C257.684 59.6848 257.684 52.6783 265.072 48.3966C272.46 44.1149 284.645 44.1149 292.033 48.3966C299.551 52.6783 299.551 59.6848 292.162 63.9665Z" fill="#A2DEFE"/>
<path d="M244.851 177.497V116.645H206.613V177.497C206.613 180.352 208.558 183.077 212.187 185.282C219.705 189.564 231.759 189.694 239.148 185.282C243.036 183.206 244.851 180.352 244.851 177.497Z" fill="#FFBE33"/>
<path d="M206.614 141.816C207.132 142.205 207.651 142.465 208.169 142.854C217.891 148.433 233.704 148.563 243.296 142.854C243.815 142.595 244.333 142.205 244.722 141.946C244.722 141.816 244.722 141.686 244.722 141.557V113.79H206.484V141.557C206.614 141.686 206.614 141.816 206.614 141.816Z" fill="#FFBE33"/>
<path d="M239.278 121.575C231.889 125.857 219.705 125.857 212.317 121.575C204.799 117.294 204.799 110.287 212.187 106.005C219.576 101.724 231.76 101.724 239.148 106.005C246.666 110.287 246.666 117.294 239.278 121.575Z" fill="#FFE264"/>
<path d="M127.416 106.914L153.858 91.6033" stroke="#AAD5FE" stroke-width="4" stroke-miterlimit="10" stroke-linecap="round" stroke-linejoin="round"/>
<path d="M165.912 204.875V74.2168" stroke="#AAD5FE" stroke-width="2" stroke-miterlimit="10" stroke-linecap="round" stroke-linejoin="round"/>
<path d="M15.9434 211.103L42.2561 195.922" stroke="#AAD5FE" stroke-width="4" stroke-miterlimit="10" stroke-linecap="round" stroke-linejoin="round"/>
<path d="M15.9434 224.986L42.2561 209.805" stroke="#AAD5FE" stroke-width="4" stroke-miterlimit="10" stroke-linecap="round" stroke-linejoin="round"/>
<path d="M54.3105 257.163V178.406" stroke="#AAD5FE" stroke-width="2" stroke-miterlimit="10" stroke-linecap="round" stroke-linejoin="round"/>
<g clip-path="url(#clip1)">
<path d="M127.401 274C127.268 273.069 127.134 272.137 127.001 271.206C127.001 271.339 126.867 271.339 126.867 271.472" fill="#EDF0F2"/>
<path d="M210.751 256.704C212.354 255.773 213.69 254.709 214.759 253.511C214.759 252.846 214.625 252.181 214.491 251.516C213.022 245.928 207.278 242.735 201.668 244.198L176.824 250.85C174.286 251.516 172.816 253.378 172.148 255.906C185.105 261.494 201.401 262.026 210.751 256.704Z" fill="#6FB7FF"/>
<path d="M164.534 239.542C162.664 236.216 159.191 234.486 155.584 234.486C153.18 240.473 157.187 247.923 167.071 253.511C168.274 254.177 169.476 254.842 170.812 255.374C171.747 253.777 171.88 252.181 171.212 250.85L164.534 239.542Z" fill="#6FB7FF"/>
<path d="M216.362 250.717C215.427 252.979 213.556 254.975 210.618 256.704C200.199 262.691 180.564 261.228 166.939 253.378C156.654 247.524 152.647 239.675 155.853 233.555L163.066 216.525L166.405 208.676L206.878 218.388L211.954 231.825L217.029 245.129C217.297 247.125 217.163 248.988 216.362 250.717Z" fill="#6FB7FF"/>
<path d="M162.264 123.129L154.249 123.395L151.979 155.325C151.979 155.591 151.979 155.99 151.979 156.256C152.246 159.716 155.318 162.376 158.791 162.11C162.264 161.844 164.935 158.784 164.668 155.325L162.264 123.129Z" fill="#F9A01A"/>
<path d="M216.362 250.717C198.196 230.495 172.015 215.461 163.199 216.525L166.539 208.676L207.011 218.388L212.087 231.825L217.163 245.129C217.297 247.125 217.163 248.988 216.362 250.717Z" fill="#419EFA"/>
<path d="M161.061 121.665C162.664 122.597 162.664 124.06 161.061 124.991C159.458 125.923 156.92 125.923 155.317 124.991C153.715 124.06 153.715 122.597 155.317 121.665C156.92 120.734 159.592 120.734 161.061 121.665Z" fill="#FFBE33"/>
<path d="M233.992 202.556C223.573 221.182 195.523 225.306 171.346 211.869C147.035 198.431 135.949 172.355 146.368 153.729C156.786 135.103 184.837 130.978 209.014 144.416C233.191 157.853 244.411 183.93 233.992 202.556Z" fill="#6FB7FF"/>
<path d="M206.477 202.423C205.008 208.942 191.517 212.534 175.354 205.616C158.391 198.431 148.64 179.539 149.842 172.222C151.044 164.904 164.802 162.909 180.029 171.557C195.257 180.471 207.946 195.904 206.477 202.423Z" fill="white"/>
<path d="M186.44 194.573C186.44 200.56 180.83 203.354 175.487 200.56C169.476 197.5 165.469 190.582 165.469 184.595C165.469 178.608 171.212 175.681 176.422 178.741C181.765 181.801 186.44 188.586 186.44 194.573Z" fill="#184EC9"/>
<path d="M182.834 190.316C182.834 192.444 180.83 193.509 178.96 192.444C176.823 191.38 175.354 188.852 175.354 186.723C175.354 184.595 177.357 183.53 179.227 184.595C181.231 185.659 182.834 188.187 182.834 190.316Z" fill="white"/>
<g opacity="0.2">
<g opacity="0.2">
<path opacity="0.2" d="M206.878 204.285C204.607 209.74 191.517 214.13 175.354 207.212C158.39 200.028 147.838 180.737 149.04 172.621" stroke="white" stroke-width="0.75" stroke-miterlimit="10" stroke-linecap="round" stroke-linejoin="round"/>
</g>
</g>
<g opacity="0.2">
<g opacity="0.2">
<path opacity="0.2" d="M155.184 143.75C155.184 143.75 172.281 137.63 194.321 145.746C216.227 153.862 227.314 168.363 232.523 177.277" stroke="white" stroke-width="0.75" stroke-miterlimit="10" stroke-linecap="round" stroke-linejoin="round"/>
</g>
</g>
<path d="M235.729 151.467H227.715L226.379 170.492C226.646 175.814 231.989 182.067 238 186.324L235.729 151.467Z" fill="#F9A01A"/>
<path d="M234.661 149.738C236.264 150.669 236.264 152.132 234.661 153.064C233.058 153.995 230.52 153.995 228.917 153.064C227.314 152.132 227.314 150.669 228.917 149.738C230.52 148.806 233.058 148.806 234.661 149.738Z" fill="#FFBE33"/>
<path d="M234.661 149.738C236.264 150.669 236.264 152.132 234.661 153.064C233.058 153.995 230.52 153.995 228.917 153.064C227.314 152.132 227.314 150.669 228.917 149.738C230.52 148.806 233.058 148.806 234.661 149.738Z" fill="#FFBE33"/>
<path d="M226.246 169.295C226.246 172.887 228.918 180.736 237.466 186.058" stroke="#4EA3EA" stroke-width="0.75" stroke-miterlimit="10" stroke-linecap="round" stroke-linejoin="round"/>
<g opacity="0.2">
<g opacity="0.2">
<path opacity="0.2" d="M225.178 167.831C225.178 171.423 227.315 181.801 237.467 187.123" stroke="white" stroke-width="0.75" stroke-miterlimit="10" stroke-linecap="round" stroke-linejoin="round"/>
</g>
</g>
<path d="M206.477 202.423C205.008 208.942 191.517 212.534 175.354 205.616C158.391 198.431 148.64 179.539 149.842 172.222C151.044 164.904 164.802 162.909 180.029 171.557C195.257 180.471 207.946 195.904 206.477 202.423Z" stroke="#4EA3EA" stroke-width="0.75" stroke-miterlimit="10" stroke-linecap="round" stroke-linejoin="round"/>
<path d="M165.469 239.542C162.664 234.752 156.519 233.156 151.844 235.949C147.036 238.743 145.433 244.863 148.238 249.52L154.783 260.829L172.147 250.85L165.469 239.542Z" fill="#419EFA"/>
<path d="M172.149 250.584C173.885 253.511 171.347 258.168 166.539 260.962C161.73 263.756 156.387 263.623 154.651 260.696C152.914 257.769 155.452 253.112 160.261 250.318C165.069 247.657 170.412 247.657 172.149 250.584Z" fill="#288CDD"/>
<g opacity="0.2">
<g opacity="0.2">
<path opacity="0.2" d="M153.582 258.301C153.849 255.507 156.387 252.048 159.994 249.919C163.6 247.923 167.607 247.391 170.145 248.456" stroke="white" stroke-width="0.75" stroke-miterlimit="10" stroke-linecap="round" stroke-linejoin="round"/>
</g>
</g>
<path d="M171.348 261.76C169.878 256.438 171.214 251.117 175.756 249.919L199.665 243.533C205.008 242.07 210.485 245.263 211.954 250.584C213.423 255.906 210.218 261.361 204.875 262.824L180.965 269.211C176.691 270.142 172.55 266.284 171.348 261.76Z" fill="#419EFA"/>
</g>
</g>
<defs>
<clipPath id="clip0">
<rect width="463" height="461" fill="white"/>
</clipPath>
<clipPath id="clip1">
<rect width="111" height="153" fill="white" transform="translate(127 121)"/>
</clipPath>
</defs>
</svg>
