<svg width="40" height="40" viewBox="0 0 40 40" fill="none" xmlns="http://www.w3.org/2000/svg">
<path fill-rule="evenodd" clip-rule="evenodd" d="M20 40C31.0457 40 40 31.0457 40 20C40 8.9543 31.0457 0 20 0C8.9543 0 0 8.9543 0 20C0 31.0457 8.9543 40 20 40Z" fill="#F4F6F9"/>
<path d="M24.24 11.6484H15.76C13.29 11.6484 11.29 13.6584 11.29 16.1184V25.5284C11.29 27.9884 13.3 29.9984 15.76 29.9984H24.23C26.7 29.9984 28.7 27.9884 28.7 25.5284V16.1184C28.71 13.6484 26.7 11.6484 24.24 11.6484Z" fill="#0FA7F0"/>
<path d="M22.35 10H17.65C16.61 10 15.76 10.84 15.76 11.88V12.82C15.76 13.86 16.6 14.7 17.64 14.7H22.35C23.39 14.7 24.23 13.86 24.23 12.82V11.88C24.24 10.84 23.39 10 22.35 10ZM18.81 24.95C18.62 24.95 18.43 24.88 18.28 24.73L16.78 23.23C16.6405 23.0889 16.5623 22.8984 16.5623 22.7C16.5623 22.5016 16.6405 22.3111 16.78 22.17C17.07 21.88 17.55 21.88 17.84 22.17L18.81 23.14L22.28 19.67C22.57 19.38 23.05 19.38 23.34 19.67C23.63 19.96 23.63 20.44 23.34 20.73L19.34 24.73C19.2 24.88 19 24.95 18.81 24.95Z" fill="#9FDCF9"/>
</svg>
