<svg xmlns="http://www.w3.org/2000/svg" >
    <symbol xmlns="http://www.w3.org/2000/svg" fill="none" id="arrow_right" viewBox="0 0 24 16">
        <path d="M1 7C0.447715 7 0 7.44772 0 8C0 8.55228 0.447715 9 1 9L1 7ZM23.7071 8.70711C24.0976 8.31658 24.0976 7.68342 23.7071 7.29289L17.3431 0.928932C16.9526 0.538408 16.3195 0.538408 15.9289 0.928932C15.5384 1.31946 15.5384 1.95262 15.9289 2.34315L21.5858 8L15.9289 13.6569C15.5384 14.0474 15.5384 14.6805 15.9289 15.0711C16.3195 15.4616 16.9526 15.4616 17.3431 15.0711L23.7071 8.70711ZM1 9L23 9L23 7L1 7L1 9Z" fill="white"/>
    </symbol>
    <symbol xmlns="http://www.w3.org/2000/svg" fill="none" id="arrow_left" viewBox="0 0 24 16">
        <path d="M23 9C23.5523 9 24 8.55228 24 8C24 7.44772 23.5523 7 23 7L23 9ZM0.292892 7.2929C-0.0976315 7.68342 -0.0976314 8.31658 0.292893 8.70711L6.65686 15.0711C7.04738 15.4616 7.68054 15.4616 8.07107 15.0711C8.46159 14.6805 8.46159 14.0474 8.07107 13.6569L2.41421 8L8.07107 2.34315C8.46159 1.95262 8.46159 1.31946 8.07107 0.928933C7.68054 0.538409 7.04738 0.538409 6.65685 0.928934L0.292892 7.2929ZM23 7L1 7L1 9L23 9L23 7Z" fill="white"/>
    </symbol>
    <symbol xmlns="http://www.w3.org/2000/svg" id="swipe" viewBox="0 0 490.651 490.651">
        <path d="M437.328,42.651h-128c-5.888,0-10.667,4.779-10.667,10.667s4.779,10.667,10.667,10.667h128c5.888,0,10.667-4.779,10.667-10.667S443.216,42.651,437.328,42.651z" />
        <path d="M444.88,45.787L402.213,3.12c-4.16-4.16-10.923-4.16-15.083,0c-4.16,4.16-4.16,10.923,0,15.083l35.115,35.115l-35.136,35.136c-4.16,4.16-4.16,10.923,0,15.083c2.091,2.069,4.821,3.115,7.552,3.115c2.731,0,5.461-1.045,7.552-3.115l42.667-42.667C449.04,56.709,449.04,49.947,444.88,45.787z" />
        <path d="M159.995,42.651h-128c-5.888,0-10.667,4.779-10.667,10.667s4.779,10.667,10.667,10.667h128c5.888,0,10.667-4.779,10.667-10.667S165.883,42.651,159.995,42.651z" />
        <path d="M47.077,53.317l35.115-35.115c4.16-4.16,4.16-10.923,0-15.083c-4.16-4.16-10.923-4.16-15.083,0L24.443,45.787c-4.16,4.16-4.16,10.923,0,15.083l42.667,42.667c2.091,2.069,4.821,3.115,7.552,3.115c2.731,0,5.461-1.045,7.531-3.136c4.16-4.16,4.16-10.923,0-15.083L47.077,53.317z" />
        <path d="M426.661,213.317c-8.768,0-16.939,2.667-23.723,7.211c-5.845-16.597-21.696-28.544-40.277-28.544c-8.768,0-16.939,2.667-23.723,7.211c-5.845-16.597-21.696-28.544-40.277-28.544c-7.765,0-15.061,2.091-21.333,5.739v-69.739c0-23.531-19.136-42.667-42.667-42.667c-23.531,0-42.667,19.136-42.667,42.667v181.333l-37.077-27.797c-21.973-16.491-53.248-14.293-72.725,5.163c-12.48,12.48-12.48,32.768,0,45.248l151.915,151.936c18.133,18.133,42.261,28.117,67.904,28.117h49.984c64.683,0,117.333-52.629,117.333-117.333V255.984C469.328,232.453,450.192,213.317,426.661,213.317z M447.995,373.317c0,52.928-43.072,96-96,96h-49.984c-19.968,0-38.72-7.765-52.821-21.867L97.275,295.515c-4.16-4.16-4.16-10.923,0-15.083c6.613-6.592,15.445-9.984,24.32-9.984c7.211,0,14.464,2.24,20.544,6.805l54.123,40.597c3.243,2.432,7.595,2.795,11.179,1.003c3.605-1.813,5.888-5.504,5.888-9.536V106.651c0-11.755,9.557-21.333,21.333-21.333s21.333,9.579,21.333,21.333v160c0,5.888,4.779,10.667,10.667,10.667s10.667-4.779,10.667-10.667v-53.333c0-11.755,9.557-21.333,21.333-21.333s21.333,9.579,21.333,21.333v53.333c0,5.888,4.779,10.667,10.667,10.667c5.888,0,10.667-4.779,10.667-10.667v-32c0-11.755,9.557-21.333,21.333-21.333s21.333,9.579,21.333,21.333v32c0,5.888,4.779,10.667,10.667,10.667c5.888,0,10.667-4.779,10.667-10.667v-10.667c0-11.755,9.557-21.333,21.333-21.333s21.333,9.579,21.333,21.333V373.317z" />
    </symbol>
    <symbol xmlns="http://www.w3.org/2000/svg" id="bl14_icon1" viewBox="0 0 80 73">
        <path d="M74.8275 0H5.1725C2.32031 0 0 2.32031 0 5.17234V67.2219C0 70.0739 2.32031 72.3944 5.1725 72.3944H74.8277C77.6797 72.3944 80.0002 70.0741 80.0002 67.2219V5.17234C80 2.32031 77.6797 0 74.8275 0ZM3.125 5.17234C3.125 4.04344 4.04344 3.12484 5.1725 3.12484H74.8277C75.9566 3.12484 76.8752 4.04328 76.8752 5.17234V11.5742H3.125V5.17234ZM76.875 67.222C76.875 68.3509 75.9566 69.2695 74.8275 69.2695H5.1725C4.04359 69.2695 3.125 68.3511 3.125 67.222V14.6992H76.875V67.222Z" fill="#0FA7F0"/>
        <path d="M7.94121 5.96244C7.2723 6.08744 6.76027 6.66947 6.69136 7.34072C6.62199 8.01744 7.02339 8.67619 7.64902 8.93588C8.9834 9.48963 10.3054 8.00557 9.61543 6.74307C9.29386 6.15463 8.5998 5.82869 7.94121 5.96244Z" fill="#0FA7F0"/>
        <path d="M15.0769 6.19587C13.8983 5.41056 12.325 6.54822 12.704 7.91056C12.8828 8.55275 13.4669 9.02056 14.1333 9.05478C14.7989 9.089 15.427 8.67525 15.6656 8.05556C15.9234 7.38603 15.6817 6.5915 15.0769 6.19587Z" fill="#0FA7F0"/>
        <path d="M21.7794 6.89708C21.2552 5.61724 19.3785 5.64974 18.8818 6.92818C18.3671 8.25287 19.821 9.53599 21.0723 8.87068C21.7715 8.49896 22.0841 7.62865 21.7794 6.89708Z" fill="#0FA7F0"/>
        <path d="M59.0191 44.6834C62.2326 44.6834 65.2541 43.4315 67.5266 41.159C69.8001 38.8874 71.0519 35.8659 71.0519 32.6504C71.0519 29.437 69.8001 26.4154 67.5266 24.142C65.253 21.8701 62.2316 20.6191 59.0191 20.6191C55.8048 20.6191 52.7832 21.8704 50.5112 24.1424C48.2382 26.4154 46.9863 29.437 46.9863 32.6504C46.9863 39.2854 52.3843 44.6834 59.0191 44.6834ZM66.1832 27.3546C67.3152 28.8788 67.9271 30.7179 67.9271 32.6505C67.9271 34.4668 67.3679 36.2591 66.3249 37.7465L60.5816 32.0034V23.8827C62.8123 24.2754 64.8332 25.537 66.1832 27.3546ZM52.7209 26.3523C54.0284 25.0448 55.6718 24.1965 57.4566 23.8826V32.6505C57.4566 33.0649 57.6213 33.4624 57.9143 33.7554L64.1148 39.9559C62.6307 40.9959 60.8685 41.5584 59.0191 41.5584C54.1073 41.5584 50.1113 37.5623 50.1113 32.6505C50.1113 30.2718 51.038 28.0351 52.7209 26.3523Z" fill="#0FA7F0"/>
        <path d="M48.5488 53.5986H69.4894C70.3524 53.5986 71.0519 52.8991 71.0519 52.0361C71.0519 51.1732 70.3524 50.4736 69.4894 50.4736H48.5488C47.6859 50.4736 46.9863 51.1732 46.9863 52.0361C46.9863 52.8991 47.6859 53.5986 48.5488 53.5986Z" fill="#0FA7F0"/>
        <path d="M9.53125 53.5986H38.5938C39.4567 53.5986 40.1562 52.899 40.1562 52.0361C40.1562 51.1731 39.4567 50.4736 38.5938 50.4736H36.5345V27.3857C36.5345 26.5228 35.835 25.8232 34.972 25.8232H27.2273C26.3644 25.8232 25.6648 26.5228 25.6648 27.3857V50.4736H21.6744V37.3678C21.6744 36.5048 20.9748 35.8053 20.1119 35.8053H12.367C11.5041 35.8053 10.8045 36.5048 10.8045 37.3678V50.4736H9.53125C8.66828 50.4736 7.96875 51.1731 7.96875 52.0361C7.96875 52.899 8.66828 53.5986 9.53125 53.5986ZM28.7898 28.9482H33.4095V50.4736H28.7898V28.9482ZM13.9295 38.9303H18.5494V50.4736H13.9295V38.9303Z" fill="#0FA7F0"/>
        <path d="M69.4905 59.2695H16.7773C15.9144 59.2695 15.2148 59.9691 15.2148 60.832C15.2148 61.695 15.9144 62.3945 16.7773 62.3945H69.4905C70.3534 62.3945 71.053 61.695 71.053 60.832C71.053 59.9691 70.3534 59.2695 69.4905 59.2695Z" fill="#0FA7F0"/>
        <path d="M8.08814 61.4303C8.34486 62.0466 8.97892 62.4377 9.64501 62.3899C10.2961 62.3432 10.8613 61.8769 11.035 61.2483C11.4024 59.9185 9.91407 58.7853 8.72767 59.4928C8.06876 59.8857 7.79861 60.7239 8.08814 61.4303Z" fill="#0FA7F0"/>
    </symbol>
    <symbol xmlns="http://www.w3.org/2000/svg" id="bl14_icon2" viewBox="0 0 80 80">
        <path d="M79.6805 70.8681C80.1227 70.2926 80.1041 69.4647 79.6359 68.9092L76.2012 64.843C75.6443 64.1836 74.6583 64.1008 73.9992 64.6577C73.3401 65.2146 73.2569 66.2004 73.8139 66.8597L75.0769 68.3549H68.0274V55.1691C68.0274 54.3061 67.3278 53.6065 66.4648 53.6065C65.6018 53.6065 64.9022 54.3061 64.9022 55.1691V68.3551H58.0781V30.3411H64.9022V41.1759C64.9022 42.039 65.6018 42.7385 66.4648 42.7385C67.3278 42.7385 68.0274 42.039 68.0274 41.1759V28.7785C68.0274 27.9155 67.3278 27.2159 66.4648 27.2159H56.5155C55.6524 27.2159 54.9529 27.9155 54.9529 28.7785V68.3549H48.3521V35.8347C48.3521 34.9717 47.6526 34.2721 46.7896 34.2721H36.6225C35.7595 34.2721 35.0599 34.9717 35.0599 35.8347V68.3551H29.0275V35.8347C29.0275 34.9717 28.328 34.2721 27.4649 34.2721H17.0695C16.2065 34.2721 15.5069 34.9717 15.5069 35.8347V68.3551H9.37682V6.30852L10.8721 7.57157C11.5313 8.12847 12.5172 8.0455 13.0741 7.38624C13.631 6.72698 13.548 5.74114 12.8888 5.18423L8.82257 1.74934C8.24909 1.2665 7.3792 1.2665 6.80588 1.74934L2.73954 5.18423C2.08028 5.74114 1.99731 6.72698 2.55422 7.38624C3.10269 8.03566 4.10587 8.12097 4.75623 7.57157L6.25147 6.30852V68.3549H1.56259C0.699574 68.3549 0 69.0545 0 69.9175C0 70.7805 0.699574 71.4801 1.56259 71.4801H6.25163V77.0505C6.25163 77.9135 6.9512 78.6131 7.81422 78.6131C8.67725 78.6131 9.37682 77.9135 9.37682 77.0505V71.4801H75.0769L73.8139 72.9754C73.2569 73.6346 73.3399 74.6205 73.9992 75.1774C74.6498 75.7269 75.6521 75.6421 76.2012 74.9921L79.6359 70.9259C79.6508 70.9067 79.6656 70.8874 79.6805 70.8681ZM18.6321 68.3549V37.3973H25.9024V68.3551H18.6321V68.3549ZM38.1851 68.3549V37.3973H45.2268V68.3551H38.1851V68.3549Z" fill="#0FA7F0"/>
        <path d="M16.2875 27.5783H35.2105C35.7914 27.5783 36.3789 27.565 36.9544 27.5391C46.3445 27.1276 55.2136 23.4284 62.0987 17.0841L65.306 20.2925C66.2677 21.2543 67.9736 20.5494 67.9736 19.1878V5.07897C67.9736 4.21735 67.2762 3.51841 66.4146 3.51637L52.2742 3.4834C50.9123 3.47997 50.2013 5.18648 51.1656 6.15091L54.334 9.31923C49.418 13.9697 43.7568 17.6386 37.4841 20.2368C30.7296 23.0344 23.598 24.4531 16.2872 24.4531C15.4242 24.4531 14.7246 25.1527 14.7246 26.0157C14.7246 26.8787 15.4245 27.5783 16.2875 27.5783ZM38.6804 23.1241C45.816 20.1685 52.2031 15.9007 57.6644 10.4396C58.2662 9.83769 58.2662 8.8317 57.6644 8.22963L56.0521 6.61734L64.8486 6.63781V15.4144L63.2275 13.7929C62.6181 13.1832 61.6301 13.1823 61.0196 13.7906C54.5431 20.243 45.9481 24.0168 36.8155 24.417C36.2847 24.4411 35.7446 24.4531 35.2105 24.4531H35.1601C36.3436 24.0489 37.5172 23.6059 38.6804 23.1241Z" fill="#0FA7F0"/>
        <path d="M67.9081 47.4628C67.652 46.8479 67.0157 46.4529 66.3505 46.5028C65.6726 46.5535 65.0912 47.0545 64.9413 47.7178C64.633 49.0829 66.2194 50.1382 67.3646 49.3379C67.9586 48.9229 68.1818 48.1307 67.9081 47.4628Z" fill="#0FA7F0"/>
    </symbol>
    <symbol xmlns="http://www.w3.org/2000/svg" id="bl14_icon3" viewBox="0 0 80 80">
        <path d="M75.2686 3.92188H55.0233C52.4144 3.92188 50.2917 6.04437 50.2917 8.65328V21.7047C50.2917 21.9666 50.2752 22.2258 50.2458 22.4822C44.9192 17.9216 38.0066 15.1625 30.4609 15.1625C17.7234 15.1625 6.01531 23.3905 1.74891 35.4027C0.585781 38.6775 0 42.1491 0 45.6234C0 59.4766 9.72969 71.9147 23.2009 75.2097C24.0395 75.4144 24.8848 74.9014 25.09 74.0631C25.295 73.2248 24.7817 72.3792 23.9434 72.1741C11.8542 69.2173 3.125 58.053 3.125 45.6234C3.125 38.845 5.57687 32.4442 10.0586 27.4308L18.4858 35.8567C16.2339 38.6077 15.0094 42.0216 15.0094 45.6236C15.0094 54.1427 21.9409 61.0736 30.4609 61.0736C38.4534 61.0736 45.048 54.9742 45.8339 47.1861H57.7525C57.4378 52.8694 55.4067 58.1953 51.828 62.6727C48.0366 67.4161 42.7159 70.802 36.8461 72.2066C36.0069 72.4073 35.4892 73.2506 35.6902 74.0898C35.8617 74.8069 36.5022 75.2891 37.2084 75.2891C37.3288 75.2891 37.4511 75.275 37.5733 75.2458C44.1162 73.6802 50.0456 69.908 54.2691 64.6237C58.6213 59.1784 60.9219 52.6083 60.9219 45.6236C60.9219 37.6742 57.8597 30.4275 52.8547 24.9978C53.2237 23.9544 53.4167 22.8445 53.4167 21.705V20.1838C53.9186 20.3655 54.4595 20.465 55.0233 20.465H75.2686C77.8775 20.465 80 18.3425 80 15.7334V8.65328C80 6.04437 77.8775 3.92188 75.2686 3.92188ZM51.4891 28.1769C55.203 32.6461 57.4223 38.258 57.7511 44.0609H45.8339C45.105 36.8638 39.2205 30.9791 32.0233 30.2503V18.3331C38.3408 18.6911 44.4148 21.2931 49.0486 25.5995C48.8322 25.9027 48.5908 26.1911 48.322 26.4598L45.995 28.7867C45.3848 29.3969 45.3847 30.3863 45.995 30.9964C46.5972 31.5986 47.6025 31.5988 48.2047 30.9964L50.5317 28.6695C50.7833 28.418 51.0183 28.1542 51.2388 27.8812C51.3228 27.9795 51.4062 28.078 51.4891 28.1769ZM21.6159 32.9492C21.3008 33.1695 20.993 33.4031 20.6953 33.6467L12.2684 25.2209C16.8539 21.1211 22.7586 18.6773 28.8984 18.3328V30.2494C26.2902 30.5086 23.7625 31.4444 21.6159 32.9492ZM30.4609 57.9484C23.6641 57.9484 18.1344 52.4195 18.1344 45.6234C18.1344 38.9022 23.7377 33.2969 30.4609 33.2969C37.2578 33.2969 42.7875 38.8266 42.7875 45.6234C42.7875 52.4194 37.2578 57.9484 30.4609 57.9484ZM76.875 15.7333C76.875 16.6191 76.1544 17.3398 75.2686 17.3398H55.0233C54.1375 17.3398 53.4167 16.6192 53.4167 15.7333V8.65328C53.4167 7.7675 54.1373 7.04687 55.0233 7.04687H75.2686C76.1544 7.04687 76.875 7.7675 76.875 8.65328V15.7333Z" fill="#0FA7F0"/>
        <path d="M71.7916 10.5996H59.1367C58.2738 10.5996 57.5742 11.2991 57.5742 12.1621C57.5742 13.0251 58.2738 13.7246 59.1367 13.7246H71.7916C72.6545 13.7246 73.3541 13.0251 73.3541 12.1621C73.3541 11.2991 72.6545 10.5996 71.7916 10.5996Z" fill="#0FA7F0"/>
        <path d="M31.9025 73.9227C31.3649 72.6322 29.4668 72.6769 28.9903 73.9938C28.7646 74.6177 28.9746 75.3453 29.4994 75.7521C30.0077 76.1458 30.7194 76.1872 31.2699 75.8556C31.9219 75.463 32.1949 74.6244 31.9025 73.9227Z" fill="#0FA7F0"/>
    </symbol>
    <symbol xmlns="http://www.w3.org/2000/svg" id="bl14_icon4" viewBox="0 0 80 80">
        <path d="M67.6031 23.8297H60.0689C60.095 23.8128 60.1189 23.7934 60.1459 23.7778L62.1686 22.61C64.4508 21.2927 65.2601 18.2858 63.94 15.9991L60.1684 9.46656C58.8341 7.15562 55.8686 6.36078 53.5575 7.69516L51.5333 8.86375C50.3009 9.575 48.6111 8.59813 48.6111 7.17656V4.83969C48.6111 2.17109 46.4401 0 43.7716 0H36.2287C33.5602 0 31.3892 2.17109 31.3892 4.83953V7.17672C31.3892 8.59781 29.6995 9.57547 28.4669 8.86406L26.4427 7.69547C24.1316 6.36141 21.1659 7.15609 19.8317 9.46703L16.0603 15.9994C14.7261 18.3103 15.5206 21.2761 17.8317 22.6105L19.8544 23.7783C19.8814 23.7939 19.9053 23.8131 19.9312 23.83H12.3969C10.1103 23.83 8.25 25.6895 8.25 27.9753V64.8066C8.25 67.0931 10.1103 68.9534 12.3969 68.9534H31.968L31.302 74.6677C31.1587 75.9245 30.0977 76.8713 28.8333 76.8713C28.7994 76.8728 28.7666 76.8711 28.7331 76.8753H27.1634C26.3005 76.8753 25.6009 77.575 25.6009 78.4378C25.6009 79.3006 26.3005 80.0003 27.1634 80.0003H52.8367C53.6997 80.0003 54.3992 79.3006 54.3992 78.4378C54.3992 77.575 53.6997 76.8753 52.8367 76.8753H51.2669C51.2336 76.8716 51.2002 76.8711 51.1667 76.8713C49.9023 76.8713 48.8412 75.9244 48.698 74.6677C48.6978 74.6664 48.0322 68.9534 48.0322 68.9534H67.6031C69.8897 68.9534 71.75 67.0931 71.75 64.8066V27.975C71.75 25.6892 69.8897 23.8297 67.6031 23.8297ZM33.8631 76.875C34.1433 76.3083 34.3312 75.6858 34.4066 75.0252L35.1141 68.9533H44.8862L45.5936 75.0241C45.6692 75.6852 45.8573 76.3083 46.1376 76.8752H33.8631V76.875ZM36.2923 26.7094H43.7076C44.5706 26.7094 45.2701 26.0097 45.2701 25.1469V18.0259C47.6775 19.7208 49.1861 22.5205 49.1861 25.5508C49.1861 27.3611 48.6592 29.1125 47.6617 30.6169C46.6914 32.0827 45.3305 33.2348 43.7259 33.9486C43.0323 34.2573 42.6609 35.0198 42.8456 35.7562L45.4776 46.2523C45.3945 47.1191 44.6478 47.8061 43.7717 47.8061H36.228C35.3541 47.8061 34.6039 47.1194 34.5222 46.2531L37.1545 35.7562C37.3394 35.0192 36.9673 34.2563 36.2728 33.9481C32.9566 32.4759 30.8137 29.1797 30.8137 25.5508C30.8137 22.5203 32.3223 19.7208 34.7297 18.0259V25.1469C34.7298 26.0098 35.4295 26.7094 36.2923 26.7094ZM19.3942 19.9039C18.5755 19.4312 18.2939 18.3805 18.7666 17.5617L22.5381 11.0294C23.0108 10.2105 24.0616 9.92891 24.8803 10.4016L26.9045 11.5702C30.1897 13.4673 34.5144 10.9603 34.5144 7.17656V4.83953C34.5144 3.89406 35.2834 3.125 36.2289 3.125H43.7717C44.7172 3.125 45.4864 3.89422 45.4864 4.83969V7.17688C45.4864 10.9609 49.8108 13.4672 53.0961 11.5703L55.1202 10.4017C55.9391 9.92937 56.9897 10.2106 57.4623 11.0294L61.2339 17.5619C61.7012 18.3714 61.4139 19.4377 60.6064 19.9039L58.5837 21.0717C57.0681 21.9467 56.1477 23.5197 56.0939 25.3016C55.9877 27.1356 57.0034 28.9484 58.5837 29.8616L60.6064 31.0284C61.4144 31.4942 61.702 32.56 61.2341 33.3705L57.4625 39.903C56.9958 40.7114 55.9301 40.9975 55.1205 40.5298L53.0961 39.3614C51.1875 38.2588 48.7695 38.5917 47.1451 40.0528L46.1791 36.2003C47.8161 35.2498 49.2141 33.9342 50.2673 32.3433C51.6047 30.3262 52.3116 27.9777 52.3116 25.5511C52.3116 20.4098 49.0708 15.7641 44.2472 13.9913C43.768 13.815 43.2328 13.8842 42.8139 14.1766C42.3951 14.4688 42.1456 14.9472 42.1456 15.4578V23.5848H37.8553V15.4575C37.8553 14.9467 37.6058 14.4684 37.187 14.1762C36.7684 13.8837 36.2333 13.8145 35.7537 13.9909C30.9302 15.7639 27.6894 20.4095 27.6894 25.5508C27.6894 29.9675 30.0581 34.0164 33.8219 36.2005L32.8559 40.0522C31.2291 38.5886 28.8131 38.2589 26.9053 39.3606L24.8792 40.5298C24.0759 40.9945 23.0028 40.7064 22.5384 39.9023L18.7672 33.3692C18.2992 32.5602 18.5873 31.4939 19.3947 31.028L21.4181 29.8605C22.9994 28.9466 24.0058 27.1397 23.9073 25.3072C23.8555 23.5228 22.9347 21.9473 21.4173 21.0714L19.3942 19.9039ZM68.625 64.8063C68.625 65.3697 68.1666 65.8281 67.6031 65.8281H12.3969C11.8334 65.8281 11.375 65.3697 11.375 64.8063V60.7513H32.8523C33.7153 60.7513 34.4148 60.0516 34.4148 59.1888C34.4148 58.3259 33.7153 57.6263 32.8523 57.6263H11.375V27.975C11.375 27.4123 11.8334 26.9547 12.3969 26.9547H20.1284C20.0327 27.037 19.9847 27.0786 19.8542 27.1539L17.8314 28.3219C15.5495 29.6389 14.7419 32.6492 16.0603 34.9328L19.8312 41.4656C21.1481 43.747 24.1562 44.5564 26.4427 43.2367L28.4669 42.0681C29.6992 41.3569 31.3892 42.3339 31.3892 43.7555V46.0925C31.3892 48.7261 33.5969 50.933 36.2283 50.933H43.7722C46.4036 50.933 48.6112 48.7262 48.6112 46.0925V43.7555C48.6112 42.3342 50.3009 41.3567 51.5336 42.0681L53.5575 43.2367C55.8422 44.5558 58.8514 43.7481 60.1687 41.4659L63.9408 34.933C65.2611 32.6459 64.4503 29.6391 62.1683 28.3217L60.1461 27.1542C60.02 27.0814 59.9661 27.0361 59.8717 26.9548H67.6033C68.1667 26.9548 68.6251 27.4127 68.6251 27.9752V57.6264H46.6558C45.7928 57.6264 45.0933 58.3261 45.0933 59.1889C45.0933 60.0517 45.7928 60.7514 46.6558 60.7514H68.625V64.8063Z" fill="#0FA7F0"/>
        <path d="M41.2862 58.5905C40.7495 57.3031 38.8459 57.3416 38.3743 58.6625C38.151 59.2877 38.3568 60.0122 38.8832 60.42C39.392 60.8142 40.1031 60.8566 40.6537 60.5239C41.3073 60.1291 41.5746 59.2947 41.2862 58.5905Z" fill="#0FA7F0"/>
    </symbol>
    <symbol xmlns="http://www.w3.org/2000/svg" id="bl14_icon5" viewBox="0 0 80 80">
        <path d="M72.706 52.7747C70.651 51.5881 68.1227 51.942 66.4662 53.4755L62.7946 51.3556C64.5157 47.938 65.4868 44.0805 65.4868 40C65.4868 35.9195 64.5157 32.062 62.7946 28.6444L66.4687 26.5231C68.1504 28.0789 70.7207 28.3714 72.7062 27.2253C75.2319 25.767 76.1004 22.5258 74.6423 20C73.184 17.4742 69.9427 16.6059 67.417 18.0639C65.3621 19.2503 64.4043 21.6169 64.9038 23.8183L61.2198 25.9452C56.9168 19.5164 49.7526 15.158 41.5635 14.7063V10.3428C43.7198 9.67484 45.2904 7.66203 45.2904 5.28922C45.2904 2.37281 42.9176 0 40.001 0C37.0845 0 34.7116 2.37281 34.7116 5.28938C34.7116 7.66219 36.2823 9.675 38.4385 10.343V14.7256C30.3227 15.2706 23.2429 19.6542 19.0023 26.0722L15.0984 23.8183C15.5979 21.617 14.6402 19.2505 12.5852 18.0641C10.0596 16.6059 6.81821 17.4742 5.35993 20C3.90164 22.5258 4.77024 25.767 7.29602 27.2253C9.27461 28.3798 11.8576 28.0734 13.5335 26.5231L17.4435 28.7805C15.7649 32.1645 14.8191 35.9736 14.8191 40C14.8191 44.0264 15.7649 47.8355 17.4435 51.2194L13.536 53.4755C11.8795 51.9422 9.35118 51.5881 7.29618 52.7747C4.77024 54.233 3.9018 57.4742 5.35993 60C6.79914 62.4928 10.089 63.3772 12.5852 61.9361C14.6401 60.7497 15.5979 58.3831 15.0984 56.1817L19.0023 53.9278C23.2427 60.3459 30.3227 64.7294 38.4385 65.2744V69.657C36.2823 70.325 34.7116 72.3377 34.7116 74.7106C34.7116 77.6272 37.0845 80 40.001 80C42.9176 80 45.2904 77.6272 45.2904 74.7106C45.2904 72.3378 43.7198 70.3252 41.5635 69.657V65.2937C49.7526 64.842 56.9168 60.4836 61.2198 54.0548L64.9037 56.1817C64.4041 58.3831 65.3618 60.7495 67.4168 61.9361C69.9129 63.3772 73.2029 62.4927 74.6421 60C76.1002 57.4742 75.2318 54.233 72.706 52.7747ZM68.9791 20.7703C70.0124 20.1739 71.339 20.5291 71.9357 21.5625C72.5324 22.5959 72.177 23.9223 71.1435 24.5191C70.1098 25.1156 68.7835 24.7603 68.187 23.7269C67.5904 22.6934 67.9457 21.367 68.9791 20.7703ZM40.001 3.125C41.1945 3.125 42.1654 4.09594 42.1654 5.28938C42.1654 6.48281 41.1945 7.45359 40.001 7.45359C38.8076 7.45359 37.8366 6.48266 37.8366 5.28922C37.8366 4.09578 38.8076 3.125 40.001 3.125ZM8.85852 24.5191C7.82508 23.9223 7.46961 22.5959 8.06633 21.5625C8.66305 20.5289 9.98946 20.1737 11.0229 20.7703C12.0563 21.367 12.4118 22.6934 11.8151 23.7269C11.2185 24.7603 9.89211 25.1156 8.85852 24.5191ZM11.0229 59.2297C9.98961 59.8263 8.66305 59.4711 8.06633 58.4375C7.46961 57.4041 7.82508 56.0777 8.85852 55.4809C9.89211 54.8845 11.2185 55.2397 11.8151 56.2731C12.4118 57.3067 12.0563 58.633 11.0229 59.2297ZM40.001 76.875C38.8076 76.875 37.8366 75.9041 37.8366 74.7106C37.8366 73.5172 38.8076 72.5462 40.001 72.5462C41.1945 72.5462 42.1654 73.5172 42.1654 74.7106C42.1654 75.9041 41.1945 76.875 40.001 76.875ZM40.1529 62.2087C27.907 62.2087 17.9441 52.2459 17.9441 40C17.9441 27.7541 27.907 17.7913 40.1529 17.7913C52.3988 17.7913 62.3616 27.7541 62.3616 40C62.3616 52.2459 52.3988 62.2087 40.1529 62.2087ZM71.9357 58.4375C71.3388 59.4709 70.0124 59.8264 68.9791 59.2297C67.9457 58.633 67.5902 57.3066 68.187 56.2731C68.7837 55.2398 70.1099 54.8842 71.1435 55.4809C72.177 56.0777 72.5324 57.4041 71.9357 58.4375Z" fill="#0FA7F0"/>
        <path d="M50.8256 24.5811H29.4805C28.6175 24.5811 27.918 25.2807 27.918 26.1436V33.152C27.918 34.0148 28.6175 34.7145 29.4805 34.7145C30.3434 34.7145 31.043 34.0148 31.043 33.152V27.7061H49.2631V52.2936H31.043V46.8998C31.043 46.037 30.3434 45.3373 29.4805 45.3373C28.6175 45.3373 27.918 46.037 27.918 46.8998V53.8561C27.918 54.7189 28.6175 55.4186 29.4805 55.4186H50.8256C51.6886 55.4186 52.3881 54.7189 52.3881 53.8561V26.1436C52.3881 25.2807 51.6886 24.5811 50.8256 24.5811Z" fill="#0FA7F0"/>
        <path d="M36.584 34.415H43.8576C44.7205 34.415 45.4201 33.7154 45.4201 32.8525C45.4201 31.9897 44.7205 31.29 43.8576 31.29H36.584C35.721 31.29 35.0215 31.9897 35.0215 32.8525C35.0215 33.7154 35.721 34.415 36.584 34.415Z" fill="#0FA7F0"/>
        <path d="M36.584 41.4785H43.8576C44.7205 41.4785 45.4201 40.7788 45.4201 39.916C45.4201 39.0532 44.7205 38.3535 43.8576 38.3535H36.584C35.721 38.3535 35.0215 39.0532 35.0215 39.916C35.0215 40.7788 35.721 41.4785 36.584 41.4785Z" fill="#0FA7F0"/>
        <path d="M36.584 48.5415H43.8576C44.7205 48.5415 45.4201 47.8418 45.4201 46.979C45.4201 46.1162 44.7205 45.4165 43.8576 45.4165H36.584C35.721 45.4165 35.0215 46.1162 35.0215 46.979C35.0215 47.8418 35.721 48.5415 36.584 48.5415Z" fill="#0FA7F0"/>
        <path d="M28.18 40.8671C28.9501 42.0111 30.7759 41.6285 31.0179 40.2669C31.2728 38.8332 29.5043 37.8711 28.4306 38.8425C27.8639 39.3552 27.7565 40.2318 28.18 40.8671Z" fill="#0FA7F0"/>
    </symbol>
    <symbol xmlns="http://www.w3.org/2000/svg" id="bl14_icon6" viewBox="0 0 80 80">
        <path d="M74.9672 2.50928H45.9781C45.1153 2.50928 44.4156 3.20896 44.4156 4.07178C44.4156 4.93459 45.1153 5.63428 45.9781 5.63428H74.9672C76.0191 5.63428 76.875 6.48943 76.875 7.54053V48.9515H3.125V7.54053C3.125 6.48928 3.98094 5.63428 5.03281 5.63428H32.2406C33.1034 5.63428 33.8031 4.93459 33.8031 4.07178C33.8031 3.20896 33.1034 2.50928 32.2406 2.50928H5.03281C2.25766 2.50928 0 4.76631 0 7.54053V57.6265C0 60.4016 2.25766 62.6593 5.03281 62.6593H30.5973L29.6339 70.9269C29.4106 72.8852 27.7569 74.3608 25.7862 74.3608C25.7847 74.3608 25.7833 74.3608 25.7819 74.3608C25.7686 74.3635 25.7395 74.3613 25.7183 74.3621C25.7017 74.3627 25.6853 74.3652 25.6688 74.3663H23.5445C22.6817 74.3663 21.982 75.066 21.982 75.9288C21.982 76.7916 22.6817 77.4913 23.5445 77.4913H56.4556C57.3184 77.4913 58.0181 76.7916 58.0181 75.9288C58.0181 75.066 57.3184 74.3663 56.4556 74.3663H54.3314C54.3148 74.3651 54.2983 74.3627 54.2819 74.3621C54.2612 74.3613 54.2405 74.3608 54.22 74.3608C54.2172 74.3608 54.2159 74.3608 54.2139 74.3608C52.2434 74.3607 50.5895 72.8854 50.3662 70.9269C50.3661 70.9257 50.3659 70.9243 50.3658 70.9232L49.4028 62.6593H74.9672C77.7423 62.6593 80 60.4016 80 57.6265V7.54053C80 4.76631 77.7423 2.50928 74.9672 2.50928ZM47.2616 71.2833C47.3916 72.421 47.7891 73.4687 48.3866 74.3661H31.6141C32.2116 73.4688 32.6087 72.4216 32.7383 71.2846L33.7434 62.6591H46.2566L47.2616 71.2833ZM76.875 57.6265C76.875 58.6783 76.0191 59.5343 74.9672 59.5343H5.03281C3.98094 59.5343 3.125 58.6783 3.125 57.6265V52.0765H76.875V57.6265Z" fill="#0FA7F0"/>
        <path d="M67.9146 38.6587C70.7382 35.8351 72.2932 32.0816 72.2932 28.0899C72.2932 19.8479 65.5879 13.1426 57.3459 13.1426C49.1049 13.1426 42.4004 19.8479 42.4004 28.0899C42.4004 36.3309 49.1049 43.0354 57.3459 43.0354C61.3387 43.0355 65.0921 41.4812 67.9146 38.6587ZM69.1551 28.6362C69.0476 31.036 68.1971 33.3646 66.7357 35.2701L58.9085 27.4427V16.3741C64.6995 17.1443 69.1684 22.2471 69.1684 28.0901C69.1684 28.2727 69.1632 28.4548 69.1551 28.6362ZM45.5254 28.0899C45.5254 22.1012 50.002 17.1415 55.7834 16.374V28.0899C55.7834 28.5043 55.948 28.9016 56.241 29.1948L64.5257 37.4795C62.4741 39.0546 59.9765 39.9104 57.3459 39.9104C50.8282 39.9105 45.5254 34.6077 45.5254 28.0899Z" fill="#0FA7F0"/>
        <path d="M25.4291 28.0894V39.8379H21.0433V16.3018C21.0433 15.4389 20.3436 14.7393 19.4808 14.7393H11.7589C10.8961 14.7393 10.1964 15.4389 10.1964 16.3018V39.8379H9.04688C8.18406 39.8379 7.48438 40.5375 7.48438 41.4003C7.48438 42.2632 8.18406 42.9628 9.04688 42.9628H37.3167C38.1795 42.9628 38.8792 42.2632 38.8792 41.4003C38.8792 40.5375 38.1795 39.8379 37.3167 39.8379H36.2761V28.0894C36.2761 27.2266 35.5764 26.5269 34.7136 26.5269H26.9917C26.1287 26.5269 25.4291 27.2264 25.4291 28.0894ZM13.3214 39.8379V17.8643H17.9183V39.8379H13.3214ZM28.5541 29.6519H33.1509V39.8379H28.5541V29.6519Z" fill="#0FA7F0"/>
        <path d="M37.7495 4.66873C38.077 5.45435 39.0023 5.84107 39.7903 5.51404C40.5759 5.18794 40.9617 4.25982 40.6355 3.47326C40.3095 2.68763 39.3809 2.30154 38.5948 2.62794C37.81 2.95388 37.4217 3.88279 37.7495 4.66873Z" fill="#0FA7F0"/>
    </symbol>
    <symbol xmlns="http://www.w3.org/2000/svg" id="bl2_icon1" viewBox="0 0 80 80">
        <path d="M63.279 45.9962V7.32616C63.3635 3.39764 59.8692 -0.108458 55.9377 0.00256757H7.3378C3.29561 -0.00417013 0.00249032 3.28397 0.00292973 7.32616V10.2556C0.00292973 11.0646 0.65883 11.7203 1.46765 11.7203H11.7207V64.7432C11.7207 68.7815 15.006 72.0668 19.0443 72.0668H51.5705C60.9711 79.2999 75.1074 72.3075 74.9968 60.3489C74.9968 53.2755 69.9567 47.357 63.279 45.9962ZM11.7207 8.79087H2.93236V7.32616C2.93236 4.90454 4.90153 2.93405 7.32271 2.932H7.32652H7.3378C9.75561 2.93815 11.7207 4.90688 11.7207 7.32616V8.79087ZM23.4384 61.8139V64.7434C23.2168 70.5662 14.8697 70.5618 14.6501 64.7434V7.32616C14.6501 5.67879 14.1033 4.15695 13.1819 2.932H55.948C57.1098 2.92351 58.2111 3.37508 59.0444 4.20279C59.886 5.03856 60.3496 6.14779 60.3496 7.32601V45.7018C52.273 45.7018 45.7024 52.2725 45.7024 60.3489H24.9031C24.0943 60.3492 23.4384 61.005 23.4384 61.8139ZM26.3678 64.7432V63.2785H45.9967C46.4376 65.4419 47.3568 67.4333 48.6387 69.1374H24.8998C25.8211 67.9126 26.3678 66.3905 26.3678 64.7432ZM60.3496 72.067C53.8884 72.067 48.6318 66.8104 48.6318 60.3492C49.221 44.8253 71.4806 44.8295 72.0673 60.3494C72.0673 66.8104 66.8108 72.067 60.3496 72.067Z" fill="#0FA7F0"/>
        <path d="M20.5096 23.4381H27.8332C28.642 23.4381 29.2979 22.7823 29.2979 21.9734V14.6498C29.2979 13.8408 28.642 13.1851 27.8332 13.1851H20.5096C19.7008 13.1851 19.0449 13.8408 19.0449 14.6498V21.9734C19.0449 22.7822 19.7008 23.4381 20.5096 23.4381ZM21.9744 16.1145H26.3685V20.5086H21.9744V16.1145Z" fill="#0FA7F0"/>
        <path d="M20.5096 38.0855H27.8332C28.642 38.0855 29.2979 37.4298 29.2979 36.6208V29.2972C29.2979 28.4883 28.642 27.8325 27.8332 27.8325H20.5096C19.7008 27.8325 19.0449 28.4883 19.0449 29.2972V36.6208C19.0449 37.4296 19.7008 38.0855 20.5096 38.0855ZM21.9744 30.7618H26.3685V35.156H21.9744V30.7618Z" fill="#0FA7F0"/>
        <path d="M29.2979 51.2678V43.9442C29.2979 43.1352 28.642 42.4795 27.8332 42.4795H20.5096C19.7008 42.4795 19.0449 43.1352 19.0449 43.9442V51.2678C19.0449 52.0768 19.7008 52.7325 20.5096 52.7325H27.8332C28.6422 52.7325 29.2979 52.0768 29.2979 51.2678ZM26.3685 49.8031H21.9744V45.4089H26.3685V49.8031Z" fill="#0FA7F0"/>
        <path d="M35.1566 16.8469H54.4909C56.4322 16.7749 56.4308 13.9888 54.4909 13.9175H35.1566C33.2153 13.9895 33.2168 16.7756 35.1566 16.8469Z" fill="#0FA7F0"/>
        <path d="M48.0702 28.5649H35.3265C33.3852 28.637 33.3867 31.4231 35.3265 31.4944H48.0702C50.0115 31.4223 50.01 28.6363 48.0702 28.5649Z" fill="#0FA7F0"/>
        <path d="M49.3645 43.2119H35.1566C33.2153 43.284 33.2168 46.07 35.1566 46.1413H49.3645C51.3059 46.0693 51.3044 43.2832 49.3645 43.2119Z" fill="#0FA7F0"/>
        <path d="M35.1566 22.7058H49.3645C51.3059 22.6337 51.3044 19.8477 49.3645 19.7764H35.1566C33.2153 19.8484 33.2168 22.6345 35.1566 22.7058Z" fill="#0FA7F0"/>
        <path d="M35.1566 37.3533H43.4324C45.3738 37.2812 45.3723 34.4952 43.4324 34.4238H35.1566C33.2153 34.4959 33.2168 37.2819 35.1566 37.3533Z" fill="#0FA7F0"/>
        <path d="M43.4324 49.0708H35.1566C33.2153 49.1429 33.2168 51.9289 35.1566 52.0002H43.4324C45.3738 51.9282 45.3723 49.1421 43.4324 49.0708Z" fill="#0FA7F0"/>
        <path d="M61.3359 68.94H59.3739V66.798C57.9939 66.666 56.7879 66.306 55.7559 65.718V63.144C57.0999 64.032 58.6059 64.476 60.2739 64.476C61.0419 64.476 61.6119 64.386 61.9839 64.206C62.3679 64.014 62.5599 63.702 62.5599 63.27C62.5599 62.958 62.4339 62.688 62.1819 62.46C61.9419 62.232 61.6239 62.052 61.2279 61.92C60.8319 61.776 60.3939 61.638 59.9139 61.506C59.4339 61.362 58.9539 61.2 58.4739 61.02C57.9939 60.828 57.5559 60.606 57.1599 60.354C56.7639 60.09 56.4399 59.73 56.1879 59.274C55.9479 58.818 55.8279 58.29 55.8279 57.69C55.8279 56.67 56.1519 55.866 56.7999 55.278C57.4479 54.678 58.3059 54.306 59.3739 54.162V52.02H61.3359V54.18C62.6079 54.3 63.6699 54.6 64.5219 55.08V57.6C63.4539 56.832 62.1579 56.46 60.6339 56.484C59.2659 56.508 58.5819 56.898 58.5819 57.654C58.5819 57.942 58.7019 58.194 58.9419 58.41C59.1939 58.614 59.5179 58.782 59.9139 58.914C60.3219 59.046 60.7659 59.178 61.2459 59.31C61.7259 59.442 62.1999 59.604 62.6679 59.796C63.1479 59.988 63.5859 60.216 63.9819 60.48C64.3899 60.732 64.7139 61.086 64.9539 61.542C65.2059 61.998 65.3319 62.532 65.3319 63.144C65.3319 64.32 64.9659 65.202 64.2339 65.79C63.5139 66.378 62.5479 66.72 61.3359 66.816V68.94Z" fill="#0FA7F0"/>
    </symbol>
    <symbol xmlns="http://www.w3.org/2000/svg" id="bl2_icon2" viewBox="0 0 86 86">
        <path d="M85.996 69.8855C85.9951 69.8729 85.9953 69.8605 85.9941 69.8479C85.9896 69.798 85.9824 69.7491 85.9721 69.7013C85.9711 69.6965 85.9696 69.6918 85.9684 69.6871C85.9585 69.6431 85.9463 69.6001 85.9318 69.5581C85.9279 69.5469 85.9237 69.536 85.9195 69.5249C85.9054 69.4868 85.8895 69.4496 85.8718 69.4135C85.8688 69.4071 85.8668 69.4006 85.8636 69.3942L79.126 56.1049V12.3826C79.126 11.0378 78.0321 9.94385 76.6873 9.94385H9.31236C7.9676 9.94385 6.87362 11.0378 6.87362 12.3826V56.1045L0.136223 69.394C0.133031 69.4004 0.131016 69.407 0.127992 69.4134C0.110355 69.4495 0.0945664 69.4866 0.0802891 69.5245C0.0760898 69.5356 0.0718906 69.5467 0.0680273 69.558C0.05375 69.6001 0.0413203 69.6433 0.0314102 69.6873C0.0304023 69.6918 0.0288906 69.6964 0.0278828 69.7009C0.0176367 69.749 0.0104141 69.7978 0.00587891 69.8477C0.00470312 69.8602 0.00470312 69.8727 0.00403125 69.8852C0.00235156 69.9114 0 69.9372 0 69.9638V73.1596C0 74.7568 1.29924 76.056 2.89645 76.056H83.1035C84.7008 76.056 86 74.7568 86 73.1596V69.9638C86 69.9372 85.9977 69.9114 85.996 69.8855ZM9.39332 12.4637H76.6067V55.1461H9.39332V12.4637ZM8.90722 57.6655H77.0926L82.689 68.7039H55.0111L53.6218 63.6666C53.339 62.6412 52.3987 61.925 51.3349 61.925H34.6647C33.601 61.925 32.6605 62.6412 32.3778 63.6665L30.9886 68.7039H3.31083L8.90722 57.6655ZM52.3975 68.704H33.6025L34.7771 64.4447H51.2229L52.3975 68.704ZM83.4805 73.1594C83.4805 73.3672 83.3113 73.5363 83.1035 73.5363H2.89645C2.68868 73.5363 2.51953 73.3672 2.51953 73.1594V71.2234H83.4805V73.1594Z" fill="#0FA7F0"/>
        <path d="M72.6596 35.9043C71.9638 35.9043 71.3999 36.4682 71.3999 37.1641V49.9389H14.6006V37.1641C14.6006 36.4682 14.0367 35.9043 13.3408 35.9043C12.6449 35.9043 12.0811 36.4682 12.0811 37.1641V50.483C12.0811 51.5723 12.9671 52.4585 14.0565 52.4585H71.9441C73.0334 52.4585 73.9196 51.5724 73.9196 50.483V37.1641C73.9194 36.4685 73.3555 35.9043 72.6596 35.9043Z" fill="#0FA7F0"/>
        <path d="M71.943 15.1514H14.0556C12.9663 15.1514 12.0801 16.0374 12.0801 17.1268V47.4458C12.0801 48.1417 12.6439 48.7055 13.3398 48.7055C14.0357 48.7055 14.5996 48.1417 14.5996 47.4458V17.6709H71.3989V40.4458C71.3989 41.1417 71.9628 41.7055 72.6587 41.7055C73.3546 41.7055 73.9185 41.1417 73.9185 40.4458V17.1268C73.9185 16.0372 73.0324 15.1514 71.943 15.1514Z" fill="#0FA7F0"/>
        <path fill-rule="evenodd" clip-rule="evenodd" d="M24.8476 21.5552H28.7562C29.8457 21.5552 30.7317 22.441 30.7317 23.5307V31.6537C30.7318 31.6606 30.7319 31.6675 30.7319 31.6744V44.9933C30.7319 46.0828 29.8457 46.9688 28.7564 46.9688H24.8476C23.7581 46.9688 22.8721 46.0826 22.8721 44.9933V36.8496V31.6744V23.5307C22.8721 22.4412 23.7583 21.5552 24.8476 21.5552ZM25.3916 31.6725C25.3916 31.6731 25.3916 31.6738 25.3916 31.6744V44.4493H28.2122V36.8523C28.2122 36.8514 28.2122 36.8505 28.2122 36.8496V24.0747H25.3916V31.6725Z" fill="#0FA7F0"/>
        <path fill-rule="evenodd" clip-rule="evenodd" d="M46.6171 25.2148H50.5258C51.6152 25.2148 52.5012 26.1007 52.5012 27.1903V31.6538C52.5014 31.6607 52.5014 31.6676 52.5014 31.6745V44.9934C52.5014 46.0829 51.6152 46.9689 50.5259 46.9689H46.6171C45.5276 46.9689 44.6416 46.0827 44.6416 44.9934V36.8497V31.6745V27.1903C44.6416 26.1009 45.5278 25.2148 46.6171 25.2148ZM47.1611 31.6726C47.1611 31.6732 47.1611 31.6738 47.1611 31.6745V44.4494H49.9817V36.8524C49.9817 36.8515 49.9817 36.8506 49.9817 36.8497V27.7344H47.1611V31.6726Z" fill="#0FA7F0"/>
        <path fill-rule="evenodd" clip-rule="evenodd" d="M35.6386 28.8745H39.5472C40.6367 28.8745 41.5227 29.7604 41.5227 30.85V31.6541C41.5228 31.6609 41.5229 31.6677 41.5229 31.6746V44.9935C41.5229 46.083 40.6367 46.969 39.5474 46.969H35.6386C34.5491 46.969 33.6631 46.0828 33.6631 44.9935V36.8498V31.6746V30.85C33.6631 29.7605 34.5493 28.8745 35.6386 28.8745ZM36.1826 31.6738C36.1826 31.6741 36.1826 31.6743 36.1826 31.6746L36.1826 36.8498L36.1826 44.4495H39.0032V36.8509C39.0032 36.8505 39.0032 36.8501 39.0032 36.8498L39.0032 31.6746L39.0032 31.394H36.1826V31.6738Z" fill="#0FA7F0"/>
        <path fill-rule="evenodd" clip-rule="evenodd" d="M57.5966 21.5552H61.5053C62.5947 21.5552 63.4807 22.441 63.4807 23.5307V31.6537C63.4809 31.6606 63.4809 31.6675 63.4809 31.6744V44.9933C63.4809 46.0828 62.5947 46.9688 61.5054 46.9688H57.5966C56.5071 46.9688 55.6211 46.0826 55.6211 44.9933V36.8496V31.6744V23.5307C55.6211 22.4412 56.5073 21.5552 57.5966 21.5552ZM58.1406 31.6725C58.1406 31.6731 58.1406 31.6738 58.1406 31.6744V44.4493H60.9612V36.8523C60.9612 36.8514 60.9612 36.8505 60.9612 36.8496V24.0747H58.1406V31.6725Z" fill="#0FA7F0"/>
    </symbol>
    <symbol xmlns="http://www.w3.org/2000/svg" id="bl2_icon3" viewBox="0 0 85 85">
        <path d="M85 60.955V35.4017C85 32.3194 82.4923 29.8119 79.4103 29.8119H44.3987V29.1553C44.3987 28.2932 44.0938 27.5016 43.5869 26.8809C43.9629 26.4207 44.2252 25.8695 44.3375 25.2722C45.762 24.4324 46.6701 22.8941 46.6701 21.2053C46.6701 20.4078 46.4648 19.6284 46.08 18.9339C46.4646 18.2395 46.6701 17.4602 46.6701 16.6625C46.6701 14.9808 45.7692 13.4561 44.3722 12.6157C44.3899 12.451 44.3987 12.2857 44.3987 12.1196C44.3987 9.72752 42.6167 7.74363 40.3104 7.42604C39.4684 6.01109 37.9356 5.11029 36.2535 5.11029C36.0375 5.11029 35.8194 5.12689 35.6009 5.1601C34.6614 4.39941 33.4878 3.97458 32.2786 3.97458C32.1171 3.97458 31.9552 3.98271 31.7912 3.99898C30.7811 3.24677 29.5654 2.83887 28.3038 2.83887C27.0423 2.83887 25.8266 3.24677 24.8163 3.99898C24.6522 3.98271 24.4903 3.97458 24.3289 3.97458C23.1165 3.97458 21.9617 4.38248 21.0239 5.13354C19.5279 5.28278 18.1965 6.14291 17.433 7.42621C15.1267 7.74363 13.3447 9.72752 13.3447 12.1196C13.3447 12.2855 13.3535 12.451 13.3712 12.6157C11.9744 13.4561 11.0732 14.9808 11.0732 16.6625C11.0732 17.4602 11.2786 18.2395 11.6634 18.9339C11.2786 19.6284 11.0732 20.4078 11.0732 21.2053C11.0732 22.8941 11.9812 24.4324 13.4061 25.2722C13.4687 25.6056 13.5794 25.924 13.7292 26.2208C12.8108 26.8744 12.209 27.9447 12.209 29.1552V31.4266C12.209 33.4128 13.8248 35.029 15.8113 35.029H16.4028L16.4996 35.6336C16.7239 37.0358 17.4482 38.3088 18.5393 39.218L19.0234 39.6215V43.3776C19.0234 43.7929 18.7564 44.1543 18.3593 44.2764L8.40504 47.3392C5.9251 48.1024 4.2588 50.3583 4.2588 52.9532V69.4727C4.2588 71.1141 4.82757 72.6245 5.77618 73.8203H2.75055C1.23383 73.8203 0 75.0542 0 76.5709V79.4101C0 80.9268 1.23383 82.1606 2.75055 82.1606H82.2495C83.7662 82.1606 85 80.9268 85 79.4101V76.5709C85 75.0542 83.7662 73.8203 82.2495 73.8203H67.7988L66.8286 66.5447H79.4103C82.4923 66.5447 85 64.0372 85 60.955ZM15.811 32.3672C15.2925 32.3672 14.8705 31.9454 14.8705 31.4268V29.1553C14.8705 28.8117 15.0578 28.5137 15.3337 28.3495L15.9767 32.3672H15.811ZM16.0074 24.652C16.0127 24.6116 16.0177 24.5715 16.0213 24.5306C16.0766 23.9223 15.7106 23.3544 15.1338 23.1534C14.2971 22.8618 13.735 22.0791 13.735 21.2055C13.735 20.5619 14.0298 20.0995 14.277 19.8249C14.7329 19.3186 14.7329 18.5496 14.2768 18.0432C14.0295 17.7687 13.7348 17.3063 13.7348 16.6627C13.7348 15.7353 14.367 14.9165 15.2724 14.6715C15.6393 14.572 15.9465 14.3207 16.1158 13.9803C16.2855 13.6402 16.3014 13.2436 16.1598 12.8908C16.0577 12.6373 16.0061 12.3778 16.0061 12.12C16.0061 10.9914 16.9112 10.0702 18.0338 10.0443C18.0904 10.0519 18.1473 10.0582 18.2053 10.0617C18.8013 10.0959 19.3455 9.7335 19.5414 9.17103C19.8281 8.34793 20.5901 7.79078 21.4464 7.77269C21.4721 7.77451 21.498 7.77567 21.5241 7.77601C21.8838 7.78032 22.2248 7.64519 22.4795 7.39533C22.9786 6.90592 23.6353 6.63631 24.3286 6.63631C24.5081 6.63631 24.6983 6.65955 24.9101 6.7072C25.3403 6.80398 25.7914 6.6813 26.1133 6.37915C26.7167 5.81287 27.4945 5.50093 28.3037 5.50093C29.1128 5.50093 29.8906 5.81287 30.4939 6.37932C30.8157 6.68146 31.2666 6.80432 31.697 6.70736C31.9089 6.65955 32.0991 6.63647 32.2786 6.63647C33.0218 6.63647 33.714 6.94825 34.2274 7.5142C34.583 7.90616 35.137 8.0501 35.6384 7.88109C35.8559 7.80788 36.0573 7.77219 36.2537 7.77219C37.1272 7.77219 37.9102 8.33432 38.2017 9.17087C38.3976 9.73316 38.9423 10.0971 39.5378 10.0615C39.5921 10.0584 39.6455 10.0524 39.7089 10.0441C40.8315 10.0698 41.7368 10.9912 41.7368 12.1198C41.7368 12.3776 41.6852 12.6371 41.5833 12.8904C41.4415 13.2432 41.4574 13.6398 41.6271 13.9802C41.7968 14.3205 42.1037 14.572 42.4708 14.6713C43.3759 14.9163 44.0083 15.7351 44.0083 16.6625C44.0083 17.3061 43.7134 17.7685 43.4662 18.0431C43.0102 18.5493 43.0102 19.3184 43.4662 19.8248C43.7136 20.0993 44.0083 20.5617 44.0083 21.2053C44.0083 22.0789 43.4461 22.8618 42.6094 23.1532C42.0327 23.3542 41.6666 23.9222 41.7219 24.5305C41.7255 24.5713 41.7305 24.6118 41.7362 24.6522C41.7186 25.0562 41.4357 25.4067 41.0361 25.5129C40.9934 25.5242 39.7206 25.553 39.7206 25.553L38.9552 20.961C38.842 20.2818 38.2281 19.8012 37.5431 19.8526C37.4813 19.8573 37.4209 19.8648 37.3602 19.8731L37.3524 19.8741C36.6704 19.8619 36.0395 19.5155 35.6592 18.9417C35.4125 18.57 34.9963 18.3464 34.55 18.3464C34.1039 18.3464 33.6874 18.57 33.4409 18.9416C33.0535 19.5256 32.4069 19.8742 31.7106 19.8742C31.0145 19.8742 30.3679 19.5256 29.9804 18.9416C29.7337 18.5698 29.3175 18.3462 28.8713 18.3462C28.4252 18.3462 28.0087 18.5698 27.7621 18.9414C27.3748 19.5254 26.7282 19.8741 26.0319 19.8741C25.3358 19.8741 24.6892 19.5254 24.3017 18.9414C24.055 18.5697 23.6388 18.3461 23.1925 18.3461C22.7465 18.3461 22.3299 18.5697 22.0834 18.9412C21.7029 19.515 21.072 19.8614 20.3902 19.8736L20.3824 19.8726C20.322 19.8643 20.261 19.8568 20.1993 19.8521C19.5145 19.7999 18.9005 20.2815 18.7873 20.9605L18.0222 25.553C18.0222 25.553 16.7495 25.5244 16.7068 25.5131C16.3075 25.4069 16.0245 25.0561 16.0074 24.652ZM41.737 29.1553V29.8119H41.0397L41.2738 28.3495C41.5497 28.5137 41.737 28.8117 41.737 29.1553ZM18.0077 28.2149H18.1878C19.3984 28.2149 20.4216 27.3479 20.621 26.1538L21.2375 22.4534C21.9501 22.3186 22.6178 22.022 23.193 21.5902C24.001 22.197 24.992 22.5363 26.0322 22.5363C27.0723 22.5363 28.0634 22.1968 28.8714 21.5902C29.6794 22.197 30.6704 22.5363 31.7106 22.5363C32.7507 22.5363 33.7418 22.1968 34.5498 21.5902C35.1249 22.0221 35.7928 22.3185 36.5053 22.4534L37.1219 26.1539C37.2672 27.0255 37.8526 27.7208 38.6283 28.0339L38.344 29.8119H36.8213C33.739 29.8119 31.2315 32.3196 31.2315 35.4017V41.3085C30.992 41.402 30.736 41.4528 30.4771 41.4528H26.13C25.6453 41.4528 25.1733 41.2819 24.8009 40.9715L20.2426 37.1729C19.646 36.6757 19.25 35.9797 19.1273 35.2129L18.0077 28.2149ZM19.1419 46.8205C20.6631 46.3526 21.685 44.9688 21.685 43.3776V41.8396L23.0971 43.0165C23.9469 43.7247 25.024 44.1147 26.1304 44.1147H30.4775C30.7307 44.1147 30.983 44.0931 31.2319 44.0526V52.6163C30.4509 52.7438 29.657 52.8099 28.8602 52.8099C24.4204 52.8099 20.2335 50.7785 17.4768 47.333L19.1419 46.8205ZM6.92069 52.953C6.92069 51.5341 7.83195 50.3004 9.18797 49.883L14.7739 48.1644C18.0037 52.7413 23.2618 55.4715 28.8602 55.4715C29.6552 55.4715 30.4479 55.4155 31.2319 55.3074V60.955C31.2319 64.0372 33.7394 66.5447 36.8216 66.5447H42.5888V73.7315C42.5888 73.7616 42.5913 73.7908 42.5933 73.8202H35.3132V72.3118C35.3132 69.2295 32.8055 66.722 29.7234 66.722H15.5271C15.4781 66.722 15.4385 66.6823 15.4385 66.6334V58.1156C15.4385 57.3806 14.8426 56.7846 14.1075 56.7846C13.3724 56.7846 12.7766 57.3805 12.7766 58.1156V66.6334C12.7766 68.1501 14.0104 69.3839 15.5271 69.3839H24.1335V73.8202H11.2683C8.87105 73.8202 6.92069 71.8698 6.92069 69.4725V52.953ZM32.6513 72.3119V73.8203H26.7954V69.3841H29.7234C31.3378 69.3839 32.6513 70.6974 32.6513 72.3119ZM82.2495 76.4821C82.2984 76.4821 82.3381 76.5217 82.3381 76.5707V79.4099C82.3381 79.4589 82.2984 79.4986 82.2495 79.4986H2.75055C2.70157 79.4986 2.66189 79.4589 2.66189 79.4099V76.5707C2.66189 76.5217 2.70157 76.4821 2.75055 76.4821H82.2495ZM45.2461 73.8203C45.2481 73.7909 45.2505 73.7616 45.2505 73.7317V66.5449H49.4029L48.4327 73.8205H45.2461V73.8203ZM51.1182 73.8203L53.428 56.4968C53.5276 55.7504 54.1702 55.1877 54.9233 55.1877H61.3086C62.0615 55.1877 62.7043 55.7504 62.8037 56.4968L65.1136 73.8203H51.1182ZM66.6337 63.883C66.5799 63.883 66.5274 63.8871 66.4752 63.8933L65.442 56.145C65.1669 54.0819 63.3899 52.526 61.3086 52.526H54.9233C52.8419 52.526 51.0647 54.0819 50.7897 56.145L49.7565 63.8933C49.7046 63.8871 49.6518 63.883 49.598 63.883H36.8214C35.2069 63.883 33.8934 62.5695 33.8934 60.955V35.4017C33.8934 33.7872 35.2069 32.4736 36.8214 32.4736H79.4103C81.0248 32.4736 82.3383 33.7872 82.3383 35.4017V60.955C82.3383 62.5695 81.0248 63.883 79.4103 63.883H66.6337Z" fill="#0FA7F0"/>
        <path d="M58.1155 41.1689C55.816 41.1689 53.9453 43.0396 53.9453 45.3391C53.9453 47.6386 55.816 49.5092 58.1155 49.5092C60.4149 49.5092 62.2856 47.6386 62.2856 45.3391C62.2856 43.0398 60.4148 41.1689 58.1155 41.1689ZM58.1155 46.8475C57.2837 46.8475 56.607 46.1708 56.607 45.3391C56.607 44.5073 57.2837 43.8307 58.1155 43.8307C58.9472 43.8307 59.6239 44.5073 59.6239 45.3391C59.6237 46.1708 58.9472 46.8475 58.1155 46.8475Z" fill="#0FA7F0"/>
    </symbol>
    <symbol xmlns="http://www.w3.org/2000/svg" id="bl2_icon4" fill="none" viewBox="0 0 70 70">
        <circle cx="25.5" cy="25.5" r="18" stroke="#0FA7F0" stroke-width="3"/>
        <path d="M67.4939 55.8786L53.902 42.2865C53.3749 41.7598 52.4946 41.7598 51.9675 42.2865L51.1999 43.0542L47.1777 39.0321C53.4381 29.0858 51.8859 15.756 43.596 7.46594C38.7816 2.65139 32.3803 0 25.5714 0C18.7624 0 12.3611 2.65139 7.54653 7.46607C0.071975 14.9406 -2.02433 26.613 2.43119 36.2136C3.68955 38.925 5.4334 41.4023 7.54666 43.5154C15.7816 51.7504 28.9972 53.3438 38.9285 47.2107L42.9855 51.2687L42.1775 52.0767C41.6434 52.6109 41.6434 53.477 42.1775 54.0111L55.7694 67.603C58.9651 70.7987 64.2983 70.7987 67.494 67.603C70.6895 64.4076 70.6895 59.0742 67.4939 55.8786ZM9.48096 41.5811C0.709632 32.8098 0.709632 18.1718 9.48096 9.40051C13.7789 5.10262 19.4932 2.73574 25.5714 2.73574C31.6495 2.73574 37.3638 5.10262 41.6617 9.40051C49.324 17.0628 50.4904 29.4943 44.3031 38.4189C42.6418 40.7796 40.6323 42.6613 38.3062 44.3552C29.3894 50.4018 17.0818 49.182 9.48096 41.5811ZM41.2109 45.6247C42.844 44.3509 44.2595 42.8913 45.5731 41.2962L49.2656 44.9887L44.9198 49.3345L41.2109 45.6247ZM65.5594 65.6689C63.418 67.8106 59.8454 67.8106 57.7037 65.6689L45.079 53.0443L52.9348 45.1884L65.5594 57.8131C67.7011 59.9544 67.7011 63.527 65.5594 65.6689Z" fill="#0FA7F0"/>
        <path d="M12.1085 24.9526C11.6995 25.4551 11.6995 26.1759 12.1085 26.6786C12.3334 26.9552 17.7097 33.4535 25.6258 33.4535C33.5421 33.4535 38.9183 26.9554 39.1434 26.6786C39.5523 26.1761 39.5523 25.4553 39.1434 24.9526C38.9185 24.676 33.5421 18.1777 25.6258 18.1777C17.7097 18.1777 12.3334 24.6758 12.1085 24.9526ZM25.6258 29.6335C23.5206 29.6335 21.808 27.9209 21.808 25.8155C21.808 23.7103 23.5206 21.9977 25.6258 21.9977C27.7312 21.9977 29.4438 23.7103 29.4438 25.8155C29.4437 27.9209 27.731 29.6335 25.6258 29.6335ZM20.1676 22.1937C19.4764 23.2321 19.0724 24.4773 19.0724 25.8155C19.0724 27.1539 19.4764 28.3991 20.1676 29.4375C17.8111 28.3354 16.0129 26.7757 15.0408 25.8157C16.0136 24.8551 17.8117 23.2955 20.1676 22.1937ZM31.0841 29.4373C31.7753 28.399 32.1793 27.1537 32.1793 25.8155C32.1793 24.4772 31.7753 23.232 31.0839 22.1936C33.4405 23.2957 35.2388 24.8554 36.2109 25.8154C35.2383 26.776 33.44 28.3355 31.0841 29.4373Z" fill="#0FA7F0"/>
    </symbol>
    <symbol xmlns="http://www.w3.org/2000/svg" id="telegram" viewBox="0 0 15 13">
        <path d="M5.88574 8.48838L5.63761 11.9784C5.99261 11.9784 6.14636 11.8259 6.33074 11.6428L7.99511 10.0521L11.4439 12.5778C12.0764 12.9303 12.522 12.7446 12.6926 11.9959L14.9564 1.38838L14.957 1.38775C15.1576 0.452753 14.6189 0.0871284 14.0026 0.316503L0.696361 5.41088C-0.211764 5.76338 -0.198014 6.26963 0.541986 6.499L3.94386 7.55713L11.8457 2.61275C12.2176 2.3665 12.5557 2.50275 12.2776 2.749L5.88574 8.48838Z" fill="white"/>
    </symbol>
    <symbol xmlns="http://www.w3.org/2000/svg" id="viber" viewBox="0 0 15 15">
        <path d="M12.8311 6.29458C12.8492 4.17976 11.0479 2.24103 8.81597 1.97294C8.77158 1.96768 8.72322 1.95967 8.67203 1.95119C8.56153 1.93288 8.44726 1.91406 8.33197 1.91406C7.87451 1.91406 7.75223 2.2354 7.72004 2.42704C7.68874 2.61338 7.7186 2.76985 7.80864 2.89232C7.96013 3.09832 8.22669 3.13489 8.44079 3.16419C8.50353 3.17285 8.56274 3.18091 8.61231 3.19204C10.6176 3.64013 11.2929 4.34462 11.6229 6.33291C11.6309 6.3815 11.6346 6.44136 11.6384 6.50485C11.6528 6.74253 11.6828 7.23701 12.2144 7.23701H12.2145C12.2588 7.23701 12.3063 7.23319 12.3558 7.22565C12.8509 7.15041 12.8354 6.69841 12.8279 6.48124C12.8258 6.42007 12.8238 6.36221 12.829 6.32374C12.8304 6.31405 12.8311 6.30431 12.8311 6.29458Z" fill="white"/>
        <path d="M8.20209 1.19665C8.26149 1.20093 8.31772 1.20503 8.36453 1.2122C11.6575 1.71862 13.1719 3.2788 13.5916 6.59753C13.5987 6.65394 13.5998 6.72275 13.601 6.79561C13.6052 7.05489 13.6138 7.59429 14.1931 7.60547L14.211 7.60565C14.3927 7.60565 14.5372 7.55087 14.6406 7.4427C14.8209 7.25408 14.8083 6.97388 14.7982 6.7487C14.7957 6.69345 14.7933 6.64141 14.794 6.59585C14.8358 3.20166 11.8978 0.12382 8.50661 0.00936335C8.49255 0.00889752 8.47913 0.00964286 8.46557 0.0115528C8.45891 0.0125311 8.44657 0.0137422 8.42542 0.0137422C8.3916 0.0137422 8.35 0.0108075 8.30588 0.00782609C8.25255 0.00419255 8.19208 0 8.13078 0C7.59073 0 7.48806 0.383851 7.47492 0.612671C7.44464 1.14149 7.95623 1.17871 8.20209 1.19665Z" fill="white"/>
        <path d="M13.4327 10.8864C13.3627 10.8329 13.2903 10.7775 13.2225 10.7229C12.863 10.4336 12.4805 10.1669 12.1105 9.90898C12.0338 9.8555 11.957 9.80198 11.8805 9.74831C11.4067 9.41547 10.9806 9.25373 10.5782 9.25373C10.0361 9.25373 9.56342 9.55326 9.17333 10.1439C9.0005 10.4057 8.79083 10.5331 8.53243 10.5331C8.37963 10.5331 8.20602 10.4895 8.01647 10.4034C6.48698 9.70983 5.39482 8.64642 4.77027 7.24271C4.46836 6.56426 4.56623 6.12078 5.09757 5.75985C5.39929 5.55507 5.96091 5.17382 5.92112 4.44376C5.87608 3.61471 4.04682 1.12019 3.27609 0.836868C2.94977 0.716868 2.60692 0.71575 2.25521 0.834073C1.36918 1.13193 0.733361 1.65502 0.416311 2.3467C0.109929 3.01504 0.123764 3.79979 0.456326 4.61612C1.41772 6.97634 2.7694 9.03413 4.47395 10.7323C6.1424 12.3946 8.19306 13.7562 10.5689 14.7792C10.7831 14.8714 11.0077 14.9216 11.1717 14.9583C11.2276 14.9709 11.2759 14.9816 11.3111 14.9912C11.3304 14.9965 11.3503 14.9993 11.3703 14.9995L11.3891 14.9996C11.3891 14.9996 11.3891 14.9996 11.3892 14.9996C12.5066 14.9996 13.8484 13.9785 14.2605 12.8144C14.6215 11.795 13.9623 11.2912 13.4327 10.8864Z" fill="white"/>
        <path d="M8.69582 3.89299C8.5045 3.89783 8.10635 3.90771 7.96664 4.31322C7.90129 4.50272 7.90911 4.66726 7.98994 4.80226C8.10854 5.00033 8.33577 5.06103 8.54247 5.09434C9.29205 5.21462 9.67702 5.62912 9.75402 6.39869C9.7898 6.75752 10.0314 7.0081 10.3417 7.0081H10.3417C10.3646 7.0081 10.3881 7.00675 10.4114 7.00391C10.7845 6.95951 10.9654 6.68537 10.9491 6.18915C10.955 5.67128 10.684 5.08334 10.2231 4.61504C9.76054 4.14528 9.20298 3.88073 8.69582 3.89299Z" fill="white"/>
    </symbol>
    <symbol xmlns="http://www.w3.org/2000/svg" id="messenger" viewBox="0 0 19 19">
        <path d="M9.5 0C4.25362 0 0 3.93775 0 8.79581C0 11.5639 1.38106 14.0327 3.53994 15.6453V19L6.77469 17.2247C7.638 17.4634 8.55237 17.5928 9.5 17.5928C14.7464 17.5928 19 13.6551 19 8.797C19 3.93894 14.7464 0 9.5 0ZM10.4441 11.8453L8.02512 9.26488L3.30481 11.8453L8.49775 6.33294L10.9761 8.91337L15.637 6.33294L10.4441 11.8453Z" fill="white"/>
    </symbol>
    <symbol xmlns="http://www.w3.org/2000/svg" id="logo" viewBox="0 0 183 48">
        <path d="M55.5566 16.1646H62.3242C66.2863 16.1646 68.6868 18.5152 68.6868 21.9687C68.6868 25.8284 65.7079 27.8308 61.9771 27.8308H59.2007V32.7933H55.5566V16.1646ZM62.0928 24.5515C63.9148 24.5515 64.9849 23.4487 64.9849 21.9687C64.9849 20.3145 63.857 19.4439 62.0349 19.4439H59.2007V24.5225H62.0928V24.5515Z" fill="#37376D"/>
        <path d="M73.4883 16.1646H81.0656C83.1768 16.1646 84.7964 16.745 85.8954 17.8477C86.8209 18.7764 87.3125 20.0823 87.3125 21.7075C87.3125 24.4064 85.8665 26.0896 83.7553 26.8731L87.8042 32.8223H83.5817L79.9666 27.4826H77.1323V32.7933H73.4883V16.1646ZM80.8342 24.2323C82.5984 24.2323 83.6396 23.2746 83.6396 21.8236C83.6396 20.2564 82.5406 19.4439 80.7764 19.4439H77.1612V24.2323H80.8342Z" fill="#37376D"/>
        <path d="M96.5376 16.1646H92.8936V32.9094H96.5376V16.1646Z" fill="#37376D"/>
        <path d="M103.045 24.4643C103.045 19.734 106.602 15.8452 111.692 15.8452C114.816 15.8452 116.58 17.0351 118.113 18.5441L115.944 21.0689C114.671 19.9081 113.572 19.2116 111.663 19.2116C108.858 19.2116 106.863 21.5332 106.863 24.4353C106.863 27.2793 108.829 29.659 111.663 29.659C113.572 29.659 114.729 28.9045 116.03 27.7146L118.344 30.2104C116.638 32.0387 114.729 33.0544 111.548 33.0544C106.689 33.0834 103.045 29.3107 103.045 24.4643Z" fill="#37376D"/>
        <path d="M123.377 16.1646H135.9V19.4149H127.021V22.7812H134.83V26.0606H127.021V29.543H136.015V32.7933H123.377V16.1646Z" fill="#37376D"/>
        <path d="M141.365 16.1646H148.943C151.054 16.1646 152.674 16.745 153.773 17.8477C154.698 18.7764 155.19 20.0823 155.19 21.7075C155.19 24.4064 153.744 26.0896 151.632 26.8731L155.681 32.8223H151.401L147.786 27.4826H144.952V32.7933H141.308V16.1646H141.365ZM148.711 24.2323C150.476 24.2323 151.517 23.2746 151.517 21.8236C151.517 20.2564 150.418 19.4439 148.654 19.4439H145.038V24.2323H148.711Z" fill="#37376D"/>
        <path d="M162.016 26.0022L165.891 22.81C167.337 21.5911 167.916 20.9527 167.916 19.995C167.916 19.0083 167.25 18.4569 166.354 18.4569C165.457 18.4569 164.821 18.9502 163.953 20.024L162.16 18.573C163.317 17.0059 164.445 16.1353 166.527 16.1353C168.957 16.1353 170.547 17.5573 170.547 19.7918C170.547 21.7652 169.535 22.7229 167.482 24.319L165.573 25.7991H170.663V28.0337H162.016V26.0022Z" fill="#0FA7F0"/>
        <path d="M177.979 25.5092H172.282L171.877 23.6809L178.297 16.2227H180.467V23.4198H182.028V25.5092H180.467V28.034H178.008V25.5092H177.979ZM177.979 23.4198V19.7632L174.885 23.4198H177.979Z" fill="#0FA7F0"/>
        <path d="M180.987 30.9648H162.102V32.7351H180.987V30.9648Z" fill="#0FA7F0"/>
        <path d="M99.6616 16.1646H97.8975V32.9094H99.6616V16.1646Z" fill="#37376D"/>
        <path d="M4.62723 0.812576L5.66839 10.4474L5.84191 12.2757H1.79297L1.99542 10.4474L3.00765 0.812576L3.09441 0H4.54047L4.62723 0.812576Z" fill="#F28100"/>
        <path d="M36.8167 0.812576L37.8289 10.4474L38.0314 12.2757H33.9824L34.1559 10.4474L35.1971 0.812576L35.2839 0H36.7299L36.8167 0.812576Z" fill="#F28100"/>
        <path d="M17.9887 30.7331C17.1789 31.4587 16.398 32.0681 15.5883 32.6775C14.7785 33.287 13.9687 33.8964 13.101 34.4768C11.3947 35.6376 9.65944 36.7114 7.66389 37.611C6.73842 38.0173 5.63942 37.611 5.23452 36.6824C4.85855 35.8408 5.17668 34.8541 5.92863 34.3897L5.98647 34.3607C7.49036 33.4321 8.90749 32.2422 10.2957 30.9653C10.9898 30.3269 11.655 29.6594 12.3202 28.9919C12.9564 28.3244 13.6505 27.5989 14.2 26.9605C15.1834 25.8287 16.8608 25.7126 17.9887 26.6703C19.1166 27.657 19.2323 29.3402 18.2779 30.472C18.1911 30.559 18.1044 30.6461 17.9887 30.7331Z" fill="#37376D"/>
        <path d="M24.2935 25.3638C25.1612 25.567 26.2023 25.625 27.2145 25.625C28.2557 25.625 29.3258 25.5379 30.3669 25.3928C32.4782 25.1026 34.5894 24.5512 36.4982 23.6806L36.5271 23.6516C37.4526 23.2163 38.5516 23.6516 38.9565 24.5803C39.3325 25.4509 39.0143 26.4376 38.2335 26.9019C36.0355 28.2369 33.6929 29.1655 31.2635 29.833C30.0488 30.1522 28.8052 30.4134 27.5327 30.5585C26.2602 30.7036 24.9298 30.7907 23.5127 30.6746H23.4837C22.0088 30.5585 20.9098 29.2526 21.0254 27.7725C21.1411 26.2925 22.4426 25.1897 23.9175 25.3058C24.0622 25.3058 24.1778 25.3348 24.2935 25.3638Z" fill="#37376D"/>
        <path d="M38.4358 11.6663C38.4358 17.8477 30.1933 22.8682 19.9842 22.8682C9.77509 22.8682 1.56152 17.8477 1.56152 11.6663C1.56152 5.48491 9.83293 0.464355 20.0131 0.464355C30.1933 0.464355 38.4358 5.48491 38.4358 11.6663Z" fill="#0FA7F0"/>
        <path d="M32.0733 11.6663C32.0733 15.0907 26.665 18.0508 20.0132 18.0508C13.3614 18.0508 7.95312 15.0907 7.95312 11.6663C7.95312 8.24183 13.3614 5.28174 20.0132 5.28174C26.665 5.31076 32.0733 8.27086 32.0733 11.6663Z" fill="white"/>
        <path d="M24.1779 11.6663C24.1779 13.9879 22.3269 15.8452 20.0133 15.8452C17.6996 15.8452 15.8486 13.9879 15.8486 11.6663C15.8486 9.34462 17.6996 7.4873 20.0133 7.4873C22.298 7.4873 24.1779 9.37364 24.1779 11.6663Z" fill="#37376D"/>
        <path d="M31.8419 40.6577L27.3591 28.2659C26.665 26.4376 24.9297 25.2188 22.992 25.2188H17.6416C15.0677 25.2188 12.9854 27.3082 12.9854 29.8911V40.6287H31.8419V40.6577Z" fill="#0FA7F0"/>
        <path d="M0 34.5346C1.01224 33.6349 2.54505 33.1996 3.96218 33.4608C5.37931 33.693 6.7386 34.5926 7.51947 35.8405C8.32925 37.0884 8.5317 38.6845 8.15573 40.0775C7.77976 41.4705 6.76752 42.6893 5.49499 43.2117L4.04894 40.9481C4.48276 40.4257 4.68521 39.8743 4.74305 39.323C4.77197 38.7716 4.65628 38.2782 4.36707 37.8429C4.10679 37.4076 3.70189 37.0884 3.18131 36.8852C2.66073 36.6821 2.08231 36.6531 1.41713 36.7982L0 34.5346Z" fill="#F28100"/>
        <path d="M41.1259 21.3012C40.6342 21.7655 40.345 22.2588 40.2004 22.7812C40.0847 23.3036 40.1426 23.8259 40.3161 24.2903C40.5185 24.7546 40.8656 25.1609 41.3283 25.4221C41.791 25.6833 42.3695 25.8284 43.0347 25.7703L44.1047 28.2371C42.9479 28.9916 41.3862 29.1367 40.0269 28.6724C38.6676 28.2081 37.4529 27.1053 36.9034 25.7413C36.325 24.3773 36.325 22.7522 36.9612 21.4463C37.5686 20.1113 38.7543 19.0956 40.0847 18.7764L41.1259 21.3012Z" fill="#F28100"/>
        <path d="M19.4638 40.6577H12.9565V47.9999H19.4638V40.6577Z" fill="#37376D"/>
        <path d="M27.9664 47.9999H34.5026L31.8418 40.6577H25.3057L27.9664 47.9999Z" fill="#37376D"/>
    </symbol>
    <symbol xmlns="http://www.w3.org/2000/svg" id="bottom_logo" viewBox="0 0 183 48">
        <path d="M55.5566 16.165H62.3242C66.2863 16.165 68.6868 18.5157 68.6868 21.9691C68.6868 25.8289 65.7079 27.8313 61.9771 27.8313H59.2007V32.7938H55.5566V16.165ZM62.0928 24.552C63.9148 24.552 64.9849 23.4492 64.9849 21.9691C64.9849 20.315 63.857 19.4444 62.0349 19.4444H59.2007V24.523H62.0928V24.552Z" fill="white"/>
        <path d="M73.4883 16.165H81.0656C83.1768 16.165 84.7964 16.7454 85.8954 17.8482C86.8209 18.7769 87.3125 20.0828 87.3125 21.708C87.3125 24.4069 85.8665 26.0901 83.7553 26.8736L87.8042 32.8228H83.5817L79.9666 27.4831H77.1323V32.7938H73.4883V16.165ZM80.8342 24.2328C82.5984 24.2328 83.6396 23.2751 83.6396 21.824C83.6396 20.2569 82.5406 19.4444 80.7764 19.4444H77.1612V24.2328H80.8342Z" fill="white"/>
        <path d="M96.5376 16.165H92.8936V32.9099H96.5376V16.165Z" fill="white"/>
        <path d="M103.045 24.4648C103.045 19.7345 106.602 15.8457 111.692 15.8457C114.816 15.8457 116.58 17.0355 118.113 18.5446L115.944 21.0694C114.671 19.9086 113.572 19.2121 111.663 19.2121C108.858 19.2121 106.863 21.5337 106.863 24.4358C106.863 27.2798 108.829 29.6595 111.663 29.6595C113.572 29.6595 114.729 28.9049 116.03 27.7151L118.344 30.2109C116.638 32.0392 114.729 33.0549 111.548 33.0549C106.689 33.0839 103.045 29.3112 103.045 24.4648Z" fill="white"/>
        <path d="M123.377 16.165H135.9V19.4153H127.021V22.7817H134.83V26.061H127.021V29.5435H136.015V32.7938H123.377V16.165Z" fill="white"/>
        <path d="M141.365 16.165H148.943C151.054 16.165 152.674 16.7454 153.773 17.8482C154.698 18.7769 155.19 20.0828 155.19 21.708C155.19 24.4069 153.744 26.0901 151.632 26.8736L155.681 32.8228H151.401L147.786 27.4831H144.952V32.7938H141.308V16.165H141.365ZM148.711 24.2328C150.476 24.2328 151.517 23.2751 151.517 21.824C151.517 20.2569 150.418 19.4444 148.654 19.4444H145.038V24.2328H148.711Z" fill="white"/>
        <path d="M162.016 26.0027L165.891 22.8105C167.337 21.5916 167.916 20.9532 167.916 19.9955C167.916 19.0088 167.25 18.4574 166.354 18.4574C165.457 18.4574 164.821 18.9507 163.953 20.0245L162.16 18.5735C163.317 17.0064 164.445 16.1357 166.527 16.1357C168.957 16.1357 170.547 17.5577 170.547 19.7923C170.547 21.7657 169.535 22.7234 167.482 24.3195L165.573 25.7996H170.663V28.0342H162.016V26.0027Z" fill="#0FA7F0"/>
        <path d="M177.979 25.5092H172.282L171.877 23.6809L178.297 16.2227H180.467V23.4198H182.028V25.5092H180.467V28.034H178.008V25.5092H177.979ZM177.979 23.4198V19.7632L174.885 23.4198H177.979Z" fill="#0FA7F0"/>
        <path d="M180.987 30.9648H162.102V32.7351H180.987V30.9648Z" fill="#0FA7F0"/>
        <path d="M99.6616 16.165H97.8975V32.9099H99.6616V16.165Z" fill="white"/>
        <path d="M4.62723 0.812576L5.66839 10.4474L5.84191 12.2757H1.79297L1.99542 10.4474L3.00765 0.812576L3.09441 0H4.54047L4.62723 0.812576Z" fill="#F28100"/>
        <path d="M36.8167 0.812576L37.8289 10.4474L38.0314 12.2757H33.9824L34.1559 10.4474L35.1971 0.812576L35.2839 0H36.7299L36.8167 0.812576Z" fill="#F28100"/>
        <path d="M17.9887 30.7331C17.1789 31.4587 16.398 32.0681 15.5883 32.6775C14.7785 33.287 13.9687 33.8964 13.101 34.4768C11.3947 35.6376 9.65944 36.7114 7.66389 37.611C6.73842 38.0173 5.63942 37.611 5.23452 36.6824C4.85855 35.8408 5.17668 34.8541 5.92863 34.3897L5.98647 34.3607C7.49036 33.4321 8.90749 32.2422 10.2957 30.9653C10.9898 30.3269 11.655 29.6594 12.3202 28.9919C12.9564 28.3244 13.6505 27.5989 14.2 26.9605C15.1834 25.8287 16.8608 25.7126 17.9887 26.6703C19.1166 27.657 19.2323 29.3402 18.2779 30.472C18.1911 30.559 18.1044 30.6461 17.9887 30.7331Z" fill="#41418E"/>
        <path d="M24.2935 25.3643C25.1612 25.5675 26.2023 25.6255 27.2145 25.6255C28.2557 25.6255 29.3258 25.5384 30.3669 25.3933C32.4782 25.1031 34.5894 24.5517 36.4982 23.6811L36.5271 23.6521C37.4526 23.2168 38.5516 23.6521 38.9565 24.5808C39.3325 25.4514 39.0143 26.4381 38.2335 26.9024C36.0355 28.2373 33.6929 29.166 31.2635 29.8335C30.0488 30.1527 28.8052 30.4139 27.5327 30.559C26.2602 30.7041 24.9298 30.7912 23.5127 30.6751H23.4837C22.0088 30.559 20.9098 29.2531 21.0254 27.773C21.1411 26.293 22.4426 25.1902 23.9175 25.3063C24.0622 25.3063 24.1778 25.3353 24.2935 25.3643Z" fill="#41418E"/>
        <path d="M38.4358 11.6668C38.4358 17.8482 30.1933 22.8687 19.9842 22.8687C9.77509 22.8687 1.56152 17.8482 1.56152 11.6668C1.56152 5.4854 9.83293 0.464844 20.0131 0.464844C30.1933 0.464844 38.4358 5.4854 38.4358 11.6668Z" fill="#0FA7F0"/>
        <path d="M32.0733 11.6658C32.0733 15.0902 26.665 18.0503 20.0132 18.0503C13.3614 18.0503 7.95312 15.0902 7.95312 11.6658C7.95312 8.24135 13.3614 5.28125 20.0132 5.28125C26.665 5.31027 32.0733 8.27037 32.0733 11.6658Z" fill="white"/>
        <path d="M24.1779 11.6663C24.1779 13.9879 22.3269 15.8452 20.0133 15.8452C17.6996 15.8452 15.8486 13.9879 15.8486 11.6663C15.8486 9.34462 17.6996 7.4873 20.0133 7.4873C22.298 7.4873 24.1779 9.37364 24.1779 11.6663Z" fill="#41418E"/>
        <path d="M31.8419 40.6577L27.3591 28.2659C26.665 26.4376 24.9297 25.2188 22.992 25.2188H17.6416C15.0677 25.2188 12.9854 27.3082 12.9854 29.8911V40.6287H31.8419V40.6577Z" fill="#0FA7F0"/>
        <path d="M0 34.5346C1.01224 33.6349 2.54505 33.1996 3.96218 33.4608C5.37931 33.693 6.7386 34.5926 7.51947 35.8405C8.32925 37.0884 8.5317 38.6845 8.15573 40.0775C7.77976 41.4705 6.76752 42.6893 5.49499 43.2117L4.04894 40.9481C4.48276 40.4257 4.68521 39.8743 4.74305 39.323C4.77197 38.7716 4.65628 38.2782 4.36707 37.8429C4.10679 37.4076 3.70189 37.0884 3.18131 36.8852C2.66073 36.6821 2.08231 36.6531 1.41713 36.7982L0 34.5346Z" fill="#F28100"/>
        <path d="M41.1259 21.3012C40.6342 21.7655 40.345 22.2588 40.2004 22.7812C40.0847 23.3036 40.1426 23.8259 40.3161 24.2903C40.5185 24.7546 40.8656 25.1609 41.3283 25.4221C41.791 25.6833 42.3695 25.8284 43.0347 25.7703L44.1047 28.2371C42.9479 28.9916 41.3862 29.1367 40.0269 28.6724C38.6676 28.2081 37.4529 27.1053 36.9034 25.7413C36.325 24.3773 36.325 22.7522 36.9612 21.4463C37.5686 20.1113 38.7543 19.0956 40.0847 18.7764L41.1259 21.3012Z" fill="#F28100"/>
        <path d="M19.4638 40.6582H12.9565V48.0004H19.4638V40.6582Z" fill="#41418E"/>
        <path d="M27.9664 48.0004H34.5026L31.8418 40.6582H25.3057L27.9664 48.0004Z" fill="#41418E"/>
    </symbol>
    <symbol xmlns="http://www.w3.org/2000/svg" id="info" viewBox="0 0 28 28">
        <circle cx="14" cy="14" r="13" fill="inherit" stroke="white" stroke-width="2"/>
        <path d="M15.122 20.0003H12.875V11.9203H15.122V20.0003ZM15.374 8.64429C15.374 9.07829 15.241 9.41429 14.975 9.65229C14.723 9.87629 14.401 9.98829 14.009 9.98829C13.617 9.98829 13.288 9.87629 13.022 9.65229C12.756 9.41429 12.623 9.07829 12.623 8.64429C12.623 8.22429 12.756 7.90229 13.022 7.67829C13.288 7.44029 13.617 7.32129 14.009 7.32129C14.401 7.32129 14.723 7.44029 14.975 7.67829C15.241 7.90229 15.374 8.22429 15.374 8.64429Z" fill="white"/>
    </symbol>
    <symbol xmlns="http://www.w3.org/2000/svg" id="playBtn" viewBox="0 0 114 116">
        <path d="M18.5 3.04492L22.3571 39.1489L23 46H8L8.75 39.1489L12.5 3.04492L12.8214 0H18.1786L18.5 3.04492Z" fill="#F28100"/>
        <path d="M102.5 3.04492L106.25 39.1489L107 46H92L92.6429 39.1489L96.5 3.04492L96.8214 0H102.179L102.5 3.04492Z" fill="#F28100"/>
        <path d="M114 68.5C114 94.7111 88.5176 116 56.9553 116C25.3929 116 0 94.7111 0 68.5C0 42.2889 25.5718 21 57.0447 21C88.5176 21 114 42.2889 114 68.5Z" fill="#0FA7F0"/>
        <path d="M94 69C94 83.4818 77.4077 96 57 96C36.5923 96 20 83.4818 20 69C20 54.5182 36.5923 42 57 42C77.4077 42.1227 94 54.6409 94 69Z" fill="white"/>
        <path d="M72 67.2679C73.3333 68.0378 73.3333 69.9622 72 70.732L52.5 81.9904C51.1667 82.7602 49.5 81.7979 49.5 80.2583L49.5 57.7417C49.5 56.2021 51.1667 55.2398 52.5 56.0096L72 67.2679Z" fill="#37376D"/>
    </symbol>
    <symbol xmlns="http://www.w3.org/2000/svg" id="playBtnCircle" viewBox="0 0 512 512">
        <path d="M256,0C114.833,0,0,114.844,0,256s114.833,256,256,256s256-114.844,256-256S397.167,0,256,0z M256,490.667C126.604,490.667,21.333,385.396,21.333,256S126.604,21.333,256,21.333S490.667,126.604,490.667,256S385.396,490.667,256,490.667z"/>
        <path d="M357.771,247.031l-149.333-96c-3.271-2.135-7.5-2.25-10.875-0.396C194.125,152.51,192,156.094,192,160v192c0,3.906,2.125,7.49,5.563,9.365c1.583,0.865,3.354,1.302,5.104,1.302c2,0,4.021-0.563,5.771-1.698l149.333-96c3.042-1.958,4.896-5.344,4.896-8.969S360.813,248.99,357.771,247.031z M213.333,332.458V179.542L332.271,256L213.333,332.458z"/>
    </symbol>

    <symbol xmlns="http://www.w3.org/2000/svg" id="closeModal" viewBox="0 0 20 20">
        <path d="M11.8323 10.0157L19.6199 2.22785C20.1267 1.72129 20.1267 0.902238 19.6199 0.395672C19.1134 -0.110895 18.2943 -0.110895 17.7877 0.395672L9.9999 8.18351L2.21229 0.395672C1.70548 -0.110895 0.88667 -0.110895 0.380103 0.395672C-0.126701 0.902238 -0.126701 1.72129 0.380103 2.22785L8.16771 10.0157L0.380103 17.8035C-0.126701 18.3101 -0.126701 19.1291 0.380103 19.6357C0.632556 19.8884 0.964494 20.0153 1.29619 20.0153C1.6279 20.0153 1.9596 19.8884 2.21229 19.6357L9.9999 11.8479L17.7877 19.6357C18.0404 19.8884 18.3721 20.0153 18.7038 20.0153C19.0355 20.0153 19.3672 19.8884 19.6199 19.6357C20.1267 19.1291 20.1267 18.3101 19.6199 17.8035L11.8323 10.0157Z" fill="inherit"/>
    </symbol>
    <symbol xmlns="http://www.w3.org/2000/svg" id="rezart_logo" viewBox="0 0 446.4 267.24">
        <path d="M442.14,240.64,302,.56a1.51,1.51,0,0,0-2.33,0C298.37,1.81,170.74,221,170.74,221l-30.56-51.21.33-1.33S195.32,152,195.32,92.33,135.7,15.52,122.58,15.52H0L20.6,52.76h93.34s47.5-3.56,47.5,40.57-36.19,44.89-42.52,44.89H80.39l70.09,117.71s6.49,11.31,16.94,11.31,14.64-5.43,18.93-11.64S300.63,64.4,300.63,64.4l84.71,141.65L299,156.18,331.19,212l89,51.21s14.13,5.79,22.59-2.33S442.14,240.64,442.14,240.64ZM37.2,158.17,1.33,96.32v149s-.14,14.63,18.27,14.63,17.94-15.3,17.94-15.3Z" />
    </symbol>
    <symbol xmlns="http://www.w3.org/2000/svg" id="menuBurger" viewBox="0 0 12 10">
        <rect width="12" height="2" fill="inherit"/>
        <rect y="4" width="12" height="2" fill="inherit"/>
        <rect y="8" width="12" height="2" fill="inherit"/>
    </symbol>
</svg>