<svg width="80" height="80" viewBox="0 0 80 80" fill="none" xmlns="http://www.w3.org/2000/svg">
<path d="M72.5 13.75H60V2.5C60 2.16848 59.8683 1.85054 59.6339 1.61612C59.3995 1.3817 59.0815 1.25 58.75 1.25H21.25C20.9185 1.25 20.6005 1.3817 20.3661 1.61612C20.1317 1.85054 20 2.16848 20 2.5V13.75H7.5C5.84301 13.752 4.25445 14.4111 3.08277 15.5828C1.9111 16.7544 1.25198 18.343 1.25 20V57.5C1.25198 59.157 1.9111 60.7456 3.08277 61.9172C4.25445 63.0889 5.84301 63.748 7.5 63.75H31.25V68.75H28.75C27.4239 68.75 26.1521 69.2768 25.2145 70.2145C24.2768 71.1521 23.75 72.4239 23.75 73.75V77.5C23.75 77.8315 23.8817 78.1495 24.1161 78.3839C24.3505 78.6183 24.6685 78.75 25 78.75H55C55.3315 78.75 55.6495 78.6183 55.8839 78.3839C56.1183 78.1495 56.25 77.8315 56.25 77.5V73.75C56.25 72.4239 55.7232 71.1521 54.7855 70.2145C53.8479 69.2768 52.5761 68.75 51.25 68.75H48.75V63.75H72.5C74.157 63.748 75.7456 63.0889 76.9172 61.9172C78.0889 60.7456 78.748 59.157 78.75 57.5V20C78.748 18.343 78.0889 16.7544 76.9172 15.5828C75.7456 14.4111 74.157 13.752 72.5 13.75ZM66.25 26.9825L64.2675 25L67.6075 21.66C67.8704 21.3971 68.227 21.2494 68.5988 21.2494C68.9705 21.2494 69.3271 21.3971 69.59 21.66C69.8529 21.9229 70.0006 22.2795 70.0006 22.6513C70.0006 23.023 69.8529 23.3796 69.59 23.6425L66.25 26.9825ZM62.5 26.7675L64.4825 28.75L54.2975 38.935L51 40.2563L52.3212 36.9525L62.5 26.7675ZM50.3662 35.3662C50.2468 35.486 50.1524 35.6283 50.0887 35.785L47.5887 42.035C47.4978 42.2622 47.4756 42.511 47.5247 42.7507C47.5739 42.9904 47.6923 43.2104 47.8654 43.3834C48.0384 43.5564 48.2584 43.6748 48.498 43.724C48.7377 43.7732 48.9866 43.7509 49.2137 43.66L55.4637 41.16C55.6204 41.0963 55.7628 41.002 55.8825 40.8825L57.5 39.2675V46.25H22.5V12.5H57.5V28.2325L50.3662 35.3662ZM57.5 3.75V10H22.5V3.75H57.5ZM7.5 16.25H20V47.5C20 47.8315 20.1317 48.1495 20.3661 48.3839C20.6005 48.6183 20.9185 48.75 21.25 48.75H58.75C59.0815 48.75 59.3995 48.6183 59.6339 48.3839C59.8683 48.1495 60 47.8315 60 47.5V36.7675L71.3575 25.41C71.7198 25.0477 72.0072 24.6176 72.2032 24.1443C72.3993 23.6709 72.5002 23.1636 72.5002 22.6513C72.5002 22.1389 72.3993 21.6316 72.2032 21.1582C72.0072 20.6849 71.7198 20.2548 71.3575 19.8925C70.9952 19.5302 70.5651 19.2428 70.0918 19.0468C69.6184 18.8507 69.1111 18.7498 68.5988 18.7498C68.0864 18.7498 67.5791 18.8507 67.1057 19.0468C66.6324 19.2428 66.2023 19.5302 65.84 19.8925L60 25.7325V16.25H72.5C73.4946 16.25 74.4484 16.6451 75.1516 17.3483C75.8549 18.0516 76.25 19.0054 76.25 20V51.25H3.75V20C3.75 19.0054 4.14509 18.0516 4.84835 17.3483C5.55161 16.6451 6.50544 16.25 7.5 16.25ZM53.75 73.75V76.25H26.25V73.75C26.25 73.087 26.5134 72.4511 26.9822 71.9822C27.4511 71.5134 28.087 71.25 28.75 71.25H51.25C51.913 71.25 52.5489 71.5134 53.0178 71.9822C53.4866 72.4511 53.75 73.087 53.75 73.75ZM46.25 68.75H33.75V63.75H46.25V68.75ZM72.5 61.25H7.5C6.50544 61.25 5.55161 60.8549 4.84835 60.1516C4.14509 59.4484 3.75 58.4946 3.75 57.5V53.75H76.25V57.5C76.25 58.4946 75.8549 59.4484 75.1516 60.1516C74.4484 60.8549 73.4946 61.25 72.5 61.25Z" fill="#0FA7F0"/>
<path d="M33.75 56.25H46.25V58.75H33.75V56.25Z" fill="#0FA7F0"/>
<path d="M30 15H47.5V17.5H30V15Z" fill="#0FA7F0"/>
<path d="M50 15H55V17.5H50V15Z" fill="#0FA7F0"/>
<path d="M25 20H55V22.5H25V20Z" fill="#0FA7F0"/>
<path d="M25 25H55V27.5H25V25Z" fill="#0FA7F0"/>
<path d="M25 30H45V32.5H25V30Z" fill="#0FA7F0"/>
<path d="M25 35H45V37.5H25V35Z" fill="#0FA7F0"/>
</svg>
