<svg width="80" height="80" viewBox="0 0 80 80" fill="none" xmlns="http://www.w3.org/2000/svg">
<path d="M40 61.25C39.2583 61.25 38.5333 61.4699 37.9166 61.882C37.2999 62.294 36.8193 62.8797 36.5355 63.5649C36.2516 64.2502 36.1774 65.0042 36.3221 65.7316C36.4668 66.459 36.8239 67.1272 37.3484 67.6517C37.8728 68.1761 38.541 68.5333 39.2684 68.678C39.9958 68.8226 40.7498 68.7484 41.4351 68.4646C42.1203 68.1807 42.706 67.7001 43.118 67.0834C43.5301 66.4667 43.75 65.7417 43.75 65C43.75 64.0054 43.3549 63.0516 42.6517 62.3484C41.9484 61.6451 40.9946 61.25 40 61.25ZM40 66.25C39.7528 66.25 39.5111 66.1767 39.3055 66.0393C39.1 65.902 38.9398 65.7068 38.8452 65.4784C38.7505 65.2499 38.7258 64.9986 38.774 64.7561C38.8223 64.5137 38.9413 64.2909 39.1161 64.1161C39.2909 63.9413 39.5137 63.8223 39.7561 63.774C39.9986 63.7258 40.25 63.7505 40.4784 63.8452C40.7068 63.9398 40.902 64.1 41.0393 64.3055C41.1767 64.5111 41.25 64.7528 41.25 65C41.25 65.3315 41.1183 65.6495 40.8839 65.8839C40.6495 66.1183 40.3315 66.25 40 66.25Z" fill="#0FA7F0"/>
<path d="M73.75 6.25H48.75C47.4239 6.25 46.1521 6.77678 45.2145 7.71447C44.2768 8.65215 43.75 9.92392 43.75 11.25V21.2913C43.48 21.265 43.2062 21.25 42.9287 21.25C42.3643 21.2546 41.8019 21.3166 41.25 21.435V6.25C41.25 4.92392 40.7232 3.65215 39.7855 2.71447C38.8479 1.77678 37.5761 1.25 36.25 1.25H6.25C4.92392 1.25 3.65215 1.77678 2.71447 2.71447C1.77678 3.65215 1.25 4.92392 1.25 6.25V23.75C1.25 25.0761 1.77678 26.3479 2.71447 27.2855C3.65215 28.2232 4.92392 28.75 6.25 28.75H11.25V35C11.25 35.2391 11.3186 35.4731 11.4476 35.6744C11.5766 35.8757 11.7607 36.0358 11.9779 36.1356C12.1951 36.2355 12.4364 36.271 12.6732 36.2378C12.91 36.2047 13.1323 36.1044 13.3138 35.9487L21.7125 28.75H28.7788C28.837 29.9872 29.017 31.2156 29.3162 32.4175L29.6575 33.785C28.6978 33.8712 27.8083 34.3245 27.1746 35.0504C26.5409 35.7763 26.2118 36.7188 26.256 37.6814C26.3001 38.644 26.7141 39.5524 27.4116 40.2173C28.1092 40.8821 29.0364 41.2521 30 41.25H31.625C32.1919 43.1423 33.3811 44.7879 35 45.92V47.5H28.75C26.7615 47.502 24.855 48.2928 23.4489 49.6989C22.0428 51.105 21.252 53.0115 21.25 55V65C21.25 65.9946 21.6451 66.9484 22.3483 67.6516C23.0516 68.3549 24.0054 68.75 25 68.75H26.25V71.25C25.587 71.25 24.9511 71.5134 24.4822 71.9822C24.0134 72.4511 23.75 73.087 23.75 73.75C23.75 75.0761 24.2768 76.3479 25.2145 77.2855C26.1521 78.2232 27.4239 78.75 28.75 78.75H51.25C52.5761 78.75 53.8479 78.2232 54.7855 77.2855C55.7232 76.3479 56.25 75.0761 56.25 73.75C56.25 73.087 55.9866 72.4511 55.5178 71.9822C55.0489 71.5134 54.413 71.25 53.75 71.25V68.75H55C55.9946 68.75 56.9484 68.3549 57.6516 67.6516C58.3549 66.9484 58.75 65.9946 58.75 65V55C58.748 53.0115 57.9572 51.105 56.5511 49.6989C55.145 48.2928 53.2385 47.502 51.25 47.5H45V45.92C46.6212 44.7889 47.8127 43.1432 48.3813 41.25H50C50.9541 41.2542 51.8737 40.8935 52.5706 40.2419C53.2675 39.5903 53.6891 38.697 53.749 37.7448C53.8089 36.7926 53.5026 35.8535 52.8928 35.1197C52.283 34.3859 51.4158 33.9129 50.4688 33.7975L51.1863 31.645C51.2286 31.5176 51.2501 31.3842 51.25 31.25V29.5712C51.25 29.2937 51.235 29.02 51.2087 28.75H58.35L66.7738 34.7675C66.9607 34.9009 67.1807 34.9803 67.4098 34.9969C67.6388 35.0134 67.868 34.9666 68.0722 34.8615C68.2764 34.7563 68.4476 34.597 68.5672 34.4009C68.6868 34.2049 68.75 33.9797 68.75 33.75V28.75H73.75C75.0761 28.75 76.3479 28.2232 77.2855 27.2855C78.2232 26.3479 78.75 25.0761 78.75 23.75V11.25C78.75 9.92392 78.2232 8.65215 77.2855 7.71447C76.3479 6.77678 75.0761 6.25 73.75 6.25ZM48.75 29.5712V31.0475L48.1963 32.7075L42.0312 27.7738C41.8474 27.6265 41.6257 27.5343 41.3916 27.5076C41.1576 27.4809 40.9208 27.5209 40.7085 27.6229C40.4962 27.7249 40.3171 27.8849 40.1917 28.0843C40.0664 28.2837 39.9999 28.5145 40 28.75C39.9966 29.489 39.7286 30.2023 39.2445 30.7607C38.7604 31.3191 38.0923 31.6856 37.3613 31.7937L32.3225 32.5125C32.1917 32.534 32.0651 32.5762 31.9475 32.6375L31.74 31.81C31.4142 30.5055 31.2496 29.1659 31.25 27.8213C31.2501 26.915 31.3962 26.0148 31.6825 25.155C31.7933 24.8229 31.9871 24.5247 32.2456 24.2885C32.504 24.0523 32.8185 23.8861 33.1592 23.8056C33.4999 23.7251 33.8555 23.733 34.1924 23.8285C34.5292 23.9239 34.836 24.1039 35.0837 24.3513L36.6162 25.8838C36.8507 26.1181 37.1685 26.2497 37.5 26.2497C37.8315 26.2497 38.1493 26.1181 38.3838 25.8838L38.8125 25.455C39.6266 24.6409 40.6639 24.0865 41.7931 23.8618C42.9223 23.6372 44.0928 23.7525 45.1564 24.1931C46.2201 24.6337 47.1293 25.3798 47.7689 26.3371C48.4086 27.2944 48.75 28.4199 48.75 29.5712ZM21.25 26.25C20.9515 26.25 20.6628 26.3569 20.4363 26.5512L13.75 32.2825V27.5C13.75 27.1685 13.6183 26.8505 13.3839 26.6161C13.1495 26.3817 12.8315 26.25 12.5 26.25H6.25C5.58696 26.25 4.95107 25.9866 4.48223 25.5178C4.01339 25.0489 3.75 24.413 3.75 23.75V6.25C3.75 5.58696 4.01339 4.95107 4.48223 4.48223C4.95107 4.01339 5.58696 3.75 6.25 3.75H36.25C36.913 3.75 37.5489 4.01339 38.0178 4.48223C38.4866 4.95107 38.75 5.58696 38.75 6.25V22.375C38.3134 22.6285 37.9008 22.9214 37.5175 23.25L36.8512 22.5837C36.3024 22.0349 35.6223 21.6355 34.8757 21.4233C34.129 21.2112 33.3405 21.1935 32.585 21.3719C31.8296 21.5502 31.1323 21.9187 30.5593 22.4423C29.9863 22.966 29.5567 23.6274 29.3112 24.3637C29.1096 24.9782 28.9636 25.6095 28.875 26.25H21.25ZM30 38.75C29.6685 38.75 29.3505 38.6183 29.1161 38.3839C28.8817 38.1495 28.75 37.8315 28.75 37.5C28.75 37.1685 28.8817 36.8505 29.1161 36.6161C29.3505 36.3817 29.6685 36.25 30 36.25H31.25V38.75H30ZM51.25 76.25H28.75C28.087 76.25 27.4511 75.9866 26.9822 75.5178C26.5134 75.0489 26.25 74.413 26.25 73.75H53.75C53.75 74.413 53.4866 75.0489 53.0178 75.5178C52.5489 75.9866 51.913 76.25 51.25 76.25ZM28.75 71.25V60C28.75 59.6685 28.8817 59.3505 29.1161 59.1161C29.3505 58.8817 29.6685 58.75 30 58.75H50C50.3315 58.75 50.6495 58.8817 50.8839 59.1161C51.1183 59.3505 51.25 59.6685 51.25 60V71.25H28.75ZM56.25 55V65C56.25 65.3315 56.1183 65.6495 55.8839 65.8839C55.6495 66.1183 55.3315 66.25 55 66.25H53.75V60C53.75 59.0054 53.3549 58.0516 52.6516 57.3484C51.9484 56.6451 50.9946 56.25 50 56.25H30C29.0054 56.25 28.0516 56.6451 27.3483 57.3484C26.6451 58.0516 26.25 59.0054 26.25 60V66.25H25C24.6685 66.25 24.3505 66.1183 24.1161 65.8839C23.8817 65.6495 23.75 65.3315 23.75 65V55C23.75 53.6739 24.2768 52.4021 25.2145 51.4645C26.1521 50.5268 27.4239 50 28.75 50H35.1775C35.4503 51.072 36.0726 52.0225 36.9459 52.7014C37.8192 53.3803 38.8938 53.7488 40 53.7488C41.1062 53.7488 42.1808 53.3803 43.0541 52.7014C43.9274 52.0225 44.5497 51.072 44.8225 50H51.25C52.5761 50 53.8479 50.5268 54.7855 51.4645C55.7232 52.4021 56.25 53.6739 56.25 55ZM42.5 48.75C42.5 49.413 42.2366 50.0489 41.7678 50.5178C41.2989 50.9866 40.663 51.25 40 51.25C39.337 51.25 38.7011 50.9866 38.2322 50.5178C37.7634 50.0489 37.5 49.413 37.5 48.75V47.125C39.1304 47.6167 40.8696 47.6167 42.5 47.125V48.75ZM46.25 38.75C46.25 40.4076 45.5915 41.9973 44.4194 43.1694C43.2473 44.3415 41.6576 45 40 45C38.3424 45 36.7527 44.3415 35.5806 43.1694C34.4085 41.9973 33.75 40.4076 33.75 38.75V34.8338L37.715 34.2675C38.6545 34.1295 39.5435 33.7549 40.2986 33.179C41.0536 32.603 41.6498 31.8446 42.0312 30.975L46.25 34.35V38.75ZM51.25 37.5C51.25 37.8315 51.1183 38.1495 50.8839 38.3839C50.6495 38.6183 50.3315 38.75 50 38.75H48.75V36.25H50C50.3315 36.25 50.6495 36.3817 50.8839 36.6161C51.1183 36.8505 51.25 37.1685 51.25 37.5ZM76.25 23.75C76.25 24.413 75.9866 25.0489 75.5178 25.5178C75.0489 25.9866 74.413 26.25 73.75 26.25H67.5C67.1685 26.25 66.8505 26.3817 66.6161 26.6161C66.3817 26.8505 66.25 27.1685 66.25 27.5V31.3212L59.4762 26.4825C59.2643 26.3312 59.0104 26.25 58.75 26.25H50.5537C49.7107 24.3258 48.1743 22.7893 46.25 21.9462V11.25C46.25 10.587 46.5134 9.95107 46.9822 9.48223C47.4511 9.01339 48.087 8.75 48.75 8.75H73.75C74.413 8.75 75.0489 9.01339 75.5178 9.48223C75.9866 9.95107 76.25 10.587 76.25 11.25V23.75Z" fill="#0FA7F0"/>
<path d="M8.75 7.5H33.75V10H8.75V7.5Z" fill="#0FA7F0"/>
<path d="M8.75 12.5H33.75V15H8.75V12.5Z" fill="#0FA7F0"/>
<path d="M8.75 17.5H33.75V20H8.75V17.5Z" fill="#0FA7F0"/>
<path d="M51.25 11.25H71.25V13.75H51.25V11.25Z" fill="#0FA7F0"/>
<path d="M51.25 16.25H71.25V18.75H51.25V16.25Z" fill="#0FA7F0"/>
<path d="M51.25 21.25H71.25V23.75H51.25V21.25Z" fill="#0FA7F0"/>
</svg>
