<svg width="74" height="74" viewBox="0 0 74 74" fill="none" xmlns="http://www.w3.org/2000/svg">
<path d="M66.1031 63.1248C66.1031 58.6471 64.6082 54.2543 61.8853 50.7051L62.0931 46.8782C62.2345 44.2731 60.1671 42.0691 57.5378 42.0691H45.2674C44.7029 41.6702 44.3605 41.0223 44.3605 40.3225V37.1927C46.263 35.9623 47.5987 34.5592 48.5799 32.8894H50.7492C53.2588 32.8894 55.3004 30.8478 55.3004 28.3382V19.9666C55.3004 18.5547 54.4836 17.3065 53.262 16.716V10.8407C53.262 8.16598 51.086 5.98983 48.4113 5.98983H48.2856C48.2091 5.98983 48.1469 5.92751 48.1469 5.85113C48.1469 3.17639 45.9708 1.00024 43.296 1.00024H31.4245C25.5318 1.00024 20.7375 5.79449 20.7375 11.6873V16.7159C19.5161 17.3064 18.6992 18.5545 18.6992 19.9665V24.224C18.6992 26.216 20.3198 27.8366 22.3118 27.8366H23.7589C24.1334 31.0046 25.6195 33.8978 27.9472 35.9093C28.4933 36.3813 29.0581 36.8029 29.6391 37.1795V40.3224C29.6391 41.0201 29.2953 41.6681 28.7283 42.069H16.4622C13.8532 42.069 11.7645 44.2526 11.9071 46.878L12.1148 50.705C9.39182 54.2543 7.89691 58.6471 7.89691 63.1248V67.3469C7.33957 67.9715 7 68.7943 7 69.6953C7 71.6424 8.58413 73.2264 10.5313 73.2264H63.4687C65.4159 73.2264 67 71.6423 67 69.6953C67 68.7943 66.6604 67.9715 66.1031 67.3471V63.1248ZM63.8612 63.1248V66.1862C63.7322 66.1719 63.6014 66.1639 63.4687 66.1639H61.0462L61.6789 54.5075C63.0977 57.1427 63.8612 60.1114 63.8612 63.1248ZM52.9435 19.4193C53.0172 19.5879 53.0588 19.7729 53.0588 19.9668V24.2243C53.0588 24.9801 52.4439 25.595 51.6881 25.595H50.355V21.3693L51.0458 21.1287C51.9005 20.831 52.5726 20.2032 52.9435 19.4193ZM45.4596 32.4071H42.6465C42.193 32.4071 41.824 32.0382 41.824 31.5848C41.824 31.1313 42.193 30.7625 42.6465 30.7625H45.4596C45.9131 30.7625 46.2819 31.1313 46.2819 31.5848C46.2819 32.0382 45.9131 32.4071 45.4596 32.4071ZM50.7495 30.6477H49.6164C49.9321 29.7476 50.15 28.8048 50.2649 27.8369H51.6881C52.1731 27.8369 52.6358 27.7402 53.0588 27.5661V28.3385C53.0588 29.6118 52.0227 30.6477 50.7495 30.6477ZM22.9797 11.6876C22.9797 7.03097 26.7682 3.24245 31.4248 3.24245H43.2963C44.7349 3.24245 45.9053 4.41287 45.9053 5.85143C45.9053 7.16414 46.9733 8.23204 48.2859 8.23204H48.4116C49.8502 8.23204 51.0204 9.40246 51.0204 10.841V18.0096C51.0204 18.4607 50.7342 18.8633 50.3083 19.0117L47.9526 19.8321C47.8577 19.865 47.7598 19.7965 47.7598 19.6945L47.7641 15.2399C47.7777 11.989 44.7337 9.15376 40.4687 10.5237C38.3236 11.213 35.6691 11.2106 33.5312 10.5237C29.3104 9.16721 26.2221 11.9521 26.2357 15.2365L26.2409 19.6948C26.2409 19.7976 26.1408 19.8653 26.0481 19.8321L23.6917 19.0116C23.2658 18.8633 22.9796 18.4605 22.9796 18.0094V11.6876H22.9797ZM20.9414 24.2243V19.9666C20.9414 19.7729 20.9829 19.5877 21.0566 19.4192C21.4277 20.2032 22.0998 20.831 22.9548 21.1287L23.6454 21.3692V25.5949H22.3122C21.5563 25.595 20.9414 24.98 20.9414 24.2243ZM25.9078 26.5421C25.8706 25.0685 25.8934 23.5042 25.8872 22.0721C25.9562 22.0781 26.0254 22.0815 26.0946 22.0815C27.4274 22.0815 28.4851 20.9982 28.4828 19.6915L28.4776 15.2304C28.47 13.4102 30.1027 11.7765 32.8453 12.658C35.4447 13.4932 38.5637 13.4907 41.1546 12.658C43.7676 11.8185 45.5303 13.2965 45.5222 15.2341L45.5179 19.6918C45.5161 21.0812 46.7037 22.1943 48.1128 22.0721V26.6329C48.0803 27.6017 47.9208 28.5472 47.6503 29.4463C47.0935 28.876 46.3177 28.5204 45.4596 28.5204H42.6465C40.9568 28.5204 39.5821 29.895 39.5821 31.5846C39.5821 33.2743 40.9568 34.6489 42.6465 34.6489H44.0707C42.0002 36.265 39.6458 37.1076 37.0587 37.1505C31.3996 37.1053 26.0697 32.9244 25.9078 26.5421ZM31.8814 40.3227V38.3613C33.5017 39.0322 35.2302 39.3799 37.0557 39.3927H37.0637C37.0695 39.3927 37.0753 39.3927 37.0812 39.3926C38.8584 39.3649 40.541 39.0206 42.119 38.3704V40.3225C42.119 40.9346 42.2471 41.527 42.483 42.0691H31.5161C31.7527 41.5269 31.8814 40.9343 31.8814 40.3227ZM12.3211 54.5075L12.4981 57.7689C12.5317 58.3872 13.0612 58.8627 13.678 58.8275C14.2962 58.7941 14.7701 58.2657 14.7367 57.6475L14.1456 46.7568C14.0737 45.432 15.125 44.3112 16.4622 44.3112H57.538C58.8653 44.3112 59.9269 45.422 59.8546 46.7568L58.8012 66.1641H41.2235C41.4376 64.8837 42.0142 63.6793 42.9025 62.6926L42.9346 62.6567C46.3277 58.8607 45.3121 52.9247 40.9263 50.4326C39.8009 49.7933 38.3716 50.5906 38.3716 51.9162V57.0023C38.3716 57.2355 38.1819 57.425 37.9488 57.425H36.0512C35.8181 57.425 35.6284 57.2353 35.6284 57.0023V51.9162C35.6284 50.5932 34.2014 49.7919 33.0737 50.4326C28.6754 52.9316 27.6804 58.8698 31.0688 62.6605L31.0975 62.6926C31.9858 63.6792 32.5624 64.8835 32.7765 66.1639H15.199L15.0192 62.85C14.9857 62.2318 14.4573 61.7573 13.8392 61.7913C13.221 61.8248 12.7471 62.3532 12.7805 62.9713L12.9538 66.1639H10.5313C10.3986 66.1639 10.2678 66.172 10.1388 66.1862V63.1248C10.1388 60.1116 10.9024 57.1427 12.3211 54.5075ZM35.0416 66.1639C34.8122 64.3272 34.0248 62.5933 32.764 61.1927L32.7369 61.1624C30.5711 58.7397 30.8612 54.9931 33.3866 52.9268V57.0022C33.3866 58.4715 34.582 59.6668 36.0514 59.6668H37.9489C39.4183 59.6668 40.6137 58.4714 40.6137 57.0022V52.9268C43.1223 54.9794 43.4437 58.7232 41.2605 61.1655L41.2363 61.1926C39.9753 62.5933 39.188 64.3272 38.9585 66.1639H35.0416ZM63.4687 70.9846H10.5313C9.82032 70.9846 9.24191 70.4062 9.24191 69.6954C9.24191 68.9846 9.82032 68.406 10.5313 68.406H63.4687C64.1797 68.406 64.7581 68.9844 64.7581 69.6954C64.7581 70.4064 64.1797 70.9846 63.4687 70.9846Z" fill="#0FA7F0"/>
</svg>
