<svg width="867" height="613" viewBox="0 0 867 613" fill="none" xmlns="http://www.w3.org/2000/svg">
<g filter="url(#filter0_d_804:46)">
<path d="M50 61C50 52.7157 56.7157 46 65 46H802C810.284 46 817 52.7157 817 61V544C817 552.284 810.284 559 802 559H65C56.7157 559 50 552.284 50 544V61Z" fill="white"/>
</g>
<path d="M221 205H605V321H729" stroke="#F28100" stroke-width="2"/>
<path d="M211 439.5H734.5" stroke="#37376D"/>
<path d="M218 450L218 174" stroke="#37376D"/>
<path d="M219 380.5H734" stroke="#DDDDE6" stroke-dasharray="7 7"/>
<path d="M219 321.5H734" stroke="#DDDDE6" stroke-dasharray="7 7"/>
<path d="M219 262.5H734" stroke="#DDDDE6" stroke-dasharray="7 7"/>
<path d="M221 321H732.5" stroke="#0FA7F0" stroke-width="4" stroke-dasharray="10 10"/>
<circle cx="224" cy="205" r="4" fill="#F28100"/>
<circle cx="605" cy="320" r="4" fill="#F28100"/>
<circle cx="224" cy="321" r="4" fill="#0FA7F0"/>
<circle cx="287.5" cy="322" r="4" fill="#80DA39"/>
<circle cx="731" cy="414" r="4" fill="#80DA39"/>
<circle cx="381.5" cy="321" r="4" fill="#DA3973"/>
<circle cx="731" cy="356" r="4" fill="#DA3973"/>
<circle cx="730" cy="321" r="4" fill="#0FA7F0"/>
<path d="M287.5 323V413.5H734" stroke="#80DA39" stroke-width="2"/>
<path d="M381.5 321V356H734.5" stroke="#DA3973" stroke-width="2"/>
<rect x="239" y="469" width="14" height="14" rx="2" fill="#F28100"/>
<path d="M275.356 469.4H276.652V482H275.14V472.262L270.622 479.03H269.686L265.168 472.262V482H263.656V469.4H264.952L270.154 477.176L275.356 469.4ZM286.524 480.2C286.524 480.644 286.746 480.866 287.19 480.866C287.382 480.866 287.604 480.824 287.856 480.74V481.91C287.496 482.042 287.136 482.108 286.776 482.108C285.948 482.108 285.42 481.76 285.192 481.064C284.268 481.832 283.146 482.216 281.826 482.216C280.986 482.216 280.266 481.994 279.666 481.55C279.078 481.094 278.784 480.44 278.784 479.588C278.784 478.568 279.162 477.83 279.918 477.374C280.686 476.906 281.61 476.672 282.69 476.672C283.482 476.672 284.28 476.762 285.084 476.942V476.636C285.084 475.976 284.868 475.454 284.436 475.07C284.004 474.674 283.398 474.476 282.618 474.476C281.526 474.476 280.476 474.692 279.468 475.124V473.72C280.596 473.336 281.694 473.144 282.762 473.144C283.938 473.144 284.856 473.462 285.516 474.098C286.188 474.722 286.524 475.628 286.524 476.816V480.2ZM280.26 479.516C280.26 479.996 280.44 480.362 280.8 480.614C281.172 480.854 281.616 480.974 282.132 480.974C283.32 480.974 284.304 480.554 285.084 479.714V478.13C284.268 477.962 283.536 477.878 282.888 477.878C282.156 477.878 281.532 478.01 281.016 478.274C280.512 478.526 280.26 478.94 280.26 479.516ZM290.84 482H289.4V473.36H295.718V474.692H290.84V482ZM304.278 480.2C304.278 480.644 304.5 480.866 304.944 480.866C305.136 480.866 305.358 480.824 305.61 480.74V481.91C305.25 482.042 304.89 482.108 304.53 482.108C303.702 482.108 303.174 481.76 302.946 481.064C302.022 481.832 300.9 482.216 299.58 482.216C298.74 482.216 298.02 481.994 297.42 481.55C296.832 481.094 296.538 480.44 296.538 479.588C296.538 478.568 296.916 477.83 297.672 477.374C298.44 476.906 299.364 476.672 300.444 476.672C301.236 476.672 302.034 476.762 302.838 476.942V476.636C302.838 475.976 302.622 475.454 302.19 475.07C301.758 474.674 301.152 474.476 300.372 474.476C299.28 474.476 298.23 474.692 297.222 475.124V473.72C298.35 473.336 299.448 473.144 300.516 473.144C301.692 473.144 302.61 473.462 303.27 474.098C303.942 474.722 304.278 475.628 304.278 476.816V480.2ZM298.014 479.516C298.014 479.996 298.194 480.362 298.554 480.614C298.926 480.854 299.37 480.974 299.886 480.974C301.074 480.974 302.058 480.554 302.838 479.714V478.13C302.022 477.962 301.29 477.878 300.642 477.878C299.91 477.878 299.286 478.01 298.77 478.274C298.266 478.526 298.014 478.94 298.014 479.516ZM313.616 479.678C313.616 480.482 313.268 481.106 312.572 481.55C311.888 481.994 310.94 482.216 309.728 482.216C308.516 482.216 307.454 481.994 306.542 481.55V480.182C307.418 480.65 308.42 480.884 309.548 480.884C311.3 480.884 312.176 480.428 312.176 479.516C312.176 478.688 311.54 478.274 310.268 478.274H308.378V476.942H310.268C311.42 476.942 311.996 476.57 311.996 475.826C311.996 475.37 311.78 475.028 311.348 474.8C310.916 474.572 310.34 474.458 309.62 474.458C308.576 474.458 307.598 474.686 306.686 475.142V473.792C307.658 473.348 308.69 473.126 309.782 473.126C310.958 473.126 311.858 473.354 312.482 473.81C313.118 474.254 313.436 474.86 313.436 475.628C313.436 476.144 313.292 476.57 313.004 476.906C312.716 477.242 312.326 477.464 311.834 477.572C312.35 477.704 312.776 477.956 313.112 478.328C313.448 478.7 313.616 479.15 313.616 479.678ZM316.956 482H315.732V473.36H317.172V479.678L322.464 473.36H323.688V482H322.248V475.682L316.956 482ZM327.79 482H326.35V473.36H327.79V477.014H332.794V473.36H334.234V482H332.794V478.346H327.79V482ZM343.971 469.76H345.087V480.56H347.373V482H341.001V480.56H343.575V471.362L341.001 472.334V470.894L343.971 469.76Z" fill="#454545"/>
<rect x="663" y="469" width="14" height="14" rx="2" fill="#0FA7F0"/>
<path d="M687.656 469.4H691.958C695.522 469.4 697.304 470.756 697.304 473.468C697.304 476.18 695.522 477.536 691.958 477.536H689.168V482H687.656V469.4ZM695.774 473.468C695.774 472.952 695.678 472.52 695.486 472.172C695.294 471.812 695.018 471.542 694.658 471.362C694.31 471.17 693.926 471.038 693.506 470.966C693.086 470.882 692.594 470.84 692.03 470.84H689.168V476.096H692.03C693.194 476.096 694.106 475.904 694.766 475.52C695.438 475.136 695.774 474.452 695.774 473.468ZM699.556 469.4H703.858C707.422 469.4 709.204 470.756 709.204 473.468C709.204 476.18 707.422 477.536 703.858 477.536H701.068V482H699.556V469.4ZM707.674 473.468C707.674 472.952 707.578 472.52 707.386 472.172C707.194 471.812 706.918 471.542 706.558 471.362C706.21 471.17 705.826 471.038 705.406 470.966C704.986 470.882 704.494 470.84 703.93 470.84H701.068V476.096H703.93C705.094 476.096 706.006 475.904 706.666 475.52C707.338 475.136 707.674 474.452 707.674 473.468ZM723.337 484.97H721.897L721.915 482H711.457V469.4H712.969V480.56H720.259V469.4H721.771V480.56H723.337V484.97Z" fill="#454545"/>
<rect x="378" y="469" width="14" height="14" rx="2" fill="#80DA39"/>
<path d="M414.356 469.4H415.652V482H414.14V472.262L409.622 479.03H408.686L404.168 472.262V482H402.656V469.4H403.952L409.154 477.176L414.356 469.4ZM425.524 480.2C425.524 480.644 425.746 480.866 426.19 480.866C426.382 480.866 426.604 480.824 426.856 480.74V481.91C426.496 482.042 426.136 482.108 425.776 482.108C424.948 482.108 424.42 481.76 424.192 481.064C423.268 481.832 422.146 482.216 420.826 482.216C419.986 482.216 419.266 481.994 418.666 481.55C418.078 481.094 417.784 480.44 417.784 479.588C417.784 478.568 418.162 477.83 418.918 477.374C419.686 476.906 420.61 476.672 421.69 476.672C422.482 476.672 423.28 476.762 424.084 476.942V476.636C424.084 475.976 423.868 475.454 423.436 475.07C423.004 474.674 422.398 474.476 421.618 474.476C420.526 474.476 419.476 474.692 418.468 475.124V473.72C419.596 473.336 420.694 473.144 421.762 473.144C422.938 473.144 423.856 473.462 424.516 474.098C425.188 474.722 425.524 475.628 425.524 476.816V480.2ZM419.26 479.516C419.26 479.996 419.44 480.362 419.8 480.614C420.172 480.854 420.616 480.974 421.132 480.974C422.32 480.974 423.304 480.554 424.084 479.714V478.13C423.268 477.962 422.536 477.878 421.888 477.878C421.156 477.878 420.532 478.01 420.016 478.274C419.512 478.526 419.26 478.94 419.26 479.516ZM429.84 482H428.4V473.36H434.718V474.692H429.84V482ZM443.278 480.2C443.278 480.644 443.5 480.866 443.944 480.866C444.136 480.866 444.358 480.824 444.61 480.74V481.91C444.25 482.042 443.89 482.108 443.53 482.108C442.702 482.108 442.174 481.76 441.946 481.064C441.022 481.832 439.9 482.216 438.58 482.216C437.74 482.216 437.02 481.994 436.42 481.55C435.832 481.094 435.538 480.44 435.538 479.588C435.538 478.568 435.916 477.83 436.672 477.374C437.44 476.906 438.364 476.672 439.444 476.672C440.236 476.672 441.034 476.762 441.838 476.942V476.636C441.838 475.976 441.622 475.454 441.19 475.07C440.758 474.674 440.152 474.476 439.372 474.476C438.28 474.476 437.23 474.692 436.222 475.124V473.72C437.35 473.336 438.448 473.144 439.516 473.144C440.692 473.144 441.61 473.462 442.27 474.098C442.942 474.722 443.278 475.628 443.278 476.816V480.2ZM437.014 479.516C437.014 479.996 437.194 480.362 437.554 480.614C437.926 480.854 438.37 480.974 438.886 480.974C440.074 480.974 441.058 480.554 441.838 479.714V478.13C441.022 477.962 440.29 477.878 439.642 477.878C438.91 477.878 438.286 478.01 437.77 478.274C437.266 478.526 437.014 478.94 437.014 479.516ZM452.616 479.678C452.616 480.482 452.268 481.106 451.572 481.55C450.888 481.994 449.94 482.216 448.728 482.216C447.516 482.216 446.454 481.994 445.542 481.55V480.182C446.418 480.65 447.42 480.884 448.548 480.884C450.3 480.884 451.176 480.428 451.176 479.516C451.176 478.688 450.54 478.274 449.268 478.274H447.378V476.942H449.268C450.42 476.942 450.996 476.57 450.996 475.826C450.996 475.37 450.78 475.028 450.348 474.8C449.916 474.572 449.34 474.458 448.62 474.458C447.576 474.458 446.598 474.686 445.686 475.142V473.792C446.658 473.348 447.69 473.126 448.782 473.126C449.958 473.126 450.858 473.354 451.482 473.81C452.118 474.254 452.436 474.86 452.436 475.628C452.436 476.144 452.292 476.57 452.004 476.906C451.716 477.242 451.326 477.464 450.834 477.572C451.35 477.704 451.776 477.956 452.112 478.328C452.448 478.7 452.616 479.15 452.616 479.678ZM455.956 482H454.732V473.36H456.172V479.678L461.464 473.36H462.688V482H461.248V475.682L455.956 482ZM466.79 482H465.35V473.36H466.79V477.014H471.794V473.36H473.234V482H471.794V478.346H466.79V482ZM480.271 470.732C481.411 469.94 482.719 469.544 484.195 469.544C485.467 469.544 486.481 469.832 487.237 470.408C487.993 470.984 488.371 471.788 488.371 472.82C488.371 473.312 488.275 473.774 488.083 474.206C487.903 474.638 487.627 475.034 487.255 475.394C486.895 475.754 486.541 476.06 486.193 476.312C485.857 476.552 485.431 476.822 484.915 477.122C484.855 477.158 484.669 477.266 484.357 477.446C484.057 477.626 483.865 477.74 483.781 477.788C483.709 477.836 483.541 477.944 483.277 478.112C483.025 478.268 482.857 478.382 482.773 478.454C482.701 478.526 482.569 478.64 482.377 478.796C482.197 478.952 482.071 479.084 481.999 479.192C481.939 479.3 481.855 479.438 481.747 479.606C481.651 479.762 481.585 479.918 481.549 480.074C481.513 480.23 481.495 480.398 481.495 480.578L488.461 480.56V482H479.839V481.28C479.839 480.608 479.947 480.002 480.163 479.462C480.379 478.91 480.685 478.442 481.081 478.058C481.489 477.662 481.891 477.332 482.287 477.068C482.683 476.792 483.145 476.498 483.673 476.186C483.793 476.126 483.883 476.078 483.943 476.042C485.035 475.406 485.749 474.92 486.085 474.584C486.601 474.056 486.859 473.462 486.859 472.802C486.859 472.202 486.613 471.746 486.121 471.434C485.641 471.11 484.957 470.948 484.069 470.948C482.773 470.948 481.507 471.38 480.271 472.244V470.732Z" fill="#454545"/>
<rect x="520" y="469" width="14" height="14" rx="2" fill="#E31837"/>
<path d="M556.356 469.4H557.652V482H556.14V472.262L551.622 479.03H550.686L546.168 472.262V482H544.656V469.4H545.952L551.154 477.176L556.356 469.4ZM567.524 480.2C567.524 480.644 567.746 480.866 568.19 480.866C568.382 480.866 568.604 480.824 568.856 480.74V481.91C568.496 482.042 568.136 482.108 567.776 482.108C566.948 482.108 566.42 481.76 566.192 481.064C565.268 481.832 564.146 482.216 562.826 482.216C561.986 482.216 561.266 481.994 560.666 481.55C560.078 481.094 559.784 480.44 559.784 479.588C559.784 478.568 560.162 477.83 560.918 477.374C561.686 476.906 562.61 476.672 563.69 476.672C564.482 476.672 565.28 476.762 566.084 476.942V476.636C566.084 475.976 565.868 475.454 565.436 475.07C565.004 474.674 564.398 474.476 563.618 474.476C562.526 474.476 561.476 474.692 560.468 475.124V473.72C561.596 473.336 562.694 473.144 563.762 473.144C564.938 473.144 565.856 473.462 566.516 474.098C567.188 474.722 567.524 475.628 567.524 476.816V480.2ZM561.26 479.516C561.26 479.996 561.44 480.362 561.8 480.614C562.172 480.854 562.616 480.974 563.132 480.974C564.32 480.974 565.304 480.554 566.084 479.714V478.13C565.268 477.962 564.536 477.878 563.888 477.878C563.156 477.878 562.532 478.01 562.016 478.274C561.512 478.526 561.26 478.94 561.26 479.516ZM571.84 482H570.4V473.36H576.718V474.692H571.84V482ZM585.278 480.2C585.278 480.644 585.5 480.866 585.944 480.866C586.136 480.866 586.358 480.824 586.61 480.74V481.91C586.25 482.042 585.89 482.108 585.53 482.108C584.702 482.108 584.174 481.76 583.946 481.064C583.022 481.832 581.9 482.216 580.58 482.216C579.74 482.216 579.02 481.994 578.42 481.55C577.832 481.094 577.538 480.44 577.538 479.588C577.538 478.568 577.916 477.83 578.672 477.374C579.44 476.906 580.364 476.672 581.444 476.672C582.236 476.672 583.034 476.762 583.838 476.942V476.636C583.838 475.976 583.622 475.454 583.19 475.07C582.758 474.674 582.152 474.476 581.372 474.476C580.28 474.476 579.23 474.692 578.222 475.124V473.72C579.35 473.336 580.448 473.144 581.516 473.144C582.692 473.144 583.61 473.462 584.27 474.098C584.942 474.722 585.278 475.628 585.278 476.816V480.2ZM579.014 479.516C579.014 479.996 579.194 480.362 579.554 480.614C579.926 480.854 580.37 480.974 580.886 480.974C582.074 480.974 583.058 480.554 583.838 479.714V478.13C583.022 477.962 582.29 477.878 581.642 477.878C580.91 477.878 580.286 478.01 579.77 478.274C579.266 478.526 579.014 478.94 579.014 479.516ZM594.616 479.678C594.616 480.482 594.268 481.106 593.572 481.55C592.888 481.994 591.94 482.216 590.728 482.216C589.516 482.216 588.454 481.994 587.542 481.55V480.182C588.418 480.65 589.42 480.884 590.548 480.884C592.3 480.884 593.176 480.428 593.176 479.516C593.176 478.688 592.54 478.274 591.268 478.274H589.378V476.942H591.268C592.42 476.942 592.996 476.57 592.996 475.826C592.996 475.37 592.78 475.028 592.348 474.8C591.916 474.572 591.34 474.458 590.62 474.458C589.576 474.458 588.598 474.686 587.686 475.142V473.792C588.658 473.348 589.69 473.126 590.782 473.126C591.958 473.126 592.858 473.354 593.482 473.81C594.118 474.254 594.436 474.86 594.436 475.628C594.436 476.144 594.292 476.57 594.004 476.906C593.716 477.242 593.326 477.464 592.834 477.572C593.35 477.704 593.776 477.956 594.112 478.328C594.448 478.7 594.616 479.15 594.616 479.678ZM597.956 482H596.732V473.36H598.172V479.678L603.464 473.36H604.688V482H603.248V475.682L597.956 482ZM608.79 482H607.35V473.36H608.79V477.014H613.794V473.36H615.234V482H613.794V478.346H608.79V482ZM630.227 472.874C630.227 473.498 630.059 474.062 629.723 474.566C629.399 475.058 628.973 475.394 628.445 475.574C629.069 475.766 629.603 476.12 630.047 476.636C630.503 477.14 630.731 477.818 630.731 478.67C630.731 479.81 630.305 480.686 629.453 481.298C628.613 481.91 627.545 482.216 626.249 482.216C624.605 482.216 623.183 481.946 621.983 481.406V479.912C623.147 480.512 624.527 480.806 626.123 480.794C628.223 480.794 629.273 480.062 629.273 478.598C629.273 477.134 628.277 476.402 626.285 476.402H624.413V474.962L626.123 474.98C626.987 474.98 627.641 474.8 628.085 474.44C628.541 474.068 628.769 473.588 628.769 473C628.769 472.364 628.517 471.866 628.013 471.506C627.509 471.134 626.795 470.948 625.871 470.948C624.599 470.948 623.375 471.26 622.199 471.884V470.408C623.327 469.832 624.617 469.544 626.069 469.544C627.317 469.544 628.319 469.85 629.075 470.462C629.843 471.074 630.227 471.878 630.227 472.874Z" fill="#454545"/>
<circle cx="287.5" cy="413.5" r="4.5" fill="white" stroke="#80DA39" stroke-width="2"/>
<g filter="url(#filter1_d_804:46)">
<path d="M50 101H105V559H65C56.7157 559 50 552.284 50 544V101Z" fill="white"/>
</g>
<path d="M76 139V133H80V139H85V131H88L78 122L68 131H71V139H76Z" fill="#747474"/>
<path d="M83.834 157.667L79.6673 161.417V170.583L83.834 166.833V157.667ZM73.4173 160.167C71.7923 160.167 70.0423 160.5 68.834 161.417V173.633C68.834 173.842 69.0423 174.05 69.2507 174.05C69.334 174.05 69.3757 173.992 69.459 173.992C70.584 173.45 72.209 173.083 73.4173 173.083C75.0423 173.083 76.7923 173.417 78.0007 174.333C79.1257 173.625 81.1673 173.083 82.584 173.083C83.959 173.083 85.3757 173.342 86.5423 173.967C86.6256 174.008 86.6673 173.992 86.7506 173.992C86.959 173.992 87.1673 173.783 87.1673 173.575V161.417C86.6673 161.042 86.1256 160.792 85.5006 160.583V171.833C84.584 171.542 83.584 171.417 82.584 171.417C81.1673 171.417 79.1257 171.958 78.0007 172.667V161.417C76.7923 160.5 75.0423 160.167 73.4173 160.167Z" fill="#747474"/>
<line x1="50" y1="503.5" x2="105" y2="503.5" stroke="#E1E1E9"/>
<path d="M69.3136 518.406L69.8342 523.224L69.921 524.138H67.8965L67.9977 523.224L68.5038 518.406L68.5472 518H69.2702L69.3136 518.406Z" fill="#F28100"/>
<path d="M85.4093 518.406L85.9154 523.224L86.0167 524.138H83.9922L84.079 523.224L84.5995 518.406L84.6429 518H85.3659L85.4093 518.406Z" fill="#F28100"/>
<path d="M75.9934 533.367C75.5885 533.729 75.198 534.034 74.7931 534.339C74.3882 534.643 73.9834 534.948 73.5495 535.238C72.6964 535.819 71.8287 536.356 70.831 536.806C70.3682 537.009 69.8187 536.806 69.6163 536.341C69.4283 535.92 69.5874 535.427 69.9633 535.195L69.9923 535.18C70.7442 534.716 71.4528 534.121 72.1469 533.483C72.4939 533.163 72.8265 532.83 73.1591 532.496C73.4772 532.162 73.8243 531.799 74.099 531.48C74.5907 530.914 75.4294 530.856 75.9934 531.335C76.5573 531.828 76.6152 532.67 76.138 533.236C76.0946 533.28 76.0512 533.323 75.9934 533.367Z" fill="#37376D"/>
<path d="M79.146 530.682C79.5798 530.783 80.1004 530.812 80.6065 530.812C81.1271 530.812 81.6622 530.769 82.1827 530.696C83.2383 530.551 84.294 530.275 85.2484 529.84L85.2628 529.826C85.7255 529.608 86.275 529.826 86.4775 530.29C86.6655 530.725 86.5064 531.219 86.116 531.451C85.017 532.118 83.8457 532.583 82.631 532.916C82.0237 533.076 81.4019 533.206 80.7656 533.279C80.1293 533.352 79.4642 533.395 78.7556 533.337H78.7411C78.0036 533.279 77.4541 532.626 77.512 531.886C77.5698 531.146 78.2206 530.595 78.958 530.653C79.0303 530.653 79.0882 530.667 79.146 530.682Z" fill="#37376D"/>
<path d="M86.2184 523.833C86.2184 526.924 82.0971 529.434 76.9926 529.434C71.888 529.434 67.7812 526.924 67.7812 523.833C67.7812 520.742 71.9169 518.232 77.007 518.232C82.0971 518.232 86.2184 520.742 86.2184 523.833Z" fill="#0FA7F0"/>
<path d="M83.0366 523.833C83.0366 525.545 80.3325 527.025 77.0066 527.025C73.6807 527.025 70.9766 525.545 70.9766 523.833C70.9766 522.121 73.6807 520.641 77.0066 520.641C80.3325 520.655 83.0366 522.135 83.0366 523.833Z" fill="white"/>
<path d="M79.0884 523.833C79.0884 524.994 78.163 525.923 77.0061 525.923C75.8493 525.923 74.9238 524.994 74.9238 523.833C74.9238 522.672 75.8493 521.744 77.0061 521.744C78.1485 521.744 79.0884 522.687 79.0884 523.833Z" fill="#37376D"/>
<path d="M82.9204 538.329L80.679 532.133C80.332 531.219 79.4644 530.609 78.4955 530.609H75.8203C74.5333 530.609 73.4922 531.654 73.4922 532.946V538.314H82.9204V538.329Z" fill="#0FA7F0"/>
<path d="M67 535.267C67.5061 534.817 68.2725 534.6 68.9811 534.73C69.6897 534.846 70.3693 535.296 70.7597 535.92C71.1646 536.544 71.2658 537.342 71.0779 538.039C70.8899 538.735 70.3838 539.345 69.7475 539.606L69.0245 538.474C69.2414 538.213 69.3426 537.937 69.3715 537.661C69.386 537.386 69.3281 537.139 69.1835 536.921C69.0534 536.704 68.8509 536.544 68.5907 536.443C68.3304 536.341 68.0412 536.327 67.7086 536.399L67 535.267Z" fill="#F28100"/>
<path d="M87.5629 528.651C87.3171 528.883 87.1725 529.129 87.1002 529.391C87.0424 529.652 87.0713 529.913 87.158 530.145C87.2593 530.377 87.4328 530.58 87.6642 530.711C87.8955 530.842 88.1847 530.914 88.5173 530.885L89.0524 532.119C88.4739 532.496 87.6931 532.568 87.0134 532.336C86.3338 532.104 85.7265 531.553 85.4517 530.871C85.1625 530.189 85.1625 529.376 85.4806 528.723C85.7843 528.056 86.3772 527.548 87.0424 527.388L87.5629 528.651Z" fill="#F28100"/>
<path d="M76.7321 538.329H73.4785V542H76.7321V538.329Z" fill="#37376D"/>
<path d="M80.9827 542H84.2508L82.9204 538.329H79.6523L80.9827 542Z" fill="#37376D"/>
<path d="M84.9762 200.095H83.7619V196.857C83.7619 195.959 83.0333 195.238 82.1429 195.238H78.9048V194.024C78.9048 193.487 78.6915 192.972 78.312 192.593C77.9325 192.213 77.4177 192 76.881 192C76.3442 192 75.8294 192.213 75.4499 192.593C75.0704 192.972 74.8571 193.487 74.8571 194.024V195.238H71.619C71.1896 195.238 70.7778 195.409 70.4742 195.712C70.1706 196.016 70 196.428 70 196.857V199.933H71.2143C72.4286 199.933 73.4 200.905 73.4 202.119C73.4 203.333 72.4286 204.305 71.2143 204.305H70V207.381C70 207.81 70.1706 208.222 70.4742 208.526C70.7778 208.829 71.1896 209 71.619 209H74.6952V207.786C74.6952 206.571 75.6667 205.6 76.881 205.6C78.0952 205.6 79.0667 206.571 79.0667 207.786V209H82.1429C82.5723 209 82.9841 208.829 83.2877 208.526C83.5913 208.222 83.7619 207.81 83.7619 207.381V204.143H84.9762C85.5129 204.143 86.0277 203.93 86.4072 203.55C86.7868 203.171 87 202.656 87 202.119C87 201.582 86.7868 201.068 86.4072 200.688C86.0277 200.308 85.5129 200.095 84.9762 200.095Z" fill="#747474"/>
<path d="M72 238.5L69 241.44V233H72V238.5ZM77 236.66L75.43 235.32L74 236.64V229H77V236.66ZM82 235L79 238V225H82V235ZM84.81 234.81L83 233H88V238L86.21 236.21L79 243.36L75.53 240.34L71.75 244H69L75.47 237.66L79 240.64" fill="#747474"/>
<path d="M80.763 268.325L79.953 269.153C79.305 269.801 78.9 270.35 78.9 271.7H77.1V271.25C77.1 270.251 77.505 269.351 78.153 268.703L79.269 267.569C79.602 267.245 79.8 266.795 79.8 266.3C79.8 265.301 78.99 264.5 78 264.5C77.5226 264.5 77.0648 264.69 76.7272 265.027C76.3896 265.365 76.2 265.823 76.2 266.3H74.4C74.4 265.345 74.7793 264.43 75.4544 263.754C76.1295 263.079 77.0452 262.7 78 262.7C78.9548 262.7 79.8705 263.079 80.5456 263.754C81.2207 264.43 81.6 265.345 81.6 266.3C81.6 267.092 81.276 267.803 80.763 268.325ZM78.9 275.3H77.1V273.5H78.9V275.3ZM78 260C76.8181 260 75.6478 260.233 74.5558 260.685C73.4639 261.137 72.4718 261.8 71.636 262.636C69.9482 264.324 69 266.613 69 269C69 271.387 69.9482 273.676 71.636 275.364C72.4718 276.2 73.4639 276.863 74.5558 277.315C75.6478 277.767 76.8181 278 78 278C80.3869 278 82.6761 277.052 84.364 275.364C86.0518 273.676 87 271.387 87 269C87 264.023 82.95 260 78 260Z" fill="#747474"/>
<path d="M50 61C50 52.7157 56.7157 46 65 46H105V101H50V61Z" fill="#0FA7F0"/>
<g filter="url(#filter2_d_804:46)">
<path d="M105 101L105 46L802 46C810.284 46 817 52.7157 817 61L817 101L105 101Z" fill="white"/>
</g>
<rect x="69" y="67" width="18" height="2" fill="white"/>
<rect x="69" y="72" width="18" height="2" fill="white"/>
<rect x="69" y="77" width="18" height="2" fill="white"/>
<path d="M585.834 73C585.834 77.5558 589.528 81.25 594.084 81.25C596.275 81.25 598.374 80.3883 599.951 78.8667L598.576 77.4917C597.411 78.7292 595.789 79.4167 594.084 79.4167C588.364 79.4167 585.504 72.505 589.546 68.4625C593.589 64.42 600.501 67.2892 600.501 73H597.751L601.417 76.6667H601.509L605.084 73H602.334C602.334 68.4442 598.64 64.75 594.084 64.75C589.528 64.75 585.834 68.4442 585.834 73Z" fill="#454545"/>
<path d="M642.501 76.3334V66.3334H627.501V76.3334H642.501ZM642.501 64.6667C642.943 64.6667 643.367 64.8423 643.679 65.1549C643.992 65.4675 644.167 65.8914 644.167 66.3334V76.3334C644.167 76.7754 643.992 77.1994 643.679 77.5119C643.367 77.8245 642.943 78.0001 642.501 78.0001H636.667V79.6667H638.334V81.3334H631.667V79.6667H633.334V78.0001H627.501C626.576 78.0001 625.834 77.2501 625.834 76.3334V66.3334C625.834 65.4084 626.576 64.6667 627.501 64.6667H642.501ZM629.167 68.0001H636.667V72.1667H629.167V68.0001ZM637.501 68.0001H640.834V69.6667H637.501V68.0001ZM640.834 70.5001V74.6667H637.501V70.5001H640.834ZM629.167 73.0001H632.501V74.6667H629.167V73.0001ZM633.334 73.0001H636.667V74.6667H633.334V73.0001Z" fill="#454545"/>
<path d="M672.833 65.5V70.5H679.5V65.5H672.833ZM672.833 80.5H679.5V72.1667H672.833V80.5ZM664.5 80.5H671.167V75.5H664.5V80.5ZM664.5 73.8333H671.167V65.5H664.5V73.8333Z" fill="#454545"/>
<path d="M700.5 76.1667V77.8333H705.5V76.1667H700.5ZM700.5 66.1667V67.8333H708.833V66.1667H700.5ZM708.833 79.5V77.8333H715.5V76.1667H708.833V74.5H707.167V79.5H708.833ZM703.833 69.5V71.1667H700.5V72.8333H703.833V74.5H705.5V69.5H703.833ZM715.5 72.8333V71.1667H707.167V72.8333H715.5ZM710.5 69.5H712.167V67.8333H715.5V66.1667H712.167V64.5H710.5V69.5Z" fill="#454545"/>
<path d="M738.001 64.6666C737.076 64.6666 736.334 65.4166 736.334 66.3333V79.6666C736.334 80.1087 736.51 80.5326 736.822 80.8451C737.135 81.1577 737.559 81.3333 738.001 81.3333H748.001C748.443 81.3333 748.867 81.1577 749.179 80.8451C749.492 80.5326 749.667 80.1087 749.667 79.6666V69.6666L744.667 64.6666H738.001ZM743.834 65.9166L748.417 70.5H743.834V65.9166ZM740.442 73.1833H746.334V79.075L744.567 77.3083L742.209 79.6666L739.851 77.3083L742.209 74.9583" fill="#454545"/>
<path d="M778.666 73V79.5667C778.7 79.8167 778.616 80.0833 778.425 80.2583C778.1 80.5833 777.575 80.5833 777.25 80.2583L775.575 78.5833C775.383 78.3917 775.3 78.1333 775.333 77.8917V73H775.308L770.508 66.85C770.225 66.4917 770.291 65.9667 770.65 65.6833C770.808 65.5667 770.983 65.5 771.166 65.5H782.833C783.016 65.5 783.191 65.5667 783.35 65.6833C783.708 65.9667 783.775 66.4917 783.491 66.85L778.691 73H778.666Z" fill="#0FA7F0"/>
<path d="M165.582 255.76H166.698V266.56H168.984V268H162.612V266.56H165.186V257.362L162.612 258.334V256.894L165.582 255.76ZM177.799 255.76H178.915V266.56H181.201V268H174.829V266.56H177.403V257.362L174.829 258.334V256.894L177.799 255.76ZM185.533 255.76H186.649V266.56H188.935V268H182.563V266.56H185.137V257.362L182.563 258.334V256.894L185.533 255.76ZM191.63 266.47C190.718 265.306 190.262 263.776 190.262 261.88C190.262 259.984 190.718 258.454 191.63 257.29C192.542 256.126 193.886 255.544 195.662 255.544C197.45 255.544 198.8 256.126 199.712 257.29C200.624 258.442 201.08 259.972 201.08 261.88C201.08 263.788 200.624 265.324 199.712 266.488C198.8 267.64 197.45 268.216 195.662 268.216C193.886 268.216 192.542 267.634 191.63 266.47ZM198.578 265.516C199.226 264.664 199.55 263.452 199.55 261.88C199.55 260.308 199.226 259.102 198.578 258.262C197.942 257.41 196.97 256.984 195.662 256.984C194.354 256.984 193.382 257.41 192.746 258.262C192.11 259.102 191.792 260.308 191.792 261.88C191.792 263.452 192.11 264.664 192.746 265.516C193.382 266.356 194.354 266.776 195.662 266.776C196.97 266.776 197.942 266.356 198.578 265.516Z" fill="#454545"/>
<path d="M155.738 313.76H156.854V324.56H159.14V326H152.768V324.56H155.342V315.362L152.768 316.334V314.894L155.738 313.76ZM166.317 324.47C165.405 323.306 164.949 321.776 164.949 319.88C164.949 317.984 165.405 316.454 166.317 315.29C167.229 314.126 168.573 313.544 170.349 313.544C172.137 313.544 173.487 314.126 174.399 315.29C175.311 316.442 175.767 317.972 175.767 319.88C175.767 321.788 175.311 323.324 174.399 324.488C173.487 325.64 172.137 326.216 170.349 326.216C168.573 326.216 167.229 325.634 166.317 324.47ZM173.265 323.516C173.913 322.664 174.237 321.452 174.237 319.88C174.237 318.308 173.913 317.102 173.265 316.262C172.629 315.41 171.657 314.984 170.349 314.984C169.041 314.984 168.069 315.41 167.433 316.262C166.797 317.102 166.479 318.308 166.479 319.88C166.479 321.452 166.797 322.664 167.433 323.516C168.069 324.356 169.041 324.776 170.349 324.776C171.657 324.776 172.629 324.356 173.265 323.516ZM178.974 324.47C178.062 323.306 177.606 321.776 177.606 319.88C177.606 317.984 178.062 316.454 178.974 315.29C179.886 314.126 181.23 313.544 183.006 313.544C184.794 313.544 186.144 314.126 187.056 315.29C187.968 316.442 188.424 317.972 188.424 319.88C188.424 321.788 187.968 323.324 187.056 324.488C186.144 325.64 184.794 326.216 183.006 326.216C181.23 326.216 179.886 325.634 178.974 324.47ZM185.922 323.516C186.57 322.664 186.894 321.452 186.894 319.88C186.894 318.308 186.57 317.102 185.922 316.262C185.286 315.41 184.314 314.984 183.006 314.984C181.698 314.984 180.726 315.41 180.09 316.262C179.454 317.102 179.136 318.308 179.136 319.88C179.136 321.452 179.454 322.664 180.09 323.516C180.726 324.356 181.698 324.776 183.006 324.776C184.314 324.776 185.286 324.356 185.922 323.516ZM191.63 324.47C190.718 323.306 190.262 321.776 190.262 319.88C190.262 317.984 190.718 316.454 191.63 315.29C192.542 314.126 193.886 313.544 195.662 313.544C197.45 313.544 198.8 314.126 199.712 315.29C200.624 316.442 201.08 317.972 201.08 319.88C201.08 321.788 200.624 323.324 199.712 324.488C198.8 325.64 197.45 326.216 195.662 326.216C193.886 326.216 192.542 325.634 191.63 324.47ZM198.578 323.516C199.226 322.664 199.55 321.452 199.55 319.88C199.55 318.308 199.226 317.102 198.578 316.262C197.942 315.41 196.97 314.984 195.662 314.984C194.354 314.984 193.382 315.41 192.746 316.262C192.11 317.102 191.792 318.308 191.792 319.88C191.792 321.452 192.11 322.664 192.746 323.516C193.382 324.356 194.354 324.776 195.662 324.776C196.97 324.776 197.942 324.356 198.578 323.516Z" fill="#454545"/>
<path d="M167.704 377.558C167.704 376.298 168.118 375.314 168.946 374.606C169.786 373.898 170.836 373.544 172.096 373.544C173.824 373.544 175.114 374.084 175.966 375.164C176.83 376.232 177.262 377.738 177.262 379.682C177.262 381.842 176.746 383.474 175.714 384.578C174.694 385.67 173.356 386.216 171.7 386.216C170.632 386.216 169.642 385.982 168.73 385.514V384.074C169.618 384.542 170.596 384.776 171.664 384.776C172.792 384.776 173.728 384.416 174.472 383.696C175.228 382.964 175.648 381.806 175.732 380.222C174.556 381.002 173.278 381.392 171.898 381.392C170.782 381.392 169.804 381.056 168.964 380.384C168.124 379.7 167.704 378.758 167.704 377.558ZM172.204 374.948C171.316 374.948 170.596 375.152 170.044 375.56C169.504 375.968 169.234 376.61 169.234 377.486C169.234 378.374 169.516 379.016 170.08 379.412C170.644 379.796 171.376 379.988 172.276 379.988C173.608 379.988 174.754 379.562 175.714 378.71C175.486 376.202 174.316 374.948 172.204 374.948ZM178.866 377.558C178.866 376.298 179.28 375.314 180.108 374.606C180.948 373.898 181.998 373.544 183.258 373.544C184.986 373.544 186.276 374.084 187.128 375.164C187.992 376.232 188.424 377.738 188.424 379.682C188.424 381.842 187.908 383.474 186.876 384.578C185.856 385.67 184.518 386.216 182.862 386.216C181.794 386.216 180.804 385.982 179.892 385.514V384.074C180.78 384.542 181.758 384.776 182.826 384.776C183.954 384.776 184.89 384.416 185.634 383.696C186.39 382.964 186.81 381.806 186.894 380.222C185.718 381.002 184.44 381.392 183.06 381.392C181.944 381.392 180.966 381.056 180.126 380.384C179.286 379.7 178.866 378.758 178.866 377.558ZM183.366 374.948C182.478 374.948 181.758 375.152 181.206 375.56C180.666 375.968 180.396 376.61 180.396 377.486C180.396 378.374 180.678 379.016 181.242 379.412C181.806 379.796 182.538 379.988 183.438 379.988C184.77 379.988 185.916 379.562 186.876 378.71C186.648 376.202 185.478 374.948 183.366 374.948ZM191.63 384.47C190.718 383.306 190.262 381.776 190.262 379.88C190.262 377.984 190.718 376.454 191.63 375.29C192.542 374.126 193.886 373.544 195.662 373.544C197.45 373.544 198.8 374.126 199.712 375.29C200.624 376.442 201.08 377.972 201.08 379.88C201.08 381.788 200.624 383.324 199.712 384.488C198.8 385.64 197.45 386.216 195.662 386.216C193.886 386.216 192.542 385.634 191.63 384.47ZM198.578 383.516C199.226 382.664 199.55 381.452 199.55 379.88C199.55 378.308 199.226 377.102 198.578 376.262C197.942 375.41 196.97 374.984 195.662 374.984C194.354 374.984 193.382 375.41 192.746 376.262C192.11 377.102 191.792 378.308 191.792 379.88C191.792 381.452 192.11 382.664 192.746 383.516C193.382 384.356 194.354 384.776 195.662 384.776C196.97 384.776 197.942 384.356 198.578 383.516Z" fill="#454545"/>
<rect x="244" y="339" width="88" height="65" rx="5" fill="#454545" fill-opacity="0.9"/>
<path d="M265.36 349.9H266.699V359H265.217V352.63L262.344 356.946H261.46L258.587 352.617V359H257.105V349.9H258.444L261.902 355.113L265.36 349.9ZM273.893 357.557C273.893 357.86 274.045 358.012 274.348 358.012C274.452 358.012 274.591 357.986 274.764 357.934V358.935C274.504 359.039 274.209 359.091 273.88 359.091C273.256 359.091 272.84 358.848 272.632 358.363C271.965 358.9 271.18 359.169 270.279 359.169C269.672 359.169 269.157 359.004 268.732 358.675C268.307 358.337 268.095 357.865 268.095 357.258C268.095 356.53 268.368 356.001 268.914 355.672C269.46 355.334 270.114 355.165 270.877 355.165C271.38 355.165 271.921 355.226 272.502 355.347V355.126C272.502 354.727 272.359 354.407 272.073 354.164C271.787 353.921 271.384 353.8 270.864 353.8C270.093 353.8 269.343 353.96 268.615 354.281V353.007C269.43 352.73 270.227 352.591 271.007 352.591C271.917 352.591 272.623 352.816 273.126 353.267C273.637 353.718 273.893 354.402 273.893 355.321V357.557ZM271.15 356.14C270.691 356.14 270.305 356.222 269.993 356.387C269.681 356.552 269.525 356.812 269.525 357.167C269.525 357.462 269.638 357.691 269.863 357.856C270.088 358.012 270.366 358.09 270.695 358.09C271.406 358.09 272.008 357.843 272.502 357.349V356.296C271.999 356.192 271.549 356.14 271.15 356.14ZM277.203 359H275.812V352.76H280.466V353.982H277.203V359ZM286.779 357.557C286.779 357.86 286.93 358.012 287.234 358.012C287.338 358.012 287.476 357.986 287.65 357.934V358.935C287.39 359.039 287.095 359.091 286.766 359.091C286.142 359.091 285.726 358.848 285.518 358.363C284.85 358.9 284.066 359.169 283.165 359.169C282.558 359.169 282.042 359.004 281.618 358.675C281.193 358.337 280.981 357.865 280.981 357.258C280.981 356.53 281.254 356.001 281.8 355.672C282.346 355.334 283 355.165 283.763 355.165C284.265 355.165 284.807 355.226 285.388 355.347V355.126C285.388 354.727 285.245 354.407 284.959 354.164C284.673 353.921 284.27 353.8 283.75 353.8C282.978 353.8 282.229 353.96 281.501 354.281V353.007C282.315 352.73 283.113 352.591 283.893 352.591C284.803 352.591 285.509 352.816 286.012 353.267C286.523 353.718 286.779 354.402 286.779 355.321V357.557ZM284.036 356.14C283.576 356.14 283.191 356.222 282.879 356.387C282.567 356.552 282.411 356.812 282.411 357.167C282.411 357.462 282.523 357.691 282.749 357.856C282.974 358.012 283.251 358.09 283.581 358.09C284.291 358.09 284.894 357.843 285.388 357.349V356.296C284.885 356.192 284.434 356.14 284.036 356.14ZM293.586 357.297C293.586 357.86 293.33 358.315 292.819 358.662C292.316 359 291.597 359.169 290.661 359.169C289.751 359.169 288.971 359 288.321 358.662V357.466C288.936 357.813 289.656 357.986 290.479 357.986C291.614 357.986 292.182 357.7 292.182 357.128C292.182 356.617 291.749 356.361 290.882 356.361H289.608V355.295H290.882C291.662 355.295 292.052 355.061 292.052 354.593C292.052 354.324 291.918 354.121 291.649 353.982C291.38 353.835 291.016 353.761 290.557 353.761C289.777 353.761 289.071 353.93 288.438 354.268V353.072C289.123 352.743 289.885 352.578 290.726 352.578C291.636 352.578 292.316 352.747 292.767 353.085C293.226 353.423 293.456 353.865 293.456 354.411C293.456 354.766 293.356 355.065 293.157 355.308C292.958 355.551 292.689 355.715 292.351 355.802C292.724 355.906 293.023 356.088 293.248 356.348C293.473 356.599 293.586 356.916 293.586 357.297ZM296.178 359H294.982V352.76H296.373V356.842L299.714 352.76H300.91V359H299.519V354.918L296.178 359ZM304.041 359H302.65V352.76H304.041V355.269H307.161V352.76H308.552V359H307.161V356.491H304.041V359ZM313.352 350.888C314.227 350.29 315.207 349.991 316.29 349.991C317.217 349.991 317.967 350.208 318.539 350.641C319.111 351.066 319.397 351.677 319.397 352.474C319.397 353.141 319.176 353.713 318.734 354.19C318.301 354.658 317.707 355.117 316.953 355.568C316.892 355.603 316.78 355.668 316.615 355.763C316.459 355.858 316.346 355.928 316.277 355.971C316.216 356.006 316.117 356.066 315.978 356.153C315.839 356.24 315.735 356.305 315.666 356.348C315.605 356.391 315.519 356.456 315.406 356.543C315.302 356.621 315.224 356.69 315.172 356.751C315.12 356.803 315.059 356.872 314.99 356.959C314.921 357.037 314.869 357.111 314.834 357.18C314.808 357.249 314.782 357.327 314.756 357.414C314.73 357.501 314.717 357.587 314.717 357.674L319.462 357.661V359H313.053V358.324C313.053 357.839 313.118 357.41 313.248 357.037C313.387 356.656 313.625 356.309 313.963 355.997C314.31 355.676 314.578 355.451 314.769 355.321C314.96 355.182 315.298 354.97 315.783 354.684C315.826 354.649 315.861 354.623 315.887 354.606C315.922 354.589 315.956 354.571 315.991 354.554C316.719 354.129 317.187 353.822 317.395 353.631C317.742 353.293 317.915 352.916 317.915 352.5C317.915 352.119 317.759 351.828 317.447 351.629C317.144 351.43 316.715 351.33 316.16 351.33C315.198 351.33 314.262 351.659 313.352 352.318V350.888ZM256.858 366.888C257.733 366.29 258.713 365.991 259.796 365.991C260.723 365.991 261.473 366.208 262.045 366.641C262.617 367.066 262.903 367.677 262.903 368.474C262.903 369.141 262.682 369.713 262.24 370.19C261.807 370.658 261.213 371.117 260.459 371.568C260.398 371.603 260.286 371.668 260.121 371.763C259.965 371.858 259.852 371.928 259.783 371.971C259.722 372.006 259.623 372.066 259.484 372.153C259.345 372.24 259.241 372.305 259.172 372.348C259.111 372.391 259.025 372.456 258.912 372.543C258.808 372.621 258.73 372.69 258.678 372.751C258.626 372.803 258.565 372.872 258.496 372.959C258.427 373.037 258.375 373.111 258.34 373.18C258.314 373.249 258.288 373.327 258.262 373.414C258.236 373.501 258.223 373.587 258.223 373.674L262.968 373.661V375H256.559V374.324C256.559 373.839 256.624 373.41 256.754 373.037C256.893 372.656 257.131 372.309 257.469 371.997C257.816 371.676 258.084 371.451 258.275 371.321C258.466 371.182 258.804 370.97 259.289 370.684C259.332 370.649 259.367 370.623 259.393 370.606C259.428 370.589 259.462 370.571 259.497 370.554C260.225 370.129 260.693 369.822 260.901 369.631C261.248 369.293 261.421 368.916 261.421 368.5C261.421 368.119 261.265 367.828 260.953 367.629C260.65 367.43 260.221 367.33 259.666 367.33C258.704 367.33 257.768 367.659 256.858 368.318V366.888ZM266.425 366.16H267.517V373.661H269.09V375H264.28V373.661H266.048V367.681L264.28 368.344V366.979L266.425 366.16ZM271.76 374.285C271.76 374.562 271.678 374.775 271.513 374.922C271.348 375.069 271.14 375.143 270.889 375.143C270.638 375.143 270.425 375.069 270.252 374.922C270.087 374.775 270.005 374.562 270.005 374.285C270.005 374.016 270.087 373.813 270.252 373.674C270.425 373.527 270.638 373.453 270.889 373.453C271.14 373.453 271.348 373.527 271.513 373.674C271.678 373.813 271.76 374.016 271.76 374.285ZM273.685 373.908C273.017 373.059 272.684 371.949 272.684 370.58C272.684 369.211 273.017 368.106 273.685 367.265C274.352 366.416 275.34 365.991 276.649 365.991C277.957 365.991 278.945 366.416 279.613 367.265C280.28 368.106 280.614 369.211 280.614 370.58C280.614 371.949 280.28 373.059 279.613 373.908C278.945 374.749 277.957 375.169 276.649 375.169C275.34 375.169 274.352 374.749 273.685 373.908ZM276.649 373.817C278.295 373.817 279.119 372.738 279.119 370.58C279.119 368.422 278.295 367.343 276.649 367.343C275.002 367.343 274.179 368.422 274.179 370.58C274.179 372.738 275.002 373.817 276.649 373.817ZM281.693 368.955C281.693 368.019 282.005 367.291 282.629 366.771C283.253 366.251 284.033 365.991 284.969 365.991C286.278 365.991 287.244 366.381 287.868 367.161C288.501 367.941 288.817 369.055 288.817 370.502C288.817 372.045 288.436 373.21 287.673 373.999C286.911 374.779 285.927 375.169 284.722 375.169C283.916 375.169 283.154 374.996 282.434 374.649V373.297C283.102 373.67 283.817 373.856 284.579 373.856C285.325 373.856 285.944 373.635 286.438 373.193C286.941 372.751 287.236 372.036 287.322 371.048C286.525 371.525 285.667 371.763 284.748 371.763C283.925 371.763 283.21 371.516 282.603 371.022C281.997 370.528 281.693 369.839 281.693 368.955ZM285.073 367.265C284.519 367.265 284.064 367.399 283.708 367.668C283.362 367.928 283.188 368.335 283.188 368.89C283.188 369.453 283.375 369.861 283.747 370.112C284.12 370.355 284.597 370.476 285.177 370.476C285.975 370.476 286.685 370.229 287.309 369.735C287.153 368.088 286.408 367.265 285.073 367.265ZM291.476 374.285C291.476 374.562 291.393 374.775 291.229 374.922C291.064 375.069 290.856 375.143 290.605 375.143C290.353 375.143 290.141 375.069 289.968 374.922C289.803 374.775 289.721 374.562 289.721 374.285C289.721 374.016 289.803 373.813 289.968 373.674C290.141 373.527 290.353 373.453 290.605 373.453C290.856 373.453 291.064 373.527 291.229 373.674C291.393 373.813 291.476 374.016 291.476 374.285ZM292.963 366.888C293.839 366.29 294.818 365.991 295.901 365.991C296.829 365.991 297.578 366.208 298.15 366.641C298.722 367.066 299.008 367.677 299.008 368.474C299.008 369.141 298.787 369.713 298.345 370.19C297.912 370.658 297.318 371.117 296.564 371.568C296.504 371.603 296.391 371.668 296.226 371.763C296.07 371.858 295.958 371.928 295.888 371.971C295.828 372.006 295.728 372.066 295.589 372.153C295.451 372.24 295.347 372.305 295.277 372.348C295.217 372.391 295.13 372.456 295.017 372.543C294.913 372.621 294.835 372.69 294.783 372.751C294.731 372.803 294.671 372.872 294.601 372.959C294.532 373.037 294.48 373.111 294.445 373.18C294.419 373.249 294.393 373.327 294.367 373.414C294.341 373.501 294.328 373.587 294.328 373.674L299.073 373.661V375H292.664V374.324C292.664 373.839 292.729 373.41 292.859 373.037C292.998 372.656 293.236 372.309 293.574 371.997C293.921 371.676 294.19 371.451 294.38 371.321C294.571 371.182 294.909 370.97 295.394 370.684C295.438 370.649 295.472 370.623 295.498 370.606C295.533 370.589 295.568 370.571 295.602 370.554C296.33 370.129 296.798 369.822 297.006 369.631C297.353 369.293 297.526 368.916 297.526 368.5C297.526 368.119 297.37 367.828 297.058 367.629C296.755 367.43 296.326 367.33 295.771 367.33C294.809 367.33 293.873 367.659 292.963 368.318V366.888ZM302.531 366.16H303.623V373.661H305.196V375H300.386V373.661H302.154V367.681L300.386 368.344V366.979L302.531 366.16ZM262.734 384.409C262.734 384.868 262.613 385.271 262.37 385.618C262.136 385.965 261.82 386.203 261.421 386.333C261.898 386.48 262.296 386.74 262.617 387.113C262.938 387.486 263.098 387.98 263.098 388.595C263.098 389.436 262.777 390.077 262.136 390.519C261.495 390.952 260.689 391.169 259.718 391.169C258.583 391.169 257.56 390.974 256.65 390.584V389.154C257.499 389.622 258.483 389.847 259.601 389.83C260.988 389.813 261.681 389.349 261.681 388.439C261.681 387.555 261.057 387.113 259.809 387.113H258.405V385.774L259.64 385.787C260.177 385.787 260.589 385.683 260.875 385.475C261.17 385.258 261.317 384.964 261.317 384.591C261.317 384.192 261.152 383.885 260.823 383.668C260.502 383.443 260.043 383.33 259.445 383.33C258.526 383.33 257.647 383.573 256.806 384.058V382.641C257.629 382.208 258.574 381.991 259.64 381.991C260.567 381.991 261.313 382.208 261.876 382.641C262.448 383.074 262.734 383.664 262.734 384.409ZM267.676 384.357C267.676 383.716 267.957 383.161 268.521 382.693C269.084 382.225 269.907 381.991 270.991 381.991C272.005 381.991 272.811 382.234 273.409 382.719C274.015 383.204 274.327 383.781 274.345 384.448C274.362 385.315 273.972 386.03 273.175 386.593C274.163 387.087 274.657 387.785 274.657 388.686C274.657 389.379 274.353 389.969 273.747 390.454C273.14 390.931 272.239 391.169 271.043 391.169C269.855 391.169 268.945 390.918 268.313 390.415C267.68 389.904 267.364 389.284 267.364 388.556C267.364 388.123 267.489 387.698 267.741 387.282C267.992 386.866 268.347 386.519 268.807 386.242C268.053 385.757 267.676 385.128 267.676 384.357ZM271.147 387.178C270.575 387.005 270.15 386.866 269.873 386.762C269.535 386.97 269.275 387.221 269.093 387.516C268.919 387.802 268.833 388.092 268.833 388.387C268.841 388.855 269.036 389.228 269.418 389.505C269.808 389.774 270.371 389.908 271.108 389.908C271.706 389.908 272.195 389.8 272.577 389.583C272.967 389.366 273.162 389.085 273.162 388.738C273.162 388.556 273.127 388.396 273.058 388.257C272.988 388.11 272.897 387.988 272.785 387.893C272.681 387.798 272.542 387.707 272.369 387.62C272.195 387.533 272.026 387.464 271.862 387.412C271.697 387.351 271.502 387.286 271.277 387.217C271.259 387.208 271.242 387.204 271.225 387.204C271.216 387.204 271.203 387.2 271.186 387.191C271.177 387.182 271.164 387.178 271.147 387.178ZM272.889 384.63C272.889 384.231 272.715 383.902 272.369 383.642C272.022 383.382 271.541 383.252 270.926 383.252C270.371 383.252 269.929 383.356 269.6 383.564C269.279 383.772 269.119 384.032 269.119 384.344C269.119 384.639 269.218 384.89 269.418 385.098C269.626 385.306 269.825 385.449 270.016 385.527C270.206 385.605 270.51 385.709 270.926 385.839C270.995 385.865 271.047 385.882 271.082 385.891C271.446 385.986 271.762 386.077 272.031 386.164C272.603 385.722 272.889 385.211 272.889 384.63ZM276.455 382.16H281.902V383.486H277.82L277.69 385.618C278.114 385.514 278.561 385.462 279.029 385.462C279.973 385.462 280.758 385.692 281.382 386.151C282.006 386.602 282.318 387.312 282.318 388.283C282.318 389.202 281.975 389.912 281.291 390.415C280.615 390.918 279.765 391.169 278.743 391.169C277.677 391.169 276.732 390.97 275.909 390.571V389.18C276.654 389.613 277.542 389.83 278.574 389.83C279.25 389.83 279.791 389.696 280.199 389.427C280.615 389.158 280.823 388.773 280.823 388.27C280.823 387.213 280.021 386.684 278.418 386.684C277.672 386.684 276.923 386.814 276.169 387.074L276.455 382.16ZM283.306 384.955C283.306 384.019 283.618 383.291 284.242 382.771C284.866 382.251 285.646 381.991 286.582 381.991C287.89 381.991 288.857 382.381 289.481 383.161C290.113 383.941 290.43 385.055 290.43 386.502C290.43 388.045 290.048 389.21 289.286 389.999C288.523 390.779 287.539 391.169 286.335 391.169C285.529 391.169 284.766 390.996 284.047 390.649V389.297C284.714 389.67 285.429 389.856 286.192 389.856C286.937 389.856 287.557 389.635 288.051 389.193C288.553 388.751 288.848 388.036 288.935 387.048C288.137 387.525 287.279 387.763 286.361 387.763C285.537 387.763 284.822 387.516 284.216 387.022C283.609 386.528 283.306 385.839 283.306 384.955ZM286.686 383.265C286.131 383.265 285.676 383.399 285.321 383.668C284.974 383.928 284.801 384.335 284.801 384.89C284.801 385.453 284.987 385.861 285.36 386.112C285.732 386.355 286.209 386.476 286.79 386.476C287.587 386.476 288.298 386.229 288.922 385.735C288.766 384.088 288.02 383.265 286.686 383.265ZM296.386 391H294.995V384.76H299.649V385.982H296.386V391ZM301.968 385.735C302.601 384.972 303.403 384.591 304.373 384.591C305.292 384.591 306.037 384.912 306.609 385.553C307.181 386.186 307.467 386.961 307.467 387.88C307.467 388.799 307.181 389.579 306.609 390.22C306.037 390.853 305.292 391.169 304.373 391.169C303.437 391.169 302.688 390.844 302.124 390.194V393.86H300.733V384.76H301.968V385.735ZM305.504 389.375C305.868 388.985 306.05 388.487 306.05 387.88C306.05 387.273 305.868 386.779 305.504 386.398C305.14 386.008 304.677 385.813 304.113 385.813C303.654 385.813 303.247 385.939 302.891 386.19C302.545 386.441 302.289 386.749 302.124 387.113V388.634C302.289 389.007 302.545 389.319 302.891 389.57C303.247 389.821 303.654 389.947 304.113 389.947C304.677 389.947 305.14 389.756 305.504 389.375ZM310.211 391H308.82V384.76H310.211V387.269H313.331V384.76H314.722V391H313.331V388.491H310.211V391Z" fill="white"/>
<defs>
<filter id="filter0_d_804:46" x="0" y="0" width="867" height="613" filterUnits="userSpaceOnUse" color-interpolation-filters="sRGB">
<feFlood flood-opacity="0" result="BackgroundImageFix"/>
<feColorMatrix in="SourceAlpha" type="matrix" values="0 0 0 0 0 0 0 0 0 0 0 0 0 0 0 0 0 0 127 0" result="hardAlpha"/>
<feOffset dy="4"/>
<feGaussianBlur stdDeviation="25"/>
<feComposite in2="hardAlpha" operator="out"/>
<feColorMatrix type="matrix" values="0 0 0 0 0 0 0 0 0 0 0 0 0 0 0 0 0 0 0.1 0"/>
<feBlend mode="normal" in2="BackgroundImageFix" result="effect1_dropShadow_804:46"/>
<feBlend mode="normal" in="SourceGraphic" in2="effect1_dropShadow_804:46" result="shape"/>
</filter>
<filter id="filter1_d_804:46" x="30" y="71" width="115" height="518" filterUnits="userSpaceOnUse" color-interpolation-filters="sRGB">
<feFlood flood-opacity="0" result="BackgroundImageFix"/>
<feColorMatrix in="SourceAlpha" type="matrix" values="0 0 0 0 0 0 0 0 0 0 0 0 0 0 0 0 0 0 127 0" result="hardAlpha"/>
<feOffset dx="10"/>
<feGaussianBlur stdDeviation="15"/>
<feComposite in2="hardAlpha" operator="out"/>
<feColorMatrix type="matrix" values="0 0 0 0 0 0 0 0 0 0 0 0 0 0 0 0 0 0 0.1 0"/>
<feBlend mode="normal" in2="BackgroundImageFix" result="effect1_dropShadow_804:46"/>
<feBlend mode="normal" in="SourceGraphic" in2="effect1_dropShadow_804:46" result="shape"/>
</filter>
<filter id="filter2_d_804:46" x="85" y="16" width="772" height="115" filterUnits="userSpaceOnUse" color-interpolation-filters="sRGB">
<feFlood flood-opacity="0" result="BackgroundImageFix"/>
<feColorMatrix in="SourceAlpha" type="matrix" values="0 0 0 0 0 0 0 0 0 0 0 0 0 0 0 0 0 0 127 0" result="hardAlpha"/>
<feOffset dx="10"/>
<feGaussianBlur stdDeviation="15"/>
<feComposite in2="hardAlpha" operator="out"/>
<feColorMatrix type="matrix" values="0 0 0 0 0 0 0 0 0 0 0 0 0 0 0 0 0 0 0.1 0"/>
<feBlend mode="normal" in2="BackgroundImageFix" result="effect1_dropShadow_804:46"/>
<feBlend mode="normal" in="SourceGraphic" in2="effect1_dropShadow_804:46" result="shape"/>
</filter>
</defs>
</svg>
