<svg viewBox="0 0 15 15" fill="none" xmlns="http://www.w3.org/2000/svg">
<path d="M12.8311 6.29458C12.8492 4.17976 11.0479 2.24103 8.81597 1.97294C8.77158 1.96768 8.72322 1.95967 8.67203 1.95119C8.56153 1.93288 8.44726 1.91406 8.33197 1.91406C7.87451 1.91406 7.75223 2.2354 7.72004 2.42704C7.68874 2.61338 7.7186 2.76985 7.80864 2.89232C7.96013 3.09832 8.22669 3.13489 8.44079 3.16419C8.50353 3.17285 8.56274 3.18091 8.61231 3.19204C10.6176 3.64013 11.2929 4.34462 11.6229 6.33291C11.6309 6.3815 11.6346 6.44136 11.6384 6.50485C11.6528 6.74253 11.6828 7.23701 12.2144 7.23701H12.2145C12.2588 7.23701 12.3063 7.23319 12.3558 7.22565C12.8509 7.15041 12.8354 6.69841 12.8279 6.48124C12.8258 6.42007 12.8238 6.36221 12.829 6.32374C12.8304 6.31405 12.8311 6.30431 12.8311 6.29458Z" fill="white"/>
<path d="M8.20209 1.19665C8.26149 1.20093 8.31772 1.20503 8.36453 1.2122C11.6575 1.71862 13.1719 3.2788 13.5916 6.59753C13.5987 6.65394 13.5998 6.72275 13.601 6.79561C13.6052 7.05489 13.6138 7.59429 14.1931 7.60547L14.211 7.60565C14.3927 7.60565 14.5372 7.55087 14.6406 7.4427C14.8209 7.25408 14.8083 6.97388 14.7982 6.7487C14.7957 6.69345 14.7933 6.64141 14.794 6.59585C14.8358 3.20166 11.8978 0.12382 8.50661 0.00936335C8.49255 0.00889752 8.47913 0.00964286 8.46557 0.0115528C8.45891 0.0125311 8.44657 0.0137422 8.42542 0.0137422C8.3916 0.0137422 8.35 0.0108075 8.30588 0.00782609C8.25255 0.00419255 8.19208 0 8.13078 0C7.59073 0 7.48806 0.383851 7.47492 0.612671C7.44464 1.14149 7.95623 1.17871 8.20209 1.19665Z" fill="white"/>
<path d="M13.4327 10.8864C13.3627 10.8329 13.2903 10.7775 13.2225 10.7229C12.863 10.4336 12.4805 10.1669 12.1105 9.90898C12.0338 9.8555 11.957 9.80198 11.8805 9.74831C11.4067 9.41547 10.9806 9.25373 10.5782 9.25373C10.0361 9.25373 9.56342 9.55326 9.17333 10.1439C9.0005 10.4057 8.79083 10.5331 8.53243 10.5331C8.37963 10.5331 8.20602 10.4895 8.01647 10.4034C6.48698 9.70983 5.39482 8.64642 4.77027 7.24271C4.46836 6.56426 4.56623 6.12078 5.09757 5.75985C5.39929 5.55507 5.96091 5.17382 5.92112 4.44376C5.87608 3.61471 4.04682 1.12019 3.27609 0.836868C2.94977 0.716868 2.60692 0.71575 2.25521 0.834073C1.36918 1.13193 0.733361 1.65502 0.416311 2.3467C0.109929 3.01504 0.123764 3.79979 0.456326 4.61612C1.41772 6.97634 2.7694 9.03413 4.47395 10.7323C6.1424 12.3946 8.19306 13.7562 10.5689 14.7792C10.7831 14.8714 11.0077 14.9216 11.1717 14.9583C11.2276 14.9709 11.2759 14.9816 11.3111 14.9912C11.3304 14.9965 11.3503 14.9993 11.3703 14.9995L11.3891 14.9996C11.3891 14.9996 11.3891 14.9996 11.3892 14.9996C12.5066 14.9996 13.8484 13.9785 14.2605 12.8144C14.6215 11.795 13.9623 11.2912 13.4327 10.8864Z" fill="white"/>
<path d="M8.69582 3.89299C8.5045 3.89783 8.10635 3.90771 7.96664 4.31322C7.90129 4.50272 7.90911 4.66726 7.98994 4.80226C8.10854 5.00033 8.33577 5.06103 8.54247 5.09434C9.29205 5.21462 9.67702 5.62912 9.75402 6.39869C9.7898 6.75752 10.0314 7.0081 10.3417 7.0081H10.3417C10.3646 7.0081 10.3881 7.00675 10.4114 7.00391C10.7845 6.95951 10.9654 6.68537 10.9491 6.18915C10.955 5.67128 10.684 5.08334 10.2231 4.61504C9.76054 4.14528 9.20298 3.88073 8.69582 3.89299Z" fill="white"/>
</svg>
